<svg viewBox="0 0 24 24" xmlns="http://www.w3.org/2000/svg" id="Hospital-Board--Streamline-Ultimate"><desc>Hospital Board Streamline Icon: https://streamlinehq.com</desc><path d="M0.75 12a11.25 11.25 0 1 0 22.5 0 11.25 11.25 0 1 0 -22.5 0Z" fill="none" stroke="#000000" stroke-linecap="round" stroke-linejoin="round" stroke-width="1"></path><path d="M18 9.75h-3.75V6a0.75 0.75 0 0 0 -0.75 -0.75h-3a0.75 0.75 0 0 0 -0.75 0.75v3.75H6a0.75 0.75 0 0 0 -0.75 0.75v3a0.75 0.75 0 0 0 0.75 0.75h3.75V18a0.75 0.75 0 0 0 0.75 0.75h3a0.75 0.75 0 0 0 0.75 -0.75v-3.75H18a0.75 0.75 0 0 0 0.75 -0.75v-3a0.75 0.75 0 0 0 -0.75 -0.75Z" fill="none" stroke="#000000" stroke-linecap="round" stroke-linejoin="round" stroke-width="1"></path></svg>