<svg id="Hospital-Sign--Streamline-Ultimate" xmlns="http://www.w3.org/2000/svg" viewBox="0 0 24 24"><desc>Hospital Sign Streamline Icon: https://streamlinehq.com</desc><defs></defs><title>hospital-sign</title><path d="m1.5 0.75 0 22.5" fill="none" stroke="#000000" stroke-linecap="round" stroke-linejoin="round" stroke-width="1"></path><path d="m6 6.75 -4.5 0" fill="none" stroke="#000000" stroke-linecap="round" stroke-linejoin="round" stroke-width="1"></path><path d="m6 17.25 -4.5 0" fill="none" stroke="#000000" stroke-linecap="round" stroke-linejoin="round" stroke-width="1"></path><path d="M18.75 9.75H16.5V7.5a0.75 0.75 0 0 0 -0.75 -0.75h-3a0.75 0.75 0 0 0 -0.75 0.75v2.25H9.75a0.75 0.75 0 0 0 -0.75 0.75v3a0.75 0.75 0 0 0 0.75 0.75H12v2.25a0.75 0.75 0 0 0 0.75 0.75h3a0.75 0.75 0 0 0 0.75 -0.75v-2.25h2.25a0.75 0.75 0 0 0 0.75 -0.75v-3a0.75 0.75 0 0 0 -0.75 -0.75Z" fill="none" stroke="#000000" stroke-linecap="round" stroke-linejoin="round" stroke-width="1"></path><path d="M7 3.75h14.5s1 0 1 1v14.5s0 1 -1 1H7s-1 0 -1 -1V4.75s0 -1 1 -1" fill="none" stroke="#000000" stroke-linecap="round" stroke-linejoin="round" stroke-width="1"></path></svg>