<svg xmlns="http://www.w3.org/2000/svg" fill="none" viewBox="0 0 24 24" id="Hospital-Location--Streamline-Ultimate"><desc>Hospital Location Streamline Icon: https://streamlinehq.com</desc><path stroke="#000000" stroke-linecap="round" stroke-linejoin="round" d="M9.96398 21.4771c-0.71989 1.0276 -1.19936 1.6679 -1.19936 1.6679S1.04883 12.8402 1.04883 8.57077c0 -2.04636 0.81291 -4.0089 2.2599 -5.45589C4.75572 1.66789 6.71826 0.85498 8.76462 0.85498c2.04638 0 4.00888 0.81291 5.45588 2.2599 1.2896 1.28962 2.0756 2.98876 2.2313 4.79176" stroke-width="1"></path><path stroke="#000000" stroke-linecap="round" stroke-linejoin="round" d="M8.76456 11.1426c1.42044 0 2.57194 -1.15145 2.57194 -2.57189 0 -1.42044 -1.1515 -2.57193 -2.57194 -2.57193 -1.42044 0 -2.57193 1.15149 -2.57193 2.57193 0 1.42044 1.15149 2.57189 2.57193 2.57189Z" stroke-width="1"></path><path stroke="#000000" stroke-linecap="round" stroke-linejoin="round" d="M17.0502 23.1449c3.3144 0 6.0012 -2.6868 6.0012 -6.0012 0 -3.3143 -2.6868 -6.0011 -6.0012 -6.0011 -3.3143 0 -6.0011 2.6868 -6.0011 6.0011 0 3.3144 2.6868 6.0012 6.0011 6.0012Z" stroke-width="1"></path><path stroke="#000000" stroke-linecap="round" stroke-linejoin="round" d="M15.436 19.565v-4.8425m3.2283 0v4.8425m-3.2283 -2.623h3.2283" stroke-width="1"></path></svg>