<svg xmlns="http://www.w3.org/2000/svg" fill="none" viewBox="0 0 24 24" id="Hospital-Cross-Location--Streamline-Ultimate"><desc>Hospital Cross Location Streamline Icon: https://streamlinehq.com</desc><path stroke="#000000" stroke-linecap="round" stroke-linejoin="round" d="M9.96398 21.4771c-0.71989 1.0276 -1.19936 1.6679 -1.19936 1.6679S1.04883 12.8402 1.04883 8.57077c0 -2.04636 0.81291 -4.0089 2.2599 -5.45589C4.75572 1.66789 6.71826 0.85498 8.76462 0.85498c2.04638 0 4.00888 0.81291 5.45588 2.2599 1.2896 1.28962 2.0756 2.98876 2.2313 4.79176" stroke-width="1"></path><path stroke="#000000" stroke-linecap="round" stroke-linejoin="round" d="M8.76456 11.1426c1.42044 0 2.57194 -1.15145 2.57194 -2.57189 0 -1.42044 -1.1515 -2.57193 -2.57194 -2.57193 -1.42044 0 -2.57193 1.15149 -2.57193 2.57193 0 1.42044 1.15149 2.57189 2.57193 2.57189Z" stroke-width="1"></path><path stroke="#000000" stroke-linecap="round" stroke-linejoin="round" d="m19.2302 10.8208 -4.3815 0 0 3.7212h-3.7215v4.3815h3.7215l0 3.7213h4.3815v-3.7213h3.7209V14.542h-3.7209v-3.7212Z" stroke-width="1"></path></svg>