<svg xmlns="http://www.w3.org/2000/svg" fill="none" viewBox="0 0 24 24" id="Hospital-Building-Pin-Cross--Streamline-Ultimate"><desc>Hospital Building Pin Cross Streamline Icon: https://streamlinehq.com</desc><path stroke="#000000" stroke-linecap="round" stroke-linejoin="round" d="m0.887701 4.9845 10.957299 0 0 17.9771 -10.9573 0L0.887701 4.9845Z" stroke-width="1"></path><path stroke="#000000" stroke-linecap="round" stroke-linejoin="round" d="m11.8448 15.0571 8.0263 0 0 7.9045 -8.0263 0 0 -7.9045Z" stroke-width="1"></path><path stroke="#000000" stroke-linecap="round" stroke-linejoin="round" d="M23.1123 4.71424c0 2.034 -3.6759 6.94336 -3.6759 6.94336s-3.6759 -4.90936 -3.6759 -6.94336c0 -0.97491 0.3873 -1.90989 1.0766 -2.59926 0.6894 -0.68937 1.6244 -1.07665 2.5993 -1.07665 0.9749 0 1.9099 0.38728 2.5993 1.07665 0.6893 0.68937 1.0766 1.62435 1.0766 2.59926v0Z" stroke-width="1"></path><path stroke="#000000" stroke-linecap="round" stroke-linejoin="round" d="M19.4363 5.18371c-0.2402 0 -0.4348 -0.19467 -0.4348 -0.43481 0 -0.24014 0.1946 -0.43481 0.4348 -0.43481" stroke-width="1"></path><path stroke="#000000" stroke-linecap="round" stroke-linejoin="round" d="M19.4364 5.18371c0.2401 0 0.4348 -0.19467 0.4348 -0.43481 0 -0.24014 -0.1947 -0.43481 -0.4348 -0.43481" stroke-width="1"></path><path stroke="#000000" stroke-linecap="round" stroke-linejoin="round" d="M6.36646 22.9617v-3.1059" stroke-width="1"></path><path stroke="#000000" stroke-linecap="round" stroke-linejoin="round" d="M6.36646 7.93921v4.25429" stroke-width="1"></path><path stroke="#000000" stroke-linecap="round" stroke-linejoin="round" d="m8.4939 10.0664 -4.25427 0" stroke-width="1"></path></svg>