<svg viewBox="0 0 24 24" xmlns="http://www.w3.org/2000/svg" id="Newspaper-Read--Streamline-Ultimate"><desc>Newspaper Read Streamline Icon: https://streamlinehq.com</desc><path d="M8.625 4.125a3.375 3.375 0 1 0 6.75 0 3.375 3.375 0 1 0 -6.75 0Z" fill="none" stroke="#000000" stroke-linecap="round" stroke-linejoin="round" stroke-width="1"></path><path d="M14.92 9.75a6.059 6.059 0 0 0 -5.84 0" fill="none" stroke="#000000" stroke-linecap="round" stroke-linejoin="round" stroke-width="1"></path><path d="M12 23.25s3.514 -3.126 6.986 -3.479a1.464 1.464 0 0 0 1.264 -1.481v-5.528a1.471 1.471 0 0 0 -1.625 -1.5c-3.259 0.364 -6.625 3.01 -6.625 3.01s-3.366 -2.646 -6.625 -3.01a1.471 1.471 0 0 0 -1.625 1.5v5.528a1.464 1.464 0 0 0 1.264 1.481C8.485 20.124 12 23.25 12 23.25Z" fill="none" stroke="#000000" stroke-linecap="round" stroke-linejoin="round" stroke-width="1"></path><path d="m12 14.269 0 8.978" fill="none" stroke="#000000" stroke-linecap="round" stroke-linejoin="round" stroke-width="1"></path></svg>