<svg xmlns="http://www.w3.org/2000/svg" viewBox="0 0 24 24" id="Performance-Presentation-Graph--Streamline-Ultimate"><desc>Performance Presentation Graph Streamline Icon: https://streamlinehq.com</desc><defs></defs><title>performance-presentation-graph</title><path d="m3.75 11.7 1.833 -1.834a0.972 0.972 0 0 1 1.374 0L8.1 11.012a0.972 0.972 0 0 0 1.374 0L12.2 8.291a0.972 0.972 0 0 1 1.374 0l2.091 2.091a0.972 0.972 0 0 0 1.374 0L20.25 7.2" fill="none" stroke="#000000" stroke-linecap="round" stroke-linejoin="round" stroke-width="1"></path><path d="m11.808 0.75 0 1.438" fill="none" stroke="#000000" stroke-linecap="round" stroke-linejoin="round" stroke-width="1"></path><path d="M1.75 2.188h20.5s1 0 1 1v13.75s0 1 -1 1H1.75s-1 0 -1 -1V3.188s0 -1 1 -1" fill="none" stroke="#000000" stroke-linecap="round" stroke-linejoin="round" stroke-width="1"></path><path d="m12 17.938 0 3" fill="none" stroke="#000000" stroke-linecap="round" stroke-linejoin="round" stroke-width="1"></path><path d="M8.921 23.247 12 20.938l3.076 2.307" fill="none" stroke="#000000" stroke-linecap="round" stroke-linejoin="round" stroke-width="1"></path></svg>