<svg xmlns="http://www.w3.org/2000/svg" viewBox="0 0 24 24" id="Performance-Money-Increase--Streamline-Ultimate"><desc>Performance Money Increase Streamline Icon: https://streamlinehq.com</desc><g><path d="M21.75 0.75 14.4 8.1a1.49 1.49 0 0 1 -1.93 0.16l-3.3 -2.35A1.5 1.5 0 0 0 7.36 6L0.75 11.25" fill="none" stroke="#000000" stroke-linecap="round" stroke-linejoin="round" stroke-width="1"></path><path d="m15.75 0.75 6 0 0 6" fill="none" stroke="#000000" stroke-linecap="round" stroke-linejoin="round" stroke-width="1"></path><path d="M15 19.25h7.5s0.75 0 0.75 0.75v2.5s0 0.75 -0.75 0.75H15s-0.75 0 -0.75 -0.75V20s0 -0.75 0.75 -0.75" fill="none" stroke="#000000" stroke-linecap="round" stroke-linejoin="round" stroke-width="1"></path><path d="M3 19.25h7.5s0.75 0 0.75 0.75v2.5s0 0.75 -0.75 0.75H3s-0.75 0 -0.75 -0.75V20s0 -0.75 0.75 -0.75" fill="none" stroke="#000000" stroke-linecap="round" stroke-linejoin="round" stroke-width="1"></path><path d="M1.5 15.25H9s0.75 0 0.75 0.75v2.5s0 0.75 -0.75 0.75H1.5s-0.75 0 -0.75 -0.75V16s0 -0.75 0.75 -0.75" fill="none" stroke="#000000" stroke-linecap="round" stroke-linejoin="round" stroke-width="1"></path><path d="M13.5 15.25H21s0.75 0 0.75 0.75v2.5s0 0.75 -0.75 0.75h-7.5s-0.75 0 -0.75 -0.75V16s0 -0.75 0.75 -0.75" fill="none" stroke="#000000" stroke-linecap="round" stroke-linejoin="round" stroke-width="1"></path><path d="M15 11.25h7.5s0.75 0 0.75 0.75v2.5s0 0.75 -0.75 0.75H15s-0.75 0 -0.75 -0.75V12s0 -0.75 0.75 -0.75" fill="none" stroke="#000000" stroke-linecap="round" stroke-linejoin="round" stroke-width="1"></path></g></svg>