<svg viewBox="0 0 24 24" xmlns="http://www.w3.org/2000/svg" id="Performance-Phone-Increase--Streamline-Ultimate"><desc>Performance Phone Increase Streamline Icon: https://streamlinehq.com</desc><path d="m21.75 9.625 -0.579 -3.456 -3.456 0.579" fill="none" stroke="#000000" stroke-linecap="round" stroke-linejoin="round" stroke-width="1"></path><path d="m21.171 6.169 -3.384 4.745a0.777 0.777 0 0 1 -1.087 0.186l-1.87 -1.333a0.779 0.779 0 0 0 -1.086 0.182l-3.064 4.3" fill="none" stroke="#000000" stroke-linecap="round" stroke-linejoin="round" stroke-width="1"></path><path d="M15.75 14.992v5.25a3 3 0 0 1 -3 3h-7.5a3 3 0 0 1 -3 -3v-16.5a3 3 0 0 1 3 -3h7.5a3 3 0 0 1 3 3" fill="none" stroke="#000000" stroke-linecap="round" stroke-linejoin="round" stroke-width="1"></path><path d="m2.25 18.742 13.5 0" fill="none" stroke="#000000" stroke-linecap="round" stroke-linejoin="round" stroke-width="1"></path></svg>