<svg viewBox="0 0 24 24" xmlns="http://www.w3.org/2000/svg" id="Performance-Tablet-Increase--Streamline-Ultimate"><desc>Performance Tablet Increase Streamline Icon: https://streamlinehq.com</desc><path d="m23.25 20.985 -1.49 -2.235V13.5c0 -2 -3.8 -4.14 -5.25 -5.25" fill="none" stroke="#000000" stroke-linecap="round" stroke-linejoin="round" stroke-width="1"></path><path d="m18.44 14.793 -3.648 -2.923a1.3 1.3 0 0 0 -1.843 1.843l3.533 3.987v2.5c0 1.181 1.688 3.045 1.688 3.045" fill="none" stroke="#000000" stroke-linecap="round" stroke-linejoin="round" stroke-width="1"></path><path d="M13.51 21.75H2.134A1.375 1.375 0 0 1 0.76 20.375V2.124A1.374 1.374 0 0 1 2.134 0.75h13a1.375 1.375 0 0 1 1.376 1.374v11.123" fill="none" stroke="#000000" stroke-linecap="round" stroke-linejoin="round" stroke-width="1"></path><path d="m9.76 3.75 3 0 0 3" fill="none" stroke="#000000" stroke-linecap="round" stroke-linejoin="round" stroke-width="1"></path><path d="m12.76 3.75 -9 8.25" fill="none" stroke="#000000" stroke-linecap="round" stroke-linejoin="round" stroke-width="1"></path><path d="m5.25 15.75 0 3" fill="none" stroke="#000000" stroke-linecap="round" stroke-linejoin="round" stroke-width="1"></path><path d="m8.25 13.5 0 5.25" fill="none" stroke="#000000" stroke-linecap="round" stroke-linejoin="round" stroke-width="1"></path></svg>