<svg xmlns="http://www.w3.org/2000/svg" viewBox="0 0 24 24" id="Performance-Increase-Mail--Streamline-Ultimate"><desc>Performance Increase Mail Streamline Icon: https://streamlinehq.com</desc><g><g><path d="M22.5 11.75v10a1.5 1.5 0 0 1 -1.5 1.5H3a1.5 1.5 0 0 1 -1.5 -1.5v-10" fill="none" stroke="#000000" stroke-linecap="round" stroke-linejoin="round" stroke-width="1"></path><path d="m1.8 11.24 8.35 6.62a3 3 0 0 0 3.7 0l8.35 -6.62" fill="none" stroke="#000000" stroke-linecap="round" stroke-linejoin="round" stroke-width="1"></path></g><g><path d="m18.58 5.05 0.92 -3.38 -3.38 -0.92" fill="none" stroke="#000000" stroke-linecap="round" stroke-linejoin="round" stroke-width="1"></path><path d="m19.5 1.67 -5.06 2.9a0.78 0.78 0 0 1 -1.06 -0.29l-1.14 -2A0.77 0.77 0 0 0 11.18 2L6.6 4.63" fill="none" stroke="#000000" stroke-linecap="round" stroke-linejoin="round" stroke-width="1"></path></g><path d="M17.75 14.77v-6A0.76 0.76 0 0 0 17 8h-2.75a0.76 0.76 0 0 0 -0.75 0.75v9.35" fill="none" stroke="#000000" stroke-linecap="round" stroke-linejoin="round" stroke-width="1"></path><path d="M10.5 18.1v-7.85a0.76 0.76 0 0 0 -0.75 -0.75H7a0.76 0.76 0 0 0 -0.75 0.75v4.52" fill="none" stroke="#000000" stroke-linecap="round" stroke-linejoin="round" stroke-width="1"></path><path d="M1.5 11.75 3.75 8" fill="none" stroke="#000000" stroke-linecap="round" stroke-linejoin="round" stroke-width="1"></path><path d="M22.5 11.75 20.25 8" fill="none" stroke="#000000" stroke-linecap="round" stroke-linejoin="round" stroke-width="1"></path></g></svg>