<svg xmlns="http://www.w3.org/2000/svg" fill="none" viewBox="0 0 24 24" id="Performance-Graph-Calculator--Streamline-Ultimate"><desc>Performance Graph Calculator Streamline Icon: https://streamlinehq.com</desc><path stroke="#000000" stroke-linecap="round" stroke-linejoin="round" d="M8.25 15.75H1.714c-0.25215 0.0032 -0.49527 -0.0938 -0.676 -0.2697 -0.180735 -0.1758 -0.284312 -0.4162 -0.288 -0.6683V1.68697c0.003687 -0.25206 0.107296 -0.49233 0.28806 -0.66803 0.18076 -0.175701 0.42388 -0.272445 0.67594 -0.268972h18.322c0.2521 -0.003473 0.4952 0.093271 0.6759 0.268972 0.1808 0.1757 0.2844 0.41597 0.2881 0.66803v3.563" stroke-width="1"></path><path stroke="#000000" d="M15.375 18c-0.2071 0 -0.375 -0.1679 -0.375 -0.375s0.1679 -0.375 0.375 -0.375" stroke-width="1"></path><path stroke="#000000" d="M15.375 18c0.2071 0 0.375 -0.1679 0.375 -0.375s-0.1679 -0.375 -0.375 -0.375" stroke-width="1"></path><path stroke="#000000" d="M19.125 18c-0.2071 0 -0.375 -0.1679 -0.375 -0.375s0.1679 -0.375 0.375 -0.375" stroke-width="1"></path><path stroke="#000000" d="M19.125 18c0.2071 0 0.375 -0.1679 0.375 -0.375s-0.1679 -0.375 -0.375 -0.375" stroke-width="1"></path><path stroke="#000000" d="M15.375 21c-0.2071 0 -0.375 -0.1679 -0.375 -0.375s0.1679 -0.375 0.375 -0.375" stroke-width="1"></path><path stroke="#000000" d="M15.375 21c0.2071 0 0.375 -0.1679 0.375 -0.375s-0.1679 -0.375 -0.375 -0.375" stroke-width="1"></path><path stroke="#000000" d="M19.125 21c-0.2071 0 -0.375 -0.1679 -0.375 -0.375s0.1679 -0.375 0.375 -0.375" stroke-width="1"></path><path stroke="#000000" d="M19.125 21c0.2071 0 0.375 -0.1679 0.375 -0.375s-0.1679 -0.375 -0.375 -0.375" stroke-width="1"></path><path stroke="#000000" stroke-linecap="round" stroke-linejoin="round" d="M20.25 13.75c0 0.353 -0.214 0.5 -0.429 0.5h-5.142c-0.215 0 -0.428 -0.164 -0.428 -0.518V11.75c0 -0.354 0.214 -0.5 0.429 -0.5h5.142c0.215 0 0.429 0.146 0.429 0.5l-0.001 2Z" stroke-width="1"></path><path stroke="#000000" stroke-linecap="round" stroke-linejoin="round" d="M22.09 8.25h-9.68c-0.6407 0 -1.16 0.51935 -1.16 1.16v12.68c0 0.6407 0.5193 1.16 1.16 1.16h9.68c0.6407 0 1.16 -0.5193 1.16 -1.16V9.41c0 -0.64065 -0.5193 -1.16 -1.16 -1.16Z" stroke-width="1"></path><path stroke="#000000" stroke-linecap="round" stroke-linejoin="round" d="M3.75 8.25 6 6l3 1.5 3.75 -3.75" stroke-width="1"></path><path stroke="#000000" stroke-linecap="round" stroke-linejoin="round" d="M10.5 3.75h2.25V6" stroke-width="1"></path></svg>