<svg xmlns="http://www.w3.org/2000/svg" fill="none" viewBox="0 0 24 24" id="Email-Sending-Circle--Streamline-Ultimate"><desc>Email Sending Circle Streamline Icon: https://streamlinehq.com</desc><path stroke="#000000" stroke-linecap="round" stroke-linejoin="round" stroke-miterlimit="10" d="M5.42927 12.6969c-0.29868 -0.0995 -0.49779 -0.3982 -0.49779 -0.6968 0 -0.2987 0.19911 -0.5975 0.49779 -0.697L17.7744 6.22567 12.697 18.5708c-0.0996 0.2987 -0.3983 0.4978 -0.6969 0.4978 -0.2987 0 -0.5974 -0.1991 -0.6969 -0.4978l-1.4934 -4.3805 -4.38053 -1.4934Z" stroke-width="1"></path><path stroke="#000000" stroke-linecap="round" stroke-linejoin="round" stroke-miterlimit="10" d="m9.90936 14.1903 2.68804 -2.7877" stroke-width="1"></path><path stroke="#000000" stroke-linecap="round" stroke-linejoin="round" stroke-miterlimit="10" d="M12 23.25c6.2132 0 11.25 -5.0367 11.25 -11.2499C23.25 5.78685 18.2132 0.75 12 0.75 5.78679 0.75 0.749985 5.78685 0.749985 12.0001 0.749985 18.2133 5.78679 23.25 12 23.25Z" stroke-width="1"></path></svg>