<svg xmlns="http://www.w3.org/2000/svg" viewBox="0 0 24 24" id="Cake-Birthday--Streamline-Ultimate"><desc>Cake Birthday Streamline Icon: https://streamlinehq.com</desc><g><path d="m1.5 23.25 21 0" fill="none" stroke="#000000" stroke-linecap="round" stroke-linejoin="round" stroke-width="1"></path><path d="M4.5 9.75h15s1.5 0 1.5 1.5v6.5s0 1.5 -1.5 1.5h-15s-1.5 0 -1.5 -1.5v-6.5s0 -1.5 1.5 -1.5" fill="none" stroke="#000000" stroke-linecap="round" stroke-linejoin="round" stroke-width="1"></path><path d="m12 7.5 0 2.25" fill="none" stroke="#000000" stroke-linecap="round" stroke-linejoin="round" stroke-width="1"></path><path d="M13.5 3a1.5 1.5 0 0 1 -3 0c0 -0.83 1.5 -2.25 1.5 -2.25S13.5 2.17 13.5 3Z" fill="none" stroke="#000000" stroke-linecap="round" stroke-linejoin="round" stroke-width="1"></path><path d="m18 7.5 0 2.25" fill="none" stroke="#000000" stroke-linecap="round" stroke-linejoin="round" stroke-width="1"></path><path d="M19.5 3a1.5 1.5 0 0 1 -3 0c0 -0.83 1.5 -2.25 1.5 -2.25S19.5 2.17 19.5 3Z" fill="none" stroke="#000000" stroke-linecap="round" stroke-linejoin="round" stroke-width="1"></path><path d="m6 7.5 0 2.25" fill="none" stroke="#000000" stroke-linecap="round" stroke-linejoin="round" stroke-width="1"></path><path d="M7.5 3a1.5 1.5 0 0 1 -3 0C4.5 2.17 6 0.75 6 0.75S7.5 2.17 7.5 3Z" fill="none" stroke="#000000" stroke-linecap="round" stroke-linejoin="round" stroke-width="1"></path><path d="M3 14.22a2.61 2.61 0 0 0 4.5 0 2.61 2.61 0 0 0 4.5 0 2.61 2.61 0 0 0 4.5 0 2.61 2.61 0 0 0 4.5 0" fill="none" stroke="#000000" stroke-linecap="round" stroke-linejoin="round" stroke-width="1"></path></g></svg>