<svg xmlns="http://www.w3.org/2000/svg" viewBox="0 0 24 24" id="Cake-Sifter--Streamline-Ultimate"><desc>Cake Sifter Streamline Icon: https://streamlinehq.com</desc><g><path d="m2.22 14.25 0 2.25" fill="none" stroke="#000000" stroke-linecap="round" stroke-linejoin="round" stroke-width="1"></path><path d="m2.22 19.5 0 2.25" fill="none" stroke="#000000" stroke-linecap="round" stroke-linejoin="round" stroke-width="1"></path><path d="m11.22 14.25 0 2.25" fill="none" stroke="#000000" stroke-linecap="round" stroke-linejoin="round" stroke-width="1"></path><path d="m11.22 19.5 0 2.25" fill="none" stroke="#000000" stroke-linecap="round" stroke-linejoin="round" stroke-width="1"></path><path d="m6.72 15.75 0 2.25" fill="none" stroke="#000000" stroke-linecap="round" stroke-linejoin="round" stroke-width="1"></path><path d="m6.72 21 0 2.25" fill="none" stroke="#000000" stroke-linecap="round" stroke-linejoin="round" stroke-width="1"></path><path d="m23.22 6.25 -10.5 0" fill="none" stroke="#000000" stroke-linecap="round" stroke-linejoin="round" stroke-width="1"></path><path d="m2.22 6.25 -0.34 -0.45a3.29 3.29 0 0 1 -0.25 -1.26 2.11 2.11 0 0 1 2.1 -2.11 2.07 2.07 0 0 1 1.54 0.7 3.79 3.79 0 0 1 7.3 1.41 4.36 4.36 0 0 1 -0.18 1.26l-0.39 0.45" fill="none" stroke="#000000" stroke-linecap="round" stroke-linejoin="round" stroke-width="1"></path><path d="M12.72 6.25a6 6 0 0 1 -11.94 0.86 0.76 0.76 0 0 1 0.75 -0.86Z" fill="none" stroke="#000000" stroke-linecap="round" stroke-linejoin="round" stroke-width="1"></path></g></svg>