<svg viewBox="0 0 24 24" xmlns="http://www.w3.org/2000/svg" id="Cake-Cream--Streamline-Ultimate"><desc>Cake Cream Streamline Icon: https://streamlinehq.com</desc><path d="M18.306 23.25H5.64a1.5 1.5 0 0 1 -1.491 -1.334l-1.166 -12a1.5 1.5 0 0 1 1.49 -1.666h15a1.5 1.5 0 0 1 1.491 1.666l-1.167 12a1.5 1.5 0 0 1 -1.491 1.334Z" fill="none" stroke="#000000" stroke-linecap="round" stroke-linejoin="round" stroke-width="1"></path><path d="m7.473 8.25 0 15" fill="none" stroke="#000000" stroke-linecap="round" stroke-linejoin="round" stroke-width="1"></path><path d="m11.973 8.25 0 15" fill="none" stroke="#000000" stroke-linecap="round" stroke-linejoin="round" stroke-width="1"></path><path d="m16.473 8.25 0 15" fill="none" stroke="#000000" stroke-linecap="round" stroke-linejoin="round" stroke-width="1"></path><path d="M19.367 5.25a2.952 2.952 0 0 0 -3.894 -2.066 3.733 3.733 0 0 0 -7 0 2.962 2.962 0 0 0 -1 -0.184 2.993 2.993 0 0 0 -2.894 2.25" fill="none" stroke="#000000" stroke-linecap="round" stroke-linejoin="round" stroke-width="1"></path></svg>