<svg id="Candy-Jar--Streamline-Ultimate" xmlns="http://www.w3.org/2000/svg" viewBox="0 0 24 24"><desc>Candy Jar Streamline Icon: https://streamlinehq.com</desc><defs></defs><title>candy-jar</title><path d="M5.921 0.75h12.104s1.448 0 1.448 1.448v1.604s0 1.448 -1.448 1.448H5.921s-1.448 0 -1.448 -1.448V2.198S4.473 0.75 5.921 0.75" fill="none" stroke="#000000" stroke-linecap="round" stroke-linejoin="round" stroke-width="1"></path><path d="M5.7 5.23c-7.186 3.69 -3.77 14.181 -0.155 17.645a1.431 1.431 0 0 0 1 0.375H17.4a1.429 1.429 0 0 0 1 -0.375c3.615 -3.464 7.03 -13.952 -0.151 -17.644" fill="none" stroke="#000000" stroke-linecap="round" stroke-linejoin="round" stroke-width="1"></path><path d="m14.973 12.973 0 -3.405 -3.027 -1.318 -2.973 1.318 0 3.405 2.973 1.318 3.027 -1.318z" fill="none" stroke="#000000" stroke-linecap="round" stroke-linejoin="round" stroke-width="1"></path><path d="m11.946 17.696 0 -3.405 -2.973 -1.318 -3 1.318 0 3.405 2.973 1.318 3 -1.318z" fill="none" stroke="#000000" stroke-linecap="round" stroke-linejoin="round" stroke-width="1"></path><path d="m11.946 17.696 0 -3.405 3.027 -1.318 2.946 1.318 0 3.405 -2.973 1.318 -3 -1.318z" fill="none" stroke="#000000" stroke-linecap="round" stroke-linejoin="round" stroke-width="1"></path></svg>