<svg id="Candy--Streamline-Ultimate" xmlns="http://www.w3.org/2000/svg" viewBox="0 0 24 24"><desc>Candy Streamline Icon: https://streamlinehq.com</desc><defs></defs><title>candy</title><path d="M5.891 12a6.082 6.082 0 1 0 12.164 0 6.082 6.082 0 1 0 -12.164 0" fill="none" stroke="#000000" stroke-linecap="round" stroke-linejoin="round" stroke-width="1"></path><path d="M17.268 9a7.286 7.286 0 0 1 -4.757 1.711A7.162 7.162 0 0 1 7.1 8.358" fill="none" stroke="#000000" stroke-linecap="round" stroke-linejoin="round" stroke-width="1"></path><path d="M18.055 11.708A6.986 6.986 0 0 1 11.973 15a6.984 6.984 0 0 1 -6.081 -3.292" fill="none" stroke="#000000" stroke-linecap="round" stroke-linejoin="round" stroke-width="1"></path><path d="M17.441 1.37a0.752 0.752 0 0 0 -1.173 0.142c-1.192 1.974 -1.356 4.825 0.006 6.187s4.213 1.2 6.187 0.006a0.751 0.751 0 0 0 0.139 -1.173Z" fill="none" stroke="#000000" stroke-linecap="round" stroke-linejoin="round" stroke-width="1"></path><path d="M1.343 17.467a0.75 0.75 0 0 1 0.143 -1.167c1.973 -1.2 4.824 -1.361 6.186 0s1.2 4.213 0.007 6.186a0.751 0.751 0 0 1 -1.173 0.143Z" fill="none" stroke="#000000" stroke-linecap="round" stroke-linejoin="round" stroke-width="1"></path></svg>