<svg xmlns="http://www.w3.org/2000/svg" fill="none" viewBox="0 0 24 24" id="Gingerbread-Man--Streamline-Ultimate"><desc>Gingerbread Man Streamline Icon: https://streamlinehq.com</desc><path stroke="#000000" stroke-linecap="round" stroke-linejoin="round" d="M21 9.77001h-5.33c0.7461 -0.7294 1.258 -1.66458 1.4702 -2.68619 0.2123 -1.0216 0.1153 -2.08328 -0.2785 -3.04952 -0.3939 -0.96624 -1.0667 -1.79322 -1.9326 -2.37536C14.0632 1.07679 13.0434 0.765869 12 0.765869s-2.06317 0.310921 -2.9291 0.893071c-0.86593 0.58214 -1.53874 1.40912 -1.93257 2.37536 -0.39383 0.96624 -0.49081 2.02792 -0.27856 3.04952 0.21225 1.02161 0.72411 1.95679 1.47023 2.68619H3c-0.59674 0 -1.16903 0.23709 -1.59099 0.65899C0.987053 10.851 0.75 11.4233 0.75 12.02c0 0.5968 0.237053 1.169 0.65901 1.591 0.42196 0.422 0.99425 0.659 1.59099 0.659h4.28l-1.72 5.79c-0.16826 0.5145 -0.16139 1.0702 0.01952 1.5804 0.18091 0.5102 0.52569 0.9461 0.98048 1.2396 0.31341 0.1914 0.66657 0.3083 1.03227 0.3418 0.3657 0.0334 0.7342 -0.0175 1.07713 -0.1489 0.34293 -0.1314 0.65113 -0.3397 0.90089 -0.6089 0.24975 -0.2692 0.43441 -0.5922 0.53971 -0.944l1.18 -3.13c0.0544 -0.1415 0.1504 -0.2631 0.2754 -0.349 0.125 -0.0858 0.273 -0.1317 0.4246 -0.1317 0.1516 0 0.2996 0.0459 0.4246 0.1317 0.125 0.0859 0.221 0.2075 0.2754 0.349l1.18 3.13c0.1053 0.3518 0.29 0.6748 0.5397 0.944 0.2498 0.2692 0.558 0.4775 0.9009 0.6089 0.3429 0.1314 0.7114 0.1823 1.0771 0.1489 0.3657 -0.0335 0.7189 -0.1504 1.0323 -0.3418 0.4548 -0.2935 0.7996 -0.7294 0.9805 -1.2396 0.1809 -0.5102 0.1878 -1.0659 0.0195 -1.5804l-1.72 -5.79H21c0.5967 0 1.169 -0.237 1.591 -0.659 0.4219 -0.422 0.659 -0.9942 0.659 -1.591 0 -0.5967 -0.2371 -1.169 -0.659 -1.591 -0.422 -0.4219 -0.9943 -0.65899 -1.591 -0.65899v0Z" stroke-width="1"></path><path stroke="#000000" stroke-linecap="round" stroke-linejoin="round" d="M4.75 9.77002V14.27" stroke-width="1"></path><path stroke="#000000" stroke-linecap="round" stroke-linejoin="round" d="M19.25 9.77002V14.27" stroke-width="1"></path><path stroke="#000000" stroke-linecap="round" stroke-linejoin="round" d="M5.98999 18.59 10.71 19.94" stroke-width="1"></path><path stroke="#000000" stroke-linecap="round" stroke-linejoin="round" d="m18.01 18.59 -4.72 1.35" stroke-width="1"></path><path stroke="#000000" d="M12 10.87c-0.2071 0 -0.375 -0.1679 -0.375 -0.375s0.1679 -0.375 0.375 -0.375" stroke-width="1"></path><path stroke="#000000" d="M12 10.87c0.2071 0 0.375 -0.1679 0.375 -0.375s-0.1679 -0.375 -0.375 -0.375" stroke-width="1"></path><g><path stroke="#000000" d="M12 14.64c-0.2071 0 -0.375 -0.1679 -0.375 -0.375s0.1679 -0.375 0.375 -0.375" stroke-width="1"></path><path stroke="#000000" d="M12 14.64c0.2071 0 0.375 -0.1679 0.375 -0.375s-0.1679 -0.375 -0.375 -0.375" stroke-width="1"></path></g></svg>