<svg xmlns="http://www.w3.org/2000/svg" fill="none" viewBox="0 0 24 24" id="Honey-Apple--Streamline-Ultimate"><desc>Honey Apple Streamline Icon: https://streamlinehq.com</desc><path stroke="#000000" stroke-linecap="round" stroke-linejoin="round" stroke-miterlimit="10" d="M17.8 3.74951c0.8284 0 1.5 -0.67157 1.5 -1.5S18.6284 0.749512 17.8 0.749512s-1.5 0.671568 -1.5 1.499998c0 0.82843 0.6716 1.5 1.5 1.5Z" stroke-width="1"></path><path stroke="#000000" stroke-linecap="round" stroke-linejoin="round" stroke-miterlimit="10" d="m16.3 2.66907 -5.7 1.8" stroke-width="1"></path><path stroke="#000000" stroke-linecap="round" stroke-linejoin="round" stroke-miterlimit="10" d="m10.1553 3.06909 0.9 2.9c0.3 0.8 -0.2 1.6 -1 1.9 -0.80005 0.3 -1.60005 -0.2 -1.90005 -1l-0.8 -2.9c-0.3 -0.8 0.2 -1.6 0.9 -1.9 0.8 -0.2 1.7 0.2 1.90005 1Z" stroke-width="1"></path><path stroke="#000000" stroke-linecap="round" stroke-linejoin="round" stroke-miterlimit="10" d="m2 7.36907 -0.4 -1.6c-0.3 -0.8 0.1 -1.6 0.9 -1.9 0.8 -0.3 1.6 0.2 1.9 1l0.7 2.2" stroke-width="1"></path><path stroke="#000000" stroke-linecap="round" stroke-linejoin="round" stroke-miterlimit="10" d="m4.9 6.36908 -0.9 -2.9c-0.3 -0.8 0.2 -1.6 1 -1.9 0.8 -0.3 1.6 0.2 1.9 1l0.6 1.9" stroke-width="1"></path><path stroke="#000000" stroke-linecap="round" stroke-linejoin="round" stroke-miterlimit="10" d="M19.95 13.1895c-1.8 0 -1.8 0.8 -2.4 0.8 -0.6 0 -0.6 -0.8 -2.4 -0.8 -1.8 0 -3.3 1.9 -3.3 4.3 0 1.2 0.5 2.7 1.2 3.9 0 0 1.7 3.5 4.5 0.9 2.8 2.6 4.5 -0.9 4.5 -0.9 0.7 -1.2 1.2 -2.7 1.2 -3.9 0 -2.4 -1.5 -4.3 -3.3 -4.3Z" stroke-width="1"></path><path stroke="#000000" stroke-linecap="round" stroke-linejoin="round" stroke-miterlimit="10" d="M17.55 13.9895v-0.8c0 -1.1 0 -3.39999 3.2 -3.99999" stroke-width="1"></path><path stroke="#000000" stroke-linecap="round" stroke-linejoin="round" stroke-miterlimit="10" d="M0.75 9.7691v6.6c0 1 0.8 1.9 1.9 1.9 1 0 1.9 -0.8 1.9 -1.9v-3.3c0 1 0.8 1.9 1.9 1.9 1.1 0 1.9 -0.8 1.9 -1.9v-2.4" stroke-width="1"></path></svg>