<svg xmlns="http://www.w3.org/2000/svg" fill="none" viewBox="0 0 24 24" id="Pesach-Passover-1--Streamline-Ultimate"><desc>Pesach Passover 1 Streamline Icon: https://streamlinehq.com</desc><path stroke="#000000" stroke-linecap="round" stroke-linejoin="round" stroke-miterlimit="10" d="M22.625 12.7416h-9.3833c-0.2762 0 -0.5 0.2239 -0.5 0.5v9.3834c0 0.2761 0.2238 0.5 0.5 0.5h9.3833c0.2761 0 0.5 -0.2239 0.5 -0.5v-9.3834c0 -0.2761 -0.2239 -0.5 -0.5 -0.5Z" stroke-width="1"></path><path stroke="#000000" stroke-linecap="round" stroke-linejoin="round" stroke-miterlimit="10" d="M12.7417 19.8617h4.1533" stroke-width="1"></path><path stroke="#000000" stroke-linecap="round" stroke-linejoin="round" stroke-miterlimit="10" d="M19.8617 19.8617h3.1644" stroke-width="1"></path><path stroke="#000000" stroke-linecap="round" stroke-linejoin="round" stroke-miterlimit="10" d="M23.0261 15.9061h-5.1422" stroke-width="1"></path><path stroke="#000000" stroke-linecap="round" stroke-linejoin="round" stroke-miterlimit="10" d="M14.9172 15.9061h-2.1755" stroke-width="1"></path><path stroke="#000000" stroke-linecap="round" stroke-linejoin="round" stroke-miterlimit="10" d="M9.28054 19.565c-4.74667 -0.4944 -8.405555 -4.45 -8.405555 -9.2956C0.874985 5.12722 5.12721 0.875 10.2694 0.875c4.7467 0 8.7023 3.56002 9.2956 8.2078" stroke-width="1"></path><path stroke="#000000" stroke-linecap="round" stroke-linejoin="round" stroke-miterlimit="10" d="M10.2694 6.3139c0.8193 0 1.4834 -0.66412 1.4834 -1.48334 0 -0.81922 -0.6641 -1.48333 -1.4834 -1.48333 -0.81919 0 -1.4833 0.66411 -1.4833 1.48333 0 0.81922 0.66411 1.48334 1.4833 1.48334Z" stroke-width="1"></path><path stroke="#000000" stroke-linecap="round" stroke-linejoin="round" stroke-miterlimit="10" d="M5.62167 8.98388c0.81922 0 1.48333 -0.66411 1.48333 -1.48333 0 -0.81923 -0.66411 -1.48334 -1.48333 -1.48334 -0.81922 0 -1.48333 0.66411 -1.48333 1.48334 0 0.81922 0.66411 1.48333 1.48333 1.48333Z" stroke-width="1"></path><path stroke="#000000" stroke-linecap="round" stroke-linejoin="round" stroke-miterlimit="10" d="M5.62167 14.4228c0.81922 0 1.48333 -0.6641 1.48333 -1.4834 0 -0.8192 -0.66411 -1.4833 -1.48333 -1.4833 -0.81922 0 -1.48333 0.6641 -1.48333 1.4833 0 0.8193 0.66411 1.4834 1.48333 1.4834Z" stroke-width="1"></path><path stroke="#000000" stroke-linecap="round" stroke-linejoin="round" stroke-miterlimit="10" d="M9.37944 16.7961c-0.29667 -0.2967 -0.49445 -0.6922 -0.49445 -1.1867 0 -0.5933 0.29667 -0.9889 0.69222 -1.2855" stroke-width="1"></path><path stroke="#000000" stroke-linecap="round" stroke-linejoin="round" stroke-miterlimit="10" d="M15.0161 8.98388c0.8192 0 1.4833 -0.66411 1.4833 -1.48333 0 -0.81923 -0.6641 -1.48334 -1.4833 -1.48334s-1.4833 0.66411 -1.4833 1.48334c0 0.81922 0.6641 1.48333 1.4833 1.48333Z" stroke-width="1"></path></svg>