<svg xmlns="http://www.w3.org/2000/svg" fill="none" viewBox="0 0 24 24" id="Purim-Feast-Of-Lots--Streamline-Ultimate"><desc>Purim Feast Of Lots Streamline Icon: https://streamlinehq.com</desc><path stroke="#000000" stroke-linecap="round" stroke-linejoin="round" stroke-miterlimit="10" d="M9.92031 10.5864c-0.28643 -0.3819 -0.57285 -0.5729 -1.05023 -0.5729s-0.76379 0.191 -1.05022 0.5729L1.04105 20.9933c-0.286425 0.3819 -0.286417 0.8593 -0.095465 1.2412 0.190955 0.3819 0.572845 0.6683 1.050225 0.6683H15.7444c0.4773 0 0.8592 -0.2864 1.0502 -0.6683 0.1909 -0.3819 0.1909 -0.8593 -0.0955 -1.2412L9.92031 10.5864Z" stroke-width="1"></path><path stroke="#000000" stroke-linecap="round" stroke-linejoin="round" stroke-miterlimit="10" d="M16.8898 21.8447c-3.8955 -1.342 -7.10923 -4.2177 -8.7648 -7.8603" stroke-width="1"></path><path stroke="#000000" stroke-linecap="round" stroke-linejoin="round" stroke-miterlimit="10" d="M8.13663 10.3022c0.48094 3.7707 -0.48093 7.6381 -2.69326 10.6353" stroke-width="1"></path><path stroke="#000000" stroke-linecap="round" stroke-linejoin="round" stroke-miterlimit="10" d="M2.07677 22.9029c3.08372 -2.4048 7.03472 -3.559 10.98573 -2.9819" stroke-width="1"></path><path stroke="#000000" stroke-linecap="round" stroke-linejoin="round" stroke-miterlimit="10" d="m11.2275 5.693 2.4446 -4.10691c0.1955 -0.39113 0.5867 -0.5867 1.0756 -0.5867 0.4889 0 0.7823 0.19557 1.0756 0.5867l6.9426 10.65841c0.2934 0.3911 0.2934 0.88 0.0978 1.2712 -0.1956 0.3911 -0.5867 0.6844 -1.0756 0.6844h-5.0847" stroke-width="1"></path><path stroke="#000000" stroke-linecap="round" stroke-linejoin="round" stroke-miterlimit="10" d="M23 13.0938c-3.9688 -1.3779 -7.243 -4.33047 -8.9297 -8.07036" stroke-width="1"></path><path stroke="#000000" stroke-linecap="round" stroke-linejoin="round" stroke-miterlimit="10" d="M14.0756 1.16888c0.3055 2.54536 0 5.19252 -0.9163 7.53425" stroke-width="1"></path><path stroke="#000000" stroke-linecap="round" stroke-linejoin="round" stroke-miterlimit="10" d="M14.6875 11.0711c1.5019 -0.1956 3.0038 -0.1956 4.3984 0" stroke-width="1"></path></svg>