<svg xmlns="http://www.w3.org/2000/svg" fill="none" viewBox="0 0 24 24" id="Reishit-Katzir-Feast-Of-Firstfruits-2--Streamline-Ultimate"><desc>Reishit Katzir Feast Of Firstfruits 2 Streamline Icon: https://streamlinehq.com</desc><path stroke="#000000" stroke-linecap="round" stroke-linejoin="round" stroke-miterlimit="10" d="m15.8781 9.34998 -12.29998 -0.5" stroke-width="1"></path><path stroke="#000000" stroke-linecap="round" stroke-linejoin="round" stroke-miterlimit="10" d="m5.27814 6.25 2.09997 2.69998L4.97812 11.55" stroke-width="1"></path><path stroke="#000000" stroke-linecap="round" stroke-linejoin="round" stroke-miterlimit="10" d="m9.77814 6.44995 2.09996 2.70001L9.47812 11.75" stroke-width="1"></path><path stroke="#000000" stroke-linecap="round" stroke-linejoin="round" stroke-miterlimit="10" d="M17.25 7.54999 15.95 9.25c-0.5 0.7 -0.4 1.7 0.4 2.2 0.5 0.4 1.2 0.4 1.7 0l2.5 -1.60002c0.8 -0.5 1.3 -1.19998 1.7 -2.09998l1 -2.5" stroke-width="1"></path><path stroke="#000000" stroke-linecap="round" stroke-linejoin="round" stroke-miterlimit="10" d="m12.0781 8.23118 0.4946 -1.78042c0.9891 -3.363 4.0554 -5.637955 7.6162 -5.637955h2.9673" stroke-width="1"></path><path stroke="#000000" stroke-linecap="round" stroke-linejoin="round" stroke-miterlimit="10" d="M0.749985 23.25H15.25c0 -1.9 -1.6 -3.5 -3.5 -3.5h-3.2c0 -1.9 -1.6 -3.5 -3.5 -3.5H0.849991" stroke-width="1"></path><path stroke="#000000" stroke-linecap="round" stroke-linejoin="round" stroke-miterlimit="10" d="M5.1375 19.75h3.5" stroke-width="1"></path></svg>