<svg viewBox="0 0 24 24" xmlns="http://www.w3.org/2000/svg" id="Coroflot-Logo--Streamline-Ultimate"><desc>Coroflot Logo Streamline Icon: https://streamlinehq.com</desc><path d="M4.88 17.58a5.67 5.67 0 1 0 11.34 0 5.67 5.67 0 1 0 -11.34 0Z" fill="none" stroke="#000000" stroke-linecap="round" stroke-linejoin="round" stroke-width="1"></path><path d="M12 12.09a5.17 5.17 0 1 1 3.84 7.66" fill="none" stroke="#000000" stroke-linecap="round" stroke-linejoin="round" stroke-width="1"></path><path d="M9 12.12S9.87 5 4.61 3.19" fill="none" stroke="#000000" stroke-linecap="round" stroke-linejoin="round" stroke-width="1"></path><path d="M2.36 4c0.86 0.16 3.16 -0.29 2.8 -3.24" fill="none" stroke="#000000" stroke-linecap="round" stroke-linejoin="round" stroke-width="1"></path><path d="M5.39 3.52C11.22 1.37 14.9 9.7 14.9 9.7" fill="none" stroke="#000000" stroke-linecap="round" stroke-linejoin="round" stroke-width="1"></path><path d="M8.58 15.71a0.25 0.25 0 0 1 0 -0.49" fill="none" stroke="#000000" stroke-linecap="round" stroke-linejoin="round" stroke-width="1"></path><path d="M8.58 15.22a0.25 0.25 0 0 1 0 0.49" fill="none" stroke="#000000" stroke-linecap="round" stroke-linejoin="round" stroke-width="1"></path></svg>