<svg viewBox="0 0 24 24" xmlns="http://www.w3.org/2000/svg" id="Designmoo-Logo--Streamline-Ultimate"><desc>Designmoo Logo Streamline Icon: https://streamlinehq.com</desc><path d="M17.74 17.23c-0.83 0 -1.42 1.55 -3.22 1.5 -0.34 -0.09 -0.34 -0.6 -0.16 -1.13 0.7 -1.89 4.83 -7.83 4.88 -10.58 0 -0.81 -1.27 -2 -2 -2.14 -0.69 2.59 -0.78 3 -3 7.29a2 2 0 0 0 -2.06 -1.63c-2.45 0 -4.9 3.18 -5.74 5.73s-1.11 6 1.91 6.08c1.19 0 2.11 -1 2.88 -1.95 0 1.36 0.66 1.92 1.36 1.92 1 0 2.22 -0.93 4 -2.94 0.28 -0.31 1.31 -1.47 1.32 -1.89 0 -0.18 -0.08 -0.27 -0.2 -0.27" fill="none" stroke="#000000" stroke-linecap="round" stroke-linejoin="round" stroke-width="1"></path><path d="m6.2 11.45 -0.5 -1.93a1.68 1.68 0 0 0 -1.08 -1.08L1.4 7.6c-0.47 -0.12 -0.47 -0.32 0 -0.45l3.21 -0.84A1.67 1.67 0 0 0 5.7 5.22L6.54 2c0.12 -0.47 0.32 -0.47 0.45 0l0.84 3.22A1.68 1.68 0 0 0 8.9 6.31l3.21 0.84c0.47 0.12 0.47 0.33 0 0.45l-3.21 0.84a1.68 1.68 0 0 0 -1.08 1.08L7.7 10a4.62 4.62 0 0 0 -1.5 1.45Z" fill="none" stroke="#000000" stroke-linecap="round" stroke-linejoin="round" stroke-width="1"></path><path d="m21.7 14.94 1.12 0.29c0.16 0 0.16 0.11 0 0.16l-1.12 0.29a0.59 0.59 0 0 0 -0.38 0.38L21 17.19c0 0.16 -0.11 0.16 -0.16 0l-0.29 -1.13a0.58 0.58 0 0 0 -0.38 -0.38l-1.12 -0.29c-0.16 0 -0.16 -0.11 0 -0.16l1.12 -0.29a0.58 0.58 0 0 0 0.38 -0.38l0.29 -1.13c0 -0.16 0.11 -0.16 0.16 0l0.29 1.13a0.58 0.58 0 0 0 0.38 0.38" fill="none" stroke="#000000" stroke-linecap="round" stroke-linejoin="round" stroke-width="1"></path><path d="M10 17.75c-0.16 0 -0.27 -0.17 -0.26 -0.41a3 3 0 0 1 0.73 -1.76c0.13 -0.14 0.27 -0.32 0.48 -0.32s0.27 0.11 0.26 0.31a3.17 3.17 0 0 1 -0.54 1.55" fill="none" stroke="#000000" stroke-linecap="round" stroke-linejoin="round" stroke-width="1"></path><path d="M10.64 17.11c-0.12 0.2 -0.44 0.64 -0.68 0.64" fill="none" stroke="#000000" stroke-linecap="round" stroke-linejoin="round" stroke-width="1"></path><path d="m11.55 3.51 2.92 0" fill="none" stroke="#000000" stroke-linecap="round" stroke-linejoin="round" stroke-width="1"></path><path d="m13.01 2.05 0 2.92" fill="none" stroke="#000000" stroke-linecap="round" stroke-linejoin="round" stroke-width="1"></path></svg>