<svg viewBox="0 0 24 24" xmlns="http://www.w3.org/2000/svg" id="Path-Logo--Streamline-Ultimate"><desc>Path Logo Streamline Icon: https://streamlinehq.com</desc><path d="M6.33 1.74A8.33 8.33 0 0 0 0.92 8.07a8.85 8.85 0 0 0 0.93 6.14 0.5 0.5 0 0 0 0.71 0.15l2.61 -1.75a0.5 0.5 0 0 0 0.15 -0.67c-1.8 -3.05 1 -6.34 4.42 -7.16s8 0.61 9 4.16 -2 5.07 -5.49 4.61c-0.46 -0.11 -0.8 -0.1 -0.8 -0.6V8.67c0 -0.4 0 -0.31 -0.36 -0.35l-0.78 -0.08a11.37 11.37 0 0 0 -2.78 0c-0.34 0.06 -0.36 0 -0.36 0.37 0 2.59 0.08 8.29 0.07 8.36 0 0.65 0 2.2 -0.77 2.52s-1.54 -0.37 -2.32 -0.49c0.11 1.09 -0.57 3.25 0.69 3.79a5.22 5.22 0 0 0 3.74 0.21c2.57 -0.87 3.4 -3.73 3.08 -6.08a8.45 8.45 0 0 0 9.94 -4.38 7.51 7.51 0 0 0 -1.12 -7.89C18.07 0.61 11.15 -0.17 6.33 1.74" fill="none" stroke="#000000" stroke-linecap="round" stroke-linejoin="round" stroke-width="1"></path></svg>