<svg xmlns="http://www.w3.org/2000/svg" fill="none" viewBox="0 0 24 24" id="Factory-Geothermal-Power-Plant-2--Streamline-Ultimate"><desc>Factory Geothermal Power Plant 2 Streamline Icon: https://streamlinehq.com</desc><path stroke="#000000" stroke-linecap="round" stroke-linejoin="round" d="M17.547 9.185 18.25 0.75h3l1 12" stroke-width="1"></path><path stroke="#000000" stroke-linecap="round" stroke-linejoin="round" d="M17 20.75h6.25v-7c0 -0.2653 -0.1054 -0.5196 -0.2929 -0.7072 -0.1875 -0.1875 -0.4419 -0.2928 -0.7071 -0.2928H17.5l-4.912 -3.57204c-0.1709 -0.12423 -0.3767 -0.19114 -0.588 -0.19114s-0.4171 0.06691 -0.588 0.19114L6.5 12.75H1.75c-0.26522 0 -0.51957 0.1053 -0.70711 0.2928C0.855357 13.2304 0.75 13.4847 0.75 13.75v7h5" stroke-width="1"></path><path stroke="#000000" stroke-linecap="round" stroke-linejoin="round" d="M17.729 7h4.042l-0.25 -3h-3.542l-0.25 3Z" stroke-width="1"></path><path stroke="#000000" stroke-linecap="round" stroke-linejoin="round" d="M6.453 9.185 5.75 0.75h-3l-1 12" stroke-width="1"></path><path stroke="#000000" stroke-linecap="round" stroke-linejoin="round" d="M6.271 7H2.229l0.25 -3h3.542l0.25 3Z" stroke-width="1"></path><path stroke="#000000" stroke-linecap="round" stroke-linejoin="round" d="M8.69666 18.903 11.6764 15l2.9798 3.903" stroke-width="1"></path><path stroke="#000000" stroke-linecap="round" stroke-linejoin="round" d="M11.129 22.9449c3.0707 -3.47 -1.54715 -4.4365 0.8363 -7.5596" stroke-width="1"></path></svg>