<svg xmlns="http://www.w3.org/2000/svg" fill="none" viewBox="0 0 24 24" id="Geothermal-Power-Thermometer-Energy--Streamline-Ultimate"><desc>Geothermal Power Thermometer Energy Streamline Icon: https://streamlinehq.com</desc><path stroke="#000000" stroke-linecap="round" stroke-linejoin="round" d="M11.6419 11.0312v4.3724c1.3756 1.2292 1.8623 3.2326 1.2038 4.9549 -0.6586 1.7224 -2.3583 2.8915 -4.20381 2.8915 -1.84555 0 -3.54525 -1.1691 -4.20378 -2.8915 -0.65853 -1.7223 -0.17182 -3.7257 1.20378 -4.9549V3.74706c0 -0.79487 0.31607 -1.55719 0.87868 -2.11924C7.08317 1.06576 7.84624 0.75 8.64189 0.75s1.55871 0.31576 2.12131 0.87782c0.5626 0.56205 0.8787 1.32437 0.8787 2.11924V5.1875" stroke-width="1"></path><path stroke="#000000" stroke-linecap="round" stroke-linejoin="round" d="M8.64185 5.23926V17.2393" stroke-width="1"></path><path stroke="#000000" stroke-linecap="round" stroke-linejoin="round" d="M8.64185 20.2393c0.82842 0 1.49995 -0.6716 1.49995 -1.5 0 -0.8285 -0.67153 -1.5 -1.49995 -1.5 -0.82843 0 -1.5 0.6715 -1.5 1.5 0 0.8284 0.67157 1.5 1.5 1.5Z" stroke-width="1"></path><path stroke="#000000" stroke-linecap="round" stroke-linejoin="round" d="m19.4851 0.75 -6.5354 6.69908c-0.0667 0.06804 -0.1122 0.154 -0.1308 0.24741 -0.0187 0.09342 -0.0098 0.19025 0.0256 0.2787 0.0348 0.0862 0.0946 0.16006 0.1717 0.21212 0.077 0.05206 0.1678 0.07997 0.2608 0.08016h3.2853v5.76373l6.1496 -6.64058c0.0666 -0.06803 0.1121 -0.15399 0.1308 -0.24741 0.0187 -0.09341 0.0098 -0.19024 -0.0256 -0.27869 -0.0349 -0.08621 -0.0947 -0.16006 -0.1717 -0.21212 -0.0771 -0.05207 -0.1679 -0.07997 -0.2609 -0.08016h-2.8994V0.75Z" stroke-width="1"></path></svg>