<svg viewBox="0 0 24 24" xmlns="http://www.w3.org/2000/svg" id="Renewable-Energy-Wind-Turbine-1--Streamline-Ultimate"><desc>Renewable Energy Wind Turbine 1 Streamline Icon: https://streamlinehq.com</desc><path d="m13.648 12.959 2.287 10.291" fill="none" stroke="#000000" stroke-linecap="round" stroke-linejoin="round" stroke-width="1"></path><path d="m8.435 23.25 2.287 -10.291" fill="none" stroke="#000000" stroke-linecap="round" stroke-linejoin="round" stroke-width="1"></path><path d="m3.935 23.25 16.5 0" fill="none" stroke="#000000" stroke-linecap="round" stroke-linejoin="round" stroke-width="1"></path><path d="M10.035 6.75 9.4 4.373a2.881 2.881 0 1 1 5.568 0l-0.633 2.377" fill="none" stroke="#000000" stroke-linecap="round" stroke-linejoin="round" stroke-width="1"></path><path d="m7.477 11.786 -3.409 0.373a2.881 2.881 0 1 0 2.011 5.191l1.332 -0.971" fill="none" stroke="#000000" stroke-linecap="round" stroke-linejoin="round" stroke-width="1"></path><path d="m16.523 11.786 3.409 0.373a2.881 2.881 0 1 1 -2.011 5.191l-1.332 -0.971" fill="none" stroke="#000000" stroke-linecap="round" stroke-linejoin="round" stroke-width="1"></path><path d="M9.935 11.25a2.25 2.25 0 1 0 4.5 0 2.25 2.25 0 1 0 -4.5 0Z" fill="none" stroke="#000000" stroke-linecap="round" stroke-linejoin="round" stroke-width="1"></path></svg>