<svg viewBox="0 0 24 24" xmlns="http://www.w3.org/2000/svg" id="Renewable-Energy-Battery-Charge-1--Streamline-Ultimate"><desc>Renewable Energy Battery Charge 1 Streamline Icon: https://streamlinehq.com</desc><path d="m13.5 6.75 -5.36 5.36a0.375 0.375 0 0 0 0.265 0.64h2.1v4.5l5.36 -5.36a0.375 0.375 0 0 0 -0.265 -0.64h-2.1Z" fill="none" stroke="#000000" stroke-linecap="round" stroke-linejoin="round" stroke-width="1"></path><path d="M0.849 13.5A11.417 11.417 0 0 1 0.75 12 11.25 11.25 0 0 1 12 0.75" fill="none" stroke="#000000" stroke-linecap="round" stroke-linejoin="round" stroke-width="1"></path><path d="M23.151 13.5a11.417 11.417 0 0 0 0.1 -1.5A11.25 11.25 0 0 0 12 0.75" fill="none" stroke="#000000" stroke-linecap="round" stroke-linejoin="round" stroke-width="1"></path><path d="M22.316 16.492a10.729 10.729 0 0 1 -1.41 2.381" fill="none" stroke="#000000" stroke-linecap="round" stroke-linejoin="round" stroke-width="1"></path><path d="M18.737 21.006a10.576 10.576 0 0 1 -2.4 1.372" fill="none" stroke="#000000" stroke-linecap="round" stroke-linejoin="round" stroke-width="1"></path><path d="M7.686 22.378a10.523 10.523 0 0 1 -2.4 -1.372" fill="none" stroke="#000000" stroke-linecap="round" stroke-linejoin="round" stroke-width="1"></path><path d="M3.114 18.873A10.706 10.706 0 0 1 1.7 16.492" fill="none" stroke="#000000" stroke-linecap="round" stroke-linejoin="round" stroke-width="1"></path><path d="M13.5 23.151a11.413 11.413 0 0 1 -3 0" fill="none" stroke="#000000" stroke-linecap="round" stroke-linejoin="round" stroke-width="1"></path></svg>