<svg viewBox="0 0 24 24" xmlns="http://www.w3.org/2000/svg" id="Renewable-Energy-Battery-Leaf--Streamline-Ultimate"><desc>Renewable Energy Battery Leaf Streamline Icon: https://streamlinehq.com</desc><path d="M13.579 20.754s1.219 2.495 3.27 2.307c4.158 -0.38 3.88 -5.907 5.4 -7.859a9.106 9.106 0 0 0 -8.265 0.075c-2.154 1.217 -2.307 3.271 -0.405 5.477Z" fill="none" stroke="#000000" stroke-linecap="round" stroke-linejoin="round" stroke-width="1"></path><path d="M16.52 18.219s-2.7 0.334 -4.623 5.03" fill="none" stroke="#000000" stroke-linecap="round" stroke-linejoin="round" stroke-width="1"></path><path d="M8.75 23.25H3.5a1.5 1.5 0 0 1 -1.5 -1.5V5.25a1.5 1.5 0 0 1 1.5 -1.5H14a1.5 1.5 0 0 1 1.5 1.5V12" fill="none" stroke="#000000" stroke-linecap="round" stroke-linejoin="round" stroke-width="1"></path><path d="M6.75 0.75h4a1 1 0 0 1 1 1v2l0 0h-6l0 0v-2a1 1 0 0 1 1 -1Z" fill="none" stroke="#000000" stroke-linecap="round" stroke-linejoin="round" stroke-width="1"></path></svg>