<svg viewBox="0 0 24 24" xmlns="http://www.w3.org/2000/svg" id="Renewable-Energy-Power-Socket--Streamline-Ultimate"><desc>Renewable Energy Power Socket Streamline Icon: https://streamlinehq.com</desc><path d="M11.25 4.5h-9A1.5 1.5 0 0 0 0.75 6v16.5a0.75 0.75 0 0 0 0.75 0.75h5.537a0.748 0.748 0 0 0 0.67 -0.415l0.336 -0.67a0.75 0.75 0 0 1 0.671 -0.415h6.573a0.749 0.749 0 0 1 0.67 0.415l0.336 0.67a0.748 0.748 0 0 0 0.671 0.415H22.5a0.75 0.75 0 0 0 0.75 -0.75v-9.75" fill="none" stroke="#000000" stroke-linecap="round" stroke-linejoin="round" stroke-width="1"></path><path d="m0.75 18.75 22.5 0" fill="none" stroke="#000000" stroke-linecap="round" stroke-linejoin="round" stroke-width="1"></path><path d="M7.5 14.25a1.5 1.5 0 1 0 3 0 1.5 1.5 0 1 0 -3 0Z" fill="none" stroke="#000000" stroke-linecap="round" stroke-linejoin="round" stroke-width="1"></path><path d="m19.5 15 0 3.75" fill="none" stroke="#000000" stroke-linecap="round" stroke-linejoin="round" stroke-width="1"></path><path d="M4.5 18.75V10.5a0.75 0.75 0 0 1 0.75 -0.75h6" fill="none" stroke="#000000" stroke-linecap="round" stroke-linejoin="round" stroke-width="1"></path><path d="M20.428 0.75 14.3 6.875a0.429 0.429 0 0 0 0.3 0.732H17v5.143l6.125 -6.125a0.429 0.429 0 0 0 -0.3 -0.732h-2.397Z" fill="none" stroke="#000000" stroke-linecap="round" stroke-linejoin="round" stroke-width="1"></path></svg>