<svg viewBox="0 0 24 24" xmlns="http://www.w3.org/2000/svg" id="Renewable-Energy-Accumulator--Streamline-Ultimate"><desc>Renewable Energy Accumulator Streamline Icon: https://streamlinehq.com</desc><path d="M10.5 0.75 4.589 7.632a0.376 0.376 0 0 0 0.286 0.618H7.5v6l5.911 -6.882a0.376 0.376 0 0 0 -0.286 -0.618H10.5Z" fill="none" stroke="#000000" stroke-linecap="round" stroke-linejoin="round" stroke-width="1"></path><path d="M13.5 2.25H21a1.5 1.5 0 0 1 1.5 1.5v18a1.5 1.5 0 0 1 -1.5 1.5H3a1.5 1.5 0 0 1 -1.5 -1.5v-18A1.5 1.5 0 0 1 3 2.25h2.25" fill="none" stroke="#000000" stroke-linecap="round" stroke-linejoin="round" stroke-width="1"></path><path d="m9 17.25 0 3" fill="none" stroke="#000000" stroke-linecap="round" stroke-linejoin="round" stroke-width="1"></path><path d="m13.5 15 0 5.25" fill="none" stroke="#000000" stroke-linecap="round" stroke-linejoin="round" stroke-width="1"></path><path d="m18 11.25 0 9" fill="none" stroke="#000000" stroke-linecap="round" stroke-linejoin="round" stroke-width="1"></path><path d="m7.5 20.25 12 0" fill="none" stroke="#000000" stroke-linecap="round" stroke-linejoin="round" stroke-width="1"></path></svg>