<svg viewBox="0 0 24 24" xmlns="http://www.w3.org/2000/svg" id="Renewable-Energy-Solar-Panel--Streamline-Ultimate"><desc>Renewable Energy Solar Panel Streamline Icon: https://streamlinehq.com</desc><path d="M22.5 20.25H6.314a0.749 0.749 0 0 1 -0.706 -1l3.214 -9a0.749 0.749 0 0 1 0.706 -0.5h9.114a0.749 0.749 0 0 1 0.689 0.455l3.858 9a0.75 0.75 0 0 1 -0.689 1.045Z" fill="none" stroke="#000000" stroke-linecap="round" stroke-linejoin="round" stroke-width="1"></path><path d="m12 20.25 0 3" fill="none" stroke="#000000" stroke-linecap="round" stroke-linejoin="round" stroke-width="1"></path><path d="m16.5 20.25 0 3" fill="none" stroke="#000000" stroke-linecap="round" stroke-linejoin="round" stroke-width="1"></path><path d="M4.9 11.251A4.5 4.5 0 1 1 12.147 6" fill="none" stroke="#000000" stroke-linecap="round" stroke-linejoin="round" stroke-width="1"></path><path d="m8.25 1.5 0 -0.75" fill="none" stroke="#000000" stroke-linecap="round" stroke-linejoin="round" stroke-width="1"></path><path d="m13.5 3.75 0.75 -0.75" fill="none" stroke="#000000" stroke-linecap="round" stroke-linejoin="round" stroke-width="1"></path><path d="M3 3.75 2.25 3" fill="none" stroke="#000000" stroke-linecap="round" stroke-linejoin="round" stroke-width="1"></path><path d="m1.5 8.25 -0.75 0" fill="none" stroke="#000000" stroke-linecap="round" stroke-linejoin="round" stroke-width="1"></path><path d="m3 12.75 -0.75 0.75" fill="none" stroke="#000000" stroke-linecap="round" stroke-linejoin="round" stroke-width="1"></path><path d="m14.25 9.75 0 10.5" fill="none" stroke="#000000" stroke-linecap="round" stroke-linejoin="round" stroke-width="1"></path><path d="m7.393 14.25 13.677 0" fill="none" stroke="#000000" stroke-linecap="round" stroke-linejoin="round" stroke-width="1"></path></svg>