<svg id="Renewable-Energy-Solar-Smartphone--Streamline-Ultimate" xmlns="http://www.w3.org/2000/svg" viewBox="0 0 24 24"><desc>Renewable Energy Solar Smartphone Streamline Icon: https://streamlinehq.com</desc><defs></defs><title>renewable-energy-solar-smartphone</title><path d="M13.5 12.75a0.75 0.75 0 0 0 -0.75 -0.75H1.5a0.75 0.75 0 0 0 -0.75 0.75v9.75a0.75 0.75 0 0 0 0.75 0.75h1.709a0.751 0.751 0 0 0 0.712 -0.513l0.408 -1.224A0.751 0.751 0 0 1 5.041 21h4.168a0.751 0.751 0 0 1 0.712 0.513l0.408 1.224a0.751 0.751 0 0 0 0.712 0.513h1.709a0.75 0.75 0 0 0 0.75 -0.75Z" fill="none" stroke="#000000" stroke-linecap="round" stroke-linejoin="round" stroke-width="1"></path><path d="m3 12 0.75 3 6.75 0 0.75 -3" fill="none" stroke="#000000" stroke-linecap="round" stroke-linejoin="round" stroke-width="1"></path><path d="M5.25 18 9 18" fill="none" stroke="#000000" stroke-linecap="round" stroke-linejoin="round" stroke-width="1"></path><path d="M17.25 0.75h4.5s1.5 0 1.5 1.5v9s0 1.5 -1.5 1.5h-4.5s-1.5 0 -1.5 -1.5v-9s0 -1.5 1.5 -1.5" fill="none" stroke="#000000" stroke-linecap="round" stroke-linejoin="round" stroke-width="1"></path><path d="m15.75 9.75 7.5 0" fill="none" stroke="#000000" stroke-linecap="round" stroke-linejoin="round" stroke-width="1"></path><path d="M19.5 12.75v4.5a1.5 1.5 0 0 1 -1.5 1.5h-4.5" fill="none" stroke="#000000" stroke-linecap="round" stroke-linejoin="round" stroke-width="1"></path></svg>