<svg viewBox="0 0 24 24" xmlns="http://www.w3.org/2000/svg" id="Renewable-Energy-Water-Dam-1--Streamline-Ultimate"><desc>Renewable Energy Water Dam 1 Streamline Icon: https://streamlinehq.com</desc><path d="M23.25 23.139A4.383 4.383 0 0 1 21 21.75a3.964 3.964 0 0 1 -3 1.5v-0.027a4.188 4.188 0 0 1 -3 -1.473 3.964 3.964 0 0 1 -3 1.5v-0.027a4.188 4.188 0 0 1 -3 -1.473 3.964 3.964 0 0 1 -3 1.5v-0.027a4.188 4.188 0 0 1 -3 -1.473 4.07 4.07 0 0 1 -2.25 1.419" fill="none" stroke="#000000" stroke-linecap="round" stroke-linejoin="round" stroke-width="1"></path><path d="m2.25 0.75 2.083 1.389A5.426 5.426 0 0 1 6.75 6.654V12.4a5.425 5.425 0 0 0 3 4.854h0" fill="none" stroke="#000000" stroke-linecap="round" stroke-linejoin="round" stroke-width="1"></path><path d="m8.25 0.75 2.083 1.389a5.426 5.426 0 0 1 2.417 4.515V12.4a5.425 5.425 0 0 0 3 4.854h0" fill="none" stroke="#000000" stroke-linecap="round" stroke-linejoin="round" stroke-width="1"></path><path d="m14.25 0.75 2.083 1.389a5.426 5.426 0 0 1 2.417 4.515V12.4a5.425 5.425 0 0 0 3 4.854h0" fill="none" stroke="#000000" stroke-linecap="round" stroke-linejoin="round" stroke-width="1"></path></svg>