<svg xmlns="http://www.w3.org/2000/svg" viewBox="0 0 24 24" id="Renewable-Energy-Battery-Charge--Streamline-Ultimate"><desc>Renewable Energy Battery Charge Streamline Icon: https://streamlinehq.com</desc><g><path d="M14.25 8.25v-1.5h-4.5v1.5H9a0.76 0.76 0 0 0 -0.75 0.75v7.5a0.76 0.76 0 0 0 0.75 0.75h6a0.76 0.76 0 0 0 0.75 -0.75V9a0.76 0.76 0 0 0 -0.75 -0.75Z" fill="none" stroke="#000000" stroke-linecap="round" stroke-linejoin="round" stroke-width="1"></path><g><path d="M3 5.25a3 3 0 0 1 3 -3h12a3 3 0 0 1 3 3V15" fill="none" stroke="#000000" stroke-linecap="round" stroke-linejoin="round" stroke-width="1"></path><path d="M23.25 12.75 21 15l-2.25 -2.25" fill="none" stroke="#000000" stroke-linecap="round" stroke-linejoin="round" stroke-width="1"></path></g><g><path d="M21 18.75a3 3 0 0 1 -3 3H6a3 3 0 0 1 -3 -3V9" fill="none" stroke="#000000" stroke-linecap="round" stroke-linejoin="round" stroke-width="1"></path><path d="M0.75 11.25 3 9l2.25 2.25" fill="none" stroke="#000000" stroke-linecap="round" stroke-linejoin="round" stroke-width="1"></path></g></g></svg>