<svg xmlns="http://www.w3.org/2000/svg" fill="none" viewBox="0 0 24 24" id="Tidal-Energy-2--Streamline-Ultimate"><desc>Tidal Energy 2 Streamline Icon: https://streamlinehq.com</desc><path stroke="#000000" stroke-linecap="round" stroke-linejoin="round" d="M8.11136 16.6257c0.76304 -0.763 0.76304 -2.0001 0 -2.7632 -0.76304 -0.763 -2.00017 -0.763 -2.76321 0 -0.76303 0.7631 -0.76303 2.0002 0 2.7632 0.76304 0.7631 2.00017 0.7631 2.76321 0Z" stroke-width="1"></path><path stroke="#000000" stroke-linecap="round" stroke-linejoin="round" d="M2.65245 14.2769c-0.58488 -0.455 -1.03443 -1.0611 -1.30018 -1.7528 -0.26575 -0.6918 -0.3376 -1.4429 -0.20781 -2.1725 0.12979 -0.7296 0.4563 -1.40991 0.94431 -1.96756s1.11901 -0.9715 1.82493 -1.19689l2.00609 6.27865" stroke-width="1"></path><path stroke="#000000" stroke-linecap="round" stroke-linejoin="round" d="M9.06774 11.7672c0.6698 -0.2305 1.38816 -0.2822 2.08406 -0.1501 0.6959 0.1322 1.3453 0.4436 1.884 0.9035 0.5387 0.46 0.9481 1.0526 1.1877 1.7192 0.2396 0.6666 0.3011 1.3841 0.1784 2.0818L8.68211 15.314" stroke-width="1"></path><path stroke="#000000" stroke-linecap="round" stroke-linejoin="round" d="M7.74191 19.5833c-0.21917 0.6021 -0.57731 1.1441 -1.04531 1.5818 -0.468 0.4377 -1.03266 0.7589 -1.64811 0.9373 -0.61544 0.1785 -1.26431 0.2093 -1.89388 0.0898 -0.62957 -0.1194 -1.22208 -0.3857 -1.72938 -0.7772l3.80217 -4.9173" stroke-width="1"></path><path stroke="#000000" stroke-linecap="round" stroke-linejoin="round" d="M8.625 2.27227c1.04841 -0.926 2.4012 -1.433303 3.8 -1.425002 2.375 0 6.65 4.010902 10.45 0.210902" stroke-width="1"></path><path stroke="#000000" stroke-linecap="round" stroke-linejoin="round" d="M8.625 7.99395c1.04841 -0.926 2.4012 -1.4333 3.8 -1.425 2.375 0 6.65 4.01085 10.45 0.2109" stroke-width="1"></path><path stroke="#000000" stroke-linecap="round" stroke-linejoin="round" d="M22.875 12.5015c-1.8365 1.8365 -3.7839 1.8486 -5.5742 1.3708" stroke-width="1"></path></svg>