<svg viewBox="0 0 24 24" xmlns="http://www.w3.org/2000/svg" id="Zip-File-1--Streamline-Ultimate"><desc>Zip File 1 Streamline Icon: https://streamlinehq.com</desc><path d="M8.25 23.25h-6a1.5 1.5 0 0 1 -1.5 -1.5V2.25a1.5 1.5 0 0 1 1.5 -1.5h10.629a1.5 1.5 0 0 1 1.06 0.439l5.872 5.872a1.5 1.5 0 0 1 0.439 1.06v4.629" fill="none" stroke="#000000" stroke-linecap="round" stroke-linejoin="round" stroke-width="1"></path><path d="M20.25 8.25h-6a1.5 1.5 0 0 1 -1.5 -1.5v-6" fill="none" stroke="#000000" stroke-linecap="round" stroke-linejoin="round" stroke-width="1"></path><path d="M11.25 15.75h1.892a0.75 0.75 0 0 1 0.7 1.028l-2.178 5.443a0.751 0.751 0 0 0 0.7 1.029h1.886" fill="none" stroke="#000000" stroke-linecap="round" stroke-linejoin="round" stroke-width="1"></path><path d="m17.25 23.25 0 -7.5" fill="none" stroke="#000000" stroke-linecap="round" stroke-linejoin="round" stroke-width="1"></path><path d="m20.25 23.25 0 -7.5" fill="none" stroke="#000000" stroke-linecap="round" stroke-linejoin="round" stroke-width="1"></path><path d="M20.25 15.75H21a2.25 2.25 0 0 1 0 4.5h-0.75" fill="none" stroke="#000000" stroke-linecap="round" stroke-linejoin="round" stroke-width="1"></path></svg>