<svg xmlns="http://www.w3.org/2000/svg" fill="none" viewBox="0 0 24 24" id="Zip-File-Shield--Streamline-Ultimate"><desc>Zip File Shield Streamline Icon: https://streamlinehq.com</desc><path stroke="#000000" stroke-linecap="round" stroke-linejoin="round" d="M23.25 15.75c0.0034 1.7465 -0.5895 3.4418 -1.6805 4.8056 -1.091 1.3638 -2.6149 2.3143 -4.3195 2.6944 -1.7046 -0.3801 -3.2285 -1.3306 -4.3195 -2.6944 -1.091 -1.3638 -1.6839 -3.0591 -1.6805 -4.8056v-3.541c-0.0001 -0.2948 0.0866 -0.5831 0.2493 -0.8289 0.1627 -0.2458 0.3943 -0.4382 0.6657 -0.5531 1.6012 -0.7101 3.3334 -1.077 5.085 -1.077 1.7516 0 3.4838 0.3669 5.085 1.077 0.2714 0.1149 0.503 0.3073 0.6657 0.5531 0.1628 0.2458 0.2495 0.5341 0.2493 0.8289v3.541Z" stroke-width="1"></path><path stroke="#000000" stroke-linecap="round" stroke-linejoin="round" d="M17.25 12.75v6" stroke-width="1"></path><path stroke="#000000" stroke-linecap="round" stroke-linejoin="round" d="M14.25 15.75h6" stroke-width="1"></path><path stroke="#000000" stroke-linecap="round" stroke-linejoin="round" d="M10.226 4.557c0.0342 0.27453 0.0096 0.55318 -0.0721 0.81749 -0.0817 0.2643 -0.2187 0.5082 -0.40188 0.71551 -0.19096 0.2074 -0.42285 0.37294 -0.68103 0.48617 -0.25819 0.11324 -0.53704 0.1717 -0.81897 0.1717 -0.28192 0 -0.56078 -0.05846 -0.81896 -0.1717 -0.25818 -0.11323 -0.49007 -0.27877 -0.68104 -0.48617 -0.18318 -0.20731 -0.32017 -0.45121 -0.40189 -0.71551 -0.08172 -0.26431 -0.1063 -0.54296 -0.07211 -0.81749l0.472 -3.807h3l0.47598 3.807Z" stroke-width="1"></path><path stroke="#000000" d="M8.25 13.875c-0.20711 0 -0.375 -0.1679 -0.375 -0.375s0.16789 -0.375 0.375 -0.375" stroke-width="1"></path><path stroke="#000000" d="M8.25 13.875c0.20711 0 0.375 -0.1679 0.375 -0.375s-0.16789 -0.375 -0.375 -0.375" stroke-width="1"></path><path stroke="#000000" d="M8.25 17.625c-0.20711 0 -0.375 -0.1679 -0.375 -0.375s0.16789 -0.375 0.375 -0.375" stroke-width="1"></path><path stroke="#000000" d="M8.25 17.625c0.20711 0 0.375 -0.1679 0.375 -0.375s-0.16789 -0.375 -0.375 -0.375" stroke-width="1"></path><g><path stroke="#000000" d="M8.25 10.125c-0.20711 0 -0.375 -0.16789 -0.375 -0.375s0.16789 -0.375 0.375 -0.375" stroke-width="1"></path><path stroke="#000000" d="M8.25 10.125c0.20711 0 0.375 -0.16789 0.375 -0.375s-0.16789 -0.375 -0.375 -0.375" stroke-width="1"></path></g><path stroke="#000000" stroke-linecap="round" stroke-linejoin="round" d="M7.5 20.25H2.25c-0.39782 0 -0.77936 -0.158 -1.06066 -0.4393C0.908035 19.5294 0.75 19.1478 0.75 18.75V2.25c0 -0.39782 0.158035 -0.77936 0.43934 -1.06066C1.47064 0.908035 1.85218 0.75 2.25 0.75h10.629c0.3975 0.000085 0.7788 0.157982 1.06 0.439l2.872 2.872c0.281 0.2812 0.4389 0.66245 0.439 1.06V6.84" stroke-width="1"></path></svg>