<svg xmlns="http://www.w3.org/2000/svg" fill="none" viewBox="0 0 24 24" id="Zip-File-Star--Streamline-Ultimate"><desc>Zip File Star Streamline Icon: https://streamlinehq.com</desc><path stroke="#000000" stroke-linecap="round" stroke-linejoin="round" d="m17.9504 11.68 1.544 4.07h2.99c0.1512 -0.0057 0.3005 0.0354 0.4274 0.1177 0.127 0.0823 0.2255 0.2017 0.2821 0.3421 0.0565 0.1403 0.0684 0.2947 0.0339 0.4421 -0.0344 0.1473 -0.1135 0.2804 -0.2264 0.3811l-2.6 1.816 1.44 3.313c0.0632 0.1516 0.0773 0.3191 0.0403 0.4791 -0.037 0.1599 -0.1232 0.3042 -0.2465 0.4127 -0.1233 0.1084 -0.2775 0.1754 -0.4409 0.1916 -0.1634 0.0162 -0.3277 -0.0193 -0.4699 -0.1014l-3.48 -1.961 -3.48 1.961c-0.1422 0.0821 -0.3066 0.1176 -0.4699 0.1014 -0.1634 -0.0162 -0.3176 -0.0832 -0.4409 -0.1916 -0.1233 -0.1085 -0.2095 -0.2528 -0.2465 -0.4127 -0.037 -0.16 -0.0229 -0.3275 0.0403 -0.4791l1.44 -3.313 -2.6 -1.816c-0.1133 -0.1003 -0.1928 -0.2331 -0.2277 -0.3804 -0.0348 -0.1472 -0.0233 -0.3016 0.0329 -0.442 0.0563 -0.1405 0.1546 -0.2601 0.2815 -0.3426 0.1268 -0.0824 0.2761 -0.1236 0.4273 -0.118h3l1.541 -4.07c0.0685 -0.127 0.1702 -0.2331 0.2941 -0.307 0.1239 -0.074 0.2656 -0.113 0.4099 -0.113 0.1443 0 0.2859 0.039 0.4099 0.113 0.1239 0.0739 0.2255 0.18 0.2941 0.307Z" stroke-width="1"></path><path stroke="#000000" stroke-linecap="round" stroke-linejoin="round" d="M10.226 4.557c0.0342 0.27453 0.0096 0.55318 -0.0721 0.81749 -0.0817 0.2643 -0.2187 0.5082 -0.40188 0.71551 -0.19096 0.2074 -0.42285 0.37294 -0.68103 0.48617 -0.25819 0.11324 -0.53704 0.1717 -0.81897 0.1717 -0.28192 0 -0.56078 -0.05846 -0.81896 -0.1717 -0.25818 -0.11323 -0.49007 -0.27877 -0.68104 -0.48617 -0.18318 -0.20731 -0.32017 -0.45121 -0.40189 -0.71551 -0.08172 -0.26431 -0.1063 -0.54296 -0.07211 -0.81749l0.472 -3.807h3l0.47598 3.807Z" stroke-width="1"></path><path stroke="#000000" d="M8.25 13.875c-0.20711 0 -0.375 -0.1679 -0.375 -0.375s0.16789 -0.375 0.375 -0.375" stroke-width="1"></path><path stroke="#000000" d="M8.25 13.875c0.20711 0 0.375 -0.1679 0.375 -0.375s-0.16789 -0.375 -0.375 -0.375" stroke-width="1"></path><path stroke="#000000" d="M8.25 17.625c-0.20711 0 -0.375 -0.1679 -0.375 -0.375s0.16789 -0.375 0.375 -0.375" stroke-width="1"></path><path stroke="#000000" d="M8.25 17.625c0.20711 0 0.375 -0.1679 0.375 -0.375s-0.16789 -0.375 -0.375 -0.375" stroke-width="1"></path><g><path stroke="#000000" d="M8.25 10.125c-0.20711 0 -0.375 -0.16789 -0.375 -0.375s0.16789 -0.375 0.375 -0.375" stroke-width="1"></path><path stroke="#000000" d="M8.25 10.125c0.20711 0 0.375 -0.16789 0.375 -0.375s-0.16789 -0.375 -0.375 -0.375" stroke-width="1"></path></g><path stroke="#000000" stroke-linecap="round" stroke-linejoin="round" d="M7.5 20.25H2.25c-0.39782 0 -0.77936 -0.158 -1.06066 -0.4393C0.908035 19.5294 0.75 19.1478 0.75 18.75V2.25c0 -0.39782 0.158035 -0.77936 0.43934 -1.06066C1.47064 0.908035 1.85218 0.75 2.25 0.75h10.629c0.3975 0.000085 0.7788 0.157982 1.06 0.439l2.872 2.872c0.281 0.2812 0.4389 0.66245 0.439 1.06V8.25" stroke-width="1"></path></svg>