<svg xmlns="http://www.w3.org/2000/svg" fill="none" viewBox="0 0 24 24" id="Easter-Egg-Ribbon--Streamline-Ultimate"><desc>Easter Egg Ribbon Streamline Icon: https://streamlinehq.com</desc><path stroke="#000000" stroke-linecap="round" stroke-linejoin="round" d="M0.769653 12.4837 8.31926 9.15323" stroke-width="1"></path><path stroke="#000000" stroke-linecap="round" stroke-linejoin="round" d="m1.17645 16.432 9.22285 -4.0692" stroke-width="1"></path><path stroke="#000000" stroke-linecap="round" stroke-linejoin="round" d="M20.1989 15.9842c-0.1943 1.445 -0.7899 2.8066 -1.7192 3.9302 -0.964 1.104 -2.1646 1.9763 -3.5123 2.5521 -1.3478 0.5757 -2.8081 0.8401 -4.2722 0.7734 -5.47754 0 -9.925547 -3.3065 -9.925547 -10.1315C0.769653 6.28351 5.21766 0.75 10.6952 0.75c1.2555 0.023983 2.4917 0.31378 3.6271 0.85029 1.1354 0.53651 2.1442 1.30755 2.9599 2.26231" stroke-width="1"></path><path stroke="#000000" stroke-linecap="round" stroke-linejoin="round" d="m14.3716 6.37948 -2.384 -1.08152c-0.65 -0.2807 -1.3798 -0.31621 -2.05404 -0.09995 -0.66092 0.16625 -1.22911 0.58745 -1.58032 1.17149 -0.35121 0.58404 -0.45686 1.28339 -0.29384 1.94511l0.79365 2.55789c0.24665 0.636 0.73474 1.1488 1.35785 1.4264 0.6231 0.2777 1.3308 0.2978 1.9687 0.0559 0.6782 -0.2057 1.2588 -0.6503 1.6342 -1.2514l0.7137 -1.18251" stroke-width="1"></path><path stroke="#000000" stroke-linecap="round" stroke-linejoin="round" d="M15.8319 10.3397c1.2421 0 2.249 -1.00692 2.249 -2.249 0 -1.24209 -1.0069 -2.24899 -2.249 -2.24899 -1.2421 0 -2.249 1.0069 -2.249 2.24899 0 1.24208 1.0069 2.249 2.249 2.249Z" stroke-width="1"></path><path stroke="#000000" stroke-linecap="round" stroke-linejoin="round" d="m13.5849 7.99673 -2.275 0.70069" stroke-width="1"></path><path stroke="#000000" stroke-linecap="round" stroke-linejoin="round" d="m17.6371 6.7483 2.27 -0.69969" stroke-width="1"></path><path stroke="#000000" stroke-linecap="round" stroke-linejoin="round" d="m19.8111 9.63699 2.9567 4.45701c0.0294 0.045 0.0454 0.0974 0.0464 0.1511 0.0009 0.0538 -0.0133 0.1067 -0.0411 0.1527 -0.0277 0.046 -0.0679 0.0833 -0.1158 0.1075 -0.048 0.0242 -0.1019 0.0345 -0.1554 0.0295l-1.4263 -0.1409c-0.0654 -0.0066 -0.1311 0.0098 -0.1858 0.0462 -0.0546 0.0365 -0.095 0.0908 -0.1141 0.1537l-0.3538 1.1854c-0.0155 0.0503 -0.0446 0.0952 -0.0841 0.1299 -0.0395 0.0346 -0.0879 0.0577 -0.1397 0.0665 -0.0518 0.0088 -0.105 0.003 -0.1538 -0.0166 -0.0487 -0.0197 -0.091 -0.0525 -0.1222 -0.0948l-2.31 -3.2316c-0.0349 -0.0485 -0.0842 -0.0848 -0.1408 -0.1039 -0.0567 -0.0191 -0.1179 -0.0199 -0.1751 -0.0023 -0.0571 0.0175 -0.1073 0.0525 -0.1435 0.1001 -0.0363 0.0476 -0.0566 0.1053 -0.0583 0.1651l-0.091 3.9722c-0.0013 0.0533 -0.0175 0.1051 -0.0468 0.1497 -0.0293 0.0445 -0.0705 0.0799 -0.1189 0.1022 -0.0484 0.0223 -0.1021 0.0305 -0.155 0.0238 -0.0528 -0.0067 -0.1028 -0.0281 -0.1441 -0.0618l-0.9596 -0.7817c-0.0511 -0.0424 -0.1154 -0.0656 -0.1819 -0.0656 -0.0664 0 -0.1308 0.0232 -0.1819 0.0656l-1.0995 0.9216c-0.0413 0.0347 -0.0916 0.0568 -0.1451 0.064 -0.0534 0.0072 -0.1078 -0.001 -0.1568 -0.0235 -0.049 -0.0225 -0.0905 -0.0584 -0.1199 -0.1036 -0.0294 -0.0452 -0.0453 -0.0979 -0.046 -0.1518l-0.07 -5.4735" stroke-width="1"></path><path stroke="#000000" stroke-linecap="round" stroke-linejoin="round" d="m16.0528 5.8517 1.3844 -2.23599c0.3808 -0.59674 0.9649 -1.03528 1.6442 -1.23445 0.6392 -0.23343 1.3447 -0.20458 1.9627 0.08024 0.6179 0.28482 1.0982 0.80251 1.3359 1.44008l0.7836 2.56085c0.1541 0.66482 0.0392 1.36361 -0.3197 1.94405 -0.359 0.58044 -0.9328 0.99545 -1.5964 1.15456 -0.6756 0.21103 -1.4049 0.16947 -2.0521 -0.11695l-1.2565 -0.57574" stroke-width="1"></path><path stroke="#000000" d="M4.91943 7.49731c-0.2071 0 -0.375 -0.16789 -0.375 -0.375 0 -0.2071 0.1679 -0.375 0.375 -0.375" stroke-width="1"></path><path stroke="#000000" d="M4.91913 7.49731c0.20711 0 0.375 -0.16789 0.375 -0.375 0 -0.2071 -0.16789 -0.375 -0.375 -0.375" stroke-width="1"></path><path stroke="#000000" d="M5.9035 18.9671c-0.2071 0 -0.375 -0.1679 -0.375 -0.375s0.1679 -0.375 0.375 -0.375" stroke-width="1"></path><path stroke="#000000" d="M5.90314 18.9671c0.2071 0 0.375 -0.1679 0.375 -0.375s-0.1679 -0.375 -0.375 -0.375" stroke-width="1"></path><g><path stroke="#000000" d="M10.1406 16.4933c-0.20708 0 -0.37498 -0.1679 -0.37498 -0.375s0.1679 -0.375 0.37498 -0.375" stroke-width="1"></path><path stroke="#000000" d="M10.1403 16.4933c0.2071 0 0.375 -0.1679 0.375 -0.375s-0.1679 -0.375 -0.375 -0.375" stroke-width="1"></path></g><g><path stroke="#000000" d="M10.8593 20.2416c-0.2072 0 -0.375 -0.1679 -0.375 -0.375s0.1678 -0.375 0.375 -0.375" stroke-width="1"></path><path stroke="#000000" d="M10.8589 20.2416c0.2072 0 0.375 -0.1679 0.375 -0.375s-0.1678 -0.375 -0.375 -0.375" stroke-width="1"></path></g></svg>