<svg xmlns="http://www.w3.org/2000/svg" fill="none" viewBox="0 0 24 24" id="Easter-Egg--Streamline-Ultimate"><desc>Easter Egg Streamline Icon: https://streamlinehq.com</desc><path stroke="#000000" stroke-linecap="round" stroke-linejoin="round" d="M7.6 20.64c-3.17 -0.64 -5.38 -3.33 -4.8 -7.91 0.62 -4.86 3.94 -8.44 7.43 -8 0.9375 0.16585 1.8186 0.56391 2.5627 1.15782 0.7442 0.59391 1.3277 1.36477 1.6973 2.24218" stroke-width="1"></path><path stroke="#000000" stroke-linecap="round" stroke-linejoin="round" d="M10.49 9.18001c-1.99252 -0.12248 -3.92971 -0.70432 -5.65998 -1.7" stroke-width="1"></path><path stroke="#000000" stroke-linecap="round" stroke-linejoin="round" d="M6.91998 12.22c-1.29902 -0.3981 -2.51052 -1.0394 -3.57 -1.89" stroke-width="1"></path><path stroke="#000000" stroke-linecap="round" stroke-linejoin="round" d="M13.59 22.69c-4.21999 -1.41 -5.43999 -4.54 -4.42999 -7.55C10.17 12.13 13.02 10.35 17.23 11.75c4.21 1.4 6.81 5 5.8 8 -1.01 3 -5.23 4.34 -9.44 2.94Z" stroke-width="1"></path><path stroke="#000000" stroke-linecap="round" stroke-linejoin="round" d="m0.75 5.64001 1.47 0.98" stroke-width="1"></path><path stroke="#000000" stroke-linecap="round" stroke-linejoin="round" d="m18.36 7.60001 2.93 -1.96" stroke-width="1"></path><path stroke="#000000" stroke-linecap="round" stroke-linejoin="round" d="m4.16998 1.57001 0.98 1.46" stroke-width="1"></path><path stroke="#000000" stroke-linecap="round" stroke-linejoin="round" d="M10.5 0.75v1.96" stroke-width="1"></path><path stroke="#000000" stroke-linecap="round" stroke-linejoin="round" d="m15.91 4.66 1.47 -2.44" stroke-width="1"></path><path stroke="#000000" stroke-linecap="round" stroke-linejoin="round" d="M20.32 10.53h2.93" stroke-width="1"></path><g><path stroke="#000000" d="M12.375 16.5c-0.2071 0 -0.375 -0.1679 -0.375 -0.375s0.1679 -0.375 0.375 -0.375" stroke-width="1"></path><path stroke="#000000" d="M12.375 16.5c0.2071 0 0.375 -0.1679 0.375 -0.375s-0.1679 -0.375 -0.375 -0.375" stroke-width="1"></path></g><g><path stroke="#000000" d="M16.88 15.75c-0.2071 0 -0.375 -0.1679 -0.375 -0.375s0.1679 -0.375 0.375 -0.375" stroke-width="1"></path><path stroke="#000000" d="M16.88 15.75c0.2071 0 0.375 -0.1679 0.375 -0.375S17.0871 15 16.88 15" stroke-width="1"></path></g><g><path stroke="#000000" d="M14.625 19.505c-0.2071 0 -0.375 -0.1679 -0.375 -0.375s0.1679 -0.375 0.375 -0.375" stroke-width="1"></path><path stroke="#000000" d="M14.625 19.505c0.2071 0 0.375 -0.1679 0.375 -0.375s-0.1679 -0.375 -0.375 -0.375" stroke-width="1"></path></g><g><path stroke="#000000" d="M19.88 19.505c-0.2071 0 -0.375 -0.1679 -0.375 -0.375s0.1679 -0.375 0.375 -0.375" stroke-width="1"></path><path stroke="#000000" d="M19.88 19.505c0.2071 0 0.375 -0.1679 0.375 -0.375s-0.1679 -0.375 -0.375 -0.375" stroke-width="1"></path></g></svg>