<svg viewBox="0 0 24 24" xmlns="http://www.w3.org/2000/svg" id="Easter-Egg-Decoration--Streamline-Ultimate"><desc>Easter Egg Decoration Streamline Icon: https://streamlinehq.com</desc><path d="M2.366 5.823a1.842 1.842 0 0 1 2.066 0.52c1.156 1.286 2.258 1.19 3.207 0.135a1.842 1.842 0 0 1 2.8 0l0.007 0.008a1.879 1.879 0 0 0 1.382 0.646 1.949 1.949 0 0 0 1.672 -0.969" fill="none" stroke="#000000" stroke-linecap="round" stroke-linejoin="round" stroke-width="1"></path><path d="M10.5 19.875a3.2 3.2 0 1 1 -2.922 -5.69" fill="none" stroke="#000000" stroke-linecap="round" stroke-linejoin="round" stroke-width="1"></path><path d="M18.672 14.241c-0.617 5.581 -4.374 9.009 -8.917 9.009C4.782 23.25 0.75 19.142 0.75 12.6S4.782 0.75 9.755 0.75a7.627 7.627 0 0 1 5.262 2.232" fill="none" stroke="#000000" stroke-linecap="round" stroke-linejoin="round" stroke-width="1"></path><path d="M10.056 17.28s0.892 -1.2 0.645 -3.951a2.809 2.809 0 0 1 0.535 -2.105 2.759 2.759 0 0 1 4.373 3.366 6.5 6.5 0 0 1 -5.553 2.69Z" fill="none" stroke="#000000" stroke-linecap="round" stroke-linejoin="round" stroke-width="1"></path><path d="M22.455 1.173a2.038 2.038 0 0 0 -2.952 0.5l-5.382 8.559a2.762 2.762 0 0 1 1.723 1.348l6.879 -7.429a2.038 2.038 0 0 0 -0.268 -2.978Z" fill="none" stroke="#000000" stroke-linecap="round" stroke-linejoin="round" stroke-width="1"></path></svg>