<svg viewBox="0 0 24 24" xmlns="http://www.w3.org/2000/svg" id="Key-Lock-1--Streamline-Ultimate"><desc>Key Lock 1 Streamline Icon: https://streamlinehq.com</desc><path d="M0.75 20.25a3 3 0 1 0 6 0 3 3 0 1 0 -6 0Z" fill="none" stroke="#000000" stroke-linecap="round" stroke-linejoin="round" stroke-width="1"></path><path d="m6.75 20.25 7.5 0 0 2.25" fill="none" stroke="#000000" stroke-linecap="round" stroke-linejoin="round" stroke-width="1"></path><path d="m11.25 20.25 0 1.5" fill="none" stroke="#000000" stroke-linecap="round" stroke-linejoin="round" stroke-width="1"></path><path d="M6.75 15v-3.75a1.5 1.5 0 0 1 1.5 -1.5h13.5a1.5 1.5 0 0 1 1.5 1.5v10.5a1.5 1.5 0 0 1 -1.5 1.5h-4.5" fill="none" stroke="#000000" stroke-linecap="round" stroke-linejoin="round" stroke-width="1"></path><path d="M9.75 9.75V6a5.25 5.25 0 0 1 10.5 0v3.75" fill="none" stroke="#000000" stroke-linecap="round" stroke-linejoin="round" stroke-width="1"></path><path d="M12.914 17.343a2.25 2.25 0 1 1 3.608 0.813" fill="none" stroke="#000000" stroke-linecap="round" stroke-linejoin="round" stroke-width="1"></path></svg>