<svg xmlns="http://www.w3.org/2000/svg" fill="none" viewBox="0 0 24 24" id="Lock--Streamline-Ultimate"><desc>Lock Streamline Icon: https://streamlinehq.com</desc><path stroke="#000000" d="M12 14.625c-0.2071 0 -0.375 -0.1679 -0.375 -0.375s0.1679 -0.375 0.375 -0.375" stroke-width="1"></path><path stroke="#000000" d="M12 14.625c0.2071 0 0.375 -0.1679 0.375 -0.375s-0.1679 -0.375 -0.375 -0.375" stroke-width="1"></path><path stroke="#000000" stroke-linecap="round" stroke-linejoin="round" d="M15.75 9.75V7.5c-0.0026 -0.99375 -0.3986 -1.94604 -1.1013 -2.64873C13.946 4.14858 12.9938 3.75264 12 3.75v0c-0.9937 0.0029 -1.9458 0.39892 -2.64844 1.10156C8.64892 5.55419 8.2529 6.50633 8.25 7.5v2.25" stroke-width="1"></path><path stroke="#000000" stroke-linecap="round" stroke-linejoin="round" d="M0.75 3.75v-1.5c0 -0.39782 0.158035 -0.77936 0.43934 -1.06066C1.47064 0.908035 1.85218 0.75 2.25 0.75h1.5" stroke-width="1"></path><path stroke="#000000" stroke-linecap="round" stroke-linejoin="round" d="M23.25 3.75v-1.5c0 -0.39782 -0.158 -0.77936 -0.4393 -1.06066C22.5294 0.908035 22.1478 0.75 21.75 0.75h-1.5" stroke-width="1"></path><path stroke="#000000" stroke-linecap="round" stroke-linejoin="round" d="M0.75 20.25v1.5c0 0.3978 0.158035 0.7794 0.43934 1.0607 0.2813 0.2813 0.66284 0.4393 1.06066 0.4393h1.5" stroke-width="1"></path><path stroke="#000000" stroke-linecap="round" stroke-linejoin="round" d="M23.25 20.25v1.5c0 0.3978 -0.158 0.7794 -0.4393 1.0607s-0.6629 0.4393 -1.0607 0.4393h-1.5" stroke-width="1"></path><path stroke="#000000" stroke-linecap="round" stroke-linejoin="round" d="M15.75 9.75h-7.5c-0.82843 0 -1.5 0.6716 -1.5 1.5v6c0 0.8284 0.67157 1.5 1.5 1.5h7.5c0.8284 0 1.5 -0.6716 1.5 -1.5v-6c0 -0.8284 -0.6716 -1.5 -1.5 -1.5Z" stroke-width="1"></path></svg>