<svg xmlns="http://www.w3.org/2000/svg" fill="none" viewBox="0 0 24 24" id="Lock-Network--Streamline-Ultimate"><desc>Lock Network Streamline Icon: https://streamlinehq.com</desc><path stroke="#000000" stroke-linecap="round" stroke-linejoin="round" d="M21 5.25c1.2426 0 2.25 -1.00736 2.25 -2.25S22.2426 0.75 21 0.75 18.75 1.75736 18.75 3 19.7574 5.25 21 5.25Z" stroke-width="1"></path><path stroke="#000000" stroke-linecap="round" stroke-linejoin="round" d="M21 14.25c1.2426 0 2.25 -1.0074 2.25 -2.25S22.2426 9.75 21 9.75s-2.25 1.0074 -2.25 2.25 1.0074 2.25 2.25 2.25Z" stroke-width="1"></path><path stroke="#000000" stroke-linecap="round" stroke-linejoin="round" d="M14.25 12h4.5" stroke-width="1"></path><path stroke="#000000" stroke-linecap="round" stroke-linejoin="round" d="m14.25 7.49993 4.882 -3.247" stroke-width="1"></path><path stroke="#000000" stroke-linecap="round" stroke-linejoin="round" d="M21 23.25c1.2426 0 2.25 -1.0074 2.25 -2.25s-1.0074 -2.25 -2.25 -2.25 -2.25 1.0074 -2.25 2.25 1.0074 2.25 2.25 2.25Z" stroke-width="1"></path><path stroke="#000000" stroke-linecap="round" stroke-linejoin="round" d="m14.25 16.5 4.882 3.246" stroke-width="1"></path><path stroke="#000000" stroke-linecap="round" stroke-linejoin="round" d="M9.75 9.75h-7.5c-0.82843 0 -1.5 0.6716 -1.5 1.5v4.5c0 0.8284 0.67157 1.5 1.5 1.5h7.5c0.8284 0 1.5 -0.6716 1.5 -1.5v-4.5c0 -0.8284 -0.6716 -1.5 -1.5 -1.5Z" stroke-width="1"></path><path stroke="#000000" d="M6 13.875c-0.20711 0 -0.375 -0.1679 -0.375 -0.375s0.16789 -0.375 0.375 -0.375" stroke-width="1"></path><path stroke="#000000" d="M6 13.875c0.20711 0 0.375 -0.1679 0.375 -0.375s-0.16789 -0.375 -0.375 -0.375" stroke-width="1"></path><path stroke="#000000" stroke-linecap="round" stroke-linejoin="round" d="M2.25 9.75V7.5c0 -0.99456 0.39509 -1.94839 1.09835 -2.65165S5.00544 3.75 6 3.75c0.99456 0 1.94839 0.39509 2.65165 1.09835S9.75 6.50544 9.75 7.5v2.25" stroke-width="1"></path></svg>