<svg xmlns="http://www.w3.org/2000/svg" fill="none" viewBox="0 0 24 24" id="Rotation-Unlock-Rotate--Streamline-Ultimate"><desc>Rotation Unlock Rotate Streamline Icon: https://streamlinehq.com</desc><path stroke="#000000" stroke-linecap="round" stroke-linejoin="round" stroke-miterlimit="10" d="M16.3804 17.6748c0 0.5974 -0.4977 1.0951 -1.0951 1.0951h-4.5796c-0.5974 0 -1.09517 -0.4977 -1.09517 -1.0951v-2.8872c0 -0.5973 0.49777 -1.0951 1.09517 -1.0951h4.5796c0.5974 0 1.0951 0.4978 1.0951 1.0951v2.8872Z" stroke-width="1"></path><path stroke="#000000" stroke-linecap="round" stroke-linejoin="round" stroke-miterlimit="10" d="M6.62378 12.0001c0 -1.2943 0.99557 -2.28989 2.28982 -2.28989 1.2942 0 2.2898 0.99559 2.2898 2.28989v1.6924" stroke-width="1"></path><path stroke="#000000" stroke-linecap="round" stroke-linejoin="round" stroke-miterlimit="10" d="M17.2765 5.32959c2.6881 1.69248 4.4801 4.77881 4.4801 8.16381 0 5.3761 -4.3805 9.7566 -9.7566 9.7566 -5.37611 0 -9.75665 -4.3805 -9.75665 -9.7566 0 -5.37612 4.38054 -9.75671 9.75665 -9.75671h2.1903" stroke-width="1"></path><path stroke="#000000" stroke-linecap="round" stroke-linejoin="round" stroke-miterlimit="10" d="m11.303 0.75 2.9868 2.98673 -2.9868 2.98673" stroke-width="1"></path></svg>