<svg xmlns="http://www.w3.org/2000/svg" viewBox="0 0 24 24" id="Islamic-Muslim-Pray-Salah-1--Streamline-Ultimate"><desc>Islamic Muslim Pray Salah 1 Streamline Icon: https://streamlinehq.com</desc><defs></defs><path d="M8.45 10.088A3.85 3.85 0 0 1 7.509 2.5a3.894 3.894 0 0 1 1.181 -0.1 0.5 0.5 0 0 0 0.294 -0.926A5.5 5.5 0 1 0 6.25 11.738a5.439 5.439 0 0 0 2.722 -0.725 0.5 0.5 0 0 0 -0.281 -0.932c-0.08 0.005 -0.16 0.007 -0.241 0.007Z" fill="none" stroke="#000000" stroke-linecap="round" stroke-linejoin="round" stroke-width="1"></path><path d="m12.25 7.238 -2 -2.085" fill="none" stroke="#000000" stroke-linecap="round" stroke-linejoin="round" stroke-width="1"></path><path d="m10.25 7.153 2 -1.915" fill="none" stroke="#000000" stroke-linecap="round" stroke-linejoin="round" stroke-width="1"></path><path d="M9.75 23.262a1.5 1.5 0 0 1 -0.526 -2.905l1.155 -0.434 -1.424 -0.89a1.5 1.5 0 0 1 -0.087 -2.485l5.072 -3.688a4.5 4.5 0 0 1 7.085 4.379l-0.5 3.022h1.225a1.5 1.5 0 0 1 0 3h-2.41a2 2 0 0 1 -1.972 -2.328l0.7 -4.187a1.5 1.5 0 0 0 -2.362 -1.46l-3.276 2.381 2.115 1.322a1.5 1.5 0 0 1 -0.268 2.676l-4 1.5a1.478 1.478 0 0 1 -0.527 0.097Z" fill="none" stroke="#000000" stroke-linecap="round" stroke-linejoin="round" stroke-width="1"></path><path d="M0.75 19.762a3.5 3.5 0 1 0 7 0 3.5 3.5 0 1 0 -7 0" fill="none" stroke="#000000" stroke-linecap="round" stroke-linejoin="round" stroke-width="1"></path></svg>