<svg xmlns="http://www.w3.org/2000/svg" viewBox="0 0 24 24" id="Islamic-Before-Bowing--Streamline-Ultimate"><desc>Islamic Before Bowing Streamline Icon: https://streamlinehq.com</desc><defs></defs><path d="M15.949 23h-7.53a1.868 1.868 0 0 1 -0.879 -3.516l4.678 -2.5a0.876 0.876 0 0 0 0.453 -0.93l-0.5 -2.845 -2.436 4.063a1.5 1.5 0 1 1 -2.572 -1.544l3.763 -6.272a2.035 2.035 0 0 1 3.749 0.693l0.951 5.389a3.874 3.874 0 0 1 -2 4.1l-1.514 0.567 3.833 -0.2a1.5 1.5 0 1 1 0 3Z" fill="none" stroke="#000000" stroke-linecap="round" stroke-linejoin="round" stroke-width="1"></path><path d="M6.949 4.5a3.5 3.5 0 1 0 7 0 3.5 3.5 0 1 0 -7 0" fill="none" stroke="#000000" stroke-linecap="round" stroke-linejoin="round" stroke-width="1"></path></svg>