<svg xmlns="http://www.w3.org/2000/svg" viewBox="0 0 24 24" id="Islamic-Prayer-Mat-1--Streamline-Ultimate"><desc>Islamic Prayer Mat 1 Streamline Icon: https://streamlinehq.com</desc><defs></defs><path d="M13.936 15.844A3.85 3.85 0 0 1 13 8.259a3.926 3.926 0 0 1 1.181 -0.108 0.5 0.5 0 0 0 0.294 -0.925 5.5 5.5 0 1 0 -2.734 10.268 5.439 5.439 0 0 0 2.722 -0.725 0.5 0.5 0 0 0 -0.281 -0.933c-0.082 0.005 -0.165 0.008 -0.246 0.008Z" fill="none" stroke="#000000" stroke-linecap="round" stroke-linejoin="round" stroke-width="1"></path><path d="m17.976 13.001 -2 -2.085" fill="none" stroke="#000000" stroke-linecap="round" stroke-linejoin="round" stroke-width="1"></path><path d="m15.976 12.916 2 -1.915" fill="none" stroke="#000000" stroke-linecap="round" stroke-linejoin="round" stroke-width="1"></path><path d="M2.501 3.204h19v17.595h-19Z" fill="none" stroke="#000000" stroke-linecap="round" stroke-linejoin="round" stroke-width="1"></path><path d="m2.499 3.202 0 -2.404" fill="none" stroke="#000000" stroke-linecap="round" stroke-linejoin="round" stroke-width="1"></path><path d="m21.499 3.202 0 -2.404" fill="none" stroke="#000000" stroke-linecap="round" stroke-linejoin="round" stroke-width="1"></path><path d="m15.166 3.202 0 -2.404" fill="none" stroke="#000000" stroke-linecap="round" stroke-linejoin="round" stroke-width="1"></path><path d="m8.832 3.202 0 -2.404" fill="none" stroke="#000000" stroke-linecap="round" stroke-linejoin="round" stroke-width="1"></path><path d="m2.499 23.202 0 -2.404" fill="none" stroke="#000000" stroke-linecap="round" stroke-linejoin="round" stroke-width="1"></path><path d="m21.499 23.202 0 -2.404" fill="none" stroke="#000000" stroke-linecap="round" stroke-linejoin="round" stroke-width="1"></path><path d="m15.166 23.202 0 -2.404" fill="none" stroke="#000000" stroke-linecap="round" stroke-linejoin="round" stroke-width="1"></path><path d="m8.832 23.202 0 -2.404" fill="none" stroke="#000000" stroke-linecap="round" stroke-linejoin="round" stroke-width="1"></path></svg>