<svg viewBox="0 0 24 24" xmlns="http://www.w3.org/2000/svg" id="Religion-Devil-Head--Streamline-Ultimate"><desc>Religion Devil Head Streamline Icon: https://streamlinehq.com</desc><path d="m14.25 7.5 1.629 -1.629A7.242 7.242 0 0 0 18 0.75a6.115 6.115 0 0 1 0.568 7.993L17.25 10.5" fill="none" stroke="#000000" stroke-linecap="round" stroke-linejoin="round" stroke-width="1"></path><path d="M9.75 7.5 8.121 5.871A7.242 7.242 0 0 1 6 0.75a6.115 6.115 0 0 0 -0.568 7.993L6.75 10.5" fill="none" stroke="#000000" stroke-linecap="round" stroke-linejoin="round" stroke-width="1"></path><path d="M5.319 8.588A7.476 7.476 0 0 0 4.5 12v3.75a7.5 7.5 0 0 0 15 0V12a7.476 7.476 0 0 0 -0.819 -3.412" fill="none" stroke="#000000" stroke-linecap="round" stroke-linejoin="round" stroke-width="1"></path><path d="M16.054 5.689a7.506 7.506 0 0 0 -8.108 0" fill="none" stroke="#000000" stroke-linecap="round" stroke-linejoin="round" stroke-width="1"></path><path d="m19.5 12 3.75 -1.5a5.539 5.539 0 0 1 -3.482 5.143l-0.268 0.107" fill="none" stroke="#000000" stroke-linecap="round" stroke-linejoin="round" stroke-width="1"></path><path d="M4.5 12 0.75 10.5a5.539 5.539 0 0 0 3.482 5.143l0.268 0.107" fill="none" stroke="#000000" stroke-linecap="round" stroke-linejoin="round" stroke-width="1"></path><path d="m8.25 12.75 2.25 1.5" fill="none" stroke="#000000" stroke-linecap="round" stroke-linejoin="round" stroke-width="1"></path><path d="m15.75 12.75 -2.25 1.5" fill="none" stroke="#000000" stroke-linecap="round" stroke-linejoin="round" stroke-width="1"></path><path d="M14.488 18.75a4.5 4.5 0 0 1 -4.976 0" fill="none" stroke="#000000" stroke-linecap="round" stroke-linejoin="round" stroke-width="1"></path></svg>