<svg viewBox="0 0 24 24" xmlns="http://www.w3.org/2000/svg" id="Religion-Wicca--Streamline-Ultimate"><desc>Religion Wicca Streamline Icon: https://streamlinehq.com</desc><path d="m16.66 0.75 -9.32 0L0.75 7.34l0 9.32 6.59 6.59 9.32 0 6.59 -6.59 0 -9.32L16.66 0.75z" fill="none" stroke="#000000" stroke-linecap="round" stroke-linejoin="round" stroke-width="1"></path><path d="m14.796 5.25 -5.592 0L5.25 9.204l0 5.592 3.954 3.954 5.592 0 3.954 -3.954 0 -5.592 -3.954 -3.954z" fill="none" stroke="#000000" stroke-linecap="round" stroke-linejoin="round" stroke-width="1"></path><path d="m12.932 9.75 -1.864 0 -1.318 1.318 0 1.864 1.318 1.318 1.864 0 1.318 -1.318 0 -1.864 -1.318 -1.318z" fill="none" stroke="#000000" stroke-linecap="round" stroke-linejoin="round" stroke-width="1"></path><path d="m7.34 0.75 3.728 9" fill="none" stroke="#000000" stroke-linecap="round" stroke-linejoin="round" stroke-width="1"></path><path d="m16.66 0.75 -3.728 9" fill="none" stroke="#000000" stroke-linecap="round" stroke-linejoin="round" stroke-width="1"></path><path d="m14.25 11.068 9 -3.728" fill="none" stroke="#000000" stroke-linecap="round" stroke-linejoin="round" stroke-width="1"></path><path d="m12.932 14.25 3.728 9" fill="none" stroke="#000000" stroke-linecap="round" stroke-linejoin="round" stroke-width="1"></path><path d="m14.25 12.932 9 3.728" fill="none" stroke="#000000" stroke-linecap="round" stroke-linejoin="round" stroke-width="1"></path><path d="m11.068 14.25 -3.728 9" fill="none" stroke="#000000" stroke-linecap="round" stroke-linejoin="round" stroke-width="1"></path><path d="m9.75 12.932 -9 3.728" fill="none" stroke="#000000" stroke-linecap="round" stroke-linejoin="round" stroke-width="1"></path><path d="m9.75 11.068 -9 -3.728" fill="none" stroke="#000000" stroke-linecap="round" stroke-linejoin="round" stroke-width="1"></path></svg>