<svg xmlns="http://www.w3.org/2000/svg" viewBox="0 0 24 24" id="Religion-Cao-Dai-Hands-2--Streamline-Ultimate"><desc>Religion Cao Dai Hands 2 Streamline Icon: https://streamlinehq.com</desc><g><path d="m4.5 23.25 -2 -2.52a4.5 4.5 0 0 1 -1 -2.81v-5.17a1.5 1.5 0 0 1 1.5 -1.5h0a1.5 1.5 0 0 1 1.5 1.5v3.87" fill="none" stroke="#000000" stroke-linecap="round" stroke-linejoin="round" stroke-width="1"></path><path d="M9 23.25v-3.14a4.43 4.43 0 0 0 -0.76 -2.49L7.1 15.9a1.41 1.41 0 0 0 -2 -0.44h0a1.4 1.4 0 0 0 -0.47 1.79L6 19.5" fill="none" stroke="#000000" stroke-linecap="round" stroke-linejoin="round" stroke-width="1"></path><path d="m19.5 23.25 2 -2.52a4.5 4.5 0 0 0 1 -2.81v-5.17a1.5 1.5 0 0 0 -1.5 -1.5h0a1.5 1.5 0 0 0 -1.5 1.5v3.87" fill="none" stroke="#000000" stroke-linecap="round" stroke-linejoin="round" stroke-width="1"></path><path d="M15 23.25v-3.14a4.43 4.43 0 0 1 0.76 -2.49l1.14 -1.72a1.41 1.41 0 0 1 2 -0.44h0a1.4 1.4 0 0 1 0.47 1.79L18 19.5" fill="none" stroke="#000000" stroke-linecap="round" stroke-linejoin="round" stroke-width="1"></path><path d="M12 0.75C8.78 0.7 5.44 2.89 3.34 5.13a1.27 1.27 0 0 0 0 1.73c2.05 2.2 5.38 4.44 8.66 4.39s6.61 -2.19 8.66 -4.39a1.27 1.27 0 0 0 0 -1.73C18.56 2.89 15.22 0.7 12 0.75Z" fill="none" stroke="#000000" stroke-linecap="round" stroke-linejoin="round" stroke-width="1"></path><path d="M9.75 6a2.25 2.25 0 1 0 4.5 0 2.25 2.25 0 1 0 -4.5 0" fill="none" stroke="#000000" stroke-linecap="round" stroke-linejoin="round" stroke-width="1"></path></g></svg>