<svg viewBox="0 0 24 24" xmlns="http://www.w3.org/2000/svg" id="Religion-Cao-Dai--Streamline-Ultimate"><desc>Religion Cao Dai Streamline Icon: https://streamlinehq.com</desc><path d="M12 8.276c-3.225 -0.052 -6.561 2.134 -8.657 4.371a1.261 1.261 0 0 0 0 1.727C5.394 16.565 8.718 18.8 12 18.748c3.283 0.054 6.606 -2.183 8.659 -4.374a1.261 1.261 0 0 0 0 -1.727C18.561 10.41 15.225 8.224 12 8.276Z" fill="none" stroke="#000000" stroke-linecap="round" stroke-linejoin="round" stroke-width="1"></path><path d="M9.75 13.512a2.25 2.25 0 1 0 4.5 0 2.25 2.25 0 1 0 -4.5 0Z" fill="none" stroke="#000000" stroke-linecap="round" stroke-linejoin="round" stroke-width="1"></path><path d="M2.448 18 0.909 21.078a1.5 1.5 0 0 0 1.341 2.171h19.5a1.5 1.5 0 0 0 1.342 -2.171L21.552 18" fill="none" stroke="#000000" stroke-linecap="round" stroke-linejoin="round" stroke-width="1"></path><path d="m15.552 6 -2.21 -4.421a1.5 1.5 0 0 0 -2.683 0L8.448 6" fill="none" stroke="#000000" stroke-linecap="round" stroke-linejoin="round" stroke-width="1"></path></svg>