<svg viewBox="0 0 24 24" xmlns="http://www.w3.org/2000/svg" id="Religion-Islam-Pray--Streamline-Ultimate"><desc>Religion Islam Pray Streamline Icon: https://streamlinehq.com</desc><path d="M9.125 4.168a2.625 2.625 0 1 0 5.25 0 2.625 2.625 0 1 0 -5.25 0Z" fill="none" stroke="#000000" stroke-linecap="round" stroke-linejoin="round" stroke-width="1"></path><path d="M19.25 21.043a1.5 1.5 0 0 1 -1.5 1.5h-9a1.5 1.5 0 0 1 -0.806 -2.766l7.223 -4.6 -1.135 -3.03 -2.528 1.8a3.007 3.007 0 0 1 -4.047 -0.521L4.6 10a1.5 1.5 0 1 1 2.3 -1.918l2.859 3.43 4.116 -2.94a1.5 1.5 0 0 1 2.277 0.7l1.822 4.86a3.014 3.014 0 0 1 -1.2 3.585L13.9 19.543h3.85a1.5 1.5 0 0 1 1.5 1.5Z" fill="none" stroke="#000000" stroke-linecap="round" stroke-linejoin="round" stroke-width="1"></path></svg>