<svg xmlns="http://www.w3.org/2000/svg" fill="none" viewBox="0 0 24 24" id="Religion-Cao-Dai-Hand-1--Streamline-Ultimate"><desc>Religion Cao Dai Hand 1 Streamline Icon: https://streamlinehq.com</desc><path stroke="#000000" stroke-linecap="round" stroke-linejoin="round" d="M19.291 6.378 16.125 0.75l-3.166 5.628" stroke-width="1"></path><path stroke="#000000" stroke-linecap="round" stroke-linejoin="round" d="M11.882 8.293 9.375 12.75h13.5l-2.507 -4.457" stroke-width="1"></path><path stroke="#000000" stroke-linecap="round" stroke-linejoin="round" d="M16.125 5.25c-1.6609 0.12155 -3.2106 0.88044 -4.325 2.118 -0.1087 0.11197 -0.1696 0.26192 -0.1696 0.418s0.0609 0.30603 0.1696 0.418c1.1143 1.24004 2.6661 1.9996 4.329 2.119 1.662 -0.1214 3.2123 -0.8824 4.325 -2.123 0.1087 -0.11197 0.1696 -0.26192 0.1696 -0.418s-0.0609 -0.30603 -0.1696 -0.418c-1.1161 -1.23701 -2.6672 -1.9945 -4.329 -2.114Z" stroke-width="1"></path><path stroke="#000000" stroke-linecap="round" stroke-linejoin="round" d="M1.125 14.25v9" stroke-width="1"></path><path stroke="#000000" stroke-linecap="round" stroke-linejoin="round" d="M16.125 21.75c0 -0.7956 -0.3161 -1.5587 -0.8787 -2.1213 -0.5626 -0.5626 -1.3257 -0.8787 -2.1213 -0.8787h-3.75c0 -0.7956 -0.31607 -1.5587 -0.87868 -2.1213 -0.56261 -0.5626 -1.32567 -0.8787 -2.12132 -0.8787h-5.25v6h15Z" stroke-width="1"></path><path stroke="#000000" stroke-linecap="round" stroke-linejoin="round" d="M6.375 18.75h3" stroke-width="1"></path><path stroke="#000000" d="M16.127 8.1615c-0.2072 0 -0.375 -0.16789 -0.375 -0.375s0.1678 -0.375 0.375 -0.375" stroke-width="1"></path><path stroke="#000000" d="M16.127 8.1615c0.2071 0 0.375 -0.16789 0.375 -0.375s-0.1679 -0.375 -0.375 -0.375" stroke-width="1"></path></svg>