<svg viewBox="0 0 24 24" xmlns="http://www.w3.org/2000/svg" id="Religion-Shinto--Streamline-Ultimate"><desc>Religion Shinto Streamline Icon: https://streamlinehq.com</desc><path d="M19.152 11.369h1.863a1.485 1.485 0 0 1 0 2.97h-1.606" fill="none" stroke="#000000" stroke-linecap="round" stroke-linejoin="round" stroke-width="1"></path><path d="M5.057 11.369H3.194a1.485 1.485 0 0 0 0 2.97H4.8" fill="none" stroke="#000000" stroke-linecap="round" stroke-linejoin="round" stroke-width="1"></path><path d="m7.893 11.369 8.422 0" fill="none" stroke="#000000" stroke-linecap="round" stroke-linejoin="round" stroke-width="1"></path><path d="m16.56 14.339 -8.911 0" fill="none" stroke="#000000" stroke-linecap="round" stroke-linejoin="round" stroke-width="1"></path><path d="M17.3 2.459H6.906a5.136 5.136 0 0 1 -3.563 -1.441 0.966 0.966 0 0 0 -1.634 0.7 5.212 5.212 0 0 0 5.2 5.2H17.3a5.213 5.213 0 0 0 5.2 -5.2 0.966 0.966 0 0 0 -1.634 -0.7A5.137 5.137 0 0 1 17.3 2.459Z" fill="none" stroke="#000000" stroke-linecap="round" stroke-linejoin="round" stroke-width="1"></path><path d="M7.739 6.914A35.994 35.994 0 0 1 5.421 23.25H1.709A25.345 25.345 0 0 0 4.721 6.429" fill="none" stroke="#000000" stroke-linecap="round" stroke-linejoin="round" stroke-width="1"></path><path d="M16.469 6.914a36.007 36.007 0 0 0 2.318 16.336H22.5a25.352 25.352 0 0 1 -3.013 -16.821" fill="none" stroke="#000000" stroke-linecap="round" stroke-linejoin="round" stroke-width="1"></path><path d="m12.104 6.914 0 4.455" fill="none" stroke="#000000" stroke-linecap="round" stroke-linejoin="round" stroke-width="1"></path></svg>