<svg viewBox="0 0 24 24" xmlns="http://www.w3.org/2000/svg" id="Technorati-Logo--Streamline-Ultimate"><desc>Technorati Logo Streamline Icon: https://streamlinehq.com</desc><path d="M9.08 19.51a14.43 14.43 0 0 0 2.92 0.3 13.26 13.26 0 0 0 7.26 -2.05 8.32 8.32 0 0 0 4 -6.91 8.32 8.32 0 0 0 -4 -6.91A13.27 13.27 0 0 0 12 1.87a13.27 13.27 0 0 0 -7.25 2.06 8.32 8.32 0 0 0 -4 6.91 8.32 8.32 0 0 0 4 6.89L3 22.13ZM12 6.38c3.73 0 6.75 2 6.75 4.46s-3 4.46 -6.75 4.46 -6.75 -2 -6.75 -4.46S8.27 6.38 12 6.38Z" fill="none" stroke="#000000" stroke-linecap="round" stroke-linejoin="round" stroke-width="1"></path></svg>