<svg xmlns="http://www.w3.org/2000/svg" viewBox="0 0 24 24" id="Chair-4--Streamline-Ultimate"><desc>Chair 4 Streamline Icon: https://streamlinehq.com</desc><g><path d="M16.3 6.75H7.7a1.5 1.5 0 0 1 -1.49 -1.69l0.38 -3A1.49 1.49 0 0 1 8.07 0.75h7.86a1.49 1.49 0 0 1 1.48 1.31l0.38 3a1.5 1.5 0 0 1 -1.49 1.69Z" fill="none" stroke="#000000" stroke-linecap="round" stroke-linejoin="round" stroke-width="1"></path><path d="M12 17.5a11.62 11.62 0 0 1 -8.25 -3.08A1.71 1.71 0 0 1 6.18 12 8.31 8.31 0 0 0 12 14.07 8.31 8.31 0 0 0 17.82 12a1.71 1.71 0 0 1 2.43 2.42A11.62 11.62 0 0 1 12 17.5Z" fill="none" stroke="#000000" stroke-linecap="round" stroke-linejoin="round" stroke-width="1"></path><path d="m7.5 6.74 -0.78 5.74" fill="none" stroke="#000000" stroke-linecap="round" stroke-linejoin="round" stroke-width="1"></path><path d="m17.28 12.48 -0.78 -5.74" fill="none" stroke="#000000" stroke-linecap="round" stroke-linejoin="round" stroke-width="1"></path><path d="m18.75 23.25 -0.96 -7.06" fill="none" stroke="#000000" stroke-linecap="round" stroke-linejoin="round" stroke-width="1"></path><path d="m6.21 16.19 -0.96 7.06" fill="none" stroke="#000000" stroke-linecap="round" stroke-linejoin="round" stroke-width="1"></path></g></svg>