<svg xmlns="http://www.w3.org/2000/svg" viewBox="0 0 24 24" id="Chair-2--Streamline-Ultimate"><desc>Chair 2 Streamline Icon: https://streamlinehq.com</desc><g><path d="M4.62 13a0.86 0.86 0 0 0 -0.78 0.48 0.9 0.9 0 0 0 0.08 0.92l1.32 1.75a0.86 0.86 0 0 0 0.7 0.35h12.12a0.86 0.86 0 0 0 0.7 -0.35l1.31 -1.75a0.88 0.88 0 0 0 0.09 -0.92 0.86 0.86 0 0 0 -0.78 -0.48Z" fill="none" stroke="#000000" stroke-linecap="round" stroke-linejoin="round" stroke-width="1"></path><path d="M17.25 13 16.5 0.75l-9 0L6.75 13" fill="none" stroke="#000000" stroke-linecap="round" stroke-linejoin="round" stroke-width="1"></path><path d="m7.03 8.25 9.94 0" fill="none" stroke="#000000" stroke-linecap="round" stroke-linejoin="round" stroke-width="1"></path><path d="M20.25 3.75a1.5 1.5 0 0 0 0 -3H3.75a1.5 1.5 0 0 0 0 3" fill="none" stroke="#000000" stroke-linecap="round" stroke-linejoin="round" stroke-width="1"></path><path d="M3.75 23.25c0 0.14 2.8 -2 3 -6.75" fill="none" stroke="#000000" stroke-linecap="round" stroke-linejoin="round" stroke-width="1"></path><path d="M20.25 23.25c0 0.14 -2.8 -2 -3 -6.75" fill="none" stroke="#000000" stroke-linecap="round" stroke-linejoin="round" stroke-width="1"></path></g></svg>