<svg xmlns="http://www.w3.org/2000/svg" viewBox="0 0 24 24" id="Chair-1--Streamline-Ultimate"><desc>Chair 1 Streamline Icon: https://streamlinehq.com</desc><g><path d="m5.25 18 0 5.25" fill="none" stroke="#000000" stroke-linecap="round" stroke-linejoin="round" stroke-width="1"></path><path d="m18.75 18 0 5.25" fill="none" stroke="#000000" stroke-linecap="round" stroke-linejoin="round" stroke-width="1"></path><path d="M6.75 2.25h10.5s1.5 0 1.5 1.5v3s0 1.5 -1.5 1.5H6.75s-1.5 0 -1.5 -1.5v-3s0 -1.5 1.5 -1.5" fill="none" stroke="#000000" stroke-linecap="round" stroke-linejoin="round" stroke-width="1"></path><path d="M4.5 14.5h15s0.75 0 0.75 0.75v2s0 0.75 -0.75 0.75h-15s-0.75 0 -0.75 -0.75v-2s0 -0.75 0.75 -0.75" fill="none" stroke="#000000" stroke-linecap="round" stroke-linejoin="round" stroke-width="1"></path><path d="m6.75 8.25 0 6.25" fill="none" stroke="#000000" stroke-linecap="round" stroke-linejoin="round" stroke-width="1"></path><path d="m6.75 2.25 0 -1.5" fill="none" stroke="#000000" stroke-linecap="round" stroke-linejoin="round" stroke-width="1"></path><path d="m17.25 8.25 0 6.25" fill="none" stroke="#000000" stroke-linecap="round" stroke-linejoin="round" stroke-width="1"></path><path d="m17.25 2.25 0 -1.5" fill="none" stroke="#000000" stroke-linecap="round" stroke-linejoin="round" stroke-width="1"></path></g></svg>