<svg xmlns="http://www.w3.org/2000/svg" viewBox="0 0 24 24" id="Chair-Bar-1--Streamline-Ultimate"><desc>Chair Bar 1 Streamline Icon: https://streamlinehq.com</desc><g><path d="M6 5.26a2.25 2.25 0 0 1 0 -4.5h12a2.25 2.25 0 0 1 0 4.5Z" fill="none" stroke="#000000" stroke-linecap="round" stroke-linejoin="round" stroke-width="1"></path><path d="M17.14 23.24a1.58 1.58 0 0 1 -1.52 -1 3.83 3.83 0 0 0 -7.24 0 1.58 1.58 0 0 1 -1.52 1h0a1.58 1.58 0 0 1 -1.55 -2A7 7 0 0 1 12 16.5a7 7 0 0 1 6.69 4.7 1.58 1.58 0 0 1 -1.55 2Z" fill="none" stroke="#000000" stroke-linecap="round" stroke-linejoin="round" stroke-width="1"></path><path d="m12 5.26 0 11.24" fill="none" stroke="#000000" stroke-linecap="round" stroke-linejoin="round" stroke-width="1"></path><path d="m10.25 10.25 3.5 -2" fill="none" stroke="#000000" stroke-linecap="round" stroke-linejoin="round" stroke-width="1"></path><path d="m10.25 13.26 3.5 -2" fill="none" stroke="#000000" stroke-linecap="round" stroke-linejoin="round" stroke-width="1"></path></g></svg>