<svg xmlns="http://www.w3.org/2000/svg" viewBox="0 0 24 24" id="Modern-Music-Electric-Guitar--Streamline-Ultimate"><desc>Modern Music Electric Guitar Streamline Icon: https://streamlinehq.com</desc><g><path d="M19.68 6.66a1.06 1.06 0 0 1 -1.51 -0.06L16.6 5a1.12 1.12 0 0 1 -0.06 -1.55 1.24 1.24 0 0 1 0.6 -0.44l4.77 -1.46a1 1 0 0 1 1 0.29A1 1 0 0 1 23 3.26Z" fill="none" stroke="#000000" stroke-linecap="round" stroke-linejoin="round" stroke-width="1"></path><path d="M11 10.53A3 3 0 0 1 10.23 8a6.24 6.24 0 0 1 0.71 -2 1.18 1.18 0 0 0 -0.19 -1.39 1.11 1.11 0 0 0 -1.61 0A6.61 6.61 0 0 0 7.28 8c-0.21 1.05 -1 2.48 -2 2.49a4.56 4.56 0 0 0 -4.53 4.77 6.12 6.12 0 0 0 1.8 4.28l1.08 1.12a5.84 5.84 0 0 0 4.18 1.84 4.56 4.56 0 0 0 4.64 -4.6c0 -1.11 1.2 -1.8 2.23 -1.76a4 4 0 0 0 3.25 -1.26 1.12 1.12 0 0 0 -0.71 -1.88c-3.24 -0.27 -3.93 -0.16 -4.8 -1.06Z" fill="none" stroke="#000000" stroke-linecap="round" stroke-linejoin="round" stroke-width="1"></path><path d="m8.52 12.79 2.07 2.12" fill="none" stroke="#000000" stroke-linecap="round" stroke-linejoin="round" stroke-width="1"></path><path d="m11.89 11.42 5.49 -5.63" fill="none" stroke="#000000" stroke-linecap="round" stroke-linejoin="round" stroke-width="1"></path><path d="M4.92 17.06a1.48 1.52 0 1 0 2.96 0 1.48 1.52 0 1 0 -2.96 0" fill="none" stroke="#000000" stroke-linecap="round" stroke-linejoin="round" stroke-width="1"></path></g></svg>