<svg xmlns="http://www.w3.org/2000/svg" viewBox="0 0 24 24" id="Modern-Music-Bass-Guitar--Streamline-Ultimate"><desc>Modern Music Bass Guitar Streamline Icon: https://streamlinehq.com</desc><g><path d="M8.77 6.5 8.75 0.75l-4 1.46 0 4.3 4.02 -0.01z" fill="none" stroke="#000000" stroke-linecap="round" stroke-linejoin="round" stroke-width="1"></path><path d="m6.75 6.5 0 10.71" fill="none" stroke="#000000" stroke-linecap="round" stroke-linejoin="round" stroke-width="1"></path><path d="M6.23 11.21a1.51 1.51 0 0 0 -1.38 0.92l-4 9.55a1.08 1.08 0 0 0 0.06 1.06 1.1 1.1 0 0 0 1.34 0.43l4.47 -1.89 4.49 1.89a1.1 1.1 0 0 0 1.34 -0.43 1.11 1.11 0 0 0 0.06 -1.06l-4 -9.55a1.52 1.52 0 0 0 -1.38 -0.92Z" fill="none" stroke="#000000" stroke-linecap="round" stroke-linejoin="round" stroke-width="1"></path><path d="M16.25 23.24h5.05a2 2 0 0 0 1.95 -2V8.71a2 2 0 0 0 -2 -2l-9.55 0" fill="none" stroke="#000000" stroke-linecap="round" stroke-linejoin="round" stroke-width="1"></path><path d="m23.25 10.75 -11.52 0" fill="none" stroke="#000000" stroke-linecap="round" stroke-linejoin="round" stroke-width="1"></path><path d="m14 4.75 0 2.01" fill="none" stroke="#000000" stroke-linecap="round" stroke-linejoin="round" stroke-width="1"></path><path d="m18.5 4.75 0 2" fill="none" stroke="#000000" stroke-linecap="round" stroke-linejoin="round" stroke-width="1"></path><path d="M14 15a3 3 0 0 1 2.44 -1.27 3 3 0 1 1 -0.83 5.89" fill="none" stroke="#000000" stroke-linecap="round" stroke-linejoin="round" stroke-width="1"></path></g></svg>