<svg viewBox="0 0 24 24" xmlns="http://www.w3.org/2000/svg" id="Modern-Music-Mix-Touch--Streamline-Ultimate"><desc>Modern Music Mix Touch Streamline Icon: https://streamlinehq.com</desc><path d="m5.25 3.795 0 13.455" fill="none" stroke="#000000" stroke-linecap="round" stroke-linejoin="round" stroke-width="1"></path><path d="m9.75 3.75 0 6" fill="none" stroke="#000000" stroke-linecap="round" stroke-linejoin="round" stroke-width="1"></path><path d="m0.75 8.25 10.5 0" fill="none" stroke="#000000" stroke-linecap="round" stroke-linejoin="round" stroke-width="1"></path><path d="m9 12.75 -8.25 0" fill="none" stroke="#000000" stroke-linecap="round" stroke-linejoin="round" stroke-width="1"></path><path d="M6.75 17.25h-4.5a1.5 1.5 0 0 1 -1.5 -1.5v-11a0.989 0.989 0 0 1 0.975 -1H14.25" fill="none" stroke="#000000" stroke-linecap="round" stroke-linejoin="round" stroke-width="1"></path><path d="M14.216 8.272a1.506 1.478 0 1 0 3.012 0 1.506 1.478 0 1 0 -3.012 0Z" fill="none" stroke="#000000" stroke-linecap="round" stroke-linejoin="round" stroke-width="1"></path><path d="M20.238 6.499a1.506 1.478 0 1 0 3.012 0 1.506 1.478 0 1 0 -3.012 0Z" fill="none" stroke="#000000" stroke-linecap="round" stroke-linejoin="round" stroke-width="1"></path><path d="M17.228 8.272V2.917a1.185 1.185 0 0 1 0.823 -1.117l3.614 -0.989a1.224 1.224 0 0 1 1.085 0.162 1.175 1.175 0 0 1 0.5 0.959V6.5" fill="none" stroke="#000000" stroke-linecap="round" stroke-linejoin="round" stroke-width="1"></path><path d="M21.727 23.25a3.906 3.906 0 0 0 -3.913 -3.75H15.75v-5.625a1.875 1.875 0 0 0 -3.75 0v7.473l-1.3 -1.3A1.875 1.875 0 0 0 8.049 22.7l0.549 0.549" fill="none" stroke="#000000" stroke-linecap="round" stroke-linejoin="round" stroke-width="1"></path></svg>