<svg xmlns="http://www.w3.org/2000/svg" viewBox="0 0 24 24" id="Decoration-Cabin--Streamline-Ultimate"><desc>Decoration Cabin Streamline Icon: https://streamlinehq.com</desc><g><path d="M20.25 13.9v-2.65a6 6 0 0 0 -4.5 -5.81V4.5a3.75 3.75 0 0 0 -7.5 0v0.94a6 6 0 0 0 -4.5 5.81v2.65a10.33 10.33 0 0 1 -1.5 5.35h19.5a10.33 10.33 0 0 1 -1.5 -5.35Z" fill="none" stroke="#000000" stroke-linecap="round" stroke-linejoin="round" stroke-width="1"></path><path d="M2.25 19.25h19.5v4H2.25Z" fill="none" stroke="#000000" stroke-linecap="round" stroke-linejoin="round" stroke-width="1"></path><path d="m0.75 19.25 22.5 0" fill="none" stroke="#000000" stroke-linecap="round" stroke-linejoin="round" stroke-width="1"></path><path d="M17.25 19.25H6.75v-8a3 3 0 0 1 3 -3h4.5a3 3 0 0 1 3 3Z" fill="none" stroke="#000000" stroke-linecap="round" stroke-linejoin="round" stroke-width="1"></path><path d="m12 8.25 0 11" fill="none" stroke="#000000" stroke-linecap="round" stroke-linejoin="round" stroke-width="1"></path></g></svg>