<svg xmlns="http://www.w3.org/2000/svg" fill="none" viewBox="0 0 24 24" id="Decoration-Hanging-Flowers--Streamline-Ultimate"><desc>Decoration Hanging Flowers Streamline Icon: https://streamlinehq.com</desc><path stroke="#000000" stroke-linecap="round" stroke-linejoin="round" d="M9.92798 11.25c0 0.89 -0.26392 1.76 -0.75839 2.5001 -0.49446 0.74 -1.19727 1.3168 -2.01953 1.6574 -0.82227 0.3406 -1.72707 0.4297 -2.59999 0.256 -0.87291 -0.1736 -1.67473 -0.6022 -2.30407 -1.2315 -0.62934 -0.6294 -1.05792 -1.4312 -1.23155 -2.3041 -0.173637 -0.8729 -0.084522 -1.7777 0.25607 -2.59998 0.3406 -0.82226 0.91737 -1.52507 1.65739 -2.01953C3.66794 7.01392 4.53796 6.75 5.42798 6.75" stroke-width="1"></path><path stroke="#000000" stroke-linecap="round" stroke-linejoin="round" d="M5.42798 6.75v-6" stroke-width="1"></path><path stroke="#000000" stroke-linecap="round" stroke-linejoin="round" d="M16.678 20.2499s5.25 -0.75 5.25 3" stroke-width="1"></path><path stroke="#000000" stroke-linecap="round" stroke-linejoin="round" d="M6.92798 10.5c0 -0.99456 0.39509 -1.94839 1.09835 -2.65165S9.68342 6.75 10.678 6.75c0.9945 0 1.9484 0.39509 2.6516 1.09835 0.7033 0.70326 1.0984 1.65709 1.0984 2.65165V18c0 0.5967 0.237 1.169 0.659 1.591 0.4219 0.4219 0.9942 0.659 1.591 0.659 0.5967 0 1.169 -0.2371 1.591 -0.659 0.4219 -0.422 0.659 -0.9943 0.659 -1.591v-2.25" stroke-width="1"></path><path stroke="#000000" d="M21.178 13.875c-0.2071 0 -0.375 -0.1679 -0.375 -0.375s0.1679 -0.375 0.375 -0.375" stroke-width="1"></path><path stroke="#000000" d="M21.178 13.875c0.2071 0 0.375 -0.1679 0.375 -0.375s-0.1679 -0.375 -0.375 -0.375" stroke-width="1"></path><path stroke="#000000" d="M22.675 18.375c-0.2071 0 -0.375 -0.1679 -0.375 -0.375s0.1679 -0.375 0.375 -0.375" stroke-width="1"></path><path stroke="#000000" d="M22.675 18.375c0.2071 0 0.375 -0.1679 0.375 -0.375s-0.1679 -0.375 -0.375 -0.375" stroke-width="1"></path><g><path stroke="#000000" d="M12.175 21.375c-0.2071 0 -0.375 -0.1679 -0.375 -0.375s0.1679 -0.375 0.375 -0.375" stroke-width="1"></path><path stroke="#000000" d="M12.175 21.375c0.2071 0 0.375 -0.1679 0.375 -0.375s-0.1679 -0.375 -0.375 -0.375" stroke-width="1"></path></g></svg>