<svg xmlns="http://www.w3.org/2000/svg" fill="none" viewBox="0 0 24 24" id="Search-Bar--Streamline-Ultimate"><desc>Search Bar Streamline Icon: https://streamlinehq.com</desc><path stroke="#000000" stroke-linecap="round" stroke-linejoin="round" d="M21.75 6.75v-1.5c0 -0.39782 -0.158 -0.77936 -0.4393 -1.06066 -0.2813 -0.2813 -0.6629 -0.43934 -1.0607 -0.43934h-18c-0.39782 0 -0.77936 0.15804 -1.06066 0.43934C0.908035 4.47064 0.75 4.85218 0.75 5.25v6c0 0.3978 0.158035 0.7794 0.43934 1.0607 0.2813 0.2813 0.66284 0.4393 1.06066 0.4393H7.5" stroke-width="1"></path><path stroke="#000000" d="M7.875 9.375c-0.20711 0 -0.375 -0.16789 -0.375 -0.375s0.16789 -0.375 0.375 -0.375" stroke-width="1"></path><path stroke="#000000" d="M7.875 9.375c0.20711 0 0.375 -0.16789 0.375 -0.375s-0.16789 -0.375 -0.375 -0.375" stroke-width="1"></path><path stroke="#000000" d="M4.125 9.375c-0.20711 0 -0.375 -0.16789 -0.375 -0.375s0.16789 -0.375 0.375 -0.375" stroke-width="1"></path><path stroke="#000000" d="M4.125 9.375c0.20711 0 0.375 -0.16789 0.375 -0.375s-0.16789 -0.375 -0.375 -0.375" stroke-width="1"></path><path stroke="#000000" stroke-linecap="round" stroke-linejoin="round" d="M15.75 18c2.8995 0 5.25 -2.3505 5.25 -5.25 0 -2.89949 -2.3505 -5.25 -5.25 -5.25s-5.25 2.35051 -5.25 5.25c0 2.8995 2.3505 5.25 5.25 5.25Z" stroke-width="1"></path><path stroke="#000000" stroke-linecap="round" stroke-linejoin="round" d="m23.2499 20.25 -3.788 -3.788" stroke-width="1"></path></svg>