<svg xmlns="http://www.w3.org/2000/svg" viewBox="0 0 24 24" id="Bench--Streamline-Ultimate"><desc>Bench Streamline Icon: https://streamlinehq.com</desc><g><path d="M2.75 2.88h18.5a0.5 0.5 0 0 1 0.5 0.5v3l0 0H2.25l0 0v-3a0.5 0.5 0 0 1 0.5 -0.5Z" fill="none" stroke="#000000" stroke-linecap="round" stroke-linejoin="round" stroke-width="1"></path><path d="M2.25 6.38h19.5l0 0v3a0.5 0.5 0 0 1 -0.5 0.5H2.75a0.5 0.5 0 0 1 -0.5 -0.5v-3l0 0Z" fill="none" stroke="#000000" stroke-linecap="round" stroke-linejoin="round" stroke-width="1"></path><path d="M23.25 16.12a2 2 0 0 1 -2 2H2.75a2 2 0 0 1 0 -4h18.5a2 2 0 0 1 2 2Z" fill="none" stroke="#000000" stroke-linecap="round" stroke-linejoin="round" stroke-width="1"></path><path d="m5.25 9.88 0 4.24" fill="none" stroke="#000000" stroke-linecap="round" stroke-linejoin="round" stroke-width="1"></path><path d="m18.75 9.88 0 4.24" fill="none" stroke="#000000" stroke-linecap="round" stroke-linejoin="round" stroke-width="1"></path><path d="m5.25 1.38 0 1.5" fill="none" stroke="#000000" stroke-linecap="round" stroke-linejoin="round" stroke-width="1"></path><path d="m18.75 1.38 0 1.5" fill="none" stroke="#000000" stroke-linecap="round" stroke-linejoin="round" stroke-width="1"></path><path d="M3.5 18.12 2 22.62" fill="none" stroke="#000000" stroke-linecap="round" stroke-linejoin="round" stroke-width="1"></path><path d="m20.5 18.12 1.5 4.5" fill="none" stroke="#000000" stroke-linecap="round" stroke-linejoin="round" stroke-width="1"></path></g></svg>