<svg viewBox="0 0 24 24" xmlns="http://www.w3.org/2000/svg" id="Sofa-Double-Modern--Streamline-Ultimate"><desc>Sofa Double Modern Streamline Icon: https://streamlinehq.com</desc><path d="M16.5 19.875h-9a6.757 6.757 0 0 1 -6.75 -6.75 2.25 2.25 0 0 1 4.5 0 2.252 2.252 0 0 0 2.25 2.25h9a2.252 2.252 0 0 0 2.25 -2.25 2.25 2.25 0 0 1 4.5 0 6.757 6.757 0 0 1 -6.75 6.75Z" fill="none" stroke="#000000" stroke-linecap="round" stroke-linejoin="round" stroke-width="1"></path><path d="m3.75 21.375 1.036 -2.071" fill="none" stroke="#000000" stroke-linecap="round" stroke-linejoin="round" stroke-width="1"></path><path d="m20.25 21.375 -1.036 -2.071" fill="none" stroke="#000000" stroke-linecap="round" stroke-linejoin="round" stroke-width="1"></path><path d="m19.944 11.139 -0.8 -5.97a3 3 0 0 0 -2.966 -2.544H7.824a3 3 0 0 0 -2.965 2.544l-0.8 5.97" fill="none" stroke="#000000" stroke-linecap="round" stroke-linejoin="round" stroke-width="1"></path><path d="M15.75 12.375v-1.5a1.5 1.5 0 0 0 -1.5 -1.5h-4.5a1.5 1.5 0 0 0 -1.5 1.5v1.5" fill="none" stroke="#000000" stroke-linecap="round" stroke-linejoin="round" stroke-width="1"></path></svg>