<svg viewBox="0 0 24 24" xmlns="http://www.w3.org/2000/svg" id="Sofa-Double--Streamline-Ultimate"><desc>Sofa Double Streamline Icon: https://streamlinehq.com</desc><path d="M21.75 9.375a1.5 1.5 0 0 0 -1.5 1.5v1.5a0.75 0.75 0 0 1 -0.75 0.75h-15a0.75 0.75 0 0 1 -0.75 -0.75v-1.5a1.5 1.5 0 0 0 -3 0v3a3 3 0 0 0 3 3h16.5a3 3 0 0 0 3 -3v-3a1.5 1.5 0 0 0 -1.5 -1.5Z" fill="none" stroke="#000000" stroke-linecap="round" stroke-linejoin="round" stroke-width="1"></path><path d="m3.75 16.875 0 2.25" fill="none" stroke="#000000" stroke-linecap="round" stroke-linejoin="round" stroke-width="1"></path><path d="m20.25 16.875 0 2.25" fill="none" stroke="#000000" stroke-linecap="round" stroke-linejoin="round" stroke-width="1"></path><path d="M2.25 9.375a4.5 4.5 0 0 1 4.5 -4.5h10.5a4.5 4.5 0 0 1 4.5 4.5" fill="none" stroke="#000000" stroke-linecap="round" stroke-linejoin="round" stroke-width="1"></path><path d="m12 13.125 0 -8.25" fill="none" stroke="#000000" stroke-linecap="round" stroke-linejoin="round" stroke-width="1"></path></svg>