<svg xmlns="http://www.w3.org/2000/svg" fill="none" viewBox="0 0 24 24" id="Composition-16-To-9--Streamline-Ultimate"><desc>Composition 16 To 9 Streamline Icon: https://streamlinehq.com</desc><path stroke="#000000" stroke-linecap="round" stroke-linejoin="round" d="M20.25 5H3.75c-1.65685 0 -3 1.34315 -3 3v8c0 1.6569 1.34315 3 3 3h16.5c1.6569 0 3 -1.3431 3 -3V8c0 -1.65685 -1.3431 -3 -3 -3Z" stroke-width="1"></path><path stroke="#000000" d="M14.255 14.6301c-0.2071 0 -0.375 -0.1679 -0.375 -0.375s0.1679 -0.375 0.375 -0.375" stroke-width="1"></path><path stroke="#000000" d="M14.255 14.6301c0.2071 0 0.375 -0.1679 0.375 -0.375s-0.1679 -0.375 -0.375 -0.375" stroke-width="1"></path><path stroke="#000000" d="M14.255 10.1201c-0.2071 0 -0.375 -0.16788 -0.375 -0.37498 0 -0.20711 0.1679 -0.375 0.375 -0.375" stroke-width="1"></path><path stroke="#000000" d="M14.255 10.1201c0.2071 0 0.375 -0.16788 0.375 -0.37498 0 -0.20711 -0.1679 -0.375 -0.375 -0.375" stroke-width="1"></path><path stroke="#000000" stroke-linecap="round" stroke-linejoin="round" d="M10.5 9c-0.59674 0 -1.16903 0.23705 -1.59099 0.65901C8.48705 10.081 8.25 10.6533 8.25 11.25v2.25" stroke-width="1"></path><path stroke="#000000" stroke-linecap="round" stroke-linejoin="round" d="M9.75 15c0.8284 0 1.5 -0.6716 1.5 -1.5s-0.6716 -1.5 -1.5 -1.5c-0.82843 0 -1.5 0.6716 -1.5 1.5s0.67157 1.5 1.5 1.5Z" stroke-width="1"></path><path stroke="#000000" stroke-linecap="round" stroke-linejoin="round" d="M3.75 9h0.75c0.19811 0.00259 0.38737 0.08244 0.52747 0.22253 0.14009 0.1401 0.21994 0.32936 0.22253 0.52747V15" stroke-width="1"></path><path stroke="#000000" stroke-linecap="round" stroke-linejoin="round" d="M3.75 15h3" stroke-width="1"></path><g><path stroke="#000000" stroke-linecap="round" stroke-linejoin="round" d="M20.25 10.5v2.25c0 0.5967 -0.2371 1.169 -0.659 1.591 -0.422 0.4219 -0.9943 0.659 -1.591 0.659v0" stroke-width="1"></path><path stroke="#000000" stroke-linecap="round" stroke-linejoin="round" d="M18.75 12c0.8284 0 1.5 -0.6716 1.5 -1.5 0 -0.82843 -0.6716 -1.5 -1.5 -1.5s-1.5 0.67157 -1.5 1.5c0 0.8284 0.6716 1.5 1.5 1.5Z" stroke-width="1"></path></g></svg>