<svg viewBox="0 0 24 24" xmlns="http://www.w3.org/2000/svg" id="Composition-Horizontal--Streamline-Ultimate"><desc>Composition Horizontal Streamline Icon: https://streamlinehq.com</desc><path d="M0.75 4.909v14.179a0.743 0.743 0 0 0 1.009 0.7A28.929 28.929 0 0 1 12 17.97a28.929 28.929 0 0 1 10.241 1.82 0.743 0.743 0 0 0 1.009 -0.7V4.909a0.748 0.748 0 0 0 -1.042 -0.69A26.726 26.726 0 0 1 12 5.97 26.726 26.726 0 0 1 1.792 4.219a0.748 0.748 0 0 0 -1.042 0.69Z" fill="none" stroke="#000000" stroke-linecap="round" stroke-linejoin="round" stroke-width="1"></path></svg>