<svg xmlns="http://www.w3.org/2000/svg" viewBox="0 0 24 24" id="Composition-Window-Man-1--Streamline-Ultimate"><desc>Composition Window Man 1 Streamline Icon: https://streamlinehq.com</desc><defs></defs><title>composition-window-man-1</title><path d="M6 0.75h12s3 0 3 3v16.5s0 3 -3 3H6s-3 0 -3 -3V3.75s0 -3 3 -3" fill="none" stroke="#000000" stroke-linecap="round" stroke-linejoin="round" stroke-width="1"></path><path d="M12 10.5h0a3 3 0 0 0 -3 3v3h1.5v3.75h3V16.5H15v-3a3 3 0 0 0 -3 -3Z" fill="none" stroke="#000000" stroke-linecap="round" stroke-linejoin="round" stroke-width="1"></path><path d="M9.75 6a2.25 2.25 0 1 0 4.5 0 2.25 2.25 0 1 0 -4.5 0" fill="none" stroke="#000000" stroke-linecap="round" stroke-linejoin="round" stroke-width="1"></path></svg>