<svg xmlns="http://www.w3.org/2000/svg" fill="none" viewBox="0 0 24 24" id="Composition-4-To-3--Streamline-Ultimate"><desc>Composition 4 To 3 Streamline Icon: https://streamlinehq.com</desc><path stroke="#000000" stroke-linecap="round" stroke-linejoin="round" d="M20.25 5.25H3.75c-1.65685 0 -3 1.34315 -3 3v7.5c0 1.6569 1.34315 3 3 3h16.5c1.6569 0 3 -1.3431 3 -3v-7.5c0 -1.65685 -1.3431 -3 -3 -3Z" stroke-width="1"></path><path stroke="#000000" stroke-linecap="round" stroke-linejoin="round" d="M15.75 9.75c0 -0.39782 0.158 -0.77936 0.4393 -1.06066 0.2813 -0.2813 0.6629 -0.43934 1.0607 -0.43934l1.135 0.005c0.4891 0.0123 0.954 0.21552 1.2953 0.56619 0.3412 0.35066 0.5317 0.82093 0.5306 1.31021 -0.001 0.4893 -0.1935 0.9587 -0.5362 1.308 -0.3428 0.3492 -0.8085 0.5504 -1.2977 0.5606 0.4892 0.0102 0.9549 0.2114 1.2977 0.5606 0.3427 0.3493 0.5352 0.8187 0.5362 1.308 0.0011 0.4893 -0.1894 0.9595 -0.5306 1.3102 -0.3413 0.3507 -0.8062 0.5539 -1.2953 0.5662l-1.135 0.005c-0.3978 0 -0.7794 -0.158 -1.0607 -0.4393s-0.4393 -0.6629 -0.4393 -1.0607" stroke-width="1"></path><path stroke="#000000" stroke-linecap="round" stroke-linejoin="round" d="M8.25 15.7351v-1.5" stroke-width="1"></path><path stroke="#000000" stroke-linecap="round" stroke-linejoin="round" d="M8.25004 14.235V8.25c-1.16493 0.57495 -2.17783 1.41656 -2.95643 2.4565 -0.77859 1.0399 -1.30092 2.2488 -1.52457 3.5285h4.481Z" stroke-width="1"></path><path stroke="#000000" d="M12 14.625c-0.2071 0 -0.375 -0.1679 -0.375 -0.375s0.1679 -0.375 0.375 -0.375" stroke-width="1"></path><path stroke="#000000" d="M12 14.625c0.2071 0 0.375 -0.1679 0.375 -0.375s-0.1679 -0.375 -0.375 -0.375" stroke-width="1"></path><g><path stroke="#000000" d="M12 10.125c-0.2071 0 -0.375 -0.16789 -0.375 -0.375s0.1679 -0.375 0.375 -0.375" stroke-width="1"></path><path stroke="#000000" d="M12 10.125c0.2071 0 0.375 -0.16789 0.375 -0.375s-0.1679 -0.375 -0.375 -0.375" stroke-width="1"></path></g></svg>