<svg xmlns="http://www.w3.org/2000/svg" viewBox="0 0 24 24" id="Business-Climb-Top--Streamline-Ultimate"><desc>Business Climb Top Streamline Icon: https://streamlinehq.com</desc><g><path d="m6.25 23.25 7.61 -12.08a1.12 1.12 0 0 1 1.78 0l7.61 12.08Z" fill="none" stroke="#000000" stroke-linecap="round" stroke-linejoin="round" stroke-width="1"></path><path d="m6.25 23.25 -5.5 0.01 6 -9 2.85 3.68" fill="none" stroke="#000000" stroke-linecap="round" stroke-linejoin="round" stroke-width="1"></path><path d="m11.31 15.22 3.41 2.29 3.44 -2.35" fill="none" stroke="#000000" stroke-linecap="round" stroke-linejoin="round" stroke-width="1"></path><path d="m14.75 10.73 0 -9.99" fill="none" stroke="#000000" stroke-linecap="round" stroke-linejoin="round" stroke-width="1"></path><path d="M14.75 0.74h7.19a0.53 0.53 0 0 1 0.47 0.3 0.55 0.55 0 0 1 -0.06 0.55L21.21 3a0.53 0.53 0 0 0 0 0.65l1.14 1.45a0.54 0.54 0 0 1 0.06 0.55 0.53 0.53 0 0 1 -0.47 0.3h-7.19" fill="none" stroke="#000000" stroke-linecap="round" stroke-linejoin="round" stroke-width="1"></path></g></svg>