<svg viewBox="0 0 24 24" xmlns="http://www.w3.org/2000/svg" id="Business-Climb-Top-1--Streamline-Ultimate"><desc>Business Climb Top 1 Streamline Icon: https://streamlinehq.com</desc><path d="m4.25 23.229 8.5 -13.5a1.261 1.261 0 0 1 2 0l8.5 13.5Z" fill="none" stroke="#000000" stroke-linecap="round" stroke-linejoin="round" stroke-width="1"></path><path d="m4.25 23.229 -3.5 0 3.75 -6.75 2.175 2.9" fill="none" stroke="#000000" stroke-linecap="round" stroke-linejoin="round" stroke-width="1"></path><path d="m8.711 16.144 2.337 1.991a1 1 0 0 0 1.353 -0.056l0.642 -0.642a1 1 0 0 1 1.414 0l0.642 0.642a1 1 0 0 0 1.353 0.056l2.353 -1.966" fill="none" stroke="#000000" stroke-linecap="round" stroke-linejoin="round" stroke-width="1"></path><path d="m13.5 9.267 0 -8.538" fill="none" stroke="#000000" stroke-linecap="round" stroke-linejoin="round" stroke-width="1"></path><path d="m13.5 0.729 3.75 0 0 1.5 4.5 0 -1.5 2.25 1.5 2.25 -4.5 0 0 -0.75 -3.75 0" fill="none" stroke="#000000" stroke-linecap="round" stroke-linejoin="round" stroke-width="1"></path></svg>