<svg xmlns="http://www.w3.org/2000/svg" viewBox="0 0 24 24" id="Graph-Statistics-Coffee--Streamline-Ultimate"><desc>Graph Statistics Coffee Streamline Icon: https://streamlinehq.com</desc><g><path d="M15.75 23.25c-2.43 0 -4.5 -1.32 -4.5 -3.75v-3.75h9v3.75c0 0.79 -0.61 3.75 -4.5 3.75Z" fill="none" stroke="#000000" stroke-linecap="round" stroke-linejoin="round" stroke-width="1"></path><path d="m7.75 12.75 -1 3.5" fill="none" stroke="#000000" stroke-linecap="round" stroke-linejoin="round" stroke-width="1"></path><g><path d="M11.25 12.75h-9a1.5 1.5 0 0 1 -1.5 -1.5v-9a1.5 1.5 0 0 1 1.5 -1.5H18a1.5 1.5 0 0 1 1.5 1.5v5.27" fill="none" stroke="#000000" stroke-linecap="round" stroke-linejoin="round" stroke-width="1"></path><path d="m5.25 16.25 3 0" fill="none" stroke="#000000" stroke-linecap="round" stroke-linejoin="round" stroke-width="1"></path><path d="m3.75 9.25 7.5 0" fill="none" stroke="#000000" stroke-linecap="round" stroke-linejoin="round" stroke-width="1"></path></g><path d="M6 9.25 6 6" fill="none" stroke="#000000" stroke-linecap="round" stroke-linejoin="round" stroke-width="1"></path><path d="m9.75 9.25 0 -5.5" fill="none" stroke="#000000" stroke-linecap="round" stroke-linejoin="round" stroke-width="1"></path><path d="M15.69 7.29c-2.19 2.73 2.31 3.23 0 5.43" fill="none" stroke="#000000" stroke-linecap="round" stroke-linejoin="round" stroke-width="1"></path><path d="M20.25 16.5H21a2.25 2.25 0 0 1 0 4.5h-1.13" fill="none" stroke="#000000" stroke-linecap="round" stroke-linejoin="round" stroke-width="1"></path></g></svg>