<svg viewBox="0 0 24 24" xmlns="http://www.w3.org/2000/svg" id="Strategy-Split--Streamline-Ultimate"><desc>Strategy Split Streamline Icon: https://streamlinehq.com</desc><path d="M9.651 6a0.553 0.553 0 0 1 -0.476 -0.834L11.524 1a0.553 0.553 0 0 1 0.952 0l2.35 4.165a0.554 0.554 0 0 1 -0.477 0.835Z" fill="none" stroke="#000000" stroke-linecap="round" stroke-linejoin="round" stroke-width="1"></path><path d="M6.412 10.94a0.555 0.555 0 0 0 -0.589 -0.761l-4.6 0.647a0.553 0.553 0 0 0 -0.365 0.882l2.792 3.707a0.555 0.555 0 0 0 0.955 -0.122l0.9 -2.176Z" fill="none" stroke="#000000" stroke-linecap="round" stroke-linejoin="round" stroke-width="1"></path><path d="M5.38 13.432c4.149 1.3 6.62 3.8 6.62 8.519v1.3" fill="none" stroke="#000000" stroke-linecap="round" stroke-linejoin="round" stroke-width="1"></path><path d="M17.588 10.94a0.555 0.555 0 0 1 0.589 -0.761l4.6 0.647a0.553 0.553 0 0 1 0.365 0.882l-2.792 3.707a0.555 0.555 0 0 1 -0.955 -0.122l-0.9 -2.176Z" fill="none" stroke="#000000" stroke-linecap="round" stroke-linejoin="round" stroke-width="1"></path><path d="M18.62 13.432c-4.149 1.3 -6.62 3.8 -6.62 8.519v1.3" fill="none" stroke="#000000" stroke-linecap="round" stroke-linejoin="round" stroke-width="1"></path><path d="m12 6 0 15.951" fill="none" stroke="#000000" stroke-linecap="round" stroke-linejoin="round" stroke-width="1"></path></svg>