<svg viewBox="0 0 24 24" xmlns="http://www.w3.org/2000/svg" id="Target-Miss--Streamline-Ultimate"><desc>Target Miss Streamline Icon: https://streamlinehq.com</desc><path d="M8.261 16.49a5.21 5.21 0 0 1 0.86 -9.979 5.337 5.337 0 0 1 2.044 0.009" fill="none" stroke="#000000" stroke-linecap="round" stroke-linejoin="round" stroke-width="1"></path><path d="M8.222 20.807a9.377 9.377 0 0 1 0.651 -18.476 9.553 9.553 0 0 1 2.748 0.038" fill="none" stroke="#000000" stroke-linecap="round" stroke-linejoin="round" stroke-width="1"></path><path d="M11.323 18.2a6 6 0 1 1 4.977 4.977 6.006 6.006 0 0 1 -4.977 -4.977Z" fill="none" stroke="#000000" stroke-linecap="round" stroke-linejoin="round" stroke-width="1"></path><path d="M19.5 15 15 19.5" fill="none" stroke="#000000" stroke-linecap="round" stroke-linejoin="round" stroke-width="1"></path><path d="m15 15 4.5 4.5" fill="none" stroke="#000000" stroke-linecap="round" stroke-linejoin="round" stroke-width="1"></path><path d="m9.75 11.859 4.167 -4.167" fill="none" stroke="#000000" stroke-linecap="round" stroke-linejoin="round" stroke-width="1"></path><path d="m13.917 7.692 0.568 -3.75L17.733 0.75l0.502 2.624 2.624 0.502 -3.192 3.248 -3.75 0.568z" fill="none" stroke="#000000" stroke-linecap="round" stroke-linejoin="round" stroke-width="1"></path></svg>