<svg xmlns="http://www.w3.org/2000/svg" fill="none" viewBox="0 0 24 24" id="Target-Center-Phone--Streamline-Ultimate"><desc>Target Center Phone Streamline Icon: https://streamlinehq.com</desc><path stroke="#000000" stroke-linecap="round" stroke-linejoin="round" d="M17 15v5.25c0 0.7956 -0.3161 1.5587 -0.8787 2.1213 -0.5626 0.5626 -1.3257 0.8787 -2.1213 0.8787H6.5c-0.79565 0 -1.55871 -0.3161 -2.12132 -0.8787C3.81607 21.8087 3.5 21.0456 3.5 20.25V3.75c0 -0.79565 0.31607 -1.55871 0.87868 -2.12132C4.94129 1.06607 5.70435 0.75 6.5 0.75h6.75" stroke-width="1"></path><path stroke="#000000" stroke-linecap="round" stroke-linejoin="round" d="M3.5 17.229H17" stroke-width="1"></path><path stroke="#000000" d="M10.25 20.604c-0.2071 0 -0.375 -0.1679 -0.375 -0.375s0.1679 -0.375 0.375 -0.375" stroke-width="1"></path><path stroke="#000000" d="M10.25 20.604c0.2071 0 0.375 -0.1679 0.375 -0.375s-0.1679 -0.375 -0.375 -0.375" stroke-width="1"></path><g><path stroke="#000000" stroke-linecap="round" stroke-linejoin="round" d="M11.123 10.175 15.5 5.798" stroke-width="1"></path><path stroke="#000000" stroke-linecap="round" stroke-linejoin="round" d="m15.5 5.798 0.413 -2.727L18.275 0.75l0.365 1.908 1.909 0.365 -2.322 2.362 -2.727 0.413Z" stroke-width="1"></path><path stroke="#000000" stroke-linecap="round" stroke-linejoin="round" d="M14.8719 10.298c0 0.7417 -0.2199 1.4667 -0.6319 2.0834 -0.4121 0.6167 -0.9978 1.0973 -1.683 1.3812 -0.6852 0.2838 -1.4392 0.358 -2.1666 0.2133 -0.72747 -0.1446 -1.39565 -0.5018 -1.9201 -1.0262 -0.52445 -0.5245 -0.8816 -1.1927 -1.02629 -1.9201 -0.1447 -0.7274 -0.07044 -1.48144 0.21339 -2.16666 0.28383 -0.68522 0.76448 -1.27089 1.38116 -1.68295 0.61669 -0.41205 1.34174 -0.63199 2.08334 -0.63199" stroke-width="1"></path></g></svg>