<svg xmlns="http://www.w3.org/2000/svg" viewBox="0 0 24 24" id="Internet-Connection-Wifi-Good-Thumbs-Up--Streamline-Ultimate"><desc>Internet Connection Wifi Good Thumbs Up Streamline Icon: https://streamlinehq.com</desc><defs></defs><path d="M4.725 22.4a3.576 3.576 0 0 1 0.909 0.13l2.12 0.588a3.581 3.581 0 0 0 0.961 0.131h2.849a3.464 3.464 0 0 0 3.483 -3.062l0.175 -2.888a2.561 2.561 0 0 0 -1.985 -2.6l-0.849 -0.181a0.854 0.854 0 0 1 -0.663 -0.824v-1.922a1.313 1.313 0 0 0 -2.625 0v0.88A4.314 4.314 0 0 1 4.725 16.9Z" fill="none" stroke="#000000" stroke-linecap="round" stroke-linejoin="round" stroke-width="1"></path><path d="m0.775 15.75 3.95 0 0 7.5 -3.95 0" fill="none" stroke="#000000" stroke-linecap="round" stroke-linejoin="round" stroke-width="1"></path><path d="M15.975 9.5a1.25 1.25 0 1 0 2.5 0 1.25 1.25 0 1 0 -2.5 0" fill="none" stroke="#000000" stroke-linecap="round" stroke-linejoin="round" stroke-width="1"></path><path d="M23.225 2.873a9.539 9.539 0 0 0 -12 0" fill="none" stroke="#000000" stroke-linecap="round" stroke-linejoin="round" stroke-width="1"></path><path d="M13.725 5.988a5.566 5.566 0 0 1 7 0" fill="none" stroke="#000000" stroke-linecap="round" stroke-linejoin="round" stroke-width="1"></path></svg>