<svg viewBox="0 0 24 24" xmlns="http://www.w3.org/2000/svg" id="Wifi-Off--Streamline-Ultimate"><desc>Wifi Off Streamline Icon: https://streamlinehq.com</desc><path d="M0.75 23.25 23.25 0.75" fill="none" stroke="#000000" stroke-linecap="round" stroke-linejoin="round" stroke-width="1"></path><path d="M9 20.25a3 3 0 1 0 6 0 3 3 0 1 0 -6 0Z" fill="none" stroke="#000000" stroke-linecap="round" stroke-linejoin="round" stroke-width="1"></path><path d="M17.3 14.947a7.477 7.477 0 0 0 -2.253 -1.547" fill="none" stroke="#000000" stroke-linecap="round" stroke-linejoin="round" stroke-width="1"></path><path d="M11.251 8.273a11.95 11.95 0 0 0 -7.736 3.492" fill="none" stroke="#000000" stroke-linecap="round" stroke-linejoin="round" stroke-width="1"></path><path d="M20.485 11.765a12.017 12.017 0 0 0 -2.53 -1.936" fill="none" stroke="#000000" stroke-linecap="round" stroke-linejoin="round" stroke-width="1"></path><path d="M14.952 4.016A16.484 16.484 0 0 0 0.75 8.181" fill="none" stroke="#000000" stroke-linecap="round" stroke-linejoin="round" stroke-width="1"></path><path d="M23.25 8.181A16.464 16.464 0 0 0 20.812 6.3" fill="none" stroke="#000000" stroke-linecap="round" stroke-linejoin="round" stroke-width="1"></path></svg>