<svg xmlns="http://www.w3.org/2000/svg" fill="none" viewBox="0 0 24 24" id="Wifi-Unlink-Disconnected--Streamline-Ultimate"><desc>Wifi Unlink Disconnected Streamline Icon: https://streamlinehq.com</desc><path stroke="#000000" stroke-linecap="round" stroke-linejoin="round" d="M10.8377 18.3347c-1.46232 0 -2.64776 -1.1855 -2.64776 -2.6478 0 -1.4623 1.18544 -2.6477 2.64776 -2.6477" stroke-width="1"></path><path stroke="#000000" stroke-linecap="round" stroke-linejoin="round" d="M6.15466 11.0066C7.39602 9.76538 9.07957 9.06808 10.835 9.06808c1.1303 0 2.2309 0.28912 3.2027 0.82639" stroke-width="1"></path><path stroke="#000000" stroke-linecap="round" stroke-linejoin="round" d="M18.3264 8.19819c-1.9861 -1.98605 -4.6799 -3.10178 -7.4887 -3.10178 -2.80877 0 -5.50252 1.11573 -7.4887 3.10178" stroke-width="1"></path><path stroke="#000000" stroke-linecap="round" stroke-linejoin="round" d="M20.7668 5.03503c-2.6958 -2.51262 -6.2439 -3.90976 -9.9291 -3.90976 -3.68517 0 -7.23329 1.39714 -9.92907 3.90976" stroke-width="1"></path><path stroke="#000000" stroke-linecap="round" stroke-linejoin="round" d="m14.0233 13.4893 8.8393 8.8393" stroke-width="1"></path><path stroke="#000000" stroke-linecap="round" stroke-linejoin="round" d="m16.621 16.0871 2.0721 -2.072c1.0062 -1.0062 2.6375 -1.0062 3.6437 0 1.0062 1.0061 1.0062 2.6375 0 3.6437l-2.0643 2.0642" stroke-width="1"></path><path stroke="#000000" stroke-linecap="round" stroke-linejoin="round" d="m15.0196 17.6886 -0.4706 0.4706c-1.0061 1.0062 -1.0061 2.6375 0 3.6437 1.0062 1.0061 2.6376 1.0061 3.6437 0l0.3692 -0.3692" stroke-width="1"></path></svg>