<svg xmlns="http://www.w3.org/2000/svg" fill="none" viewBox="0 0 24 24" id="Wifi-Warning--Streamline-Ultimate"><desc>Wifi Warning Streamline Icon: https://streamlinehq.com</desc><path stroke="#000000" stroke-linecap="round" stroke-linejoin="round" d="M5.96001 11.284c0.85958 -0.858 1.99003 -1.39134 3.19876 -1.50932 1.20873 -0.11797 2.42093 0.18677 3.43023 0.86232" stroke-width="1"></path><path stroke="#000000" stroke-linecap="round" stroke-linejoin="round" d="M3.07001 7.82201C4.8639 6.173 7.21023 5.25545 9.64687 5.25008c2.43663 -0.00536 4.78703 0.90184 6.58813 2.54293" stroke-width="1"></path><path stroke="#000000" stroke-linecap="round" stroke-linejoin="round" d="M0.75 3.88707C3.28137 1.85544 6.4304 0.748728 9.67623 0.750001 12.9221 0.751274 16.0702 1.86045 18.6 3.89407" stroke-width="1"></path><path stroke="#000000" d="M17.25 21c-0.2071 0 -0.375 -0.1679 -0.375 -0.375s0.1679 -0.375 0.375 -0.375" stroke-width="1"></path><path stroke="#000000" d="M17.25 21c0.2071 0 0.375 -0.1679 0.375 -0.375s-0.1679 -0.375 -0.375 -0.375" stroke-width="1"></path><path stroke="#000000" stroke-linecap="round" stroke-linejoin="round" d="M17.25 18v-3" stroke-width="1"></path><path stroke="#000000" stroke-linecap="round" stroke-linejoin="round" d="M23.063 20.683c0.1352 0.2705 0.1989 0.571 0.1853 0.8731 -0.0136 0.302 -0.1043 0.5956 -0.2633 0.8528 -0.159 0.2571 -0.3811 0.4694 -0.6452 0.6166 -0.2641 0.1473 -0.5614 0.2245 -0.8638 0.2245h-8.452c-0.3024 0 -0.5997 -0.0772 -0.8638 -0.2245 -0.2641 -0.1472 -0.4862 -0.3595 -0.6452 -0.6166 -0.159 -0.2572 -0.2497 -0.5508 -0.2633 -0.8528 -0.0136 -0.3021 0.0501 -0.6026 0.1853 -0.8731l4.226 -8.452c0.1473 -0.2948 0.3738 -0.5428 0.6541 -0.7161s0.6033 -0.2651 0.9329 -0.2651 0.6526 0.0918 0.9329 0.2651 0.5068 0.4213 0.6541 0.7161l4.226 8.452Z" stroke-width="1"></path></svg>