<svg viewBox="0 0 24 24" xmlns="http://www.w3.org/2000/svg" id="Wifi-Sync--Streamline-Ultimate"><desc>Wifi Sync Streamline Icon: https://streamlinehq.com</desc><path d="M5.96 11.284A5.234 5.234 0 0 1 9.668 9.75a5.365 5.365 0 0 1 0.818 0.063" fill="none" stroke="#000000" stroke-linecap="round" stroke-linejoin="round" stroke-width="1"></path><path d="M3.07 7.822a9.751 9.751 0 0 1 12.655 -0.463" fill="none" stroke="#000000" stroke-linecap="round" stroke-linejoin="round" stroke-width="1"></path><path d="M0.75 3.885a14.252 14.252 0 0 1 17.85 0.007" fill="none" stroke="#000000" stroke-linecap="round" stroke-linejoin="round" stroke-width="1"></path><path d="m15 18.75 -3.75 0 0 3.75" fill="none" stroke="#000000" stroke-linecap="round" stroke-linejoin="round" stroke-width="1"></path><path d="M22.667 19.483a5.572 5.572 0 0 1 -10.74 -0.733" fill="none" stroke="#000000" stroke-linecap="round" stroke-linejoin="round" stroke-width="1"></path><path d="m19.5 15.75 3.75 0 0 -3.75" fill="none" stroke="#000000" stroke-linecap="round" stroke-linejoin="round" stroke-width="1"></path><path d="M11.833 15.017a5.572 5.572 0 0 1 10.74 0.733" fill="none" stroke="#000000" stroke-linecap="round" stroke-linejoin="round" stroke-width="1"></path></svg>