<svg xmlns="http://www.w3.org/2000/svg" fill="none" viewBox="0 0 24 24" id="Wifi-Secure-Unlock--Streamline-Ultimate"><desc>Wifi Secure Unlock Streamline Icon: https://streamlinehq.com</desc><path stroke="#000000" stroke-linecap="round" stroke-linejoin="round" stroke-miterlimit="10" d="M8.85547 7.00453c1.79673 -1.79673 4.64153 -1.79673 6.28853 0" stroke-width="1"></path><path stroke="#000000" stroke-linecap="round" stroke-linejoin="round" stroke-miterlimit="10" d="M5.63672 3.86014c3.44373 -3.44373 9.13338 -3.44373 12.72688 0" stroke-width="1"></path><path stroke="#000000" stroke-linecap="round" stroke-linejoin="round" stroke-miterlimit="10" d="M9 22.7227h6c0.8 0 1.5 -0.7 1.5 -1.5v-4.5c0 -0.8 -0.7 -1.5 -1.5 -1.5H9c-0.8 0 -1.5 0.7 -1.5 1.5v4.5c0 0.9 0.7 1.5 1.5 1.5Z" stroke-width="1"></path><path stroke="#000000" stroke-linecap="round" stroke-linejoin="round" stroke-miterlimit="10" d="M9 15.1889V12.895c0 -1.7 1.3 -2.99998 3 -2.99998 0.8982 0 1.6847 0.39078 2.2268 0.99538" stroke-width="1"></path><path stroke="#000000" stroke-linecap="round" stroke-linejoin="round" stroke-miterlimit="10" d="M11.9996 18.6228c-0.2 0 -0.4 0.2 -0.4 0.4s0.2 0.4 0.4 0.4" stroke-width="1"></path><path stroke="#000000" stroke-linecap="round" stroke-linejoin="round" stroke-miterlimit="10" d="M11.9994 18.6228c0.2 0 0.4 0.2 0.4 0.4s-0.2 0.4 -0.4 0.4" stroke-width="1"></path></svg>