<svg viewBox="0 0 24 24" xmlns="http://www.w3.org/2000/svg" id="Season-Winter--Streamline-Ultimate"><desc>Season Winter Streamline Icon: https://streamlinehq.com</desc><path d="M14.579 20.379s1.219 2.495 3.27 2.308c4.158 -0.38 3.88 -5.907 5.4 -7.859a9.1 9.1 0 0 0 -8.265 0.075c-2.154 1.217 -2.307 3.27 -0.405 5.476Z" fill="none" stroke="#000000" stroke-linecap="round" stroke-linejoin="round" stroke-width="1"></path><path d="M17.52 17.844s-2.7 0.335 -4.623 5.031" fill="none" stroke="#000000" stroke-linecap="round" stroke-linejoin="round" stroke-width="1"></path><path d="m9.75 1.125 0 18" fill="none" stroke="#000000" stroke-linecap="round" stroke-linejoin="round" stroke-width="1"></path><path d="m18.75 10.125 -18 0" fill="none" stroke="#000000" stroke-linecap="round" stroke-linejoin="round" stroke-width="1"></path><path d="m7.5 12.375 -2.893 2.893" fill="none" stroke="#000000" stroke-linecap="round" stroke-linejoin="round" stroke-width="1"></path><path d="M14.893 4.982 12 7.875" fill="none" stroke="#000000" stroke-linecap="round" stroke-linejoin="round" stroke-width="1"></path><path d="M4.607 4.982 7.5 7.875" fill="none" stroke="#000000" stroke-linecap="round" stroke-linejoin="round" stroke-width="1"></path><path d="M7.179 1.768 9.75 4.339l2.571 -2.571" fill="none" stroke="#000000" stroke-linecap="round" stroke-linejoin="round" stroke-width="1"></path><path d="m18.107 7.554 -2.571 2.571" fill="none" stroke="#000000" stroke-linecap="round" stroke-linejoin="round" stroke-width="1"></path><path d="m9.75 15.911 -2.571 2.571" fill="none" stroke="#000000" stroke-linecap="round" stroke-linejoin="round" stroke-width="1"></path><path d="m1.393 12.696 2.571 -2.571 -2.571 -2.571" fill="none" stroke="#000000" stroke-linecap="round" stroke-linejoin="round" stroke-width="1"></path></svg>