<svg viewBox="0 0 24 24" xmlns="http://www.w3.org/2000/svg" id="Season-Spring--Streamline-Ultimate"><desc>Season Spring Streamline Icon: https://streamlinehq.com</desc><path d="M14.579 20.754s1.219 2.495 3.27 2.308c4.158 -0.38 3.88 -5.907 5.4 -7.859a9.1 9.1 0 0 0 -8.265 0.075c-2.154 1.216 -2.307 3.27 -0.405 5.476Z" fill="none" stroke="#000000" stroke-linecap="round" stroke-linejoin="round" stroke-width="1"></path><path d="M17.52 18.219s-2.7 0.334 -4.623 5.031" fill="none" stroke="#000000" stroke-linecap="round" stroke-linejoin="round" stroke-width="1"></path><path d="M5.25 18 1.5 21.75" fill="none" stroke="#000000" stroke-linecap="round" stroke-linejoin="round" stroke-width="1"></path><path d="m10.5 18 -3.75 3.75" fill="none" stroke="#000000" stroke-linecap="round" stroke-linejoin="round" stroke-width="1"></path><path d="M20.814 10.726a7.047 7.047 0 0 0 0.6 -2.851 7.188 7.188 0 0 0 -14.24 -1.332A4.457 4.457 0 1 0 5.242 15h4.771" fill="none" stroke="#000000" stroke-linecap="round" stroke-linejoin="round" stroke-width="1"></path></svg>