<svg viewBox="0 0 24 24" xmlns="http://www.w3.org/2000/svg" id="Direction-Button-1--Streamline-Ultimate"><desc>Direction Button 1 Streamline Icon: https://streamlinehq.com</desc><path d="M21.75 6.748h-3a1.5 1.5 0 0 1 -1.5 -1.5v-3a1.5 1.5 0 0 0 -1.5 -1.5h-7.5a1.5 1.5 0 0 0 -1.5 1.5v3a1.5 1.5 0 0 1 -1.5 1.5h-3a1.5 1.5 0 0 0 -1.5 1.5v7.5a1.5 1.5 0 0 0 1.5 1.5h3a1.5 1.5 0 0 1 1.5 1.5v3a1.5 1.5 0 0 0 1.5 1.5h7.5a1.5 1.5 0 0 0 1.5 -1.5v-3a1.5 1.5 0 0 1 1.5 -1.5h3a1.5 1.5 0 0 0 1.5 -1.5v-7.5a1.5 1.5 0 0 0 -1.5 -1.5Z" fill="none" stroke="#000000" stroke-linecap="round" stroke-linejoin="round" stroke-width="1"></path><path d="M9.75 5.998 12 3.748l2.25 2.25" fill="none" stroke="#000000" stroke-linecap="round" stroke-linejoin="round" stroke-width="1"></path><path d="M14.25 17.998 12 20.248l-2.25 -2.25" fill="none" stroke="#000000" stroke-linecap="round" stroke-linejoin="round" stroke-width="1"></path><path d="m6 14.248 -2.25 -2.25L6 9.748" fill="none" stroke="#000000" stroke-linecap="round" stroke-linejoin="round" stroke-width="1"></path><path d="m18 9.748 2.25 2.25 -2.25 2.25" fill="none" stroke="#000000" stroke-linecap="round" stroke-linejoin="round" stroke-width="1"></path></svg>