<svg viewBox="0 0 24 24" xmlns="http://www.w3.org/2000/svg" id="Direction-Button-2--Streamline-Ultimate"><desc>Direction Button 2 Streamline Icon: https://streamlinehq.com</desc><path d="M9 11.998a3 3 0 1 0 6 0 3 3 0 1 0 -6 0Z" fill="none" stroke="#000000" stroke-linecap="round" stroke-linejoin="round" stroke-width="1"></path><path d="M1.026 11.369a0.854 0.854 0 0 0 0 1.257l3.118 2.858A0.66 0.66 0 0 0 5.25 15V9a0.66 0.66 0 0 0 -1.106 -0.486Z" fill="none" stroke="#000000" stroke-linecap="round" stroke-linejoin="round" stroke-width="1"></path><path d="M22.973 12.626a0.852 0.852 0 0 0 0 -1.257l-3.117 -2.858A0.66 0.66 0 0 0 18.75 9v6a0.659 0.659 0 0 0 1.105 0.486Z" fill="none" stroke="#000000" stroke-linecap="round" stroke-linejoin="round" stroke-width="1"></path><path d="M11.372 22.971a0.85 0.85 0 0 0 1.256 0l2.858 -3.118A0.659 0.659 0 0 0 15 18.748H9a0.66 0.66 0 0 0 -0.487 1.105Z" fill="none" stroke="#000000" stroke-linecap="round" stroke-linejoin="round" stroke-width="1"></path><path d="M12.628 1.024a0.852 0.852 0 0 0 -1.256 0L8.514 4.142A0.66 0.66 0 0 0 9 5.248h6a0.66 0.66 0 0 0 0.486 -1.106Z" fill="none" stroke="#000000" stroke-linecap="round" stroke-linejoin="round" stroke-width="1"></path></svg>