<svg viewBox="0 0 24 24" xmlns="http://www.w3.org/2000/svg" id="Direction-Button--Streamline-Ultimate"><desc>Direction Button Streamline Icon: https://streamlinehq.com</desc><path d="m7.5 4.808 3.75 -3.75a1.061 1.061 0 0 1 1.5 0l3.75 3.75" fill="none" stroke="#000000" stroke-linecap="round" stroke-linejoin="round" stroke-width="1"></path><path d="m4.811 16.5 -3.75 -3.75a1.059 1.059 0 0 1 0 -1.5l3.75 -3.75" fill="none" stroke="#000000" stroke-linecap="round" stroke-linejoin="round" stroke-width="1"></path><path d="m16.5 19.187 -3.75 3.75a1.061 1.061 0 0 1 -1.5 0l-3.75 -3.75" fill="none" stroke="#000000" stroke-linecap="round" stroke-linejoin="round" stroke-width="1"></path><path d="m19.189 7.5 3.75 3.75a1.061 1.061 0 0 1 0 1.5l-3.75 3.75" fill="none" stroke="#000000" stroke-linecap="round" stroke-linejoin="round" stroke-width="1"></path><path d="M9 11.998a3 3 0 1 0 6 0 3 3 0 1 0 -6 0Z" fill="none" stroke="#000000" stroke-linecap="round" stroke-linejoin="round" stroke-width="1"></path></svg>