<svg viewBox="0 0 24 24" xmlns="http://www.w3.org/2000/svg" id="Move-To-Bottom--Streamline-Ultimate"><desc>Move To Bottom Streamline Icon: https://streamlinehq.com</desc><path d="M0.75 0.748h6v6h-6z" fill="none" stroke="#000000" stroke-linecap="round" stroke-linejoin="round" stroke-width="1"></path><path d="m0.75 10.498 0 -0.75 1.5 0" fill="none" stroke="#000000" stroke-linecap="round" stroke-linejoin="round" stroke-width="1"></path><path d="m2.25 14.248 -1.5 0 0 -0.75" fill="none" stroke="#000000" stroke-linecap="round" stroke-linejoin="round" stroke-width="1"></path><path d="m6.75 13.498 0 0.75 -1.5 0" fill="none" stroke="#000000" stroke-linecap="round" stroke-linejoin="round" stroke-width="1"></path><path d="m2.25 23.248 -1.5 0 0 -1.5" fill="none" stroke="#000000" stroke-linecap="round" stroke-linejoin="round" stroke-width="1"></path><path d="m6.75 21.748 0 1.5 -1.5 0" fill="none" stroke="#000000" stroke-linecap="round" stroke-linejoin="round" stroke-width="1"></path><path d="m5.25 9.748 1.5 0 0 0.75" fill="none" stroke="#000000" stroke-linecap="round" stroke-linejoin="round" stroke-width="1"></path><path d="m0.75 18.748 0 -1.5 1.5 0" fill="none" stroke="#000000" stroke-linecap="round" stroke-linejoin="round" stroke-width="1"></path><path d="m5.25 17.248 1.5 0 0 1.5" fill="none" stroke="#000000" stroke-linecap="round" stroke-linejoin="round" stroke-width="1"></path><path d="m15 15.748 -3.75 3.75 3.75 3.75" fill="none" stroke="#000000" stroke-linecap="round" stroke-linejoin="round" stroke-width="1"></path><path d="M11.25 19.5h4.5a7.5 7.5 0 0 0 0 -15h-4.5" fill="none" stroke="#000000" stroke-linecap="round" stroke-linejoin="round" stroke-width="1"></path></svg>