<svg viewBox="0 0 24 24" xmlns="http://www.w3.org/2000/svg" id="Scroll-Horizontal-1--Streamline-Ultimate"><desc>Scroll Horizontal 1 Streamline Icon: https://streamlinehq.com</desc><path d="M9 12.088a3 3 0 1 0 6 0 3 3 0 1 0 -6 0Z" fill="none" stroke="#000000" stroke-linecap="round" stroke-linejoin="round" stroke-width="1"></path><path d="M1.026 11.459a0.854 0.854 0 0 0 0 1.257l3.118 2.858a0.66 0.66 0 0 0 1.106 -0.486v-6A0.66 0.66 0 0 0 4.144 8.6Z" fill="none" stroke="#000000" stroke-linecap="round" stroke-linejoin="round" stroke-width="1"></path><path d="M22.973 12.716a0.852 0.852 0 0 0 0 -1.257L19.856 8.6a0.66 0.66 0 0 0 -1.106 0.487v6a0.659 0.659 0 0 0 1.105 0.486Z" fill="none" stroke="#000000" stroke-linecap="round" stroke-linejoin="round" stroke-width="1"></path></svg>