<svg viewBox="0 0 24 24" xmlns="http://www.w3.org/2000/svg" id="Gesture-Two-Finger-Tap-Clock--Streamline-Ultimate"><desc>Gesture Two Finger Tap Clock Streamline Icon: https://streamlinehq.com</desc><path d="M17.378 14.486a9.2 9.2 0 0 0 0.845 -1.736" fill="none" stroke="#000000" stroke-linecap="round" stroke-linejoin="round" stroke-width="1"></path><path d="M14.25 5.248a4.5 4.5 0 1 0 9 0 4.5 4.5 0 1 0 -9 0Z" fill="none" stroke="#000000" stroke-linecap="round" stroke-linejoin="round" stroke-width="1"></path><path d="m18.75 5.248 0 -1.5" fill="none" stroke="#000000" stroke-linecap="round" stroke-linejoin="round" stroke-width="1"></path><path d="M12 1.065A8.9 8.9 0 0 0 9.75 0.748 8.979 8.979 0 0 0 2.44 14.97" fill="none" stroke="#000000" stroke-linecap="round" stroke-linejoin="round" stroke-width="1"></path><path d="m14.249 23.248 0.816 -2.856a3 3 0 0 0 -1.543 -3.507l-0.773 -0.387v-3.75a1.5 1.5 0 0 0 -3 0v-1.5a1.5 1.5 0 0 0 -3 0V18l-1.174 -0.587a1.638 1.638 0 0 0 -1.755 2.742l3.789 3.093" fill="none" stroke="#000000" stroke-linecap="round" stroke-linejoin="round" stroke-width="1"></path><path d="m9.749 12.748 0 4.5" fill="none" stroke="#000000" stroke-linecap="round" stroke-linejoin="round" stroke-width="1"></path></svg>