<svg viewBox="0 0 24 24" xmlns="http://www.w3.org/2000/svg" id="Gesture-Two-Fingers-Swipe-Right--Streamline-Ultimate"><desc>Gesture Two Fingers Swipe Right Streamline Icon: https://streamlinehq.com</desc><path d="m23.25 0.748 0 6 -6 0" fill="none" stroke="#000000" stroke-linecap="round" stroke-linejoin="round" stroke-width="1"></path><path d="M0.75 4.128a18 18 0 0 1 22.5 1.205" fill="none" stroke="#000000" stroke-linecap="round" stroke-linejoin="round" stroke-width="1"></path><path d="m15.749 23.248 0.816 -2.856a3 3 0 0 0 -1.543 -3.507l-0.773 -0.387v-3.75a1.5 1.5 0 0 0 -3 0v-1.5a1.5 1.5 0 0 0 -3 0V18l-1.174 -0.587a1.638 1.638 0 0 0 -1.755 2.742l3.789 3.093" fill="none" stroke="#000000" stroke-linecap="round" stroke-linejoin="round" stroke-width="1"></path><path d="m11.249 12.748 0 4.5" fill="none" stroke="#000000" stroke-linecap="round" stroke-linejoin="round" stroke-width="1"></path></svg>