<svg viewBox="0 0 24 24" xmlns="http://www.w3.org/2000/svg" id="Gesture-Tap-Horizontal-Expand--Streamline-Ultimate"><desc>Gesture Tap Horizontal Expand Streamline Icon: https://streamlinehq.com</desc><path d="M1.5 12.109 4.594 8.32a1.633 1.633 0 0 1 1.675 -0.566h0a1.637 1.637 0 0 1 1.068 2.321l-0.587 1.174h6.75a1.5 1.5 0 0 1 1.5 1.5h0a1.5 1.5 0 0 1 -1.5 1.5H9l-0.332 1.993a3 3 0 0 1 -2.959 2.507H1.5" fill="none" stroke="#000000" stroke-linecap="round" stroke-linejoin="round" stroke-width="1"></path><path d="m20.25 3.748 -3 -3 -3 3" fill="none" stroke="#000000" stroke-linecap="round" stroke-linejoin="round" stroke-width="1"></path><path d="m20.25 20.249 -3 3 -3 -3.001" fill="none" stroke="#000000" stroke-linecap="round" stroke-linejoin="round" stroke-width="1"></path><path d="M15 16.724a5.193 5.193 0 0 0 2.25 0.524 5.25 5.25 0 1 0 -3.667 -9" fill="none" stroke="#000000" stroke-linecap="round" stroke-linejoin="round" stroke-width="1"></path></svg>