<svg viewBox="0 0 24 24" xmlns="http://www.w3.org/2000/svg" id="Gesture-Tap-Clock-1--Streamline-Ultimate"><desc>Gesture Tap Clock 1 Streamline Icon: https://streamlinehq.com</desc><path d="m9.11 23.248 -3.789 -3.093a1.639 1.639 0 0 1 -0.566 -1.676h0a1.638 1.638 0 0 1 2.321 -1.068L8.25 18v-6.75a1.5 1.5 0 0 1 1.5 -1.5h0a1.5 1.5 0 0 1 1.5 1.5v4.5l1.993 0.333a3 3 0 0 1 2.507 2.957v4.208" fill="none" stroke="#000000" stroke-linecap="round" stroke-linejoin="round" stroke-width="1"></path><path d="M17.379 14.486a9.258 9.258 0 0 0 0.844 -1.736" fill="none" stroke="#000000" stroke-linecap="round" stroke-linejoin="round" stroke-width="1"></path><path d="M14.25 5.248a4.5 4.5 0 1 0 9 0 4.5 4.5 0 1 0 -9 0Z" fill="none" stroke="#000000" stroke-linecap="round" stroke-linejoin="round" stroke-width="1"></path><path d="m18.75 5.248 0 -1.5" fill="none" stroke="#000000" stroke-linecap="round" stroke-linejoin="round" stroke-width="1"></path><path d="M12 1.065A8.9 8.9 0 0 0 9.75 0.748 8.979 8.979 0 0 0 2.44 14.97" fill="none" stroke="#000000" stroke-linecap="round" stroke-linejoin="round" stroke-width="1"></path></svg>