<svg viewBox="0 0 24 24" xmlns="http://www.w3.org/2000/svg" id="Gesture-Swipe-Horizontal-2--Streamline-Ultimate"><desc>Gesture Swipe Horizontal 2 Streamline Icon: https://streamlinehq.com</desc><path d="m12.11 23.248 -3.789 -3.093a1.639 1.639 0 0 1 -0.566 -1.676h0a1.638 1.638 0 0 1 2.321 -1.068L11.25 18v-6.75a1.5 1.5 0 0 1 1.5 -1.5h0a1.5 1.5 0 0 1 1.5 1.5v4.5l1.993 0.333a3 3 0 0 1 2.507 2.957v4.208" fill="none" stroke="#000000" stroke-linecap="round" stroke-linejoin="round" stroke-width="1"></path><path d="m3.75 0.748 -3 3 3 3" fill="none" stroke="#000000" stroke-linecap="round" stroke-linejoin="round" stroke-width="1"></path><path d="m8.25 0.748 -3 3 3 3" fill="none" stroke="#000000" stroke-linecap="round" stroke-linejoin="round" stroke-width="1"></path><path d="m20.25 0.748 3 3 -3 3" fill="none" stroke="#000000" stroke-linecap="round" stroke-linejoin="round" stroke-width="1"></path><path d="m15.75 0.748 3 3 -3 3" fill="none" stroke="#000000" stroke-linecap="round" stroke-linejoin="round" stroke-width="1"></path><path d="m5.25 3.748 13.5 0" fill="none" stroke="#000000" stroke-linecap="round" stroke-linejoin="round" stroke-width="1"></path></svg>