<svg viewBox="0 0 24 24" xmlns="http://www.w3.org/2000/svg" id="Gesture-Swipe-Vertical-Down-2--Streamline-Ultimate"><desc>Gesture Swipe Vertical Down 2 Streamline Icon: https://streamlinehq.com</desc><path d="M2.25 10.609 5.344 6.82a1.633 1.633 0 0 1 1.675 -0.566h0a1.637 1.637 0 0 1 1.068 2.321L7.5 9.749h6.75a1.5 1.5 0 0 1 1.5 1.5h0a1.5 1.5 0 0 1 -1.5 1.5h-4.5l-0.332 1.993a3 3 0 0 1 -2.959 2.507H2.25" fill="none" stroke="#000000" stroke-linecap="round" stroke-linejoin="round" stroke-width="1"></path><path d="m21.75 23.248 -6 0 0 -6" fill="none" stroke="#000000" stroke-linecap="round" stroke-linejoin="round" stroke-width="1"></path><path d="M18.371 0.748a18 18 0 0 1 -1.206 22.5" fill="none" stroke="#000000" stroke-linecap="round" stroke-linejoin="round" stroke-width="1"></path></svg>