<svg viewBox="0 0 24 24" xmlns="http://www.w3.org/2000/svg" id="Gesture-Swipe-Horizontal-Left-3--Streamline-Ultimate"><desc>Gesture Swipe Horizontal Left 3 Streamline Icon: https://streamlinehq.com</desc><path d="m0.748 3.748 0 6 6 0" fill="none" stroke="#000000" stroke-linecap="round" stroke-linejoin="round" stroke-width="1"></path><path d="m3.748 0.748 0 6 6 0" fill="none" stroke="#000000" stroke-linecap="round" stroke-linejoin="round" stroke-width="1"></path><path d="M3.748 5.18a20.279 20.279 0 0 1 19.5 -0.827" fill="none" stroke="#000000" stroke-linecap="round" stroke-linejoin="round" stroke-width="1"></path><path d="m12.109 23.248 -3.79 -3.093a1.636 1.636 0 0 1 -0.565 -1.676h0a1.638 1.638 0 0 1 2.321 -1.068l1.174 0.589v-6.75a1.5 1.5 0 0 1 1.5 -1.5h0a1.5 1.5 0 0 1 1.5 1.5v4.5l1.993 0.333a3 3 0 0 1 2.507 2.959v4.208" fill="none" stroke="#000000" stroke-linecap="round" stroke-linejoin="round" stroke-width="1"></path></svg>