<svg xmlns="http://www.w3.org/2000/svg" viewBox="0 0 24 24" id="Gesture-Two-Finger-Zoom-In--Streamline-Ultimate"><desc>Gesture Two Finger Zoom In Streamline Icon: https://streamlinehq.com</desc><g><path d="m15.75 23.25 0.65 -1.94a5.54 5.54 0 0 0 -0.65 -4.81h0l2.18 -3.94a1.5 1.5 0 0 0 -2.63 -1.45L12.61 16l-1.36 -0.23v-6a1.5 1.5 0 0 0 -3 0V18l-1.17 -0.59a1.64 1.64 0 0 0 -1.76 2.74l3.79 3.1" fill="none" stroke="#000000" stroke-linecap="round" stroke-linejoin="round" stroke-width="1"></path><g><path d="m6.56 6.71 2.65 -3.32L5.89 0.75" fill="none" stroke="#000000" stroke-linecap="round" stroke-linejoin="round" stroke-width="1"></path><path d="M9.21 3.39A36.39 36.39 0 0 0 0.75 5.1" fill="none" stroke="#000000" stroke-linecap="round" stroke-linejoin="round" stroke-width="1"></path></g><g><path d="m17.44 6.71 -2.65 -3.32L18.11 0.75" fill="none" stroke="#000000" stroke-linecap="round" stroke-linejoin="round" stroke-width="1"></path><path d="M14.79 3.39a35.88 35.88 0 0 1 8.46 1.71" fill="none" stroke="#000000" stroke-linecap="round" stroke-linejoin="round" stroke-width="1"></path></g></g></svg>