<svg viewBox="0 0 24 24" xmlns="http://www.w3.org/2000/svg" id="Gesture-Swipe-Vertical-2--Streamline-Ultimate"><desc>Gesture Swipe Vertical 2 Streamline Icon: https://streamlinehq.com</desc><path d="M0.75 12.109 3.843 8.32a1.639 1.639 0 0 1 1.676 -0.566h0a1.638 1.638 0 0 1 1.068 2.321L6 11.249h6.75a1.5 1.5 0 0 1 1.5 1.5h0a1.5 1.5 0 0 1 -1.5 1.5h-4.5l-0.332 1.993a3 3 0 0 1 -2.96 2.507H0.75" fill="none" stroke="#000000" stroke-linecap="round" stroke-linejoin="round" stroke-width="1"></path><path d="m23.249 3.748 -3 -3 -3 3" fill="none" stroke="#000000" stroke-linecap="round" stroke-linejoin="round" stroke-width="1"></path><path d="m23.249 8.248 -3 -3 -3 3" fill="none" stroke="#000000" stroke-linecap="round" stroke-linejoin="round" stroke-width="1"></path><path d="m23.249 20.248 -3 3 -3 -3" fill="none" stroke="#000000" stroke-linecap="round" stroke-linejoin="round" stroke-width="1"></path><path d="m23.249 15.748 -3 3 -3 -3" fill="none" stroke="#000000" stroke-linecap="round" stroke-linejoin="round" stroke-width="1"></path><path d="m20.249 5.248 0 13.5" fill="none" stroke="#000000" stroke-linecap="round" stroke-linejoin="round" stroke-width="1"></path></svg>