<svg viewBox="0 0 24 24" xmlns="http://www.w3.org/2000/svg" id="Gesture-Tap-Vertical-Expand--Streamline-Ultimate"><desc>Gesture Tap Vertical Expand Streamline Icon: https://streamlinehq.com</desc><path d="m12.109 22.5 -3.79 -3.093a1.639 1.639 0 0 1 -0.566 -1.676h0a1.639 1.639 0 0 1 2.321 -1.068l1.175 0.587V10.5a1.5 1.5 0 0 1 1.5 -1.5h0a1.5 1.5 0 0 1 1.5 1.5V15l1.993 0.333a3 3 0 0 1 2.507 2.959V22.5" fill="none" stroke="#000000" stroke-linecap="round" stroke-linejoin="round" stroke-width="1"></path><path d="m3.748 3.748 -3 3 3 3" fill="none" stroke="#000000" stroke-linecap="round" stroke-linejoin="round" stroke-width="1"></path><path d="m20.248 3.748 3.001 3 -3.001 3" fill="none" stroke="#000000" stroke-linecap="round" stroke-linejoin="round" stroke-width="1"></path><path d="M16.724 9a5.243 5.243 0 1 0 -8.476 1.417" fill="none" stroke="#000000" stroke-linecap="round" stroke-linejoin="round" stroke-width="1"></path></svg>