<svg viewBox="0 0 24 24" xmlns="http://www.w3.org/2000/svg" id="Gesture-Zoom-In--Streamline-Ultimate"><desc>Gesture Zoom In Streamline Icon: https://streamlinehq.com</desc><path d="m3.94 15.715 1.46 -0.342" fill="none" stroke="#000000" stroke-linecap="round" stroke-linejoin="round" stroke-width="1"></path><path d="m10.32 23.248 -2.169 -9.287a3.75 3.75 0 0 0 -7.3 1.705l1.77 7.582" fill="none" stroke="#000000" stroke-linecap="round" stroke-linejoin="round" stroke-width="1"></path><path d="m20.057 15.715 -1.46 -0.342" fill="none" stroke="#000000" stroke-linecap="round" stroke-linejoin="round" stroke-width="1"></path><path d="m21.379 23.248 1.77 -7.582a3.75 3.75 0 1 0 -7.3 -1.7l-2.169 9.287" fill="none" stroke="#000000" stroke-linecap="round" stroke-linejoin="round" stroke-width="1"></path><path d="m6.561 6.748 2.645 -3.317L5.888 0.786" fill="none" stroke="#000000" stroke-linecap="round" stroke-linejoin="round" stroke-width="1"></path><path d="M9.206 3.444A35.959 35.959 0 0 0 0.749 5.133" fill="none" stroke="#000000" stroke-linecap="round" stroke-linejoin="round" stroke-width="1"></path><path d="m17.436 6.748 -2.645 -3.317L18.109 0.786" fill="none" stroke="#000000" stroke-linecap="round" stroke-linejoin="round" stroke-width="1"></path><path d="M14.791 3.444a35.977 35.977 0 0 1 8.458 1.689" fill="none" stroke="#000000" stroke-linecap="round" stroke-linejoin="round" stroke-width="1"></path></svg>