<svg viewBox="0 0 24 24" xmlns="http://www.w3.org/2000/svg" id="Gesture-Two-Fingers-Horizontal-Zoom-In--Streamline-Ultimate"><desc>Gesture Two Fingers Horizontal Zoom In Streamline Icon: https://streamlinehq.com</desc><path d="m17.247 23 0.816 -2.856a3 3 0 0 0 -1.542 -3.507l-0.774 -0.387V12.5a1.5 1.5 0 1 0 -3 0V11a1.5 1.5 0 1 0 -3 0v6.75l-1.174 -0.587a1.638 1.638 0 0 0 -1.755 2.744L10.607 23" fill="none" stroke="#000000" stroke-linecap="round" stroke-linejoin="round" stroke-width="1"></path><path d="m12.747 12.498 0 4.5" fill="none" stroke="#000000" stroke-linecap="round" stroke-linejoin="round" stroke-width="1"></path><path d="m4.498 1.248 -3.75 3.75 3.75 3.75" fill="none" stroke="#000000" stroke-linecap="round" stroke-linejoin="round" stroke-width="1"></path><path d="m0.748 4.998 22.5 0" fill="none" stroke="#000000" stroke-linecap="round" stroke-linejoin="round" stroke-width="1"></path><path d="m19.498 1.248 3.75 3.75 -3.75 3.75" fill="none" stroke="#000000" stroke-linecap="round" stroke-linejoin="round" stroke-width="1"></path></svg>