<svg viewBox="0 0 24 24" xmlns="http://www.w3.org/2000/svg" id="Time-Clock-File-Search--Streamline-Ultimate"><desc>Time Clock File Search Streamline Icon: https://streamlinehq.com</desc><path d="M6.734 13.982A4.5 4.5 0 1 1 12 7.271" fill="none" stroke="#000000" stroke-linecap="round" stroke-linejoin="round" stroke-width="1"></path><path d="m9.744 9.745 -1.499 0 0 -1.499" fill="none" stroke="#000000" stroke-linecap="round" stroke-linejoin="round" stroke-width="1"></path><path d="M8.995 20.238H2.249a1.5 1.5 0 0 1 -1.5 -1.5V2.249a1.5 1.5 0 0 1 1.5 -1.5h10.622a1.5 1.5 0 0 1 1.06 0.439l2.87 2.87a1.5 1.5 0 0 1 0.439 1.06v1.629" fill="none" stroke="#000000" stroke-linecap="round" stroke-linejoin="round" stroke-width="1"></path><path d="M10.508 15.755a5.247 5.247 0 1 0 10.494 0 5.247 5.247 0 1 0 -10.494 0Z" fill="none" stroke="#000000" stroke-linecap="round" stroke-linejoin="round" stroke-width="1"></path><path d="m23.25 23.25 -3.785 -3.785" fill="none" stroke="#000000" stroke-linecap="round" stroke-linejoin="round" stroke-width="1"></path></svg>