<svg viewBox="0 0 24 24" xmlns="http://www.w3.org/2000/svg" id="Time-Clock-File-Cash--Streamline-Ultimate"><desc>Time Clock File Cash Streamline Icon: https://streamlinehq.com</desc><path d="M18.75 14.25h-2.033a1.342 1.342 0 0 0 -0.5 2.588l2.064 0.825a1.342 1.342 0 0 1 -0.5 2.587H15.75" fill="none" stroke="#000000" stroke-linecap="round" stroke-linejoin="round" stroke-width="1"></path><path d="m17.25 14.25 0 -0.75" fill="none" stroke="#000000" stroke-linecap="round" stroke-linejoin="round" stroke-width="1"></path><path d="m17.25 21 0 -0.75" fill="none" stroke="#000000" stroke-linecap="round" stroke-linejoin="round" stroke-width="1"></path><path d="M11.25 17.25a6 6 0 1 0 12 0 6 6 0 1 0 -12 0Z" fill="none" stroke="#000000" stroke-linecap="round" stroke-linejoin="round" stroke-width="1"></path><path d="M8.25 14.25a4.5 4.5 0 1 1 4.25 -5.978" fill="none" stroke="#000000" stroke-linecap="round" stroke-linejoin="round" stroke-width="1"></path><path d="m9.75 9.75 -1.5 0 0 -1.5" fill="none" stroke="#000000" stroke-linecap="round" stroke-linejoin="round" stroke-width="1"></path><path d="M7.5 20.25H2.25a1.5 1.5 0 0 1 -1.5 -1.5V2.25a1.5 1.5 0 0 1 1.5 -1.5h10.629a1.5 1.5 0 0 1 1.06 0.44l2.872 2.871a1.5 1.5 0 0 1 0.439 1.061V7.5" fill="none" stroke="#000000" stroke-linecap="round" stroke-linejoin="round" stroke-width="1"></path></svg>