<svg viewBox="0 0 24 24" xmlns="http://www.w3.org/2000/svg" id="Time-Clock-File-Edit--Streamline-Ultimate"><desc>Time Clock File Edit Streamline Icon: https://streamlinehq.com</desc><path d="M22.631 14.87 15 22.5l-3.75 0.75 0.75 -3.75 7.631 -7.63a2.115 2.115 0 0 1 2.991 0l0.009 0.009a2.115 2.115 0 0 1 0 2.991Z" fill="none" stroke="#000000" stroke-linecap="round" stroke-linejoin="round" stroke-width="1"></path><path d="M8.25 20.25h-6a1.5 1.5 0 0 1 -1.5 -1.5V2.25a1.5 1.5 0 0 1 1.5 -1.5h10.629a1.5 1.5 0 0 1 1.06 0.44l2.872 2.871a1.5 1.5 0 0 1 0.439 1.061V8.25" fill="none" stroke="#000000" stroke-linecap="round" stroke-linejoin="round" stroke-width="1"></path><path d="M3.75 9.75a4.5 4.5 0 1 0 9 0 4.5 4.5 0 1 0 -9 0Z" fill="none" stroke="#000000" stroke-linecap="round" stroke-linejoin="round" stroke-width="1"></path><path d="m9.75 9.75 -1.5 0 0 -1.5" fill="none" stroke="#000000" stroke-linecap="round" stroke-linejoin="round" stroke-width="1"></path></svg>