<svg viewBox="0 0 24 24" xmlns="http://www.w3.org/2000/svg" id="Time-Clock-File-Refresh--Streamline-Ultimate"><desc>Time Clock File Refresh Streamline Icon: https://streamlinehq.com</desc><path d="m15 18.75 -3.75 0 0 3.75" fill="none" stroke="#000000" stroke-linecap="round" stroke-linejoin="round" stroke-width="1"></path><path d="M22.667 19.483a5.572 5.572 0 0 1 -10.74 -0.733" fill="none" stroke="#000000" stroke-linecap="round" stroke-linejoin="round" stroke-width="1"></path><path d="m19.5 15.75 3.75 0 0 -3.75" fill="none" stroke="#000000" stroke-linecap="round" stroke-linejoin="round" stroke-width="1"></path><path d="M11.833 15.017a5.572 5.572 0 0 1 10.74 0.733" fill="none" stroke="#000000" stroke-linecap="round" stroke-linejoin="round" stroke-width="1"></path><path d="M8.25 14.25a4.5 4.5 0 1 1 4.25 -5.978" fill="none" stroke="#000000" stroke-linecap="round" stroke-linejoin="round" stroke-width="1"></path><path d="m9.75 9.75 -1.5 0 0 -1.5" fill="none" stroke="#000000" stroke-linecap="round" stroke-linejoin="round" stroke-width="1"></path><path d="M7.5 20.25H2.25a1.5 1.5 0 0 1 -1.5 -1.5V2.25a1.5 1.5 0 0 1 1.5 -1.5h10.629a1.5 1.5 0 0 1 1.06 0.44l2.872 2.871a1.5 1.5 0 0 1 0.439 1.061V7.5" fill="none" stroke="#000000" stroke-linecap="round" stroke-linejoin="round" stroke-width="1"></path></svg>