<svg xmlns="http://www.w3.org/2000/svg" fill="none" viewBox="0 0 24 24" id="Red-Blood-Cell-Three--Streamline-Ultimate"><desc>Red Blood Cell Three Streamline Icon: https://streamlinehq.com</desc><path stroke="#000000" stroke-linecap="round" stroke-linejoin="round" d="M6.94124 22.4306c3.85876 1.2247 7.49546 0.6156 8.44736 -2.3835 0.9519 -2.9991 -1.6678 -5.5939 -5.52662 -6.8187 -3.8588 -1.2248 -7.48662 -0.6435 -8.44735 2.3834 -0.92589 2.9172 1.6678 5.594 5.52661 6.8188Z" stroke-width="1"></path><path stroke="#000000" stroke-linecap="round" stroke-linejoin="round" d="M19.1948 11.9698c-2.7561 0.9243 -5.3741 0.5294 -6.0925 -1.6127 -0.7184 -2.1421 1.1322 -4.03558 3.8883 -4.95988 2.7561 -0.9243 5.3674 -0.54923 6.0925 1.61269 0.6987 2.08354 -1.1322 4.03559 -3.8883 4.95989Z" stroke-width="1"></path><path stroke="#000000" stroke-linecap="round" stroke-linejoin="round" d="M5.7907 8.0507c2.75409 0.22696 5.0809 -0.73241 5.2573 -2.87293 0.1764 -2.14052 -1.96199 -3.46785 -4.71607 -3.69481 -2.75409 -0.22695 -5.0793 0.71259 -5.25733 2.87293 -0.171571 2.082 1.96201 3.46785 4.7161 3.69481Z" stroke-width="1"></path><path stroke="#000000" stroke-linecap="round" stroke-linejoin="round" d="M4.99512 16.8303c0.41512 0.8261 1.56123 1.6675 3.04531 2.1386 1.48407 0.471 2.90567 0.4446 3.72117 0.0091" stroke-width="1"></path><path stroke="#000000" stroke-linecap="round" stroke-linejoin="round" d="M4.13574 4.66162c0.31999 0.3871 1.02889 0.69365 1.87183 0.76312 0.84295 0.06946 1.59247 -0.1169 1.9715 -0.4464" stroke-width="1"></path><path stroke="#000000" stroke-linecap="round" stroke-linejoin="round" d="M20.0337 8.09204c-0.2295 0.47586 -0.8766 0.96723 -1.7201 1.25013 -0.8436 0.2829 -1.656 0.28099 -2.1261 0.03973" stroke-width="1"></path></svg>