<svg xmlns="http://www.w3.org/2000/svg" fill="none" viewBox="0 0 24 24" id="Red-Blood-Cells-Drop--Streamline-Ultimate"><desc>Red Blood Cells Drop Streamline Icon: https://streamlinehq.com</desc><path stroke="#000000" stroke-linecap="round" stroke-linejoin="round" d="M9.89415 6.37717C8.68796 3.52794 6.27406 1.04004 5.75963 1.04004c-0.69224 0 -4.824083 4.50511 -4.824083 8.33345 0 1.19481 0.508253 2.34071 1.412943 3.18561 0.75216 0.7024 1.72713 1.1489 2.76977 1.2795" stroke-width="1"></path><path stroke="#000000" stroke-dasharray="3 3" stroke-linecap="round" stroke-linejoin="round" d="M15.3404 23.0975c4.3184 0 7.8191 -3.5008 7.8191 -7.8191 0 -4.3184 -3.5007 -7.81917 -7.8191 -7.81917S7.52124 10.96 7.52124 15.2784c0 4.3183 3.50076 7.8191 7.81916 7.8191Z" stroke-width="1"></path><path stroke="#000000" stroke-linecap="round" stroke-linejoin="round" d="M12.9607 19.7279c1.7645 0.9287 3.5804 0.949 4.3022 -0.4223 0.7218 -1.3714 -0.3231 -2.8568 -2.0876 -3.7855 -1.7644 -0.9286 -3.5737 -0.9617 -4.3022 0.4224 -0.702 1.3339 0.3231 2.8568 2.0876 3.7854Z" stroke-width="1"></path><path stroke="#000000" stroke-linecap="round" stroke-linejoin="round" d="M13.5049 17.2056c0.096 0.0882 0.3181 0.231 0.5872 0.3726 0.2691 0.1416 0.5125 0.2438 0.6396 0.2731" stroke-width="1"></path><path stroke="#000000" stroke-linecap="round" stroke-linejoin="round" d="M16.7065 13.4836c-0.9187 -0.8193 -1.3234 -1.8649 -0.6866 -2.579 0.6368 -0.7141 1.7217 -0.4313 2.6405 0.388 0.9188 0.8193 1.3293 1.8583 0.6866 2.579 -0.6193 0.6946 -1.7217 0.4313 -2.6405 -0.388Z" stroke-width="1"></path></svg>