<svg xmlns="http://www.w3.org/2000/svg" fill="none" viewBox="0 0 24 24" id="Red-Blood-Cell-Drop--Streamline-Ultimate"><desc>Red Blood Cell Drop Streamline Icon: https://streamlinehq.com</desc><path stroke="#000000" stroke-linecap="round" stroke-linejoin="round" d="M9.89415 6.37717C8.68796 3.52794 6.27406 1.04004 5.75963 1.04004c-0.69224 0 -4.824083 4.50511 -4.824083 8.33345 0 1.19481 0.508253 2.34071 1.412943 3.18561 0.75216 0.7024 1.72713 1.1489 2.76977 1.2795" stroke-width="1"></path><path stroke="#000000" stroke-dasharray="3 3" stroke-linecap="round" stroke-linejoin="round" d="M15.3406 23.0975c4.3184 0 7.8191 -3.5008 7.8191 -7.8191 0 -4.3184 -3.5007 -7.81917 -7.8191 -7.81917S7.52148 10.96 7.52148 15.2784c0 4.3183 3.50072 7.8191 7.81912 7.8191Z" stroke-width="1"></path><path stroke="#000000" stroke-linecap="round" stroke-linejoin="round" d="M16.102 18.6373c2.6885 -0.6391 4.6026 -2.2733 4.1059 -4.3629 -0.4967 -2.0895 -2.9415 -2.6876 -5.63 -2.0485s-4.60723 2.2539 -4.1059 4.3628c0.4831 2.0325 2.9414 2.6876 5.63 2.0486Z" stroke-width="1"></path><path stroke="#000000" stroke-linecap="round" stroke-linejoin="round" d="M13.4775 15.9292c0.4244 0.2687 1.1934 0.34 2.0163 0.1444 0.8229 -0.1956 1.4775 -0.6054 1.7356 -1.0362" stroke-width="1"></path></svg>