<svg xmlns="http://www.w3.org/2000/svg" fill="none" viewBox="0 0 24 24" id="Red-Blood-Cell-Strem-Good-1--Streamline-Ultimate"><desc>Red Blood Cell Strem Good 1 Streamline Icon: https://streamlinehq.com</desc><path stroke="#000000" stroke-linecap="round" stroke-linejoin="round" d="M6.79883 3.5451c0.88445 -0.54523 1.8609 -0.95556 2.90069 -1.20232 0.46178 -0.79033 1.31918 -1.3213 2.30058 -1.3213s1.8388 0.53099 2.3005 1.32136c1.0396 0.24673 2.0159 0.65698 2.9002 1.20208 0.8856 -0.23279 1.8678 -0.00208 2.5621 0.69215 0.6942 0.6942 0.9249 1.67638 0.6921 2.562 0.5452 0.88435 0.9555 1.86069 1.2022 2.90035 0.7906 0.46168 1.3217 1.31918 1.3217 2.30078 0 0.9815 -0.5311 1.839 -1.3217 2.3007 -0.2467 1.0395 -0.6569 2.0157 -1.202 2.9 0.233 0.8858 0.0023 1.8681 -0.6921 2.5625 -0.6943 0.6943 -1.6767 0.925 -2.5624 0.692 -0.8843 0.5451 -1.8605 0.9553 -2.9001 1.202 -0.4617 0.7904 -1.3191 1.3214 -2.3005 1.3214s-1.8388 -0.531 -2.30058 -1.3213c-1.03965 -0.2468 -2.01599 -0.657 -2.90034 -1.2021 -0.88569 0.2328 -1.86799 0.0021 -2.56226 -0.6921 -0.69426 -0.6943 -0.92496 -1.6766 -0.69211 -2.5623 -0.54513 -0.8843 -0.9554 -1.8606 -1.20215 -2.9002 -0.7904 -0.4618 -1.32142 -1.3192 -1.32142 -2.3006 0 -0.9815 0.53101 -1.8389 1.32141 -2.30065 0.24671 -1.03952 0.65691 -2.01574 1.20194 -2.9 -0.23289 -0.8857 -0.0022 -1.86803 0.69209 -2.56232 0.69425 -0.69424 1.67649 -0.92495 2.56215 -0.69213Z" stroke-width="1"></path><path stroke="#000000" stroke-linecap="round" stroke-linejoin="round" d="M8.09668 13.1069c0.5915 2.1294 2.95752 3.4307 5.08692 2.8392 1.3013 -0.4732 2.366 -1.5379 2.7209 -2.8392" stroke-width="1"></path><path stroke="#000000" stroke-linecap="round" stroke-linejoin="round" d="M9.39682 10.0903c-0.16333 0 -0.29575 -0.13243 -0.29575 -0.29577 0 -0.16334 0.13242 -0.29575 0.29575 -0.29575" stroke-width="1"></path><path stroke="#000000" stroke-linecap="round" stroke-linejoin="round" d="M9.39712 10.0903c0.16334 0 0.29575 -0.13243 0.29575 -0.29577 0 -0.16334 -0.13241 -0.29575 -0.29575 -0.29575" stroke-width="1"></path><path stroke="#000000" stroke-linecap="round" stroke-linejoin="round" d="M14.6029 10.0903c-0.1634 0 -0.2958 -0.13243 -0.2958 -0.29577 0 -0.16334 0.1324 -0.29575 0.2958 -0.29575" stroke-width="1"></path><path stroke="#000000" stroke-linecap="round" stroke-linejoin="round" d="M14.6029 10.0903c0.1634 0 0.2958 -0.13243 0.2958 -0.29577 0 -0.16334 -0.1324 -0.29575 -0.2958 -0.29575" stroke-width="1"></path></svg>