<svg xmlns="http://www.w3.org/2000/svg" fill="none" viewBox="0 0 24 24" id="Red-Blood-Cell-Strem-2--Streamline-Ultimate"><desc>Red Blood Cell Strem 2 Streamline Icon: https://streamlinehq.com</desc><path stroke="#000000" stroke-linecap="round" stroke-linejoin="round" d="m7.44556 0.935791 0.86442 2.098959" stroke-width="1"></path><path stroke="#000000" stroke-linecap="round" stroke-linejoin="round" d="M12.0023 1.27344c0.9589 0 1.7966 0.5188 2.2477 1.29101 1.0157 0.24107 1.9696 0.6419 2.8336 1.17448 0.8653 -0.22748 1.825 -0.00207 2.5033 0.67623 0.6783 0.67829 0.9037 1.63797 0.6762 2.50328 0.5326 0.86397 0.9334 1.8178 1.1745 2.83348 0.7725 0.45108 1.2915 1.28898 1.2915 2.24798 0 0.9591 -0.519 1.7969 -1.2915 2.248 -0.2411 1.0155 -0.6418 1.9692 -1.1743 2.833 0.2278 0.8655 0.0024 1.8255 -0.676 2.5039 -0.6785 0.6785 -1.6384 0.9038 -2.5038 0.6761 -0.864 0.5326 -1.8178 0.9334 -2.8335 1.1744 -0.4511 0.7723 -1.2888 1.2911 -2.2477 1.2911 -0.9588 0 -1.7965 -0.5188 -2.24769 -1.291 -1.01577 -0.241 -1.9697 -0.6419 -2.83374 -1.1745 -0.86533 0.2275 -1.82502 0.0021 -2.50333 -0.6762 -0.67828 -0.6783 -0.9037 -1.6379 -0.67624 -2.5032 -0.5327 -0.8642 -0.9336 -1.8182 -1.17468 -2.8341 -0.77193 -0.4513 -1.2905 -1.2888 -1.2905 -2.2475 0 -0.9586 0.51856 -1.7962 1.29049 -2.2474 0.24105 -1.01583 0.64189 -1.9698 1.17452 -2.83389 -0.22747 -0.86531 -0.00205 -1.82499 0.67624 -2.50328 0.67827 -0.67827 1.63789 -0.90369 2.50318 -0.67627 0.86413 -0.5327 1.81816 -0.9336 2.83407 -1.17469 0.45118 -0.77217 1.28888 -1.29093 2.24768 -1.29093Z" stroke-width="1"></path><path stroke="#000000" stroke-linecap="round" stroke-linejoin="round" d="M10.168 17.2715c1.206 -1.6169 -0.47382 -2.4343 -1.03168 -4.0348 -1.30217 -3.73578 5.12168 -3.09 3.36388 -6.93365 -1.1789 -2.57797 -6.12999 -0.80687 -6.91697 4.81175 -0.76246 5.4435 2.90259 8.4118 4.58477 6.1567Z" stroke-width="1"></path><path stroke="#000000" stroke-linecap="round" stroke-linejoin="round" d="M16.255 13.9552c-0.4691 -0.9772 -1.3588 -1.5248 -2.3123 -1.067 -0.9536 0.4578 -1.0826 1.4945 -0.6134 2.4716 0.4691 0.9772 1.3499 1.5291 2.3123 1.067 0.9275 -0.4453 1.0826 -1.4945 0.6134 -2.4716Z" stroke-width="1"></path><path stroke="#000000" stroke-linecap="round" stroke-linejoin="round" d="M18.0587 9.85529c0.3074 -0.54409 0.2245 -1.17283 -0.3972 -1.52417 -0.6218 -0.35133 -1.2031 -0.09792 -1.5106 0.44617 -0.3074 0.54409 -0.2303 1.16957 0.3972 1.52421 0.6048 0.3417 1.2031 0.0979 1.5106 -0.44621Z" stroke-width="1"></path><path stroke="#000000" stroke-linecap="round" stroke-linejoin="round" d="m15.7009 20.9812 0.8579 2.0831" stroke-width="1"></path><path stroke="#000000" stroke-linecap="round" stroke-linejoin="round" d="m0.935791 16.5542 2.098959 -0.8644" stroke-width="1"></path><path stroke="#000000" stroke-linecap="round" stroke-linejoin="round" d="m20.9812 8.29883 2.0831 -0.85789" stroke-width="1"></path><path stroke="#000000" stroke-linecap="round" stroke-linejoin="round" d="m7.39673 23.0439 0.87294 -2.0954" stroke-width="1"></path><path stroke="#000000" stroke-linecap="round" stroke-linejoin="round" d="M15.7336 3.03223 16.6 0.952658" stroke-width="1"></path><path stroke="#000000" stroke-linecap="round" stroke-linejoin="round" d="m0.950439 7.39893 2.095431 0.87294" stroke-width="1"></path><path stroke="#000000" stroke-linecap="round" stroke-linejoin="round" d="m20.9622 15.7358 2.0795 0.8664" stroke-width="1"></path></svg>