<svg viewBox="0 0 24 24" xmlns="http://www.w3.org/2000/svg" id="Style-One-Pin-Car--Streamline-Ultimate"><desc>Style One Pin Car Streamline Icon: https://streamlinehq.com</desc><path d="M21.25 9.75a9 9 0 1 0 -10.8 8.819l1.8 4.681 1.8 -4.681a9 9 0 0 0 7.2 -8.819Z" fill="none" stroke="#000000" stroke-linecap="round" stroke-linejoin="round" stroke-width="1"></path><path d="m9.25 11.25 0 1.5" fill="none" stroke="#000000" stroke-linecap="round" stroke-linejoin="round" stroke-width="1"></path><path d="m15.25 11.25 0 1.5" fill="none" stroke="#000000" stroke-linecap="round" stroke-linejoin="round" stroke-width="1"></path><path d="M16.75 9.75a1.5 1.5 0 0 1 -1.5 1.5h-6a1.5 1.5 0 0 1 0 -3h6a1.5 1.5 0 0 1 1.5 1.5Z" fill="none" stroke="#000000" stroke-linecap="round" stroke-linejoin="round" stroke-width="1"></path><path d="M10.25 5.25h4a1 1 0 0 1 1 1v2l0 0h-6l0 0v-2a1 1 0 0 1 1 -1Z" fill="none" stroke="#000000" stroke-linecap="round" stroke-linejoin="round" stroke-width="1"></path></svg>