<svg xmlns="http://www.w3.org/2000/svg" fill="none" viewBox="0 0 24 24" id="Style-One-Pin-Question--Streamline-Ultimate"><desc>Style One Pin Question Streamline Icon: https://streamlinehq.com</desc><path stroke="#000000" stroke-linecap="round" stroke-linejoin="round" d="M10.1249 8.24869c0 -0.37087 0.11 -0.73341 0.316 -1.04178 0.206 -0.30837 0.4989 -0.54871 0.8415 -0.69064 0.3427 -0.14192 0.7197 -0.17906 1.0835 -0.1067 0.3637 0.07235 0.6978 0.25094 0.9601 0.51319 0.2622 0.26224 0.4408 0.59636 0.5132 0.9601 0.0723 0.36375 0.0352 0.74078 -0.1068 1.08342 -0.1419 0.34264 -0.3822 0.6355 -0.6906 0.84154 -0.3084 0.20608 -0.6709 0.31598 -1.0418 0.31598" stroke-width="1"></path><path stroke="#000000" stroke-linecap="round" stroke-linejoin="round" d="M21.0007 9.7489c-0.0003 -1.70299 -0.4838 -3.37094 -1.3942 -4.81013 -0.9105 -1.43919 -2.2106 -2.59055 -3.7492 -3.32036C14.3186 0.888592 12.6044 0.610274 10.9139 0.81578c-1.69059 0.20551 -3.28815 0.8864 -4.60717 1.9636 -1.31903 1.0772 -2.30538 2.50651 -2.84452 4.12191 -0.53913 1.6154 -0.60891 3.35061 -0.20124 5.00411 0.40767 1.6534 1.27606 3.1573 2.50432 4.337 1.22826 1.1796 2.76598 1.9866 4.43461 2.3272L12 23.25l1.8001 -4.6804c2.0331 -0.415 3.8603 -1.5196 5.1724 -3.127 1.3122 -1.6074 2.0287 -3.6188 2.0282 -5.6937v0Z" stroke-width="1"></path><path stroke="#000000" d="M12 13.8742c-0.2071 0 -0.375 -0.1679 -0.375 -0.375s0.1679 -0.3751 0.375 -0.3751" stroke-width="1"></path><path stroke="#000000" d="M12.0001 13.8742c0.2071 0 0.375 -0.1679 0.375 -0.375s-0.1679 -0.3751 -0.375 -0.3751" stroke-width="1"></path></svg>