<svg xmlns="http://www.w3.org/2000/svg" fill="none" viewBox="0 0 24 24" id="Style-One-Pin-Tunnel--Streamline-Ultimate"><desc>Style One Pin Tunnel Streamline Icon: https://streamlinehq.com</desc><path stroke="#000000" stroke-linecap="round" stroke-linejoin="round" d="M7.5 11.25c0 -1.1935 0.47411 -2.33807 1.31802 -3.18198C9.66193 7.22411 10.8065 6.75 12 6.75c1.1935 0 2.3381 0.47411 3.182 1.31802 0.8439 0.84391 1.318 1.98848 1.318 3.18198" stroke-width="1"></path><path stroke="#000000" stroke-linecap="round" stroke-linejoin="round" d="M6 11.25h12" stroke-width="1"></path><path stroke="#000000" stroke-linecap="round" stroke-linejoin="round" d="M21 9.75c-0.0003 -1.70285 -0.4838 -3.37067 -1.3942 -4.80974 -0.9103 -1.43907 -2.2103 -2.59034 -3.7489 -3.32009 -1.5385 -0.729759 -3.2525 -1.008053 -4.943 -0.802564 -1.69037 0.205484 -3.2878 0.886324 -4.60671 1.963444C4.98827 3.85816 4.002 5.28735 3.46291 6.90262c-0.53909 1.61527 -0.60887 3.35038 -0.20123 5.00368 0.40763 1.6533 1.27596 3.1571 2.50412 4.3367 1.22816 1.1795 2.76575 1.9864 4.4342 2.327l1.8 4.68 1.8 -4.68c2.0329 -0.415 3.8599 -1.5195 5.172 -3.1268C20.284 13.836 21.0004 11.8248 21 9.75v0Z" stroke-width="1"></path><path stroke="#000000" d="M12 4.5c-0.2071 0 -0.375 -0.16789 -0.375 -0.375s0.1679 -0.375 0.375 -0.375" stroke-width="1"></path><path stroke="#000000" d="M12 4.5c0.2071 0 0.375 -0.16789 0.375 -0.375S12.2071 3.75 12 3.75" stroke-width="1"></path></svg>