<svg xmlns="http://www.w3.org/2000/svg" fill="none" viewBox="0 0 24 24" id="Style-One-Pin-Photography--Streamline-Ultimate"><desc>Style One Pin Photography Streamline Icon: https://streamlinehq.com</desc><path stroke="#000000" stroke-linecap="round" stroke-linejoin="round" d="M16.5 8.25c0 -0.39782 -0.158 -0.77936 -0.4393 -1.06066C15.7794 6.90804 15.3978 6.75 15 6.75h-0.75v-0.364c-0.081 -0.32363 -0.2675 -0.61105 -0.5301 -0.81679 -0.2626 -0.20574 -0.5863 -0.31806 -0.9199 -0.31921h-1.879c-0.688 0 -1 0.468 -1.171 1.136v0.364H9c-0.39782 0 -0.77936 0.15804 -1.06066 0.43934C7.65804 7.47064 7.5 7.85218 7.5 8.25v3c0 0.3978 0.15804 0.7794 0.43934 1.0607S8.60218 12.75 9 12.75h6c0.3978 0 0.7794 -0.158 1.0607 -0.4393s0.4393 -0.6629 0.4393 -1.0607v-3Z" stroke-width="1"></path><path stroke="#000000" stroke-linecap="round" stroke-linejoin="round" d="M21 9.75c-0.0003 -1.70285 -0.4838 -3.37067 -1.3942 -4.80974 -0.9103 -1.43907 -2.2103 -2.59034 -3.7489 -3.32009 -1.5385 -0.729759 -3.2525 -1.008053 -4.943 -0.802564 -1.69037 0.205484 -3.2878 0.886324 -4.60671 1.963444C4.98827 3.85816 4.002 5.28735 3.46291 6.90262c-0.53909 1.61527 -0.60887 3.35038 -0.20123 5.00368 0.40763 1.6533 1.27596 3.1571 2.50412 4.3367 1.22816 1.1795 2.76575 1.9864 4.4342 2.327l1.8 4.68 1.8 -4.68c2.0329 -0.415 3.8599 -1.5195 5.172 -3.1268C20.284 13.836 21.0004 11.8248 21 9.75v0Z" stroke-width="1"></path><path stroke="#000000" d="M12 9.75c-0.2071 0 -0.375 -0.16789 -0.375 -0.375S11.7929 9 12 9" stroke-width="1"></path><path stroke="#000000" d="M12 9.75c0.2071 0 0.375 -0.16789 0.375 -0.375S12.2071 9 12 9" stroke-width="1"></path></svg>