<svg viewBox="0 0 24 24" xmlns="http://www.w3.org/2000/svg" id="Organic-Plant--Streamline-Ultimate"><desc>Organic Plant Streamline Icon: https://streamlinehq.com</desc><path d="M0.85 13.5a11.429 11.429 0 0 1 -0.1 -1.5A11.25 11.25 0 0 1 12 0.75" fill="none" stroke="#000000" stroke-linecap="round" stroke-linejoin="round" stroke-width="1"></path><path d="M23.152 13.5a11.417 11.417 0 0 0 0.1 -1.5A11.25 11.25 0 0 0 12 0.75" fill="none" stroke="#000000" stroke-linecap="round" stroke-linejoin="round" stroke-width="1"></path><path d="M20.251 12.046A8.259 8.259 0 0 0 12 20.315a8.26 8.26 0 0 0 8.251 -8.269Z" fill="none" stroke="#000000" stroke-linecap="round" stroke-linejoin="round" stroke-width="1"></path><path d="M14.171 14.725a9.152 9.152 0 0 0 -2.16 -9.475 9.151 9.151 0 0 0 -2.148 9.511" fill="none" stroke="#000000" stroke-linecap="round" stroke-linejoin="round" stroke-width="1"></path><path d="M12 20.315a8.26 8.26 0 0 0 -8.25 -8.269A8.259 8.259 0 0 0 12 20.315Z" fill="none" stroke="#000000" stroke-linecap="round" stroke-linejoin="round" stroke-width="1"></path><path d="m12.001 23.25 0 -2.935" fill="none" stroke="#000000" stroke-linecap="round" stroke-linejoin="round" stroke-width="1"></path><path d="M22.317 16.492a10.729 10.729 0 0 1 -1.41 2.381" fill="none" stroke="#000000" stroke-linecap="round" stroke-linejoin="round" stroke-width="1"></path><path d="M18.738 21.006a10.576 10.576 0 0 1 -2.4 1.372" fill="none" stroke="#000000" stroke-linecap="round" stroke-linejoin="round" stroke-width="1"></path><path d="M7.687 22.378a10.5 10.5 0 0 1 -2.4 -1.372" fill="none" stroke="#000000" stroke-linecap="round" stroke-linejoin="round" stroke-width="1"></path><path d="M3.115 18.873a10.706 10.706 0 0 1 -1.41 -2.381" fill="none" stroke="#000000" stroke-linecap="round" stroke-linejoin="round" stroke-width="1"></path></svg>