<svg viewBox="0 0 24 24" xmlns="http://www.w3.org/2000/svg" id="Organic-Plant-Grow-1--Streamline-Ultimate"><desc>Organic Plant Grow 1 Streamline Icon: https://streamlinehq.com</desc><path d="M0.751 23.25a5.511 5.511 0 0 0 4.5 -1.5 4.547 4.547 0 0 0 6.75 0 4.547 4.547 0 0 0 6.75 0 5.511 5.511 0 0 0 4.5 1.5" fill="none" stroke="#000000" stroke-linecap="round" stroke-linejoin="round" stroke-width="1"></path><path d="M20.251 7.584A8.282 8.282 0 0 0 12 15.9a8.283 8.283 0 0 0 8.251 -8.316Z" fill="none" stroke="#000000" stroke-linecap="round" stroke-linejoin="round" stroke-width="1"></path><path d="M14.171 10.278A9.24 9.24 0 0 0 12.011 0.75a9.239 9.239 0 0 0 -2.148 9.564" fill="none" stroke="#000000" stroke-linecap="round" stroke-linejoin="round" stroke-width="1"></path><path d="M3.751 7.584A8.282 8.282 0 0 1 12 15.9a8.282 8.282 0 0 1 -8.249 -8.316Z" fill="none" stroke="#000000" stroke-linecap="round" stroke-linejoin="round" stroke-width="1"></path><path d="m12.001 19.5 0 -3.601" fill="none" stroke="#000000" stroke-linecap="round" stroke-linejoin="round" stroke-width="1"></path></svg>