<svg viewBox="0 0 24 24" xmlns="http://www.w3.org/2000/svg" id="Organic-Plant-Grow--Streamline-Ultimate"><desc>Organic Plant Grow Streamline Icon: https://streamlinehq.com</desc><path d="M20.251 7.585A8.283 8.283 0 0 0 12 15.9a8.283 8.283 0 0 0 8.251 -8.315Z" fill="none" stroke="#000000" stroke-linecap="round" stroke-linejoin="round" stroke-width="1"></path><path d="M14.171 10.279a9.238 9.238 0 0 0 -2.16 -9.528 9.238 9.238 0 0 0 -2.147 9.565" fill="none" stroke="#000000" stroke-linecap="round" stroke-linejoin="round" stroke-width="1"></path><path d="M3.751 7.585A8.283 8.283 0 0 1 12 15.9a8.283 8.283 0 0 1 -8.249 -8.315Z" fill="none" stroke="#000000" stroke-linecap="round" stroke-linejoin="round" stroke-width="1"></path><path d="m12.001 19.501 0 -3.601" fill="none" stroke="#000000" stroke-linecap="round" stroke-linejoin="round" stroke-width="1"></path><path d="M0.751 23.25a18.754 18.754 0 0 1 22.5 0" fill="none" stroke="#000000" stroke-linecap="round" stroke-linejoin="round" stroke-width="1"></path></svg>