<svg xmlns="http://www.w3.org/2000/svg" viewBox="0 0 24 24" id="Cash-Payment-Bill-2--Streamline-Ultimate"><desc>Cash Payment Bill 2 Streamline Icon: https://streamlinehq.com</desc><g><path d="m5.25 9.7 -4.5 2.25" fill="none" stroke="#000000" stroke-linecap="round" stroke-linejoin="round" stroke-width="1"></path><path d="M0.75 21.25a20.29 20.29 0 0 0 9.33 -6.71c1.17 -1.4 -0.08 -3.36 -1.4 -2.81l-5.25 2.65" fill="none" stroke="#000000" stroke-linecap="round" stroke-linejoin="round" stroke-width="1"></path><path d="m17.3 14 -1.11 5.67a1.32 1.32 0 0 1 -0.71 0.94 1.25 1.25 0 0 1 -1.16 0l-0.32 -0.19a1.34 1.34 0 0 1 -0.73 -1.2v-2.51l-1.9 2.12a1.21 1.21 0 0 1 -1.64 0.25L9.55 19a1.29 1.29 0 0 1 -0.49 -1.45l1 -3" fill="none" stroke="#000000" stroke-linecap="round" stroke-linejoin="round" stroke-width="1"></path><path d="M18.75 2.75h3a1.5 1.5 0 0 1 1.5 1.5v8.25a1.5 1.5 0 0 1 -1.5 1.5H13.5" fill="none" stroke="#000000" stroke-linecap="round" stroke-linejoin="round" stroke-width="1"></path><path d="M5.25 11V4.25a1.5 1.5 0 0 1 1.5 -1.5h3.75" fill="none" stroke="#000000" stroke-linecap="round" stroke-linejoin="round" stroke-width="1"></path><g><path d="M12.58 9.09a2.22 2.22 0 0 0 1.86 0.88c1.14 0 2.06 -0.69 2.06 -1.55s-0.92 -1.54 -2.06 -1.54 -2.07 -0.7 -2.07 -1.55 0.93 -1.55 2.07 -1.55a2.22 2.22 0 0 1 1.86 0.88" fill="none" stroke="#000000" stroke-linecap="round" stroke-linejoin="round" stroke-width="1"></path><path d="m14.44 9.97 0 1.03" fill="none" stroke="#000000" stroke-linecap="round" stroke-linejoin="round" stroke-width="1"></path><path d="m14.44 2.75 0 1.03" fill="none" stroke="#000000" stroke-linecap="round" stroke-linejoin="round" stroke-width="1"></path></g></g></svg>