<svg xmlns="http://www.w3.org/2000/svg" viewBox="0 0 24 24" id="Cash-Payment-Coin--Streamline-Ultimate"><desc>Cash Payment Coin Streamline Icon: https://streamlinehq.com</desc><g><g><path d="m0.75 14.25 0 9" fill="none" stroke="#000000" stroke-linecap="round" stroke-linejoin="round" stroke-width="1"></path><path d="M0.75 21.75h16.5a3 3 0 0 0 -3 -3H10.5a3 3 0 0 0 -3 -3H0.75" fill="none" stroke="#000000" stroke-linecap="round" stroke-linejoin="round" stroke-width="1"></path><path d="m6.75 18.75 3.75 0" fill="none" stroke="#000000" stroke-linecap="round" stroke-linejoin="round" stroke-width="1"></path></g><g><g><path d="M18.1 4.48h-2.17a1.39 1.39 0 0 0 -1.43 1.35 1.35 1.35 0 0 0 0.9 1.25l2.2 0.84a1.35 1.35 0 0 1 0.9 1.25 1.39 1.39 0 0 1 -1.43 1.35H14.9" fill="none" stroke="#000000" stroke-linecap="round" stroke-linejoin="round" stroke-width="1"></path><path d="m16.5 4.48 0 -1.23" fill="none" stroke="#000000" stroke-linecap="round" stroke-linejoin="round" stroke-width="1"></path><path d="m16.5 11.75 0 -1.23" fill="none" stroke="#000000" stroke-linecap="round" stroke-linejoin="round" stroke-width="1"></path></g><path d="M9.75 7.5a6.75 6.75 0 1 0 13.5 0 6.75 6.75 0 1 0 -13.5 0" fill="none" stroke="#000000" stroke-linecap="round" stroke-linejoin="round" stroke-width="1"></path></g></g></svg>