<svg xmlns="http://www.w3.org/2000/svg" fill="none" viewBox="0 0 24 24" id="Cash-Payment-Wallet--Streamline-Ultimate"><desc>Cash Payment Wallet Streamline Icon: https://streamlinehq.com</desc><path stroke="#000000" stroke-linecap="round" stroke-linejoin="round" d="m5.05101 9.68303 -0.781 -2.427c-0.12181 -0.37846 -0.08838 -0.78981 0.09294 -1.14364 0.18132 -0.35383 0.4957 -0.6212 0.87406 -0.74336L19.143 0.890032c0.3786 -0.121765 0.7901 -0.088197 1.1439 0.093325 0.3539 0.181523 0.6212 0.496133 0.7431 0.874673l2.08 6.456c0.0605 0.18753 0.0834 0.38513 0.0674 0.58151 -0.0159 0.19638 -0.0704 0.3877 -0.1603 0.56302 -0.0899 0.17533 -0.2134 0.33123 -0.3636 0.45879 -0.1501 0.12755 -0.3239 0.22435 -0.5115 0.28465l-4.825 1.554" stroke-width="1"></path><path stroke="#000000" stroke-linecap="round" stroke-linejoin="round" d="M17.317 18.683v2.571c-0.0008 0.2541 -0.0516 0.5056 -0.1496 0.74 -0.0979 0.2345 -0.2411 0.4474 -0.4214 0.6265 -0.1802 0.1791 -0.394 0.321 -0.629 0.4175 -0.2351 0.0965 -0.4869 0.1458 -0.741 0.145H2.75802c-0.25411 0.0008 -0.50589 -0.0485 -0.74095 -0.145 -0.23507 -0.0965 -0.44883 -0.2384 -0.62907 -0.4175 -0.18023 -0.1791 -0.32343 -0.392 -0.421397 -0.6265 -0.09797 -0.2344 -0.1488 -0.4859 -0.149586 -0.74v-9.643c0.000786 -0.2541 0.051623 -0.5055 0.149606 -0.7399 0.097987 -0.2344 0.241187 -0.4472 0.421447 -0.6262 0.18025 -0.1791 0.39401 -0.32087 0.62907 -0.41727 0.23506 -0.09641 0.48682 -0.14555 0.74088 -0.14463H15.376c0.2541 -0.00092 0.5058 0.04822 0.7409 0.14463 0.2351 0.0964 0.4488 0.23817 0.6291 0.41727 0.1802 0.179 0.3234 0.3918 0.4214 0.6262 0.098 0.2344 0.1488 0.4858 0.1496 0.7399v2.572" stroke-width="1"></path><path stroke="#000000" stroke-linecap="round" stroke-linejoin="round" d="M4.56702 9.698v13.485" stroke-width="1"></path><path stroke="#000000" stroke-linecap="round" stroke-linejoin="round" d="M14.144 14.183c-0.5734 0.0239 -1.114 0.2741 -1.5033 0.6959 -0.3893 0.4217 -0.5956 0.9806 -0.5737 1.5541 -0.0219 0.5735 0.1844 1.1324 0.5737 1.5541 0.3893 0.4217 0.9299 0.672 1.5033 0.6959h3.635c0.2866 -0.0122 0.5567 -0.1375 0.7512 -0.3483s0.2977 -0.4901 0.2868 -0.7767v-2.25c0.0111 -0.2867 -0.0919 -0.5662 -0.2865 -0.777 -0.1946 -0.2109 -0.4648 -0.3361 -0.7515 -0.348h-3.635Z" stroke-width="1"></path><path stroke="#000000" d="M16.225 16.808c-0.2071 0 -0.375 -0.1679 -0.375 -0.375s0.1679 -0.375 0.375 -0.375" stroke-width="1"></path><path stroke="#000000" d="M16.225 16.808c0.2071 0 0.375 -0.1679 0.375 -0.375s-0.1679 -0.375 -0.375 -0.375" stroke-width="1"></path><path stroke="#000000" stroke-linecap="round" stroke-linejoin="round" d="M12.229 7.49999c0.1365 -0.26914 0.3511 -0.49084 0.6156 -0.63613 0.2645 -0.14529 0.5667 -0.20741 0.8671 -0.17825 0.3004 0.02916 0.585 0.14825 0.8166 0.34171 0.2316 0.19346 0.3995 0.45229 0.4817 0.74267" stroke-width="1"></path></svg>