<svg xmlns="http://www.w3.org/2000/svg" fill="none" viewBox="0 0 24 24" id="Workflow-Gantt-Chart-3--Streamline-Ultimate"><desc>Workflow Gantt Chart 3 Streamline Icon: https://streamlinehq.com</desc><path stroke="#000000" stroke-linecap="round" stroke-linejoin="round" stroke-miterlimit="10" d="M10.25 5h-9c-0.3 0 -0.5 -0.2 -0.5 -0.5v-3c0 -0.3 0.2 -0.5 0.5 -0.5h9c0.3 0 0.5 0.2 0.5 0.5v3c0 0.2 -0.2 0.5 -0.5 0.5Z" stroke-width="1"></path><path stroke="#000000" stroke-linecap="round" stroke-linejoin="round" stroke-miterlimit="10" d="M22.75 23h-9c-0.3 0 -0.5 -0.2 -0.5 -0.5v-3c0 -0.3 0.2 -0.5 0.5 -0.5h9c0.3 0 0.5 0.2 0.5 0.5v3c0 0.2 -0.2 0.5 -0.5 0.5Z" stroke-width="1"></path><path stroke="#000000" stroke-linecap="round" stroke-linejoin="round" stroke-miterlimit="10" d="M22.75 11.5h-5c-0.3 0 -0.5 -0.2 -0.5 -0.5V8c0 -0.3 0.2 -0.5 0.5 -0.5h5c0.3 0 0.5 0.2 0.5 0.5v3c0 0.2 -0.2 0.5 -0.5 0.5Z" stroke-width="1"></path><path stroke="#000000" stroke-linecap="round" stroke-linejoin="round" stroke-miterlimit="10" d="M7.75 14h-5c-0.3 0 -0.5 -0.2 -0.5 -0.5v-3c0 -0.3 0.2 -0.5 0.5 -0.5h5c0.3 0 0.5 0.2 0.5 0.5v3c0 0.2 -0.2 0.5 -0.5 0.5Z" stroke-width="1"></path><path stroke="#000000" stroke-linecap="round" stroke-linejoin="round" stroke-miterlimit="10" d="M10.75 3h3c0.3 0 0.5 0.2 0.5 0.5V9c0 0.3 0.2 0.5 0.5 0.5h2.5" stroke-width="1"></path><path stroke="#000000" stroke-linecap="round" stroke-linejoin="round" stroke-miterlimit="10" d="M13.25 21h-2c-0.3 0 -0.5 -0.2 -0.5 -0.5v-8c0 -0.3 -0.2 -0.5 -0.5 -0.5h-2" stroke-width="1"></path></svg>