<svg xmlns="http://www.w3.org/2000/svg" fill="none" viewBox="0 0 24 24" id="Workflow-Gantt-Chart-8--Streamline-Ultimate"><desc>Workflow Gantt Chart 8 Streamline Icon: https://streamlinehq.com</desc><path stroke="#000000" stroke-linecap="round" stroke-linejoin="round" stroke-miterlimit="10" d="M0.75 0.75v22.5h22.5" stroke-width="1"></path><path stroke="#000000" stroke-linecap="round" stroke-linejoin="round" stroke-miterlimit="10" d="M13.75 5.25h-8.5c-0.3 0 -0.5 -0.2 -0.5 -0.5v-2c0 -0.3 0.2 -0.5 0.5 -0.5h8.5c0.3 0 0.5 0.2 0.5 0.5v2c0 0.3 -0.2 0.5 -0.5 0.5Z" stroke-width="1"></path><path stroke="#000000" stroke-linecap="round" stroke-linejoin="round" stroke-miterlimit="10" d="M22.75 11.75h-8.5c-0.3 0 -0.5 -0.2 -0.5 -0.5v-2c0 -0.3 0.2 -0.5 0.5 -0.5h8.5c0.3 0 0.5 0.2 0.5 0.5v2c0 0.3 -0.2 0.5 -0.5 0.5Z" stroke-width="1"></path><path stroke="#000000" stroke-linecap="round" stroke-linejoin="round" stroke-miterlimit="10" d="M12.75 17.25h-8.5c-0.3 0 -0.5 -0.2 -0.5 -0.5v-2c0 -0.3 0.2 -0.5 0.5 -0.5h8.5c0.3 0 0.5 0.2 0.5 0.5v2c0 0.3 -0.2 0.5 -0.5 0.5Z" stroke-width="1"></path><path stroke="#000000" stroke-linecap="round" stroke-linejoin="round" stroke-miterlimit="10" d="M22.75 20.25h-5c-0.3 0 -0.5 -0.2 -0.5 -0.5v-2c0 -0.3 0.2 -0.5 0.5 -0.5h5c0.3 0 0.5 0.2 0.5 0.5v2c0 0.3 -0.2 0.5 -0.5 0.5Z" stroke-width="1"></path><path stroke="#000000" stroke-linecap="round" stroke-linejoin="round" stroke-miterlimit="10" d="M14.25 3.75h4c0.3 0 0.5 0.2 0.5 0.5v4.5" stroke-width="1"></path></svg>