<svg xmlns="http://www.w3.org/2000/svg" fill="none" viewBox="0 0 24 24" id="Workflow-Gantt-Chart-7--Streamline-Ultimate"><desc>Workflow Gantt Chart 7 Streamline Icon: https://streamlinehq.com</desc><path stroke="#000000" stroke-linecap="round" stroke-linejoin="round" stroke-miterlimit="10" d="M13.75 8h-9c-0.3 0 -0.5 -0.2 -0.5 -0.5v-3c0 -0.3 0.2 -0.5 0.5 -0.5h9c0.3 0 0.5 0.2 0.5 0.5v3c0 0.2 -0.2 0.5 -0.5 0.5Z" stroke-width="1"></path><path stroke="#000000" stroke-linecap="round" stroke-linejoin="round" stroke-miterlimit="10" d="M13.75 17.5h-9c-0.3 0 -0.5 -0.2 -0.5 -0.5v-3c0 -0.3 0.2 -0.5 0.5 -0.5h9c0.3 0 0.5 0.2 0.5 0.5v3c0 0.2 -0.2 0.5 -0.5 0.5Z" stroke-width="1"></path><path stroke="#000000" stroke-linecap="round" stroke-linejoin="round" stroke-miterlimit="10" d="m19.85 18.1502 -2.3 -2.3c-0.2 -0.2 -0.2 -0.5 0 -0.7l2.3 -2.3c0.2 -0.2 0.5 -0.2 0.7 0l2.3 2.3c0.2 0.2 0.2 0.5 0 0.7l-2.3 2.3c-0.1 0.2 -0.5 0.2 -0.7 0Z" stroke-width="1"></path><path stroke="#000000" stroke-linecap="round" stroke-linejoin="round" stroke-miterlimit="10" d="M0.75 1.5V15c0 0.3 0.2 0.5 0.5 0.5h2.5" stroke-width="1"></path><path stroke="#000000" stroke-linecap="round" stroke-linejoin="round" stroke-miterlimit="10" d="M0.75 6h3.5" stroke-width="1"></path><path stroke="#000000" stroke-linecap="round" stroke-linejoin="round" stroke-miterlimit="10" d="M14.25 6h5.5c0.3 0 0.5 0.2 0.5 0.5v6.1719" stroke-width="1"></path><path stroke="#000000" stroke-linecap="round" stroke-linejoin="round" stroke-miterlimit="10" d="M14.25 15.5h3.15" stroke-width="1"></path><path stroke="#000000" stroke-linecap="round" stroke-linejoin="round" stroke-miterlimit="10" d="M20.25 18.2656V22c0 0.3 0.2 0.5 0.5 0.5h2.5" stroke-width="1"></path></svg>