<svg xmlns="http://www.w3.org/2000/svg" fill="none" viewBox="0 0 24 24" id="Workflow-Gantt-Chart-1--Streamline-Ultimate"><desc>Workflow Gantt Chart 1 Streamline Icon: https://streamlinehq.com</desc><path stroke="#000000" stroke-linecap="round" stroke-linejoin="round" stroke-miterlimit="10" d="M6.69632 4.07179H1.24553C0.948211 4.07179 0.75 3.87358 0.75 3.57627V1.59416c0 -0.29732 0.198211 -0.49553 0.49553 -0.49553h5.45079c0.29731 0 0.49552 0.19821 0.49552 0.49553v1.98211c0 0.19821 -0.19821 0.49552 -0.49552 0.49552Z" stroke-width="1"></path><path stroke="#000000" stroke-linecap="round" stroke-linejoin="round" stroke-miterlimit="10" d="M15.7087 7.04494H7.78029c-0.29732 0 -0.49553 -0.19821 -0.49553 -0.49553V4.5673c0 -0.29731 0.19821 -0.49552 0.49553 -0.49552h7.92841c0.2973 0 0.4955 0.19821 0.4955 0.49552v1.98211c0 0.19821 -0.1982 0.49553 -0.4955 0.49553Z" stroke-width="1"></path><path stroke="#000000" stroke-linecap="round" stroke-linejoin="round" stroke-miterlimit="10" d="M22.7545 10.0181h-5.9464c-0.2973 0 -0.4955 -0.19823 -0.4955 -0.49555v-1.9821c0 -0.29732 0.1982 -0.49553 0.4955 -0.49553h5.9464c0.2973 0 0.4955 0.19821 0.4955 0.49553v1.9821c0 0.19822 -0.1982 0.49555 -0.4955 0.49555Z" stroke-width="1"></path><path stroke="#000000" stroke-linecap="round" stroke-linejoin="round" stroke-miterlimit="10" d="M13.1382 14.9732H3.22763c-0.29732 0 -0.49553 -0.1983 -0.49553 -0.4956v-1.9821c0 -0.2973 0.19821 -0.4955 0.49553 -0.4955h9.91057c0.2973 0 0.4955 0.1982 0.4955 0.4955v1.9821c0 0.1982 -0.1982 0.4956 -0.4955 0.4956Z" stroke-width="1"></path><path stroke="#000000" stroke-linecap="round" stroke-linejoin="round" stroke-miterlimit="10" d="M22.6461 17.9463h-8.424c-0.2973 0 -0.4955 -0.1982 -0.4955 -0.4955v-1.9821c0 -0.2973 0.1982 -0.4956 0.4955 -0.4956h8.424c0.2973 0 0.4955 0.1983 0.4955 0.4956v1.9821c0 0.1982 -0.1982 0.4955 -0.4955 0.4955Z" stroke-width="1"></path><path stroke="#000000" stroke-linecap="round" stroke-linejoin="round" stroke-miterlimit="10" d="M8.18289 22.9014H3.22763c-0.29732 0 -0.49553 -0.1982 -0.49553 -0.4955v-1.9822c0 -0.2973 0.19821 -0.4955 0.49553 -0.4955h4.95526c0.29732 0 0.49553 0.1982 0.49553 0.4955v1.9822c0 0.1982 -0.19821 0.4955 -0.49553 0.4955Z" stroke-width="1"></path></svg>