<svg viewBox="0 0 24 24" xmlns="http://www.w3.org/2000/svg" id="Hierarchy-Files--Streamline-Ultimate"><desc>Hierarchy Files Streamline Icon: https://streamlinehq.com</desc><path d="M16.5 23.248H21a0.75 0.75 0 0 0 0.75 -0.75v-4.939a0.75 0.75 0 0 0 -0.219 -0.53l-1.06 -1.061a0.749 0.749 0 0 0 -0.53 -0.22H16.5a0.75 0.75 0 0 0 -0.75 0.75v6a0.75 0.75 0 0 0 0.75 0.75Z" fill="none" stroke="#000000" stroke-linecap="round" stroke-linejoin="round" stroke-width="1"></path><path d="M16.5 9.748H21A0.75 0.75 0 0 0 21.75 9V4.059a0.75 0.75 0 0 0 -0.219 -0.53l-1.06 -1.061a0.749 0.749 0 0 0 -0.53 -0.22H16.5a0.75 0.75 0 0 0 -0.75 0.75V9a0.75 0.75 0 0 0 0.75 0.748Z" fill="none" stroke="#000000" stroke-linecap="round" stroke-linejoin="round" stroke-width="1"></path><path d="m2.25 0.748 0 1.5" fill="none" stroke="#000000" stroke-linecap="round" stroke-linejoin="round" stroke-width="1"></path><path d="m2.25 5.248 0 3" fill="none" stroke="#000000" stroke-linecap="round" stroke-linejoin="round" stroke-width="1"></path><path d="m2.25 11.248 0 3" fill="none" stroke="#000000" stroke-linecap="round" stroke-linejoin="round" stroke-width="1"></path><path d="M2.25 17.248v1.5a1.5 1.5 0 0 0 1.5 1.5h1.5" fill="none" stroke="#000000" stroke-linecap="round" stroke-linejoin="round" stroke-width="1"></path><path d="m8.25 20.248 3 0" fill="none" stroke="#000000" stroke-linecap="round" stroke-linejoin="round" stroke-width="1"></path><path d="m14.25 20.248 1.5 0" fill="none" stroke="#000000" stroke-linecap="round" stroke-linejoin="round" stroke-width="1"></path><path d="m2.25 6.748 3 0" fill="none" stroke="#000000" stroke-linecap="round" stroke-linejoin="round" stroke-width="1"></path><path d="m8.25 6.748 3 0" fill="none" stroke="#000000" stroke-linecap="round" stroke-linejoin="round" stroke-width="1"></path><path d="m14.25 6.748 1.5 0" fill="none" stroke="#000000" stroke-linecap="round" stroke-linejoin="round" stroke-width="1"></path></svg>