<svg viewBox="0 0 24 24" xmlns="http://www.w3.org/2000/svg" id="Hierarchy-4--Streamline-Ultimate"><desc>Hierarchy 4 Streamline Icon: https://streamlinehq.com</desc><path d="M3.75 18.748h0a6.291 6.291 0 0 1 6.545 -6h3.41a6.291 6.291 0 0 1 6.545 6h0" fill="none" stroke="#000000" stroke-linecap="round" stroke-linejoin="round" stroke-width="1"></path><path d="m12 6.748 0 12" fill="none" stroke="#000000" stroke-linecap="round" stroke-linejoin="round" stroke-width="1"></path><path d="M9 3.748a3 3 0 1 0 6 0 3 3 0 1 0 -6 0Z" fill="none" stroke="#000000" stroke-linecap="round" stroke-linejoin="round" stroke-width="1"></path><path d="M1.5 20.998a2.25 2.25 0 1 0 4.5 0 2.25 2.25 0 1 0 -4.5 0Z" fill="none" stroke="#000000" stroke-linecap="round" stroke-linejoin="round" stroke-width="1"></path><path d="M9.75 20.998a2.25 2.25 0 1 0 4.5 0 2.25 2.25 0 1 0 -4.5 0Z" fill="none" stroke="#000000" stroke-linecap="round" stroke-linejoin="round" stroke-width="1"></path><path d="M18 20.998a2.25 2.25 0 1 0 4.5 0 2.25 2.25 0 1 0 -4.5 0Z" fill="none" stroke="#000000" stroke-linecap="round" stroke-linejoin="round" stroke-width="1"></path></svg>