<svg xmlns="http://www.w3.org/2000/svg" viewBox="0 0 24 24" id="Hierarchy-6--Streamline-Ultimate"><desc>Hierarchy 6 Streamline Icon: https://streamlinehq.com</desc><defs></defs><title>hierarchy-6</title><path d="M2.25 15.748h4.5s1.5 0 1.5 1.5v4.5s0 1.5 -1.5 1.5h-4.5s-1.5 0 -1.5 -1.5v-4.5s0 -1.5 1.5 -1.5" fill="none" stroke="#000000" stroke-linecap="round" stroke-linejoin="round" stroke-width="1"></path><path d="M9.75 0.748h4.5s1.5 0 1.5 1.5v4.5s0 1.5 -1.5 1.5h-4.5s-1.5 0 -1.5 -1.5v-4.5s0 -1.5 1.5 -1.5" fill="none" stroke="#000000" stroke-linecap="round" stroke-linejoin="round" stroke-width="1"></path><path d="M17.25 15.748h4.5s1.5 0 1.5 1.5v4.5s0 1.5 -1.5 1.5h-4.5s-1.5 0 -1.5 -1.5v-4.5s0 -1.5 1.5 -1.5" fill="none" stroke="#000000" stroke-linecap="round" stroke-linejoin="round" stroke-width="1"></path><path d="M4.5 15.748v-1.5a1.5 1.5 0 0 1 1.5 -1.5h12a1.5 1.5 0 0 1 1.5 1.5v1.5" fill="none" stroke="#000000" stroke-linecap="round" stroke-linejoin="round" stroke-width="1"></path><path d="m12 8.248 0 4.5" fill="none" stroke="#000000" stroke-linecap="round" stroke-linejoin="round" stroke-width="1"></path></svg>