<svg viewBox="0 0 24 24" xmlns="http://www.w3.org/2000/svg" id="Hierarchy-7--Streamline-Ultimate"><desc>Hierarchy 7 Streamline Icon: https://streamlinehq.com</desc><path d="M0.75 18.748a4.5 4.5 0 1 0 9 0 4.5 4.5 0 1 0 -9 0Z" fill="none" stroke="#000000" stroke-linecap="round" stroke-linejoin="round" stroke-width="1"></path><path d="M14.25 18.748a4.5 4.5 0 1 0 9 0 4.5 4.5 0 1 0 -9 0Z" fill="none" stroke="#000000" stroke-linecap="round" stroke-linejoin="round" stroke-width="1"></path><path d="M7.5 5.248a4.5 4.5 0 1 0 9 0 4.5 4.5 0 1 0 -9 0Z" fill="none" stroke="#000000" stroke-linecap="round" stroke-linejoin="round" stroke-width="1"></path><path d="m16.738 14.724 -2.726 -5.451" fill="none" stroke="#000000" stroke-linecap="round" stroke-linejoin="round" stroke-width="1"></path><path d="m9.75 18.748 4.5 0" fill="none" stroke="#000000" stroke-linecap="round" stroke-linejoin="round" stroke-width="1"></path><path d="m9.988 9.273 -2.726 5.451" fill="none" stroke="#000000" stroke-linecap="round" stroke-linejoin="round" stroke-width="1"></path></svg>