<svg xmlns="http://www.w3.org/2000/svg" fill="none" viewBox="0 0 24 24" id="Logic-Chart-Organize--Streamline-Ultimate"><desc>Logic Chart Organize Streamline Icon: https://streamlinehq.com</desc><path stroke="#000000" stroke-linecap="round" stroke-linejoin="round" d="m9.625 8.75 -8 0c-0.41421 0 -0.75 0.33579 -0.75 0.75l0 5c0 0.4142 0.33579 0.75 0.75 0.75l8 0c0.4142 0 0.75 -0.3358 0.75 -0.75l0 -5c0 -0.41421 -0.3358 -0.75 -0.75 -0.75Z" stroke-width="1"></path><path stroke="#000000" stroke-linecap="round" stroke-linejoin="round" d="m10.375 12 8.25 0" stroke-width="1"></path><path stroke="#000000" stroke-linecap="round" stroke-linejoin="round" d="m18.625 21 -3 0c-0.3978 0 -0.7794 -0.158 -1.0607 -0.4393s-0.4393 -0.6629 -0.4393 -1.0607l0 -15c0 -0.39782 0.158 -0.77935 0.4393 -1.06066C14.8456 3.15804 15.2272 3 15.625 3l3 0" stroke-width="1"></path><path stroke="#000000" stroke-linecap="round" stroke-linejoin="round" d="M23.125 21c0 -1.2426 -1.0074 -2.25 -2.25 -2.25s-2.25 1.0074 -2.25 2.25 1.0074 2.25 2.25 2.25 2.25 -1.0074 2.25 -2.25Z" stroke-width="1"></path><path stroke="#000000" stroke-linecap="round" stroke-linejoin="round" d="M23.125 12c0 -1.2426 -1.0074 -2.25 -2.25 -2.25s-2.25 1.0074 -2.25 2.25 1.0074 2.25 2.25 2.25 2.25 -1.0074 2.25 -2.25Z" stroke-width="1"></path><path stroke="#000000" stroke-linecap="round" stroke-linejoin="round" d="M23.125 3c0 -1.24264 -1.0074 -2.25 -2.25 -2.25s-2.25 1.00736 -2.25 2.25 1.0074 2.25 2.25 2.25 2.25 -1.00736 2.25 -2.25Z" stroke-width="1"></path></svg>