<svg xmlns="http://www.w3.org/2000/svg" fill="none" viewBox="0 0 24 24" id="Tree-Chart-Organize--Streamline-Ultimate"><desc>Tree Chart Organize Streamline Icon: https://streamlinehq.com</desc><path stroke="#000000" stroke-linecap="round" stroke-linejoin="round" d="m10 13 6.5 0" stroke-width="1"></path><path stroke="#000000" stroke-linecap="round" stroke-linejoin="round" d="M16.5 21 12 21c-1.1046 0 -2 -0.8954 -2 -2l0 -11.75" stroke-width="1"></path><path stroke="#000000" stroke-linecap="round" stroke-linejoin="round" d="M21 21c0 -1.2426 -1.0074 -2.25 -2.25 -2.25S16.5 19.7574 16.5 21s1.0074 2.25 2.25 2.25S21 22.2426 21 21Z" stroke-width="1"></path><path stroke="#000000" stroke-linecap="round" stroke-linejoin="round" d="M21 13c0 -1.2426 -1.0074 -2.25 -2.25 -2.25S16.5 11.7574 16.5 13s1.0074 2.25 2.25 2.25S21 14.2426 21 13Z" stroke-width="1"></path><path stroke="#000000" stroke-linecap="round" stroke-linejoin="round" d="M16.25 0.75H3.75c-0.41421 0 -0.75 0.33579 -0.75 0.75v5c0 0.41421 0.33579 0.75 0.75 0.75h12.5c0.4142 0 0.75 -0.33579 0.75 -0.75v-5c0 -0.41421 -0.3358 -0.75 -0.75 -0.75Z" stroke-width="1"></path></svg>