<svg xmlns="http://www.w3.org/2000/svg" viewBox="0 0 24 24" id="Workflow-Pull-Request--Streamline-Ultimate"><desc>Workflow Pull Request Streamline Icon: https://streamlinehq.com</desc><defs></defs><path d="M17.25 20.25a3 3 0 1 0 6 0 3 3 0 1 0 -6 0" fill="none" stroke="#000000" stroke-linecap="round" stroke-linejoin="round" stroke-width="1"></path><path d="M20.25 17.25v-8.5a5 5 0 0 0 -5 -5h-4" fill="none" stroke="#000000" stroke-linecap="round" stroke-linejoin="round" stroke-width="1"></path><path d="m14.25 0.75 -3 3 3 3" fill="none" stroke="#000000" stroke-linecap="round" stroke-linejoin="round" stroke-width="1"></path><path d="M0.75 3.75a3 3 0 1 0 6 0 3 3 0 1 0 -6 0" fill="none" stroke="#000000" stroke-linecap="round" stroke-linejoin="round" stroke-width="1"></path><path d="M3.75 6.75v8.5a5 5 0 0 0 5 5h4" fill="none" stroke="#000000" stroke-linecap="round" stroke-linejoin="round" stroke-width="1"></path><path d="m9.75 23.25 3 -3 -3 -3" fill="none" stroke="#000000" stroke-linecap="round" stroke-linejoin="round" stroke-width="1"></path></svg>