<svg xmlns="http://www.w3.org/2000/svg" viewBox="0 0 24 24" id="Workflow-Milestones--Streamline-Ultimate"><desc>Workflow Milestones Streamline Icon: https://streamlinehq.com</desc><defs></defs><path d="m0.75 18.463 3.351 0" fill="none" stroke="#000000" stroke-linecap="round" stroke-linejoin="round" stroke-width="1"></path><path d="m17.984 18.463 5.266 0" fill="none" stroke="#000000" stroke-linecap="round" stroke-linejoin="round" stroke-width="1"></path><path d="m7.931 18.463 6.223 0" fill="none" stroke="#000000" stroke-linecap="round" stroke-linejoin="round" stroke-width="1"></path><path d="m21.399 16.548 1.851 1.915 -1.851 1.915" fill="none" stroke="#000000" stroke-linecap="round" stroke-linejoin="round" stroke-width="1"></path><path d="M4.101 18.463a1.915 1.915 0 1 0 3.83 0 1.915 1.915 0 1 0 -3.83 0" fill="none" stroke="#000000" stroke-linecap="round" stroke-linejoin="round" stroke-width="1"></path><path d="M14.154 18.463a1.915 1.915 0 1 0 3.83 0 1.915 1.915 0 1 0 -3.83 0" fill="none" stroke="#000000" stroke-linecap="round" stroke-linejoin="round" stroke-width="1"></path><path d="m16.069 16.548 0 -12.447" fill="none" stroke="#000000" stroke-linecap="round" stroke-linejoin="round" stroke-width="1"></path><path d="m6.016 16.548 0 -12.926" fill="none" stroke="#000000" stroke-linecap="round" stroke-linejoin="round" stroke-width="1"></path><path d="m6.016 3.622 5.745 3.756 -5.745 3.131" fill="none" stroke="#000000" stroke-linecap="round" stroke-linejoin="round" stroke-width="1"></path><path d="m16.069 4.101 5.745 3.756 -5.745 3.13" fill="none" stroke="#000000" stroke-linecap="round" stroke-linejoin="round" stroke-width="1"></path></svg>