<svg viewBox="0 0 24 24" xmlns="http://www.w3.org/2000/svg" id="Ambulance-Call--Streamline-Ultimate"><desc>Ambulance Call Streamline Icon: https://streamlinehq.com</desc><path d="m5.557 16.737 1.706 1.706a30.019 30.019 0 0 0 5.107 4.1l0.01 0.006a4.5 4.5 0 0 0 5.6 -0.614l0.629 -0.63a1.5 1.5 0 0 0 0 -2.121l-2.651 -2.652a1.5 1.5 0 0 0 -2.122 0h0a1.5 1.5 0 0 1 -2.121 0l-4.244 -4.245a1.5 1.5 0 0 1 0 -2.121h0a1.5 1.5 0 0 0 0 -2.122L4.819 5.393a1.5 1.5 0 0 0 -2.121 0l-0.63 0.629a4.5 4.5 0 0 0 -0.614 5.6l0.006 0.01a30.019 30.019 0 0 0 4.097 5.105Z" fill="none" stroke="#000000" stroke-linecap="round" stroke-linejoin="round" stroke-width="1"></path><path d="M23.25 4.5a0.75 0.75 0 0 0 -0.75 -0.75h-2.25V1.5a0.75 0.75 0 0 0 -0.75 -0.75h-3a0.75 0.75 0 0 0 -0.75 0.75v2.25H13.5a0.75 0.75 0 0 0 -0.75 0.75v3a0.75 0.75 0 0 0 0.75 0.75h2.25v2.25a0.75 0.75 0 0 0 0.75 0.75h3a0.75 0.75 0 0 0 0.75 -0.75V8.25h2.25a0.75 0.75 0 0 0 0.75 -0.75Z" fill="none" stroke="#000000" stroke-linecap="round" stroke-linejoin="round" stroke-width="1"></path></svg>