<svg viewBox="0 0 24 24" xmlns="http://www.w3.org/2000/svg" id="Ambulance-Helicopter--Streamline-Ultimate"><desc>Ambulance Helicopter Streamline Icon: https://streamlinehq.com</desc><path d="m1.145 21.75 1.5 1.5 13.5 0" fill="none" stroke="#000000" stroke-linecap="round" stroke-linejoin="round" stroke-width="1"></path><path d="M19.559 7.421a1.5 1.5 0 0 1 -1.341 0.829H9.4c-2.25 0 -8.25 1.5 -8.25 6.75a5.249 5.249 0 0 0 5.25 5.25h2.25c4.246 0 5.863 -3.381 6.445 -5.357a3.006 3.006 0 0 1 1.825 -1.963l3.2 -1.2a3 3 0 0 0 1.756 -1.756l1.033 -2.756a1.455 1.455 0 0 0 -2.664 -1.162Z" fill="none" stroke="#000000" stroke-linecap="round" stroke-linejoin="round" stroke-width="1"></path><path d="m10.145 8.25 0 -7.5" fill="none" stroke="#000000" stroke-linecap="round" stroke-linejoin="round" stroke-width="1"></path><path d="m1.145 2.25 18 0" fill="none" stroke="#000000" stroke-linecap="round" stroke-linejoin="round" stroke-width="1"></path><path d="m5.658 20.199 -0.763 3.051" fill="none" stroke="#000000" stroke-linecap="round" stroke-linejoin="round" stroke-width="1"></path><path d="m12.146 19.253 0.999 3.997" fill="none" stroke="#000000" stroke-linecap="round" stroke-linejoin="round" stroke-width="1"></path><path d="m8.645 12 0 4.5" fill="none" stroke="#000000" stroke-linecap="round" stroke-linejoin="round" stroke-width="1"></path><path d="m6.395 14.25 4.5 0" fill="none" stroke="#000000" stroke-linecap="round" stroke-linejoin="round" stroke-width="1"></path></svg>