<svg xmlns="http://www.w3.org/2000/svg" fill="none" viewBox="0 0 24 24" id="Sos--Streamline-Ultimate"><desc>Sos Streamline Icon: https://streamlinehq.com</desc><path stroke="#000000" stroke-linecap="round" stroke-linejoin="round" d="M6.49069 9.16996c-0.09318 -0.26363 -0.23696 -0.50336 -0.41968 -0.70751 -0.38865 -0.43423 -0.95344 -0.70751 -1.58206 -0.70751h-1.6429c-1.04638 0 -1.894634 0.84826 -1.894634 1.89464 0 0.89032 0.619964 1.66062 1.489754 1.85082l2.50136 0.5472c0.97441 0.2132 1.66894 1.0767 1.66894 2.0741 0 1.1723 -0.95028 2.1233 -2.12252 2.1233H3.07394c-0.92416 0 -1.71037 -0.5906 -2.00175 -1.415" stroke-width="1"></path><path stroke="#000000" stroke-linecap="round" stroke-linejoin="round" d="M22.9277 9.16996c-0.0932 -0.26363 -0.237 -0.50336 -0.4197 -0.70751 -0.3886 -0.43423 -0.9534 -0.70751 -1.582 -0.70751h-1.6429c-1.0464 0 -1.8947 0.84826 -1.8947 1.89464 0 0.89032 0.62 1.66062 1.4898 1.85082l2.5013 0.5472c0.9745 0.2132 1.669 1.0767 1.669 2.0741 0 1.1723 -0.9503 2.1233 -2.1225 2.1233h-1.4151c-0.9241 0 -1.7103 -0.5906 -2.0017 -1.415" stroke-width="1"></path><path stroke="#000000" stroke-linecap="round" stroke-linejoin="round" d="M9.17017 10.4961v3.0078c0 1.5139 1.22723 2.7411 2.74113 2.7411h0.1778c1.5139 0 2.7411 -1.2272 2.7411 -2.7411v-3.0078c0 -1.5139 -1.2272 -2.74116 -2.7411 -2.74116h-0.1778c-1.5139 0 -2.74113 1.22726 -2.74113 2.74116Z" stroke-width="1"></path></svg>