<svg viewBox="0 0 24 24" xmlns="http://www.w3.org/2000/svg" id="Lens-Horizontal--Streamline-Ultimate"><desc>Lens Horizontal Streamline Icon: https://streamlinehq.com</desc><path d="M15.0180910346 9.1752382463a6.75 3.75 45 1 0 5.3033008589 -5.3033008589 6.75 3.75 45 1 0 -5.303300859 5.303300859Z" fill="none" stroke="#000000" stroke-linecap="round" stroke-linejoin="round" stroke-width="1"></path><path d="m12.9 1.751 -8.488 8.485C2.947 11.7 3.9 15.025 6.533 17.661s5.96 3.586 7.425 2.121l8.485 -8.482" fill="none" stroke="#000000" stroke-linecap="round" stroke-linejoin="round" stroke-width="1"></path><path d="M8.655 5.994c-1.465 1.464 -0.515 4.788 2.121 7.424S16.736 17 18.2 15.54" fill="none" stroke="#000000" stroke-linecap="round" stroke-linejoin="round" stroke-width="1"></path><path d="M13.173 6.778 8.93 11.021" fill="none" stroke="#000000" stroke-linecap="round" stroke-linejoin="round" stroke-width="1"></path><path d="m17.416 11.021 -4.243 4.243" fill="none" stroke="#000000" stroke-linecap="round" stroke-linejoin="round" stroke-width="1"></path><path d="M4.005 10.805 1.227 15.7a3 3 0 0 0 0.521 3.543l2.819 2.819a3 3 0 0 0 3.3 0.636l5.433 -2.467" fill="none" stroke="#000000" stroke-linecap="round" stroke-linejoin="round" stroke-width="1"></path></svg>