<svg viewBox="0 0 24 24" xmlns="http://www.w3.org/2000/svg" id="Lens-Shutter-1--Streamline-Ultimate"><desc>Lens Shutter 1 Streamline Icon: https://streamlinehq.com</desc><path d="M0.75 12a11.25 11.25 0 1 0 22.5 0 11.25 11.25 0 1 0 -22.5 0Z" fill="none" stroke="#000000" stroke-linecap="round" stroke-linejoin="round" stroke-width="1"></path><path d="M8.576 12a3.424 3.424 0 1 0 6.848 0 3.424 3.424 0 1 0 -6.848 0Z" fill="none" stroke="#000000" stroke-linecap="round" stroke-linejoin="round" stroke-width="1"></path><path d="M12 8.576c-4.738 0 -10.058 3.73 -9.743 9.049" fill="none" stroke="#000000" stroke-linecap="round" stroke-linejoin="round" stroke-width="1"></path><path d="M9.035 10.288C6.666 14.392 7.236 20.863 12 23.25" fill="none" stroke="#000000" stroke-linecap="round" stroke-linejoin="round" stroke-width="1"></path><path d="M9.035 13.712c2.369 4.1 8.259 6.845 12.708 3.913" fill="none" stroke="#000000" stroke-linecap="round" stroke-linejoin="round" stroke-width="1"></path><path d="M12 15.424c4.738 0 10.058 -3.73 9.743 -9.049" fill="none" stroke="#000000" stroke-linecap="round" stroke-linejoin="round" stroke-width="1"></path><path d="M14.965 13.712C17.334 9.608 16.764 3.137 12 0.75" fill="none" stroke="#000000" stroke-linecap="round" stroke-linejoin="round" stroke-width="1"></path><path d="M14.965 10.288C12.6 6.184 6.706 3.443 2.257 6.375" fill="none" stroke="#000000" stroke-linecap="round" stroke-linejoin="round" stroke-width="1"></path></svg>