<svg xmlns="http://www.w3.org/2000/svg" fill="none" viewBox="0 0 24 24" id="Fast-Food-Pizza--Streamline-Ultimate"><desc>Fast Food Pizza Streamline Icon: https://streamlinehq.com</desc><path stroke="#000000" stroke-linecap="round" stroke-linejoin="round" d="m14.63 9 7.5 -3.75c-0.491 -1.22831 -1.3106 -2.29786 -2.3688 -3.09156C18.7029 1.36474 17.4467 0.877482 16.13 0.75L14.63 9Z" stroke-width="1"></path><path stroke="#000000" stroke-linecap="round" stroke-linejoin="round" d="M20 6.30001c-0.989 -1.55635 -2.5522 -2.65958 -4.35 -3.07" stroke-width="1"></path><g><path stroke="#000000" stroke-linecap="round" stroke-linejoin="round" d="m11.63 13.4401 0.63 -9.07005c0.0054 -0.08651 -0.0068 -0.17323 -0.0359 -0.25488 -0.029 -0.08166 -0.0744 -0.15655 -0.1333 -0.22014 -0.059 -0.06358 -0.1302 -0.11454 -0.2094 -0.14978 -0.0792 -0.03523 -0.1647 -0.05401 -0.2514 -0.0552 -2.086 -0.00667 -4.11952 0.65382 -5.80348 1.88501 -1.68396 1.23119 -2.93014 2.96857 -3.5565 4.95834 -0.62637 1.9898 -0.6001 4.1277 0.07496 6.1015 0.67507 1.9738 1.96355 3.68 3.67726 4.8695 1.7137 1.1894 3.76283 1.7998 5.84806 1.7418 2.0852 -0.0579 4.0973 -0.781 5.7423 -2.0638 1.6451 -1.2827 2.8369 -3.0579 3.4013 -5.0661 0.5644 -2.0082 0.472 -4.1443 -0.2639 -6.0962 -0.0373 -0.09388 -0.0929 -0.17932 -0.1637 -0.2514 -0.0707 -0.07208 -0.1551 -0.12935 -0.2482 -0.16845 -0.0931 -0.0391 -0.193 -0.05926 -0.294 -0.05929 -0.101 -0.00004 -0.201 0.02005 -0.2941 0.05909l-8.12 3.84005Z" stroke-width="1"></path><path stroke="#000000" stroke-linecap="round" stroke-linejoin="round" d="M17.73 10.5501c0.4204 0.9059 0.642 1.8913 0.65 2.89 0.0009 1.3548 -0.406 2.6785 -1.1676 3.799 -0.7617 1.1204 -1.8429 1.9858 -3.103 2.4834 -1.2601 0.4977 -2.6408 0.6046 -3.9625 0.3069 -1.3217 -0.2977 -2.52325 -0.9862 -3.44834 -1.976 -0.9251 -0.9898 -1.53094 -2.2351 -1.7387 -3.5739 -0.20777 -1.3388 -0.00786 -2.7091 0.57373 -3.9327 0.58159 -1.22367 1.51794 -2.24398 2.68726 -2.92824 1.16932 -0.68427 2.51745 -1.00083 3.86915 -0.9085" stroke-width="1"></path><path stroke="#000000" d="M9.05646 15.6851c-0.20711 0 -0.375 -0.1679 -0.375 -0.375s0.16789 -0.375 0.375 -0.375" stroke-width="1"></path><path stroke="#000000" d="M9.05646 15.6851c0.2071 0 0.375 -0.1679 0.375 -0.375s-0.1679 -0.375 -0.375 -0.375" stroke-width="1"></path><path stroke="#000000" d="M9.05646 11.9351c-0.20711 0 -0.375 -0.1679 -0.375 -0.375s0.16789 -0.375 0.375 -0.375" stroke-width="1"></path><path stroke="#000000" d="M9.05646 11.9351c0.2071 0 0.375 -0.1679 0.375 -0.375s-0.1679 -0.375 -0.375 -0.375" stroke-width="1"></path><g><path stroke="#000000" d="M14.3165 16.4451c-0.2071 0 -0.375 -0.1679 -0.375 -0.375s0.1679 -0.375 0.375 -0.375" stroke-width="1"></path><path stroke="#000000" d="M14.3165 16.4451c0.2071 0 0.375 -0.1679 0.375 -0.375s-0.1679 -0.375 -0.375 -0.375" stroke-width="1"></path></g></g></svg>