<svg id="Fast-Food-French-Fries--Streamline-Ultimate" xmlns="http://www.w3.org/2000/svg" viewBox="0 0 24 24"><desc>Fast Food French Fries Streamline Icon: https://streamlinehq.com</desc><defs></defs><title>fast-food-french-fries</title><path d="m2.731 18.33 18.538 0" fill="none" stroke="#000000" stroke-linecap="round" stroke-linejoin="round" stroke-width="1"></path><path d="M8.739 14.844 7.057 2.307a0.754 0.754 0 0 1 0.669 -0.84l2.309 -0.29a0.771 0.771 0 0 1 0.869 0.647L12.728 15.4" fill="none" stroke="#000000" stroke-linecap="round" stroke-linejoin="round" stroke-width="1"></path><path d="m3.267 9.331 -0.808 -3.495a0.745 0.745 0 0 1 0.48 -0.875L7.2 3.4" fill="none" stroke="#000000" stroke-linecap="round" stroke-linejoin="round" stroke-width="1"></path><path d="m14.643 14.9 1.691 -12.593a0.754 0.754 0 0 0 -0.669 -0.84l-2.308 -0.29a0.772 0.772 0 0 0 -0.87 0.647L11.7 7.717" fill="none" stroke="#000000" stroke-linecap="round" stroke-linejoin="round" stroke-width="1"></path><path d="m20.125 9.33 0.807 -3.494a0.745 0.745 0 0 0 -0.48 -0.875L16.188 3.4" fill="none" stroke="#000000" stroke-linecap="round" stroke-linejoin="round" stroke-width="1"></path><path d="M23.07 9.626a0.829 0.829 0 0 0 -0.638 -0.3H19.4a0.765 0.765 0 0 0 -0.765 0.635 6.713 6.713 0 0 1 -6.871 5.5 6.712 6.712 0 0 1 -6.87 -5.5 0.767 0.767 0 0 0 -0.766 -0.635h-2.56a0.829 0.829 0 0 0 -0.638 0.3 0.769 0.769 0 0 0 -0.16 0.667l2.908 11.918a0.812 0.812 0 0 0 0.8 0.619h15.046a0.812 0.812 0 0 0 0.8 -0.619l2.909 -11.918a0.776 0.776 0 0 0 -0.163 -0.667Z" fill="none" stroke="#000000" stroke-linecap="round" stroke-linejoin="round" stroke-width="1"></path></svg>