<svg xmlns="http://www.w3.org/2000/svg" fill="none" viewBox="0 0 24 24" id="Fast-Food-Tacos--Streamline-Ultimate"><desc>Fast Food Tacos Streamline Icon: https://streamlinehq.com</desc><path stroke="#000000" stroke-linecap="round" stroke-linejoin="round" d="M22.2711 9.61002c0.1319 -0.13104 0.2365 -0.28685 0.3079 -0.45847 0.0714 -0.17162 0.1081 -0.35566 0.1081 -0.54153 0 -0.18587 -0.0367 -0.36991 -0.1081 -0.54153 -0.0714 -0.17162 -0.176 -0.32743 -0.3079 -0.45847l-0.81 -0.77c-3.7 -3.54 -9.12 -3.42 -12.99997 0.25 -0.91203 0.82294 -1.64594 1.82388 -2.15653 2.94118 -0.51059 1.1173 -0.78704 2.3273 -0.81234 3.5555 -0.02529 1.2281 0.20111 2.4485 0.66526 3.5858 0.46416 1.1374 1.15623 2.1677 2.03361 3.0275L10.1111 22l12.16 -12.38998Z" stroke-width="1"></path><path stroke="#000000" stroke-linecap="round" stroke-linejoin="round" d="M18.0611 4.70947c0.2307 -0.52391 0.295 -1.1057 0.1842 -1.66711 -0.1109 -0.5614 -0.3915 -1.07551 -0.8042 -1.47318 -0.6161 -0.54766 -1.4186 -0.840232 -2.2438 -0.818 -0.8251 0.022233 -1.6107 0.3576 -2.1962 0.93763 -0.4004 0.38572 -0.6904 0.87096 -0.84 1.40565 -0.6203 -0.44134 -1.3761 -0.6521 -2.1361 -0.59564 -0.75994 0.05646 -1.47605 0.37656 -2.02389 0.90469 -0.52409 0.4996 -0.85659 1.16607 -0.94 1.88417 -0.53226 -0.11227 -1.084 -0.09283 -1.60698 0.05663 -0.52298 0.14946 -1.00126 0.42438 -1.39302 0.80072 -0.55653 0.49671 -0.90015 1.18776 -0.95972 1.93006 -0.05957 0.74231 0.16948 1.47902 0.63972 2.05761 -0.55079 0.1405 -1.05667 0.4184 -1.47 0.8075 -0.30149 0.2693 -0.54265 0.5989 -0.70775 0.9674 -0.1651 0.3684 -0.25043 0.7675 -0.25043 1.171 0 0.4036 0.08533 0.8026 0.25043 1.171 0.1651 0.3685 0.40626 0.6981 0.70775 0.9674 -0.37574 0.5482 -0.54472 1.2113 -0.477 1.8719 0.06772 0.6605 0.36777 1.2758 0.847 1.7369 0.5267 0.4878 1.2116 0.7709 1.93 0.7976 -0.1499 0.4901 -0.16106 1.0121 -0.03225 1.5081 0.12882 0.4961 0.39261 0.9471 0.76225 1.3032 0.55929 0.4873 1.26677 0.773 2.00863 0.811 0.74185 0.0379 1.47495 -0.174 2.08137 -0.6017l0.75999 -0.7177" stroke-width="1"></path><path stroke="#000000" d="M10.7275 15.755c-0.2071 0 -0.375 -0.1679 -0.375 -0.375s0.1679 -0.375 0.375 -0.375" stroke-width="1"></path><path stroke="#000000" d="M10.7275 15.755c0.2071 0 0.375 -0.1679 0.375 -0.375s-0.1679 -0.375 -0.375 -0.375" stroke-width="1"></path><path stroke="#000000" d="M9.97754 12.025c-0.20711 0 -0.375 -0.1679 -0.375 -0.375s0.16789 -0.375 0.375 -0.375" stroke-width="1"></path><path stroke="#000000" d="M9.97754 12.025c0.20706 0 0.37496 -0.1679 0.37496 -0.375s-0.1679 -0.375 -0.37496 -0.375" stroke-width="1"></path><path stroke="#000000" d="M13.7275 12.745c-0.2071 0 -0.375 -0.1679 -0.375 -0.375s0.1679 -0.375 0.375 -0.375" stroke-width="1"></path><path stroke="#000000" d="M13.7275 12.745c0.2071 0 0.375 -0.1679 0.375 -0.375s-0.1679 -0.375 -0.375 -0.375" stroke-width="1"></path><g><path stroke="#000000" d="M12.9775 9.02499c-0.2071 0 -0.375 -0.16789 -0.375 -0.375 0 -0.2071 0.1679 -0.375 0.375 -0.375" stroke-width="1"></path><path stroke="#000000" d="M12.9775 9.02499c0.2071 0 0.375 -0.16789 0.375 -0.375 0 -0.2071 -0.1679 -0.375 -0.375 -0.375" stroke-width="1"></path></g><g><path stroke="#000000" d="M16.7225 9.75c-0.2071 0 -0.375 -0.16789 -0.375 -0.375s0.1679 -0.375 0.375 -0.375" stroke-width="1"></path><path stroke="#000000" d="M16.7225 9.75c0.2071 0 0.375 -0.16789 0.375 -0.375S16.9296 9 16.7225 9" stroke-width="1"></path></g></svg>