<svg xmlns="http://www.w3.org/2000/svg" viewBox="0 0 24 24" id="Walkman-Play--Streamline-Ultimate"><desc>Walkman Play Streamline Icon: https://streamlinehq.com</desc><g><path d="M14 15a1.5 1.5 0 1 0 3 0 1.5 1.5 0 1 0 -3 0" fill="none" stroke="#000000" stroke-linecap="round" stroke-linejoin="round" stroke-width="1"></path><path d="M7 15a1.5 1.5 0 1 0 3 0 1.5 1.5 0 1 0 -3 0" fill="none" stroke="#000000" stroke-linecap="round" stroke-linejoin="round" stroke-width="1"></path><path d="M7.06 5.19 4.44 7.81" fill="none" stroke="#000000" stroke-linecap="round" stroke-linejoin="round" stroke-width="1"></path><path d="M7.06 7.81 4.44 5.19" fill="none" stroke="#000000" stroke-linecap="round" stroke-linejoin="round" stroke-width="1"></path><path d="m19.56 5.19 -2.62 2.62" fill="none" stroke="#000000" stroke-linecap="round" stroke-linejoin="round" stroke-width="1"></path><path d="m19.56 7.81 -2.62 -2.62" fill="none" stroke="#000000" stroke-linecap="round" stroke-linejoin="round" stroke-width="1"></path><path d="M14.75 19h-5.5a1.5 1.5 0 0 0 -1.5 1.5v2h8.5v-2a1.5 1.5 0 0 0 -1.5 -1.5Z" fill="none" stroke="#000000" stroke-linecap="round" stroke-linejoin="round" stroke-width="1"></path><path d="M13.25 6.5a5 5 0 1 0 10 0 5 5 0 1 0 -10 0" fill="none" stroke="#000000" stroke-linecap="round" stroke-linejoin="round" stroke-width="1"></path><path d="M0.75 6.5a5 5 0 1 0 10 0 5 5 0 1 0 -10 0" fill="none" stroke="#000000" stroke-linecap="round" stroke-linejoin="round" stroke-width="1"></path><path d="M20.25 11.08V21a1.5 1.5 0 0 1 -1.5 1.5H5.25a1.5 1.5 0 0 1 -1.5 -1.5v-9.92" fill="none" stroke="#000000" stroke-linecap="round" stroke-linejoin="round" stroke-width="1"></path><path d="m10.33 8.5 3.34 0" fill="none" stroke="#000000" stroke-linecap="round" stroke-linejoin="round" stroke-width="1"></path></g></svg>