<svg viewBox="0 0 24 24" xmlns="http://www.w3.org/2000/svg" id="Project-Blueprint-Buildings--Streamline-Ultimate"><desc>Project Blueprint Buildings Streamline Icon: https://streamlinehq.com</desc><path d="M0.75 20.25a3 3 0 1 0 6 0 3 3 0 1 0 -6 0Z" fill="none" stroke="#000000" stroke-linecap="round" stroke-linejoin="round" stroke-width="1"></path><path d="M0.75 20.25V3.75a3 3 0 0 1 6 0v16.5" fill="none" stroke="#000000" stroke-linecap="round" stroke-linejoin="round" stroke-width="1"></path><path d="M3.75 23.25h18a1.5 1.5 0 0 0 1.5 -1.5V6a1.5 1.5 0 0 0 -1.5 -1.5h-15" fill="none" stroke="#000000" stroke-linecap="round" stroke-linejoin="round" stroke-width="1"></path><path d="M12 18.75h6V9a0.75 0.75 0 0 0 -0.75 -0.75h-4.5A0.75 0.75 0 0 0 12 9Z" fill="none" stroke="#000000" stroke-linecap="round" stroke-linejoin="round" stroke-width="1"></path><path d="m15 12 3 0" fill="none" stroke="#000000" stroke-linecap="round" stroke-linejoin="round" stroke-width="1"></path><path d="m15 15 3 0" fill="none" stroke="#000000" stroke-linecap="round" stroke-linejoin="round" stroke-width="1"></path><path d="m19.5 18.75 -1.5 0" fill="none" stroke="#000000" stroke-linecap="round" stroke-linejoin="round" stroke-width="1"></path><path d="m12 18.75 -1.5 0" fill="none" stroke="#000000" stroke-linecap="round" stroke-linejoin="round" stroke-width="1"></path></svg>