<svg viewBox="0 0 24 24" xmlns="http://www.w3.org/2000/svg" id="Project-Blueprint-Create--Streamline-Ultimate"><desc>Project Blueprint Create Streamline Icon: https://streamlinehq.com</desc><path d="m13.045 14.137 -3.712 0.53 0.53 -3.712 9.546 -9.546a2.25 2.25 0 0 1 3.182 3.182Z" fill="none" stroke="#000000" stroke-linecap="round" stroke-linejoin="round" stroke-width="1"></path><path d="M23.25 8.25v13.5a1.5 1.5 0 0 1 -1.5 1.5H2.25a1.5 1.5 0 0 1 -1.5 -1.5V5.25a1.5 1.5 0 0 1 1.5 -1.5h10.5" fill="none" stroke="#000000" stroke-linecap="round" stroke-linejoin="round" stroke-width="1"></path><path d="m9 6.75 -5.25 0 0 13.5 16.5 0 0 -9" fill="none" stroke="#000000" stroke-linecap="round" stroke-linejoin="round" stroke-width="1"></path><path d="m3.75 11.25 3 0" fill="none" stroke="#000000" stroke-linecap="round" stroke-linejoin="round" stroke-width="1"></path><path d="m3.75 17.25 4.5 0 0 3" fill="none" stroke="#000000" stroke-linecap="round" stroke-linejoin="round" stroke-width="1"></path><path d="m15.75 17.25 4.5 0" fill="none" stroke="#000000" stroke-linecap="round" stroke-linejoin="round" stroke-width="1"></path><path d="m17.25 14.25 3 0" fill="none" stroke="#000000" stroke-linecap="round" stroke-linejoin="round" stroke-width="1"></path></svg>