<svg xmlns="http://www.w3.org/2000/svg" fill="none" viewBox="0 0 24 24" id="Anatomical--Streamline-Ultimate"><desc>Anatomical Streamline Icon: https://streamlinehq.com</desc><path stroke="#000000" stroke-linecap="round" stroke-linejoin="round" stroke-miterlimit="10" d="M12 7.75c1.933 0 3.5 -1.567 3.5 -3.5S13.933 0.75 12 0.75s-3.5 1.567 -3.5 3.5 1.567 3.5 3.5 3.5Z" stroke-width="1"></path><path stroke="#000000" stroke-linecap="round" stroke-linejoin="round" stroke-miterlimit="10" d="m14.2 22.05 -2.2 -5.1 -2.19999 5.1c-0.3 0.7 -1.1 1.2 -1.8 1.2 -0.3 0 -0.6 -0.1 -0.8 -0.2 -1 -0.5 -1.4 -1.6 -1 -2.6l3.1 -7.2v-1.3l-5.5 -2.19999c-1 -0.4 -1.50001 -1.5 -1.10001 -2.5C3.12785 6.18039 4.2016 5.61064 5.30001 6.05c1.09842 0.43937 2.90001 1.2 4.79999 1.9 0.616 0.25667 1.2584 0.38158 1.9 0.37474 0.6417 0.00684 1.284 -0.11807 1.9 -0.37474 1.9 -0.7 3.7016 -1.46063 4.8 -1.9 1.0984 -0.43936 2.1722 0.13039 2.6 1.20001 0.4 1 -0.1 2.1 -1.1 2.5L14.7 11.95v1.3l3.1 7.2c0.4 1 0 2.1 -1 2.6 -0.2 0.1 -0.5 0.2 -0.8 0.2 -0.7 0 -1.5 -0.5 -1.8 -1.2Z" stroke-width="1"></path><path stroke="#000000" stroke-linecap="round" stroke-linejoin="round" stroke-miterlimit="10" d="M20.2 9.72812c1.3 0.2 2.1 1.49998 1.7 2.59998 -0.4 1 -1.5 1.6 -2.5 1.2" stroke-width="1"></path><path stroke="#000000" stroke-linecap="round" stroke-linejoin="round" stroke-miterlimit="10" d="M20.7 20.45c0.6 -0.9 0.3 -2.2 -0.6 -2.7l-4.8 -3.1" stroke-width="1"></path><path stroke="#000000" stroke-linecap="round" stroke-linejoin="round" stroke-miterlimit="10" d="M3.80002 9.72812c-1.3 0.2 -2.1 1.49998 -1.7 2.59998 0.4 1 1.5 1.6 2.5 1.2" stroke-width="1"></path><path stroke="#000000" stroke-linecap="round" stroke-linejoin="round" stroke-miterlimit="10" d="M3.30001 20.45c-0.6 -0.9 -0.30001 -2.2 0.59999 -2.7l4.80001 -3.1" stroke-width="1"></path></svg>