<svg viewBox="0 0 24 24" xmlns="http://www.w3.org/2000/svg" id="Medical-Specialty-Hearing-1--Streamline-Ultimate"><desc>Medical Specialty Hearing 1 Streamline Icon: https://streamlinehq.com</desc><path d="M9.75 6a6.5 6.5 0 0 1 5.3 -5.1 6.758 6.758 0 0 1 8.2 6.6 7.951 7.951 0 0 1 -2.835 6.115A3.831 3.831 0 0 0 18.7 17.25a10.955 10.955 0 0 1 -0.046 2.416 4.5 4.5 0 0 1 -8.904 -0.916" fill="none" stroke="#000000" stroke-linecap="round" stroke-linejoin="round" stroke-width="1"></path><path d="M12.942 7.67a2.75 2.75 0 1 1 5.457 0.682" fill="none" stroke="#000000" stroke-linecap="round" stroke-linejoin="round" stroke-width="1"></path><path d="m0.75 11.25 1.5 0 2.25 -3 2.25 6 3 -3 1.5 0" fill="none" stroke="#000000" stroke-linecap="round" stroke-linejoin="round" stroke-width="1"></path></svg>