<svg viewBox="0 0 24 24" xmlns="http://www.w3.org/2000/svg" id="Medical-Specialty-Feet--Streamline-Ultimate"><desc>Medical Specialty Feet Streamline Icon: https://streamlinehq.com</desc><path d="M10.934 6.235A3.644 3.644 0 0 0 6.5 9.792a4.786 4.786 0 0 0 2.646 4.281A6.069 6.069 0 0 1 12.5 19.5a3.75 3.75 0 0 0 7.5 0v-6.437a6 6 0 0 0 -4.7 -5.857Z" fill="none" stroke="#000000" stroke-linecap="round" stroke-linejoin="round" stroke-width="1"></path><path d="M3.5 3A2.25 2.25 0 1 0 8 3a2.25 2.25 0 1 0 -4.5 0Z" fill="none" stroke="#000000" stroke-linecap="round" stroke-linejoin="round" stroke-width="1"></path><path d="M11 2.25a1.5 1.5 0 1 0 3 0 1.5 1.5 0 1 0 -3 0Z" fill="none" stroke="#000000" stroke-linecap="round" stroke-linejoin="round" stroke-width="1"></path><path d="M17 3.75a1.5 1.5 0 1 0 3 0 1.5 1.5 0 1 0 -3 0Z" fill="none" stroke="#000000" stroke-linecap="round" stroke-linejoin="round" stroke-width="1"></path></svg>