<svg viewBox="0 0 24 24" xmlns="http://www.w3.org/2000/svg" id="Medical-Specialty-Pregnancy--Streamline-Ultimate"><desc>Medical Specialty Pregnancy Streamline Icon: https://streamlinehq.com</desc><path d="M4.5 23.25v-1.5a1.5 1.5 0 0 1 1.5 -1.5c0.75 0 0.75 3 7.5 3s9 -6 9 -9C22.5 7.5 18 3.75 12 3.75a1.5 1.5 0 0 1 -1.5 -1.5V0.75" fill="none" stroke="#000000" stroke-linecap="round" stroke-linejoin="round" stroke-width="1"></path><path d="M1.5 23.25v-1.5a4.505 4.505 0 0 1 4.5 -4.5c1.5 0 6.144 -5.633 4.737 -10.682" fill="none" stroke="#000000" stroke-linecap="round" stroke-linejoin="round" stroke-width="1"></path><path d="M12 6.75a4.505 4.505 0 0 1 -4.5 -4.5V0.75" fill="none" stroke="#000000" stroke-linecap="round" stroke-linejoin="round" stroke-width="1"></path><path d="M13.5 20.25c1.5 0 4.5 -0.75 4.5 -3S15.75 15 15 15s-4.5 2.25 -4.5 3.75 1.5 1.5 3 1.5Z" fill="none" stroke="#000000" stroke-linecap="round" stroke-linejoin="round" stroke-width="1"></path></svg>