<svg viewBox="0 0 24 24" xmlns="http://www.w3.org/2000/svg" id="Medical-Specialty-Ear--Streamline-Ultimate"><desc>Medical Specialty Ear Streamline Icon: https://streamlinehq.com</desc><path d="M10.147 15a3.5 3.5 0 0 0 -0.447 2.25 10.955 10.955 0 0 1 -0.046 2.416A4.5 4.5 0 0 1 0.75 18.75" fill="none" stroke="#000000" stroke-linecap="round" stroke-linejoin="round" stroke-width="1"></path><path d="M0.75 6A6.5 6.5 0 0 1 6.049 0.9a6.762 6.762 0 0 1 7.064 2.85" fill="none" stroke="#000000" stroke-linecap="round" stroke-linejoin="round" stroke-width="1"></path><path d="M3.942 7.67A2.751 2.751 0 0 1 8.25 5.759" fill="none" stroke="#000000" stroke-linecap="round" stroke-linejoin="round" stroke-width="1"></path><path d="M15.75 6.75h6.5a1 1 0 0 1 1 1v4a1 1 0 0 1 -1 1h-6.5l0 0v-6l0 0Z" fill="none" stroke="#000000" stroke-linecap="round" stroke-linejoin="round" stroke-width="1"></path><path d="M23.25 23.25v-1.5a1.5 1.5 0 0 0 -1.5 -1.5h-4.5a1.5 1.5 0 0 0 -1.5 1.5v1.5" fill="none" stroke="#000000" stroke-linecap="round" stroke-linejoin="round" stroke-width="1"></path><path d="m19.5 12.75 0 7.5" fill="none" stroke="#000000" stroke-linecap="round" stroke-linejoin="round" stroke-width="1"></path><path d="M9.75 11.25a11.541 11.541 0 0 1 6 1.5v-6a11.541 11.541 0 0 1 -6 1.5Z" fill="none" stroke="#000000" stroke-linecap="round" stroke-linejoin="round" stroke-width="1"></path></svg>