<svg viewBox="0 0 24 24" xmlns="http://www.w3.org/2000/svg" id="Medical-Specialty-Liver--Streamline-Ultimate"><desc>Medical Specialty Liver Streamline Icon: https://streamlinehq.com</desc><path d="M3.068 20.25A2.318 2.318 0 0 1 0.75 17.932V11.25A10.5 10.5 0 0 1 11.25 0.75h8.964a3.036 3.036 0 0 1 3.036 3.036 6 6 0 0 1 -4.276 5.747l-7.62 2.286A7.5 7.5 0 0 0 6.8 15.648l-1.66 3.321a2.319 2.319 0 0 1 -2.072 1.281Z" fill="none" stroke="#000000" stroke-linecap="round" stroke-linejoin="round" stroke-width="1"></path><path d="M5.165 18.92c2.173 0.143 6.085 -0.128 6.085 -3.92 0 0 6.633 1.327 7.423 -5.377" fill="none" stroke="#000000" stroke-linecap="round" stroke-linejoin="round" stroke-width="1"></path><path d="m8.25 18.693 0 4.557" fill="none" stroke="#000000" stroke-linecap="round" stroke-linejoin="round" stroke-width="1"></path><path d="m11.25 15 0 8.25" fill="none" stroke="#000000" stroke-linecap="round" stroke-linejoin="round" stroke-width="1"></path><path d="M14.25 0.75c-2.25 0 -4.5 2.25 -4.5 6" fill="none" stroke="#000000" stroke-linecap="round" stroke-linejoin="round" stroke-width="1"></path></svg>