<svg viewBox="0 0 24 24" xmlns="http://www.w3.org/2000/svg" id="Medical-Specialty-Hearing--Streamline-Ultimate"><desc>Medical Specialty Hearing Streamline Icon: https://streamlinehq.com</desc><path d="M0.75 6A6.5 6.5 0 0 1 6.049 0.9a6.758 6.758 0 0 1 8.2 6.6 7.951 7.951 0 0 1 -2.835 6.115A3.831 3.831 0 0 0 9.7 17.25a10.955 10.955 0 0 1 -0.046 2.416A4.5 4.5 0 0 1 0.75 18.75" fill="none" stroke="#000000" stroke-linecap="round" stroke-linejoin="round" stroke-width="1"></path><path d="M3.942 7.67a2.75 2.75 0 1 1 5.458 0.682" fill="none" stroke="#000000" stroke-linecap="round" stroke-linejoin="round" stroke-width="1"></path><path d="m23.25 9.75 -4.5 0" fill="none" stroke="#000000" stroke-linecap="round" stroke-linejoin="round" stroke-width="1"></path><path d="m18.75 5.25 3 -3" fill="none" stroke="#000000" stroke-linecap="round" stroke-linejoin="round" stroke-width="1"></path><path d="m18.75 14.25 3 3" fill="none" stroke="#000000" stroke-linecap="round" stroke-linejoin="round" stroke-width="1"></path></svg>