<svg viewBox="0 0 24 24" xmlns="http://www.w3.org/2000/svg" id="Breakfast-Cereal--Streamline-Ultimate"><desc>Breakfast Cereal Streamline Icon: https://streamlinehq.com</desc><path d="M22.5 12v2.3a8.946 8.946 0 0 1 -8.946 8.946h-3.108A8.946 8.946 0 0 1 1.5 14.3V12" fill="none" stroke="#000000" stroke-linecap="round" stroke-linejoin="round" stroke-width="1"></path><path d="M19.828 9.011c1.64 0.794 2.672 1.846 2.672 2.989 0 2.485 -4.7 4.5 -10.5 4.5S1.5 14.485 1.5 12c0 -2.645 5.324 -4.757 11.629 -4.475" fill="none" stroke="#000000" stroke-linecap="round" stroke-linejoin="round" stroke-width="1"></path><path d="M19.549 10.915a0.751 0.751 0 0 1 -0.361 0.537 4.732 4.732 0 0 1 -3.556 0.394 0.751 0.751 0 0 1 -0.559 -0.984l3.245 -9.249a1.294 1.294 0 0 1 1.526 -0.826h0a1.293 1.293 0 0 1 0.974 1.436Z" fill="none" stroke="#000000" stroke-linecap="round" stroke-linejoin="round" stroke-width="1"></path><path d="M8.839 12a1.868 1.868 0 0 0 -3.428 0" fill="none" stroke="#000000" stroke-linecap="round" stroke-linejoin="round" stroke-width="1"></path><path d="M14.25 14.25a1.5 1.5 0 0 0 -1.339 -1.125 1.5 1.5 0 0 0 -1.339 1.125" fill="none" stroke="#000000" stroke-linecap="round" stroke-linejoin="round" stroke-width="1"></path></svg>