<svg xmlns="http://www.w3.org/2000/svg" viewBox="0 0 24 24" id="Breakfast-Bread-Toast--Streamline-Ultimate"><desc>Breakfast Bread Toast Streamline Icon: https://streamlinehq.com</desc><g><path d="M20.25 5.25a2.25 2.25 0 0 0 0 -4.5h-13a2.25 2.25 0 0 0 0 4.5v4.5h13Z" fill="none" stroke="#000000" stroke-linecap="round" stroke-linejoin="round" stroke-width="1"></path><path d="M7.25 9.75h13a3 3 0 0 1 3 3v9a1.5 1.5 0 0 1 -1.5 1.5h-16a1.5 1.5 0 0 1 -1.5 -1.5v-9a3 3 0 0 1 3 -3Z" fill="none" stroke="#000000" stroke-linecap="round" stroke-linejoin="round" stroke-width="1"></path><path d="M2.25 18.25h2v-5.5h-2a1.5 1.5 0 0 0 -1.5 1.5v2.5a1.5 1.5 0 0 0 1.5 1.5Z" fill="none" stroke="#000000" stroke-linecap="round" stroke-linejoin="round" stroke-width="1"></path><path d="M14.25 17.25a3 3 0 1 0 6 0 3 3 0 1 0 -6 0" fill="none" stroke="#000000" stroke-linecap="round" stroke-linejoin="round" stroke-width="1"></path><path d="m14.25 17.25 -1.5 0" fill="none" stroke="#000000" stroke-linecap="round" stroke-linejoin="round" stroke-width="1"></path></g></svg>