<svg xmlns="http://www.w3.org/2000/svg" viewBox="0 0 24 24" id="Breakfast-Croissant--Streamline-Ultimate"><desc>Breakfast Croissant Streamline Icon: https://streamlinehq.com</desc><g><g><path d="M14.77 8.84a0.88 0.88 0 0 1 -0.77 0.56h-4a0.88 0.88 0 0 1 -0.81 -0.56L7 3.14a0.87 0.87 0 0 1 0.4 -1.05 8.43 8.43 0 0 1 9.13 0 0.87 0.87 0 0 1 0.38 1.05Z" fill="none" stroke="#000000" stroke-linecap="round" stroke-linejoin="round" stroke-width="1"></path><path d="m9.1 8.68 -2.65 1a0.66 0.66 0 0 1 -0.73 -0.18L2.64 6.08a0.61 0.61 0 0 1 0 -0.84 7.53 7.53 0 0 1 4.45 -1.93" fill="none" stroke="#000000" stroke-linecap="round" stroke-linejoin="round" stroke-width="1"></path><path d="M2.7 6.14A6.18 6.18 0 0 0 0.93 12a0.77 0.77 0 0 0 0.53 0.57 0.67 0.67 0 0 0 0.75 -0.2 6.28 6.28 0 0 1 3.26 -3.12" fill="none" stroke="#000000" stroke-linecap="round" stroke-linejoin="round" stroke-width="1"></path><path d="m14.84 8.66 2.71 1.05a0.66 0.66 0 0 0 0.73 -0.18l3.08 -3.45a0.61 0.61 0 0 0 0 -0.84 7.47 7.47 0 0 0 -4.54 -1.93" fill="none" stroke="#000000" stroke-linecap="round" stroke-linejoin="round" stroke-width="1"></path><path d="M21.3 6.14A6.18 6.18 0 0 1 23.07 12a0.77 0.77 0 0 1 -0.53 0.57 0.67 0.67 0 0 1 -0.75 -0.2 6.28 6.28 0 0 0 -3.26 -3.15" fill="none" stroke="#000000" stroke-linecap="round" stroke-linejoin="round" stroke-width="1"></path></g><g><path d="M21 23.25a2.25 2.25 0 1 0 -1.61 -3.82 3 3 0 0 0 -2.89 -2.18 3 3 0 0 0 -2.25 1 3 3 0 0 0 -4.5 0 3 3 0 0 0 -2.25 -1 3 3 0 0 0 -2.89 2.18A2.25 2.25 0 1 0 3 23.25Z" fill="none" stroke="#000000" stroke-linecap="round" stroke-linejoin="round" stroke-width="1"></path><path d="M4.61 19.43A2.23 2.23 0 0 1 5.25 21" fill="none" stroke="#000000" stroke-linecap="round" stroke-linejoin="round" stroke-width="1"></path><path d="M9.75 18.27a3 3 0 0 1 0.75 2" fill="none" stroke="#000000" stroke-linecap="round" stroke-linejoin="round" stroke-width="1"></path><path d="M14.25 18.27a3 3 0 0 1 0.75 2" fill="none" stroke="#000000" stroke-linecap="round" stroke-linejoin="round" stroke-width="1"></path><path d="M19.39 19.43a3.18 3.18 0 0 1 0.11 0.82" fill="none" stroke="#000000" stroke-linecap="round" stroke-linejoin="round" stroke-width="1"></path></g></g></svg>