<svg viewBox="0 0 24 24" xmlns="http://www.w3.org/2000/svg" id="Breakfast-Croissant-2--Streamline-Ultimate"><desc>Breakfast Croissant 2 Streamline Icon: https://streamlinehq.com</desc><path d="M13.534 13.618c2.676 0.687 4.895 3.137 5.985 6.432a1.493 1.493 0 0 0 2.765 0.176A11.254 11.254 0 0 0 17.605 5.9" fill="none" stroke="#000000" stroke-linecap="round" stroke-linejoin="round" stroke-width="1"></path><path d="M6.4 5.914a11.243 11.243 0 0 0 -4.725 14.219 1.5 1.5 0 0 0 2.807 -0.086c1.091 -3.293 3.308 -5.742 5.984 -6.429" fill="none" stroke="#000000" stroke-linecap="round" stroke-linejoin="round" stroke-width="1"></path><path d="M12 14.173c2.926 0 4.939 -5.937 5.682 -8.545a1.5 1.5 0 0 0 -0.891 -1.807A12.755 12.755 0 0 0 12 2.923a12.755 12.755 0 0 0 -4.791 0.9 1.5 1.5 0 0 0 -0.891 1.807c0.743 2.606 2.756 8.543 5.682 8.543Z" fill="none" stroke="#000000" stroke-linecap="round" stroke-linejoin="round" stroke-width="1"></path><path d="m1.415 11.853 5.184 4.32" fill="none" stroke="#000000" stroke-linecap="round" stroke-linejoin="round" stroke-width="1"></path><path d="m17.401 16.173 5.196 -4.33" fill="none" stroke="#000000" stroke-linecap="round" stroke-linejoin="round" stroke-width="1"></path></svg>