<svg xmlns="http://www.w3.org/2000/svg" fill="none" viewBox="0 0 24 24" id="Military-Ground-Drone-1--Streamline-Ultimate"><desc>Military Ground Drone 1 Streamline Icon: https://streamlinehq.com</desc><path stroke="#000000" d="M4.75 20.125c-0.20711 0 -0.375 -0.1679 -0.375 -0.375s0.16789 -0.375 0.375 -0.375" stroke-width="1"></path><path stroke="#000000" d="M4.75 20.125c0.20711 0 0.375 -0.1679 0.375 -0.375s-0.16789 -0.375 -0.375 -0.375" stroke-width="1"></path><path stroke="#000000" d="M9.5 20.125c-0.20711 0 -0.375 -0.1679 -0.375 -0.375s0.16789 -0.375 0.375 -0.375" stroke-width="1"></path><path stroke="#000000" d="M9.5 20.125c0.20711 0 0.375 -0.1679 0.375 -0.375s-0.16789 -0.375 -0.375 -0.375" stroke-width="1"></path><path stroke="#000000" d="M14.25 20.125c-0.2071 0 -0.375 -0.1679 -0.375 -0.375s0.1679 -0.375 0.375 -0.375" stroke-width="1"></path><path stroke="#000000" d="M14.25 20.125c0.2071 0 0.375 -0.1679 0.375 -0.375s-0.1679 -0.375 -0.375 -0.375" stroke-width="1"></path><path stroke="#000000" d="M19 20.125c-0.2071 0 -0.375 -0.1679 -0.375 -0.375s0.1679 -0.375 0.375 -0.375" stroke-width="1"></path><path stroke="#000000" d="M19 20.125c0.2071 0 0.375 -0.1679 0.375 -0.375s-0.1679 -0.375 -0.375 -0.375" stroke-width="1"></path><path stroke="#000000" stroke-linecap="round" stroke-linejoin="round" d="M2.00098 12.75H18.75" stroke-width="1"></path><path stroke="#000000" stroke-linecap="round" stroke-linejoin="round" d="M23 19.75c0 0.9283 -0.3687 1.8185 -1.0251 2.4749 -0.6564 0.6564 -1.5466 1.0251 -2.4749 1.0251H4.25c-0.92826 0 -1.8185 -0.3687 -2.47487 -1.0251C1.11875 21.5685 0.75 20.6783 0.75 19.75c0 -0.9283 0.36875 -1.8185 1.02513 -2.4749C2.4315 16.6187 3.32174 16.25 4.25 16.25H19.5c0.9283 0 1.8185 0.3687 2.4749 1.0251C22.6313 17.9315 23 18.8217 23 19.75Z" stroke-width="1"></path><path stroke="#000000" stroke-linecap="round" stroke-linejoin="round" d="M23.249 0.75v1.5H19.5" stroke-width="1"></path><path stroke="#000000" stroke-linecap="round" stroke-linejoin="round" d="M12.505 2.25H19.5l-1.086 2.171c-0.1246 0.24903 -0.316 0.45847 -0.5528 0.60488 -0.2368 0.14642 -0.5098 0.22402 -0.7882 0.22412h-3.264" stroke-width="1"></path><path stroke="#000000" stroke-linecap="round" stroke-linejoin="round" d="M6.75 8.25h8.5c0.2652 0 0.5196 0.10536 0.7071 0.29289 0.1875 0.18754 0.2929 0.44189 0.2929 0.70711v3.5H5.75v-3.5c0 -0.26522 0.10536 -0.51957 0.29289 -0.70711 0.18754 -0.18753 0.44189 -0.29289 0.70711 -0.29289Z" stroke-width="1"></path><path stroke="#000000" stroke-linecap="round" stroke-linejoin="round" d="M14.5 8.25h-7L8.55 3.7c0.12752 -0.5543 0.43924 -1.04898 0.88424 -1.40323 0.445 -0.35424 0.99696 -0.54712 1.56576 -0.54712 0.5688 0 1.1208 0.19288 1.5658 0.54712 0.445 0.35425 0.7567 0.84893 0.8842 1.40323l1.05 4.55Z" stroke-width="1"></path><path stroke="#000000" stroke-linecap="round" stroke-linejoin="round" d="M9.495 2.25H6.75v-0.5c0 -0.26522 -0.10536 -0.51957 -0.29289 -0.70711C6.26957 0.855357 6.01522 0.75 5.75 0.75h-0.5c-0.53043 0 -1.03914 0.210714 -1.41421 0.58579C3.46071 1.71086 3.25 2.21957 3.25 2.75v1c0 0.53043 0.21071 1.03914 0.58579 1.41421 0.37507 0.37508 0.88378 0.58579 1.41421 0.58579h2.827" stroke-width="1"></path><path stroke="#000000" stroke-linecap="round" stroke-linejoin="round" d="m3.60498 12.75 -2.5 -6" stroke-width="1"></path></svg>