<svg xmlns="http://www.w3.org/2000/svg" viewBox="0 0 24 24" id="Military-Drone--Streamline-Ultimate"><desc>Military Drone Streamline Icon: https://streamlinehq.com</desc><defs></defs><path d="m12 19.75 0 3.5" fill="none" stroke="#000000" stroke-linecap="round" stroke-linejoin="round" stroke-width="1"></path><path d="m10 22.25 4 0" fill="none" stroke="#000000" stroke-linecap="round" stroke-linejoin="round" stroke-width="1"></path><path d="M22.25 8.25h-8.737L13.5 7.2a4.441 4.441 0 0 0 0.916 -2.82A3.783 3.783 0 0 0 12 0.75a3.783 3.783 0 0 0 -2.417 3.625A4.441 4.441 0 0 0 10.5 7.2l-0.013 1.05H1.75a1 1 0 0 0 -1 1v1.087a1 1 0 0 0 0.909 1l8.81 0.778L10.456 15H8a1 1 0 0 0 -1 1v0.6a1 1 0 0 0 0.9 1l2.539 0.254 0 0.407a1.563 1.563 0 0 0 3.124 0l0 -0.407 2.537 -0.264a1 1 0 0 0 0.9 -1V16a1 1 0 0 0 -1 -1h-2.456l-0.013 -2.889 8.81 -0.778a1 1 0 0 0 0.909 -1V9.25a1 1 0 0 0 -1 -1Z" fill="none" stroke="#000000" stroke-linecap="round" stroke-linejoin="round" stroke-width="1"></path><path d="m3.25 6 0 2" fill="none" stroke="#000000" stroke-linecap="round" stroke-linejoin="round" stroke-width="1"></path><path d="m3.25 11.5 0 2" fill="none" stroke="#000000" stroke-linecap="round" stroke-linejoin="round" stroke-width="1"></path><path d="m20.75 11.5 0 2" fill="none" stroke="#000000" stroke-linecap="round" stroke-linejoin="round" stroke-width="1"></path><path d="m20.75 6 0 2" fill="none" stroke="#000000" stroke-linecap="round" stroke-linejoin="round" stroke-width="1"></path></svg>