<svg viewBox="0 0 24 24" xmlns="http://www.w3.org/2000/svg" id="Wine-Glass-Bottle--Streamline-Ultimate"><desc>Wine Glass Bottle Streamline Icon: https://streamlinehq.com</desc><path d="M13.811 9.311 11.25 6.75V1.5a0.75 0.75 0 0 0 -0.75 -0.75H9a0.75 0.75 0 0 0 -0.75 0.75v5.25L5.689 9.311a1.5 1.5 0 0 0 -0.439 1.06V21.75a1.5 1.5 0 0 0 1.5 1.5h3.75" fill="none" stroke="#000000" stroke-linecap="round" stroke-linejoin="round" stroke-width="1"></path><path d="m8.25 4.5 3 0" fill="none" stroke="#000000" stroke-linecap="round" stroke-linejoin="round" stroke-width="1"></path><path d="M18.75 15.682a3 3 0 1 1 -6 0V12h6Z" fill="none" stroke="#000000" stroke-linecap="round" stroke-linejoin="round" stroke-width="1"></path><path d="m15.75 18.75 0 4.5" fill="none" stroke="#000000" stroke-linecap="round" stroke-linejoin="round" stroke-width="1"></path><path d="m18 23.25 -4.5 0" fill="none" stroke="#000000" stroke-linecap="round" stroke-linejoin="round" stroke-width="1"></path></svg>