<svg xmlns="http://www.w3.org/2000/svg" viewBox="0 0 24 24" id="Wine-Opener--Streamline-Ultimate"><desc>Wine Opener Streamline Icon: https://streamlinehq.com</desc><g><path d="m9.9760991925 1.402702397 0 0s1.576848122 -1.576848122 3.153696244 0l9.4540176645 9.4540176645s1.576848122 1.576848122 0 3.1536962441l0 0s-1.576848122 1.576848122 -3.153696244 0L9.9760991924 4.5563986411s-1.576848122 -1.576848122 0 -3.153696244" fill="none" stroke="#000000" stroke-linecap="round" stroke-linejoin="round" stroke-width="1"></path><path d="M14.72 9.29 13 11.06a1 1 0 0 1 -1 0.16l-2.67 -0.74a0.88 0.88 0 0 0 -1 0.29 0.86 0.86 0 0 0 -0.07 1l3.09 3.59a0.86 0.86 0 0 1 -0.13 1.07 0.85 0.85 0 0 1 -1.06 0.13l-4.38 -2.1A0.87 0.87 0 0 0 4.6 15.7l2.85 3.53a0.87 0.87 0 0 1 -1.1 1.29L5.07 20a0.88 0.88 0 0 0 -1.12 0.1L0.76 23.25" fill="none" stroke="#000000" stroke-linecap="round" stroke-linejoin="round" stroke-width="1"></path></g></svg>