<svg xmlns="http://www.w3.org/2000/svg" viewBox="0 0 24 24" id="Download-Arrow-1--Streamline-Ultimate"><desc>Download Arrow 1 Streamline Icon: https://streamlinehq.com</desc><defs></defs><title>download-arrow-1</title><path d="m14.251 15 0 -5.25 -4.5 0 0 5.25 -3 0 5.25 5.25 5.25 -5.25 -3 0z" fill="none" stroke="#000000" stroke-linecap="round" stroke-linejoin="round" stroke-width="1"></path><path d="M2.251 6.75h19.5s1.5 0 1.5 1.5v13.5s0 1.5 -1.5 1.5h-19.5s-1.5 0 -1.5 -1.5V8.25s0 -1.5 1.5 -1.5" fill="none" stroke="#000000" stroke-linecap="round" stroke-linejoin="round" stroke-width="1"></path><path d="m0.954 7.5 2.4 -5.859A1.5 1.5 0 0 1 4.726 0.75h14.55a1.5 1.5 0 0 1 1.371 0.891l2.344 5.765" fill="none" stroke="#000000" stroke-linecap="round" stroke-linejoin="round" stroke-width="1"></path><path d="m12.001 6.75 0 -6" fill="none" stroke="#000000" stroke-linecap="round" stroke-linejoin="round" stroke-width="1"></path></svg>