<svg xmlns="http://www.w3.org/2000/svg" fill="none" viewBox="0 0 24 24" id="Harddrive-Upload--Streamline-Ultimate"><desc>Harddrive Upload Streamline Icon: https://streamlinehq.com</desc><path stroke="#000000" stroke-linecap="round" stroke-linejoin="round" d="M20.25 17.25c0.7956 0 1.5587 0.3161 2.1213 0.8787 0.5626 0.5626 0.8787 1.3257 0.8787 2.1213 0 0.7956 -0.3161 1.5587 -0.8787 2.1213 -0.5626 0.5626 -1.3257 0.8787 -2.1213 0.8787H3.75c-0.79565 0 -1.55871 -0.3161 -2.12132 -0.8787C1.06607 21.8087 0.75 21.0456 0.75 20.25c0 -0.7956 0.31607 -1.5587 0.87868 -2.1213 0.56261 -0.5626 1.32567 -0.8787 2.12132 -0.8787h16.5Z" stroke-width="1"></path><path stroke="#000000" stroke-linecap="round" stroke-linejoin="round" d="M7.5 6.75098H6.144c-0.67974 -0.00002 -1.33934 0.2308 -1.87075 0.65465 -0.53141 0.42386 -0.90312 1.01562 -1.05425 1.67835L0.825001 19.583" stroke-width="1"></path><path stroke="#000000" stroke-linecap="round" stroke-linejoin="round" d="m23.175 19.583 -2.394 -10.5c-0.1511 -0.66273 -0.5228 -1.25449 -1.0543 -1.67834 -0.5314 -0.42386 -1.191 -0.65468 -1.8707 -0.65466H16.5" stroke-width="1"></path><path stroke="#000000" d="M19.125 20.625c-0.2071 0 -0.375 -0.1679 -0.375 -0.375s0.1679 -0.375 0.375 -0.375" stroke-width="1"></path><path stroke="#000000" d="M19.125 20.625c0.2071 0 0.375 -0.1679 0.375 -0.375s-0.1679 -0.375 -0.375 -0.375" stroke-width="1"></path><path stroke="#000000" stroke-linecap="round" stroke-linejoin="round" d="M9.75 20.25H4.5" stroke-width="1"></path><path stroke="#000000" stroke-linecap="round" stroke-linejoin="round" d="m15 3.75 -3 -3 -3 3" stroke-width="1"></path><path stroke="#000000" stroke-linecap="round" stroke-linejoin="round" d="M12 0.75v12" stroke-width="1"></path></svg>