<svg viewBox="0 0 24 24" xmlns="http://www.w3.org/2000/svg" id="Casino-Winner-Chip--Streamline-Ultimate"><desc>Casino Winner Chip Streamline Icon: https://streamlinehq.com</desc><path d="M11.25 17.25a6 6 0 1 0 12 0 6 6 0 1 0 -12 0Z" fill="none" stroke="#000000" stroke-linecap="round" stroke-linejoin="round" stroke-width="1"></path><path d="M15 17.25a2.25 2.25 0 1 0 4.5 0 2.25 2.25 0 1 0 -4.5 0Z" fill="none" stroke="#000000" stroke-linecap="round" stroke-linejoin="round" stroke-width="1"></path><path d="m17.25 15 0 -3.75" fill="none" stroke="#000000" stroke-linecap="round" stroke-linejoin="round" stroke-width="1"></path><path d="m19.199 16.125 3.247 -1.875" fill="none" stroke="#000000" stroke-linecap="round" stroke-linejoin="round" stroke-width="1"></path><path d="m15.301 16.125 -3.247 -1.875" fill="none" stroke="#000000" stroke-linecap="round" stroke-linejoin="round" stroke-width="1"></path><path d="m17.25 19.5 0 3.75" fill="none" stroke="#000000" stroke-linecap="round" stroke-linejoin="round" stroke-width="1"></path><path d="m19.199 18.375 3.247 1.875" fill="none" stroke="#000000" stroke-linecap="round" stroke-linejoin="round" stroke-width="1"></path><path d="m15.301 18.375 -3.247 1.875" fill="none" stroke="#000000" stroke-linecap="round" stroke-linejoin="round" stroke-width="1"></path><path d="m22.645 9.75 0.6 -4.5a0.75 0.75 0 0 0 -1.078 -0.777l-4.284 3.259a0.749 0.749 0 0 1 -1.094 -0.157L12.564 1.4a0.75 0.75 0 0 0 -1.128 0L7.211 7.575a0.749 0.749 0 0 1 -1.094 0.157L1.836 4.473a0.75 0.75 0 0 0 -1.078 0.777l1.32 9.95" fill="none" stroke="#000000" stroke-linecap="round" stroke-linejoin="round" stroke-width="1"></path><path d="M8.25 15H3a2.25 2.25 0 0 0 -2.25 2.25h0A2.25 2.25 0 0 0 3 19.5h5.25" fill="none" stroke="#000000" stroke-linecap="round" stroke-linejoin="round" stroke-width="1"></path></svg>