<svg viewBox="0 0 24 24" xmlns="http://www.w3.org/2000/svg" id="Casino-Chip-5--Streamline-Ultimate"><desc>Casino Chip 5 Streamline Icon: https://streamlinehq.com</desc><path d="M0.75 12a11.25 11.25 0 1 0 22.5 0 11.25 11.25 0 1 0 -22.5 0Z" fill="none" stroke="#000000" stroke-linecap="round" stroke-linejoin="round" stroke-width="1"></path><path d="M4.768 12a7.232 7.232 0 1 0 14.464 0 7.232 7.232 0 1 0 -14.464 0Z" fill="none" stroke="#000000" stroke-linecap="round" stroke-linejoin="round" stroke-width="1"></path><path d="M10.142 14.219a2.221 2.221 0 0 0 1.858 0.875c1.139 0 2.063 -0.693 2.063 -1.547S13.139 12 12 12s-2.062 -0.693 -2.062 -1.548 0.923 -1.546 2.062 -1.546a2.221 2.221 0 0 1 1.858 0.875" fill="none" stroke="#000000" stroke-linecap="round" stroke-linejoin="round" stroke-width="1"></path><path d="m12 15.094 0 1.031" fill="none" stroke="#000000" stroke-linecap="round" stroke-linejoin="round" stroke-width="1"></path><path d="m12 7.875 0 1.031" fill="none" stroke="#000000" stroke-linecap="round" stroke-linejoin="round" stroke-width="1"></path><path d="m9.864 0.952 0.763 3.948" fill="none" stroke="#000000" stroke-linecap="round" stroke-linejoin="round" stroke-width="1"></path><path d="m13.293 4.883 0.718 -3.954" fill="none" stroke="#000000" stroke-linecap="round" stroke-linejoin="round" stroke-width="1"></path><path d="m1.365 8.326 3.8 1.312" fill="none" stroke="#000000" stroke-linecap="round" stroke-linejoin="round" stroke-width="1"></path><path d="M6.483 7.322 3.418 4.723" fill="none" stroke="#000000" stroke-linecap="round" stroke-linejoin="round" stroke-width="1"></path><path d="m3.5 19.373 3.036 -2.633" fill="none" stroke="#000000" stroke-linecap="round" stroke-linejoin="round" stroke-width="1"></path><path d="m5.19 14.439 -3.783 1.354" fill="none" stroke="#000000" stroke-linecap="round" stroke-linejoin="round" stroke-width="1"></path><path d="m14.136 23.048 -0.763 -3.948" fill="none" stroke="#000000" stroke-linecap="round" stroke-linejoin="round" stroke-width="1"></path><path d="m10.707 19.117 -0.718 3.954" fill="none" stroke="#000000" stroke-linecap="round" stroke-linejoin="round" stroke-width="1"></path><path d="m22.635 15.674 -3.8 -1.312" fill="none" stroke="#000000" stroke-linecap="round" stroke-linejoin="round" stroke-width="1"></path><path d="m17.517 16.678 3.065 2.599" fill="none" stroke="#000000" stroke-linecap="round" stroke-linejoin="round" stroke-width="1"></path><path d="M20.5 4.627 17.464 7.26" fill="none" stroke="#000000" stroke-linecap="round" stroke-linejoin="round" stroke-width="1"></path><path d="m18.81 9.561 3.783 -1.354" fill="none" stroke="#000000" stroke-linecap="round" stroke-linejoin="round" stroke-width="1"></path></svg>