<svg viewBox="0 0 24 24" xmlns="http://www.w3.org/2000/svg" id="Casino-Lucky-7--Streamline-Ultimate"><desc>Casino Lucky 7 Streamline Icon: https://streamlinehq.com</desc><path d="M11.861 1.8a5.975 5.975 0 0 0 -5.083 -0.23c-0.113 0.048 -0.216 0.09 -0.313 0.125a1 1 0 0 1 -0.765 -0.038A1.5 1.5 0 0 0 4.322 0.75h-0.75a1.5 1.5 0 0 0 -1.5 1.5v6a1.5 1.5 0 0 0 1.5 1.5h0.75a1.5 1.5 0 0 0 1.5 -1.5v-0.27a1.5 1.5 0 0 1 1.119 -1.45 4.8 4.8 0 0 1 3.461 0.22c1.36 0.852 2.994 1.506 4.4 0.78l1.517 -0.78c-4.806 4.806 -7.649 9.1 -8.166 14.864A1.5 1.5 0 0 0 9.65 23.25h5.212a1.505 1.505 0 0 0 1.5 -1.463c0.138 -4.934 0.437 -7.735 5.477 -17.8a1.517 1.517 0 0 0 -0.273 -1.747l-0.623 -0.624a1.516 1.516 0 0 0 -1.918 -0.17 7.055 7.055 0 0 1 -7.164 0.354Z" fill="none" stroke="#000000" stroke-linecap="round" stroke-linejoin="round" stroke-width="1"></path></svg>