<svg xmlns="http://www.w3.org/2000/svg" viewBox="0 0 24 24" id="Casino-Pull-Machine-Slot--Streamline-Ultimate"><desc>Casino Pull Machine Slot Streamline Icon: https://streamlinehq.com</desc><g><path d="m10.51 6 0.33 -0.67a1.5 1.5 0 0 1 1.35 -0.84h3.1c2.94 -0.08 2.44 5.17 -0.35 5.07l-3.17 -0.64a0.63 0.63 0 0 0 -0.48 0.1 2 2 0 0 0 -0.76 2.3l5.72 2.2a2 2 0 0 0 1.29 0l5.71 -1.79" fill="none" stroke="#000000" stroke-linecap="round" stroke-linejoin="round" stroke-width="1"></path><path d="m6.93 5 1.25 -2.58A3 3 0 0 1 10.87 0.74h8.38a3 3 0 0 1 1.8 0.6L23.25 3" fill="none" stroke="#000000" stroke-linecap="round" stroke-linejoin="round" stroke-width="1"></path><path d="M8.84 13.17a2.88 2.88 0 0 1 -1.34 0.32 3 3 0 1 1 1.27 -5.72" fill="none" stroke="#000000" stroke-linecap="round" stroke-linejoin="round" stroke-width="1"></path><path d="M7.5 13.49v3.75a3 3 0 0 1 -3 3" fill="none" stroke="#000000" stroke-linecap="round" stroke-linejoin="round" stroke-width="1"></path><path d="M0.75 17.24H3a1.5 1.5 0 0 1 1.5 1.5v3a1.5 1.5 0 0 1 -1.5 1.5H0.75" fill="none" stroke="#000000" stroke-linecap="round" stroke-linejoin="round" stroke-width="1"></path><path d="m0.75 23.24 0 -14.25" fill="none" stroke="#000000" stroke-linecap="round" stroke-linejoin="round" stroke-width="1"></path></g></svg>