<svg xmlns="http://www.w3.org/2000/svg" fill="none" viewBox="0 0 24 24" id="Casino-777-Slot-Machine--Streamline-Ultimate"><desc>Casino 777 Slot Machine Streamline Icon: https://streamlinehq.com</desc><path stroke="#000000" stroke-linecap="round" stroke-linejoin="round" d="M17.75 5.25h-16c-0.55228 0 -1 0.44772 -1 1v16c0 0.5523 0.44772 1 1 1h16c0.5523 0 1 -0.4477 1 -1v-16c0 -0.55228 -0.4477 -1 -1 -1Z" stroke-width="1"></path><path stroke="#000000" stroke-linecap="round" stroke-linejoin="round" d="M0.75 8.25h18" stroke-width="1"></path><path stroke="#000000" stroke-linecap="round" stroke-linejoin="round" d="M0.75 15.75h18" stroke-width="1"></path><path stroke="#000000" stroke-linecap="round" stroke-linejoin="round" d="M6.75 8.25v7.5" stroke-width="1"></path><path stroke="#000000" stroke-linecap="round" stroke-linejoin="round" d="M12.75 8.25v7.5" stroke-width="1"></path><path stroke="#000000" stroke-linecap="round" stroke-linejoin="round" d="M16.5 5.25v-0.375C16.5 2.6 13.478 0.75 9.75 0.75S3 2.6 3 4.875v0.375" stroke-width="1"></path><path stroke="#000000" stroke-linecap="round" stroke-linejoin="round" d="M3.75 20.25h3" stroke-width="1"></path><path stroke="#000000" stroke-linecap="round" stroke-linejoin="round" d="M21.75 12v5.25c0 0.7956 -0.3161 1.5587 -0.8787 2.1213 -0.5626 0.5626 -1.3257 0.8787 -2.1213 0.8787" stroke-width="1"></path><path stroke="#000000" stroke-linecap="round" stroke-linejoin="round" d="M21.75 12c0.8284 0 1.5 -0.6716 1.5 -1.5 0 -0.82843 -0.6716 -1.5 -1.5 -1.5s-1.5 0.67157 -1.5 1.5c0 0.8284 0.6716 1.5 1.5 1.5Z" stroke-width="1"></path><path stroke="#000000" d="M3.75 12.375c-0.20711 0 -0.375 -0.1679 -0.375 -0.375s0.16789 -0.375 0.375 -0.375" stroke-width="1"></path><path stroke="#000000" d="M3.75 12.375c0.20711 0 0.375 -0.1679 0.375 -0.375s-0.16789 -0.375 -0.375 -0.375" stroke-width="1"></path><path stroke="#000000" d="M9.75 12.375c-0.20711 0 -0.375 -0.1679 -0.375 -0.375s0.16789 -0.375 0.375 -0.375" stroke-width="1"></path><path stroke="#000000" d="M9.75 12.375c0.20711 0 0.375 -0.1679 0.375 -0.375s-0.16789 -0.375 -0.375 -0.375" stroke-width="1"></path><g><path stroke="#000000" d="M15.75 12.375c-0.2071 0 -0.375 -0.1679 -0.375 -0.375s0.1679 -0.375 0.375 -0.375" stroke-width="1"></path><path stroke="#000000" d="M15.75 12.375c0.2071 0 0.375 -0.1679 0.375 -0.375s-0.1679 -0.375 -0.375 -0.375" stroke-width="1"></path></g></svg>