<svg viewBox="0 0 24 24" xmlns="http://www.w3.org/2000/svg" id="Asian-Interior-Bonsai-Tree-1--Streamline-Ultimate"><desc>Asian Interior Bonsai Tree 1 Streamline Icon: https://streamlinehq.com</desc><path d="M15 9H4.388A3.583 3.583 0 0 1 0.75 5.428a3.638 3.638 0 0 1 6.57 -2.154" fill="none" stroke="#000000" stroke-linecap="round" stroke-linejoin="round" stroke-width="1"></path><path d="M14.968 3.274a3.638 3.638 0 0 1 6.57 2.154 3.525 3.525 0 0 1 -0.664 2.072" fill="none" stroke="#000000" stroke-linecap="round" stroke-linejoin="round" stroke-width="1"></path><path d="M7.32 3.274a4.159 4.159 0 0 1 7.648 0" fill="none" stroke="#000000" stroke-linecap="round" stroke-linejoin="round" stroke-width="1"></path><path d="M20.73 11.7a1.467 1.467 0 0 1 2.52 1.023 1.524 1.524 0 0 1 -1.468 1.532h-2.934a2.013 2.013 0 0 1 -1.957 -2.021 1.957 1.957 0 0 1 3.839 -0.534" fill="none" stroke="#000000" stroke-linecap="round" stroke-linejoin="round" stroke-width="1"></path><path d="M6.619 9c7.54 6.232 -3.666 3.7 0.506 11.25" fill="none" stroke="#000000" stroke-linecap="round" stroke-linejoin="round" stroke-width="1"></path><path d="M10.043 9c9.861 6.574 -4.83 4.6 5.707 11.25" fill="none" stroke="#000000" stroke-linecap="round" stroke-linejoin="round" stroke-width="1"></path><path d="M1.278 20.25a0.5 0.5 0 0 0 -0.486 0.575C1.07 22.714 2.7 23.25 4.663 23.25h13.206c1.966 0 3.593 -0.536 3.872 -2.425a0.5 0.5 0 0 0 -0.487 -0.575Z" fill="none" stroke="#000000" stroke-linecap="round" stroke-linejoin="round" stroke-width="1"></path><path d="M19.5 14.25v1.244a2.252 2.252 0 0 1 -1.7 2.183l-4.217 1.054" fill="none" stroke="#000000" stroke-linecap="round" stroke-linejoin="round" stroke-width="1"></path></svg>