<svg id="Asian-Interior-Windows--Streamline-Ultimate" xmlns="http://www.w3.org/2000/svg" viewBox="0 0 24 24"><desc>Asian Interior Windows Streamline Icon: https://streamlinehq.com</desc><defs></defs><title>asian-interior-windows</title><path d="M1.25 0.75H10s0.5 0 0.5 0.5v21.5s0 0.5 -0.5 0.5H1.25s-0.5 0 -0.5 -0.5V1.25s0 -0.5 0.5 -0.5" fill="none" stroke="#000000" stroke-linecap="round" stroke-linejoin="round" stroke-width="1"></path><path d="M14 0.75h8.75s0.5 0 0.5 0.5v21.5s0 0.5 -0.5 0.5H14s-0.5 0 -0.5 -0.5V1.25s0 -0.5 0.5 -0.5" fill="none" stroke="#000000" stroke-linecap="round" stroke-linejoin="round" stroke-width="1"></path><path d="M10.5 12.75h-6a3 3 0 0 1 3 -3A2.25 2.25 0 0 1 9.75 7.5h0.75" fill="none" stroke="#000000" stroke-linecap="round" stroke-linejoin="round" stroke-width="1"></path><path d="M23.25 9h-6a3 3 0 0 1 3 -3 2.25 2.25 0 0 1 2.25 -2.25h0.75" fill="none" stroke="#000000" stroke-linecap="round" stroke-linejoin="round" stroke-width="1"></path><path d="m0.921 22.977 2.7 -4.317a3 3 0 0 1 2.544 -1.41H6.5a3 3 0 0 0 1.8 -0.6L10.5 15" fill="none" stroke="#000000" stroke-linecap="round" stroke-linejoin="round" stroke-width="1"></path><path d="m5.25 23.25 1.1 -2.2a1.454 1.454 0 0 1 1.3 -0.8 1.457 1.457 0 0 0 1.028 -0.425L10.5 18" fill="none" stroke="#000000" stroke-linecap="round" stroke-linejoin="round" stroke-width="1"></path><path d="m13.5 13.5 6 -1.5L21 9" fill="none" stroke="#000000" stroke-linecap="round" stroke-linejoin="round" stroke-width="1"></path><path d="m13.5 16.5 3.464 -1.732a4.368 4.368 0 0 0 1.679 -1.481L19.5 12" fill="none" stroke="#000000" stroke-linecap="round" stroke-linejoin="round" stroke-width="1"></path><path d="m17.87 14.164 2.38 1.586" fill="none" stroke="#000000" stroke-linecap="round" stroke-linejoin="round" stroke-width="1"></path></svg>