<svg xmlns="http://www.w3.org/2000/svg" viewBox="0 0 24 24" id="Tattoo-Piercing-Gun--Streamline-Ultimate"><desc>Tattoo Piercing Gun Streamline Icon: https://streamlinehq.com</desc><defs></defs><title>tattoo-piercing-gun</title><path d="M20.538 4.629h1.737a1.032 1.032 0 0 1 1.032 1.032V7.1a1.032 1.032 0 0 1 -1.032 1.032h-1.737l0 0v-3.5l0 -0.003Z" fill="none" stroke="#000000" stroke-linecap="round" stroke-linejoin="round" stroke-width="1"></path><path d="M8.881 20.511h-3.9a1.031 1.031 0 0 1 -1.029 -1.105l0.518 -7.257h5.973l-0.529 7.4a1.031 1.031 0 0 1 -1.033 0.962Z" fill="none" stroke="#000000" stroke-linecap="round" stroke-linejoin="round" stroke-width="1"></path><path d="m14.023 12.149 -1.195 3.584 -2.335 0" fill="none" stroke="#000000" stroke-linecap="round" stroke-linejoin="round" stroke-width="1"></path><path d="m0.693 7.317 2.579 0" fill="none" stroke="#000000" stroke-linecap="round" stroke-linejoin="round" stroke-width="1"></path><path d="m0.693 5.525 0 3.584" fill="none" stroke="#000000" stroke-linecap="round" stroke-linejoin="round" stroke-width="1"></path><path d="M16.9 3.489v5.129a1 1 0 0 1 -1 1H8.1a1 1 0 0 1 -1 -1V3.489H4.3a1.032 1.032 0 0 0 -1.028 1.032v4.667l1.194 2.961h13.683l2.389 -2.961V4.521a1.032 1.032 0 0 0 -1.032 -1.032Z" fill="none" stroke="#000000" stroke-linecap="round" stroke-linejoin="round" stroke-width="1"></path><path d="m13.29 5.145 3.61 0" fill="none" stroke="#000000" stroke-linecap="round" stroke-linejoin="round" stroke-width="1"></path><path d="M7.1 3.489h4.384a1.805 1.805 0 0 1 1.806 1.805v0A1.805 1.805 0 0 1 11.484 7.1H7.1l0 0V3.489l0 0Z" fill="none" stroke="#000000" stroke-linecap="round" stroke-linejoin="round" stroke-width="1"></path></svg>