<svg xmlns="http://www.w3.org/2000/svg" viewBox="0 0 24 24" id="Tattoo-Wrist-Tattoo--Streamline-Ultimate"><desc>Tattoo Wrist Tattoo Streamline Icon: https://streamlinehq.com</desc><defs></defs><title>tattoo-wrist-tattoo</title><path d="M7.49 11.654h0.99l2.31 -2.308a3.959 3.959 0 0 1 2.8 -1.158h1.98a2.971 2.971 0 0 1 2.971 2.971v1.733a1.732 1.732 0 0 1 -1.733 1.732h0a1.732 1.732 0 0 1 -1.733 -1.732v-1.238" fill="none" stroke="#000000" stroke-linecap="round" stroke-linejoin="round" stroke-width="1"></path><path d="M19.034 23.041h-3.07a4.893 4.893 0 0 1 -1.887 -0.381l-5.6 -1.6H0.715" fill="none" stroke="#000000" stroke-linecap="round" stroke-linejoin="round" stroke-width="1"></path><path d="M18.408 10.217h3.2a1.679 1.679 0 0 1 1.323 2.714 1.054 1.054 0 0 0 0 1.288 1.68 1.68 0 0 1 0 2.071 1.054 1.054 0 0 0 0 1.288 1.678 1.678 0 0 1 -0.105 2.191 0.977 0.977 0 0 0 0.087 1.289c0.325 0.385 0.177 1.983 -0.918 1.983h-4.7a1.68 1.68 0 0 1 -1.322 -2.715 1.052 1.052 0 0 0 0 -1.287 1.68 1.68 0 0 1 0 -2.071 1.054 1.054 0 0 0 0 -1.288 1.67 1.67 0 0 1 -0.357 -1.035" fill="none" stroke="#000000" stroke-linecap="round" stroke-linejoin="round" stroke-width="1"></path><path d="M5.686 9.13 4.61 12.759" fill="none" stroke="#000000" stroke-linecap="round" stroke-linejoin="round" stroke-width="1"></path><path d="m11.427 5.481 -5.7 -1.672 -1.18 3.95a0.99 0.99 0 0 0 0.67 1.233l0.987 0.29a0.991 0.991 0 0 0 1.216 -0.629L8.772 4.7" fill="none" stroke="#000000" stroke-linecap="round" stroke-linejoin="round" stroke-width="1"></path><path d="m6.562 0.959 2.851 0.836" fill="none" stroke="#000000" stroke-linecap="round" stroke-linejoin="round" stroke-width="1"></path><path d="M6.075 14.5a0.84 0.84 0 0 1 0 1.211l-2.353 2.257a1.694 1.694 0 0 1 -1.954 0.317h0a1.693 1.693 0 0 1 -0.44 -2.711l0.467 -0.467 -0.467 -0.468a1.692 1.692 0 0 1 0.44 -2.71h0a1.693 1.693 0 0 1 1.954 0.317Z" fill="none" stroke="#000000" stroke-linecap="round" stroke-linejoin="round" stroke-width="1"></path><path d="m8.059 1.52 -0.811 2.736" fill="none" stroke="#000000" stroke-linecap="round" stroke-linejoin="round" stroke-width="1"></path></svg>