<svg xmlns="http://www.w3.org/2000/svg" viewBox="0 0 24 24" id="Tattoo-Arm-Tattoo--Streamline-Ultimate"><desc>Tattoo Arm Tattoo Streamline Icon: https://streamlinehq.com</desc><defs></defs><title>tattoo-arm-tattoo</title><path d="m11.064 20.655 0 2.607" fill="none" stroke="#000000" stroke-linecap="round" stroke-linejoin="round" stroke-width="1"></path><path d="M0.706 2.1a13.462 13.462 0 0 1 7.11 4.109 14.391 14.391 0 0 1 2.709 4.87" fill="none" stroke="#000000" stroke-linecap="round" stroke-linejoin="round" stroke-width="1"></path><path d="m16.634 4.915 -5.532 10.297" fill="none" stroke="#000000" stroke-linecap="round" stroke-linejoin="round" stroke-width="1"></path><path d="m14.988 4.03 6.984 3.655a2.464 2.464 0 0 1 1.022 3.361h0a2.463 2.463 0 0 1 -3.29 1.012l-2.327 -1.2" fill="none" stroke="#000000" stroke-linecap="round" stroke-linejoin="round" stroke-width="1"></path><path d="m16.634 4.915 1.768 -3.293" fill="none" stroke="#000000" stroke-linecap="round" stroke-linejoin="round" stroke-width="1"></path><path d="m16.756 0.738 3.293 1.769" fill="none" stroke="#000000" stroke-linecap="round" stroke-linejoin="round" stroke-width="1"></path><path d="m19.722 6.558 -3.209 5.888a1 1 0 0 1 -1.344 0.407l-2.183 -1.148" fill="none" stroke="#000000" stroke-linecap="round" stroke-linejoin="round" stroke-width="1"></path><path d="M4.843 3.761a9.818 9.818 0 0 0 -4.137 7.93v11.571" fill="none" stroke="#000000" stroke-linecap="round" stroke-linejoin="round" stroke-width="1"></path><path d="M8.028 19.928a0.939 0.939 0 0 1 -1.355 0L4.15 17.3a1.894 1.894 0 0 1 -0.35 -2.189h0a1.894 1.894 0 0 1 3.033 -0.492l0.522 0.522 0.523 -0.522a1.893 1.893 0 0 1 3.032 0.492h0a1.892 1.892 0 0 1 -0.354 2.185Z" fill="none" stroke="#000000" stroke-linecap="round" stroke-linejoin="round" stroke-width="1"></path><path d="m12.63 8.42 1.662 0.855" fill="none" stroke="#000000" stroke-linecap="round" stroke-linejoin="round" stroke-width="1"></path></svg>