<svg viewBox="0 0 24 24" xmlns="http://www.w3.org/2000/svg" id="Glasses-Ski-2--Streamline-Ultimate"><desc>Glasses Ski 2 Streamline Icon: https://streamlinehq.com</desc><path d="M23.25 15a6 6 0 0 1 -6 6h-1.782a1.9 1.9 0 0 1 -1.652 -0.974L12.7 16.237a0.749 0.749 0 0 0 -1.4 0l-1.115 3.789A1.9 1.9 0 0 1 8.532 21H6.75a6 6 0 0 1 -6 -6v-1.5a3 3 0 0 1 3 -3h16.5a3 3 0 0 1 3 3Z" fill="none" stroke="#000000" stroke-linecap="round" stroke-linejoin="round" stroke-width="1"></path><path d="m1.661 11.349 2.96 -6.987A2.347 2.347 0 0 1 6.75 3 2.25 2.25 0 0 1 9 5.25" fill="none" stroke="#000000" stroke-linecap="round" stroke-linejoin="round" stroke-width="1"></path><path d="m22.339 11.349 -2.96 -6.987A2.347 2.347 0 0 0 17.25 3 2.25 2.25 0 0 0 15 5.25" fill="none" stroke="#000000" stroke-linecap="round" stroke-linejoin="round" stroke-width="1"></path></svg>