<svg xmlns="http://www.w3.org/2000/svg" viewBox="0 0 24 24" id="Suply-Chain-Supplier-Trolley-Delivery--Streamline-Ultimate"><desc>Suply Chain Supplier Trolley Delivery Streamline Icon: https://streamlinehq.com</desc><defs></defs><path d="M14.177 3.75a2.5 2.5 0 1 0 5 0 2.5 2.5 0 1 0 -5 0" stroke-miterlimit="10" fill="none" stroke="#000000" stroke-width="1"></path><path d="M22.614 20.079c-1.575 -1.261 -1.932 -4.276 -1.937 -5.332a1.518 1.518 0 0 0 -0.021 -0.2l0 -0.041 -1 -6a1.5 1.5 0 0 0 -2.693 -0.634A4.139 4.139 0 0 1 12.2 9.346a1.5 1.5 0 0 0 -1.054 2.808 6.78 6.78 0 0 0 5.987 -0.52l0.382 2.3a9.279 9.279 0 0 0 -4.331 7.166 1.5 1.5 0 0 0 1.344 1.641 1.273 1.273 0 0 0 0.151 0.008A1.5 1.5 0 0 0 16.17 21.4a6.5 6.5 0 0 1 1.8 -4.018 8.661 8.661 0 0 0 2.765 5.04 1.5 1.5 0 1 0 1.874 -2.342Z" stroke-linejoin="round" fill="none" stroke="#000000" stroke-width="1"></path><path d="M5.177 21.25a1.5 1.5 0 1 0 3 0 1.5 1.5 0 1 0 -3 0" stroke-linecap="round" stroke-linejoin="round" fill="none" stroke="#000000" stroke-width="1"></path><path d="m9.677 10.25 -2.606 9.552" stroke-linecap="round" stroke-linejoin="round" fill="none" stroke="#000000" stroke-width="1"></path><path d="m1.962 19.569 1.317 -4.823 4.824 1.317" stroke-linecap="round" stroke-linejoin="round" fill="none" stroke="#000000" stroke-width="1"></path><path d="M5.38 20.502 0.823 19.258" stroke-linecap="round" stroke-linejoin="round" fill="none" stroke="#000000" stroke-width="1"></path></svg>