<svg xmlns="http://www.w3.org/2000/svg" viewBox="0 0 24 24" id="Suply-Chain-Shipping-Fee-Included-Truck--Streamline-Ultimate"><desc>Suply Chain Shipping Fee Included Truck Streamline Icon: https://streamlinehq.com</desc><defs></defs><path d="M8.481 8.849a1.5 1.5 0 0 0 -0.231 0.8v6" fill="none" stroke="#000000" stroke-linecap="round" stroke-linejoin="round" stroke-width="1"></path><path d="m23.25 17.15 0 -3.3" fill="none" stroke="#000000" stroke-linecap="round" stroke-linejoin="round" stroke-width="1"></path><path d="M8.25 15.65v-6h-3a4.5 4.5 0 0 0 -4.5 4.5v6a1.5 1.5 0 0 0 1.5 1.5H3" fill="none" stroke="#000000" stroke-linecap="round" stroke-linejoin="round" stroke-width="1"></path><path d="M5.25 20.9a2.25 2.25 0 1 0 4.5 0 2.25 2.25 0 1 0 -4.5 0" fill="none" stroke="#000000" stroke-linecap="round" stroke-linejoin="round" stroke-width="1"></path><path d="M17.25 20.9a2.25 2.25 0 1 0 4.5 0 2.25 2.25 0 1 0 -4.5 0" fill="none" stroke="#000000" stroke-linecap="round" stroke-linejoin="round" stroke-width="1"></path><path d="m12 21.65 3 0" fill="none" stroke="#000000" stroke-linecap="round" stroke-linejoin="round" stroke-width="1"></path><path d="m0.75 15.65 7.5 0" fill="none" stroke="#000000" stroke-linecap="round" stroke-linejoin="round" stroke-width="1"></path><path d="M16.98 12.85a6 6 0 1 0 -6 -6 6 6 0 0 0 6 6Z" fill="none" stroke="#000000" stroke-linecap="round" stroke-linejoin="round" stroke-width="1"></path><path d="m19.654 5.11 -2.905 3.874a0.752 0.752 0 0 1 -1.131 0.08l-1.5 -1.5" fill="none" stroke="#000000" stroke-linecap="round" stroke-linejoin="round" stroke-width="1"></path></svg>