<svg viewBox="0 0 24 24" xmlns="http://www.w3.org/2000/svg" id="Vintage-Camera-Flash--Streamline-Ultimate"><desc>Vintage Camera Flash Streamline Icon: https://streamlinehq.com</desc><path d="M8.25 8.237h-6a1.5 1.5 0 0 0 -1.5 1.5v11.511a2 2 0 0 0 2 2h8a2 2 0 0 0 2 -2v-6.261" fill="none" stroke="#000000" stroke-linecap="round" stroke-linejoin="round" stroke-width="1"></path><path d="M11.25 6.75a6 6 0 1 0 12 0 6 6 0 1 0 -12 0Z" fill="none" stroke="#000000" stroke-linecap="round" stroke-linejoin="round" stroke-width="1"></path><path d="M15.75 6.75a1.5 1.5 0 1 0 3 0 1.5 1.5 0 1 0 -3 0Z" fill="none" stroke="#000000" stroke-linecap="round" stroke-linejoin="round" stroke-width="1"></path><path d="M4.5 13.487a2.25 2.25 0 1 0 4.5 0 2.25 2.25 0 1 0 -4.5 0Z" fill="none" stroke="#000000" stroke-linecap="round" stroke-linejoin="round" stroke-width="1"></path><path d="M4.5 17.987a2.25 2.25 0 1 0 4.5 0 2.25 2.25 0 1 0 -4.5 0Z" fill="none" stroke="#000000" stroke-linecap="round" stroke-linejoin="round" stroke-width="1"></path><path d="m12.75 17.987 3 0" fill="none" stroke="#000000" stroke-linecap="round" stroke-linejoin="round" stroke-width="1"></path><path d="M18.75 12.561v9.176a1.5 1.5 0 0 1 -1.5 1.5h0a1.5 1.5 0 0 1 -1.5 -1.5v-9.176" fill="none" stroke="#000000" stroke-linecap="round" stroke-linejoin="round" stroke-width="1"></path></svg>