<svg xmlns="http://www.w3.org/2000/svg" viewBox="0 0 24 24" id="Vintage-Camera--Streamline-Ultimate"><desc>Vintage Camera Streamline Icon: https://streamlinehq.com</desc><g><path d="M5.25 4.25h12s1 0 1 1v17s0 1 -1 1h-12s-1 0 -1 -1v-17s0 -1 1 -1" fill="none" stroke="#000000" stroke-linecap="round" stroke-linejoin="round" stroke-width="1"></path><path d="M6.75 4.25 8.13 1.3a1.14 1.14 0 0 1 1 -0.55h4.24a1.14 1.14 0 0 1 1 0.55l1.38 3" fill="none" stroke="#000000" stroke-linecap="round" stroke-linejoin="round" stroke-width="1"></path><path d="M9.75 8.75a1.5 1.5 0 1 0 3 0 1.5 1.5 0 1 0 -3 0" fill="none" stroke="#000000" stroke-linecap="round" stroke-linejoin="round" stroke-width="1"></path><path d="M7.5 16.5a3.75 3.75 0 1 0 7.5 0 3.75 3.75 0 1 0 -7.5 0" fill="none" stroke="#000000" stroke-linecap="round" stroke-linejoin="round" stroke-width="1"></path><path d="m0.75 6.75 0 4" fill="none" stroke="#000000" stroke-linecap="round" stroke-linejoin="round" stroke-width="1"></path><path d="M18.25 19.5h2.49a1 1 0 0 0 1 -1v-5.75h1.5" fill="none" stroke="#000000" stroke-linecap="round" stroke-linejoin="round" stroke-width="1"></path><path d="m0.75 8.75 3.5 0" fill="none" stroke="#000000" stroke-linecap="round" stroke-linejoin="round" stroke-width="1"></path></g></svg>