<svg xmlns="http://www.w3.org/2000/svg" fill="none" viewBox="0 0 24 24" id="Movie-Cinema--Streamline-Ultimate"><desc>Movie Cinema Streamline Icon: https://streamlinehq.com</desc><path stroke="#000000" stroke-linecap="round" stroke-linejoin="round" d="M0.75 21.75c0 0.3978 0.158035 0.7794 0.43934 1.0607 0.2813 0.2813 0.66284 0.4393 1.06066 0.4393h19.5c0.3978 0 0.7794 -0.158 1.0607 -0.4393s0.4393 -0.6629 0.4393 -1.0607" stroke-width="1"></path><path stroke="#000000" stroke-linecap="round" stroke-linejoin="round" d="M23.049 7.5c-0.1318 -0.22817 -0.3213 -0.41762 -0.5495 -0.54928 -0.2282 -0.13166 -0.4871 -0.20089 -0.7505 -0.20072H18c0 -1.5913 -0.6322 -3.11742 -1.7574 -4.24264C15.1174 1.38214 13.5913 0.75 12 0.75c-1.5913 0 -3.11747 0.63214 -4.24269 1.75736C6.63209 3.63258 5.99995 5.1587 5.99995 6.75h-3.75c-0.26347 -0.00017 -0.52233 0.06906 -0.75054 0.20072 -0.22822 0.13166 -0.41772 0.32111 -0.549459 0.54928" stroke-width="1"></path><path stroke="#000000" stroke-linecap="round" stroke-linejoin="round" d="m12.53 10.073 1.249 2.458h2.127c0.1171 -0.0028 0.2323 0.0297 0.3306 0.0934 0.0983 0.0637 0.1751 0.1555 0.2204 0.2636 0.0453 0.108 0.0569 0.2272 0.0333 0.3419 -0.0235 0.1147 -0.0811 0.2197 -0.1653 0.3011l-1.953 1.922 1.082 2.485c0.0477 0.1139 0.0585 0.2398 0.0307 0.36 -0.0277 0.1203 -0.0925 0.2288 -0.1852 0.3102 -0.0927 0.0815 -0.2087 0.1317 -0.3315 0.1437 -0.1228 0.012 -0.2463 -0.0149 -0.353 -0.0769L12 17.2l-2.61499 1.471c-0.10671 0.062 -0.23019 0.0889 -0.35301 0.0769 -0.12282 -0.012 -0.23876 -0.0622 -0.33147 -0.1437 -0.09272 -0.0814 -0.15751 -0.1899 -0.18523 -0.3102 -0.02772 -0.1202 -0.01698 -0.2461 0.03071 -0.36l1.082 -2.485 -1.953 -1.922c-0.08415 -0.0814 -0.14177 -0.1864 -0.16532 -0.3011 -0.02355 -0.1147 -0.01193 -0.2339 0.03333 -0.3419 0.04526 -0.1081 0.12207 -0.1999 0.22037 -0.2636 0.0983 -0.0637 0.21353 -0.0962 0.33062 -0.0934H10.221l1.248 -2.458c0.0514 -0.09626 0.128 -0.17674 0.2217 -0.23272s0.2009 -0.08534 0.31 -0.08493c0.1092 0.00041 0.2161 0.03058 0.3094 0.08727 0.0933 0.05669 0.1693 0.13774 0.2199 0.23438v0Z" stroke-width="1"></path><path stroke="#000000" d="M1.125 11.25c-0.207107 0 -0.375 -0.1679 -0.375 -0.375s0.167893 -0.375 0.375 -0.375" stroke-width="1"></path><path stroke="#000000" d="M1.125 11.25c0.20711 0 0.375 -0.1679 0.375 -0.375s-0.16789 -0.375 -0.375 -0.375" stroke-width="1"></path><path stroke="#000000" d="M22.8752 11.25c-0.2071 0 -0.375 -0.1679 -0.375 -0.375s0.1679 -0.375 0.375 -0.375" stroke-width="1"></path><path stroke="#000000" d="M22.8752 11.25c0.2072 0 0.375 -0.1679 0.375 -0.375s-0.1678 -0.375 -0.375 -0.375" stroke-width="1"></path><path stroke="#000000" d="M1.125 15c-0.207107 0 -0.375 -0.1679 -0.375 -0.375s0.167893 -0.375 0.375 -0.375" stroke-width="1"></path><path stroke="#000000" d="M1.125 15c0.20711 0 0.375 -0.1679 0.375 -0.375s-0.16789 -0.375 -0.375 -0.375" stroke-width="1"></path><g><path stroke="#000000" d="M22.8752 15c-0.2071 0 -0.375 -0.1679 -0.375 -0.375s0.1679 -0.375 0.375 -0.375" stroke-width="1"></path><path stroke="#000000" d="M22.8752 15c0.2072 0 0.375 -0.1679 0.375 -0.375s-0.1678 -0.375 -0.375 -0.375" stroke-width="1"></path></g><g><path stroke="#000000" d="M1.125 18.75c-0.207107 0 -0.375 -0.1679 -0.375 -0.375S0.917893 18 1.125 18" stroke-width="1"></path><path stroke="#000000" d="M1.125 18.75c0.20711 0 0.375 -0.1679 0.375 -0.375S1.33211 18 1.125 18" stroke-width="1"></path></g><g><path stroke="#000000" d="M22.8752 18.75c-0.2071 0 -0.375 -0.1679 -0.375 -0.375s0.1679 -0.375 0.375 -0.375" stroke-width="1"></path><path stroke="#000000" d="M22.8752 18.75c0.2072 0 0.375 -0.1679 0.375 -0.375s-0.1678 -0.375 -0.375 -0.375" stroke-width="1"></path></g></svg>