<svg viewBox="0 0 24 24" xmlns="http://www.w3.org/2000/svg" id="Movie-Star--Streamline-Ultimate"><desc>Movie Star Streamline Icon: https://streamlinehq.com</desc><path d="m12.729 1.2 3.346 6.629 6.44 0.638a0.805 0.805 0 0 1 0.5 1.374l-5.3 5.253 1.965 7.138a0.813 0.813 0 0 1 -1.151 0.935L12 19.934l-6.52 3.229a0.813 0.813 0 0 1 -1.151 -0.935l1.965 -7.138L0.99 9.837a0.805 0.805 0 0 1 0.5 -1.374l6.44 -0.638L11.271 1.2a0.819 0.819 0 0 1 1.458 0Z" fill="none" stroke="#000000" stroke-linecap="round" stroke-linejoin="round" stroke-width="1"></path><path d="m10.5 9.75 3 0" fill="none" stroke="#000000" stroke-linecap="round" stroke-linejoin="round" stroke-width="1"></path><path d="M9.75 15a2.25 2.25 0 1 0 4.5 0 2.25 2.25 0 1 0 -4.5 0Z" fill="none" stroke="#000000" stroke-linecap="round" stroke-linejoin="round" stroke-width="1"></path></svg>