<svg viewBox="0 0 24 24" xmlns="http://www.w3.org/2000/svg" id="Movie-Cinema-Clock--Streamline-Ultimate"><desc>Movie Cinema Clock Streamline Icon: https://streamlinehq.com</desc><path d="M4.5 12.75H2.25a1.5 1.5 0 0 1 -1.5 -1.5v-9a1.5 1.5 0 0 1 1.5 -1.5H4.5" fill="none" stroke="#000000" stroke-linecap="round" stroke-linejoin="round" stroke-width="1"></path><path d="M18.75 0.75h3a1.5 1.5 0 0 1 1.5 1.5v9a1.5 1.5 0 0 1 -1.5 1.5h-3" fill="none" stroke="#000000" stroke-linecap="round" stroke-linejoin="round" stroke-width="1"></path><path d="M0.75 23.25v-3a3.75 3.75 0 0 1 7.5 0v3" fill="none" stroke="#000000" stroke-linecap="round" stroke-linejoin="round" stroke-width="1"></path><path d="M8.25 23.25v-3a3.75 3.75 0 0 1 7.5 0v3" fill="none" stroke="#000000" stroke-linecap="round" stroke-linejoin="round" stroke-width="1"></path><path d="M15.75 23.25v-3a3.75 3.75 0 0 1 7.5 0v3" fill="none" stroke="#000000" stroke-linecap="round" stroke-linejoin="round" stroke-width="1"></path><path d="m23.25 23.25 -22.5 0" fill="none" stroke="#000000" stroke-linecap="round" stroke-linejoin="round" stroke-width="1"></path><path d="M6 6.75a6 6 0 1 0 12 0 6 6 0 1 0 -12 0Z" fill="none" stroke="#000000" stroke-linecap="round" stroke-linejoin="round" stroke-width="1"></path><path d="M14.652 6.75 12 6.75l0 -2.652" fill="none" stroke="#000000" stroke-linecap="round" stroke-linejoin="round" stroke-width="1"></path></svg>