<svg viewBox="0 0 24 24" xmlns="http://www.w3.org/2000/svg" id="Light-Mode-Night--Streamline-Ultimate"><desc>Light Mode Night Streamline Icon: https://streamlinehq.com</desc><path d="M3.523 10.1a6.233 6.233 0 0 0 6.947 1.4" fill="none" stroke="#000000" stroke-linecap="round" stroke-linejoin="round" stroke-width="1"></path><path d="M3.004 12a3.75 3.75 0 1 0 7.5 0 3.75 3.75 0 1 0 -7.5 0Z" fill="none" stroke="#000000" stroke-linecap="round" stroke-linejoin="round" stroke-width="1"></path><path d="M12.754 23.25a6.018 6.018 0 0 0 -6 -6h0a6.018 6.018 0 0 0 -6 6" fill="none" stroke="#000000" stroke-linecap="round" stroke-linejoin="round" stroke-width="1"></path><path d="M18.135 1.963a4.824 4.824 0 0 1 0.883 2.448 4.947 4.947 0 0 1 -2.507 4.618 4.657 4.657 0 0 1 -1.632 0.56 0.749 0.749 0 0 0 -0.269 1.378A5.613 5.613 0 1 0 18.92 0.773a0.754 0.754 0 0 0 -0.785 1.19Z" fill="none" stroke="#000000" stroke-linecap="round" stroke-linejoin="round" stroke-width="1"></path></svg>