<svg xmlns="http://www.w3.org/2000/svg" viewBox="0 0 24 24" id="Light-Mode-Bw--Streamline-Ultimate"><desc>Light Mode Bw Streamline Icon: https://streamlinehq.com</desc><defs></defs><title>light-mode-bw</title><path d="M1.75 0.75h20.5s1 0 1 1v20.5s0 1 -1 1H1.75s-1 0 -1 -1V1.75s0 -1 1 -1" fill="none" stroke="#000000" stroke-linecap="round" stroke-linejoin="round" stroke-width="1"></path><path d="m6 15.75 0 -7.5" fill="none" stroke="#000000" stroke-linecap="round" stroke-linejoin="round" stroke-width="1"></path><path d="M6 8.25h1.5A1.5 1.5 0 0 1 9 9.75v0.75A1.5 1.5 0 0 1 7.5 12H6" fill="none" stroke="#000000" stroke-linecap="round" stroke-linejoin="round" stroke-width="1"></path><path d="M6 12h1.5A1.5 1.5 0 0 1 9 13.5v0.75a1.5 1.5 0 0 1 -1.5 1.5H6" fill="none" stroke="#000000" stroke-linecap="round" stroke-linejoin="round" stroke-width="1"></path><path d="M12 8.25v2.017a8.982 8.982 0 0 0 0.644 3.342l0.856 2.141L15 10.5l1.5 5.25 0.856 -2.141A8.982 8.982 0 0 0 18 10.267V8.25" fill="none" stroke="#000000" stroke-linecap="round" stroke-linejoin="round" stroke-width="1"></path></svg>