<svg xmlns="http://www.w3.org/2000/svg" fill="none" viewBox="0 0 24 24" id="Earpods-Left--Streamline-Ultimate"><desc>Earpods Left Streamline Icon: https://streamlinehq.com</desc><path stroke="#000000" stroke-linecap="round" stroke-linejoin="round" d="M7.5 23.1998c3.7279 0 6.75 -3.022 6.75 -6.75 0 -3.7279 -3.0221 -6.74997 -6.75 -6.74997 -3.72792 0 -6.75 3.02207 -6.75 6.74997 0 3.728 3.02208 6.75 6.75 6.75Z" stroke-width="1"></path><path stroke="#000000" stroke-linecap="round" stroke-linejoin="round" d="M6.84998 13.4999v5.5h3" stroke-width="1"></path><g><path stroke="#000000" d="M16.9249 6.27502c-0.2071 0 -0.375 -0.16789 -0.375 -0.375 0 -0.2071 0.1679 -0.375 0.375 -0.375" stroke-width="1"></path><path stroke="#000000" d="M16.9249 6.27502c0.2071 0 0.375 -0.16789 0.375 -0.375 0 -0.2071 -0.1679 -0.375 -0.375 -0.375" stroke-width="1"></path><path stroke="#000000" stroke-linecap="round" stroke-linejoin="round" d="M17.75 0.75c-1.4 0 -2.7 0.5 -3.8 1.5v8c1 1 2.4 1.5 3.8 1.5 0.5 0 1 -0.1 1.5 -0.2v10.7c0 0.6 0.4 1 1 1h2c0.6 0 1 -0.4 1 -1V6.35c-0.1 -3.2 -2.5 -5.6 -5.5 -5.6Z" stroke-width="1"></path><path stroke="#000000" stroke-linecap="round" stroke-linejoin="round" d="M19.2484 11.5305V9.03052" stroke-width="1"></path></g></svg>