<svg xmlns="http://www.w3.org/2000/svg" fill="none" viewBox="0 0 24 24" id="Earpods-Check--Streamline-Ultimate"><desc>Earpods Check Streamline Icon: https://streamlinehq.com</desc><path stroke="#000000" stroke-linecap="round" stroke-linejoin="round" d="M23.25 17.25c0 1.1867 -0.3519 2.3467 -1.0112 3.3334 -0.6593 0.9867 -1.5963 1.7558 -2.6927 2.2099 -1.0964 0.4541 -2.3028 0.5729 -3.4666 0.3414 -1.1639 -0.2315 -2.233 -0.8029 -3.0721 -1.6421 -0.8392 -0.8391 -1.4106 -1.9082 -1.6421 -3.0721 -0.2315 -1.1638 -0.1127 -2.3702 0.3414 -3.4666 0.4542 -1.0964 1.2232 -2.0334 2.2099 -2.6927 0.9867 -0.6593 2.1467 -1.0112 3.3334 -1.0112" stroke-width="1"></path><path stroke="#000000" stroke-linecap="round" stroke-linejoin="round" d="m23.25 12.75 -5.47 5.47c-0.1406 0.1404 -0.3312 0.2193 -0.53 0.2193 -0.1988 0 -0.3894 -0.0789 -0.53 -0.2193L15 16.5" stroke-width="1"></path><g><path stroke="#000000" d="M3.745 6.37988c-0.20711 0 -0.375 -0.16789 -0.375 -0.375 0 -0.2071 0.16789 -0.375 0.375 -0.375" stroke-width="1"></path><path stroke="#000000" d="M3.745 6.37988c0.2071 0 0.375 -0.16789 0.375 -0.375 0 -0.2071 -0.1679 -0.375 -0.375 -0.375" stroke-width="1"></path><path stroke="#000000" stroke-linecap="round" stroke-linejoin="round" d="M10 11.75v-5.5c-0.00453 -1.06935 -0.3207 -2.11419 -0.90981 -3.00664 -0.58911 -0.89245 -1.42561 -1.59382 -2.40713 -2.01826C5.70154 0.800665 4.61758 0.671559 3.56383 0.853586 2.51008 1.03561 1.53225 1.52088 0.75 2.25v8c1.01232 0.9609 2.35422 1.4977 3.75 1.5 0.50745 0.0018 1.01255 -0.069 1.5 -0.21v10.71c0 0.2652 0.10536 0.5196 0.29289 0.7071 0.18754 0.1875 0.44189 0.2929 0.70711 0.2929h2c0.26522 0 0.51957 -0.1054 0.70711 -0.2929 0.18753 -0.1875 0.29289 -0.4419 0.29289 -0.7071" stroke-width="1"></path><path stroke="#000000" stroke-linecap="round" stroke-linejoin="round" d="M6 11.54V9" stroke-width="1"></path><g><path stroke="#000000" d="M19.5 6.37988c-0.2071 0 -0.375 -0.16789 -0.375 -0.375 0 -0.2071 0.1679 -0.375 0.375 -0.375" stroke-width="1"></path><path stroke="#000000" d="M19.5 6.37988c0.2071 0 0.375 -0.16789 0.375 -0.375 0 -0.2071 -0.1679 -0.375 -0.375 -0.375" stroke-width="1"></path><path stroke="#000000" stroke-linecap="round" stroke-linejoin="round" d="M13.25 9.25v-3c0.0045 -1.06935 0.3207 -2.11419 0.9098 -3.00664 0.5891 -0.89245 1.4256 -1.59382 2.4071 -2.01826 0.9816 -0.424435 2.0655 -0.553541 3.1193 -0.371514C20.7399 1.03561 21.7178 1.52088 22.5 2.25v7" stroke-width="1"></path></g></g></svg>