<svg xmlns="http://www.w3.org/2000/svg" fill="none" viewBox="0 0 24 24" id="Earpods-Tap--Streamline-Ultimate"><desc>Earpods Tap Streamline Icon: https://streamlinehq.com</desc><path stroke="#000000" stroke-linecap="round" stroke-linejoin="round" d="M13.8676 8.59509c-0.5316 -0.47387 -0.9428 -1.06739 -1.1998 -1.73156 -0.2569 -0.66417 -0.3522 -1.37993 -0.278 -2.08818 0.0743 -0.70826 0.3159 -1.3887 0.705 -1.98515 0.3891 -0.59644 0.9145 -1.09177 1.5328 -1.44511" stroke-width="1"></path><path stroke="#000000" d="M3.75415 7.28931c-0.20711 0 -0.375 -0.1679 -0.375 -0.375 0 -0.20711 0.16789 -0.375 0.375 -0.375" stroke-width="1"></path><path stroke="#000000" d="M3.75415 7.28931c0.20711 0 0.375 -0.1679 0.375 -0.375 0 -0.20711 -0.16789 -0.375 -0.375 -0.375" stroke-width="1"></path><path stroke="#000000" stroke-linecap="round" stroke-linejoin="round" d="M4.50915 1.69507c-1.39572 -0.00162 -2.73986 0.52746 -3.760004 1.48v8.00003c1.020144 0.9525 2.364284 1.4816 3.760004 1.48 0.50744 0.0017 1.01254 -0.069 1.5 -0.21v9.21c0 0.2652 0.10535 0.5195 0.29289 0.7071 0.18754 0.1875 0.44189 0.2929 0.70711 0.2929h2c0.26521 0 0.51957 -0.1054 0.7071 -0.2929 0.18754 -0.1876 0.29285 -0.4419 0.29285 -0.7071V7.19507c0 -1.45869 -0.57942 -2.85764 -1.61087 -3.88909S5.96784 1.69507 4.50915 1.69507v0Z" stroke-width="1"></path><path stroke="#000000" stroke-linecap="round" stroke-linejoin="round" d="M6.00916 12.4851V9.94507" stroke-width="1"></path><path stroke="#000000" stroke-linecap="round" stroke-linejoin="round" d="m23.2508 8.78508 -5.53 -4.68c-0.3024 -0.26521 -0.6977 -0.39946 -1.099 -0.3732 -0.4013 0.02625 -0.7758 0.21086 -1.041 0.5132 -0.2652 0.30235 -0.3995 0.69767 -0.3732 1.099 0.0262 0.40133 0.2108 0.77579 0.5132 1.041l3.76 3.86002c0.279 0.3434 0.4362 0.7696 0.447 1.212 0.0108 0.4423 -0.1253 0.8757 -0.3871 1.2324 -0.2618 0.3567 -0.6345 0.6165 -1.0597 0.7387 -0.4252 0.1223 -0.879 0.1001 -1.2902 -0.0631l-0.5 -0.34c-0.1774 -0.1138 -0.3758 -0.191 -0.5834 -0.2269 -0.2077 -0.036 -0.4204 -0.0301 -0.6257 0.0174 -0.2054 0.0475 -0.3991 0.1356 -0.5699 0.2591 -0.1708 0.1235 -0.3151 0.2799 -0.4245 0.46 -0.1094 0.1802 -0.1817 0.3803 -0.2126 0.5888 -0.0308 0.2085 -0.0197 0.421 0.0328 0.6251 0.0525 0.2041 0.1453 0.3957 0.273 0.5634 0.1276 0.1677 0.2875 0.3081 0.4703 0.4131l8.15 4.38" stroke-width="1"></path></svg>