<svg xmlns="http://www.w3.org/2000/svg" fill="none" viewBox="0 0 24 24" id="Earpod-Listen--Streamline-Ultimate"><desc>Earpod Listen Streamline Icon: https://streamlinehq.com</desc><path stroke="#000000" stroke-linecap="round" stroke-linejoin="round" d="M0.75 8.25c0 -1.98912 0.79018 -3.89678 2.1967 -5.3033S6.26088 0.75 8.25 0.75" stroke-width="1"></path><path stroke="#000000" stroke-linecap="round" stroke-linejoin="round" d="M3.75001 8.25001c-0.00132 -0.59132 0.11418 -1.17707 0.33986 -1.72363 0.22568 -0.54656 0.55709 -1.04316 0.97522 -1.46129 0.41813 -0.41813 0.91473 -0.74954 1.46129 -0.97522 0.54656 -0.22568 1.13231 -0.34118 1.72363 -0.33986" stroke-width="1"></path><path stroke="#000000" stroke-linecap="round" stroke-linejoin="round" d="M23.25 8.25c0 -1.98912 -0.7902 -3.89678 -2.1967 -5.3033C19.6468 1.54018 17.7391 0.75 15.75 0.75" stroke-width="1"></path><path stroke="#000000" stroke-linecap="round" stroke-linejoin="round" d="M20.25 8.25001c0.0013 -0.59132 -0.1142 -1.17707 -0.3399 -1.72363 -0.2256 -0.54656 -0.5571 -1.04316 -0.9752 -1.46129 -0.4181 -0.41813 -0.9147 -0.74954 -1.4613 -0.97522 -0.5465 -0.22568 -1.1323 -0.34118 -1.7236 -0.33986" stroke-width="1"></path><path stroke="#000000" d="M10.995 12.38c-0.2071 0 -0.375 -0.1679 -0.375 -0.375s0.1679 -0.375 0.375 -0.375" stroke-width="1"></path><path stroke="#000000" d="M10.995 12.38c0.2071 0 0.375 -0.1679 0.375 -0.375s-0.1679 -0.375 -0.375 -0.375" stroke-width="1"></path><path stroke="#000000" stroke-linecap="round" stroke-linejoin="round" d="M11.75 6.75001c-1.393 -0.0031 -2.73457 0.52636 -3.75 1.48V16.23c1.01543 0.9537 2.357 1.4831 3.75 1.48 0.5074 0.0018 1.0125 -0.0689 1.5 -0.21v4.71c0 0.2652 0.1054 0.5196 0.2929 0.7071 0.1875 0.1876 0.4419 0.2929 0.7071 0.2929h2c0.2652 0 0.5196 -0.1053 0.7071 -0.2929 0.1875 -0.1875 0.2929 -0.4419 0.2929 -0.7071v-10c-0.0106 -1.4517 -0.5947 -2.84043 -1.625 -3.86324 -1.0303 -1.02282 -2.4232 -1.59678 -3.875 -1.59675v0Z" stroke-width="1"></path><path stroke="#000000" stroke-linecap="round" stroke-linejoin="round" d="M13.25 17.54V15" stroke-width="1"></path></svg>