<svg xmlns="http://www.w3.org/2000/svg" fill="none" viewBox="0 0 24 24" id="Earpods-Charge--Streamline-Ultimate"><desc>Earpods Charge Streamline Icon: https://streamlinehq.com</desc><path stroke="#000000" stroke-linecap="round" stroke-linejoin="round" d="M17.25 23.25H6.75001c-0.59132 0.0013 -1.17707 -0.1142 -1.72363 -0.3399 -0.54656 -0.2256 -1.04316 -0.5571 -1.46129 -0.9752 -0.41813 -0.4181 -0.74954 -0.9147 -0.97522 -1.4613 -0.22568 -0.5465 -0.34118 -1.1323 -0.33986 -1.7236v-4.5H21.75v4.5c0.0013 0.5913 -0.1142 1.1771 -0.3398 1.7236 -0.2257 0.5466 -0.5571 1.0432 -0.9753 1.4613 -0.4181 0.4181 -0.9147 0.7496 -1.4613 0.9752 -0.5465 0.2257 -1.1323 0.3412 -1.7236 0.3399v0Z" stroke-width="1"></path><path stroke="#000000" stroke-linecap="round" stroke-linejoin="round" d="M12 16.5 10.5 18l2.25 1.5 -1.5 1.5" stroke-width="1"></path><path stroke="#000000" d="M3.75488 6.38c-0.2071 0 -0.375 -0.16789 -0.375 -0.375 0 -0.2071 0.1679 -0.375 0.375 -0.375" stroke-width="1"></path><path stroke="#000000" d="M3.75488 6.38c0.20711 0 0.375 -0.16789 0.375 -0.375 0 -0.2071 -0.16789 -0.375 -0.375 -0.375" stroke-width="1"></path><path stroke="#000000" stroke-linecap="round" stroke-linejoin="round" d="M4.42 0.75C3.05484 0.768039 1.74576 1.29595 0.75 2.23v8c1.0092 0.9682 2.35146 1.5123 3.75 1.52 0.50745 0.0018 1.01255 -0.069 1.5 -0.21v2.71h4V6.5c0.0083 -1.49827 -0.57159 -2.93999 -1.61504 -4.01523C7.34152 1.40954 5.91785 0.786649 4.42 0.75Z" stroke-width="1"></path><path stroke="#000000" stroke-linecap="round" stroke-linejoin="round" d="M6 11.54V9" stroke-width="1"></path><g><path stroke="#000000" d="M20.2451 6.38c-0.2071 0 -0.375 -0.16789 -0.375 -0.375 0 -0.2071 0.1679 -0.375 0.375 -0.375" stroke-width="1"></path><path stroke="#000000" d="M20.2451 6.38c0.2071 0 0.375 -0.16789 0.375 -0.375 0 -0.2071 -0.1679 -0.375 -0.375 -0.375" stroke-width="1"></path><path stroke="#000000" stroke-linecap="round" stroke-linejoin="round" d="M19.58 0.75c1.3651 0.018039 2.6742 0.54595 3.67 1.48v8c-1.0155 0.9536 -2.357 1.4831 -3.75 1.48 -0.5075 0.0018 -1.0126 -0.069 -1.5 -0.21v2.71h-4V6.5c-0.0083 -1.49827 0.5716 -2.93999 1.615 -4.01523C16.6584 1.40954 18.0821 0.786649 19.58 0.75Z" stroke-width="1"></path><path stroke="#000000" stroke-linecap="round" stroke-linejoin="round" d="M18 11.54V9" stroke-width="1"></path></g></svg>