<svg xmlns="http://www.w3.org/2000/svg" viewBox="0 0 24 24" id="Bloglovin-Logo--Streamline-Ultimate"><desc>Bloglovin Logo Streamline Icon: https://streamlinehq.com</desc><g><path d="M13.81 11.55a5.68 5.68 0 0 0 1.44 -3.8A5.74 5.74 0 0 0 9.5 2H0.75v20h9.75a5.75 5.75 0 0 0 3.31 -10.45Z" fill="none" stroke="#000000" stroke-linecap="round" stroke-linejoin="round" stroke-width="1"></path><path d="M12.25 7.75A2.75 2.75 0 0 1 9.5 10.5H3.75V5H9.5a2.75 2.75 0 0 1 2.75 2.75Z" fill="none" stroke="#000000" stroke-linecap="round" stroke-linejoin="round" stroke-width="1"></path><path d="M13.25 16.25A2.75 2.75 0 0 1 10.5 19H3.75v-5.5h6.75a2.75 2.75 0 0 1 2.75 2.75Z" fill="none" stroke="#000000" stroke-linecap="round" stroke-linejoin="round" stroke-width="1"></path><path d="M20.85 9.8a6.78 6.78 0 0 0 2.4 -5.3v-0.25a2.25 2.25 0 1 0 -2.39 2.25 4.45 4.45 0 0 1 -1.21 1.7Z" fill="none" stroke="#000000" stroke-linecap="round" stroke-linejoin="round" stroke-width="1"></path></g></svg>