<svg viewBox="0 0 24 24" xmlns="http://www.w3.org/2000/svg" id="Drupal-Logo--Streamline-Ultimate"><desc>Drupal Logo Streamline Icon: https://streamlinehq.com</desc><path d="M21.72 13.53a9.72 9.72 0 1 1 -19.45 0c0 -6.86 8.53 -9.77 9.34 -12.78 1.03 2.98 10.11 4.81 10.11 12.78Z" fill="none" stroke="#000000" stroke-linecap="round" stroke-linejoin="round" stroke-width="1"></path><path d="M9.48 11.67c1.8 0 3.7 2.17 4.74 2.17s3.07 -1.77 4.14 -1.77 1.53 3.67 -0.6 5.27c-0.94 0.17 -2.77 -2.4 -3.54 -2.4S10.43 17.51 9 17.51c-4.09 0 -3.31 -5.84 0.48 -5.84Z" fill="none" stroke="#000000" stroke-linecap="round" stroke-linejoin="round" stroke-width="1"></path><path d="M12.93 18.4a1.92 1.92 0 0 1 1.5 -0.72 1.21 1.21 0 0 1 0.93 0.58" fill="none" stroke="#000000" stroke-linecap="round" stroke-linejoin="round" stroke-width="1"></path><path d="M10.88 19.92a4.15 4.15 0 0 0 4.52 0.33" fill="none" stroke="#000000" stroke-linecap="round" stroke-linejoin="round" stroke-width="1"></path></svg>