<svg xmlns="http://www.w3.org/2000/svg" fill="none" viewBox="0 0 24 24" id="Google-News-Logo--Streamline-Ultimate"><desc>Google News Logo Streamline Icon: https://streamlinehq.com</desc><path stroke="#000000" stroke-linecap="round" stroke-linejoin="round" d="M19 6.5v-4c0 -0.55228 -0.4477 -1 -1 -1H6c-0.55228 0 -1 0.44772 -1 1v3.93359" stroke-width="1"></path><path stroke="#000000" stroke-linecap="round" stroke-linejoin="round" d="m13.0391 4.56346 9.516 3.10296c0.5251 0.17122 0.812 0.73567 0.6407 1.26075l-2.1944 6.72993" stroke-width="1"></path><path stroke="#000000" stroke-linecap="round" stroke-linejoin="round" d="m14.8155 9.00664 -1.867 -4.67025c-0.205 -0.51282 -0.7869 -0.76236 -1.2997 -0.55734L1.379 7.88458c-0.512825 0.20501 -0.762357 0.78693 -0.557346 1.29976L3.00042 14.6344" stroke-width="1"></path><path stroke="#000000" stroke-linecap="round" stroke-linejoin="round" d="M20 9H4c-0.55228 0 -1 0.44772 -1 1v11.5c0 0.5523 0.44772 1 1 1h16c0.5523 0 1 -0.4477 1 -1V10c0 -0.55228 -0.4477 -1 -1 -1Z" stroke-width="1"></path><path stroke="#000000" stroke-linecap="round" stroke-linejoin="round" d="M9.62 13.26c-0.48618 -0.2436 -1.03854 -0.3221 -1.57333 -0.2235 -0.53479 0.0986 -1.02285 0.3689 -1.39017 0.7699 -0.36731 0.401 -0.59386 0.9109 -0.64529 1.4523 -0.05143 0.5413 0.07506 1.0847 0.3603 1.5477 0.28524 0.463 0.71366 0.8203 1.22032 1.0179 0.50665 0.1975 1.06391 0.2245 1.58727 0.0768 0.52335 -0.1477 0.9843 -0.4621 1.3129 -0.8954 0.3286 -0.4333 0.5069 -0.9619 0.508 -1.5057H9" stroke-width="1"></path><path stroke="#000000" stroke-linecap="round" stroke-linejoin="round" d="M13.5 13h4" stroke-width="1"></path><path stroke="#000000" stroke-linecap="round" stroke-linejoin="round" d="M13.5 18h4" stroke-width="1"></path><path stroke="#000000" stroke-linecap="round" stroke-linejoin="round" d="M13.5 15.5h5" stroke-width="1"></path></svg>