<svg viewBox="0 0 24 24" xmlns="http://www.w3.org/2000/svg" id="Squidoo-Logo--Streamline-Ultimate"><desc>Squidoo Logo Streamline Icon: https://streamlinehq.com</desc><path d="M19.4 18.58a1.42 1.42 0 0 1 -1.69 1.07 1.53 1.53 0 0 1 0.87 -2.9 1.43 1.43 0 0 1 0.82 1.83Zm-3.1 4.61a4.81 4.81 0 0 1 -4 -4c-0.23 -1.27 0 -2.21 -0.8 -2.52 -1.24 -0.47 -9 3.07 -9.14 -3.41 -0.05 -2 1.39 -4.35 -0.6 -5.25 0.84 0.18 1.54 0.36 1.91 1.11 1.26 2.54 -0.49 5.76 4.51 5.33a16.64 16.64 0 0 1 2.51 -0.4c-0.69 -0.94 -3.6 -0.89 -4.81 -3.25 -1.35 -2.63 0.5 -5.68 -4.09 -5.94a3.46 3.46 0 0 1 3.87 0.06c1.32 1 1 3 2.21 4.38a4.46 4.46 0 0 0 1.89 1.1 7.64 7.64 0 0 0 2.41 0.6c-0.38 -2 -2 -3.3 -3.56 -4.75C7.42 5.16 6.76 3.45 6.95 0.78c1.29 3.72 5.63 3.13 7.64 9.42 0.61 -0.34 1.71 -2.68 0.52 -4s-3.24 -2 -2.69 -5c0.94 2.8 2.28 2.14 4.12 3.22a3.38 3.38 0 0 1 1.59 3.07c0 1.74 -1.33 2.9 -1 4.9 1.73 0.47 2.61 0.51 3.52 1.31 3.58 3.11 1 10.06 -4.32 9.47Z" fill="none" stroke="#000000" stroke-linecap="round" stroke-linejoin="round" stroke-width="1"></path></svg>