<svg xmlns="http://www.w3.org/2000/svg" viewBox="0 0 24 24" id="Wordpress-Logo-1--Streamline-Ultimate"><desc>Wordpress Logo 1 Streamline Icon: https://streamlinehq.com</desc><defs></defs><title>wordpress-1</title><path d="m5.038 8.246 2.857 0" fill="none" stroke="#000000" stroke-linecap="round" stroke-linejoin="round" stroke-width="1"></path><path d="m10.344 8.246 2.858 0" fill="none" stroke="#000000" stroke-linecap="round" stroke-linejoin="round" stroke-width="1"></path><path d="M6.262 8.246 9.12 18.47l2.857 -10.224 2.857 10.224a22.156 22.156 0 0 0 0.793 -2.582q0.415 -1.342 0.839 -2.684t0.851 -2.681q0.213 -0.67 0.428 -1.34a3.269 3.269 0 0 0 0.289 -1.2 1.041 1.041 0 0 0 -0.146 -0.461 1.194 1.194 0 0 0 -1.013 -0.554 1.209 1.209 0 0 0 -0.679 0.206" fill="none" stroke="#000000" stroke-linecap="round" stroke-linejoin="round" stroke-width="1"></path><path d="M0.75 12a11.25 11.25 0 1 0 22.5 0 11.25 11.25 0 1 0 -22.5 0" fill="none" stroke="#000000" stroke-linecap="round" stroke-linejoin="round" stroke-width="1"></path></svg>