<svg xmlns="http://www.w3.org/2000/svg" viewBox="0 0 24 24" id="Wordpress-Logo-2--Streamline-Ultimate"><desc>Wordpress Logo 2 Streamline Icon: https://streamlinehq.com</desc><defs></defs><title>wordpress-2</title><path d="m6.46 8.248 -5.069 0" fill="none" stroke="#000000" stroke-linecap="round" stroke-linejoin="round" stroke-width="1"></path><path d="M10.107 18.308 6.46 8.248" fill="none" stroke="#000000" stroke-linecap="round" stroke-linejoin="round" stroke-width="1"></path><path d="m3.279 8.248 4.999 14.086" fill="none" stroke="#000000" stroke-linecap="round" stroke-linejoin="round" stroke-width="1"></path><path d="m10.095 8.248 3.635 0" fill="none" stroke="#000000" stroke-linecap="round" stroke-linejoin="round" stroke-width="1"></path><path d="m8.166 22.58 4.184 -9.209" fill="none" stroke="#000000" stroke-linecap="round" stroke-linejoin="round" stroke-width="1"></path><path d="M17.375 18.304 13.73 8.248" fill="none" stroke="#000000" stroke-linecap="round" stroke-linejoin="round" stroke-width="1"></path><path d="m10.549 8.248 4.999 14.086" fill="none" stroke="#000000" stroke-linecap="round" stroke-linejoin="round" stroke-width="1"></path><path d="M20.355 10.938a3.994 3.994 0 0 0 -0.738 -1.294 16.323 16.323 0 0 0 -1.681 -1.192 2.415 2.415 0 0 1 -0.615 -0.64c-0.6 -0.972 -0.135 -3.071 1.36 -3.074 2.547 -0.006 3.452 2.869 1.76 6.764 -0.636 1.464 -5.077 11.237 -5.077 11.237" fill="none" stroke="#000000" stroke-linecap="round" stroke-linejoin="round" stroke-width="1"></path><path d="M23.25 12a11.25 11.25 0 1 1 -7.03 -10.481" fill="none" stroke="#000000" stroke-linecap="round" stroke-linejoin="round" stroke-width="1"></path></svg>