<svg xmlns="http://www.w3.org/2000/svg" fill="none" viewBox="0 0 24 24" id="Board-Game-Dice-1--Streamline-Ultimate"><desc>Board Game Dice 1 Streamline Icon: https://streamlinehq.com</desc><path stroke="#000000" stroke-linecap="round" stroke-linejoin="round" d="M8.52502 3.86 15.75 6.75l7.225 -2.89" stroke-width="1"></path><path stroke="#000000" stroke-linecap="round" stroke-linejoin="round" d="M15.75 16.5c0.4941 0.0016 0.9829 -0.1006 1.435 -0.3l5.174 -2.3c0.2652 -0.1178 0.4906 -0.3101 0.6487 -0.5534 0.1582 -0.2434 0.2423 -0.5274 0.2423 -0.8176v-7.8c0 -0.29022 -0.0841 -0.57423 -0.2423 -0.81757 -0.1581 -0.24335 -0.3835 -0.4356 -0.6487 -0.55343l-5.174 -2.3c-0.4517 -0.201103 -0.9406 -0.305025 -1.435 -0.305025 -0.4944 0 -0.9833 0.103922 -1.435 0.305025l-5.174 2.3c-0.26461 0.11756 -0.48954 0.30918 -0.64764 0.55175 -0.1581 0.24257 -0.24262 0.52571 -0.24336 0.81525V7.5" stroke-width="1"></path><path stroke="#000000" stroke-linecap="round" stroke-linejoin="round" d="M8.25 13.5v9.75" stroke-width="1"></path><path stroke="#000000" stroke-linecap="round" stroke-linejoin="round" d="m1.02502 10.61 7.225 2.89 7.22498 -2.89" stroke-width="1"></path><path stroke="#000000" stroke-linecap="round" stroke-linejoin="round" d="M6.81501 22.945c0.45167 0.2011 0.94057 0.305 1.435 0.305 0.49442 0 0.98332 -0.1039 1.435 -0.305l5.17399 -2.3c0.2652 -0.1178 0.4906 -0.3101 0.6487 -0.5534 0.1582 -0.2434 0.2423 -0.5274 0.2423 -0.8176v-7.8c0 -0.2902 -0.0841 -0.5742 -0.2423 -0.8176 -0.1581 -0.2433 -0.3835 -0.4356 -0.6487 -0.5534l-5.17399 -2.3c-0.45168 -0.20111 -0.94058 -0.30503 -1.435 -0.30503 -0.49443 0 -0.98333 0.10392 -1.435 0.30503l-5.174 2.297c-0.26586 0.1181 -0.49163 0.311 -0.649825 0.5551 -0.158196 0.2441 -0.241991 0.529 -0.241179 0.8199v7.8c-0.000037 0.2902 0.084121 0.5742 0.242272 0.8176 0.158152 0.2433 0.383502 0.4356 0.648732 0.5534l5.174 2.299Z" stroke-width="1"></path><path stroke="#000000" d="M3 14.467c-0.20711 0 -0.375 -0.1679 -0.375 -0.375s0.16789 -0.375 0.375 -0.375" stroke-width="1"></path><path stroke="#000000" d="M3 14.467c0.20711 0 0.375 -0.1679 0.375 -0.375s-0.16789 -0.375 -0.375 -0.375" stroke-width="1"></path><path stroke="#000000" d="M4.12488 17.096c-0.20711 0 -0.375 -0.1679 -0.375 -0.375s0.16789 -0.375 0.375 -0.375" stroke-width="1"></path><path stroke="#000000" d="M4.12488 17.096c0.2071 0 0.375 -0.1679 0.375 -0.375s-0.1679 -0.375 -0.375 -0.375" stroke-width="1"></path><path stroke="#000000" d="M5.625 20.092c-0.20711 0 -0.375 -0.1679 -0.375 -0.375s0.16789 -0.375 0.375 -0.375" stroke-width="1"></path><path stroke="#000000" d="M5.625 20.092c0.20711 0 0.375 -0.1679 0.375 -0.375s-0.16789 -0.375 -0.375 -0.375" stroke-width="1"></path><path stroke="#000000" d="M11.364 19.179c-0.2071 0 -0.375 -0.1679 -0.375 -0.375s0.1679 -0.375 0.375 -0.375" stroke-width="1"></path><path stroke="#000000" d="M11.364 19.179c0.2071 0 0.375 -0.1679 0.375 -0.375s-0.1679 -0.375 -0.375 -0.375" stroke-width="1"></path><path stroke="#000000" d="M12.978 15.319c-0.2071 0 -0.375 -0.1679 -0.375 -0.375s0.1679 -0.375 0.375 -0.375" stroke-width="1"></path><path stroke="#000000" d="M12.978 15.319c0.2071 0 0.375 -0.1679 0.375 -0.375s-0.1679 -0.375 -0.375 -0.375" stroke-width="1"></path><g><path stroke="#000000" d="M8.25 10.886c-0.20711 0 -0.375 -0.1679 -0.375 -0.375s0.16789 -0.375 0.375 -0.375" stroke-width="1"></path><path stroke="#000000" d="M8.25 10.886c0.20711 0 0.375 -0.1679 0.375 -0.375s-0.16789 -0.375 -0.375 -0.375" stroke-width="1"></path></g><g><path stroke="#000000" d="M15.75 3.978c-0.2071 0 -0.375 -0.1679 -0.375 -0.375 0 -0.20711 0.1679 -0.375 0.375 -0.375" stroke-width="1"></path><path stroke="#000000" d="M15.75 3.978c0.2071 0 0.375 -0.1679 0.375 -0.375 0 -0.20711 -0.1679 -0.375 -0.375 -0.375" stroke-width="1"></path></g><g><path stroke="#000000" d="M20.625 8.293c-0.2071 0 -0.375 -0.16789 -0.375 -0.375s0.1679 -0.375 0.375 -0.375" stroke-width="1"></path><path stroke="#000000" d="M20.625 8.293c0.2071 0 0.375 -0.16789 0.375 -0.375s-0.1679 -0.375 -0.375 -0.375" stroke-width="1"></path></g><g><path stroke="#000000" d="M20.625 12.043c-0.2071 0 -0.375 -0.1679 -0.375 -0.375s0.1679 -0.375 0.375 -0.375" stroke-width="1"></path><path stroke="#000000" d="M20.625 12.043c0.2071 0 0.375 -0.1679 0.375 -0.375s-0.1679 -0.375 -0.375 -0.375" stroke-width="1"></path></g></svg>