<svg id="Board-Game-Jenga--Streamline-Ultimate" xmlns="http://www.w3.org/2000/svg" viewBox="0 0 24 24"><desc>Board Game Jenga Streamline Icon: https://streamlinehq.com</desc><defs></defs><title>board-game-jenga</title><path d="M0.75 18.75h6l0 0v4.5l0 0h-5a1 1 0 0 1 -1 -1v-3.5l0 0Z" fill="none" stroke="#000000" stroke-linecap="round" stroke-linejoin="round" stroke-width="1"></path><path d="M17.164 14.25H2.25a1.5 1.5 0 0 0 -1.5 1.5v3h17.366" fill="none" stroke="#000000" stroke-linecap="round" stroke-linejoin="round" stroke-width="1"></path><path d="M6.75 18.75h6l0 0v3.5a1 1 0 0 1 -1 1h-5l0 0v-4.5l0 0Z" fill="none" stroke="#000000" stroke-linecap="round" stroke-linejoin="round" stroke-width="1"></path><path d="M1.75 0.75h4a1 1 0 0 1 1 1v3.5l0 0h-6l0 0v-3.5a1 1 0 0 1 1 -1Z" fill="none" stroke="#000000" stroke-linecap="round" stroke-linejoin="round" stroke-width="1"></path><path d="M13.75 0.75h4a1 1 0 0 1 1 1v3.5l0 0h-6l0 0v-3.5a1 1 0 0 1 1 -1Z" fill="none" stroke="#000000" stroke-linecap="round" stroke-linejoin="round" stroke-width="1"></path><path d="M6.75 9.75h6v4.5h-6Z" fill="none" stroke="#000000" stroke-linecap="round" stroke-linejoin="round" stroke-width="1"></path><path d="m16.8724412532 5.5929059128 1.4676824512 -0.309690527s1.4676824512 -0.3096905271 1.7773729782 1.157991924L23.217085938 21.130751736s0.309690527 1.4676824512 -1.157991924 1.7773729782l-1.4676824512 0.3096905271s-1.4676824512 0.309690527 -1.7773729783 -1.157991924L15.7144493292 7.370278891s-0.3096905271 -1.4676824511 1.157991924 -1.7773729782" fill="none" stroke="#000000" stroke-linecap="round" stroke-linejoin="round" stroke-width="1"></path><path d="M18.75 5.25h-18v3a1.5 1.5 0 0 0 1.5 1.5h13.965" fill="none" stroke="#000000" stroke-linecap="round" stroke-linejoin="round" stroke-width="1"></path></svg>