<svg xmlns="http://www.w3.org/2000/svg" fill="none" viewBox="0 0 24 24" id="Chess-Bishop--Streamline-Ultimate"><desc>Chess Bishop Streamline Icon: https://streamlinehq.com</desc><path stroke="#000000" stroke-linecap="round" stroke-linejoin="round" d="M13.6317 3.98448c0.2194 -0.31876 0.3478 -0.70498 0.3478 -1.1212 0 -1.09351 -0.8864 -1.979979 -1.98 -1.979979 -1.0935 0 -1.9799 0.886469 -1.9799 1.979979 0 0.41617 0.1284 0.80235 0.3477 1.12109C8.9429 5.379 7.10225 7.54497 7.10225 9.42541c0 1.74649 0.71085 2.87009 1.82232 3.51389l-0.74108 5.2985h-0.19778l-1.5144 1.3175c-0.65489 0.5698 -1.03088 1.3953 -1.03088 2.2634v1.298l13.11837 0v-1.298c0 -0.8681 -0.376 -1.6936 -1.0309 -2.2633l-1.5144 -1.3176h-0.1974l-0.7411 -5.2989c1.1111 -0.6439 1.8216 -1.7674 1.8216 -3.51349 0 -1.88039 -1.8405 -4.0463 -3.2649 -5.44093Z" stroke-width="1"></path><path stroke="#000000" stroke-linecap="round" stroke-linejoin="round" d="m13.4922 8.38916 1.76 -1.76001" stroke-width="1"></path><path stroke="#000000" stroke-linecap="round" stroke-linejoin="round" d="M8.17383 18.2388h7.65477" stroke-width="1"></path></svg>