<svg xmlns="http://www.w3.org/2000/svg" fill="none" viewBox="0 0 24 24" id="Dice-3--Streamline-Ultimate"><desc>Dice 3 Streamline Icon: https://streamlinehq.com</desc><path stroke="#000000" stroke-linecap="round" stroke-linejoin="round" d="M6.78985 7.50792c-0.36072 0 -0.65313 -0.29242 -0.65313 -0.65313s0.29241 -0.65313 0.65313 -0.65313" stroke-width="1"></path><path stroke="#000000" stroke-linecap="round" stroke-linejoin="round" d="M6.79023 7.50767c0.36071 0 0.65313 -0.29241 0.65313 -0.65313 0 -0.36071 -0.29242 -0.65312 -0.65313 -0.65312" stroke-width="1"></path><path stroke="#000000" stroke-linecap="round" stroke-linejoin="round" d="M11.9998 12.6529c-0.3607 0 -0.6531 -0.2924 -0.6531 -0.6531s0.2924 -0.6531 0.6531 -0.6531" stroke-width="1"></path><path stroke="#000000" stroke-linecap="round" stroke-linejoin="round" d="M12.0002 12.6527c0.3607 0 0.6531 -0.2924 0.6531 -0.6531s-0.2924 -0.6532 -0.6531 -0.6532" stroke-width="1"></path><path stroke="#000000" stroke-linecap="round" stroke-linejoin="round" d="M17.2107 17.798c-0.3607 0 -0.6531 -0.2925 -0.6531 -0.6532s0.2924 -0.6531 0.6531 -0.6531" stroke-width="1"></path><path stroke="#000000" stroke-linecap="round" stroke-linejoin="round" d="M17.2111 17.7977c0.3607 0 0.6532 -0.2924 0.6532 -0.6531s-0.2925 -0.6531 -0.6532 -0.6531" stroke-width="1"></path><path stroke="#000000" stroke-linecap="round" stroke-linejoin="round" d="M23 19c0 2.2091 -1.7909 4 -4 4L5 23C2.79086 23 0.999999 21.2091 0.999999 19L1 5.00026c0 -2.20914 1.79086 -4 4 -3.99999l14 0c2.2091 0 4 1.79086 4 4L23 19Z" stroke-width="1"></path></svg>