<svg xmlns="http://www.w3.org/2000/svg" fill="none" viewBox="0 0 24 24" id="Dice-6--Streamline-Ultimate"><desc>Dice 6 Streamline Icon: https://streamlinehq.com</desc><path stroke="#000000" stroke-linecap="round" stroke-linejoin="round" d="M7.30157 7.09288c-0.36072 0 -0.65313 -0.29242 -0.65313 -0.65313s0.29241 -0.65313 0.65313 -0.65313" stroke-width="1"></path><path stroke="#000000" stroke-linecap="round" stroke-linejoin="round" d="M7.30195 7.09263c0.36071 0 0.65313 -0.29241 0.65313 -0.65313 0 -0.36071 -0.29242 -0.65312 -0.65313 -0.65312" stroke-width="1"></path><path stroke="#000000" stroke-linecap="round" stroke-linejoin="round" d="M7.30157 18.213c-0.36072 0 -0.65313 -0.2924 -0.65313 -0.6531s0.29241 -0.6532 0.65313 -0.6532" stroke-width="1"></path><path stroke="#000000" stroke-linecap="round" stroke-linejoin="round" d="M7.30195 18.2127c0.36071 0 0.65313 -0.2924 0.65313 -0.6531s-0.29242 -0.6531 -0.65313 -0.6531" stroke-width="1"></path><path stroke="#000000" stroke-linecap="round" stroke-linejoin="round" d="M7.30157 12.6524c-0.36072 0 -0.65313 -0.2924 -0.65313 -0.6531s0.29241 -0.6531 0.65313 -0.6531" stroke-width="1"></path><path stroke="#000000" stroke-linecap="round" stroke-linejoin="round" d="M7.30195 12.6522c0.36071 0 0.65313 -0.2924 0.65313 -0.6531s-0.29242 -0.6532 -0.65313 -0.6532" stroke-width="1"></path><path stroke="#000000" stroke-linecap="round" stroke-linejoin="round" d="M16.698 12.6529c-0.3607 0 -0.6531 -0.2924 -0.6531 -0.6531s0.2924 -0.6531 0.6531 -0.6531" stroke-width="1"></path><path stroke="#000000" stroke-linecap="round" stroke-linejoin="round" d="M16.6984 12.6527c0.3607 0 0.6532 -0.2924 0.6532 -0.6531s-0.2925 -0.6532 -0.6532 -0.6532" stroke-width="1"></path><path stroke="#000000" stroke-linecap="round" stroke-linejoin="round" d="M16.698 7.09288c-0.3607 0 -0.6531 -0.29242 -0.6531 -0.65313s0.2924 -0.65313 0.6531 -0.65313" stroke-width="1"></path><path stroke="#000000" stroke-linecap="round" stroke-linejoin="round" d="M16.6984 7.09263c0.3607 0 0.6532 -0.29241 0.6532 -0.65313 0 -0.36071 -0.2925 -0.65312 -0.6532 -0.65312" stroke-width="1"></path><path stroke="#000000" stroke-linecap="round" stroke-linejoin="round" d="M16.698 18.213c-0.3607 0 -0.6531 -0.2924 -0.6531 -0.6531s0.2924 -0.6532 0.6531 -0.6532" stroke-width="1"></path><path stroke="#000000" stroke-linecap="round" stroke-linejoin="round" d="M16.6984 18.2127c0.3607 0 0.6532 -0.2924 0.6532 -0.6531s-0.2925 -0.6531 -0.6532 -0.6531" stroke-width="1"></path><path stroke="#000000" stroke-linecap="round" stroke-linejoin="round" d="M23 19c0 2.2091 -1.7909 4 -4 4L5 23C2.79086 23 0.999999 21.2091 0.999999 19L1 5.00026c0 -2.20914 1.79086 -4 4 -3.99999l14 0c2.2091 0 4 1.79086 4 4L23 19Z" stroke-width="1"></path></svg>