<svg xmlns="http://www.w3.org/2000/svg" viewBox="0 0 24 24" id="Begging-Cup-Give-Coin--Streamline-Ultimate"><desc>Begging Cup Give Coin Streamline Icon: https://streamlinehq.com</desc><defs></defs><path d="m15.754 20.973 -0.339 2.277 -5.121 0 -1.432 -9.857 8.021 0 -0.285 1.912" fill="none" stroke="#000000" stroke-linecap="round" stroke-linejoin="round" stroke-width="1"></path><path d="m19.342 15 -4.3 0.924a1.137 1.137 0 0 0 -0.856 1.418h0a1.136 1.136 0 0 0 1.309 0.809l1.611 -0.31h0a3.239 3.239 0 0 0 3.864 -0.242" fill="none" stroke="#000000" stroke-linecap="round" stroke-linejoin="round" stroke-width="1"></path><path d="m14.274 12.944 1.232 -1.2a2.387 2.387 0 0 1 2.3 -0.587l4.415 1.228" fill="none" stroke="#000000" stroke-linecap="round" stroke-linejoin="round" stroke-width="1"></path><path d="M5.99 6.524a3.054 3.054 0 1 0 5.823 1.288" fill="none" stroke="#000000" stroke-linecap="round" stroke-linejoin="round" stroke-width="1"></path><path d="m9.828 5.9 1.851 1.658c-0.069 -0.048 -0.06 -0.045 -0.051 -0.042a1.137 1.137 0 0 0 1.521 -1.48A6.246 6.246 0 0 0 8.6 1.565a19.04 19.04 0 0 0 -4.911 0.075L2.19 0.75" fill="none" stroke="#000000" stroke-linecap="round" stroke-linejoin="round" stroke-width="1"></path><path d="M1.777 4.769A5.306 5.306 0 0 0 4.857 6.4a3.263 3.263 0 0 0 1 0l0.035 0 2.2 1.332c2.413 0.938 2.64 -3 -1.169 -4.092" fill="none" stroke="#000000" stroke-linecap="round" stroke-linejoin="round" stroke-width="1"></path></svg>