<svg xmlns="http://www.w3.org/2000/svg" viewBox="0 0 24 24" id="Begging-Person-Coin-2--Streamline-Ultimate"><desc>Begging Person Coin 2 Streamline Icon: https://streamlinehq.com</desc><defs></defs><path d="M4.335 5.475a2.456 2.456 0 1 0 4.912 0 2.456 2.456 0 1 0 -4.912 0" fill="none" stroke="#000000" stroke-linecap="round" stroke-linejoin="round" stroke-width="1"></path><path d="M15.1 14.567a1.75 1.75 0 0 1 -1.476 0.808h-2.061a11.535 11.535 0 0 1 -5.135 -1.212l-0.672 -0.336a10.07 10.07 0 0 0 -1.292 3.848l2.977 -1.593a1.748 1.748 0 0 1 2.062 0.306l3.5 3.5a1.749 1.749 0 1 1 -2.474 2.474L7.947 19.78l-4.384 2.346a1.751 1.751 0 0 1 -2.555 -1.274c-0.57 -3.674 0.729 -8.172 3.021 -10.464a1.751 1.751 0 0 1 2.019 -0.328l1.946 0.972a8.008 8.008 0 0 0 3.569 0.843" fill="none" stroke="#000000" stroke-linecap="round" stroke-linejoin="round" stroke-width="1"></path><path d="M18.923 4.155h-1.589a1.049 1.049 0 0 0 -0.39 2.022l1.613 0.646a1.049 1.049 0 0 1 -0.39 2.022h-1.589" fill="none" stroke="#000000" stroke-linecap="round" stroke-linejoin="round" stroke-width="1"></path><path d="m17.75 4.155 0 -1.137" fill="none" stroke="#000000" stroke-linecap="round" stroke-linejoin="round" stroke-width="1"></path><path d="m17.75 9.982 0 -1.137" fill="none" stroke="#000000" stroke-linecap="round" stroke-linejoin="round" stroke-width="1"></path><path d="M12.375 6.5a5.375 5.375 0 1 0 10.75 0 5.375 5.375 0 1 0 -10.75 0" fill="none" stroke="#000000" stroke-linecap="round" stroke-linejoin="round" stroke-width="1"></path></svg>