<svg xmlns="http://www.w3.org/2000/svg" viewBox="0 0 24 24" id="Begging-Hand-Ask--Streamline-Ultimate"><desc>Begging Hand Ask Streamline Icon: https://streamlinehq.com</desc><defs></defs><path d="M11.1 4.413V2.32a1.57 1.57 0 0 1 3.14 0v2.093" fill="none" stroke="#000000" stroke-linecap="round" stroke-linejoin="round" stroke-width="1"></path><path d="M14.237 10.4V4.413a1.57 1.57 0 1 1 3.139 0v3.139" fill="none" stroke="#000000" stroke-linecap="round" stroke-linejoin="round" stroke-width="1"></path><path d="M7.821 20.634A68.208 68.208 0 0 1 3.56 10.561a1.624 1.624 0 0 1 0.95 -2h0a1.628 1.628 0 0 1 1.965 0.616c0.616 0.933 0.822 1.513 1.4 2.511l0.084 -7.277a1.57 1.57 0 1 1 3.139 0V10.4" fill="none" stroke="#000000" stroke-linecap="round" stroke-linejoin="round" stroke-width="1"></path><path d="M17.376 10.4V7.552a1.57 1.57 0 0 1 3.14 0v10.465a5.217 5.217 0 0 1 -1.046 3.14" fill="none" stroke="#000000" stroke-linecap="round" stroke-linejoin="round" stroke-width="1"></path><path d="m7.547 11.1 0.916 1.669a2.915 2.915 0 0 1 2.5 2.633" fill="none" stroke="#000000" stroke-linecap="round" stroke-linejoin="round" stroke-width="1"></path><path d="m7.297 23.25 0 -2.093 12.558 0 0 2.093" fill="none" stroke="#000000" stroke-linecap="round" stroke-linejoin="round" stroke-width="1"></path></svg>