<svg xmlns="http://www.w3.org/2000/svg" viewBox="0 0 24 24" id="Begging-Hand-Coin-1--Streamline-Ultimate"><desc>Begging Hand Coin 1 Streamline Icon: https://streamlinehq.com</desc><defs></defs><path d="m15.156 17.5 6.03 -1.9 0.042 -0.012a1.437 1.437 0 0 1 0.964 2.683c-11.835 6.129 -8.816 5.853 -21.163 1.737" fill="none" stroke="#000000" stroke-linecap="round" stroke-linejoin="round" stroke-width="1"></path><path d="m7.958 18.039 6.079 -0.031a1.5 1.5 0 0 0 1.5 -1.5h0" fill="none" stroke="#000000" stroke-linecap="round" stroke-linejoin="round" stroke-width="1"></path><path d="M1.029 12.5h2.147a10.905 10.905 0 0 1 3.346 0.521" fill="none" stroke="#000000" stroke-linecap="round" stroke-linejoin="round" stroke-width="1"></path><path d="M17.617 5.662h-1.626a1.073 1.073 0 0 0 -0.4 2.07l1.651 0.661a1.073 1.073 0 0 1 -0.4 2.069h-1.625" fill="none" stroke="#000000" stroke-linecap="round" stroke-linejoin="round" stroke-width="1"></path><path d="m16.417 5.662 0 -1.162" fill="none" stroke="#000000" stroke-linecap="round" stroke-linejoin="round" stroke-width="1"></path><path d="m16.417 11.5 0 -1.038" fill="none" stroke="#000000" stroke-linecap="round" stroke-linejoin="round" stroke-width="1"></path><path d="M10.917 8.062a5.5 5.5 0 1 0 11 0 5.5 5.5 0 1 0 -11 0" fill="none" stroke="#000000" stroke-linecap="round" stroke-linejoin="round" stroke-width="1"></path><path d="M2.029 4a3 3 0 1 0 6 0 3 3 0 1 0 -6 0" fill="none" stroke="#000000" stroke-linecap="round" stroke-linejoin="round" stroke-width="1"></path></svg>