<svg xmlns="http://www.w3.org/2000/svg" fill="none" viewBox="0 0 24 24" id="Begging-Person-Coin-1--Streamline-Ultimate"><desc>Begging Person Coin 1 Streamline Icon: https://streamlinehq.com</desc><path stroke="#000000" stroke-linecap="round" stroke-linejoin="round" d="M18.7 4.21412h-1.627c-0.2498 -0.00079 -0.4921 0.08563 -0.685 0.24434 -0.193 0.15872 -0.3245 0.37978 -0.3719 0.62507 -0.0474 0.2453 -0.0077 0.49944 0.1122 0.71861 0.1199 0.21917 0.3126 0.38963 0.5447 0.48198l1.65 0.66c0.2321 0.09234 0.4248 0.2628 0.5447 0.48197 0.1199 0.21917 0.1596 0.47332 0.1122 0.71861 -0.0474 0.24529 -0.1789 0.46636 -0.3719 0.62507 -0.1929 0.15872 -0.4352 0.24513 -0.685 0.24435H16.3" stroke-width="1"></path><path stroke="#000000" stroke-linecap="round" stroke-linejoin="round" d="M17.5 4.214V3.052" stroke-width="1"></path><path stroke="#000000" stroke-linecap="round" stroke-linejoin="round" d="M17.5 10.0519V9.01392" stroke-width="1"></path><path stroke="#000000" stroke-linecap="round" stroke-linejoin="round" d="M16.768 12.066c1.1984 0.1595 2.4159 -0.0807 3.4639 -0.6834C21.28 10.7799 22.1 9.84849 22.565 8.73254c0.465 -1.11595 0.549 -2.35409 0.239 -3.52262 -0.31 -1.16852 -0.9968 -2.20219 -1.9538 -2.94087s-2.131 -1.14113 -3.3399 -1.145c-1.2089 -0.00387 -2.3854 0.39106 -3.3472 1.12359 -0.9617 0.73254 -1.655 1.76179 -1.9725 2.92831 -0.3175 1.16651 -0.2414 2.40517 0.2164 3.52407" stroke-width="1"></path><path stroke="#000000" stroke-linecap="round" stroke-linejoin="round" d="M7.325 7.71397c0.45984 0 0.90936 -0.13636 1.2917 -0.39184 0.38235 -0.25547 0.68035 -0.61859 0.85632 -1.04343 0.17597 -0.42483 0.22202 -0.89231 0.13231 -1.34332 -0.08971 -0.45101 -0.31115 -0.86528 -0.63631 -1.19044 -0.32515 -0.32515 -0.73943 -0.54659 -1.19043 -0.6363 -0.45101 -0.08971 -0.91849 -0.04367 -1.34333 0.13231 -0.42484 0.17597 -0.78795 0.47397 -1.04343 0.85631C5.13636 4.47961 5 4.92912 5 5.38897c-0.00013 0.30536 0.05992 0.60775 0.17671 0.88989 0.1168 0.28214 0.28805 0.5385 0.50397 0.75442 0.21593 0.21592 0.47228 0.38718 0.75443 0.50397 0.28214 0.1168 0.58453 0.17685 0.88989 0.17672v0Z" stroke-width="1"></path><path stroke="#000000" stroke-linecap="round" stroke-linejoin="round" d="M14.105 12.2699c-0.18 -0.4008 -0.5118 -0.7137 -0.9225 -0.8699 -0.4107 -0.1563 -0.8666 -0.143 -1.2675 0.0369l-1.9 0.855L7.23 9.73994c-0.027 -0.024 -0.057 -0.041 -0.085 -0.063 -0.05352 -0.04564 -0.10998 -0.08773 -0.169 -0.126 -0.04176 -0.02404 -0.08483 -0.04574 -0.129 -0.065 -0.05262 -0.02848 -0.10669 -0.05419 -0.162 -0.077 -0.05771 -0.01905 -0.11648 -0.03474 -0.176 -0.047 -0.042 -0.011 -0.082 -0.027 -0.126 -0.035h-0.015c-0.06639 -0.00782 -0.13315 -0.01216 -0.2 -0.013 -0.043 0 -0.085 -0.008 -0.127 -0.006 -0.0577 0.00465 -0.11511 0.01232 -0.172 0.023 -0.07188 0.01004 -0.14303 0.02474 -0.213 0.044 -0.13728 0.04003 -0.26873 0.09785 -0.391 0.172 -0.04 0.024 -0.082 0.043 -0.119 0.069 -0.037 0.026 -0.049 0.044 -0.074 0.065 -0.06148 0.04762 -0.11961 0.09941 -0.174 0.155l-0.008 0.007c-0.022 0.024 -0.037 0.052 -0.058 0.077 -0.04779 0.05712 -0.09188 0.11726 -0.132 0.17996 -0.02572 0.0455 -0.04908 0.0922 -0.07 0.14 -0.02668 0.0486 -0.05039 0.0987 -0.071 0.15 -0.02279 0.0654 -0.04117 0.1322 -0.055 0.2 -0.008 0.036 -0.022 0.068 -0.028 0.105l-0.97 5.82c-0.04172 0.2501 -0.02546 0.5063 0.04754 0.749 0.07299 0.2428 0.20076 0.4655 0.37346 0.651l1.549 1.663h-2.82c-0.43228 0.0107 -0.84329 0.1898 -1.14528 0.4993 -0.30198 0.3095 -0.47102 0.7248 -0.47102 1.1572 0 0.4325 0.16904 0.8477 0.47102 1.1572 0.30199 0.3095 0.713 0.4887 1.14528 0.4993h6.625c0.32378 0.0012 0.64081 -0.0925 0.9119 -0.2696 0.271 -0.1771 0.4842 -0.4297 0.6132 -0.7267 0.129 -0.297 0.1681 -0.6253 0.1124 -0.9443 -0.0556 -0.3189 -0.2036 -0.6146 -0.4255 -0.8504l-3.585 -3.85 0.334 -2 1.334 1.224c0.23894 0.2189 0.53672 0.3629 0.85659 0.4145 0.31987 0.0515 0.64781 0.0082 0.94341 -0.1245l2.9 -1.3c0.1985 -0.0895 0.3775 -0.2174 0.5266 -0.3761 0.1491 -0.1588 0.2655 -0.3454 0.3425 -0.5491 0.0769 -0.2038 0.113 -0.4207 0.1062 -0.6384 -0.0069 -0.2177 -0.0566 -0.4319 -0.1463 -0.6304v0Z" stroke-width="1"></path></svg>