<svg xmlns="http://www.w3.org/2000/svg" viewBox="0 0 24 24" id="Donation-Charity-Handshake-Heart--Streamline-Ultimate"><desc>Donation Charity Handshake Heart Streamline Icon: https://streamlinehq.com</desc><defs></defs><path d="m19.05 19.576 -4.787 0.957" fill="none" stroke="#000000" stroke-linecap="round" stroke-linejoin="round" stroke-width="1"></path><path d="m14.738 15.1 -2.26 0.954a1.425 1.425 0 0 1 -1.122 -0.015 1.483 1.483 0 0 1 -0.781 -0.831 1.525 1.525 0 0 1 0.706 -1.9l2.259 -1.128a1.972 1.972 0 0 1 1.594 -0.094l4.639 1.828" fill="none" stroke="#000000" stroke-linecap="round" stroke-linejoin="round" stroke-width="1"></path><path d="M5.5 20.572h1.6l3.041 2.328a0.83 0.83 0 0 0 1.15 0.09l4.26 -3.518a0.842 0.842 0 0 0 0.129 -1.164L13.333 15.7" fill="none" stroke="#000000" stroke-linecap="round" stroke-linejoin="round" stroke-width="1"></path><path d="m11.036 13.472 -0.247 -0.2a1.79 1.79 0 0 0 -1.725 -0.22l-3.57 1.52" fill="none" stroke="#000000" stroke-linecap="round" stroke-linejoin="round" stroke-width="1"></path><path d="M1.75 21.322h2.6a1.141 1.141 0 0 0 1.2 -1.072v-5.357a1.141 1.141 0 0 0 -1.2 -1.071h-2.6" fill="none" stroke="#000000" stroke-linecap="round" stroke-linejoin="round" stroke-width="1"></path><path d="M22.25 21.322h-2a1.141 1.141 0 0 1 -1.2 -1.072v-5.357a1.141 1.141 0 0 1 1.2 -1.071h2" fill="none" stroke="#000000" stroke-linecap="round" stroke-linejoin="round" stroke-width="1"></path><path d="M11.881 9.822 7.5 5.249a2.592 2.592 0 0 1 -0.486 -2.993h0a2.593 2.593 0 0 1 4.153 -0.674l0.716 0.716 0.716 -0.716a2.593 2.593 0 0 1 4.153 0.674h0a2.593 2.593 0 0 1 -0.486 2.993Z" fill="none" stroke="#000000" stroke-linecap="round" stroke-linejoin="round" stroke-width="1"></path></svg>