<svg xmlns="http://www.w3.org/2000/svg" viewBox="0 0 24 24" id="Donation-Box-Coin--Streamline-Ultimate"><desc>Donation Box Coin Streamline Icon: https://streamlinehq.com</desc><defs></defs><path d="M10.649 8.883A1.54 1.54 0 0 0 12 9.626a1.416 1.416 0 0 0 1.5 -1.313A1.415 1.415 0 0 0 12 7a1.416 1.416 0 0 1 -1.5 -1.314A1.417 1.417 0 0 1 12 4.374a1.543 1.543 0 0 1 1.351 0.743" fill="none" stroke="#000000" stroke-linecap="round" stroke-linejoin="round" stroke-width="1"></path><path d="m12 9.626 0 0.874" fill="none" stroke="#000000" stroke-linecap="round" stroke-linejoin="round" stroke-width="1"></path><path d="m12 3.5 0 0.874" fill="none" stroke="#000000" stroke-linecap="round" stroke-linejoin="round" stroke-width="1"></path><path d="m20 11.5 3 4.5 -22 0 3 -4.5" fill="none" stroke="#000000" stroke-linecap="round" stroke-linejoin="round" stroke-width="1"></path><path d="m6.5 13 11 0" fill="none" stroke="#000000" stroke-linecap="round" stroke-linejoin="round" stroke-width="1"></path><path d="M6.522 11a6.5 6.5 0 1 1 10.956 0" fill="none" stroke="#000000" stroke-linecap="round" stroke-linejoin="round" stroke-width="1"></path><path d="m1 16 0 7" fill="none" stroke="#000000" stroke-linecap="round" stroke-linejoin="round" stroke-width="1"></path><path d="m23 16 0 7" fill="none" stroke="#000000" stroke-linecap="round" stroke-linejoin="round" stroke-width="1"></path></svg>