<svg xmlns="http://www.w3.org/2000/svg" viewBox="0 0 24 24" id="Donation-Donate-Credit-Card-1--Streamline-Ultimate"><desc>Donation Donate Credit Card 1 Streamline Icon: https://streamlinehq.com</desc><defs></defs><path d="m19.843 8.213 -2.9 -3.03a1.717 1.717 0 0 1 -0.326 -1.983h0a1.718 1.718 0 0 1 2.752 -0.446l0.474 0.474 0.474 -0.474a1.718 1.718 0 0 1 2.752 0.446h0a1.719 1.719 0 0 1 -0.322 1.983Z" fill="none" stroke="#000000" stroke-linecap="round" stroke-linejoin="round" stroke-width="1"></path><path d="M0.75 21c3.75 0 2.25 0.75 12 0.75 2.916 0 3.662 -1.635 3.685 -3.75" fill="none" stroke="#000000" stroke-linecap="round" stroke-linejoin="round" stroke-width="1"></path><path d="M0.75 13.393h2.382a0.964 0.964 0 0 0 0.747 -0.354l4.05 -3.985 3.829 0.766c0.546 0.109 0.905 0.545 0.667 1.5a0.963 0.963 0 0 1 -0.8 0.721l-1.875 0.269a0.842 0.842 0 0 0 -0.75 0.955v2.557a1.4 1.4 0 0 1 -0.44 0.753l-2.078 1.639" fill="none" stroke="#000000" stroke-linecap="round" stroke-linejoin="round" stroke-width="1"></path><path d="M14.25 6.75H10.5A1.5 1.5 0 0 0 9 8.25v1.018" fill="none" stroke="#000000" stroke-linecap="round" stroke-linejoin="round" stroke-width="1"></path><path d="M12 18h9.75a1.5 1.5 0 0 0 1.5 -1.5V8.25" fill="none" stroke="#000000" stroke-linecap="round" stroke-linejoin="round" stroke-width="1"></path><path d="m12.492 10.5 10.758 0" fill="none" stroke="#000000" stroke-linecap="round" stroke-linejoin="round" stroke-width="1"></path><path d="m20.25 13.5 -1.5 0" fill="none" stroke="#000000" stroke-linecap="round" stroke-linejoin="round" stroke-width="1"></path></svg>