<svg xmlns="http://www.w3.org/2000/svg" viewBox="0 0 24 24" id="Donation-Care-Hands-Heart-1--Streamline-Ultimate"><desc>Donation Care Hands Heart 1 Streamline Icon: https://streamlinehq.com</desc><defs></defs><path d="M12.36 14.425 8.786 10.7a2.115 2.115 0 0 1 -0.4 -2.441h0a2.116 2.116 0 0 1 3.388 -0.55l0.583 0.584 0.584 -0.584a2.115 2.115 0 0 1 3.387 0.55h0a2.114 2.114 0 0 1 -0.4 2.441Z" fill="none" stroke="#000000" stroke-linecap="round" stroke-linejoin="round" stroke-width="1"></path><path d="M13.373 4.828a4.572 4.572 0 0 1 3.233 -1.339h0a4.572 4.572 0 0 1 3.233 1.339l1.842 1.842a5.359 5.359 0 0 1 1.465 4.838l-1.152 5.761a1.374 1.374 0 0 1 -1.078 1.077h0a1.374 1.374 0 0 1 -1.635 -1.2l-0.132 -1.194" fill="none" stroke="#000000" stroke-linecap="round" stroke-linejoin="round" stroke-width="1"></path><path d="m10.907 5.108 -0.28 -0.28a4.572 4.572 0 0 0 -3.233 -1.339h0a4.572 4.572 0 0 0 -3.233 1.339L2.319 6.67a5.359 5.359 0 0 0 -1.465 4.838l1.152 5.761a1.374 1.374 0 0 0 1.078 1.077h0a1.374 1.374 0 0 0 1.635 -1.2l0.308 -2.772 5.74 5.74a2.36 2.36 0 0 0 2.606 0l4.437 -6.213h0a1.338 1.338 0 0 0 0 -1.893" fill="none" stroke="#000000" stroke-linecap="round" stroke-linejoin="round" stroke-width="1"></path></svg>