<svg xmlns="http://www.w3.org/2000/svg" viewBox="0 0 24 24" id="Donation-Charity-Hand-Share-Heart--Streamline-Ultimate"><desc>Donation Charity Hand Share Heart Streamline Icon: https://streamlinehq.com</desc><defs></defs><path d="m15.309 12.892 -5.76 -6.008a3.408 3.408 0 0 1 -0.638 -3.934h0a3.407 3.407 0 0 1 5.457 -0.885l0.941 0.941 0.941 -0.941a3.407 3.407 0 0 1 5.457 0.885h0a3.41 3.41 0 0 1 -0.639 3.934Z" fill="none" stroke="#000000" stroke-linecap="round" stroke-linejoin="round" stroke-width="1"></path><path d="m1.934 13.934 0 9" fill="none" stroke="#000000" stroke-linecap="round" stroke-linejoin="round" stroke-width="1"></path><path d="M1.934 21.434h15a3 3 0 0 0 -3 -3h-3.75a3 3 0 0 0 -3 -3h-5.25" fill="none" stroke="#000000" stroke-linecap="round" stroke-linejoin="round" stroke-width="1"></path><path d="m7.184 18.434 3 0" fill="none" stroke="#000000" stroke-linecap="round" stroke-linejoin="round" stroke-width="1"></path></svg>