<svg xmlns="http://www.w3.org/2000/svg" viewBox="0 0 24 24" id="Donation-Care-Hands-Heart-2--Streamline-Ultimate"><desc>Donation Care Hands Heart 2 Streamline Icon: https://streamlinehq.com</desc><defs></defs><path d="M11.763 12.978 6.046 7.014a3.383 3.383 0 0 1 -0.634 -3.9h0a3.382 3.382 0 0 1 5.417 -0.878l0.934 0.933 0.934 -0.933a3.382 3.382 0 0 1 5.417 0.878h0a3.383 3.383 0 0 1 -0.634 3.905Z" fill="none" stroke="#000000" stroke-linecap="round" stroke-linejoin="round" stroke-width="1"></path><path d="M12 14.935v4.425a3.4 3.4 0 0 1 -1 2.405h0a3.4 3.4 0 0 1 -2.4 1H6.661a3.984 3.984 0 0 1 -3.315 -1.775L0.922 17.351a1.022 1.022 0 0 1 0 -1.134h0a1.02 1.02 0 0 1 1.488 -0.231l1.62 1.3v-6.479a1 1 0 0 1 1 -1h0" fill="none" stroke="#000000" stroke-linecap="round" stroke-linejoin="round" stroke-width="1"></path><path d="M12 14.935v4.425a3.4 3.4 0 0 0 1 2.405h0a3.4 3.4 0 0 0 2.4 1h1.938a3.984 3.984 0 0 0 3.315 -1.775l2.424 -3.635a1.022 1.022 0 0 0 0 -1.134h0a1.02 1.02 0 0 0 -1.488 -0.231l-1.62 1.3v-6.483a1 1 0 0 0 -1 -1h0" fill="none" stroke="#000000" stroke-linecap="round" stroke-linejoin="round" stroke-width="1"></path></svg>