<svg xmlns="http://www.w3.org/2000/svg" viewBox="0 0 24 24" id="Donation-Charity-Smartphone-Heart--Streamline-Ultimate"><desc>Donation Charity Smartphone Heart Streamline Icon: https://streamlinehq.com</desc><defs></defs><path d="M15.883 12.25 12.574 8.8a1.958 1.958 0 0 1 -0.367 -2.26h0a1.958 1.958 0 0 1 3.136 -0.509l0.54 0.541 0.541 -0.541a1.958 1.958 0 0 1 3.136 0.509h0a1.958 1.958 0 0 1 -0.367 2.26Z" fill="none" stroke="#000000" stroke-linecap="round" stroke-linejoin="round" stroke-width="1"></path><path d="m8.25 15 1.673 -1.255a1.569 1.569 0 0 1 2.247 0.385h0a1.569 1.569 0 0 1 0 1.74l-1.645 2.467a4.5 4.5 0 0 1 -2.073 1.682L6 21v2.25" fill="none" stroke="#000000" stroke-linecap="round" stroke-linejoin="round" stroke-width="1"></path><path d="M1.5 23.25v-5.076C1.5 11.75 6 8.75 9 8.25" fill="none" stroke="#000000" stroke-linecap="round" stroke-linejoin="round" stroke-width="1"></path><path d="M9 14.438V3.75a3 3 0 0 1 3 -3h7.5a3 3 0 0 1 3 3v16.5a3 3 0 0 1 -3 3H12a3 3 0 0 1 -3 -3v-0.5" fill="none" stroke="#000000" stroke-linecap="round" stroke-linejoin="round" stroke-width="1"></path><path d="m10.214 18.75 12.286 0" fill="none" stroke="#000000" stroke-linecap="round" stroke-linejoin="round" stroke-width="1"></path></svg>