<svg xmlns="http://www.w3.org/2000/svg" viewBox="0 0 24 24" id="Donation-Charity-Hand-Give-Heart--Streamline-Ultimate"><desc>Donation Charity Hand Give Heart Streamline Icon: https://streamlinehq.com</desc><defs></defs><path d="m0.995 14.446 0 8.804" fill="none" stroke="#000000" stroke-linecap="round" stroke-linejoin="round" stroke-width="1"></path><path d="M1 21.783h14.668a2.934 2.934 0 0 0 -2.934 -2.935H9.065a2.935 2.935 0 0 0 -2.935 -2.935H1" fill="none" stroke="#000000" stroke-linecap="round" stroke-linejoin="round" stroke-width="1"></path><path d="m6.13 18.848 2.935 0" fill="none" stroke="#000000" stroke-linecap="round" stroke-linejoin="round" stroke-width="1"></path><path d="m10.556 13.969 -2.841 -2.963A1.684 1.684 0 0 1 7.4 9.065h0a1.68 1.68 0 0 1 2.692 -0.436l0.464 0.463 0.464 -0.463a1.68 1.68 0 0 1 2.692 0.436h0a1.682 1.682 0 0 1 -0.315 1.941Z" fill="none" stroke="#000000" stroke-linecap="round" stroke-linejoin="round" stroke-width="1"></path><path d="M13.052 5.736a3.378 3.378 0 0 1 2.721 -1.615 2 2 0 0 1 1.409 0.5l0.818 0.71a1.348 1.348 0 0 1 0.06 1.969l-1.384 1.381A1.01 1.01 0 0 0 18.1 10.11l2.851 -2.51a2.691 2.691 0 0 1 1.905 -0.789h0.149" fill="none" stroke="#000000" stroke-linecap="round" stroke-linejoin="round" stroke-width="1"></path><path d="M23.005 0.75H16.44a7.457 7.457 0 0 0 -1.827 0.3 5.5 5.5 0 0 0 -3.546 3.19" fill="none" stroke="#000000" stroke-linecap="round" stroke-linejoin="round" stroke-width="1"></path></svg>