<svg xmlns="http://www.w3.org/2000/svg" viewBox="0 0 24 24" id="Donation-Donate-Coin-Stack-Heart--Streamline-Ultimate"><desc>Donation Donate Coin Stack Heart Streamline Icon: https://streamlinehq.com</desc><defs></defs><path d="M5.126 7.25a4.665 4.665 0 0 1 0.116 -3.921h0a4.665 4.665 0 0 1 7.471 -1.212L14 3.4l1.288 -1.287a4.664 4.664 0 0 1 7.47 1.212h0a4.667 4.667 0 0 1 -0.874 5.384L14 16.938l-0.659 -0.688" fill="none" stroke="#000000" stroke-linecap="round" stroke-linejoin="round" stroke-width="1"></path><path d="M0.75 12.85a5.2 2.6 0 1 0 10.4 0 5.2 2.6 0 1 0 -10.4 0" fill="none" stroke="#000000" stroke-linecap="round" stroke-linejoin="round" stroke-width="1"></path><path d="M0.75 12.85v7.8c0 1.436 2.328 2.6 5.2 2.6s5.2 -1.164 5.2 -2.6v-7.8" fill="none" stroke="#000000" stroke-linecap="round" stroke-linejoin="round" stroke-width="1"></path><path d="M11.15 15.45c0 1.436 -2.328 2.6 -5.2 2.6s-5.2 -1.164 -5.2 -2.6" fill="none" stroke="#000000" stroke-linecap="round" stroke-linejoin="round" stroke-width="1"></path><path d="M11.15 18.05c0 1.436 -2.328 2.6 -5.2 2.6s-5.2 -1.164 -5.2 -2.6" fill="none" stroke="#000000" stroke-linecap="round" stroke-linejoin="round" stroke-width="1"></path></svg>