<svg xmlns="http://www.w3.org/2000/svg" viewBox="0 0 24 24" id="Donation-Donate-Gift-Box-1--Streamline-Ultimate"><desc>Donation Donate Gift Box 1 Streamline Icon: https://streamlinehq.com</desc><defs></defs><path d="m1.818 13.764 0 9" fill="none" stroke="#000000" stroke-linecap="round" stroke-linejoin="round" stroke-width="1"></path><path d="M1.818 21.264h15a3 3 0 0 0 -3 -3h-3.75a3 3 0 0 0 -3 -3h-5.25" fill="none" stroke="#000000" stroke-linecap="round" stroke-linejoin="round" stroke-width="1"></path><path d="m7.068 18.264 3 0" fill="none" stroke="#000000" stroke-linecap="round" stroke-linejoin="round" stroke-width="1"></path><path d="m16.264 11.142 -2.2 -2.3a1.3 1.3 0 0 1 -0.244 -1.5h0A1.3 1.3 0 0 1 15.9 7l0.36 0.359 0.363 -0.359a1.3 1.3 0 0 1 2.087 0.338h0a1.305 1.305 0 0 1 -0.244 1.5Z" fill="none" stroke="#000000" stroke-linecap="round" stroke-linejoin="round" stroke-width="1"></path><path d="M10.345 4h11.837l0 0v8.526a1.239 1.239 0 0 1 -1.239 1.239h-9.359a1.239 1.239 0 0 1 -1.239 -1.239V4l0 0Z" fill="none" stroke="#000000" stroke-linecap="round" stroke-linejoin="round" stroke-width="1"></path><path d="M11.345 1.236h9.837a1 1 0 0 1 1 1V4l0 0H10.345l0 0V2.236a1 1 0 0 1 1 -1Z" fill="none" stroke="#000000" stroke-linecap="round" stroke-linejoin="round" stroke-width="1"></path></svg>