<svg xmlns="http://www.w3.org/2000/svg" viewBox="0 0 24 24" id="Donation-Charity-Care-Person--Streamline-Ultimate"><desc>Donation Charity Care Person Streamline Icon: https://streamlinehq.com</desc><defs></defs><path d="m3.75 22.846 -2.014 -2.381a4.5 4.5 0 0 1 -0.986 -2.811v-5.172a1.5 1.5 0 0 1 1.5 -1.5h0a1.5 1.5 0 0 1 1.5 1.5v3.75" fill="none" stroke="#000000" stroke-linecap="round" stroke-linejoin="round" stroke-width="1"></path><path d="M8.25 22.846v-3a4.5 4.5 0 0 0 -0.757 -2.5l-1.142 -1.71a1.4 1.4 0 0 0 -1.977 -0.444h0a1.4 1.4 0 0 0 -0.476 1.79l1.352 2.25" fill="none" stroke="#000000" stroke-linecap="round" stroke-linejoin="round" stroke-width="1"></path><path d="m20.25 22.846 2.014 -2.381a4.5 4.5 0 0 0 0.986 -2.811v-5.172a1.5 1.5 0 0 0 -1.5 -1.5h0a1.5 1.5 0 0 0 -1.5 1.5v3.75" fill="none" stroke="#000000" stroke-linecap="round" stroke-linejoin="round" stroke-width="1"></path><path d="M15.75 22.846v-3a4.5 4.5 0 0 1 0.757 -2.5l1.142 -1.712a1.4 1.4 0 0 1 1.977 -0.444h0a1.4 1.4 0 0 1 0.476 1.79l-1.352 2.25" fill="none" stroke="#000000" stroke-linecap="round" stroke-linejoin="round" stroke-width="1"></path><path d="M9.25 4.154a3 3 0 1 0 6 0 3 3 0 1 0 -6 0" fill="none" stroke="#000000" stroke-linecap="round" stroke-linejoin="round" stroke-width="1"></path><path d="M16.75 13.154a4.5 4.5 0 0 0 -9 0" fill="none" stroke="#000000" stroke-linecap="round" stroke-linejoin="round" stroke-width="1"></path></svg>