<svg xmlns="http://www.w3.org/2000/svg" viewBox="0 0 24 24" id="Donation-Donate-Credit-Card-2--Streamline-Ultimate"><desc>Donation Donate Credit Card 2 Streamline Icon: https://streamlinehq.com</desc><defs></defs><path d="M16.075 6.315a2.8 2.8 0 0 1 2.966 -2.595h2.966" fill="none" stroke="#000000" stroke-linecap="round" stroke-linejoin="round" stroke-width="1"></path><path d="m21.018 1.742 1.978 1.978 -1.978 1.977" fill="none" stroke="#000000" stroke-linecap="round" stroke-linejoin="round" stroke-width="1"></path><path d="M19.041 16.038 15.453 12.3a2.123 2.123 0 0 1 -0.4 -2.451h0a2.123 2.123 0 0 1 3.4 -0.551l0.586 0.586 0.586 -0.586a2.123 2.123 0 0 1 3.4 0.551h0a2.125 2.125 0 0 1 -0.4 2.451Z" fill="none" stroke="#000000" stroke-linecap="round" stroke-linejoin="round" stroke-width="1"></path><path d="M0.75 21.516c3.708 0 2.225 0.742 11.864 0.742a3.867 3.867 0 0 0 4.008 -3.708" fill="none" stroke="#000000" stroke-linecap="round" stroke-linejoin="round" stroke-width="1"></path><path d="M0.75 14h2.355a0.952 0.952 0 0 0 0.738 -0.35l4 -3.94 3.787 0.757c0.539 0.108 0.895 0.539 0.659 1.481a0.954 0.954 0 0 1 -0.79 0.713l-1.855 0.269a0.832 0.832 0 0 0 -0.741 0.944V16.4a1.379 1.379 0 0 1 -0.435 0.744l-2.051 1.618" fill="none" stroke="#000000" stroke-linecap="round" stroke-linejoin="round" stroke-width="1"></path><path d="M13.109 7.427H10.39A1.483 1.483 0 0 0 8.907 8.91v1.007" fill="none" stroke="#000000" stroke-linecap="round" stroke-linejoin="round" stroke-width="1"></path><path d="M11.873 18.55h9.64A1.483 1.483 0 0 0 23 17.067" fill="none" stroke="#000000" stroke-linecap="round" stroke-linejoin="round" stroke-width="1"></path></svg>