<svg xmlns="http://www.w3.org/2000/svg" viewBox="0 0 24 24" id="Paginate-Filter-Audio--Streamline-Ultimate"><desc>Paginate Filter Audio Streamline Icon: https://streamlinehq.com</desc><defs></defs><title>paginate-filter-audio</title><path d="M5.25 0.746h16.5s1.5 0 1.5 1.5v16.5s0 1.5 -1.5 1.5H5.25s-1.5 0 -1.5 -1.5v-16.5s0 -1.5 1.5 -1.5" fill="none" stroke="#000000" stroke-linecap="round" stroke-linejoin="round" stroke-width="1"></path><path d="M20.25 23.246h-18a1.5 1.5 0 0 1 -1.5 -1.5v-18" fill="none" stroke="#000000" stroke-linecap="round" stroke-linejoin="round" stroke-width="1"></path><path d="M9.75 14.621a1.875 1.875 0 1 0 3.75 0 1.875 1.875 0 1 0 -3.75 0" fill="none" stroke="#000000" stroke-linecap="round" stroke-linejoin="round" stroke-width="1"></path><path d="M13.5 14.621V4.5l2.878 2.879a4.651 4.651 0 0 1 0.872 5.371" fill="none" stroke="#000000" stroke-linecap="round" stroke-linejoin="round" stroke-width="1"></path></svg>