<svg xmlns="http://www.w3.org/2000/svg" viewBox="0 0 24 24" id="Paginate-Filter-2--Streamline-Ultimate"><desc>Paginate Filter 2 Streamline Icon: https://streamlinehq.com</desc><defs></defs><title>paginate-filter-2</title><path d="M5.25 0.746h16.5s1.5 0 1.5 1.5v16.5s0 1.5 -1.5 1.5H5.25s-1.5 0 -1.5 -1.5v-16.5s0 -1.5 1.5 -1.5" fill="none" stroke="#000000" stroke-linecap="round" stroke-linejoin="round" stroke-width="1"></path><path d="M20.25 23.246h-18a1.5 1.5 0 0 1 -1.5 -1.5v-18" fill="none" stroke="#000000" stroke-linecap="round" stroke-linejoin="round" stroke-width="1"></path><path d="M11.5 8.236a2.181 2.181 0 0 1 2.068 -1.49h0a2.18 2.18 0 0 1 2.179 2.18h0a1.985 1.985 0 0 1 -0.58 1.4l-3.92 3.919h4.5" fill="none" stroke="#000000" stroke-linecap="round" stroke-linejoin="round" stroke-width="1"></path></svg>