<svg xmlns="http://www.w3.org/2000/svg" viewBox="0 0 24 24" id="Paginate-Filter-10--Streamline-Ultimate"><desc>Paginate Filter 10 Streamline Icon: https://streamlinehq.com</desc><defs></defs><title>paginate-filter-10</title><path d="M5.25 0.746h16.5s1.5 0 1.5 1.5v16.5s0 1.5 -1.5 1.5H5.25s-1.5 0 -1.5 -1.5v-16.5s0 -1.5 1.5 -1.5" fill="none" stroke="#000000" stroke-linecap="round" stroke-linejoin="round" stroke-width="1"></path><path d="M20.25 23.246h-18a1.5 1.5 0 0 1 -1.5 -1.5v-18" fill="none" stroke="#000000" stroke-linecap="round" stroke-linejoin="round" stroke-width="1"></path><path d="M11.25 14.246V7.5a0.751 0.751 0 0 0 -1.2 -0.6l-1.8 1.35" fill="none" stroke="#000000" stroke-linecap="round" stroke-linejoin="round" stroke-width="1"></path><path d="m9.75 14.246 3 0" fill="none" stroke="#000000" stroke-linecap="round" stroke-linejoin="round" stroke-width="1"></path><path d="M18.75 12a2.25 2.25 0 1 1 -4.5 0V9a2.25 2.25 0 0 1 4.5 0Z" fill="none" stroke="#000000" stroke-linecap="round" stroke-linejoin="round" stroke-width="1"></path></svg>