<svg xmlns="http://www.w3.org/2000/svg" viewBox="0 0 24 24" id="Paginate-Filter-8--Streamline-Ultimate"><desc>Paginate Filter 8 Streamline Icon: https://streamlinehq.com</desc><defs></defs><title>paginate-filter-8</title><path d="M5.25 0.746h16.5s1.5 0 1.5 1.5v16.5s0 1.5 -1.5 1.5H5.25s-1.5 0 -1.5 -1.5v-16.5s0 -1.5 1.5 -1.5" fill="none" stroke="#000000" stroke-linecap="round" stroke-linejoin="round" stroke-width="1"></path><path d="M20.25 23.246h-18a1.5 1.5 0 0 1 -1.5 -1.5v-18" fill="none" stroke="#000000" stroke-linecap="round" stroke-linejoin="round" stroke-width="1"></path><path d="M11.25 12.371a2.25 2.25 0 1 0 4.5 0 2.25 2.25 0 1 0 -4.5 0" fill="none" stroke="#000000" stroke-linecap="round" stroke-linejoin="round" stroke-width="1"></path><path d="M11.812 8.434a1.688 1.688 0 1 0 3.376 0 1.688 1.688 0 1 0 -3.376 0" fill="none" stroke="#000000" stroke-linecap="round" stroke-linejoin="round" stroke-width="1"></path></svg>