<svg xmlns="http://www.w3.org/2000/svg" viewBox="0 0 24 24" id="Paginate-Filter-Camera--Streamline-Ultimate"><desc>Paginate Filter Camera Streamline Icon: https://streamlinehq.com</desc><defs></defs><title>paginate-filter-camera</title><path d="m19.5 7.5 -3 1v-1A1.5 1.5 0 0 0 15 6H9a1.5 1.5 0 0 0 -1.5 1.5v6A1.5 1.5 0 0 0 9 15h6a1.5 1.5 0 0 0 1.5 -1.5v-1l3 1Z" fill="none" stroke="#000000" stroke-linecap="round" stroke-linejoin="round" stroke-width="1"></path><path d="M5.25 0.746h16.5s1.5 0 1.5 1.5v16.5s0 1.5 -1.5 1.5H5.25s-1.5 0 -1.5 -1.5v-16.5s0 -1.5 1.5 -1.5" fill="none" stroke="#000000" stroke-linecap="round" stroke-linejoin="round" stroke-width="1"></path><path d="M20.25 23.246h-18a1.5 1.5 0 0 1 -1.5 -1.5v-18" fill="none" stroke="#000000" stroke-linecap="round" stroke-linejoin="round" stroke-width="1"></path></svg>