<svg viewBox="0 0 24 24" xmlns="http://www.w3.org/2000/svg" id="Clean-Car-Gas--Streamline-Ultimate"><desc>Clean Car Gas Streamline Icon: https://streamlinehq.com</desc><path d="M14.505 20.771s1.22 2.494 3.271 2.307c4.158 -0.38 3.879 -5.907 5.4 -7.859a9.105 9.105 0 0 0 -8.265 0.075c-2.155 1.217 -2.311 3.271 -0.406 5.477Z" fill="none" stroke="#000000" stroke-linecap="round" stroke-linejoin="round" stroke-width="1"></path><path d="M17.447 18.236s-2.7 0.334 -4.624 5.03" fill="none" stroke="#000000" stroke-linecap="round" stroke-linejoin="round" stroke-width="1"></path><path d="M6.073 9.767h12v-7.5a1.5 1.5 0 0 0 -1.5 -1.5h-9a1.5 1.5 0 0 0 -1.5 1.5Z" fill="none" stroke="#000000" stroke-linecap="round" stroke-linejoin="round" stroke-width="1"></path><path d="M9.073 3.767h6v3h-6z" fill="none" stroke="#000000" stroke-linecap="round" stroke-linejoin="round" stroke-width="1"></path><path d="M18.073 11.267v-1.5h-12v9a1.5 1.5 0 0 0 1.5 1.5h3" fill="none" stroke="#000000" stroke-linecap="round" stroke-linejoin="round" stroke-width="1"></path><path d="M6.073 15.017c-1.5 0 -3 -0.75 -3 -3.75V4.488a1.5 1.5 0 0 0 -0.563 -1.172L0.823 2.267" fill="none" stroke="#000000" stroke-linecap="round" stroke-linejoin="round" stroke-width="1"></path></svg>