<svg viewBox="0 0 24 24" xmlns="http://www.w3.org/2000/svg" id="Clean-Bicycle--Streamline-Ultimate"><desc>Clean Bicycle Streamline Icon: https://streamlinehq.com</desc><path d="m18 6.75 -3.75 0 4.5 12" fill="none" stroke="#000000" stroke-linecap="round" stroke-linejoin="round" stroke-width="1"></path><path d="M14.25 18.75a4.5 4.5 0 1 0 9 0 4.5 4.5 0 1 0 -9 0Z" fill="none" stroke="#000000" stroke-linecap="round" stroke-linejoin="round" stroke-width="1"></path><path d="m16.195 11.936 -5.695 0.814 -5.25 6 6 0" fill="none" stroke="#000000" stroke-linecap="round" stroke-linejoin="round" stroke-width="1"></path><path d="M9.75 18.75a4.5 4.5 0 1 1 -4.5 -4.5 4.477 4.477 0 0 1 4.5 4.5Z" fill="none" stroke="#000000" stroke-linecap="round" stroke-linejoin="round" stroke-width="1"></path><path d="m8.25 9.75 3 0" fill="none" stroke="#000000" stroke-linecap="round" stroke-linejoin="round" stroke-width="1"></path><path d="m9.75 9.75 0.75 3" fill="none" stroke="#000000" stroke-linecap="round" stroke-linejoin="round" stroke-width="1"></path><path d="M10.5 12.75 12.75 15" fill="none" stroke="#000000" stroke-linecap="round" stroke-linejoin="round" stroke-width="1"></path><path d="M6.75 0.75 1.39 6.11a0.375 0.375 0 0 0 0.265 0.64H3.75v4.5l5.36 -5.36a0.375 0.375 0 0 0 -0.265 -0.64H6.75Z" fill="none" stroke="#000000" stroke-linecap="round" stroke-linejoin="round" stroke-width="1"></path></svg>