<svg xmlns="http://www.w3.org/2000/svg" fill="none" viewBox="0 0 24 24" id="Change-Factor-Display--Streamline-Ultimate"><desc>Change Factor Display Streamline Icon: https://streamlinehq.com</desc><path stroke="#000000" stroke-linecap="round" stroke-linejoin="round" stroke-miterlimit="10" d="M1.44998 5.6499v7.5" stroke-width="1"></path><path stroke="#000000" stroke-linecap="round" stroke-linejoin="round" stroke-miterlimit="10" d="M1.44998 17.6499c-0.27614 0 -0.499998 -0.2239 -0.499998 -0.5s0.223858 -0.5 0.499998 -0.5" stroke-width="1"></path><path stroke="#000000" stroke-linecap="round" stroke-linejoin="round" stroke-miterlimit="10" d="M1.45001 17.6499c0.27614 0 0.5 -0.2239 0.5 -0.5s-0.22386 -0.5 -0.5 -0.5" stroke-width="1"></path><path stroke="#000000" stroke-linecap="round" stroke-linejoin="round" stroke-miterlimit="10" d="M9.44999 16.6499c-1.3 -1.4 -2.00002 -3.4 -1.70002 -5.5 0.1 -1.3 0.70001 -2.5 1.40001 -3.5" stroke-width="1"></path><path stroke="#000000" stroke-linecap="round" stroke-linejoin="round" stroke-miterlimit="10" d="M20.35 7.94995c0.9 1.3 1.4 2.99995 1.2 4.79995 -0.2 1.7 -1 3.2 -2.2 4.3" stroke-width="1"></path><path stroke="#000000" stroke-linecap="round" stroke-linejoin="round" stroke-miterlimit="10" d="m19.55 10.7499 0.6 -3.1 2.9 1.20001" stroke-width="1"></path><path stroke="#000000" stroke-linecap="round" stroke-linejoin="round" stroke-miterlimit="10" d="m19.55 10.7499 0.6 -3.1 2.9 1.20001" stroke-width="1"></path><path stroke="#000000" stroke-linecap="round" stroke-linejoin="round" stroke-miterlimit="10" d="m6.44998 15.6498 3 1.1 0.4 -3.2" stroke-width="1"></path><path stroke="#000000" stroke-linecap="round" stroke-linejoin="round" d="m12 8.58739 1.7479 -6.99171c0.0904 -0.36142 0.4151 -0.614967 0.7877 -0.614967v0c0.3725 0 0.6972 0.253547 0.7876 0.614967l1.7479 6.99171m-4.4372 -2.53556h3.8033" stroke-width="1"></path><path stroke="#000000" stroke-linecap="round" stroke-linejoin="round" d="m14.9247 15.1499 0 7.4604" stroke-width="1"></path><path stroke="#000000" stroke-linecap="round" stroke-linejoin="round" d="m13.0596 17.015 0.0975 0c0.9762 0 1.7676 -0.7914 1.7676 -1.7676l0 -0.0975" stroke-width="1"></path><path stroke="#000000" stroke-linecap="round" stroke-linejoin="round" d="m16.7898 22.6101 -3.7302 0" stroke-width="1"></path></svg>