<svg xmlns="http://www.w3.org/2000/svg" fill="none" viewBox="0 0 24 24" id="Compare-Spreadsheet--Streamline-Ultimate"><desc>Compare Spreadsheet Streamline Icon: https://streamlinehq.com</desc><path stroke="#000000" stroke-linecap="round" stroke-linejoin="round" stroke-miterlimit="10" d="M23.2 9.1001H21m-5 0v-4c0 -1.1 0.9 -2 2 -2h5.2m-7.2 6v9.8c0 1.1 0.9 2 2 2h3m-5 -11.8h5m0 0v11.8m0 0h2.2m-7.2 -5.8h7.2" stroke-width="1"></path><path stroke="#000000" stroke-linecap="round" stroke-linejoin="round" stroke-miterlimit="10" d="M3 9.1001v11.8m0 0h3c1.1 0 2 -0.9 2 -2v-9.8m-5 11.8H0.800049M8 9.1001H0.800049M8 9.1001l0.00005 -4c0 -1.1 -0.9 -2 -2 -2H0.800049M8 15.1001H0.800049" stroke-width="1"></path><path stroke="#000000" stroke-linecap="round" stroke-linejoin="round" stroke-miterlimit="10" d="m12.9995 9.6001 -2.5 -2.5 2.5 -2.5" stroke-width="1"></path><path stroke="#000000" stroke-linecap="round" stroke-linejoin="round" stroke-miterlimit="10" d="m10.4994 7.1001 5.5 0" stroke-width="1"></path><path stroke="#000000" stroke-linecap="round" stroke-linejoin="round" stroke-miterlimit="10" d="m10.9999 14.4001 2.5 2.5 -2.5 2.5" stroke-width="1"></path><path stroke="#000000" stroke-linecap="round" stroke-linejoin="round" stroke-miterlimit="10" d="M13.5 16.9001H8" stroke-width="1"></path></svg>