<svg xmlns="http://www.w3.org/2000/svg" fill="none" viewBox="0 0 24 24" id="Edit-Factor-Levels-Labels--Streamline-Ultimate"><desc>Edit Factor Levels Labels Streamline Icon: https://streamlinehq.com</desc><path stroke="#000000" stroke-linecap="round" stroke-linejoin="round" stroke-miterlimit="10" d="M1.25 5.68274v7.49996" stroke-width="1"></path><path stroke="#000000" stroke-linecap="round" stroke-linejoin="round" stroke-miterlimit="10" d="M1.25 17.6827c-0.276142 0 -0.5 -0.2238 -0.5 -0.5 0 -0.2761 0.223858 -0.5 0.5 -0.5" stroke-width="1"></path><path stroke="#000000" stroke-linecap="round" stroke-linejoin="round" stroke-miterlimit="10" d="M1.25003 17.6827c0.27614 0 0.5 -0.2238 0.5 -0.5 0 -0.2761 -0.22386 -0.5 -0.5 -0.5" stroke-width="1"></path><path stroke="#000000" stroke-linecap="round" stroke-linejoin="round" d="m20.741 1.0918 0 8.44104" stroke-width="1"></path><path stroke="#000000" stroke-linecap="round" stroke-linejoin="round" d="m18.6307 3.20206 0.1103 0c1.1046 0 2 -0.89543 2 -2l0 -0.11026" stroke-width="1"></path><path stroke="#000000" stroke-linecap="round" stroke-linejoin="round" d="m22.8513 9.53284 -4.2206 0" stroke-width="1"></path><path stroke="#000000" stroke-linecap="round" stroke-linejoin="round" d="M22.8513 22.8152h-4.2206v-1.3671c0 -0.7506 0.3987 -1.4447 1.047 -1.8228l2.1266 -1.2406c0.6483 -0.3781 1.047 -1.0722 1.047 -1.8228v-0.0775c0 -1.1655 -0.9448 -2.1103 -2.1103 -2.1103 -0.9188 0 -1.8206 0.5873 -2.1103 1.4069" stroke-width="1"></path><path stroke="#000000" stroke-linecap="round" stroke-linejoin="round" d="m9.13116 9.53281 1.97764 -7.91074c0.1023 -0.40893 0.4697 -0.6958 0.8912 -0.6958v0c0.4215 0 0.7889 0.28687 0.8912 0.6958l1.9777 7.91074M9.84838 6.66396h4.30322" stroke-width="1"></path><path stroke="#000000" stroke-linecap="round" stroke-linejoin="round" d="M9.84839 14.2086v3.9447h2.33091c1.0893 0 1.9724 -0.8831 1.9724 -1.9724 0 -1.0892 -0.8831 -1.9723 -1.9724 -1.9723H9.84839Z" stroke-width="1"></path><path stroke="#000000" stroke-linecap="round" stroke-linejoin="round" d="M9.84839 18.1534v4.6619h2.68951c1.2874 0 2.331 -1.0436 2.331 -2.3309 0 -1.2874 -1.0436 -2.331 -2.331 -2.331H9.84839Z" stroke-width="1"></path></svg>