<svg xmlns="http://www.w3.org/2000/svg" fill="none" viewBox="0 0 24 24" id="Fill-Column-With-Numerical-Sequence-1--Streamline-Ultimate"><desc>Fill Column With Numerical Sequence 1 Streamline Icon: https://streamlinehq.com</desc><path stroke="#000000" stroke-linecap="round" stroke-linejoin="round" stroke-miterlimit="10" d="M0.750031 23.15V0.75H13.95v13" stroke-width="1"></path><path stroke="#000000" stroke-linecap="round" stroke-linejoin="round" stroke-miterlimit="10" d="M0.750031 13.75H13.95" stroke-width="1"></path><path stroke="#000000" stroke-linecap="round" stroke-linejoin="round" stroke-miterlimit="10" d="m15.45 22.05 -4.2 1.2 1.2 -4.2 7.2 -7.2c0.8 -0.8 2.2 -0.8 3 0 0.8 0.8 0.8 2.2 0 3l-7.2 7.2Z" stroke-width="1"></path><path stroke="#000000" stroke-linecap="round" stroke-linejoin="round" d="m7.35002 4.08667 0 5.96343" stroke-width="1"></path><path stroke="#000000" stroke-linecap="round" stroke-linejoin="round" d="m5.85915 5.57754 0.0779 0c0.78036 0 1.41297 -0.63261 1.41297 -1.41297l0 -0.0779" stroke-width="1"></path><path stroke="#000000" stroke-linecap="round" stroke-linejoin="round" d="m8.84091 10.05 -2.98174 0" stroke-width="1"></path><path stroke="#000000" stroke-linecap="round" stroke-linejoin="round" d="M8.35163 22.8553H5.94868v-0.9078c0 -0.4984 0.26473 -0.9593 0.69524 -1.2105l1.41218 -0.8237c0.43052 -0.2512 0.69524 -0.7121 0.69524 -1.2105v-0.0515c0 -0.7739 -0.62739 -1.4013 -1.40133 -1.4013 -0.61014 0 -1.20895 0.3899 -1.40133 0.9342" stroke-width="1"></path></svg>