<svg xmlns="http://www.w3.org/2000/svg" fill="none" viewBox="0 0 24 24" id="Increase-Decimal--Streamline-Ultimate"><desc>Increase Decimal Streamline Icon: https://streamlinehq.com</desc><path stroke="#000000" stroke-linecap="round" stroke-linejoin="round" stroke-miterlimit="10" d="M0.95 13.75c-0.110457 0 -0.2 -0.0896 -0.2 -0.2 0 -0.1105 0.089543 -0.2 0.2 -0.2" stroke-width="1"></path><path stroke="#000000" stroke-linecap="round" stroke-linejoin="round" stroke-miterlimit="10" d="M0.950009 13.75c0.110461 0 0.200001 -0.0896 0.200001 -0.2 0 -0.1105 -0.08954 -0.2 -0.200001 -0.2" stroke-width="1"></path><path stroke="#000000" stroke-linecap="round" stroke-linejoin="round" stroke-miterlimit="10" d="M11.75 19.75h10.5" stroke-width="1"></path><path stroke="#000000" stroke-linecap="round" stroke-linejoin="round" stroke-miterlimit="10" d="m20.25 16.75 3 3" stroke-width="1"></path><path stroke="#000000" stroke-linecap="round" stroke-linejoin="round" stroke-miterlimit="10" d="m20.25 22.75 3 -3" stroke-width="1"></path><path stroke="#000000" stroke-linecap="round" stroke-linejoin="round" d="M3.95769 4.55005V10.55c0 1.6569 1.34314 3 3 3 1.65685 0 3 -1.3431 3 -3V4.55005c0 -1.65686 -1.34315 -3 -3 -3 -1.65686 0 -3 1.34314 -3 3Z" stroke-width="1"></path><path stroke="#000000" stroke-linecap="round" stroke-linejoin="round" d="M13.3983 4.55005V10.55c0 1.6569 1.3432 3 3 3 1.6569 0 3 -1.3431 3 -3V4.55005c0 -1.65686 -1.3431 -3 -3 -3 -1.6568 0 -3 1.34314 -3 3Z" stroke-width="1"></path></svg>