<svg xmlns="http://www.w3.org/2000/svg" fill="none" viewBox="0 0 24 24" id="Insert-Column-From-Clipboard--Streamline-Ultimate"><desc>Insert Column From Clipboard Streamline Icon: https://streamlinehq.com</desc><path stroke="#000000" stroke-linecap="round" stroke-linejoin="round" stroke-miterlimit="10" d="M23.1333 23.15v-7.4204l-14.84082 0 0 7.4204 14.84082 0Z" stroke-width="1"></path><path stroke="#000000" stroke-linecap="round" stroke-linejoin="round" stroke-miterlimit="10" d="M18.1756 15.7402v7.3215" stroke-width="1"></path><path stroke="#000000" stroke-linecap="round" stroke-linejoin="round" stroke-miterlimit="10" d="M13.2287 15.7402v7.3215" stroke-width="1"></path><path stroke="#000000" stroke-linecap="round" stroke-linejoin="round" stroke-miterlimit="10" d="M20.1598 12.6608V5.20331c0 -0.79151 -0.6926 -1.48408 -1.4841 -1.48408h-3.8916m-8.40981 0.09891H2.35078c-0.79151 0 -1.484081 0.69257 -1.484081 1.48408V21.6271c0 0.7915 0.692571 1.4841 1.484081 1.4841h2.96817M14.4213 4.80753c-0.0989 0.29681 -0.3957 0.49469 -0.6925 0.49469H7.39667c-0.29681 0 -0.59364 -0.19788 -0.69258 -0.49469L5.7147 1.83936c-0.09894 -0.19787 0.00001 -0.4947 0.09895 -0.69258 0.09894 -0.197878 0.39576 -0.296804 0.59364 -0.296804h8.31081c0.1979 0 0.4947 0.098926 0.5937 0.296804 0.0989 0.19788 0.1978 0.39577 0.0989 0.69258l-0.9894 2.96817Z" stroke-width="1"></path></svg>