<svg xmlns="http://www.w3.org/2000/svg" fill="none" viewBox="0 0 24 24" id="Recalculate-2--Streamline-Ultimate"><desc>Recalculate 2 Streamline Icon: https://streamlinehq.com</desc><path stroke="#000000" stroke-linecap="round" stroke-linejoin="round" stroke-miterlimit="10" d="M14.25 18.55c0 1.1 -0.9 2 -2 2h-9.5c-1.1 0 -2 -0.9 -2 -2V6.75c0 -1.1 0.9 -2 2 -2h9.5c1.1 0 2 0.9 2 2v11.8Z" stroke-width="1"></path><path stroke="#000000" stroke-linecap="round" stroke-linejoin="round" stroke-miterlimit="10" d="M4.05004 13.9501c-0.11046 0 -0.2 -0.0896 -0.2 -0.2 0 -0.1105 0.08954 -0.2001 0.2 -0.2001" stroke-width="1"></path><path stroke="#000000" stroke-linecap="round" stroke-linejoin="round" stroke-miterlimit="10" d="M4.05006 13.9501c0.11045 0 0.2 -0.0896 0.2 -0.2 0 -0.1105 -0.08955 -0.2001 -0.2 -0.2001" stroke-width="1"></path><path stroke="#000000" stroke-linecap="round" stroke-linejoin="round" stroke-miterlimit="10" d="M4.05004 17.4501c-0.11046 0 -0.2 -0.0896 -0.2 -0.2 0 -0.1105 0.08954 -0.2001 0.2 -0.2001" stroke-width="1"></path><path stroke="#000000" stroke-linecap="round" stroke-linejoin="round" stroke-miterlimit="10" d="M4.05006 17.4501c0.11045 0 0.2 -0.0896 0.2 -0.2 0 -0.1105 -0.08955 -0.2001 -0.2 -0.2001" stroke-width="1"></path><path stroke="#000000" stroke-linecap="round" stroke-linejoin="round" stroke-miterlimit="10" d="M7.55004 13.9501c-0.11046 0 -0.2 -0.0896 -0.2 -0.2 0 -0.1105 0.08954 -0.2001 0.2 -0.2001" stroke-width="1"></path><path stroke="#000000" stroke-linecap="round" stroke-linejoin="round" stroke-miterlimit="10" d="M7.55006 13.9501c0.11045 0 0.2 -0.0896 0.2 -0.2 0 -0.1105 -0.08955 -0.2001 -0.2 -0.2001" stroke-width="1"></path><path stroke="#000000" stroke-linecap="round" stroke-linejoin="round" stroke-miterlimit="10" d="M7.55004 17.4501c-0.11046 0 -0.2 -0.0896 -0.2 -0.2 0 -0.1105 0.08954 -0.2001 0.2 -0.2001" stroke-width="1"></path><path stroke="#000000" stroke-linecap="round" stroke-linejoin="round" stroke-miterlimit="10" d="M7.55006 17.4501c0.11045 0 0.2 -0.0896 0.2 -0.2 0 -0.1105 -0.08955 -0.2001 -0.2 -0.2001" stroke-width="1"></path><path stroke="#000000" stroke-linecap="round" stroke-linejoin="round" stroke-miterlimit="10" d="M11.05 13.9501c-0.1104 0 -0.2 -0.0896 -0.2 -0.2 0 -0.1105 0.0896 -0.2001 0.2 -0.2001" stroke-width="1"></path><path stroke="#000000" stroke-linecap="round" stroke-linejoin="round" stroke-miterlimit="10" d="M11.05 13.9501c0.1105 0 0.2 -0.0896 0.2 -0.2 0 -0.1105 -0.0895 -0.2001 -0.2 -0.2001" stroke-width="1"></path><path stroke="#000000" stroke-linecap="round" stroke-linejoin="round" stroke-miterlimit="10" d="M11.05 17.4501c-0.1104 0 -0.2 -0.0896 -0.2 -0.2 0 -0.1105 0.0896 -0.2001 0.2 -0.2001" stroke-width="1"></path><path stroke="#000000" stroke-linecap="round" stroke-linejoin="round" stroke-miterlimit="10" d="M11.05 17.4501c0.1105 0 0.2 -0.0896 0.2 -0.2 0 -0.1105 -0.0895 -0.2001 -0.2 -0.2001" stroke-width="1"></path><path stroke="#000000" stroke-linecap="round" stroke-linejoin="round" stroke-miterlimit="10" d="M0.75 10.75h13.5" stroke-width="1"></path><path stroke="#000000" stroke-linecap="round" stroke-linejoin="round" stroke-miterlimit="10" d="M4.25 7.75h6.5" stroke-width="1"></path><path stroke="#000000" stroke-linecap="round" stroke-linejoin="round" stroke-miterlimit="10" d="M20.75 17.05v1.5c0 2.5 -2 4.5 -4.5 4.5 -1.8 0 -3.3 -1 -4 -2.5" stroke-width="1"></path><path stroke="#000000" stroke-linecap="round" stroke-linejoin="round" stroke-miterlimit="10" d="M11.85 4.74994c0.4 -2.1 2.2 -3.799989 4.4 -3.799989 2.5 0 4.5 1.999999 4.5 4.499999v4.0813" stroke-width="1"></path><path stroke="#000000" stroke-linecap="round" stroke-linejoin="round" stroke-miterlimit="10" d="m18.25 7.05005 2.5 2.5 2.5 -2.5" stroke-width="1"></path></svg>