<svg xmlns="http://www.w3.org/2000/svg" fill="none" viewBox="0 0 24 24" id="Remove-Unuse-Factor--Streamline-Ultimate"><desc>Remove Unuse Factor Streamline Icon: https://streamlinehq.com</desc><path stroke="#000000" stroke-linecap="round" stroke-linejoin="round" stroke-miterlimit="10" d="M6.04999 5.75v7.5" stroke-width="1"></path><path stroke="#000000" stroke-linecap="round" stroke-linejoin="round" stroke-miterlimit="10" d="M6.04999 17.75c-0.27614 0 -0.5 -0.2239 -0.5 -0.5s0.22386 -0.5 0.5 -0.5" stroke-width="1"></path><path stroke="#000000" stroke-linecap="round" stroke-linejoin="round" stroke-miterlimit="10" d="M6.04999 17.75c0.27614 0 0.5 -0.2239 0.5 -0.5s-0.22386 -0.5 -0.5 -0.5" stroke-width="1"></path><path stroke="#000000" stroke-linecap="round" stroke-linejoin="round" stroke-miterlimit="10" d="m14.0052 10.1052 3.8896 3.8897" stroke-width="1"></path><path stroke="#000000" stroke-linecap="round" stroke-linejoin="round" stroke-miterlimit="10" d="m17.8948 10.1052 -3.8896 3.8897" stroke-width="1"></path><path stroke="#000000" stroke-linecap="round" stroke-linejoin="round" d="M14.3348 22.1341c0.2217 0.6274 0.9119 1.0768 1.6152 1.0768 0.8921 0 1.6152 -0.7231 1.6152 -1.6152v-0.2692c0 -0.8921 -0.7231 -1.6152 -1.6152 -1.6152h-0.0538c0.7731 0 1.3998 -0.6268 1.3998 -1.3999v-0.2154c0 -0.7434 -0.6026 -1.346 -1.346 -1.346 -0.4404 0 -0.8313 0.2115 -1.0769 0.5384" stroke-width="1"></path><path stroke="#000000" stroke-linecap="round" stroke-linejoin="round" d="m15.95 0.88916 0 6.46093" stroke-width="1"></path><path stroke="#000000" stroke-linecap="round" stroke-linejoin="round" d="m14.3348 2.50439 0.5384 0c0.5947 0 1.0768 -0.48211 1.0768 -1.07682l0 -0.53841" stroke-width="1"></path><path stroke="#000000" stroke-linecap="round" stroke-linejoin="round" d="m17.5652 7.3501 -3.2304 0" stroke-width="1"></path></svg>