<svg xmlns="http://www.w3.org/2000/svg" fill="none" viewBox="0 0 24 24" id="Set-Factor-Reference-Level--Streamline-Ultimate"><desc>Set Factor Reference Level Streamline Icon: https://streamlinehq.com</desc><path stroke="#000000" stroke-linecap="round" stroke-linejoin="round" stroke-miterlimit="10" d="M1.6002 5.90015v7.49995" stroke-width="1"></path><path stroke="#000000" stroke-linecap="round" stroke-linejoin="round" stroke-miterlimit="10" d="M1.6002 17.9001c-0.27615 0 -0.5 -0.2238 -0.5 -0.5 0 -0.2761 0.22385 -0.5 0.5 -0.5" stroke-width="1"></path><path stroke="#000000" stroke-linecap="round" stroke-linejoin="round" stroke-miterlimit="10" d="M1.60019 17.9001c0.27614 0 0.5 -0.2238 0.5 -0.5 0 -0.2761 -0.22386 -0.5 -0.5 -0.5" stroke-width="1"></path><path stroke="#000000" stroke-linecap="round" stroke-linejoin="round" stroke-miterlimit="10" d="M11.3002 4.79993c0.9942 0 1.8 -0.80588 1.8 -1.79999 0 -0.99411 -0.8058 -1.79999 -1.8 -1.79999 -0.9941 0 -1.79998 0.80588 -1.79998 1.79999 0 0.99411 0.80588 1.79999 1.79998 1.79999Z" stroke-width="1"></path><path stroke="#000000" stroke-linecap="round" stroke-linejoin="round" stroke-miterlimit="10" d="M11.3002 22.7999c0.9942 0 1.8 -0.8058 1.8 -1.8 0 -0.9941 -0.8058 -1.7999 -1.8 -1.7999 -0.9941 0 -1.79998 0.8058 -1.79998 1.7999 0 0.9942 0.80588 1.8 1.79998 1.8Z" stroke-width="1"></path><path stroke="#000000" stroke-linecap="round" stroke-linejoin="round" stroke-miterlimit="10" d="m19.8998 9.69995 -2.5 2.50005 2.5 2.5" stroke-width="1"></path><path stroke="#000000" stroke-linecap="round" stroke-linejoin="round" stroke-miterlimit="10" d="M17.3998 12.2h5.5" stroke-width="1"></path><path stroke="#000000" stroke-linecap="round" stroke-linejoin="round" d="M13.0533 15.5062H9.54713v-1.1357c0 -0.6235 0.33118 -1.2001 0.86977 -1.5143l1.7666 -1.0305c0.5386 -0.3142 0.8698 -0.8908 0.8698 -1.5143v-0.0644c0 -0.96822 -0.7849 -1.7531 -1.7531 -1.7531 -0.7633 0 -1.5124 0.48783 -1.75307 1.16872" stroke-width="1"></path></svg>