<svg xmlns="http://www.w3.org/2000/svg" fill="none" viewBox="0 0 24 24" id="Set-Factor-Standard--Streamline-Ultimate"><desc>Set Factor Standard Streamline Icon: https://streamlinehq.com</desc><path stroke="#000000" stroke-linecap="round" stroke-linejoin="round" stroke-miterlimit="10" d="M3.25 6.05005v7.40005" stroke-width="1"></path><path stroke="#000000" stroke-linecap="round" stroke-linejoin="round" stroke-miterlimit="10" d="M3.25 17.95c-0.27614 0 -0.5 -0.2239 -0.5 -0.5 0 -0.2762 0.22386 -0.5 0.5 -0.5" stroke-width="1"></path><path stroke="#000000" stroke-linecap="round" stroke-linejoin="round" stroke-miterlimit="10" d="M3.24999 17.95c0.27614 0 0.5 -0.2239 0.5 -0.5 0 -0.2762 -0.22386 -0.5 -0.5 -0.5" stroke-width="1"></path><path stroke="#000000" stroke-linecap="round" stroke-linejoin="round" stroke-miterlimit="10" d="M20.75 6.05005v7.40005" stroke-width="1"></path><path stroke="#000000" stroke-linecap="round" stroke-linejoin="round" stroke-miterlimit="10" d="M20.75 17.95c-0.2761 0 -0.5 -0.2239 -0.5 -0.5 0 -0.2762 0.2239 -0.5 0.5 -0.5" stroke-width="1"></path><path stroke="#000000" stroke-linecap="round" stroke-linejoin="round" stroke-miterlimit="10" d="M20.75 17.95c0.2761 0 0.5 -0.2239 0.5 -0.5 0 -0.2762 -0.2239 -0.5 -0.5 -0.5" stroke-width="1"></path><path stroke="#000000" stroke-linecap="round" stroke-linejoin="round" stroke-miterlimit="10" d="M8.75 10.75h6.6" stroke-width="1"></path><path stroke="#000000" stroke-linecap="round" stroke-linejoin="round" stroke-miterlimit="10" d="M8.75 14.3501h6.6" stroke-width="1"></path></svg>