<svg xmlns="http://www.w3.org/2000/svg" fill="none" viewBox="0 0 24 24" id="Stack-Unstack-Column--Streamline-Ultimate"><desc>Stack Unstack Column Streamline Icon: https://streamlinehq.com</desc><path stroke="#000000" stroke-linecap="round" stroke-linejoin="round" stroke-miterlimit="10" d="M5.75 0.75h-5v9h5v-9Z" stroke-width="1"></path><path stroke="#000000" stroke-linecap="round" stroke-linejoin="round" stroke-miterlimit="10" d="m0.75 5.25 5 0" stroke-width="1"></path><path stroke="#000000" stroke-linecap="round" stroke-linejoin="round" stroke-miterlimit="10" d="M9.05005 9.75h-5v9h5v-9Z" stroke-width="1"></path><path stroke="#000000" stroke-linecap="round" stroke-linejoin="round" stroke-miterlimit="10" d="m4.05005 14.25 5 0" stroke-width="1"></path><path stroke="#000000" stroke-linecap="round" stroke-linejoin="round" stroke-miterlimit="10" d="M11.75 18.75v4.5l-5 0v-4.5h5Z" stroke-width="1"></path><path stroke="#000000" stroke-linecap="round" stroke-linejoin="round" stroke-miterlimit="10" d="m13.65 11.95 -2 2m0 0 2 2m-2 -2h2.1c1.7 0 3 -1.3 3 -3V6.94995c0 -1.7 -1.3 -3 -3 -3h-0.5" stroke-width="1"></path><path stroke="#000000" stroke-linecap="round" stroke-linejoin="round" stroke-miterlimit="10" d="m20.15 19.25 -2 2m0 0 2 2m-2 -2h2.1c1.7 0 3 -1.3 3 -3v-4c0 -1.7 -1.3 -3 -3 -3h-0.5" stroke-width="1"></path></svg>