<svg xmlns="http://www.w3.org/2000/svg" fill="none" viewBox="0 0 24 24" id="Tabbed-Table--Streamline-Ultimate"><desc>Tabbed Table Streamline Icon: https://streamlinehq.com</desc><path stroke="#000000" stroke-linecap="round" stroke-linejoin="round" stroke-miterlimit="10" d="M1.04764 9.18963h9.69096V5.31324c0 -1.06601 -0.87217 -1.9382 -1.93817 -1.9382h-5.8146c-1.066 0 -1.93819 0.87219 -1.93819 1.9382v3.87639Zm0 0v9.49717c0 1.066 0.87219 1.9382 1.93819 1.9382h5.33005M1.04764 9.18963h7.26824m4.84552 -5.81459h1.7443c1.066 0 1.9382 0.87219 1.9382 1.9382v3.87639M19.1698 3.375h1.7444c1.066 0 1.9382 0.87219 1.9382 1.9382v3.87639m0 0v9.49721c0 1.066 -0.8722 1.9382 -1.9382 1.9382h-5.3301m7.2683 -11.43541 -7.2683 0.00004m-7.26822 0V20.625m0 -11.43537h7.26822M8.31588 20.625h7.26822M1.04764 15.0042H22.8524m-7.2683 -5.81457V20.625" stroke-width="1"></path></svg>