<svg xmlns="http://www.w3.org/2000/svg" fill="none" viewBox="0 0 24 24" id="Table-Favorite-Cell-Star--Streamline-Ultimate"><desc>Table Favorite Cell Star Streamline Icon: https://streamlinehq.com</desc><path stroke="#000000" stroke-linecap="round" stroke-linejoin="round" stroke-miterlimit="10" d="M11.4143 10.0981H1.34381V3.05858c0 -1.07549 0.87995 -1.95543 1.95543 -1.95543h8.01726l0.0978 8.99495Z" stroke-width="1"></path><path stroke="#000000" stroke-linecap="round" stroke-linejoin="round" stroke-miterlimit="10" d="M1.44156 14.7912v-1.4666" stroke-width="1"></path><path stroke="#000000" stroke-linecap="round" stroke-linejoin="round" stroke-miterlimit="10" d="M21.4847 10.0991v-0.6854" stroke-width="1"></path><path stroke="#000000" stroke-linecap="round" stroke-linejoin="round" stroke-miterlimit="10" d="M3.39699 19.6798c-1.07549 0 -1.95543 -0.8799 -1.95543 -1.9554" stroke-width="1"></path><path stroke="#000000" stroke-linecap="round" stroke-linejoin="round" stroke-miterlimit="10" d="M7.50335 19.6798H6.03678" stroke-width="1"></path><path stroke="#000000" stroke-linecap="round" stroke-linejoin="round" stroke-miterlimit="10" d="M10.7306 19.6798h-0.4896" stroke-width="1"></path><path stroke="#000000" stroke-linecap="round" stroke-linejoin="round" stroke-miterlimit="10" d="M21.4847 5.69836v0.97772" stroke-width="1"></path><path stroke="#000000" stroke-linecap="round" stroke-linejoin="round" stroke-miterlimit="10" d="M19.5293 1.10315c1.0755 0 1.9554 0.87994 1.9554 1.95543" stroke-width="1"></path><path stroke="#000000" stroke-linecap="round" stroke-linejoin="round" stroke-miterlimit="10" d="M16.5962 1.10315h-1.9555" stroke-width="1"></path><path stroke="#000000" stroke-linecap="round" stroke-linejoin="round" stroke-miterlimit="10" d="M13.3697 10.0981h-1.9555v1.8577" stroke-width="1"></path><path stroke="#000000" stroke-linejoin="round" d="m17.0055 11.4486 1.8813 3.6863 4.0873 0.6501 -2.9246 2.9283 0.6448 4.0881 -3.6888 -1.8765 -3.6887 1.8765 0.6448 -4.0881 -2.9246 -2.9283 4.0873 -0.6501 1.8812 -3.6863Z" stroke-width="1"></path></svg>