<svg xmlns="http://www.w3.org/2000/svg" fill="none" viewBox="0 0 24 24" id="Paper-Sizes-One-Document-Measure--Streamline-Ultimate"><desc>Paper Sizes One Document Measure Streamline Icon: https://streamlinehq.com</desc><path stroke="#000000" stroke-linejoin="round" d="M3.25391 2.53516c0 -0.55229 0.44771 -1 1 -1h6.56579c0.2732 0 0.5345 0.11177 0.7232 0.30935l3.1007 3.24688c0.1777 0.18604 0.2768 0.43339 0.2768 0.69064V15.9175c0 0.5523 -0.4477 1 -1 1H4.25391c-0.55229 0 -1 -0.4477 -1 -1V2.53516Z" stroke-width="1"></path><path stroke="#000000" stroke-linecap="round" stroke-linejoin="round" d="m19.5918 16.918 0 -15.38284" stroke-width="1"></path><path stroke="#000000" stroke-linecap="round" stroke-linejoin="round" d="m18.4316 16.918 2.3145 0" stroke-width="1"></path><path stroke="#000000" stroke-linecap="round" stroke-linejoin="round" d="m18.4316 1.53516 2.3145 0" stroke-width="1"></path><path stroke="#000000" stroke-linecap="round" stroke-linejoin="round" d="m14.9199 21.3047 -11.66697 0" stroke-width="1"></path><path stroke="#000000" stroke-linecap="round" stroke-linejoin="round" d="m14.9199 22.4648 0 -2.3144" stroke-width="1"></path><path stroke="#000000" stroke-linecap="round" stroke-linejoin="round" d="m3.25391 22.4648 0 -2.3144" stroke-width="1"></path></svg>