<svg xmlns="http://www.w3.org/2000/svg" fill="none" viewBox="0 0 24 24" id="Paper-Sizes-A5--Streamline-Ultimate"><desc>Paper Sizes A5 Streamline Icon: https://streamlinehq.com</desc><path stroke="#000000" stroke-linecap="round" stroke-linejoin="round" d="M19.3922 12.3803V6.90334c0 -0.25725 -0.0991 -0.5046 -0.2768 -0.69064l-4.6789 -4.89944c-0.1887 -0.19758 -0.45 -0.30935 -0.7232 -0.30935H3.71289c-0.55228 0 -1 0.44771 -1 1V21.9957c0 0.5522 0.44772 1 1 1h3.33965" stroke-width="1"></path><path stroke="#000000" stroke-linecap="round" stroke-linejoin="round" d="m9.93555 22.9958 1.74125 -6.9652c0.0901 -0.36 0.4136 -0.6126 0.7847 -0.6126v0c0.3711 0 0.6946 0.2526 0.7846 0.6126l1.7413 6.9652m-4.4204 -2.5259h3.789" stroke-width="1"></path><path stroke="#000000" stroke-linecap="round" stroke-linejoin="round" d="M13.416 1.00391v6.2539h5.9766" stroke-width="1"></path><path stroke="#000000" stroke-linecap="round" stroke-linejoin="round" d="M20.9714 15.418h-3.1576l-0.3158 3.4733 0.7297 -0.3649c0.3508 -0.1753 0.7375 -0.2666 1.1297 -0.2666h0.0352c1.0463 0 1.8945 0.8482 1.8945 1.8945v0.9473c0 1.0463 -0.8482 1.8945 -1.8945 1.8945 -0.8249 0 -1.6345 -0.5272 -1.8946 -1.263" stroke-width="1"></path></svg>