<svg viewBox="0 0 24 24" xmlns="http://www.w3.org/2000/svg" id="Music-Genre-Idea--Streamline-Ultimate"><desc>Music Genre Idea Streamline Icon: https://streamlinehq.com</desc><path d="M12 10.294a1.875 1.875 0 1 0 3.75 0 1.875 1.875 0 1 0 -3.75 0Z" fill="none" stroke="#000000" stroke-linecap="round" stroke-linejoin="round" stroke-width="1"></path><path d="M19.5 8.044a1.875 1.875 0 1 0 3.75 0 1.875 1.875 0 1 0 -3.75 0Z" fill="none" stroke="#000000" stroke-linecap="round" stroke-linejoin="round" stroke-width="1"></path><path d="M15.75 10.294V3.5a1.5 1.5 0 0 1 1.026 -1.423l4.5 -1.25A1.5 1.5 0 0 1 23.25 2.25v5.794" fill="none" stroke="#000000" stroke-linecap="round" stroke-linejoin="round" stroke-width="1"></path><path d="m11.25 2.25 0 -1.5" fill="none" stroke="#000000" stroke-linecap="round" stroke-linejoin="round" stroke-width="1"></path><path d="m0.75 11.25 1.5 0" fill="none" stroke="#000000" stroke-linecap="round" stroke-linejoin="round" stroke-width="1"></path><path d="m3.825 3.076 1.061 1.06" fill="none" stroke="#000000" stroke-linecap="round" stroke-linejoin="round" stroke-width="1"></path><path d="m3.825 17.925 1.061 -1.061" fill="none" stroke="#000000" stroke-linecap="round" stroke-linejoin="round" stroke-width="1"></path><path d="m11.25 21 0 2.25" fill="none" stroke="#000000" stroke-linecap="round" stroke-linejoin="round" stroke-width="1"></path><path d="M12.75 5.439a6.005 6.005 0 0 0 -7.5 5.811A5.964 5.964 0 0 0 9 16.776v1.974a2.25 2.25 0 0 0 4.5 0v-1.974a6.046 6.046 0 0 0 2.722 -2.191" fill="none" stroke="#000000" stroke-linecap="round" stroke-linejoin="round" stroke-width="1"></path><path d="m9 18 4.5 0" fill="none" stroke="#000000" stroke-linecap="round" stroke-linejoin="round" stroke-width="1"></path></svg>