<svg xmlns="http://www.w3.org/2000/svg" fill="none" viewBox="0 0 24 24" id="Music-Genre-Pacman--Streamline-Ultimate"><desc>Music Genre Pacman Streamline Icon: https://streamlinehq.com</desc><path stroke="#000000" stroke-linecap="round" stroke-linejoin="round" d="M10.8 10.21c0.0579 -0.1289 0.0879 -0.26866 0.0879 -0.41 0 -0.14134 -0.03 -0.28108 -0.0879 -0.41 -0.0592 -0.12881 -0.145 -0.24357 -0.2519 -0.33667 -0.1069 -0.09309 -0.2324 -0.1624 -0.3681 -0.20333 -1.29739 -0.3786 -2.67419 -0.39113 -3.97825 -0.03623 -1.30406 0.35491 -2.48462 1.06344 -3.4112 2.04733 -0.92659 0.9838 -1.56313 2.2047 -1.839275 3.5277 -0.276147 1.323 -0.181152 2.6966 0.274485 3.9689 0.45564 1.2724 1.25419 2.394 2.30739 3.241 1.0532 0.8469 2.32005 1.3862 3.66056 1.5582 1.3405 0.172 2.70247 -0.0299 3.93539 -0.5835 1.2329 -0.5536 2.2888 -1.4373 3.0509 -2.5534 0.0832 -0.1156 0.139 -0.2486 0.1632 -0.3889 0.0243 -0.1403 0.0163 -0.2843 -0.0232 -0.4211 -0.0375 -0.1357 -0.1031 -0.262 -0.1927 -0.3705 -0.0896 -0.1086 -0.2012 -0.197 -0.3273 -0.2595l-5.67 -2.7 2.67 -5.67Z" stroke-width="1"></path><path stroke="#000000" d="M5.15002 13.3199c-0.2071 0 -0.375 -0.1679 -0.375 -0.375 0 -0.2072 0.1679 -0.375 0.375 -0.375" stroke-width="1"></path><path stroke="#000000" d="M5.15002 13.3199c0.20711 0 0.375 -0.1679 0.375 -0.375 0 -0.2072 -0.16789 -0.375 -0.375 -0.375" stroke-width="1"></path><path stroke="#000000" stroke-linecap="round" stroke-linejoin="round" d="M21.25 18.71c1.1046 0 2 -0.8954 2 -2 0 -1.1045 -0.8954 -2 -2 -2s-2 0.8955 -2 2c0 1.1046 0.8954 2 2 2Z" stroke-width="1"></path><path stroke="#000000" stroke-linecap="round" stroke-linejoin="round" d="M23.25 16.71v-5.75" stroke-width="1"></path><path stroke="#000000" stroke-linecap="round" stroke-linejoin="round" d="M16.75 9.96002c1.1046 0 2 -0.89543 2 -2s-0.8954 -2 -2 -2 -2 0.89543 -2 2 0.8954 2 2 2Z" stroke-width="1"></path><path stroke="#000000" stroke-linecap="round" stroke-linejoin="round" d="M18.75 8.00001v-6.46c-0.001 -0.14013 0.0368 -0.2778 0.1092 -0.3978 0.0723 -0.12001 0.1764 -0.217671 0.3008 -0.282201 0.133 -0.068629 0.2828 -0.097578 0.4318 -0.083393 0.1489 0.014184 0.2906 0.070903 0.4082 0.163393l1.8 1.350001" stroke-width="1"></path></svg>