<svg viewBox="0 0 24 24" xmlns="http://www.w3.org/2000/svg" id="Music-Genre-Brain--Streamline-Ultimate"><desc>Music Genre Brain Streamline Icon: https://streamlinehq.com</desc><path d="M8.324 14.942a2.8 2.8 0 0 0 -2.184 -1.937" fill="none" stroke="#000000" stroke-linecap="round" stroke-linejoin="round" stroke-width="1"></path><path d="m11.25 6.75 0 8.25" fill="none" stroke="#000000" stroke-linecap="round" stroke-linejoin="round" stroke-width="1"></path><path d="M8.324 6.058A2.8 2.8 0 0 1 6.14 8" fill="none" stroke="#000000" stroke-linecap="round" stroke-linejoin="round" stroke-width="1"></path><path d="M14.176 6.058A2.8 2.8 0 0 0 16.36 8" fill="none" stroke="#000000" stroke-linecap="round" stroke-linejoin="round" stroke-width="1"></path><path d="M12 21.375a1.875 1.875 0 1 0 3.75 0 1.875 1.875 0 1 0 -3.75 0Z" fill="none" stroke="#000000" stroke-linecap="round" stroke-linejoin="round" stroke-width="1"></path><path d="M19.5 19.125a1.875 1.875 0 1 0 3.75 0 1.875 1.875 0 1 0 -3.75 0Z" fill="none" stroke="#000000" stroke-linecap="round" stroke-linejoin="round" stroke-width="1"></path><path d="M15.75 21.375v-6.794a1.5 1.5 0 0 1 1.025 -1.423l4.5 -1.25a1.5 1.5 0 0 1 1.975 1.423v5.794" fill="none" stroke="#000000" stroke-linecap="round" stroke-linejoin="round" stroke-width="1"></path><path d="M20.686 8.431a3.441 3.441 0 0 0 -0.8 -0.559 3.339 3.339 0 0 0 0.364 -1.5A3.375 3.375 0 0 0 16.875 3a3.33 3.33 0 0 0 -1.141 0.212 2.614 2.614 0 0 0 -4.484 -1.67 2.613 2.613 0 0 0 -4.483 1.67A3.331 3.331 0 0 0 5.625 3 3.375 3.375 0 0 0 2.25 6.375a3.339 3.339 0 0 0 0.365 1.5 3.35 3.35 0 0 0 0 6.006 3.336 3.336 0 0 0 -0.365 1.5 3.344 3.344 0 0 0 3.98 3.314 2.621 2.621 0 0 0 2.395 1.555" fill="none" stroke="#000000" stroke-linecap="round" stroke-linejoin="round" stroke-width="1"></path></svg>