<svg xmlns="http://www.w3.org/2000/svg" fill="none" viewBox="0 0 24 24" id="Music-Genre-Baby--Streamline-Ultimate"><desc>Music Genre Baby Streamline Icon: https://streamlinehq.com</desc><path stroke="#000000" stroke-linecap="round" stroke-linejoin="round" d="M12.8701 0.820007c0.1809 0.444783 0.2759 0.919833 0.28 1.400003 0.0014 0.43051 -0.0834 0.85695 -0.2496 1.25409 -0.1662 0.39714 -0.4104 0.75692 -0.7181 1.05806 -0.3076 0.30114 -0.6726 0.53753 -1.0732 0.69518 -0.4006 0.15765 -0.8287 0.23337 -1.25912 0.22267 -0.76233 0.02696 -1.50948 -0.21758 -2.10834 -0.69007 -0.59886 -0.4725 -1.01052 -1.14225 -1.16166 -1.88993" stroke-width="1"></path><path stroke="#000000" d="M12.6165 9.35501c-0.2072 0 -0.375 -0.16789 -0.375 -0.375s0.1678 -0.375 0.375 -0.375" stroke-width="1"></path><path stroke="#000000" d="M12.6165 9.35501c0.2071 0 0.375 -0.16789 0.375 -0.375s-0.1679 -0.375 -0.375 -0.375" stroke-width="1"></path><path stroke="#000000" d="M7.16504 9.35501c-0.20711 0 -0.375 -0.16789 -0.375 -0.375s0.16789 -0.375 0.375 -0.375" stroke-width="1"></path><path stroke="#000000" d="M7.16504 9.35501c0.20711 0 0.375 -0.16789 0.375 -0.375s-0.16789 -0.375 -0.375 -0.375" stroke-width="1"></path><path stroke="#000000" stroke-linecap="round" stroke-linejoin="round" d="M7.39001 12.66c0.2455 0.4485 0.60712 0.8227 1.04698 1.0834 0.43985 0.2607 0.94173 0.3982 1.45303 0.3982 0.51128 0 1.01318 -0.1375 1.45298 -0.3982 0.4399 -0.2607 0.8015 -0.6349 1.047 -1.0834" stroke-width="1"></path><path stroke="#000000" stroke-linecap="round" stroke-linejoin="round" d="M18.35 9.49002c-0.1177 -0.1096 -0.2563 -0.19441 -0.4075 -0.24938 -0.1511 -0.05497 -0.3118 -0.07899 -0.4725 -0.07062 -0.1564 -1.94406 -1.0391 -3.75793 -2.4725 -5.08057 -1.4333 -1.32263 -3.3121 -2.05704 -5.26247 -2.05704 -1.95034 0 -3.82916 0.73441 -5.2625 2.05704 -1.43334 1.32264 -2.31607 3.13651 -2.4725 5.08057v0c-0.17107 0.00316 -0.3397 0.04112 -0.49562 0.11159 -0.15592 0.07046 -0.29585 0.17194 -0.41126 0.29825 -0.11542 0.12631 -0.203902 0.2748 -0.260055 0.43644 -0.056153 0.1616 -0.0788 0.333 -0.066562 0.5036 0.012239 0.1707 0.059107 0.3371 0.137748 0.489 0.078641 0.152 0.187409 0.2863 0.319669 0.3949 0.13225 0.1085 0.28523 0.189 0.44961 0.2365 0.16437 0.0475 0.3367 0.061 0.50647 0.0397 0.35797 1.7558 1.30223 3.3378 2.67779 4.4862C6.23339 17.3146 7.95851 17.9613 9.75003 18c1.00067 -0.0103 1.98947 -0.2175 2.90997 -0.61" stroke-width="1"></path><g><path stroke="#000000" stroke-linecap="round" stroke-linejoin="round" d="M13.87 23.18c1.0383 0 1.88 -0.8417 1.88 -1.88s-0.8417 -1.88 -1.88 -1.88 -1.88 0.8417 -1.88 1.88 0.8417 1.88 1.88 1.88Z" stroke-width="1"></path><path stroke="#000000" stroke-linecap="round" stroke-linejoin="round" d="M21.37 20.93c1.0383 0 1.88 -0.8417 1.88 -1.88s-0.8417 -1.88 -1.88 -1.88 -1.88 0.8417 -1.88 1.88 0.8417 1.88 1.88 1.88Z" stroke-width="1"></path><path stroke="#000000" stroke-linecap="round" stroke-linejoin="round" d="M15.75 21.3v-6.79c-0.0033 -0.3129 0.0913 -0.6189 0.2706 -0.8754 0.1793 -0.2564 0.4344 -0.4503 0.7294 -0.5546l4.5 -1.25c0.2257 -0.0736 0.4655 -0.0929 0.7001 -0.0564 0.2345 0.0365 0.4572 0.1278 0.6499 0.2664 0.1933 0.139 0.3504 0.3223 0.4583 0.5346s0.1633 0.4473 0.1617 0.6854v5.79" stroke-width="1"></path></g></svg>