<svg xmlns="http://www.w3.org/2000/svg" viewBox="0 0 24 24" id="Music-Genre-70-S--Streamline-Ultimate"><desc>Music Genre 70 S Streamline Icon: https://streamlinehq.com</desc><defs></defs><title>music-genre-70s</title><path d="M1.75 3.75h20.5s1 0 1 1v17.5s0 1 -1 1H1.75s-1 0 -1 -1V4.75s0 -1 1 -1" fill="none" stroke="#000000" stroke-linecap="round" stroke-linejoin="round" stroke-width="1"></path><path d="m0.75 9.75 22.5 0" fill="none" stroke="#000000" stroke-linecap="round" stroke-linejoin="round" stroke-width="1"></path><path d="m6.75 6 0 -5.25" fill="none" stroke="#000000" stroke-linecap="round" stroke-linejoin="round" stroke-width="1"></path><path d="m17.25 6 0 -5.25" fill="none" stroke="#000000" stroke-linecap="round" stroke-linejoin="round" stroke-width="1"></path><path d="M5.25 13.5h1.918a0.751 0.751 0 0 1 0.7 1.014L6 19.5" fill="none" stroke="#000000" stroke-linecap="round" stroke-linejoin="round" stroke-width="1"></path><path d="M13.5 18a1.5 1.5 0 0 1 -3 0v-3a1.5 1.5 0 0 1 3 0Z" fill="none" stroke="#000000" stroke-linecap="round" stroke-linejoin="round" stroke-width="1"></path><path d="M18.75 15h-1.125a1.032 1.032 0 0 0 -1.125 0.9c0 1.35 2.25 1.35 2.25 2.7a1.032 1.032 0 0 1 -1.125 0.9H16.5" fill="none" stroke="#000000" stroke-linecap="round" stroke-linejoin="round" stroke-width="1"></path></svg>