<svg viewBox="0 0 24 24" xmlns="http://www.w3.org/2000/svg" id="Gardening-Lawn-Mower-1--Streamline-Ultimate"><desc>Gardening Lawn Mower 1 Streamline Icon: https://streamlinehq.com</desc><path d="m12.881 19 -7.76 0" fill="none" stroke="#000000" stroke-linecap="round" stroke-linejoin="round" stroke-width="1"></path><path d="M2.25 17.631V16a3 3 0 0 1 3 -3h7.5a3 3 0 0 1 3 3v1.631" fill="none" stroke="#000000" stroke-linecap="round" stroke-linejoin="round" stroke-width="1"></path><path d="M6 13v-1.5A1.5 1.5 0 0 1 7.5 10h3a1.5 1.5 0 0 1 1.5 1.5V13" fill="none" stroke="#000000" stroke-linecap="round" stroke-linejoin="round" stroke-width="1"></path><path d="M15.75 16v-5.42a1.5 1.5 0 0 1 0.39 -1.009l7.11 -7.821" fill="none" stroke="#000000" stroke-linecap="round" stroke-linejoin="round" stroke-width="1"></path><path d="M0.75 19.75a2.25 2.25 0 1 0 4.5 0 2.25 2.25 0 1 0 -4.5 0Z" fill="none" stroke="#000000" stroke-linecap="round" stroke-linejoin="round" stroke-width="1"></path><path d="M12.75 19.75a2.25 2.25 0 1 0 4.5 0 2.25 2.25 0 1 0 -4.5 0Z" fill="none" stroke="#000000" stroke-linecap="round" stroke-linejoin="round" stroke-width="1"></path><path d="M21.211 3.993 18.75 2.062" fill="none" stroke="#000000" stroke-linecap="round" stroke-linejoin="round" stroke-width="1"></path></svg>