<svg xmlns="http://www.w3.org/2000/svg" viewBox="0 0 24 24" id="Gardening-Scissors--Streamline-Ultimate"><desc>Gardening Scissors Streamline Icon: https://streamlinehq.com</desc><g><path d="M14.8 9.73a5.61 5.61 0 0 0 -8 0L1.28 15.3a3.75 3.75 0 0 0 5.3 0l2.92 -2.92A1.87 1.87 0 0 1 12.15 15l-2.91 3a3.74 3.74 0 0 0 0 5.3l5.56 -5.57a5.61 5.61 0 0 0 0 -8Z" fill="none" stroke="#000000" stroke-linecap="round" stroke-linejoin="round" stroke-width="1"></path><path d="M16.44 13.32a8.47 8.47 0 0 0 2.25 -1.65A8.71 8.71 0 0 0 19.93 0.89l-7.44 7.44" fill="none" stroke="#000000" stroke-linecap="round" stroke-linejoin="round" stroke-width="1"></path><path d="M17.84 3a8.27 8.27 0 0 1 -2.32 7.62" fill="none" stroke="#000000" stroke-linecap="round" stroke-linejoin="round" stroke-width="1"></path></g></svg>