<svg xmlns="http://www.w3.org/2000/svg" viewBox="0 0 24 24" id="Gardening-Hand-Sprinkler--Streamline-Ultimate"><desc>Gardening Hand Sprinkler Streamline Icon: https://streamlinehq.com</desc><g><path d="M15.75 11.25h2c0.83 0 1 -0.67 1 -1.5v-7.5c0 -0.83 -0.17 -1.5 -1 -1.5h-2Z" fill="none" stroke="#000000" stroke-linecap="round" stroke-linejoin="round" stroke-width="1"></path><path d="m11.75 9.75 -8 0 0 -5.25 7.56 -1.68" fill="none" stroke="#000000" stroke-linecap="round" stroke-linejoin="round" stroke-width="1"></path><path d="M15.75 11.25c-2.9 0 -5.25 -1.5 -5.25 -5.25S12.85 0.75 15.75 0.75" fill="none" stroke="#000000" stroke-linecap="round" stroke-linejoin="round" stroke-width="1"></path><path d="M3.75 4.5V15c0 2.25 -3 3 -3 3V8.25a4 4 0 0 1 3 -3.75Z" fill="none" stroke="#000000" stroke-linecap="round" stroke-linejoin="round" stroke-width="1"></path><path d="m21.75 2.25 1.5 -0.75" fill="none" stroke="#000000" stroke-linecap="round" stroke-linejoin="round" stroke-width="1"></path><path d="m21.75 9.75 1.5 0.75" fill="none" stroke="#000000" stroke-linecap="round" stroke-linejoin="round" stroke-width="1"></path><path d="m21.75 6 1.5 0" fill="none" stroke="#000000" stroke-linecap="round" stroke-linejoin="round" stroke-width="1"></path><path d="m9.75 20.25 0 3" fill="none" stroke="#000000" stroke-linecap="round" stroke-linejoin="round" stroke-width="1"></path><path d="M6.75 9.75v7.5a3 3 0 0 0 6 0v-6.71" fill="none" stroke="#000000" stroke-linecap="round" stroke-linejoin="round" stroke-width="1"></path></g></svg>