<svg viewBox="0 0 24 24" xmlns="http://www.w3.org/2000/svg" id="Gardening-Tools-1--Streamline-Ultimate"><desc>Gardening Tools 1 Streamline Icon: https://streamlinehq.com</desc><path d="m6 12 0 8.25" fill="none" stroke="#000000" stroke-linecap="round" stroke-linejoin="round" stroke-width="1"></path><path d="M10.443 12.643a1.5 1.5 0 0 1 -1.5 1.607h-5.89a1.5 1.5 0 0 1 -1.5 -1.608A22.816 22.816 0 0 1 4.714 2.614a1.5 1.5 0 0 1 2.572 0 22.831 22.831 0 0 1 3.157 10.029Z" fill="none" stroke="#000000" stroke-linecap="round" stroke-linejoin="round" stroke-width="1"></path><path d="m16.5 23.25 0 -12" fill="none" stroke="#000000" stroke-linecap="round" stroke-linejoin="round" stroke-width="1"></path><path d="m19.5 23.25 0 -12" fill="none" stroke="#000000" stroke-linecap="round" stroke-linejoin="round" stroke-width="1"></path><path d="M22.5 23.25v-10.5a1.5 1.5 0 0 0 -1.5 -1.5h-6a1.5 1.5 0 0 0 -1.5 1.5v10.5" fill="none" stroke="#000000" stroke-linecap="round" stroke-linejoin="round" stroke-width="1"></path><path d="M4.5 21.75a1.5 1.5 0 1 0 3 0 1.5 1.5 0 1 0 -3 0Z" fill="none" stroke="#000000" stroke-linecap="round" stroke-linejoin="round" stroke-width="1"></path><path d="M16.5 2.25a1.5 1.5 0 1 0 3 0 1.5 1.5 0 1 0 -3 0Z" fill="none" stroke="#000000" stroke-linecap="round" stroke-linejoin="round" stroke-width="1"></path><path d="m18 11.25 0 -7.5" fill="none" stroke="#000000" stroke-linecap="round" stroke-linejoin="round" stroke-width="1"></path></svg>