<svg xmlns="http://www.w3.org/2000/svg" fill="none" viewBox="0 0 24 24" id="Gardening-Seed-Bag--Streamline-Ultimate"><desc>Gardening Seed Bag Streamline Icon: https://streamlinehq.com</desc><path stroke="#000000" stroke-linecap="round" stroke-linejoin="round" d="M23.146 11.479c0.1452 0.3704 0.1373 0.7832 -0.0219 1.1478 -0.1592 0.3646 -0.4567 0.651 -0.8271 0.7962l-9.776 3.832 -1.1 -2.793 -2.788 1.094 -1.095 -2.793 -2.793 1.1 -2.189 -5.59102c-0.1452 -0.37038 -0.13733 -0.78327 0.02189 -1.14784 0.15922 -0.36457 0.45674 -0.65096 0.82711 -0.79617L17.37 0.853975c0.3704 -0.145203 0.7833 -0.13733 1.1478 0.021888 0.3646 0.159217 0.651 0.456737 0.7962 0.827107l3.832 9.77603Z" stroke-width="1"></path><path stroke="#000000" d="M1.97498 22.806c-0.20711 0 -0.375 -0.1679 -0.375 -0.375s0.16789 -0.375 0.375 -0.375" stroke-width="1"></path><path stroke="#000000" d="M1.97498 22.806c0.2071 0 0.375 -0.1679 0.375 -0.375s-0.1679 -0.375 -0.375 -0.375" stroke-width="1"></path><path stroke="#000000" d="M5.72601 22.806c-0.2071 0 -0.375 -0.1679 -0.375 -0.375s0.1679 -0.375 0.375 -0.375" stroke-width="1"></path><path stroke="#000000" d="M5.72601 22.806c0.20711 0 0.375 -0.1679 0.375 -0.375s-0.16789 -0.375 -0.375 -0.375" stroke-width="1"></path><path stroke="#000000" d="M9.47699 22.806c-0.20711 0 -0.375 -0.1679 -0.375 -0.375s0.16789 -0.375 0.375 -0.375" stroke-width="1"></path><path stroke="#000000" d="M9.47699 22.806c0.20711 0 0.375 -0.1679 0.375 -0.375s-0.16789 -0.375 -0.375 -0.375" stroke-width="1"></path><g><path stroke="#000000" d="M7.97595 19.056c-0.2071 0 -0.375 -0.1679 -0.375 -0.375s0.1679 -0.375 0.375 -0.375" stroke-width="1"></path><path stroke="#000000" d="M7.97595 19.056c0.20711 0 0.375 -0.1679 0.375 -0.375s-0.16789 -0.375 -0.375 -0.375" stroke-width="1"></path></g><g><path stroke="#000000" d="M4.22601 19.056c-0.2071 0 -0.375 -0.1679 -0.375 -0.375s0.1679 -0.375 0.375 -0.375" stroke-width="1"></path><path stroke="#000000" d="M4.22601 19.056c0.20711 0 0.375 -0.1679 0.375 -0.375s-0.16789 -0.375 -0.375 -0.375" stroke-width="1"></path></g></svg>