<svg viewBox="0 0 24 24" xmlns="http://www.w3.org/2000/svg" id="Laptop-Heart--Streamline-Ultimate"><desc>Laptop Heart Streamline Icon: https://streamlinehq.com</desc><path d="m17.25 23.25 -5.114 -5.335a3.023 3.023 0 0 1 -0.566 -3.492h0a3.025 3.025 0 0 1 4.845 -0.786l0.835 0.835 0.835 -0.835a3.026 3.026 0 0 1 4.846 0.786h0a3.025 3.025 0 0 1 -0.567 3.492Z" fill="none" stroke="#000000" stroke-linecap="round" stroke-linejoin="round" stroke-width="1"></path><path d="M3 12V2.25A1.5 1.5 0 0 1 4.5 0.75h15a1.5 1.5 0 0 1 1.5 1.5V9" fill="none" stroke="#000000" stroke-linecap="round" stroke-linejoin="round" stroke-width="1"></path><path d="M9 12H0.75a3.75 3.75 0 0 0 3.75 3.75h3.75" fill="none" stroke="#000000" stroke-linecap="round" stroke-linejoin="round" stroke-width="1"></path></svg>