<svg xmlns="http://www.w3.org/2000/svg" fill="none" viewBox="0 0 24 24" id="Laptop-Question--Streamline-Ultimate"><desc>Laptop Question Streamline Icon: https://streamlinehq.com</desc><path stroke="#000000" stroke-linecap="round" stroke-linejoin="round" d="M17.25 23.25c3.3137 0 6 -2.6863 6 -6s-2.6863 -6 -6 -6 -6 2.6863 -6 6 2.6863 6 6 6Z" stroke-width="1"></path><path stroke="#000000" stroke-linecap="round" stroke-linejoin="round" d="M15.375 16.125c0 -0.3708 0.11 -0.7334 0.316 -1.0417 0.206 -0.3083 0.4989 -0.5487 0.8415 -0.6906 0.3426 -0.1419 0.7196 -0.179 1.0833 -0.1067 0.3637 0.0724 0.6978 0.251 0.96 0.5132s0.4408 0.5963 0.5132 0.96c0.0723 0.3637 0.0352 0.7407 -0.1067 1.0833 -0.1419 0.3426 -0.3823 0.6355 -0.6906 0.8415 -0.3083 0.206 -0.6709 0.316 -1.0417 0.316" stroke-width="1"></path><path stroke="#000000" d="M17.25 21c-0.2071 0 -0.375 -0.1679 -0.375 -0.375s0.1679 -0.375 0.375 -0.375" stroke-width="1"></path><path stroke="#000000" d="M17.25 21c0.2071 0 0.375 -0.1679 0.375 -0.375s-0.1679 -0.375 -0.375 -0.375" stroke-width="1"></path><path stroke="#000000" stroke-linecap="round" stroke-linejoin="round" d="M3 12V2.25c0 -0.39782 0.15804 -0.77936 0.43934 -1.06066C3.72064 0.908035 4.10218 0.75 4.5 0.75h15c0.3978 0 0.7794 0.158035 1.0607 0.43934 0.2813 0.2813 0.4393 0.66284 0.4393 1.06066v6" stroke-width="1"></path><path stroke="#000000" stroke-linecap="round" stroke-linejoin="round" d="M9.75 12h-9c0 0.9946 0.39509 1.9484 1.09835 2.6517C2.55161 15.3549 3.50544 15.75 4.5 15.75h3.75" stroke-width="1"></path></svg>