<svg xmlns="http://www.w3.org/2000/svg" fill="none" viewBox="0 0 24 24" id="Laptop-Lock-2--Streamline-Ultimate"><desc>Laptop Lock 2 Streamline Icon: https://streamlinehq.com</desc><path stroke="#000000" stroke-linecap="round" stroke-linejoin="round" d="M21.75 15.75h-6c-0.8284 0 -1.5 0.6716 -1.5 1.5v4.5c0 0.8284 0.6716 1.5 1.5 1.5h6c0.8284 0 1.5 -0.6716 1.5 -1.5v-4.5c0 -0.8284 -0.6716 -1.5 -1.5 -1.5Z" stroke-width="1"></path><path stroke="#000000" stroke-linecap="round" stroke-linejoin="round" d="M18.75 11.25c-0.7956 0 -1.5587 0.3161 -2.1213 0.8787 -0.5626 0.5626 -0.8787 1.3257 -0.8787 2.1213v1.5h6v-1.5c0 -0.7956 -0.3161 -1.5587 -0.8787 -2.1213 -0.5626 -0.5626 -1.3257 -0.8787 -2.1213 -0.8787Z" stroke-width="1"></path><path stroke="#000000" d="M18.75 19.9041c-0.2071 0 -0.375 -0.1679 -0.375 -0.375 0 -0.2072 0.1679 -0.375 0.375 -0.375" stroke-width="1"></path><path stroke="#000000" d="M18.75 19.9041c0.2071 0 0.375 -0.1679 0.375 -0.375 0 -0.2072 -0.1679 -0.375 -0.375 -0.375" stroke-width="1"></path><path stroke="#000000" stroke-linecap="round" stroke-linejoin="round" d="M3 12V2.25c0 -0.39782 0.15804 -0.77936 0.43934 -1.06066C3.72064 0.908035 4.10218 0.75 4.5 0.75h15c0.3978 0 0.7794 0.158035 1.0607 0.43934 0.2813 0.2813 0.4393 0.66284 0.4393 1.06066v6" stroke-width="1"></path><path stroke="#000000" stroke-linecap="round" stroke-linejoin="round" d="M12.75 12h-12c0 0.9946 0.39509 1.9484 1.09835 2.6517C2.55161 15.3549 3.50544 15.75 4.5 15.75h6.75" stroke-width="1"></path></svg>