<svg viewBox="0 0 24 24" xmlns="http://www.w3.org/2000/svg" id="Laptop-Star--Streamline-Ultimate"><desc>Laptop Star Streamline Icon: https://streamlinehq.com</desc><path d="m17.956 11.68 1.544 4.073h2.99a0.735 0.735 0 0 1 0.517 1.283l-2.6 1.813 1.44 3.313a0.785 0.785 0 0 1 -1.117 0.982l-3.48 -1.961 -3.48 1.961a0.785 0.785 0 0 1 -1.117 -0.982l1.44 -3.313 -2.6 -1.813a0.734 0.734 0 0 1 0.514 -1.283h3l1.541 -4.073a0.8 0.8 0 0 1 1.408 0Z" fill="none" stroke="#000000" stroke-linecap="round" stroke-linejoin="round" stroke-width="1"></path><path d="M3 12V2.25A1.5 1.5 0 0 1 4.5 0.75h15a1.5 1.5 0 0 1 1.5 1.5v6" fill="none" stroke="#000000" stroke-linecap="round" stroke-linejoin="round" stroke-width="1"></path><path d="M12 12H0.75a3.75 3.75 0 0 0 3.75 3.75h3.75" fill="none" stroke="#000000" stroke-linecap="round" stroke-linejoin="round" stroke-width="1"></path></svg>