<svg xmlns="http://www.w3.org/2000/svg" fill="none" viewBox="0 0 24 24" id="Food-Allegic-Daily-Milk-Product-3--Streamline-Ultimate"><desc>Food Allegic Daily Milk Product 3 Streamline Icon: https://streamlinehq.com</desc><path stroke="#000000" stroke-linecap="round" stroke-linejoin="round" d="M12.81 5.664s3.919 -0.4 2.134 -4.914c-1.0751 1.25808 -2.4872 2.183 -4.07 2.666" stroke-width="1"></path><path stroke="#000000" stroke-linecap="round" stroke-linejoin="round" d="M3.87 5.863S-0.145 5.262 1.639 0.75c1.10771 1.26058 2.54747 2.18439 4.155 2.666" stroke-width="1"></path><path stroke="#000000" stroke-linecap="round" stroke-linejoin="round" d="M8.33 2.75001c0.96771 -0.02423 1.9193 0.25093 2.7247 0.78789 0.8055 0.53696 1.4255 1.30952 1.7753 2.21211 0 0 3 -0.5 3 2.5 -0.9857 0.37812 -2.0787 0.36488 -3.055 -0.037 0 0 -0.445 7.53699 -4.445 7.53699S3.884 8.21301 3.884 8.21301c-0.97591 0.40192 -2.06863 0.41516 -3.053998 0.037 0 -3 2.999998 -2.5 2.999998 -2.5 0.34983 -0.90259 0.96983 -1.67515 1.77526 -2.21211 0.80544 -0.53696 1.75703 -0.81212 2.72474 -0.78789Z" stroke-width="1"></path><path stroke="#000000" stroke-linecap="round" stroke-linejoin="round" d="M4.7 12.2501c2.36592 -0.728 4.89607 -0.728 7.262 0" stroke-width="1"></path><path stroke="#000000" stroke-linecap="round" stroke-linejoin="round" d="M22.983 20.682c0.1352 0.2702 0.1992 0.5705 0.1859 0.8723 -0.0134 0.3019 -0.1036 0.5954 -0.2622 0.8526 -0.1585 0.2572 -0.3801 0.4696 -0.6438 0.6172 -0.2637 0.1475 -0.5607 0.2253 -0.8629 0.2259h-8.456c-0.3025 0.0002 -0.6001 -0.077 -0.8643 -0.2243 -0.2643 -0.1473 -0.4865 -0.3597 -0.6454 -0.6171 -0.159 -0.2574 -0.2495 -0.5512 -0.2628 -0.8534 -0.0134 -0.3022 0.0508 -0.6028 0.1865 -0.8732l4.225 -8.451c0.1473 -0.2949 0.3738 -0.5428 0.6541 -0.7161s0.6033 -0.2651 0.9329 -0.2651 0.6526 0.0918 0.9329 0.2651 0.5068 0.4212 0.6541 0.7161l4.226 8.451Z" stroke-width="1"></path><path stroke="#000000" d="M17.1702 21c-0.2071 0 -0.375 -0.1679 -0.375 -0.375s0.1679 -0.375 0.375 -0.375" stroke-width="1"></path><path stroke="#000000" d="M17.1702 21c0.2071 0 0.375 -0.1679 0.375 -0.375s-0.1679 -0.375 -0.375 -0.375" stroke-width="1"></path><path stroke="#000000" d="M6.58 8.125c-0.2071 0 -0.375 -0.16789 -0.375 -0.375s0.1679 -0.375 0.375 -0.375" stroke-width="1"></path><path stroke="#000000" d="M6.58 8.125c0.20711 0 0.375 -0.16789 0.375 -0.375s-0.16789 -0.375 -0.375 -0.375" stroke-width="1"></path><path stroke="#000000" d="M10.08 8.125c-0.2071 0 -0.375 -0.16789 -0.375 -0.375s0.1679 -0.375 0.375 -0.375" stroke-width="1"></path><path stroke="#000000" d="M10.08 8.125c0.2071 0 0.375 -0.16789 0.375 -0.375s-0.1679 -0.375 -0.375 -0.375" stroke-width="1"></path><path stroke="#000000" stroke-linecap="round" stroke-linejoin="round" d="M17.17 18v-3" stroke-width="1"></path></svg>