<svg xmlns="http://www.w3.org/2000/svg" viewBox="0 0 24 24" id="Food-Allegic-Vegan-Meal-1--Streamline-Ultimate"><desc>Food Allegic Vegan Meal 1 Streamline Icon: https://streamlinehq.com</desc><defs></defs><path d="M16.25 5.75a3.5 4 0 1 0 7 0 3.5 4 0 1 0 -7 0" fill="none" stroke="#000000" stroke-linecap="round" stroke-linejoin="round" stroke-width="1"></path><path d="m19.75 9.75 0 12.5" fill="none" stroke="#000000" stroke-linecap="round" stroke-linejoin="round" stroke-width="1"></path><path d="m4.25 1.75 0 20.5" fill="none" stroke="#000000" stroke-linecap="round" stroke-linejoin="round" stroke-width="1"></path><path d="M0.75 1.75v4.5a3.5 3.5 0 0 0 7 0v-4.5" fill="none" stroke="#000000" stroke-linecap="round" stroke-linejoin="round" stroke-width="1"></path><path d="M10.364 13.5a4.587 4.587 0 0 0 1.636 3 4.587 4.587 0 0 0 1.636 -3 4.587 4.587 0 0 0 -1.636 -3 4.587 4.587 0 0 0 -1.636 3Z" fill="none" stroke="#000000" stroke-linecap="round" stroke-linejoin="round" stroke-width="1"></path><path d="M10.834 15.492A5.333 5.333 0 0 1 12 19.216a5.333 5.333 0 0 1 -3.724 -1.166 5.328 5.328 0 0 1 -1.165 -3.723 5.328 5.328 0 0 1 3.723 1.165Z" fill="none" stroke="#000000" stroke-linecap="round" stroke-linejoin="round" stroke-width="1"></path><path d="M13.166 15.492A5.328 5.328 0 0 0 12 19.216a5.334 5.334 0 0 0 3.724 -1.166 5.328 5.328 0 0 0 1.165 -3.723 5.328 5.328 0 0 0 -3.723 1.165Z" fill="none" stroke="#000000" stroke-linecap="round" stroke-linejoin="round" stroke-width="1"></path><path d="m12 19.216 0 2.284" fill="none" stroke="#000000" stroke-linecap="round" stroke-linejoin="round" stroke-width="1"></path></svg>