<svg xmlns="http://www.w3.org/2000/svg" viewBox="0 0 24 24" id="Food-Allegic-Vegan-Meat--Streamline-Ultimate"><desc>Food Allegic Vegan Meat Streamline Icon: https://streamlinehq.com</desc><defs></defs><path d="M16.368 16.368A5.783 5.783 0 0 0 20 11 5.5 5.5 0 0 0 9.6 8.5H8.5" fill="none" stroke="#000000" stroke-linecap="round" stroke-linejoin="round" stroke-width="1"></path><path d="M5.576 9.318A4 4 0 0 0 8 16.5h4.7" fill="none" stroke="#000000" stroke-linecap="round" stroke-linejoin="round" stroke-width="1"></path><path d="M10.946 10.946c0.456 0 0.535 -0.255 0.649 -0.7A3 3 0 1 1 14.5 14H14" fill="none" stroke="#000000" stroke-linecap="round" stroke-linejoin="round" stroke-width="1"></path><path d="M7.439 11.439A1.5 1.5 0 0 0 8.5 14h1.978" fill="none" stroke="#000000" stroke-linecap="round" stroke-linejoin="round" stroke-width="1"></path><path d="M14 11a0.5 0.5 0 1 0 1 0 0.5 0.5 0 1 0 -1 0" fill="none" stroke="#000000" stroke-linecap="round" stroke-linejoin="round" stroke-width="1"></path><path d="m4.045 4.045 15.91 15.91" fill="none" stroke="#000000" stroke-linecap="round" stroke-linejoin="round" stroke-width="1"></path><path d="M0.75 12a11.25 11.25 0 1 0 22.5 0 11.25 11.25 0 1 0 -22.5 0" fill="none" stroke="#000000" stroke-linecap="round" stroke-linejoin="round" stroke-width="1"></path></svg>