<svg xmlns="http://www.w3.org/2000/svg" fill="none" viewBox="0 0 24 24" id="Food-Allegic-Peanut-2--Streamline-Ultimate"><desc>Food Allegic Peanut 2 Streamline Icon: https://streamlinehq.com</desc><path stroke="#000000" stroke-linecap="round" stroke-linejoin="round" d="M17.8009 7.98048c0.2454 -0.6751 0.3483 -1.39369 0.3023 -2.11052 -0.046 -0.71683 -0.2399 -1.41637 -0.5695 -2.05457 -0.3297 -0.6382 -0.7879 -1.20124 -1.3458 -1.65365 -0.5579 -0.45242 -1.2035 -0.78442 -1.896 -0.97508 -0.6926 -0.190673 -1.4171 -0.235884 -2.1279 -0.13279 -0.7109 0.10309 -1.3927 0.35226 -2.0026 0.7318 -0.60981 0.37955 -1.13445 0.88125 -1.54087 1.47352s-0.68581 1.26228 -0.82056 1.96783c-0.08986 0.46156 -0.32345 0.88286 -0.66732 1.20358 -0.34388 0.32072 -0.78042 0.52441 -1.24711 0.58192 -0.85056 0.10762 -1.66483 0.40997 -2.37949 0.88355 -0.71466 0.47359 -1.31046 1.10563 -1.74105 1.84699 -0.4306 0.74134 -0.68438 1.57204 -0.74163 2.42744 -0.05725 0.8555 0.08359 1.7125 0.41155 2.5047 0.32797 0.7921 0.83423 1.4979 1.47942 2.0625 0.64518 0.5646 1.4119 0.9727 2.24053 1.1927 0.82863 0.22 1.69684 0.2459 2.53711 0.0757 0.84026 -0.1702 1.62994 -0.532 2.30763 -1.0571" stroke-width="1"></path><path stroke="#000000" stroke-linecap="round" stroke-linejoin="round" d="M3.29715 17.0398c0.02768 -1.9765 0.74647 -3.881 2.03164 -5.3829 2.04336 -2.04336 3.15491 -0.9289 4.45887 -2.22895 1.30394 -1.30005 0.92884 -2.78862 2.60304 -4.45887 1.6742 -1.67024 4.7372 -1.73666 4.7372 -1.73666" stroke-width="1"></path><path stroke="#000000" stroke-linecap="round" stroke-linejoin="round" d="M22.8058 20.4917c0.1322 0.2643 0.1947 0.5579 0.1815 0.8531 -0.0132 0.2952 -0.1017 0.582 -0.257 0.8334 -0.1553 0.2513 -0.3724 0.4588 -0.6305 0.6026 -0.258 0.1439 -0.5486 0.2193 -0.8441 0.2192h-8.2555c-0.2955 0.0001 -0.5861 -0.0753 -0.8442 -0.2192 -0.258 -0.1438 -0.4751 -0.3513 -0.6304 -0.6026 -0.1553 -0.2514 -0.2438 -0.5382 -0.257 -0.8334 -0.0132 -0.2952 0.0492 -0.5888 0.1815 -0.8531l4.1277 -8.2545c0.1439 -0.288 0.3651 -0.5302 0.6389 -0.6994 0.2738 -0.1693 0.5893 -0.259 0.9112 -0.259 0.3219 0 0.6375 0.0897 0.9113 0.259 0.2738 0.1692 0.495 0.4114 0.6388 0.6994l4.1278 8.2545Z" stroke-width="1"></path><path stroke="#000000" d="M17.128 20.8024c-0.2023 0 -0.3663 -0.164 -0.3663 -0.3663s0.164 -0.3663 0.3663 -0.3663" stroke-width="1"></path><path stroke="#000000" d="M17.128 20.8024c0.2022 0 0.3662 -0.164 0.3662 -0.3663s-0.164 -0.3663 -0.3662 -0.3663" stroke-width="1"></path><path stroke="#000000" stroke-linecap="round" stroke-linejoin="round" d="M17.128 17.8721v-2.9302" stroke-width="1"></path></svg>