<svg xmlns="http://www.w3.org/2000/svg" viewBox="0 0 24 24" id="Food-Allegic-Vegan-Meal-3--Streamline-Ultimate"><desc>Food Allegic Vegan Meal 3 Streamline Icon: https://streamlinehq.com</desc><defs></defs><path d="M0.75 12a11.25 11.25 0 1 0 22.5 0 11.25 11.25 0 1 0 -22.5 0" fill="none" stroke="#000000" stroke-linecap="round" stroke-linejoin="round" stroke-width="1"></path><path d="M6.12 6.12a8.316 8.316 0 0 1 11.76 0" fill="none" stroke="#000000" stroke-linecap="round" stroke-linejoin="round" stroke-width="1"></path><path d="M17.88 17.88a8.316 8.316 0 0 1 -11.76 0" fill="none" stroke="#000000" stroke-linecap="round" stroke-linejoin="round" stroke-width="1"></path><path d="M14 10.5a5.4 5.4 0 0 1 -2 4 5.4 5.4 0 0 1 -2 -4 5.4 5.4 0 0 1 2 -4 5.4 5.4 0 0 1 2 4Z" fill="none" stroke="#000000" stroke-linecap="round" stroke-linejoin="round" stroke-width="1"></path><path d="M16.227 9.473a5.439 5.439 0 0 1 1.459 -0.044 5.4 5.4 0 0 1 -1.414 4.243 5.4 5.4 0 0 1 -4.243 1.414" fill="none" stroke="#000000" stroke-linecap="round" stroke-linejoin="round" stroke-width="1"></path><path d="M7.83 9.473a5.432 5.432 0 0 0 -1.458 -0.044 5.4 5.4 0 0 0 1.414 4.243 5.4 5.4 0 0 0 4.243 1.414" fill="none" stroke="#000000" stroke-linecap="round" stroke-linejoin="round" stroke-width="1"></path><path d="m12 14.5 0 2.5" fill="none" stroke="#000000" stroke-linecap="round" stroke-linejoin="round" stroke-width="1"></path></svg>