<svg xmlns="http://www.w3.org/2000/svg" fill="none" viewBox="0 0 24 24" id="Food-Allegic-Daily-Milk-Product-4--Streamline-Ultimate"><desc>Food Allegic Daily Milk Product 4 Streamline Icon: https://streamlinehq.com</desc><path stroke="#000000" d="M10.78 19.19c-0.27 0 -0.4888 -0.2188 -0.4888 -0.4888s0.2188 -0.4888 0.4888 -0.4888" stroke-width="1"></path><path stroke="#000000" d="M10.78 19.19c0.2699 0 0.4888 -0.2188 0.4888 -0.4888s-0.2189 -0.4888 -0.4888 -0.4888" stroke-width="1"></path><path stroke="#000000" d="M6.38072 15.7684c-0.26995 0 -0.4888 -0.2189 -0.4888 -0.4888 0 -0.27 0.21885 -0.4888 0.4888 -0.4888" stroke-width="1"></path><path stroke="#000000" d="M6.38074 15.7684c0.26995 0 0.4888 -0.2189 0.4888 -0.4888 0 -0.27 -0.21885 -0.4888 -0.4888 -0.4888" stroke-width="1"></path><path stroke="#000000" d="M2.47032 17.2349c-0.26996 0 -0.48881 -0.2188 -0.48881 -0.4888 0 -0.2699 0.21885 -0.4888 0.48881 -0.4888" stroke-width="1"></path><path stroke="#000000" d="M2.47031 17.2349c0.26996 0 0.4888 -0.2188 0.4888 -0.4888 0 -0.2699 -0.21884 -0.4888 -0.4888 -0.4888" stroke-width="1"></path><path stroke="#000000" stroke-linecap="round" stroke-linejoin="round" d="M15.668 16.9905h3.9104c0.3889 0 0.7619 0.1545 1.0369 0.4295 0.275 0.275 0.4295 0.648 0.4295 1.0369 0 0.3889 -0.1545 0.7619 -0.4295 1.0369 -0.275 0.275 -0.648 0.4295 -1.0369 0.4295H18.112c0.3889 0 0.7619 0.1545 1.0369 0.4295 0.275 0.275 0.4295 0.648 0.4295 1.0369 0 0.3889 -0.1545 0.7619 -0.4295 1.0369 -0.275 0.275 -0.648 0.4295 -1.0369 0.4295h-7.4787c-0.98532 0.0002 -1.95122 -0.2741 -2.78939 -0.7921 -0.83816 -0.518 -1.51544 -1.2593 -1.95589 -2.1407H1" stroke-width="1"></path><path stroke="#000000" stroke-linecap="round" stroke-linejoin="round" d="M1.00391 12.1024h4.88802c0.71866 -1.0771 1.73872 -1.9187 2.93281 -2.41954" stroke-width="1"></path><path stroke="#000000" stroke-linecap="round" stroke-linejoin="round" d="M21.0448 13.1876c0 0.2593 -0.103 0.508 -0.2863 0.6913 -0.1834 0.1833 -0.432 0.2863 -0.6913 0.2863H13.224c-0.2593 0 -0.508 -0.103 -0.6913 -0.2863 -0.1833 -0.1833 -0.2863 -0.432 -0.2863 -0.6913V6.3444l1.9552 -2.44401h4.888l1.9552 2.44401v6.8432Z" stroke-width="1"></path><path stroke="#000000" stroke-linecap="round" stroke-linejoin="round" d="m12.2464 6.34437 -1.9552 -1.95521" stroke-width="1"></path><path stroke="#000000" stroke-linecap="round" stroke-linejoin="round" d="m23 4.38916 -1.9552 1.95521" stroke-width="1"></path><path stroke="#000000" stroke-linecap="round" stroke-linejoin="round" d="M13.4684 1.14355h6.3544" stroke-width="1"></path><path stroke="#000000" stroke-linecap="round" stroke-linejoin="round" d="M14.2016 3.9004V1.14355" stroke-width="1"></path><path stroke="#000000" stroke-linecap="round" stroke-linejoin="round" d="M19.0896 3.9004V1.14355" stroke-width="1"></path></svg>