<svg xmlns="http://www.w3.org/2000/svg" fill="none" viewBox="0 0 24 24" id="Food-Allegic-Gluten-4--Streamline-Ultimate"><desc>Food Allegic Gluten 4 Streamline Icon: https://streamlinehq.com</desc><path stroke="#000000" d="M10.7799 19.3321c-0.2699 0 -0.4888 -0.2188 -0.4888 -0.4888s0.2189 -0.4888 0.4888 -0.4888" stroke-width="1"></path><path stroke="#000000" d="M10.7799 19.3321c0.27 0 0.4888 -0.2188 0.4888 -0.4888s-0.2188 -0.4888 -0.4888 -0.4888" stroke-width="1"></path><path stroke="#000000" d="M6.38074 15.6661c-0.26996 0 -0.4888 -0.2189 -0.4888 -0.4888 0 -0.27 0.21884 -0.4888 0.4888 -0.4888" stroke-width="1"></path><path stroke="#000000" d="M6.38074 15.6661c0.26995 0 0.4888 -0.2189 0.4888 -0.4888 0 -0.27 -0.21885 -0.4888 -0.4888 -0.4888" stroke-width="1"></path><path stroke="#000000" d="M2.5314 17.4991c-0.26995 0 -0.4888 -0.2189 -0.4888 -0.4888 0 -0.27 0.21885 -0.4888 0.4888 -0.4888" stroke-width="1"></path><path stroke="#000000" d="M2.5314 17.4991c0.26996 0 0.4888 -0.2189 0.4888 -0.4888 0 -0.27 -0.21884 -0.4888 -0.4888 -0.4888" stroke-width="1"></path><path stroke="#000000" stroke-linecap="round" stroke-linejoin="round" d="M23 15.666c0 0.3889 -0.1545 0.7619 -0.4295 1.0369 -0.275 0.275 -0.648 0.4295 -1.0369 0.4295h-1.9552c0.3889 0 0.7619 0.1545 1.0369 0.4295 0.275 0.275 0.4295 0.648 0.4295 1.0369 0 0.3889 -0.1545 0.7619 -0.4295 1.0369 -0.275 0.275 -0.648 0.4295 -1.0369 0.4295H18.112c0.3889 0 0.7619 0.1545 1.0369 0.4295 0.275 0.275 0.4295 0.648 0.4295 1.0369 0 0.389 -0.1545 0.7619 -0.4295 1.0369 -0.275 0.275 -0.648 0.4295 -1.0369 0.4295h-7.4787c-0.98532 0.0003 -1.95122 -0.274 -2.78939 -0.7921 -0.83816 -0.518 -1.51544 -1.2593 -1.95589 -2.1407H1" stroke-width="1"></path><path stroke="#000000" stroke-linecap="round" stroke-linejoin="round" d="M1.00391 12.2444h4.88802c0.47541 -0.7142 1.08579 -1.3286 1.79683 -1.8086" stroke-width="1"></path><path stroke="#000000" stroke-linecap="round" stroke-linejoin="round" d="M14.1888 5.03457c0 2.22698 2.1997 4.03262 2.1997 4.03262s2.1996 -1.80564 2.1996 -4.03262c0 -2.22698 -2.1996 -4.03262 -2.1996 -4.03262s-2.1997 1.80857 -2.1997 4.03262Z" stroke-width="1"></path><path stroke="#000000" stroke-linecap="round" stroke-linejoin="round" d="M14.8214 7.71221c1.8144 1.81541 1.5641 5.00529 1.5641 5.00529s-3.1908 0.2484 -5.0053 -1.5641C9.56579 9.3409 9.81605 6.14902 9.81605 6.14902s3.18995 -0.25124 5.00535 1.56319Z" stroke-width="1"></path><path stroke="#000000" stroke-linecap="round" stroke-linejoin="round" d="M17.9546 7.71221c-1.8145 1.81541 -1.5642 5.00529 -1.5642 5.00529s3.1899 0.2484 5.0053 -1.5641 1.5642 -5.00438 1.5642 -5.00438 -3.1899 -0.25124 -5.0053 1.56319Z" stroke-width="1"></path><path stroke="#000000" stroke-linecap="round" stroke-linejoin="round" d="M16.3885 12.7175v1.7265" stroke-width="1"></path></svg>