<svg xmlns="http://www.w3.org/2000/svg" fill="none" viewBox="0 0 24 24" id="Monitor-Question--Streamline-Ultimate"><desc>Monitor Question Streamline Icon: https://streamlinehq.com</desc><path stroke="#000000" stroke-linecap="round" stroke-linejoin="round" d="m8.25 20.25 0.75 -4.5" stroke-width="1"></path><path stroke="#000000" stroke-linecap="round" stroke-linejoin="round" d="M6 20.25h2.25" stroke-width="1"></path><path stroke="#000000" stroke-linecap="round" stroke-linejoin="round" d="M0.75 11.68h8.38" stroke-width="1"></path><path stroke="#000000" stroke-linecap="round" stroke-linejoin="round" d="M9 15.75H3.75c-0.79565 0 -1.55871 -0.3161 -2.12132 -0.8787C1.06607 14.3087 0.75 13.5456 0.75 12.75v-9c0 -0.79565 0.31607 -1.55871 0.87868 -2.12132C2.19129 1.06607 2.95435 0.75 3.75 0.75h16.5c0.7956 0 1.5587 0.31607 2.1213 0.87868 0.5626 0.56261 0.8787 1.32567 0.8787 2.12132v7.5" stroke-width="1"></path><g><path stroke="#000000" stroke-linecap="round" stroke-linejoin="round" d="M17.25 23.25c3.3137 0 6 -2.6863 6 -6s-2.6863 -6 -6 -6 -6 2.6863 -6 6 2.6863 6 6 6Z" stroke-width="1"></path><path stroke="#000000" stroke-linecap="round" stroke-linejoin="round" d="M15.38 16.13c-0.0019 -0.3726 0.1069 -0.7375 0.3127 -1.0482 0.2058 -0.3107 0.4993 -0.5532 0.8433 -0.6967 0.3439 -0.1436 0.7227 -0.1816 1.0883 -0.1094 0.3656 0.0722 0.7015 0.2515 0.9651 0.515 0.2635 0.2635 0.4427 0.5994 0.515 0.965 0.0722 0.3656 0.0341 0.7445 -0.1094 1.0884s-0.3861 0.6374 -0.6968 0.8433c-0.3106 0.2058 -0.6755 0.3146 -1.0482 0.3126" stroke-width="1"></path><path stroke="#000000" d="M17.3064 21.005c-0.2071 0 -0.375 -0.1679 -0.375 -0.375s0.1679 -0.375 0.375 -0.375" stroke-width="1"></path><path stroke="#000000" d="M17.3064 21.005c0.2071 0 0.375 -0.1679 0.375 -0.375s-0.1679 -0.375 -0.375 -0.375" stroke-width="1"></path></g></svg>