<svg xmlns="http://www.w3.org/2000/svg" viewBox="0 0 24 24" id="Monitor-Flash--Streamline-Ultimate"><desc>Monitor Flash Streamline Icon: https://streamlinehq.com</desc><g><g><path d="m8.25 20.25 0.75 -4.5" fill="none" stroke="#000000" stroke-linecap="round" stroke-linejoin="round" stroke-width="1"></path><path d="m6 20.25 6.75 0" fill="none" stroke="#000000" stroke-linecap="round" stroke-linejoin="round" stroke-width="1"></path><path d="m0.75 11.75 12 0" fill="none" stroke="#000000" stroke-linecap="round" stroke-linejoin="round" stroke-width="1"></path><path d="M10.5 15.75H3.75a3 3 0 0 1 -3 -3v-9a3 3 0 0 1 3 -3h16.5a3 3 0 0 1 3 3v9" fill="none" stroke="#000000" stroke-linecap="round" stroke-linejoin="round" stroke-width="1"></path></g><path d="m20.25 9.75 -5.91 6.88a0.37 0.37 0 0 0 -0.06 0.4 0.38 0.38 0 0 0 0.35 0.22h2.62v6l5.91 -6.88a0.37 0.37 0 0 0 0.06 -0.4 0.38 0.38 0 0 0 -0.34 -0.22h-2.63Z" fill="none" stroke="#000000" stroke-linecap="round" stroke-linejoin="round" stroke-width="1"></path></g></svg>