<svg xmlns="http://www.w3.org/2000/svg" viewBox="0 0 24 24" id="Monitor-Edit--Streamline-Ultimate"><desc>Monitor Edit Streamline Icon: https://streamlinehq.com</desc><g><g><path d="m8.25 20.25 0.75 -4.5" fill="none" stroke="#000000" stroke-linecap="round" stroke-linejoin="round" stroke-width="1"></path><path d="m6 20.25 3 0" fill="none" stroke="#000000" stroke-linecap="round" stroke-linejoin="round" stroke-width="1"></path><path d="m0.75 11.75 13.71 0" fill="none" stroke="#000000" stroke-linecap="round" stroke-linejoin="round" stroke-width="1"></path><path d="M11.25 15.75h-7.5a3 3 0 0 1 -3 -3v-9a3 3 0 0 1 3 -3h16.5a3 3 0 0 1 3 3V9" fill="none" stroke="#000000" stroke-linecap="round" stroke-linejoin="round" stroke-width="1"></path></g><path d="M22.63 14.87 15 22.5l-3.75 0.75 0.75 -3.75 7.63 -7.63a2.11 2.11 0 0 1 3 0h0a2.11 2.11 0 0 1 0 3Z" fill="none" stroke="#000000" stroke-linecap="round" stroke-linejoin="round" stroke-width="1"></path></g></svg>