<svg viewBox="0 0 24 24" xmlns="http://www.w3.org/2000/svg" id="Shorts-2--Streamline-Ultimate"><desc>Shorts 2 Streamline Icon: https://streamlinehq.com</desc><path d="M2.5 3.75h19a1 1 0 0 1 1 1v2l0 0h-21l0 0v-2a1 1 0 0 1 1 -1Z" fill="none" stroke="#000000" stroke-linecap="round" stroke-linejoin="round" stroke-width="1"></path><path d="M22.5 11.25a4.5 4.5 0 0 1 -4.5 -4.5" fill="none" stroke="#000000" stroke-linecap="round" stroke-linejoin="round" stroke-width="1"></path><path d="M1.5 11.25A4.5 4.5 0 0 0 6 6.75" fill="none" stroke="#000000" stroke-linecap="round" stroke-linejoin="round" stroke-width="1"></path><path d="M10.314 14.238a1.7 1.7 0 0 1 3.372 0l0.736 4.742a1.5 1.5 0 0 0 1.478 1.27H21a1.5 1.5 0 0 0 1.5 -1.5v-12h-21v12a1.5 1.5 0 0 0 1.5 1.5h5.1a1.5 1.5 0 0 0 1.483 -1.27Z" fill="none" stroke="#000000" stroke-linecap="round" stroke-linejoin="round" stroke-width="1"></path></svg>