<svg viewBox="0 0 24 24" xmlns="http://www.w3.org/2000/svg" id="Trousers-Calves-2--Streamline-Ultimate"><desc>Trousers Calves 2 Streamline Icon: https://streamlinehq.com</desc><path d="M4 0.75h16a1 1 0 0 1 1 1v2l0 0H3l0 0v-2a1 1 0 0 1 1 -1Z" fill="none" stroke="#000000" stroke-linecap="round" stroke-linejoin="round" stroke-width="1"></path><path d="M21 8.25a4.5 4.5 0 0 1 -4.5 -4.5" fill="none" stroke="#000000" stroke-linecap="round" stroke-linejoin="round" stroke-width="1"></path><path d="M3 8.25a4.5 4.5 0 0 0 4.5 -4.5" fill="none" stroke="#000000" stroke-linecap="round" stroke-linejoin="round" stroke-width="1"></path><path d="M10.314 11.238a1.7 1.7 0 0 1 3.372 0l0.736 10.742a1.5 1.5 0 0 0 1.478 1.27h3.6a1.5 1.5 0 0 0 1.5 -1.5v-18H3v18a1.5 1.5 0 0 0 1.5 1.5h3.6a1.5 1.5 0 0 0 1.483 -1.27Z" fill="none" stroke="#000000" stroke-linecap="round" stroke-linejoin="round" stroke-width="1"></path></svg>