<svg xmlns="http://www.w3.org/2000/svg" viewBox="0 0 24 24" id="Famous-People-Witch--Streamline-Ultimate"><desc>Famous People Witch Streamline Icon: https://streamlinehq.com</desc><g><path d="M3.78 15.75a24.76 24.76 0 0 0 8.22 1.5 24.76 24.76 0 0 0 8.25 -1.5" fill="none" stroke="#000000" stroke-linecap="round" stroke-linejoin="round" stroke-width="1"></path><path d="m6.78 17.25 0.75 -3.75 3.75 -3L9 6.75l3.75 -6V6l4.5 4.5 -1.5 3 1.5 3.75a5.25 5.25 0 0 1 -10.5 0Z" fill="none" stroke="#000000" stroke-linecap="round" stroke-linejoin="round" stroke-width="1"></path><path d="M6.78 17.25a2.25 2.25 0 0 0 -2.25 2.25 2.08 2.08 0 0 0 0.13 0.75 3 3 0 0 0 -3.13 3" fill="none" stroke="#000000" stroke-linecap="round" stroke-linejoin="round" stroke-width="1"></path><path d="M17.28 17.25a2.25 2.25 0 0 1 2.25 2.25 2.32 2.32 0 0 1 -0.13 0.75 3 3 0 0 1 3.13 3" fill="none" stroke="#000000" stroke-linecap="round" stroke-linejoin="round" stroke-width="1"></path></g></svg>