<svg xmlns="http://www.w3.org/2000/svg" viewBox="0 0 24 24" id="Primitive-Symbols-Animal-1--Streamline-Ultimate"><desc>Primitive Symbols Animal 1 Streamline Icon: https://streamlinehq.com</desc><g><path d="M5.46 16.57 1 23.25" fill="none" stroke="#000000" stroke-linecap="round" stroke-linejoin="round" stroke-width="1"></path><path d="M8.92 17.38 5.5 22.27" fill="none" stroke="#000000" stroke-linecap="round" stroke-linejoin="round" stroke-width="1"></path><path d="m13 17.38 5.87 3.91" fill="none" stroke="#000000" stroke-linecap="round" stroke-linejoin="round" stroke-width="1"></path><path d="m17.02 16.62 4.52 3.21" fill="none" stroke="#000000" stroke-linecap="round" stroke-linejoin="round" stroke-width="1"></path><path d="m5.26 10.53 -4.26 0" fill="none" stroke="#000000" stroke-linecap="round" stroke-linejoin="round" stroke-width="1"></path><path d="M23.11 5.09a2 2 0 0 0 -1.38 -2.37c-1.73 -0.52 -2.08 -0.38 -2.68 -0.12a2.93 2.93 0 0 0 -1.6 1.64l-1.81 4.67a1 1 0 0 1 -0.94 0.64H7.85a3.92 3.92 0 1 0 0 7.83h6.85a3.91 3.91 0 0 0 3.91 -3.91 10.62 10.62 0 0 0 -0.4 -2.52l1.68 -4.33a1 1 0 0 1 0.53 -0.54 0.94 0.94 0 0 1 0.77 0 1.42 1.42 0 0 0 1.19 0 1.43 1.43 0 0 0 0.73 -0.99Z" fill="none" stroke="#000000" stroke-linecap="round" stroke-linejoin="round" stroke-width="1"></path><path d="m16.75 0.75 2.3 1.85" fill="none" stroke="#000000" stroke-linecap="round" stroke-linejoin="round" stroke-width="1"></path></g></svg>