<svg viewBox="0 0 24 24" xmlns="http://www.w3.org/2000/svg" id="Primitive-Symbols-Animal--Streamline-Ultimate"><desc>Primitive Symbols Animal Streamline Icon: https://streamlinehq.com</desc><path d="m7.25 17.25 -1.5 -4.5 6 -5.25 6 2.25 -6 2.25 -4.5 5.25z" fill="none" stroke="#000000" stroke-linecap="round" stroke-linejoin="round" stroke-width="1"></path><path d="M11.75 7.5 15.5 3h6s-1.5 3 -3 3H13" fill="none" stroke="#000000" stroke-linecap="round" stroke-linejoin="round" stroke-width="1"></path><path d="M15.5 3H11a3.25 3.25 0 0 1 -3 -1.5" fill="none" stroke="#000000" stroke-linecap="round" stroke-linejoin="round" stroke-width="1"></path><path d="m11.75 1.5 0 1.5" fill="none" stroke="#000000" stroke-linecap="round" stroke-linejoin="round" stroke-width="1"></path><path d="M17.75 9.75c0.75 3.75 0 4.5 -0.75 5.25" fill="none" stroke="#000000" stroke-linecap="round" stroke-linejoin="round" stroke-width="1"></path><path d="M7.25 17.25v2.25a2.747 2.747 0 0 0 3 3" fill="none" stroke="#000000" stroke-linecap="round" stroke-linejoin="round" stroke-width="1"></path><path d="M5.75 12.75a2.078 2.078 0 0 1 -3 0" fill="none" stroke="#000000" stroke-linecap="round" stroke-linejoin="round" stroke-width="1"></path><path d="M6.364 14.591 3.5 16.5v3.75c0 1.5 0.75 2.25 1.5 2.25" fill="none" stroke="#000000" stroke-linecap="round" stroke-linejoin="round" stroke-width="1"></path></svg>