<svg viewBox="0 0 24 24" xmlns="http://www.w3.org/2000/svg" id="Primitive-Symbols-Group--Streamline-Ultimate"><desc>Primitive Symbols Group Streamline Icon: https://streamlinehq.com</desc><path d="M3 3.625a2.25 2.625 0 1 0 4.5 0 2.25 2.625 0 1 0 -4.5 0Z" fill="none" stroke="#000000" stroke-linecap="round" stroke-linejoin="round" stroke-width="1"></path><path d="M16.5 3.625a2.25 2.625 0 1 0 4.5 0 2.25 2.625 0 1 0 -4.5 0Z" fill="none" stroke="#000000" stroke-linecap="round" stroke-linejoin="round" stroke-width="1"></path><path d="m0.75 12.25 0.864 -1.728a0.751 0.751 0 0 1 1.327 -0.029l6.6 11.871a0.75 0.75 0 0 0 0.655 0.386h3.595a0.75 0.75 0 0 0 0.671 -0.415l6 -12a0.75 0.75 0 0 1 1.271 -0.114l1.517 2.029" fill="none" stroke="#000000" stroke-linecap="round" stroke-linejoin="round" stroke-width="1"></path><path d="m23.25 22.75 -6.207 -12.415a0.75 0.75 0 0 0 -1.271 -0.114L14.25 12.25" fill="none" stroke="#000000" stroke-linecap="round" stroke-linejoin="round" stroke-width="1"></path><path d="m0.75 22.75 6.207 -12.415a0.75 0.75 0 0 1 1.271 -0.114L9.75 12.25" fill="none" stroke="#000000" stroke-linecap="round" stroke-linejoin="round" stroke-width="1"></path></svg>