<svg viewBox="0 0 24 24" xmlns="http://www.w3.org/2000/svg" id="Primitive-Symbols-Bull--Streamline-Ultimate"><desc>Primitive Symbols Bull Streamline Icon: https://streamlinehq.com</desc><path d="M11.058 7.933a3.887 3.887 0 0 0 -1.072 -0.15 3.943 3.943 0 0 0 -1.9 0.489 3.1 3.1 0 0 0 -1.582 -0.489A2.557 2.557 0 0 0 4.08 9.53l-0.6 1.8a1.179 1.179 0 0 0 1.856 1.294L6.5 11.7a0.521 0.521 0 0 1 0.827 0.263l0.47 1.648a4.112 4.112 0 0 0 3.952 2.98h3.629a5.352 5.352 0 0 0 2.807 -0.795l3.575 -2.2a3.138 3.138 0 0 0 -1.645 -5.81h-0.506a3.935 3.935 0 0 0 -1.462 0.281 7.671 7.671 0 0 1 -3.158 0.7 7.343 7.343 0 0 1 -2.02 -0.283Z" fill="none" stroke="#000000" stroke-linecap="round" stroke-linejoin="round" stroke-width="1"></path><path d="m8.248 14.634 -2.607 3.909" fill="none" stroke="#000000" stroke-linecap="round" stroke-linejoin="round" stroke-width="1"></path><path d="M10.087 16.237 9.554 20.5" fill="none" stroke="#000000" stroke-linecap="round" stroke-linejoin="round" stroke-width="1"></path><path d="m19.323 15.091 0.453 1.788a0.49 0.49 0 0 1 -0.055 0.372l-1.362 2.271" fill="none" stroke="#000000" stroke-linecap="round" stroke-linejoin="round" stroke-width="1"></path><path d="m20.632 14.285 1.588 3.177a0.49 0.49 0 0 1 0.052 0.219V20.5" fill="none" stroke="#000000" stroke-linecap="round" stroke-linejoin="round" stroke-width="1"></path><path d="M0.75 6.315a3.9 3.9 0 0 0 3.744 2.446" fill="none" stroke="#000000" stroke-linecap="round" stroke-linejoin="round" stroke-width="1"></path><path d="M7.1 7.849a2.685 2.685 0 0 0 -1.987 -3.133L1.728 3.87" fill="none" stroke="#000000" stroke-linecap="round" stroke-linejoin="round" stroke-width="1"></path></svg>