<svg viewBox="0 0 24 24" xmlns="http://www.w3.org/2000/svg" id="Primitive-Symbols-Woman-1--Streamline-Ultimate"><desc>Primitive Symbols Woman 1 Streamline Icon: https://streamlinehq.com</desc><path d="M9.5 3.75a2.25 3 0 1 0 4.5 0 2.25 3 0 1 0 -4.5 0Z" fill="none" stroke="#000000" stroke-linecap="round" stroke-linejoin="round" stroke-width="1"></path><path d="M5.75 15.75V12a3 3 0 0 1 3 -3h6a3 3 0 0 1 3 3v3.75" fill="none" stroke="#000000" stroke-linecap="round" stroke-linejoin="round" stroke-width="1"></path><path d="M9.5 9a11.082 11.082 0 0 1 -0.75 7.5h6A11.082 11.082 0 0 1 14 9Z" fill="none" stroke="#000000" stroke-linecap="round" stroke-linejoin="round" stroke-width="1"></path><path d="m8.75 16.5 0 6.75" fill="none" stroke="#000000" stroke-linecap="round" stroke-linejoin="round" stroke-width="1"></path><path d="m14.75 16.5 0 6.75" fill="none" stroke="#000000" stroke-linecap="round" stroke-linejoin="round" stroke-width="1"></path><path d="M7.25 6.75a3.647 3.647 0 0 0 2.7 -1.2" fill="none" stroke="#000000" stroke-linecap="round" stroke-linejoin="round" stroke-width="1"></path><path d="M16.25 6.75a3.647 3.647 0 0 1 -2.7 -1.2" fill="none" stroke="#000000" stroke-linecap="round" stroke-linejoin="round" stroke-width="1"></path></svg>