<svg viewBox="0 0 24 24" xmlns="http://www.w3.org/2000/svg" id="Cash-Map-Directions--Streamline-Ultimate"><desc>Cash Map Directions Streamline Icon: https://streamlinehq.com</desc><path d="M14.25 7.5c0 3.25 -5.132 10.527 -6.446 12.336a0.375 0.375 0 0 1 -0.607 0C5.883 18.027 0.75 10.75 0.75 7.5a6.75 6.75 0 0 1 13.5 0Z" fill="none" stroke="#000000" stroke-linecap="round" stroke-linejoin="round" stroke-width="1"></path><path d="M9.321 5.25H6.7a1.342 1.342 0 0 0 -0.5 2.587l2.655 0.825a1.342 1.342 0 0 1 -0.5 2.588H5.2" fill="none" stroke="#000000" stroke-linecap="round" stroke-linejoin="round" stroke-width="1"></path><path d="m7.446 5.25 0 -1.5" fill="none" stroke="#000000" stroke-linecap="round" stroke-linejoin="round" stroke-width="1"></path><path d="m7.446 12.75 0 -1.5" fill="none" stroke="#000000" stroke-linecap="round" stroke-linejoin="round" stroke-width="1"></path><path d="m9.75 23.25 1.5 0" fill="none" stroke="#000000" stroke-linecap="round" stroke-linejoin="round" stroke-width="1"></path><path d="M14.25 23.25h1.15a1.111 1.111 0 0 0 1.1 -1.125V21" fill="none" stroke="#000000" stroke-linecap="round" stroke-linejoin="round" stroke-width="1"></path><path d="m16.5 18 0 -1.5" fill="none" stroke="#000000" stroke-linecap="round" stroke-linejoin="round" stroke-width="1"></path><path d="M16.5 13.5v-1.125a1.111 1.111 0 0 1 1.1 -1.125h1.15" fill="none" stroke="#000000" stroke-linecap="round" stroke-linejoin="round" stroke-width="1"></path><path d="m21.75 11.25 1.5 0" fill="none" stroke="#000000" stroke-linecap="round" stroke-linejoin="round" stroke-width="1"></path></svg>