<svg viewBox="0 0 24 24" xmlns="http://www.w3.org/2000/svg" id="Cash-User-Message--Streamline-Ultimate"><desc>Cash User Message Streamline Icon: https://streamlinehq.com</desc><path d="M14.25 15.75v4.5l4.5 -4.5h3a1.5 1.5 0 0 0 1.5 -1.5v-12a1.5 1.5 0 0 0 -1.5 -1.5h-12a1.5 1.5 0 0 0 -1.5 1.5" fill="none" stroke="#000000" stroke-linecap="round" stroke-linejoin="round" stroke-width="1"></path><path d="M17.625 5.091H15a1.342 1.342 0 0 0 -0.5 2.588l2.655 0.825a1.342 1.342 0 0 1 -0.5 2.587H13.5" fill="none" stroke="#000000" stroke-linecap="round" stroke-linejoin="round" stroke-width="1"></path><path d="m15.75 5.091 0 -1.5" fill="none" stroke="#000000" stroke-linecap="round" stroke-linejoin="round" stroke-width="1"></path><path d="m15.75 12.591 0 -1.5" fill="none" stroke="#000000" stroke-linecap="round" stroke-linejoin="round" stroke-width="1"></path><path d="M3 7.5a3 3 0 1 0 6 0 3 3 0 1 0 -6 0Z" fill="none" stroke="#000000" stroke-linecap="round" stroke-linejoin="round" stroke-width="1"></path><path d="M8.625 23.25 9 19.5h2.25v-2.25a5.25 5.25 0 0 0 -10.5 0v2.25H3l0.375 3.75" fill="none" stroke="#000000" stroke-linecap="round" stroke-linejoin="round" stroke-width="1"></path></svg>