<svg viewBox="0 0 24 24" xmlns="http://www.w3.org/2000/svg" id="Cash-Search--Streamline-Ultimate"><desc>Cash Search Streamline Icon: https://streamlinehq.com</desc><path d="M7.892 11.594a2.221 2.221 0 0 0 1.858 0.875c1.139 0 2.063 -0.693 2.063 -1.547s-0.924 -1.547 -2.063 -1.547 -2.062 -0.693 -2.062 -1.548S8.611 6.28 9.75 6.28a2.224 2.224 0 0 1 1.858 0.875" fill="none" stroke="#000000" stroke-linecap="round" stroke-linejoin="round" stroke-width="1"></path><path d="m9.75 12.469 0 1.031" fill="none" stroke="#000000" stroke-linecap="round" stroke-linejoin="round" stroke-width="1"></path><path d="m9.75 5.25 0 1.03" fill="none" stroke="#000000" stroke-linecap="round" stroke-linejoin="round" stroke-width="1"></path><path d="M0.75 9.812a9.062 9.062 0 1 0 18.124 0 9.062 9.062 0 1 0 -18.124 0Z" fill="none" stroke="#000000" stroke-linecap="round" stroke-linejoin="round" stroke-width="1"></path><path d="m16.221 16.22 7.029 7.03" fill="none" stroke="#000000" stroke-linecap="round" stroke-linejoin="round" stroke-width="1"></path></svg>