<svg xmlns="http://www.w3.org/2000/svg" fill="none" viewBox="0 0 24 24" id="Cash-Toggles--Streamline-Ultimate"><desc>Cash Toggles Streamline Icon: https://streamlinehq.com</desc><path stroke="#000000" stroke-linecap="round" stroke-linejoin="round" d="M7.28097 9.363c0.12193 0.13635 0.27127 0.24542 0.43825 0.3201 0.16697 0.07468 0.34783 0.11328 0.53075 0.11328 0.18291 0 0.36377 -0.0386 0.53074 -0.11328 0.16698 -0.07468 0.31632 -0.18375 0.43826 -0.3201l0.627 -0.694c0.18063 -0.20022 0.41883 -0.33961 0.68183 -0.39904 0.2631 -0.05942 0.538 -0.03597 0.7872 0.06713 0.2492 0.10311 0.4603 0.28083 0.6045 0.50874 0.1441 0.22792 0.2141 0.49486 0.2005 0.76417l-0.048 0.935c-0.0092 0.1825 0.02 0.3648 0.0856 0.5353 0.0657 0.1705 0.1663 0.3254 0.2955 0.4545 0.1292 0.1292 0.284 0.2299 0.4545 0.2955 0.1705 0.0657 0.3529 0.0949 0.5354 0.0857l0.934 -0.048c0.2694 -0.0139 0.5365 0.056 0.7645 0.2 0.2281 0.1441 0.406 0.3552 0.5092 0.6045 0.1033 0.2492 0.1268 0.5243 0.0674 0.7874 -0.0594 0.2631 -0.1988 0.5014 -0.3991 0.6821l-0.694 0.626c-0.1357 0.1225 -0.2442 0.272 -0.3184 0.439 -0.0742 0.167 -0.1126 0.3477 -0.1126 0.5305 0 0.1828 0.0384 0.3635 0.1126 0.5305 0.0742 0.167 0.1827 0.3166 0.3184 0.439l0.694 0.627c0.2003 0.1807 0.3397 0.419 0.3991 0.6821 0.0594 0.2632 0.0359 0.5382 -0.0674 0.7875 -0.1032 0.2492 -0.2811 0.4603 -0.5092 0.6044 -0.228 0.144 -0.4951 0.2139 -0.7645 0.2l-0.934 -0.048c-0.1825 -0.0092 -0.3649 0.02 -0.5354 0.0857 -0.1705 0.0656 -0.3253 0.1663 -0.4545 0.2955 -0.1292 0.1292 -0.2298 0.284 -0.2955 0.4545 -0.0656 0.1705 -0.0948 0.3528 -0.0856 0.5353l0.048 0.934c0.0138 0.2694 -0.056 0.5365 -0.2001 0.7646 -0.144 0.2281 -0.3552 0.4059 -0.6044 0.5092 -0.2492 0.1032 -0.5243 0.1268 -0.7874 0.0673 -0.2632 -0.0594 -0.5014 -0.1988 -0.68213 -0.3991l-0.627 -0.694c-0.12194 -0.1363 -0.27128 -0.2454 -0.43826 -0.3201 -0.16697 -0.0747 -0.34783 -0.1133 -0.53074 -0.1133 -0.18292 0 -0.36378 0.0386 -0.53075 0.1133 -0.16698 0.0747 -0.31632 0.1838 -0.43825 0.3201l-0.627 0.694c-0.1807 0.2003 -0.41898 0.3397 -0.68212 0.3991 -0.26313 0.0595 -0.53821 0.0359 -0.78743 -0.0673 -0.24923 -0.1033 -0.46037 -0.2811 -0.60441 -0.5092 -0.14404 -0.2281 -0.21393 -0.4952 -0.20004 -0.7646l0.048 -0.934c0.00917 -0.1825 -0.02001 -0.3648 -0.08566 -0.5353 -0.06565 -0.1705 -0.16632 -0.3253 -0.29551 -0.4545 -0.12918 -0.1292 -0.28402 -0.2299 -0.45451 -0.2955 -0.17049 -0.0657 -0.35286 -0.0949 -0.53532 -0.0857l-0.934 0.048c-0.26941 0.0139 -0.5365 -0.056 -0.76458 -0.2 -0.22808 -0.1441 -0.405966 -0.3552 -0.509206 -0.6044 -0.10324 -0.2493 -0.126772 -0.5243 -0.067363 -0.7875 0.059408 -0.2631 0.198843 -0.5014 0.399149 -0.6821l0.694 -0.627c0.13566 -0.1224 0.24412 -0.272 0.31836 -0.439 0.07423 -0.167 0.11259 -0.3477 0.11259 -0.5305 0 -0.1828 -0.03836 -0.3635 -0.11259 -0.5305 -0.07424 -0.167 -0.1827 -0.3165 -0.31836 -0.439l-0.694 -0.626c-0.200306 -0.1807 -0.339741 -0.419 -0.399149 -0.6821 -0.059409 -0.2631 -0.035877 -0.5382 0.067363 -0.7874 0.10324 -0.2493 0.281126 -0.4604 0.509206 -0.6045 0.22808 -0.144 0.49517 -0.2139 0.76458 -0.2l0.934 0.048c0.18246 0.0092 0.36483 -0.02 0.53532 -0.0857 0.17049 -0.0656 0.32533 -0.1663 0.45451 -0.2955 0.12919 -0.1291 0.22986 -0.284 0.29551 -0.4545 0.06565 -0.1705 0.09483 -0.3528 0.08566 -0.5353l-0.048 -0.935c-0.01366 -0.26931 0.05638 -0.53625 0.20051 -0.76417 0.14413 -0.22791 0.35527 -0.40563 0.60444 -0.50874 0.24917 -0.1031 0.52415 -0.12655 0.78719 -0.06713 0.26303 0.05943 0.50122 0.19882 0.68186 0.39904l0.627 0.694Z" stroke-width="1"></path><path stroke="#000000" d="M18.6379 5.737c-0.2071 0 -0.375 -0.16789 -0.375 -0.375s0.1679 -0.375 0.375 -0.375" stroke-width="1"></path><path stroke="#000000" d="M18.6379 5.737c0.2071 0 0.375 -0.16789 0.375 -0.375s-0.1679 -0.375 -0.375 -0.375" stroke-width="1"></path><path stroke="#000000" stroke-linecap="round" stroke-linejoin="round" d="M21.194 1.835c0.1357 -0.05254 0.2836 -0.06451 0.426 -0.03445 0.1423 0.03006 0.2728 0.10085 0.3756 0.20375 0.1028 0.1029 0.1734 0.23348 0.2033 0.37582 0.0299 0.14234 0.0178 0.29031 -0.0349 0.42588l-0.5 1.286c-0.0573 0.14855 -0.0661 0.31148 -0.0249 0.46531 0.0411 0.15384 0.13 0.29064 0.2539 0.39069l1.076 0.865c0.1132 0.09117 0.1974 0.21323 0.2424 0.35136 0.0451 0.13812 0.0491 0.28636 0.0115 0.4267 -0.0376 0.14034 -0.1152 0.26674 -0.2233 0.36384 -0.1081 0.09709 -0.242 0.1607 -0.3856 0.1831l-1.364 0.211c-0.1574 0.02448 -0.3029 0.09845 -0.4154 0.21118 -0.1126 0.11273 -0.1863 0.25838 -0.2106 0.41582l-0.211 1.363c-0.0222 0.14379 -0.0858 0.278 -0.1829 0.3863 -0.0972 0.10829 -0.2238 0.18598 -0.3643 0.22361 -0.1405 0.03762 -0.289 0.03356 -0.4273 -0.0117 -0.1382 -0.04526 -0.2604 -0.12976 -0.3515 -0.24321l-0.864 -1.075c-0.0999 -0.12401 -0.2367 -0.21303 -0.3906 -0.2542 -0.1539 -0.04116 -0.3168 -0.03234 -0.4654 0.0252l-1.287 0.5c-0.1356 0.05254 -0.2836 0.06451 -0.4259 0.03445 -0.1423 -0.03006 -0.2728 -0.10085 -0.3756 -0.20375 -0.1028 -0.1029 -0.1734 -0.23347 -0.2034 -0.37582 -0.0299 -0.14234 -0.0177 -0.2903 0.0349 -0.42588l0.5 -1.286c0.0574 -0.14855 0.0662 -0.31148 0.025 -0.46531 -0.0412 -0.15384 -0.1301 -0.29063 -0.254 -0.39069l-1.076 -0.864c-0.113 -0.09131 -0.1971 -0.21346 -0.2421 -0.35162 -0.045 -0.13816 -0.0489 -0.2864 -0.0114 -0.42676 0.0376 -0.14036 0.1151 -0.26681 0.2231 -0.36401 0.108 -0.0972 0.2419 -0.16098 0.3854 -0.18361l1.364 -0.211c0.1574 -0.02413 0.303 -0.09785 0.4156 -0.21044 0.1126 -0.11259 0.1863 -0.25817 0.2104 -0.41556l0.211 -1.364c0.0223 -0.14378 0.0858 -0.278 0.183 -0.386293 0.0972 -0.108293 0.2237 -0.185986 0.3643 -0.223613 0.1405 -0.037626 0.289 -0.033562 0.4272 0.011698 0.1383 0.04526 0.2604 0.129762 0.3515 0.243208l0.865 1.075c0.0996 0.12423 0.2362 0.2135 0.3899 0.25486 0.1538 0.04136 0.3167 0.03265 0.4651 -0.02486l1.287 -0.501Z" stroke-width="1"></path><path stroke="#000000" stroke-linecap="round" stroke-linejoin="round" d="M9.44299 13.56h-1.75c-0.25145 0.016 -0.4864 0.1307 -0.65367 0.3191 -0.16727 0.1884 -0.25329 0.4353 -0.23933 0.6869 -0.00547 0.1931 0.04457 0.3838 0.14419 0.5493 0.09961 0.1656 0.24461 0.2991 0.41781 0.3847l1.77 0.619c0.17305 0.0861 0.31789 0.2198 0.41745 0.3855 0.09957 0.1656 0.14973 0.3563 0.14455 0.5495 0.01396 0.2517 -0.0722 0.4988 -0.23968 0.6872 -0.16748 0.1885 -0.40268 0.3031 -0.65432 0.3188h-2.107" stroke-width="1"></path><path stroke="#000000" stroke-linecap="round" stroke-linejoin="round" d="M8.19299 13.56v-1" stroke-width="1"></path><path stroke="#000000" stroke-linecap="round" stroke-linejoin="round" d="M8.19299 19.06v-1" stroke-width="1"></path></svg>