<svg viewBox="0 0 24 24" xmlns="http://www.w3.org/2000/svg" id="Cash-Target--Streamline-Ultimate"><desc>Cash Target Streamline Icon: https://streamlinehq.com</desc><path d="M3.75 12a8.25 8.25 0 1 0 16.5 0 8.25 8.25 0 1 0 -16.5 0Z" fill="none" stroke="#000000" stroke-linecap="round" stroke-linejoin="round" stroke-width="1"></path><path d="M10.142 14.219a2.221 2.221 0 0 0 1.858 0.875c1.139 0 2.062 -0.693 2.062 -1.547S13.139 12 12 12s-2.063 -0.693 -2.063 -1.548S10.861 8.9 12 8.9a2.224 2.224 0 0 1 1.858 0.875" fill="none" stroke="#000000" stroke-linecap="round" stroke-linejoin="round" stroke-width="1"></path><path d="m12 15.094 0 1.031" fill="none" stroke="#000000" stroke-linecap="round" stroke-linejoin="round" stroke-width="1"></path><path d="m12 7.875 0 1.03" fill="none" stroke="#000000" stroke-linecap="round" stroke-linejoin="round" stroke-width="1"></path><path d="m12 1.5 0 3.75" fill="none" stroke="#000000" stroke-linecap="round" stroke-linejoin="round" stroke-width="1"></path><path d="m12 18.75 0 3.75" fill="none" stroke="#000000" stroke-linecap="round" stroke-linejoin="round" stroke-width="1"></path><path d="m22.5 12 -3.75 0" fill="none" stroke="#000000" stroke-linecap="round" stroke-linejoin="round" stroke-width="1"></path><path d="M5.25 12 1.5 12" fill="none" stroke="#000000" stroke-linecap="round" stroke-linejoin="round" stroke-width="1"></path></svg>