<svg xmlns="http://www.w3.org/2000/svg" viewBox="0 0 24 24" id="Cash-Eye--Streamline-Ultimate"><desc>Cash Eye Streamline Icon: https://streamlinehq.com</desc><g><path d="M12 4.5a8.66 8.66 0 0 0 -2.25 0.27c-3.28 0.82 -6.44 3.38 -8.57 6a2 2 0 0 0 0 2.47c2.09 2.57 5.25 5.17 8.57 6a8.66 8.66 0 0 0 2.25 0.26 8.66 8.66 0 0 0 2.25 -0.27c3.32 -0.83 6.48 -3.43 8.57 -6a2 2 0 0 0 0 -2.47c-2.13 -2.61 -5.29 -5.17 -8.57 -6A8.66 8.66 0 0 0 12 4.5Z" fill="none" stroke="#000000" stroke-linecap="round" stroke-linejoin="round" stroke-width="1"></path><g><path d="M10.14 14.21a2.22 2.22 0 0 0 1.86 0.88c1.14 0 2.06 -0.7 2.06 -1.55S13.14 12 12 12s-2.06 -0.69 -2.06 -1.54S10.86 8.9 12 8.9a2.24 2.24 0 0 1 1.86 0.87" fill="none" stroke="#000000" stroke-linecap="round" stroke-linejoin="round" stroke-width="1"></path><path d="m12 15.09 0 1.28" fill="none" stroke="#000000" stroke-linecap="round" stroke-linejoin="round" stroke-width="1"></path><path d="m12 7.62 0 1.28" fill="none" stroke="#000000" stroke-linecap="round" stroke-linejoin="round" stroke-width="1"></path></g></g></svg>