<svg xmlns="http://www.w3.org/2000/svg" viewBox="0 0 24 24" id="Cash-Briefcase--Streamline-Ultimate"><desc>Cash Briefcase Streamline Icon: https://streamlinehq.com</desc><defs></defs><title>cash-briefcase</title><path d="M9.75 15.937c0 0.932 1.007 1.688 2.25 1.688s2.25 -0.756 2.25 -1.688S13.243 14.25 12 14.25s-2.25 -0.756 -2.25 -1.688 1.007 -1.687 2.25 -1.687 2.25 0.755 2.25 1.687" fill="none" stroke="#000000" stroke-linecap="round" stroke-linejoin="round" stroke-width="1"></path><path d="m12 9.75 0 1.125" fill="none" stroke="#000000" stroke-linecap="round" stroke-linejoin="round" stroke-width="1"></path><path d="m12 17.625 0 1.125" fill="none" stroke="#000000" stroke-linecap="round" stroke-linejoin="round" stroke-width="1"></path><path d="M3 6.75h18s1.5 0 1.5 1.5v12s0 1.5 -1.5 1.5H3s-1.5 0 -1.5 -1.5v-12s0 -1.5 1.5 -1.5" fill="none" stroke="#000000" stroke-linecap="round" stroke-linejoin="round" stroke-width="1"></path><path d="M15.342 3.275a1.5 1.5 0 0 0 -1.423 -1.025h-3.838a1.5 1.5 0 0 0 -1.423 1.025L7.5 6.75h9Z" fill="none" stroke="#000000" stroke-linecap="round" stroke-linejoin="round" stroke-width="1"></path></svg>