<svg xmlns="http://www.w3.org/2000/svg" fill="none" viewBox="0 0 24 24" id="Cash-User-1--Streamline-Ultimate"><desc>Cash User 1 Streamline Icon: https://streamlinehq.com</desc><path stroke="#000000" stroke-linecap="round" stroke-linejoin="round" d="M18.75 6.75c1.6569 0 3 -1.34315 3 -3s-1.3431 -3 -3 -3 -3 1.34315 -3 3 1.3431 3 3 3Z" stroke-width="1"></path><path stroke="#000000" stroke-linecap="round" stroke-linejoin="round" d="m21 23.25 0.75 -7.5h1.5v-3c0 -1.1935 -0.4741 -2.3381 -1.318 -3.18198C21.0881 8.72411 19.9435 8.25 18.75 8.25s-2.3381 0.47411 -3.182 1.31802c-0.8439 0.84388 -1.318 1.98848 -1.318 3.18198v3h1.5l0.75 7.5H21Z" stroke-width="1"></path><path stroke="#000000" stroke-linecap="round" stroke-linejoin="round" d="M18.75 8.25v4.5" stroke-width="1"></path><path stroke="#000000" d="M3.875 4.25c-0.20711 0 -0.375 -0.16789 -0.375 -0.375s0.16789 -0.375 0.375 -0.375" stroke-width="1"></path><path stroke="#000000" d="M3.875 4.25c0.20711 0 0.375 -0.16789 0.375 -0.375S4.08211 3.5 3.875 3.5" stroke-width="1"></path><path stroke="#000000" stroke-linecap="round" stroke-linejoin="round" d="M11.25 12.25H2.13004c-0.36957 -0.0053 -0.72205 -0.1565 -0.98058 -0.4206 -0.258519 -0.2642 -0.402101 -0.6198 -0.399423 -0.9894V2.16c-0.002678 -0.36959 0.140904 -0.72525 0.399423 -0.98939 0.25853 -0.264143 0.61101 -0.41534 0.98058 -0.42061H11.25" stroke-width="1"></path><path stroke="#000000" stroke-linecap="round" stroke-linejoin="round" d="M9.75 8.75C10.9926 8.75 12 7.74264 12 6.5s-1.0074 -2.25 -2.25 -2.25C8.50736 4.25 7.5 5.25736 7.5 6.5s1.00736 2.25 2.25 2.25Z" stroke-width="1"></path></svg>