<svg viewBox="0 0 24 24" xmlns="http://www.w3.org/2000/svg" id="Global-Business-Man-User--Streamline-Ultimate"><desc>Global Business Man User Streamline Icon: https://streamlinehq.com</desc><path d="M11.25 22.5a10.5 10.5 0 0 1 0 -21" fill="none" stroke="#000000" stroke-linecap="round" stroke-linejoin="round" stroke-width="1"></path><path d="M11.25 1.5S6 4.5 6 12s5.25 10.5 5.25 10.5" fill="none" stroke="#000000" stroke-linecap="round" stroke-linejoin="round" stroke-width="1"></path><path d="m11.25 7.5 -9.489 0" fill="none" stroke="#000000" stroke-linecap="round" stroke-linejoin="round" stroke-width="1"></path><path d="m11.25 16.5 -9.489 0" fill="none" stroke="#000000" stroke-linecap="round" stroke-linejoin="round" stroke-width="1"></path><path d="M15.75 4.5a3 3 0 1 0 6 0 3 3 0 1 0 -6 0Z" fill="none" stroke="#000000" stroke-linecap="round" stroke-linejoin="round" stroke-width="1"></path><path d="M21.36 9.846 18.75 13.5l-2.61 -3.654a4.486 4.486 0 0 0 -1.89 3.654v3a1.5 1.5 0 0 0 1.5 1.5h0.75v3a1.5 1.5 0 0 0 1.5 1.5h1.5A1.5 1.5 0 0 0 21 21v-3h0.75a1.5 1.5 0 0 0 1.5 -1.5v-3a4.486 4.486 0 0 0 -1.89 -3.654Z" fill="none" stroke="#000000" stroke-linecap="round" stroke-linejoin="round" stroke-width="1"></path></svg>