<svg xmlns="http://www.w3.org/2000/svg" viewBox="0 0 24 24" id="Inbound-Marketing-Magnet-Consumer--Streamline-Ultimate"><desc>Inbound Marketing Magnet Consumer Streamline Icon: https://streamlinehq.com</desc><defs></defs><path d="M14.743 9.446v6.8a2.743 2.743 0 1 1 -5.485 0v-6.8h-3.84v7.022a6.583 6.583 0 0 0 13.165 0V9.446Z" fill="none" stroke="#000000" stroke-linecap="round" stroke-linejoin="round" stroke-width="1"></path><path d="m18.583 12.682 -3.84 0" fill="none" stroke="#000000" stroke-linecap="round" stroke-linejoin="round" stroke-width="1"></path><path d="m9.258 12.682 -3.84 0" fill="none" stroke="#000000" stroke-linecap="round" stroke-linejoin="round" stroke-width="1"></path><path d="M4.663 2.492a1.542 1.542 0 1 0 3.084 0 1.542 1.542 0 1 0 -3.084 0" fill="none" stroke="#000000" stroke-linecap="round" stroke-linejoin="round" stroke-width="1"></path><path d="M7.407 5.087A2.7 2.7 0 0 0 3.533 7.12" fill="none" stroke="#000000" stroke-linecap="round" stroke-linejoin="round" stroke-width="1"></path><path d="M10.458 2.492a1.542 1.542 0 1 0 3.084 0 1.542 1.542 0 1 0 -3.084 0" fill="none" stroke="#000000" stroke-linecap="round" stroke-linejoin="round" stroke-width="1"></path><path d="M14.672 7.12a2.7 2.7 0 0 0 -5.344 0" fill="none" stroke="#000000" stroke-linecap="round" stroke-linejoin="round" stroke-width="1"></path><path d="M16.254 2.492a1.542 1.542 0 1 0 3.084 0 1.542 1.542 0 1 0 -3.084 0" fill="none" stroke="#000000" stroke-linecap="round" stroke-linejoin="round" stroke-width="1"></path><path d="M20.467 7.12a2.7 2.7 0 0 0 -4.215 -1.83" fill="none" stroke="#000000" stroke-linecap="round" stroke-linejoin="round" stroke-width="1"></path></svg>