<svg viewBox="0 0 24 24" xmlns="http://www.w3.org/2000/svg" id="Profile-User-Cash-Message--Streamline-Ultimate"><desc>Profile User Cash Message Streamline Icon: https://streamlinehq.com</desc><path d="M23.25 0.9c-5.877 1.017 -7.2 6.971 -9.749 13.348h3v3a3 3 0 0 0 3 3H21v3" fill="none" stroke="#000000" stroke-linecap="round" stroke-linejoin="round" stroke-width="1"></path><path d="M10.125 5.251H7.5A1.342 1.342 0 0 0 7 7.839l2.655 0.825a1.342 1.342 0 0 1 -0.5 2.587H6" fill="none" stroke="#000000" stroke-linecap="round" stroke-linejoin="round" stroke-width="1"></path><path d="m8.25 5.251 0 -1.5" fill="none" stroke="#000000" stroke-linecap="round" stroke-linejoin="round" stroke-width="1"></path><path d="m8.25 12.751 0 -1.5" fill="none" stroke="#000000" stroke-linecap="round" stroke-linejoin="round" stroke-width="1"></path><path d="M11.251 15.75h-1.5v4.5l-4.5 -4.5h-3a1.5 1.5 0 0 1 -1.5 -1.5v-12a1.5 1.5 0 0 1 1.5 -1.5h12a1.5 1.5 0 0 1 1.5 1.5" fill="none" stroke="#000000" stroke-linecap="round" stroke-linejoin="round" stroke-width="1"></path></svg>