<svg viewBox="0 0 24 24" xmlns="http://www.w3.org/2000/svg" id="Diving-Gun--Streamline-Ultimate"><desc>Diving Gun Streamline Icon: https://streamlinehq.com</desc><path d="m1.0434811153 17.6746852327 1.2133952365 -1.2133952365a1 1 0 0 1 1.4142135624 0l2.969848481 2.969848481 0 0 -1.9205020177 1.9205020177a1 1 0 0 1 -1.4142135624 0l-2.2627416998 -2.2627416998a1 1 0 0 1 0 -1.4142135624Z" fill="none" stroke="#000000" stroke-linecap="round" stroke-linejoin="round" stroke-width="1"></path><path d="m11.169 14.905 -4.527 4.527 -2.628 -2.627L12.422 8.4h0a5.911 5.911 0 0 1 -1.253 6.505Z" fill="none" stroke="#000000" stroke-linecap="round" stroke-linejoin="round" stroke-width="1"></path><path d="M12.889 10.367 23.246 0.75l-3.716 0" fill="none" stroke="#000000" stroke-linecap="round" stroke-linejoin="round" stroke-width="1"></path><path d="M22.2 1.8 22 5.158c-0.188 3.187 -3.557 5.5 -6.741 5.713l-2.364 0.153" fill="none" stroke="#000000" stroke-linecap="round" stroke-linejoin="round" stroke-width="1"></path><path d="M9.4 20.609a1.486 1.486 0 0 1 -0.315 1.637l-0.363 0.363a1.487 1.487 0 0 1 -2.422 -0.465l-0.711 -1.661 2.627 -2.627Z" fill="none" stroke="#000000" stroke-linecap="round" stroke-linejoin="round" stroke-width="1"></path><path d="m10.106 15.968 1.25 1.875" fill="none" stroke="#000000" stroke-linecap="round" stroke-linejoin="round" stroke-width="1"></path></svg>