<svg xmlns="http://www.w3.org/2000/svg" fill="none" viewBox="0 0 24 24" id="Diving-Block-Weight-1--Streamline-Ultimate"><desc>Diving Block Weight 1 Streamline Icon: https://streamlinehq.com</desc><path stroke="#000000" stroke-linecap="round" stroke-linejoin="round" d="M1 5.47214c0 -1.51509 0.87873 -2.86426 2.35811 -3.19126C5.09994 1.89587 7.89018 1.5 12 1.5c4.1098 0 6.9001 0.39587 8.6419 0.78088C22.1213 2.60788 23 3.95705 23 5.47214V18.5279c0 1.5151 -0.8787 2.8642 -2.3581 3.1912 -1.7418 0.385 -4.5321 0.7809 -8.6419 0.7809 -4.10982 0 -6.90006 -0.3959 -8.64189 -0.7809C1.87873 21.3921 1 20.043 1 18.5279V5.47214Z" stroke-width="1"></path><path stroke="#000000" stroke-linecap="round" stroke-linejoin="round" d="M6 15.5514V8.44863C6 7.64857 6.64857 7 7.44863 7c0.80005 0 1.44863 0.64857 1.44863 1.44863v7.10277c0 0.8 -0.64858 1.4486 -1.44863 1.4486C6.64857 17 6 16.3514 6 15.5514Z" stroke-width="1"></path><path stroke="#000000" stroke-linecap="round" stroke-linejoin="round" d="M15.1027 15.5514V8.44863C15.1027 7.64857 15.7513 7 16.5514 7 17.3514 7 18 7.64857 18 8.44863v7.10277c0 0.8 -0.6486 1.4486 -1.4486 1.4486 -0.8001 0 -1.4487 -0.6486 -1.4487 -1.4486Z" stroke-width="1"></path></svg>