<svg viewBox="0 0 24 24" xmlns="http://www.w3.org/2000/svg" id="Diving-Oxygen--Streamline-Ultimate"><desc>Diving Oxygen Streamline Icon: https://streamlinehq.com</desc><path d="M3.75 6.75h-1.5a1.5 1.5 0 0 1 -1.5 -1.5v-1.5a3 3 0 0 1 3 -3h3v3a3 3 0 0 1 -3 3Z" fill="none" stroke="#000000" stroke-linecap="round" stroke-linejoin="round" stroke-width="1"></path><path d="M11.25 6.75h-1.5a3 3 0 0 1 -3 -3v-3h3a3 3 0 0 1 3 3v1.5a1.5 1.5 0 0 1 -1.5 1.5Z" fill="none" stroke="#000000" stroke-linecap="round" stroke-linejoin="round" stroke-width="1"></path><path d="M4.5 10.5a2.25 2.25 0 1 0 4.5 0 2.25 2.25 0 1 0 -4.5 0Z" fill="none" stroke="#000000" stroke-linecap="round" stroke-linejoin="round" stroke-width="1"></path><path d="M15.75 12.75h7.5v7.5h-7.5z" fill="none" stroke="#000000" stroke-linecap="round" stroke-linejoin="round" stroke-width="1"></path><path d="M6.75 12.75v7.5a3 3 0 0 0 3 3h3" fill="none" stroke="#000000" stroke-linecap="round" stroke-linejoin="round" stroke-width="1"></path><path d="M17.25 7.5v-3a0.75 0.75 0 0 1 0.75 -0.75h3a0.75 0.75 0 0 1 0.75 0.75v3" fill="none" stroke="#000000" stroke-linecap="round" stroke-linejoin="round" stroke-width="1"></path><path d="M15.75 10.5a3.75 3.75 0 0 1 7.5 0v11.25a1.5 1.5 0 0 1 -1.5 1.5h-4.5a1.5 1.5 0 0 1 -1.5 -1.5Z" fill="none" stroke="#000000" stroke-linecap="round" stroke-linejoin="round" stroke-width="1"></path></svg>