<svg viewBox="0 0 24 24" xmlns="http://www.w3.org/2000/svg" id="Diving-Mask-Fish--Streamline-Ultimate"><desc>Diving Mask Fish Streamline Icon: https://streamlinehq.com</desc><path d="M3.75 6.75h-1.5a1.5 1.5 0 0 1 -1.5 -1.5v-1.5a3 3 0 0 1 3 -3h3v3a3 3 0 0 1 -3 3Z" fill="none" stroke="#000000" stroke-linecap="round" stroke-linejoin="round" stroke-width="1"></path><path d="M11.25 6.75h-1.5a3 3 0 0 1 -3 -3v-3h3a3 3 0 0 1 3 3v1.5a1.5 1.5 0 0 1 -1.5 1.5Z" fill="none" stroke="#000000" stroke-linecap="round" stroke-linejoin="round" stroke-width="1"></path><path d="M4.5 12A2.25 2.25 0 1 0 9 12a2.25 2.25 0 1 0 -4.5 0Z" fill="none" stroke="#000000" stroke-linecap="round" stroke-linejoin="round" stroke-width="1"></path><path d="M9 12h3.75a3 3 0 0 0 3 -3V6" fill="none" stroke="#000000" stroke-linecap="round" stroke-linejoin="round" stroke-width="1"></path><path d="m15.75 0.75 0 2.25" fill="none" stroke="#000000" stroke-linecap="round" stroke-linejoin="round" stroke-width="1"></path><path d="M23.25 23.25s-6.652 -6.582 -9.4 -6.582a6.638 6.638 0 0 0 -5.6 2.821 6.638 6.638 0 0 0 5.6 2.821c2.751 0 9.4 -6.583 9.4 -6.583Z" fill="none" stroke="#000000" stroke-linecap="round" stroke-linejoin="round" stroke-width="1"></path><path d="M4.5 12 3 12" fill="none" stroke="#000000" stroke-linecap="round" stroke-linejoin="round" stroke-width="1"></path></svg>