<svg xmlns="http://www.w3.org/2000/svg" fill="none" viewBox="0 0 24 24" id="Diving-Weight-Belt-3--Streamline-Ultimate"><desc>Diving Weight Belt 3 Streamline Icon: https://streamlinehq.com</desc><path stroke="#000000" stroke-linecap="round" stroke-linejoin="round" d="M1 5c0.56758 0.4865 1.76631 1.20968 3.53862 1.8241" stroke-width="1"></path><path stroke="#000000" stroke-linecap="round" stroke-linejoin="round" d="M23 5c-0.5676 0.4865 -1.7663 1.20968 -3.5386 1.8241" stroke-width="1"></path><path stroke="#000000" stroke-linecap="round" stroke-linejoin="round" d="M9.18066 7.84698c0.87794 0.09738 1.81854 0.15303 2.81934 0.15303 1.0009 0 1.9414 -0.05565 2.8194 -0.15303" stroke-width="1"></path><path stroke="#000000" stroke-linecap="round" stroke-linejoin="round" d="M1 12c0.3825 0.3279 1.05165 0.7632 1.98982 1.2003" stroke-width="1"></path><path stroke="#000000" stroke-linecap="round" stroke-linejoin="round" d="M14.0108 14.9231C13.3706 14.9728 12.7 15 12 15c-0.7001 0 -1.3706 -0.0272 -2.01086 -0.0769" stroke-width="1"></path><path stroke="#000000" stroke-linecap="round" stroke-linejoin="round" d="M23 12c-0.3825 0.3279 -1.0516 0.7632 -1.9898 1.2003" stroke-width="1"></path><path stroke="#000000" stroke-linecap="round" stroke-linejoin="round" d="M3 11.6136S3 6 6.5 6s3.5 5.6136 3.5 5.6136v5.6137S9.41667 19 6.5 19 3 17.2273 3 17.2273v-5.6137Z" stroke-width="1"></path><path stroke="#000000" stroke-linecap="round" stroke-linejoin="round" d="M14 11.6136S14 6 17.5 6s3.5 5.6136 3.5 5.6136v5.6137S20.4167 19 17.5 19 14 17.2273 14 17.2273v-5.6137Z" stroke-width="1"></path><path stroke="#000000" stroke-linecap="round" stroke-linejoin="round" d="M3 12c0.38889 0.3333 1.63333 1 3.5 1s3.11111 -0.6667 3.5 -1" stroke-width="1"></path><path stroke="#000000" stroke-linecap="round" stroke-linejoin="round" d="M14 12c0.3889 0.3333 1.6333 1 3.5 1s3.1111 -0.6667 3.5 -1" stroke-width="1"></path></svg>