<svg viewBox="0 0 24 24" xmlns="http://www.w3.org/2000/svg" id="Table-Restaurant-Beach-1--Streamline-Ultimate"><desc>Table Restaurant Beach 1 Streamline Icon: https://streamlinehq.com</desc><path d="M1.5 11.25 3 18" fill="none" stroke="#000000" stroke-linecap="round" stroke-linejoin="round" stroke-width="1"></path><path d="M1.5 23.25 3 18h3a1.5 1.5 0 0 1 1.5 1.5v3.75" fill="none" stroke="#000000" stroke-linecap="round" stroke-linejoin="round" stroke-width="1"></path><path d="M22.5 11.25 21 18" fill="none" stroke="#000000" stroke-linecap="round" stroke-linejoin="round" stroke-width="1"></path><path d="M22.5 23.25 21 18h-3a1.5 1.5 0 0 0 -1.5 1.5v3.75" fill="none" stroke="#000000" stroke-linecap="round" stroke-linejoin="round" stroke-width="1"></path><path d="m12 6.75 0 16.5" fill="none" stroke="#000000" stroke-linecap="round" stroke-linejoin="round" stroke-width="1"></path><path d="m6.75 13.5 10.5 0" fill="none" stroke="#000000" stroke-linecap="round" stroke-linejoin="round" stroke-width="1"></path><path d="M1.5 6.75a0.75 0.75 0 0 1 -0.344 -1.416L11.265 0.943a1.5 1.5 0 0 1 1.47 0l10.109 4.391A0.75 0.75 0 0 1 22.5 6.75Z" fill="none" stroke="#000000" stroke-linecap="round" stroke-linejoin="round" stroke-width="1"></path></svg>