<svg xmlns="http://www.w3.org/2000/svg" viewBox="0 0 24 24" id="Table-Candelabra--Streamline-Ultimate"><desc>Table Candelabra Streamline Icon: https://streamlinehq.com</desc><g><path d="m20.25 14.82 -16.5 0 -2.25 -4.25 21 0 -2.25 4.25z" fill="none" stroke="#000000" stroke-linecap="round" stroke-linejoin="round" stroke-width="1"></path><path d="m0.75 10.57 22.5 0" fill="none" stroke="#000000" stroke-linecap="round" stroke-linejoin="round" stroke-width="1"></path><path d="m3.75 14.82 -1.87 7.43a0.75 0.75 0 0 0 1.38 0.55l5 -8" fill="none" stroke="#000000" stroke-linecap="round" stroke-linejoin="round" stroke-width="1"></path><path d="m20.25 14.82 1.87 7.43a0.75 0.75 0 0 1 -1.38 0.55l-5 -8" fill="none" stroke="#000000" stroke-linecap="round" stroke-linejoin="round" stroke-width="1"></path><path d="m17.25 4.57 0 6" fill="none" stroke="#000000" stroke-linecap="round" stroke-linejoin="round" stroke-width="1"></path><path d="M20.25 4.57a3 3 0 0 1 -6 0" fill="none" stroke="#000000" stroke-linecap="round" stroke-linejoin="round" stroke-width="1"></path><path d="m14.25 0.82 0 1.5" fill="none" stroke="#000000" stroke-linecap="round" stroke-linejoin="round" stroke-width="1"></path><path d="m17.25 0.82 0 1.5" fill="none" stroke="#000000" stroke-linecap="round" stroke-linejoin="round" stroke-width="1"></path><path d="m20.25 0.82 0 1.5" fill="none" stroke="#000000" stroke-linecap="round" stroke-linejoin="round" stroke-width="1"></path><path d="m4 10.57 -2.5 -4 10.75 0 -2.5 4 -5.75 0z" fill="none" stroke="#000000" stroke-linecap="round" stroke-linejoin="round" stroke-width="1"></path></g></svg>