<svg xmlns="http://www.w3.org/2000/svg" fill="none" viewBox="0 0 24 24" id="Phone-Project-Screen--Streamline-Ultimate"><desc>Phone Project Screen Streamline Icon: https://streamlinehq.com</desc><path stroke="#000000" stroke-linecap="round" stroke-linejoin="round" d="M11.6763 20.8267c0 1.1443 -0.8751 2.0193 -2.01934 2.0193H3.26247c-1.14427 0 -2.01931 -0.875 -2.01931 -2.0193V9.72048c0 -1.14427 0.87504 -2.01931 2.01931 -2.01931h6.39449c1.14424 0 2.01934 0.87504 2.01934 2.01931V20.8267Z" stroke-width="1"></path><path stroke="#000000" stroke-linecap="round" stroke-linejoin="round" d="M1.24316 19.8164H11.6763" stroke-width="1"></path><path stroke="#000000" stroke-linecap="round" stroke-linejoin="round" d="m4.71777 4.30384 0 -1.15245c0 -1.10457 0.89543 -2 2 -2l14.03853 0c1.1046 0 2 0.89543 2 2l0 9.76461c0 1.1046 -0.8954 2 -2 2l-5.2265 0" stroke-width="1"></path></svg>