<svg xmlns="http://www.w3.org/2000/svg" fill="none" viewBox="0 0 24 24" id="Filter-Off-1--Streamline-Ultimate"><desc>Filter Off 1 Streamline Icon: https://streamlinehq.com</desc><path stroke="#000000" stroke-linecap="round" stroke-linejoin="round" d="M2.81328 2.8098c-0.01531 -0.16984 0.01697 -0.34058 0.09323 -0.49309 0.07626 -0.15252 0.19348 -0.28079 0.33853 -0.37044 0.14505 -0.08964 0.3122 -0.13713 0.48272 -0.13713H20.2727c0.1705 0 0.3377 0.04749 0.4827 0.13713 0.1451 0.08965 0.2623 0.21792 0.3385 0.37044 0.0763 0.15251 0.1086 0.32325 0.0933 0.49309 -0.0153 0.16983 -0.0776 0.33204 -0.18 0.46845l-7.172 9.63185v0.739m-3.6727 -0.1956v7.8192c0 0.1705 0.0474 0.3376 0.1371 0.4827 0.0896 0.145 0.2179 0.2623 0.3704 0.3385 0.1525 0.0763 0.3233 0.1086 0.4931 0.0932 0.1698 -0.0153 0.3321 -0.0776 0.4685 -0.1799l1.8364 -1.3773c0.114 -0.0855 0.2065 -0.1964 0.2703 -0.3239 0.0637 -0.1275 0.0969 -0.2681 0.0969 -0.4106v-3.1231" stroke-width="1"></path><path stroke="#000000" stroke-linecap="round" stroke-linejoin="round" d="m0.75 0.75 22.5 22.5" stroke-width="1"></path></svg>