<svg xmlns="http://www.w3.org/2000/svg" viewBox="0 0 24 24" id="Construction-Drill--Streamline-Ultimate"><desc>Construction Drill Streamline Icon: https://streamlinehq.com</desc><g><path d="M10.5 0.75h3a3 3 0 0 1 3 3v8a1 1 0 0 1 -1 1h-7a1 1 0 0 1 -1 -1v-8a3 3 0 0 1 3 -3Z" fill="none" stroke="#000000" stroke-linecap="round" stroke-linejoin="round" stroke-width="1"></path><path d="m12 18.75 0 4.5" fill="none" stroke="#000000" stroke-linecap="round" stroke-linejoin="round" stroke-width="1"></path><path d="M14.25 17.25a1.5 1.5 0 0 1 -1.5 1.5h-1.5a1.5 1.5 0 0 1 -1.5 -1.5L9 12.75h6Z" fill="none" stroke="#000000" stroke-linecap="round" stroke-linejoin="round" stroke-width="1"></path><path d="m10.5 5.25 3 0" fill="none" stroke="#000000" stroke-linecap="round" stroke-linejoin="round" stroke-width="1"></path><path d="m10.5 8.25 3 0" fill="none" stroke="#000000" stroke-linecap="round" stroke-linejoin="round" stroke-width="1"></path><path d="m3 3.75 4.5 0" fill="none" stroke="#000000" stroke-linecap="round" stroke-linejoin="round" stroke-width="1"></path><path d="m16.5 3.75 4.5 0" fill="none" stroke="#000000" stroke-linecap="round" stroke-linejoin="round" stroke-width="1"></path><path d="m1.5 20.25 0.77 2.45a1 1 0 0 0 1.73 0.1l1 -2.1a1 1 0 0 1 1.73 0.1l0.77 2.45" fill="none" stroke="#000000" stroke-linecap="round" stroke-linejoin="round" stroke-width="1"></path><path d="m22.5 20.25 -0.77 2.45a1 1 0 0 1 -1.73 0.1l-1 -2.1a1 1 0 0 0 -1.73 0.1l-0.77 2.45" fill="none" stroke="#000000" stroke-linecap="round" stroke-linejoin="round" stroke-width="1"></path></g></svg>