<svg xmlns="http://www.w3.org/2000/svg" viewBox="0 0 24 24" id="Construction-Paint--Streamline-Ultimate"><desc>Construction Paint Streamline Icon: https://streamlinehq.com</desc><defs></defs><title>construction-paint</title><path d="M9.75 15.656V13.5a1.506 1.506 0 0 0 -1.5 -1.5H3.375a2.625 2.625 0 0 1 0 -5.25h0.375" fill="none" stroke="#000000" stroke-linecap="round" stroke-linejoin="round" stroke-width="1"></path><path d="M9.75 23.25a1.5 1.5 0 0 1 -1.5 -1.5v-4.5a1.5 1.5 0 0 1 3 0v4.5a1.5 1.5 0 0 1 -1.5 1.5Z" fill="none" stroke="#000000" stroke-linecap="round" stroke-linejoin="round" stroke-width="1"></path><path d="M4.75 4.5h10s1 0 1 1V8s0 1 -1 1h-10s-1 0 -1 -1V5.5s0 -1 1 -1" fill="none" stroke="#000000" stroke-linecap="round" stroke-linejoin="round" stroke-width="1"></path><path d="M0.75 0.75h21a1.5 1.5 0 0 1 1.5 1.5v19.5a1.5 1.5 0 0 1 -1.5 1.5h-7.5" fill="none" stroke="#000000" stroke-linecap="round" stroke-linejoin="round" stroke-width="1"></path><path d="m5.25 23.25 -3.75 0" fill="none" stroke="#000000" stroke-linecap="round" stroke-linejoin="round" stroke-width="1"></path><path d="M18.75 0.75v15a3 3 0 0 1 -3 3h-1.5" fill="none" stroke="#000000" stroke-linecap="round" stroke-linejoin="round" stroke-width="1"></path><path d="M5.25 18.75A2.25 2.25 0 0 1 3 16.5V15" fill="none" stroke="#000000" stroke-linecap="round" stroke-linejoin="round" stroke-width="1"></path></svg>