<svg viewBox="0 0 24 24" xmlns="http://www.w3.org/2000/svg" id="Construction-Pipe--Streamline-Ultimate"><desc>Construction Pipe Streamline Icon: https://streamlinehq.com</desc><path d="m21 19.5 0 3.75" fill="none" stroke="#000000" stroke-linecap="round" stroke-linejoin="round" stroke-width="1"></path><path d="M9 6.75h-0.75a2.25 2.25 0 0 0 0 4.5h5.25a7.513 7.513 0 0 1 7.155 5.25" fill="none" stroke="#000000" stroke-linecap="round" stroke-linejoin="round" stroke-width="1"></path><path d="m20.25 6.75 -8.25 0" fill="none" stroke="#000000" stroke-linecap="round" stroke-linejoin="round" stroke-width="1"></path><path d="m12 2.25 8.25 0" fill="none" stroke="#000000" stroke-linecap="round" stroke-linejoin="round" stroke-width="1"></path><path d="M15.482 16.5a2.985 2.985 0 0 0 -1.982 -0.75H8.25a6.75 6.75 0 0 1 0 -13.5H9" fill="none" stroke="#000000" stroke-linecap="round" stroke-linejoin="round" stroke-width="1"></path><path d="m16.5 23.25 0 -3.75" fill="none" stroke="#000000" stroke-linecap="round" stroke-linejoin="round" stroke-width="1"></path><path d="m20.25 0.75 0 7.5" fill="none" stroke="#000000" stroke-linecap="round" stroke-linejoin="round" stroke-width="1"></path><path d="m9 0.75 0 7.5" fill="none" stroke="#000000" stroke-linecap="round" stroke-linejoin="round" stroke-width="1"></path><path d="m15 19.5 7.5 0" fill="none" stroke="#000000" stroke-linecap="round" stroke-linejoin="round" stroke-width="1"></path></svg>