<svg viewBox="0 0 24 24" xmlns="http://www.w3.org/2000/svg" id="Construction-Shovel--Streamline-Ultimate"><desc>Construction Shovel Streamline Icon: https://streamlinehq.com</desc><path d="M9.633 18.876a11.173 11.173 0 0 0 -1.884 -1.525 4.4 4.4 0 0 0 -6.473 2.172A11.044 11.044 0 0 0 0.75 23.25h22.5c0 -3.75 -0.764 -7.569 -4.384 -8.784a6.007 6.007 0 0 0 -5.117 0.617 20.238 20.238 0 0 0 -5.6 5.776" fill="none" stroke="#000000" stroke-linecap="round" stroke-linejoin="round" stroke-width="1"></path><path d="M0.75 5.262 5.262 0.75" fill="none" stroke="#000000" stroke-linecap="round" stroke-linejoin="round" stroke-width="1"></path><path d="m3.006 3.006 6.769 6.769" fill="none" stroke="#000000" stroke-linecap="round" stroke-linejoin="round" stroke-width="1"></path><path d="m10.073 14.585 -1.426 -1.426a1.6 1.6 0 0 1 0 -2.256L10.9 8.647a1.6 1.6 0 0 1 2.256 0l1.426 1.426a1.6 1.6 0 0 1 0.386 0.623l0.468 1.406" fill="none" stroke="#000000" stroke-linecap="round" stroke-linejoin="round" stroke-width="1"></path></svg>