<svg xmlns="http://www.w3.org/2000/svg" viewBox="0 0 24 24" id="Construction-House-1--Streamline-Ultimate"><desc>Construction House 1 Streamline Icon: https://streamlinehq.com</desc><defs></defs><title>construction-house-1</title><path d="m23.25 9.75 -22.5 0 6.75 -9 6.75 9" fill="none" stroke="#000000" stroke-linecap="round" stroke-linejoin="round" stroke-width="1"></path><path d="m13.5 0.75 6.75 9" fill="none" stroke="#000000" stroke-linecap="round" stroke-linejoin="round" stroke-width="1"></path><path d="M16.5 17.25h5.25a1.5 1.5 0 0 1 1.5 1.5v3a1.5 1.5 0 0 1 -1.5 1.5H6" fill="none" stroke="#000000" stroke-linecap="round" stroke-linejoin="round" stroke-width="1"></path><path d="m14.25 9.75 0 4.5" fill="none" stroke="#000000" stroke-linecap="round" stroke-linejoin="round" stroke-width="1"></path><path d="m0.75 9.75 0 1.5" fill="none" stroke="#000000" stroke-linecap="round" stroke-linejoin="round" stroke-width="1"></path><path d="m7.5 0.75 11.25 0" fill="none" stroke="#000000" stroke-linecap="round" stroke-linejoin="round" stroke-width="1"></path><path d="M10.875 5.25 21 5.25" fill="none" stroke="#000000" stroke-linecap="round" stroke-linejoin="round" stroke-width="1"></path><path d="m20.25 9.75 0 7.5" fill="none" stroke="#000000" stroke-linecap="round" stroke-linejoin="round" stroke-width="1"></path><path d="M1.25 20.25H11.5s0.5 0 0.5 0.5v2s0 0.5 -0.5 0.5H1.25s-0.5 0 -0.5 -0.5v-2s0 -0.5 0.5 -0.5" fill="none" stroke="#000000" stroke-linecap="round" stroke-linejoin="round" stroke-width="1"></path><path d="M3.5 17.25h10.25s0.5 0 0.5 0.5v2s0 0.5 -0.5 0.5H3.5s-0.5 0 -0.5 -0.5v-2s0 -0.5 0.5 -0.5" fill="none" stroke="#000000" stroke-linecap="round" stroke-linejoin="round" stroke-width="1"></path><path d="M1.25 14.25H11.5s0.5 0 0.5 0.5v2s0 0.5 -0.5 0.5H1.25s-0.5 0 -0.5 -0.5v-2s0 -0.5 0.5 -0.5" fill="none" stroke="#000000" stroke-linecap="round" stroke-linejoin="round" stroke-width="1"></path></svg>