<svg viewBox="0 0 24 24" xmlns="http://www.w3.org/2000/svg" id="Construction-Paper-Home--Streamline-Ultimate"><desc>Construction Paper Home Streamline Icon: https://streamlinehq.com</desc><path d="M14.379 0.75H3a1.5 1.5 0 0 0 -1.5 1.5v19.5a1.5 1.5 0 0 0 1.5 1.5h18a1.5 1.5 0 0 0 1.5 -1.5V8.871a1.5 1.5 0 0 0 -0.439 -1.06l-6.622 -6.622a1.5 1.5 0 0 0 -1.06 -0.439Z" fill="none" stroke="#000000" stroke-linecap="round" stroke-linejoin="round" stroke-width="1"></path><path d="M15 0.885V6.75a1.5 1.5 0 0 0 1.5 1.5h5.865" fill="none" stroke="#000000" stroke-linecap="round" stroke-linejoin="round" stroke-width="1"></path><path d="m15 13.25 0 5.5 -6 0 0 -5.5" fill="none" stroke="#000000" stroke-linecap="round" stroke-linejoin="round" stroke-width="1"></path><path d="m7.5 14.25 4.5 -3 4.5 3" fill="none" stroke="#000000" stroke-linecap="round" stroke-linejoin="round" stroke-width="1"></path></svg>