<svg xmlns="http://www.w3.org/2000/svg" fill="none" viewBox="0 0 24 24" id="Cloud-Smartphone-Download--Streamline-Ultimate"><desc>Cloud Smartphone Download Streamline Icon: https://streamlinehq.com</desc><path stroke="#000000" d="M19.5 20.625c-0.2071 0 -0.375 -0.1679 -0.375 -0.375s0.1679 -0.375 0.375 -0.375" stroke-width="1"></path><path stroke="#000000" d="M19.5 20.625c0.2071 0 0.375 -0.1679 0.375 -0.375s-0.1679 -0.375 -0.375 -0.375" stroke-width="1"></path><path stroke="#000000" stroke-linecap="round" stroke-linejoin="round" d="m9.75 20.25 3 -3 -3 -3" stroke-width="1"></path><path stroke="#000000" stroke-linecap="round" stroke-linejoin="round" d="M12.75 17.25h-6c-0.39782 0 -0.77936 -0.158 -1.06066 -0.4393 -0.2813 -0.2813 -0.43934 -0.6629 -0.43934 -1.0607v-3" stroke-width="1"></path><path stroke="#000000" stroke-linecap="round" stroke-linejoin="round" d="M12 3.74996c-0.4384 0.00142 -0.8711 0.09947 -1.2672 0.28718 -0.3962 0.18771 -0.74608 0.46046 -1.0248 0.79882 -0.08239 -0.86627 -0.41478 -1.68993 -0.95673 -2.37074 -0.54196 -0.68082 -1.2701 -1.18944 -2.09584 -1.46398C5.82969 0.726701 4.94195 0.698078 4.10024 0.918856c-0.84171 0.220774 -1.60111 0.681434 -2.18579 1.325924C1.32977 2.88927 0.945008 3.6898 0.806988 4.54897c-0.13802 0.85917 -0.02335 1.73993 0.330052 2.53512 0.35341 0.79519 0.93032 1.47051 1.66053 1.94381 0.73021 0.4733 1.58225 0.72416 2.45243 0.72206H12c0.7956 0 1.5587 -0.31607 2.1213 -0.87868 0.5626 -0.56261 0.8787 -1.32567 0.8787 -2.12132s-0.3161 -1.55871 -0.8787 -2.12132c-0.5626 -0.56261 -1.3257 -0.87868 -2.1213 -0.87868Z" stroke-width="1"></path><path stroke="#000000" stroke-linecap="round" stroke-linejoin="round" d="M21.75 11.25h-4.5c-0.8284 0 -1.5 0.6716 -1.5 1.5v9c0 0.8284 0.6716 1.5 1.5 1.5h4.5c0.8284 0 1.5 -0.6716 1.5 -1.5v-9c0 -0.8284 -0.6716 -1.5 -1.5 -1.5Z" stroke-width="1"></path></svg>