<svg viewBox="0 0 24 24" xmlns="http://www.w3.org/2000/svg" id="Cloud-Cash--Streamline-Ultimate"><desc>Cloud Cash Streamline Icon: https://streamlinehq.com</desc><path d="M18.75 14.25h-2.033a1.342 1.342 0 0 0 -0.5 2.588l2.063 0.825a1.342 1.342 0 0 1 -0.5 2.587h-2.03" fill="none" stroke="#000000" stroke-linecap="round" stroke-linejoin="round" stroke-width="1"></path><path d="m17.25 14.25 0 -0.75" fill="none" stroke="#000000" stroke-linecap="round" stroke-linejoin="round" stroke-width="1"></path><path d="m17.25 21 0 -0.75" fill="none" stroke="#000000" stroke-linecap="round" stroke-linejoin="round" stroke-width="1"></path><path d="M11.25 17.25a6 6 0 1 0 12 0 6 6 0 1 0 -12 0Z" fill="none" stroke="#000000" stroke-linecap="round" stroke-linejoin="round" stroke-width="1"></path><path d="M23.1 9.659a4.868 4.868 0 0 0 -7.486 -2.794A7.5 7.5 0 1 0 8.25 15.75" fill="none" stroke="#000000" stroke-linecap="round" stroke-linejoin="round" stroke-width="1"></path></svg>