<svg xmlns="http://www.w3.org/2000/svg" viewBox="0 0 24 24" id="Cloud-Monitor-Exchange--Streamline-Ultimate"><desc>Cloud Monitor Exchange Streamline Icon: https://streamlinehq.com</desc><defs></defs><title>cloud-monitor-exchange</title><path d="M12.751 12.751h9s1.5 0 1.5 1.5v4.5s0 1.5 -1.5 1.5h-9s-1.5 0 -1.5 -1.5v-4.5s0 -1.5 1.5 -1.5" fill="none" stroke="#000000" stroke-linecap="round" stroke-linejoin="round" stroke-width="1"></path><path d="m17.251 20.251 0 3" fill="none" stroke="#000000" stroke-linecap="round" stroke-linejoin="round" stroke-width="1"></path><path d="m15.001 23.251 4.5 0" fill="none" stroke="#000000" stroke-linecap="round" stroke-linejoin="round" stroke-width="1"></path><path d="m0.751 15.001 2.25 -2.25 2.25 2.25" fill="none" stroke="#000000" stroke-linecap="round" stroke-linejoin="round" stroke-width="1"></path><path d="m6.751 18.001 2.25 2.25 -2.25 2.25" fill="none" stroke="#000000" stroke-linecap="round" stroke-linejoin="round" stroke-width="1"></path><path d="M12 3.751a2.979 2.979 0 0 0 -2.291 1.085 4.489 4.489 0 1 0 -4.458 4.915H12a3 3 0 1 0 0 -6Z" fill="none" stroke="#000000" stroke-linecap="round" stroke-linejoin="round" stroke-width="1"></path><path d="M3 12.751v4.5a3 3 0 0 0 3 3h3" fill="none" stroke="#000000" stroke-linecap="round" stroke-linejoin="round" stroke-width="1"></path></svg>