<svg viewBox="0 0 24 24" xmlns="http://www.w3.org/2000/svg" id="Cloud-Settings--Streamline-Ultimate"><desc>Cloud Settings Streamline Icon: https://streamlinehq.com</desc><path d="M15.75 16.5a1.5 1.5 0 1 0 3 0 1.5 1.5 0 1 0 -3 0Z" fill="none" stroke="#000000" stroke-linecap="round" stroke-linejoin="round" stroke-width="1"></path><path d="m18.524 10.7 0.443 1.452a0.992 0.992 0 0 0 1.173 0.681l1.473 -0.341a1.339 1.339 0 0 1 1.274 2.218l-1.03 1.111a1 1 0 0 0 0 1.362l1.03 1.111a1.339 1.339 0 0 1 -1.274 2.219l-1.473 -0.342a0.994 0.994 0 0 0 -1.173 0.681l-0.443 1.448a1.33 1.33 0 0 1 -2.548 0l-0.442 -1.453a1 1 0 0 0 -1.174 -0.681l-1.472 0.342a1.339 1.339 0 0 1 -1.274 -2.219l1.03 -1.111a1 1 0 0 0 0 -1.362l-1.03 -1.111a1.338 1.338 0 0 1 1.274 -2.218l1.472 0.341a0.993 0.993 0 0 0 1.174 -0.681l0.442 -1.452a1.33 1.33 0 0 1 2.548 0.005Z" fill="none" stroke="#000000" stroke-linecap="round" stroke-linejoin="round" stroke-width="1"></path><path d="M23.01 9.361a4.868 4.868 0 0 0 -7.4 -2.5 7.5 7.5 0 1 0 -7.36 8.889" fill="none" stroke="#000000" stroke-linecap="round" stroke-linejoin="round" stroke-width="1"></path></svg>