<svg xmlns="http://www.w3.org/2000/svg" fill="none" viewBox="0 0 24 24" id="Cloud-Storage-Drive--Streamline-Ultimate"><desc>Cloud Storage Drive Streamline Icon: https://streamlinehq.com</desc><path stroke="#000000" d="M15 20.25c-0.2071 0 -0.375 -0.1679 -0.375 -0.375s0.1679 -0.375 0.375 -0.375" stroke-width="1"></path><path stroke="#000000" d="M15 20.25c0.2071 0 0.375 -0.1679 0.375 -0.375S15.2071 19.5 15 19.5" stroke-width="1"></path><path stroke="#000000" stroke-linecap="round" stroke-linejoin="round" d="M15.374 23.251c0.8951 0 1.7535 -0.3556 2.3865 -0.9885 0.6329 -0.633 0.9885 -1.4914 0.9885 -2.3865 0 -0.8951 -0.3556 -1.7536 -0.9885 -2.3865 -0.633 -0.6329 -1.4914 -0.9885 -2.3865 -0.9885H7.12399c-0.8951 0 -1.75355 0.3556 -2.38648 0.9885 -0.63294 0.6329 -0.98852 1.4914 -0.98852 2.3865 0 0.8951 0.35558 1.7535 0.98852 2.3865 0.63293 0.6329 1.49138 0.9885 2.38648 0.9885H15.374Z" stroke-width="1"></path><path stroke="#000000" stroke-linecap="round" stroke-linejoin="round" d="m18.489 18.577 -1.971 -4.73c-0.2277 -0.5468 -0.6121 -1.014 -1.1049 -1.3427 -0.4927 -0.3287 -1.0718 -0.5042 -1.6641 -0.5043h-5c-0.59233 0.0001 -1.17137 0.1756 -1.66414 0.5043 -0.49277 0.3287 -0.8772 0.7959 -1.10486 1.3427l-1.971 4.73" stroke-width="1"></path><path stroke="#000000" stroke-linecap="round" stroke-linejoin="round" d="M20.8899 15.0651c0.5588 -0.3363 1.0445 -0.7812 1.4281 -1.3086 0.3836 -0.5274 0.6575 -1.1265 0.8053 -1.7617 0.1478 -0.6352 0.1665 -1.2936 0.0551 -1.9362 -0.1114 -0.64254 -0.3507 -1.25621 -0.7038 -1.80457 -0.353 -0.54836 -0.8125 -1.02026 -1.3513 -1.38771 -0.5388 -0.36745 -1.1459 -0.62297 -1.7853 -0.75142 -0.6394 -0.12844 -1.298 -0.12719 -1.9369 0.00368s-1.245 0.38869 -1.7824 0.75818c-0.212 -1.13985 -0.6854 -2.21501 -1.3831 -3.14099 -0.6977 -0.92597 -1.6006 -1.67753 -2.6378 -2.1956 -1.0372 -0.51808 -2.18045 -0.788549 -3.33985 -0.790163 -1.15939 -0.001614 -2.30336 0.265673 -3.342 0.780853 -1.03864 0.51519 -1.94366 1.26423 -2.64391 2.18826 -0.70026 0.92403 -1.17668 1.99787 -1.391824 3.13713C0.665074 7.9955 0.717074 9.16913 1.03213 10.2849c0.31505 1.1158 0.88458 2.1433 1.66381 3.0017" stroke-width="1"></path></svg>