<svg xmlns="http://www.w3.org/2000/svg" viewBox="0 0 24 24" id="Cloud-Star--Streamline-Ultimate"><desc>Cloud Star Streamline Icon: https://streamlinehq.com</desc><g><path d="M22.92 12.65a5 5 0 0 0 0.33 -1.77A4.87 4.87 0 0 0 18.37 6a4.81 4.81 0 0 0 -2.76 0.87 7.49 7.49 0 1 0 -7.36 8.88" fill="none" stroke="#000000" stroke-linecap="round" stroke-linejoin="round" stroke-width="1"></path><path d="m18 11.68 1.54 4.07h3A0.73 0.73 0 0 1 23 17l-2.59 1.82 1.44 3.31a0.79 0.79 0 0 1 -1.12 1l-3.48 -2 -3.48 2a0.78 0.78 0 0 1 -1.12 -1l1.44 -3.31 -2.6 -1.82a0.73 0.73 0 0 1 0.51 -1.25h3l1.54 -4.07a0.79 0.79 0 0 1 1.46 0Z" fill="none" stroke="#000000" stroke-linecap="round" stroke-linejoin="round" stroke-width="1"></path></g></svg>