<svg xmlns="http://www.w3.org/2000/svg" fill="none" viewBox="0 0 24 24" id="Soft-Drinks-Glass--Streamline-Ultimate"><desc>Soft Drinks Glass Streamline Icon: https://streamlinehq.com</desc><path stroke="#000000" stroke-linecap="round" stroke-linejoin="round" d="M19.647 21.875c-0.0313 0.3747 -0.2023 0.724 -0.479 0.9787 -0.2767 0.2547 -0.6389 0.3961 -1.015 0.3963H9.66303c-0.37709 0.0013 -0.74083 -0.1395 -1.0188 -0.3943 -0.27797 -0.2548 -0.44978 -0.6049 -0.4812 -0.9807l-1.312 -15.813c-0.00828 -0.10343 0.00494 -0.20745 0.03881 -0.30553 0.03388 -0.09807 0.08769 -0.18807 0.15804 -0.26434 0.07035 -0.07627 0.15572 -0.13715 0.25075 -0.17882 0.09502 -0.04167 0.19764 -0.06323 0.3014 -0.06331H20.22c0.1037 0.00006 0.2063 0.02162 0.3012 0.06331 0.0949 0.04169 0.1802 0.10261 0.2504 0.17891 0.0702 0.07631 0.1238 0.16633 0.1574 0.2644 0.0337 0.09807 0.0466 0.20205 0.038 0.30538l-1.32 15.813Z" stroke-width="1"></path><path stroke="#000000" d="M19.533 1.5c-0.2071 0 -0.375 -0.16789 -0.375 -0.375 0 -0.207107 0.1679 -0.375 0.375 -0.375" stroke-width="1"></path><path stroke="#000000" d="M19.533 1.5c0.2071 0 0.375 -0.16789 0.375 -0.375 0 -0.207107 -0.1679 -0.375 -0.375 -0.375" stroke-width="1"></path><path stroke="#000000" d="M13.908 3c-0.2071 0 -0.375 -0.16789 -0.375 -0.375s0.1679 -0.375 0.375 -0.375" stroke-width="1"></path><path stroke="#000000" d="M13.908 3c0.2071 0 0.375 -0.16789 0.375 -0.375s-0.1679 -0.375 -0.375 -0.375" stroke-width="1"></path><path stroke="#000000" d="M16.908 12.75c-0.2071 0 -0.375 -0.1679 -0.375 -0.375s0.1679 -0.375 0.375 -0.375" stroke-width="1"></path><path stroke="#000000" d="M16.908 12.75c0.2071 0 0.375 -0.1679 0.375 -0.375S17.1151 12 16.908 12" stroke-width="1"></path><path stroke="#000000" d="M14.658 15.75c-0.2071 0 -0.375 -0.1679 -0.375 -0.375s0.1679 -0.375 0.375 -0.375" stroke-width="1"></path><path stroke="#000000" d="M14.658 15.75c0.2071 0 0.375 -0.1679 0.375 -0.375S14.8651 15 14.658 15" stroke-width="1"></path><g><path stroke="#000000" d="M16.158 19.5c-0.2071 0 -0.375 -0.1679 -0.375 -0.375s0.1679 -0.375 0.375 -0.375" stroke-width="1"></path><path stroke="#000000" d="M16.158 19.5c0.2071 0 0.375 -0.1679 0.375 -0.375s-0.1679 -0.375 -0.375 -0.375" stroke-width="1"></path></g><path stroke="#000000" stroke-linecap="round" stroke-linejoin="round" d="m3.03296 0.75 3.78 0.473c0.64109 0.08013 1.23918 0.36508 1.70529 0.81246 0.46612 0.44738 0.77536 1.03328 0.88171 1.67054L12.033 19.5" stroke-width="1"></path><path stroke="#000000" stroke-linecap="round" stroke-linejoin="round" d="M7.15796 9.75H20.658" stroke-width="1"></path></svg>