<svg xmlns="http://www.w3.org/2000/svg" viewBox="0 0 24 24" id="Soft-Drinks-Juice--Streamline-Ultimate"><desc>Soft Drinks Juice Streamline Icon: https://streamlinehq.com</desc><g><path d="M17.5 14.49a6 6 0 0 0 -1.76 -4.25l-0.8 -0.8a1.5 1.5 0 0 1 -0.44 -1.06V1.5a0.76 0.76 0 0 0 -0.75 -0.75h-3.5a0.76 0.76 0 0 0 -0.75 0.75v6.88a1.5 1.5 0 0 1 -0.44 1.06l-0.8 0.8a6 6 0 0 0 -1.76 4.25v7.26a1.5 1.5 0 0 0 1.5 1.5h8a1.5 1.5 0 0 0 1.5 -1.5Z" fill="none" stroke="#000000" stroke-linecap="round" stroke-linejoin="round" stroke-width="1"></path><path d="m9.5 4.25 5 0" fill="none" stroke="#000000" stroke-linecap="round" stroke-linejoin="round" stroke-width="1"></path><path d="m6.55 13.75 10.9 0" fill="none" stroke="#000000" stroke-linecap="round" stroke-linejoin="round" stroke-width="1"></path><path d="m6.55 18.75 10.95 0" fill="none" stroke="#000000" stroke-linecap="round" stroke-linejoin="round" stroke-width="1"></path></g></svg>