<svg xmlns="http://www.w3.org/2000/svg" fill="none" viewBox="0 0 24 24" id="Soft-Drinks-Bottle--Streamline-Ultimate"><desc>Soft Drinks Bottle Streamline Icon: https://streamlinehq.com</desc><path stroke="#000000" stroke-linecap="round" stroke-linejoin="round" d="m10.511 3.75491 -0.092 0.875c-0.1355 1.35685 -0.5977 2.66069 -1.34698 3.8l-0.782 1.32c-0.47871 0.89359 -0.75734 1.88069 -0.81656 2.89279 -0.05923 1.012 0.10236 2.0248 0.47356 2.9682 0.7 1.865 -0.088 4.209 -0.45 5.806 -0.05001 0.2197 -0.0499 0.4478 0.00034 0.6675 0.05024 0.2196 0.14932 0.4251 0.28987 0.6012 0.14055 0.1761 0.31897 0.3183 0.52201 0.416 0.20304 0.0977 0.42547 0.1484 0.65078 0.1483H14.96c0.2253 -0.0001 0.4476 -0.0509 0.6505 -0.1486 0.2029 -0.0978 0.3812 -0.24 0.5216 -0.4161 0.1405 -0.176 0.2395 -0.3815 0.2896 -0.6011 0.0502 -0.2195 0.0503 -0.4476 0.0003 -0.6672 -0.361 -1.6 -1.069 -3.941 -0.369 -5.806 0.3712 -0.9434 0.5328 -1.9562 0.4736 -2.9682 -0.0592 -1.0121 -0.3379 -1.9992 -0.8166 -2.89279l-0.782 -1.316c-0.7493 -1.13931 -1.2114 -2.44315 -1.347 -3.8l-0.092 -0.88" stroke-width="1"></path><path stroke="#000000" stroke-linecap="round" stroke-linejoin="round" d="M13.96 0.75H9.96002c-0.55228 0 -1 0.44772 -1 1v1c0 0.55228 0.44772 1 1 1H13.96c0.5523 0 1 -0.44772 1 -1v-1c0 -0.55228 -0.4477 -1 -1 -1Z" stroke-width="1"></path><path stroke="#000000" stroke-linecap="round" stroke-linejoin="round" d="M9.19098 8.25H14.809" stroke-width="1"></path><path stroke="#000000" d="M13.085 12c-0.2071 0 -0.375 -0.1679 -0.375 -0.375s0.1679 -0.375 0.375 -0.375" stroke-width="1"></path><path stroke="#000000" d="M13.085 12c0.2071 0 0.375 -0.1679 0.375 -0.375s-0.1679 -0.375 -0.375 -0.375" stroke-width="1"></path><path stroke="#000000" d="M10.835 14.252c-0.2071 0 -0.375 -0.1679 -0.375 -0.375 0 -0.2072 0.1679 -0.375 0.375 -0.375" stroke-width="1"></path><path stroke="#000000" d="M10.835 14.252c0.2071 0 0.375 -0.1679 0.375 -0.375 0 -0.2072 -0.1679 -0.375 -0.375 -0.375" stroke-width="1"></path><g><path stroke="#000000" d="M13.085 17.25c-0.2071 0 -0.375 -0.1679 -0.375 -0.375s0.1679 -0.375 0.375 -0.375" stroke-width="1"></path><path stroke="#000000" d="M13.085 17.25c0.2071 0 0.375 -0.1679 0.375 -0.375s-0.1679 -0.375 -0.375 -0.375" stroke-width="1"></path></g><g><path stroke="#000000" d="M11.585 20.25c-0.2071 0 -0.375 -0.1679 -0.375 -0.375s0.1679 -0.375 0.375 -0.375" stroke-width="1"></path><path stroke="#000000" d="M11.585 20.25c0.2071 0 0.375 -0.1679 0.375 -0.375s-0.1679 -0.375 -0.375 -0.375" stroke-width="1"></path></g></svg>