<svg xmlns="http://www.w3.org/2000/svg" viewBox="0 0 24 24" id="Soft-Drinks-Bottle-1--Streamline-Ultimate"><desc>Soft Drinks Bottle 1 Streamline Icon: https://streamlinehq.com</desc><g><path d="m6 19.25 12 0" fill="none" stroke="#000000" stroke-linecap="round" stroke-linejoin="round" stroke-width="1"></path><path d="M15.87 10.58a5.26 5.26 0 0 1 -2.37 -4.26V4.25h-3v2.07a5.26 5.26 0 0 1 -2.37 4.26A5.07 5.07 0 0 0 6 14.7v7.05a1.5 1.5 0 0 0 1.5 1.5h9a1.5 1.5 0 0 0 1.5 -1.5v-7a5.07 5.07 0 0 0 -2.13 -4.17Z" fill="none" stroke="#000000" stroke-linecap="round" stroke-linejoin="round" stroke-width="1"></path><path d="M10 0.75h4s1 0 1 1v1.5s0 1 -1 1h-4s-1 0 -1 -1v-1.5s0 -1 1 -1" fill="none" stroke="#000000" stroke-linecap="round" stroke-linejoin="round" stroke-width="1"></path><path d="m6.02 14.25 11.96 0" fill="none" stroke="#000000" stroke-linecap="round" stroke-linejoin="round" stroke-width="1"></path></g></svg>