<svg xmlns="http://www.w3.org/2000/svg" viewBox="0 0 24 24" id="Soft-Drinks-Bottle-Heart--Streamline-Ultimate"><desc>Soft Drinks Bottle Heart Streamline Icon: https://streamlinehq.com</desc><g><path d="M15 8.25v-3.5H9v3.5h0a6.58 6.58 0 0 0 -4.5 6.24v7.26a1.5 1.5 0 0 0 1.5 1.5h12a1.5 1.5 0 0 0 1.5 -1.5v-7.26A6.58 6.58 0 0 0 15 8.25Z" fill="none" stroke="#000000" stroke-linecap="round" stroke-linejoin="round" stroke-width="1"></path><path d="M17 2.75a2 2 0 0 1 -2 2H9a2 2 0 0 1 0 -4h6a2 2 0 0 1 2 2Z" fill="none" stroke="#000000" stroke-linecap="round" stroke-linejoin="round" stroke-width="1"></path><path d="M15.93 13.6a1.89 1.89 0 0 0 -2.75 0L12 14.81l-1.18 -1.21a1.89 1.89 0 0 0 -2.75 0 2.05 2.05 0 0 0 0 2.84l3.51 3.63a0.58 0.58 0 0 0 0.84 0l3.51 -3.63a2.05 2.05 0 0 0 0 -2.84Z" fill="none" stroke="#000000" stroke-linecap="round" stroke-linejoin="round" stroke-width="1"></path></g></svg>