<svg xmlns="http://www.w3.org/2000/svg" viewBox="0 0 24 24" id="City-Safety-Shield-Building--Streamline-Ultimate"><desc>City Safety Shield Building Streamline Icon: https://streamlinehq.com</desc><defs></defs><path d="M15.033 9.75h3.217a1 1 0 0 1 1 1v12.5h-7.5v-8.23" fill="none" stroke="#000000" stroke-linecap="round" stroke-linejoin="round" stroke-width="1"></path><path d="M8.75 16.25h3l0 0v7l0 0h-4l0 0v-6a1 1 0 0 1 1 -1Z" fill="none" stroke="#000000" stroke-linecap="round" stroke-linejoin="round" stroke-width="1"></path><path d="M19.25 16.25h3a1 1 0 0 1 1 1v6l0 0h-4l0 0v-7l0 0Z" fill="none" stroke="#000000" stroke-linecap="round" stroke-linejoin="round" stroke-width="1"></path><path d="m7.285 12.647 0.553 -0.21c2.63 -1 4.912 -3.524 4.912 -6.338V2.706a1.044 1.044 0 0 0 -0.628 -0.958 15.814 15.814 0 0 0 -5.394 -1 15.521 15.521 0 0 0 -5.35 1 1.044 1.044 0 0 0 -0.628 0.958V6.1c0 2.814 2.238 5.336 4.868 6.338l0.553 0.21a1.561 1.561 0 0 0 1.114 -0.001Z" fill="none" stroke="#000000" stroke-linecap="round" stroke-linejoin="round" stroke-width="1"></path><path d="m4.5 7.375 1.215 0.911a0.374 0.374 0 0 0 0.513 -0.06L9.75 4" fill="none" stroke="#000000" stroke-linecap="round" stroke-linejoin="round" stroke-width="1"></path><path d="m14.693 13.659 1.614 0" fill="none" stroke="#000000" stroke-linecap="round" stroke-linejoin="round" stroke-width="1"></path><path d="m14.693 17.676 1.614 0" fill="none" stroke="#000000" stroke-linecap="round" stroke-linejoin="round" stroke-width="1"></path></svg>