<svg viewBox="0 0 24 24" xmlns="http://www.w3.org/2000/svg" id="Rating-Five-Star--Streamline-Ultimate"><desc>Rating Five Star Streamline Icon: https://streamlinehq.com</desc><path d="m5.779 12.7 1.248 2.457h2.126a0.582 0.582 0 0 1 0.419 1L7.62 18.074l1.08 2.484a0.589 0.589 0 0 1 -0.839 0.736l-2.614 -1.47 -2.615 1.47a0.589 0.589 0 0 1 -0.839 -0.736l1.082 -2.484 -1.95 -1.922a0.582 0.582 0 0 1 0.419 -1H3.47L4.718 12.7a0.6 0.6 0 0 1 1.061 0Z" fill="none" stroke="#000000" stroke-linecap="round" stroke-linejoin="round" stroke-width="1"></path><path d="m12.529 2.949 1.248 2.457H15.9a0.582 0.582 0 0 1 0.419 1L14.37 8.324l1.082 2.484a0.589 0.589 0 0 1 -0.839 0.736L12 10.074l-2.615 1.47a0.589 0.589 0 0 1 -0.839 -0.736l1.081 -2.484L7.675 6.4a0.582 0.582 0 0 1 0.419 -1h2.126l1.248 -2.457a0.6 0.6 0 0 1 1.061 0.006Z" fill="none" stroke="#000000" stroke-linecap="round" stroke-linejoin="round" stroke-width="1"></path><path d="m18.221 12.7 -1.248 2.457h-2.126a0.582 0.582 0 0 0 -0.419 1l1.952 1.922 -1.08 2.479a0.589 0.589 0 0 0 0.839 0.736l2.614 -1.47 2.615 1.47a0.589 0.589 0 0 0 0.839 -0.736l-1.082 -2.484 1.952 -1.922a0.582 0.582 0 0 0 -0.419 -1H20.53L19.282 12.7a0.6 0.6 0 0 0 -1.061 0Z" fill="none" stroke="#000000" stroke-linecap="round" stroke-linejoin="round" stroke-width="1"></path></svg>