<svg xmlns="http://www.w3.org/2000/svg" viewBox="0 0 24 24" id="Diamond-Give--Streamline-Ultimate"><desc>Diamond Give Streamline Icon: https://streamlinehq.com</desc><g><path d="m4.09 5.75 15.82 0" fill="none" stroke="#000000" stroke-linecap="round" stroke-linejoin="round" stroke-width="1"></path><path d="M8.56 0.75h6.88A0.75 0.75 0 0 1 16 1l3.72 4.22a0.75 0.75 0 0 1 0 1.09l-7.22 6.48a0.74 0.74 0 0 1 -1 0L4.33 6.28a0.75 0.75 0 0 1 0 -1.09L8 1a0.75 0.75 0 0 1 0.56 -0.25Z" fill="none" stroke="#000000" stroke-linecap="round" stroke-linejoin="round" stroke-width="1"></path><path d="m8.27 0.81 2.98 4.94" fill="none" stroke="#000000" stroke-linecap="round" stroke-linejoin="round" stroke-width="1"></path><path d="m15.73 0.81 -2.98 4.94" fill="none" stroke="#000000" stroke-linecap="round" stroke-linejoin="round" stroke-width="1"></path><path d="m3.75 23.25 -2 -2.52a4.5 4.5 0 0 1 -1 -2.81v-5.17a1.5 1.5 0 0 1 1.5 -1.5h0a1.5 1.5 0 0 1 1.5 1.5v3.75" fill="none" stroke="#000000" stroke-linecap="round" stroke-linejoin="round" stroke-width="1"></path><path d="M8.25 23.11v-3a4.43 4.43 0 0 0 -0.76 -2.49L6.35 15.9a1.41 1.41 0 0 0 -2 -0.44h0a1.4 1.4 0 0 0 -0.47 1.79l1.37 2.25" fill="none" stroke="#000000" stroke-linecap="round" stroke-linejoin="round" stroke-width="1"></path><path d="m20.25 23.25 2 -2.52a4.5 4.5 0 0 0 1 -2.81v-5.17a1.5 1.5 0 0 0 -1.5 -1.5h0a1.5 1.5 0 0 0 -1.5 1.5v3.75" fill="none" stroke="#000000" stroke-linecap="round" stroke-linejoin="round" stroke-width="1"></path><path d="M15.75 23.11v-3a4.43 4.43 0 0 1 0.76 -2.49l1.14 -1.72a1.41 1.41 0 0 1 2 -0.44h0a1.4 1.4 0 0 1 0.47 1.79l-1.37 2.25" fill="none" stroke="#000000" stroke-linecap="round" stroke-linejoin="round" stroke-width="1"></path><path d="m12 5.75 0 7.24" fill="none" stroke="#000000" stroke-linecap="round" stroke-linejoin="round" stroke-width="1"></path></g></svg>