<svg viewBox="0 0 24 24" xmlns="http://www.w3.org/2000/svg" id="Diamond--Streamline-Ultimate"><desc>Diamond Streamline Icon: https://streamlinehq.com</desc><path d="M19.237 3.225a1.5 1.5 0 0 0 -1.2 -0.6h-12a1.5 1.5 0 0 0 -1.2 0.6L1.5 7.676a1.5 1.5 0 0 0 0.048 1.86l9.338 11.3a1.5 1.5 0 0 0 2.3 0l9.338 -11.3a1.5 1.5 0 0 0 0.048 -1.86Z" fill="none" stroke="#000000" stroke-linecap="round" stroke-linejoin="round" stroke-width="1"></path><path d="m5.349 2.792 6.688 18.583" fill="none" stroke="#000000" stroke-linecap="round" stroke-linejoin="round" stroke-width="1"></path><path d="m18.724 2.792 -6.687 18.583" fill="none" stroke="#000000" stroke-linecap="round" stroke-linejoin="round" stroke-width="1"></path><path d="m1.198 8.625 21.673 0" fill="none" stroke="#000000" stroke-linecap="round" stroke-linejoin="round" stroke-width="1"></path><path d="m7.537 8.625 4.5 -6 4.5 6" fill="none" stroke="#000000" stroke-linecap="round" stroke-linejoin="round" stroke-width="1"></path></svg>