<svg xmlns="http://www.w3.org/2000/svg" viewBox="0 0 24 24" id="Diamond-Hold--Streamline-Ultimate"><desc>Diamond Hold Streamline Icon: https://streamlinehq.com</desc><g><path d="M16.28 9.33a4.75 4.75 0 0 1 2.26 3.81 2.8 2.8 0 0 1 -0.7 2l-1 1.13a1.9 1.9 0 0 1 -1.36 0.65 1.92 1.92 0 0 1 -1.39 -0.55l-1.93 -1.97a1.41 1.41 0 1 0 -2 2l3.51 4a3.74 3.74 0 0 1 1.11 2.87" fill="none" stroke="#000000" stroke-linecap="round" stroke-linejoin="round" stroke-width="1"></path><path d="M23.25 23.25v-9.18a10.45 10.45 0 0 0 -0.41 -2.55 7.73 7.73 0 0 0 -4.46 -5" fill="none" stroke="#000000" stroke-linecap="round" stroke-linejoin="round" stroke-width="1"></path><path d="m0.88 5.5 14.74 0" fill="none" stroke="#000000" stroke-linecap="round" stroke-linejoin="round" stroke-width="1"></path><path d="M3.47 0.76a0.93 0.93 0 0 0 -0.83 0.5L0.84 4.71a0.76 0.76 0 0 0 0.13 0.9l6.65 7a0.87 0.87 0 0 0 1.26 0l6.65 -7a0.76 0.76 0 0 0 0.13 -0.9l-1.95 -3.47a0.92 0.92 0 0 0 -0.81 -0.48Z" fill="none" stroke="#000000" stroke-linecap="round" stroke-linejoin="round" stroke-width="1"></path><g><path d="m0.75 15 3 0" fill="none" stroke="#000000" stroke-linecap="round" stroke-linejoin="round" stroke-width="1"></path><path d="m2.25 13.5 0 3" fill="none" stroke="#000000" stroke-linecap="round" stroke-linejoin="round" stroke-width="1"></path></g><g><path d="m20.25 2.25 3 0" fill="none" stroke="#000000" stroke-linecap="round" stroke-linejoin="round" stroke-width="1"></path><path d="m21.75 0.75 0 3" fill="none" stroke="#000000" stroke-linecap="round" stroke-linejoin="round" stroke-width="1"></path></g><path d="m4.46 0.76 3 4.74" fill="none" stroke="#000000" stroke-linecap="round" stroke-linejoin="round" stroke-width="1"></path><path d="m12.04 0.76 -3 4.74" fill="none" stroke="#000000" stroke-linecap="round" stroke-linejoin="round" stroke-width="1"></path><path d="m8.21 5.5 0 7.37" fill="none" stroke="#000000" stroke-linecap="round" stroke-linejoin="round" stroke-width="1"></path></g></svg>