<svg viewBox="0 0 24 24" xmlns="http://www.w3.org/2000/svg" id="Gold-Bars--Streamline-Ultimate"><desc>Gold Bars Streamline Icon: https://streamlinehq.com</desc><path d="M8.945 13.5H3.481a1.533 1.533 0 0 0 -1.516 1.217l-1.187 6A1.513 1.513 0 0 0 2.294 22.5h7.838a1.512 1.512 0 0 0 1.515 -1.783l-1.187 -6A1.532 1.532 0 0 0 8.945 13.5Z" fill="none" stroke="#000000" stroke-linecap="round" stroke-linejoin="round" stroke-width="1"></path><path d="M20.519 13.5h-5.464a1.532 1.532 0 0 0 -1.515 1.217l-1.187 6a1.512 1.512 0 0 0 1.515 1.783h7.838a1.513 1.513 0 0 0 1.516 -1.783l-1.187 -6a1.533 1.533 0 0 0 -1.516 -1.217Z" fill="none" stroke="#000000" stroke-linecap="round" stroke-linejoin="round" stroke-width="1"></path><path d="M14.945 4.5H9.481a1.533 1.533 0 0 0 -1.516 1.217l-1.187 6A1.513 1.513 0 0 0 8.294 13.5h7.838a1.512 1.512 0 0 0 1.515 -1.783l-1.187 -6A1.532 1.532 0 0 0 14.945 4.5Z" fill="none" stroke="#000000" stroke-linecap="round" stroke-linejoin="round" stroke-width="1"></path><path d="m20.25 3 3 0" fill="none" stroke="#000000" stroke-linecap="round" stroke-linejoin="round" stroke-width="1"></path><path d="m21.75 1.5 0 3" fill="none" stroke="#000000" stroke-linecap="round" stroke-linejoin="round" stroke-width="1"></path><path d="m0.75 6.75 3 0" fill="none" stroke="#000000" stroke-linecap="round" stroke-linejoin="round" stroke-width="1"></path><path d="m2.25 5.25 0 3" fill="none" stroke="#000000" stroke-linecap="round" stroke-linejoin="round" stroke-width="1"></path></svg>