<svg xmlns="http://www.w3.org/2000/svg" viewBox="0 0 24 24" id="Radiology-Scan-Radioactive-Scan--Streamline-Ultimate"><desc>Radiology Scan Radioactive Scan Streamline Icon: https://streamlinehq.com</desc><defs></defs><title>radiology-scan-radioactive-scan</title><path d="m0.851 2.125 14 0 0 19.75 -14 0" fill="none" stroke="#000000" stroke-linecap="round" stroke-linejoin="round" stroke-width="1"></path><path d="m9.171 16.04 -2.215 -3.392h-0.944l-2.144 3.368a5.184 5.184 0 0 0 5.303 0.024Z" fill="none" stroke="#000000" stroke-linecap="round" stroke-linejoin="round" stroke-width="1"></path><path d="m0.989 11.4 4.051 0 0.518 -0.789 -1.642 -3.639A5.183 5.183 0 0 0 0.989 11.4Z" fill="none" stroke="#000000" stroke-linecap="round" stroke-linejoin="round" stroke-width="1"></path><path d="m11.989 11.4 -4.051 0 -0.517 -0.789 1.641 -3.64a5.183 5.183 0 0 1 2.927 4.429Z" fill="none" stroke="#000000" stroke-linecap="round" stroke-linejoin="round" stroke-width="1"></path><path d="M14.851 14.382h4.2l0.767 -1.993a0.946 0.946 0 0 1 0.882 -0.606h0a0.945 0.945 0 0 1 0.945 0.945v4.647h-6.8" fill="none" stroke="#000000" stroke-linecap="round" stroke-linejoin="round" stroke-width="1"></path><path d="m21.649 17.375 1.5 0 0 4.5" fill="none" stroke="#000000" stroke-linecap="round" stroke-linejoin="round" stroke-width="1"></path></svg>