<svg xmlns="http://www.w3.org/2000/svg" fill="none" viewBox="0 0 24 24" id="Radiology-Scan-Mri--Streamline-Ultimate"><desc>Radiology Scan Mri Streamline Icon: https://streamlinehq.com</desc><path stroke="#000000" stroke-linecap="round" stroke-linejoin="round" d="M23.25 23.25V3.75002c0 -0.39782 -0.158 -0.77935 -0.4393 -1.06066 -0.2813 -0.2813 -0.6629 -0.43934 -1.0607 -0.43934h-4.134C15.9075 1.26723 13.971 0.75 12 0.75c-1.971 0 -3.9075 0.51723 -5.616 1.50002H2.25c-0.39782 0 -0.77936 0.15804 -1.06066 0.43934C0.908035 2.97067 0.75 3.3522 0.75 3.75002V23.25" stroke-width="1"></path><path stroke="#000000" stroke-linecap="round" stroke-linejoin="round" d="M15.365 15.223c-0.107 -0.2851 -0.2982 -0.5309 -0.5483 -0.7047 -0.2501 -0.1738 -0.5472 -0.2674 -0.8517 -0.2683h-3.926c-0.30454 0.0009 -0.6016 0.0945 -0.85168 0.2683 -0.25008 0.1738 -0.44133 0.4196 -0.54832 0.7047L6.75 20.25h10.5l-1.885 -5.027Z" stroke-width="1"></path><path stroke="#000000" stroke-linecap="round" stroke-linejoin="round" d="M6.75 20.25v1.5c0 0.3978 0.15804 0.7794 0.43934 1.0607s0.66284 0.4393 1.06066 0.4393h7.5c0.3978 0 0.7794 -0.158 1.0607 -0.4393s0.4393 -0.6629 0.4393 -1.0607v-1.5" stroke-width="1"></path><path stroke="#000000" stroke-linecap="round" stroke-linejoin="round" d="M7.5 12c0 -1.1935 0.47411 -2.33807 1.31802 -3.18198C9.66193 7.97411 10.8065 7.5 12 7.5c1.1935 0 2.3381 0.47411 3.182 1.31802C16.0259 9.66193 16.5 10.8065 16.5 12" stroke-width="1"></path><path stroke="#000000" stroke-linecap="round" stroke-linejoin="round" d="M18.875 15c0.4976 -1.1414 0.7032 -2.3886 0.5983 -3.6293 -0.1049 -1.2406 -0.517 -2.43566 -1.1991 -3.47724 -0.6822 -1.04159 -1.6129 -1.89695 -2.7083 -2.48894 -1.0953 -0.59198 -2.3208 -0.90196 -3.5659 -0.90196 -1.2451 0 -2.47058 0.30998 -3.56593 0.90196 -1.09535 0.59199 -2.02608 1.44735 -2.70824 2.48894 -0.68216 1.04158 -1.09427 2.23664 -1.19917 3.47724 -0.10489 1.2407 0.10074 2.4879 0.59834 3.6293" stroke-width="1"></path><path stroke="#000000" d="M3.75 5.625c-0.20711 0 -0.375 -0.16789 -0.375 -0.375s0.16789 -0.375 0.375 -0.375" stroke-width="1"></path><path stroke="#000000" d="M3.75 5.625c0.20711 0 0.375 -0.16789 0.375 -0.375s-0.16789 -0.375 -0.375 -0.375" stroke-width="1"></path><g><path stroke="#000000" d="M20.25 5.625c-0.2071 0 -0.375 -0.16789 -0.375 -0.375s0.1679 -0.375 0.375 -0.375" stroke-width="1"></path><path stroke="#000000" d="M20.25 5.625c0.2071 0 0.375 -0.16789 0.375 -0.375s-0.1679 -0.375 -0.375 -0.375" stroke-width="1"></path></g></svg>