<svg xmlns="http://www.w3.org/2000/svg" fill="none" viewBox="0 0 24 24" id="Bhogi-Fire--Streamline-Ultimate"><desc>Bhogi Fire Streamline Icon: https://streamlinehq.com</desc><path stroke="#000000" stroke-linecap="round" stroke-linejoin="round" stroke-miterlimit="10" d="M8.75 9.94901c-0.3 -0.2 -0.6 -0.09996 -0.8 0.09999 -0.2 0.2 -0.30001 0.5 -0.30001 0.8 0.4 1.4 0.2 3 -0.5 4.2 -1 0.2 -1.9 -0.8 -2 -1.6 -1.3 0.5 -2.19999 2.1 -2.19999 4 0 2.6 2.19999 4.8001 4.89999 4.8001 2.70001 0 4.80001 -2.1001 4.90001 -4.8001 0.1 -3.8 -1.6 -6.1 -4 -7.49999Z" stroke-width="1"></path><path stroke="#000000" stroke-linecap="round" stroke-linejoin="round" stroke-miterlimit="10" d="M9.34999 22.049 14.95 23.2491" stroke-width="1"></path><path stroke="#000000" stroke-linecap="round" stroke-linejoin="round" stroke-miterlimit="10" d="m6.25 22.049 -5.5 1.2001" stroke-width="1"></path><path stroke="#000000" stroke-linecap="round" stroke-linejoin="round" stroke-miterlimit="10" d="M19.55 19.3501c-4.1 -3.9 -6.2 -11.00004 -6.2 -11.00004l-1.9 -1.5c-1.2 -0.9 -2.8 -1.10002 -4.2 -0.40002" stroke-width="1"></path><path stroke="#000000" stroke-linecap="round" stroke-linejoin="round" stroke-miterlimit="10" d="M9.05 1.95001c1.8 0.8 3.1 2.30002 3.6 4.20002l0.5 1.70001" stroke-width="1"></path><path stroke="#000000" stroke-linecap="round" stroke-linejoin="round" stroke-miterlimit="10" d="M13.75 0.750001C12.55 2.35 12.25 4.35 12.75 6.25l0.6 2.10004" stroke-width="1"></path><path stroke="#000000" stroke-linecap="round" stroke-linejoin="round" stroke-miterlimit="10" d="M18.25 22.85c-2.3 -5.3 -0.9 -12.7 -0.9 -12.7" stroke-width="1"></path><path stroke="#000000" stroke-linecap="round" stroke-linejoin="round" stroke-miterlimit="10" d="m17.35 10.15 1.7 -1.79996c1.1 -1.1 2.7 -1.5 4.2 -1" stroke-width="1"></path><path stroke="#000000" stroke-linecap="round" stroke-linejoin="round" stroke-miterlimit="10" d="M15.85 2.45001c1.4 1.5 2.1 3.5 1.8 5.5L17.45 9.75" stroke-width="1"></path><path stroke="#000000" stroke-linecap="round" stroke-linejoin="round" stroke-miterlimit="10" d="M20.85 3.04999c-1.7 1.1 -2.9 2.80005 -3.1 4.80005l-0.3 2.29996" stroke-width="1"></path></svg>