<svg xmlns="http://www.w3.org/2000/svg" fill="none" viewBox="0 0 24 24" id="Bhogi--Streamline-Ultimate"><desc>Bhogi Streamline Icon: https://streamlinehq.com</desc><path stroke="#000000" stroke-linecap="round" stroke-linejoin="round" stroke-miterlimit="10" d="M16.5 13.75c0.8 0 1.5 -0.7 1.5 -1.5s-0.7 -1.5 -1.5 -1.5h-9c-0.8 0 -1.5 0.7 -1.5 1.5s0.7 1.5 1.5 1.5c-1 1.5 -2 4 -2 5.5 0 1.3 0.5 2.5 1.3 3.4 0.4 0.4 0.9 0.6 1.5 0.6h7.4c0.6 0 1.1 -0.2 1.5 -0.6 0.8 -0.9 1.3 -2.1 1.3 -3.4 0 -1.5 -1 -4 -2 -5.5Z" stroke-width="1"></path><path stroke="#000000" stroke-linecap="round" stroke-linejoin="round" stroke-miterlimit="10" d="M9.08572 6.34999c-0.4 -1.3 0.99998 -5.599978 2.89998 -5.599978s3.4 4.299978 2.9 5.599978" stroke-width="1"></path><path stroke="#000000" stroke-linecap="round" stroke-linejoin="round" stroke-miterlimit="10" d="M12 10.75s2 -6.00001 8.5 -7.50001c0 0 -3 5 -3.5 7.50001" stroke-width="1"></path><path stroke="#000000" stroke-linecap="round" stroke-linejoin="round" stroke-miterlimit="10" d="M12 10.75s-2 -6.00001 -8.5 -7.50001c0 0 3 5 3.5 7.50001" stroke-width="1"></path></svg>