<svg xmlns="http://www.w3.org/2000/svg" fill="none" viewBox="0 0 24 24" id="Gokul-Ashtami--Streamline-Ultimate"><desc>Gokul Ashtami Streamline Icon: https://streamlinehq.com</desc><path stroke="#000000" stroke-linecap="round" stroke-linejoin="round" stroke-miterlimit="10" d="M9.76874 3.83127H5.80208v-0.99166c0 -1.09084 0.8925 -1.983336 1.98333 -1.983336s1.98333 0.892496 1.98333 1.983336v0.99166Z" stroke-width="1"></path><path stroke="#000000" stroke-linecap="round" stroke-linejoin="round" stroke-miterlimit="10" d="M5.80209 3.83127c-1.19 0.69417 -1.98333 1.98334 -1.98333 3.47084v2.47916c0 2.18163 1.785 3.96663 3.96666 3.96663 2.18167 0 3.96668 -1.785 3.96668 -3.96663V7.30211c0 -1.4875 -0.7933 -2.77667 -1.98334 -3.47084" stroke-width="1"></path><path stroke="#000000" stroke-linecap="round" stroke-linejoin="round" stroke-miterlimit="10" d="M11.7662 8.34033s-2.27474 0 -3.98078 -2.27473C6.07937 8.34033 3.80464 8.34033 3.80464 8.34033" stroke-width="1"></path><path stroke="#000000" stroke-linecap="round" stroke-linejoin="round" stroke-miterlimit="10" d="M3.81875 7.79794h-1.4875c-0.79333 0 -1.4875 0.69417 -1.4875 1.4875 0 0.79336 0.69417 1.48746 1.4875 1.48746h1.58667" stroke-width="1"></path><path stroke="#000000" stroke-linecap="round" stroke-linejoin="round" stroke-miterlimit="10" d="M13.2396 10.7729h-1.5867" stroke-width="1"></path><path stroke="#000000" stroke-linecap="round" stroke-linejoin="round" stroke-miterlimit="10" d="M11.7521 7.79794h1.3883" stroke-width="1"></path><path stroke="#000000" stroke-linecap="round" stroke-linejoin="round" stroke-miterlimit="10" d="M1.0421 23.1688c0 -3.6692 2.97499 -6.7433 6.74332 -6.7433 1.98333 0 3.76838 0.7933 4.95838 2.1816" stroke-width="1"></path><path stroke="#000000" stroke-linecap="round" stroke-linejoin="round" stroke-miterlimit="10" d="m10.3638 17.1196 -6.14836 6.0492" stroke-width="1"></path><path stroke="#000000" stroke-linecap="round" stroke-linejoin="round" stroke-miterlimit="10" d="M21.6688 3.83125h-5.4542V20.1937h5.4542V3.83125Z" stroke-width="1"></path><path stroke="#000000" stroke-linecap="round" stroke-linejoin="round" stroke-miterlimit="10" d="M23.1562 21.6813c0 0.7933 -0.6941 1.4875 -1.4875 1.4875h-5.4541c-0.7934 0 -1.4875 -0.6942 -1.4875 -1.4875 0 -0.7934 0.6941 -1.4875 1.4875 -1.4875h5.4541c0.8925 -0.0992 1.4875 0.595 1.4875 1.4875Z" stroke-width="1"></path><path stroke="#000000" stroke-linecap="round" stroke-linejoin="round" stroke-miterlimit="10" d="M23.1562 2.34377c0 0.79334 -0.6941 1.4875 -1.4875 1.4875h-5.4541c-0.7934 0 -1.4875 -0.69416 -1.4875 -1.4875 0 -0.79333 0.6941 -1.487496 1.4875 -1.487496h5.4541c0.8925 0.099166 1.4875 0.694166 1.4875 1.487496Z" stroke-width="1"></path><path stroke="#000000" stroke-linecap="round" stroke-linejoin="round" stroke-miterlimit="10" d="M18.9912 10.6738c-0.1095 0 -0.1983 -0.0888 -0.1983 -0.1984 0 -0.1095 0.0888 -0.1983 0.1983 -0.1983" stroke-width="1"></path><path stroke="#000000" stroke-linecap="round" stroke-linejoin="round" stroke-miterlimit="10" d="M18.9912 10.6738c0.1095 0 0.1983 -0.0888 0.1983 -0.1984 0 -0.1095 -0.0888 -0.1983 -0.1983 -0.1983" stroke-width="1"></path><path stroke="#000000" stroke-linecap="round" stroke-linejoin="round" stroke-miterlimit="10" d="M18.9912 13.9463c-0.1095 0 -0.1983 -0.0888 -0.1983 -0.1984 0 -0.1095 0.0888 -0.1983 0.1983 -0.1983" stroke-width="1"></path><path stroke="#000000" stroke-linecap="round" stroke-linejoin="round" stroke-miterlimit="10" d="M18.9912 13.9463c0.1095 0 0.1983 -0.0888 0.1983 -0.1984 0 -0.1095 -0.0888 -0.1983 -0.1983 -0.1983" stroke-width="1"></path><path stroke="#000000" stroke-linecap="round" stroke-linejoin="round" stroke-miterlimit="10" d="M18.9912 17.1196c-0.1095 0 -0.1983 -0.0888 -0.1983 -0.1983 0 -0.1096 0.0888 -0.1984 0.1983 -0.1984" stroke-width="1"></path><path stroke="#000000" stroke-linecap="round" stroke-linejoin="round" stroke-miterlimit="10" d="M18.9912 17.1196c0.1095 0 0.1983 -0.0888 0.1983 -0.1983 0 -0.1096 -0.0888 -0.1984 -0.1983 -0.1984" stroke-width="1"></path><path stroke="#000000" stroke-linecap="round" stroke-linejoin="round" stroke-miterlimit="10" d="m16.2146 7.20294 5.4542 0" stroke-width="1"></path></svg>