<svg xmlns="http://www.w3.org/2000/svg" fill="none" viewBox="0 0 24 24" id="Guru-Purnima-Hand--Streamline-Ultimate"><desc>Guru Purnima Hand Streamline Icon: https://streamlinehq.com</desc><path stroke="#000000" stroke-linecap="round" stroke-linejoin="round" stroke-miterlimit="10" d="m23.25 0.750015 -0.8 1.500005h-4.8c-0.8 0 -1.5 0.30001 -2.2 0.70001l-3.1 1.89996c-0.6 0.5 -0.8 1.3 -0.4 2 0.2 0.4 0.5 0.60001 0.9 0.70001 0.4 0.1 0.8 -0.00001 1.1 -0.20001l2.5 -1.5h2.05l-0.45 0.10004c-0.8 0.2 -1.3 0.99999 -1.1 1.79999 0.2 0.8 1 1.29997 1.8 1.09997l4.5 -1.09997" stroke-width="1"></path><path stroke="#000000" stroke-linecap="round" stroke-linejoin="round" stroke-miterlimit="10" d="M0.75 12.45v8.8c0 1.1 0.9 2 2 2h11.5c0.8 0 1.5 -0.7 1.5 -1.5s-0.7 -1.5 -1.5 -1.5h-0.5l-7.5 -3.5 0.5 -4.4" stroke-width="1"></path><path stroke="#000000" stroke-linecap="round" stroke-linejoin="round" stroke-miterlimit="10" d="M0.75 12.45h4.89999c1.9 0 3.6 -1.1 4.50001 -2.79999" stroke-width="1"></path><path stroke="#000000" stroke-linecap="round" stroke-linejoin="round" stroke-miterlimit="10" d="m7.14998 5.74998 -0.8 0.79999c-0.9 0.9 -2.1 1.40003 -3.4 1.40003" stroke-width="1"></path><path stroke="#000000" stroke-linecap="round" stroke-linejoin="round" stroke-miterlimit="10" d="M11.75 0.849991v0.999999" stroke-width="1"></path><path stroke="#000000" stroke-linecap="round" stroke-linejoin="round" stroke-miterlimit="10" d="M20.95 19.15v2.2" stroke-width="1"></path><path stroke="#000000" stroke-linecap="round" stroke-linejoin="round" stroke-miterlimit="10" d="m18.85 20.55 2.1 0.8" stroke-width="1"></path><path stroke="#000000" stroke-linecap="round" stroke-linejoin="round" stroke-miterlimit="10" d="m19.55 23.15 1.4 -1.8" stroke-width="1"></path><path stroke="#000000" stroke-linecap="round" stroke-linejoin="round" stroke-miterlimit="10" d="m22.35 23.15 -1.4 -1.8" stroke-width="1"></path><path stroke="#000000" stroke-linecap="round" stroke-linejoin="round" stroke-miterlimit="10" d="m23.05 20.55 -2.1 0.8" stroke-width="1"></path><path stroke="#000000" stroke-linecap="round" stroke-linejoin="round" stroke-miterlimit="10" d="M13.75 11.75v2.1" stroke-width="1"></path><path stroke="#000000" stroke-linecap="round" stroke-linejoin="round" stroke-miterlimit="10" d="m11.65 13.05 2.1 0.8" stroke-width="1"></path><path stroke="#000000" stroke-linecap="round" stroke-linejoin="round" stroke-miterlimit="10" d="m12.35 15.75 1.4 -1.9" stroke-width="1"></path><path stroke="#000000" stroke-linecap="round" stroke-linejoin="round" stroke-miterlimit="10" d="m15.05 15.75 -1.3 -1.9" stroke-width="1"></path><path stroke="#000000" stroke-linecap="round" stroke-linejoin="round" stroke-miterlimit="10" d="m15.75 13.05 -2 0.8" stroke-width="1"></path></svg>