<svg xmlns="http://www.w3.org/2000/svg" fill="none" viewBox="0 0 24 24" id="Holi-Color-1--Streamline-Ultimate"><desc>Holi Color 1 Streamline Icon: https://streamlinehq.com</desc><path stroke="#000000" stroke-linecap="round" stroke-linejoin="round" stroke-miterlimit="10" d="M9.15001 23.0733c0.99999 -0.3 1.79999 -1.1 2.19999 -2l0.5 -1c0.1 -0.2 0.3 -0.3 0.5 -0.3s0.4 0.1 0.5 0.3l0.7 1.5c0.3 0.7 0.8 1.3 1.5 1.5 0.7 0.3 1.5 0.2001 2.2 -0.1999 0.6 -0.4 1.1 -1 1.2 -1.7 0.1 -0.7 0 -1.5 -0.5 -2l-1 -1.4001c-0.1 -0.2 -0.1 -0.3999 0 -0.5999s0.3 -0.3 0.5 -0.3l1 0.1c1.1 0.2 2.2 -0.1 3 -0.8 0.8 -0.7 1.3 -1.7 1.3 -2.8 0 -1 -0.4 -2 -1.2 -2.7 -0.8 -0.70004 -1.8 -1.00006 -2.9 -0.90006l-1.3 0.10004c-0.2 0 -0.4 -0.10005 -0.5 -0.30005 -0.1 -0.2 -0.1 -0.39998 0 -0.59998 0.4 -0.5 0.6 -1.19999 0.5 -1.79999 -0.1 -0.6 -0.5 -1.2 -1.1 -1.5 -0.5 -0.3 -1.2 -0.40001 -1.8 -0.20001 -0.6 0.2 -1.1 0.70001 -1.3 1.20001 -0.1 0.2 -0.3 0.29999 -0.5 0.29999s-0.4 -0.09999 -0.5 -0.29999l-0.9 -2c-0.5 -1.3 -1.49999 -2.4 -2.59999 -3 -1.2 -0.6 -2.4 -0.60003 -3.3 -0.10003 -0.9 0.5 -1.50001 1.50005 -1.60001 2.80005 -0.1 1.2 0.30001 2.59995 1.10001 3.69995l1.8 2.80007c0.1 0.2 0.1 0.4999 0 0.6999 -0.1 0.2 -0.40001 0.3001 -0.60001 0.3001l-2.6 -0.3001c-0.7 -0.1 -1.4 0.1 -1.9 0.5s-0.8 1.1001 -0.8 1.8001 0.3 1.2999 0.8 1.6999c0.5 0.4 1.20001 0.6001 1.80001 0.6001l1.3 -0.1001c0.3 0 0.49999 0.1001 0.59999 0.3001 0.1 0.2 0.1 0.4999 0 0.6999 -0.7 0.8 -1 1.9 -0.8 3 0.2 1.1 0.8 2 1.8 2.5 0.9 0.7 1.90001 0.8 2.90001 0.5Z" stroke-width="1"></path><path stroke="#000000" stroke-linecap="round" stroke-linejoin="round" stroke-miterlimit="10" d="M21.25 4.75c1.1046 0 2 -0.89543 2 -2s-0.8954 -2 -2 -2 -2 0.89543 -2 2 0.8954 2 2 2Z" stroke-width="1"></path><path stroke="#000000" stroke-linecap="round" stroke-linejoin="round" stroke-miterlimit="10" d="M1.8 21.1628c-0.11046 0 -0.2 -0.0895 -0.2 -0.2 0 -0.1105 0.08954 -0.2 0.2 -0.2" stroke-width="1"></path><path stroke="#000000" stroke-linecap="round" stroke-linejoin="round" stroke-miterlimit="10" d="M1.79996 21.1628c0.11045 0 0.19999 -0.0895 0.19999 -0.2 0 -0.1105 -0.08954 -0.2 -0.19999 -0.2" stroke-width="1"></path><path stroke="#000000" stroke-linecap="round" stroke-linejoin="round" stroke-miterlimit="10" d="M1.8 8.16281c-0.11046 0 -0.2 -0.08955 -0.2 -0.20001 0 -0.11046 0.08954 -0.20001 0.2 -0.20001" stroke-width="1"></path><path stroke="#000000" stroke-linecap="round" stroke-linejoin="round" stroke-miterlimit="10" d="M1.79996 8.16281c0.11045 0 0.19999 -0.08955 0.19999 -0.20001 0 -0.11046 -0.08954 -0.20001 -0.19999 -0.20001" stroke-width="1"></path></svg>