<svg xmlns="http://www.w3.org/2000/svg" fill="none" viewBox="0 0 24 24" id="Holi-Color-2--Streamline-Ultimate"><desc>Holi Color 2 Streamline Icon: https://streamlinehq.com</desc><path stroke="#000000" stroke-linecap="round" stroke-linejoin="round" stroke-miterlimit="10" d="M4.45 7.04998c0.4 -0.5 1.09999 -0.79999 1.79999 -0.79999 0.7 0.1 1.30001 0.49998 1.60001 1.09998l0.5 0.90002c0.1 0.3 0.40001 0.5 0.70001 0.5 0.3 0 0.59999 -0.09998 0.89999 -0.29998 0.3 -0.3 0.4 -0.80002 0.2 -1.20002l-0.8 -1.5c-0.3 -0.5 -0.30001 -1.19999 -0.10001 -1.79999 0.3 -0.6 0.80001 -1.00003 1.40001 -1.10003 0.6 -0.1 1.2 0.00002 1.6 0.40002 0.5 0.4 0.7 0.9 0.7 1.5v0.70002c0 0.8 0.6 1.49997 1.4 1.59997 0.9 0.1 1.7 -0.39999 1.9 -1.29999l0.2 -1.10003c0.1 -0.6 0.5 -1.2 1.1 -1.5 0.6 -0.3 1.3 -0.29997 1.8 0.10003 0.5 0.3 0.9 0.79997 1 1.39997 0.1 0.6 0 1.20003 -0.4 1.60003l-1.6 2.09998c-0.3 0.3 -0.3 0.80001 -0.2 1.20001 0.2 0.50002 0.7 0.90002 1.2 0.90002h1.8c0.7 0 1.3 0.3 1.7 0.8 0.4 0.5 0.5 1.2 0.3 1.8 -0.2 0.6 -0.6 1.1 -1.2 1.3 -0.6 0.2 -1.2 0.2 -1.7 0l-2.8 -1.4c-0.6 -0.3 -1.2 -0.1 -1.6 0.4 -0.3 0.4 -0.4 0.8 -0.2 1.3 0.2 0.4 0.5 0.8 1 0.9l0.8 0.2c0.7 0.2 1.3 0.7 1.5 1.4 0.2 0.7 0 1.5 -0.5 2 -0.4 0.4 -1.1 0.7 -1.7 0.6 -0.6 -0.1 -1.2 -0.4 -1.5 -1l-1.4 -2.3c-0.2 -0.3 -0.5 -0.5 -0.8 -0.5 -0.5 0 -1 0.4 -1 1v3.5c0 0.6 -0.3 1.2 -0.8 1.6 -0.5 0.4 -1.1 0.6 -1.69999 0.5 -0.7 -0.1 -1.30001 -0.6 -1.60001 -1.2 -0.3 -0.6 -0.29999 -1.4 0.10001 -2l1.60001 -2.7c0.2 -0.4 0.19999 -0.8 -0.10001 -1.1 -0.3 -0.3 -0.70001 -0.4 -1.10001 -0.2l-1.70001 0.9c-0.6 0.3 -1.4 0.3 -2 0 -0.6 -0.3 -1.09998 -0.9 -1.19998 -1.6 -0.1 -0.7 0.10001 -1.4 0.60001 -1.9s1.19999 -0.7 1.89999 -0.6l1.79999 0.3c0.2 0 0.29999 0 0.39999 -0.1 0.1 -0.1 0.20001 -0.3 0.20001 -0.4 0 -0.2 -0.09998 -0.4 -0.29998 -0.5l-2.90003 -1.3c-0.6 -0.30004 -0.99997 -0.70003 -1.09997 -1.30003 -0.2 -0.7 -0.10002 -1.29999 0.29998 -1.79999Z" stroke-width="1"></path><path stroke="#000000" stroke-linecap="round" stroke-linejoin="round" stroke-miterlimit="10" d="M2.55 4.34998c0.99411 0 1.79999 -0.80588 1.79999 -1.79999C4.34999 1.55588 3.54411 0.75 2.55 0.75 1.55589 0.75 0.750011 1.55588 0.750011 2.54999c0 0.99411 0.805879 1.79999 1.799989 1.79999Z" stroke-width="1"></path><path stroke="#000000" stroke-linecap="round" stroke-linejoin="round" stroke-miterlimit="10" d="M2.74999 23.25c1.10457 0 2 -0.8954 2 -2s-0.89543 -2 -2 -2 -2.000003 0.8954 -2.000003 2 0.895433 2 2.000003 2Z" stroke-width="1"></path><path stroke="#000000" stroke-linecap="round" stroke-linejoin="round" stroke-miterlimit="10" d="M20.95 22.25c-0.1105 0 -0.2 -0.0896 -0.2 -0.2 0 -0.1105 0.0895 -0.2 0.2 -0.2" stroke-width="1"></path><path stroke="#000000" stroke-linecap="round" stroke-linejoin="round" stroke-miterlimit="10" d="M20.95 22.25c0.1104 0 0.2 -0.0896 0.2 -0.2 0 -0.1105 -0.0896 -0.2 -0.2 -0.2" stroke-width="1"></path><path stroke="#000000" stroke-linecap="round" stroke-linejoin="round" stroke-miterlimit="10" d="M22.95 1.25c-0.1105 0 -0.2 -0.08956 -0.2 -0.20001 0 -0.110459 0.0895 -0.200014 0.2 -0.200014" stroke-width="1"></path><path stroke="#000000" stroke-linecap="round" stroke-linejoin="round" stroke-miterlimit="10" d="M22.95 1.25c0.1104 0 0.2 -0.08956 0.2 -0.20001 0 -0.110459 -0.0896 -0.200014 -0.2 -0.200014" stroke-width="1"></path></svg>