<svg xmlns="http://www.w3.org/2000/svg" fill="none" viewBox="0 0 24 24" id="Krishna-Janmashtami-Musical-Instrument--Streamline-Ultimate"><desc>Krishna Janmashtami Musical Instrument Streamline Icon: https://streamlinehq.com</desc><path stroke="#000000" stroke-linecap="round" stroke-linejoin="round" stroke-miterlimit="10" d="M10.0948 22.6631c-0.595 0.595 -1.48751 0.595 -2.08251 0L4.1448 18.7956c-0.595 -0.595 -0.595 -1.4875 0 -2.0825s1.4875 -0.595 2.0825 0l3.8675 3.8675c0.595 0.595 0.595 1.4875 0 2.0825Z" stroke-width="1"></path><path stroke="#000000" stroke-linecap="round" stroke-linejoin="round" stroke-miterlimit="10" d="M22.71 10.0167c-0.595 0.595 -1.4875 0.595 -2.0825 0L16.76 6.14915c-0.595 -0.595 -0.595 -1.48748 0 -2.08248s1.4875 -0.595 2.0825 0L22.71 7.9342c0.595 0.595 0.595 1.48747 0 2.0825Z" stroke-width="1"></path><path stroke="#000000" stroke-linecap="round" stroke-linejoin="round" stroke-miterlimit="10" d="M16.7985 6.18767 6.25018 16.736l3.84462 3.8446 0.0119 0.0121L20.6555 10.044c-0.0094 -0.009 -0.0187 -0.0181 -0.028 -0.0273l-3.829 -3.82903Z" stroke-width="1"></path><path stroke="#000000" stroke-linecap="round" stroke-linejoin="round" stroke-miterlimit="10" d="M13.785 13.3884c-0.1095 0 -0.1983 -0.0888 -0.1983 -0.1984 0 -0.1095 0.0888 -0.1983 0.1983 -0.1983" stroke-width="1"></path><path stroke="#000000" stroke-linecap="round" stroke-linejoin="round" stroke-miterlimit="10" d="M13.785 13.3884c0.1095 0 0.1983 -0.0888 0.1983 -0.1984 0 -0.1095 -0.0888 -0.1983 -0.1983 -0.1983" stroke-width="1"></path><path stroke="#000000" stroke-linecap="round" stroke-linejoin="round" stroke-miterlimit="10" d="M11.2067 15.9667c-0.1095 0 -0.1984 -0.0888 -0.1984 -0.1984 0 -0.1095 0.0889 -0.1983 0.1984 -0.1983" stroke-width="1"></path><path stroke="#000000" stroke-linecap="round" stroke-linejoin="round" stroke-miterlimit="10" d="M11.2067 15.9667c0.1095 0 0.1983 -0.0888 0.1983 -0.1984 0 -0.1095 -0.0888 -0.1983 -0.1983 -0.1983" stroke-width="1"></path><path stroke="#000000" stroke-linecap="round" stroke-linejoin="round" stroke-miterlimit="10" d="m14.38 8.62833 3.8675 3.86757" stroke-width="1"></path><path stroke="#000000" stroke-linecap="round" stroke-linejoin="round" stroke-miterlimit="10" d="M7.28958 2.72794c1.28917 1.28917 1.28917 3.27248 0 4.56164 -1.28916 1.28917 -3.27247 1.28917 -4.56164 0C1.43877 6.00042 0.84375 0.84375 0.84375 0.84375s5.15667 0.59502 6.44583 1.88419Z" stroke-width="1"></path><path stroke="#000000" stroke-linecap="round" stroke-linejoin="round" stroke-miterlimit="10" d="M5.00875 5.2071c-0.10953 0 -0.19834 -0.08881 -0.19834 -0.19835 0 -0.10953 0.08881 -0.19834 0.19834 -0.19834" stroke-width="1"></path><path stroke="#000000" stroke-linecap="round" stroke-linejoin="round" stroke-miterlimit="10" d="M5.00873 5.2071c0.10954 0 0.19835 -0.08881 0.19835 -0.19835 0 -0.10953 -0.08881 -0.19834 -0.19835 -0.19834" stroke-width="1"></path><path stroke="#000000" stroke-linecap="round" stroke-linejoin="round" stroke-miterlimit="10" d="m5.80208 10.4629 3.37169 -1.28913 1.28913 -3.37169" stroke-width="1"></path><path stroke="#000000" stroke-linecap="round" stroke-linejoin="round" stroke-miterlimit="10" d="m7.28958 7.28958 1.88419 1.88419" stroke-width="1"></path><path stroke="#000000" stroke-linecap="round" stroke-linejoin="round" stroke-miterlimit="10" d="m15.2229 20.1812 3.8675 -1.0908 1.0908 -3.8675" stroke-width="1"></path><path stroke="#000000" stroke-linecap="round" stroke-linejoin="round" stroke-miterlimit="10" d="m17.2063 17.2063 5.95 5.95" stroke-width="1"></path></svg>