<svg xmlns="http://www.w3.org/2000/svg" fill="none" viewBox="0 0 24 24" id="Lohri-Kite--Streamline-Ultimate"><desc>Lohri Kite Streamline Icon: https://streamlinehq.com</desc><path stroke="#000000" stroke-linecap="round" stroke-linejoin="round" stroke-miterlimit="10" d="M8.71037 9.85571c-0.3 -0.2 -0.6 -0.09996 -0.8 0.10004 -0.2 0.19995 -0.3 0.49995 -0.3 0.79995 0.4 1.4 0.2 3 -0.5 4.2 -1 0.2 -1.9 -0.8 -2 -1.6 -1.3 0.5 -2.2 2.1 -2.2 4 0 2.6 2.2 4.8001 4.9 4.8001 2.70003 0 4.80003 -2.1001 4.90003 -4.8001 0.1 -3.8 -1.6 -6.1 -4.00003 -7.49999Z" stroke-width="1"></path><path stroke="#000000" stroke-linecap="round" stroke-linejoin="round" stroke-miterlimit="10" d="m9.32599 21.9245 5.60001 1.2" stroke-width="1"></path><path stroke="#000000" stroke-linecap="round" stroke-linejoin="round" stroke-miterlimit="10" d="m6.31973 21.9245 -5.499997 1.2" stroke-width="1"></path><path stroke="#000000" stroke-linecap="round" stroke-linejoin="round" stroke-miterlimit="10" d="m22.8991 5.77551 -3.4 8.29999 -6.4 -6.40002 3.7 -6.799992 6.1 4.900022Z" stroke-width="1"></path><path stroke="#000000" stroke-linecap="round" stroke-linejoin="round" stroke-miterlimit="10" d="m13.0991 7.67548 9.8 -1.89997" stroke-width="1"></path><path stroke="#000000" stroke-linecap="round" stroke-linejoin="round" stroke-miterlimit="10" d="m16.7991 0.875488 2.6 13.200012 -0.2 1.1c-0.3 1.5 0.6 2.9 2 3.3 0.7 0.2 1.3 0.7 1.7 1.4 0.3 0.7 0.4 1.4 0.1 2.2" stroke-width="1"></path></svg>