<svg xmlns="http://www.w3.org/2000/svg" fill="none" viewBox="0 0 24 24" id="Makara-Sankranti--Streamline-Ultimate"><desc>Makara Sankranti Streamline Icon: https://streamlinehq.com</desc><path stroke="#000000" stroke-linecap="round" stroke-linejoin="round" stroke-miterlimit="10" d="m13.5694 6.55 3.2 -5.8 6.1 4.9 -3.4 8.3" stroke-width="1"></path><path stroke="#000000" stroke-linecap="round" stroke-linejoin="round" stroke-miterlimit="10" d="m14.4694 7.24999 8.4 -1.6" stroke-width="1"></path><path stroke="#000000" stroke-linecap="round" stroke-linejoin="round" stroke-miterlimit="10" d="m16.7694 0.75 2.7 13.2 -0.2 1.1c-0.3 1.5 0.6 2.9 2 3.3 0.7 0.2 1.3 0.7 1.7 1.4 0.3 0.7 0.4 1.4 0.1 2.2" stroke-width="1"></path><path stroke="#000000" stroke-linecap="round" stroke-linejoin="round" stroke-miterlimit="10" d="M16.2494 21.95c-0.3 0.8 -1 1.3 -1.9 1.3H3.64943c-0.8 0 -1.6 -0.5 -1.9 -1.3l-1.000002 -2.7H17.2494l-1 2.7Z" stroke-width="1"></path><path stroke="#000000" stroke-linecap="round" stroke-linejoin="round" stroke-miterlimit="10" d="M4.04943 19.25c1.38071 0 2.5 -1.1193 2.5 -2.5s-1.11929 -2.5 -2.5 -2.5 -2.5 1.1193 -2.5 2.5 1.11929 2.5 2.5 2.5Z" stroke-width="1"></path><path stroke="#000000" stroke-linecap="round" stroke-linejoin="round" stroke-miterlimit="10" d="M6.49943 14.9062c1.38071 0 2.5 -1.1192 2.5 -2.5 0 -1.3807 -1.11929 -2.49995 -2.5 -2.49995s-2.5 1.11925 -2.5 2.49995c0 1.3808 1.11929 2.5 2.5 2.5Z" stroke-width="1"></path><path stroke="#000000" stroke-linecap="round" stroke-linejoin="round" stroke-miterlimit="10" d="M9.04943 19.25c1.38067 0 2.49997 -1.1193 2.49997 -2.5s-1.1193 -2.5 -2.49997 -2.5c-1.38071 0 -2.5 1.1193 -2.5 2.5s1.11929 2.5 2.5 2.5Z" stroke-width="1"></path><path stroke="#000000" stroke-linecap="round" stroke-linejoin="round" stroke-miterlimit="10" d="M11.4994 14.9062c1.3807 0 2.5 -1.1192 2.5 -2.5 0 -1.3807 -1.1193 -2.49995 -2.5 -2.49995S8.99943 11.0255 8.99943 12.4062c0 1.3808 1.11927 2.5 2.49997 2.5Z" stroke-width="1"></path><path stroke="#000000" stroke-linecap="round" stroke-linejoin="round" stroke-miterlimit="10" d="M14.0494 19.25c1.3807 0 2.5 -1.1193 2.5 -2.5s-1.1193 -2.5 -2.5 -2.5 -2.5 1.1193 -2.5 2.5 1.1193 2.5 2.5 2.5Z" stroke-width="1"></path></svg>