<svg xmlns="http://www.w3.org/2000/svg" fill="none" viewBox="0 0 24 24" id="Nyepi--Streamline-Ultimate"><desc>Nyepi Streamline Icon: https://streamlinehq.com</desc><path stroke="#000000" stroke-linecap="round" stroke-linejoin="round" stroke-miterlimit="10" d="M14.25 5.15002 17.85 0.75l3.4 4.40002h-7Z" stroke-width="1"></path><path stroke="#000000" stroke-linecap="round" stroke-linejoin="round" stroke-miterlimit="10" d="M16.05 5.25003v3.59998" stroke-width="1"></path><path stroke="#000000" stroke-linecap="round" stroke-linejoin="round" stroke-miterlimit="10" d="M19.55 5.25003v3.59998" stroke-width="1"></path><path stroke="#000000" stroke-linecap="round" stroke-linejoin="round" stroke-miterlimit="10" d="M15.25 8.85001h5l2 3.99999h-9l2 -3.99999Z" stroke-width="1"></path><path stroke="#000000" stroke-linecap="round" stroke-linejoin="round" stroke-miterlimit="10" d="M15.25 12.85v3.4" stroke-width="1"></path><path stroke="#000000" stroke-linecap="round" stroke-linejoin="round" stroke-miterlimit="10" d="M20.25 12.85v3.4" stroke-width="1"></path><path stroke="#000000" stroke-linecap="round" stroke-linejoin="round" stroke-miterlimit="10" d="M14.05 16.25h7.5l1.7 4h-11l1.8 -4Z" stroke-width="1"></path><path stroke="#000000" stroke-linecap="round" stroke-linejoin="round" stroke-miterlimit="10" d="M14.25 20.25v3" stroke-width="1"></path><path stroke="#000000" stroke-linecap="round" stroke-linejoin="round" stroke-miterlimit="10" d="M21.25 20.25v3" stroke-width="1"></path><path stroke="#000000" stroke-linecap="round" stroke-linejoin="round" stroke-miterlimit="10" d="m2.34998 14.45 1.5 -0.5c1.4 -0.5 2.30001 -1.8 2.30001 -3.3V2.45001c0 -1 -0.80001 -1.70001 -1.70001 -1.70001 -0.8 0 -1.39998 0.50001 -1.69998 1.20001l-2 6" stroke-width="1"></path><path stroke="#000000" stroke-linecap="round" stroke-linejoin="round" stroke-miterlimit="10" d="m9.94998 14.45 -1.5 -0.5c-1.4 -0.5 -2.29999 -1.8 -2.29999 -3.3V2.45001c0 -1 0.79999 -1.70001 1.69999 -1.70001 0.8 0 1.40001 0.50001 1.70001 1.20001l2.00001 6" stroke-width="1"></path><path stroke="#000000" stroke-linecap="round" stroke-linejoin="round" stroke-miterlimit="10" d="M9.14999 10.15V8.65002c0 -0.8 -0.7 -1.5 -1.5 -1.5s-1.5 0.7 -1.5 1.5c0 -0.8 -0.7 -1.5 -1.5 -1.5s-1.5 0.7 -1.5 1.5V10.15" stroke-width="1"></path></svg>