<svg xmlns="http://www.w3.org/2000/svg" fill="none" viewBox="0 0 24 24" id="Onam-1--Streamline-Ultimate"><desc>Onam 1 Streamline Icon: https://streamlinehq.com</desc><path stroke="#000000" stroke-linecap="round" stroke-linejoin="round" stroke-miterlimit="10" d="M12 23.25c6.2132 0 11.25 -5.0368 11.25 -11.25S18.2132 0.75 12 0.75C5.78679 0.75 0.75 5.7868 0.75 12S5.78679 23.25 12 23.25Z" stroke-width="1"></path><path stroke="#000000" stroke-linecap="round" stroke-linejoin="round" stroke-miterlimit="10" d="M12 18c3.3137 0 6 -2.6863 6 -6 0 -3.31371 -2.6863 -6 -6 -6 -3.31371 0 -6 2.68629 -6 6 0 3.3137 2.68629 6 6 6Z" stroke-width="1"></path><path stroke="#000000" stroke-linecap="round" stroke-linejoin="round" stroke-miterlimit="10" d="M12 14.0781c1.1477 0 2.0781 -0.9304 2.0781 -2.0781S13.1477 9.92188 12 9.92188 9.92188 10.8523 9.92188 12c0 1.1477 0.93042 2.0781 2.07812 2.0781Z" stroke-width="1"></path><path stroke="#000000" stroke-linecap="round" stroke-linejoin="round" stroke-miterlimit="10" d="M13.3 10.4c1.3 -2.19998 -0.7 -4 -1.3 -4.4 -0.5 0.5 -2.60001 2.20002 -1.3 4.4" stroke-width="1"></path><path stroke="#000000" stroke-linecap="round" stroke-linejoin="round" stroke-miterlimit="10" d="M10.4 10.7c-2.20001 -1.29998 -4.00001 0.7 -4.40001 1.3 0.5 0.5 2.2 2.6 4.40001 1.3" stroke-width="1"></path><path stroke="#000000" stroke-linecap="round" stroke-linejoin="round" stroke-miterlimit="10" d="M10.7 13.6c-1.3 2.2 0.7 4 1.3 4.4 0.5 -0.5 2.6 -2.2 1.3 -4.4" stroke-width="1"></path><path stroke="#000000" stroke-linecap="round" stroke-linejoin="round" stroke-miterlimit="10" d="M13.6 13.3c2.2 1.3 4 -0.7 4.4 -1.3 -0.5 -0.5 -2.2 -2.6 -4.4 -1.3" stroke-width="1"></path><path stroke="#000000" stroke-linecap="round" stroke-linejoin="round" stroke-miterlimit="10" d="M10.7 6.09998C10.3 5.49998 9.99999 4.6 9.99999 4 9.99999 2.9 12 0.799988 12 0.799988S14 2.9 14 4c0 0.6 -0.3 1.49998 -0.7 2.09998" stroke-width="1"></path><path stroke="#000000" stroke-linecap="round" stroke-linejoin="round" stroke-miterlimit="10" d="M7.57763 7.94944C7.26639 7.26652 6.58795 6.59277 6.1 6.3c-0.9 -0.6 -3.8 0.10004 -3.8 0.10004S3.1 9.2 4.1 9.8c0.49508 0.2971 1.38235 0.4961 2.17639 0.4029" stroke-width="1"></path><path stroke="#000000" stroke-linecap="round" stroke-linejoin="round" stroke-miterlimit="10" d="M6.27434 13.7969c-0.79352 -0.0926 -1.67968 0.1063 -2.17434 0.4031 -0.9 0.6 -1.8 3.4 -1.8 3.4s2.8 0.7 3.8 0.1c0.58521 -0.2926 1.17042 -0.9657 1.47727 -1.6482" stroke-width="1"></path><path stroke="#000000" stroke-linecap="round" stroke-linejoin="round" stroke-miterlimit="10" d="M13.3 17.9c0.4 0.6 0.7 1.5 0.7 2.1 0 1.1 -2 3.2 -2 3.2S9.99999 21.1 9.99999 20c0 -0.6 0.30001 -1.5 0.70001 -2.1" stroke-width="1"></path><path stroke="#000000" stroke-linecap="round" stroke-linejoin="round" stroke-miterlimit="10" d="M17.7256 13.7969c0.7936 -0.0926 1.6797 0.1063 2.1744 0.4031 1 0.6 1.8 3.4 1.8 3.4s-2.9 0.7 -3.8 0.1c-0.4861 -0.2916 -1.1612 -0.9613 -1.474 -1.6415" stroke-width="1"></path><path stroke="#000000" stroke-linecap="round" stroke-linejoin="round" stroke-miterlimit="10" d="M17.7274 10.2033c0.7931 0.0921 1.6783 -0.1067 2.1726 -0.4033 0.9 -0.6 1.8 -3.39996 1.8 -3.39996S18.9 5.7 17.9 6.3c-0.585 0.29251 -1.17 0.96531 -1.477 1.64759" stroke-width="1"></path></svg>