<svg xmlns="http://www.w3.org/2000/svg" fill="none" viewBox="0 0 24 24" id="Raksha-Bandhan-2--Streamline-Ultimate"><desc>Raksha Bandhan 2 Streamline Icon: https://streamlinehq.com</desc><path stroke="#000000" stroke-linecap="round" stroke-linejoin="round" stroke-miterlimit="10" d="M18.45 23.25v-4.9c0 -0.7 0.6 -1.4 1.4 -1.4 0.7 0 1.2 0.5 1.3 1.1l0.3 1.9v-6.3c0 -0.7 0.5 -1.2 1.2 -1.2h0.6" stroke-width="1"></path><path stroke="#000000" stroke-linecap="round" stroke-linejoin="round" stroke-miterlimit="10" d="m0.75 10.15 4.39999 -2.69999c0.6 -0.4 0.80001 -1.20002 0.40001 -1.90002 -0.4 -0.6 -1.10001 -0.8 -1.70001 -0.5l-1.7 0.70001L7.45 2.35004c0.6 -0.4 0.69999 -1.10004 0.39999 -1.60004" stroke-width="1"></path><path stroke="#000000" stroke-linecap="round" stroke-linejoin="round" stroke-miterlimit="10" d="M9.10001 7.90002 1.2 15.8c-0.6 0.6 -0.6 1.5 0 2.1 0.6 0.6 1.50001 0.6 2.10001 0L3.7 17.5" stroke-width="1"></path><path stroke="#000000" stroke-linecap="round" stroke-linejoin="round" stroke-miterlimit="10" d="m3.70002 17.5 -1.1 1.1c-0.6 0.6 -0.6 1.5 0 2.1 0.6 0.6 1.5 0.6 2.1 0l1.1 -1.1" stroke-width="1"></path><path stroke="#000000" stroke-linecap="round" stroke-linejoin="round" stroke-miterlimit="10" d="m5.79063 19.6 -1.09999 1.1c-0.6 0.6 -0.6 1.5 0 2.1 0.6 0.6 1.49999 0.6 2.09999 0l4.59997 -4.6" stroke-width="1"></path><path stroke="#000000" stroke-linecap="round" stroke-linejoin="round" stroke-miterlimit="10" d="m8.89063 20.7 0.80001 0.3c1.39996 0.5 2.99996 0.1 4.09996 -1l0.6 -0.6c1 -1 1.4 -2.5 1 -3.9l-0.8 -2.7 0.4 -0.4" stroke-width="1"></path><path stroke="#000000" stroke-linecap="round" stroke-linejoin="round" stroke-miterlimit="10" d="M15.1 9.09998c1.1046 0 2 -0.89543 2 -2s-0.8954 -2 -2 -2 -2 0.89543 -2 2 0.8954 2 2 2Z" stroke-width="1"></path><path stroke="#000000" stroke-linecap="round" stroke-linejoin="round" stroke-miterlimit="10" d="M18.3 10.6c-0.1105 0 -0.2 -0.0895 -0.2 -0.2 0 -0.1104 0.0895 -0.2 0.2 -0.2" stroke-width="1"></path><path stroke="#000000" stroke-linecap="round" stroke-linejoin="round" stroke-miterlimit="10" d="M18.3 10.6c0.1105 0 0.2 -0.0895 0.2 -0.2 0 -0.1104 -0.0895 -0.2 -0.2 -0.2" stroke-width="1"></path><path stroke="#000000" stroke-linecap="round" stroke-linejoin="round" stroke-miterlimit="10" d="M11.8 4.09998c-0.1104 0 -0.2 -0.0895 -0.2 -0.19996 0 -0.11045 0.0896 -0.20001 0.2 -0.20001" stroke-width="1"></path><path stroke="#000000" stroke-linecap="round" stroke-linejoin="round" stroke-miterlimit="10" d="M11.8 4.09998c0.1105 0 0.2 -0.0895 0.2 -0.19996 0 -0.11045 -0.0895 -0.20001 -0.2 -0.20001" stroke-width="1"></path><path stroke="#000000" stroke-linecap="round" stroke-linejoin="round" stroke-miterlimit="10" d="m16.275 0.75 -1.2 1.20001" stroke-width="1"></path><path stroke="#000000" stroke-linecap="round" stroke-linejoin="round" stroke-miterlimit="10" d="m23.25 3.72501 -2.5 2.5" stroke-width="1"></path></svg>