<svg xmlns="http://www.w3.org/2000/svg" fill="none" viewBox="0 0 24 24" id="Raksha-Bandhan-1--Streamline-Ultimate"><desc>Raksha Bandhan 1 Streamline Icon: https://streamlinehq.com</desc><path stroke="#000000" stroke-linecap="round" stroke-linejoin="round" stroke-miterlimit="10" d="M10.4312 4.35977 1.23125 13.5597c-0.6 0.6 -0.6 1.5001 0 2.1001 0.6 0.6 1.50001 0.6 2.10001 0l1.09999 -1.1001" stroke-width="1"></path><path stroke="#000000" stroke-linecap="round" stroke-linejoin="round" stroke-miterlimit="10" d="m4.03125 14.9597 -1.1 1.1c-0.6 0.6 -0.6 1.5001 0 2.1001 0.6 0.6 1.5 0.6 2.1 0l1.10001 -1.1001" stroke-width="1"></path><path stroke="#000000" stroke-linecap="round" stroke-linejoin="round" stroke-miterlimit="10" d="m5.73125 17.4597 -1.10001 1.1c-0.6 0.6 -0.6 1.5001 0 2.1001 0.6 0.6 1.50001 0.6 2.10001 0l1.09999 -1.1001" stroke-width="1"></path><path stroke="#000000" stroke-linecap="round" stroke-linejoin="round" stroke-miterlimit="10" d="m7.83359 19.5621 -1.09999 1.1c-0.6 0.6 -0.6 1.5 0 2.1 0.6 0.6 1.49999 0.6 2.09999 0l4.60001 -4.6" stroke-width="1"></path><path stroke="#000000" stroke-linecap="round" stroke-linejoin="round" stroke-miterlimit="10" d="m11.0336 20.6621 0.8 0.3c1.4 0.5 3 0.1 4.1 -1l1.2 -1.2c1 -1 1.4 -2.5 1 -3.9l-0.8 -2.7 0.4 -0.4" stroke-width="1"></path><path stroke="#000000" stroke-linecap="round" stroke-linejoin="round" stroke-miterlimit="10" d="M17.1938 8.21292c1.1045 0 2 -0.89543 2 -2s-0.8955 -2 -2 -2c-1.1046 0 -2 0.89543 -2 2s0.8954 2 2 2Z" stroke-width="1"></path><path stroke="#000000" stroke-linecap="round" stroke-linejoin="round" stroke-miterlimit="10" d="M11.9937 1.18793c-0.1104 0 -0.2 -0.08956 -0.2 -0.200015 0 -0.110457 0.0896 -0.200012 0.2 -0.200012" stroke-width="1"></path><path stroke="#000000" stroke-linecap="round" stroke-linejoin="round" stroke-miterlimit="10" d="M11.9938 1.18793c0.1104 0 0.2 -0.08956 0.2 -0.200015 0 -0.110457 -0.0896 -0.200012 -0.2 -0.200012" stroke-width="1"></path><path stroke="#000000" stroke-linecap="round" stroke-linejoin="round" stroke-miterlimit="10" d="M13.9937 3.21292c-0.1104 0 -0.2 -0.08955 -0.2 -0.20001 0 -0.11046 0.0896 -0.20001 0.2 -0.20001" stroke-width="1"></path><path stroke="#000000" stroke-linecap="round" stroke-linejoin="round" stroke-miterlimit="10" d="M13.9938 3.21292c0.1104 0 0.2 -0.08955 0.2 -0.20001 0 -0.11046 -0.0896 -0.20001 -0.2 -0.20001" stroke-width="1"></path><path stroke="#000000" stroke-linecap="round" stroke-linejoin="round" stroke-miterlimit="10" d="M20.4938 9.71292c-0.1105 0 -0.2 -0.08955 -0.2 -0.20001 0 -0.11046 0.0895 -0.20001 0.2 -0.20001" stroke-width="1"></path><path stroke="#000000" stroke-linecap="round" stroke-linejoin="round" stroke-miterlimit="10" d="M20.4938 9.71292c0.1104 0 0.2 -0.08955 0.2 -0.20001 0 -0.11046 -0.0896 -0.20001 -0.2 -0.20001" stroke-width="1"></path><path stroke="#000000" stroke-linecap="round" stroke-linejoin="round" stroke-miterlimit="10" d="M22.4938 11.7129c-0.1105 0 -0.2 -0.0895 -0.2 -0.2 0 -0.1104 0.0895 -0.2 0.2 -0.2" stroke-width="1"></path><path stroke="#000000" stroke-linecap="round" stroke-linejoin="round" stroke-miterlimit="10" d="M22.4938 11.7129c0.1104 0 0.2 -0.0895 0.2 -0.2 0 -0.1104 -0.0896 -0.2 -0.2 -0.2" stroke-width="1"></path><path stroke="#000000" stroke-linecap="round" stroke-linejoin="round" stroke-miterlimit="10" d="m22.3188 6.91293 0.9 -0.90002" stroke-width="1"></path></svg>