<svg xmlns="http://www.w3.org/2000/svg" fill="none" viewBox="0 0 24 24" id="Raksha-Bandhan-3--Streamline-Ultimate"><desc>Raksha Bandhan 3 Streamline Icon: https://streamlinehq.com</desc><path stroke="#000000" stroke-linecap="round" stroke-linejoin="round" stroke-miterlimit="10" d="M12 15.55c1.1046 0 2 -0.8954 2 -2s-0.8954 -2 -2 -2 -2 0.8954 -2 2 0.8954 2 2 2Z" stroke-width="1"></path><path stroke="#000000" stroke-linecap="round" stroke-linejoin="round" stroke-miterlimit="10" d="M4 14.45c-0.11046 0 -0.20001 -0.0896 -0.20001 -0.2001 0 -0.1104 0.08955 -0.2 0.20001 -0.2" stroke-width="1"></path><path stroke="#000000" stroke-linecap="round" stroke-linejoin="round" stroke-miterlimit="10" d="M3.99994 14.45c0.11046 0 0.20001 -0.0896 0.20001 -0.2001 0 -0.1104 -0.08955 -0.2 -0.20001 -0.2" stroke-width="1"></path><path stroke="#000000" stroke-linecap="round" stroke-linejoin="round" stroke-miterlimit="10" d="M7 13.05c-0.11046 0 -0.20001 -0.0895 -0.20001 -0.2 0 -0.1104 0.08955 -0.2 0.20001 -0.2" stroke-width="1"></path><path stroke="#000000" stroke-linecap="round" stroke-linejoin="round" stroke-miterlimit="10" d="M1.125 13.05c-0.11046 0 -0.200012 -0.0895 -0.200012 -0.2 0 -0.1104 0.089552 -0.2 0.200012 -0.2" stroke-width="1"></path><path stroke="#000000" stroke-linecap="round" stroke-linejoin="round" stroke-miterlimit="10" d="M6.99994 13.05c0.11046 0 0.20001 -0.0895 0.20001 -0.2 0 -0.1104 -0.08955 -0.2 -0.20001 -0.2" stroke-width="1"></path><path stroke="#000000" stroke-linecap="round" stroke-linejoin="round" stroke-miterlimit="10" d="M1.12494 13.05c0.11046 0 0.20001 -0.0895 0.20001 -0.2 0 -0.1104 -0.08955 -0.2 -0.20001 -0.2" stroke-width="1"></path><path stroke="#000000" stroke-linecap="round" stroke-linejoin="round" stroke-miterlimit="10" d="M17 14.75c-0.1105 0 -0.2 -0.0896 -0.2 -0.2 0 -0.1105 0.0895 -0.2 0.2 -0.2" stroke-width="1"></path><path stroke="#000000" stroke-linecap="round" stroke-linejoin="round" stroke-miterlimit="10" d="M16.9999 14.75c0.1105 0 0.2001 -0.0896 0.2001 -0.2 0 -0.1105 -0.0896 -0.2 -0.2001 -0.2" stroke-width="1"></path><path stroke="#000000" stroke-linecap="round" stroke-linejoin="round" stroke-miterlimit="10" d="M20.0001 13.05c-0.1105 0 -0.2001 -0.0895 -0.2001 -0.2 0 -0.1104 0.0896 -0.2 0.2001 -0.2" stroke-width="1"></path><path stroke="#000000" stroke-linecap="round" stroke-linejoin="round" stroke-miterlimit="10" d="M20 13.05c0.1105 0 0.2 -0.0895 0.2 -0.2 0 -0.1104 -0.0895 -0.2 -0.2 -0.2" stroke-width="1"></path><path stroke="#000000" stroke-linecap="round" stroke-linejoin="round" stroke-miterlimit="10" d="M23.0001 14.45c-0.1105 0 -0.2001 -0.0896 -0.2001 -0.2001 0 -0.1104 0.0896 -0.2 0.2001 -0.2" stroke-width="1"></path><path stroke="#000000" stroke-linecap="round" stroke-linejoin="round" stroke-miterlimit="10" d="M23 14.45c0.1105 0 0.2 -0.0896 0.2 -0.2001 0 -0.1104 -0.0895 -0.2 -0.2 -0.2" stroke-width="1"></path><path stroke="#000000" stroke-linecap="round" stroke-linejoin="round" stroke-miterlimit="10" d="M19.7 16.95c-0.9 3 -4 3.3 -7.7 3.3 -3.3 0 -6.09999 0 -7.29999 -2.3" stroke-width="1"></path><path stroke="#000000" stroke-linecap="round" stroke-linejoin="round" stroke-miterlimit="10" d="M12 20.25v3" stroke-width="1"></path><path stroke="#000000" stroke-linecap="round" stroke-linejoin="round" stroke-miterlimit="10" d="M18.9 8.35004C16.9 4.65004 13.2 4.05 12 0.75c-1.4 3.6 -5.8 4 -7.5 9" stroke-width="1"></path></svg>