<svg xmlns="http://www.w3.org/2000/svg" fill="none" viewBox="0 0 24 24" id="Rama-Navami--Streamline-Ultimate"><desc>Rama Navami Streamline Icon: https://streamlinehq.com</desc><path stroke="#000000" stroke-linecap="round" stroke-linejoin="round" stroke-miterlimit="10" d="M23.247 22.4454s-1.0996 0.3998 -1.7992 -0.3999c-1.3994 -1.3994 2.3989 -6.0973 -1.4994 -9.8956 0 0 -0.9995 -0.9995 -1.9991 -0.6996 -0.3998 0.0999 -0.7996 -0.0001 -0.9995 -0.2 -0.4998 -0.4997 -3.6984 -3.69833 -4.1982 -4.19811 -0.2998 -0.29986 -0.3998 -0.69969 -0.1999 -0.99955 0.2999 -0.99956 -0.6997 -1.99911 -0.6997 -1.99911 -3.89826 -3.898271 -8.4962 0 -9.89558 -1.49934C1.25673 1.8545 1.5566 0.755005 1.5566 0.755005" stroke-width="1"></path><path stroke="#000000" stroke-linecap="round" stroke-linejoin="round" stroke-miterlimit="10" d="M1.95641 2.5542 21.5477 22.1455" stroke-width="1"></path><path stroke="#000000" stroke-linecap="round" stroke-linejoin="round" stroke-miterlimit="10" d="M23.1431 0.85495 7.64999 16.3481" stroke-width="1"></path><path stroke="#000000" stroke-linecap="round" stroke-linejoin="round" stroke-miterlimit="10" d="m4.55137 23.245 -0.59974 -3.1986 -3.198594 -0.5997 3.398514 -3.4984 3.49844 0.3998 0.39982 3.4984 -3.49844 3.3985Z" stroke-width="1"></path><path stroke="#000000" stroke-linecap="round" stroke-linejoin="round" stroke-miterlimit="10" d="M19.8445 0.755005h3.3986V4.15352" stroke-width="1"></path></svg>