<svg xmlns="http://www.w3.org/2000/svg" fill="none" viewBox="0 0 24 24" id="Ramlila-2--Streamline-Ultimate"><desc>Ramlila 2 Streamline Icon: https://streamlinehq.com</desc><path stroke="#000000" stroke-linecap="round" stroke-linejoin="round" stroke-miterlimit="10" d="M0.749989 13.75v-13H23.25v13" stroke-width="1"></path><path stroke="#000000" stroke-linecap="round" stroke-linejoin="round" stroke-miterlimit="10" d="M5.95 0.75S5.94999 8.95001 0.749989 8.95001c0 0 3.500001 0.10001 3.500001 4.69999" stroke-width="1"></path><path stroke="#000000" stroke-linecap="round" stroke-linejoin="round" stroke-miterlimit="10" d="M18.05 0.75s0 8.20001 5.2 8.20001c0 0 -3.5 0.10001 -3.5 4.69999" stroke-width="1"></path><path stroke="#000000" stroke-linecap="round" stroke-linejoin="round" stroke-miterlimit="10" d="M10.5 5.20001 12 3.79999l1.5 1.40002" stroke-width="1"></path><path stroke="#000000" stroke-linecap="round" stroke-linejoin="round" stroke-miterlimit="10" d="M12 3.79999 12 13" stroke-width="1"></path><path stroke="#000000" stroke-linecap="round" stroke-linejoin="round" stroke-miterlimit="10" d="m6.20001 9.70001 3 2.29999" stroke-width="1"></path><path stroke="#000000" stroke-linecap="round" stroke-linejoin="round" stroke-miterlimit="10" d="M16.8 10.5s-1.2 -3 -4.8 -3c-3.6 0 -4.79999 3 -4.79999 3" stroke-width="1"></path><path stroke="#000000" stroke-linecap="round" stroke-linejoin="round" stroke-miterlimit="10" d="M17.8 9.70001 14.8 12" stroke-width="1"></path><path stroke="#000000" stroke-linecap="round" stroke-linejoin="round" stroke-miterlimit="10" d="M3.54999 20.45c1.10457 0 2 -0.8954 2 -2s-0.89543 -2 -2 -2 -2 0.8954 -2 2 0.89543 2 2 2Z" stroke-width="1"></path><path stroke="#000000" stroke-linecap="round" stroke-linejoin="round" stroke-miterlimit="10" d="M0.749989 23.25c0 -1.5 1.200021 -2.8 2.800021 -2.8s2.79998 1.2 2.79998 2.8" stroke-width="1"></path><path stroke="#000000" stroke-linecap="round" stroke-linejoin="round" stroke-miterlimit="10" d="M12 20.45c1.1046 0 2 -0.8954 2 -2s-0.8954 -2 -2 -2 -2 0.8954 -2 2 0.8954 2 2 2Z" stroke-width="1"></path><path stroke="#000000" stroke-linecap="round" stroke-linejoin="round" stroke-miterlimit="10" d="M9.20001 23.25c0 -1.5 1.19999 -2.8 2.79999 -2.8 1.6 0 2.8 1.2 2.8 2.8" stroke-width="1"></path><path stroke="#000000" stroke-linecap="round" stroke-linejoin="round" stroke-miterlimit="10" d="M20.45 20.45c1.1046 0 2 -0.8954 2 -2s-0.8954 -2 -2 -2 -2 0.8954 -2 2 0.8954 2 2 2Z" stroke-width="1"></path><path stroke="#000000" stroke-linecap="round" stroke-linejoin="round" stroke-miterlimit="10" d="M17.65 23.25c0 -1.5 1.2 -2.8 2.8 -2.8 1.6 0 2.8 1.2 2.8 2.8" stroke-width="1"></path></svg>