<svg xmlns="http://www.w3.org/2000/svg" fill="none" viewBox="0 0 24 24" id="Thaipusam-1--Streamline-Ultimate"><desc>Thaipusam 1 Streamline Icon: https://streamlinehq.com</desc><path stroke="#000000" stroke-linecap="round" stroke-linejoin="round" stroke-miterlimit="10" d="M8.5 22.55c-3.5 -1.4 -6 -4.8 -6 -8.9C2.5 8.45002 12 0.75 12 0.75s9.5 7.70002 9.5 12.9c0 4 -2.5 7.5 -6 8.9" stroke-width="1"></path><path stroke="#000000" stroke-linecap="round" stroke-linejoin="round" stroke-miterlimit="10" d="M8.6 22.4501c-0.1 0.1 -0.1 0.3 -0.1 0.5s0.2 0.2999 0.3 0.2999h6.4c0.1 0 0.2 -0.0999 0.3 -0.2999 0 -0.2 0 -0.4 -0.1 -0.5l-2.7 -3.1c-0.4 -0.5 -1 -0.5 -1.4 0l-2.7 3.1Z" stroke-width="1"></path><path stroke="#000000" stroke-linecap="round" stroke-linejoin="round" stroke-miterlimit="10" d="M15 14.05c0.8 0 1.5 0.7 1.5 1.5s-0.7 1.5 -1.5 1.5H9c-0.8 0 -1.5 -0.7 -1.5 -1.5s0.7 -1.5 1.5 -1.5c-0.8 0 -1.5 -0.7 -1.5 -1.5s0.7 -1.5 1.5 -1.5c-0.8 0 -1.5 -0.7 -1.5 -1.49995 0 -0.8 0.7 -1.5 1.5 -1.5h6c0.8 0 1.5 0.7 1.5 1.5C16.5 10.35 15.8 11.05 15 11.05c0.8 0 1.5 0.7 1.5 1.5s-0.7 1.5 -1.5 1.5Z" stroke-width="1"></path><path stroke="#000000" stroke-linecap="round" stroke-linejoin="round" stroke-miterlimit="10" d="M12 12.75c-0.1105 0 -0.2 -0.0895 -0.2 -0.2 0 -0.1104 0.0895 -0.1999 0.2 -0.1999" stroke-width="1"></path><path stroke="#000000" stroke-linecap="round" stroke-linejoin="round" stroke-miterlimit="10" d="M12 12.75c0.1104 0 0.2 -0.0895 0.2 -0.2 0 -0.1104 -0.0896 -0.1999 -0.2 -0.1999" stroke-width="1"></path></svg>