<svg xmlns="http://www.w3.org/2000/svg" fill="none" viewBox="0 0 24 24" id="Ugadi-2--Streamline-Ultimate"><desc>Ugadi 2 Streamline Icon: https://streamlinehq.com</desc><path stroke="#000000" stroke-linecap="round" stroke-linejoin="round" stroke-miterlimit="10" d="M10.7575 8.75c5.5229 0 10 -1.79086 10 -4s-4.4771 -4 -10 -4C5.23469 0.75 0.757538 2.54086 0.757538 4.75s4.477152 4 9.999962 4Z" stroke-width="1"></path><path stroke="#000000" stroke-linecap="round" stroke-linejoin="round" stroke-miterlimit="10" d="M20.6575 6.6499c0.1 -0.6 0.1 -1.09995 0.1 -1.69995" stroke-width="1"></path><path stroke="#000000" stroke-linecap="round" stroke-linejoin="round" stroke-miterlimit="10" d="M0.757538 4.75c-0.1 2.5 0.799992 4.89993 2.399992 6.7999 0.7 0.8 1.50001 1.4001 2.40001 1.9001" stroke-width="1"></path><path stroke="#000000" stroke-linecap="round" stroke-linejoin="round" stroke-miterlimit="10" d="M2.55754 7.04993c1.9 -1.2 4.89999 -2 8.09996 -2 3.2 0 6.2 0.8 8.1 2" stroke-width="1"></path><path stroke="#000000" stroke-linecap="round" stroke-linejoin="round" stroke-miterlimit="10" d="m19.25 19.2 4 -2v-4.5l-4 -2 -4 2" stroke-width="1"></path><path stroke="#000000" stroke-linecap="round" stroke-linejoin="round" stroke-miterlimit="10" d="m19.25 14.7 4 -2" stroke-width="1"></path><path stroke="#000000" stroke-linecap="round" stroke-linejoin="round" stroke-miterlimit="10" d="M7.50377 16.85v4.3999l4.00003 2 4 -2V16.85l-4 -2 -4.00003 2Z" stroke-width="1"></path><path stroke="#000000" stroke-linecap="round" stroke-linejoin="round" stroke-miterlimit="10" d="m11.5038 18.85 4 -2" stroke-width="1"></path><path stroke="#000000" stroke-linecap="round" stroke-linejoin="round" stroke-miterlimit="10" d="m7.50377 16.85 4.00003 2v4.3999" stroke-width="1"></path></svg>