<svg xmlns="http://www.w3.org/2000/svg" fill="none" viewBox="0 0 24 24" id="Vaisakhi--Streamline-Ultimate"><desc>Vaisakhi Streamline Icon: https://streamlinehq.com</desc><path stroke="#000000" stroke-linecap="round" stroke-linejoin="round" stroke-miterlimit="10" d="M17.95 15.2c0 2.6 -0.4 6 -1.1 8H7.14999c-0.7 -2 -1.09999 -5.4 -1.09999 -8 0 -2.6 0.39999 -6.00005 1.09999 -8.00005H16.85c0.7 2 1.1 5.40005 1.1 8.00005Z" stroke-width="1"></path><path stroke="#000000" stroke-linecap="round" stroke-linejoin="round" stroke-miterlimit="10" d="m15.5 10.8 -7.00001 9" stroke-width="1"></path><path stroke="#000000" stroke-linecap="round" stroke-linejoin="round" stroke-miterlimit="10" d="m8.49999 10.8 7.00001 9" stroke-width="1"></path><path stroke="#000000" stroke-linecap="round" stroke-linejoin="round" stroke-miterlimit="10" d="M12 19.8v3.4" stroke-width="1"></path><path stroke="#000000" stroke-linecap="round" stroke-linejoin="round" stroke-miterlimit="10" d="M12 10.8V7.19995" stroke-width="1"></path><path stroke="#000000" stroke-linecap="round" stroke-linejoin="round" stroke-miterlimit="10" d="m6.35938 10.8 11.26562 0" stroke-width="1"></path><path stroke="#000000" stroke-linecap="round" stroke-linejoin="round" stroke-miterlimit="10" d="m6.39844 19.8 11.21096 0" stroke-width="1"></path><path stroke="#000000" stroke-linecap="round" stroke-linejoin="round" stroke-miterlimit="10" d="m3.5 1.02515 5.39999 3" stroke-width="1"></path><path stroke="#000000" stroke-linecap="round" stroke-linejoin="round" stroke-miterlimit="10" d="M8.89999 4.82507c0.44183 0 0.80001 -0.3581 0.80001 -0.79992 0 -0.44183 -0.35818 -0.80005 -0.80001 -0.80005 -0.44182 0 -0.8 0.35822 -0.8 0.80005 0 0.44182 0.35818 0.79992 0.8 0.79992Z" stroke-width="1"></path><path stroke="#000000" stroke-linecap="round" stroke-linejoin="round" stroke-miterlimit="10" d="m20.5 1.02502 -5.6 3" stroke-width="1"></path><path stroke="#000000" stroke-linecap="round" stroke-linejoin="round" stroke-miterlimit="10" d="M14.9 4.82507c0.4418 0 0.8 -0.35822 0.8 -0.80005 0 -0.44182 -0.3582 -0.80004 -0.8 -0.80004s-0.8 0.35822 -0.8 0.80004c0 0.44183 0.3582 0.80005 0.8 0.80005Z" stroke-width="1"></path><path stroke="#000000" stroke-linecap="round" stroke-linejoin="round" stroke-miterlimit="10" d="M17.95 23.2H5.99999" stroke-width="1"></path><path stroke="#000000" stroke-linecap="round" stroke-linejoin="round" stroke-miterlimit="10" d="M17.95 7.19995H5.99999" stroke-width="1"></path></svg>