<svg xmlns="http://www.w3.org/2000/svg" fill="none" viewBox="0 0 24 24" id="Photography-Equipment-Light--Streamline-Ultimate"><desc>Photography Equipment Light Streamline Icon: https://streamlinehq.com</desc><path stroke="#000000" stroke-linecap="round" stroke-linejoin="round" d="M18.75 0.75H5.25c-0.55228 0 -1 0.44772 -1 1v11.5c0 0.5523 0.44772 1 1 1h13.5c0.5523 0 1 -0.4477 1 -1V1.75c0 -0.55228 -0.4477 -1 -1 -1Z" stroke-width="1"></path><path stroke="#000000" stroke-linecap="round" stroke-linejoin="round" d="M23.25 7.5v8.15c0.0027 0.5526 -0.2136 1.0837 -0.6015 1.4773 -0.3879 0.3935 -0.9159 0.6174 -1.4685 0.6227H2.82002c-0.55256 -0.0053 -1.08055 -0.2292 -1.46847 -0.6227 -0.387916 -0.3936 -0.604195 -0.9247 -0.601526 -1.4773V7.5" stroke-width="1"></path><path stroke="#000000" stroke-linecap="round" stroke-linejoin="round" d="M10.5 23.25v-5.5h4v5.5" stroke-width="1"></path><path stroke="#000000" d="M7.75 5.75c-0.27614 0 -0.5 -0.22386 -0.5 -0.5s0.22386 -0.5 0.5 -0.5" stroke-width="1"></path><path stroke="#000000" d="M7.75 5.75c0.27614 0 0.5 -0.22386 0.5 -0.5s-0.22386 -0.5 -0.5 -0.5" stroke-width="1"></path><path stroke="#000000" d="M7.75 10.25c-0.27614 0 -0.5 -0.2239 -0.5 -0.5 0 -0.27614 0.22386 -0.5 0.5 -0.5" stroke-width="1"></path><path stroke="#000000" d="M7.75 10.25c0.27614 0 0.5 -0.2239 0.5 -0.5 0 -0.27614 -0.22386 -0.5 -0.5 -0.5" stroke-width="1"></path><path stroke="#000000" d="M12 5.75c-0.2761 0 -0.5 -0.22386 -0.5 -0.5s0.2239 -0.5 0.5 -0.5" stroke-width="1"></path><path stroke="#000000" d="M12 5.75c0.2761 0 0.5 -0.22386 0.5 -0.5s-0.2239 -0.5 -0.5 -0.5" stroke-width="1"></path><path stroke="#000000" d="M12 10.25c-0.2761 0 -0.5 -0.2239 -0.5 -0.5 0 -0.27614 0.2239 -0.5 0.5 -0.5" stroke-width="1"></path><path stroke="#000000" d="M12 10.25c0.2761 0 0.5 -0.2239 0.5 -0.5 0 -0.27614 -0.2239 -0.5 -0.5 -0.5" stroke-width="1"></path><g><path stroke="#000000" d="M16.25 5.75c-0.2761 0 -0.5 -0.22386 -0.5 -0.5s0.2239 -0.5 0.5 -0.5" stroke-width="1"></path><path stroke="#000000" d="M16.25 5.75c0.2761 0 0.5 -0.22386 0.5 -0.5s-0.2239 -0.5 -0.5 -0.5" stroke-width="1"></path></g><g><path stroke="#000000" d="M16.25 10.25c-0.2761 0 -0.5 -0.2239 -0.5 -0.5 0 -0.27614 0.2239 -0.5 0.5 -0.5" stroke-width="1"></path><path stroke="#000000" d="M16.25 10.25c0.2761 0 0.5 -0.2239 0.5 -0.5 0 -0.27614 -0.2239 -0.5 -0.5 -0.5" stroke-width="1"></path></g><path stroke="#000000" stroke-linecap="round" stroke-linejoin="round" d="M14.5 21.25h2.75" stroke-width="1"></path></svg>