<svg xmlns="http://www.w3.org/2000/svg" viewBox="0 0 24 24" id="Photography-Equipment-Lights-Background--Streamline-Ultimate"><desc>Photography Equipment Lights Background Streamline Icon: https://streamlinehq.com</desc><g><path d="M6 16.5a7.79 7.79 0 0 1 -1.83 5l-1.46 1.75h18.58l-1.46 -1.74a7.79 7.79 0 0 1 -1.83 -5" fill="none" stroke="#000000" stroke-linecap="round" stroke-linejoin="round" stroke-width="1"></path><path d="m9 15.75 6 0" fill="none" stroke="#000000" stroke-linecap="round" stroke-linejoin="round" stroke-width="1"></path><path d="m10.8 15.75 -1.3 4" fill="none" stroke="#000000" stroke-linecap="round" stroke-linejoin="round" stroke-width="1"></path><path d="m13.16 15.75 1.34 4" fill="none" stroke="#000000" stroke-linecap="round" stroke-linejoin="round" stroke-width="1"></path><path d="m23.25 20.25 -4.29 0" fill="none" stroke="#000000" stroke-linecap="round" stroke-linejoin="round" stroke-width="1"></path><path d="m2.25 11.5 0 8.75" fill="none" stroke="#000000" stroke-linecap="round" stroke-linejoin="round" stroke-width="1"></path><path d="m0.75 20.25 4.29 0" fill="none" stroke="#000000" stroke-linecap="round" stroke-linejoin="round" stroke-width="1"></path><path d="M4.56 11.5H1.87a1.12 1.12 0 0 1 -1.12 -1.12V9.12A1.12 1.12 0 0 1 1.87 8h2.69a1.21 1.21 0 0 1 0.64 -0.72l2 -0.76a0.25 0.25 0 0 1 0.35 0.26v5.94a0.25 0.25 0 0 1 -0.35 0.26l-2 -0.76a1.21 1.21 0 0 1 -0.64 -0.72Z" fill="none" stroke="#000000" stroke-linecap="round" stroke-linejoin="round" stroke-width="1"></path><path d="m21.75 11.5 0 8.75" fill="none" stroke="#000000" stroke-linecap="round" stroke-linejoin="round" stroke-width="1"></path><path d="M19.44 8a1.21 1.21 0 0 0 -0.64 -0.72l-1.95 -0.76a0.25 0.25 0 0 0 -0.35 0.26v5.94a0.25 0.25 0 0 0 0.35 0.26l1.95 -0.76a1.21 1.21 0 0 0 0.64 -0.72h2.68a1.12 1.12 0 0 0 1.13 -1.13V9.12A1.12 1.12 0 0 0 22.12 8Z" fill="none" stroke="#000000" stroke-linecap="round" stroke-linejoin="round" stroke-width="1"></path><path d="M6.25 0.75h11.5s1 0 1 1v1.5s0 1 -1 1H6.25s-1 0 -1 -1v-1.5s0 -1 1 -1" fill="none" stroke="#000000" stroke-linecap="round" stroke-linejoin="round" stroke-width="1"></path></g></svg>