<svg xmlns="http://www.w3.org/2000/svg" fill="none" viewBox="0 0 24 24" id="Protection-Mask-1--Streamline-Ultimate"><desc>Protection Mask 1 Streamline Icon: https://streamlinehq.com</desc><path stroke="#000000" stroke-linecap="round" stroke-linejoin="round" d="M7.091 19.864C4.357 17.616 1.5 14.491 1.5 11.25 1.5 5.037 5.309 0.75 12 0.75s10.5 4.287 10.5 10.5c0 3.241 -2.857 6.366 -5.591 8.614" stroke-width="1"></path><path stroke="#000000" stroke-linecap="round" stroke-linejoin="round" d="M12 23.25c2.8995 0 5.25 -2.3505 5.25 -5.25s-2.3505 -5.25 -5.25 -5.25c-2.89949 0 -5.25 2.3505 -5.25 5.25s2.35051 5.25 5.25 5.25Z" stroke-width="1"></path><path stroke="#000000" stroke-linecap="round" stroke-linejoin="round" d="M16.125 10.5c1.4497 0 2.625 -1.17525 2.625 -2.625S17.5747 5.25 16.125 5.25 13.5 6.42525 13.5 7.875s1.1753 2.625 2.625 2.625Z" stroke-width="1"></path><path stroke="#000000" stroke-linecap="round" stroke-linejoin="round" d="M7.875 10.5c1.44975 0 2.625 -1.17525 2.625 -2.625S9.32475 5.25 7.875 5.25 5.25 6.42525 5.25 7.875 6.42525 10.5 7.875 10.5Z" stroke-width="1"></path><path stroke="#000000" d="M12.0002 15.7233c-0.2071 0 -0.375 -0.1679 -0.375 -0.375s0.1679 -0.375 0.375 -0.375" stroke-width="1"></path><path stroke="#000000" d="M12.0002 15.7233c0.2072 0 0.375 -0.1679 0.375 -0.375s-0.1678 -0.375 -0.375 -0.375" stroke-width="1"></path><path stroke="#000000" d="M12.0002 21.0267c-0.2071 0 -0.375 -0.1679 -0.375 -0.375s0.1679 -0.375 0.375 -0.375" stroke-width="1"></path><path stroke="#000000" d="M12.0002 21.0267c0.2072 0 0.375 -0.1679 0.375 -0.375s-0.1678 -0.375 -0.375 -0.375" stroke-width="1"></path><g><path stroke="#000000" d="M9.34839 18.375c-0.20711 0 -0.375 -0.1679 -0.375 -0.375s0.16789 -0.375 0.375 -0.375" stroke-width="1"></path><path stroke="#000000" d="M9.34839 18.375c0.20711 0 0.375 -0.1679 0.375 -0.375s-0.16789 -0.375 -0.375 -0.375" stroke-width="1"></path></g><g><path stroke="#000000" d="M14.6516 18.375c-0.2071 0 -0.375 -0.1679 -0.375 -0.375s0.1679 -0.375 0.375 -0.375" stroke-width="1"></path><path stroke="#000000" d="M14.6516 18.375c0.2071 0 0.375 -0.1679 0.375 -0.375s-0.1679 -0.375 -0.375 -0.375" stroke-width="1"></path></g></svg>