<svg viewBox="0 0 24 24" xmlns="http://www.w3.org/2000/svg" id="Protection-Sand-Bag-Soldier--Streamline-Ultimate"><desc>Protection Sand Bag Soldier Streamline Icon: https://streamlinehq.com</desc><path d="M7.5 18.5H3A2.25 2.25 0 0 0 3 23h4.5a2.25 2.25 0 0 0 0 -4.5Z" fill="none" stroke="#000000" stroke-linecap="round" stroke-linejoin="round" stroke-width="1"></path><path d="M16.5 18.5H12a2.25 2.25 0 0 0 0 4.5h4.5a2.25 2.25 0 0 0 0 -4.5Z" fill="none" stroke="#000000" stroke-linecap="round" stroke-linejoin="round" stroke-width="1"></path><path d="M13.5 14H9a2.25 2.25 0 0 0 0 4.5h4.5a2.25 2.25 0 0 0 0 -4.5Z" fill="none" stroke="#000000" stroke-linecap="round" stroke-linejoin="round" stroke-width="1"></path><path d="M9 14H6.177a1.5 1.5 0 0 1 -1.342 -0.829L3.75 11H12" fill="none" stroke="#000000" stroke-linecap="round" stroke-linejoin="round" stroke-width="1"></path><path d="m0.75 9.5 0 1.5 3 0" fill="none" stroke="#000000" stroke-linecap="round" stroke-linejoin="round" stroke-width="1"></path><path d="M21.675 6.5a3.75 3.75 0 1 1 -7.35 0" fill="none" stroke="#000000" stroke-linecap="round" stroke-linejoin="round" stroke-width="1"></path><path d="M23.25 6.5a5.25 5.25 0 0 0 -10.5 0Z" fill="none" stroke="#000000" stroke-linecap="round" stroke-linejoin="round" stroke-width="1"></path><path d="M18 11h0a5.251 5.251 0 0 1 5.25 5.25V23" fill="none" stroke="#000000" stroke-linecap="round" stroke-linejoin="round" stroke-width="1"></path></svg>