<svg viewBox="0 0 24 24" xmlns="http://www.w3.org/2000/svg" id="Protection-Shield-Bolt--Streamline-Ultimate"><desc>Protection Shield Bolt Streamline Icon: https://streamlinehq.com</desc><path d="M10.293 5.665a0.75 0.75 0 0 1 0.671 -0.415h2.822a0.75 0.75 0 0 1 0.671 1.085L12.75 9.75h2.066a0.75 0.75 0 0 1 0.557 1.25l-4.824 5.36a0.375 0.375 0 0 1 -0.651 -0.3l0.6 -4.815H8.714a0.75 0.75 0 0 1 -0.671 -1.085Z" fill="none" stroke="#000000" stroke-linecap="round" stroke-linejoin="round" stroke-width="1"></path><path d="M2.25 3.923v7.614A11.907 11.907 0 0 0 9.882 22.65l1.041 0.4a3 3 0 0 0 2.154 0l1.041 -0.4a11.907 11.907 0 0 0 7.632 -11.113V3.923a1.487 1.487 0 0 0 -0.868 -1.362A21.7 21.7 0 0 0 12 0.75a21.7 21.7 0 0 0 -8.882 1.811 1.487 1.487 0 0 0 -0.868 1.362Z" fill="none" stroke="#000000" stroke-linecap="round" stroke-linejoin="round" stroke-width="1"></path></svg>