<svg viewBox="0 0 24 24" xmlns="http://www.w3.org/2000/svg" id="Protection-Shield-1--Streamline-Ultimate"><desc>Protection Shield 1 Streamline Icon: https://streamlinehq.com</desc><path d="M2.25 3.923v7.614A11.907 11.907 0 0 0 9.882 22.65l1.041 0.4a3 3 0 0 0 2.154 0l1.041 -0.4a11.907 11.907 0 0 0 7.632 -11.113V3.923a1.487 1.487 0 0 0 -0.868 -1.362A21.7 21.7 0 0 0 12 0.75a21.7 21.7 0 0 0 -8.882 1.811 1.487 1.487 0 0 0 -0.868 1.362Z" fill="none" stroke="#000000" stroke-linecap="round" stroke-linejoin="round" stroke-width="1"></path><path d="M8.715 18.316 18.75 8.281" fill="none" stroke="#000000" stroke-linecap="round" stroke-linejoin="round" stroke-width="1"></path><path d="M17.145 4.588 6.221 15.507" fill="none" stroke="#000000" stroke-linecap="round" stroke-linejoin="round" stroke-width="1"></path><path d="M5.25 5.916v5.8a8.214 8.214 0 0 0 5.3 7.586l0.711 0.274a2.047 2.047 0 0 0 1.47 0l0.711 -0.274a8.214 8.214 0 0 0 5.3 -7.586v-5.8a1.016 1.016 0 0 0 -0.592 -0.93A15.381 15.381 0 0 0 12 3.75a15.381 15.381 0 0 0 -6.158 1.236 1.016 1.016 0 0 0 -0.592 0.93Z" fill="none" stroke="#000000" stroke-linecap="round" stroke-linejoin="round" stroke-width="1"></path></svg>