<svg viewBox="0 0 24 24" xmlns="http://www.w3.org/2000/svg" id="Protection-Sand-Bag-1--Streamline-Ultimate"><desc>Protection Sand Bag 1 Streamline Icon: https://streamlinehq.com</desc><path d="M0.75 23.25h4.5a2.25 2.25 0 0 0 0 -4.5H0.75" fill="none" stroke="#000000" stroke-linecap="round" stroke-linejoin="round" stroke-width="1"></path><path d="M23.25 18.75h-4.5a2.25 2.25 0 0 0 0 4.5h4.5" fill="none" stroke="#000000" stroke-linecap="round" stroke-linejoin="round" stroke-width="1"></path><path d="M14.25 18.75h-4.5a2.25 2.25 0 0 0 0 4.5h4.5a2.25 2.25 0 0 0 0 -4.5Z" fill="none" stroke="#000000" stroke-linecap="round" stroke-linejoin="round" stroke-width="1"></path><path d="M0.75 14.25H3a2.25 2.25 0 0 1 0 4.5H0.75" fill="none" stroke="#000000" stroke-linecap="round" stroke-linejoin="round" stroke-width="1"></path><path d="M23.25 14.25H21a2.25 2.25 0 0 0 0 4.5h2.25" fill="none" stroke="#000000" stroke-linecap="round" stroke-linejoin="round" stroke-width="1"></path><path d="M2.25 11.25a4.5 4.5 0 0 1 4.5 -4.5h10.5a4.5 4.5 0 0 1 4.5 4.5" fill="none" stroke="#000000" stroke-linecap="round" stroke-linejoin="round" stroke-width="1"></path><path d="m6.75 11.25 10.5 0" fill="none" stroke="#000000" stroke-linecap="round" stroke-linejoin="round" stroke-width="1"></path><path d="M12.75 0.75h4a0.5 0.5 0 0 1 0.5 0.5v2a0.5 0.5 0 0 1 -0.5 0.5h-4l0 0v-3l0 0Z" fill="none" stroke="#000000" stroke-linecap="round" stroke-linejoin="round" stroke-width="1"></path><path d="m12.75 3.75 0 3" fill="none" stroke="#000000" stroke-linecap="round" stroke-linejoin="round" stroke-width="1"></path></svg>