<svg viewBox="0 0 24 24" xmlns="http://www.w3.org/2000/svg" id="Protection-Water-Fortress--Streamline-Ultimate"><desc>Protection Water Fortress Streamline Icon: https://streamlinehq.com</desc><path d="M3.75 18.75v-3.129a1.5 1.5 0 0 1 0.439 -1.06l5.872 -5.872a1.5 1.5 0 0 1 1.06 -0.439h9.258a1.5 1.5 0 0 1 1.06 0.439l1.372 1.372a1.5 1.5 0 0 1 0.439 1.06v9.129a1.5 1.5 0 0 1 -1.5 1.5H15a3.591 3.591 0 0 1 -3 1.5 3.3 3.3 0 0 1 -2.812 -1.563 3.314 3.314 0 0 1 -5.63 -0.005A3.3 3.3 0 0 1 0.75 23.25" fill="none" stroke="#000000" stroke-linecap="round" stroke-linejoin="round" stroke-width="1"></path><path d="M4.5 14.25h8.25a1.5 1.5 0 0 0 0 -3H7.5" fill="none" stroke="#000000" stroke-linecap="round" stroke-linejoin="round" stroke-width="1"></path><path d="M17.25 8.25V0.75H21a0.75 0.75 0 0 1 0.75 0.75V3a0.75 0.75 0 0 1 -0.75 0.75h-3.75" fill="none" stroke="#000000" stroke-linecap="round" stroke-linejoin="round" stroke-width="1"></path></svg>