<svg viewBox="0 0 24 24" xmlns="http://www.w3.org/2000/svg" id="Protection-Shield-5--Streamline-Ultimate"><desc>Protection Shield 5 Streamline Icon: https://streamlinehq.com</desc><path d="M14.25 8.25V0.857C13.541 0.789 12.79 0.75 12 0.75s-1.541 0.039 -2.25 0.107V8.25h-7.5v3.287a11.9 11.9 0 0 0 0.062 1.213H9.75v9.85l0.132 0.053 1.041 0.4a3 3 0 0 0 2.154 0l1.041 -0.4 0.132 -0.053v-9.85h7.438a11.9 11.9 0 0 0 0.062 -1.213V8.25Z" fill="none" stroke="#000000" stroke-linecap="round" stroke-linejoin="round" stroke-width="1"></path><path d="M2.25 3.923v7.614A11.907 11.907 0 0 0 9.882 22.65l1.041 0.4a3 3 0 0 0 2.154 0l1.041 -0.4a11.907 11.907 0 0 0 7.632 -11.113V3.923a1.487 1.487 0 0 0 -0.868 -1.362A21.72 21.72 0 0 0 12 0.75a21.72 21.72 0 0 0 -8.882 1.811 1.487 1.487 0 0 0 -0.868 1.362Z" fill="none" stroke="#000000" stroke-linecap="round" stroke-linejoin="round" stroke-width="1"></path></svg>