<svg xmlns="http://www.w3.org/2000/svg" viewBox="0 0 24 24" id="Protection-Helmet-Viking--Streamline-Ultimate"><desc>Protection Helmet Viking Streamline Icon: https://streamlinehq.com</desc><g><path d="M14.76 8.63c5.07 1.44 5.49 7 5.49 7.76v3.95a1.5 1.5 0 0 1 -1.5 1.5H5.25a1.5 1.5 0 0 1 -1.5 -1.5v-3.95c0 -0.62 0.47 -6.44 5.49 -7.76" fill="none" stroke="#000000" stroke-linecap="round" stroke-linejoin="round" stroke-width="1"></path><path d="m3.75 17.34 16.5 0" fill="none" stroke="#000000" stroke-linecap="round" stroke-linejoin="round" stroke-width="1"></path><path d="M10.5 17.34 9 7a1.5 1.5 0 0 1 1.49 -1.7h3A1.5 1.5 0 0 1 15 7l-1.5 10.34Z" fill="none" stroke="#000000" stroke-linecap="round" stroke-linejoin="round" stroke-width="1"></path><path d="M19.64 13.35a9.06 9.06 0 0 0 3.61 -6.51 7.43 7.43 0 0 0 -1.16 -4 0.75 0.75 0 0 0 -1.37 0.25 10.68 10.68 0 0 1 -4.45 6.14" fill="none" stroke="#000000" stroke-linecap="round" stroke-linejoin="round" stroke-width="1"></path><path d="M4.33 13.33A9.05 9.05 0 0 1 0.75 6.84a7.34 7.34 0 0 1 1.16 -4 0.75 0.75 0 0 1 1.37 0.25 10.73 10.73 0 0 0 4.43 6.14" fill="none" stroke="#000000" stroke-linecap="round" stroke-linejoin="round" stroke-width="1"></path></g></svg>