<svg viewBox="0 0 24 24" xmlns="http://www.w3.org/2000/svg" id="Protection-Sand-Bag--Streamline-Ultimate"><desc>Protection Sand Bag Streamline Icon: https://streamlinehq.com</desc><path d="M7.5 17.5H3A2.25 2.25 0 0 0 3 22h4.5a2.25 2.25 0 0 0 0 -4.5Z" fill="none" stroke="#000000" stroke-linecap="round" stroke-linejoin="round" stroke-width="1"></path><path d="M16.5 17.5H12a2.25 2.25 0 0 0 0 4.5h4.5a2.25 2.25 0 0 0 0 -4.5Z" fill="none" stroke="#000000" stroke-linecap="round" stroke-linejoin="round" stroke-width="1"></path><path d="M12 13H7.5a2.25 2.25 0 0 0 0 4.5H12a2.25 2.25 0 0 0 0 -4.5Z" fill="none" stroke="#000000" stroke-linecap="round" stroke-linejoin="round" stroke-width="1"></path><path d="M6.75 13.128V4.75a3 3 0 0 1 3 -3h12a1.5 1.5 0 0 1 1.5 1.5v15" fill="none" stroke="#000000" stroke-linecap="round" stroke-linejoin="round" stroke-width="1"></path><path d="M14.457 8.085a0.748 0.748 0 0 1 -0.671 0.415H6.75v-3h7.786a0.75 0.75 0 0 1 0.671 1.085Z" fill="none" stroke="#000000" stroke-linecap="round" stroke-linejoin="round" stroke-width="1"></path></svg>