<svg viewBox="0 0 24 24" xmlns="http://www.w3.org/2000/svg" id="Protection-Vest--Streamline-Ultimate"><desc>Protection Vest Streamline Icon: https://streamlinehq.com</desc><path d="m19.772 3.779 0.307 -2.279 -4.848 -0.75H8.764l-4.841 0.75 0.307 2.281A6.261 6.261 0 0 1 1.5 9.749h0l2.2 12.266a1.5 1.5 0 0 0 1.478 1.235h13.644a1.5 1.5 0 0 0 1.478 -1.235L22.5 9.75h0a6.26 6.26 0 0 1 -2.728 -5.971Z" fill="none" stroke="#000000" stroke-linecap="round" stroke-linejoin="round" stroke-width="1"></path><path d="M2.038 12.75H8.25a1.5 1.5 0 0 1 1.5 1.5v3a1.5 1.5 0 0 1 -1.5 1.5H3.115" fill="none" stroke="#000000" stroke-linecap="round" stroke-linejoin="round" stroke-width="1"></path><path d="M21.962 12.75H15.75a1.5 1.5 0 0 0 -1.5 1.5v3a1.5 1.5 0 0 0 1.5 1.5h5.135" fill="none" stroke="#000000" stroke-linecap="round" stroke-linejoin="round" stroke-width="1"></path><path d="M9 0.75v0.823a8.344 8.344 0 0 0 1.829 5.213h0a1.5 1.5 0 0 0 2.342 0h0A8.344 8.344 0 0 0 15 1.573V0.75" fill="none" stroke="#000000" stroke-linecap="round" stroke-linejoin="round" stroke-width="1"></path></svg>