<svg xmlns="http://www.w3.org/2000/svg" fill="none" viewBox="0 0 24 24" id="Layers-Lock--Streamline-Ultimate"><desc>Layers Lock Streamline Icon: https://streamlinehq.com</desc><path stroke="#000000" stroke-linecap="round" stroke-linejoin="round" d="M8.25301 13.664c-2.35115 -0.7546 -4.41995 -2.2009 -5.936 -4.15l-1.209 -1.554c-0.10217 -0.13157 -0.157632 -0.29342 -0.157632 -0.46s0.055462 -0.32843 0.157632 -0.46l1.209 -1.554c1.1469 -1.47453 2.6154 -2.66768 4.29349 -3.48844C8.28859 1.1768 10.132 0.750097 12 0.75v0c1.8682 0.000019 3.7118 0.42668 5.39 1.24744 1.6783 0.82076 3.147 2.01395 4.294 3.48856l1.208 1.554c0.1025 0.13143 0.1582 0.29333 0.1582 0.46 0 0.16667 -0.0557 0.32857 -0.1582 0.46l-1.208 1.554" stroke-width="1"></path><path stroke="#000000" stroke-linecap="round" stroke-linejoin="round" d="M10.5 10.937c-0.6793 -0.2968 -1.25532 -0.7885 -1.65526 -1.41266 -0.39994 -0.6242 -0.60584 -1.35297 -0.59167 -2.09417 0.01416 -0.7412 0.24776 -1.46156 0.67125 -2.07002 0.4235 -0.60847 1.01788 -1.07772 1.70798 -1.34843 0.6902 -0.27072 1.4451 -0.33075 2.1693 -0.1725 0.7243 0.15824 1.3854 0.52766 1.8997 1.06154 0.5143 0.53389 0.8588 1.20828 0.99 1.93793 0.1311 0.72965 0.043 1.48179 -0.2533 2.16135" stroke-width="1"></path><path stroke="#000000" stroke-linecap="round" stroke-linejoin="round" d="M20.25 15.75h-6c-0.8284 0 -1.5 0.6716 -1.5 1.5v4.5c0 0.8284 0.6716 1.5 1.5 1.5h6c0.8284 0 1.5 -0.6716 1.5 -1.5v-4.5c0 -0.8284 -0.6716 -1.5 -1.5 -1.5Z" stroke-width="1"></path><path stroke="#000000" stroke-linecap="round" stroke-linejoin="round" d="M17.25 11.25c-0.7956 0 -1.5587 0.3161 -2.1213 0.8787 -0.5626 0.5626 -0.8787 1.3257 -0.8787 2.1213v1.5h6v-1.5c0 -0.7956 -0.3161 -1.5587 -0.8787 -2.1213 -0.5626 -0.5626 -1.3257 -0.8787 -2.1213 -0.8787Z" stroke-width="1"></path><path stroke="#000000" d="M17.25 19.9041c-0.2071 0 -0.375 -0.1679 -0.375 -0.375 0 -0.2072 0.1679 -0.375 0.375 -0.375" stroke-width="1"></path><path stroke="#000000" d="M17.25 19.9041c0.2071 0 0.375 -0.1679 0.375 -0.375 0 -0.2072 -0.1679 -0.375 -0.375 -0.375" stroke-width="1"></path></svg>