<svg viewBox="0 0 24 24" xmlns="http://www.w3.org/2000/svg" id="Layers-Hide--Streamline-Ultimate"><desc>Layers Hide Streamline Icon: https://streamlinehq.com</desc><path d="M8.153 13.664a12.271 12.271 0 0 1 -5.936 -4.15L1.008 7.96a0.75 0.75 0 0 1 0 -0.92l1.209 -1.554A12.268 12.268 0 0 1 11.9 0.75h0a12.269 12.269 0 0 1 9.684 4.736l1.208 1.554a0.748 0.748 0 0 1 0 0.92l-1.208 1.554" fill="none" stroke="#000000" stroke-linecap="round" stroke-linejoin="round" stroke-width="1"></path><path d="M10.4 10.937A3.749 3.749 0 1 1 15.338 9" fill="none" stroke="#000000" stroke-linecap="round" stroke-linejoin="round" stroke-width="1"></path><path d="M11.15 17.25a6 6 0 1 0 12 0 6 6 0 1 0 -12 0Z" fill="none" stroke="#000000" stroke-linecap="round" stroke-linejoin="round" stroke-width="1"></path><path d="m14.15 17.25 6 0" fill="none" stroke="#000000" stroke-linecap="round" stroke-linejoin="round" stroke-width="1"></path></svg>