<svg xmlns="http://www.w3.org/2000/svg" fill="none" viewBox="0 0 24 24" id="Layers-Grid-Lock--Streamline-Ultimate"><desc>Layers Grid Lock Streamline Icon: https://streamlinehq.com</desc><path stroke="#000000" stroke-linecap="round" stroke-linejoin="round" d="M22.25 15.75h-7c-0.5523 0 -1 0.4477 -1 1v5.5c0 0.5523 0.4477 1 1 1h7c0.5523 0 1 -0.4477 1 -1v-5.5c0 -0.5523 -0.4477 -1 -1 -1Z" stroke-width="1"></path><path stroke="#000000" stroke-linecap="round" stroke-linejoin="round" d="M18.75 11.25c-0.7956 0 -1.5587 0.3161 -2.1213 0.8787 -0.5626 0.5626 -0.8787 1.3257 -0.8787 2.1213v1.5h6v-1.5c0 -0.7956 -0.3161 -1.5587 -0.8787 -2.1213 -0.5626 -0.5626 -1.3257 -0.8787 -2.1213 -0.8787Z" stroke-width="1"></path><path stroke="#000000" d="M18.75 19.9041c-0.2071 0 -0.375 -0.1679 -0.375 -0.375 0 -0.2072 0.1679 -0.375 0.375 -0.375" stroke-width="1"></path><path stroke="#000000" d="M18.75 19.9041c0.2071 0 0.375 -0.1679 0.375 -0.375 0 -0.2072 -0.1679 -0.375 -0.375 -0.375" stroke-width="1"></path><path stroke="#000000" stroke-linecap="round" stroke-linejoin="round" d="M11.25 18.75h-7.5c-0.79565 0 -1.55871 -0.3161 -2.12132 -0.8787C1.06607 17.3087 0.75 16.5456 0.75 15.75v-12c0 -0.79565 0.31607 -1.55871 0.87868 -2.12132C2.19129 1.06607 2.95435 0.75 3.75 0.75h12c0.7956 0 1.5587 0.31607 2.1213 0.87868 0.5626 0.56261 0.8787 1.32567 0.8787 2.12132v4.5" stroke-width="1"></path><path stroke="#000000" stroke-linecap="round" stroke-linejoin="round" d="M6.75 0.75v18" stroke-width="1"></path><path stroke="#000000" stroke-linecap="round" stroke-linejoin="round" d="M12.75 0.75v12" stroke-width="1"></path><path stroke="#000000" stroke-linecap="round" stroke-linejoin="round" d="M18.75 6.75h-18" stroke-width="1"></path><path stroke="#000000" stroke-linecap="round" stroke-linejoin="round" d="M12.75 12.75h-12" stroke-width="1"></path></svg>