<svg viewBox="0 0 24 24" xmlns="http://www.w3.org/2000/svg" id="Layers-Grid-Settings--Streamline-Ultimate"><desc>Layers Grid Settings Streamline Icon: https://streamlinehq.com</desc><path d="M8.25 18.75h-4.5a3 3 0 0 1 -3 -3v-12a3 3 0 0 1 3 -3h12a3 3 0 0 1 3 3v3" fill="none" stroke="#000000" stroke-linecap="round" stroke-linejoin="round" stroke-width="1"></path><path d="m6.75 0.75 0 18" fill="none" stroke="#000000" stroke-linecap="round" stroke-linejoin="round" stroke-width="1"></path><path d="m12.75 0.75 0 9" fill="none" stroke="#000000" stroke-linecap="round" stroke-linejoin="round" stroke-width="1"></path><path d="m18.75 6.75 -18 0" fill="none" stroke="#000000" stroke-linecap="round" stroke-linejoin="round" stroke-width="1"></path><path d="m8.25 12.75 -7.5 0" fill="none" stroke="#000000" stroke-linecap="round" stroke-linejoin="round" stroke-width="1"></path><path d="M15.75 16.5a1.5 1.5 0 1 0 3 0 1.5 1.5 0 1 0 -3 0Z" fill="none" stroke="#000000" stroke-linecap="round" stroke-linejoin="round" stroke-width="1"></path><path d="m18.525 10.7 0.442 1.453a0.993 0.993 0 0 0 1.173 0.681l1.473 -0.341a1.338 1.338 0 0 1 1.274 2.218l-1.03 1.111a1 1 0 0 0 0 1.362l1.03 1.111a1.338 1.338 0 0 1 -1.274 2.218l-1.473 -0.341a0.993 0.993 0 0 0 -1.173 0.681l-0.442 1.447a1.331 1.331 0 0 1 -2.549 0l-0.442 -1.453a0.993 0.993 0 0 0 -1.173 -0.681l-1.473 0.341a1.338 1.338 0 0 1 -1.274 -2.218l1.03 -1.111a1 1 0 0 0 0 -1.362l-1.03 -1.111a1.338 1.338 0 0 1 1.274 -2.218l1.473 0.341a0.993 0.993 0 0 0 1.173 -0.681l0.442 -1.453a1.331 1.331 0 0 1 2.549 0.006Z" fill="none" stroke="#000000" stroke-linecap="round" stroke-linejoin="round" stroke-width="1"></path></svg>