<svg xmlns="http://www.w3.org/2000/svg" fill="none" viewBox="0 0 24 24" id="Fists-Crashing-Conflict--Streamline-Ultimate"><desc>Fists Crashing Conflict Streamline Icon: https://streamlinehq.com</desc><path stroke="#000000" stroke-linecap="round" stroke-linejoin="round" d="m23.2068 17.1336 -1.0198 -1.0198s-0.087 -1.3399 -0.4631 -1.7107l-3.4246 -3.3796c-0.2223 -0.2194 -0.5238 -0.3426 -0.8381 -0.3426 -0.3144 0 -0.6158 0.1232 -0.8381 0.3426 -0.2223 0.2194 -0.3472 0.5169 -0.3472 0.8271 0 0.3103 0.1249 0.6078 0.3472 0.8272l-0.8381 -0.8272c-0.2223 -0.2193 -0.5238 -0.3426 -0.8382 -0.3426 -0.3143 0 -0.6158 0.1233 -0.8381 0.3426 -0.2223 0.2194 -0.3471 0.5169 -0.3471 0.8272 0 0.3102 0.1248 0.6077 0.3471 0.8271l-0.4174 -0.4119c-0.2223 -0.2194 -0.5237 -0.3426 -0.8381 -0.3426 -0.3143 0 -0.6158 0.1232 -0.8381 0.3426 -0.2223 0.2193 -0.3472 0.5169 -0.3472 0.8271 0 0.3102 0.1249 0.6078 0.3472 0.8271l0.4191 0.4136c-0.2223 -0.2194 -0.5238 -0.3426 -0.8382 -0.3426 -0.3143 0 -0.6158 0.1232 -0.8381 0.3426 -0.2223 0.2194 -0.3471 0.5169 -0.3471 0.8271 0 0.3103 0.1248 0.6078 0.3471 0.8272l1.2572 1.2406c-0.4446 0.4388 -0.6943 1.0338 -0.6943 1.6543s0.2497 1.2155 0.6943 1.6543c1.1654 1.1505 3.3236 1.9527 5.1265 1.8345" stroke-width="1"></path><path stroke="#000000" stroke-linecap="round" stroke-linejoin="round" d="m12.0137 18.054 1.2572 1.2406" stroke-width="1"></path><path stroke="#000000" stroke-linecap="round" stroke-linejoin="round" d="m13.2705 15.9862 -0.8381 -0.8271" stroke-width="1"></path><path stroke="#000000" stroke-linecap="round" stroke-linejoin="round" d="m14.947 14.332 -0.8381 -0.8271" stroke-width="1"></path><path stroke="#000000" stroke-linecap="round" stroke-linejoin="round" d="M0.793196 6.86639 1.813 7.88619s0.08701 1.33991 0.46313 1.71066l3.42456 3.37965c0.22228 0.2194 0.52376 0.3426 0.83812 0.3426 0.31435 0 0.61583 -0.1232 0.83812 -0.3426 0.22228 -0.2194 0.34716 -0.5169 0.34716 -0.8271 0 -0.3103 -0.12488 -0.6078 -0.34716 -0.8272l0.83812 0.8272c0.22228 0.2193 0.52376 0.3426 0.83812 0.3426 0.31435 0 0.61583 -0.1233 0.83811 -0.3426 0.22232 -0.2194 0.34712 -0.5169 0.34712 -0.8272 0 -0.3102 -0.1248 -0.6077 -0.34712 -0.8271l0.41742 0.4119c0.2223 0.2194 0.5237 0.3426 0.8381 0.3426 0.3143 0 0.6158 -0.1232 0.8381 -0.3426 0.2223 -0.2193 0.3472 -0.5169 0.3472 -0.8271 0 -0.31024 -0.1249 -0.60777 -0.3472 -0.82713l-0.4191 -0.41357c0.2223 0.21937 0.5238 0.34261 0.8382 0.34261 0.3143 0 0.6158 -0.12324 0.8381 -0.34261 0.2223 -0.21937 0.3471 -0.51689 0.3471 -0.82713 0 -0.31023 -0.1248 -0.60776 -0.3471 -0.82713l-1.2572 -1.24069c0.4446 -0.43873 0.6943 -1.03379 0.6943 -1.65425 0 -0.62047 -0.2497 -1.21553 -0.6943 -1.65426C10.8195 1.4852 8.6613 0.682974 6.85836 0.80122" stroke-width="1"></path><path stroke="#000000" stroke-linecap="round" stroke-linejoin="round" d="m11.9866 5.94604 -1.2572 -1.24069" stroke-width="1"></path><path stroke="#000000" stroke-linecap="round" stroke-linejoin="round" d="m10.7298 8.01381 0.8381 0.82713" stroke-width="1"></path><path stroke="#000000" stroke-linecap="round" stroke-linejoin="round" d="m9.05324 9.66799 0.83812 0.82711" stroke-width="1"></path><path stroke="#000000" stroke-linecap="round" stroke-linejoin="round" d="m14.479 2.00084 0.6641 -0.76418c0.0508 -0.05822 0.1134 -0.10487 0.1838 -0.13679 0.0703 -0.03192 0.1467 -0.04837 0.2239 -0.04823 0.0773 0.00013 0.1536 0.01684 0.2238 0.04901 0.0702 0.03216 0.1327 0.07903 0.1833 0.13742l1.3282 1.52837c0.0643 0.07386 0.1475 0.12885 0.2407 0.15912 0.0932 0.03027 0.1928 0.03467 0.2883 0.01274l1.9732 -0.45617c0.0753 -0.01728 0.1535 -0.01822 0.2291 -0.00275 0.0757 0.01547 0.1472 0.047 0.2097 0.09244 0.0625 0.04545 0.1144 0.10376 0.1525 0.171 0.038 0.06725 0.0612 0.14187 0.0679 0.21882l0.1768 2.01708c0.0084 0.09762 0.0432 0.1911 0.1008 0.27036 0.0576 0.07927 0.1357 0.14132 0.226 0.17945l1.8643 0.79142c0.0715 0.03009 0.1357 0.07526 0.1882 0.13243 0.0525 0.05717 0.0921 0.12499 0.116 0.19884 0.0239 0.07385 0.0316 0.15198 0.0225 0.22907 -0.009 0.07709 -0.0346 0.15132 -0.075 0.21763L22.024 8.73351c-0.0504 0.08397 -0.077 0.18004 -0.077 0.27795 0 0.09791 0.0266 0.19399 0.077 0.27795l1.0431 1.73559c0.0404 0.0663 0.066 0.1405 0.075 0.2176 0.0091 0.0771 0.0014 0.1553 -0.0225 0.2291 -0.0239 0.0739 -0.0635 0.1417 -0.116 0.1988 -0.0525 0.0572 -0.1167 0.1024 -0.1882 0.1325l-0.4661 0.1978" stroke-width="1"></path><path stroke="#000000" stroke-linecap="round" stroke-linejoin="round" d="m9.54785 22.0009 -0.66411 0.7642c-0.05075 0.0582 -0.11342 0.1048 -0.18375 0.1367 -0.07034 0.032 -0.14671 0.0484 -0.22395 0.0483 -0.07724 -0.0002 -0.15355 -0.0169 -0.22377 -0.049 -0.07022 -0.0322 -0.13273 -0.0791 -0.18328 -0.1375l-1.32822 -1.5283c-0.06436 -0.0739 -0.14756 -0.1289 -0.24073 -0.1592 -0.09317 -0.0302 -0.19281 -0.0346 -0.28829 -0.0127l-1.97323 0.4562c-0.07529 0.0173 -0.15341 0.0182 -0.2291 0.0027 -0.07569 -0.0154 -0.14718 -0.047 -0.20964 -0.0924 -0.06247 -0.0455 -0.11447 -0.1038 -0.1525 -0.171 -0.03802 -0.0673 -0.06118 -0.1419 -0.06792 -0.2188l-0.17681 -2.0171c-0.00837 -0.0976 -0.04322 -0.1911 -0.1008 -0.2704 -0.05758 -0.0792 -0.1357 -0.1413 -0.22595 -0.1794l-1.86431 -0.7914c-0.07155 -0.0301 -0.13577 -0.0753 -0.18827 -0.1325 -0.0525 -0.0571 -0.09205 -0.125 -0.11595 -0.1988 -0.0239 -0.0739 -0.031588 -0.152 -0.022539 -0.2291 0.00905 -0.0771 0.034624 -0.1513 0.074976 -0.2176L2.0029 15.2682c0.05037 -0.084 0.07697 -0.18 0.07697 -0.278 0 -0.0979 -0.0266 -0.1939 -0.07697 -0.2779L0.959707 12.9767c-0.040352 -0.0663 -0.065926 -0.1405 -0.074976 -0.2176 -0.009049 -0.0771 -0.001361 -0.1552 0.022539 -0.2291 0.0239 -0.0738 0.06345 -0.1417 0.11595 -0.1988 0.0525 -0.0572 0.11672 -0.1024 0.18827 -0.1325l0.46608 -0.1978" stroke-width="1"></path></svg>