<svg xmlns="http://www.w3.org/2000/svg" fill="none" viewBox="0 0 24 24" id="People-Conflict-2--Streamline-Ultimate"><desc>People Conflict 2 Streamline Icon: https://streamlinehq.com</desc><path stroke="#000000" stroke-linecap="round" stroke-linejoin="round" d="m1.05348 21.7794 0.76435 -3.1895c-0.52011 -0.8138 -0.78839 -1.7754 -0.76981 -2.7595 0.01858 -0.984 0.32316 -1.9447 0.87396 -2.7565 0.5508 -0.8119 1.32223 -1.4372 2.21356 -1.7943 0.89133 -0.3571 1.86113 -0.4294 2.78278 -0.2075 2.39443 0.5738 3.80958 2.8723 3.21278 5.2231 0.1267 0.8492 0.6453 1.5012 0.7592 2.4473 0.0075 0.063 0 0.1272 -0.0217 0.187 -0.0218 0.0599 -0.0571 0.1137 -0.1031 0.1567 -0.0459 0.043 -0.1011 0.074 -0.1607 0.0903 -0.0597 0.0163 -0.122 0.0174 -0.1816 0.0032l-0.92992 -0.2229 -0.36601 1.5274c-0.09708 0.405 -0.34487 0.7564 -0.68888 0.9769 -0.34401 0.2204 -0.75606 0.2918 -1.14549 0.1985l-0.73417 -0.1759 -0.36601 1.5273" stroke-width="1"></path><path stroke="#000000" stroke-linecap="round" stroke-linejoin="round" d="m22.9466 21.7794 -0.7644 -3.1895c0.5201 -0.8138 0.7884 -1.7754 0.7698 -2.7595 -0.0186 -0.984 -0.3231 -1.9447 -0.8739 -2.7565 -0.5508 -0.8119 -1.3223 -1.4372 -2.2136 -1.7943s-1.8611 -0.4294 -2.7828 -0.2075c-2.3944 0.5738 -3.8095 2.8723 -3.2128 5.2231 -0.1266 0.8492 -0.6452 1.5012 -0.7591 2.4473 -0.0075 0.063 -0.0001 0.1272 0.0217 0.187 0.0217 0.0599 0.0571 0.1137 0.103 0.1567 0.046 0.043 0.1012 0.074 0.1608 0.0903 0.0596 0.0163 0.1219 0.0174 0.1815 0.0032l0.93 -0.2229 0.366 1.5274c0.0971 0.405 0.3448 0.7564 0.6889 0.9769 0.344 0.2204 0.756 0.2918 1.1454 0.1985l0.7342 -0.1759 0.366 1.5273" stroke-width="1"></path><path stroke="#000000" stroke-linecap="round" stroke-linejoin="round" d="M16.7112 5.70287c0.0715 -0.06919 0.1107 -0.14849 0.1136 -0.2297 0.0028 -0.08122 -0.0307 -0.16142 -0.0973 -0.23234 -0.0665 -0.07091 -0.1636 -0.12998 -0.2813 -0.1711 -0.1176 -0.04113 -0.2515 -0.06282 -0.3879 -0.06285h-2.6067V0.989014L7.94293 6.32028c-0.07153 0.06916 -0.11077 0.14843 -0.11366 0.22963 -0.00288 0.08121 0.03069 0.1614 0.09724 0.23229 0.06656 0.0709 0.16369 0.12993 0.28137 0.171 0.11768 0.04107 0.25163 0.06268 0.38802 0.06262h2.6067v4.01788l5.5086 -5.33083Z" stroke-width="1"></path></svg>