<svg xmlns="http://www.w3.org/2000/svg" fill="none" viewBox="0 0 24 24" id="Dial-Pad-Disable--Streamline-Ultimate"><desc>Dial Pad Disable Streamline Icon: https://streamlinehq.com</desc><path stroke="#000000" stroke-linecap="round" stroke-linejoin="round" d="M4.59099 4.59116c-0.87868 0.87868 -2.3033 0.87868 -3.18198 0 -0.87868 -0.87868 -0.87868 -2.3033 0 -3.18198" stroke-width="1"></path><path stroke="#000000" stroke-linecap="round" stroke-linejoin="round" d="M12 5.25c1.2426 0 2.25 -1.00736 2.25 -2.25S13.2426 0.75 12 0.75 9.75 1.75736 9.75 3 10.7574 5.25 12 5.25Z" stroke-width="1"></path><path stroke="#000000" stroke-linecap="round" stroke-linejoin="round" d="M21 5.25c1.2426 0 2.25 -1.00736 2.25 -2.25S22.2426 0.75 21 0.75 18.75 1.75736 18.75 3 19.7574 5.25 21 5.25Z" stroke-width="1"></path><path stroke="#000000" stroke-linecap="round" stroke-linejoin="round" d="M3 14.25c1.24264 0 2.25 -1.0074 2.25 -2.25S4.24264 9.75 3 9.75 0.75 10.7574 0.75 12 1.75736 14.25 3 14.25Z" stroke-width="1"></path><path stroke="#000000" stroke-linecap="round" stroke-linejoin="round" d="M13.591 13.5912c-0.8787 0.8786 -2.3033 0.8786 -3.182 0 -0.87867 -0.8787 -0.87867 -2.3033 0 -3.182" stroke-width="1"></path><path stroke="#000000" stroke-linecap="round" stroke-linejoin="round" d="M21 14.25c1.2426 0 2.25 -1.0074 2.25 -2.25S22.2426 9.75 21 9.75s-2.25 1.0074 -2.25 2.25 1.0074 2.25 2.25 2.25Z" stroke-width="1"></path><path stroke="#000000" stroke-linecap="round" stroke-linejoin="round" d="M12 23.25c1.2426 0 2.25 -1.0074 2.25 -2.25s-1.0074 -2.25 -2.25 -2.25S9.75 19.7574 9.75 21s1.0074 2.25 2.25 2.25Z" stroke-width="1"></path><path stroke="#000000" stroke-linecap="round" d="m0.75 0.75 22.5 22.5" stroke-width="1"></path></svg>