<svg xmlns="http://www.w3.org/2000/svg" fill="none" viewBox="0 0 24 24" id="Local-Image-Cintent--Streamline-Ultimate"><desc>Local Image Cintent Streamline Icon: https://streamlinehq.com</desc><path stroke="#000000" d="M18.71 16.264c-0.2761 0 -0.5 -0.2239 -0.5 -0.5s0.2239 -0.5 0.5 -0.5" stroke-width="1"></path><path stroke="#000000" d="M18.71 16.264c0.2761 0 0.5 -0.2239 0.5 -0.5s-0.2239 -0.5 -0.5 -0.5" stroke-width="1"></path><path stroke="#000000" stroke-linecap="round" stroke-linejoin="round" d="M18.71 11.218c1.2042 0.0003 2.3589 0.4788 3.2103 1.3304 0.8514 0.8516 1.3297 2.0064 1.3297 3.2106 0 1.937 -2.712 5.626 -3.944 7.2 -0.0709 0.0904 -0.1615 0.1636 -0.2648 0.2139 -0.1033 0.0503 -0.2168 0.0764 -0.3317 0.0764s-0.2283 -0.0261 -0.3317 -0.0764c-0.1033 -0.0503 -0.1939 -0.1235 -0.2648 -0.2139 -1.232 -1.576 -3.944 -5.265 -3.944 -7.2 0.0003 -1.2042 0.4788 -2.3589 1.3304 -3.2103 0.8516 -0.8514 2.0064 -1.3307 3.2106 -1.3307Z" stroke-width="1"></path><path stroke="#000000" stroke-linecap="round" stroke-linejoin="round" d="M12.1 18.155H2.263c-0.40136 -0.0003 -0.7862 -0.1599 -1.06991 -0.4438C0.909373 17.4273 0.75 17.0424 0.75 16.641V2.263c0.000265 -0.40119 0.159755 -0.78587 0.44344 -1.06956C1.47713 0.909755 1.86181 0.750265 2.263 0.75h14.378c0.4014 0 0.7863 0.159373 1.0702 0.44309 0.2839 0.28371 0.4435 0.66855 0.4438 1.06991v6.054" stroke-width="1"></path><path stroke="#000000" stroke-linecap="round" stroke-linejoin="round" d="M0.75 13.614h11.1" stroke-width="1"></path><path stroke="#000000" stroke-linecap="round" stroke-linejoin="round" d="M14.393 9.779 13.113 7.3c-0.5 -0.841 -1.113 -0.746 -1.616 0.031l-1.89701 3.248 -1.872 -1.234c-0.228 -0.145 -0.368 -0.312 -0.609 -0.293 -0.11558 0.01811 -0.22563 0.06192 -0.32203 0.12821 -0.09639 0.06628 -0.17669 0.15335 -0.23497 0.25479l-2.508 4.179" stroke-width="1"></path><path stroke="#000000" stroke-linecap="round" stroke-linejoin="round" d="M5.56699 6.552c0.29948 0.0002 0.59229 -0.08843 0.8414 -0.25467 0.24911 -0.16624 0.44332 -0.40262 0.55806 -0.67925 0.11475 -0.27663 0.14487 -0.58108 0.08657 -0.87483 -0.05831 -0.29375 -0.20242 -0.56362 -0.41412 -0.77545 -0.2117 -0.21184 -0.48147 -0.35613 -0.77518 -0.41463 -0.29371 -0.0585 -0.59818 -0.02858 -0.87489 0.08598 -0.2767 0.11456 -0.51321 0.30862 -0.67962 0.55762 -0.1664 0.24899 -0.25522 0.54175 -0.25522 0.84123 0 0.40137 0.15937 0.78631 0.44308 1.07021 0.28372 0.2839 0.66855 0.44353 1.06992 0.44379v0Z" stroke-width="1"></path></svg>