<svg xmlns="http://www.w3.org/2000/svg" viewBox="0 0 24 24" id="Picture-Polaroid-Four--Streamline-Ultimate"><desc>Picture Polaroid Four Streamline Icon: https://streamlinehq.com</desc><defs></defs><title>picture-polaroid-four</title><path d="M1.75 13.5H9.5s1 0 1 1v7.75s0 1 -1 1H1.75s-1 0 -1 -1V14.5s0 -1 1 -1" fill="none" stroke="#000000" stroke-linecap="round" stroke-linejoin="round" stroke-width="1"></path><path d="m0.75 19.5 9.75 0" fill="none" stroke="#000000" stroke-linecap="round" stroke-linejoin="round" stroke-width="1"></path><path d="M1.75 0.75H9.5s1 0 1 1V9.5s0 1 -1 1H1.75s-1 0 -1 -1V1.75s0 -1 1 -1" fill="none" stroke="#000000" stroke-linecap="round" stroke-linejoin="round" stroke-width="1"></path><path d="m0.75 6.75 9.75 0" fill="none" stroke="#000000" stroke-linecap="round" stroke-linejoin="round" stroke-width="1"></path><path d="M14.5 0.75h7.75s1 0 1 1V9.5s0 1 -1 1H14.5s-1 0 -1 -1V1.75s0 -1 1 -1" fill="none" stroke="#000000" stroke-linecap="round" stroke-linejoin="round" stroke-width="1"></path><path d="m13.5 6.75 9.75 0" fill="none" stroke="#000000" stroke-linecap="round" stroke-linejoin="round" stroke-width="1"></path><path d="M14.5 13.5h7.75s1 0 1 1v7.75s0 1 -1 1H14.5s-1 0 -1 -1V14.5s0 -1 1 -1" fill="none" stroke="#000000" stroke-linecap="round" stroke-linejoin="round" stroke-width="1"></path><path d="m13.5 19.5 9.75 0" fill="none" stroke="#000000" stroke-linecap="round" stroke-linejoin="round" stroke-width="1"></path></svg>