<svg xmlns="http://www.w3.org/2000/svg" viewBox="0 0 24 24" id="Picture-Stack-Landscape--Streamline-Ultimate"><desc>Picture Stack Landscape Streamline Icon: https://streamlinehq.com</desc><g><path d="M2.25 0.75h15s0.75 0 0.75 0.75v17s0 0.75 -0.75 0.75h-15s-0.75 0 -0.75 -0.75v-17s0 -0.75 0.75 -0.75" fill="none" stroke="#000000" stroke-linecap="round" stroke-linejoin="round" stroke-width="1"></path><path d="M22.5 6.25V22.5a0.76 0.76 0 0 1 -0.75 0.75H7.5" fill="none" stroke="#000000" stroke-linecap="round" stroke-linejoin="round" stroke-width="1"></path><path d="m18 15.25 -16.5 0" fill="none" stroke="#000000" stroke-linecap="round" stroke-linejoin="round" stroke-width="1"></path><path d="m5 15.25 5.2 -7.43a1.5 1.5 0 0 1 2.36 -0.13L18 14" fill="none" stroke="#000000" stroke-linecap="round" stroke-linejoin="round" stroke-width="1"></path><path d="M6 3.75a1.5 1.5 0 1 1 -1.5 1.5A1.5 1.5 0 0 1 6 3.75" fill="none" stroke="#000000" stroke-linecap="round" stroke-linejoin="round" stroke-width="1"></path></g></svg>