<svg xmlns="http://www.w3.org/2000/svg" viewBox="0 0 24 24" id="Picture-Polaroid-Album-1--Streamline-Ultimate"><desc>Picture Polaroid Album 1 Streamline Icon: https://streamlinehq.com</desc><defs></defs><title>picture-polaroid-album-1</title><path d="M3.75 0.75h16.5s3 0 3 3v16.5s0 3 -3 3H3.75s-3 0 -3 -3V3.75s0 -3 3 -3" fill="none" stroke="#000000" stroke-linecap="round" stroke-linejoin="round" stroke-width="1"></path><path d="M6 5.25h3s0.75 0 0.75 0.75v3s0 0.75 -0.75 0.75H6s-0.75 0 -0.75 -0.75V6s0 -0.75 0.75 -0.75" fill="none" stroke="#000000" stroke-linecap="round" stroke-linejoin="round" stroke-width="1"></path><path d="M15 5.25h3s0.75 0 0.75 0.75v3s0 0.75 -0.75 0.75h-3s-0.75 0 -0.75 -0.75V6s0 -0.75 0.75 -0.75" fill="none" stroke="#000000" stroke-linecap="round" stroke-linejoin="round" stroke-width="1"></path><path d="M6 14.25h3s0.75 0 0.75 0.75v3s0 0.75 -0.75 0.75H6s-0.75 0 -0.75 -0.75v-3s0 -0.75 0.75 -0.75" fill="none" stroke="#000000" stroke-linecap="round" stroke-linejoin="round" stroke-width="1"></path><path d="M15 14.25h3s0.75 0 0.75 0.75v3s0 0.75 -0.75 0.75h-3s-0.75 0 -0.75 -0.75v-3s0 -0.75 0.75 -0.75" fill="none" stroke="#000000" stroke-linecap="round" stroke-linejoin="round" stroke-width="1"></path></svg>