<svg xmlns="http://www.w3.org/2000/svg" viewBox="0 0 24 24" id="Picture-Double-Shapes--Streamline-Ultimate"><desc>Picture Double Shapes Streamline Icon: https://streamlinehq.com</desc><defs></defs><title>picture-double-shapes</title><path d="M18.75 5.25v-0.978a2.011 2.011 0 0 0 -2 -2.022h-14a2.011 2.011 0 0 0 -2 2.022v9.456a2.011 2.011 0 0 0 2 2.022" fill="none" stroke="#000000" stroke-linecap="round" stroke-linejoin="round" stroke-width="1"></path><path d="M10 13.5h3.25s1 0 1 1v3.25s0 1 -1 1H10s-1 0 -1 -1V14.5s0 -1 1 -1" fill="none" stroke="#000000" stroke-linecap="round" stroke-linejoin="round" stroke-width="1"></path><path d="M16.75 18.75h2.625a0.875 0.875 0 0 0 0.875 -0.875 0.857 0.857 0 0 0 -0.1 -0.4l-3.2 -6.213a0.717 0.717 0 0 0 -1.275 0c-0.069 0.132 -0.156 0.3 -0.251 0.486" fill="none" stroke="#000000" stroke-linecap="round" stroke-linejoin="round" stroke-width="1"></path><path d="M7 8.25h15.25s1 0 1 1v11.5s0 1 -1 1H7s-1 0 -1 -1V9.25s0 -1 1 -1" fill="none" stroke="#000000" stroke-linecap="round" stroke-linejoin="round" stroke-width="1"></path></svg>