<svg xmlns="http://www.w3.org/2000/svg" viewBox="0 0 24 24" id="Picture-Polaroid-Landscape--Streamline-Ultimate"><desc>Picture Polaroid Landscape Streamline Icon: https://streamlinehq.com</desc><defs></defs><title>picture-polaroid-landscape</title><path d="M1.5 0.75H15s0.75 0 0.75 0.75v15s0 0.75 -0.75 0.75H1.5s-0.75 0 -0.75 -0.75v-15s0 -0.75 0.75 -0.75" fill="none" stroke="#000000" stroke-linecap="round" stroke-linejoin="round" stroke-width="1"></path><path d="m15.75 12.75 -15 0" fill="none" stroke="#000000" stroke-linecap="round" stroke-linejoin="round" stroke-width="1"></path><path d="m18.755 6.231 3.982 1.327a0.75 0.75 0 0 1 0.474 0.949l-4.743 14.23a0.75 0.75 0 0 1 -0.949 0.474L6.755 19.623" fill="none" stroke="#000000" stroke-linecap="round" stroke-linejoin="round" stroke-width="1"></path><path d="M5.25 12.75 9.4 6.818a1.5 1.5 0 0 1 2.36 -0.128l3.99 4.56" fill="none" stroke="#000000" stroke-linecap="round" stroke-linejoin="round" stroke-width="1"></path><path d="M3.375 5.063a1.688 1.688 0 1 0 3.376 0 1.688 1.688 0 1 0 -3.376 0" fill="none" stroke="#000000" stroke-linecap="round" stroke-linejoin="round" stroke-width="1"></path></svg>