<svg xmlns="http://www.w3.org/2000/svg" viewBox="0 0 24 24" id="Picture-Flower-1--Streamline-Ultimate"><desc>Picture Flower 1 Streamline Icon: https://streamlinehq.com</desc><g><path d="M2.25 0.75h19.5s1.5 0 1.5 1.5v19.5s0 1.5 -1.5 1.5H2.25s-1.5 0 -1.5 -1.5V2.25s0 -1.5 1.5 -1.5" fill="none" stroke="#000000" stroke-linecap="round" stroke-linejoin="round" stroke-width="1"></path><path d="m12 15.72 0 7.53" fill="none" stroke="#000000" stroke-linecap="round" stroke-linejoin="round" stroke-width="1"></path><path d="M13.69 13.82a0.73 0.73 0 0 1 0.35 -0.47 0.74 0.74 0 0 1 0.58 -0.07 2.22 2.22 0 0 0 2.49 -0.51c0.36 -0.61 0 -1.64 -0.8 -2.41a0.78 0.78 0 0 1 -0.23 -0.54 0.76 0.76 0 0 1 0.23 -0.54c0.8 -0.77 1.16 -1.81 0.8 -2.42a2.22 2.22 0 0 0 -2.49 -0.51 0.74 0.74 0 0 1 -0.62 -0.07 0.73 0.73 0 0 1 -0.35 -0.47c-0.27 -1.08 -1 -1.9 -1.69 -1.9s-1.42 0.82 -1.69 1.9a0.73 0.73 0 0 1 -0.35 0.47 0.74 0.74 0 0 1 -0.58 0.07 2.22 2.22 0 0 0 -2.49 0.51c-0.36 0.61 0 1.65 0.8 2.42a0.76 0.76 0 0 1 0.23 0.54 0.78 0.78 0 0 1 -0.23 0.54c-0.8 0.77 -1.16 1.8 -0.8 2.41a2.22 2.22 0 0 0 2.49 0.51 0.74 0.74 0 0 1 0.58 0.07 0.73 0.73 0 0 1 0.35 0.47c0.27 1.08 1 1.9 1.69 1.9s1.46 -0.82 1.73 -1.9Z" fill="none" stroke="#000000" stroke-linecap="round" stroke-linejoin="round" stroke-width="1"></path><path d="M10.5 9.75a1.5 1.5 0 1 0 3 0 1.5 1.5 0 1 0 -3 0" fill="none" stroke="#000000" stroke-linecap="round" stroke-linejoin="round" stroke-width="1"></path><path d="M8.71 20.62A4.45 4.45 0 0 1 7 19.94c-1.76 -1.08 -3.17 -4 -3.17 -4a9.21 9.21 0 0 1 5.19 1.2" fill="none" stroke="#000000" stroke-linecap="round" stroke-linejoin="round" stroke-width="1"></path><path d="M15.35 20.62a4.33 4.33 0 0 0 1.65 -0.68c1.77 -1.08 3.18 -4 3.18 -4a9.27 9.27 0 0 0 -5.2 1.2" fill="none" stroke="#000000" stroke-linecap="round" stroke-linejoin="round" stroke-width="1"></path></g></svg>