<svg xmlns="http://www.w3.org/2000/svg" fill="none" viewBox="0 0 24 24" id="Tags-Search--Streamline-Ultimate"><desc>Tags Search Streamline Icon: https://streamlinehq.com</desc><path stroke="#000000" stroke-linecap="round" stroke-linejoin="round" d="M9.06395 19.188c-0.28129 0.2812 -0.66276 0.4392 -1.0605 0.4392 -0.39775 0 -0.77921 -0.158 -1.0605 -0.4392l-5.379 -5.378c-0.13939 -0.1393 -0.24997 -0.3047 -0.32541 -0.4867 -0.07544 -0.1821 -0.11427 -0.3772 -0.11427 -0.5743 0 -0.197 0.03883 -0.3922 0.11427 -0.5742 0.07544 -0.1821 0.18602 -0.3475 0.32541 -0.4868L12.0639 1.18802c0.1394 -0.13926 0.3048 -0.249713 0.4869 -0.325038 0.182 -0.075324 0.3771 -0.114048 0.5741 -0.113958h5.375c0.3979 0 0.7794 0.158035 1.0607 0.439336 0.2813 0.28131 0.4393 0.66284 0.4393 1.06066v5.379c-0.0003 0.39769 -0.1586 0.77897 -0.44 1.06" stroke-width="1"></path><path stroke="#000000" d="M16.2539 4.87402c-0.2071 0 -0.375 -0.16789 -0.375 -0.375 0 -0.2071 0.1679 -0.375 0.375 -0.375" stroke-width="1"></path><path stroke="#000000" d="M16.2539 4.87402c0.2071 0 0.375 -0.16789 0.375 -0.375 0 -0.2071 -0.1679 -0.375 -0.375 -0.375" stroke-width="1"></path><path stroke="#000000" stroke-linecap="round" stroke-linejoin="round" d="M16.125 21.749c2.8995 0 5.25 -2.3505 5.25 -5.25s-2.3505 -5.25 -5.25 -5.25 -5.25 2.3505 -5.25 5.25 2.3505 5.25 5.25 5.25Z" stroke-width="1"></path><path stroke="#000000" stroke-linecap="round" stroke-linejoin="round" d="m22.8751 23.249 -3.014 -3.014" stroke-width="1"></path></svg>