<svg xmlns="http://www.w3.org/2000/svg" fill="none" viewBox="0 0 24 24" id="Tags-Settings--Streamline-Ultimate"><desc>Tags Settings Streamline Icon: https://streamlinehq.com</desc><path stroke="#000000" stroke-linecap="round" stroke-linejoin="round" d="m6.87898 19.188 -5.379 -5.378c-0.13939 -0.1393 -0.24996 -0.3047 -0.3254 -0.4867 -0.07545 -0.1821 -0.11428 -0.3772 -0.11428 -0.5743 0 -0.197 0.03883 -0.3922 0.11428 -0.5742 0.07544 -0.1821 0.18601 -0.3475 0.3254 -0.4868L12 1.18802c0.1393 -0.13926 0.3048 -0.249713 0.4868 -0.325038 0.1821 -0.075324 0.3772 -0.114048 0.5742 -0.113958h5.378c0.3978 0 0.7793 0.158035 1.0606 0.439336 0.2813 0.28131 0.4394 0.66284 0.4394 1.06066v5.379" stroke-width="1"></path><path stroke="#000000" d="M16.189 4.87402c-0.2071 0 -0.375 -0.16789 -0.375 -0.375 0 -0.2071 0.1679 -0.375 0.375 -0.375" stroke-width="1"></path><path stroke="#000000" d="M16.189 4.87402c0.2071 0 0.375 -0.16789 0.375 -0.375 0 -0.2071 -0.1679 -0.375 -0.375 -0.375" stroke-width="1"></path><path stroke="#000000" stroke-linecap="round" stroke-linejoin="round" d="M16.939 17.999c0.8284 0 1.5 -0.6715 1.5 -1.5 0 -0.8284 -0.6716 -1.5 -1.5 -1.5 -0.8285 0 -1.5 0.6716 -1.5 1.5 0 0.8285 0.6715 1.5 1.5 1.5Z" stroke-width="1"></path><path stroke="#000000" stroke-linecap="round" stroke-linejoin="round" d="m18.2141 10.7 0.442 1.453c0.0729 0.241 0.2346 0.4453 0.4523 0.5717 0.2177 0.1264 0.4753 0.1654 0.7207 0.1093l1.473 -0.342c0.2791 -0.0629 0.571 -0.0347 0.833 0.0804 0.2619 0.1151 0.4801 0.3111 0.6225 0.5592 0.1425 0.2481 0.2017 0.5353 0.1691 0.8195 -0.0327 0.2843 -0.1556 0.5506 -0.3506 0.7599l-1.03 1.111c-0.1721 0.185 -0.2677 0.4283 -0.2677 0.681 0 0.2527 0.0956 0.496 0.2677 0.681l1.03 1.111c0.1932 0.2098 0.3143 0.4757 0.3458 0.7591 0.0315 0.2834 -0.0283 0.5695 -0.1707 0.8165 -0.1424 0.2471 -0.3599 0.4422 -0.6209 0.557 -0.261 0.1149 -0.5519 0.1434 -0.8302 0.0814l-1.473 -0.341c-0.2454 -0.0566 -0.5032 -0.0177 -0.7211 0.1087 -0.2178 0.1265 -0.3794 0.3311 -0.4519 0.5723l-0.44 1.451c-0.0824 0.2739 -0.2509 0.5139 -0.4805 0.6846 -0.2295 0.1706 -0.508 0.2627 -0.794 0.2627 -0.286 0 -0.5644 -0.0921 -0.794 -0.2627 -0.2295 -0.1707 -0.398 -0.4107 -0.4805 -0.6846l-0.442 -1.452c-0.0727 -0.2413 -0.2345 -0.4459 -0.4525 -0.5724 -0.218 -0.1264 -0.4759 -0.1653 -0.7215 -0.1086l-1.472 0.341c-0.2791 0.0639 -0.5714 0.0366 -0.8339 -0.0779 -0.2625 -0.1146 -0.4812 -0.3103 -0.6242 -0.5585 -0.1429 -0.2482 -0.2025 -0.5356 -0.1699 -0.8201 0.0326 -0.2845 0.1557 -0.5511 0.351 -0.7605l1.03 -1.111c0.1721 -0.185 0.2677 -0.4283 0.2677 -0.681 0 -0.2527 -0.0956 -0.496 -0.2677 -0.681l-1.03 -1.111c-0.195 -0.2093 -0.3179 -0.4756 -0.3505 -0.7599 -0.0327 -0.2842 0.0265 -0.5714 0.169 -0.8195 0.1424 -0.2481 0.3606 -0.4441 0.6226 -0.5592 0.2619 -0.1151 0.5538 -0.1433 0.8329 -0.0804l1.472 0.342c0.2455 0.055 0.5026 0.0154 0.7202 -0.1108 0.2176 -0.1262 0.3796 -0.3298 0.4538 -0.5702l0.442 -1.453c0.0821 -0.2749 0.2508 -0.516 0.481 -0.6872 0.2302 -0.1713 0.5096 -0.26358 0.7965 -0.26313 0.2869 0.00045 0.566 0.0936 0.7957 0.26553 0.2297 0.172 0.3976 0.4136 0.4788 0.6888v0Z" stroke-width="1"></path></svg>