<svg xmlns="http://www.w3.org/2000/svg" fill="none" viewBox="0 0 24 24" id="Tags-Double-1--Streamline-Ultimate"><desc>Tags Double 1 Streamline Icon: https://streamlinehq.com</desc><path stroke="#000000" stroke-linecap="round" stroke-linejoin="round" d="M4.5 1.35303H12L22.5 11.853" stroke-width="1"></path><path stroke="#000000" stroke-linecap="round" stroke-linejoin="round" d="M9.129 4.35303H3c-0.39782 0 -0.77936 0.15803 -1.06066 0.43934 -0.2813 0.2813 -0.43934 0.66283 -0.43934 1.06066V11.981c-0.00009 0.197 0.03863 0.3921 0.11396 0.5742 0.07532 0.182 0.18577 0.3475 0.32504 0.4868l9.161 9.163c0.1775 0.1775 0.3966 0.3075 0.6374 0.3783 0.2408 0.0708 0.4955 0.0801 0.7407 0.0269 0.2453 -0.0531 0.4733 -0.1669 0.6632 -0.331 0.1899 -0.1641 0.3356 -0.3732 0.4237 -0.6082L15 17.853l3.819 -1.433c0.235 -0.0881 0.4441 -0.2338 0.6082 -0.4237 0.1641 -0.1899 0.2779 -0.4179 0.331 -0.6631 0.0532 -0.2453 0.0439 -0.5 -0.0269 -0.7408 -0.0708 -0.2407 -0.2009 -0.4599 -0.3783 -0.6374l-9.164 -9.16297c-0.2812 -0.28102 -0.66245 -0.43892 -1.06 -0.439Z" stroke-width="1"></path><path stroke="#000000" d="M6 9.22803c-0.20711 0 -0.375 -0.1679 -0.375 -0.375 0 -0.20711 0.16789 -0.375 0.375 -0.375" stroke-width="1"></path><path stroke="#000000" d="M6 9.22803c0.20711 0 0.375 -0.1679 0.375 -0.375 0 -0.20711 -0.16789 -0.375 -0.375 -0.375" stroke-width="1"></path></svg>