<svg xmlns="http://www.w3.org/2000/svg" fill="none" viewBox="0 0 24 24" id="Tags-Remove--Streamline-Ultimate"><desc>Tags Remove Streamline Icon: https://streamlinehq.com</desc><path stroke="#000000" stroke-linecap="round" stroke-linejoin="round" d="M8.99998 19.188c-0.28129 0.2812 -0.66275 0.4392 -1.0605 0.4392 -0.39774 0 -0.77921 -0.158 -1.0605 -0.4392l-5.379 -5.378c-0.13939 -0.1393 -0.24996 -0.3047 -0.3254 -0.4867 -0.07545 -0.1821 -0.11428 -0.3772 -0.11428 -0.5743 0 -0.197 0.03883 -0.3922 0.11428 -0.5742 0.07544 -0.1821 0.18601 -0.3475 0.3254 -0.4868L12 1.18802c0.1393 -0.13926 0.3048 -0.249713 0.4868 -0.325038 0.1821 -0.075324 0.3772 -0.114048 0.5742 -0.113958h5.378c0.3978 0 0.7793 0.158035 1.0606 0.439336 0.2813 0.28131 0.4394 0.66284 0.4394 1.06066v5.379c-0.0001 0.39755 -0.158 0.7788 -0.439 1.06" stroke-width="1"></path><path stroke="#000000" d="M16.189 4.87402c-0.2071 0 -0.375 -0.16789 -0.375 -0.375 0 -0.2071 0.1679 -0.375 0.375 -0.375" stroke-width="1"></path><path stroke="#000000" d="M16.189 4.87402c0.2071 0 0.375 -0.16789 0.375 -0.375 0 -0.2071 -0.1679 -0.375 -0.375 -0.375" stroke-width="1"></path><path stroke="#000000" stroke-linecap="round" stroke-linejoin="round" d="M16.939 23.249c3.3137 0 6 -2.6863 6 -6s-2.6863 -6 -6 -6 -6 2.6863 -6 6 2.6863 6 6 6Z" stroke-width="1"></path><path stroke="#000000" stroke-linecap="round" stroke-linejoin="round" d="m19.189 14.998 -4.5 4.5" stroke-width="1"></path><path stroke="#000000" stroke-linecap="round" stroke-linejoin="round" d="m14.689 14.998 4.5 4.5" stroke-width="1"></path></svg>