<svg xmlns="http://www.w3.org/2000/svg" viewBox="0 0 24 24" id="Protest--Streamline-Ultimate"><desc>Protest Streamline Icon: https://streamlinehq.com</desc><defs></defs><title>
protest</title><path d="M9 14.75a3 3 0 1 0 6 0 3 3 0 1 0 -6 0" fill="none" stroke="#000000" stroke-linecap="round" stroke-linejoin="round" stroke-width="1"></path><path d="M6.449 13.668A2.181 2.181 0 1 1 8.2 9.747" fill="none" stroke="#000000" stroke-linecap="round" stroke-linejoin="round" stroke-width="1"></path><path d="M3.691 20.554v-2.5L1.25 16.223a1.249 1.249 0 0 1 1.5 -2l2.17 1.627a1.914 1.914 0 0 1 1.16 -0.439" fill="none" stroke="#000000" stroke-linecap="round" stroke-linejoin="round" stroke-width="1"></path><path d="m0.75 6.25 6.5 0 0 -5.5 -6.5 0" fill="none" stroke="#000000" stroke-linecap="round" stroke-linejoin="round" stroke-width="1"></path><path d="m2.25 6.25 0 7.75" fill="none" stroke="#000000" stroke-linecap="round" stroke-linejoin="round" stroke-width="1"></path><path d="M17.551 13.668A2.181 2.181 0 1 0 15.8 9.747" fill="none" stroke="#000000" stroke-linecap="round" stroke-linejoin="round" stroke-width="1"></path><path d="M20.309 20.554v-2.5l2.441 -1.831a1.249 1.249 0 0 0 -1.5 -2l-2.17 1.627a1.914 1.914 0 0 0 -1.16 -0.439" fill="none" stroke="#000000" stroke-linecap="round" stroke-linejoin="round" stroke-width="1"></path><path d="m23.25 6.25 -6.5 0 0 -5.5 6.5 0" fill="none" stroke="#000000" stroke-linecap="round" stroke-linejoin="round" stroke-width="1"></path><path d="m21.75 6.25 0 7.75" fill="none" stroke="#000000" stroke-linecap="round" stroke-linejoin="round" stroke-width="1"></path><path d="M8.5 23.25v-2a3.5 3.5 0 0 1 7 0v2" fill="none" stroke="#000000" stroke-linecap="round" stroke-linejoin="round" stroke-width="1"></path></svg>