<svg xmlns="http://www.w3.org/2000/svg" viewBox="0 0 24 24" id="Protester--Streamline-Ultimate"><desc>Protester Streamline Icon: https://streamlinehq.com</desc><defs></defs><path d="M12.05 10.2a3 3 0 1 0 6 0 3 3 0 1 0 -6 0" fill="none" stroke="#000000" stroke-linecap="round" stroke-linejoin="round" stroke-width="1"></path><path d="m22.625 23.25 -2.639 -4.811A5.112 5.112 0 0 0 15.57 15.9h-3.905l-3.752 -4.166V4.576a1.534 1.534 0 0 0 -3.068 0v7.747a1.534 1.534 0 0 0 0.394 1.026l5.386 5.813v4.088" fill="none" stroke="#000000" stroke-linecap="round" stroke-linejoin="round" stroke-width="1"></path><path d="m17.618 21.093 1.007 2.157" fill="none" stroke="#000000" stroke-linecap="round" stroke-linejoin="round" stroke-width="1"></path><path d="m1.395 5.105 3.453 -0.361" fill="none" stroke="#000000" stroke-linecap="round" stroke-linejoin="round" stroke-width="1"></path><path d="m10.476 4.808 9.66 -1.09A1.489 1.489 0 1 0 19.7 0.774L9.987 2.538" fill="none" stroke="#000000" stroke-linecap="round" stroke-linejoin="round" stroke-width="1"></path><path d="m1.375 3.5 0 3.057" fill="none" stroke="#000000" stroke-linecap="round" stroke-linejoin="round" stroke-width="1"></path><path d="m11.22 10 7.659 0" fill="none" stroke="#000000" stroke-linecap="round" stroke-linejoin="round" stroke-width="1"></path></svg>