<svg xmlns="http://www.w3.org/2000/svg" viewBox="0 0 24 24" id="Protest-2--Streamline-Ultimate"><desc>Protest 2 Streamline Icon: https://streamlinehq.com</desc><defs></defs><path d="M4.5 20.25a2.625 2.625 0 1 0 -2.625 -2.625A2.625 2.625 0 0 0 4.5 20.25Z" fill="none" stroke="#000000" stroke-linecap="round" stroke-linejoin="round" stroke-width="1"></path><path d="M8.25 23.25a4.25 4.25 0 0 0 -7.5 0" fill="none" stroke="#000000" stroke-linecap="round" stroke-linejoin="round" stroke-width="1"></path><path d="M12 20.25a2.625 2.625 0 1 0 -2.625 -2.625A2.625 2.625 0 0 0 12 20.25Z" fill="none" stroke="#000000" stroke-linecap="round" stroke-linejoin="round" stroke-width="1"></path><path d="M15.75 23.25a4.25 4.25 0 0 0 -7.5 0" fill="none" stroke="#000000" stroke-linecap="round" stroke-linejoin="round" stroke-width="1"></path><path d="M19.5 20.25a2.625 2.625 0 1 0 -2.625 -2.625A2.625 2.625 0 0 0 19.5 20.25Z" fill="none" stroke="#000000" stroke-linecap="round" stroke-linejoin="round" stroke-width="1"></path><path d="M23.25 23.25a4.25 4.25 0 0 0 -7.5 0" fill="none" stroke="#000000" stroke-linecap="round" stroke-linejoin="round" stroke-width="1"></path><path d="M11.252 0.75a1 1 0 0 1 1 1v7.5a1 1 0 0 1 -1 1h-9.5a1 1 0 0 1 -1 -1v-7.5a1 1 0 0 1 1 -1" fill="none" stroke="#000000" stroke-linecap="round" stroke-linejoin="round" stroke-width="1"></path><path d="M3.502 4.75a3 3 0 1 0 6 0 3 3 0 1 0 -6 0" fill="none" stroke="#000000" stroke-linecap="round" stroke-linejoin="round" stroke-width="1"></path><path d="M8.624 2.629 4.381 6.871" fill="none" stroke="#000000" stroke-linecap="round" stroke-linejoin="round" stroke-width="1"></path><path d="m6.502 10.25 0 2.626" fill="none" stroke="#000000" stroke-linecap="round" stroke-linejoin="round" stroke-width="1"></path><path d="m15.3501362944 7.7842053106 0.6500664702 -3.9468232268s0.1625166175 -0.9867058068 1.1492224243 -0.8241891892l5.2621020672 0.8667011214s0.9867058067 0.1625166175 0.8241891892 1.1492224243l-0.6500664702 3.9468232269s-0.1625166176 0.9867058067 -1.1492224243 0.8241891891l-5.2621020673 -0.8667011214s-0.9867058067 -0.1625166175 -0.8241891891 -1.1492224243" fill="none" stroke="#000000" stroke-linecap="round" stroke-linejoin="round" stroke-width="1"></path><path d="m18.806 9.367 -0.488 2.96" fill="none" stroke="#000000" stroke-linecap="round" stroke-linejoin="round" stroke-width="1"></path></svg>