<svg xmlns="http://www.w3.org/2000/svg" viewBox="0 0 24 24" id="Protest-Police-Shield-3--Streamline-Ultimate"><desc>Protest Police Shield 3 Streamline Icon: https://streamlinehq.com</desc><defs></defs><path d="M4.226 3.71A3.518 3.518 0 1 1 10.5 6.855" fill="none" stroke="#000000" stroke-linecap="round" stroke-linejoin="round" stroke-width="1"></path><path d="m0.75 9.75 6.179 3.562a2 2 0 0 0 1.684 0.093L9.75 13v9.332l-0.971 0.633a2 2 0 0 1 -2.058 0l-5.485 -3.591a1 1 0 0 1 -0.486 -0.858Z" fill="none" stroke="#000000" stroke-linecap="round" stroke-linejoin="round" stroke-width="1"></path><path d="m0.75 9.75 1.473 -0.589" fill="none" stroke="#000000" stroke-linecap="round" stroke-linejoin="round" stroke-width="1"></path><path d="m3.5 14.679 2.25 1.571" fill="none" stroke="#000000" stroke-linecap="round" stroke-linejoin="round" stroke-width="1"></path><path d="M8.394 8.706a2 2 0 0 1 -1.788 0L4.053 7.43a1 1 0 0 1 -0.553 -0.894V3.418L6.606 4.97a2 2 0 0 0 1.788 0Z" fill="none" stroke="#000000" stroke-linecap="round" stroke-linejoin="round" stroke-width="1"></path><path d="M16.476 2.935a3.518 3.518 0 1 1 6.272 3.144" fill="none" stroke="#000000" stroke-linecap="round" stroke-linejoin="round" stroke-width="1"></path><path d="m13 9 6.179 3.562a2 2 0 0 0 1.684 0.093L22 12.25v9.332l-0.971 0.633a2 2 0 0 1 -2.058 0l-5.485 -3.591a1 1 0 0 1 -0.486 -0.858Z" fill="none" stroke="#000000" stroke-linecap="round" stroke-linejoin="round" stroke-width="1"></path><path d="m13 9 1.496 -0.598" fill="none" stroke="#000000" stroke-linecap="round" stroke-linejoin="round" stroke-width="1"></path><path d="M15.75 13.929 18 15.5" fill="none" stroke="#000000" stroke-linecap="round" stroke-linejoin="round" stroke-width="1"></path><path d="M20.644 7.931a2 2 0 0 1 -1.788 0L16.3 6.654a1 1 0 0 1 -0.553 -0.894V2.642L18.856 4.2a2 2 0 0 0 1.788 0Z" fill="none" stroke="#000000" stroke-linecap="round" stroke-linejoin="round" stroke-width="1"></path></svg>