<svg xmlns="http://www.w3.org/2000/svg" viewBox="0 0 24 24" id="Protest-Knuckle-Up--Streamline-Ultimate"><desc>Protest Knuckle Up Streamline Icon: https://streamlinehq.com</desc><defs></defs><path d="M5.625 23.25v-0.75a1 1 0 0 1 1 -1h9a1 1 0 0 1 1 1v0.75" fill="none" stroke="#000000" stroke-linecap="round" stroke-linejoin="round" stroke-width="1"></path><path d="M12.625 17c0.343 -2.511 3.75 -3.488 3.75 -3.488h-3.744a1.772 1.772 0 0 1 -1.772 -1.772h0a1.781 1.781 0 0 1 1.757 -1.773c2.945 -0.054 7.253 -0.328 7.253 3.643 0 3.906 -4.744 7.89 -4.744 7.89h-8l-0.919 -5.056a4.982 4.982 0 0 1 -0.081 -0.895V9.5a1.5 1.5 0 0 1 3 0V8a1.5 1.5 0 0 1 3 0v-0.5a1.5 1.5 0 0 1 3 0v0.75a1.5 1.5 0 0 1 3 0v2.329" fill="none" stroke="#000000" stroke-linecap="round" stroke-linejoin="round" stroke-width="1"></path><path d="m1.125 5.375 2 1" fill="none" stroke="#000000" stroke-linecap="round" stroke-linejoin="round" stroke-width="1"></path><path d="m8.375 0.75 0.5 2" fill="none" stroke="#000000" stroke-linecap="round" stroke-linejoin="round" stroke-width="1"></path><path d="m16.375 0.75 -0.5 2" fill="none" stroke="#000000" stroke-linecap="round" stroke-linejoin="round" stroke-width="1"></path><path d="m22.875 5.375 -2 1" fill="none" stroke="#000000" stroke-linecap="round" stroke-linejoin="round" stroke-width="1"></path></svg>