<svg xmlns="http://www.w3.org/2000/svg" viewBox="0 0 24 24" id="Cannabis-Shop-Online--Streamline-Ultimate"><desc>Cannabis Shop Online Streamline Icon: https://streamlinehq.com</desc><defs></defs><title>cannabis-shop-online</title><path d="M8.75 23.25H4.841a3 3 0 0 1 -3 -3V6.194" fill="none" stroke="#000000" stroke-linecap="round" stroke-linejoin="round" stroke-width="1"></path><path d="m13.841 6.194 0 2.306" fill="none" stroke="#000000" stroke-linecap="round" stroke-linejoin="round" stroke-width="1"></path><path d="M5.477 4.566A2.182 2.182 0 0 0 7.841 6.5a2.182 2.182 0 0 0 2.364 -1.934A2.181 2.181 0 0 0 12.568 6.5a2.182 2.182 0 0 0 2.364 -1.934l-1.439 -3.311a0.77 0.77 0 0 0 -0.769 -0.5H2.958a0.769 0.769 0 0 0 -0.769 0.5L0.75 4.566" fill="none" stroke="#000000" stroke-linecap="round" stroke-linejoin="round" stroke-width="1"></path><path d="M0.75 4.566A2.182 2.182 0 0 0 3.114 6.5a2.181 2.181 0 0 0 2.363 -1.934" fill="none" stroke="#000000" stroke-linecap="round" stroke-linejoin="round" stroke-width="1"></path><path d="m5.477 0.75 0 3.816" fill="none" stroke="#000000" stroke-linecap="round" stroke-linejoin="round" stroke-width="1"></path><path d="m10.205 0.75 0 3.816" fill="none" stroke="#000000" stroke-linecap="round" stroke-linejoin="round" stroke-width="1"></path><path d="M16.521 19.73c-1.094 1.294 -5.021 2.248 -5.583 1.32a6.3 6.3 0 0 1 1.962 -2.959c-3.076 -1.64 -3.316 -3.1 -3.347 -3.672a5.662 5.662 0 0 1 4.87 0.629 6.4 6.4 0 0 1 2.141 -5.114 6.4 6.4 0 0 1 2.14 5.114 4.813 4.813 0 0 1 4.544 -0.629c-0.031 0.577 -0.271 2.032 -3.348 3.672a6.3 6.3 0 0 1 1.964 2.959c-0.561 0.928 -4.25 -0.026 -5.345 -1.32" fill="none" stroke="#000000" stroke-linecap="round" stroke-linejoin="round" stroke-width="1"></path><path d="m16.521 19.73 0 3.52" fill="none" stroke="#000000" stroke-linecap="round" stroke-linejoin="round" stroke-width="1"></path></svg>