<svg xmlns="http://www.w3.org/2000/svg" viewBox="0 0 24 24" id="Cannabis-Cigarette--Streamline-Ultimate"><desc>Cannabis Cigarette Streamline Icon: https://streamlinehq.com</desc><defs></defs><title>cannabis-cigarette</title><path d="m8.291 16.849 -3.713 3.712a1 1 0 0 1 -1.414 0L1.043 18.44a1 1 0 0 1 0 -1.414L15.164 2.905 18.7 6.44" fill="none" stroke="#000000" stroke-linecap="round" stroke-linejoin="round" stroke-width="1"></path><path d="M7.556 17.584 4.02 14.048" fill="none" stroke="#000000" stroke-linecap="round" stroke-linejoin="round" stroke-width="1"></path><path d="M20.821 4.319 17.285 0.783" fill="none" stroke="#000000" stroke-linecap="round" stroke-linejoin="round" stroke-width="1"></path><path d="M15.869 18.013c-1.1 1.294 -5.347 2.248 -5.909 1.32a6.3 6.3 0 0 1 1.964 -2.959c-3.076 -1.64 -3.316 -3.095 -3.347 -3.672a6.587 6.587 0 0 1 5.2 0.629 6.4 6.4 0 0 1 2.14 -5.114 6.4 6.4 0 0 1 2.141 5.114 6.586 6.586 0 0 1 5.2 -0.629c-0.031 0.577 -0.271 2.032 -3.348 3.672a6.3 6.3 0 0 1 1.964 2.959c-0.561 0.928 -4.9 -0.026 -6 -1.32" fill="none" stroke="#000000" stroke-linecap="round" stroke-linejoin="round" stroke-width="1"></path><path d="m15.869 18.013 0 5.204" fill="none" stroke="#000000" stroke-linecap="round" stroke-linejoin="round" stroke-width="1"></path></svg>