<svg xmlns="http://www.w3.org/2000/svg" viewBox="0 0 24 24" id="Cannabis-Shop--Streamline-Ultimate"><desc>Cannabis Shop Streamline Icon: https://streamlinehq.com</desc><defs></defs><title>cannabis-shop</title><path d="M13.885 8.976A2.741 2.741 0 0 1 11.25 6.14a2.741 2.741 0 0 1 -2.635 2.836A2.741 2.741 0 0 1 5.979 6.14a2.741 2.741 0 0 1 -2.635 2.836A2.656 2.656 0 0 1 0.862 7.1a2.2 2.2 0 0 1 0.014 -1.432L2.39 1.39a0.963 0.963 0 0 1 0.9 -0.664h15.925a0.962 0.962 0 0 1 0.895 0.664l1.514 4.278a2.2 2.2 0 0 1 0.014 1.432 2.777 2.777 0 0 1 -1.388 1.621" fill="none" stroke="#000000" stroke-linecap="round" stroke-linejoin="round" stroke-width="1"></path><path d="m20.25 10.226 0 -1.505" fill="none" stroke="#000000" stroke-linecap="round" stroke-linejoin="round" stroke-width="1"></path><path d="M2.25 8.721v10.755a1.5 1.5 0 0 0 1.5 1.5h4.5" fill="none" stroke="#000000" stroke-linecap="round" stroke-linejoin="round" stroke-width="1"></path><path d="M16.521 19.754c-1.094 1.294 -5.021 2.246 -5.583 1.32a6.3 6.3 0 0 1 1.962 -2.959c-3.076 -1.64 -3.316 -3.095 -3.347 -3.672a5.658 5.658 0 0 1 4.87 0.629 6.4 6.4 0 0 1 2.141 -5.115 6.4 6.4 0 0 1 2.14 5.115 4.81 4.81 0 0 1 4.544 -0.629c-0.031 0.577 -0.271 2.032 -3.348 3.672a6.3 6.3 0 0 1 1.964 2.959c-0.561 0.928 -4.25 -0.026 -5.345 -1.32" fill="none" stroke="#000000" stroke-linecap="round" stroke-linejoin="round" stroke-width="1"></path><path d="m16.521 19.754 0 3.52" fill="none" stroke="#000000" stroke-linecap="round" stroke-linejoin="round" stroke-width="1"></path></svg>