<svg xmlns="http://www.w3.org/2000/svg" viewBox="0 0 24 24" id="Cannabis-Logistic-2--Streamline-Ultimate"><desc>Cannabis Logistic 2 Streamline Icon: https://streamlinehq.com</desc><defs></defs><title>cannabis-logistic-2</title><path d="M8.257 18.75h-6a1.5 1.5 0 0 1 -1.5 -1.5V6.75a1.5 1.5 0 0 1 1.5 -1.5h15a1.5 1.5 0 0 1 1.5 1.5V8" fill="none" stroke="#000000" stroke-linecap="round" stroke-linejoin="round" stroke-width="1"></path><path d="m18.273 5.647 -2.82 -4.229A1.5 1.5 0 0 0 14.205 0.75H5.31a1.5 1.5 0 0 0 -1.248 0.668l-2.82 4.229" fill="none" stroke="#000000" stroke-linecap="round" stroke-linejoin="round" stroke-width="1"></path><path d="m9.757 0.75 0 4.5" fill="none" stroke="#000000" stroke-linecap="round" stroke-linejoin="round" stroke-width="1"></path><path d="M16.514 19.73c-1.095 1.294 -5.022 2.248 -5.583 1.32a6.3 6.3 0 0 1 1.969 -2.959c-3.077 -1.64 -3.316 -3.1 -3.348 -3.672a5.663 5.663 0 0 1 4.871 0.629 6.4 6.4 0 0 1 2.14 -5.114 6.4 6.4 0 0 1 2.14 5.114 4.815 4.815 0 0 1 4.545 -0.629c-0.032 0.577 -0.271 2.032 -3.348 3.672a6.3 6.3 0 0 1 1.964 2.959c-0.562 0.928 -4.251 -0.026 -5.345 -1.32" fill="none" stroke="#000000" stroke-linecap="round" stroke-linejoin="round" stroke-width="1"></path><path d="m16.514 19.73 0 3.52" fill="none" stroke="#000000" stroke-linecap="round" stroke-linejoin="round" stroke-width="1"></path></svg>