<svg xmlns="http://www.w3.org/2000/svg" viewBox="0 0 24 24" id="Cannabis-Store--Streamline-Ultimate"><desc>Cannabis Store Streamline Icon: https://streamlinehq.com</desc><defs></defs><title>cannabis-store</title><path d="m16.795 8.997 1.897 -2.832 3.492 4.664 -3.413 1.132" fill="none" stroke="#000000" stroke-linecap="round" stroke-linejoin="round" stroke-width="1"></path><path d="M2.719 18.978c0.849 -0.781 2.914 -1.614 7.453 -0.4s5.7 -0.4 5.7 -0.4" fill="none" stroke="#000000" stroke-linecap="round" stroke-linejoin="round" stroke-width="1"></path><path d="M18.771 11.961 16.8 9l-2.633 1.75a7.248 7.248 0 0 0 -1.973 -1.411V3.516h0.465a1.229 1.229 0 0 0 1.229 -1.229h0a1.229 1.229 0 0 0 -1.229 -1.229H5.528A1.229 1.229 0 0 0 4.3 2.287h0a1.229 1.229 0 0 0 1.228 1.229h0.529v5.823a7.14 7.14 0 0 0 -4.086 6.7A7.249 7.249 0 0 0 9 22.941a7.159 7.159 0 0 0 7.284 -7.158A7.068 7.068 0 0 0 16 13.808Z" fill="none" stroke="#000000" stroke-linecap="round" stroke-linejoin="round" stroke-width="1"></path></svg>