<svg viewBox="0 0 24 24" xmlns="http://www.w3.org/2000/svg" id="Apple-Logo--Streamline-Ultimate"><desc>Apple Logo Streamline Icon: https://streamlinehq.com</desc><path d="M17.36 14a4.45 4.45 0 0 1 2.12 -3.74 4.6 4.6 0 0 0 -3.59 -1.95c-1.53 -0.15 -3 0.9 -3.76 0.9s-2 -0.88 -3.24 -0.86a4.81 4.81 0 0 0 -4.07 2.46c-1.73 3 -0.44 7.46 1.25 9.9 0.82 1.19 1.81 2.53 3.1 2.48s1.72 -0.8 3.22 -0.8 1.93 0.8 3.24 0.78 2.19 -1.22 3 -2.41A10.82 10.82 0 0 0 20 18a4.34 4.34 0 0 1 -2.64 -4Z" fill="none" stroke="#000000" stroke-linecap="round" stroke-linejoin="round" stroke-width="1"></path><path d="M15.31 4.36A5 5 0 0 0 16.48 0.77a5 5 0 0 0 -3.31 1.7A4.72 4.72 0 0 0 12 6a4.18 4.18 0 0 0 3.31 -1.64Z" fill="none" stroke="#000000" stroke-linecap="round" stroke-linejoin="round" stroke-width="1"></path></svg>