<svg xmlns="http://www.w3.org/2000/svg" viewBox="0 0 24 24" id="Ios-Logo-3--Streamline-Ultimate"><desc>Ios Logo 3 Streamline Icon: https://streamlinehq.com</desc><defs></defs><title>ios-3</title><path d="m5.125 20.75 0 2.5" stroke-linecap="round" stroke-linejoin="round" fill="none" stroke="#000000" stroke-width="1"></path><path d="M8.625 20.25a2.5 3 0 1 0 5 0 2.5 3 0 1 0 -5 0" stroke-linecap="round" stroke-linejoin="round" fill="none" stroke="#000000" stroke-width="1"></path><path d="M16.625 22.25a1.575 1.575 0 0 0 1.5 1 1.326 1.326 0 0 0 1.5 -1.5c0 -1.5 -3 -1.5 -3 -3a1.326 1.326 0 0 1 1.5 -1.5 1.575 1.575 0 0 1 1.5 1" stroke-linecap="round" stroke-linejoin="round" fill="none" stroke="#000000" stroke-width="1"></path><path d="M4.375 17.5a0.75 0.75 0 1 0 1.5 0 0.75 0.75 0 1 0 -1.5 0" stroke-miterlimit="10" fill="none" stroke="#000000" stroke-width="1"></path><path d="M14.625 8.25a2.7 2.7 0 0 1 1.643 -2.667A3.117 3.117 0 0 0 14.125 4.5c-1 0 -1 0.5 -2.5 0.5s-1.5 -0.5 -2.5 -0.5a3.327 3.327 0 0 0 -3 3.5c0 2.5 1.5 5.5 3 5.5 1 0 1.5 -0.5 2.5 -0.5s1.5 0.5 2.5 0.5c0.891 0 1.783 -1.06 2.359 -2.444a2.815 2.815 0 0 1 -1.859 -2.806Z" stroke-linecap="round" stroke-linejoin="round" fill="none" stroke="#000000" stroke-width="1"></path><path d="m12.125 2 1.25 -1.25" stroke-linecap="round" stroke-linejoin="round" fill="none" stroke="#000000" stroke-width="1"></path></svg>