<svg xmlns="http://www.w3.org/2000/svg" viewBox="0 0 24 24" id="Wear-Os-Logo--Streamline-Ultimate"><desc>Wear OS Logo Streamline Icon: https://streamlinehq.com</desc><g><path d="M19.33 6.37a1.96 1.96 0 1 0 3.92 0 1.96 1.96 0 1 0 -3.92 0" fill="none" stroke="#000000" stroke-linecap="round" stroke-linejoin="round" stroke-width="1"></path><path d="M16.89 11.75a1.96 1.96 0 1 0 3.92 0 1.96 1.96 0 1 0 -3.92 0" fill="none" stroke="#000000" stroke-linecap="round" stroke-linejoin="round" stroke-width="1"></path><path d="M14.94 19.58a2 2 0 0 1 -1.79 -1.15L8.26 7.67a2 2 0 1 1 3.56 -1.62l4.9 10.77a2 2 0 0 1 -1 2.59 2.05 2.05 0 0 1 -0.78 0.17Z" fill="none" stroke="#000000" stroke-miterlimit="10" stroke-width="1"></path><path d="M7.6 19.58a2 2 0 0 1 -1.78 -1.15L0.93 7.67a2 2 0 0 1 1 -2.59 2 2 0 0 1 2.59 1l4.86 10.74a2 2 0 0 1 -1 2.59 2.1 2.1 0 0 1 -0.78 0.17Z" fill="none" stroke="#000000" stroke-miterlimit="10" stroke-width="1"></path></g></svg>