<svg xmlns="http://www.w3.org/2000/svg" viewBox="0 0 24 24" id="Herping-Photo--Streamline-Ultimate"><desc>Herping Photo Streamline Icon: https://streamlinehq.com</desc><defs></defs><title>herping-photo</title><path d="M10.546 12.415v-0.708a4.11 4.11 0 0 1 2.434 -3.653c1.827 -0.608 3.044 -1.635 3.044 -3.652A3.652 3.652 0 0 0 12.372 0.75h-6.7A3.652 3.652 0 0 0 2.024 4.4c0 2.017 1.217 3.044 3.043 3.652A4.109 4.109 0 0 1 7.5 11.707v0.708" fill="none" stroke="#000000" stroke-linecap="round" stroke-linejoin="round" stroke-width="1"></path><path d="M5.676 0.75a9.3 9.3 0 0 0 3.348 4.667A9.333 9.333 0 0 0 12.372 0.75Z" fill="none" stroke="#000000" stroke-linecap="round" stroke-linejoin="round" stroke-width="1"></path><path d="M13.241 12.415H4.057a1.7 1.7 0 0 0 0 3.394h4.192" fill="none" stroke="#000000" stroke-linecap="round" stroke-linejoin="round" stroke-width="1"></path><path d="M8.249 15.809h-5.8a1.7 1.7 0 0 0 0 3.394h5.8" fill="none" stroke="#000000" stroke-linecap="round" stroke-linejoin="round" stroke-width="1"></path><path d="m20.249 15.75 -0.75 -1.5H15l-0.75 1.5h-1.5a1.5 1.5 0 0 0 -1.5 1.5v4.5a1.5 1.5 0 0 0 1.5 1.5h9a1.5 1.5 0 0 0 1.5 -1.5v-4.5a1.5 1.5 0 0 0 -1.5 -1.5Z" fill="none" stroke="#000000" stroke-linecap="round" stroke-linejoin="round" stroke-width="1"></path><path d="M15.374 19.125a1.875 1.875 0 1 0 3.75 0 1.875 1.875 0 1 0 -3.75 0" fill="none" stroke="#000000" stroke-linecap="round" stroke-linejoin="round" stroke-width="1"></path></svg>