<svg xmlns="http://www.w3.org/2000/svg" fill="none" viewBox="0 0 24 24" id="Paintball-Gun--Streamline-Ultimate"><desc>Paintball Gun Streamline Icon: https://streamlinehq.com</desc><path stroke="#000000" stroke-linecap="round" stroke-linejoin="round" d="m12.321 7.68005 2.32 2.32005c0.1394 0.1393 0.25 0.3047 0.3254 0.4867 0.0755 0.1821 0.1143 0.3772 0.1143 0.5743 0 0.197 -0.0388 0.3922 -0.1143 0.5742 -0.0754 0.1821 -0.186 0.3475 -0.3254 0.4868l-6.78799 6.79c-0.28129 0.2812 -0.66276 0.4391 -1.0605 0.4391 -0.39775 0 -0.77921 -0.1579 -1.0605 -0.4391l-2.3 -2.3L12.321 7.68005Z" stroke-width="1"></path><path stroke="#000000" stroke-linecap="round" stroke-linejoin="round" d="M13.61 19.557c0.1262 0.277 0.1651 0.586 0.1115 0.8857 -0.0536 0.2997 -0.1971 0.5761 -0.4115 0.7923l-1.687 1.685c-0.1406 0.1404 -0.3313 0.2193 -0.53 0.2193 -0.1988 0 -0.3894 -0.0789 -0.53 -0.2193 -0.0627 -0.0633 -0.1138 -0.1371 -0.151 -0.218l-2.029 -4.32 3.182 -3.182 2.045 4.357Z" stroke-width="1"></path><path stroke="#000000" stroke-linecap="round" stroke-linejoin="round" d="M19.1412 0.862388 12.3204 7.6803l2.1428 2.14369 6.8208 -6.81791L19.1412 0.862388Z" stroke-width="1"></path><path stroke="#000000" stroke-linecap="round" stroke-linejoin="round" d="m7.65401 12.349 -2.515 -2.51404" stroke-width="1"></path><path stroke="#000000" stroke-linecap="round" stroke-linejoin="round" d="m7.614 7.35999 2.519 2.51899" stroke-width="1"></path><path stroke="#000000" stroke-linecap="round" stroke-linejoin="round" d="M9.543 3.11901c-0.7746 -0.40391 -1.67533 -0.49281 -2.51395 -0.24812 -0.83861 0.24469 -1.5502 0.80403 -1.98605 1.56112C4.0081 6.05395 2.51357 7.3309 0.75 8.10001l0.676 3.53199c1.9097 -0.5226 3.64891 -1.5371 5.044 -2.94199 1.53523 -1.52551 2.60158 -3.45869 3.073 -5.571" stroke-width="1"></path><path stroke="#000000" stroke-linecap="round" stroke-linejoin="round" d="M11.565 15.2c0.5131 0.6328 1.2334 1.0639 2.0336 1.2171 0.8003 0.1531 1.6289 0.0185 2.3394 -0.3801" stroke-width="1"></path><path stroke="#000000" d="M18.785 13.5649c-0.2761 0 -0.5 -0.2238 -0.5 -0.5 0 -0.2761 0.2239 -0.5 0.5 -0.5" stroke-width="1"></path><path stroke="#000000" d="M18.785 13.5649c0.2761 0 0.5 -0.2238 0.5 -0.5 0 -0.2761 -0.2239 -0.5 -0.5 -0.5" stroke-width="1"></path><path stroke="#000000" d="M20.53 8.89905c-0.2761 0 -0.5 -0.22386 -0.5 -0.5s0.2239 -0.5 0.5 -0.5" stroke-width="1"></path><path stroke="#000000" d="M20.53 8.89905c0.2761 0 0.5 -0.22386 0.5 -0.5s-0.2239 -0.5 -0.5 -0.5" stroke-width="1"></path><path stroke="#000000" d="M22.75 12.016c-0.2761 0 -0.5 -0.2239 -0.5 -0.5 0 -0.2762 0.2239 -0.5 0.5 -0.5" stroke-width="1"></path><path stroke="#000000" d="M22.75 12.016c0.2761 0 0.5 -0.2239 0.5 -0.5 0 -0.2762 -0.2239 -0.5 -0.5 -0.5" stroke-width="1"></path></svg>