<svg id="Steampunk-Decoration-Dia-De-Los-Muertos--Streamline-Ultimate" xmlns="http://www.w3.org/2000/svg" viewBox="0 0 24 24"><desc>Steampunk Decoration Dia De Los Muertos Streamline Icon: https://streamlinehq.com</desc><defs></defs><title>steampunk-decoration-dia-de-los-muertos</title><path d="M21.851 10.5a9.75 9.75 0 1 0 -16.5 7.026V21a2.25 2.25 0 0 0 4.5 0 2.25 2.25 0 0 0 4.5 0 2.25 2.25 0 0 0 4.5 0v-3.474a9.714 9.714 0 0 0 3 -7.026Z" fill="none" stroke="#000000" stroke-linecap="round" stroke-linejoin="round" stroke-width="1"></path><path d="M5.351 10.5a2.25 2.25 0 1 0 4.5 0 2.25 2.25 0 1 0 -4.5 0" fill="none" stroke="#000000" stroke-linecap="round" stroke-linejoin="round" stroke-width="1"></path><path d="m12.101 15.75 0 1.5" fill="none" stroke="#000000" stroke-linecap="round" stroke-linejoin="round" stroke-width="1"></path><path d="m2.351 0.75 -1.5 1.5" fill="none" stroke="#000000" stroke-linecap="round" stroke-linejoin="round" stroke-width="1"></path><path d="m1.601 1.5 2.901 2.901" fill="none" stroke="#000000" stroke-linecap="round" stroke-linejoin="round" stroke-width="1"></path><path d="m13.9486504475 9.969611442 2.1213203435 -2.1213203435s0.530330086 -0.5303300859 1.0606601718 0l2.1213203436 2.1213203436s0.5303300859 0.5303300859 0 1.0606601718l-2.1213203436 2.1213203435s-0.5303300859 0.530330086 -1.0606601718 0l-2.1213203435 -2.1213203435s-0.5303300859 -0.530330086 0 -1.0606601718" fill="none" stroke="#000000" stroke-linecap="round" stroke-linejoin="round" stroke-width="1"></path><path d="m18.851 0.75 -1.2 1.734" fill="none" stroke="#000000" stroke-linecap="round" stroke-linejoin="round" stroke-width="1"></path><path d="m23.149 6.189 -1.965 0.767" fill="none" stroke="#000000" stroke-linecap="round" stroke-linejoin="round" stroke-width="1"></path><path d="m21.396 3.136 -1.653 1.309" fill="none" stroke="#000000" stroke-linecap="round" stroke-linejoin="round" stroke-width="1"></path></svg>