<svg viewBox="0 0 24 24" xmlns="http://www.w3.org/2000/svg" id="Steampunk-Decoration--Streamline-Ultimate"><desc>Steampunk Decoration Streamline Icon: https://streamlinehq.com</desc><path d="M0.75 12a11.25 11.25 0 1 0 22.5 0 11.25 11.25 0 1 0 -22.5 0Z" fill="none" stroke="#000000" stroke-linecap="round" stroke-linejoin="round" stroke-width="1"></path><path d="M12.087 5.816a1.5 1.5 0 1 1 -2.92 0.687c-0.19 -0.806 0.945 -2.534 0.945 -2.534S11.9 5.01 12.087 5.816Z" fill="none" stroke="#000000" stroke-linecap="round" stroke-linejoin="round" stroke-width="1"></path><path d="M10.5 12a1.5 1.5 0 1 0 3 0 1.5 1.5 0 1 0 -3 0Z" fill="none" stroke="#000000" stroke-linecap="round" stroke-linejoin="round" stroke-width="1"></path><path d="m11.657 10.54 -0.687 -2.92" fill="none" stroke="#000000" stroke-linecap="round" stroke-linejoin="round" stroke-width="1"></path><path d="M14.972 17.424a1.5 1.5 0 1 1 2.2 -2.037c0.562 0.608 0.426 2.67 0.426 2.67s-2.063 -0.025 -2.626 -0.633Z" fill="none" stroke="#000000" stroke-linecap="round" stroke-linejoin="round" stroke-width="1"></path><path d="m13.018 13.102 2.037 2.202" fill="none" stroke="#000000" stroke-linecap="round" stroke-linejoin="round" stroke-width="1"></path><path d="M12 18.75A6.75 6.75 0 0 1 6.969 7.5" fill="none" stroke="#000000" stroke-linecap="round" stroke-linejoin="round" stroke-width="1"></path><path d="M15.74 6.381A6.742 6.742 0 0 1 18.75 12" fill="none" stroke="#000000" stroke-linecap="round" stroke-linejoin="round" stroke-width="1"></path></svg>