<svg xmlns="http://www.w3.org/2000/svg" fill="none" viewBox="0 0 24 24" id="Dzone-Logo--Streamline-Ultimate"><desc>Dzone Logo Streamline Icon: https://streamlinehq.com</desc><path stroke="#000000" stroke-linecap="round" stroke-linejoin="round" d="M21.78 9.06988c0.8119 0 1.47 -0.65814 1.47 -1.47s-0.6581 -1.47 -1.47 -1.47 -1.47 0.65814 -1.47 1.47 0.6581 1.47 1.47 1.47Z" stroke-width="1"></path><path stroke="#000000" stroke-linecap="round" stroke-linejoin="round" d="M11.02 5.90991c0.6904 0 1.25 -0.55964 1.25 -1.25 0 -0.69035 -0.5596 -1.25 -1.25 -1.25 -0.6903 0 -1.24998 0.55965 -1.24998 1.25 0 0.69036 0.55968 1.25 1.24998 1.25Z" stroke-width="1"></path><path stroke="#000000" stroke-linecap="round" stroke-linejoin="round" d="M19.83 16.1799c0.6903 0 1.25 -0.5596 1.25 -1.25 0 -0.6903 -0.5597 -1.25 -1.25 -1.25 -0.6904 0 -1.25 0.5597 -1.25 1.25 0 0.6904 0.5596 1.25 1.25 1.25Z" stroke-width="1"></path><path stroke="#000000" stroke-linecap="round" stroke-linejoin="round" d="M2 16.8848c0.69036 0 1.25 -0.5597 1.25 -1.25 0 -0.6904 -0.55964 -1.25 -1.25 -1.25s-1.25 0.5596 -1.25 1.25c0 0.6903 0.55964 1.25 1.25 1.25Z" stroke-width="1"></path><path stroke="#000000" stroke-linecap="round" stroke-linejoin="round" d="M7.77002 14.02c0.69036 0 1.25 -0.5596 1.25 -1.25 0 -0.6903 -0.55964 -1.25 -1.25 -1.25s-1.25 0.5597 -1.25 1.25c0 0.6904 0.55964 1.25 1.25 1.25Z" stroke-width="1"></path><path stroke="#000000" stroke-linecap="round" stroke-linejoin="round" d="M11.51 20.3199c0.8118 0 1.47 -0.6582 1.47 -1.47 0 -0.8119 -0.6582 -1.47 -1.47 -1.47 -0.8119 0 -1.47 0.6581 -1.47 1.47 0 0.8118 0.6581 1.47 1.47 1.47Z" stroke-width="1"></path><path stroke="#000000" stroke-linecap="round" stroke-linejoin="round" d="m11.52 15.1899 -0.4858 -9.2795" stroke-width="1"></path><path stroke="#000000" stroke-linecap="round" stroke-linejoin="round" d="M18.21 8.87988 9.01562 12.6289" stroke-width="1"></path><path stroke="#000000" stroke-linecap="round" stroke-linejoin="round" d="m3.11792 15.0878 3.63599 -1.537" stroke-width="1"></path><path stroke="#000000" stroke-linecap="round" stroke-linejoin="round" d="m18.33 6.73994 -6.0671 -1.9936" stroke-width="1"></path><path stroke="#000000" stroke-linecap="round" stroke-linejoin="round" d="m21.04 11.22 -0.5758 2.6362" stroke-width="1"></path><path stroke="#000000" stroke-linecap="round" stroke-linejoin="round" d="M10.049 5.44385 2.38287 14.4469" stroke-width="1"></path><path stroke="#000000" stroke-linecap="round" stroke-linejoin="round" d="m7.91002 17.73 -4.97185 -1.271" stroke-width="1"></path><path stroke="#000000" stroke-linecap="round" stroke-linejoin="round" d="m15.13 17.3401 3.6944 -1.6648" stroke-width="1"></path><path stroke="#000000" stroke-linecap="round" stroke-linejoin="round" d="m11.9811 5.45337 6.9258 8.64063" stroke-width="1"></path><path stroke="#000000" stroke-linecap="round" stroke-linejoin="round" d="M10.5097 5.79858 8.30017 11.6355" stroke-width="1"></path><path stroke="#000000" stroke-linecap="round" stroke-linejoin="round" d="m9.66998 15.7 -1.28717 -1.8094" stroke-width="1"></path><path stroke="#000000" stroke-linecap="round" stroke-linejoin="round" d="m14.15 15.91 5.2 -5.7" stroke-width="1"></path></svg>