<svg xmlns="http://www.w3.org/2000/svg" viewBox="0 0 24 24" id="Mapbox-Logo--Streamline-Ultimate"><desc>Mapbox Logo Streamline Icon: https://streamlinehq.com</desc><g><path d="M17.37 6.63a5.85 5.85 0 0 0 -8.3 0c-4.07 4.07 -2.69 11 -2.69 11s6.92 1.38 11 -2.69a5.85 5.85 0 0 0 -0.01 -8.31Z" fill="none" stroke="#000000" stroke-linecap="round" stroke-linejoin="round" stroke-width="1"></path><path d="m14.69 11.76 2.2 -1.23 -2.2 -1.22 -1.22 -2.2 -1.23 2.2 -2.2 1.22 2.2 1.23 1.23 2.2 1.22 -2.2z" fill="none" stroke="#000000" stroke-linecap="round" stroke-linejoin="round" stroke-width="1"></path><path d="M0.75 12a11.25 11.25 0 1 0 22.5 0 11.25 11.25 0 1 0 -22.5 0" fill="none" stroke="#000000" stroke-linecap="round" stroke-linejoin="round" stroke-width="1"></path></g></svg>