<svg xmlns="http://www.w3.org/2000/svg" viewBox="0 0 24 24" id="Pcoket-Logo--Streamline-Ultimate"><desc>Pcoket Logo Streamline Icon: https://streamlinehq.com</desc><g><path d="M23.25 11a11.25 11.25 0 0 1 -22.5 0V4.66a2.93 2.93 0 0 1 2.93 -2.93h16.64a2.93 2.93 0 0 1 2.93 2.93Z" fill="none" stroke="#000000" stroke-linecap="round" stroke-linejoin="round" stroke-width="1"></path><path d="M12 16.58a1.71 1.71 0 0 1 -1.21 -0.5l-5.73 -5.73a1.72 1.72 0 0 1 2.43 -2.43L12 12.43l4.51 -4.51a1.72 1.72 0 0 1 2.43 2.43l-5.73 5.73a1.71 1.71 0 0 1 -1.21 0.5Z" fill="none" stroke="#000000" stroke-linecap="round" stroke-linejoin="round" stroke-width="1"></path></g></svg>