<svg viewBox="0 0 24 24" xmlns="http://www.w3.org/2000/svg" id="Squarespace-Logo--Streamline-Ultimate"><desc>Squarespace Logo Streamline Icon: https://streamlinehq.com</desc><path d="m14.94 6.48 -7.86 7.86a3.56 3.56 0 0 1 -5 -5L7.8 3.56a3.56 3.56 0 0 1 5 0l0.23 0.23" fill="none" stroke="#000000" stroke-linecap="round" stroke-linejoin="round" stroke-width="1"></path><path d="m4.37 12.07 7.5 -7.49a3.56 3.56 0 0 1 5 0" fill="none" stroke="#000000" stroke-linecap="round" stroke-linejoin="round" stroke-width="1"></path><path d="m9 17.56 7.9 -7.9a3.56 3.56 0 0 1 5 5l-5.7 5.79a3.56 3.56 0 0 1 -5 0l-0.23 -0.23" fill="none" stroke="#000000" stroke-linecap="round" stroke-linejoin="round" stroke-width="1"></path><path d="m19.57 12 -7.43 7.43a3.56 3.56 0 0 1 -5 0" fill="none" stroke="#000000" stroke-linecap="round" stroke-linejoin="round" stroke-width="1"></path></svg>