<svg viewBox="0 0 24 24" xmlns="http://www.w3.org/2000/svg" id="Nautic-Sports-Water-Skiing--Streamline-Ultimate"><desc>Nautic Sports Water Skiing Streamline Icon: https://streamlinehq.com</desc><path d="M1.875 3.665a2.625 2.625 0 1 0 5.25 0 2.625 2.625 0 1 0 -5.25 0Z" fill="none" stroke="#000000" stroke-linecap="round" stroke-linejoin="round" stroke-width="1"></path><path d="m9.136 22.665 -1.8 -4.2a0.754 0.754 0 0 0 -0.543 -0.44l-2.589 -0.517a1.5 1.5 0 0 1 -1.16 -1.106l-1.5 -6A1.5 1.5 0 0 1 3 8.54h7.5a1.5 1.5 0 0 1 0 3H4.922l0.8 3.215L7 15.01a4.5 4.5 0 0 1 3.254 2.64l1.5 3.505" fill="none" stroke="#000000" stroke-linecap="round" stroke-linejoin="round" stroke-width="1"></path><path d="m12 10.04 11.25 0" fill="none" stroke="#000000" stroke-linecap="round" stroke-linejoin="round" stroke-width="1"></path><path d="m12.255 21.163 4.078 -2.039a4.5 4.5 0 0 0 2.256 -2.6l0.161 -0.482" fill="none" stroke="#000000" stroke-linecap="round" stroke-linejoin="round" stroke-width="1"></path><path d="M0.75 22.75a4.666 4.666 0 0 0 3.75 -1.9 4.649 4.649 0 0 0 7.5 0 4.649 4.649 0 0 0 7.5 0 4.666 4.666 0 0 0 3.75 1.9" fill="none" stroke="#000000" stroke-linecap="round" stroke-linejoin="round" stroke-width="1"></path></svg>