<svg viewBox="0 0 24 24" xmlns="http://www.w3.org/2000/svg" id="Nautic-Sports-Sailing--Streamline-Ultimate"><desc>Nautic Sports Sailing Streamline Icon: https://streamlinehq.com</desc><path d="m17.256 18.964 0.777 -0.388a6 6 0 0 0 3.009 -3.469l0.229 -0.688a0.75 0.75 0 0 0 -0.961 -0.944l-11.3 3.989" fill="none" stroke="#000000" stroke-linecap="round" stroke-linejoin="round" stroke-width="1"></path><path d="m13.722 15.8 -5 -13.559a0.749 0.749 0 0 0 -1.31 -0.182C6.31 3.58 4.506 6.383 4.506 8.464a38.251 38.251 0 0 0 0.59 5.873 0.75 0.75 0 0 0 0.993 0.58l9.667 -3.453" fill="none" stroke="#000000" stroke-linecap="round" stroke-linejoin="round" stroke-width="1"></path><path d="m10.957 8.295 -6.344 2.379" fill="none" stroke="#000000" stroke-linecap="round" stroke-linejoin="round" stroke-width="1"></path><path d="M23.25 22.432a3.447 3.447 0 0 1 -2.812 -1.5 3.387 3.387 0 0 1 -5.625 0 3.387 3.387 0 0 1 -5.625 0 3.448 3.448 0 0 1 -2.813 1.5 3.445 3.445 0 0 1 -2.812 -1.5 3.448 3.448 0 0 1 -2.813 1.5" fill="none" stroke="#000000" stroke-linecap="round" stroke-linejoin="round" stroke-width="1"></path></svg>