<svg viewBox="0 0 24 24" xmlns="http://www.w3.org/2000/svg" id="Nautic-Sports-Sailing-Person--Streamline-Ultimate"><desc>Nautic Sports Sailing Person Streamline Icon: https://streamlinehq.com</desc><path d="M1.125 8.157a2.625 2.625 0 1 0 5.25 0 2.625 2.625 0 1 0 -5.25 0Z" fill="none" stroke="#000000" stroke-linecap="round" stroke-linejoin="round" stroke-width="1"></path><path d="M9 19.032H7.6a3.016 3.016 0 0 1 -2.573 -1.456l-1.813 -3.022a1.5 1.5 0 0 1 0.992 -2.242L6 11.953a3.009 3.009 0 0 0 1.985 -1.4L9.214 8.51a1.5 1.5 0 1 1 2.572 1.544L10.56 12.1a6.013 6.013 0 0 1 -3.683 2.73l0.723 1.2H9a6.029 6.029 0 0 1 3.724 1.3" fill="none" stroke="#000000" stroke-linecap="round" stroke-linejoin="round" stroke-width="1"></path><path d="M8.8 1a0.75 0.75 0 0 0 -0.659 1.127l8.872 15.213a0.75 0.75 0 0 0 1.356 -0.131 8.187 8.187 0 0 1 4.276 -4.646 0.748 0.748 0 0 0 0.36 -0.948C22.048 9.211 18.138 1.13 8.8 1Z" fill="none" stroke="#000000" stroke-linecap="round" stroke-linejoin="round" stroke-width="1"></path><path d="m10.563 6.282 9.233 0" fill="none" stroke="#000000" stroke-linecap="round" stroke-linejoin="round" stroke-width="1"></path><path d="m13.188 10.782 9.46 0" fill="none" stroke="#000000" stroke-linecap="round" stroke-linejoin="round" stroke-width="1"></path><path d="M0.75 22.75a4.666 4.666 0 0 0 3.75 -1.9 4.649 4.649 0 0 0 7.5 0 4.649 4.649 0 0 0 7.5 0 4.666 4.666 0 0 0 3.75 1.9" fill="none" stroke="#000000" stroke-linecap="round" stroke-linejoin="round" stroke-width="1"></path></svg>