<svg xmlns="http://www.w3.org/2000/svg" viewBox="0 0 24 24" id="Sport-Kitesurfing-2--Streamline-Ultimate"><desc>Sport Kitesurfing 2 Streamline Icon: https://streamlinehq.com</desc><defs></defs><path d="m14.588 8.273 -4.106 1.643" fill="none" stroke="#000000" stroke-linecap="round" stroke-linejoin="round" stroke-width="1"></path><path d="m12.55 17.353 -1.861 -2.48a1.5 1.5 0 0 0 -1.2 -0.6H6.4l-0.333 -1h1.422a1.5 1.5 0 0 0 1.2 -0.6l1.5 -2a1.5 1.5 0 0 0 -2.4 -1.8l-1.049 1.4H3.989a1.5 1.5 0 0 0 -1.423 1.974L4.334 17.5" fill="none" stroke="#000000" stroke-linecap="round" stroke-linejoin="round" stroke-width="1"></path><path d="M0.739 7.773a2 2 0 1 0 4 0 2 2 0 1 0 -4 0" fill="none" stroke="#000000" stroke-linecap="round" stroke-linejoin="round" stroke-width="1"></path><path d="M21.821 8.754a4.549 4.549 0 0 0 0.33 -6.313 4.651 4.651 0 0 0 -6.313 -0.831Z" fill="none" stroke="#000000" stroke-linecap="round" stroke-linejoin="round" stroke-width="1"></path><path d="m15.838 1.61 -1.25 6.663 7.233 0.481" fill="none" stroke="#000000" stroke-linecap="round" stroke-linejoin="round" stroke-width="1"></path><path d="M9.591 18.375 7.83 16.614" fill="none" stroke="#000000" stroke-linecap="round" stroke-linejoin="round" stroke-width="1"></path><path d="M0.739 23.273a4.667 4.667 0 0 0 3.75 -1.9 4.649 4.649 0 0 0 7.5 0 4.649 4.649 0 0 0 7.5 0 4.664 4.664 0 0 0 3.75 1.9" fill="none" stroke="#000000" stroke-linecap="round" stroke-linejoin="round" stroke-width="1"></path><path d="M21.821 19.756a2.125 2.125 0 0 0 0.424 -1.564c-0.466 -1.24 -6.023 -2.335 -11.585 -0.245a25.879 25.879 0 0 0 -3.141 1.42" fill="none" stroke="#000000" stroke-linecap="round" stroke-linejoin="round" stroke-width="1"></path></svg>