<svg xmlns="http://www.w3.org/2000/svg" viewBox="0 0 24 24" id="Sport-Kayaking-1--Streamline-Ultimate"><desc>Sport Kayaking 1 Streamline Icon: https://streamlinehq.com</desc><defs></defs><path d="M7.981 5.665a2 2 0 1 0 4 0 2 2 0 1 0 -4 0" fill="none" stroke="#000000" stroke-linecap="round" stroke-linejoin="round" stroke-width="1"></path><path d="m20.421 6.347 -1.751 0.383 -1.04 -1.46a0.833 0.833 0 0 1 -0.084 -0.783l1.24 -3.214A0.823 0.823 0 0 1 19.6 0.732a4.319 4.319 0 0 1 2.415 0.932 0.823 0.823 0 0 1 0.237 0.946l-1.24 3.213a0.834 0.834 0 0 1 -0.591 0.524Z" fill="none" stroke="#000000" stroke-linecap="round" stroke-linejoin="round" stroke-width="1"></path><path d="m12.679 17.653 1.751 -0.383 1.039 1.46a0.833 0.833 0 0 1 0.084 0.783l-1.24 3.214a0.823 0.823 0 0 1 -0.811 0.541 4.314 4.314 0 0 1 -2.414 -0.932 0.823 0.823 0 0 1 -0.238 -0.946l1.24 -3.213a0.836 0.836 0 0 1 0.589 -0.524Z" fill="none" stroke="#000000" stroke-linecap="round" stroke-linejoin="round" stroke-width="1"></path><path d="M12 17.53v-5.818l5.2 -0.163a1.515 1.515 0 0 0 -0.428 -3c-2.426 0.228 -4.389 0.244 -7.378 0.771a1.514 1.514 0 0 0 -0.918 1.392v6.818" fill="none" stroke="#000000" stroke-linecap="round" stroke-linejoin="round" stroke-width="1"></path><path d="M7.672 21.753C1.838 21.073 0.75 19.07 0.75 18.605c0 -0.562 5.116 -1.125 11.25 -1.125 0.481 0 0.956 0 1.422 0.01" fill="none" stroke="#000000" stroke-linecap="round" stroke-linejoin="round" stroke-width="1"></path><path d="M14.615 17.515c4.907 0.13 8.635 0.61 8.635 1.09 0 0.409 -0.84 2 -5 2.847" fill="none" stroke="#000000" stroke-linecap="round" stroke-linejoin="round" stroke-width="1"></path><path d="M16.725 11.563 14.43 17.27" fill="none" stroke="#000000" stroke-linecap="round" stroke-linejoin="round" stroke-width="1"></path><path d="m18.67 6.73 -0.835 2.076" fill="none" stroke="#000000" stroke-linecap="round" stroke-linejoin="round" stroke-width="1"></path></svg>