<svg xmlns="http://www.w3.org/2000/svg" viewBox="0 0 24 24" id="Sport-Wakeboarding-2--Streamline-Ultimate"><desc>Sport Wakeboarding 2 Streamline Icon: https://streamlinehq.com</desc><defs></defs><path d="M19.71 13.076c0 -0.008 0.007 -0.016 0.009 -0.024l0.793 -3.852a2.5 2.5 0 0 0 -2.46 -2.946h-6.8a1.5 1.5 0 0 0 0 3h6.188l-0.495 2.407 -4.25 1.7a1.5 1.5 0 0 0 -0.885 0.98l-1 3.5a1.5 1.5 0 1 0 2.884 0.825l0.8 -2.793 1.593 -0.637 -0.287 1.15a1.5 1.5 0 0 0 0.113 1.034l1.5 3a1.5 1.5 0 0 0 2.684 -1.341l-1.252 -2.5 0.865 -3.462c-0.002 -0.017 -0.002 -0.028 0 -0.041Z" fill="none" stroke="#000000" stroke-linecap="round" stroke-linejoin="round" stroke-width="1"></path><path d="M15.25 3.25a2.5 2.5 0 1 0 5 0 2.5 2.5 0 1 0 -5 0" fill="none" stroke="#000000" stroke-linecap="round" stroke-linejoin="round" stroke-width="1"></path><path d="M7.814 17.255a7.964 7.964 0 0 0 -3.474 1.87 6.185 6.185 0 0 0 4.673 3L19.7 23.227c1.643 0.17 3.385 -0.616 3.544 -2.147s-1.386 -2.656 -3.03 -2.826" fill="none" stroke="#000000" stroke-linecap="round" stroke-linejoin="round" stroke-width="1"></path><path d="m10.25 3.75 -5.5 4 -4 0" fill="none" stroke="#000000" stroke-linecap="round" stroke-linejoin="round" stroke-width="1"></path><path d="m4.75 7.75 5.5 4" fill="none" stroke="#000000" stroke-linecap="round" stroke-linejoin="round" stroke-width="1"></path></svg>