<svg xmlns="http://www.w3.org/2000/svg" viewBox="0 0 24 24" id="Sport-Jet-Skiing-2--Streamline-Ultimate"><desc>Sport Jet Skiing 2 Streamline Icon: https://streamlinehq.com</desc><defs></defs><path d="M20.279 19.51 0.838 14.818a3.343 3.343 0 0 0 1.084 3.221" fill="none" stroke="#000000" stroke-linecap="round" stroke-linejoin="round" stroke-width="1"></path><path d="M6.25 2.986a2.25 2.25 0 1 0 4.5 0 2.25 2.25 0 1 0 -4.5 0" fill="none" stroke="#000000" stroke-linecap="round" stroke-linejoin="round" stroke-width="1"></path><path d="M23.173 10.763a1.5 1.5 0 0 0 -1.9 -0.949l-2.12 0.707 -1.843 -1.844c-0.026 -0.026 -0.06 -0.035 -0.088 -0.059a1.191 1.191 0 0 0 -0.1 -0.1l-3.5 -2.5a1.5 1.5 0 0 0 -2.251 0.629L10.2 9.372l-2.665 0.38a1.5 1.5 0 1 0 0.424 2.97l3.5 -0.5a1.5 1.5 0 0 0 1.167 -0.894l0.765 -1.787 1 0.715 -1.024 2.39a1.5 1.5 0 0 0 -0.044 1.065l1 3a1.5 1.5 0 0 0 1.423 1.027 1.48 1.48 0 0 0 0.474 -0.078 1.5 1.5 0 0 0 0.949 -1.9l-0.82 -2.459 0.4 -0.939 0.933 0.933a1.5 1.5 0 0 0 1.535 0.362l3 -1a1.5 1.5 0 0 0 0.956 -1.894Z" fill="none" stroke="#000000" stroke-linecap="round" stroke-linejoin="round" stroke-width="1"></path><path d="M23.25 23.256a4.668 4.668 0 0 1 -3.75 -1.9 4.172 4.172 0 0 1 -7 0c-2.06 2.765 -3.888 1.717 -4.083 1.7 -1.08 -0.946 -0.674 -2.582 0.833 -3.414 -2.181 -1.229 -4.35 -0.816 -5.5 1s-1 3 -3 2.5" fill="none" stroke="#000000" stroke-linecap="round" stroke-linejoin="round" stroke-width="1"></path><path d="M0.838 14.818c0.417 -1.727 3.65 -3.293 5.488 -4.055" fill="none" stroke="#000000" stroke-linecap="round" stroke-linejoin="round" stroke-width="1"></path></svg>