<svg xmlns="http://www.w3.org/2000/svg" viewBox="0 0 24 24" id="Sport-Windsurfing-2--Streamline-Ultimate"><desc>Sport Windsurfing 2 Streamline Icon: https://streamlinehq.com</desc><defs></defs><path d="M0.75 23.229a4.668 4.668 0 0 0 3.75 -1.9 4.649 4.649 0 0 0 7.5 0 4.649 4.649 0 0 0 7.5 0 4.668 4.668 0 0 0 3.75 1.9" fill="none" stroke="#000000" stroke-linecap="round" stroke-linejoin="round" stroke-width="1"></path><path d="M5.177 17.777c1.5 -10.5 5.5 -16.506 11.5 -17.006 -0.893 6.516 -2.5 13.5 -2.5 13.5l-8.243 -0.515" fill="none" stroke="#000000" stroke-linecap="round" stroke-linejoin="round" stroke-width="1"></path><path d="M17.712 7.514a1.757 1.757 0 1 0 3.514 0 1.757 1.757 0 1 0 -3.514 0" fill="none" stroke="#000000" stroke-linecap="round" stroke-linejoin="round" stroke-width="1"></path><path d="m12.39 18.597 0.948 -1.922" fill="none" stroke="#000000" stroke-linecap="round" stroke-linejoin="round" stroke-width="1"></path><path d="m11.42 14.099 -2.147 4.002" fill="none" stroke="#000000" stroke-linecap="round" stroke-linejoin="round" stroke-width="1"></path><path d="M1.34 18.5c0.133 -0.876 4.234 -0.979 9.16 -0.229a32.191 32.191 0 0 1 6.513 1.591" fill="none" stroke="#000000" stroke-linecap="round" stroke-linejoin="round" stroke-width="1"></path><path d="m15.777 19.394 1.81 -4.284 0.069 0.174a1.357 1.357 0 0 0 0.931 0.813l1.809 0.452c0.111 0.028 0.774 0.224 0.882 0.224a1.357 1.357 0 0 0 0.329 -2.674l-1.689 -0.467 -0.647 -1.617a1.347 1.347 0 0 0 -0.756 -0.756l-3.4 -1.393" fill="none" stroke="#000000" stroke-linecap="round" stroke-linejoin="round" stroke-width="1"></path></svg>