<svg xmlns="http://www.w3.org/2000/svg" viewBox="0 0 24 24" id="Sport-Kitesurfing-1--Streamline-Ultimate"><desc>Sport Kitesurfing 1 Streamline Icon: https://streamlinehq.com</desc><defs></defs><path d="m10.379 8.735 6.382 1.627" fill="none" stroke="#000000" stroke-linecap="round" stroke-linejoin="round" stroke-width="1"></path><path d="M4.9 4.9C2.964 6.829 1.964 10.011 2.5 11c-0.141 -0.1 -0.527 -0.466 -0.654 -0.593 -1.7 -1.7 -1.388 -5.773 0.7 -7.861s6.16 -2.4 7.861 -0.7c0.127 0.127 0.489 0.513 0.593 0.654 -0.989 -0.536 -4.171 0.464 -6.1 2.4Z" fill="none" stroke="#000000" stroke-linecap="round" stroke-linejoin="round" stroke-width="1"></path><path d="m8.693 2.64 1.686 6.095 -7.752 0" fill="none" stroke="#000000" stroke-linecap="round" stroke-linejoin="round" stroke-width="1"></path><path d="M19.25 5.75a2 2 0 1 0 4 0 2 2 0 1 0 -4 0" fill="none" stroke="#000000" stroke-linecap="round" stroke-linejoin="round" stroke-width="1"></path><path d="M20.8 20.21a1.143 1.143 0 0 0 1.616 -1.616l-1.7 -1.642 0.774 -1.549a0.826 0.826 0 0 0 0.024 -0.1 0.9 0.9 0 0 0 0.053 -0.1l1.143 -4a1.143 1.143 0 0 0 -1.1 -1.457h-1.958" fill="none" stroke="#000000" stroke-linecap="round" stroke-linejoin="round" stroke-width="1"></path><path d="m19.652 9.75 -0.83 4.369 -1.639 0.855a1.141 1.141 0 0 0 -0.555 0.473L14.913 18.3a1.143 1.143 0 1 0 1.96 1.176l1.32 -2.2" fill="none" stroke="#000000" stroke-linecap="round" stroke-linejoin="round" stroke-width="1"></path><path d="m22.75 23.25 -11.683 -1.168" fill="none" stroke="#000000" stroke-linecap="round" stroke-linejoin="round" stroke-width="1"></path></svg>