<svg xmlns="http://www.w3.org/2000/svg" viewBox="0 0 24 24" id="Sport-Slack-Lining--Streamline-Ultimate"><desc>Sport Slack Lining Streamline Icon: https://streamlinehq.com</desc><defs></defs><path d="m0.75 20.775 12.75 2 9.75 -1.5" fill="none" stroke="#000000" stroke-linecap="round" stroke-linejoin="round" stroke-width="1"></path><path d="M9 3.475a2.25 2.25 0 1 0 4.5 0 2.25 2.25 0 1 0 -4.5 0" fill="none" stroke="#000000" stroke-linecap="round" stroke-linejoin="round" stroke-width="1"></path><path d="m22.248 16.843 -2 -3a1.508 1.508 0 0 0 -0.722 -0.572l-3.291 -1.234 -0.528 -1.849 2.472 -2.118 2.115 -0.424a1.5 1.5 0 1 0 -0.588 -2.941l-2.5 0.5a1.5 1.5 0 0 0 -0.683 0.332l-3.276 2.808 -1.109 0.37 -2.471 0.412L6.865 7.92a1.5 1.5 0 1 0 -1.113 2.785l3.191 1.363a1.5 1.5 0 0 0 0.557 0.107 1.47 1.47 0 0 0 0.247 -0.02l1.838 -0.306 0.958 2.234 0.441 3.092 -0.469 3.289a1.5 1.5 0 0 0 1.273 1.7 1.409 1.409 0 0 0 0.214 0.015 1.5 1.5 0 0 0 1.483 -1.288l0.5 -3.5a1.5 1.5 0 0 0 0 -0.423l-0.274 -1.92 2.31 0.866 1.731 2.6a1.5 1.5 0 1 0 2.5 -1.665Z" fill="none" stroke="#000000" stroke-linecap="round" stroke-linejoin="round" stroke-width="1"></path></svg>