<svg xmlns="http://www.w3.org/2000/svg" viewBox="0 0 24 24" id="Sport-Para-Sailing-1--Streamline-Ultimate"><desc>Sport Para Sailing 1 Streamline Icon: https://streamlinehq.com</desc><defs></defs><path d="M13.769 12.25a0.75 0.75 0 1 0 1.5 0 0.75 0.75 0 1 0 -1.5 0" stroke-miterlimit="10" fill="none" stroke="#000000" stroke-width="1"></path><path d="m11.519 14.25 1 1 4 0 1 -1" stroke-linecap="round" stroke-linejoin="round" fill="none" stroke="#000000" stroke-width="1"></path><path d="m12.019 19.25 0.5 -1.5 4 0 0.5 1.5" stroke-linecap="round" stroke-linejoin="round" fill="none" stroke="#000000" stroke-width="1"></path><path d="M23.231 6.432C22.492 3.418 18.877 0.75 14.519 0.75S6.546 3.418 5.807 6.432l5 0.886a4.557 4.557 0 0 1 3.712 -1.644 4.609 4.609 0 0 1 3.788 1.644Z" stroke-linecap="round" stroke-linejoin="round" fill="none" stroke="#000000" stroke-width="1"></path><path d="m9.807 12.25 -4 -5.818" stroke-linecap="round" stroke-linejoin="round" fill="none" stroke="#000000" stroke-width="1"></path><path d="m19.307 12.25 3.924 -5.818" stroke-linecap="round" stroke-linejoin="round" fill="none" stroke="#000000" stroke-width="1"></path><path d="m14.731 17.75 -0.424 0 0 -2.5 0.424 0Z" stroke-linecap="round" stroke-linejoin="round" fill="none" stroke="#000000" stroke-width="1"></path><path d="m18.307 7.318 0 1.75" stroke-linecap="round" stroke-linejoin="round" fill="none" stroke="#000000" stroke-width="1"></path><path d="m10.807 7.318 0 1.75" stroke-linecap="round" stroke-linejoin="round" fill="none" stroke="#000000" stroke-width="1"></path><path d="m0.769 19 8.75 1v2.75a16.51 16.51 0 0 1 -4.212 0.5A4.309 4.309 0 0 1 0.769 19Z" stroke-linecap="round" stroke-linejoin="round" fill="none" stroke="#000000" stroke-width="1"></path><path d="m3.138 19.271 1.837 -2.138" stroke-linecap="round" stroke-linejoin="round" fill="none" stroke="#000000" stroke-width="1"></path></svg>