<svg viewBox="0 0 24 24" xmlns="http://www.w3.org/2000/svg" id="Heavy-Equipment-Mortar-Truck-1--Streamline-Ultimate"><desc>Heavy Equipment Mortar Truck 1 Streamline Icon: https://streamlinehq.com</desc><path d="M3 18.75a2.25 2.25 0 1 0 4.5 0 2.25 2.25 0 1 0 -4.5 0Z" fill="none" stroke="#000000" stroke-linecap="round" stroke-linejoin="round" stroke-width="1"></path><path d="M16.5 18.75a2.25 2.25 0 1 0 4.5 0 2.25 2.25 0 1 0 -4.5 0Z" fill="none" stroke="#000000" stroke-linecap="round" stroke-linejoin="round" stroke-width="1"></path><path d="m7.372 19.5 9.257 0" fill="none" stroke="#000000" stroke-linecap="round" stroke-linejoin="round" stroke-width="1"></path><path d="M3.128 19.5H2.25A1.5 1.5 0 0 1 0.75 18v-3a1.5 1.5 0 0 1 0.6 -1.2l2.025 -1.519a1.5 1.5 0 0 0 0.523 -0.726l1.01 -3.029A1.5 1.5 0 0 1 6.331 7.5H8.25A1.5 1.5 0 0 1 9.75 9v7.5h-9" fill="none" stroke="#000000" stroke-linecap="round" stroke-linejoin="round" stroke-width="1"></path><path d="m9.75 16.5 13.5 0" fill="none" stroke="#000000" stroke-linecap="round" stroke-linejoin="round" stroke-width="1"></path><path d="m15.119 4.336 6.795 6.795" fill="none" stroke="#000000" stroke-linecap="round" stroke-linejoin="round" stroke-width="1"></path><path d="M23.109 6.481a1.307 1.307 0 0 0 -0.381 -0.993l-1.966 -1.966a1.3 1.3 0 0 0 -0.993 -0.381c-3.468 0.188 -6.452 1.572 -8.051 4.608a4.435 4.435 0 0 0 0.9 5.154l0.732 0.732a4.435 4.435 0 0 0 5.154 0.9c3.033 -1.602 4.417 -4.586 4.605 -8.054Z" fill="none" stroke="#000000" stroke-linecap="round" stroke-linejoin="round" stroke-width="1"></path></svg>