<svg xmlns="http://www.w3.org/2000/svg" fill="none" viewBox="0 0 24 24" id="Heavy-Equipment-Flattener--Streamline-Ultimate"><desc>Heavy Equipment Flattener Streamline Icon: https://streamlinehq.com</desc><path stroke="#000000" stroke-linecap="round" stroke-linejoin="round" d="M7.5 22.5c2.8995 0 5.25 -2.3505 5.25 -5.25S10.3995 12 7.5 12c-2.89949 0 -5.25 2.3505 -5.25 5.25S4.60051 22.5 7.5 22.5Z" stroke-width="1"></path><path stroke="#000000" stroke-linecap="round" stroke-linejoin="round" d="M19.875 22.5c1.864 0 3.375 -1.511 3.375 -3.375s-1.511 -3.375 -3.375 -3.375 -3.375 1.511 -3.375 3.375 1.511 3.375 3.375 3.375Z" stroke-width="1"></path><path stroke="#000000" stroke-linecap="round" stroke-linejoin="round" d="M21 9.75V3c0 -0.39782 -0.158 -0.77936 -0.4393 -1.06066C20.2794 1.65804 19.8978 1.5 19.5 1.5h-6.227c-0.3102 0.00004 -0.6127 0.09623 -0.8659 0.27532 -0.2532 0.17908 -0.4447 0.43226 -0.5481 0.72468l-3.406 9.587" stroke-width="1"></path><path stroke="#000000" stroke-linecap="round" stroke-linejoin="round" d="M9.28302 9.75H21.75c0.3978 0 0.7794 0.15804 1.0607 0.4393 0.2813 0.2813 0.4393 0.6629 0.4393 1.0607v7.875" stroke-width="1"></path><path stroke="#000000" stroke-linecap="round" stroke-linejoin="round" d="M15.75 1.5v8.25" stroke-width="1"></path><path stroke="#000000" stroke-linecap="round" stroke-linejoin="round" d="M0.75 17.25h13.5" stroke-width="1"></path><path stroke="#000000" d="M19.875 19.5c-0.2071 0 -0.375 -0.1679 -0.375 -0.375s0.1679 -0.375 0.375 -0.375" stroke-width="1"></path><path stroke="#000000" d="M19.875 19.5c0.2071 0 0.375 -0.1679 0.375 -0.375s-0.1679 -0.375 -0.375 -0.375" stroke-width="1"></path></svg>