<svg xmlns="http://www.w3.org/2000/svg" fill="none" viewBox="0 0 24 24" id="Heavy-Equipment-Cleaner-1--Streamline-Ultimate"><desc>Heavy Equipment Cleaner 1 Streamline Icon: https://streamlinehq.com</desc><path stroke="#000000" stroke-linecap="round" stroke-linejoin="round" d="M21.25 17.25h-11c-1.10457 0 -2 0.8954 -2 2v2c0 1.1046 0.89543 2 2 2h11c1.1046 0 2 -0.8954 2 -2v-2c0 -1.1046 -0.8954 -2 -2 -2Z" stroke-width="1"></path><path stroke="#000000" stroke-linecap="round" stroke-linejoin="round" d="M6.75 15.75c0 0.3978 0.15804 0.7793 0.43934 1.0606s0.66284 0.4394 1.06066 0.4394h13.5c0.3978 0 0.7794 -0.1581 1.0607 -0.4394s0.4393 -0.6628 0.4393 -1.0606V2.24998c0 -0.39783 -0.158 -0.77936 -0.4393 -1.06066 -0.2813 -0.281309 -0.6629 -0.439345 -1.0607 -0.439345h-5.63c-0.3237 -0.002261 -0.6393 0.100938 -0.8991 0.293985 -0.2598 0.19306 -0.4497 0.46546 -0.5409 0.77602l-1.61 5.36c-0.0912 0.31055 -0.2811 0.58296 -0.5409 0.77601 -0.2598 0.19305 -0.5754 0.29625 -0.8991 0.29399H9.75c-0.39782 0 -0.77936 0.15803 -1.06066 0.43933 -0.2813 0.28131 -0.43934 0.66284 -0.43934 1.06067L6.75 15.75Z" stroke-width="1"></path><path stroke="#000000" stroke-linecap="round" stroke-linejoin="round" d="M9.75 11.25h4.5" stroke-width="1"></path><path stroke="#000000" stroke-linecap="round" stroke-linejoin="round" d="M2.25 11.25h5.63" stroke-width="1"></path><path stroke="#000000" stroke-linecap="round" stroke-linejoin="round" d="M2.25 14.25h4.87" stroke-width="1"></path><path stroke="#000000" stroke-linecap="round" stroke-linejoin="round" d="M9.75 14.25h4.5" stroke-width="1"></path><path stroke="#000000" stroke-linecap="round" stroke-linejoin="round" d="m0.829978 5.52997 0.820002 0.52c0.18687 0.13918 0.3385 0.32024 0.4427 0.52865 0.10421 0.2084 0.15808 0.43834 0.1573 0.67135V18.5c0.00078 0.233 -0.05309 0.4629 -0.1573 0.6713 -0.1042 0.2084 -0.25583 0.3895 -0.4427 0.5287l-0.860002 0.55" stroke-width="1"></path><path stroke="#000000" stroke-linecap="round" stroke-linejoin="round" d="M11.63 8.25h11.62" stroke-width="1"></path><g><path stroke="#000000" d="M12.005 20.6249c-0.2071 0 -0.375 -0.1679 -0.375 -0.375s0.1679 -0.375 0.375 -0.375" stroke-width="1"></path><path stroke="#000000" d="M12.005 20.6249c0.2071 0 0.375 -0.1679 0.375 -0.375s-0.1679 -0.375 -0.375 -0.375" stroke-width="1"></path></g><g><path stroke="#000000" d="M15.7549 20.6249c-0.2071 0 -0.375 -0.1679 -0.375 -0.375s0.1679 -0.375 0.375 -0.375" stroke-width="1"></path><path stroke="#000000" d="M15.7549 20.6249c0.2071 0 0.375 -0.1679 0.375 -0.375s-0.1679 -0.375 -0.375 -0.375" stroke-width="1"></path></g><g><path stroke="#000000" d="M19.505 20.6249c-0.2071 0 -0.375 -0.1679 -0.375 -0.375s0.1679 -0.375 0.375 -0.375" stroke-width="1"></path><path stroke="#000000" d="M19.505 20.6249c0.2071 0 0.375 -0.1679 0.375 -0.375s-0.1679 -0.375 -0.375 -0.375" stroke-width="1"></path></g></svg>