<svg viewBox="0 0 24 24" xmlns="http://www.w3.org/2000/svg" id="Heavy-Equipment-Cleaner--Streamline-Ultimate"><desc>Heavy Equipment Cleaner Streamline Icon: https://streamlinehq.com</desc><path d="M4.588 20.25h4.5l0 0v2a1 1 0 0 1 -1 1h-2.5a1 1 0 0 1 -1 -1v-2l0 0Z" fill="none" stroke="#000000" stroke-linecap="round" stroke-linejoin="round" stroke-width="1"></path><path d="M15.088 20.25h4.5l0 0v2a1 1 0 0 1 -1 1h-2.5a1 1 0 0 1 -1 -1v-2l0 0Z" fill="none" stroke="#000000" stroke-linecap="round" stroke-linejoin="round" stroke-width="1"></path><path d="M21.937 18.321A1.5 1.5 0 0 1 20.5 20.25H3.676a1.5 1.5 0 0 1 -1.438 -1.929 24.124 24.124 0 0 0 1 -8.479 1.5 1.5 0 0 1 1.5 -1.592h14.703a1.5 1.5 0 0 1 1.5 1.592 24.147 24.147 0 0 0 0.996 8.479Z" fill="none" stroke="#000000" stroke-linecap="round" stroke-linejoin="round" stroke-width="1"></path><path d="m6.088 8.25 0 -3.75" fill="none" stroke="#000000" stroke-linecap="round" stroke-linejoin="round" stroke-width="1"></path><path d="m18.088 8.25 0 -3.75" fill="none" stroke="#000000" stroke-linecap="round" stroke-linejoin="round" stroke-width="1"></path><path d="m6.088 1.5 0 -0.75" fill="none" stroke="#000000" stroke-linecap="round" stroke-linejoin="round" stroke-width="1"></path><path d="m18.088 1.5 0 -0.75" fill="none" stroke="#000000" stroke-linecap="round" stroke-linejoin="round" stroke-width="1"></path><path d="M15.838 8.25h-7.5L8.9 2.038A1.5 1.5 0 0 1 10.389 0.75h3.4a1.5 1.5 0 0 1 1.485 1.288Z" fill="none" stroke="#000000" stroke-linecap="round" stroke-linejoin="round" stroke-width="1"></path><path d="m12.088 12.75 0 3" fill="none" stroke="#000000" stroke-linecap="round" stroke-linejoin="round" stroke-width="1"></path><path d="m16.588 12.75 0.75 3" fill="none" stroke="#000000" stroke-linecap="round" stroke-linejoin="round" stroke-width="1"></path><path d="m7.588 12.75 -0.75 3" fill="none" stroke="#000000" stroke-linecap="round" stroke-linejoin="round" stroke-width="1"></path><path d="M8.68 4.557a8.729 8.729 0 0 0 6.81 0" fill="none" stroke="#000000" stroke-linecap="round" stroke-linejoin="round" stroke-width="1"></path></svg>