<svg viewBox="0 0 24 24" xmlns="http://www.w3.org/2000/svg" id="Heavy-Equipment-Mortar-Truck--Streamline-Ultimate"><desc>Heavy Equipment Mortar Truck Streamline Icon: https://streamlinehq.com</desc><path d="M3.195 18.75a2.25 2.25 0 1 0 4.5 0 2.25 2.25 0 1 0 -4.5 0Z" fill="none" stroke="#000000" stroke-linecap="round" stroke-linejoin="round" stroke-width="1"></path><path d="M16.695 18.75a2.25 2.25 0 1 0 4.5 0 2.25 2.25 0 1 0 -4.5 0Z" fill="none" stroke="#000000" stroke-linecap="round" stroke-linejoin="round" stroke-width="1"></path><path d="M3.327 19.5h-0.882a1.5 1.5 0 0 1 -1.5 -1.5v-4.447a1.5 1.5 0 0 1 0.668 -1.248l1.3 -0.868a1.5 1.5 0 0 0 0.454 -0.476l1.64 -2.733A1.5 1.5 0 0 1 6.3 7.5h2.046a1.5 1.5 0 0 1 1.286 0.728L13.7 15" fill="none" stroke="#000000" stroke-linecap="round" stroke-linejoin="round" stroke-width="1"></path><path d="m12.146 4.413 5.206 9.181" fill="none" stroke="#000000" stroke-linecap="round" stroke-linejoin="round" stroke-width="1"></path><path d="m15.945 4.5 4.699 7.831" fill="none" stroke="#000000" stroke-linecap="round" stroke-linejoin="round" stroke-width="1"></path><path d="m7.567 19.5 9.257 0" fill="none" stroke="#000000" stroke-linecap="round" stroke-linejoin="round" stroke-width="1"></path><path d="M6.945 3h2.546a1.5 1.5 0 0 1 0.832 0.252l1.495 1a1.5 1.5 0 0 0 0.832 0.252h6.163a1.5 1.5 0 0 1 1.311 0.772l2.937 5.286a1.5 1.5 0 0 1 0.031 1.4l-2.586 5.171" fill="none" stroke="#000000" stroke-linecap="round" stroke-linejoin="round" stroke-width="1"></path><path d="M9.988 16.392c2.065 -0.743 13.261 -5.066 13.261 -5.066" fill="none" stroke="#000000" stroke-linecap="round" stroke-linejoin="round" stroke-width="1"></path><path d="m2.07 12 9.825 0" fill="none" stroke="#000000" stroke-linecap="round" stroke-linejoin="round" stroke-width="1"></path></svg>