<svg xmlns="http://www.w3.org/2000/svg" fill="none" viewBox="0 0 24 24" id="Heavy-Equipment-Lift-Hook-Box--Streamline-Ultimate"><desc>Heavy Equipment Lift Hook Box Streamline Icon: https://streamlinehq.com</desc><path stroke="#000000" stroke-linecap="round" stroke-linejoin="round" d="M20.2139 23.1946h-8.9588c-0.792 0 -1.55161 -0.3146 -2.11164 -0.8747 -0.56004 -0.56 -0.87466 -1.3196 -0.87466 -2.1116s0.31462 -1.5516 0.87466 -2.1116c0.56003 -0.56 1.31964 -0.8747 2.11164 -0.8747h8.9588c0.792 0 1.5515 0.3147 2.1116 0.8747 0.56 0.56 0.8746 1.3196 0.8746 2.1116s-0.3146 1.5516 -0.8746 2.1116c-0.5601 0.5601 -1.3196 0.8747 -2.1116 0.8747Z" stroke-width="1"></path><path stroke="#000000" stroke-linecap="round" stroke-linejoin="round" d="M21.7069 17.6202v-4.8775c0 -0.396 -0.1573 -0.7758 -0.4373 -1.0558s-0.6598 -0.4374 -1.0558 -0.4374h-1.4932c-0.396 0 -0.7757 -0.1573 -1.0558 -0.4373 -0.28 -0.28 -0.4373 -0.6598 -0.4373 -1.05579V8.26327c0 -0.396 -0.1573 -0.77578 -0.4373 -1.0558 -0.28 -0.28002 -0.6598 -0.43733 -1.0558 -0.43733H11.255c-0.396 0 -0.7758 0.15731 -1.0558 0.43733 -0.28005 0.28002 -0.43736 0.6598 -0.43736 1.0558v9.35693" stroke-width="1"></path><path stroke="#000000" stroke-linecap="round" stroke-linejoin="round" d="M12.7482 9.75641h1.4931" stroke-width="1"></path><path stroke="#000000" stroke-linecap="round" stroke-linejoin="round" d="M3.78931 5.97382v6.02228" stroke-width="1"></path><path stroke="#000000" stroke-linecap="round" stroke-linejoin="round" d="M9.76185 11.5183 1.32067 3.67435c-0.29849 -0.2806 -0.482105 -0.66207 -0.515213 -1.07041 -0.033108 -0.40833 0.086649 -0.8144 0.336033 -1.13942v0c0.24662 -0.32789 0.6064 -0.552307 1.00934 -0.629582 0.40294 -0.077276 0.82021 -0.001886 1.17064 0.211502L13.206 6.78007" stroke-width="1"></path><path stroke="#000000" stroke-linecap="round" stroke-linejoin="round" d="M5.78021 11.9961H1.79852c-0.54975 0 -0.995419 0.4457 -0.995419 0.9954v3.9817c0 0.5498 0.445669 0.9954 0.995419 0.9954h3.98169c0.54976 0 0.99542 -0.4456 0.99542 -0.9954v-3.9817c0 -0.5497 -0.44566 -0.9954 -0.99542 -0.9954Z" stroke-width="1"></path><g><path stroke="#000000" d="M12.0016 20.5866c-0.2062 0 -0.3733 -0.1671 -0.3733 -0.3733 0 -0.2061 0.1671 -0.3733 0.3733 -0.3733" stroke-width="1"></path><path stroke="#000000" d="M12.0016 20.5866c0.2062 0 0.3733 -0.1671 0.3733 -0.3733 0 -0.2061 -0.1671 -0.3733 -0.3733 -0.3733" stroke-width="1"></path></g><g><path stroke="#000000" d="M15.7368 20.5866c-0.2061 0 -0.3733 -0.1671 -0.3733 -0.3733 0 -0.2061 0.1672 -0.3733 0.3733 -0.3733" stroke-width="1"></path><path stroke="#000000" d="M15.7368 20.5866c0.2062 0 0.3733 -0.1671 0.3733 -0.3733 0 -0.2061 -0.1671 -0.3733 -0.3733 -0.3733" stroke-width="1"></path></g><g><path stroke="#000000" d="M19.4723 20.5866c-0.2062 0 -0.3733 -0.1671 -0.3733 -0.3733 0 -0.2061 0.1671 -0.3733 0.3733 -0.3733" stroke-width="1"></path><path stroke="#000000" d="M19.4722 20.5866c0.2061 0 0.3733 -0.1671 0.3733 -0.3733 0 -0.2061 -0.1672 -0.3733 -0.3733 -0.3733" stroke-width="1"></path></g></svg>