<svg xmlns="http://www.w3.org/2000/svg" viewBox="0 0 24 24" id="Google-Digital-Garage-Logo--Streamline-Ultimate"><desc>Google Digital Garage Logo Streamline Icon: https://streamlinehq.com</desc><g><path d="m15.58 0.75 0 5.63L0.75 7.4l0 -4.09L15.58 0.75z" fill="none" stroke="#000000" stroke-linecap="round" stroke-linejoin="round" stroke-width="1"></path><path d="m15.58 9.44 0 5.63L0.75 14.04l0 -3.57 14.83 -1.03z" fill="none" stroke="#000000" stroke-linecap="round" stroke-linejoin="round" stroke-width="1"></path><path d="m0.75 17.11 14.83 1.03 0 5.11L0.75 20.69l0 -3.58z" fill="none" stroke="#000000" stroke-linecap="round" stroke-linejoin="round" stroke-width="1"></path><path d="m23.25 3.82 0 3.58 -7.67 -1.02 0 -5.63 7.67 3.07z" fill="none" stroke="#000000" stroke-linecap="round" stroke-linejoin="round" stroke-width="1"></path><path d="m23.25 10.47 0 3.57 -7.67 1.03 0 -5.63 7.67 1.03z" fill="none" stroke="#000000" stroke-linecap="round" stroke-linejoin="round" stroke-width="1"></path><path d="m15.58 18.14 7.67 -1.03 0 3.58 -7.67 2.56 0 -5.11z" fill="none" stroke="#000000" stroke-linecap="round" stroke-linejoin="round" stroke-width="1"></path></g></svg>