<svg viewBox="0 0 24 24" xmlns="http://www.w3.org/2000/svg" id="Readernaut-Logo--Streamline-Ultimate"><desc>Readernaut Logo Streamline Icon: https://streamlinehq.com</desc><path d="M12 19.58C8.75 15.67 0.75 15.46 0.75 15.46v3.23A15.8 15.8 0 0 1 12 23.25h0a15.8 15.8 0 0 1 11.25 -4.56v-3.24s-8.01 0.22 -11.25 4.13Z" fill="none" stroke="#000000" stroke-linecap="round" stroke-linejoin="round" stroke-width="1"></path><path d="M3.17 12a8.83 8.83 0 0 1 17.67 0" fill="none" stroke="#000000" stroke-linecap="round" stroke-linejoin="round" stroke-width="1"></path><path d="M7.22 13.91a5.18 5.18 0 1 1 9.56 0" fill="none" stroke="#000000" stroke-linecap="round" stroke-linejoin="round" stroke-width="1"></path><path d="M23.25 11.48c0 1.08 -1.31 2 -2.43 2V8.55c1.12 0 2.43 0.88 2.43 2Z" fill="none" stroke="#000000" stroke-linecap="round" stroke-linejoin="round" stroke-width="1"></path><path d="M0.75 11.48c0 1.08 1.32 2 2.45 2V8.55c-1.13 0 -2.45 0.88 -2.45 2Z" fill="none" stroke="#000000" stroke-linecap="round" stroke-linejoin="round" stroke-width="1"></path><path d="m20.78 3.68 0 4.89" fill="none" stroke="#000000" stroke-linecap="round" stroke-linejoin="round" stroke-width="1"></path><path d="M19.31 2.22a1.47 1.47 0 1 0 2.94 0 1.47 1.47 0 1 0 -2.94 0Z" fill="none" stroke="#000000" stroke-linecap="round" stroke-linejoin="round" stroke-width="1"></path></svg>