<svg viewBox="0 0 24 24" xmlns="http://www.w3.org/2000/svg" id="Scribd-Logo--Streamline-Ultimate"><desc>Scribd Logo Streamline Icon: https://streamlinehq.com</desc><path d="M17.15 18.46a2.5 2.5 0 1 0 5 0 2.5 2.5 0 1 0 -5 0Z" fill="none" stroke="#000000" stroke-linecap="round" stroke-linejoin="round" stroke-width="1"></path><path d="m16 14.9 0 -0.13c-2 -5.51 -9.86 -5.01 -9.86 -8.52C6.14 4.53 7.88 4 9.6 4a4.48 4.48 0 0 1 2 0.37 2.24 2.24 0 0 0 2.2 3.16 2.43 2.43 0 0 0 2.44 -2.43c0 -1.68 -2.9 -4.35 -6.9 -4.35C6 0.75 2.8 3 2.8 6.22c0 6.63 9 5.55 9 10.62 0 3.23 -4.23 3.69 -5.73 1.53a2 2 0 0 0 0.65 -1.59 2.44 2.44 0 0 0 -4.88 0 7.9 7.9 0 0 0 7.9 6.48A6.5 6.5 0 0 0 15 20.8a4.55 4.55 0 0 1 1 -5.9Z" fill="none" stroke="#000000" stroke-linecap="round" stroke-linejoin="round" stroke-width="1"></path></svg>