<svg viewBox="0 0 24 24" xmlns="http://www.w3.org/2000/svg" id="Keyboard-Asterisk-2--Streamline-Ultimate"><desc>Keyboard Asterisk 2 Streamline Icon: https://streamlinehq.com</desc><path d="M21 8.953h-3.8l1.9 -3.295a1.5 1.5 0 0 0 -0.549 -2.049l-2.6 -1.5a1.5 1.5 0 0 0 -2.049 0.549L12 5.953l-1.9 -3.3a1.5 1.5 0 0 0 -2.049 -0.549l-2.6 1.5A1.5 1.5 0 0 0 4.9 5.658l1.9 3.295H3a1.5 1.5 0 0 0 -1.5 1.5v3a1.5 1.5 0 0 0 1.5 1.5h3.8l-1.9 3.294a1.5 1.5 0 0 0 0.551 2.053l2.6 1.5a1.5 1.5 0 0 0 2.049 -0.549l1.9 -3.298 1.9 3.294a1.5 1.5 0 0 0 2.049 0.549l2.6 -1.5a1.5 1.5 0 0 0 0.549 -2.049l-1.9 -3.294H21a1.5 1.5 0 0 0 1.5 -1.5v-3a1.5 1.5 0 0 0 -1.5 -1.5Z" fill="none" stroke="#000000" stroke-linecap="round" stroke-linejoin="round" stroke-width="1"></path></svg>