<svg xmlns="http://www.w3.org/2000/svg" viewBox="0 0 24 24" id="Keyboard-Delete--Streamline-Ultimate"><desc>Keyboard Delete Streamline Icon: https://streamlinehq.com</desc><defs></defs><title>keyboard-delete</title><path d="M4.5 1.497h15s3 0 3 3v15s0 3 -3 3h-15s-3 0 -3 -3v-15s0 -3 3 -3" fill="none" stroke="#000000" stroke-linecap="round" stroke-linejoin="round" stroke-width="1"></path><path d="m16.5 9.747 -4.5 4.5" fill="none" stroke="#000000" stroke-linecap="round" stroke-linejoin="round" stroke-width="1"></path><path d="m12 9.747 4.5 4.5" fill="none" stroke="#000000" stroke-linecap="round" stroke-linejoin="round" stroke-width="1"></path><path d="M11.121 6H18a1.5 1.5 0 0 1 1.5 1.5v9A1.5 1.5 0 0 1 18 18h-6.879a1.5 1.5 0 0 1 -1.06 -0.439L4.72 12.527a0.749 0.749 0 0 1 0 -1.06l5.341 -5.031A1.5 1.5 0 0 1 11.121 6Z" fill="none" stroke="#000000" stroke-linecap="round" stroke-linejoin="round" stroke-width="1"></path></svg>