<svg xmlns="http://www.w3.org/2000/svg" viewBox="0 0 24 24" id="Keyboard-Shift--Streamline-Ultimate"><desc>Keyboard Shift Streamline Icon: https://streamlinehq.com</desc><defs></defs><title>keyboard-shift</title><path d="M4.5 1.497h15s3 0 3 3v15s0 3 -3 3h-15s-3 0 -3 -3v-15s0 -3 3 -3" fill="none" stroke="#000000" stroke-linecap="round" stroke-linejoin="round" stroke-width="1"></path><path d="M16.5 12h2.248a0.75 0.75 0 0 0 0.531 -1.28l-6.3 -5.86a1.5 1.5 0 0 0 -1.948 0L4.72 10.717A0.75 0.75 0 0 0 5.25 12H7.5v6A1.5 1.5 0 0 0 9 19.5h6a1.5 1.5 0 0 0 1.5 -1.5Z" fill="none" stroke="#000000" stroke-linecap="round" stroke-linejoin="round" stroke-width="1"></path></svg>