<svg xmlns="http://www.w3.org/2000/svg" viewBox="0 0 24 24" id="Google-Fi-Logo--Streamline-Ultimate"><desc>Google Fi Logo Streamline Icon: https://streamlinehq.com</desc><g><path d="M22.12 3.75a2.75 2.75 0 0 1 -2.74 2.75H4.62a2.75 2.75 0 0 1 0 -5.5h14.76a2.75 2.75 0 0 1 2.74 2.75Z" fill="none" stroke="#000000" stroke-linejoin="round" stroke-width="1"></path><path d="M13.88 12.25A2.76 2.76 0 0 1 11.12 15h-6.5a2.75 2.75 0 0 1 0 -5.5h6.5a2.76 2.76 0 0 1 2.76 2.75Z" fill="none" stroke="#000000" stroke-linejoin="round" stroke-width="1"></path><path d="M16.63 3.75a2.75 2.75 0 1 0 5.5 0 2.75 2.75 0 1 0 -5.5 0" fill="none" stroke="#000000" stroke-linejoin="round" stroke-width="1"></path><path d="M4.62 23a2.75 2.75 0 0 1 -2.74 -2.75v-8a2.75 2.75 0 1 1 5.5 0v8A2.76 2.76 0 0 1 4.62 23Z" fill="none" stroke="#000000" stroke-linejoin="round" stroke-width="1"></path><path d="M19.38 23a2.76 2.76 0 0 1 -2.76 -2.75v-8a2.75 2.75 0 1 1 5.5 0v8A2.75 2.75 0 0 1 19.38 23Z" fill="none" stroke="#000000" stroke-linejoin="round" stroke-width="1"></path></g></svg>