<svg xmlns="http://www.w3.org/2000/svg" viewBox="0 0 24 24" id="Google-Market-Platform-Logo--Streamline-Ultimate"><desc>Google Market Platform Logo Streamline Icon: https://streamlinehq.com</desc><g><path d="M0.75 12a11.25 11.19 0 1 0 22.5 0 11.25 11.19 0 1 0 -22.5 0" fill="none" stroke="#000000" stroke-linecap="round" stroke-linejoin="round" stroke-width="1"></path><path d="M6.89 12a5.11 5.08 0 1 0 10.22 0 5.11 5.08 0 1 0 -10.22 0" fill="none" stroke="#000000" stroke-linecap="round" stroke-linejoin="round" stroke-width="1"></path><path d="M20 4.09a3.05 3.05 0 0 1 -4.38 4.31" fill="none" stroke="#000000" stroke-linecap="round" stroke-linejoin="round" stroke-width="1"></path><path d="M15.62 15.6a3 3 0 0 0 0 4.31 3.07 3.07 0 0 0 4.33 0" fill="none" stroke="#000000" stroke-linecap="round" stroke-linejoin="round" stroke-width="1"></path><path d="M1.13 14.45a3.07 3.05 0 1 0 6.14 0 3.07 3.05 0 1 0 -6.14 0" fill="none" stroke="#000000" stroke-linecap="round" stroke-linejoin="round" stroke-width="1"></path></g></svg>