<svg xmlns="http://www.w3.org/2000/svg" viewBox="0 0 24 24" id="Indiegogo-Logo--Streamline-Ultimate"><desc>IndieGogo Logo Streamline Icon: https://streamlinehq.com</desc><g><path d="M0.75 11v2c0 3.42 1.47 5.38 4.4 5.38H10V11H6.13l-0.49 2.45h2V14c0 1.46 -0.49 1.95 -2 1.95a2.3 2.3 0 0 1 -2.44 -2.48V11c0 -2.44 2.93 -3.42 4.89 -1.95L9.4 6.88C5.58 4.48 0.75 6.13 0.75 11Z" fill="none" stroke="#000000" stroke-linecap="round" stroke-linejoin="round" stroke-width="1"></path><path d="M17.87 5.64c-2.45 0 -5.38 1 -5.38 4.89v2.94c0 3.91 2.93 4.89 5.38 4.89s5.38 -1 5.38 -4.89v-2.94c0 -3.91 -2.93 -4.89 -5.38 -4.89Z" fill="none" stroke="#000000" stroke-linecap="round" stroke-linejoin="round" stroke-width="1"></path><path d="M17.87 8.58A2.28 2.28 0 0 0 15.42 11v2a2.28 2.28 0 0 0 2.45 2.44A2.28 2.28 0 0 0 20.32 13v-2a2.28 2.28 0 0 0 -2.45 -2.42Z" fill="none" stroke="#000000" stroke-linecap="round" stroke-linejoin="round" stroke-width="1"></path></g></svg>