<svg xmlns="http://www.w3.org/2000/svg" fill="none" viewBox="0 0 24 24" id="Cc-Content-Sign--Streamline-Ultimate"><desc>Cc Content Sign Streamline Icon: https://streamlinehq.com</desc><path stroke="#000000" stroke-linecap="round" stroke-linejoin="round" d="M0.959 12a11.041 11.041 0 1 0 22.082 0A11.041 11.041 0 1 0 0.959 12" stroke-width="1"></path><path stroke="#000000" stroke-linecap="round" stroke-linejoin="round" d="M10.4258 8.91406c-0.3177 -0.89893 -1.30674 -1.54297 -2.31447 -1.54297 -1.27824 0 -2.31445 1.03622 -2.31445 2.31446v4.62895c0 1.2782 1.03621 2.3144 2.31445 2.3144 1.00773 0 1.99677 -0.644 2.31447 -1.543" stroke-width="1"></path><path stroke="#000000" stroke-linecap="round" stroke-linejoin="round" d="M18.2031 8.91406c-0.3177 -0.89893 -1.3067 -1.54297 -2.3144 -1.54297 -1.2783 0 -2.3145 1.03622 -2.3145 2.31446v4.62895c0 1.2782 1.0362 2.3144 2.3145 2.3144 1.0077 0 1.9967 -0.644 2.3144 -1.543" stroke-width="1"></path></svg>