<svg xmlns="http://www.w3.org/2000/svg" fill="none" viewBox="0 0 24 24" id="Content-Typing-Machine-1--Streamline-Ultimate"><desc>Content Typing Machine 1 Streamline Icon: https://streamlinehq.com</desc><path stroke="#000000" stroke-linecap="round" stroke-linejoin="round" d="M21.746 15.75h-19.5L1.2 21.479c-0.03967 0.216 -0.03144 0.438 0.0241 0.6504 0.05554 0.2125 0.15704 0.4101 0.29734 0.579 0.14029 0.1689 0.31596 0.305 0.5146 0.3986 0.19863 0.0935 0.41539 0.1424 0.63496 0.143h18.651c0.2202 0.0004 0.4377 -0.0477 0.6372 -0.1408 0.1995 -0.0931 0.3761 -0.2291 0.5171 -0.3981 0.1411 -0.169 0.2432 -0.367 0.2992 -0.58 0.0559 -0.2129 0.0643 -0.4356 0.0245 -0.6521l-1.054 -5.729Z" stroke-width="1"></path><path stroke="#000000" stroke-linecap="round" stroke-linejoin="round" d="M5.246 1.5c0 -0.09883 0.01953 -0.19669 0.05747 -0.28794 0.03794 -0.09126 0.09355 -0.17412 0.16361 -0.243814 0.07007 -0.069696 0.15323 -0.124857 0.24468 -0.162312C5.80322 0.768479 5.90117 0.749468 6 0.749995h9L18.75 4.5v6.75H5.246V1.5Z" stroke-width="1"></path><path stroke="#000000" stroke-linecap="round" stroke-linejoin="round" d="M21.746 12.75h1.5" stroke-width="1"></path><path stroke="#000000" stroke-linecap="round" stroke-linejoin="round" d="M0.75 12.75h1.5" stroke-width="1"></path><path stroke="#000000" d="M7.125 19.875c-0.20711 0 -0.375 -0.1679 -0.375 -0.375s0.16789 -0.375 0.375 -0.375" stroke-width="1"></path><path stroke="#000000" d="M7.125 19.875c0.20711 0 0.375 -0.1679 0.375 -0.375s-0.16789 -0.375 -0.375 -0.375" stroke-width="1"></path><path stroke="#000000" d="M12 19.875c-0.2071 0 -0.375 -0.1679 -0.375 -0.375s0.1679 -0.375 0.375 -0.375" stroke-width="1"></path><path stroke="#000000" d="M12 19.875c0.2071 0 0.375 -0.1679 0.375 -0.375s-0.1679 -0.375 -0.375 -0.375" stroke-width="1"></path><path stroke="#000000" d="M16.875 19.875c-0.2071 0 -0.375 -0.1679 -0.375 -0.375s0.1679 -0.375 0.375 -0.375" stroke-width="1"></path><path stroke="#000000" d="M16.875 19.875c0.2071 0 0.375 -0.1679 0.375 -0.375s-0.1679 -0.375 -0.375 -0.375" stroke-width="1"></path><path stroke="#000000" stroke-linecap="round" stroke-linejoin="round" d="M2.246 15.75v-3c0 -0.3978 0.15804 -0.7794 0.43934 -1.0607 0.28131 -0.2813 0.66284 -0.4393 1.06066 -0.4393h16.5c0.3978 0 0.7794 0.158 1.0607 0.4393s0.4393 0.6629 0.4393 1.0607v3" stroke-width="1"></path><path stroke="#000000" stroke-linecap="round" stroke-linejoin="round" d="M8.246 8.25h6.75" stroke-width="1"></path><path stroke="#000000" stroke-linecap="round" stroke-linejoin="round" d="M8.246 4.5h3.75" stroke-width="1"></path></svg>