<svg xmlns="http://www.w3.org/2000/svg" viewBox="0 0 24 24" id="Content-Paper-Edit--Streamline-Ultimate"><desc>Content Paper Edit Streamline Icon: https://streamlinehq.com</desc><path d="M22.627 14.87 15 22.5l-3.75 0.75 0.75 -3.75 7.631 -7.63a2.113 2.113 0 0 1 2.991 0l0.009 0.008a2.116 2.116 0 0 1 -0.004 2.992zM8.246 20.25h-6a1.5 1.5 0 0 1 -1.5 -1.5V2.25a1.5 1.5 0 0 1 1.5 -1.5h15a1.5 1.5 0 0 1 1.5 1.5V9m-10.5 -3.75h6m-9 4.5h9m-9 4.5h7.5" fill="none" stroke="#000000" stroke-linecap="round" stroke-linejoin="round" stroke-width="1"></path></svg>