<svg xmlns="http://www.w3.org/2000/svg" viewBox="0 0 24 24" id="Content-Pen-Write-1--Streamline-Ultimate"><desc>Content Pen Write 1 Streamline Icon: https://streamlinehq.com</desc><path fill="none" stroke="#000000" stroke-linecap="round" stroke-linejoin="round" d="m8.488 11.266 6.364 -6.364 3.182 3.182 -6.364 6.364zm13.259 -6.895 1.06 1.061a1.5 1.5 0 0 1 0 2.121l-4.773 4.773m0 -4.242 3.713 -3.713a1.5 1.5 0 0 0 0 -2.121l-1.061 -1.061a1.5 1.5 0 0 0 -2.121 0L14.852 4.9" stroke-width="1"></path><path d="M10.079 16.039c-0.878 0.878 -4.242 1.06 -4.242 1.06s0.182 -3.364 1.06 -4.242a2.25 2.25 0 0 1 3.182 3.182zM3.747 18.75H3a2.25 2.25 0 0 0 0 4.5h15.75" fill="none" stroke="#000000" stroke-linecap="round" stroke-linejoin="round" stroke-width="1"></path></svg>