<svg xmlns="http://www.w3.org/2000/svg" viewBox="0 0 24 24" id="Content-Pen--Streamline-Ultimate"><desc>Content Pen Streamline Icon: https://streamlinehq.com</desc><path d="M9.11 19.13a1.5 1.5 0 0 1 -2.122 0l-2.121 -2.122a1.5 1.5 0 0 1 0 -2.121L18.125 1.629a3 3 0 0 1 4.243 4.242zm9.015 -17.501a3 3 0 0 0 -4.243 0L10.7 4.811m3.713 0.53 4.242 4.243" fill="none" stroke="#000000" stroke-linecap="round" stroke-linejoin="round" stroke-width="1"></path><path d="M5.941 18.082a2.315 2.315 0 0 1 -0.065 3.247C4.971 22.235 0.747 23.25 0.747 23.25s1.042 -4.2 1.947 -5.1a2.314 2.314 0 0 1 3.247 -0.068z" fill="none" stroke="#000000" stroke-linecap="round" stroke-linejoin="round" stroke-width="1"></path></svg>