<svg xmlns="http://www.w3.org/2000/svg" fill="none" viewBox="0 0 24 24" id="Content-Write--Streamline-Ultimate"><desc>Content Write Streamline Icon: https://streamlinehq.com</desc><path stroke="#000000" stroke-linecap="round" stroke-linejoin="round" d="M13.68 23.25H1.82c-0.14136 0 -0.28132 -0.028 -0.41179 -0.0824 -0.13048 -0.0544 -0.24888 -0.1341 -0.34837 -0.2345 -0.099491 -0.1004 -0.178098 -0.2196 -0.231278 -0.3506 -0.053181 -0.1309 -0.079882 -0.2711 -0.078561 -0.4125V1.83c-0.001321 -0.14135 0.02538 -0.28157 0.078561 -0.41254 0.05318 -0.13098 0.131787 -0.25012 0.231278 -0.35054 0.09949 -0.100417 0.21789 -0.180128 0.34837 -0.234525C1.53868 0.777998 1.67864 0.749994 1.82 0.75h15.1c0.1418 0 0.2823 0.027935 0.4133 0.08221 0.131 0.054275 0.2501 0.133827 0.3504 0.23411 0.1003 0.10029 0.1798 0.21935 0.2341 0.35038 0.0543 0.13103 0.0822 0.27147 0.0822 0.4133v5.38" stroke-width="1"></path><path stroke="#000000" stroke-linecap="round" stroke-linejoin="round" d="M7.2 6.38h6.46" stroke-width="1"></path><path stroke="#000000" stroke-linecap="round" stroke-linejoin="round" d="M15.93 11.35c-0.5383 -0.3448 -1.1034 -0.6458 -1.69 -0.9 -0.3375 -0.1659 -0.7135 -0.2377 -1.0884 -0.2078 -0.3748 0.0299 -0.7347 0.1605 -1.0416 0.3778l-1.85 1.32c-0.28626 0.2044 -0.52788 0.465 -0.71012 0.7659 -0.18225 0.3009 -0.30129 0.6357 -0.34988 0.9841l-0.28 2" stroke-width="1"></path><path stroke="#000000" d="M3.85644 10.615c-0.20711 0 -0.375 -0.1679 -0.375 -0.375s0.16789 -0.37501 0.375 -0.37501" stroke-width="1"></path><path stroke="#000000" d="M3.85644 10.615c0.20711 0 0.375 -0.1679 0.375 -0.375s-0.16789 -0.37501 -0.375 -0.37501" stroke-width="1"></path><path stroke="#000000" d="M3.85644 6.745c-0.20711 0 -0.375 -0.1679 -0.375 -0.375 0 -0.20711 0.16789 -0.375 0.375 -0.375" stroke-width="1"></path><path stroke="#000000" d="M3.85644 6.745c0.20711 0 0.375 -0.1679 0.375 -0.375 0 -0.20711 -0.16789 -0.375 -0.375 -0.375" stroke-width="1"></path><path stroke="#000000" stroke-linecap="round" stroke-linejoin="round" d="m23.25 22.5 -5.36 -8.56" stroke-width="1"></path><path stroke="#000000" stroke-linecap="round" stroke-linejoin="round" d="m13.71 16.5 5.57 -3.41c0.3442 -0.2341 0.5851 -0.5917 0.6728 -0.9986 0.0876 -0.4069 0.0152 -0.832 -0.2021 -1.187 -0.2174 -0.355 -0.5631 -0.6127 -0.9654 -0.7197 -0.4023 -0.1069 -0.8303 -0.0549 -1.1953 0.1453L7.5 16.52l-1.91 3.06 3.59 -0.31L11.25 18" stroke-width="1"></path><path stroke="#000000" stroke-linecap="round" stroke-linejoin="round" d="M16.5 16.5h-3.75c-0.3978 0 -0.7794 0.158 -1.0607 0.4393S11.25 17.6022 11.25 18v0c0 0.3978 0.158 0.7794 0.4393 1.0607s0.6629 0.4393 1.0607 0.4393h2.74l1.76 3.75" stroke-width="1"></path></svg>