<svg xmlns="http://www.w3.org/2000/svg" viewBox="0 0 24 24" id="Content-Brush-Pen--Streamline-Ultimate"><desc>Content Brush Pen Streamline Icon: https://streamlinehq.com</desc><path d="M9.131 7.5a3.775 3.775 0 0 0 -3.75 -3.75c-2.25 0 -2.677 -1.258 -3 -3 -3 3.75 -1.781 10.5 3 10.5" fill="none" stroke="#000000" stroke-linecap="round" stroke-linejoin="round" stroke-width="1"></path><path d="m5.381 11.25 3.75 -3.75 11.638 13.47a1.382 1.382 0 0 1 -1.953 1.944zm3.912 7.7L7.96 20.282a1.5 1.5 0 0 1 -2.121 0l-2.121 -2.121a1.5 1.5 0 0 1 0 -2.121l1.262 -1.263m7.711 -7.711 5.4 -5.4a3 3 0 0 1 4.243 4.243l-5.646 5.646M21.945 6.3a3.23 3.23 0 0 1 0.494 4.716L19.2 14.25m-4.756 -8.937 4.243 4.243" fill="none" stroke="#000000" stroke-linecap="round" stroke-linejoin="round" stroke-width="1"></path><path fill="none" stroke="#000000" stroke-linecap="round" stroke-linejoin="round" d="m1.596 20.282 2.122 -2.122 2.12 2.122 -2.12 2.12zm1.061 1.061L0.75 23.25" stroke-width="1"></path></svg>