<svg xmlns="http://www.w3.org/2000/svg" viewBox="0 0 24 24" id="Content-Pens--Streamline-Ultimate"><desc>Content Pens Streamline Icon: https://streamlinehq.com</desc><path d="M5.25 0.75a3 3 0 0 0 -3 3v13.5l3 6 3 -6V3.75a3 3 0 0 0 -3 -3zm-3 4.5h6m-6 12h6m4.5 -9h6v9h-6zm5.598 -6h1.9a1.5 1.5 0 0 1 1.5 1.5V12m-5.998 8.25v3" fill="none" stroke="#000000" stroke-linecap="round" stroke-linejoin="round" stroke-width="1"></path><path d="M18.75 8.25v-4.5a3 3 0 0 0 -6 0v4.5m0 9 1.5 3h3l1.5 -3" fill="none" stroke="#000000" stroke-linecap="round" stroke-linejoin="round" stroke-width="1"></path></svg>