<svg xmlns="http://www.w3.org/2000/svg" viewBox="0 0 24 24" id="Content-Pencil-Quill--Streamline-Ultimate"><desc>Content Pencil Quill Streamline Icon: https://streamlinehq.com</desc><path fill="none" stroke="#000000" stroke-linecap="round" stroke-linejoin="round" d="m23.246 23.214 -5.996 -5.997M3.693 11.221A18.253 18.253 0 0 1 0.812 0.78c0.12 0 6.684 -0.059 11.178 2.9m7.346 9.845c0.887 2.517 0.918 4.679 -0.091 5.688 -1.059 1.059 -3.246 1.056 -5.756 0.137M22.164 1.8a3 3 0 0 0 -4.242 0L2.956 16.762l-2.21 6.459L7.2 21 22.164 6.038a3 3 0 0 0 0 -4.238zm-5.123 0.877 4.242 4.242M2.956 16.762 7.203 21" stroke-width="1"></path></svg>