<svg xmlns="http://www.w3.org/2000/svg" fill="none" viewBox="0 0 24 24" id="Remix-Content-Sign--Streamline-Ultimate"><desc>Remix Content Sign Streamline Icon: https://streamlinehq.com</desc><path stroke="#000000" stroke-linecap="round" stroke-linejoin="round" d="M0.959 12a11.041 11.041 0 1 0 22.082 0A11.041 11.041 0 1 0 0.959 12" stroke-width="1"></path><path stroke="#000000" stroke-linecap="round" stroke-linejoin="round" d="m19.4824 16.5104 -2.6965 1.723 0 -3.0359 2.6965 -1.723 0 3.0359Z" stroke-width="1"></path><path stroke="#000000" stroke-linecap="round" stroke-linejoin="round" d="m12.1445 15.656 4.6469 2.5745 0 -3.0335 -4.6469 -2.5745 0 3.0335Z" stroke-width="1"></path><path stroke="#000000" stroke-linecap="round" stroke-linejoin="round" d="m19.4823 13.4206 -2.7382 -1.6061" stroke-width="1"></path><path stroke="#000000" stroke-linecap="round" stroke-linejoin="round" d="M7.41566 9.63458 4.04883 11.4556v3.0433l2.74733 1.6386 3.06455 -1.6386 2.32129 1.1779v-3.0683l1.8709 0.9729 2.6193 -1.821V8.84179L9.86071 5.21924 7.41566 6.69099v2.94359Z" stroke-width="1"></path></svg>