<svg xmlns="http://www.w3.org/2000/svg" fill="none" viewBox="0 0 24 24" id="Diagram-Curve-Rise-Large-Head--Streamline-Ultimate"><desc>Diagram Curve Rise Large Head Streamline Icon: https://streamlinehq.com</desc><path stroke="#000000" stroke-linecap="round" stroke-linejoin="round" d="m22.6909 11.3077 -4.8804 -4.88045 -4.8804 4.88045" stroke-width="1"></path><path stroke="#000000" stroke-linecap="round" stroke-linejoin="round" d="M1.30908 6.41981c0.73073 -0.73073 1.72181 -1.14125 2.75521 -1.14125h1.06114c0.50997 0.00065 1.01477 0.10211 1.48538 0.29856 0.47061 0.19645 0.89773 0.484 1.2568 0.84613 0.35906 0.36212 0.64299 0.79166 0.83545 1.26392 0.19246 0.47225 0.28964 0.9779 0.28596 1.48785V14.825c0.00737 1.0368 0.42476 2.0286 1.16098 2.7587 0.7362 0.7301 1.7315 1.1391 2.7683 1.1378h1.0582c0.5083 -0.0013 1.0113 -0.1034 1.4798 -0.3005 0.4686 -0.1971 0.8934 -0.4851 1.2498 -0.8476 0.3564 -0.3624 0.6373 -0.7919 0.8265 -1.2637 0.1892 -0.4718 0.2829 -0.9764 0.2756 -1.4847V6.42325" stroke-width="1"></path></svg>