<svg viewBox="0 0 24 24" xmlns="http://www.w3.org/2000/svg" id="Diagram-Arrow-Corner-Point-Right--Streamline-Ultimate"><desc>Diagram Arrow Corner Point Right Streamline Icon: https://streamlinehq.com</desc><path d="M23.011 6.951 16.862 0.853c-0.2 -0.185 -0.362 -0.114 -0.362 0.158V4.5H2.25A1.5 1.5 0 0 0 0.75 6v15.75a1.5 1.5 0 0 0 1.5 1.5H4.5a1.5 1.5 0 0 0 1.5 -1.5V12a1.5 1.5 0 0 1 1.5 -1.5h9v3.489c0 0.272 0.163 0.343 0.362 0.158l6.149 -6.1a0.75 0.75 0 0 0 0 -1.1Z" fill="none" stroke="#000000" stroke-linecap="round" stroke-linejoin="round" stroke-width="1"></path></svg>