<svg xmlns="http://www.w3.org/2000/svg" fill="none" viewBox="0 0 24 24" id="Diagram-Wave-Both-Direction-Large-Head--Streamline-Ultimate"><desc>Diagram Wave Both Direction Large Head Streamline Icon: https://streamlinehq.com</desc><path stroke="#000000" stroke-linecap="round" stroke-linejoin="round" d="m6.47671 15.0875 -3.9418 3.9418 3.9418 3.9418" stroke-width="1"></path><path stroke="#000000" stroke-linecap="round" stroke-linejoin="round" d="M21.4651 4.9707h-3.9418" stroke-width="1"></path><path stroke="#000000" stroke-linecap="round" stroke-linejoin="round" d="M14.5602 4.9707h-2.693" stroke-width="1"></path><path stroke="#000000" stroke-linecap="round" stroke-linejoin="round" d="M9.04625 5.64545c-0.36324 0.27559 -0.66982 0.62385 -0.90175 1.02431 -0.23193 0.40046 -0.38452 0.84505 -0.44882 1.30766" stroke-width="1"></path><path stroke="#000000" stroke-linecap="round" stroke-linejoin="round" d="M8.52319 10.8278c0.30127 0.3476 0.66653 0.6289 1.07419 0.8272 0.40762 0.1983 0.84942 0.3097 1.29922 0.3276" stroke-width="1"></path><path stroke="#000000" stroke-linecap="round" stroke-linejoin="round" d="M13.8588 11.9955c0.4497 0.0178 0.8915 0.1292 1.2992 0.3276 0.4076 0.1983 0.7729 0.4796 1.0742 0.8271" stroke-width="1"></path><path stroke="#000000" stroke-linecap="round" stroke-linejoin="round" d="M17.0659 16.0008c-0.0643 0.4626 -0.2169 0.9072 -0.4488 1.3077 -0.2319 0.4004 -0.5385 0.7487 -0.9018 1.0243" stroke-width="1"></path><path stroke="#000000" stroke-linecap="round" stroke-linejoin="round" d="M12.8882 19.0075h-2.693" stroke-width="1"></path><path stroke="#000000" stroke-linecap="round" stroke-linejoin="round" d="M7.23203 19.0075H4.04919" stroke-width="1"></path><path stroke="#000000" stroke-linecap="round" stroke-linejoin="round" d="m17.5233 8.91254 3.9418 -3.9418 -3.9418 -3.9418" stroke-width="1"></path></svg>