<svg xmlns="http://www.w3.org/2000/svg" fill="none" viewBox="0 0 24 24" id="Diagram-Dash-Wave-Down-Large-Head--Streamline-Ultimate"><desc>Diagram Dash Wave Down Large Head Streamline Icon: https://streamlinehq.com</desc><path stroke="#000000" stroke-linecap="round" stroke-linejoin="round" d="m0.75 4.48958 0.73129 0.00183" stroke-width="1"></path><path stroke="#000000" stroke-linecap="round" stroke-linejoin="round" d="M4.28549 6.0237c0.36456 0.85036 0.48801 1.76331 0.36008 2.66297" stroke-width="1"></path><path stroke="#000000" stroke-linecap="round" stroke-linejoin="round" d="M4.64557 11.6736v2.7156" stroke-width="1"></path><path stroke="#000000" stroke-linecap="round" stroke-linejoin="round" d="M4.65866 17.1174c0.04399 0.453 0.21691 0.8898 0.5035 1.2717 0.28658 0.3818 0.67802 0.6971 1.13975 0.918" stroke-width="1"></path><path stroke="#000000" stroke-linecap="round" stroke-linejoin="round" d="M9.69098 19.5268c0.50522 -0.133 0.96612 -0.368 1.34422 -0.6856 0.3782 -0.3175 0.6625 -0.7083 0.8293 -1.1398" stroke-width="1"></path><path stroke="#000000" stroke-linecap="round" stroke-linejoin="round" d="M12.0107 14.9864v-2.7156" stroke-width="1"></path><path stroke="#000000" stroke-linecap="round" stroke-linejoin="round" d="M12.0107 9.28389V7.92612c-0.0341 -0.45197 0 -0.90584 0.1015 -1.35027" stroke-width="1"></path><path stroke="#000000" stroke-linecap="round" stroke-linejoin="round" d="M14.468 4.57674c0.5156 -0.08996 1.0427 -0.12153 1.5679 -0.0939 0.5283 -0.01467 1.0527 0.08204 1.5276 0.2817" stroke-width="1"></path><path stroke="#000000" stroke-linecap="round" stroke-linejoin="round" d="m19.3695 7.1383 0.0056 2.71555" stroke-width="1"></path><path stroke="#000000" stroke-linecap="round" stroke-linejoin="round" d="m19.3753 12.2708 0 4.0457" stroke-width="1"></path><path stroke="#000000" stroke-linecap="round" stroke-linejoin="round" d="m15.4905 12.2274 3.8798 4.0891 3.8797 -4.0891" stroke-width="1"></path></svg>