<svg viewBox="0 0 24 24" xmlns="http://www.w3.org/2000/svg" id="Diagram-Dash-Circle--Streamline-Ultimate"><desc>Diagram Dash Circle Streamline Icon: https://streamlinehq.com</desc><path d="m0.758 14.008 3 -3 3 3" fill="none" stroke="#000000" stroke-linecap="round" stroke-linejoin="round" stroke-width="1"></path><path d="M15.835 2.585a9.637 9.637 0 0 1 2.808 1.237" fill="none" stroke="#000000" stroke-linecap="round" stroke-linejoin="round" stroke-width="1"></path><path d="M21.135 6.1a9.547 9.547 0 0 1 1.492 2.681" fill="none" stroke="#000000" stroke-linecap="round" stroke-linejoin="round" stroke-width="1"></path><path d="M23.25 12.092a10.544 10.544 0 0 1 -0.419 3.042" fill="none" stroke="#000000" stroke-linecap="round" stroke-linejoin="round" stroke-width="1"></path><path d="M21.319 18.149a9.39 9.39 0 0 1 -2.17 2.17" fill="none" stroke="#000000" stroke-linecap="round" stroke-linejoin="round" stroke-width="1"></path><path d="M16.134 21.831a10.544 10.544 0 0 1 -3.042 0.419" fill="none" stroke="#000000" stroke-linecap="round" stroke-linejoin="round" stroke-width="1"></path><path d="M9.777 21.627A9.561 9.561 0 0 1 7.1 20.135" fill="none" stroke="#000000" stroke-linecap="round" stroke-linejoin="round" stroke-width="1"></path><path d="M4.822 17.643a9.61 9.61 0 0 1 -1.237 -2.808" fill="none" stroke="#000000" stroke-linecap="round" stroke-linejoin="round" stroke-width="1"></path></svg>