<svg viewBox="0 0 24 24" xmlns="http://www.w3.org/2000/svg" id="Diagram-Curve-Rise-Dash--Streamline-Ultimate"><desc>Diagram Curve Rise Dash Streamline Icon: https://streamlinehq.com</desc><path d="m23.25 13.257 -3 -3 -3 3" fill="none" stroke="#000000" stroke-linecap="round" stroke-linejoin="round" stroke-width="1"></path><path d="m0.75 12.507 0.008 -2.25a3.607 3.607 0 0 1 0.128 -0.844" fill="none" stroke="#000000" stroke-linecap="round" stroke-linejoin="round" stroke-width="1"></path><path d="M2.8 6.978a5.234 5.234 0 0 1 2.817 -0.471" fill="none" stroke="#000000" stroke-linecap="round" stroke-linejoin="round" stroke-width="1"></path><path d="M8.687 7.108a3.9 3.9 0 0 1 1.673 2.279" fill="none" stroke="#000000" stroke-linecap="round" stroke-linejoin="round" stroke-width="1"></path><path d="m10.5 12.559 0 2.895" fill="none" stroke="#000000" stroke-linecap="round" stroke-linejoin="round" stroke-width="1"></path><path d="M11.312 18.458a3.988 3.988 0 0 0 2.412 1.48" fill="none" stroke="#000000" stroke-linecap="round" stroke-linejoin="round" stroke-width="1"></path><path d="M16.9 19.971a3.777 3.777 0 0 0 2.471 -1.371" fill="none" stroke="#000000" stroke-linecap="round" stroke-linejoin="round" stroke-width="1"></path><path d="m20.25 15.613 0 -5.356" fill="none" stroke="#000000" stroke-linecap="round" stroke-linejoin="round" stroke-width="1"></path></svg>