<svg viewBox="0 0 24 24" xmlns="http://www.w3.org/2000/svg" id="Diagram-Arrow-Diagonal--Streamline-Ultimate"><desc>Diagram Arrow Diagonal Streamline Icon: https://streamlinehq.com</desc><path d="m16.408 20.279 -2.131 2.593c-0.172 0.207 -0.093 0.377 0.176 0.378h8.308a0.488 0.488 0 0 0 0.489 -0.487v-8.34c0 -0.269 -0.168 -0.347 -0.374 -0.174L20.3 16.418" fill="none" stroke="#000000" stroke-linecap="round" stroke-linejoin="round" stroke-width="1"></path><path d="M20.318 16.369 7.581 3.702" fill="none" stroke="#000000" stroke-linecap="round" stroke-linejoin="round" stroke-width="1"></path><path d="m3.72 7.592 12.688 12.687" fill="none" stroke="#000000" stroke-linecap="round" stroke-linejoin="round" stroke-width="1"></path><path d="M3.72 7.592 1.128 9.723C0.921 9.9 0.751 9.816 0.75 9.547V1.239A0.488 0.488 0 0 1 1.237 0.75h8.34c0.269 0 0.347 0.168 0.174 0.374L7.581 3.7" fill="none" stroke="#000000" stroke-linecap="round" stroke-linejoin="round" stroke-width="1"></path></svg>