<svg xmlns="http://www.w3.org/2000/svg" fill="none" viewBox="0 0 24 24" id="Diagram-Curvy-Both-Direction-Large-Head--Streamline-Ultimate"><desc>Diagram Curvy Both Direction Large Head Streamline Icon: https://streamlinehq.com</desc><path stroke="#000000" stroke-linecap="round" stroke-linejoin="round" d="m18.1788 9.08077 3.7461 -3.74606 -3.7461 -3.74605" stroke-width="1"></path><path stroke="#000000" stroke-linecap="round" stroke-linejoin="round" d="m5.82117 14.9192 -3.74606 3.7461 3.74606 3.746" stroke-width="1"></path><path stroke="#000000" stroke-linecap="round" stroke-linejoin="round" d="M21.9249 5.33472H11.2613c-0.8318 0 -1.62958 0.35111 -2.21776 0.97611 -0.58818 0.62499 -0.91862 1.47266 -0.91862 2.35653 0 0.88387 0.33044 1.73154 0.91862 2.35654 0.58818 0.625 1.38596 0.9761 2.21776 0.9761h2.5091c0.8318 0 1.6295 0.3511 2.2177 0.9761 0.5882 0.625 0.9186 1.4727 0.9186 2.3565 0 0.8839 -0.3304 1.7316 -0.9186 2.3566 -0.5882 0.625 -1.3859 0.9761 -2.2177 0.9761H2.125" stroke-width="1"></path></svg>