<svg xmlns="http://www.w3.org/2000/svg" viewBox="0 0 24 24" id="Flow-1--Streamline-Ultimate"><desc>Flow 1 Streamline Icon: https://streamlinehq.com</desc><defs></defs><title>flow-1</title><path d="M0.75 4a2.5 2.5 0 1 0 5 0 2.5 2.5 0 1 0 -5 0" fill="none" stroke="#000000" stroke-linecap="round" stroke-linejoin="round" stroke-width="1"></path><path d="M10.75 4a2.5 2.5 0 1 0 5 0 2.5 2.5 0 1 0 -5 0" fill="none" stroke="#000000" stroke-linecap="round" stroke-linejoin="round" stroke-width="1"></path><path d="M10.75 19a2.5 2.5 0 1 0 5 0 2.5 2.5 0 1 0 -5 0" fill="none" stroke="#000000" stroke-linecap="round" stroke-linejoin="round" stroke-width="1"></path><path d="m5.75 4 5 0" fill="none" stroke="#000000" stroke-linecap="round" stroke-linejoin="round" stroke-width="1"></path><path d="m3.25 19 7.5 0" fill="none" stroke="#000000" stroke-linecap="round" stroke-linejoin="round" stroke-width="1"></path><path d="M15.75 4a7.5 7.5 0 0 1 0 15" fill="none" stroke="#000000" stroke-linecap="round" stroke-linejoin="round" stroke-width="1"></path><path d="M6.25 15.5 2.75 19l3.5 3.5" fill="none" stroke="#000000" stroke-linecap="round" stroke-linejoin="round" stroke-width="1"></path></svg>