<svg xmlns="http://www.w3.org/2000/svg" fill="none" viewBox="0 0 24 24" id="Crypto-Market-Price-Line-Graph--Streamline-Ultimate"><desc>Crypto Market Price Line Graph Streamline Icon: https://streamlinehq.com</desc><path stroke="#000000" stroke-linecap="round" stroke-linejoin="round" d="m3.6889 12 2.44445 -3.42225 3.42222 4.39995 4.40003 -6.8444" stroke-width="1"></path><path stroke="#000000" stroke-linecap="round" stroke-linejoin="round" d="M22.1408 1.85915C21.5907 1.30905 20.8446 1 20.0667 1H3.93333c-0.77797 0 -1.52407 0.30905 -2.07418 0.85915C1.30905 2.40926 1 3.15536 1 3.93333V15.6667c0 0.7779 0.30905 1.524 0.85915 2.0741 0.55011 0.5502 1.29621 0.8592 2.07418 0.8592H20.0667c0.7779 0 1.524 -0.309 2.0741 -0.8592 0.5502 -0.5501 0.8592 -1.2962 0.8592 -2.0741V3.93333c0 -0.77797 -0.309 -1.52407 -0.8592 -2.07418Z" stroke-width="1"></path><path stroke="#000000" stroke-linecap="round" stroke-linejoin="round" d="M16.8889 12.4889V6.62219h2.2c0.389 0 0.7621 0.15453 1.0371 0.42958 0.2751 0.27505 0.4296 0.6481 0.4296 1.03709 0 0.38898 -0.1545 0.76204 -0.4296 1.03709 -0.275 0.27505 -0.6481 0.42958 -1.0371 0.42958 0.389 0 0.7621 0.15452 1.0371 0.42957 0.2751 0.2751 0.4296 0.6481 0.4296 1.0371 0 0.389 -0.1545 0.762 -0.4296 1.0371 -0.275 0.275 -0.6481 0.4296 -1.0371 0.4296h-2.2Z" stroke-width="1"></path><path stroke="#000000" stroke-linecap="round" stroke-linejoin="round" d="M16.8889 9.55554h2.2" stroke-width="1"></path><path stroke="#000000" stroke-linecap="round" stroke-linejoin="round" d="M18.3555 6.62218V5.15552" stroke-width="1"></path><path stroke="#000000" stroke-linecap="round" stroke-linejoin="round" d="M18.3555 12.4889v1.4667" stroke-width="1"></path><path stroke="#000000" stroke-linecap="round" stroke-linejoin="round" d="M6.96149 23.0107H17.0385" stroke-width="1"></path><path stroke="#000000" stroke-linecap="round" stroke-linejoin="round" d="M15.1537 23.0107H8.84668c0.90955 -1.222 1.60382 -2.9485 1.69532 -4.4107h2.9164c0.0915 1.4622 0.7858 3.1887 1.6953 4.4107Z" stroke-width="1"></path></svg>