<svg viewBox="0 0 24 24" xmlns="http://www.w3.org/2000/svg" id="Crypto-Currency-Bitcoin-Network--Streamline-Ultimate"><desc>Crypto Currency Bitcoin Network Streamline Icon: https://streamlinehq.com</desc><path d="M12 23.25a11.25 11.25 0 0 1 0 -22.5" fill="none" stroke="#000000" stroke-linecap="round" stroke-linejoin="round" stroke-width="1"></path><path d="m1.398 8.25 9.852 0" fill="none" stroke="#000000" stroke-linecap="round" stroke-linejoin="round" stroke-width="1"></path><path d="m1.402 15.75 9.848 0" fill="none" stroke="#000000" stroke-linecap="round" stroke-linejoin="round" stroke-width="1"></path><path d="M12 23.25c-2.9 0 -5.25 -5.037 -5.25 -11.25S9.1 0.75 12 0.75" fill="none" stroke="#000000" stroke-linecap="round" stroke-linejoin="round" stroke-width="1"></path><path d="M23.25 8.625A3.375 3.375 0 0 1 19.875 12H14.25V5.25h5.625a3.375 3.375 0 0 1 3.375 3.375Z" fill="none" stroke="#000000" stroke-linecap="round" stroke-linejoin="round" stroke-width="1"></path><path d="M23.25 15.375a3.375 3.375 0 0 1 -3.375 3.375H14.25V12h5.625a3.375 3.375 0 0 1 3.375 3.375Z" fill="none" stroke="#000000" stroke-linecap="round" stroke-linejoin="round" stroke-width="1"></path><path d="m16.5 5.25 0 -2.25" fill="none" stroke="#000000" stroke-linecap="round" stroke-linejoin="round" stroke-width="1"></path><path d="m19.5 5.25 0 -2.25" fill="none" stroke="#000000" stroke-linecap="round" stroke-linejoin="round" stroke-width="1"></path><path d="m16.5 21 0 -2.25" fill="none" stroke="#000000" stroke-linecap="round" stroke-linejoin="round" stroke-width="1"></path><path d="m19.5 21 0 -2.25" fill="none" stroke="#000000" stroke-linecap="round" stroke-linejoin="round" stroke-width="1"></path></svg>