<svg viewBox="0 0 24 24" xmlns="http://www.w3.org/2000/svg" id="Crypto-Currency-Bitcoin-Unlock--Streamline-Ultimate"><desc>Crypto Currency Bitcoin Unlock Streamline Icon: https://streamlinehq.com</desc><path d="M12.75 21.75a2.25 2.25 0 0 0 0 -4.5 2.25 2.25 0 0 0 0 -4.5h-3v9Z" fill="none" stroke="#000000" stroke-linecap="round" stroke-linejoin="round" stroke-width="1"></path><path d="m9.75 17.25 3.187 0" fill="none" stroke="#000000" stroke-linecap="round" stroke-linejoin="round" stroke-width="1"></path><path d="m12 12.75 0 -1.5" fill="none" stroke="#000000" stroke-linecap="round" stroke-linejoin="round" stroke-width="1"></path><path d="m12 23.25 0 -1.5" fill="none" stroke="#000000" stroke-linecap="round" stroke-linejoin="round" stroke-width="1"></path><path d="M6.75 23.25h-3a1.5 1.5 0 0 1 -1.5 -1.5v-12a1.5 1.5 0 0 1 1.5 -1.5h16.5a1.5 1.5 0 0 1 1.5 1.5v12a1.5 1.5 0 0 1 -1.5 1.5H16.5" fill="none" stroke="#000000" stroke-linecap="round" stroke-linejoin="round" stroke-width="1"></path><path d="M7.3 3.651A5.251 5.251 0 0 1 17.25 6v2.25" fill="none" stroke="#000000" stroke-linecap="round" stroke-linejoin="round" stroke-width="1"></path></svg>