<svg xmlns="http://www.w3.org/2000/svg" viewBox="0 0 24 24" id="Crypto-Currency-Bitcoin-Code--Streamline-Ultimate"><desc>Crypto Currency Bitcoin Code Streamline Icon: https://streamlinehq.com</desc><g><g><path d="M1.88 0.75h0.75a0.76 0.76 0 0 1 0.75 0.75v5.25" fill="none" stroke="#000000" stroke-linecap="round" stroke-linejoin="round" stroke-width="1"></path><path d="m1.88 6.75 3 0" fill="none" stroke="#000000" stroke-linecap="round" stroke-linejoin="round" stroke-width="1"></path></g><path d="M10.88 5.25a1.5 1.5 0 1 1 -3 0v-3a1.5 1.5 0 0 1 3 0Z" fill="none" stroke="#000000" stroke-linecap="round" stroke-linejoin="round" stroke-width="1"></path><g><path d="M13.87 0.75h0.75a0.75 0.75 0 0 1 0.75 0.75v5.25" fill="none" stroke="#000000" stroke-linecap="round" stroke-linejoin="round" stroke-width="1"></path><path d="m13.87 6.75 3 0" fill="none" stroke="#000000" stroke-linecap="round" stroke-linejoin="round" stroke-width="1"></path></g><path d="M22.87 5.25a1.5 1.5 0 0 1 -3 0v-3a1.5 1.5 0 0 1 3 0Z" fill="none" stroke="#000000" stroke-linecap="round" stroke-linejoin="round" stroke-width="1"></path><path d="M15.37 9a1.5 1.5 0 0 1 1.5 1.5V12" fill="none" stroke="#000000" stroke-linecap="round" stroke-linejoin="round" stroke-width="1"></path><g><path d="M19.87 9h0.75a0.75 0.75 0 0 1 0.75 0.75V15" fill="none" stroke="#000000" stroke-linecap="round" stroke-linejoin="round" stroke-width="1"></path><path d="m19.87 15 3 0" fill="none" stroke="#000000" stroke-linecap="round" stroke-linejoin="round" stroke-width="1"></path></g><path d="M22.87 21.75a1.5 1.5 0 0 1 -3 0v-3a1.5 1.5 0 0 1 3 0Z" fill="none" stroke="#000000" stroke-linecap="round" stroke-linejoin="round" stroke-width="1"></path><g><g><path d="m6.38 16.5 2.5 0" fill="none" stroke="#000000" stroke-linecap="round" stroke-linejoin="round" stroke-width="1"></path><path d="m7.88 13.5 0 -0.75" fill="none" stroke="#000000" stroke-linecap="round" stroke-linejoin="round" stroke-width="1"></path><path d="m7.88 19.5 0 0.75" fill="none" stroke="#000000" stroke-linecap="round" stroke-linejoin="round" stroke-width="1"></path><path d="M8.88 13.5a1.39 1.39 0 0 1 1.25 1.5 1.39 1.39 0 0 1 -1.25 1.5 1.39 1.39 0 0 1 1.25 1.5 1.39 1.39 0 0 1 -1.25 1.5h-2.5v-6Z" fill="none" stroke="#000000" stroke-linecap="round" stroke-linejoin="round" stroke-width="1"></path></g><path d="M1.13 16.5a6.75 6.75 0 1 0 13.5 0 6.75 6.75 0 1 0 -13.5 0" fill="none" stroke="#000000" stroke-linecap="round" stroke-linejoin="round" stroke-width="1"></path></g><g><path d="m15.37 21.75 0 1.5" fill="none" stroke="#000000" stroke-linecap="round" stroke-linejoin="round" stroke-width="1"></path><path d="m13.87 23.25 3 0" fill="none" stroke="#000000" stroke-linecap="round" stroke-linejoin="round" stroke-width="1"></path></g></g></svg>