<svg xmlns="http://www.w3.org/2000/svg" viewBox="0 0 24 24" id="Crypto-Currency-Bitcoin-Bubble--Streamline-Ultimate"><desc>Crypto Currency Bitcoin Bubble Streamline Icon: https://streamlinehq.com</desc><g><path d="M23.25 12a3.75 3.75 0 0 0 -2.62 -3.58 3.75 3.75 0 0 0 -5 -5 3.76 3.76 0 0 0 -7.16 0 3.75 3.75 0 0 0 -5 5.05 3.76 3.76 0 0 0 0 7.16 3.75 3.75 0 0 0 5.05 5 3.76 3.76 0 0 0 7.16 0 3.75 3.75 0 0 0 5 -5A3.75 3.75 0 0 0 23.25 12Z" fill="none" stroke="#000000" stroke-linecap="round" stroke-linejoin="round" stroke-width="1"></path><g><path d="m9 12 4.5 0" fill="none" stroke="#000000" stroke-linecap="round" stroke-linejoin="round" stroke-width="1"></path><path d="m12 7.5 0 -2" fill="none" stroke="#000000" stroke-linecap="round" stroke-linejoin="round" stroke-width="1"></path><path d="m12 16.5 0 2" fill="none" stroke="#000000" stroke-linecap="round" stroke-linejoin="round" stroke-width="1"></path><path d="M13.5 7.5a2.25 2.25 0 0 1 0 4.5 2.25 2.25 0 0 1 0 4.5H9v-9Z" fill="none" stroke="#000000" stroke-linecap="round" stroke-linejoin="round" stroke-width="1"></path></g></g></svg>