<svg xmlns="http://www.w3.org/2000/svg" fill="none" viewBox="0 0 24 24" id="Crypto-Chat-Bubble--Streamline-Ultimate"><desc>Crypto Chat Bubble Streamline Icon: https://streamlinehq.com</desc><path stroke="#000000" stroke-linecap="round" stroke-linejoin="round" d="M16.4296 3.0061v0.92818" stroke-width="1"></path><path stroke="#000000" stroke-linecap="round" stroke-linejoin="round" d="m16.4334 9.5033 -0.0038 0.9282" stroke-width="1"></path><path stroke="#000000" stroke-linecap="round" stroke-linejoin="round" d="M18.75 5.32659c0 0.36925 -0.1467 0.72338 -0.4078 0.98448s-0.6152 0.40779 -0.9845 0.40779h-2.3204V3.93433h2.3204c0.3693 0 0.7234 0.14668 0.9845 0.40778s0.4078 0.61523 0.4078 0.98448Z" stroke-width="1"></path><path stroke="#000000" stroke-linecap="round" stroke-linejoin="round" d="M18.75 8.11102c0 0.36925 -0.1467 0.72338 -0.4078 0.98448s-0.6152 0.40778 -0.9845 0.40778h-2.3204V6.71875h2.3204c0.3693 0 0.7234 0.14668 0.9845 0.40778 0.2611 0.26111 0.4078 0.61523 0.4078 0.98449Z" stroke-width="1"></path><path stroke="#000000" stroke-linecap="round" stroke-linejoin="round" d="M22.2678 12.1163c0.1398 -0.1397 0.2183 -0.3293 0.2183 -0.5269V1.90147c0 -0.19764 -0.0785 -0.38719 -0.2183 -0.52695 -0.1397 -0.13976 -0.3293 -0.21827 -0.5269 -0.21827H11.3078c-0.1977 0 -0.3872 0.07851 -0.527 0.21827 -0.1398 0.13976 -0.2183 0.32931 -0.2183 0.52695v9.68793c0 0.1976 0.0785 0.3872 0.2183 0.5269 0.1398 0.1398 0.3293 0.2183 0.527 0.2183h1.4904v2.9809l2.9809 -2.9809h5.9618c0.1976 0 0.3872 -0.0785 0.5269 -0.2183Z" stroke-width="1"></path><path stroke="#000000" stroke-linecap="round" stroke-linejoin="round" d="M15.3743 16.4056v4.1731c0 0.3509 -0.0692 0.6983 -0.2035 1.0225 -0.1343 0.3242 -0.3311 0.6187 -0.5793 0.8668 -0.2481 0.248 -0.5427 0.4448 -0.8669 0.5789 -0.3243 0.1342 -0.6717 0.2032 -1.0226 0.2031H5.5632c-0.35088 0.0001 -0.69835 -0.0689 -1.02256 -0.2031 -0.32421 -0.1341 -0.61881 -0.3309 -0.86696 -0.5789 -0.24816 -0.2481 -0.44501 -0.5426 -0.57932 -0.8668 -0.1343 -0.3242 -0.20343 -0.6716 -0.20343 -1.0225V5.38894c0 -0.70873 0.28154 -1.38843 0.78269 -1.88958 0.50115 -0.50114 1.18085 -0.78269 1.88958 -0.78269h2.96662" stroke-width="1"></path><path stroke="#000000" stroke-linecap="round" stroke-linejoin="round" d="m2.89093 18.85 12.48337 0" stroke-width="1"></path></svg>