<svg xmlns="http://www.w3.org/2000/svg" fill="none" viewBox="0 0 24 24" id="Crypto-Transaction-Phone--Streamline-Ultimate"><desc>Crypto Transaction Phone Streamline Icon: https://streamlinehq.com</desc><path stroke="#000000" stroke-linecap="round" stroke-linejoin="round" d="M1 18.6008h8.8" stroke-width="1"></path><path stroke="#000000" stroke-linecap="round" stroke-linejoin="round" d="M20.8 6.37866c0.5834 0 1.143 0.23179 1.5556 0.64437 0.4126 0.41258 0.6444 0.97216 0.6444 1.55563V20.312c0 0.5835 -0.2318 1.1431 -0.6444 1.5556 -0.4126 0.4126 -0.9722 0.6444 -1.5556 0.6444h-4.4c-0.5835 0 -1.1431 -0.2318 -1.5557 -0.6444 -0.4126 -0.4125 -0.6443 -0.9721 -0.6443 -1.5556v-4.8908" stroke-width="1"></path><path stroke="#000000" stroke-linecap="round" stroke-linejoin="round" d="M3.2 6.37878c-0.58348 0 -1.14305 0.23179 -1.55563 0.64437C1.23179 7.43573 1 7.99531 1 8.57878V20.3121c0 0.5835 0.23179 1.1431 0.64437 1.5557 0.41258 0.4125 0.97215 0.6443 1.55563 0.6443h4.4c0.58348 0 1.14305 -0.2318 1.55563 -0.6443 0.41258 -0.4126 0.64437 -0.9722 0.64437 -1.5557v-4.8908" stroke-width="1"></path><path stroke="#000000" stroke-linecap="round" stroke-linejoin="round" d="M14.2 18.6008H23" stroke-width="1"></path><path stroke="#000000" stroke-linecap="round" stroke-linejoin="round" d="m19.5778 10.5323 1.2227 1.2227 -1.2227 1.2227" stroke-width="1"></path><path stroke="#000000" stroke-linecap="round" stroke-linejoin="round" d="m4.42265 10.5323 -1.2227 1.2227 1.2227 1.2227" stroke-width="1"></path><path stroke="#000000" stroke-linecap="round" stroke-linejoin="round" d="m15.5625 11.7551 4.9927 0" stroke-width="1"></path><path stroke="#000000" stroke-linecap="round" stroke-linejoin="round" d="M3.19995 11.7551h5.20624" stroke-width="1"></path><path stroke="#000000" stroke-linecap="round" stroke-linejoin="round" d="M12 12.9778c3.24 0 5.8666 -2.6266 5.8666 -5.86663 0 -3.24007 -2.6266 -5.86666 -5.8666 -5.86666 -3.2401 0 -5.8667 2.62659 -5.8667 5.86666 0 3.24003 2.6266 5.86663 5.8667 5.86663Z" stroke-width="1"></path><path stroke="#000000" stroke-linecap="round" stroke-linejoin="round" d="M10.625 9.49452V4.72766h1.9056c0.3369 0 0.6601 0.12556 0.8983 0.34905 0.2382 0.22349 0.3721 0.5266 0.3721 0.84267 0 0.31606 -0.1339 0.61917 -0.3721 0.84266 -0.2382 0.22349 -0.5614 0.34905 -0.8983 0.34905 0.3369 0 0.6601 0.12555 0.8983 0.34904 0.2382 0.22349 0.3721 0.52661 0.3721 0.84267 0 0.31607 -0.1339 0.61918 -0.3721 0.84267 -0.2382 0.22349 -0.5614 0.34905 -0.8983 0.34905H10.625Z" stroke-width="1"></path><path stroke="#000000" stroke-linecap="round" stroke-linejoin="round" d="M10.625 7.11121h1.9056" stroke-width="1"></path><path stroke="#000000" stroke-linecap="round" stroke-linejoin="round" d="M11.8954 4.72773V3.53601" stroke-width="1"></path><path stroke="#000000" stroke-linecap="round" stroke-linejoin="round" d="M11.8954 9.49451v1.19169" stroke-width="1"></path></svg>