<svg xmlns="http://www.w3.org/2000/svg" viewBox="0 0 24 24" id="Crypto-Currency-Bitcoin-Exhcange--Streamline-Ultimate"><desc>Crypto Currency Bitcoin Exhcange Streamline Icon: https://streamlinehq.com</desc><g><g><path d="M16.68 9.09a6 6 0 0 0 -0.82 -8.34" fill="none" stroke="#000000" stroke-linecap="round" stroke-linejoin="round" stroke-width="1"></path><path d="M8.14 0.75a6 6 0 0 0 -0.82 8.34" fill="none" stroke="#000000" stroke-linecap="round" stroke-linejoin="round" stroke-width="1"></path><g><path d="M10.27 8.77V2.41h2.27A1.71 1.71 0 0 1 14.27 4a1.71 1.71 0 0 1 -1.73 1.59 1.71 1.71 0 0 1 1.73 1.59 1.72 1.72 0 0 1 -1.73 1.59Z" fill="none" stroke="#000000" stroke-linecap="round" stroke-linejoin="round" stroke-width="1"></path><path d="m10.27 5.59 2.27 0" fill="none" stroke="#000000" stroke-linecap="round" stroke-linejoin="round" stroke-width="1"></path><path d="m12 2.41 0 -1.57" fill="none" stroke="#000000" stroke-linecap="round" stroke-linejoin="round" stroke-width="1"></path><path d="m12 8.77 0 1.57" fill="none" stroke="#000000" stroke-linecap="round" stroke-linejoin="round" stroke-width="1"></path></g></g><path d="M2.25 13.5H9s1.5 0 1.5 1.5v3.75s0 1.5 -1.5 1.5H2.25s-1.5 0 -1.5 -1.5V15s0 -1.5 1.5 -1.5" fill="none" stroke="#000000" stroke-linecap="round" stroke-linejoin="round" stroke-width="1"></path><path d="m3 23.25 5.25 0" fill="none" stroke="#000000" stroke-linecap="round" stroke-linejoin="round" stroke-width="1"></path><path d="m5.63 20.25 0 3" fill="none" stroke="#000000" stroke-linecap="round" stroke-linejoin="round" stroke-width="1"></path><path d="M15 13.5h6.75s1.5 0 1.5 1.5v3.75s0 1.5 -1.5 1.5H15s-1.5 0 -1.5 -1.5V15s0 -1.5 1.5 -1.5" fill="none" stroke="#000000" stroke-linecap="round" stroke-linejoin="round" stroke-width="1"></path><path d="m15.75 23.25 5.25 0" fill="none" stroke="#000000" stroke-linecap="round" stroke-linejoin="round" stroke-width="1"></path><path d="m18.37 20.25 0 3" fill="none" stroke="#000000" stroke-linecap="round" stroke-linejoin="round" stroke-width="1"></path></g></svg>