<svg xmlns="http://www.w3.org/2000/svg" fill="none" viewBox="0 0 24 24" id="Crypto-Wallet--Streamline-Ultimate"><desc>Crypto Wallet Streamline Icon: https://streamlinehq.com</desc><path stroke="#000000" stroke-linecap="round" stroke-linejoin="round" d="M1.24219 18.2795h3.62594v1.4506h2.41758" stroke-width="1"></path><path stroke="#000000" stroke-linecap="round" stroke-linejoin="round" d="M1.23438 11.0271h3.15024V9.09302h1.93406" stroke-width="1"></path><path stroke="#000000" stroke-linecap="round" stroke-linejoin="round" d="M1.23438 15.3799h4.60079m0 0v-2.9011h1.93406m-1.93406 2.9011h4.83513" stroke-width="1"></path><path stroke="#000000" d="M10.1868 12.9624c-0.26701 0 -0.48349 -0.2165 -0.48349 -0.4835 0 -0.2671 0.21648 -0.4835 0.48349 -0.4835" stroke-width="1"></path><path stroke="#000000" d="M10.1868 12.9624c0.2671 0 0.4835 -0.2165 0.4835 -0.4835 0 -0.2671 -0.2164 -0.4835 -0.4835 -0.4835" stroke-width="1"></path><path stroke="#000000" d="M13.0864 9.57641c-0.2671 0 -0.4836 -0.21648 -0.4836 -0.48352s0.2165 -0.48351 0.4836 -0.48351" stroke-width="1"></path><path stroke="#000000" d="M13.0864 9.57641c0.267 0 0.4835 -0.21648 0.4835 -0.48352s-0.2165 -0.48351 -0.4835 -0.48351" stroke-width="1"></path><path stroke="#000000" d="M9.70318 20.2124c-0.26704 0 -0.48351 -0.2165 -0.48351 -0.4835 0 -0.2671 0.21647 -0.4835 0.48351 -0.4835" stroke-width="1"></path><path stroke="#000000" d="M9.70319 20.2124c0.26704 0 0.48351 -0.2165 0.48351 -0.4835 0 -0.2671 -0.21647 -0.4835 -0.48351 -0.4835" stroke-width="1"></path><path stroke="#000000" stroke-linecap="round" stroke-linejoin="round" d="M18.4066 11.9941V9.09302h-2.9011" stroke-width="1"></path><path stroke="#000000" stroke-linecap="round" stroke-linejoin="round" d="M18.8901 17.7963v1.934H15.022" stroke-width="1"></path><path stroke="#000000" stroke-linecap="round" stroke-linejoin="round" d="M21.5495 17.7962v1.934c0 0.7695 -0.3057 1.5074 -0.8498 2.0514 -0.544 0.5441 -1.2819 0.8497 -2.0513 0.8497H4.14286c-0.76942 0 -1.50733 -0.3056 -2.05139 -0.8497 -0.54406 -0.544 -0.84971 -1.2819 -0.84971 -2.0514V9.57639c0 -0.76942 0.30565 -1.50732 0.84971 -2.05138 0.54406 -0.54407 1.28197 -0.84972 2.05139 -0.84972H18.6484c0.7694 0 1.5073 0.30565 2.0513 0.84972 0.5441 0.54406 0.8498 1.28196 0.8498 2.05138V11.994" stroke-width="1"></path><path stroke="#000000" stroke-linecap="round" stroke-linejoin="round" d="m18.6484 6.67528 -2.2522 -4.50444c-0.0852 -0.17046 -0.2031 -0.32246 -0.3471 -0.44733 -0.1439 -0.12487 -0.311 -0.22016 -0.4918 -0.28042 -0.1808 -0.06026 -0.3717 -0.08431 -0.5617 -0.07077 -0.1901 0.01353 -0.3757 0.06438 -0.5461 0.14964L4.14288 6.67528" stroke-width="1"></path><path stroke="#000000" stroke-linecap="round" stroke-linejoin="round" d="M21.7106 17.7962c0.342 0 0.6699 -0.1222 0.9117 -0.3399 0.2419 -0.2176 0.3777 -0.5128 0.3777 -0.8205v-3.4813c0 -0.3078 -0.1358 -0.603 -0.3777 -0.8206 -0.2418 -0.2176 -0.5697 -0.3399 -0.9117 -0.3399h-3.2234c-0.8549 0 -1.6748 0.3057 -2.2793 0.8497 -0.6046 0.5441 -0.9442 1.282 -0.9442 2.0514 0 0.7694 0.3396 1.5073 0.9442 2.0514 0.6045 0.5441 1.4244 0.8497 2.2793 0.8497h3.2234Z" stroke-width="1"></path><path stroke="#000000" d="M18.4069 15.2577c-0.2002 0 -0.3626 -0.1623 -0.3626 -0.3626 0 -0.2003 0.1624 -0.3626 0.3626 -0.3626" stroke-width="1"></path><path stroke="#000000" d="M18.407 15.2577c0.2002 0 0.3626 -0.1623 0.3626 -0.3626 0 -0.2003 -0.1624 -0.3626 -0.3626 -0.3626" stroke-width="1"></path></svg>