<svg viewBox="0 0 24 24" xmlns="http://www.w3.org/2000/svg" id="Crypto-Currency-Bitcoin-Monitor-Shield--Streamline-Ultimate"><desc>Crypto Currency Bitcoin Monitor Shield Streamline Icon: https://streamlinehq.com</desc><path d="M21.75 5.25a1.5 1.5 0 0 1 1.5 1.5V18a1.5 1.5 0 0 1 -1.5 1.5H2.25A1.5 1.5 0 0 1 0.75 18V6.75a1.5 1.5 0 0 1 1.5 -1.5" fill="none" stroke="#000000" stroke-linecap="round" stroke-linejoin="round" stroke-width="1"></path><path d="M18.75 9A7.854 7.854 0 0 1 12 16.5 7.854 7.854 0 0 1 5.25 9V2.25a1.5 1.5 0 0 1 1.5 -1.5h10.5a1.5 1.5 0 0 1 1.5 1.5Z" fill="none" stroke="#000000" stroke-linecap="round" stroke-linejoin="round" stroke-width="1"></path><path d="m8.25 23.25 7.5 0" fill="none" stroke="#000000" stroke-linecap="round" stroke-linejoin="round" stroke-width="1"></path><path d="m12 19.5 0 3.75" fill="none" stroke="#000000" stroke-linecap="round" stroke-linejoin="round" stroke-width="1"></path><path d="M10.5 10.5v-6h2.25a1.5 1.5 0 0 1 0 3 1.5 1.5 0 0 1 0 3Z" fill="none" stroke="#000000" stroke-linecap="round" stroke-linejoin="round" stroke-width="1"></path><path d="m10.5 7.5 2.25 0" fill="none" stroke="#000000" stroke-linecap="round" stroke-linejoin="round" stroke-width="1"></path><path d="m12 4.5 0 -0.75" fill="none" stroke="#000000" stroke-linecap="round" stroke-linejoin="round" stroke-width="1"></path><path d="m12 10.5 0 0.75" fill="none" stroke="#000000" stroke-linecap="round" stroke-linejoin="round" stroke-width="1"></path></svg>