<svg viewBox="0 0 24 24" xmlns="http://www.w3.org/2000/svg" id="Crypto-Currency-Bitcoin-Dollar-Equal--Streamline-Ultimate"><desc>Crypto Currency Bitcoin Dollar Equal Streamline Icon: https://streamlinehq.com</desc><path d="m0.75 7.5 4.5 0" fill="none" stroke="#000000" stroke-linecap="round" stroke-linejoin="round" stroke-width="1"></path><path d="m3.75 3 0 -1.5" fill="none" stroke="#000000" stroke-linecap="round" stroke-linejoin="round" stroke-width="1"></path><path d="m3.75 12 0 1.5" fill="none" stroke="#000000" stroke-linecap="round" stroke-linejoin="round" stroke-width="1"></path><path d="M5.25 3a2.25 2.25 0 0 1 0 4.5 2.25 2.25 0 0 1 0 4.5H0.75V3Z" fill="none" stroke="#000000" stroke-linecap="round" stroke-linejoin="round" stroke-width="1"></path><path d="M12 17.25 7.5 22.5l9 0 -4.5 -5.25z" fill="none" stroke="#000000" stroke-linecap="round" stroke-linejoin="round" stroke-width="1"></path><path d="m0.75 16.5 22.5 0" fill="none" stroke="#000000" stroke-linecap="round" stroke-linejoin="round" stroke-width="1"></path><path d="M22.5 3h-3.919a2.081 2.081 0 0 0 -0.452 4.112l3.492 0.776A2.081 2.081 0 0 1 21.169 12H17.25" fill="none" stroke="#000000" stroke-linecap="round" stroke-linejoin="round" stroke-width="1"></path><path d="m19.5 3 0 -1.5" fill="none" stroke="#000000" stroke-linecap="round" stroke-linejoin="round" stroke-width="1"></path><path d="m19.5 13.5 0 -1.5" fill="none" stroke="#000000" stroke-linecap="round" stroke-linejoin="round" stroke-width="1"></path></svg>