<svg xmlns="http://www.w3.org/2000/svg" fill="none" viewBox="0 0 24 24" id="Crypto-Transaction-Monitor--Streamline-Ultimate"><desc>Crypto Transaction Monitor Streamline Icon: https://streamlinehq.com</desc><path stroke="#000000" stroke-linecap="round" stroke-linejoin="round" d="M1.9652 1.51575c-0.56435 0 -1.021841 0.45749 -1.021841 1.02184v6.13105c0 0.56434 0.457491 1.02184 1.021841 1.02184h8.1747c0.5644 0 1.0219 -0.4575 1.0219 -1.02184V2.51575c0 -0.55229 -0.4477 -1 -1 -1h-0.0219" stroke-width="1"></path><path stroke="#000000" stroke-linecap="round" stroke-linejoin="round" d="M13.7777 12.8907c-0.5643 0 -1.0218 0.4575 -1.0218 1.0219v6.131c0 0.5644 0.4575 1.0219 1.0218 1.0219h8.1747c0.5644 0 1.0219 -0.4575 1.0219 -1.0219v-6.1529c0 -0.5522 -0.4477 -1 -1 -1h-0.0219" stroke-width="1"></path><path stroke="#000000" stroke-linecap="round" stroke-linejoin="round" d="M6.05249 9.69043v2.04367" stroke-width="1"></path><path stroke="#000000" stroke-linecap="round" stroke-linejoin="round" d="M17.865 21.0654v2.0437" stroke-width="1"></path><path stroke="#000000" stroke-linecap="round" stroke-linejoin="round" d="M4.00879 11.7341h4.08736" stroke-width="1"></path><path stroke="#000000" stroke-linecap="round" stroke-linejoin="round" d="M15.8213 23.1091h4.0874" stroke-width="1"></path><path stroke="#000000" stroke-linecap="round" stroke-linejoin="round" d="M5.63354 0.9375v0.8592" stroke-width="1"></path><path stroke="#000000" stroke-linecap="round" stroke-linejoin="round" d="m5.63727 6.9519 -0.00373 0.8592" stroke-width="1"></path><path stroke="#000000" stroke-linecap="round" stroke-linejoin="round" d="M7.72988 3.08555c0 0.34181 -0.13253 0.66963 -0.36843 0.91132 -0.2359 0.2417 -0.55585 0.37748 -0.88947 0.37748H4.37549v-2.5776h2.09649c0.33362 0 0.65357 0.13579 0.88947 0.37748 0.2359 0.2417 0.36843 0.56951 0.36843 0.91132Z" stroke-width="1"></path><path stroke="#000000" stroke-linecap="round" stroke-linejoin="round" d="M7.72988 5.66307c0 0.34181 -0.13253 0.66962 -0.36843 0.91132 -0.2359 0.24169 -0.55585 0.37748 -0.88947 0.37748H4.37549v-2.5776h2.09649c0.33362 0 0.65357 0.13578 0.88947 0.37748 0.2359 0.24169 0.36843 0.56951 0.36843 0.91132Z" stroke-width="1"></path><path stroke="#000000" stroke-linecap="round" stroke-linejoin="round" d="M17.446 12.3125v0.8592" stroke-width="1"></path><path stroke="#000000" stroke-linecap="round" stroke-linejoin="round" d="m17.4498 18.3269 -0.0038 0.8592" stroke-width="1"></path><path stroke="#000000" stroke-linecap="round" stroke-linejoin="round" d="M19.5424 14.4606c0 0.3418 -0.1326 0.6696 -0.3685 0.9113 -0.2359 0.2417 -0.5558 0.3775 -0.8894 0.3775H16.188v-2.5776h2.0965c0.3336 0 0.6535 0.1357 0.8894 0.3774 0.2359 0.2417 0.3685 0.5695 0.3685 0.9114Z" stroke-width="1"></path><path stroke="#000000" stroke-linecap="round" stroke-linejoin="round" d="M19.5424 17.0381c0 0.3418 -0.1326 0.6696 -0.3685 0.9113 -0.2359 0.2417 -0.5558 0.3775 -0.8894 0.3775H16.188v-2.5776h2.0965c0.3336 0 0.6535 0.1358 0.8894 0.3774 0.2359 0.2417 0.3685 0.5696 0.3685 0.9114Z" stroke-width="1"></path><path stroke="#000000" stroke-linecap="round" stroke-linejoin="round" d="M3.06792 15.0333s-0.09299 1.9743 2.55484 3.9255c0.57605 0.429 1.23414 0.7349 1.93338 0.8987 0.69925 0.1639 1.42473 0.1822 2.13136 0.0538" stroke-width="1"></path><path stroke="#000000" stroke-linecap="round" stroke-linejoin="round" d="m7.98662 21.2954 1.7008 -1.384 -1.38397 -1.7008" stroke-width="1"></path><path stroke="#000000" stroke-linecap="round" stroke-linejoin="round" d="M13.8543 4.54434s1.8829 -0.60081 4.453 1.45179c0.5634 0.4454 1.0292 1.0019 1.3684 1.63491 0.3393 0.63302 0.5447 1.32903 0.6036 2.0448" stroke-width="1"></path><path stroke="#000000" stroke-linecap="round" stroke-linejoin="round" d="m15.321 6.18278 -1.4725 -1.62472 1.6247 -1.47255" stroke-width="1"></path></svg>