<svg viewBox="0 0 24 24" xmlns="http://www.w3.org/2000/svg" id="Crypto-Currency-Bitcoin-Dollar-Unequal-1--Streamline-Ultimate"><desc>Crypto Currency Bitcoin Dollar Unequal 1 Streamline Icon: https://streamlinehq.com</desc><path d="m0.75 6.75 4.5 0" fill="none" stroke="#000000" stroke-linecap="round" stroke-linejoin="round" stroke-width="1"></path><path d="m3.75 2.25 0 -1.5" fill="none" stroke="#000000" stroke-linecap="round" stroke-linejoin="round" stroke-width="1"></path><path d="m3.75 11.25 0 1.5" fill="none" stroke="#000000" stroke-linecap="round" stroke-linejoin="round" stroke-width="1"></path><path d="M5.25 2.25a2.25 2.25 0 0 1 0 4.5 2.25 2.25 0 0 1 0 4.5H0.75v-9Z" fill="none" stroke="#000000" stroke-linecap="round" stroke-linejoin="round" stroke-width="1"></path><path d="m12 18 -4.5 5.25 9 0L12 18z" fill="none" stroke="#000000" stroke-linecap="round" stroke-linejoin="round" stroke-width="1"></path><path d="M23.25 21 0.75 15" fill="none" stroke="#000000" stroke-linecap="round" stroke-linejoin="round" stroke-width="1"></path><path d="M22.5 6h-3.919a2.081 2.081 0 0 0 -0.452 4.112l3.492 0.776A2.081 2.081 0 0 1 21.169 15H17.25" fill="none" stroke="#000000" stroke-linecap="round" stroke-linejoin="round" stroke-width="1"></path><path d="m19.5 6 0 -1.5" fill="none" stroke="#000000" stroke-linecap="round" stroke-linejoin="round" stroke-width="1"></path><path d="m19.5 16.5 0 -1.5" fill="none" stroke="#000000" stroke-linecap="round" stroke-linejoin="round" stroke-width="1"></path></svg>