<svg viewBox="0 0 24 24" xmlns="http://www.w3.org/2000/svg" id="Crypto-Currency-Bitcoin-Coins--Streamline-Ultimate"><desc>Crypto Currency Bitcoin Coins Streamline Icon: https://streamlinehq.com</desc><path d="M11.25 16.5a6 6 0 1 0 12 0 6 6 0 1 0 -12 0Z" fill="none" stroke="#000000" stroke-linecap="round" stroke-linejoin="round" stroke-width="1"></path><path d="M15.75 19.5v-6H18a1.5 1.5 0 0 1 0 3 1.5 1.5 0 0 1 0 3Z" fill="none" stroke="#000000" stroke-linecap="round" stroke-linejoin="round" stroke-width="1"></path><path d="m15.75 16.5 2.25 0" fill="none" stroke="#000000" stroke-linecap="round" stroke-linejoin="round" stroke-width="1"></path><path d="m17.25 13.5 0 -0.75" fill="none" stroke="#000000" stroke-linecap="round" stroke-linejoin="round" stroke-width="1"></path><path d="m17.25 19.5 0 0.75" fill="none" stroke="#000000" stroke-linecap="round" stroke-linejoin="round" stroke-width="1"></path><path d="M0.75 4.5a6 3 0 1 0 12 0 6 3 0 1 0 -12 0Z" fill="none" stroke="#000000" stroke-linecap="round" stroke-linejoin="round" stroke-width="1"></path><path d="M12.75 7.5c0 1.657 -2.686 3 -6 3s-6 -1.343 -6 -3" fill="none" stroke="#000000" stroke-linecap="round" stroke-linejoin="round" stroke-width="1"></path><path d="m12.75 9 0 -4.5" fill="none" stroke="#000000" stroke-linecap="round" stroke-linejoin="round" stroke-width="1"></path><path d="M0.75 4.5v15c0 1.657 2.686 3 6 3A11.284 11.284 0 0 0 9 22.277" fill="none" stroke="#000000" stroke-linecap="round" stroke-linejoin="round" stroke-width="1"></path><path d="M0.75 16.5c0 1.657 2.686 3 6 3A11.284 11.284 0 0 0 9 19.277" fill="none" stroke="#000000" stroke-linecap="round" stroke-linejoin="round" stroke-width="1"></path><path d="M0.75 13.5c0 1.657 2.686 3 6 3A11.284 11.284 0 0 0 9 16.277" fill="none" stroke="#000000" stroke-linecap="round" stroke-linejoin="round" stroke-width="1"></path><path d="M0.75 10.5c0 1.657 2.686 3 6 3A11.284 11.284 0 0 0 9 13.277" fill="none" stroke="#000000" stroke-linecap="round" stroke-linejoin="round" stroke-width="1"></path></svg>