<svg xmlns="http://www.w3.org/2000/svg" fill="none" viewBox="0 0 24 24" id="Crypto-Transaction-Monitor-Receive--Streamline-Ultimate"><desc>Crypto Transaction Monitor Receive Streamline Icon: https://streamlinehq.com</desc><path stroke="#000000" stroke-linecap="round" stroke-linejoin="round" d="M9.84365 1.06006H2.0393c-0.54028 0 -0.97826 0.43798 -0.97826 0.97826v5.86956c0 0.54028 0.43798 0.97827 0.97826 0.97827h7.82608c0.54032 0 0.97822 -0.43799 0.97822 -0.97827V2.06006c0 -0.55229 -0.4477 -1 -0.99995 -1Z" stroke-width="1"></path><path stroke="#000000" stroke-linecap="round" stroke-linejoin="round" d="M5.95239 8.88623v1.95657" stroke-width="1"></path><path stroke="#000000" stroke-linecap="round" stroke-linejoin="round" d="M3.99585 10.8428h3.91304" stroke-width="1"></path><path stroke="#000000" stroke-linecap="round" stroke-linejoin="round" d="M20.0601 7.80032s-0.0411 -1.94509 -2.7722 -3.68365c-0.5945 -0.38258 -1.2613 -0.63884 -1.9589 -0.75285 -0.6977 -0.11401 -1.4114 -0.08334 -2.0967 0.0901" stroke-width="1"></path><path stroke="#000000" stroke-linecap="round" stroke-linejoin="round" d="m14.8097 1.98075 -1.5775 1.4732 1.4732 1.57742" stroke-width="1"></path><path stroke="#000000" stroke-linecap="round" stroke-linejoin="round" d="M21.9427 10.3645c0.7007 0 1.2687 0.568 1.2687 1.2688v7.6125c0 0.7007 -0.568 1.2687 -1.2687 1.2687h-10.15c-0.7008 0 -1.2688 -0.568 -1.2688 -1.2687v-6.3707" stroke-width="1"></path><path stroke="#000000" stroke-linecap="round" stroke-linejoin="round" d="M16.8677 20.5144v2.5375" stroke-width="1"></path><path stroke="#000000" stroke-linecap="round" stroke-linejoin="round" d="M14.3301 23.052h5.075" stroke-width="1"></path><path stroke="#000000" stroke-linecap="round" stroke-linejoin="round" d="M16.5 10v1" stroke-width="1"></path><path stroke="#000000" stroke-linecap="round" stroke-linejoin="round" d="m16.504 17 -0.004 1" stroke-width="1"></path><path stroke="#000000" stroke-linecap="round" stroke-linejoin="round" d="M19 12.5c0 0.3978 -0.158 0.7794 -0.4393 1.0607S17.8978 14 17.5 14H15v-3h2.5c0.3978 0 0.7794 0.158 1.0607 0.4393S19 12.1022 19 12.5Z" stroke-width="1"></path><path stroke="#000000" stroke-linecap="round" stroke-linejoin="round" d="M19 15.5c0 0.3978 -0.158 0.7794 -0.4393 1.0607S17.8978 17 17.5 17H15v-3h2.5c0.3978 0 0.7794 0.158 1.0607 0.4393S19 15.1022 19 15.5Z" stroke-width="1"></path></svg>