<svg viewBox="0 0 24 24" xmlns="http://www.w3.org/2000/svg" id="Crypto-Currency-Bitcoin-Dollar-Exchange--Streamline-Ultimate"><desc>Crypto Currency Bitcoin Dollar Exchange Streamline Icon: https://streamlinehq.com</desc><path d="M18.75 3.75h-2.033a1.342 1.342 0 0 0 -0.5 2.587l2.064 0.826a1.342 1.342 0 0 1 -0.5 2.587h-0.531" fill="none" stroke="#000000" stroke-linecap="round" stroke-linejoin="round" stroke-width="1"></path><path d="m17.25 3.75 0 -0.75" fill="none" stroke="#000000" stroke-linecap="round" stroke-linejoin="round" stroke-width="1"></path><path d="M18.03 12.7a6 6 0 1 0 -6.73 -6.742" fill="none" stroke="#000000" stroke-linecap="round" stroke-linejoin="round" stroke-width="1"></path><path d="M15.75 15.75a7.5 7.5 0 0 0 -7.5 -7.5" fill="none" stroke="#000000" stroke-linecap="round" stroke-linejoin="round" stroke-width="1"></path><path d="M2.25 11.25a7.5 7.5 0 1 0 12.5 8.25" fill="none" stroke="#000000" stroke-linecap="round" stroke-linejoin="round" stroke-width="1"></path><path d="M6.75 18.75v-6H9a1.5 1.5 0 0 1 0 3 1.5 1.5 0 0 1 0 3Z" fill="none" stroke="#000000" stroke-linecap="round" stroke-linejoin="round" stroke-width="1"></path><path d="m6.75 15.75 2.25 0" fill="none" stroke="#000000" stroke-linecap="round" stroke-linejoin="round" stroke-width="1"></path><path d="m8.25 12.75 0 -1.5" fill="none" stroke="#000000" stroke-linecap="round" stroke-linejoin="round" stroke-width="1"></path><path d="m8.25 18.75 0 1.5" fill="none" stroke="#000000" stroke-linecap="round" stroke-linejoin="round" stroke-width="1"></path><path d="M0.75 4.5 3 8.25 6.75 6" fill="none" stroke="#000000" stroke-linecap="round" stroke-linejoin="round" stroke-width="1"></path><path d="M8.189 0.9a6.752 6.752 0 0 0 -4.417 6.886" fill="none" stroke="#000000" stroke-linecap="round" stroke-linejoin="round" stroke-width="1"></path><path d="M23.25 19.5 21 15.75 17.25 18" fill="none" stroke="#000000" stroke-linecap="round" stroke-linejoin="round" stroke-width="1"></path><path d="M15.811 23.1a6.752 6.752 0 0 0 4.417 -6.884" fill="none" stroke="#000000" stroke-linecap="round" stroke-linejoin="round" stroke-width="1"></path></svg>