<svg viewBox="0 0 24 24" xmlns="http://www.w3.org/2000/svg" id="Crypto-Currency-Megacoin--Streamline-Ultimate"><desc>Crypto Currency Megacoin Streamline Icon: https://streamlinehq.com</desc><path d="M0.75 12a11.25 11.25 0 1 0 22.5 0 11.25 11.25 0 1 0 -22.5 0Z" fill="none" stroke="#000000" stroke-linecap="round" stroke-linejoin="round" stroke-width="1"></path><path d="M5.75 9.75H7A1.25 1.25 0 0 1 8.25 11v3.5a0.5 0.5 0 0 1 -0.5 0.5H5a0.5 0.5 0 0 1 -0.5 -0.5V11a1.25 1.25 0 0 1 1.25 -1.25Z" fill="none" stroke="#000000" stroke-linecap="round" stroke-linejoin="round" stroke-width="1"></path><path d="M11.75 9.75H13A1.25 1.25 0 0 1 14.25 11v3.5a0.5 0.5 0 0 1 -0.5 0.5H11a0.5 0.5 0 0 1 -0.5 -0.5V11a1.25 1.25 0 0 1 1.25 -1.25Z" fill="none" stroke="#000000" stroke-linecap="round" stroke-linejoin="round" stroke-width="1"></path><path d="M17.75 9.75H19A1.25 1.25 0 0 1 20.25 11v3.5a0.5 0.5 0 0 1 -0.5 0.5H17a0.5 0.5 0 0 1 -0.5 -0.5V11a1.25 1.25 0 0 1 1.25 -1.25Z" fill="none" stroke="#000000" stroke-linecap="round" stroke-linejoin="round" stroke-width="1"></path></svg>