<svg xmlns="http://www.w3.org/2000/svg" fill="none" viewBox="0 0 24 24" id="Crypto-Market-Price-Coin--Streamline-Ultimate"><desc>Crypto Market Price Coin Streamline Icon: https://streamlinehq.com</desc><path stroke="#000000" stroke-linecap="round" stroke-linejoin="round" d="M12 17.8666c3.2401 0 5.8667 -2.6266 5.8667 -5.8666 0 -3.2401 -2.6266 -5.8667 -5.8667 -5.8667 -3.24004 0 -5.86664 2.6266 -5.86664 5.8667 0 3.24 2.6266 5.8666 5.86664 5.8666Z" stroke-width="1"></path><path stroke="#000000" stroke-linecap="round" stroke-linejoin="round" d="M6.13336 12V1" stroke-width="1"></path><path stroke="#000000" stroke-linecap="round" stroke-linejoin="round" d="m3.6889 3.44493 2.44445 -2.44444 2.44444 2.44444" stroke-width="1"></path><path stroke="#000000" stroke-linecap="round" stroke-linejoin="round" d="M17.8666 12v11" stroke-width="1"></path><path stroke="#000000" stroke-linecap="round" stroke-linejoin="round" d="M15.4222 20.5555 17.8667 23l2.4444 -2.4445" stroke-width="1"></path><path stroke="#000000" stroke-linecap="round" stroke-linejoin="round" d="M10.5333 14.5755V9.42456h2.2c0.389 0 0.762 0.13567 1.0371 0.37717 0.275 0.24147 0.4296 0.56907 0.4296 0.91057s-0.1546 0.669 -0.4296 0.9105c-0.2751 0.2415 -0.6481 0.3772 -1.0371 0.3772 0.389 0 0.762 0.1357 1.0371 0.3772 0.275 0.2415 0.4296 0.569 0.4296 0.9105 0 0.3416 -0.1546 0.6691 -0.4296 0.9106 -0.2751 0.2415 -0.6481 0.3772 -1.0371 0.3772h-2.2Z" stroke-width="1"></path><path stroke="#000000" stroke-linecap="round" stroke-linejoin="round" d="M10.5333 12h2.2" stroke-width="1"></path><path stroke="#000000" stroke-linecap="round" stroke-linejoin="round" d="M12 9.42457V8.13684" stroke-width="1"></path><path stroke="#000000" stroke-linecap="round" stroke-linejoin="round" d="M12 14.5754v1.2878" stroke-width="1"></path></svg>