<svg xmlns="http://www.w3.org/2000/svg" viewBox="0 0 24 24" id="Virtual-Coin-Crypto-Cosmos-1--Streamline-Ultimate"><desc>Virtual Coin Crypto Cosmos 1 Streamline Icon: https://streamlinehq.com</desc><defs></defs><path d="M0.75 12a11.25 11.25 0 1 0 22.5 0 11.25 11.25 0 1 0 -22.5 0" fill="none" stroke="#000000" stroke-linecap="round" stroke-linejoin="round" stroke-width="1"></path><path d="M11.25 12a0.75 0.75 0 1 0 1.5 0 0.75 0.75 0 1 0 -1.5 0" fill="none" stroke="#000000" stroke-linecap="round" stroke-linejoin="round" stroke-width="1"></path><path d="M8.192 12a3.808 8.703 0 1 0 7.616 0 3.808 8.703 0 1 0 -7.616 0" fill="none" stroke="#000000" stroke-linecap="round" stroke-linejoin="round" stroke-width="1"></path><path d="M10.0963048454 15.2975198922a8.703 3.808 30 1 0 3.808 -6.5956494752 8.703 3.808 30 1 0 -3.808 6.5956494752" fill="none" stroke="#000000" stroke-linecap="round" stroke-linejoin="round" stroke-width="1"></path><path d="M4.4632857563 16.3518048454a8.703 3.808 -30 1 0 15.0740381782 -8.703 8.703 3.808 -30 1 0 -15.0740381782 8.703" fill="none" stroke="#000000" stroke-linecap="round" stroke-linejoin="round" stroke-width="1"></path></svg>