<svg xmlns="http://www.w3.org/2000/svg" viewBox="0 0 24 24" id="Virtual-Coin-Crypto-Steem-Dollars--Streamline-Ultimate"><desc>Virtual Coin Crypto Steem Dollars Streamline Icon: https://streamlinehq.com</desc><defs></defs><path d="M0.75 12a11.25 11.25 0 1 0 22.5 0 11.25 11.25 0 1 0 -22.5 0" fill="none" stroke="#000000" stroke-linecap="round" stroke-linejoin="round" stroke-width="1"></path><path d="M11.5 6a6.917 6.917 0 0 0 -1 3.5c0 2.5 3 2.5 3 5A5.522 5.522 0 0 1 12 18" fill="none" stroke="#000000" stroke-linecap="round" stroke-linejoin="round" stroke-width="1"></path><path d="M7 7.5A3.825 3.825 0 0 0 6 10c0 2.5 3 2.5 3 4.5S8 17 8 17" fill="none" stroke="#000000" stroke-linecap="round" stroke-linejoin="round" stroke-width="1"></path><path d="M16 7.5a3.825 3.825 0 0 0 -1 2.5c0 2.5 3 2.5 3 4.5S17 17 17 17" fill="none" stroke="#000000" stroke-linecap="round" stroke-linejoin="round" stroke-width="1"></path></svg>