<svg xmlns="http://www.w3.org/2000/svg" fill="none" viewBox="0 0 24 24" id="Eid-Feast-Food--Streamline-Ultimate"><desc>Eid Feast Food Streamline Icon: https://streamlinehq.com</desc><path stroke="#000000" stroke-linecap="round" stroke-linejoin="round" stroke-miterlimit="10" d="M0.850006 19.95H23.25" stroke-width="1"></path><path stroke="#000000" stroke-linecap="round" stroke-linejoin="round" stroke-miterlimit="10" d="M12.15 16.05c-1.2 -1.2 -1.2 -3.1 0 -4.2 1.2 -1.2 4.1 -2.2 5.3 -1.1 1.2 1.2 0.1 4.1 -1.1 5.3" stroke-width="1"></path><path stroke="#000000" stroke-linecap="round" stroke-linejoin="round" stroke-miterlimit="10" d="m17.45 10.75 2 -1.89996" stroke-width="1"></path><path stroke="#000000" stroke-linecap="round" stroke-linejoin="round" stroke-miterlimit="10" d="M20.45 9.25c0.8284 0 1.5 -0.67157 1.5 -1.5s-0.6716 -1.5 -1.5 -1.5 -1.5 0.67157 -1.5 1.5 0.6716 1.5 1.5 1.5Z" stroke-width="1"></path><path stroke="#000000" stroke-linecap="round" stroke-linejoin="round" stroke-miterlimit="10" d="M20.25 19.95c0 -2.2 -1.1 -4.2 -2.8 -5.6" stroke-width="1"></path><path stroke="#000000" stroke-linecap="round" stroke-linejoin="round" stroke-miterlimit="10" d="M11.65 12.45c-4.4 0.2 -7.9 3.5 -7.9 7.5" stroke-width="1"></path><path stroke="#000000" stroke-linecap="round" stroke-linejoin="round" stroke-miterlimit="10" d="m22.05 19.9501 -2.3 2.6c-0.4 0.4 -0.9 0.7 -1.5 0.7H5.75001c-0.6 0 -1.1 -0.2 -1.5 -0.7l-2.3 -2.6" stroke-width="1"></path><path stroke="#000000" stroke-linecap="round" stroke-linejoin="round" stroke-miterlimit="10" d="M8.95 10.15c-1 -2.69999 -1.5 -5.59999 -1.5 -8.49999V1.55c0 -0.4 -0.3 -0.8 -0.8 -0.8h-2.2c-0.4 0 -0.8 0.3 -0.8 0.8v0.10001c0 2.9 -0.5 5.8 -1.5 8.49999 -0.8 2.1 -1.2 4.3 -1.4 6.5" stroke-width="1"></path><path stroke="#000000" stroke-linecap="round" stroke-linejoin="round" stroke-miterlimit="10" d="M3.55 4.85004h4.1" stroke-width="1"></path></svg>