<svg xmlns="http://www.w3.org/2000/svg" fill="none" viewBox="0 0 24 24" id="Ekadasi-Hindu-Fasting--Streamline-Ultimate"><desc>Ekadasi Hindu Fasting Streamline Icon: https://streamlinehq.com</desc><path stroke="#000000" stroke-linecap="round" stroke-linejoin="round" stroke-miterlimit="10" d="M8.8 11.7c1.215 0 2.2 -1.1641 2.2 -2.59999C11 7.66407 10.015 6.5 8.8 6.5c-1.21502 0 -2.19999 1.16407 -2.19999 2.60001C6.60001 10.5359 7.58498 11.7 8.8 11.7Z" stroke-width="1"></path><path stroke="#000000" stroke-linecap="round" stroke-linejoin="round" stroke-miterlimit="10" d="M8.8 11.8v6" stroke-width="1"></path><path stroke="#000000" stroke-linecap="round" stroke-linejoin="round" stroke-miterlimit="10" d="M14.8 11.8v6" stroke-width="1"></path><path stroke="#000000" stroke-linecap="round" stroke-linejoin="round" stroke-miterlimit="10" d="M13.2 6.5v3.8c0 0.8 0.7 1.5 1.5 1.5s1.5 -0.7 1.5 -1.5V6.5" stroke-width="1"></path><path stroke="#000000" stroke-linecap="round" stroke-linejoin="round" stroke-miterlimit="10" d="m19.9 4.09998 -1.6 1.6" stroke-width="1"></path><path stroke="#000000" stroke-linecap="round" stroke-linejoin="round" stroke-miterlimit="10" d="m5.8 18.2 -1.7 1.6999" stroke-width="1"></path><path stroke="#000000" stroke-linecap="round" stroke-linejoin="round" stroke-miterlimit="10" d="M12 23.25c6.2132 0 11.25 -5.0368 11.25 -11.25C23.25 5.78679 18.2132 0.75 12 0.75 5.78679 0.75 0.75 5.78679 0.75 12c0 6.2132 5.03679 11.25 11.25 11.25Z" stroke-width="1"></path></svg>