<svg xmlns="http://www.w3.org/2000/svg" fill="none" viewBox="0 0 24 24" id="Jumu-Ah--Streamline-Ultimate"><desc>Jumu Ah Streamline Icon: https://streamlinehq.com</desc><path stroke="#000000" stroke-linecap="round" stroke-linejoin="round" stroke-miterlimit="10" d="M12 0.75v1.2" stroke-width="1"></path><path stroke="#000000" stroke-linecap="round" stroke-linejoin="round" stroke-miterlimit="10" d="m6.89998 2.84998 0.90001 0.9" stroke-width="1"></path><path stroke="#000000" stroke-linecap="round" stroke-linejoin="round" stroke-miterlimit="10" d="M4.79999 7.95001h1.2" stroke-width="1"></path><path stroke="#000000" stroke-linecap="round" stroke-linejoin="round" stroke-miterlimit="10" d="m17.1 2.84998 -0.9 0.9" stroke-width="1"></path><path stroke="#000000" stroke-linecap="round" stroke-linejoin="round" stroke-miterlimit="10" d="M19.2 7.95001H18" stroke-width="1"></path><path stroke="#000000" stroke-linecap="round" stroke-linejoin="round" stroke-miterlimit="10" d="M15 9.65001c0.3 -0.5 0.5 -1.1 0.5 -1.7 0 -1.9 -1.6 -3.5 -3.5 -3.5s-3.50001 1.6 -3.50001 3.5c0 0.6 0.2 1.2 0.5 1.7" stroke-width="1"></path><path stroke="#000000" stroke-linecap="round" stroke-linejoin="round" stroke-miterlimit="10" d="M4.55 17.55c1.38072 0 2.5 -1.1193 2.5 -2.5s-1.11928 -2.5 -2.5 -2.5c-1.38071 0 -2.5 1.1193 -2.5 2.5s1.11929 2.5 2.5 2.5Z" stroke-width="1"></path><path stroke="#000000" stroke-linecap="round" stroke-linejoin="round" stroke-miterlimit="10" d="M0.750008 23.25c0 -2.1 1.700002 -3.8 3.800002 -3.8 1.89517 0 3.46455 1.3846 3.75267 3.1981" stroke-width="1"></path><path stroke="#000000" stroke-linecap="round" stroke-linejoin="round" stroke-miterlimit="10" d="M19.45 17.55c1.3807 0 2.5 -1.1193 2.5 -2.5s-1.1193 -2.5 -2.5 -2.5 -2.5 1.1193 -2.5 2.5 1.1193 2.5 2.5 2.5Z" stroke-width="1"></path><path stroke="#000000" stroke-linecap="round" stroke-linejoin="round" stroke-miterlimit="10" d="M23.25 23.25c0 -2.1 -1.7 -3.8 -3.8 -3.8 -1.8026 0 -3.3104 1.2526 -3.7014 2.9355" stroke-width="1"></path><path stroke="#000000" stroke-linecap="round" stroke-linejoin="round" stroke-miterlimit="10" d="M12.05 17.55c1.3807 0 2.5 -1.1193 2.5 -2.5s-1.1193 -2.5 -2.5 -2.5 -2.5 1.1193 -2.5 2.5 1.1193 2.5 2.5 2.5Z" stroke-width="1"></path><path stroke="#000000" stroke-linecap="round" stroke-linejoin="round" stroke-miterlimit="10" d="M8.25 23.25c0 -2.1 1.7 -3.8 3.8 -3.8 2.1 0 3.8 1.7 3.8 3.8" stroke-width="1"></path></svg>