<svg xmlns="http://www.w3.org/2000/svg" fill="none" viewBox="0 0 24 24" id="Mid-Sha-Ban-Bara-A-Night--Streamline-Ultimate"><desc>Mid Sha Ban Bara A Night Streamline Icon: https://streamlinehq.com</desc><path stroke="#000000" stroke-linecap="round" stroke-linejoin="round" stroke-miterlimit="10" d="M4.55 17.5312c1.38072 0 2.5 -1.1192 2.5 -2.5 0 -1.3807 -1.11928 -2.5 -2.5 -2.5 -1.38071 0 -2.5 1.1193 -2.5 2.5 0 1.3808 1.11929 2.5 2.5 2.5Z" stroke-width="1"></path><path stroke="#000000" stroke-linecap="round" stroke-linejoin="round" stroke-miterlimit="10" d="M0.750008 23.2313c0 -2.1 1.700002 -3.8 3.800002 -3.8 1.89517 0 3.46455 1.3845 3.75267 3.1981" stroke-width="1"></path><path stroke="#000000" stroke-linecap="round" stroke-linejoin="round" stroke-miterlimit="10" d="M19.45 17.5312c1.3807 0 2.5 -1.1192 2.5 -2.5 0 -1.3807 -1.1193 -2.5 -2.5 -2.5s-2.5 1.1193 -2.5 2.5c0 1.3808 1.1193 2.5 2.5 2.5Z" stroke-width="1"></path><path stroke="#000000" stroke-linecap="round" stroke-linejoin="round" stroke-miterlimit="10" d="M23.25 23.2313c0 -2.1 -1.7 -3.8 -3.8 -3.8 -1.8026 0 -3.3104 1.2525 -3.7014 2.9355" stroke-width="1"></path><path stroke="#000000" stroke-linecap="round" stroke-linejoin="round" stroke-miterlimit="10" d="M12.05 17.5312c1.3807 0 2.5 -1.1192 2.5 -2.5 0 -1.3807 -1.1193 -2.5 -2.5 -2.5s-2.5 1.1193 -2.5 2.5c0 1.3808 1.1193 2.5 2.5 2.5Z" stroke-width="1"></path><path stroke="#000000" stroke-linecap="round" stroke-linejoin="round" stroke-miterlimit="10" d="M8.25 23.2313c0 -2.1 1.7 -3.8 3.8 -3.8 2.1 0 3.8 1.7 3.8 3.8" stroke-width="1"></path><path stroke="#000000" stroke-linecap="round" stroke-linejoin="round" stroke-miterlimit="10" d="m16.2798 4.21124 -0.8043 1.39315" stroke-width="1"></path><path stroke="#000000" stroke-linecap="round" stroke-linejoin="round" stroke-miterlimit="10" d="m14.3886 4.26947 1.0868 1.33506" stroke-width="1"></path><path stroke="#000000" stroke-linecap="round" stroke-linejoin="round" stroke-miterlimit="10" d="m13.8189 6.32878 1.6565 -0.72426" stroke-width="1"></path><path stroke="#000000" stroke-linecap="round" stroke-linejoin="round" stroke-miterlimit="10" d="m15.6765 7.40125 -0.2011 -1.7967" stroke-width="1"></path><path stroke="#000000" stroke-linecap="round" stroke-linejoin="round" stroke-miterlimit="10" d="m17.175 5.87813 -1.6996 -0.27362" stroke-width="1"></path><path stroke="#000000" stroke-linecap="round" stroke-linejoin="round" stroke-miterlimit="10" d="M13.3495 9.3906c-0.1287 0.01397 -0.2589 0.02117 -0.3902 0.02117 -2.1279 0 -3.83021 -1.70231 -3.83021 -3.8302 0 -2.12788 1.70231 -3.83019 3.83021 -3.83019 0.298 0 0.5855 0.03195 0.8596 0.09186 -0.8005 -0.66019 -1.8513 -1.074502 -3.0402 -1.074502 -2.61115 0 -4.70003 2.088882 -4.70003 4.699982 0 2.6111 2.08888 4.69998 4.70003 4.69998 0.9279 0 1.8071 -0.29271 2.5708 -0.7781Z" stroke-width="1"></path></svg>