<svg viewBox="0 0 24 24" xmlns="http://www.w3.org/2000/svg" id="Data-File-Graph--Streamline-Ultimate"><desc>Data File Graph Streamline Icon: https://streamlinehq.com</desc><path d="M22.455 21.75a1.5 1.5 0 0 1 -1.5 1.5h-18a1.5 1.5 0 0 1 -1.5 -1.5V2.25a1.5 1.5 0 0 1 1.5 -1.5h15A1.5 1.5 0 0 1 19 1.176l3 2.883a1.5 1.5 0 0 1 0.453 1.073Z" fill="none" stroke="#000000" stroke-linecap="round" stroke-linejoin="round" stroke-width="1"></path><path d="m5.955 7.5 0 11.25 12 0" fill="none" stroke="#000000" stroke-linecap="round" stroke-linejoin="round" stroke-width="1"></path><path d="m5.955 15.75 3.362 -3.138a1.971 1.971 0 0 1 2.651 0l0.726 0.678a1.958 1.958 0 0 0 1.555 0.5 1.889 1.889 0 0 0 1.379 -0.836L17.2 10.5" fill="none" stroke="#000000" stroke-linecap="round" stroke-linejoin="round" stroke-width="1"></path></svg>