<svg viewBox="0 0 24 24" xmlns="http://www.w3.org/2000/svg" id="Data-File-Bars-Home--Streamline-Ultimate"><desc>Data File Bars Home Streamline Icon: https://streamlinehq.com</desc><path d="M12.75 15.948v5.8a1.5 1.5 0 0 0 1.5 1.5h6a1.5 1.5 0 0 0 1.5 -1.5v-5.8" fill="none" stroke="#000000" stroke-linecap="round" stroke-linejoin="round" stroke-width="1"></path><path d="m11.25 17.26 4.518 -3.953a2.249 2.249 0 0 1 2.964 0l4.518 3.953" fill="none" stroke="#000000" stroke-linecap="round" stroke-linejoin="round" stroke-width="1"></path><path d="M18.75 23.25h-3v-3a1.5 1.5 0 0 1 3 0Z" fill="none" stroke="#000000" stroke-linecap="round" stroke-linejoin="round" stroke-width="1"></path><path d="m3.75 14.25 4.5 0" fill="none" stroke="#000000" stroke-linecap="round" stroke-linejoin="round" stroke-width="1"></path><path d="m8.25 14.25 0 -7.5" fill="none" stroke="#000000" stroke-linecap="round" stroke-linejoin="round" stroke-width="1"></path><path d="m11.25 9.75 0 -1.5" fill="none" stroke="#000000" stroke-linecap="round" stroke-linejoin="round" stroke-width="1"></path><path d="m5.25 14.25 0 -4.5" fill="none" stroke="#000000" stroke-linecap="round" stroke-linejoin="round" stroke-width="1"></path><path d="M7.5 20.25H2.25a1.5 1.5 0 0 1 -1.5 -1.5V2.25a1.5 1.5 0 0 1 1.5 -1.5h10.629a1.5 1.5 0 0 1 1.06 0.439l2.872 2.872a1.5 1.5 0 0 1 0.439 1.06V9" fill="none" stroke="#000000" stroke-linecap="round" stroke-linejoin="round" stroke-width="1"></path></svg>