<svg viewBox="0 0 24 24" xmlns="http://www.w3.org/2000/svg" id="Data-File-Refresh--Streamline-Ultimate"><desc>Data File Refresh Streamline Icon: https://streamlinehq.com</desc><path d="m19.5 15.75 3.75 0 0 -4.5" fill="none" stroke="#000000" stroke-linecap="round" stroke-linejoin="round" stroke-width="1"></path><path d="M23.061 15.75a6 6 0 1 0 -1.121 5.243" fill="none" stroke="#000000" stroke-linecap="round" stroke-linejoin="round" stroke-width="1"></path><path d="m3.75 6.75 0 9 4.5 0" fill="none" stroke="#000000" stroke-linecap="round" stroke-linejoin="round" stroke-width="1"></path><path d="m3.75 12.75 2.689 -2.689a1.5 1.5 0 0 1 2.122 0l0.581 0.581a1.5 1.5 0 0 0 2.346 -0.289l0.358 -0.6" fill="none" stroke="#000000" stroke-linecap="round" stroke-linejoin="round" stroke-width="1"></path><path d="M7.5 20.25H2.25a1.5 1.5 0 0 1 -1.5 -1.5V2.25a1.5 1.5 0 0 1 1.5 -1.5h10.629a1.5 1.5 0 0 1 1.06 0.439l2.872 2.872a1.5 1.5 0 0 1 0.439 1.06V7.5" fill="none" stroke="#000000" stroke-linecap="round" stroke-linejoin="round" stroke-width="1"></path></svg>