<svg xmlns="http://www.w3.org/2000/svg" fill="none" viewBox="0 0 24 24" id="Workflow-Data-Table-Question--Streamline-Ultimate"><desc>Workflow Data Table Question Streamline Icon: https://streamlinehq.com</desc><path stroke="#000000" stroke-linecap="round" stroke-linejoin="round" d="M17.189 23.2501c1.1737 0.0002 2.3211 -0.3477 3.297 -0.9996 0.976 -0.6519 1.7367 -1.5786 2.186 -2.6629 0.4493 -1.0843 0.567 -2.2774 0.3381 -3.4286 -0.2289 -1.1511 -0.7939 -2.2086 -1.6238 -3.0385 -0.8298 -0.83 -1.8872 -1.3953 -3.0383 -1.6243 -1.1511 -0.2291 -2.3443 -0.1116 -3.4286 0.3375 -1.0844 0.4491 -2.0112 1.2097 -2.6633 2.1855 -0.6521 0.9759 -1.0001 2.1232 -1.0001 3.2969 0 1.5736 0.625 3.0828 1.7377 4.1956 1.1126 1.1128 2.6217 1.7381 4.1953 1.7384v0Z" stroke-width="1"></path><path stroke="#000000" stroke-linecap="round" stroke-linejoin="round" d="M15.409 16.2c-0.0036 -0.3618 0.0987 -0.7167 0.2941 -1.0212 0.1954 -0.3045 0.4755 -0.5453 0.8059 -0.6928 0.3255 -0.1403 0.6863 -0.1772 1.0335 -0.1057 0.3472 0.0716 0.664 0.2481 0.9075 0.5057 0.2504 0.265 0.4198 0.596 0.4882 0.9541 0.0684 0.3581 0.0329 0.7283 -0.1022 1.0669 -0.1276 0.3339 -0.3528 0.6217 -0.6461 0.8259 -0.2934 0.2042 -0.6415 0.3154 -0.9989 0.3191" stroke-width="1"></path><path stroke="#000000" d="M17.1701 21.0327c-0.2071 0 -0.375 -0.1679 -0.375 -0.375s0.1679 -0.375 0.375 -0.375" stroke-width="1"></path><path stroke="#000000" d="M17.1701 21.0327c0.2071 0 0.375 -0.1679 0.375 -0.375s-0.1679 -0.375 -0.375 -0.375" stroke-width="1"></path><path stroke="#000000" stroke-linecap="round" stroke-linejoin="round" d="M0.876999 11.876H9.808" stroke-width="1"></path><path stroke="#000000" stroke-linecap="round" stroke-linejoin="round" d="M8.294 17.068H2.855c-0.5246 0 -1.02771 -0.2084 -1.39866 -0.5793 -0.37095 -0.371 -0.579341 -0.8741 -0.579341 -1.3987V2.728c0 -0.5246 0.208391 -1.02771 0.579341 -1.39866C1.82729 0.958396 2.3304 0.75 2.855 0.75h14.834c0.5246 0 1.0277 0.208396 1.3987 0.57934 0.3709 0.37095 0.5793 0.87406 0.5793 1.39866v6.428" stroke-width="1"></path><path stroke="#000000" stroke-linecap="round" stroke-linejoin="round" d="M0.876999 6.18896H19.667" stroke-width="1"></path><path stroke="#000000" stroke-linecap="round" stroke-linejoin="round" d="M7.95 6.18896V12.865" stroke-width="1"></path><path stroke="#000000" stroke-linecap="round" stroke-linejoin="round" d="M13.858 6.18896v2.967" stroke-width="1"></path></svg>