<svg xmlns="http://www.w3.org/2000/svg" viewBox="0 0 24 24" id="Workflow-Data-Table-Smartphone-Share--Streamline-Ultimate"><desc>Workflow Data Table Smartphone Share Streamline Icon: https://streamlinehq.com</desc><defs></defs><path d="M13.75 0.75h8.5s1 0 1 1v8s0 1 -1 1h-8.5s-1 0 -1 -1v-8s0 -1 1 -1" fill="none" stroke="#000000" stroke-linecap="round" stroke-linejoin="round" stroke-width="1"></path><path d="m12.75 4.155 10.5 0" fill="none" stroke="#000000" stroke-linecap="round" stroke-linejoin="round" stroke-width="1"></path><path d="m12.75 7.453 10.5 0" fill="none" stroke="#000000" stroke-linecap="round" stroke-linejoin="round" stroke-width="1"></path><path d="m18.75 4.155 0 6.595" fill="none" stroke="#000000" stroke-linecap="round" stroke-linejoin="round" stroke-width="1"></path><path d="M5.25 6.91 3 9.069V6.91a2.942 2.942 0 0 1 3 -2.88h3.75" fill="none" stroke="#000000" stroke-linecap="round" stroke-linejoin="round" stroke-width="1"></path><path d="M0.75 6.91 3 9.07" fill="none" stroke="#000000" stroke-linecap="round" stroke-linejoin="round" stroke-width="1"></path><path d="m7.5 1.87 2.25 2.16L7.5 6.19" fill="none" stroke="#000000" stroke-linecap="round" stroke-linejoin="round" stroke-width="1"></path><path d="M1.75 11.75h5.5s1 0 1 1v9.5s0 1 -1 1h-5.5s-1 0 -1 -1v-9.5s0 -1 1 -1" fill="none" stroke="#000000" stroke-linecap="round" stroke-linejoin="round" stroke-width="1"></path><path d="m0.75 20.25 7.5 0" fill="none" stroke="#000000" stroke-linecap="round" stroke-linejoin="round" stroke-width="1"></path></svg>