<svg xmlns="http://www.w3.org/2000/svg" viewBox="0 0 24 24" id="Workflow-Data-Table-Edit--Streamline-Ultimate"><desc>Workflow Data Table Edit Streamline Icon: https://streamlinehq.com</desc><defs></defs><path d="M8.261 17.306h-5.5a2 2 0 0 1 -2 -2v-12.5a2 2 0 0 1 2 -2h15a2 2 0 0 1 2 2v6.5" fill="none" stroke="#000000" stroke-linecap="round" stroke-linejoin="round" stroke-width="1"></path><path d="m0.761 6.306 19 0" fill="none" stroke="#000000" stroke-linecap="round" stroke-linejoin="round" stroke-width="1"></path><path d="m7.914 6.306 0 11" fill="none" stroke="#000000" stroke-linecap="round" stroke-linejoin="round" stroke-width="1"></path><path d="m13.887 6.306 0 5.5" fill="none" stroke="#000000" stroke-linecap="round" stroke-linejoin="round" stroke-width="1"></path><path d="m0.761 11.806 13.126 0" fill="none" stroke="#000000" stroke-linecap="round" stroke-linejoin="round" stroke-width="1"></path><path d="m22.643 14.814 -7.324 7.63 -3.6 0.75 0.72 -3.75 7.325 -7.631a1.974 1.974 0 0 1 2.872 0l0.008 0.009a2.177 2.177 0 0 1 0 2.992Z" fill="none" stroke="#000000" stroke-linecap="round" stroke-linejoin="round" stroke-width="1"></path></svg>