<svg xmlns="http://www.w3.org/2000/svg" viewBox="0 0 24 24" id="Workflow-Data-Table-Refresh--Streamline-Ultimate"><desc>Workflow Data Table Refresh Streamline Icon: https://streamlinehq.com</desc><defs></defs><path d="M19.567 15.833h3.56v-4.451" fill="none" stroke="#000000" stroke-linecap="round" stroke-linejoin="round" stroke-width="1"></path><path d="M22.948 15.834a5.648 5.648 0 0 0 -11.086 0.241A6.008 6.008 0 0 0 15 22.679a5.548 5.548 0 0 0 6.889 -1.661" fill="none" stroke="#000000" stroke-linecap="round" stroke-linejoin="round" stroke-width="1"></path><path d="m0.873 11.876 9.889 0" fill="none" stroke="#000000" stroke-linecap="round" stroke-linejoin="round" stroke-width="1"></path><path d="M8.29 17.068H2.85A1.978 1.978 0 0 1 0.873 15.09V2.728A1.978 1.978 0 0 1 2.85 0.75h14.835a1.979 1.979 0 0 1 1.978 1.978v6.428" fill="none" stroke="#000000" stroke-linecap="round" stroke-linejoin="round" stroke-width="1"></path><path d="m0.873 6.189 18.79 0" fill="none" stroke="#000000" stroke-linecap="round" stroke-linejoin="round" stroke-width="1"></path><path d="m7.946 6.189 0 6.676" fill="none" stroke="#000000" stroke-linecap="round" stroke-linejoin="round" stroke-width="1"></path><path d="m13.854 6.189 0 2.967" fill="none" stroke="#000000" stroke-linecap="round" stroke-linejoin="round" stroke-width="1"></path></svg>