<svg xmlns="http://www.w3.org/2000/svg" fill="none" viewBox="0 0 24 24" id="Workflow-Data-Table-Lock--Streamline-Ultimate"><desc>Workflow Data Table Lock Streamline Icon: https://streamlinehq.com</desc><path stroke="#000000" stroke-linecap="round" stroke-linejoin="round" d="M14.574 17.316c0 -0.3933 0.1562 -0.7705 0.4344 -1.0486 0.2781 -0.2781 0.6553 -0.4344 1.0486 -0.4344h5.578c0.3933 0 0.7705 0.1563 1.0486 0.4344 0.2782 0.2781 0.4344 0.6553 0.4344 1.0486v4.451c0 0.3933 -0.1562 0.7705 -0.4344 1.0486 -0.2781 0.2782 -0.6553 0.4344 -1.0486 0.4344h-5.578c-0.3933 0 -0.7705 -0.1562 -1.0486 -0.4344 -0.2782 -0.2781 -0.4344 -0.6553 -0.4344 -1.0486v-4.451Z" stroke-width="1"></path><path stroke="#000000" stroke-linecap="round" stroke-linejoin="round" d="M18.846 11.3821c-0.7706 0.0168 -1.5031 0.3386 -2.0366 0.8949 -0.5336 0.5562 -0.8247 1.3014 -0.8094 2.0721v1.484h5.7v-1.484c0.0153 -0.771 -0.2761 -1.5165 -0.8101 -2.0728s-1.2669 -0.8779 -2.0379 -0.8942h-0.006Z" stroke-width="1"></path><path stroke="#000000" d="M18.85 19.9165c-0.2071 0 -0.375 -0.1679 -0.375 -0.375s0.1679 -0.375 0.375 -0.375" stroke-width="1"></path><path stroke="#000000" d="M18.85 19.9165c0.2071 0 0.375 -0.1679 0.375 -0.375s-0.1679 -0.375 -0.375 -0.375" stroke-width="1"></path><path stroke="#000000" stroke-linecap="round" stroke-linejoin="round" d="M0.882004 11.876H13.244" stroke-width="1"></path><path stroke="#000000" stroke-linecap="round" stroke-linejoin="round" d="M8.3 17.068H2.86c-0.52459 0 -1.02771 -0.2084 -1.39865 -0.5793 -0.37095 -0.371 -0.579346 -0.8741 -0.579346 -1.3987V2.728c0 -0.5246 0.208396 -1.02771 0.579346 -1.39866C1.83229 0.958396 2.33541 0.75 2.86 0.75h14.834c0.5246 0 1.0277 0.208396 1.3987 0.57934 0.3709 0.37095 0.5793 0.87406 0.5793 1.39866v6.428" stroke-width="1"></path><path stroke="#000000" stroke-linecap="round" stroke-linejoin="round" d="M0.882004 6.18896H19.672" stroke-width="1"></path><path stroke="#000000" stroke-linecap="round" stroke-linejoin="round" d="M7.955 6.18896V12.865" stroke-width="1"></path><path stroke="#000000" stroke-linecap="round" stroke-linejoin="round" d="M13.863 6.18896v2.967" stroke-width="1"></path></svg>