<svg xmlns="http://www.w3.org/2000/svg" viewBox="0 0 24 24" id="Workflow-Data-Table-Favorite-Heart--Streamline-Ultimate"><desc>Workflow Data Table Favorite Heart Streamline Icon: https://streamlinehq.com</desc><defs></defs><path d="M7.9 17.25H2.75a2 2 0 0 1 -2 -2V2.75a2 2 0 0 1 2 -2h15a2 2 0 0 1 2 2v7" fill="none" stroke="#000000" stroke-linecap="round" stroke-linejoin="round" stroke-width="1"></path><path d="m0.75 6.25 19 0" fill="none" stroke="#000000" stroke-linecap="round" stroke-linejoin="round" stroke-width="1"></path><path d="m7.902 6.25 0 10.887" fill="none" stroke="#000000" stroke-linecap="round" stroke-linejoin="round" stroke-width="1"></path><path d="m13.876 6.25 0 3.5" fill="none" stroke="#000000" stroke-linecap="round" stroke-linejoin="round" stroke-width="1"></path><path d="m0.75 11.75 8.526 0" fill="none" stroke="#000000" stroke-linecap="round" stroke-linejoin="round" stroke-width="1"></path><path d="m17.491 23.25 -4.91 -5.335a3.121 3.121 0 0 1 -0.544 -3.492h0a2.919 2.919 0 0 1 2.133 -1.634 2.831 2.831 0 0 1 2.519 0.847l0.8 0.835 0.8 -0.835a2.832 2.832 0 0 1 2.519 -0.847 2.919 2.919 0 0 1 2.133 1.634h0a3.121 3.121 0 0 1 -0.545 3.492Z" fill="none" stroke="#000000" stroke-linecap="round" stroke-linejoin="round" stroke-width="1"></path></svg>