<svg xmlns="http://www.w3.org/2000/svg" fill="none" viewBox="0 0 24 24" id="Workflow-Data-Table-Key--Streamline-Ultimate"><desc>Workflow Data Table Key Streamline Icon: https://streamlinehq.com</desc><path stroke="#000000" d="M16.2566 19.9653c-0.2762 0 -0.5 -0.2238 -0.5 -0.5 0 -0.2761 0.2238 -0.5 0.5 -0.5" stroke-width="1"></path><path stroke="#000000" d="M16.2566 19.9653c0.2761 0 0.5 -0.2238 0.5 -0.5 0 -0.2761 -0.2239 -0.5 -0.5 -0.5" stroke-width="1"></path><path stroke="#000000" stroke-linecap="round" stroke-linejoin="round" d="m19.558 18.13 3.27 -3.406c0.2712 -0.2867 0.4223 -0.6663 0.4223 -1.061 0 -0.3946 -0.1511 -0.7743 -0.4223 -1.061 -0.1309 -0.1387 -0.2887 -0.2493 -0.4639 -0.3249 -0.1751 -0.0755 -0.3639 -0.1145 -0.5546 -0.1145 -0.1908 0 -0.3795 0.039 -0.5546 0.1145 -0.1752 0.0756 -0.333 0.1862 -0.4639 0.3249l-3.27 3.406c-0.7738 -0.3109 -1.6328 -0.3371 -2.4241 -0.074 -0.7913 0.2632 -1.4635 0.7986 -1.8969 1.511 -0.4525 0.7249 -0.6522 1.5792 -0.5679 2.4295 0.0843 0.8503 0.4479 1.6487 1.0339 2.2705 0.5713 0.6066 1.3407 0.989 2.1692 1.0781 0.8285 0.0892 1.6615 -0.1208 2.3488 -0.5921 0.6987 -0.4903 1.2137 -1.1999 1.4635 -2.0161 0.2498 -0.8162 0.22 -1.6924 -0.0845 -2.4899l-0.005 0.005Z" stroke-width="1"></path><path stroke="#000000" stroke-linecap="round" stroke-linejoin="round" d="M0.75 11.751h14" stroke-width="1"></path><path stroke="#000000" stroke-linecap="round" stroke-linejoin="round" d="M8.25 17.251h-5.5c-0.53043 0 -1.03914 -0.2107 -1.41421 -0.5858C0.960714 16.2901 0.75 15.7814 0.75 15.251V2.75098c0 -0.53044 0.210714 -1.03914 0.58579 -1.41422C1.71086 0.96169 2.21957 0.750977 2.75 0.750977h15c0.5304 0 1.0391 0.210713 1.4142 0.585783 0.3751 0.37508 0.5858 0.88378 0.5858 1.41422v6.5" stroke-width="1"></path><path stroke="#000000" stroke-linecap="round" stroke-linejoin="round" d="M0.75 6.25098h19" stroke-width="1"></path><path stroke="#000000" stroke-linecap="round" stroke-linejoin="round" d="M7.90201 6.25098V13.001" stroke-width="1"></path><path stroke="#000000" stroke-linecap="round" stroke-linejoin="round" d="M13.876 6.25098V11.751" stroke-width="1"></path></svg>