<svg xmlns="http://www.w3.org/2000/svg" viewBox="0 0 24 24" id="Workflow-Data-Table-Cog--Streamline-Ultimate"><desc>Workflow Data Table Cog Streamline Icon: https://streamlinehq.com</desc><defs></defs><path d="M17.49 18a1.5 1.5 0 1 0 -1.44 -1.5 1.471 1.471 0 0 0 1.44 1.5Z" fill="none" stroke="#000000" stroke-linecap="round" stroke-linejoin="round" stroke-width="1"></path><path d="m18.713 10.7 0.424 1.452a0.949 0.949 0 0 0 1.127 0.681l1.413 -0.341a1.268 1.268 0 0 1 1.4 0.639 1.381 1.381 0 0 1 -0.175 1.58l-0.989 1.109a1.03 1.03 0 0 0 0 1.362L22.9 18.3a1.382 1.382 0 0 1 0.173 1.579 1.266 1.266 0 0 1 -1.4 0.639l-1.413 -0.341a0.951 0.951 0 0 0 -1.127 0.681l-0.42 1.442a1.263 1.263 0 0 1 -2.446 0l-0.424 -1.452a0.951 0.951 0 0 0 -1.128 -0.681l-1.415 0.343a1.267 1.267 0 0 1 -1.4 -0.639 1.383 1.383 0 0 1 0.173 -1.579l0.99 -1.111a1.03 1.03 0 0 0 0 -1.362l-0.99 -1.111a1.383 1.383 0 0 1 -0.174 -1.58 1.268 1.268 0 0 1 1.4 -0.639l1.413 0.341a0.95 0.95 0 0 0 1.128 -0.681l0.424 -1.452a1.263 1.263 0 0 1 2.446 0.005Z" fill="none" stroke="#000000" stroke-linecap="round" stroke-linejoin="round" stroke-width="1"></path><path d="m0.753 11.749 9 0" fill="none" stroke="#000000" stroke-linecap="round" stroke-linejoin="round" stroke-width="1"></path><path d="M8.253 17.249h-5.5a2 2 0 0 1 -2 -2v-12.5a2 2 0 0 1 2 -2h15a2 2 0 0 1 2 2v4.862" fill="none" stroke="#000000" stroke-linecap="round" stroke-linejoin="round" stroke-width="1"></path><path d="m0.753 6.249 19 0" fill="none" stroke="#000000" stroke-linecap="round" stroke-linejoin="round" stroke-width="1"></path><path d="m7.906 6.249 0 6.75" fill="none" stroke="#000000" stroke-linecap="round" stroke-linejoin="round" stroke-width="1"></path><path d="m13.879 6.25 0 1.969" fill="none" stroke="#000000" stroke-linecap="round" stroke-linejoin="round" stroke-width="1"></path></svg>