<svg xmlns="http://www.w3.org/2000/svg" viewBox="0 0 24 24" id="Workflow-Data-Table-Database--Streamline-Ultimate"><desc>Workflow Data Table Database Streamline Icon: https://streamlinehq.com</desc><defs></defs><path d="M12.75 13.5a5.25 2.25 0 1 0 10.5 0 5.25 2.25 0 1 0 -10.5 0" fill="none" stroke="#000000" stroke-linecap="round" stroke-linejoin="round" stroke-width="1"></path><path d="M12.75 13.5v3.75c0 1.242 2.351 2.25 5.25 2.25s5.25 -1.007 5.25 -2.25V13.5" fill="none" stroke="#000000" stroke-linecap="round" stroke-linejoin="round" stroke-width="1"></path><path d="M12.75 17.249V21c0 1.242 2.351 2.25 5.25 2.25s5.25 -1.007 5.25 -2.25v-3.75" fill="none" stroke="#000000" stroke-linecap="round" stroke-linejoin="round" stroke-width="1"></path><path d="m0.75 11.752 9 0" fill="none" stroke="#000000" stroke-linecap="round" stroke-linejoin="round" stroke-width="1"></path><path d="M8.25 17.251h-5.5a2 2 0 0 1 -2 -2v-12.5a2 2 0 0 1 2 -2h15a2 2 0 0 1 2 2v5.6" fill="none" stroke="#000000" stroke-linecap="round" stroke-linejoin="round" stroke-width="1"></path><path d="m0.75 6.251 19 0" fill="none" stroke="#000000" stroke-linecap="round" stroke-linejoin="round" stroke-width="1"></path><path d="m7.902 6.251 0 6.75" fill="none" stroke="#000000" stroke-linecap="round" stroke-linejoin="round" stroke-width="1"></path><path d="m13.876 6.251 0 2.47" fill="none" stroke="#000000" stroke-linecap="round" stroke-linejoin="round" stroke-width="1"></path></svg>