<svg xmlns="http://www.w3.org/2000/svg" viewBox="0 0 24 24" id="Photo-Bokeh--Streamline-Ultimate"><desc>Photo Bokeh Streamline Icon: https://streamlinehq.com</desc><defs></defs><path d="M0.75 18a5.25 5.25 0 1 0 10.5 0 5.25 5.25 0 1 0 -10.5 0" fill="none" stroke="#000000" stroke-miterlimit="10" stroke-width="1"></path><path d="M18.25 15.75a2.5 2.5 0 1 0 5 0 2.5 2.5 0 1 0 -5 0" fill="none" stroke="#000000" stroke-miterlimit="10" stroke-width="1"></path><path d="M0.75 4.75a2.5 2.5 0 1 0 5 0 2.5 2.5 0 1 0 -5 0" fill="none" stroke="#000000" stroke-miterlimit="10" stroke-width="1"></path><path d="M18.75 2.5a1.75 1.75 0 1 0 3.5 0 1.75 1.75 0 1 0 -3.5 0" fill="none" stroke="#000000" stroke-miterlimit="10" stroke-width="1"></path><path d="M11.25 8.5a1.75 1.75 0 1 0 3.5 0 1.75 1.75 0 1 0 -3.5 0" fill="none" stroke="#000000" stroke-miterlimit="10" stroke-width="1"></path></svg>