<svg xmlns="http://www.w3.org/2000/svg" viewBox="0 0 24 24" id="Photo-Background-Removal-2--Streamline-Ultimate"><desc>Photo Background Removal 2 Streamline Icon: https://streamlinehq.com</desc><defs></defs><path d="M13.541 23h8.513a0.951 0.951 0 0 0 0.946 -0.957V1.957A0.951 0.951 0 0 0 22.054 1h-8.513" stroke-linecap="round" stroke-linejoin="round" fill="none" stroke="#000000" stroke-width="1"></path><path d="M16.572 12.514c1.922 -1.236 2.908 -3 2.2 -4.036 -0.649 -0.944 -2.49 -0.955 -4.337 -0.1 -0.229 -1.911 -1.235 -3.35 -2.435 -3.35S9.794 6.467 9.568 8.375c-1.847 -0.852 -3.688 -0.841 -4.337 0.1 -0.711 1.033 0.275 2.8 2.2 4.036 -1.922 1.236 -2.908 3 -2.2 4.036 0.649 0.945 2.49 0.955 4.337 0.1C9.794 18.561 10.8 20 12 20s2.206 -1.439 2.432 -3.347c1.847 0.852 3.688 0.842 4.337 -0.1 0.711 -1.036 -0.275 -2.803 -2.197 -4.039Z" stroke-linecap="round" stroke-linejoin="round" fill="none" stroke="#000000" stroke-width="1"></path><path d="M11.372 12.473a0.75 0.75 0 1 0 1.5 0 0.75 0.75 0 1 0 -1.5 0" stroke-miterlimit="10" fill="none" stroke="#000000" stroke-width="1"></path><path d="M11 1 9.5 1" stroke-linecap="round" stroke-linejoin="round" fill="none" stroke="#000000" stroke-width="1"></path><path d="M6.5 1 5 1" stroke-linecap="round" stroke-linejoin="round" fill="none" stroke="#000000" stroke-width="1"></path><path d="m1 7.625 0 -1.5" stroke-linecap="round" stroke-linejoin="round" fill="none" stroke="#000000" stroke-width="1"></path><path d="m1 12.75 0 -1.5" stroke-linecap="round" stroke-linejoin="round" fill="none" stroke="#000000" stroke-width="1"></path><path d="m1 17.875 0 -1.5" stroke-linecap="round" stroke-linejoin="round" fill="none" stroke="#000000" stroke-width="1"></path><path d="M1 2.5h0A1.5 1.5 0 0 1 2.5 1h0" stroke-linecap="round" stroke-linejoin="round" fill="none" stroke="#000000" stroke-width="1"></path><path d="m11 23 -1.5 0" stroke-linecap="round" stroke-linejoin="round" fill="none" stroke="#000000" stroke-width="1"></path><path d="M6.5 23 5 23" stroke-linecap="round" stroke-linejoin="round" fill="none" stroke="#000000" stroke-width="1"></path><path d="M1 21.5h0A1.5 1.5 0 0 0 2.5 23h0" stroke-linecap="round" stroke-linejoin="round" fill="none" stroke="#000000" stroke-width="1"></path></svg>