<svg xmlns="http://www.w3.org/2000/svg" viewBox="0 0 24 24" id="Photo-Video-Editing--Streamline-Ultimate"><desc>Photo Video Editing Streamline Icon: https://streamlinehq.com</desc><defs></defs><path d="m0.75 21.25 6.209 0" fill="none" stroke="#000000" stroke-linecap="round" stroke-linejoin="round" stroke-width="1"></path><path d="m10 21.25 4 0" fill="none" stroke="#000000" stroke-linecap="round" stroke-linejoin="round" stroke-width="1"></path><path d="m0.75 18.788 0 4.462" fill="none" stroke="#000000" stroke-linecap="round" stroke-linejoin="round" stroke-width="1"></path><path d="m7 18.75 0 4.462" fill="none" stroke="#000000" stroke-linecap="round" stroke-linejoin="round" stroke-width="1"></path><path d="m17 21.25 6.209 0" fill="none" stroke="#000000" stroke-linecap="round" stroke-linejoin="round" stroke-width="1"></path><path d="m17 18.788 0 4.462" fill="none" stroke="#000000" stroke-linecap="round" stroke-linejoin="round" stroke-width="1"></path><path d="m23.25 18.75 0 4.462" fill="none" stroke="#000000" stroke-linecap="round" stroke-linejoin="round" stroke-width="1"></path><path d="M20.263 0.75H3.75a0.987 0.987 0 0 0 -0.987 0.987V13.75a0.987 0.987 0 0 0 0.987 0.987H9.5a0.986 0.986 0 0 1 0.821 0.44l0.86 1.29a0.988 0.988 0 0 0 1.644 0l0.86 -1.29a0.986 0.986 0 0 1 0.821 -0.44h5.76a0.987 0.987 0 0 0 0.987 -0.987V1.737a0.987 0.987 0 0 0 -0.99 -0.987Z" fill="none" stroke="#000000" stroke-linecap="round" stroke-linejoin="round" stroke-width="1"></path><path d="M9.546 4.9v5a0.987 0.987 0 0 0 1.5 0.847l4.41 -2.647a0.988 0.988 0 0 0 -0.043 -1.718L11 4.025a0.987 0.987 0 0 0 -1.454 0.875Z" fill="none" stroke="#000000" stroke-linecap="round" stroke-linejoin="round" stroke-width="1"></path></svg>