<svg xmlns="http://www.w3.org/2000/svg" viewBox="0 0 24 24" id="Photo-Sound-Wave--Streamline-Ultimate"><desc>Photo Sound Wave Streamline Icon: https://streamlinehq.com</desc><defs></defs><path d="M2.75 0.75h18.5s2 0 2 2v18.5s0 2 -2 2H2.75s-2 0 -2 -2V2.75s0 -2 2 -2" fill="none" stroke="#000000" stroke-linecap="round" stroke-linejoin="round" stroke-width="1"></path><path d="m0.75 6 22.5 0" fill="none" stroke="#000000" stroke-linecap="round" stroke-linejoin="round" stroke-width="1"></path><path d="m0.75 14.5 22.5 0" fill="none" stroke="#000000" stroke-linecap="round" stroke-linejoin="round" stroke-width="1"></path><path d="m6 6 0 17" fill="none" stroke="#000000" stroke-linecap="round" stroke-linejoin="round" stroke-width="1"></path><path d="m6 12 1.465 -1.971c1.03 -1.387 3.982 -1.368 4.972 0.032l0.393 0.555c0.939 1.327 3.687 1.433 4.845 0.187h0a3.585 3.585 0 0 1 4.68 -0.013l0.895 0.946" fill="none" stroke="#000000" stroke-linecap="round" stroke-linejoin="round" stroke-width="1"></path><path d="m6 19.093 1.641 -1.641a1.542 1.542 0 0 1 2.391 0.262l1.229 1.931a1.541 1.541 0 0 0 2.563 0.057l0.841 -1.2a1.54 1.54 0 0 1 2.569 0.067l0.044 0.07a1.542 1.542 0 0 0 2.562 0.079h0a1.542 1.542 0 0 1 2.438 -0.091l0.972 1.167" fill="none" stroke="#000000" stroke-linecap="round" stroke-linejoin="round" stroke-width="1"></path></svg>