<svg xmlns="http://www.w3.org/2000/svg" viewBox="0 0 24 24" id="Photo-Background-Removal-1--Streamline-Ultimate"><desc>Photo Background Removal 1 Streamline Icon: https://streamlinehq.com</desc><defs></defs><path d="M14 0.75h8.293a0.956 0.956 0 0 1 0.957 0.957v20.586a0.956 0.956 0 0 1 -0.957 0.957h-8.858" stroke-linecap="round" stroke-linejoin="round" fill="none" stroke="#000000" stroke-width="1"></path><path d="M11.25 12a0.75 0.75 0 1 0 1.5 0 0.75 0.75 0 1 0 -1.5 0" stroke-miterlimit="10" fill="none" stroke="#000000" stroke-width="1"></path><path d="m10.25 0.75 -9.5 0" stroke-linecap="round" stroke-linejoin="round" fill="none" stroke="#000000" stroke-width="1"></path><path d="m5.5 4.75 -4.75 0" stroke-linecap="round" stroke-linejoin="round" fill="none" stroke="#000000" stroke-width="1"></path><path d="m2.185 9.75 -1.435 0" stroke-linecap="round" stroke-linejoin="round" fill="none" stroke="#000000" stroke-width="1"></path><path d="m10.25 23.25 -9.5 0" stroke-linecap="round" stroke-linejoin="round" fill="none" stroke="#000000" stroke-width="1"></path><path d="m5.5 19.25 -4.75 0" stroke-linecap="round" stroke-linejoin="round" fill="none" stroke="#000000" stroke-width="1"></path><path d="m2.185 14.25 -1.435 0" stroke-linecap="round" stroke-linejoin="round" fill="none" stroke="#000000" stroke-width="1"></path><path d="M16.573 12c1.921 -1.3 2.906 -3.157 2.2 -4.243 -0.649 -0.993 -2.49 -1 -4.336 -0.109 -0.225 -2 -1.227 -3.518 -2.431 -3.518S9.8 5.643 9.571 7.648c-1.846 -0.895 -3.687 -0.884 -4.336 0.109C4.525 8.843 5.51 10.7 7.431 12c-1.921 1.3 -2.906 3.157 -2.2 4.243 0.649 0.993 2.49 1 4.336 0.109C9.8 18.357 10.8 19.87 12 19.87s2.206 -1.513 2.431 -3.518c1.846 0.895 3.687 0.884 4.336 -0.109 0.712 -1.086 -0.273 -2.943 -2.194 -4.243Z" stroke-linecap="round" stroke-linejoin="round" fill="none" stroke="#000000" stroke-width="1"></path></svg>