<svg viewBox="0 0 24 24" xmlns="http://www.w3.org/2000/svg" id="Retouch-Graph--Streamline-Ultimate"><desc>Retouch Graph Streamline Icon: https://streamlinehq.com</desc><path d="M12.146 14.215a16.139 16.139 0 0 0 1.873 -3.764 19.6 19.6 0 0 1 2.134 -4.419" fill="none" stroke="#000000" stroke-linecap="round" stroke-linejoin="round" stroke-width="1"></path><path d="M3 0.75 3 21l20.25 0" fill="none" stroke="#000000" stroke-linecap="round" stroke-linejoin="round" stroke-width="1"></path><path d="M8.25 15.75a2.25 2.25 0 1 0 4.5 0 2.25 2.25 0 1 0 -4.5 0Z" fill="none" stroke="#000000" stroke-linecap="round" stroke-linejoin="round" stroke-width="1"></path><path d="M15.424 4.374a2.25 2.25 0 1 0 4.5 0 2.25 2.25 0 1 0 -4.5 0Z" fill="none" stroke="#000000" stroke-linecap="round" stroke-linejoin="round" stroke-width="1"></path><path d="M19.054 2.6A6.019 6.019 0 0 1 23.25 0.754" fill="none" stroke="#000000" stroke-linecap="round" stroke-linejoin="round" stroke-width="1"></path><path d="M3 21a16.478 16.478 0 0 0 6.087 -3.5" fill="none" stroke="#000000" stroke-linecap="round" stroke-linejoin="round" stroke-width="1"></path><path d="M0.75 3 3 0.75 5.25 3" fill="none" stroke="#000000" stroke-linecap="round" stroke-linejoin="round" stroke-width="1"></path><path d="M21 18.75 23.25 21 21 23.25" fill="none" stroke="#000000" stroke-linecap="round" stroke-linejoin="round" stroke-width="1"></path></svg>