<svg viewBox="0 0 24 24" xmlns="http://www.w3.org/2000/svg" id="Retouch-Face--Streamline-Ultimate"><desc>Retouch Face Streamline Icon: https://streamlinehq.com</desc><path d="M13.863 14.927a3 3 0 0 1 -3.6 0" fill="none" stroke="#000000" stroke-linecap="round" stroke-linejoin="round" stroke-width="1"></path><path d="M17.439 9.911A6.219 6.219 0 0 1 12 6.75a6.221 6.221 0 0 1 -5.44 3.161A5.454 5.454 0 0 1 6 9.883v3.294a6.184 6.184 0 0 0 6 5.871 6.185 6.185 0 0 0 6 -5.871V9.883a5.488 5.488 0 0 1 -0.561 0.028Z" fill="none" stroke="#000000" stroke-linecap="round" stroke-linejoin="round" stroke-width="1"></path><path d="M15.455 1.727A7.891 7.891 0 0 0 12 0.929a8.693 8.693 0 0 0 -8.391 8.835s0 5.73 -2.677 9.61a1.034 1.034 0 0 0 0.157 1.352C3.026 22.456 7.5 23.308 12 23.247h0c4.5 0.061 8.973 -0.791 10.91 -2.521a1.032 1.032 0 0 0 0.157 -1.352c-2.677 -3.88 -2.677 -9.61 -2.677 -9.61a9.052 9.052 0 0 0 -0.282 -2.243" fill="none" stroke="#000000" stroke-linecap="round" stroke-linejoin="round" stroke-width="1"></path><path d="m20.25 2.25 3 0" fill="none" stroke="#000000" stroke-linecap="round" stroke-linejoin="round" stroke-width="1"></path><path d="m21.75 0.75 0 3" fill="none" stroke="#000000" stroke-linecap="round" stroke-linejoin="round" stroke-width="1"></path><path d="m15.75 5.25 3 0" fill="none" stroke="#000000" stroke-linecap="round" stroke-linejoin="round" stroke-width="1"></path><path d="m17.25 3.75 0 3" fill="none" stroke="#000000" stroke-linecap="round" stroke-linejoin="round" stroke-width="1"></path></svg>