<svg viewBox="0 0 24 24" xmlns="http://www.w3.org/2000/svg" id="Antique-Catapult--Streamline-Ultimate"><desc>Antique Catapult Streamline Icon: https://streamlinehq.com</desc><path d="M3.75 20.25a3 3 0 1 0 6 0 3 3 0 1 0 -6 0Z" fill="none" stroke="#000000" stroke-linecap="round" stroke-linejoin="round" stroke-width="1"></path><path d="M14.25 20.25a3 3 0 1 0 6 0 3 3 0 1 0 -6 0Z" fill="none" stroke="#000000" stroke-linecap="round" stroke-linejoin="round" stroke-width="1"></path><path d="M3.75 20.25H1.5a0.75 0.75 0 0 1 -0.75 -0.75V18a0.75 0.75 0 0 1 0.75 -0.75h21a0.75 0.75 0 0 1 0.75 0.75v1.5a0.75 0.75 0 0 1 -0.75 0.75h-2.25" fill="none" stroke="#000000" stroke-linecap="round" stroke-linejoin="round" stroke-width="1"></path><path d="m9.75 20.25 4.5 0" fill="none" stroke="#000000" stroke-linecap="round" stroke-linejoin="round" stroke-width="1"></path><path d="m12.75 17.25 4.5 -7.5 4.5 7.5" fill="none" stroke="#000000" stroke-linecap="round" stroke-linejoin="round" stroke-width="1"></path><path d="m17.25 17.25 0 -9" fill="none" stroke="#000000" stroke-linecap="round" stroke-linejoin="round" stroke-width="1"></path><path d="M13.875 15.375 9 10.491" fill="none" stroke="#000000" stroke-linecap="round" stroke-linejoin="round" stroke-width="1"></path><path d="M9.012 10.5A3 3 0 1 1 4.77 6.262Z" fill="none" stroke="#000000" stroke-linecap="round" stroke-linejoin="round" stroke-width="1"></path><path d="M14.25 2.625a1.875 1.875 0 1 0 3.75 0 1.875 1.875 0 1 0 -3.75 0Z" fill="none" stroke="#000000" stroke-linecap="round" stroke-linejoin="round" stroke-width="1"></path><path d="M12 4.5A10.789 10.789 0 0 0 9.75 6" fill="none" stroke="#000000" stroke-linecap="round" stroke-linejoin="round" stroke-width="1"></path></svg>