<svg viewBox="0 0 24 24" xmlns="http://www.w3.org/2000/svg" id="Antique-Axe-1--Streamline-Ultimate"><desc>Antique Axe 1 Streamline Icon: https://streamlinehq.com</desc><path d="M12.524 12.966a4.642 4.642 0 1 0 5.934 -7.138" fill="none" stroke="#000000" stroke-linecap="round" stroke-linejoin="round" stroke-width="1"></path><path d="M9.412 8.347A10.033 10.033 0 0 0 8.1 7.433a7.544 7.544 0 0 1 4.132 -4.972 10.053 10.053 0 0 0 1.133 1.127 9.981 9.981 0 0 0 8.3 2.147 0.773 0.773 0 0 1 0.844 0.432 7.7 7.7 0 0 1 -8.928 10.741 0.771 0.771 0 0 1 -0.575 -0.754 10.05 10.05 0 0 0 -3.594 -7.807Z" fill="none" stroke="#000000" stroke-linecap="round" stroke-linejoin="round" stroke-width="1"></path><path d="m15.32 4.868 1.311 -1.577a1.547 1.547 0 1 0 -2.373 -1.984L12.8 3.065" fill="none" stroke="#000000" stroke-linecap="round" stroke-linejoin="round" stroke-width="1"></path><path d="m11.019 10.043 -5.761 6.932c-0.989 1.189 -0.2 3.867 -0.1 4.958s-4.194 2.121 -4.35 0.4c-0.3 -3.273 0.594 -5.554 1.583 -6.743L8.8 7.878" fill="none" stroke="#000000" stroke-linecap="round" stroke-linejoin="round" stroke-width="1"></path></svg>