<svg viewBox="0 0 24 24" xmlns="http://www.w3.org/2000/svg" id="Antique-Armor--Streamline-Ultimate"><desc>Antique Armor Streamline Icon: https://streamlinehq.com</desc><path d="M21 23.25V0.75h-8.25a1.5 1.5 0 0 0 -1.5 1.5v4.5H21" fill="none" stroke="#000000" stroke-linecap="round" stroke-linejoin="round" stroke-width="1"></path><path d="M11.25 2.25H3l1.5 3 -1.5 3h6.75a1.5 1.5 0 0 0 1.5 -1.5Z" fill="none" stroke="#000000" stroke-linecap="round" stroke-linejoin="round" stroke-width="1"></path><path d="M18 23.25h-3l1.405 -5.619a0.754 0.754 0 0 0 -0.163 -0.676L11.814 11.9a0.749 0.749 0 0 0 -1.128 0l-4.428 5.06a0.754 0.754 0 0 0 -0.163 0.676L7.5 23.25H3.75" fill="none" stroke="#000000" stroke-linecap="round" stroke-linejoin="round" stroke-width="1"></path><path d="m11.25 15.75 0 4.5" fill="none" stroke="#000000" stroke-linecap="round" stroke-linejoin="round" stroke-width="1"></path><path d="m9 18 4.5 0" fill="none" stroke="#000000" stroke-linecap="round" stroke-linejoin="round" stroke-width="1"></path><path d="m7.5 23.25 7.5 0" fill="none" stroke="#000000" stroke-linecap="round" stroke-linejoin="round" stroke-width="1"></path></svg>