<svg viewBox="0 0 24 24" xmlns="http://www.w3.org/2000/svg" id="Antique-Sword-1--Streamline-Ultimate"><desc>Antique Sword 1 Streamline Icon: https://streamlinehq.com</desc><path d="M3.4 12.919s0 2.2 2.744 4.938 4.937 2.743 4.937 2.743" fill="none" stroke="#000000" stroke-linecap="round" stroke-linejoin="round" stroke-width="1"></path><path d="m17.665 6.335 -7.133 7.133" fill="none" stroke="#000000" stroke-linecap="round" stroke-linejoin="round" stroke-width="1"></path><path d="M1.205 20.6A1.551 1.551 0 0 0 3.4 22.8l4.578 -4.577a3.1 3.1 0 0 1 2.2 -0.909h0.909l10.3 -10.3a0.776 0.776 0 0 0 0.187 -0.3l1.636 -4.943a0.775 0.775 0 0 0 -0.981 -0.981L17.29 2.436a0.776 0.776 0 0 0 -0.3 0.187l-10.3 10.3v0.909a3.1 3.1 0 0 1 -0.909 2.2Z" fill="none" stroke="#000000" stroke-linecap="round" stroke-linejoin="round" stroke-width="1"></path></svg>