<svg xmlns="http://www.w3.org/2000/svg" viewBox="0 0 24 24" id="Envelope-Back-Front--Streamline-Ultimate"><desc>Envelope Back Front Streamline Icon: https://streamlinehq.com</desc><defs></defs><title>envelope-back-front</title><path d="M3.75 12.75h-1.5a1.5 1.5 0 0 1 -1.5 -1.5v-9a1.5 1.5 0 0 1 1.5 -1.5h13.5a1.5 1.5 0 0 1 1.5 1.5v6" fill="none" stroke="#000000" stroke-linecap="round" stroke-linejoin="round" stroke-width="1"></path><path d="M0.75 2.25 9 6.75l8.25 -4.5" fill="none" stroke="#000000" stroke-linecap="round" stroke-linejoin="round" stroke-width="1"></path><path d="M8.25 11.25h13.5s1.5 0 1.5 1.5v9s0 1.5 -1.5 1.5H8.25s-1.5 0 -1.5 -1.5v-9s0 -1.5 1.5 -1.5" fill="none" stroke="#000000" stroke-linecap="round" stroke-linejoin="round" stroke-width="1"></path><path d="m6.75 12.75 3.75 3 9 0 3.75 -3" fill="none" stroke="#000000" stroke-linecap="round" stroke-linejoin="round" stroke-width="1"></path></svg>