<svg xmlns="http://www.w3.org/2000/svg" viewBox="0 0 24 24" id="Envelope-Sealed--Streamline-Ultimate"><desc>Envelope Sealed Streamline Icon: https://streamlinehq.com</desc><defs></defs><title>envelope-sealed</title><path d="M6 0.75h12s1.5 0 1.5 1.5v19.5s0 1.5 -1.5 1.5H6s-1.5 0 -1.5 -1.5V2.25S4.5 0.75 6 0.75" fill="none" stroke="#000000" stroke-linecap="round" stroke-linejoin="round" stroke-width="1"></path><path d="m12 5.25 0 13.5" fill="none" stroke="#000000" stroke-linecap="round" stroke-linejoin="round" stroke-width="1"></path><path d="M19.5 2.25a3 3 0 0 1 -3 3h-9a3 3 0 0 1 -3 -3" fill="none" stroke="#000000" stroke-linecap="round" stroke-linejoin="round" stroke-width="1"></path><path d="M4.5 21.75a3 3 0 0 1 3 -3h9a3 3 0 0 1 3 3" fill="none" stroke="#000000" stroke-linecap="round" stroke-linejoin="round" stroke-width="1"></path></svg>