<svg xmlns="http://www.w3.org/2000/svg" viewBox="0 0 24 24" id="Iris-Scan-Approved-1--Streamline-Ultimate"><desc>Iris Scan Approved 1 Streamline Icon: https://streamlinehq.com</desc><g><g><path d="M22.11 9.36c0.25 -0.25 0.49 -0.5 0.71 -0.75a1.65 1.65 0 0 0 0 -2.22C20.2 3.5 16 0.68 12 0.75S3.8 3.5 1.18 6.39a1.65 1.65 0 0 0 0 2.22 19.2 19.2 0 0 0 6.52 4.74" fill="none" stroke="#000000" stroke-linecap="round" stroke-linejoin="round" stroke-width="1"></path><path d="M10.32 10.86a3.75 3.75 0 1 1 5.43 -3.36 3.88 3.88 0 0 1 -0.14 1" fill="none" stroke="#000000" stroke-linecap="round" stroke-linejoin="round" stroke-width="1"></path></g><g><path d="M11.25 17.25a6 6 0 1 0 12 0 6 6 0 1 0 -12 0" fill="none" stroke="#000000" stroke-linecap="round" stroke-linejoin="round" stroke-width="1"></path><path d="M19.92 15.51 17 19.38a0.75 0.75 0 0 1 -1.13 0.08L14.39 18" fill="none" stroke="#000000" stroke-linecap="round" stroke-linejoin="round" stroke-width="1"></path></g></g></svg>