<svg xmlns="http://www.w3.org/2000/svg" fill="none" viewBox="0 0 24 24" id="Iris-Scan-Lock--Streamline-Ultimate"><desc>Iris Scan Lock Streamline Icon: https://streamlinehq.com</desc><path stroke="#000000" stroke-linecap="round" stroke-linejoin="round" d="M22.8199 8.61128c0.2762 -0.30373 0.4292 -0.6995 0.4292 -1.11 0 -0.41051 -0.153 -0.80627 -0.4292 -1.11 -2.62 -2.89 -6.82 -5.710003 -10.82 -5.640003 -3.99999 0.07 -8.19999 2.750003 -10.81999 5.640003 -0.276156 0.30373 -0.429178 0.69949 -0.429178 1.11 0 0.4105 0.153022 0.80627 0.429178 1.11 2.47 2.72002 6.41 5.50002 10.36999 5.63002" stroke-width="1"></path><path stroke="#000000" stroke-linecap="round" stroke-linejoin="round" d="M15.75 7.5c0 0.74168 -0.2199 1.4667 -0.632 2.08339 -0.412 0.61671 -0.9977 1.09731 -1.6829 1.38111 -0.6853 0.2839 -1.4393 0.3581 -2.1667 0.2134 -0.7274 -0.1446 -1.3956 -0.5018 -1.92005 -1.0262 -0.52445 -0.5245 -0.8816 -1.19268 -1.02629 -1.92011 -0.1447 -0.72743 -0.07043 -1.48143 0.21339 -2.16665 0.28383 -0.68523 0.76448 -1.2709 1.38116 -1.68295C10.5333 3.96993 11.2583 3.75 12 3.75c0.9946 0 1.9484 0.39509 2.6517 1.09835C15.3549 5.55161 15.75 6.50544 15.75 7.5Z" stroke-width="1"></path><g><path stroke="#000000" stroke-linecap="round" stroke-linejoin="round" d="M21.75 15.75h-6c-0.8284 0 -1.5 0.6716 -1.5 1.5v4.5c0 0.8284 0.6716 1.5 1.5 1.5h6c0.8284 0 1.5 -0.6716 1.5 -1.5v-4.5c0 -0.8284 -0.6716 -1.5 -1.5 -1.5Z" stroke-width="1"></path><path stroke="#000000" stroke-linecap="round" stroke-linejoin="round" d="M18.75 11.25c-0.7956 0 -1.5587 0.3161 -2.1213 0.8787 -0.5626 0.5626 -0.8787 1.3257 -0.8787 2.1213v1.5h6v-1.5c0 -0.7956 -0.3161 -1.5587 -0.8787 -2.1213 -0.5626 -0.5626 -1.3257 -0.8787 -2.1213 -0.8787Z" stroke-width="1"></path><path stroke="#000000" d="M18.7551 19.9001c-0.2071 0 -0.375 -0.1678 -0.375 -0.375 0 -0.2071 0.1679 -0.375 0.375 -0.375" stroke-width="1"></path><path stroke="#000000" d="M18.7551 19.9001c0.2071 0 0.375 -0.1678 0.375 -0.375 0 -0.2071 -0.1679 -0.375 -0.375 -0.375" stroke-width="1"></path></g></svg>