<svg xmlns="http://www.w3.org/2000/svg" viewBox="0 0 24 24" id="Iris-Scan-1--Streamline-Ultimate"><desc>Iris Scan 1 Streamline Icon: https://streamlinehq.com</desc><g><path d="M3.5 12S6.9 7 12 7s8.5 5 8.5 5 -3.4 5 -8.5 5 -8.5 -5 -8.5 -5Z" fill="none" stroke="#000000" stroke-linecap="round" stroke-linejoin="round" stroke-width="1"></path><path d="M12 10h0s2 0 2 2v0s0 2 -2 2h0s-2 0 -2 -2v0s0 -2 2 -2" fill="none" stroke="#000000" stroke-linecap="round" stroke-linejoin="round" stroke-width="1"></path><g><path d="M0.75 4.5V2.25a1.5 1.5 0 0 1 1.5 -1.5H4.5" fill="none" stroke="#000000" stroke-linecap="round" stroke-linejoin="round" stroke-width="1"></path><path d="M23.25 4.5V2.25a1.5 1.5 0 0 0 -1.5 -1.5H19.5" fill="none" stroke="#000000" stroke-linecap="round" stroke-linejoin="round" stroke-width="1"></path><path d="M0.75 19.5v2.25a1.5 1.5 0 0 0 1.5 1.5H4.5" fill="none" stroke="#000000" stroke-linecap="round" stroke-linejoin="round" stroke-width="1"></path><path d="M23.25 19.5v2.25a1.5 1.5 0 0 1 -1.5 1.5H19.5" fill="none" stroke="#000000" stroke-linecap="round" stroke-linejoin="round" stroke-width="1"></path></g></g></svg>