<svg xmlns="http://www.w3.org/2000/svg" viewBox="0 0 24 24" id="Iris-Scan--Streamline-Ultimate"><desc>Iris Scan Streamline Icon: https://streamlinehq.com</desc><g><g><path d="M12 5.25C8 5.18 3.8 8 1.18 10.89a1.65 1.65 0 0 0 0 2.22C3.74 15.94 7.9 18.82 12 18.75s8.26 -2.81 10.82 -5.64a1.65 1.65 0 0 0 0 -2.22C20.2 8 16 5.18 12 5.25Z" fill="none" stroke="#000000" stroke-linecap="round" stroke-linejoin="round" stroke-width="1"></path><path d="M15.5 12A3.5 3.5 0 1 1 12 8.5a3.5 3.5 0 0 1 3.5 3.5Z" fill="none" stroke="#000000" stroke-linecap="round" stroke-linejoin="round" stroke-width="1"></path></g><path d="m0.75 2.75 6 6" fill="none" stroke="#000000" stroke-linecap="round" stroke-linejoin="round" stroke-width="1"></path><path d="m23.25 2.75 -6 6" fill="none" stroke="#000000" stroke-linecap="round" stroke-linejoin="round" stroke-width="1"></path><path d="m0.75 21.25 6 -6" fill="none" stroke="#000000" stroke-linecap="round" stroke-linejoin="round" stroke-width="1"></path><path d="m23.25 21.25 -6 -6" fill="none" stroke="#000000" stroke-linecap="round" stroke-linejoin="round" stroke-width="1"></path></g></svg>