<svg xmlns="http://www.w3.org/2000/svg" viewBox="0 0 24 24" id="Iris-Scan-Approved--Streamline-Ultimate"><desc>Iris Scan Approved Streamline Icon: https://streamlinehq.com</desc><g><path d="M12 4c-4 -0.08 -8.2 3.26 -10.82 6.68a2.25 2.25 0 0 0 0 2.64C3.74 16.66 7.9 20.08 12 20c4.1 0.08 8.26 -3.34 10.82 -6.68a2.25 2.25 0 0 0 0 -2.64C20.2 7.26 16 3.92 12 4Z" fill="none" stroke="#000000" stroke-linecap="round" stroke-linejoin="round" stroke-width="1"></path><path d="M9.75 12 12 14.25 16.5 9" fill="none" stroke="#000000" stroke-linecap="round" stroke-linejoin="round" stroke-width="1"></path><path d="M17 12.71A5 5 0 1 1 12 7a4.86 4.86 0 0 1 1.91 0.38" fill="none" stroke="#000000" stroke-linecap="round" stroke-linejoin="round" stroke-width="1"></path></g></svg>