<svg viewBox="0 0 24 24" xmlns="http://www.w3.org/2000/svg" id="Book-Library-Shelf--Streamline-Ultimate"><desc>Book Library Shelf Streamline Icon: https://streamlinehq.com</desc><path d="M8.25 19.5a3.75 3.75 0 0 1 -7.5 0V6.75" fill="none" stroke="#000000" stroke-linecap="round" stroke-linejoin="round" stroke-width="1"></path><path d="M15.75 19.5a3.75 3.75 0 0 1 -7.5 0" fill="none" stroke="#000000" stroke-linecap="round" stroke-linejoin="round" stroke-width="1"></path><path d="M23.25 6.75V19.5a3.75 3.75 0 0 1 -7.5 0" fill="none" stroke="#000000" stroke-linecap="round" stroke-linejoin="round" stroke-width="1"></path><path d="M8.25 6.75a3.75 3.75 0 0 1 -7.5 0v-6" fill="none" stroke="#000000" stroke-linecap="round" stroke-linejoin="round" stroke-width="1"></path><path d="M15.75 6.75a3.75 3.75 0 0 1 -7.5 0" fill="none" stroke="#000000" stroke-linecap="round" stroke-linejoin="round" stroke-width="1"></path><path d="M23.25 0.75v6a3.75 3.75 0 0 1 -7.5 0" fill="none" stroke="#000000" stroke-linecap="round" stroke-linejoin="round" stroke-width="1"></path><path d="m4.5 0.75 0 6.75" fill="none" stroke="#000000" stroke-linecap="round" stroke-linejoin="round" stroke-width="1"></path><path d="m12 0.75 0 6.75" fill="none" stroke="#000000" stroke-linecap="round" stroke-linejoin="round" stroke-width="1"></path><path d="m19.5 0.75 0 6.75" fill="none" stroke="#000000" stroke-linecap="round" stroke-linejoin="round" stroke-width="1"></path><path d="m8.25 19.5 0 -18.75" fill="none" stroke="#000000" stroke-linecap="round" stroke-linejoin="round" stroke-width="1"></path><path d="m15.75 19.5 0 -18.75" fill="none" stroke="#000000" stroke-linecap="round" stroke-linejoin="round" stroke-width="1"></path></svg>