<svg viewBox="0 0 24 24" xmlns="http://www.w3.org/2000/svg" id="Book-Share--Streamline-Ultimate"><desc>Book Share Streamline Icon: https://streamlinehq.com</desc><path d="M12.75 23.25h-9A2.25 2.25 0 0 1 1.5 21" fill="none" stroke="#000000" stroke-linecap="round" stroke-linejoin="round" stroke-width="1"></path><path d="M19.5 8.25V1.5a0.75 0.75 0 0 0 -0.75 -0.75H4.5a3 3 0 0 0 -3 3V21a2.25 2.25 0 0 1 2.25 -2.25H7.5" fill="none" stroke="#000000" stroke-linecap="round" stroke-linejoin="round" stroke-width="1"></path><path d="M10.5 18a2.25 2.25 0 1 0 4.5 0 2.25 2.25 0 1 0 -4.5 0Z" fill="none" stroke="#000000" stroke-linecap="round" stroke-linejoin="round" stroke-width="1"></path><path d="M18 21a2.25 2.25 0 1 0 4.5 0 2.25 2.25 0 1 0 -4.5 0Z" fill="none" stroke="#000000" stroke-linecap="round" stroke-linejoin="round" stroke-width="1"></path><path d="M18 13.5a2.25 2.25 0 1 0 4.5 0 2.25 2.25 0 1 0 -4.5 0Z" fill="none" stroke="#000000" stroke-linecap="round" stroke-linejoin="round" stroke-width="1"></path><path d="m14.674 16.845 3.65 -2.19" fill="none" stroke="#000000" stroke-linecap="round" stroke-linejoin="round" stroke-width="1"></path><path d="m14.838 18.835 3.324 1.33" fill="none" stroke="#000000" stroke-linecap="round" stroke-linejoin="round" stroke-width="1"></path></svg>