<svg viewBox="0 0 24 24" xmlns="http://www.w3.org/2000/svg" id="Book-Open-1--Streamline-Ultimate"><desc>Book Open 1 Streamline Icon: https://streamlinehq.com</desc><path d="M12 4.57A22.371 22.371 0 0 0 1.285 1.293a0.514 0.514 0 0 0 -0.376 0.141 0.507 0.507 0 0 0 -0.159 0.366v16.742a0.512 0.512 0 0 0 0.49 0.511 13.062 13.062 0 0 1 9.781 2.559 1.954 1.954 0 0 0 0.98 0.135" fill="none" stroke="#000000" stroke-linecap="round" stroke-linejoin="round" stroke-width="1"></path><path d="M12 4.57a22.371 22.371 0 0 1 10.715 -3.277 0.514 0.514 0 0 1 0.376 0.141 0.507 0.507 0 0 1 0.159 0.369v16.739a0.512 0.512 0 0 1 -0.49 0.511 13.062 13.062 0 0 0 -9.781 2.559 1.954 1.954 0 0 1 -0.98 0.135" fill="none" stroke="#000000" stroke-linecap="round" stroke-linejoin="round" stroke-width="1"></path><path d="m12 4.57 0 17.187" fill="none" stroke="#000000" stroke-linecap="round" stroke-linejoin="round" stroke-width="1"></path><path d="M2.25 18.974V22.2a0.511 0.511 0 0 0 0.623 0.5A44.739 44.739 0 0 1 12 21.758a39.581 39.581 0 0 1 8.582 0.937 0.513 0.513 0 0 0 0.623 -0.5v-3.237" fill="none" stroke="#000000" stroke-linecap="round" stroke-linejoin="round" stroke-width="1"></path></svg>