<svg xmlns="http://www.w3.org/2000/svg" fill="none" viewBox="0 0 24 24" id="Book-Open--Streamline-Ultimate"><desc>Book Open Streamline Icon: https://streamlinehq.com</desc><path stroke="#000000" stroke-linecap="round" stroke-linejoin="round" d="M12 5.49232c0 -1.819 4.556 -3.313 9.968 -3.484 0.134 -0.00429 0.2675 0.01841 0.3925 0.06674 0.1251 0.04833 0.2391 0.12131 0.3354 0.2146 0.0963 0.09329 0.1728 0.20498 0.225 0.32844 0.0523 0.12346 0.0792 0.25617 0.0791 0.39022V17.5083c0.0001 0.2601 -0.1011 0.51 -0.2822 0.6967 -0.1811 0.1867 -0.4278 0.2955 -0.6878 0.3033 -5.439 0.16 -10.03 1.658 -10.03 3.484 0 -1.826 -4.591 -3.324 -10.03 -3.486 -0.25998 -0.0078 -0.5067 -0.1166 -0.68779 -0.3033 -0.1811 -0.1867 -0.282327 -0.4366 -0.28221 -0.6967V3.00832c-0.000069 -0.13405 0.02682 -0.26676 0.07906 -0.39022 0.05225 -0.12346 0.12878 -0.23515 0.22506 -0.32844 0.09627 -0.09329 0.21032 -0.16627 0.33536 -0.2146 0.12505 -0.04833 0.25853 -0.07103 0.39252 -0.06674 5.411 0.171 9.968 1.665 9.968 3.484Z" stroke-width="1"></path><path stroke="#000000" stroke-linecap="round" stroke-linejoin="round" d="M12 5.49219V21.8672" stroke-width="1"></path></svg>