<svg viewBox="0 0 24 24" xmlns="http://www.w3.org/2000/svg" id="Book-Music--Streamline-Ultimate"><desc>Book Music Streamline Icon: https://streamlinehq.com</desc><path d="M9.75 23.25H3A2.25 2.25 0 0 1 0.75 21" fill="none" stroke="#000000" stroke-linecap="round" stroke-linejoin="round" stroke-width="1"></path><path d="M18.75 9.75V1.5A0.75 0.75 0 0 0 18 0.75H3.75a3 3 0 0 0 -3 3V21A2.25 2.25 0 0 1 3 18.75h6.75" fill="none" stroke="#000000" stroke-linecap="round" stroke-linejoin="round" stroke-width="1"></path><path d="M12 21.375a1.875 1.875 0 1 0 3.75 0 1.875 1.875 0 1 0 -3.75 0Z" fill="none" stroke="#000000" stroke-linecap="round" stroke-linejoin="round" stroke-width="1"></path><path d="M19.5 19.125a1.875 1.875 0 1 0 3.75 0 1.875 1.875 0 1 0 -3.75 0Z" fill="none" stroke="#000000" stroke-linecap="round" stroke-linejoin="round" stroke-width="1"></path><path d="M15.75 21.375v-6.794a1.5 1.5 0 0 1 1.026 -1.423l4.5 -1.25a1.5 1.5 0 0 1 1.974 1.423v5.794" fill="none" stroke="#000000" stroke-linecap="round" stroke-linejoin="round" stroke-width="1"></path></svg>