<svg viewBox="0 0 24 24" xmlns="http://www.w3.org/2000/svg" id="Book-Close-Bookmark-1--Streamline-Ultimate"><desc>Book Close Bookmark 1 Streamline Icon: https://streamlinehq.com</desc><path d="M21 23.25H5.25A2.25 2.25 0 0 1 3 21" fill="none" stroke="#000000" stroke-linecap="round" stroke-linejoin="round" stroke-width="1"></path><path d="M12 2.25H6a3 3 0 0 0 -3 3V21a2.25 2.25 0 0 1 2.25 -2.25h15A0.75 0.75 0 0 0 21 18V3a0.75 0.75 0 0 0 -0.75 -0.75H18" fill="none" stroke="#000000" stroke-linecap="round" stroke-linejoin="round" stroke-width="1"></path><path d="m19.5 23.25 0 -4.5" fill="none" stroke="#000000" stroke-linecap="round" stroke-linejoin="round" stroke-width="1"></path><path d="m18 12.75 -3 -3 -3 3V2.25a1.5 1.5 0 0 1 1.5 -1.5h3a1.5 1.5 0 0 1 1.5 1.5Z" fill="none" stroke="#000000" stroke-linecap="round" stroke-linejoin="round" stroke-width="1"></path></svg>