<svg viewBox="0 0 24 24" xmlns="http://www.w3.org/2000/svg" id="Book-Next-Page--Streamline-Ultimate"><desc>Book Next Page Streamline Icon: https://streamlinehq.com</desc><path d="M18.752 19.579C13.639 20.305 12 22.125 12 22.125V4.712S9.545 1.985 1.268 1.875a0.506 0.506 0 0 0 -0.366 0.15 0.522 0.522 0 0 0 -0.152 0.369v16.375a0.515 0.515 0 0 0 0.5 0.519C9.543 19.4 12 22.125 12 22.125" fill="none" stroke="#000000" stroke-linecap="round" stroke-linejoin="round" stroke-width="1"></path><path d="M12 4.712s2.455 -2.727 10.732 -2.837a0.506 0.506 0 0 1 0.366 0.15 0.522 0.522 0 0 1 0.152 0.369v12.231" fill="none" stroke="#000000" stroke-linecap="round" stroke-linejoin="round" stroke-width="1"></path><path d="M18.75 19.564v-4.39a0.557 0.557 0 0 1 0.563 -0.549h3.937Z" fill="none" stroke="#000000" stroke-linecap="round" stroke-linejoin="round" stroke-width="1"></path></svg>