<svg xmlns="http://www.w3.org/2000/svg" fill="none" viewBox="0 0 24 24" id="Book-Library--Streamline-Ultimate"><desc>Book Library Streamline Icon: https://streamlinehq.com</desc><path stroke="#000000" stroke-linecap="round" stroke-linejoin="round" d="M4.384 23.25H2.366c-0.39783 0 -0.77936 -0.158 -1.06066 -0.4393 -0.28131 -0.2813 -0.439343 -0.6629 -0.439343 -1.0607V7.5c0 -0.39782 0.158033 -0.77936 0.439343 -1.06066C1.58664 6.15804 1.96817 6 2.366 6h2.018" stroke-width="1"></path><path stroke="#000000" stroke-linecap="round" stroke-linejoin="round" d="m15.2353 4.12046 -1.402 0.53324c-0.7743 0.29451 -1.1633 1.16095 -0.8688 1.93527l5.8657 15.42213c0.2946 0.7743 1.161 1.1633 1.9353 0.8688l1.402 -0.5332c0.7743 -0.2946 1.1633 -1.161 0.8688 -1.9353L17.1706 4.98922c-0.2945 -0.77431 -1.161 -1.16327 -1.9353 -0.86876Z" stroke-width="1"></path><path stroke="#000000" stroke-linecap="round" stroke-linejoin="round" d="M11.366 0.75h-3c-0.82843 0 -1.5 0.67157 -1.5 1.5v19.5c0 0.8284 0.67157 1.5 1.5 1.5h3c0.8284 0 1.5 -0.6716 1.5 -1.5V2.25c0 -0.82843 -0.6716 -1.5 -1.5 -1.5Z" stroke-width="1"></path><path stroke="#000000" stroke-linecap="round" stroke-linejoin="round" d="M9.866 3.75v12" stroke-width="1"></path><path stroke="#000000" d="M9.866 19.875c-0.20711 0 -0.375 -0.1679 -0.375 -0.375s0.16789 -0.375 0.375 -0.375" stroke-width="1"></path><path stroke="#000000" d="M9.866 19.875c0.2071 0 0.375 -0.1679 0.375 -0.375s-0.1679 -0.375 -0.375 -0.375" stroke-width="1"></path></svg>