<svg xmlns="http://www.w3.org/2000/svg" fill="none" viewBox="0 0 24 24" id="Book-Image--Streamline-Ultimate"><desc>Book Image Streamline Icon: https://streamlinehq.com</desc><path stroke="#000000" stroke-linecap="round" stroke-linejoin="round" d="M8.25 23.25H3c-0.59674 0 -1.16903 -0.2371 -1.59099 -0.659C0.987053 22.169 0.75 21.5967 0.75 21" stroke-width="1"></path><path stroke="#000000" stroke-linecap="round" stroke-linejoin="round" d="M18.75 8.25V1.5c0 -0.19891 -0.079 -0.38968 -0.2197 -0.53033C18.3897 0.829018 18.1989 0.75 18 0.75H3.75c-0.79565 0 -1.55871 0.31607 -2.12132 0.87868C1.06607 2.19129 0.75 2.95435 0.75 3.75V21c0 -0.5967 0.237053 -1.169 0.65901 -1.591 0.42196 -0.4219 0.99425 -0.659 1.59099 -0.659h5.25" stroke-width="1"></path><path stroke="#000000" stroke-linecap="round" stroke-linejoin="round" d="M22.25 11.25h-10c-0.5523 0 -1 0.4477 -1 1v10c0 0.5523 0.4477 1 1 1h10c0.5523 0 1 -0.4477 1 -1v-10c0 -0.5523 -0.4477 -1 -1 -1Z" stroke-width="1"></path><path stroke="#000000" d="M15.375 15c-0.2071 0 -0.375 -0.1679 -0.375 -0.375s0.1679 -0.375 0.375 -0.375" stroke-width="1"></path><path stroke="#000000" d="M15.375 15c0.2071 0 0.375 -0.1679 0.375 -0.375s-0.1679 -0.375 -0.375 -0.375" stroke-width="1"></path><path stroke="#000000" stroke-linecap="round" stroke-linejoin="round" d="m23.25 21 -2.391 -3.587c-0.0678 -0.1016 -0.1593 -0.1851 -0.2667 -0.2433 -0.1073 -0.0581 -0.2273 -0.0892 -0.3494 -0.0905 -0.1221 -0.0013 -0.2426 0.0273 -0.3512 0.0832 -0.1086 0.0559 -0.2018 0.1374 -0.2717 0.2376l-2 2.851 -1.236 -0.989c-0.0813 -0.0649 -0.1751 -0.1121 -0.2756 -0.1388s-0.2055 -0.0323 -0.3082 -0.0163c-0.1028 0.016 -0.2011 0.0531 -0.2887 0.1091 -0.0877 0.056 -0.1628 0.1295 -0.2205 0.216L12.75 23.25" stroke-width="1"></path></svg>