<svg xmlns="http://www.w3.org/2000/svg" fill="none" viewBox="0 0 24 24" id="Book-Pin--Streamline-Ultimate"><desc>Book Pin Streamline Icon: https://streamlinehq.com</desc><path stroke="#000000" stroke-linecap="round" stroke-linejoin="round" d="M13.875 23.25h-10.5c-0.59674 0 -1.16903 -0.2371 -1.59099 -0.659 -0.42196 -0.422 -0.65901 -0.9943 -0.65901 -1.591" stroke-width="1"></path><path stroke="#000000" stroke-linecap="round" stroke-linejoin="round" d="M19.125 8.25V1.5c0 -0.19891 -0.079 -0.38968 -0.2197 -0.53033C18.7647 0.829018 18.5739 0.75 18.375 0.75H4.125c-0.79565 0 -1.55871 0.31607 -2.12132 0.87868C1.44107 2.19129 1.125 2.95435 1.125 3.75V21c0 -0.5967 0.23705 -1.169 0.65901 -1.591 0.42196 -0.4219 0.99425 -0.659 1.59099 -0.659h7.5" stroke-width="1"></path><path stroke="#000000" d="M18.375 16.199c-0.2071 0 -0.375 -0.1679 -0.375 -0.375s0.1679 -0.375 0.375 -0.375" stroke-width="1"></path><path stroke="#000000" d="M18.375 16.199c0.2071 0 0.375 -0.1679 0.375 -0.375s-0.1679 -0.375 -0.375 -0.375" stroke-width="1"></path><path stroke="#000000" stroke-linecap="round" stroke-linejoin="round" d="M18.375 11.324c1.1935 0 2.3381 0.4741 3.182 1.318 0.8439 0.8439 1.318 1.9885 1.318 3.182 0 1.921 -2.688 5.576 -3.909 7.138 -0.0701 0.0898 -0.1598 0.1624 -0.2622 0.2123 -0.1024 0.05 -0.2149 0.0759 -0.3288 0.0759 -0.1139 0 -0.2264 -0.0259 -0.3288 -0.0759 -0.1024 -0.0499 -0.1921 -0.1225 -0.2622 -0.2123 -1.221 -1.561 -3.909 -5.217 -3.909 -7.138 0 -1.1935 0.4741 -2.3381 1.318 -3.182 0.8439 -0.8439 1.9885 -1.318 3.182 -1.318Z" stroke-width="1"></path></svg>