<svg xmlns="http://www.w3.org/2000/svg" fill="none" viewBox="0 0 24 24" id="Attach-Clipping-Object--Streamline-Ultimate"><desc>Attach Clipping Object Streamline Icon: https://streamlinehq.com</desc><path stroke="#000000" stroke-linecap="round" stroke-linejoin="round" stroke-miterlimit="10" d="M18.75 19.7v2c0 0.8 -0.7 1.5 -1.5 1.5h-15c-0.8 0 -1.5 -0.7 -1.5 -1.5V6.69995c0 -0.8 0.7 -1.5 1.5 -1.5h8.3" stroke-width="1"></path><path stroke="#000000" stroke-linecap="round" stroke-linejoin="round" stroke-miterlimit="10" d="M23.25 3.5v8.4c0 2.7 -2.2 4.8001 -4.8 4.8001 -2.7 0 -4.8 -2.2001 -4.8 -4.8001V4c0 -1.8 1.4 -3.199951 3.2 -3.199951C18.65 0.800049 20.05 2.2 20.05 4v7.9c0 0.8 -0.6 1.6 -1.6 1.6 -0.9 0 -1.6 -0.7 -1.6 -1.6V4" stroke-width="1"></path></svg>