<svg viewBox="0 0 24 24" xmlns="http://www.w3.org/2000/svg" id="Hyperlink-Circle--Streamline-Ultimate"><desc>Hyperlink Circle Streamline Icon: https://streamlinehq.com</desc><path d="M12.655 17.993a4.558 4.558 0 0 1 -6.047 2.178h0a4.558 4.558 0 0 1 -2.178 -6.047l1.382 -2.937a4.557 4.557 0 0 1 6.046 -2.178h0a4.543 4.543 0 0 1 2.511 3.191" fill="none" stroke="#000000" stroke-linecap="round" stroke-linejoin="round" stroke-width="1"></path><path d="M11.846 6.107a4.558 4.558 0 0 1 6.047 -2.178h0a4.558 4.558 0 0 1 2.178 6.046l-1.382 2.937a4.558 4.558 0 0 1 -6.047 2.178h0a4.533 4.533 0 0 1 -2.352 -2.619" fill="none" stroke="#000000" stroke-linecap="round" stroke-linejoin="round" stroke-width="1"></path></svg>