<svg xmlns="http://www.w3.org/2000/svg" fill="none" viewBox="0 0 24 24" id="Army-Man--Streamline-Ultimate"><desc>Army Man Streamline Icon: https://streamlinehq.com</desc><path stroke="#000000" stroke-linecap="round" stroke-linejoin="round" d="M5.30127 9.21875 5.25 8.25001c0 -1.37861 0.22406 -2.56252 0.62542 -3.55555" stroke-width="1"></path><path stroke="#000000" stroke-linecap="round" stroke-linejoin="round" d="M18.125 4.6955c0.4011 0.99281 0.625 2.17638 0.625 3.55451v0.99608" stroke-width="1"></path><path stroke="#000000" stroke-linecap="round" stroke-linejoin="round" d="M3 23.25c0.96165 -1.5165 2.2909 -2.7654 3.86432 -3.6307C8.43774 18.7539 10.2043 18.3002 12 18.3002c1.7957 0 3.5623 0.4537 5.1357 1.3191 1.5734 0.8653 2.9027 2.1142 3.8643 3.6307" stroke-width="1"></path><path stroke="#000000" stroke-linecap="round" stroke-linejoin="round" d="M6.84998 23.25v-3.625" stroke-width="1"></path><path stroke="#000000" stroke-linecap="round" stroke-linejoin="round" d="m17.25 23.25 0 -3.5703" stroke-width="1"></path><path stroke="#000000" stroke-linecap="round" stroke-linejoin="round" d="M5.25 16.2188v-4.1094" stroke-width="1"></path><path stroke="#000000" stroke-linecap="round" stroke-linejoin="round" d="M18.75 16.2188v-4.1094" stroke-width="1"></path><path stroke="#000000" stroke-linecap="round" stroke-linejoin="round" d="M17.25 11.2395c-0.1761 1.2539 -0.7992 2.402 -1.7548 3.2327 -0.9555 0.8308 -2.1791 1.2883 -3.4452 1.2883 -1.2662 0 -2.48973 -0.4575 -3.44527 -1.2883 -0.95553 -0.8307 -1.57871 -1.9788 -1.75475 -3.2327" stroke-width="1"></path><path stroke="#000000" stroke-linecap="round" stroke-linejoin="round" d="M7.82916 19.1645c0.22571 0.305 0.48529 0.5866 0.77555 0.8389 0.95553 0.8308 2.17909 1.2883 3.44529 1.2883 1.2661 0 2.4897 -0.4575 3.4452 -1.2883 0.2811 -0.2443 0.5334 -0.5161 0.754 -0.81" stroke-width="1"></path><path stroke="#000000" stroke-linecap="round" d="M7.27209 12.6851c-2.20027 -0.4378 -3.64367 -1.1727 -3.64367 -2.0054C3.62842 9.33781 7.3765 8.25 12 8.25s8.3716 1.08781 8.3716 2.4297c0 0.8183 -1.3939 1.5421 -3.5301 1.9824" stroke-width="1"></path><path stroke="#000000" stroke-linejoin="round" d="M5.51501 2.35905c0 -0.8809 0.71412 -1.595012 1.59502 -1.595012H10.405c0.8809 0 1.595 0.714112 1.595 1.595012 0 1.7618 -1.4282 3.19003 -3.19003 3.19003h-0.10493c-1.7618 0 -3.19003 -1.42823 -3.19003 -3.19003Z" stroke-width="1"></path><path stroke="#000000" stroke-linejoin="round" d="M12 2.35905c0 -0.8809 0.7141 -1.595012 1.595 -1.595012h3.295c0.8809 0 1.595 0.714112 1.595 1.595012 0 1.7618 -1.4282 3.19003 -3.19 3.19003h-0.105c-1.7618 0 -3.19 -1.42823 -3.19 -3.19003Z" stroke-width="1"></path></svg>