<svg viewBox="0 0 24 24" xmlns="http://www.w3.org/2000/svg" id="Crime-Man-Thug--Streamline-Ultimate"><desc>Crime Man Thug Streamline Icon: https://streamlinehq.com</desc><path d="M6.75 6a5.25 5.25 0 1 0 10.5 0 5.25 5.25 0 1 0 -10.5 0Z" fill="none" stroke="#000000" stroke-linecap="round" stroke-linejoin="round" stroke-width="1"></path><path d="M2.25 23.25a9.75 9.75 0 0 1 19.5 0" fill="none" stroke="#000000" stroke-linecap="round" stroke-linejoin="round" stroke-width="1"></path><path d="M8.25 14.249V15a3.75 3.75 0 0 0 7.5 0v-0.751" fill="none" stroke="#000000" stroke-linecap="round" stroke-linejoin="round" stroke-width="1"></path><path d="m6 15.564 0 7.686" fill="none" stroke="#000000" stroke-linecap="round" stroke-linejoin="round" stroke-width="1"></path><path d="m18 15.564 0 7.686" fill="none" stroke="#000000" stroke-linecap="round" stroke-linejoin="round" stroke-width="1"></path><path d="M14.25 10.744V7.5A4.211 4.211 0 0 0 12 6.75a4.211 4.211 0 0 0 -2.25 0.75v3.244" fill="none" stroke="#000000" stroke-linecap="round" stroke-linejoin="round" stroke-width="1"></path></svg>