<svg xmlns="http://www.w3.org/2000/svg" viewBox="0 0 24 24" id="Crime-Man-Riot-1--Streamline-Ultimate"><desc>Crime Man Riot 1 Streamline Icon: https://streamlinehq.com</desc><g><path d="M7.36 3.28A9.13 9.13 0 0 0 13.83 6a9.26 9.26 0 0 0 3.58 -0.72" fill="none" stroke="#000000" stroke-linecap="round" stroke-linejoin="round" stroke-width="1"></path><path d="m8.17 10.27 -0.71 -1a5.38 5.38 0 0 1 -1 -3.08 5.5 5.5 0 0 1 11 0 5.38 5.38 0 0 1 -1 3.08l-0.71 1" fill="none" stroke="#000000" stroke-linecap="round" stroke-linejoin="round" stroke-width="1"></path><path d="M21.75 23.25A9.74 9.74 0 0 0 18.51 16" fill="none" stroke="#000000" stroke-linecap="round" stroke-linejoin="round" stroke-width="1"></path><path d="M5.49 16a9.74 9.74 0 0 0 -3.24 7.26" fill="none" stroke="#000000" stroke-linecap="round" stroke-linejoin="round" stroke-width="1"></path><path d="M12 20.25c0.79 0 4.71 -4.68 4.71 -9.36 0 0 -3.14 -2.34 -4.71 -2.34s-4.71 2.34 -4.71 2.34c0 4.68 3.92 9.36 4.71 9.36Z" fill="none" stroke="#000000" stroke-linecap="round" stroke-linejoin="round" stroke-width="1"></path></g></svg>