<svg xmlns="http://www.w3.org/2000/svg" fill="none" viewBox="0 0 24 24" id="Police-Man-2--Streamline-Ultimate"><desc>Police Man 2 Streamline Icon: https://streamlinehq.com</desc><path stroke="#000000" stroke-linecap="round" stroke-linejoin="round" d="M7.62177 11.9189c0.25963 0.3922 0.57267 0.7505 0.93297 1.0638 0.95553 0.8307 2.17906 1.2882 3.44526 1.2882s2.4897 -0.4575 3.4452 -1.2882c0.3603 -0.3133 0.6734 -0.6716 0.933 -1.0638" stroke-width="1"></path><path stroke="#000000" stroke-linecap="round" stroke-linejoin="round" d="M2.25 23.25c0.83867 -1.8855 2.20606 -3.4874 3.93655 -4.6116S9.93639 16.9158 12 16.9158c2.0636 0 4.083 0.5984 5.8134 1.7226 1.7305 1.1242 3.0979 2.7261 3.9366 4.6116" stroke-width="1"></path><path stroke="#000000" stroke-linecap="round" stroke-linejoin="round" d="M12 23.25v-6.334" stroke-width="1"></path><path stroke="#000000" stroke-linecap="round" stroke-linejoin="round" d="M2.25 6.75c6.462 0.994 13.038 0.994 19.5 0" stroke-width="1"></path><path stroke="#000000" stroke-linecap="round" stroke-linejoin="round" d="m6.39301 7.25 1.235 -4.325c0.17927 -0.62676 0.55781 -1.17807 1.07836 -1.57051C9.22691 0.962056 9.86111 0.749855 10.513 0.75h2.974c0.6519 -0.000145 1.2861 0.212056 1.8066 0.60449 0.5206 0.39244 0.8991 0.94375 1.0784 1.57051l1.235 4.325" stroke-width="1"></path><path stroke="#000000" d="M12 4.125c-0.2071 0 -0.375 -0.16789 -0.375 -0.375s0.1679 -0.375 0.375 -0.375" stroke-width="1"></path><path stroke="#000000" d="M12 4.125c0.2071 0 0.375 -0.16789 0.375 -0.375s-0.1679 -0.375 -0.375 -0.375" stroke-width="1"></path><path stroke="#000000" stroke-linecap="round" stroke-linejoin="round" d="M16.125 23.25h1.5" stroke-width="1"></path><path stroke="#000000" stroke-linejoin="round" d="M7.60309 7.32812v0.91093c0 1.21417 0.98428 2.19845 2.19845 2.19845C11.0157 10.4375 12 9.45322 12 8.23905v-0.7703" stroke-width="1"></path><path stroke="#000000" stroke-linejoin="round" d="M12 7.46875v0.7703c0 1.21417 0.9843 2.19845 2.1985 2.19845 1.2141 0 2.1984 -0.98428 2.1984 -2.19845v-0.91093" stroke-width="1"></path></svg>