<svg viewBox="0 0 24 24" xmlns="http://www.w3.org/2000/svg" id="Fireworks-Rocket--Streamline-Ultimate"><desc>Fireworks Rocket Streamline Icon: https://streamlinehq.com</desc><path d="M21.034 2.183a0.717 0.717 0 0 0 -0.717 -0.717L13.941 0.75a0.716 0.716 0 0 0 -0.506 1.223l7.092 7.092a0.716 0.716 0 0 0 1.223 -0.506Z" fill="none" stroke="#000000" stroke-linecap="round" stroke-linejoin="round" stroke-width="1"></path><path d="m14.4486888476 2.9867613512 5.0657129804 5.0657129804 0 0 -6.8921697962 6.8921697962a1 1 0 0 1 -1.4142135624 0l-3.651499418 -3.651499418a1 1 0 0 1 0 -1.4142135624l6.8921697962 -6.8921697962 0 0Z" fill="none" stroke="#000000" stroke-linecap="round" stroke-linejoin="round" stroke-width="1"></path><path d="m9.382 13.118 -7.801 7.801" fill="none" stroke="#000000" stroke-linecap="round" stroke-linejoin="round" stroke-width="1"></path><path d="M10.9 14.638h0a3.582 3.582 0 0 0 0 5.066h0" fill="none" stroke="#000000" stroke-linecap="round" stroke-linejoin="round" stroke-width="1"></path><path d="m18.728 18.184 -1.52 1.52" fill="none" stroke="#000000" stroke-linecap="round" stroke-linejoin="round" stroke-width="1"></path><path d="m15.182 21.73 -1.52 1.52" fill="none" stroke="#000000" stroke-linecap="round" stroke-linejoin="round" stroke-width="1"></path><path d="m18.728 23.25 -1.52 -1.52" fill="none" stroke="#000000" stroke-linecap="round" stroke-linejoin="round" stroke-width="1"></path><path d="m15.182 19.704 -1.52 -1.52" fill="none" stroke="#000000" stroke-linecap="round" stroke-linejoin="round" stroke-width="1"></path></svg>