<svg xmlns="http://www.w3.org/2000/svg" viewBox="0 0 24 24" id="Piracy-Hanging-Punishment--Streamline-Ultimate"><desc>Piracy Hanging Punishment Streamline Icon: https://streamlinehq.com</desc><defs></defs><path d="M2.75 12.001a2.5 2.5 0 1 0 5 0 2.5 2.5 0 1 0 -5 0" fill="none" stroke="#000000" stroke-linecap="round" stroke-linejoin="round" stroke-width="1"></path><path d="M9.25 19.5v-2a3 3 0 0 0 -6 0v1.563" fill="none" stroke="#000000" stroke-linecap="round" stroke-linejoin="round" stroke-width="1"></path><path d="M3.25 19a1.5 1.5 0 0 0 3 0v-1" fill="none" stroke="#000000" stroke-linecap="round" stroke-linejoin="round" stroke-width="1"></path><path d="m9.25 23.251 0 -3.75" fill="none" stroke="#000000" stroke-linecap="round" stroke-linejoin="round" stroke-width="1"></path><path d="m6.25 18.501 0 4.75" fill="none" stroke="#000000" stroke-linecap="round" stroke-linejoin="round" stroke-width="1"></path><path d="m7.125 10.36 0 -5.611" fill="none" stroke="#000000" stroke-linecap="round" stroke-linejoin="round" stroke-width="1"></path><path d="m11.487 4.749 6.763 6.763" fill="none" stroke="#000000" stroke-linecap="round" stroke-linejoin="round" stroke-width="1"></path><path d="M18.25 23.251V5.749a1 1 0 0 0 -1 -1H3.75a2 2 0 0 1 0 -4h17.5a1 1 0 0 1 1 1v21.5" fill="none" stroke="#000000" stroke-linecap="round" stroke-linejoin="round" stroke-width="1"></path></svg>