<svg xmlns="http://www.w3.org/2000/svg" viewBox="0 0 24 24" id="Piracy-Content-Idea--Streamline-Ultimate"><desc>Piracy Content Idea Streamline Icon: https://streamlinehq.com</desc><defs></defs><path d="M23.25 16.625a4.875 4.875 0 1 0 -7.875 3.816v1.309a1.5 1.5 0 0 0 1.5 1.5h3a1.5 1.5 0 0 0 1.5 -1.5v-1.309a4.845 4.845 0 0 0 1.875 -3.816Z" fill="none" stroke="#000000" stroke-linecap="round" stroke-linejoin="round" stroke-width="1"></path><path d="M16.5 16.625a0.375 0.375 0 0 1 0.375 0.375" fill="none" stroke="#000000" stroke-linecap="round" stroke-linejoin="round" stroke-width="1"></path><path d="M16.125 17a0.375 0.375 0 0 1 0.375 -0.375" fill="none" stroke="#000000" stroke-linecap="round" stroke-linejoin="round" stroke-width="1"></path><path d="M16.5 17.375a0.375 0.375 0 0 1 -0.375 -0.375" fill="none" stroke="#000000" stroke-linecap="round" stroke-linejoin="round" stroke-width="1"></path><path d="M16.875 17a0.375 0.375 0 0 1 -0.375 0.375" fill="none" stroke="#000000" stroke-linecap="round" stroke-linejoin="round" stroke-width="1"></path><path d="M20.25 16.625a0.375 0.375 0 0 1 0.375 0.375" fill="none" stroke="#000000" stroke-linecap="round" stroke-linejoin="round" stroke-width="1"></path><path d="M19.875 17a0.375 0.375 0 0 1 0.375 -0.375" fill="none" stroke="#000000" stroke-linecap="round" stroke-linejoin="round" stroke-width="1"></path><path d="M20.25 17.375a0.375 0.375 0 0 1 -0.375 -0.375" fill="none" stroke="#000000" stroke-linecap="round" stroke-linejoin="round" stroke-width="1"></path><path d="M20.625 17a0.375 0.375 0 0 1 -0.375 0.375" fill="none" stroke="#000000" stroke-linecap="round" stroke-linejoin="round" stroke-width="1"></path><path d="m18.375 20.75 0 2.5" fill="none" stroke="#000000" stroke-linecap="round" stroke-linejoin="round" stroke-width="1"></path><path d="M14.494 8.087A5.5 5.5 0 1 0 5.888 14.1a2.754 2.754 0 0 1 1.07 2.177V17h3.312" fill="none" stroke="#000000" stroke-linecap="round" stroke-linejoin="round" stroke-width="1"></path><path d="m7 20 2.237 0" fill="none" stroke="#000000" stroke-linecap="round" stroke-linejoin="round" stroke-width="1"></path><path d="m9.25 20 0 2" fill="none" stroke="#000000" stroke-linecap="round" stroke-linejoin="round" stroke-width="1"></path><path d="m0.75 9.25 1 0" fill="none" stroke="#000000" stroke-linecap="round" stroke-linejoin="round" stroke-width="1"></path><path d="m3.093 3.093 0.854 0.854" fill="none" stroke="#000000" stroke-linecap="round" stroke-linejoin="round" stroke-width="1"></path><path d="m9.25 0.75 0 1" fill="none" stroke="#000000" stroke-linecap="round" stroke-linejoin="round" stroke-width="1"></path><path d="m15.407 3.093 -0.854 0.854" fill="none" stroke="#000000" stroke-linecap="round" stroke-linejoin="round" stroke-width="1"></path></svg>