<svg xmlns="http://www.w3.org/2000/svg" fill="none" viewBox="0 0 24 24" id="Piracy-Flag--Streamline-Ultimate"><desc>Piracy Flag Streamline Icon: https://streamlinehq.com</desc><path stroke="#000000" d="M9.75 12.307c-0.27614 0 -0.5 -0.2239 -0.5 -0.5s0.22386 -0.5 0.5 -0.5" stroke-width="1"></path><path stroke="#000000" d="M9.75 12.307c0.2761 0 0.5 -0.2239 0.5 -0.5s-0.2239 -0.5 -0.5 -0.5" stroke-width="1"></path><path stroke="#000000" d="M14.25 12.307c-0.2761 0 -0.5 -0.2239 -0.5 -0.5s0.2239 -0.5 0.5 -0.5" stroke-width="1"></path><path stroke="#000000" d="M14.25 12.307c0.2761 0 0.5 -0.2239 0.5 -0.5s-0.2239 -0.5 -0.5 -0.5" stroke-width="1"></path><path stroke="#000000" stroke-linecap="round" stroke-linejoin="round" d="M12 6.354c-1.4587 0 -2.85764 0.57947 -3.88909 1.61092S6.5 10.3953 6.5 11.854v0.846c0 0.3333 0.06565 0.6633 0.19319 0.9713 0.12755 0.3079 0.3145 0.5877 0.55017 0.8233 0.23568 0.2357 0.51547 0.4227 0.82339 0.5502 0.30792 0.1276 0.63796 0.1932 0.97125 0.1932h0.424v1.175c-0.00013 0.1112 0.02165 0.2213 0.06411 0.3241 0.04246 0.1027 0.10475 0.1961 0.18332 0.2748 0.07858 0.0786 0.17188 0.141 0.27459 0.1836 0.10268 0.0426 0.21278 0.0645 0.32398 0.0645h3.384c0.1112 0 0.2213 -0.0219 0.324 -0.0645 0.1027 -0.0426 0.196 -0.105 0.2746 -0.1836 0.0785 -0.0787 0.1408 -0.1721 0.1833 -0.2748 0.0424 -0.1028 0.0642 -0.2129 0.0641 -0.3241v-1.175h0.424c0.3333 0 0.6633 -0.0656 0.9713 -0.1932 0.3079 -0.1275 0.5877 -0.3145 0.8233 -0.5502 0.2357 -0.2356 0.4227 -0.5154 0.5502 -0.8233 0.1276 -0.308 0.1932 -0.638 0.1932 -0.9713v-0.846c0 -1.4587 -0.5795 -2.85763 -1.6109 -3.88908C14.8576 6.93347 13.4587 6.354 12 6.354v0Z" stroke-width="1"></path><path stroke="#000000" stroke-linecap="round" stroke-linejoin="round" d="M12 17.26v-2.022" stroke-width="1"></path><path stroke="#000000" stroke-linecap="round" stroke-linejoin="round" d="m4.81201 6.00195 2.587 2.588" stroke-width="1"></path><path stroke="#000000" stroke-linecap="round" stroke-linejoin="round" d="m19.233 6.00195 -2.588 2.588" stroke-width="1"></path><path stroke="#000000" stroke-linecap="round" stroke-linejoin="round" d="m4.81201 17.998 2.587 -2.588" stroke-width="1"></path><path stroke="#000000" stroke-linecap="round" stroke-linejoin="round" d="m19.233 17.998 -2.588 -2.588" stroke-width="1"></path><path stroke="#000000" stroke-linecap="round" stroke-linejoin="round" d="M23.25 21.735c-0.0001 0.0447 -0.0109 0.0889 -0.0316 0.1286 -0.0207 0.0397 -0.0506 0.0738 -0.0873 0.0995s-0.079 0.0422 -0.1234 0.0481c-0.0444 0.0059 -0.0896 0.001 -0.1317 -0.0142 -3.3113 -1.2041 -6.9407 -1.2041 -10.252 0l-0.962 0.35c-3.18086 1.1561 -6.65914 1.2029 -9.87 0.133l-0.358 -0.119c-0.19921 -0.0664 -0.37247 -0.1938 -0.495242 -0.3641 -0.122769 -0.1703 -0.188809 -0.375 -0.188758 -0.5849V2.79996c0.000084 -0.11075 0.026445 -0.2199 0.076917 -0.31848 0.050473 -0.09858 0.123616 -0.18378 0.213423 -0.2486 0.0898 -0.06481 0.1937 -0.10739 0.30316 -0.12424 0.10946 -0.01685 0.22136 -0.00749 0.3265 0.02732 3.2855 1.09415 6.84837 1.01784 10.084 -0.216l0.492 -0.187C15.482 0.5001 19.0448 0.424843 22.33 1.51996l0.236 0.079c0.199 0.06629 0.3722 0.19351 0.4949 0.36364 0.1228 0.17013 0.1889 0.37456 0.1891 0.58436V21.735Z" stroke-width="1"></path></svg>