<svg xmlns="http://www.w3.org/2000/svg" viewBox="0 0 24 24" id="Piracy-Content-Criminal--Streamline-Ultimate"><desc>Piracy Content Criminal Streamline Icon: https://streamlinehq.com</desc><defs></defs><path d="M6.443 18.999a0.75 0.75 0 1 0 1.5 0 0.75 0.75 0 1 0 -1.5 0" fill="none" stroke="#000000" stroke-linecap="round" stroke-linejoin="round" stroke-width="1"></path><path d="M14.443 23.251h-10a1 1 0 0 1 -0.936 -0.649L0.75 14.748h10.693Z" fill="none" stroke="#000000" stroke-linecap="round" stroke-linejoin="round" stroke-width="1"></path><path d="m14.443 23.251 5.576 0" fill="none" stroke="#000000" stroke-linecap="round" stroke-linejoin="round" stroke-width="1"></path><path d="M12.75 6a5.25 5.25 0 1 0 10.5 0 5.25 5.25 0 1 0 -10.5 0" fill="none" stroke="#000000" stroke-linecap="round" stroke-linejoin="round" stroke-width="1"></path><path d="M14.517 15.1a9.765 9.765 0 0 1 8.718 0.376" fill="none" stroke="#000000" stroke-linecap="round" stroke-linejoin="round" stroke-width="1"></path><path d="M22.75 7.005c0 0.688 -0.308 1.245 -1 1.245h-3.256a1.244 1.244 0 0 1 -1.244 -1.245V4h4.255a1.245 1.245 0 0 1 1.245 1.244Z" fill="none" stroke="#000000" stroke-linecap="round" stroke-linejoin="round" stroke-width="1"></path><path d="m13.754 2.915 3.496 1.979" fill="none" stroke="#000000" stroke-linecap="round" stroke-linejoin="round" stroke-width="1"></path><path d="M15.546 14.71a2.988 2.988 0 0 0 5.906 0.014" fill="none" stroke="#000000" stroke-linecap="round" stroke-linejoin="round" stroke-width="1"></path></svg>