<svg xmlns="http://www.w3.org/2000/svg" viewBox="0 0 24 24" id="Piracy-Hook-Hand--Streamline-Ultimate"><desc>Piracy Hook Hand Streamline Icon: https://streamlinehq.com</desc><defs></defs><path d="M16.5 19.251h-9V16.5a4.5 4.5 0 1 1 9 0Z" fill="none" stroke="#000000" stroke-linecap="round" stroke-linejoin="round" stroke-width="1"></path><path d="M18.75 21.251a2 2 0 0 1 -2 2h-9.5a2 2 0 0 1 0 -4h9.5a2 2 0 0 1 2 2Z" fill="none" stroke="#000000" stroke-linecap="round" stroke-linejoin="round" stroke-width="1"></path><path d="M10.25 12.354v-1.723A1.632 1.632 0 0 1 11.882 9a2.58 2.58 0 0 0 2.59 -2.118 2.542 2.542 0 0 0 -4.027 -2.405A2.347 2.347 0 0 0 9.5 6.51c-0.016 0.777 -1.75 2.739 -1.75 2.739S6.25 7.19 6.25 6.5A5.757 5.757 0 0 1 12.082 0.749a5.826 5.826 0 0 1 5.656 5.368 5.761 5.761 0 0 1 -4.62 6.024" fill="none" stroke="#000000" stroke-linecap="round" stroke-linejoin="round" stroke-width="1"></path></svg>