<svg viewBox="0 0 24 24" xmlns="http://www.w3.org/2000/svg" id="Insurance-Cheap--Streamline-Ultimate"><desc>Insurance Cheap Streamline Icon: https://streamlinehq.com</desc><path d="M23.25 4.5a0.75 0.75 0 0 0 -0.75 -0.75h-2.25V1.5a0.75 0.75 0 0 0 -0.75 -0.75H18a0.75 0.75 0 0 0 -0.75 0.75v2.25H15a0.75 0.75 0 0 0 -0.75 0.75V6a0.75 0.75 0 0 0 0.75 0.75h2.25V9a0.75 0.75 0 0 0 0.75 0.75h1.5a0.75 0.75 0 0 0 0.75 -0.75V6.75h2.25a0.75 0.75 0 0 0 0.75 -0.75Z" fill="none" stroke="#000000" stroke-linecap="round" stroke-linejoin="round" stroke-width="1"></path><path d="M0.75 21.75 23.25 15" fill="none" stroke="#000000" stroke-linecap="round" stroke-linejoin="round" stroke-width="1"></path><path d="m12 18.375 3.433 4.875 -7.5 0" fill="none" stroke="#000000" stroke-linecap="round" stroke-linejoin="round" stroke-width="1"></path><path d="M1.5 13.5a2.25 2.25 0 1 0 2.25 -2.25A2.25 2.25 0 1 1 6 9" fill="none" stroke="#000000" stroke-linecap="round" stroke-linejoin="round" stroke-width="1"></path><path d="m3.75 5.25 0 1.5" fill="none" stroke="#000000" stroke-linecap="round" stroke-linejoin="round" stroke-width="1"></path><path d="m3.75 15.75 0 1.5" fill="none" stroke="#000000" stroke-linecap="round" stroke-linejoin="round" stroke-width="1"></path></svg>