<svg viewBox="0 0 24 24" xmlns="http://www.w3.org/2000/svg" id="Insurance-Head--Streamline-Ultimate"><desc>Insurance Head Streamline Icon: https://streamlinehq.com</desc><path d="M4.6 23.25v-6.265A9.365 9.365 0 0 1 10.974 0.75c7.139 0 8.68 5.878 11.225 12.48a0.751 0.751 0 0 1 -0.7 1.02H19.6v3a3 3 0 0 1 -3 3h-1.5v3" fill="none" stroke="#000000" stroke-linecap="round" stroke-linejoin="round" stroke-width="1"></path><path d="M16.6 9a0.75 0.75 0 0 0 -0.75 -0.75H13.6V6a0.75 0.75 0 0 0 -0.75 -0.75h-3A0.75 0.75 0 0 0 9.1 6v2.25H6.849A0.75 0.75 0 0 0 6.1 9v3a0.75 0.75 0 0 0 0.75 0.75H9.1V15a0.75 0.75 0 0 0 0.75 0.75h3a0.75 0.75 0 0 0 0.75 -0.75v-2.25h2.25a0.75 0.75 0 0 0 0.75 -0.75Z" fill="none" stroke="#000000" stroke-linecap="round" stroke-linejoin="round" stroke-width="1"></path></svg>