<svg viewBox="0 0 24 24" xmlns="http://www.w3.org/2000/svg" id="Insurance-Umbrella-Heart--Streamline-Ultimate"><desc>Insurance Umbrella Heart Streamline Icon: https://streamlinehq.com</desc><path d="M23.25 13.5a11.25 11.25 0 0 0 -22.5 0l0.811 -0.676a4.707 4.707 0 0 1 6.689 0.676 5.3 5.3 0 0 1 7.5 0 4.707 4.707 0 0 1 6.689 -0.676Z" fill="none" stroke="#000000" stroke-linecap="round" stroke-linejoin="round" stroke-width="1"></path><path d="M12 11.947v9.8a1.5 1.5 0 0 1 -3 0" fill="none" stroke="#000000" stroke-linecap="round" stroke-linejoin="round" stroke-width="1"></path><path d="m12 2.25 0 -1.5" fill="none" stroke="#000000" stroke-linecap="round" stroke-linejoin="round" stroke-width="1"></path><path d="M22.68 16.6a1.9 1.9 0 0 0 -2.751 0l-1.179 1.214 -1.179 -1.214a1.9 1.9 0 0 0 -2.751 0 2.06 2.06 0 0 0 0 2.845l3.511 3.631a0.579 0.579 0 0 0 0.838 0l3.511 -3.636a2.06 2.06 0 0 0 0 -2.84Z" fill="none" stroke="#000000" stroke-linecap="round" stroke-linejoin="round" stroke-width="1"></path></svg>