<svg viewBox="0 0 24 24" xmlns="http://www.w3.org/2000/svg" id="Color-Tube--Streamline-Ultimate"><desc>Color Tube Streamline Icon: https://streamlinehq.com</desc><path d="m10.138 18.465 -6.111 -6.111 7.638 -8.656 7.129 7.129 -8.656 7.638z" fill="none" stroke="#000000" stroke-linecap="round" stroke-linejoin="round" stroke-width="1"></path><path d="m4.762 19.294 -1.687 -1.758 0.952 -5.182 6.111 6.111 -5.376 0.829z" fill="none" stroke="#000000" stroke-linecap="round" stroke-linejoin="round" stroke-width="1"></path><path d="m21.3 7.22 -6.028 -6.026a1.5 1.5 0 0 0 -2.121 0l-1.464 1.464a0.75 0.75 0 0 0 0 1.061l7.086 7.087a0.75 0.75 0 0 0 1.061 0L21.3 9.341a1.5 1.5 0 0 0 0 -2.121Z" fill="none" stroke="#000000" stroke-linecap="round" stroke-linejoin="round" stroke-width="1"></path><path d="m9.119 11.336 2.037 2.037" fill="none" stroke="#000000" stroke-linecap="round" stroke-linejoin="round" stroke-width="1"></path><path d="M2.262 21.745a1.469 1.469 0 0 0 1.5 1.5c2.25 0 5.25 -1.5 8.25 -1.5a9.507 9.507 0 0 1 4.5 1.5" fill="none" stroke="#000000" stroke-linecap="round" stroke-linejoin="round" stroke-width="1"></path></svg>