<svg xmlns="http://www.w3.org/2000/svg" viewBox="0 0 24 24" id="Color-Tubes--Streamline-Ultimate"><desc>Color Tubes Streamline Icon: https://streamlinehq.com</desc><g><path d="M5.25 6h3.5s1.5 0 1.5 1.5v14.25s0 1.5 -1.5 1.5h-3.5s-1.5 0 -1.5 -1.5V7.5s0 -1.5 1.5 -1.5" fill="none" stroke="#000000" stroke-linecap="round" stroke-linejoin="round" stroke-width="1"></path><path d="M3.75 10h6.5v9h-6.5Z" fill="none" stroke="#000000" stroke-linecap="round" stroke-linejoin="round" stroke-width="1"></path><path d="M5.25 6h3.5a1.56 1.56 0 0 1 0.57 0.11L8 0.75H6L4.68 6.11A1.56 1.56 0 0 1 5.25 6Z" fill="none" stroke="#000000" stroke-linecap="round" stroke-linejoin="round" stroke-width="1"></path><path d="M15.25 6h3.5s1.5 0 1.5 1.5v14.25s0 1.5 -1.5 1.5h-3.5s-1.5 0 -1.5 -1.5V7.5s0 -1.5 1.5 -1.5" fill="none" stroke="#000000" stroke-linecap="round" stroke-linejoin="round" stroke-width="1"></path><path d="M13.75 10h6.5v9h-6.5Z" fill="none" stroke="#000000" stroke-linecap="round" stroke-linejoin="round" stroke-width="1"></path><path d="M15.25 6h3.5a1.56 1.56 0 0 1 0.57 0.11L18 0.75h-2l-1.32 5.36a1.56 1.56 0 0 1 0.57 -0.11Z" fill="none" stroke="#000000" stroke-linecap="round" stroke-linejoin="round" stroke-width="1"></path></g></svg>