<svg xmlns="http://www.w3.org/2000/svg" viewBox="0 0 24 24" id="Color-Picker--Streamline-Ultimate"><desc>Color Picker Streamline Icon: https://streamlinehq.com</desc><g><path d="m3.34 17.75 -1.57 3a1.68 1.68 0 0 0 0.33 2h0a1.78 1.78 0 0 0 2.48 0h0a1.68 1.68 0 0 0 0.33 -2Z" fill="none" stroke="#000000" stroke-linecap="round" stroke-linejoin="round" stroke-width="1"></path><path d="M21.09 2.07a4.49 4.49 0 0 0 -6.36 0L8.36 8.43a4.49 4.49 0 0 0 -0.86 5.11l-1.79 1.79a0.75 0.75 0 0 0 0 1.06l1.06 1.06a0.75 0.75 0 0 0 1.06 0l1.79 -1.79a4.49 4.49 0 0 0 5.11 -0.86l6.36 -6.37a4.49 4.49 0 0 0 0 -6.36Z" fill="none" stroke="#000000" stroke-linecap="round" stroke-linejoin="round" stroke-width="1"></path><path d="m11.16 3 9 9" fill="none" stroke="#000000" stroke-linecap="round" stroke-linejoin="round" stroke-width="1"></path><path d="m10.49 6.31 2.65 2.65" fill="none" stroke="#000000" stroke-linecap="round" stroke-linejoin="round" stroke-width="1"></path><path d="m8.36 8.43 2.66 2.65" fill="none" stroke="#000000" stroke-linecap="round" stroke-linejoin="round" stroke-width="1"></path></g></svg>