<svg xmlns="http://www.w3.org/2000/svg" viewBox="0 0 24 24" id="Color-Bucket-1--Streamline-Ultimate"><desc>Color Bucket 1 Streamline Icon: https://streamlinehq.com</desc><g><path d="M10.56 4.22a1.21 1.21 0 0 0 -1.74 0l-7 7a3.71 3.71 0 0 0 0 5.23l3.49 3.49a3.7 3.7 0 0 0 5.24 0l5.67 -5.67 2.66 -0.27a0.62 0.62 0 0 0 0.37 -1.05Z" fill="none" stroke="#000000" stroke-linecap="round" stroke-linejoin="round" stroke-width="1"></path><path d="m21 16 -2 4a2.23 2.23 0 0 0 0.42 2.6h0a2.25 2.25 0 0 0 3.18 0h0A2.23 2.23 0 0 0 23 20Z" fill="none" stroke="#000000" stroke-linecap="round" stroke-linejoin="round" stroke-width="1"></path><path d="M3.5 9.52V3.75a3 3 0 0 1 3 -3h0a3 3 0 0 1 3 3V12" fill="none" stroke="#000000" stroke-linecap="round" stroke-linejoin="round" stroke-width="1"></path></g></svg>