<svg xmlns="http://www.w3.org/2000/svg" viewBox="0 0 24 24" id="Color-Painting-Palette--Streamline-Ultimate"><desc>Color Painting Palette Streamline Icon: https://streamlinehq.com</desc><g><path d="M16 15.62c0.3 3.86 6 1.21 5.56 2.54 -2.52 7.48 -12.64 5.69 -17 1.17A10.9 10.9 0 0 1 4.64 4C8.87 -0.19 16 -0.5 19.93 4c7.63 8.86 -4.17 8.18 -3.93 11.62Z" fill="none" stroke="#000000" stroke-linecap="round" stroke-linejoin="round" stroke-width="1"></path><path d="M5.67 13.31a1.52 1.52 0 1 0 3.04 0 1.52 1.52 0 1 0 -3.04 0" fill="none" stroke="#000000" stroke-linecap="round" stroke-linejoin="round" stroke-width="1"></path><path d="M9.43 18.14a1.52 1.52 0 1 0 3.04 0 1.52 1.52 0 1 0 -3.04 0" fill="none" stroke="#000000" stroke-linecap="round" stroke-linejoin="round" stroke-width="1"></path><path d="M13.07 5.91a1.52 1.52 0 1 0 3.04 0 1.52 1.52 0 1 0 -3.04 0" fill="none" stroke="#000000" stroke-linecap="round" stroke-linejoin="round" stroke-width="1"></path><path d="M6.62 7.52a1.52 1.52 0 1 0 3.04 0 1.52 1.52 0 1 0 -3.04 0" fill="none" stroke="#000000" stroke-linecap="round" stroke-linejoin="round" stroke-width="1"></path></g></svg>