<svg viewBox="0 0 24 24" xmlns="http://www.w3.org/2000/svg" id="Basecamp-Logo--Streamline-Ultimate"><desc>Basecamp Logo Streamline Icon: https://streamlinehq.com</desc><path d="M2.57 18.88a13.59 13.59 0 0 0 7.22 2.4 25.6 25.6 0 0 0 4.79 0c5.43 -0.57 8.56 -3.32 8.66 -4.59a3.73 3.73 0 0 0 -0.1 -1c-1.92 -9.49 -7.42 -13 -10.89 -13h-0.69C6.11 2.62 0.75 11.06 0.75 16.48c0 0.81 1.19 1.91 1.82 2.4Z" fill="none" stroke="#000000" stroke-linecap="round" stroke-linejoin="round" stroke-width="1"></path><path d="M2.6 18.86c-0.4 -0.57 -0.28 -0.66 -0.22 -0.9 0.34 -1.44 2.54 -5.39 4 -5.86s2.16 2.25 3.62 2.16c1.27 -0.08 3.79 -4.53 4.77 -4.85a0.65 0.65 0 0 1 0.48 0c1 0.45 3.53 2.85 6 7.23a2.46 2.46 0 0 1 0.44 2" fill="none" stroke="#000000" stroke-linecap="round" stroke-linejoin="round" stroke-width="1"></path></svg>