<svg xmlns="http://www.w3.org/2000/svg" viewBox="0 0 24 24" id="Google-Tag-Manager-Logo--Streamline-Ultimate"><desc>Google Tag Manager Logo Streamline Icon: https://streamlinehq.com</desc><g><path d="m12 9.07 4.4 -4.41" fill="none" stroke="#000000" stroke-linecap="round" stroke-linejoin="round" stroke-width="1"></path><path d="m12 14.93 -4.4 4.41" fill="none" stroke="#000000" stroke-linecap="round" stroke-linejoin="round" stroke-width="1"></path><path d="M23.25 12a1.14 1.14 0 0 1 -0.35 0.83L12.83 22.9a1.16 1.16 0 0 1 -1.66 0L1.1 12.83a1.16 1.16 0 0 1 0 -1.66L11.17 1.1a1.16 1.16 0 0 1 1.66 0L22.9 11.17a1.14 1.14 0 0 1 0.35 0.83Z" fill="none" stroke="#000000" stroke-linecap="round" stroke-linejoin="round" stroke-width="1"></path><path d="m9.0589985387 12 2.934493142 -2.934493142L14.9279848226 12l-2.934493142 2.934493142Z" fill="none" stroke="#000000" stroke-linecap="round" stroke-linejoin="round" stroke-width="1"></path></g></svg>