<svg xmlns="http://www.w3.org/2000/svg" viewBox="0 0 24 24" id="Google-Drive-Logo-1--Streamline-Ultimate"><desc>Google Drive Logo 1 Streamline Icon: https://streamlinehq.com</desc><g><path d="m0.75 15.08 22.5 0" fill="none" stroke="#000000" stroke-linecap="round" stroke-linejoin="round" stroke-width="1"></path><path d="M23 14.05a2.05 2.05 0 0 1 0 2.06L20.15 21a2 2 0 0 1 -1.77 1H5.62a2 2 0 0 1 -1.77 -1L1 16.11a2.05 2.05 0 0 1 0 -2.06L7.4 3a2.06 2.06 0 0 1 1.78 -1h5.64a2.06 2.06 0 0 1 1.78 1Z" fill="none" stroke="#000000" stroke-linecap="round" stroke-linejoin="round" stroke-width="1"></path><path d="M15.85 2.26 4.6 21.74" fill="none" stroke="#000000" stroke-linecap="round" stroke-linejoin="round" stroke-width="1"></path><path d="M8.16 2.26 19.4 21.74" fill="none" stroke="#000000" stroke-linecap="round" stroke-linejoin="round" stroke-width="1"></path></g></svg>