<svg xmlns="http://www.w3.org/2000/svg" viewBox="0 0 24 24" id="Microsoft-Sharepoint-Logo--Streamline-Ultimate"><desc>Microsoft Sharepoint Logo Streamline Icon: https://streamlinehq.com</desc><g><path d="M4.83 6.75a6.5 6.5 0 0 1 12.92 1" fill="none" stroke="#000000" stroke-linecap="round" stroke-linejoin="round" stroke-width="1"></path><path d="M12.75 10.26a5.75 5.75 0 1 1 4.75 9 5.29 5.29 0 0 1 -0.9 -0.07" fill="none" stroke="#000000" stroke-linecap="round" stroke-linejoin="round" stroke-width="1"></path><path d="M12.75 13.31a4.75 4.75 0 1 1 -5.44 5.44" fill="none" stroke="#000000" stroke-linecap="round" stroke-linejoin="round" stroke-width="1"></path><path d="M1.75 6.75h10s1 0 1 1v10s0 1 -1 1h-10s-1 0 -1 -1v-10s0 -1 1 -1" fill="none" stroke="#000000" stroke-linecap="round" stroke-linejoin="round" stroke-width="1"></path><path d="M5.25 15.25c2.88 1.83 4.82 -1.68 1.5 -2.5s-1.38 -4.33 1.5 -2.5" fill="none" stroke="#000000" stroke-linecap="round" stroke-linejoin="round" stroke-width="1"></path></g></svg>