<svg xmlns="http://www.w3.org/2000/svg" viewBox="0 0 24 24" id="Nuke-Logo--Streamline-Ultimate"><desc>Nuke Logo Streamline Icon: https://streamlinehq.com</desc><g><path d="M0.75 12a11.25 11.25 0 1 0 22.5 0 11.25 11.25 0 1 0 -22.5 0" fill="none" stroke="#000000" stroke-linecap="round" stroke-linejoin="round" stroke-width="1"></path><path d="M14.2592292399 9.622801025a0.82 0.59 54.55 1 0 0.9612539213 -0.6843908962 0.82 0.59 54.55 1 0 -0.9612539213 0.6843908961" fill="none" stroke="#000000" stroke-linecap="round" stroke-linejoin="round" stroke-width="1"></path><path d="M17.82 12.32a0.9 0.9 0 0 1 -0.27 -0.63v-1.35a0.89 0.89 0 0 1 0.9 -0.89h1.4a0.44 0.44 0 0 0 0.37 -0.19 0.48 0.48 0 0 0 0.05 -0.42A8.48 8.48 0 0 0 15.6 4a0.43 0.43 0 0 0 -0.38 0 0.46 0.46 0 0 0 -0.23 0.31l-0.29 1.57a0.89 0.89 0 0 1 -0.88 0.73h-1.2a0.89 0.89 0 0 1 -0.62 -0.25L9.84 4.28a0.9 0.9 0 0 0 -1 -0.17A8.53 8.53 0 0 0 4.4 8.84a0.48 0.48 0 0 0 0 0.42 0.45 0.45 0 0 0 0.37 0.19h5.53a0.89 0.89 0 0 1 0.7 0.25l3 3a0.89 0.89 0 0 1 0.27 0.65l-0.12 6.19a0.44 0.44 0 0 0 0.17 0.37 0.47 0.47 0 0 0 0.4 0.07 8.52 8.52 0 0 0 5.31 -4.61 0.89 0.89 0 0 0 -0.18 -1Z" fill="none" stroke="#000000" stroke-linecap="round" stroke-linejoin="round" stroke-width="1"></path></g></svg>