<svg xmlns="http://www.w3.org/2000/svg" viewBox="0 0 24 24" id="Proxmox-Logo--Streamline-Ultimate"><desc>Proxmox Logo Streamline Icon: https://streamlinehq.com</desc><g><path d="M15 2.6 11.87 6 8.76 2.6c-1.79 -2 -3.68 0.12 -3.68 0.12l6.79 7.44 6.79 -7.44S16.77 0.64 15 2.6Z" fill="none" stroke="#000000" stroke-linecap="round" stroke-linejoin="round" stroke-width="1"></path><path d="M15 21.4 11.87 18l-3.11 3.4c-1.79 2 -3.68 -0.12 -3.68 -0.12l6.79 -7.44 6.79 7.44s-1.89 2.08 -3.66 0.12Z" fill="none" stroke="#000000" stroke-linecap="round" stroke-linejoin="round" stroke-width="1"></path><path d="M5.06 6.4C3.23 4.43 0.75 6.33 0.75 6.33L6 12 0.75 17.72s2.48 1.9 4.31 -0.07L10.2 12Z" fill="none" stroke="#000000" stroke-linecap="round" stroke-linejoin="round" stroke-width="1"></path><path d="M18.94 6.4c1.83 -2 4.31 -0.07 4.31 -0.07L18.05 12l5.2 5.69s-2.48 1.9 -4.31 -0.07L13.8 12Z" fill="none" stroke="#000000" stroke-linecap="round" stroke-linejoin="round" stroke-width="1"></path></g></svg>