<svg xmlns="http://www.w3.org/2000/svg" fill="none" viewBox="0 0 24 24" id="Whitesource-Logo-2--Streamline-Ultimate"><desc>Whitesource Logo 2 Streamline Icon: https://streamlinehq.com</desc><path stroke="#000000" stroke-linecap="round" stroke-linejoin="round" d="M20.79 15.9999v-3.1h-5.32c0.0986 0.3242 0.1491 0.6611 0.15 1 0 0.9601 -0.3814 1.8808 -1.0603 2.5597 -0.6788 0.6789 -1.5996 1.0603 -2.5597 1.0603s-1.8808 -0.3814 -2.5597 -1.0603c-0.67889 -0.6789 -1.06028 -1.5996 -1.06028 -2.5597 0.00091 -0.3389 0.05144 -0.6758 0.15 -1h-5.32v3.1h2.25c0.15759 0.7085 0.4349 1.3848 0.82 2l-1.59 1.58 2.19 2.19 1.59 -1.59c0.61861 0.3784 1.29383 0.6552 1.99998 0.82v2.25h3.1v-2.25c0.7062 -0.1648 1.3814 -0.4416 2 -0.82l1.59 1.59 2.19 -2.19 -1.63 -1.58c0.3851 -0.6152 0.6624 -1.2915 0.82 -2h2.25Z" stroke-width="1"></path><path stroke="#000000" stroke-linecap="round" stroke-linejoin="round" d="M4.23999 10.0668V9.00006c0 -2.05808 0.81757 -4.03187 2.27285 -5.48715 0.69239 -0.69239 1.50214 -1.24042 2.3825 -1.62473" stroke-width="1"></path><path stroke="#000000" stroke-linecap="round" stroke-linejoin="round" d="M19.76 10.0602V9.00016c0 -2.05808 -0.8176 -4.03187 -2.2729 -5.48715 -0.7096 -0.70964 -1.5425 -1.26764 -2.4484 -1.65315" stroke-width="1"></path><path stroke="#000000" stroke-linecap="round" stroke-linejoin="round" d="M3.21002 10.0601H20.79" stroke-width="1"></path><path stroke="#000000" stroke-linecap="round" stroke-linejoin="round" d="M8.90002 6.99979v-5.22c0 -0.26522 0.10536 -0.51958 0.2929 -0.70711 0.18753 -0.187538 0.44189 -0.292895 0.7071 -0.292895H14.04c0.2652 0 0.5196 0.105357 0.7071 0.292895 0.1876 0.18753 0.2929 0.44189 0.2929 0.70711v5.22" stroke-width="1"></path></svg>