<svg xmlns="http://www.w3.org/2000/svg" viewBox="0 0 24 24" id="Layout-Array--Streamline-Ultimate"><desc>Layout Array Streamline Icon: https://streamlinehq.com</desc><defs></defs><title>layout-array</title><path d="M8.25 0.747h7.5s1.5 0 1.5 1.5v19.5s0 1.5 -1.5 1.5h-7.5s-1.5 0 -1.5 -1.5v-19.5s0 -1.5 1.5 -1.5" fill="none" stroke="#000000" stroke-linecap="round" stroke-linejoin="round" stroke-width="1"></path><path d="M1.5 0.747H3s0.75 0 0.75 0.75v21s0 0.75 -0.75 0.75H1.5s-0.75 0 -0.75 -0.75v-21s0 -0.75 0.75 -0.75" fill="none" stroke="#000000" stroke-linecap="round" stroke-linejoin="round" stroke-width="1"></path><path d="M21 0.747h1.5s0.75 0 0.75 0.75v21s0 0.75 -0.75 0.75H21s-0.75 0 -0.75 -0.75v-21s0 -0.75 0.75 -0.75" fill="none" stroke="#000000" stroke-linecap="round" stroke-linejoin="round" stroke-width="1"></path></svg>