<svg xmlns="http://www.w3.org/2000/svg" viewBox="0 0 24 24" id="Layout-Module--Streamline-Ultimate"><desc>Layout Module Streamline Icon: https://streamlinehq.com</desc><defs></defs><title>layout-module</title><path d="M2.25 0.747h1.5s1.5 0 1.5 1.5v1.5s0 1.5 -1.5 1.5h-1.5s-1.5 0 -1.5 -1.5v-1.5s0 -1.5 1.5 -1.5" fill="none" stroke="#000000" stroke-linecap="round" stroke-linejoin="round" stroke-width="1"></path><path d="M11.25 0.747h1.5s1.5 0 1.5 1.5v1.5s0 1.5 -1.5 1.5h-1.5s-1.5 0 -1.5 -1.5v-1.5s0 -1.5 1.5 -1.5" fill="none" stroke="#000000" stroke-linecap="round" stroke-linejoin="round" stroke-width="1"></path><path d="M20.25 0.747h1.5s1.5 0 1.5 1.5v1.5s0 1.5 -1.5 1.5h-1.5s-1.5 0 -1.5 -1.5v-1.5s0 -1.5 1.5 -1.5" fill="none" stroke="#000000" stroke-linecap="round" stroke-linejoin="round" stroke-width="1"></path><path d="M2.25 9.747h1.5s1.5 0 1.5 1.5v1.5s0 1.5 -1.5 1.5h-1.5s-1.5 0 -1.5 -1.5v-1.5s0 -1.5 1.5 -1.5" fill="none" stroke="#000000" stroke-linecap="round" stroke-linejoin="round" stroke-width="1"></path><path d="M11.25 9.747h1.5s1.5 0 1.5 1.5v1.5s0 1.5 -1.5 1.5h-1.5s-1.5 0 -1.5 -1.5v-1.5s0 -1.5 1.5 -1.5" fill="none" stroke="#000000" stroke-linecap="round" stroke-linejoin="round" stroke-width="1"></path><path d="M20.25 9.747h1.5s1.5 0 1.5 1.5v1.5s0 1.5 -1.5 1.5h-1.5s-1.5 0 -1.5 -1.5v-1.5s0 -1.5 1.5 -1.5" fill="none" stroke="#000000" stroke-linecap="round" stroke-linejoin="round" stroke-width="1"></path><path d="M2.25 18.747h1.5s1.5 0 1.5 1.5v1.5s0 1.5 -1.5 1.5h-1.5s-1.5 0 -1.5 -1.5v-1.5s0 -1.5 1.5 -1.5" fill="none" stroke="#000000" stroke-linecap="round" stroke-linejoin="round" stroke-width="1"></path><path d="M11.25 18.747h1.5s1.5 0 1.5 1.5v1.5s0 1.5 -1.5 1.5h-1.5s-1.5 0 -1.5 -1.5v-1.5s0 -1.5 1.5 -1.5" fill="none" stroke="#000000" stroke-linecap="round" stroke-linejoin="round" stroke-width="1"></path><path d="M20.25 18.747h1.5s1.5 0 1.5 1.5v1.5s0 1.5 -1.5 1.5h-1.5s-1.5 0 -1.5 -1.5v-1.5s0 -1.5 1.5 -1.5" fill="none" stroke="#000000" stroke-linecap="round" stroke-linejoin="round" stroke-width="1"></path></svg>