<svg viewBox="0 0 24 24" xmlns="http://www.w3.org/2000/svg" id="Architecture-Fence-1--Streamline-Ultimate"><desc>Architecture Fence 1 Streamline Icon: https://streamlinehq.com</desc><path d="M5.25 19.5a0.75 0.75 0 0 1 -0.75 0.75h-3a0.75 0.75 0 0 1 -0.75 -0.75V5.25a2.25 2.25 0 0 1 4.5 0Z" fill="none" stroke="#000000" stroke-linecap="round" stroke-linejoin="round" stroke-width="1"></path><path d="M14.25 19.5a0.75 0.75 0 0 1 -0.75 0.75h-3a0.75 0.75 0 0 1 -0.75 -0.75V5.25a2.25 2.25 0 0 1 4.5 0Z" fill="none" stroke="#000000" stroke-linecap="round" stroke-linejoin="round" stroke-width="1"></path><path d="M23.25 19.5a0.75 0.75 0 0 1 -0.75 0.75h-3a0.75 0.75 0 0 1 -0.75 -0.75V5.25a2.25 2.25 0 0 1 4.5 0Z" fill="none" stroke="#000000" stroke-linecap="round" stroke-linejoin="round" stroke-width="1"></path><path d="m5.25 8.25 4.5 0" fill="none" stroke="#000000" stroke-linecap="round" stroke-linejoin="round" stroke-width="1"></path><path d="m14.25 8.25 4.5 0" fill="none" stroke="#000000" stroke-linecap="round" stroke-linejoin="round" stroke-width="1"></path><path d="m5.25 17.25 4.5 0" fill="none" stroke="#000000" stroke-linecap="round" stroke-linejoin="round" stroke-width="1"></path><path d="m14.25 17.25 4.5 0" fill="none" stroke="#000000" stroke-linecap="round" stroke-linejoin="round" stroke-width="1"></path></svg>