<svg xmlns="http://www.w3.org/2000/svg" fill="none" viewBox="0 0 24 24" id="Architecture-Door-Retro--Streamline-Ultimate"><desc>Architecture Door Retro Streamline Icon: https://streamlinehq.com</desc><path stroke="#000000" stroke-linecap="round" stroke-linejoin="round" d="M19.5 9.75c0 -2.38695 -0.9482 -4.67613 -2.636 -6.36396C15.1761 1.69821 12.8869 0.75 10.5 0.75c-2.38695 0 -4.67613 0.94821 -6.36396 2.63604S1.5 7.36305 1.5 9.75v12c0 0.3978 0.15804 0.7794 0.43934 1.0607S2.60218 23.25 3 23.25h15c0.3978 0 0.7794 -0.158 1.0607 -0.4393s0.4393 -0.6629 0.4393 -1.0607v-12Z" stroke-width="1"></path><path stroke="#000000" stroke-linecap="round" stroke-linejoin="round" d="M7.5 1.26199V23.25" stroke-width="1"></path><path stroke="#000000" stroke-linecap="round" stroke-linejoin="round" d="M13.5 1.26199V23.25" stroke-width="1"></path><path stroke="#000000" stroke-linecap="round" stroke-linejoin="round" d="M18 18.75h4.5" stroke-width="1"></path><path stroke="#000000" stroke-linecap="round" stroke-linejoin="round" d="M18 11.25h4.5" stroke-width="1"></path><path stroke="#000000" d="M4.5 13.875c-0.20711 0 -0.375 -0.1679 -0.375 -0.375s0.16789 -0.375 0.375 -0.375" stroke-width="1"></path><path stroke="#000000" d="M4.5 13.875c0.20711 0 0.375 -0.1679 0.375 -0.375s-0.16789 -0.375 -0.375 -0.375" stroke-width="1"></path></svg>