<svg viewBox="0 0 24 24" xmlns="http://www.w3.org/2000/svg" id="Architecture-Fence--Streamline-Ultimate"><desc>Architecture Fence Streamline Icon: https://streamlinehq.com</desc><path d="M5.25 19.542a1.5 1.5 0 0 1 -1.5 1.5h-1.5a1.5 1.5 0 0 1 -1.5 -1.5v-13.5l1.607 -2.678a0.75 0.75 0 0 1 1.286 0L5.25 6.042Z" fill="none" stroke="#000000" stroke-linecap="round" stroke-linejoin="round" stroke-width="1"></path><path d="M14.25 19.542a1.5 1.5 0 0 1 -1.5 1.5h-1.5a1.5 1.5 0 0 1 -1.5 -1.5v-13.5l1.607 -2.678a0.75 0.75 0 0 1 1.286 0l1.607 2.678Z" fill="none" stroke="#000000" stroke-linecap="round" stroke-linejoin="round" stroke-width="1"></path><path d="M23.25 19.542a1.5 1.5 0 0 1 -1.5 1.5h-1.5a1.5 1.5 0 0 1 -1.5 -1.5v-13.5l1.607 -2.678a0.75 0.75 0 0 1 1.286 0l1.607 2.678Z" fill="none" stroke="#000000" stroke-linecap="round" stroke-linejoin="round" stroke-width="1"></path><path d="m5.25 9.042 4.5 0" fill="none" stroke="#000000" stroke-linecap="round" stroke-linejoin="round" stroke-width="1"></path><path d="m14.25 9.042 4.5 0" fill="none" stroke="#000000" stroke-linecap="round" stroke-linejoin="round" stroke-width="1"></path><path d="m5.25 18.042 4.5 0" fill="none" stroke="#000000" stroke-linecap="round" stroke-linejoin="round" stroke-width="1"></path><path d="m14.25 18.042 4.5 0" fill="none" stroke="#000000" stroke-linecap="round" stroke-linejoin="round" stroke-width="1"></path></svg>