<svg xmlns="http://www.w3.org/2000/svg" fill="none" viewBox="0 0 24 24" id="Blinds-Horizontal-Closed--Streamline-Ultimate"><desc>Blinds Horizontal Closed Streamline Icon: https://streamlinehq.com</desc><path stroke="#000000" stroke-linecap="round" stroke-linejoin="round" d="M23.25 2.32812c0 -0.84568 -0.6856 -1.531245 -1.5313 -1.531245H2.28125C1.43556 0.796875 0.75 1.48244 0.75 2.32812v0c0 0.84569 0.68556 1.53126 1.53125 1.53126H21.7187c0.8457 0 1.5313 -0.68557 1.5313 -1.53126v0Z" stroke-width="1"></path><path stroke="#000000" stroke-linecap="round" stroke-linejoin="round" d="m1.5625 3.85938 0 16.17582" stroke-width="1"></path><path stroke="#000000" stroke-linecap="round" stroke-linejoin="round" d="M5.094 3.859h16v4.836h-16z" stroke-width="1"></path><path stroke="#000000" stroke-linecap="round" stroke-linejoin="round" d="M5.094 8.695h16v4.836h-16z" stroke-width="1"></path><path stroke="#000000" stroke-linecap="round" stroke-linejoin="round" d="M5.094 13.531h16v4.836h-16z" stroke-width="1"></path><path stroke="#000000" stroke-linecap="round" stroke-linejoin="round" d="M5.094 18.367h16v4.836h-16z" stroke-width="1"></path><path stroke="#000000" stroke-linecap="round" stroke-linejoin="round" d="M0.813 20.785a0.75 0.75 0 1 0 1.5 0 0.75 0.75 0 1 0 -1.5 0" stroke-width="1"></path></svg>