<svg xmlns="http://www.w3.org/2000/svg" fill="none" viewBox="0 0 24 24" id="Blinds-Vertical-Closed--Streamline-Ultimate"><desc>Blinds Vertical Closed Streamline Icon: https://streamlinehq.com</desc><path stroke="#000000" stroke-linecap="round" stroke-linejoin="round" d="m5.094 23.156 0 -19.25 3.998 0 0 19.25z" stroke-width="1"></path><path stroke="#000000" stroke-linecap="round" stroke-linejoin="round" d="m9.086 23.156 0 -19.25 3.998 0 0 19.25z" stroke-width="1"></path><path stroke="#000000" stroke-linecap="round" stroke-linejoin="round" d="m13.094 23.156 0 -19.25 3.998 0 0 19.25z" stroke-width="1"></path><path stroke="#000000" stroke-linecap="round" stroke-linejoin="round" d="m17.094 23.156 0 -19.25 3.998 0 0 19.25z" stroke-width="1"></path><path stroke="#000000" stroke-linecap="round" stroke-linejoin="round" d="M23.25 2.375c0 -0.84569 -0.6856 -1.53125 -1.5313 -1.53125H2.28125C1.43556 0.84375 0.75 1.52931 0.75 2.375v0c0 0.84569 0.68556 1.53125 1.53125 1.53125H21.7187c0.8457 0 1.5313 -0.68556 1.5313 -1.53125v0Z" stroke-width="1"></path><path stroke="#000000" stroke-linecap="round" stroke-linejoin="round" d="m1.5625 3.90625 0 16.17575" stroke-width="1"></path><path stroke="#000000" stroke-linecap="round" stroke-linejoin="round" d="M0.813 20.832a0.75 0.75 0 1 0 1.5 0 0.75 0.75 0 1 0 -1.5 0" stroke-width="1"></path></svg>