<svg xmlns="http://www.w3.org/2000/svg" fill="none" viewBox="0 0 24 24" id="Curtains-Open--Streamline-Ultimate"><desc>Curtains Open Streamline Icon: https://streamlinehq.com</desc><path stroke="#000000" stroke-linecap="round" stroke-linejoin="round" d="M1.75 2.5h2.17969" stroke-width="1"></path><path stroke="#000000" stroke-linecap="round" stroke-linejoin="round" d="m8.07812 2.5 7.85938 0" stroke-width="1"></path><path stroke="#000000" stroke-linecap="round" stroke-linejoin="round" d="M22.25 2.5h-2.1797" stroke-width="1"></path><path stroke="#000000" stroke-linecap="round" stroke-linejoin="round" d="M1.375 2.875C1.16789 2.875 1 2.70711 1 2.5s0.16789 -0.375 0.375 -0.375" stroke-width="1"></path><path stroke="#000000" stroke-linecap="round" stroke-linejoin="round" d="M1.375 2.875c0.20711 0 0.375 -0.16789 0.375 -0.375s-0.16789 -0.375 -0.375 -0.375" stroke-width="1"></path><path stroke="#000000" stroke-linecap="round" stroke-linejoin="round" d="M22.625 2.875c0.2071 0 0.375 -0.16789 0.375 -0.375s-0.1679 -0.375 -0.375 -0.375" stroke-width="1"></path><path stroke="#000000" stroke-linecap="round" stroke-linejoin="round" d="M22.625 2.875c-0.2071 0 -0.375 -0.16789 -0.375 -0.375s0.1679 -0.375 0.375 -0.375" stroke-width="1"></path><path stroke="#000000" stroke-linecap="round" stroke-linejoin="round" d="M7.06255 1c0.55228 0 1 0.44772 1 1l0 10 0.80172 8.8189C8.97074 21.9902 8.04854 23 6.87248 23H5.11975c-1.17606 0 -2.09826 -1.0098 -1.99178 -2.1811L3.92969 12l0 -10c0 -0.55229 0.44771 -1 1 -1l2.13286 0Z" stroke-width="1"></path><path stroke="#000000" stroke-linecap="round" stroke-linejoin="round" d="M19.0704 1c0.5522 0 1 0.44772 1 1l0 10 0.8017 8.8189C20.9786 21.9902 20.0564 23 18.8803 23h-1.7527c-1.1761 0 -2.0983 -1.0098 -1.9918 -2.1811L15.9375 12l0 -10c0 -0.55229 0.4477 -1 1 -1l2.1329 0Z" stroke-width="1"></path></svg>