<svg xmlns="http://www.w3.org/2000/svg" fill="none" viewBox="0 0 24 24" id="Roman-Shade-Open--Streamline-Ultimate"><desc>Roman Shade Open Streamline Icon: https://streamlinehq.com</desc><path stroke="#000000" stroke-linecap="round" stroke-linejoin="round" d="M5.07946 4.69336H21.108l0.4858 4.12507H4.59375l0.48571 -4.12507Z" stroke-width="1"></path><path stroke="#000000" stroke-linecap="round" stroke-linejoin="round" d="M6.04821 8.81836H20.1339l0.4857 4.12504H5.5625l0.48571 -4.12504Z" stroke-width="1"></path><path stroke="#000000" stroke-linecap="round" stroke-linejoin="round" d="M23.25 3.16211c0 -0.84569 -0.6856 -1.53125 -1.5313 -1.53125H2.28125C1.43556 1.63086 0.75 2.31642 0.75 3.16211v0c0 0.84569 0.68556 1.53125 1.53125 1.53125H21.7187c0.8457 0 1.5313 -0.68556 1.5313 -1.53125v0Z" stroke-width="1"></path><path stroke="#000000" stroke-linecap="round" stroke-linejoin="round" d="m1.5625 4.69336 0 16.17574" stroke-width="1"></path><path stroke="#000000" stroke-linecap="round" stroke-linejoin="round" d="M0.813 21.619a0.75 0.75 0 1 0 1.5 0 0.75 0.75 0 1 0 -1.5 0" stroke-width="1"></path></svg>