<svg viewBox="0 0 24 24" xmlns="http://www.w3.org/2000/svg" id="Modern-Architecture-Spiral--Streamline-Ultimate"><desc>Modern Architecture Spiral Streamline Icon: https://streamlinehq.com</desc><path d="m0.75 23.25 22.5 0" fill="none" stroke="#000000" stroke-linecap="round" stroke-linejoin="round" stroke-width="1"></path><path d="m7.5 13.5 0 -5.25" fill="none" stroke="#000000" stroke-linecap="round" stroke-linejoin="round" stroke-width="1"></path><path d="m16.5 6 0 5.25" fill="none" stroke="#000000" stroke-linecap="round" stroke-linejoin="round" stroke-width="1"></path><path d="M18 5.25a0.75 0.75 0 0 1 -0.75 0.75h-6v2.25h-4.5A0.75 0.75 0 0 1 6 7.5v-6a0.75 0.75 0 0 1 0.75 -0.75h10.5a0.75 0.75 0 0 1 0.75 0.75Z" fill="none" stroke="#000000" stroke-linecap="round" stroke-linejoin="round" stroke-width="1"></path><path d="M18 23.25V12a0.75 0.75 0 0 0 -0.75 -0.75h-4.5v2.25h-6a0.75 0.75 0 0 0 -0.75 0.75v9" fill="none" stroke="#000000" stroke-linecap="round" stroke-linejoin="round" stroke-width="1"></path><path d="m6 17.25 3.75 0" fill="none" stroke="#000000" stroke-linecap="round" stroke-linejoin="round" stroke-width="1"></path><path d="m14.25 20.25 3.75 0" fill="none" stroke="#000000" stroke-linecap="round" stroke-linejoin="round" stroke-width="1"></path><path d="m6 20.25 5.25 0" fill="none" stroke="#000000" stroke-linecap="round" stroke-linejoin="round" stroke-width="1"></path><path d="m6 3.75 3.75 0" fill="none" stroke="#000000" stroke-linecap="round" stroke-linejoin="round" stroke-width="1"></path></svg>