<svg viewBox="0 0 24 24" xmlns="http://www.w3.org/2000/svg" id="Modern-Architecture--Streamline-Ultimate"><desc>Modern Architecture Streamline Icon: https://streamlinehq.com</desc><path d="M0.97 6.22A0.75 0.75 0 0 0 1.5 7.5h21a0.75 0.75 0 0 0 0.75 -0.75V4.5a0.75 0.75 0 0 0 -0.75 -0.75H5.925a6 6 0 0 0 -4.243 1.757Z" fill="none" stroke="#000000" stroke-linecap="round" stroke-linejoin="round" stroke-width="1"></path><path d="M6.75 7.5v15a0.75 0.75 0 0 1 -0.75 0.75H3a0.75 0.75 0 0 1 -0.75 -0.75v-15" fill="none" stroke="#000000" stroke-linecap="round" stroke-linejoin="round" stroke-width="1"></path><path d="M14.25 7.5v15a0.75 0.75 0 0 1 -0.75 0.75h-3a0.75 0.75 0 0 1 -0.75 -0.75v-15" fill="none" stroke="#000000" stroke-linecap="round" stroke-linejoin="round" stroke-width="1"></path><path d="M21.75 7.5v15a0.75 0.75 0 0 1 -0.75 0.75h-3a0.75 0.75 0 0 1 -0.75 -0.75v-15" fill="none" stroke="#000000" stroke-linecap="round" stroke-linejoin="round" stroke-width="1"></path><path d="M6.5 0.75h2a0.5 0.5 0 0 1 0.5 0.5v2.5l0 0H6l0 0v-2.5a0.5 0.5 0 0 1 0.5 -0.5Z" fill="none" stroke="#000000" stroke-linecap="round" stroke-linejoin="round" stroke-width="1"></path><path d="M18.5 0.75h2a0.5 0.5 0 0 1 0.5 0.5v2.5l0 0h-3l0 0v-2.5a0.5 0.5 0 0 1 0.5 -0.5Z" fill="none" stroke="#000000" stroke-linecap="round" stroke-linejoin="round" stroke-width="1"></path><path d="m2.25 11.25 1.5 0" fill="none" stroke="#000000" stroke-linecap="round" stroke-linejoin="round" stroke-width="1"></path><path d="m2.25 14.25 1.5 0" fill="none" stroke="#000000" stroke-linecap="round" stroke-linejoin="round" stroke-width="1"></path><path d="m2.25 17.25 1.5 0" fill="none" stroke="#000000" stroke-linecap="round" stroke-linejoin="round" stroke-width="1"></path><path d="m9.75 11.25 1.5 0" fill="none" stroke="#000000" stroke-linecap="round" stroke-linejoin="round" stroke-width="1"></path><path d="m9.75 14.25 1.5 0" fill="none" stroke="#000000" stroke-linecap="round" stroke-linejoin="round" stroke-width="1"></path><path d="m9.75 17.25 1.5 0" fill="none" stroke="#000000" stroke-linecap="round" stroke-linejoin="round" stroke-width="1"></path><path d="m17.25 11.25 1.5 0" fill="none" stroke="#000000" stroke-linecap="round" stroke-linejoin="round" stroke-width="1"></path><path d="m17.25 14.25 1.5 0" fill="none" stroke="#000000" stroke-linecap="round" stroke-linejoin="round" stroke-width="1"></path><path d="m17.25 17.25 1.5 0" fill="none" stroke="#000000" stroke-linecap="round" stroke-linejoin="round" stroke-width="1"></path></svg>