<svg viewBox="0 0 24 24" xmlns="http://www.w3.org/2000/svg" id="Modern-Architecture-1--Streamline-Ultimate"><desc>Modern Architecture 1 Streamline Icon: https://streamlinehq.com</desc><path d="M11.755 22.768a106.345 106.345 0 0 1 -1.516 -13.142c0 -4.485 5.56 -5.559 5.56 -5.559" fill="none" stroke="#000000" stroke-linecap="round" stroke-linejoin="round" stroke-width="1"></path><path d="M4.973 22.768A106.345 106.345 0 0 0 6.489 9.626c0 -4.485 -5.56 -5.559 -5.56 -5.559" fill="none" stroke="#000000" stroke-linecap="round" stroke-linejoin="round" stroke-width="1"></path><path d="m0.75 22.768 22.5 0" fill="none" stroke="#000000" stroke-linecap="round" stroke-linejoin="round" stroke-width="1"></path><path d="M7.236 4.71a6.9 6.9 0 0 0 -3.747 -2.7" fill="none" stroke="#000000" stroke-linecap="round" stroke-linejoin="round" stroke-width="1"></path><path d="M9.489 4.715a6.9 6.9 0 0 1 3.75 -2.706" fill="none" stroke="#000000" stroke-linecap="round" stroke-linejoin="round" stroke-width="1"></path><path d="m6.305 13.018 4.119 0" fill="none" stroke="#000000" stroke-linecap="round" stroke-linejoin="round" stroke-width="1"></path><path d="M20.967 22.768s-1.516 -5.971 -1.516 -9.1 3.538 -3.538 3.538 -3.538" fill="none" stroke="#000000" stroke-linecap="round" stroke-linejoin="round" stroke-width="1"></path><path d="M14.511 22.768s1.516 -5.971 1.516 -9.1 -3.538 -3.538 -3.538 -3.538" fill="none" stroke="#000000" stroke-linecap="round" stroke-linejoin="round" stroke-width="1"></path><path d="M14.739 7.768a9.06 9.06 0 0 1 4.5 5.152l0.212 0.75" fill="none" stroke="#000000" stroke-linecap="round" stroke-linejoin="round" stroke-width="1"></path><path d="M20.739 7.768a9.42 9.42 0 0 0 -3 2.4" fill="none" stroke="#000000" stroke-linecap="round" stroke-linejoin="round" stroke-width="1"></path><path d="M5.492 2.959 6.992 1" fill="none" stroke="#000000" stroke-linecap="round" stroke-linejoin="round" stroke-width="1"></path><path d="M11.175 2.959 9.674 1" fill="none" stroke="#000000" stroke-linecap="round" stroke-linejoin="round" stroke-width="1"></path></svg>