<svg xmlns="http://www.w3.org/2000/svg" viewBox="0 0 24 24" id="Greeting-Card-Cake-Happy-Birthday--Streamline-Ultimate"><desc>Greeting Card Cake Happy Birthday Streamline Icon: https://streamlinehq.com</desc><defs></defs><title>greeting-card-cake-happy-birthday</title><path d="M6.751 12.538h10.5s1 0 1 1v5s0 1 -1 1h-10.5s-1 0 -1 -1v-5s0 -1 1 -1" fill="none" stroke="#000000" stroke-linecap="round" stroke-linejoin="round" stroke-width="1"></path><path d="m8.251 10.25 0 -1" fill="none" stroke="#000000" stroke-linecap="round" stroke-linejoin="round" stroke-width="1"></path><path d="m12.001 10.25 0 -1" fill="none" stroke="#000000" stroke-linecap="round" stroke-linejoin="round" stroke-width="1"></path><path d="m15.751 10.25 0 -1" fill="none" stroke="#000000" stroke-linecap="round" stroke-linejoin="round" stroke-width="1"></path><path d="M0.75 4.75h21.263a1.237 1.237 0 0 1 1.237 1.237v16.026a1.237 1.237 0 0 1 -1.237 1.237H0.75l0 0V4.75l0 0Z" fill="none" stroke="#000000" stroke-linecap="round" stroke-linejoin="round" stroke-width="1"></path><path d="M0.75 4.75 18.2 0.789c0.751 -0.152 1.545 0.158 1.545 0.6V4.75" fill="none" stroke="#000000" stroke-linecap="round" stroke-linejoin="round" stroke-width="1"></path><path d="m5.75 16 12.5 0" fill="none" stroke="#000000" stroke-linecap="round" stroke-linejoin="round" stroke-width="1"></path></svg>