<svg viewBox="0 0 24 24" xmlns="http://www.w3.org/2000/svg" id="Beanie--Streamline-Ultimate"><desc>Beanie Streamline Icon: https://streamlinehq.com</desc><path d="M23.25 19.125a3 3 0 0 1 -3 3H3.75a3 3 0 0 1 0 -6h16.5a3 3 0 0 1 3 3Z" fill="none" stroke="#000000" stroke-linecap="round" stroke-linejoin="round" stroke-width="1"></path><path d="M20.25 16.125H3.75v-6a8.25 8.25 0 0 1 16.5 0Z" fill="none" stroke="#000000" stroke-linecap="round" stroke-linejoin="round" stroke-width="1"></path><path d="m6.75 16.125 0 6" fill="none" stroke="#000000" stroke-linecap="round" stroke-linejoin="round" stroke-width="1"></path><path d="m17.25 16.125 0 6" fill="none" stroke="#000000" stroke-linecap="round" stroke-linejoin="round" stroke-width="1"></path><path d="m12 16.125 0 6" fill="none" stroke="#000000" stroke-linecap="round" stroke-linejoin="round" stroke-width="1"></path><path d="M8.25 16.125v-4.808a12 12 0 0 1 1.824 -6.36L12 1.875" fill="none" stroke="#000000" stroke-linecap="round" stroke-linejoin="round" stroke-width="1"></path><path d="M15.75 16.125v-4.808a12 12 0 0 0 -1.824 -6.36L12 1.875" fill="none" stroke="#000000" stroke-linecap="round" stroke-linejoin="round" stroke-width="1"></path></svg>