<svg id="Beanie-Winter-1--Streamline-Ultimate" xmlns="http://www.w3.org/2000/svg" viewBox="0 0 24 24"><desc>Beanie Winter 1 Streamline Icon: https://streamlinehq.com</desc><defs></defs><title>beanie-winter-1</title><path d="M3.75 17.25h16.5s1.5 0 1.5 1.5v3s0 1.5 -1.5 1.5H3.75s-1.5 0 -1.5 -1.5v-3s0 -1.5 1.5 -1.5" fill="none" stroke="#000000" stroke-linecap="round" stroke-linejoin="round" stroke-width="1"></path><path d="M20.25 17.25H3.75V13.5a8.25 8.25 0 0 1 16.5 0Z" fill="none" stroke="#000000" stroke-linecap="round" stroke-linejoin="round" stroke-width="1"></path><path d="M9.75 3a2.25 2.25 0 1 0 4.5 0 2.25 2.25 0 1 0 -4.5 0" fill="none" stroke="#000000" stroke-linecap="round" stroke-linejoin="round" stroke-width="1"></path><path d="M6.75 23.25v-6s0 -12 5.25 -12" fill="none" stroke="#000000" stroke-linecap="round" stroke-linejoin="round" stroke-width="1"></path><path d="M17.25 23.25v-6s0 -12 -5.25 -12" fill="none" stroke="#000000" stroke-linecap="round" stroke-linejoin="round" stroke-width="1"></path><path d="m12 5.25 0 18" fill="none" stroke="#000000" stroke-linecap="round" stroke-linejoin="round" stroke-width="1"></path></svg>