<svg viewBox="0 0 24 24" xmlns="http://www.w3.org/2000/svg" id="Beanie-Winter--Streamline-Ultimate"><desc>Beanie Winter Streamline Icon: https://streamlinehq.com</desc><path d="M23.25 20.25a3 3 0 0 1 -3 3H3.75a3 3 0 0 1 0 -6h16.5a3 3 0 0 1 3 3Z" fill="none" stroke="#000000" stroke-linecap="round" stroke-linejoin="round" stroke-width="1"></path><path d="M20.25 17.25H3.75V13.5a8.25 8.25 0 0 1 16.5 0Z" fill="none" stroke="#000000" stroke-linecap="round" stroke-linejoin="round" stroke-width="1"></path><path d="M9.75 3a2.25 2.25 0 1 0 4.5 0 2.25 2.25 0 1 0 -4.5 0Z" fill="none" stroke="#000000" stroke-linecap="round" stroke-linejoin="round" stroke-width="1"></path><path d="m8.249 17.25 0 6" fill="none" stroke="#000000" stroke-linecap="round" stroke-linejoin="round" stroke-width="1"></path><path d="m15.749 17.25 0 6" fill="none" stroke="#000000" stroke-linecap="round" stroke-linejoin="round" stroke-width="1"></path></svg>