<svg xmlns="http://www.w3.org/2000/svg" viewBox="0 0 24 24" id="Non-Gmo-Fire--Streamline-Ultimate"><desc>Non Gmo Fire Streamline Icon: https://streamlinehq.com</desc><g><path d="M5.15 20.25A8.16 8.16 0 0 0 11.3 23a8.3 8.3 0 0 0 8.19 -8.18 15.14 15.14 0 0 0 -1.33 -7.12" fill="none" stroke="#000000" stroke-linecap="round" stroke-linejoin="round" stroke-width="1"></path><path d="M16.41 5a14.73 14.73 0 0 0 -5.8 -4 0.37 0.37 0 0 0 -0.43 0.11 0.36 0.36 0 0 0 0 0.44 9.18 9.18 0 0 1 0.13 9.23C8.59 11.12 7 9.39 6.87 8c-2.22 1 -3.75 3.72 -3.75 6.86a7.91 7.91 0 0 0 0.3 2.14" fill="none" stroke="#000000" stroke-linecap="round" stroke-linejoin="round" stroke-width="1"></path><path d="m2.25 23.04 19.5 -18.75" fill="none" stroke="#000000" stroke-linecap="round" stroke-linejoin="round" stroke-width="1"></path></g></svg>