<svg xmlns="http://www.w3.org/2000/svg" fill="none" viewBox="0 0 24 24" id="Non-Gmo-Lab--Streamline-Ultimate"><desc>Non Gmo Lab Streamline Icon: https://streamlinehq.com</desc><path stroke="#000000" stroke-linecap="round" stroke-linejoin="round" d="M15 9v11.25c0 0.7956 -0.3161 1.5587 -0.8787 2.1213 -0.5626 0.5626 -1.3257 0.8787 -2.1213 0.8787 -0.7956 0 -1.5587 -0.3161 -2.12132 -0.8787C9.31607 21.8087 9 21.0456 9 20.25V15" stroke-width="1"></path><path stroke="#000000" d="M9.375 4.5C9.16789 4.5 9 4.33211 9 4.125s0.16789 -0.375 0.375 -0.375" stroke-width="1"></path><path stroke="#000000" d="M9.375 4.5c0.20711 0 0.375 -0.16789 0.375 -0.375s-0.16789 -0.375 -0.375 -0.375" stroke-width="1"></path><path stroke="#000000" d="M13.875 4.5c-0.2071 0 -0.375 -0.16789 -0.375 -0.375s0.1679 -0.375 0.375 -0.375" stroke-width="1"></path><path stroke="#000000" d="M13.875 4.5c0.2071 0 0.375 -0.16789 0.375 -0.375s-0.1679 -0.375 -0.375 -0.375" stroke-width="1"></path><path stroke="#000000" d="M11.625 1.5c-0.2071 0 -0.375 -0.16789 -0.375 -0.375 0 -0.207107 0.1679 -0.375 0.375 -0.375" stroke-width="1"></path><path stroke="#000000" d="M11.625 1.5c0.2071 0 0.375 -0.16789 0.375 -0.375 0 -0.207107 -0.1679 -0.375 -0.375 -0.375" stroke-width="1"></path><path stroke="#000000" stroke-linecap="round" stroke-linejoin="round" d="M9 11.25v-4.5h4.5" stroke-width="1"></path><path stroke="#000000" stroke-linecap="round" stroke-linejoin="round" d="M12 16.5h3" stroke-width="1"></path><path stroke="#000000" stroke-linecap="round" stroke-linejoin="round" d="M0.75 23.25 23.25 0.75" stroke-width="1"></path></svg>