<svg xmlns="http://www.w3.org/2000/svg" viewBox="0 0 24 24" id="Non-Gmo-Spray--Streamline-Ultimate"><desc>Non Gmo Spray Streamline Icon: https://streamlinehq.com</desc><g><path d="m9.75 10.5 2.25 -6 4.5 0" fill="none" stroke="#000000" stroke-linecap="round" stroke-linejoin="round" stroke-width="1"></path><path d="m17.32 6.68 1.43 3.82v11.25a1.5 1.5 0 0 1 -1.5 1.5h-6a1.5 1.5 0 0 1 -1.5 -1.5v-7.5" fill="none" stroke="#000000" stroke-linecap="round" stroke-linejoin="round" stroke-width="1"></path><path d="M23.25 12.75V10.5a6 6 0 0 0 -1.31 -3.75l-2.2 -2.49" fill="none" stroke="#000000" stroke-linecap="round" stroke-linejoin="round" stroke-width="1"></path><path d="m8.25 6 3.19 0" fill="none" stroke="#000000" stroke-linecap="round" stroke-linejoin="round" stroke-width="1"></path><path d="m14.25 4.5 0 -3" fill="none" stroke="#000000" stroke-linecap="round" stroke-linejoin="round" stroke-width="1"></path><path d="M0.75 23.25 23.25 0.75" fill="none" stroke="#000000" stroke-linecap="round" stroke-linejoin="round" stroke-width="1"></path><path d="m14.25 9.75 0 9 -4.5 0" fill="none" stroke="#000000" stroke-linecap="round" stroke-linejoin="round" stroke-width="1"></path><path d="M5.25 3.75 1.5 2.25" fill="none" stroke="#000000" stroke-linecap="round" stroke-linejoin="round" stroke-width="1"></path><path d="M5.25 8.25 1.5 9.75" fill="none" stroke="#000000" stroke-linecap="round" stroke-linejoin="round" stroke-width="1"></path><path d="m3.75 6 -3 0" fill="none" stroke="#000000" stroke-linecap="round" stroke-linejoin="round" stroke-width="1"></path></g></svg>