<svg xmlns="http://www.w3.org/2000/svg" fill="none" viewBox="0 0 24 24" id="Messages-People-User-Question-Exclamation--Streamline-Ultimate"><desc>Messages People User Question Exclamation Streamline Icon: https://streamlinehq.com</desc><path stroke="#000000" stroke-linecap="round" stroke-linejoin="round" d="M9.75 0.75c-0.39782 0 -0.77936 0.158035 -1.06066 0.43934 -0.2813 0.2813 -0.43934 0.66284 -0.43934 1.06066" stroke-width="1"></path><path stroke="#000000" stroke-linecap="round" stroke-linejoin="round" d="M21.75 0.75h-12" stroke-width="1"></path><path stroke="#000000" stroke-linecap="round" stroke-linejoin="round" d="M23.25 2.25c0 -0.39782 -0.158 -0.77936 -0.4393 -1.06066C22.5294 0.908035 22.1478 0.75 21.75 0.75" stroke-width="1"></path><path stroke="#000000" stroke-linecap="round" stroke-linejoin="round" d="M23.25 14.25v-12" stroke-width="1"></path><path stroke="#000000" stroke-linecap="round" stroke-linejoin="round" d="M21.75 15.75c0.3978 0 0.7794 -0.158 1.0607 -0.4393s0.4393 -0.6629 0.4393 -1.0607" stroke-width="1"></path><path stroke="#000000" stroke-linecap="round" stroke-linejoin="round" d="M18.75 15.75h3" stroke-width="1"></path><path stroke="#000000" stroke-linecap="round" stroke-linejoin="round" d="m14.25 20.25 4.5 -4.5" stroke-width="1"></path><path stroke="#000000" stroke-linecap="round" stroke-linejoin="round" d="M14.25 15.75v4.5" stroke-width="1"></path><path stroke="#000000" stroke-linecap="round" stroke-linejoin="round" d="M11.25 15.75h3" stroke-width="1"></path><path stroke="#000000" stroke-linecap="round" stroke-linejoin="round" d="M4.5 9.75c1.65685 0 3 -1.34315 3 -3s-1.34315 -3 -3 -3 -3 1.34315 -3 3 1.34315 3 3 3Z" stroke-width="1"></path><path stroke="#000000" stroke-linecap="round" stroke-linejoin="round" d="M8.25 17.25V15c0 -0.9946 -0.39509 -1.9484 -1.09835 -2.6517C6.44839 11.6451 5.49456 11.25 4.5 11.25c-0.99456 0 -1.94839 0.3951 -2.65165 1.0983C1.14509 13.0516 0.75 14.0054 0.75 15v2.25h1.5l0.75 6h3l0.75 -6h1.5Z" stroke-width="1"></path><path stroke="#000000" stroke-linecap="round" stroke-linejoin="round" d="M18.75 9V5.25" stroke-width="1"></path><path stroke="#000000" stroke-linecap="round" stroke-linejoin="round" d="M12 7.125c0 -0.37084 0.11 -0.73335 0.316 -1.04169 0.206 -0.30835 0.4989 -0.54867 0.8415 -0.69058 0.3426 -0.14192 0.7196 -0.17905 1.0833 -0.1067 0.3637 0.07235 0.6978 0.25092 0.96 0.51315 0.2622 0.26222 0.4408 0.59631 0.5132 0.96003 0.0723 0.36371 0.0352 0.74071 -0.1067 1.08332 -0.1419 0.34261 -0.3823 0.63545 -0.6906 0.84148C14.6084 8.89003 14.2458 9 13.875 9" stroke-width="1"></path><path stroke="#000000" d="M13.875 12c-0.2071 0 -0.375 -0.1679 -0.375 -0.375s0.1679 -0.375 0.375 -0.375" stroke-width="1"></path><path stroke="#000000" d="M13.875 12c0.2071 0 0.375 -0.1679 0.375 -0.375s-0.1679 -0.375 -0.375 -0.375" stroke-width="1"></path><g><path stroke="#000000" d="M18.75 12c-0.2071 0 -0.375 -0.1679 -0.375 -0.375s0.1679 -0.375 0.375 -0.375" stroke-width="1"></path><path stroke="#000000" d="M18.75 12c0.2071 0 0.375 -0.1679 0.375 -0.375s-0.1679 -0.375 -0.375 -0.375" stroke-width="1"></path></g></svg>