<svg xmlns="http://www.w3.org/2000/svg" fill="none" viewBox="0 0 24 24" id="Messages-People-Person-Bubble-1--Streamline-Ultimate"><desc>Messages People Person Bubble 1 Streamline Icon: https://streamlinehq.com</desc><path stroke="#000000" stroke-linecap="round" stroke-linejoin="round" d="M12.72 9.75h6c0.8733 0.00443 1.729 -0.24534 2.4628 -0.71885s1.3139 -1.1503 1.6697 -1.94784c0.3558 -0.79754 0.4718 -1.68137 0.3339 -2.54371 -0.1379 -0.86234 -0.5237 -1.66593 -1.1104 -2.31278 -0.5867 -0.64686 -1.3489 -1.10902 -2.1938 -1.330129 -0.8448 -0.221113 -1.7357 -0.191623 -2.5641 0.084874 -0.8284 0.276495 -1.5584 0.788055 -2.101 1.472285 -0.5427 0.68423 -0.8745 1.51158 -0.9551 2.38115 -0.3924 -0.4752 -0.9221 -0.81745 -1.5166 -0.97985 -0.5945 -0.1624 -1.2246 -0.13702 -1.8041 0.07268 -0.5795 0.2097 -1.08001 0.59346 -1.43291 1.09869 -0.35289 0.50523 -0.54094 1.10722 -0.53836 1.72348" stroke-width="1"></path><path stroke="#000000" d="M13.875 15.75c-0.2071 0 -0.375 -0.1679 -0.375 -0.375s0.1679 -0.375 0.375 -0.375" stroke-width="1"></path><path stroke="#000000" d="M13.875 15.75c0.2071 0 0.375 -0.1679 0.375 -0.375S14.0821 15 13.875 15" stroke-width="1"></path><path stroke="#000000" d="M16.875 13.5c-0.2071 0 -0.375 -0.1679 -0.375 -0.375s0.1679 -0.375 0.375 -0.375" stroke-width="1"></path><path stroke="#000000" d="M16.875 13.5c0.2071 0 0.375 -0.1679 0.375 -0.375s-0.1679 -0.375 -0.375 -0.375" stroke-width="1"></path><path stroke="#000000" stroke-linecap="round" stroke-linejoin="round" d="M6.75 16.5c1.86396 0 3.375 -1.511 3.375 -3.375S8.61396 9.75 6.75 9.75s-3.375 1.511 -3.375 3.375S4.88604 16.5 6.75 16.5Z" stroke-width="1"></path><path stroke="#000000" stroke-linecap="round" stroke-linejoin="round" d="M12.75 23.25c-0.1954 -1.4528 -0.9112 -2.7854 -2.0146 -3.7504 -1.10345 -0.9649 -2.51953 -1.4968 -3.9854 -1.4968 -1.46587 0 -2.88195 0.5319 -3.98538 1.4968C1.66118 20.4646 0.945351 21.7972 0.75 23.25" stroke-width="1"></path></svg>