<svg xmlns="http://www.w3.org/2000/svg" viewBox="0 0 24 24" id="Messages-People-User-Idea--Streamline-Ultimate"><desc>Messages People User Idea Streamline Icon: https://streamlinehq.com</desc><defs></defs><title>messages-people-user-idea</title><path d="M1.5 6.75a3 3 0 1 0 6 0 3 3 0 1 0 -6 0" fill="none" stroke="#000000" stroke-linecap="round" stroke-linejoin="round" stroke-width="1"></path><path d="M8.25 17.25V15a3.75 3.75 0 0 0 -7.5 0v2.25h1.5l0.75 6h3l0.75 -6Z" fill="none" stroke="#000000" stroke-linecap="round" stroke-linejoin="round" stroke-width="1"></path><path d="M18.75 6.75a3 3 0 1 0 -4.5 2.584v1.916h3V9.334a2.988 2.988 0 0 0 1.5 -2.584Z" fill="none" stroke="#000000" stroke-linecap="round" stroke-linejoin="round" stroke-width="1"></path><path d="m15.75 11.25 0 1.5" fill="none" stroke="#000000" stroke-linecap="round" stroke-linejoin="round" stroke-width="1"></path><path d="M11.25 15.75h3v4.5l4.5 -4.5h3a1.5 1.5 0 0 0 1.5 -1.5v-12a1.5 1.5 0 0 0 -1.5 -1.5h-12a1.5 1.5 0 0 0 -1.5 1.5" fill="none" stroke="#000000" stroke-linecap="round" stroke-linejoin="round" stroke-width="1"></path></svg>