<svg xmlns="http://www.w3.org/2000/svg" fill="none" viewBox="0 0 24 24" id="Messages-People-User-Skull--Streamline-Ultimate"><desc>Messages People User Skull Streamline Icon: https://streamlinehq.com</desc><path stroke="#000000" stroke-linecap="round" stroke-linejoin="round" d="M11.25 15.75h3v4.5l4.5 -4.5h3c0.3978 0 0.7794 -0.158 1.0607 -0.4393s0.4393 -0.6629 0.4393 -1.0607v-12c0 -0.39782 -0.158 -0.77936 -0.4393 -1.06066C22.5294 0.908035 22.1478 0.75 21.75 0.75h-12c-0.39782 0 -0.77936 0.158035 -1.06066 0.43934 -0.2813 0.2813 -0.43934 0.66284 -0.43934 1.06066" stroke-width="1"></path><path stroke="#000000" stroke-linecap="round" stroke-linejoin="round" d="M4.5 9.75c1.65685 0 3 -1.34315 3 -3s-1.34315 -3 -3 -3 -3 1.34315 -3 3 1.34315 3 3 3Z" stroke-width="1"></path><path stroke="#000000" stroke-linecap="round" stroke-linejoin="round" d="M8.25 17.25V15c0 -0.9946 -0.39509 -1.9484 -1.09835 -2.6517C6.44839 11.6451 5.49456 11.25 4.5 11.25c-0.99456 0 -1.94839 0.3951 -2.65165 1.0983C1.14509 13.0516 0.75 14.0054 0.75 15v2.25h1.5l0.75 6h3l0.75 -6h1.5Z" stroke-width="1"></path><path stroke="#000000" d="M14.25 8.25c-0.2071 0 -0.375 -0.16789 -0.375 -0.375s0.1679 -0.375 0.375 -0.375" stroke-width="1"></path><path stroke="#000000" d="M14.25 8.25c0.2071 0 0.375 -0.16789 0.375 -0.375s-0.1679 -0.375 -0.375 -0.375" stroke-width="1"></path><path stroke="#000000" d="M17.25 8.25c-0.2071 0 -0.375 -0.16789 -0.375 -0.375s0.1679 -0.375 0.375 -0.375" stroke-width="1"></path><path stroke="#000000" d="M17.25 8.25c0.2071 0 0.375 -0.16789 0.375 -0.375s-0.1679 -0.375 -0.375 -0.375" stroke-width="1"></path><path stroke="#000000" stroke-linecap="round" stroke-linejoin="round" d="M15.75 12.75v-1.5" stroke-width="1"></path><path stroke="#000000" stroke-linecap="round" stroke-linejoin="round" d="M20.25 8.25c0 -1.19347 -0.4741 -2.33807 -1.318 -3.18198C18.0881 4.22411 16.9435 3.75 15.75 3.75s-2.3381 0.47411 -3.182 1.31802c-0.8439 0.84391 -1.318 1.98851 -1.318 3.18198 0.0485 0.51322 0.2078 1.00982 0.4667 1.45557 0.259 0.44573 0.6115 0.83003 1.0333 1.12643V12c0 0.1989 0.079 0.3897 0.2197 0.5303 0.1406 0.1407 0.3314 0.2197 0.5303 0.2197H18c0.1989 0 0.3897 -0.079 0.5303 -0.2197 0.1407 -0.1406 0.2197 -0.3314 0.2197 -0.5303v-1.168c0.7969 -0.65 1.3301 -1.56776 1.5 -2.582Z" stroke-width="1"></path></svg>