<svg xmlns="http://www.w3.org/2000/svg" viewBox="0 0 24 24" id="Messages-People-Woman-Bubble-Circle-1--Streamline-Ultimate"><desc>Messages People Woman Bubble Circle 1 Streamline Icon: https://streamlinehq.com</desc><g><g><g><path d="M2.63 12.49v1a5.89 5.89 0 0 1 -0.86 3.27" fill="none" stroke="#000000" stroke-linecap="round" stroke-linejoin="round" stroke-width="1"></path><path d="M10.87 12.49v1a5.89 5.89 0 0 0 0.86 3.27" fill="none" stroke="#000000" stroke-linecap="round" stroke-linejoin="round" stroke-width="1"></path><path d="M2.71 13.2a5.48 5.48 0 0 0 4 -1.89 5.48 5.48 0 0 0 4 1.89" fill="none" stroke="#000000" stroke-linecap="round" stroke-linejoin="round" stroke-width="1"></path><path d="M2.62 12.38a4.13 4.13 0 1 0 8.26 0 4.13 4.13 0 1 0 -8.26 0" fill="none" stroke="#000000" stroke-linecap="round" stroke-linejoin="round" stroke-width="1"></path></g><path d="M12.75 23.25a6.05 6.05 0 0 0 -12 0" fill="none" stroke="#000000" stroke-linecap="round" stroke-linejoin="round" stroke-width="1"></path></g><path d="M18 0.75a5.23 5.23 0 0 0 -3.94 8.69l-0.65 3.78 3.42 -2.11a5.67 5.67 0 0 0 1.17 0.14 5.25 5.25 0 0 0 0 -10.5Z" fill="none" stroke="#000000" stroke-linecap="round" stroke-linejoin="round" stroke-width="1"></path></g></svg>