<?xml version="1.0" encoding="UTF-8"?>
<svg id="Layer_1" data-name="Layer 1" xmlns="http://www.w3.org/2000/svg" viewBox="0 0 64 64">
  <defs>
    <style>
      .cls-1 {
        fill: #d9ad27;
      }
    </style>
  </defs>
  <path class="cls-1" d="M24.23,32c0,4.07,3.31,7.37,7.37,7.37s7.37-3.31,7.37-7.37-3.31-7.37-7.37-7.37-7.37,3.31-7.37,7.37ZM35.27,32c0,2.02-1.64,3.67-3.67,3.67s-3.67-1.64-3.67-3.67,1.65-3.67,3.67-3.67,3.67,1.65,3.67,3.67Z"/>
  <path class="cls-1" d="M61.51,16.53l-6.69-3.46s-.02-.01-.04-.02c-.02,0-.03-.02-.05-.02-.07-.03-.14-.06-.22-.08,0,0-.02,0-.02,0-.08-.03-.17-.04-.26-.06-.01,0-.02,0-.03,0-.18-.02-.35-.02-.53,0-.02,0-.03,0-.05,0-.09.02-.17.04-.25.06,0,0,0,0-.01,0,0,0-.01,0-.02,0-.08.03-.16.06-.23.1,0,0-.01,0-.02.01-.08.04-.15.09-.22.14-.01,0-.02.02-.04.03-.07.05-.13.11-.2.17,0,0,0,0,0,0-.06.06-.11.13-.16.19-.01.01-.02.03-.03.04-.05.07-.09.13-.13.21,0,0,0,0,0,0,0,.01,0,.02-.01.03-.03.07-.06.14-.09.21,0,.02-.01.04-.02.05-.03.08-.05.16-.06.25,0,.01,0,.02,0,.03-.01.08-.02.17-.02.25,0,0,0,.01,0,.02v7.53c0,1.02.83,1.85,1.85,1.85s1.85-.83,1.85-1.85v-.81c1.46,3.35,2.21,6.97,2.19,10.73-.09,14.35-11.84,26.12-26.18,26.25-.08,0-.15,0-.23,0-7.06,0-13.68-2.74-18.68-7.74-5.05-5.05-7.8-11.76-7.74-18.91.12-14.45,11.97-26.18,26.41-26.18h.03c5.09,0,10.03,1.46,14.28,4.21.13.09.17.21.18.3,0,.08,0,.2-.12.31l-6.15,5.85-2.89-1.3-.21-4.17c-.05-.99-.86-1.76-1.85-1.76h-.01l-6.6.04c-.96,0-1.76.75-1.84,1.7l-.35,4.31-2.78,1.1-3.12-3.02c-.73-.7-1.88-.69-2.6.02l-4.64,4.64c-.69.69-.73,1.81-.08,2.54l2.97,3.34-1.29,2.96-4.23.21c-.98.05-1.75.85-1.76,1.83l-.06,6.47c0,.97.73,1.78,1.69,1.86l4.45.38,1.18,2.84-2.96,3.26c-.66.72-.64,1.83.04,2.54l4.58,4.73c.69.71,1.82.76,2.56.1l3.5-3.09,2.81,1.12.14,4.26c.03,1,.85,1.79,1.85,1.79l6.66.02h0c.49,0,.96-.19,1.31-.54.34-.34.54-.8.54-1.28.12-.89.24-2.91.32-4.26l2.74-1.07,3.1,3.03c.72.71,1.88.7,2.6-.01l4.71-4.68c.7-.7.73-1.83.06-2.56l-2.8-3.07,1.24-3.28,4.07-.13c1-.03,1.79-.85,1.79-1.85l.02-6.47c0-.95-.72-1.75-1.66-1.85l-4.5-.46-1.56-3.91c-.38-.95-1.46-1.41-2.41-1.03-.95.38-1.41,1.46-1.03,2.41l1.98,4.95c.26.64.85,1.09,1.53,1.16l3.94.4v3s-3.52.11-3.52.11c-.75.02-1.41.5-1.67,1.2l-2.08,5.5c-.25.65-.11,1.39.36,1.9l2.37,2.6-2.16,2.15-2.65-2.59c-.52-.51-1.29-.67-1.97-.4l-4.96,1.95c-.68.27-1.14.91-1.17,1.63-.05,1.05-.14,2.59-.22,3.75h-3.18s-.12-3.7-.12-3.7c-.02-.74-.48-1.39-1.17-1.66l-5-1.99c-.65-.26-1.39-.13-1.91.33l-3.03,2.67-2.14-2.21,2.59-2.84c.48-.53.62-1.29.34-1.96l-2.06-4.96c-.27-.64-.86-1.08-1.55-1.14l-3.86-.33.03-3.01,3.63-.18c.7-.04,1.33-.47,1.61-1.11l2.22-5.1c.29-.66.17-1.43-.31-1.97l-2.59-2.92,2.12-2.12,2.67,2.58c.52.51,1.29.66,1.97.39l4.96-1.97c.66-.26,1.11-.87,1.16-1.57l.3-3.76,3.13-.02.18,3.54c.04.69.46,1.31,1.09,1.6l5.06,2.28c.69.31,1.49.17,2.04-.35l7.05-6.7c.91-.87,1.37-2.09,1.25-3.34-.12-1.26-.8-2.38-1.86-3.06-4.85-3.14-10.48-4.8-16.29-4.8h-.04C15.13,1.88,1.62,15.27,1.48,31.74c-.07,8.15,3.06,15.8,8.82,21.56,5.7,5.7,13.25,8.82,21.3,8.82.09,0,.18,0,.26,0,16.36-.14,29.76-13.57,29.86-29.93.03-4.5-.92-8.83-2.76-12.8l.84.44c.27.14.56.21.85.21.67,0,1.32-.37,1.65-1,.47-.91.11-2.03-.79-2.5Z"/>
</svg>