<svg xmlns="http://www.w3.org/2000/svg" viewBox="0 0 24 24" id="Google-Meet-Logo--Streamline-Ultimate"><desc>Google Meet Logo Streamline Icon: https://streamlinehq.com</desc><g><path d="M17.28 3.47a1.22 1.22 0 0 1 1.22 1.22v14.62a1.22 1.22 0 0 1 -1.22 1.22H2a1.22 1.22 0 0 1 -1.25 -1.22v-11l4.87 -4.84Z" fill="none" stroke="#000000" stroke-linejoin="round" stroke-width="1"></path><path d="M6 8.44h7a0.5 0.5 0 0 1 0.5 0.5V15a0.5 0.5 0 0 1 -0.5 0.5H6V8.44Z" fill="none" stroke="#000000" stroke-linejoin="round" stroke-width="1"></path><path d="M14.07 12.41a0.51 0.51 0 0 1 0 -0.82l8.39 -6a0.49 0.49 0 0 1 0.52 0 0.5 0.5 0 0 1 0.27 0.44V18a0.5 0.5 0 0 1 -0.27 0.44 0.49 0.49 0 0 1 -0.52 0Z" fill="none" stroke="#000000" stroke-linejoin="round" stroke-width="1"></path><path d="m0.75 8.47 5.25 0 0 -5" fill="none" stroke="#000000" stroke-linejoin="round" stroke-width="1"></path><path d="m0.75 15.5 5.25 0 0 5.03" fill="none" stroke="#000000" stroke-linejoin="round" stroke-width="1"></path></g></svg>