<svg xmlns="http://www.w3.org/2000/svg" fill="none" viewBox="0 0 24 24" id="Google-Voice-Logo--Streamline-Ultimate"><desc>Google Voice Logo Streamline Icon: https://streamlinehq.com</desc><path stroke="#000000" stroke-linecap="round" stroke-linejoin="round" d="M22.8451 9.29557c-0.4622 -4.2794 -3.8613 -7.67846 -8.1407 -8.14066 -0.5491 -0.0593 -0.9984 0.39412 -0.9984 0.94641v7.19267c0 0.55228 0.4477 1.00001 1 1.00001h7.1927c0.5523 0 1.0057 -0.44934 0.9464 -0.99843Z" stroke-width="1"></path><path stroke="#000000" stroke-linecap="round" stroke-linejoin="round" d="M19.0406 10.294c0 -2.94622 -2.3884 -5.33459 -5.3346 -5.33459" stroke-width="1"></path><path stroke="#000000" stroke-linecap="round" stroke-linejoin="round" d="M9.68544 21.2041c-1.38203 -0.7467 -2.71954 -1.7345 -3.9373 -2.9522 -1.15279 -1.1528 -2.09951 -2.4129 -2.83066 -3.7165m6.76796 6.6687 3.23196 -3.232m-3.23196 3.232c2.68376 1.4499 5.53536 1.9906 8.00386 1.54m-4.7719 -4.772 2.4069 -2.4068c0.3905 -0.3906 1.0237 -0.3906 1.4142 0l4.3676 4.3676c0.3906 0.3905 0.3941 1.0302 -0.0462 1.3636 -0.9791 0.7414 -2.1262 1.2204 -3.3706 1.4476m-4.7719 -4.772 -6.71833 -6.7183m6.71833 6.7183 4.7719 4.772M2.91748 14.5354l3.28159 -3.2816m-3.28159 3.2816C1.37641 11.7878 0.792947 8.84702 1.25592 6.31066m4.94315 4.94314 2.40687 -2.40688c0.39053 -0.39052 0.39053 -1.02369 0 -1.41421L4.06711 2.89387c-0.39053 -0.39052 -1.0302 -0.39406 -1.3636 0.04623 -0.74141 0.97912 -1.22044 2.12617 -1.44759 3.37056m4.94315 4.94314L1.25592 6.31066" stroke-width="1"></path></svg>