<svg viewBox="0 0 24 24" xmlns="http://www.w3.org/2000/svg" id="Icq-Logo--Streamline-Ultimate"><desc>Icq Logo Streamline Icon: https://streamlinehq.com</desc><path d="M9.6 12.12a2.46 2.46 0 1 0 4.92 0 2.46 2.46 0 1 0 -4.92 0Z" fill="none" stroke="#000000" stroke-linecap="round" stroke-linejoin="round" stroke-width="1"></path><path d="M11.13 9.86a36.54 36.54 0 0 1 -0.82 -6.12c-0.09 -3.26 7.28 -5.44 6.58 2.18 -1.32 1.66 -2.79 3.41 -3.44 4.18" fill="none" stroke="#000000" stroke-linecap="round" stroke-linejoin="round" stroke-width="1"></path><path d="M16.89 5.92c2.24 -2.4 7.84 -0.26 2.33 4.18 -2.46 0.54 -4 0.93 -4.86 1.16" fill="none" stroke="#000000" stroke-linecap="round" stroke-linejoin="round" stroke-width="1"></path><path d="M19.22 10.1c4.3 -0.43 4.3 4.18 3.72 5.25s-2.4 3 -5.13 0.77c-1.64 -1.39 -2.86 -2.36 -3.55 -2.89" fill="none" stroke="#000000" stroke-linecap="round" stroke-linejoin="round" stroke-width="1"></path><path d="M17.81 16.12c2.58 4.09 -2.75 7 -4.19 2.64l-0.9 -4.27" fill="none" stroke="#000000" stroke-linecap="round" stroke-linejoin="round" stroke-width="1"></path><path d="M10.51 14c-0.51 0.68 -1.51 2 -3.15 4.18 -3.47 4.58 4.28 7.29 5.65 2.7 0.33 -1.11 0.61 -2.12 0.61 -2.12" fill="none" stroke="#000000" stroke-linecap="round" stroke-linejoin="round" stroke-width="1"></path><path d="M9.8 13.09c-0.81 0.25 -2.37 0.73 -4.71 1.49 -3.63 1.17 -2.37 5.87 2.27 3.6" fill="none" stroke="#000000" stroke-linecap="round" stroke-linejoin="round" stroke-width="1"></path><path d="M9.64 11.74C7.92 10.6 7.07 8.86 4.75 9c-2.6 0.18 -4 1.73 -4 3.44s2.68 2.59 4.3 2.12" fill="none" stroke="#000000" stroke-linecap="round" stroke-linejoin="round" stroke-width="1"></path><path d="M11.13 9.86A13 13 0 0 0 9.79 6c-1 -1.66 -2.8 -3 -4 -2.15S3.82 7 7.11 9.67" fill="none" stroke="#000000" stroke-linecap="round" stroke-linejoin="round" stroke-width="1"></path></svg>