<svg viewBox="0 0 24 24" xmlns="http://www.w3.org/2000/svg" id="Line-App-Logo--Streamline-Ultimate"><desc>Line App Logo Streamline Icon: https://streamlinehq.com</desc><path d="M23.25 11.06c0 5.07 -5 9.18 -11.25 9.18a13.53 13.53 0 0 1 -3.77 -0.53 0.49 0.49 0 0 0 -0.34 0l-5 2.34a0.49 0.49 0 0 1 -0.64 -0.66L4 18a0.49 0.49 0 0 0 -0.12 -0.59 8.34 8.34 0 0 1 -3.13 -6.35C0.75 6 5.79 1.88 12 1.88S23.25 6 23.25 11.06Z" fill="none" stroke="#000000" stroke-linecap="round" stroke-linejoin="round" stroke-width="1"></path><path d="m9.3 7.75 0 5.87" fill="none" stroke="#000000" stroke-linecap="round" stroke-linejoin="round" stroke-width="1"></path><path d="m11.51 13.62 0 -5.87 3.56 5.87 0 -5.87" fill="none" stroke="#000000" stroke-linecap="round" stroke-linejoin="round" stroke-width="1"></path><path d="m19.96 13.62 -2.68 0 0 -5.87 2.68 0" fill="none" stroke="#000000" stroke-linecap="round" stroke-linejoin="round" stroke-width="1"></path><path d="m17.28 10.68 2.69 0" fill="none" stroke="#000000" stroke-linecap="round" stroke-linejoin="round" stroke-width="1"></path><path d="m4.56 7.75 0 5.87 2.69 0" fill="none" stroke="#000000" stroke-linecap="round" stroke-linejoin="round" stroke-width="1"></path></svg>