<svg xmlns="http://www.w3.org/2000/svg" fill="none" viewBox="0 0 24 24" id="Pingchat-Logo--Streamline-Ultimate"><desc>Pingchat Logo Streamline Icon: https://streamlinehq.com</desc><path stroke="#000000" stroke-linecap="round" stroke-linejoin="round" d="M7.61948 16.3805h6.64962c-0.0126 1.7909 -0.7242 3.506 -1.9831 4.7798 -1.2589 1.2737 -2.96553 2.0054 -4.75611 2.0391 -0.87196 0.0119 -1.73771 -0.1482 -2.54781 -0.4709 -0.81011 -0.3228 -1.54869 -0.802 -2.17358 -1.4103 -0.62489 -0.6082 -1.12384 -1.3336 -1.46836 -2.1347 -0.344518 -0.8011 -0.527856 -1.6622 -0.539542 -2.5342 0.044388 -1.7699 0.785552 -3.4508 2.062402 -4.6774 1.27685 -1.2265 2.98618 -1.8995 4.75648 -1.8727v6.2813ZM23.1984 7.13274c-0.0141 0.85269 -0.1975 1.69409 -0.5393 2.47536 -0.3419 0.7813 -0.8356 1.4869 -1.4523 2.0758 -0.6168 0.589 -1.3444 1.0496 -2.1406 1.3552 -0.7962 0.3055 -1.6451 0.4499 -2.4975 0.4248h-6.0325V7.10288S10.6955 0.801632 16.8374 0.801632c0.838 -0.018909 1.6712 0.131704 2.4495 0.442798 0.7783 0.31109 1.4858 0.77625 2.0799 1.36755 0.594 0.5913 1.0625 1.29654 1.3773 2.0734 0.3147 0.77685 0.4693 1.6093 0.4543 2.44736Z" stroke-width="1"></path><path stroke="#000000" stroke-linecap="round" stroke-linejoin="round" d="M16.3795 3.24048v4.12119" stroke-width="1"></path><path stroke="#000000" d="M16.3796 10.8739c-0.2749 0 -0.4978 -0.2229 -0.4978 -0.4978 0 -0.2748 0.2229 -0.49768 0.4978 -0.49768" stroke-width="1"></path><path stroke="#000000" d="M16.3795 10.8739c0.2749 0 0.4978 -0.2229 0.4978 -0.4978 0 -0.2748 -0.2229 -0.49768 -0.4978 -0.49768" stroke-width="1"></path></svg>