<svg xmlns="http://www.w3.org/2000/svg" viewBox="0 0 24 24" id="Qq-Logo--Streamline-Ultimate"><desc>Qq Logo Streamline Icon: https://streamlinehq.com</desc><defs></defs><title>qq</title><path d="M18.874 7.784a0.246 0.246 0 0 1 -0.039 -0.152c0.007 -0.107 0.015 -0.213 0.015 -0.322A6.709 6.709 0 0 0 12 0.75a6.71 6.71 0 0 0 -6.848 6.56c0 0.112 0.008 0.221 0.016 0.331a0.241 0.241 0 0 1 -0.04 0.152c-0.463 0.7 -4.116 7.223 -2.977 8.676 0.325 0.415 1.058 0.2 1.8 -0.2a0.246 0.246 0 0 1 0.221 0 0.241 0.241 0 0 1 0.133 0.176 7.316 7.316 0 0 0 1.668 3.47 0.244 0.244 0 0 1 -0.117 0.394c-1.011 0.292 -1.673 0.776 -1.673 1.324 0 0.892 1.75 1.615 3.909 1.615 1.928 0 2 -0.751 3.908 -0.751s1.982 0.751 3.909 0.751c2.158 0 3.908 -0.723 3.908 -1.615 0 -0.548 -0.661 -1.032 -1.673 -1.324a0.244 0.244 0 0 1 -0.117 -0.394 7.314 7.314 0 0 0 1.67 -3.478 0.244 0.244 0 0 1 0.355 -0.173c0.743 0.392 1.476 0.61 1.8 0.2 1.124 -1.433 -2.515 -7.977 -2.978 -8.68Z" fill="none" stroke="#000000" stroke-linecap="round" stroke-linejoin="round" stroke-width="1"></path></svg>