<svg xmlns="http://www.w3.org/2000/svg" viewBox="0 0 24 24" id="Slack-Logo--Streamline-Ultimate"><desc>Slack Logo Streamline Icon: https://streamlinehq.com</desc><defs></defs><title>slack</title><path d="M16.5 8.75a1.5 1.5 0 0 1 -3 0v-6.5a1.5 1.5 0 0 1 3 0Z" fill="none" stroke="#000000" stroke-linecap="round" stroke-linejoin="round" stroke-width="1"></path><path d="M11 4.25H9.25A1.75 1.75 0 1 1 11 2.5Z" fill="none" stroke="#000000" stroke-linecap="round" stroke-linejoin="round" stroke-width="1"></path><path d="M8.75 7.5a1.5 1.5 0 0 1 0 3h-6.5a1.5 1.5 0 0 1 0 -3Z" fill="none" stroke="#000000" stroke-linecap="round" stroke-linejoin="round" stroke-width="1"></path><path d="M4.25 13v1.75A1.75 1.75 0 1 1 2.5 13Z" fill="none" stroke="#000000" stroke-linecap="round" stroke-linejoin="round" stroke-width="1"></path><path d="M7.5 15.25a1.5 1.5 0 0 1 3 0v6.5a1.5 1.5 0 0 1 -3 0Z" fill="none" stroke="#000000" stroke-linecap="round" stroke-linejoin="round" stroke-width="1"></path><path d="M13 19.75h1.75A1.75 1.75 0 1 1 13 21.5Z" fill="none" stroke="#000000" stroke-linecap="round" stroke-linejoin="round" stroke-width="1"></path><path d="M15.25 16.5a1.5 1.5 0 0 1 0 -3h6.5a1.5 1.5 0 0 1 0 3Z" fill="none" stroke="#000000" stroke-linecap="round" stroke-linejoin="round" stroke-width="1"></path><path d="M19.75 11V9.25A1.75 1.75 0 1 1 21.5 11Z" fill="none" stroke="#000000" stroke-linecap="round" stroke-linejoin="round" stroke-width="1"></path></svg>