<svg xmlns="http://www.w3.org/2000/svg" viewBox="0 0 24 24" id="Trello-Logo--Streamline-Ultimate"><desc>Trello Logo Streamline Icon: https://streamlinehq.com</desc><defs></defs><title>trello</title><path d="M1.75 0.75h20.5s1 0 1 1v20.5s0 1 -1 1H1.75s-1 0 -1 -1V1.75s0 -1 1 -1" fill="none" stroke="#000000" stroke-linecap="round" stroke-linejoin="round" stroke-width="1"></path><path d="M5.25 5.75h4.5s0.5 0 0.5 0.5v11.5s0 0.5 -0.5 0.5h-4.5s-0.5 0 -0.5 -0.5V6.25s0 -0.5 0.5 -0.5" fill="none" stroke="#000000" stroke-linecap="round" stroke-linejoin="round" stroke-width="1"></path><path d="M14.25 5.75h4.5s0.5 0 0.5 0.5v7s0 0.5 -0.5 0.5h-4.5s-0.5 0 -0.5 -0.5v-7s0 -0.5 0.5 -0.5" fill="none" stroke="#000000" stroke-linecap="round" stroke-linejoin="round" stroke-width="1"></path></svg>