<svg xmlns="http://www.w3.org/2000/svg" viewBox="0 0 24 24" id="Wechat-Pay-Logo--Streamline-Ultimate"><desc>Wechat Pay Logo Streamline Icon: https://streamlinehq.com</desc><defs></defs><title>wechat-pay</title><path d="M11.835 15.466a1 1 0 0 1 -1.417 -0.244L7.21 10.5a0.25 0.25 0 0 1 0.3 -0.373l3.72 1.488a1 1 0 0 0 0.969 -0.127l8.4 -6.27A11.7 11.7 0 0 0 12 1.577C5.787 1.577 0.75 6.156 0.75 11.805a9.6 9.6 0 0 0 2.316 6.215 1.023 1.023 0 0 1 0.241 0.659V21.4a1.023 1.023 0 0 0 1.48 0.915l2.07 -1.035a1.024 1.024 0 0 1 0.822 -0.041 12.136 12.136 0 0 0 4.321 0.793c6.213 0 11.25 -4.579 11.25 -10.227a9.392 9.392 0 0 0 -0.908 -4.025Z" fill="none" stroke="#000000" stroke-linecap="round" stroke-linejoin="round" stroke-width="1"></path></svg>