<svg viewBox="0 0 24 24" xmlns="http://www.w3.org/2000/svg" id="Whatsapp-Logo--Streamline-Ultimate"><desc>Whatsapp Logo Streamline Icon: https://streamlinehq.com</desc><path d="M12 0.75A11.22 11.22 0 0 0 0.74 11.91a11 11 0 0 0 2.14 6.54l-1.4 4.15 4.32 -1.37a11.26 11.26 0 0 0 17.44 -9.32A11.22 11.22 0 0 0 12 0.75m6.07 13.91c-0.07 -0.12 -0.27 -0.2 -0.56 -0.34s-1.74 -0.85 -2 -0.95 -0.47 -0.15 -0.66 0.15 -0.5 0.73 -0.67 0.92 -0.34 0.22 -0.64 0.07a9.2 9.2 0 0 1 -4.14 -3.58c-0.17 -0.29 0 -0.45 0.13 -0.59 0.49 -0.49 0.5 -0.42 0.62 -0.66a0.53 0.53 0 0 0 0 -0.51C10 9 9.45 7.58 9.2 7s-1.51 -0.69 -2 -0.15C2 12.33 14.67 21.72 17.91 16a1.41 1.41 0 0 0 0.16 -1.32" fill="none" stroke="#000000" stroke-linecap="round" stroke-linejoin="round" stroke-width="1"></path></svg>