<svg xmlns="http://www.w3.org/2000/svg" viewBox="0 0 24 24" id="Buildings-2--Streamline-Ultimate"><desc>Buildings 2 Streamline Icon: https://streamlinehq.com</desc><defs></defs><title>buildings-2</title><path d="M2.75 5.25h9.5a0.5 0.5 0 0 1 0.5 0.5v17.5l0 0H2.25l0 0V5.75a0.5 0.5 0 0 1 0.5 -0.5Z" fill="none" stroke="#000000" stroke-linecap="round" stroke-linejoin="round" stroke-width="1"></path><path d="M5.75 2.25h3.5a0.5 0.5 0 0 1 0.5 0.5v2.5l0 0h-4.5l0 0v-2.5a0.5 0.5 0 0 1 0.5 -0.5Z" fill="none" stroke="#000000" stroke-linecap="round" stroke-linejoin="round" stroke-width="1"></path><path d="m5.25 8.25 4.5 0" fill="none" stroke="#000000" stroke-linecap="round" stroke-linejoin="round" stroke-width="1"></path><path d="m5.25 11.25 4.5 0" fill="none" stroke="#000000" stroke-linecap="round" stroke-linejoin="round" stroke-width="1"></path><path d="m5.25 14.25 4.5 0" fill="none" stroke="#000000" stroke-linecap="round" stroke-linejoin="round" stroke-width="1"></path><path d="m5.25 17.25 4.5 0" fill="none" stroke="#000000" stroke-linecap="round" stroke-linejoin="round" stroke-width="1"></path><path d="m5.25 20.25 4.5 0" fill="none" stroke="#000000" stroke-linecap="round" stroke-linejoin="round" stroke-width="1"></path><path d="m8.25 0.75 0 1.5" fill="none" stroke="#000000" stroke-linecap="round" stroke-linejoin="round" stroke-width="1"></path><path d="M15.75 23.25h6V10.5a0.75 0.75 0 0 0 -0.75 -0.75h-4.5a0.75 0.75 0 0 0 -0.75 0.75v12.75" fill="none" stroke="#000000" stroke-linecap="round" stroke-linejoin="round" stroke-width="1"></path><path d="m20.25 8.25 0 1.5" fill="none" stroke="#000000" stroke-linecap="round" stroke-linejoin="round" stroke-width="1"></path><path d="m0.75 23.25 22.5 0" fill="none" stroke="#000000" stroke-linecap="round" stroke-linejoin="round" stroke-width="1"></path></svg>