<svg viewBox="0 0 24 24" xmlns="http://www.w3.org/2000/svg" id="Buildings-Modern--Streamline-Ultimate"><desc>Buildings Modern Streamline Icon: https://streamlinehq.com</desc><path d="M2.25 23.25V6a0.748 0.748 0 0 1 0.394 -0.66L10.894 0.9A0.75 0.75 0 0 1 12 1.558V23.25" fill="none" stroke="#000000" stroke-linecap="round" stroke-linejoin="round" stroke-width="1"></path><path d="M21.75 23.25V13.083a0.75 0.75 0 0 0 -0.29 -0.592l-5.25 -4.083A0.749 0.749 0 0 0 15 9v14.25" fill="none" stroke="#000000" stroke-linecap="round" stroke-linejoin="round" stroke-width="1"></path><path d="m23.25 23.25 -22.5 0" fill="none" stroke="#000000" stroke-linecap="round" stroke-linejoin="round" stroke-width="1"></path><path d="m12 8.25 -4.5 0" fill="none" stroke="#000000" stroke-linecap="round" stroke-linejoin="round" stroke-width="1"></path><path d="m12 11.25 -6 0" fill="none" stroke="#000000" stroke-linecap="round" stroke-linejoin="round" stroke-width="1"></path><path d="M6 23.25h3v-3a1.5 1.5 0 0 0 -3 0Z" fill="none" stroke="#000000" stroke-linecap="round" stroke-linejoin="round" stroke-width="1"></path><path d="m4.5 4.34 0 -3.59" fill="none" stroke="#000000" stroke-linecap="round" stroke-linejoin="round" stroke-width="1"></path><path d="m15 13.5 2.25 0" fill="none" stroke="#000000" stroke-linecap="round" stroke-linejoin="round" stroke-width="1"></path><path d="m15 16.5 3.75 0" fill="none" stroke="#000000" stroke-linecap="round" stroke-linejoin="round" stroke-width="1"></path><path d="m20.25 11.55 0 -3.3" fill="none" stroke="#000000" stroke-linecap="round" stroke-linejoin="round" stroke-width="1"></path></svg>