<svg viewBox="0 0 24 24" xmlns="http://www.w3.org/2000/svg" id="Building-Modern--Streamline-Ultimate"><desc>Building Modern Streamline Icon: https://streamlinehq.com</desc><path d="M3.25 9.75h8.5a1 1 0 0 1 1 1v12.5l0 0H2.25l0 0v-12.5a1 1 0 0 1 1 -1Z" fill="none" stroke="#000000" stroke-linecap="round" stroke-linejoin="round" stroke-width="1"></path><path d="M15.75 23.25h6v-21a1.5 1.5 0 0 0 -1.5 -1.5h-9a1.5 1.5 0 0 0 -1.5 1.5v4.5h1.5" fill="none" stroke="#000000" stroke-linecap="round" stroke-linejoin="round" stroke-width="1"></path><path d="m2.25 23.25 -1.5 0" fill="none" stroke="#000000" stroke-linecap="round" stroke-linejoin="round" stroke-width="1"></path><path d="m21.75 23.25 1.5 0" fill="none" stroke="#000000" stroke-linecap="round" stroke-linejoin="round" stroke-width="1"></path><path d="m9.75 3.75 4.5 0" fill="none" stroke="#000000" stroke-linecap="round" stroke-linejoin="round" stroke-width="1"></path><path d="m2.25 12.75 2.25 0" fill="none" stroke="#000000" stroke-linecap="round" stroke-linejoin="round" stroke-width="1"></path><path d="M8.25 23.25h-3v-3a1.5 1.5 0 0 1 3 0Z" fill="none" stroke="#000000" stroke-linecap="round" stroke-linejoin="round" stroke-width="1"></path><path d="M18.75 23.25h-3v-4.5a1.5 1.5 0 0 1 3 0Z" fill="none" stroke="#000000" stroke-linecap="round" stroke-linejoin="round" stroke-width="1"></path></svg>