<svg viewBox="0 0 24 24" xmlns="http://www.w3.org/2000/svg" id="Building-Nature--Streamline-Ultimate"><desc>Building Nature Streamline Icon: https://streamlinehq.com</desc><path d="M6 23.25v-3a1.5 1.5 0 0 1 3 0v3" fill="none" stroke="#000000" stroke-linecap="round" stroke-linejoin="round" stroke-width="1"></path><path d="m12.75 6.75 0 16.5" fill="none" stroke="#000000" stroke-linecap="round" stroke-linejoin="round" stroke-width="1"></path><path d="m2.25 23.25 0 -16.5" fill="none" stroke="#000000" stroke-linecap="round" stroke-linejoin="round" stroke-width="1"></path><path d="M2.585 3.079 0.75 6.75h13.5l-1.835 -3.671a1.5 1.5 0 0 0 -1.342 -0.829H3.927a1.5 1.5 0 0 0 -1.342 0.829Z" fill="none" stroke="#000000" stroke-linecap="round" stroke-linejoin="round" stroke-width="1"></path><path d="m9 2.25 0 -1.5" fill="none" stroke="#000000" stroke-linecap="round" stroke-linejoin="round" stroke-width="1"></path><path d="m0.75 23.25 22.5 0" fill="none" stroke="#000000" stroke-linecap="round" stroke-linejoin="round" stroke-width="1"></path><path d="M20.25 18.75a1.5 1.5 0 0 1 -3 0 14.8 14.8 0 0 1 1.5 -5.25 14.8 14.8 0 0 1 1.5 5.25Z" fill="none" stroke="#000000" stroke-linecap="round" stroke-linejoin="round" stroke-width="1"></path><path d="m18.75 20.25 0 3" fill="none" stroke="#000000" stroke-linecap="round" stroke-linejoin="round" stroke-width="1"></path><path d="m5.25 15.75 4.5 0" fill="none" stroke="#000000" stroke-linecap="round" stroke-linejoin="round" stroke-width="1"></path><path d="m5.25 12.75 4.5 0" fill="none" stroke="#000000" stroke-linecap="round" stroke-linejoin="round" stroke-width="1"></path><path d="m5.25 9.75 4.5 0" fill="none" stroke="#000000" stroke-linecap="round" stroke-linejoin="round" stroke-width="1"></path></svg>