<svg xmlns="http://www.w3.org/2000/svg" fill="none" viewBox="0 0 24 24" id="Building--Streamline-Ultimate"><desc>Building Streamline Icon: https://streamlinehq.com</desc><path stroke="#000000" stroke-linecap="round" stroke-linejoin="round" d="M1.75 0.75h20.5c0.2652 0 0.5196 0.105357 0.7071 0.29289 0.1875 0.18754 0.2929 0.44189 0.2929 0.70711v21.5H0.75V1.75c0 -0.26522 0.105357 -0.51957 0.29289 -0.70711C1.23043 0.855357 1.48478 0.75 1.75 0.75v0Z" stroke-width="1"></path><path stroke="#000000" stroke-linecap="round" stroke-linejoin="round" d="M14.25 0.75v22.5" stroke-width="1"></path><path stroke="#000000" stroke-linecap="round" stroke-linejoin="round" d="M14.25 17.25h9" stroke-width="1"></path><path stroke="#000000" stroke-linecap="round" stroke-linejoin="round" d="M14.25 20.25h9" stroke-width="1"></path><path stroke="#000000" stroke-linecap="round" stroke-linejoin="round" d="M20.25 17.25h-3v-6c0 -0.3978 0.158 -0.7794 0.4393 -1.0607 0.2813 -0.28126 0.6629 -0.4393 1.0607 -0.4393 0.3978 0 0.7794 0.15804 1.0607 0.4393 0.2813 0.2813 0.4393 0.6629 0.4393 1.0607v6Z" stroke-width="1"></path><path stroke="#000000" stroke-linecap="round" stroke-linejoin="round" d="M11.25 9.75h-3v-4.5c0 -0.39782 0.15804 -0.77936 0.43934 -1.06066 0.2813 -0.2813 0.66284 -0.43934 1.06066 -0.43934 0.3978 0 0.7794 0.15804 1.0607 0.43934s0.4393 0.66284 0.4393 1.06066v4.5Z" stroke-width="1"></path><path stroke="#000000" stroke-linecap="round" stroke-linejoin="round" d="M11.25 20.25h-3v-4.5c0 -0.3978 0.15804 -0.7794 0.43934 -1.0607S9.35218 14.25 9.75 14.25c0.3978 0 0.7794 0.158 1.0607 0.4393s0.4393 0.6629 0.4393 1.0607v4.5Z" stroke-width="1"></path><path stroke="#000000" stroke-linecap="round" stroke-linejoin="round" d="M3.75 3.75c0.39782 0 0.77936 0.15804 1.06066 0.43934 0.2813 0.2813 0.43934 0.66284 0.43934 1.06066v4.5h-1.5" stroke-width="1"></path><path stroke="#000000" stroke-linecap="round" stroke-linejoin="round" d="M3.75 14.25c0.39782 0 0.77936 0.158 1.06066 0.4393 0.2813 0.2813 0.43934 0.6629 0.43934 1.0607v4.5h-1.5" stroke-width="1"></path><path stroke="#000000" d="M18.75 5.625c-0.2071 0 -0.375 -0.16789 -0.375 -0.375s0.1679 -0.375 0.375 -0.375" stroke-width="1"></path><path stroke="#000000" d="M18.75 5.625c0.2071 0 0.375 -0.16789 0.375 -0.375s-0.1679 -0.375 -0.375 -0.375" stroke-width="1"></path></svg>