<svg xmlns="http://www.w3.org/2000/svg" fill="none" viewBox="0 0 24 24" id="Floating-Bungalow-2--Streamline-Ultimate"><desc>Floating Bungalow 2 Streamline Icon: https://streamlinehq.com</desc><path stroke="#000000" stroke-linecap="round" stroke-linejoin="round" stroke-miterlimit="10" d="M0.75 23.25c1.48026 0 2.86184 -0.8 3.75 -1.9 0.88816 1.1 2.17106 1.9 3.75 1.9 1.57895 0 2.8618 -0.8 3.75 -1.9 0.8882 1.1 2.1711 1.9 3.75 1.9s2.8618 -0.8 3.75 -1.9c0.8882 1.1 2.1711 1.9 3.75 1.9" stroke-width="1"></path><path stroke="#000000" stroke-linecap="round" stroke-linejoin="round" stroke-miterlimit="10" d="M6.95 11.15c-0.11046 0 -0.2 -0.0895 -0.2 -0.2 0 -0.1105 0.08954 -0.2 0.2 -0.2" stroke-width="1"></path><path stroke="#000000" stroke-linecap="round" stroke-linejoin="round" stroke-miterlimit="10" d="M6.94999 11.15c0.11046 0 0.2 -0.0895 0.2 -0.2 0 -0.1105 -0.08954 -0.2 -0.2 -0.2" stroke-width="1"></path><path stroke="#000000" stroke-linecap="round" stroke-linejoin="round" stroke-miterlimit="10" d="M16.95 11.15c-0.1105 0 -0.2 -0.0895 -0.2 -0.2 0 -0.1105 0.0895 -0.2 0.2 -0.2" stroke-width="1"></path><path stroke="#000000" stroke-linecap="round" stroke-linejoin="round" stroke-miterlimit="10" d="M16.95 11.15c0.1105 0 0.2 -0.0895 0.2 -0.2 0 -0.1105 -0.0895 -0.2 -0.2 -0.2" stroke-width="1"></path><path stroke="#000000" stroke-linecap="round" stroke-linejoin="round" stroke-miterlimit="10" d="M20 6.94999H4V16.15h16V6.94999Z" stroke-width="1"></path><path stroke="#000000" stroke-linecap="round" stroke-linejoin="round" stroke-miterlimit="10" d="M4 16.15v2.6" stroke-width="1"></path><path stroke="#000000" stroke-linecap="round" stroke-linejoin="round" stroke-miterlimit="10" d="M20 16.15v2.6" stroke-width="1"></path><path stroke="#000000" stroke-linecap="round" stroke-linejoin="round" stroke-miterlimit="10" d="M22.25 6.94999c0 -3 -8.2 -6.199994 -10.2 -6.199994S1.75 3.94999 1.75 6.94999h20.5Z" stroke-width="1"></path><path stroke="#000000" stroke-linecap="round" stroke-linejoin="round" stroke-miterlimit="10" d="M10 18.75v-6.8c0 -1.1 0.9 -2.00001 2 -2.00001S14 10.85 14 11.95v6.8" stroke-width="1"></path></svg>