<svg xmlns="http://www.w3.org/2000/svg" fill="none" viewBox="0 0 24 24" id="Soccer-Field-1--Streamline-Ultimate"><desc>Soccer Field 1 Streamline Icon: https://streamlinehq.com</desc><path stroke="#000000" stroke-linecap="round" stroke-linejoin="round" stroke-miterlimit="10" d="M18.25 7.5H5.75v9h12.5v-9Z" stroke-width="1"></path><path stroke="#000000" stroke-linecap="round" stroke-linejoin="round" stroke-miterlimit="10" d="M12 13.8c0.9941 0 1.8 -0.8059 1.8 -1.8 0 -0.9941 -0.8059 -1.8 -1.8 -1.8 -0.9941 0 -1.8 0.8059 -1.8 1.8 0 0.9941 0.8059 1.8 1.8 1.8Z" stroke-width="1"></path><path stroke="#000000" stroke-linecap="round" stroke-linejoin="round" stroke-miterlimit="10" d="M12 10.2V7.5" stroke-width="1"></path><path stroke="#000000" stroke-linecap="round" stroke-linejoin="round" stroke-miterlimit="10" d="M12 13.8v2.7" stroke-width="1"></path><path stroke="#000000" stroke-linecap="round" stroke-linejoin="round" stroke-miterlimit="10" d="M23.25 12c0 5 -4 9 -9 9h-4.5c-5 0 -9 -4 -9 -9s4 -9 9 -9h4.5c5 0 9 4 9 9Z" stroke-width="1"></path></svg>