<svg xmlns="http://www.w3.org/2000/svg" fill="none" viewBox="0 0 24 24" id="Stadium-2--Streamline-Ultimate"><desc>Stadium 2 Streamline Icon: https://streamlinehq.com</desc><path stroke="#000000" stroke-linecap="round" stroke-linejoin="round" stroke-miterlimit="10" d="m3.95 0.75 3.5 7.2" stroke-width="1"></path><path stroke="#000000" stroke-linecap="round" stroke-linejoin="round" stroke-miterlimit="10" d="m18.95 0.75 -2 4.2" stroke-width="1"></path><path stroke="#000000" stroke-linecap="round" stroke-linejoin="round" stroke-miterlimit="10" d="M1.75 15.15h20.4" stroke-width="1"></path><path stroke="#000000" stroke-linecap="round" stroke-linejoin="round" stroke-miterlimit="10" d="M3.45 19.75v-4.6" stroke-width="1"></path><path stroke="#000000" stroke-linecap="round" stroke-linejoin="round" stroke-miterlimit="10" d="M20.45 15.15v4.6" stroke-width="1"></path><path stroke="#000000" stroke-linecap="round" stroke-linejoin="round" stroke-miterlimit="10" d="M14.95 15.15v4.6" stroke-width="1"></path><path stroke="#000000" stroke-linecap="round" stroke-linejoin="round" stroke-miterlimit="10" d="M8.95 15.15v4.6" stroke-width="1"></path><path stroke="#000000" stroke-linecap="round" stroke-linejoin="round" stroke-miterlimit="10" d="M0.75 23.25v-1.5c0 -1.1 0.9 -2 2 -2h18.5c1.1 0 2 0.9 2 2v1.5H0.75Z" stroke-width="1"></path><path stroke="#000000" stroke-linecap="round" stroke-linejoin="round" stroke-miterlimit="10" d="M20.95 15.15v-5.0675c0 -0.60812 -0.2 -1.21623 -0.7 -1.72298 -0.8 -0.8108 -2 -0.91214 -2.9 -0.40539l-5.9 3.54727h-6c-1.4 0 -2.5 1.1148 -2.5 2.5337V15.15" stroke-width="1"></path></svg>