<svg xmlns="http://www.w3.org/2000/svg" fill="none" viewBox="0 0 24 24" id="Stadium-Classic-1--Streamline-Ultimate"><desc>Stadium Classic 1 Streamline Icon: https://streamlinehq.com</desc><path stroke="#000000" stroke-linecap="round" stroke-linejoin="round" stroke-miterlimit="10" d="M23.1 13.85c0.2 0.3 0.2 0.7 0 1 -0.2 0.3 -0.5 0.5 -0.9 0.5H1.8c-0.4 0 -0.7 -0.2 -0.9 -0.5 -0.2 -0.3 -0.2 -0.7 0 -1l2.6 -4.69999c0.4 -0.6 1 -1 1.8 -1h13.5c0.7 0 1.4 0.4 1.8 1L23.1 13.85Z" stroke-width="1"></path><path stroke="#000000" stroke-linecap="round" stroke-linejoin="round" stroke-miterlimit="10" d="M23.25 14.25v9H0.75v-9" stroke-width="1"></path><path stroke="#000000" stroke-linecap="round" stroke-linejoin="round" stroke-miterlimit="10" d="m5.5 15.35 1.8 -3.8h9.4l1.8 3.8" stroke-width="1"></path><path stroke="#000000" stroke-linecap="round" stroke-linejoin="round" stroke-miterlimit="10" d="M10 23.25v-3.2c0 -1.1 0.9 -2 2 -2s2 0.9 2 2v3.2" stroke-width="1"></path><path stroke="#000000" stroke-linecap="round" stroke-linejoin="round" stroke-miterlimit="10" d="M3.975 23.25v-2.3189c0 -0.8433 0.7 -1.5811 1.5 -1.5811s1.5 0.7378 1.5 1.5811V23.25" stroke-width="1"></path><path stroke="#000000" stroke-linecap="round" stroke-linejoin="round" stroke-miterlimit="10" d="M19.975 23.25v-2.3189c0 -0.8433 -0.7 -1.5811 -1.5 -1.5811s-1.5 0.7378 -1.5 1.5811V23.25" stroke-width="1"></path><path stroke="#000000" stroke-linecap="round" stroke-linejoin="round" stroke-miterlimit="10" d="M16 3.74998c0 0.6 -0.4 1 -1 1H9c-0.6 0 -1 -0.4 -1 -1v-2c0 -0.6 0.4 -0.999995 1 -0.999995h6c0.6 0 1 0.399995 1 0.999995v2Z" stroke-width="1"></path><path stroke="#000000" stroke-linecap="round" stroke-linejoin="round" stroke-miterlimit="10" d="M4.95 8.17188V5.25002m0 0H0.75V1.84999h4.2v3.40003Z" stroke-width="1"></path><path stroke="#000000" stroke-linecap="round" stroke-linejoin="round" stroke-miterlimit="10" d="M19.05 8.13281V5.25002m0 0h4.2V1.84999h-4.2v3.40003Z" stroke-width="1"></path><path stroke="#000000" stroke-linecap="round" stroke-linejoin="round" stroke-miterlimit="10" d="M14.25 4.74998v3.39846" stroke-width="1"></path><path stroke="#000000" stroke-linecap="round" stroke-linejoin="round" stroke-miterlimit="10" d="M9.75 4.74998v3.39846" stroke-width="1"></path></svg>