<svg xmlns="http://www.w3.org/2000/svg" fill="none" viewBox="0 0 24 24" id="Tennis-Stadium--Streamline-Ultimate"><desc>Tennis Stadium Streamline Icon: https://streamlinehq.com</desc><path stroke="#000000" stroke-linecap="round" stroke-linejoin="round" stroke-miterlimit="10" d="M19.455 8.47211c2.2173 0.88337 3.795 3.05529 3.795 5.57789v9.2H0.75v-9.2c0 -2.5226 1.57767 -4.69452 3.79503 -5.57789" stroke-width="1"></path><path stroke="#000000" stroke-linecap="round" stroke-linejoin="round" stroke-miterlimit="10" d="M17 23.25H7v-3.5c0 -1.1 0.9 -2 2 -2h6c1.1 0 2 0.9 2 2v3.5Z" stroke-width="1"></path><path stroke="#000000" stroke-linecap="round" stroke-linejoin="round" stroke-miterlimit="10" d="m0.75 13.95 22.5 0" stroke-width="1"></path><path stroke="#000000" stroke-linecap="round" stroke-linejoin="round" stroke-miterlimit="10" d="M12.05 10.75c2.7614 0 5 -2.23858 5 -5s-2.2386 -5 -5 -5c-2.76142 0 -5 2.23858 -5 5s2.23858 5 5 5Z" stroke-width="1"></path><path stroke="#000000" stroke-linecap="round" stroke-linejoin="round" stroke-miterlimit="10" d="M13.0563 0.857819c-0.3 1.300001 -1 2.600011 -2.2 3.700011 -1.10005 1.1 -2.50005 1.90001 -3.70005 2.20001" stroke-width="1"></path><path stroke="#000000" stroke-linecap="round" stroke-linejoin="round" stroke-miterlimit="10" d="M16.95 4.75c-1.3 0.3 -2.6 1.00001 -3.7 2.20001 -1.1 1.1 -1.9 2.50001 -2.2 3.69999" stroke-width="1"></path></svg>