<svg xmlns="http://www.w3.org/2000/svg" viewBox="0 0 24 24" id="Kitchen-Counter-1--Streamline-Ultimate"><desc>Kitchen Counter 1 Streamline Icon: https://streamlinehq.com</desc><g><path d="M0.75 9.25h20.5a2 2 0 0 0 0 -4H0.75" fill="none" stroke="#000000" stroke-linecap="round" stroke-linejoin="round" stroke-width="1"></path><path d="m0.75 0.75 0 22.5" fill="none" stroke="#000000" stroke-linecap="round" stroke-linejoin="round" stroke-width="1"></path><path d="m21.75 9.18 0 14.07" fill="none" stroke="#000000" stroke-linecap="round" stroke-linejoin="round" stroke-width="1"></path><path d="m6.75 23.25 0 -7.5" fill="none" stroke="#000000" stroke-linecap="round" stroke-linejoin="round" stroke-width="1"></path><path d="m15.75 23.25 0 -7.5" fill="none" stroke="#000000" stroke-linecap="round" stroke-linejoin="round" stroke-width="1"></path><path d="M8.25 15.75a1.5 1.5 0 0 0 0 -3h-3a1.5 1.5 0 0 0 0 3Z" fill="none" stroke="#000000" stroke-linecap="round" stroke-linejoin="round" stroke-width="1"></path><path d="M17.25 15.75a1.5 1.5 0 0 0 0 -3h-3a1.5 1.5 0 0 0 0 3Z" fill="none" stroke="#000000" stroke-linecap="round" stroke-linejoin="round" stroke-width="1"></path><path d="m19.5 0.75 -4.5 0 0.75 4.5 3 0 0.75 -4.5z" fill="none" stroke="#000000" stroke-linecap="round" stroke-linejoin="round" stroke-width="1"></path></g></svg>