<svg id="Kitchen-Knife-Set--Streamline-Ultimate" xmlns="http://www.w3.org/2000/svg" viewBox="0 0 24 24"><desc>Kitchen Knife Set Streamline Icon: https://streamlinehq.com</desc><defs></defs><title>kitchen-knife-set</title><path d="m5.521 9.851 2.873 -7.443a1.139 1.139 0 0 1 1.474 -0.653h0a1.14 1.14 0 0 1 0.653 1.474l-2.877 7.442" fill="none" stroke="#000000" stroke-linecap="round" stroke-linejoin="round" stroke-width="1"></path><path d="M10.753 13.249a1.138 1.138 0 0 0 -0.593 -1.607L5.521 9.851l-1.311 3.4" fill="none" stroke="#000000" stroke-linecap="round" stroke-linejoin="round" stroke-width="1"></path><path d="M2.473 17.749 1.025 21.5a0.6 0.6 0 0 0 0.628 0.817c2.05 -0.277 4.136 -1.895 6.192 -4.568" fill="none" stroke="#000000" stroke-linecap="round" stroke-linejoin="round" stroke-width="1"></path><path d="m16.537 9.851 2.873 -7.443a1.139 1.139 0 0 1 1.474 -0.653h0a1.14 1.14 0 0 1 0.653 1.474l-2.877 7.442" fill="none" stroke="#000000" stroke-linecap="round" stroke-linejoin="round" stroke-width="1"></path><path d="M13.489 17.749 12.041 21.5a0.6 0.6 0 0 0 0.628 0.817c2.051 -0.277 4.136 -1.895 6.192 -4.568" fill="none" stroke="#000000" stroke-linecap="round" stroke-linejoin="round" stroke-width="1"></path><path d="M21.769 13.249a1.138 1.138 0 0 0 -0.593 -1.607l-4.639 -1.791 -1.311 3.4" fill="none" stroke="#000000" stroke-linecap="round" stroke-linejoin="round" stroke-width="1"></path><path d="M1.5 13.249h21s0.75 0 0.75 0.75v3s0 0.75 -0.75 0.75h-21s-0.75 0 -0.75 -0.75v-3s0 -0.75 0.75 -0.75" fill="none" stroke="#000000" stroke-linecap="round" stroke-linejoin="round" stroke-width="1"></path></svg>