<svg xmlns="http://www.w3.org/2000/svg" viewBox="0 0 24 24" id="Kitchen-Shelf--Streamline-Ultimate"><desc>Kitchen Shelf Streamline Icon: https://streamlinehq.com</desc><g><path d="M21.25 9.25a2 2 0 0 0 0 -4H2.75a2 2 0 0 0 0 4Z" fill="none" stroke="#000000" stroke-linecap="round" stroke-linejoin="round" stroke-width="1"></path><path d="M12.75 0.75a4.5 4.5 0 0 1 -9 0Z" fill="none" stroke="#000000" stroke-linecap="round" stroke-linejoin="round" stroke-width="1"></path><g><path d="M8.25 20.25a3 3 0 0 1 -6 0Z" fill="none" stroke="#000000" stroke-linecap="round" stroke-linejoin="round" stroke-width="1"></path><path d="M11.25 14.25a1.5 1.5 0 0 0 -3 0v6" fill="none" stroke="#000000" stroke-linecap="round" stroke-linejoin="round" stroke-width="1"></path></g><g><path d="M15 20.25a2.25 3 0 1 0 4.5 0 2.25 3 0 1 0 -4.5 0" fill="none" stroke="#000000" stroke-linecap="round" stroke-linejoin="round" stroke-width="1"></path><path d="m17.25 17.25 0 -4.5" fill="none" stroke="#000000" stroke-linecap="round" stroke-linejoin="round" stroke-width="1"></path></g></g></svg>