<svg id="Kitchen-Window--Streamline-Ultimate" xmlns="http://www.w3.org/2000/svg" viewBox="0 0 24 24"><desc>Kitchen Window Streamline Icon: https://streamlinehq.com</desc><defs></defs><title>kitchen-window</title><path d="m0.75 0.5 22.5 0" fill="none" stroke="#000000" stroke-linecap="round" stroke-linejoin="round" stroke-width="1"></path><path d="M2.25 0.5h19.5v18H2.25Z" fill="none" stroke="#000000" stroke-linecap="round" stroke-linejoin="round" stroke-width="1"></path><path d="M2.25 0.5V5h1.629a2.25 2.25 0 0 1 4.242 0h1.758a2.25 2.25 0 0 1 4.242 0h1.758a2.25 2.25 0 0 1 4.242 0h1.629V0.5Z" fill="none" stroke="#000000" stroke-linecap="round" stroke-linejoin="round" stroke-width="1"></path><path d="M2.25 18.5V23h1.629a2.25 2.25 0 0 1 4.242 0h1.758a2.25 2.25 0 0 1 4.242 0h1.758a2.25 2.25 0 0 1 4.242 0h1.629v-4.5Z" fill="none" stroke="#000000" stroke-linecap="round" stroke-linejoin="round" stroke-width="1"></path><path d="m2.25 11 19.5 0" fill="none" stroke="#000000" stroke-linecap="round" stroke-linejoin="round" stroke-width="1"></path><path d="M2.25 14h3v4.5h-3Z" fill="none" stroke="#000000" stroke-linecap="round" stroke-linejoin="round" stroke-width="1"></path><path d="M15.75 14h3v4.5h-3Z" fill="none" stroke="#000000" stroke-linecap="round" stroke-linejoin="round" stroke-width="1"></path><path d="M18.75 14h3v4.5h-3Z" fill="none" stroke="#000000" stroke-linecap="round" stroke-linejoin="round" stroke-width="1"></path></svg>