<svg xmlns="http://www.w3.org/2000/svg" viewBox="0 0 24 24" id="Playlist--Streamline-Ultimate"><desc>Playlist Streamline Icon: https://streamlinehq.com</desc><defs></defs><title>playlist</title><path d="m0.75 5.25 0 15" fill="none" stroke="#000000" stroke-linecap="round" stroke-linejoin="round" stroke-width="1"></path><path d="m23.25 5.25 0 15" fill="none" stroke="#000000" stroke-linecap="round" stroke-linejoin="round" stroke-width="1"></path><path d="M5.25 2.25h13.5s1.5 0 1.5 1.5v16.5s0 1.5 -1.5 1.5H5.25s-1.5 0 -1.5 -1.5V3.75s0 -1.5 1.5 -1.5" fill="none" stroke="#000000" stroke-linecap="round" stroke-linejoin="round" stroke-width="1"></path><path d="M6 16.125a1.875 1.875 0 1 0 3.75 0 1.875 1.875 0 1 0 -3.75 0" fill="none" stroke="#000000" stroke-linecap="round" stroke-linejoin="round" stroke-width="1"></path><path d="M13.5 13.875a1.875 1.875 0 1 0 3.75 0 1.875 1.875 0 1 0 -3.75 0" fill="none" stroke="#000000" stroke-linecap="round" stroke-linejoin="round" stroke-width="1"></path><path d="M9.75 16.125V9.5a1.5 1.5 0 0 1 1.026 -1.423l4.5 -1.25A1.5 1.5 0 0 1 17.25 8.25v5.625" fill="none" stroke="#000000" stroke-linecap="round" stroke-linejoin="round" stroke-width="1"></path></svg>