<svg viewBox="0 0 24 24" xmlns="http://www.w3.org/2000/svg" id="Playlist-Menu--Streamline-Ultimate"><desc>Playlist Menu Streamline Icon: https://streamlinehq.com</desc><path d="M20.25 11.25V3a1.5 1.5 0 0 0 -1.5 -1.5H2.25A1.5 1.5 0 0 0 0.75 3v15a1.5 1.5 0 0 0 1.5 1.5h6" fill="none" stroke="#000000" stroke-linecap="round" stroke-linejoin="round" stroke-width="1"></path><path d="M4.5 13.875a1.875 1.875 0 1 0 3.75 0 1.875 1.875 0 1 0 -3.75 0Z" fill="none" stroke="#000000" stroke-linecap="round" stroke-linejoin="round" stroke-width="1"></path><path d="M8.25 13.875V7.081a1.5 1.5 0 0 1 1.026 -1.423l4.5 -1.25a1.5 1.5 0 0 1 1.974 1.423v5.794" fill="none" stroke="#000000" stroke-linecap="round" stroke-linejoin="round" stroke-width="1"></path><path d="M12 11.625a1.875 1.875 0 1 0 3.75 0 1.875 1.875 0 1 0 -3.75 0Z" fill="none" stroke="#000000" stroke-linecap="round" stroke-linejoin="round" stroke-width="1"></path><path d="m23.25 22.5 -10.5 0" fill="none" stroke="#000000" stroke-linecap="round" stroke-linejoin="round" stroke-width="1"></path><path d="m23.25 19.5 -10.5 0" fill="none" stroke="#000000" stroke-linecap="round" stroke-linejoin="round" stroke-width="1"></path><path d="m23.25 16.5 -10.5 0" fill="none" stroke="#000000" stroke-linecap="round" stroke-linejoin="round" stroke-width="1"></path></svg>