<svg xmlns="http://www.w3.org/2000/svg" fill="none" viewBox="0 0 24 24" id="Playlist-Lock--Streamline-Ultimate"><desc>Playlist Lock Streamline Icon: https://streamlinehq.com</desc><path stroke="#000000" stroke-linecap="round" stroke-linejoin="round" d="M20.25 8.25v-6c0 -0.39782 -0.158 -0.77936 -0.4393 -1.06066C19.5294 0.908035 19.1478 0.75 18.75 0.75H2.25c-0.39782 0 -0.77936 0.158035 -1.06066 0.43934C0.908035 1.47064 0.75 1.85218 0.75 2.25v15c0 0.3978 0.158035 0.7794 0.43934 1.0607 0.2813 0.2813 0.66284 0.4393 1.06066 0.4393h9" stroke-width="1"></path><path stroke="#000000" stroke-linecap="round" stroke-linejoin="round" d="M6.375 15c1.03553 0 1.875 -0.8395 1.875 -1.875 0 -1.0355 -0.83947 -1.875 -1.875 -1.875S4.5 12.0895 4.5 13.125C4.5 14.1605 5.33947 15 6.375 15Z" stroke-width="1"></path><path stroke="#000000" stroke-linecap="round" stroke-linejoin="round" d="M8.25 13.1249V6.33092c0.00003 -0.31487 0.09914 -0.62173 0.28328 -0.87713 0.18415 -0.2554 0.44399 -0.44638 0.74272 -0.54587l4.5 -1.25c0.2255 -0.0751 0.4655 -0.09555 0.7004 -0.05967 0.235 0.03587 0.458 0.12704 0.6508 0.26601 0.1927 0.13896 0.3497 0.32173 0.458 0.53326 0.1083 0.21153 0.1648 0.44576 0.1648 0.6834v3.169" stroke-width="1"></path><path stroke="#000000" stroke-linecap="round" stroke-linejoin="round" d="M21.75 15.75h-6c-0.8284 0 -1.5 0.6716 -1.5 1.5v4.5c0 0.8284 0.6716 1.5 1.5 1.5h6c0.8284 0 1.5 -0.6716 1.5 -1.5v-4.5c0 -0.8284 -0.6716 -1.5 -1.5 -1.5Z" stroke-width="1"></path><path stroke="#000000" stroke-linecap="round" stroke-linejoin="round" d="M18.75 11.25c-0.7956 0 -1.5587 0.3161 -2.1213 0.8787 -0.5626 0.5626 -0.8787 1.3257 -0.8787 2.1213v1.5h6v-1.5c0 -0.7956 -0.3161 -1.5587 -0.8787 -2.1213 -0.5626 -0.5626 -1.3257 -0.8787 -2.1213 -0.8787Z" stroke-width="1"></path><path stroke="#000000" d="M18.75 19.9041c-0.2071 0 -0.375 -0.1679 -0.375 -0.375 0 -0.2072 0.1679 -0.375 0.375 -0.375" stroke-width="1"></path><path stroke="#000000" d="M18.75 19.9041c0.2071 0 0.375 -0.1679 0.375 -0.375 0 -0.2072 -0.1679 -0.375 -0.375 -0.375" stroke-width="1"></path></svg>