<svg viewBox="0 0 24 24" xmlns="http://www.w3.org/2000/svg" id="Playlist-Search--Streamline-Ultimate"><desc>Playlist Search Streamline Icon: https://streamlinehq.com</desc><path d="M20.25 7.5V2.25a1.5 1.5 0 0 0 -1.5 -1.5H2.25a1.5 1.5 0 0 0 -1.5 1.5v15a1.5 1.5 0 0 0 1.5 1.5h4.5" fill="none" stroke="#000000" stroke-linecap="round" stroke-linejoin="round" stroke-width="1"></path><path d="M4.514 13.139a1.875 1.875 0 1 0 3.75 0 1.875 1.875 0 1 0 -3.75 0Z" fill="none" stroke="#000000" stroke-linecap="round" stroke-linejoin="round" stroke-width="1"></path><path d="M8.264 13.139V6.345A1.5 1.5 0 0 1 9.29 4.922l4.5 -1.25A1.5 1.5 0 0 1 15.764 5.1v2.414" fill="none" stroke="#000000" stroke-linecap="round" stroke-linejoin="round" stroke-width="1"></path><path d="M10.5 15.75a5.25 5.25 0 1 0 10.5 0 5.25 5.25 0 1 0 -10.5 0Z" fill="none" stroke="#000000" stroke-linecap="round" stroke-linejoin="round" stroke-width="1"></path><path d="m23.25 23.25 -3.788 -3.788" fill="none" stroke="#000000" stroke-linecap="round" stroke-linejoin="round" stroke-width="1"></path></svg>