<svg viewBox="0 0 24 24" xmlns="http://www.w3.org/2000/svg" id="Playlist-Star-Favorite--Streamline-Ultimate"><desc>Playlist Star Favorite Streamline Icon: https://streamlinehq.com</desc><path d="M20.25 8.25v-6a1.5 1.5 0 0 0 -1.5 -1.5H2.25a1.5 1.5 0 0 0 -1.5 1.5v15a1.5 1.5 0 0 0 1.5 1.5H9" fill="none" stroke="#000000" stroke-linecap="round" stroke-linejoin="round" stroke-width="1"></path><path d="M4.5 13.125a1.875 1.875 0 1 0 3.75 0 1.875 1.875 0 1 0 -3.75 0Z" fill="none" stroke="#000000" stroke-linecap="round" stroke-linejoin="round" stroke-width="1"></path><path d="M8.25 13.125V6.331a1.5 1.5 0 0 1 1.026 -1.423l4.5 -1.25a1.5 1.5 0 0 1 1.974 1.423V9" fill="none" stroke="#000000" stroke-linecap="round" stroke-linejoin="round" stroke-width="1"></path><path d="m17.947 11.68 1.541 4.07h3a0.735 0.735 0 0 1 0.518 1.283l-2.6 1.816 1.442 3.313a0.786 0.786 0 0 1 -1.119 0.982l-3.489 -1.961 -3.487 1.961a0.786 0.786 0 0 1 -1.119 -0.982l1.443 -3.313 -2.6 -1.816a0.734 0.734 0 0 1 0.515 -1.283h3l1.544 -4.07a0.8 0.8 0 0 1 1.411 0Z" fill="none" stroke="#000000" stroke-linecap="round" stroke-linejoin="round" stroke-width="1"></path></svg>