<svg viewBox="0 0 24 24" xmlns="http://www.w3.org/2000/svg" id="Electricity-Tower-1--Streamline-Ultimate"><desc>Electricity Tower 1 Streamline Icon: https://streamlinehq.com</desc><path d="m0.75 23.25 22.5 0" fill="none" stroke="#000000" stroke-linecap="round" stroke-linejoin="round" stroke-width="1"></path><path d="M9.75 2.25h4.5v21h-4.5z" fill="none" stroke="#000000" stroke-linecap="round" stroke-linejoin="round" stroke-width="1"></path><path d="m9.75 6.75 4.5 0" fill="none" stroke="#000000" stroke-linecap="round" stroke-linejoin="round" stroke-width="1"></path><path d="m9.75 11.25 4.5 0" fill="none" stroke="#000000" stroke-linecap="round" stroke-linejoin="round" stroke-width="1"></path><path d="m9.75 15.75 4.5 0" fill="none" stroke="#000000" stroke-linecap="round" stroke-linejoin="round" stroke-width="1"></path><path d="m5.25 2.25 4.5 0" fill="none" stroke="#000000" stroke-linecap="round" stroke-linejoin="round" stroke-width="1"></path><path d="m5.25 6.75 4.5 0" fill="none" stroke="#000000" stroke-linecap="round" stroke-linejoin="round" stroke-width="1"></path><path d="M9.75 11.25h-0.879a1.5 1.5 0 0 0 -1.06 0.439L4.39 15.11a0.375 0.375 0 0 0 0.265 0.64h5.1" fill="none" stroke="#000000" stroke-linecap="round" stroke-linejoin="round" stroke-width="1"></path><path d="m18.75 2.25 -4.5 0" fill="none" stroke="#000000" stroke-linecap="round" stroke-linejoin="round" stroke-width="1"></path><path d="m18.75 6.75 -4.5 0" fill="none" stroke="#000000" stroke-linecap="round" stroke-linejoin="round" stroke-width="1"></path><path d="M14.25 11.25h0.879a1.5 1.5 0 0 1 1.06 0.439l3.421 3.421a0.375 0.375 0 0 1 -0.265 0.64H14.25" fill="none" stroke="#000000" stroke-linecap="round" stroke-linejoin="round" stroke-width="1"></path></svg>