<svg xmlns="http://www.w3.org/2000/svg" viewBox="0 0 24 24" id="Taking-Pictures-Man--Streamline-Ultimate"><desc>Taking Pictures Man Streamline Icon: https://streamlinehq.com</desc><g><path d="M15.75 6a8.66 8.66 0 0 0 3.7 -0.71" fill="none" stroke="#000000" stroke-linecap="round" stroke-linejoin="round" stroke-width="1"></path><path d="M13.5 0.8a6.16 6.16 0 0 1 0.75 -0.05 5.25 5.25 0 0 1 2.25 10" fill="none" stroke="#000000" stroke-linecap="round" stroke-linejoin="round" stroke-width="1"></path><path d="M5.25 23.25a9 9 0 0 1 18 0" fill="none" stroke="#000000" stroke-linecap="round" stroke-linejoin="round" stroke-width="1"></path><path d="M9.75 3.75 9 2.25H4.5l-0.75 1.5h-1.5a1.5 1.5 0 0 0 -1.5 1.5v4.5a1.5 1.5 0 0 0 1.5 1.5h9a1.5 1.5 0 0 0 1.5 -1.5v-4.5a1.5 1.5 0 0 0 -1.5 -1.5Z" fill="none" stroke="#000000" stroke-linecap="round" stroke-linejoin="round" stroke-width="1"></path><path d="M4.87 7.12a1.88 1.88 0 1 0 3.76 0 1.88 1.88 0 1 0 -3.76 0" fill="none" stroke="#000000" stroke-linecap="round" stroke-linejoin="round" stroke-width="1"></path></g></svg>