<svg xmlns="http://www.w3.org/2000/svg" viewBox="0 0 24 24" id="Taking-Pictures-Square--Streamline-Ultimate"><desc>Taking Pictures Square Streamline Icon: https://streamlinehq.com</desc><defs></defs><title>taking-pictures-square</title><path d="m15 8.25 -0.75 -1.5h-4.5L9 8.25H6.75a1.5 1.5 0 0 0 -1.5 1.5v6a1.5 1.5 0 0 0 1.5 1.5h10.5a1.5 1.5 0 0 0 1.5 -1.5v-6a1.5 1.5 0 0 0 -1.5 -1.5Z" fill="none" stroke="#000000" stroke-linecap="round" stroke-linejoin="round" stroke-width="1"></path><path d="M10.125 12.375a1.875 1.875 0 1 0 3.75 0 1.875 1.875 0 1 0 -3.75 0" fill="none" stroke="#000000" stroke-linecap="round" stroke-linejoin="round" stroke-width="1"></path><path d="M3.75 0.75h16.5s3 0 3 3v16.5s0 3 -3 3H3.75s-3 0 -3 -3V3.75s0 -3 3 -3" fill="none" stroke="#000000" stroke-linecap="round" stroke-linejoin="round" stroke-width="1"></path></svg>