<svg xmlns="http://www.w3.org/2000/svg" fill="none" viewBox="0 0 24 24" id="List-Remove--Streamline-Ultimate"><desc>List Remove Streamline Icon: https://streamlinehq.com</desc><path stroke="#000000" stroke-linecap="round" stroke-linejoin="round" d="M5.25 2.12305h15" stroke-width="1"></path><path stroke="#000000" stroke-linecap="round" stroke-linejoin="round" d="M5.25 8.12305h15" stroke-width="1"></path><path stroke="#000000" stroke-linecap="round" stroke-linejoin="round" d="M5.25 14.123h3" stroke-width="1"></path><path stroke="#000000" d="M1.125 8.49805c-0.207107 0 -0.375 -0.1679 -0.375 -0.375 0 -0.20711 0.167893 -0.375 0.375 -0.375" stroke-width="1"></path><path stroke="#000000" d="M1.125 8.49805c0.20711 0 0.375 -0.1679 0.375 -0.375 0 -0.20711 -0.16789 -0.375 -0.375 -0.375" stroke-width="1"></path><path stroke="#000000" d="M1.125 14.498c-0.207107 0 -0.375 -0.1678 -0.375 -0.375 0 -0.2071 0.167893 -0.375 0.375 -0.375" stroke-width="1"></path><path stroke="#000000" d="M1.125 14.498c0.20711 0 0.375 -0.1678 0.375 -0.375 0 -0.2071 -0.16789 -0.375 -0.375 -0.375" stroke-width="1"></path><path stroke="#000000" d="M1.125 2.49805c-0.207107 0 -0.375 -0.1679 -0.375 -0.375 0 -0.20711 0.167893 -0.375 0.375 -0.375" stroke-width="1"></path><path stroke="#000000" d="M1.125 2.49805c0.20711 0 0.375 -0.1679 0.375 -0.375 0 -0.20711 -0.16789 -0.375 -0.375 -0.375" stroke-width="1"></path><path stroke="#000000" stroke-linecap="round" stroke-linejoin="round" d="M17.25 23.123c3.3137 0 6 -2.6862 6 -6 0 -3.3137 -2.6863 -6 -6 -6s-6 2.6863 -6 6c0 3.3138 2.6863 6 6 6Z" stroke-width="1"></path><path stroke="#000000" stroke-linecap="round" stroke-linejoin="round" d="M14.25 17.123h6" stroke-width="1"></path></svg>