<svg xmlns="http://www.w3.org/2000/svg" viewBox="0 0 24 24" id="List-Bullets-1--Streamline-Ultimate"><desc>List Bullets 1 Streamline Icon: https://streamlinehq.com</desc><g><path d="m8.25 3 15 0" fill="none" stroke="#000000" stroke-linecap="round" stroke-linejoin="round" stroke-width="1"></path><path d="m8.25 12 15 0" fill="none" stroke="#000000" stroke-linecap="round" stroke-linejoin="round" stroke-width="1"></path><path d="m8.25 21 15 0" fill="none" stroke="#000000" stroke-linecap="round" stroke-linejoin="round" stroke-width="1"></path><path d="M1.5 0.75h3s0.75 0 0.75 0.75v3s0 0.75 -0.75 0.75h-3s-0.75 0 -0.75 -0.75v-3s0 -0.75 0.75 -0.75" fill="none" stroke="#000000" stroke-linecap="round" stroke-linejoin="round" stroke-width="1"></path><path d="M1.5 9.75h3s0.75 0 0.75 0.75v3s0 0.75 -0.75 0.75h-3s-0.75 0 -0.75 -0.75v-3s0 -0.75 0.75 -0.75" fill="none" stroke="#000000" stroke-linecap="round" stroke-linejoin="round" stroke-width="1"></path><path d="M1.5 18.75h3s0.75 0 0.75 0.75v3s0 0.75 -0.75 0.75h-3s-0.75 0 -0.75 -0.75v-3s0 -0.75 0.75 -0.75" fill="none" stroke="#000000" stroke-linecap="round" stroke-linejoin="round" stroke-width="1"></path></g></svg>