<svg xmlns="http://www.w3.org/2000/svg" fill="none" viewBox="0 0 24 24" id="Avatar-Tribal-Man--Streamline-Ultimate"><desc>Avatar Tribal Man Streamline Icon: https://streamlinehq.com</desc><path stroke="#000000" stroke-linecap="round" stroke-linejoin="round" d="M2.25 23.25c0 -2.5859 1.02723 -5.0658 2.85571 -6.8943S9.41414 13.5 12 13.5c2.5859 0 5.0658 1.0272 6.8943 2.8557 1.8285 1.8285 2.8557 4.3084 2.8557 6.8943" stroke-width="1"></path><path stroke="#000000" stroke-linecap="round" stroke-linejoin="round" d="M16.725 3.75004c-0.4216 -0.89695 -1.0898 -1.65536 -1.9266 -2.18659C13.9617 1.03222 12.9911 0.750122 12 0.750122c-0.9911 0 -1.9617 0.282098 -2.79844 0.813328 -0.83671 0.53123 -1.50493 1.28964 -1.92656 2.18659h9.45Z" stroke-width="1"></path><path stroke="#000000" stroke-linecap="round" stroke-linejoin="round" d="M7.806 9.10901c0.48006 0.663 1.11047 1.20279 1.83951 1.57499 0.72909 0.3722 1.53589 0.5662 2.35449 0.5662 0.8186 0 1.6254 -0.194 2.3545 -0.5662 0.729 -0.3722 1.3594 -0.91199 1.8395 -1.57499" stroke-width="1"></path><path stroke="#000000" stroke-linecap="round" stroke-linejoin="round" d="m7.172 14.777 2.279 4.76" stroke-width="1"></path><path stroke="#000000" stroke-linecap="round" stroke-linejoin="round" d="m16.828 14.777 -2.279 4.76" stroke-width="1"></path><path stroke="#000000" stroke-linecap="round" stroke-linejoin="round" d="M3.25 20.25h1.5" stroke-width="1"></path><path stroke="#000000" stroke-linecap="round" stroke-linejoin="round" d="M2.25 23.25h2.5" stroke-width="1"></path><path stroke="#000000" d="M6.797 6.75c-0.20711 0 -0.375 -0.16789 -0.375 -0.375S6.58989 6 6.797 6" stroke-width="1"></path><path stroke="#000000" d="M6.797 6.75c0.2071 0 0.375 -0.16789 0.375 -0.375S7.0041 6 6.797 6" stroke-width="1"></path><path stroke="#000000" d="M10.261 6.75c-0.2071 0 -0.375 -0.16789 -0.375 -0.375S10.0539 6 10.261 6" stroke-width="1"></path><path stroke="#000000" d="M10.261 6.75c0.2071 0 0.375 -0.16789 0.375 -0.375S10.4681 6 10.261 6" stroke-width="1"></path><path stroke="#000000" d="M13.7395 6.75c-0.2071 0 -0.375 -0.16789 -0.375 -0.375s0.1679 -0.375 0.375 -0.375" stroke-width="1"></path><path stroke="#000000" d="M13.7395 6.75c0.2071 0 0.375 -0.16789 0.375 -0.375S13.9466 6 13.7395 6" stroke-width="1"></path><path stroke="#000000" d="M17.218 6.75c-0.2071 0 -0.375 -0.16789 -0.375 -0.375S17.0109 6 17.218 6" stroke-width="1"></path><path stroke="#000000" d="M17.218 6.75c0.2071 0 0.375 -0.16789 0.375 -0.375S17.4251 6 17.218 6" stroke-width="1"></path><path stroke="#000000" stroke-linecap="round" stroke-linejoin="round" d="M20.75 20.25h-1.5" stroke-width="1"></path><path stroke="#000000" stroke-linecap="round" stroke-linejoin="round" d="M21.75 23.25h-2.5" stroke-width="1"></path></svg>