<svg xmlns="http://www.w3.org/2000/svg" fill="none" viewBox="0 0 24 24" id="Avatar-Arabian-Man-2--Streamline-Ultimate"><desc>Avatar Arabian Man 2 Streamline Icon: https://streamlinehq.com</desc><path stroke="#000000" stroke-linecap="round" stroke-linejoin="round" d="M8.725 15.411C4.811 16.433 2 19.281 2 23" stroke-width="1"></path><path stroke="#000000" stroke-linecap="round" stroke-linejoin="round" d="M22 23.0001c0 -3.721 -2.813 -6.569 -6.73 -7.591" stroke-width="1"></path><path stroke="#000000" stroke-linecap="round" stroke-linejoin="round" d="M17.5 8.20001v-1.664c0 -1.45869 -0.5795 -2.85764 -1.6109 -3.88909C14.8576 1.61547 13.4587 1.03601 12 1.03601c-1.4587 0 -2.85764 0.57946 -3.88909 1.61091S6.5 5.07732 6.5 6.53601v1.664" stroke-width="1"></path><path stroke="#000000" stroke-linecap="round" stroke-linejoin="round" d="M5 6h14" stroke-width="1"></path><path stroke="#000000" stroke-linecap="round" stroke-linejoin="round" d="M14.6 12c-0.2359 -0.4819 -0.608 -0.8841 -1.0701 -1.1567 -0.4621 -0.2727 -0.994 -0.4039 -1.5299 -0.3773 -0.5359 -0.0266 -1.0678 0.1046 -1.5299 0.3773 -0.4621 0.2726 -0.83416 0.6748 -1.0701 1.1567 -1.717 -0.913 -2.9 -2.12105 -2.9 -3.80005V10.968c0 1.4586 0.57946 2.8576 1.61091 3.889C9.14236 15.8885 10.5413 16.468 12 16.468c1.4587 0 2.8576 -0.5795 3.8891 -1.611 1.0314 -1.0314 1.6109 -2.4304 1.6109 -3.889V8.19995c0 1.679 -1.179 2.88705 -2.9 3.80005Z" stroke-width="1"></path><path stroke="#000000" stroke-linecap="round" stroke-linejoin="round" d="M6 6 2.5 20.5" stroke-width="1"></path><path stroke="#000000" stroke-linecap="round" stroke-linejoin="round" d="m18 6 3.5 14.5" stroke-width="1"></path><path stroke="#000000" stroke-linecap="round" stroke-linejoin="round" d="M12 16.5V23" stroke-width="1"></path><path stroke="#000000" d="M15 21.094c-0.2071 0 -0.375 -0.1679 -0.375 -0.375s0.1679 -0.375 0.375 -0.375" stroke-width="1"></path><path stroke="#000000" d="M15 21.094c0.2071 0 0.375 -0.1679 0.375 -0.375s-0.1679 -0.375 -0.375 -0.375" stroke-width="1"></path></svg>