<svg xmlns="http://www.w3.org/2000/svg" fill="none" viewBox="0 0 24 24" id="Religion-Man-Muslim-1--Streamline-Ultimate"><desc>Religion Man Muslim 1 Streamline Icon: https://streamlinehq.com</desc><path stroke="#000000" stroke-linecap="round" stroke-linejoin="round" d="M17.285 6.75v6c0 1.3924 -0.5532 2.7277 -1.5377 3.7123C14.7627 17.4469 13.4274 18 12.035 18c-1.3924 0 -2.72777 -0.5531 -3.71234 -1.5377 -0.98456 -0.9846 -1.53769 -2.3199 -1.53769 -3.7123v-6" stroke-width="1"></path><path stroke="#000000" stroke-linecap="round" stroke-linejoin="round" d="M21.313 23.25c-0.4719 -1.4534 -1.2779 -2.7758 -2.3535 -3.8613C17.884 18.3033 16.569 17.4852 15.12 17" stroke-width="1"></path><path stroke="#000000" stroke-linecap="round" stroke-linejoin="round" d="M8.95102 17c-1.44916 0.485 -2.7644 1.3031 -3.84012 2.3885 -1.07571 1.0855 -1.88191 2.408 -2.35388 3.8615" stroke-width="1"></path><path stroke="#000000" stroke-linecap="round" stroke-linejoin="round" d="M12.035 0.75s2.7774 0.098435 4.1 0.525c0.1207 0.04958 0.2262 0.12999 0.3061 0.23318 0.0798 0.1032 0.1312 0.22555 0.1489 0.35482l0.7 4.887H6.78497l0.7 -4.887c0.0179 -0.12935 0.06944 -0.25173 0.14946 -0.35491 0.08002 -0.10319 0.18572 -0.18356 0.30654 -0.23309C9.26163 0.849216 12.035 0.75 12.035 0.75Z" stroke-width="1"></path><path stroke="#000000" stroke-linecap="round" stroke-linejoin="round" d="M12.785 17.944v5.306" stroke-width="1"></path><path stroke="#000000" d="M15.41 21c-0.2071 0 -0.375 -0.1679 -0.375 -0.375s0.1679 -0.375 0.375 -0.375" stroke-width="1"></path><path stroke="#000000" d="M15.41 21c0.2071 0 0.375 -0.1679 0.375 -0.375s-0.1679 -0.375 -0.375 -0.375" stroke-width="1"></path><path stroke="#000000" stroke-linecap="round" stroke-linejoin="round" d="M12.035 12.025c-1.348 0 -2.018 1.892 -2.93403 1.39 -0.65951 -0.5456 -1.20391 -1.2169 -1.60152 -1.9748 -0.39761 -0.758 -0.64048 -1.58748 -0.71448 -2.4402" stroke-width="1"></path><path stroke="#000000" stroke-linecap="round" stroke-linejoin="round" d="M12.035 12.025c1.349 0 2.018 1.892 2.935 1.39 0.6593 -0.5456 1.2036 -1.217 1.601 -1.9749 0.3975 -0.758 0.6402 -1.58744 0.714 -2.4401" stroke-width="1"></path></svg>