<svg xmlns="http://www.w3.org/2000/svg" viewBox="0 0 24 24" id="Religion-Man-Indian--Streamline-Ultimate"><desc>Religion Man Indian Streamline Icon: https://streamlinehq.com</desc><g><path d="M21.31 23.25a9.77 9.77 0 0 0 -4.73 -5.63" fill="none" stroke="#000000" stroke-linecap="round" stroke-linejoin="round" stroke-width="1"></path><path d="M7.49 17.62a9.77 9.77 0 0 0 -4.73 5.63" fill="none" stroke="#000000" stroke-linecap="round" stroke-linejoin="round" stroke-width="1"></path><path d="M17.29 11a5.49 5.49 0 0 0 2.25 -4.28c0 -3.31 -3.36 -6 -7.5 -6s-7.5 2.69 -7.5 6A5.46 5.46 0 0 0 6.79 11" fill="none" stroke="#000000" stroke-linecap="round" stroke-linejoin="round" stroke-width="1"></path><path d="m9.79 1.02 0 5.73" fill="none" stroke="#000000" stroke-linecap="round" stroke-linejoin="round" stroke-width="1"></path><path d="M17.29 10.5c0 2.9 -2.35 3.75 -5.25 3.75s-5.25 -0.85 -5.25 -3.75" fill="none" stroke="#000000" stroke-linecap="round" stroke-linejoin="round" stroke-width="1"></path><path d="M9.8 7c-1.78 0.36 -3 1.14 -3 2v6a5.25 5.25 0 0 0 10.5 0V9c0 -0.9 -1.24 -1.68 -3 -2" fill="none" stroke="#000000" stroke-linecap="round" stroke-linejoin="round" stroke-width="1"></path><path d="M9.79 6.75a2.25 2.25 0 1 0 4.5 0 2.25 2.25 0 1 0 -4.5 0" fill="none" stroke="#000000" stroke-linecap="round" stroke-linejoin="round" stroke-width="1"></path></g></svg>