<svg viewBox="0 0 24 24" xmlns="http://www.w3.org/2000/svg" id="Landmarks-Telescope-Person--Streamline-Ultimate"><desc>Landmarks Telescope Person Streamline Icon: https://streamlinehq.com</desc><path d="M10.181 8.319a5.255 5.255 0 0 0 6.317 0.242 1.557 1.557 0 0 1 2.025 0.3l3.59 4.039a4.5 4.5 0 0 1 1.137 2.99v5.61a1.5 1.5 0 0 1 -3 0v-5.61a1.5 1.5 0 0 0 -0.379 -1l-2.835 -3.188a8.267 8.267 0 0 1 -8.746 -1.051" fill="none" stroke="#000000" stroke-linecap="round" stroke-linejoin="round" stroke-width="1"></path><path d="M0.75 2h3v6h-3z" fill="none" stroke="#000000" stroke-linecap="round" stroke-linejoin="round" stroke-width="1"></path><path d="m9 5.75 -5.25 1.5 0 -4.5L9 4.25l0 1.5z" fill="none" stroke="#000000" stroke-linecap="round" stroke-linejoin="round" stroke-width="1"></path><path d="m5.25 6.821 0 12.429L1.5 23" fill="none" stroke="#000000" stroke-linecap="round" stroke-linejoin="round" stroke-width="1"></path><path d="m5.25 23 0 -3.75L9 23" fill="none" stroke="#000000" stroke-linecap="round" stroke-linejoin="round" stroke-width="1"></path><path d="M11.25 3.875a2.625 2.625 0 1 0 5.25 0 2.625 2.625 0 1 0 -5.25 0Z" fill="none" stroke="#000000" stroke-linecap="round" stroke-linejoin="round" stroke-width="1"></path></svg>