<svg viewBox="0 0 24 24" xmlns="http://www.w3.org/2000/svg" id="Halloween-Pumpkin--Streamline-Ultimate"><desc>Halloween Pumpkin Streamline Icon: https://streamlinehq.com</desc><path d="M14.9 5.888c0.247 0.018 0.607 0.047 0.856 0.086a8.745 8.745 0 0 1 7.461 9.347h0a8.836 8.836 0 0 1 -8.888 7.929H9.673a8.836 8.836 0 0 1 -8.888 -7.929h0A8.749 8.749 0 0 1 8.4 5.951c0.2 -0.027 0.507 -0.048 0.7 -0.063" fill="none" stroke="#000000" stroke-linecap="round" stroke-linejoin="round" stroke-width="1"></path><path d="m17.25 17.25 -1.513 1.4a0.587 0.587 0 0 1 -0.8 -0.025l-0.868 -0.932a0.585 0.585 0 0 0 -0.823 0l-0.836 0.9a0.585 0.585 0 0 1 -0.824 0l-0.836 -0.9a0.585 0.585 0 0 0 -0.823 0l-0.868 0.932a0.587 0.587 0 0 1 -0.8 0.025l-1.509 -1.4" fill="none" stroke="#000000" stroke-linecap="round" stroke-linejoin="round" stroke-width="1"></path><path d="M4.5 13.534a2.154 2.154 0 0 1 2.25 -2.045A2.154 2.154 0 0 1 9 13.534" fill="none" stroke="#000000" stroke-linecap="round" stroke-linejoin="round" stroke-width="1"></path><path d="M19.5 13.534a2.154 2.154 0 0 0 -2.25 -2.045A2.155 2.155 0 0 0 15 13.534" fill="none" stroke="#000000" stroke-linecap="round" stroke-linejoin="round" stroke-width="1"></path><path d="M12 4.841 12 0.75" fill="none" stroke="#000000" stroke-linecap="round" stroke-linejoin="round" stroke-width="1"></path><path d="M16.614 8.25A5.1 5.1 0 0 0 12 4.841 5.1 5.1 0 0 0 7.386 8.25" fill="none" stroke="#000000" stroke-linecap="round" stroke-linejoin="round" stroke-width="1"></path></svg>