<svg xmlns="http://www.w3.org/2000/svg" fill="none" viewBox="0 0 24 24" id="Halloween-Cauldron-Mix--Streamline-Ultimate"><desc>Halloween Cauldron Mix Streamline Icon: https://streamlinehq.com</desc><path stroke="#000000" stroke-linecap="round" stroke-linejoin="round" d="M2.66401 9.88c-0.54639 1.1924 -0.8298 2.4884 -0.831 3.8 0 5.285 4.549 9.57 10.16099 9.57 5.612 0 10.161 -4.285 10.161 -9.57 0.0002 -1.3119 -0.2837 -2.6082 -0.832 -3.8" stroke-width="1"></path><path stroke="#000000" stroke-linecap="round" stroke-linejoin="round" d="m3.55298 1.487 3.347 7.253" stroke-width="1"></path><path stroke="#000000" stroke-linecap="round" stroke-linejoin="round" d="M17.075 5.10499c0.802 0 1.452 -0.65008 1.452 -1.452s-0.65 -1.452 -1.452 -1.452c-0.8019 0 -1.452 0.65008 -1.452 1.452s0.6501 1.452 1.452 1.452Z" stroke-width="1"></path><path stroke="#000000" stroke-linecap="round" stroke-linejoin="round" d="M8.38904 4.583c1.19679 -0.13628 2.40046 -0.20306 3.60496 -0.2 0.244 0 0.486 0.00267 0.726 0.008" stroke-width="1"></path><path stroke="#000000" stroke-linecap="round" stroke-linejoin="round" d="M20.7001 5.82999c1.367 0.607 2.177 1.361 2.177 2.178 0 2.00001 -4.874 3.62901 -10.887 3.62901 -6.01304 0 -10.88304 -1.625 -10.88304 -3.62901 0 -0.695 0.586 -1.345 1.6 -1.9" stroke-width="1"></path><path stroke="#000000" stroke-linecap="round" stroke-linejoin="round" d="M9.86902 7.35101c0.68698 -0.045 1.39998 -0.069 2.12498 -0.069 2.1417 -0.01768 4.2782 0.21218 6.367 0.685" stroke-width="1"></path><path stroke="#000000" d="M9.45398 2.20099c-0.20711 0 -0.375 -0.16789 -0.375 -0.375s0.16789 -0.375 0.375 -0.375" stroke-width="1"></path><path stroke="#000000" d="M9.45398 2.20099c0.20711 0 0.375 -0.16789 0.375 -0.375s-0.16789 -0.375 -0.375 -0.375" stroke-width="1"></path><g><path stroke="#000000" d="M22.5021 2.20099c-0.2071 0 -0.375 -0.16789 -0.375 -0.375s0.1679 -0.375 0.375 -0.375" stroke-width="1"></path><path stroke="#000000" d="M22.5021 2.20099c0.2071 0 0.375 -0.16789 0.375 -0.375s-0.1679 -0.375 -0.375 -0.375" stroke-width="1"></path></g></svg>