<svg xmlns="http://www.w3.org/2000/svg" fill="none" viewBox="0 0 24 24" id="Halloween-Cauldron--Streamline-Ultimate"><desc>Halloween Cauldron Streamline Icon: https://streamlinehq.com</desc><path stroke="#000000" stroke-linecap="round" stroke-linejoin="round" d="M21.75 5.25c0.8284 0 1.5 -0.67157 1.5 -1.5s-0.6716 -1.5 -1.5 -1.5 -1.5 0.67157 -1.5 1.5 0.6716 1.5 1.5 1.5Z" stroke-width="1"></path><path stroke="#000000" stroke-linecap="round" stroke-linejoin="round" d="M10.5 8.25H2.62c-0.49687 0.00264 -0.97249 0.20188 -1.3229 0.55416S0.749993 9.63312 0.75 10.13c0.005174 0.4225 0.154835 0.8305 0.42409 1.1562 0.26926 0.3257 0.64189 0.5493 1.05591 0.6338 0.06715 0.2513 0.03864 0.5185 -0.08 0.75 -0.4322 1.2042 -0.56698 2.4951 -0.39287 3.7626 0.17412 1.2676 0.65197 2.4743 1.39287 3.5174 0.71982 1.0177 1.67278 1.8483 2.77923 2.4224 1.10645 0.5741 2.33425 0.875 3.58077 0.8776h4.25c1.2405 0.0015 2.4635 -0.2925 3.5677 -0.8577 1.1043 -0.5651 2.058 -1.3852 2.7823 -2.3923 0.7409 -1.0431 1.2188 -2.2498 1.3929 -3.5174 0.1741 -1.2675 0.0393 -2.5584 -0.3929 -3.7626 -0.1235 -0.23 -0.1523 -0.4991 -0.08 -0.75 0.414 -0.0845 0.7866 -0.3081 1.0559 -0.6338 0.2693 -0.3257 0.4189 -0.7337 0.4241 -1.1562 0 -0.49861 -0.1981 -0.97679 -0.5506 -1.32936C21.6068 8.49807 21.1286 8.3 20.63 8.3H19.5" stroke-width="1"></path><path stroke="#000000" stroke-linecap="round" stroke-linejoin="round" d="M13.5 10.87v3.38c0 0.5967 0.2371 1.169 0.659 1.591 0.422 0.4219 0.9943 0.659 1.591 0.659 0.5968 0 1.1691 -0.2371 1.591 -0.659 0.422 -0.422 0.659 -0.9943 0.659 -1.591v-3.53c0.441 -0.2199 0.8136 -0.5558 1.0779 -0.97159 0.2643 -0.41582 0.4103 -0.89584 0.4221 -1.38841 0.0299 -0.45046 -0.0495 -0.90147 -0.2315 -1.3146 -0.1821 -0.41312 -0.4613 -0.7761 -0.8139 -1.058 -0.3526 -0.2819 -0.7682 -0.47436 -1.2112 -0.56097 -0.4431 -0.0866 -0.9006 -0.0648 -1.3334 0.06357 -0.2696 -0.72994 -0.7562 -1.35983 -1.3944 -1.80497C13.8774 3.23988 13.1182 3.00082 12.34 3c-1.92 0 -3.55997 1 -3.80997 2.86 -0.51 -0.82 -1.91 -1 -2.39 -1 -2.39 0 -2.86 1.76 -2.86 3.34" stroke-width="1"></path><g><path stroke="#000000" d="M2.995 3.375c-0.20711 0 -0.375 -0.16789 -0.375 -0.375s0.16789 -0.375 0.375 -0.375" stroke-width="1"></path><path stroke="#000000" d="M2.995 3.375c0.2071 0 0.375 -0.16789 0.375 -0.375s-0.1679 -0.375 -0.375 -0.375" stroke-width="1"></path></g><g><path stroke="#000000" d="M16.4951 1.91c-0.2071 0 -0.375 -0.16789 -0.375 -0.375 0 -0.2071 0.1679 -0.375 0.375 -0.375" stroke-width="1"></path><path stroke="#000000" d="M16.4951 1.91c0.2071 0 0.375 -0.16789 0.375 -0.375 0 -0.2071 -0.1679 -0.375 -0.375 -0.375" stroke-width="1"></path></g></svg>