<svg xmlns="http://www.w3.org/2000/svg" fill="none" viewBox="0 0 24 24" id="Halloween-Voodoo-Doll--Streamline-Ultimate"><desc>Halloween Voodoo Doll Streamline Icon: https://streamlinehq.com</desc><path stroke="#000000" stroke-linecap="round" stroke-linejoin="round" d="m21.459 15.7915 -3.8208 -3.8208c1.0174 0.1523 2.0569 -0.0203 2.9705 -0.4931 0.9137 -0.4729 1.6548 -1.2219 2.1179 -2.14052 0.4632 -0.91858 0.6247 -1.95986 0.4616 -2.97558 -0.1631 -1.01573 -0.6424 -1.95411 -1.3699 -2.68153 -0.7274 -0.72742 -1.6658 -1.20681 -2.6815 -1.36989 -1.0157 -0.16308 -2.057 -0.00156 -2.9756 0.46159 -0.9186 0.46314 -1.6676 1.20428 -2.1405 2.1179 -0.4728 0.91361 -0.6454 1.95312 -0.4931 2.97052L9.70685 4.03932c-0.27802 -0.25717 -0.64477 -0.39679 -1.02342 -0.3896 -0.37865 0.00719 -0.73984 0.16062 -1.00789 0.42816 -0.26806 0.26754 -0.42219 0.62843 -0.43011 1.00707 -0.00792 0.37864 0.13099 0.74565 0.38763 1.02416L9.70685 8.1869c0.13619 0.13615 0.24423 0.2978 0.31795 0.47571 0.0737 0.17791 0.1116 0.3686 0.1116 0.56118 0 0.19258 -0.0379 0.38327 -0.1116 0.56119 -0.07372 0.17791 -0.18176 0.33952 -0.31795 0.47572l-5.53077 5.5308c-0.275 0.275 -0.4295 0.6479 -0.4295 1.0369 0 0.3889 0.1545 0.7618 0.4295 1.0368 0.275 0.275 0.64798 0.4295 1.03689 0.4295 0.38891 0 0.76189 -0.1545 1.0369 -0.4295l2.41958 -2.4195c0.18507 -0.1753 0.43122 -0.2714 0.68607 -0.2679 0.25485 0.0035 0.49829 0.1062 0.67848 0.2865 0.1803 0.1802 0.283 0.4236 0.2865 0.6785 0.0035 0.2548 -0.0926 0.501 -0.2679 0.686l-2.41954 2.4196c-0.13617 0.1362 -0.24418 0.2979 -0.31788 0.4758 -0.07369 0.1779 -0.11162 0.3686 -0.11162 0.5611 0 0.1926 0.03793 0.3833 0.11162 0.5612 0.0737 0.1779 0.18171 0.3396 0.31788 0.4757 0.13617 0.1362 0.29782 0.2442 0.47573 0.3179 0.17791 0.0737 0.36859 0.1116 0.56116 0.1116 0.19257 0 0.38325 -0.0379 0.56116 -0.1116 0.17792 -0.0737 0.33957 -0.1817 0.47574 -0.3179l5.53075 -5.5307c0.1362 -0.1362 0.2978 -0.2443 0.4757 -0.318 0.1779 -0.0737 0.3686 -0.1116 0.5612 -0.1116 0.1926 0 0.3833 0.0379 0.5612 0.1116 0.1779 0.0737 0.3396 0.1818 0.4757 0.318l2.0778 2.0737c0.275 0.275 0.648 0.4295 1.0369 0.4295 0.3889 0 0.7619 -0.1545 1.0369 -0.4295 0.275 -0.275 0.4295 -0.6479 0.4295 -1.0368 0 -0.389 -0.1545 -0.7619 -0.4295 -1.0369h-0.004Z" stroke-width="1"></path><path stroke="#000000" stroke-linecap="round" stroke-linejoin="round" d="M2.99869 9.85589c1.24191 0 2.24868 -1.00677 2.24868 -2.24868 0 -1.24192 -1.00677 -2.24869 -2.24868 -2.24869C1.75677 5.35852 0.75 6.36529 0.75 7.60721c0 1.24191 1.00677 2.24868 2.24869 2.24868Z" stroke-width="1"></path><path stroke="#000000" stroke-linecap="round" stroke-linejoin="round" d="M11.9934 12.4634 4.83655 8.90247" stroke-width="1"></path><path stroke="#000000" d="M16.8658 6.10852c-0.2071 0 -0.375 -0.16789 -0.375 -0.375s0.1679 -0.375 0.375 -0.375" stroke-width="1"></path><path stroke="#000000" d="M16.8654 6.10852c0.2071 0 0.375 -0.16789 0.375 -0.375s-0.1679 -0.375 -0.375 -0.375" stroke-width="1"></path><g><path stroke="#000000" d="M19.864 8.35721c-0.2071 0 -0.375 -0.16789 -0.375 -0.375s0.1679 -0.375 0.375 -0.375" stroke-width="1"></path><path stroke="#000000" d="M19.8636 8.35721c0.2072 0 0.375 -0.16789 0.375 -0.375s-0.1678 -0.375 -0.375 -0.375" stroke-width="1"></path></g></svg>