<svg viewBox="0 0 24 24" xmlns="http://www.w3.org/2000/svg" id="Halloween-Graveyard--Streamline-Ultimate"><desc>Halloween Graveyard Streamline Icon: https://streamlinehq.com</desc><path d="M19.5 18.991V10.75H22a0.5 0.5 0 0 0 0.5 -0.494V8.244a0.5 0.5 0 0 0 -0.5 -0.494h-2.5V5.244a0.5 0.5 0 0 0 -0.5 -0.494h-2a0.5 0.5 0 0 0 -0.5 0.494V7.75H14a0.5 0.5 0 0 0 -0.5 0.494v2.012a0.5 0.5 0 0 0 0.5 0.494h2.5v8.509" fill="none" stroke="#000000" stroke-linecap="round" stroke-linejoin="round" stroke-width="1"></path><path d="M2.25 5.28a8.232 8.232 0 0 1 2.25 0.97 8.232 8.232 0 0 1 2.25 -0.97" fill="none" stroke="#000000" stroke-linecap="round" stroke-linejoin="round" stroke-width="1"></path><path d="M7.724 1a4.792 4.792 0 0 1 1.263 0.5 4.817 4.817 0 0 1 1.264 -0.5" fill="none" stroke="#000000" stroke-linecap="round" stroke-linejoin="round" stroke-width="1"></path><path d="m12.176 20.642 -1.747 -7.188a4.5 4.5 0 0 0 -5.424 -3.329h0a4.5 4.5 0 0 0 -3.329 5.423L3.388 22.7" fill="none" stroke="#000000" stroke-linecap="round" stroke-linejoin="round" stroke-width="1"></path><path d="m5.878 13.772 1.047 4.376" fill="none" stroke="#000000" stroke-linecap="round" stroke-linejoin="round" stroke-width="1"></path><path d="m4.768 15.58 2.918 -0.699" fill="none" stroke="#000000" stroke-linecap="round" stroke-linejoin="round" stroke-width="1"></path><path d="M23.25 19.721a11.217 11.217 0 0 0 -4.125 -0.73c-2.867 0 -5.263 0.9 -6.065 2.121a2.97 2.97 0 0 0 -4.654 1.469A5.14 5.14 0 0 0 6 21.991a5.069 5.069 0 0 0 -2.669 0.745 2.986 2.986 0 0 0 -2.581 -1.5" fill="none" stroke="#000000" stroke-linecap="round" stroke-linejoin="round" stroke-width="1"></path></svg>