<svg xmlns="http://www.w3.org/2000/svg" viewBox="0 0 24 24" id="Halloween-Web--Streamline-Ultimate"><desc>Halloween Web Streamline Icon: https://streamlinehq.com</desc><g><path d="M21.93 7.64A11.42 11.42 0 0 1 16 1.89a20.65 20.65 0 0 1 -4.2 0.43 20.65 20.65 0 0 1 -4.2 -0.43 11.42 11.42 0 0 1 -5.97 5.75 9.76 9.76 0 0 1 0 8.12 11.2 11.2 0 0 1 6 5.75 15.79 15.79 0 0 1 4.2 -0.43 15.87 15.87 0 0 1 4.2 0.43 11.2 11.2 0 0 1 5.95 -5.75 9.76 9.76 0 0 1 -0.05 -8.12Z" fill="none" stroke="#000000" stroke-linecap="round" stroke-linejoin="round" stroke-width="1"></path><path d="M18.7 8.93a7.69 7.69 0 0 1 -4 -3.92 14 14 0 0 1 -2.87 0.29A14 14 0 0 1 8.91 5a7.76 7.76 0 0 1 -4 3.92 6.69 6.69 0 0 1 0 5.54 7.6 7.6 0 0 1 4.05 3.92 10.81 10.81 0 0 1 2.87 -0.29 10.81 10.81 0 0 1 2.87 0.29 7.6 7.6 0 0 1 4 -3.92 6.69 6.69 0 0 1 0 -5.53Z" fill="none" stroke="#000000" stroke-linecap="round" stroke-linejoin="round" stroke-width="1"></path><path d="m7.11 1 9.29 21.75" fill="none" stroke="#000000" stroke-linecap="round" stroke-linejoin="round" stroke-width="1"></path><path d="M16.4 1 7.11 22.75" fill="none" stroke="#000000" stroke-linecap="round" stroke-linejoin="round" stroke-width="1"></path><path d="M23.25 7.24 0.75 16.32" fill="none" stroke="#000000" stroke-linecap="round" stroke-linejoin="round" stroke-width="1"></path><path d="M23.25 16.32 0.75 7.24" fill="none" stroke="#000000" stroke-linecap="round" stroke-linejoin="round" stroke-width="1"></path></g></svg>