<svg viewBox="0 0 24 24" xmlns="http://www.w3.org/2000/svg" id="Halloween-Calendar-Tree--Streamline-Ultimate"><desc>Halloween Calendar Tree Streamline Icon: https://streamlinehq.com</desc><path d="M3.75 23.25H3a1.5 1.5 0 0 1 -1.5 -1.5V5.25A1.5 1.5 0 0 1 3 3.75h18a1.5 1.5 0 0 1 1.5 1.5v16.5a1.5 1.5 0 0 1 -1.5 1.5h-0.75" fill="none" stroke="#000000" stroke-linecap="round" stroke-linejoin="round" stroke-width="1"></path><path d="m1.5 9.75 21 0" fill="none" stroke="#000000" stroke-linecap="round" stroke-linejoin="round" stroke-width="1"></path><path d="m7.5 6 0 -5.25" fill="none" stroke="#000000" stroke-linecap="round" stroke-linejoin="round" stroke-width="1"></path><path d="m16.5 6 0 -5.25" fill="none" stroke="#000000" stroke-linecap="round" stroke-linejoin="round" stroke-width="1"></path><path d="m12 12 -3.75 4.5 2.25 0 -3 3.75 9 0 -3 -3.75 2.25 0L12 12z" fill="none" stroke="#000000" stroke-linecap="round" stroke-linejoin="round" stroke-width="1"></path><path d="m12 20.25 0 3" fill="none" stroke="#000000" stroke-linecap="round" stroke-linejoin="round" stroke-width="1"></path></svg>