<svg xmlns="http://www.w3.org/2000/svg" fill="none" viewBox="0 0 24 24" id="Equalizer-Stereo-1--Streamline-Ultimate"><desc>Equalizer Stereo 1 Streamline Icon: https://streamlinehq.com</desc><path stroke="#000000" stroke-linecap="round" stroke-linejoin="round" d="M21.8 9.75H2.2c-0.80081 0 -1.45 0.6492 -1.45 1.45v10.6c0 0.8008 0.64919 1.45 1.45 1.45h19.6c0.8008 0 1.45 -0.6492 1.45 -1.45V11.2c0 -0.8008 -0.6492 -1.45 -1.45 -1.45Z" stroke-width="1"></path><path stroke="#000000" stroke-linecap="round" stroke-linejoin="round" d="M8.75 0.75h-5c-0.39782 0 -0.77936 0.158035 -1.06066 0.43934 -0.2813 0.2813 -0.43934 0.66284 -0.43934 1.06066v7.5h8v-7.5c0 -0.39782 -0.158 -0.77936 -0.43934 -1.06066C9.52936 0.908035 9.14782 0.75 8.75 0.75v0Z" stroke-width="1"></path><path stroke="#000000" stroke-linecap="round" stroke-linejoin="round" d="M6.25 6.75c0.82843 0 1.5 -0.67157 1.5 -1.5s-0.67157 -1.5 -1.5 -1.5 -1.5 0.67157 -1.5 1.5 0.67157 1.5 1.5 1.5Z" stroke-width="1"></path><path stroke="#000000" stroke-linecap="round" stroke-linejoin="round" d="M20.25 0.75h-5c-0.3978 0 -0.7794 0.158035 -1.0607 0.43934 -0.2813 0.2813 -0.4393 0.66284 -0.4393 1.06066v7.5h8v-7.5c0 -0.39782 -0.158 -0.77936 -0.4393 -1.06066C21.0294 0.908035 20.6478 0.75 20.25 0.75v0Z" stroke-width="1"></path><path stroke="#000000" stroke-linecap="round" stroke-linejoin="round" d="M17.75 6.75c0.8284 0 1.5 -0.67157 1.5 -1.5s-0.6716 -1.5 -1.5 -1.5 -1.5 0.67157 -1.5 1.5 0.6716 1.5 1.5 1.5Z" stroke-width="1"></path><path stroke="#000000" d="M4.67639 20.505c-0.20711 0 -0.375 -0.1679 -0.375 -0.375s0.16789 -0.375 0.375 -0.375" stroke-width="1"></path><path stroke="#000000" d="M4.67639 20.505c0.20711 0 0.375 -0.1679 0.375 -0.375s-0.16789 -0.375 -0.375 -0.375" stroke-width="1"></path><path stroke="#000000" d="M8.4364 20.505c-0.20711 0 -0.375 -0.1679 -0.375 -0.375s0.16789 -0.375 0.375 -0.375" stroke-width="1"></path><path stroke="#000000" d="M8.4364 20.505c0.20711 0 0.375 -0.1679 0.375 -0.375s-0.16789 -0.375 -0.375 -0.375" stroke-width="1"></path><path stroke="#000000" stroke-linecap="round" stroke-linejoin="round" d="M20.25 12.75H3.75v4h16.5v-4Z" stroke-width="1"></path><path stroke="#000000" stroke-linecap="round" stroke-linejoin="round" d="M14.75 20h5.5" stroke-width="1"></path><path stroke="#000000" stroke-linecap="round" stroke-linejoin="round" d="M9.75 12.75v4" stroke-width="1"></path></svg>