<svg xmlns="http://www.w3.org/2000/svg" fill="none" viewBox="0 0 24 24" id="Calendar-Skull--Streamline-Ultimate"><desc>Calendar Skull Streamline Icon: https://streamlinehq.com</desc><path stroke="#000000" stroke-linecap="round" stroke-linejoin="round" d="M10 17.25H2.25c-0.39782 0 -0.77936 -0.158 -1.06066 -0.4393C0.908035 16.5294 0.75 16.1478 0.75 15.75v-12c0 -0.39782 0.158035 -0.77936 0.43934 -1.06066 0.2813 -0.2813 0.66284 -0.43934 1.06066 -0.43934h13.5c0.3978 0 0.7794 0.15804 1.0607 0.43934s0.4393 0.66284 0.4393 1.06066V10" stroke-width="1"></path><path stroke="#000000" stroke-linejoin="round" d="M0.75 6.75h16.5" stroke-width="1"></path><path stroke="#000000" stroke-linecap="round" stroke-linejoin="round" d="M5.23999 3.75v-3" stroke-width="1"></path><path stroke="#000000" stroke-linecap="round" stroke-linejoin="round" d="M12.74 3.75v-3" stroke-width="1"></path><path stroke="#000000" stroke-linecap="round" stroke-linejoin="round" d="M14.92 23.25v-2.5l-0.18 -0.09c-0.448 -0.2233 -0.8248 -0.5672 -1.088 -0.9929 -0.2633 -0.4258 -0.4025 -0.9165 -0.402 -1.4171 0 -1.3261 0.5268 -2.5979 1.4645 -3.5355 0.9376 -0.9377 2.2094 -1.4645 3.5355 -1.4645 1.3261 0 2.5979 0.5268 3.5355 1.4645 0.9377 0.9376 1.4645 2.2094 1.4645 3.5355 0.0005 0.5006 -0.1387 0.9913 -0.402 1.4171 -0.2632 0.4257 -0.64 0.7696 -1.088 0.9929l-0.18 0.09v2.5" stroke-width="1"></path><path stroke="#000000" stroke-linecap="round" stroke-linejoin="round" d="M18.25 21.25v2" stroke-width="1"></path><path stroke="#000000" d="M16.3799 18.38c-0.2762 0 -0.5 -0.2239 -0.5 -0.5s0.2238 -0.5 0.5 -0.5" stroke-width="1"></path><path stroke="#000000" d="M16.3799 18.38c0.2761 0 0.5 -0.2239 0.5 -0.5s-0.2239 -0.5 -0.5 -0.5" stroke-width="1"></path><g><path stroke="#000000" d="M20.1299 18.38c-0.2762 0 -0.5 -0.2239 -0.5 -0.5s0.2238 -0.5 0.5 -0.5" stroke-width="1"></path><path stroke="#000000" d="M20.1299 18.38c0.2761 0 0.5 -0.2239 0.5 -0.5s-0.2239 -0.5 -0.5 -0.5" stroke-width="1"></path></g></svg>