<svg xmlns="http://www.w3.org/2000/svg" fill="none" viewBox="0 0 24 24" id="Calendar-Date-Mark-Check--Streamline-Ultimate"><desc>Calendar Date Mark Check Streamline Icon: https://streamlinehq.com</desc><path stroke="#000000" stroke-linecap="round" stroke-linejoin="round" stroke-miterlimit="10" d="M23.25 21.75c0 0.8 -0.7 1.5 -1.5 1.5H2.25c-0.8 0 -1.5 -0.7 -1.5 -1.5V5.25c0 -0.8 0.7 -1.5 1.5 -1.5h19.5c0.8 0 1.5 0.7 1.5 1.5v16.5Z" stroke-width="1"></path><path stroke="#000000" stroke-linecap="round" stroke-linejoin="round" stroke-miterlimit="10" d="M0.75 9.75h22.5" stroke-width="1"></path><path stroke="#000000" stroke-linecap="round" stroke-linejoin="round" stroke-miterlimit="10" d="M6.75 5.95V0.75" stroke-width="1"></path><path stroke="#000000" stroke-linecap="round" stroke-linejoin="round" stroke-miterlimit="10" d="M17.25 5.95V0.75" stroke-width="1"></path><path stroke="#000000" stroke-linecap="round" stroke-linejoin="round" stroke-miterlimit="10" d="M5.55002 13.45c-0.2 0 -0.4 0.2 -0.4 0.4s0.2 0.4 0.4 0.4" stroke-width="1"></path><path stroke="#000000" stroke-linecap="round" stroke-linejoin="round" stroke-miterlimit="10" d="M5.55001 13.45c0.2 0 0.4 0.2 0.4 0.4s-0.2 0.4 -0.4 0.4" stroke-width="1"></path><path stroke="#000000" stroke-linecap="round" stroke-linejoin="round" stroke-miterlimit="10" d="M5.55002 18.75c-0.2 0 -0.4 0.2 -0.4 0.4s0.2 0.4 0.4 0.4" stroke-width="1"></path><path stroke="#000000" stroke-linecap="round" stroke-linejoin="round" stroke-miterlimit="10" d="M5.55001 18.75c0.2 0 0.4 0.2 0.4 0.4s-0.2 0.4 -0.4 0.4" stroke-width="1"></path><path stroke="#000000" stroke-linecap="round" stroke-linejoin="round" stroke-miterlimit="10" d="M11.95 13.45c-0.2 0 -0.4 0.2 -0.4 0.4s0.2 0.4 0.4 0.4" stroke-width="1"></path><path stroke="#000000" stroke-linecap="round" stroke-linejoin="round" stroke-miterlimit="10" d="M11.95 13.45c0.2 0 0.4 0.2 0.4 0.4s-0.2 0.4 -0.4 0.4" stroke-width="1"></path><path stroke="#000000" stroke-linecap="round" stroke-linejoin="round" stroke-miterlimit="10" d="M11.95 18.75c-0.2 0 -0.4 0.2 -0.4 0.4s0.2 0.4 0.4 0.4" stroke-width="1"></path><path stroke="#000000" stroke-linecap="round" stroke-linejoin="round" stroke-miterlimit="10" d="M11.95 18.75c0.2 0 0.4 0.2 0.4 0.4s-0.2 0.4 -0.4 0.4" stroke-width="1"></path><path stroke="#000000" stroke-linecap="round" stroke-linejoin="round" stroke-miterlimit="10" d="M18.35 18.75c-0.2 0 -0.3999 0.2 -0.3999 0.4s0.1999 0.4 0.3999 0.4" stroke-width="1"></path><path stroke="#000000" stroke-linecap="round" stroke-linejoin="round" stroke-miterlimit="10" d="M18.35 18.75c0.2 0 0.4 0.2 0.4 0.4s-0.2 0.4 -0.4 0.4" stroke-width="1"></path><path stroke="#000000" stroke-linecap="round" stroke-linejoin="round" stroke-miterlimit="10" d="m16.9501 13.5499 1 1 2 -2" stroke-width="1"></path></svg>