<svg viewBox="0 0 24 24" xmlns="http://www.w3.org/2000/svg" id="Calendar-Favorite-1--Streamline-Ultimate"><desc>Calendar Favorite 1 Streamline Icon: https://streamlinehq.com</desc><path d="M17.955 11.681 19.494 15h3a0.735 0.735 0 0 1 0.518 1.283l-2.6 2.563 1.44 3.313a0.784 0.784 0 0 1 -1.117 0.982l-3.481 -1.961 -3.482 1.961a0.784 0.784 0 0 1 -1.117 -0.982l1.44 -3.313 -2.6 -2.563a0.734 0.734 0 0 1 0.51 -1.283H15l1.542 -3.322a0.8 0.8 0 0 1 1.413 0.003Z" fill="none" stroke="#000000" stroke-linecap="round" stroke-linejoin="round" stroke-width="1"></path><path d="M7.479 17.25H2.25a1.5 1.5 0 0 1 -1.5 -1.5v-12a1.5 1.5 0 0 1 1.5 -1.5h13.5a1.5 1.5 0 0 1 1.5 1.5v4.5" fill="none" stroke="#000000" stroke-linecap="round" stroke-linejoin="round" stroke-width="1"></path><path d="m0.75 6.75 16.5 0" fill="none" stroke="#000000" stroke-linejoin="round" stroke-width="1"></path><path d="m5.243 3.75 0 -3" fill="none" stroke="#000000" stroke-linecap="round" stroke-linejoin="round" stroke-width="1"></path><path d="m12.743 3.75 0 -3" fill="none" stroke="#000000" stroke-linecap="round" stroke-linejoin="round" stroke-width="1"></path></svg>