<svg xmlns="http://www.w3.org/2000/svg" viewBox="0 0 24 24" id="Calendar-Share--Streamline-Ultimate"><desc>Calendar Share Streamline Icon: https://streamlinehq.com</desc><g><g><path d="M11.25 18a2.25 2.25 0 1 0 4.5 0 2.25 2.25 0 1 0 -4.5 0" fill="none" stroke="#000000" stroke-linecap="round" stroke-linejoin="round" stroke-width="1"></path><path d="M18.75 21a2.25 2.25 0 1 0 4.5 0 2.25 2.25 0 1 0 -4.5 0" fill="none" stroke="#000000" stroke-linecap="round" stroke-linejoin="round" stroke-width="1"></path><path d="M18.75 13.5a2.25 2.25 0 1 0 4.5 0 2.25 2.25 0 1 0 -4.5 0" fill="none" stroke="#000000" stroke-linecap="round" stroke-linejoin="round" stroke-width="1"></path><path d="m15.42 16.85 3.65 -2.19" fill="none" stroke="#000000" stroke-linecap="round" stroke-linejoin="round" stroke-width="1"></path><path d="m15.59 18.84 3.32 1.32" fill="none" stroke="#000000" stroke-linecap="round" stroke-linejoin="round" stroke-width="1"></path></g><path d="M8 17.25H2.25a1.5 1.5 0 0 1 -1.5 -1.5v-12a1.5 1.5 0 0 1 1.5 -1.5h13.5a1.5 1.5 0 0 1 1.5 1.5v5" fill="none" stroke="#000000" stroke-linecap="round" stroke-linejoin="round" stroke-width="1"></path><path d="m0.75 6.75 16.5 0" fill="none" stroke="#000000" stroke-linejoin="round" stroke-width="1"></path><path d="m5.24 3.75 0 -3" fill="none" stroke="#000000" stroke-linecap="round" stroke-linejoin="round" stroke-width="1"></path><path d="m12.74 3.75 0 -3" fill="none" stroke="#000000" stroke-linecap="round" stroke-linejoin="round" stroke-width="1"></path></g></svg>