<svg xmlns="http://www.w3.org/2000/svg" viewBox="0 0 24 24" id="Calendar-Plane--Streamline-Ultimate"><desc>Calendar Plane Streamline Icon: https://streamlinehq.com</desc><g><g><path d="m6.12 18.17 1.34 1.2" fill="none" stroke="#000000" stroke-linecap="round" stroke-linejoin="round" stroke-width="1"></path><path d="M15.94 16.07 14.1 17l-4 -3.59 -2.23 0.88 3.25 3.88 -3.66 1.2 1.92 1.72a1.6 1.6 0 0 0 1.66 0.3l6.07 -2.34a1.6 1.6 0 0 0 -1.17 -3Z" fill="none" stroke="#000000" stroke-linecap="round" stroke-linejoin="round" stroke-width="1"></path></g><g><path d="m0.75 9.75 22.5 0" fill="none" stroke="#000000" stroke-linejoin="round" stroke-width="1"></path><path d="m6.75 6 0 -5.25" fill="none" stroke="#000000" stroke-linecap="round" stroke-linejoin="round" stroke-width="1"></path><path d="m17.25 6 0 -5.25" fill="none" stroke="#000000" stroke-linecap="round" stroke-linejoin="round" stroke-width="1"></path><path d="M15.5 23.25h6.25a1.5 1.5 0 0 0 1.5 -1.5V5.25a1.5 1.5 0 0 0 -1.5 -1.5H2.25a1.5 1.5 0 0 0 -1.5 1.5v16.5a1.5 1.5 0 0 0 1.5 1.5H5.5" fill="none" stroke="#000000" stroke-linecap="round" stroke-linejoin="round" stroke-width="1"></path></g></g></svg>