<svg viewBox="0 0 24 24" xmlns="http://www.w3.org/2000/svg" id="Calendar-Shield--Streamline-Ultimate"><desc>Calendar Shield Streamline Icon: https://streamlinehq.com</desc><path d="M23.25 15.75a7.669 7.669 0 0 1 -6 7.5 7.669 7.669 0 0 1 -6 -7.5v-3a1.5 1.5 0 0 1 1.5 -1.5h9a1.5 1.5 0 0 1 1.5 1.5Z" fill="none" stroke="#000000" stroke-linecap="round" stroke-linejoin="round" stroke-width="1"></path><path d="m17.25 15 0 4.5" fill="none" stroke="#000000" stroke-linecap="round" stroke-linejoin="round" stroke-width="1"></path><path d="m15 17.25 4.5 0" fill="none" stroke="#000000" stroke-linecap="round" stroke-linejoin="round" stroke-width="1"></path><path d="M8.25 17.25h-6a1.5 1.5 0 0 1 -1.5 -1.5V3.765a1.5 1.5 0 0 1 1.5 -1.5h13.5a1.5 1.5 0 0 1 1.5 1.5V8.25" fill="none" stroke="#000000" stroke-linecap="round" stroke-linejoin="round" stroke-width="1"></path><path d="m0.75 6.75 16.5 0" fill="none" stroke="#000000" stroke-linejoin="round" stroke-width="1"></path><path d="m5.243 3.75 0 -3" fill="none" stroke="#000000" stroke-linecap="round" stroke-linejoin="round" stroke-width="1"></path><path d="m12.743 3.75 0 -3" fill="none" stroke="#000000" stroke-linecap="round" stroke-linejoin="round" stroke-width="1"></path></svg>