<svg xmlns="http://www.w3.org/2000/svg" viewBox="0 0 24 24" id="Calendar-Favorite--Streamline-Ultimate"><desc>Calendar Favorite Streamline Icon: https://streamlinehq.com</desc><g><g><path d="m0.75 9.75 22.5 0" fill="none" stroke="#000000" stroke-linejoin="round" stroke-width="1"></path><path d="m6.75 6 0 -5.25" fill="none" stroke="#000000" stroke-linecap="round" stroke-linejoin="round" stroke-width="1"></path><path d="m17.25 6 0 -5.25" fill="none" stroke="#000000" stroke-linecap="round" stroke-linejoin="round" stroke-width="1"></path><path d="M18 23.25h3.75a1.5 1.5 0 0 0 1.5 -1.5V5.25a1.5 1.5 0 0 0 -1.5 -1.5H2.25a1.5 1.5 0 0 0 -1.5 1.5v16.5a1.5 1.5 0 0 0 1.5 1.5H6" fill="none" stroke="#000000" stroke-linecap="round" stroke-linejoin="round" stroke-width="1"></path></g><path d="M11.54 13a0.52 0.52 0 0 1 0.92 0l1.07 2.15a0.52 0.52 0 0 0 0.38 0.28l2.4 0.34a0.51 0.51 0 0 1 0.41 0.35 0.48 0.48 0 0 1 -0.12 0.51l-1.74 1.69a0.49 0.49 0 0 0 -0.15 0.44l0.41 2.37a0.51 0.51 0 0 1 -0.2 0.49 0.5 0.5 0 0 1 -0.54 0l-2.14 -1.11a0.51 0.51 0 0 0 -0.48 0l-2.14 1.18a0.5 0.5 0 0 1 -0.54 0 0.51 0.51 0 0 1 -0.2 -0.49l0.41 -2.37a0.49 0.49 0 0 0 -0.15 -0.44L7.4 16.66a0.46 0.46 0 0 1 -0.12 -0.51 0.51 0.51 0 0 1 0.41 -0.35l2.4 -0.34a0.52 0.52 0 0 0 0.38 -0.28Z" fill="none" stroke="#000000" stroke-linecap="round" stroke-linejoin="round" stroke-width="1"></path></g></svg>