<svg xmlns="http://www.w3.org/2000/svg" fill="none" viewBox="0 0 24 24" id="Calendar-Lock-1--Streamline-Ultimate"><desc>Calendar Lock 1 Streamline Icon: https://streamlinehq.com</desc><path stroke="#000000" stroke-linecap="round" stroke-linejoin="round" d="M21.75 15.75h-6c-0.8284 0 -1.5 0.6716 -1.5 1.5v4.5c0 0.8284 0.6716 1.5 1.5 1.5h6c0.8284 0 1.5 -0.6716 1.5 -1.5v-4.5c0 -0.8284 -0.6716 -1.5 -1.5 -1.5Z" stroke-width="1"></path><path stroke="#000000" stroke-linecap="round" stroke-linejoin="round" d="M18.75 11.25c-0.7956 0 -1.5587 0.3161 -2.1213 0.8787 -0.5626 0.5626 -0.8787 1.3257 -0.8787 2.1213v1.5h6v-1.5c0 -0.7956 -0.3161 -1.5587 -0.8787 -2.1213 -0.5626 -0.5626 -1.3257 -0.8787 -2.1213 -0.8787Z" stroke-width="1"></path><path stroke="#000000" d="M18.75 19.9001c-0.2071 0 -0.375 -0.1678 -0.375 -0.375 0 -0.2071 0.1679 -0.375 0.375 -0.375" stroke-width="1"></path><path stroke="#000000" d="M18.75 19.9001c0.2071 0 0.375 -0.1678 0.375 -0.375 0 -0.2071 -0.1679 -0.375 -0.375 -0.375" stroke-width="1"></path><path stroke="#000000" stroke-linecap="round" stroke-linejoin="round" d="M11 17.25H2.25c-0.39782 0 -0.77936 -0.158 -1.06066 -0.4393C0.908035 16.5294 0.75 16.1478 0.75 15.75v-12c0 -0.39782 0.158035 -0.77936 0.43934 -1.06066 0.2813 -0.2813 0.66284 -0.43934 1.06066 -0.43934h13.5c0.3978 0 0.7794 0.15804 1.0607 0.43934s0.4393 0.66284 0.4393 1.06066v4.5" stroke-width="1"></path><path stroke="#000000" stroke-linejoin="round" d="M0.75 6.75h16.5" stroke-width="1"></path><path stroke="#000000" stroke-linecap="round" stroke-linejoin="round" d="M5.23999 3.75v-3" stroke-width="1"></path><path stroke="#000000" stroke-linecap="round" stroke-linejoin="round" d="M12.74 3.75v-3" stroke-width="1"></path></svg>