<svg xmlns="http://www.w3.org/2000/svg" viewBox="0 0 24 24" id="Water-Protection-Drop-Hold--Streamline-Ultimate"><desc>Water Protection Drop Hold Streamline Icon: https://streamlinehq.com</desc><g><path d="m3.75 23.25 -2 -2.38a4.5 4.5 0 0 1 -1 -2.81v-5.17a1.5 1.5 0 0 1 1.5 -1.5h0a1.5 1.5 0 0 1 1.5 1.5v3.87" fill="none" stroke="#000000" stroke-linecap="round" stroke-linejoin="round" stroke-width="1"></path><path d="M8.25 23.25v-3a4.46 4.46 0 0 0 -0.76 -2.5L6.35 16a1.39 1.39 0 0 0 -2 -0.44h0a1.4 1.4 0 0 0 -0.47 1.79l1.35 2.25" fill="none" stroke="#000000" stroke-linecap="round" stroke-linejoin="round" stroke-width="1"></path><path d="m20.25 23.25 2 -2.38a4.5 4.5 0 0 0 1 -2.81v-5.17a1.5 1.5 0 0 0 -1.5 -1.5h0a1.5 1.5 0 0 0 -1.5 1.5v3.87" fill="none" stroke="#000000" stroke-linecap="round" stroke-linejoin="round" stroke-width="1"></path><path d="M15.75 23.25v-3a4.46 4.46 0 0 1 0.76 -2.5L17.65 16a1.39 1.39 0 0 1 2 -0.44h0a1.4 1.4 0 0 1 0.47 1.79l-1.35 2.25" fill="none" stroke="#000000" stroke-linecap="round" stroke-linejoin="round" stroke-width="1"></path><path d="M16.46 9a4.46 4.46 0 0 1 -8.92 0C7.54 5.21 11.36 0.75 12 0.75S16.46 5.21 16.46 9Z" fill="none" stroke="#000000" stroke-linecap="round" stroke-linejoin="round" stroke-width="1"></path><path d="M12 10.5A1.5 1.5 0 0 1 10.5 9" fill="none" stroke="#000000" stroke-linecap="round" stroke-linejoin="round" stroke-width="1"></path></g></svg>