<svg xmlns="http://www.w3.org/2000/svg" viewBox="0 0 24 24" id="Ecology-Leaf-Settings--Streamline-Ultimate"><desc>Ecology Leaf Settings Streamline Icon: https://streamlinehq.com</desc><g><g><path d="M8.58 14s1.22 2.5 3.27 2.31c4.16 -0.38 3.88 -5.91 5.4 -7.86A9.11 9.11 0 0 0 9 8.53C6.83 9.74 6.68 11.8 8.58 14Z" fill="none" stroke="#000000" stroke-linecap="round" stroke-linejoin="round" stroke-width="1"></path><path d="M11.52 11.47s-2.7 0.33 -4.62 5" fill="none" stroke="#000000" stroke-linecap="round" stroke-linejoin="round" stroke-width="1"></path></g><path d="M10.55 2.44a2 2 0 0 0 2.9 0l0.94 -1a2 2 0 0 1 3.41 1.37l-0.07 1.4a2 2 0 0 0 0.57 1.49 2 2 0 0 0 1.49 0.57l1.4 -0.07a2 2 0 0 1 1.41 3.41l-1 0.94a2 2 0 0 0 0 2.9l1 0.94a2 2 0 0 1 -1.41 3.41l-1.4 -0.07a2 2 0 0 0 -2.06 2.06l0.07 1.4a2 2 0 0 1 -3.41 1.41l-0.94 -1a2 2 0 0 0 -2.9 0l-0.94 1a2 2 0 0 1 -3.41 -1.41l0.07 -1.4a2 2 0 0 0 -0.57 -1.49 2 2 0 0 0 -1.49 -0.57l-1.4 0.07a2 2 0 0 1 -1.41 -3.41l1 -0.94a2 2 0 0 0 0 -2.9l-1 -0.94A2 2 0 0 1 2.81 6.2l1.4 0.07A2 2 0 0 0 5.7 5.7a2 2 0 0 0 0.57 -1.49l-0.07 -1.4A2 2 0 0 1 9.61 1.4Z" fill="none" stroke="#000000" stroke-linecap="round" stroke-linejoin="round" stroke-width="1"></path></g></svg>