<svg xmlns="http://www.w3.org/2000/svg" viewBox="0 0 24 24" id="Ecology-Plant-Deal--Streamline-Ultimate"><desc>Ecology Plant Deal Streamline Icon: https://streamlinehq.com</desc><g><path d="m19.33 19.45 -5.28 1.06" fill="none" stroke="#000000" stroke-linecap="round" stroke-linejoin="round" stroke-width="1"></path><path d="m14.67 14.58 -2.47 1a1.59 1.59 0 0 1 -1.23 0 1.65 1.65 0 0 1 -0.86 -0.88 1.6 1.6 0 0 1 0.78 -2l2.47 -1.2a2.21 2.21 0 0 1 1 -0.23 2.43 2.43 0 0 1 0.76 0.13l4.51 1.73" fill="none" stroke="#000000" stroke-linecap="round" stroke-linejoin="round" stroke-width="1"></path><path d="M4.67 20.58h1.86L9.64 23a0.92 0.92 0 0 0 1.26 0l4.66 -3.74A0.91 0.91 0 0 0 15.7 18l-2.56 -2.83" fill="none" stroke="#000000" stroke-linecap="round" stroke-linejoin="round" stroke-width="1"></path><path d="m4.67 13.92 3.79 -1.62a2 2 0 0 1 0.73 -0.14 2 2 0 0 1 1.16 0.38l0.32 0.27" fill="none" stroke="#000000" stroke-linecap="round" stroke-linejoin="round" stroke-width="1"></path><path d="M1.33 21.92h2a1.34 1.34 0 0 0 1.34 -1.34v-6.66a1.34 1.34 0 0 0 -1.34 -1.34h-2" fill="none" stroke="#000000" stroke-linecap="round" stroke-linejoin="round" stroke-width="1"></path><path d="M22.67 21.92h-2a1.34 1.34 0 0 1 -1.34 -1.34v-6.66a1.34 1.34 0 0 1 1.34 -1.34h2" fill="none" stroke="#000000" stroke-linecap="round" stroke-linejoin="round" stroke-width="1"></path><path d="M9.89 6.66s-1.21 2.07 -3 1.77c-3.55 -0.59 -3 -5.32 -4.14 -7.1a7.85 7.85 0 0 1 7.1 0.59c1.82 1.19 1.82 2.96 0.04 4.74Z" fill="none" stroke="#000000" stroke-linecap="round" stroke-linejoin="round" stroke-width="1"></path><path d="M15.15 7.1s0.85 1.44 2.06 1.24c2.46 -0.42 2.05 -3.7 2.87 -4.94a5.47 5.47 0 0 0 -4.93 0.41c-1.23 0.83 -1.23 2.06 0 3.29Z" fill="none" stroke="#000000" stroke-linecap="round" stroke-linejoin="round" stroke-width="1"></path><path d="M7.52 3.75s3.65 2.59 4.24 8.51a16.61 16.61 0 0 1 3.39 -5.16" fill="none" stroke="#000000" stroke-linecap="round" stroke-linejoin="round" stroke-width="1"></path></g></svg>