<svg xmlns="http://www.w3.org/2000/svg" viewBox="0 0 24 24" id="Ecology-Leaf-Bulb-Alternate--Streamline-Ultimate"><desc>Ecology Leaf Bulb Alternate Streamline Icon: https://streamlinehq.com</desc><g><path d="M14.07 20.75s1.22 2.5 3.27 2.31c4.16 -0.38 3.88 -5.91 5.4 -7.86a9.11 9.11 0 0 0 -8.27 0.08c-2.15 1.21 -2.3 3.27 -0.4 5.47Z" fill="none" stroke="#000000" stroke-linecap="round" stroke-linejoin="round" stroke-width="1"></path><path d="M17 18.22s-2.7 0.33 -4.62 5" fill="none" stroke="#000000" stroke-linecap="round" stroke-linejoin="round" stroke-width="1"></path><path d="m6.51 21.75 3.75 0" fill="none" stroke="#000000" stroke-linecap="round" stroke-linejoin="round" stroke-width="1"></path><path d="m9.51 23.25 0 -1.5" fill="none" stroke="#000000" stroke-linecap="round" stroke-linejoin="round" stroke-width="1"></path><path d="m7.26 12 2.25 2.25 0 4.5" fill="none" stroke="#000000" stroke-linecap="round" stroke-linejoin="round" stroke-width="1"></path><path d="M9.51 14.25 11.76 12" fill="none" stroke="#000000" stroke-linecap="round" stroke-linejoin="round" stroke-width="1"></path><path d="M17.45 11.25A8.37 8.37 0 0 0 17.76 9a8.25 8.25 0 1 0 -11.25 7.69v2.06h3" fill="none" stroke="#000000" stroke-linecap="round" stroke-linejoin="round" stroke-width="1"></path></g></svg>