<svg xmlns="http://www.w3.org/2000/svg" viewBox="0 0 24 24" id="Ecology-Globe-Message-1--Streamline-Ultimate"><desc>Ecology Globe Message 1 Streamline Icon: https://streamlinehq.com</desc><g><path d="M12.75 0.75a10.48 10.48 0 0 0 -8.92 16l-3.08 6.5 6.47 -3.08A10.5 10.5 0 1 0 12.75 0.75Z" fill="none" stroke="#000000" stroke-linecap="round" stroke-linejoin="round" stroke-width="1"></path><g><path d="M6.75 11.25a6 6 0 1 0 12 0 6 6 0 1 0 -12 0" fill="none" stroke="#000000" stroke-linecap="round" stroke-linejoin="round" stroke-width="1"></path><path d="M7.55 8.25H9a1.5 1.5 0 0 1 1.5 1.5v0.7a1.5 1.5 0 0 0 0.67 1.25l1 0.63a1.41 1.41 0 0 1 0 2.34l-2.58 1.68" fill="none" stroke="#000000" stroke-linecap="round" stroke-linejoin="round" stroke-width="1"></path><path d="M18 8.25h-0.7a1.49 1.49 0 0 0 -1.34 2.17c0.43 0.86 0.52 0.9 0.79 1.06l1.89 1.13" fill="none" stroke="#000000" stroke-linecap="round" stroke-linejoin="round" stroke-width="1"></path></g></g></svg>