<svg xmlns="http://www.w3.org/2000/svg" fill="none" viewBox="0 0 24 24" id="Ecology-Human-Mind-Flower--Streamline-Ultimate"><desc>Ecology Human Mind Flower Streamline Icon: https://streamlinehq.com</desc><path stroke="#000000" stroke-linecap="round" stroke-linejoin="round" d="M15.4511 23.25v-3.7463l0.999 0.1599c0.4325 0.0716 0.8755 0.0475 1.2976 -0.0707 0.4222 -0.1182 0.8133 -0.3275 1.1458 -0.6133 0.3325 -0.2858 0.5982 -0.6411 0.7784 -1.0407 0.1802 -0.3997 0.2706 -0.834 0.2647 -1.2724v-2.4076l0.9491 -0.2597c0.233 -0.0586 0.4485 -0.1724 0.6283 -0.3318 0.1799 -0.1594 0.3187 -0.3597 0.4049 -0.584 0.0862 -0.2243 0.1172 -0.466 0.0904 -0.7048 -0.0268 -0.2388 -0.1107 -0.4676 -0.2445 -0.6672l-1.7782 -2.70728v-0.73927c0 -4.42562 -4.4756 -7.992083 -9.8003 -7.462607 -1.90298 0.167014 -3.70328 0.935767 -5.13992 2.194817C3.60975 4.2561 2.61146 5.93999 2.19624 7.80458c-0.41522 1.86459 -0.22578 3.81292 0.54085 5.56262 0.76663 1.7497 2.0706 3.2098 3.72287 4.1685V23.25" stroke-width="1"></path><path stroke="#000000" stroke-linecap="round" stroke-linejoin="round" d="M16.2144 8.6523c0.0094 -0.26848 -0.0354 -0.5361 -0.1317 -0.78689 -0.0963 -0.25078 -0.2421 -0.4796 -0.4288 -0.6728 -0.1866 -0.19319 -0.4103 -0.34681 -0.6576 -0.45166 -0.2474 -0.10486 -0.5133 -0.15882 -0.7819 -0.15865 -0.3563 0.00432 -0.7037 0.11201 -1 0.31 0.0053 -0.10327 0.0053 -0.20674 0 -0.31 0.0667 -0.2929 0.0666 -0.59707 -0.0003 -0.88993s-0.1989 -0.56688 -0.3863 -0.80172c-0.1873 -0.23483 -0.4251 -0.42445 -0.6958 -0.55477s-0.5672 -0.19799 -0.8676 -0.19799 -0.597 0.06767 -0.8676 0.19799c-0.2707 0.13032 -0.50854 0.31994 -0.69588 0.55477 -0.18734 0.23484 -0.31937 0.50886 -0.38629 0.80172 -0.06692 0.29286 -0.067 0.59703 -0.00025 0.88993 -0.01036 0.10307 -0.01036 0.20692 0 0.31 -0.29726 -0.19594 -0.64404 -0.30344 -1 -0.31 -0.51634 0.03846 -0.99764 0.27567 -1.34266 0.66172 -0.34503 0.38606 -0.52689 0.89088 -0.50734 1.40828 -0.01637 0.52383 0.17354 1.03317 0.52887 1.4184 0.35533 0.3853 0.84768 0.6156 1.37113 0.6416 -0.21448 0.1993 -0.38556 0.4407 -0.50256 0.7091 -0.117 0.2684 -0.17741 0.5581 -0.17744 0.8509 -0.0094 0.2685 0.03538 0.5361 0.13167 0.7869 0.09629 0.2508 0.24212 0.4796 0.42878 0.6728 0.18666 0.1932 0.41033 0.3468 0.65766 0.4516 0.24733 0.1049 0.51325 0.1589 0.78189 0.1587 0.35812 -0.0051 0.70772 -0.1098 1.00972 -0.3023 0.302 -0.1925 0.5444 -0.4653 0.7003 -0.7877 0.1558 0.3224 0.3983 0.5952 0.7003 0.7877 0.302 0.1925 0.6516 0.2972 1.0097 0.3023 0.5252 -0.026 1.0191 -0.2577 1.3747 -0.6452 0.3556 -0.3874 0.5443 -0.8993 0.5253 -1.4248 -0.0001 -0.2928 -0.0605 -0.5825 -0.1775 -0.8509 -0.117 -0.2684 -0.288 -0.5098 -0.5025 -0.7091 0.5217 -0.0285 1.0115 -0.26 1.3647 -0.6449 0.3532 -0.38501 0.5417 -0.89291 0.5253 -1.4151Z" stroke-width="1"></path><path stroke="#000000" d="M11.3794 9.74586c-0.2071 0 -0.375 -0.1679 -0.375 -0.375 0 -0.20711 0.1679 -0.375 0.375 -0.375" stroke-width="1"></path><path stroke="#000000" d="M11.3794 9.74586c0.2071 0 0.375 -0.1679 0.375 -0.375 0 -0.20711 -0.1679 -0.375 -0.375 -0.375" stroke-width="1"></path></svg>