<svg xmlns="http://www.w3.org/2000/svg" viewBox="0 0 24 24" id="Ecology-Globe-Nature--Streamline-Ultimate"><desc>Ecology Globe Nature Streamline Icon: https://streamlinehq.com</desc><g><path d="M19.53 0.75 16.57 8a0.77 0.77 0 0 0 0.09 0.69 0.75 0.75 0 0 0 0.62 0.32h4.5a0.75 0.75 0 0 0 0.61 -0.32 0.77 0.77 0 0 0 0.09 -0.69Z" fill="none" stroke="#000000" stroke-linecap="round" stroke-linejoin="round" stroke-width="1"></path><path d="m19.53 9 0 3" fill="none" stroke="#000000" stroke-linecap="round" stroke-linejoin="round" stroke-width="1"></path><path d="m4.53 9 3.94 -4.63a0.74 0.74 0 0 1 1.11 0L13.53 9" fill="none" stroke="#000000" stroke-linecap="round" stroke-linejoin="round" stroke-width="1"></path><path d="M22.47 12a0.76 0.76 0 0 1 0.55 0.24 0.74 0.74 0 0 1 0.2 0.56 11.25 11.25 0 0 1 -22.44 0 0.74 0.74 0 0 1 0.2 -0.56 0.76 0.76 0 0 1 0.55 -0.24Z" fill="none" stroke="#000000" stroke-linecap="round" stroke-linejoin="round" stroke-width="1"></path><path d="m5 20.79 1 -5h1.08a1.48 1.48 0 0 0 1.18 -0.58 1.44 1.44 0 0 0 0.27 -1.28L8.06 12" fill="none" stroke="#000000" stroke-linecap="round" stroke-linejoin="round" stroke-width="1"></path><path d="m17.87 12 0.67 4A1.5 1.5 0 0 0 20 17.25h2" fill="none" stroke="#000000" stroke-linecap="round" stroke-linejoin="round" stroke-width="1"></path></g></svg>