<svg xmlns="http://www.w3.org/2000/svg" viewBox="0 0 24 24" id="Azadi-Tower-Iran--Streamline-Ultimate"><desc>Azadi Tower Iran Streamline Icon: https://streamlinehq.com</desc><defs></defs><title>azadi-tower-iran</title><path d="M5.447 15.939 6.5 2.25l11 0 1.053 13.688" fill="none" stroke="#000000" stroke-linecap="round" stroke-linejoin="round" stroke-width="1"></path><path d="M23 21.75c-5.85 -6.5 -9 -13.5 -9 -19v8a61.576 61.576 0 0 0 1.5 11Z" fill="none" stroke="#000000" stroke-linecap="round" stroke-linejoin="round" stroke-width="1"></path><path d="M1 21.75c5.85 -6.5 9 -13.5 9 -19v8a61.576 61.576 0 0 1 -1.5 11Z" fill="none" stroke="#000000" stroke-linecap="round" stroke-linejoin="round" stroke-width="1"></path><path d="M10 11.25c0 -1.5 2 -2.5 2 -2.5s2 1 2 2.5" fill="none" stroke="#000000" stroke-linecap="round" stroke-linejoin="round" stroke-width="1"></path><path d="M9.7 14.951a2.306 2.306 0 1 1 4.608 0" fill="none" stroke="#000000" stroke-linecap="round" stroke-linejoin="round" stroke-width="1"></path></svg>