<svg viewBox="0 0 24 24" xmlns="http://www.w3.org/2000/svg" id="Landmark-Volcano--Streamline-Ultimate"><desc>Landmark Volcano Streamline Icon: https://streamlinehq.com</desc><path d="M0.75 22.5a12.547 12.547 0 0 0 7.967 -7.959 1.5 1.5 0 0 1 1.428 -1.041H12" fill="none" stroke="#000000" stroke-linecap="round" stroke-linejoin="round" stroke-width="1"></path><path d="M23.25 22.5a12.547 12.547 0 0 1 -7.967 -7.959 1.5 1.5 0 0 0 -1.428 -1.041H12" fill="none" stroke="#000000" stroke-linecap="round" stroke-linejoin="round" stroke-width="1"></path><path d="M2.25 4.5a3 3 0 1 0 6 0 3 3 0 1 0 -6 0Z" fill="none" stroke="#000000" stroke-linecap="round" stroke-linejoin="round" stroke-width="1"></path><path d="m7.784 16.69 1.55 1.033a0.75 0.75 0 0 0 0.832 0l1.418 -0.946a0.75 0.75 0 0 1 0.832 0l1.418 0.946a0.75 0.75 0 0 0 0.832 0l1.55 -1.033" fill="none" stroke="#000000" stroke-linecap="round" stroke-linejoin="round" stroke-width="1"></path></svg>