<svg viewBox="0 0 24 24" xmlns="http://www.w3.org/2000/svg" id="Landmark-Japan-Castle-1--Streamline-Ultimate"><desc>Landmark Japan Castle 1 Streamline Icon: https://streamlinehq.com</desc><path d="m19.5 17.095 0 3.75 -15 0 0 -3.75" fill="none" stroke="#000000" stroke-linecap="round" stroke-linejoin="round" stroke-width="1"></path><path d="M10.5 12.6H5.758a0.75 0.75 0 0 0 -0.7 0.471L2.25 17.1" fill="none" stroke="#000000" stroke-linecap="round" stroke-linejoin="round" stroke-width="1"></path><path d="m21.75 17.1 -2.77 -3.97a0.851 0.851 0 0 1 -0.062 -0.105 0.749 0.749 0 0 0 -0.676 -0.425H13.5" fill="none" stroke="#000000" stroke-linecap="round" stroke-linejoin="round" stroke-width="1"></path><path d="m0.75 23.1 0.579 -1.738a0.75 0.75 0 0 1 0.712 -0.512h19.918a0.75 0.75 0 0 1 0.712 0.512l0.579 1.738" fill="none" stroke="#000000" stroke-linecap="round" stroke-linejoin="round" stroke-width="1"></path><path d="m9 14.1 2.47 -2.47a0.749 0.749 0 0 1 1.06 0L15 14.1" fill="none" stroke="#000000" stroke-linecap="round" stroke-linejoin="round" stroke-width="1"></path><path d="m9 9.6 2.47 -2.47a0.749 0.749 0 0 1 1.06 0L15 9.6" fill="none" stroke="#000000" stroke-linecap="round" stroke-linejoin="round" stroke-width="1"></path><path d="M12.749 7.345h3.96a0.75 0.75 0 0 1 0.712 0.512L18 9.6" fill="none" stroke="#000000" stroke-linecap="round" stroke-linejoin="round" stroke-width="1"></path><path d="m6 9.6 0.579 -1.738a0.75 0.75 0 0 1 0.712 -0.512h3.959" fill="none" stroke="#000000" stroke-linecap="round" stroke-linejoin="round" stroke-width="1"></path><path d="M9 4.345V3.6l2.47 -2.47a0.749 0.749 0 0 1 1.06 0L15 3.6v0.75" fill="none" stroke="#000000" stroke-linecap="round" stroke-linejoin="round" stroke-width="1"></path><path d="m21.75 17.095 1.5 -1.5" fill="none" stroke="#000000" stroke-linecap="round" stroke-linejoin="round" stroke-width="1"></path><path d="m2.25 17.095 -1.5 -1.5" fill="none" stroke="#000000" stroke-linecap="round" stroke-linejoin="round" stroke-width="1"></path><path d="m15 3.595 1.5 -1.5" fill="none" stroke="#000000" stroke-linecap="round" stroke-linejoin="round" stroke-width="1"></path><path d="m18 9.595 1.5 -1.5" fill="none" stroke="#000000" stroke-linecap="round" stroke-linejoin="round" stroke-width="1"></path><path d="m6 9.595 -1.5 -1.5" fill="none" stroke="#000000" stroke-linecap="round" stroke-linejoin="round" stroke-width="1"></path><path d="m9 3.595 -1.5 -1.5" fill="none" stroke="#000000" stroke-linecap="round" stroke-linejoin="round" stroke-width="1"></path><path d="m21.75 17.095 -19.5 0" fill="none" stroke="#000000" stroke-linecap="round" stroke-linejoin="round" stroke-width="1"></path></svg>