<svg viewBox="0 0 24 24" xmlns="http://www.w3.org/2000/svg" id="Landmark-Buddha-Statue--Streamline-Ultimate"><desc>Landmark Buddha Statue Streamline Icon: https://streamlinehq.com</desc><path d="M9.533 7.125a3 3.375 0 1 0 6 0 3 3.375 0 1 0 -6 0Z" fill="none" stroke="#000000" stroke-linecap="round" stroke-linejoin="round" stroke-width="1"></path><path d="M11.351 3.924a1.5 1.5 0 1 1 2.364 0" fill="none" stroke="#000000" stroke-linecap="round" stroke-linejoin="round" stroke-width="1"></path><path d="M20.033 21a1.5 1.5 0 0 1 -1.5 1.5h-12a1.5 1.5 0 0 1 0 -3h12a1.5 1.5 0 0 1 1.5 1.5Z" fill="none" stroke="#000000" stroke-linecap="round" stroke-linejoin="round" stroke-width="1"></path><path d="M8.033 10.5h7.5c3 0 3 2.843 3 4.5v4.5h-10.5" fill="none" stroke="#000000" stroke-linecap="round" stroke-linejoin="round" stroke-width="1"></path><path d="M9.533 22.5q4.5 -1.5 6 -3" fill="none" stroke="#000000" stroke-linecap="round" stroke-linejoin="round" stroke-width="1"></path><path d="M14.783 10.5A25.454 25.454 0 0 1 8.9 13.981" fill="none" stroke="#000000" stroke-linecap="round" stroke-linejoin="round" stroke-width="1"></path><path d="M8.033 10.5a2.426 2.426 0 0 0 -2.171 1.342l-1.737 3.474a1.5 1.5 0 0 0 0.51 1.919l3.4 2.265" fill="none" stroke="#000000" stroke-linecap="round" stroke-linejoin="round" stroke-width="1"></path><path d="m17.953 11.714 -3.17 2.536A27.682 27.682 0 0 1 9.8 17.362" fill="none" stroke="#000000" stroke-linecap="round" stroke-linejoin="round" stroke-width="1"></path><path d="m18.533 15 -3.75 3s-0.869 0.7 -2.1 1.5" fill="none" stroke="#000000" stroke-linecap="round" stroke-linejoin="round" stroke-width="1"></path></svg>