<svg viewBox="0 0 24 24" xmlns="http://www.w3.org/2000/svg" id="Landmark-Sydney-Opera-House-1--Streamline-Ultimate"><desc>Landmark Sydney Opera House 1 Streamline Icon: https://streamlinehq.com</desc><path d="M21.75 23.25v-2.5a0.5 0.5 0 0 0 -0.5 -0.5h-9.188L8.549 18h-5.8a0.5 0.5 0 0 0 -0.5 0.5v4.75" fill="none" stroke="#000000" stroke-linecap="round" stroke-linejoin="round" stroke-width="1"></path><path d="m20.593 20.25 2.533 -4a0.5 0.5 0 0 0 -0.329 -0.8 7.985 7.985 0 0 0 -4.713 0.662 6.018 6.018 0 0 0 -3.011 4.137" fill="none" stroke="#000000" stroke-linecap="round" stroke-linejoin="round" stroke-width="1"></path><path d="M12.062 20.25 10.186 8.838a0.5 0.5 0 0 1 0.632 -0.569 10.887 10.887 0 0 1 5.76 3.829 7.54 7.54 0 0 1 1.506 4.015" fill="none" stroke="#000000" stroke-linecap="round" stroke-linejoin="round" stroke-width="1"></path><path d="m6.542 18 -1.817 -6.742a0.5 0.5 0 0 1 0.531 -0.637 9.7 9.7 0 0 1 3.293 0.976 5.179 5.179 0 0 1 2.509 2.509" fill="none" stroke="#000000" stroke-linecap="round" stroke-linejoin="round" stroke-width="1"></path><path d="m3.029 18 -2.2 -3.906a0.5 0.5 0 0 1 0.251 -0.737 4.657 4.657 0 0 1 2.451 -0.257 3.669 3.669 0 0 1 1.946 0.935" fill="none" stroke="#000000" stroke-linecap="round" stroke-linejoin="round" stroke-width="1"></path><path d="m0.75 23.25 22.5 0" fill="none" stroke="#000000" stroke-linecap="round" stroke-linejoin="round" stroke-width="1"></path><path d="M21 6.75a2.25 2.25 0 1 0 -1.614 -3.817A3 3 0 1 0 16.5 6.75Z" fill="none" stroke="#000000" stroke-linecap="round" stroke-linejoin="round" stroke-width="1"></path></svg>