<svg xmlns="http://www.w3.org/2000/svg" fill="none" viewBox="0 0 24 24" id="Landmark-Bagan--Streamline-Ultimate"><desc>Landmark Bagan Streamline Icon: https://streamlinehq.com</desc><path stroke="#000000" stroke-linecap="round" stroke-linejoin="round" d="M4.969 5.85104c-0.13321 0.10628 -0.29858 0.16417 -0.469 0.16417 -0.17042 0 -0.33579 -0.05789 -0.469 -0.16417l-0.937 -0.751c-0.26299 -0.21078 -0.47534 -0.47787 -0.62141 -0.7816 -0.14607 -0.30374 -0.22213 -0.63637 -0.22259 -0.9734v-0.345c0.00002 -0.38845 0.10061 -0.77027 0.29197 -1.10831 0.19136 -0.33803 0.46698 -0.62077 0.80003 -0.82069v0C3.69174 0.860974 4.09203 0.75 4.5 0.75c0.40797 0 0.80826 0.110974 1.158 0.32104v0c0.33305 0.19992 0.60867 0.48266 0.80003 0.82069 0.19136 0.33804 0.29195 0.71986 0.29197 1.10831v0.345c-0.00043 0.33713 -0.07659 0.66987 -0.22284 0.97363 -0.14626 0.30376 -0.35888 0.57079 -0.62216 0.78137l-0.936 0.751Z" stroke-width="1"></path><path stroke="#000000" stroke-linecap="round" stroke-linejoin="round" d="M10.5 17.2501H12c0 -0.3979 0.158 -0.7794 0.4393 -1.0607s0.6629 -0.4393 1.0607 -0.4393v-3.1c0.0001 -0.4198 0.117 -0.8312 0.3375 -1.1883 0.2206 -0.3571 0.5362 -0.6458 0.9115 -0.8337l2.5 -6.87505 2.5 6.87505c0.3752 0.1874 0.6909 0.4755 0.9118 0.832 0.2209 0.3566 0.3384 0.7675 0.3392 1.187v3.1c0.3978 0 0.7794 0.158 1.0607 0.4393s0.4393 0.6628 0.4393 1.0607" stroke-width="1"></path><path stroke="#000000" stroke-linecap="round" stroke-linejoin="round" d="M1.5 23.25v-3c0.00009 -0.4197 0.11696 -0.8311 0.33754 -1.1882 0.22059 -0.3571 0.53617 -0.6458 0.91146 -0.8338L4.5 14.353l1.751 3.875c0.37529 0.188 0.69087 0.4767 0.91146 0.8338 0.22058 0.3571 0.33745 0.7685 0.33754 1.1882v2.25c0 0.1989 0.07902 0.3897 0.21967 0.5304 0.14065 0.1406 0.33142 0.2196 0.53033 0.2196h2.25" stroke-width="1"></path><path stroke="#000000" d="M4.5 9c-0.20711 0 -0.375 -0.16789 -0.375 -0.375s0.16789 -0.375 0.375 -0.375" stroke-width="1"></path><path stroke="#000000" d="M4.5 9c0.20711 0 0.375 -0.16789 0.375 -0.375S4.70711 8.25 4.5 8.25" stroke-width="1"></path></svg>