<svg viewBox="0 0 24 24" xmlns="http://www.w3.org/2000/svg" id="Landmark-Chinese-Pagoda-1--Streamline-Ultimate"><desc>Landmark Chinese Pagoda 1 Streamline Icon: https://streamlinehq.com</desc><path d="M17.528 12H6.471A7.81 7.81 0 0 1 1 15.214a0.292 0.292 0 0 0 -0.249 0.27 0.311 0.311 0 0 0 0.186 0.327 12.708 12.708 0 0 0 4.428 0.689h13.269a12.7 12.7 0 0 0 4.427 -0.689 0.311 0.311 0 0 0 0.187 -0.327 0.292 0.292 0 0 0 -0.249 -0.27A7.814 7.814 0 0 1 17.528 12Z" fill="none" stroke="#000000" stroke-linecap="round" stroke-linejoin="round" stroke-width="1"></path><path d="m19.5 16.479 0 2.271" fill="none" stroke="#000000" stroke-linecap="round" stroke-linejoin="round" stroke-width="1"></path><path d="m4.5 16.479 0 2.271" fill="none" stroke="#000000" stroke-linecap="round" stroke-linejoin="round" stroke-width="1"></path><path d="M18.6 6.964A20.81 20.81 0 0 1 13.225 4.5h-2.45A20.81 20.81 0 0 1 5.4 6.964c-0.078 0.013 -0.141 0.126 -0.15 0.27a0.375 0.375 0 0 0 0.112 0.327 4.964 4.964 0 0 0 2.656 0.689h7.962a4.965 4.965 0 0 0 2.657 -0.689 0.375 0.375 0 0 0 0.112 -0.327c-0.009 -0.144 -0.072 -0.257 -0.149 -0.27Z" fill="none" stroke="#000000" stroke-linecap="round" stroke-linejoin="round" stroke-width="1"></path><path d="m8.689 1.5 0.75 -0.75 1.5 2.25 1.5 -1.5a1.061 1.061 0 0 1 1.5 0h0a1.059 1.059 0 0 1 0 1.5" fill="none" stroke="#000000" stroke-linecap="round" stroke-linejoin="round" stroke-width="1"></path><path d="M0.75 21v0.75a1.5 1.5 0 0 0 1.5 1.5h19.5a1.5 1.5 0 0 0 1.5 -1.5V21" fill="none" stroke="#000000" stroke-linecap="round" stroke-linejoin="round" stroke-width="1"></path><path d="m5.25 23.25 0 -2.25" fill="none" stroke="#000000" stroke-linecap="round" stroke-linejoin="round" stroke-width="1"></path><path d="m9.75 23.25 0 -2.25" fill="none" stroke="#000000" stroke-linecap="round" stroke-linejoin="round" stroke-width="1"></path><path d="m14.25 23.25 0 -2.25" fill="none" stroke="#000000" stroke-linecap="round" stroke-linejoin="round" stroke-width="1"></path><path d="m18.75 23.25 0 -2.25" fill="none" stroke="#000000" stroke-linecap="round" stroke-linejoin="round" stroke-width="1"></path><path d="m7.5 12 0 -1.5" fill="none" stroke="#000000" stroke-linecap="round" stroke-linejoin="round" stroke-width="1"></path><path d="m12 12 0 -1.5" fill="none" stroke="#000000" stroke-linecap="round" stroke-linejoin="round" stroke-width="1"></path><path d="m16.5 12 0 -1.5" fill="none" stroke="#000000" stroke-linecap="round" stroke-linejoin="round" stroke-width="1"></path></svg>