<svg viewBox="0 0 24 24" xmlns="http://www.w3.org/2000/svg" id="Landmark-Angkor-Wat--Streamline-Ultimate"><desc>Landmark Angkor Wat Streamline Icon: https://streamlinehq.com</desc><path d="M3.758 13.875C1.819 11.906 2.3 8.625 2.3 8.625s5.818 0 5.818 5.25" fill="none" stroke="#000000" stroke-linecap="round" stroke-linejoin="round" stroke-width="1"></path><path d="M20.242 13.875c1.939 -1.969 1.454 -5.25 1.454 -5.25s-5.818 0 -5.818 5.25" fill="none" stroke="#000000" stroke-linecap="round" stroke-linejoin="round" stroke-width="1"></path><path d="M15.878 13.875c0 -3.281 -3.878 -5.25 -3.878 -5.25s-3.878 1.969 -3.878 5.25" fill="none" stroke="#000000" stroke-linecap="round" stroke-linejoin="round" stroke-width="1"></path><path d="M15.79 6.016A8.792 8.792 0 0 0 12 1.875a8.792 8.792 0 0 0 -3.79 4.141" fill="none" stroke="#000000" stroke-linecap="round" stroke-linejoin="round" stroke-width="1"></path><path d="M2.25 18.375v-3.75a0.75 0.75 0 0 1 0.75 -0.75h18a0.75 0.75 0 0 1 0.75 0.75v3.75" fill="none" stroke="#000000" stroke-linecap="round" stroke-linejoin="round" stroke-width="1"></path><path d="m9.75 13.875 -2.25 8.25" fill="none" stroke="#000000" stroke-linecap="round" stroke-linejoin="round" stroke-width="1"></path><path d="m14.25 13.875 2.25 8.25" fill="none" stroke="#000000" stroke-linecap="round" stroke-linejoin="round" stroke-width="1"></path><path d="M15.5 18.375h7a0.75 0.75 0 0 1 0.75 0.75v3" fill="none" stroke="#000000" stroke-linecap="round" stroke-linejoin="round" stroke-width="1"></path><path d="M0.75 22.125v-3a0.75 0.75 0 0 1 0.75 -0.75h7.023" fill="none" stroke="#000000" stroke-linecap="round" stroke-linejoin="round" stroke-width="1"></path><path d="M4.666 9.062A6.261 6.261 0 0 1 5.32 6.4a4.873 4.873 0 0 1 1.832 -2.025S7.931 5.54 8.9 7.125" fill="none" stroke="#000000" stroke-linecap="round" stroke-linejoin="round" stroke-width="1"></path><path d="M19.334 9.062A6.261 6.261 0 0 0 18.68 6.4a4.873 4.873 0 0 0 -1.832 -2.023S16.069 5.54 15.1 7.125" fill="none" stroke="#000000" stroke-linecap="round" stroke-linejoin="round" stroke-width="1"></path></svg>