<svg xmlns="http://www.w3.org/2000/svg" viewBox="0 0 24 24" id="White-Pagoda-Tibet--Streamline-Ultimate"><desc>White Pagoda Tibet Streamline Icon: https://streamlinehq.com</desc><defs></defs><title>white-pagoda-tibet</title><path d="M3 20h18v3H3Z" fill="none" stroke="#000000" stroke-linecap="round" stroke-linejoin="round" stroke-width="1"></path><path d="M5 17h14v3H5Z" fill="none" stroke="#000000" stroke-linecap="round" stroke-linejoin="round" stroke-width="1"></path><path d="M6.262 11.786 8 17h8l1.738 -5.214a2 2 0 0 0 -0.108 -1.527L16.5 8h-9l-1.13 2.259a2 2 0 0 0 -0.108 1.527Z" fill="none" stroke="#000000" stroke-linecap="round" stroke-linejoin="round" stroke-width="1"></path><path d="M9.5 8 12 1l2 7 -4.5 0z" fill="none" stroke="#000000" stroke-linecap="round" stroke-linejoin="round" stroke-width="1"></path><path d="M11.936 11.318h0.127A1.685 1.685 0 0 1 13.748 13v4l0 0h-3.5l0 0v-4a1.685 1.685 0 0 1 1.688 -1.682Z" fill="none" stroke="#000000" stroke-linecap="round" stroke-linejoin="round" stroke-width="1"></path><path d="M6.159 11 8 11" fill="none" stroke="#000000" stroke-linecap="round" stroke-linejoin="round" stroke-width="1"></path><path d="m16 11 1.841 0" fill="none" stroke="#000000" stroke-linecap="round" stroke-linejoin="round" stroke-width="1"></path></svg>