<svg xmlns="http://www.w3.org/2000/svg" viewBox="0 0 24 24" id="Coding-Apps-Website-Web-Form-Profile-Picture-Attachment-Female--Streamline-Ultimate"><desc>Coding Apps Website Web Form Profile Picture Attachment Female Streamline Icon: https://streamlinehq.com</desc><defs></defs><path d="M7.25 18.75h-3.5a3 3 0 0 1 -3 -3v-12a3 3 0 0 1 3 -3h12a3 3 0 0 1 3 3V8.5" fill="none" stroke="#000000" stroke-linecap="round" stroke-linejoin="round" stroke-width="1"></path><path d="M7.417 6.333a2.333 2.333 0 1 0 4.666 0 2.333 2.333 0 1 0 -4.666 0" fill="none" stroke="#000000" stroke-linecap="round" stroke-linejoin="round" stroke-width="1"></path><path d="M7.417 6.333S7.417 9 5.667 9" fill="none" stroke="#000000" stroke-linecap="round" stroke-linejoin="round" stroke-width="1"></path><path d="M12.083 6.333S12.083 9 13.833 9" fill="none" stroke="#000000" stroke-linecap="round" stroke-linejoin="round" stroke-width="1"></path><path d="M10.032 14.75H5.25a4.5 4.5 0 0 1 7.888 -2.961" fill="none" stroke="#000000" stroke-linecap="round" stroke-linejoin="round" stroke-width="1"></path><path d="m13.724 19.227 3.822 -3.822a1.423 1.423 0 0 1 2.012 2.012l-4.44 4.439a2.845 2.845 0 0 1 -4.018 -4.023l4.871 -4.87A4.267 4.267 0 0 1 22 19l-4.253 4.25" fill="none" stroke="#000000" stroke-linecap="round" stroke-linejoin="round" stroke-width="1"></path></svg>