<svg xmlns="http://www.w3.org/2000/svg" viewBox="0 0 24 24" id="Coding-Apps-Website-Web-Form-Image-Attachment-Camera--Streamline-Ultimate"><desc>Coding Apps Website Web Form Image Attachment Camera Streamline Icon: https://streamlinehq.com</desc><defs></defs><path d="M8 21.25H2.25a1.5 1.5 0 0 1 -1.5 -1.5V2.25a1.5 1.5 0 0 1 1.5 -1.5h12a1.5 1.5 0 0 1 1.047 0.426l3 2.883a1.5 1.5 0 0 1 0.453 1.074V8.5" fill="none" stroke="#000000" stroke-linecap="round" stroke-linejoin="round" stroke-width="1"></path><path d="M10.571 14.286H5.429A1.429 1.429 0 0 1 4 12.857V8.071a1.428 1.428 0 0 1 1.429 -1.428h1.428l0.714 -1.429h4.286l0.706 1.429h1.429a1.428 1.428 0 0 1 1.428 1.428v1.246" fill="none" stroke="#000000" stroke-linecap="round" stroke-linejoin="round" stroke-width="1"></path><path d="M8.214 10.107a1.5 1.5 0 1 0 3 0 1.5 1.5 0 1 0 -3 0" fill="none" stroke="#000000" stroke-linecap="round" stroke-linejoin="round" stroke-width="1"></path><path d="m13.724 19.227 3.822 -3.822a1.423 1.423 0 0 1 2.012 2.012l-4.44 4.439a2.845 2.845 0 0 1 -4.018 -4.023l4.871 -4.87A4.267 4.267 0 0 1 22 19l-4.253 4.25" fill="none" stroke="#000000" stroke-linecap="round" stroke-linejoin="round" stroke-width="1"></path></svg>