<svg xmlns="http://www.w3.org/2000/svg" viewBox="0 0 24 24" id="Coding-Apps-Website-Web-Form-Image-Upload-Camera--Streamline-Ultimate"><desc>Coding Apps Website Web Form Image Upload Camera Streamline Icon: https://streamlinehq.com</desc><defs></defs><path d="M12.763 21.25h-10.5a1.5 1.5 0 0 1 -1.5 -1.5V2.25a1.5 1.5 0 0 1 1.5 -1.5h12a1.5 1.5 0 0 1 1.048 0.426l3 2.883a1.5 1.5 0 0 1 0.452 1.074V8" fill="none" stroke="#000000" stroke-linecap="round" stroke-linejoin="round" stroke-width="1"></path><path d="M11.835 14.286H5.442a1.429 1.429 0 0 1 -1.429 -1.429V8.071a1.428 1.428 0 0 1 1.429 -1.428H6.87l0.715 -1.429h4.285l0.706 1.429h1.429a1.428 1.428 0 0 1 1.429 1.428v1.5" fill="none" stroke="#000000" stroke-linecap="round" stroke-linejoin="round" stroke-width="1"></path><path d="M8.228 10.107a1.5 1.5 0 1 0 3 0 1.5 1.5 0 1 0 -3 0" fill="none" stroke="#000000" stroke-linecap="round" stroke-linejoin="round" stroke-width="1"></path><path d="M23.237 17.117 18.25 11.25l-4.987 5.867 2.72 0 0 6.133 4.534 0 0 -6.133 2.72 0z" fill="none" stroke="#000000" stroke-linecap="round" stroke-linejoin="round" stroke-width="1"></path></svg>