<svg xmlns="http://www.w3.org/2000/svg" viewBox="0 0 24 24" id="Coding-Apps-Website-Web-Form-File-Attach--Streamline-Ultimate"><desc>Coding Apps Website Web Form File Attach Streamline Icon: https://streamlinehq.com</desc><defs></defs><path d="M17.561 19.532v-5.4a1.422 1.422 0 1 1 2.844 0v6.278a2.845 2.845 0 1 1 -5.689 0v-6.893a4.267 4.267 0 1 1 8.534 0v6.015" fill="none" stroke="#000000" stroke-linecap="round" stroke-linejoin="round" stroke-width="1"></path><path d="M11.5 20.25H2.25a1.5 1.5 0 0 1 -1.5 -1.5V2.25a1.5 1.5 0 0 1 1.5 -1.5h10.629a1.5 1.5 0 0 1 1.06 0.439l2.872 2.872a1.5 1.5 0 0 1 0.439 1.06v1.2" fill="none" stroke="#000000" stroke-linecap="round" stroke-linejoin="round" stroke-width="1"></path></svg>