<svg xmlns="http://www.w3.org/2000/svg" viewBox="0 0 24 24" id="Coding-Apps-Website-Web-Form-Profile-Picture-Upload-Female--Streamline-Ultimate"><desc>Coding Apps Website Web Form Profile Picture Upload Female Streamline Icon: https://streamlinehq.com</desc><defs></defs><path d="M10.507 18.75h-6.75a3 3 0 0 1 -3 -3v-12a3 3 0 0 1 3 -3h12a3 3 0 0 1 3 3V8" fill="none" stroke="#000000" stroke-linecap="round" stroke-linejoin="round" stroke-width="1"></path><path d="M7.424 6.333a2.333 2.333 0 1 0 4.666 0 2.333 2.333 0 1 0 -4.666 0" fill="none" stroke="#000000" stroke-linecap="round" stroke-linejoin="round" stroke-width="1"></path><path d="M7.423 6.333S7.423 9 5.673 9" fill="none" stroke="#000000" stroke-linecap="round" stroke-linejoin="round" stroke-width="1"></path><path d="M12.09 6.333S12.09 9 13.84 9" fill="none" stroke="#000000" stroke-linecap="round" stroke-linejoin="round" stroke-width="1"></path><path d="M11.038 14.75H5.257a4.5 4.5 0 0 1 7.888 -2.961" fill="none" stroke="#000000" stroke-linecap="round" stroke-linejoin="round" stroke-width="1"></path><path d="m23.243 17.117 -4.986 -5.867 -4.987 5.867 2.72 0 0 6.133 4.533 0 0 -6.133 2.72 0z" fill="none" stroke="#000000" stroke-linecap="round" stroke-linejoin="round" stroke-width="1"></path></svg>