<svg xmlns="http://www.w3.org/2000/svg" viewBox="0 0 24 24" id="Coding-Apps-Website-Web-Form-Email-Field-3--Streamline-Ultimate"><desc>Coding Apps Website Web Form Email Field 3 Streamline Icon: https://streamlinehq.com</desc><defs></defs><path d="M23.25 13.25v6.25a1 1 0 0 1 -1 1H1.75a1 1 0 0 1 -1 -1V9.25a1 1 0 0 1 1 -1H9" fill="none" stroke="#000000" stroke-linecap="round" stroke-linejoin="round" stroke-width="1"></path><path d="M19.334 14.187A5.5 5.5 0 1 1 23 9" fill="none" stroke="#000000" stroke-linecap="round" stroke-linejoin="round" stroke-width="1"></path><path d="M15.667 9a1.833 1.833 0 1 0 3.666 0 1.833 1.833 0 1 0 -3.666 0" fill="none" stroke="#000000" stroke-linecap="round" stroke-linejoin="round" stroke-width="1"></path><path d="M19.333 9A1.834 1.834 0 0 0 23 9" fill="none" stroke="#000000" stroke-linecap="round" stroke-linejoin="round" stroke-width="1"></path><path d="m4.662 11.667 0 5.416" fill="none" stroke="#000000" stroke-linecap="round" stroke-linejoin="round" stroke-width="1"></path></svg>