<svg xmlns="http://www.w3.org/2000/svg" fill="none" viewBox="0 0 24 24" id="Coding-Apps-Website-Web-Form-Image-Attachment--Streamline-Ultimate"><desc>Coding Apps Website Web Form Image Attachment Streamline Icon: https://streamlinehq.com</desc><path stroke="#000000" stroke-linecap="round" stroke-linejoin="round" d="M11.2401 20.0174H2.46287c-0.38797 0 -0.76006 -0.1542 -1.0344 -0.4285C1.15412 19.3146 1 18.9425 1 18.5545V2.46287c0 -0.38797 0.15412 -0.76006 0.42847 -1.0344C1.70281 1.15412 2.0749 1 2.46287 1H12.8288c0.3877 0.00008 0.7595 0.15407 1.0338 0.42813l2.8009 2.80092c0.274 0.27424 0.428 0.64606 0.4281 1.03376V6.8515" stroke-width="1"></path><path stroke="#000000" stroke-linecap="round" stroke-linejoin="round" d="M6.12004 4.30658c0.28933 0 0.57216 0.0858 0.81273 0.24654 0.24057 0.16074 0.42807 0.38921 0.53879 0.65652 0.11072 0.2673 0.13969 0.56144 0.08324 0.84521 -0.05644 0.28376 -0.19577 0.54442 -0.40035 0.74901 -0.20459 0.20459 -0.46525 0.34391 -0.74902 0.40036 -0.28377 0.05644 -0.5779 0.02747 -0.84521 -0.08325 -0.2673 -0.11072 -0.49577 -0.29822 -0.65652 -0.53879 -0.16074 -0.24057 -0.24653 -0.5234 -0.24653 -0.81273 0 -0.38798 0.15412 -0.76006 0.42846 -1.0344 0.27434 -0.27435 0.64643 -0.42847 1.03441 -0.42847Z" stroke-width="1"></path><path stroke="#000000" stroke-linecap="round" stroke-linejoin="round" d="m12.4368 10.2298 -1.1966 -1.91542c-0.0659 -0.09912 -0.1551 -0.18065 -0.2596 -0.23747 -0.1046 -0.05683 -0.2215 -0.08724 -0.3405 -0.08858 -0.119 -0.00135 -0.2366 0.02641 -0.3424 0.08086 -0.1059 0.05444 -0.1968 0.13393 -0.2649 0.23154L8.08229 11.0812l-1.2015 -0.9626c-0.07915 -0.0635 -0.17063 -0.1097 -0.26863 -0.13593 -0.09799 -0.02619 -0.20037 -0.03171 -0.30061 -0.01621 -0.10025 0.0155 -0.19617 0.05164 -0.28168 0.10624 -0.08551 0.0546 -0.15874 0.1263 -0.21503 0.2107l-1.88906 3.8825h7.80202" stroke-width="1"></path><path stroke="#000000" stroke-linecap="round" stroke-linejoin="round" d="M17.3949 19.3171v-5.2663c0 -0.3678 0.1461 -0.7206 0.4062 -0.9806 0.26 -0.2601 0.6128 -0.4062 0.9806 -0.4062s0.7205 0.1461 0.9806 0.4062c0.2601 0.26 0.4062 0.6128 0.4062 0.9806v6.1226c0.0069 0.3687 -0.0597 0.735 -0.196 1.0776 -0.1364 0.3427 -0.3396 0.6547 -0.5979 0.9179 -0.2583 0.2631 -0.5664 0.4722 -0.9064 0.6149 -0.34 0.1427 -0.7051 0.2162 -1.0738 0.2162 -0.3687 0 -0.7338 -0.0735 -1.0738 -0.2162 -0.34 -0.1427 -0.6482 -0.3518 -0.9064 -0.6149 -0.2583 -0.2632 -0.4616 -0.5752 -0.5979 -0.9179 -0.1363 -0.3426 -0.2029 -0.7089 -0.196 -1.0776V13.451c0 -1.1037 0.4384 -2.1621 1.2188 -2.9425 0.7805 -0.78046 1.8389 -1.21889 2.9426 -1.21889 1.1037 0 2.1621 0.43843 2.9425 1.21889 0.7804 0.7804 1.2189 1.8388 1.2189 2.9425v5.8661" stroke-width="1"></path></svg>