<svg xmlns="http://www.w3.org/2000/svg" viewBox="0 0 24 24" id="Coding-Apps-Website-Web-Form-Profile-Picture-Upload-Male--Streamline-Ultimate"><desc>Coding Apps Website Web Form Profile Picture Upload Male Streamline Icon: https://streamlinehq.com</desc><defs></defs><path d="M10.25 18.75h-6.5a3 3 0 0 1 -3 -3v-12a3 3 0 0 1 3 -3h12a3 3 0 0 1 3 3v4" fill="none" stroke="#000000" stroke-linecap="round" stroke-linejoin="round" stroke-width="1"></path><path d="m23.25 17.117 -4.987 -5.867 -4.986 5.867 2.72 0 0 6.133 4.533 0 0 -6.133 2.72 0z" fill="none" stroke="#000000" stroke-linecap="round" stroke-linejoin="round" stroke-width="1"></path><path d="M7.125 6.875a2.625 2.625 0 1 0 5.25 0 2.625 2.625 0 1 0 -5.25 0" fill="none" stroke="#000000" stroke-linecap="round" stroke-linejoin="round" stroke-width="1"></path><path d="M11.336 14.75H5.25a4.5 4.5 0 0 1 8.335 -2.35" fill="none" stroke="#000000" stroke-linecap="round" stroke-linejoin="round" stroke-width="1"></path></svg>