<svg xmlns="http://www.w3.org/2000/svg" fill="none" viewBox="0 0 24 24" id="Coding-Apps-Website-Web-Form-Progress-3--Streamline-Ultimate"><desc>Coding Apps Website Web Form Progress 3 Streamline Icon: https://streamlinehq.com</desc><path stroke="#000000" stroke-linecap="round" stroke-linejoin="round" d="M0.75 16.375h22" stroke-width="1"></path><path stroke="#000000" stroke-linecap="round" stroke-linejoin="round" d="m19 12.375 4.25 4 -4.25 4" stroke-width="1"></path><path stroke="#000000" stroke-linecap="round" stroke-linejoin="round" d="M10.669 4.618c0.0965 -0.28914 0.2815 -0.54061 0.5288 -0.71882 0.2473 -0.17821 0.5444 -0.27412 0.8492 -0.27418v0c0.1908 -0.00013 0.3798 0.03736 0.5562 0.11034 0.1763 0.07297 0.3366 0.17999 0.4715 0.31494 0.135 0.13495 0.242 0.29518 0.315 0.47153 0.0729 0.17634 0.1104 0.36534 0.1103 0.55619v0c0 0.35033 -0.1393 0.6863 -0.387 0.934L10.5 8.625h3" stroke-width="1"></path><path stroke="#000000" stroke-linecap="round" stroke-linejoin="round" d="M20 4.625c0 -0.26522 0.1054 -0.51957 0.2929 -0.70711 0.1875 -0.18753 0.4419 -0.29289 0.7071 -0.29289h0.757c0.1642 0.00033 0.3266 0.03299 0.4782 0.09611 0.1515 0.06312 0.2891 0.15547 0.405 0.27177 0.1158 0.11631 0.2076 0.25429 0.2701 0.40608 0.0625 0.15178 0.0945 0.31439 0.0942 0.47854 -0.0003 0.16415 -0.033 0.32663 -0.0961 0.47816 -0.0631 0.15154 -0.1555 0.28915 -0.2718 0.40499 -0.1163 0.11584 -0.2543 0.20764 -0.4061 0.27016 -0.1517 0.06251 -0.3143 0.09452 -0.4785 0.09419 0.3315 -0.00066 0.6497 0.1304 0.8846 0.36435 0.2349 0.23395 0.3672 0.55163 0.3679 0.88315 0.0007 0.33152 -0.1304 0.64973 -0.3643 0.88462 -0.234 0.23488 -0.5517 0.36722 -0.8832 0.36788H21c-0.2652 0 -0.5196 -0.10536 -0.7071 -0.29289C20.1054 8.14457 20 7.89022 20 7.625" stroke-width="1"></path><path stroke="#000000" stroke-linecap="round" stroke-linejoin="round" d="M3 8.625v-4.5c0 -0.09286 -0.02586 -0.18388 -0.07467 -0.26287 -0.04882 -0.07898 -0.11867 -0.14282 -0.20172 -0.18434 -0.08306 -0.04153 -0.17603 -0.05911 -0.26851 -0.05077 -0.09248 0.00834 -0.18082 0.04227 -0.2551 0.09798l-1.2 0.9" stroke-width="1"></path><path stroke="#000000" stroke-linecap="round" stroke-linejoin="round" d="M2 8.625h2" stroke-width="1"></path><path stroke="#000000" d="M17 6.5c-0.2071 0 -0.375 -0.16789 -0.375 -0.375s0.1679 -0.375 0.375 -0.375" stroke-width="1"></path><path stroke="#000000" d="M17 6.5c0.2071 0 0.375 -0.16789 0.375 -0.375S17.2071 5.75 17 5.75" stroke-width="1"></path><path stroke="#000000" d="M7 6.5c-0.20711 0 -0.375 -0.16789 -0.375 -0.375S6.79289 5.75 7 5.75" stroke-width="1"></path><path stroke="#000000" d="M7 6.5c0.20711 0 0.375 -0.16789 0.375 -0.375S7.20711 5.75 7 5.75" stroke-width="1"></path></svg>