<svg viewBox="0 0 24 24" xmlns="http://www.w3.org/2000/svg" id="Task-Checklist-Write--Streamline-Ultimate"><desc>Task Checklist Write Streamline Icon: https://streamlinehq.com</desc><path d="M20.25 6.749v-1.5a1.5 1.5 0 0 0 -1.5 -1.5h-4" fill="none" stroke="#000000" stroke-linecap="round" stroke-linejoin="round" stroke-width="1"></path><path d="M6.25 3.749h-4a1.5 1.5 0 0 0 -1.5 1.5v16.5a1.5 1.5 0 0 0 1.5 1.5H6" fill="none" stroke="#000000" stroke-linecap="round" stroke-linejoin="round" stroke-width="1"></path><path d="M14.421 4.736a0.751 0.751 0 0 1 -0.711 0.513H7.291a0.751 0.751 0 0 1 -0.712 -0.513l-1 -3a0.749 0.749 0 0 1 0.712 -0.987h8.418a0.749 0.749 0 0 1 0.712 0.987Z" fill="none" stroke="#000000" stroke-linecap="round" stroke-linejoin="round" stroke-width="1"></path><path d="M6.75 20.249H4.5a0.75 0.75 0 0 1 -0.75 -0.75V6.749" fill="none" stroke="#000000" stroke-linecap="round" stroke-linejoin="round" stroke-width="1"></path><path d="m15.752 7.499 0 2.25" fill="none" stroke="#000000" stroke-linecap="round" stroke-linejoin="round" stroke-width="1"></path><path d="m6.75 9.749 4.5 0" fill="none" stroke="#000000" stroke-linecap="round" stroke-linejoin="round" stroke-width="1"></path><path d="m6.75 14.249 1.5 0" fill="none" stroke="#000000" stroke-linecap="round" stroke-linejoin="round" stroke-width="1"></path><path d="m13.045 22.719 -3.712 0.53 0.53 -3.712 9.546 -9.546a2.25 2.25 0 0 1 3.182 3.182Z" fill="none" stroke="#000000" stroke-linecap="round" stroke-linejoin="round" stroke-width="1"></path></svg>