<svg viewBox="0 0 24 24" xmlns="http://www.w3.org/2000/svg" id="Concert-Sing--Streamline-Ultimate"><desc>Concert Sing Streamline Icon: https://streamlinehq.com</desc><path d="m15.25 2.25 3 0" fill="none" stroke="#000000" stroke-linecap="round" stroke-linejoin="round" stroke-width="1"></path><path d="m16.75 0.75 0 3" fill="none" stroke="#000000" stroke-linecap="round" stroke-linejoin="round" stroke-width="1"></path><path d="m18.25 7.5 3 0" fill="none" stroke="#000000" stroke-linecap="round" stroke-linejoin="round" stroke-width="1"></path><path d="m19.75 6 0 3" fill="none" stroke="#000000" stroke-linecap="round" stroke-linejoin="round" stroke-width="1"></path><path d="M3.023 6.001a4.5 4.5 0 1 0 9 0 4.5 4.5 0 1 0 -9 0Z" fill="none" stroke="#000000" stroke-linecap="round" stroke-linejoin="round" stroke-width="1"></path><path d="m2.011 4.242 11.024 3.519" fill="none" stroke="#000000" stroke-linecap="round" stroke-linejoin="round" stroke-width="1"></path><path d="m9.3 10.135 -4.354 9.41a1.5 1.5 0 0 1 -1.818 0.8l-0.335 -0.107a1.5 1.5 0 0 1 -1.018 -1.7l1.9 -10.192" fill="none" stroke="#000000" stroke-linecap="round" stroke-linejoin="round" stroke-width="1"></path><path d="m2.962 20.291 -0.913 2.858" fill="none" stroke="#000000" stroke-linecap="round" stroke-linejoin="round" stroke-width="1"></path><path d="M12.828 20.149a1.601 1.601 0 1 0 3.202 0 1.601 1.601 0 1 0 -3.202 0Z" fill="none" stroke="#000000" stroke-linecap="round" stroke-linejoin="round" stroke-width="1"></path><path d="M22 18.423a1.6 1.6 0 1 1 -1.6 -1.6 1.6 1.6 0 0 1 1.6 1.6Z" fill="none" stroke="#000000" stroke-linecap="round" stroke-linejoin="round" stroke-width="1"></path><path d="M16.03 20.149v-6a1.282 1.282 0 0 1 0.876 -1.216l3.408 -0.871A1.281 1.281 0 0 1 22 13.281v5.142" fill="none" stroke="#000000" stroke-linecap="round" stroke-linejoin="round" stroke-width="1"></path></svg>