<svg viewBox="0 0 24 24" xmlns="http://www.w3.org/2000/svg" id="Concert-Beach--Streamline-Ultimate"><desc>Concert Beach Streamline Icon: https://streamlinehq.com</desc><path d="m11.134 8.477 -0.767 14.761" fill="none" stroke="#000000" stroke-linecap="round" stroke-linejoin="round" stroke-width="1"></path><path d="M4.288 23.25 9.234 7.855" fill="none" stroke="#000000" stroke-linecap="round" stroke-linejoin="round" stroke-width="1"></path><path d="m9.234 7.855 8.276 2.709a0.751 0.751 0 0 0 0.975 -0.861 4.728 4.728 0 0 0 -3.6 -4.015c-3.75 -0.75 -5.25 1.5 -5.25 1.5l-0.4 0.667" fill="none" stroke="#000000" stroke-linecap="round" stroke-linejoin="round" stroke-width="1"></path><path d="M9.234 7.855 1.7 9.9a0.751 0.751 0 0 1 -0.934 -0.874 4.754 4.754 0 0 1 3.616 -4.088c2.182 -0.437 4.273 0 5.528 1.925" fill="none" stroke="#000000" stroke-linecap="round" stroke-linejoin="round" stroke-width="1"></path><path d="m14.078 5.568 3.1 -3.117a0.747 0.747 0 0 0 -0.208 -1.211 4.869 4.869 0 0 0 -5.088 0.51c-1.7 1.273 -1.5 3.938 -1.5 3.938v0.769" fill="none" stroke="#000000" stroke-linecap="round" stroke-linejoin="round" stroke-width="1"></path><path d="m5.679 4.785 -1.95 -2.117a0.748 0.748 0 0 1 0.393 -1.242 13.168 13.168 0 0 1 2.51 -0.238A5.079 5.079 0 0 1 10.6 3.76" fill="none" stroke="#000000" stroke-linecap="round" stroke-linejoin="round" stroke-width="1"></path><path d="m0.75 23.25 22.5 0" fill="none" stroke="#000000" stroke-linecap="round" stroke-linejoin="round" stroke-width="1"></path><path d="m19.5 4.5 3 0" fill="none" stroke="#000000" stroke-linecap="round" stroke-linejoin="round" stroke-width="1"></path><path d="m21 3 0 3" fill="none" stroke="#000000" stroke-linecap="round" stroke-linejoin="round" stroke-width="1"></path><path d="m14.25 18 3 0" fill="none" stroke="#000000" stroke-linecap="round" stroke-linejoin="round" stroke-width="1"></path><path d="m15.75 16.5 0 3" fill="none" stroke="#000000" stroke-linecap="round" stroke-linejoin="round" stroke-width="1"></path><path d="M19.5 15a1.5 1.5 0 1 0 3 0 1.5 1.5 0 1 0 -3 0Z" fill="none" stroke="#000000" stroke-linecap="round" stroke-linejoin="round" stroke-width="1"></path><path d="m22.5 15 0 -4.5" fill="none" stroke="#000000" stroke-linecap="round" stroke-linejoin="round" stroke-width="1"></path></svg>