<svg xmlns="http://www.w3.org/2000/svg" fill="none" viewBox="0 0 24 24" id="Concert-Speakers--Streamline-Ultimate"><desc>Concert Speakers Streamline Icon: https://streamlinehq.com</desc><path stroke="#000000" stroke-linecap="round" stroke-linejoin="round" d="M2.25 5.25v6" stroke-width="1"></path><path stroke="#000000" stroke-linecap="round" stroke-linejoin="round" d="M21.75 5.25v6" stroke-width="1"></path><path stroke="#000000" stroke-linecap="round" stroke-linejoin="round" d="M7 14.25H1.25c-0.276142 0 -0.5 0.2239 -0.5 0.5v8c0 0.2761 0.223858 0.5 0.5 0.5H7c0.27614 0 0.5 -0.2239 0.5 -0.5v-8c0 -0.2761 -0.22386 -0.5 -0.5 -0.5Z" stroke-width="1"></path><path stroke="#000000" stroke-linecap="round" stroke-linejoin="round" d="M22.75 14.25H17c-0.2761 0 -0.5 0.2239 -0.5 0.5v8c0 0.2761 0.2239 0.5 0.5 0.5h5.75c0.2761 0 0.5 -0.2239 0.5 -0.5v-8c0 -0.2761 -0.2239 -0.5 -0.5 -0.5Z" stroke-width="1"></path><path stroke="#000000" stroke-linecap="round" stroke-linejoin="round" d="M22.25 0.75H1.75c-0.55228 0 -1 0.44772 -1 1v2.5c0 0.55228 0.44772 1 1 1h20.5c0.5523 0 1 -0.44772 1 -1v-2.5c0 -0.55228 -0.4477 -1 -1 -1Z" stroke-width="1"></path><path stroke="#000000" stroke-linecap="round" stroke-linejoin="round" d="m2.25 0.75 4.5 4.5L12 0.75l5.25 4.5 4.5 -4.5" stroke-width="1"></path><path stroke="#000000" d="M4.125 19.5c-0.20711 0 -0.375 -0.1679 -0.375 -0.375s0.16789 -0.375 0.375 -0.375" stroke-width="1"></path><path stroke="#000000" d="M4.125 19.5c0.20711 0 0.375 -0.1679 0.375 -0.375s-0.16789 -0.375 -0.375 -0.375" stroke-width="1"></path><g><path stroke="#000000" d="M19.875 19.5c-0.2071 0 -0.375 -0.1679 -0.375 -0.375s0.1679 -0.375 0.375 -0.375" stroke-width="1"></path><path stroke="#000000" d="M19.875 19.5c0.2071 0 0.375 -0.1679 0.375 -0.375s-0.1679 -0.375 -0.375 -0.375" stroke-width="1"></path></g></svg>