<svg xmlns="http://www.w3.org/2000/svg" viewBox="0 0 24 24" id="Balloon-Party--Streamline-Ultimate"><desc>Balloon Party Streamline Icon: https://streamlinehq.com</desc><defs></defs><title>balloon-party</title><path d="M15.874 12.625a2.867 2.867 0 1 0 5.734 0 2.867 2.867 0 1 0 -5.734 0" fill="none" stroke="#000000" stroke-linecap="round" stroke-linejoin="round" stroke-width="1"></path><path d="M23.241 23.258v-2c0 -3.761 -4.639 -5.6 -8.073 -2.945a1.5 1.5 0 0 1 -1.715 0.084l-1.285 -0.807a1.754 1.754 0 0 0 -2.532 0.865 1.816 1.816 0 0 0 0.812 2.186l2.419 1.451a1.754 1.754 0 0 0 1.515 0.138l1.883 -1.011v2.039" fill="none" stroke="#000000" stroke-linecap="round" stroke-linejoin="round" stroke-width="1"></path><path d="M0.7619378414 5.264661439a3.735 4.414 -1.67 1 0 7.4668271646 -0.2176972517 3.735 4.414 -1.67 1 0 -7.4668271646 0.2176972517" fill="none" stroke="#000000" stroke-linecap="round" stroke-linejoin="round" stroke-width="1"></path><path d="M11.1 1.765a3.19 3.19 0 0 1 0.436 0.013c2.052 0.2 3.522 2.335 3.281 4.761s-2.1 4.228 -4.152 4.025a3.248 3.248 0 0 1 -1.538 -0.572" fill="none" stroke="#000000" stroke-linecap="round" stroke-linejoin="round" stroke-width="1"></path><path d="M4.624 9.568a8.243 8.243 0 0 0 2.733 7.066" fill="none" stroke="#000000" stroke-linecap="round" stroke-linejoin="round" stroke-width="1"></path><path d="M10.664 10.564a8.478 8.478 0 0 1 -0.176 4.1" fill="none" stroke="#000000" stroke-linecap="round" stroke-linejoin="round" stroke-width="1"></path></svg>