<svg xmlns="http://www.w3.org/2000/svg" viewBox="0 0 24 24" id="Birthday-Cake--Streamline-Ultimate"><desc>Birthday Cake Streamline Icon: https://streamlinehq.com</desc><defs></defs><title>birthday-cake</title><path d="M15.068 15.224a2.052 2.052 0 0 0 1.151 -0.542h0a2.05 2.05 0 0 1 2.812 0h0a2.054 2.054 0 0 0 2.813 0l1.406 -1.324" fill="none" stroke="#000000" stroke-linecap="round" stroke-linejoin="round" stroke-width="1"></path><path d="m0.75 13.358 1.406 1.324a2.054 2.054 0 0 0 2.813 0h0a2.05 2.05 0 0 1 2.812 0h0" fill="none" stroke="#000000" stroke-linecap="round" stroke-linejoin="round" stroke-width="1"></path><path d="M2.75 10.591h18.5s2 0 2 2v8.273s0 2 -2 2H2.75s-2 0 -2 -2v-8.273s0 -2 2 -2" fill="none" stroke="#000000" stroke-linecap="round" stroke-linejoin="round" stroke-width="1"></path><path d="M10.466 14.682 12 13.659l0 5.625" fill="none" stroke="#000000" stroke-linecap="round" stroke-linejoin="round" stroke-width="1"></path><path d="m10.466 19.284 3.068 0" fill="none" stroke="#000000" stroke-linecap="round" stroke-linejoin="round" stroke-width="1"></path><path d="M4.307 5.477h1.068a1 1 0 0 1 1 1v4.114l0 0H3.307l0 0V6.477a1 1 0 0 1 1 -1Z" fill="none" stroke="#000000" stroke-linecap="round" stroke-linejoin="round" stroke-width="1"></path><path d="M11.466 5.477h1.068a1 1 0 0 1 1 1v4.114l0 0h-3.068l0 0V6.477a1 1 0 0 1 1 -1Z" fill="none" stroke="#000000" stroke-linecap="round" stroke-linejoin="round" stroke-width="1"></path><path d="M18.625 5.477h1.068a1 1 0 0 1 1 1v4.114l0 0h-3.068l0 0V6.477a1 1 0 0 1 1 -1Z" fill="none" stroke="#000000" stroke-linecap="round" stroke-linejoin="round" stroke-width="1"></path><path d="m4.841 2.67 0 -1.534" fill="none" stroke="#000000" stroke-linecap="round" stroke-linejoin="round" stroke-width="1"></path><path d="m12 2.67 0 -1.534" fill="none" stroke="#000000" stroke-linecap="round" stroke-linejoin="round" stroke-width="1"></path><path d="m19.159 2.67 0 -1.534" fill="none" stroke="#000000" stroke-linecap="round" stroke-linejoin="round" stroke-width="1"></path></svg>