<svg xmlns="http://www.w3.org/2000/svg" viewBox="0 0 24 24" id="Funny-Face--Streamline-Ultimate"><desc>Funny Face Streamline Icon: https://streamlinehq.com</desc><defs></defs><title>funny-face</title><path d="M15.914 5.352a1.711 1.711 0 1 0 3.422 0 1.711 1.711 0 1 0 -3.422 0" fill="none" stroke="#000000" stroke-linecap="round" stroke-linejoin="round" stroke-width="1"></path><path d="M6.375 0.75C6 3.02 4.65 4.672 1.773 5.352c2.877 0.68 4.225 2.332 4.6 4.6 0.493 -2.121 1.5 -4.083 4.6 -4.6C8.1 4.672 6.751 3.02 6.375 0.75Z" fill="none" stroke="#000000" stroke-linecap="round" stroke-linejoin="round" stroke-width="1"></path><path d="M9.443 11.489a2.557 2.557 0 1 0 5.114 0 2.557 2.557 0 1 0 -5.114 0" fill="none" stroke="#000000" stroke-linecap="round" stroke-linejoin="round" stroke-width="1"></path><path d="M4.172 16.37A9.655 9.655 0 0 0 12 20.154" fill="none" stroke="#000000" stroke-linecap="round" stroke-linejoin="round" stroke-width="1"></path><path d="M19.828 16.37A9.655 9.655 0 0 1 12 20.154" fill="none" stroke="#000000" stroke-linecap="round" stroke-linejoin="round" stroke-width="1"></path><path d="M12 17.058a7.061 7.061 0 0 0 5.9 -2.958 2.719 2.719 0 0 1 2.933 -1.149 2.929 2.929 0 0 1 1.867 4.224A12.051 12.051 0 0 1 12 23.25a12.051 12.051 0 0 1 -10.7 -6.075 2.929 2.929 0 0 1 1.868 -4.229A2.719 2.719 0 0 1 6.1 14.1a7.061 7.061 0 0 0 5.9 2.958Z" fill="none" stroke="#000000" stroke-linecap="round" stroke-linejoin="round" stroke-width="1"></path></svg>