<svg xmlns="http://www.w3.org/2000/svg" viewBox="0 0 24 24" id="Karaoke-2--Streamline-Ultimate"><desc>Karaoke 2 Streamline Icon: https://streamlinehq.com</desc><defs></defs><title>karaoke-2</title><path d="M3.407 11.804a2.031 2.031 0 1 0 4.062 0 2.031 2.031 0 1 0 -4.062 0" fill="none" stroke="#000000" stroke-linecap="round" stroke-linejoin="round" stroke-width="1"></path><path d="M3.407 18.405a2.031 2.031 0 1 0 4.062 0 2.031 2.031 0 1 0 -4.062 0" fill="none" stroke="#000000" stroke-linecap="round" stroke-linejoin="round" stroke-width="1"></path><path d="M16.336 3.797a3.047 3.047 0 1 0 6.094 0 3.047 3.047 0 1 0 -6.094 0" fill="none" stroke="#000000" stroke-linecap="round" stroke-linejoin="round" stroke-width="1"></path><path d="m16.621 5.084 -2.162 6.563 2.812 1.173 3.141 -6.156" fill="none" stroke="#000000" stroke-linecap="round" stroke-linejoin="round" stroke-width="1"></path><path d="m15.633 2.234 7.499 3.127" fill="none" stroke="#000000" stroke-linecap="round" stroke-linejoin="round" stroke-width="1"></path><path d="M15.749 12.185c-1.523 3.047 -1.679 5.987 1.368 6.495a3.566 3.566 0 0 1 3.047 4.57" fill="none" stroke="#000000" stroke-linecap="round" stroke-linejoin="round" stroke-width="1"></path><path d="M0.868 7.234h9.14v15.741H0.868Z" fill="none" stroke="#000000" stroke-linecap="round" stroke-linejoin="round" stroke-width="1"></path></svg>