<svg viewBox="0 0 24 24" xmlns="http://www.w3.org/2000/svg" id="Party-Music--Streamline-Ultimate"><desc>Party Music Streamline Icon: https://streamlinehq.com</desc><path d="M12.686 17.839a1.5 1.5 0 0 1 1.24 -1.651 3.012 3.012 0 0 0 1.658 -0.83c1.465 -1.464 1.1 -4.206 -0.819 -6.123s-4.659 -2.284 -6.123 -0.819a3.012 3.012 0 0 0 -0.83 1.658 1.5 1.5 0 0 1 -1.651 1.24 4.738 4.738 0 0 0 -3.98 1.248c-2.05 2.05 -1.64 5.784 0.919 8.338s6.291 2.966 8.341 0.916a4.738 4.738 0 0 0 1.245 -3.977Z" fill="none" stroke="#000000" stroke-linecap="round" stroke-linejoin="round" stroke-width="1"></path><path d="M17.416747276 4.4628535136 21.1290578774 0.7505429124l2.1213203436 2.1213203435 -3.7123106013 3.7123106012Z" fill="none" stroke="#000000" stroke-linecap="round" stroke-linejoin="round" stroke-width="1"></path><path d="m18.477 5.523 -3.712 3.712" fill="none" stroke="#000000" stroke-linecap="round" stroke-linejoin="round" stroke-width="1"></path><path d="m19.007 0.75 1.061 1.061" fill="none" stroke="#000000" stroke-linecap="round" stroke-linejoin="round" stroke-width="1"></path><path d="m22.189 3.932 1.061 1.061" fill="none" stroke="#000000" stroke-linecap="round" stroke-linejoin="round" stroke-width="1"></path><path d="m20.598 5.523 1.061 1.061" fill="none" stroke="#000000" stroke-linecap="round" stroke-linejoin="round" stroke-width="1"></path><path d="m17.416 2.341 1.061 1.061" fill="none" stroke="#000000" stroke-linecap="round" stroke-linejoin="round" stroke-width="1"></path><path d="M9.552 12.948a1.5 1.5 0 1 0 3 0 1.5 1.5 0 1 0 -3 0Z" fill="none" stroke="#000000" stroke-linecap="round" stroke-linejoin="round" stroke-width="1"></path><path d="m5.219 16.66 2.121 2.121" fill="none" stroke="#000000" stroke-linecap="round" stroke-linejoin="round" stroke-width="1"></path><path d="M9.492 5.259 6.77 2A3.394 3.394 0 1 0 2 6.771L4.5 8.87" fill="none" stroke="#000000" stroke-linecap="round" stroke-linejoin="round" stroke-width="1"></path><path d="m16.288 18.745 1.722 1.442 -0.5 0.5a1.5 1.5 0 0 0 2.122 2.122l3.182 -3.182a1.5 1.5 0 0 0 -2.122 -2.122l-0.537 0.538 -1.292 -1.543" fill="none" stroke="#000000" stroke-linecap="round" stroke-linejoin="round" stroke-width="1"></path></svg>