<svg viewBox="0 0 24 24" xmlns="http://www.w3.org/2000/svg" id="Party-Decoration--Streamline-Ultimate"><desc>Party Decoration Streamline Icon: https://streamlinehq.com</desc><path d="m0.75 1.75 22.5 3.587" fill="none" stroke="#000000" stroke-linecap="round" stroke-linejoin="round" stroke-width="1"></path><path d="m2.293 2 1.014 4.153a1.066 1.066 0 0 0 1.873 0.3l2.256 -3.637" fill="none" stroke="#000000" stroke-linecap="round" stroke-linejoin="round" stroke-width="1"></path><path d="M9.494 3.144 10.508 7.3a1.066 1.066 0 0 0 1.872 0.3l2.257 -3.636" fill="none" stroke="#000000" stroke-linecap="round" stroke-linejoin="round" stroke-width="1"></path><path d="m16.694 4.292 1.014 4.157a1.066 1.066 0 0 0 1.873 0.3l2.256 -3.636" fill="none" stroke="#000000" stroke-linecap="round" stroke-linejoin="round" stroke-width="1"></path><path d="m0.759 19.793 22.491 -8.695" fill="none" stroke="#000000" stroke-linecap="round" stroke-linejoin="round" stroke-width="1"></path><path d="m2.3 19.2 3.143 3.266a1.13 1.13 0 0 0 1.874 -0.725l0.129 -4.531" fill="none" stroke="#000000" stroke-linecap="round" stroke-linejoin="round" stroke-width="1"></path><path d="m9.507 16.411 3.143 3.266a1.13 1.13 0 0 0 1.874 -0.724l0.129 -4.531" fill="none" stroke="#000000" stroke-linecap="round" stroke-linejoin="round" stroke-width="1"></path><path d="m16.711 13.626 3.144 3.266a1.129 1.129 0 0 0 1.873 -0.725l0.129 -4.531" fill="none" stroke="#000000" stroke-linecap="round" stroke-linejoin="round" stroke-width="1"></path></svg>