<svg viewBox="0 0 24 24" xmlns="http://www.w3.org/2000/svg" id="Party-Mask--Streamline-Ultimate"><desc>Party Mask Streamline Icon: https://streamlinehq.com</desc><path d="m23.25 0.75 0 22.5" fill="none" stroke="#000000" stroke-linecap="round" stroke-linejoin="round" stroke-width="1"></path><path d="M7.6330731397 7.4546537304a2.25 1.688 21.434 1 0 1.2336890458 -3.1425129019 2.25 1.688 21.434 1 0 -1.2336890458 3.142512902Z" fill="none" stroke="#000000" stroke-linecap="round" stroke-linejoin="round" stroke-width="1"></path><path d="M13.6542175114 6.7051975632a2.25 1.688 -21.434 1 0 4.1887760836 -1.6444314886 2.25 1.688 -21.434 1 0 -4.1887760836 1.6444314886Z" fill="none" stroke="#000000" stroke-linecap="round" stroke-linejoin="round" stroke-width="1"></path><path d="M19.717 1.945a2.615 2.615 0 0 1 -2.6 -0.312 3.783 3.783 0 0 0 -4.712 0.173L12 2.154l-0.407 -0.348a3.783 3.783 0 0 0 -4.712 -0.173 2.616 2.616 0 0 1 -2.6 0.312L0.75 0.75a29.68 29.68 0 0 0 0.182 3.835A7.355 7.355 0 0 0 12 9.892a7.354 7.354 0 0 0 11.067 -5.307A29.488 29.488 0 0 0 23.25 0.75Z" fill="none" stroke="#000000" stroke-linecap="round" stroke-linejoin="round" stroke-width="1"></path></svg>