<svg xmlns="http://www.w3.org/2000/svg" fill="none" viewBox="0 0 24 24" id="Party-Beer-Cheers--Streamline-Ultimate"><desc>Party Beer Cheers Streamline Icon: https://streamlinehq.com</desc><path stroke="#000000" stroke-linecap="round" stroke-linejoin="round" d="M23.25 12.75H21c-0.3978 0 -0.7794 0.158 -1.0607 0.4393S19.5 13.8522 19.5 14.25v7.5c0 0.3978 0.158 0.7794 0.4393 1.0607s0.6629 0.4393 1.0607 0.4393h2.25" stroke-width="1"></path><path stroke="#000000" stroke-linecap="round" stroke-linejoin="round" d="M19.5 15h-1.323c-0.5039 -0.0001 -0.9979 -0.1404 -1.4265 -0.4053 -0.4287 -0.265 -0.7751 -0.644 -1.0005 -1.0947 -0.2254 -0.4507 -0.5718 -0.8297 -1.0005 -1.0947 -0.4287 -0.2649 -0.9226 -0.4052 -1.4265 -0.4053h-0.573v1.5c0 0.3978 -0.158 0.7794 -0.4393 1.0607 -0.2814 0.2813 -0.6629 0.4393 -1.0607 0.4393H6.74999c-0.21961 0.0001 -0.43651 0.0485 -0.63538 0.1416 -0.19888 0.0932 -0.37487 0.2289 -0.51555 0.3975 -0.14069 0.1686 -0.24263 0.3661 -0.29862 0.5784 -0.056 0.2124 -0.06469 0.4344 -0.02545 0.6505l0.954 5.25c0.06278 0.3457 0.24492 0.6584 0.51467 0.8836 0.26974 0.2251 0.60997 0.3484 0.96133 0.3484H13.9c0.2329 0.0001 0.4626 -0.054 0.671 -0.158L19.5 21" stroke-width="1"></path><path stroke="#000000" stroke-linecap="round" stroke-linejoin="round" d="M6.75 15V8.85202c0.00004 -0.88159 0.261 -1.74345 0.75 -2.477 0.48862 -0.73297 0.74957 -1.59408 0.75 -2.475v-2.4c-0.00013 -0.09857 0.01917 -0.19621 0.0568 -0.28732 0.03763 -0.09111 0.09286 -0.1739 0.16252 -0.243653 0.06965 -0.06975 0.15238 -0.125084 0.24344 -0.162838C8.80382 0.768456 8.90142 0.749023 9 0.749023h1.5c0.1989 0 0.3897 0.079018 0.5303 0.21967 0.1407 0.140657 0.2197 0.331417 0.2197 0.530327v2.401c0.0004 0.88092 0.2614 1.74203 0.75 2.475v0c0.489 0.73355 0.75 1.59541 0.75 2.477V12" stroke-width="1"></path><path stroke="#000000" stroke-linecap="round" stroke-linejoin="round" d="M6.75 9h6" stroke-width="1"></path><path stroke="#000000" stroke-linecap="round" stroke-linejoin="round" d="M18.75 2.25v3" stroke-width="1"></path><path stroke="#000000" stroke-linecap="round" stroke-linejoin="round" d="M17.25 3.75h3" stroke-width="1"></path><path stroke="#000000" stroke-linecap="round" stroke-linejoin="round" d="M2.25 10.5v3" stroke-width="1"></path><path stroke="#000000" stroke-linecap="round" stroke-linejoin="round" d="M0.75 12h3" stroke-width="1"></path><path stroke="#000000" d="M2.625 1.5c-0.20711 0 -0.375 -0.16789 -0.375 -0.375 0 -0.207107 0.16789 -0.375 0.375 -0.375" stroke-width="1"></path><path stroke="#000000" d="M2.625 1.5c0.20711 0 0.375 -0.16789 0.375 -0.375C3 0.917893 2.83211 0.75 2.625 0.75" stroke-width="1"></path><g><path stroke="#000000" d="M18.038 8.62451c-0.2071 0 -0.375 -0.16789 -0.375 -0.375s0.1679 -0.375 0.375 -0.375" stroke-width="1"></path><path stroke="#000000" d="M18.038 8.62451c0.2071 0 0.375 -0.16789 0.375 -0.375s-0.1679 -0.375 -0.375 -0.375" stroke-width="1"></path></g></svg>