<svg xmlns="http://www.w3.org/2000/svg" fill="none" viewBox="0 0 24 24" id="Party-Confetti-Whistle--Streamline-Ultimate"><desc>Party Confetti Whistle Streamline Icon: https://streamlinehq.com</desc><path stroke="#000000" stroke-linecap="round" stroke-linejoin="round" d="m3.58398 23.25 9.42302 -9.424c0.2814 -0.2814 0.663 -0.4395 1.061 -0.4395 0.3979 0 0.7796 0.1581 1.061 0.4395s0.4395 0.6631 0.4395 1.061c0 0.398 -0.1581 0.7796 -0.4395 1.061l-7.30002 7.3" stroke-width="1"></path><path stroke="#000000" stroke-linecap="round" stroke-linejoin="round" d="m15.129 13.826 5.3 -5.29997c0.4179 -0.41787 0.7494 -0.91394 0.9755 -1.45991 0.2262 -0.54597 0.3426 -1.13114 0.3426 -1.72209 0 -0.59095 -0.1164 -1.17612 -0.3426 -1.72209 -0.2261 -0.54597 -0.5576 -1.04205 -0.9755 -1.45991 -0.4274 -0.39191 -0.9896 -0.60368 -1.5693 -0.59113 -0.5798 0.01255 -1.1323 0.24845 -1.5423 0.65848 -0.4101 0.41004 -0.6459 0.96256 -0.6585 1.5423 -0.0125 0.57975 0.1992 1.14195 0.5911 1.56935 0.2813 0.28121 0.6628 0.43918 1.0605 0.43918 0.3978 0 0.7792 -0.15797 1.0605 -0.43918" stroke-width="1"></path><path stroke="#000000" stroke-linecap="round" stroke-linejoin="round" d="M4.5 4.5h3" stroke-width="1"></path><path stroke="#000000" stroke-linecap="round" stroke-linejoin="round" d="M6 3v3" stroke-width="1"></path><path stroke="#000000" stroke-linecap="round" stroke-linejoin="round" d="M18.75 16.5h3" stroke-width="1"></path><path stroke="#000000" stroke-linecap="round" stroke-linejoin="round" d="M20.25 15v3" stroke-width="1"></path><path stroke="#000000" d="M1.125 9C0.917893 9 0.75 8.83211 0.75 8.625s0.167893 -0.375 0.375 -0.375" stroke-width="1"></path><path stroke="#000000" d="M1.125 9c0.20711 0 0.375 -0.16789 0.375 -0.375s-0.16789 -0.375 -0.375 -0.375" stroke-width="1"></path><path stroke="#000000" d="M10.125 9.75c-0.20711 0 -0.375 -0.16789 -0.375 -0.375S9.91789 9 10.125 9" stroke-width="1"></path><path stroke="#000000" d="M10.125 9.75c0.2071 0 0.375 -0.16789 0.375 -0.375S10.3321 9 10.125 9" stroke-width="1"></path><g><path stroke="#000000" d="M12.375 1.5c-0.2071 0 -0.375 -0.16789 -0.375 -0.375 0 -0.207107 0.1679 -0.375 0.375 -0.375" stroke-width="1"></path><path stroke="#000000" d="M12.375 1.5c0.2071 0 0.375 -0.16789 0.375 -0.375 0 -0.207107 -0.1679 -0.375 -0.375 -0.375" stroke-width="1"></path></g><g><path stroke="#000000" d="M22.875 11.25c-0.2071 0 -0.375 -0.1679 -0.375 -0.375s0.1679 -0.375 0.375 -0.375" stroke-width="1"></path><path stroke="#000000" d="M22.875 11.25c0.2071 0 0.375 -0.1679 0.375 -0.375s-0.1679 -0.375 -0.375 -0.375" stroke-width="1"></path></g></svg>