<svg xmlns="http://www.w3.org/2000/svg" viewBox="0 0 24 24" id="Party-Music-Dance-Woman--Streamline-Ultimate"><desc>Party Music Dance Woman Streamline Icon: https://streamlinehq.com</desc><g><g><path d="M18 6.74a1.5 1.5 0 1 0 3 0 1.5 1.5 0 1 0 -3 0" fill="none" stroke="#000000" stroke-linecap="round" stroke-linejoin="round" stroke-width="1"></path><path d="M22.14 0.74A1.5 1.5 0 0 0 21 2.19v4.55" fill="none" stroke="#000000" stroke-linecap="round" stroke-linejoin="round" stroke-width="1"></path></g><g><path d="M20.25 15.74a1.5 1.5 0 1 0 3 0 1.5 1.5 0 1 0 -3 0" fill="none" stroke="#000000" stroke-linecap="round" stroke-linejoin="round" stroke-width="1"></path><path d="m23.25 11.99 0 3.75" fill="none" stroke="#000000" stroke-linecap="round" stroke-linejoin="round" stroke-width="1"></path></g><g><path d="M4.87 3.74a2.63 2.63 0 1 0 5.26 0 2.63 2.63 0 1 0 -5.26 0" fill="none" stroke="#000000" stroke-linecap="round" stroke-linejoin="round" stroke-width="1"></path><path d="M11.71 10.48c0.91 -0.26 1.81 -0.51 2.74 -0.82a1.5 1.5 0 1 0 -0.95 -2.84C9.13 8.27 5.75 8.61 1.19 13.18a1.49 1.49 0 0 0 0 2.12 1.5 1.5 0 0 0 2.12 0 18.72 18.72 0 0 1 3.24 -2.63l-2 6.22a0.37 0.37 0 0 0 0.07 0.36 0.36 0.36 0 0 0 0.35 0.12l1.3 -0.24 -0.4 2.36a1.5 1.5 0 0 0 3 0.5l0.64 -3.85 1.42 -0.43 0.81 1.07a0.75 0.75 0 0 1 0.13 0.63l-0.49 2a1.5 1.5 0 1 0 2.91 0.73l0.49 -2a3.76 3.76 0 0 0 -0.71 -3.14l-0.16 -0.21 1 -0.17a0.35 0.35 0 0 0 0.29 -0.24 0.36 0.36 0 0 0 -0.1 -0.38Z" fill="none" stroke="#000000" stroke-linecap="round" stroke-linejoin="round" stroke-width="1"></path></g></g></svg>