<svg xmlns="http://www.w3.org/2000/svg" viewBox="0 0 24 24" id="Cd-Album-Note--Streamline-Ultimate"><desc>Cd Album Note Streamline Icon: https://streamlinehq.com</desc><g><path d="M2.25 1.5h19.5s1.5 0 1.5 1.5v18s0 1.5 -1.5 1.5H2.25s-1.5 0 -1.5 -1.5V3s0 -1.5 1.5 -1.5" fill="none" stroke="#000000" stroke-linecap="round" stroke-linejoin="round" stroke-width="1"></path><path d="m4.75 1.5 0 21" fill="none" stroke="#000000" stroke-linecap="round" stroke-linejoin="round" stroke-width="1"></path><g><path d="M7.99 15.38a1.88 1.88 0 1 0 3.76 0 1.88 1.88 0 1 0 -3.76 0" fill="none" stroke="#000000" stroke-linecap="round" stroke-linejoin="round" stroke-width="1"></path><path d="M15.5 13.13a1.88 1.88 0 1 0 3.76 0 1.88 1.88 0 1 0 -3.76 0" fill="none" stroke="#000000" stroke-linecap="round" stroke-linejoin="round" stroke-width="1"></path><path d="M11.75 15.38V8.75a1.48 1.48 0 0 1 1 -1.42l4.5 -1.25a1.48 1.48 0 0 1 1.35 0.2 1.52 1.52 0 0 1 0.62 1.22v5.63" fill="none" stroke="#000000" stroke-linecap="round" stroke-linejoin="round" stroke-width="1"></path></g></g></svg>