<svg xmlns="http://www.w3.org/2000/svg" fill="none" viewBox="0 0 24 24" id="Blood-Stain--Streamline-Ultimate"><desc>Blood Stain Streamline Icon: https://streamlinehq.com</desc><path stroke="#000000" stroke-linecap="round" stroke-linejoin="round" d="M14.8598 5.15075c-0.6798 1.01735 -1.5611 1.56484 -2.4059 1.4255 -0.9568 -0.15783 -1.0263 -0.71202 -1.6149 -1.12047 -0.769 -0.5336 -1.38149 0.02403 -1.68376 0.55629 -0.38272 0.67392 -0.95456 1.28985 -1.77337 0.60797 -0.6634 -0.55247 -1.77192 -1.13208 -2.53518 -0.22278 -0.7411 0.88291 -0.16384 2.01478 0.88278 2.21211 1.04664 0.19733 2.18997 0.84185 2.37595 1.89853 0.25663 1.458 -0.0013 2.0185 -1.63453 2.6989 -0.60806 0.2533 -2.50873 0.8314 -2.25541 2.3767 0.20001 1.22 1.89211 1.3514 2.60045 0.8388 0.59514 -0.4307 0.93543 -1.0669 2.12604 -1.3709 1.19063 -0.304 2.31903 0.1836 2.65753 1.7785 0.2381 1.122 0.4182 2.4562 1.1782 2.8868 0.76 0.4307 1.9759 0.38 2.5585 -0.76 0.5827 -1.1399 -0.0506 -2.2545 -0.7346 -3.2931 -0.6839 -1.0386 0 -2.5586 1.4186 -2.2546 1.4186 0.304 2.9108 0.6002 3.6201 -0.6918 0.6385 -1.1629 -0.6823 -2.2093 -1.7112 -2.2093 -1.0289 0 -1.5518 0.2123 -2.2325 -0.2019 -0.708 -0.43064 -0.7303 -1.56851 0.1821 -2.00785 1.4079 -0.67793 3.2613 -1.82492 2.4 -3.39552 -0.7147 -1.30326 -2.5343 -1.07586 -3.4189 0.24812Z" stroke-width="1"></path><path stroke="#000000" stroke-linecap="round" stroke-linejoin="round" d="M7.02381 22.8997c0.72992 0.305 1.62046 -0.1629 1.98908 -1.045 0.36863 -0.8822 0.07575 -1.8446 -0.65416 -2.1496 -0.72991 -0.305 -1.62045 0.1629 -1.98908 1.045 -0.36863 0.8822 -0.07575 1.8446 0.65416 2.1496Z" stroke-width="1"></path><path stroke="#000000" stroke-linecap="round" stroke-linejoin="round" d="M20.0197 19.2058c0.8798 0.6818 2.0638 0.6271 2.6445 -0.1222 0.5808 -0.7493 0.3384 -1.9095 -0.5414 -2.5914 -0.8798 -0.6819 -2.0638 -0.6272 -2.6446 0.1221 -0.5807 0.7494 -0.3383 1.9096 0.5415 2.5915Z" stroke-width="1"></path><path stroke="#000000" stroke-linecap="round" stroke-linejoin="round" d="M21.5211 3.94682c0.8093 0 1.4653 -0.65185 1.4653 -1.45595s-0.656 -1.45596 -1.4653 -1.45596c-0.8094 0 -1.4654 0.65186 -1.4654 1.45596 0 0.8041 0.656 1.45595 1.4654 1.45595Z" stroke-width="1"></path><path stroke="#000000" stroke-linecap="round" stroke-linejoin="round" d="M2.40851 3.94682c0.80931 0 1.46539 -0.65185 1.46539 -1.45595s-0.65608 -1.45596 -1.46539 -1.45596c-0.80932 0 -1.465395 0.65186 -1.465395 1.45596 0 0.8041 0.656075 1.45595 1.465395 1.45595Z" stroke-width="1"></path><path stroke="#000000" stroke-linecap="round" stroke-linejoin="round" d="M3.07992 19.6869c-0.29493 0 -0.53402 -0.239 -0.53402 -0.534 0 -0.2949 0.23909 -0.534 0.53402 -0.534" stroke-width="1"></path><path stroke="#000000" stroke-linecap="round" stroke-linejoin="round" d="M3.08048 19.6869c0.29493 0 0.53402 -0.239 0.53402 -0.534 0 -0.2949 -0.23909 -0.534 -0.53402 -0.534" stroke-width="1"></path><path stroke="#000000" stroke-linecap="round" stroke-linejoin="round" d="M12.3526 2.49087c-0.1947 0 -0.3526 -0.15787 -0.3526 -0.35261 0 -0.19474 0.1579 -0.35262 0.3526 -0.35262" stroke-width="1"></path><path stroke="#000000" stroke-linecap="round" stroke-linejoin="round" d="M12.3527 2.49087c0.1948 0 0.3526 -0.15787 0.3526 -0.35261 0 -0.19474 -0.1578 -0.35262 -0.3526 -0.35262" stroke-width="1"></path><path stroke="#000000" stroke-linecap="round" stroke-linejoin="round" d="M22.6334 14.0377c-0.1948 0 -0.3526 -0.1578 -0.3526 -0.3526 0 -0.1947 0.1578 -0.3526 0.3526 -0.3526" stroke-width="1"></path><path stroke="#000000" stroke-linecap="round" stroke-linejoin="round" d="M22.6335 14.0377c0.1947 0 0.3526 -0.1578 0.3526 -0.3526 0 -0.1947 -0.1579 -0.3526 -0.3526 -0.3526" stroke-width="1"></path></svg>