<svg xmlns="http://www.w3.org/2000/svg" fill="none" viewBox="0 0 24 24" id="Condom-Favorite-2--Streamline-Ultimate"><desc>Condom Favorite 2 Streamline Icon: https://streamlinehq.com</desc><path stroke="#000000" stroke-linejoin="round" d="M2.92286 1.3593c-0.32584 -0.27047 -0.81934 -0.03873 -0.81934 0.38473l0.00004 20.51207c0 0.4235 0.49351 0.6552 0.81935 0.3847l1.33539 -1.1084c0.18516 -0.1537 0.45353 -0.1537 0.63869 0l1.83539 1.5235c0.18516 0.1536 0.45353 0.1536 0.63869 0l1.83538 -1.5235c0.18516 -0.1537 0.45354 -0.1537 0.6387 0l1.83535 1.5235c0.1852 0.1536 0.4536 0.1536 0.6387 0l1.8354 -1.5235c0.1852 -0.1537 0.4535 -0.1537 0.6387 0l1.8354 1.5235c0.1852 0.1536 0.4535 0.1536 0.6387 0l1.8354 -1.5235c0.1851 -0.1537 0.4535 -0.1537 0.6387 0l1.3353 1.1084c0.3259 0.2705 0.8194 0.0388 0.8194 -0.3847l0 -20.51207c0 -0.42347 -0.4936 -0.6552 -0.8194 -0.38473l-1.3354 1.10843c-0.1851 0.1537 -0.4535 0.1537 -0.6387 0L17.2673 0.944273c-0.1851 -0.153691 -0.4535 -0.153691 -0.6387 0L14.7933 2.46773c-0.1852 0.1537 -0.4536 0.1537 -0.6387 0L12.3192 0.944273c-0.1852 -0.153692 -0.4536 -0.153692 -0.6387 0L9.8451 2.46773c-0.18516 0.1537 -0.45353 0.1537 -0.63869 0L7.37102 0.944272c-0.18516 -0.153691 -0.45353 -0.153691 -0.63869 0L4.89694 2.46773c-0.18516 0.15369 -0.45353 0.15369 -0.63869 0L2.92286 1.3593Z" stroke-width="1"></path><path stroke="#000000" stroke-linecap="round" stroke-linejoin="round" d="M5.81567 8.42969c-1.97188 3.41541 -0.80168 7.78261 2.61372 9.75451 2.16681 1.251 4.71661 1.2374 6.79491 0.1881" stroke-width="1"></path><path stroke="#000000" stroke-linecap="round" stroke-linejoin="round" d="M12.0025 16.1179 8.37045 12.828c-1.97397 -1.974 0.92776 -5.764 3.63205 -2.6978 2.7044 -3.0662 5.5929 0.737 3.6321 2.6978l-3.6321 3.2899Z" stroke-width="1"></path><path stroke="#000000" stroke-linecap="round" stroke-linejoin="round" d="M18.1839 15.5706c1.9718 -3.4154 0.8016 -7.78263 -2.6138 -9.75451 -2.24 -1.2933 -4.8895 -1.23498 -7.00413 -0.07808" stroke-width="1"></path></svg>