<svg xmlns="http://www.w3.org/2000/svg" fill="none" viewBox="0 0 24 24" id="Contraceptive-Pills-Panel-Sperm--Streamline-Ultimate"><desc>Contraceptive Pills Panel Sperm Streamline Icon: https://streamlinehq.com</desc><path stroke="#000000" stroke-linecap="round" stroke-linejoin="round" d="m10.5405 23.0374 -7.60492 0c-1.10457 0 -2.000001 -0.8955 -2.000003 -2L0.935547 2.96289C0.935543 1.85832 1.83098 0.962891 2.93555 0.962891L14.19 0.962892c1.1045 0 2 0.895428 2 1.999998l0 5.5519" stroke-width="1"></path><path stroke="#000000" stroke-linecap="round" stroke-linejoin="round" d="M4.75976 7.18994c0.90879 0 1.64551 -0.73672 1.64551 -1.64551s-0.73672 -1.6455 -1.64551 -1.6455c-0.90878 0 -1.6455 0.73671 -1.6455 1.6455s0.73672 1.64551 1.6455 1.64551Z" stroke-width="1"></path><path stroke="#000000" stroke-linecap="round" stroke-linejoin="round" d="M12.3657 7.18994c0.9088 0 1.6455 -0.73672 1.6455 -1.64551s-0.7367 -1.6455 -1.6455 -1.6455c-0.9088 0 -1.6455 0.73671 -1.6455 1.6455s0.7367 1.64551 1.6455 1.64551Z" stroke-width="1"></path><path stroke="#000000" stroke-linecap="round" stroke-linejoin="round" d="M4.75976 13.6455c0.90879 0 1.64551 -0.7367 1.64551 -1.6455 0 -0.9088 -0.73672 -1.6455 -1.64551 -1.6455 -0.90878 0 -1.6455 0.7367 -1.6455 1.6455 0 0.9088 0.73672 1.6455 1.6455 1.6455Z" stroke-width="1"></path><path stroke="#000000" stroke-linecap="round" stroke-linejoin="round" d="M10.7207 12c0 -0.9088 0.7367 -1.6455 1.6455 -1.6455" stroke-width="1"></path><path stroke="#000000" stroke-linecap="round" stroke-linejoin="round" d="M4.75976 20.1011c0.90879 0 1.64551 -0.7367 1.64551 -1.6455 0 -0.9088 -0.73672 -1.6455 -1.64551 -1.6455 -0.90878 0 -1.6455 0.7367 -1.6455 1.6455 0 0.9088 0.73672 1.6455 1.6455 1.6455Z" stroke-width="1"></path><path stroke="#000000" stroke-linecap="round" stroke-linejoin="round" d="M17.1717 23.0373c3.2546 0 5.893 -2.6383 5.893 -5.8929s-2.6384 -5.8929 -5.893 -5.8929c-3.2545 0 -5.8929 2.6383 -5.8929 5.8929s2.6384 5.8929 5.8929 5.8929Z" stroke-width="1"></path><path stroke="#000000" stroke-linecap="round" d="m8.5625 3.89893 0 16.20217" stroke-width="1"></path><path stroke="#000000" stroke-linecap="round" d="m21.374 13.0493 -8.3166 8.3167" stroke-width="1"></path><path stroke="#000000" stroke-linecap="round" stroke-linejoin="round" d="M17.0026 17.0778c0.7096 -0.4097 0.8728 -1.4556 0.3645 -2.336 -0.5083 -0.8804 -1.4957 -1.262 -2.2053 -0.8523 -0.7096 0.4097 -0.8728 1.4556 -0.3645 2.336 0.5083 0.8804 1.4956 1.262 2.2053 0.8523Z" stroke-width="1"></path><path stroke="#000000" stroke-linecap="round" stroke-linejoin="round" d="M17.0606 17.0126c0.659 1.1414 1.04 0.6854 1.4338 1.3674 0.3937 0.6819 -0.3046 1.2743 0.6044 2.1611" stroke-width="1"></path></svg>