<svg xmlns="http://www.w3.org/2000/svg" fill="none" viewBox="0 0 24 24" id="Contraceptive-Pills-Sperm-2--Streamline-Ultimate"><desc>Contraceptive Pills Sperm 2 Streamline Icon: https://streamlinehq.com</desc><path stroke="#000000" stroke-linecap="round" stroke-linejoin="round" d="M20.2648 10.6868c0 -5.25884 -4.2632 -9.52201 -9.522 -9.52201 -5.25893 0 -9.5221 4.26317 -9.5221 9.52201 0 5.2589 4.26317 9.5221 9.5221 9.5221" stroke-width="1"></path><path stroke="#000000" stroke-linecap="round" d="M17.5515 4.05151 4.08276 17.5203" stroke-width="1"></path><path stroke="#000000" stroke-linecap="round" stroke-linejoin="round" d="M10.8546 7.68167c-0.0283 -0.51221 -0.183 -1.04817 -0.4732 -1.55076 -0.82132 -1.4226 -2.41668 -2.03919 -3.5633 -1.37718 -1.14663 0.662 -1.41033 2.35191 -0.58899 3.77451 0.49501 0.85738 1.27116 1.422 2.06079 1.59036" stroke-width="1"></path><path stroke="#000000" stroke-linecap="round" stroke-linejoin="round" d="M13.513 15.54c-1.261 -1.073 -0.1049 -1.9819 -0.6072 -2.852 -0.1241 -0.215 -0.2573 -0.3356 -0.4001 -0.4172" stroke-width="1"></path><path stroke="#000000" stroke-linecap="round" stroke-linejoin="round" d="M17.896 14.2659c0.5778 -0.5461 1.3457 -0.8454 2.1406 -0.8342 0.7949 0.0112 1.5541 0.3319 2.1163 0.8941 0.5621 0.5621 0.8829 1.3213 0.8941 2.1162 0.0111 0.795 -0.2881 1.5629 -0.8343 2.1406l-3.679 3.679c-0.5745 0.55 -1.3409 0.8541 -2.1362 0.8476 -0.7952 -0.0064 -1.5566 -0.3229 -2.1222 -0.882 -0.5655 -0.5592 -0.8906 -1.3169 -0.9061 -2.1121 -0.0154 -0.7951 0.2799 -1.5649 0.8233 -2.1456l3.7035 -3.7036Z" stroke-width="1"></path><path stroke="#000000" stroke-linecap="round" stroke-linejoin="round" d="m16.2283 15.9338 4.3167 4.3167" stroke-width="1"></path></svg>