<svg xmlns="http://www.w3.org/2000/svg" fill="none" viewBox="0 0 24 24" id="Copper-Iud-1--Streamline-Ultimate"><desc>Copper Iud 1 Streamline Icon: https://streamlinehq.com</desc><path stroke="#000000" stroke-linejoin="round" d="M18.9487 0.964111c0.9674 0 1.7516 0.784199 1.7516 1.751559 0 0.96736 -0.7842 1.75156 -1.7516 1.75156l-4.1972 0c-0.5523 0 -1 0.44772 -1 1l0 10.19447c0 0.9674 -0.7842 1.7516 -1.7516 1.7516s-1.7516 -0.7842 -1.7516 -1.7516l0 -10.19446c0 -0.55229 -0.44768 -1 -0.99996 -1l-4.19698 0c-0.96736 0 -1.75156 -0.7842 -1.75156 -1.75156S4.084 0.964118 5.05136 0.964117L9.7792 0.964113c0.7718 -0.000001 1.5002 0.356427 1.9739 0.965757l0.247 0.31777 0.2716 -0.34108c0.4744 -0.59552 1.1942 -0.942443 1.9555 -0.942444l4.7215 -0.000005Z" stroke-width="1"></path><path stroke="#000000" stroke-linecap="round" stroke-linejoin="round" d="M12.0459 17.4133c0 2.5796 0.6784 4.3723 1.7388 5.5528" stroke-width="1"></path><path stroke="#000000" stroke-linecap="round" stroke-linejoin="round" d="M12.2812 19.6782c1.2413 0 2.3899 0.2855 3.2437 0.7799" stroke-width="1"></path><path stroke="#000000" stroke-linecap="round" stroke-linejoin="round" d="M7.22949 0.964111 6.31876 4.4531" stroke-width="1"></path><path stroke="#000000" stroke-linecap="round" stroke-linejoin="round" d="M15.207 0.964111 14.2963 4.4531" stroke-width="1"></path><path stroke="#000000" stroke-linecap="round" stroke-linejoin="round" d="M10.0562 0.964111 9.14542 4.4531" stroke-width="1"></path><path stroke="#000000" stroke-linecap="round" stroke-linejoin="round" d="M18.0337 0.964111 17.123 4.4531" stroke-width="1"></path><path stroke="#000000" stroke-linecap="round" stroke-linejoin="round" d="m10.2578 7.04565 3.4922 0.74036" stroke-width="1"></path><path stroke="#000000" stroke-linecap="round" stroke-linejoin="round" d="m10.2578 9.97852 3.4922 0.74038" stroke-width="1"></path><path stroke="#000000" stroke-linecap="round" stroke-linejoin="round" d="m10.2578 12.9121 3.4922 0.7404" stroke-width="1"></path></svg>