<svg xmlns="http://www.w3.org/2000/svg" fill="none" viewBox="0 0 24 24" id="Menstrual-Cup-Wave--Streamline-Ultimate"><desc>Menstrual Cup Wave Streamline Icon: https://streamlinehq.com</desc><path stroke="#000000" stroke-linecap="round" stroke-linejoin="round" d="M19.34 9.12062c-0.9566 0.05023 -1.8175 1.46168 -3.2276 1.46168 -2.3364 0 -2.2036 -1.46305 -4.1068 -1.46305 -1.8784 0 -1.844 1.46305 -4.18042 1.46305 -2.29481 0 -2.21891 -1.41146 -3.16541 -1.46168" stroke-width="1"></path><path stroke="#000000" stroke-linecap="round" stroke-linejoin="round" d="M2.82615 2.94527c0 -1.08277 0.87776 -1.960536 1.96053 -1.960536H19.2133c1.0828 0 1.9605 0.877766 1.9605 1.960536s-0.8777 1.96053 -1.9605 1.96053H4.78668c-1.08277 0 -1.96053 -0.87776 -1.96053 -1.96053Z" stroke-width="1"></path><path stroke="#000000" stroke-linecap="round" stroke-linejoin="round" d="M4.65282 4.90581V8.7311c0 5.0338 3.23758 7.4756 5.41118 8.5478v3.8007c0 1.069 0.8667 1.9357 1.9357 1.9357 1.0691 0 1.9357 -0.8667 1.9357 -1.9357v-3.8007c2.1736 -1.0722 5.4112 -3.514 5.4112 -8.5478V4.90581" stroke-width="1"></path></svg>