<svg xmlns="http://www.w3.org/2000/svg" fill="none" viewBox="0 0 24 24" id="Menstrual-Cup-1--Streamline-Ultimate"><desc>Menstrual Cup 1 Streamline Icon: https://streamlinehq.com</desc><path stroke="#000000" stroke-linejoin="round" d="M13.949 17.2896c2.1952 -1.0836 5.4498 -3.5429 5.4498 -8.5998V4.15625H4.60156V8.6898c0 5.0689 3.26019 7.5278 5.44904 8.6075v3.8272c0 1.0765 0.8726 1.9492 1.9492 1.9492 1.0765 0 1.9492 -0.8727 1.9492 -1.9492v-3.8349Z" stroke-width="1"></path><path stroke="#000000" stroke-linejoin="round" d="M21.4822 2.54372c0 -0.88628 -0.7185 -1.604755 -1.6048 -1.604755L4.12322 0.938966c-0.88628 0 -1.60476 0.718474 -1.60476 1.604764 0 0.88628 0.71848 1.60475 1.60476 1.60475l15.75418 0c0.8863 0 1.6048 -0.71847 1.6048 -1.60476Z" stroke-width="1"></path><path stroke="#000000" stroke-linecap="round" d="M4.60156 7.51123H19.3989" stroke-width="1"></path><path stroke="#000000" stroke-linecap="round" d="m5.8125 13.4309 12.375 0" stroke-width="1"></path><path stroke="#000000" stroke-linecap="round" d="m10.0469 19.5662 3.9062 0" stroke-width="1"></path></svg>