<svg xmlns="http://www.w3.org/2000/svg" fill="none" viewBox="0 0 24 24" id="Period-Calendar-Sanitary-Pad--Streamline-Ultimate"><desc>Period Calendar Sanitary Pad Streamline Icon: https://streamlinehq.com</desc><path stroke="#000000" stroke-linecap="round" stroke-linejoin="round" d="M2.44589 2.97095c-0.34864 0 -0.683 0.13849 -0.92952 0.38502 -0.24653 0.24652 -0.38502 0.58088 -0.38502 0.92952V16.7737c0 0.3486 0.13849 0.6829 0.38502 0.9295 0.24652 0.2465 0.58088 0.385 0.92952 0.385h5.09915M18.2204 7.96322V4.28549c0 -0.34864 -0.1385 -0.683 -0.385 -0.92952 -0.2465 -0.24653 -0.5809 -0.38502 -0.9295 -0.38502h-2.6291" stroke-width="1"></path><path stroke="#000000" stroke-linecap="round" stroke-linejoin="round" d="M1.13135 7.57178H18.2204" stroke-width="1"></path><path stroke="#000000" stroke-linecap="round" stroke-linejoin="round" d="M5.07495 0.999023V4.94265" stroke-width="1"></path><path stroke="#000000" stroke-linecap="round" stroke-linejoin="round" d="M14.2771 0.999023V4.94265" stroke-width="1"></path><path stroke="#000000" stroke-linecap="round" stroke-linejoin="round" d="M5.07495 2.97095h6.57275" stroke-width="1"></path><path stroke="#000000" stroke-linecap="round" stroke-linejoin="round" d="m15.6982 12.1786 0.7019 -0.702c1.5382 -1.53814 4.032 -1.53814 5.5702 0 1.5382 1.5382 1.5382 4.0321 0 5.5702l-0.7018 0.7018 0.2123 0.5256c0.1503 0.3721 0.0637 0.7979 -0.2201 1.0817l-1.9044 1.9044c-0.2837 0.2837 -0.7096 0.3704 -1.0816 0.2201l-0.5256 -0.2124 -0.702 0.7021c-1.5382 1.5381 -4.0321 1.5381 -5.5702 0 -1.5382 -1.5382 -1.5382 -4.0321 0 -5.5702l0.7021 -0.7022 -0.2122 -0.5252c-0.1503 -0.372 -0.0636 -0.7979 0.2201 -1.0816l1.9044 -1.9044c0.2837 -0.2838 0.7096 -0.3704 1.0817 -0.2201l0.5252 0.2122Z" stroke-width="1"></path><path stroke="#000000" stroke-linecap="round" stroke-linejoin="round" d="m18.0036 17.4333 1.6748 -1.3987c0.7254 -0.6059 0.7746 -1.7037 0.1063 -2.372 -0.6684 -0.6684 -1.7662 -0.6192 -2.3721 0.1063l-1.3987 1.6747c-0.1725 0.2066 -0.3632 0.3973 -0.5698 0.5698l-1.6747 1.3987c-0.7255 0.6059 -0.7747 1.7037 -0.1064 2.3721 0.6684 0.6683 1.7662 0.6191 2.3721 -0.1063l1.3987 -1.6748c0.1726 -0.2065 0.3632 -0.3972 0.5698 -0.5698Z" stroke-width="1"></path></svg>