<svg xmlns="http://www.w3.org/2000/svg" viewBox="0 0 24 24" id="Pregnancy-Ovary--Streamline-Ultimate"><desc>Pregnancy Ovary Streamline Icon: https://streamlinehq.com</desc><defs></defs><title>pregnancy-ovary</title><path d="M16.187 3.329c3.5 4.955 -1.187 8.53 -1.187 10 0.3 2.515 -0.334 3.984 -3 4.849h0c-2.667 -0.865 -3.3 -2.334 -3 -4.849 0 -1.469 -4.688 -5.044 -1.187 -10" fill="none" stroke="#000000" stroke-linecap="round" stroke-linejoin="round" stroke-width="1"></path><path d="M20.25 7.125a1.5 1.5 0 1 0 3 0 1.5 1.5 0 1 0 -3 0" fill="none" stroke="#000000" stroke-linecap="round" stroke-linejoin="round" stroke-width="1"></path><path d="M0.75 7.125a1.5 1.5 0 1 0 3 0 1.5 1.5 0 1 0 -3 0" fill="none" stroke="#000000" stroke-linecap="round" stroke-linejoin="round" stroke-width="1"></path><path d="M21.732 5.617a3 3 0 1 0 -5.545 -2.288C15.641 2.238 13.81 1.6 12 1.484c-1.811 0.115 -3.641 0.754 -4.187 1.845a3 3 0 1 0 -5.545 2.288" fill="none" stroke="#000000" stroke-linecap="round" stroke-linejoin="round" stroke-width="1"></path><path d="m12 18.177 0 4.448" fill="none" stroke="#000000" stroke-linecap="round" stroke-linejoin="round" stroke-width="1"></path></svg>