<svg viewBox="0 0 24 24" xmlns="http://www.w3.org/2000/svg" id="Pregnancy-Ultrasound-Baby--Streamline-Ultimate"><desc>Pregnancy Ultrasound Baby Streamline Icon: https://streamlinehq.com</desc><path d="M3.218 15.9a12.705 12.705 0 0 0 1.162 0.906" fill="none" stroke="#000000" stroke-linecap="round" stroke-linejoin="round" stroke-width="1"></path><path d="M8.359 18.688A11.8 11.8 0 0 0 9.8 19" fill="none" stroke="#000000" stroke-linecap="round" stroke-linejoin="round" stroke-width="1"></path><path d="M14.2 19a11.8 11.8 0 0 0 1.44 -0.312" fill="none" stroke="#000000" stroke-linecap="round" stroke-linejoin="round" stroke-width="1"></path><path d="M19.62 16.81a12.705 12.705 0 0 0 1.162 -0.906" fill="none" stroke="#000000" stroke-linecap="round" stroke-linejoin="round" stroke-width="1"></path><path d="m23.25 13.18 -8.25 -9a3.75 3.75 0 0 1 -6 0l-8.25 9" fill="none" stroke="#000000" stroke-linecap="round" stroke-linejoin="round" stroke-width="1"></path><path d="m23.25 13.18 -8.25 -9a3.75 3.75 0 0 1 -6 0l-8.25 9" fill="none" stroke="#000000" stroke-linecap="round" stroke-linejoin="round" stroke-width="1"></path><path d="M9 11.3c-0.473 -0.1 -0.922 -0.289 -1.383 -0.43" fill="none" stroke="#000000" stroke-linecap="round" stroke-linejoin="round" stroke-width="1"></path><path d="M12 12.43a3 3 0 1 0 6 0 3 3 0 1 0 -6 0Z" fill="none" stroke="#000000" stroke-linecap="round" stroke-linejoin="round" stroke-width="1"></path></svg>