<svg id="Pregnancy-Ultrasound--Streamline-Ultimate" xmlns="http://www.w3.org/2000/svg" viewBox="0 0 24 24"><desc>Pregnancy Ultrasound Streamline Icon: https://streamlinehq.com</desc><defs></defs><title>pregnancy-ultrasound</title><path d="m15.75 22.5 -7.5 0L9 18l6 0 0.75 4.5z" fill="none" stroke="#000000" stroke-linecap="round" stroke-linejoin="round" stroke-width="1"></path><path d="m6 22.5 12 0" fill="none" stroke="#000000" stroke-linecap="round" stroke-linejoin="round" stroke-width="1"></path><path d="m0.75 15 22.5 0" fill="none" stroke="#000000" stroke-linecap="round" stroke-linejoin="round" stroke-width="1"></path><path d="M3.75 1.5h16.5s3 0 3 3V15s0 3 -3 3H3.75s-3 0 -3 -3V4.5s0 -3 3 -3" fill="none" stroke="#000000" stroke-linecap="round" stroke-linejoin="round" stroke-width="1"></path><path d="M12.2 11.548A9.009 9.009 0 0 0 18.658 9l-4 -4a5.4 5.4 0 0 1 -2.452 0.548A5.4 5.4 0 0 1 9.752 5l-4 4a9.011 9.011 0 0 0 6.448 2.548Z" fill="none" stroke="#000000" stroke-linecap="round" stroke-linejoin="round" stroke-width="1"></path></svg>