<svg viewBox="0 0 24 24" xmlns="http://www.w3.org/2000/svg" id="Pregnancy-Eggs--Streamline-Ultimate"><desc>Pregnancy Eggs Streamline Icon: https://streamlinehq.com</desc><path d="M8.25 18a7.5 5.25 0 1 0 15 0 7.5 5.25 0 1 0 -15 0Z" fill="none" stroke="#000000" stroke-linecap="round" stroke-linejoin="round" stroke-width="1"></path><path d="M19.5 17.25c0 1.657 -1.679 3 -3.75 3s-3.75 -1.343 -3.75 -3" fill="none" stroke="#000000" stroke-linecap="round" stroke-linejoin="round" stroke-width="1"></path><path d="M1.654 11.806C-0.2 9.575 0.885 5.622 4.073 2.976S11.345 0 13.2 2.226s0.769 6.185 -2.418 8.83 -7.276 2.981 -9.128 0.75Z" fill="none" stroke="#000000" stroke-linecap="round" stroke-linejoin="round" stroke-width="1"></path><path d="M9.832 4.044c1.058 1.275 0.624 3.381 -0.969 4.7s-3.744 1.361 -4.8 0.086" fill="none" stroke="#000000" stroke-linecap="round" stroke-linejoin="round" stroke-width="1"></path></svg>