<svg xmlns="http://www.w3.org/2000/svg" fill="none" viewBox="0 0 24 24" id="Sanitary-Pad-2--Streamline-Ultimate"><desc>Sanitary Pad 2 Streamline Icon: https://streamlinehq.com</desc><path stroke="#000000" stroke-linecap="round" stroke-linejoin="round" d="m10.2319 4.16834 1.2097 -1.20966c2.6506 -2.650637 6.9482 -2.650634 9.5988 0 2.6506 2.65063 2.6506 6.94816 0 9.59882l-1.2095 1.2095 0.2972 0.7357c0.3006 0.7442 0.1273 1.5959 -0.4402 2.1634l-3.0226 3.0226c-0.5675 0.5675 -1.4193 0.7408 -2.1634 0.4402l-0.7357 -0.2972 -1.2097 1.2097c-2.65064 2.6506 -6.94816 2.6506 -9.5988 0 -2.650632 -2.6507 -2.650632 -6.9482 0 -9.5988l1.20981 -1.2098 -0.29705 -0.73531c-0.30061 -0.74412 -0.1273 -1.59586 0.44019 -2.16335l3.02266 -3.02266c0.56748 -0.56748 1.41923 -0.74079 2.16335 -0.44018l0.73524 0.29704Z" stroke-width="1"></path><path stroke="#000000" stroke-linecap="round" stroke-linejoin="round" d="m15.242 14.0121 3.097 -2.4893c1.9338 -1.55444 2.0905 -4.44341 0.3361 -6.1978s-4.6434 -1.59773 -6.1977 0.33609L9.98796 8.75813c-0.36426 0.45317 -0.7766 0.86551 -1.22977 1.22977l-3.09705 2.4894c-1.93381 1.5544 -2.09047 4.4434 -0.33608 6.1977 1.75439 1.7544 4.64336 1.5978 6.19774 -0.336l2.4894 -3.0971c0.3643 -0.4532 0.7766 -0.8655 1.2298 -1.2298Z" stroke-width="1"></path><path stroke="#000000" stroke-linecap="round" stroke-linejoin="round" d="M15.5008 7.13203c-0.1633 0 -0.2957 -0.13241 -0.2957 -0.29575s0.1324 -0.29575 0.2957 -0.29575" stroke-width="1"></path><path stroke="#000000" stroke-linecap="round" stroke-linejoin="round" d="M15.5009 7.13203c0.1633 0 0.2957 -0.13241 0.2957 -0.29575s-0.1324 -0.29575 -0.2957 -0.29575" stroke-width="1"></path><path stroke="#000000" stroke-linecap="round" stroke-linejoin="round" d="M16.1988 10.123c-0.1633 0 -0.2957 -0.13242 -0.2957 -0.29576 0 -0.16333 0.1324 -0.29575 0.2957 -0.29575" stroke-width="1"></path><path stroke="#000000" stroke-linecap="round" stroke-linejoin="round" d="M16.1989 10.123c0.1633 0 0.2957 -0.13242 0.2957 -0.29576 0 -0.16333 -0.1324 -0.29575 -0.2957 -0.29575" stroke-width="1"></path><path stroke="#000000" stroke-linecap="round" stroke-linejoin="round" d="M13.0331 9.82734c-0.1634 0 -0.2958 -0.13241 -0.2958 -0.29575s0.1324 -0.29575 0.2958 -0.29575" stroke-width="1"></path><path stroke="#000000" stroke-linecap="round" stroke-linejoin="round" d="M13.0331 9.82734c0.1633 0 0.2958 -0.13241 0.2958 -0.29575s-0.1325 -0.29575 -0.2958 -0.29575" stroke-width="1"></path><path stroke="#000000" stroke-linecap="round" stroke-linejoin="round" d="M12.589 13.0673c-0.1634 0 -0.2958 -0.1324 -0.2958 -0.2957 0 -0.1634 0.1324 -0.2958 0.2958 -0.2958" stroke-width="1"></path><path stroke="#000000" stroke-linecap="round" stroke-linejoin="round" d="M12.589 13.0673c0.1634 0 0.2958 -0.1324 0.2958 -0.2957 0 -0.1634 -0.1324 -0.2958 -0.2958 -0.2958" stroke-width="1"></path><path stroke="#000000" stroke-linecap="round" stroke-linejoin="round" d="M9.41806 13.4726c-0.16333 0 -0.29575 -0.1324 -0.29575 -0.2957 0 -0.1634 0.13242 -0.2958 0.29575 -0.2958" stroke-width="1"></path><path stroke="#000000" stroke-linecap="round" stroke-linejoin="round" d="M9.41812 13.4726c0.16334 0 0.29575 -0.1324 0.29575 -0.2957 0 -0.1634 -0.13241 -0.2958 -0.29575 -0.2958" stroke-width="1"></path><path stroke="#000000" stroke-linecap="round" stroke-linejoin="round" d="M9.86191 16.5715c-0.16334 0 -0.29575 -0.1324 -0.29575 -0.2958 0 -0.1633 0.13241 -0.2957 0.29575 -0.2957" stroke-width="1"></path><path stroke="#000000" stroke-linecap="round" stroke-linejoin="round" d="M9.86196 16.5715c0.16334 0 0.29574 -0.1324 0.29574 -0.2958 0 -0.1633 -0.1324 -0.2957 -0.29574 -0.2957" stroke-width="1"></path><path stroke="#000000" stroke-linecap="round" stroke-linejoin="round" d="M6.87485 15.9799c-0.16334 0 -0.29575 -0.1324 -0.29575 -0.2957 0 -0.1634 0.13241 -0.2958 0.29575 -0.2958" stroke-width="1"></path><path stroke="#000000" stroke-linecap="round" stroke-linejoin="round" d="M6.8749 15.9799c0.16334 0 0.29575 -0.1324 0.29575 -0.2957 0 -0.1634 -0.13241 -0.2958 -0.29575 -0.2958" stroke-width="1"></path></svg>