<svg xmlns="http://www.w3.org/2000/svg" fill="none" viewBox="0 0 24 24" id="Tampon-With-Blood--Streamline-Ultimate"><desc>Tampon With Blood Streamline Icon: https://streamlinehq.com</desc><path stroke="#000000" stroke-linejoin="round" d="M15.6789 2.72888c-1.6265 -1.62647 -4.2635 -1.62646 -5.88996 0.00001L3.78654 8.7313c-0.39052 0.39052 -0.39052 1.02369 0.00001 1.4142l4.47573 4.4758c0.39053 0.3905 1.02369 0.3905 1.41422 0l6.0024 -6.00247c1.6265 -1.62646 1.6265 -4.26348 0 -5.88995Z" stroke-width="1"></path><path stroke="#000000" stroke-linecap="round" d="m12.9263 5.3457 2.6472 -2.64721" stroke-width="1"></path><path stroke="#000000" stroke-linejoin="round" d="m4.16992 10.5293 -1.73004 1.7301c-0.39052 0.3905 -0.39052 1.0236 0 1.4142l2.29463 2.2946c0.39053 0.3905 1.0237 0.3905 1.41422 0l1.73004 -1.7301 -3.70885 -3.7088Z" stroke-width="1"></path><path stroke="#000000" stroke-linecap="round" stroke-linejoin="round" d="M3.55249 14.9075c-3.184826 3.1848 0.79046 4.8929 -2.556296 8.2397" stroke-width="1"></path><path stroke="#000000" stroke-linecap="round" stroke-linejoin="round" d="M23.0858 18.8615c0 1.1366 -0.4835 2.2266 -1.3441 3.0303 -0.8606 0.8037 -2.0279 1.2553 -3.245 1.2553 -1.217 0 -2.3843 -0.4516 -3.2449 -1.2553 -0.8606 -0.8037 -1.3441 -1.8937 -1.3441 -3.0303 0 -3.6418 3.9305 -7.9274 4.589 -7.9274 0.6586 0 4.5891 4.2856 4.5891 7.9274Z" stroke-width="1"></path><path stroke="#000000" stroke-linecap="round" stroke-linejoin="round" d="M20.6004 18.6523c0 0.4896 -0.2082 0.959 -0.5788 1.3052 -0.3707 0.3461 -0.8734 0.5406 -1.3976 0.5406" stroke-width="1"></path></svg>