<svg xmlns="http://www.w3.org/2000/svg" fill="none" viewBox="0 0 24 24" id="Women-Geometric-My-Cup--Streamline-Ultimate"><desc>Women Geometric My Cup Streamline Icon: https://streamlinehq.com</desc><path stroke="#000000" stroke-linecap="round" stroke-linejoin="round" d="M7.13345 9.38512c2.2974 0 4.15985 -1.86241 4.15985 -4.15982 0 -2.2974 -1.86245 -4.15981 -4.15985 -4.15981 -2.29741 0 -4.15982 1.86241 -4.15982 4.15981 0 2.29741 1.86241 4.15982 4.15982 4.15982Z" stroke-width="1"></path><path stroke="#000000" stroke-linecap="round" stroke-linejoin="round" d="M10.2053 12.8305c-0.93948 -0.5211 -1.99521 -0.7978 -3.07407 -0.7967 -1.45359 0.0005 -2.86462 0.5051 -4.00538 1.4325 -1.14077 0.9273 -1.94471 2.2232 -2.2821 3.6787H11.1515" stroke-width="1"></path><path stroke="#000000" stroke-linecap="round" stroke-linejoin="round" d="M2.97359 5.22534s0 3.95109 -1.975543 3.95109" stroke-width="1"></path><path stroke="#000000" stroke-linecap="round" stroke-linejoin="round" d="M11.293 5.22534s0 3.95109 1.9756 3.95109" stroke-width="1"></path><path stroke="#000000" stroke-linejoin="round" d="M19.1358 20.7831c1.1715 -0.5783 2.9083 -1.8907 2.9083 -4.5894V14.058h-7.8966v2.1357c0 2.7051 1.7398 4.0173 2.9079 4.5935v1.1071c0 0.5745 0.4657 1.0402 1.0402 1.0402s1.0402 -0.4657 1.0402 -1.0402v-1.1112Z" stroke-width="1"></path><path stroke="#000000" stroke-linejoin="round" d="M23.1563 12.7016c0 -0.7491 -0.6074 -1.3564 -1.3565 -1.3564l-7.4072 0c-0.7492 0 -1.3565 0.6073 -1.3565 1.3564 0 0.7491 0.6073 1.3564 1.3565 1.3564l7.4072 0c0.7491 0 1.3565 -0.6073 1.3565 -1.3564Z" stroke-width="1"></path><path stroke="#000000" stroke-linecap="round" d="m14.1904 16.9609 7.8022 0" stroke-width="1"></path><path stroke="#000000" stroke-linejoin="round" d="M2.97266 5.56154c1.88192 0 3.14479 -0.57246 4.16005 -2.10768 1.01525 1.53522 2.27812 2.10768 4.16009 2.10768" stroke-width="1"></path></svg>