<svg xmlns="http://www.w3.org/2000/svg" fill="none" viewBox="0 0 24 24" id="Women-My-Cup--Streamline-Ultimate"><desc>Women My Cup Streamline Icon: https://streamlinehq.com</desc><path stroke="#000000" stroke-linejoin="round" d="M19.1446 20.9462c1.1715 -0.5783 2.9083 -1.8907 2.9083 -4.5894v-2.1356h-7.8967v2.1356c0 2.7051 1.7399 4.0173 2.9079 4.5935v1.1071c0 0.5745 0.4658 1.0402 1.0402 1.0402 0.5745 0 1.0403 -0.4657 1.0403 -1.0402v-1.1112Z" stroke-width="1"></path><path stroke="#000000" stroke-linejoin="round" d="M23.166 12.8647c0 -0.7491 -0.6073 -1.3564 -1.3564 -1.3564l-7.4073 0c-0.7491 0 -1.3564 0.6073 -1.3564 1.3564 0 0.7492 0.6073 1.3565 1.3564 1.3565l7.4073 0c0.7491 0 1.3564 -0.6073 1.3564 -1.3565Z" stroke-width="1"></path><path stroke="#000000" stroke-linecap="round" d="M14.2041 17.124h7.7971" stroke-width="1"></path><path stroke="#000000" stroke-linecap="round" stroke-linejoin="round" d="M11.6213 10.5128c-0.4379 -0.1636 -0.9045 -0.3333 -1.3915 -0.51347 -0.41832 -0.15393 -0.51899 -0.92045 -0.45958 -1.52151 0.84548 0.02025 2.10798 -0.18053 2.83848 -0.617 0.049 -0.02935 0.0911 -0.06887 0.1235 -0.11589 0.0324 -0.04701 0.0543 -0.10044 0.0643 -0.15666 0.01 -0.05622 0.0078 -0.11393 -0.0064 -0.16923 -0.0142 -0.0553 -0.0401 -0.1069 -0.076 -0.15133 -0.3369 -0.39913 -0.57 -0.92199 -0.6729 -2.44268C11.8448 1.92335 9.88824 0.902374 8.2063 0.902374S4.56782 1.92335 4.37464 4.82503c-0.10297 1.52069 -0.33606 2.04595 -0.67293 2.44188 -0.03601 0.04445 -0.06205 0.09611 -0.07635 0.1515 -0.01431 0.05538 -0.01654 0.11319 -0.00654 0.16951 0.00999 0.05632 0.03197 0.10984 0.06445 0.15692 0.03249 0.04709 0.07471 0.08664 0.12381 0.11598 0.73093 0.43657 1.99293 0.63741 2.83876 0.617 0.05932 0.60058 -0.04141 1.36636 -0.4596 1.52151 -2.37059 0.87787 -4.25898 1.50427 -4.71104 2.40847 -0.39211 0.8131 -0.610488 1.6991 -0.641216 2.6014H10.2298" stroke-width="1"></path></svg>