<svg viewBox="0 0 24 24" xmlns="http://www.w3.org/2000/svg" id="Dress-2--Streamline-Ultimate"><desc>Dress 2 Streamline Icon: https://streamlinehq.com</desc><path d="M9.69 3.75a2.566 2.566 0 0 0 -2.434 3.377l0.831 2.493h0a15.9 15.9 0 0 0 7.826 0h0l0.831 -2.493A2.566 2.566 0 0 0 14.31 3.75a1.512 1.512 0 0 0 -1.259 0.674l-0.427 0.64a0.75 0.75 0 0 1 -1.248 0l-0.427 -0.64A1.512 1.512 0 0 0 9.69 3.75Z" fill="none" stroke="#000000" stroke-linecap="round" stroke-linejoin="round" stroke-width="1"></path><path d="M8.087 9.554 4.7 20.971a0.977 0.977 0 0 0 0.581 1.172 20.95 20.95 0 0 0 13.44 0 0.979 0.979 0 0 0 0.581 -1.172L15.913 9.554" fill="none" stroke="#000000" stroke-linecap="round" stroke-linejoin="round" stroke-width="1"></path><path d="M5.683 17.657a17.348 17.348 0 0 0 12.634 0" fill="none" stroke="#000000" stroke-linecap="round" stroke-linejoin="round" stroke-width="1"></path><path d="M9 3.761 9 0.75" fill="none" stroke="#000000" stroke-linecap="round" stroke-linejoin="round" stroke-width="1"></path><path d="M15 3.761 15 0.75" fill="none" stroke="#000000" stroke-linecap="round" stroke-linejoin="round" stroke-width="1"></path></svg>