<svg viewBox="0 0 24 24" xmlns="http://www.w3.org/2000/svg" id="Skirt-1--Streamline-Ultimate"><desc>Skirt 1 Streamline Icon: https://streamlinehq.com</desc><path d="M5.25 0.75h13.5v3H5.25z" fill="none" stroke="#000000" stroke-linecap="round" stroke-linejoin="round" stroke-width="1"></path><path d="M5.25 3.75s-3 1.5 -3 4.5c0 2.638 0 8.175 -1.02 9.983a0.751 0.751 0 0 0 0.29 1.025 8.2 8.2 0 0 0 3.98 0.992" fill="none" stroke="#000000" stroke-linecap="round" stroke-linejoin="round" stroke-width="1"></path><path d="M18.75 3.75s3 1.5 3 4.5c0 2.638 0 8.175 1.02 9.983a0.751 0.751 0 0 1 -0.29 1.025 8.2 8.2 0 0 1 -3.976 0.992" fill="none" stroke="#000000" stroke-linecap="round" stroke-linejoin="round" stroke-width="1"></path><path d="M14.25 3.75s3 3 3 9a21.735 21.735 0 0 0 1.792 8.839 0.75 0.75 0 0 1 -0.586 1.053c-1.648 0.218 -4.833 0.608 -6.456 0.608s-4.808 -0.39 -6.456 -0.608a0.75 0.75 0 0 1 -0.586 -1.053A21.735 21.735 0 0 0 6.75 12.75c0 -6 3 -9 3 -9" fill="none" stroke="#000000" stroke-linecap="round" stroke-linejoin="round" stroke-width="1"></path><path d="m12 3.75 0 19.5" fill="none" stroke="#000000" stroke-linecap="round" stroke-linejoin="round" stroke-width="1"></path></svg>