<svg viewBox="0 0 24 24" xmlns="http://www.w3.org/2000/svg" id="Astrology-Virgo--Streamline-Ultimate"><desc>Astrology Virgo Streamline Icon: https://streamlinehq.com</desc><path d="M9.344 19V5.607a4.286 4.286 0 0 0 -4.286 -4.286h0A4.285 4.285 0 0 0 0.773 5.607V19" fill="none" stroke="#000000" stroke-linecap="round" stroke-linejoin="round" stroke-width="1"></path><path d="M9.344 19V5.607a4.286 4.286 0 0 1 4.286 -4.286h0a4.286 4.286 0 0 1 4.286 4.286v14.464a2.678 2.678 0 0 0 2.678 2.679h0a2.679 2.679 0 0 0 2.679 -2.679v-0.535" fill="none" stroke="#000000" stroke-linecap="round" stroke-linejoin="round" stroke-width="1"></path><path d="M17.916 6.679h2.553a2.8 2.8 0 0 1 2.8 2.8h0a2.8 2.8 0 0 1 -0.574 1.7l-8 10.5" fill="none" stroke="#000000" stroke-linecap="round" stroke-linejoin="round" stroke-width="1"></path></svg>