<svg viewBox="0 0 24 24" xmlns="http://www.w3.org/2000/svg" id="Astrology-Book--Streamline-Ultimate"><desc>Astrology Book Streamline Icon: https://streamlinehq.com</desc><path d="M8.968 20.75h-5.25a3 3 0 0 1 -3 -3V4.25" fill="none" stroke="#000000" stroke-linecap="round" stroke-linejoin="round" stroke-width="1"></path><path d="M14.218 1.25H3.878a3.111 3.111 0 0 0 -3.119 2.5 3 3 0 0 0 2.959 3.5h9.75" fill="none" stroke="#000000" stroke-linecap="round" stroke-linejoin="round" stroke-width="1"></path><path d="m3.718 4.25 9 0" fill="none" stroke="#000000" stroke-linecap="round" stroke-linejoin="round" stroke-width="1"></path><path d="M11.914 19.585a0.75 0.75 0 0 1 -0.651 -1.122l5.3 -9.282a0.75 0.75 0 0 1 1.3 0l5.3 9.282a0.75 0.75 0 0 1 -0.651 1.122Z" fill="none" stroke="#000000" stroke-linecap="round" stroke-linejoin="round" stroke-width="1"></path><path d="M22.522 12.165a0.751 0.751 0 0 1 0.651 1.122l-5.3 9.282a0.75 0.75 0 0 1 -1.3 0l-5.3 -9.282a0.75 0.75 0 0 1 0.651 -1.122Z" fill="none" stroke="#000000" stroke-linecap="round" stroke-linejoin="round" stroke-width="1"></path></svg>