<svg xmlns="http://www.w3.org/2000/svg" viewBox="0 0 24 24" id="Appliances-Blender--Streamline-Ultimate"><desc>Appliances Blender Streamline Icon: https://streamlinehq.com</desc><g><path d="M15.75 20.75 14 18.35a1.49 1.49 0 0 0 -1.2 -0.6H8.25a1.49 1.49 0 0 0 -1.2 0.6l-1.8 2.4v1a1.5 1.5 0 0 0 1.5 1.5h7.5a1.5 1.5 0 0 0 1.5 -1.5Z" fill="none" stroke="#000000" stroke-linecap="round" stroke-linejoin="round" stroke-width="1"></path><path d="M14.41 13.44a1.49 1.49 0 0 1 -1.48 1.31H8.07a1.49 1.49 0 0 1 -1.48 -1.31l-1.13 -9.5A1.5 1.5 0 0 1 7 2.25h7.1a1.5 1.5 0 0 1 1.49 1.69Z" fill="none" stroke="#000000" stroke-linecap="round" stroke-linejoin="round" stroke-width="1"></path><path d="m10.5 2.25 0 -1.5" fill="none" stroke="#000000" stroke-linecap="round" stroke-linejoin="round" stroke-width="1"></path><path d="M5.75 6.25h11.5a1.5 1.5 0 0 1 1.5 1.5v2a1.5 1.5 0 0 1 -1.5 1.5h-2.58" fill="none" stroke="#000000" stroke-linecap="round" stroke-linejoin="round" stroke-width="1"></path></g></svg>