<svg viewBox="0 0 24 24" xmlns="http://www.w3.org/2000/svg" id="Appliances-Slow-Cooker--Streamline-Ultimate"><desc>Appliances Slow Cooker Streamline Icon: https://streamlinehq.com</desc><path d="M3.75 12.75h16.5l0 0v8.5a2 2 0 0 1 -2 2H5.75a2 2 0 0 1 -2 -2v-8.5l0 0Z" fill="none" stroke="#000000" stroke-linecap="round" stroke-linejoin="round" stroke-width="1"></path><path d="m20.25 14.25 3 0" fill="none" stroke="#000000" stroke-linecap="round" stroke-linejoin="round" stroke-width="1"></path><path d="m3.75 14.25 -3 0" fill="none" stroke="#000000" stroke-linecap="round" stroke-linejoin="round" stroke-width="1"></path><path d="M3.75 12.75c0 -3.314 3.694 -4.5 8.25 -4.5s8.25 1.186 8.25 4.5" fill="none" stroke="#000000" stroke-linecap="round" stroke-linejoin="round" stroke-width="1"></path><path d="m14.25 18.75 1.5 0" fill="none" stroke="#000000" stroke-linecap="round" stroke-linejoin="round" stroke-width="1"></path><path d="m12 5.25 0 3" fill="none" stroke="#000000" stroke-linecap="round" stroke-linejoin="round" stroke-width="1"></path><path d="M18.75 0.75c1.437 2.873 -2.151 2.381 0 5.25" fill="none" stroke="#000000" stroke-linecap="round" stroke-linejoin="round" stroke-width="1"></path><path d="M5.206 0.75c1.437 2.873 -2.151 2.381 0 5.25" fill="none" stroke="#000000" stroke-linecap="round" stroke-linejoin="round" stroke-width="1"></path></svg>