<svg xmlns="http://www.w3.org/2000/svg" viewBox="0 0 24 24" id="Surveillance-Camera-Moving--Streamline-Ultimate"><desc>Surveillance Camera Moving Streamline Icon: https://streamlinehq.com</desc><defs></defs><title>surveillance-camera-moving</title><path d="M12.58 14.588 9.412 11.42 0.9 19.935a0.5 0.5 0 0 0 0 0.708l2.46 2.46a0.5 0.5 0 0 0 0.708 0Z" fill="none" stroke="#000000" stroke-linecap="round" stroke-linejoin="round" stroke-width="1"></path><path d="M9.847 19.338A1.494 1.494 0 0 0 12 19.291L23.251 7.085 22.5 1.5 16.915 0.75 4.709 12a1.494 1.494 0 0 0 -0.047 2.157Z" fill="none" stroke="#000000" stroke-linecap="round" stroke-linejoin="round" stroke-width="1"></path><path d="M3.909 8.191A11.221 11.221 0 0 1 11.3 0.8" fill="none" stroke="#000000" stroke-linecap="round" stroke-linejoin="round" stroke-width="1"></path><path d="M15.809 20.091A11.221 11.221 0 0 0 23.2 12.7" fill="none" stroke="#000000" stroke-linecap="round" stroke-linejoin="round" stroke-width="1"></path></svg>