<svg viewBox="0 0 24 24" xmlns="http://www.w3.org/2000/svg" id="Surveillance-Cctv-1--Streamline-Ultimate"><desc>Surveillance Cctv 1 Streamline Icon: https://streamlinehq.com</desc><path d="M8.25 14v3.333a2.848 2.848 0 0 1 -3 2.667H0.75" fill="none" stroke="#000000" stroke-linecap="round" stroke-linejoin="round" stroke-width="1"></path><path d="m0.75 17.75 0 3.75" fill="none" stroke="#000000" stroke-linecap="round" stroke-linejoin="round" stroke-width="1"></path><path d="M15 11H1.5a0.75 0.75 0 0 1 -0.75 -0.75V6.5A4.5 4.5 0 0 1 5.25 2h16.5a1.5 1.5 0 0 1 1.5 1.5v1.275a1.5 1.5 0 0 1 -0.891 1.371L16.5 8.751V9.5A1.5 1.5 0 0 1 15 11Z" fill="none" stroke="#000000" stroke-linecap="round" stroke-linejoin="round" stroke-width="1"></path><path d="M20.25 7.084V12.5a1.5 1.5 0 0 1 -1.5 1.5H5.25a3 3 0 0 1 -3 -3h0" fill="none" stroke="#000000" stroke-linecap="round" stroke-linejoin="round" stroke-width="1"></path><path d="m23.25 8.75 0 3" fill="none" stroke="#000000" stroke-linecap="round" stroke-linejoin="round" stroke-width="1"></path></svg>