<svg xmlns="http://www.w3.org/2000/svg" fill="none" viewBox="0 0 24 24" id="Surveillance-Camera-1--Streamline-Ultimate"><desc>Surveillance Camera 1 Streamline Icon: https://streamlinehq.com</desc><path stroke="#000000" stroke-linecap="round" stroke-linejoin="round" d="M0.75 5h22.5" stroke-width="1"></path><path stroke="#000000" stroke-linecap="round" stroke-linejoin="round" d="m2.25 10 0 -5 19.5 0v5c0 0.2652 -0.1054 0.5196 -0.2929 0.7071S21.0152 11 20.75 11l-17.5 0c-0.26522 0 -0.51957 -0.1054 -0.70711 -0.2929C2.35536 10.5196 2.25 10.2652 2.25 10v0Z" stroke-width="1"></path><path stroke="#000000" stroke-linecap="round" stroke-linejoin="round" d="M20.25 11c0 2.188 -0.8692 4.2865 -2.4164 5.8336C16.2865 18.3808 14.188 19.25 12 19.25c-2.18804 0 -4.28646 -0.8692 -5.83363 -2.4164C4.61919 15.2865 3.75 13.188 3.75 11" stroke-width="1"></path><path stroke="#000000" stroke-linecap="round" stroke-linejoin="round" d="M18.75 8h-4.5" stroke-width="1"></path><path stroke="#000000" d="M12 15.125c-0.2071 0 -0.375 -0.1679 -0.375 -0.375s0.1679 -0.375 0.375 -0.375" stroke-width="1"></path><path stroke="#000000" d="M12 15.125c0.2071 0 0.375 -0.1679 0.375 -0.375s-0.1679 -0.375 -0.375 -0.375" stroke-width="1"></path></svg>