<svg xmlns="http://www.w3.org/2000/svg" fill="none" viewBox="0 0 24 24" id="Surveillance-Location-1--Streamline-Ultimate"><desc>Surveillance Location 1 Streamline Icon: https://streamlinehq.com</desc><path stroke="#000000" stroke-linecap="round" stroke-linejoin="round" d="M23.1976 11.9976c0.0011 2.5905 -0.896 5.1013 -2.5385 7.1046 -1.6425 2.0032 -3.9287 3.375 -6.4692 3.8816 -2.5405 0.5067 -5.1781 0.1167 -7.46335 -1.1033 -2.28525 -1.22 -4.07681 -3.1946 -5.06943 -5.5874 -0.992612 -2.3928 -1.124878 -5.0558 -0.37426 -7.53516 0.75062 -2.47939 2.33769 -4.62182 4.4908 -6.06228C7.92677 1.2552 10.5127 0.605842 13.0909 0.858213c2.5782 0.252367 4.9892 1.390857 6.8221 3.221497" stroke-width="1"></path><path stroke="#000000" stroke-linecap="round" stroke-linejoin="round" d="M0.80249 11.9976H23.1976" stroke-width="1"></path><path stroke="#000000" stroke-linecap="round" stroke-linejoin="round" d="M12 0.800049V23.1952" stroke-width="1"></path><path stroke="#000000" stroke-linecap="round" stroke-linejoin="round" d="m12 11.9976 8.958 -8.95805" stroke-width="1"></path><path stroke="#000000" stroke-linecap="round" stroke-linejoin="round" d="M9.01404 5.97782c1.26026 -0.62438 2.68466 -0.83777 4.07256 -0.61011 1.3879 0.22766 2.6694 0.88489 3.6642 1.87917" stroke-width="1"></path><path stroke="#000000" stroke-linecap="round" stroke-linejoin="round" d="M15.0855 17.9696c-1.1969 0.6176 -2.5518 0.8615 -3.889 0.6999 -1.33723 -0.1616 -2.59505 -0.7211 -3.61046 -1.6061 -1.0154 -0.885 -1.74155 -2.0545 -2.08432 -3.3571s-0.28635 -2.6781 0.16195 -3.94824" stroke-width="1"></path><path stroke="#000000" stroke-linecap="round" stroke-linejoin="round" d="M18.7186 11.9976c0.0002 0.5023 -0.0555 1.003 -0.1662 1.493" stroke-width="1"></path><path stroke="#000000" d="M6.40121 7.5186c-0.20615 0 -0.37326 -0.16711 -0.37326 -0.37325 0 -0.20614 0.16711 -0.37326 0.37326 -0.37326" stroke-width="1"></path><path stroke="#000000" d="M6.40128 7.5186c0.20615 0 0.37326 -0.16711 0.37326 -0.37325 0 -0.20614 -0.16711 -0.37326 -0.37326 -0.37326" stroke-width="1"></path><g><path stroke="#000000" d="M17.5988 16.4766c-0.2061 0 -0.3732 -0.1671 -0.3732 -0.3732 0 -0.2062 0.1671 -0.3733 0.3732 -0.3733" stroke-width="1"></path><path stroke="#000000" d="M17.5988 16.4766c0.2061 0 0.3732 -0.1671 0.3732 -0.3732 0 -0.2062 -0.1671 -0.3733 -0.3732 -0.3733" stroke-width="1"></path></g></svg>