<svg xmlns="http://www.w3.org/2000/svg" viewBox="0 0 24 24" id="Carnival-Music--Streamline-Ultimate"><desc>Carnival Music Streamline Icon: https://streamlinehq.com</desc><defs></defs><title>carnival-music</title><path d="M13.224 11.623c1.2 0.4 1.94 0.939 1.94 1.531 0 1.236 -3.2 2.237 -7.159 2.237s-7.159 -1 -7.159 -2.237c0 -0.669 0.94 -1.269 2.429 -1.679" fill="none" stroke="#000000" stroke-linecap="round" stroke-linejoin="round" stroke-width="1"></path><path d="M0.846 13.154v7.8c0 1.236 3.205 2.238 7.159 2.238s7.159 -1 7.159 -2.238v-7.8" fill="none" stroke="#000000" stroke-linecap="round" stroke-linejoin="round" stroke-width="1"></path><path d="m21.191 7.806 -1.8 -6.839c1.658 -0.436 3.327 0.011 3.763 1.669" fill="none" stroke="#000000" stroke-linecap="round" stroke-linejoin="round" stroke-width="1"></path><path d="M16.846 8.689a2.25 2.25 0 1 0 4.5 0 2.25 2.25 0 1 0 -4.5 0" fill="none" stroke="#000000" stroke-linecap="round" stroke-linejoin="round" stroke-width="1"></path><path d="m0.846 20.952 4.105 -5.774 3.054 8.012" fill="none" stroke="#000000" stroke-linecap="round" stroke-linejoin="round" stroke-width="1"></path><path d="m15.164 20.952 -4.105 -5.774 -3.054 8.012" fill="none" stroke="#000000" stroke-linecap="round" stroke-linejoin="round" stroke-width="1"></path><path d="m1.357 6.315 5.276 4.531" fill="none" stroke="#000000" stroke-linecap="round" stroke-linejoin="round" stroke-width="1"></path><path d="m9.051 12.183 3.776 -4.864" fill="none" stroke="#000000" stroke-linecap="round" stroke-linejoin="round" stroke-width="1"></path></svg>