<svg xmlns="http://www.w3.org/2000/svg" viewBox="0 0 24 24" id="Carnival-Mask-1--Streamline-Ultimate"><desc>Carnival Mask 1 Streamline Icon: https://streamlinehq.com</desc><defs></defs><title>carnival-mask-1</title><path d="M12 14.189a23.423 23.423 0 0 1 5.3 -12.378" fill="none" stroke="#000000" stroke-linecap="round" stroke-linejoin="round" stroke-width="1"></path><path d="M13.812 14.335S14.505 10.7 20 6.04" fill="none" stroke="#000000" stroke-linecap="round" stroke-linejoin="round" stroke-width="1"></path><path d="m4.5 19.439 4.5 -0.5 3 3.25 3 -3.25 4.5 0.5v-2.75q-7.5 -5 -15 0Z" fill="none" stroke="#000000" stroke-linecap="round" stroke-linejoin="round" stroke-width="1"></path><path d="M15.763 14.818a11.288 11.288 0 0 1 5.487 -4.379" fill="none" stroke="#000000" stroke-linecap="round" stroke-linejoin="round" stroke-width="1"></path><path d="M17.551 15.559a13.3 13.3 0 0 1 5.7 -1.62" fill="none" stroke="#000000" stroke-linecap="round" stroke-linejoin="round" stroke-width="1"></path><path d="M12 14.189A23.423 23.423 0 0 0 6.705 1.811" fill="none" stroke="#000000" stroke-linecap="round" stroke-linejoin="round" stroke-width="1"></path><path d="M10.188 14.335S9.495 10.7 4 6.04" fill="none" stroke="#000000" stroke-linecap="round" stroke-linejoin="round" stroke-width="1"></path><path d="M8.237 14.818a11.288 11.288 0 0 0 -5.487 -4.379" fill="none" stroke="#000000" stroke-linecap="round" stroke-linejoin="round" stroke-width="1"></path><path d="M6.449 15.559a13.3 13.3 0 0 0 -5.7 -1.62" fill="none" stroke="#000000" stroke-linecap="round" stroke-linejoin="round" stroke-width="1"></path></svg>