<svg xmlns="http://www.w3.org/2000/svg" viewBox="0 0 24 24" id="Carnival-Poster--Streamline-Ultimate"><desc>Carnival Poster Streamline Icon: https://streamlinehq.com</desc><defs></defs><title>carnival-poster</title><path d="M16.81 2.284h4.94a1 1 0 0 1 1 1V22.25a1 1 0 0 1 -1 1H2.25a1 1 0 0 1 -1 -1V3.284a1 1 0 0 1 1 -1H7.1" fill="none" stroke="#000000" stroke-linecap="round" stroke-linejoin="round" stroke-width="1"></path><path d="M13.407 15.482h0a4.4 4.4 0 0 1 -6.185 0.685h0a5.188 5.188 0 0 1 -1.913 -3.476l-0.5 -4.513a21.087 21.087 0 0 0 9.2 -1.02l0.5 4.513a5.19 5.19 0 0 1 -1.102 3.811Z" fill="none" stroke="#000000" stroke-linecap="round" stroke-linejoin="round" stroke-width="1"></path><path d="M17.452 10.523c0.5 -0.039 1 -0.1 1.5 -0.171l-0.319 4.528a5.184 5.184 0 0 1 -1.772 3.551h0a4.4 4.4 0 0 1 -3.989 0.937" fill="none" stroke="#000000" stroke-linecap="round" stroke-linejoin="round" stroke-width="1"></path><path d="M11.492 13.131a2.348 2.348 0 0 1 -2.916 0.323" fill="none" stroke="#000000" stroke-linecap="round" stroke-linejoin="round" stroke-width="1"></path><path d="M9.955 2.795a2.045 2.045 0 1 0 4.09 0 2.045 2.045 0 1 0 -4.09 0" fill="none" stroke="#000000" stroke-linecap="round" stroke-linejoin="round" stroke-width="1"></path></svg>