<svg xmlns="http://www.w3.org/2000/svg" fill="none" viewBox="0 0 24 24" id="Carnival-Mask-2--Streamline-Ultimate"><desc>Carnival Mask 2 Streamline Icon: https://streamlinehq.com</desc><path stroke="#000000" stroke-linecap="round" stroke-linejoin="round" d="m23.135 13.5389 -3.7 0.988c-1.1618 0.2825 -2.3507 0.4385 -3.546 0.465h-0.012c-0.8053 0.001 -1.5944 0.226 -2.2791 0.6499 -0.6847 0.4238 -1.2379 1.0298 -1.5979 1.7501 -0.3597 -0.7196 -0.9124 -1.3251 -1.5963 -1.7489 -0.68392 -0.4238 -1.47214 -0.6492 -2.2767 -0.6511h-0.012c-1.19532 -0.0265 -2.38426 -0.1824 -3.546 -0.465l-3.700001 -0.988c-0.477 3.7 0.571001 6.616 2.387001 8.36 0.93431 0.8083 2.12587 1.2575 3.36125 1.2673 1.23537 0.0097 2.43385 -0.4208 3.38075 -1.2143 0.5792 -0.433 1.2829 -0.667 2.006 -0.667 0.7231 0 1.4268 0.234 2.006 0.667 0.9458 0.7928 2.1426 1.2233 3.3766 1.2147 1.2341 -0.0086 2.4248 -0.4558 3.3594 -1.2617 1.814 -1.74 2.867 -4.65 2.389 -8.366Z" stroke-width="1"></path><path stroke="#000000" stroke-linecap="round" stroke-linejoin="round" d="m4.78 17.119 -0.48 -0.209c-0.016 4.454 4.313 4.113 4.285 2.05 -0.03 -2.23 -2.478 -1.26 -3.805 -1.841Z" stroke-width="1"></path><path stroke="#000000" stroke-linecap="round" stroke-linejoin="round" d="m19.219 17.119 0.481 -0.209c0.015 4.454 -4.314 4.113 -4.286 2.05 0.031 -2.23 2.479 -1.26 3.805 -1.841Z" stroke-width="1"></path><path stroke="#000000" stroke-linecap="round" stroke-linejoin="round" d="M8.231 14.993c-0.007 -0.312 -0.009 -0.617 -0.009 -0.934C8.33298 9.4009 9.63353 4.84864 12 0.834961 14.3665 4.84864 15.667 9.4009 15.778 14.059c0 0.316 0 0.623 -0.009 0.934" stroke-width="1"></path><path stroke="#000000" d="M12.002 13.291c-0.2761 0 -0.5 -0.2238 -0.5 -0.5 0 -0.2761 0.2239 -0.5 0.5 -0.5" stroke-width="1"></path><path stroke="#000000" d="M12.002 13.291c0.2762 0 0.5 -0.2238 0.5 -0.5 0 -0.2761 -0.2238 -0.5 -0.5 -0.5" stroke-width="1"></path><path stroke="#000000" d="M12.002 9.22205c-0.2761 0 -0.5 -0.22386 -0.5 -0.5 0 -0.27615 0.2239 -0.5 0.5 -0.5" stroke-width="1"></path><path stroke="#000000" d="M12.002 9.22205c0.2762 0 0.5 -0.22386 0.5 -0.5 0 -0.27615 -0.2238 -0.5 -0.5 -0.5" stroke-width="1"></path><path stroke="#000000" stroke-linecap="round" stroke-linejoin="round" d="M7 5.88003c-1.92693 -1.1234 -3.98561 -2.00377 -6.128998 -2.621C1.37098 7.63122 3.31241 11.7125 6.389 14.859" stroke-width="1"></path><path stroke="#000000" stroke-linecap="round" stroke-linejoin="round" d="M4.824 7.755c1.38362 0.95364 2.59348 2.13746 3.577 3.5" stroke-width="1"></path><path stroke="#000000" stroke-linecap="round" stroke-linejoin="round" d="M17 5.88003c1.926 -1.12317 3.9836 -2.00354 6.126 -2.621 -0.5 4.37219 -2.4414 8.45347 -5.518 11.59997" stroke-width="1"></path><path stroke="#000000" stroke-linecap="round" stroke-linejoin="round" d="M19.176 7.755c-1.3836 0.95364 -2.5935 2.13746 -3.577 3.5" stroke-width="1"></path></svg>