<svg xmlns="http://www.w3.org/2000/svg" fill="none" viewBox="0 0 24 24" id="Adhd-Disorder-Symptoms-1--Streamline-Ultimate"><desc>Adhd Disorder Symptoms 1 Streamline Icon: https://streamlinehq.com</desc><path stroke="#000000" stroke-linecap="round" stroke-linejoin="round" d="M4.67536 23.25v-6.265c-1.38177 -1.2801 -2.34542 -2.9471 -2.76512 -4.7833 -0.41969 -1.8362 -0.27593 -3.75636 0.41253 -5.50962 0.68845 -1.75326 1.88959 -3.25818 3.44657 -4.31823C7.32632 1.3138 9.16677 0.747884 11.0504 0.750006c7.139 0 8.68 5.878004 11.225 12.479994 0.0436 0.1137 0.0589 0.2362 0.0446 0.3571 -0.0143 0.1209 -0.0577 0.2365 -0.1266 0.3369 -0.0689 0.1003 -0.1611 0.1824 -0.2688 0.2392 -0.1077 0.0568 -0.2275 0.0866 -0.3492 0.0868h-1.9v3c0 0.7957 -0.3161 1.5587 -0.8787 2.1213 -0.5626 0.5626 -1.3257 0.8787 -2.1213 0.8787h-1.5v3" stroke-width="1"></path><path stroke="#000000" stroke-linecap="round" stroke-linejoin="round" d="M10.583 9.69234c-0.2376 0 -0.4302 -0.1926 -0.4302 -0.43018 0 -0.23759 0.1926 -0.43019 0.4302 -0.43019" stroke-width="1"></path><path stroke="#000000" stroke-linecap="round" stroke-linejoin="round" d="M10.5835 9.69234c0.2376 0 0.4302 -0.1926 0.4302 -0.43018 0 -0.23759 -0.1926 -0.43019 -0.4302 -0.43019" stroke-width="1"></path><path stroke="#000000" stroke-linecap="round" d="m10.583 6.23367 0 -3.00332" stroke-width="1"></path><path stroke="#000000" stroke-linecap="round" d="M13.6119 9.26202h3.0033" stroke-width="1"></path><path stroke="#000000" stroke-linecap="round" d="m10.583 12.2904 0 3.0033" stroke-width="1"></path><path stroke="#000000" stroke-linecap="round" d="m7.55508 9.26202 -3.00332 0" stroke-width="1"></path><path stroke="#000000" stroke-linecap="round" stroke-linejoin="round" d="M9.11182 4.70154 10.583 3.23035l1.4712 1.47119" stroke-width="1"></path><path stroke="#000000" stroke-linecap="round" stroke-linejoin="round" d="M15.144 7.79083 16.6152 9.262l-1.4712 1.4712" stroke-width="1"></path><path stroke="#000000" stroke-linecap="round" stroke-linejoin="round" d="m12.0542 13.8225 -1.4712 1.4712 -1.47116 -1.4712" stroke-width="1"></path><path stroke="#000000" stroke-linecap="round" stroke-linejoin="round" d="M6.02295 10.7332 4.55176 9.26205l1.47119 -1.4712" stroke-width="1"></path></svg>