<svg xmlns="http://www.w3.org/2000/svg" fill="none" viewBox="0 0 24 24" id="Autism-Disorder-Symptoms-2--Streamline-Ultimate"><desc>Autism Disorder Symptoms 2 Streamline Icon: https://streamlinehq.com</desc><path stroke="#000000" stroke-linecap="round" stroke-linejoin="round" d="M8.16097 23.0413v-5.1359c-1.13273 -1.0494 -1.92271 -2.416 -2.26677 -3.9213 -0.03659 -0.1601 -0.09314 -0.3758 -0.1193 -0.5372l3.23454 -0.0127c0 0.9453 0.75635 1.7116 1.68936 1.7116 0.933 0 1.6893 -0.7663 1.6893 -1.7116l2.2047 0.0127 -0.0067 -2.5222c-0.9408 0 -1.7035 -0.7564 -1.7035 -1.68937 0 -0.93299 0.7627 -1.68932 1.7035 -1.68932l0.0013 -2.8756c4.8391 0.62636 6.0662 5.13616 8.0016 10.15669 0.0358 0.0932 0.0483 0.1936 0.0366 0.2927 -0.0117 0.0991 -0.0473 0.1939 -0.1038 0.2762 -0.0564 0.0823 -0.1321 0.1496 -0.2203 0.1962 -0.0883 0.0465 -0.1865 0.0709 -0.2863 0.0711h-1.5576v2.4593c0 0.6523 -0.2591 1.2778 -0.7203 1.739 -0.4612 0.4612 -1.0868 0.7203 -1.739 0.7203h-1.2297v2.4594" stroke-width="1"></path><path stroke="#000000" stroke-linejoin="round" d="M6.07736 8.30285c0.08177 -0.18567 0.13048 -0.37751 0.1487 -0.56888l1.96942 0.86731 0.84563 -1.92021c-0.05543 -0.01749 -0.11047 -0.03818 -0.16489 -0.06215 -0.80639 -0.35512 -1.17279 -1.2954 -0.81838 -2.10017 0.35441 -0.80477 1.29542 -1.16929 2.10176 -0.81417 0.0545 0.02397 0.1069 0.05061 0.1572 0.07968l0.9124 -2.07185C6.65739 -0.200181 2.54001 1.68413 1.37012 5.59549l1.6777 0.73884c-0.12887 0.14264 -0.2375 0.30809 -0.31927 0.49376 -0.40902 0.9288 0.00905 2.01187 0.9338 2.41911 0.92475 0.40725 2.00598 -0.01555 2.41501 -0.94435Z" stroke-width="1"></path></svg>