<svg xmlns="http://www.w3.org/2000/svg" fill="none" viewBox="0 0 24 24" id="Bipolar-Disorder-Symptoms-3--Streamline-Ultimate"><desc>Bipolar Disorder Symptoms 3 Streamline Icon: https://streamlinehq.com</desc><path stroke="#000000" stroke-linecap="round" stroke-linejoin="round" d="M4.67536 23.25v-6.265c-1.38177 -1.2801 -2.34542 -2.9471 -2.76512 -4.7833 -0.41969 -1.8362 -0.27593 -3.75636 0.41253 -5.50962 0.68845 -1.75326 1.88959 -3.25818 3.44657 -4.31823C7.32632 1.3138 9.16677 0.747884 11.0504 0.750006c7.139 0 8.68 5.878004 11.225 12.479994 0.0436 0.1137 0.0589 0.2362 0.0446 0.3571 -0.0143 0.1209 -0.0577 0.2365 -0.1266 0.3369 -0.0689 0.1003 -0.1611 0.1824 -0.2688 0.2392 -0.1077 0.0568 -0.2275 0.0866 -0.3492 0.0868h-1.9v3c0 0.7957 -0.3161 1.5587 -0.8787 2.1213 -0.5626 0.5626 -1.3257 0.8787 -2.1213 0.8787h-1.5v3" stroke-width="1"></path><path stroke="#000000" stroke-linecap="round" stroke-linejoin="round" d="M12.2949 6.04571c0.3927 -0.00297 0.7782 0.10493 1.1123 0.31129 0.3341 0.20636 0.6031 0.50281 0.7763 0.85526 0.1863 -0.04637 0.3777 -0.06981 0.5697 -0.06979 0.5918 -0.00996 1.1634 0.21552 1.589 0.62685 0.4256 0.41134 0.6704 0.97486 0.6806 1.56666 -0.0101 0.59189 -0.2549 1.15552 -0.6805 1.56692s-0.9972 0.637 -1.5891 0.627l-4.3498 -0.0008c-0.49311 0.008 -0.96923 -0.18 -1.32381 -0.5228" stroke-width="1"></path><path stroke="#000000" stroke-linecap="round" stroke-linejoin="round" d="m9.89502 13.5488 -0.31834 1.1211" stroke-width="1"></path><path stroke="#000000" stroke-linecap="round" stroke-linejoin="round" d="m12.6631 13.5488 -0.3184 1.1211" stroke-width="1"></path><path stroke="#000000" stroke-linecap="round" stroke-linejoin="round" d="m15.4312 13.5488 -0.3184 1.1211" stroke-width="1"></path><path stroke="#000000" d="M5.849 6.765a2.023 2.023 0 1 0 4.046 0 2.023 2.023 0 1 0 -4.046 0" stroke-width="1"></path></svg>