<svg xmlns="http://www.w3.org/2000/svg" fill="none" viewBox="0 0 24 24" id="Bipolar-Disorder-Symptoms-2--Streamline-Ultimate"><desc>Bipolar Disorder Symptoms 2 Streamline Icon: https://streamlinehq.com</desc><path stroke="#000000" stroke-linecap="round" stroke-linejoin="round" d="M9.0459 5.26595c0.48039 -1.22339 1.3185 -2.27349 2.405 -3.01317 1.0864 -0.73968 2.3706 -1.13457 3.6849 -1.13309 4.9815 0 6.0568 4.10155 7.8326 8.7083 0.0304 0.0793 0.0411 0.16481 0.0312 0.24921 -0.01 0.0843 -0.0403 0.165 -0.0884 0.235 -0.048 0.07 -0.1124 0.1273 -0.1875 0.167 -0.0752 0.0396 -0.1588 0.0604 -0.2437 0.0605h-1.3258v2.0934c0 0.5552 -0.2206 1.0876 -0.6131 1.4802 -0.3926 0.3926 -0.9251 0.6131 -1.4803 0.6131h-1.0466v2.0933" stroke-width="1"></path><path stroke="#000000" stroke-linecap="round" stroke-linejoin="round" d="M13.3838 23.1689v-4.3716c0.9642 -0.8932 1.6366 -2.0564 1.9295 -3.3377 0.2928 -1.2813 0.1925 -2.6211 -0.2879 -3.8445 -0.4804 -1.2234 -1.3185 -2.27352 -2.4049 -3.0132 -1.0865 -0.73968 -2.3707 -1.13457 -3.68503 -1.13308 -4.98145 0 -6.05673 4.10158 -7.83258 8.70828 -0.03043 0.0793 -0.04112 0.1648 -0.03116 0.2492 0.00997 0.0843 0.04028 0.165 0.08835 0.235 0.04806 0.0701 0.11243 0.1274 0.18755 0.167 0.07513 0.0396 0.15876 0.0604 0.2437 0.0605h1.32578v2.0934c0 0.5552 0.22055 1.0876 0.61313 1.4802 0.39258 0.3926 0.92503 0.6131 1.48021 0.6131h1.04667v2.0934" stroke-width="1"></path><path stroke="#000000" stroke-linecap="round" d="M21.1411 12.3168c-1.1478 0.0158 -2.3014 -0.3551 -3.1772 -1.1125" stroke-width="1"></path><path stroke="#000000" stroke-linecap="round" d="M2.92188 17.9246c1.20036 -0.0158 2.09868 0.1272 3.20187 0.6678" stroke-width="1"></path><path stroke="#000000" stroke-linecap="round" stroke-linejoin="round" d="M17.5718 7.16325c-0.2079 0 -0.3765 -0.16857 -0.3765 -0.37651 0 -0.20795 0.1686 -0.37652 0.3765 -0.37652" stroke-width="1"></path><path stroke="#000000" stroke-linecap="round" stroke-linejoin="round" d="M17.5717 7.16325c0.208 0 0.3765 -0.16857 0.3765 -0.37651 0 -0.20795 -0.1685 -0.37652 -0.3765 -0.37652" stroke-width="1"></path><path stroke="#000000" stroke-linecap="round" stroke-linejoin="round" d="M6.49995 13.5124c0.20794 0 0.37651 -0.1685 0.37651 -0.3765 0 -0.2079 -0.16857 -0.3765 -0.37651 -0.3765" stroke-width="1"></path><path stroke="#000000" stroke-linecap="round" stroke-linejoin="round" d="M6.50005 13.5124c-0.20794 0 -0.37651 -0.1685 -0.37651 -0.3765 0 -0.2079 0.16857 -0.3765 0.37651 -0.3765" stroke-width="1"></path></svg>