<svg xmlns="http://www.w3.org/2000/svg" fill="none" viewBox="0 0 24 24" id="Dementia-Disorder-Symptoms-2--Streamline-Ultimate"><desc>Dementia Disorder Symptoms 2 Streamline Icon: https://streamlinehq.com</desc><path stroke="#000000" stroke-linecap="round" stroke-linejoin="round" d="M4.67536 23.25v-6.265c-1.38177 -1.2801 -2.34542 -2.9471 -2.76512 -4.7833 -0.41969 -1.8362 -0.27593 -3.75636 0.41253 -5.50962 0.68845 -1.75326 1.88959 -3.25818 3.44657 -4.31823C7.32632 1.3138 9.16677 0.747884 11.0504 0.750006c7.139 0 8.68 5.878004 11.225 12.479994 0.0436 0.1137 0.0589 0.2362 0.0446 0.3571 -0.0143 0.1209 -0.0577 0.2365 -0.1266 0.3369 -0.0689 0.1003 -0.1611 0.1824 -0.2688 0.2392 -0.1077 0.0568 -0.2275 0.0866 -0.3492 0.0868h-1.9v3c0 0.7957 -0.3161 1.5587 -0.8787 2.1213 -0.5626 0.5626 -1.3257 0.8787 -2.1213 0.8787h-1.5v3" stroke-width="1"></path><path stroke="#000000" stroke-linecap="round" stroke-linejoin="round" d="M4.63151 9.94384c-0.00661 0.59236 0.26823 1.04916 0.68544 1.33706m3.48119 -7.10243c-0.30936 0.12408 -0.60365 0.26969 -0.88183 0.4344m-0.2936 6.93243 1.38109 -0.5233M6.10059 6.28619c-0.3266 0.45168 -0.64919 0.90374 -0.84765 1.42186" stroke-width="1"></path><path stroke="#000000" stroke-linecap="round" stroke-linejoin="round" d="M8.79821 4.17837c2.46609 -0.98914 5.18489 -0.32797 6.93349 1.46071 0.9652 0.98731 0.3162 2.49886 -0.9652 3.01286 -1.1979 0.48048 -2.4351 0.9767 -3.6408 1.46026" stroke-width="1"></path></svg>