<svg xmlns="http://www.w3.org/2000/svg" fill="none" viewBox="0 0 24 24" id="Depression-Disorder-Symptoms-2--Streamline-Ultimate"><desc>Depression Disorder Symptoms 2 Streamline Icon: https://streamlinehq.com</desc><path stroke="#000000" stroke-linecap="round" stroke-linejoin="round" d="M7.02387 23.1074v-4.2563c-0.93875 -0.8697 -1.59343 -2.0022 -1.87857 -3.2497 -0.28513 -1.2475 -0.18746 -2.552 0.28026 -3.7432m8.73184 11.2492v-2.0382h1.019c0.5406 0 1.059 -0.2147 1.4412 -0.5969 0.3822 -0.3822 0.597 -0.9007 0.597 -1.4412V16.993h1.2908c0.0827 -0.0002 0.1641 -0.0204 0.2373 -0.059 0.0731 -0.0386 0.1358 -0.0944 0.1826 -0.1626 0.0468 -0.0681 0.0763 -0.1467 0.086 -0.2288 0.0097 -0.0821 -0.0007 -0.1654 -0.0303 -0.2426 -0.6665 -1.7288 -1.2316 -3.3845 -1.9522 -4.7667" stroke-width="1"></path><path stroke="#000000" stroke-linecap="round" stroke-linejoin="round" d="M14.2792 8.91104c0.8654 0.01455 1.7011 -0.31519 2.3234 -0.91671 0.6222 -0.60152 0.9801 -1.42556 0.9949 -2.29091 -0.0149 -0.86525 -0.3729 -1.68914 -0.9951 -2.29053 -0.6223 -0.60138 -1.4579 -0.93104 -2.3232 -0.91648 -0.2808 -0.00002 -0.5605 0.03424 -0.833 0.10204 -0.2531 -0.5153 -0.6465 -0.94872 -1.1349 -1.25043 -0.4884 -0.3017 -1.0521 -0.459452 -1.6262 -0.45511 -0.749 -0.011128 -1.47511 0.25814 -2.03575 0.75494 -0.56064 0.4968 -0.91532 1.18524 -0.99439 1.93014 -0.67308 0.05214 -1.30247 0.35365 -1.76491 0.84549 -0.46245 0.49184 -0.72465 1.13859 -0.73526 1.81361 0.01268 0.72091 0.31099 1.40732 0.82939 1.90845 0.51841 0.50113 1.21453 0.77601 1.93546 0.76426l6.35956 0.00124Z" stroke-width="1"></path><path stroke="#000000" stroke-linecap="round" stroke-linejoin="round" d="m8.40771 11.5333 0 1.7554" stroke-width="1"></path><path stroke="#000000" stroke-linecap="round" stroke-linejoin="round" d="m11.4204 11.5333 0 1.7554" stroke-width="1"></path><path stroke="#000000" stroke-linecap="round" stroke-linejoin="round" d="m14.3452 11.5333 0 1.7554" stroke-width="1"></path></svg>