<svg xmlns="http://www.w3.org/2000/svg" fill="none" viewBox="0 0 24 24" id="Personality-Disorder-Symptoms-2--Streamline-Ultimate"><desc>Personality Disorder Symptoms 2 Streamline Icon: https://streamlinehq.com</desc><path stroke="#000000" stroke-linecap="round" stroke-linejoin="round" d="M4.67536 23.25v-6.265c-1.38177 -1.2801 -2.34542 -2.9471 -2.76512 -4.7833 -0.41969 -1.8362 -0.27593 -3.75636 0.41253 -5.50962 0.68845 -1.75326 1.88959 -3.25818 3.44657 -4.31823C7.32632 1.3138 9.16677 0.747884 11.0504 0.750006c7.139 0 8.68 5.878004 11.225 12.479994 0.0436 0.1137 0.0589 0.2362 0.0446 0.3571 -0.0143 0.1209 -0.0577 0.2365 -0.1266 0.3369 -0.0689 0.1003 -0.1611 0.1824 -0.2688 0.2392 -0.1077 0.0568 -0.2275 0.0866 -0.3492 0.0868h-1.9v3c0 0.7957 -0.3161 1.5587 -0.8787 2.1213 -0.5626 0.5626 -1.3257 0.8787 -2.1213 0.8787h-1.5v3" stroke-width="1"></path><path stroke="#000000" stroke-linecap="round" stroke-linejoin="round" d="M6.83085 14.2908c-0.8701 -0.8061 -1.47691 -1.8558 -1.74119 -3.0121 -0.26428 -1.1562 -0.17375 -2.36533 0.25977 -3.46936 0.43351 -1.10402 1.18987 -2.05167 2.1703 -2.71918 0.98043 -0.66751 2.13936 -1.02387 3.32547 -1.02253 4.4954 0 5.4658 3.70137 7.0683 7.85867 0.0275 0.0715 0.0372 0.1487 0.0282 0.2248 -0.009 0.0762 -0.0364 0.1489 -0.0798 0.2121 -0.0433 0.0632 -0.1014 0.115 -0.1692 0.1507 -0.0678 0.0358 -0.1433 0.0545 -0.2199 0.0547h-1.1965v1.8891c0 0.501 -0.199 0.9815 -0.5533 1.3358 -0.3542 0.3542 -0.8347 0.5533 -1.3358 0.5533h-0.9445" stroke-width="1"></path><path stroke="#000000" stroke-linecap="round" stroke-linejoin="round" d="M9.06699 11.8819c-0.38612 -0.3577 -0.6554 -0.8235 -0.77268 -1.3366 -0.11728 -0.5132 -0.07711 -1.04971 0.11527 -1.53964s0.52803 -0.91046 0.96311 -1.20668c0.43508 -0.29622 0.94941 -0.45436 1.47571 -0.45376 1.9949 0 2.4255 1.64254 3.1367 3.48738 0.0122 0.0318 0.0165 0.066 0.0125 0.0998s-0.0161 0.0661 -0.0354 0.0941c-0.0192 0.0281 -0.045 0.051 -0.0751 0.0669 -0.0301 0.0159 -0.0636 0.0242 -0.0976 0.0242h-0.5309v0.8384c0 0.2223 -0.0884 0.4355 -0.2456 0.5927s-0.3704 0.2456 -0.5927 0.2456h-0.4192" stroke-width="1"></path></svg>