<svg xmlns="http://www.w3.org/2000/svg" fill="none" viewBox="0 0 24 24" id="Personality-Disorder-Symptoms-3--Streamline-Ultimate"><desc>Personality Disorder Symptoms 3 Streamline Icon: https://streamlinehq.com</desc><path stroke="#000000" stroke-linecap="round" stroke-linejoin="round" d="M11.1909 0.75c7.139 0 8.68 5.878 11.225 12.48 0.0436 0.1137 0.0589 0.2362 0.0447 0.3571 -0.0143 0.1209 -0.0578 0.2365 -0.1266 0.3368 -0.0689 0.1004 -0.1612 0.1825 -0.2688 0.2393 -0.1077 0.0568 -0.2276 0.0866 -0.3493 0.0868h-1.9v3c0 0.7956 -0.3161 1.5587 -0.8787 2.1213 -0.5626 0.5626 -1.3256 0.8787 -2.1213 0.8787h-1.5v3" stroke-width="1"></path><path stroke="#000000" stroke-linecap="round" stroke-linejoin="round" d="M5.98682 2.76422c5.86078 0 7.12588 4.8256 9.21528 10.24558 0.0358 0.0933 0.0484 0.1939 0.0366 0.2932 -0.0117 0.0992 -0.0473 0.1941 -0.1039 0.2765 -0.0565 0.0824 -0.1323 0.1498 -0.2207 0.1964 -0.0883 0.0467 -0.1867 0.0711 -0.2867 0.0713h-1.5598v2.4629c0 0.6532 -0.2595 1.2796 -0.7214 1.7415 -0.4618 0.4619 -1.0883 0.7213 -1.7415 0.7213H9.37328v2.4629" stroke-width="1"></path><path stroke="#000000" stroke-linecap="round" stroke-linejoin="round" d="M1.53418 4.9455c4.47664 0 5.44296 3.6859 7.03885 7.8258 0.02734 0.0713 0.03695 0.1481 0.02799 0.2239 -0.00895 0.0758 -0.0362 0.1483 -0.07939 0.2113 -0.04319 0.0629 -0.10103 0.1144 -0.16855 0.15 -0.06751 0.0356 -0.14267 0.0543 -0.219 0.0544H6.94265v1.8812c0 0.499 -0.1982 0.9774 -0.55099 1.3302 -0.3528 0.3528 -0.83129 0.551 -1.33022 0.551h-0.9406v1.8812" stroke-width="1"></path></svg>