<svg xmlns="http://www.w3.org/2000/svg" fill="none" viewBox="0 0 24 24" id="Personality-Disorder-Symptoms-1--Streamline-Ultimate"><desc>Personality Disorder Symptoms 1 Streamline Icon: https://streamlinehq.com</desc><path stroke="#000000" stroke-linecap="round" stroke-linejoin="round" d="M4.67536 23.25v-6.265c-1.38177 -1.2801 -2.34542 -2.9471 -2.76512 -4.7833 -0.41969 -1.8362 -0.27593 -3.75636 0.41253 -5.50962 0.68845 -1.75326 1.88959 -3.25818 3.44657 -4.31823C7.32632 1.3138 9.16677 0.747884 11.0504 0.750006c7.139 0 8.68 5.878004 11.225 12.479994 0.0436 0.1137 0.0589 0.2362 0.0446 0.3571 -0.0143 0.1209 -0.0577 0.2365 -0.1266 0.3369 -0.0689 0.1003 -0.1611 0.1824 -0.2688 0.2392 -0.1077 0.0568 -0.2275 0.0866 -0.3492 0.0868h-1.9v3c0 0.7957 -0.3161 1.5587 -0.8787 2.1213 -0.5626 0.5626 -1.3257 0.8787 -2.1213 0.8787h-1.5v3" stroke-width="1"></path><path stroke="#000000" stroke-linecap="round" stroke-linejoin="round" d="M7.75685 16.9665v-3.4953c-0.69549 -0.6443 -1.18052 -1.4833 -1.39177 -2.4075 -0.21124 -0.9243 -0.13888 -1.89073 0.20764 -2.7732 0.34652 -0.88246 0.95109 -1.63993 1.73476 -2.17349 0.78368 -0.53355 1.71002 -0.81839 2.65812 -0.81732 3.5932 0 4.3689 2.95856 5.6498 6.28151 0.022 0.0572 0.0297 0.1189 0.0225 0.1798 -0.0072 0.0608 -0.029 0.119 -0.0637 0.1695 -0.0347 0.0505 -0.0811 0.0919 -0.1353 0.1205 -0.0542 0.0285 -0.1145 0.0435 -0.1758 0.0436h-0.9563v1.51c0 0.4005 -0.1591 0.7846 -0.4423 1.0677 -0.2832 0.2832 -0.6672 0.4423 -1.0677 0.4423h-0.755v1.8519" stroke-width="1"></path></svg>