<svg xmlns="http://www.w3.org/2000/svg" fill="none" viewBox="0 0 24 24" id="Ptsd-Disorder-Symptoms-4--Streamline-Ultimate"><desc>Ptsd Disorder Symptoms 4 Streamline Icon: https://streamlinehq.com</desc><path stroke="#000000" stroke-linecap="round" stroke-linejoin="round" d="M4.67536 23.25v-6.265c-1.38177 -1.2801 -2.34542 -2.9471 -2.76512 -4.7833 -0.41969 -1.8362 -0.27593 -3.75636 0.41253 -5.50962 0.27463 -0.6994 0.63085 -1.35928 1.05869 -1.96717l3.82468 0.55113L6.0838 8.91681l6.0687 3.17119 -2.16949 -3.84783 1.71249 -4.38759L10.0429 0.803208c0.3335 -0.035707 0.6698 -0.053582 1.0075 -0.053202 7.139 0 8.68 5.878004 11.225 12.479994 0.0436 0.1137 0.0589 0.2362 0.0446 0.3571 -0.0143 0.1209 -0.0577 0.2365 -0.1266 0.3369 -0.0689 0.1003 -0.1611 0.1824 -0.2688 0.2392 -0.1077 0.0568 -0.2275 0.0866 -0.3492 0.0868h-1.9v3c0 0.7957 -0.3161 1.5587 -0.8787 2.1213 -0.5626 0.5626 -1.3257 0.8787 -2.1213 0.8787h-1.5v3" stroke-width="1"></path></svg>