<svg xmlns="http://www.w3.org/2000/svg" viewBox="0 0 24 24" id="Cannabis-Forbidden--Streamline-Ultimate"><desc>Cannabis Forbidden Streamline Icon: https://streamlinehq.com</desc><defs></defs><title>cannabis-forbidden</title><path d="M13.23 14.434c1.167 1.38 4.521 2.047 5.12 1.058 -0.183 -0.975 -1.69 -2.5 -2.143 -2.888 3.281 -1.75 3.585 -3.57 3.619 -4.185 -2.719 0.143 -5.069 0.3 -6.507 2.245A5.744 5.744 0 0 0 12 3.634a5.744 5.744 0 0 0 -1.319 7.03C9.243 8.72 6.893 8.562 4.174 8.419c0.034 0.615 0.338 2.435 3.619 4.185a7.4 7.4 0 0 0 -2.143 2.888c0.6 0.989 3.953 0.322 5.12 -1.058" fill="none" stroke="#000000" stroke-linecap="round" stroke-linejoin="round" stroke-width="1"></path><path d="m11.953 16.55 0 3.084" fill="none" stroke="#000000" stroke-linecap="round" stroke-linejoin="round" stroke-width="1"></path><path d="M0.75 12a11.25 11.25 0 1 0 22.5 0 11.25 11.25 0 1 0 -22.5 0" fill="none" stroke="#000000" stroke-linecap="round" stroke-linejoin="round" stroke-width="1"></path><path d="m18 18 1.955 1.955" fill="none" stroke="#000000" stroke-linecap="round" stroke-linejoin="round" stroke-width="1"></path><path d="M4.045 4.045 6 6" fill="none" stroke="#000000" stroke-linecap="round" stroke-linejoin="round" stroke-width="1"></path></svg>