<svg xmlns="http://www.w3.org/2000/svg" viewBox="0 0 24 24" id="Cannabis-Greenhouse-2--Streamline-Ultimate"><desc>Cannabis Greenhouse 2 Streamline Icon: https://streamlinehq.com</desc><defs></defs><title>cannabis-greenhouse-2</title><path d="M22.83 8.462a1 1 0 0 1 0.42 0.815v12.984a1 1 0 0 1 -1 1H1.75a1 1 0 0 1 -1 -1V9.277a1 1 0 0 1 0.42 -0.815L11.42 0.924a1 1 0 0 1 1.16 0Z" fill="none" stroke="#000000" stroke-linecap="round" stroke-linejoin="round" stroke-width="1"></path><path d="M12.076 16.742c-1.094 1.294 -5.021 2.247 -5.583 1.32A6.3 6.3 0 0 1 8.457 15.1C5.381 13.46 5.141 12 5.11 11.428a5.659 5.659 0 0 1 4.87 0.628 6.4 6.4 0 0 1 2.141 -5.114 6.4 6.4 0 0 1 2.14 5.114 4.811 4.811 0 0 1 4.544 -0.628c-0.031 0.576 -0.271 2.032 -3.348 3.672a6.3 6.3 0 0 1 1.964 2.959c-0.561 0.927 -4.25 -0.026 -5.345 -1.32" fill="none" stroke="#000000" stroke-linecap="round" stroke-linejoin="round" stroke-width="1"></path><path d="m12.076 16.742 0 3.519" fill="none" stroke="#000000" stroke-linecap="round" stroke-linejoin="round" stroke-width="1"></path></svg>