<svg xmlns="http://www.w3.org/2000/svg" viewBox="0 0 24 24" id="Cannabis-Tree--Streamline-Ultimate"><desc>Cannabis Tree Streamline Icon: https://streamlinehq.com</desc><defs></defs><title>cannabis-tree</title><path d="M16.552 9.829c-1.083 1.115 -4.737 1.74 -5.192 0.856A5.774 5.774 0 0 1 13.343 8.1C10.631 6.406 10.5 5.06 10.51 4.53a5.193 5.193 0 0 1 4.418 0.881 5.871 5.871 0 0 1 2.28 -4.545 5.867 5.867 0 0 1 1.637 4.815 4.416 4.416 0 0 1 4.2 -0.29c-0.066 0.526 -0.376 1.843 -3.3 3.15a5.78 5.78 0 0 1 1.611 2.831c-0.572 0.814 -3.888 -0.291 -4.808 -1.543" fill="none" stroke="#000000" stroke-linecap="round" stroke-linejoin="round" stroke-width="1"></path><path d="M16.552 9.828c-0.922 4.044 -0.54 8.69 0.25 13.306" fill="none" stroke="#000000" stroke-linecap="round" stroke-linejoin="round" stroke-width="1"></path><path d="M7.764 19.771c-0.734 1.281 -3.948 2.718 -4.576 2.012A5.494 5.494 0 0 1 4.4 18.937c-2.895 -0.92 -3.33 -2.129 -3.448 -2.618a4.931 4.931 0 0 1 4.273 -0.23 5.574 5.574 0 0 1 1.028 -4.72A5.574 5.574 0 0 1 8.9 15.414a4.193 4.193 0 0 1 3.8 -1.256c0.064 0.5 0.088 1.784 -2.289 3.675a5.488 5.488 0 0 1 2.149 2.226c-0.334 0.883 -3.646 0.648 -4.788 -0.288" fill="none" stroke="#000000" stroke-linecap="round" stroke-linejoin="round" stroke-width="1"></path><path d="M7.764 19.771a10.125 10.125 0 0 0 1.12 3.363" fill="none" stroke="#000000" stroke-linecap="round" stroke-linejoin="round" stroke-width="1"></path></svg>