<svg xmlns="http://www.w3.org/2000/svg" fill="none" viewBox="0 0 24 24" id="Cannabis-4--Streamline-Ultimate"><desc>Cannabis 4 Streamline Icon: https://streamlinehq.com</desc><path stroke="#000000" stroke-linecap="round" stroke-linejoin="round" d="M11.2667 1c-1.1482 1.00509 -1.92136 2.37 -2.19311 3.87154 -0.27174 1.50154 -0.02599 3.05085 0.69708 4.39459 -0.48055 -0.6507 -0.99731 -1.27388 -1.54783 -1.86657 -1.3711 -1.3959 -3.21557 -2.22725 -5.16951 -2.33005C3.15912 7.01304 3.99768 8.84423 5.4 10.194c0.55322 0.5352 1.17853 0.9903 1.85778 1.3523 -0.58306 -0.1974 -1.19337 -0.3027 -1.80889 -0.3119 -0.83868 -0.0011 -1.66819 0.1743 -2.43466 0.5148 -0.76646 0.3404 -1.45274 0.8383 -2.01423 1.4613 0.5619 0.6223 1.2483 1.1196 2.0147 1.4597 0.76641 0.3401 1.59572 0.5154 2.43419 0.5144 0.89685 -0.0961 1.77815 -0.304 2.62338 -0.6189 0 0 -0.78223 0.7587 -1.14694 1.1244 -0.38733 0.3818 -0.68883 0.8418 -0.88441 1.3493 -0.19557 0.5075 -0.28074 1.0508 -0.24981 1.5938 1.44634 0.1865 2.91135 -0.1559 4.12525 -0.964" stroke-width="1"></path><path stroke="#000000" stroke-linecap="round" stroke-linejoin="round" d="M11.2667 1c1.1481 1.00509 1.9213 2.37 2.193 3.87154 0.2718 1.50154 0.026 3.05085 -0.697 4.39459 0.4805 -0.6507 0.9973 -1.27388 1.5478 -1.86657 1.3711 -1.3959 3.2156 -2.22725 5.1695 -2.33005 -0.1058 1.94353 -0.9443 3.77472 -2.3467 5.12449 -0.5532 0.5352 -1.1785 0.9903 -1.8577 1.3523 0.584 -0.1977 1.1953 -0.303 1.8118 -0.3119 0.8382 -0.0006 1.6671 0.1749 2.433 0.5154 0.766 0.3404 1.4518 0.8381 2.0129 1.4607 -0.3458 0.3845 -0.7403 0.7224 -1.1733 1.0051" stroke-width="1"></path><path stroke="#000000" stroke-linecap="round" stroke-linejoin="round" d="m23 22.9687 -5.0844 -6.2578c-0.1834 -0.2259 -0.4149 -0.4081 -0.6776 -0.5332 -0.2626 -0.1252 -0.55 -0.1901 -0.8409 -0.1901 -0.291 0 -0.5783 0.0649 -0.841 0.1901 -0.2627 0.1251 -0.4942 0.3073 -0.6775 0.5332l-5.08447 6.2578" stroke-width="1"></path><path stroke="#000000" d="M14.6772 21.9753c-0.135 0 -0.2445 -0.1095 -0.2445 -0.2445s0.1095 -0.2444 0.2445 -0.2444" stroke-width="1"></path><path stroke="#000000" d="M14.6772 21.9753c0.135 0 0.2444 -0.1095 0.2444 -0.2445s-0.1094 -0.2444 -0.2444 -0.2444" stroke-width="1"></path><path stroke="#000000" d="M16.8772 19.4782c-0.135 0 -0.2445 -0.1095 -0.2445 -0.2445s0.1095 -0.2444 0.2445 -0.2444" stroke-width="1"></path><path stroke="#000000" d="M16.8772 19.4782c0.135 0 0.2444 -0.1095 0.2444 -0.2445s-0.1094 -0.2444 -0.2444 -0.2444" stroke-width="1"></path><path stroke="#000000" d="M19.0772 22.9531c-0.135 0 -0.2445 -0.1095 -0.2445 -0.2445s0.1095 -0.2444 0.2445 -0.2444" stroke-width="1"></path><path stroke="#000000" d="M19.0772 22.9531c0.135 0 0.2444 -0.1095 0.2444 -0.2445s-0.1094 -0.2444 -0.2444 -0.2444" stroke-width="1"></path></svg>