<svg xmlns="http://www.w3.org/2000/svg" viewBox="0 0 24 24" id="Cannabis-Greenhouse-1--Streamline-Ultimate"><desc>Cannabis Greenhouse 1 Streamline Icon: https://streamlinehq.com</desc><defs></defs><title>cannabis-greenhouse-1</title><path d="M11.75 10.75v-5l-5.5 -5 -5.5 5v8.5a1 1 0 0 0 1 1h4.5" fill="none" stroke="#000000" stroke-linecap="round" stroke-linejoin="round" stroke-width="1"></path><path d="m23.25 9.25 0 -3.5 -5.5 -5 -11.5 0" fill="none" stroke="#000000" stroke-linecap="round" stroke-linejoin="round" stroke-width="1"></path><path d="m17.75 7.75 0 -2 -5.5 -5" fill="none" stroke="#000000" stroke-linecap="round" stroke-linejoin="round" stroke-width="1"></path><path d="m7.75 11.75 0 -2 -4 0 0 5.5" fill="none" stroke="#000000" stroke-linecap="round" stroke-linejoin="round" stroke-width="1"></path><path d="m23.25 5.75 -11.5 0" fill="none" stroke="#000000" stroke-linecap="round" stroke-linejoin="round" stroke-width="1"></path><path d="M16.521 19.73c-1.094 1.294 -5.021 2.248 -5.583 1.32a6.3 6.3 0 0 1 1.962 -2.959c-3.076 -1.64 -3.316 -3.1 -3.347 -3.672a5.662 5.662 0 0 1 4.87 0.629 6.4 6.4 0 0 1 2.141 -5.114 6.4 6.4 0 0 1 2.14 5.114 4.813 4.813 0 0 1 4.544 -0.629c-0.031 0.577 -0.271 2.032 -3.348 3.672a6.3 6.3 0 0 1 1.964 2.959c-0.561 0.928 -4.25 -0.026 -5.345 -1.32" fill="none" stroke="#000000" stroke-linecap="round" stroke-linejoin="round" stroke-width="1"></path><path d="m16.521 19.73 0 3.52" fill="none" stroke="#000000" stroke-linecap="round" stroke-linejoin="round" stroke-width="1"></path></svg>