<svg xmlns="http://www.w3.org/2000/svg" viewBox="0 0 24 24" id="Cannabis-Industry-2--Streamline-Ultimate"><desc>Cannabis Industry 2 Streamline Icon: https://streamlinehq.com</desc><defs></defs><title>cannabis-industry-2</title><path d="M10.546 2.438a1.959 1.959 0 0 0 2.908 0l0.94 -1.042a1.959 1.959 0 0 1 3.411 1.413l-0.072 1.4a1.961 1.961 0 0 0 2.057 2.058l1.4 -0.072a1.959 1.959 0 0 1 1.41 3.411l-1.042 0.94a1.959 1.959 0 0 0 0 2.908l1.042 0.94a1.959 1.959 0 0 1 -1.413 3.411l-1.4 -0.072a1.96 1.96 0 0 0 -2.057 2.057l0.072 1.4a1.959 1.959 0 0 1 -3.408 1.41l-0.94 -1.042a1.959 1.959 0 0 0 -2.908 0l-0.94 1.042A1.959 1.959 0 0 1 6.2 21.191l0.072 -1.4a1.958 1.958 0 0 0 -2.062 -2.058l-1.4 0.072a1.959 1.959 0 0 1 -1.41 -3.411l1.042 -0.94a1.959 1.959 0 0 0 0 -2.908L1.4 9.606A1.959 1.959 0 0 1 2.809 6.2l1.4 0.072A1.96 1.96 0 0 0 6.267 4.21L6.2 2.809A1.959 1.959 0 0 1 9.606 1.4Z" fill="none" stroke="#000000" stroke-linecap="round" stroke-linejoin="round" stroke-width="1"></path><path d="M12 14.747c-0.977 1.155 -4.377 2.006 -4.878 1.178a5.614 5.614 0 0 1 1.753 -2.641c-2.747 -1.465 -2.961 -2.764 -2.989 -3.279a5.056 5.056 0 0 1 4.349 0.561A5.711 5.711 0 0 1 12.146 6a5.714 5.714 0 0 1 1.911 4.566 4.3 4.3 0 0 1 4.057 -0.561c-0.028 0.515 -0.242 1.814 -2.989 3.279a5.614 5.614 0 0 1 1.753 2.641c-0.5 0.828 -3.9 -0.023 -4.878 -1.178" fill="none" stroke="#000000" stroke-linecap="round" stroke-linejoin="round" stroke-width="1"></path><path d="m12 14.747 0 3.338" fill="none" stroke="#000000" stroke-linecap="round" stroke-linejoin="round" stroke-width="1"></path></svg>