<svg xmlns="http://www.w3.org/2000/svg" fill="none" viewBox="0 0 24 24" id="Cashless-Payment-Cad-Top-Up-Wallet-Add--Streamline-Ultimate"><desc>Cashless Payment Cad Top Up Wallet Add Streamline Icon: https://streamlinehq.com</desc><path stroke="#000000" stroke-linecap="round" stroke-linejoin="round" d="M18.25 3.81592v3.889" stroke-width="1"></path><path stroke="#000000" stroke-linecap="round" stroke-linejoin="round" d="M20.194 5.76001h-3.888" stroke-width="1"></path><path stroke="#000000" stroke-linecap="round" stroke-linejoin="round" d="M18.25 10.76c2.7614 0 5 -2.23857 5 -4.99999s-2.2386 -5 -5 -5 -5 2.23858 -5 5 2.2386 4.99999 5 4.99999Z" stroke-width="1"></path><path stroke="#000000" stroke-linecap="round" stroke-linejoin="round" d="m2.578 19.2209 6.454 3.765c0.27947 0.1626 0.5968 0.2487 0.92009 0.2497 0.32331 0.0011 0.64121 -0.083 0.92171 -0.2437 0.2805 -0.1608 0.5137 -0.3925 0.6763 -0.6719 0.1626 -0.2795 0.2488 -0.5968 0.2499 -0.9201v-8.5c-0.0003 -0.6433 -0.169 -1.2753 -0.4894 -1.8332 -0.3203 -0.5579 -0.7811 -1.0222 -1.3366 -1.34676l-6.454 -3.765c-0.27989 -0.16323 -0.59788 -0.24975 -0.92189 -0.25083 -0.32401 -0.00107 -0.64257 0.08334 -0.92354 0.24471 -0.28096 0.16138 -0.51439 0.39401 -0.676717 0.67443 -0.162332 0.28041 -0.247825 0.59868 -0.247853 0.92269v8.49296c0.000055 0.6439 0.168864 1.2765 0.4896 1.8349 0.32074 0.5583 0.7822 1.0228 1.3384 1.3471v0Z" stroke-width="1"></path><path stroke="#000000" stroke-linecap="round" stroke-linejoin="round" d="M16.75 13.26v2.5c0 0.5304 -0.2107 1.0392 -0.5858 1.4142 -0.3751 0.3751 -0.8838 0.5858 -1.4142 0.5858h-2.5" stroke-width="1"></path><path stroke="#000000" stroke-linecap="round" stroke-linejoin="round" d="M2.47299 5.7019H10.631" stroke-width="1"></path><path stroke="#000000" d="M8.21701 16.467c-0.27614 0 -0.5 -0.2238 -0.5 -0.5 0 -0.2761 0.22386 -0.5 0.5 -0.5" stroke-width="1"></path><path stroke="#000000" d="M8.21701 16.467c0.27614 0 0.5 -0.2238 0.5 -0.5 0 -0.2761 -0.22386 -0.5 -0.5 -0.5" stroke-width="1"></path></svg>