<svg xmlns="http://www.w3.org/2000/svg" viewBox="0 0 24 24" id="Cashless-Payment-Card-Register-Online-Browser--Streamline-Ultimate"><desc>Cashless Payment Card Register Online Browser Streamline Icon: https://streamlinehq.com</desc><defs></defs><path d="M7.25 23.25h-3.5a3 3 0 0 1 -3 -3V3.75a3 3 0 0 1 3 -3h7.5a3 3 0 0 1 3 3v7.5" fill="none" stroke="#000000" stroke-linecap="round" stroke-linejoin="round" stroke-width="1"></path><path d="m0.75 19.25 6.5 0" fill="none" stroke="#000000" stroke-linecap="round" stroke-linejoin="round" stroke-width="1"></path><path d="M11.75 13.75h9.5s2 0 2 2v5.5s0 2 -2 2h-9.5s-2 0 -2 -2v-5.5s0 -2 2 -2" fill="none" stroke="#000000" stroke-linecap="round" stroke-linejoin="round" stroke-width="1"></path><path d="m9.75 17.557 13.5 0" fill="none" stroke="#000000" stroke-linecap="round" stroke-linejoin="round" stroke-width="1"></path><path d="m7.75 6.694 0 3.112" fill="none" stroke="#000000" stroke-linecap="round" stroke-linejoin="round" stroke-width="1"></path><path d="m9.306 8.25 -3.112 0" fill="none" stroke="#000000" stroke-linecap="round" stroke-linejoin="round" stroke-width="1"></path><path d="M3.75 8.25a4 4 0 1 0 8 0 4 4 0 1 0 -8 0" fill="none" stroke="#000000" stroke-linecap="round" stroke-linejoin="round" stroke-width="1"></path></svg>