<svg xmlns="http://www.w3.org/2000/svg" fill="none" viewBox="0 0 24 24" id="Cashless-Payment-Smart-Watch-Pay-Bus-Circle-Pound--Streamline-Ultimate"><desc>Cashless Payment Smart Watch Pay Bus Circle Pound Streamline Icon: https://streamlinehq.com</desc><path stroke="#000000" stroke-linecap="round" stroke-linejoin="round" d="M22.2065 12.1841h-7.538c-0.5523 0 -1 0.4477 -1 1v7.538c0 0.5523 0.4477 1 1 1h7.538c0.5522 0 1 -0.4477 1 -1v-7.538c0 -0.5523 -0.4478 -1 -1 -1Z" stroke-width="1"></path><path stroke="#000000" stroke-linecap="round" stroke-linejoin="round" d="M15.1354 21.7219v1.467" stroke-width="1"></path><path stroke="#000000" stroke-linecap="round" stroke-linejoin="round" d="M21.7394 21.7219v1.467" stroke-width="1"></path><path stroke="#000000" stroke-linecap="round" stroke-linejoin="round" d="M13.6685 16.5859h9.538" stroke-width="1"></path><path stroke="#000000" stroke-linecap="round" stroke-linejoin="round" d="M16.2365 18.7871c0.0973 0 0.1906 0.0387 0.2595 0.1075 0.0688 0.0688 0.1074 0.1622 0.1074 0.2595" stroke-width="1"></path><path stroke="#000000" stroke-linecap="round" stroke-linejoin="round" d="M15.8694 19.1541c0 -0.0973 0.0387 -0.1907 0.1075 -0.2595s0.1622 -0.1075 0.2595 -0.1075" stroke-width="1"></path><path stroke="#000000" stroke-linecap="round" stroke-linejoin="round" d="M16.2364 19.5211c-0.0973 0 -0.1907 -0.0387 -0.2595 -0.1075 -0.0688 -0.0689 -0.1075 -0.1622 -0.1075 -0.2595" stroke-width="1"></path><path stroke="#000000" stroke-linecap="round" stroke-linejoin="round" d="M16.6034 19.1541c-0.0002 0.0972 -0.039 0.1904 -0.1077 0.2592 -0.0688 0.0687 -0.162 0.1075 -0.2592 0.1078" stroke-width="1"></path><path stroke="#000000" stroke-linecap="round" stroke-linejoin="round" d="M20.6384 18.7871c0.0974 0 0.1907 0.0387 0.2595 0.1075 0.0689 0.0688 0.1075 0.1622 0.1075 0.2595" stroke-width="1"></path><path stroke="#000000" stroke-linecap="round" stroke-linejoin="round" d="M20.2714 19.1541c0 -0.0973 0.0386 -0.1907 0.1075 -0.2595 0.0688 -0.0688 0.1621 -0.1075 0.2595 -0.1075" stroke-width="1"></path><path stroke="#000000" stroke-linecap="round" stroke-linejoin="round" d="M20.6384 19.5211c-0.0974 0 -0.1907 -0.0387 -0.2595 -0.1075 -0.0689 -0.0689 -0.1075 -0.1622 -0.1075 -0.2595" stroke-width="1"></path><path stroke="#000000" stroke-linecap="round" stroke-linejoin="round" d="M21.0054 19.1541c0 0.0973 -0.0386 0.1906 -0.1075 0.2595 -0.0688 0.0688 -0.1621 0.1075 -0.2595 0.1075" stroke-width="1"></path><path stroke="#000000" stroke-linecap="round" stroke-linejoin="round" d="M10.0399 22.822H5.63985c-0.19273 0 -0.38358 -0.0379 -0.56163 -0.1117 -0.17805 -0.0738 -0.33981 -0.182 -0.47605 -0.3183 -0.13623 -0.1363 -0.24427 -0.2982 -0.31794 -0.4763 -0.07366 -0.1781 -0.11151 -0.3689 -0.11138 -0.5617l0 -3.5496" stroke-width="1"></path><path stroke="#000000" stroke-linecap="round" stroke-linejoin="round" d="M11.5059 5.30934v-3.0313c0 -0.19274 -0.038 -0.38358 -0.1118 -0.56163 -0.0738 -0.17805 -0.1819 -0.33982 -0.3182 -0.47605 -0.1364 -0.13624 -0.2982 -0.244278 -0.4763 -0.317943 -0.1781 -0.073665 -0.369 -0.111513 -0.5617 -0.111382h-4.4c-0.38907 0 -0.76221 0.154559 -1.03733 0.429675 -0.27511 0.27512 -0.42967 0.64825 -0.42967 1.03733v3.22811" stroke-width="1"></path><path stroke="#000000" stroke-linecap="round" stroke-linejoin="round" d="M10.0601 18.5935c-1.36309 0.4084 -2.8166 0.4038 -4.17703 -0.0133 -1.36043 -0.4171 -2.56676 -1.228 -3.46668 -2.3302C1.51647 15.1478 0.963324 13.8037 0.8268 12.3873c-0.136523 -1.4164 0.149696 -2.84142 0.82252 -4.09522 0.67282 -1.25381 1.70207 -2.28014 2.95778 -2.9494 1.25572 -0.66926 2.68158 -0.95143 4.09755 -0.81089 1.41595 0.14055 2.75855 0.69751 3.85825 1.60056 1.0996 0.90304 1.907 2.11168 2.3202 3.47328" stroke-width="1"></path><path stroke="#000000" stroke-linecap="round" stroke-linejoin="round" d="M9.43035 9.31895c0 -0.3693 -0.14671 -0.72347 -0.40784 -0.9846 -0.26113 -0.26113 -0.6153 -0.40784 -0.98459 -0.40784 -0.3693 0 -0.72347 0.14671 -0.9846 0.40784 -0.26113 0.26113 -0.40784 0.6153 -0.40784 0.9846v4.17725c0 0.7585 -0.63399 1.3925 -1.39243 1.3925h4.1773" stroke-width="1"></path><path stroke="#000000" stroke-linecap="round" stroke-linejoin="round" d="M5.25305 11.9656h4.1773" stroke-width="1"></path></svg>