<svg xmlns="http://www.w3.org/2000/svg" fill="none" viewBox="0 0 24 24" id="Cashless-Payment-Online-Transfer-Browser-Pound--Streamline-Ultimate"><desc>Cashless Payment Online Transfer Browser Pound Streamline Icon: https://streamlinehq.com</desc><path stroke="#000000" stroke-linecap="round" stroke-linejoin="round" d="M6.77197 12.125h-4c-0.82842 0 -1.5 0.6716 -1.5 1.5v8c0 0.8284 0.67158 1.5 1.5 1.5h4c0.82843 0 1.5 -0.6716 1.5 -1.5v-8c0 -0.8284 -0.67157 -1.5 -1.5 -1.5Z" stroke-width="1"></path><path stroke="#000000" stroke-linecap="round" stroke-linejoin="round" d="M1.27197 20.1211h7" stroke-width="1"></path><path stroke="#000000" stroke-linecap="round" stroke-linejoin="round" d="M12.1841 18.353h9.044c0.3979 0 0.7794 -0.158 1.0607 -0.4393s0.4393 -0.6629 0.4393 -1.0607V2.375c0 -0.39782 -0.158 -0.77936 -0.4393 -1.06066 -0.2813 -0.2813 -0.6628 -0.43934 -1.0607 -0.43934H5.22815c-0.39783 0 -0.77936 0.15804 -1.06066 0.43934 -0.28131 0.2813 -0.43934 0.66284 -0.43934 1.06066v6.44916" stroke-width="1"></path><path stroke="#000000" stroke-linecap="round" stroke-linejoin="round" d="M3.72815 4.77271H22.7281" stroke-width="1"></path><path stroke="#000000" stroke-linecap="round" stroke-linejoin="round" d="M16.1772 9.18278c0 -0.38945 -0.1547 -0.76295 -0.43 -1.03833 -0.2754 -0.27539 -0.6489 -0.43009 -1.0384 -0.43009 -0.3894 0 -0.7629 0.1547 -1.0383 0.43009 -0.2754 0.27538 -0.4301 0.64888 -0.4301 1.03833v4.40532c0 0.7998 -0.6686 1.4684 -1.4684 1.4684h4.4052" stroke-width="1"></path><path stroke="#000000" stroke-linecap="round" stroke-linejoin="round" d="M11.772 11.9739h4.4052" stroke-width="1"></path></svg>