<svg xmlns="http://www.w3.org/2000/svg" fill="none" viewBox="0 0 24 24" id="Cashless-Payment-Online-Transfer-Smartphone-Yuan-1--Streamline-Ultimate"><desc>Cashless Payment Online Transfer Smartphone Yuan 1 Streamline Icon: https://streamlinehq.com</desc><path stroke="#000000" stroke-linecap="round" stroke-linejoin="round" d="M7 0.75H3c-0.82843 0 -1.5 0.67157 -1.5 1.5v8c0 0.8284 0.67157 1.5 1.5 1.5h4c0.82843 0 1.5 -0.6716 1.5 -1.5v-8c0 -0.82843 -0.67157 -1.5 -1.5 -1.5Z" stroke-width="1"></path><path stroke="#000000" stroke-linecap="round" stroke-linejoin="round" d="M1.5 8.65991h7" stroke-width="1"></path><path stroke="#000000" stroke-linecap="round" stroke-linejoin="round" d="M19.9285 12.25H21c0.3978 0 0.7794 0.158 1.0607 0.4393s0.4393 0.6629 0.4393 1.0607v8c0 0.3978 -0.158 0.7794 -0.4393 1.0607S21.3978 23.25 21 23.25h-4c-0.3978 0 -0.7794 -0.158 -1.0607 -0.4393S15.5 22.1478 15.5 21.75v-4.421" stroke-width="1"></path><path stroke="#000000" stroke-linecap="round" stroke-linejoin="round" d="M15.5 20.1599h7" stroke-width="1"></path><path stroke="#000000" stroke-linecap="round" stroke-linejoin="round" d="M10.5 20.7501h-2c-0.79565 0 -1.55871 -0.3161 -2.12132 -0.8787C5.81607 19.3088 5.5 18.5458 5.5 17.7501v-2.9845" stroke-width="1"></path><path stroke="#000000" stroke-linecap="round" stroke-linejoin="round" d="m3.5 16.75 2 -2 2 2" stroke-width="1"></path><path stroke="#000000" stroke-linecap="round" stroke-linejoin="round" d="M13.1088 7.19614V8.727c0 0.24618 0.0485 0.48994 0.1427 0.71738 0.0942 0.22744 0.2323 0.43409 0.4063 0.60812 0.1741 0.1741 0.3808 0.3122 0.6082 0.4064 0.2274 0.0942 0.4712 0.1427 0.7174 0.1427 0.2462 0 0.4899 -0.0485 0.7174 -0.1427 0.2274 -0.0942 0.434 -0.2323 0.6081 -0.4064 0.1741 -0.17403 0.3122 -0.38068 0.4064 -0.60812 0.0942 -0.22744 0.1427 -0.4712 0.1427 -0.71738V7.19614" stroke-width="1"></path><path stroke="#000000" stroke-linecap="round" stroke-linejoin="round" d="M14.9835 10.6016v3.6311" stroke-width="1"></path><path stroke="#000000" stroke-linecap="round" stroke-linejoin="round" d="M13.1088 12.7327h3.7492" stroke-width="1"></path></svg>