<svg xmlns="http://www.w3.org/2000/svg" fill="none" viewBox="0 0 24 24" id="Cashless-Payment-Online-Transfer-Smartphone-2--Streamline-Ultimate"><desc>Cashless Payment Online Transfer Smartphone 2 Streamline Icon: https://streamlinehq.com</desc><path stroke="#000000" stroke-linecap="round" stroke-linejoin="round" d="M20.75 12.25h1c0.3978 0 0.7794 0.158 1.0607 0.4393s0.4393 0.6629 0.4393 1.0607v8c0 0.3978 -0.158 0.7794 -0.4393 1.0607s-0.6629 0.4393 -1.0607 0.4393h-4c-0.3978 0 -0.7794 -0.158 -1.0607 -0.4393s-0.4393 -0.6629 -0.4393 -1.0607v-2" stroke-width="1"></path><path stroke="#000000" stroke-linecap="round" stroke-linejoin="round" d="M3.75 11.75h-1.5c-0.39782 0 -0.77936 -0.158 -1.06066 -0.4393C0.908035 11.0294 0.75 10.6478 0.75 10.25v-8c0 -0.39782 0.158035 -0.77936 0.43934 -1.06066C1.47064 0.908035 1.85218 0.75 2.25 0.75h4c0.39782 0 0.77936 0.158035 1.06066 0.43934 0.2813 0.2813 0.43934 0.66284 0.43934 1.06066v2.5" stroke-width="1"></path><path stroke="#000000" stroke-linecap="round" stroke-linejoin="round" d="M12.25 18.25c3.3137 0 6 -2.6863 6 -6 0 -3.31371 -2.6863 -6 -6 -6 -3.31371 0 -6 2.68629 -6 6 0 3.3137 2.68629 6 6 6Z" stroke-width="1"></path><path stroke="#000000" stroke-linecap="round" stroke-linejoin="round" d="M10.5972 14.2212c0.1924 0.2527 0.4429 0.4553 0.7302 0.5906 0.2873 0.1353 0.603 0.1994 0.9203 0.1867 1.0118 0 1.8326 -0.6156 1.8326 -1.3742s-0.8208 -1.3733 -1.8326 -1.3733 -1.8281 -0.6156 -1.8281 -1.3752c0 -0.7595 0.8208 -1.37418 1.8317 -1.37418 0.3173 -0.01286 0.6331 0.05108 0.9204 0.18641 0.2874 0.13532 0.5378 0.33807 0.7301 0.59087" stroke-width="1"></path><path stroke="#000000" stroke-linecap="round" stroke-linejoin="round" d="M12.2513 14.9985v0.9159" stroke-width="1"></path><path stroke="#000000" stroke-linecap="round" stroke-linejoin="round" d="M12.2513 8.58569v0.91586" stroke-width="1"></path><path stroke="#000000" stroke-linecap="round" stroke-linejoin="round" d="M16.25 20.6687h7" stroke-width="1"></path><path stroke="#000000" stroke-linecap="round" stroke-linejoin="round" d="M0.75 9.04346h3.5" stroke-width="1"></path></svg>