<svg xmlns="http://www.w3.org/2000/svg" fill="none" viewBox="0 0 24 24" id="Cashless-Payment-Online-Statement-Chat-Bubble-Yuan--Streamline-Ultimate"><desc>Cashless Payment Online Statement Chat Bubble Yuan Streamline Icon: https://streamlinehq.com</desc><path stroke="#000000" stroke-linecap="round" stroke-linejoin="round" d="M20.525 12h0.975c0.3978 0 0.7794 0.158 1.0607 0.4393S23 13.1022 23 13.5v8c0 0.3978 -0.158 0.7794 -0.4393 1.0607S21.8978 23 21.5 23h-4c-0.3978 0 -0.7794 -0.158 -1.0607 -0.4393S16 21.8978 16 21.5v-5" stroke-width="1"></path><path stroke="#000000" stroke-linecap="round" stroke-linejoin="round" d="M1 4v6.786c0 0.7956 0.31607 1.5587 0.87868 2.1213 0.56261 0.5626 1.32567 0.8787 2.12132 0.8787h4l5 3.5v-3.5h2c0.7956 0 1.5587 -0.3161 2.1213 -0.8787 0.5626 -0.5626 0.8787 -1.3257 0.8787 -2.1213V4c0 -0.79565 -0.3161 -1.55871 -0.8787 -2.12132C16.5587 1.31607 15.7956 1 15 1H4c-0.79565 0 -1.55871 0.31607 -2.12132 0.87868C1.31607 2.44129 1 3.20435 1 4v0Z" stroke-width="1"></path><path stroke="#000000" stroke-linecap="round" stroke-linejoin="round" d="M11.6771 5h3" stroke-width="1"></path><path stroke="#000000" stroke-linecap="round" stroke-linejoin="round" d="M11.6771 8h3" stroke-width="1"></path><path stroke="#000000" stroke-linecap="round" stroke-linejoin="round" d="M16 20.2859h7" stroke-width="1"></path><path stroke="#000000" stroke-linecap="round" stroke-linejoin="round" d="m4.51172 4.08311 0 1.51822c0 0.24415 0.04809 0.4859 0.14152 0.71146 0.09343 0.22557 0.23037 0.43052 0.40301 0.60315 0.17264 0.17264 0.37759 0.30958 0.60315 0.40302 0.22556 0.09343 0.46732 0.14151 0.71146 0.14151 0.24415 0 0.48591 -0.04808 0.71147 -0.14151 0.22556 -0.09344 0.43051 -0.23038 0.60315 -0.40302 0.17263 -0.17263 0.30958 -0.37758 0.40301 -0.60315 0.09343 -0.22556 0.14152 -0.46731 0.14152 -0.71146V4.08311" stroke-width="1"></path><path stroke="#000000" stroke-linecap="round" stroke-linejoin="round" d="M6.37097 7.46045v3.60115" stroke-width="1"></path><path stroke="#000000" stroke-linecap="round" stroke-linejoin="round" d="M4.51172 9.4751h3.71829" stroke-width="1"></path></svg>