<svg xmlns="http://www.w3.org/2000/svg" fill="none" viewBox="0 0 24 24" id="Cashless-Payment-Online-Statement-Chat-Bubble-Euro--Streamline-Ultimate"><desc>Cashless Payment Online Statement Chat Bubble Euro Streamline Icon: https://streamlinehq.com</desc><path stroke="#000000" stroke-linecap="round" stroke-linejoin="round" d="M20.525 12h0.975c0.3978 0 0.7794 0.158 1.0607 0.4393S23 13.1022 23 13.5v8c0 0.3978 -0.158 0.7794 -0.4393 1.0607S21.8978 23 21.5 23h-4c-0.3978 0 -0.7794 -0.158 -1.0607 -0.4393S16 21.8978 16 21.5v-5" stroke-width="1"></path><path stroke="#000000" stroke-linecap="round" stroke-linejoin="round" d="M1 4v6.786c0 0.7956 0.31607 1.5587 0.87868 2.1213 0.56261 0.5626 1.32567 0.8787 2.12132 0.8787h4l5 3.5v-3.5h2c0.7956 0 1.5587 -0.3161 2.1213 -0.8787 0.5626 -0.5626 0.8787 -1.3257 0.8787 -2.1213V4c0 -0.79565 -0.3161 -1.55871 -0.8787 -2.12132C16.5587 1.31607 15.7956 1 15 1H4c-0.79565 0 -1.55871 0.31607 -2.12132 0.87868C1.31607 2.44129 1 3.20435 1 4v0Z" stroke-width="1"></path><path stroke="#000000" stroke-linecap="round" stroke-linejoin="round" d="M11.6771 5h3" stroke-width="1"></path><path stroke="#000000" stroke-linecap="round" stroke-linejoin="round" d="M11.6771 8h3" stroke-width="1"></path><path stroke="#000000" stroke-linecap="round" stroke-linejoin="round" d="M16 20.2859h7" stroke-width="1"></path><path stroke="#000000" stroke-linecap="round" stroke-linejoin="round" d="M8.60093 4.2522h-0.48899c-0.84318 0 -1.65182 0.33495 -2.24803 0.93116 -0.59622 0.59622 -0.93117 1.40486 -0.93117 2.24804 0 0.84317 0.33495 1.65181 0.93117 2.24803 0.59621 0.59617 1.40485 0.93117 2.24803 0.93117h0.48899" stroke-width="1"></path><path stroke="#000000" stroke-linecap="round" stroke-linejoin="round" d="M3.97437 7.4314h3.87727" stroke-width="1"></path></svg>