<svg xmlns="http://www.w3.org/2000/svg" fill="none" viewBox="0 0 24 24" id="Cashless-Payment-Smart-Watch-Pay-Card-Circle-Dollar--Streamline-Ultimate"><desc>Cashless Payment Smart Watch Pay Card Circle Dollar Streamline Icon: https://streamlinehq.com</desc><path stroke="#000000" stroke-linecap="round" stroke-linejoin="round" d="M11.7686 5.65431V2.37813c0 -0.19273 -0.038 -0.38357 -0.1118 -0.56162 -0.0738 -0.17805 -0.1819 -0.33982 -0.3182 -0.47606 -0.1364 -0.13623 -0.2982 -0.24427 -0.4763 -0.31794 -0.1781 -0.07366 -0.369 -0.111508 -0.5617 -0.111377H5.90059c-0.38907 0 -0.76221 0.154557 -1.03732 0.429677 -0.27512 0.27511 -0.42968 0.64825 -0.42968 1.03732l0 3.27618" stroke-width="1"></path><path stroke="#000000" stroke-linecap="round" stroke-linejoin="round" d="M21.6197 15.136h-7.044c-0.8163 0 -1.478 0.6617 -1.478 1.478v4.9127c0 0.8163 0.6617 1.478 1.478 1.478h7.044c0.8162 0 1.478 -0.6617 1.478 -1.478V16.614c0 -0.8163 -0.6618 -1.478 -1.478 -1.478Z" stroke-width="1"></path><path stroke="#000000" stroke-linecap="round" stroke-linejoin="round" d="M13.0977 18.3069h10" stroke-width="1"></path><path stroke="#000000" stroke-linecap="round" stroke-linejoin="round" d="M10.3 23.0045H5.9002c-0.38897 0 -0.76201 -0.1545 -1.03705 -0.4296 -0.27504 -0.275 -0.42956 -0.648 -0.42956 -1.037V18.1" stroke-width="1"></path><path stroke="#000000" stroke-linecap="round" stroke-linejoin="round" d="M15.3008 11.8792c0 -3.97607 -3.2232 -7.19927 -7.19924 -7.19927 -3.97602 0 -7.199216 3.2232 -7.199216 7.19927 0 3.976 3.223196 7.1992 7.199216 7.1992 0.69667 0 1.37023 -0.099 2.00734 -0.2836" stroke-width="1"></path><path stroke="#000000" stroke-linecap="round" stroke-linejoin="round" d="M6.24306 14.2201c0.21657 0.2844 0.49852 0.5125 0.82195 0.6648 0.32344 0.1523 0.67883 0.2244 1.03605 0.2102 1.139 0 2.06304 -0.693 2.06304 -1.547s-0.92404 -1.546 -2.06304 -1.546 -2.062 -0.693 -2.062 -1.548c0 -0.855 0.924 -1.547 2.062 -1.547 0.35726 -0.01448 0.71274 0.0575 1.03621 0.20984 0.32348 0.15234 0.6054 0.38052 0.82179 0.66516" stroke-width="1"></path><path stroke="#000000" stroke-linecap="round" stroke-linejoin="round" d="M8.10107 15.095v1.031" stroke-width="1"></path><path stroke="#000000" stroke-linecap="round" stroke-linejoin="round" d="M8.10107 7.87598v1.031" stroke-width="1"></path></svg>