<svg xmlns="http://www.w3.org/2000/svg" fill="none" viewBox="0 0 24 24" id="Cashless-Payment-E-Wallet-Monitor--Streamline-Ultimate"><desc>Cashless Payment E Wallet Monitor Streamline Icon: https://streamlinehq.com</desc><path stroke="#000000" stroke-linecap="round" stroke-linejoin="round" d="M3.118 1.80005h17.764c0.3112 0 0.6194 0.06135 0.9069 0.18054 0.2875 0.11919 0.5487 0.29388 0.7686 0.51409 0.2199 0.22021 0.3943 0.48161 0.5131 0.76925 0.1188 0.28765 0.1798 0.5959 0.1794 0.90712V15.684c0 0.6281 -0.2495 1.2304 -0.6936 1.6745 -0.4441 0.4441 -1.0464 0.6935 -1.6744 0.6935H3.116c-0.62733 0 -1.22898 -0.2491 -1.67266 -0.6926 -0.443682 -0.4435 -0.693073 -1.045 -0.693338 -1.6724V4.17105c-0.000394 -0.31122 0.060565 -0.61947 0.179391 -0.90712 0.118827 -0.28764 0.293187 -0.54904 0.513117 -0.76925 0.21993 -0.22021 0.48111 -0.3949 0.7686 -0.51409 0.2875 -0.11919 0.59567 -0.18054 0.90689 -0.18054v0Z" stroke-width="1"></path><path stroke="#000000" stroke-linecap="round" stroke-linejoin="round" d="M6.67099 22.197H17.329" stroke-width="1"></path><path stroke="#000000" stroke-linecap="round" stroke-linejoin="round" d="m9.63201 18.053 -1.777 4.144H16.145l-1.777 -4.144H9.63201Z" stroke-width="1"></path><path stroke="#000000" stroke-linecap="round" stroke-linejoin="round" d="m7.95101 13.0501 3.82399 2.231c0.1658 0.0968 0.3543 0.1481 0.5463 0.1488 0.192 0.0006 0.3808 -0.0494 0.5473 -0.1451 0.1665 -0.0957 0.3048 -0.2336 0.4009 -0.3998 0.0961 -0.1662 0.1466 -0.3549 0.1465 -0.5469v-5.031c0 -0.38133 -0.0999 -0.75601 -0.2897 -1.08673 -0.1899 -0.33072 -0.463 -0.60594 -0.7923 -0.79827l-3.82399 -2.231c-0.16591 -0.09672 -0.35439 -0.14799 -0.54644 -0.14861 -0.19204 -0.00063 -0.38085 0.0494 -0.54739 0.14504 -0.16654 0.09564 -0.3049 0.23351 -0.40115 0.3997 -0.09624 0.16619 -0.14695 0.35483 -0.14702 0.54687v5.031c0.00021 0.3814 0.10029 0.7561 0.2903 1.0868 0.19 0.3307 0.4633 0.6059 0.7927 0.7982v0Z" stroke-width="1"></path><path stroke="#000000" stroke-linecap="round" stroke-linejoin="round" d="M7.95999 5.04102H15.053c0.1433 -0.00014 0.2853 0.02799 0.4178 0.08276s0.2529 0.13511 0.3543 0.23643c0.1014 0.10132 0.1819 0.22164 0.2367 0.35407 0.0549 0.13243 0.0832 0.27438 0.0832 0.41774V13.226" stroke-width="1"></path><path stroke="#000000" d="M10.962 11.1899c-0.2071 0 -0.375 -0.1679 -0.375 -0.375s0.1679 -0.375 0.375 -0.375" stroke-width="1"></path><path stroke="#000000" d="M10.962 11.1899c0.2071 0 0.375 -0.1679 0.375 -0.375s-0.1679 -0.375 -0.375 -0.375" stroke-width="1"></path></svg>