<svg xmlns="http://www.w3.org/2000/svg" fill="none" viewBox="0 0 24 24" id="Cashless-Payment-Online-Statement-Monitor-Document-Yuan--Streamline-Ultimate"><desc>Cashless Payment Online Statement Monitor Document Yuan Streamline Icon: https://streamlinehq.com</desc><path stroke="#000000" stroke-linecap="round" stroke-linejoin="round" d="M22 6.53711c0.3121 0.24766 0.5641 0.56268 0.7373 0.92148 0.1731 0.3588 0.263 0.75211 0.2627 1.15052v8.70899c-0.0003 0.7016 -0.2792 1.3744 -0.7753 1.8704 -0.4962 0.496 -1.1691 0.7746 -1.8707 0.7746H3.646c-0.70159 0 -1.37446 -0.2786 -1.87065 -0.7746 -0.49619 -0.496 -0.77508 -1.1688 -0.77535 -1.8704V8.60911c-0.000261 -0.39841 0.08955 -0.79172 0.26272 -1.15052S1.68793 6.78477 2 6.53711" stroke-width="1"></path><path stroke="#000000" stroke-linecap="round" stroke-linejoin="round" d="M12 19.9629v3" stroke-width="1"></path><path stroke="#000000" stroke-linecap="round" stroke-linejoin="round" d="M7 22.9629h10" stroke-width="1"></path><path stroke="#000000" stroke-linecap="round" stroke-linejoin="round" d="M13.847 9.34912h3.233" stroke-width="1"></path><path stroke="#000000" stroke-linecap="round" stroke-linejoin="round" d="M13.847 12.5811h3.233" stroke-width="1"></path><path stroke="#000000" stroke-linecap="round" stroke-linejoin="round" d="M4.61096 14.8901V1.03711H15.232l4.157 4.156v9.69699" stroke-width="1"></path><path stroke="#000000" stroke-linecap="round" stroke-linejoin="round" d="M14.771 1.03711v4.617h4.618" stroke-width="1"></path><path stroke="#000000" stroke-linecap="round" stroke-linejoin="round" d="m7.4729 7.3895 0 1.43546c0 0.23084 0.04547 0.45942 0.13381 0.67268 0.08833 0.21327 0.21781 0.40705 0.38104 0.57026 0.16323 0.1632 0.357 0.2927 0.57027 0.3811 0.21327 0.0883 0.44184 0.1338 0.67268 0.1338 0.23084 0 0.45941 -0.0455 0.67268 -0.1338 0.21322 -0.0884 0.40702 -0.2179 0.57032 -0.3811 0.1632 -0.16321 0.2927 -0.35699 0.381 -0.57026 0.0883 -0.21326 0.1338 -0.44184 0.1338 -0.67268V7.3895" stroke-width="1"></path><path stroke="#000000" stroke-linecap="round" stroke-linejoin="round" d="M9.23083 10.5828v3.4048" stroke-width="1"></path><path stroke="#000000" stroke-linecap="round" stroke-linejoin="round" d="M7.4729 12.5811h3.5156" stroke-width="1"></path></svg>