<svg xmlns="http://www.w3.org/2000/svg" fill="none" viewBox="0 0 24 24" id="Cashless-Payment-Online-Statement-Chat-Bubble--Streamline-Ultimate"><desc>Cashless Payment Online Statement Chat Bubble Streamline Icon: https://streamlinehq.com</desc><path stroke="#000000" stroke-linecap="round" stroke-linejoin="round" d="M20.525 12h0.975c0.3978 0 0.7794 0.158 1.0607 0.4393S23 13.1022 23 13.5v8c0 0.3978 -0.158 0.7794 -0.4393 1.0607S21.8978 23 21.5 23h-4c-0.3978 0 -0.7794 -0.158 -1.0607 -0.4393S16 21.8978 16 21.5v-5" stroke-width="1"></path><path stroke="#000000" stroke-linecap="round" stroke-linejoin="round" d="M1 4v6.786c0 0.7956 0.31607 1.5587 0.87868 2.1213 0.56261 0.5626 1.32567 0.8787 2.12132 0.8787h4l5 3.5v-3.5h2c0.7956 0 1.5587 -0.3161 2.1213 -0.8787 0.5626 -0.5626 0.8787 -1.3257 0.8787 -2.1213V4c0 -0.79565 -0.3161 -1.55871 -0.8787 -2.12132C16.5587 1.31607 15.7956 1 15 1H4c-0.79565 0 -1.55871 0.31607 -2.12132 0.87868C1.31607 2.44129 1 3.20435 1 4v0Z" stroke-width="1"></path><path stroke="#000000" stroke-linecap="round" stroke-linejoin="round" d="M11.6771 5h3" stroke-width="1"></path><path stroke="#000000" stroke-linecap="round" stroke-linejoin="round" d="M11.6771 8h3" stroke-width="1"></path><path stroke="#000000" stroke-linecap="round" stroke-linejoin="round" d="M16 20.2859h7" stroke-width="1"></path><path stroke="#000000" stroke-linecap="round" stroke-linejoin="round" d="M4.60097 9.50984c0.20037 0.26306 0.46121 0.47395 0.76042 0.61476 0.2992 0.1408 0.62794 0.2075 0.95836 0.1942 1.05217 0 1.90647 -0.63976 1.90647 -1.43027 0 -0.79052 -0.8543 -1.4294 -1.90647 -1.4294 -1.05217 0 -1.9074 -0.64073 -1.9074 -1.43124s0.85431 -1.43031 1.9074 -1.43031c0.33028 -0.01316 0.65886 0.0535 0.9579 0.19433s0.55973 0.35168 0.75996 0.61467" stroke-width="1"></path><path stroke="#000000" stroke-linecap="round" stroke-linejoin="round" d="M6.31982 10.3191v0.9532" stroke-width="1"></path><path stroke="#000000" stroke-linecap="round" stroke-linejoin="round" d="M6.31982 3.64429v0.95323" stroke-width="1"></path></svg>