<svg xmlns="http://www.w3.org/2000/svg" fill="none" viewBox="0 0 24 24" id="Cashless-Payment-Qr-Code-Trolley-Cart--Streamline-Ultimate"><desc>Cashless Payment Qr Code Trolley Cart Streamline Icon: https://streamlinehq.com</desc><path stroke="#000000" stroke-linecap="round" stroke-linejoin="round" d="m23.2 12.71 -2.1956 7.3186h-5.8549l-1.4638 -4.3912h8.6361" stroke-width="1"></path><path stroke="#000000" d="M15.5154 22.956c-0.2021 0 -0.3659 -0.1638 -0.3659 -0.3659s0.1638 -0.366 0.3659 -0.366" stroke-width="1"></path><path stroke="#000000" d="M15.5154 22.956c0.2021 0 0.3659 -0.1638 0.3659 -0.3659s-0.1638 -0.366 -0.3659 -0.366" stroke-width="1"></path><path stroke="#000000" d="M20.6385 22.956c-0.2021 0 -0.366 -0.1638 -0.366 -0.3659s0.1639 -0.366 0.366 -0.366" stroke-width="1"></path><path stroke="#000000" d="M20.6385 22.956c0.2021 0 0.3659 -0.1638 0.3659 -0.3659s-0.1638 -0.366 -0.3659 -0.366" stroke-width="1"></path><path stroke="#000000" stroke-linecap="round" stroke-linejoin="round" d="M11.2462 22.956H3.92747c-0.77641 0 -1.52103 -0.3084 -2.07003 -0.8574C1.30843 21.5496 1 20.805 1 20.0286V3.92747c0 -0.77641 0.30843 -1.52103 0.85744 -2.07003C2.40644 1.30843 3.15106 1 3.92747 1h7.31873c0.7764 0 1.521 0.30843 2.07 0.85744 0.549 0.549 0.8574 1.29362 0.8574 2.07003v7.80663" stroke-width="1"></path><path stroke="#000000" stroke-linecap="round" stroke-linejoin="round" d="M1 18.9307h9.7582" stroke-width="1"></path><path stroke="#000000" stroke-linecap="round" stroke-linejoin="round" d="M3.92747 6.48913V5.02539h1.46374" stroke-width="1"></path><path stroke="#000000" stroke-linecap="round" stroke-linejoin="round" d="M11.2462 5.02539H8.31868v2.92747h2.92752V5.02539Z" stroke-width="1"></path><path stroke="#000000" stroke-linecap="round" stroke-linejoin="round" d="M6.85494 12.344H3.92747v2.9275h2.92747V12.344Z" stroke-width="1"></path><path stroke="#000000" stroke-linecap="round" stroke-linejoin="round" d="M3.92747 9.4165h2.92747" stroke-width="1"></path><path stroke="#000000" stroke-linecap="round" stroke-linejoin="round" d="M9.05055 10.8801h2.19565" stroke-width="1"></path><path stroke="#000000" stroke-linecap="round" stroke-linejoin="round" d="M11.2462 13.8076v1.4638H9.05055" stroke-width="1"></path></svg>