<svg xmlns="http://www.w3.org/2000/svg" fill="none" viewBox="0 0 24 24" id="Cashless-Payment-Smart-Pay-Bus-Smartphone-Yuan--Streamline-Ultimate"><desc>Cashless Payment Smart Pay Bus Smartphone Yuan Streamline Icon: https://streamlinehq.com</desc><path stroke="#000000" stroke-linecap="round" stroke-linejoin="round" d="M10.75 23.25h-7c-0.79565 0 -1.55871 -0.3161 -2.12132 -0.8787C1.06607 21.8087 0.75 21.0456 0.75 20.25V3.75c0 -0.79565 0.31607 -1.55871 0.87868 -2.12132C2.19129 1.06607 2.95435 0.75 3.75 0.75h7.5c0.7956 0 1.5587 0.31607 2.1213 0.87868 0.5626 0.56261 0.8787 1.32567 0.8787 2.12132v5.5" stroke-width="1"></path><path stroke="#000000" stroke-linecap="round" stroke-linejoin="round" d="M0.75 19.125h10" stroke-width="1"></path><path stroke="#000000" stroke-linecap="round" stroke-linejoin="round" d="M22.25 11.75H14.5c-0.5523 0 -1 0.4477 -1 1v7.75c0 0.5523 0.4477 1 1 1h7.75c0.5523 0 1 -0.4477 1 -1v-7.75c0 -0.5523 -0.4477 -1 -1 -1Z" stroke-width="1"></path><path stroke="#000000" stroke-linecap="round" stroke-linejoin="round" d="M15 21.5V23" stroke-width="1"></path><path stroke="#000000" stroke-linecap="round" stroke-linejoin="round" d="M21.75 21.5V23" stroke-width="1"></path><path stroke="#000000" stroke-linecap="round" stroke-linejoin="round" d="M13.5 16.25h9.75" stroke-width="1"></path><path stroke="#000000" stroke-linecap="round" stroke-linejoin="round" d="M16.125 18.5c0.0995 0 0.1948 0.0395 0.2652 0.1098 0.0703 0.0704 0.1098 0.1657 0.1098 0.2652" stroke-width="1"></path><path stroke="#000000" stroke-linecap="round" stroke-linejoin="round" d="M15.75 18.875c0 -0.0995 0.0395 -0.1948 0.1098 -0.2652 0.0704 -0.0703 0.1657 -0.1098 0.2652 -0.1098" stroke-width="1"></path><path stroke="#000000" stroke-linecap="round" stroke-linejoin="round" d="M16.125 19.25c-0.0995 0 -0.1948 -0.0395 -0.2652 -0.1098 -0.0703 -0.0704 -0.1098 -0.1657 -0.1098 -0.2652" stroke-width="1"></path><path stroke="#000000" stroke-linecap="round" stroke-linejoin="round" d="M16.5 18.875c0 0.0995 -0.0395 0.1948 -0.1098 0.2652 -0.0704 0.0703 -0.1657 0.1098 -0.2652 0.1098" stroke-width="1"></path><path stroke="#000000" stroke-linecap="round" stroke-linejoin="round" d="M20.625 18.5c0.0995 0 0.1948 0.0395 0.2652 0.1098 0.0703 0.0704 0.1098 0.1657 0.1098 0.2652" stroke-width="1"></path><path stroke="#000000" stroke-linecap="round" stroke-linejoin="round" d="M20.25 18.875c0 -0.0995 0.0395 -0.1948 0.1098 -0.2652 0.0704 -0.0703 0.1657 -0.1098 0.2652 -0.1098" stroke-width="1"></path><path stroke="#000000" stroke-linecap="round" stroke-linejoin="round" d="M20.625 19.25c-0.0995 0 -0.1948 -0.0395 -0.2652 -0.1098 -0.0703 -0.0704 -0.1098 -0.1657 -0.1098 -0.2652" stroke-width="1"></path><path stroke="#000000" stroke-linecap="round" stroke-linejoin="round" d="M21 18.875c0 0.0995 -0.0395 0.1948 -0.1098 0.2652 -0.0704 0.0703 -0.1657 0.1098 -0.2652 0.1098" stroke-width="1"></path><path stroke="#000000" stroke-linecap="round" stroke-linejoin="round" d="m5.02686 5.84974 0 2.01956c0 0.32476 0.06396 0.64635 0.18825 0.94639 0.12428 0.30004 0.30644 0.57267 0.53609 0.80231 0.22964 0.22965 0.50227 0.4118 0.80231 0.5361 0.30004 0.1243 0.62163 0.1882 0.94639 0.1882 0.32477 0 0.64636 -0.0639 0.9464 -0.1882 0.30004 -0.1243 0.57267 -0.30645 0.80231 -0.5361 0.22965 -0.22964 0.41181 -0.50227 0.53609 -0.80231 0.12428 -0.30004 0.18825 -0.62163 0.18825 -0.94639V5.84974" stroke-width="1"></path><path stroke="#000000" stroke-linecap="round" stroke-linejoin="round" d="M7.50012 10.3423v4.7902" stroke-width="1"></path><path stroke="#000000" stroke-linecap="round" stroke-linejoin="round" d="M5.02686 13.0222h4.94609" stroke-width="1"></path></svg>