<svg xmlns="http://www.w3.org/2000/svg" fill="none" viewBox="0 0 24 24" id="Cashless-Payment-Online-Transfer-Monitor-Yuan--Streamline-Ultimate"><desc>Cashless Payment Online Transfer Monitor Yuan Streamline Icon: https://streamlinehq.com</desc><path stroke="#000000" stroke-linecap="round" stroke-linejoin="round" d="M10.9816 20.5625H8.98157c-0.79565 0 -1.55871 -0.3161 -2.12132 -0.8787 -0.56261 -0.5626 -0.87868 -1.3257 -0.87868 -2.1213v-2.5" stroke-width="1"></path><path stroke="#000000" stroke-linecap="round" stroke-linejoin="round" d="m3.98157 16.5625 2 -2 2 2" stroke-width="1"></path><path stroke="#000000" stroke-linecap="round" stroke-linejoin="round" d="M9.72057 0.8125h-7.478c-0.69643 0 -1.261003 0.56457 -1.261003 1.261v4.478c0 0.69643 0.564573 1.261 1.261003 1.261h7.478c0.69643 0 1.26103 -0.56457 1.26103 -1.261v-4.478c0 -0.69643 -0.5646 -1.261 -1.26103 -1.261Z" stroke-width="1"></path><path stroke="#000000" stroke-linecap="round" stroke-linejoin="round" d="M5.98157 7.8125v2.5" stroke-width="1"></path><path stroke="#000000" stroke-linecap="round" stroke-linejoin="round" d="M3.48157 10.3125h5" stroke-width="1"></path><path stroke="#000000" stroke-linecap="round" stroke-linejoin="round" d="M20.3886 12.1875h1.1298c0.3979 0 0.7794 0.158 1.0607 0.4393s0.4393 0.6629 0.4393 1.0607v8c0 0.3978 -0.158 0.7794 -0.4393 1.0607s-0.6628 0.4393 -1.0607 0.4393h-4c-0.3978 0 -0.7793 -0.158 -1.0606 -0.4393s-0.4394 -0.6629 -0.4394 -1.0607v-4.6026" stroke-width="1"></path><path stroke="#000000" stroke-linecap="round" stroke-linejoin="round" d="M16.0184 20.0974h7" stroke-width="1"></path><path stroke="#000000" stroke-linecap="round" stroke-linejoin="round" d="M13.8793 7.13364V8.6645c0 0.24618 0.0485 0.48994 0.1427 0.71738 0.0942 0.22744 0.2323 0.43409 0.4063 0.60817 0.1741 0.17405 0.3808 0.31215 0.6082 0.40635 0.2274 0.0942 0.4712 0.1427 0.7174 0.1427 0.2462 0 0.4899 -0.0485 0.7174 -0.1427 0.2274 -0.0942 0.4341 -0.2323 0.6081 -0.40635 0.1741 -0.17408 0.3122 -0.38073 0.4064 -0.60817 0.0942 -0.22744 0.1427 -0.4712 0.1427 -0.71738V7.13364" stroke-width="1"></path><path stroke="#000000" stroke-linecap="round" stroke-linejoin="round" d="M15.754 10.5391v3.6311" stroke-width="1"></path><path stroke="#000000" stroke-linecap="round" stroke-linejoin="round" d="M13.8793 12.6702h3.7492" stroke-width="1"></path></svg>