<svg xmlns="http://www.w3.org/2000/svg" fill="none" viewBox="0 0 24 24" id="Cashless-Payment-Card-Top-Up-Wallet--Streamline-Ultimate"><desc>Cashless Payment Card Top Up Wallet Streamline Icon: https://streamlinehq.com</desc><path stroke="#000000" stroke-linecap="round" stroke-linejoin="round" d="M16 4.37891h2c0.7956 0 1.5587 0.31607 2.1213 0.87868 0.5626 0.5626 0.8787 1.32567 0.8787 2.12132v2.99999" stroke-width="1"></path><path stroke="#000000" stroke-linecap="round" stroke-linejoin="round" d="m23 8.37891 -2 1.99999 -2 -1.99999" stroke-width="1"></path><path stroke="#000000" stroke-linecap="round" stroke-linejoin="round" d="M13 18.021h10" stroke-width="1"></path><path stroke="#000000" stroke-linecap="round" stroke-linejoin="round" d="m2.349 11.4571 4.764 2.779c0.20652 0.1205 0.44118 0.1844 0.6803 0.1852 0.23911 0.0008 0.47421 -0.0614 0.68156 -0.1805 0.20735 -0.1191 0.3796 -0.2908 0.49937 -0.4978 0.11977 -0.2069 0.18282 -0.4418 0.18277 -0.6809V6.79406c0.00006 -0.47529 -0.12446 -0.94229 -0.36116 -1.35445 -0.23669 -0.41215 -0.57729 -0.75507 -0.98784 -0.99455l-4.763 -2.779c-0.20667 -0.12049 -0.44146 -0.18434 -0.68069 -0.1851 -0.23923 -0.00075 -0.47442 0.0616 -0.68185 0.18079 -0.20743 0.11918 -0.37975 0.29097 -0.49957 0.49803 -0.11982 0.20705 -0.182909 0.44205 -0.18289 0.68128v6.268c0.00001 0.47514 0.12457 0.94194 0.36127 1.35394 0.2367 0.412 0.57726 0.7547 0.98773 0.9941v0Z" stroke-width="1"></path><path stroke="#000000" stroke-linecap="round" stroke-linejoin="round" d="M2.36 1.47907h9.221c0.3685 -0.00777 0.725 0.13113 0.9911 0.38617 0.2661 0.25504 0.42 0.60533 0.4279 0.97383v8.83703" stroke-width="1"></path><path stroke="#000000" stroke-linecap="round" stroke-linejoin="round" d="M21.5 15.021h-7c-0.8284 0 -1.5 0.6716 -1.5 1.5v4.5c0 0.8284 0.6716 1.5 1.5 1.5h7c0.8284 0 1.5 -0.6716 1.5 -1.5v-4.5c0 -0.8284 -0.6716 -1.5 -1.5 -1.5Z" stroke-width="1"></path><path stroke="#000000" d="M6.285 9.71997c-0.27614 0 -0.5 -0.22386 -0.5 -0.5s0.22386 -0.5 0.5 -0.5" stroke-width="1"></path><path stroke="#000000" d="M6.285 9.71997c0.27614 0 0.5 -0.22386 0.5 -0.5s-0.22386 -0.5 -0.5 -0.5" stroke-width="1"></path></svg>