<svg xmlns="http://www.w3.org/2000/svg" fill="none" viewBox="0 0 24 24" id="Cashless-Payment-Online-Transfer-Browser--Streamline-Ultimate"><desc>Cashless Payment Online Transfer Browser Streamline Icon: https://streamlinehq.com</desc><path stroke="#000000" stroke-linecap="round" stroke-linejoin="round" d="M6.77197 12.125h-4c-0.82842 0 -1.5 0.6716 -1.5 1.5v8c0 0.8284 0.67158 1.5 1.5 1.5h4c0.82843 0 1.5 -0.6716 1.5 -1.5v-8c0 -0.8284 -0.67157 -1.5 -1.5 -1.5Z" stroke-width="1"></path><path stroke="#000000" stroke-linecap="round" stroke-linejoin="round" d="M1.27197 20.1211h7" stroke-width="1"></path><path stroke="#000000" stroke-linecap="round" stroke-linejoin="round" d="M14.5066 13.5929c0.2162 0.2849 0.4981 0.5133 0.8216 0.6658 0.3235 0.1525 0.6791 0.2246 1.0364 0.2102 1.139 0 2.063 -0.693 2.063 -1.548 0 -0.855 -0.924 -1.546 -2.063 -1.546 -1.139 0 -2.062 -0.693 -2.062 -1.548 0 -0.855 0.923 -1.547 2.062 -1.547 0.3573 -0.01448 0.7127 0.05751 1.0362 0.20984 0.3235 0.15234 0.6054 0.38052 0.8218 0.66516" stroke-width="1"></path><path stroke="#000000" stroke-linecap="round" stroke-linejoin="round" d="M16.3646 14.469v1.03" stroke-width="1"></path><path stroke="#000000" stroke-linecap="round" stroke-linejoin="round" d="M16.3646 7.24902v1.031" stroke-width="1"></path><path stroke="#000000" stroke-linecap="round" stroke-linejoin="round" d="M12.1841 18.353h9.044c0.3979 0 0.7794 -0.158 1.0607 -0.4393s0.4393 -0.6629 0.4393 -1.0607V2.375c0 -0.39782 -0.158 -0.77936 -0.4393 -1.06066 -0.2813 -0.2813 -0.6628 -0.43934 -1.0607 -0.43934H5.22815c-0.39783 0 -0.77936 0.15804 -1.06066 0.43934 -0.28131 0.2813 -0.43934 0.66284 -0.43934 1.06066v6.44916" stroke-width="1"></path><path stroke="#000000" stroke-linecap="round" stroke-linejoin="round" d="M3.72815 4.77271H22.7281" stroke-width="1"></path></svg>