<svg xmlns="http://www.w3.org/2000/svg" fill="none" viewBox="0 0 24 24" id="Cashless-Payment-Online-Statement-Monitor-Document--Streamline-Ultimate"><desc>Cashless Payment Online Statement Monitor Document Streamline Icon: https://streamlinehq.com</desc><path stroke="#000000" stroke-linecap="round" stroke-linejoin="round" d="M7.54145 10.65c0.19287 0.2537 0.44411 0.4572 0.73239 0.5931 0.28829 0.1359 0.6051 0.2002 0.92357 0.1876 1.01519 0 1.83829 -0.6176 1.83829 -1.379s-0.8231 -1.37901 -1.83829 -1.37901 -1.83352 -0.6176 -1.83352 -1.37899c0 -0.7614 0.82412 -1.379 1.83352 -1.379 0.31839 -0.01286 0.63518 0.05131 0.92349 0.18705 0.2883 0.13575 0.5395 0.33906 0.7325 0.59268" stroke-width="1"></path><path stroke="#000000" stroke-linecap="round" stroke-linejoin="round" d="M9.19727 11.4304v0.9177" stroke-width="1"></path><path stroke="#000000" stroke-linecap="round" stroke-linejoin="round" d="M9.19727 4.99585v0.91869" stroke-width="1"></path><path stroke="#000000" stroke-linecap="round" stroke-linejoin="round" d="M22 6.53711c0.3121 0.24766 0.5641 0.56268 0.7373 0.92148 0.1731 0.3588 0.263 0.75211 0.2627 1.15052v8.70899c-0.0003 0.7016 -0.2792 1.3744 -0.7753 1.8704 -0.4962 0.496 -1.1691 0.7746 -1.8707 0.7746H3.646c-0.70159 0 -1.37446 -0.2786 -1.87065 -0.7746 -0.49619 -0.496 -0.77508 -1.1688 -0.77535 -1.8704V8.60911c-0.000261 -0.39841 0.08955 -0.79172 0.26272 -1.15052S1.68793 6.78477 2 6.53711" stroke-width="1"></path><path stroke="#000000" stroke-linecap="round" stroke-linejoin="round" d="M12 19.9629v3" stroke-width="1"></path><path stroke="#000000" stroke-linecap="round" stroke-linejoin="round" d="M7 22.9629h10" stroke-width="1"></path><path stroke="#000000" stroke-linecap="round" stroke-linejoin="round" d="M13.847 9.34912h3.233" stroke-width="1"></path><path stroke="#000000" stroke-linecap="round" stroke-linejoin="round" d="M13.847 12.5811h3.233" stroke-width="1"></path><path stroke="#000000" stroke-linecap="round" stroke-linejoin="round" d="M4.61096 14.8901V1.03711H15.232l4.157 4.156v9.69699" stroke-width="1"></path><path stroke="#000000" stroke-linecap="round" stroke-linejoin="round" d="M14.771 1.03711v4.617h4.618" stroke-width="1"></path></svg>