<svg xmlns="http://www.w3.org/2000/svg" fill="none" viewBox="0 0 24 24" id="Cashless-Payment-Smart-Pay-Bus-Smartphone--Streamline-Ultimate"><desc>Cashless Payment Smart Pay Bus Smartphone Streamline Icon: https://streamlinehq.com</desc><path stroke="#000000" stroke-linecap="round" stroke-linejoin="round" d="M5.829 12.0941c0.21657 0.2845 0.49852 0.5125 0.82195 0.6648 0.32344 0.1523 0.67883 0.2244 1.03605 0.2102 1.139 0 2.063 -0.693 2.063 -1.547s-0.924 -1.54598 -2.063 -1.54598c-1.139 0 -2.062 -0.693 -2.062 -1.548 0 -0.855 0.924 -1.547 2.062 -1.547 0.35726 -0.01448 0.71273 0.05751 1.03621 0.20984 0.32348 0.15234 0.60539 0.38052 0.82179 0.66516" stroke-width="1"></path><path stroke="#000000" stroke-linecap="round" stroke-linejoin="round" d="M7.68701 12.969V14" stroke-width="1"></path><path stroke="#000000" stroke-linecap="round" stroke-linejoin="round" d="M7.68701 5.75v1.031" stroke-width="1"></path><path stroke="#000000" stroke-linecap="round" stroke-linejoin="round" d="M10.75 23.25h-7c-0.79565 0 -1.55871 -0.3161 -2.12132 -0.8787C1.06607 21.8087 0.75 21.0456 0.75 20.25V3.75c0 -0.79565 0.31607 -1.55871 0.87868 -2.12132C2.19129 1.06607 2.95435 0.75 3.75 0.75h7.5c0.7956 0 1.5587 0.31607 2.1213 0.87868 0.5626 0.56261 0.8787 1.32567 0.8787 2.12132v5.5" stroke-width="1"></path><path stroke="#000000" stroke-linecap="round" stroke-linejoin="round" d="M0.75 19.125h10" stroke-width="1"></path><path stroke="#000000" stroke-linecap="round" stroke-linejoin="round" d="M22.25 11.75H14.5c-0.5523 0 -1 0.4477 -1 1v7.75c0 0.5523 0.4477 1 1 1h7.75c0.5523 0 1 -0.4477 1 -1v-7.75c0 -0.5523 -0.4477 -1 -1 -1Z" stroke-width="1"></path><path stroke="#000000" stroke-linecap="round" stroke-linejoin="round" d="M15 21.5V23" stroke-width="1"></path><path stroke="#000000" stroke-linecap="round" stroke-linejoin="round" d="M21.75 21.5V23" stroke-width="1"></path><path stroke="#000000" stroke-linecap="round" stroke-linejoin="round" d="M13.5 16.25h9.75" stroke-width="1"></path><path stroke="#000000" stroke-linecap="round" stroke-linejoin="round" d="M16.125 18.5c0.0995 0 0.1948 0.0395 0.2652 0.1098 0.0703 0.0704 0.1098 0.1657 0.1098 0.2652" stroke-width="1"></path><path stroke="#000000" stroke-linecap="round" stroke-linejoin="round" d="M15.75 18.875c0 -0.0995 0.0395 -0.1948 0.1098 -0.2652 0.0704 -0.0703 0.1657 -0.1098 0.2652 -0.1098" stroke-width="1"></path><path stroke="#000000" stroke-linecap="round" stroke-linejoin="round" d="M16.125 19.25c-0.0995 0 -0.1948 -0.0395 -0.2652 -0.1098 -0.0703 -0.0704 -0.1098 -0.1657 -0.1098 -0.2652" stroke-width="1"></path><path stroke="#000000" stroke-linecap="round" stroke-linejoin="round" d="M16.5 18.875c0 0.0995 -0.0395 0.1948 -0.1098 0.2652 -0.0704 0.0703 -0.1657 0.1098 -0.2652 0.1098" stroke-width="1"></path><path stroke="#000000" stroke-linecap="round" stroke-linejoin="round" d="M20.625 18.5c0.0995 0 0.1948 0.0395 0.2652 0.1098 0.0703 0.0704 0.1098 0.1657 0.1098 0.2652" stroke-width="1"></path><path stroke="#000000" stroke-linecap="round" stroke-linejoin="round" d="M20.25 18.875c0 -0.0995 0.0395 -0.1948 0.1098 -0.2652 0.0704 -0.0703 0.1657 -0.1098 0.2652 -0.1098" stroke-width="1"></path><path stroke="#000000" stroke-linecap="round" stroke-linejoin="round" d="M20.625 19.25c-0.0995 0 -0.1948 -0.0395 -0.2652 -0.1098 -0.0703 -0.0704 -0.1098 -0.1657 -0.1098 -0.2652" stroke-width="1"></path><path stroke="#000000" stroke-linecap="round" stroke-linejoin="round" d="M21 18.875c0 0.0995 -0.0395 0.1948 -0.1098 0.2652 -0.0704 0.0703 -0.1657 0.1098 -0.2652 0.1098" stroke-width="1"></path></svg>