<svg xmlns="http://www.w3.org/2000/svg" fill="none" viewBox="0 0 24 24" id="Cashless-Payment-Smart-Watch-Pay-Wallet-Circle-Euro--Streamline-Ultimate"><desc>Cashless Payment Smart Watch Pay Wallet Circle Euro Streamline Icon: https://streamlinehq.com</desc><path stroke="#000000" stroke-linecap="round" stroke-linejoin="round" d="M11.5654 5.32594v-3.1103c0 -0.19255 -0.038 -0.38322 -0.1117 -0.56111 -0.0737 -0.17788 -0.1817 -0.3395 -0.3179 -0.47561 -0.1362 -0.13611 -0.2979 -0.244045 -0.4759 -0.317641C10.482 0.787682 10.2913 0.749869 10.0988 0.75H5.70282c-0.38871 0 -0.7615 0.154416 -1.03636 0.42928 -0.27486 0.27486 -0.42928 0.64765 -0.42928 1.03636l0 3.2999" stroke-width="1"></path><path stroke="#000000" stroke-linecap="round" stroke-linejoin="round" d="M10.1213 18.516c-1.36178 0.408 -2.81395 0.4034 -4.17312 -0.0133 -1.35917 -0.4167 -2.56438 -1.2268 -3.46347 -2.328 -0.89909 -1.1012 -1.45172 -2.4441 -1.588116 -3.8592 -0.136398 -1.415 0.149556 -2.83874 0.821756 -4.09139 0.6722 -1.25265 1.7005 -2.27803 2.95505 -2.94667 1.25455 -0.66864 2.67909 -0.95055 4.09375 -0.81013 0.93985 0.09329 1.84735 0.3702 2.67275 0.81013" stroke-width="1"></path><path stroke="#000000" stroke-linecap="round" stroke-linejoin="round" d="M4.23914 17.7632v3.512c0 0.3886 0.15437 0.7613 0.42916 1.0361 0.27478 0.2748 0.64747 0.4291 1.03608 0.4291h4.39572c0.3886 0 0.7613 -0.1543 1.0361 -0.4291" stroke-width="1"></path><path stroke="#000000" stroke-linecap="round" stroke-linejoin="round" d="M15.6544 7.61984c0.356 -0.35611 0.7786 -0.6386 1.2438 -0.83133 0.4651 -0.19273 0.9637 -0.29193 1.4672 -0.29193 0.5035 0 1.0021 0.0992 1.4672 0.29193 0.4652 0.19273 0.8878 0.47522 1.2438 0.83133" stroke-width="1"></path><path stroke="#000000" stroke-linecap="round" stroke-linejoin="round" d="M17.3276 9.67828c0.1364 -0.1364 0.2983 -0.2446 0.4764 -0.31842 0.1782 -0.07382 0.3692 -0.11181 0.562 -0.11181 0.1929 0 0.3838 0.03799 0.562 0.11181 0.1782 0.07382 0.34 0.18202 0.4764 0.31842" stroke-width="1"></path><path stroke="#000000" stroke-linecap="round" stroke-linejoin="round" d="M13.8494 5.73431c0.5931 -0.59318 1.2973 -1.06373 2.0723 -1.38476 0.775 -0.32103 1.6056 -0.48627 2.4445 -0.48627 0.8389 0 1.6695 0.16524 2.4445 0.48627 0.775 0.32103 1.4792 0.79158 2.0723 1.38476" stroke-width="1"></path><path stroke="#000000" stroke-linecap="round" stroke-linejoin="round" d="m14.6021 20.8237 3.8964 2.2749c0.1691 0.0986 0.3612 0.1508 0.5569 0.1514 0.1958 0.0007 0.3882 -0.0503 0.5579 -0.1478 0.1697 -0.0975 0.3108 -0.238 0.4088 -0.4074 0.0981 -0.1693 0.1498 -0.3616 0.1499 -0.5573v-5.1312c0.0001 -0.3891 -0.1018 -0.7715 -0.2955 -1.1089 -0.1937 -0.3375 -0.4724 -0.6182 -0.8085 -0.8144l-3.8964 -2.2738c-0.169 -0.0989 -0.3612 -0.1514 -0.557 -0.1522 -0.1959 -0.0008 -0.3884 0.0502 -0.5583 0.1477 -0.1698 0.0975 -0.3108 0.2382 -0.4089 0.4077 -0.098 0.1696 -0.1495 0.362 -0.1492 0.5579v5.1302c-0.0002 0.3891 0.1017 0.7714 0.2954 1.1089 0.1937 0.3374 0.4725 0.6182 0.8085 0.8143v0Z" stroke-width="1"></path><path stroke="#000000" stroke-linecap="round" stroke-linejoin="round" d="M14.3588 12.6798h7.6079c0.3026 -0.0075 0.5957 0.1054 0.8151 0.3139 0.2194 0.2085 0.347 0.4955 0.3548 0.7981v7.2323" stroke-width="1"></path><path stroke="#000000" stroke-linecap="round" stroke-linejoin="round" d="M17.7748 18.8042c-0.2071 0 -0.375 -0.1679 -0.375 -0.375s0.1679 -0.375 0.375 -0.375" stroke-width="1"></path><path stroke="#000000" stroke-linecap="round" stroke-linejoin="round" d="M17.7742 18.8042c0.2071 0 0.375 -0.1679 0.375 -0.375s-0.1679 -0.375 -0.375 -0.375" stroke-width="1"></path><path stroke="#000000" stroke-linecap="round" stroke-linejoin="round" d="M9.38308 8.16699h-0.53204c-0.9174 0 -1.79723 0.36444 -2.44593 1.01314 -0.64871 0.6487 -1.01314 1.52857 -1.01314 2.44597s0.36443 1.7972 1.01314 2.4459c0.6487 0.6487 1.52853 1.0131 2.44593 1.0131h0.53204" stroke-width="1"></path><path stroke="#000000" stroke-linecap="round" stroke-linejoin="round" d="m4.56799 11.626 3.99992 0" stroke-width="1"></path></svg>