<svg xmlns="http://www.w3.org/2000/svg" fill="none" viewBox="0 0 24 24" id="Cashless-Payment-Smart-Watch-Pay-Card-Square-Yuan--Streamline-Ultimate"><desc>Cashless Payment Smart Watch Pay Card Square Yuan Streamline Icon: https://streamlinehq.com</desc><path stroke="#000000" stroke-linecap="round" stroke-linejoin="round" d="M3.79834 18.75v3c0 0.3978 0.15803 0.7794 0.43934 1.0607 0.2813 0.2813 0.66284 0.4393 1.06066 0.4393h4.5c0.39786 0 0.77936 -0.158 1.06066 -0.4393" stroke-width="1"></path><path stroke="#000000" stroke-linecap="round" stroke-linejoin="round" d="M5.29834 0.75h4.5c0.39786 0 0.77936 0.158035 1.06066 0.43934 0.2813 0.2813 0.4393 0.66284 0.4393 1.06066v3H3.79834v-3c0 -0.39782 0.15803 -0.77936 0.43934 -1.06066C4.51898 0.908035 4.90052 0.75 5.29834 0.75v0Z" stroke-width="1"></path><path stroke="#000000" stroke-linecap="round" stroke-linejoin="round" d="M10.2213 18.75H3.79834c-0.79565 0 -1.55871 -0.3161 -2.12132 -0.8787 -0.56261 -0.5626 -0.87868 -1.3257 -0.87868 -2.1213v-7.5c0 -0.79565 0.31607 -1.55871 0.87868 -2.12132C2.23963 5.56607 3.00269 5.25 3.79834 5.25h7.49996c0.7957 0 1.5588 0.31607 2.1214 0.87868s0.8786 1.32567 0.8786 2.12132v3.5781" stroke-width="1"></path><path stroke="#000000" stroke-linecap="round" stroke-linejoin="round" d="M21.7237 14.9521h-7.044c-0.8163 0 -1.478 0.6618 -1.478 1.478v4.9128c0 0.8162 0.6617 1.478 1.478 1.478h7.044c0.8162 0 1.478 -0.6618 1.478 -1.478v-4.9128c0 -0.8162 -0.6618 -1.478 -1.478 -1.478Z" stroke-width="1"></path><path stroke="#000000" stroke-linecap="round" stroke-linejoin="round" d="M13.2017 18.123h10" stroke-width="1"></path><path stroke="#000000" stroke-linecap="round" stroke-linejoin="round" d="m5.49609 8.14854 0 1.67591c0 0.26955 0.05309 0.53635 0.15622 0.78535 0.10314 0.249 0.2543 0.4752 0.44487 0.6658 0.19057 0.1906 0.4168 0.3417 0.66579 0.4449 0.24899 0.1031 0.51585 0.1562 0.78536 0.1562 0.2695 0 0.53637 -0.0531 0.78535 -0.1562 0.24899 -0.1032 0.47523 -0.2543 0.6658 -0.4449 0.19056 -0.1906 0.34173 -0.4168 0.44486 -0.6658 0.10314 -0.249 0.15622 -0.5158 0.15622 -0.78535V8.14854" stroke-width="1"></path><path stroke="#000000" stroke-linecap="round" stroke-linejoin="round" d="M7.54858 11.8767v3.9752" stroke-width="1"></path><path stroke="#000000" stroke-linecap="round" stroke-linejoin="round" d="M5.49609 14.1006h4.10447" stroke-width="1"></path></svg>