<svg xmlns="http://www.w3.org/2000/svg" fill="none" viewBox="0 0 24 24" id="Cashless-Payment-Smart-Watch-Pay-Bus-Square-Yuan--Streamline-Ultimate"><desc>Cashless Payment Smart Watch Pay Bus Square Yuan Streamline Icon: https://streamlinehq.com</desc><path stroke="#000000" stroke-linecap="round" stroke-linejoin="round" d="M22.25 12.1841h-7.538c-0.5522 0 -1 0.4477 -1 1v7.538c0 0.5523 0.4478 1 1 1h7.538c0.5523 0 1 -0.4477 1 -1v-7.538c0 -0.5523 -0.4477 -1 -1 -1Z" stroke-width="1"></path><path stroke="#000000" stroke-linecap="round" stroke-linejoin="round" d="M15.179 21.7219v1.467" stroke-width="1"></path><path stroke="#000000" stroke-linecap="round" stroke-linejoin="round" d="M21.783 21.7219v1.467" stroke-width="1"></path><path stroke="#000000" stroke-linecap="round" stroke-linejoin="round" d="M13.712 16.5859h9.538" stroke-width="1"></path><path stroke="#000000" stroke-linecap="round" stroke-linejoin="round" d="M16.28 18.7871c0.0974 0 0.1907 0.0387 0.2595 0.1075 0.0689 0.0688 0.1075 0.1622 0.1075 0.2595" stroke-width="1"></path><path stroke="#000000" stroke-linecap="round" stroke-linejoin="round" d="M15.913 19.1541c0 -0.0973 0.0386 -0.1907 0.1075 -0.2595 0.0688 -0.0688 0.1621 -0.1075 0.2595 -0.1075" stroke-width="1"></path><path stroke="#000000" stroke-linecap="round" stroke-linejoin="round" d="M16.28 19.5211c-0.0974 0 -0.1907 -0.0387 -0.2595 -0.1075 -0.0689 -0.0689 -0.1075 -0.1622 -0.1075 -0.2595" stroke-width="1"></path><path stroke="#000000" stroke-linecap="round" stroke-linejoin="round" d="M16.647 19.1541c-0.0002 0.0972 -0.039 0.1904 -0.1078 0.2592 -0.0687 0.0687 -0.1619 0.1075 -0.2592 0.1078" stroke-width="1"></path><path stroke="#000000" stroke-linecap="round" stroke-linejoin="round" d="M20.682 18.7871c0.0973 0 0.1907 0.0387 0.2595 0.1075s0.1075 0.1622 0.1075 0.2595" stroke-width="1"></path><path stroke="#000000" stroke-linecap="round" stroke-linejoin="round" d="M20.3149 19.1541c0 -0.0973 0.0387 -0.1907 0.1075 -0.2595 0.0689 -0.0688 0.1622 -0.1075 0.2595 -0.1075" stroke-width="1"></path><path stroke="#000000" stroke-linecap="round" stroke-linejoin="round" d="M20.6819 19.5211c-0.0973 0 -0.1906 -0.0387 -0.2595 -0.1075 -0.0688 -0.0689 -0.1075 -0.1622 -0.1075 -0.2595" stroke-width="1"></path><path stroke="#000000" stroke-linecap="round" stroke-linejoin="round" d="M21.049 19.1541c0 0.0973 -0.0387 0.1906 -0.1075 0.2595 -0.0688 0.0688 -0.1622 0.1075 -0.2595 0.1075" stroke-width="1"></path><path stroke="#000000" stroke-linecap="round" stroke-linejoin="round" d="M9.55401 22.8219h-4.4c-0.19273 0 -0.38358 -0.0379 -0.56163 -0.1117 -0.17805 -0.0738 -0.33981 -0.182 -0.47605 -0.3183 -0.13623 -0.1363 -0.24427 -0.2982 -0.31794 -0.4763 -0.07366 -0.1781 -0.11151 -0.3689 -0.11138 -0.5617v-2.935H11.024v2.935c0 0.193 -0.038 0.384 -0.1119 0.5623 -0.0739 0.1782 -0.1822 0.3401 -0.3188 0.4765 -0.1365 0.1363 -0.2986 0.2444 -0.4769 0.3181 -0.17833 0.0736 -0.36944 0.1114 -0.56239 0.1111v0Z" stroke-width="1"></path><path stroke="#000000" stroke-linecap="round" stroke-linejoin="round" d="M5.15206 0.811035h4.4c0.19273 -0.000131 0.3836 0.037717 0.56174 0.111382 0.1781 0.073665 0.3399 0.181703 0.4762 0.317943 0.1364 0.13623 0.2445 0.298 0.3183 0.47605 0.0738 0.17805 0.1118 0.36889 0.1118 0.56163v2.935H3.68506v-2.935c0 -0.38908 0.15456 -0.76221 0.42967 -1.03733 0.27512 -0.275116 0.64826 -0.429675 1.03733 -0.429675v0Z" stroke-width="1"></path><path stroke="#000000" stroke-linecap="round" stroke-linejoin="round" d="M11.022 18.4189H3.685c-0.38538 0.0001 -0.76702 -0.0757 -1.1231 -0.2231 -0.35609 -0.1473 -0.67964 -0.3634 -0.9522 -0.6359 -0.27255 -0.2725 -0.48876 -0.5959 -0.636267 -0.952C0.825923 16.2519 0.75 15.8703 0.75 15.4849V8.14789c0 -0.77841 0.30922 -1.52494 0.85964 -2.07536 0.55042 -0.55042 1.29695 -0.85964 2.07536 -0.85964h7.337c0.7784 0 1.5249 0.30922 2.0754 0.85964 0.5504 0.55042 0.8596 1.29695 0.8596 2.07536v1.467" stroke-width="1"></path><path stroke="#000000" stroke-linecap="round" stroke-linejoin="round" d="m5.30029 8.14854 0 1.67591c0 0.26955 0.05309 0.53635 0.15622 0.78535s0.2543 0.4752 0.44487 0.6658c0.19057 0.1906 0.4168 0.3417 0.66579 0.4449 0.24899 0.1031 0.51585 0.1562 0.78536 0.1562 0.2695 0 0.53636 -0.0531 0.78535 -0.1562 0.24899 -0.1032 0.47523 -0.2543 0.66579 -0.4449 0.19057 -0.1906 0.34174 -0.4168 0.44487 -0.6658 0.10314 -0.249 0.15622 -0.5158 0.15622 -0.78535V8.14854" stroke-width="1"></path><path stroke="#000000" stroke-linecap="round" stroke-linejoin="round" d="M7.35278 11.8767v3.9752" stroke-width="1"></path><path stroke="#000000" stroke-linecap="round" stroke-linejoin="round" d="M5.30029 14.1006h4.10447" stroke-width="1"></path></svg>