<svg xmlns="http://www.w3.org/2000/svg" viewBox="0 0 24 24" id="Cashless-Payment-Market-Basket-Card--Streamline-Ultimate"><desc>Cashless Payment Market Basket Card Streamline Icon: https://streamlinehq.com</desc><defs></defs><path d="M2.253 8.72h7.044s1.478 0 1.478 1.478v4.044s0 1.478 -1.478 1.478H2.253s-1.478 0 -1.478 -1.478v-4.044s0 -1.478 1.478 -1.478" fill="none" stroke="#000000" stroke-linecap="round" stroke-linejoin="round" stroke-width="1"></path><path d="m0.775 11.52 10 0" fill="none" stroke="#000000" stroke-linecap="round" stroke-linejoin="round" stroke-width="1"></path><path d="M3.653 5.159a3 3 0 0 1 4.243 0" fill="none" stroke="#000000" stroke-linecap="round" stroke-linejoin="round" stroke-width="1"></path><path d="M1.532 3.038a6 6 0 0 1 8.485 0" fill="none" stroke="#000000" stroke-linecap="round" stroke-linejoin="round" stroke-width="1"></path><path d="M13.275 14.72h9a0.989 0.989 0 0 1 0.921 1.242l-1.425 6a0.962 0.962 0 0 1 -0.922 0.758H11.6a0.962 0.962 0 0 1 -0.922 -0.758L9.79 18.22" fill="none" stroke="#000000" stroke-linecap="round" stroke-linejoin="round" stroke-width="1"></path><path d="m12.94 12.72 1.285 -1.5" fill="none" stroke="#000000" stroke-linecap="round" stroke-linejoin="round" stroke-width="1"></path><path d="m21.225 14.72 -3 -3.5" fill="none" stroke="#000000" stroke-linecap="round" stroke-linejoin="round" stroke-width="1"></path></svg>