<svg xmlns="http://www.w3.org/2000/svg" fill="none" viewBox="0 0 24 24" id="Cashless-Payment-Online-Transfer-Monitor--Streamline-Ultimate"><desc>Cashless Payment Online Transfer Monitor Streamline Icon: https://streamlinehq.com</desc><path stroke="#000000" stroke-linecap="round" stroke-linejoin="round" d="M10.9816 20.5625H8.98157c-0.79565 0 -1.55871 -0.3161 -2.12132 -0.8787 -0.56261 -0.5626 -0.87868 -1.3257 -0.87868 -2.1213v-2.5" stroke-width="1"></path><path stroke="#000000" stroke-linecap="round" stroke-linejoin="round" d="m3.98157 16.5625 2 -2 2 2" stroke-width="1"></path><path stroke="#000000" stroke-linecap="round" stroke-linejoin="round" d="M9.72057 0.8125h-7.478c-0.69643 0 -1.261003 0.56457 -1.261003 1.261v4.478c0 0.69643 0.564573 1.261 1.261003 1.261h7.478c0.69643 0 1.26103 -0.56457 1.26103 -1.261v-4.478c0 -0.69643 -0.5646 -1.261 -1.26103 -1.261Z" stroke-width="1"></path><path stroke="#000000" stroke-linecap="round" stroke-linejoin="round" d="M5.98157 7.8125v2.5" stroke-width="1"></path><path stroke="#000000" stroke-linecap="round" stroke-linejoin="round" d="M3.48157 10.3125h5" stroke-width="1"></path><path stroke="#000000" stroke-linecap="round" stroke-linejoin="round" d="M20.3886 12.1875h1.1298c0.3979 0 0.7794 0.158 1.0607 0.4393s0.4393 0.6629 0.4393 1.0607v8c0 0.3978 -0.158 0.7794 -0.4393 1.0607s-0.6628 0.4393 -1.0607 0.4393h-4c-0.3978 0 -0.7793 -0.158 -1.0606 -0.4393s-0.4394 -0.6629 -0.4394 -1.0607v-4.6026" stroke-width="1"></path><path stroke="#000000" stroke-linecap="round" stroke-linejoin="round" d="M16.0184 20.0974h7" stroke-width="1"></path><path stroke="#000000" stroke-linecap="round" stroke-linejoin="round" d="M13.9363 12.2816c0.2166 0.2845 0.4985 0.5125 0.822 0.6648 0.3234 0.1523 0.6788 0.2244 1.036 0.2102 1.139 0 2.063 -0.693 2.063 -1.547s-0.924 -1.546 -2.063 -1.546c-1.139 0 -2.058 -0.69298 -2.058 -1.54798 0 -0.855 0.924 -1.547 2.062 -1.547 0.3573 -0.01448 0.7128 0.05751 1.0362 0.20984 0.3235 0.15234 0.6054 0.38052 0.8218 0.66516" stroke-width="1"></path><path stroke="#000000" stroke-linecap="round" stroke-linejoin="round" d="M15.7983 13.1565v1.031" stroke-width="1"></path><path stroke="#000000" stroke-linecap="round" stroke-linejoin="round" d="M15.7983 5.9375v1.031" stroke-width="1"></path></svg>