<svg xmlns="http://www.w3.org/2000/svg" viewBox="0 0 24 24" id="Cashless-Payment-Camera-Product-Scanning-Basket--Streamline-Ultimate"><desc>Cashless Payment Camera Product Scanning Basket Streamline Icon: https://streamlinehq.com</desc><defs></defs><path d="M21.761 17.206h-7.607a1.488 1.488 0 0 0 -1.393 2.01l1.3 3.458a0.743 0.743 0 0 0 0.7 0.483h6.407a0.744 0.744 0 0 0 0.7 -0.483l1.3 -3.458a1.488 1.488 0 0 0 -1.407 -2.01Z" fill="none" stroke="#000000" stroke-linecap="round" stroke-linejoin="round" stroke-width="1"></path><path d="m14.239 17.206 1.487 -3.718" fill="none" stroke="#000000" stroke-linecap="round" stroke-linejoin="round" stroke-width="1"></path><path d="m21.676 17.206 -1.487 -3.718" fill="none" stroke="#000000" stroke-linecap="round" stroke-linejoin="round" stroke-width="1"></path><path d="m16.47 20.925 0 -1.487" fill="none" stroke="#000000" stroke-linecap="round" stroke-linejoin="round" stroke-width="1"></path><path d="m19.445 20.925 0 -1.487" fill="none" stroke="#000000" stroke-linecap="round" stroke-linejoin="round" stroke-width="1"></path><path d="M16.7 10.461a2.466 2.466 0 0 1 3.486 0" fill="none" stroke="#000000" stroke-linecap="round" stroke-linejoin="round" stroke-width="1"></path><path d="M14.96 8.237a4.93 4.93 0 0 1 6.972 0" fill="none" stroke="#000000" stroke-linecap="round" stroke-linejoin="round" stroke-width="1"></path><path d="m12.751 3.476 -3.628 0.857 0.183 -0.67a1.09 1.09 0 0 0 -0.764 -1.34L3.282 0.882a1.091 1.091 0 0 0 -1.34 0.764L0.789 5.855A1.091 1.091 0 0 0 1.553 7.2l5.261 1.436a1.091 1.091 0 0 0 1.34 -0.764l0.183 -0.67 2.685 2.586Z" fill="none" stroke="#000000" stroke-linecap="round" stroke-linejoin="round" stroke-width="1"></path></svg>