<svg xmlns="http://www.w3.org/2000/svg" viewBox="0 0 24 24" id="Cashless-Payment-Smart-Pay-Bus-Smartphone-Qr--Streamline-Ultimate"><desc>Cashless Payment Smart Pay Bus Smartphone Qr Streamline Icon: https://streamlinehq.com</desc><defs></defs><path d="M10.75 23.25h-7a3 3 0 0 1 -3 -3V3.75a3 3 0 0 1 3 -3h7.5a3 3 0 0 1 3 3v5.5" fill="none" stroke="#000000" stroke-linecap="round" stroke-linejoin="round" stroke-width="1"></path><path d="m0.75 19.125 10 0" fill="none" stroke="#000000" stroke-linecap="round" stroke-linejoin="round" stroke-width="1"></path><path d="m3.75 6.375 0 -1.5 1.5 0" fill="none" stroke="#000000" stroke-linecap="round" stroke-linejoin="round" stroke-width="1"></path><path d="M8.25 4.875h3v3h-3Z" fill="none" stroke="#000000" stroke-linecap="round" stroke-linejoin="round" stroke-width="1"></path><path d="M3.75 12.375h3v3h-3Z" fill="none" stroke="#000000" stroke-linecap="round" stroke-linejoin="round" stroke-width="1"></path><path d="m3.75 9.375 3 0" fill="none" stroke="#000000" stroke-linecap="round" stroke-linejoin="round" stroke-width="1"></path><path d="m9 10.875 2.25 0" fill="none" stroke="#000000" stroke-linecap="round" stroke-linejoin="round" stroke-width="1"></path><path d="m10.75 13.875 0 1.5 -1.75 0" fill="none" stroke="#000000" stroke-linecap="round" stroke-linejoin="round" stroke-width="1"></path><path d="M14.5 11.75h7.75s1 0 1 1v7.75s0 1 -1 1H14.5s-1 0 -1 -1v-7.75s0 -1 1 -1" fill="none" stroke="#000000" stroke-linecap="round" stroke-linejoin="round" stroke-width="1"></path><path d="m15 21.5 0 1.5" fill="none" stroke="#000000" stroke-linecap="round" stroke-linejoin="round" stroke-width="1"></path><path d="m21.75 21.5 0 1.5" fill="none" stroke="#000000" stroke-linecap="round" stroke-linejoin="round" stroke-width="1"></path><path d="m13.5 16.25 9.75 0" fill="none" stroke="#000000" stroke-linecap="round" stroke-linejoin="round" stroke-width="1"></path><path d="M16.125 18.5a0.375 0.375 0 0 1 0.375 0.375" fill="none" stroke="#000000" stroke-linecap="round" stroke-linejoin="round" stroke-width="1"></path><path d="M15.75 18.875a0.375 0.375 0 0 1 0.375 -0.375" fill="none" stroke="#000000" stroke-linecap="round" stroke-linejoin="round" stroke-width="1"></path><path d="M16.125 19.25a0.375 0.375 0 0 1 -0.375 -0.375" fill="none" stroke="#000000" stroke-linecap="round" stroke-linejoin="round" stroke-width="1"></path><path d="M16.5 18.875a0.375 0.375 0 0 1 -0.375 0.375" fill="none" stroke="#000000" stroke-linecap="round" stroke-linejoin="round" stroke-width="1"></path><path d="M20.625 18.5a0.375 0.375 0 0 1 0.375 0.375" fill="none" stroke="#000000" stroke-linecap="round" stroke-linejoin="round" stroke-width="1"></path><path d="M20.25 18.875a0.375 0.375 0 0 1 0.375 -0.375" fill="none" stroke="#000000" stroke-linecap="round" stroke-linejoin="round" stroke-width="1"></path><path d="M20.625 19.25a0.375 0.375 0 0 1 -0.375 -0.375" fill="none" stroke="#000000" stroke-linecap="round" stroke-linejoin="round" stroke-width="1"></path><path d="M21 18.875a0.375 0.375 0 0 1 -0.375 0.375" fill="none" stroke="#000000" stroke-linecap="round" stroke-linejoin="round" stroke-width="1"></path></svg>