<svg xmlns="http://www.w3.org/2000/svg" viewBox="0 0 24 24" id="Cashless-Payment-Camera-Product-Scanning-Cart--Streamline-Ultimate"><desc>Cashless Payment Camera Product Scanning Cart Streamline Icon: https://streamlinehq.com</desc><defs></defs><path d="M8.12 21.737a1.513 1.513 0 1 0 3.026 0 1.513 1.513 0 1 0 -3.026 0" fill="none" stroke="#000000" stroke-linecap="round" stroke-linejoin="round" stroke-width="1"></path><path d="M14.172 21.737a1.513 1.513 0 1 0 3.026 0 1.513 1.513 0 1 0 -3.026 0" fill="none" stroke="#000000" stroke-linecap="round" stroke-linejoin="round" stroke-width="1"></path><path d="m13.75 10.541 5.465 0" fill="none" stroke="#000000" stroke-linecap="round" stroke-linejoin="round" stroke-width="1"></path><path d="M23.25 5.75h-0.838a1.816 1.816 0 0 0 -1.754 1.35l-2.615 9.807a1.21 1.21 0 0 1 -1.17 0.9H8.144" fill="none" stroke="#000000" stroke-linecap="round" stroke-linejoin="round" stroke-width="1"></path><path d="M2.228 7.585h7.044s1.478 0 1.478 1.478v4.044s0 1.478 -1.478 1.478H2.228s-1.478 0 -1.478 -1.478V9.063s0 -1.478 1.478 -1.478" fill="none" stroke="#000000" stroke-linecap="round" stroke-linejoin="round" stroke-width="1"></path><path d="m0.75 10.481 10 0" fill="none" stroke="#000000" stroke-linecap="round" stroke-linejoin="round" stroke-width="1"></path><path d="M3.629 4.629a3 3 0 0 1 4.242 0" fill="none" stroke="#000000" stroke-linecap="round" stroke-linejoin="round" stroke-width="1"></path><path d="M1.507 2.507a6 6 0 0 1 8.486 0" fill="none" stroke="#000000" stroke-linecap="round" stroke-linejoin="round" stroke-width="1"></path></svg>