<svg xmlns="http://www.w3.org/2000/svg" fill="none" viewBox="0 0 24 24" id="Cashless-Payment-Online-Statement-Monitor-Yuan--Streamline-Ultimate"><desc>Cashless Payment Online Statement Monitor Yuan Streamline Icon: https://streamlinehq.com</desc><path stroke="#000000" stroke-linecap="round" stroke-linejoin="round" d="M20.354 2.25H3.646C2.18465 2.25 1 3.43465 1 4.896v10.708c0 1.4613 1.18465 2.646 2.646 2.646h16.708c1.4613 0 2.646 -1.1847 2.646 -2.646V4.896c0 -1.46135 -1.1847 -2.646 -2.646 -2.646Z" stroke-width="1"></path><path stroke="#000000" stroke-linecap="round" stroke-linejoin="round" d="M12 18.25v3.5" stroke-width="1"></path><path stroke="#000000" stroke-linecap="round" stroke-linejoin="round" d="M7 21.75h10" stroke-width="1"></path><path stroke="#000000" stroke-linecap="round" stroke-linejoin="round" d="M4.71277 6.42383h6.01203" stroke-width="1"></path><path stroke="#000000" stroke-linecap="round" stroke-linejoin="round" d="M4.71277 10.2495h6.01203" stroke-width="1"></path><path stroke="#000000" stroke-linecap="round" stroke-linejoin="round" d="M4.71277 14.0757h3.006" stroke-width="1"></path><path stroke="#000000" stroke-linecap="round" stroke-linejoin="round" d="m14.8591 6.23156 0 1.74825c0 0.28114 0.0554 0.55953 0.163 0.81926 0.1076 0.25974 0.2653 0.49574 0.4641 0.69454 0.1988 0.19879 0.4348 0.35648 0.6945 0.46407 0.2597 0.10762 0.5381 0.16292 0.8193 0.16292 0.2811 0 0.5595 -0.0553 0.8192 -0.16292 0.2598 -0.10759 0.4958 -0.26528 0.6946 -0.46407 0.1987 -0.1988 0.3564 -0.4348 0.464 -0.69454 0.1076 -0.25973 0.163 -0.53812 0.163 -0.81926V6.23156" stroke-width="1"></path><path stroke="#000000" stroke-linecap="round" stroke-linejoin="round" d="M17.0001 10.1206v4.1468" stroke-width="1"></path><path stroke="#000000" stroke-linecap="round" stroke-linejoin="round" d="M14.8591 12.4404h4.2817" stroke-width="1"></path></svg>