<svg xmlns="http://www.w3.org/2000/svg" fill="none" viewBox="0 0 24 24" id="Cashless-Payment-E-Wallet-Smartphone--Streamline-Ultimate"><desc>Cashless Payment E Wallet Smartphone Streamline Icon: https://streamlinehq.com</desc><path stroke="#000000" stroke-linecap="round" stroke-linejoin="round" d="M7.419 0.75H3.354c-0.5734 0 -1.12331 0.227781 -1.52876 0.63324 -0.40546 0.40545 -0.63324 0.95536 -0.63324 1.52876v18.176c0 0.5734 0.22778 1.1233 0.63324 1.5288 0.40545 0.4054 0.95536 0.6332 1.52876 0.6332h9.177c0.5732 -0.0003 1.1229 -0.2282 1.5281 -0.6336 0.4053 -0.4054 0.6329 -0.9552 0.6329 -1.5284V17.4" stroke-width="1"></path><path stroke="#000000" stroke-linecap="round" stroke-linejoin="round" d="M1.192 19.875h13.5" stroke-width="1"></path><path stroke="#000000" stroke-linecap="round" stroke-linejoin="round" d="m10.984 12.3449 5.516 3.219c0.2393 0.1397 0.5112 0.2138 0.7883 0.2148 0.2771 0.001 0.5495 -0.0711 0.7899 -0.2091 0.2403 -0.1379 0.4399 -0.3368 0.5788 -0.5766 0.1388 -0.2398 0.212 -0.512 0.212 -0.7891V6.94294c0 -0.55046 -0.1443 -1.0913 -0.4185 -1.56857 -0.2743 -0.47727 -0.6689 -0.87428 -1.1445 -1.15143L11.79 0.99994c-0.2393 -0.139688 -0.5112 -0.213772 -0.7883 -0.214773 -0.2771 -0.001002 -0.5495 0.071115 -0.7898 0.20907 -0.24035 0.137953 -0.44001 0.336863 -0.57886 0.576653 -0.13886 0.23979 -0.212 0.51196 -0.21203 0.78905v7.265c-0.00003 0.55046 0.14429 1.09126 0.41854 1.56856 0.27425 0.4773 0.66885 0.8743 1.14445 1.1514v0Z" stroke-width="1"></path><path stroke="#000000" stroke-linecap="round" stroke-linejoin="round" d="M11 0.800049h10.233c0.4177 0 0.8183 0.165937 1.1137 0.461311 0.2954 0.29537 0.4613 0.69597 0.4613 1.11369V12.615" stroke-width="1"></path><path stroke="#000000" d="M15.669 10.1089c-0.2761 0 -0.5 -0.22387 -0.5 -0.50001 0 -0.27615 0.2239 -0.5 0.5 -0.5" stroke-width="1"></path><path stroke="#000000" d="M15.669 10.1089c0.2761 0 0.5 -0.22387 0.5 -0.50001 0 -0.27615 -0.2239 -0.5 -0.5 -0.5" stroke-width="1"></path></svg>