<svg xmlns="http://www.w3.org/2000/svg" viewBox="0 0 24 24" id="Cashless-Payment-Qr-Code-Basket--Streamline-Ultimate"><desc>Cashless Payment Qr Code Basket Streamline Icon: https://streamlinehq.com</desc><defs></defs><path d="M21.585 17.25h-7.67a1.5 1.5 0 0 0 -1.4 2.027l1.308 3.486a0.748 0.748 0 0 0 0.7 0.487h6.46a0.748 0.748 0 0 0 0.7 -0.487l1.308 -3.486a1.5 1.5 0 0 0 -1.406 -2.027Z" fill="none" stroke="#000000" stroke-linecap="round" stroke-linejoin="round" stroke-width="1"></path><path d="m14 17.25 1.5 -3.75" fill="none" stroke="#000000" stroke-linecap="round" stroke-linejoin="round" stroke-width="1"></path><path d="M21.5 17.25 20 13.5" fill="none" stroke="#000000" stroke-linecap="round" stroke-linejoin="round" stroke-width="1"></path><path d="m16.25 21 0 -1.5" fill="none" stroke="#000000" stroke-linecap="round" stroke-linejoin="round" stroke-width="1"></path><path d="m19.25 21 0 -1.5" fill="none" stroke="#000000" stroke-linecap="round" stroke-linejoin="round" stroke-width="1"></path><path d="M9.913 23.25h-6a3 3 0 0 1 -3 -3V3.75a3 3 0 0 1 3 -3h7.5a3 3 0 0 1 3 3v6.5" fill="none" stroke="#000000" stroke-linecap="round" stroke-linejoin="round" stroke-width="1"></path><path d="m0.913 19.125 8.5 0" fill="none" stroke="#000000" stroke-linecap="round" stroke-linejoin="round" stroke-width="1"></path><path d="m3.913 6.375 0 -1.5 1.5 0" fill="none" stroke="#000000" stroke-linecap="round" stroke-linejoin="round" stroke-width="1"></path><path d="M8.413 4.875h3v3h-3Z" fill="none" stroke="#000000" stroke-linecap="round" stroke-linejoin="round" stroke-width="1"></path><path d="M3.913 12.375h3v3h-3Z" fill="none" stroke="#000000" stroke-linecap="round" stroke-linejoin="round" stroke-width="1"></path><path d="m3.913 9.375 3 0" fill="none" stroke="#000000" stroke-linecap="round" stroke-linejoin="round" stroke-width="1"></path><path d="m9.163 10.875 2.25 0" fill="none" stroke="#000000" stroke-linecap="round" stroke-linejoin="round" stroke-width="1"></path><path d="m11.413 13.875 0 1.5 -2.25 0" fill="none" stroke="#000000" stroke-linecap="round" stroke-linejoin="round" stroke-width="1"></path></svg>