<svg xmlns="http://www.w3.org/2000/svg" fill="none" viewBox="0 0 24 24" id="Contactless-Payment-Euro--Streamline-Ultimate"><desc>Contactless Payment Euro Streamline Icon: https://streamlinehq.com</desc><path stroke="#000000" stroke-linecap="round" stroke-linejoin="round" d="m23.25 10.825 -3.895 -3.02599c-0.686 -0.53418 -1.5436 -0.79922 -2.4114 -0.74526 -0.8678 0.05396 -1.686 0.42321 -2.3006 1.03826l-0.305 0.306" stroke-width="1"></path><path stroke="#000000" stroke-linecap="round" stroke-linejoin="round" d="M0.75 6.15098c0 -1.43217 0.56893 -2.80568 1.58162 -3.81838C3.34432 1.3199 4.71783 0.750977 6.15 0.750977" stroke-width="1"></path><path stroke="#000000" stroke-linecap="round" stroke-linejoin="round" d="M3.45001 6.47879c0 -0.85956 0.34146 -1.68392 0.94927 -2.29173 0.6078 -0.60781 1.43217 -0.94927 2.29173 -0.94927" stroke-width="1"></path><path stroke="#000000" stroke-linecap="round" stroke-linejoin="round" d="m4.22101 9.3291 -0.733 0.733c-0.10035 0.1002 -0.17997 0.2192 -0.23428 0.3502 -0.05432 0.131 -0.08228 0.2715 -0.08228 0.4133 0 0.1418 0.02796 0.2823 0.08228 0.4133 0.05431 0.131 0.13393 0.25 0.23428 0.3502l9.27499 9.276c0.1003 0.1004 0.2194 0.18 0.3505 0.2344 0.1311 0.0543 0.2716 0.0823 0.4135 0.0823 0.1419 0 0.2824 -0.028 0.4135 -0.0823 0.1311 -0.0544 0.2502 -0.134 0.3505 -0.2344l1.119 -1.135" stroke-width="1"></path><path stroke="#000000" stroke-linecap="round" stroke-linejoin="round" d="m18.2 16.9991 1.589 -1.629c0.1004 -0.1002 0.18 -0.2192 0.2343 -0.3502 0.0543 -0.131 0.0823 -0.2714 0.0823 -0.4133 0 -0.1418 -0.028 -0.2822 -0.0823 -0.4132s-0.1339 -0.25 -0.2343 -0.3503L10.51 4.56714c-0.1003 -0.10039 -0.2194 -0.18002 -0.3505 -0.23435 -0.1311 -0.05434 -0.27157 -0.0823 -0.41347 -0.0823 -0.14191 0 -0.28242 0.02796 -0.41351 0.0823 -0.13109 0.05433 -0.25019 0.13396 -0.35049 0.23435L4.21805 9.3311" stroke-width="1"></path><path stroke="#000000" stroke-linecap="round" stroke-linejoin="round" d="m15.57 15.264 2.817 -2.817" stroke-width="1"></path><path stroke="#000000" stroke-linecap="round" stroke-linejoin="round" d="m11.367 19.4681 1.951 -1.952" stroke-width="1"></path><path stroke="#000000" stroke-linecap="round" stroke-linejoin="round" d="m23.25 23.249 -5.143 -1.714c-0.8802 -0.2935 -1.68 -0.7879 -2.336 -1.444l-2.137 -2.137c-0.2947 -0.2946 -0.4693 -0.6883 -0.4899 -1.1046 -0.0205 -0.4162 0.1145 -0.8252 0.3787 -1.1474 0.2643 -0.3222 0.6389 -0.5347 1.0511 -0.596 0.4122 -0.0614 0.8324 0.0327 1.1791 0.264l3.716 2.477" stroke-width="1"></path><path stroke="#000000" stroke-linecap="round" stroke-linejoin="round" d="m9.43842 7.85162 -0.32958 0.32958c-0.5683 0.5683 -0.88757 1.33908 -0.88757 2.1428 0 0.8037 0.31927 1.5744 0.88757 2.1427s1.33906 0.8876 2.14276 0.8876c0.8037 0 1.5745 -0.3193 2.1428 -0.8876l0.3296 -0.3295" stroke-width="1"></path><path stroke="#000000" stroke-linecap="round" stroke-linejoin="round" d="m8.46277 13.1125 2.61323 -2.6132" stroke-width="1"></path></svg>