<svg xmlns="http://www.w3.org/2000/svg" fill="none" viewBox="0 0 24 24" id="Electronic-Billing-Monitor-Euro--Streamline-Ultimate"><desc>Electronic Billing Monitor Euro Streamline Icon: https://streamlinehq.com</desc><path stroke="#000000" stroke-linecap="round" stroke-linejoin="round" d="M6.28589 23.0879h8.81801" stroke-width="1"></path><path stroke="#000000" stroke-linecap="round" stroke-linejoin="round" d="M10.6951 23.088v-4.409" stroke-width="1"></path><path stroke="#000000" stroke-linecap="round" stroke-linejoin="round" d="M19.5119 17.0131v0.666c0 0.2652 -0.1053 0.5196 -0.2929 0.7071 -0.1875 0.1875 -0.4419 0.2929 -0.7071 0.2929H2.87793c-0.26522 0 -0.51957 -0.1054 -0.70711 -0.2929 -0.18753 -0.1875 -0.29289 -0.4419 -0.29289 -0.7071V6.4541c0 -0.26521 0.10536 -0.51957 0.29289 -0.70711 0.18754 -0.18753 0.44189 -0.29289 0.70711 -0.29289h4.744" stroke-width="1"></path><path stroke="#000000" stroke-linecap="round" stroke-linejoin="round" d="M21.1221 0.912109h-10c-0.2652 0 -0.5196 0.105361 -0.7071 0.292891 -0.1876 0.18754 -0.2929 0.44189 -0.2929 0.70711V14.9121l2 -1.526 2 1.552 2 -1.526 2 1.5 2 -1.5 2 1.5V1.91211c0 -0.26522 -0.1054 -0.51957 -0.2929 -0.70711 -0.1876 -0.18753 -0.4419 -0.292891 -0.7071 -0.292891v0Z" stroke-width="1"></path><path stroke="#000000" stroke-linecap="round" stroke-linejoin="round" d="M17.6797 3.91748h-0.4955c-0.8543 0 -1.6737 0.33939 -2.2778 0.9435 -0.6041 0.60411 -0.9435 1.42347 -0.9435 2.27781 0 0.85435 0.3394 1.6737 0.9435 2.27782 0.6041 0.60409 1.4235 0.94349 2.2778 0.94349h0.4955" stroke-width="1"></path><path stroke="#000000" stroke-linecap="round" stroke-linejoin="round" d="m13.1956 7.13867 3.7249 0" stroke-width="1"></path></svg>