<svg xmlns="http://www.w3.org/2000/svg" fill="none" viewBox="0 0 24 24" id="Electronic-Billing-Monitor--Streamline-Ultimate"><desc>Electronic Billing Monitor Streamline Icon: https://streamlinehq.com</desc><path stroke="#000000" stroke-linecap="round" stroke-linejoin="round" d="M6.28589 23.0879h8.81801" stroke-width="1"></path><path stroke="#000000" stroke-linecap="round" stroke-linejoin="round" d="M10.6951 23.088v-4.409" stroke-width="1"></path><path stroke="#000000" stroke-linecap="round" stroke-linejoin="round" d="M19.5119 17.0131v0.666c0 0.2652 -0.1053 0.5196 -0.2929 0.7071 -0.1875 0.1875 -0.4419 0.2929 -0.7071 0.2929H2.87793c-0.26522 0 -0.51957 -0.1054 -0.70711 -0.2929 -0.18753 -0.1875 -0.29289 -0.4419 -0.29289 -0.7071V6.4541c0 -0.26521 0.10536 -0.51957 0.29289 -0.70711 0.18754 -0.18753 0.44189 -0.29289 0.70711 -0.29289h4.744" stroke-width="1"></path><path stroke="#000000" stroke-linecap="round" stroke-linejoin="round" d="M21.1221 0.912109h-10c-0.2652 0 -0.5196 0.105361 -0.7071 0.292891 -0.1876 0.18754 -0.2929 0.44189 -0.2929 0.70711V14.9121l2 -1.526 2 1.552 2 -1.526 2 1.5 2 -1.5 2 1.5V1.91211c0 -0.26522 -0.1054 -0.51957 -0.2929 -0.70711 -0.1876 -0.18753 -0.4419 -0.292891 -0.7071 -0.292891v0Z" stroke-width="1"></path><path stroke="#000000" stroke-linecap="round" stroke-linejoin="round" d="M14.5439 9.07714c0.1838 0.24186 0.4232 0.43576 0.698 0.56522 0.2748 0.12946 0.5767 0.19064 0.8802 0.17835 0.9675 0 1.7518 -0.58913 1.7518 -1.31449 0 -0.72535 -0.7809 -1.31362 -1.7518 -1.31362s-1.7517 -0.58827 -1.7517 -1.31449 0.7808 -1.31362 1.7517 -1.31362c0.3034 -0.0121 0.6053 0.04908 0.88 0.17837 0.2747 0.12928 0.5142 0.32286 0.6983 0.56434" stroke-width="1"></path><path stroke="#000000" stroke-linecap="round" stroke-linejoin="round" d="M16.1221 9.8208v0.8755" stroke-width="1"></path><path stroke="#000000" stroke-linecap="round" stroke-linejoin="round" d="M16.1221 3.68921v0.87546" stroke-width="1"></path></svg>