<svg xmlns="http://www.w3.org/2000/svg" fill="none" viewBox="0 0 24 24" id="Electronic-Billing-Laptop-Notebook-Euro--Streamline-Ultimate"><desc>Electronic Billing Laptop Notebook Euro Streamline Icon: https://streamlinehq.com</desc><path stroke="#000000" stroke-linecap="round" stroke-linejoin="round" d="M22.962 21.71c0.0605 0.1203 0.0891 0.2541 0.0832 0.3886 -0.0059 0.1345 -0.0462 0.2653 -0.117 0.3798 -0.0708 0.1145 -0.1697 0.209 -0.2874 0.2744 -0.1177 0.0654 -0.2502 0.0996 -0.3848 0.0992H1.74397c-0.13464 0.0004 -0.26712 -0.0338 -0.3848 -0.0992 -0.11769 -0.0654 -0.21665 -0.1599 -0.28745 -0.2744 -0.0708 -0.1145 -0.111073 -0.2453 -0.116981 -0.3798 -0.005908 -0.1345 0.022747 -0.2683 0.083231 -0.3886l3.072 -5.169H19.89l3.072 5.169Z" stroke-width="1"></path><path stroke="#000000" stroke-linecap="round" stroke-linejoin="round" d="M19.89 16.541H4.10999V6c0 -0.13261 0.05267 -0.25979 0.14644 -0.35355 0.09377 -0.09377 0.22095 -0.14645 0.35356 -0.14645h3.435" stroke-width="1"></path><path stroke="#000000" stroke-linecap="round" stroke-linejoin="round" d="M11.2111 19.696h1.578" stroke-width="1"></path><path stroke="#000000" stroke-linecap="round" stroke-linejoin="round" d="M22.045 1.14795h-10c-0.2652 0 -0.5195 0.10536 -0.7071 0.29289 -0.1875 0.18754 -0.2929 0.44189 -0.2929 0.70711V14.1479l2 -1.526 2 1.552 2 -1.526 2 1.5 2 -1.5 2 1.5V2.14795c0 -0.26522 -0.1053 -0.51957 -0.2928 -0.70711 -0.1876 -0.18753 -0.4419 -0.29289 -0.7072 -0.29289Z" stroke-width="1"></path><path stroke="#000000" stroke-linecap="round" stroke-linejoin="round" d="M18.7767 3.76196h-0.4955c-0.8543 0 -1.6736 0.33939 -2.2778 0.9435 -0.6041 0.60412 -0.9435 1.42347 -0.9435 2.27782 0 0.85434 0.3394 1.67369 0.9435 2.27781 0.6042 0.60411 1.4235 0.94351 2.2778 0.94351h0.4955" stroke-width="1"></path><path stroke="#000000" stroke-linecap="round" stroke-linejoin="round" d="m14.2926 6.98315 3.725 0" stroke-width="1"></path></svg>