<svg xmlns="http://www.w3.org/2000/svg" fill="none" viewBox="0 0 24 24" id="Self-Payment--Streamline-Ultimate"><desc>Self Payment Streamline Icon: https://streamlinehq.com</desc><path stroke="#000000" stroke-linecap="round" stroke-linejoin="round" d="M15.529 9.81467c0.216 0.28593 0.498 0.51523 0.8219 0.66853 0.3239 0.1532 0.68 0.2258 1.0381 0.2115 1.14 0 2.06 -0.69 2.06 -1.55003 0 -0.86 -0.92 -1.54 -2.06 -1.54 -1.14 0 -2.06 -0.7 -2.06 -1.55 0 -0.85 0.92 -1.58 2.06 -1.58 0.358 -0.01431 0.7142 0.05825 1.0381 0.21149 0.3239 0.15325 0.6059 0.38261 0.8219 0.66851" stroke-width="1"></path><path stroke="#000000" stroke-linecap="round" stroke-linejoin="round" d="M17.389 10.6946v1.03" stroke-width="1"></path><path stroke="#000000" stroke-linecap="round" stroke-linejoin="round" d="M17.389 3.47461v0.99829" stroke-width="1"></path><path stroke="#000000" stroke-linecap="round" stroke-linejoin="round" d="M22.5 22.2498v-3.3023c0 -0.5523 -0.4477 -1 -1 -1h-19c-0.55228 0 -1 0.4477 -1 1v3.3023c0 0.5523 0.44772 1 1 1h19c0.5523 0 1 -0.4477 1 -1Z" stroke-width="1"></path><path stroke="#000000" stroke-linecap="round" stroke-linejoin="round" d="M9.80469 14.4495 7.53735 17.948" stroke-width="1"></path><path stroke="#000000" stroke-linecap="round" stroke-linejoin="round" d="m14.1953 14.4495 2.2673 3.4985" stroke-width="1"></path><path stroke="#000000" stroke-linecap="round" stroke-linejoin="round" d="M21.5 0.750244h-19c-0.55228 0 -1 0.447716 -1 0.999996V13.4494c0 0.5523 0.44772 1 1 1h19c0.5523 0 1 -0.4477 1 -1V1.75024c0 -0.55228 -0.4477 -0.999996 -1 -0.999996Z" stroke-width="1"></path><path stroke="#000000" stroke-linecap="round" stroke-linejoin="round" d="M7.09588 3.52173H4.26562v2.83025h2.83026V3.52173Z" stroke-width="1"></path><path stroke="#000000" stroke-linecap="round" stroke-linejoin="round" d="M7.09588 8.8479H4.26562v2.8303h2.83026V8.8479Z" stroke-width="1"></path><path stroke="#000000" stroke-linecap="round" stroke-linejoin="round" d="M12.4924 3.52173H9.66211v2.83025h2.83029V3.52173Z" stroke-width="1"></path><path stroke="#000000" stroke-linecap="round" stroke-linejoin="round" d="M12.4924 8.8479H9.66211v2.8303h2.83029V8.8479Z" stroke-width="1"></path></svg>