<svg xmlns="http://www.w3.org/2000/svg" fill="none" viewBox="0 0 24 24" id="Self-Payment-Pound--Streamline-Ultimate"><desc>Self Payment Pound Streamline Icon: https://streamlinehq.com</desc><path stroke="#000000" stroke-linecap="round" stroke-linejoin="round" d="M22.5 22.2498v-3.3023c0 -0.5523 -0.4477 -1 -1 -1h-19c-0.55228 0 -1 0.4477 -1 1v3.3023c0 0.5523 0.44772 1 1 1h19c0.5523 0 1 -0.4477 1 -1Z" stroke-width="1"></path><path stroke="#000000" stroke-linecap="round" stroke-linejoin="round" d="M9.80469 14.4495 7.53735 17.948" stroke-width="1"></path><path stroke="#000000" stroke-linecap="round" stroke-linejoin="round" d="m14.1953 14.4495 2.2673 3.4985" stroke-width="1"></path><path stroke="#000000" stroke-linecap="round" stroke-linejoin="round" d="M21.5 0.750244h-19c-0.55228 0 -1 0.447716 -1 0.999996V13.4494c0 0.5523 0.44772 1 1 1h19c0.5523 0 1 -0.4477 1 -1V1.75024c0 -0.55228 -0.4477 -0.999996 -1 -0.999996Z" stroke-width="1"></path><path stroke="#000000" stroke-linecap="round" stroke-linejoin="round" d="M7.09588 3.52173H4.26562v2.83025h2.83026V3.52173Z" stroke-width="1"></path><path stroke="#000000" stroke-linecap="round" stroke-linejoin="round" d="M7.09588 8.8479H4.26562v2.8303h2.83026V8.8479Z" stroke-width="1"></path><path stroke="#000000" stroke-linecap="round" stroke-linejoin="round" d="M12.4924 3.52173H9.66211v2.83025h2.83029V3.52173Z" stroke-width="1"></path><path stroke="#000000" stroke-linecap="round" stroke-linejoin="round" d="M12.4924 8.8479H9.66211v2.8303h2.83029V8.8479Z" stroke-width="1"></path><path stroke="#000000" stroke-linecap="round" stroke-linejoin="round" d="M19.6287 5.14321c0 -0.38012 -0.151 -0.74467 -0.4198 -1.01346 -0.2687 -0.26879 -0.6333 -0.41979 -1.0134 -0.41979 -0.3801 0 -0.7447 0.151 -1.0135 0.41979 -0.2688 0.26879 -0.4198 0.63334 -0.4198 1.01346v4.29976c0 0.78063 -0.6525 1.43323 -1.4332 1.43323h4.2997" stroke-width="1"></path><path stroke="#000000" stroke-linecap="round" stroke-linejoin="round" d="M15.329 7.86743h4.2997" stroke-width="1"></path></svg>