<svg xmlns="http://www.w3.org/2000/svg" fill="none" viewBox="0 0 24 24" id="Smartphone-Pay-Dollar-2--Streamline-Ultimate"><desc>Smartphone Pay Dollar 2 Streamline Icon: https://streamlinehq.com</desc><path stroke="#000000" stroke-linecap="round" stroke-linejoin="round" d="M8.75 23.25h-6.5c-0.39782 0 -0.77936 -0.158 -1.06066 -0.4393C0.908035 22.5294 0.75 22.1478 0.75 21.75V2.25c0 -0.39782 0.158035 -0.77936 0.43934 -1.06066C1.47064 0.908035 1.85218 0.75 2.25 0.75h10.5c0.3978 0 0.7794 0.158035 1.0607 0.43934 0.2813 0.2813 0.4393 0.66284 0.4393 1.06066v4.5" stroke-width="1"></path><path stroke="#000000" stroke-linecap="round" stroke-linejoin="round" d="M0.75 18.75h6" stroke-width="1"></path><path stroke="#000000" stroke-linecap="round" stroke-linejoin="round" d="M16.5 23.25c3.7279 0 6.75 -3.0221 6.75 -6.75s-3.0221 -6.75 -6.75 -6.75 -6.75 3.0221 -6.75 6.75 3.0221 6.75 6.75 6.75Z" stroke-width="1"></path><path stroke="#000000" stroke-linecap="round" stroke-linejoin="round" d="M14.6395 18.7191c0.2166 0.2845 0.4985 0.5125 0.822 0.6648 0.3234 0.1523 0.6788 0.2244 1.036 0.2102 1.139 0 2.063 -0.693 2.063 -1.547s-0.924 -1.546 -2.063 -1.546c-1.139 0 -2.058 -0.693 -2.058 -1.548 0 -0.855 0.924 -1.547 2.062 -1.547 0.3573 -0.0145 0.7127 0.0575 1.0362 0.2099 0.3235 0.1523 0.6054 0.3805 0.8218 0.6651" stroke-width="1"></path><path stroke="#000000" stroke-linecap="round" stroke-linejoin="round" d="M16.5015 19.594v1.031" stroke-width="1"></path><path stroke="#000000" stroke-linecap="round" stroke-linejoin="round" d="M16.5015 12.375v1.031" stroke-width="1"></path></svg>