<svg xmlns="http://www.w3.org/2000/svg" fill="none" viewBox="0 0 24 24" id="Smartphone-Pay-Dollar--Streamline-Ultimate"><desc>Smartphone Pay Dollar Streamline Icon: https://streamlinehq.com</desc><path stroke="#000000" stroke-linecap="round" stroke-linejoin="round" d="M12.52 8.34003c0.2139 0.28574 0.494 0.51516 0.8163 0.66847 0.3223 0.15331 0.6771 0.22591 1.0337 0.21153 1.14 0 2.07 -0.69 2.07 -1.55 0 -0.86 -0.93 -1.54 -2.07 -1.54 -1.14 0 -2.06 -0.7 -2.06 -1.55 0 -0.85 0.93 -1.58 2.06 -1.58 0.3582 -0.01517 0.7146 0.05701 1.0387 0.21032 0.324 0.15331 0.6059 0.38314 0.8213 0.66968" stroke-width="1"></path><path stroke="#000000" stroke-linecap="round" stroke-linejoin="round" d="M14.37 9.21997V10.75" stroke-width="1"></path><path stroke="#000000" stroke-linecap="round" stroke-linejoin="round" d="M14.37 1.5v1.53" stroke-width="1"></path><path stroke="#000000" stroke-linecap="round" stroke-linejoin="round" d="M12.75 15v6.75c0 0.3978 -0.158 0.7794 -0.4393 1.0607s-0.6629 0.4393 -1.0607 0.4393h-9c-0.39782 0 -0.77936 -0.158 -1.06066 -0.4393C0.908035 22.5294 0.75 22.1478 0.75 21.75V5.25c0 -0.39782 0.158035 -0.77936 0.43934 -1.06066 0.2813 -0.2813 0.66284 -0.43934 1.06066 -0.43934" stroke-width="1"></path><path stroke="#000000" stroke-linecap="round" stroke-linejoin="round" d="M0.75 19h12" stroke-width="1"></path><path stroke="#000000" stroke-linecap="round" stroke-linejoin="round" d="M10.5 11.75H6.75c-0.39782 0 -0.77936 -0.158 -1.06066 -0.4393 -0.2813 -0.2813 -0.43934 -0.6629 -0.43934 -1.0607v-8c0 -0.39782 0.15804 -0.77936 0.43934 -1.06066C5.97064 0.908035 6.35218 0.75 6.75 0.75h3.75" stroke-width="1"></path><path stroke="#000000" stroke-linecap="round" stroke-linejoin="round" d="M18 0.75h3.75c0.3978 0 0.7794 0.158035 1.0607 0.43934 0.2813 0.2813 0.4393 0.66284 0.4393 1.06066v8c0 0.3978 -0.158 0.7794 -0.4393 1.0607s-0.6629 0.4393 -1.0607 0.4393H18" stroke-width="1"></path></svg>