<svg xmlns="http://www.w3.org/2000/svg" fill="none" viewBox="0 0 24 24" id="Smartphone-Pay-Euro-2--Streamline-Ultimate"><desc>Smartphone Pay Euro 2 Streamline Icon: https://streamlinehq.com</desc><path stroke="#000000" stroke-linecap="round" stroke-linejoin="round" d="M8.75 23.25h-6.5c-0.39782 0 -0.77936 -0.158 -1.06066 -0.4393C0.908035 22.5294 0.75 22.1478 0.75 21.75V2.25c0 -0.39782 0.158035 -0.77936 0.43934 -1.06066C1.47064 0.908035 1.85218 0.75 2.25 0.75h10.5c0.3978 0 0.7794 0.158035 1.0607 0.43934 0.2813 0.2813 0.4393 0.66284 0.4393 1.06066v4.5" stroke-width="1"></path><path stroke="#000000" stroke-linecap="round" stroke-linejoin="round" d="M0.75 18.75h6" stroke-width="1"></path><path stroke="#000000" stroke-linecap="round" stroke-linejoin="round" d="M16.5 23.25c3.7279 0 6.75 -3.0221 6.75 -6.75s-3.0221 -6.75 -6.75 -6.75 -6.75 3.0221 -6.75 6.75 3.0221 6.75 6.75 6.75Z" stroke-width="1"></path><path stroke="#000000" stroke-linecap="round" stroke-linejoin="round" d="M18.0451 13.1094h-0.5215c-0.8992 0 -1.7616 0.3572 -2.3974 0.993 -0.6359 0.6359 -0.9931 1.4983 -0.9931 2.3975s0.3572 1.7616 0.9931 2.3974c0.6358 0.6359 1.4982 0.9931 2.3974 0.9931h0.5215" stroke-width="1"></path><path stroke="#000000" stroke-linecap="round" stroke-linejoin="round" d="M13.111 16.4998h4.135" stroke-width="1"></path></svg>