<svg xmlns="http://www.w3.org/2000/svg" fill="none" viewBox="0 0 24 24" id="Smartphone-Pay-Yuan-2--Streamline-Ultimate"><desc>Smartphone Pay Yuan 2 Streamline Icon: https://streamlinehq.com</desc><path stroke="#000000" stroke-linecap="round" stroke-linejoin="round" d="M8.75 23.25h-6.5c-0.39782 0 -0.77936 -0.158 -1.06066 -0.4393C0.908035 22.5294 0.75 22.1478 0.75 21.75V2.25c0 -0.39782 0.158035 -0.77936 0.43934 -1.06066C1.47064 0.908035 1.85218 0.75 2.25 0.75h10.5c0.3978 0 0.7794 0.158035 1.0607 0.43934 0.2813 0.2813 0.4393 0.66284 0.4393 1.06066v4.5" stroke-width="1"></path><path stroke="#000000" stroke-linecap="round" stroke-linejoin="round" d="M0.75 18.75h6" stroke-width="1"></path><path stroke="#000000" stroke-linecap="round" stroke-linejoin="round" d="M16.5 23.25c3.7279 0 6.75 -3.0221 6.75 -6.75s-3.0221 -6.75 -6.75 -6.75 -6.75 3.0221 -6.75 6.75 3.0221 6.75 6.75 6.75Z" stroke-width="1"></path><path stroke="#000000" stroke-linecap="round" stroke-linejoin="round" d="M14.5726 13.337v1.574c0 0.2531 0.0499 0.5037 0.1467 0.7375 0.0969 0.2339 0.2389 0.4464 0.4179 0.6253 0.1789 0.179 0.3914 0.321 0.6252 0.4178 0.2339 0.0969 0.4845 0.1468 0.7376 0.1468 0.2531 0 0.5038 -0.0499 0.7376 -0.1468 0.2338 -0.0968 0.4463 -0.2388 0.6253 -0.4178 0.179 -0.1789 0.3209 -0.3914 0.4178 -0.6253 0.0968 -0.2338 0.1467 -0.4844 0.1467 -0.7375v-1.574" stroke-width="1"></path><path stroke="#000000" stroke-linecap="round" stroke-linejoin="round" d="M16.5001 16.8384v3.7333" stroke-width="1"></path><path stroke="#000000" stroke-linecap="round" stroke-linejoin="round" d="M14.5726 18.927h3.8548" stroke-width="1"></path></svg>