<svg xmlns="http://www.w3.org/2000/svg" fill="none" viewBox="0 0 24 24" id="Smartphone-Pay-Yuan-1--Streamline-Ultimate"><desc>Smartphone Pay Yuan 1 Streamline Icon: https://streamlinehq.com</desc><path stroke="#000000" stroke-linecap="round" stroke-linejoin="round" d="M12.75 16.5v5.25c0 0.3978 -0.158 0.7794 -0.4393 1.0607s-0.6629 0.4393 -1.0607 0.4393h-9c-0.39782 0 -0.77936 -0.158 -1.06066 -0.4393C0.908035 22.5294 0.75 22.1478 0.75 21.75v-18c0 -0.39782 0.158035 -0.77936 0.43934 -1.06066 0.2813 -0.2813 0.66284 -0.43934 1.06066 -0.43934H7.5" stroke-width="1"></path><path stroke="#000000" stroke-linecap="round" stroke-linejoin="round" d="M0.75 18.75h12" stroke-width="1"></path><path stroke="#000000" stroke-linecap="round" stroke-linejoin="round" d="M16.5 14.25c3.7279 0 6.75 -3.0221 6.75 -6.75 0 -3.72792 -3.0221 -6.75 -6.75 -6.75S9.75 3.77208 9.75 7.5c0 3.7279 3.0221 6.75 6.75 6.75Z" stroke-width="1"></path><path stroke="#000000" stroke-linecap="round" stroke-linejoin="round" d="M14.5726 4.39195V5.9659c0 0.25311 0.0499 0.50374 0.1467 0.73758 0.0969 0.23384 0.2389 0.44631 0.4179 0.62528 0.1789 0.17898 0.3914 0.32095 0.6252 0.41781 0.2339 0.09686 0.4845 0.14671 0.7376 0.14671 0.2531 0 0.5038 -0.04985 0.7376 -0.14671s0.4463 -0.23883 0.6253 -0.41781c0.179 -0.17897 0.3209 -0.39144 0.4178 -0.62528 0.0968 -0.23384 0.1467 -0.48447 0.1467 -0.73758V4.39195" stroke-width="1"></path><path stroke="#000000" stroke-linecap="round" stroke-linejoin="round" d="M16.5001 7.89331v3.73329" stroke-width="1"></path><path stroke="#000000" stroke-linecap="round" stroke-linejoin="round" d="M14.5726 9.98193h3.8548" stroke-width="1"></path></svg>