<svg xmlns="http://www.w3.org/2000/svg" fill="none" viewBox="0 0 24 24" id="Smartphone-Pay-Pound--Streamline-Ultimate"><desc>Smartphone Pay Pound Streamline Icon: https://streamlinehq.com</desc><path stroke="#000000" stroke-linecap="round" stroke-linejoin="round" d="M12.75 15v6.75c0 0.3978 -0.158 0.7794 -0.4393 1.0607s-0.6629 0.4393 -1.0607 0.4393h-9c-0.39782 0 -0.77936 -0.158 -1.06066 -0.4393C0.908035 22.5294 0.75 22.1478 0.75 21.75V5.25c0 -0.39782 0.158035 -0.77936 0.43934 -1.06066 0.2813 -0.2813 0.66284 -0.43934 1.06066 -0.43934" stroke-width="1"></path><path stroke="#000000" stroke-linecap="round" stroke-linejoin="round" d="M0.75 19h12" stroke-width="1"></path><path stroke="#000000" stroke-linecap="round" stroke-linejoin="round" d="M11.2463 11.75H6.75c-0.39782 0 -0.77936 -0.158 -1.06066 -0.4393 -0.2813 -0.2813 -0.43934 -0.6629 -0.43934 -1.0607v-8c0 -0.39782 0.15804 -0.77936 0.43934 -1.06066C5.97064 0.908035 6.35218 0.75 6.75 0.75l4.4963 0" stroke-width="1"></path><path stroke="#000000" stroke-linecap="round" stroke-linejoin="round" d="m17.7336 0.75 4.0164 0c0.3978 0 0.7793 0.158035 1.0606 0.43934 0.2813 0.2813 0.4394 0.66284 0.4394 1.06066v8c0 0.3978 -0.1581 0.7794 -0.4394 1.0607s-0.6628 0.4393 -1.0606 0.4393h-4.0164" stroke-width="1"></path><path stroke="#000000" stroke-linecap="round" stroke-linejoin="round" d="M16.0686 3.68164c0 -0.35969 -0.1429 -0.70464 -0.3972 -0.95898 -0.2544 -0.25434 -0.5993 -0.39722 -0.959 -0.39722 -0.3597 0 -0.7046 0.14288 -0.959 0.39722 -0.2543 0.25434 -0.3972 0.59929 -0.3972 0.95898v4.0686c0 0.73871 -0.6175 1.35621 -1.3562 1.35621h4.0686" stroke-width="1"></path><path stroke="#000000" stroke-linecap="round" stroke-linejoin="round" d="M12 6.25952h4.0686" stroke-width="1"></path></svg>