<svg xmlns="http://www.w3.org/2000/svg" fill="none" viewBox="0 0 24 24" id="Smartphone-Payment-Touch-Pound--Streamline-Ultimate"><desc>Smartphone Payment Touch Pound Streamline Icon: https://streamlinehq.com</desc><path stroke="#000000" stroke-linecap="round" stroke-linejoin="round" d="M13.4253 3.25684h7c1.3807 0 2.5 1.11928 2.5 2.5V20.7117c0 1.3807 -1.1193 2.5 -2.5 2.5h-7c-1.3807 0 -2.5 -1.1193 -2.5 -2.5v-4.2374" stroke-width="1"></path><path stroke="#000000" stroke-linecap="round" stroke-linejoin="round" d="M10.9253 19.4619h12" stroke-width="1"></path><path stroke="#000000" stroke-linecap="round" stroke-linejoin="round" d="M18.8359 7.8623h-0.5214c-0.8993 0 -1.7617 0.35722 -2.3975 0.99306 -0.6358 0.63584 -0.993 1.49824 -0.993 2.39744s0.3572 1.7616 0.993 2.3975c0.6358 0.6358 1.4982 0.993 2.3975 0.993h0.5214" stroke-width="1"></path><path stroke="#000000" stroke-linecap="round" stroke-linejoin="round" d="M13.9019 11.2527h4.1349" stroke-width="1"></path><path stroke="#000000" stroke-linecap="round" stroke-linejoin="round" d="M6.01221 0.788086c1.30302 0 2.55267 0.517624 3.47405 1.439004 0.92134 0.92137 1.43904 2.17102 1.43904 3.47405v4.59676" stroke-width="1"></path><path stroke="#000000" stroke-linecap="round" stroke-linejoin="round" d="M9.67264 13.2734c-0.66176 0.7504 -1.53683 1.2809 -2.50822 1.5205 -0.97139 0.2396 -1.99278 0.177 -2.92759 -0.1796 -0.93482 -0.3566 -1.73849 -0.99 -2.30355 -1.8157 -0.56506 -0.8257 -0.86457 -1.8042 -0.85848 -2.80464l0.00022 -4.29107c0.00025 -0.97568 0.29101 -1.9292 0.83522 -2.73902" stroke-width="1"></path><path stroke="#000000" stroke-linecap="round" stroke-linejoin="round" d="M3.55615 9.87336c0 0.65154 0.25881 1.27634 0.7195 1.73704 0.46069 0.4607 1.08552 0.7195 1.73703 0.7195s1.27634 -0.2588 1.73702 -0.7195c0.46069 -0.4607 0.7195 -1.0855 0.7195 -1.73704V5.70164c0 -0.65151 -0.25881 -1.27634 -0.7195 -1.73702 -0.46068 -0.46069 -1.08551 -0.7195 -1.73702 -0.7195s-1.27634 0.25881 -1.73703 0.7195c-0.46069 0.46068 -0.7195 1.08551 -0.7195 1.73702" stroke-width="1"></path><path stroke="#000000" stroke-linecap="round" stroke-linejoin="round" d="m5.64404 7.12012 0 1.33508" stroke-width="1"></path></svg>