<svg xmlns="http://www.w3.org/2000/svg" fill="none" viewBox="0 0 24 24" id="Smartphone-Pay-Euro--Streamline-Ultimate"><desc>Smartphone Pay Euro Streamline Icon: https://streamlinehq.com</desc><path stroke="#000000" stroke-linecap="round" stroke-linejoin="round" d="M12.75 15v6.75c0 0.3978 -0.158 0.7794 -0.4393 1.0607s-0.6629 0.4393 -1.0607 0.4393h-9c-0.39782 0 -0.77936 -0.158 -1.06066 -0.4393C0.908035 22.5294 0.75 22.1478 0.75 21.75V5.25c0 -0.39782 0.158035 -0.77936 0.43934 -1.06066 0.2813 -0.2813 0.66284 -0.43934 1.06066 -0.43934" stroke-width="1"></path><path stroke="#000000" stroke-linecap="round" stroke-linejoin="round" d="M0.75 19h12" stroke-width="1"></path><path stroke="#000000" stroke-linecap="round" stroke-linejoin="round" d="M11.2463 11.75H6.75c-0.39782 0 -0.77936 -0.158 -1.06066 -0.4393 -0.2813 -0.2813 -0.43934 -0.6629 -0.43934 -1.0607v-8c0 -0.39782 0.15804 -0.77936 0.43934 -1.06066C5.97064 0.908035 6.35218 0.75 6.75 0.75l4.4963 0" stroke-width="1"></path><path stroke="#000000" stroke-linecap="round" stroke-linejoin="round" d="m17.7336 0.75 4.0164 0c0.3978 0 0.7793 0.158035 1.0606 0.43934 0.2813 0.2813 0.4394 0.66284 0.4394 1.06066v8c0 0.3978 -0.1581 0.7794 -0.4394 1.0607s-0.6628 0.4393 -1.0606 0.4393h-4.0164" stroke-width="1"></path><path stroke="#000000" stroke-linecap="round" stroke-linejoin="round" d="M15.9139 2.85938h-0.5215c-0.8992 0 -1.7616 0.35721 -2.3975 0.99305 -0.6358 0.63584 -0.993 1.49823 -0.993 2.39745 0 0.89922 0.3572 1.7616 0.993 2.39744 0.6359 0.63585 1.4983 0.99306 2.3975 0.99306h0.5215" stroke-width="1"></path><path stroke="#000000" stroke-linecap="round" stroke-linejoin="round" d="M10.9798 6.24976h4.135" stroke-width="1"></path></svg>