<svg viewBox="0 0 24 24" xmlns="http://www.w3.org/2000/svg" id="Wireless-Payment-Smartphone-1--Streamline-Ultimate"><desc>Wireless Payment Smartphone 1 Streamline Icon: https://streamlinehq.com</desc><path d="m10.125 20.25 -8.25 0" fill="none" stroke="#000000" stroke-linecap="round" stroke-linejoin="round" stroke-width="1"></path><path d="M1.875 12.75h3.75a1.373 1.373 0 0 0 0.879 -0.461l4.05 -3.989 3.829 0.766a0.963 0.963 0 0 1 0.747 1.179l-0.08 0.318a0.963 0.963 0 0 1 -0.8 0.721l-1.876 0.272a0.842 0.842 0 0 0 -0.75 0.955v2.557a1.4 1.4 0 0 1 -0.44 0.753l-2.077 1.643" fill="none" stroke="#000000" stroke-linecap="round" stroke-linejoin="round" stroke-width="1"></path><path d="M22.125 18.5a0.983 0.983 0 0 1 -0.964 1h-1.447c-0.7 0 -1.141 -0.051 -1.446 -1a59.368 59.368 0 0 1 -0.964 -7c0 -0.5 0.482 -1 1.446 -1h2.411a0.983 0.983 0 0 1 0.964 1Z" fill="none" stroke="#000000" stroke-linecap="round" stroke-linejoin="round" stroke-width="1"></path><path d="M20.625 19.5v2.25a1.5 1.5 0 0 1 -1.5 1.5h-7.5a1.5 1.5 0 0 1 -1.5 -1.5v-1.5" fill="none" stroke="#000000" stroke-linecap="round" stroke-linejoin="round" stroke-width="1"></path><path d="M10.125 8.725V6a1.5 1.5 0 0 1 1.5 -1.5h7.5a1.5 1.5 0 0 1 1.5 1.5v4.5" fill="none" stroke="#000000" stroke-linecap="round" stroke-linejoin="round" stroke-width="1"></path><path d="M6.032 0.75a6.262 6.262 0 0 0 -3.274 6.133" fill="none" stroke="#000000" stroke-linecap="round" stroke-linejoin="round" stroke-width="1"></path><path d="M7.606 2.8a4.334 4.334 0 0 0 -2.267 4.248" fill="none" stroke="#000000" stroke-linecap="round" stroke-linejoin="round" stroke-width="1"></path></svg>