<svg xmlns="http://www.w3.org/2000/svg" viewBox="0 0 24 24" id="Baby-Family-Slime-Play-Dough-1--Streamline-Ultimate"><desc>Baby Family Slime Play Dough 1 Streamline Icon: https://streamlinehq.com</desc><defs></defs><path d="m0.75 14.25 0 9" fill="none" stroke="#000000" stroke-linecap="round" stroke-linejoin="round" stroke-width="1"></path><path d="M0.75 21.75h15.5a3 3 0 0 0 -3 -3H9a3 3 0 0 0 -3 -3H0.75" fill="none" stroke="#000000" stroke-linecap="round" stroke-linejoin="round" stroke-width="1"></path><path d="m5.75 18.75 3.25 0" fill="none" stroke="#000000" stroke-linecap="round" stroke-linejoin="round" stroke-width="1"></path><path d="M4.689 12.227A4.051 4.051 0 0 1 3.9 8.612c0.714 -2.538 2.932 -2.2 5.218 -2.577s1.737 -4.331 6.575 -3.68c2.431 0.328 2.805 4.629 3.406 5.691 0.807 1.426 3.557 1.231 3.557 4.456 0 1.438 -0.9 3.8 -5.017 4.484" fill="none" stroke="#000000" stroke-linecap="round" stroke-linejoin="round" stroke-width="1"></path><path d="M7.28 2.207A2.617 2.617 0 0 1 8.989 0.75" fill="none" stroke="#000000" stroke-linecap="round" stroke-linejoin="round" stroke-width="1"></path><path d="M21.733 5.719a1.88 1.88 0 0 1 1.517 1.452" fill="none" stroke="#000000" stroke-linecap="round" stroke-linejoin="round" stroke-width="1"></path></svg>