<svg xmlns="http://www.w3.org/2000/svg" viewBox="0 0 24 24" id="Baby-Family-Spinning-Top--Streamline-Ultimate"><desc>Baby Family Spinning Top Streamline Icon: https://streamlinehq.com</desc><defs></defs><path d="M7.54 7.09C3.959 7.016 1.333 7.858 0.887 9.8c-1.216 5.271 6.024 3.452 7.5 12.272a1.316 1.316 0 0 0 1 1.066l0.335 0.077a1.316 1.316 0 0 0 1.367 -0.522c5.17 -7.3 10.9 -2.5 12.1 -7.78C23.642 12.936 21.564 11 18.2 9.5" fill="none" stroke="#000000" stroke-linecap="round" stroke-linejoin="round" stroke-width="1"></path><path d="M19.784 10.371a2.792 2.792 0 0 1 1.205 2.5c-0.446 1.947 -4.666 2.641 -9.424 1.55S3.31 10.867 3.756 8.92a2.676 2.676 0 0 1 1.94 -1.7" fill="none" stroke="#000000" stroke-linecap="round" stroke-linejoin="round" stroke-width="1"></path><path d="M19.784 10.371a2.792 2.792 0 0 1 1.205 2.5c-0.446 1.947 -4.666 2.641 -9.424 1.55S3.31 10.867 3.756 8.92a2.676 2.676 0 0 1 1.94 -1.7" fill="none" stroke="#000000" stroke-linecap="round" stroke-linejoin="round" stroke-width="1"></path><path d="M19.784 10.371a2.792 2.792 0 0 1 1.205 2.5c-0.446 1.947 -4.666 2.641 -9.424 1.55S3.31 10.867 3.756 8.92a2.676 2.676 0 0 1 1.94 -1.7" fill="none" stroke="#000000" stroke-linecap="round" stroke-linejoin="round" stroke-width="1"></path><path d="M8.348 9.969a2.071 2.071 0 0 0 2.481 -1.555l1.388 -6.055a2.071 2.071 0 0 1 4.037 0.926l-1.389 6.054a2.071 2.071 0 0 0 1.556 2.481" fill="none" stroke="#000000" stroke-linecap="round" stroke-linejoin="round" stroke-width="1"></path><path d="M15.537 18.886a25.894 25.894 0 0 1 -4.846 -0.655 25.99 25.99 0 0 1 -4.648 -1.522" fill="none" stroke="#000000" stroke-linecap="round" stroke-linejoin="round" stroke-width="1"></path></svg>