<svg xmlns="http://www.w3.org/2000/svg" fill="none" viewBox="0 0 24 24" id="Toys-Dinosaur--Streamline-Ultimate"><desc>Toys Dinosaur Streamline Icon: https://streamlinehq.com</desc><path stroke="#000000" stroke-linecap="round" stroke-linejoin="round" d="M17.25 12v-0.75c-0.007 -0.3903 0.1412 -0.7674 0.4119 -1.0486 0.2707 -0.28116 0.6419 -0.44351 1.0321 -0.45139 0.6355 0.00803 1.2656 -0.11866 1.8486 -0.37173 0.583 -0.25306 1.1058 -0.62676 1.534 -1.09649 0.4282 -0.46973 0.752 -1.02484 0.9501 -1.62875 0.1981 -0.60392 0.266 -1.24296 0.1993 -1.87503 -0.1507 -1.12925 -0.7114 -2.16368 -1.5752 -2.9064 -0.8639 -0.74273 -1.9707 -1.141923 -3.1098 -1.121603H12.75c-1.5913 0 -3.11742 0.632143 -4.24264 1.757363C7.38214 3.63258 6.75 5.15871 6.75 6.75001V11.25c0 1.5913 -0.63214 3.1174 -1.75736 4.2426C3.86742 16.6179 2.3413 17.25 0.75 17.25c0 1.5913 0.63214 3.1174 1.75736 4.2426C3.63258 22.6179 5.1587 23.25 6.75 23.25" stroke-width="1"></path><path stroke="#000000" stroke-linecap="round" stroke-linejoin="round" d="M11.408 17.566c-0.6049 0.302 -1.09 0.7995 -1.3767 1.4118 -0.28674 0.6123 -0.35821 1.3035 -0.20285 1.9616 0.15535 0.658 0.52845 1.2442 1.05875 1.6636 0.5303 0.4194 1.1867 0.6474 1.8628 0.647h6.75c0.1989 0 0.3896 -0.079 0.5303 -0.2197 0.1407 -0.1406 0.2197 -0.3314 0.2197 -0.5303 0 -0.7956 -0.3161 -1.5587 -0.8787 -2.1213 -0.5626 -0.5626 -1.3257 -0.8787 -2.1213 -0.8787v-3.75" stroke-width="1"></path><path stroke="#000000" stroke-linecap="round" stroke-linejoin="round" d="m7.592 3.68298 -3.831 2.56c-0.09276 0.06154 -0.17065 0.14295 -0.22803 0.23833 -0.05739 0.09537 -0.09282 0.20233 -0.10373 0.3131 -0.01092 0.11077 0.00296 0.22259 0.04062 0.32733 0.03767 0.10474 0.09818 0.19979 0.17714 0.27824L6.747 10.5 3.27 11.66c-0.11458 0.0382 -0.21821 0.1036 -0.3021 0.1905 -0.08388 0.087 -0.14553 0.1928 -0.1797 0.3087 -0.03417 0.1159 -0.03985 0.2383 -0.01655 0.3568 0.02329 0.1185 0.07487 0.2297 0.15035 0.324l2.1 2.624" stroke-width="1"></path><path stroke="#000000" stroke-linecap="round" stroke-linejoin="round" d="M15 12h3c0.8316 0 1.6396 0.2763 2.297 0.7854 0.6575 0.5092 1.1271 1.2225 1.335 2.0276 0.0285 0.1109 0.0313 0.2268 0.0081 0.3389 -0.0231 0.1121 -0.0717 0.2174 -0.1419 0.3079 -0.0701 0.0904 -0.1601 0.1636 -0.2629 0.2139 -0.1028 0.0503 -0.2158 0.0764 -0.3303 0.0763H15" stroke-width="1"></path><path stroke="#000000" stroke-linecap="round" stroke-linejoin="round" d="M22.992 6.75H18.75" stroke-width="1"></path><path stroke="#000000" d="M13.1271 4.49994c-0.2071 0 -0.375 -0.16789 -0.375 -0.375s0.1679 -0.375 0.375 -0.375" stroke-width="1"></path><path stroke="#000000" d="M13.1271 4.49994c0.2071 0 0.375 -0.16789 0.375 -0.375s-0.1679 -0.375 -0.375 -0.375" stroke-width="1"></path></svg>