<svg xmlns="http://www.w3.org/2000/svg" fill="none" viewBox="0 0 24 24" id="Toys-Teddy-Bear--Streamline-Ultimate"><desc>Toys Teddy Bear Streamline Icon: https://streamlinehq.com</desc><path stroke="#000000" stroke-linecap="round" stroke-linejoin="round" d="M19.5 2.99998c0.0004 -0.55288 -0.2031 -1.0865 -0.5714 -1.49885 -0.3683 -0.41236 -0.8756 -0.674524 -1.425 -0.736394 -0.5494 -0.061871 -1.1024 0.080895 -1.5531 0.401014 -0.4508 0.32011 -0.7678 0.79512 -0.8905 1.33423 -0.8879 -0.64973 -1.9597 -0.99995 -3.06 -0.99995s-2.172 0.35022 -3.05997 0.99995c-0.09449 -0.41244 -0.30347 -0.78985 -0.60289 -1.08881 -0.29943 -0.29896 -0.67716 -0.507352 -1.08975 -0.6012C6.8348 0.716122 6.4041 0.740624 6.00482 0.880659c-0.39929 0.140031 -0.75094 0.389911 -1.01453 0.720911 -0.26359 0.33099 -0.42842 0.72966 -0.47552 1.15016 -0.04711 0.4205 0.02542 0.84575 0.20925 1.22686 0.18382 0.38112 0.47147 0.70261 0.82987 0.92752 0.35841 0.22491 0.77301 0.3441 1.19614 0.34387 0.08372 -0.00385 0.16717 -0.01219 0.25 -0.025 -0.15933 0.49292 -0.2436 1.00701 -0.25 1.525 0 1.39239 0.55312 2.72774 1.53769 3.71232C9.27228 11.4469 10.6076 12 12 12c1.3924 0 2.7278 -0.5531 3.7123 -1.5377 0.9846 -0.98458 1.5377 -2.31993 1.5377 -3.71232 -0.0064 -0.51799 -0.0906 -1.03208 -0.25 -1.525 0.0835 0.01288 0.1676 0.02123 0.252 0.025 0.5964 -0.00053 1.1682 -0.23782 1.5897 -0.65972 0.4215 -0.4219 0.6583 -0.99389 0.6583 -1.59028v0Z" stroke-width="1"></path><path stroke="#000000" stroke-linecap="round" stroke-linejoin="round" d="M7.27701 17.3c-0.34828 -0.7166 -0.52852 -1.5032 -0.527 -2.3 0.00106 -0.2826 0.02077 -0.5649 0.059 -0.845" stroke-width="1"></path><path stroke="#000000" stroke-linecap="round" stroke-linejoin="round" d="M14.3 19.723c-0.7157 0.3468 -1.5007 0.527 -2.296 0.527 -0.7953 0 -1.5803 -0.1802 -2.29599 -0.527" stroke-width="1"></path><path stroke="#000000" stroke-linecap="round" stroke-linejoin="round" d="M17.19 14.147c0.0385 0.2827 0.0586 0.5676 0.06 0.853 0.0015 0.7967 -0.1787 1.5834 -0.527 2.3" stroke-width="1"></path><path stroke="#000000" stroke-linecap="round" stroke-linejoin="round" d="M6.75 23.25c1.65685 0 3 -1.3431 3 -3s-1.34315 -3 -3 -3 -3 1.3431 -3 3 1.34315 3 3 3Z" stroke-width="1"></path><path stroke="#000000" stroke-linecap="round" stroke-linejoin="round" d="M17.25 23.25c1.6569 0 3 -1.3431 3 -3s-1.3431 -3 -3 -3 -3 1.3431 -3 3 1.3431 3 3 3Z" stroke-width="1"></path><path stroke="#000000" stroke-linecap="round" stroke-linejoin="round" d="m6.809 14.155 -4.335 -1.931c-0.54515 -0.2428 -0.97152 -0.6922 -1.18531 -1.2494 -0.21379 -0.5572 -0.19749 -1.17645 0.04531 -1.7216 0.24281 -0.54516 0.69223 -0.97153 1.2494 -1.18532 0.55717 -0.21379 1.17645 -0.19749 1.7216 0.04532" stroke-width="1"></path><path stroke="#000000" stroke-linecap="round" stroke-linejoin="round" d="m17.191 14.155 4.335 -1.931c0.278 -0.1144 0.5304 -0.2835 0.742 -0.4971s0.3783 -0.4674 0.4902 -0.7465c0.1119 -0.2791 0.1666 -0.5778 0.1611 -0.8785 -0.0055 -0.30064 -0.0713 -0.59713 -0.1933 -0.87194 -0.1221 -0.27481 -0.298 -0.52236 -0.5174 -0.72803 -0.2193 -0.20567 -0.4777 -0.36528 -0.7598 -0.46941s-0.5822 -0.15065 -0.8825 -0.13683c-0.3004 0.01382 -0.595 0.08771 -0.8663 0.21731" stroke-width="1"></path><path stroke="#000000" d="M9.75 6.37531c-0.20711 0 -0.375 -0.1679 -0.375 -0.375 0 -0.20711 0.16789 -0.375 0.375 -0.375" stroke-width="1"></path><path stroke="#000000" d="M9.75 6.37531c0.20711 0 0.375 -0.1679 0.375 -0.375 0 -0.20711 -0.16789 -0.375 -0.375 -0.375" stroke-width="1"></path><g><path stroke="#000000" d="M14.25 6.375c-0.2071 0 -0.375 -0.16789 -0.375 -0.375s0.1679 -0.375 0.375 -0.375" stroke-width="1"></path><path stroke="#000000" d="M14.25 6.375c0.2071 0 0.375 -0.16789 0.375 -0.375s-0.1679 -0.375 -0.375 -0.375" stroke-width="1"></path></g></svg>