<svg xmlns="http://www.w3.org/2000/svg" fill="none" viewBox="0 0 24 24" id="Toys-Balloon--Streamline-Ultimate"><desc>Toys Balloon Streamline Icon: https://streamlinehq.com</desc><path stroke="#000000" stroke-linecap="round" stroke-linejoin="round" d="M11.625 15.749c3.7279 0 6.75 -3.3578 6.75 -7.49998 0 -4.14213 -3.0221 -7.499997 -6.75 -7.499997 -3.72792 0 -6.75 3.357867 -6.75 7.499997 0 4.14218 3.02208 7.49998 6.75 7.49998Z" stroke-width="1"></path><path stroke="#000000" stroke-linecap="round" stroke-linejoin="round" d="M14.223 10.499c-0.263 0.457 -0.6419 0.8365 -1.0983 1.1005 -0.4565 0.2639 -0.9744 0.4029 -1.5017 0.4029s-1.0452 -0.139 -1.5017 -0.4029c-0.45641 -0.264 -0.83524 -0.6435 -1.09829 -1.1005" stroke-width="1"></path><path stroke="#000000" stroke-linecap="round" stroke-linejoin="round" d="M11.625 15.749v1.6c0.0107 0.4127 0.1065 0.8187 0.2813 1.1926 0.1748 0.374 0.4249 0.7078 0.7347 0.9807 0.3097 0.2728 0.6724 0.4789 1.0654 0.6051 0.3931 0.1263 0.8079 0.17 1.2186 0.1286 0.5763 -0.0329 1.1518 0.0773 1.6752 0.3207 0.5235 0.2434 0.9786 0.6124 1.3248 1.0743l1.2 1.6" stroke-width="1"></path><path stroke="#000000" d="M9 5.99902c-0.20711 0 -0.375 -0.16789 -0.375 -0.375 0 -0.2071 0.16789 -0.375 0.375 -0.375" stroke-width="1"></path><path stroke="#000000" d="M9 5.99902c0.20711 0 0.375 -0.16789 0.375 -0.375 0 -0.2071 -0.16789 -0.375 -0.375 -0.375" stroke-width="1"></path><g><path stroke="#000000" d="M14.223 5.99902c-0.2071 0 -0.375 -0.16789 -0.375 -0.375 0 -0.2071 0.1679 -0.375 0.375 -0.375" stroke-width="1"></path><path stroke="#000000" d="M14.223 5.99902c0.2071 0 0.375 -0.16789 0.375 -0.375 0 -0.2071 -0.1679 -0.375 -0.375 -0.375" stroke-width="1"></path></g></svg>