<svg xmlns="http://www.w3.org/2000/svg" fill="none" viewBox="0 0 24 24" id="Toys-Furby--Streamline-Ultimate"><desc>Toys Furby Streamline Icon: https://streamlinehq.com</desc><path stroke="#000000" stroke-linecap="round" stroke-linejoin="round" d="M9 15.69c0 -0.7956 0.31607 -1.5587 0.87868 -2.1213C10.4413 13.0061 11.2044 12.69 12 12.69c0.7956 0 1.5587 0.3161 2.1213 0.8787 0.5626 0.5626 0.8787 1.3257 0.8787 2.1213H9Z" stroke-width="1"></path><path stroke="#000000" stroke-linecap="round" stroke-linejoin="round" d="M3 23.19c0 -0.7956 0.31607 -1.5587 0.87868 -2.1213C4.44129 20.5061 5.20435 20.19 6 20.19s1.55871 0.3161 2.12132 0.8787C8.68393 21.6313 9 22.3944 9 23.19H3Z" stroke-width="1"></path><path stroke="#000000" stroke-linecap="round" stroke-linejoin="round" d="M15 23.19c0 -0.7956 0.3161 -1.5587 0.8787 -2.1213 0.5626 -0.5626 1.3257 -0.8787 2.1213 -0.8787 0.7956 0 1.5587 0.3161 2.1213 0.8787 0.5626 0.5626 0.8787 1.3257 0.8787 2.1213h-6Z" stroke-width="1"></path><path stroke="#000000" stroke-linecap="round" stroke-linejoin="round" d="M5.81099 8.16802c-0.68242 -0.12796 -1.33241 -0.39097 -1.9118 -0.77357 -0.57939 -0.38259 -1.07652 -0.87708 -1.4622 -1.45443 -0.84412 -1.45315 -1.14098 -3.16019 -0.837 -4.813 0.00779 -0.05535 0.02785 -0.10826 0.05872 -0.154856 0.03087 -0.046598 0.07176 -0.085706 0.11969 -0.114464 0.04793 -0.028757 0.10168 -0.046437 0.15732 -0.051745 0.05565 -0.005308 0.11177 0.001889 0.16427 0.021066 2.905 1.032999 5.041 2.499999 5.665 4.829999" stroke-width="1"></path><path stroke="#000000" stroke-linecap="round" stroke-linejoin="round" d="M18.189 8.16802c0.6823 -0.12782 1.3322 -0.39077 1.9115 -0.77339 0.5792 -0.38261 1.0761 -0.87718 1.4615 -1.45461 0.8449 -1.45287 1.1421 -3.16007 0.838 -4.813 -0.0078 -0.05535 -0.0279 -0.10826 -0.0587 -0.154856 -0.0309 -0.046598 -0.0718 -0.085706 -0.1197 -0.114464 -0.048 -0.028757 -0.1017 -0.046437 -0.1573 -0.051745 -0.0557 -0.005308 -0.1118 0.001889 -0.1643 0.021066C19 1.86002 16.859 3.32702 16.235 5.65702" stroke-width="1"></path><path stroke="#000000" stroke-linecap="round" stroke-linejoin="round" d="M5.655 20.2c-1.22964 -1.4771 -1.90359 -3.338 -1.905 -5.26 0 -4.56 3.69 -11.25 8.25 -11.25 4.56 0 8.25 6.69 8.25 11.25 -0.0014 1.922 -0.6754 3.7829 -1.905 5.26" stroke-width="1"></path><path stroke="#000000" stroke-linecap="round" stroke-linejoin="round" d="M15.06 22.59v0.015c-1.9655 0.7796 -4.1545 0.7796 -6.12 0v-0.015" stroke-width="1"></path><path stroke="#000000" d="M9 10.815c-0.20711 0 -0.375 -0.1679 -0.375 -0.375s0.16789 -0.375 0.375 -0.375" stroke-width="1"></path><path stroke="#000000" d="M9 10.815c0.20711 0 0.375 -0.1679 0.375 -0.375s-0.16789 -0.375 -0.375 -0.375" stroke-width="1"></path><g><path stroke="#000000" d="M15 10.815c-0.2071 0 -0.375 -0.1679 -0.375 -0.375s0.1679 -0.375 0.375 -0.375" stroke-width="1"></path><path stroke="#000000" d="M15 10.815c0.2071 0 0.375 -0.1679 0.375 -0.375s-0.1679 -0.375 -0.375 -0.375" stroke-width="1"></path></g></svg>