<svg xmlns="http://www.w3.org/2000/svg" fill="none" viewBox="0 0 24 24" id="Toys-Fidget-Spinner--Streamline-Ultimate"><desc>Toys Fidget Spinner Streamline Icon: https://streamlinehq.com</desc><path stroke="#000000" stroke-linecap="round" stroke-linejoin="round" d="m22.009 16.712 -5.266 -4.739c-0.3126 -0.2813 -0.5625 -0.6253 -0.7336 -1.0094 -0.171 -0.3842 -0.2594 -0.8001 -0.2594 -1.2206V4.5c0 -0.99456 -0.3951 -1.94839 -1.0983 -2.65165C13.9484 1.14509 12.9946 0.75 12 0.75c-0.9946 0 -1.9484 0.39509 -2.65165 1.09835C8.64509 2.55161 8.25001 3.50544 8.25001 4.5v5.243c0.00003 0.4205 -0.08836 0.8364 -0.25943 1.2206 -0.17107 0.3841 -0.421 0.7281 -0.73357 1.0094l-5.266 4.739c-0.72588 0.669 -1.158794 1.5971 -1.204874 2.5832 -0.046079 0.986 0.298394 1.9505 0.958714 2.6842 0.66033 0.7338 1.58327 1.1777 2.56871 1.2354 0.98543 0.0578 1.95392 -0.2752 2.69545 -0.9268L9.993 19.6c0.5509 -0.4958 1.2658 -0.7702 2.007 -0.7702 0.7412 0 1.4561 0.2744 2.007 0.7702l2.984 2.686c0.7415 0.6516 1.71 0.9846 2.6955 0.9268 0.9854 -0.0577 1.9083 -0.5016 2.5687 -1.2354 0.6603 -0.7337 1.0048 -1.6982 0.9587 -2.6842 -0.0461 -0.9861 -0.479 -1.9142 -1.2049 -2.5832v0.002Z" stroke-width="1"></path><path stroke="#000000" stroke-linecap="round" stroke-linejoin="round" d="M12 15.75c1.2426 0 2.25 -1.0074 2.25 -2.25s-1.0074 -2.25 -2.25 -2.25 -2.25 1.0074 -2.25 2.25 1.0074 2.25 2.25 2.25Z" stroke-width="1"></path><path stroke="#000000" d="M12 4.875c-0.2071 0 -0.375 -0.16789 -0.375 -0.375s0.1679 -0.375 0.375 -0.375" stroke-width="1"></path><path stroke="#000000" d="M12 4.875c0.2071 0 0.375 -0.16789 0.375 -0.375s-0.1679 -0.375 -0.375 -0.375" stroke-width="1"></path><path stroke="#000000" d="M4.5 19.875c-0.20711 0 -0.375 -0.1679 -0.375 -0.375s0.16789 -0.375 0.375 -0.375" stroke-width="1"></path><path stroke="#000000" d="M4.5 19.875c0.20711 0 0.375 -0.1679 0.375 -0.375s-0.16789 -0.375 -0.375 -0.375" stroke-width="1"></path><g><path stroke="#000000" d="M19.5 19.875c-0.2071 0 -0.375 -0.1679 -0.375 -0.375s0.1679 -0.375 0.375 -0.375" stroke-width="1"></path><path stroke="#000000" d="M19.5 19.875c0.2071 0 0.375 -0.1679 0.375 -0.375s-0.1679 -0.375 -0.375 -0.375" stroke-width="1"></path></g></svg>