<svg viewBox="0 0 24 24" xmlns="http://www.w3.org/2000/svg" id="Toys-Train--Streamline-Ultimate"><desc>Toys Train Streamline Icon: https://streamlinehq.com</desc><path d="M13.499 19.5a3 3 0 1 0 6 0 3 3 0 1 0 -6 0Z" fill="none" stroke="#000000" stroke-linecap="round" stroke-linejoin="round" stroke-width="1"></path><path d="M2.999 19.5a3 3 0 1 0 6 0 3 3 0 1 0 -6 0Z" fill="none" stroke="#000000" stroke-linecap="round" stroke-linejoin="round" stroke-width="1"></path><path d="m8.999 19.5 4.5 0" fill="none" stroke="#000000" stroke-linecap="round" stroke-linejoin="round" stroke-width="1"></path><path d="M19.5 19.5h0.75a1.5 1.5 0 0 0 1.5 -1.5l0 -13.5H11.252V12h-9a1.5 1.5 0 0 0 -1.5 1.5V18a1.5 1.5 0 0 0 1.5 1.5H3" fill="none" stroke="#000000" stroke-linecap="round" stroke-linejoin="round" stroke-width="1"></path><path d="M23.251 3a1.5 1.5 0 0 1 -1.5 1.5h-10.5a1.5 1.5 0 0 1 0 -3h10.5a1.5 1.5 0 0 1 1.5 1.5Z" fill="none" stroke="#000000" stroke-linecap="round" stroke-linejoin="round" stroke-width="1"></path><path d="M3.752 7.5h3V12h-3z" fill="none" stroke="#000000" stroke-linecap="round" stroke-linejoin="round" stroke-width="1"></path><path d="m2.252 7.5 6 0" fill="none" stroke="#000000" stroke-linecap="round" stroke-linejoin="round" stroke-width="1"></path><path d="M14.249 9.75a2.25 2.25 0 1 0 4.5 0 2.25 2.25 0 1 0 -4.5 0Z" fill="none" stroke="#000000" stroke-linecap="round" stroke-linejoin="round" stroke-width="1"></path><path d="m11.249 12 0 7.5" fill="none" stroke="#000000" stroke-linecap="round" stroke-linejoin="round" stroke-width="1"></path></svg>