<svg xmlns="http://www.w3.org/2000/svg" fill="none" viewBox="0 0 24 24" id="Toys-Caterpillar--Streamline-Ultimate"><desc>Toys Caterpillar Streamline Icon: https://streamlinehq.com</desc><path stroke="#000000" stroke-linecap="round" stroke-linejoin="round" d="M6.63802 13.43c-1.16212 -0.1928 -2.22567 -0.7708 -3.01974 -1.6409 -0.79407 -0.8702 -1.27254 -1.98202 -1.35854 -3.15688 -0.08599 -1.17487 0.22549 -2.34454 0.8844 -3.32103 0.65891 -0.9765 1.62697 -1.70313 2.74863 -2.06312 1.12165 -0.35999 2.33177 -0.33244 3.43588 0.07823 1.10415 0.41067 2.03805 1.18061 2.65185 2.18609 0.6138 1.00547 0.8717 2.1881 0.7323 3.35784 -0.1393 1.16977 -0.6679 2.25867 -1.5008 3.09177" stroke-width="1"></path><path stroke="#000000" stroke-linecap="round" stroke-linejoin="round" d="M10.026 3.647 12 0.75" stroke-width="1"></path><path stroke="#000000" stroke-linecap="round" stroke-linejoin="round" d="M4.974 3.647 3 0.75" stroke-width="1"></path><path stroke="#000000" stroke-linecap="round" stroke-linejoin="round" d="M17.234 17.66c0.545 -0.3188 1.1767 -0.4575 1.8051 -0.3964 0.6284 0.0611 1.2215 0.319 1.6949 0.7368 0.4733 0.4178 0.8028 0.9743 0.9414 1.5903 0.1387 0.616 0.0795 1.26 -0.1692 1.8404 -0.2487 0.5803 -0.6741 1.0674 -1.2157 1.3919 -0.5417 0.3245 -1.1719 0.4698 -1.8009 0.4153 -0.629 -0.0545 -1.2248 -0.3061 -1.7025 -0.719 -0.4777 -0.4128 -0.813 -0.9658 -0.9581 -1.5803" stroke-width="1"></path><path stroke="#000000" stroke-linecap="round" stroke-linejoin="round" d="M12.023 10.917c0.6035 0.5476 1.0469 1.2488 1.283 2.0287 0.2361 0.78 0.256 1.6094 0.0575 2.3998 -0.1984 0.7903 -0.6078 1.512 -1.1844 2.0879 -0.5765 0.5758 -1.2986 0.9844 -2.0892 1.1819 -0.79063 0.1975 -1.62002 0.1767 -2.3997 -0.0603 -0.77967 -0.237 -1.48035 -0.6813 -2.02724 -1.2854 -0.5469 -0.6042 -0.91948 -1.3455 -1.07799 -2.1448 -0.1585 -0.7993 -0.09698 -1.6267 0.17801 -2.3938" stroke-width="1"></path><path stroke="#000000" stroke-linecap="round" stroke-linejoin="round" d="M13.5 14.25c0.7127 0.0001 1.4106 0.2033 2.012 0.5858 0.6013 0.3825 1.0812 0.9284 1.3835 1.5739 0.3022 0.6454 0.4143 1.3636 0.3231 2.0704 -0.0913 0.7068 -0.3821 1.373 -0.8383 1.9205 -0.4562 0.5475 -1.0591 0.9537 -1.7378 1.1709 -0.6788 0.2173 -1.4054 0.2366 -2.0948 0.0557 -0.6893 -0.1808 -1.3129 -0.5544 -1.7976 -1.0769 -0.4846 -0.5225 -0.8104 -1.1723 -0.93906 -1.8733" stroke-width="1"></path><path stroke="#000000" d="M5.625 7.5c-0.20711 0 -0.375 -0.16789 -0.375 -0.375s0.16789 -0.375 0.375 -0.375" stroke-width="1"></path><path stroke="#000000" d="M5.625 7.5c0.20711 0 0.375 -0.16789 0.375 -0.375s-0.16789 -0.375 -0.375 -0.375" stroke-width="1"></path><g><path stroke="#000000" d="M9.37402 7.5c-0.2071 0 -0.375 -0.16789 -0.375 -0.375s0.1679 -0.375 0.375 -0.375" stroke-width="1"></path><path stroke="#000000" d="M9.37402 7.5c0.20711 0 0.375 -0.16789 0.375 -0.375s-0.16789 -0.375 -0.375 -0.375" stroke-width="1"></path></g></svg>