<svg xmlns="http://www.w3.org/2000/svg" viewBox="0 0 24 24" id="Toys-Lego--Streamline-Ultimate"><desc>Toys Lego Streamline Icon: https://streamlinehq.com</desc><defs></defs><title>toys-lego</title><path d="M8.25 23.25H1.5a0.75 0.75 0 0 1 -0.75 -0.75v-5.25" fill="none" stroke="#000000" stroke-linecap="round" stroke-linejoin="round" stroke-width="1"></path><path d="m8.25 17.25 -7.5 0 0 -6" fill="none" stroke="#000000" stroke-linecap="round" stroke-linejoin="round" stroke-width="1"></path><path d="M12.75 11.25h-12V6a0.75 0.75 0 0 1 0.75 -0.75H12a0.75 0.75 0 0 1 0.75 0.75v5.25" fill="none" stroke="#000000" stroke-linecap="round" stroke-linejoin="round" stroke-width="1"></path><path d="M1.5 5.25V3a0.75 0.75 0 0 1 0.75 -0.75H4.5a0.75 0.75 0 0 1 0.75 0.75v2.25" fill="none" stroke="#000000" stroke-linecap="round" stroke-linejoin="round" stroke-width="1"></path><path d="M8.25 5.25V3A0.75 0.75 0 0 1 9 2.25h2.25A0.75 0.75 0 0 1 12 3v2.25" fill="none" stroke="#000000" stroke-linecap="round" stroke-linejoin="round" stroke-width="1"></path><path d="M12 17.25V15a0.75 0.75 0 0 1 0.75 -0.75H15a0.75 0.75 0 0 1 0.75 0.75v2.25" fill="none" stroke="#000000" stroke-linecap="round" stroke-linejoin="round" stroke-width="1"></path><path d="M18.75 17.25V15a0.75 0.75 0 0 1 0.75 -0.75h2.25a0.75 0.75 0 0 1 0.75 0.75v2.25" fill="none" stroke="#000000" stroke-linecap="round" stroke-linejoin="round" stroke-width="1"></path><path d="M12 17.25h10.5s0.75 0 0.75 0.75v4.5s0 0.75 -0.75 0.75H12s-0.75 0 -0.75 -0.75V18s0 -0.75 0.75 -0.75" fill="none" stroke="#000000" stroke-linecap="round" stroke-linejoin="round" stroke-width="1"></path></svg>