<svg viewBox="0 0 24 24" xmlns="http://www.w3.org/2000/svg" id="Toys-Beach-Ball--Streamline-Ultimate"><desc>Toys Beach Ball Streamline Icon: https://streamlinehq.com</desc><path d="M0.75 12a11.25 11.25 0 1 0 22.5 0 11.25 11.25 0 1 0 -22.5 0Z" fill="none" stroke="#000000" stroke-linecap="round" stroke-linejoin="round" stroke-width="1"></path><path d="M10.5 8.625a3.375 3.375 0 1 0 6.75 0 3.375 3.375 0 1 0 -6.75 0Z" fill="none" stroke="#000000" stroke-linecap="round" stroke-linejoin="round" stroke-width="1"></path><path d="M12 0.75s0.923 0.867 1.654 4.507" fill="none" stroke="#000000" stroke-linecap="round" stroke-linejoin="round" stroke-width="1"></path><path d="M10.574 7.92s-2.117 -0.813 -8.6 -1.057" fill="none" stroke="#000000" stroke-linecap="round" stroke-linejoin="round" stroke-width="1"></path><path d="M12.636 11.765s-3.193 7.04 -6.861 9.607" fill="none" stroke="#000000" stroke-linecap="round" stroke-linejoin="round" stroke-width="1"></path><path d="M16.1 11.163s4.4 4.368 5.109 7.3" fill="none" stroke="#000000" stroke-linecap="round" stroke-linejoin="round" stroke-width="1"></path><path d="M17.242 8.394a12.831 12.831 0 0 1 5.168 -0.668" fill="none" stroke="#000000" stroke-linecap="round" stroke-linejoin="round" stroke-width="1"></path></svg>