<svg xmlns="http://www.w3.org/2000/svg" viewBox="0 0 24 24" id="Toys-Clown--Streamline-Ultimate"><desc>Toys Clown Streamline Icon: https://streamlinehq.com</desc><defs></defs><title>toys-clown</title><path d="M17.25 22.5a0.75 0.75 0 0 1 -0.75 0.75h-9a0.75 0.75 0 0 1 -0.75 -0.75v-6h10.5Z" fill="none" stroke="#000000" stroke-linecap="round" stroke-linejoin="round" stroke-width="1"></path><path d="M6.75 6a5.25 5.25 0 1 0 10.5 0 5.25 5.25 0 1 0 -10.5 0" fill="none" stroke="#000000" stroke-linecap="round" stroke-linejoin="round" stroke-width="1"></path><path d="M10.5 7.5a1.5 1.5 0 1 0 3 0 1.5 1.5 0 1 0 -3 0" fill="none" stroke="#000000" stroke-linecap="round" stroke-linejoin="round" stroke-width="1"></path><path d="M16.535 8.646A2.25 2.25 0 0 0 21 8.25l0 -0.127a2.25 2.25 0 0 0 0 -4.246l0 -0.127a2.25 2.25 0 0 0 -4.465 -0.4" fill="none" stroke="#000000" stroke-linecap="round" stroke-linejoin="round" stroke-width="1"></path><path d="M7.465 8.646A2.25 2.25 0 0 1 3 8.25l0 -0.127a2.25 2.25 0 0 1 0 -4.246l0 -0.127a2.25 2.25 0 0 1 4.465 -0.4" fill="none" stroke="#000000" stroke-linecap="round" stroke-linejoin="round" stroke-width="1"></path><path d="m9.75 10.744 0 5.756" fill="none" stroke="#000000" stroke-linecap="round" stroke-linejoin="round" stroke-width="1"></path><path d="m14.25 10.744 0 5.756" fill="none" stroke="#000000" stroke-linecap="round" stroke-linejoin="round" stroke-width="1"></path><path d="m17.25 16.5 6 4.5" fill="none" stroke="#000000" stroke-linecap="round" stroke-linejoin="round" stroke-width="1"></path><path d="m6.75 16.5 -6 4.5" fill="none" stroke="#000000" stroke-linecap="round" stroke-linejoin="round" stroke-width="1"></path></svg>