<svg xmlns="http://www.w3.org/2000/svg" viewBox="0 0 24 24" id="Toys-Castle--Streamline-Ultimate"><desc>Toys Castle Streamline Icon: https://streamlinehq.com</desc><defs></defs><title>toys-castle</title><path d="m8.25 7.875 0 6.75" fill="none" stroke="#000000" stroke-linecap="round" stroke-linejoin="round" stroke-width="1"></path><path d="M2.25 2.625h6s1.5 0 1.5 1.5v2.25s0 1.5 -1.5 1.5h-6s-1.5 0 -1.5 -1.5v-2.25s0 -1.5 1.5 -1.5" fill="none" stroke="#000000" stroke-linecap="round" stroke-linejoin="round" stroke-width="1"></path><path d="m15.75 14.625 0 -6.75" fill="none" stroke="#000000" stroke-linecap="round" stroke-linejoin="round" stroke-width="1"></path><path d="M15.75 2.625h6s1.5 0 1.5 1.5v2.25s0 1.5 -1.5 1.5h-6s-1.5 0 -1.5 -1.5v-2.25s0 -1.5 1.5 -1.5" fill="none" stroke="#000000" stroke-linecap="round" stroke-linejoin="round" stroke-width="1"></path><path d="m8.25 11.625 7.5 0" fill="none" stroke="#000000" stroke-linecap="round" stroke-linejoin="round" stroke-width="1"></path><path d="M21.75 7.875v12.75a0.75 0.75 0 0 1 -0.75 0.75H3a0.75 0.75 0 0 1 -0.75 -0.75V7.875" fill="none" stroke="#000000" stroke-linecap="round" stroke-linejoin="round" stroke-width="1"></path><path d="m5.25 2.625 0 2.25" fill="none" stroke="#000000" stroke-linecap="round" stroke-linejoin="round" stroke-width="1"></path><path d="m18.75 2.625 0 2.25" fill="none" stroke="#000000" stroke-linecap="round" stroke-linejoin="round" stroke-width="1"></path><path d="M9.75 21.375v-3a2.25 2.25 0 0 1 4.5 0v3" fill="none" stroke="#000000" stroke-linecap="round" stroke-linejoin="round" stroke-width="1"></path></svg>