<svg xmlns="http://www.w3.org/2000/svg" viewBox="0 0 24 24" id="Yoyo--Streamline-Ultimate"><desc>Yoyo Streamline Icon: https://streamlinehq.com</desc><defs></defs><title>yoyo</title><path d="M0.75 15.218a8.032 8.032 0 1 0 16.064 0 8.032 8.032 0 1 0 -16.064 0" fill="none" stroke="#000000" stroke-linecap="round" stroke-linejoin="round" stroke-width="1"></path><path d="M4.516 15.218a4.266 4.266 0 1 0 8.532 0 4.266 4.266 0 1 0 -8.532 0" fill="none" stroke="#000000" stroke-linecap="round" stroke-linejoin="round" stroke-width="1"></path><path d="M6.245 7.6a3.936 3.936 0 0 1 3.782 -5.38 4.67 4.67 0 0 1 3.567 1.656l1.18 1.4a3.254 3.254 0 0 0 5.438 -0.734" fill="none" stroke="#000000" stroke-linecap="round" stroke-linejoin="round" stroke-width="1"></path><path d="M19.2 2.775a2.025 2.025 0 1 0 4.05 0 2.025 2.025 0 1 0 -4.05 0" fill="none" stroke="#000000" stroke-linecap="round" stroke-linejoin="round" stroke-width="1"></path></svg>