<svg viewBox="0 0 24 24" xmlns="http://www.w3.org/2000/svg" id="Business-Contract-Break--Streamline-Ultimate"><desc>Business Contract Break Streamline Icon: https://streamlinehq.com</desc><path d="M20.25 21.411v-2.13l2.67 -3.906c0.879 -1.5 -0.186 -3.865 -1.052 -6.175" fill="none" stroke="#000000" stroke-linecap="round" stroke-linejoin="round" stroke-width="1"></path><path d="m19.85 15.91 -0.95 -3.441a1.218 1.218 0 1 0 -2.35 0.641l1.05 3.79 -0.711 1.283a10.462 10.462 0 0 0 -0.489 3.227" fill="none" stroke="#000000" stroke-linecap="round" stroke-linejoin="round" stroke-width="1"></path><path d="M3.751 21.411v-2.13l-2.672 -3.906C0.2 13.873 1.265 11.51 2.131 9.2" fill="none" stroke="#000000" stroke-linecap="round" stroke-linejoin="round" stroke-width="1"></path><path d="m4.15 15.91 0.95 -3.441a1.218 1.218 0 1 1 2.35 0.641L6.4 16.9l0.711 1.283a10.462 10.462 0 0 1 0.489 3.228" fill="none" stroke="#000000" stroke-linecap="round" stroke-linejoin="round" stroke-width="1"></path><path d="m12 18.222 -0.004 -0.003 2.715 1.683" fill="none" stroke="#000000" stroke-linecap="round" stroke-linejoin="round" stroke-width="1"></path><path d="M4.714 13.861 1.233 7.58a0.979 0.979 0 0 1 0.321 -1.293l5.189 -3.458a0.49 0.49 0 0 1 0.757 0.41V6.5h1.761a0.489 0.489 0 0 1 0.489 0.489v3.661l3 4.1v-4.5a0.49 0.49 0 0 1 0.052 -0.219L14.31 6.77a0.489 0.489 0 0 1 0.438 -0.27H16.5V3.239a0.49 0.49 0 0 1 0.757 -0.41l5.189 3.458a0.979 0.979 0 0 1 0.321 1.293l-3.481 6.281" fill="none" stroke="#000000" stroke-linecap="round" stroke-linejoin="round" stroke-width="1"></path><path d="m12 18.222 0.004 -0.003 -2.715 1.683" fill="none" stroke="#000000" stroke-linecap="round" stroke-linejoin="round" stroke-width="1"></path></svg>