<svg viewBox="0 0 24 24" xmlns="http://www.w3.org/2000/svg" id="Business-Deal-Cash-1--Streamline-Ultimate"><desc>Business Deal Cash 1 Streamline Icon: https://streamlinehq.com</desc><path d="M10.507 23.249a28.6 28.6 0 0 0 -4.177 -1.733c-0.7 -0.259 -0.585 -2.087 -0.275 -2.428A5.167 5.167 0 0 0 7.4 15.083a3.375 3.375 0 0 0 -3.277 -3.7 3.376 3.376 0 0 0 -3.277 3.7 5.163 5.163 0 0 0 1.344 4.005c0.31 0.341 0.424 2.169 -0.276 2.428l-1.168 0.431" fill="none" stroke="#000000" stroke-linecap="round" stroke-linejoin="round" stroke-width="1"></path><path d="M23.079 14.255a4.774 4.774 0 0 1 0.07 0.828 5.167 5.167 0 0 1 -1.344 4.005c-0.31 0.341 -0.425 2.169 0.275 2.428l1.168 0.431" fill="none" stroke="#000000" stroke-linecap="round" stroke-linejoin="round" stroke-width="1"></path><path d="M13.5 23.244a28.652 28.652 0 0 1 4.167 -1.728c0.7 -0.259 0.586 -2.087 0.276 -2.428a4.579 4.579 0 0 1 -1.262 -2.695" fill="none" stroke="#000000" stroke-linecap="round" stroke-linejoin="round" stroke-width="1"></path><path d="M17.623 2.249H15a1.342 1.342 0 0 0 -0.5 2.588l2.655 0.825a1.341 1.341 0 0 1 -0.5 2.587H13.5" fill="none" stroke="#000000" stroke-linecap="round" stroke-linejoin="round" stroke-width="1"></path><path d="m15.748 2.249 0 -1.5" fill="none" stroke="#000000" stroke-linecap="round" stroke-linejoin="round" stroke-width="1"></path><path d="m15.748 9.749 0 -1.5" fill="none" stroke="#000000" stroke-linecap="round" stroke-linejoin="round" stroke-width="1"></path><path d="M21 0.749h0.75a1.5 1.5 0 0 1 1.5 1.5V10.5a1.5 1.5 0 0 1 -1.5 1.5h-4.5l-4.5 4.5V12h-3a1.5 1.5 0 0 1 -1.5 -1.5V2.249a1.5 1.5 0 0 1 1.5 -1.5h1.5" fill="none" stroke="#000000" stroke-linecap="round" stroke-linejoin="round" stroke-width="1"></path></svg>