<svg viewBox="0 0 24 24" xmlns="http://www.w3.org/2000/svg" id="Business-Deal-Women-Cash--Streamline-Ultimate"><desc>Business Deal Women Cash Streamline Icon: https://streamlinehq.com</desc><path d="M3 15.749a3 3 0 1 0 6 0 3 3 0 1 0 -6 0Z" fill="none" stroke="#000000" stroke-linecap="round" stroke-linejoin="round" stroke-width="1"></path><path d="M3 15.749S3 19.5 0.75 19.5" fill="none" stroke="#000000" stroke-linecap="round" stroke-linejoin="round" stroke-width="1"></path><path d="M9 15.749s0 3.75 2.25 3.75" fill="none" stroke="#000000" stroke-linecap="round" stroke-linejoin="round" stroke-width="1"></path><path d="M1.756 23.249a4.5 4.5 0 0 1 8.488 0" fill="none" stroke="#000000" stroke-linecap="round" stroke-linejoin="round" stroke-width="1"></path><path d="M20.6 14.249A3 3 0 0 1 16.016 18" fill="none" stroke="#000000" stroke-linecap="round" stroke-linejoin="round" stroke-width="1"></path><path d="M21 15.75s0 3.75 2.25 3.75" fill="none" stroke="#000000" stroke-linecap="round" stroke-linejoin="round" stroke-width="1"></path><path d="M13.756 23.249a4.5 4.5 0 0 1 8.488 0" fill="none" stroke="#000000" stroke-linecap="round" stroke-linejoin="round" stroke-width="1"></path><path d="M17.625 2.249H15a1.342 1.342 0 0 0 -0.5 2.588l2.655 0.825a1.342 1.342 0 0 1 -0.5 2.587H13.5" fill="none" stroke="#000000" stroke-linecap="round" stroke-linejoin="round" stroke-width="1"></path><path d="m15.75 2.249 0 -1.5" fill="none" stroke="#000000" stroke-linecap="round" stroke-linejoin="round" stroke-width="1"></path><path d="m15.75 9.749 0 -1.5" fill="none" stroke="#000000" stroke-linecap="round" stroke-linejoin="round" stroke-width="1"></path><path d="M21 0.749h0.75a1.5 1.5 0 0 1 1.5 1.5V10.5a1.5 1.5 0 0 1 -1.5 1.5h-4.5l-4.5 4.5V12h-3a1.5 1.5 0 0 1 -1.5 -1.5V2.249a1.5 1.5 0 0 1 1.5 -1.5h1.5" fill="none" stroke="#000000" stroke-linecap="round" stroke-linejoin="round" stroke-width="1"></path></svg>