<svg xmlns="http://www.w3.org/2000/svg" fill="none" viewBox="0 0 24 24" id="Earth-Locate--Streamline-Ultimate"><desc>Earth Locate Streamline Icon: https://streamlinehq.com</desc><path stroke="#000000" stroke-linecap="round" stroke-linejoin="round" d="M14.2899 22.9634c-2.1659 0.4524 -4.41733 0.2532 -6.4701 -0.5727 -2.05278 -0.8258 -3.81495 -2.2411 -5.06416 -4.0674C1.50643 16.497 0.826162 14.3416 0.80067 12.1291c-0.025492 -2.21253 0.60494 -4.38302 1.81174 -6.23761C3.81921 4.03691 5.5483 2.58133 7.5815 1.70843 9.6147 0.835531 11.8609 0.584428 14.0367 0.986805c2.1757 0.402375 4.1836 1.440205 5.7701 2.982525s2.6807 3.52002 3.1444 5.68354" stroke-width="1"></path><path stroke="#000000" stroke-linecap="round" stroke-linejoin="round" d="m5.03117 20.7733 0.99556 -5.0275h1.0752c0.22706 0.0008 0.45124 -0.0509 0.65502 -0.1511 0.20378 -0.1002 0.38165 -0.2461 0.51973 -0.4263 0.14223 -0.1761 0.24074 -0.3834 0.28746 -0.6049 0.04672 -0.2215 0.04032 -0.4509 -0.01866 -0.6694l-0.74667 -2.9867c-0.07824 -0.3238 -0.26319 -0.6118 -0.52505 -0.8177 -0.26186 -0.20587 -0.5854 -0.31762 -0.9185 -0.31724H1.04895" stroke-width="1"></path><path stroke="#000000" stroke-linecap="round" stroke-linejoin="round" d="M20.96 5.29248h-4.0618c-0.3331 -0.00038 -0.6567 0.11137 -0.9185 0.31725 -0.2619 0.20588 -0.4468 0.4939 -0.5251 0.81768l-0.6471 2.5984" stroke-width="1"></path><path stroke="#000000" stroke-linecap="round" stroke-linejoin="round" d="M18.72 11.2659c0.5887 -0.0013 1.1718 0.1137 1.716 0.3383 0.5441 0.2247 1.0385 0.5546 1.4548 0.9709 0.4162 0.4163 0.7462 0.9107 0.9709 1.4548 0.2246 0.5441 0.3396 1.1273 0.3383 1.716 0 1.9114 -2.678 5.5552 -3.8926 7.1082 -0.0699 0.0891 -0.1591 0.161 -0.2608 0.2105 -0.1018 0.0495 -0.2134 0.0752 -0.3266 0.0752s-0.2248 -0.0257 -0.3266 -0.0752c-0.1017 -0.0495 -0.1909 -0.1214 -0.2608 -0.2105 -1.2146 -1.553 -3.8926 -5.1968 -3.8926 -7.1082 -0.0013 -0.5887 0.1137 -1.1719 0.3383 -1.716 0.2247 -0.5441 0.5547 -1.0385 0.9709 -1.4548 0.4163 -0.4163 0.9107 -0.7462 1.4548 -0.9709 0.5442 -0.2246 1.1273 -0.3396 1.716 -0.3383v0Z" stroke-width="1"></path><g><path stroke="#000000" d="M18.725 16.1241c-0.2062 0 -0.3733 -0.1671 -0.3733 -0.3733 0 -0.2062 0.1671 -0.3734 0.3733 -0.3734" stroke-width="1"></path><path stroke="#000000" d="M18.7251 16.1241c0.2061 0 0.3733 -0.1671 0.3733 -0.3733 0 -0.2062 -0.1672 -0.3734 -0.3733 -0.3734" stroke-width="1"></path></g></svg>