<svg xmlns="http://www.w3.org/2000/svg" viewBox="0 0 24 24" id="Earth-Block--Streamline-Ultimate"><desc>Earth Block Streamline Icon: https://streamlinehq.com</desc><g><g><path d="M9.65 23a11.25 11.25 0 1 1 13.5 -12.5" fill="none" stroke="#000000" stroke-linecap="round" stroke-linejoin="round" stroke-width="1"></path><g><path d="m5 20.8 1 -5.05h1.08a1.48 1.48 0 0 0 1.18 -0.58 1.44 1.44 0 0 0 0.27 -1.28l-0.75 -3a1.49 1.49 0 0 0 -1.45 -1.14H1" fill="none" stroke="#000000" stroke-linecap="round" stroke-linejoin="round" stroke-width="1"></path><path d="M21 5.25h-4.08a1.49 1.49 0 0 0 -1.45 1.14L15 8.3" fill="none" stroke="#000000" stroke-linecap="round" stroke-linejoin="round" stroke-width="1"></path></g></g><g><path d="M12.9884011282 21.5067828227a6.02 5.97 -45 1 0 8.5135656455 -8.5135656454 6.02 5.97 -45 1 0 -8.5135656455 8.5135656454" fill="none" stroke="#000000" stroke-linecap="round" stroke-linejoin="round" stroke-width="1"></path><path d="m13.01 21.49 8.48 -8.48" fill="none" stroke="#000000" stroke-linecap="round" stroke-linejoin="round" stroke-width="1"></path></g></g></svg>