<svg xmlns="http://www.w3.org/2000/svg" viewBox="0 0 24 24" id="Earth-Heart--Streamline-Ultimate"><desc>Earth Heart Streamline Icon: https://streamlinehq.com</desc><g><g><path d="M12.71 23.23a11.25 11.25 0 1 1 10.44 -12.74" fill="none" stroke="#000000" stroke-linecap="round" stroke-linejoin="round" stroke-width="1"></path><g><path d="m5 20.8 1 -5.05h1.08a1.48 1.48 0 0 0 1.18 -0.58 1.44 1.44 0 0 0 0.27 -1.28l-0.75 -3a1.49 1.49 0 0 0 -1.45 -1.14H1" fill="none" stroke="#000000" stroke-linecap="round" stroke-linejoin="round" stroke-width="1"></path><path d="M21 5.25h-4.08a1.49 1.49 0 0 0 -1.45 1.14l-0.75 3" fill="none" stroke="#000000" stroke-linecap="round" stroke-linejoin="round" stroke-width="1"></path></g></g><path d="M22.32 13.58a3 3 0 0 0 -4.24 0.1l-0.83 0.87 -0.83 -0.87a3 3 0 1 0 -4.34 4.14l5.17 5.43 5.17 -5.43a3 3 0 0 0 -0.1 -4.24Z" fill="none" stroke="#000000" stroke-linecap="round" stroke-linejoin="round" stroke-width="1"></path></g></svg>