<svg xmlns="http://www.w3.org/2000/svg" viewBox="0 0 24 24" id="Earth-Refresh--Streamline-Ultimate"><desc>Earth Refresh Streamline Icon: https://streamlinehq.com</desc><g><g><path d="M8.25 22.61A11.25 11.25 0 1 1 22.85 9" fill="none" stroke="#000000" stroke-linecap="round" stroke-linejoin="round" stroke-width="1"></path><g><path d="m5 20.8 1 -5.05h1.08a1.48 1.48 0 0 0 1.18 -0.58 1.44 1.44 0 0 0 0.27 -1.28l-0.75 -3a1.49 1.49 0 0 0 -1.45 -1.14H1" fill="none" stroke="#000000" stroke-linecap="round" stroke-linejoin="round" stroke-width="1"></path><path d="M21 5.25h-4.08a1.49 1.49 0 0 0 -1.45 1.14L14.81 9" fill="none" stroke="#000000" stroke-linecap="round" stroke-linejoin="round" stroke-width="1"></path></g></g><g><path d="m15 18.75 -3.75 0 0 3.75" fill="none" stroke="#000000" stroke-linecap="round" stroke-linejoin="round" stroke-width="1"></path><path d="M22.67 19.48a5.57 5.57 0 0 1 -10.74 -0.73" fill="none" stroke="#000000" stroke-linecap="round" stroke-linejoin="round" stroke-width="1"></path><path d="m19.5 15.75 3.75 0 0 -3.75" fill="none" stroke="#000000" stroke-linecap="round" stroke-linejoin="round" stroke-width="1"></path><path d="M11.83 15a5.57 5.57 0 0 1 10.74 0.73" fill="none" stroke="#000000" stroke-linecap="round" stroke-linejoin="round" stroke-width="1"></path></g></g></svg>