<svg xmlns="http://www.w3.org/2000/svg" viewBox="0 0 24 24" id="Earth-Star--Streamline-Ultimate"><desc>Earth Star Streamline Icon: https://streamlinehq.com</desc><g><path d="m18 11.68 1.54 4.07h3A0.73 0.73 0 0 1 23 17l-2.61 1.82 1.45 3.31a0.78 0.78 0 0 1 -1.12 1l-3.49 -2 -3.49 2a0.78 0.78 0 0 1 -1.11 -1l1.44 -3.31L11.48 17a0.74 0.74 0 0 1 0.52 -1.25h3l1.54 -4.07a0.8 0.8 0 0 1 1.46 0Z" fill="none" stroke="#000000" stroke-linecap="round" stroke-linejoin="round" stroke-width="1"></path><g><path d="M9.65 23a11.25 11.25 0 1 1 13.6 -11" fill="none" stroke="#000000" stroke-linecap="round" stroke-linejoin="round" stroke-width="1"></path><g><path d="m5 20.8 1 -5.05h1.08a1.48 1.48 0 0 0 1.18 -0.58 1.44 1.44 0 0 0 0.27 -1.28l-0.75 -3a1.49 1.49 0 0 0 -1.45 -1.14H1" fill="none" stroke="#000000" stroke-linecap="round" stroke-linejoin="round" stroke-width="1"></path><path d="M21 5.25h-4.08a1.49 1.49 0 0 0 -1.45 1.14l-0.75 3" fill="none" stroke="#000000" stroke-linecap="round" stroke-linejoin="round" stroke-width="1"></path></g></g></g></svg>