<svg xmlns="http://www.w3.org/2000/svg" viewBox="0 0 24 24" id="Earth-Edit--Streamline-Ultimate"><desc>Earth Edit Streamline Icon: https://streamlinehq.com</desc><g><g><path d="M8.32 22.63A11.25 11.25 0 1 1 22.61 8.26" fill="none" stroke="#000000" stroke-linecap="round" stroke-linejoin="round" stroke-width="1"></path><g><path d="m5 20.8 1 -5.05h1.08a1.48 1.48 0 0 0 1.18 -0.58 1.44 1.44 0 0 0 0.27 -1.28l-0.75 -3a1.49 1.49 0 0 0 -1.45 -1.14H1" fill="none" stroke="#000000" stroke-linecap="round" stroke-linejoin="round" stroke-width="1"></path><path d="M21 5.25h-4.08a1.49 1.49 0 0 0 -1.45 1.14l-1.77 7.07" fill="none" stroke="#000000" stroke-linecap="round" stroke-linejoin="round" stroke-width="1"></path></g></g><path d="M22.63 14.87 15 22.5l-3.75 0.75 0.75 -3.75 7.63 -7.63a2.11 2.11 0 0 1 3 0h0a2.11 2.11 0 0 1 0 3Z" fill="none" stroke="#000000" stroke-linecap="round" stroke-linejoin="round" stroke-width="1"></path></g></svg>