<svg viewBox="0 0 24 24" xmlns="http://www.w3.org/2000/svg" id="Earth-Pin-1--Streamline-Ultimate"><desc>Earth Pin 1 Streamline Icon: https://streamlinehq.com</desc><path d="M20.75 9.75a9 9 0 0 0 -9.128 -9 9.114 9.114 0 0 0 -8.856 8.46 9 9 0 0 0 7.184 9.359l1.8 4.681 1.8 -4.681a9 9 0 0 0 7.2 -8.819Z" fill="none" stroke="#000000" stroke-linecap="round" stroke-linejoin="round" stroke-width="1"></path><path d="M5.75 9.75a6 6 0 1 0 12 0 6 6 0 1 0 -12 0Z" fill="none" stroke="#000000" stroke-linecap="round" stroke-linejoin="round" stroke-width="1"></path><path d="M6.552 6.751H8a1.5 1.5 0 0 1 1.5 1.5v0.7a1.5 1.5 0 0 0 0.668 1.248l0.958 0.639a1.4 1.4 0 0 1 0 2.332L8.6 14.854" fill="none" stroke="#000000" stroke-linecap="round" stroke-linejoin="round" stroke-width="1"></path><path d="M16.948 6.751h-0.7a1.5 1.5 0 0 0 -1.342 2.171c0.427 0.854 0.525 0.895 0.79 1.054l1.9 1.138" fill="none" stroke="#000000" stroke-linecap="round" stroke-linejoin="round" stroke-width="1"></path></svg>