<svg xmlns="http://www.w3.org/2000/svg" viewBox="0 0 24 24" id="Earth-Setting--Streamline-Ultimate"><desc>Earth Setting Streamline Icon: https://streamlinehq.com</desc><g><g><path d="M9.65 23A11.25 11.25 0 1 1 23 9.75" fill="none" stroke="#000000" stroke-linecap="round" stroke-linejoin="round" stroke-width="1"></path><g><path d="m5 20.8 1 -5.05h1.08a1.48 1.48 0 0 0 1.18 -0.58 1.44 1.44 0 0 0 0.27 -1.28l-0.75 -3a1.49 1.49 0 0 0 -1.45 -1.14H1" fill="none" stroke="#000000" stroke-linecap="round" stroke-linejoin="round" stroke-width="1"></path><path d="M21 5.25h-4.08a1.49 1.49 0 0 0 -1.45 1.14l-0.28 1.1" fill="none" stroke="#000000" stroke-linecap="round" stroke-linejoin="round" stroke-width="1"></path></g></g><g><path d="M15.75 16.5a1.5 1.5 0 1 0 3 0 1.5 1.5 0 1 0 -3 0" fill="none" stroke="#000000" stroke-linecap="round" stroke-linejoin="round" stroke-width="1"></path><path d="m18.52 10.7 0.48 1.45a1 1 0 0 0 1.17 0.68l1.47 -0.34a1.34 1.34 0 0 1 1.28 2.22l-1 1.11a1 1 0 0 0 0 1.36l1 1.11a1.34 1.34 0 0 1 -1.28 2.22l-1.47 -0.34a1 1 0 0 0 -1.17 0.68l-0.45 1.45a1.32 1.32 0 0 1 -2.54 0l-0.45 -1.45a1 1 0 0 0 -1.17 -0.68l-1.47 0.34a1.34 1.34 0 0 1 -1.28 -2.22l1 -1.11a1 1 0 0 0 0 -1.36l-1 -1.11a1.34 1.34 0 0 1 1.28 -2.22l1.47 0.34a1 1 0 0 0 1.17 -0.68L16 10.7a1.32 1.32 0 0 1 2.52 0Z" fill="none" stroke="#000000" stroke-linecap="round" stroke-linejoin="round" stroke-width="1"></path></g></g></svg>