<svg xmlns="http://www.w3.org/2000/svg" viewBox="0 0 24 24" id="Desktop-Computer--Streamline-Ultimate"><desc>Desktop Computer Streamline Icon: https://streamlinehq.com</desc><defs></defs><title>desktop-computer</title><path d="M3.75 0.75h16.5s1.5 0 1.5 1.5v10.5s0 1.5 -1.5 1.5H3.75s-1.5 0 -1.5 -1.5V2.25s0 -1.5 1.5 -1.5" fill="none" stroke="#000000" stroke-linecap="round" stroke-linejoin="round" stroke-width="1"></path><path d="M20.767 22.318a0.749 0.749 0 0 1 -0.728 0.932H3.961a0.749 0.749 0 0 1 -0.728 -0.932l1.125 -4.5a0.749 0.749 0 0 1 0.728 -0.568h13.828a0.751 0.751 0 0 1 0.728 0.568Z" fill="none" stroke="#000000" stroke-linecap="round" stroke-linejoin="round" stroke-width="1"></path><path d="m2.25 11.25 19.5 0" fill="none" stroke="#000000" stroke-linecap="round" stroke-linejoin="round" stroke-width="1"></path><path d="m6.75 20.25 1.5 0" fill="none" stroke="#000000" stroke-linecap="round" stroke-linejoin="round" stroke-width="1"></path><path d="m15.75 20.25 1.5 0" fill="none" stroke="#000000" stroke-linecap="round" stroke-linejoin="round" stroke-width="1"></path><path d="m11.25 20.25 1.5 0" fill="none" stroke="#000000" stroke-linecap="round" stroke-linejoin="round" stroke-width="1"></path></svg>