<svg xmlns="http://www.w3.org/2000/svg" viewBox="0 0 24 24" id="Desktop-Monitor-Settings--Streamline-Ultimate"><desc>Desktop Monitor Settings Streamline Icon: https://streamlinehq.com</desc><g><g><path d="m15.75 23.25 -7.5 0 0.75 -3 6 0 0.75 3z" fill="none" stroke="#000000" stroke-linecap="round" stroke-linejoin="round" stroke-width="1"></path><path d="m6 23.25 12 0" fill="none" stroke="#000000" stroke-linecap="round" stroke-linejoin="round" stroke-width="1"></path><path d="m0.75 16.25 12.25 0" fill="none" stroke="#000000" stroke-linecap="round" stroke-linejoin="round" stroke-width="1"></path><path d="M23.25 14.25v3a3 3 0 0 1 -3 3H3.75a3 3 0 0 1 -3 -3V6.75a3 3 0 0 1 3 -3h4.5" fill="none" stroke="#000000" stroke-linecap="round" stroke-linejoin="round" stroke-width="1"></path></g><path d="M15.75 7.5a1.5 1.5 0 1 0 3 0 1.5 1.5 0 1 0 -3 0" fill="none" stroke="#000000" stroke-linecap="round" stroke-linejoin="round" stroke-width="1"></path><path d="M18.52 1.7 19 3.15a1 1 0 0 0 1.17 0.68l1.47 -0.34a1.34 1.34 0 0 1 1.28 2.22l-1 1.11a1 1 0 0 0 0 1.36l1 1.11a1.34 1.34 0 0 1 -1.28 2.22l-1.47 -0.34a1 1 0 0 0 -1.17 0.68l-0.45 1.45a1.32 1.32 0 0 1 -2.54 0l-0.45 -1.45a1 1 0 0 0 -1.17 -0.68l-1.47 0.34a1.34 1.34 0 0 1 -1.28 -2.22l1 -1.11a1 1 0 0 0 0 -1.36l-1 -1.11a1.34 1.34 0 0 1 1.28 -2.22l1.47 0.34a1 1 0 0 0 1.17 -0.68L16 1.7a1.32 1.32 0 0 1 2.52 0Z" fill="none" stroke="#000000" stroke-linecap="round" stroke-linejoin="round" stroke-width="1"></path></g></svg>