<svg xmlns="http://www.w3.org/2000/svg" fill="none" viewBox="0 0 24 24" id="Bold-Italic-Underline--Streamline-Ultimate"><desc>Bold Italic Underline Streamline Icon: https://streamlinehq.com</desc><path stroke="#000000" stroke-linecap="round" stroke-linejoin="round" stroke-miterlimit="10" d="M17.25 18.0498h5.5" stroke-width="1"></path><path stroke="#000000" stroke-linecap="round" stroke-linejoin="round" stroke-miterlimit="10" d="M11.6759 6.5498h3" stroke-width="1"></path><path stroke="#000000" stroke-linecap="round" stroke-linejoin="round" stroke-miterlimit="10" d="M9.87585 18.0498h3.00005" stroke-width="1"></path><path stroke="#000000" stroke-linecap="round" stroke-linejoin="round" stroke-miterlimit="10" d="m13.1759 6.5498 -2 11.5" stroke-width="1"></path><path stroke="#000000" stroke-linecap="round" stroke-linejoin="round" d="M0.788849 6.0498v5.5H4.03885c1.51878 0 2.75 -1.2312 2.75 -2.75 0 -1.51878 -1.23122 -2.75 -2.75 -2.75H0.788849Z" stroke-width="1"></path><path stroke="#000000" stroke-linecap="round" stroke-linejoin="round" d="M0.788849 11.5498v6.5H4.53885c1.79492 0 3.25 -1.4551 3.25 -3.25s-1.45508 -3.25 -3.25 -3.25H0.788849Z" stroke-width="1"></path><path stroke="#000000" stroke-linecap="round" stroke-linejoin="round" d="m17.7274 6.5498 0 6.7726c0 1.2551 1.0175 2.2726 2.2726 2.2726v0c1.2551 0 2.2726 -1.0175 2.2726 -2.2726V6.5498" stroke-width="1"></path></svg>