<svg xmlns="http://www.w3.org/2000/svg" fill="none" viewBox="0 0 24 24" id="Double-Exclamation-Mark-2--Streamline-Ultimate"><desc>Double Exclamation Mark 2 Streamline Icon: https://streamlinehq.com</desc><path stroke="#000000" stroke-linecap="round" stroke-linejoin="round" stroke-miterlimit="10" d="M18.2223 19.666c-0.9956 0 -1.792 0.7965 -1.792 1.7921s0.7964 1.792 1.792 1.792 1.792 -0.7964 1.792 -1.792c-0.0995 -0.9956 -0.896 -1.7921 -1.792 -1.7921Z" stroke-width="1"></path><path stroke="#000000" stroke-linecap="round" stroke-linejoin="round" stroke-miterlimit="10" d="M21.5078 4.13498c0 1.8916 -3.3849 12.24562 -3.3849 12.24562s-3.385 -10.45358 -3.385 -12.24562C14.7379 2.34295 16.2313 0.75 18.1229 0.75c1.8916 0 3.3849 1.49339 3.3849 3.38498Z" stroke-width="1"></path><path stroke="#000000" stroke-linecap="round" stroke-linejoin="round" stroke-miterlimit="10" d="M5.87738 19.666c-0.99557 0 -1.79205 0.7965 -1.79205 1.7921s0.79648 1.792 1.79205 1.792c0.99558 0 1.79203 -0.7964 1.79203 -1.792 -0.09956 -0.9956 -0.79645 -1.7921 -1.79203 -1.7921Z" stroke-width="1"></path><path stroke="#000000" stroke-linecap="round" stroke-linejoin="round" stroke-miterlimit="10" d="M9.26209 4.13498c0 1.8916 -3.38495 12.24562 -3.38495 12.24562S2.49219 5.92702 2.49219 4.13498C2.49219 2.34295 3.98555 0.75 5.87714 0.75c1.8916 0 3.38495 1.49339 3.38495 3.38498Z" stroke-width="1"></path></svg>