<svg xmlns="http://www.w3.org/2000/svg" viewBox="0 0 24 24" id="Eraser-2--Streamline-Ultimate"><desc>Eraser 2 Streamline Icon: https://streamlinehq.com</desc><g><path d="m4.315037508 9.1946594539 6.880148981 -6.880148981s1.0606601718 -1.0606601717 2.1213203436 0l5.3810826048 5.3810826049s1.0606601718 1.0606601718 0 2.1213203435l-6.880148981 6.880148981s-1.0606601717 1.0606601718 -2.1213203435 0L4.315037508 11.3159797975s-1.0606601718 -1.0606601718 0 -2.1213203436" fill="none" stroke="#000000" stroke-linecap="round" stroke-linejoin="round" stroke-width="1"></path><path d="m4.05 11 -2.42 2.38a3 3 0 0 0 0 4.24l1.19 1.19a1.5 1.5 0 0 0 1.06 0.44h3.26a1.52 1.52 0 0 0 1.06 -0.44L10.05 17" fill="none" stroke="#000000" stroke-linecap="round" stroke-linejoin="round" stroke-width="1"></path><path d="m6.25 23.25 17 0" fill="none" stroke="#000000" stroke-linecap="round" stroke-linejoin="round" stroke-width="1"></path></g></svg>