<svg xmlns="http://www.w3.org/2000/svg" fill="none" viewBox="0 0 24 24" id="Lower-Case-Text-Format-Dottted-Underline--Streamline-Ultimate"><desc>Lower Case Text Format Dottted Underline Streamline Icon: https://streamlinehq.com</desc><path stroke="#000000" stroke-linecap="round" stroke-linejoin="round" stroke-miterlimit="10" d="M6.94995 8.48242v6.89998" stroke-width="1"></path><path stroke="#000000" stroke-linecap="round" stroke-linejoin="round" stroke-miterlimit="10" d="M3.85001 15.3826c1.71208 0 3.09997 -1.3879 3.09997 -3.1 0 -1.7121 -1.38789 -3.09998 -3.09997 -3.09998C2.13792 9.18262 0.75 10.5705 0.75 12.2826s1.38792 3.1 3.10001 3.1Z" stroke-width="1"></path><path stroke="#000000" stroke-linecap="round" stroke-linejoin="round" stroke-miterlimit="10" d="M23.2501 14.8826c-0.5 0.3 -1 0.5 -1.6 0.5 -1.7 0 -3.1001 -1.4 -3.1001 -3.1 0 -1.7 1.4001 -3.09998 3.1001 -3.09998 0.6 0 1.1 0.20002 1.6 0.40002" stroke-width="1"></path><path stroke="#000000" stroke-linecap="round" stroke-linejoin="round" stroke-miterlimit="10" d="M9.94995 3.38245V15.3824" stroke-width="1"></path><path stroke="#000000" stroke-linecap="round" stroke-linejoin="round" stroke-miterlimit="10" d="M13.05 15.3826c1.712 0 3.1 -1.3879 3.1 -3.1 0 -1.7121 -1.388 -3.09998 -3.1 -3.09998 -1.7121 0 -3.10005 1.38788 -3.10005 3.09998s1.38795 3.1 3.10005 3.1Z" stroke-width="1"></path><path stroke="#000000" stroke-linecap="round" stroke-linejoin="round" stroke-miterlimit="10" d="M1.15001 19.8174c-0.200001 0 -0.40001 0.2 -0.40001 0.4s0.200009 0.4 0.40001 0.4" stroke-width="1"></path><path stroke="#000000" stroke-linecap="round" stroke-linejoin="round" stroke-miterlimit="10" d="M1.15004 19.8174c0.2 0 0.40001 0.2 0.40001 0.4s-0.20001 0.4 -0.40001 0.4" stroke-width="1"></path><path stroke="#000000" stroke-linecap="round" stroke-linejoin="round" stroke-miterlimit="10" d="M5.48997 19.8174c-0.2 0 -0.4 0.2 -0.4 0.4s0.2 0.4 0.4 0.4" stroke-width="1"></path><path stroke="#000000" stroke-linecap="round" stroke-linejoin="round" stroke-miterlimit="10" d="M5.49001 19.8174c0.2 0 0.4 0.2 0.4 0.4s-0.2 0.4 -0.4 0.4" stroke-width="1"></path><path stroke="#000000" stroke-linecap="round" stroke-linejoin="round" stroke-miterlimit="10" d="M9.82994 19.8174c-0.2 0 -0.40001 0.2 -0.40001 0.4s0.20001 0.4 0.40001 0.4" stroke-width="1"></path><path stroke="#000000" stroke-linecap="round" stroke-linejoin="round" stroke-miterlimit="10" d="M9.82997 19.8174c0.20003 0 0.40003 0.2 0.40003 0.4s-0.2 0.4 -0.40003 0.4" stroke-width="1"></path><path stroke="#000000" stroke-linecap="round" stroke-linejoin="round" stroke-miterlimit="10" d="M14.1699 19.8174c-0.2 0 -0.4 0.2 -0.4 0.4s0.2 0.4 0.4 0.4" stroke-width="1"></path><path stroke="#000000" stroke-linecap="round" stroke-linejoin="round" stroke-miterlimit="10" d="M14.1699 19.8174c0.2 0 0.4 0.2 0.4 0.4s-0.2 0.4 -0.4 0.4" stroke-width="1"></path><path stroke="#000000" stroke-linecap="round" stroke-linejoin="round" stroke-miterlimit="10" d="M18.5099 19.8174c-0.2 0 -0.4 0.2 -0.4 0.4s0.2 0.4 0.4 0.4" stroke-width="1"></path><path stroke="#000000" stroke-linecap="round" stroke-linejoin="round" stroke-miterlimit="10" d="M18.5099 19.8174c0.2 0 0.4 0.2 0.4 0.4s-0.2 0.4 -0.4 0.4" stroke-width="1"></path><path stroke="#000000" stroke-linecap="round" stroke-linejoin="round" stroke-miterlimit="10" d="M22.8498 19.8174c-0.2 0 -0.4 0.2 -0.4 0.4s0.2 0.4 0.4 0.4" stroke-width="1"></path><path stroke="#000000" stroke-linecap="round" stroke-linejoin="round" stroke-miterlimit="10" d="M22.8499 19.8174c0.2 0 0.4 0.2 0.4 0.4s-0.2 0.4 -0.4 0.4" stroke-width="1"></path></svg>