<svg xmlns="http://www.w3.org/2000/svg" fill="none" viewBox="0 0 24 24" id="Text-Format-Alphabet--Streamline-Ultimate"><desc>Text Format Alphabet Streamline Icon: https://streamlinehq.com</desc><path stroke="#000000" stroke-linecap="round" stroke-linejoin="round" d="M10.1087 8.10645v3.56925h2.7581c0.9856 0 1.7846 -0.799 1.7846 -1.78465 0 -0.98561 -0.799 -1.7846 -1.7846 -1.7846h-2.7581Z" stroke-width="1"></path><path stroke="#000000" stroke-linecap="round" stroke-linejoin="round" d="M10.1087 11.6758v4.2181h3.0825c1.1648 0 2.1091 -0.9442 2.1091 -2.109 0 -1.1649 -0.9443 -2.1091 -2.1091 -2.1091h-3.0825Z" stroke-width="1"></path><path stroke="#000000" stroke-linecap="round" stroke-linejoin="round" d="M23.0951 9.40435c-0.2672 -0.75615 -0.9884 -1.2979 -1.836 -1.2979h-1.2979c-1.0752 0 -1.9469 0.87163 -1.9469 1.94685v3.8937c0 1.0752 0.8717 1.9468 1.9469 1.9468h1.2979c0.8476 0 1.5688 -0.5417 1.836 -1.2979" stroke-width="1"></path><path stroke="#000000" stroke-linecap="round" stroke-linejoin="round" d="M0.904863 15.8938 3.29544 8.72209c0.12255 -0.36766 0.46662 -0.61564 0.85417 -0.61564v0c0.38754 0 0.73161 0.24798 0.85416 0.61564l2.39058 7.17171M1.77013 13.298h4.75895" stroke-width="1"></path></svg>