<svg xmlns="http://www.w3.org/2000/svg" fill="none" viewBox="0 0 24 24" id="Text-Flow-Columns--Streamline-Ultimate"><desc>Text Flow Columns Streamline Icon: https://streamlinehq.com</desc><path stroke="#000000" stroke-linecap="round" stroke-linejoin="round" d="M8.13281 2.07422c0 -0.55229 -0.44771 -1 -1 -1l-5.11328 0c-0.55228 0 -1 0.44771 -1 1l0 5.11328c0 0.55228 0.44772 1 1 1l5.11328 0c0.55229 0 1 -0.44772 1 -1l0 -5.11328Z" stroke-width="1"></path><path stroke="#000000" stroke-linecap="round" stroke-linejoin="round" d="M22.6797 2.07031c0 -0.55228 -0.4477 -1 -1 -1l-5.1133 0c-0.5523 0 -1 0.44772 -1 1l0 5.11328c0 0.55229 0.4477 1 1 1l5.1133 0c0.5523 0 1 -0.44771 1 -1l0 -5.11328Z" stroke-width="1"></path><path stroke="#000000" stroke-linecap="round" stroke-linejoin="round" d="M8.13281 16.8125c0 -0.5523 -0.44771 -1 -1 -1l-5.11328 0c-0.55228 0 -1 0.4477 -1 1l0 5.1133c0 0.5523 0.44772 1 1 1l5.11328 0c0.55229 0 1 -0.4477 1 -1l0 -5.1133Z" stroke-width="1"></path><path stroke="#000000" stroke-linecap="round" stroke-linejoin="round" d="m4.57812 8.1875 0.00001 7.6289" stroke-width="1"></path><path stroke="#000000" stroke-linecap="round" stroke-linejoin="round" d="m19.125 8.1875 0 14.7422" stroke-width="1"></path><path stroke="#000000" stroke-linecap="round" stroke-linejoin="round" d="m15.5664 8.1875 -7.53188 7.5319" stroke-width="1"></path><path stroke="#000000" stroke-linecap="round" stroke-linejoin="round" d="m15.2695 19.0703 3.8555 3.8555 3.8555 -3.8555" stroke-width="1"></path></svg>