<svg xmlns="http://www.w3.org/2000/svg" fill="none" viewBox="0 0 24 24" id="Text-Format-1--Streamline-Ultimate"><desc>Text Format 1 Streamline Icon: https://streamlinehq.com</desc><path stroke="#000000" stroke-linecap="round" stroke-linejoin="round" stroke-miterlimit="10" d="M15.1765 12.0539c0 -2.08463 1.6875 -3.77216 3.7721 -3.77216s3.7722 1.68753 3.7722 3.77216v7.7428" stroke-width="1"></path><path stroke="#000000" stroke-linecap="round" stroke-linejoin="round" stroke-miterlimit="10" d="M22.6215 13.0464c-1.0919 0.8934 -2.4817 1.3897 -3.8714 1.3897h-0.4963c-1.6876 0 -3.0773 1.1912 -3.0773 2.6802s1.3897 2.6803 3.0773 2.6803c0 0 3.0772 -0.0001 4.3677 -2.6803" stroke-width="1"></path><path stroke="#000000" stroke-linecap="round" stroke-linejoin="round" d="M1.25635 19.7965 5.68348 6.51512c0.22696 -0.68087 0.86414 -1.14012 1.58184 -1.14012v0c0.7177 0 1.35488 0.45925 1.58183 1.14012L13.2743 19.7965M2.85874 14.9894h8.81316" stroke-width="1"></path></svg>