<svg xmlns="http://www.w3.org/2000/svg" fill="none" viewBox="0 0 24 24" id="Textbox--Streamline-Ultimate"><desc>Textbox Streamline Icon: https://streamlinehq.com</desc><path stroke="#000000" stroke-linecap="round" stroke-linejoin="round" stroke-miterlimit="10" d="M1.50002 8.75006V5.55005c0 -1.1 0.9 -2 2 -2H20.5c1.1 0 2 0.9 2 2v3.20001" stroke-width="1"></path><path stroke="#000000" stroke-linecap="round" stroke-linejoin="round" stroke-miterlimit="10" d="M1.50002 15.25v3.2c0 1.1 0.9 2 2 2H20.5c1.1 0 2 -0.9 2 -2v-3.2" stroke-width="1"></path><path stroke="#000000" stroke-linecap="round" stroke-linejoin="round" stroke-miterlimit="10" d="M22.5 12.2001c-0.1104 0 -0.2 -0.0896 -0.2 -0.2 0 -0.1105 0.0896 -0.2001 0.2 -0.2001" stroke-width="1"></path><path stroke="#000000" stroke-linecap="round" stroke-linejoin="round" stroke-miterlimit="10" d="M22.5 12.2001c0.1105 0 0.2 -0.0896 0.2 -0.2 0 -0.1105 -0.0895 -0.2001 -0.2 -0.2001" stroke-width="1"></path><path stroke="#000000" stroke-linecap="round" stroke-linejoin="round" stroke-miterlimit="10" d="M1.50002 12.2001c-0.11046 0 -0.20002 -0.0896 -0.20002 -0.2 0 -0.1105 0.08956 -0.2001 0.20002 -0.2001" stroke-width="1"></path><path stroke="#000000" stroke-linecap="round" stroke-linejoin="round" stroke-miterlimit="10" d="M1.50002 12.2001c0.11045 0 0.20001 -0.0896 0.20001 -0.2 0 -0.1105 -0.08956 -0.2001 -0.20001 -0.2001" stroke-width="1"></path><path stroke="#000000" stroke-linecap="round" stroke-linejoin="round" d="m12 7.53149 0 9.33741M8.88755 7.53149l6.22495 0" stroke-width="1"></path></svg>