<svg viewBox="0 0 24 24" xmlns="http://www.w3.org/2000/svg" id="Vectors-Pen-Subtract-1--Streamline-Ultimate"><desc>Vectors Pen Subtract 1 Streamline Icon: https://streamlinehq.com</desc><path d="m0.75 2.625 7.5 0" fill="none" stroke="#000000" stroke-linecap="round" stroke-linejoin="round" stroke-width="1"></path><path d="m20.147 11.026 -4.7 -4.7L17.972 3.8a1.968 1.968 0 0 1 2.784 0l1.918 1.918a1.969 1.969 0 0 1 0 2.783Z" fill="none" stroke="#000000" stroke-linecap="round" stroke-linejoin="round" stroke-width="1"></path><path d="m20.147 11.026 -4.7 -4.7 -6.072 2.547A2.216 2.216 0 0 0 7.853 10.4L5.119 20.669a0.554 0.554 0 0 0 0.685 0.685l10.273 -2.734A2.219 2.219 0 0 0 17.6 17.1Z" fill="none" stroke="#000000" stroke-linecap="round" stroke-linejoin="round" stroke-width="1"></path><path d="m5.26 21.213 7.466 -7.467" fill="none" stroke="#000000" stroke-linecap="round" stroke-linejoin="round" stroke-width="1"></path></svg>