<svg viewBox="0 0 24 24" xmlns="http://www.w3.org/2000/svg" id="Vectors-Pen-Anchor--Streamline-Ultimate"><desc>Vectors Pen Anchor Streamline Icon: https://streamlinehq.com</desc><path d="M8.8177345136 3.6211522804 11.9997150289 0.4391717651l3.1819805154 3.1819805153 -3.1819805154 3.1819805154Z" fill="none" stroke="#000000" stroke-linecap="round" stroke-linejoin="round" stroke-width="1"></path><path d="m0.4387345136 11.9998477196 3.1819805153 -3.1819805154 3.1819805154 3.1819805154 -3.1819805154 3.1819805153Z" fill="none" stroke="#000000" stroke-linecap="round" stroke-linejoin="round" stroke-width="1"></path><path d="m17.1964299527 12.0001522804 3.1819805153 -3.1819805153 3.1819805154 3.1819805153 -3.1819805154 3.1819805154Z" fill="none" stroke="#000000" stroke-linecap="round" stroke-linejoin="round" stroke-width="1"></path><path d="m10.409 5.212 -5.197 5.197" fill="none" stroke="#000000" stroke-linecap="round" stroke-linejoin="round" stroke-width="1"></path><path d="m13.591 5.212 5.197 5.197" fill="none" stroke="#000000" stroke-linecap="round" stroke-linejoin="round" stroke-width="1"></path><path d="m11.292 9.721 -2.985 5.97a4.187 4.187 0 0 0 0.784 4.833h0a4.187 4.187 0 0 0 5.921 0h0a4.187 4.187 0 0 0 0.784 -4.833l-2.985 -5.97a0.849 0.849 0 0 0 -1.519 0Z" fill="none" stroke="#000000" stroke-linecap="round" stroke-linejoin="round" stroke-width="1"></path><path d="m12.052 9.252 0 7.217" fill="none" stroke="#000000" stroke-linecap="round" stroke-linejoin="round" stroke-width="1"></path><path d="m7.5 23.25 9 0" fill="none" stroke="#000000" stroke-linecap="round" stroke-linejoin="round" stroke-width="1"></path></svg>