<svg xmlns="http://www.w3.org/2000/svg" viewBox="0 0 24 24" id="Vectors-Pen-Subtract--Streamline-Ultimate"><desc>Vectors Pen Subtract Streamline Icon: https://streamlinehq.com</desc><g><path d="m0.75 3.38 7.5 0" fill="none" stroke="#000000" stroke-linecap="round" stroke-linejoin="round" stroke-width="1"></path><g><path d="m4.6 22.06 9 -3a6 6 0 0 0 4.08 -5.67h0a6 6 0 0 0 -6 -6h0a6 6 0 0 0 -5.67 4.09l-3 9a1.21 1.21 0 0 0 1.59 1.58Z" fill="none" stroke="#000000" stroke-linecap="round" stroke-linejoin="round" stroke-width="1"></path><path d="m3.36 21.77 6.81 -6.82" fill="none" stroke="#000000" stroke-linecap="round" stroke-linejoin="round" stroke-width="1"></path></g><path d="M9.63 13.65a1.84 1.84 0 1 0 3.68 0 1.84 1.84 0 1 0 -3.68 0" fill="none" stroke="#000000" stroke-linecap="round" stroke-linejoin="round" stroke-width="1"></path><path d="m13.37 7.63 4.6 -5.75 5.28 5.28 -5.75 4.6" fill="none" stroke="#000000" stroke-linecap="round" stroke-linejoin="round" stroke-width="1"></path></g></svg>