<svg xmlns="http://www.w3.org/2000/svg" viewBox="0 0 24 24" id="Vectors-Pen-Draw--Streamline-Ultimate"><desc>Vectors Pen Draw Streamline Icon: https://streamlinehq.com</desc><g><g><path d="m15.25 16.69 6.35 -6.33a5.63 5.63 0 0 0 1.06 -6.49h0a5.63 5.63 0 0 0 -7.54 -2.53h0a5.62 5.62 0 0 0 -3.06 5.82L13.31 16a1.14 1.14 0 0 0 1.94 0.69Z" fill="none" stroke="#000000" stroke-linecap="round" stroke-linejoin="round" stroke-width="1"></path><path d="m14.08 16.97 2.88 -8.61" fill="none" stroke="#000000" stroke-linecap="round" stroke-linejoin="round" stroke-width="1"></path></g><path d="M0.75 11.26c3.1 -3.94 6 -2.12 6 -0.15 0 2.12 -3.89 5 -3.89 8.19a4.07 4.07 0 0 0 4.31 3.95 8.32 8.32 0 0 0 5.49 -2.53" fill="none" stroke="#000000" stroke-linecap="round" stroke-linejoin="round" stroke-width="1"></path><path d="M17.51 8.45a1.73 1.73 0 1 1 1.73 -1.73 1.73 1.73 0 0 1 -1.73 1.73Z" fill="none" stroke="#000000" stroke-linecap="round" stroke-linejoin="round" stroke-width="1"></path></g></svg>