<svg xmlns="http://www.w3.org/2000/svg" fill="none" viewBox="0 0 24 24" id="Medical-Condition-Sore-Throat--Streamline-Ultimate"><desc>Medical Condition Sore Throat Streamline Icon: https://streamlinehq.com</desc><path stroke="#000000" stroke-linecap="round" stroke-linejoin="round" d="M19.4 23.25v-6.265c1.3817 -1.28 2.3453 -2.9469 2.765 -4.7831 0.4197 -1.8361 0.2761 -3.75614 -0.4123 -5.50936 -0.6883 -1.75322 -1.8893 -3.25814 -3.4461 -4.31827S14.9095 0.748085 13.026 0.750005C5.88695 0.750005 4.34595 6.628 1.79995 13.23c-0.0436 0.1137 -0.05892 0.2362 -0.04464 0.3571 0.01427 0.1209 0.05772 0.2365 0.1266 0.3369 0.06888 0.1003 0.16113 0.1824 0.26879 0.2392 0.10767 0.0568 0.22752 0.0866 0.34925 0.0868h1.9v3c0 0.7957 0.31607 1.5587 0.87868 2.1213 0.56261 0.5626 1.32567 0.8787 2.12132 0.8787h1.5v3" stroke-width="1"></path><path stroke="#000000" d="M11.9 22.125c-0.2071 0 -0.375 -0.1679 -0.375 -0.375s0.1679 -0.375 0.375 -0.375" stroke-width="1"></path><path stroke="#000000" d="M11.9 22.125c0.2071 0 0.375 -0.1679 0.375 -0.375s-0.1679 -0.375 -0.375 -0.375" stroke-width="1"></path><path stroke="#000000" d="M12.651 18.375c-0.2071 0 -0.375 -0.1679 -0.375 -0.375s0.1679 -0.375 0.375 -0.375" stroke-width="1"></path><path stroke="#000000" d="M12.651 18.375c0.2071 0 0.375 -0.1679 0.375 -0.375s-0.1679 -0.375 -0.375 -0.375" stroke-width="1"></path><g><path stroke="#000000" d="M15.651 21.375c-0.2071 0 -0.375 -0.1679 -0.375 -0.375s0.1679 -0.375 0.375 -0.375" stroke-width="1"></path><path stroke="#000000" d="M15.651 21.375c0.2071 0 0.375 -0.1679 0.375 -0.375s-0.1679 -0.375 -0.375 -0.375" stroke-width="1"></path></g></svg>