<svg viewBox="0 0 24 24" xmlns="http://www.w3.org/2000/svg" id="Baby-Care-Trolley-1--Streamline-Ultimate"><desc>Baby Care Trolley 1 Streamline Icon: https://streamlinehq.com</desc><path d="M0.75 21a2.25 2.25 0 1 0 4.5 0 2.25 2.25 0 1 0 -4.5 0Z" fill="none" stroke="#000000" stroke-linecap="round" stroke-linejoin="round" stroke-width="1"></path><path d="M15.75 21a2.25 2.25 0 1 0 4.5 0 2.25 2.25 0 1 0 -4.5 0Z" fill="none" stroke="#000000" stroke-linecap="round" stroke-linejoin="round" stroke-width="1"></path><path d="M4.591 19.409 19.5 4.5l3.75 0" fill="none" stroke="#000000" stroke-linecap="round" stroke-linejoin="round" stroke-width="1"></path><path d="M18.651 5.35a8.252 8.252 0 0 0 -13.765 -1.6l7.864 7.5" fill="none" stroke="#000000" stroke-linecap="round" stroke-linejoin="round" stroke-width="1"></path><path d="M3 18.75v-4.5a1.5 1.5 0 0 1 1.5 -1.5h6.75" fill="none" stroke="#000000" stroke-linecap="round" stroke-linejoin="round" stroke-width="1"></path><path d="M5.25 18.75h5.444a3 3 0 0 0 2.2 -0.955l6.239 -6.7a1.5 1.5 0 0 0 -0.381 -2.246L16.5 7.5" fill="none" stroke="#000000" stroke-linecap="round" stroke-linejoin="round" stroke-width="1"></path><path d="m16.272 19.56 -2.83 -2.358" fill="none" stroke="#000000" stroke-linecap="round" stroke-linejoin="round" stroke-width="1"></path></svg>