<svg xmlns="http://www.w3.org/2000/svg" viewBox="0 0 24 24" id="Baby-Family-Pedal-Car-Walker-Stroller--Streamline-Ultimate"><desc>Baby Family Pedal Car Walker Stroller Streamline Icon: https://streamlinehq.com</desc><defs></defs><path d="M3.374 19.675a2.25 2.25 0 1 0 4.5 0 2.25 2.25 0 1 0 -4.5 0" fill="none" stroke="#000000" stroke-linecap="round" stroke-linejoin="round" stroke-width="1"></path><path d="M13.873 19.675a2.25 2.25 0 1 0 4.5 0 2.25 2.25 0 1 0 -4.5 0" fill="none" stroke="#000000" stroke-linecap="round" stroke-linejoin="round" stroke-width="1"></path><path d="m7.874 19.675 5.994 0" fill="none" stroke="#000000" stroke-linecap="round" stroke-linejoin="round" stroke-width="1"></path><path d="M18.373 19.675h1.377a1 1 0 0 0 1 -1v-5.75a2 2 0 0 0 -2 -2h-3.675a1 1 0 0 0 -0.934 0.641l-0.757 1.968a1 1 0 0 1 -0.933 0.641H8.56a1 1 0 0 1 -0.933 -0.641l-0.757 -1.968a1 1 0 0 0 -0.933 -0.641H4.75a4 4 0 0 0 -4 4v3.75a1 1 0 0 0 1 1h1.624" fill="none" stroke="#000000" stroke-linecap="round" stroke-linejoin="round" stroke-width="1"></path><path d="M19.269 10.993 21 2.075l2.25 0" fill="none" stroke="#000000" stroke-linecap="round" stroke-linejoin="round" stroke-width="1"></path><path d="m7.096 12.153 2.661 -2.39" fill="none" stroke="#000000" stroke-linecap="round" stroke-linejoin="round" stroke-width="1"></path><path d="m8.732 8.28 2.028 2.886" fill="none" stroke="#000000" stroke-linecap="round" stroke-linejoin="round" stroke-width="1"></path></svg>