<svg xmlns="http://www.w3.org/2000/svg" viewBox="0 0 24 24" id="Baby-Family-Poo-Poop-Station-Waste-Lid--Streamline-Ultimate"><desc>Baby Family Poo Poop Station Waste Lid Streamline Icon: https://streamlinehq.com</desc><defs></defs><path d="M4.425 15.914A21.6 21.6 0 0 0 3 23.25h5s0.9 -3.539 3.992 -3.539S16 23.25 16 23.25h5a21.62 21.62 0 0 0 -1.425 -7.335" fill="none" stroke="#000000" stroke-linejoin="round" stroke-width="1"></path><path d="M6.282 12A8.25 8.25 0 0 1 5.4 8.244C5.4 4.105 8.351 0.75 12 0.75s6.6 3.355 6.6 7.494A8.25 8.25 0 0 1 17.715 12" stroke-linecap="round" fill="none" stroke="#000000" stroke-linejoin="round" stroke-width="1"></path><path d="M4 12a2 2 0 1 0 0 4h16a2 2 0 1 0 0 -4Z" fill="none" stroke="#000000" stroke-linejoin="round" stroke-width="1"></path></svg>