<svg xmlns="http://www.w3.org/2000/svg" viewBox="0 0 24 24" id="Baby-Family-Kids-Hospital-Milk-Bottle--Streamline-Ultimate"><desc>Baby Family Kids Hospital Milk Bottle Streamline Icon: https://streamlinehq.com</desc><defs></defs><path d="M23.25 15.917a0.667 0.667 0 0 0 -0.667 -0.667H19.25v-3.333a0.666 0.666 0 0 0 -0.667 -0.667h-2.666a0.666 0.666 0 0 0 -0.667 0.667v3.333h-3.333a0.666 0.666 0 0 0 -0.667 0.667v2.666a0.666 0.666 0 0 0 0.667 0.667h3.333v3.333a0.666 0.666 0 0 0 0.667 0.667h2.666a0.666 0.666 0 0 0 0.667 -0.667V19.25h3.333a0.667 0.667 0 0 0 0.667 -0.667Z" fill="none" stroke="#000000" stroke-linecap="round" stroke-linejoin="round" stroke-width="1"></path><path d="M9.1 21.343a1.392 1.392 0 0 1 -1.969 0l-5.971 -5.97 0 0a1.392 1.392 0 0 1 0 -1.969l8.088 -8.083 3.732 3.732" fill="none" stroke="#000000" stroke-linecap="round" stroke-linejoin="round" stroke-width="1"></path><path d="M12.981 9.051 9.244 5.314a1.6 1.6 0 0 1 0 -2.267h0a1.6 1.6 0 0 1 2.267 0l5.446 5.446" fill="none" stroke="#000000" stroke-linecap="round" stroke-linejoin="round" stroke-width="1"></path><path d="m6.477 8.084 2.267 2.268" fill="none" stroke="#000000" stroke-linecap="round" stroke-linejoin="round" stroke-width="1"></path><path d="m3.71 10.852 2.267 2.268" fill="none" stroke="#000000" stroke-linecap="round" stroke-linejoin="round" stroke-width="1"></path><path d="M20.061 8.012a4.058 4.058 0 0 0 -0.046 -0.425 4.011 4.011 0 0 1 1.134 -3.4l0.028 -0.027a2 2 0 1 0 -2.862 -2.807 4.011 4.011 0 0 1 -3.4 1.134 4.028 4.028 0 0 0 -2.443 0.373l-0.765 0.382" fill="none" stroke="#000000" stroke-linecap="round" stroke-linejoin="round" stroke-width="1"></path></svg>