<svg xmlns="http://www.w3.org/2000/svg" viewBox="0 0 24 24" id="Baby-In-Car-2--Streamline-Ultimate"><desc>Baby In Car 2 Streamline Icon: https://streamlinehq.com</desc><defs></defs><title>baby-in-car-2</title><path d="M11.227 16.492a6 6 0 1 0 12 0 6 6 0 1 0 -12 0" fill="none" stroke="#000000" stroke-linecap="round" stroke-linejoin="round" stroke-width="1"></path><path d="M18.727 19.09a3 3 0 0 1 -3 0" fill="none" stroke="#000000" stroke-linecap="round" stroke-linejoin="round" stroke-width="1"></path><path d="M17.227 10.492a1.5 1.5 0 0 1 0 3" fill="none" stroke="#000000" stroke-linecap="round" stroke-linejoin="round" stroke-width="1"></path><path d="M19.852 14.992a0.374 0.374 0 0 1 0.375 0.375" fill="none" stroke="#000000" stroke-linecap="round" stroke-linejoin="round" stroke-width="1"></path><path d="M19.477 15.367a0.374 0.374 0 0 1 0.375 -0.375" fill="none" stroke="#000000" stroke-linecap="round" stroke-linejoin="round" stroke-width="1"></path><path d="M19.852 15.742a0.374 0.374 0 0 1 -0.375 -0.375" fill="none" stroke="#000000" stroke-linecap="round" stroke-linejoin="round" stroke-width="1"></path><path d="M20.227 15.367a0.375 0.375 0 0 1 -0.375 0.375" fill="none" stroke="#000000" stroke-linecap="round" stroke-linejoin="round" stroke-width="1"></path><path d="M14.6 14.992a0.374 0.374 0 0 1 0.375 0.375" fill="none" stroke="#000000" stroke-linecap="round" stroke-linejoin="round" stroke-width="1"></path><path d="M14.227 15.367a0.374 0.374 0 0 1 0.375 -0.375" fill="none" stroke="#000000" stroke-linecap="round" stroke-linejoin="round" stroke-width="1"></path><path d="M14.6 15.742a0.374 0.374 0 0 1 -0.375 -0.375" fill="none" stroke="#000000" stroke-linecap="round" stroke-linejoin="round" stroke-width="1"></path><path d="M14.977 15.367a0.375 0.375 0 0 1 -0.375 0.375" fill="none" stroke="#000000" stroke-linecap="round" stroke-linejoin="round" stroke-width="1"></path><path d="m2.977 6.867 1.749 -3.9a2.246 2.246 0 0 1 2.109 -1.46h8.882a2.249 2.249 0 0 1 2.108 1.46l1.75 3.9" fill="none" stroke="#000000" stroke-linecap="round" stroke-linejoin="round" stroke-width="1"></path><path d="M1.526 13.309v1.7a1.5 1.5 0 0 0 3 0v-1.5" fill="none" stroke="#000000" stroke-linecap="round" stroke-linejoin="round" stroke-width="1"></path><path d="M4.151 9.759a0.374 0.374 0 0 0 -0.375 0.375" fill="none" stroke="#000000" stroke-linecap="round" stroke-linejoin="round" stroke-width="1"></path><path d="M4.526 10.134a0.374 0.374 0 0 0 -0.375 -0.375" fill="none" stroke="#000000" stroke-linecap="round" stroke-linejoin="round" stroke-width="1"></path><path d="M4.151 10.509a0.375 0.375 0 0 0 0.375 -0.375" fill="none" stroke="#000000" stroke-linecap="round" stroke-linejoin="round" stroke-width="1"></path><path d="M3.776 10.134a0.374 0.374 0 0 0 0.375 0.375" fill="none" stroke="#000000" stroke-linecap="round" stroke-linejoin="round" stroke-width="1"></path><path d="M21.373 8.259a3 3 0 0 0 -2.6 -1.5h-15a3 3 0 0 0 -3 3v2.25a1.5 1.5 0 0 0 1.5 1.5h6" fill="none" stroke="#000000" stroke-linecap="round" stroke-linejoin="round" stroke-width="1"></path></svg>