<svg viewBox="0 0 24 24" xmlns="http://www.w3.org/2000/svg" id="Baby-Care-Cot-Mobile--Streamline-Ultimate"><desc>Baby Care Cot Mobile Streamline Icon: https://streamlinehq.com</desc><path d="m3.25 5.25 18 0" fill="none" stroke="#000000" stroke-linecap="round" stroke-linejoin="round" stroke-width="1"></path><path d="m12.25 14.25 0 -9" fill="none" stroke="#000000" stroke-linecap="round" stroke-linejoin="round" stroke-width="1"></path><path d="M15.25 20.25a3 3 0 0 1 -6 0c0 -1.657 3 -6 3 -6s3 4.343 3 6Z" fill="none" stroke="#000000" stroke-linecap="round" stroke-linejoin="round" stroke-width="1"></path><path d="m4.75 5.25 0 6" fill="none" stroke="#000000" stroke-linecap="round" stroke-linejoin="round" stroke-width="1"></path><path d="m12.25 0.75 0 4.5" fill="none" stroke="#000000" stroke-linecap="round" stroke-linejoin="round" stroke-width="1"></path><path d="M1.75 14.25a3 3 0 1 0 6 0 3 3 0 1 0 -6 0Z" fill="none" stroke="#000000" stroke-linecap="round" stroke-linejoin="round" stroke-width="1"></path><path d="M17.327 15.75a0.376 0.376 0 0 1 -0.343 -0.527L19.75 9l2.766 6.223a0.376 0.376 0 0 1 -0.343 0.527Z" fill="none" stroke="#000000" stroke-linecap="round" stroke-linejoin="round" stroke-width="1"></path><path d="m19.75 5.25 0 3.75" fill="none" stroke="#000000" stroke-linecap="round" stroke-linejoin="round" stroke-width="1"></path></svg>