<svg xmlns="http://www.w3.org/2000/svg" viewBox="0 0 24 24" id="Baby-Family-Rocking-Crib-Basket-Swing-Bed--Streamline-Ultimate"><desc>Baby Family Rocking Crib Basket Swing Bed Streamline Icon: https://streamlinehq.com</desc><defs></defs><path d="M1.132 4a2.113 2.113 0 0 0 -0.015 1.429 2.767 2.767 0 0 0 2.6 1.88 2.8 2.8 0 0 0 2.76 -2.836 2.762 2.762 0 1 0 5.522 0 2.762 2.762 0 1 0 5.522 0 2.8 2.8 0 0 0 2.76 2.836 2.767 2.767 0 0 0 2.6 -1.88A2.113 2.113 0 0 0 22.868 4v0a2 2 0 0 0 -1.936 -1.5H3.068A2 2 0 0 0 1.133 4Z" fill="none" stroke="#000000" stroke-linecap="round" stroke-linejoin="round" stroke-width="1"></path><path d="M9.106 7.309 3.25 21.5" fill="none" stroke="#000000" stroke-linecap="round" stroke-linejoin="round" stroke-width="1"></path><path d="M14.894 7.309 20.75 21.5" fill="none" stroke="#000000" stroke-linecap="round" stroke-linejoin="round" stroke-width="1"></path><path d="M2.75 15.5a2 2 0 0 1 -2 -2 8.6 8.6 0 0 0 0.367 -8.071" fill="none" stroke="#000000" stroke-linecap="round" stroke-linejoin="round" stroke-width="1"></path><path d="m15.217 15.5 -6.434 0" fill="none" stroke="#000000" stroke-linecap="round" stroke-linejoin="round" stroke-width="1"></path><path d="M22.883 5.429a8.6 8.6 0 0 0 0.367 8.071 2 2 0 0 1 -2 2" fill="none" stroke="#000000" stroke-linecap="round" stroke-linejoin="round" stroke-width="1"></path></svg>