<svg viewBox="0 0 24 24" xmlns="http://www.w3.org/2000/svg" id="Baby-Care-Bottle--Streamline-Ultimate"><desc>Baby Care Bottle Streamline Icon: https://streamlinehq.com</desc><path d="m16.416 1.188 6.4 6.4a1.493 1.493 0 0 1 0 2.113l-8.668 8.669 -8.51 -8.51L14.3 1.188a1.493 1.493 0 0 1 2.116 0Z" fill="none" stroke="#000000" stroke-linecap="round" stroke-linejoin="round" stroke-width="1"></path><path d="M3.2 9.856a1.72 1.72 0 0 1 2.431 0l8.51 8.51a1.719 1.719 0 0 1 -2.429 2.434L3.2 12.288a1.719 1.719 0 0 1 0 -2.432Z" fill="none" stroke="#000000" stroke-linecap="round" stroke-linejoin="round" stroke-width="1"></path><path d="M10.497 9.856 8.065 7.425" fill="none" stroke="#000000" stroke-linecap="round" stroke-linejoin="round" stroke-width="1"></path><path d="m12.928 7.425 -2.431 -2.431" fill="none" stroke="#000000" stroke-linecap="round" stroke-linejoin="round" stroke-width="1"></path><path d="m3.405 12.49 -0.412 0.825a4.318 4.318 0 0 0 -0.4 2.62 4.3 4.3 0 0 1 -1.216 3.647 2.149 2.149 0 1 0 3.039 3.039 4.3 4.3 0 0 1 3.647 -1.216 4.318 4.318 0 0 0 2.62 -0.4l0.825 -0.412" fill="none" stroke="#000000" stroke-linecap="round" stroke-linejoin="round" stroke-width="1"></path></svg>