<svg viewBox="0 0 24 24" xmlns="http://www.w3.org/2000/svg" id="Baby-Care-Body--Streamline-Ultimate"><desc>Baby Care Body Streamline Icon: https://streamlinehq.com</desc><path d="M4.5 8.2v8.572a0.751 0.751 0 0 0 0.5 0.706A4.9 4.9 0 0 1 8.243 22.4a0.751 0.751 0 0 0 0.748 0.8h6.017a0.75 0.75 0 0 0 0.748 -0.8A4.884 4.884 0 0 1 19 17.482a0.751 0.751 0 0 0 0.5 -0.707V8.2" fill="none" stroke="#000000" stroke-linecap="round" stroke-linejoin="round" stroke-width="1"></path><path d="M4.5 9.7H2.25a1.5 1.5 0 0 1 -1.5 -1.5V3.994a1.5 1.5 0 0 1 0.975 -1.405C3.4 1.963 6.658 0.75 6.749 0.75h0c0.008 0.922 0.8 5.2 5.249 5.2s5.241 -4.238 5.249 -5.2h0c0.091 0 3.348 1.213 5.024 1.839a1.5 1.5 0 0 1 0.975 1.405V8.2a1.5 1.5 0 0 1 -1.5 1.5H19.5" fill="none" stroke="#000000" stroke-linecap="round" stroke-linejoin="round" stroke-width="1"></path><path d="M15.93 10.293a1.9 1.9 0 0 0 -2.751 0L12 11.512l-1.179 -1.219a1.9 1.9 0 0 0 -2.751 0 2.06 2.06 0 0 0 0 2.845l3.511 3.137a0.579 0.579 0 0 0 0.838 0l3.511 -3.137a2.06 2.06 0 0 0 0 -2.845Z" fill="none" stroke="#000000" stroke-linecap="round" stroke-linejoin="round" stroke-width="1"></path></svg>