<svg xmlns="http://www.w3.org/2000/svg" viewBox="0 0 24 24" id="Baby-In-Car-1--Streamline-Ultimate"><desc>Baby In Car 1 Streamline Icon: https://streamlinehq.com</desc><defs></defs><title>baby-in-car-1</title><path d="M10.245 6.157a5.5 5.5 0 1 0 11 0 5.5 5.5 0 1 0 -11 0" fill="none" stroke="#000000" stroke-linecap="round" stroke-linejoin="round" stroke-width="1"></path><path d="M17.12 8.539a2.751 2.751 0 0 1 -2.75 0" fill="none" stroke="#000000" stroke-linecap="round" stroke-linejoin="round" stroke-width="1"></path><path d="M15.745 0.657a1.375 1.375 0 1 1 0 2.75" fill="none" stroke="#000000" stroke-linecap="round" stroke-linejoin="round" stroke-width="1"></path><path d="M18.151 4.782a0.344 0.344 0 0 1 0.344 0.344" fill="none" stroke="#000000" stroke-linecap="round" stroke-linejoin="round" stroke-width="1"></path><path d="M17.807 5.126a0.344 0.344 0 0 1 0.344 -0.344" fill="none" stroke="#000000" stroke-linecap="round" stroke-linejoin="round" stroke-width="1"></path><path d="M18.151 5.47a0.344 0.344 0 0 1 -0.344 -0.344" fill="none" stroke="#000000" stroke-linecap="round" stroke-linejoin="round" stroke-width="1"></path><path d="M18.5 5.126a0.344 0.344 0 0 1 -0.344 0.344" fill="none" stroke="#000000" stroke-linecap="round" stroke-linejoin="round" stroke-width="1"></path><path d="M13.339 4.782a0.343 0.343 0 0 1 0.343 0.344" fill="none" stroke="#000000" stroke-linecap="round" stroke-linejoin="round" stroke-width="1"></path><path d="M13 5.126a0.344 0.344 0 0 1 0.344 -0.344" fill="none" stroke="#000000" stroke-linecap="round" stroke-linejoin="round" stroke-width="1"></path><path d="M13.339 5.47A0.344 0.344 0 0 1 13 5.126" fill="none" stroke="#000000" stroke-linecap="round" stroke-linejoin="round" stroke-width="1"></path><path d="M13.682 5.126a0.343 0.343 0 0 1 -0.343 0.344" fill="none" stroke="#000000" stroke-linecap="round" stroke-linejoin="round" stroke-width="1"></path><path d="M8.284 4.36Q8 3.566 7.661 2.789A2.933 2.933 0 0 0 4.958 1H3.063A1.473 1.473 0 0 0 1.6 2.483l0 0.081 1.173 17.7A2.934 2.934 0 0 0 5.711 23h13.343a2.933 2.933 0 0 0 2.836 -2.161l0.405 -1.487a2.934 2.934 0 0 0 -3.312 -3.666L9.8 17.133a28.261 28.261 0 0 0 0.038 -5.933" fill="none" stroke="#000000" stroke-linecap="round" stroke-linejoin="round" stroke-width="1"></path></svg>