<svg xmlns="http://www.w3.org/2000/svg" viewBox="0 0 24 24" id="Play-Together--Streamline-Ultimate"><desc>Play Together Streamline Icon: https://streamlinehq.com</desc><defs></defs><title>play-together</title><path d="M13.933 21.713a5.356 5.356 0 0 0 1.95 -0.377l2.143 1.914" fill="none" stroke="#000000" stroke-linecap="round" stroke-linejoin="round" stroke-width="1"></path><path d="m23.024 15.439 -1.641 -1.228a6.3 6.3 0 0 0 -0.011 -2.39l-1.355 -6.772a1.615 1.615 0 0 0 -3.167 0 1.394 1.394 0 0 0 -0.021 0.14l-0.363 3.259L9.23 1.21A1.575 1.575 0 0 0 7 3.437L5.89 2.324A1.574 1.574 0 0 0 3.663 4.55l1.114 1.114A1.574 1.574 0 1 0 2.55 7.89L3.663 9a1.574 1.574 0 1 0 -2.226 2.23l2.08 2.129" fill="none" stroke="#000000" stroke-linecap="round" stroke-linejoin="round" stroke-width="1"></path><path d="M9.405 5.839 7.001 3.435" fill="none" stroke="#000000" stroke-linecap="round" stroke-linejoin="round" stroke-width="1"></path><path d="M6.313 7.2 4.774 5.661" fill="none" stroke="#000000" stroke-linecap="round" stroke-linejoin="round" stroke-width="1"></path><path d="m4.652 22.16 0.714 -0.893a4.8 4.8 0 0 0 2.359 -0.084l4.316 -0.947a1.165 1.165 0 0 0 0.841 -0.981 1.145 1.145 0 0 0 -1.056 -1.248 0.905 0.905 0 0 0 -0.1 -0.005l-2.408 -0.025 3.46 -3.948a1.111 1.111 0 0 0 -0.152 -1.567c-4.119 -3.749 -5.935 -2.756 -6.498 -2.193l-3.715 4.4a3.728 3.728 0 0 0 -0.894 2.788 3.585 3.585 0 0 0 0.289 1.066l-0.784 0.784" fill="none" stroke="#000000" stroke-linecap="round" stroke-linejoin="round" stroke-width="1"></path></svg>