<svg xmlns="http://www.w3.org/2000/svg" viewBox="0 0 24 24" id="Whistle-2--Streamline-Ultimate"><desc>Whistle 2 Streamline Icon: https://streamlinehq.com</desc><defs></defs><path d="M13.25 15.751a2.5 2.5 0 1 0 5 0 2.5 2.5 0 1 0 -5 0" stroke-miterlimit="10" fill="none" stroke="#000000" stroke-width="1"></path><path d="M10 9.5v-0.24a1.009 1.009 0 0 0 -1.009 -1.009H1.75a1 1 0 0 0 -1 1v3.043a1.006 1.006 0 0 0 1 1c5.988 0.03 6.581 3.94 6.93 4.937a7.513 7.513 0 0 0 10.139 4.379 7.4 7.4 0 0 0 4.272 -5.291 7.508 7.508 0 0 0 -7.341 -9.068h-1V9.5a1 1 0 0 1 -1 1H11a1 1 0 0 1 -1 -1Z" stroke-linejoin="round" stroke-linecap="round" fill="none" stroke="#000000" stroke-width="1"></path><path d="M6.75 2.749 9 4.999" stroke-linecap="round" stroke-miterlimit="10" fill="none" stroke="#000000" stroke-width="1"></path><path d="m17.75 2.749 -2.25 2.25" stroke-linecap="round" stroke-miterlimit="10" fill="none" stroke="#000000" stroke-width="1"></path><path d="m12.25 0.749 0 3.5" stroke-linecap="round" stroke-miterlimit="10" fill="none" stroke="#000000" stroke-width="1"></path></svg>