<svg xmlns="http://www.w3.org/2000/svg" fill="none" viewBox="0 0 24 24" id="Ai-Browser-Spark--Streamline-Ultimate"><desc>Ai Browser Spark Streamline Icon: https://streamlinehq.com</desc><path stroke="#000000" stroke-linecap="round" stroke-linejoin="round" d="M13.8135 18.3642c2.3517 -0.4728 4.2451 -2.3892 4.7186 -4.8017 0.4735 2.4125 2.3664 4.3289 4.7181 4.8017m0 0.0028c-2.3517 0.4727 -4.2451 2.3891 -4.7186 4.8017 -0.4735 -2.4126 -2.3664 -4.329 -4.7181 -4.8017" stroke-width="1"></path><path stroke="#000000" stroke-linecap="round" stroke-linejoin="round" stroke-miterlimit="10" d="M13.6657 21.832H2.25c-0.8 0 -1.5 -0.7 -1.5 -1.5V2.33203c0 -0.8 0.7 -1.499999 1.5 -1.499999h19.5c0.9 0 1.5 0.699999 1.5 1.499999V14.1319" stroke-width="1"></path><path stroke="#000000" stroke-linecap="round" stroke-linejoin="round" stroke-miterlimit="10" d="M0.75 6.33203h22.5" stroke-width="1"></path><path stroke="#000000" stroke-linecap="round" stroke-linejoin="round" stroke-miterlimit="10" d="M4.25076 3.83359c-0.11045 0 -0.19998 -0.08953 -0.19998 -0.19998 0 -0.11046 0.08953 -0.20002 0.19998 -0.20002" stroke-width="1"></path><path stroke="#000000" stroke-linecap="round" stroke-linejoin="round" stroke-miterlimit="10" d="M4.24924 3.83359c0.11045 0 0.19998 -0.08953 0.19998 -0.19998 0 -0.11046 -0.08953 -0.20002 -0.19998 -0.20002" stroke-width="1"></path><path stroke="#000000" stroke-linecap="round" stroke-linejoin="round" stroke-miterlimit="10" d="M7.75076 3.83359c-0.11045 0 -0.19998 -0.08953 -0.19998 -0.19998 0 -0.11046 0.08953 -0.20002 0.19998 -0.20002" stroke-width="1"></path><path stroke="#000000" stroke-linecap="round" stroke-linejoin="round" stroke-miterlimit="10" d="M7.74924 3.83359c0.11045 0 0.19998 -0.08953 0.19998 -0.19998 0 -0.11046 -0.08953 -0.20002 -0.19998 -0.20002" stroke-width="1"></path><path stroke="#000000" stroke-linecap="round" stroke-linejoin="round" stroke-miterlimit="10" d="M11.1492 3.83359c-0.1105 0 -0.2 -0.08953 -0.2 -0.19998 0 -0.11046 0.0895 -0.20002 0.2 -0.20002" stroke-width="1"></path><path stroke="#000000" stroke-linecap="round" stroke-linejoin="round" stroke-miterlimit="10" d="M11.1487 3.83359c0.1104 0 0.1999 -0.08953 0.1999 -0.19998 0 -0.11046 -0.0895 -0.20002 -0.1999 -0.20002" stroke-width="1"></path></svg>