<svg xmlns="http://www.w3.org/2000/svg" fill="none" viewBox="0 0 24 24" id="Ai-Chip-Robot--Streamline-Ultimate"><desc>Ai Chip Robot Streamline Icon: https://streamlinehq.com</desc><path stroke="#000000" stroke-linejoin="round" d="M9.664 10.191h4.673s1.5 0 1.5 1.5v2.969s0 1.5 -1.5 1.5H9.664s-1.5 0 -1.5 -1.5v-2.969s0 -1.5 1.5 -1.5" stroke-width="1"></path><path stroke="#000000" stroke-linecap="round" stroke-linejoin="round" d="m12 7.83699 0 2.35441" stroke-width="1"></path><path stroke="#000000" stroke-linecap="round" stroke-linejoin="round" d="m10.5957 12.8392 0 0.6764" stroke-width="1"></path><path stroke="#000000" stroke-linecap="round" stroke-linejoin="round" d="m13.4043 12.8392 0 0.6764" stroke-width="1"></path><path stroke="#000000" stroke-linejoin="round" d="M6.111 4.113h11.777s2 0 2 2V17.89s0 2 -2 2H6.111s-2 0 -2 -2V6.113s0 -2 2 -2" stroke-width="1"></path><path stroke="#000000" stroke-linecap="round" d="m8.95117 1.03516 0 3.07668" stroke-width="1"></path><path stroke="#000000" stroke-linecap="round" d="m1.03516 15.0508 3.07629 0" stroke-width="1"></path><path stroke="#000000" stroke-linecap="round" d="m15.0488 1.03516 0 3.07668" stroke-width="1"></path><path stroke="#000000" stroke-linecap="round" d="m1.03516 8.94922 3.07629 0" stroke-width="1"></path><path stroke="#000000" stroke-linecap="round" d="m8.95117 19.8906 0 3.0728" stroke-width="1"></path><path stroke="#000000" stroke-linecap="round" d="m19.8887 15.0508 3.0763 0" stroke-width="1"></path><path stroke="#000000" stroke-linecap="round" d="m15.0488 19.8906 0 3.0728" stroke-width="1"></path><path stroke="#000000" stroke-linecap="round" d="m19.8887 8.94922 3.0763 0" stroke-width="1"></path></svg>