<svg xmlns="http://www.w3.org/2000/svg" fill="none" viewBox="0 0 24 24" id="Ai-Database-Spark--Streamline-Ultimate"><desc>Ai Database Spark Streamline Icon: https://streamlinehq.com</desc><path stroke="#000000" stroke-linecap="round" stroke-linejoin="round" d="M12.8916 17.7213c2.3123 -0.4648 4.174 -2.3492 4.6396 -4.7213 0.4655 2.3721 2.3268 4.2565 4.6391 4.7213m0 0.0027c-2.3123 0.4649 -4.174 2.3492 -4.6396 4.7213 -0.4655 -2.3721 -2.3268 -4.2564 -4.6391 -4.7213" stroke-width="1"></path><path stroke="#000000" stroke-linecap="round" stroke-linejoin="round" stroke-miterlimit="10" d="M9.06934 8.79395c3.99816 0 7.23926 -1.62057 7.23926 -3.61963 0 -1.99907 -3.2411 -3.61963 -7.23926 -3.61963 -3.99814 0 -7.23926 1.62056 -7.23926 3.61963 0 1.99906 3.24112 3.61963 7.23926 3.61963Z" stroke-width="1"></path><path stroke="#000000" stroke-linecap="round" stroke-linejoin="round" stroke-miterlimit="10" d="M1.83008 5.17578v6.15332c0 1.9908 3.25766 3.6197 7.23926 3.6197 1.24446 0 2.41826 -0.1592 3.44396 -0.4387m3.7953 -3.9389V5.17578" stroke-width="1"></path><path stroke="#000000" stroke-linecap="round" stroke-linejoin="round" stroke-miterlimit="10" d="M1.83008 11.3242v6.1534c0 1.9908 3.25766 3.6197 7.23926 3.6197 1.27966 0 2.48466 -0.1683 3.53066 -0.4628" stroke-width="1"></path></svg>