<svg xmlns="http://www.w3.org/2000/svg" fill="none" viewBox="0 0 24 24" id="Ai-Email-Generator-Spark--Streamline-Ultimate"><desc>Ai Email Generator Spark Streamline Icon: https://streamlinehq.com</desc><path stroke="#000000" stroke-linecap="round" stroke-linejoin="round" d="M13.8193 5.64709c2.3124 -0.46485 4.1741 -2.34918 4.6396 -4.721309 0.4656 2.372129 2.3268 4.256459 4.6391 4.721309m0 0.0027c-2.3123 0.46485 -4.174 2.34918 -4.6395 4.72131 -0.4656 -2.37213 -2.3268 -4.25646 -4.6392 -4.72131" stroke-width="1"></path><path stroke="#000000" stroke-linecap="round" stroke-linejoin="round" d="M21.0442 13.1427v8.9315c0 0.5523 -0.4477 1 -1 1H1.90234c-0.55228 0 -0.999996 -0.4477 -0.999996 -1l0 -12.54686c0 -0.55228 0.447716 -1 0.999996 -1H12.5886" stroke-width="1"></path><path stroke="#000000" stroke-linecap="round" stroke-linejoin="round" d="m1.21484 8.86719 8.28053 7.30251c0.40885 0.3606 0.93523 0.5596 1.48043 0.5596 0.5452 0 1.0716 -0.199 1.4804 -0.5596l4.1403 -3.6512" stroke-width="1"></path></svg>