<svg xmlns="http://www.w3.org/2000/svg" fill="none" viewBox="0 0 24 24" id="Ai-Email-Generator-Robot--Streamline-Ultimate"><desc>Ai Email Generator Robot Streamline Icon: https://streamlinehq.com</desc><path stroke="#000000" stroke-linecap="round" stroke-linejoin="round" d="M21.0305 13.1974v8.9315c0 0.5523 -0.4477 1 -1 1H1.88867c-0.55228 0 -0.999998 -0.4477 -0.999998 -1l0 -12.54687c0 -0.55228 0.447718 -1 0.999998 -1h9.64123" stroke-width="1"></path><path stroke="#000000" stroke-linecap="round" stroke-linejoin="round" d="M1.20117 8.92188 9.4817 16.2244c0.40884 0.3606 0.9353 0.5596 1.4804 0.5596 0.5452 0 1.0716 -0.199 1.4804 -0.5596l4.1403 -3.6513" stroke-width="1"></path><path stroke="#000000" stroke-linejoin="round" d="M16.725 3.445h4.386s2 0 2 2v2.524s0 2 -2 2h-4.386s-2 0 -2 -2V5.445s0 -2 2 -2" stroke-width="1"></path><path stroke="#000000" stroke-linecap="round" stroke-linejoin="round" d="m18.918 0.872138 0 2.573172" stroke-width="1"></path><path stroke="#000000" stroke-linecap="round" stroke-linejoin="round" d="m17.3828 6.3388 0 0.73932" stroke-width="1"></path><path stroke="#000000" stroke-linecap="round" stroke-linejoin="round" d="m20.4531 6.3388 0 0.73932" stroke-width="1"></path></svg>