<svg xmlns="http://www.w3.org/2000/svg" fill="none" viewBox="0 0 24 24" id="Ai-File-Spark--Streamline-Ultimate"><desc>Ai File Spark Streamline Icon: https://streamlinehq.com</desc><path stroke="#000000" stroke-linecap="round" stroke-linejoin="round" d="M1.09082 18.2853c2.42977 -0.4884 4.38603 -2.4685 4.87524 -4.9611 0.48921 2.4926 2.44499 4.4727 4.87474 4.9611m0 0.0029c-2.42975 0.4884 -4.38601 2.4685 -4.87522 4.9611 -0.48921 -2.4926 -2.44499 -4.4727 -4.87476 -4.9611" stroke-width="1"></path><path stroke="#000000" stroke-linecap="round" stroke-linejoin="round" d="M10.335 23.25h10.5742c1.1045 0 2 -0.8954 2 -2V8.121c-0.0001 -0.39755 -0.158 -0.7788 -0.439 -1.06l-5.872 -5.872c-0.2812 -0.281018 -0.6625 -0.438915 -1.06 -0.439H4.90918c-0.817 0 -1.5 0.683 -1.5 1.5l0 8.4174" stroke-width="1"></path><path stroke="#000000" stroke-linecap="round" stroke-linejoin="round" d="M22.9092 8.25h-6c-0.3978 0 -0.7794 -0.15804 -1.0607 -0.43934s-0.4393 -0.66284 -0.4393 -1.06066v-6" stroke-width="1"></path></svg>