<svg xmlns="http://www.w3.org/2000/svg" fill="none" viewBox="0 0 24 24" id="Ai-Folder-Spark--Streamline-Ultimate"><desc>Ai Folder Spark Streamline Icon: https://streamlinehq.com</desc><path stroke="#000000" stroke-linecap="round" stroke-linejoin="round" d="M13.6523 18.3447c2.3517 -0.4728 4.2452 -2.3892 4.7186 -4.8017 0.4735 2.4125 2.3665 4.3289 4.7182 4.8017m0 0.0027c-2.3517 0.4728 -4.2451 2.3892 -4.7186 4.8017 -0.4735 -2.4125 -2.3665 -4.3289 -4.7182 -4.8017" stroke-width="1"></path><path stroke="#000000" stroke-linecap="round" stroke-linejoin="round" d="M11.5945 21.1419H2.71023c-0.47689 0 -0.93425 -0.1894 -1.27146 -0.5266 -0.33722 -0.3372 -0.526661 -0.7946 -0.526661 -1.2715V2.64968c0 -0.47689 0.189441 -0.93425 0.526661 -1.27146 0.33721 -0.33721 0.79457 -0.526657 1.27146 -0.526658h4.49528c0.27915 0 0.55447 0.064994 0.80415 0.189828 0.24967 0.12484 0.44095 0.32082 0.63435 0.52942l2.15769 2.25782h10.4891c0.4768 0 0.9342 0.18944 1.2714 0.52666 0.3372 0.33721 0.5267 0.79457 0.5267 1.27146v6.66665" stroke-width="1"></path></svg>