<svg xmlns="http://www.w3.org/2000/svg" fill="none" viewBox="0 0 24 24" id="Ai-Generate-Music-Robot--Streamline-Ultimate"><desc>Ai Generate Music Robot Streamline Icon: https://streamlinehq.com</desc><path stroke="#000000" stroke-linecap="round" stroke-linejoin="round" d="M3.9519 23.0796c1.75326 0 3.17456 -1.4213 3.17456 -3.1746 0 -1.7532 -1.4213 -3.1745 -3.17456 -3.1745S0.777344 18.1518 0.777344 19.905c0 1.7533 1.421296 3.1746 3.174556 3.1746Z" stroke-width="1"></path><path stroke="#000000" stroke-linecap="round" stroke-linejoin="round" d="M15.8562 21.0952c1.7533 0 3.1746 -1.4213 3.1746 -3.1745 0 -1.7533 -1.4213 -3.1746 -3.1746 -3.1746 -1.7533 0 -3.1746 1.4213 -3.1746 3.1746 0 1.7532 1.4213 3.1745 3.1746 3.1745Z" stroke-width="1"></path><path stroke="#000000" stroke-linecap="round" stroke-linejoin="round" d="M7.12695 19.9061V8.35261c-0.0001 -0.43079 0.15263 -0.84766 0.43102 -1.17641 0.2784 -0.32876 0.6644 -0.54809 1.08933 -0.61896l3.0856 -0.51427m7.2988 11.87873v-5.0556" opacity=".99" stroke-width="1"></path><path stroke="#000000" stroke-linecap="round" stroke-linejoin="round" d="m7.12695 11.0334 4.48885 -0.7482" stroke-width="1"></path><path stroke="#000000" stroke-linejoin="round" d="M16.838 3.496h4.386s2 0 2 2V8.02s0 2 -2 2h-4.386s-2 0 -2 -2V5.496s0 -2 2 -2" stroke-width="1"></path><path stroke="#000000" stroke-linecap="round" stroke-linejoin="round" d="m19.0313 0.92292 -0.0001 2.57317" stroke-width="1"></path><path stroke="#000000" stroke-linecap="round" stroke-linejoin="round" d="m17.4961 6.38958 0 0.73933" stroke-width="1"></path><path stroke="#000000" stroke-linecap="round" stroke-linejoin="round" d="m20.5664 6.38958 0 0.73933" stroke-width="1"></path></svg>