<svg xmlns="http://www.w3.org/2000/svg" fill="none" viewBox="0 0 24 24" id="Ai-Landscape-Image-Spark--Streamline-Ultimate"><desc>Ai Landscape Image Spark Streamline Icon: https://streamlinehq.com</desc><path stroke="#000000" stroke-linecap="round" stroke-linejoin="round" d="M11.7908 5.85156H2.28432c-0.62086 0 -1.12416 0.50331 -1.12416 1.12416V21.5898c0 0.6209 0.5033 1.1242 1.12416 1.1242H16.8984c0.6209 0 1.1242 -0.5033 1.1242 -1.1242v-9.1679" stroke-width="1"></path><path stroke="#000000" stroke-linecap="round" stroke-linejoin="round" d="m18.0225 20.5978 -2.8698 -3.6865c-0.6 -0.771 -1.7281 -0.9346 -2.5201 -0.3505 -0.072 0.0468 -0.132 0.1052 -0.192 0.1636l-1.236 1.2033 -3.96016 -5.1402c-0.60001 -0.771 -1.72805 -0.9346 -2.52007 -0.3505 -0.13201 0.1052 -0.25201 0.222 -0.36002 0.3505l-3.2041 4.1588" stroke-width="1"></path><path stroke="#000000" stroke-linecap="round" stroke-linejoin="round" d="M14.6934 5.43436c2.0302 -0.40813 3.6647 -2.06258 4.0735 -4.1453 0.4088 2.08272 2.0429 3.73717 4.0732 4.1453m0 0.00237c-2.0303 0.40814 -3.6648 2.06258 -4.0736 4.1453 -0.4088 -2.08272 -2.0429 -3.73716 -4.0731 -4.1453" stroke-width="1"></path></svg>