<svg xmlns="http://www.w3.org/2000/svg" fill="none" viewBox="0 0 24 24" id="Ai-Portrait-Image-Spark--Streamline-Ultimate"><desc>Ai Portrait Image Spark Streamline Icon: https://streamlinehq.com</desc><path stroke="#000000" stroke-linecap="round" stroke-linejoin="round" d="M11.7967 5.85156H2.29018c-0.62086 0 -1.12416 0.50331 -1.12416 1.12416V21.5898c0 0.6209 0.5033 1.1242 1.12416 1.1242H16.9043c0.6208 0 1.1241 -0.5033 1.1241 -1.1242v-8.8474" stroke-width="1"></path><path stroke="#000000" stroke-linecap="round" stroke-linejoin="round" stroke-miterlimit="10" d="M9.59646 14.2144c1.45934 0 2.64234 -1.183 2.64234 -2.6424 0 -1.4593 -1.183 -2.64231 -2.64234 -2.64231 -1.45933 0 -2.64236 1.18301 -2.64236 2.64231 0 1.4594 1.18303 2.6424 2.64236 2.6424Z" stroke-width="1"></path><path stroke="#000000" stroke-linecap="round" stroke-linejoin="round" stroke-miterlimit="10" d="M4.97266 19.6319c0 -2.5102 2.11388 -4.6241 4.62413 -4.6241 2.51021 0 4.62411 2.1139 4.62411 4.6241" stroke-width="1"></path><path stroke="#000000" stroke-linecap="round" stroke-linejoin="round" d="M14.6875 5.43436c2.0302 -0.40813 3.6648 -2.06258 4.0735 -4.1453 0.4088 2.08272 2.043 3.73717 4.0732 4.1453m0 0.00237c-2.0302 0.40814 -3.6648 2.06258 -4.0736 4.1453 -0.4087 -2.08272 -2.0429 -3.73716 -4.0731 -4.1453" stroke-width="1"></path></svg>