<svg xmlns="http://www.w3.org/2000/svg" fill="none" viewBox="0 0 24 24" id="Ai-Prompt-Spark--Streamline-Ultimate"><desc>Ai Prompt Spark Streamline Icon: https://streamlinehq.com</desc><path stroke="#000000" stroke-linecap="round" stroke-linejoin="round" d="M14.3057 5.27607c2.1669 -0.43562 3.9116 -2.2015 4.3479 -4.424508 0.4363 2.223008 2.1805 3.988888 4.3475 4.424508m0 0.00253c-2.167 0.43563 -3.9116 2.20151 -4.3479 4.42451 -0.4363 -2.223 -2.1806 -3.98888 -4.3475 -4.42451" stroke-width="1"></path><path stroke="#000000" stroke-linecap="round" stroke-linejoin="round" stroke-miterlimit="10" d="M21.2991 11.746v9.901c0 0.8284 -0.6715 1.5 -1.5 1.5H2.44903c-0.77334 0 -1.450007 -0.6767 -1.450007 -1.45V5.74688c0 -0.77333 0.676667 -1.45 1.450007 -1.45h9.08777" stroke-width="1"></path><path stroke="#000000" stroke-linecap="round" stroke-linejoin="round" stroke-miterlimit="10" d="M0.999023 8.64844H12.3564" stroke-width="1"></path><path stroke="#000000" stroke-linecap="round" stroke-linejoin="round" d="m5.12374 12.7422 2.9456 3.0508 -2.9456 3.0491" stroke-width="1"></path><path stroke="#000000" stroke-linecap="round" stroke-linejoin="round" d="m9.09082 18.8359 3.26548 0.0026" stroke-width="1"></path></svg>