<svg xmlns="http://www.w3.org/2000/svg" fill="none" viewBox="0 0 24 24" id="Ai-Prompt-Robot--Streamline-Ultimate"><desc>Ai Prompt Robot Streamline Icon: https://streamlinehq.com</desc><path stroke="#000000" stroke-linejoin="round" d="M16.68 3.457h4.386s2 0 2 2v2.524s0 2 -2 2H16.68s-2 0 -2 -2V5.457s0 -2 2 -2" stroke-width="1"></path><path stroke="#000000" stroke-linecap="round" stroke-linejoin="round" d="m18.873 0.883857 0 2.573173" stroke-width="1"></path><path stroke="#000000" stroke-linecap="round" stroke-linejoin="round" d="m17.3379 6.35052 0 0.73932" stroke-width="1"></path><path stroke="#000000" stroke-linecap="round" stroke-linejoin="round" d="m20.4082 6.35052 0 0.73932" stroke-width="1"></path><path stroke="#000000" stroke-linecap="round" stroke-linejoin="round" stroke-miterlimit="10" d="M21.2337 12.8492v8.7704c0 0.8285 -0.6716 1.5 -1.5 1.5H2.3836c-0.77334 0 -1.450006 -0.6766 -1.450006 -1.45V5.71954c0 -0.77334 0.676666 -1.45001 1.450006 -1.45001h9.0878" stroke-width="1"></path><path stroke="#000000" stroke-linecap="round" stroke-linejoin="round" stroke-miterlimit="10" d="M0.933594 8.62109H11.502" stroke-width="1"></path><path stroke="#000000" stroke-linecap="round" stroke-linejoin="round" d="m5.05831 12.7188 2.9456 3.0507 -2.9456 3.0492" stroke-width="1"></path><path stroke="#000000" stroke-linecap="round" stroke-linejoin="round" d="m9.02539 18.8125 3.26551 0.0026" stroke-width="1"></path></svg>