<svg xmlns="http://www.w3.org/2000/svg" fill="none" viewBox="0 0 24 24" id="Ai-Redo-Robot--Streamline-Ultimate"><desc>Ai Redo Robot Streamline Icon: https://streamlinehq.com</desc><path stroke="#000000" stroke-linecap="round" d="M22.5659 10.0961c0.5991 3.3416 -0.3926 6.9125 -2.9751 9.495 -4.1925 4.1925 -10.98981 4.1925 -15.18228 0 -4.192469 -4.1924 -4.192469 -10.98977 0 -15.18224 4.19247 -4.192468 10.98978 -4.192468 15.18228 0l0.9056 0.90564" stroke-width="1"></path><path stroke="#000000" stroke-linecap="round" stroke-linejoin="round" d="M16.6836 5.41016h3.8395V1.57061" stroke-width="1"></path><path stroke="#000000" stroke-linejoin="round" d="M8.804 8.758h6.392s2 0 2 2v4.084s0 2 -2 2H8.804s-2 0 -2 -2v-4.084s0 -2 2 -2" stroke-width="1"></path><path stroke="#000000" stroke-linecap="round" stroke-linejoin="round" d="m11.999 5.56921 0 3.1886" stroke-width="1"></path><path stroke="#000000" stroke-linecap="round" stroke-linejoin="round" d="m10.0967 12.3456 0 0.9161" stroke-width="1"></path><path stroke="#000000" stroke-linecap="round" stroke-linejoin="round" d="m13.9014 12.3456 0 0.9161" stroke-width="1"></path></svg>