<svg xmlns="http://www.w3.org/2000/svg" fill="none" viewBox="0 0 24 24" id="Ai-Redo-Spark--Streamline-Ultimate"><desc>Ai Redo Spark Streamline Icon: https://streamlinehq.com</desc><path stroke="#000000" stroke-linecap="round" stroke-linejoin="round" d="M6.25195 11.9986c2.86519 -0.576 5.17205 -2.91087 5.74885 -5.85016 0.5769 2.93929 2.8832 5.27416 5.7484 5.85016m0 0.0033c-2.8652 0.576 -5.172 2.9109 -5.7489 5.8502 -0.5769 -2.9393 -2.88316 -5.2742 -5.74835 -5.8502" stroke-width="1"></path><path stroke="#000000" stroke-linecap="round" d="M22.5659 10.0961c0.5991 3.3416 -0.3926 6.9125 -2.9751 9.495 -4.1925 4.1925 -10.98981 4.1925 -15.18228 0 -4.192469 -4.1924 -4.192469 -10.98977 0 -15.18224 4.19247 -4.192468 10.98978 -4.192468 15.18228 0l0.8782 0.87817" stroke-width="1"></path><path stroke="#000000" stroke-linecap="round" stroke-linejoin="round" d="M16.6836 5.41016h3.8395V1.57061" stroke-width="1"></path></svg>