<svg xmlns="http://www.w3.org/2000/svg" fill="none" viewBox="0 0 24 24" id="Ai-Settings-Robot--Streamline-Ultimate"><desc>Ai Settings Robot Streamline Icon: https://streamlinehq.com</desc><path stroke="#000000" stroke-linejoin="round" d="M16.729 16.625h4.386s2 0 2 2v2.524s0 2 -2 2h-4.386s-2 0 -2 -2v-2.524s0 -2 2 -2" stroke-width="1"></path><path stroke="#000000" stroke-linecap="round" stroke-linejoin="round" d="m18.9219 14.0518 0 2.5732" stroke-width="1"></path><path stroke="#000000" stroke-linecap="round" stroke-linejoin="round" d="m17.3867 19.5185 0 0.7393" stroke-width="1"></path><path stroke="#000000" stroke-linecap="round" stroke-linejoin="round" d="m20.458 19.5185 0 0.7393" stroke-width="1"></path><path stroke="#000000" stroke-linecap="round" stroke-linejoin="round" d="M18.0381 11.0602c0 -0.374 -0.026 -0.7419 -0.0764 -1.10185l1.1092 -1.33282c0.5359 -0.64399 0.6137 -1.55377 0.1947 -2.27935l-0.4589 -0.7949c-0.4189 -0.72558 -1.2457 -1.11315 -2.0713 -0.97101l-1.7084 0.2941c-0.5697 -0.44586 -1.2029 -0.81439 -1.8838 -1.08988l-0.5988 -1.62458c-0.2898 -0.78613 -1.0388 -1.308348 -1.8766 -1.308348h-0.91788c-0.83783 0 -1.58686 0.522218 -1.8766 1.308348l-0.59829 1.62328c-0.68099 0.275 -1.31459 0.64297 -1.88495 1.0883l-1.7055 -0.2936c-0.82568 -0.14214 -1.65244 0.24543 -2.07136 0.971l-0.45893 0.7949c-0.418916 0.72558 -0.341179 1.63537 0.19476 2.27936l1.10327 1.3257c-0.05026 0.35875 -0.07625 0.72545 -0.07625 1.09825v0.0131c0 0.3653 0.02502 0.7249 0.07345 1.0771l-1.10203 1.3242c-0.535935 0.644 -0.613673 1.5538 -0.19476 2.2793l0.45894 0.7949c0.41891 0.7256 1.24567 1.1132 2.07135 0.9711l1.68279 -0.2897c0.57877 0.4557 1.22354 0.8316 1.91787 1.1109l0.58937 1.5991c0.28974 0.7861 1.03877 1.3084 1.87659 1.3084h0.91786c0.4362 0 0.8483 -0.1416 1.184 -0.3882" stroke-width="1"></path><path stroke="#000000" stroke-linecap="round" stroke-linejoin="round" d="M6.49023 11.0461c0 2.052 1.66143 3.7196 3.71957 3.7196 2.052 0 3.7196 -1.6614 3.7196 -3.7196 0 -2.05816 -1.6614 -3.72579 -3.7196 -3.72579 -2.05194 0 -3.71957 1.66143 -3.71957 3.71959v0.0062Z" stroke-width="1"></path></svg>