<svg xmlns="http://www.w3.org/2000/svg" fill="none" viewBox="0 0 24 24" id="Ai-Scanner-Robot--Streamline-Ultimate"><desc>Ai Scanner Robot Streamline Icon: https://streamlinehq.com</desc><path stroke="#000000" stroke-linecap="round" stroke-linejoin="round" d="M0.96875 6.4844V1.96875c0 -0.55228 0.44772 -1 1 -1h4.51583M0.96875 17.5157v4.5156c0 0.5523 0.44771 1 1 1h4.51583M23.0321 6.4844V1.96875c0 -0.55228 -0.4477 -1 -1 -1h-4.5159m5.5159 16.54695v4.5156c0 0.5523 -0.4477 1 -1 1h-4.5159" stroke-width="1"></path><path stroke="#000000" stroke-linejoin="round" d="M9.025 8.109h5.951s3 0 3 3v3.297s0 3 -3 3H9.025s-3 0 -3 -3v-3.297s0 -3 3 -3" stroke-width="1"></path><path stroke="#000000" stroke-linecap="round" stroke-linejoin="round" d="m12 4.44225 0 3.66713" stroke-width="1"></path><path stroke="#000000" stroke-linecap="round" stroke-linejoin="round" d="m9.8125 12.2315 0 1.0537" stroke-width="1"></path><path stroke="#000000" stroke-linecap="round" stroke-linejoin="round" d="m14.1895 12.2315 0 1.0537" stroke-width="1"></path></svg>