<svg xmlns="http://www.w3.org/2000/svg" fill="none" viewBox="0 0 24 24" id="Ai-Science-Spark--Streamline-Ultimate"><desc>Ai Science Spark Streamline Icon: https://streamlinehq.com</desc><path stroke="#000000" stroke-linecap="round" stroke-linejoin="round" d="M13.7197 5.64709c2.3123 -0.46485 4.1741 -2.34918 4.6396 -4.721309 0.4656 2.372129 2.3268 4.256459 4.6391 4.721309m0 0.0027c-2.3123 0.46485 -4.174 2.34918 -4.6395 4.72131 -0.4656 -2.37213 -2.3269 -4.25646 -4.6392 -4.72131" stroke-width="1"></path><path stroke="#000000" stroke-linecap="round" stroke-linejoin="round" d="M5.86182 18.1274c4.06957 4.0696 8.38688 6.3669 10.78198 3.9718 2.3893 -2.3893 0.1101 -6.7001 -3.9718 -10.7819C8.59013 7.2354 4.27277 4.93816 1.87774 7.33319 -0.511609 9.72255 1.76766 14.0333 5.84953 18.1151l0.01229 0.0123Z" stroke-width="1"></path><path stroke="#000000" stroke-linecap="round" stroke-linejoin="round" d="M11.3207 7.15076c-1.73478 0.84529 -3.61955 2.31801 -5.4579 4.15634l-0.01229 0.0123c-4.06958 4.0696 -6.366812 8.3869 -3.97178 10.782 2.38935 2.3893 6.70009 0.1101 10.78197 -3.9718 1.8417 -1.8417 3.3201 -3.7313 4.1681 -5.4707" stroke-width="1"></path></svg>