<svg xmlns="http://www.w3.org/2000/svg" fill="none" viewBox="0 0 24 24" id="Ai-Vehicle-Robot-1--Streamline-Ultimate"><desc>Ai Vehicle Robot 1 Streamline Icon: https://streamlinehq.com</desc><path stroke="#000000" stroke-linecap="round" stroke-linejoin="round" stroke-miterlimit="10" d="M15.9844 15.9361H4.80404l1.2389 -3.3266c0.37167 -0.9857 1.3628 -1.6017 2.35392 -1.6017h3.99474c0.9911 0 1.9822 0.616 2.3539 1.6017l1.2389 3.3266Z" stroke-width="1"></path><path stroke="#000000" stroke-linecap="round" stroke-linejoin="round" stroke-miterlimit="10" d="M16.3871 21.323h1.8584c0.7433 0 1.2389 -0.4956 1.2389 -1.2389v-1.6688c0 -1.3628 -1.115 -2.4778 -2.4778 -2.4778H3.3787c-1.36279 0 -2.477796 1.115 -2.477796 2.4778v1.6688c0 0.7433 0.495556 1.2389 1.238896 1.2389h1.85835" stroke-width="1"></path><path stroke="#000000" stroke-linecap="round" stroke-linejoin="round" stroke-miterlimit="10" d="M7.71628 21.3203h4.95562" stroke-width="1"></path><path stroke="#000000" stroke-linecap="round" stroke-linejoin="round" stroke-miterlimit="10" d="M14.5303 23.1854c-1.0263 0 -1.8583 -0.832 -1.8583 -1.8583s0.832 -1.8583 1.8583 -1.8583c1.0264 0 1.8584 0.832 1.8584 1.8583s-0.832 1.8583 -1.8584 1.8583Z" stroke-width="1"></path><path stroke="#000000" stroke-linecap="round" stroke-linejoin="round" stroke-miterlimit="10" d="M5.8565 23.1854c-1.02634 0 -1.85835 -0.832 -1.85835 -1.8583s0.83201 -1.8583 1.85835 -1.8583c1.02633 0 1.85834 0.832 1.85834 1.8583s-0.83201 1.8583 -1.85834 1.8583Z" stroke-width="1"></path><path stroke="#000000" stroke-linejoin="round" d="M16.711 3.391h4.386s2 0 2 2v2.524s0 2 -2 2h-4.386s-2 0 -2 -2V5.391s0 -2 2 -2" stroke-width="1"></path><path stroke="#000000" stroke-linecap="round" stroke-linejoin="round" d="m18.9043 0.817451 0 2.573169" stroke-width="1"></path><path stroke="#000000" stroke-linecap="round" stroke-linejoin="round" d="m17.3691 6.28411 0 0.73933" stroke-width="1"></path><path stroke="#000000" stroke-linecap="round" stroke-linejoin="round" d="m20.4395 6.28411 0 0.73933" stroke-width="1"></path></svg>