<svg xmlns="http://www.w3.org/2000/svg" fill="none" viewBox="0 0 24 24" id="Ai-Vehicle-Spark-1--Streamline-Ultimate"><desc>Ai Vehicle Spark 1 Streamline Icon: https://streamlinehq.com</desc><path stroke="#000000" stroke-linecap="round" stroke-linejoin="round" d="M13.8984 5.74084c2.3124 -0.46485 4.1741 -2.34918 4.6396 -4.72131 0.4656 2.37213 2.3268 4.25646 4.6392 4.72131m0 0.0027c-2.3124 0.46485 -4.1741 2.34918 -4.6396 4.72126 -0.4656 -2.37208 -2.3268 -4.25641 -4.6392 -4.72126" stroke-width="1"></path><path stroke="#000000" stroke-linecap="round" stroke-linejoin="round" stroke-miterlimit="10" d="M15.9668 15.7368H4.78646l1.2389 -3.3265c0.37167 -0.9857 1.3628 -1.6017 2.35392 -1.6017H12.374c0.9911 0 1.9822 0.616 2.3539 1.6017l1.2389 3.3265Z" stroke-width="1"></path><path stroke="#000000" stroke-linecap="round" stroke-linejoin="round" stroke-miterlimit="10" d="M16.3696 21.1238h1.8583c0.7433 0 1.2389 -0.4956 1.2389 -1.2389v-1.6688c0 -1.3628 -1.115 -2.4778 -2.4778 -2.4778H3.36112c-1.36279 0 -2.477794 1.115 -2.477794 2.4778v1.6688c0 0.7433 0.495564 1.2389 1.238894 1.2389h1.85835" stroke-width="1"></path><path stroke="#000000" stroke-linecap="round" stroke-linejoin="round" stroke-miterlimit="10" d="M7.69773 21.1211h4.95557" stroke-width="1"></path><path stroke="#000000" stroke-linecap="round" stroke-linejoin="round" stroke-miterlimit="10" d="M14.5118 22.9823c-1.0264 0 -1.8584 -0.832 -1.8584 -1.8583 0 -1.0264 0.832 -1.8584 1.8584 -1.8584 1.0263 0 1.8583 0.832 1.8583 1.8584 0 1.0263 -0.832 1.8583 -1.8583 1.8583Z" stroke-width="1"></path><path stroke="#000000" stroke-linecap="round" stroke-linejoin="round" stroke-miterlimit="10" d="M5.83892 22.9823c-1.02634 0 -1.85835 -0.832 -1.85835 -1.8583 0 -1.0264 0.83201 -1.8584 1.85835 -1.8584 1.02634 0 1.85835 0.832 1.85835 1.8584 0 1.0263 -0.83201 1.8583 -1.85835 1.8583Z" stroke-width="1"></path></svg>