<svg xmlns="http://www.w3.org/2000/svg" fill="none" viewBox="0 0 24 24" id="Artificial-Intelligence-Spark--Streamline-Ultimate"><desc>Artificial Intelligence Spark Streamline Icon: https://streamlinehq.com</desc><path stroke="#000000" stroke-linecap="round" stroke-linejoin="round" d="M10.9678 20.0391c0 1.66 -1.34003 3 -3.00003 3 -1.66 0 -3 -1.34 -3 -3 0 -0.2 0.02 -0.39 0.06 -0.58 -0.18 0.05 -0.36 0.08 -0.56 0.08 -1.1 0 -2 -0.9 -2 -2 0 -0.61 0.27 -1.15 0.7 -1.52 -1.24 -0.15 -2.199997 -1.2 -2.199997 -2.48s0.959997 -2.33 2.199997 -2.48c-0.43 -0.37 -0.7 -0.91 -0.7 -1.52004 0 -1.1 0.9 -2 2 -2 0.25 0 0.5 0.05 0.72 0.13 -0.14 -0.35 -0.22 -0.73 -0.22 -1.13 0 -1.66 1.34 -3 3 -3s3.00003 1.34 3.00003 3" stroke-width="1"></path><path stroke="#000000" stroke-linecap="round" stroke-linejoin="round" d="M10.9678 20.0394c0 1.66 1.34 3 3 3s3 -1.34 3 -3c0 -0.2 -0.02 -0.39 -0.06 -0.58 0.18 0.05 0.36 0.08 0.56 0.08 1.1 0 2 -0.9 2 -2 0 -0.61 -0.27 -1.15 -0.7 -1.52 1.24 -0.15 2.2 -1.2 2.2 -2.48 0 -0.5566 -0.1816 -1.0698 -0.4887 -1.4843m-9.5113 -5.51572c0 -0.80386 0.3142 -1.53268 0.8268 -2.07063" stroke-width="1"></path><path stroke="#000000" stroke-linecap="round" d="m10.9678 20.043 0 -13.82425" stroke-width="1"></path><path stroke="#000000" stroke-linecap="round" stroke-linejoin="round" d="M13.7529 5.68224c2.3123 -0.46484 4.1741 -2.34918 4.6396 -4.721302 0.4656 2.372122 2.3268 4.256462 4.6391 4.721302m0 0.00271c-2.3123 0.46484 -4.174 2.34918 -4.6395 4.72135 -0.4656 -2.37217 -2.3269 -4.25651 -4.6392 -4.72135" stroke-width="1"></path><path stroke="#000000" stroke-linecap="round" stroke-linejoin="round" d="M3.12207 11.0724c1.17986 -0.0832 1.81382 0.3661 2.24262 1.0858" stroke-width="1"></path><path stroke="#000000" stroke-linecap="round" stroke-linejoin="round" d="M5.01855 19.462c1.23463 -0.3312 1.83802 -1.1002 2.08142 -1.7979" stroke-width="1"></path><path stroke="#000000" stroke-linecap="round" stroke-linejoin="round" d="M16.917 19.462c-1.2346 -0.3312 -1.838 -1.1002 -2.0814 -1.7979" stroke-width="1"></path><path stroke="#000000" stroke-linecap="round" stroke-linejoin="round" d="M10.9678 6.48438c0 1.68979 -1.4297 2.62863 -2.19143 2.71484" stroke-width="1"></path><path stroke="#000000" stroke-linecap="round" stroke-linejoin="round" d="M10.9678 6.48438c0 1.68979 1.4296 2.62863 2.1914 2.71484" stroke-width="1"></path></svg>