<svg xmlns="http://www.w3.org/2000/svg" fill="none" viewBox="0 0 24 24" id="Artificial-Intelligence-Robot--Streamline-Ultimate"><desc>Artificial Intelligence Robot Streamline Icon: https://streamlinehq.com</desc><path stroke="#000000" stroke-linecap="round" stroke-linejoin="round" d="M10.873 20.0391c0 1.66 -1.33995 3 -2.99995 3 -1.66 0 -3 -1.34 -3 -3 0 -0.2 0.02 -0.39 0.06 -0.58 -0.18 0.05 -0.36 0.08 -0.56 0.08 -1.1 0 -2 -0.9 -2 -2 0 -0.61 0.27 -1.15 0.7 -1.52 -1.24 -0.15 -2.200003 -1.2 -2.200003 -2.48s0.960003 -2.33 2.200003 -2.48c-0.43 -0.37 -0.7 -0.91 -0.7 -1.52004 0 -1.1 0.9 -2 2 -2 0.25 0 0.5 0.05 0.72 0.13 -0.14 -0.35 -0.22 -0.73 -0.22 -1.13 0 -1.66 1.34 -3 3 -3s2.99995 1.34 2.99995 3" stroke-width="1"></path><path stroke="#000000" stroke-linecap="round" stroke-linejoin="round" d="M10.873 20.0394c0 1.66 1.34 3 3 3s3 -1.34 3 -3c0 -0.2 -0.02 -0.39 -0.06 -0.58 0.18 0.05 0.36 0.08 0.56 0.08 1.1 0 2 -0.9 2 -2 0 -0.61 -0.27 -1.15 -0.7 -1.52 1.24 -0.15 2.2 -1.2 2.2 -2.48m-10 -7.00002c0 -0.80386 0.3143 -1.53268 0.8269 -2.07063" stroke-width="1"></path><path stroke="#000000" stroke-linecap="round" d="m10.873 20.043 0 -13.82425" stroke-width="1"></path><path stroke="#000000" stroke-linecap="round" stroke-linejoin="round" d="M3.02734 11.0724c1.17986 -0.0832 1.81382 0.3661 2.24262 1.0858" stroke-width="1"></path><path stroke="#000000" stroke-linecap="round" stroke-linejoin="round" d="M4.92383 19.462c1.23462 -0.3312 1.83801 -1.1002 2.08142 -1.7979" stroke-width="1"></path><path stroke="#000000" stroke-linecap="round" stroke-linejoin="round" d="M16.8223 19.462c-1.2347 -0.3312 -1.838 -1.1002 -2.0815 -1.7979" stroke-width="1"></path><path stroke="#000000" stroke-linecap="round" stroke-linejoin="round" d="M10.873 6.48438c0 1.68979 -1.42963 2.62863 -2.19136 2.71484" stroke-width="1"></path><path stroke="#000000" stroke-linejoin="round" d="M16.74 3.531h4.386s2 0 2 2v2.524s0 2 -2 2H16.74s-2 0 -2 -2V5.531s0 -2 2 -2" stroke-width="1"></path><path stroke="#000000" stroke-linecap="round" stroke-linejoin="round" d="m18.9336 0.958076 0 2.573174" stroke-width="1"></path><path stroke="#000000" stroke-linecap="round" stroke-linejoin="round" d="m17.3984 6.42474 0 0.73932" stroke-width="1"></path><path stroke="#000000" stroke-linecap="round" stroke-linejoin="round" d="m20.4687 6.42474 0.0001 0.73932" stroke-width="1"></path></svg>