<svg xmlns="http://www.w3.org/2000/svg" fill="none" viewBox="0 0 24 24" id="Computer-Ai-Spark--Streamline-Ultimate"><desc>Computer Ai Spark Streamline Icon: https://streamlinehq.com</desc><path stroke="#000000" stroke-linecap="round" stroke-linejoin="round" d="M14.832 5.29373c2.0302 -0.40813 3.6648 -2.06257 4.0736 -4.14529 0.4087 2.08272 2.0429 3.73716 4.0731 4.14529m0 0.00238c-2.0302 0.40813 -3.6648 2.06258 -4.0735 4.1453 -0.4088 -2.08272 -2.043 -3.73717 -4.0732 -4.1453" stroke-width="1"></path><path stroke="#000000" stroke-linecap="round" stroke-linejoin="round" d="M11.5843 5.29688H2.97201c-1.07725 0 -1.95053 0.87327 -1.95053 1.95052V17c0 1.0772 0.87328 1.9505 1.95053 1.9505H18.5762c1.0772 0 1.9505 -0.8733 1.9505 -1.9505v-4.8603" stroke-width="1"></path><path stroke="#000000" stroke-linecap="round" stroke-linejoin="round" d="M10.7744 18.9492v3.9011" stroke-width="1"></path><path stroke="#000000" stroke-linecap="round" stroke-linejoin="round" d="M7.84766 22.8516h5.85154" stroke-width="1"></path><path stroke="#000000" stroke-linecap="round" stroke-linejoin="round" d="M1.02148 15.2148H20.5267" stroke-width="1"></path></svg>