<svg xmlns="http://www.w3.org/2000/svg" fill="none" viewBox="0 0 24 24" id="Laptop-Ai-Spark--Streamline-Ultimate"><desc>Laptop Ai Spark Streamline Icon: https://streamlinehq.com</desc><path stroke="#000000" stroke-linecap="round" stroke-linejoin="round" d="M14.8477 5.31327c2.0302 -0.40814 3.6647 -2.06258 4.0735 -4.1453 0.4088 2.08272 2.0429 3.73716 4.0732 4.1453m0 0.00237c-2.0303 0.40813 -3.6648 2.06258 -4.0736 4.1453 -0.4088 -2.08272 -2.0429 -3.73717 -4.0731 -4.1453" stroke-width="1"></path><path stroke="#000000" stroke-linecap="round" stroke-linejoin="round" d="M18.5295 15.8284c0.9697 0 1.7524 -0.7828 1.7524 -1.7524v-1.9051m-8.5124 -8.09668H4.51022c-0.96966 0 -1.75241 0.78274 -1.75241 1.75241l0 8.24937c0 0.9696 0.78275 1.7524 1.75241 1.7524" stroke-width="1"></path><path stroke="#000000" stroke-linecap="round" stroke-linejoin="round" d="M21.8245 20.4623c0.3388 0.9113 -0.1168 1.916 -1.0281 2.2548 -0.1986 0.0701 -0.4089 0.1168 -0.6192 0.1168H2.75827c-0.96967 0 -1.75241 -0.7944 -1.75241 -1.7524 0 -0.2103 0.03505 -0.4089 0.11683 -0.6075l1.30846 -3.5048c0.25702 -0.6776 0.91126 -1.1333 1.63558 -1.1333H19.0674c0.7243 0 1.3785 0.4557 1.6355 1.1333l1.1216 3.5048v-0.0117Z" stroke-width="1"></path><path stroke="#000000" stroke-linecap="round" stroke-linejoin="round" d="M9.76758 20.0156h3.50482" stroke-width="1"></path></svg>