<svg xmlns="http://www.w3.org/2000/svg" fill="none" viewBox="0 0 24 24" id="Laptop-Ai-Robot--Streamline-Ultimate"><desc>Laptop Ai Robot Streamline Icon: https://streamlinehq.com</desc><path stroke="#000000" stroke-linecap="round" stroke-linejoin="round" d="M18.5598 15.9065c0.9696 0 1.7524 -0.7827 1.7524 -1.7524v-1.23m-8.5125 -8.77176H4.5405c-0.96967 0 -1.75241 0.78275 -1.75241 1.75241l0 8.24935c0 0.9697 0.78274 1.7524 1.75241 1.7524" stroke-width="1"></path><path stroke="#000000" stroke-linecap="round" stroke-linejoin="round" d="M21.8548 20.5404c0.3388 0.9113 -0.1169 1.916 -1.0281 2.2548 -0.1986 0.0701 -0.4089 0.1168 -0.6192 0.1168H2.78854c-0.96966 0 -1.75241 -0.7944 -1.75241 -1.7524 0 -0.2103 0.03505 -0.4089 0.11683 -0.6075l1.30847 -3.5048c0.25702 -0.6776 0.91125 -1.1332 1.63558 -1.1332H19.0976c0.7244 0 1.3786 0.4556 1.6356 1.1332l1.1216 3.5048v-0.0117Z" stroke-width="1"></path><path stroke="#000000" stroke-linecap="round" stroke-linejoin="round" d="M9.79785 20.0938h3.50485" stroke-width="1"></path><path stroke="#000000" stroke-linejoin="round" d="M16.578 3.664h4.386s2 0 2 2v2.524s0 2 -2 2h-4.386s-2 0 -2 -2V5.664s0 -2 2 -2" stroke-width="1"></path><path stroke="#000000" stroke-linecap="round" stroke-linejoin="round" d="m18.7705 1.09089 0 2.57317" stroke-width="1"></path><path stroke="#000000" stroke-linecap="round" stroke-linejoin="round" d="m17.2354 6.55755 0 0.73933" stroke-width="1"></path><path stroke="#000000" stroke-linecap="round" stroke-linejoin="round" d="m20.3066 6.55755 0 0.73933" stroke-width="1"></path></svg>