<svg xmlns="http://www.w3.org/2000/svg" fill="none" viewBox="0 0 24 24" id="Mobile-Ai-Robot--Streamline-Ultimate"><desc>Mobile Ai Robot Streamline Icon: https://streamlinehq.com</desc><path stroke="#000000" stroke-linecap="round" stroke-linejoin="round" d="M11.1782 2.89844H4.71691c-1.35365 0 -2.38878 1.03514 -2.38878 2.38878L2.32812 20.5727c0 1.3537 1.03514 2.3888 2.38879 2.3888h7.56449c1.3536 0 2.3888 -1.0351 2.3888 -2.3888v-7.9842" stroke-width="1"></path><path stroke="#000000" stroke-linecap="round" stroke-linejoin="round" d="M2.32812 19.0039H14.6702" stroke-width="1"></path><path stroke="#000000" stroke-linejoin="round" d="M15.286 3.613h4.386s2 0 2 2v2.524s0 2 -2 2h-4.386s-2 0 -2 -2V5.613s0 -2 2 -2" stroke-width="1"></path><path stroke="#000000" stroke-linecap="round" stroke-linejoin="round" d="m17.4785 1.04011 0 2.57317" stroke-width="1"></path><path stroke="#000000" stroke-linecap="round" stroke-linejoin="round" d="m15.9434 6.50677 0 0.73932" stroke-width="1"></path><path stroke="#000000" stroke-linecap="round" stroke-linejoin="round" d="m19.0146 6.50677 0 0.73932" stroke-width="1"></path></svg>