<svg xmlns="http://www.w3.org/2000/svg" viewBox="0 0 24 24" id="Avatar-Islamic-Women-Hijab-1--Streamline-Ultimate"><desc>Avatar Islamic Women Hijab 1 Streamline Icon: https://streamlinehq.com</desc><defs></defs><path d="M5.778 16.6A8.094 8.094 0 0 0 2 23.25" fill="none" stroke="#000000" stroke-linecap="round" stroke-linejoin="round" stroke-width="1"></path><path d="M22 23.25a7.471 7.471 0 0 0 -1.11 -3.9" fill="none" stroke="#000000" stroke-linecap="round" stroke-linejoin="round" stroke-width="1"></path><path d="M18.477 16.773a9.218 9.218 0 0 1 2.426 2.6 12.056 12.056 0 0 1 -5.4 1.374c-8 0 -11 -5 -11 -7.5v-5a7.5 7.5 0 0 1 15 0v5a6.945 6.945 0 0 1 -1.026 3.526Z" fill="none" stroke="#000000" stroke-linecap="round" stroke-linejoin="round" stroke-width="1"></path><path d="M12 13.75c2.485 0 4.5 -1.978 4.5 -5.036V7.25s-3.273 -2 -4.5 -2 -4.5 2 -4.5 2v1.464c0 3.058 2.015 5.036 4.5 5.036Z" fill="none" stroke="#000000" stroke-linecap="round" stroke-linejoin="round" stroke-width="1"></path></svg>