<svg xmlns="http://www.w3.org/2000/svg" viewBox="0 0 24 24" id="Religion-Woman-Muslim--Streamline-Ultimate"><desc>Religion Woman Muslim Streamline Icon: https://streamlinehq.com</desc><g><path d="M22.5 23.25a10.73 10.73 0 0 0 -6.41 -8.93" fill="none" stroke="#000000" stroke-linecap="round" stroke-linejoin="round" stroke-width="1"></path><path d="M7.69 14.48a10.73 10.73 0 0 0 -6.14 8.77" fill="none" stroke="#000000" stroke-linecap="round" stroke-linejoin="round" stroke-width="1"></path><path d="M12 11.25c2.48 0 3.75 -1.27 3.75 -3.75v-0.23A5.59 5.59 0 0 0 12 6a5.59 5.59 0 0 0 -3.72 1.27 1.69 1.69 0 0 0 0 0.23C8.27 10 9.54 11.25 12 11.25Z" fill="none" stroke="#000000" stroke-linecap="round" stroke-linejoin="round" stroke-width="1"></path><path d="M16.09 14.32a11.24 11.24 0 0 0 2.69 -6.82 6.75 6.75 0 0 0 -13.5 0 10.22 10.22 0 0 0 2.41 7 1.6 1.6 0 0 0 -0.91 1.27c0 1.24 0.75 3.75 5.25 3.75s5.25 -2.51 5.25 -3.75c0 -0.56 -0.45 -1.06 -1.19 -1.45Z" fill="none" stroke="#000000" stroke-linecap="round" stroke-linejoin="round" stroke-width="1"></path></g></svg>