<svg xmlns="http://www.w3.org/2000/svg" fill="none" viewBox="0 0 24 24" id="Saving-Piggy-Dollars--Streamline-Ultimate"><desc>Saving Piggy Dollars Streamline Icon: https://streamlinehq.com</desc><path stroke="#000000" d="M7.50488 10.8701c-0.2071 0 -0.375 -0.1679 -0.375 -0.375s0.1679 -0.375 0.375 -0.375" stroke-width="1"></path><path stroke="#000000" d="M7.50488 10.8701c0.20711 0 0.375 -0.1679 0.375 -0.375s-0.16789 -0.375 -0.375 -0.375" stroke-width="1"></path><path stroke="#000000" stroke-linecap="round" stroke-linejoin="round" d="M18.75 3.74999h-2c-0.3143 -0.0041 -0.62 0.10241 -0.8637 0.30091 -0.2437 0.1985 -0.4099 0.47636 -0.4695 0.78498 -0.0596 0.30862 -0.0088 0.62837 0.1435 0.90332 0.1524 0.27495 0.3965 0.48761 0.6897 0.60079l2.06 0.82c0.2932 0.11318 0.5374 0.32584 0.6897 0.6008 0.1523 0.27495 0.2031 0.59469 0.1435 0.90331 -0.0596 0.30863 -0.2257 0.58648 -0.4695 0.78498 -0.2437 0.1985 -0.5494 0.30502 -0.8637 0.30091h-2" stroke-width="1"></path><path stroke="#000000" stroke-linecap="round" stroke-linejoin="round" d="M17.25 3.75V3" stroke-width="1"></path><path stroke="#000000" stroke-linecap="round" stroke-linejoin="round" d="M17.25 10.5v-0.75" stroke-width="1"></path><path stroke="#000000" stroke-linecap="round" stroke-linejoin="round" d="M17.25 12.75c3.3137 0 6 -2.6863 6 -6 0 -3.31371 -2.6863 -6 -6 -6s-6 2.68629 -6 6c0 3.3137 2.6863 6 6 6Z" stroke-width="1"></path><path stroke="#000000" stroke-linecap="round" stroke-linejoin="round" d="m9 5.52999 -2 -1.65c-0.10325 -0.08497 -0.22734 -0.14078 -0.35941 -0.16167 -0.13207 -0.02089 -0.26733 -0.00609 -0.39176 0.04286 -0.12443 0.04896 -0.23351 0.13029 -0.31594 0.23558 -0.08243 0.10528 -0.13522 0.23069 -0.15289 0.36323l-0.31 2.85C4.12292 8.21467 3.12028 9.61209 2.6 11.21H0.75v6h2.49c0.81585 1.391 1.98633 2.5405 3.39185 3.3312 1.40552 0.7906 2.99572 1.1939 4.60815 1.1688 1.91 0.0508 3.7858 -0.5137 5.3505 -1.6103 1.5647 -1.0965 2.7354 -2.667 3.3395 -4.4797" stroke-width="1"></path><path stroke="#000000" stroke-linecap="round" stroke-linejoin="round" d="m6.01 20.2 -0.76 3.05" stroke-width="1"></path><path stroke="#000000" stroke-linecap="round" stroke-linejoin="round" d="m16.49 20.21 0.76 3.04" stroke-width="1"></path></svg>