<svg xmlns="http://www.w3.org/2000/svg" fill="none" viewBox="0 0 24 24" id="Saving-Money-Seedling--Streamline-Ultimate"><desc>Saving Money Seedling Streamline Icon: https://streamlinehq.com</desc><path stroke="#000000" stroke-linecap="round" stroke-linejoin="round" d="M10.8395 4.50495 4.57198 0.884642C4.09374 0.608399 3.48212 0.772146 3.20587 1.25038L1.20165 4.72013c-0.276246 0.47823 -0.1125 1.08985 0.36574 1.3661l6.26753 3.62031c0.47823 0.27624 1.08986 0.1125 1.3661 -0.36574l2.00418 -3.46974c0.2763 -0.47824 0.1125 -1.08986 -0.3657 -1.36611Z" stroke-width="1"></path><path stroke="#000000" stroke-linecap="round" stroke-linejoin="round" d="m16.7086 13.782 5.9078 -4.63496c0.4346 -0.3409 0.5104 -0.9695 0.1695 -1.40402l-2.4733 -3.15256c-0.3409 -0.43451 -0.9695 -0.5104 -1.404 -0.1695l-5.9078 4.63497c-0.4345 0.3409 -0.5104 0.96947 -0.1695 1.40397l2.4733 3.1526c0.3409 0.4345 0.9695 0.5104 1.404 0.1695Z" stroke-width="1"></path><path stroke="#000000" stroke-linecap="round" stroke-linejoin="round" d="M11.952 20.25V0.932983" stroke-width="1"></path><path stroke="#000000" d="M17.647 9.51898c-0.2071 0 -0.375 -0.16789 -0.375 -0.375 0 -0.2071 0.1679 -0.375 0.375 -0.375" stroke-width="1"></path><path stroke="#000000" d="M17.647 9.51898c0.2071 0 0.375 -0.16789 0.375 -0.375 0 -0.2071 -0.1679 -0.375 -0.375 -0.375" stroke-width="1"></path><path stroke="#000000" d="M6.13403 5.51398c-0.2071 0 -0.375 -0.1679 -0.375 -0.375 0 -0.20711 0.1679 -0.375 0.375 -0.375" stroke-width="1"></path><path stroke="#000000" d="M6.13403 5.51398c0.20711 0 0.375 -0.1679 0.375 -0.375 0 -0.20711 -0.16789 -0.375 -0.375 -0.375" stroke-width="1"></path><path stroke="#000000" stroke-linecap="round" stroke-linejoin="round" d="m8.95194 23.25 -0.79 -2.341c-0.02524 -0.0753 -0.0322 -0.1555 -0.0203 -0.2339 0.01189 -0.0785 0.04231 -0.1531 0.08873 -0.2175 0.04642 -0.0644 0.10751 -0.1168 0.17821 -0.1529 0.0707 -0.0361 0.14898 -0.0549 0.22836 -0.0547h6.61996c0.0794 -0.0002 0.1577 0.0186 0.2284 0.0547 0.0707 0.0361 0.1318 0.0885 0.1782 0.1529 0.0464 0.0644 0.0768 0.139 0.0887 0.2175 0.0119 0.0784 0.005 0.1586 -0.0203 0.2339l-0.78 2.341" stroke-width="1"></path><path stroke="#000000" stroke-linecap="round" stroke-linejoin="round" d="m11.4696 13.9695 -4.65431 -1.8267c-0.25705 -0.1009 -0.54722 0.0257 -0.64811 0.2827l-1.00471 2.5599c-0.10089 0.2571 0.02571 0.5472 0.28276 0.6481l4.65437 1.8268c0.257 0.1009 0.5472 -0.0257 0.6481 -0.2828l1.0047 -2.5599c0.1009 -0.257 -0.0257 -0.5472 -0.2828 -0.6481Z" stroke-width="1"></path></svg>