<svg xmlns="http://www.w3.org/2000/svg" fill="none" viewBox="0 0 24 24" id="Saving-Piggy-Bank--Streamline-Ultimate"><desc>Saving Piggy Bank Streamline Icon: https://streamlinehq.com</desc><path stroke="#000000" stroke-linecap="round" stroke-linejoin="round" d="M23.25 9c0 0.79565 -0.3161 1.5587 -0.8787 2.1213 -0.5626 0.5626 -1.3257 0.8787 -2.1213 0.8787" stroke-width="1"></path><path stroke="#000000" stroke-linecap="round" stroke-linejoin="round" d="M10 7.5h3" stroke-width="1"></path><path stroke="#000000" d="M6.3136 11.245c-0.20711 0 -0.375 -0.1679 -0.375 -0.375s0.16789 -0.375 0.375 -0.375" stroke-width="1"></path><path stroke="#000000" d="M6.3136 11.245c0.20711 0 0.375 -0.1679 0.375 -0.375s-0.16789 -0.375 -0.375 -0.375" stroke-width="1"></path><path stroke="#000000" stroke-linecap="round" stroke-linejoin="round" d="M7.9 4.38C6.73 2.26 3.75 2.25 3.75 2.25l0.63 4.38c-0.82475 0.88974 -1.43378 1.95726 -1.78 3.12H0.75v6h2.49c0.51437 0.9069 1.19251 1.7105 2 2.37V21c0.00259 0.1981 0.08244 0.3874 0.22253 0.5275 0.1401 0.1401 0.32936 0.2199 0.52747 0.2225H7.5c0.19811 -0.0026 0.38737 -0.0824 0.52747 -0.2225 0.14009 -0.1401 0.21994 -0.3294 0.22253 -0.5275v-1.24c1.9477 0.6467 4.0523 0.6467 6 0V21c0.0026 0.1981 0.0824 0.3874 0.2225 0.5275 0.1401 0.1401 0.3294 0.2199 0.5275 0.2225h1.5c0.1981 -0.0026 0.3874 -0.0824 0.5275 -0.2225 0.1401 -0.1401 0.2199 -0.3294 0.2225 -0.5275v-2.86c0.9256 -0.7355 1.6753 -1.6685 2.1944 -2.7307 0.519 -1.0623 0.7942 -2.2271 0.8056 -3.4093 0 -6.49 -7.05 -9.39 -12.35 -7.62Z" stroke-width="1"></path></svg>