<svg xmlns="http://www.w3.org/2000/svg" viewBox="0 0 24 24" id="Saving-Wallet-International--Streamline-Ultimate"><desc>Saving Wallet International Streamline Icon: https://streamlinehq.com</desc><g><g><path d="M22.5 20.25v1.23a1.69 1.69 0 0 1 -1.61 1.77h-8a1.69 1.69 0 0 1 -1.61 -1.77v-6.21a1.69 1.69 0 0 1 1.61 -1.77h8a1.69 1.69 0 0 1 1.61 1.77v1" fill="none" stroke="#000000" stroke-linecap="round" stroke-linejoin="round" stroke-width="1"></path><path d="m21 13.51 -1.28 -2.57a0.82 0.82 0 0 0 -1.08 -0.36l-5.78 2.92" fill="none" stroke="#000000" stroke-linecap="round" stroke-linejoin="round" stroke-width="1"></path><path d="M22.45 20.25a0.8 0.8 0 0 0 0.8 -0.8v-2.4a0.8 0.8 0 0 0 -0.8 -0.8h-2a2 2 0 0 0 0 4Z" fill="none" stroke="#000000" stroke-linecap="round" stroke-linejoin="round" stroke-width="1"></path></g><g><path d="M5.74 21.35A11.25 11.25 0 1 1 22.89 9.18" fill="none" stroke="#000000" stroke-linecap="round" stroke-linejoin="round" stroke-width="1"></path><path d="M8 19.4a26.07 26.07 0 0 1 -0.9 -11.84 16.14 16.14 0 0 1 2.19 -6.48" fill="none" stroke="#000000" stroke-linecap="round" stroke-linejoin="round" stroke-width="1"></path><path d="m0.77 11.25 10.48 0" fill="none" stroke="#000000" stroke-linecap="round" stroke-linejoin="round" stroke-width="1"></path><path d="m2.48 6 19.04 0" fill="none" stroke="#000000" stroke-linecap="round" stroke-linejoin="round" stroke-width="1"></path><path d="m1.69 16.5 5.55 0" fill="none" stroke="#000000" stroke-linecap="round" stroke-linejoin="round" stroke-width="1"></path><path d="M14.71 1.08a15 15 0 0 1 2 5.31c0.11 0.58 0.21 1.16 0.28 1.74" fill="none" stroke="#000000" stroke-linecap="round" stroke-linejoin="round" stroke-width="1"></path></g></g></svg>