<svg xmlns="http://www.w3.org/2000/svg" fill="none" viewBox="0 0 24 24" id="Saving-Piggy-Coins--Streamline-Ultimate"><desc>Saving Piggy Coins Streamline Icon: https://streamlinehq.com</desc><path stroke="#000000" stroke-linecap="round" stroke-linejoin="round" d="M5.10999 6.81999c0.86088 -1.22175 2.00647 -2.21537 3.33765 -2.8949 1.33118 -0.67953 2.80786 -1.02451 4.30236 -1.0051 0.7585 0.0024 1.514 0.09641 2.25 0.28l2 -2.270002c0.1021 -0.088386 0.2265 -0.14714 0.3596 -0.169896 0.1331 -0.022756 0.2699 -0.008646 0.3956 0.040801 0.1257 0.049447 0.2354 0.132346 0.3174 0.239717 0.0819 0.10736 0.1329 0.2351 0.1474 0.36938l0.36 3.47c1.3449 1.04728 2.3305 2.48722 2.82 4.12h1.85V15h-2.49c-0.5136 0.916 -1.1916 1.7296 -2 2.4 -0.8684 0.7114 -1.8621 1.254 -2.93 1.6" stroke-width="1"></path><path stroke="#000000" d="M16.875 8.26001c-0.2071 0 -0.375 -0.16789 -0.375 -0.375s0.1679 -0.375 0.375 -0.375" stroke-width="1"></path><path stroke="#000000" d="M16.875 8.26001c0.2071 0 0.375 -0.16789 0.375 -0.375s-0.1679 -0.375 -0.375 -0.375" stroke-width="1"></path><path stroke="#000000" stroke-linecap="round" stroke-linejoin="round" d="m17.96 17.96 0.79 3.04" stroke-width="1"></path><g><path stroke="#000000" stroke-linecap="round" stroke-linejoin="round" d="M6.75 16.25c3.3137 0 6 -1.3431 6 -3s-2.6863 -3 -6 -3c-3.31371 0 -6 1.3431 -6 3s2.68629 3 6 3Z" stroke-width="1"></path><path stroke="#000000" stroke-linecap="round" stroke-linejoin="round" d="M0.75 13.25v7c0 1.66 2.69 3 6 3s6 -1.34 6 -3v-7" stroke-width="1"></path><path stroke="#000000" stroke-linecap="round" stroke-linejoin="round" d="M12.75 16.75c0 1.66 -2.69 3 -6 3s-6 -1.34 -6 -3" stroke-width="1"></path></g></svg>