<svg xmlns="http://www.w3.org/2000/svg" fill="none" viewBox="0 0 24 24" id="Saving-Bank-Cash--Streamline-Ultimate"><desc>Saving Bank Cash Streamline Icon: https://streamlinehq.com</desc><path stroke="#000000" stroke-linecap="round" stroke-linejoin="round" d="m0.75 4.65117 0 4.97c0 0.49153 0.39847 0.89003 0.89 0.89003h8.72c0.4915 0 0.89 -0.3985 0.89 -0.89003v-4.97c0 -0.49153 -0.3985 -0.89 -0.89 -0.89l-8.72 0c-0.49153 0 -0.89 0.39847 -0.89 0.89Z" stroke-width="1"></path><path stroke="#000000" stroke-linecap="round" stroke-linejoin="round" d="m4.43005 3.7612 0.3 -2c0.04461 -0.30858 0.20953 -0.58697 0.45873 -0.774344 0.24921 -0.187372 0.56244 -0.2685 0.87127 -0.225659L12.8301 1.7612c0.1535 0.0183 0.3017 0.06735 0.4358 0.14424 0.1341 0.07688 0.2513 0.18002 0.3447 0.30324 0.0933 0.12321 0.1609 0.26399 0.1986 0.4139 0.0377 0.14992 0.0448 0.3059 0.0209 0.45862l-0.53 3.53c-0.0373 0.28534 -0.1802 0.54635 -0.4005 0.73149 -0.2203 0.18513 -0.502 0.28094 -0.7895 0.26851l-0.84 -0.12" stroke-width="1"></path><path stroke="#000000" d="M6 7.51117c-0.20711 0 -0.375 -0.16789 -0.375 -0.375s0.16789 -0.375 0.375 -0.375" stroke-width="1"></path><path stroke="#000000" d="M6 7.51117c0.20711 0 0.375 -0.16789 0.375 -0.375s-0.16789 -0.375 -0.375 -0.375" stroke-width="1"></path><g><path stroke="#000000" stroke-linecap="round" stroke-linejoin="round" d="M5.22998 23.25H23.23" stroke-width="1"></path><path stroke="#000000" stroke-linecap="round" stroke-linejoin="round" d="M15.56 6.57001 22.98 11.51c0.0828 0.0545 0.1508 0.1288 0.1979 0.216 0.0471 0.0873 0.0719 0.1848 0.0721 0.284v0.89c0 0.1591 -0.0632 0.3117 -0.1758 0.4243 -0.1125 0.1125 -0.2651 0.1757 -0.4242 0.1757H5.22998" stroke-width="1"></path><path stroke="#000000" stroke-linecap="round" stroke-linejoin="round" d="M20.98 23.25V13.5" stroke-width="1"></path><path stroke="#000000" stroke-linecap="round" stroke-linejoin="round" d="M16.48 23.25V13.5" stroke-width="1"></path><path stroke="#000000" stroke-linecap="round" stroke-linejoin="round" d="M11.98 23.25V13.5" stroke-width="1"></path><path stroke="#000000" stroke-linecap="round" stroke-linejoin="round" d="M7.47998 23.25V13.5" stroke-width="1"></path></g></svg>