<svg xmlns="http://www.w3.org/2000/svg" fill="none" viewBox="0 0 24 24" id="Saving-Bag-Increase--Streamline-Ultimate"><desc>Saving Bag Increase Streamline Icon: https://streamlinehq.com</desc><path stroke="#000000" stroke-linecap="round" stroke-linejoin="round" d="M13.16 15.75c-0.1681 -0.0054 -0.3316 0.0555 -0.4551 0.1697 -0.1235 0.1141 -0.1971 0.2723 -0.2049 0.4403v5.79c0.0078 0.1653 0.0804 0.321 0.202 0.4333 0.1216 0.1122 0.2826 0.1721 0.448 0.1667h9.44c0.1681 0.0054 0.3316 -0.0555 0.4551 -0.1697 0.1235 -0.1141 0.1971 -0.2723 0.2049 -0.4403V16.5c-0.0039 -0.1025 -0.0279 -0.2032 -0.0707 -0.2963 -0.0428 -0.0932 -0.1036 -0.177 -0.1788 -0.2466 -0.0752 -0.0697 -0.1635 -0.1238 -0.2596 -0.1594 -0.0962 -0.0355 -0.1985 -0.0517 -0.3009 -0.0477h-9.28Z" stroke-width="1"></path><path stroke="#000000" d="M17.865 19.63c-0.2071 0 -0.375 -0.1679 -0.375 -0.375s0.1679 -0.375 0.375 -0.375" stroke-width="1"></path><path stroke="#000000" d="M17.865 19.63c0.2071 0 0.375 -0.1679 0.375 -0.375s-0.1679 -0.375 -0.375 -0.375" stroke-width="1"></path><path stroke="#000000" stroke-linecap="round" stroke-linejoin="round" d="M12.5 19.55c-1.3711 1.2412 -3.15058 1.9352 -5 1.95 -3.39 0 -6.75 -2.5 -6.75 -5.63S3.41 9.42 5.45 8C4.86 6.7 4.39 5.67 4 4.89c-0.10874 -0.23042 -0.157 -0.48474 -0.14022 -0.73897 0.01678 -0.25424 0.09805 -0.50001 0.23613 -0.71413 0.13808 -0.21413 0.32843 -0.38956 0.55309 -0.50974 0.22467 -0.12018 0.47624 -0.18115 0.731 -0.17716h5.12" stroke-width="1"></path><path stroke="#000000" stroke-linecap="round" stroke-linejoin="round" d="M11.8 10.15c1.391 1.5589 2.2492 3.5204 2.45 5.6" stroke-width="1"></path><g><path stroke="#000000" stroke-linecap="round" stroke-linejoin="round" d="M5.83 17.34c0.216 0.2859 0.49799 0.5153 0.82189 0.6685 0.3239 0.1533 0.68008 0.2258 1.03811 0.2115 1.14 0 2.06 -0.69 2.06 -1.55 0 -0.86 -0.92 -1.54 -2.06 -1.54 -1.14 0 -2.06 -0.7 -2.06 -1.55 0 -0.85 0.92 -1.58 2.06 -1.58 0.35804 -0.0143 0.71422 0.0583 1.03812 0.2115 0.3239 0.1532 0.60589 0.3826 0.82188 0.6685" stroke-width="1"></path><path stroke="#000000" stroke-linecap="round" stroke-linejoin="round" d="M7.69 18.22v1.03" stroke-width="1"></path><path stroke="#000000" stroke-linecap="round" stroke-linejoin="round" d="M7.69 11v1.03" stroke-width="1"></path></g><g><path stroke="#000000" stroke-linecap="round" stroke-linejoin="round" d="M23.25 4.79V1.25h-3.54" stroke-width="1"></path><path stroke="#000000" stroke-linecap="round" stroke-linejoin="round" d="M23.25 1.25 20 4.5c-0.1835 0.18699 -0.4151 0.31959 -0.6692 0.38313 -0.2542 0.06353 -0.5209 0.05553 -0.7708 -0.02313l-3.67 -1c-0.2446 -0.06538 -0.5021 -0.06465 -0.7464 0.00212 -0.2442 0.06676 -0.4663 0.19716 -0.6436 0.37788L9.75 8" stroke-width="1"></path></g></svg>