<svg xmlns="http://www.w3.org/2000/svg" viewBox="0 0 24 24" id="Saving-Safe--Streamline-Ultimate"><desc>Saving Safe Streamline Icon: https://streamlinehq.com</desc><defs></defs><title>saving-safe</title><path d="M2.25 0.75h19.5s1.5 0 1.5 1.5v18s0 1.5 -1.5 1.5H2.25s-1.5 0 -1.5 -1.5v-18s0 -1.5 1.5 -1.5" fill="none" stroke="#000000" stroke-linecap="round" stroke-linejoin="round" stroke-width="1"></path><path d="M6.75 3.75h12s1.5 0 1.5 1.5v12s0 1.5 -1.5 1.5h-12s-1.5 0 -1.5 -1.5v-12s0 -1.5 1.5 -1.5" fill="none" stroke="#000000" stroke-linecap="round" stroke-linejoin="round" stroke-width="1"></path><path d="m3.75 21.75 0 1.5" fill="none" stroke="#000000" stroke-linecap="round" stroke-linejoin="round" stroke-width="1"></path><path d="m20.25 21.75 0 1.5" fill="none" stroke="#000000" stroke-linecap="round" stroke-linejoin="round" stroke-width="1"></path><path d="m3.75 8.25 3 0" fill="none" stroke="#000000" stroke-linecap="round" stroke-linejoin="round" stroke-width="1"></path><path d="m3.75 14.25 3 0" fill="none" stroke="#000000" stroke-linecap="round" stroke-linejoin="round" stroke-width="1"></path><path d="M10.05 11.25a2.7 2.7 0 1 0 5.4 0 2.7 2.7 0 1 0 -5.4 0" fill="none" stroke="#000000" stroke-linecap="round" stroke-linejoin="round" stroke-width="1"></path><path d="m12.75 8.55 0 -1.8" fill="none" stroke="#000000" stroke-linecap="round" stroke-linejoin="round" stroke-width="1"></path><path d="m12.75 15.75 0 -1.8" fill="none" stroke="#000000" stroke-linecap="round" stroke-linejoin="round" stroke-width="1"></path><path d="m15.45 11.25 1.8 0" fill="none" stroke="#000000" stroke-linecap="round" stroke-linejoin="round" stroke-width="1"></path><path d="m8.25 11.25 1.8 0" fill="none" stroke="#000000" stroke-linecap="round" stroke-linejoin="round" stroke-width="1"></path><path d="m9.986 14.432 1.075 -1.075" fill="none" stroke="#000000" stroke-linecap="round" stroke-linejoin="round" stroke-width="1"></path><path d="m9.986 8.068 1.075 1.075" fill="none" stroke="#000000" stroke-linecap="round" stroke-linejoin="round" stroke-width="1"></path><path d="m15.514 14.432 -1.075 -1.075" fill="none" stroke="#000000" stroke-linecap="round" stroke-linejoin="round" stroke-width="1"></path><path d="m15.514 8.068 -1.075 1.075" fill="none" stroke="#000000" stroke-linecap="round" stroke-linejoin="round" stroke-width="1"></path></svg>