<svg viewBox="0 0 24 24" xmlns="http://www.w3.org/2000/svg" id="Saving-Piggy-Coins-Alternate--Streamline-Ultimate"><desc>Saving Piggy Coins Alternate Streamline Icon: https://streamlinehq.com</desc><path d="M23.25 10.5a3 3 0 0 1 -3 3" fill="none" stroke="#000000" stroke-linecap="round" stroke-linejoin="round" stroke-width="1"></path><path d="M6 6.8a8.318 8.318 0 0 0 -3.4 4.45H0.75v6h2.49a8.467 8.467 0 0 0 2.01 2.372V22.5a0.75 0.75 0 0 0 0.75 0.75h1.5a0.75 0.75 0 0 0 0.75 -0.75v-1.241a9.512 9.512 0 0 0 6 0.011v1.23a0.75 0.75 0 0 0 0.75 0.75h1.5a0.75 0.75 0 0 0 0.75 -0.75v-2.863a7.941 7.941 0 0 0 3 -6.137 8.053 8.053 0 0 0 -3.757 -6.706" fill="none" stroke="#000000" stroke-linecap="round" stroke-linejoin="round" stroke-width="1"></path><path d="M8.25 7.5a6.763 6.763 0 0 1 6 0" fill="none" stroke="#000000" stroke-linecap="round" stroke-linejoin="round" stroke-width="1"></path><path d="M8.25 3.75a3 3 0 1 0 6 0 3 3 0 1 0 -6 0Z" fill="none" stroke="#000000" stroke-linecap="round" stroke-linejoin="round" stroke-width="1"></path></svg>