<svg viewBox="0 0 24 24" xmlns="http://www.w3.org/2000/svg" id="Saving-Money-Flower--Streamline-Ultimate"><desc>Saving Money Flower Streamline Icon: https://streamlinehq.com</desc><path d="m11.946 12.75 0 10.5" fill="none" stroke="#000000" stroke-linecap="round" stroke-linejoin="round" stroke-width="1"></path><path d="M11.946 23.25s-1.13 -3.091 -6.308 -6.386" fill="none" stroke="#000000" stroke-linecap="round" stroke-linejoin="round" stroke-width="1"></path><path d="M3.661 19c1.026 1.116 2.642 1.523 3.623 -0.564 2.427 -1.436 1.432 -3.254 0.053 -4.206a7.219 7.219 0 0 0 -6.523 0.1C2.47 15.935 2.385 17.609 3.661 19Z" fill="none" stroke="#000000" stroke-linecap="round" stroke-linejoin="round" stroke-width="1"></path><path d="M11.946 23.25s1.13 -3.091 6.309 -6.386" fill="none" stroke="#000000" stroke-linecap="round" stroke-linejoin="round" stroke-width="1"></path><path d="M20.231 19c-1.025 1.116 -2.642 1.523 -3.622 -0.564 -2.427 -1.438 -1.432 -3.255 -0.054 -4.207a7.222 7.222 0 0 1 6.524 0.1c-1.657 1.606 -1.571 3.28 -2.848 4.671Z" fill="none" stroke="#000000" stroke-linecap="round" stroke-linejoin="round" stroke-width="1"></path><path d="M13.446 3.75h-2.033a1.341 1.341 0 0 0 -0.5 2.587l2.063 0.826a1.342 1.342 0 0 1 -0.5 2.587h-2.03" fill="none" stroke="#000000" stroke-linecap="round" stroke-linejoin="round" stroke-width="1"></path><path d="m11.946 3.75 0 -0.75" fill="none" stroke="#000000" stroke-linecap="round" stroke-linejoin="round" stroke-width="1"></path><path d="m11.946 10.5 0 -0.75" fill="none" stroke="#000000" stroke-linecap="round" stroke-linejoin="round" stroke-width="1"></path><path d="M5.946 6.75a6 6 0 1 0 12 0 6 6 0 1 0 -12 0Z" fill="none" stroke="#000000" stroke-linecap="round" stroke-linejoin="round" stroke-width="1"></path></svg>