<svg xmlns="http://www.w3.org/2000/svg" fill="none" viewBox="0 0 24 24" id="Christmas-Snowman--Streamline-Ultimate"><desc>Christmas Snowman Streamline Icon: https://streamlinehq.com</desc><path stroke="#000000" stroke-linecap="round" stroke-linejoin="round" d="M11.993 9.75c2.4853 0 4.5 -2.01472 4.5 -4.5s-2.0147 -4.5 -4.5 -4.5c-2.48524 0 -4.49996 2.01472 -4.49996 4.5s2.01472 4.5 4.49996 4.5Z" stroke-width="1"></path><path stroke="#000000" stroke-linecap="round" stroke-linejoin="round" d="M11.993 23.25c3.728 0 6.75 -3.0221 6.75 -6.75s-3.022 -6.75 -6.75 -6.75c-3.72788 0 -6.74996 3.0221 -6.74996 6.75s3.02208 6.75 6.74996 6.75Z" stroke-width="1"></path><path stroke="#000000" stroke-linecap="round" stroke-linejoin="round" d="m17.496 12.591 5.754 -4.055" stroke-width="1"></path><path stroke="#000000" stroke-linecap="round" stroke-linejoin="round" d="M20.257 6.75v3.895" stroke-width="1"></path><path stroke="#000000" stroke-linecap="round" stroke-linejoin="round" d="M6.489 12.591 0.75 8.536" stroke-width="1"></path><path stroke="#000000" stroke-linecap="round" stroke-linejoin="round" d="M3.74304 6.75v3.901" stroke-width="1"></path><path stroke="#000000" d="M10.493 4.875c-0.2071 0 -0.375 -0.16789 -0.375 -0.375s0.1679 -0.375 0.375 -0.375" stroke-width="1"></path><path stroke="#000000" d="M10.493 4.875c0.2071 0 0.375 -0.16789 0.375 -0.375s-0.1679 -0.375 -0.375 -0.375" stroke-width="1"></path><path stroke="#000000" d="M13.493 4.875c-0.2071 0 -0.375 -0.16789 -0.375 -0.375s0.1679 -0.375 0.375 -0.375" stroke-width="1"></path><path stroke="#000000" d="M13.493 4.875c0.2071 0 0.375 -0.16789 0.375 -0.375s-0.1679 -0.375 -0.375 -0.375" stroke-width="1"></path><g><path stroke="#000000" d="M12 14.25c-0.2071 0 -0.375 -0.1679 -0.375 -0.375s0.1679 -0.375 0.375 -0.375" stroke-width="1"></path><path stroke="#000000" d="M12 14.25c0.2071 0 0.375 -0.1679 0.375 -0.375S12.2071 13.5 12 13.5" stroke-width="1"></path></g><g><path stroke="#000000" d="M12 18c-0.2071 0 -0.375 -0.1679 -0.375 -0.375s0.1679 -0.375 0.375 -0.375" stroke-width="1"></path><path stroke="#000000" d="M12 18c0.2071 0 0.375 -0.1679 0.375 -0.375s-0.1679 -0.375 -0.375 -0.375" stroke-width="1"></path></g></svg>