<svg viewBox="0 0 24 24" xmlns="http://www.w3.org/2000/svg" id="Christmas-Tree-Top--Streamline-Ultimate"><desc>Christmas Tree Top Streamline Icon: https://streamlinehq.com</desc><path d="m6.898 17.381 7.526 -3.763" fill="none" stroke="#000000" stroke-linecap="round" stroke-linejoin="round" stroke-width="1"></path><path d="m5.66 23.25 11.121 -5.56" fill="none" stroke="#000000" stroke-linecap="round" stroke-linejoin="round" stroke-width="1"></path><path d="M11.314 1.018a0.489 0.489 0 0 1 0.872 0L13.2 3.06a0.485 0.485 0 0 0 0.365 0.263l2.272 0.328a0.483 0.483 0 0 1 0.391 0.325 0.474 0.474 0 0 1 -0.121 0.489l-1.65 1.6a0.476 0.476 0 0 0 -0.138 0.421l0.389 2.255a0.475 0.475 0 0 1 -0.194 0.468 0.49 0.49 0 0 1 -0.514 0.034l-2.023 -1.058a0.486 0.486 0 0 0 -0.454 0L9.5 9.243a0.49 0.49 0 0 1 -0.511 -0.034 0.475 0.475 0 0 1 -0.194 -0.468l0.389 -2.255a0.476 0.476 0 0 0 -0.138 -0.421L7.4 4.465a0.474 0.474 0 0 1 -0.121 -0.489 0.483 0.483 0 0 1 0.39 -0.325l2.272 -0.328a0.485 0.485 0 0 0 0.359 -0.263Z" fill="none" stroke="#000000" stroke-linecap="round" stroke-linejoin="round" stroke-width="1"></path><path d="M10.013 12 3.5 23.25l16.5 0L13.487 12" fill="none" stroke="#000000" stroke-linecap="round" stroke-linejoin="round" stroke-width="1"></path></svg>