<svg viewBox="0 0 24 24" xmlns="http://www.w3.org/2000/svg" id="Christmas-Door-Wreath--Streamline-Ultimate"><desc>Christmas Door Wreath Streamline Icon: https://streamlinehq.com</desc><path d="M19.245 5.928a10.125 10.125 0 1 1 -14.854 0.664" fill="none" stroke="#000000" stroke-linecap="round" stroke-linejoin="round" stroke-width="1"></path><path d="M16.779 16.349a5.641 5.641 0 0 1 -9.308 0" fill="none" stroke="#000000" stroke-linecap="round" stroke-linejoin="round" stroke-width="1"></path><path d="M9.324 18.059a10.775 10.775 0 0 0 -3.254 3.183" fill="none" stroke="#000000" stroke-linecap="round" stroke-linejoin="round" stroke-width="1"></path><path d="M4.266 12.389a10.073 10.073 0 0 0 -2.247 0.117" fill="none" stroke="#000000" stroke-linecap="round" stroke-linejoin="round" stroke-width="1"></path><path d="M10.892 3.171 8.9 1.446A2.925 2.925 0 0 0 6.962 0.75h0a2.579 2.579 0 0 0 -2.71 2.426l0 2.68A2.587 2.587 0 0 0 7 8.253h0a2.923 2.923 0 0 0 1.927 -0.716l1.032 -0.921" fill="none" stroke="#000000" stroke-linecap="round" stroke-linejoin="round" stroke-width="1"></path><path d="M9.5 5.252a2.25 2.25 0 1 0 4.5 0 2.25 2.25 0 1 0 -4.5 0Z" fill="none" stroke="#000000" stroke-linecap="round" stroke-linejoin="round" stroke-width="1"></path><path d="M9.628 4.502 8 4.502" fill="none" stroke="#000000" stroke-linecap="round" stroke-linejoin="round" stroke-width="1"></path><path d="m13.872 4.502 1.628 0" fill="none" stroke="#000000" stroke-linecap="round" stroke-linejoin="round" stroke-width="1"></path><path d="m15.1 7.907 1.508 5.131a0.285 0.285 0 0 1 -0.385 0.343l-1.321 -0.557a0.287 0.287 0 0 0 -0.349 0.1l-0.687 1.031a0.286 0.286 0 0 1 -0.508 -0.068l-1.252 -3.767a0.286 0.286 0 0 0 -0.542 0l-1.257 3.771a0.286 0.286 0 0 1 -0.508 0.068l-0.687 -1.031a0.286 0.286 0 0 0 -0.348 -0.1l-1.321 0.557a0.285 0.285 0 0 1 -0.385 -0.343L8.61 7.781" fill="none" stroke="#000000" stroke-linecap="round" stroke-linejoin="round" stroke-width="1"></path><path d="m12.618 3.176 1.982 -1.73a2.925 2.925 0 0 1 1.935 -0.7h0a2.579 2.579 0 0 1 2.71 2.426l-0.005 2.68a2.587 2.587 0 0 1 -2.745 2.4h0a2.923 2.923 0 0 1 -1.927 -0.716l-1.032 -0.921" fill="none" stroke="#000000" stroke-linecap="round" stroke-linejoin="round" stroke-width="1"></path><path d="M14.927 18.059a10.775 10.775 0 0 1 3.254 3.183" fill="none" stroke="#000000" stroke-linecap="round" stroke-linejoin="round" stroke-width="1"></path><path d="M19.985 12.389a10.2 10.2 0 0 1 2.249 0.161" fill="none" stroke="#000000" stroke-linecap="round" stroke-linejoin="round" stroke-width="1"></path></svg>