<svg viewBox="0 0 24 24" xmlns="http://www.w3.org/2000/svg" id="Christmas-Sugar-Cane--Streamline-Ultimate"><desc>Christmas Sugar Cane Streamline Icon: https://streamlinehq.com</desc><path d="M16.5 16.308V21a2.25 2.25 0 0 1 -4.5 0v-4.692" fill="none" stroke="#000000" stroke-linecap="round" stroke-linejoin="round" stroke-width="1"></path><path d="M12 11.821V7.5a2.25 2.25 0 0 0 -4.5 0v0.75a2.25 2.25 0 0 1 -4.5 0V7.5a6.75 6.75 0 0 1 13.5 0v4.321" fill="none" stroke="#000000" stroke-linecap="round" stroke-linejoin="round" stroke-width="1"></path><path d="M8.16 5.91 4.98 2.73" fill="none" stroke="#000000" stroke-linecap="round" stroke-linejoin="round" stroke-width="1"></path><path d="m11.35 5.92 3.519 -2.815" fill="none" stroke="#000000" stroke-linecap="round" stroke-linejoin="round" stroke-width="1"></path><path d="m13.419 13 -1.466 -1.22a2.4 2.4 0 0 0 -1.534 -0.53h0a2.014 2.014 0 0 0 -2.169 1.808v2.009a2.013 2.013 0 0 0 2.169 1.808h0a2.4 2.4 0 0 0 1.534 -0.529l1.257 -1.016" fill="none" stroke="#000000" stroke-linecap="round" stroke-linejoin="round" stroke-width="1"></path><path d="M12.75 14.25a1.5 1.5 0 1 0 3 0 1.5 1.5 0 1 0 -3 0Z" fill="none" stroke="#000000" stroke-linecap="round" stroke-linejoin="round" stroke-width="1"></path><path d="m15.081 13 1.466 -1.221a2.4 2.4 0 0 1 1.534 -0.53h0a2.013 2.013 0 0 1 2.169 1.808v2.009a2.013 2.013 0 0 1 -2.169 1.808h0a2.4 2.4 0 0 1 -1.534 -0.53l-1.237 -1.032" fill="none" stroke="#000000" stroke-linecap="round" stroke-linejoin="round" stroke-width="1"></path></svg>