<svg viewBox="0 0 24 24" xmlns="http://www.w3.org/2000/svg" id="Christmas-Postcard--Streamline-Ultimate"><desc>Christmas Postcard Streamline Icon: https://streamlinehq.com</desc><path d="M19.5 12.88V2.25A1.5 1.5 0 0 0 18 0.75H6a1.5 1.5 0 0 0 -1.5 1.5v10.63" fill="none" stroke="#000000" stroke-linecap="round" stroke-linejoin="round" stroke-width="1"></path><path d="M21.284 11.465a0.75 0.75 0 0 1 1.216 0.587v9.7a1.5 1.5 0 0 1 -1.5 1.5H3a1.5 1.5 0 0 1 -1.5 -1.5v-9.7a0.75 0.75 0 0 1 1.216 -0.587l7.431 5.894a3 3 0 0 0 3.706 0Z" fill="none" stroke="#000000" stroke-linecap="round" stroke-linejoin="round" stroke-width="1"></path><path d="m15.808 15.808 2.942 2.942" fill="none" stroke="#000000" stroke-linecap="round" stroke-linejoin="round" stroke-width="1"></path><path d="M8.192 15.808 5.25 18.75" fill="none" stroke="#000000" stroke-linecap="round" stroke-linejoin="round" stroke-width="1"></path><path d="M12 3 8.25 7.5l2.25 0 -3 3.75 9 0 -3 -3.75 2.25 0L12 3z" fill="none" stroke="#000000" stroke-linecap="round" stroke-linejoin="round" stroke-width="1"></path><path d="m12 11.25 0 3" fill="none" stroke="#000000" stroke-linecap="round" stroke-linejoin="round" stroke-width="1"></path></svg>