<svg viewBox="0 0 24 24" xmlns="http://www.w3.org/2000/svg" id="Christmas-Lights--Streamline-Ultimate"><desc>Christmas Lights Streamline Icon: https://streamlinehq.com</desc><path d="M0.75 2.326a33.318 33.318 0 0 0 22.5 0" fill="none" stroke="#000000" stroke-linecap="round" stroke-linejoin="round" stroke-width="1"></path><path d="M5.694 9.589 2.782 9.22l0.185 -1.456a1.467 1.467 0 0 1 1.64 -1.271h0a1.467 1.467 0 0 1 1.271 1.64Z" fill="none" stroke="#000000" stroke-linecap="round" stroke-linejoin="round" stroke-width="1"></path><path d="M4.465 18.137c-0.5 0.485 -0.792 0.892 -1.436 0.811s-0.817 -0.542 -1.189 -1.148a7.043 7.043 0 0 1 0.829 -8.6h0l3.138 0.4h0a7.044 7.044 0 0 1 -1.342 8.537Z" fill="none" stroke="#000000" stroke-linecap="round" stroke-linejoin="round" stroke-width="1"></path><path d="M12.978 11.13h-2.935V9.663A1.467 1.467 0 0 1 11.511 8.2h0a1.467 1.467 0 0 1 1.467 1.467Z" fill="none" stroke="#000000" stroke-linecap="round" stroke-linejoin="round" stroke-width="1"></path><path d="M12.834 19.765c-0.44 0.545 -0.674 0.985 -1.323 0.985s-0.878 -0.434 -1.323 -0.985a7.042 7.042 0 0 1 -0.258 -8.635h3.162a7.044 7.044 0 0 1 -0.258 8.635Z" fill="none" stroke="#000000" stroke-linecap="round" stroke-linejoin="round" stroke-width="1"></path><path d="M17.392 9.589 20.3 9.22l-0.184 -1.456a1.467 1.467 0 0 0 -1.64 -1.271h0a1.468 1.468 0 0 0 -1.272 1.64Z" fill="none" stroke="#000000" stroke-linecap="round" stroke-linejoin="round" stroke-width="1"></path><path d="M18.62 18.137c0.506 0.485 0.793 0.892 1.437 0.811s0.816 -0.542 1.188 -1.144a7.043 7.043 0 0 0 -0.829 -8.6h0l-3.137 0.4h0a7.044 7.044 0 0 0 1.341 8.533Z" fill="none" stroke="#000000" stroke-linecap="round" stroke-linejoin="round" stroke-width="1"></path><path d="m11.511 8.196 0 -3.913" fill="none" stroke="#000000" stroke-linecap="round" stroke-linejoin="round" stroke-width="1"></path><path d="m4.607 6.493 0.395 -2.967" fill="none" stroke="#000000" stroke-linecap="round" stroke-linejoin="round" stroke-width="1"></path><path d="m18.479 6.493 -0.435 -2.775" fill="none" stroke="#000000" stroke-linecap="round" stroke-linejoin="round" stroke-width="1"></path></svg>