<svg viewBox="0 0 24 24" xmlns="http://www.w3.org/2000/svg" id="Christmas-Sled--Streamline-Ultimate"><desc>Christmas Sled Streamline Icon: https://streamlinehq.com</desc><path d="m6.75 16 -3 4.5" fill="none" stroke="#000000" stroke-linecap="round" stroke-linejoin="round" stroke-width="1"></path><path d="m15 16 2.25 4.5" fill="none" stroke="#000000" stroke-linecap="round" stroke-linejoin="round" stroke-width="1"></path><path d="m0.75 6.25 5.228 0.932a3 3 0 0 1 2.272 2.91V11.5a1.5 1.5 0 0 0 1.5 1.5h1.5a1.486 1.486 0 0 0 1.5 -1.481A1.5 1.5 0 0 1 14.25 10h5.25a0.75 0.75 0 0 1 0.75 0.75v3.75a1.5 1.5 0 0 1 -1.5 1.5H5.25a4.5 4.5 0 0 1 -4.5 -4.5V3.25" fill="none" stroke="#000000" stroke-linecap="round" stroke-linejoin="round" stroke-width="1"></path><path d="M0.75 20.5H21a2.245 2.245 0 0 0 2.123 -3" fill="none" stroke="#000000" stroke-linecap="round" stroke-linejoin="round" stroke-width="1"></path></svg>