<svg viewBox="0 0 24 24" xmlns="http://www.w3.org/2000/svg" id="Christmas-Angel--Streamline-Ultimate"><desc>Christmas Angel Streamline Icon: https://streamlinehq.com</desc><path d="M13 7.5a3.75 3.75 0 1 0 7.5 0 3.75 3.75 0 1 0 -7.5 0Z" fill="none" stroke="#000000" stroke-linecap="round" stroke-linejoin="round" stroke-width="1"></path><path d="M17.5 11.214c-0.44 4.4 -1.525 8.283 -3.959 11.547a0.99 0.99 0 0 1 -0.76 0.4c-6.009 0.2 -9.309 -4.131 -10.944 -7.826a0.987 0.987 0 0 1 0.648 -1.354c5.412 -1.45 7.707 -2.714 10.709 -5.291" fill="none" stroke="#000000" stroke-linecap="round" stroke-linejoin="round" stroke-width="1"></path><path d="M15.027 20.386c-5.3 -0.062 -8.4 -3.713 -10.074 -7.114" fill="none" stroke="#000000" stroke-linecap="round" stroke-linejoin="round" stroke-width="1"></path><path d="M5.31 10.055a5.973 5.973 0 0 1 -1.07 -0.85A6.179 6.179 0 0 1 3.917 0.932a0.5 0.5 0 0 1 0.794 0.037 26.149 26.149 0 0 0 8.481 7.718" fill="none" stroke="#000000" stroke-linecap="round" stroke-linejoin="round" stroke-width="1"></path><path d="M14.538 4.472C12.744 4.161 11.5 3.485 11.5 2.7c0 -1.076 2.351 -1.95 5.25 -1.95S22 1.624 22 2.7c0 0.784 -1.244 1.46 -3.038 1.771" fill="none" stroke="#000000" stroke-linecap="round" stroke-linejoin="round" stroke-width="1"></path></svg>