<svg viewBox="0 0 24 24" xmlns="http://www.w3.org/2000/svg" id="Christmas-Bells-1--Streamline-Ultimate"><desc>Christmas Bells 1 Streamline Icon: https://streamlinehq.com</desc><path d="M8.762 8.873a4.582 4.582 0 0 0 -4.057 2.661l-1.211 2.739a2.7 2.7 0 0 1 -1.729 1.577 1.345 1.345 0 0 0 -0.9 0.751 1.43 1.43 0 0 0 0.785 1.854l8.948 3.955a1.429 1.429 0 0 0 1.9 -0.667 1.343 1.343 0 0 0 -0.053 -1.175 2.7 2.7 0 0 1 0 -2.34l1.124 -2.542A4.85 4.85 0 0 0 11.6 9.6" fill="none" stroke="#000000" stroke-linecap="round" stroke-linejoin="round" stroke-width="1"></path><path d="M7.376 20.988a1.974 1.974 0 1 1 -3.054 -1.349" fill="none" stroke="#000000" stroke-linecap="round" stroke-linejoin="round" stroke-width="1"></path><path d="m15.673 20.8 6.64 -2.569a1.466 1.466 0 0 0 -0.054 -2.755 2.955 2.955 0 0 1 -1.7 -1.785l-1.068 -2.759a5.3 5.3 0 0 0 -2.414 -2.761" fill="none" stroke="#000000" stroke-linecap="round" stroke-linejoin="round" stroke-width="1"></path><path d="M19.748 19.223a1.962 1.962 0 1 1 -3.419 1.323" fill="none" stroke="#000000" stroke-linecap="round" stroke-linejoin="round" stroke-width="1"></path><path d="M12 8.25a2.25 2.25 0 1 0 4.5 0 2.25 2.25 0 1 0 -4.5 0Z" fill="none" stroke="#000000" stroke-linecap="round" stroke-linejoin="round" stroke-width="1"></path><path d="M12.241 9.262a2.573 2.573 0 0 1 -1.384 0.484 2.526 2.526 0 0 1 -2.272 -1.114 2.147 2.147 0 0 1 0.888 -3.076 2.618 2.618 0 0 1 3.166 0.546c0.039 0.045 0.231 0.3 0.266 0.345" fill="none" stroke="#000000" stroke-linecap="round" stroke-linejoin="round" stroke-width="1"></path><path d="M8.585 8.632 4.5 7.5l0 -2.25L3 3.79 3 0.75l3.853 0 1.397 1.5 2.4 0.009 0.727 3.075" fill="none" stroke="#000000" stroke-linecap="round" stroke-linejoin="round" stroke-width="1"></path><path d="M8.939 5.939 7.5 4.5" fill="none" stroke="#000000" stroke-linecap="round" stroke-linejoin="round" stroke-width="1"></path><path d="M16.499 8.33 19.5 7.5l0 -2.25L21 3.79l0 -3.04 -3.853 0 -1.397 1.5 -2.4 0.009 -0.87 3.677" fill="none" stroke="#000000" stroke-linecap="round" stroke-linejoin="round" stroke-width="1"></path><path d="M15.595 6.446 17.25 4.5" fill="none" stroke="#000000" stroke-linecap="round" stroke-linejoin="round" stroke-width="1"></path></svg>