<svg viewBox="0 0 24 24" xmlns="http://www.w3.org/2000/svg" id="Christmas-Flower--Streamline-Ultimate"><desc>Christmas Flower Streamline Icon: https://streamlinehq.com</desc><path d="M9.75 11.77a2.25 2.23 0 1 0 4.5 0 2.25 2.23 0 1 0 -4.5 0Z" fill="none" stroke="#000000" stroke-linecap="round" stroke-linejoin="round" stroke-width="1"></path><path d="M9.912 12.6a4.975 4.975 0 0 0 -2.256 1.3 5.935 5.935 0 0 0 -1.326 3.885 0.5 0.5 0 0 0 0.537 0.5 6.043 6.043 0 0 0 3.825 -1.577A5.149 5.149 0 0 0 11.915 14" fill="none" stroke="#000000" stroke-linecap="round" stroke-linejoin="round" stroke-width="1"></path><path d="M10.615 10.012a4.949 4.949 0 0 0 -1.97 -1.675 6.082 6.082 0 0 0 -4.135 0.237 0.494 0.494 0 0 0 -0.264 0.688 6 6 0 0 0 2.912 2.916 5.064 5.064 0 0 0 2.67 0.174" fill="none" stroke="#000000" stroke-linecap="round" stroke-linejoin="round" stroke-width="1"></path><path d="M4.886 10.338a8.7 8.7 0 0 0 -4.061 3.586 0.5 0.5 0 0 0 0.19 0.7 8.531 8.531 0 0 0 5.642 1.038" fill="none" stroke="#000000" stroke-linecap="round" stroke-linejoin="round" stroke-width="1"></path><path d="M10.514 4.674a9.084 9.084 0 0 0 -4.257 -2.652 0.493 0.493 0 0 0 -0.622 0.356 8.382 8.382 0 0 0 0.351 5.616" fill="none" stroke="#000000" stroke-linecap="round" stroke-linejoin="round" stroke-width="1"></path><path d="M13.367 10a5.266 5.266 0 0 0 0.933 -2.76 6.791 6.791 0 0 0 -1.927 -4.048 0.5 0.5 0 0 0 -0.744 0A6.791 6.791 0 0 0 9.7 7.24a5.3 5.3 0 0 0 0.914 2.772" fill="none" stroke="#000000" stroke-linecap="round" stroke-linejoin="round" stroke-width="1"></path><path d="M14.088 12.6a4.975 4.975 0 0 1 2.256 1.3 5.935 5.935 0 0 1 1.326 3.888 0.5 0.5 0 0 1 -0.537 0.5 6.043 6.043 0 0 1 -3.825 -1.577A5.149 5.149 0 0 1 12.085 14" fill="none" stroke="#000000" stroke-linecap="round" stroke-linejoin="round" stroke-width="1"></path><path d="M13.367 10a4.976 4.976 0 0 1 1.988 -1.662 6.082 6.082 0 0 1 4.135 0.237 0.494 0.494 0 0 1 0.264 0.688 6 6 0 0 1 -2.912 2.916 5.064 5.064 0 0 1 -2.67 0.174" fill="none" stroke="#000000" stroke-linecap="round" stroke-linejoin="round" stroke-width="1"></path><path d="M19.084 10.353a8.779 8.779 0 0 1 4.091 3.571 0.5 0.5 0 0 1 -0.19 0.7 8.531 8.531 0 0 1 -5.642 1.038" fill="none" stroke="#000000" stroke-linecap="round" stroke-linejoin="round" stroke-width="1"></path><path d="M13.486 4.674a9.084 9.084 0 0 1 4.257 -2.652 0.493 0.493 0 0 1 0.622 0.356 8.922 8.922 0 0 1 -0.412 5.772" fill="none" stroke="#000000" stroke-linecap="round" stroke-linejoin="round" stroke-width="1"></path><path d="M14.716 17.691a6.971 6.971 0 0 1 -2.4 4.057 0.484 0.484 0 0 1 -0.64 0 6.971 6.971 0 0 1 -2.4 -4.057" fill="none" stroke="#000000" stroke-linecap="round" stroke-linejoin="round" stroke-width="1"></path></svg>