<svg viewBox="0 0 24 24" xmlns="http://www.w3.org/2000/svg" id="Christmas-Postcard-Envelope--Streamline-Ultimate"><desc>Christmas Postcard Envelope Streamline Icon: https://streamlinehq.com</desc><path d="M19.5 12.88V2.25A1.5 1.5 0 0 0 18 0.75H6a1.5 1.5 0 0 0 -1.5 1.5v10.63" fill="none" stroke="#000000" stroke-linecap="round" stroke-linejoin="round" stroke-width="1"></path><path d="M21.284 11.465a0.75 0.75 0 0 1 1.216 0.587v9.7a1.5 1.5 0 0 1 -1.5 1.5H3a1.5 1.5 0 0 1 -1.5 -1.5v-9.7a0.75 0.75 0 0 1 1.216 -0.587l7.431 5.894a3 3 0 0 0 3.706 0Z" fill="none" stroke="#000000" stroke-linecap="round" stroke-linejoin="round" stroke-width="1"></path><path d="m15.808 15.808 2.942 2.942" fill="none" stroke="#000000" stroke-linecap="round" stroke-linejoin="round" stroke-width="1"></path><path d="M8.192 15.808 5.25 18.75" fill="none" stroke="#000000" stroke-linecap="round" stroke-linejoin="round" stroke-width="1"></path><path d="M10.312 4.875 12 6l1.687 -1.125" fill="none" stroke="#000000" stroke-linecap="round" stroke-linejoin="round" stroke-width="1"></path><path d="m12 12.75 0 -9" fill="none" stroke="#000000" stroke-linecap="round" stroke-linejoin="round" stroke-width="1"></path><path d="M10.312 11.625 12 10.5l1.687 1.125" fill="none" stroke="#000000" stroke-linecap="round" stroke-linejoin="round" stroke-width="1"></path><path d="M15.375 6.563 14.25 8.25l1.125 1.688" fill="none" stroke="#000000" stroke-linecap="round" stroke-linejoin="round" stroke-width="1"></path><path d="m7.5 8.25 9 0" fill="none" stroke="#000000" stroke-linecap="round" stroke-linejoin="round" stroke-width="1"></path><path d="M8.625 6.563 9.75 8.25 8.625 9.938" fill="none" stroke="#000000" stroke-linecap="round" stroke-linejoin="round" stroke-width="1"></path></svg>