<svg viewBox="0 0 24 24" xmlns="http://www.w3.org/2000/svg" id="Underwear-Female-Set--Streamline-Ultimate"><desc>Underwear Female Set Streamline Icon: https://streamlinehq.com</desc><path d="m3.751 4.669 0 -3.919" fill="none" stroke="#000000" stroke-linecap="round" stroke-linejoin="round" stroke-width="1"></path><path d="M5.618 4.057a1.306 1.306 0 0 0 -1.427 0.18c-2.4 2.062 -2.254 6.32 -0.621 7.953 1.48 1.481 5.65 0.811 7.381 -1.278a1.307 1.307 0 0 0 0.2 -1.335 10.964 10.964 0 0 0 -5.533 -5.52Z" fill="none" stroke="#000000" stroke-linecap="round" stroke-linejoin="round" stroke-width="1"></path><path d="M3.877 4.533a6.949 6.949 0 0 0 2.3 4.4 7.117 7.117 0 0 0 4.46 2.32" fill="none" stroke="#000000" stroke-linecap="round" stroke-linejoin="round" stroke-width="1"></path><path d="m20.251 4.669 0 -3.919" fill="none" stroke="#000000" stroke-linecap="round" stroke-linejoin="round" stroke-width="1"></path><path d="M18.384 4.057a1.306 1.306 0 0 1 1.427 0.18c2.405 2.062 2.254 6.32 0.621 7.953 -1.481 1.481 -5.65 0.811 -7.381 -1.278a1.3 1.3 0 0 1 -0.2 -1.335 10.956 10.956 0 0 1 5.533 -5.52Z" fill="none" stroke="#000000" stroke-linecap="round" stroke-linejoin="round" stroke-width="1"></path><path d="M20.124 4.533a6.944 6.944 0 0 1 -2.3 4.4 7.117 7.117 0 0 1 -4.46 2.32" fill="none" stroke="#000000" stroke-linecap="round" stroke-linejoin="round" stroke-width="1"></path><path d="m11.181 10.5 1.639 0" fill="none" stroke="#000000" stroke-linecap="round" stroke-linejoin="round" stroke-width="1"></path><path d="M2.249 16.5A42.173 42.173 0 0 0 12 18a42.146 42.146 0 0 0 9.75 -1.5" fill="none" stroke="#000000" stroke-linecap="round" stroke-linejoin="round" stroke-width="1"></path><path d="m17.9 17.378 -3.649 5.872 -4.5 0L6.1 17.378" fill="none" stroke="#000000" stroke-linecap="round" stroke-linejoin="round" stroke-width="1"></path></svg>