<svg xmlns="http://www.w3.org/2000/svg" viewBox="0 0 24 24" id="Underwear-Bikini--Streamline-Ultimate"><desc>Underwear Bikini Streamline Icon: https://streamlinehq.com</desc><g><g><path d="M12 9c-2.25 2.25 -5.35 2.48 -8.25 1.09a6.34 6.34 0 0 1 0 -4.5A8.37 8.37 0 0 1 12 6Z" fill="none" stroke="#000000" stroke-linecap="round" stroke-linejoin="round" stroke-width="1"></path><path d="M9.3 4.9 6.75 0.75" fill="none" stroke="#000000" stroke-linecap="round" stroke-linejoin="round" stroke-width="1"></path><path d="M12 9c2.25 2.25 5.35 2.48 8.25 1.09a6.34 6.34 0 0 0 0 -4.5A8.37 8.37 0 0 0 12 6Z" fill="none" stroke="#000000" stroke-linecap="round" stroke-linejoin="round" stroke-width="1"></path><path d="M14.7 4.9 17.25 0.75" fill="none" stroke="#000000" stroke-linecap="round" stroke-linejoin="round" stroke-width="1"></path></g><path d="M19 20.26c0.47 -1.51 0.36 -4.9 -1 -6H6c-1.39 1.11 -1.5 4.5 -1 6a3.75 3.75 0 0 1 4 3h6.15a3.78 3.78 0 0 1 3.85 -3Z" fill="none" stroke="#000000" stroke-linecap="round" stroke-linejoin="round" stroke-width="1"></path></g></svg>