<svg viewBox="0 0 24 24" xmlns="http://www.w3.org/2000/svg" id="Underwear-Bra-Lace--Streamline-Ultimate"><desc>Underwear Bra Lace Streamline Icon: https://streamlinehq.com</desc><path d="m2.25 11.767 0 -8.85" fill="none" stroke="#000000" stroke-linecap="round" stroke-linejoin="round" stroke-width="1"></path><path d="M4.605 10.814a1.5 1.5 0 0 0 -1.641 0.207C0.2 13.393 0.372 18.288 2.25 20.167c1.7 1.7 6.5 0.931 8.487 -1.47a1.5 1.5 0 0 0 0.23 -1.536 12.611 12.611 0 0 0 -6.362 -6.347Z" fill="none" stroke="#000000" stroke-linecap="round" stroke-linejoin="round" stroke-width="1"></path><path d="m21.75 11.767 0 -8.85" fill="none" stroke="#000000" stroke-linecap="round" stroke-linejoin="round" stroke-width="1"></path><path d="M19.4 10.814a1.5 1.5 0 0 1 1.641 0.207c2.765 2.372 2.592 7.267 0.714 9.146 -1.7 1.7 -6.5 0.931 -8.487 -1.47a1.5 1.5 0 0 1 -0.23 -1.536 12.611 12.611 0 0 1 6.362 -6.347Z" fill="none" stroke="#000000" stroke-linecap="round" stroke-linejoin="round" stroke-width="1"></path></svg>