<svg viewBox="0 0 24 24" xmlns="http://www.w3.org/2000/svg" id="Underwear-Corset-1--Streamline-Ultimate"><desc>Underwear Corset 1 Streamline Icon: https://streamlinehq.com</desc><path d="M12 23.25c5.25 0 10.5 -3 10.5 -3 0 -3.75 -3 -4.5 -3 -6.75s3.75 -4.125 3.75 -7.125A5.694 5.694 0 0 0 17.625 0.75C14.518 0.75 12 3 12 5.25 12 3 9.482 0.75 6.375 0.75A5.694 5.694 0 0 0 0.75 6.375c0 3 3.75 4.875 3.75 7.125s-3 3 -3 6.75c0 0 5.25 3 10.5 3Z" fill="none" stroke="#000000" stroke-linecap="round" stroke-linejoin="round" stroke-width="1"></path><path d="M22.706 8.357c-0.841 -0.924 -1.837 -2.577 -3.956 -3.107 -2.6 -0.649 -6.1 4.058 -6.75 4.5 -0.653 -0.442 -4.154 -5.149 -6.75 -4.5 -2.12 0.53 -3.115 2.183 -3.956 3.107" fill="none" stroke="#000000" stroke-linecap="round" stroke-linejoin="round" stroke-width="1"></path><path d="m12 9.75 0 13.5" fill="none" stroke="#000000" stroke-linecap="round" stroke-linejoin="round" stroke-width="1"></path></svg>