<svg xmlns="http://www.w3.org/2000/svg" viewBox="0 0 24 24" id="Common-File-Rotate--Streamline-Ultimate"><desc>Common File Rotate Streamline Icon: https://streamlinehq.com</desc><defs></defs><title>common-file-rotate</title><path d="m17.857 1.099 -2.78 1.523 1.316 2.87" fill="none" stroke="#000000" stroke-linecap="round" stroke-linejoin="round" stroke-width="1"></path><path d="M22.25 7.688a6.565 6.565 0 0 0 -1.506 -2.377 6.741 6.741 0 0 0 -5.307 -1.9" fill="none" stroke="#000000" stroke-linecap="round" stroke-linejoin="round" stroke-width="1"></path><path d="m6.292 22.982 2.779 -1.523 -1.315 -2.87" fill="none" stroke="#000000" stroke-linecap="round" stroke-linejoin="round" stroke-width="1"></path><path d="M1.9 16.393a6.562 6.562 0 0 0 1.5 2.377 6.77 6.77 0 0 0 5.313 1.917" fill="none" stroke="#000000" stroke-linecap="round" stroke-linejoin="round" stroke-width="1"></path><path d="M2.75 1.018h6.786s1 0 1 1v9.714s0 1 -1 1H2.75s-1 0 -1 -1V2.018s0 -1 1 -1" fill="none" stroke="#000000" stroke-linecap="round" stroke-linejoin="round" stroke-width="1"></path><path d="M14.464 11.223h6.786s1 0 1 1v9.759s0 1 -1 1h-6.786s-1 0 -1 -1v-9.759s0 -1 1 -1" fill="none" stroke="#000000" stroke-linecap="round" stroke-linejoin="round" stroke-width="1"></path></svg>