<svg viewBox="0 0 24 24" xmlns="http://www.w3.org/2000/svg" id="Common-File-Stack--Streamline-Ultimate"><desc>Common File Stack Streamline Icon: https://streamlinehq.com</desc><path d="M17.25 23.25H3.75a1.5 1.5 0 0 1 -1.5 -1.5V5.25" fill="none" stroke="#000000" stroke-linecap="round" stroke-linejoin="round" stroke-width="1"></path><path d="M20.25 20.25H6.75a1.5 1.5 0 0 1 -1.5 -1.5V2.25" fill="none" stroke="#000000" stroke-linecap="round" stroke-linejoin="round" stroke-width="1"></path><path d="M21.75 15.75a1.5 1.5 0 0 1 -1.5 1.5H9.75a1.5 1.5 0 0 1 -1.5 -1.5V2.25a1.5 1.5 0 0 1 1.5 -1.5h7.629a1.5 1.5 0 0 1 1.06 0.439l2.872 2.872a1.5 1.5 0 0 1 0.439 1.06Z" fill="none" stroke="#000000" stroke-linecap="round" stroke-linejoin="round" stroke-width="1"></path></svg>