<svg viewBox="0 0 24 24" xmlns="http://www.w3.org/2000/svg" id="Common-File-Award--Streamline-Ultimate"><desc>Common File Award Streamline Icon: https://streamlinehq.com</desc><path d="m14.96 17.22 -0.633 5.241a0.666 0.666 0 0 0 1.127 0.591l1.823 -1.822 1.823 1.822a0.667 0.667 0 0 0 1.128 -0.591l-0.641 -5.277" fill="none" stroke="#000000" stroke-linecap="round" stroke-linejoin="round" stroke-width="1"></path><path d="M13.5 14.25a3.75 3.75 0 1 0 7.5 0 3.75 3.75 0 1 0 -7.5 0Z" fill="none" stroke="#000000" stroke-linecap="round" stroke-linejoin="round" stroke-width="1"></path><path d="M10.5 20.25h-6a1.5 1.5 0 0 1 -1.5 -1.5V2.25A1.5 1.5 0 0 1 4.5 0.75h10.629a1.5 1.5 0 0 1 1.06 0.439l2.872 2.872a1.5 1.5 0 0 1 0.439 1.06V8.25" fill="none" stroke="#000000" stroke-linecap="round" stroke-linejoin="round" stroke-width="1"></path></svg>