<svg xmlns="http://www.w3.org/2000/svg" fill="none" viewBox="0 0 24 24" id="Common-File-Lock--Streamline-Ultimate"><desc>Common File Lock Streamline Icon: https://streamlinehq.com</desc><path stroke="#000000" stroke-linecap="round" stroke-linejoin="round" d="M22.25 15.75h-7c-0.5523 0 -1 0.4477 -1 1v5.5c0 0.5523 0.4477 1 1 1h7c0.5523 0 1 -0.4477 1 -1v-5.5c0 -0.5523 -0.4477 -1 -1 -1Z" stroke-width="1"></path><path stroke="#000000" stroke-linecap="round" stroke-linejoin="round" d="M18.75 11.25c-0.7956 0 -1.5587 0.3161 -2.1213 0.8787 -0.5626 0.5626 -0.8787 1.3257 -0.8787 2.1213v1.5h6v-1.5c0 -0.7956 -0.3161 -1.5587 -0.8787 -2.1213 -0.5626 -0.5626 -1.3257 -0.8787 -2.1213 -0.8787Z" stroke-width="1"></path><path stroke="#000000" d="M18.75 19.904c-0.2071 0 -0.375 -0.1679 -0.375 -0.375s0.1679 -0.375 0.375 -0.375" stroke-width="1"></path><path stroke="#000000" d="M18.75 19.904c0.2071 0 0.375 -0.1679 0.375 -0.375s-0.1679 -0.375 -0.375 -0.375" stroke-width="1"></path><path stroke="#000000" stroke-linecap="round" stroke-linejoin="round" d="M9.75 20.25h-7.5c-0.39782 0 -0.77936 -0.158 -1.06066 -0.4393C0.908035 19.5294 0.75 19.1478 0.75 18.75V2.25c0 -0.39782 0.158035 -0.77936 0.43934 -1.06066C1.47064 0.908035 1.85218 0.75 2.25 0.75h10.629c0.3975 0.000085 0.7788 0.157982 1.06 0.439l2.872 2.872c0.281 0.2812 0.4389 0.66245 0.439 1.06V6.75" stroke-width="1"></path></svg>