<svg viewBox="0 0 24 24" xmlns="http://www.w3.org/2000/svg" id="Common-File-Heart-1--Streamline-Ultimate"><desc>Common File Heart 1 Streamline Icon: https://streamlinehq.com</desc><path d="M22.477 21.75a1.5 1.5 0 0 1 -1.5 1.5H3.023a1.5 1.5 0 0 1 -1.5 -1.5V2.25a1.5 1.5 0 0 1 1.5 -1.5h15a1.5 1.5 0 0 1 1.047 0.426l2.955 2.883a1.5 1.5 0 0 1 0.452 1.074Z" fill="none" stroke="#000000" stroke-linecap="round" stroke-linejoin="round" stroke-width="1"></path><path d="m12.023 18.75 -5.114 -5.335a3.025 3.025 0 0 1 -0.567 -3.492h0a3.026 3.026 0 0 1 4.846 -0.786l0.835 0.835 0.835 -0.835a3.025 3.025 0 0 1 4.845 0.786h0a3.025 3.025 0 0 1 -0.567 3.492Z" fill="none" stroke="#000000" stroke-linecap="round" stroke-linejoin="round" stroke-width="1"></path></svg>