<svg viewBox="0 0 24 24" xmlns="http://www.w3.org/2000/svg" id="Common-File-Give-Hand-2--Streamline-Ultimate"><desc>Common File Give Hand 2 Streamline Icon: https://streamlinehq.com</desc><path d="m0.75 14.25 0 9" fill="none" stroke="#000000" stroke-linecap="round" stroke-linejoin="round" stroke-width="1"></path><path d="M0.75 21.75h15a3 3 0 0 0 -3 -3H9a3 3 0 0 0 -3 -3H0.75" fill="none" stroke="#000000" stroke-linecap="round" stroke-linejoin="round" stroke-width="1"></path><path d="m6 18.75 3 0" fill="none" stroke="#000000" stroke-linecap="round" stroke-linejoin="round" stroke-width="1"></path><path d="M6.75 12V2.25a1.5 1.5 0 0 1 1.5 -1.5h10.629a1.5 1.5 0 0 1 1.06 0.439l2.872 2.872a1.5 1.5 0 0 1 0.439 1.06V18.75a1.5 1.5 0 0 1 -1.5 1.5H19.5" fill="none" stroke="#000000" stroke-linecap="round" stroke-linejoin="round" stroke-width="1"></path></svg>