<svg viewBox="0 0 24 24" xmlns="http://www.w3.org/2000/svg" id="Common-File-Text-Star--Streamline-Ultimate"><desc>Common File Text Star Streamline Icon: https://streamlinehq.com</desc><path d="M17.947 11.68 19.488 15h3a0.735 0.735 0 0 1 0.518 1.283l-2.6 2.563 1.442 3.313a0.786 0.786 0 0 1 -1.119 0.982l-3.489 -1.958 -3.487 1.961a0.786 0.786 0 0 1 -1.119 -0.982l1.443 -3.313 -2.6 -2.563A0.734 0.734 0 0 1 11.988 15h3l1.544 -3.323a0.8 0.8 0 0 1 1.415 0.003Z" fill="none" stroke="#000000" stroke-linecap="round" stroke-linejoin="round" stroke-width="1"></path><path d="m3.75 6.75 10.5 0" fill="none" stroke="#000000" stroke-linecap="round" stroke-linejoin="round" stroke-width="1"></path><path d="m3.75 11.25 7.5 0" fill="none" stroke="#000000" stroke-linecap="round" stroke-linejoin="round" stroke-width="1"></path><path d="m3.75 15.75 3.75 0" fill="none" stroke="#000000" stroke-linecap="round" stroke-linejoin="round" stroke-width="1"></path><path d="M7.5 20.25H2.25a1.5 1.5 0 0 1 -1.5 -1.5V2.25a1.5 1.5 0 0 1 1.5 -1.5h10.629a1.5 1.5 0 0 1 1.06 0.439l2.872 2.872a1.5 1.5 0 0 1 0.439 1.06V7.5" fill="none" stroke="#000000" stroke-linecap="round" stroke-linejoin="round" stroke-width="1"></path></svg>