<svg xmlns="http://www.w3.org/2000/svg" fill="none" viewBox="0 0 24 24" id="Copy-Files--Streamline-Ultimate"><desc>Copy Files Streamline Icon: https://streamlinehq.com</desc><path stroke="#000000" stroke-linecap="round" stroke-linejoin="round" d="m2.16193 3.64779 0 -1.6406c0 -0.55229 0.44771 -1 1 -1h1.18086M2.16193 8.27664l0 3.30086M7.49192 1.00719l2.08678 0M2.16193 16.0546l0 1.6861c0 0.5523 0.44771 1 1 1l1.40851 0M12.8796 1.00719l1.1317 0c0.3513 0 0.6769 0.18436 0.8576 0.48566l0.9026 1.50494" stroke-width="1"></path><path stroke="#000000" stroke-linecap="round" stroke-linejoin="round" d="M8.76617 22.993H19.8381c1.1045 0 2 -0.8955 2 -2V9.80866c-0.0001 -0.34644 -0.1377 -0.67869 -0.3826 -0.92375l-2.5028 -2.50283c-0.2451 -0.24489 -0.5773 -0.38249 -0.9238 -0.38257H8.76617c-0.34668 0 -0.67917 0.13772 -0.92432 0.38287 -0.24514 0.24514 -0.38287 0.57763 -0.38287 0.92432v14.3791c0 0.3467 0.13773 0.6792 0.38287 0.9243 0.24515 0.2452 0.57764 0.3829 0.92432 0.3829Z" stroke-width="1"></path></svg>