<svg xmlns="http://www.w3.org/2000/svg" fill="none" viewBox="0 0 24 24" id="Copy-2--Streamline-Ultimate"><desc>Copy 2 Streamline Icon: https://streamlinehq.com</desc><path stroke="#000000" stroke-linecap="round" stroke-linejoin="round" d="m18.7266 2.79827 0 -0.86677c0 -0.55228 -0.4478 -0.999997 -1 -0.999997l-15.73357 0c-0.55229 0 -1.000003 0.447717 -1.000003 0.999997l0 15.7335c0 0.5523 0.447713 1 1.000003 1l0.86676 0" stroke-width="1"></path><path stroke="#000000" stroke-linecap="round" stroke-linejoin="round" d="M23.0078 22.0684c0 0.5522 -0.4477 1 -1 1l-14.73046 0c-0.55228 0 -1 -0.4478 -1 -1l0 -14.73051c0 -0.55228 0.44772 -1 1 -1l14.73046 0c0.5523 0 1 0.44772 1 1l0 14.73051Z" stroke-width="1"></path><path stroke="#000000" stroke-linecap="round" stroke-linejoin="round" d="M14.6426 18.8741v-8.3418" stroke-width="1"></path><path stroke="#000000" stroke-linecap="round" stroke-linejoin="round" d="m10.4726 14.7031 8.3417 0" stroke-width="1"></path></svg>