<svg xmlns="http://www.w3.org/2000/svg" fill="none" viewBox="0 0 24 24" id="File-Diff--Streamline-Ultimate"><desc>File Diff Streamline Icon: https://streamlinehq.com</desc><path stroke="#000000" stroke-linecap="round" stroke-linejoin="round" d="M22.5 21.75c0 0.3978 -0.158 0.7794 -0.4393 1.0607S21.3978 23.25 21 23.25H3c-0.39782 0 -0.77936 -0.158 -1.06066 -0.4393C1.65804 22.5294 1.5 22.1478 1.5 21.75V2.25c0 -0.39782 0.15804 -0.77936 0.43934 -1.06066C2.22064 0.908035 2.60218 0.75 3 0.75h15c0.3912 0.000039 0.7669 0.152905 1.047 0.426l3 2.883c0.1434 0.13973 0.2573 0.30675 0.3351 0.4912 0.0778 0.18445 0.1179 0.38261 0.1179 0.5828V21.75Z" stroke-width="1"></path><path stroke="#000000" stroke-linecap="round" stroke-linejoin="round" d="m16 18.25 -8 0" stroke-width="1"></path><path stroke="#000000" stroke-linecap="round" stroke-linejoin="round" d="m16 9.75 -8 0" stroke-width="1"></path><path stroke="#000000" stroke-linecap="round" stroke-linejoin="round" d="m12 13.75 0 -8" stroke-width="1"></path></svg>