<svg xmlns="http://www.w3.org/2000/svg" fill="none" viewBox="0 0 24 24" id="File-Move--Streamline-Ultimate"><desc>File Move Streamline Icon: https://streamlinehq.com</desc><path stroke="#000000" stroke-linecap="round" stroke-linejoin="round" d="M12.75 17.25c0 -3.3137 -2.6863 -6 -6 -6 -3.31371 0 -6 2.6863 -6 6s2.68629 6 6 6c3.3137 0 6 -2.6863 6 -6Z" stroke-width="1"></path><path stroke="#000000" stroke-linecap="round" stroke-linejoin="round" d="m3.75 17.25 6 0" stroke-width="1"></path><path stroke="#000000" stroke-linecap="round" stroke-linejoin="round" d="M9.75 17.25 7.5 19.5" stroke-width="1"></path><path stroke="#000000" stroke-linecap="round" stroke-linejoin="round" d="M9.75 17.25 7.5 15" stroke-width="1"></path><path stroke="#000000" stroke-linecap="round" stroke-linejoin="round" d="M6.75 8.17188V2.25c0 -0.39782 0.15804 -0.77936 0.43934 -1.06066C7.47064 0.908035 7.85218 0.75 8.25 0.75h10.629c0.3975 0.000085 0.7788 0.157982 1.06 0.439l2.872 2.872c0.281 0.2812 0.4389 0.66245 0.439 1.06V18.75c0 0.8284 -0.6716 1.5 -1.5 1.5h-6" stroke-width="1"></path></svg>