<svg xmlns="http://www.w3.org/2000/svg" viewBox="0 0 24 24" id="Button-Rewind-1--Streamline-Ultimate"><desc>Button Rewind 1 Streamline Icon: https://streamlinehq.com</desc><g><path d="M0.75 12a11.25 11.25 0 1 0 22.5 0 11.25 11.25 0 1 0 -22.5 0" fill="none" stroke="#000000" stroke-linecap="round" stroke-linejoin="round" stroke-width="1"></path><path d="M9.28 8a1.64 1.64 0 0 1 1.13 -0.46A1.59 1.59 0 0 1 12 9.09v1.41L14.53 8a1.64 1.64 0 0 1 1.13 -0.46 1.59 1.59 0 0 1 1.59 1.59v5.82a1.59 1.59 0 0 1 -1.59 1.59 1.61 1.61 0 0 1 -1.13 -0.54L12 13.5v1.41a1.59 1.59 0 0 1 -1.59 1.59 1.61 1.61 0 0 1 -1.13 -0.5L6 12.71a1 1 0 0 1 0 -1.42Z" fill="none" stroke="#000000" stroke-linecap="round" stroke-linejoin="round" stroke-width="1"></path></g></svg>