<svg viewBox="0 0 24 24" xmlns="http://www.w3.org/2000/svg" id="Button-Fast-Forward--Streamline-Ultimate"><desc>Button Fast Forward Streamline Icon: https://streamlinehq.com</desc><path d="M11.25 9.969V9.1a0.855 0.855 0 0 1 1.238 -0.765l5.789 2.894a0.856 0.856 0 0 1 0 1.531l-5.789 2.894a0.855 0.855 0 0 1 -1.238 -0.765v-0.866l-3.262 1.635a0.855 0.855 0 0 1 -1.238 -0.765V9.1a0.855 0.855 0 0 1 1.238 -0.765Z" fill="none" stroke="#000000" stroke-linecap="round" stroke-linejoin="round" stroke-width="1"></path><path d="M0.75 11.998a11.25 11.25 0 1 0 22.5 0 11.25 11.25 0 1 0 -22.5 0Z" fill="none" stroke="#000000" stroke-linecap="round" stroke-linejoin="round" stroke-width="1"></path></svg>