<svg xmlns="http://www.w3.org/2000/svg" fill="none" viewBox="0 0 24 24" id="Go-Backward-45-Control--Streamline-Ultimate"><desc>Go Backward 45 Control Streamline Icon: https://streamlinehq.com</desc><path stroke="#000000" stroke-linecap="round" stroke-linejoin="round" d="M7.10998 4.68623C4.21585 6.37208 2.27065 9.50852 2.27065 13.0993c0 5.3734 4.35601 9.7294 9.72945 9.7294 5.3734 0 9.7294 -4.356 9.7294 -9.7294 0 -5.37342 -4.356 -9.72943 -9.7294 -9.72943h-1.9384" stroke-width="1"></path><path stroke="#000000" stroke-linecap="round" stroke-linejoin="round" d="M12 1.17139 9.80151 3.36987 12 5.56836" stroke-width="1"></path><path stroke="#000000" stroke-linecap="round" stroke-linejoin="round" d="m10.0332 9.59937 -3.5 5.25003h4.6667" stroke-width="1"></path><path stroke="#000000" stroke-linecap="round" stroke-linejoin="round" d="m10.0332 9.59937 0 7.00003" stroke-width="1"></path><path stroke="#000000" stroke-linecap="round" stroke-linejoin="round" d="M17.1751 9.59937h-2.9166l-0.2917 3.20833 0.674 -0.337c0.324 -0.162 0.6813 -0.2463 1.0435 -0.2463h0.0325c0.9665 0 1.75 0.7835 1.75 1.75v0.875c0 0.9665 -0.7835 1.75 -1.75 1.75 -0.762 0 -1.5098 -0.487 -1.75 -1.1667" stroke-width="1"></path></svg>