<svg xmlns="http://www.w3.org/2000/svg" fill="none" viewBox="0 0 24 24" id="Go-Backward-90-Control--Streamline-Ultimate"><desc>Go Backward 90 Control Streamline Icon: https://streamlinehq.com</desc><path stroke="#000000" stroke-linecap="round" stroke-linejoin="round" d="M7.10998 4.68623C4.21585 6.37208 2.27065 9.50852 2.27065 13.0993c0 5.3734 4.35601 9.7294 9.72945 9.7294 5.3734 0 9.7294 -4.356 9.7294 -9.7294 0 -5.37342 -4.356 -9.72943 -9.7294 -9.72943h-1.9384" stroke-width="1"></path><path stroke="#000000" stroke-linecap="round" stroke-linejoin="round" d="M12 1.17139 9.80151 3.36987 12 5.56836" stroke-width="1"></path><path stroke="#000000" stroke-linecap="round" stroke-linejoin="round" d="m10.9126 11.6514 0 -0.3122c0 -0.9608 -0.7892 -1.73976 -1.75001 -1.73975 -0.96083 0 -1.74999 0.77895 -1.74999 1.73975l0 0.3122c0 0.9608 0.78916 1.7397 1.75 1.7397 0.9608 0 1.75 -0.7789 1.75 -1.7397Z" stroke-width="1"></path><path stroke="#000000" stroke-linecap="round" stroke-linejoin="round" d="m10.9126 11.3494 0 3.5c0 0.9665 -0.7835 1.75 -1.75 1.75 -0.76196 0 -1.50977 -0.487 -1.75 -1.1667" stroke-width="1"></path><path stroke="#000000" stroke-linecap="round" stroke-linejoin="round" d="M13.814 11.2765v3.6457c0 0.9263 0.7508 1.6772 1.6771 1.6772h0.1457c0.9263 0 1.6772 -0.7509 1.6772 -1.6772v-3.6457c0 -0.9263 -0.7509 -1.67713 -1.6772 -1.67713h-0.1457c-0.9263 0 -1.6771 0.75083 -1.6771 1.67713Z" stroke-width="1"></path></svg>