<svg xmlns="http://www.w3.org/2000/svg" fill="none" viewBox="0 0 24 24" id="Go-Forward-15-Control--Streamline-Ultimate"><desc>Go Forward 15 Control Streamline Icon: https://streamlinehq.com</desc><path stroke="#000000" stroke-linecap="round" stroke-linejoin="round" d="M16.89 4.68623c2.8942 1.68585 4.8394 4.82229 4.8394 8.41307 0 5.3734 -4.3561 9.7294 -9.7295 9.7294 -5.37338 0 -9.72939 -4.356 -9.72939 -9.7294 0 -5.37342 4.35601 -9.72943 9.72939 -9.72943h1.9384" stroke-width="1"></path><path stroke="#000000" stroke-linecap="round" stroke-linejoin="round" d="m12 1.17139 2.1985 2.19848L12 5.56836" stroke-width="1"></path><path stroke="#000000" stroke-linecap="round" stroke-linejoin="round" d="m9.08105 9.59937 0 7.00003" stroke-width="1"></path><path stroke="#000000" stroke-linecap="round" stroke-linejoin="round" d="m7.33105 11.3494 0.59997 0c0.63515 0 1.15003 -0.5149 1.15003 -1.1501l0 -0.59993" stroke-width="1"></path><path stroke="#000000" stroke-linecap="round" stroke-linejoin="round" d="m10.8311 16.5994 -3.50005 0" stroke-width="1"></path><path stroke="#000000" stroke-linecap="round" stroke-linejoin="round" d="M16.3773 9.59937h-2.9167l-0.2917 3.20833 0.674 -0.337c0.324 -0.162 0.6813 -0.2463 1.0435 -0.2463h0.0325c0.9665 0 1.75 0.7835 1.75 1.75v0.875c0 0.9665 -0.7835 1.75 -1.75 1.75 -0.7619 0 -1.5097 -0.487 -1.75 -1.1667" stroke-width="1"></path></svg>