<svg xmlns="http://www.w3.org/2000/svg" fill="none" viewBox="0 0 24 24" id="Go-Forward-60-Control--Streamline-Ultimate"><desc>Go Forward 60 Control Streamline Icon: https://streamlinehq.com</desc><path stroke="#000000" stroke-linecap="round" stroke-linejoin="round" d="M16.89 4.68623c2.8942 1.68585 4.8394 4.82229 4.8394 8.41307 0 5.3734 -4.3561 9.7294 -9.7295 9.7294 -5.37338 0 -9.72939 -4.356 -9.72939 -9.7294 0 -5.37342 4.35601 -9.72943 9.72939 -9.72943h1.9384" stroke-width="1"></path><path stroke="#000000" stroke-linecap="round" stroke-linejoin="round" d="m12 1.17139 2.1985 2.19848L12 5.56836" stroke-width="1"></path><path stroke="#000000" stroke-linecap="round" stroke-linejoin="round" d="m7.21973 14.5413 0 0.3248c0 0.9574 0.79267 1.7334 1.75001 1.7334 0.95732 0 1.74996 -0.776 1.74996 -1.7334l0 -0.3248c0 -0.9574 -0.79264 -1.7334 -1.74997 -1.7334s-1.74999 0.776 -1.75 1.7334Z" stroke-width="1"></path><path stroke="#000000" stroke-linecap="round" stroke-linejoin="round" d="m7.21973 14.8494 0 -3.5c0 -0.9665 0.7835 -1.75003 1.74999 -1.75003 0.76196 0 1.50978 0.48693 1.74998 1.16663" stroke-width="1"></path><path stroke="#000000" stroke-linecap="round" stroke-linejoin="round" d="M13.5762 11.2765v3.6457c0 0.9263 0.7508 1.6772 1.6771 1.6772h0.1457c0.9263 0 1.6772 -0.7509 1.6772 -1.6772v-3.6457c0 -0.9263 -0.7509 -1.67713 -1.6772 -1.67713h-0.1457c-0.9263 0 -1.6771 0.75083 -1.6771 1.67713Z" stroke-width="1"></path></svg>