<svg xmlns="http://www.w3.org/2000/svg" fill="none" viewBox="0 0 24 24" id="Drinks-Noalcohol-Beer-Mug-Percentage--Streamline-Ultimate"><desc>Drinks Noalcohol Beer Mug Percentage Streamline Icon: https://streamlinehq.com</desc><path stroke="#000000" stroke-linecap="round" stroke-linejoin="round" d="M17.25 9.75009h2.1c0.9941 -0.03818 1.9629 0.31931 2.6939 0.99411 0.731 0.6748 1.1648 1.6119 1.2061 2.6059v1.4" stroke-width="1"></path><path stroke="#000000" stroke-linecap="round" stroke-linejoin="round" d="M19.365 5.10005c-0.1498 -0.51812 -0.4196 -0.99363 -0.7876 -1.38792 -0.368 -0.39429 -0.8238 -0.69624 -1.3304 -0.88133 -0.5065 -0.1851 -1.0496 -0.24813 -1.5851 -0.18397 -0.5356 0.06416 -1.0484 0.2537 -1.4969 0.55322 -0.3268 -0.76048 -0.8789 -1.40248 -1.5818 -1.83944 -0.703 -0.436955 -1.5231 -0.647854 -2.3496 -0.604259 -0.8266 0.043596 -1.61993 0.339589 -2.27304 0.848069 -0.65311 0.50848 -1.13461 1.205 -1.37956 1.99563 -0.38908 -0.38074 -0.86317 -0.66343 -1.38311 -0.82472 -0.51993 -0.16129 -1.07078 -0.19655 -1.60703 -0.10286 -0.53625 0.09368 -1.04252 0.31363 -1.47696 0.64166 -0.43445 0.32802 -0.7846 0.75472 -1.02154 1.24482 -0.236933 0.49011 -0.353847 1.02957 -0.34108 1.57379 0.012766 0.54423 0.154848 1.0776 0.41451 1.55606 0.25965 0.47846 0.62943 0.88827 1.07878 1.19556 0.44935 0.30729 0.96537 0.50326 1.50543 0.57169v0c0.01066 0.45881 0.11483 0.91065 0.30614 1.32775 0.19132 0.4172 0.46574 0.7909 0.80649 1.0983 0.34074 0.3074 0.74064 0.5421 1.17521 0.6896 0.43457 0.1475 0.89468 0.2048 1.35216 0.1684 0.56364 -0.0621 1.10352 -0.2612 1.57244 -0.58 0.46893 -0.3189 0.85262 -0.7477 1.11756 -1.249 0.2287 -0.3988 0.3685 -0.8422 0.41 -1.30005 0.0315 -0.37222 0.2021 -0.71888 0.478 -0.97079 0.2758 -0.25192 0.6365 -0.39054 1.01 -0.38821 1.743 0 3.705 0.007 5.278 0 0.5638 0.00958 1.11 -0.19641 1.527 -0.57592 0.4171 -0.3795 0.6735 -0.90389 0.717 -1.46608 0.0142 -0.37482 -0.0313 -0.74952 -0.135 -1.11v0Z" stroke-width="1"></path><path stroke="#000000" stroke-linecap="round" stroke-linejoin="round" d="M17.25 14.7501v-6.494" stroke-width="1"></path><path stroke="#000000" stroke-linecap="round" stroke-linejoin="round" d="M3.75 9.45605V21.8561c-0.00561 0.3638 0.13341 0.7149 0.38654 0.9763 0.25313 0.2614 0.59966 0.4116 0.96346 0.4177h1.65" stroke-width="1"></path><path stroke="#000000" stroke-linecap="round" stroke-linejoin="round" d="M9.75 20.75c0 0.663 0.2634 1.2989 0.7322 1.7678 0.4689 0.4688 1.1048 0.7322 1.7678 0.7322s1.2989 -0.2634 1.7678 -0.7322c0.4688 -0.4689 0.7322 -1.1048 0.7322 -1.7678v-2.5c0 -0.663 -0.2634 -1.2989 -0.7322 -1.7678 -0.4689 -0.4688 -1.1048 -0.7322 -1.7678 -0.7322s-1.2989 0.2634 -1.7678 0.7322c-0.4688 0.4689 -0.7322 1.1048 -0.7322 1.7678v2.5Z" stroke-width="1"></path><path stroke="#000000" stroke-linecap="round" stroke-linejoin="round" d="m18.75 23.25 3.5 -5" stroke-width="1"></path><path stroke="#000000" d="M18.25 19.25c-0.2761 0 -0.5 -0.2239 -0.5 -0.5s0.2239 -0.5 0.5 -0.5" stroke-width="1"></path><path stroke="#000000" d="M18.25 19.25c0.2761 0 0.5 -0.2239 0.5 -0.5s-0.2239 -0.5 -0.5 -0.5" stroke-width="1"></path><path stroke="#000000" d="M22.75 23.25c-0.2761 0 -0.5 -0.2239 -0.5 -0.5s0.2239 -0.5 0.5 -0.5" stroke-width="1"></path><path stroke="#000000" d="M22.75 23.25c0.2761 0 0.5 -0.2239 0.5 -0.5s-0.2239 -0.5 -0.5 -0.5" stroke-width="1"></path><path stroke="#000000" stroke-linecap="round" stroke-linejoin="round" d="m9.75 18.25 5 2.5" stroke-width="1"></path></svg>