<svg xmlns="http://www.w3.org/2000/svg" fill="none" viewBox="0 0 24 24" id="Drinks-No-Alcohol-Wine-Glass-Percentage--Streamline-Ultimate"><desc>Drinks No Alcohol Wine Glass Percentage Streamline Icon: https://streamlinehq.com</desc><path stroke="#000000" stroke-linecap="round" stroke-linejoin="round" d="M1.98801 23.25h4.75" stroke-width="1"></path><path stroke="#000000" stroke-linecap="round" stroke-linejoin="round" d="M4.98801 23.25v-6" stroke-width="1"></path><path stroke="#000000" stroke-linecap="round" stroke-linejoin="round" d="M6.6 16.932c-0.64073 0.2636 -1.33644 0.3658 -2.02591 0.2974 -0.68948 -0.0683 -1.35159 -0.3051 -1.92809 -0.6894v0c-0.64914 -0.4321 -1.16604 -1.0354 -1.49344 -1.7432C0.825158 14.089 0.70002 13.3045 0.791004 12.53L1.92 1.424c0.01861 -0.18486 0.10525 -0.35621 0.24312 -0.480763C2.30098 0.818682 2.48021 0.749811 2.666 0.75H7.31c0.18584 0.000011 0.36508 0.068925 0.50305 0.193418 0.13798 0.124492 0.2249 0.295722 0.24395 0.480582L9.185 12.53c0.01852 0.156 0.0282 0.3129 0.029 0.47" stroke-width="1"></path><path stroke="#000000" stroke-linecap="round" stroke-linejoin="round" d="M1.37799 6.75h7.22" stroke-width="1"></path><path stroke="#000000" stroke-linecap="round" stroke-linejoin="round" d="M9.73801 20.75c0 0.663 0.26339 1.2989 0.73219 1.7678 0.4689 0.4688 1.1048 0.7322 1.7678 0.7322s1.2989 -0.2634 1.7678 -0.7322c0.4688 -0.4689 0.7322 -1.1048 0.7322 -1.7678v-2.5c0 -0.663 -0.2634 -1.2989 -0.7322 -1.7678 -0.4689 -0.4688 -1.1048 -0.7322 -1.7678 -0.7322s-1.2989 0.2634 -1.7678 0.7322c-0.4688 0.4689 -0.73219 1.1048 -0.73219 1.7678v2.5Z" stroke-width="1"></path><path stroke="#000000" stroke-linecap="round" stroke-linejoin="round" d="m18.738 23.25 3.5 -5" stroke-width="1"></path><path stroke="#000000" d="M18.238 19.25c-0.2761 0 -0.5 -0.2239 -0.5 -0.5s0.2239 -0.5 0.5 -0.5" stroke-width="1"></path><path stroke="#000000" d="M18.238 19.25c0.2761 0 0.5 -0.2239 0.5 -0.5s-0.2239 -0.5 -0.5 -0.5" stroke-width="1"></path><path stroke="#000000" d="M22.738 23.25c-0.2761 0 -0.5 -0.2239 -0.5 -0.5s0.2239 -0.5 0.5 -0.5" stroke-width="1"></path><path stroke="#000000" d="M22.738 23.25c0.2761 0 0.5 -0.2239 0.5 -0.5s-0.2239 -0.5 -0.5 -0.5" stroke-width="1"></path><path stroke="#000000" stroke-linecap="round" stroke-linejoin="round" d="m9.73801 18.25 4.99999 2.5" stroke-width="1"></path></svg>