<svg xmlns="http://www.w3.org/2000/svg" viewBox="0 0 24 24" id="Drinks-Noalcohol-Beer-Mug--Streamline-Ultimate"><desc>Drinks Noalcohol Beer Mug Streamline Icon: https://streamlinehq.com</desc><defs></defs><path d="M22.018 17.775a3.467 3.467 0 0 0 1.232 -2.625v-1.8a3.759 3.759 0 0 0 -3.9 -3.6h-2.1" fill="none" stroke="#000000" stroke-linecap="round" stroke-linejoin="round" stroke-width="1"></path><path d="m17.25 13.007 0 -4.751" fill="none" stroke="#000000" stroke-linecap="round" stroke-linejoin="round" stroke-width="1"></path><path d="m3.75 9.456 0 12.4A1.373 1.373 0 0 0 5.1 23.25h10.8a1.372 1.372 0 0 0 1.35 -1.393V17.25" fill="none" stroke="#000000" stroke-linecap="round" stroke-linejoin="round" stroke-width="1"></path><path d="m8.25 14.899 0 4.178" fill="none" stroke="#000000" stroke-linecap="round" stroke-linejoin="round" stroke-width="1"></path><path d="m12.75 12.81 0 6.267" fill="none" stroke="#000000" stroke-linecap="round" stroke-linejoin="round" stroke-width="1"></path><path d="M12.5 8.254c1.606 0 3.341 0.005 4.76 0A2.213 2.213 0 0 0 19.5 6.21a3.531 3.531 0 0 0 -0.135 -1.11 3.43 3.43 0 0 0 -5.2 -1.9 4.044 4.044 0 0 0 -7.193 -0.472" fill="none" stroke="#000000" stroke-linecap="round" stroke-linejoin="round" stroke-width="1"></path><path d="M2.876 2.876a3.433 3.433 0 0 0 0.874 6.58h0a3.373 3.373 0 0 0 3.64 3.284 3.472 3.472 0 0 0 2.69 -1.829 3.617 3.617 0 0 0 0.257 -0.574" fill="none" stroke="#000000" stroke-linecap="round" stroke-linejoin="round" stroke-width="1"></path><path d="M3.75 9.456Z" fill="none" stroke="#000000" stroke-linecap="round" stroke-linejoin="round" stroke-width="1"></path><path d="m0.75 0.75 22.5 22.5" fill="none" stroke="#000000" stroke-linecap="round" stroke-linejoin="round" stroke-width="1"></path></svg>