<svg xmlns="http://www.w3.org/2000/svg" fill="none" viewBox="0 0 24 24" id="Honestly-Truth-User--Streamline-Ultimate"><desc>Honestly Truth User Streamline Icon: https://streamlinehq.com</desc><path stroke="#000000" stroke-linecap="round" stroke-linejoin="round" d="M7.06522 14.3313c2.23417 0 4.04528 -1.8111 4.04528 -4.0453 0 -2.23415 -1.81111 -4.0453 -4.04528 -4.0453 -2.23417 0 -4.04532 1.81115 -4.04532 4.0453 0 2.2342 1.81115 4.0453 4.04532 4.0453Z" stroke-width="1"></path><path stroke="#000000" stroke-linecap="round" stroke-linejoin="round" d="M0.861389 23.1732c0 -1.6454 0.653651 -3.2234 1.817151 -4.3869s2.74155 -1.8172 4.38699 -1.8172c1.64544 0 3.22317 0.6536 4.38667 1.8171 1.1635 1.1635 1.8172 2.7416 1.8172 4.387" stroke-width="1"></path><path stroke="#000000" stroke-linecap="round" stroke-linejoin="round" d="M13.6609 12.3125c0.4877 0.1906 0.9958 0.3242 1.5141 0.3981l0 3.0561c0.4977 -0.4978 3.4841 -2.9864 3.9818 -3.4453 2.3182 -0.8235 3.9818 -2.98136 3.9818 -5.5138 0 -3.39173 -3.219 -6.101474 -6.4704 -5.976698C14.039 0.775931 11.5797 2.38279 10.574 4.81271" stroke-width="1"></path><path stroke="#000000" stroke-linecap="round" stroke-linejoin="round" d="m14.1872 7.24788 1.7794 1.77945 3.5589 -3.55889" stroke-width="1"></path></svg>