<svg viewBox="0 0 24 24" xmlns="http://www.w3.org/2000/svg" id="Legal-Scale-Document--Streamline-Ultimate"><desc>Legal Scale Document Streamline Icon: https://streamlinehq.com</desc><path d="m6.75 9.75 15 0" fill="none" stroke="#000000" stroke-linecap="round" stroke-linejoin="round" stroke-width="1"></path><path d="m14.25 8.25 0 12" fill="none" stroke="#000000" stroke-linecap="round" stroke-linejoin="round" stroke-width="1"></path><path d="M11.25 23.25a3 3 0 0 1 6 0Z" fill="none" stroke="#000000" stroke-linecap="round" stroke-linejoin="round" stroke-width="1"></path><path d="m5.25 15.75 3 -6 3 6" fill="none" stroke="#000000" stroke-linecap="round" stroke-linejoin="round" stroke-width="1"></path><path d="m17.25 15.75 3 -6 3 6" fill="none" stroke="#000000" stroke-linecap="round" stroke-linejoin="round" stroke-width="1"></path><path d="M11.25 15.75a3 3 0 0 1 -6 0Z" fill="none" stroke="#000000" stroke-linecap="round" stroke-linejoin="round" stroke-width="1"></path><path d="M23.25 15.75a3 3 0 0 1 -6 0Z" fill="none" stroke="#000000" stroke-linecap="round" stroke-linejoin="round" stroke-width="1"></path><path d="M6.75 21.75h-4.5a1.5 1.5 0 0 1 -1.5 -1.5v-18a1.5 1.5 0 0 1 1.5 -1.5h10.189a0.751 0.751 0 0 1 0.531 0.22l4.06 4.06a0.751 0.751 0 0 1 0.22 0.531V6.75" fill="none" stroke="#000000" stroke-linecap="round" stroke-linejoin="round" stroke-width="1"></path></svg>