<svg xmlns="http://www.w3.org/2000/svg" fill="none" viewBox="0 0 24 24" id="Oath-1--Streamline-Ultimate"><desc>Oath 1 Streamline Icon: https://streamlinehq.com</desc><path stroke="#000000" stroke-linecap="round" stroke-linejoin="round" d="M6.10548 11.0845c2.81839 0 5.10312 -2.28472 5.10312 -5.10312 0 -2.81839 -2.28473 -5.103153 -5.10312 -5.103153 -2.8184 0 -5.10316 2.284763 -5.10316 5.103153 0 2.8184 2.28476 5.10312 5.10316 5.10312Z" stroke-width="1"></path><path stroke="#000000" stroke-linecap="round" stroke-linejoin="round" d="M8.37638 4.50147 5.89285 7.79301c-0.05486 0.07305 -0.12477 0.13346 -0.205 0.17715 -0.08023 0.04369 -0.16891 0.06964 -0.26003 0.07609 -0.09113 0.00645 -0.18257 -0.00674 -0.26816 -0.03869 -0.08558 -0.03196 -0.16331 -0.08192 -0.22791 -0.14651L3.67297 6.61928" stroke-width="1"></path><path stroke="#000000" stroke-linecap="round" stroke-linejoin="round" d="m12.4542 17.3079 0 -7.54137c0 -0.34954 0.1388 -0.68476 0.386 -0.93192 0.2471 -0.24716 0.5824 -0.38602 0.9319 -0.38602 0.3495 0 0.6848 0.13886 0.9319 0.38602 0.2472 0.24716 0.386 0.58238 0.386 0.93192" stroke-width="1"></path><path stroke="#000000" stroke-linecap="round" stroke-linejoin="round" d="M12.4542 15.3794c0 -0.3495 -0.1389 -0.6848 -0.386 -0.9319 -0.2472 -0.2472 -0.5824 -0.386 -0.932 -0.386 -0.3495 0 -0.6847 0.1388 -0.9319 0.386 -0.24715 0.2471 -0.386 0.5824 -0.386 0.9319l0 4.133c-0.00034 0.6505 0.15986 1.2911 0.4664 1.865 0.3065 0.5738 0.7499 1.0631 1.2908 1.4245" stroke-width="1"></path><path stroke="#000000" stroke-linecap="round" stroke-linejoin="round" d="m15.09 14.5956 0 -6.14688c0 -0.34954 0.1389 -0.68476 0.386 -0.93192 0.2472 -0.24716 0.5824 -0.38602 0.932 -0.38602 0.3495 0 0.6847 0.13886 0.9319 0.38602 0.2471 0.24716 0.386 0.58238 0.386 0.93192l0 6.14688" stroke-width="1"></path><path stroke="#000000" stroke-linecap="round" stroke-linejoin="round" d="M17.7259 9.10763c0 -0.34953 0.1388 -0.68476 0.386 -0.93192 0.2472 -0.24716 0.5824 -0.38601 0.9319 -0.38601 0.3496 0 0.6848 0.13885 0.932 0.38601 0.2471 0.24716 0.386 0.58239 0.386 0.93192l0 1.97687" stroke-width="1"></path><path stroke="#000000" stroke-linecap="round" stroke-linejoin="round" d="m20.3618 14.6721 0 -3.5875c0 -0.3496 0.1389 -0.6848 0.386 -0.932 0.2472 -0.24713 0.5824 -0.38599 0.932 -0.38599 0.3495 0 0.6847 0.13886 0.9319 0.38599 0.2471 0.2472 0.386 0.5824 0.386 0.932l0 10.2694c0.0002 0.6137 -0.1427 1.2189 -0.4174 1.7678" stroke-width="1"></path></svg>