<svg xmlns="http://www.w3.org/2000/svg" fill="none" viewBox="0 0 24 24" id="Artboard-Image--Streamline-Ultimate"><desc>Artboard Image Streamline Icon: https://streamlinehq.com</desc><path stroke="#000000" stroke-linecap="round" stroke-linejoin="round" d="M22.5 17h-2.25V5.25c0 -0.39782 -0.158 -0.77936 -0.4393 -1.06066 -0.2813 -0.2813 -0.6629 -0.43934 -1.0607 -0.43934H7V1.5c-0.00259 -0.19811 -0.08244 -0.38737 -0.22253 -0.527466C6.63737 0.832439 6.44811 0.75259 6.25 0.75H4.5c-0.19811 0.00259 -0.38737 0.082439 -0.52747 0.222534C3.83244 1.11263 3.75259 1.30189 3.75 1.5v2.25H1.5c-0.19811 0.00259 -0.38737 0.08244 -0.527466 0.22253C0.832439 4.11263 0.75259 4.30189 0.75 4.5v1.75c0.00259 0.19811 0.082439 0.38737 0.222534 0.52747C1.11263 6.91756 1.30189 6.99741 1.5 7h2.25v11.75c0 0.3978 0.15804 0.7794 0.43934 1.0607s0.66284 0.4393 1.06066 0.4393H17v2.25c0.0026 0.1981 0.0824 0.3874 0.2225 0.5275 0.1401 0.1401 0.3294 0.2199 0.5275 0.2225h1.75c0.1981 -0.0026 0.3874 -0.0824 0.5275 -0.2225 0.1401 -0.1401 0.2199 -0.3294 0.2225 -0.5275v-2.25h2.25c0.1981 -0.0026 0.3874 -0.0824 0.5275 -0.2225 0.1401 -0.1401 0.2199 -0.3294 0.2225 -0.5275v-1.75c-0.0026 -0.1981 -0.0824 -0.3874 -0.2225 -0.5275 -0.1401 -0.1401 -0.3294 -0.2199 -0.5275 -0.2225v0ZM7 17V7h10v10H7Z" stroke-width="1"></path><path stroke="#000000" stroke-linecap="round" stroke-linejoin="round" d="m8.75 17 4.08 -5.25c0.1414 -0.1772 0.321 -0.3202 0.5252 -0.4185 0.2043 -0.0983 0.4281 -0.1494 0.6548 -0.1494 0.2267 0 0.4505 0.0511 0.6548 0.1494 0.2042 0.0983 0.3838 0.2413 0.5252 0.4185L17 14" stroke-width="1"></path><path stroke="#000000" d="M9.74513 10.87c-0.2071 0 -0.375 -0.1679 -0.375 -0.375s0.1679 -0.375 0.375 -0.375" stroke-width="1"></path><path stroke="#000000" d="M9.74513 10.87c0.20711 0 0.37497 -0.1679 0.37497 -0.375s-0.16786 -0.375 -0.37497 -0.375" stroke-width="1"></path></svg>