<svg xmlns="http://www.w3.org/2000/svg" viewBox="0 0 24 24" id="Artboard-Circle--Streamline-Ultimate"><desc>Artboard Circle Streamline Icon: https://streamlinehq.com</desc><g><path d="M22.5 17h-2.25V5.25a1.5 1.5 0 0 0 -1.5 -1.5H7V1.5a0.76 0.76 0 0 0 -0.75 -0.75H4.5a0.76 0.76 0 0 0 -0.75 0.75v2.25H1.5a0.76 0.76 0 0 0 -0.75 0.75v1.75A0.76 0.76 0 0 0 1.5 7h2.25v11.75a1.5 1.5 0 0 0 1.5 1.5H17v2.25a0.76 0.76 0 0 0 0.75 0.75h1.75a0.76 0.76 0 0 0 0.75 -0.75v-2.25h2.25a0.76 0.76 0 0 0 0.75 -0.75v-1.75a0.76 0.76 0 0 0 -0.75 -0.75ZM7 17V7h10v10Z" fill="none" stroke="#000000" stroke-linecap="round" stroke-linejoin="round" stroke-width="1"></path><path d="M9.75 12a2.25 2.25 0 1 0 4.5 0 2.25 2.25 0 1 0 -4.5 0" fill="none" stroke="#000000" stroke-linecap="round" stroke-linejoin="round" stroke-width="1"></path></g></svg>