<svg xmlns="http://www.w3.org/2000/svg" viewBox="0 0 24 24" id="Artboard-Shapes--Streamline-Ultimate"><desc>Artboard Shapes Streamline Icon: https://streamlinehq.com</desc><defs></defs><title>artboard-shapes</title><path d="m4.5 0.75 0 0.75" fill="none" stroke="#000000" stroke-linecap="round" stroke-linejoin="round" stroke-width="1"></path><path d="m1.5 4.5 -0.75 0" fill="none" stroke="#000000" stroke-linecap="round" stroke-linejoin="round" stroke-width="1"></path><path d="m4.5 23.25 0 -0.75" fill="none" stroke="#000000" stroke-linecap="round" stroke-linejoin="round" stroke-width="1"></path><path d="m1.5 19.5 -0.75 0" fill="none" stroke="#000000" stroke-linecap="round" stroke-linejoin="round" stroke-width="1"></path><path d="m19.5 0.75 0 0.75" fill="none" stroke="#000000" stroke-linecap="round" stroke-linejoin="round" stroke-width="1"></path><path d="m22.5 4.5 0.75 0" fill="none" stroke="#000000" stroke-linecap="round" stroke-linejoin="round" stroke-width="1"></path><path d="m19.5 23.25 0 -0.75" fill="none" stroke="#000000" stroke-linecap="round" stroke-linejoin="round" stroke-width="1"></path><path d="m22.5 19.5 0.75 0" fill="none" stroke="#000000" stroke-linecap="round" stroke-linejoin="round" stroke-width="1"></path><path d="M4.5 4.5h15v15h-15Z" fill="none" stroke="#000000" stroke-linecap="round" stroke-linejoin="round" stroke-width="1"></path><path d="M11.25 14.25H9a1.5 1.5 0 0 1 -1.5 -1.5V9A1.5 1.5 0 0 1 9 7.5h2.25a1.5 1.5 0 0 1 1.5 1.5v0.75" fill="none" stroke="#000000" stroke-linecap="round" stroke-linejoin="round" stroke-width="1"></path><path d="M12.25 9.75h3.25s1 0 1 1v4.75s0 1 -1 1h-3.25s-1 0 -1 -1v-4.75s0 -1 1 -1" fill="none" stroke="#000000" stroke-linecap="round" stroke-linejoin="round" stroke-width="1"></path></svg>