<svg viewBox="0 0 24 24" xmlns="http://www.w3.org/2000/svg" id="Brain-Network--Streamline-Ultimate"><desc>Brain Network Streamline Icon: https://streamlinehq.com</desc><path d="M8.75 23.25v-3h-1.5a3 3 0 0 1 -3 -3v-3h-1.9a0.75 0.75 0 0 1 -0.7 -1.02c0.672 -1.742 1.273 -3.43 1.926 -4.98" fill="none" stroke="#000000" stroke-linecap="round" stroke-linejoin="round" stroke-width="1"></path><path d="M22.062 8.25a9.362 9.362 0 0 1 -2.812 8.735v6.265" fill="none" stroke="#000000" stroke-linecap="round" stroke-linejoin="round" stroke-width="1"></path><path d="M10.25 10.5a2.25 2.25 0 1 0 4.5 0 2.25 2.25 0 1 0 -4.5 0Z" fill="none" stroke="#000000" stroke-linecap="round" stroke-linejoin="round" stroke-width="1"></path><path d="M16.25 6.75a1.5 1.5 0 1 0 3 0 1.5 1.5 0 1 0 -3 0Z" fill="none" stroke="#000000" stroke-linecap="round" stroke-linejoin="round" stroke-width="1"></path><path d="M5.75 6.75a1.5 1.5 0 1 0 3 0 1.5 1.5 0 1 0 -3 0Z" fill="none" stroke="#000000" stroke-linecap="round" stroke-linejoin="round" stroke-width="1"></path><path d="m12.5 8.25 0 -7.5" fill="none" stroke="#000000" stroke-linecap="round" stroke-linejoin="round" stroke-width="1"></path><path d="M7.25 5.25a3 3 0 0 1 3 -3h4.5a3 3 0 0 1 3 3" fill="none" stroke="#000000" stroke-linecap="round" stroke-linejoin="round" stroke-width="1"></path></svg>