<svg xmlns="http://www.w3.org/2000/svg" fill="none" viewBox="0 0 24 24" id="Compressed-Tin-Can-1--Streamline-Ultimate"><desc>Compressed Tin Can 1 Streamline Icon: https://streamlinehq.com</desc><path stroke="#000000" stroke-linecap="round" stroke-linejoin="round" stroke-miterlimit="10" d="M11.6875 13.75c5.2467 0 9.5 -2.9101 9.5 -6.5 0 -3.58985 -4.2533 -6.5 -9.5 -6.5 -5.24671 0 -9.5 2.91015 -9.5 6.5 0 3.5899 4.25329 6.5 9.5 6.5Z" stroke-width="1"></path><path stroke="#000000" stroke-linecap="round" stroke-linejoin="round" stroke-miterlimit="10" d="m2.7875 13.85 -0.6 2.9c0 3.6 4.3 6.5 9.5 6.5s9.5 -2.9 9.5 -6.5v-1.6" stroke-width="1"></path><path stroke="#000000" stroke-linecap="round" stroke-linejoin="round" stroke-miterlimit="10" d="m2.1875 7.65 -0.8 2.2c-0.1 0.3 -0.1 0.7 0 1.1 0.6 1.8 2.8 7.3 10.4 7.3" stroke-width="1"></path><path stroke="#000000" stroke-linecap="round" stroke-linejoin="round" stroke-miterlimit="10" d="M21.1875 6.65s1.5 1 1.5 3l0 3.5s-2 4 -7 4" stroke-width="1"></path><path stroke="#000000" stroke-linecap="round" stroke-linejoin="round" stroke-miterlimit="10" d="M11.1875 7.25001c0 -1.1 0.9 -2 2 -2h2c1.1 0 2 0.9 2 2s-0.9 2 -2 2h-2c-1.1 0 -2 -0.8 -2 -2Z" stroke-width="1"></path><path stroke="#000000" stroke-linecap="round" stroke-linejoin="round" stroke-miterlimit="10" d="M11.7875 8.65c-0.9 0.6 -2.2 1.1 -3.1 1.1 -1.4 0 -2.5 -1.1 -2.5 -2.5s1.1 -2.5 2.5 -2.5c0.8 0 2.2 0.4 3.1 1.1" stroke-width="1"></path></svg>