<svg xmlns="http://www.w3.org/2000/svg" viewBox="0 0 24 24" id="Plastic-Bag--Streamline-Ultimate"><desc>Plastic Bag Streamline Icon: https://streamlinehq.com</desc><defs></defs><title>plastic-bag</title><path d="M20.994 0.662H17.8a1.006 1.006 0 0 0 -0.977 0.757c-0.274 1.118 -0.6 3.776 -0.768 5.3a1.264 1.264 0 0 1 -1.258 1.121H7.582a1.264 1.264 0 0 1 -1.261 -1.381c0.13 -1.418 0.338 -3.565 0.5 -4.643A1 1 0 0 0 5.833 0.662h-2.1a1 1 0 0 0 -0.982 0.779c-1.177 5.492 -1.065 12.479 -0.5 19.991a1 1 0 0 0 0.68 0.88c5.768 1.8 15.994 0.877 17.9 -0.06a0.892 0.892 0 0 0 0.369 -0.352c0.411 -0.681 0.959 -3.014 0.959 -10.488 0.001 -5.937 -0.337 -10.75 -1.165 -10.75Z" fill="none" stroke="#000000" stroke-linecap="round" stroke-linejoin="round" stroke-width="1"></path><path d="m6.517 4.162 9.847 0" fill="none" stroke="#000000" stroke-linecap="round" stroke-linejoin="round" stroke-width="1"></path><path d="M6.1 17.138a4.286 4.286 0 0 0 1.892 2.024" fill="none" stroke="#000000" stroke-linecap="round" stroke-linejoin="round" stroke-width="1"></path></svg>