<svg viewBox="0 0 24 24" xmlns="http://www.w3.org/2000/svg" id="Recycling-Trash-Bin-2--Streamline-Ultimate"><desc>Recycling Trash Bin 2 Streamline Icon: https://streamlinehq.com</desc><path d="M22.9 1.3a1.5 1.5 0 0 0 -1.15 -0.536H2.25A1.5 1.5 0 0 0 0.772 2.521l3.387 19.5a1.5 1.5 0 0 0 1.478 1.243h12.726a1.5 1.5 0 0 0 1.478 -1.243l3.387 -19.5A1.5 1.5 0 0 0 22.9 1.3Z" fill="none" stroke="#000000" stroke-linecap="round" stroke-linejoin="round" stroke-width="1"></path><path d="m10.125 13.514 -3.75 0 0 3.75" fill="none" stroke="#000000" stroke-linecap="round" stroke-linejoin="round" stroke-width="1"></path><path d="M17.792 14.247a5.572 5.572 0 0 1 -10.74 -0.733" fill="none" stroke="#000000" stroke-linecap="round" stroke-linejoin="round" stroke-width="1"></path><path d="m14.625 10.514 3.75 0 0 -3.75" fill="none" stroke="#000000" stroke-linecap="round" stroke-linejoin="round" stroke-width="1"></path><path d="M6.958 9.781a5.572 5.572 0 0 1 10.74 0.733" fill="none" stroke="#000000" stroke-linecap="round" stroke-linejoin="round" stroke-width="1"></path></svg>