<svg viewBox="0 0 24 24" xmlns="http://www.w3.org/2000/svg" id="Recycling-Trash-Bin-1--Streamline-Ultimate"><desc>Recycling Trash Bin 1 Streamline Icon: https://streamlinehq.com</desc><path d="m22.939 4.756 -2.633 -3.421A1.5 1.5 0 0 0 19.117 0.75H4.883a1.5 1.5 0 0 0 -1.189 0.585L1.061 4.756a1.5 1.5 0 0 0 -0.3 1.1l2.01 16.08A1.5 1.5 0 0 0 4.26 23.25h15.48a1.5 1.5 0 0 0 1.489 -1.314l2.009 -16.079a1.5 1.5 0 0 0 -0.299 -1.101Z" fill="none" stroke="#000000" stroke-linecap="round" stroke-linejoin="round" stroke-width="1"></path><path d="m0.808 5.259 22.384 0" fill="none" stroke="#000000" stroke-linecap="round" stroke-linejoin="round" stroke-width="1"></path><path d="m9.705 15.759 -3.75 0 0 3.75" fill="none" stroke="#000000" stroke-linecap="round" stroke-linejoin="round" stroke-width="1"></path><path d="M17.372 16.492a5.572 5.572 0 0 1 -10.74 -0.733" fill="none" stroke="#000000" stroke-linecap="round" stroke-linejoin="round" stroke-width="1"></path><path d="m14.205 12.759 3.75 0 0 -3.75" fill="none" stroke="#000000" stroke-linecap="round" stroke-linejoin="round" stroke-width="1"></path><path d="M6.538 12.025a5.573 5.573 0 0 1 10.74 0.734" fill="none" stroke="#000000" stroke-linecap="round" stroke-linejoin="round" stroke-width="1"></path></svg>