<svg viewBox="0 0 24 24" xmlns="http://www.w3.org/2000/svg" id="Recycling-Refresh--Streamline-Ultimate"><desc>Recycling Refresh Streamline Icon: https://streamlinehq.com</desc><path d="M18 4.33a9.75 9.75 0 0 0 -15.75 7.684v2.25" fill="none" stroke="#000000" stroke-linecap="round" stroke-linejoin="round" stroke-width="1"></path><path d="M6 19.7a9.751 9.751 0 0 0 15.75 -7.686v-2.25" fill="none" stroke="#000000" stroke-linecap="round" stroke-linejoin="round" stroke-width="1"></path><path d="m0.75 12.764 1.5 1.5 1.5 -1.5" fill="none" stroke="#000000" stroke-linecap="round" stroke-linejoin="round" stroke-width="1"></path><path d="m23.25 11.264 -1.5 -1.5 -1.5 1.5" fill="none" stroke="#000000" stroke-linecap="round" stroke-linejoin="round" stroke-width="1"></path><path d="M9.932 15.6s2.205 1.688 3.956 0.606c3.552 -2.2 0.838 -7.017 1.329 -9.443a9.106 9.106 0 0 0 -7.364 3.754c-1.386 2.051 -0.606 3.957 2.079 5.083Z" fill="none" stroke="#000000" stroke-linecap="round" stroke-linejoin="round" stroke-width="1"></path><path d="M11.434 12.02S9.57 13.256 9.5 17.264" fill="none" stroke="#000000" stroke-linecap="round" stroke-linejoin="round" stroke-width="1"></path></svg>