<svg viewBox="0 0 24 24" xmlns="http://www.w3.org/2000/svg" id="Recycling-Bottle--Streamline-Ultimate"><desc>Recycling Bottle Streamline Icon: https://streamlinehq.com</desc><path d="M9.751 3.889V2.264a1.5 1.5 0 0 0 -1.5 -1.5h-1.5a1.5 1.5 0 0 0 -1.5 1.5v1.625" fill="none" stroke="#000000" stroke-linecap="round" stroke-linejoin="round" stroke-width="1"></path><path d="M14.128 8.271a5.691 5.691 0 0 0 -5.567 -4.507H6.44A5.689 5.689 0 0 0 0.751 9.453a0.754 0.754 0 0 0 0.219 0.531l0.75 0.75a0.749 0.749 0 0 1 0 1.06l-0.75 0.75a0.754 0.754 0 0 0 -0.219 0.531v2.378a0.754 0.754 0 0 0 0.219 0.531l0.75 0.75a0.749 0.749 0 0 1 0 1.06l-0.75 0.75a0.754 0.754 0 0 0 -0.219 0.531v2.689a1.5 1.5 0 0 0 1.5 1.5H9" fill="none" stroke="#000000" stroke-linecap="round" stroke-linejoin="round" stroke-width="1"></path><path d="m1.94 11.264 8.561 0" fill="none" stroke="#000000" stroke-linecap="round" stroke-linejoin="round" stroke-width="1"></path><path d="m1.94 17.264 6.311 0" fill="none" stroke="#000000" stroke-linecap="round" stroke-linejoin="round" stroke-width="1"></path><path d="m15.001 18.764 -3.75 0 0 3.75" fill="none" stroke="#000000" stroke-linecap="round" stroke-linejoin="round" stroke-width="1"></path><path d="M22.668 19.5a5.572 5.572 0 0 1 -10.74 -0.733" fill="none" stroke="#000000" stroke-linecap="round" stroke-linejoin="round" stroke-width="1"></path><path d="m19.501 15.764 3.75 0 0 -3.75" fill="none" stroke="#000000" stroke-linecap="round" stroke-linejoin="round" stroke-width="1"></path><path d="M11.834 15.031a5.572 5.572 0 0 1 10.74 0.733" fill="none" stroke="#000000" stroke-linecap="round" stroke-linejoin="round" stroke-width="1"></path></svg>