<svg xmlns="http://www.w3.org/2000/svg" fill="none" viewBox="0 0 24 24" id="Recycling-Label--Streamline-Ultimate"><desc>Recycling Label Streamline Icon: https://streamlinehq.com</desc><path stroke="#000000" stroke-linecap="round" stroke-linejoin="round" d="M14.069 20s1.219 2.495 3.27 2.308c4.158 -0.38 3.88 -5.907 5.4 -7.859 -1.2858 -0.6408 -2.705 -0.968 -4.1415 -0.955 -1.4366 0.0131 -2.8496 0.366 -4.1235 1.03 -2.154 1.22 -2.307 3.276 -0.405 5.476Z" stroke-width="1"></path><path stroke="#000000" stroke-linecap="round" stroke-linejoin="round" d="M17.01 17.469s-2.7 0.335 -4.623 5.031" stroke-width="1"></path><path stroke="#000000" stroke-linecap="round" stroke-linejoin="round" d="M9.20004 19.906c-0.28129 0.2812 -0.66275 0.4392 -1.0605 0.4392 -0.39774 0 -0.7792 -0.158 -1.0605 -0.4392l-5.379 -5.379c-0.2812 -0.2813 -0.43918 -0.6628 -0.43918 -1.0605 0 -0.3977 0.15798 -0.7792 0.43918 -1.0605L12.2 1.94c0.2811 -0.28138 0.6624 -0.43965 1.06 -0.44h5.25c0.197 0 0.3921 0.0388 0.5741 0.11418 0.182 0.07538 0.3473 0.18587 0.4866 0.32516 0.1393 0.13929 0.2498 0.30465 0.3252 0.48663 0.0753 0.18199 0.1141 0.37705 0.1141 0.57403v5.345c0.0001 0.19702 -0.0386 0.39212 -0.1139 0.57417 -0.0753 0.18205 -0.1858 0.34747 -0.3251 0.48683" stroke-width="1"></path><path stroke="#000000" d="M16.389 5.591c-0.2071 0 -0.375 -0.16789 -0.375 -0.375 0 -0.2071 0.1679 -0.375 0.375 -0.375" stroke-width="1"></path><path stroke="#000000" d="M16.389 5.591c0.2071 0 0.375 -0.16789 0.375 -0.375 0 -0.2071 -0.1679 -0.375 -0.375 -0.375" stroke-width="1"></path></svg>