<svg viewBox="0 0 24 24" xmlns="http://www.w3.org/2000/svg" id="Water-Dam--Streamline-Ultimate"><desc>Water Dam Streamline Icon: https://streamlinehq.com</desc><path d="m15 13.5 4.915 -2.457a0.75 0.75 0 0 1 1.085 0.671V21.75a1.5 1.5 0 0 1 -1.5 1.5H3a1.5 1.5 0 0 1 -1.5 -1.5V13.5l2.123 -9.907A0.75 0.75 0 0 1 4.356 3h1.788a0.75 0.75 0 0 1 0.733 0.593L9 13.5l4.915 -2.457a0.75 0.75 0 0 1 1.085 0.671V13.5" fill="none" stroke="#000000" stroke-linecap="round" stroke-linejoin="round" stroke-width="1"></path><path d="m9 17.25 3 0" fill="none" stroke="#000000" stroke-linecap="round" stroke-linejoin="round" stroke-width="1"></path><path d="m9 20.25 3 0" fill="none" stroke="#000000" stroke-linecap="round" stroke-linejoin="round" stroke-width="1"></path><path d="m15 17.25 3 0" fill="none" stroke="#000000" stroke-linecap="round" stroke-linejoin="round" stroke-width="1"></path><path d="m15 20.25 3 0" fill="none" stroke="#000000" stroke-linecap="round" stroke-linejoin="round" stroke-width="1"></path><path d="M9.005 0.869A6.954 6.954 0 0 1 12 1.491C19.429 4.662 22.5 0.75 22.5 0.75" fill="none" stroke="#000000" stroke-linecap="round" stroke-linejoin="round" stroke-width="1"></path></svg>