<svg viewBox="0 0 24 24" xmlns="http://www.w3.org/2000/svg" id="Table-Lamp-Retro-1--Streamline-Ultimate"><desc>Table Lamp Retro 1 Streamline Icon: https://streamlinehq.com</desc><path d="M21.75 12.75A9.75 9.75 0 0 0 11.7 3.005a10.02 10.02 0 0 0 -9.45 10.154v0.822a0.75 0.75 0 0 0 1.136 0.643L6 13.055l2.1 1.575a1.5 1.5 0 0 0 1.8 0l2.1 -1.575 2.193 1.645a1.5 1.5 0 0 0 1.672 0.086l2.885 -1.731 1.8 1.35a0.75 0.75 0 0 0 1.2 -0.6Z" fill="none" stroke="#000000" stroke-linecap="round" stroke-linejoin="round" stroke-width="1"></path><path d="m12 13.055 0 10.195" fill="none" stroke="#000000" stroke-linecap="round" stroke-linejoin="round" stroke-width="1"></path><path d="m8.25 23.25 7.5 0" fill="none" stroke="#000000" stroke-linecap="round" stroke-linejoin="round" stroke-width="1"></path><path d="m15 15 0 3" fill="none" stroke="#000000" stroke-linecap="round" stroke-linejoin="round" stroke-width="1"></path><path d="m12 3 0 -2.25" fill="none" stroke="#000000" stroke-linecap="round" stroke-linejoin="round" stroke-width="1"></path></svg>