<svg xmlns="http://www.w3.org/2000/svg" fill="none" viewBox="0 0 24 24" id="Messages-Bubble-Warning-Triangle--Streamline-Ultimate"><desc>Messages Bubble Warning Triangle Streamline Icon: https://streamlinehq.com</desc><path stroke="#000000" stroke-linecap="round" stroke-linejoin="round" d="M22.986 13.6c0.3293 -1.4406 0.3508 -2.9346 0.0631 -4.38406 -0.2878 -1.4495 -0.8782 -2.82194 -1.7328 -4.02758 -0.8546 -1.20563 -1.954 -2.2173 -3.2264 -2.96884 -1.2724 -0.75155 -2.6891 -1.226037 -4.1575 -1.392449C12.464 0.66066 10.977 0.806079 9.56871 1.25382c-1.40832 0.44774 -2.70628 1.18771 -3.80897 2.17153 -1.1027 0.98381 -1.98531 2.18932 -2.59012 3.53767C2.56482 8.31137 2.25145 9.7722 2.25 11.25c-0.00017 1.9536 0.54832 3.8679 1.583 5.525L0.75 23.25l6.474 -3.083c0.267 0.165 0.54 0.319 0.822 0.461" stroke-width="1"></path><path stroke="#000000" d="M17.25 21c-0.2071 0 -0.375 -0.1679 -0.375 -0.375s0.1679 -0.375 0.375 -0.375" stroke-width="1"></path><path stroke="#000000" d="M17.25 21c0.2071 0 0.375 -0.1679 0.375 -0.375s-0.1679 -0.375 -0.375 -0.375" stroke-width="1"></path><path stroke="#000000" stroke-linecap="round" stroke-linejoin="round" d="M17.25 18v-3" stroke-width="1"></path><path stroke="#000000" stroke-linecap="round" stroke-linejoin="round" d="M23.062 20.682c0.1356 0.2704 0.1999 0.571 0.1865 0.8732 -0.0134 0.3022 -0.1038 0.596 -0.2628 0.8534 -0.1589 0.2574 -0.3811 0.4698 -0.6454 0.6171 -0.2642 0.1473 -0.5618 0.2245 -0.8643 0.2243h-8.452c-0.3025 0.0001 -0.6 -0.0772 -0.8642 -0.2244 -0.2643 -0.1473 -0.4865 -0.3597 -0.6455 -0.617 -0.159 -0.2574 -0.2496 -0.5511 -0.2631 -0.8533 -0.0136 -0.3022 0.0504 -0.6028 0.1858 -0.8733l4.226 -8.451c0.1473 -0.2949 0.3738 -0.5428 0.6541 -0.7161s0.6033 -0.2651 0.9329 -0.2651 0.6526 0.0918 0.9329 0.2651 0.5068 0.4212 0.6541 0.7161l4.225 8.451Z" stroke-width="1"></path></svg>