<svg xmlns="http://www.w3.org/2000/svg" fill="none" viewBox="0 0 24 24" id="Messages-Bubble-Square-Warning-Triangle--Streamline-Ultimate"><desc>Messages Bubble Square Warning Triangle Streamline Icon: https://streamlinehq.com</desc><path stroke="#000000" stroke-linecap="round" stroke-linejoin="round" d="M8.223 19.9 3.75 23.25v-4.5h-1.5c-0.39782 0 -0.77936 -0.158 -1.06066 -0.4393C0.908035 18.0294 0.75 17.6478 0.75 17.25v-15c0 -0.39782 0.158035 -0.77936 0.43934 -1.06066C1.47064 0.908035 1.85218 0.75 2.25 0.75h19.5c0.3978 0 0.7794 0.158035 1.0607 0.43934 0.2813 0.2813 0.4393 0.66284 0.4393 1.06066v10.5" stroke-width="1"></path><path stroke="#000000" d="M17.25 21c-0.2071 0 -0.375 -0.1679 -0.375 -0.375s0.1679 -0.375 0.375 -0.375" stroke-width="1"></path><path stroke="#000000" d="M17.25 21c0.2071 0 0.375 -0.1679 0.375 -0.375s-0.1679 -0.375 -0.375 -0.375" stroke-width="1"></path><path stroke="#000000" stroke-linecap="round" stroke-linejoin="round" d="M17.25 18v-3" stroke-width="1"></path><path stroke="#000000" stroke-linecap="round" stroke-linejoin="round" d="M23.063 20.682c0.1354 0.2705 0.1994 0.5712 0.1858 0.8734 -0.0135 0.3022 -0.1041 0.5959 -0.2631 0.8532s-0.3812 0.4697 -0.6455 0.617c-0.2642 0.1473 -0.5617 0.2245 -0.8642 0.2244h-8.452c-0.3025 0.0001 -0.6 -0.0771 -0.8642 -0.2244 -0.2643 -0.1473 -0.4865 -0.3597 -0.6455 -0.617 -0.159 -0.2573 -0.2496 -0.551 -0.2631 -0.8532 -0.0136 -0.3022 0.0504 -0.6029 0.1858 -0.8734l4.226 -8.451c0.1473 -0.2948 0.3738 -0.5428 0.6541 -0.7161s0.6033 -0.2651 0.9329 -0.2651 0.6526 0.0918 0.9329 0.2651 0.5068 0.4213 0.6541 0.7161l4.226 8.451Z" stroke-width="1"></path></svg>