<svg xmlns="http://www.w3.org/2000/svg" fill="none" viewBox="0 0 24 24" id="Messages-Bubble-Square-Video-Call--Streamline-Ultimate"><desc>Messages Bubble Square Video Call Streamline Icon: https://streamlinehq.com</desc><path stroke="#000000" stroke-linecap="round" stroke-linejoin="round" stroke-miterlimit="10" d="M21.75 18.75h-10.5l-6 4.5v-4.5h-3c-0.8 0 -1.5 -0.7 -1.5 -1.5v-15c0 -0.8 0.7 -1.5 1.5 -1.5h19.5c0.8 0 1.5 0.7 1.5 1.5v15c0 0.8 -0.7 1.5 -1.5 1.5Z" stroke-width="1"></path><path stroke="#000000" stroke-linecap="round" stroke-linejoin="round" stroke-miterlimit="10" d="m17.95 6.95001 -3 1v-1c0 -0.8 -0.7 -1.5 -1.5 -1.5H7.45001c-0.8 0 -1.5 0.7 -1.5 1.5V12.95c0 0.8 0.7 1.5 1.5 1.5H13.45c0.8 0 1.5 -0.7 1.5 -1.5v-1l3 1V6.95001Z" stroke-width="1"></path></svg>