<svg xmlns="http://www.w3.org/2000/svg" fill="none" viewBox="0 0 24 24" id="Messages-Bubble-Typing--Streamline-Ultimate"><desc>Messages Bubble Typing Streamline Icon: https://streamlinehq.com</desc><path stroke="#000000" stroke-linecap="round" stroke-linejoin="round" d="M6.375 22.5c1.03553 0 1.875 -0.8395 1.875 -1.875 0 -1.0355 -0.83947 -1.875 -1.875 -1.875S4.5 19.5895 4.5 20.625c0 1.0355 0.83947 1.875 1.875 1.875Z" stroke-width="1"></path><path stroke="#000000" d="M12.375 8.625c-0.2071 0 -0.375 -0.16789 -0.375 -0.375s0.1679 -0.375 0.375 -0.375" stroke-width="1"></path><path stroke="#000000" d="M12.375 8.625c0.2071 0 0.375 -0.16789 0.375 -0.375s-0.1679 -0.375 -0.375 -0.375" stroke-width="1"></path><path stroke="#000000" d="M7.875 8.625c-0.20711 0 -0.375 -0.16789 -0.375 -0.375s0.16789 -0.375 0.375 -0.375" stroke-width="1"></path><path stroke="#000000" d="M7.875 8.625c0.20711 0 0.375 -0.16789 0.375 -0.375s-0.16789 -0.375 -0.375 -0.375" stroke-width="1"></path><path stroke="#000000" d="M16.875 8.625c-0.2071 0 -0.375 -0.16789 -0.375 -0.375s0.1679 -0.375 0.375 -0.375" stroke-width="1"></path><path stroke="#000000" d="M16.875 8.625c0.2071 0 0.375 -0.16789 0.375 -0.375s-0.1679 -0.375 -0.375 -0.375" stroke-width="1"></path><g><path stroke="#000000" d="M1.125 23.25c-0.207107 0 -0.375 -0.1679 -0.375 -0.375s0.167893 -0.375 0.375 -0.375" stroke-width="1"></path><path stroke="#000000" d="M1.125 23.25c0.20711 0 0.375 -0.1679 0.375 -0.375s-0.16789 -0.375 -0.375 -0.375" stroke-width="1"></path></g><path stroke="#000000" stroke-linecap="round" stroke-linejoin="round" d="M3.786 6.36501c-0.01808 -0.12099 -0.0301 -0.24281 -0.036 -0.365 -0.00072 -0.73799 0.21656 -1.45974 0.62457 -2.07468 0.40801 -0.61494 0.98857 -1.09566 1.66881 -1.38183 0.68023 -0.28618 1.42985 -0.36505 2.15475 -0.22673 0.7249 0.13833 1.3928 0.48769 1.91987 1.00424 0.8257 -0.94306 1.8748 -1.66391 3.0513 -2.09654 1.1764 -0.432633 2.4426 -0.563223 3.6825 -0.379814 1.24 0.183404 2.4142 0.674954 3.415 1.429634 1.0008 0.75467 1.7963 1.74836 2.3137 2.89008 0.5173 1.14172 0.74 2.39498 0.6476 3.64504 -0.0924 1.25009 -0.497 2.45699 -1.1766 3.51019 -0.6796 1.0532 -1.6126 1.9191 -2.7135 2.5185 -1.1009 0.5993 -2.3345 0.9128 -3.588 0.9119H5.625c-1.13015 0.0008 -2.22541 -0.3913 -3.09826 -1.1092 -0.87284 -0.7179 -1.46896 -1.7169 -1.686281 -2.8259C0.62314 10.7058 0.798141 9.55571 1.3355 8.56149c0.53735 -0.99422 1.40363 -1.7707 2.4505 -2.19648Z" stroke-width="1"></path></svg>