<svg xmlns="http://www.w3.org/2000/svg" fill="none" viewBox="0 0 24 24" id="Messages-Bubble-Information--Streamline-Ultimate"><desc>Messages Bubble Information Streamline Icon: https://streamlinehq.com</desc><path stroke="#000000" stroke-linecap="round" stroke-linejoin="round" d="M12.7395 0.750018C10.8699 0.74732 9.03372 1.24543 7.42139 2.19266S4.47938 4.50172 3.57033 6.13683C2.66128 7.77194 2.20599 9.62074 2.2517 11.4914c0.04572 1.8706 0.59077 3.6949 1.5786 5.2836L0.75 23.25l6.46834 -3.084c1.37947 0.8588 2.93936 1.3852 4.55676 1.5377 1.6173 0.1525 3.248 -0.073 4.7635 -0.6587 1.5154 -0.5858 2.8742 -1.5158 3.9694 -2.7168 1.0951 -1.201 1.8966 -2.6401 2.3413 -4.2039 0.4447 -1.5639 0.5204 -3.2097 0.2213 -4.80789 -0.2992 -1.59815 -0.9651 -3.10493 -1.9452 -4.40159 -0.9802 -1.29666 -2.2479 -2.34778 -3.7031 -3.07051C15.9671 1.12157 14.364 0.74697 12.7395 0.750018v0Z" stroke-width="1"></path><path stroke="#000000" stroke-linecap="round" stroke-linejoin="round" d="M15 15.75h-0.75c-0.3978 0 -0.7794 -0.158 -1.0607 -0.4393s-0.4393 -0.6629 -0.4393 -1.0607V10.5c0 -0.1989 -0.079 -0.3897 -0.2197 -0.53033C12.3897 9.82902 12.1989 9.75 12 9.75h-0.75" stroke-width="1"></path><path stroke="#000000" d="M12.375 6.75c-0.2071 0 -0.375 -0.16789 -0.375 -0.375S12.1679 6 12.375 6" stroke-width="1"></path><path stroke="#000000" d="M12.375 6.75c0.2071 0 0.375 -0.16789 0.375 -0.375S12.5821 6 12.375 6" stroke-width="1"></path></svg>