<svg xmlns="http://www.w3.org/2000/svg" viewBox="0 0 24 24" id="Messages-Bubble-Quotation--Streamline-Ultimate"><desc>Messages Bubble Quotation Streamline Icon: https://streamlinehq.com</desc><g><path d="M12.75 0.75a10.49 10.49 0 0 0 -8.92 16l-3.08 6.5 6.47 -3.08A10.5 10.5 0 1 0 12.75 0.75Z" fill="none" stroke="#000000" stroke-linecap="round" stroke-linejoin="round" stroke-width="1"></path><g><path d="M15 10.5A0.75 0.75 0 0 0 15 9h0a0.75 0.75 0 1 0 0 1.5" fill="none" stroke="#000000" stroke-linecap="round" stroke-linejoin="round" stroke-width="1"></path><path d="M15.17 13.76a2.79 2.79 0 0 0 1.62 -2.38c0 -1 -0.51 -2.26 -1.67 -2.37" fill="none" stroke="#000000" stroke-linecap="round" stroke-linejoin="round" stroke-width="1"></path></g><g><path d="M9.76 10.5a0.75 0.75 0 0 0 0 -1.5h0a0.75 0.75 0 1 0 0 1.5" fill="none" stroke="#000000" stroke-linecap="round" stroke-linejoin="round" stroke-width="1"></path><path d="M9.92 13.76a2.79 2.79 0 0 0 1.62 -2.38c0 -1 -0.51 -2.26 -1.67 -2.37" fill="none" stroke="#000000" stroke-linecap="round" stroke-linejoin="round" stroke-width="1"></path></g></g></svg>