<svg viewBox="0 0 24 24" xmlns="http://www.w3.org/2000/svg" id="Messages-Bubble-Share--Streamline-Ultimate"><desc>Messages Bubble Share Streamline Icon: https://streamlinehq.com</desc><path d="M11.25 17.998a2.25 2.25 0 1 0 4.5 0 2.25 2.25 0 1 0 -4.5 0Z" fill="none" stroke="#000000" stroke-linecap="round" stroke-linejoin="round" stroke-width="1"></path><path d="M18.75 20.998a2.25 2.25 0 1 0 4.5 0 2.25 2.25 0 1 0 -4.5 0Z" fill="none" stroke="#000000" stroke-linecap="round" stroke-linejoin="round" stroke-width="1"></path><path d="M18.75 13.498a2.25 2.25 0 1 0 4.5 0 2.25 2.25 0 1 0 -4.5 0Z" fill="none" stroke="#000000" stroke-linecap="round" stroke-linejoin="round" stroke-width="1"></path><path d="m15.424 16.843 3.65 -2.19" fill="none" stroke="#000000" stroke-linecap="round" stroke-linejoin="round" stroke-width="1"></path><path d="m15.588 18.833 3.324 1.33" fill="none" stroke="#000000" stroke-linecap="round" stroke-linejoin="round" stroke-width="1"></path><path d="M22.834 8.316a10.5 10.5 0 1 0 -19 8.459L0.75 23.25l6.474 -3.083A10.725 10.725 0 0 0 9 21.05" fill="none" stroke="#000000" stroke-linecap="round" stroke-linejoin="round" stroke-width="1"></path></svg>