<svg xmlns="http://www.w3.org/2000/svg" fill="none" viewBox="0 0 24 24" id="Messages-Bubble-Window-Hi--Streamline-Ultimate"><desc>Messages Bubble Window Hi Streamline Icon: https://streamlinehq.com</desc><path stroke="#000000" stroke-linecap="round" stroke-linejoin="round" d="M20.233 1.16551C19.1404 0.702071 17.9227 0.623749 16.7797 0.943391c-1.1431 0.319639 -2.1435 1.018269 -2.8372 1.981269 -0.6938 0.963 -1.0396 2.13318 -0.9808 3.31858 0.0588 1.18541 0.5187 2.31563 1.3043 3.20527l-0.656 3.77899 3.423 -2.111c1.1147 0.2679 2.287 0.1549 3.33 -0.321" stroke-width="1"></path><path stroke="#000000" stroke-linecap="round" stroke-linejoin="round" d="M8.436 18.75c1.864 0 3.375 -1.511 3.375 -3.375S10.3 12 8.436 12c-1.86396 0 -3.375 1.511 -3.375 3.375s1.51104 3.375 3.375 3.375Z" stroke-width="1"></path><path stroke="#000000" stroke-linecap="round" stroke-linejoin="round" d="M13.663 23.243c-0.5351 -0.9126 -1.2997 -1.6693 -2.2178 -2.1949 -0.9181 -0.5256 -1.95778 -0.8018 -3.01569 -0.8011 -1.05792 0.0007 -2.09723 0.2783 -3.01465 0.8051 -0.91742 0.5268 -1.68099 1.2845 -2.21485 2.1979" stroke-width="1"></path><path stroke="#000000" stroke-linecap="round" stroke-linejoin="round" d="M18.204 14.25v9" stroke-width="1"></path><path stroke="#000000" stroke-linecap="round" stroke-linejoin="round" d="M0.95401 23.25V3.75c0 -0.79565 0.31607 -1.55871 0.87868 -2.12132C2.3953 1.06607 3.15836 0.75 3.95401 0.75H11.454" stroke-width="1"></path><path stroke="#000000" stroke-linecap="round" stroke-linejoin="round" d="M0.95401 6.75h9" stroke-width="1"></path><path stroke="#000000" stroke-linecap="round" stroke-linejoin="round" d="M6.95401 3.75h3" stroke-width="1"></path><path stroke="#000000" d="M22.7 3.75c-0.2071 0 -0.375 -0.16789 -0.375 -0.375S22.4929 3 22.7 3" stroke-width="1"></path><path stroke="#000000" d="M22.7 3.75c0.2071 0 0.375 -0.16789 0.375 -0.375S22.9071 3 22.7 3" stroke-width="1"></path><path stroke="#000000" stroke-linecap="round" stroke-linejoin="round" d="M16.704 3.75v4.5" stroke-width="1"></path><path stroke="#000000" stroke-linecap="round" stroke-linejoin="round" d="M22.704 6v2.25" stroke-width="1"></path><path stroke="#000000" stroke-linecap="round" stroke-linejoin="round" d="M16.704 6h3" stroke-width="1"></path><path stroke="#000000" stroke-linecap="round" stroke-linejoin="round" d="M19.704 3.75v4.5" stroke-width="1"></path></svg>