<svg viewBox="0 0 24 24" xmlns="http://www.w3.org/2000/svg" id="Messages-Bubble-Square-Heart--Streamline-Ultimate"><desc>Messages Bubble Square Heart Streamline Icon: https://streamlinehq.com</desc><path d="M21.75 18.75h-10.5l-6 4.5v-4.5h-3a1.5 1.5 0 0 1 -1.5 -1.5v-15a1.5 1.5 0 0 1 1.5 -1.5h19.5a1.5 1.5 0 0 1 1.5 1.5v15a1.5 1.5 0 0 1 -1.5 1.5Z" fill="none" stroke="#000000" stroke-linecap="round" stroke-linejoin="round" stroke-width="1"></path><path d="m12 13.875 -3.836 -4a2.271 2.271 0 0 1 -0.425 -2.619h0a2.269 2.269 0 0 1 3.634 -0.59l0.627 0.625 0.626 -0.626a2.269 2.269 0 0 1 3.634 0.59h0a2.268 2.268 0 0 1 -0.425 2.619Z" fill="none" stroke="#000000" stroke-linecap="round" stroke-linejoin="round" stroke-width="1"></path></svg>