<svg xmlns="http://www.w3.org/2000/svg" fill="none" viewBox="0 0 24 24" id="Messages-Bubble-Lock--Streamline-Ultimate"><desc>Messages Bubble Lock Streamline Icon: https://streamlinehq.com</desc><path stroke="#000000" stroke-linecap="round" stroke-linejoin="round" d="M21.75 15.75h-6c-0.8284 0 -1.5 0.6716 -1.5 1.5v4.5c0 0.8284 0.6716 1.5 1.5 1.5h6c0.8284 0 1.5 -0.6716 1.5 -1.5v-4.5c0 -0.8284 -0.6716 -1.5 -1.5 -1.5Z" stroke-width="1"></path><path stroke="#000000" stroke-linecap="round" stroke-linejoin="round" d="M18.75 11.25c-0.7956 0 -1.5587 0.3161 -2.1213 0.8787 -0.5626 0.5626 -0.8787 1.3257 -0.8787 2.1213v1.5h6v-1.5c0 -0.7956 -0.3161 -1.5587 -0.8787 -2.1213 -0.5626 -0.5626 -1.3257 -0.8787 -2.1213 -0.8787Z" stroke-width="1"></path><path stroke="#000000" d="M18.75 19.904c-0.2071 0 -0.375 -0.1679 -0.375 -0.375s0.1679 -0.375 0.375 -0.375" stroke-width="1"></path><path stroke="#000000" d="M18.75 19.904c0.2071 0 0.375 -0.1679 0.375 -0.375s-0.1679 -0.375 -0.375 -0.375" stroke-width="1"></path><path stroke="#000000" stroke-linecap="round" stroke-linejoin="round" d="M23.25 10.5629c-0.104 -1.59211 -0.5701 -3.13955 -1.363 -4.52476 -0.7929 -1.38521 -1.8917 -2.57172 -3.2128 -3.46936 -1.3212 -0.89763 -2.8299 -1.48276 -4.4116 -1.710909 -1.5816 -0.22815 -3.1945 -0.093315 -4.71613 0.394259 -1.52161 0.48757 -2.91186 1.31504 -4.06507 2.41953 -1.15322 1.10448 -2.03905 2.4569 -2.59017 3.95446 -0.55112 1.49757 -0.75302 3.10088 -0.59035 4.68798 0.16267 1.5872 0.68563 3.1164 1.52912 4.4715L0.75 23.25l6.471 -3.0789c1.21341 0.7555 2.56891 1.2549 3.983 1.4675" stroke-width="1"></path></svg>