<svg viewBox="0 0 24 24" xmlns="http://www.w3.org/2000/svg" id="Messages-Bubble-Square-Star--Streamline-Ultimate"><desc>Messages Bubble Square Star Streamline Icon: https://streamlinehq.com</desc><path d="M8.223 19.9 3.75 23.25v-4.5h-1.5a1.5 1.5 0 0 1 -1.5 -1.5v-15a1.5 1.5 0 0 1 1.5 -1.5h19.5a1.5 1.5 0 0 1 1.5 1.5v9" fill="none" stroke="#000000" stroke-linecap="round" stroke-linejoin="round" stroke-width="1"></path><path d="M17.948 11.68 19.489 15h3a0.735 0.735 0 0 1 0.518 1.283l-2.6 2.562 1.442 3.314a0.786 0.786 0 0 1 -1.119 0.982l-3.486 -1.961 -3.487 1.961a0.786 0.786 0 0 1 -1.119 -0.982l1.443 -3.314 -2.6 -2.562A0.734 0.734 0 0 1 11.989 15h3l1.544 -3.323a0.8 0.8 0 0 1 1.415 0.003Z" fill="none" stroke="#000000" stroke-linecap="round" stroke-linejoin="round" stroke-width="1"></path></svg>