<svg xmlns="http://www.w3.org/2000/svg" fill="none" viewBox="0 0 24 24" id="Messages-Bubble-Image--Streamline-Ultimate"><desc>Messages Bubble Image Streamline Icon: https://streamlinehq.com</desc><path stroke="#000000" d="M7.961 6.75c-0.20711 0 -0.375 -0.16789 -0.375 -0.375S7.75389 6 7.961 6" stroke-width="1"></path><path stroke="#000000" d="M7.961 6.75c0.20711 0 0.375 -0.16789 0.375 -0.375S8.16811 6 7.961 6" stroke-width="1"></path><path stroke="#000000" stroke-linecap="round" stroke-linejoin="round" d="m19.5 14.25 -3.87 -5.83601c-0.0676 -0.10164 -0.1589 -0.18522 -0.2662 -0.24349 -0.1072 -0.05827 -0.2271 -0.08945 -0.3491 -0.09083 -0.122 -0.00138 -0.2426 0.02708 -0.3511 0.08291 -0.1085 0.05583 -0.2018 0.13733 -0.2716 0.23741l-2 2.85101 -1.236 -0.989c-0.0812 -0.0648 -0.175 -0.1121 -0.2754 -0.1388 -0.1004 -0.0267 -0.2053 -0.0322 -0.308 -0.0162 -0.1026 0.016 -0.2009 0.0531 -0.2884 0.1091 -0.0876 0.0559 -0.1626 0.1294 -0.2202 0.2159L7.521 14.25" stroke-width="1"></path><path stroke="#000000" stroke-linecap="round" stroke-linejoin="round" d="M6 14.25h13.5" stroke-width="1"></path><path stroke="#000000" stroke-linecap="round" stroke-linejoin="round" d="M12.7404 0.750016C10.8707 0.747318 9.03431 1.24543 7.42187 2.19266c-1.61245 0.94723 -2.94222 2.30906 -3.85134 3.94417 -0.90911 1.63511 -1.36444 3.48391 -1.31872 5.35457 0.04572 1.8706 0.59081 3.6949 1.57871 5.2836L0.75 23.25l6.4688 -3.083c1.3796 0.8585 2.9395 1.3845 4.5569 1.5368 1.6174 0.1523 3.248 -0.0733 4.7633 -0.6592 1.5154 -0.5859 2.8741 -1.5159 3.9692 -2.7168 1.095 -1.2009 1.8964 -2.64 2.3411 -4.2037 0.4447 -1.5637 0.5204 -3.2094 0.2213 -4.8074 -0.2991 -1.59802 -0.9649 -3.10469 -1.945 -4.4013 -0.98 -1.29661 -2.2475 -2.34774 -3.7027 -3.07057C15.9678 1.122 14.3649 0.747216 12.7404 0.750016v0Z" stroke-width="1"></path></svg>