<svg xmlns="http://www.w3.org/2000/svg" fill="none" viewBox="0 0 24 24" id="Messages-Bubble-Square-Phone-Call--Streamline-Ultimate"><desc>Messages Bubble Square Phone Call Streamline Icon: https://streamlinehq.com</desc><path stroke="#000000" stroke-linecap="round" stroke-linejoin="round" stroke-miterlimit="10" d="M21.75 18.75h-10.5l-6 4.5v-4.5h-3c-0.8 0 -1.5 -0.7 -1.5 -1.5v-15c0 -0.8 0.7 -1.5 1.5 -1.5h19.5c0.8 0 1.5 0.7 1.5 1.5v15c0 0.8 -0.6 1.5 -1.5 1.5Z" stroke-width="1"></path><path stroke="#000000" stroke-linecap="round" stroke-linejoin="round" stroke-miterlimit="10" d="M7.15001 8.74998c-0.6 -1 -0.3 -2.5 0.5 -3.4l0.9 -0.9c0.3 -0.3 0.9 -0.3 1.2 0L10.95 5.64999c0.3 0.3 0.3 0.89999 0 1.19999 -0.3 0.3 -0.5 1.1 -0.2 1.4l2.4 2.50002c0.3 0.3 1.1 0.2 1.4 -0.2 0.3 -0.3 0.9 -0.3 1.2 0l1.2 1.2c0.3 0.3 0.3 0.9 0 1.2l-0.9 0.9c-0.9 0.9 -2.4 1.2 -3.4 0.5 -2.1 -1.4 -4.09999 -3.4 -5.49999 -5.60002Z" stroke-width="1"></path></svg>