<svg xmlns="http://www.w3.org/2000/svg" viewBox="0 0 24 24" id="Sms-1--Streamline-Ultimate"><desc>Sms 1 Streamline Icon: https://streamlinehq.com</desc><defs></defs><title>sms-1</title><path d="M12.47 0.75a6.518 6.518 0 0 0 -5.544 9.962L5.01 14.738l4.025 -1.917A6.528 6.528 0 1 0 12.47 0.75Z" fill="none" stroke="#000000" stroke-linecap="round" stroke-linejoin="round" stroke-width="1"></path><path d="M6 17.25H3.5a1.5 1.5 0 0 0 0 3h1a1.5 1.5 0 0 1 0 3H2" fill="none" stroke="#000000" stroke-linecap="round" stroke-linejoin="round" stroke-width="1"></path><path d="M22 17.25h-2.5a1.5 1.5 0 0 0 0 3h1a1.5 1.5 0 0 1 0 3H18" fill="none" stroke="#000000" stroke-linecap="round" stroke-linejoin="round" stroke-width="1"></path><path d="M9 23.25v-4.5a1.5 1.5 0 0 1 3 0v0a1.5 1.5 0 0 1 3 0v4.5" fill="none" stroke="#000000" stroke-linecap="round" stroke-linejoin="round" stroke-width="1"></path></svg>