<svg xmlns="http://www.w3.org/2000/svg" fill="none" viewBox="0 0 24 24" id="Animal-Products-Cheese--Streamline-Ultimate"><desc>Animal Products Cheese Streamline Icon: https://streamlinehq.com</desc><path stroke="#000000" stroke-linecap="round" stroke-linejoin="round" d="M0.75 11.351 12.268 1.23198c0.1525 -0.1352 0.3308 -0.238115 0.5241 -0.302563 0.1934 -0.064448 0.3978 -0.08909 0.6009 -0.072442 4.4 0.405005 7.909 2.519005 9.857 7.494005" stroke-width="1"></path><path stroke="#000000" stroke-linecap="round" stroke-linejoin="round" d="M0.75 11.351v4.062c-0.000044 0.2919 0.085084 0.5774 0.244948 0.8217 0.159862 0.2442 0.387522 0.4365 0.655052 0.5533 0.43627 0.1905 0.8009 0.5144 1.04149 0.9252 0.2406 0.4108 0.34477 0.8872 0.29754 1.3609 -0.04722 0.4737 -0.24341 0.9203 -0.56037 1.2755 -0.31696 0.3552 -0.73837 0.6007 -1.20366 0.7014 -0.13443 0.0286 -0.254959 0.1025 -0.341421 0.2094 -0.086462 0.1068 -0.133617 0.2401 -0.133579 0.3776 -0.000056 0.2139 0.04564 0.4253 0.134021 0.6201 0.088381 0.1948 0.217399 0.3684 0.378409 0.5093 0.16101 0.1408 0.35027 0.2456 0.5551 0.3072 0.20482 0.0617 0.42047 0.0789 0.63247 0.0504l19.5 -2.6c0.36 -0.0485 0.6902 -0.2259 0.9293 -0.4994 0.2391 -0.2735 0.3708 -0.6244 0.3707 -0.9876V8.35095L0.75 11.351Z" stroke-width="1"></path><path stroke="#000000" stroke-linecap="round" stroke-linejoin="round" d="M10.875 19.601c1.0355 0 1.875 -0.8395 1.875 -1.875 0 -1.0356 -0.8395 -1.875 -1.875 -1.875 -1.03553 0 -1.875 0.8394 -1.875 1.875 0 1.0355 0.83947 1.875 1.875 1.875Z" stroke-width="1"></path><path stroke="#000000" stroke-linecap="round" stroke-linejoin="round" d="M18.375 15.101c1.0355 0 1.875 -0.8395 1.875 -1.875 0 -1.0356 -0.8395 -1.875 -1.875 -1.875 -1.0355 0 -1.875 0.8394 -1.875 1.875 0 1.0355 0.8395 1.875 1.875 1.875Z" stroke-width="1"></path><path stroke="#000000" d="M13.125 13.601c-0.2071 0 -0.375 -0.1679 -0.375 -0.375 0 -0.2072 0.1679 -0.375 0.375 -0.375" stroke-width="1"></path><path stroke="#000000" d="M13.125 13.601c0.2071 0 0.375 -0.1679 0.375 -0.375 0 -0.2072 -0.1679 -0.375 -0.375 -0.375" stroke-width="1"></path><path stroke="#000000" d="M16.875 18.85c-0.2071 0 -0.375 -0.1679 -0.375 -0.375s0.1679 -0.375 0.375 -0.375" stroke-width="1"></path><path stroke="#000000" d="M16.875 18.85c0.2071 0 0.375 -0.1679 0.375 -0.375s-0.1679 -0.375 -0.375 -0.375" stroke-width="1"></path><g><path stroke="#000000" d="M6.375 14.351c-0.20711 0 -0.375 -0.1679 -0.375 -0.375 0 -0.2072 0.16789 -0.375 0.375 -0.375" stroke-width="1"></path><path stroke="#000000" d="M6.375 14.351c0.20711 0 0.375 -0.1679 0.375 -0.375 0 -0.2072 -0.16789 -0.375 -0.375 -0.375" stroke-width="1"></path></g></svg>