<svg xmlns="http://www.w3.org/2000/svg" viewBox="0 0 24 24" id="Animal-Products-Turkey--Streamline-Ultimate"><desc>Animal Products Turkey Streamline Icon: https://streamlinehq.com</desc><g><path d="M21.75 18.69c0 1.65 -4.37 4.38 -9.75 4.38s-9.75 -2.73 -9.75 -4.38" fill="none" stroke="#000000" stroke-linecap="round" stroke-linejoin="round" stroke-width="1"></path><path d="m0.75 18.69 22.5 0" fill="none" stroke="#000000" stroke-linecap="round" stroke-linejoin="round" stroke-width="1"></path><path d="M12.13 14.81a3 3 0 0 1 0 -4.25c1.17 -1.17 4.13 -2.23 5.3 -1.06s0.11 4.13 -1.06 5.31" fill="none" stroke="#000000" stroke-linecap="round" stroke-linejoin="round" stroke-width="1"></path><path d="m17.43 9.5 3.18 -3.18" fill="none" stroke="#000000" stroke-linecap="round" stroke-linejoin="round" stroke-width="1"></path><path d="M20.17 5.26a1.5 1.5 0 1 0 3 0 1.5 1.5 0 1 0 -3 0" fill="none" stroke="#000000" stroke-linecap="round" stroke-linejoin="round" stroke-width="1"></path><path d="M20.25 18.69a7.22 7.22 0 0 0 -2.78 -5.62" fill="none" stroke="#000000" stroke-linecap="round" stroke-linejoin="round" stroke-width="1"></path><path d="M11.65 11.19c-4.39 0.17 -7.9 3.46 -7.9 7.5" fill="none" stroke="#000000" stroke-linecap="round" stroke-linejoin="round" stroke-width="1"></path><path d="M10.36 0.93c1.44 2.88 -2.9 3.89 -0.75 6.76" fill="none" stroke="#000000" stroke-linecap="round" stroke-linejoin="round" stroke-width="1"></path><path d="M5.86 0.93C7.3 3.81 3 4.82 5.11 7.69" fill="none" stroke="#000000" stroke-linecap="round" stroke-linejoin="round" stroke-width="1"></path></g></svg>