<svg xmlns="http://www.w3.org/2000/svg" viewBox="0 0 24 24" id="Action-Camera--Streamline-Ultimate"><desc>Action Camera Streamline Icon: https://streamlinehq.com</desc><g><path d="M13.63 8.75a0.75 0.75 0 1 0 1.5 0 0.75 0.75 0 1 0 -1.5 0" fill="none" stroke="#000000" stroke-linecap="round" stroke-linejoin="round" stroke-width="1"></path><path d="M12.13 16.75h4.5v6.5h-4.5Z" fill="none" stroke="#000000" stroke-linecap="round" stroke-linejoin="round" stroke-width="1"></path><path d="m12.13 20 -6.76 0" fill="none" stroke="#000000" stroke-linecap="round" stroke-linejoin="round" stroke-width="1"></path><path d="M8.37 0.75h12s2 0 2 2v12s0 2 -2 2h-12s-2 0 -2 -2v-12s0 -2 2 -2" fill="none" stroke="#000000" stroke-linecap="round" stroke-linejoin="round" stroke-width="1"></path><path d="M10.87 4.25h7.25a0.75 0.75 0 0 1 0.75 0.75v7.5a0.75 0.75 0 0 1 -0.75 0.75h-7.25a1 1 0 0 1 -1 -1v-7a1 1 0 0 1 1 -1Z" fill="none" stroke="#000000" stroke-linecap="round" stroke-linejoin="round" stroke-width="1"></path><path d="M4.5 21.45a1.35 1.35 0 0 0 0.87 -1.27v-0.95A1.36 1.36 0 0 0 4.5 18l-2 -0.75a0.64 0.64 0 0 0 -0.6 0.07 0.69 0.69 0 0 0 -0.28 0.54v3.78a0.66 0.66 0 0 0 0.28 0.54 0.65 0.65 0 0 0 0.6 0.08Z" fill="none" stroke="#000000" stroke-linecap="round" stroke-linejoin="round" stroke-width="1"></path><path d="m8.37 23.25 12.01 0" fill="none" stroke="#000000" stroke-linecap="round" stroke-linejoin="round" stroke-width="1"></path></g></svg>