<svg viewBox="0 0 24 24" xmlns="http://www.w3.org/2000/svg" id="Camera-Glasses--Streamline-Ultimate"><desc>Camera Glasses Streamline Icon: https://streamlinehq.com</desc><path d="M2.451 18.861a4.436 4.436 0 0 0 7.914 0.986l0.778 -1.216a1.92 1.92 0 0 1 3.214 0l0.778 1.216a4.418 4.418 0 0 0 3.724 2.014 4.339 4.339 0 0 0 4.391 -4.285v-6.215h-21v3" fill="none" stroke="#000000" stroke-linecap="round" stroke-linejoin="round" stroke-width="1"></path><path d="m2.25 11.361 3.267 -7.35A3.154 3.154 0 0 1 8.4 2.139h1.023" fill="none" stroke="#000000" stroke-linecap="round" stroke-linejoin="round" stroke-width="1"></path><path d="m23.25 11.361 -3.267 -7.35A3.154 3.154 0 0 0 17.1 2.139h-1.023" fill="none" stroke="#000000" stroke-linecap="round" stroke-linejoin="round" stroke-width="1"></path><path d="m0.75 14.361 7.5 0 0 4.5 -7.5 0Z" fill="none" stroke="#000000" stroke-linecap="round" stroke-linejoin="round" stroke-width="1"></path></svg>