<svg viewBox="0 0 24 24" xmlns="http://www.w3.org/2000/svg" id="Make-Up-Mascara-Small--Streamline-Ultimate"><desc>Make Up Mascara Small Streamline Icon: https://streamlinehq.com</desc><path d="M1.25 12.75h8a0.5 0.5 0 0 1 0.5 0.5v8a2 2 0 0 1 -2 2h-5a2 2 0 0 1 -2 -2v-8a0.5 0.5 0 0 1 0.5 -0.5Z" fill="none" stroke="#000000" stroke-linecap="round" stroke-linejoin="round" stroke-width="1"></path><path d="m22.75 11.251 -6.5 0a0.5 0.5 0 0 1 -0.5 -0.5l0 -8a2 2 0 0 1 2 -2l3.5 0a2 2 0 0 1 2 2l0 8a0.5 0.5 0 0 1 -0.5 0.5Z" fill="none" stroke="#000000" stroke-linecap="round" stroke-linejoin="round" stroke-width="1"></path><path d="m5.25 0.75 0 12" fill="none" stroke="#000000" stroke-linecap="round" stroke-linejoin="round" stroke-width="1"></path><path d="m3.75 2.25 3 0" fill="none" stroke="#000000" stroke-linecap="round" stroke-linejoin="round" stroke-width="1"></path><path d="m2.25 5.25 6 0" fill="none" stroke="#000000" stroke-linecap="round" stroke-linejoin="round" stroke-width="1"></path><path d="m3.75 8.25 3 0" fill="none" stroke="#000000" stroke-linecap="round" stroke-linejoin="round" stroke-width="1"></path><path d="m15.75 8.25 7.5 0" fill="none" stroke="#000000" stroke-linecap="round" stroke-linejoin="round" stroke-width="1"></path></svg>