<svg xmlns="http://www.w3.org/2000/svg" fill="none" viewBox="0 0 24 24" id="Receipt-1--Streamline-Ultimate"><desc>Receipt 1 Streamline Icon: https://streamlinehq.com</desc><path fill="#e3e3e3" d="M17 3v16.64c0 0.745 -0.1762 1.4794 -0.5143 2.1433 -0.338 0.6639 -0.8283 1.2384 -1.4307 1.6767L15 23.5H2l0.11 -0.08c0.58538 -0.4259 1.06175 -0.9842 1.39022 -1.6293 0.32846 -0.6451 0.49972 -1.3588 0.49978 -2.0827V3c0 -0.66304 0.26339 -1.29893 0.73223 -1.76777C5.20107 0.763392 5.83696 0.5 6.5 0.5h13c-0.663 0 -1.2989 0.263392 -1.7678 0.73223C17.2634 1.70107 17 2.33696 17 3Z" stroke-width="1"></path><path fill="#ffffff" d="M18.349 0.5H6.5c-0.66304 0 -1.29893 0.263392 -1.76777 0.73223C4.26339 1.70107 4 2.33696 4 3v11.85L18.349 0.5Z" stroke-width="1"></path><path stroke="#191919" stroke-linecap="round" stroke-linejoin="round" d="M17 3v16.64c0 0.745 -0.1762 1.4794 -0.5143 2.1433 -0.338 0.6639 -0.8283 1.2384 -1.4307 1.6767L15 23.5H2l0.11 -0.08c0.58538 -0.4259 1.06175 -0.9842 1.39022 -1.6293 0.32846 -0.6451 0.49972 -1.3588 0.49978 -2.0827V3c0 -0.66304 0.26339 -1.29893 0.73223 -1.76777C5.20107 0.763392 5.83696 0.5 6.5 0.5h13c-0.663 0 -1.2989 0.263392 -1.7678 0.73223C17.2634 1.70107 17 2.33696 17 3v0Z" stroke-width="1"></path><path fill="#b2b2b2" stroke="#191919" stroke-linecap="round" stroke-linejoin="round" d="M22 3v3.5c0 0.26522 -0.1054 0.51957 -0.2929 0.70711C21.5196 7.39465 21.2652 7.5 21 7.5h-4V3.14c-0.0135 -0.63662 0.2072 -1.25605 0.6201 -1.74081 0.4128 -0.484767 0.9893 -0.801162 1.6199 -0.889187 0.0864 -0.008324 0.1732 -0.011663 0.26 -0.01 0.3283 0 0.6534 0.064664 0.9567 0.190301 0.3033 0.125636 0.5789 0.309786 0.8111 0.541936 0.2321 0.23214 0.4163 0.50774 0.5419 0.81105C21.9353 2.34661 22 2.6717 22 3v0Z" stroke-width="1"></path><path stroke="#191919" stroke-linecap="round" stroke-linejoin="round" d="M6.5 4.5H9" stroke-width="1"></path><path stroke="#191919" stroke-linecap="round" stroke-linejoin="round" d="M8.5 7.5H14" stroke-width="1"></path><path stroke="#191919" stroke-linecap="round" stroke-linejoin="round" d="M6.5 10.5H14" stroke-width="1"></path><path stroke="#191919" stroke-linecap="round" stroke-linejoin="round" d="M6.5 13.5H14" stroke-width="1"></path><path stroke="#191919" stroke-linecap="round" stroke-linejoin="round" d="M6.5 16.5H11" stroke-width="1"></path><path stroke="#191919" stroke-linecap="round" stroke-linejoin="round" d="M6.5 16.5H14" stroke-width="1"></path><path stroke="#191919" stroke-linecap="round" stroke-linejoin="round" d="M6.5 19.5H11" stroke-width="1"></path></svg>