<svg xmlns="http://www.w3.org/2000/svg" viewBox="0 0 24 24" id="Satellite-1--Streamline-Ultimate"><desc>Satellite 1 Streamline Icon: https://streamlinehq.com</desc><g><path d="M4 14.67A3.75 3.75 0 0 1 9.33 20Z" fill="none" stroke="#000000" stroke-linecap="round" stroke-linejoin="round" stroke-width="1"></path><path d="M18.45 9.79a3 3 0 0 0 -0.38 -4.57 3.14 3.14 0 0 0 -4 0.44L8.8 11a1.52 1.52 0 0 0 0 2.13l2.12 2.12a1.52 1.52 0 0 0 2.13 0Z" fill="none" stroke="#000000" stroke-linecap="round" stroke-linejoin="round" stroke-width="1"></path><path d="m20.04 3.96 -1.59 1.59" fill="none" stroke="#000000" stroke-linecap="round" stroke-linejoin="round" stroke-width="1"></path><path d="M6.94 23.17A5.29 5.29 0 0 1 0.84 17" fill="none" stroke="#000000" stroke-linecap="round" stroke-linejoin="round" stroke-width="1"></path><path d="m14.61 13.64 2.12 2.12" fill="none" stroke="#000000" stroke-linecap="round" stroke-linejoin="round" stroke-width="1"></path><path d="m15.9520973723 16.5302734521 1.5627059864 -1.5627059864s1.0606601718 -1.0606601718 2.1213203436 0l3.1819805153 3.1819805153s1.0606601718 1.0606601718 0 2.1213203436l-1.5627059864 1.5627059864s-1.0606601718 1.0606601718 -2.1213203436 0l-3.1819805153 -3.1819805153s-1.0606601718 -1.0606601718 0 -2.1213203436" fill="none" stroke="#000000" stroke-linecap="round" stroke-linejoin="round" stroke-width="1"></path><path d="M10.36 9.39 8.24 7.27" fill="none" stroke="#000000" stroke-linecap="round" stroke-linejoin="round" stroke-width="1"></path><path d="m2.1600923472 2.7502734521 1.5627059864 -1.5627059864s1.0606601718 -1.0606601718 2.1213203435 0L9.0260991925 4.369547981s1.0606601718 1.0606601718 0 2.1213203436L7.463393206 8.053574311s-1.0606601718 1.0606601718 -2.1213203436 0L2.1600923472 4.8715937957s-1.0606601718 -1.0606601718 0 -2.1213203436" fill="none" stroke="#000000" stroke-linecap="round" stroke-linejoin="round" stroke-width="1"></path><path d="M5 19.75a0.76 0.76 0 0 1 -0.75 -0.75" fill="none" stroke="#000000" stroke-linecap="round" stroke-linejoin="round" stroke-width="1"></path></g></svg>