<svg xmlns="http://www.w3.org/2000/svg" fill="none" viewBox="0 0 24 24" id="User-Story--Streamline-Ultimate"><desc>User Story Streamline Icon: https://streamlinehq.com</desc><path stroke="#000000" stroke-linecap="round" stroke-linejoin="round" stroke-miterlimit="10" d="M12 19.7012c4.2532 0 7.7012 -3.448 7.7012 -7.7012 0 -4.25324 -3.448 -7.70117 -7.7012 -7.70117 -4.25324 0 -7.70117 3.44793 -7.70117 7.70117 0 4.2532 3.44793 7.7012 7.70117 7.7012Z" stroke-width="1"></path><path stroke="#000000" stroke-linecap="round" stroke-linejoin="round" stroke-miterlimit="10" d="M1.03711 12c0 -1.2971 0.22527 -2.54162 0.63883 -3.69652m0 7.39302C3.19277 19.9324 7.24248 22.9629 12 22.9629c6.0546 0 10.9629 -4.9083 10.9629 -10.9629 0 -4.09892 -2.2495 -7.67243 -5.5813 -9.55334M3.58161 4.97706c0.7973 -0.95468 1.75395 -1.77168 2.82908 -2.41009m3.68581 -1.36519c0.6182 -0.10824 1.2543 -0.16467 1.9035 -0.16467s1.2853 0.05643 1.9035 0.16467" stroke-width="1"></path><path stroke="#000000" stroke-linecap="round" stroke-linejoin="round" stroke-miterlimit="10" d="M11.9997 11.9916c1.1777 0 2.1325 -0.9548 2.1325 -2.13254 0 -1.17775 -0.9548 -2.1325 -2.1325 -2.1325 -1.1778 0 -2.13251 0.95475 -2.13251 2.1325 0 1.17774 0.95471 2.13254 2.13251 2.13254Z" stroke-width="1"></path><path stroke="#000000" stroke-linecap="round" stroke-linejoin="round" stroke-miterlimit="10" d="M15.5738 15.308c-0.4669 -1.5298 -1.9129 -2.6767 -3.574 -2.6767 -1.6611 0 -3.10711 1.1469 -3.57402 2.6767" stroke-width="1"></path></svg>