<svg viewBox="0 0 24 24" xmlns="http://www.w3.org/2000/svg" id="Reflect-Up--Streamline-Ultimate"><desc>Reflect Up Streamline Icon: https://streamlinehq.com</desc><path d="m17.03 6.968 4.94 -4.939a0.751 0.751 0 0 0 -0.531 -1.281h-9.878a0.751 0.751 0 0 0 -0.531 1.281l4.94 4.939a0.749 0.749 0 0 0 1.06 0Z" fill="none" stroke="#000000" stroke-linecap="round" stroke-linejoin="round" stroke-width="1"></path><path d="m17.03 17.029 4.94 4.939a0.75 0.75 0 0 1 -0.531 1.28h-9.878a0.75 0.75 0 0 1 -0.531 -1.28l4.94 -4.939a0.749 0.749 0 0 1 1.06 0Z" fill="none" stroke="#000000" stroke-linecap="round" stroke-linejoin="round" stroke-width="1"></path><path d="m23.25 11.998 -13.5 0" fill="none" stroke="#000000" stroke-linecap="round" stroke-linejoin="round" stroke-width="1"></path><path d="m1.5 2.998 5.257 0.698 -0.697 5.257" fill="none" stroke="#000000" stroke-linecap="round" stroke-linejoin="round" stroke-width="1"></path><path d="M6.75 19.347A7.5 7.5 0 0 1 0.75 12a9.031 9.031 0 0 1 6.007 -8.3" fill="none" stroke="#000000" stroke-linecap="round" stroke-linejoin="round" stroke-width="1"></path></svg>