<svg viewBox="0 0 24 24" xmlns="http://www.w3.org/2000/svg" id="Reflect-Down--Streamline-Ultimate"><desc>Reflect Down Streamline Icon: https://streamlinehq.com</desc><path d="m6.97 17.029 -4.94 4.939a0.75 0.75 0 0 0 0.531 1.28h9.878a0.75 0.75 0 0 0 0.531 -1.28l-4.94 -4.939a0.749 0.749 0 0 0 -1.06 0Z" fill="none" stroke="#000000" stroke-linecap="round" stroke-linejoin="round" stroke-width="1"></path><path d="M6.97 6.968 2.03 2.029A0.751 0.751 0 0 1 2.561 0.748h9.878a0.751 0.751 0 0 1 0.531 1.281L8.03 6.968a0.749 0.749 0 0 1 -1.06 0Z" fill="none" stroke="#000000" stroke-linecap="round" stroke-linejoin="round" stroke-width="1"></path><path d="m0.75 11.998 13.5 0" fill="none" stroke="#000000" stroke-linecap="round" stroke-linejoin="round" stroke-width="1"></path><path d="m22.5 20.998 -5.257 -0.697 0.697 -5.257" fill="none" stroke="#000000" stroke-linecap="round" stroke-linejoin="round" stroke-width="1"></path><path d="M17.25 4.65a7.5 7.5 0 0 1 6 7.348 9.032 9.032 0 0 1 -6.007 8.3" fill="none" stroke="#000000" stroke-linecap="round" stroke-linejoin="round" stroke-width="1"></path></svg>