<svg xmlns="http://www.w3.org/2000/svg" viewBox="0 0 24 24" id="Image-Document-Gif-1--Streamline-Ultimate"><desc>Image Document Gif 1 Streamline Icon: https://streamlinehq.com</desc><defs></defs><title>image-document-gif-1</title><path d="M1.75 0.75h20.5s1 0 1 1v20.5s0 1 -1 1H1.75s-1 0 -1 -1V1.75s0 -1 1 -1" fill="none" stroke="#000000" stroke-linecap="round" stroke-linejoin="round" stroke-width="1"></path><path d="M15 18v-6a1.5 1.5 0 0 1 1.5 -1.5H18" fill="none" stroke="#000000" stroke-linecap="round" stroke-linejoin="round" stroke-width="1"></path><path d="m15 15 2.25 0" fill="none" stroke="#000000" stroke-linecap="round" stroke-linejoin="round" stroke-width="1"></path><path d="m12 18 0 -7.5" fill="none" stroke="#000000" stroke-linecap="round" stroke-linejoin="round" stroke-width="1"></path><path d="M8.25 15H9v1.5a1.5 1.5 0 0 1 -3 0V12a1.5 1.5 0 0 1 1.5 -1.5H9" fill="none" stroke="#000000" stroke-linecap="round" stroke-linejoin="round" stroke-width="1"></path></svg>