<svg viewBox="0 0 24 24" xmlns="http://www.w3.org/2000/svg" id="Image-File-Shutter--Streamline-Ultimate"><desc>Image File Shutter Streamline Icon: https://streamlinehq.com</desc><path d="M22.5 21.75a1.5 1.5 0 0 1 -1.5 1.5H3a1.5 1.5 0 0 1 -1.5 -1.5V2.25A1.5 1.5 0 0 1 3 0.75h15a1.5 1.5 0 0 1 1.047 0.426l3 2.883a1.5 1.5 0 0 1 0.453 1.074Z" fill="none" stroke="#000000" stroke-linecap="round" stroke-linejoin="round" stroke-width="1"></path><path d="M6 12.75a6 6 0 1 0 12 0 6 6 0 1 0 -12 0Z" fill="none" stroke="#000000" stroke-linecap="round" stroke-linejoin="round" stroke-width="1"></path><path d="M10.5 12.75a1.5 1.5 0 1 0 3 0 1.5 1.5 0 1 0 -3 0Z" fill="none" stroke="#000000" stroke-linecap="round" stroke-linejoin="round" stroke-width="1"></path><path d="m13.06 11.69 3.183 -3.183" fill="none" stroke="#000000" stroke-linecap="round" stroke-linejoin="round" stroke-width="1"></path><path d="m10.94 13.81 -3.183 3.183" fill="none" stroke="#000000" stroke-linecap="round" stroke-linejoin="round" stroke-width="1"></path><path d="m13.06 13.81 3.183 3.183" fill="none" stroke="#000000" stroke-linecap="round" stroke-linejoin="round" stroke-width="1"></path><path d="M10.94 11.69 7.757 8.507" fill="none" stroke="#000000" stroke-linecap="round" stroke-linejoin="round" stroke-width="1"></path></svg>