<svg xmlns="http://www.w3.org/2000/svg" fill="none" viewBox="0 0 24 24" id="Image-File-Sync--Streamline-Ultimate"><desc>Image File Sync Streamline Icon: https://streamlinehq.com</desc><path stroke="#000000" stroke-linecap="round" stroke-linejoin="round" d="M15 18.75h-3.75v3.75" stroke-width="1"></path><path stroke="#000000" stroke-linecap="round" stroke-linejoin="round" d="M22.667 19.483c-0.3972 1.1607 -1.1664 2.158 -2.1882 2.8369 -1.0218 0.679 -2.2391 1.0017 -3.4631 0.9182 -1.224 -0.0835 -2.3862 -0.5687 -3.3063 -1.3802 -0.92 -0.8115 -1.5466 -1.904 -1.7824 -3.1079" stroke-width="1"></path><path stroke="#000000" stroke-linecap="round" stroke-linejoin="round" d="M19.5 15.75h3.75V12" stroke-width="1"></path><path stroke="#000000" stroke-linecap="round" stroke-linejoin="round" d="M11.833 15.0171c0.3972 -1.1608 1.1664 -2.158 2.1882 -2.837 1.0218 -0.6789 2.2391 -1.0017 3.4631 -0.9181 1.224 0.0835 2.3862 0.5686 3.3063 1.3801 0.9201 0.8115 1.5466 1.904 1.7824 3.108" stroke-width="1"></path><path stroke="#000000" stroke-linecap="round" stroke-linejoin="round" d="M8.25 20.25h-6c-0.39782 0 -0.77936 -0.158 -1.06066 -0.4393C0.908035 19.5294 0.75 19.1478 0.75 18.75V2.25c0 -0.39782 0.158035 -0.77936 0.43934 -1.06066C1.47064 0.908035 1.85218 0.75 2.25 0.75h10.629c0.3975 0.000085 0.7788 0.157982 1.06 0.439l2.872 2.872c0.281 0.2812 0.4389 0.66245 0.439 1.06V8.25" stroke-width="1"></path><path stroke="#000000" d="M5.25 6.375c-0.20711 0 -0.375 -0.16789 -0.375 -0.375s0.16789 -0.375 0.375 -0.375" stroke-width="1"></path><path stroke="#000000" d="M5.25 6.375c0.20711 0 0.375 -0.16789 0.375 -0.375s-0.16789 -0.375 -0.375 -0.375" stroke-width="1"></path><path stroke="#000000" stroke-linecap="round" stroke-linejoin="round" d="m12.257 9.8609 -1.007 -1.611c-0.0676 -0.10164 -0.1589 -0.18523 -0.2662 -0.2435 -0.1072 -0.05826 -0.2271 -0.08944 -0.3491 -0.09082 -0.122 -0.00138 -0.2426 0.02708 -0.3511 0.08291 -0.1085 0.05582 -0.2018 0.13733 -0.2716 0.23741l-2 2.851 -1.232 -0.987c-0.08116 -0.0651 -0.17496 -0.11251 -0.27544 -0.13937 -0.10048 -0.02685 -0.20546 -0.03251 -0.30824 -0.01662 -0.10279 0.0159 -0.20115 0.05299 -0.28883 0.10899 -0.08769 0.0559 -0.16277 0.1295 -0.22049 0.216l-1.937 3.981H9" stroke-width="1"></path></svg>