<svg viewBox="0 0 24 24" xmlns="http://www.w3.org/2000/svg" id="Image-File-Landscape--Streamline-Ultimate"><desc>Image File Landscape Streamline Icon: https://streamlinehq.com</desc><path d="M22.477 21.75a1.5 1.5 0 0 1 -1.5 1.5H3.023a1.5 1.5 0 0 1 -1.5 -1.5V2.25a1.5 1.5 0 0 1 1.5 -1.5h15a1.5 1.5 0 0 1 1.047 0.426l2.955 2.883a1.5 1.5 0 0 1 0.452 1.074Z" fill="none" stroke="#000000" stroke-linecap="round" stroke-linejoin="round" stroke-width="1"></path><path d="M6.023 7.5a2.25 2.25 0 1 0 4.5 0 2.25 2.25 0 1 0 -4.5 0Z" fill="none" stroke="#000000" stroke-linecap="round" stroke-linejoin="round" stroke-width="1"></path><path d="m18.813 18.2 -3.925 -5.888a1.011 1.011 0 0 0 -1.671 -0.019l-2.691 3.845L8.858 14.8a1.011 1.011 0 0 0 -1.474 0.229L5.273 18.2" fill="none" stroke="#000000" stroke-linecap="round" stroke-linejoin="round" stroke-width="1"></path></svg>