<svg viewBox="0 0 24 24" xmlns="http://www.w3.org/2000/svg" id="Image-File-Jpg--Streamline-Ultimate"><desc>Image File Jpg Streamline Icon: https://streamlinehq.com</desc><path d="M5.25 23.25h-3a1.5 1.5 0 0 1 -1.5 -1.5V2.25a1.5 1.5 0 0 1 1.5 -1.5h10.629a1.5 1.5 0 0 1 1.06 0.439l5.872 5.872a1.5 1.5 0 0 1 0.439 1.06v4.629" fill="none" stroke="#000000" stroke-linecap="round" stroke-linejoin="round" stroke-width="1"></path><path d="M20.25 8.25h-6a1.5 1.5 0 0 1 -1.5 -1.5v-6" fill="none" stroke="#000000" stroke-linecap="round" stroke-linejoin="round" stroke-width="1"></path><path d="M11.25 15.75v6a1.5 1.5 0 0 1 -1.5 1.5h-1.5" fill="none" stroke="#000000" stroke-linecap="round" stroke-linejoin="round" stroke-width="1"></path><path d="m14.25 23.25 0 -7.5" fill="none" stroke="#000000" stroke-linecap="round" stroke-linejoin="round" stroke-width="1"></path><path d="M14.25 15.75H15a2.25 2.25 0 0 1 0 4.5h-0.75" fill="none" stroke="#000000" stroke-linecap="round" stroke-linejoin="round" stroke-width="1"></path><path d="M22.5 20.25h0.75v1.5a1.5 1.5 0 0 1 -3 0v-4.5a1.5 1.5 0 0 1 1.5 -1.5h1.5" fill="none" stroke="#000000" stroke-linecap="round" stroke-linejoin="round" stroke-width="1"></path></svg>