<svg xmlns="http://www.w3.org/2000/svg" fill="none" viewBox="0 0 24 24" id="Image-File-Heart--Streamline-Ultimate"><desc>Image File Heart Streamline Icon: https://streamlinehq.com</desc><path stroke="#000000" stroke-linecap="round" stroke-linejoin="round" d="m17.2501 23.25 -5.114 -5.335c-0.4491 -0.4489 -0.7455 -1.0277 -0.8472 -1.6545 -0.1018 -0.6267 -0.0038 -1.2696 0.2802 -1.8375v0c0.2144 -0.4288 0.5277 -0.8004 0.914 -1.0844 0.3863 -0.284 0.8345 -0.4721 1.3078 -0.5488 0.4732 -0.0768 0.958 -0.04 1.4142 0.1073 0.4562 0.1473 0.8709 0.4009 1.21 0.7399l0.835 0.835 0.835 -0.835c0.339 -0.339 0.7537 -0.5926 1.2099 -0.7399 0.4563 -0.1473 0.941 -0.1841 1.4142 -0.1073 0.4733 0.0767 0.9215 0.2648 1.3078 0.5488 0.3863 0.284 0.6996 0.6556 0.9141 1.0844v0c0.2839 0.5679 0.3819 1.2108 0.2802 1.8375 -0.1018 0.6268 -0.3982 1.2056 -0.8472 1.6545l-5.114 5.335Z" stroke-width="1"></path><path stroke="#000000" stroke-linecap="round" stroke-linejoin="round" d="M8.25 20.25h-6c-0.39782 0 -0.77936 -0.158 -1.06066 -0.4393C0.908035 19.5294 0.75 19.1478 0.75 18.75V2.25c0 -0.39782 0.158035 -0.77936 0.43934 -1.06066C1.47064 0.908035 1.85218 0.75 2.25 0.75h10.629c0.3975 0.000085 0.7788 0.157982 1.06 0.439l2.872 2.872c0.281 0.2812 0.4389 0.66245 0.439 1.06v4.754" stroke-width="1"></path><path stroke="#000000" d="M5.25 6.375c-0.20711 0 -0.375 -0.16789 -0.375 -0.375s0.16789 -0.375 0.375 -0.375" stroke-width="1"></path><path stroke="#000000" d="M5.25 6.375c0.20711 0 0.375 -0.16789 0.375 -0.375s-0.16789 -0.375 -0.375 -0.375" stroke-width="1"></path><path stroke="#000000" stroke-linecap="round" stroke-linejoin="round" d="m12.177 9.7329 -0.927 -1.483c-0.0676 -0.10164 -0.1589 -0.18523 -0.2662 -0.2435 -0.1072 -0.05826 -0.2271 -0.08944 -0.3491 -0.09082 -0.122 -0.00138 -0.2426 0.02708 -0.3511 0.08291 -0.1085 0.05582 -0.2018 0.13733 -0.2716 0.23741l-2 2.851 -1.232 -0.987c-0.08116 -0.0651 -0.17496 -0.11251 -0.27544 -0.13937 -0.10048 -0.02685 -0.20546 -0.03251 -0.30824 -0.01662 -0.10279 0.0159 -0.20115 0.05299 -0.28883 0.10899 -0.08769 0.0559 -0.16277 0.1295 -0.22049 0.216l-1.937 3.981h4.5" stroke-width="1"></path></svg>