<svg xmlns="http://www.w3.org/2000/svg" fill="none" viewBox="0 0 24 24" id="Image-File-Home--Streamline-Ultimate"><desc>Image File Home Streamline Icon: https://streamlinehq.com</desc><path stroke="#000000" stroke-linecap="round" stroke-linejoin="round" d="M12.75 15.948v5.8c0 0.3978 0.158 0.7794 0.4393 1.0607s0.6629 0.4393 1.0607 0.4393h6c0.3978 0 0.7794 -0.158 1.0607 -0.4393s0.4393 -0.6629 0.4393 -1.0607v-5.8" stroke-width="1"></path><path stroke="#000000" stroke-linecap="round" stroke-linejoin="round" d="m11.25 17.2601 4.518 -3.953c0.4101 -0.3593 0.9368 -0.5573 1.482 -0.5573s1.0719 0.198 1.482 0.5573l4.518 3.953" stroke-width="1"></path><path stroke="#000000" stroke-linecap="round" stroke-linejoin="round" d="M18.75 23.25h-3v-3c0 -0.3978 0.158 -0.7794 0.4393 -1.0607s0.6629 -0.4393 1.0607 -0.4393c0.3978 0 0.7794 0.158 1.0607 0.4393s0.4393 0.6629 0.4393 1.0607v3Z" stroke-width="1"></path><path stroke="#000000" stroke-linecap="round" stroke-linejoin="round" d="M8.25 20.25h-6c-0.39782 0 -0.77936 -0.158 -1.06066 -0.4393C0.908035 19.5294 0.75 19.1478 0.75 18.75V2.25c0 -0.39782 0.158035 -0.77936 0.43934 -1.06066C1.47064 0.908035 1.85218 0.75 2.25 0.75h10.629c0.3975 0.000085 0.7788 0.157982 1.06 0.439l2.872 2.872c0.281 0.2812 0.4389 0.66245 0.439 1.06V9" stroke-width="1"></path><path stroke="#000000" d="M5.25 6.375c-0.20711 0 -0.375 -0.16789 -0.375 -0.375s0.16789 -0.375 0.375 -0.375" stroke-width="1"></path><path stroke="#000000" d="M5.25 6.375c0.20711 0 0.375 -0.16789 0.375 -0.375s-0.16789 -0.375 -0.375 -0.375" stroke-width="1"></path><path stroke="#000000" stroke-linecap="round" stroke-linejoin="round" d="M13.127 11.2531 11.25 8.25308c-0.0676 -0.10164 -0.1589 -0.18523 -0.2662 -0.2435 -0.1072 -0.05827 -0.2271 -0.08945 -0.3491 -0.09083 -0.122 -0.00138 -0.2426 0.02708 -0.3511 0.08291 -0.1085 0.05583 -0.2018 0.13733 -0.2716 0.23742l-2 2.85102 -1.232 -0.99c-0.08116 -0.0651 -0.17496 -0.11254 -0.27544 -0.13939 -0.10048 -0.02686 -0.20546 -0.03252 -0.30824 -0.01662 -0.10279 0.01589 -0.20115 0.05299 -0.28883 0.10891 -0.08769 0.056 -0.16277 0.1296 -0.22049 0.2161l-1.937 3.981h4.5" stroke-width="1"></path></svg>