<svg xmlns="http://www.w3.org/2000/svg" viewBox="0 0 24 24" id="Image-Document-Jpg-1--Streamline-Ultimate"><desc>Image Document Jpg 1 Streamline Icon: https://streamlinehq.com</desc><defs></defs><title>image-document-jpg-1</title><path d="M1.75 0.75h20.5s1 0 1 1v20.5s0 1 -1 1H1.75s-1 0 -1 -1V1.75s0 -1 1 -1" fill="none" stroke="#000000" stroke-linecap="round" stroke-linejoin="round" stroke-width="1"></path><path d="M7.5 10.5v6A1.5 1.5 0 0 1 6 18H4.5" fill="none" stroke="#000000" stroke-linecap="round" stroke-linejoin="round" stroke-width="1"></path><path d="m10.5 18 0 -7.5" fill="none" stroke="#000000" stroke-linecap="round" stroke-linejoin="round" stroke-width="1"></path><path d="M10.5 10.5h0.75a2.25 2.25 0 0 1 0 4.5h-0.75" fill="none" stroke="#000000" stroke-linecap="round" stroke-linejoin="round" stroke-width="1"></path><path d="M18.75 15h0.75v1.5a1.5 1.5 0 0 1 -3 0V12a1.5 1.5 0 0 1 1.5 -1.5h1.5" fill="none" stroke="#000000" stroke-linecap="round" stroke-linejoin="round" stroke-width="1"></path></svg>