<svg xmlns="http://www.w3.org/2000/svg" fill="none" viewBox="0 0 24 24" id="Image-File-Warning--Streamline-Ultimate"><desc>Image File Warning Streamline Icon: https://streamlinehq.com</desc><path stroke="#000000" d="M17.25 21c-0.2071 0 -0.375 -0.1679 -0.375 -0.375s0.1679 -0.375 0.375 -0.375" stroke-width="1"></path><path stroke="#000000" d="M17.25 21c0.2071 0 0.375 -0.1679 0.375 -0.375s-0.1679 -0.375 -0.375 -0.375" stroke-width="1"></path><path stroke="#000000" stroke-linecap="round" stroke-linejoin="round" d="M17.25 18v-3" stroke-width="1"></path><path stroke="#000000" stroke-linecap="round" stroke-linejoin="round" d="M23.063 20.682c0.1354 0.2705 0.1994 0.5711 0.1858 0.8733 -0.0135 0.3022 -0.1041 0.5959 -0.2631 0.8533 -0.159 0.2573 -0.3812 0.4697 -0.6455 0.617 -0.2642 0.1472 -0.5617 0.2245 -0.8642 0.2244h-8.452c-0.3025 0.0001 -0.6 -0.0772 -0.8642 -0.2244 -0.2643 -0.1473 -0.4865 -0.3597 -0.6455 -0.617 -0.159 -0.2574 -0.2496 -0.5511 -0.2631 -0.8533 -0.0136 -0.3022 0.0504 -0.6028 0.1858 -0.8733l4.226 -8.451c0.1473 -0.2949 0.3738 -0.5428 0.6541 -0.7161s0.6033 -0.2651 0.9329 -0.2651 0.6526 0.0918 0.9329 0.2651 0.5068 0.4212 0.6541 0.7161l4.226 8.451Z" stroke-width="1"></path><path stroke="#000000" stroke-linecap="round" stroke-linejoin="round" d="M7.5 20.25H2.25c-0.39782 0 -0.77936 -0.158 -1.06066 -0.4393C0.908035 19.5294 0.75 19.1478 0.75 18.75V2.25c0 -0.39782 0.158035 -0.77936 0.43934 -1.06066C1.47064 0.908035 1.85218 0.75 2.25 0.75h10.629c0.3975 0.000085 0.7788 0.157982 1.06 0.439l2.872 2.872c0.281 0.2812 0.4389 0.66245 0.439 1.06V8.25" stroke-width="1"></path><path stroke="#000000" d="M5.25 6.375c-0.20711 0 -0.375 -0.16789 -0.375 -0.375s0.16789 -0.375 0.375 -0.375" stroke-width="1"></path><path stroke="#000000" d="M5.25 6.375c0.20711 0 0.375 -0.16789 0.375 -0.375s-0.16789 -0.375 -0.375 -0.375" stroke-width="1"></path><path stroke="#000000" stroke-linecap="round" stroke-linejoin="round" d="m12.856 10.8199 -1.606 -2.57c-0.0676 -0.10164 -0.1589 -0.18523 -0.2662 -0.2435 -0.1072 -0.05826 -0.2271 -0.08944 -0.3491 -0.09082 -0.122 -0.00138 -0.2426 0.02708 -0.3511 0.08291 -0.1085 0.05582 -0.2018 0.13733 -0.2716 0.23741l-2 2.851 -1.232 -0.987c-0.08116 -0.0651 -0.17496 -0.11251 -0.27544 -0.13937 -0.10048 -0.02685 -0.20546 -0.03251 -0.30824 -0.01662 -0.10279 0.0159 -0.20115 0.05299 -0.28883 0.10899 -0.08769 0.0559 -0.16277 0.1295 -0.22049 0.216l-1.937 3.981h6" stroke-width="1"></path></svg>