<svg viewBox="0 0 24 24" xmlns="http://www.w3.org/2000/svg" id="Image-File-Gif--Streamline-Ultimate"><desc>Image File Gif Streamline Icon: https://streamlinehq.com</desc><path d="M8.25 23.25h-6a1.5 1.5 0 0 1 -1.5 -1.5V2.25a1.5 1.5 0 0 1 1.5 -1.5h10.629a1.5 1.5 0 0 1 1.06 0.439l5.872 5.872a1.5 1.5 0 0 1 0.439 1.06v4.629" fill="none" stroke="#000000" stroke-linecap="round" stroke-linejoin="round" stroke-width="1"></path><path d="M20.25 8.25h-6a1.5 1.5 0 0 1 -1.5 -1.5v-6" fill="none" stroke="#000000" stroke-linecap="round" stroke-linejoin="round" stroke-width="1"></path><path d="M20.25 23.25v-6a1.5 1.5 0 0 1 1.5 -1.5h1.5" fill="none" stroke="#000000" stroke-linecap="round" stroke-linejoin="round" stroke-width="1"></path><path d="m20.25 20.25 2.25 0" fill="none" stroke="#000000" stroke-linecap="round" stroke-linejoin="round" stroke-width="1"></path><path d="m17.25 23.25 0 -7.5" fill="none" stroke="#000000" stroke-linecap="round" stroke-linejoin="round" stroke-width="1"></path><path d="M13.5 20.25h0.75v1.5a1.5 1.5 0 0 1 -3 0v-4.5a1.5 1.5 0 0 1 1.5 -1.5h1.5" fill="none" stroke="#000000" stroke-linecap="round" stroke-linejoin="round" stroke-width="1"></path></svg>