<svg xmlns="http://www.w3.org/2000/svg" fill="none" viewBox="0 0 24 24" id="Image-File-Check--Streamline-Ultimate"><desc>Image File Check Streamline Icon: https://streamlinehq.com</desc><path stroke="#000000" stroke-linecap="round" stroke-linejoin="round" d="M17.25 23.25c3.3137 0 6 -2.6863 6 -6s-2.6863 -6 -6 -6 -6 2.6863 -6 6 2.6863 6 6 6Z" stroke-width="1"></path><path stroke="#000000" stroke-linecap="round" stroke-linejoin="round" d="m19.9239 15.5061 -2.905 3.873c-0.0646 0.0858 -0.1468 0.1568 -0.2412 0.2082 -0.0944 0.0514 -0.1987 0.0819 -0.3058 0.0896 -0.1072 0.0077 -0.2148 -0.0077 -0.3155 -0.0451 -0.1007 -0.0374 -0.1923 -0.0959 -0.2685 -0.1717l-1.5 -1.5" stroke-width="1"></path><path stroke="#000000" stroke-linecap="round" stroke-linejoin="round" d="M8.25 20.25h-6c-0.39782 0 -0.77936 -0.158 -1.06066 -0.4393C0.908035 19.5294 0.75 19.1478 0.75 18.75V2.25c0 -0.39782 0.158035 -0.77936 0.43934 -1.06066C1.47064 0.908035 1.85218 0.75 2.25 0.75h10.629c0.3975 0.000085 0.7788 0.157982 1.06 0.439l2.872 2.872c0.281 0.2812 0.4389 0.66245 0.439 1.06V8.25" stroke-width="1"></path><path stroke="#000000" d="M5.25 6.37109c-0.20711 0 -0.375 -0.16789 -0.375 -0.375 0 -0.2071 0.16789 -0.375 0.375 -0.375" stroke-width="1"></path><path stroke="#000000" d="M5.25 6.37109c0.20711 0 0.375 -0.16789 0.375 -0.375 0 -0.2071 -0.16789 -0.375 -0.375 -0.375" stroke-width="1"></path><path stroke="#000000" stroke-linecap="round" stroke-linejoin="round" d="m11.729 9.0169 -0.479 -0.767c-0.0676 -0.10164 -0.1589 -0.18523 -0.2662 -0.2435 -0.1072 -0.05826 -0.2271 -0.08944 -0.3491 -0.09082 -0.122 -0.00138 -0.2426 0.02708 -0.3511 0.08291 -0.1085 0.05582 -0.2018 0.13733 -0.2716 0.23741l-2 2.851 -1.232 -0.987c-0.08116 -0.0651 -0.17496 -0.11251 -0.27544 -0.13937 -0.10048 -0.02685 -0.20546 -0.03251 -0.30824 -0.01662 -0.10279 0.0159 -0.20115 0.05299 -0.28883 0.10899 -0.08769 0.0559 -0.16277 0.1295 -0.22049 0.216l-1.937 3.981h4.5" stroke-width="1"></path></svg>