<svg viewBox="0 0 24 24" xmlns="http://www.w3.org/2000/svg" id="Task-Text--Streamline-Ultimate"><desc>Task Text Streamline Icon: https://streamlinehq.com</desc><path d="M12.75 5.248h-7.5v-3a1.5 1.5 0 0 1 1.5 -1.5h4.5a1.5 1.5 0 0 1 1.5 1.5Z" fill="none" stroke="#000000" stroke-linecap="round" stroke-linejoin="round" stroke-width="1"></path><path d="M8.25 20.248h-6a1.5 1.5 0 0 1 -1.5 -1.5v-15a1.5 1.5 0 0 1 1.5 -1.5h3" fill="none" stroke="#000000" stroke-linecap="round" stroke-linejoin="round" stroke-width="1"></path><path d="M12.75 2.248h3a1.5 1.5 0 0 1 1.5 1.5v4.5" fill="none" stroke="#000000" stroke-linecap="round" stroke-linejoin="round" stroke-width="1"></path><path d="m8.25 17.248 -4.5 0 0 -12 10.5 0 0 2.997" fill="none" stroke="#000000" stroke-linecap="round" stroke-linejoin="round" stroke-width="1"></path><path d="m11.25 11.248 12 0 0 12 -12 0Z" fill="none" stroke="#000000" stroke-linecap="round" stroke-linejoin="round" stroke-width="1"></path><path d="m14.25 14.248 6 0" fill="none" stroke="#000000" stroke-linecap="round" stroke-linejoin="round" stroke-width="1"></path><path d="m14.25 17.248 6 0" fill="none" stroke="#000000" stroke-linecap="round" stroke-linejoin="round" stroke-width="1"></path><path d="m14.25 20.248 2.25 0" fill="none" stroke="#000000" stroke-linecap="round" stroke-linejoin="round" stroke-width="1"></path></svg>