<svg xmlns="http://www.w3.org/2000/svg" fill="none" viewBox="0 0 24 24" id="Landmark-Golden-Temple--Streamline-Ultimate"><desc>Landmark Golden Temple Streamline Icon: https://streamlinehq.com</desc><path stroke="#000000" stroke-linecap="round" stroke-linejoin="round" d="M15.5 10.929c0.2882 -0.1627 0.5308 -0.3952 0.7055 -0.6762 0.1748 -0.28099 0.276 -0.60142 0.2945 -0.9318C16.5 6.643 14 6.643 12 4.5c-2 2.143 -4.5 2.143 -4.5 4.821 0.01847 0.33038 0.11974 0.65081 0.29449 0.9318 0.17474 0.281 0.41736 0.5135 0.70551 0.6762" stroke-width="1"></path><path stroke="#000000" stroke-linecap="round" stroke-linejoin="round" d="M18.749 8.494c0.5582 -0.52862 1.0609 -1.113 1.5 -1.744C21 8 22.5 8.84 22.5 9.875c-0.0197 0.2522 -0.0977 0.4964 -0.2279 0.7133 -0.1301 0.2169 -0.3088 0.4006 -0.5221 0.5367v3.125" stroke-width="1"></path><path stroke="#000000" stroke-linecap="round" stroke-linejoin="round" d="M21.75 23.25v-9c0 -0.3978 -0.158 -0.7794 -0.4393 -1.0607s-0.6629 -0.4393 -1.0607 -0.4393h-1.5" stroke-width="1"></path><path stroke="#000000" stroke-linecap="round" stroke-linejoin="round" d="M2.25 23.25v-9c0 -0.3978 0.15804 -0.7794 0.43934 -1.0607S3.35218 12.75 3.75 12.75h1.5" stroke-width="1"></path><path stroke="#000000" stroke-linecap="round" stroke-linejoin="round" d="M0.75 15.75h22.5" stroke-width="1"></path><path stroke="#000000" stroke-linecap="round" stroke-linejoin="round" d="M14.25 23.25V21c0 -0.5967 -0.2371 -1.169 -0.659 -1.591 -0.422 -0.4219 -0.9943 -0.659 -1.591 -0.659s-1.169 0.2371 -1.591 0.659c-0.42195 0.422 -0.659 0.9943 -0.659 1.591v2.25" stroke-width="1"></path><path stroke="#000000" stroke-linecap="round" stroke-linejoin="round" d="M20.25 4.5V3" stroke-width="1"></path><path stroke="#000000" stroke-linecap="round" stroke-linejoin="round" d="M5.251 8.494C4.69244 7.96543 4.18948 7.38105 3.75 6.75 3 8 1.5 8.84 1.5 9.875c0.01973 0.2522 0.09773 0.4964 0.22788 0.7133 0.13015 0.2169 0.30888 0.4006 0.52212 0.5367v3.125" stroke-width="1"></path><path stroke="#000000" stroke-linecap="round" stroke-linejoin="round" d="M3.75 4.5V3" stroke-width="1"></path><path stroke="#000000" stroke-linecap="round" stroke-linejoin="round" d="M17.25 18v5.25" stroke-width="1"></path><path stroke="#000000" stroke-linecap="round" stroke-linejoin="round" d="M6.75 18v5.25" stroke-width="1"></path><path stroke="#000000" d="M12 1.5c-0.2071 0 -0.375 -0.16789 -0.375 -0.375 0 -0.207107 0.1679 -0.375 0.375 -0.375" stroke-width="1"></path><path stroke="#000000" d="M12 1.5c0.2071 0 0.375 -0.16789 0.375 -0.375 0 -0.207107 -0.1679 -0.375 -0.375 -0.375" stroke-width="1"></path></svg>