<svg xmlns="http://www.w3.org/2000/svg" viewBox="0 0 24 24" id="Sheik-Zayed-Mosque-Uae--Streamline-Ultimate"><desc>Sheik Zayed Mosque UAE Streamline Icon: https://streamlinehq.com</desc><defs></defs><title>sheik-zayed-mosque-UAE</title><path d="M7.5 14h9v9h-9Z" fill="none" stroke="#000000" stroke-linecap="round" stroke-linejoin="round" stroke-width="1"></path><path d="M2.5 13h5v10h-5Z" fill="none" stroke="#000000" stroke-linecap="round" stroke-linejoin="round" stroke-width="1"></path><path d="M16.5 13h5v10h-5Z" fill="none" stroke="#000000" stroke-linecap="round" stroke-linejoin="round" stroke-width="1"></path><path d="m1 16 1.5 0 0 7L1 23" fill="none" stroke="#000000" stroke-linecap="round" stroke-linejoin="round" stroke-width="1"></path><path d="m23 22.999 -1.5 0 0 -7 1.5 0" fill="none" stroke="#000000" stroke-linecap="round" stroke-linejoin="round" stroke-width="1"></path><path d="M13.5 18.5c0 -0.828 -1.5 -1.5 -1.5 -1.5s-1.5 0.672 -1.5 1.5V23h3Z" fill="none" stroke="#000000" stroke-linecap="round" stroke-linejoin="round" stroke-width="1"></path><path d="M16.5 13c0 -2.273 1.119 -3.182 2.5 -3.182s2.5 0.909 2.5 3.182" fill="none" stroke="#000000" stroke-linecap="round" stroke-linejoin="round" stroke-width="1"></path><path d="M20.5 10.206c0 -2.273 1.119 -3.182 2.5 -3.182" fill="none" stroke="#000000" stroke-linecap="round" stroke-linejoin="round" stroke-width="1"></path><path d="M2.5 13c0 -2.273 1.119 -3.182 2.5 -3.182s2.5 0.909 2.5 3.182" fill="none" stroke="#000000" stroke-linecap="round" stroke-linejoin="round" stroke-width="1"></path><path d="M1 7.024c1.381 0 2.5 0.909 2.5 3.182" fill="none" stroke="#000000" stroke-linecap="round" stroke-linejoin="round" stroke-width="1"></path><path d="M7.5 10.5h9V14h-9Z" fill="none" stroke="#000000" stroke-linecap="round" stroke-linejoin="round" stroke-width="1"></path><path d="M12 2.5 12 1" fill="none" stroke="#000000" stroke-linecap="round" stroke-linejoin="round" stroke-width="1"></path><path d="M16.488 10.5A5.192 5.192 0 0 0 17 8.283C17 4.5 14.5 2.492 12 2.5s-5 2 -5 5.787a5.192 5.192 0 0 0 0.512 2.213Z" fill="none" stroke="#000000" stroke-linecap="round" stroke-linejoin="round" stroke-width="1"></path></svg>