<svg viewBox="0 0 24 24" xmlns="http://www.w3.org/2000/svg" id="Pin-X-Mark-3--Streamline-Ultimate"><desc>Pin X Mark 3 Streamline Icon: https://streamlinehq.com</desc><path d="M19.5 8.25c0 4.221 -2.933 6.649 -5.131 9a26.124 26.124 0 0 0 -2.369 3 25.821 25.821 0 0 0 -2.363 -2.993C7.439 14.907 4.5 12.475 4.5 8.25a7.5 7.5 0 0 1 15 0Z" fill="none" stroke="#000000" stroke-linecap="round" stroke-linejoin="round" stroke-width="1"></path><path d="m15.75 21.75 3.75 1.5" fill="none" stroke="#000000" stroke-linecap="round" stroke-linejoin="round" stroke-width="1"></path><path d="m4.5 17.25 1.875 0.75" fill="none" stroke="#000000" stroke-linecap="round" stroke-linejoin="round" stroke-width="1"></path><path d="m8.25 21.75 -3.75 1.5" fill="none" stroke="#000000" stroke-linecap="round" stroke-linejoin="round" stroke-width="1"></path><path d="m19.5 17.25 -1.875 0.75" fill="none" stroke="#000000" stroke-linecap="round" stroke-linejoin="round" stroke-width="1"></path><path d="M9 8.25a3 3 0 1 0 6 0 3 3 0 1 0 -6 0Z" fill="none" stroke="#000000" stroke-linecap="round" stroke-linejoin="round" stroke-width="1"></path></svg>