<svg xmlns="http://www.w3.org/2000/svg" fill="none" viewBox="0 0 24 24" id="Pin-Location-2--Streamline-Ultimate"><desc>Pin Location 2 Streamline Icon: https://streamlinehq.com</desc><path stroke="#000000" stroke-linecap="round" stroke-linejoin="round" d="M12 10.5c2.4853 0 4.5 -2.01472 4.5 -4.5S14.4853 1.5 12 1.5C9.51472 1.5 7.5 3.51472 7.5 6s2.01472 4.5 4.5 4.5Z" stroke-width="1"></path><path stroke="#000000" stroke-linecap="round" stroke-linejoin="round" d="M12 10.5v8.25" stroke-width="1"></path><path stroke="#000000" stroke-linecap="round" stroke-linejoin="round" d="M15 15.155c4.338 0.461 7.5 1.9 7.5 3.6 0 2.071 -4.7 3.75 -10.5 3.75S1.5 20.821 1.5 18.75c0 -1.7 3.149 -3.127 7.471 -3.592" stroke-width="1"></path><path stroke="#000000" d="M11.625 5.25c-0.2071 0 -0.375 -0.16789 -0.375 -0.375s0.1679 -0.375 0.375 -0.375" stroke-width="1"></path><path stroke="#000000" d="M11.625 5.25c0.2071 0 0.375 -0.16789 0.375 -0.375s-0.1679 -0.375 -0.375 -0.375" stroke-width="1"></path></svg>