<svg viewBox="0 0 24 24" xmlns="http://www.w3.org/2000/svg" id="Face-Id-5--Streamline-Ultimate"><desc>Face Id 5 Streamline Icon: https://streamlinehq.com</desc><path d="M23.25 18.75v3a1.5 1.5 0 0 1 -1.5 1.5h-3" fill="none" stroke="#000000" stroke-linecap="round" stroke-linejoin="round" stroke-width="1"></path><path d="M18.75 0.75h3a1.5 1.5 0 0 1 1.5 1.5v3" fill="none" stroke="#000000" stroke-linecap="round" stroke-linejoin="round" stroke-width="1"></path><path d="M0.75 5.25v-3a1.5 1.5 0 0 1 1.5 -1.5h3" fill="none" stroke="#000000" stroke-linecap="round" stroke-linejoin="round" stroke-width="1"></path><path d="M5.25 23.25h-3a1.5 1.5 0 0 1 -1.5 -1.5v-3" fill="none" stroke="#000000" stroke-linecap="round" stroke-linejoin="round" stroke-width="1"></path><path d="M8.445 6.531a6.858 6.858 0 0 0 7.643 1.536" fill="none" stroke="#000000" stroke-linecap="round" stroke-linejoin="round" stroke-width="1"></path><path d="M7.875 8.625a4.125 4.125 0 1 0 8.25 0 4.125 4.125 0 1 0 -8.25 0Z" fill="none" stroke="#000000" stroke-linecap="round" stroke-linejoin="round" stroke-width="1"></path><path d="M18.75 19.5a6.964 6.964 0 0 0 -13.5 0" fill="none" stroke="#000000" stroke-linecap="round" stroke-linejoin="round" stroke-width="1"></path></svg>