<svg viewBox="0 0 24 24" xmlns="http://www.w3.org/2000/svg" id="Face-Id-6--Streamline-Ultimate"><desc>Face Id 6 Streamline Icon: https://streamlinehq.com</desc><path d="M23.25 18.75v3a1.5 1.5 0 0 1 -1.5 1.5h-3" fill="none" stroke="#000000" stroke-linecap="round" stroke-linejoin="round" stroke-width="1"></path><path d="M18.75 0.75h3a1.5 1.5 0 0 1 1.5 1.5v3" fill="none" stroke="#000000" stroke-linecap="round" stroke-linejoin="round" stroke-width="1"></path><path d="M0.75 5.25v-3a1.5 1.5 0 0 1 1.5 -1.5h3" fill="none" stroke="#000000" stroke-linecap="round" stroke-linejoin="round" stroke-width="1"></path><path d="M5.25 23.25h-3a1.5 1.5 0 0 1 -1.5 -1.5v-3" fill="none" stroke="#000000" stroke-linecap="round" stroke-linejoin="round" stroke-width="1"></path><path d="M5.291 19.5a6.751 6.751 0 0 1 13.418 0" fill="none" stroke="#000000" stroke-linecap="round" stroke-linejoin="round" stroke-width="1"></path><path d="M7.876 7.986v1a5.91 5.91 0 0 1 -0.859 3.273" fill="none" stroke="#000000" stroke-linecap="round" stroke-linejoin="round" stroke-width="1"></path><path d="M16.124 7.986v1a5.91 5.91 0 0 0 0.859 3.273" fill="none" stroke="#000000" stroke-linecap="round" stroke-linejoin="round" stroke-width="1"></path><path d="M7.888 8.205A5.484 5.484 0 0 0 12 6.305a5.484 5.484 0 0 0 4.112 1.9" fill="none" stroke="#000000" stroke-linecap="round" stroke-linejoin="round" stroke-width="1"></path><path d="M7.875 7.875a4.125 4.125 0 1 0 8.25 0 4.125 4.125 0 1 0 -8.25 0Z" fill="none" stroke="#000000" stroke-linecap="round" stroke-linejoin="round" stroke-width="1"></path></svg>