<svg viewBox="0 0 24 24" xmlns="http://www.w3.org/2000/svg" id="Face-Id-Approved--Streamline-Ultimate"><desc>Face Id Approved Streamline Icon: https://streamlinehq.com</desc><path d="M19.5 9h1.917a1.833 1.833 0 0 1 1.833 1.833v10.584a1.833 1.833 0 0 1 -1.833 1.833h-4.584A1.833 1.833 0 0 1 15 21.417V18" fill="none" stroke="#000000" stroke-linecap="round" stroke-linejoin="round" stroke-width="1"></path><path d="M10.993 17.261v-2.277l0.764 0.128a2.276 2.276 0 0 0 2.65 -2.246V11l0.71 -0.177a1.139 1.139 0 0 0 0.671 -1.736l-1.381 -2.07v-0.568c0 -3.358 -3.4 -6.038 -7.449 -5.664a6.824 6.824 0 0 0 -2.794 12.709v3.767" fill="none" stroke="#000000" stroke-linecap="round" stroke-linejoin="round" stroke-width="1"></path><path d="M21 15.375 18.375 18l-1.125 -1.5" fill="none" stroke="#000000" stroke-linecap="round" stroke-linejoin="round" stroke-width="1"></path></svg>