<svg xmlns="http://www.w3.org/2000/svg" fill="none" viewBox="0 0 24 24" id="Police-Polygraph--Streamline-Ultimate"><desc>Police Polygraph Streamline Icon: https://streamlinehq.com</desc><path stroke="#000000" stroke-linecap="round" stroke-linejoin="round" d="M21.75 14.25H2.25c-0.82843 0 -1.5 0.6716 -1.5 1.5v6c0 0.8284 0.67157 1.5 1.5 1.5h19.5c0.8284 0 1.5 -0.6716 1.5 -1.5v-6c0 -0.8284 -0.6716 -1.5 -1.5 -1.5Z" stroke-width="1"></path><path stroke="#000000" stroke-linecap="round" stroke-linejoin="round" d="M23.25 5.25v-3c0 -0.39782 -0.158 -0.77936 -0.4393 -1.06066C22.5294 0.908035 22.1478 0.75 21.75 0.75h-3c-0.3978 0 -0.7794 0.158035 -1.0607 0.43934 -0.2813 0.2813 -0.4393 0.66284 -0.4393 1.06066v3c0 0.79565 0.3161 1.55871 0.8787 2.12132 0.5626 0.56261 1.3257 0.87868 2.1213 0.87868 0.7956 0 1.5587 -0.31607 2.1213 -0.87868 0.5626 -0.56261 0.8787 -1.32567 0.8787 -2.12132Z" stroke-width="1"></path><path stroke="#000000" stroke-linecap="round" stroke-linejoin="round" d="M17.25 3.75h6" stroke-width="1"></path><path stroke="#000000" stroke-linecap="round" stroke-linejoin="round" d="M20.25 8.25v1.5c0 0.3978 -0.158 0.7794 -0.4393 1.0607s-0.6629 0.4393 -1.0607 0.4393h-6c-0.7956 0 -1.5587 -0.3161 -2.1213 -0.8787C10.0661 9.80871 9.75 9.04565 9.75 8.25v-4.5c0 -0.79565 -0.31607 -1.55871 -0.87868 -2.12132C8.30871 1.06607 7.54565 0.75 6.75 0.75s-1.55871 0.31607 -2.12132 0.87868C4.06607 2.19129 3.75 2.95435 3.75 3.75v10.5" stroke-width="1"></path><path stroke="#000000" stroke-linecap="round" stroke-linejoin="round" d="M0.75 17.25h3" stroke-width="1"></path><path stroke="#000000" stroke-linecap="round" stroke-linejoin="round" d="M0.75 20.25h3" stroke-width="1"></path><path stroke="#000000" stroke-linecap="round" stroke-linejoin="round" d="M15.75 17.25h-9v3h9v-3Z" stroke-width="1"></path><path stroke="#000000" d="M19.5 19.125c-0.2071 0 -0.375 -0.1679 -0.375 -0.375s0.1679 -0.375 0.375 -0.375" stroke-width="1"></path><path stroke="#000000" d="M19.5 19.125c0.2071 0 0.375 -0.1679 0.375 -0.375s-0.1679 -0.375 -0.375 -0.375" stroke-width="1"></path></svg>