<svg viewBox="0 0 24 24" xmlns="http://www.w3.org/2000/svg" id="Police-Hat-1--Streamline-Ultimate"><desc>Police Hat 1 Streamline Icon: https://streamlinehq.com</desc><path d="M16.5 12h5.966c0.188 -0.377 0.4 -0.817 0.619 -1.246a1.5 1.5 0 0 0 -0.944 -2.134 7.425 7.425 0 0 1 -4.122 -2.98A7.4 7.4 0 0 0 12 2.25a7.4 7.4 0 0 0 -6.019 3.39 7.425 7.425 0 0 1 -4.122 2.98 1.5 1.5 0 0 0 -0.944 2.134c0.22 0.429 0.431 0.869 0.619 1.246H7.5" fill="none" stroke="#000000" stroke-linecap="round" stroke-linejoin="round" stroke-width="1"></path><path d="M1.5 15A12.055 12.055 0 0 0 12 21.75 12.055 12.055 0 0 0 22.5 15Z" fill="none" stroke="#000000" stroke-linecap="round" stroke-linejoin="round" stroke-width="1"></path><path d="M14.415 10.335 12 12.75l-2.415 -2.415 0 -3.22 4.83 0 0 3.22z" fill="none" stroke="#000000" stroke-linecap="round" stroke-linejoin="round" stroke-width="1"></path><path d="m1.5 12 0 3" fill="none" stroke="#000000" stroke-linecap="round" stroke-linejoin="round" stroke-width="1"></path><path d="m22.5 12 0 3" fill="none" stroke="#000000" stroke-linecap="round" stroke-linejoin="round" stroke-width="1"></path></svg>