<svg viewBox="0 0 24 24" xmlns="http://www.w3.org/2000/svg" id="Police-Hat-6--Streamline-Ultimate"><desc>Police Hat 6 Streamline Icon: https://streamlinehq.com</desc><path d="M2 10.5V3.2a1.507 1.507 0 0 1 0.99 -1.41A33.282 33.282 0 0 1 11.75 0.75a33.282 33.282 0 0 1 8.76 1.04 1.507 1.507 0 0 1 0.99 1.41v7.3" fill="none" stroke="#000000" stroke-linecap="round" stroke-linejoin="round" stroke-width="1"></path><path d="M2 16.5s0.75 6.75 9.75 6.75 9.75 -6.75 9.75 -6.75Z" fill="none" stroke="#000000" stroke-linecap="round" stroke-linejoin="round" stroke-width="1"></path><path d="m2 13.5 19.5 0" fill="none" stroke="#000000" stroke-linecap="round" stroke-linejoin="round" stroke-width="1"></path><path d="M11.75 10.5C9.8 9.325 8.593 8.929 8.593 7.007V4.5h6v2.507c0 1.782 -1.116 2.287 -2.843 3.493Z" fill="none" stroke="#000000" stroke-linecap="round" stroke-linejoin="round" stroke-width="1"></path></svg>