<svg viewBox="0 0 24 24" xmlns="http://www.w3.org/2000/svg" id="Police-Hat-7--Streamline-Ultimate"><desc>Police Hat 7 Streamline Icon: https://streamlinehq.com</desc><path d="M17.25 3.751H6.75a6 6 0 0 0 -5.97 6.6l0.633 6.328a3.087 3.087 0 0 0 2.338 2.692 37.973 37.973 0 0 0 8.249 0.878 37.973 37.973 0 0 0 8.249 -0.882 3.087 3.087 0 0 0 2.338 -2.692l0.633 -6.328a6 6 0 0 0 -5.97 -6.596Z" fill="none" stroke="#000000" stroke-linecap="round" stroke-linejoin="round" stroke-width="1"></path><path d="M20.25 19.368V14.25a3 3 0 0 0 -3 -3H6.75a3 3 0 0 0 -3 3v5.117" fill="none" stroke="#000000" stroke-linecap="round" stroke-linejoin="round" stroke-width="1"></path><path d="M15 15.75c0 0.828 -1.343 1.5 -3 1.5s-3 -0.672 -3 -1.5" fill="none" stroke="#000000" stroke-linecap="round" stroke-linejoin="round" stroke-width="1"></path></svg>