<svg viewBox="0 0 24 24" xmlns="http://www.w3.org/2000/svg" id="Police-Hat-5--Streamline-Ultimate"><desc>Police Hat 5 Streamline Icon: https://streamlinehq.com</desc><path d="M4.889 19.935C7.337 16.464 12.658 12.684 21.75 8.5" fill="none" stroke="#000000" stroke-linecap="round" stroke-linejoin="round" stroke-width="1"></path><path d="M12 13.71A80.471 80.471 0 0 0 2.25 8.5" fill="none" stroke="#000000" stroke-linecap="round" stroke-linejoin="round" stroke-width="1"></path><path d="m14.25 16.75 3 -1.5" fill="none" stroke="#000000" stroke-linecap="round" stroke-linejoin="round" stroke-width="1"></path><path d="m6.309 10.468 5.081 -7.114a0.75 0.75 0 0 1 1.22 0l5.08 7.112" fill="none" stroke="#000000" stroke-linecap="round" stroke-linejoin="round" stroke-width="1"></path><path d="M8.674 7.157A25.455 25.455 0 0 0 2.25 8.5L0.936 17.7a1.5 1.5 0 0 0 1.125 1.668A42.349 42.349 0 0 0 12 20.5a42.349 42.349 0 0 0 9.939 -1.137 1.5 1.5 0 0 0 1.124 -1.663L21.75 8.5a25.455 25.455 0 0 0 -6.424 -1.343" fill="none" stroke="#000000" stroke-linecap="round" stroke-linejoin="round" stroke-width="1"></path></svg>