<svg viewBox="0 0 24 24" xmlns="http://www.w3.org/2000/svg" id="Police-Hat-4--Streamline-Ultimate"><desc>Police Hat 4 Streamline Icon: https://streamlinehq.com</desc><path d="m3.75 14.5 16.5 0" fill="none" stroke="#000000" stroke-linecap="round" stroke-linejoin="round" stroke-width="1"></path><path d="m20.25 17.5 -16.5 0" fill="none" stroke="#000000" stroke-linecap="round" stroke-linejoin="round" stroke-width="1"></path><path d="M4.5 17.5s-0.6 5.25 7.5 5.25 7.5 -5.25 7.5 -5.25" fill="none" stroke="#000000" stroke-linecap="round" stroke-linejoin="round" stroke-width="1"></path><path d="m19.5 14.5 3.289 -4.6a0.751 0.751 0 0 0 -0.194 -1.06A6.013 6.013 0 0 1 19.5 3.87a0.752 0.752 0 0 0 -0.868 -0.7 7.633 7.633 0 0 1 -6.155 -2.04 0.748 0.748 0 0 0 -0.953 0 7.634 7.634 0 0 1 -6.155 2.039 0.75 0.75 0 0 0 -0.868 0.7 6.015 6.015 0 0 1 -3.1 4.966 0.751 0.751 0 0 0 -0.19 1.065L4.5 14.5" fill="none" stroke="#000000" stroke-linecap="round" stroke-linejoin="round" stroke-width="1"></path><path d="M11.637 4.637a0.406 0.406 0 0 1 0.726 0l0.844 1.7a0.4 0.4 0 0 0 0.3 0.219l1.893 0.274a0.4 0.4 0 0 1 0.326 0.271 0.4 0.4 0 0 1 -0.1 0.407l-1.372 1.335a0.394 0.394 0 0 0 -0.115 0.35l0.324 1.88a0.4 0.4 0 0 1 -0.162 0.389 0.409 0.409 0 0 1 -0.426 0.029l-1.686 -0.882a0.409 0.409 0 0 0 -0.379 0l-1.686 0.882a0.409 0.409 0 0 1 -0.426 -0.029 0.4 0.4 0 0 1 -0.162 -0.389l0.324 -1.88a0.394 0.394 0 0 0 -0.115 -0.35L8.37 7.509a0.393 0.393 0 0 1 -0.1 -0.407 0.4 0.4 0 0 1 0.33 -0.271l1.894 -0.274a0.405 0.405 0 0 0 0.3 -0.219Z" fill="none" stroke="#000000" stroke-linecap="round" stroke-linejoin="round" stroke-width="1"></path></svg>