<svg viewBox="0 0 24 24" xmlns="http://www.w3.org/2000/svg" id="Police-Hat--Streamline-Ultimate"><desc>Police Hat Streamline Icon: https://streamlinehq.com</desc><path d="m1.5 13.75 21 0" fill="none" stroke="#000000" stroke-linecap="round" stroke-linejoin="round" stroke-width="1"></path><path d="m22.5 16.75 -21 0" fill="none" stroke="#000000" stroke-linecap="round" stroke-linejoin="round" stroke-width="1"></path><path d="M3 16.75s0.9 6 9 6 9 -6 9 -6" fill="none" stroke="#000000" stroke-linecap="round" stroke-linejoin="round" stroke-width="1"></path><path d="M3 13.75a5.625 5.625 0 0 1 -2.25 -4.5C0.75 6.25 7.5 1 12 1s11.25 5.25 11.25 8.25a5.625 5.625 0 0 1 -2.25 4.5" fill="none" stroke="#000000" stroke-linecap="round" stroke-linejoin="round" stroke-width="1"></path><path d="M12.232 10.673 12 10.75l-0.232 -0.077a3.5 3.5 0 0 1 -2.393 -3.321V6.25a0.75 0.75 0 0 1 0.75 -0.75h3.75a0.75 0.75 0 0 1 0.75 0.75v1.1a3.5 3.5 0 0 1 -2.393 3.323Z" fill="none" stroke="#000000" stroke-linecap="round" stroke-linejoin="round" stroke-width="1"></path></svg>