<svg viewBox="0 0 24 24" xmlns="http://www.w3.org/2000/svg" id="Police-Hat-2--Streamline-Ultimate"><desc>Police Hat 2 Streamline Icon: https://streamlinehq.com</desc><path d="M20.25 16.5c0 3.314 -3.694 6 -8.25 6s-8.25 -2.686 -8.25 -6" fill="none" stroke="#000000" stroke-linecap="round" stroke-linejoin="round" stroke-width="1"></path><path d="M20.25 14.1a6.409 6.409 0 0 0 3 -5.1c0 -4.142 -5.037 -7.5 -11.25 -7.5S0.75 4.858 0.75 9a6.407 6.407 0 0 0 3 5.1" fill="none" stroke="#000000" stroke-linecap="round" stroke-linejoin="round" stroke-width="1"></path><path d="m6.75 13.5 0 -4.705" fill="none" stroke="#000000" stroke-linecap="round" stroke-linejoin="round" stroke-width="1"></path><path d="m17.25 13.5 0 -4.705" fill="none" stroke="#000000" stroke-linecap="round" stroke-linejoin="round" stroke-width="1"></path><path d="m3.75 13.5 16.5 0" fill="none" stroke="#000000" stroke-linecap="round" stroke-linejoin="round" stroke-width="1"></path><path d="M9 7.5a3 3 0 1 0 6 0 3 3 0 1 0 -6 0Z" fill="none" stroke="#000000" stroke-linecap="round" stroke-linejoin="round" stroke-width="1"></path><path d="M9.139 8.4a20.381 20.381 0 0 0 -4.378 0.943 1.5 1.5 0 0 0 -1.011 1.423V16.5h16.5v-5.734a1.5 1.5 0 0 0 -1.011 -1.418 20.381 20.381 0 0 0 -4.378 -0.948" fill="none" stroke="#000000" stroke-linecap="round" stroke-linejoin="round" stroke-width="1"></path></svg>