<svg viewBox="0 0 24 24" xmlns="http://www.w3.org/2000/svg" id="Footwear-Boots-Female--Streamline-Ultimate"><desc>Footwear Boots Female Streamline Icon: https://streamlinehq.com</desc><path d="M3.75 17.25v4.5a1.5 1.5 0 0 0 3 0v-2.5" fill="none" stroke="#000000" stroke-linecap="round" stroke-linejoin="round" stroke-width="1"></path><path d="m3.75 17.25 8.244 5.5a3 3 0 0 0 1.664 0.5h4.763a1.829 1.829 0 0 0 1.829 -1.829 4.5 4.5 0 0 0 -2.345 -3.95l-4.228 -2.306a3 3 0 0 1 -1.558 -2.821L12.75 2.25a6.57 6.57 0 0 0 -4.5 -1.5 6.57 6.57 0 0 0 -4.5 1.5Z" fill="none" stroke="#000000" stroke-linecap="round" stroke-linejoin="round" stroke-width="1"></path><path d="m8.25 0.75 0 12" fill="none" stroke="#000000" stroke-linecap="round" stroke-linejoin="round" stroke-width="1"></path></svg>