<svg viewBox="0 0 24 24" xmlns="http://www.w3.org/2000/svg" id="Footwear-Winter-Boots--Streamline-Ultimate"><desc>Footwear Winter Boots Streamline Icon: https://streamlinehq.com</desc><path d="M16.847 14.189A3 3 0 0 0 15 16.959v3" fill="none" stroke="#000000" stroke-linecap="round" stroke-linejoin="round" stroke-width="1"></path><path d="m22.349 19.959 -20.849 0" fill="none" stroke="#000000" stroke-linecap="round" stroke-linejoin="round" stroke-width="1"></path><path d="M7.5 12.459h4.148a4.481 4.481 0 0 1 -1.147 -3h-3a1.5 1.5 0 1 0 0 3Z" fill="none" stroke="#000000" stroke-linecap="round" stroke-linejoin="round" stroke-width="1"></path><path d="M7.5 6.459h3v-3h-3a1.5 1.5 0 0 0 0 3Z" fill="none" stroke="#000000" stroke-linecap="round" stroke-linejoin="round" stroke-width="1"></path><path d="M22.5 21.459a7.5 7.5 0 0 0 -7.5 -7.5 4.5 4.5 0 0 1 -4.5 -4.5v-6L3.474 1.118A1.5 1.5 0 0 0 1.5 2.541v18.918a1.5 1.5 0 0 0 1.5 1.5h18a1.5 1.5 0 0 0 1.5 -1.5Z" fill="none" stroke="#000000" stroke-linecap="round" stroke-linejoin="round" stroke-width="1"></path></svg>