<svg viewBox="0 0 24 24" xmlns="http://www.w3.org/2000/svg" id="Footwear-Heels-1--Streamline-Ultimate"><desc>Footwear Heels 1 Streamline Icon: https://streamlinehq.com</desc><path d="M0.75 11.213V5.537a2.249 2.249 0 0 1 3.086 -2.089L6.793 4.63a4.507 4.507 0 0 1 2.236 1.946l3.925 6.87a4.5 4.5 0 0 0 3.908 2.267H20.1a1.5 1.5 0 0 1 1.248 0.668l1.777 2.666a0.75 0.75 0 0 1 -0.624 1.166h-8.843a4.5 4.5 0 0 1 -3.744 -2l-4 -5.994a2.25 2.25 0 0 0 -1.872 -1Z" fill="none" stroke="#000000" stroke-linecap="round" stroke-linejoin="round" stroke-width="1"></path><path d="m0.75 11.213 1.322 7.935a1.276 1.276 0 0 0 2.529 -0.1l0.649 -7.481" fill="none" stroke="#000000" stroke-linecap="round" stroke-linejoin="round" stroke-width="1"></path></svg>