<svg viewBox="0 0 24 24" xmlns="http://www.w3.org/2000/svg" id="Footwear-Flip-Flops--Streamline-Ultimate"><desc>Footwear Flip Flops Streamline Icon: https://streamlinehq.com</desc><path d="M9.265 19.271a4.262 4.262 0 0 1 -8.515 -0.283V5.325A4.575 4.575 0 0 1 5.325 0.75h0.285a4.574 4.574 0 0 1 4.565 4.879Z" fill="none" stroke="#000000" stroke-linecap="round" stroke-linejoin="round" stroke-width="1"></path><path d="m0.75 10.5 4.5 -5.25 4.6 5.25" fill="none" stroke="#000000" stroke-linecap="round" stroke-linejoin="round" stroke-width="1"></path><path d="M14.735 19.271a4.262 4.262 0 0 0 8.515 -0.283V5.325A4.575 4.575 0 0 0 18.675 0.75h-0.285a4.574 4.574 0 0 0 -4.565 4.879Z" fill="none" stroke="#000000" stroke-linecap="round" stroke-linejoin="round" stroke-width="1"></path><path d="m23.25 10.5 -4.5 -5.25 -4.6 5.25" fill="none" stroke="#000000" stroke-linecap="round" stroke-linejoin="round" stroke-width="1"></path></svg>