<svg xmlns="http://www.w3.org/2000/svg" viewBox="0 0 24 24" id="Microphone-Podcast-Person--Streamline-Ultimate"><desc>Microphone Podcast Person Streamline Icon: https://streamlinehq.com</desc><g><path d="M6.76 17.43a2.91 2.91 0 0 1 -3 2.82 2.91 2.91 0 0 1 -3 -2.8l0 -4.88a2.91 2.91 0 0 1 3 -2.82 2.91 2.91 0 0 1 3 2.8Z" fill="none" stroke="#000000" stroke-linecap="round" stroke-linejoin="round" stroke-width="1"></path><path d="m0.76 16 6 0" fill="none" stroke="#000000" stroke-linecap="round" stroke-linejoin="round" stroke-width="1"></path><path d="m3.75 20.25 0.01 2.99" fill="none" stroke="#000000" stroke-linecap="round" stroke-linejoin="round" stroke-width="1"></path><path d="m2.25 23.25 3 0" fill="none" stroke="#000000" stroke-linecap="round" stroke-linejoin="round" stroke-width="1"></path><path d="M16.5 12.75a3 3 0 1 0 6 0 3 3 0 1 0 -6 0" fill="none" stroke="#000000" stroke-linecap="round" stroke-linejoin="round" stroke-width="1"></path><path d="m19.5 6.75 -0.01 3" fill="none" stroke="#000000" stroke-linecap="round" stroke-linejoin="round" stroke-width="1"></path><path d="M18.25 0.75h2.5a1 1 0 0 1 1 1v3.5a1.5 1.5 0 0 1 -1.5 1.5h-1.5a1.5 1.5 0 0 1 -1.5 -1.5v-3.5a1 1 0 0 1 1 -1Z" fill="none" stroke="#000000" stroke-linecap="round" stroke-linejoin="round" stroke-width="1"></path><path d="M17.25 3.41C12.94 4.82 11.87 9.7 9.75 15h3v3.3a2.7 2.7 0 0 0 2.7 2.7h1.05v2.25" fill="none" stroke="#000000" stroke-linecap="round" stroke-linejoin="round" stroke-width="1"></path><path d="M23.25 3.63a8.41 8.41 0 0 0 -1.5 -0.46" fill="none" stroke="#000000" stroke-linecap="round" stroke-linejoin="round" stroke-width="1"></path></g></svg>