<svg xmlns="http://www.w3.org/2000/svg" viewBox="0 0 24 24" id="Microphone-Podcast-Woman--Streamline-Ultimate"><desc>Microphone Podcast Woman Streamline Icon: https://streamlinehq.com</desc><g><path d="M9.53 14.79a6.75 6.75 0 0 1 10.72 5.46" fill="none" stroke="#000000" stroke-linecap="round" stroke-linejoin="round" stroke-width="1"></path><g><path d="M10 5.78a6.81 6.81 0 0 0 4.92 2.09 7 7 0 0 0 2.72 -0.55" fill="none" stroke="#000000" stroke-linecap="round" stroke-linejoin="round" stroke-width="1"></path><path d="M9.37 7.87a4.13 4.13 0 1 0 8.26 0 4.13 4.13 0 1 0 -8.26 0" fill="none" stroke="#000000" stroke-linecap="round" stroke-linejoin="round" stroke-width="1"></path></g><path d="M6.94 5.88A6.77 6.77 0 0 1 13.5 0.75h0a6.75 6.75 0 0 1 6.75 6.75V9" fill="none" stroke="#000000" stroke-linecap="round" stroke-linejoin="round" stroke-width="1"></path><path d="M21.25 7h1s1 0 1 1v2.75s0 1 -1 1h-1s-1 0 -1 -1V8s0 -1 1 -1" fill="none" stroke="#000000" stroke-linecap="round" stroke-linejoin="round" stroke-width="1"></path><path d="M6.76 17.43a2.91 2.91 0 0 1 -3 2.82 2.91 2.91 0 0 1 -3 -2.8l0 -4.88a2.91 2.91 0 0 1 3 -2.82 2.91 2.91 0 0 1 3 2.8Z" fill="none" stroke="#000000" stroke-linecap="round" stroke-linejoin="round" stroke-width="1"></path><path d="m0.76 16 6 0" fill="none" stroke="#000000" stroke-linecap="round" stroke-linejoin="round" stroke-width="1"></path><path d="m3.75 20.25 0.01 2.99" fill="none" stroke="#000000" stroke-linecap="round" stroke-linejoin="round" stroke-width="1"></path><path d="m2.25 23.25 3 0" fill="none" stroke="#000000" stroke-linecap="round" stroke-linejoin="round" stroke-width="1"></path></g></svg>