<svg viewBox="0 0 24 24" xmlns="http://www.w3.org/2000/svg" id="Help-Wheel--Streamline-Ultimate"><desc>Help Wheel Streamline Icon: https://streamlinehq.com</desc><path d="M8.25 12a3.75 3.75 0 1 0 7.5 0 3.75 3.75 0 1 0 -7.5 0Z" fill="none" stroke="#000000" stroke-linecap="round" stroke-linejoin="round" stroke-width="1"></path><path d="m17.119 20.301 -4.59 -4.59" fill="none" stroke="#000000" stroke-linecap="round" stroke-linejoin="round" stroke-width="1"></path><path d="m15.711 12.53 4.59 4.589" fill="none" stroke="#000000" stroke-linecap="round" stroke-linejoin="round" stroke-width="1"></path><path d="m3.699 17.119 4.59 -4.59" fill="none" stroke="#000000" stroke-linecap="round" stroke-linejoin="round" stroke-width="1"></path><path d="m11.471 15.712 -4.59 4.589" fill="none" stroke="#000000" stroke-linecap="round" stroke-linejoin="round" stroke-width="1"></path><path d="m6.881 3.7 4.59 4.589" fill="none" stroke="#000000" stroke-linecap="round" stroke-linejoin="round" stroke-width="1"></path><path d="m8.289 11.471 -4.59 -4.59" fill="none" stroke="#000000" stroke-linecap="round" stroke-linejoin="round" stroke-width="1"></path><path d="m20.301 6.881 -4.59 4.59" fill="none" stroke="#000000" stroke-linecap="round" stroke-linejoin="round" stroke-width="1"></path><path d="m12.529 8.289 4.59 -4.589" fill="none" stroke="#000000" stroke-linecap="round" stroke-linejoin="round" stroke-width="1"></path><path d="M2.25 12a9.75 9.75 0 1 0 19.5 0 9.75 9.75 0 1 0 -19.5 0Z" fill="none" stroke="#000000" stroke-linecap="round" stroke-linejoin="round" stroke-width="1"></path></svg>