<svg xmlns="http://www.w3.org/2000/svg" fill="none" viewBox="0 0 24 24" id="Question-Help-Message--Streamline-Ultimate"><desc>Question Help Message Streamline Icon: https://streamlinehq.com</desc><path stroke="#000000" stroke-linecap="round" stroke-linejoin="round" d="M21.75 18.75h-10.5l-6 4.5v-4.5h-3c-0.39782 0 -0.77936 -0.158 -1.06066 -0.4393C0.908035 18.0294 0.75 17.6478 0.75 17.25v-15c0 -0.39782 0.158035 -0.77936 0.43934 -1.06066C1.47064 0.908035 1.85218 0.75 2.25 0.75h19.5c0.3978 0 0.7794 0.158035 1.0607 0.43934 0.2813 0.2813 0.4393 0.66284 0.4393 1.06066v15c0 0.3978 -0.158 0.7794 -0.4393 1.0607s-0.6629 0.4393 -1.0607 0.4393Z" stroke-width="1"></path><path stroke="#000000" stroke-linecap="round" stroke-linejoin="round" d="M9 6.75004c0.00011 -0.54997 0.15139 -1.08933 0.43732 -1.55913s0.69548 -0.85196 1.18398 -1.10472c0.4884 -0.25275 1.037 -0.36637 1.5856 -0.32843 0.5487 0.03793 1.0764 0.22596 1.5254 0.54353 0.449 0.31757 0.8021 0.75246 1.0206 1.25714 0.2186 0.50468 0.2942 1.05973 0.2186 1.60448 -0.0756 0.54475 -0.2994 1.05825 -0.6471 1.48436s-0.8059 0.74845 -1.3244 0.93177c-0.2926 0.10344 -0.5459 0.29508 -0.725 0.54846 -0.1791 0.2535 -0.2752 0.5562 -0.275 0.8665v0.256" stroke-width="1"></path><path stroke="#000000" d="M12 15c-0.2071 0 -0.375 -0.1679 -0.375 -0.375s0.1679 -0.375 0.375 -0.375" stroke-width="1"></path><path stroke="#000000" d="M12 15c0.2071 0 0.375 -0.1679 0.375 -0.375s-0.1679 -0.375 -0.375 -0.375" stroke-width="1"></path></svg>