<svg viewBox="0 0 24 24" xmlns="http://www.w3.org/2000/svg" id="Room-Service-Champagne--Streamline-Ultimate"><desc>Room Service Champagne Streamline Icon: https://streamlinehq.com</desc><path d="M1.875 3.566a2.625 2.625 0 1 0 5.25 0 2.625 2.625 0 1 0 -5.25 0Z" fill="none" stroke="#000000" stroke-linecap="round" stroke-linejoin="round" stroke-width="1"></path><path d="M9.75 15.566h3a1.5 1.5 0 0 0 0 -3h-3a1.5 1.5 0 0 1 -1.5 -1.5 3 3 0 0 0 -3 -3h-1.5a3 3 0 0 0 -3 3v4.5a1.5 1.5 0 0 0 1.5 1.5v3.75a2.25 2.25 0 0 0 4.5 0v-6" fill="none" stroke="#000000" stroke-linecap="round" stroke-linejoin="round" stroke-width="1"></path><path d="m11.25 9.566 12 0" fill="none" stroke="#000000" stroke-linecap="round" stroke-linejoin="round" stroke-width="1"></path><path d="M15.75 5.066a1.5 1.5 0 0 1 -3 0v-3h3Z" fill="none" stroke="#000000" stroke-linecap="round" stroke-linejoin="round" stroke-width="1"></path><path d="m14.25 6.566 0 3" fill="none" stroke="#000000" stroke-linecap="round" stroke-linejoin="round" stroke-width="1"></path><path d="M21.75 5.066a1.5 1.5 0 0 1 -3 0v-3h3Z" fill="none" stroke="#000000" stroke-linecap="round" stroke-linejoin="round" stroke-width="1"></path><path d="m20.25 6.566 0 3" fill="none" stroke="#000000" stroke-linecap="round" stroke-linejoin="round" stroke-width="1"></path></svg>