<svg viewBox="0 0 24 24" xmlns="http://www.w3.org/2000/svg" id="Room-Service-Staff--Streamline-Ultimate"><desc>Room Service Staff Streamline Icon: https://streamlinehq.com</desc><path d="M17.625 3.754a3 3 0 0 1 -6 0v-3h6Z" fill="none" stroke="#000000" stroke-linecap="round" stroke-linejoin="round" stroke-width="1"></path><path d="m14.625 17.254 0 4.5" fill="none" stroke="#000000" stroke-linecap="round" stroke-linejoin="round" stroke-width="1"></path><path d="m17.632 12 -0.007 9.75a1.5 1.5 0 1 1 -3 0 1.5 1.5 0 1 1 -3 0V12" fill="none" stroke="#000000" stroke-linecap="round" stroke-linejoin="round" stroke-width="1"></path><path d="M17.625 17.254a3 3 0 0 0 3 -3v-3a3 3 0 0 0 -3 -3h-6a3 3 0 0 0 -3 3 1.5 1.5 0 0 1 -1.5 1.5h-2.25a1.5 1.5 0 1 0 0 3h3.75" fill="none" stroke="#000000" stroke-linecap="round" stroke-linejoin="round" stroke-width="1"></path><path d="m11.625 3.754 6 0" fill="none" stroke="#000000" stroke-linecap="round" stroke-linejoin="round" stroke-width="1"></path></svg>