<svg xmlns="http://www.w3.org/2000/svg" viewBox="0 0 24 24" id="Room-Service-Give-Plate--Streamline-Ultimate"><desc>Room Service Give Plate Streamline Icon: https://streamlinehq.com</desc><g><g><path d="m0.75 14.25 0 9" fill="none" stroke="#000000" stroke-linecap="round" stroke-linejoin="round" stroke-width="1"></path><path d="M15.75 21.75a3 3 0 0 0 -3 -3H9a3 3 0 0 0 -3 -3H0.75v6Z" fill="none" stroke="#000000" stroke-linecap="round" stroke-linejoin="round" stroke-width="1"></path><path d="m6 18.75 3 0" fill="none" stroke="#000000" stroke-linecap="round" stroke-linejoin="round" stroke-width="1"></path></g><g><path d="m2.25 10.75 21 0" fill="none" stroke="#000000" stroke-linecap="round" stroke-linejoin="round" stroke-width="1"></path><path d="m12.75 0.75 0 1.5" fill="none" stroke="#000000" stroke-linecap="round" stroke-linejoin="round" stroke-width="1"></path><path d="M21.75 10.75c0 -4.47 -4 -8.5 -9 -8.5s-9 4 -9 8.5Z" fill="none" stroke="#000000" stroke-linecap="round" stroke-linejoin="round" stroke-width="1"></path><path d="M11.25 14.25h7.15a3 3 0 0 0 2.68 -1.66l0.67 -1.34v-0.5" fill="none" stroke="#000000" stroke-linecap="round" stroke-linejoin="round" stroke-width="1"></path></g></g></svg>