<svg xmlns="http://www.w3.org/2000/svg" viewBox="0 0 24 24" id="Room-Service-Bring-Plate--Streamline-Ultimate"><desc>Room Service Bring Plate Streamline Icon: https://streamlinehq.com</desc><g><path d="M3.75 11.58a9 9 0 0 1 18 0Z" fill="none" stroke="#000000" stroke-linecap="round" stroke-linejoin="round" stroke-width="1"></path><path d="m2.25 11.58 21 0" fill="none" stroke="#000000" stroke-linecap="round" stroke-linejoin="round" stroke-width="1"></path><path d="m12.75 1.08 0 1.5" fill="none" stroke="#000000" stroke-linecap="round" stroke-linejoin="round" stroke-width="1"></path><path d="m0.75 22.08 3.75 -3.66 5.25 4.5 12.06 -8.71a1.17 1.17 0 0 0 -0.08 -2h0a4.5 4.5 0 0 0 -4.5 -0.07l-2.93 2.67a4.44 4.44 0 0 1 -3.27 0.43c-0.82 -0.2 -1 -0.58 -1.66 -1.2l-1.09 -1.59a3 3 0 0 0 -3.46 -0.56h0a0.86 0.86 0 0 0 -0.22 1.37l0.46 0.46a4.54 4.54 0 0 1 1.23 4.07l-0.37 1.84" fill="none" stroke="#000000" stroke-linecap="round" stroke-linejoin="round" stroke-width="1"></path></g></svg>