<svg xmlns="http://www.w3.org/2000/svg" fill="none" viewBox="0 0 24 24" id="Tools-Kitchen-Scale-1--Streamline-Ultimate"><desc>Tools Kitchen Scale 1 Streamline Icon: https://streamlinehq.com</desc><path stroke="#000000" stroke-linecap="round" stroke-linejoin="round" d="M20.491 21.9963c-0.0836 0.3655 -0.292 0.6905 -0.5893 0.9191 -0.2972 0.2286 -0.6649 0.3466 -1.0397 0.3336H5.13802c-0.37481 0.013 -0.74243 -0.105 -1.0397 -0.3336 -0.29727 -0.2286 -0.50564 -0.5536 -0.5893 -0.9191l-1.864 -10.1513C0.579022 6.03707 5.51302 0.75 12 0.75c6.487 0 11.421 5.28707 10.355 11.098l-1.864 10.1483Z" stroke-width="1"></path><path stroke="#000000" stroke-linecap="round" stroke-linejoin="round" d="M12 15.75c2.0711 0 3.75 -1.6789 3.75 -3.75 0 -2.07107 -1.6789 -3.75 -3.75 -3.75 -2.07107 0 -3.75 1.67893 -3.75 3.75 0 2.0711 1.67893 3.75 3.75 3.75Z" stroke-width="1"></path><path stroke="#000000" stroke-linecap="round" stroke-linejoin="round" d="M12 8.25V12" stroke-width="1"></path><path stroke="#000000" d="M12 5.625c-0.2071 0 -0.375 -0.16789 -0.375 -0.375s0.1679 -0.375 0.375 -0.375" stroke-width="1"></path><path stroke="#000000" d="M12 5.625c0.2071 0 0.375 -0.16789 0.375 -0.375s-0.1679 -0.375 -0.375 -0.375" stroke-width="1"></path><path stroke="#000000" d="M7.22736 7.60205c-0.20711 0 -0.375 -0.16789 -0.375 -0.375s0.16789 -0.375 0.375 -0.375" stroke-width="1"></path><path stroke="#000000" d="M7.22736 7.60205c0.2071 0 0.375 -0.16789 0.375 -0.375s-0.1679 -0.375 -0.375 -0.375" stroke-width="1"></path><path stroke="#000000" d="M5.25 12.375c-0.20711 0 -0.375 -0.1679 -0.375 -0.375s0.16789 -0.375 0.375 -0.375" stroke-width="1"></path><path stroke="#000000" d="M5.25 12.375c0.20711 0 0.375 -0.1679 0.375 -0.375s-0.16789 -0.375 -0.375 -0.375" stroke-width="1"></path><path stroke="#000000" d="M7.22693 17.1479c-0.20711 0 -0.375 -0.1678 -0.375 -0.375 0 -0.2071 0.16789 -0.375 0.375 -0.375" stroke-width="1"></path><path stroke="#000000" d="M7.22693 17.1479c0.20711 0 0.375 -0.1678 0.375 -0.375 0 -0.2071 -0.16789 -0.375 -0.375 -0.375" stroke-width="1"></path><g><path stroke="#000000" d="M12 19.125c-0.2071 0 -0.375 -0.1679 -0.375 -0.375s0.1679 -0.375 0.375 -0.375" stroke-width="1"></path><path stroke="#000000" d="M12 19.125c0.2071 0 0.375 -0.1679 0.375 -0.375s-0.1679 -0.375 -0.375 -0.375" stroke-width="1"></path></g><g><path stroke="#000000" d="M16.7729 17.1479c-0.2071 0 -0.375 -0.1678 -0.375 -0.375 0 -0.2071 0.1679 -0.375 0.375 -0.375" stroke-width="1"></path><path stroke="#000000" d="M16.7729 17.1479c0.2071 0 0.375 -0.1678 0.375 -0.375 0 -0.2071 -0.1679 -0.375 -0.375 -0.375" stroke-width="1"></path></g><g><path stroke="#000000" d="M18.75 12.375c-0.2071 0 -0.375 -0.1679 -0.375 -0.375s0.1679 -0.375 0.375 -0.375" stroke-width="1"></path><path stroke="#000000" d="M18.75 12.375c0.2071 0 0.375 -0.1679 0.375 -0.375s-0.1679 -0.375 -0.375 -0.375" stroke-width="1"></path></g><g><path stroke="#000000" d="M16.7733 7.60205c-0.2071 0 -0.375 -0.16789 -0.375 -0.375s0.1679 -0.375 0.375 -0.375" stroke-width="1"></path><path stroke="#000000" d="M16.7733 7.60205c0.2071 0 0.375 -0.16789 0.375 -0.375s-0.1679 -0.375 -0.375 -0.375" stroke-width="1"></path></g></svg>