<svg viewBox="0 0 24 24" xmlns="http://www.w3.org/2000/svg" id="Tools-Kitchen-Scale--Streamline-Ultimate"><desc>Tools Kitchen Scale Streamline Icon: https://streamlinehq.com</desc><path d="M9 17.25a3 3 0 1 0 6 0 3 3 0 1 0 -6 0Z" fill="none" stroke="#000000" stroke-linecap="round" stroke-linejoin="round" stroke-width="1"></path><path d="m12 14.25 0 2.25" fill="none" stroke="#000000" stroke-linecap="round" stroke-linejoin="round" stroke-width="1"></path><path d="M22.432 21.3A1.5 1.5 0 0 1 21 23.25H3a1.5 1.5 0 0 1 -1.432 -1.95l2.813 -9a1.5 1.5 0 0 1 1.431 -1.05h12.375a1.5 1.5 0 0 1 1.432 1.05Z" fill="none" stroke="#000000" stroke-linecap="round" stroke-linejoin="round" stroke-width="1"></path><path d="M3 0.75a0.75 0.75 0 0 0 -0.692 1.039A10.5 10.5 0 0 0 12 8.25a10.5 10.5 0 0 0 9.689 -6.462A0.75 0.75 0 0 0 21 0.75Z" fill="none" stroke="#000000" stroke-linecap="round" stroke-linejoin="round" stroke-width="1"></path><path d="m9 7.815 0 3.435" fill="none" stroke="#000000" stroke-linecap="round" stroke-linejoin="round" stroke-width="1"></path><path d="m15 7.815 0 3.435" fill="none" stroke="#000000" stroke-linecap="round" stroke-linejoin="round" stroke-width="1"></path></svg>