<svg viewBox="0 0 24 24" xmlns="http://www.w3.org/2000/svg" id="Tools-Kitchen-Basket--Streamline-Ultimate"><desc>Tools Kitchen Basket Streamline Icon: https://streamlinehq.com</desc><path d="m9 0.75 6 0 0 3 -6 0Z" fill="none" stroke="#000000" stroke-linecap="round" stroke-linejoin="round" stroke-width="1"></path><path d="M14.25 23.25h-4.5a9 9 0 0 1 -9 -9h0a1.5 1.5 0 0 1 1.5 -1.5h19.5a1.5 1.5 0 0 1 1.5 1.5h0a9 9 0 0 1 -9 9Z" fill="none" stroke="#000000" stroke-linecap="round" stroke-linejoin="round" stroke-width="1"></path><path d="M9.02 1.939a9.951 9.951 0 0 0 -6.77 9.51v1.3" fill="none" stroke="#000000" stroke-linecap="round" stroke-linejoin="round" stroke-width="1"></path><path d="M21.75 12.75v-1.3A9.951 9.951 0 0 0 15 1.946" fill="none" stroke="#000000" stroke-linecap="round" stroke-linejoin="round" stroke-width="1"></path><path d="m0.875 15.75 22.25 0" fill="none" stroke="#000000" stroke-linecap="round" stroke-linejoin="round" stroke-width="1"></path><path d="m12 15.75 2.25 7.5" fill="none" stroke="#000000" stroke-linecap="round" stroke-linejoin="round" stroke-width="1"></path><path d="m12 15.75 -2.25 7.5" fill="none" stroke="#000000" stroke-linecap="round" stroke-linejoin="round" stroke-width="1"></path><path d="m18 15.75 2.048 5.384" fill="none" stroke="#000000" stroke-linecap="round" stroke-linejoin="round" stroke-width="1"></path><path d="m18 15.75 -3 7.469" fill="none" stroke="#000000" stroke-linecap="round" stroke-linejoin="round" stroke-width="1"></path><path d="m6 15.75 -2.048 5.384" fill="none" stroke="#000000" stroke-linecap="round" stroke-linejoin="round" stroke-width="1"></path><path d="m6 15.75 3 7.469" fill="none" stroke="#000000" stroke-linecap="round" stroke-linejoin="round" stroke-width="1"></path></svg>