<svg xmlns="http://www.w3.org/2000/svg" viewBox="0 0 24 24" id="Contact-Family--Streamline-Ultimate"><desc>Contact Family Streamline Icon: https://streamlinehq.com</desc><defs></defs><title>contact-family</title><path d="M9.999 5.682a2.25 2.25 0 1 0 4.5 0 2.25 2.25 0 1 0 -4.5 0" fill="none" stroke="#000000" stroke-linecap="round" stroke-linejoin="round" stroke-width="1"></path><path d="M16.147 10.932a4.5 4.5 0 0 0 -7.794 0" fill="none" stroke="#000000" stroke-linecap="round" stroke-linejoin="round" stroke-width="1"></path><path d="M6.65 15.5a2.25 2.25 0 1 0 4.5 0 2.25 2.25 0 1 0 -4.5 0" fill="none" stroke="#000000" stroke-linecap="round" stroke-linejoin="round" stroke-width="1"></path><path d="M12.8 20.75a4.5 4.5 0 0 0 -7.8 0" fill="none" stroke="#000000" stroke-linecap="round" stroke-linejoin="round" stroke-width="1"></path><path d="M14.443 15.5a2.25 2.25 0 1 0 4.5 0 2.25 2.25 0 1 0 -4.5 0" fill="none" stroke="#000000" stroke-linecap="round" stroke-linejoin="round" stroke-width="1"></path><path d="M20.59 20.75a4.5 4.5 0 0 0 -7.793 0" fill="none" stroke="#000000" stroke-linecap="round" stroke-linejoin="round" stroke-width="1"></path><path d="M2.75 0.75h20.5l0 0v22.5l0 0H2.75a2 2 0 0 1 -2 -2V2.75a2 2 0 0 1 2 -2Z" fill="none" stroke="#000000" stroke-linecap="round" stroke-linejoin="round" stroke-width="1"></path><path d="m4.504 0.75 0 9.923" fill="none" stroke="#000000" stroke-linecap="round" stroke-linejoin="round" stroke-width="1"></path></svg>