<svg xmlns="http://www.w3.org/2000/svg" viewBox="0 0 24 24" id="Family-Ticket--Streamline-Ultimate"><desc>Family Ticket Streamline Icon: https://streamlinehq.com</desc><defs></defs><title>family-ticket</title><path d="M15.75 13.46a3 3 0 1 0 6 0 3 3 0 1 0 -6 0" fill="none" stroke="#000000" stroke-linecap="round" stroke-linejoin="round" stroke-width="1"></path><path d="M22.5 21.71a3.75 3.75 0 0 0 -6 -3" fill="none" stroke="#000000" stroke-linecap="round" stroke-linejoin="round" stroke-width="1"></path><path d="M2.25 13.46a3 3 0 1 0 6 0 3 3 0 1 0 -6 0" fill="none" stroke="#000000" stroke-linecap="round" stroke-linejoin="round" stroke-width="1"></path><path d="M1.5 21.71a3.751 3.751 0 0 1 6 -3" fill="none" stroke="#000000" stroke-linecap="round" stroke-linejoin="round" stroke-width="1"></path><path d="M9.75 17.21a2.25 2.25 0 1 0 4.5 0 2.25 2.25 0 1 0 -4.5 0" fill="none" stroke="#000000" stroke-linecap="round" stroke-linejoin="round" stroke-width="1"></path><path d="M12 20.96a3.747 3.747 0 0 0 -3.437 2.25" fill="none" stroke="#000000" stroke-linecap="round" stroke-linejoin="round" stroke-width="1"></path><path d="M12 20.96a3.75 3.75 0 0 1 3.455 2.29" fill="none" stroke="#000000" stroke-linecap="round" stroke-linejoin="round" stroke-width="1"></path><path d="M17.921 2.676V0.75H6.079v1.926a1.724 1.724 0 0 1 0 3.447v1.926h11.842V6.123a1.724 1.724 0 0 1 0 -3.447Z" fill="none" stroke="#000000" stroke-linecap="round" stroke-linejoin="round" stroke-width="1"></path></svg>