<svg viewBox="0 0 24 24" xmlns="http://www.w3.org/2000/svg" id="Family-Umbrella-Protect--Streamline-Ultimate"><desc>Family Umbrella Protect Streamline Icon: https://streamlinehq.com</desc><path d="M2.083 12a9.927 9.927 0 0 1 19.853 0l-0.716 -0.6a4.158 4.158 0 0 0 -5.9 0.6 4.678 4.678 0 0 0 -6.62 0 4.154 4.154 0 0 0 -5.9 -0.6Z" fill="none" stroke="#000000" stroke-linecap="round" stroke-linejoin="round" stroke-width="1"></path><path d="m12.009 2.074 0 -1.324" fill="none" stroke="#000000" stroke-linecap="round" stroke-linejoin="round" stroke-width="1"></path><path d="M0.759 17.142a2.625 2.625 0 1 0 5.25 0 2.625 2.625 0 1 0 -5.25 0Z" fill="none" stroke="#000000" stroke-linecap="round" stroke-linejoin="round" stroke-width="1"></path><path d="M18.009 17.142a2.625 2.625 0 1 0 5.25 0 2.625 2.625 0 1 0 -5.25 0Z" fill="none" stroke="#000000" stroke-linecap="round" stroke-linejoin="round" stroke-width="1"></path><path d="M9.384 17.142a2.625 2.625 0 1 0 5.25 0 2.625 2.625 0 1 0 -5.25 0Z" fill="none" stroke="#000000" stroke-linecap="round" stroke-linejoin="round" stroke-width="1"></path><path d="M0.759 21.363a4.5 4.5 0 0 1 6.765 1.887h0.346a4.5 4.5 0 0 1 8.279 0h0.351a4.5 4.5 0 0 1 6.764 -1.887" fill="none" stroke="#000000" stroke-linecap="round" stroke-linejoin="round" stroke-width="1"></path></svg>