<svg viewBox="0 0 24 24" xmlns="http://www.w3.org/2000/svg" id="Computer-Chip-32--Streamline-Ultimate"><desc>Computer Chip 32 Streamline Icon: https://streamlinehq.com</desc><path d="m7.117 7.5 0 -3" fill="none" stroke="#000000" stroke-linecap="round" stroke-linejoin="round" stroke-width="1"></path><path d="m10.117 7.5 0 -3" fill="none" stroke="#000000" stroke-linecap="round" stroke-linejoin="round" stroke-width="1"></path><path d="m4.117 10.5 -3 0" fill="none" stroke="#000000" stroke-linecap="round" stroke-linejoin="round" stroke-width="1"></path><path d="m4.117 16.5 -3 0" fill="none" stroke="#000000" stroke-linecap="round" stroke-linejoin="round" stroke-width="1"></path><path d="m4.117 13.5 -3 0" fill="none" stroke="#000000" stroke-linecap="round" stroke-linejoin="round" stroke-width="1"></path><path d="m10.117 22.5 0 -3" fill="none" stroke="#000000" stroke-linecap="round" stroke-linejoin="round" stroke-width="1"></path><path d="m19.117 16.5 -3 0" fill="none" stroke="#000000" stroke-linecap="round" stroke-linejoin="round" stroke-width="1"></path><path d="m7.117 22.5 0 -3" fill="none" stroke="#000000" stroke-linecap="round" stroke-linejoin="round" stroke-width="1"></path><path d="m13.117 22.5 0 -3" fill="none" stroke="#000000" stroke-linecap="round" stroke-linejoin="round" stroke-width="1"></path><path d="M16.117 13.5V18a1.5 1.5 0 0 1 -1.5 1.5h-9a1.5 1.5 0 0 1 -1.5 -1.5V9a1.5 1.5 0 0 1 1.5 -1.5h6" fill="none" stroke="#000000" stroke-linecap="round" stroke-linejoin="round" stroke-width="1"></path><path d="m7.117 10.5 6 0 0 6 -6 0Z" fill="none" stroke="#000000" stroke-linecap="round" stroke-linejoin="round" stroke-width="1"></path><path d="M14.667 2.612a1.5 1.5 0 1 1 1.45 1.888 1.5 1.5 0 1 1 -1.446 1.9" fill="none" stroke="#000000" stroke-linecap="round" stroke-linejoin="round" stroke-width="1"></path><path d="M19.867 3a1.5 1.5 0 0 1 1.5 -1.5h0a1.5 1.5 0 0 1 1.5 1.5h0a2.14 2.14 0 0 1 -0.467 1.336L19.867 7.5h3" fill="none" stroke="#000000" stroke-linecap="round" stroke-linejoin="round" stroke-width="1"></path></svg>