<svg xmlns="http://www.w3.org/2000/svg" fill="none" viewBox="0 0 24 24" id="Raspberry-Pi--Streamline-Ultimate"><desc>Raspberry Pi Streamline Icon: https://streamlinehq.com</desc><path stroke="#000000" stroke-linecap="round" stroke-linejoin="round" stroke-miterlimit="10" d="M12 4.15c-1.2 0 -2.3 0.4 -3 1.1 -0.3 -0.1 -0.7 -0.2 -1 -0.2 -2 0 -3.6 1.6 -3.6 3.5 0 0.4 0.1 0.8 0.2 1.2 -1.5 0.1 -2.6 1.3 -2.6 2.8 0 1.2 0.8 2.3 1.9 2.6 -0.3 0.5 -0.5 1.1 -0.5 1.8 0 1.9 1.6 3.5 3.6 3.5 0.4 0 0.8 -0.1 1.2 -0.2l0 0.2c0 1.5 1.7 2.8 3.8 2.8 2.1 0 3.8 -1.2 3.8 -2.8l0 -0.2c0.4 0.1 0.8 0.2 1.2 0.2 2 0 3.6 -1.6 3.6 -3.5 0 -0.7 -0.2 -1.3 -0.5 -1.8 1.1 -0.4 1.9 -1.4 1.9 -2.6 0 -1.5 -1.1 -2.6 -2.6 -2.8 0.1 -0.4 0.2 -0.8 0.2 -1.2 0 -1.9 -1.6 -3.5 -3.6 -3.5 -0.4 0 -0.7 0.1 -1 0.2 -0.7 -0.6 -1.8 -1.1 -3 -1.1Z" stroke-width="1"></path><path stroke="#000000" stroke-linecap="round" stroke-linejoin="round" stroke-miterlimit="10" d="M12 18.75c1.7673 0 3.2 -1.2536 3.2 -2.8 0 -1.5464 -1.4327 -2.8 -3.2 -2.8s-3.2 1.2536 -3.2 2.8c0 1.5464 1.4327 2.8 3.2 2.8Z" stroke-width="1"></path><path stroke="#000000" stroke-linecap="round" stroke-linejoin="round" stroke-miterlimit="10" d="M13.0226 18.6016c0.6158 0.3079 1.6421 1.2316 2.7711 1.6422" stroke-width="1"></path><path stroke="#000000" stroke-linecap="round" stroke-linejoin="round" stroke-miterlimit="10" d="M9.9 13.85c-3.1 0.6 -4.60001 -2.7 -3.40001 -4.8 0.9 -1.5 2.70001 -1.8 4.10001 -1 0.9 0.5 1.4 1.4 1.4 2.4" stroke-width="1"></path><path stroke="#000000" stroke-linecap="round" stroke-linejoin="round" stroke-miterlimit="10" d="M8.19218 20.2438c1.23165 -0.4106 2.15542 -1.3343 2.77122 -1.6422" stroke-width="1"></path><path stroke="#000000" stroke-linecap="round" stroke-linejoin="round" stroke-miterlimit="10" d="M7.24219 13.2257c-1.21535 0 -2.53197 0.8102 -3.3422 1.9243" stroke-width="1"></path><path stroke="#000000" stroke-linecap="round" stroke-linejoin="round" stroke-miterlimit="10" d="M14.1 13.85c3.1 0.5 4.7 -2.8 3.4 -4.8 -0.9 -1.5 -2.7 -1.8 -4.1 -1 -0.9 0.5 -1.4 1.4 -1.4 2.4" stroke-width="1"></path><path stroke="#000000" stroke-linecap="round" stroke-linejoin="round" stroke-miterlimit="10" d="M20.1016 15.1438c-0.715 -1.2257 -2.1449 -1.9407 -3.3706 -1.9407" stroke-width="1"></path><path stroke="#000000" stroke-linecap="round" stroke-linejoin="round" stroke-miterlimit="10" d="M19.4141 9.74625c-0.5094 0 -1.0188 0 -1.5282 0.20375" stroke-width="1"></path><path stroke="#000000" stroke-linecap="round" stroke-linejoin="round" stroke-miterlimit="10" d="M6 10.05c-0.5 -0.2 -1 -0.3 -1.5 -0.2" stroke-width="1"></path><path stroke="#000000" stroke-linecap="round" stroke-linejoin="round" stroke-miterlimit="10" d="M11.9635 4.16089c0.1508 -0.96478 -0.1608 -1.99802 -1.0227 -2.57265 -1.70003 -1.3 -5.40003 -0.7 -5.40003 -0.7s0.38068 2.73572 1.65454 4.24457" stroke-width="1"></path><path stroke="#000000" stroke-linecap="round" stroke-linejoin="round" stroke-miterlimit="10" d="M12.0352 4.15243c-0.1477 -0.96236 0.1646 -1.99124 1.024 -2.56419 1.7 -1.3 5.4 -0.7 5.4 -0.7s-0.3818 2.64983 -1.592 4.26801" stroke-width="1"></path></svg>