<svg xmlns="http://www.w3.org/2000/svg" fill="none" viewBox="0 0 24 24" id="Led-Light-Strip-1--Streamline-Ultimate"><desc>Led Light Strip 1 Streamline Icon: https://streamlinehq.com</desc><path stroke="#000000" stroke-linecap="round" stroke-linejoin="round" stroke-miterlimit="10" d="M10.7909 9.16525c5.5228 0 10 -1.8804 10 -4.19999 0 -2.3196 -4.4772 -4.200001 -10 -4.200001C5.26805 0.765259 0.790894 2.64566 0.790894 4.96526c0 2.31959 4.477156 4.19999 10.000006 4.19999Z" stroke-width="1"></path><path stroke="#000000" stroke-linecap="round" stroke-linejoin="round" stroke-miterlimit="10" d="M10.7909 6.31443c2.4853 0 4.5 -0.60407 4.5 -1.34923 0 -0.74516 -2.0147 -1.34923 -4.5 -1.34923 -2.48528 0 -4.50001 0.60407 -4.50001 1.34923 0 0.74516 2.01473 1.34923 4.50001 1.34923Z" stroke-width="1"></path><path stroke="#000000" stroke-linecap="round" stroke-linejoin="round" stroke-miterlimit="10" d="M20.7909 9.76526v-5" stroke-width="1"></path><path stroke="#000000" stroke-linecap="round" stroke-linejoin="round" stroke-miterlimit="10" d="M11.2909 9.16528s-5.50001 0 -9.00001 3.50002v7.5s3.5 -4 8.50001 -4" stroke-width="1"></path><path stroke="#000000" stroke-linecap="round" stroke-linejoin="round" stroke-miterlimit="10" d="M0.790894 4.76526v5.50004" stroke-width="1"></path><path stroke="#000000" stroke-linecap="round" stroke-linejoin="round" stroke-miterlimit="10" d="M5.54088 14.4653c-0.11045 0 -0.2 -0.0895 -0.2 -0.2 0 -0.1105 0.08955 -0.2 0.2 -0.2" stroke-width="1"></path><path stroke="#000000" stroke-linecap="round" stroke-linejoin="round" stroke-miterlimit="10" d="M5.54084 14.4653c0.11046 0 0.2 -0.0895 0.2 -0.2 0 -0.1105 -0.08954 -0.2 -0.2 -0.2" stroke-width="1"></path><path stroke="#000000" stroke-linecap="round" stroke-linejoin="round" stroke-miterlimit="10" d="M11.8409 12.6653c-0.1104 0 -0.2 -0.0896 -0.2 -0.2 0 -0.1105 0.0896 -0.2 0.2 -0.2" stroke-width="1"></path><path stroke="#000000" stroke-linecap="round" stroke-linejoin="round" stroke-miterlimit="10" d="M11.8409 12.6653c0.1104 0 0.2 -0.0896 0.2 -0.2 0 -0.1105 -0.0896 -0.2 -0.2 -0.2" stroke-width="1"></path><path stroke="#000000" stroke-linecap="round" stroke-linejoin="round" stroke-miterlimit="10" d="M8.54918 13.2848c-0.11045 0 -0.2 -0.0896 -0.2 -0.2 0 -0.1105 0.08955 -0.2 0.2 -0.2" stroke-width="1"></path><path stroke="#000000" stroke-linecap="round" stroke-linejoin="round" stroke-miterlimit="10" d="M8.54914 13.2848c0.11046 0 0.20001 -0.0896 0.20001 -0.2 0 -0.1105 -0.08955 -0.2 -0.20001 -0.2" stroke-width="1"></path><path stroke="#000000" stroke-linecap="round" stroke-linejoin="round" stroke-miterlimit="10" d="M22.0661 19.2339V15.233c0 -2.172 -1.829 -4.0009 -4.001 -4.0009 -2.1719 0 -4.0009 1.8289 -4.0009 4.0009v4.0009" stroke-width="1"></path><path stroke="#000000" stroke-linecap="round" stroke-linejoin="round" stroke-miterlimit="10" d="M12.9211 19.2339h10.2881" stroke-width="1"></path><path stroke="#000000" stroke-linecap="round" stroke-linejoin="round" stroke-miterlimit="10" d="M15.2073 19.2339v4.0009" stroke-width="1"></path><path stroke="#000000" stroke-linecap="round" stroke-linejoin="round" stroke-miterlimit="10" d="M20.9229 19.2339v4.0009" stroke-width="1"></path><path stroke="#000000" stroke-linecap="round" stroke-linejoin="round" stroke-miterlimit="10" d="m16.922 15.8046 1.1431 1.1431v1.7147" stroke-width="1"></path><path stroke="#000000" stroke-linecap="round" stroke-linejoin="round" stroke-miterlimit="10" d="m18.0651 16.9477 1.1431 -1.1431" stroke-width="1"></path></svg>