<svg xmlns="http://www.w3.org/2000/svg" fill="none" viewBox="0 0 24 24" id="Led-Light-Strip-6--Streamline-Ultimate"><desc>Led Light Strip 6 Streamline Icon: https://streamlinehq.com</desc><path stroke="#000000" stroke-linejoin="round" d="M16.773 2.27736c1.3668 -1.366831 3.5829 -1.366831 4.9497 0 1.3669 1.36684 1.3669 3.58292 0 4.94975L7.22705 21.7228c-1.36684 1.3668 -3.58291 1.3668 -4.94975 0 -1.366834 -1.3668 -1.366834 -3.5829 0 -4.9497L16.773 2.27736Z" stroke-width="1"></path><path stroke="#000000" stroke-linecap="round" stroke-linejoin="round" stroke-miterlimit="10" d="M16.4194 7.58051c0.0977 0.09763 0.0977 0.25592 0 0.35355 -0.0976 0.09764 -0.2559 0.09763 -0.3535 0" stroke-width="1"></path><path stroke="#000000" stroke-linecap="round" stroke-linejoin="round" stroke-miterlimit="10" d="M16.4194 7.58055c-0.0976 -0.09763 -0.2559 -0.09764 -0.3535 0 -0.0977 0.09763 -0.0977 0.25592 0 0.35355" stroke-width="1"></path><path stroke="#000000" stroke-linecap="round" stroke-linejoin="round" stroke-miterlimit="10" d="M19.2478 4.75214c0.0977 0.09763 0.0977 0.25592 0.0001 0.35355 -0.0977 0.09764 -0.256 0.09763 -0.3536 0" stroke-width="1"></path><path stroke="#000000" stroke-linecap="round" stroke-linejoin="round" stroke-miterlimit="10" d="M19.2479 4.75218c-0.0977 -0.09763 -0.256 -0.09763 -0.3536 0 -0.0976 0.09763 -0.0976 0.25592 0 0.35356" stroke-width="1"></path><path stroke="#000000" stroke-linecap="round" stroke-linejoin="round" stroke-miterlimit="10" d="M13.591 10.409c0.0976 0.0976 0.0976 0.2559 0 0.3536 -0.0976 0.0976 -0.2559 0.0976 -0.3536 0" stroke-width="1"></path><path stroke="#000000" stroke-linecap="round" stroke-linejoin="round" stroke-miterlimit="10" d="M13.591 10.409c-0.0976 -0.0976 -0.2559 -0.0976 -0.3536 0 -0.0976 0.0977 -0.0976 0.256 0 0.3536" stroke-width="1"></path><path stroke="#000000" stroke-linecap="round" stroke-linejoin="round" stroke-miterlimit="10" d="M10.7626 13.2374c0.0976 0.0976 0.0976 0.2559 0 0.3535 -0.0977 0.0977 -0.256 0.0977 -0.3536 0" stroke-width="1"></path><path stroke="#000000" stroke-linecap="round" stroke-linejoin="round" stroke-miterlimit="10" d="M10.7626 13.2374c-0.0977 -0.0976 -0.256 -0.0976 -0.3536 0 -0.0976 0.0976 -0.0976 0.2559 0 0.3536" stroke-width="1"></path><path stroke="#000000" stroke-linecap="round" stroke-linejoin="round" stroke-miterlimit="10" d="M7.93413 16.0659c0.09763 0.0976 0.09763 0.2559 0 0.3535 -0.09763 0.0976 -0.25592 0.0976 -0.35356 0" stroke-width="1"></path><path stroke="#000000" stroke-linecap="round" stroke-linejoin="round" stroke-miterlimit="10" d="M7.93414 16.0659c-0.09763 -0.0976 -0.25592 -0.0976 -0.35355 0 -0.09764 0.0976 -0.09763 0.2559 0 0.3536" stroke-width="1"></path><path stroke="#000000" stroke-linecap="round" stroke-linejoin="round" stroke-miterlimit="10" d="M5.1057 18.8942c0.09763 0.0977 0.09763 0.256 0 0.3536 -0.09763 0.0976 -0.25592 0.0976 -0.35356 0" stroke-width="1"></path><path stroke="#000000" stroke-linecap="round" stroke-linejoin="round" stroke-miterlimit="10" d="M5.10571 18.8943c-0.09763 -0.0977 -0.25592 -0.0977 -0.35355 0 -0.09764 0.0976 -0.09763 0.2559 0 0.3535" stroke-width="1"></path><path stroke="#000000" stroke-linecap="round" stroke-linejoin="round" d="m5.81274 5.81274 1.41422 1.41422" stroke-width="1"></path><path stroke="#000000" stroke-linecap="round" stroke-linejoin="round" d="m4.03314 11.311 -1.93185 -0.5176" stroke-width="1"></path><path stroke="#000000" stroke-linecap="round" stroke-linejoin="round" d="m11.3107 4.03345 -0.5176 -1.93185" stroke-width="1"></path><path stroke="#000000" stroke-linecap="round" stroke-linejoin="round" d="M18.1873 18.1873 16.773 16.773" stroke-width="1"></path><path stroke="#000000" stroke-linecap="round" stroke-linejoin="round" d="m12.6891 19.967 0.5177 1.9319" stroke-width="1"></path><path stroke="#000000" stroke-linecap="round" stroke-linejoin="round" d="m19.9667 12.6895 1.9319 0.5176" stroke-width="1"></path></svg>