<svg xmlns="http://www.w3.org/2000/svg" fill="none" viewBox="0 0 24 24" id="Beer-Half-Glass--Streamline-Ultimate"><desc>Beer Half Glass Streamline Icon: https://streamlinehq.com</desc><path stroke="#000000" stroke-linecap="round" stroke-linejoin="round" d="m20.25 2.74023 -3 7.48997c-0.9818 2.6215 -1.2104 5.4654 -0.66 8.21l0.57 2.84c0.0286 0.1481 0.0125 0.3014 -0.0463 0.4403 -0.0587 0.1389 -0.1575 0.2571 -0.2837 0.3397 -1.4614 0.8538 -3.1396 1.2638 -4.83 1.18 -1.6904 0.0838 -3.36863 -0.3262 -4.83 -1.18 -0.12619 -0.0826 -0.22496 -0.2008 -0.28372 -0.3397 -0.05877 -0.1389 -0.07488 -0.2922 -0.04628 -0.4403l0.57 -2.84c0.55038 -2.7446 0.32176 -5.5885 -0.66 -8.21l-3 -7.48997" stroke-width="1"></path><path stroke="#000000" stroke-linecap="round" stroke-linejoin="round" d="M12 4.75c4.5563 0 8.25 -0.89543 8.25 -2s-3.6937 -2 -8.25 -2c-4.55635 0 -8.25 0.89543 -8.25 2s3.69365 2 8.25 2Z" stroke-width="1"></path><path stroke="#000000" stroke-linecap="round" stroke-linejoin="round" d="M7.06 11.17C7.17 10.1 9.34 9.25 12 9.25c2.66 0 4.83 0.85 4.94 1.92" stroke-width="1"></path><path stroke="#000000" d="M11.2451 19.1299c-0.2071 0 -0.375 -0.1679 -0.375 -0.375s0.1679 -0.375 0.375 -0.375" stroke-width="1"></path><path stroke="#000000" d="M11.2451 19.1299c0.2071 0 0.375 -0.1679 0.375 -0.375s-0.1679 -0.375 -0.375 -0.375" stroke-width="1"></path><path stroke="#000000" stroke-linecap="round" stroke-linejoin="round" d="M16.78 11.77c-0.57 0.85 -2.49 1.48 -4.78 1.48 -2.29002 0 -4.20002 -0.63 -4.77002 -1.48" stroke-width="1"></path></svg>