<svg xmlns="http://www.w3.org/2000/svg" fill="none" viewBox="0 0 24 24" id="Beer-Glass-Foam--Streamline-Ultimate"><desc>Beer Glass Foam Streamline Icon: https://streamlinehq.com</desc><path stroke="#000000" stroke-linecap="round" stroke-linejoin="round" d="M4.50002 5.12207v0.636c-0.00422 2.22914 0.52774 4.42663 1.55101 6.40703v0c1.22229 2.369 1.74039 5.0387 1.493 7.693l-0.159 1.742c-0.02724 0.1991 -0.01295 0.4016 0.04198 0.5949 0.05492 0.1933 0.14929 0.3731 0.27715 0.5281 0.12787 0.1551 0.28645 0.2819 0.46576 0.3726 0.17932 0.0907 0.37547 0.1432 0.57611 0.1544H13.929c0.2005 -0.0113 0.3964 -0.0639 0.5755 -0.1546 0.1792 -0.0907 0.3376 -0.2175 0.4653 -0.3724 0.1278 -0.1549 0.2221 -0.3345 0.277 -0.5276 0.0549 -0.1931 0.0693 -0.3955 0.0422 -0.5944l-0.159 -1.743c-0.2464 -2.6543 0.2717 -5.3236 1.493 -7.693v0c0.6822 -1.3139 1.1472 -2.72955 1.377 -4.19203" stroke-width="1"></path><path stroke="#000000" stroke-linecap="round" stroke-linejoin="round" d="M5.07703 9.75H17.598" stroke-width="1"></path><path stroke="#000000" d="M9.375 12.75c-0.20711 0 -0.375 -0.1679 -0.375 -0.375S9.16789 12 9.375 12" stroke-width="1"></path><path stroke="#000000" d="M9.375 12.75c0.20711 0 0.375 -0.1679 0.375 -0.375S9.58211 12 9.375 12" stroke-width="1"></path><path stroke="#000000" d="M12.375 15.75c-0.2071 0 -0.375 -0.1679 -0.375 -0.375s0.1679 -0.375 0.375 -0.375" stroke-width="1"></path><path stroke="#000000" d="M12.375 15.75c0.2071 0 0.375 -0.1679 0.375 -0.375S12.5821 15 12.375 15" stroke-width="1"></path><g><path stroke="#000000" d="M10.875 19.5c-0.2071 0 -0.375 -0.1679 -0.375 -0.375s0.1679 -0.375 0.375 -0.375" stroke-width="1"></path><path stroke="#000000" d="M10.875 19.5c0.2071 0 0.375 -0.1679 0.375 -0.375s-0.1679 -0.375 -0.375 -0.375" stroke-width="1"></path></g><path stroke="#000000" stroke-linecap="round" stroke-linejoin="round" d="M18 0.75H5.25c-0.59674 0 -1.16903 0.237053 -1.59099 0.65901C3.23705 1.83097 3 2.40326 3 3c0 0.59674 0.23705 1.16903 0.65901 1.59099 0.42196 0.42196 0.99425 0.65901 1.59099 0.65901h8.356c0.1118 0.4489 0.327 0.86544 0.6285 1.21634 0.3015 0.35091 0.6808 0.62646 1.1077 0.80465 0.4269 0.17819 0.8896 0.25408 1.3511 0.22162 0.4614 -0.03247 0.9089 -0.1724 1.3067 -0.40861V10.5c0 0.3978 0.158 0.7794 0.4393 1.0607S19.1022 12 19.5 12c0.3978 0 0.7794 -0.158 1.0607 -0.4393S21 10.8978 21 10.5V3.75c0 -0.79565 -0.3161 -1.55871 -0.8787 -2.12132C19.5587 1.06607 18.7956 0.75 18 0.75v0Z" stroke-width="1"></path></svg>