<svg xmlns="http://www.w3.org/2000/svg" viewBox="0 0 24 24" id="Food-Processing-Beer-Fermantation-Keg-Distribution-Stand--Streamline-Ultimate"><desc>Food Processing Beer Fermantation Keg Distribution Stand Streamline Icon: https://streamlinehq.com</desc><defs></defs><path d="M8.375 11h6.75s0.625 0 0.625 0.625v1.75s0 0.625 -0.625 0.625h-6.75s-0.625 0 -0.625 -0.625v-1.75s0 -0.625 0.625 -0.625" fill="none" stroke="#000000" stroke-linecap="round" stroke-linejoin="round" stroke-width="1"></path><path d="M8.516 14h6.468s0.766 0 0.766 0.766v4.688s0 0.766 -0.766 0.766H8.516s-0.766 0 -0.766 -0.766v-4.688s0 -0.766 0.766 -0.766" fill="none" stroke="#000000" stroke-linecap="round" stroke-linejoin="round" stroke-width="1"></path><path d="M8.449 20.22h6.602s0.699 0 0.699 0.699v1.382s0 0.699 -0.699 0.699H8.449s-0.699 0 -0.699 -0.699v-1.382s0 -0.699 0.699 -0.699" fill="none" stroke="#000000" stroke-linecap="round" stroke-linejoin="round" stroke-width="1"></path><path d="M15.75 7.5V4a1 1 0 0 1 1 -1h3" fill="none" stroke="#000000" stroke-linecap="round" stroke-linejoin="round" stroke-width="1"></path><path d="m18.75 1 0 3" fill="none" stroke="#000000" stroke-linecap="round" stroke-linejoin="round" stroke-width="1"></path><path d="M7.75 7.5V4a1 1 0 0 1 1 -1h3" fill="none" stroke="#000000" stroke-linecap="round" stroke-linejoin="round" stroke-width="1"></path><path d="m10.75 1 0 3" fill="none" stroke="#000000" stroke-linecap="round" stroke-linejoin="round" stroke-width="1"></path><path d="M4.25 23V8.567A1.113 1.113 0 0 1 5.4 7.5h12.7a1.113 1.113 0 0 1 1.15 1.067V23" fill="none" stroke="#000000" stroke-linecap="round" stroke-linejoin="round" stroke-width="1"></path></svg>