<svg xmlns="http://www.w3.org/2000/svg" fill="none" viewBox="0 0 24 24" id="Burnout-2--Streamline-Ultimate"><desc>Burnout 2 Streamline Icon: https://streamlinehq.com</desc><path stroke="#000000" stroke-linecap="round" stroke-linejoin="round" d="M4.67536 23.25v-6.265c-1.38177 -1.2801 -2.34542 -2.9471 -2.76512 -4.7833 -0.41969 -1.8362 -0.27593 -3.75636 0.41253 -5.50962 0.68845 -1.75326 1.88959 -3.25818 3.44657 -4.31823C7.32632 1.3138 9.16677 0.747884 11.0504 0.750006c7.139 0 8.68 5.878004 11.225 12.479994 0.0436 0.1137 0.0589 0.2362 0.0446 0.3571 -0.0143 0.1209 -0.0577 0.2365 -0.1266 0.3369 -0.0689 0.1003 -0.1611 0.1824 -0.2688 0.2392 -0.1077 0.0568 -0.2275 0.0866 -0.3492 0.0868h-1.9v3c0 0.7957 -0.3161 1.5587 -0.8787 2.1213 -0.5626 0.5626 -1.3257 0.8787 -2.1213 0.8787h-1.5v3" stroke-width="1"></path><path stroke="#000000" stroke-linecap="round" stroke-linejoin="round" d="M15.5985 7.98522v-0.26451c0 -0.42091 -0.1672 -0.82458 -0.4648 -1.12221 -0.2977 -0.29763 -0.7013 -0.46483 -1.1222 -0.46483H6.86976c-0.42091 0 -0.82458 0.1672 -1.12221 0.46483 -0.29763 0.29763 -0.46484 0.7013 -0.46484 1.12221v3.43859c0 0.4209 0.16721 0.8246 0.46484 1.1222 0.29763 0.2976 0.7013 0.4649 1.12221 0.4649h7.14174c0.4209 0 0.8245 -0.1673 1.1222 -0.4649 0.2976 -0.2976 0.4648 -0.7013 0.4648 -1.1222v-0.2645h0.7935c0.2105 0 0.4123 -0.0836 0.5611 -0.2324 0.1488 -0.1488 0.2324 -0.3507 0.2324 -0.5611V8.77874c0 -0.21045 -0.0836 -0.41229 -0.2324 -0.5611 -0.1488 -0.14882 -0.3506 -0.23242 -0.5611 -0.23242h-0.7935Z" stroke-width="1"></path><path stroke="#000000" stroke-linecap="round" stroke-linejoin="round" d="m6.62109 4.82709 9.22581 9.22581" stroke-width="1"></path></svg>