<svg xmlns="http://www.w3.org/2000/svg" fill="none" viewBox="0 0 24 24" id="Counseling-1--Streamline-Ultimate"><desc>Counseling 1 Streamline Icon: https://streamlinehq.com</desc><path stroke="#000000" stroke-linecap="round" stroke-linejoin="round" d="M1.13867 22.9326c0 -1.2341 0.49024 -2.4177 1.36287 -3.2903 0.87264 -0.8726 2.05618 -1.3629 3.29027 -1.3629 1.23408 0 2.41763 0.4903 3.29026 1.3629s1.36283 2.0562 1.36283 3.2903" stroke-width="1"></path><path stroke="#000000" stroke-linecap="round" stroke-linejoin="round" d="M22.88 17.0286c0 -1.4415 -0.5726 -2.824 -1.592 -3.8434 -1.0193 -1.0193 -2.4018 -1.5919 -3.8433 -1.5919 -1.4416 0 -2.8241 0.5726 -3.8434 1.5919 -0.5987 0.5988 -1.0433 1.3228 -1.3083 2.1104" stroke-width="1"></path><path stroke="#000000" stroke-linecap="round" stroke-linejoin="round" d="M5.79212 18.2796c1.50645 0 2.72767 -1.2213 2.72767 -2.7277 0 -1.5065 -1.22122 -2.7277 -2.72767 -2.7277 -1.50645 0 -2.72767 1.2212 -2.72767 2.7277 0 1.5064 1.22122 2.7277 2.72767 2.7277Z" stroke-width="1"></path><path stroke="#000000" stroke-linecap="round" stroke-linejoin="round" d="M17.445 11.5934c1.7597 0 3.1862 -1.4265 3.1862 -3.18624 0 -1.7597 -1.4265 -3.18621 -3.1862 -3.18621 -1.7597 0 -3.1862 1.42651 -3.1862 3.18621 0 1.75974 1.4265 3.18624 3.1862 3.18624Z" stroke-width="1"></path><path stroke="#000000" stroke-linecap="round" stroke-linejoin="round" d="M1.12061 5.68929c0 2.55254 2.43748 4.62181 5.44428 4.62181 0.3992 0 0.78836 -0.0365 1.16312 -0.1057l2.73589 1.7842 -0.4537 -2.72156c1.2202 -0.84757 1.999 -2.13596 1.999 -3.57875 0 -2.55254 -2.43752 -4.62179 -5.44431 -4.62179 -3.0068 0 -5.44428 2.06925 -5.44428 4.62179Z" stroke-width="1"></path><path stroke="#000000" stroke-linecap="round" stroke-linejoin="round" d="M3.96848 5.92082c0.16842 0 0.30496 -0.13653 0.30496 -0.30495s-0.13654 -0.30496 -0.30496 -0.30496" stroke-width="1"></path><path stroke="#000000" stroke-linecap="round" stroke-linejoin="round" d="M3.96853 5.92089c-0.16842 0 -0.30496 -0.13654 -0.30496 -0.30496 0 -0.16842 0.13654 -0.30496 0.30496 -0.30496" stroke-width="1"></path><path stroke="#000000" stroke-linecap="round" stroke-linejoin="round" d="M6.56516 5.92082c0.16842 0 0.30496 -0.13653 0.30496 -0.30495s-0.13654 -0.30496 -0.30496 -0.30496" stroke-width="1"></path><path stroke="#000000" stroke-linecap="round" stroke-linejoin="round" d="M6.5657 5.92089c-0.16842 0 -0.30496 -0.13654 -0.30496 -0.30496 0 -0.16842 0.13654 -0.30496 0.30496 -0.30496" stroke-width="1"></path><path stroke="#000000" stroke-linecap="round" stroke-linejoin="round" d="M9.16184 5.92082c0.16842 0 0.30496 -0.13653 0.30496 -0.30495s-0.13654 -0.30496 -0.30496 -0.30496" stroke-width="1"></path><path stroke="#000000" stroke-linecap="round" stroke-linejoin="round" d="M9.16238 5.92089c-0.16842 0 -0.30496 -0.13654 -0.30496 -0.30496 0 -0.16842 0.13654 -0.30496 0.30496 -0.30496" stroke-width="1"></path></svg>