<svg xmlns="http://www.w3.org/2000/svg" fill="none" viewBox="0 0 24 24" id="Mental-Health-2--Streamline-Ultimate"><desc>Mental Health 2 Streamline Icon: https://streamlinehq.com</desc><path stroke="#000000" stroke-linecap="round" stroke-linejoin="round" d="M7.38607 22.9794v-5.4261c-1.19675 -1.1087 -2.03136 -2.5525 -2.39486 -4.1428m7.91619 -9.91831c6.1831 0 7.5178 5.09092 9.722 10.80891 0.0378 0.0984 0.051 0.2046 0.0387 0.3093 -0.0124 0.1047 -0.05 0.2048 -0.1097 0.2917s-0.1395 0.1581 -0.2328 0.2073c-0.0932 0.0492 -0.1971 0.0749 -0.3025 0.0751h-1.6456v2.5983c0 0.6891 -0.2737 1.35 -0.761 1.8373 -0.4873 0.4872 -1.1481 0.761 -1.8373 0.761h-1.2991v2.5983" stroke-width="1"></path><path stroke="#000000" stroke-linecap="round" stroke-linejoin="round" d="M12.801 6.24143c1.4003 -0.02255 2.77 0.52185 3.8101 1.49849 1.0065 0.94514 0.3568 2.46728 -0.9247 2.98128l-5.71467 2.2922c-0.77219 0.3097 -1.64429 0.1135 -2.07085 -0.4573" stroke-width="1"></path><path stroke="#000000" stroke-linecap="round" stroke-linejoin="round" d="m7.32203 1.02063 -3.24147 0v2.75294H1.32764v3.24147h2.75292v2.75299l3.24147 0V7.01504H10.075V3.77357H7.32203V1.02063Z" stroke-width="1"></path></svg>