<svg xmlns="http://www.w3.org/2000/svg" fill="none" viewBox="0 0 24 24" id="Mindfulness-1--Streamline-Ultimate"><desc>Mindfulness 1 Streamline Icon: https://streamlinehq.com</desc><path stroke="#000000" stroke-linecap="round" stroke-linejoin="round" d="M4.67536 23.25v-6.265c-1.38177 -1.2801 -2.34542 -2.9471 -2.76512 -4.7833 -0.41969 -1.8362 -0.27593 -3.75636 0.41253 -5.50962 0.68845 -1.75326 1.88959 -3.25818 3.44657 -4.31823C7.32632 1.3138 9.16677 0.747884 11.0504 0.750006c7.139 0 8.68 5.878004 11.225 12.479994 0.0436 0.1137 0.0589 0.2362 0.0446 0.3571 -0.0143 0.1209 -0.0577 0.2365 -0.1266 0.3369 -0.0689 0.1003 -0.1611 0.1824 -0.2688 0.2392 -0.1077 0.0568 -0.2275 0.0866 -0.3492 0.0868h-1.9v3c0 0.7957 -0.3161 1.5587 -0.8787 2.1213 -0.5626 0.5626 -1.3257 0.8787 -2.1213 0.8787h-1.5v3" stroke-width="1"></path><path stroke="#000000" stroke-linecap="round" stroke-linejoin="round" d="M11.0761 13.9169c-0.6454 -0.5221 -1.17145 -1.1764 -1.5427 -1.9189 -0.37125 -0.7425 -0.57911 -1.556 -0.60957 -2.38554 0.02038 -0.74801 0.18844 -1.48461 0.49452 -2.16743 0.30607 -0.68283 0.74415 -1.29841 1.28895 -1.81133 0.0986 -0.09661 0.2311 -0.15073 0.3691 -0.15073 0.138 0 0.2706 0.05412 0.3691 0.15073 0.5446 0.51308 0.9824 1.12871 1.2884 1.81151 0.3059 0.6828 0.4739 1.41932 0.4944 2.16725 -0.0305 0.82954 -0.2383 1.64304 -0.6096 2.38554 -0.3712 0.7425 -0.8973 1.3968 -1.5426 1.9189v0Z" stroke-width="1"></path><path stroke="#000000" stroke-linecap="round" stroke-linejoin="round" d="M13.1712 8.85915c1.0278 -0.69905 2.2437 -1.06956 3.4866 -1.06248 0.1418 0.00019 0.2776 0.05641 0.378 0.15641 0.1004 0.1 0.1572 0.23564 0.158 0.37734 0.0212 0.74603 -0.105 1.48891 -0.3714 2.18608 -0.2664 0.6971 -0.6678 1.3349 -1.1811 1.8766 -0.6082 0.565 -1.3304 0.9932 -2.1179 1.2557 -0.7875 0.2624 -1.6222 0.3531 -2.4477 0.2659" stroke-width="1"></path><path stroke="#000000" stroke-linecap="round" stroke-linejoin="round" d="M8.98183 8.86708C7.94832 8.15664 6.72058 7.7828 5.46652 7.7967c-0.14189 0 -0.27803 0.05612 -0.37869 0.15611 -0.10067 0.1 -0.1577 0.23575 -0.15865 0.37764 -0.02182 0.74624 0.1039 1.48944 0.36994 2.18695 0.26604 0.6976 0.66717 1.3357 1.18038 1.8779 0.61386 0.5659 1.3414 0.9944 2.13403 1.2568 0.79263 0.2624 1.63217 0.3527 2.46237 0.2648" stroke-width="1"></path></svg>