<svg xmlns="http://www.w3.org/2000/svg" fill="none" viewBox="0 0 24 24" id="Mindfulness-2--Streamline-Ultimate"><desc>Mindfulness 2 Streamline Icon: https://streamlinehq.com</desc><path stroke="#000000" stroke-linecap="round" stroke-linejoin="round" d="M4.67536 23.25v-6.265c-1.38177 -1.2801 -2.34542 -2.9471 -2.76512 -4.7833 -0.41969 -1.8362 -0.27593 -3.75636 0.41253 -5.50962 0.68845 -1.75326 1.88959 -3.25818 3.44657 -4.31823C7.32632 1.3138 9.16677 0.747884 11.0504 0.750006c7.139 0 8.68 5.878004 11.225 12.479994 0.0436 0.1137 0.0589 0.2362 0.0446 0.3571 -0.0143 0.1209 -0.0577 0.2365 -0.1266 0.3369 -0.0689 0.1003 -0.1611 0.1824 -0.2688 0.2392 -0.1077 0.0568 -0.2275 0.0866 -0.3492 0.0868h-1.9v3c0 0.7957 -0.3161 1.5587 -0.8787 2.1213 -0.5626 0.5626 -1.3257 0.8787 -2.1213 0.8787h-1.5v3" stroke-width="1"></path><path stroke="#000000" stroke-linecap="round" stroke-linejoin="round" d="M16.4561 11.5651s-2.6232 3.279 -5.2463 3.279c-2.62323 0 -5.24642 -3.279 -5.24642 -3.279s2.62319 -3.27897 5.24642 -3.27897c2.6231 0 5.2463 3.27897 5.2463 3.27897Z" stroke-width="1"></path><path stroke="#000000" stroke-linecap="round" stroke-linejoin="round" d="M11.2094 11.9854c-0.2322 0 -0.4203 -0.1882 -0.4203 -0.4203s0.1881 -0.4203 0.4203 -0.4203" stroke-width="1"></path><path stroke="#000000" stroke-linecap="round" stroke-linejoin="round" d="M11.2096 11.9854c0.2321 0 0.4203 -0.1882 0.4203 -0.4203s-0.1882 -0.4203 -0.4203 -0.4203" stroke-width="1"></path><path stroke="#000000" stroke-linecap="round" d="M7.18555 6.99561 6.3335 5.85962" stroke-width="1"></path><path stroke="#000000" stroke-linecap="round" d="m15.3765 6.99561 0.852 -1.13599" stroke-width="1"></path><path stroke="#000000" stroke-linecap="round" d="m11.2095 5.85962 0 -1.408" stroke-width="1"></path></svg>