<svg xmlns="http://www.w3.org/2000/svg" fill="none" viewBox="0 0 24 24" id="Psycho-Analysis-5--Streamline-Ultimate"><desc>Psycho Analysis 5 Streamline Icon: https://streamlinehq.com</desc><path stroke="#000000" stroke-linecap="round" stroke-linejoin="round" d="M11.8961 5.81946c3.1051 0 5.6222 -1.08122 5.6222 -2.41498 0 -1.33376 -2.5171 -2.414978 -5.6222 -2.414978 -3.10503 0 -5.62217 1.081218 -5.62217 2.414978s2.51714 2.41498 5.62217 2.41498Z" stroke-width="1"></path><path stroke="#000000" stroke-linecap="round" stroke-linejoin="round" d="M7.79759 8.02045c-0.9316 0.36105 -1.50023 0.84249 -1.50023 1.37117 0 1.12028 2.55335 2.02848 5.70304 2.02848 3.1497 0 5.7031 -0.9082 5.7031 -2.02848 0 -0.52868 -0.5687 -1.01012 -1.5003 -1.37117" stroke-width="1"></path><path stroke="#000000" stroke-linecap="round" stroke-linejoin="round" d="M7.36735 4.83582 3.71439 6.36683" stroke-width="1"></path><path stroke="#000000" stroke-linecap="round" stroke-linejoin="round" d="M6.32574 9.13528c-0.5171 0.93132 -0.81158 2.00332 -0.81158 3.14402v2.6551c0 2.073 0.97247 3.9189 2.48611 5.1064l1.01374 0.5817c1.84959 1.0615 4.12349 1.0615 5.97299 0l1.0138 -0.5817c1.5136 -1.1875 2.4861 -3.0334 2.4861 -5.1064v-2.6551c0 -1.1407 -0.2945 -2.2127 -0.8116 -3.14402" stroke-width="1"></path><path stroke="#000000" stroke-linecap="round" stroke-linejoin="round" d="M20.3346 23.0991c-1.3716 -1.1914 -3.001 -2.0938 -4.7933 -2.6125M3.66455 23.0991c1.37166 -1.1914 3.00105 -2.0938 4.7934 -2.6125" stroke-width="1"></path><path stroke="#000000" stroke-linecap="round" stroke-linejoin="round" d="M9.45742 14.7092c-0.23213 0 -0.42031 -0.1882 -0.42031 -0.4204 0 -0.2321 0.18818 -0.4203 0.42031 -0.4203" stroke-width="1"></path><path stroke="#000000" stroke-linecap="round" stroke-linejoin="round" d="M9.45762 14.7092c0.23213 0 0.42031 -0.1882 0.42031 -0.4204 0 -0.2321 -0.18818 -0.4203 -0.42031 -0.4203" stroke-width="1"></path><path stroke="#000000" stroke-linecap="round" stroke-linejoin="round" d="M14.5414 14.709c-0.2321 0 -0.4203 -0.1881 -0.4203 -0.4203 0 -0.2321 0.1882 -0.4203 0.4203 -0.4203" stroke-width="1"></path><path stroke="#000000" stroke-linecap="round" stroke-linejoin="round" d="M14.5416 14.709c0.2321 0 0.4203 -0.1881 0.4203 -0.4203 0 -0.2321 -0.1882 -0.4203 -0.4203 -0.4203" stroke-width="1"></path></svg>