<svg xmlns="http://www.w3.org/2000/svg" fill="none" viewBox="0 0 24 24" id="Psycho-Analysis-2--Streamline-Ultimate"><desc>Psycho Analysis 2 Streamline Icon: https://streamlinehq.com</desc><path stroke="#000000" stroke-linecap="round" stroke-linejoin="round" d="M10.8858 21.0469c5.462 0 9.8898 -4.4277 9.8898 -9.8897 0 -5.46196 -4.4278 -9.88974 -9.8898 -9.88974 -5.46192 0 -9.889706 4.42778 -9.889706 9.88974 0 5.462 4.427786 9.8897 9.889706 9.8897Z" stroke-width="1"></path><path stroke="#000000" stroke-linecap="round" stroke-linejoin="round" d="m18.0908 17.9268 4.9128 4.8058" stroke-width="1"></path><path stroke="#000000" stroke-linecap="round" stroke-linejoin="round" d="M7.05814 16.8682v-3.4746c-0.76632 -0.7099 -1.30076 -1.6344 -1.53352 -2.6528 -0.23277 -1.01836 -0.15303 -2.08325 0.22878 -3.0556 0.38181 -0.97236 1.04796 -1.80698 1.91146 -2.39488 0.8635 -0.5879 1.8842 -0.90175 2.92884 -0.90058 3.9593 0 4.8139 3.25992 6.2253 6.92136 0.0242 0.063 0.0327 0.131 0.0248 0.1981 -0.0079 0.067 -0.032 0.1311 -0.0702 0.1868 -0.0382 0.0556 -0.0894 0.1012 -0.1491 0.1327 -0.0597 0.0315 -0.1262 0.048 -0.1937 0.0481h-1.0537v1.6638c0 0.4413 -0.1753 0.8644 -0.4873 1.1765 -0.312 0.312 -0.7352 0.4873 -1.1765 0.4873h-0.8319v1.6638" stroke-width="1"></path><path stroke="#000000" stroke-linecap="round" stroke-linejoin="round" stroke-miterlimit="10" d="M9.09131 8.89172c0 -0.76883 0.61507 -1.46075 1.46079 -1.46075 0.7688 0 1.4608 0.61504 1.4608 1.46075 0 0.76884 -0.6151 1.46078 -1.4608 1.46078v0.6484" stroke-width="1"></path><path stroke="#000000" stroke-linecap="round" stroke-linejoin="round" stroke-miterlimit="10" d="M10.5525 13.1307c-0.1005 0 -0.2009 0.1005 -0.2009 0.201 0 0.1004 0.1004 0.2009 0.2009 0.2009" stroke-width="1"></path><path stroke="#000000" stroke-linecap="round" stroke-linejoin="round" stroke-miterlimit="10" d="M10.5524 13.1307c0.1005 0 0.201 0.1005 0.201 0.201 0 0.1004 -0.1005 0.2009 -0.201 0.2009" stroke-width="1"></path></svg>