<svg xmlns="http://www.w3.org/2000/svg" fill="none" viewBox="0 0 24 24" id="Sadness-Emotions-2--Streamline-Ultimate"><desc>Sadness Emotions 2 Streamline Icon: https://streamlinehq.com</desc><path stroke="#000000" stroke-linecap="round" stroke-linejoin="round" d="M8.19755 21.6769v-5.267c-0.17395 -0.1612 -0.34001 -0.3296 -0.49784 -0.5047m9.32519 5.7717v-2.5221h1.2611c0.6689 0 1.3104 -0.2658 1.7833 -0.7387 0.473 -0.473 0.7388 -1.1145 0.7388 -1.7834v-2.5221h1.5973c0.1023 -0.0002 0.2031 -0.0252 0.2936 -0.073 0.0905 -0.0477 0.1681 -0.1168 0.226 -0.2011 0.0579 -0.0844 0.0944 -0.1816 0.1064 -0.2832 0.012 -0.1017 -0.0009 -0.2047 -0.0375 -0.3003 -2.1396 -5.55025 -3.4351 -10.49189 -9.4369 -10.49189 -0.2963 -0.00033 -0.5914 0.01606 -0.8838 0.04876" stroke-width="1"></path><path stroke="#000000" stroke-linecap="round" stroke-linejoin="round" d="M6.61525 13.6249c3.12091 0 5.65095 -2.53 5.65095 -5.65088 0 -3.12091 -2.53004 -5.6509 -5.65095 -5.6509 -3.1209 0 -5.650895 2.52999 -5.650895 5.6509 0 3.12088 2.529995 5.65088 5.650895 5.65088Z" stroke-width="1"></path><path stroke="#000000" stroke-linecap="round" stroke-linejoin="round" d="M4.7072 6.88084c-0.20774 0 -0.37615 -0.16841 -0.37615 -0.37615 0 -0.20774 0.16841 -0.37615 0.37615 -0.37615" stroke-width="1"></path><path stroke="#000000" stroke-linecap="round" stroke-linejoin="round" d="M4.70735 6.88084c0.20774 0 0.37615 -0.16841 0.37615 -0.37615 0 -0.20774 -0.16841 -0.37615 -0.37615 -0.37615" stroke-width="1"></path><path stroke="#000000" stroke-linecap="round" stroke-linejoin="round" d="M8.52312 6.88084c-0.20774 0 -0.37615 -0.16841 -0.37615 -0.37615 0 -0.20774 0.16841 -0.37615 0.37615 -0.37615" stroke-width="1"></path><path stroke="#000000" stroke-linecap="round" stroke-linejoin="round" d="M8.52327 6.88084c0.20774 0 0.37614 -0.16841 0.37614 -0.37615 0 -0.20774 -0.1684 -0.37615 -0.37614 -0.37615" stroke-width="1"></path><path stroke="#000000" stroke-linecap="round" stroke-linejoin="round" d="M4.8809 10.0741c0.84372 -0.78933 2.6658 -0.76328 3.46911 -0.0001" stroke-width="1"></path></svg>