<svg xmlns="http://www.w3.org/2000/svg" fill="none" viewBox="0 0 24 24" id="Self-Care-3--Streamline-Ultimate"><desc>Self Care 3 Streamline Icon: https://streamlinehq.com</desc><path stroke="#000000" stroke-linecap="round" stroke-linejoin="round" d="m3.75 23.1419 -2 -2.38c-0.64308 -0.7958 -0.9958 -1.7869 -1 -2.81v-5.17c0 -0.3979 0.158035 -0.7794 0.43934 -1.0607 0.2813 -0.2813 0.66284 -0.4393 1.06066 -0.4393v0c0.39782 0 0.77936 0.158 1.06066 0.4393 0.2813 0.2813 0.43934 0.6628 0.43934 1.0607v3.87" stroke-width="1"></path><path stroke="#000000" stroke-linecap="round" stroke-linejoin="round" d="M8.2503 23.1419v-3c0.00193 -0.8906 -0.26277 -1.7613 -0.76 -2.5l-1.14 -1.75c-0.0967 -0.1665 -0.22692 -0.3111 -0.38242 -0.4246 -0.15549 -0.1135 -0.33288 -0.1935 -0.52091 -0.2349 -0.18803 -0.0414 -0.3826 -0.0432 -0.57138 -0.0054 -0.18878 0.0377 -0.36766 0.1143 -0.52529 0.2249v0c-0.28273 0.19 -0.48643 0.4767 -0.57295 0.8062 -0.08652 0.3295 -0.04992 0.6793 0.10295 0.9838l1.35 2.25" stroke-width="1"></path><path stroke="#000000" stroke-linecap="round" stroke-linejoin="round" d="m20.25 23.1419 2 -2.38c0.6431 -0.7958 0.9958 -1.7869 1 -2.81v-5.17c0 -0.3979 -0.158 -0.7794 -0.4393 -1.0607s-0.6629 -0.4393 -1.0607 -0.4393c-0.3978 0 -0.7794 0.158 -1.0607 0.4393s-0.4393 0.6628 -0.4393 1.0607v3.87" stroke-width="1"></path><path stroke="#000000" stroke-linecap="round" stroke-linejoin="round" d="M15.75 23.1419v-3c-0.0019 -0.8906 0.2628 -1.7613 0.76 -2.5l1.14 -1.75c0.0967 -0.1665 0.2269 -0.3111 0.3824 -0.4246 0.1555 -0.1135 0.3329 -0.1935 0.5209 -0.2349 0.1881 -0.0414 0.3826 -0.0432 0.5714 -0.0054 0.1888 0.0377 0.3677 0.1143 0.5253 0.2249v0c0.2827 0.19 0.4864 0.4767 0.573 0.8062 0.0865 0.3295 0.0499 0.6793 -0.103 0.9838l-1.35 2.25" stroke-width="1"></path><path stroke="#000000" stroke-linecap="round" stroke-linejoin="round" d="M7.25049 12.75c0 -1.2598 0.50044 -2.468 1.39124 -3.35876C9.53253 8.50045 10.7407 8 12.0005 8c1.2598 0 2.4679 0.50045 3.3587 1.39124 0.8908 0.89076 1.3913 2.09896 1.3913 3.35876" stroke-width="1"></path><path stroke="#000000" stroke-linecap="round" stroke-linejoin="round" d="M12.0013 6.5404c1.5691 0 2.8411 -1.27201 2.8411 -2.84112S13.5704 0.858154 12.0013 0.858154 9.16016 2.13017 9.16016 3.69928 10.4322 6.5404 12.0013 6.5404Z" stroke-width="1"></path></svg>