<svg xmlns="http://www.w3.org/2000/svg" fill="none" viewBox="0 0 24 24" id="Support-1--Streamline-Ultimate"><desc>Support 1 Streamline Icon: https://streamlinehq.com</desc><path stroke="#000000" stroke-linecap="round" stroke-linejoin="round" d="M11.9855 12.8008 6.00443 7.38322C2.75386 4.13265 7.5322 -2.10845 11.9855 2.94077c4.4533 -5.04922 9.2099 1.21355 5.981 4.44245l-5.981 5.41758Z" stroke-width="1"></path><path stroke="#000000" stroke-linecap="round" stroke-linejoin="round" d="m3.75 22.961 -2 -2.38c-0.64308 -0.7957 -0.9958 -1.7869 -1 -2.81v-5.17c0 -0.3978 0.158035 -0.7793 0.43934 -1.0606 0.2813 -0.2814 0.66284 -0.4394 1.06066 -0.4394v0c0.39782 0 0.77936 0.158 1.06066 0.4394 0.2813 0.2813 0.43934 0.6628 0.43934 1.0606v3.87" stroke-width="1"></path><path stroke="#000000" stroke-linecap="round" stroke-linejoin="round" d="M8.25053 22.961v-3c0.00194 -0.8905 -0.26276 -1.7613 -0.76 -2.5l-1.14 -1.75c-0.40311 -0.6941 -1.3428 -0.9008 -2 -0.44 -0.57745 0.3882 -0.78223 1.1681 -0.47 1.79l1.35 2.25" stroke-width="1"></path><path stroke="#000000" stroke-linecap="round" stroke-linejoin="round" d="m20.25 22.961 2 -2.38c0.6431 -0.7957 0.9958 -1.7869 1 -2.81v-5.17c0 -0.3978 -0.158 -0.7793 -0.4393 -1.0606 -0.2813 -0.2814 -0.6629 -0.4394 -1.0607 -0.4394 -0.3978 0 -0.7794 0.158 -1.0607 0.4394 -0.2813 0.2813 -0.4393 0.6628 -0.4393 1.0606v3.87" stroke-width="1"></path><path stroke="#000000" stroke-linecap="round" stroke-linejoin="round" d="M15.75 22.961v-3c-0.0019 -0.8905 0.2628 -1.7613 0.76 -2.5l1.14 -1.75c0.4031 -0.6941 1.3428 -0.9008 2 -0.44 0.5775 0.3882 0.7822 1.1681 0.47 1.79l-1.35 2.25" stroke-width="1"></path></svg>