<svg viewBox="0 0 24 24" xmlns="http://www.w3.org/2000/svg" id="Outdoors-Landscape--Streamline-Ultimate"><desc>Outdoors Landscape Streamline Icon: https://streamlinehq.com</desc><path d="M7.5 3.767 5.934 1.418a1.5 1.5 0 0 0 -2.59 0.161L0.75 6.767h12l-2.069 -4.138a1.5 1.5 0 0 0 -2.4 -0.39l-1.1 1.053" fill="none" stroke="#000000" stroke-linecap="round" stroke-linejoin="round" stroke-width="1"></path><path d="m20.25 3 -3 8.25 6 0 -3 -8.25z" fill="none" stroke="#000000" stroke-linecap="round" stroke-linejoin="round" stroke-width="1"></path><path d="m20.25 11.25 0 3" fill="none" stroke="#000000" stroke-linecap="round" stroke-linejoin="round" stroke-width="1"></path><path d="m3.75 12 -3 8.25 6 0 -3 -8.25z" fill="none" stroke="#000000" stroke-linecap="round" stroke-linejoin="round" stroke-width="1"></path><path d="m3.75 20.25 0 3" fill="none" stroke="#000000" stroke-linecap="round" stroke-linejoin="round" stroke-width="1"></path><path d="M19.5 19.7a4.818 4.818 0 0 1 1.27 2.056" fill="none" stroke="#000000" stroke-linecap="round" stroke-linejoin="round" stroke-width="1"></path><path d="M15 17.848c0.24 0.058 0.489 0.109 0.749 0.152a9.264 9.264 0 0 1 1.507 0.376" fill="none" stroke="#000000" stroke-linecap="round" stroke-linejoin="round" stroke-width="1"></path><path d="M10.7 14.667a5.746 5.746 0 0 0 1.3 1.7" fill="none" stroke="#000000" stroke-linecap="round" stroke-linejoin="round" stroke-width="1"></path><path d="M9.75 9.75a16.554 16.554 0 0 0 0.087 1.75" fill="none" stroke="#000000" stroke-linecap="round" stroke-linejoin="round" stroke-width="1"></path></svg>