<svg viewBox="0 0 24 24" xmlns="http://www.w3.org/2000/svg" id="Outdoors-Bird-House--Streamline-Ultimate"><desc>Outdoors Bird House Streamline Icon: https://streamlinehq.com</desc><path d="M16.5 3.654v6.721a0.75 0.75 0 0 1 -0.75 0.75h-7.5a0.75 0.75 0 0 1 -0.75 -0.75V3.654" fill="none" stroke="#000000" stroke-linecap="round" stroke-linejoin="round" stroke-width="1"></path><path d="M5.25 5.125 11.1 1.3a1.5 1.5 0 0 1 1.8 0l5.85 3.825" fill="none" stroke="#000000" stroke-linecap="round" stroke-linejoin="round" stroke-width="1"></path><path d="m12 8.125 0 15" fill="none" stroke="#000000" stroke-linecap="round" stroke-linejoin="round" stroke-width="1"></path><path d="M1.5 15.625a3 3 0 1 0 6 0 3 3 0 1 0 -6 0Z" fill="none" stroke="#000000" stroke-linecap="round" stroke-linejoin="round" stroke-width="1"></path><path d="M16.5 17.125a3 3 0 1 0 6 0 3 3 0 1 0 -6 0Z" fill="none" stroke="#000000" stroke-linecap="round" stroke-linejoin="round" stroke-width="1"></path><path d="M7.414 16.34A6.656 6.656 0 0 1 12 22.375" fill="none" stroke="#000000" stroke-linecap="round" stroke-linejoin="round" stroke-width="1"></path><path d="M12 23.125c0.75 -3 3 -4.5 4.5 -4.5h0.4" fill="none" stroke="#000000" stroke-linecap="round" stroke-linejoin="round" stroke-width="1"></path></svg>