<svg viewBox="0 0 24 24" xmlns="http://www.w3.org/2000/svg" id="Outdoors-Tree-Valley--Streamline-Ultimate"><desc>Outdoors Tree Valley Streamline Icon: https://streamlinehq.com</desc><path d="M7.374 1.084a0.75 0.75 0 0 0 -1.248 0L2.25 7.5H4.5l-2.9 4.128a0.75 0.75 0 0 0 0.65 1.122h9a0.75 0.75 0 0 0 0.651 -1.122L9 7.5h2.25Z" fill="none" stroke="#000000" stroke-linecap="round" stroke-linejoin="round" stroke-width="1"></path><path d="m6.75 12.75 0 4.582" fill="none" stroke="#000000" stroke-linecap="round" stroke-linejoin="round" stroke-width="1"></path><path d="M19.262 1.023a0.614 0.614 0 0 0 -1.021 0L15.069 6h1.841l-2.578 3.582a0.613 0.613 0 0 0 0.533 0.918h7.77a0.613 0.613 0 0 0 0.533 -0.918L20.592 6h1.841Z" fill="none" stroke="#000000" stroke-linecap="round" stroke-linejoin="round" stroke-width="1"></path><path d="m18.751 10.5 0 4.035" fill="none" stroke="#000000" stroke-linecap="round" stroke-linejoin="round" stroke-width="1"></path><path d="M0.805 18a13.517 13.517 0 0 1 15.673 5.254" fill="none" stroke="#000000" stroke-linecap="round" stroke-linejoin="round" stroke-width="1"></path><path d="M10.969 18.518A15.7 15.7 0 0 1 21.75 14.25q0.759 0 1.5 0.07" fill="none" stroke="#000000" stroke-linecap="round" stroke-linejoin="round" stroke-width="1"></path></svg>