<svg viewBox="0 0 24 24" xmlns="http://www.w3.org/2000/svg" id="Outdoors-Bird-House-1--Streamline-Ultimate"><desc>Outdoors Bird House 1 Streamline Icon: https://streamlinehq.com</desc><path d="m15.75 2.75 0 4.75 -6 0 0 -4.75" fill="none" stroke="#000000" stroke-linecap="round" stroke-linejoin="round" stroke-width="1"></path><path d="m8.25 3.75 4.5 -3 4.5 3" fill="none" stroke="#000000" stroke-linecap="round" stroke-linejoin="round" stroke-width="1"></path><path d="m12.75 5.25 0 18" fill="none" stroke="#000000" stroke-linecap="round" stroke-linejoin="round" stroke-width="1"></path><path d="M8.25 13.5a1.5 1.5 0 0 0 0 -3 1.457 1.457 0 0 0 -0.8 0.267 2.242 2.242 0 0 0 -4.315 -0.241c-0.045 0 -0.084 -0.026 -0.13 -0.026a1.5 1.5 0 0 0 0 3Z" fill="none" stroke="#000000" stroke-linecap="round" stroke-linejoin="round" stroke-width="1"></path><path d="M21 18a1.5 1.5 0 0 0 0 -3 1.457 1.457 0 0 0 -0.8 0.267A2.249 2.249 0 1 0 18 18Z" fill="none" stroke="#000000" stroke-linecap="round" stroke-linejoin="round" stroke-width="1"></path><path d="M5.25 13.5V15a3 3 0 0 0 3 3h4.5" fill="none" stroke="#000000" stroke-linecap="round" stroke-linejoin="round" stroke-width="1"></path><path d="M19.5 18v0.75a3 3 0 0 1 -3 3h-3.75" fill="none" stroke="#000000" stroke-linecap="round" stroke-linejoin="round" stroke-width="1"></path></svg>