<svg xmlns="http://www.w3.org/2000/svg" fill="none" viewBox="0 0 24 24" id="Pathfinder-Exclude--Streamline-Ultimate"><desc>Pathfinder Exclude Streamline Icon: https://streamlinehq.com</desc><path stroke="#000000" stroke-linecap="round" stroke-linejoin="round" d="m15.6016 8.39844 0 -6.20313c0 -0.55228 -0.4478 -1 -1 -1l-12.40629 0c-0.55228 0 -1 0.44772 -1 1l0 12.40629c0 0.5522 0.44772 1 1 1l6.20313 0M12 8.39844l-2.60156 0c-0.55229 0 -1 0.44771 -1 1l0 2.60156" stroke-width="1"></path><path stroke="#000000" stroke-linecap="round" stroke-linejoin="round" d="m15.6016 8.39844 6.2031 0c0.5523 0 1 0.44771 1 1l0 12.40626c0 0.5523 -0.4477 1 -1 1l-12.40626 0c-0.55229 0 -1 -0.4477 -1 -1l0 -6.2031M15.6016 12l0 2.6016c0 0.5522 -0.4478 1 -1 1l-2.6016 0" stroke-width="1"></path></svg>