<svg xmlns="http://www.w3.org/2000/svg" fill="none" viewBox="0 0 24 24" id="Pathfinder-Minus-Back--Streamline-Ultimate"><desc>Pathfinder Minus Back Streamline Icon: https://streamlinehq.com</desc><path stroke="#000000" stroke-linecap="round" stroke-linejoin="round" d="M21.8047 7.26562c0.5523 0 1 0.44773 1 1.00001l-0.0001 13.53877c0 0.5522 -0.4477 1 -1 1l-13.78776 0c-0.55228 0 -1 -0.4478 -1 -1l0 -5.2032c0 -0.5523 0.44772 -1 1 -1l6.58456 0c0.5523 0 1 -0.4477 1 -1l0.0001 -6.33559c0.0001 -0.55228 0.4478 -0.99999 1 -0.99999l5.2032 0Z" stroke-width="1"></path><path stroke="#000000" stroke-dasharray="3 3" stroke-linecap="round" stroke-linejoin="round" d="m10.3984 15.6016 -8.20309 0c-0.55228 0 -1 -0.4478 -1 -1l0 -12.40629c0 -0.55228 0.44772 -1 1 -1l12.40629 0c0.5522 0 1 0.44772 1 1l0 8.20309" stroke-width="1"></path></svg>