<svg xmlns="http://www.w3.org/2000/svg" viewBox="0 0 24 24" id="Business-Card-Hand-1--Streamline-Ultimate"><desc>Business Card Hand 1 Streamline Icon: https://streamlinehq.com</desc><defs></defs><path d="M8.701 1.198h13.538s1 0 1 1v8.241s0 1 -1 1H8.701s-1 0 -1 -1V2.198s0 -1 1 -1" stroke-linecap="round" stroke-linejoin="round" fill="none" stroke="#000000" stroke-width="1"></path><path d="m12.043 8.641 7.49 0" stroke-linecap="round" stroke-linejoin="round" fill="none" stroke="#000000" stroke-width="1"></path><path d="M14.72 4.961a0.75 0.75 0 1 0 1.5 0 0.75 0.75 0 1 0 -1.5 0" stroke-miterlimit="10" fill="none" stroke="#000000" stroke-width="1"></path><path d="M16.276 14.161v3.874A4.766 4.766 0 0 1 11.51 22.8H8.33a4.775 4.775 0 0 1 -4.03 -2.211c-0.918 -1.452 -2.675 -6.832 -3.47 -9.346a1.48 1.48 0 0 1 0.87 -1.821h0a1.484 1.484 0 0 1 1.791 0.562c0.561 0.85 0.749 1.378 1.274 2.287l0.076 -6.629a1.43 1.43 0 1 1 2.86 0v4.674" stroke-linecap="round" stroke-linejoin="round" fill="none" stroke="#000000" stroke-width="1"></path><path d="m4.462 11.733 1.2 2.012C8.049 14.353 8 16.058 8 17.558" stroke-linecap="round" stroke-linejoin="round" fill="none" stroke="#000000" stroke-width="1"></path></svg>