<svg xmlns="http://www.w3.org/2000/svg" viewBox="0 0 24 24" id="Business-Card-Stack-2--Streamline-Ultimate"><desc>Business Card Stack 2 Streamline Icon: https://streamlinehq.com</desc><defs></defs><path d="M5.384 12.148V1.762a1 1 0 0 1 1 -1h15.624a1 1 0 0 1 1 1v20.476a1 1 0 0 1 -1 1h-5.456" stroke-linecap="round" stroke-linejoin="round" fill="none" stroke="#000000" stroke-width="1"></path><path d="M1.992 15.021h10.304s1 0 1 1v6.211s0 1 -1 1H1.992s-1 0 -1 -1v-6.211s0 -1 1 -1" stroke-linecap="round" stroke-linejoin="round" fill="none" stroke="#000000" stroke-width="1"></path><path d="M8.597 4.172a0.75 0.75 0 1 0 1.5 0 0.75 0.75 0 1 0 -1.5 0" stroke-miterlimit="10" fill="none" stroke="#000000" stroke-width="1"></path><path d="M3.304 18.111a0.75 0.75 0 1 0 1.5 0 0.75 0.75 0 1 0 -1.5 0" stroke-miterlimit="10" fill="none" stroke="#000000" stroke-width="1"></path><path d="m14.628 3.812 5.429 0" stroke-linecap="round" stroke-linejoin="round" fill="none" stroke="#000000" stroke-width="1"></path><path d="m14.628 6.966 5.429 0" stroke-linecap="round" stroke-linejoin="round" fill="none" stroke="#000000" stroke-width="1"></path><path d="m6.409 20.626 4.185 0" stroke-linecap="round" stroke-linejoin="round" fill="none" stroke="#000000" stroke-width="1"></path></svg>