<svg xmlns="http://www.w3.org/2000/svg" viewBox="0 0 24 24" id="Flyer-Taken--Streamline-Ultimate"><desc>Flyer Taken Streamline Icon: https://streamlinehq.com</desc><g><path d="M0.75 13.25v-11a1.5 1.5 0 0 1 1.5 -1.5h19.5a1.5 1.5 0 0 1 1.5 1.5v11" fill="none" stroke="#000000" stroke-linecap="round" stroke-linejoin="round" stroke-width="1"></path><g><path d="m4.25 13.25 2.25 0" fill="none" stroke="#000000" stroke-linecap="round" stroke-linejoin="round" stroke-width="1"></path><path d="m10.75 13.25 2.25 0" fill="none" stroke="#000000" stroke-linecap="round" stroke-linejoin="round" stroke-width="1"></path><path d="m17.5 13.25 2.25 0" fill="none" stroke="#000000" stroke-linecap="round" stroke-linejoin="round" stroke-width="1"></path></g><path d="M5.75 16.5v6.75h-3.5a1.5 1.5 0 0 1 -1.5 -1.5V16.5" fill="none" stroke="#000000" stroke-linecap="round" stroke-linejoin="round" stroke-width="1"></path><path d="m10.75 16.5 0 6.75 -5 0 0 -6.75" fill="none" stroke="#000000" stroke-linecap="round" stroke-linejoin="round" stroke-width="1"></path><path d="M15.75 16.5v5.25a1.5 1.5 0 0 1 -1.5 1.5h-3.5V16.5" fill="none" stroke="#000000" stroke-linecap="round" stroke-linejoin="round" stroke-width="1"></path><path d="M4.25 3.75h5s0.5 0 0.5 0.5v5s0 0.5 -0.5 0.5h-5s-0.5 0 -0.5 -0.5v-5s0 -0.5 0.5 -0.5" fill="none" stroke="#000000" stroke-linecap="round" stroke-linejoin="round" stroke-width="1"></path><path d="m12.75 4.75 7.5 0" fill="none" stroke="#000000" stroke-linecap="round" stroke-linejoin="round" stroke-width="1"></path><path d="m15.75 8.75 4.5 0" fill="none" stroke="#000000" stroke-linecap="round" stroke-linejoin="round" stroke-width="1"></path></g></svg>