<svg xmlns="http://www.w3.org/2000/svg" viewBox="0 0 24 24" id="Shopping-Laptop-Megaphone--Streamline-Ultimate"><desc>Shopping Laptop Megaphone Streamline Icon: https://streamlinehq.com</desc><defs></defs><path d="m11.25 9.776 1.286 2.026" fill="none" stroke="#000000" stroke-linecap="round" stroke-linejoin="round" stroke-width="1"></path><path d="m18.362 0.75 4.888 7.701" fill="none" stroke="#000000" stroke-linecap="round" stroke-linejoin="round" stroke-width="1"></path><path d="m22.993 8.045 -10.714 3.352 -0.772 -1.216 7.112 -9.026 4.374 6.89z" fill="none" stroke="#000000" stroke-linecap="round" stroke-linejoin="round" stroke-width="1"></path><path d="m14.594 10.673 0.68 1.045a1.586 1.586 0 0 0 2.179 0.528l0.078 -0.051a1.753 1.753 0 0 0 0.456 -2.361l-0.127 -0.183" fill="none" stroke="#000000" stroke-linecap="round" stroke-linejoin="round" stroke-width="1"></path><path d="m21.75 12.75 0 6" fill="none" stroke="#000000" stroke-linecap="round" stroke-linejoin="round" stroke-width="1"></path><path d="M2.25 18.75V8.25a1.5 1.5 0 0 1 1.5 -1.5H10" fill="none" stroke="#000000" stroke-linecap="round" stroke-linejoin="round" stroke-width="1"></path><path d="M14.584 18.75a2.976 2.976 0 0 1 -5.168 0H0.75v1.5a3 3 0 0 0 3 3h16.5a3 3 0 0 0 3 -3v-1.5Z" fill="none" stroke="#000000" stroke-linecap="round" stroke-linejoin="round" stroke-width="1"></path></svg>