<svg xmlns="http://www.w3.org/2000/svg" viewBox="0 0 24 24" id="Shopping-Broadcast-Advertising-Radio-Megaphone--Streamline-Ultimate"><desc>Shopping Broadcast Advertising Radio Megaphone Streamline Icon: https://streamlinehq.com</desc><defs></defs><path d="M21 11.452a2 2 0 0 1 0.935 1.692v8.106a2 2 0 0 1 -2 2H2.75a2 2 0 0 1 -2 -2v-8.106a2 2 0 0 1 2 -2H9" fill="none" stroke="#000000" stroke-linecap="round" stroke-linejoin="round" stroke-width="1"></path><path d="M11.892 17.25a3.179 3.179 0 1 0 6.358 0 3.179 3.179 0 1 0 -6.358 0" fill="none" stroke="#000000" stroke-linecap="round" stroke-linejoin="round" stroke-width="1"></path><path d="m3.75 14.5 5 0" fill="none" stroke="#000000" stroke-linecap="round" stroke-linejoin="round" stroke-width="1"></path><path d="m3.75 17.25 5 0" fill="none" stroke="#000000" stroke-linecap="round" stroke-linejoin="round" stroke-width="1"></path><path d="m3.75 20 5 0" fill="none" stroke="#000000" stroke-linecap="round" stroke-linejoin="round" stroke-width="1"></path><path d="m3.776 11.144 4.843 -4.842" fill="none" stroke="#000000" stroke-linecap="round" stroke-linejoin="round" stroke-width="1"></path><path d="m15.569 9.787 -1.106 0.523a2.038 2.038 0 1 1 -1.744 -3.685l1.106 -0.525Z" fill="none" stroke="#000000" stroke-linecap="round" stroke-linejoin="round" stroke-width="1"></path><path d="M15.569 9.787a12.119 12.119 0 0 1 6.948 -1.036l0.733 0.108L19.413 0.75l-0.382 0.635A12.113 12.113 0 0 1 13.825 6.1Z" fill="none" stroke="#000000" stroke-linecap="round" stroke-linejoin="round" stroke-width="1"></path><path d="M15.569 9.787a3.937 3.937 0 0 0 2.331 2.057" fill="none" stroke="#000000" stroke-linecap="round" stroke-linejoin="round" stroke-width="1"></path></svg>