<svg xmlns="http://www.w3.org/2000/svg" fill="none" viewBox="0 0 24 24" id="Shopping-Ai-Advertising--Streamline-Ultimate"><desc>Shopping Ai Advertising Streamline Icon: https://streamlinehq.com</desc><path stroke="#000000" stroke-linecap="round" stroke-linejoin="round" d="m14.5949 10.9331 -1.2463 0.5894c-0.2726 0.129 -0.568 0.2031 -0.8693 0.2179 -0.3013 0.0149 -0.6025 -0.0297 -0.8866 -0.1312 -0.284 -0.1016 -0.5452 -0.2581 -0.7688 -0.4606 -0.2236 -0.2025 -0.405 -0.4471 -0.5341 -0.7197 -0.2606 -0.55067 -0.29175 -1.18227 -0.0867 -1.7559 0.2051 -0.57363 0.6297 -1.0423 1.1803 -1.3029l1.2463 -0.59158 1.9652 4.15458Z" stroke-width="1"></path><path stroke="#000000" stroke-linecap="round" stroke-linejoin="round" d="M14.5949 10.9331c2.4372 -1.15353 5.1614 -1.55973 7.8292 -1.16737l0.8259 0.12169L18.9264 0.75l-0.4304 0.71553c-1.3878 2.3115 -3.4291 4.16023 -5.8663 5.31298l1.9652 4.15459Z" stroke-width="1"></path><path stroke="#000000" stroke-linecap="round" stroke-linejoin="round" d="M14.5948 10.9331c0.2576 0.5444 0.6233 1.0307 1.0749 1.4292 0.4516 0.3985 0.9796 0.7009 1.5518 0.8887" stroke-width="1"></path><path stroke="#000000" stroke-linecap="round" stroke-linejoin="round" d="M11.749 22.251c0 0.2652 -0.1054 0.5196 -0.2929 0.7071 -0.1875 0.1876 -0.4419 0.2929 -0.7071 0.2929H1.74899c-0.26521 0 -0.51957 -0.1053 -0.7071 -0.2929 -0.18754 -0.1875 -0.292897 -0.4419 -0.292897 -0.7071v-2.5c0 -1.4587 0.579467 -2.8576 1.610917 -3.8891 1.03145 -1.0314 2.43039 -1.6109 3.88908 -1.6109 1.45869 0 2.85764 0.5795 3.88911 1.6109 1.0314 1.0315 1.6109 2.4304 1.6109 3.8891v2.5Z" stroke-width="1"></path><path stroke="#000000" d="M4.24899 18.876c-0.2071 0 -0.375 -0.1679 -0.375 -0.375s0.1679 -0.375 0.375 -0.375" stroke-width="1"></path><path stroke="#000000" d="M4.24899 18.876c0.20711 0 0.375 -0.1679 0.375 -0.375s-0.16789 -0.375 -0.375 -0.375" stroke-width="1"></path><path stroke="#000000" d="M8.24899 18.876c-0.2071 0 -0.375 -0.1679 -0.375 -0.375s0.1679 -0.375 0.375 -0.375" stroke-width="1"></path><path stroke="#000000" d="M8.24899 18.876c0.20711 0 0.375 -0.1679 0.375 -0.375s-0.16789 -0.375 -0.375 -0.375" stroke-width="1"></path><path stroke="#000000" stroke-linecap="round" stroke-linejoin="round" d="M6.24899 14.251v-2" stroke-width="1"></path><path stroke="#000000" stroke-linecap="round" stroke-linejoin="round" d="M6.24899 12.251c0.82843 0 1.5 -0.6716 1.5 -1.5 0 -0.82842 -0.67157 -1.49999 -1.5 -1.49999 -0.82842 0 -1.5 0.67157 -1.5 1.49999 0 0.8284 0.67158 1.5 1.5 1.5Z" stroke-width="1"></path></svg>