<svg xmlns="http://www.w3.org/2000/svg" viewBox="0 0 24 24" id="Shopping-Broadcast-Advertising-Monitor-Megaphone--Streamline-Ultimate"><desc>Shopping Broadcast Advertising Monitor Megaphone Streamline Icon: https://streamlinehq.com</desc><defs></defs><path d="M1.773 2.284h20.454s1.023 0 1.023 1.023v14.318s0 1.023 -1.023 1.023H1.773s-1.023 0 -1.023 -1.023V3.307s0 -1.023 1.023 -1.023" fill="none" stroke="#000000" stroke-linecap="round" stroke-linejoin="round" stroke-width="1"></path><path d="m11.489 18.648 0 3.068" fill="none" stroke="#000000" stroke-linecap="round" stroke-linejoin="round" stroke-width="1"></path><path d="m7.398 21.716 8.182 0" fill="none" stroke="#000000" stroke-linecap="round" stroke-linejoin="round" stroke-width="1"></path><path d="m10.555 13.728 -1.106 0.523a2.038 2.038 0 1 1 -1.744 -3.685l1.106 -0.524Z" fill="none" stroke="#000000" stroke-linecap="round" stroke-linejoin="round" stroke-width="1"></path><path d="M10.555 13.728a12.119 12.119 0 0 1 6.945 -1.036l0.733 0.108L14.4 4.691l-0.382 0.635a12.113 12.113 0 0 1 -5.206 4.716Z" fill="none" stroke="#000000" stroke-linecap="round" stroke-linejoin="round" stroke-width="1"></path><path d="M10.555 13.728a3.937 3.937 0 0 0 2.327 2.057" fill="none" stroke="#000000" stroke-linecap="round" stroke-linejoin="round" stroke-width="1"></path></svg>