<svg xmlns="http://www.w3.org/2000/svg" viewBox="0 0 24 24" id="Shopping-Broadcast-Advertising-Television--Streamline-Ultimate"><desc>Shopping Broadcast Advertising Television Streamline Icon: https://streamlinehq.com</desc><defs></defs><path d="M8.5 18.75v-5.5a2 2 0 0 0 -4 0v5.5" fill="none" stroke="#000000" stroke-linecap="round" stroke-linejoin="round" stroke-width="1"></path><path d="m4.5 15.75 4 0" fill="none" stroke="#000000" stroke-linecap="round" stroke-linejoin="round" stroke-width="1"></path><path d="M11.5 11.25H13a2 2 0 0 1 2 2v3.5a2 2 0 0 1 -2 2h-1.5Z" fill="none" stroke="#000000" stroke-linecap="round" stroke-linejoin="round" stroke-width="1"></path><path d="M3 7h18s2 0 2 2v12s0 2 -2 2H3s-2 0 -2 -2V9s0 -2 2 -2" fill="none" stroke="#000000" stroke-linecap="round" stroke-linejoin="round" stroke-width="1"></path><path d="m18.5 7 0 16" fill="none" stroke="#000000" stroke-linecap="round" stroke-linejoin="round" stroke-width="1"></path><path d="m5 1 7 6 7 -6" fill="none" stroke="#000000" stroke-linecap="round" stroke-linejoin="round" stroke-width="1"></path></svg>