<svg xmlns="http://www.w3.org/2000/svg" viewBox="0 0 24 24" id="Shopping-Pay-Hide-Advertising--Streamline-Ultimate"><desc>Shopping Pay Hide Advertising Streamline Icon: https://streamlinehq.com</desc><defs></defs><path d="M18.765 14.25h-2.034a1.342 1.342 0 0 0 -0.5 2.587l2.063 0.826a1.341 1.341 0 0 1 -0.5 2.587h-2.029" fill="none" stroke="#000000" stroke-linecap="round" stroke-linejoin="round" stroke-width="1"></path><path d="m17.265 14.25 0 -0.75" fill="none" stroke="#000000" stroke-linecap="round" stroke-linejoin="round" stroke-width="1"></path><path d="m17.265 21 0 -0.75" fill="none" stroke="#000000" stroke-linecap="round" stroke-linejoin="round" stroke-width="1"></path><path d="M11.265 17.25a6 6 0 1 0 12 0 6 6 0 1 0 -12 0" fill="none" stroke="#000000" stroke-linecap="round" stroke-linejoin="round" stroke-width="1"></path><path d="M2.292 14.545 16.662 0.75" fill="none" stroke="#000000" stroke-linecap="round" stroke-linejoin="round" stroke-width="1"></path><path d="M17.958 8.45a1.275 1.275 0 0 0 -0.307 -1.081 15.932 15.932 0 0 0 -1.584 -1.512" fill="none" stroke="#000000" stroke-linecap="round" stroke-linejoin="round" stroke-width="1"></path><path d="M7.59 13.2a7.593 7.593 0 0 0 1.766 0.193" fill="none" stroke="#000000" stroke-linecap="round" stroke-linejoin="round" stroke-width="1"></path><path d="M13.189 4.083a7.323 7.323 0 0 0 -3.833 -1.034C6.266 3 3.071 5.158 1.063 7.368a1.274 1.274 0 0 0 0 1.706 15.439 15.439 0 0 0 3.784 3.018" fill="none" stroke="#000000" stroke-linecap="round" stroke-linejoin="round" stroke-width="1"></path></svg>