<svg xmlns="http://www.w3.org/2000/svg" fill="none" viewBox="0 0 24 24" id="Shopping-Transport-Advertising-Train-Megaphone--Streamline-Ultimate"><desc>Shopping Transport Advertising Train Megaphone Streamline Icon: https://streamlinehq.com</desc><path stroke="#000000" stroke-linecap="round" stroke-linejoin="round" d="M23.25 23.25H2.8c-0.41212 0.001 -0.81493 -0.1225 -1.15568 -0.3543s-0.60356 -0.5611 -0.754004 -0.9448c-0.150446 -0.3837 -0.181517 -0.8038 -0.089144 -1.2055 0.092372 -0.4016 0.303878 -0.766 0.606828 -1.0454l4.871 -4.5c0.54453 -0.5029 1.25877 -0.7818 2 -0.781H23.25" stroke-width="1"></path><path stroke="#000000" stroke-linecap="round" stroke-linejoin="round" d="M1.35 19.756h5.666c0.7 0 3.633 -2.271 0.1 -5.092" stroke-width="1"></path><path stroke="#000000" stroke-linecap="round" stroke-linejoin="round" d="m15.569 9.78698 -1.105 0.52302c-0.2427 0.1205 -0.507 0.1915 -0.7774 0.2087 -0.2704 0.0172 -0.5416 -0.0196 -0.7976 -0.1084 -0.256 -0.0888 -0.4918 -0.2277 -0.6935 -0.4086 -0.2017 -0.18098 -0.3654 -0.40032 -0.4813 -0.64523 -0.116 -0.2449 -0.182 -0.51047 -0.1942 -0.78118 -0.0121 -0.27071 0.0298 -0.54112 0.1234 -0.79544 0.0935 -0.25431 0.2368 -0.48743 0.4215 -0.68572 0.1847 -0.1983 0.4071 -0.35779 0.6541 -0.46915l1.106 -0.525 1.744 3.687Z" stroke-width="1"></path><path stroke="#000000" stroke-linecap="round" stroke-linejoin="round" d="M15.569 9.787c2.1629 -1.02372 4.5805 -1.3842 6.948 -1.036l0.733 0.108L19.413 0.75l-0.382 0.635c-1.2313 2.05157 -3.0429 3.69229 -5.206 4.715l1.744 3.687Z" stroke-width="1"></path><path stroke="#000000" stroke-linecap="round" stroke-linejoin="round" d="M15.569 9.78699c0.2287 0.48301 0.5533 0.91451 0.954 1.26811 0.4008 0.3536 0.8693 0.622 1.377 0.7889" stroke-width="1"></path><path stroke="#000000" d="M13.466 18.224c-0.1381 0 -0.25 -0.1119 -0.25 -0.25s0.1119 -0.25 0.25 -0.25" stroke-width="1"></path><path stroke="#000000" d="M13.466 18.224c0.1381 0 0.25 -0.1119 0.25 -0.25s-0.1119 -0.25 -0.25 -0.25" stroke-width="1"></path><path stroke="#000000" d="M17.336 18.224c-0.1381 0 -0.25 -0.1119 -0.25 -0.25s0.1119 -0.25 0.25 -0.25" stroke-width="1"></path><path stroke="#000000" d="M17.336 18.224c0.1381 0 0.25 -0.1119 0.25 -0.25s-0.1119 -0.25 -0.25 -0.25" stroke-width="1"></path><path stroke="#000000" d="M21.206 18.224c-0.1381 0 -0.25 -0.1119 -0.25 -0.25s0.1119 -0.25 0.25 -0.25" stroke-width="1"></path><path stroke="#000000" d="M21.206 18.224c0.1381 0 0.25 -0.1119 0.25 -0.25s-0.1119 -0.25 -0.25 -0.25" stroke-width="1"></path></svg>