<svg xmlns="http://www.w3.org/2000/svg" viewBox="0 0 24 24" id="Shopping-Magazine-Advertising-Megaphone--Streamline-Ultimate"><desc>Shopping Magazine Advertising Megaphone Streamline Icon: https://streamlinehq.com</desc><defs></defs><path d="m11.25 9.776 1.286 2.026" fill="none" stroke="#000000" stroke-linecap="round" stroke-linejoin="round" stroke-width="1"></path><path d="m18.362 0.75 4.888 7.701" fill="none" stroke="#000000" stroke-linecap="round" stroke-linejoin="round" stroke-width="1"></path><path d="m22.993 8.045 -10.714 3.352 -0.772 -1.216 7.112 -9.026 4.374 6.89z" fill="none" stroke="#000000" stroke-linecap="round" stroke-linejoin="round" stroke-width="1"></path><path d="m14.594 10.673 0.68 1.045a1.586 1.586 0 0 0 2.179 0.528l0.078 -0.051a1.753 1.753 0 0 0 0.456 -2.361l-0.127 -0.183" fill="none" stroke="#000000" stroke-linecap="round" stroke-linejoin="round" stroke-width="1"></path><path d="M8.768 13.254S8.039 11 1.8 10.764a0.965 0.965 0 0 0 -1.053 0.878v8.247a0.961 0.961 0 0 0 1 0.869c6.277 0.222 7.016 2.492 7.016 2.492s0.738 -2.27 7.015 -2.492a0.961 0.961 0 0 0 1 -0.869v-4.231" fill="none" stroke="#000000" stroke-linecap="round" stroke-linejoin="round" stroke-width="1"></path><path d="m8.768 13.254 0 9.996" fill="none" stroke="#000000" stroke-linecap="round" stroke-linejoin="round" stroke-width="1"></path></svg>