<svg xmlns="http://www.w3.org/2000/svg" viewBox="0 0 24 24" id="Shopping-Print-Advertising-Megaphone--Streamline-Ultimate"><desc>Shopping Print Advertising Megaphone Streamline Icon: https://streamlinehq.com</desc><defs></defs><path d="m10.214 15.5 -1.158 0.548a2.136 2.136 0 0 1 -1.827 -3.858l1.158 -0.548Z" fill="none" stroke="#000000" stroke-linecap="round" stroke-linejoin="round" stroke-width="1"></path><path d="M10.214 15.5a12.693 12.693 0 0 1 7.277 -1.085l0.768 0.112 -4.019 -8.489 -0.4 0.665a12.686 12.686 0 0 1 -5.453 4.939Z" fill="none" stroke="#000000" stroke-linecap="round" stroke-linejoin="round" stroke-width="1"></path><path d="M10.214 15.5a4.125 4.125 0 0 0 2.437 2.154" fill="none" stroke="#000000" stroke-linecap="round" stroke-linejoin="round" stroke-width="1"></path><path d="M15.88 0.75a1.5 1.5 0 0 1 1.06 0.439l4.371 4.372a1.5 1.5 0 0 1 0.439 1.06V21a2.249 2.249 0 0 1 -2.25 2.25h-15A2.249 2.249 0 0 1 2.25 21h0V3A2.25 2.25 0 0 1 4.5 0.75Z" fill="none" stroke="#000000" stroke-linecap="round" stroke-linejoin="round" stroke-width="1"></path></svg>