<svg xmlns="http://www.w3.org/2000/svg" viewBox="0 0 24 24" id="Shopping-Print-Advertising-2--Streamline-Ultimate"><desc>Shopping Print Advertising 2 Streamline Icon: https://streamlinehq.com</desc><defs></defs><path d="M10.465 17.036v-5.5a2 2 0 1 0 -4 0v5.5" fill="none" stroke="#000000" stroke-linecap="round" stroke-linejoin="round" stroke-width="1"></path><path d="m6.465 14.036 4 0" fill="none" stroke="#000000" stroke-linecap="round" stroke-linejoin="round" stroke-width="1"></path><path d="M13.715 9.536h1.5a2 2 0 0 1 2 2v3.5a2 2 0 0 1 -2 2h-1.5Z" fill="none" stroke="#000000" stroke-linecap="round" stroke-linejoin="round" stroke-width="1"></path><path d="M15.88 0.75a1.5 1.5 0 0 1 1.06 0.439l4.371 4.372a1.5 1.5 0 0 1 0.439 1.06V21a2.249 2.249 0 0 1 -2.25 2.25h-15A2.249 2.249 0 0 1 2.25 21h0V3A2.25 2.25 0 0 1 4.5 0.75Z" fill="none" stroke="#000000" stroke-linecap="round" stroke-linejoin="round" stroke-width="1"></path><path d="M15.75 0.75v4.5a1.5 1.5 0 0 0 1.5 1.5h4.5" fill="none" stroke="#000000" stroke-linecap="round" stroke-linejoin="round" stroke-width="1"></path></svg>