<svg xmlns="http://www.w3.org/2000/svg" viewBox="0 0 24 24" id="Shopping-Advertising-Block-1--Streamline-Ultimate"><desc>Shopping Advertising Block 1 Streamline Icon: https://streamlinehq.com</desc><defs></defs><path d="M9 10.75v-5.5a2 2 0 0 0 -4 0v5.5" fill="none" stroke="#000000" stroke-linecap="round" stroke-linejoin="round" stroke-width="1"></path><path d="m5 7.75 4 0" fill="none" stroke="#000000" stroke-linecap="round" stroke-linejoin="round" stroke-width="1"></path><path d="M12 3.25h1.5a2 2 0 0 1 2 2v3.5a2 2 0 0 1 -2 2H12Z" fill="none" stroke="#000000" stroke-linecap="round" stroke-linejoin="round" stroke-width="1"></path><path d="M20.25 9.25v-6.5a2 2 0 0 0 -2 -2H2.75a2 2 0 0 0 -2 2v9a2 2 0 0 0 2 2H9.9" fill="none" stroke="#000000" stroke-linecap="round" stroke-linejoin="round" stroke-width="1"></path><path d="M12.25 17.75a5.5 5.5 0 1 0 11 0 5.5 5.5 0 1 0 -11 0" fill="none" stroke="#000000" stroke-linecap="round" stroke-linejoin="round" stroke-width="1"></path><path d="m13.861 21.639 7.777 -7.778" fill="none" stroke="#000000" stroke-linecap="round" stroke-linejoin="round" stroke-width="1"></path></svg>