<svg xmlns="http://www.w3.org/2000/svg" viewBox="0 0 24 24" id="Shopping-Transport-Advertising-Truck-Megaphone--Streamline-Ultimate"><desc>Shopping Transport Advertising Truck Megaphone Streamline Icon: https://streamlinehq.com</desc><defs></defs><path d="M23.25 11.5v9.25a1 1 0 0 1 -1 1h-3.064" fill="none" stroke="#000000" stroke-linecap="round" stroke-linejoin="round" stroke-width="1"></path><path d="M4.814 21.75H1.75a1 1 0 0 1 -1 -1v-4.93a1.772 1.772 0 0 1 0.891 -1.664c0.788 -0.292 2.109 -0.656 2.109 -0.656L5.5 8.25a2.536 2.536 0 0 1 2.25 -2h3" fill="none" stroke="#000000" stroke-linecap="round" stroke-linejoin="round" stroke-width="1"></path><path d="M4.75 21.25a2 2 0 1 0 4 0 2 2 0 1 0 -4 0" fill="none" stroke="#000000" stroke-linecap="round" stroke-linejoin="round" stroke-width="1"></path><path d="M15.25 21.25a2 2 0 1 0 4 0 2 2 0 1 0 -4 0" fill="none" stroke="#000000" stroke-linecap="round" stroke-linejoin="round" stroke-width="1"></path><path d="m8.686 21.75 6.628 0" fill="none" stroke="#000000" stroke-linecap="round" stroke-linejoin="round" stroke-width="1"></path><path d="m0.75 17.25 2 0" fill="none" stroke="#000000" stroke-linecap="round" stroke-linejoin="round" stroke-width="1"></path><path d="m11.25 9.776 1.286 2.026" fill="none" stroke="#000000" stroke-linecap="round" stroke-linejoin="round" stroke-width="1"></path><path d="m18.362 0.75 4.888 7.701" fill="none" stroke="#000000" stroke-linecap="round" stroke-linejoin="round" stroke-width="1"></path><path d="m22.993 8.045 -10.714 3.352 -0.772 -1.216 7.112 -9.026 4.374 6.89z" fill="none" stroke="#000000" stroke-linecap="round" stroke-linejoin="round" stroke-width="1"></path><path d="m14.594 10.673 0.68 1.045a1.586 1.586 0 0 0 2.179 0.528l0.078 -0.051a1.753 1.753 0 0 0 0.456 -2.361l-0.127 -0.183" fill="none" stroke="#000000" stroke-linecap="round" stroke-linejoin="round" stroke-width="1"></path></svg>