<svg xmlns="http://www.w3.org/2000/svg" viewBox="0 0 24 24" id="Shopping-Transport-Advertising-Truck--Streamline-Ultimate"><desc>Shopping Transport Advertising Truck Streamline Icon: https://streamlinehq.com</desc><defs></defs><path d="M13 13.75v-5.5a2 2 0 0 0 -4 0v5.5" fill="none" stroke="#000000" stroke-linecap="round" stroke-linejoin="round" stroke-width="1"></path><path d="m9 10.75 4 0" fill="none" stroke="#000000" stroke-linecap="round" stroke-linejoin="round" stroke-width="1"></path><path d="M16.25 6.25h1.5a2 2 0 0 1 2 2v3.5a2 2 0 0 1 -2 2h-1.5Z" fill="none" stroke="#000000" stroke-linecap="round" stroke-linejoin="round" stroke-width="1"></path><path d="M4.814 19H1.75a1 1 0 0 1 -1 -1v-4.93a1.772 1.772 0 0 1 0.891 -1.664c0.788 -0.292 2.109 -0.656 2.109 -0.656L5.5 5.5a2.536 2.536 0 0 1 2.25 -2h13.5a2 2 0 0 1 2 2V18a1 1 0 0 1 -1 1h-3.064" fill="none" stroke="#000000" stroke-linecap="round" stroke-linejoin="round" stroke-width="1"></path><path d="M4.75 18.5a2 2 0 1 0 4 0 2 2 0 1 0 -4 0" fill="none" stroke="#000000" stroke-linecap="round" stroke-linejoin="round" stroke-width="1"></path><path d="M15.25 18.5a2 2 0 1 0 4 0 2 2 0 1 0 -4 0" fill="none" stroke="#000000" stroke-linecap="round" stroke-linejoin="round" stroke-width="1"></path><path d="m8.686 19 6.628 0" fill="none" stroke="#000000" stroke-linecap="round" stroke-linejoin="round" stroke-width="1"></path><path d="m0.75 14.5 2 0" fill="none" stroke="#000000" stroke-linecap="round" stroke-linejoin="round" stroke-width="1"></path></svg>