<svg xmlns="http://www.w3.org/2000/svg" fill="none" viewBox="0 0 24 24" id="Archlute--Streamline-Ultimate"><desc>Archlute Streamline Icon: https://streamlinehq.com</desc><path stroke="#000000" stroke-linecap="round" stroke-linejoin="round" stroke-miterlimit="10" d="m3.99969 18.0003 2.1 2.1" stroke-width="1"></path><path stroke="#000000" stroke-linecap="round" stroke-linejoin="round" stroke-miterlimit="10" d="M7.2997 16.9003c-0.11046 0 -0.2 -0.0895 -0.2 -0.2 0 -0.1105 0.08954 -0.2 0.2 -0.2" stroke-width="1"></path><path stroke="#000000" stroke-linecap="round" stroke-linejoin="round" stroke-miterlimit="10" d="M7.29972 16.9003c0.11046 0 0.20001 -0.0895 0.20001 -0.2 0 -0.1105 -0.08955 -0.2 -0.20001 -0.2" stroke-width="1"></path><path stroke="#000000" stroke-linecap="round" stroke-linejoin="round" stroke-miterlimit="10" d="M13.0675 8.33008 8.82488 12.5727l2.60722 2.6072 4.2426 -4.2426m-2.6072 -2.60722 2.6072 2.60722m-2.6072 -2.60722 5.9284 -4.4716 1.1788 1.17884 -4.5 5.89998m-6.84401 1.632c-2.2 -0.3 -5.2 1 -6.6 2.4 -1.9 1.9 -1.400001 4.4 0.5 6.3 1.9 1.9 4.4 2.4 6.3 0.5 1.40001 -1.4 2.70001 -4.4 2.40001 -6.6l-2.60001 -2.6Z" stroke-width="1"></path><path stroke="#000000" stroke-linecap="round" stroke-linejoin="round" stroke-miterlimit="10" d="m15.9997 3.8003 1.3227 1.32266" stroke-width="1"></path><path stroke="#000000" stroke-linecap="round" stroke-linejoin="round" stroke-miterlimit="10" d="m18.87 6.77061 1.3296 1.32969" stroke-width="1"></path><path stroke="#000000" stroke-linecap="round" stroke-linejoin="round" stroke-miterlimit="10" d="m17.0474 9.14795 1.0523 1.05235" stroke-width="1"></path><path stroke="#000000" stroke-linecap="round" stroke-linejoin="round" stroke-miterlimit="10" d="m13.8997 6.0003 0.9602 0.96015" stroke-width="1"></path><path stroke="#000000" stroke-linecap="round" stroke-linejoin="round" stroke-miterlimit="10" d="m10.7969 10.5975 2.6213 2.6213" stroke-width="1"></path><path stroke="#000000" stroke-linecap="round" stroke-linejoin="round" stroke-miterlimit="10" d="M19.6078 4.49219 23.1997 0.900303" stroke-width="1"></path><path stroke="#000000" stroke-linecap="round" stroke-linejoin="round" stroke-miterlimit="10" d="m20.2997 0.900303 2.9 2.799997" stroke-width="1"></path></svg>