<svg viewBox="0 0 24 24" xmlns="http://www.w3.org/2000/svg" id="Instrument-Contrabass--Streamline-Ultimate"><desc>Instrument Contrabass Streamline Icon: https://streamlinehq.com</desc><path d="M12.947 16.257a3.091 3.091 0 0 1 2.888 -0.854c0.117 -0.1 0.243 -0.181 0.353 -0.292a5.389 5.389 0 0 0 0.147 -7.573 5.285 5.285 0 0 0 -7.512 0.148c-0.11 0.111 -0.191 0.238 -0.29 0.356a3.15 3.15 0 0 1 -0.847 2.911 3.018 3.018 0 0 1 -4.234 0.133 7.16 7.16 0 0 0 -0.606 0.5 6.929 6.929 0 0 0 -0.189 9.737 6.8 6.8 0 0 0 9.659 -0.191 7.208 7.208 0 0 0 0.5 -0.611 3.077 3.077 0 0 1 0.131 -4.264Z" fill="none" stroke="#000000" stroke-linecap="round" stroke-linejoin="round" stroke-width="1"></path><path d="M4.5 19.501 0.75 23.249" fill="none" stroke="#000000" stroke-linecap="round" stroke-linejoin="round" stroke-width="1"></path><path d="m23.25 0.751 -12 12" fill="none" stroke="#000000" stroke-linecap="round" stroke-linejoin="round" stroke-width="1"></path><path d="m20.25 0.751 3 3" fill="none" stroke="#000000" stroke-linecap="round" stroke-linejoin="round" stroke-width="1"></path><path d="m18 3.001 3 3" fill="none" stroke="#000000" stroke-linecap="round" stroke-linejoin="round" stroke-width="1"></path><path d="m6.866 14.963 -1.579 0.53" fill="none" stroke="#000000" stroke-linecap="round" stroke-linejoin="round" stroke-width="1"></path><path d="m8.97 17.084 -0.526 1.591" fill="none" stroke="#000000" stroke-linecap="round" stroke-linejoin="round" stroke-width="1"></path></svg>