<svg viewBox="0 0 24 24" xmlns="http://www.w3.org/2000/svg" id="Instrument-Dholak--Streamline-Ultimate"><desc>Instrument Dholak Streamline Icon: https://streamlinehq.com</desc><path d="M19.5 2.25a1.5 1.5 0 0 1 -1.5 1.5H6a1.5 1.5 0 0 1 0 -3h12a1.5 1.5 0 0 1 1.5 1.5Z" fill="none" stroke="#000000" stroke-linecap="round" stroke-linejoin="round" stroke-width="1"></path><path d="M18 3.75V9c0 4.142 -2.686 7.5 -6 7.5h0c-3.314 0 -6 -3.358 -6 -7.5V3.75" fill="none" stroke="#000000" stroke-linecap="round" stroke-linejoin="round" stroke-width="1"></path><path d="M12 16.5h0a3.122 3.122 0 0 0 -2.962 2.135l-0.88 2.641a1.5 1.5 0 0 0 1.423 1.974h4.838a1.5 1.5 0 0 0 1.423 -1.974l-0.88 -2.641A3.122 3.122 0 0 0 12 16.5Z" fill="none" stroke="#000000" stroke-linecap="round" stroke-linejoin="round" stroke-width="1"></path><path d="m6.026 9.705 1.583 -2.771a1.5 1.5 0 0 1 2.644 0.073l0.551 1.1a1.5 1.5 0 0 0 2.614 0.124l0.811 -1.3a1.5 1.5 0 0 1 2.651 0.2l1.1 2.558" fill="none" stroke="#000000" stroke-linecap="round" stroke-linejoin="round" stroke-width="1"></path></svg>