<svg xmlns="http://www.w3.org/2000/svg" viewBox="0 0 24 24" id="Instrument-Tambourine--Streamline-Ultimate"><desc>Instrument Tambourine Streamline Icon: https://streamlinehq.com</desc><g><path d="M12.89 22.05a1.67 1.67 0 0 0 0.89 0.74 1.56 1.56 0 0 0 1.32 -0.14 9.61 9.61 0 0 0 1.72 -1.36 9.8 9.8 0 0 0 -0.29 -13.84 9.78 9.78 0 0 0 -13.84 -0.19A9.07 9.07 0 0 0 1.35 9a1.55 1.55 0 0 0 -0.13 1.33 1.61 1.61 0 0 0 0.74 0.88" fill="none" stroke="#000000" stroke-linecap="round" stroke-linejoin="round" stroke-width="1"></path><path d="M1.62 11.63A2.14 2.14 0 0 1 4 10.54 17.41 17.41 0 0 1 13.53 20a2.14 2.14 0 0 1 -1.07 2.38c-0.9 0.55 -1.86 0.36 -2.17 -0.41a15.15 15.15 0 0 0 -8.24 -8.18c-0.45 -0.17 -1.17 -0.93 -0.43 -2.16Z" fill="none" stroke="#000000" stroke-linecap="round" stroke-linejoin="round" stroke-width="1"></path><path d="M20.26 7.43a3.45 3.45 0 0 1 -3.45 3.44 3.7 3.7 0 0 1 -3.68 -3.68 3.45 3.45 0 0 1 3.44 -3.45 3.72 3.72 0 0 1 3.69 3.69Z" fill="none" stroke="#000000" stroke-linecap="round" stroke-linejoin="round" stroke-width="1"></path><path d="M22.88 17.23a3.45 3.45 0 0 1 -3.45 3.44A3.71 3.71 0 0 1 15.74 17a3.46 3.46 0 0 1 3.45 -3.44 3.72 3.72 0 0 1 3.69 3.67Z" fill="none" stroke="#000000" stroke-linecap="round" stroke-linejoin="round" stroke-width="1"></path><path d="M10.88 4.81a3.45 3.45 0 0 1 -3.44 3.45 3.72 3.72 0 0 1 -3.69 -3.69 3.45 3.45 0 0 1 3.44 -3.45 3.71 3.71 0 0 1 3.69 3.69Z" fill="none" stroke="#000000" stroke-linecap="round" stroke-linejoin="round" stroke-width="1"></path></g></svg>