<svg viewBox="0 0 24 24" xmlns="http://www.w3.org/2000/svg" id="Instrument-Xylophone--Streamline-Ultimate"><desc>Instrument Xylophone Streamline Icon: https://streamlinehq.com</desc><path d="m15.012 17.845 -12.537 1.9A1.5 1.5 0 0 1 0.75 18.261V3a1.5 1.5 0 0 1 1.725 -1.483l19.5 2.954a1.5 1.5 0 0 1 1.275 1.484v9.352a1.5 1.5 0 0 1 -1.275 1.483l-0.478 0.072" fill="none" stroke="#000000" stroke-linecap="round" stroke-linejoin="round" stroke-width="1"></path><path d="M11.25 11.25a2.25 2.25 0 1 0 4.5 0 2.25 2.25 0 1 0 -4.5 0Z" fill="none" stroke="#000000" stroke-linecap="round" stroke-linejoin="round" stroke-width="1"></path><path d="M14.879 13.023 21.75 22.5" fill="none" stroke="#000000" stroke-linecap="round" stroke-linejoin="round" stroke-width="1"></path><path d="m6.75 2.165 0 16.931" fill="none" stroke="#000000" stroke-linecap="round" stroke-linejoin="round" stroke-width="1"></path><path d="m12.75 16.5 0 1.687" fill="none" stroke="#000000" stroke-linecap="round" stroke-linejoin="round" stroke-width="1"></path><path d="m12.75 3.074 0 2.926" fill="none" stroke="#000000" stroke-linecap="round" stroke-linejoin="round" stroke-width="1"></path><path d="m18.75 3.983 0 8.767" fill="none" stroke="#000000" stroke-linecap="round" stroke-linejoin="round" stroke-width="1"></path></svg>