<svg xmlns="http://www.w3.org/2000/svg" viewBox="0 0 24 24" id="Instrument-Tambourine-1--Streamline-Ultimate"><desc>Instrument Tambourine 1 Streamline Icon: https://streamlinehq.com</desc><g><path d="M9 3.75a3 3 0 1 0 6 0 3 3 0 1 0 -6 0" fill="none" stroke="#000000" stroke-linecap="round" stroke-linejoin="round" stroke-width="1"></path><path d="M17.25 9a3 3 0 1 0 6 0 3 3 0 1 0 -6 0" fill="none" stroke="#000000" stroke-linecap="round" stroke-linejoin="round" stroke-width="1"></path><path d="M17.25 18a3 3 0 1 0 6 0 3 3 0 1 0 -6 0" fill="none" stroke="#000000" stroke-linecap="round" stroke-linejoin="round" stroke-width="1"></path><path d="M0.75 9a3 3 0 1 0 6 0 3 3 0 1 0 -6 0" fill="none" stroke="#000000" stroke-linecap="round" stroke-linejoin="round" stroke-width="1"></path><path d="M0.75 18a3 3 0 1 0 6 0 3 3 0 1 0 -6 0" fill="none" stroke="#000000" stroke-linecap="round" stroke-linejoin="round" stroke-width="1"></path><path d="M15.75 21.72c1.49 0 5.26 -3.5 5.25 -8.48a9.27 9.27 0 0 0 -9 -9.49 9.28 9.28 0 0 0 -9 9.56c0 5 3.9 8.44 5.25 8.44" fill="none" stroke="#000000" stroke-linecap="round" stroke-linejoin="round" stroke-width="1"></path><path d="M9.25 20.25h5.5s1 0 1 1v1s0 1 -1 1h-5.5s-1 0 -1 -1v-1s0 -1 1 -1" fill="none" stroke="#000000" stroke-linecap="round" stroke-linejoin="round" stroke-width="1"></path></g></svg>