<svg xmlns="http://www.w3.org/2000/svg" viewBox="0 0 24 24" id="Instrument-Piano-Keys--Streamline-Ultimate"><desc>Instrument Piano Keys Streamline Icon: https://streamlinehq.com</desc><g><path d="M3.77 4.25H2.25a1.5 1.5 0 0 0 -1.5 1.5v14a1.5 1.5 0 0 0 1.5 1.5h19.5a1.5 1.5 0 0 0 1.5 -1.5v-14a1.5 1.5 0 0 0 -1.5 -1.5h-1.52" fill="none" stroke="#000000" stroke-linecap="round" stroke-linejoin="round" stroke-width="1"></path><path d="M7.25 11.25a1.75 1.75 0 0 1 -3.5 0V4.5a1.75 1.75 0 0 1 3.5 0Z" fill="none" stroke="#000000" stroke-linecap="round" stroke-linejoin="round" stroke-width="1"></path><path d="M13.75 11.25a1.75 1.75 0 0 1 -3.5 0V4.5a1.75 1.75 0 0 1 3.5 0Z" fill="none" stroke="#000000" stroke-linecap="round" stroke-linejoin="round" stroke-width="1"></path><path d="M20.25 11.25a1.75 1.75 0 0 1 -3.5 0V4.5a1.75 1.75 0 0 1 3.5 0Z" fill="none" stroke="#000000" stroke-linecap="round" stroke-linejoin="round" stroke-width="1"></path><path d="m5.5 13 0 8.25" fill="none" stroke="#000000" stroke-linecap="round" stroke-linejoin="round" stroke-width="1"></path><path d="m12 13 0 8.25" fill="none" stroke="#000000" stroke-linecap="round" stroke-linejoin="round" stroke-width="1"></path><path d="m18.5 13 0 8.25" fill="none" stroke="#000000" stroke-linecap="round" stroke-linejoin="round" stroke-width="1"></path><path d="m7.25 4.25 3 0" fill="none" stroke="#000000" stroke-linecap="round" stroke-linejoin="round" stroke-width="1"></path><path d="m13.73 4.25 3.04 0" fill="none" stroke="#000000" stroke-linecap="round" stroke-linejoin="round" stroke-width="1"></path></g></svg>