<svg xmlns="http://www.w3.org/2000/svg" viewBox="0 0 24 24" id="Instrument-Saxophone-Play--Streamline-Ultimate"><desc>Instrument Saxophone Play Streamline Icon: https://streamlinehq.com</desc><g><path d="M19.78 1.48a2.55 2.55 0 0 0 -1.38 3.33l4.54 11c1.08 2.6 -0.8 5.84 -3.54 7s-6.4 0.13 -7.4 -2.47l-1.18 -2.74a1.26 1.26 0 0 0 -1 -0.77 0.51 0.51 0 0 1 -0.35 -0.25 0.52 0.52 0 0 1 0 -0.42l2.69 -6.49a0.5 0.5 0 0 1 0.45 -0.3 0.48 0.48 0 0 1 0.45 0.3l2.8 6.76a1.28 1.28 0 0 0 2.36 -1l-2.77 -6.64c-1.08 -2.6 1.73 -6.23 4.33 -7.31L21 1" fill="none" stroke="#000000" stroke-linecap="round" stroke-linejoin="round" stroke-width="1"></path><g><path d="M5.5 6.5a2 2 0 1 0 4 0 2 2 0 1 0 -4 0" fill="none" stroke="#000000" stroke-linecap="round" stroke-linejoin="round" stroke-width="1"></path><path d="m9.5 6.5 0 -5.75" fill="none" stroke="#000000" stroke-linecap="round" stroke-linejoin="round" stroke-width="1"></path></g><g><path d="M0.75 17a2 2 0 1 0 4 0 2 2 0 1 0 -4 0" fill="none" stroke="#000000" stroke-linecap="round" stroke-linejoin="round" stroke-width="1"></path><path d="m4.75 17 0 -5.75" fill="none" stroke="#000000" stroke-linecap="round" stroke-linejoin="round" stroke-width="1"></path></g></g></svg>