<svg xmlns="http://www.w3.org/2000/svg" fill="none" viewBox="0 0 24 24" id="Chinese-Moon-Festival-Rabbit--Streamline-Ultimate"><desc>Chinese Moon Festival Rabbit Streamline Icon: https://streamlinehq.com</desc><path stroke="#000000" stroke-linecap="round" stroke-linejoin="round" stroke-miterlimit="10" d="M16.15 0.75c-2.6 0 -4.8 2.09993 -4.8 4.79993 0 3.1 3 5.49997 6.2 4.49997" stroke-width="1"></path><path stroke="#000000" stroke-linecap="round" stroke-linejoin="round" stroke-miterlimit="10" d="M21.75 4.44995h-0.5c0 -1.1 -0.9 -2 -2 -2s-2 0.9 -2 2c-0.8 0 -1.5 0.7 -1.5 1.5s0.7 1.5 1.5 1.5h4.5c0.8 0 1.5 -0.7 1.5 -1.5s-0.7 -1.5 -1.5 -1.5Z" stroke-width="1"></path><path stroke="#000000" stroke-linecap="round" stroke-linejoin="round" stroke-miterlimit="10" d="m14.4631 23.2481 0.5 -4.1s0 -0.7999 1.2 -1.7999 2 -1.8 0.9 -3c-1.5 -1.6 -3 -0.9001 -3 -0.9001s-6.59998 -4.90003 -8.29998 -2.7c-1 1.4 4 3.6001 5.89998 4.1001 -1.6 0.7 -4.39999 0.4999 -6.29999 2.2999 -1.2 1.1 -2.79998 3.3 -0.29998 6.1h6.59997" stroke-width="1"></path><path stroke="#000000" stroke-linecap="round" stroke-linejoin="round" stroke-miterlimit="10" d="M8.46312 19.1481s2.49998 1.0999 0.7 4.0999" stroke-width="1"></path><path stroke="#000000" stroke-linecap="round" stroke-linejoin="round" stroke-miterlimit="10" d="M4.54423 18.0511c-0.56241 0.7659 -0.97912 1.767 -0.72707 2.9452 -0.77541 0.4005 -1.70496 0.1855 -2.36653 -0.476 -0.7 -0.8 -0.700009 -2.1001 0.09999 -2.8001 0.9 -0.8 2.3 -0.6999 3 0.3001l-0.00639 0.0308Z" stroke-width="1"></path></svg>