<svg xmlns="http://www.w3.org/2000/svg" fill="none" viewBox="0 0 24 24" id="Chinese-New-Year-Golds--Streamline-Ultimate"><desc>Chinese New Year Golds Streamline Icon: https://streamlinehq.com</desc><path stroke="#000000" stroke-linecap="round" stroke-linejoin="round" stroke-miterlimit="10" d="m15.7 15.45 -1.6 5.0999c-0.3 0.8 -0.8 1.5001 -1.6 1.8001 -2.7 1.2 -5.8 1.2 -8.5 0 -0.8 -0.4 -1.4 -1.0001 -1.6 -1.8001L0.800003 15.45" stroke-width="1"></path><path stroke="#000000" stroke-linecap="round" stroke-linejoin="round" stroke-miterlimit="10" d="M10.95 14.55c2.8 -0.2 4.8 -0.6001 4.8 0.5999 0 1.7 -3.4 4.5 -7.5 4.5s-7.5 -2.8 -7.5 -4.5c0 -1.3 2 -0.8999 4.8 -0.5999" stroke-width="1"></path><path stroke="#000000" stroke-linecap="round" stroke-linejoin="round" stroke-miterlimit="10" d="M11.25 15.6499c0 0.6 -1.3 1 -3 1s-3 -0.4 -3 -1 0.5 -3 3 -3 3 2.5 3 3Z" stroke-width="1"></path><path stroke="#000000" stroke-linecap="round" stroke-linejoin="round" stroke-miterlimit="10" d="m23.2 3.44995 -1.6 5.09998c-0.3 0.8 -0.8 1.50007 -1.6 1.80007 -2.7 1.2 -5.8 1.2 -8.5 0 -0.8 -0.40002 -1.4 -1.00007 -1.6 -1.80007L8.3 3.44995" stroke-width="1"></path><path stroke="#000000" stroke-linecap="round" stroke-linejoin="round" stroke-miterlimit="10" d="M18.45 2.54997c2.8 -0.2 4.8 -0.60002 4.8 0.59998 0 1.7 -3.4 4.5 -7.5 4.5s-7.5 -2.8 -7.5 -4.5c0 -1.3 2 -0.89998 4.8 -0.59998" stroke-width="1"></path><path stroke="#000000" stroke-linecap="round" stroke-linejoin="round" stroke-miterlimit="10" d="M18.75 3.75c0 0.6 -1.3 1 -3 1s-3 -0.4 -3 -1 0.5 -3 3 -3 3 2.4 3 3Z" stroke-width="1"></path></svg>