<svg xmlns="http://www.w3.org/2000/svg" fill="none" viewBox="0 0 24 24" id="Fukagawa-Matsuri-Snow--Streamline-Ultimate"><desc>Fukagawa Matsuri Snow Streamline Icon: https://streamlinehq.com</desc><path stroke="#000000" stroke-linecap="round" stroke-linejoin="round" stroke-miterlimit="10" d="M2.14999 20.1H21.75" stroke-width="1"></path><path stroke="#000000" stroke-linecap="round" stroke-linejoin="round" stroke-miterlimit="10" d="M9.45 20.1v-2.8001h5V20.1" stroke-width="1"></path><path stroke="#000000" stroke-linecap="round" stroke-linejoin="round" stroke-miterlimit="10" d="M9.45 17.2999 4.95 14.1h14l-4.5 3.1999" stroke-width="1"></path><path stroke="#000000" stroke-linecap="round" stroke-linejoin="round" stroke-miterlimit="10" d="M4.95 14.1s5 -2 7 -5.00002" stroke-width="1"></path><path stroke="#000000" stroke-linecap="round" stroke-linejoin="round" stroke-miterlimit="10" d="M18.95 14.1s-5 -2 -7 -5.00002" stroke-width="1"></path><path stroke="#000000" stroke-linecap="round" stroke-linejoin="round" stroke-miterlimit="10" d="M8.95 7.10001c0.4 -0.3 0.9 -0.40005 1.3 -0.30005 0.4 0.1 0.8 0.40005 1 0.80005l0.7 1.5 0.7 -1.5c0.2 -0.4 0.5 -0.70005 1 -0.80005 0.5 -0.1 0.9 0.00007 1.2 0.20007l0.1 0.09998" stroke-width="1"></path><path stroke="#000000" stroke-linecap="round" stroke-linejoin="round" stroke-miterlimit="10" d="M4.95 14.1c-0.8 0 -1.5 -0.7 -1.5 -1.5s0.7 -1.5 1.5 -1.5" stroke-width="1"></path><path stroke="#000000" stroke-linecap="round" stroke-linejoin="round" stroke-miterlimit="10" d="M18.95 14.1c0.8 0 1.5 -0.7 1.5 -1.5s-0.7 -1.5 -1.5 -1.5" stroke-width="1"></path><path stroke="#000000" stroke-linecap="round" stroke-linejoin="round" stroke-miterlimit="10" d="M4.15003 3.79993c-0.11045 0 -0.19999 -0.0895 -0.19999 -0.19995 0 -0.11046 0.08954 -0.19996 0.19999 -0.19996" stroke-width="1"></path><path stroke="#000000" stroke-linecap="round" stroke-linejoin="round" stroke-miterlimit="10" d="M4.15005 3.79993c0.11046 0 0.2 -0.0895 0.2 -0.19995 0 -0.11046 -0.08954 -0.19996 -0.2 -0.19996" stroke-width="1"></path><path stroke="#000000" stroke-linecap="round" stroke-linejoin="round" stroke-miterlimit="10" d="M7.2501 1.29993c-0.11046 0 -0.2 -0.0895 -0.2 -0.19995 0 -0.110461 0.08954 -0.199956 0.2 -0.199956" stroke-width="1"></path><path stroke="#000000" stroke-linecap="round" stroke-linejoin="round" stroke-miterlimit="10" d="M7.25007 1.29993c0.11046 0 0.2 -0.0895 0.2 -0.19995 0 -0.110461 -0.08954 -0.199956 -0.2 -0.199956" stroke-width="1"></path><path stroke="#000000" stroke-linecap="round" stroke-linejoin="round" stroke-miterlimit="10" d="M13.55 1.29993c-0.1104 0 -0.2 -0.0895 -0.2 -0.19995 0 -0.110461 0.0896 -0.199956 0.2 -0.199956" stroke-width="1"></path><path stroke="#000000" stroke-linecap="round" stroke-linejoin="round" stroke-miterlimit="10" d="M13.55 1.29993c0.1105 0 0.2 -0.0895 0.2 -0.19995 0 -0.110461 -0.0895 -0.199956 -0.2 -0.199956" stroke-width="1"></path><path stroke="#000000" stroke-linecap="round" stroke-linejoin="round" stroke-miterlimit="10" d="M19.85 1.29993c-0.1104 0 -0.2 -0.0895 -0.2 -0.19995 0 -0.110461 0.0896 -0.199956 0.2 -0.199956" stroke-width="1"></path><path stroke="#000000" stroke-linecap="round" stroke-linejoin="round" stroke-miterlimit="10" d="M19.85 1.29993c0.1104 0 0.2 -0.0895 0.2 -0.19995 0 -0.110461 -0.0896 -0.199956 -0.2 -0.199956" stroke-width="1"></path><path stroke="#000000" stroke-linecap="round" stroke-linejoin="round" stroke-miterlimit="10" d="M10.4501 3.79993c-0.1105 0 -0.2 -0.0895 -0.2 -0.19995 0 -0.11046 0.0895 -0.19996 0.2 -0.19996" stroke-width="1"></path><path stroke="#000000" stroke-linecap="round" stroke-linejoin="round" stroke-miterlimit="10" d="M10.45 3.79993c0.1105 0 0.2 -0.0895 0.2 -0.19995 0 -0.11046 -0.0895 -0.19996 -0.2 -0.19996" stroke-width="1"></path><path stroke="#000000" stroke-linecap="round" stroke-linejoin="round" stroke-miterlimit="10" d="M16.75 3.79993c-0.1104 0 -0.2 -0.0895 -0.2 -0.19995 0 -0.11046 0.0896 -0.19996 0.2 -0.19996" stroke-width="1"></path><path stroke="#000000" stroke-linecap="round" stroke-linejoin="round" stroke-miterlimit="10" d="M16.75 3.79993c0.1105 0 0.2 -0.0895 0.2 -0.19995 0 -0.11046 -0.0895 -0.19996 -0.2 -0.19996" stroke-width="1"></path><path stroke="#000000" stroke-linecap="round" stroke-linejoin="round" stroke-miterlimit="10" d="M2.24999 23.1c0.82843 0 1.5 -0.6716 1.5 -1.5 0 -0.8285 -0.67157 -1.5 -1.5 -1.5 -0.82842 0 -1.499998 0.6715 -1.499998 1.5 0 0.8284 0.671578 1.5 1.499998 1.5Z" stroke-width="1"></path><path stroke="#000000" stroke-linecap="round" stroke-linejoin="round" stroke-miterlimit="10" d="M8.75 23.1c0.82843 0 1.5 -0.6716 1.5 -1.5 0 -0.8285 -0.67157 -1.5 -1.5 -1.5s-1.5 0.6715 -1.5 1.5c0 0.8284 0.67157 1.5 1.5 1.5Z" stroke-width="1"></path><path stroke="#000000" stroke-linecap="round" stroke-linejoin="round" stroke-miterlimit="10" d="M21.75 23.1c0.8284 0 1.5 -0.6716 1.5 -1.5 0 -0.8285 -0.6716 -1.5 -1.5 -1.5s-1.5 0.6715 -1.5 1.5c0 0.8284 0.6716 1.5 1.5 1.5Z" stroke-width="1"></path><path stroke="#000000" stroke-linecap="round" stroke-linejoin="round" stroke-miterlimit="10" d="M15.15 23.1c0.8284 0 1.5 -0.6716 1.5 -1.5 0 -0.8285 -0.6716 -1.5 -1.5 -1.5s-1.5 0.6715 -1.5 1.5c0 0.8284 0.6716 1.5 1.5 1.5Z" stroke-width="1"></path></svg>