<svg xmlns="http://www.w3.org/2000/svg" fill="none" viewBox="0 0 24 24" id="Hungry-Ghost-Festival-Side--Streamline-Ultimate"><desc>Hungry Ghost Festival Side Streamline Icon: https://streamlinehq.com</desc><path stroke="#000000" stroke-linecap="round" stroke-linejoin="round" stroke-miterlimit="10" d="M11.2786 15.6501s-2.43335 2.4333 -5.35335 2.4333v-1.9467l-3.40667 0.9734s-0.48666 -5.3534 3.40667 -5.3534V8.83674s0.48667 -0.97334 2.43333 -0.97334c1.94672 0 4.08802 1.168 6.81332 3.8933 2.628 2.7254 -3.8933 11.1934 -7.29998 11.1934 -1.94667 0 -1.94667 -0.9734 -1.94667 -0.9734v-1.46" stroke-width="1"></path><path stroke="#000000" stroke-linecap="round" stroke-linejoin="round" stroke-miterlimit="10" d="M9.81859 16.7724v1.8494" stroke-width="1"></path><path stroke="#000000" stroke-linecap="round" stroke-linejoin="round" stroke-miterlimit="10" d="M8.35859 13.2166s0.97333 0 1.94671 -0.9733" stroke-width="1"></path><path stroke="#000000" stroke-linecap="round" stroke-linejoin="round" stroke-miterlimit="10" d="M5.92526 10.2966s-2.43334 -0.97334 -2.43334 -3.89334l0 -5.35333" stroke-width="1"></path><path stroke="#000000" stroke-linecap="round" stroke-linejoin="round" stroke-miterlimit="10" d="M3.58925 2.50993s5.84001 -3.40667 14.60005 0.48666c0 -1.07066 1.0706 -1.94666 2.1413 -1.94666 0.584 0 1.168 0.19466 1.168 0.97333 0 3.01733 0.2469 12.08464 -5.7878 12.18194" stroke-width="1"></path><path stroke="#000000" stroke-linecap="round" stroke-linejoin="round" stroke-miterlimit="10" d="M18.1895 2.99286v3.79199c0 0.74755 0.3738 1.40171 1.0279 1.68204l1.7137 0.56368" stroke-width="1"></path><path stroke="#000000" stroke-linecap="round" stroke-linejoin="round" stroke-miterlimit="10" d="M3.49192 5.62469s6.61918 -2.88735 14.69788 0.71399" stroke-width="1"></path></svg>