<svg xmlns="http://www.w3.org/2000/svg" fill="none" viewBox="0 0 24 24" id="Hungry-Ghost-Festival--Streamline-Ultimate"><desc>Hungry Ghost Festival Streamline Icon: https://streamlinehq.com</desc><path stroke="#000000" stroke-linecap="round" stroke-linejoin="round" stroke-miterlimit="10" d="M18 13.45c0 2.4 -0.9 4.7 -2.6 6.4l-3.4 3.4 -3.39999 -3.4C6.90001 18.15 6 15.85 6 13.45V7.94995h12V13.45Z" stroke-width="1"></path><path stroke="#000000" stroke-linecap="round" stroke-linejoin="round" stroke-miterlimit="10" d="M12 11.75v3.1" stroke-width="1"></path><path stroke="#000000" stroke-linecap="round" stroke-linejoin="round" stroke-miterlimit="10" d="M9 11.1911c1.7388 0.7452 4.2612 0.7452 6 0" stroke-width="1"></path><path stroke="#000000" stroke-linecap="round" stroke-linejoin="round" stroke-miterlimit="10" d="M6 12.85s1.5 2 6 2" stroke-width="1"></path><path stroke="#000000" stroke-linecap="round" stroke-linejoin="round" stroke-miterlimit="10" d="M18 12.85s-1.5 2 -6 2" stroke-width="1"></path><path stroke="#000000" stroke-linecap="round" stroke-linejoin="round" stroke-miterlimit="10" d="M9.5 14.6499V15.85" stroke-width="1"></path><path stroke="#000000" stroke-linecap="round" stroke-linejoin="round" stroke-miterlimit="10" d="M14.5 14.6499V15.85" stroke-width="1"></path><path stroke="#000000" stroke-linecap="round" stroke-linejoin="round" stroke-miterlimit="10" d="m10.5 18.9125 -1 1.7999" stroke-width="1"></path><path stroke="#000000" stroke-linecap="round" stroke-linejoin="round" stroke-miterlimit="10" d="m13.5 18.9125 1 1.7999" stroke-width="1"></path><path stroke="#000000" stroke-linecap="round" stroke-linejoin="round" stroke-miterlimit="10" d="M4 2.6499c2.1 -1 4.9 -1.699949 8 -1.699949 3.1 0 5.9 0.599949 8 1.699949" stroke-width="1"></path><path stroke="#000000" stroke-linecap="round" stroke-linejoin="round" stroke-miterlimit="10" d="M5 5.34998c1.9 -0.8 4.4 -1.20008 7 -1.20008 2.6 0 5 0.50008 7 1.20008" stroke-width="1"></path><path stroke="#000000" stroke-linecap="round" stroke-linejoin="round" stroke-miterlimit="10" d="M3.2 0.75 6 7.94995" stroke-width="1"></path><path stroke="#000000" stroke-linecap="round" stroke-linejoin="round" stroke-miterlimit="10" d="M20.8 0.75 18 7.94995" stroke-width="1"></path></svg>