<svg xmlns="http://www.w3.org/2000/svg" fill="none" viewBox="0 0 24 24" id="Kanda-Matsuri--Streamline-Ultimate"><desc>Kanda Matsuri Streamline Icon: https://streamlinehq.com</desc><path stroke="#000000" stroke-linecap="round" stroke-linejoin="round" stroke-miterlimit="10" d="M12 19.1499c5.081 0 9.2 -4.1189 9.2 -9.19995C21.2 4.86893 17.081 0.75 12 0.75c-5.08102 0 -9.2 4.11893 -9.2 9.19995 0 5.08105 4.11898 9.19995 9.2 9.19995Z" stroke-width="1"></path><path stroke="#000000" stroke-linecap="round" stroke-linejoin="round" stroke-miterlimit="10" d="M15 4.94995c-0.3 -0.6 -0.9 -1 -1.5 -1s-1.1 0.29995 -1.5 0.69995c-0.4 -0.4 -0.9 -0.69995 -1.5 -0.69995 -0.70001 0 -1.30001 0.4 -1.50001 1 -0.3 0.7 -0.1 1.6 0.6 2L12 8.44995l2.4 -1.5c0.7 -0.4 1 -1.3 0.6 -2Z" stroke-width="1"></path><path stroke="#000000" stroke-linecap="round" stroke-linejoin="round" stroke-miterlimit="10" d="M12 4.6499V0.75" stroke-width="1"></path><path stroke="#000000" stroke-linecap="round" stroke-linejoin="round" stroke-miterlimit="10" d="M6.10001 9.84997c-0.4 0.50003 -0.4 1.29993 -0.1 1.79993 0.3 0.5 0.8 0.8 1.3 1 -0.2 0.5 -0.1 1.1001 0.2 1.6001 0.3 0.6 1 0.8999 1.6 0.7999 0.8 -0.1 1.39999 -0.8 1.49999 -1.6l0.1 -2.8L8.2 9.25c-0.7 -0.3 -1.59999 -0.10003 -2.09999 0.59997Z" stroke-width="1"></path><path stroke="#000000" stroke-linecap="round" stroke-linejoin="round" stroke-miterlimit="10" d="m7.4 12.6499 -3.4 1.9" stroke-width="1"></path><path stroke="#000000" stroke-linecap="round" stroke-linejoin="round" stroke-miterlimit="10" d="M14.8 15.0499c0.7 0.1 1.3 -0.2999 1.6 -0.7999 0.3 -0.5 0.3 -1.1001 0.2 -1.6001 0.5 -0.1 1 -0.4 1.3 -1 0.3 -0.6 0.3 -1.2999 -0.1 -1.79991 -0.5 -0.7 -1.4 -0.9 -2.1 -0.5L13.2 10.75l0.1 2.7999c0.1 0.8 0.7 1.5 1.5 1.5Z" stroke-width="1"></path><path stroke="#000000" stroke-linecap="round" stroke-linejoin="round" stroke-miterlimit="10" d="m16.6 12.6499 3.4 1.9" stroke-width="1"></path><path stroke="#000000" stroke-linecap="round" stroke-linejoin="round" stroke-miterlimit="10" d="m1 20.0499 2.2 3.2" stroke-width="1"></path><path stroke="#000000" stroke-linecap="round" stroke-linejoin="round" stroke-miterlimit="10" d="m7.8 21.85 0.7 1.3999" stroke-width="1"></path><path stroke="#000000" stroke-linecap="round" stroke-linejoin="round" stroke-miterlimit="10" d="m23 20.0499 -2.2 3.2" stroke-width="1"></path><path stroke="#000000" stroke-linecap="round" stroke-linejoin="round" stroke-miterlimit="10" d="m16.2 21.85 -0.7 1.3999" stroke-width="1"></path></svg>