<svg xmlns="http://www.w3.org/2000/svg" fill="none" viewBox="0 0 24 24" id="Qingming-Festival-1--Streamline-Ultimate"><desc>Qingming Festival 1 Streamline Icon: https://streamlinehq.com</desc><path stroke="#000000" stroke-linecap="round" stroke-linejoin="round" stroke-miterlimit="10" d="M17 18.75V7.25c0 -2.8 -2.2 -5 -5 -5s-5 2.2 -5 5v11.5" stroke-width="1"></path><path stroke="#000000" stroke-linecap="round" stroke-linejoin="round" stroke-miterlimit="10" d="M14 18.75V7.25c0 -1.1 -0.9 -2 -2 -2s-2 0.9 -2 2v11.5" stroke-width="1"></path><path stroke="#000000" stroke-linecap="round" stroke-linejoin="round" stroke-miterlimit="10" d="M19.85 18.75H4.14999v3H19.85v-3Z" stroke-width="1"></path><path stroke="#000000" stroke-linecap="round" stroke-linejoin="round" stroke-miterlimit="10" d="M2.5 14.75v-2c0 -2.4 2 -4.39993 4.5 -4.19993" stroke-width="1"></path><path stroke="#000000" stroke-linecap="round" stroke-linejoin="round" stroke-miterlimit="10" d="M21.5 14.75v-2c0 -2.4 -2 -4.39993 -4.5 -4.19993" stroke-width="1"></path><path stroke="#000000" stroke-linecap="round" stroke-linejoin="round" stroke-miterlimit="10" d="M4.15 21.75H0.75v-5l1.7 -2 1.7 2v5Z" stroke-width="1"></path><path stroke="#000000" stroke-linecap="round" stroke-linejoin="round" stroke-miterlimit="10" d="M19.85 21.75h3.4v-5l-1.7 -2 -1.7 2v5Z" stroke-width="1"></path></svg>