<svg xmlns="http://www.w3.org/2000/svg" fill="none" viewBox="0 0 24 24" id="Takengei--Streamline-Ultimate"><desc>Takengei Streamline Icon: https://streamlinehq.com</desc><path stroke="#000000" stroke-linecap="round" stroke-linejoin="round" stroke-miterlimit="10" d="m8.19998 12.7144 1.6 1" stroke-width="1"></path><path stroke="#000000" stroke-linecap="round" stroke-linejoin="round" stroke-miterlimit="10" d="M10.4 11.0983s-3.30002 -2.5 -8.80002 -2.6c0 0 1.8 -3.29995 6.8 -2.19995C11.5 6.89835 10.4 11.0983 10.4 11.0983Z" stroke-width="1"></path><path stroke="#000000" stroke-linecap="round" stroke-linejoin="round" stroke-miterlimit="10" d="m1.19998 18.0144 5.8 1.1 -5.2 2.4" stroke-width="1"></path><path stroke="#000000" stroke-linecap="round" stroke-linejoin="round" stroke-miterlimit="10" d="m10.2 19.2144 0.6 0.5" stroke-width="1"></path><path stroke="#000000" stroke-linecap="round" stroke-linejoin="round" stroke-miterlimit="10" d="M19.4 8.84998c0 0.3 0.1 0.6 0.1 0.9C19.5 11.35 19 12.95 18.1 14.15c-0.7 1 -1.1 2.2 -1 3.4v0.2c0.1 1.4 -0.4 2.8 -1.4 3.9 -1 1.1 -2.3 1.6 -3.7 1.6 -1.4 0 -2.8 -0.6 -3.7 -1.6 -0.9 -1 -1.5 -2.4 -1.4 -3.9v-0.2c0.1 -1.2 -0.3 -2.4 -1 -3.4 -0.9 -1.2 -1.4 -2.8 -1.4 -4.40002 0 -0.3 0 -0.6 0.1 -0.9" stroke-width="1"></path><path stroke="#000000" stroke-linecap="round" stroke-linejoin="round" stroke-miterlimit="10" d="M5.56282 6.12703C6.78576 3.79006 9.24797 2.27393 12 2.27393c2.7508 0 5.1156 1.51483 6.4305 3.85011" stroke-width="1"></path><path stroke="#000000" stroke-linecap="round" stroke-linejoin="round" stroke-miterlimit="10" d="M1.89998 0.978578C1.6586 3.47288 2.78626 4.8333 4.48731 6.35685c0.32668 -0.10103 0.68451 -0.18055 1.0752 -0.22925 0.60604 -1.15838 1.51655 -2.11512 2.61591 -2.78557C7.23437 0.978581 3.09564 0.569552 1.89998 0.978578Z" stroke-width="1"></path><path stroke="#000000" stroke-linecap="round" stroke-linejoin="round" stroke-miterlimit="10" d="M22.0934 0.978578c0.2414 2.494302 -0.8863 3.854722 -2.5874 5.378272 -0.3266 -0.10103 -0.6845 -0.18055 -1.0752 -0.22925 -0.606 -1.15838 -1.5165 -2.11512 -2.6159 -2.78557C16.759 0.978581 20.8977 0.569552 22.0934 0.978578Z" stroke-width="1"></path><path stroke="#000000" stroke-linecap="round" stroke-linejoin="round" stroke-miterlimit="10" d="m15.8 12.7144 -1.6 1" stroke-width="1"></path><path stroke="#000000" stroke-linecap="round" stroke-linejoin="round" stroke-miterlimit="10" d="M13.6 11.0983s3.3 -2.5 8.8 -2.6c0 0 -1.8 -3.29995 -6.8 -2.19995 -3.1 0.6 -2 4.79995 -2 4.79995Z" stroke-width="1"></path><path stroke="#000000" stroke-linecap="round" stroke-linejoin="round" stroke-miterlimit="10" d="m22.8 18.0144 -5.8 1.1 5.2 2.4" stroke-width="1"></path><path stroke="#000000" stroke-linecap="round" stroke-linejoin="round" stroke-miterlimit="10" d="m13.8 19.2144 -0.6 0.5" stroke-width="1"></path></svg>