<svg xmlns="http://www.w3.org/2000/svg" viewBox="0 0 24 24" id="Shelf-Books-Round--Streamline-Ultimate"><desc>Shelf Books Round Streamline Icon: https://streamlinehq.com</desc><g><path d="M0.75 12a11.25 11.25 0 1 0 22.5 0 11.25 11.25 0 1 0 -22.5 0" fill="none" stroke="#000000" stroke-linecap="round" stroke-linejoin="round" stroke-width="1"></path><path d="m3.75 23.25 16.5 0" fill="none" stroke="#000000" stroke-linecap="round" stroke-linejoin="round" stroke-width="1"></path><path d="m0.77 12.75 22.46 0" fill="none" stroke="#000000" stroke-linecap="round" stroke-linejoin="round" stroke-width="1"></path><path d="M7.25 6.25h3.5l0 0v6.5l0 0h-4l0 0v-6a0.5 0.5 0 0 1 0.5 -0.5Z" fill="none" stroke="#000000" stroke-linecap="round" stroke-linejoin="round" stroke-width="1"></path><path d="M10.75 6.25h3.5a0.5 0.5 0 0 1 0.5 0.5v6l0 0h-4l0 0v-6.5l0 0Z" fill="none" stroke="#000000" stroke-linecap="round" stroke-linejoin="round" stroke-width="1"></path><path d="M12.75 23.22v-6.47H9.5a0.76 0.76 0 0 0 -0.75 0.75v5.27" fill="none" stroke="#000000" stroke-linecap="round" stroke-linejoin="round" stroke-width="1"></path><path d="M16.75 22.2v-4.7a0.76 0.76 0 0 0 -0.75 -0.75h-3.25v6.47" fill="none" stroke="#000000" stroke-linecap="round" stroke-linejoin="round" stroke-width="1"></path></g></svg>