<svg viewBox="0 0 24 24" xmlns="http://www.w3.org/2000/svg" id="File-Copyright-User--Streamline-Ultimate"><desc>File Copyright User Streamline Icon: https://streamlinehq.com</desc><path d="M0.75 15.75a7.5 7.5 0 1 0 15 0 7.5 7.5 0 1 0 -15 0Z" fill="none" stroke="#000000" stroke-linecap="round" stroke-linejoin="round" stroke-width="1"></path><path d="M5.25 14.25a3 3 0 1 0 6 0 3 3 0 1 0 -6 0Z" fill="none" stroke="#000000" stroke-linecap="round" stroke-linejoin="round" stroke-width="1"></path><path d="M13.137 21.439a5.462 5.462 0 0 0 -9.774 0" fill="none" stroke="#000000" stroke-linecap="round" stroke-linejoin="round" stroke-width="1"></path><path d="M3.75 5.25v-3a1.5 1.5 0 0 1 1.5 -1.5h10.629a1.5 1.5 0 0 1 1.06 0.439l5.872 5.872a1.5 1.5 0 0 1 0.439 1.06V21.75a1.5 1.5 0 0 1 -1.5 1.5h-4.5" fill="none" stroke="#000000" stroke-linecap="round" stroke-linejoin="round" stroke-width="1"></path><path d="M23.25 8.25h-6a1.5 1.5 0 0 1 -1.5 -1.5v-6" fill="none" stroke="#000000" stroke-linecap="round" stroke-linejoin="round" stroke-width="1"></path></svg>