<svg xmlns="http://www.w3.org/2000/svg" fill="none" viewBox="0 0 24 24" id="Hard-Drive--Streamline-Ultimate"><desc>Hard Drive Streamline Icon: https://streamlinehq.com</desc><path stroke="#000000" stroke-linecap="round" stroke-linejoin="round" d="M23.25 18c0 1.1935 -0.4741 2.3381 -1.318 3.182 -0.8439 0.8439 -1.9885 1.318 -3.182 1.318H5.25c-1.19347 0 -2.33807 -0.4741 -3.18198 -1.318C1.22411 20.3381 0.75 19.1935 0.75 18s0.47411 -2.3381 1.31802 -3.182C2.91193 13.9741 4.05653 13.5 5.25 13.5h13.5c1.1935 0 2.3381 0.4741 3.182 1.318 0.8439 0.8439 1.318 1.9885 1.318 3.182v0Z" stroke-width="1"></path><path stroke="#000000" d="M15 18.375c-0.2071 0 -0.375 -0.1679 -0.375 -0.375s0.1679 -0.375 0.375 -0.375" stroke-width="1"></path><path stroke="#000000" d="M15 18.375c0.2071 0 0.375 -0.1679 0.375 -0.375s-0.1679 -0.375 -0.375 -0.375" stroke-width="1"></path><path stroke="#000000" d="M18.375 18.375c-0.2071 0 -0.375 -0.1679 -0.375 -0.375s0.1679 -0.375 0.375 -0.375" stroke-width="1"></path><path stroke="#000000" d="M18.375 18.375c0.2071 0 0.375 -0.1679 0.375 -0.375s-0.1679 -0.375 -0.375 -0.375" stroke-width="1"></path><path stroke="#000000" stroke-linecap="round" stroke-linejoin="round" d="M23.131 16.973 20.043 3.815c-0.1544 -0.65856 -0.5269 -1.2456 -1.057 -1.66583 -0.53 -0.42024 -1.1866 -0.649 -1.863 -0.64917H6.87802c-0.6766 -0.00006 -1.33336 0.22861 -1.86362 0.64886S4.11151 3.15627 3.95702 3.815L0.869019 16.973" stroke-width="1"></path><path stroke="#000000" stroke-linecap="round" stroke-linejoin="round" d="M5.25 18H9" stroke-width="1"></path></svg>