<svg xmlns="http://www.w3.org/2000/svg" fill="none" viewBox="0 0 24 24" id="Radio-Antenna--Streamline-Ultimate"><desc>Radio Antenna Streamline Icon: https://streamlinehq.com</desc><path stroke="#000000" stroke-linecap="round" stroke-linejoin="round" d="M3.72998 6.75 21 0.75" stroke-width="1"></path><path stroke="#000000" stroke-linecap="round" stroke-linejoin="round" d="M0.75 13.75h22.5" stroke-width="1"></path><path stroke="#000000" d="M4.75 10.75c-0.27614 0 -0.5 -0.2239 -0.5 -0.5 0 -0.27614 0.22386 -0.5 0.5 -0.5" stroke-width="1"></path><path stroke="#000000" d="M4.75 10.75c0.27614 0 0.5 -0.2239 0.5 -0.5 0 -0.27614 -0.22386 -0.5 -0.5 -0.5" stroke-width="1"></path><path stroke="#000000" stroke-linecap="round" stroke-linejoin="round" d="M17.75 10.5h2.5" stroke-width="1"></path><path stroke="#000000" stroke-linecap="round" stroke-linejoin="round" d="M9.25 10.5h5.5" stroke-width="1"></path><path stroke="#000000" stroke-linecap="round" stroke-linejoin="round" d="M6.75 20.5c1.10457 0 2 -0.8954 2 -2s-0.89543 -2 -2 -2 -2 0.8954 -2 2 0.89543 2 2 2Z" stroke-width="1"></path><path stroke="#000000" stroke-linecap="round" stroke-linejoin="round" d="M12.75 17h5.5" stroke-width="1"></path><path stroke="#000000" stroke-linecap="round" stroke-linejoin="round" d="M12.75 20h5.5" stroke-width="1"></path><path stroke="#000000" stroke-linecap="round" stroke-linejoin="round" d="M22.25 6.75H1.75c-0.55228 0 -1 0.44772 -1 1v14.5c0 0.5523 0.44772 1 1 1h20.5c0.5523 0 1 -0.4477 1 -1V7.75c0 -0.55228 -0.4477 -1 -1 -1Z" stroke-width="1"></path></svg>