<svg xmlns="http://www.w3.org/2000/svg" viewBox="0 0 24 24" id="Radio-Antenna-1--Streamline-Ultimate"><desc>Radio Antenna 1 Streamline Icon: https://streamlinehq.com</desc><defs></defs><title>radio-antenna-1</title><path d="M20.273 6.742 3 0.75" fill="none" stroke="#000000" stroke-linecap="round" stroke-linejoin="round" stroke-width="1"></path><path d="m22.25 23.25 -20.5 0s-1 0 -1 -1l0 -14.508s0 -1 1 -1l20.5 0s1 0 1 1l0 14.508s0 1 -1 1" fill="none" stroke="#000000" stroke-linecap="round" stroke-linejoin="round" stroke-width="1"></path><path d="M11.887 17.634A4.469 4.469 0 0 1 10.292 19" fill="none" stroke="#000000" stroke-linecap="round" stroke-linejoin="round" stroke-width="1"></path><path d="M6.86 19.271a4.658 4.658 0 0 1 -1.792 -1.1" fill="none" stroke="#000000" stroke-linecap="round" stroke-linejoin="round" stroke-width="1"></path><path d="M3.75 14.992a4.587 4.587 0 0 1 0.493 -2.042" fill="none" stroke="#000000" stroke-linecap="round" stroke-linejoin="round" stroke-width="1"></path><path d="M6.86 10.713a4.526 4.526 0 0 1 2.093 -0.161" fill="none" stroke="#000000" stroke-linecap="round" stroke-linejoin="round" stroke-width="1"></path><path d="M11.887 12.35a4.363 4.363 0 0 1 0.8 1.939" fill="none" stroke="#000000" stroke-linecap="round" stroke-linejoin="round" stroke-width="1"></path><path d="M15.75 11.992a2.25 2.25 0 1 0 4.5 0 2.25 2.25 0 1 0 -4.5 0" fill="none" stroke="#000000" stroke-linecap="round" stroke-linejoin="round" stroke-width="1"></path><path d="m16.5 17.242 3 0" fill="none" stroke="#000000" stroke-linecap="round" stroke-linejoin="round" stroke-width="1"></path><path d="m16.5 20.242 3 0" fill="none" stroke="#000000" stroke-linecap="round" stroke-linejoin="round" stroke-width="1"></path></svg>