<svg xmlns="http://www.w3.org/2000/svg" fill="none" viewBox="0 0 24 24" id="American-Express-Logo--Streamline-Ultimate"><desc>American Express Logo Streamline Icon: https://streamlinehq.com</desc><path stroke="#000000" stroke-linecap="round" stroke-linejoin="round" d="M12.749 22.4768h3.5855l1.6557 -2.2032 1.6556 2.2032h3.5856l-3.4844 -4.5411 3.4844 -4.6366H19.791l-1.8008 2.3469 -1.8008 -2.3469H12.749l3.4843 4.6366 -3.4843 4.5411Z" stroke-width="1"></path><path stroke="#000000" stroke-linecap="round" stroke-linejoin="round" d="M3.86716 10.7004H0.768555L5.03269 1.52263h2.9337l4.26411 9.17777H9.13192L8.6036 9.51537H4.39548l-0.52832 1.18503Zm1.79565 -4.02776h1.67346l-0.83673 -1.87687 -0.83673 1.87687Z" clip-rule="evenodd" stroke-width="1"></path><path stroke="#000000" stroke-linecap="round" stroke-linejoin="round" d="M4.6781 13.2991v9.1778l7.3132 0.0005v-2.5345H7.56293v-0.7877h4.32427v-2.5344H7.56293v-0.7872l4.42837 0v-2.5345H4.6781Z" stroke-width="1"></path><path stroke="#000000" stroke-linecap="round" stroke-linejoin="round" d="M14.8206 7.3253v3.3751H12.132V1.52263h3.1618l2.3879 5.75817 2.3879 -5.75817h3.1618v9.17777h-2.6886V7.3253l-1.343 3.3751h-3.0362l-1.343 -3.3751Z" stroke-width="1"></path></svg>