<svg xmlns="http://www.w3.org/2000/svg" fill="none" viewBox="0 0 24 24" id="Apple-Pay--Streamline-Ultimate"><desc>Apple Pay Streamline Icon: https://streamlinehq.com</desc><path stroke="#000000" stroke-linecap="round" stroke-linejoin="round" d="M5.45432 12.0764c0.00302 -0.2611 0.07213 -0.5172 0.2009 -0.7443 0.12877 -0.2272 0.31298 -0.418 0.53546 -0.5547 -0.14163 -0.2014 -0.32786 -0.3672 -0.54416 -0.4847s-0.45682 -0.1834 -0.70279 -0.1927c-0.53143 -0.0521 -1.04202 0.3127 -1.306 0.3127 -0.26398 0 -0.69468 -0.3057 -1.12538 -0.2988 -0.28948 0.0077 -0.57199 0.0905 -0.81982 0.2403 -0.24784 0.1498 -0.45248 0.3615 -0.59385 0.6142 -0.600903 1.042 -0.152834 2.5912 0.43417 3.4387 0.28482 0.4133 0.62869 0.8787 1.07675 0.8614 0.44807 -0.0174 0.59743 -0.2779 1.11844 -0.2779 0.52101 0 0.67037 0.2779 1.12538 0.2709 0.45502 -0.0069 0.76068 -0.4237 1.04202 -0.8371 0.20354 -0.2952 0.36378 -0.618 0.47586 -0.9586 -0.27238 -0.116 -0.50459 -0.3096 -0.66766 -0.5567 -0.16307 -0.247 -0.24978 -0.5367 -0.24932 -0.8327Z" stroke-width="1"></path><path stroke="#000000" stroke-linecap="round" stroke-linejoin="round" d="M5.43887 7.67376c0.23489 -0.27761 0.35174 -0.63616 0.32553 -0.99886 -0.3564 0.03331 -0.68625 0.20272 -0.92095 0.473 -0.11795 0.13313 -0.20762 0.28884 -0.26358 0.45767 -0.05596 0.16883 -0.07704 0.34727 -0.06196 0.5245 0.17821 -0.00042 0.35394 -0.04178 0.51362 -0.1209s0.29905 -0.19387 0.40734 -0.33541Z" stroke-width="1"></path><path stroke="#000000" stroke-linecap="round" stroke-linejoin="round" d="M8.94922 15.1144v-2.5359m0 0V8.89255l2.06188 0c0.8002 0 1.8392 0.49392 1.8392 1.82255 0 1.3286 -1.19 1.8634 -1.8392 1.8634l-2.06188 0Z" stroke-width="1"></path><path stroke="#000000" stroke-linecap="round" stroke-linejoin="round" d="m17.697 15.0701 0 -1.5157m-3.0316 -2.1719c0.1923 -0.3507 0.7466 -0.7466 1.5271 -0.7466 0.7805 0 1.5045 0.5203 1.5045 1.2556l0 0.8597m0 0c-0.4864 0 -1.595 0.0181 -2.138 0.0905 -0.6787 0.0905 -1.3122 0.509 -1.3122 1.1425 0 0.6335 0.4697 1.0859 1.4706 1.0859s1.7761 -1.1085 1.9796 -1.5157m0 -0.8032 0 0.8032" stroke-width="1"></path><path stroke="#000000" stroke-linecap="round" stroke-linejoin="round" d="M23.1863 10.8125c-0.529 1.5506 -1.562 4.6014 -1.7518 5.1268m0 0c-0.3193 0.8841 -0.6927 1.3858 -1.6048 1.3858m1.6048 -1.3858 -1.915 -5.1268" stroke-width="1"></path></svg>