<svg xmlns="http://www.w3.org/2000/svg" fill="none" viewBox="0 0 24 24" id="Discover-Pay--Streamline-Ultimate"><desc>Discover Pay Streamline Icon: https://streamlinehq.com</desc><path stroke="#000000" stroke-linecap="round" stroke-linejoin="round" d="M0.542969 13.5382v-3.0988h0.950091c0.71814 0 1.41784 0.6432 1.41784 1.5494 0 0.9063 -0.7747 1.5494 -1.41784 1.5494H0.542969Z" stroke-width="1"></path><path stroke="#000000" stroke-linecap="round" stroke-linejoin="round" d="m4.05273 10.4394 0 3.0988" stroke-width="1"></path><path stroke="#000000" stroke-linecap="round" stroke-linejoin="round" d="M6.83312 10.6161c-0.42379 -0.3329 -1.2512 -0.3531 -1.44291 0.2321 -0.20097 0.6135 0.22197 0.8274 0.69622 1.0595 0.47425 0.2321 1.1016 0.5471 0.79715 1.2008 -0.34306 0.7366 -1.29157 0.5549 -1.65482 0.1917" stroke-width="1"></path><path stroke="#000000" stroke-linecap="round" d="M10.3838 10.5602c-0.2208 -0.1132 -0.47109 -0.177 -0.73625 -0.177 -0.89293 0 -1.61679 0.7239 -1.61679 1.6168s0.72386 1.6168 1.61679 1.6168c0.26516 0 0.51545 -0.0638 0.73625 -0.177" stroke-width="1"></path><path stroke="#000000" d="M11.233 12a1.617 1.617 0 1 0 3.234 0 1.617 1.617 0 1 0 -3.234 0" stroke-width="1"></path><path stroke="#000000" stroke-linecap="round" stroke-linejoin="round" d="m15.2129 10.4394 1.342 3.1774 1.4012 -3.1774" stroke-width="1"></path><path stroke="#000000" stroke-linecap="round" stroke-linejoin="round" d="M20.5951 10.4394h-1.4918v1.5887m1.4918 1.5887h-1.4918v-1.5887m0 0h1.4468" stroke-width="1"></path><path stroke="#000000" stroke-linecap="round" stroke-linejoin="round" d="M21.7424 13.6168v-1.4639m0.5901 0c0.783 0 1.1244 -0.4334 1.1244 -0.876 0 -0.4425 -0.3187 -0.8375 -1.1244 -0.8375h-0.5901v1.7135m0.5901 0h-0.5901m0.5901 0 1.0667 1.4639" stroke-width="1"></path></svg>