<svg xmlns="http://www.w3.org/2000/svg" viewBox="0 0 24 24" id="Spa-Stone--Streamline-Ultimate"><desc>Spa Stone Streamline Icon: https://streamlinehq.com</desc><g><path d="M18.21 14.5a4.4 4.4 0 0 1 1.42 3.12c0 3.11 -3.95 5.63 -8.84 5.63S2 20.73 2 17.62c0 -0.54 -0.08 -3.14 4.88 -5" fill="none" stroke="#000000" stroke-linecap="round" stroke-linejoin="round" stroke-width="1"></path><path d="M7.62 7.45A3.92 3.92 0 0 0 6 10.39c0 2.67 3.6 4.82 8 4.82s8 -2.15 8 -4.82 -3.2 -3.87 -3.67 -4.06" fill="none" stroke="#000000" stroke-linecap="round" stroke-linejoin="round" stroke-width="1"></path><path d="M5.97 4.77a6.43 4.02 0 1 0 12.86 0 6.43 4.02 0 1 0 -12.86 0" fill="none" stroke="#000000" stroke-linecap="round" stroke-linejoin="round" stroke-width="1"></path><path d="M9.19 4.77s0.8 0.8 3.21 0.8" fill="none" stroke="#000000" stroke-linecap="round" stroke-linejoin="round" stroke-width="1"></path><path d="M6 17.62a3.5 3.5 0 0 0 3.22 1.61" fill="none" stroke="#000000" stroke-linecap="round" stroke-linejoin="round" stroke-width="1"></path><path d="M10 11.28a4 4 0 0 0 2.4 0.72" fill="none" stroke="#000000" stroke-linecap="round" stroke-linejoin="round" stroke-width="1"></path></g></svg>