<svg viewBox="0 0 24 24" xmlns="http://www.w3.org/2000/svg" id="Spa-Bamboo--Streamline-Ultimate"><desc>Spa Bamboo Streamline Icon: https://streamlinehq.com</desc><path d="M14.215 23.25h-5.97a0.75 0.75 0 0 1 -0.735 -0.6l-4.2 -21a0.75 0.75 0 0 1 0.735 -0.9h5.97a0.75 0.75 0 0 1 0.736 0.6l4.2 21a0.75 0.75 0 0 1 -0.736 0.9Z" fill="none" stroke="#000000" stroke-linecap="round" stroke-linejoin="round" stroke-width="1"></path><path d="M17.389 10.02A7.486 7.486 0 0 0 20.7 3.878a0.73 0.73 0 0 0 -0.7 -0.7 7.162 7.162 0 0 0 -5.16 2.169 7.057 7.057 0 0 0 -2.121 5.814" fill="none" stroke="#000000" stroke-linecap="round" stroke-linejoin="round" stroke-width="1"></path><path d="M16.983 10a5.53 5.53 0 0 0 -4.149 1.767 5.53 5.53 0 0 0 4.149 1.767 4.908 4.908 0 0 0 3.257 -1.19 0.773 0.773 0 0 0 0 -1.154A4.908 4.908 0 0 0 16.983 10Z" fill="none" stroke="#000000" stroke-linecap="round" stroke-linejoin="round" stroke-width="1"></path><path d="m4.63 8.25 3.75 -0.75" fill="none" stroke="#000000" stroke-linecap="round" stroke-linejoin="round" stroke-width="1"></path><path d="m6.592 18.058 4.038 -0.808" fill="none" stroke="#000000" stroke-linecap="round" stroke-linejoin="round" stroke-width="1"></path></svg>