<svg viewBox="0 0 24 24" xmlns="http://www.w3.org/2000/svg" id="Seafood-Sushi--Streamline-Ultimate"><desc>Seafood Sushi Streamline Icon: https://streamlinehq.com</desc><path d="M20.25 14.5v2.75a3 3 0 0 1 -3 3H6.75a3 3 0 0 1 -3 -3V14.5" fill="none" stroke="#000000" stroke-linecap="round" stroke-linejoin="round" stroke-width="1"></path><path d="M12 11.25a11.735 11.735 0 0 1 8.647 3.658 1.5 1.5 0 0 0 2.6 -1.014v-0.019C23.25 8.283 18.213 3.75 12 3.75S0.75 8.283 0.75 13.875v0.019a1.5 1.5 0 0 0 2.6 1.014A11.735 11.735 0 0 1 12 11.25Z" fill="none" stroke="#000000" stroke-linecap="round" stroke-linejoin="round" stroke-width="1"></path><path d="m4.72 13.661 4.01 -9.477" fill="none" stroke="#000000" stroke-linecap="round" stroke-linejoin="round" stroke-width="1"></path><path d="m11.74 11.25 3.042 -7.188" fill="none" stroke="#000000" stroke-linecap="round" stroke-linejoin="round" stroke-width="1"></path><path d="m17.509 12.548 2.461 -5.819" fill="none" stroke="#000000" stroke-linecap="round" stroke-linejoin="round" stroke-width="1"></path></svg>