<svg viewBox="0 0 24 24" xmlns="http://www.w3.org/2000/svg" id="Seafood-Sardine-Can-1--Streamline-Ultimate"><desc>Seafood Sardine Can 1 Streamline Icon: https://streamlinehq.com</desc><path d="M18.75 18v3.75a1.5 1.5 0 0 1 -1.5 1.5h-15a1.5 1.5 0 0 1 -1.5 -1.5V2.25a1.5 1.5 0 0 1 1.5 -1.5h15a1.5 1.5 0 0 1 1.5 1.5V7.5" fill="none" stroke="#000000" stroke-linecap="round" stroke-linejoin="round" stroke-width="1"></path><path d="M3.75 10.5A9.907 9.907 0 0 1 5.414 5L6.75 3l1.336 2a9.907 9.907 0 0 1 1.664 5.5" fill="none" stroke="#000000" stroke-linecap="round" stroke-linejoin="round" stroke-width="1"></path><path d="M9.75 10.5A9.907 9.907 0 0 1 11.414 5l1.336 -2 1.336 2a9.907 9.907 0 0 1 1.664 5.5" fill="none" stroke="#000000" stroke-linecap="round" stroke-linejoin="round" stroke-width="1"></path><path d="M17.25 15a2.25 2.25 0 0 0 0 -4.5H3" fill="none" stroke="#000000" stroke-linecap="round" stroke-linejoin="round" stroke-width="1"></path><path d="M0.75 12.75A2.25 2.25 0 1 1 3 15h14.25" fill="none" stroke="#000000" stroke-linecap="round" stroke-linejoin="round" stroke-width="1"></path><path d="M19.5 12.75h2.25a1.5 1.5 0 0 1 0 3" fill="none" stroke="#000000" stroke-linecap="round" stroke-linejoin="round" stroke-width="1"></path></svg>