<svg viewBox="0 0 24 24" xmlns="http://www.w3.org/2000/svg" id="Seafood-Salmon--Streamline-Ultimate"><desc>Seafood Salmon Streamline Icon: https://streamlinehq.com</desc><path d="M0.744 12.023a5.25 6.75 0 1 0 10.5 0 5.25 6.75 0 1 0 -10.5 0Z" fill="none" stroke="#000000" stroke-linecap="round" stroke-linejoin="round" stroke-width="1"></path><path d="M3.744 12.023a2.25 3.75 0 1 0 4.5 0 2.25 3.75 0 1 0 -4.5 0Z" fill="none" stroke="#000000" stroke-linecap="round" stroke-linejoin="round" stroke-width="1"></path><path d="M5.994 18.773c5.25 0 11.3 -1.692 13.5 -6 -2.2 -4.308 -8.373 -8 -13.5 -7.5" fill="none" stroke="#000000" stroke-linecap="round" stroke-linejoin="round" stroke-width="1"></path><path d="M22.331 11.407a4.608 4.608 0 0 1 -2.831 1.366 4.828 4.828 0 0 1 0.922 -3.057 4.608 4.608 0 0 1 2.831 -1.366 4.828 4.828 0 0 1 -0.922 3.057Z" fill="none" stroke="#000000" stroke-linecap="round" stroke-linejoin="round" stroke-width="1"></path><path d="M22.331 14.138a4.61 4.61 0 0 0 -2.831 -1.365 4.829 4.829 0 0 0 0.922 3.057 4.61 4.61 0 0 0 2.831 1.37 4.828 4.828 0 0 0 -0.922 -3.062Z" fill="none" stroke="#000000" stroke-linecap="round" stroke-linejoin="round" stroke-width="1"></path></svg>