<svg viewBox="0 0 24 24" xmlns="http://www.w3.org/2000/svg" id="Notes-Flip-1--Streamline-Ultimate"><desc>Notes Flip 1 Streamline Icon: https://streamlinehq.com</desc><path d="M14.689 19.811a1.5 1.5 0 0 1 -1.06 0.439H2.25a1.5 1.5 0 0 1 -1.5 -1.5v-15a1.5 1.5 0 0 1 1.5 -1.5h16.5a1.5 1.5 0 0 1 1.5 1.5v9.879a1.5 1.5 0 0 1 -0.439 1.06Z" fill="none" stroke="#000000" stroke-linecap="round" stroke-linejoin="round" stroke-width="1"></path><path d="m5.25 0.75 0 3" fill="none" stroke="#000000" stroke-linecap="round" stroke-linejoin="round" stroke-width="1"></path><path d="m15.75 0.75 0 3" fill="none" stroke="#000000" stroke-linecap="round" stroke-linejoin="round" stroke-width="1"></path><path d="M20.115 14.25H15.75a1.5 1.5 0 0 0 -1.5 1.5v4.365" fill="none" stroke="#000000" stroke-linecap="round" stroke-linejoin="round" stroke-width="1"></path><path d="M23.25 10.5v11.25a1.5 1.5 0 0 1 -1.5 1.5h-15" fill="none" stroke="#000000" stroke-linecap="round" stroke-linejoin="round" stroke-width="1"></path></svg>