<svg xmlns="http://www.w3.org/2000/svg" fill="none" viewBox="0 0 24 24" id="Notes-Warning--Streamline-Ultimate"><desc>Notes Warning Streamline Icon: https://streamlinehq.com</desc><path stroke="#000000" d="M17.25 21.0004c-0.2071 0 -0.375 -0.1679 -0.375 -0.375s0.1679 -0.375 0.375 -0.375" stroke-width="1"></path><path stroke="#000000" d="M17.25 21.0004c0.2071 0 0.375 -0.1679 0.375 -0.375s-0.1679 -0.375 -0.375 -0.375" stroke-width="1"></path><path stroke="#000000" stroke-linecap="round" stroke-linejoin="round" d="M17.25 18v-3" stroke-width="1"></path><path stroke="#000000" stroke-linecap="round" stroke-linejoin="round" d="M23.063 20.682c0.1354 0.2705 0.1994 0.5711 0.1858 0.8733 -0.0135 0.3022 -0.1041 0.5959 -0.2631 0.8533 -0.159 0.2573 -0.3812 0.4697 -0.6455 0.617 -0.2642 0.1472 -0.5617 0.2245 -0.8642 0.2244h-8.452c-0.3025 0.0001 -0.6 -0.0772 -0.8642 -0.2244 -0.2643 -0.1473 -0.4865 -0.3597 -0.6455 -0.617 -0.159 -0.2574 -0.2496 -0.5511 -0.2631 -0.8533 -0.0136 -0.3022 0.0504 -0.6028 0.1858 -0.8733l4.226 -8.451c0.1473 -0.2949 0.3738 -0.5428 0.6541 -0.7161s0.6033 -0.2651 0.9329 -0.2651 0.6526 0.0918 0.9329 0.2651 0.5068 0.4212 0.6541 0.7161l4.226 8.451Z" stroke-width="1"></path><path stroke="#000000" stroke-linecap="round" stroke-linejoin="round" d="M8.25 20.25h-6c-0.19833 0.0049 -0.3956 -0.0305 -0.57982 -0.1041s-0.35155 -0.184 -0.49184 -0.3242c-0.14028 -0.1403 -0.250591 -0.3077 -0.324225 -0.4919C0.780482 19.1456 0.74506 18.9483 0.75 18.75V3.857c-0.013767 -0.4119 0.136439 -0.81244 0.41766 -1.11371 0.28121 -0.30128 0.67047 -0.47869 1.08234 -0.49329h15c0.4119 0.0146 0.8011 0.19201 1.0823 0.49329 0.2813 0.30127 0.4315 0.70181 0.4177 1.11371V8.25" stroke-width="1"></path><path stroke="#000000" stroke-linecap="round" stroke-linejoin="round" d="M5.25 0.75v4.5" stroke-width="1"></path><path stroke="#000000" stroke-linecap="round" stroke-linejoin="round" d="M9.75 0.75v4.5" stroke-width="1"></path><path stroke="#000000" stroke-linecap="round" stroke-linejoin="round" d="M14.25 0.75v4.5" stroke-width="1"></path></svg>