<svg xmlns="http://www.w3.org/2000/svg" viewBox="0 0 24 24" id="Notes-Module--Streamline-Ultimate"><desc>Notes Module Streamline Icon: https://streamlinehq.com</desc><defs></defs><title>notes-module</title><path d="M15.25 11.25h2.5s1 0 1 1v2.5s0 1 -1 1h-2.5s-1 0 -1 -1v-2.5s0 -1 1 -1" fill="none" stroke="#000000" stroke-linecap="round" stroke-linejoin="round" stroke-width="1"></path><path d="M19.75 18.75h2.5s1 0 1 1v2.5s0 1 -1 1h-2.5s-1 0 -1 -1v-2.5s0 -1 1 -1" fill="none" stroke="#000000" stroke-linecap="round" stroke-linejoin="round" stroke-width="1"></path><path d="M10.75 18.75h2.5s1 0 1 1v2.5s0 1 -1 1h-2.5s-1 0 -1 -1v-2.5s0 -1 1 -1" fill="none" stroke="#000000" stroke-linecap="round" stroke-linejoin="round" stroke-width="1"></path><path d="M6.75 20.25h-4.5a1.464 1.464 0 0 1 -1.5 -1.5V3.857a1.556 1.556 0 0 1 1.5 -1.607h15a1.556 1.556 0 0 1 1.5 1.607V8.25" fill="none" stroke="#000000" stroke-linecap="round" stroke-linejoin="round" stroke-width="1"></path><path d="m5.25 0.75 0 4.5" fill="none" stroke="#000000" stroke-linecap="round" stroke-linejoin="round" stroke-width="1"></path><path d="m9.75 0.75 0 4.5" fill="none" stroke="#000000" stroke-linecap="round" stroke-linejoin="round" stroke-width="1"></path><path d="m14.25 0.75 0 4.5" fill="none" stroke="#000000" stroke-linecap="round" stroke-linejoin="round" stroke-width="1"></path></svg>