<svg xmlns="http://www.w3.org/2000/svg" viewBox="0 0 24 24" id="Notes-Calendar--Streamline-Ultimate"><desc>Notes Calendar Streamline Icon: https://streamlinehq.com</desc><defs></defs><title>notes-calendar</title><path d="M2.251 2.25H21.75s1.5 0 1.5 1.5v18s0 1.5 -1.5 1.5H2.251s-1.5 0 -1.5 -1.5v-18s0 -1.5 1.5 -1.5" fill="none" stroke="#000000" stroke-linecap="round" stroke-linejoin="round" stroke-width="1"></path><path d="m6.751 0.75 0 3" fill="none" stroke="#000000" stroke-linecap="round" stroke-linejoin="round" stroke-width="1"></path><path d="m17.249 0.75 0 3" fill="none" stroke="#000000" stroke-linecap="round" stroke-linejoin="round" stroke-width="1"></path><path d="M19.5 6.75v8.379a1.5 1.5 0 0 1 -0.44 1.06l-3.62 3.622a1.5 1.5 0 0 1 -1.061 0.439H5.251V6.75Z" fill="none" stroke="#000000" stroke-linecap="round" stroke-linejoin="round" stroke-width="1"></path><path d="M19.5 14.25h-3.75a1.5 1.5 0 0 0 -1.5 1.5v4.5" fill="none" stroke="#000000" stroke-linecap="round" stroke-linejoin="round" stroke-width="1"></path></svg>