<svg xmlns="http://www.w3.org/2000/svg" fill="none" viewBox="0 0 24 24" id="Notes-Give-1--Streamline-Ultimate"><desc>Notes Give 1 Streamline Icon: https://streamlinehq.com</desc><path stroke="#000000" stroke-linecap="round" stroke-linejoin="round" d="M9.75 12V3.857c-0.0135 -0.41183 0.13679 -0.81221 0.418 -1.11343 0.2811 -0.30122 0.6702 -0.47871 1.082 -0.49357h10.5c0.4118 0.01486 0.8009 0.19235 1.082 0.49357 0.2812 0.30122 0.4315 0.7016 0.418 1.11343v8.786c0.0135 0.4118 -0.1368 0.8122 -0.418 1.1134 -0.2811 0.3013 -0.6702 0.4787 -1.082 0.4936h-6" stroke-width="1"></path><path stroke="#000000" stroke-linecap="round" stroke-linejoin="round" d="M14.25 0.75v4.5" stroke-width="1"></path><path stroke="#000000" stroke-linecap="round" stroke-linejoin="round" d="M18.75 0.75v4.5" stroke-width="1"></path><path stroke="#000000" stroke-linecap="round" stroke-linejoin="round" d="M0.75 14.25h3c0.39782 0 0.77936 0.158 1.06066 0.4393 0.2813 0.2813 0.43934 0.6629 0.43934 1.0607v6c0 0.3978 -0.15804 0.7794 -0.43934 1.0607S4.14782 23.25 3.75 23.25h-3" stroke-width="1"></path><path stroke="#000000" stroke-linecap="round" stroke-linejoin="round" d="M20.25 21.75c0 -0.7956 -0.3161 -1.5587 -0.8787 -2.1213 -0.5626 -0.5626 -1.3257 -0.8787 -2.1213 -0.8787H13.5c0 -0.7956 -0.3161 -1.5587 -0.8787 -2.1213 -0.5626 -0.5626 -1.3257 -0.8787 -2.1213 -0.8787H5.25v6h15Z" stroke-width="1"></path><path stroke="#000000" stroke-linecap="round" stroke-linejoin="round" d="M10.5 18.75h3" stroke-width="1"></path><path stroke="#000000" d="M2.625 20.25c-0.20711 0 -0.375 -0.1679 -0.375 -0.375s0.16789 -0.375 0.375 -0.375" stroke-width="1"></path><path stroke="#000000" d="M2.625 20.25c0.20711 0 0.375 -0.1679 0.375 -0.375s-0.16789 -0.375 -0.375 -0.375" stroke-width="1"></path></svg>