<svg viewBox="0 0 24 24" xmlns="http://www.w3.org/2000/svg" id="Farmer-S-Market-Vendor--Streamline-Ultimate"><desc>Farmer S Market Vendor Streamline Icon: https://streamlinehq.com</desc><path d="m0.75 18.75 22.5 0" fill="none" stroke="#000000" stroke-linecap="round" stroke-linejoin="round" stroke-width="1"></path><path d="M12.375 10.875a2.625 2.625 0 1 0 5.25 0 2.625 2.625 0 1 0 -5.25 0Z" fill="none" stroke="#000000" stroke-linecap="round" stroke-linejoin="round" stroke-width="1"></path><path d="M10.5 18.75a4.5 4.5 0 0 1 9 0" fill="none" stroke="#000000" stroke-linecap="round" stroke-linejoin="round" stroke-width="1"></path><path d="m6 14.25 0 4.5" fill="none" stroke="#000000" stroke-linecap="round" stroke-linejoin="round" stroke-width="1"></path><path d="m3.75 11.25 4.5 0 0 3 -4.5 0Z" fill="none" stroke="#000000" stroke-linecap="round" stroke-linejoin="round" stroke-width="1"></path><path d="M0.75 23.25V8.349a1.5 1.5 0 0 1 0.728 -1.286L11.164 1a1.5 1.5 0 0 1 1.672 0l9.686 6.058a1.5 1.5 0 0 1 0.728 1.286v14.9" fill="none" stroke="#000000" stroke-linecap="round" stroke-linejoin="round" stroke-width="1"></path></svg>