<svg xmlns="http://www.w3.org/2000/svg" viewBox="0 0 24 24" id="Airbrush--Streamline-Ultimate"><desc>Airbrush Streamline Icon: https://streamlinehq.com</desc><defs></defs><title>airbrush</title><path d="m8.445 11.051 3.413 -4.207a3.5 3.5 0 0 1 0.424 -3.724L14.168 0.8a6.48 6.48 0 0 1 5.417 4.4L17.7 7.52a3.492 3.492 0 0 1 -3.52 1.189l-2.069 2.342h9.127a2.012 2.012 0 0 1 2.012 2.013v0.784a2.012 2.012 0 0 1 -2.012 2.013H19.7l2.389 7.34h-4.543l-2.195 -7.34H5.326L2 13.456l3.327 -2.4h3.118" fill="none" stroke="#000000" stroke-linecap="round" stroke-linejoin="round" stroke-width="1"></path><path d="M12.362 15.861a2.556 2.556 0 0 1 -1.207 3.465s3.329 1.933 4.832 -1.316" fill="none" stroke="#000000" stroke-linecap="round" stroke-linejoin="round" stroke-width="1"></path><path d="m1.998 13.456 -1.248 0" fill="none" stroke="#000000" stroke-linecap="round" stroke-linejoin="round" stroke-width="1"></path><path d="m8.445 11.051 4.179 0" fill="none" stroke="#000000" stroke-linecap="round" stroke-linejoin="round" stroke-width="1"></path><path d="m19.7 11.051 0 4.81" fill="none" stroke="#000000" stroke-linecap="round" stroke-linejoin="round" stroke-width="1"></path></svg>