<svg xmlns="http://www.w3.org/2000/svg" viewBox="0 0 24 24" id="Ceramic-Making--Streamline-Ultimate"><desc>Ceramic Making Streamline Icon: https://streamlinehq.com</desc><defs></defs><title>ceramic-making</title><path d="M3.717 22.1s5.381 1.576 7.8 0.984a2.619 2.619 0 0 0 1.9 -1.818l0.539 -1.826a0.656 0.656 0 0 0 -0.45 -0.811c-0.029 -0.009 -3.3 -0.552 -3.3 -0.552 0.5 -0.8 0.346 -3.012 -2.686 -2.369 0 0 -4.17 0.6 -5.672 -0.8" fill="none" stroke="#000000" stroke-linecap="round" stroke-linejoin="round" stroke-width="1"></path><path d="M22.162 9.49v3.9a6.024 6.024 0 0 1 -0.776 2.958l-1.061 1.88a6.024 6.024 0 0 0 -0.776 2.958v2.064" fill="none" stroke="#000000" stroke-linecap="round" stroke-linejoin="round" stroke-width="1"></path><path d="m7.107 10.832 0.003 2.563" fill="none" stroke="#000000" stroke-linecap="round" stroke-linejoin="round" stroke-width="1"></path><path d="M14.2 11.583S13.835 3.992 12.1 0.75" fill="none" stroke="#000000" stroke-linecap="round" stroke-linejoin="round" stroke-width="1"></path><path d="M5.349 0.75c1.189 1.686 1.7 3.53 1.489 3.667l-1.206 0.457A3.086 3.086 0 0 0 3.611 7.69v3.142a1.758 1.758 0 0 0 1.758 1.759h0a1.741 1.741 0 0 0 1.738 -1.759V9.49" fill="none" stroke="#000000" stroke-linecap="round" stroke-linejoin="round" stroke-width="1"></path><path d="M15.049 15.705a38.251 38.251 0 0 0 6.9 -0.71" fill="none" stroke="#000000" stroke-linecap="round" stroke-linejoin="round" stroke-width="1"></path><path d="M16.738 20.27c0.962 -0.054 1.969 -0.15 2.932 -0.277" fill="none" stroke="#000000" stroke-linecap="round" stroke-linejoin="round" stroke-width="1"></path><path d="M13.8 7.406c0.273 -0.008 0.552 -0.012 0.834 -0.012 4.157 0 7.527 0.938 7.527 2.1s-3.37 2.1 -7.527 2.1 -7.528 -0.939 -7.528 -2.1" fill="none" stroke="#000000" stroke-linecap="round" stroke-linejoin="round" stroke-width="1"></path></svg>