<svg xmlns="http://www.w3.org/2000/svg" viewBox="0 0 24 24" id="Cookies-Decirating-1--Streamline-Ultimate"><desc>Cookies Decirating 1 Streamline Icon: https://streamlinehq.com</desc><defs></defs><title>cookies-decirating-1</title><path d="m15.68 10.897 2.818 2.874" fill="none" stroke="#000000" stroke-linecap="round" stroke-linejoin="round" stroke-width="1"></path><path d="M16.124 18.33a8.183 8.183 0 1 1 -2.1 -10.312" fill="none" stroke="#000000" stroke-linecap="round" stroke-linejoin="round" stroke-width="1"></path><path d="m20.182 1.392 -3.068 4.091 0 3.33 -4.091 5.948 1.432 1.461 6.75 -4.091 2.045 -0.512" fill="none" stroke="#000000" stroke-linecap="round" stroke-linejoin="round" stroke-width="1"></path><path d="M4.33 12.381a1.534 1.534 0 1 0 3.068 0 1.534 1.534 0 1 0 -3.068 0" fill="none" stroke="#000000" stroke-linecap="round" stroke-linejoin="round" stroke-width="1"></path><path d="M10.977 13.524A1.534 1.534 0 0 1 12 10.847" fill="none" stroke="#000000" stroke-linecap="round" stroke-linejoin="round" stroke-width="1"></path><path d="M12 17.856a4.6 4.6 0 0 1 -6.5 -0.356" fill="none" stroke="#000000" stroke-linecap="round" stroke-linejoin="round" stroke-width="1"></path></svg>