<svg viewBox="0 0 24 24" xmlns="http://www.w3.org/2000/svg" id="Crafts-Calligraphy--Streamline-Ultimate"><desc>Crafts Calligraphy Streamline Icon: https://streamlinehq.com</desc><path d="M9.065 18a4.507 4.507 0 0 1 -2.274 3.156L4.5 22.336v-6.883a3.033 3.033 0 0 1 1.622 -2.7l2.943 -1.632Z" fill="none" stroke="#000000" stroke-linecap="round" stroke-linejoin="round" stroke-width="1"></path><path d="m9.065 11.118 2.185 -1.125" fill="none" stroke="#000000" stroke-linecap="round" stroke-linejoin="round" stroke-width="1"></path><path d="m4.5 22.336 -1.691 0.754a1.4 1.4 0 0 1 -2.035 -0.935 1.52 1.52 0 0 1 -0.024 -0.272" fill="none" stroke="#000000" stroke-linecap="round" stroke-linejoin="round" stroke-width="1"></path><path d="m18.75 0.75 -2.518 1.079a1.275 1.275 0 0 0 -0.752 0.949L14.25 9.75l6.972 -1.23a1.275 1.275 0 0 0 0.949 -0.752L23.25 5.25" fill="none" stroke="#000000" stroke-linecap="round" stroke-linejoin="round" stroke-width="1"></path><path d="M14.25 9.75 19.2 4.8" fill="none" stroke="#000000" stroke-linecap="round" stroke-linejoin="round" stroke-width="1"></path></svg>