<svg xmlns="http://www.w3.org/2000/svg" viewBox="0 0 24 24" id="Crafts-Pottery--Streamline-Ultimate"><desc>Crafts Pottery Streamline Icon: https://streamlinehq.com</desc><g><g><g><path d="m3.86 23.24 -2.12 -2.52a4.5 4.5 0 0 1 -1 -2.81v-5.17a1.5 1.5 0 0 1 1.5 -1.5h0a1.5 1.5 0 0 1 1.5 1.5v3.89" fill="none" stroke="#000000" stroke-linecap="round" stroke-linejoin="round" stroke-width="1"></path><path d="M8.25 23.24V20.1a4.46 4.46 0 0 0 -0.76 -2.5l-1.14 -1.71a1.4 1.4 0 0 0 -2 -0.44h0a1.4 1.4 0 0 0 -0.47 1.79l1.35 2.25" fill="none" stroke="#000000" stroke-linecap="round" stroke-linejoin="round" stroke-width="1"></path></g><g><path d="m20.13 23.24 2.13 -2.52a4.5 4.5 0 0 0 1 -2.81v-5.17a1.5 1.5 0 0 0 -1.5 -1.5h0a1.5 1.5 0 0 0 -1.5 1.5v3.86" fill="none" stroke="#000000" stroke-linecap="round" stroke-linejoin="round" stroke-width="1"></path><path d="M15.75 23.24V20.1a4.46 4.46 0 0 1 0.76 -2.5l1.14 -1.71a1.4 1.4 0 0 1 2 -0.44h0a1.4 1.4 0 0 1 0.47 1.79l-1.35 2.25" fill="none" stroke="#000000" stroke-linecap="round" stroke-linejoin="round" stroke-width="1"></path></g></g><path d="M6.92 2.52a5.08 1.78 0 1 0 10.16 0 5.08 1.78 0 1 0 -10.16 0" fill="none" stroke="#000000" stroke-linecap="round" stroke-linejoin="round" stroke-width="1"></path><path d="M6.92 2.52a4.62 4.62 0 0 0 0.34 1.75 1.74 1.74 0 0 1 -0.2 1.65A5.59 5.59 0 0 0 6 9.2a5.9 5.9 0 0 0 6 5.8 5.9 5.9 0 0 0 6 -5.8 5.59 5.59 0 0 0 -1.06 -3.28 1.74 1.74 0 0 1 -0.2 -1.65 4.62 4.62 0 0 0 0.34 -1.75" fill="none" stroke="#000000" stroke-linecap="round" stroke-linejoin="round" stroke-width="1"></path></g></svg>