<svg viewBox="0 0 24 24" xmlns="http://www.w3.org/2000/svg" id="Crafts-Model-Plane--Streamline-Ultimate"><desc>Crafts Model Plane Streamline Icon: https://streamlinehq.com</desc><path d="m7.117 10.921 0.858 -5.939 10.392 1.5 2.125 -2.118a1.5 1.5 0 0 1 2.544 1.276l-0.353 2.444a3 3 0 0 1 -2.265 2.487l-3.611 1.314a6.008 6.008 0 0 1 -2.267 0.106Z" fill="none" stroke="#000000" stroke-linecap="round" stroke-linejoin="round" stroke-width="1"></path><path d="m1.608 7.094 2.969 0.428" fill="none" stroke="#000000" stroke-linecap="round" stroke-linejoin="round" stroke-width="1"></path><path d="m2.037 4.124 0.429 -2.969" fill="none" stroke="#000000" stroke-linecap="round" stroke-linejoin="round" stroke-width="1"></path><path d="m0.75 13.032 0.429 -2.969" fill="none" stroke="#000000" stroke-linecap="round" stroke-linejoin="round" stroke-width="1"></path><path d="M15.4 6.055A3 3 0 1 0 9.46 5.2Z" fill="none" stroke="#000000" stroke-linecap="round" stroke-linejoin="round" stroke-width="1"></path><path d="m7.975 4.982 -1.484 -0.214a1.5 1.5 0 0 0 -1.7 1.27l-0.428 2.969a1.5 1.5 0 0 0 1.27 1.7l1.484 0.215" fill="none" stroke="#000000" stroke-linecap="round" stroke-linejoin="round" stroke-width="1"></path><path d="M11.964 11.621 8.9 20.874a1.5 1.5 0 0 0 1.424 1.971H16.5" fill="none" stroke="#000000" stroke-linecap="round" stroke-linejoin="round" stroke-width="1"></path></svg>