<svg xmlns="http://www.w3.org/2000/svg" fill="none" viewBox="0 0 24 24" id="Embroidery-Hoop-1--Streamline-Ultimate"><desc>Embroidery Hoop 1 Streamline Icon: https://streamlinehq.com</desc><path stroke="#000000" stroke-linecap="round" stroke-linejoin="round" d="M18.6258 12.2678c0.3978 2.178 -0.032 4.4261 -1.2051 6.3038s-3.005 3.2498 -5.1368 3.8475c-2.1318 0.5978 -4.41003 0.378 -6.38833 -0.6161 -1.9783 -0.9942 -3.51416 -2.6911 -4.30674 -4.7584 -0.792586 -2.0673 -0.784782 -4.3561 0.02188 -6.418 0.80666 -2.06182 2.35406 -3.74824 4.3391 -4.72887 1.98503 -0.98063 4.26469 -1.18483 6.39239 -0.57258 2.1277 0.61224 3.9502 1.99681 5.1104 3.88249" stroke-width="1"></path><path stroke="#000000" stroke-linecap="round" stroke-linejoin="round" d="M11.8417 1v4.20111" stroke-width="1"></path><path stroke="#000000" stroke-linecap="round" stroke-linejoin="round" d="M8.09033 1v4.16689" stroke-width="1"></path><path stroke="#000000" stroke-linecap="round" stroke-linejoin="round" d="M6.13495 2.4411h7.82145" stroke-width="1"></path><path stroke="#000000" stroke-linecap="round" stroke-linejoin="round" d="m20.6184 5.23141 -5.3636 6.71669" stroke-width="1"></path><path stroke="#000000" stroke-linecap="round" stroke-linejoin="round" d="M21.5335 5.5521c0.8099 0 1.4665 -0.65659 1.4665 -1.46653 0 -0.80993 -0.6566 -1.46652 -1.4665 -1.46652 -0.81 0 -1.4665 0.65659 -1.4665 1.46652 0 0.80994 0.6565 1.46653 1.4665 1.46653Z" stroke-width="1"></path><path stroke="#000000" stroke-linecap="round" stroke-linejoin="round" d="M13.0179 12.3011c-0.001 -0.2663 -0.063 -0.5288 -0.1811 -0.7675 -0.1181 -0.2386 -0.2892 -0.4471 -0.5003 -0.6094 -0.2111 -0.1623 -0.4566 -0.2741 -0.7175 -0.3269 -0.261 -0.0529 -0.5306 -0.0453 -0.7882 0.0221 0.0077 -0.2282 -0.0296 -0.4558 -0.1099 -0.66965 -0.0802 -0.21385 -0.2018 -0.4098 -0.3578 -0.57667 -0.1559 -0.16686 -0.3433 -0.30137 -0.55121 -0.39585 -0.20795 -0.09447 -0.43248 -0.14706 -0.66076 -0.15477 -0.46103 -0.01556 -0.90936 0.15267 -1.24636 0.46767 -0.16686 0.15597 -0.30138 0.34328 -0.39585 0.55123 -0.09448 0.20794 -0.14707 0.43244 -0.15477 0.66074l0 0.1173c-0.41885 -0.1131 -0.86485 -0.0653 -1.2503 0.1338 -0.38545 0.1991 -0.68244 0.5352 -0.83259 0.9423 -0.15014 0.407 -0.14256 0.8555 0.02126 1.2572 0.16381 0.4018 0.47201 0.7277 0.86397 0.9136 -0.14501 0.3811 -0.15135 0.8011 -0.01791 1.1864 0.13345 0.3853 0.39817 0.7114 0.74783 0.9212 0.34965 0.2098 0.76196 0.2899 1.16473 0.2264 0.40278 -0.0636 0.77036 -0.2668 1.0384 -0.5741 0.26803 0.3073 0.63561 0.5105 1.03836 0.5741 0.4028 0.0635 0.8151 -0.0166 1.1648 -0.2264 0.3496 -0.2098 0.6143 -0.5359 0.7478 -0.9212 0.1334 -0.3853 0.1271 -0.8053 -0.0179 -1.1864 0.2966 -0.1405 0.5474 -0.362 0.7236 -0.6389 0.1761 -0.277 0.2703 -0.5981 0.2717 -0.9263Z" stroke-width="1"></path><path stroke="#000000" d="M9.091 19.9426c-0.20249 0 -0.36663 -0.1641 -0.36663 -0.3666 0 -0.2025 0.16414 -0.3666 0.36663 -0.3666" stroke-width="1"></path><path stroke="#000000" d="M9.09098 19.9426c0.20248 0 0.36663 -0.1641 0.36663 -0.3666 0 -0.2025 -0.16415 -0.3666 -0.36663 -0.3666" stroke-width="1"></path><path stroke="#000000" d="M9.091 13.2547c-0.20249 0 -0.36663 -0.1641 -0.36663 -0.3666 0 -0.2025 0.16414 -0.3666 0.36663 -0.3666" stroke-width="1"></path><path stroke="#000000" d="M9.09098 13.2547c0.20248 0 0.36663 -0.1641 0.36663 -0.3666 0 -0.2025 -0.16415 -0.3666 -0.36663 -0.3666" stroke-width="1"></path><path stroke="#000000" d="M13.3454 18.5983c-0.2025 0 -0.3667 -0.1641 -0.3667 -0.3666 0 -0.2025 0.1642 -0.3666 0.3667 -0.3666" stroke-width="1"></path><path stroke="#000000" d="M13.3454 18.5983c0.2025 0 0.3666 -0.1641 0.3666 -0.3666 0 -0.2025 -0.1641 -0.3666 -0.3666 -0.3666" stroke-width="1"></path></svg>