<svg xmlns="http://www.w3.org/2000/svg" viewBox="0 0 24 24" id="Ginger-Bread-House--Streamline-Ultimate"><desc>Ginger Bread House Streamline Icon: https://streamlinehq.com</desc><defs></defs><title>ginger-bread-house</title><path d="m16.9 15.5 -1.4 -1.428 2.513 -3.865 2.8 2.856L16.9 15.5z" fill="none" stroke="#000000" stroke-linecap="round" stroke-linejoin="round" stroke-width="1"></path><path d="M20.813 13.063 23 12.5" fill="none" stroke="#000000" stroke-linecap="round" stroke-linejoin="round" stroke-width="1"></path><path d="M18.013 10.207 19.5 8.5l0 -3.5 3 -4" fill="none" stroke="#000000" stroke-linecap="round" stroke-linejoin="round" stroke-width="1"></path><path d="m16.277 7.422 -3.813 -3.293a2 2 0 0 0 -2.614 0L7.157 6.455V6a1 1 0 0 0 -1 -1h-1.5a1 1 0 0 0 -1 1v3.477l-2.483 2.145a0.5 0.5 0 0 0 0.326 0.878h1.657V21a2 2 0 0 0 2 2h12a2 2 0 0 0 2 -2v-2.717" fill="none" stroke="#000000" stroke-linecap="round" stroke-linejoin="round" stroke-width="1"></path><path d="M14.442 9.956 11.826 7.6a1 1 0 0 0 -1.338 0l-4 3.6a1 1 0 0 0 -0.331 0.743V19a1 1 0 0 0 1 1h8a1 1 0 0 0 1 -1v-0.682" fill="none" stroke="#000000" stroke-linecap="round" stroke-linejoin="round" stroke-width="1"></path></svg>