<svg xmlns="http://www.w3.org/2000/svg" viewBox="0 0 24 24" id="Glass-Blowing-1--Streamline-Ultimate"><desc>Glass Blowing 1 Streamline Icon: https://streamlinehq.com</desc><defs></defs><title>glass-blowing-1</title><path d="m11.864 20.245 0 3.005" fill="none" stroke="#000000" stroke-linecap="round" stroke-linejoin="round" stroke-width="1"></path><path d="M17.192 19.507A9.5 9.5 0 0 0 19.77 6.16l-2.7 2.966A12.032 12.032 0 0 1 17.39 0.75a12.077 12.077 0 0 0 -10 6.291l-2.154 -2.1a9.513 9.513 0 0 0 1.637 14.628" fill="none" stroke="#000000" stroke-linecap="round" stroke-linejoin="round" stroke-width="1"></path><path d="M16.386 13.543a4.522 4.522 0 1 0 -6.6 3.994c-0.161 0.757 -0.342 2.708 2.08 2.708s2.242 -1.951 2.08 -2.708a4.5 4.5 0 0 0 2.44 -3.994Z" fill="none" stroke="#000000" stroke-linecap="round" stroke-linejoin="round" stroke-width="1"></path></svg>