<svg xmlns="http://www.w3.org/2000/svg" viewBox="0 0 24 24" id="Glass-Blowing-3--Streamline-Ultimate"><desc>Glass Blowing 3 Streamline Icon: https://streamlinehq.com</desc><defs></defs><title>glass-blowing-3</title><path d="M20.959 14.1A7.823 7.823 0 1 0 7.7 9.765l-0.97 0.971a1.776 1.776 0 0 0 0 2.511l-0.559 0.56a2.841 2.841 0 0 0 4.018 4.018l0.56 -0.559a1.776 1.776 0 0 0 2.511 0l0.971 -0.97a7.8 7.8 0 0 0 6.728 -2.196Z" fill="none" stroke="#000000" stroke-linecap="round" stroke-linejoin="round" stroke-width="1"></path><path d="m10.753 17.266 -1.57 -1.569" fill="none" stroke="#000000" stroke-linecap="round" stroke-linejoin="round" stroke-width="1"></path><path d="M6.175 17.825 0.75 23.25" fill="none" stroke="#000000" stroke-linecap="round" stroke-linejoin="round" stroke-width="1"></path><path d="M12.626 4.738a4.163 4.163 0 0 1 5.886 0" fill="none" stroke="#000000" stroke-linecap="round" stroke-linejoin="round" stroke-width="1"></path></svg>