<svg xmlns="http://www.w3.org/2000/svg" viewBox="0 0 24 24" id="Handmade-Bag-2--Streamline-Ultimate"><desc>Handmade Bag 2 Streamline Icon: https://streamlinehq.com</desc><defs></defs><title>handmade-bag-2</title><path d="M9 7.25H3.087a2 2 0 0 0 -1.976 2.309l1.478 9.463a5 5 0 0 0 4.94 4.228h8.942a5 5 0 0 0 4.94 -4.228l1.478 -9.463a2 2 0 0 0 -1.976 -2.309H15" fill="none" stroke="#000000" stroke-linecap="round" stroke-linejoin="round" stroke-width="1"></path><path d="M5.5 7.25a6.5 6.5 0 1 0 13 0 6.5 6.5 0 1 0 -13 0" fill="none" stroke="#000000" stroke-linecap="round" stroke-linejoin="round" stroke-width="1"></path><path d="M9 7.25a3 3 0 1 0 6 0 3 3 0 1 0 -6 0" fill="none" stroke="#000000" stroke-linecap="round" stroke-linejoin="round" stroke-width="1"></path><path d="m6.97 11.367 -4.91 4.264" fill="none" stroke="#000000" stroke-linecap="round" stroke-linejoin="round" stroke-width="1"></path><path d="m10.12 13.474 -2.837 9.77" fill="none" stroke="#000000" stroke-linecap="round" stroke-linejoin="round" stroke-width="1"></path><path d="m13.931 13.458 2.924 9.777" fill="none" stroke="#000000" stroke-linecap="round" stroke-linejoin="round" stroke-width="1"></path><path d="m17.063 11.326 4.896 4.183" fill="none" stroke="#000000" stroke-linecap="round" stroke-linejoin="round" stroke-width="1"></path></svg>