<svg xmlns="http://www.w3.org/2000/svg" viewBox="0 0 24 24" id="Handmade-Bag-1--Streamline-Ultimate"><desc>Handmade Bag 1 Streamline Icon: https://streamlinehq.com</desc><defs></defs><title>handmade-bag-1</title><path d="M3.25 8.75h17.5s1 0 1 1v12.5s0 1 -1 1H3.25s-1 0 -1 -1V9.75s0 -1 1 -1" fill="none" stroke="#000000" stroke-linecap="round" stroke-linejoin="round" stroke-width="1"></path><path d="M7.527 5.75v-0.527a4.473 4.473 0 1 1 8.946 0v0.527" fill="none" stroke="#000000" stroke-linecap="round" stroke-linejoin="round" stroke-width="1"></path><path d="m4.8 8.75 3.2 4L5 16" fill="none" stroke="#000000" stroke-linecap="round" stroke-linejoin="round" stroke-width="1"></path><path d="m5 16 3 3.25 -3.2 4" fill="none" stroke="#000000" stroke-linecap="round" stroke-linejoin="round" stroke-width="1"></path><path d="m11.2 23.25 -3.2 -4L11 16" fill="none" stroke="#000000" stroke-linecap="round" stroke-linejoin="round" stroke-width="1"></path><path d="m11 16 -3 -3.25 3.2 -4" fill="none" stroke="#000000" stroke-linecap="round" stroke-linejoin="round" stroke-width="1"></path><path d="m12.8 8.75 3.2 4L13 16" fill="none" stroke="#000000" stroke-linecap="round" stroke-linejoin="round" stroke-width="1"></path><path d="m13 16 3 3.25 -3.2 4" fill="none" stroke="#000000" stroke-linecap="round" stroke-linejoin="round" stroke-width="1"></path><path d="m19.2 23.25 -3.2 -4L19 16" fill="none" stroke="#000000" stroke-linecap="round" stroke-linejoin="round" stroke-width="1"></path><path d="m19 16 -3 -3.25 3.2 -4" fill="none" stroke="#000000" stroke-linecap="round" stroke-linejoin="round" stroke-width="1"></path></svg>