<svg xmlns="http://www.w3.org/2000/svg" viewBox="0 0 24 24" id="Knitting-Loom-2--Streamline-Ultimate"><desc>Knitting Loom 2 Streamline Icon: https://streamlinehq.com</desc><defs></defs><title>knitting-loom-2</title><path d="M19.778 4.222a2 2 0 0 1 0 2.828L7.05 19.778a2 2 0 0 1 -2.828 -2.828L16.95 4.222a2 2 0 0 1 2.828 0Z" fill="none" stroke="#000000" stroke-linecap="round" stroke-linejoin="round" stroke-width="1"></path><path d="m19.778 4.222 2.121 -2.121" fill="none" stroke="#000000" stroke-linecap="round" stroke-linejoin="round" stroke-width="1"></path><path d="m21.192 1.393 1.415 1.415" fill="none" stroke="#000000" stroke-linecap="round" stroke-linejoin="round" stroke-width="1"></path><path d="m4.222 19.778 -2.121 2.121" fill="none" stroke="#000000" stroke-linecap="round" stroke-linejoin="round" stroke-width="1"></path><path d="m1.393 21.192 1.415 1.415" fill="none" stroke="#000000" stroke-linecap="round" stroke-linejoin="round" stroke-width="1"></path><path d="m4.222 16.95 -2.121 -2.122" fill="none" stroke="#000000" stroke-linecap="round" stroke-linejoin="round" stroke-width="1"></path><path d="m2.808 14.121 -1.415 1.415" fill="none" stroke="#000000" stroke-linecap="round" stroke-linejoin="round" stroke-width="1"></path><path d="m8.464 12.707 -2.121 -2.121" fill="none" stroke="#000000" stroke-linecap="round" stroke-linejoin="round" stroke-width="1"></path><path d="m7.05 9.879 -1.414 1.414" fill="none" stroke="#000000" stroke-linecap="round" stroke-linejoin="round" stroke-width="1"></path><path d="m12.707 8.464 -2.121 -2.121" fill="none" stroke="#000000" stroke-linecap="round" stroke-linejoin="round" stroke-width="1"></path><path d="M11.293 5.636 9.879 7.05" fill="none" stroke="#000000" stroke-linecap="round" stroke-linejoin="round" stroke-width="1"></path><path d="m16.95 4.222 -2.122 -2.121" fill="none" stroke="#000000" stroke-linecap="round" stroke-linejoin="round" stroke-width="1"></path><path d="m15.536 1.393 -1.415 1.415" fill="none" stroke="#000000" stroke-linecap="round" stroke-linejoin="round" stroke-width="1"></path></svg>