<svg xmlns="http://www.w3.org/2000/svg" fill="none" viewBox="0 0 24 24" id="Making-Slime-1--Streamline-Ultimate"><desc>Making Slime 1 Streamline Icon: https://streamlinehq.com</desc><path stroke="#000000" stroke-linecap="round" stroke-linejoin="round" d="M1.462 4.87402h6" stroke-width="1"></path><path stroke="#000000" stroke-linecap="round" stroke-linejoin="round" d="M4.462 1.87402v6" stroke-width="1"></path><path stroke="#000000" stroke-linecap="round" stroke-linejoin="round" d="M19.462 2.28802h2.829" stroke-width="1"></path><path stroke="#000000" stroke-linecap="round" stroke-linejoin="round" d="M20.876 0.874023V3.70202" stroke-width="1"></path><path stroke="#000000" d="M12 4.70203c-0.2761 0 -0.5 -0.22386 -0.5 -0.5 0 -0.27615 0.2239 -0.5 0.5 -0.5" stroke-width="1"></path><path stroke="#000000" d="M12 4.70203c0.2761 0 0.5 -0.22386 0.5 -0.5 0 -0.27615 -0.2239 -0.5 -0.5 -0.5" stroke-width="1"></path><path stroke="#000000" d="M18.291 9.37402c-0.2761 0 -0.5 -0.22385 -0.5 -0.5 0 -0.27614 0.2239 -0.5 0.5 -0.5" stroke-width="1"></path><path stroke="#000000" d="M18.291 9.37402c0.2761 0 0.5 -0.22385 0.5 -0.5 0 -0.27614 -0.2239 -0.5 -0.5 -0.5" stroke-width="1"></path><path stroke="#000000" d="M16.791 18.874c-0.2761 0 -0.5 -0.2238 -0.5 -0.5 0 -0.2761 0.2239 -0.5 0.5 -0.5" stroke-width="1"></path><path stroke="#000000" d="M16.791 18.874c0.2761 0 0.5 -0.2238 0.5 -0.5 0 -0.2761 -0.2239 -0.5 -0.5 -0.5" stroke-width="1"></path><path stroke="#000000" d="M7.041 17.374c-0.27614 0 -0.5 -0.2238 -0.5 -0.5 0 -0.2761 0.22386 -0.5 0.5 -0.5" stroke-width="1"></path><path stroke="#000000" d="M7.041 17.374c0.27614 0 0.5 -0.2238 0.5 -0.5 0 -0.2761 -0.22386 -0.5 -0.5 -0.5" stroke-width="1"></path><path stroke="#000000" stroke-linecap="round" stroke-linejoin="round" d="M16.437 13.3c0.0268 -0.1147 0.0442 -0.2315 0.052 -0.349 0 -1.734 -2.108 -3.14003 -4.709 -3.14003 -2.601 0 -4.71 1.40603 -4.71 3.14003 0.00764 0.1176 0.02537 0.2344 0.053 0.349 -4.247 0 -6.332 1.062 -6.332 3.318 0 2.256 2.718 3.611 9.223 3.611 0.7122 0.8975 1.6166 1.624 2.6467 2.1259 1.03 0.5018 2.1595 0.7664 3.3053 0.7741 4.292 0 7.243 -2.184 7.243 -5.023 0 -2.54 -1.109 -4.806 -6.772 -4.806Z" stroke-width="1"></path><path stroke="#000000" stroke-linecap="round" stroke-linejoin="round" d="M7.123 13.3c0.70064 0.6258 1.52093 1.1031 2.41128 1.4028 0.89032 0.2998 1.83222 0.4158 2.76872 0.3412" stroke-width="1"></path></svg>