<svg xmlns="http://www.w3.org/2000/svg" fill="none" viewBox="0 0 24 24" id="Pinata-2--Streamline-Ultimate"><desc>Pinata 2 Streamline Icon: https://streamlinehq.com</desc><path stroke="#000000" stroke-linecap="round" stroke-linejoin="round" d="M17.172 3.172H20" stroke-width="1"></path><path stroke="#000000" stroke-linecap="round" stroke-linejoin="round" d="M18.586 1.758v2.828" stroke-width="1"></path><path stroke="#000000" d="M21.5 8.85699c-0.2761 0 -0.5 -0.22385 -0.5 -0.5 0 -0.27614 0.2239 -0.5 0.5 -0.5" stroke-width="1"></path><path stroke="#000000" d="M21.5 8.85699c0.2761 0 0.5 -0.22385 0.5 -0.5 0 -0.27614 -0.2239 -0.5 -0.5 -0.5" stroke-width="1"></path><path stroke="#000000" stroke-linecap="round" stroke-linejoin="round" d="M14 11.881V0.835999" stroke-width="1"></path><path stroke="#000000" stroke-linecap="round" stroke-linejoin="round" d="m21.147 20.068 -2.154 -5.386c-0.1524 -0.7758 -0.5653 -1.4763 -1.1701 -1.9855 -0.6049 -0.5092 -1.3655 -0.7965 -2.1559 -0.8145h-5.449V9.33899c0 -3.279 -1.48199 -4.547 -2.97599 -4.547s-2.326 0.642 -5.142 2.334c-0.51372 0.30739 -0.8843 0.80626 -1.0302 1.38687 -0.145904 0.58062 -0.05518 1.19541 0.2522 1.70914 0.30739 0.5137 0.80626 0.8843 1.38687 1.0302 0.58062 0.1459 1.19541 0.0552 1.70913 -0.2522l0.341 -0.2c0.064 0.055 0.122 0.117 0.19 0.168v4.306c0 0.024 0.007 0.047 0.007 0.071l-2.068 4.645c-0.12704 0.2716 -0.19864 0.5659 -0.21064 0.8655 -0.01199 0.2996 0.03588 0.5987 0.1408 0.8796 0.10493 0.2809 0.2648 0.5381 0.47028 0.7565 0.20549 0.2184 0.45245 0.3936 0.72645 0.5155 0.27401 0.1218 0.56955 0.1878 0.86936 0.1941s0.59787 -0.0472 0.87674 -0.1575c0.27887 -0.1102 0.53297 -0.275 0.74742 -0.4846 0.21446 -0.2096 0.38498 -0.4598 0.50159 -0.7361l1.411 -3.173H15.667l0.049 0 1.24 3.1c0.1101 0.2752 0.2734 0.526 0.4804 0.7381 0.207 0.2121 0.4538 0.3813 0.7263 0.498 0.2724 0.1168 0.5652 0.1787 0.8616 0.1823 0.2963 0.0035 0.5905 -0.0513 0.8657 -0.1614 0.2752 -0.1101 0.526 -0.2734 0.7381 -0.4804 0.2121 -0.207 0.3813 -0.4538 0.4981 -0.7263 0.1167 -0.2724 0.1786 -0.5652 0.1822 -0.8616 0.0036 -0.2963 -0.0513 -0.5905 -0.1614 -0.8657v-0.005Z" stroke-width="1"></path><path stroke="#000000" stroke-linecap="round" stroke-linejoin="round" d="M18.053 12.922c2.82 -1.129 3.819 0.087 4.947 2.907" stroke-width="1"></path><path stroke="#000000" stroke-linecap="round" stroke-linejoin="round" d="m12.846 11.881 -1.692 6.769" stroke-width="1"></path><path stroke="#000000" stroke-linecap="round" stroke-linejoin="round" d="m16.415 11.966 -1.312 6.684" stroke-width="1"></path><path stroke="#000000" stroke-linecap="round" stroke-linejoin="round" d="m8.96399 5.48001 -0.883 -3.587" stroke-width="1"></path></svg>