<svg xmlns="http://www.w3.org/2000/svg" viewBox="0 0 24 24" id="Wood-Carving-3--Streamline-Ultimate"><desc>Wood Carving 3 Streamline Icon: https://streamlinehq.com</desc><defs></defs><title>wood-carving-3</title><path d="M13 15.489h8.75a1.5 1.5 0 0 1 1.5 1.5v4.764a1.5 1.5 0 0 1 -1.5 1.5H2.25a1.5 1.5 0 0 1 -1.5 -1.5v-4.764a1.5 1.5 0 0 1 1.5 -1.5h3" fill="none" stroke="#000000" stroke-linecap="round" stroke-linejoin="round" stroke-width="1"></path><path d="m7.5 17.739 3 0" fill="none" stroke="#000000" stroke-linecap="round" stroke-linejoin="round" stroke-width="1"></path><path d="M19.58 19.63a2.251 2.251 0 0 0 -4.16 0 1.446 1.446 0 0 1 -1.35 0.859h-3.32" fill="none" stroke="#000000" stroke-linecap="round" stroke-linejoin="round" stroke-width="1"></path><path d="m6.75 20.489 -2.25 0" fill="none" stroke="#000000" stroke-linecap="round" stroke-linejoin="round" stroke-width="1"></path><path d="M3 15.489h2.661A3.089 3.089 0 0 0 8.75 12.4v-0.6a2.632 2.632 0 0 0 -2.632 -2.633 2.259 2.259 0 0 0 -1.948 3.4" fill="none" stroke="#000000" stroke-linecap="round" stroke-linejoin="round" stroke-width="1"></path><path d="m23.222 2.686 -5.717 5.685 -3.151 -2.465L17.297 0.991" fill="none" stroke="#000000" stroke-linecap="round" stroke-linejoin="round" stroke-width="1"></path><path d="m15.93 7.138 -4.584 5.859" fill="none" stroke="#000000" stroke-linecap="round" stroke-linejoin="round" stroke-width="1"></path><path d="m3.75 4.18 1.125 0.737" fill="none" stroke="#000000" stroke-linecap="round" stroke-linejoin="round" stroke-width="1"></path><path d="m10.146 0.747 -0.396 0.88" fill="none" stroke="#000000" stroke-linecap="round" stroke-linejoin="round" stroke-width="1"></path><path d="M10.184 7.212 9.75 5.796" fill="none" stroke="#000000" stroke-linecap="round" stroke-linejoin="round" stroke-width="1"></path></svg>