<svg xmlns="http://www.w3.org/2000/svg" viewBox="0 0 24 24" id="Wood-Carving-Bowl-2--Streamline-Ultimate"><desc>Wood Carving Bowl 2 Streamline Icon: https://streamlinehq.com</desc><defs></defs><title>wood-carving-bowl-2</title><path d="M2.75 2.75h18.5a2 2 0 0 1 2 2v6.5a6 6 0 0 1 -6 6H6.75a6 6 0 0 1 -6 -6v-6.5a2 2 0 0 1 2 -2Z" fill="none" stroke="#000000" stroke-linecap="round" stroke-linejoin="round" stroke-width="1"></path><path d="M7 17.25h10l0 0v2a2 2 0 0 1 -2 2H9a2 2 0 0 1 -2 -2v-2l0 0Z" fill="none" stroke="#000000" stroke-linecap="round" stroke-linejoin="round" stroke-width="1"></path><path d="M3.26 16.127C5.526 17.494 10.811 12 16.156 12a8.287 8.287 0 0 1 5.922 2.79" fill="none" stroke="#000000" stroke-linecap="round" stroke-linejoin="round" stroke-width="1"></path><path d="M1.076 13.2c2.266 1.367 9.985 -5.448 15.33 -5.448A10.629 10.629 0 0 1 23.25 10" fill="none" stroke="#000000" stroke-linecap="round" stroke-linejoin="round" stroke-width="1"></path><path d="M0.75 9.46c2.662 1.1 9.776 -6.71 19.552 -6.71" fill="none" stroke="#000000" stroke-linecap="round" stroke-linejoin="round" stroke-width="1"></path></svg>