<svg xmlns="http://www.w3.org/2000/svg" viewBox="0 0 24 24" id="Wood-Carving-1--Streamline-Ultimate"><desc>Wood Carving 1 Streamline Icon: https://streamlinehq.com</desc><defs></defs><title>wood-carving-1</title><path d="m10.294 13.677 -2.691 2.691" fill="none" stroke="#000000" stroke-linecap="round" stroke-linejoin="round" stroke-width="1"></path><path d="M7.6 16.368a22.845 22.845 0 0 0 -6.145 1.2 1.034 1.034 0 0 0 -0.378 1.7l3.683 3.683a1.027 1.027 0 0 0 1.678 -0.327A21.466 21.466 0 0 0 7.6 16.368Z" fill="none" stroke="#000000" stroke-linecap="round" stroke-linejoin="round" stroke-width="1"></path><path d="M14.835 0.75a7.1 7.1 0 0 0 -3.9 3.9l0.325 0.325a3.165 3.165 0 0 1 0 4.476l-2.6 2.6 3.26 3.26 2.6 -2.6a3.165 3.165 0 0 1 4.476 0l0.325 0.325a5.236 5.236 0 0 0 3.9 -3.9A14.817 14.817 0 0 0 14.835 0.75Z" fill="none" stroke="#000000" stroke-linecap="round" stroke-linejoin="round" stroke-width="1"></path><path d="M10.937 4.648a20.481 20.481 0 0 1 8.386 8.386" fill="none" stroke="#000000" stroke-linecap="round" stroke-linejoin="round" stroke-width="1"></path></svg>