<svg xmlns="http://www.w3.org/2000/svg" viewBox="0 0 24 24" id="Ac-Cool--Streamline-Ultimate"><desc>Ac Cool Streamline Icon: https://streamlinehq.com</desc><g><path d="M3.75 0.75h16.5s3 0 3 3v4.5s0 3 -3 3H3.75s-3 0 -3 -3v-4.5s0 -3 3 -3" fill="none" stroke="#000000" stroke-linecap="round" stroke-linejoin="round" stroke-width="1"></path><path d="m5.25 4.25 13.5 0" fill="none" stroke="#000000" stroke-linecap="round" stroke-linejoin="round" stroke-width="1"></path><path d="M18.75 7.75H5.25a1.5 1.5 0 0 0 -1.5 1.5v2h16.5v-2a1.5 1.5 0 0 0 -1.5 -1.5Z" fill="none" stroke="#000000" stroke-linecap="round" stroke-linejoin="round" stroke-width="1"></path><path d="M5.25 14.25s-1.5 0 -1.5 2.25 1.5 2.25 1.5 4.5 -1.5 2.25 -1.5 2.25" fill="none" stroke="#000000" stroke-linecap="round" stroke-linejoin="round" stroke-width="1"></path><path d="M20.25 14.25s-1.5 0 -1.5 2.25 1.5 2.25 1.5 4.5 -1.5 2.25 -1.5 2.25" fill="none" stroke="#000000" stroke-linecap="round" stroke-linejoin="round" stroke-width="1"></path><g><path d="m12 15.75 0 6" fill="none" stroke="#000000" stroke-linecap="round" stroke-linejoin="round" stroke-width="1"></path><path d="m9.4 17.25 5.2 3" fill="none" stroke="#000000" stroke-linecap="round" stroke-linejoin="round" stroke-width="1"></path><path d="m9.4 20.25 5.2 -3" fill="none" stroke="#000000" stroke-linecap="round" stroke-linejoin="round" stroke-width="1"></path></g></g></svg>