<svg xmlns="http://www.w3.org/2000/svg" fill="none" viewBox="0 0 24 24" id="Ac-Heat--Streamline-Ultimate"><desc>Ac Heat Streamline Icon: https://streamlinehq.com</desc><path stroke="#000000" stroke-linecap="round" stroke-linejoin="round" d="M2.25 12.75c-0.39782 0 -0.77936 -0.158 -1.06066 -0.4393C0.908035 12.0294 0.75 11.6478 0.75 11.25v-7.5c0 -0.79565 0.31607 -1.55871 0.87868 -2.12132C2.19129 1.06607 2.95435 0.75 3.75 0.75h16.5c0.7956 0 1.5587 0.31607 2.1213 0.87868 0.5626 0.56261 0.8787 1.32567 0.8787 2.12132v7.5c0 0.3978 -0.158 0.7794 -0.4393 1.0607s-0.6629 0.4393 -1.0607 0.4393" stroke-width="1"></path><path stroke="#000000" stroke-linecap="round" stroke-linejoin="round" d="M0.75 9.75h22.5" stroke-width="1"></path><path stroke="#000000" d="M19.5 4.875c-0.2071 0 -0.375 -0.16789 -0.375 -0.375s0.1679 -0.375 0.375 -0.375" stroke-width="1"></path><path stroke="#000000" d="M19.5 4.875c0.2071 0 0.375 -0.16789 0.375 -0.375s-0.1679 -0.375 -0.375 -0.375" stroke-width="1"></path><path stroke="#000000" stroke-linecap="round" stroke-linejoin="round" d="M5.25 14.25v3c0 0.7956 -0.31607 1.5587 -0.87868 2.1213 -0.56261 0.5626 -1.32567 0.8787 -2.12132 0.8787" stroke-width="1"></path><path stroke="#000000" stroke-linecap="round" stroke-linejoin="round" d="M9.75 14.25v7.5c0 0.3978 -0.15804 0.7794 -0.43934 1.0607S8.64782 23.25 8.25 23.25" stroke-width="1"></path><path stroke="#000000" stroke-linecap="round" stroke-linejoin="round" d="M18.75 14.25v3c0 0.7956 0.3161 1.5587 0.8787 2.1213 0.5626 0.5626 1.3257 0.8787 2.1213 0.8787" stroke-width="1"></path><path stroke="#000000" stroke-linecap="round" stroke-linejoin="round" d="M14.25 14.25v7.5c0 0.3978 0.158 0.7794 0.4393 1.0607s0.6629 0.4393 1.0607 0.4393" stroke-width="1"></path></svg>