<svg xmlns="http://www.w3.org/2000/svg" viewBox="0 0 24 24" id="Rotate-Front--Streamline-Ultimate"><desc>Rotate Front Streamline Icon: https://streamlinehq.com</desc><g><g><path d="m16.5 0.76 -2.25 2.25 2.25 2.25" fill="none" stroke="#000000" stroke-linecap="round" stroke-linejoin="round" stroke-width="1"></path><path d="M18.75 7.51 21 9.76l2.25 -2.25" fill="none" stroke="#000000" stroke-linecap="round" stroke-linejoin="round" stroke-width="1"></path><path d="M14.25 3h1.69A5.06 5.06 0 0 1 21 8.07v1.69" fill="none" stroke="#000000" stroke-linecap="round" stroke-linejoin="round" stroke-width="1"></path></g><path d="M1.75 4.74h9.5s1 0 1 1v9.5s0 1 -1 1h-9.5s-1 0 -1 -1v-9.5s0 -1 1 -1" fill="none" stroke="#000000" stroke-linecap="round" stroke-linejoin="round" stroke-width="1"></path><path d="M12.25 10.74h5a1 1 0 0 1 1 1v10.51a1 1 0 0 1 -1 1H6.75a1 1 0 0 1 -1 -1v-6" fill="none" stroke="#000000" stroke-linecap="round" stroke-linejoin="round" stroke-width="1"></path><path d="M12.24 14h2.26a0.5 0.5 0 0 1 0.5 0.5v5a0.5 0.5 0 0 1 -0.5 0.5h-5a0.5 0.5 0 0 1 -0.5 -0.5v-3.26" fill="none" stroke="#000000" stroke-linecap="round" stroke-linejoin="round" stroke-width="1"></path></g></svg>