<svg xmlns="http://www.w3.org/2000/svg" viewBox="0 0 24 24" id="Adobe-Bridge-Logo--Streamline-Ultimate"><desc>Adobe Bridge Logo Streamline Icon: https://streamlinehq.com</desc><g><g><path d="M14.75 16.5v-6a3.9 3.9 0 0 1 2.5 -1" fill="none" stroke="#000000" stroke-linecap="round" stroke-linejoin="round" stroke-width="1"></path><path d="M11.25 9.75A2.25 2.25 0 0 1 9 12H6.75V7.5H9a2.25 2.25 0 0 1 2.25 2.25Z" fill="none" stroke="#000000" stroke-linecap="round" stroke-linejoin="round" stroke-width="1"></path><path d="M11.25 14.25A2.25 2.25 0 0 1 9 16.5H6.75V12H9a2.25 2.25 0 0 1 2.25 2.25Z" fill="none" stroke="#000000" stroke-linecap="round" stroke-linejoin="round" stroke-width="1"></path></g><path d="M1.75 0.75h20.5s1 0 1 1v20.5s0 1 -1 1H1.75s-1 0 -1 -1V1.75s0 -1 1 -1" fill="none" stroke="#000000" stroke-linecap="round" stroke-linejoin="round" stroke-width="1"></path></g></svg>