<svg xmlns="http://www.w3.org/2000/svg" fill="none" viewBox="0 0 24 24" id="Adobe-Photoshop-Logo--Streamline-Ultimate"><desc>Adobe Photoshop Logo Streamline Icon: https://streamlinehq.com</desc><path stroke="#000000" stroke-linecap="round" stroke-linejoin="round" d="M12 9c0 0.79565 -0.3161 1.5587 -0.8787 2.1213C10.5587 11.6839 9.79565 12 9 12H7V6h2c0.79565 0 1.5587 0.31607 2.1213 0.87868C11.6839 7.44129 12 8.20435 12 9Z" stroke-width="1"></path><path stroke="#000000" stroke-linecap="round" stroke-linejoin="round" d="M7 12v4" stroke-width="1"></path><path stroke="#000000" stroke-linecap="round" stroke-linejoin="round" d="M14 14.36c0.0663 0.5304 0.3406 1.0128 0.7626 1.341 0.2089 0.1625 0.4478 0.2822 0.703 0.3524 0.2552 0.0702 0.5218 0.0894 0.7844 0.0566 0.2627 -0.0329 0.5163 -0.1171 0.7463 -0.2479 0.2301 -0.1309 0.4322 -0.3058 0.5947 -0.5147 0.1625 -0.2089 0.2823 -0.4478 0.3524 -0.703 0.0702 -0.2553 0.0894 -0.5218 0.0566 -0.7844 0 -1.38 -2 -1.86 -2 -1.86s-2 -0.48 -2 -1.86c-0.0663 -0.53047 0.0808 -1.06552 0.409 -1.48748 0.3282 -0.42195 0.8106 -0.69625 1.341 -0.76256 0.5304 -0.0663 1.0655 0.08082 1.4874 0.40901 0.422 0.32819 0.6963 0.81056 0.7626 1.34099" stroke-width="1"></path><path stroke="#000000" stroke-linecap="round" stroke-linejoin="round" d="M22.25 0.75H1.75c-0.55228 0 -1 0.44772 -1 1v20.5c0 0.5523 0.44772 1 1 1h20.5c0.5523 0 1 -0.4477 1 -1V1.75c0 -0.55228 -0.4477 -1 -1 -1Z" stroke-width="1"></path></svg>