<svg xmlns="http://www.w3.org/2000/svg" viewBox="0 0 24 24" id="Creative-Commons-Logo--Streamline-Ultimate"><desc>Creative Commons Logo Streamline Icon: https://streamlinehq.com</desc><g><path d="M0.75 12a11.25 11.25 0 1 0 22.5 0 11.25 11.25 0 1 0 -22.5 0" fill="none" stroke="#000000" stroke-linecap="round" stroke-linejoin="round" stroke-width="1"></path><path d="M10.39 9.08A3.28 3.28 0 0 0 8 8a3.78 3.78 0 0 0 -3.5 4A3.78 3.78 0 0 0 8 16a3.28 3.28 0 0 0 2.39 -1.08" fill="none" stroke="#000000" stroke-linecap="round" stroke-linejoin="round" stroke-width="1"></path><path d="M18.39 9.08A3.28 3.28 0 0 0 16 8a3.78 3.78 0 0 0 -3.5 4 3.78 3.78 0 0 0 3.5 4 3.28 3.28 0 0 0 2.39 -1.08" fill="none" stroke="#000000" stroke-linecap="round" stroke-linejoin="round" stroke-width="1"></path></g></svg>