<svg xmlns="http://www.w3.org/2000/svg" fill="none" viewBox="0 0 25 25" id="Inkscape-Logo--Streamline-Ultimate"><desc>Inkscape Logo Streamline Icon: https://streamlinehq.com</desc><path stroke="#000000" stroke-linecap="round" stroke-linejoin="round" d="M24.25 11.94c0.0091 -0.2688 -0.0798 -0.5317 -0.25 -0.74l-9.35 -9.73995c-0.2122 -0.22456 -0.468 -0.40345 -0.7517 -0.525705C13.6146 0.812084 13.3089 0.749023 13 0.749023c-0.309 0 -0.6146 0.063061 -0.8984 0.185322 -0.2837 0.122255 -0.5394 0.301145 -0.7516 0.525705L1.99998 11.23c-0.17034 0.1819 -0.26662 0.4209 -0.27 0.67 0.00059 0.1758 0.05441 0.3473 0.15437 0.4919 0.09997 0.1446 0.24138 0.2555 0.40563 0.3181 1.06477 0.3849 2.15381 0.6989 3.26 0.94 0.09224 0.0216 0.17559 0.071 0.23867 0.1417 0.06307 0.0707 0.10279 0.1591 0.11373 0.2532 0.01094 0.0941 -0.00743 0.1892 -0.05261 0.2725 -0.04517 0.0833 -0.11495 0.1505 -0.19979 0.1926l-0.83 0.41c-0.15355 0.0784 -0.28135 0.1993 -0.36822 0.3482s-0.12913 0.3196 -0.12178 0.4918c0.00586 0.1721 0.06203 0.3386 0.16157 0.479 0.09953 0.1404 0.23806 0.2486 0.39843 0.311l4.6 1.84c0.06476 0.0283 0.12135 0.0724 0.16454 0.1283 0.04319 0.0559 0.07158 0.1218 0.08255 0.1916 0.01096 0.0697 0.00415 0.1412 -0.01981 0.2076 -0.02396 0.0665 -0.0643 0.1258 -0.11728 0.1725 -0.1376 0.1129 -0.24258 0.2605 -0.30411 0.4275 -0.06152 0.167 -0.07737 0.3474 -0.04589 0.5226 0.03636 0.1742 0.11854 0.3355 0.23808 0.4674 0.11954 0.1318 0.27209 0.2294 0.44192 0.2826l0.58002 0.1699c0.2485 0.0763 0.4638 0.2344 0.6109 0.4487s0.2173 0.4721 0.1991 0.7313c0 0.53 0.24 1.11 1.66 1.11 0.9819 0.013 1.9445 -0.273 2.76 -0.82 0.1373 -0.0944 0.2504 -0.2199 0.3301 -0.3663 0.0797 -0.1463 0.1238 -0.3094 0.1286 -0.476 0.0049 -0.1665 -0.0296 -0.3319 -0.1006 -0.4827 -0.071 -0.1507 -0.1766 -0.2826 -0.3081 -0.385 -0.0976 -0.0755 -0.1739 -0.1752 -0.2212 -0.2891 -0.0474 -0.114 -0.0642 -0.2384 -0.0488 -0.3609 0.0152 -0.1219 0.0633 -0.2375 0.139 -0.3343 0.0757 -0.0969 0.1763 -0.1714 0.291 -0.2156l2.45 -1c0.1657 -0.0658 0.3088 -0.1783 0.4118 -0.3239 0.1029 -0.1456 0.1614 -0.318 0.1682 -0.4961 0.0086 -0.1777 -0.034 -0.3541 -0.1226 -0.5083 -0.0886 -0.1542 -0.2196 -0.2797 -0.3774 -0.3618l-0.69 -0.35c-0.1167 -0.0575 -0.2122 -0.1502 -0.2733 -0.2651 -0.061 -0.1149 -0.0843 -0.246 -0.0667 -0.3749 0.0137 -0.1283 0.0659 -0.2496 0.1498 -0.3477 0.0839 -0.0982 0.1955 -0.1687 0.3202 -0.2023 2.0673 -0.4979 4.0375 -1.336 5.83 -2.4799 0.1526 -0.0882 0.2792 -0.215 0.367 -0.3678 0.0878 -0.1528 0.1337 -0.326 0.133 -0.5023v0Z" stroke-width="1"></path><path stroke="#000000" stroke-linecap="round" stroke-linejoin="round" d="M6.79258 19.7314c0.05248 0.4444 -0.01047 0.8949 -0.18277 1.3079 -0.17231 0.4131 -0.44816 0.7747 -0.80094 1.0501 -0.30898 0.1275 -0.65256 0.144 -0.97236 0.0468 -0.31979 -0.0972 -0.59607 -0.3021 -0.78186 -0.5799 -0.1858 -0.2779 -0.26965 -0.6115 -0.23731 -0.9442 0.03234 -0.3326 0.17888 -0.6438 0.41471 -0.8807 0.39196 -0.2166 0.83245 -0.3302 1.28026 -0.3302 0.44781 0 0.8883 0.1136 1.28027 0.3302Z" stroke-width="1"></path><path stroke="#000000" stroke-linecap="round" stroke-linejoin="round" d="M21.2506 18.9147c0.0056 -0.4354 0.1208 -0.8624 0.335 -1.2416s0.5205 -0.6982 0.8906 -0.9278c0.3131 -0.0842 0.6457 -0.0577 0.9416 0.0748 0.2959 0.1325 0.537 0.3631 0.6826 0.6528 0.1457 0.2896 0.187 0.6207 0.1169 0.9372 -0.07 0.3166 -0.2471 0.5993 -0.5014 0.8005 -0.4021 0.1648 -0.8396 0.2242 -1.2711 0.1724 -0.4315 -0.0518 -0.8425 -0.213 -1.1942 -0.4683Z" stroke-width="1"></path><path stroke="#000000" d="M19.85 21.665c-0.2071 0 -0.375 -0.1679 -0.375 -0.375s0.1679 -0.375 0.375 -0.375" stroke-width="1"></path><path stroke="#000000" d="M19.85 21.665c0.2071 0 0.375 -0.1679 0.375 -0.375s-0.1679 -0.375 -0.375 -0.375" stroke-width="1"></path><path stroke="#000000" stroke-linecap="round" stroke-linejoin="round" d="M14.65 1.46005c-0.2122 -0.22456 -0.4679 -0.40345 -0.7517 -0.525705C13.6146 0.812084 13.3089 0.749023 13 0.749023c-0.3089 0 -0.6146 0.063061 -0.8983 0.185322 -0.2838 0.122255 -0.5395 0.301145 -0.7517 0.525705l-4.29 4.48c-0.12484 0.1418 -0.20697 0.31606 -0.23686 0.50261s-0.00632 0.37776 0.06798 0.55146c0.07429 0.17371 0.19628 0.32282 0.35182 0.43005 0.15555 0.10724 0.33829 0.16822 0.52706 0.17588h1.81l1.42 -2.45 1.51 2.45h2.94l1 -1.47 1 1.47h0.83c0.1888 -0.00766 0.3715 -0.06864 0.5271 -0.17588 0.1555 -0.10723 0.2775 -0.25634 0.3518 -0.43005 0.0743 -0.1737 0.0979 -0.36491 0.068 -0.55146 -0.0299 -0.18655 -0.112 -0.36081 -0.2369 -0.50261l-4.34 -4.48Z" stroke-width="1"></path><path stroke="#000000" stroke-linecap="round" stroke-linejoin="round" d="m9.07996 13.98 2.47004 0.76" stroke-width="1"></path></svg>