<svg xmlns="http://www.w3.org/2000/svg" viewBox="0 0 24 24" id="Coffee-Machine--Streamline-Ultimate"><desc>Coffee Machine Streamline Icon: https://streamlinehq.com</desc><g><path d="M23.25 21A2.25 2.25 0 0 0 21 18.75H3a2.25 2.25 0 0 0 0 4.5h18A2.25 2.25 0 0 0 23.25 21Z" fill="none" stroke="#000000" stroke-linecap="round" stroke-linejoin="round" stroke-width="1"></path><path d="m21 18.75 -18 0 0 -12 9 0 9 0 0 12z" fill="none" stroke="#000000" stroke-linecap="round" stroke-linejoin="round" stroke-width="1"></path><path d="m12 9.75 0 1.5" fill="none" stroke="#000000" stroke-linecap="round" stroke-linejoin="round" stroke-width="1"></path><g><path d="M15.75 13.5c0 2.07 0 5.25 -3.75 5.25 -3 0 -3.22 -2.7 -3.63 -4.31a0.75 0.75 0 0 1 0.72 -0.94Z" fill="none" stroke="#000000" stroke-linecap="round" stroke-linejoin="round" stroke-width="1"></path><path d="M15.75 13.5h0A2.25 2.25 0 0 1 18 15.75h0" fill="none" stroke="#000000" stroke-linecap="round" stroke-linejoin="round" stroke-width="1"></path></g><path d="M2.5 0.75h19s1 0 1 1v4s0 1 -1 1h-19s-1 0 -1 -1v-4s0 -1 1 -1" fill="none" stroke="#000000" stroke-linecap="round" stroke-linejoin="round" stroke-width="1"></path><path d="M9 6.75h6v3H9Z" fill="none" stroke="#000000" stroke-linecap="round" stroke-linejoin="round" stroke-width="1"></path><path d="m19.25 3.75 -2 0" fill="none" stroke="#000000" stroke-linecap="round" stroke-linejoin="round" stroke-width="1"></path></g></svg>