<svg xmlns="http://www.w3.org/2000/svg" viewBox="0 0 24 24" id="Coffee-Machine-1--Streamline-Ultimate"><desc>Coffee Machine 1 Streamline Icon: https://streamlinehq.com</desc><g><g><path d="M2.25 23.25a1.5 1.5 0 0 1 -1.5 -1.5V2.25a1.5 1.5 0 0 1 1.5 -1.5h19.5a1.5 1.5 0 0 1 1.5 1.5v2.5a1.5 1.5 0 0 1 -1.5 1.5H8.25v17Z" fill="none" stroke="#000000" stroke-linecap="round" stroke-linejoin="round" stroke-width="1"></path><path d="M20.25 15v6.75a1.5 1.5 0 0 1 -1.5 1.5h-4.5a1.5 1.5 0 0 1 -1.5 -1.5v-2.69a4.38 4.38 0 0 0 -0.48 -2l-1 -2.05h2.23" fill="none" stroke="#000000" stroke-linecap="round" stroke-linejoin="round" stroke-width="1"></path><path d="M19.5 15h2.25a1.5 1.5 0 0 1 1.5 1.5V18" fill="none" stroke="#000000" stroke-linecap="round" stroke-linejoin="round" stroke-width="1"></path><path d="m8.25 23.25 15 0" fill="none" stroke="#000000" stroke-linecap="round" stroke-linejoin="round" stroke-width="1"></path><path d="m0.75 6.25 3.5 0" fill="none" stroke="#000000" stroke-linecap="round" stroke-linejoin="round" stroke-width="1"></path><path d="m0.75 10.25 3.5 0" fill="none" stroke="#000000" stroke-linecap="round" stroke-linejoin="round" stroke-width="1"></path></g><path d="M18.17 11.83a1.67 1.67 0 0 1 -3.34 0c0 -0.92 1.67 -3.33 1.67 -3.33s1.67 2.41 1.67 3.33Z" fill="none" stroke="#000000" stroke-linecap="round" stroke-linejoin="round" stroke-width="1"></path></g></svg>