<svg xmlns="http://www.w3.org/2000/svg" viewBox="0 0 24 24" id="Coffee-Jar--Streamline-Ultimate"><desc>Coffee Jar Streamline Icon: https://streamlinehq.com</desc><g><path d="M6.89 5.59 5.08 3.12c-0.56 -1 0 -2.37 1 -2.37H18c1 0 1.52 1.38 1 2.37l-1.89 2.47" fill="none" stroke="#000000" stroke-linecap="round" stroke-linejoin="round" stroke-width="1"></path><path d="M20.25 21.75a1.37 1.37 0 0 1 -1.18 1.5H4.93a1.37 1.37 0 0 1 -1.18 -1.5v-10.5c0 -3.31 2.11 -6 4.71 -6h7.08c2.6 0 4.71 2.69 4.71 6Z" fill="none" stroke="#000000" stroke-linecap="round" stroke-linejoin="round" stroke-width="1"></path><g><path d="M8.069242405 18.1844278426a5.25 4.13 -45 1 0 7.4246212024 -7.4246212024 5.25 4.13 -45 1 0 -7.4246212025 7.4246212024" fill="none" stroke="#000000" stroke-linecap="round" stroke-linejoin="round" stroke-width="1"></path><path d="m16.18 11.77 -2.39 0.37a2.41 2.41 0 0 0 -2 2.23 2.39 2.39 0 0 1 -2 2.43l-2.39 0.37" fill="none" stroke="#000000" stroke-linecap="round" stroke-linejoin="round" stroke-width="1"></path></g></g></svg>