<svg xmlns="http://www.w3.org/2000/svg" viewBox="0 0 24 24" id="Coffee-Drip-2--Streamline-Ultimate"><desc>Coffee Drip 2 Streamline Icon: https://streamlinehq.com</desc><defs></defs><path d="M11.482 23.25a2 2 0 0 1 -2 -2v-7a0.5 0.5 0 0 1 0.5 -0.5h9v7.5a2 2 0 0 1 -2 2Z" fill="none" stroke="#000000" stroke-linecap="round" stroke-linejoin="round" stroke-width="1"></path><path d="M18.982 13.75h1.5a2.5 2.5 0 0 1 0 5h-1.5" fill="none" stroke="#000000" stroke-linecap="round" stroke-linejoin="round" stroke-width="1"></path><path d="M8.232 7.75h12s1 0 1 1v1s0 1 -1 1h-12s-1 0 -1 -1v-1s0 -1 1 -1" fill="none" stroke="#000000" stroke-linecap="round" stroke-linejoin="round" stroke-width="1"></path><path d="M7.232 9a5.168 5.168 0 0 0 -5 5v9.25" fill="none" stroke="#000000" stroke-linecap="round" stroke-linejoin="round" stroke-width="1"></path><path d="m20.232 0.75 -12 0 3 7 6 0 3 -7z" fill="none" stroke="#000000" stroke-linecap="round" stroke-linejoin="round" stroke-width="1"></path><path d="m5.498 23.25 -4.48 0" fill="none" stroke="#000000" stroke-linecap="round" stroke-linejoin="round" stroke-width="1"></path></svg>