<svg viewBox="0 0 24 24" xmlns="http://www.w3.org/2000/svg" id="Coffee-Turkish--Streamline-Ultimate"><desc>Coffee Turkish Streamline Icon: https://streamlinehq.com</desc><path d="M20.25 15.75H21a2.25 2.25 0 0 1 0 4.5h-1.009" fill="none" stroke="#000000" stroke-linecap="round" stroke-linejoin="round" stroke-width="1"></path><path d="M11.25 18.75a4.5 4.5 0 0 0 9 0v-4.5h-9Z" fill="none" stroke="#000000" stroke-linecap="round" stroke-linejoin="round" stroke-width="1"></path><path d="M9 5.25a3.285 3.285 0 0 0 -0.75 2.25c0 1.5 1.5 1.5 1.5 3.75s-3 3 -4.5 3 -4.5 -0.75 -4.5 -3S2.25 9 2.25 7.5a3.285 3.285 0 0 0 -0.75 -2.25Z" fill="none" stroke="#000000" stroke-linecap="round" stroke-linejoin="round" stroke-width="1"></path><path d="m3.75 0.75 0 1.5" fill="none" stroke="#000000" stroke-linecap="round" stroke-linejoin="round" stroke-width="1"></path><path d="m6.75 0.75 0 1.5" fill="none" stroke="#000000" stroke-linecap="round" stroke-linejoin="round" stroke-width="1"></path><path d="M8.796 8.841 20.25 3.75" fill="none" stroke="#000000" stroke-linecap="round" stroke-linejoin="round" stroke-width="1"></path></svg>