<svg xmlns="http://www.w3.org/2000/svg" viewBox="0 0 24 24" id="Coffee-Straw--Streamline-Ultimate"><desc>Coffee Straw Streamline Icon: https://streamlinehq.com</desc><g><path d="M4 5.25h16s2 0 2 2v0s0 2 -2 2H4s-2 0 -2 -2v0s0 -2 2 -2" fill="none" stroke="#000000" stroke-linecap="round" stroke-linejoin="round" stroke-width="1"></path><path d="m19.5 9.25 -1.35 12.67a1.5 1.5 0 0 1 -1.49 1.33H7.34a1.5 1.5 0 0 1 -1.49 -1.33L4.5 9.25" fill="none" stroke="#000000" stroke-linecap="round" stroke-linejoin="round" stroke-width="1"></path><path d="M5 12.94a3.61 3.61 0 0 1 1 -0.19 3 3 0 0 1 0 6c-0.1 0 -0.36 0 -0.47 -0.05" fill="none" stroke="#000000" stroke-linecap="round" stroke-linejoin="round" stroke-width="1"></path><path d="m3 0.75 4.5 4.5" fill="none" stroke="#000000" stroke-linecap="round" stroke-linejoin="round" stroke-width="1"></path></g></svg>