<svg xmlns="http://www.w3.org/2000/svg" viewBox="0 0 24 24" id="Coffee-Delivery--Streamline-Ultimate"><desc>Coffee Delivery Streamline Icon: https://streamlinehq.com</desc><g><path d="M10.88 3.75a3 3 0 1 0 6 0 3 3 0 1 0 -6 0" fill="none" stroke="#000000" stroke-linecap="round" stroke-linejoin="round" stroke-width="1"></path><path d="M10.13 18.56 8.78 20.9a1.57 1.57 0 0 0 2.71 1.57L14 18.16l1.65 4A1.57 1.57 0 1 0 18.53 21s-2.17 -5.29 -2.4 -5.83v-1.94L19 15a1.55 1.55 0 0 0 2.15 -0.48 1.57 1.57 0 0 0 -0.48 -2.16l-5.31 -3.31a1.88 1.88 0 0 0 -1.11 -0.24 1.9 1.9 0 0 0 -1.38 0.6 4.3 4.3 0 0 1 -2.78 1.46l-0.71 0.05 -1.81 0a1.56 1.56 0 1 0 0 3.12c2.63 0 4.07 0.05 4.07 0.05a11.66 11.66 0 0 1 -1.51 4.47Z" fill="none" stroke="#000000" stroke-linecap="round" stroke-linejoin="round" stroke-width="1"></path><path d="m6.26 13.31 -2.88 0 -0.75 -4.5 4.5 0 -0.52 2.4" fill="none" stroke="#000000" stroke-linecap="round" stroke-linejoin="round" stroke-width="1"></path><path d="m5.63 8.81 0.75 -2.25 1.5 0" fill="none" stroke="#000000" stroke-linecap="round" stroke-linejoin="round" stroke-width="1"></path></g></svg>