<svg xmlns="http://www.w3.org/2000/svg" viewBox="0 0 24 24" id="Coffee-Syphon--Streamline-Ultimate"><desc>Coffee Syphon Streamline Icon: https://streamlinehq.com</desc><defs></defs><path d="M11.25 7.75h-4a2.668 2.668 0 0 1 -2 -2.5V0.75h8v4.5a2.668 2.668 0 0 1 -2 2.5Z" fill="none" stroke="#000000" stroke-linecap="round" stroke-linejoin="round" stroke-width="1"></path><path d="m12.75 23.25 -7 0 -0.5 -4 8 0 -0.5 4z" fill="none" stroke="#000000" stroke-linecap="round" stroke-linejoin="round" stroke-width="1"></path><path d="M13.25 16.25h-8a2.906 2.906 0 0 1 -2 -3c0 -3 4 -5.5 4 -5.5h4s4 2.5 4 5.5a2.906 2.906 0 0 1 -2 3Z" fill="none" stroke="#000000" stroke-linecap="round" stroke-linejoin="round" stroke-width="1"></path><path d="m9.25 7.75 0 4.5" fill="none" stroke="#000000" stroke-linecap="round" stroke-linejoin="round" stroke-width="1"></path><path d="M11.25 7.75h6a2 2 0 0 1 2 2v1.75" fill="none" stroke="#000000" stroke-linecap="round" stroke-linejoin="round" stroke-width="1"></path><path d="m12.75 23.25 6.5 0 0 -3.75" fill="none" stroke="#000000" stroke-linecap="round" stroke-linejoin="round" stroke-width="1"></path><path d="M17.75 18a1.5 1.5 0 0 0 3 0v-5a1.5 1.5 0 0 0 -3 0Z" fill="none" stroke="#000000" stroke-linecap="round" stroke-linejoin="round" stroke-width="1"></path><path d="m5.25 4 8 0" fill="none" stroke="#000000" stroke-linecap="round" stroke-linejoin="round" stroke-width="1"></path></svg>