<svg viewBox="0 0 24 24" xmlns="http://www.w3.org/2000/svg" id="Coffee-Cold-Press--Streamline-Ultimate"><desc>Coffee Cold Press Streamline Icon: https://streamlinehq.com</desc><path d="M6.75 9h13.5l0 0v13.25a1 1 0 0 1 -1 1H7.75a1 1 0 0 1 -1 -1V9l0 0Z" fill="none" stroke="#000000" stroke-linecap="round" stroke-linejoin="round" stroke-width="1"></path><path d="M6.75 9a6.75 6.75 0 0 1 13.5 0Z" fill="none" stroke="#000000" stroke-linecap="round" stroke-linejoin="round" stroke-width="1"></path><path d="M6.75 17.25a6 6 0 0 1 -6 -6V9h6" fill="none" stroke="#000000" stroke-linecap="round" stroke-linejoin="round" stroke-width="1"></path><path d="M20.25 9h3a5.958 5.958 0 0 1 -3 5.25" fill="none" stroke="#000000" stroke-linecap="round" stroke-linejoin="round" stroke-width="1"></path><path d="m13.5 2.25 0 -1.5" fill="none" stroke="#000000" stroke-linecap="round" stroke-linejoin="round" stroke-width="1"></path><path d="m6.75 14.25 13.5 0" fill="none" stroke="#000000" stroke-linecap="round" stroke-linejoin="round" stroke-width="1"></path><path d="m13.5 9 0 9.75" fill="none" stroke="#000000" stroke-linecap="round" stroke-linejoin="round" stroke-width="1"></path><path d="m11.25 18.75 4.5 0" fill="none" stroke="#000000" stroke-linecap="round" stroke-linejoin="round" stroke-width="1"></path></svg>