<svg xmlns="http://www.w3.org/2000/svg" viewBox="0 0 24 24" id="Coffee-Cold-Press-1--Streamline-Ultimate"><desc>Coffee Cold Press 1 Streamline Icon: https://streamlinehq.com</desc><g><path d="M2.25 8.25a0.74 0.74 0 0 0 -0.69 0.46 0.75 0.75 0 0 0 0.16 0.82l2.28 2a1.52 1.52 0 0 1 0.5 1.12v9.08A1.5 1.5 0 0 0 6 23.25h9a1.5 1.5 0 0 0 1.5 -1.5V8.25Z" fill="none" stroke="#000000" stroke-linecap="round" stroke-linejoin="round" stroke-width="1"></path><path d="m8.25 15.75 4.5 0" fill="none" stroke="#000000" stroke-linecap="round" stroke-linejoin="round" stroke-width="1"></path><path d="m10.5 8.25 0 7.5" fill="none" stroke="#000000" stroke-linecap="round" stroke-linejoin="round" stroke-width="1"></path><path d="M16.5 8.25c-0.38 -2.86 -2.92 -4.5 -6 -4.5s-5.62 1.64 -6 4.5Z" fill="none" stroke="#000000" stroke-linecap="round" stroke-linejoin="round" stroke-width="1"></path><path d="M9 2.25a1.5 1.5 0 1 0 3 0 1.5 1.5 0 1 0 -3 0" fill="none" stroke="#000000" stroke-linecap="round" stroke-linejoin="round" stroke-width="1"></path><path d="M16.5 9.75H18a4.51 4.51 0 0 1 4.5 4.5h0a4.51 4.51 0 0 1 -4.5 4.5h-1.5" fill="none" stroke="#000000" stroke-linecap="round" stroke-linejoin="round" stroke-width="1"></path><path d="m4.5 19.25 12 0" fill="none" stroke="#000000" stroke-linecap="round" stroke-linejoin="round" stroke-width="1"></path></g></svg>