<svg viewBox="0 0 24 24" xmlns="http://www.w3.org/2000/svg" id="Coffee-Read--Streamline-Ultimate"><desc>Coffee Read Streamline Icon: https://streamlinehq.com</desc><path d="M21.75 12.75V2.2A1.45 1.45 0 0 0 20.1 0.766a15.364 15.364 0 0 0 -7.57 3.446 2.791 2.791 0 0 1 -2.556 0A15.363 15.363 0 0 0 2.4 0.766 1.45 1.45 0 0 0 0.75 2.2v13.561A1.439 1.439 0 0 0 2 17.19a15.28 15.28 0 0 1 7.97 3.5" fill="none" stroke="#000000" stroke-linecap="round" stroke-linejoin="round" stroke-width="1"></path><path d="m11.25 4.519 0 8.231" fill="none" stroke="#000000" stroke-linecap="round" stroke-linejoin="round" stroke-width="1"></path><path d="M20.25 17.25H21a2.25 2.25 0 0 1 0 4.5h-1.5" fill="none" stroke="#000000" stroke-linecap="round" stroke-linejoin="round" stroke-width="1"></path><path d="M12.75 19.5a3.75 3.75 0 0 0 7.5 0v-3.75h-7.5Z" fill="none" stroke="#000000" stroke-linecap="round" stroke-linejoin="round" stroke-width="1"></path></svg>