<svg viewBox="0 0 24 24" xmlns="http://www.w3.org/2000/svg" id="Coffee-Espresso-Machine--Streamline-Ultimate"><desc>Coffee Espresso Machine Streamline Icon: https://streamlinehq.com</desc><path d="m0.75 23.25 22.5 0" fill="none" stroke="#000000" stroke-linecap="round" stroke-linejoin="round" stroke-width="1"></path><path d="M23.25 2.25a1.5 1.5 0 0 0 -1.5 -1.5H4.5A1.5 1.5 0 0 0 3 2.25v6a1.5 1.5 0 0 0 1.5 1.5H12a1.5 1.5 0 0 1 1.5 1.5v12h9.75v-21Z" fill="none" stroke="#000000" stroke-linecap="round" stroke-linejoin="round" stroke-width="1"></path><path d="M18.75 23.25h4.5v-10.5h-3a1.5 1.5 0 0 0 -1.5 1.5Z" fill="none" stroke="#000000" stroke-linecap="round" stroke-linejoin="round" stroke-width="1"></path><path d="m6.75 9.75 0 3" fill="none" stroke="#000000" stroke-linecap="round" stroke-linejoin="round" stroke-width="1"></path><path d="M6 5.25a1.5 1.5 0 1 0 3 0 1.5 1.5 0 1 0 -3 0Z" fill="none" stroke="#000000" stroke-linecap="round" stroke-linejoin="round" stroke-width="1"></path><path d="m23.25 5.25 -4.5 0" fill="none" stroke="#000000" stroke-linecap="round" stroke-linejoin="round" stroke-width="1"></path><path d="m23.25 8.25 -4.5 0" fill="none" stroke="#000000" stroke-linecap="round" stroke-linejoin="round" stroke-width="1"></path><path d="M3.094 18c0 2.071 0 5.25 3.75 5.25 3 0 3.216 -2.695 3.632 -4.313A0.75 0.75 0 0 0 9.749 18Z" fill="none" stroke="#000000" stroke-linecap="round" stroke-linejoin="round" stroke-width="1"></path><path d="M3.094 18h0a2.25 2.25 0 0 0 -2.25 2.25h0" fill="none" stroke="#000000" stroke-linecap="round" stroke-linejoin="round" stroke-width="1"></path></svg>