<svg xmlns="http://www.w3.org/2000/svg" viewBox="0 0 24 24" id="Cannabis-Chocolate--Streamline-Ultimate"><desc>Cannabis Chocolate Streamline Icon: https://streamlinehq.com</desc><defs></defs><title>cannabis-chocolate</title><path d="M5.387 12.75H2.244a1.5 1.5 0 0 0 -1.5 1.5v7.419a1.581 1.581 0 0 0 1.581 1.581h10.088" fill="none" stroke="#000000" stroke-linecap="round" stroke-linejoin="round" stroke-width="1"></path><path d="m7.612 17.816 -1.423 0.884a1.5 1.5 0 0 1 -2.069 -0.485L1.083 13.3" fill="none" stroke="#000000" stroke-linecap="round" stroke-linejoin="round" stroke-width="1"></path><path d="M2.244 12.75V2.353a1.6 1.6 0 0 1 1.6 -1.6h8.796a1.6 1.6 0 0 1 1.6 1.6v4.4" fill="none" stroke="#000000" stroke-linecap="round" stroke-linejoin="round" stroke-width="1"></path><path d="m8.244 0.75 0 8.717" fill="none" stroke="#000000" stroke-linecap="round" stroke-linejoin="round" stroke-width="1"></path><path d="m14.244 6.75 -12 0" fill="none" stroke="#000000" stroke-linecap="round" stroke-linejoin="round" stroke-width="1"></path><path d="M15.875 18.547c-1.1 1.294 -5.347 2.247 -5.909 1.32a6.3 6.3 0 0 1 1.964 -2.959c-3.076 -1.64 -3.316 -3.1 -3.347 -3.672a6.585 6.585 0 0 1 5.2 0.628 6.4 6.4 0 0 1 2.14 -5.114 6.4 6.4 0 0 1 2.141 5.114 6.583 6.583 0 0 1 5.2 -0.628c-0.032 0.577 -0.271 2.032 -3.348 3.672a6.3 6.3 0 0 1 1.964 2.959c-0.561 0.927 -4.9 -0.026 -6 -1.32" fill="none" stroke="#000000" stroke-linecap="round" stroke-linejoin="round" stroke-width="1"></path><path d="m15.875 18.547 0 4.703" fill="none" stroke="#000000" stroke-linecap="round" stroke-linejoin="round" stroke-width="1"></path></svg>