<svg xmlns="http://www.w3.org/2000/svg" viewBox="0 0 24 24" id="Cannabis-Cupcake--Streamline-Ultimate"><desc>Cannabis Cupcake Streamline Icon: https://streamlinehq.com</desc><defs></defs><title>cannabis-cupcake</title><path d="M15.869 19.047c-1.1 1.294 -5.347 2.247 -5.909 1.32a6.3 6.3 0 0 1 1.964 -2.959c-3.076 -1.641 -3.316 -3.1 -3.347 -3.673a6.587 6.587 0 0 1 5.2 0.629 6.4 6.4 0 0 1 2.14 -5.114 6.4 6.4 0 0 1 2.141 5.114 6.586 6.586 0 0 1 5.2 -0.629c-0.031 0.577 -0.271 2.032 -3.348 3.673a6.3 6.3 0 0 1 1.964 2.959c-0.561 0.927 -4.9 -0.026 -6 -1.32" fill="none" stroke="#000000" stroke-linecap="round" stroke-linejoin="round" stroke-width="1"></path><path d="m15.869 19.047 0 4.203" fill="none" stroke="#000000" stroke-linecap="round" stroke-linejoin="round" stroke-width="1"></path><path d="M6.472 15.269H5.33a1.387 1.387 0 0 1 -1.354 -1.086L2.6 8.218" fill="none" stroke="#000000" stroke-linecap="round" stroke-linejoin="round" stroke-width="1"></path><path d="M17.789 6.915a2.355 2.355 0 0 0 0.3 -1.143c0 -2.707 -2.863 -4.278 -6.027 -4.831A21.919 21.919 0 0 0 9.418 0.75a21.892 21.892 0 0 0 -2.641 0.191C3.611 1.493 0.75 3.063 0.75 5.772A2.925 2.925 0 0 0 3.871 8.45a3.19 3.19 0 0 0 2.773 -1.475A3.193 3.193 0 0 0 9.418 8.45a3.191 3.191 0 0 0 2.774 -1.475 2.844 2.844 0 0 0 0.791 0.855" fill="none" stroke="#000000" stroke-linecap="round" stroke-linejoin="round" stroke-width="1"></path><path d="m6.225 7.514 0.624 4.056" fill="none" stroke="#000000" stroke-linecap="round" stroke-linejoin="round" stroke-width="1"></path></svg>