<svg id="Medical-Personnel--Streamline-Ultimate" xmlns="http://www.w3.org/2000/svg" viewBox="0 0 24 24"><desc>Medical Personnel Streamline Icon: https://streamlinehq.com</desc><defs></defs><title>medical-personnel</title><path d="M0.75 17.25a6.753 6.753 0 0 1 9.4 -6.208" fill="none" stroke="#000000" stroke-linecap="round" stroke-linejoin="round" stroke-width="1"></path><path d="M3.945 2.781a6.848 6.848 0 0 0 4.93 2.094 6.843 6.843 0 0 0 2.712 -0.558" fill="none" stroke="#000000" stroke-linecap="round" stroke-linejoin="round" stroke-width="1"></path><path d="M3.375 4.875a4.125 4.125 0 1 0 8.25 0 4.125 4.125 0 1 0 -8.25 0" fill="none" stroke="#000000" stroke-linecap="round" stroke-linejoin="round" stroke-width="1"></path><path d="M12.25 14.25h10s1 0 1 1v7s0 1 -1 1h-10s-1 0 -1 -1v-7s0 -1 1 -1" fill="none" stroke="#000000" stroke-linecap="round" stroke-linejoin="round" stroke-width="1"></path><path d="M16 11.25h2.5a1 1 0 0 1 1 1v2l0 0H15l0 0v-2a1 1 0 0 1 1 -1Z" fill="none" stroke="#000000" stroke-linecap="round" stroke-linejoin="round" stroke-width="1"></path><path d="m17.25 17.25 0 3" fill="none" stroke="#000000" stroke-linecap="round" stroke-linejoin="round" stroke-width="1"></path><path d="m15.75 18.75 3 0" fill="none" stroke="#000000" stroke-linecap="round" stroke-linejoin="round" stroke-width="1"></path></svg>