<svg viewBox="0 0 24 24" xmlns="http://www.w3.org/2000/svg" id="Medical-Personnel-Nurse--Streamline-Ultimate"><desc>Medical Personnel Nurse Streamline Icon: https://streamlinehq.com</desc><path d="M14.25 10.5a3 3 0 1 0 6 0 3 3 0 1 0 -6 0Z" fill="none" stroke="#000000" stroke-linecap="round" stroke-linejoin="round" stroke-width="1"></path><path d="M23.25 19.5a4.5 4.5 0 0 0 -4.5 -4.5h-3a4.5 4.5 0 0 0 -4.5 4.5" fill="none" stroke="#000000" stroke-linecap="round" stroke-linejoin="round" stroke-width="1"></path><path d="m0.75 22.5 22.5 0" fill="none" stroke="#000000" stroke-linecap="round" stroke-linejoin="round" stroke-width="1"></path><path d="m14.789 8.784 -2.1 -2.74a7.5 7.5 0 0 1 9.129 0.01l-2.102 2.738" fill="none" stroke="#000000" stroke-linecap="round" stroke-linejoin="round" stroke-width="1"></path><path d="M9 4.5H6.75V2.25A0.75 0.75 0 0 0 6 1.5H4.5a0.75 0.75 0 0 0 -0.75 0.75V4.5H1.5a0.75 0.75 0 0 0 -0.75 0.75v1.5a0.75 0.75 0 0 0 0.75 0.75h2.25v2.25a0.75 0.75 0 0 0 0.75 0.75H6a0.75 0.75 0 0 0 0.75 -0.75V7.5H9a0.75 0.75 0 0 0 0.75 -0.75v-1.5A0.75 0.75 0 0 0 9 4.5Z" fill="none" stroke="#000000" stroke-linecap="round" stroke-linejoin="round" stroke-width="1"></path></svg>