<svg xmlns="http://www.w3.org/2000/svg" fill="none" viewBox="0 0 24 24" id="Nurse-Without-Cap-Cloth--Streamline-Ultimate"><desc>Nurse Without Cap Cloth Streamline Icon: https://streamlinehq.com</desc><path stroke="#000000" stroke-linecap="round" stroke-linejoin="round" stroke-miterlimit="10" d="M21.2067 17.95c0.7 -0.3 1.1 -1.2 0.8 -2l-1.4 -3.2c-0.2 -0.6 -0.4 -1.2 -0.4 -1.8v-2c0 -4.6 -3.7 -8.2 -8.2 -8.2 -4.60004 0 -8.20005 3.7 -8.20005 8.2v2.1c0 0.6 -0.09999 1.2 -0.39999 1.8l-1.4 3.2c-0.3 0.8 -0.00001 1.6 0.79999 2" stroke-width="1"></path><path stroke="#000000" stroke-linecap="round" stroke-linejoin="round" stroke-miterlimit="10" d="M21.5067 23.25c-1.7 -3.5 -5.3 -6 -9.5 -6 -4.20005 0 -7.80005 2.5 -9.50005 6" stroke-width="1"></path><path stroke="#000000" stroke-linecap="round" stroke-linejoin="round" stroke-miterlimit="10" d="M12.0067 5.25s-1.4 3.6 -5.00005 3.7c-0.1 0.5 -0.20001 1 -0.20001 1.5 0 2.9 2.40001 5.2 5.20006 5.2 2.8 0 5.2 -2.4 5.2 -5.2 0 -0.5 -0.1 -1 -0.2 -1.5 -3.6 -0.2 -5 -3.7 -5 -3.7Z" stroke-width="1"></path></svg>