<svg xmlns="http://www.w3.org/2000/svg" fill="none" viewBox="0 0 24 24" id="Nurse-Without-Cap-Cross-Cloth--Streamline-Ultimate"><desc>Nurse Without Cap Cross Cloth Streamline Icon: https://streamlinehq.com</desc><path stroke="#000000" stroke-linecap="round" stroke-linejoin="round" stroke-miterlimit="10" d="M12.8641 0.95c-0.6 -0.2 -1.3 -0.2 -2 -0.2 -4.59998 0 -8.2 3.7 -8.2 8.2v2.1c0 0.6 -0.09999 1.2 -0.39999 1.8l-1.399995 3.2c-0.3 0.8 -0.000012 1.6 0.799985 2" stroke-width="1"></path><path stroke="#000000" stroke-linecap="round" stroke-linejoin="round" stroke-miterlimit="10" d="M20.0641 17.95c0.7 -0.3 1.1 -1.2 0.8 -2l-1.4 -3.2" stroke-width="1"></path><path stroke="#000000" stroke-linecap="round" stroke-linejoin="round" stroke-miterlimit="10" d="M20.3641 23.25c-1.7 -3.5 -5.3 -6 -9.5 -6 -4.19999 0 -7.79999 2.5 -9.49999 6" stroke-width="1"></path><path stroke="#000000" stroke-linecap="round" stroke-linejoin="round" stroke-miterlimit="10" d="M10.8641 5.25s-1.39999 3.6 -4.99999 3.7c-0.1 0.5 -0.20002 1 -0.20002 1.5 0 2.9 2.40002 5.2 5.20001 5.2 2.3 0 4.2 -1.4 4.9 -3.4" stroke-width="1"></path><path stroke="#000000" stroke-linecap="round" stroke-linejoin="round" stroke-miterlimit="10" d="M23.25 4.55c0 -0.4 -0.3 -0.8 -0.8 -0.8h-2.2v-2.2c0 -0.4 -0.3 -0.8 -0.8 -0.8h-1.4c-0.4 0 -0.8 0.3 -0.8 0.8v2.3h-2.2c-0.4 0 -0.8 0.3 -0.8 0.8v1.4c0 0.4 0.3 0.8 0.8 0.8h2.2v2.2c0 0.4 0.3 0.8 0.8 0.8h1.5c0.4 0 0.8 -0.3 0.8 -0.8v-2.2h2.1c0.4 0 0.8 -0.3 0.8 -0.8v-1.5Z" stroke-width="1"></path></svg>