<svg xmlns="http://www.w3.org/2000/svg" fill="none" viewBox="0 0 24 24" id="Nurse-With-Cap-Cloth--Streamline-Ultimate"><desc>Nurse With Cap Cloth Streamline Icon: https://streamlinehq.com</desc><path stroke="#000000" stroke-linecap="round" stroke-linejoin="round" stroke-miterlimit="10" d="M21.5 23.25c-1.7 -3.5 -5.3 -6 -9.5 -6s-7.8 2.5 -9.5 6" stroke-width="1"></path><path stroke="#000000" stroke-linecap="round" stroke-linejoin="round" stroke-miterlimit="10" d="M8.67776 17.8047 13.4 23.25" stroke-width="1"></path><path stroke="#000000" stroke-linecap="round" stroke-linejoin="round" stroke-miterlimit="10" d="m15.4097 17.8452 -3.3647 3.8345" stroke-width="1"></path><path stroke="#000000" stroke-linecap="round" stroke-linejoin="round" stroke-miterlimit="10" d="M7.79999 21.25v2" stroke-width="1"></path><path stroke="#000000" stroke-linecap="round" stroke-linejoin="round" stroke-miterlimit="10" d="M6.79999 22.25h2" stroke-width="1"></path><path stroke="#000000" stroke-linecap="round" stroke-linejoin="round" stroke-miterlimit="10" d="M12 0.75c4.4 0 8 2.5 8 5.7 0 0.7 -2.5 4.1 -2.5 4.1 -0.4 -2 -1.7 -4.2 -5.5 -4.2s-5.1 2.3 -5.5 4.2c0 0 -2.5 -3.3 -2.5 -4.1 0 -3.2 3.6 -5.7 8 -5.7Z" stroke-width="1"></path><path stroke="#000000" stroke-linecap="round" stroke-linejoin="round" stroke-miterlimit="10" d="m9.28595 6.85938 -1.20001 -2" stroke-width="1"></path><path stroke="#000000" stroke-linecap="round" stroke-linejoin="round" stroke-miterlimit="10" d="M14.2715 6.67188c-1.3 2.9 -4.59493 4.47812 -7.69493 3.57812" stroke-width="1"></path><path stroke="#000000" stroke-linecap="round" stroke-linejoin="round" stroke-miterlimit="10" d="M12 15.95c-3 0 -5.5 -2.4 -5.5 -5.4 0.4 -1.89999 1.7 -4.19999 5.5 -4.19999s5.1 2.2 5.5 4.19999c0 3 -2.5 5.4 -5.5 5.4Z" stroke-width="1"></path><path stroke="#000000" stroke-linecap="round" stroke-linejoin="round" stroke-miterlimit="10" d="M12 6.35002v-2.3" stroke-width="1"></path><path stroke="#000000" stroke-linecap="round" stroke-linejoin="round" stroke-miterlimit="10" d="m14.7141 6.85938 1.2 -2" stroke-width="1"></path></svg>