<svg xmlns="http://www.w3.org/2000/svg" fill="none" viewBox="0 0 24 24" id="Nurse-Without-Cap-Syringe--Streamline-Ultimate"><desc>Nurse Without Cap Syringe Streamline Icon: https://streamlinehq.com</desc><path stroke="#000000" stroke-linecap="round" stroke-linejoin="round" stroke-miterlimit="10" d="m21.45 5.84999 -3.7 3.7c-0.4 0.4 -1 0.4 -1.4 0l-1.8 -1.8c-0.4 -0.4 -0.4 -1 0 -1.4l3.7 -3.7" stroke-width="1"></path><path stroke="#000000" stroke-linecap="round" stroke-linejoin="round" stroke-miterlimit="10" d="m12.85 11.15 2.5 -2.50001" stroke-width="1"></path><path stroke="#000000" stroke-linecap="round" stroke-linejoin="round" stroke-miterlimit="10" d="m17.15 1.54999 5.3 5.3" stroke-width="1"></path><path stroke="#000000" stroke-linecap="round" stroke-linejoin="round" stroke-miterlimit="10" d="m22.05 1.95001 -2.2 2.2" stroke-width="1"></path><path stroke="#000000" stroke-linecap="round" stroke-linejoin="round" stroke-miterlimit="10" d="m20.85 0.75 2.4 2.4" stroke-width="1"></path><path stroke="#000000" stroke-linecap="round" stroke-linejoin="round" stroke-miterlimit="10" d="M0.75 23.25c1.7 -2.8 4.79999 -4.6 8.29999 -4.6 3.50001 0 6.60001 1.8 8.30001 4.6" stroke-width="1"></path><path stroke="#000000" stroke-linecap="round" stroke-linejoin="round" stroke-miterlimit="10" d="M12.85 14.65c-1 1.1 -2.3 1.7 -3.89999 1.7 -2.9 0 -5.20001 -2.4 -5.20001 -5.2 0 -3.39999 3.29999 -6.09999 6.9 -4.99999" stroke-width="1"></path><path stroke="#000000" stroke-linecap="round" stroke-linejoin="round" stroke-miterlimit="10" d="M15.15 13.05c0.4 0.4 1.1 0.8 2.1 0.8" stroke-width="1"></path><path stroke="#000000" stroke-linecap="round" stroke-linejoin="round" stroke-miterlimit="10" d="M3.75 10.85s0 3 -3 3" stroke-width="1"></path><path stroke="#000000" stroke-linecap="round" stroke-linejoin="round" stroke-miterlimit="10" d="M9.95001 9.84999c-0.3 -0.4 -0.60002 -0.8 -0.90002 -1.3 -2 3.50001 -5.29407 3.01251 -5.29407 3.01251" stroke-width="1"></path><path stroke="#000000" stroke-linecap="round" stroke-linejoin="round" stroke-miterlimit="10" d="m4.54999 19.75 3.1 3.5" stroke-width="1"></path><path stroke="#000000" stroke-linecap="round" stroke-linejoin="round" stroke-miterlimit="10" d="m13.55 19.75 -3.1 3.5" stroke-width="1"></path></svg>