<svg xmlns="http://www.w3.org/2000/svg" viewBox="0 0 24 24" id="Patient-Profile--Streamline-Ultimate"><desc>Patient Profile Streamline Icon: https://streamlinehq.com</desc><defs></defs><title>patient-profile</title><path d="M6.292 6.455a1.585 1.585 0 0 1 2.425 0.006" fill="none" stroke="#000000" stroke-linecap="round" stroke-linejoin="round" stroke-width="1"></path><path d="M3.375 4.875a4.125 4.125 0 1 0 8.25 0 4.125 4.125 0 1 0 -8.25 0" fill="none" stroke="#000000" stroke-linecap="round" stroke-linejoin="round" stroke-width="1"></path><path d="M11.626 11.926A6.731 6.731 0 0 0 0.75 17.25" fill="none" stroke="#000000" stroke-linecap="round" stroke-linejoin="round" stroke-width="1"></path><path d="m7.504 14.502 0 2.748" fill="none" stroke="#000000" stroke-linecap="round" stroke-linejoin="round" stroke-width="1"></path><path d="m4.299 11.298 3.205 3.204" fill="none" stroke="#000000" stroke-linecap="round" stroke-linejoin="round" stroke-width="1"></path><path d="m10.693 11.315 -3.189 3.187" fill="none" stroke="#000000" stroke-linecap="round" stroke-linejoin="round" stroke-width="1"></path><path d="M14.5 13.25H22s1.25 0 1.25 1.25V22s0 1.25 -1.25 1.25h-7.5s-1.25 0 -1.25 -1.25v-7.5s0 -1.25 1.25 -1.25" fill="none" stroke="#000000" stroke-linecap="round" stroke-linejoin="round" stroke-width="1"></path><path d="m15.75 15.75 5 0" fill="none" stroke="#000000" stroke-linecap="round" stroke-linejoin="round" stroke-width="1"></path><path d="m15.75 18.25 5 0" fill="none" stroke="#000000" stroke-linecap="round" stroke-linejoin="round" stroke-width="1"></path><path d="m15.75 20.75 1.875 0" fill="none" stroke="#000000" stroke-linecap="round" stroke-linejoin="round" stroke-width="1"></path></svg>