<svg xmlns="http://www.w3.org/2000/svg" fill="none" viewBox="0 0 24 24" id="Barley--Streamline-Ultimate"><desc>Barley Streamline Icon: https://streamlinehq.com</desc><path stroke="#000000" stroke-linecap="round" d="m16.3629 23.0519 0 -2.8402" stroke-width="1"></path><path stroke="#000000" stroke-linecap="round" d="M22.3946 16.8463c0.1327 -0.5439 0.2732 -1.3605 0.37 -1.912" stroke-width="1"></path><path stroke="#000000" stroke-linecap="round" d="M22.3946 11.225c0.1327 -0.544 0.2732 -1.36054 0.37 -1.91203" stroke-width="1"></path><path stroke="#000000" stroke-linecap="round" d="M22.3946 5.57135c0.1327 -0.54394 0.2732 -1.36052 0.37 -1.912" stroke-width="1"></path><path stroke="#000000" stroke-linejoin="round" d="M16.3615 0.98938s-1.8729 0.82313 -1.8729 2.98386 1.8729 2.98387 1.8729 2.98387 1.8729 -0.82314 1.8729 -2.98387S16.3615 0.98938 16.3615 0.98938Z" stroke-width="1"></path><path stroke="#000000" stroke-linejoin="round" d="M22.4466 16.6218s-1.0296 -0.263 -2.9548 -0.027c-1.9252 0.236 -2.1826 0.9458 -2.368 1.2544 -0.1874 0.3119 -0.5299 1.5955 -0.3178 2.0597 0.2176 0.4764 2.5041 0.3634 3.7889 -0.0388 1.2847 -0.4021 1.8517 -3.2483 1.8517 -3.2483Z" stroke-width="1"></path><path stroke="#000000" stroke-linejoin="round" d="M22.4466 11.0004s-1.0296 -0.2629 -2.9548 -0.0269c-1.9252 0.2359 -2.1826 0.9458 -2.368 1.2543 -0.1874 0.3119 -0.5299 1.5956 -0.3178 2.0598 0.2176 0.4763 2.5041 0.3633 3.7889 -0.0388 1.2847 -0.4021 1.8517 -3.2484 1.8517 -3.2484Z" stroke-width="1"></path><path stroke="#000000" stroke-linejoin="round" d="M22.4466 5.34681s-1.0296 -0.26294 -2.9548 -0.02698 -2.1826 0.94584 -2.368 1.25436c-0.1874 0.31191 -0.5299 1.59556 -0.3178 2.05979 0.2176 0.47634 2.5041 0.36331 3.7889 -0.03881 1.2847 -0.40213 1.8517 -3.24836 1.8517 -3.24836Z" stroke-width="1"></path><path stroke="#000000" stroke-linecap="round" d="M10.3284 16.8463c-0.1327 -0.5439 -0.2732 -1.3605 -0.36997 -1.912" stroke-width="1"></path><path stroke="#000000" stroke-linecap="round" d="M2.22094 20.6271c-0.23742 -0.4092 -0.54607 -1.0375 -0.75612 -1.4614" stroke-width="1"></path><path stroke="#000000" stroke-linecap="round" d="M2.9011 14.1771c-0.05272 -0.4701 -0.08248 -1.1696 -0.10424 -1.6421" stroke-width="1"></path><path stroke="#000000" stroke-linecap="round" d="M10.3284 11.225c-0.1327 -0.544 -0.2732 -1.36054 -0.36997 -1.91203" stroke-width="1"></path><path stroke="#000000" stroke-linecap="round" d="M10.3284 5.57135c-0.1327 -0.54394 -0.2732 -1.36052 -0.36997 -1.912" stroke-width="1"></path><path stroke="#000000" stroke-linejoin="round" d="M10.2764 16.6218s1.0296 -0.263 2.9548 -0.027c1.9252 0.236 2.1826 0.9458 2.368 1.2544 0.1874 0.3119 0.5299 1.5955 0.3178 2.0597 -0.2176 0.4764 -2.5041 0.3634 -3.7889 -0.0388 -1.2847 -0.4021 -1.8517 -3.2483 -1.8517 -3.2483Z" stroke-width="1"></path><path stroke="#000000" stroke-linejoin="round" d="M2.12517 20.4576s0.77179 -0.4588 2.3885 -0.7269c1.61671 -0.2682 1.99475 0.2458 2.21861 0.4516 0.22634 0.2081 0.81017 1.1668 0.74907 1.5937 -0.0627 0.438 -1.94295 0.8919 -3.08022 0.8726 -1.13727 -0.0194 -2.27596 -2.191 -2.27596 -2.191Z" stroke-width="1"></path><path stroke="#000000" stroke-linejoin="round" d="M2.88162 13.9833s0.89116 -0.1095 2.47912 0.2955c1.58795 0.405 1.72726 1.0277 1.8494 1.3062 0.12348 0.2815 0.27225 1.3941 0.04457 1.7603 -0.23362 0.3758 -2.13763 0.0349 -3.17099 -0.4404 -1.03337 -0.4753 -1.2021 -2.9216 -1.2021 -2.9216Z" stroke-width="1"></path><path stroke="#000000" stroke-linejoin="round" d="M10.2764 11.0004s1.0296 -0.2629 2.9548 -0.0269c1.9252 0.2359 2.1826 0.9458 2.368 1.2543 0.1874 0.3119 0.5299 1.5956 0.3178 2.0598 -0.2176 0.4763 -2.5041 0.3633 -3.7889 -0.0388 -1.2847 -0.4021 -1.8517 -3.2484 -1.8517 -3.2484Z" stroke-width="1"></path><path stroke="#000000" stroke-linejoin="round" d="M10.2764 5.34681s1.0296 -0.26294 2.9548 -0.02698 2.1826 0.94584 2.368 1.25436c0.1874 0.31191 0.5299 1.59556 0.3178 2.05979 -0.2176 0.47634 -2.5041 0.36331 -3.7889 -0.03881 -1.2847 -0.40213 -1.8517 -3.24836 -1.8517 -3.24836Z" stroke-width="1"></path></svg>