<svg xmlns="http://www.w3.org/2000/svg" fill="none" viewBox="0 0 24 24" id="Calories-Kilocalorie-Burn--Streamline-Ultimate"><desc>Calories Kilocalorie Burn Streamline Icon: https://streamlinehq.com</desc><path stroke="#000000" stroke-linecap="round" stroke-linejoin="round" d="M7.25 17.25v3m0 3v-3m3 -3 -3 3m0 0 3 3" stroke-width="1"></path><path stroke="#000000" stroke-linecap="round" stroke-linejoin="round" d="M14.25 19.25h-0.5c-1.1046 0 -2 0.8954 -2 2s0.8954 2 2 2h0.5" stroke-width="1"></path><path stroke="#000000" stroke-linecap="round" stroke-linejoin="round" d="m16.25 23.25 0.375 -1m2.625 1 -0.375 -1m-2.25 0 1.125 -3 1.125 3m-2.25 0h2.25" stroke-width="1"></path><path stroke="#000000" stroke-linecap="round" stroke-linejoin="round" d="M21.25 19.25v4h2" stroke-width="1"></path><path stroke="#000000" stroke-linecap="round" stroke-linejoin="round" d="M3.93854 21C1.48807 18.9667 0.75 15.635 0.75 13.628 0.75 7.18902 6.57353 0.75 11.8676 0.75c-4.23525 3.7561 -2.64701 8.58537 -1.0588 8.58537 1.7622 0 2.6471 -1.96748 3.1765 -3.21952 1.5882 0.53659 4.7647 3.21952 4.7647 7.51215 0 0.5443 -0.0681 1.3991 -0.3079 2.372" stroke-width="1"></path></svg>