<svg xmlns="http://www.w3.org/2000/svg" fill="none" viewBox="0 0 24 24" id="Calories-Kilocalorie-Square--Streamline-Ultimate"><desc>Calories Kilocalorie Square Streamline Icon: https://streamlinehq.com</desc><path stroke="#000000" stroke-linejoin="round" d="M0.75 2.75c0 -1.10457 0.89543 -2 2 -2h18.5c1.1046 0 2 0.89543 2 2v18.5c0 1.1046 -0.8954 2 -2 2H2.75c-1.10457 0 -2 -0.8954 -2 -2V2.75Z" stroke-width="1"></path><path stroke="#000000" stroke-linecap="round" stroke-linejoin="round" d="M4 9v3m0 3v-3m3 -3 -3 3m0 0 3 3" stroke-width="1"></path><path stroke="#000000" stroke-linecap="round" stroke-linejoin="round" d="M11 11h-0.5c-1.10457 0 -2 0.8954 -2 2s0.89543 2 2 2h0.5" stroke-width="1"></path><path stroke="#000000" stroke-linecap="round" stroke-linejoin="round" d="m13 15 0.375 -1M16 15l-0.375 -1m-2.25 0 1.125 -3 1.125 3m-2.25 0h2.25" stroke-width="1"></path><path stroke="#000000" stroke-linecap="round" stroke-linejoin="round" d="M18 11v4h2" stroke-width="1"></path></svg>