<svg xmlns="http://www.w3.org/2000/svg" fill="none" viewBox="0 0 24 24" id="Calories-Kilojoule-Square--Streamline-Ultimate"><desc>Calories Kilojoule Square Streamline Icon: https://streamlinehq.com</desc><path stroke="#000000" stroke-linecap="round" stroke-linejoin="round" d="M0.75 16 4 23.25h16L23.25 16C22 14 16.9091 11.25 12 11.25 7.09091 11.25 2 14 0.75 16Z" stroke-width="1"></path><path stroke="#000000" stroke-linecap="round" stroke-linejoin="round" d="M12 14v2" stroke-width="1"></path><path stroke="#000000" stroke-linecap="round" stroke-linejoin="round" d="m8.20001 14.5 0.5 2" stroke-width="1"></path><path stroke="#000000" stroke-linecap="round" stroke-linejoin="round" d="m4.5 16 1 1.5" stroke-width="1"></path><path stroke="#000000" stroke-linecap="round" stroke-linejoin="round" d="m15.5 14.5 -0.5 2" stroke-width="1"></path><path stroke="#000000" stroke-linecap="round" stroke-linejoin="round" d="m19.2 16 -1 1.5" stroke-width="1"></path><path stroke="#000000" stroke-linecap="round" stroke-linejoin="round" d="M12 23.25 7.5 19" stroke-width="1"></path><g><path stroke="#000000" stroke-linecap="round" stroke-linejoin="round" d="M8.125 0.75V4.5m0 2.25V4.5m2.75 -2 -2.75 2m0 0 2.75 2.25" stroke-width="1"></path><path stroke="#000000" stroke-linecap="round" stroke-linejoin="round" d="M13.875 0.75h2v4.5c0 0.82843 -0.6716 1.5 -1.5 1.5s-1.5 -0.67157 -1.5 -1.5" stroke-width="1"></path></g></svg>