<svg xmlns="http://www.w3.org/2000/svg" fill="none" viewBox="0 0 24 24" id="Fat-Liquid-Drop-Percentage-2--Streamline-Ultimate"><desc>Fat Liquid Drop Percentage 2 Streamline Icon: https://streamlinehq.com</desc><path stroke="#000000" stroke-linecap="round" stroke-linejoin="round" d="M9.70001 12.9C9.3134 12.9 9 12.5866 9 12.2c0 -0.3866 0.3134 -0.7 0.70001 -0.7" stroke-width="1"></path><path stroke="#000000" stroke-linecap="round" stroke-linejoin="round" d="M9.69999 12.9c0.38661 0 0.70001 -0.3134 0.70001 -0.7 0 -0.3866 -0.3134 -0.7 -0.70001 -0.7" stroke-width="1"></path><path stroke="#000000" stroke-linecap="round" stroke-linejoin="round" d="M14.3 17.5c-0.3866 0 -0.7 -0.3134 -0.7 -0.7 0 -0.3866 0.3134 -0.7 0.7 -0.7" stroke-width="1"></path><path stroke="#000000" stroke-linecap="round" stroke-linejoin="round" d="M14.3 17.5c0.3866 0 0.7 -0.3134 0.7 -0.7 0 -0.3866 -0.3134 -0.7 -0.7 -0.7" stroke-width="1"></path><path stroke="#000000" stroke-linecap="round" stroke-linejoin="round" d="m9 17.5 6 -6" stroke-width="1"></path><path stroke="#000000" stroke-linecap="round" stroke-linejoin="round" d="M3.75 15.0682c0 5.625 3.69365 8.1818 8.25 8.1818 4.5563 0 8.25 -2.5568 8.25 -8.1818C20.25 9.44318 12 0.75 12 0.75S3.75 9.44318 3.75 15.0682Z" stroke-width="1"></path></svg>