<svg xmlns="http://www.w3.org/2000/svg" fill="none" viewBox="0 0 24 24" id="Fat-Liquid-Drop-Percentage-1--Streamline-Ultimate"><desc>Fat Liquid Drop Percentage 1 Streamline Icon: https://streamlinehq.com</desc><path stroke="#000000" stroke-linecap="round" stroke-linejoin="round" d="M15.1595 4.5C13.4646 2.29324 12 0.75 12 0.75S3.75 9.44318 3.75 15.0682c0 5.625 3.69365 8.1818 8.25 8.1818 4.5563 0 8.25 -2.5568 8.25 -8.1818 0 -1.5399 -0.6183 -3.3097 -1.5163 -5.0682" stroke-width="1"></path><path stroke="#000000" stroke-linecap="round" stroke-linejoin="round" d="M17 7.80005c-0.2761 0 -0.5 -0.22386 -0.5 -0.5s0.2239 -0.5 0.5 -0.5" stroke-width="1"></path><path stroke="#000000" stroke-linecap="round" stroke-linejoin="round" d="M17 7.80005c0.2761 0 0.5 -0.22386 0.5 -0.5s-0.2239 -0.5 -0.5 -0.5" stroke-width="1"></path><g><path stroke="#000000" stroke-linecap="round" stroke-linejoin="round" d="M9.70001 12.9C9.3134 12.9 9 12.5866 9 12.2c0 -0.3866 0.3134 -0.7 0.70001 -0.7" stroke-width="1"></path><path stroke="#000000" stroke-linecap="round" stroke-linejoin="round" d="M9.70002 12.9c0.38658 0 0.69998 -0.3134 0.69998 -0.7 0 -0.3866 -0.3134 -0.7 -0.69998 -0.7" stroke-width="1"></path><path stroke="#000000" stroke-linecap="round" stroke-linejoin="round" d="M14.3 17.5c-0.3866 0 -0.7 -0.3134 -0.7 -0.7 0 -0.3866 0.3134 -0.7 0.7 -0.7" stroke-width="1"></path><path stroke="#000000" stroke-linecap="round" stroke-linejoin="round" d="M14.3 17.5c0.3866 0 0.7 -0.3134 0.7 -0.7 0 -0.3866 -0.3134 -0.7 -0.7 -0.7" stroke-width="1"></path><path stroke="#000000" stroke-linecap="round" stroke-linejoin="round" d="m9 17.5 6 -6" stroke-width="1"></path></g></svg>