<svg xmlns="http://www.w3.org/2000/svg" fill="none" viewBox="0 0 24 24" id="Oat-1--Streamline-Ultimate"><desc>Oat 1 Streamline Icon: https://streamlinehq.com</desc><path stroke="#000000" stroke-linecap="round" d="M8.01886 7.17151c0.76059 0.13439 1.19969 0.7184 1.50817 2.24207" stroke-width="1"></path><path stroke="#000000" stroke-linecap="round" d="M1.10437 22.9894C1.99485 15.7275 5.50838 5.41569 15.6071 2.67755" stroke-width="1"></path><path stroke="#000000" stroke-linecap="round" d="M3.01727 15.3288c0.56792 -0.5048 2.83959 -1.9561 5.02016 0.2417" stroke-width="1"></path><path stroke="#000000" stroke-linecap="round" d="M4.81293 14.4844 5.2973 17.75" stroke-width="1"></path><path stroke="#000000" stroke-linecap="round" d="M10.5274 5.07478c0.8515 -0.1969 2.9796 -0.01604 4.2266 0.92908" stroke-width="1"></path><path stroke="#000000" stroke-linejoin="round" d="M21.5642 2.42604s-1.4397 -0.93038 -3.2599 -1.447019C17.1884 0.662312 15.6742 0.945698 15.6541 2.30809c-0.0342 1.3621 1.4674 1.70568 2.595 1.43375 1.8395 -0.4436 3.3151 -1.3158 3.3151 -1.3158Z" stroke-width="1"></path><path stroke="#000000" stroke-linejoin="round" d="M18.9623 9.63467s-0.3879 -1.60708 -1.3268 -3.12311c-0.5756 -0.92936 -1.8413 -1.63275 -2.7816 -0.57959 -0.9501 1.04432 -0.1194 2.23038 0.8646 2.70656 1.6052 0.77679 3.2438 0.99614 3.2438 0.99614Z" stroke-width="1"></path><path stroke="#000000" stroke-linejoin="round" d="M14.5852 7.53994c-1.8615 0.44171 -1.6036 2.27211 -0.9692 3.16236 1.0349 1.4521 2.3669 2.4314 2.3669 2.4314s0.4315 -1.5959 0.336 -3.37652c-0.0151 -0.28243 -0.1323 -0.66049 -0.2404 -0.92906" stroke-width="1"></path><path stroke="#000000" stroke-linejoin="round" d="M6.67441 23.0308s0.59227 -1.5201 0.68702 -3.2773c0.05808 -1.0772 -0.57019 -2.3606 -1.92559 -2.0381 -1.35837 0.3098 -1.3546 1.7388 -0.82635 2.6793 0.86171 1.5344 2.06492 2.6361 2.06492 2.6361Z" stroke-width="1"></path><path stroke="#000000" stroke-linejoin="round" d="M10.1768 20.5962s0.3442 -1.5948 0.1597 -3.3448c-0.1131 -1.0728 -0.93655 -2.2407 -2.22384 -1.7077 -1.29222 0.5208 -1.06236 1.9312 -0.39194 2.7763 1.09366 1.3787 2.45608 2.2762 2.45608 2.2762Z" stroke-width="1"></path><path stroke="#000000" stroke-linejoin="round" d="M10.6545 14.2646s0.5396 -1.3848 0.6259 -2.9856c0.0529 -0.9814 -0.5194 -2.1506 -1.75421 -1.85678 -1.23747 0.28225 -1.23404 1.58408 -0.75281 2.44088 0.78502 1.3978 1.88112 2.4015 1.88112 2.4015Z" stroke-width="1"></path></svg>