<svg xmlns="http://www.w3.org/2000/svg" fill="none" viewBox="0 0 24 24" id="Rye-2--Streamline-Ultimate"><desc>Rye 2 Streamline Icon: https://streamlinehq.com</desc><path stroke="#000000" stroke-linejoin="round" d="M5.16115 23.0167C-0.71328 24.0429 0.752357 11.5252 3.11188 8.60375 6.19219 10.7517 11.0888 22.3649 5.16115 23.0167Z" stroke-width="1"></path><path stroke="#000000" stroke-linejoin="round" d="M11.5593 15.4839C5.60849 15.0969 9.9827 3.27702 12.9642 0.993914 15.4516 3.80727 17.4736 16.2473 11.5593 15.4839Z" stroke-width="1"></path><path stroke="#000000" stroke-linejoin="round" d="M2.05258 21.6438c0.65245 1.0524 1.65617 1.6266 3.10857 1.3729 1.46556 -0.1612 2.26946 -0.9924 2.60272 -2.1849 -0.65245 -1.0524 -1.65617 -1.6266 -3.10857 -1.3729 -1.46556 0.1612 -2.26946 0.9924 -2.60272 2.1849Z" stroke-width="1"></path><path stroke="#000000" stroke-linejoin="round" d="M8.86184 13.4171c0.38608 1.1765 1.22626 1.9711 2.69746 2.0668 1.4623 0.1887 2.4394 -0.4297 3.0443 -1.5101 -0.386 -1.1765 -1.2262 -1.971 -2.6975 -2.0667 -1.4622 -0.1888 -2.43936 0.4296 -3.04426 1.51Z" stroke-width="1"></path><path stroke="#000000" stroke-linecap="round" d="M3.54567 12.3013c0.54293 3.8186 0.66681 4.6896 1.01923 7.1684" stroke-width="1"></path><path stroke="#000000" stroke-linecap="round" d="M12.5145 4.68958c-0.3723 3.83907 -0.4571 4.71465 -0.6988 7.20672" stroke-width="1"></path><path stroke="#000000" stroke-linejoin="round" d="M17.5049 22.7814c-5.7627 -1.5341 0.8214 -12.2808 4.1891 -13.94218 1.8944 3.24248 1.4648 15.83838 -4.1891 13.94218Z" stroke-width="1"></path><path stroke="#000000" stroke-linejoin="round" d="M15.2596 20.2305c0.1505 1.2291 0.8206 2.1715 2.2454 2.5508 1.3978 0.4688 2.4763 0.0518 3.2793 -0.8908 -0.1505 -1.229 -0.8205 -2.1714 -2.2453 -2.5507 -1.3979 -0.4688 -2.4764 -0.0518 -3.2794 0.8907Z" stroke-width="1"></path><path stroke="#000000" stroke-linecap="round" d="M20.5359 12.3773c-1.1099 3.694 -1.363 4.5364 -2.0835 6.9343" stroke-width="1"></path></svg>