<svg xmlns="http://www.w3.org/2000/svg" fill="none" viewBox="0 0 24 24" id="Rye-1--Streamline-Ultimate"><desc>Rye 1 Streamline Icon: https://streamlinehq.com</desc><path stroke="#000000" stroke-linecap="round" d="m12 23.1782 0 -14.47385" stroke-width="1"></path><path stroke="#000000" stroke-linejoin="round" d="M12 2.44104s-1.5166 0.86391 -1.5166 3.13167C10.4834 7.84048 12 8.70439 12 8.70439s1.5165 -0.86391 1.5165 -3.13168C13.5165 3.30495 12 2.44104 12 2.44104Z" stroke-width="1"></path><path stroke="#000000" stroke-linejoin="round" d="M5.44992 17.2031s0.05303 1.9717 2.38432 3.1701c2.33126 1.1984 4.05446 0.1398 4.05446 0.1398s-0.053 -1.9717 -2.3843 -3.1701c-2.33129 -1.1984 -4.05448 -0.1398 -4.05448 -0.1398Z" stroke-width="1"></path><path stroke="#000000" stroke-linejoin="round" d="M6.04605 12.0906s0.02584 1.7278 2.05553 2.802c2.02972 1.0742 3.55032 0.1648 3.55032 0.1648s-0.0259 -1.7277 -2.05557 -2.8019c-2.02969 -1.0742 -3.55028 -0.1649 -3.55028 -0.1649Z" stroke-width="1"></path><path stroke="#000000" stroke-linejoin="round" d="M6.93806 7.22098S6.89007 8.81412 8.71571 9.8883c1.82569 1.0742 3.26459 0.2995 3.26459 0.2995s0.048 -1.59317 -1.7776 -2.66735c-1.82567 -1.07418 -3.26464 -0.29947 -3.26464 -0.29947Z" stroke-width="1"></path><path stroke="#000000" stroke-linecap="round" d="m5.48935 17.2818 -1.74497 -1.0731" stroke-width="1"></path><path stroke="#000000" stroke-linecap="round" d="m6.07982 12.16 -1.51738 -0.9582" stroke-width="1"></path><path stroke="#000000" stroke-linecap="round" d="m6.96627 7.28636 -1.35839 -0.94603" stroke-width="1"></path><path stroke="#000000" stroke-linejoin="round" d="M18.55 17.2031s-0.053 1.9717 -2.3843 3.1701c-2.3313 1.1984 -4.0545 0.1398 -4.0545 0.1398s0.0531 -1.9717 2.3844 -3.1701c2.3313 -1.1984 4.0544 -0.1398 4.0544 -0.1398Z" stroke-width="1"></path><path stroke="#000000" stroke-linejoin="round" d="M17.9539 12.0906s-0.0258 1.7278 -2.0555 2.802 -3.5503 0.1648 -3.5503 0.1648 0.0258 -1.7277 2.0555 -2.8019c2.0297 -1.0742 3.5503 -0.1649 3.5503 -0.1649Z" stroke-width="1"></path><path stroke="#000000" stroke-linejoin="round" d="M17.0619 7.22098s0.048 1.59314 -1.7776 2.66732c-1.8257 1.0742 -3.2647 0.2995 -3.2647 0.2995s-0.048 -1.59317 1.7777 -2.66735c1.8256 -1.07418 3.2646 -0.29947 3.2646 -0.29947Z" stroke-width="1"></path><path stroke="#000000" stroke-linecap="round" d="m18.5106 17.2818 1.745 -1.0731" stroke-width="1"></path><path stroke="#000000" stroke-linecap="round" d="m17.9202 12.16 1.5173 -0.9582" stroke-width="1"></path><path stroke="#000000" stroke-linecap="round" d="m17.0337 7.28636 1.3584 -0.94603" stroke-width="1"></path><path stroke="#000000" stroke-linecap="round" d="M12.0071 2.50928V0.821777" stroke-width="1"></path></svg>