<svg viewBox="0 0 24 24" xmlns="http://www.w3.org/2000/svg" id="Camera-2--Streamline-Ultimate"><desc>Camera 2 Streamline Icon: https://streamlinehq.com</desc><path d="m0.75 6.75 4.5 0 0 13.5 -4.5 0Z" fill="none" stroke="#000000" stroke-linecap="round" stroke-linejoin="round" stroke-width="1"></path><path d="M11.364 5.971 5.219 7.508" fill="none" stroke="#000000" stroke-linecap="round" stroke-linejoin="round" stroke-width="1"></path><path d="M17.157 19.5h4.093a2 2 0 0 0 2 -2V9.117a2 2 0 0 0 -1.581 -1.956l-4.528 -1.178" fill="none" stroke="#000000" stroke-linecap="round" stroke-linejoin="round" stroke-width="1"></path><path d="m5.217 19.5 6.126 0" fill="none" stroke="#000000" stroke-linecap="round" stroke-linejoin="round" stroke-width="1"></path><path d="M8.25 14.25a6 6 0 1 0 12 0 6 6 0 1 0 -12 0Z" fill="none" stroke="#000000" stroke-linecap="round" stroke-linejoin="round" stroke-width="1"></path><path d="M11.25 14.25a3 3 0 1 0 6 0 3 3 0 1 0 -6 0Z" fill="none" stroke="#000000" stroke-linecap="round" stroke-linejoin="round" stroke-width="1"></path><path d="m10.078 9.938 1.638 -5.052a1.5 1.5 0 0 1 1.455 -1.136h2.158a1.5 1.5 0 0 1 1.455 1.136l1.656 5.069" fill="none" stroke="#000000" stroke-linecap="round" stroke-linejoin="round" stroke-width="1"></path></svg>