<svg viewBox="0 0 24 24" xmlns="http://www.w3.org/2000/svg" id="Camera-Carry--Streamline-Ultimate"><desc>Camera Carry Streamline Icon: https://streamlinehq.com</desc><path d="M18 23.25h3.75a1.5 1.5 0 0 0 1.5 -1.5V12a1.5 1.5 0 0 0 -1.494 -1.5H15.8l-1.2 -2.461a0.959 0.959 0 0 0 -0.862 -0.539h-3.7a0.96 0.96 0 0 0 -0.862 0.539L7.973 10.5H2.25A1.5 1.5 0 0 0 0.75 12l0 9.751a1.5 1.5 0 0 0 1.5 1.5h3.812" fill="none" stroke="#000000" stroke-linecap="round" stroke-linejoin="round" stroke-width="1"></path><path d="m10.875 10.5 2.25 0" fill="none" stroke="#000000" stroke-linecap="round" stroke-linejoin="round" stroke-width="1"></path><path d="m2.736 10.5 8.488 -9.4a1.044 1.044 0 0 1 1.551 0l8.488 9.4" fill="none" stroke="#000000" stroke-linecap="round" stroke-linejoin="round" stroke-width="1"></path><path d="M7.125 18.375a4.875 4.875 0 1 0 9.75 0 4.875 4.875 0 1 0 -9.75 0Z" fill="none" stroke="#000000" stroke-linecap="round" stroke-linejoin="round" stroke-width="1"></path></svg>