<svg xmlns="http://www.w3.org/2000/svg" fill="none" viewBox="0 0 24 24" id="Photo-Handheld-Stabilizer--Streamline-Ultimate"><desc>Photo Handheld Stabilizer Streamline Icon: https://streamlinehq.com</desc><path stroke="#000000" stroke-linecap="round" stroke-linejoin="round" d="M10.949 11.553c1.933 0 3.5 -1.56701 3.5 -3.50001 0 -1.93299 -1.567 -3.5 -3.5 -3.5 -1.93299 0 -3.49999 1.56701 -3.49999 3.5 0 1.933 1.567 3.50001 3.49999 3.50001Z" stroke-width="1"></path><path stroke="#000000" stroke-linecap="round" stroke-linejoin="round" d="M14.8 2.853 14 1.358c-0.0911 -0.18227 -0.2311 -0.33563 -0.4044 -0.44299C13.4224 0.807653 13.2228 0.750526 13.019 0.75h-4.14c-0.2043 -0.00003 -0.40457 0.056835 -0.57837 0.164222 -0.17379 0.107388 -0.31425 0.261058 -0.40563 0.443778l-0.8 1.5H1.85c-0.29174 0 -0.57153 0.11589 -0.77782 0.32218C0.865893 3.38647 0.75 3.66626 0.75 3.958V12.9c0 0.2917 0.115893 0.5715 0.32218 0.7778 0.20629 0.2063 0.48608 0.3222 0.77782 0.3222h14.8c0.1445 0 0.2875 -0.0285 0.421 -0.0837 0.1334 -0.0553 0.2547 -0.1363 0.3568 -0.2385 0.1022 -0.1021 0.1832 -0.2234 0.2385 -0.3568 0.0552 -0.1335 0.0837 -0.2765 0.0837 -0.421V3.953c0 -0.14445 -0.0285 -0.28749 -0.0837 -0.42095 -0.0553 -0.13346 -0.1363 -0.25472 -0.2385 -0.35687 -0.1021 -0.10214 -0.2234 -0.18317 -0.3568 -0.23845 -0.1335 -0.05528 -0.2765 -0.08373 -0.421 -0.08373H14.8Z" stroke-width="1"></path><path stroke="#000000" d="M3.72 6.774c-0.27614 0 -0.5 -0.22386 -0.5 -0.5s0.22386 -0.5 0.5 -0.5" stroke-width="1"></path><path stroke="#000000" d="M3.72 6.774c0.27614 0 0.5 -0.22386 0.5 -0.5s-0.22386 -0.5 -0.5 -0.5" stroke-width="1"></path><path stroke="#000000" stroke-linecap="round" stroke-linejoin="round" d="M4 2.85301V0.753006" stroke-width="1"></path><path stroke="#000000" stroke-linecap="round" stroke-linejoin="round" d="M12.549 23.25V17.5H9.04901v5.75" stroke-width="1"></path><path stroke="#000000" stroke-linecap="round" stroke-linejoin="round" d="M5.94 14v1.361c0 0.5673 0.22536 1.1114 0.6265 1.5125 0.40114 0.4011 0.9452 0.6265 1.5125 0.6265h5.5c0.5673 0 1.1114 -0.2254 1.5125 -0.6265 0.4011 -0.4011 0.6265 -0.9452 0.6265 -1.5125V14" stroke-width="1"></path><path stroke="#000000" stroke-linecap="round" stroke-linejoin="round" d="M13.584 17.5h6.731c0.7784 0 1.5249 -0.3092 2.0753 -0.8596 0.5505 -0.5505 0.8597 -1.297 0.8597 -2.0754v-3.782c0 -0.519 -0.2062 -1.0168 -0.5732 -1.3838 -0.367 -0.36701 -0.8648 -0.5732 -1.3838 -0.5732" stroke-width="1"></path><path stroke="#000000" stroke-linecap="round" stroke-linejoin="round" d="M17.75 6.38h1.1c0.6487 0 1.2709 0.25771 1.7296 0.71642 0.4587 0.45872 0.7164 1.08087 0.7164 1.72958 0 0.32122 -0.0633 0.63929 -0.1862 0.93605 -0.1229 0.29675 -0.3031 0.56645 -0.5302 0.79355 -0.2271 0.2271 -0.4968 0.4073 -0.7936 0.5302 -0.2967 0.1229 -0.6148 0.1862 -0.936 0.1862h-1.1V6.38Z" stroke-width="1"></path></svg>