<svg xmlns="http://www.w3.org/2000/svg" viewBox="0 0 24 24" id="Show-Rabbit-Hat--Streamline-Ultimate"><desc>Show Rabbit Hat Streamline Icon: https://streamlinehq.com</desc><g><path d="M6.5 14.24H17l0 0v8a1 1 0 0 1 -1 1H7.5a1 1 0 0 1 -1 -1v-8l0 0Z" fill="none" stroke="#000000" stroke-linecap="round" stroke-linejoin="round" stroke-width="1"></path><path d="m3.5 14.24 16.5 0" fill="none" stroke="#000000" stroke-linecap="round" stroke-linejoin="round" stroke-width="1"></path><path d="m7.81 11.31 -2.64 -7A2.66 2.66 0 0 1 7 0.83h0a2.65 2.65 0 0 1 3.28 2.25l0.76 6" fill="none" stroke="#000000" stroke-linecap="round" stroke-linejoin="round" stroke-width="1"></path><path d="m15.69 11.31 2.64 -7A2.66 2.66 0 0 0 16.47 0.83h0a2.67 2.67 0 0 0 -3.29 2.25l-0.76 6" fill="none" stroke="#000000" stroke-linecap="round" stroke-linejoin="round" stroke-width="1"></path><path d="m6.5 17.24 10.5 0" fill="none" stroke="#000000" stroke-linecap="round" stroke-linejoin="round" stroke-width="1"></path><path d="M16.25 14.24v-0.75a4.5 4.5 0 0 0 -9 0v0.75" fill="none" stroke="#000000" stroke-linecap="round" stroke-linejoin="round" stroke-width="1"></path></g></svg>