<svg viewBox="0 0 24 24" xmlns="http://www.w3.org/2000/svg" id="Show-Person--Streamline-Ultimate"><desc>Show Person Streamline Icon: https://streamlinehq.com</desc><path d="M6.75 0.75v21a1.5 1.5 0 0 1 -3 0" fill="none" stroke="#000000" stroke-linecap="round" stroke-linejoin="round" stroke-width="1"></path><path d="m3.75 21.75 0 -15" fill="none" stroke="#000000" stroke-linecap="round" stroke-linejoin="round" stroke-width="1"></path><path d="M3.75 21.75a1.5 1.5 0 0 1 -3 0V2.25a1.5 1.5 0 0 1 1.5 -1.5h19.5a1.5 1.5 0 0 1 1.5 1.5v19.5a1.5 1.5 0 0 1 -3 0v-1.5" fill="none" stroke="#000000" stroke-linecap="round" stroke-linejoin="round" stroke-width="1"></path><path d="m6.75 21 3.75 0" fill="none" stroke="#000000" stroke-linecap="round" stroke-linejoin="round" stroke-width="1"></path><path d="M12 17.25V15a3.75 3.75 0 0 1 7.5 0v2.25H18l-0.75 6h-3l-0.75 -6Z" fill="none" stroke="#000000" stroke-linecap="round" stroke-linejoin="round" stroke-width="1"></path><path d="M12.75 6.75a3 3 0 1 0 6 0 3 3 0 1 0 -6 0Z" fill="none" stroke="#000000" stroke-linecap="round" stroke-linejoin="round" stroke-width="1"></path></svg>