<svg xmlns="http://www.w3.org/2000/svg" fill="none" viewBox="0 0 24 24" id="Brush-Toothpaste-2--Streamline-Ultimate"><desc>Brush Toothpaste 2 Streamline Icon: https://streamlinehq.com</desc><path stroke="#000000" stroke-linecap="round" stroke-linejoin="round" d="m23.1069 20.3204 -10.5532 0 -2.4528 2.4529 -8.95942 0" stroke-width="1"></path><path stroke="#000000" stroke-linecap="round" stroke-linejoin="round" d="m7.358 19.179 -5.571 0 0 3.594 5.571 0z" stroke-width="1"></path><path stroke="#000000" stroke-linecap="round" stroke-linejoin="round" d="m4.96948 19.179 0 1.5411" stroke-width="1"></path><path stroke="#000000" stroke-linecap="round" stroke-linejoin="round" d="m2.2685 12.9492 1.14828 -0.7192 -0.05016 0.0909c-0.40187 0.7275 0.12435 1.6193 0.95547 1.6193l2.1241 0c0.7376 0 1.33555 0.5979 1.33555 1.3355 0 0.7376 -0.59795 1.3356 -1.33555 1.3356l-3.15527 0c-1.06385 0 -1.92627 -0.8624 -1.92627 -1.9263v-0.1033c0 -0.6635 0.3415 -1.2803 0.90385 -1.6325Z" stroke-width="1"></path><path stroke="#000000" stroke-linecap="round" stroke-linejoin="round" d="m13.4231 12.8925 -2.1837 -2.1837 -1.2235 1.2235c-0.39052 0.3905 -0.39051 1.0237 0 1.4142l0.7695 0.7695c0.3905 0.3905 1.0236 0.3905 1.4142 0l1.2235 -1.2235Z" stroke-width="1"></path><path stroke="#000000" stroke-linecap="round" stroke-linejoin="round" d="m13.959 13.4283 -3.2555 -3.2554 6.5284 -8.90013c0.0785 -0.10703 0.1792 -0.19582 0.2952 -0.26029 0.116 -0.064474 0.2446 -0.103105 0.3769 -0.113246 0.1323 -0.010142 0.2653 0.008445 0.3898 0.054487 0.1245 0.046043 0.2375 0.118449 0.3314 0.212269l4.3407 4.34065c0.0938 0.09389 0.1662 0.20695 0.2122 0.33143 0.0461 0.12448 0.0647 0.25745 0.0545 0.38978 -0.0101 0.13234 -0.0487 0.26092 -0.1132 0.37693 -0.0645 0.11602 -0.1533 0.21672 -0.2603 0.29522l-8.9001 6.5283Z" stroke-width="1"></path><path stroke="#000000" stroke-linecap="round" stroke-linejoin="round" d="m16.2136 2.66095 5.2592 5.25914" stroke-width="1"></path></svg>