<svg viewBox="0 0 24 24" xmlns="http://www.w3.org/2000/svg" id="Dentistry-Tooth-Shield--Streamline-Ultimate"><desc>Dentistry Tooth Shield Streamline Icon: https://streamlinehq.com</desc><path d="M17.25 8.58a3.134 3.134 0 0 0 -3.029 -3.231A2.931 2.931 0 0 0 12 6.4a2.931 2.931 0 0 0 -2.221 -1.051A3.134 3.134 0 0 0 6.75 8.58a6.723 6.723 0 0 0 1.225 3.452 0.825 0.825 0 0 1 0.09 0.8 6.868 6.868 0 0 0 -0.507 2.617v1.01a1.01 1.01 0 0 0 2.019 0 2.514 2.514 0 0 1 2.293 -2.622 2.433 2.433 0 0 1 2.553 2.622 1.01 1.01 0 0 0 2.019 0v-1.01a6.846 6.846 0 0 0 -0.572 -2.771 0.824 0.824 0 0 1 0.064 -0.835A6.129 6.129 0 0 0 17.25 8.58Z" fill="none" stroke="#000000" stroke-linecap="round" stroke-linejoin="round" stroke-width="1"></path><path d="M2.25 3.923v7.614A11.907 11.907 0 0 0 9.882 22.65l1.041 0.4a3 3 0 0 0 2.154 0l1.041 -0.4a11.907 11.907 0 0 0 7.632 -11.113V3.923a1.486 1.486 0 0 0 -0.868 -1.362A21.7 21.7 0 0 0 12 0.75a21.7 21.7 0 0 0 -8.882 1.811 1.486 1.486 0 0 0 -0.868 1.362Z" fill="none" stroke="#000000" stroke-linecap="round" stroke-linejoin="round" stroke-width="1"></path></svg>