<svg xmlns="http://www.w3.org/2000/svg" fill="none" viewBox="0 0 24 24" id="Dental-Stick--Streamline-Ultimate"><desc>Dental Stick Streamline Icon: https://streamlinehq.com</desc><path stroke="#000000" stroke-linecap="round" stroke-linejoin="round" d="M8.29446 2.53574 5.80377 5.02643c-0.78105 0.78105 -0.78105 2.04738 0 2.82843l3.79206 3.79204c0.78107 0.7811 2.04737 0.7811 2.82847 0l2.4906 -2.49067 0.8162 0.81616c0.7811 0.78101 0.7811 2.04741 0 2.82841l-1.7306 1.7306 4.7841 4.7841c0.8061 0.8061 0.8061 2.1131 0 2.9193 -0.8062 0.8061 -2.1132 0.8061 -2.9193 0L2.82856 9.19798c-1.5621 -1.56209 -1.5621 -4.09475 -0.00001 -5.65685L4.64999 1.7197c0.78105 -0.781051 2.04738 -0.781051 2.82842 0l0.81605 0.81604Z" stroke-width="1"></path><path stroke="#000000" stroke-linecap="round" stroke-linejoin="round" d="M13.7926 10.2699 7.19116 3.66833" stroke-width="1"></path></svg>