<svg xmlns="http://www.w3.org/2000/svg" fill="none" viewBox="0 0 24 24" id="Dental-Floss-Sticks--Streamline-Ultimate"><desc>Dental Floss Sticks Streamline Icon: https://streamlinehq.com</desc><path stroke="#000000" stroke-linecap="round" stroke-linejoin="round" stroke-miterlimit="10" d="M2.55563 13.5042c-0.7033 0.7033 -1.10519 1.708 -1.10519 2.7128v7.033l3.11463 -3.3156 0.20095 -2.4113 6.73168 -6.6312 2.0094 2.0095c0.8038 0.8037 2.1099 0.8037 2.9137 0l1.0047 -0.9043 -2.7127 -2.71272c-0.8038 -0.80378 -0.8038 -2.00945 0 -2.81322l1.0047 -1.00473c0.8038 -0.80377 2.1099 -0.80377 2.9137 0l2.4113 2.51181 0.9043 -0.90425c0.8037 -0.80378 0.8037 -2.00944 0 -2.81322L19.435 1.84944c-0.4019 -0.40189 -1.0048 -0.70331 -1.6076 -0.904251 -1.5071 -0.50236 -3.1146 0 -4.1194 1.105191L2.55563 13.5042Z" stroke-width="1"></path><path stroke="#000000" stroke-linecap="round" stroke-linejoin="round" stroke-miterlimit="10" d="m17.4255 11.9971 3.617 -4.01889" stroke-width="1"></path></svg>