<svg xmlns="http://www.w3.org/2000/svg" fill="none" viewBox="0 0 24 24" id="Dental-Floss-Pick--Streamline-Ultimate"><desc>Dental Floss Pick Streamline Icon: https://streamlinehq.com</desc><path stroke="#000000" stroke-linecap="round" stroke-linejoin="round" stroke-miterlimit="10" d="M15 14.5075c0.4 -0.3601 1 -0.6303 1.6 -0.4502 0.8 0.1801 1.4 0.8104 1.4 1.5307v0.2701c0 0.2702 -0.1 0.6303 -0.3 0.8104 -0.3 0.4502 -0.4 0.9004 -0.1 1.3506 0.1 0.2701 0.2 0.5403 0.3 0.9004C18 19.4598 17.5 20 16.8 20c-0.4 0 -0.7 -0.2701 -0.9 -0.6303 -0.2 -0.2701 -0.6 -0.4502 -0.9 -0.4502 -0.3 0 -0.8 0.1801 -0.9 0.4502 -0.2 0.4502 -0.5 0.6303 -0.9 0.6303 -0.7 0 -1.2 -0.5402 -1.1 -1.0805 0.1 -0.3601 0.2 -0.6303 0.3 -0.9004 0.2 -0.4502 0.2 -0.9904 -0.1 -1.3506 -0.2 -0.2701 -0.3 -0.5402 -0.3 -0.8104v-0.2701c0 -0.7203 0.6 -1.4406 1.4 -1.5307 0.6 -0.09 1.2 0.0901 1.6 0.4502Z" stroke-width="1"></path><path stroke="#000000" stroke-linecap="round" stroke-linejoin="round" stroke-miterlimit="10" d="M23 7.94286C23 6.87429 22.1 6 21 6H9c-1.1 0 -2 0.87429 -2 1.94286V21.0571C7 22.1257 7.9 23 9 23h12c1.1 0 2 -0.8743 2 -1.9429V7.94286Z" stroke-width="1"></path><path stroke="#000000" stroke-linecap="round" stroke-linejoin="round" stroke-miterlimit="10" d="M7.33333 10H4.70256C2.65641 10 1 8.24138 1 6.06897c0 -2.17242 1.65641 -3.82759 3.70256 -3.82759H18.8308C19.5128 2.24138 20 1.62069 20 1" stroke-width="1"></path><path stroke="#000000" stroke-linecap="round" stroke-linejoin="round" stroke-miterlimit="10" d="M23 10h-5.2c0 0.5833 -0.6 1 -1.2 1h-3.5c-0.7 0 -1.2 -0.5 -1.2 -1H7" stroke-width="1"></path></svg>