<svg xmlns="http://www.w3.org/2000/svg" fill="none" viewBox="0 0 24 24" id="Dental-Floss--Streamline-Ultimate"><desc>Dental Floss Streamline Icon: https://streamlinehq.com</desc><path stroke="#000000" stroke-linecap="round" stroke-linejoin="round" stroke-miterlimit="10" d="M17.5501 16.55c1.6 -1.4 2.8 -4.1 2.8 -5.9 0 -2.50001 -2.1 -4.60001 -4.6 -4.60001 -1.3 0 -2.5 0.6 -3.4 1.5 -0.8 -0.9 -2 -1.5 -3.4 -1.5 -2.5 0 -4.6 2 -4.6 4.60001 0 1.3 0.6 3.1 1.6 4.5" stroke-width="1"></path><path stroke="#000000" stroke-linecap="round" stroke-linejoin="round" stroke-miterlimit="10" d="M6.05004 18.25c-0.1 0.4 -0.09999 0.8 -0.19999 1.2 -0.2 1.8 -0.00001 3.8 1.29999 3.8 2.2 0 0.2 -4.6 4.89996 -4.6h0.6c4.7 0 2.7 4.6 4.9 4.6 1.1 0 1.4 -1.3 1.4 -2.8" stroke-width="1"></path><path stroke="#000000" stroke-linecap="round" stroke-linejoin="round" stroke-miterlimit="10" d="M19.5499 1.95001s3.7 0.3 3.7 1.7c0 2 -3.8 3.2 -4.6 3.4" stroke-width="1"></path><path stroke="#000000" stroke-linecap="round" stroke-linejoin="round" stroke-miterlimit="10" d="M4.35 10.45c-1.4 0.2 -3.1 1.2 -3.1 2.2 0 2.4 4.8 2.6 13 3.5 8.1 0.9 9 2.3 9 3.8" stroke-width="1"></path><path stroke="#000000" stroke-linecap="round" stroke-linejoin="round" stroke-miterlimit="10" d="M2.75 0.75v4" stroke-width="1"></path><path stroke="#000000" stroke-linecap="round" stroke-linejoin="round" stroke-miterlimit="10" d="M0.75 2.75h4" stroke-width="1"></path></svg>