<svg xmlns="http://www.w3.org/2000/svg" fill="none" viewBox="0 0 24 24" id="Dental-Brace-3--Streamline-Ultimate"><desc>Dental Brace 3 Streamline Icon: https://streamlinehq.com</desc><path stroke="#000000" stroke-linecap="round" stroke-linejoin="round" d="M21.4647 6.90442c0.0464 -1.496 -0.5024 -2.94934 -1.5259 -4.04137 -1.0235 -1.09204 -2.4383 -1.73366 -3.9342 -1.78419 -0.7646 0.00679 -1.5187 0.17933 -2.2102 0.50573 -0.6916 0.32639 -1.3041 0.79887 -1.7953 1.38486 -0.4909 -0.58604 -1.103 -1.05857 -1.7943 -1.38498 -0.6912 -0.32641 -1.44505 -0.49892 -2.20945 -0.50561 -1.49602 0.05005 -2.9111 0.69153 -3.93473 1.78367 -1.02363 1.09215 -1.57221 2.54576 -1.52538 4.04189 0.14466 2.23901 0.90884 4.39378 2.2072 6.22358 0.14724 0.2054 0.2395 0.4451 0.268 0.6962 0.0285 0.2511 -0.00771 0.5053 -0.10517 0.7385 -0.60996 1.4979 -0.92036 3.101 -0.91364 4.7183v1.8201c0 0.4827 0.19176 0.9456 0.53308 1.2869 0.34132 0.3414 0.80426 0.5331 1.28696 0.5331 0.4827 0 0.94564 -0.1917 1.28696 -0.5331 0.34132 -0.3413 0.53308 -0.8042 0.53308 -1.2869 -0.05668 -1.1696 0.34246 -2.3156 1.11346 -3.197 0.771 -0.8813 1.85373 -1.4293 3.02053 -1.5286 0.6237 -0.0329 1.2472 0.0678 1.8288 0.2954 0.5815 0.2276 1.1078 0.5767 1.5436 1.0241 0.4357 0.4474 0.7709 0.9828 0.9831 1.5702 0.2121 0.5873 0.2963 1.2133 0.247 1.8359 0 0.4827 0.1918 0.9456 0.5331 1.2869 0.3413 0.3414 0.8043 0.5331 1.287 0.5331 0.4827 0 0.9456 -0.1917 1.2869 -0.5331 0.3414 -0.3413 0.5331 -0.8042 0.5331 -1.2869v-1.8255c0.0081 -1.7187 -0.3432 -3.4201 -1.0312 -4.9951 -0.1172 -0.2386 -0.1685 -0.5041 -0.1485 -0.7691 0.0201 -0.265 0.1107 -0.5198 0.2625 -0.738 1.3474 -1.6825 2.1725 -3.72282 2.3736 -5.86898Z" stroke-width="1"></path><path stroke="#000000" stroke-linecap="round" stroke-linejoin="round" d="M8.885 6.886h6.23s1 0 1 1v3.748s0 1 -1 1h-6.23s-1 0 -1 -1V7.886s0 -1 1 -1" stroke-width="1"></path><path stroke="#000000" stroke-linecap="round" stroke-linejoin="round" d="M0.858887 9.7597H23.1409" stroke-width="1"></path><path stroke="#000000" stroke-linecap="round" stroke-linejoin="round" d="m10.4187 9.0542 0 1.4111" stroke-width="1"></path><path stroke="#000000" stroke-linecap="round" stroke-linejoin="round" d="m13.2534 9.0542 0 1.4111" stroke-width="1"></path></svg>