<svg xmlns="http://www.w3.org/2000/svg" fill="none" viewBox="0 0 24 24" id="Dental-Crown-In--Streamline-Ultimate"><desc>Dental Crown In Streamline Icon: https://streamlinehq.com</desc><path stroke="#000000" stroke-linecap="round" stroke-linejoin="round" d="M17.4054 9.416c0.6969 0.7435 1.0705 1.7331 1.039 2.7517 -0.1369 1.4612 -0.6988 2.8504 -1.6162 3.996 -0.1033 0.1485 -0.165 0.322 -0.1786 0.5025 -0.0137 0.1804 0.0212 0.3612 0.101 0.5236 0.4685 1.0724 0.7077 2.2308 0.7022 3.401v1.243c0 0.3286 -0.1306 0.6438 -0.363 0.8762 -0.2324 0.2324 -0.5476 0.363 -0.8762 0.363 -0.3287 0 -0.6439 -0.1306 -0.8763 -0.363 -0.2324 -0.2324 -0.363 -0.5476 -0.363 -0.8762 0.0336 -0.4239 -0.0237 -0.8501 -0.1682 -1.2501 -0.1444 -0.3999 -0.3726 -0.7644 -0.6693 -1.069s-0.6551 -0.5424 -1.0511 -0.6973c-0.396 -0.155 -0.8205 -0.2235 -1.2451 -0.2012 -0.7944 0.0677 -1.5316 0.4408 -2.0566 1.0408 -0.52495 0.6001 -0.79671 1.3804 -0.75812 2.1768 0 0.3286 -0.13056 0.6438 -0.36296 0.8762 -0.23239 0.2324 -0.54759 0.363 -0.87625 0.363 -0.32866 0 -0.64386 -0.1306 -0.87626 -0.363 -0.23239 -0.2324 -0.36295 -0.5476 -0.36295 -0.8762v-1.2393c-0.00458 -1.1012 0.20676 -2.1926 0.62207 -3.2125 0.06636 -0.1588 0.09101 -0.3319 0.0716 -0.5029 -0.0194 -0.171 -0.08222 -0.3341 -0.18247 -0.474 -0.88402 -1.2459 -1.40432 -2.713 -1.50282 -4.2374 -0.03189 -1.0187 0.34163 -2.0084 1.03859 -2.75205" stroke-width="1"></path><path stroke="#000000" stroke-linecap="round" stroke-linejoin="round" d="M5.55584 5.73644v-0.86361c-0.03189 -1.01867 0.34163 -2.00839 1.03859 -2.752C7.29139 1.37722 8.25487 0.940454 9.27348 0.906372c0.52046 0.004558 1.03372 0.122008 1.50442 0.344258 0.4706 0.22224 0.8874 0.54398 1.2216 0.94299 0.3345 -0.39898 0.7515 -0.72068 1.2224 -0.94291 0.4708 -0.22223 0.9842 -0.339712 1.5048 -0.344338 1.0185 0.034404 1.9818 0.471268 2.6787 1.214808 0.6969 0.74353 1.0705 1.73307 1.039 2.75165v0.86361" stroke-width="1"></path><path stroke="#000000" stroke-linecap="round" stroke-linejoin="round" d="M12 12.8163V6.01514" stroke-width="1"></path><path stroke="#000000" stroke-linecap="round" stroke-linejoin="round" d="M9.7998 10.616 12 12.8162l2.2003 -2.2002" stroke-width="1"></path><path stroke="#000000" stroke-linecap="round" stroke-linejoin="round" d="M12 2.1947c1.164 1.21591 2.421 1.26267 2.7469 1.26267" stroke-width="1"></path></svg>