<svg viewBox="0 0 24 24" xmlns="http://www.w3.org/2000/svg" id="Dentistry-Tooth-Check--Streamline-Ultimate"><desc>Dentistry Tooth Check Streamline Icon: https://streamlinehq.com</desc><path d="M15.692 0.75A6.048 6.048 0 0 0 11.25 2.7 6.052 6.052 0 0 0 0.75 6.75a11.913 11.913 0 0 0 2.45 6.412 1.44 1.44 0 0 1 0.181 1.478A12.005 12.005 0 0 0 2.25 19.5v1.875a2.058 2.058 0 0 0 2.135 1.875A1.951 1.951 0 0 0 6.4 21.375a4.293 4.293 0 0 1 4.442 -4.125h0.808a4.293 4.293 0 0 1 4.45 4.125 1.951 1.951 0 0 0 2.019 1.875 2.058 2.058 0 0 0 2.135 -1.875V19.5" fill="none" stroke="#000000" stroke-linecap="round" stroke-linejoin="round" stroke-width="1"></path><path d="M11.25 9.75a6 6 0 1 0 12 0 6 6 0 1 0 -12 0Z" fill="none" stroke="#000000" stroke-linecap="round" stroke-linejoin="round" stroke-width="1"></path><path d="m19.924 8.005 -2.905 3.874a0.751 0.751 0 0 1 -1.131 0.08l-1.5 -1.5" fill="none" stroke="#000000" stroke-linecap="round" stroke-linejoin="round" stroke-width="1"></path></svg>