<svg viewBox="0 0 24 24" xmlns="http://www.w3.org/2000/svg" id="Dentistry-Tooth-Chipped--Streamline-Ultimate"><desc>Dentistry Tooth Chipped Streamline Icon: https://streamlinehq.com</desc><path d="M20.05 13.162a12.243 12.243 0 0 0 0.939 -1.45 1.5 1.5 0 0 0 -0.959 -2.186 7.438 7.438 0 0 1 -5.684 -6.094A1.363 1.363 0 0 0 12 2.7 6.052 6.052 0 0 0 1.5 6.75a11.913 11.913 0 0 0 2.45 6.412 1.44 1.44 0 0 1 0.181 1.478A12.022 12.022 0 0 0 3 19.5v1.875a2.058 2.058 0 0 0 2.135 1.875 1.951 1.951 0 0 0 2.019 -1.875A4.293 4.293 0 0 1 11.6 17.25h0.8a4.293 4.293 0 0 1 4.442 4.125 1.951 1.951 0 0 0 2.019 1.875A2.058 2.058 0 0 0 21 21.375V19.5a12.005 12.005 0 0 0 -1.131 -4.86 1.44 1.44 0 0 1 0.181 -1.478Z" fill="none" stroke="#000000" stroke-linecap="round" stroke-linejoin="round" stroke-width="1"></path><path d="m18 0.75 0 1.5" fill="none" stroke="#000000" stroke-linecap="round" stroke-linejoin="round" stroke-width="1"></path><path d="m21.75 1.5 -0.75 0.75" fill="none" stroke="#000000" stroke-linecap="round" stroke-linejoin="round" stroke-width="1"></path><path d="m22.5 5.25 -1.5 0" fill="none" stroke="#000000" stroke-linecap="round" stroke-linejoin="round" stroke-width="1"></path></svg>