<svg xmlns="http://www.w3.org/2000/svg" fill="none" viewBox="0 0 24 24" id="Dental-Implant-1--Streamline-Ultimate"><desc>Dental Implant 1 Streamline Icon: https://streamlinehq.com</desc><path stroke="#000000" stroke-linecap="round" stroke-linejoin="round" d="M18.6848 2.46204c0.8619 0.91953 1.3239 2.14327 1.2849 3.40294 -0.1693 1.80711 -0.8641 3.52508 -1.9987 4.94182H5.68517c-0.96934 -1.47429 -1.54049 -3.17697 -1.65452 -4.94182 -0.03943 -1.25978 0.42249 -2.48375 1.28441 -3.40337C6.17698 1.542 7.3685 1.00187 8.62819 0.959717c0.64365 0.005636 1.2784 0.150893 1.86041 0.425733 0.5821 0.27485 1.0975 0.67273 1.5108 1.16619 0.4137 -0.49342 0.9294 -0.89126 1.5117 -1.16609s1.2172 -0.420112 1.8611 -0.425833c1.2595 0.042543 2.4508 0.582803 3.3126 1.502323Z" stroke-width="1"></path><path stroke="#000000" stroke-linecap="round" stroke-linejoin="round" d="M12.0349 2.58435c0.9977 1.04226 2.0752 1.08234 2.3546 1.08234" stroke-width="1"></path><path stroke="#000000" stroke-linecap="round" stroke-linejoin="round" d="m13.1409 22.8532 -2.2119 -0.0001 -1.40996 -2.7414 0 -6.4846 5.03186 0 0 6.4846 -1.41 2.7415Z" stroke-width="1"></path><path stroke="#000000" stroke-linecap="round" stroke-linejoin="round" d="M16.4409 10.8069H7.62916v1.8202c0 0.5523 0.44771 1 1 1h6.81174c0.5523 0 1 -0.4477 1 -1v-1.8202Z" stroke-width="1"></path><path stroke="#000000" stroke-linecap="round" stroke-linejoin="round" d="m15.7087 19.054 -7.10362 1.1301" stroke-width="1"></path><path stroke="#000000" stroke-linecap="round" stroke-linejoin="round" d="m15.7087 16.0834 -7.10362 1.1301" stroke-width="1"></path></svg>