<svg xmlns="http://www.w3.org/2000/svg" fill="none" viewBox="0 0 24 24" id="Mouthwash-Teeth--Streamline-Ultimate"><desc>Mouthwash Teeth Streamline Icon: https://streamlinehq.com</desc><path stroke="#000000" stroke-linecap="round" stroke-linejoin="round" stroke-miterlimit="10" d="M4.44995 3.25v3.5H13.95" stroke-width="1"></path><path stroke="#000000" stroke-linecap="round" stroke-linejoin="round" stroke-miterlimit="10" d="M20.75 11.75v4c0 2.2 -1.8 4 -4 4H6.25c-1.1 0 -2 -0.9 -2 -2v-2.5h4.3c3.3 0 6 -2.7 6 -6s-2.7 -6 -6 -6h-5.3V0.75" stroke-width="1"></path><path stroke="#000000" stroke-linecap="round" stroke-linejoin="round" stroke-miterlimit="10" d="M14.15 11.35c-0.3 -1.1 -1.3 -1.90005 -2.4 -1.90005 -1.4 0 -2.5 1.10005 -2.5 2.50005 -0.4 -0.3 -0.9 -0.5 -1.5 -0.5 -1.4 0 -2.5 1.1 -2.5 2.5 0 0.5 0.1 0.9 0.3 1.3" stroke-width="1"></path><path stroke="#000000" stroke-linecap="round" stroke-linejoin="round" stroke-miterlimit="10" d="M12.6499 19.75v3.5" stroke-width="1"></path></svg>