<svg xmlns="http://www.w3.org/2000/svg" fill="none" viewBox="0 0 24 24" id="Army-Sword-Fight--Streamline-Ultimate"><desc>Army Sword Fight Streamline Icon: https://streamlinehq.com</desc><path stroke="#000000" stroke-linecap="round" stroke-linejoin="round" d="M23.05 9.72495c-0.4426 -2.16125 -1.5101 -4.14494 -3.0701 -5.70489C18.42 2.46011 16.4363 1.39257 14.275 0.949951" stroke-width="1"></path><path stroke="#000000" stroke-linecap="round" stroke-linejoin="round" d="M9.775 0.949951C7.61375 1.39257 5.63006 2.46011 4.07011 4.02006 2.51015 5.58001 1.44262 7.5637 1 9.72495" stroke-width="1"></path><path stroke="#000000" stroke-linecap="round" stroke-linejoin="round" d="M1 14.225c0.44262 2.1612 1.51015 4.1449 3.07011 5.7049C5.63006 21.4898 7.61375 22.5574 9.775 23" stroke-width="1"></path><path stroke="#000000" stroke-linecap="round" stroke-linejoin="round" d="M14.275 23c2.1613 -0.4426 4.145 -1.5102 5.7049 -3.0701 1.56 -1.56 2.6275 -3.5437 3.0701 -5.7049" stroke-width="1"></path><path stroke="#000000" stroke-linecap="round" stroke-linejoin="round" d="M6.77502 6.72498 17.275 17.225" stroke-width="1"></path><path stroke="#000000" stroke-linecap="round" stroke-linejoin="round" d="m13.525 16.475 3 -3" stroke-width="1"></path><path stroke="#000000" stroke-linecap="round" stroke-linejoin="round" d="M17.275 6.72498 6.77502 17.225" stroke-width="1"></path><path stroke="#000000" stroke-linecap="round" stroke-linejoin="round" d="m10.525 16.475 -2.99998 -3" stroke-width="1"></path><path stroke="#000000" d="M4.52502 12.375c-0.2071 0 -0.375 -0.1679 -0.375 -0.375s0.1679 -0.375 0.375 -0.375" stroke-width="1"></path><path stroke="#000000" d="M4.52502 12.375c0.20711 0 0.375 -0.1679 0.375 -0.375s-0.16789 -0.375 -0.375 -0.375" stroke-width="1"></path><path stroke="#000000" d="M12 19.85c-0.2071 0 -0.375 -0.1679 -0.375 -0.375s0.1679 -0.375 0.375 -0.375" stroke-width="1"></path><path stroke="#000000" d="M12 19.85c0.2071 0 0.375 -0.1679 0.375 -0.375S12.2071 19.1 12 19.1" stroke-width="1"></path><g><path stroke="#000000" d="M12 4.84998c-0.2071 0 -0.375 -0.1679 -0.375 -0.375 0 -0.20711 0.1679 -0.375 0.375 -0.375" stroke-width="1"></path><path stroke="#000000" d="M12 4.84998c0.2071 0 0.375 -0.1679 0.375 -0.375 0 -0.20711 -0.1679 -0.375 -0.375 -0.375" stroke-width="1"></path></g><g><path stroke="#000000" d="M19.525 12.35c-0.2071 0 -0.375 -0.1679 -0.375 -0.375s0.1679 -0.375 0.375 -0.375" stroke-width="1"></path><path stroke="#000000" d="M19.525 12.35c0.2071 0 0.375 -0.1679 0.375 -0.375s-0.1679 -0.375 -0.375 -0.375" stroke-width="1"></path></g></svg>