<svg xmlns="http://www.w3.org/2000/svg" fill="none" viewBox="0 0 24 24" id="Army-Symbol-Artillery-1--Streamline-Ultimate"><desc>Army Symbol Artillery 1 Streamline Icon: https://streamlinehq.com</desc><path stroke="#000000" stroke-linecap="round" stroke-linejoin="round" d="M21.75 4.25H2.25c-0.82843 0 -1.5 0.67157 -1.5 1.5v12c0 0.8284 0.67157 1.5 1.5 1.5h19.5c0.8284 0 1.5 -0.6716 1.5 -1.5v-12c0 -0.82843 -0.6716 -1.5 -1.5 -1.5Z" stroke-width="1"></path><path stroke="#000000" stroke-linecap="round" stroke-linejoin="round" d="M15.75 8.75h-7.5c-0.79565 0 -1.55871 0.31607 -2.12132 0.87868C5.56607 10.1913 5.25 10.9544 5.25 11.75c0 0.7956 0.31607 1.5587 0.87868 2.1213 0.56261 0.5626 1.32567 0.8787 2.12132 0.8787h7.5c0.7956 0 1.5587 -0.3161 2.1213 -0.8787 0.5626 -0.5626 0.8787 -1.3257 0.8787 -2.1213 0 -0.7956 -0.3161 -1.5587 -0.8787 -2.12132C17.3087 9.06607 16.5456 8.75 15.75 8.75v0Z" stroke-width="1"></path><path stroke="#000000" d="M12 12.125c-0.2071 0 -0.375 -0.1679 -0.375 -0.375s0.1679 -0.375 0.375 -0.375" stroke-width="1"></path><path stroke="#000000" d="M12 12.125c0.2071 0 0.375 -0.1679 0.375 -0.375s-0.1679 -0.375 -0.375 -0.375" stroke-width="1"></path></svg>