<svg viewBox="0 0 24 24" xmlns="http://www.w3.org/2000/svg" id="Army-Dog-Tag-1--Streamline-Ultimate"><desc>Army Dog Tag 1 Streamline Icon: https://streamlinehq.com</desc><path d="M17.972 4.9a2.993 2.993 0 0 1 1.319 2.482v12.236a3.011 3.011 0 0 1 -2.27 2.912 17.741 17.741 0 0 1 -5.25 0.72 17.73 17.73 0 0 1 -5.25 -0.72 3.011 3.011 0 0 1 -2.271 -2.912V7.382A3.011 3.011 0 0 1 6.521 4.47a17.658 17.658 0 0 1 4.309 -0.7" fill="none" stroke="#000000" stroke-linecap="round" stroke-linejoin="round" stroke-width="1"></path><path d="m11.771 7.5 6 -6.75" fill="none" stroke="#000000" stroke-linecap="round" stroke-linejoin="round" stroke-width="1"></path><path d="M8.646 3.984 5.771 0.75" fill="none" stroke="#000000" stroke-linecap="round" stroke-linejoin="round" stroke-width="1"></path><path d="m12.521 11.25 0 7.5" fill="none" stroke="#000000" stroke-linecap="round" stroke-linejoin="round" stroke-width="1"></path><path d="m9.521 18.75 0 -3" fill="none" stroke="#000000" stroke-linecap="round" stroke-linejoin="round" stroke-width="1"></path><path d="m9.521 12.75 0 -1.5" fill="none" stroke="#000000" stroke-linecap="round" stroke-linejoin="round" stroke-width="1"></path></svg>