<svg viewBox="0 0 24 24" xmlns="http://www.w3.org/2000/svg" id="Battery-Charge--Streamline-Ultimate"><desc>Battery Charge Streamline Icon: https://streamlinehq.com</desc><path d="M6.75 3h-4.5a1.5 1.5 0 0 0 -1.5 1.5v9a1.5 1.5 0 0 0 1.5 1.5h4.5" fill="none" stroke="#000000" stroke-linecap="round" stroke-linejoin="round" stroke-width="1"></path><path d="M15.75 3h3a1.5 1.5 0 0 1 1.5 1.5V6h1.5a1.5 1.5 0 0 1 1.5 1.5v3a1.5 1.5 0 0 1 -1.5 1.5h-1.5v1.5a1.5 1.5 0 0 1 -1.5 1.5h-3" fill="none" stroke="#000000" stroke-linecap="round" stroke-linejoin="round" stroke-width="1"></path><path d="M11.25 13.5h0a3 3 0 0 1 -3 -3V9a1.5 1.5 0 0 1 1.5 -1.5h3a1.5 1.5 0 0 1 1.5 1.5v1.5a3 3 0 0 1 -3 3Z" fill="none" stroke="#000000" stroke-linecap="round" stroke-linejoin="round" stroke-width="1"></path><path d="m9.75 7.5 0 -3" fill="none" stroke="#000000" stroke-linecap="round" stroke-linejoin="round" stroke-width="1"></path><path d="m12.75 7.5 0 -3" fill="none" stroke="#000000" stroke-linecap="round" stroke-linejoin="round" stroke-width="1"></path><path d="m11.25 13.5 0 7.5" fill="none" stroke="#000000" stroke-linecap="round" stroke-linejoin="round" stroke-width="1"></path></svg>