<svg xmlns="http://www.w3.org/2000/svg" fill="none" viewBox="0 0 24 24" id="Power-Outlet-Type-M--Streamline-Ultimate"><desc>Power Outlet Type M Streamline Icon: https://streamlinehq.com</desc><path stroke="#000000" stroke-linecap="round" stroke-linejoin="round" d="M20.25 0.75H3.75c-1.65685 0 -3 1.34315 -3 3v16.5c0 1.6569 1.34315 3 3 3h16.5c1.6569 0 3 -1.3431 3 -3V3.75c0 -1.65685 -1.3431 -3 -3 -3Z" stroke-width="1"></path><path stroke="#000000" stroke-linecap="round" stroke-linejoin="round" d="M7.49976 15.9995c-0.27601 0 -0.49976 -0.2237 -0.49976 -0.4997 0 -0.276 0.22375 -0.4998 0.49976 -0.4998" stroke-width="1"></path><path stroke="#000000" stroke-linecap="round" stroke-linejoin="round" d="M7.50024 15.9995c0.27601 0 0.49976 -0.2237 0.49976 -0.4997C8 15.2238 7.77625 15 7.50024 15" stroke-width="1"></path><path stroke="#000000" stroke-linecap="round" stroke-linejoin="round" d="M11.9998 8.68703c-0.276 0 -0.4998 -0.22375 -0.4998 -0.49977 0 -0.27601 0.2238 -0.49976 0.4998 -0.49976" stroke-width="1"></path><path stroke="#000000" stroke-linecap="round" stroke-linejoin="round" d="M12.0002 8.68703c0.276 0 0.4998 -0.22375 0.4998 -0.49977 0 -0.27601 -0.2238 -0.49976 -0.4998 -0.49976" stroke-width="1"></path><path stroke="#000000" stroke-linecap="round" stroke-linejoin="round" d="M16.4998 15.9995c-0.276 0 -0.4998 -0.2237 -0.4998 -0.4997 0 -0.276 0.2238 -0.4998 0.4998 -0.4998" stroke-width="1"></path><path stroke="#000000" stroke-linecap="round" stroke-linejoin="round" d="M16.5002 15.9995c0.276 0 0.4998 -0.2237 0.4998 -0.4997 0 -0.276 -0.2238 -0.4998 -0.4998 -0.4998" stroke-width="1"></path></svg>