<svg viewBox="0 0 24 24" xmlns="http://www.w3.org/2000/svg" id="Socket-Box--Streamline-Ultimate"><desc>Socket Box Streamline Icon: https://streamlinehq.com</desc><path d="m10.5 5.32 0 1.43" fill="none" stroke="#000000" stroke-linecap="round" stroke-linejoin="round" stroke-width="1"></path><path d="m13.5 5.32 0 1.43" fill="none" stroke="#000000" stroke-linecap="round" stroke-linejoin="round" stroke-width="1"></path><path d="M7.5 6a4.5 4.5 0 1 0 9 0 4.5 4.5 0 1 0 -9 0Z" fill="none" stroke="#000000" stroke-linecap="round" stroke-linejoin="round" stroke-width="1"></path><path d="m10.5 17.32 0 1.43" fill="none" stroke="#000000" stroke-linecap="round" stroke-linejoin="round" stroke-width="1"></path><path d="m13.5 17.32 0 1.43" fill="none" stroke="#000000" stroke-linecap="round" stroke-linejoin="round" stroke-width="1"></path><path d="M7.5 18a4.5 4.5 0 1 0 9 0 4.5 4.5 0 1 0 -9 0Z" fill="none" stroke="#000000" stroke-linecap="round" stroke-linejoin="round" stroke-width="1"></path><path d="M17.25 23.25H18a1.5 1.5 0 0 0 1.5 -1.5V2.25A1.5 1.5 0 0 0 18 0.75h-0.75" fill="none" stroke="#000000" stroke-linecap="round" stroke-linejoin="round" stroke-width="1"></path><path d="M6.75 0.75H6a1.5 1.5 0 0 0 -1.5 1.5v19.5a1.5 1.5 0 0 0 1.5 1.5h0.75" fill="none" stroke="#000000" stroke-linecap="round" stroke-linejoin="round" stroke-width="1"></path></svg>