<svg viewBox="0 0 24 24" xmlns="http://www.w3.org/2000/svg" id="Wall-Socket-1--Streamline-Ultimate"><desc>Wall Socket 1 Streamline Icon: https://streamlinehq.com</desc><path d="M14.244 17.25h-4.5V15a2.25 2.25 0 0 1 2.25 -2.25h0a2.25 2.25 0 0 1 2.25 2.25Z" fill="none" stroke="#000000" stroke-linecap="round" stroke-linejoin="round" stroke-width="1"></path><path d="m15.744 7.5 0 3" fill="none" stroke="#000000" stroke-linecap="round" stroke-linejoin="round" stroke-width="1"></path><path d="m8.244 7.5 0 3" fill="none" stroke="#000000" stroke-linecap="round" stroke-linejoin="round" stroke-width="1"></path><path d="M1.345 16.215a5.665 5.665 0 0 0 5.417 4.035h10.464a5.668 5.668 0 0 0 5.416 -4.035 15.215 15.215 0 0 0 0 -8.43 5.664 5.664 0 0 0 -5.416 -4.035H6.762a5.668 5.668 0 0 0 -5.417 4.035 15.233 15.233 0 0 0 0 8.43Z" fill="none" stroke="#000000" stroke-linecap="round" stroke-linejoin="round" stroke-width="1"></path></svg>