<svg xmlns="http://www.w3.org/2000/svg" viewBox="0 0 24 24" id="Audio-Document-Aac-1--Streamline-Ultimate"><desc>Audio Document Aac 1 Streamline Icon: https://streamlinehq.com</desc><defs></defs><title>audio-document-aac-1</title><path d="M1.75 0.75h20.5s1 0 1 1v20.5s0 1 -1 1H1.75s-1 0 -1 -1V1.75s0 -1 1 -1" fill="none" stroke="#000000" stroke-linecap="round" stroke-linejoin="round" stroke-width="1"></path><path d="M19.5 10.5a3 3 0 0 0 -3 3V15a3 3 0 0 0 3 3" fill="none" stroke="#000000" stroke-linecap="round" stroke-linejoin="round" stroke-width="1"></path><path d="M4.5 18v-6a1.5 1.5 0 0 1 3 0v6" fill="none" stroke="#000000" stroke-linecap="round" stroke-linejoin="round" stroke-width="1"></path><path d="m4.5 15 3 0" fill="none" stroke="#000000" stroke-linecap="round" stroke-linejoin="round" stroke-width="1"></path><path d="M10.5 18v-6a1.5 1.5 0 0 1 3 0v6" fill="none" stroke="#000000" stroke-linecap="round" stroke-linejoin="round" stroke-width="1"></path><path d="m10.5 15 3 0" fill="none" stroke="#000000" stroke-linecap="round" stroke-linejoin="round" stroke-width="1"></path></svg>