<svg viewBox="0 0 24 24" xmlns="http://www.w3.org/2000/svg" id="Audio-File-Mp-3--Streamline-Ultimate"><desc>Audio File Mp 3 Streamline Icon: https://streamlinehq.com</desc><path d="M1.5 23.25v-21A1.5 1.5 0 0 1 3 0.75h10.629a1.5 1.5 0 0 1 1.06 0.439l5.872 5.872A1.5 1.5 0 0 1 21 8.121v4.629" fill="none" stroke="#000000" stroke-linecap="round" stroke-linejoin="round" stroke-width="1"></path><path d="M21 8.25h-6a1.5 1.5 0 0 1 -1.5 -1.5v-6" fill="none" stroke="#000000" stroke-linecap="round" stroke-linejoin="round" stroke-width="1"></path><path d="m9 23.25 0 -7.5 -2.25 3.75 -2.25 -3.75 0 7.5" fill="none" stroke="#000000" stroke-linecap="round" stroke-linejoin="round" stroke-width="1"></path><path d="m12 23.25 0 -7.5" fill="none" stroke="#000000" stroke-linecap="round" stroke-linejoin="round" stroke-width="1"></path><path d="M12 15.75h0.75a2.25 2.25 0 0 1 0 4.5H12" fill="none" stroke="#000000" stroke-linecap="round" stroke-linejoin="round" stroke-width="1"></path><path d="M18 17.25a1.5 1.5 0 0 1 1.5 -1.5l1.135 0.005a1.873 1.873 0 0 1 -0.008 3.745 1.873 1.873 0 0 1 0.008 3.745l-1.135 0a1.5 1.5 0 0 1 -1.5 -1.5" fill="none" stroke="#000000" stroke-linecap="round" stroke-linejoin="round" stroke-width="1"></path></svg>