<svg viewBox="0 0 24 24" xmlns="http://www.w3.org/2000/svg" id="Audio-Document-Wav--Streamline-Ultimate"><desc>Audio Document Wav Streamline Icon: https://streamlinehq.com</desc><path d="m1.5 3.75 21 0" fill="none" stroke="#000000" stroke-linecap="round" stroke-linejoin="round" stroke-width="1"></path><path d="m1.5 20.25 21 0" fill="none" stroke="#000000" stroke-linecap="round" stroke-linejoin="round" stroke-width="1"></path><path d="M18 8.25v2.55a8.932 8.932 0 0 0 1.5 4.954A8.932 8.932 0 0 0 21 10.8V8.25" fill="none" stroke="#000000" stroke-linecap="round" stroke-linejoin="round" stroke-width="1"></path><path d="M3 8.25v2.017a8.982 8.982 0 0 0 0.644 3.342L4.5 15.75 6 10.5l1.5 5.25 0.856 -2.141A8.982 8.982 0 0 0 9 10.267V8.25" fill="none" stroke="#000000" stroke-linecap="round" stroke-linejoin="round" stroke-width="1"></path><path d="M12 15.75v-6a1.5 1.5 0 0 1 3 0v6" fill="none" stroke="#000000" stroke-linecap="round" stroke-linejoin="round" stroke-width="1"></path><path d="m12 12.75 3 0" fill="none" stroke="#000000" stroke-linecap="round" stroke-linejoin="round" stroke-width="1"></path></svg>