<svg viewBox="0 0 24 24" xmlns="http://www.w3.org/2000/svg" id="Audio-Document-Wav-1--Streamline-Ultimate"><desc>Audio Document Wav 1 Streamline Icon: https://streamlinehq.com</desc><path d="M18 10.5v2.546A8.932 8.932 0 0 0 19.5 18a8.932 8.932 0 0 0 1.5 -4.954V10.5" fill="none" stroke="#000000" stroke-linecap="round" stroke-linejoin="round" stroke-width="1"></path><path d="M3 10.5v2.017a8.991 8.991 0 0 0 0.644 3.343L4.5 18 6 12.75 7.5 18l0.856 -2.14A8.991 8.991 0 0 0 9 12.517V10.5" fill="none" stroke="#000000" stroke-linecap="round" stroke-linejoin="round" stroke-width="1"></path><path d="M12 18v-6a1.5 1.5 0 0 1 3 0v6" fill="none" stroke="#000000" stroke-linecap="round" stroke-linejoin="round" stroke-width="1"></path><path d="m12 15 3 0" fill="none" stroke="#000000" stroke-linecap="round" stroke-linejoin="round" stroke-width="1"></path><path d="M23.25 21v0.75a1.5 1.5 0 0 1 -1.5 1.5H2.25a1.5 1.5 0 0 1 -1.5 -1.5V21" fill="none" stroke="#000000" stroke-linecap="round" stroke-linejoin="round" stroke-width="1"></path><path d="M0.75 7.5V2.25a1.5 1.5 0 0 1 1.5 -1.5h19.5a1.5 1.5 0 0 1 1.5 1.5V7.5" fill="none" stroke="#000000" stroke-linecap="round" stroke-linejoin="round" stroke-width="1"></path></svg>