<svg viewBox="0 0 24 24" xmlns="http://www.w3.org/2000/svg" id="Audio-File-Settings--Streamline-Ultimate"><desc>Audio File Settings Streamline Icon: https://streamlinehq.com</desc><path d="M15.75 16.5a1.5 1.5 0 1 0 3 0 1.5 1.5 0 1 0 -3 0Z" fill="none" stroke="#000000" stroke-linecap="round" stroke-linejoin="round" stroke-width="1"></path><path d="m18.524 10.7 0.442 1.453a0.994 0.994 0 0 0 1.174 0.681l1.472 -0.341a1.339 1.339 0 0 1 1.275 2.218l-1.031 1.111a1 1 0 0 0 0 1.362l1.031 1.111a1.339 1.339 0 0 1 -1.275 2.218l-1.472 -0.341a0.994 0.994 0 0 0 -1.174 0.681l-0.442 1.447a1.33 1.33 0 0 1 -2.548 0l-0.442 -1.453a0.994 0.994 0 0 0 -1.174 -0.681l-1.472 0.341a1.339 1.339 0 0 1 -1.275 -2.218l1.031 -1.111a1 1 0 0 0 0 -1.362l-1.031 -1.111a1.339 1.339 0 0 1 1.275 -2.218l1.472 0.341a0.994 0.994 0 0 0 1.174 -0.681l0.442 -1.453a1.33 1.33 0 0 1 2.548 0.006Z" fill="none" stroke="#000000" stroke-linecap="round" stroke-linejoin="round" stroke-width="1"></path><path d="M8.25 20.25h-6a1.5 1.5 0 0 1 -1.5 -1.5V2.25a1.5 1.5 0 0 1 1.5 -1.5h10.629a1.5 1.5 0 0 1 1.06 0.439l2.872 2.872a1.5 1.5 0 0 1 0.439 1.06V6.75" fill="none" stroke="#000000" stroke-linecap="round" stroke-linejoin="round" stroke-width="1"></path><path d="M3.75 12.75a2.25 1.5 0 1 0 4.5 0 2.25 1.5 0 1 0 -4.5 0Z" fill="none" stroke="#000000" stroke-linecap="round" stroke-linejoin="round" stroke-width="1"></path><path d="m8.25 12.75 -0.295 -5.929 1.062 -0.113A2.685 2.685 0 0 1 11.6 7.99" fill="none" stroke="#000000" stroke-linecap="round" stroke-linejoin="round" stroke-width="1"></path></svg>