<svg viewBox="0 0 24 24" xmlns="http://www.w3.org/2000/svg" id="Audio-File-Disk--Streamline-Ultimate"><desc>Audio File Disk Streamline Icon: https://streamlinehq.com</desc><path d="M22.5 21.75a1.5 1.5 0 0 1 -1.5 1.5H3a1.5 1.5 0 0 1 -1.5 -1.5V2.25A1.5 1.5 0 0 1 3 0.75h15.045a1.5 1.5 0 0 1 1.048 0.426l2.954 2.883a1.5 1.5 0 0 1 0.453 1.074Z" fill="none" stroke="#000000" stroke-linecap="round" stroke-linejoin="round" stroke-width="1"></path><path d="M5.25 12a6.75 6.75 0 1 0 13.5 0 6.75 6.75 0 1 0 -13.5 0Z" fill="none" stroke="#000000" stroke-linecap="round" stroke-linejoin="round" stroke-width="1"></path><path d="M9.75 12a2.25 2.25 0 1 0 4.5 0 2.25 2.25 0 1 0 -4.5 0Z" fill="none" stroke="#000000" stroke-linecap="round" stroke-linejoin="round" stroke-width="1"></path></svg>