<svg xmlns="http://www.w3.org/2000/svg" viewBox="0 0 24 24" id="Dressing-Mirror-1--Streamline-Ultimate"><desc>Dressing Mirror 1 Streamline Icon: https://streamlinehq.com</desc><g><path d="M17.25 20.75H6.75a1.5 1.5 0 0 1 -1.5 -1.5v-3h13.5v3a1.5 1.5 0 0 1 -1.5 1.5Z" fill="none" stroke="#000000" stroke-linecap="round" stroke-linejoin="round" stroke-width="1"></path><path d="m6.75 20.75 0 2.5" fill="none" stroke="#000000" stroke-linecap="round" stroke-linejoin="round" stroke-width="1"></path><path d="m17.25 20.75 0 2.5" fill="none" stroke="#000000" stroke-linecap="round" stroke-linejoin="round" stroke-width="1"></path><path d="M4.5 12.75h15s0.75 0 0.75 0.75v2s0 0.75 -0.75 0.75h-15s-0.75 0 -0.75 -0.75v-2s0 -0.75 0.75 -0.75" fill="none" stroke="#000000" stroke-linecap="round" stroke-linejoin="round" stroke-width="1"></path><path d="M16.8 12.75a8.77 8.77 0 0 0 1.2 -4.5c0 -4.14 -2.69 -7.5 -6 -7.5s-6 3.36 -6 7.5a8.77 8.77 0 0 0 1.2 4.5Z" fill="none" stroke="#000000" stroke-linecap="round" stroke-linejoin="round" stroke-width="1"></path></g></svg>