<svg viewBox="0 0 24 24" xmlns="http://www.w3.org/2000/svg" id="Ipod-Play--Streamline-Ultimate"><desc>Ipod Play Streamline Icon: https://streamlinehq.com</desc><path d="M10.5 16.18a0.43 0.43 0 0 1 0.651 -0.369l3.034 1.82a0.431 0.431 0 0 1 0 0.738l-3.034 1.82a0.43 0.43 0 0 1 -0.651 -0.369Z" fill="none" stroke="#000000" stroke-linecap="round" stroke-linejoin="round" stroke-width="1"></path><path d="M17.986 23.25H6.014A1.593 1.593 0 0 1 4.5 21.589V2.279A1.488 1.488 0 0 1 6.028 0.75H18a1.466 1.466 0 0 1 1.5 1.529v19.31a1.593 1.593 0 0 1 -1.514 1.661Z" fill="none" stroke="#000000" stroke-linecap="round" stroke-linejoin="round" stroke-width="1"></path><path d="m4.5 12.75 15 0" fill="none" stroke="#000000" stroke-linecap="round" stroke-linejoin="round" stroke-width="1"></path></svg>