<svg xmlns="http://www.w3.org/2000/svg" viewBox="0 0 24 24" id="Music-Player-1--Streamline-Ultimate"><desc>Music Player 1 Streamline Icon: https://streamlinehq.com</desc><g><path d="M0.75 4.75h13.5v6.5H0.75Z" fill="none" stroke="#000000" stroke-linecap="round" stroke-linejoin="round" stroke-width="1"></path><path d="M4.5 17.25a3 3 0 1 0 6 0 3 3 0 1 0 -6 0" fill="none" stroke="#000000" stroke-linecap="round" stroke-linejoin="round" stroke-width="1"></path><path d="M20.25 8.75a1.5 1.5 0 0 0 3 0v-4.5a1.5 1.5 0 0 0 -3 0Z" fill="none" stroke="#000000" stroke-linecap="round" stroke-linejoin="round" stroke-width="1"></path><path d="M20.25 4.25h-1a2.25 2.25 0 0 0 0 4.5h1" fill="none" stroke="#000000" stroke-linecap="round" stroke-linejoin="round" stroke-width="1"></path><path d="M14.25 16.5a3.75 3.75 0 0 0 7.5 0v-6.25" fill="none" stroke="#000000" stroke-linecap="round" stroke-linejoin="round" stroke-width="1"></path><path d="M1.75 0.75h11.5s1 0 1 1v20.5s0 1 -1 1H1.75s-1 0 -1 -1V1.75s0 -1 1 -1" fill="none" stroke="#000000" stroke-linecap="round" stroke-linejoin="round" stroke-width="1"></path></g></svg>