<svg xmlns="http://www.w3.org/2000/svg" viewBox="0 0 24 24" id="Player-Phone-Station--Streamline-Ultimate"><desc>Player Phone Station Streamline Icon: https://streamlinehq.com</desc><g><path d="M3.75 17.5a1.75 1.75 0 1 0 3.5 0 1.75 1.75 0 1 0 -3.5 0" fill="none" stroke="#000000" stroke-linecap="round" stroke-linejoin="round" stroke-width="1"></path><path d="M16.75 17.5a1.75 1.75 0 1 0 3.5 0 1.75 1.75 0 1 0 -3.5 0" fill="none" stroke="#000000" stroke-linecap="round" stroke-linejoin="round" stroke-width="1"></path><g><path d="M16.21 3.21a2 2 0 0 0 -2 -2l-4.5 0a2 2 0 0 0 -2 2l0 9.31a2 2 0 0 0 2 2l4.5 0a2 2 0 0 0 2 -2Z" fill="none" stroke="#000000" stroke-linecap="round" stroke-linejoin="round" stroke-width="1"></path><path d="m7.75 10.75 8.5 0" fill="none" stroke="#000000" stroke-linecap="round" stroke-linejoin="round" stroke-width="1"></path></g><path d="m11.25 19.75 1.5 0" fill="none" stroke="#000000" stroke-linecap="round" stroke-linejoin="round" stroke-width="1"></path><path d="M7.75 12.25H6a5.25 5.25 0 0 0 0 10.5h12a5.25 5.25 0 0 0 0 -10.5h-1.75" fill="none" stroke="#000000" stroke-linecap="round" stroke-linejoin="round" stroke-width="1"></path></g></svg>