<svg viewBox="0 0 24 24" xmlns="http://www.w3.org/2000/svg" id="Video-File-Sync--Streamline-Ultimate"><desc>Video File Sync Streamline Icon: https://streamlinehq.com</desc><path d="m15 18.75 -3.75 0 0 3.75" fill="none" stroke="#000000" stroke-linecap="round" stroke-linejoin="round" stroke-width="1"></path><path d="M22.667 19.483a5.572 5.572 0 0 1 -10.74 -0.733" fill="none" stroke="#000000" stroke-linecap="round" stroke-linejoin="round" stroke-width="1"></path><path d="m19.5 15.75 3.75 0 0 -3.75" fill="none" stroke="#000000" stroke-linecap="round" stroke-linejoin="round" stroke-width="1"></path><path d="M11.833 15.017a5.572 5.572 0 0 1 10.74 0.733" fill="none" stroke="#000000" stroke-linecap="round" stroke-linejoin="round" stroke-width="1"></path><path d="M8.25 20.25h-6a1.5 1.5 0 0 1 -1.5 -1.5V2.25a1.5 1.5 0 0 1 1.5 -1.5h10.629a1.5 1.5 0 0 1 1.06 0.439l2.872 2.872a1.5 1.5 0 0 1 0.439 1.06V8.25" fill="none" stroke="#000000" stroke-linecap="round" stroke-linejoin="round" stroke-width="1"></path><path d="M6.241 12.678a0.685 0.685 0 0 1 -0.991 -0.613v-4.63a0.685 0.685 0 0 1 0.991 -0.613l4.631 2.316a0.684 0.684 0 0 1 0 1.224Z" fill="none" stroke="#000000" stroke-linecap="round" stroke-linejoin="round" stroke-width="1"></path></svg>