<svg xmlns="http://www.w3.org/2000/svg" viewBox="0 0 24 24" id="Vide-Document-Mov--Streamline-Ultimate"><desc>Vide Document Mov Streamline Icon: https://streamlinehq.com</desc><defs></defs><title>vide-document-m4v</title><path d="m0.75 3.75 22.5 0" fill="none" stroke="#000000" stroke-linecap="round" stroke-linejoin="round" stroke-width="1"></path><path d="m0.75 20.25 22.5 0" fill="none" stroke="#000000" stroke-linecap="round" stroke-linejoin="round" stroke-width="1"></path><path d="m8.25 15.75 0 -7.5L6 12 3.75 8.25l0 7.5" fill="none" stroke="#000000" stroke-linecap="round" stroke-linejoin="round" stroke-width="1"></path><path d="M12.75 8.25a1.5 1.5 0 0 0 -1.5 1.5v4.5a1.5 1.5 0 0 0 3 0v-4.5a1.5 1.5 0 0 0 -1.5 -1.5Z" fill="none" stroke="#000000" stroke-linecap="round" stroke-linejoin="round" stroke-width="1"></path><path d="M17.25 8.25v2.55a8.932 8.932 0 0 0 1.5 4.954 8.932 8.932 0 0 0 1.5 -4.954V8.25" fill="none" stroke="#000000" stroke-linecap="round" stroke-linejoin="round" stroke-width="1"></path></svg>