<svg viewBox="0 0 24 24" xmlns="http://www.w3.org/2000/svg" id="Video-File-M-4-V--Streamline-Ultimate"><desc>Video File M 4 V Streamline Icon: https://streamlinehq.com</desc><path d="M2.25 23.25a1.5 1.5 0 0 1 -1.5 -1.5V2.25a1.5 1.5 0 0 1 1.5 -1.5h10.629a1.5 1.5 0 0 1 1.06 0.439l5.872 5.872a1.5 1.5 0 0 1 0.439 1.06v4.629" fill="none" stroke="#000000" stroke-linecap="round" stroke-linejoin="round" stroke-width="1"></path><path d="M20.25 8.25h-6a1.5 1.5 0 0 1 -1.5 -1.5v-6" fill="none" stroke="#000000" stroke-linecap="round" stroke-linejoin="round" stroke-width="1"></path><path d="m9.75 23.25 0 -7.5L7.5 19.5l-2.25 -3.75 0 7.5" fill="none" stroke="#000000" stroke-linecap="round" stroke-linejoin="round" stroke-width="1"></path><path d="m17.231 23.235 0 -1.5" fill="none" stroke="#000000" stroke-linecap="round" stroke-linejoin="round" stroke-width="1"></path><path d="M17.231 21.735V15.75a8.26 8.26 0 0 0 -4.481 5.985h4.481" fill="none" stroke="#000000" stroke-linecap="round" stroke-linejoin="round" stroke-width="1"></path><path d="M20.25 15.75v2.55a8.932 8.932 0 0 0 1.5 4.954 8.932 8.932 0 0 0 1.5 -4.954v-2.55" fill="none" stroke="#000000" stroke-linecap="round" stroke-linejoin="round" stroke-width="1"></path></svg>