<svg viewBox="0 0 24 24" xmlns="http://www.w3.org/2000/svg" id="Video-File-Home--Streamline-Ultimate"><desc>Video File Home Streamline Icon: https://streamlinehq.com</desc><path d="M12.75 15.948v5.8a1.5 1.5 0 0 0 1.5 1.5h6a1.5 1.5 0 0 0 1.5 -1.5v-5.8" fill="none" stroke="#000000" stroke-linecap="round" stroke-linejoin="round" stroke-width="1"></path><path d="m11.25 17.26 4.518 -3.953a2.249 2.249 0 0 1 2.964 0l4.518 3.953" fill="none" stroke="#000000" stroke-linecap="round" stroke-linejoin="round" stroke-width="1"></path><path d="M18.75 23.25h-3v-3a1.5 1.5 0 0 1 3 0Z" fill="none" stroke="#000000" stroke-linecap="round" stroke-linejoin="round" stroke-width="1"></path><path d="M8.25 20.25h-6a1.5 1.5 0 0 1 -1.5 -1.5V2.25a1.5 1.5 0 0 1 1.5 -1.5h10.629a1.5 1.5 0 0 1 1.06 0.439l2.872 2.872a1.5 1.5 0 0 1 0.439 1.06V9.75" fill="none" stroke="#000000" stroke-linecap="round" stroke-linejoin="round" stroke-width="1"></path><path d="M6.241 12.678a0.685 0.685 0 0 1 -0.991 -0.613v-4.63a0.685 0.685 0 0 1 0.991 -0.613l4.631 2.316a0.684 0.684 0 0 1 0 1.224Z" fill="none" stroke="#000000" stroke-linecap="round" stroke-linejoin="round" stroke-width="1"></path></svg>