<svg viewBox="0 0 24 24" xmlns="http://www.w3.org/2000/svg" id="Video-File-Play-Circle--Streamline-Ultimate"><desc>Video File Play Circle Streamline Icon: https://streamlinehq.com</desc><path d="M22.5 21.75a1.5 1.5 0 0 1 -1.5 1.5H3a1.5 1.5 0 0 1 -1.5 -1.5V2.25A1.5 1.5 0 0 1 3 0.75h15a1.5 1.5 0 0 1 1.047 0.426l3 2.883a1.5 1.5 0 0 1 0.453 1.074Z" fill="none" stroke="#000000" stroke-linecap="round" stroke-linejoin="round" stroke-width="1"></path><path d="M10.549 16.046a0.746 0.746 0 0 1 -1.08 -0.667v-5.258a0.746 0.746 0 0 1 1.08 -0.667l4.414 2.629a0.746 0.746 0 0 1 0 1.334Z" fill="none" stroke="#000000" stroke-linecap="round" stroke-linejoin="round" stroke-width="1"></path><path d="M5.25 12.75a6.75 6.75 0 1 0 13.5 0 6.75 6.75 0 1 0 -13.5 0Z" fill="none" stroke="#000000" stroke-linecap="round" stroke-linejoin="round" stroke-width="1"></path></svg>