<svg viewBox="0 0 24 24" xmlns="http://www.w3.org/2000/svg" id="Bing-Search-Logo-1--Streamline-Ultimate"><desc>Bing Search Logo 1 Streamline Icon: https://streamlinehq.com</desc><path d="M0.75 2.25v12h0c0.18 4.17 5.14 7.5 11.25 7.5s11.25 -3.44 11.25 -7.7 -5 -7.7 -11.25 -7.7a15.38 15.38 0 0 0 -7.34 1.77V2.25ZM12 9.39c4 0 7.2 2.09 7.2 4.66S16 18.71 12 18.71s-7.2 -2.09 -7.2 -4.66S8 9.39 12 9.39m-2.5 4.66c0 -1 1.12 -1.79 2.5 -1.79s2.5 0.8 2.5 1.79 -1.12 1.79 -2.5 1.79 -2.5 -0.84 -2.5 -1.79" fill="none" stroke="#000000" stroke-linecap="round" stroke-linejoin="round" stroke-width="1"></path></svg>