<svg xmlns="http://www.w3.org/2000/svg" viewBox="0 0 24 24" id="Elastic-Search-Logo--Streamline-Ultimate"><desc>Elastic Search Logo Streamline Icon: https://streamlinehq.com</desc><g><path d="M13.5 0.75a11.25 11.25 0 0 0 -9.88 5.87H17.9a4.38 4.38 0 0 0 3.85 -2.27A11.23 11.23 0 0 0 13.5 0.75Z" fill="none" stroke="#000000" stroke-linecap="round" stroke-linejoin="round" stroke-width="1"></path><path d="M13.5 23.25a11.25 11.25 0 0 1 -9.88 -5.87H17.9a4.38 4.38 0 0 1 3.85 2.27 11.23 11.23 0 0 1 -8.25 3.6Z" fill="none" stroke="#000000" stroke-linecap="round" stroke-linejoin="round" stroke-width="1"></path><path d="M15.17 9.23H2.61a10.84 10.84 0 0 0 0 5.54h12.56a2.77 2.77 0 1 0 0 -5.54Z" fill="none" stroke="#000000" stroke-linecap="round" stroke-linejoin="round" stroke-width="1"></path></g></svg>