<svg xmlns="http://www.w3.org/2000/svg" fill="none" viewBox="0 0 24 24" id="Business-Magic-Rabbit--Streamline-Ultimate"><desc>Business Magic Rabbit Streamline Icon: https://streamlinehq.com</desc><path stroke="#000000" stroke-linecap="round" stroke-linejoin="round" d="M17.367 22.091c0.0183 0.1447 0.0056 0.2916 -0.0371 0.431 -0.0428 0.1394 -0.1147 0.2682 -0.2109 0.3777 -0.0962 0.1096 -0.2146 0.1975 -0.3474 0.2579 -0.1327 0.0603 -0.2768 0.0918 -0.4226 0.0924H7.90001c-0.14582 -0.0006 -0.28987 -0.0321 -0.42261 -0.0924 -0.13273 -0.0604 -0.25113 -0.1483 -0.34737 -0.2579 -0.09623 -0.1095 -0.16811 -0.2383 -0.21086 -0.3777 -0.04276 -0.1394 -0.05542 -0.2863 -0.03716 -0.431l0.883 -7.091H16.485l0.882 7.091Z" stroke-width="1"></path><path stroke="#000000" stroke-linecap="round" stroke-linejoin="round" d="M3.875 15h16.5" stroke-width="1"></path><path stroke="#000000" stroke-linecap="round" stroke-linejoin="round" d="M7.34302 18.394H16.907" stroke-width="1"></path><path stroke="#000000" stroke-linecap="round" stroke-linejoin="round" d="M17.1836 1.25919c-1.2668 1.33678 -2.3839 2.80783 -3.3314 4.38701 -1.109 -0.44227 -2.3455 -0.44227 -3.4545 0 -0.94729 -1.57936 -2.0644 -3.05043 -3.33141 -4.38701C5.04243 -0.241839 2.5136 2.75923 4.03149 4.26025c0.69446 0.68454 2.78678 2.29074 4.0507 3.24512 -0.4795 0.72943 -0.75268 1.57501 -0.7906 2.4471 -0.03791 0.87213 0.16086 1.73823 0.57524 2.50643 0.41438 0.7683 1.02892 1.4102 1.77849 1.8575 0.74958 0.4474 1.60618 0.6836 2.47908 0.6836 0.873 0 1.7296 -0.2362 2.4792 -0.6836 0.7495 -0.4473 1.3641 -1.0892 1.7785 -1.8575 0.4143 -0.7682 0.6131 -1.6343 0.5752 -2.50643 -0.0379 -0.87209 -0.3111 -1.71767 -0.7906 -2.4471 1.2639 -0.95438 3.3592 -2.56058 4.0517 -3.24512 1.5179 -1.50102 -1.0109 -4.502089 -3.0348 -3.00106Z" stroke-width="1"></path><g><path stroke="#000000" d="M10.25 10.5c-0.2071 0 -0.375 -0.1679 -0.375 -0.375s0.1679 -0.375 0.375 -0.375" stroke-width="1"></path><path stroke="#000000" d="M10.25 10.5c0.2071 0 0.375 -0.1679 0.375 -0.375s-0.1679 -0.375 -0.375 -0.375" stroke-width="1"></path></g><g><path stroke="#000000" d="M14 10.5c-0.2071 0 -0.375 -0.1679 -0.375 -0.375s0.1679 -0.375 0.375 -0.375" stroke-width="1"></path><path stroke="#000000" d="M14 10.5c0.2071 0 0.375 -0.1679 0.375 -0.375S14.2071 9.75 14 9.75" stroke-width="1"></path></g></svg>