<svg viewBox="0 0 24 24" xmlns="http://www.w3.org/2000/svg" id="Business-Team-Goal--Streamline-Ultimate"><desc>Business Team Goal Streamline Icon: https://streamlinehq.com</desc><path d="M20.651 23.25a6.73 6.73 0 0 0 -6.337 -4.5h-0.006a6.729 6.729 0 0 0 -6.336 4.5" fill="none" stroke="#000000" stroke-linecap="round" stroke-linejoin="round" stroke-width="1"></path><path d="M10.754 11.031a6.857 6.857 0 0 0 7.646 1.536" fill="none" stroke="#000000" stroke-linecap="round" stroke-linejoin="round" stroke-width="1"></path><path d="M10.183 13.125a4.125 4.125 0 1 0 8.25 0 4.125 4.125 0 1 0 -8.25 0Z" fill="none" stroke="#000000" stroke-linecap="round" stroke-linejoin="round" stroke-width="1"></path><path d="M1.975 15.75a3 3 0 1 0 6 0 3 3 0 1 0 -6 0Z" fill="none" stroke="#000000" stroke-linecap="round" stroke-linejoin="round" stroke-width="1"></path><path d="M5.864 20.338A4.482 4.482 0 0 0 0.75 23.25" fill="none" stroke="#000000" stroke-linecap="round" stroke-linejoin="round" stroke-width="1"></path><path d="m14.311 18.75 0 4.5" fill="none" stroke="#000000" stroke-linecap="round" stroke-linejoin="round" stroke-width="1"></path><path d="m23.25 23.25 0 -22.5 -12.75 0 3 3 -3 3 12.75 0" fill="none" stroke="#000000" stroke-linecap="round" stroke-linejoin="round" stroke-width="1"></path></svg>