<svg xmlns="http://www.w3.org/2000/svg" viewBox="0 0 24 24" id="Business-Shark-1--Streamline-Ultimate"><desc>Business Shark 1 Streamline Icon: https://streamlinehq.com</desc><g><path d="M7.5 9.18V4.76a0.71 0.71 0 0 1 0.26 -0.56 0.73 0.73 0 0 1 0.6 -0.2c1.86 0.26 6.31 1.28 8.89 5.16" fill="none" stroke="#000000" stroke-linecap="round" stroke-linejoin="round" stroke-width="1"></path><path d="M23.25 20c-1.58 0 -2.75 -1.73 -3.25 -2.73A5 5 0 0 1 16 20a5 5 0 0 1 -4 -2.73A5 5 0 0 1 8 20a5 5 0 0 1 -4 -2.73C3.5 18.26 2.33 20 0.75 20" fill="none" stroke="#000000" stroke-linecap="round" stroke-linejoin="round" stroke-width="1"></path><path d="M23.25 14.49c-1.58 0 -2.75 -1.73 -3.25 -2.73a5 5 0 0 1 -4 2.73 5 5 0 0 1 -4 -2.73 5 5 0 0 1 -4 2.73 5 5 0 0 1 -4 -2.73c-0.5 1 -1.67 2.73 -3.25 2.73" fill="none" stroke="#000000" stroke-linecap="round" stroke-linejoin="round" stroke-width="1"></path></g></svg>