<svg xmlns="http://www.w3.org/2000/svg" fill="none" viewBox="0 0 24 24" id="Business-Piggy-Bank-Broken--Streamline-Ultimate"><desc>Business Piggy Bank Broken Streamline Icon: https://streamlinehq.com</desc><path stroke="#000000" d="M8.625 6.75c-0.20711 0 -0.375 -0.16789 -0.375 -0.375S8.41789 6 8.625 6" stroke-width="1"></path><path stroke="#000000" d="M8.625 6.75c0.20711 0 0.375 -0.16789 0.375 -0.375S8.83211 6 8.625 6" stroke-width="1"></path><path stroke="#000000" stroke-linecap="round" stroke-linejoin="round" d="M8.25 13.495v3.657" stroke-width="1"></path><path stroke="#000000" stroke-linecap="round" stroke-linejoin="round" d="m14.707 9.01915 -2.918 -2.188c-0.0812 -0.06101 -0.1414 -0.14578 -0.1722 -0.24255 -0.0308 -0.09676 -0.0308 -0.20073 0.0002 -0.29745l1.391 -4.346c-0.8152 -0.03748 -1.6319 0.02973 -2.43 0.2 -0.3917 -0.64331 -1.01781 -1.10947 -1.74641 -1.300295C8.10298 0.654031 7.32876 0.753441 6.672 1.12215c0.37028 0.20119 0.6892 0.48502 0.932 0.82945 0.2428 0.34443 0.40294 0.74019 0.468 1.15655 -0.82008 0.45335 -1.52974 1.08248 -2.07813 1.84231C5.44548 5.71029 5.07193 6.582 4.9 7.50315H3v2.99995h2.25c0.627 1.0681 1.49711 1.9732 2.53965 2.6418 1.04253 0.6687 2.22805 1.0819 3.46035 1.2062l3.457 -5.33195Z" stroke-width="1"></path><path stroke="#000000" stroke-linecap="round" stroke-linejoin="round" d="M16.596 6.1c-0.0569 0.09377 -0.0805 0.20398 -0.0671 0.31284 0.0134 0.10885 0.0631 0.21001 0.1411 0.28716l1.9 1.9c0.079 0.07843 0.1287 0.18154 0.1409 0.29217 0.0122 0.11062 -0.0139 0.22208 -0.0739 0.31583l-3.21 5.044c0.029 0 0.056 0.006 0.085 0.006 4.274 0 7.738 -2.8 7.738 -6.261 0 -2.511 -1.824 -4.645 -4.405 -5.644L16.596 6.1Z" stroke-width="1"></path><path stroke="#000000" stroke-linecap="round" stroke-linejoin="round" d="M3.375 23.25c1.44975 0 2.625 -0.6716 2.625 -1.5s-1.17525 -1.5 -2.625 -1.5 -2.625 0.6716 -2.625 1.5 1.17525 1.5 2.625 1.5Z" stroke-width="1"></path><path stroke="#000000" stroke-linecap="round" stroke-linejoin="round" d="M20.625 23.25c1.4497 0 2.625 -0.6716 2.625 -1.5s-1.1753 -1.5 -2.625 -1.5S18 20.9216 18 21.75s1.1753 1.5 2.625 1.5Z" stroke-width="1"></path><path stroke="#000000" stroke-linecap="round" stroke-linejoin="round" d="M12.375 22.5C13.8247 22.5 15 21.8284 15 21s-1.1753 -1.5 -2.625 -1.5 -2.625 0.6716 -2.625 1.5 1.1753 1.5 2.625 1.5Z" stroke-width="1"></path><path stroke="#000000" stroke-linecap="round" stroke-linejoin="round" d="M23.25 17.25H0.75" stroke-width="1"></path><path stroke="#000000" stroke-linecap="round" stroke-linejoin="round" d="M19.5 13.4207V17.25" stroke-width="1"></path></svg>