<svg viewBox="0 0 24 24" xmlns="http://www.w3.org/2000/svg" id="Business-Flame--Streamline-Ultimate"><desc>Business Flame Streamline Icon: https://streamlinehq.com</desc><path d="M19.5 6.5h1.3a1.146 1.146 0 0 1 1.139 0.941l1.282 7.506a1.646 1.646 0 0 1 0.025 0.29A1.786 1.786 0 0 1 21.443 17H2.557A1.786 1.786 0 0 1 0.75 15.237a1.646 1.646 0 0 1 0.025 -0.29l1.282 -7.506A1.146 1.146 0 0 1 3.2 6.5h1.3" fill="none" stroke="#000000" stroke-linecap="round" stroke-linejoin="round" stroke-width="1"></path><path d="m1.728 20 20.544 0" fill="none" stroke="#000000" stroke-linecap="round" stroke-linejoin="round" stroke-width="1"></path><path d="m3 23 18.587 0" fill="none" stroke="#000000" stroke-linecap="round" stroke-linejoin="round" stroke-width="1"></path><path d="M11.946 1.043a0.49 0.49 0 0 1 0.624 0.694 3.147 3.147 0 0 0 0.587 3.963 3.559 3.559 0 0 0 0.907 -1.5 0.489 0.489 0 0 1 0.737 -0.257A5.1 5.1 0 0 1 17 8.145a4.892 4.892 0 1 1 -9.783 0 7.959 7.959 0 0 1 4.729 -7.102Z" fill="none" stroke="#000000" stroke-linecap="round" stroke-linejoin="round" stroke-width="1"></path></svg>