<svg viewBox="0 0 24 24" xmlns="http://www.w3.org/2000/svg" id="Business-Paper-Boat--Streamline-Ultimate"><desc>Business Paper Boat Streamline Icon: https://streamlinehq.com</desc><path d="m3.812 18.625 17.875 -9.987a0.749 0.749 0 0 1 1.091 0.844l-2.223 8.481a1.512 1.512 0 0 1 -1.44 1.065H4.835a1.48 1.48 0 0 1 -1.02 -0.4" fill="none" stroke="#000000" stroke-linecap="round" stroke-linejoin="round" stroke-width="1"></path><path d="M20.138 18.625 2.263 8.638a0.749 0.749 0 0 0 -1.091 0.844L3.4 17.963a1.512 1.512 0 0 0 1.44 1.065h14.28a1.48 1.48 0 0 0 1.02 -0.4" fill="none" stroke="#000000" stroke-linecap="round" stroke-linejoin="round" stroke-width="1"></path><path d="m17.02 11.245 -4.452 -5.707a0.751 0.751 0 0 0 -1.184 0L6.95 11.256" fill="none" stroke="#000000" stroke-linecap="round" stroke-linejoin="round" stroke-width="1"></path></svg>