<svg xmlns="http://www.w3.org/2000/svg" fill="none" viewBox="0 0 24 24" id="Feast-Of-The-Annunciation-1--Streamline-Ultimate"><desc>Feast Of The Annunciation 1 Streamline Icon: https://streamlinehq.com</desc><path stroke="#000000" stroke-linecap="round" stroke-linejoin="round" stroke-miterlimit="10" d="M20.7878 12.0923c1.2489 0 2.2614 -1.0125 2.2614 -2.2615 0 -1.24897 -1.0125 -2.26146 -2.2614 -2.26146 -1.249 0 -2.2615 1.01249 -2.2615 2.26146 0 1.249 1.0125 2.2615 2.2615 2.2615Z" stroke-width="1"></path><path stroke="#000000" stroke-linecap="round" stroke-linejoin="round" stroke-miterlimit="10" d="M11.1439 7.40194c1.3018 0 2.3572 -1.05536 2.3572 -2.35722 0 -1.30186 -1.0554 -2.35722 -2.3572 -2.35722 -1.30188 0 -2.35724 1.05536 -2.35724 2.35722 0 1.30186 1.05536 2.35722 2.35724 2.35722Z" stroke-width="1"></path><path stroke="#000000" stroke-linecap="round" stroke-linejoin="round" stroke-miterlimit="10" d="M21.8661 19.9798s0.5916 -1.4789 0.5916 -2.3663v-2.0704c0 -0.7887 -0.6902 -1.4789 -1.4789 -1.4789 -0.7888 0 -1.4789 0.6902 -1.4789 1.4789v2.0704c0 0.0986 -0.0986 0.2958 -0.1972 0.3944l-1.8733 1.4789c-0.5915 0.493 -0.8873 1.3803 -0.5915 2.169 0.2958 0.7888 0.9859 1.2817 1.8732 1.2817h2.9578c0.7888 0 1.4789 -0.6901 1.4789 -1.4788 0 -0.7888 -0.3944 -1.4789 -1.2817 -1.4789Z" stroke-width="1"></path><path stroke="#000000" stroke-linecap="round" stroke-linejoin="round" stroke-miterlimit="10" d="M14.8211 8.91063c-2.4515 1.22577 -5.46871 1.22577 -5.46871 1.22577 -0.66002 0 -1.22575 0.3771 -1.32004 1.0372l-1.88578 6.5059 -0.94289 3.3944c-0.45058 1.8023 2.03604 2.6076 2.64008 0.8486l1.13147 -3.9601c0.56574 0.66 1.22577 1.8857 1.79147 3.9601 0.5299 1.8545 3.0838 0.926 2.6401 -0.8486 -1.2257 -4.1487 -2.8287 -5.7516 -3.67726 -6.3174l0.56576 -1.8857c1.5086 -0.0943 3.4887 -0.3772 5.6573 -1.5087 0.66 -0.3771 0.9429 -1.2257 0.66 -1.88574 -0.2828 -0.66002 -1.1314 -0.94289 -1.7915 -0.56573Z" stroke-width="1"></path><path stroke="#000000" stroke-linecap="round" stroke-linejoin="round" d="M8.32147 10.5534s-2.03325 -0.82539 -3.24023 -1.53521C3.432 8.04828 1.957 6.75159 1.957 6.75159c-1.375829 0.8255 -2.092512 4.06901 0.74921 5.02951 -0.32576 1.5176 -0.05343 3.8951 4.30121 2.9214l1.02253 -3.5278c0.0357 -0.2499 0.13988 -0.4588 0.29152 -0.6213Z" stroke-width="1"></path></svg>