<svg xmlns="http://www.w3.org/2000/svg" fill="none" viewBox="0 0 24 24" id="Gregorian-New-Year-Party--Streamline-Ultimate"><desc>Gregorian New Year Party Streamline Icon: https://streamlinehq.com</desc><path stroke="#000000" stroke-linecap="round" stroke-linejoin="round" stroke-miterlimit="10" d="M2.39091 23.0625h2.95" stroke-width="1"></path><path stroke="#000000" stroke-linecap="round" stroke-linejoin="round" stroke-miterlimit="10" d="m3.86591 23.0625 0 -3.7859" stroke-width="1"></path><path stroke="#000000" stroke-linecap="round" stroke-linejoin="round" stroke-miterlimit="10" d="M5.47325 18.8341c-0.98334 0.59 -2.26166 0.59 -3.24499 0 -0.885 -0.59 -1.376686 -1.5733 -1.278352 -2.655l0.786682 -7.47332c0 -0.295 0.295 -0.49167 0.49167 -0.49167h3.24499c0.295 0 0.49166 0.19667 0.49166 0.49167l0.78669 7.47332c0.19666 1.0817 -0.29502 2.065 -1.27835 2.655Z" stroke-width="1"></path><path stroke="#000000" stroke-linecap="round" stroke-linejoin="round" stroke-miterlimit="10" d="m1.3125 12.7375 5.07031 0" stroke-width="1"></path><path stroke="#000000" stroke-linecap="round" stroke-linejoin="round" stroke-miterlimit="10" d="M14.1142 1.33069c1.0835 0 2.1905 0.85666 2.7533 1.57333" stroke-width="1"></path><path stroke="#000000" stroke-linecap="round" stroke-linejoin="round" stroke-miterlimit="10" d="M13.2292 7.13242s0.9833 -1.18 2.7533 -1.57334" stroke-width="1"></path><path stroke="#000000" stroke-linecap="round" stroke-linejoin="round" stroke-miterlimit="10" d="M21.9808 0.9375s-1.475 0.49167 -2.4583 1.96667" stroke-width="1"></path><path stroke="#000000" stroke-linecap="round" stroke-linejoin="round" stroke-miterlimit="10" d="M23.0625 7.13242s-0.9833 -1.18 -2.7533 -1.57334" stroke-width="1"></path><path stroke="#000000" stroke-linecap="round" stroke-linejoin="round" stroke-miterlimit="10" d="M18.1458 6.83752v2.45834" stroke-width="1"></path><path stroke="#000000" stroke-linecap="round" stroke-linejoin="round" stroke-miterlimit="10" d="M13.1308 14.8024s0.1967 0.0983 0.4917 0.295c0.295 0.1966 0.7867 0.59 1.18 0.9833 0.1967 0.1967 0.295 0.3933 0.4917 0.6883" stroke-width="1"></path><path stroke="#000000" stroke-linecap="round" stroke-linejoin="round" stroke-miterlimit="10" d="M11.1642 19.8175s1.1799 -0.885 2.7533 -0.885" stroke-width="1"></path><path stroke="#000000" stroke-linecap="round" stroke-linejoin="round" stroke-miterlimit="10" d="M20.3091 16.0807s-1.4749 0.0983 -2.6549 1.2783" stroke-width="1"></path><path stroke="#000000" stroke-linecap="round" stroke-linejoin="round" stroke-miterlimit="10" d="M20.0142 21.8825s-0.59 -1.2783 -2.065 -2.065" stroke-width="1"></path><path stroke="#000000" stroke-linecap="round" stroke-linejoin="round" stroke-miterlimit="10" d="M15.6875 20.6041c-0.3933 0.7867 -0.4917 1.5734 -0.4917 2.4584" stroke-width="1"></path><path stroke="#000000" stroke-linecap="round" stroke-linejoin="round" stroke-miterlimit="10" d="M7.08953 0.9375v2.065" stroke-width="1"></path><path stroke="#000000" stroke-linecap="round" stroke-linejoin="round" stroke-miterlimit="10" d="m5.02452 2.21582 2.06501 0.78667" stroke-width="1"></path><path stroke="#000000" stroke-linecap="round" stroke-linejoin="round" stroke-miterlimit="10" d="m5.71287 4.87065 1.37666 -1.86833" stroke-width="1"></path><path stroke="#000000" stroke-linecap="round" stroke-linejoin="round" stroke-miterlimit="10" d="M8.46619 4.87065 7.08953 3.00232" stroke-width="1"></path><path stroke="#000000" stroke-linecap="round" stroke-linejoin="round" stroke-miterlimit="10" d="m9.15454 2.21582 -2.06501 0.78667" stroke-width="1"></path></svg>