<svg xmlns="http://www.w3.org/2000/svg" fill="none" viewBox="0 0 24 24" id="Gregorian-New-Year-Party-Calendar--Streamline-Ultimate"><desc>Gregorian New Year Party Calendar Streamline Icon: https://streamlinehq.com</desc><path stroke="#000000" stroke-linecap="round" stroke-linejoin="round" stroke-miterlimit="10" d="M23.0625 21.5875c0 0.7866 -0.6883 1.475 -1.475 1.475H2.4125c-0.78667 0 -1.475 -0.6884 -1.475 -1.475V5.36245c0 -0.78667 0.68833 -1.475 1.475 -1.475h19.175c0.7867 0 1.475 0.68833 1.475 1.475V21.5875Z" stroke-width="1"></path><path stroke="#000000" stroke-linecap="round" stroke-linejoin="round" stroke-miterlimit="10" d="M1.03581 8.8042H23.0625" stroke-width="1"></path><path stroke="#000000" stroke-linecap="round" stroke-linejoin="round" stroke-miterlimit="10" d="M6.93581 6.05083V0.9375" stroke-width="1"></path><path stroke="#000000" stroke-linecap="round" stroke-linejoin="round" stroke-miterlimit="10" d="M17.1625 6.05083V0.9375" stroke-width="1"></path><path stroke="#000000" stroke-linecap="round" stroke-linejoin="round" stroke-miterlimit="10" d="M11.1642 12.3441c1.0835 0 2.367 1.0778 2.7533 1.5733" stroke-width="1"></path><path stroke="#000000" stroke-linecap="round" stroke-linejoin="round" stroke-miterlimit="10" d="M10.2792 17.9491c0.4864 -0.6679 2.0177 -1.4647 2.7533 -1.5734" stroke-width="1"></path><path stroke="#000000" stroke-linecap="round" stroke-linejoin="round" stroke-miterlimit="10" d="M19.0308 11.9508c-0.7339 0.268 -1.7964 0.9711 -2.4583 1.9667" stroke-width="1"></path><path stroke="#000000" stroke-linecap="round" stroke-linejoin="round" stroke-miterlimit="10" d="M20.1125 17.9491c-0.5813 -0.7616 -1.6437 -1.3397 -2.7534 -1.5734" stroke-width="1"></path><path stroke="#000000" stroke-linecap="round" stroke-linejoin="round" stroke-miterlimit="10" d="M15.1958 17.8508v2.4584" stroke-width="1"></path><path stroke="#000000" stroke-linecap="round" stroke-linejoin="round" stroke-miterlimit="10" d="M6.14915 11.9508v2.1633" stroke-width="1"></path><path stroke="#000000" stroke-linecap="round" stroke-linejoin="round" stroke-miterlimit="10" d="m4.08415 13.2291 2.06501 0.885" stroke-width="1"></path><path stroke="#000000" stroke-linecap="round" stroke-linejoin="round" stroke-miterlimit="10" d="m4.77249 15.8841 1.37666 -1.77" stroke-width="1"></path><path stroke="#000000" stroke-linecap="round" stroke-linejoin="round" stroke-miterlimit="10" d="m7.52582 15.8841 -1.37667 -1.77" stroke-width="1"></path><path stroke="#000000" stroke-linecap="round" stroke-linejoin="round" stroke-miterlimit="10" d="m8.21416 13.2291 -2.06501 0.885" stroke-width="1"></path></svg>