<svg xmlns="http://www.w3.org/2000/svg" fill="none" viewBox="0 0 24 24" id="Mardi-Gras--Streamline-Ultimate"><desc>Mardi Gras Streamline Icon: https://streamlinehq.com</desc><path stroke="#000000" stroke-linecap="round" stroke-linejoin="round" stroke-miterlimit="10" d="m12.484 14.1388 -0.484 0.2917 -0.4839 -0.2917c-1.2583 -1.0695 -3.19417 -1.1667 -4.54925 -0.1945 -0.67754 0.5834 -1.64546 0.6806 -2.51658 0.2917l-3.3877 -1.1667c0 1.4584 0.00001 2.625 0.19359 3.6945C1.9337 21.8193 7.54761 24.5415 12 21.9165c4.4524 2.625 10.0663 -0.0972 10.7439 -5.1527 0.1936 -1.0695 0.1936 -2.2361 0.1936 -3.6945l-3.3877 1.1667c-0.8712 0.3889 -1.8391 0.2917 -2.5166 -0.2917 -1.3551 -0.9722 -3.2909 -0.875 -4.5492 0.1945Z" stroke-width="1"></path><path stroke="#000000" stroke-linecap="round" stroke-linejoin="round" stroke-miterlimit="10" d="M16.6092 19.411c0.998 -0.5249 1.4829 -1.5668 1.0829 -2.3272 -0.3999 -0.7604 -1.5331 -0.9513 -2.5311 -0.4264 -0.9981 0.5249 -1.4829 1.5668 -1.083 2.3272 0.3999 0.7604 1.5332 0.9513 2.5312 0.4264Z" stroke-width="1"></path><path stroke="#000000" stroke-linecap="round" stroke-linejoin="round" stroke-miterlimit="10" d="M9.922 18.9948c0.3999 -0.7604 -0.08494 -1.8023 -1.08296 -2.3272 -0.99801 -0.5249 -2.13126 -0.334 -2.53117 0.4264 -0.39992 0.7604 0.08494 1.8023 1.08295 2.3272 0.99802 0.5249 2.13127 0.334 2.53118 -0.4264Z" stroke-width="1"></path><path stroke="#000000" stroke-linecap="round" stroke-linejoin="round" stroke-miterlimit="10" d="M9.72883 13.3229c0.65137 0.1067 1.27537 0.3808 1.78727 0.8159l0.4839 0.2917 0.484 -0.2917c0.5209 -0.4427 1.1579 -0.7188 1.8217 -0.8214 0.3979 -1.7289 0.6109 -3.86712 0.6109 -5.09001 0 -2.91665 -1.2638 -6.80551 -2.9166 -6.80551 -1.6528 0 -2.91666 3.88886 -2.91666 6.80551 0 1.21402 0.25196 3.37221 0.64549 5.09551Z" stroke-width="1"></path><path stroke="#000000" stroke-linecap="round" stroke-linejoin="round" stroke-miterlimit="10" d="M9.72882 13.3229c-0.39352 -1.7233 -0.64548 -3.88149 -0.64548 -5.09551 0 -0.65375 0.0635 -1.35635 0.18065 -2.05305L7.43751 4.3633c-0.97222 -0.97221 -2.43054 -1.3611 -3.79164 -0.97221C2.09032 3.8772 0.923676 5.33552 0.923676 6.98829v3.50001L3.06253 8.34939c0.19445 -0.19444 0.48613 -0.29166 0.7778 -0.29166 0.58333 0 1.06941 0.38888 1.06941 0.97221 0.1825 1.73376 1.31929 3.51446 2.74437 4.53056 0.65427 -0.2749 1.38008 -0.3515 2.07471 -0.2376Z" stroke-width="1"></path><path stroke="#000000" stroke-linecap="round" stroke-linejoin="round" stroke-miterlimit="10" d="M14.2712 13.3229c0.3935 -1.7233 0.6455 -3.88149 0.6455 -5.09551 0 -0.65375 -0.0635 -1.35635 -0.1807 -2.05305l1.8265 -1.81104c0.9722 -0.97221 2.4306 -1.3611 3.7917 -0.97221 1.5555 0.48611 2.7222 1.94443 2.7222 3.5972v3.50001l-2.1389 -2.13891c-0.1944 -0.19444 -0.4861 -0.29166 -0.7778 -0.29166 -0.5833 0 -1.0694 0.38888 -1.0694 0.97221 -0.1825 1.73376 -1.3193 3.51446 -2.7444 4.53056 -0.6542 -0.2749 -1.3801 -0.3515 -2.0747 -0.2376Z" stroke-width="1"></path></svg>