<svg xmlns="http://www.w3.org/2000/svg" fill="none" viewBox="0 0 24 24" id="Pentecost-2--Streamline-Ultimate"><desc>Pentecost 2 Streamline Icon: https://streamlinehq.com</desc><path stroke="#000000" stroke-linecap="round" stroke-linejoin="round" stroke-miterlimit="10" d="m3.89999 3.90015 1.1 1.09999" stroke-width="1"></path><path stroke="#000000" stroke-linecap="round" stroke-linejoin="round" stroke-miterlimit="10" d="m3.89999 20.1 1.1 -1.1" stroke-width="1"></path><path stroke="#000000" stroke-linecap="round" stroke-linejoin="round" stroke-miterlimit="10" d="M20.1 20.1 19 19" stroke-width="1"></path><path stroke="#000000" stroke-linecap="round" stroke-linejoin="round" stroke-miterlimit="10" d="M20.1 3.90015 19 5.00014" stroke-width="1"></path><path stroke="#000000" stroke-linecap="round" stroke-linejoin="round" stroke-miterlimit="10" d="M0.75 12.0001h1.4" stroke-width="1"></path><path stroke="#000000" stroke-linecap="round" stroke-linejoin="round" stroke-miterlimit="10" d="M23.25 12.0001h-1.4" stroke-width="1"></path><path stroke="#000000" stroke-linecap="round" stroke-linejoin="round" stroke-miterlimit="10" d="M12 0.75v1.39999" stroke-width="1"></path><path stroke="#000000" stroke-linecap="round" stroke-linejoin="round" stroke-miterlimit="10" d="M12 23.25v-1.4" stroke-width="1"></path><path stroke="#000000" stroke-linecap="round" stroke-linejoin="round" stroke-miterlimit="10" d="M6.40001 15.2001S9 19.5001 13.3 17.5001c2.1946 -1.0677 4.1333 -2.99 4.4846 -5.4495 0 0 -1.4408 -1.0662 -3.3846 -0.5505 -0.6 0.2 -1.1 0.4 -1.5 0.6 -0.6 -1 -1.4 -2.40002 -2 -3.10002 -0.99999 -1.1 -3 -0.6 -5.1 -0.7 1 3.40002 2.9 4.90002 4.8 5.30002 -0.3 0.2 -0.6 0.5 -1 0.7 -2.4 1.4 -3.19999 0.9 -3.19999 0.9Z" stroke-width="1"></path><path stroke="#000000" stroke-linecap="round" stroke-linejoin="round" stroke-miterlimit="10" d="M19.3 13.3 19 13s-0.4538 -0.4991 -1.2101 -0.9463" stroke-width="1"></path><path stroke="#000000" stroke-linecap="round" stroke-linejoin="round" stroke-miterlimit="10" d="M15.4687 11.3626c0.3 -2.29997 -0.1 -3.49998 -0.4 -3.89998 -0.8 -0.8 -1.9 -1.1 -2.5 -1.4" stroke-width="1"></path></svg>