<svg xmlns="http://www.w3.org/2000/svg" fill="none" viewBox="0 0 24 24" id="Pentecost-1--Streamline-Ultimate"><desc>Pentecost 1 Streamline Icon: https://streamlinehq.com</desc><path stroke="#000000" stroke-linecap="round" stroke-linejoin="round" stroke-miterlimit="10" d="m22 10.25 -0.4 0.8c-0.7 1.6 -2.2 2.7 -4 2.7h-0.9c-1.6 0 -3.1 0.9 -3.8 2.4l-1 1.9 -1 -1.9c-0.7 -1.5 -2.2 -2.4 -3.8 -2.4h-0.8c-1.8 0 -3.3 -1.1 -4 -2.7l-0.3 -0.9h3.8c0.8 0 1.6 0.1001 2.4 0.3001l1.7 0.4 -0.8 -2.80005h5.7l-0.7 2.90005 1.7 -0.4001c0.8 -0.2 1.6 -0.3 2.4 -0.3H22Z" stroke-width="1"></path><path stroke="#000000" stroke-linecap="round" stroke-linejoin="round" stroke-miterlimit="10" d="M12 0.75v2.2" stroke-width="1"></path><path stroke="#000000" stroke-linecap="round" stroke-linejoin="round" stroke-miterlimit="10" d="m3.8 3.8501 1.6 1.6" stroke-width="1"></path><path stroke="#000000" stroke-linecap="round" stroke-linejoin="round" stroke-miterlimit="10" d="m3.8 20.25 1.6 -1.6" stroke-width="1"></path><path stroke="#000000" stroke-linecap="round" stroke-linejoin="round" stroke-miterlimit="10" d="M12 23.25v-2.2" stroke-width="1"></path><path stroke="#000000" stroke-linecap="round" stroke-linejoin="round" stroke-miterlimit="10" d="m20.2 20.25 -1.6 -1.6" stroke-width="1"></path><path stroke="#000000" stroke-linecap="round" stroke-linejoin="round" stroke-miterlimit="10" d="m20.2 3.8501 -1.6 1.6" stroke-width="1"></path></svg>