<svg viewBox="0 0 24 24" xmlns="http://www.w3.org/2000/svg" id="Shape-Cube--Streamline-Ultimate"><desc>Shape Cube Streamline Icon: https://streamlinehq.com</desc><path d="M16.629 23.25a1.5 1.5 0 0 0 1.06 -0.439l5.122 -5.122a1.5 1.5 0 0 0 0.439 -1.06V2.25a1.5 1.5 0 0 0 -1.5 -1.5H7.371a1.5 1.5 0 0 0 -1.06 0.439L1.189 6.311a1.5 1.5 0 0 0 -0.439 1.06V21.75a1.5 1.5 0 0 0 1.5 1.5Z" fill="none" stroke="#000000" stroke-linecap="round" stroke-linejoin="round" stroke-width="1"></path><path d="m17.25 23.115 0 -16.365" fill="none" stroke="#000000" stroke-linecap="round" stroke-linejoin="round" stroke-width="1"></path><path d="m6.75 17.25 16.365 0" fill="none" stroke="#000000" stroke-linecap="round" stroke-linejoin="round" stroke-width="1"></path><path d="M1.189 22.811 6.75 17.25" fill="none" stroke="#000000" stroke-linecap="round" stroke-linejoin="round" stroke-width="1"></path><path d="m17.25 6.75 5.561 -5.561" fill="none" stroke="#000000" stroke-linecap="round" stroke-linejoin="round" stroke-width="1"></path><path d="m17.25 6.75 -16.365 0" fill="none" stroke="#000000" stroke-linecap="round" stroke-linejoin="round" stroke-width="1"></path><path d="m6.75 0.885 0 16.365" fill="none" stroke="#000000" stroke-linecap="round" stroke-linejoin="round" stroke-width="1"></path></svg>