<svg xmlns="http://www.w3.org/2000/svg" fill="none" viewBox="0 0 24 24" id="Aquascaping-1--Streamline-Ultimate"><desc>Aquascaping 1 Streamline Icon: https://streamlinehq.com</desc><path stroke="#000000" stroke-linecap="round" stroke-linejoin="round" d="M23 18.6v2.4444c0 0.5187 -0.206 1.0161 -0.5728 1.3828 -0.3667 0.3668 -0.8641 0.5728 -1.3828 0.5728H2.95556c-0.51865 0 -1.01605 -0.206 -1.38279 -0.5728C1.20603 22.0605 1 21.5631 1 21.0444V4.91111h10.2667" stroke-width="1"></path><path stroke="#000000" stroke-linecap="round" stroke-linejoin="round" d="m16.1428 9.05005 -0.7822 5.74835c-0.0279 0.1538 -0.006 0.3126 0.0626 0.4531 0.0686 0.1405 0.1802 0.2554 0.3187 0.3281 0.1384 0.0727 0.2965 0.0992 0.451 0.0759 0.1546 -0.0234 0.2977 -0.0955 0.4085 -0.2059l2.0035 -2.0044 2.0034 2.0044c0.1108 0.1104 0.2539 0.1825 0.4085 0.2059 0.1546 0.0233 0.3126 -0.0032 0.451 -0.0759 0.1385 -0.0727 0.2501 -0.1876 0.3187 -0.3281s0.0905 -0.2993 0.0626 -0.4531l-0.7822 -5.74835" stroke-width="1"></path><path stroke="#000000" stroke-linecap="round" stroke-linejoin="round" d="M18.6 9.8c2.4301 0 4.4 -1.96995 4.4 -4.4C23 2.96995 21.0301 1 18.6 1c-2.43 0 -4.4 1.96995 -4.4 4.4 0 2.43005 1.97 4.4 4.4 4.4Z" stroke-width="1"></path><path stroke="#000000" d="M18.6049 5.76667c-0.2025 0 -0.3667 -0.16417 -0.3667 -0.36667 0 -0.2025 0.1642 -0.36667 0.3667 -0.36667" stroke-width="1"></path><path stroke="#000000" d="M18.6049 5.76667c0.2025 0 0.3667 -0.16417 0.3667 -0.36667 0 -0.2025 -0.1642 -0.36667 -0.3667 -0.36667" stroke-width="1"></path><path stroke="#000000" stroke-linecap="round" stroke-linejoin="round" d="M1 19.8222c2.55378 -0.8288 5.20269 -1.3293 7.88284 -1.4891C12.2102 18.334 17.9644 19.8222 23 19.8222" stroke-width="1"></path><path stroke="#000000" stroke-linecap="round" stroke-linejoin="round" d="M6.78353 18.334c-2.40631 -3.5385 -0.13493 -4.6767 -0.81155 -9.44529" stroke-width="1"></path><path stroke="#000000" stroke-linecap="round" stroke-linejoin="round" d="M4.08685 10.0532c0.57527 0.3781 1.2486 0.5796 1.93698 0.5796s1.36171 -0.2015 1.93698 -0.5796" stroke-width="1"></path><path stroke="#000000" stroke-linecap="round" stroke-linejoin="round" d="M3.95386 12.6101c0.57532 0.3784 1.24886 0.5801 1.93746 0.5801 0.68861 0 1.36215 -0.2017 1.93747 -0.5801" stroke-width="1"></path><path stroke="#000000" stroke-linecap="round" stroke-linejoin="round" d="M3.70941 15.3743c0.57551 0.3779 1.24897 0.5793 1.93747 0.5793 0.68849 0 1.36196 -0.2014 1.93747 -0.5793" stroke-width="1"></path><path stroke="#000000" d="M11.7966 11.3661c-0.2025 0 -0.3667 -0.1642 -0.3667 -0.3667s0.1642 -0.3666 0.3667 -0.3666" stroke-width="1"></path><path stroke="#000000" d="M11.7966 11.3661c0.2025 0 0.3667 -0.1642 0.3667 -0.3667s-0.1642 -0.3666 -0.3667 -0.3666" stroke-width="1"></path></svg>