<svg xmlns="http://www.w3.org/2000/svg" viewBox="0 0 24 24" id="Aquascaping-Plant--Streamline-Ultimate"><desc>Aquascaping Plant Streamline Icon: https://streamlinehq.com</desc><defs></defs><title>aquascaping-plant</title><path d="M9.189 12.764v-1.592c0 -1.737 0.48 -2.916 1.224 -3.344" fill="none" stroke="#000000" stroke-linecap="round" stroke-linejoin="round" stroke-width="1"></path><path d="M10.413 7.828S7.775 0.463 16.806 0.759c-2.463 1.99 -0.506 8.092 -6.393 7.069Z" fill="none" stroke="#000000" stroke-linecap="round" stroke-linejoin="round" stroke-width="1"></path><path d="M7.817 4.705C6.9 3.9 4.578 2.438 0.806 3.587 4.039 5.7 3.355 10.8 9.526 9" fill="none" stroke="#000000" stroke-linecap="round" stroke-linejoin="round" stroke-width="1"></path><path d="M21.348 2.889 14.4 13.974 7.583 16.25a0.873 0.873 0 0 0 -0.595 1.021h0a0.873 0.873 0 0 0 0.907 0.684l9.311 -0.542 6.044 -8.364" fill="none" stroke="#000000" stroke-linecap="round" stroke-linejoin="round" stroke-width="1"></path><path d="m9.189 20.375 0 2.875" fill="none" stroke="#000000" stroke-linecap="round" stroke-linejoin="round" stroke-width="1"></path><path d="m0.75 21 5.5 0" fill="none" stroke="#000000" stroke-linecap="round" stroke-linejoin="round" stroke-width="1"></path><path d="m23.129 21 -11 0" fill="none" stroke="#000000" stroke-linecap="round" stroke-linejoin="round" stroke-width="1"></path></svg>