<svg viewBox="0 0 24 24" xmlns="http://www.w3.org/2000/svg" id="Ice-Cream-Cone-1--Streamline-Ultimate"><desc>Ice Cream Cone 1 Streamline Icon: https://streamlinehq.com</desc><path d="M14.1 21.876a2.293 2.293 0 0 1 -4.2 0L5.71 12.3a0.75 0.75 0 0 1 0.69 -1.05h11.2a0.75 0.75 0 0 1 0.69 1.05Z" fill="none" stroke="#000000" stroke-linecap="round" stroke-linejoin="round" stroke-width="1"></path><path d="M11.25 0.75a1.5 1.5 0 0 0 1.5 1.5 3 3 0 0 1 2.829 2 0.75 0.75 0 0 1 -0.707 1H9.75a3 3 0 0 0 -2.829 2 0.75 0.75 0 0 0 0.707 1h6.622a3 3 0 0 1 3 3" fill="none" stroke="#000000" stroke-linecap="round" stroke-linejoin="round" stroke-width="1"></path></svg>