<svg xmlns="http://www.w3.org/2000/svg" fill="none" viewBox="0 0 24 24" id="Duplicate-Folder--Streamline-Ultimate"><desc>Duplicate Folder Streamline Icon: https://streamlinehq.com</desc><path stroke="#000000" stroke-linecap="round" stroke-linejoin="round" d="M19.25 9.75916V5.25c0 -0.39782 -0.158 -0.77936 -0.4393 -1.06066 -0.2813 -0.2813 -0.6629 -0.43934 -1.0607 -0.43934H9l-1.8 -2.4c-0.13972 -0.18629 -0.3209 -0.3375 -0.52918 -0.441641C6.46254 0.804218 6.23287 0.75 6 0.75H2.25c-0.39782 0 -0.77936 0.158035 -1.06066 0.43934C0.908035 1.47064 0.75 1.85218 0.75 2.25v12.5c0 0.3978 0.158035 0.7794 0.43934 1.0607 0.2813 0.2813 0.66284 0.4393 1.06066 0.4393h2.50206" stroke-width="1"></path><path stroke="#000000" stroke-linecap="round" stroke-linejoin="round" d="M23.25 11.25c0 -0.3978 -0.158 -0.7794 -0.4393 -1.0607 -0.2813 -0.28126 -0.6629 -0.4393 -1.0607 -0.4393H13l-1.8 -2.4c-0.1397 -0.18629 -0.3209 -0.3375 -0.5292 -0.44164C10.4625 6.80422 10.2329 6.75 10 6.75H6.25c-0.39782 0 -0.77936 0.15804 -1.06066 0.43934 -0.2813 0.2813 -0.43934 0.66284 -0.43934 1.06066v12.5c0 0.3978 0.15804 0.7794 0.43934 1.0607s0.66284 0.4393 1.06066 0.4393h15.5c0.3978 0 0.7794 -0.158 1.0607 -0.4393s0.4393 -0.6629 0.4393 -1.0607v-9.5Z" stroke-width="1"></path></svg>