<svg viewBox="0 0 24 24" xmlns="http://www.w3.org/2000/svg" id="Folder-Edit--Streamline-Ultimate"><desc>Folder Edit Streamline Icon: https://streamlinehq.com</desc><path d="m8.25 18.75 -5.803 0" fill="none" stroke="#000000" stroke-linecap="round" stroke-linejoin="round" stroke-width="1"></path><path d="M20.25 8.25v-3a1.5 1.5 0 0 0 -1.5 -1.5H8.25v-1.5a1.5 1.5 0 0 0 -1.5 -1.5h-4.5a1.5 1.5 0 0 0 -1.5 1.5v14.8a1.7 1.7 0 0 0 3.336 0.438l2.351 -8.154A1.5 1.5 0 0 1 7.879 8.25H21.75" fill="none" stroke="#000000" stroke-linecap="round" stroke-linejoin="round" stroke-width="1"></path><path d="M22.63 14.87 15 22.5l-3.75 0.75 0.75 -3.75 7.63 -7.63a2.114 2.114 0 0 1 2.992 0l0.008 0.008a2.114 2.114 0 0 1 0 2.992Z" fill="none" stroke="#000000" stroke-linecap="round" stroke-linejoin="round" stroke-width="1"></path></svg>