<svg xmlns="http://www.w3.org/2000/svg" fill="none" viewBox="0 0 24 24" id="Folder-Image-1--Streamline-Ultimate"><desc>Folder Image 1 Streamline Icon: https://streamlinehq.com</desc><path stroke="#000000" stroke-linecap="round" stroke-linejoin="round" d="M21.75 9V6c0 -0.39782 -0.158 -0.77936 -0.4393 -1.06066C21.0294 4.65804 20.6478 4.5 20.25 4.5h-12V3c0 -0.39782 -0.15804 -0.77936 -0.43934 -1.06066C7.52936 1.65804 7.14782 1.5 6.75 1.5h-4.5c-0.39782 0 -0.77936 0.15804 -1.06066 0.43934C0.908035 2.22064 0.75 2.60218 0.75 3v17.8c0.005644 0.4085 0.158176 0.8012 0.42968 1.1064 0.27151 0.3052 0.64384 0.5025 1.04886 0.5556 0.40501 0.0532 0.81564 -0.0412 1.15673 -0.266s0.58984 -0.5648 0.70073 -0.958l2.351 -11.154c0.09025 -0.31265 0.27972 -0.58747 0.53983 -0.783 0.26011 -0.19554 0.57676 -0.30118 0.90217 -0.301H21.75Zm0 0c0.2299 -0.00008 0.4568 0.0527 0.6631 0.15426 0.2063 0.10157 0.3864 0.24919 0.5266 0.43148 0.1401 0.18228 0.2365 0.39435 0.2816 0.61976 0.0452 0.2255 0.0379 0.4583 -0.0213 0.6805l-2.2 10.5c-0.0851 0.3195 -0.2734 0.602 -0.5356 0.8035 -0.2623 0.2015 -0.5837 0.3106 -0.9144 0.3105H2.447" stroke-width="1"></path><path stroke="#000000" d="M9.75 13.125c-0.20711 0 -0.375 -0.1679 -0.375 -0.375s0.16789 -0.375 0.375 -0.375" stroke-width="1"></path><path stroke="#000000" d="M9.75 13.125c0.20711 0 0.375 -0.1679 0.375 -0.375s-0.16789 -0.375 -0.375 -0.375" stroke-width="1"></path><path stroke="#000000" stroke-linecap="round" stroke-linejoin="round" d="m18.379 19.5 -2.911 -4.365c-0.0676 -0.1015 -0.159 -0.1849 -0.2662 -0.2432 -0.1071 -0.0582 -0.2269 -0.0894 -0.3488 -0.0908 -0.122 -0.0015 -0.2425 0.0268 -0.351 0.0824 -0.1086 0.0556 -0.2019 0.1368 -0.272 0.2366l-2 2.851 -1.23 -0.989c-0.0812 -0.0648 -0.175 -0.1121 -0.2754 -0.1388 -0.1004 -0.0266 -0.2053 -0.0322 -0.308 -0.0162 -0.1026 0.016 -0.2009 0.0531 -0.2884 0.1091 -0.0876 0.0559 -0.16256 0.1295 -0.2202 0.2159L8.34 19.5" stroke-width="1"></path></svg>