<svg viewBox="0 0 24 24" xmlns="http://www.w3.org/2000/svg" id="Folder-Media--Streamline-Ultimate"><desc>Folder Media Streamline Icon: https://streamlinehq.com</desc><path d="M18.75 6.75v-1.5a1.5 1.5 0 0 0 -1.5 -1.5h-9v-1.5a1.5 1.5 0 0 0 -1.5 -1.5h-4.5a1.5 1.5 0 0 0 -1.5 1.5v16.3" fill="none" stroke="#000000" stroke-linecap="round" stroke-linejoin="round" stroke-width="1"></path><path d="M3.75 20.25v-12a1.5 1.5 0 0 1 1.5 -1.5h15a1.5 1.5 0 0 1 1.5 1.5v1.5" fill="none" stroke="#000000" stroke-linecap="round" stroke-linejoin="round" stroke-width="1"></path><path d="m6.75 9.75 16.5 0 0 13.5 -16.5 0Z" fill="none" stroke="#000000" stroke-linecap="round" stroke-linejoin="round" stroke-width="1"></path><path d="M12.488 20.16a0.856 0.856 0 0 1 -1.238 -0.766v-5.788a0.856 0.856 0 0 1 1.238 -0.766l5.789 2.895a0.855 0.855 0 0 1 0 1.53Z" fill="none" stroke="#000000" stroke-linecap="round" stroke-linejoin="round" stroke-width="1"></path></svg>