<svg viewBox="0 0 24 24" xmlns="http://www.w3.org/2000/svg" id="Folder-Dash--Streamline-Ultimate"><desc>Folder Dash Streamline Icon: https://streamlinehq.com</desc><path d="M0.75 20.25v0.109a1.39 1.39 0 0 0 2.634 0.622l0.366 -0.731" fill="none" stroke="#000000" stroke-linecap="round" stroke-linejoin="round" stroke-width="1"></path><path d="M0.75 4.5V3.375A1.125 1.125 0 0 1 1.875 2.25H3" fill="none" stroke="#000000" stroke-linecap="round" stroke-linejoin="round" stroke-width="1"></path><path d="M20.25 6.75V4.875a1.125 1.125 0 0 0 -1.125 -1.125H18" fill="none" stroke="#000000" stroke-linecap="round" stroke-linejoin="round" stroke-width="1"></path><path d="m22.963 12 0.248 -0.852a1 1 0 0 0 -0.238 -0.965 1.4 1.4 0 0 0 -1.032 -0.433H21" fill="none" stroke="#000000" stroke-linecap="round" stroke-linejoin="round" stroke-width="1"></path><path d="M18.75 21.75h1.1a0.964 0.964 0 0 0 0.873 -0.852L21 19.5" fill="none" stroke="#000000" stroke-linecap="round" stroke-linejoin="round" stroke-width="1"></path><path d="M8.25 9.75H6.4a0.964 0.964 0 0 0 -0.873 0.852L5.25 12" fill="none" stroke="#000000" stroke-linecap="round" stroke-linejoin="round" stroke-width="1"></path><path d="m4.675 14.873 -0.465 2.325" fill="none" stroke="#000000" stroke-linecap="round" stroke-linejoin="round" stroke-width="1"></path><path d="m22.114 14.754 -0.435 2.176" fill="none" stroke="#000000" stroke-linecap="round" stroke-linejoin="round" stroke-width="1"></path><path d="m0.75 8.25 0 2.25" fill="none" stroke="#000000" stroke-linecap="round" stroke-linejoin="round" stroke-width="1"></path><path d="m12.75 9.75 -1.5 0" fill="none" stroke="#000000" stroke-linecap="round" stroke-linejoin="round" stroke-width="1"></path><path d="m18 9.75 -1.5 0" fill="none" stroke="#000000" stroke-linecap="round" stroke-linejoin="round" stroke-width="1"></path><path d="m14.25 3.75 -2.25 0" fill="none" stroke="#000000" stroke-linecap="round" stroke-linejoin="round" stroke-width="1"></path><path d="m9 21.75 -2.25 0" fill="none" stroke="#000000" stroke-linecap="round" stroke-linejoin="round" stroke-width="1"></path><path d="m15 21.75 -2.25 0" fill="none" stroke="#000000" stroke-linecap="round" stroke-linejoin="round" stroke-width="1"></path><path d="m0.75 14.25 0 2.25" fill="none" stroke="#000000" stroke-linecap="round" stroke-linejoin="round" stroke-width="1"></path></svg>