<svg viewBox="0 0 24 24" xmlns="http://www.w3.org/2000/svg" id="Folder-Fiile-Edit--Streamline-Ultimate"><desc>Folder Fiile Edit Streamline Icon: https://streamlinehq.com</desc><path d="m18.279 7.744 -2.529 0.506 0.506 -2.529 4.552 -4.552a1.43 1.43 0 0 1 2.023 0h0a1.43 1.43 0 0 1 0 2.023Z" fill="none" stroke="#000000" stroke-linecap="round" stroke-linejoin="round" stroke-width="1"></path><path d="M17.25 23.25a1.5 1.5 0 0 0 1.5 -1.5v-6a1.5 1.5 0 0 0 -1.5 -1.5h-9v-1.5a1.5 1.5 0 0 0 -1.5 -1.5h-4.5a1.5 1.5 0 0 0 -1.5 1.5v9a1.5 1.5 0 0 0 1.5 1.5Z" fill="none" stroke="#000000" stroke-linecap="round" stroke-linejoin="round" stroke-width="1"></path><path d="M23.25 8.25v10.5a1.5 1.5 0 0 1 -1.5 1.5h-3" fill="none" stroke="#000000" stroke-linecap="round" stroke-linejoin="round" stroke-width="1"></path><path d="M6.75 11.25v-9a1.5 1.5 0 0 1 1.5 -1.5h7.5" fill="none" stroke="#000000" stroke-linecap="round" stroke-linejoin="round" stroke-width="1"></path></svg>