<svg viewBox="0 0 24 24" xmlns="http://www.w3.org/2000/svg" id="Folder-Hold--Streamline-Ultimate"><desc>Folder Hold Streamline Icon: https://streamlinehq.com</desc><path d="M20.25 8.25v-3a1.5 1.5 0 0 0 -1.5 -1.5H8.25v-1.5a1.5 1.5 0 0 0 -1.5 -1.5h-4.5a1.5 1.5 0 0 0 -1.5 1.5v14.8a1.7 1.7 0 0 0 3.336 0.438l2.351 -8.154A1.5 1.5 0 0 1 7.879 8.25H21.75a1.5 1.5 0 0 1 1.45 1.886l-2.2 7.5a1.5 1.5 0 0 1 -1.45 1.114H2.447" fill="none" stroke="#000000" stroke-linecap="round" stroke-linejoin="round" stroke-width="1"></path><path d="m11.25 18.75 0 4.5" fill="none" stroke="#000000" stroke-linecap="round" stroke-linejoin="round" stroke-width="1"></path><path d="m5.25 23.25 12 0" fill="none" stroke="#000000" stroke-linecap="round" stroke-linejoin="round" stroke-width="1"></path><path d="m0.75 23.25 1.5 0" fill="none" stroke="#000000" stroke-linecap="round" stroke-linejoin="round" stroke-width="1"></path><path d="m20.25 23.25 1.5 0" fill="none" stroke="#000000" stroke-linecap="round" stroke-linejoin="round" stroke-width="1"></path></svg>