<svg viewBox="0 0 24 24" xmlns="http://www.w3.org/2000/svg" id="Folder-Star--Streamline-Ultimate"><desc>Folder Star Streamline Icon: https://streamlinehq.com</desc><path d="m8.25 18.75 -5.803 0" fill="none" stroke="#000000" stroke-linecap="round" stroke-linejoin="round" stroke-width="1"></path><path d="M20.25 8.25v-3a1.5 1.5 0 0 0 -1.5 -1.5H8.25v-1.5a1.5 1.5 0 0 0 -1.5 -1.5h-4.5a1.5 1.5 0 0 0 -1.5 1.5v14.8a1.7 1.7 0 0 0 3.336 0.438l2.351 -8.154A1.5 1.5 0 0 1 7.879 8.25H21.75a1.5 1.5 0 0 1 1.45 1.886" fill="none" stroke="#000000" stroke-linecap="round" stroke-linejoin="round" stroke-width="1"></path><path d="M17.947 11.68 19.488 15h3a0.735 0.735 0 0 1 0.518 1.283l-2.6 2.563 1.442 3.313a0.786 0.786 0 0 1 -1.119 0.982l-3.489 -1.958 -3.487 1.961a0.786 0.786 0 0 1 -1.119 -0.982l1.443 -3.313 -2.6 -2.563A0.734 0.734 0 0 1 11.988 15h3l1.544 -3.323a0.8 0.8 0 0 1 1.415 0.003Z" fill="none" stroke="#000000" stroke-linecap="round" stroke-linejoin="round" stroke-width="1"></path></svg>