<svg viewBox="0 0 24 24" xmlns="http://www.w3.org/2000/svg" id="Folder-File-Star--Streamline-Ultimate"><desc>Folder File Star Streamline Icon: https://streamlinehq.com</desc><path d="M18.314 1.018a0.489 0.489 0 0 1 0.872 0L20.2 3.06a0.485 0.485 0 0 0 0.366 0.263l2.271 0.328a0.483 0.483 0 0 1 0.391 0.325 0.474 0.474 0 0 1 -0.121 0.489l-1.65 1.6a0.476 0.476 0 0 0 -0.138 0.421l0.389 2.255a0.475 0.475 0 0 1 -0.194 0.468 0.49 0.49 0 0 1 -0.514 0.034l-2.023 -1.058a0.486 0.486 0 0 0 -0.454 0L16.5 9.243a0.49 0.49 0 0 1 -0.511 -0.034 0.475 0.475 0 0 1 -0.194 -0.468l0.389 -2.255a0.476 0.476 0 0 0 -0.138 -0.421l-1.65 -1.6a0.474 0.474 0 0 1 -0.121 -0.489 0.483 0.483 0 0 1 0.391 -0.325l2.271 -0.328a0.485 0.485 0 0 0 0.363 -0.263Z" fill="none" stroke="#000000" stroke-linecap="round" stroke-linejoin="round" stroke-width="1"></path><path d="M17.25 23.25a1.5 1.5 0 0 0 1.5 -1.5v-6a1.5 1.5 0 0 0 -1.5 -1.5h-9v-1.5a1.5 1.5 0 0 0 -1.5 -1.5h-4.5a1.5 1.5 0 0 0 -1.5 1.5v9a1.5 1.5 0 0 0 1.5 1.5Z" fill="none" stroke="#000000" stroke-linecap="round" stroke-linejoin="round" stroke-width="1"></path><path d="M23.25 11.25v7.5a1.5 1.5 0 0 1 -1.5 1.5h-3" fill="none" stroke="#000000" stroke-linecap="round" stroke-linejoin="round" stroke-width="1"></path><path d="M6.75 11.25v-9a1.5 1.5 0 0 1 1.5 -1.5h6" fill="none" stroke="#000000" stroke-linecap="round" stroke-linejoin="round" stroke-width="1"></path></svg>