<svg viewBox="0 0 24 24" xmlns="http://www.w3.org/2000/svg" id="Folder-Settings--Streamline-Ultimate"><desc>Folder Settings Streamline Icon: https://streamlinehq.com</desc><path d="m8.25 18.75 -5.803 0" fill="none" stroke="#000000" stroke-linecap="round" stroke-linejoin="round" stroke-width="1"></path><path d="M20.25 8.25v-3a1.5 1.5 0 0 0 -1.5 -1.5H8.25v-1.5a1.5 1.5 0 0 0 -1.5 -1.5h-4.5a1.5 1.5 0 0 0 -1.5 1.5v14.8a1.7 1.7 0 0 0 3.336 0.438l2.351 -8.154A1.5 1.5 0 0 1 7.879 8.25H12" fill="none" stroke="#000000" stroke-linecap="round" stroke-linejoin="round" stroke-width="1"></path><path d="M15.75 16.5a1.5 1.5 0 1 0 3 0 1.5 1.5 0 1 0 -3 0Z" fill="none" stroke="#000000" stroke-linecap="round" stroke-linejoin="round" stroke-width="1"></path><path d="m18.524 10.7 0.442 1.453a0.994 0.994 0 0 0 1.174 0.681l1.472 -0.341a1.339 1.339 0 0 1 1.275 2.218l-1.031 1.111a1 1 0 0 0 0 1.362l1.031 1.111a1.339 1.339 0 0 1 -1.275 2.218l-1.472 -0.341a0.994 0.994 0 0 0 -1.174 0.681l-0.442 1.447a1.33 1.33 0 0 1 -2.548 0l-0.442 -1.453a0.994 0.994 0 0 0 -1.174 -0.681l-1.472 0.341a1.339 1.339 0 0 1 -1.275 -2.218l1.031 -1.111a1 1 0 0 0 0 -1.362l-1.031 -1.111a1.339 1.339 0 0 1 1.275 -2.218l1.472 0.341a0.994 0.994 0 0 0 1.174 -0.681l0.442 -1.453a1.33 1.33 0 0 1 2.548 0.006Z" fill="none" stroke="#000000" stroke-linecap="round" stroke-linejoin="round" stroke-width="1"></path></svg>