<svg viewBox="0 0 24 24" xmlns="http://www.w3.org/2000/svg" id="Folder-Connect--Streamline-Ultimate"><desc>Folder Connect Streamline Icon: https://streamlinehq.com</desc><path d="M1.5 18.75a1.5 1.5 0 0 0 1.5 1.5h1.5" fill="none" stroke="#000000" stroke-linecap="round" stroke-linejoin="round" stroke-width="1"></path><path d="m8.25 6.75 3.75 0" fill="none" stroke="#000000" stroke-linecap="round" stroke-linejoin="round" stroke-width="1"></path><path d="m1.5 6.75 3 0" fill="none" stroke="#000000" stroke-linecap="round" stroke-linejoin="round" stroke-width="1"></path><path d="m1.5 4.5 0 3.75" fill="none" stroke="#000000" stroke-linecap="round" stroke-linejoin="round" stroke-width="1"></path><path d="m1.5 12 0 3" fill="none" stroke="#000000" stroke-linecap="round" stroke-linejoin="round" stroke-width="1"></path><path d="m12 20.25 -3.75 0" fill="none" stroke="#000000" stroke-linecap="round" stroke-linejoin="round" stroke-width="1"></path><path d="M21.75 2.25h-4.5L15.97 0.97a0.749 0.749 0 0 0 -0.53 -0.22h-2.69a0.75 0.75 0 0 0 -0.75 0.75V9a0.75 0.75 0 0 0 0.75 0.75h9A0.75 0.75 0 0 0 22.5 9V3a0.75 0.75 0 0 0 -0.75 -0.75Z" fill="none" stroke="#000000" stroke-linecap="round" stroke-linejoin="round" stroke-width="1"></path><path d="M21.75 15.75h-4.5l-1.28 -1.28a0.749 0.749 0 0 0 -0.53 -0.22h-2.69A0.75 0.75 0 0 0 12 15v7.5a0.75 0.75 0 0 0 0.75 0.75h9a0.75 0.75 0 0 0 0.75 -0.75v-6a0.75 0.75 0 0 0 -0.75 -0.75Z" fill="none" stroke="#000000" stroke-linecap="round" stroke-linejoin="round" stroke-width="1"></path></svg>