<svg xmlns="http://www.w3.org/2000/svg" fill="none" viewBox="0 0 24 24" id="Folder-Lock--Streamline-Ultimate"><desc>Folder Lock Streamline Icon: https://streamlinehq.com</desc><path stroke="#000000" stroke-linecap="round" stroke-linejoin="round" d="M11.25 18.75H2.447" stroke-width="1"></path><path stroke="#000000" stroke-linecap="round" stroke-linejoin="round" d="M20.25 8.25v-3c0 -0.39782 -0.158 -0.77936 -0.4393 -1.06066 -0.2813 -0.2813 -0.6629 -0.43934 -1.0607 -0.43934H8.25v-1.5c0 -0.39782 -0.15804 -0.77936 -0.43934 -1.06066C7.52936 0.908035 7.14782 0.75 6.75 0.75h-4.5c-0.39782 0 -0.77936 0.158035 -1.06066 0.43934C0.908035 1.47064 0.75 1.85218 0.75 2.25v14.8c0.005644 0.4085 0.158176 0.8012 0.42968 1.1064 0.27151 0.3052 0.64384 0.5025 1.04886 0.5556 0.40501 0.0532 0.81564 -0.0412 1.15673 -0.266s0.58984 -0.5648 0.70073 -0.958l2.351 -8.154c0.09025 -0.31265 0.27972 -0.58747 0.53983 -0.783 0.26011 -0.19554 0.57676 -0.30118 0.90217 -0.301H21.75" stroke-width="1"></path><path stroke="#000000" stroke-linecap="round" stroke-linejoin="round" d="M22.25 15.75h-7c-0.5523 0 -1 0.4477 -1 1v5.5c0 0.5523 0.4477 1 1 1h7c0.5523 0 1 -0.4477 1 -1v-5.5c0 -0.5523 -0.4477 -1 -1 -1Z" stroke-width="1"></path><path stroke="#000000" stroke-linecap="round" stroke-linejoin="round" d="M18.75 11.25c-0.7956 0 -1.5587 0.3161 -2.1213 0.8787 -0.5626 0.5626 -0.8787 1.3257 -0.8787 2.1213v1.5h6v-1.5c0 -0.7956 -0.3161 -1.5587 -0.8787 -2.1213 -0.5626 -0.5626 -1.3257 -0.8787 -2.1213 -0.8787Z" stroke-width="1"></path><path stroke="#000000" d="M18.75 19.904c-0.2071 0 -0.375 -0.1679 -0.375 -0.375s0.1679 -0.375 0.375 -0.375" stroke-width="1"></path><path stroke="#000000" d="M18.75 19.904c0.2071 0 0.375 -0.1679 0.375 -0.375s-0.1679 -0.375 -0.375 -0.375" stroke-width="1"></path></svg>