<svg viewBox="0 0 24 24" xmlns="http://www.w3.org/2000/svg" id="Folder-Bookmark-1--Streamline-Ultimate"><desc>Folder Bookmark 1 Streamline Icon: https://streamlinehq.com</desc><path d="M14.25 5.25H10.5l-1.8 -2.4a1.5 1.5 0 0 0 -1.2 -0.6H2.25a1.5 1.5 0 0 0 -1.5 1.5v16.5a1.5 1.5 0 0 0 1.5 1.5h19.5a1.5 1.5 0 0 0 1.5 -1.5V6.75a1.5 1.5 0 0 0 -1.5 -1.5h-1.5" fill="none" stroke="#000000" stroke-linecap="round" stroke-linejoin="round" stroke-width="1"></path><path d="m20.25 13.5 -3 -2.25 -3 2.25v-9a0.75 0.75 0 0 1 0.75 -0.75h4.5a0.75 0.75 0 0 1 0.75 0.75Z" fill="none" stroke="#000000" stroke-linecap="round" stroke-linejoin="round" stroke-width="1"></path></svg>