<svg xmlns="http://www.w3.org/2000/svg" viewBox="0 0 24 24" id="Browser-Gauge--Streamline-Ultimate"><desc>Browser Gauge Streamline Icon: https://streamlinehq.com</desc><defs></defs><title>browser-gauge</title><path d="M2.25 2.25h19.5s1.5 0 1.5 1.5v16.5s0 1.5 -1.5 1.5H2.25s-1.5 0 -1.5 -1.5V3.75s0 -1.5 1.5 -1.5" fill="none" stroke="#000000" stroke-linecap="round" stroke-linejoin="round" stroke-width="1"></path><path d="m0.75 6.75 22.5 0" fill="none" stroke="#000000" stroke-linecap="round" stroke-linejoin="round" stroke-width="1"></path><path d="M13.591 18.091a2.25 2.25 0 0 1 -3.182 -3.182c0.879 -0.879 6.364 -3.182 6.364 -3.182s-2.304 5.485 -3.182 6.364Z" fill="none" stroke="#000000" stroke-linecap="round" stroke-linejoin="round" stroke-width="1"></path><path d="m4.5 17.25 1.5 0" fill="none" stroke="#000000" stroke-linecap="round" stroke-linejoin="round" stroke-width="1"></path><path d="m6.696 11.946 1.226 1.226" fill="none" stroke="#000000" stroke-linecap="round" stroke-linejoin="round" stroke-width="1"></path><path d="m12 9.75 0 0.75" fill="none" stroke="#000000" stroke-linecap="round" stroke-linejoin="round" stroke-width="1"></path><path d="m19.5 17.25 -1.5 0" fill="none" stroke="#000000" stroke-linecap="round" stroke-linejoin="round" stroke-width="1"></path></svg>