<svg xmlns="http://www.w3.org/2000/svg" viewBox="0 0 24 24" id="Pie-Line-Graph-Desktop--Streamline-Ultimate"><desc>Pie Line Graph Desktop Streamline Icon: https://streamlinehq.com</desc><g><g><path d="m15 23.25 -6 0 0.75 -4.5 4.5 0 0.75 4.5z" fill="none" stroke="#000000" stroke-linecap="round" stroke-linejoin="round" stroke-width="1"></path><path d="m6.75 23.25 10.5 0" fill="none" stroke="#000000" stroke-linecap="round" stroke-linejoin="round" stroke-width="1"></path><path d="M3.75 0.75h16.5s3 0 3 3v12s0 3 -3 3H3.75s-3 0 -3 -3v-12s0 -3 3 -3" fill="none" stroke="#000000" stroke-linecap="round" stroke-linejoin="round" stroke-width="1"></path></g><path d="m0.75 10.75 4 -4a0.75 0.75 0 0 1 1.06 0l1.91 1.97a0.75 0.75 0 0 0 1.06 0l4 -4" fill="none" stroke="#000000" stroke-linecap="round" stroke-linejoin="round" stroke-width="1"></path><path d="m0.75 14.75 22.5 0" fill="none" stroke="#000000" stroke-linecap="round" stroke-linejoin="round" stroke-width="1"></path><path d="m14.25 8.75 0 2.75" fill="none" stroke="#000000" stroke-linecap="round" stroke-linejoin="round" stroke-width="1"></path><path d="m20.25 8.75 0 2.75" fill="none" stroke="#000000" stroke-linecap="round" stroke-linejoin="round" stroke-width="1"></path><path d="m17.25 6.5 0 5" fill="none" stroke="#000000" stroke-linecap="round" stroke-linejoin="round" stroke-width="1"></path></g></svg>