<svg xmlns="http://www.w3.org/2000/svg" viewBox="0 0 24 24" id="Credit-Card-Laptop-Payment--Streamline-Ultimate"><desc>Credit Card Laptop Payment Streamline Icon: https://streamlinehq.com</desc><defs></defs><title>credit-card-laptop-payment</title><path d="M5.25 0.75h13.5s1.5 0 1.5 1.5v7.5s0 1.5 -1.5 1.5H5.25s-1.5 0 -1.5 -1.5v-7.5s0 -1.5 1.5 -1.5" fill="none" stroke="#000000" stroke-linecap="round" stroke-linejoin="round" stroke-width="1"></path><path d="M7.5 18.75H2.252A1.5 1.5 0 0 1 0.91 16.579l1.836 -3.671a3 3 0 0 1 2.683 -1.658h13.142" fill="none" stroke="#000000" stroke-linecap="round" stroke-linejoin="round" stroke-width="1"></path><path d="M12.75 14.25h9s1.5 0 1.5 1.5v6s0 1.5 -1.5 1.5h-9s-1.5 0 -1.5 -1.5v-6s0 -1.5 1.5 -1.5" fill="none" stroke="#000000" stroke-linecap="round" stroke-linejoin="round" stroke-width="1"></path><path d="m11.25 17.25 12 0" fill="none" stroke="#000000" stroke-linecap="round" stroke-linejoin="round" stroke-width="1"></path><path d="m20.25 20.25 -1.5 0" fill="none" stroke="#000000" stroke-linecap="round" stroke-linejoin="round" stroke-width="1"></path></svg>