<svg viewBox="0 0 24 24" xmlns="http://www.w3.org/2000/svg" id="Credit-Card-Dollar-1--Streamline-Ultimate"><desc>Credit Card Dollar 1 Streamline Icon: https://streamlinehq.com</desc><path d="M18.75 14.25h-2.033a1.342 1.342 0 0 0 -0.5 2.587l2.064 0.826a1.342 1.342 0 0 1 -0.5 2.587H15.75" fill="none" stroke="#000000" stroke-linecap="round" stroke-linejoin="round" stroke-width="1"></path><path d="m17.25 14.25 0 -0.75" fill="none" stroke="#000000" stroke-linecap="round" stroke-linejoin="round" stroke-width="1"></path><path d="m17.25 21 0 -0.75" fill="none" stroke="#000000" stroke-linecap="round" stroke-linejoin="round" stroke-width="1"></path><path d="M11.25 17.25a6 6 0 1 0 12 0 6 6 0 1 0 -12 0Z" fill="none" stroke="#000000" stroke-linecap="round" stroke-linejoin="round" stroke-width="1"></path><path d="M20.25 8.25v-6a1.5 1.5 0 0 0 -1.5 -1.5H2.25a1.5 1.5 0 0 0 -1.5 1.5v12a1.5 1.5 0 0 0 1.5 1.5h6" fill="none" stroke="#000000" stroke-linecap="round" stroke-linejoin="round" stroke-width="1"></path><path d="m0.75 5.25 19.5 0" fill="none" stroke="#000000" stroke-linecap="round" stroke-linejoin="round" stroke-width="1"></path><path d="m3.75 9 6 0" fill="none" stroke="#000000" stroke-linecap="round" stroke-linejoin="round" stroke-width="1"></path><path d="m3.75 12 3 0" fill="none" stroke="#000000" stroke-linecap="round" stroke-linejoin="round" stroke-width="1"></path></svg>