<svg viewBox="0 0 24 24" xmlns="http://www.w3.org/2000/svg" id="Credit-Card-Give--Streamline-Ultimate"><desc>Credit Card Give Streamline Icon: https://streamlinehq.com</desc><path d="M0.75 18.75c3.75 0 2.25 0.75 12 0.75 3 0 6 -0.75 6.75 -3.75" fill="none" stroke="#000000" stroke-linecap="round" stroke-linejoin="round" stroke-width="1"></path><path d="M0.75 11.143h2.382a0.964 0.964 0 0 0 0.747 -0.354L7.929 6.8l3.829 0.766c0.546 0.109 0.905 0.545 0.667 1.5a0.963 0.963 0 0 1 -0.8 0.721l-1.875 0.273a0.842 0.842 0 0 0 -0.75 0.955v2.557a1.4 1.4 0 0 1 -0.44 0.753l-2.078 1.639" fill="none" stroke="#000000" stroke-linecap="round" stroke-linejoin="round" stroke-width="1"></path><path d="M12 15.75h9.75a1.5 1.5 0 0 0 1.5 -1.5V6a1.5 1.5 0 0 0 -1.5 -1.5H10.5A1.5 1.5 0 0 0 9 6v1.018" fill="none" stroke="#000000" stroke-linecap="round" stroke-linejoin="round" stroke-width="1"></path><path d="m12.492 8.25 10.758 0" fill="none" stroke="#000000" stroke-linecap="round" stroke-linejoin="round" stroke-width="1"></path><path d="m20.25 11.25 -1.5 0" fill="none" stroke="#000000" stroke-linecap="round" stroke-linejoin="round" stroke-width="1"></path></svg>