<svg xmlns="http://www.w3.org/2000/svg" viewBox="0 0 24 24" id="Credit-Card-Online-Payment--Streamline-Ultimate"><desc>Credit Card Online Payment Streamline Icon: https://streamlinehq.com</desc><defs></defs><title>credit-card-online-payment</title><path d="M21.75 10.875v-8.25a1.5 1.5 0 0 0 -1.5 -1.5h-18a1.5 1.5 0 0 0 -1.5 1.5v15.75a1.5 1.5 0 0 0 1.5 1.5h6" fill="none" stroke="#000000" stroke-linecap="round" stroke-linejoin="round" stroke-width="1"></path><path d="m0.75 5.625 21 0" fill="none" stroke="#000000" stroke-linecap="round" stroke-linejoin="round" stroke-width="1"></path><path d="M4.329 14.969a2.225 2.225 0 0 0 1.859 0.875c1.138 0 2.062 -0.693 2.062 -1.547s-0.924 -1.546 -2.062 -1.546 -2.063 -0.693 -2.063 -1.551 0.924 -1.547 2.063 -1.547a2.224 2.224 0 0 1 1.858 0.875" fill="none" stroke="#000000" stroke-linecap="round" stroke-linejoin="round" stroke-width="1"></path><path d="m6.188 15.844 0 1.031" fill="none" stroke="#000000" stroke-linecap="round" stroke-linejoin="round" stroke-width="1"></path><path d="m6.188 8.625 0 1.031" fill="none" stroke="#000000" stroke-linecap="round" stroke-linejoin="round" stroke-width="1"></path><path d="M12.75 13.875h9s1.5 0 1.5 1.5v6s0 1.5 -1.5 1.5h-9s-1.5 0 -1.5 -1.5v-6s0 -1.5 1.5 -1.5" fill="none" stroke="#000000" stroke-linecap="round" stroke-linejoin="round" stroke-width="1"></path><path d="m11.25 16.875 12 0" fill="none" stroke="#000000" stroke-linecap="round" stroke-linejoin="round" stroke-width="1"></path><path d="m20.25 19.875 -1.5 0" fill="none" stroke="#000000" stroke-linecap="round" stroke-linejoin="round" stroke-width="1"></path></svg>