<svg viewBox="0 0 24 24" xmlns="http://www.w3.org/2000/svg" id="Credit-Card-Flag--Streamline-Ultimate"><desc>Credit Card Flag Streamline Icon: https://streamlinehq.com</desc><path d="M20.25 8.25v-6a1.5 1.5 0 0 0 -1.5 -1.5H2.25a1.5 1.5 0 0 0 -1.5 1.5v12a1.5 1.5 0 0 0 1.5 1.5h9" fill="none" stroke="#000000" stroke-linecap="round" stroke-linejoin="round" stroke-width="1"></path><path d="m0.75 5.25 19.5 0" fill="none" stroke="#000000" stroke-linecap="round" stroke-linejoin="round" stroke-width="1"></path><path d="m3.75 9 6 0" fill="none" stroke="#000000" stroke-linecap="round" stroke-linejoin="round" stroke-width="1"></path><path d="m3.75 12 3 0" fill="none" stroke="#000000" stroke-linecap="round" stroke-linejoin="round" stroke-width="1"></path><path d="m14.25 13.369 0 9.881" fill="none" stroke="#000000" stroke-linecap="round" stroke-linejoin="round" stroke-width="1"></path><path d="m14.25 18.869 1.29 -0.43a3.684 3.684 0 0 1 3.21 0.43 3.684 3.684 0 0 0 3.21 0.43l1.29 -0.43v-7l-1.29 0.43a3.684 3.684 0 0 1 -3.21 -0.43 3.684 3.684 0 0 0 -3.21 -0.43l-1.29 0.43Z" fill="none" stroke="#000000" stroke-linecap="round" stroke-linejoin="round" stroke-width="1"></path></svg>