<svg xmlns="http://www.w3.org/2000/svg" viewBox="0 0 24 24" id="Credit-Card-Visa--Streamline-Ultimate"><desc>Credit Card Visa Streamline Icon: https://streamlinehq.com</desc><defs></defs><title>credit-card-visa</title><path d="M2.25 3.75h19.5s1.5 0 1.5 1.5v13.5s0 1.5 -1.5 1.5H2.25s-1.5 0 -1.5 -1.5V5.25s0 -1.5 1.5 -1.5" fill="none" stroke="#000000" stroke-linecap="round" stroke-linejoin="round" stroke-width="1"></path><path d="m9.75 15 0 -6" fill="none" stroke="#000000" stroke-linecap="round" stroke-linejoin="round" stroke-width="1"></path><path d="M3.75 9v2.037A7.488 7.488 0 0 0 5.25 15a7.488 7.488 0 0 0 1.5 -3.963V9" fill="none" stroke="#000000" stroke-linecap="round" stroke-linejoin="round" stroke-width="1"></path><path d="M14.4 9h-1.2a1.2 1.2 0 0 0 -1.2 1.2c0 1.8 2.4 1.8 2.4 3.6a1.2 1.2 0 0 1 -1.2 1.2H12" fill="none" stroke="#000000" stroke-linecap="round" stroke-linejoin="round" stroke-width="1"></path><path d="m17.25 12.75 3 0" fill="none" stroke="#000000" stroke-linecap="round" stroke-linejoin="round" stroke-width="1"></path><path d="M20.25 15v-4.5a1.5 1.5 0 0 0 -3 0V15" fill="none" stroke="#000000" stroke-linecap="round" stroke-linejoin="round" stroke-width="1"></path></svg>