<svg xmlns="http://www.w3.org/2000/svg" viewBox="0 0 24 24" id="Home-Improvement-4--Streamline-Ultimate"><desc>Home Improvement 4 Streamline Icon: https://streamlinehq.com</desc><defs></defs><title>home-improvement-4</title><path d="M22.929 23.157a4.857 4.857 0 0 0 -9.106 0.093" fill="none" stroke="#000000" stroke-linecap="round" stroke-linejoin="round" stroke-width="1"></path><path d="M21.805 15.164a3.412 3.412 0 1 1 -6.823 0" fill="none" stroke="#000000" stroke-linecap="round" stroke-linejoin="round" stroke-width="1"></path><path d="M14.477 15.164v-0.487a3.9 3.9 0 1 1 7.8 0" fill="none" stroke="#000000" stroke-linecap="round" stroke-linejoin="round" stroke-width="1"></path><path d="m13.502 15.164 9.748 0" fill="none" stroke="#000000" stroke-linecap="round" stroke-linejoin="round" stroke-width="1"></path><path d="m18.376 12.706 0 -1.928" fill="none" stroke="#000000" stroke-linecap="round" stroke-linejoin="round" stroke-width="1"></path><path d="m11.32 17.68 -0.728 -0.807a1.519 1.519 0 0 0 -2.253 0l-0.729 0.807a1.518 1.518 0 0 1 -2.642 -1.094l0.056 -1.086a1.518 1.518 0 0 0 -1.593 -1.593l-1.086 0.055a1.517 1.517 0 0 1 -1.094 -2.642l0.807 -0.728a1.519 1.519 0 0 0 0 -2.253l-0.807 -0.728a1.518 1.518 0 0 1 1.094 -2.643l1.086 0.056a1.519 1.519 0 0 0 1.593 -1.593l-0.056 -1.086A1.518 1.518 0 0 1 7.61 1.251l0.729 0.807a1.519 1.519 0 0 0 2.253 0l0.728 -0.807a1.517 1.517 0 0 1 2.642 1.094l-0.055 1.086A1.518 1.518 0 0 0 15.5 5.024l1.086 -0.056a1.518 1.518 0 0 1 1.094 2.643l-0.807 0.728" fill="none" stroke="#000000" stroke-linecap="round" stroke-linejoin="round" stroke-width="1"></path><path d="M5.979 9.465a3.486 3.486 0 1 0 6.972 0 3.486 3.486 0 1 0 -6.972 0" fill="none" stroke="#000000" stroke-linecap="round" stroke-linejoin="round" stroke-width="1"></path></svg>