<svg xmlns="http://www.w3.org/2000/svg" viewBox="0 0 24 24" id="Home-Improvement-5--Streamline-Ultimate"><desc>Home Improvement 5 Streamline Icon: https://streamlinehq.com</desc><defs></defs><title>home-improvement-5</title><path d="m1.358 16.266 0 -11.035L12 0.75l0 10.475" fill="none" stroke="#000000" stroke-linecap="round" stroke-linejoin="round" stroke-width="1"></path><path d="M22.642 16.266 12 11.225" fill="none" stroke="#000000" stroke-linecap="round" stroke-linejoin="round" stroke-width="1"></path><path d="m3.769 15.124 -2.411 1.142" fill="none" stroke="#000000" stroke-linecap="round" stroke-linejoin="round" stroke-width="1"></path><path d="m1.358 16.266 0 2.503L12 23.25l10.642 -4.481 0 -2.503" fill="none" stroke="#000000" stroke-linecap="round" stroke-linejoin="round" stroke-width="1"></path><path d="m4.317 8.185 3.429 9.716" fill="none" stroke="#000000" stroke-linecap="round" stroke-linejoin="round" stroke-width="1"></path><path d="m7.746 6.47 3.429 9.716" fill="none" stroke="#000000" stroke-linecap="round" stroke-linejoin="round" stroke-width="1"></path><path d="M4.956 9.996 8.46 8.494" fill="none" stroke="#000000" stroke-linecap="round" stroke-linejoin="round" stroke-width="1"></path><path d="m6.019 13.007 3.504 -1.502" fill="none" stroke="#000000" stroke-linecap="round" stroke-linejoin="round" stroke-width="1"></path><path d="m7.045 15.915 3.504 -1.502" fill="none" stroke="#000000" stroke-linecap="round" stroke-linejoin="round" stroke-width="1"></path><path d="m20.008 5.72 0 2.256" fill="none" stroke="#000000" stroke-linecap="round" stroke-linejoin="round" stroke-width="1"></path><path d="M16.004 2.53 12 0.75" fill="none" stroke="#000000" stroke-linecap="round" stroke-linejoin="round" stroke-width="1"></path><path d="m16.004 2.53 0 3.551 6.638 3.142" fill="none" stroke="#000000" stroke-linecap="round" stroke-linejoin="round" stroke-width="1"></path><path d="m22.642 9.223 0 7.043" fill="none" stroke="#000000" stroke-linecap="round" stroke-linejoin="round" stroke-width="1"></path></svg>