<svg xmlns="http://www.w3.org/2000/svg" viewBox="0 0 24 24" id="Home-Improvement-7--Streamline-Ultimate"><desc>Home Improvement 7 Streamline Icon: https://streamlinehq.com</desc><defs></defs><title>home-improvement-7</title><path d="m1 6.553 4 0" fill="none" stroke="#000000" stroke-linecap="round" stroke-linejoin="round" stroke-width="1"></path><path d="m5 5.053 0 3" fill="none" stroke="#000000" stroke-linecap="round" stroke-linejoin="round" stroke-width="1"></path><path d="m1 1.553 0 16.499" fill="none" stroke="#000000" stroke-linecap="round" stroke-linejoin="round" stroke-width="1"></path><path d="M4.5 2.053 4.329 0.948" fill="none" stroke="#000000" stroke-linecap="round" stroke-linejoin="round" stroke-width="1"></path><path d="m7.5 2.553 0.5 -1" fill="none" stroke="#000000" stroke-linecap="round" stroke-linejoin="round" stroke-width="1"></path><path d="m4.5 10.948 -0.171 1.104" fill="none" stroke="#000000" stroke-linecap="round" stroke-linejoin="round" stroke-width="1"></path><path d="m7.5 10.448 0.5 1" fill="none" stroke="#000000" stroke-linecap="round" stroke-linejoin="round" stroke-width="1"></path><path d="m16.5387297332 8.6752110107 3.5678815683 0.9216540104 0 0 -3.1513814196 12.1995407761a1.671 1.671 0 0 1 -2.0358246816 1.1999582766l-0.3330668276 -0.086037715a1.671 1.671 0 0 1 -1.1999582765 -2.0358246816L16.5377615157 8.674960901l0 0Z" fill="none" stroke="#000000" stroke-linecap="round" stroke-linejoin="round" stroke-width="1"></path><path d="m16.2368108573 4.3140508757 3.9425817492 1.0184464397a3.759 3.759 0 0 1 2.6993675414 4.5796917884l-0.0967924293 0.374700181 0 0 -7.5821114141 -1.9586085632 0 0 1.0369545528 -4.0142298459 0 0Z" fill="none" stroke="#000000" stroke-linecap="round" stroke-linejoin="round" stroke-width="1"></path><path d="m14.8755526852 2.535973652 0.2914334741 0.0752830006s1.415534017 0.3656602886 1.0498737285 1.7811943056l-0.996937011 3.8593150424s-0.3656602885 1.415534017 -1.7811943055 1.0498737285l-0.2914334741 -0.0752830006s-1.415534017 -0.3656602885 -1.0498737285 -1.7811943056l0.996937011 -3.8593150423s0.3656602885 -1.415534017 1.7811943055 -1.0498737285" fill="none" stroke="#000000" stroke-linecap="round" stroke-linejoin="round" stroke-width="1"></path></svg>