<svg xmlns="http://www.w3.org/2000/svg" viewBox="0 0 24 24" id="Home-Improvement-14--Streamline-Ultimate"><desc>Home Improvement 14 Streamline Icon: https://streamlinehq.com</desc><defs></defs><title>home-improvement-12_1</title><path d="M6.294 17.125a2 2 0 0 1 -4 0c0 -1.105 2 -4 2 -4s2 2.895 2 4Z" fill="none" stroke="#000000" stroke-linecap="round" stroke-linejoin="round" stroke-width="1"></path><path d="M23.206 20.981 18.7 16.472a4.55 4.55 0 0 0 -6.066 -6.066l1.424 1.425a1.516 1.516 0 0 1 -2.144 2.144l-1.427 -1.425a4.55 4.55 0 0 0 6.066 6.066l4.509 4.509" fill="none" stroke="#000000" stroke-linecap="round" stroke-linejoin="round" stroke-width="1"></path><path d="m9.044 1.625 11 0" fill="none" stroke="#000000" stroke-linecap="round" stroke-linejoin="round" stroke-width="1"></path><path d="M9.044 6.625h-2.5v2.5a1 1 0 0 1 -1 1h-3.75a1 1 0 0 1 -1 -1v-6.25a2 2 0 0 1 2 -2h6.25Z" fill="none" stroke="#000000" stroke-linecap="round" stroke-linejoin="round" stroke-width="1"></path><path d="m20.044 5.625 -11 0" fill="none" stroke="#000000" stroke-linecap="round" stroke-linejoin="round" stroke-width="1"></path></svg>