<svg xmlns="http://www.w3.org/2000/svg" viewBox="0 0 24 24" id="Home-Improvement-2--Streamline-Ultimate"><desc>Home Improvement 2 Streamline Icon: https://streamlinehq.com</desc><defs></defs><title>home-improvement-2</title><path d="M5.25 2.75 3 0.75l-2.25 2 0 15 4.5 0 0 -15z" fill="none" stroke="#000000" stroke-linecap="round" stroke-linejoin="round" stroke-width="1"></path><path d="m13.25 6.25 0 -3.5 -2.25 -2 -2.25 2 0 15 4.5 0" fill="none" stroke="#000000" stroke-linecap="round" stroke-linejoin="round" stroke-width="1"></path><path d="m21.25 5.25 0 -2.5 -2.25 -2 -2.25 2 0 2.5" fill="none" stroke="#000000" stroke-linecap="round" stroke-linejoin="round" stroke-width="1"></path><path d="m8.75 5.25 -3.5 0" fill="none" stroke="#000000" stroke-linecap="round" stroke-linejoin="round" stroke-width="1"></path><path d="m16.75 5.25 -3.5 0" fill="none" stroke="#000000" stroke-linecap="round" stroke-linejoin="round" stroke-width="1"></path><path d="m8.75 14.184 -3.5 0" fill="none" stroke="#000000" stroke-linecap="round" stroke-linejoin="round" stroke-width="1"></path><path d="m15.173 14.019 8.077 0" fill="none" stroke="#000000" stroke-linecap="round" stroke-linejoin="round" stroke-width="1"></path><path d="m20.558 8.25 0 2.5" fill="none" stroke="#000000" stroke-linecap="round" stroke-linejoin="round" stroke-width="1"></path><path d="m17.865 8.25 0 2.5" fill="none" stroke="#000000" stroke-linecap="round" stroke-linejoin="round" stroke-width="1"></path><path d="M22.673 8.25H15.75a0.577 0.577 0 0 0 -0.577 0.577V14.6a4.012 4.012 0 0 0 2.308 3.627v3.3a1.731 1.731 0 1 0 3.461 0v-3.3A4.012 4.012 0 0 0 23.25 14.6V8.827a0.577 0.577 0 0 0 -0.577 -0.577Z" fill="none" stroke="#000000" stroke-linecap="round" stroke-linejoin="round" stroke-width="1"></path></svg>