<svg xmlns="http://www.w3.org/2000/svg" viewBox="0 0 24 24" id="Home-Improvement-1--Streamline-Ultimate"><desc>Home Improvement 1 Streamline Icon: https://streamlinehq.com</desc><defs></defs><title>home-improvement-1</title><path d="M3.685 9.554v12.229a0.978 0.978 0 0 0 0.978 0.978h14.674a0.978 0.978 0 0 0 0.978 -0.978V9.554" fill="none" stroke="#000000" stroke-linecap="round" stroke-linejoin="round" stroke-width="1"></path><path d="M0.75 12.489 12 1.239l11.25 11.25" fill="none" stroke="#000000" stroke-linecap="round" stroke-linejoin="round" stroke-width="1"></path><path d="m7.543 13.9 1.411 1.41a1 1 0 0 0 1.414 0l4.377 -4.377a4.744 4.744 0 0 0 -2.056 -0.953 4.521 4.521 0 0 0 -3.983 1.343L7.543 12.49a1 1 0 0 0 0 1.41Z" fill="none" stroke="#000000" stroke-linecap="round" stroke-linejoin="round" stroke-width="1"></path><path d="m11.995 13.687 5.074 5.074" fill="none" stroke="#000000" stroke-linecap="round" stroke-linejoin="round" stroke-width="1"></path></svg>