<svg xmlns="http://www.w3.org/2000/svg" viewBox="0 0 24 24" id="Pest-Busters--Streamline-Ultimate"><desc>Pest Busters Streamline Icon: https://streamlinehq.com</desc><defs></defs><title>pest-busters</title><path d="m19.831 19.831 3.419 3.419" fill="none" stroke="#000000" stroke-linecap="round" stroke-linejoin="round" stroke-width="1"></path><path d="M12.25 16.724a4.428 4.428 0 1 0 8.856 0 4.428 4.428 0 1 0 -8.856 0" fill="none" stroke="#000000" stroke-linecap="round" stroke-linejoin="round" stroke-width="1"></path><path d="m1.194 21.912 0.5 0" fill="none" stroke="#000000" stroke-linecap="round" stroke-linejoin="round" stroke-width="1"></path><path d="m4.694 21.912 0.5 0" fill="none" stroke="#000000" stroke-linecap="round" stroke-linejoin="round" stroke-width="1"></path><path d="m8.194 21.912 0.5 0" fill="none" stroke="#000000" stroke-linecap="round" stroke-linejoin="round" stroke-width="1"></path><path d="m15.694 18.412 0.5 -0.5" fill="none" stroke="#000000" stroke-linecap="round" stroke-linejoin="round" stroke-width="1"></path><path d="m16.694 15.412 0 -0.75" fill="none" stroke="#000000" stroke-linecap="round" stroke-linejoin="round" stroke-width="1"></path><path d="m13.194 10.412 0.5 0.5" fill="none" stroke="#000000" stroke-linecap="round" stroke-linejoin="round" stroke-width="1"></path><path d="m11.194 21.912 0.5 0" fill="none" stroke="#000000" stroke-linecap="round" stroke-linejoin="round" stroke-width="1"></path><path d="m6.4962508166 7.4070986668 0.9270169902 -0.9270169901a1.418 1.418 0 0 1 2.0053548314 0l0.901561146 0.901561146a2.076 2.076 0 0 1 0 2.9359073555l0 0a2.076 2.076 0 0 1 -2.9323718216 -0.003535534l-0.901561146 -0.901561146a1.418 1.418 0 0 1 0 -2.0053548314Z" fill="none" stroke="#000000" stroke-linecap="round" stroke-linejoin="round" stroke-width="1"></path><path d="m3.654161428 4.565556603 0.9298454173 -0.9298454173s1.0026774157 -1.0026774157 2.0053548315 0l0.8358002153 0.8358002154s1.0026774158 1.0026774157 0 2.0053548314l-0.9298454172 0.9298454173s-1.0026774158 1.0026774157 -2.0053548315 0l-0.8358002153 -0.8358002154s-1.0026774158 -1.0026774157 0 -2.0053548314" fill="none" stroke="#000000" stroke-linecap="round" stroke-linejoin="round" stroke-width="1"></path><path d="M0.755 3.578c-0.111 0.858 1.625 2.513 2.673 1.284" fill="none" stroke="#000000" stroke-linecap="round" stroke-linejoin="round" stroke-width="1"></path><path d="M3.578 0.755C4.436 0.644 6.091 2.38 4.862 3.428" fill="none" stroke="#000000" stroke-linecap="round" stroke-linejoin="round" stroke-width="1"></path><path d="m7.248 4.294 1.037 -2.14" fill="none" stroke="#000000" stroke-linecap="round" stroke-linejoin="round" stroke-width="1"></path><path d="m9.432 6.477 1.322 -2.087" fill="none" stroke="#000000" stroke-linecap="round" stroke-linejoin="round" stroke-width="1"></path><path d="m4.313 7.23 -2.14 1.037" fill="none" stroke="#000000" stroke-linecap="round" stroke-linejoin="round" stroke-width="1"></path><path d="m6.496 9.413 -2.087 1.322" fill="none" stroke="#000000" stroke-linecap="round" stroke-linejoin="round" stroke-width="1"></path></svg>