<svg xmlns="http://www.w3.org/2000/svg" fill="none" viewBox="0 0 24 24" id="Wash-Machine-Caution--Streamline-Ultimate"><desc>Wash Machine Caution Streamline Icon: https://streamlinehq.com</desc><path stroke="#000000" stroke-linecap="round" stroke-linejoin="round" d="M17.25 18v-3" stroke-width="1"></path><path stroke="#000000" stroke-linecap="round" stroke-linejoin="round" d="M23.063 20.682c0.1354 0.2705 0.1994 0.5711 0.1858 0.8733 -0.0135 0.3022 -0.1041 0.5959 -0.2631 0.8533 -0.159 0.2573 -0.3812 0.4697 -0.6455 0.617 -0.2642 0.1472 -0.5617 0.2245 -0.8642 0.2244h-8.452c-0.3025 0.0001 -0.6 -0.0772 -0.8642 -0.2244 -0.2643 -0.1473 -0.4865 -0.3597 -0.6455 -0.617 -0.159 -0.2574 -0.2496 -0.5511 -0.2631 -0.8533 -0.0136 -0.3022 0.0504 -0.6028 0.1858 -0.8733l4.226 -8.451c0.1473 -0.2949 0.3738 -0.5428 0.6541 -0.7161s0.6033 -0.2651 0.9329 -0.2651 0.6526 0.0918 0.9329 0.2651 0.5068 0.4212 0.6541 0.7161l4.226 8.451Z" stroke-width="1"></path><path stroke="#000000" stroke-linecap="round" stroke-linejoin="round" d="M8 23.25H2.25c-0.39782 0 -0.77936 -0.158 -1.06066 -0.4393C0.908035 22.5294 0.75 22.1478 0.75 21.75V2.25c0 -0.39782 0.158035 -0.77936 0.43934 -1.06066C1.47064 0.908035 1.85218 0.75 2.25 0.75h16.5c0.3978 0 0.7794 0.158035 1.0607 0.43934 0.2813 0.2813 0.4393 0.66284 0.4393 1.06066V9" stroke-width="1"></path><path stroke="#000000" stroke-linecap="round" stroke-linejoin="round" d="M3.75 3.75h3" stroke-width="1"></path><path stroke="#000000" stroke-linecap="round" stroke-linejoin="round" d="M0.75 6.75h19.5" stroke-width="1"></path><path stroke="#000000" stroke-linecap="round" stroke-linejoin="round" d="M8.00001 19.618c-1.22477 -0.663 -2.13599 -1.7855 -2.53319 -3.1203 -0.3972 -1.3349 -0.24786 -2.7729 0.41519 -3.9977 0.66304 -1.2248 1.78546 -2.136 3.12034 -2.53318C10.3372 9.56962 11.7752 9.71896 13 10.382" stroke-width="1"></path><path stroke="#000000" d="M16.5 4.125c-0.2071 0 -0.375 -0.16789 -0.375 -0.375s0.1679 -0.375 0.375 -0.375" stroke-width="1"></path><path stroke="#000000" d="M16.5 4.125c0.2071 0 0.375 -0.16789 0.375 -0.375s-0.1679 -0.375 -0.375 -0.375" stroke-width="1"></path><path stroke="#000000" d="M17.25 21c-0.2071 0 -0.375 -0.1679 -0.375 -0.375s0.1679 -0.375 0.375 -0.375" stroke-width="1"></path><path stroke="#000000" d="M12 4.125c-0.2071 0 -0.375 -0.16789 -0.375 -0.375s0.1679 -0.375 0.375 -0.375" stroke-width="1"></path><path stroke="#000000" d="M17.25 21c0.2071 0 0.375 -0.1679 0.375 -0.375s-0.1679 -0.375 -0.375 -0.375" stroke-width="1"></path><path stroke="#000000" d="M12 4.125c0.2071 0 0.375 -0.16789 0.375 -0.375s-0.1679 -0.375 -0.375 -0.375" stroke-width="1"></path></svg>