<svg xmlns="http://www.w3.org/2000/svg" fill="none" viewBox="0 0 24 24" id="Repo-Push--Streamline-Ultimate"><desc>Repo Push Streamline Icon: https://streamlinehq.com</desc><path stroke="#000000" stroke-linecap="round" stroke-linejoin="round" d="M21 20.9688h-6.1641M3 18.7188c0 0.5967 0.23705 1.169 0.65901 1.5909 0.42196 0.422 0.99425 0.659 1.59099 0.6591h4.08594" stroke-width="1"></path><path stroke="#000000" stroke-linecap="round" stroke-linejoin="round" d="M5.25 16.4688c-1.2255 0 -2.25 1.0244 -2.25 2.25V3.96875c0 -1.634 1.366 -3 3 -3h14.25c0.3978 0 0.75 0.35218 0.75 0.75V15.7188c0 0.3978 -0.3522 0.75 -0.75 0.75h-1.9141" stroke-width="1"></path><path stroke="#000000" stroke-linecap="round" stroke-linejoin="round" d="M19.5 20.9688v-4.5" stroke-width="1"></path><path stroke="#000000" stroke-linecap="round" stroke-linejoin="round" d="M6.875 8.71875c-0.20711 0 -0.375 -0.16789 -0.375 -0.375s0.16789 -0.375 0.375 -0.375" stroke-width="1"></path><path stroke="#000000" stroke-linecap="round" stroke-linejoin="round" d="M6.875 8.71875c0.20711 0 0.375 -0.16789 0.375 -0.375s-0.16789 -0.375 -0.375 -0.375" stroke-width="1"></path><path stroke="#000000" stroke-linecap="round" stroke-linejoin="round" d="M6.875 5.21875c-0.20711 0 -0.375 -0.16789 -0.375 -0.375s0.16789 -0.375 0.375 -0.375" stroke-width="1"></path><path stroke="#000000" stroke-linecap="round" stroke-linejoin="round" d="M6.875 5.21875c0.20711 0 0.375 -0.16789 0.375 -0.375s-0.16789 -0.375 -0.375 -0.375" stroke-width="1"></path><path stroke="#000000" stroke-linecap="round" stroke-linejoin="round" d="m12 23.0312 0 -11.8115" stroke-width="1"></path><path stroke="#000000" stroke-linecap="round" stroke-linejoin="round" d="m16.0625 15.2812 -4.0616 -4.0616 -4.06166 4.0617" stroke-width="1"></path></svg>