<svg xmlns="http://www.w3.org/2000/svg" fill="none" viewBox="0 0 24 24" id="Repo-Clone--Streamline-Ultimate"><desc>Repo Clone Streamline Icon: https://streamlinehq.com</desc><path stroke="#000000" stroke-linecap="round" stroke-linejoin="round" d="M19.877 20.75h-9.3594M1.87695 18.5c0 0.5967 0.23706 1.169 0.65901 1.591 0.42196 0.4219 0.99426 0.659 1.59099 0.659h1.35938" stroke-width="1"></path><path stroke="#000000" stroke-linecap="round" stroke-linejoin="round" d="M19.877 13.5625V15.5c0 0.3978 -0.3522 0.75 -0.75 0.75H4.12695c-1.2255 0 -2.25 1.0245 -2.25 2.25V3.75c0 -1.634 1.366 -3 3 -3H10.502" stroke-width="1"></path><path stroke="#000000" stroke-linecap="round" stroke-linejoin="round" d="M18.377 20.75v-4.5" stroke-width="1"></path><path stroke="#000000" stroke-linecap="round" stroke-linejoin="round" d="M22.1248 10.8127h-7.9244c-0.6166 0 -1.132 -0.5154 -1.132 -1.13204V8.6875" stroke-width="1"></path><path stroke="#000000" stroke-linecap="round" stroke-linejoin="round" d="M14.5778 0.75c-0.8222 0 -1.5094 0.68728 -1.5094 1.5094v6.45519c0 -0.61658 0.5154 -1.13204 1.132 -1.13204h7.547c0.2002 0 0.3774 -0.17719 0.3774 -0.37735V1.12735c0 -0.200159 -0.1772 -0.37735 -0.3774 -0.37735h-7.1696Z" stroke-width="1"></path><path stroke="#000000" stroke-linecap="round" stroke-linejoin="round" d="m20.8457 10.8125 0 -3.0625" stroke-width="1"></path><path stroke="#000000" stroke-linecap="round" stroke-linejoin="round" d="M5.75195 12c-0.2071 0 -0.375 -0.1679 -0.375 -0.375s0.1679 -0.375 0.375 -0.375" stroke-width="1"></path><path stroke="#000000" stroke-linecap="round" stroke-linejoin="round" d="M5.75195 12c0.20711 0 0.375 -0.1679 0.375 -0.375s-0.16789 -0.375 -0.375 -0.375" stroke-width="1"></path><path stroke="#000000" stroke-linecap="round" stroke-linejoin="round" d="M5.75195 8.5c-0.2071 0 -0.375 -0.16789 -0.375 -0.375s0.1679 -0.375 0.375 -0.375" stroke-width="1"></path><path stroke="#000000" stroke-linecap="round" stroke-linejoin="round" d="M5.75195 8.5c0.20711 0 0.375 -0.16789 0.375 -0.375s-0.16789 -0.375 -0.375 -0.375" stroke-width="1"></path><path stroke="#000000" stroke-linecap="round" stroke-linejoin="round" d="M5.75195 5c-0.2071 0 -0.375 -0.16789 -0.375 -0.375s0.1679 -0.375 0.375 -0.375" stroke-width="1"></path><path stroke="#000000" stroke-linecap="round" stroke-linejoin="round" d="M5.75195 5c0.20711 0 0.375 -0.16789 0.375 -0.375s-0.16789 -0.375 -0.375 -0.375" stroke-width="1"></path><path stroke="#000000" stroke-linecap="round" stroke-linejoin="round" d="M5.50195 18.75v4.5l2.5 -1.8125L10.502 23.25v-4.5" stroke-width="1"></path></svg>