<svg xmlns="http://www.w3.org/2000/svg" fill="none" viewBox="0 0 24 24" id="Style-Three-Pin-Skating--Streamline-Ultimate"><desc>Style Three Pin Skating Streamline Icon: https://streamlinehq.com</desc><path stroke="#000000" stroke-linecap="round" stroke-linejoin="round" d="M12 0.800049c2.3869 0 4.6761 0.948211 6.364 2.636041C20.0518 5.12392 21 7.4131 21 9.80005 21 17.7 14.068 22.131 12.371 23.1c-0.1132 0.0645 -0.2412 0.0984 -0.3715 0.0984s-0.2583 -0.0339 -0.3715 -0.0984C9.931 22.132 3 17.7 3 9.80005c0 -2.38695 0.94821 -4.67613 2.63604 -6.36396S9.61305 0.800049 12 0.800049v0Z" stroke-width="1"></path><path stroke="#000000" stroke-linecap="round" stroke-linejoin="round" d="M8.25 7.2391c0.00006 -0.15748 0.04962 -0.31095 0.14168 -0.43872s0.22196 -0.22337 0.37132 -0.27328l3 -1c0.1128 -0.03779 0.2329 -0.04819 0.3505 -0.03032 0.1176 0.01787 0.2292 0.06348 0.3257 0.13306 0.0965 0.06958 0.175 0.16114 0.229 0.26708 0.0541 0.10595 0.0821 0.22324 0.0818 0.34218v2.709c0.4926 0 0.9804 0.09706 1.4355 0.28564 0.4551 0.18858 0.8686 0.46499 1.2169 0.81346 0.3482 0.3484 0.6244 0.762 0.8127 1.2172 0.1884 0.4552 0.2852 0.9431 0.2849 1.4357H9c-0.19891 0 -0.38968 -0.079 -0.53033 -0.2197 -0.14065 -0.1406 -0.21967 -0.3314 -0.21967 -0.5303v-4.711Z" stroke-width="1"></path><path stroke="#000000" d="M9.375 15.7c-0.20711 0 -0.375 -0.1679 -0.375 -0.375 0 -0.2072 0.16789 -0.375 0.375 -0.375" stroke-width="1"></path><path stroke="#000000" d="M9.375 15.7c0.20711 0 0.375 -0.1679 0.375 -0.375 0 -0.2072 -0.16789 -0.375 -0.375 -0.375" stroke-width="1"></path><path stroke="#000000" d="M12.375 15.7c-0.2071 0 -0.375 -0.1679 -0.375 -0.375 0 -0.2072 0.1679 -0.375 0.375 -0.375" stroke-width="1"></path><path stroke="#000000" d="M12.375 15.7c0.2071 0 0.375 -0.1679 0.375 -0.375 0 -0.2072 -0.1679 -0.375 -0.375 -0.375" stroke-width="1"></path><g><path stroke="#000000" d="M15.375 15.7c-0.2071 0 -0.375 -0.1679 -0.375 -0.375 0 -0.2072 0.1679 -0.375 0.375 -0.375" stroke-width="1"></path><path stroke="#000000" d="M15.375 15.7c0.2071 0 0.375 -0.1679 0.375 -0.375 0 -0.2072 -0.1679 -0.375 -0.375 -0.375" stroke-width="1"></path></g></svg>