<svg viewBox="0 0 24 24" xmlns="http://www.w3.org/2000/svg" id="Style-Three-Pin-Facade--Streamline-Ultimate"><desc>Style Three Pin Facade Streamline Icon: https://streamlinehq.com</desc><path d="M12 0.8a9 9 0 0 1 9 9c0 7.9 -6.932 12.331 -8.629 13.3a0.751 0.751 0 0 1 -0.743 0C9.931 22.132 3 17.7 3 9.8a9 9 0 0 1 9 -9Z" fill="none" stroke="#000000" stroke-linecap="round" stroke-linejoin="round" stroke-width="1"></path><path d="M9.345 9.357a0.75 0.75 0 0 1 1.208 -0.394l3.456 2.88a0.75 0.75 0 0 1 -0.217 1.279L9.184 14.85a0.75 0.75 0 0 1 -0.991 -0.884Z" fill="none" stroke="#000000" stroke-linecap="round" stroke-linejoin="round" stroke-width="1"></path><path d="m12.313 10.43 2.237 -2.532 -1.8 -1.95 1.5 -1.5" fill="none" stroke="#000000" stroke-linecap="round" stroke-linejoin="round" stroke-width="1"></path></svg>