<svg viewBox="0 0 24 24" xmlns="http://www.w3.org/2000/svg" id="Style-Three-Pin-Baseball--Streamline-Ultimate"><desc>Style Three Pin Baseball Streamline Icon: https://streamlinehq.com</desc><path d="M12 0.8a9 9 0 0 1 9 9c0 7.9 -6.932 12.331 -8.629 13.3a0.751 0.751 0 0 1 -0.743 0C9.931 22.132 3 17.7 3 9.8a9 9 0 0 1 9 -9Z" fill="none" stroke="#000000" stroke-linecap="round" stroke-linejoin="round" stroke-width="1"></path><path d="M7.5 9.698a4.5 4.5 0 1 0 9 0 4.5 4.5 0 1 0 -9 0Z" fill="none" stroke="#000000" stroke-linecap="round" stroke-linejoin="round" stroke-width="1"></path><path d="M15 13.052a4.5 4.5 0 0 1 0 -6.708" fill="none" stroke="#000000" stroke-linecap="round" stroke-linejoin="round" stroke-width="1"></path><path d="M9 13.052a4.5 4.5 0 0 0 0 -6.708" fill="none" stroke="#000000" stroke-linecap="round" stroke-linejoin="round" stroke-width="1"></path></svg>