<svg viewBox="0 0 24 24" xmlns="http://www.w3.org/2000/svg" id="Style-Three-Pin-Snowflake--Streamline-Ultimate"><desc>Style Three Pin Snowflake Streamline Icon: https://streamlinehq.com</desc><path d="M12 0.8a9 9 0 0 1 9 9c0 7.9 -6.932 12.331 -8.629 13.3a0.751 0.751 0 0 1 -0.743 0C9.931 22.132 3 17.7 3 9.8a9 9 0 0 1 9 -9Z" fill="none" stroke="#000000" stroke-linecap="round" stroke-linejoin="round" stroke-width="1"></path><path d="m6.75 9.802 10.5 0" fill="none" stroke="#000000" stroke-linecap="round" stroke-linejoin="round" stroke-width="1"></path><path d="m12 4.552 0 10.5" fill="none" stroke="#000000" stroke-linecap="round" stroke-linejoin="round" stroke-width="1"></path><path d="M9.75 5.302 12 7.552l2.25 -2.25" fill="none" stroke="#000000" stroke-linecap="round" stroke-linejoin="round" stroke-width="1"></path><path d="m16.5 7.552 -2.25 2.25 2.25 2.25" fill="none" stroke="#000000" stroke-linecap="round" stroke-linejoin="round" stroke-width="1"></path><path d="M14.25 14.302 12 12.052l-2.25 2.25" fill="none" stroke="#000000" stroke-linecap="round" stroke-linejoin="round" stroke-width="1"></path><path d="m7.5 12.052 2.25 -2.25 -2.25 -2.25" fill="none" stroke="#000000" stroke-linecap="round" stroke-linejoin="round" stroke-width="1"></path></svg>