<svg viewBox="0 0 24 24" xmlns="http://www.w3.org/2000/svg" id="Style-Three-Pin-Signal-Antenna--Streamline-Ultimate"><desc>Style Three Pin Signal Antenna Streamline Icon: https://streamlinehq.com</desc><path d="M12 0.8a9 9 0 0 1 9 9c0 7.9 -6.932 12.331 -8.629 13.3a0.751 0.751 0 0 1 -0.743 0C9.931 22.132 3 17.7 3 9.8a9 9 0 0 1 9 -9Z" fill="none" stroke="#000000" stroke-linecap="round" stroke-linejoin="round" stroke-width="1"></path><path d="m12 9.052 0 6.75" fill="none" stroke="#000000" stroke-linecap="round" stroke-linejoin="round" stroke-width="1"></path><path d="M9.75 10.351a1.5 1.5 0 0 1 0 -2.6" fill="none" stroke="#000000" stroke-linecap="round" stroke-linejoin="round" stroke-width="1"></path><path d="M7.146 12.052a4.5 4.5 0 0 1 0 -6" fill="none" stroke="#000000" stroke-linecap="round" stroke-linejoin="round" stroke-width="1"></path><path d="M14.25 10.351a1.5 1.5 0 0 0 0 -2.6" fill="none" stroke="#000000" stroke-linecap="round" stroke-linejoin="round" stroke-width="1"></path><path d="M16.854 12.052a4.5 4.5 0 0 0 0 -6" fill="none" stroke="#000000" stroke-linecap="round" stroke-linejoin="round" stroke-width="1"></path></svg>