<svg viewBox="0 0 24 24" xmlns="http://www.w3.org/2000/svg" id="Style-Three-Pin-Hair-Dryer--Streamline-Ultimate"><desc>Style Three Pin Hair Dryer Streamline Icon: https://streamlinehq.com</desc><path d="M12 0.8a9 9 0 0 1 9 9c0 7.9 -6.932 12.331 -8.629 13.3a0.749 0.749 0 0 1 -0.743 0C9.931 22.134 3 17.7 3 9.8a9 9 0 0 1 9 -9Z" fill="none" stroke="#000000" stroke-linecap="round" stroke-linejoin="round" stroke-width="1"></path><path d="M16.5 9.325a2.4 2.4 0 0 1 -2.614 2.387L8.25 11.2V7.45l5.636 -0.512A2.4 2.4 0 0 1 16.5 9.325Z" fill="none" stroke="#000000" stroke-linecap="round" stroke-linejoin="round" stroke-width="1"></path><path d="M15.617 11.184s0.346 4.134 -3.678 4.48" fill="none" stroke="#000000" stroke-linecap="round" stroke-linejoin="round" stroke-width="1"></path></svg>