<svg xmlns="http://www.w3.org/2000/svg" fill="none" viewBox="0 0 24 24" id="Style-Three-Pin-Flower--Streamline-Ultimate"><desc>Style Three Pin Flower Streamline Icon: https://streamlinehq.com</desc><path stroke="#000000" stroke-linecap="round" stroke-linejoin="round" d="M12 0.800049c2.3869 0 4.6761 0.948211 6.364 2.636041C20.0518 5.12392 21 7.4131 21 9.80005 21 17.7 14.068 22.131 12.371 23.1c-0.1132 0.0645 -0.2412 0.0984 -0.3715 0.0984s-0.2583 -0.0339 -0.3715 -0.0984C9.931 22.132 3 17.7 3 9.80005c0 -2.38695 0.94821 -4.67613 2.63604 -6.36396S9.61305 0.800049 12 0.800049v0Z" stroke-width="1"></path><path stroke="#000000" stroke-linecap="round" stroke-linejoin="round" d="M14.625 7.073c0 -0.6962 -0.2766 -1.36387 -0.7688 -1.85616 -0.4923 -0.49228 -1.16 -0.76884 -1.8562 -0.76884 -0.6962 0 -1.3639 0.27656 -1.8562 0.76884 -0.49224 0.49229 -0.7688 1.15996 -0.7688 1.85616 -0.69619 0 -1.36387 0.27656 -1.85616 0.76884C7.02656 8.33413 6.75 9.0018 6.75 9.698c0 0.6962 0.27656 1.3639 0.76884 1.8562 0.49229 0.4922 1.15997 0.7688 1.85616 0.7688 0 0.6962 0.27656 1.3639 0.7688 1.8562 0.4923 0.4922 1.16 0.7688 1.8562 0.7688 0.6962 0 1.3639 -0.2766 1.8562 -0.7688 0.4922 -0.4923 0.7688 -1.16 0.7688 -1.8562 0.6962 0 1.3639 -0.2766 1.8562 -0.7688 0.4922 -0.4923 0.7688 -1.16 0.7688 -1.8562 0 -0.6962 -0.2766 -1.36387 -0.7688 -1.85616 -0.4923 -0.49228 -1.16 -0.76884 -1.8562 -0.76884Z" stroke-width="1"></path><path stroke="#000000" d="M12 10.073c-0.2071 0 -0.375 -0.1679 -0.375 -0.375 0 -0.20711 0.1679 -0.375 0.375 -0.375" stroke-width="1"></path><path stroke="#000000" d="M12 10.073c0.2071 0 0.375 -0.1679 0.375 -0.375 0 -0.20711 -0.1679 -0.375 -0.375 -0.375" stroke-width="1"></path></svg>