<svg xmlns="http://www.w3.org/2000/svg" viewBox="0 0 24 24" id="Avatar-Muslim-Couple-1--Streamline-Ultimate"><desc>Avatar Muslim Couple 1 Streamline Icon: https://streamlinehq.com</desc><defs></defs><path d="M15.305 5.02v-0.98a2.939 2.939 0 1 1 5.878 0v0.98" fill="none" stroke="#000000" stroke-linecap="round" stroke-linejoin="round" stroke-width="1"></path><path d="m21.305 22.654 0 -3.919" fill="none" stroke="#000000" stroke-linecap="round" stroke-linejoin="round" stroke-width="1"></path><path d="m15.182 18.735 0 3.919" fill="none" stroke="#000000" stroke-linecap="round" stroke-linejoin="round" stroke-width="1"></path><path d="m14.026 4.04 8.435 0" fill="none" stroke="#000000" stroke-linecap="round" stroke-linejoin="round" stroke-width="1"></path><path d="M15.182 18.735h0a1.439 1.439 0 0 1 -1.469 -1.469v-5.388a3.175 3.175 0 0 1 2.449 -2.939h4.163a3.176 3.176 0 0 1 2.45 2.939v5.388a1.439 1.439 0 0 1 -1.47 1.469h0" fill="none" stroke="#000000" stroke-linecap="round" stroke-linejoin="round" stroke-width="1"></path><path d="M15.305 4.04c0 1.96 0 4.9 2.939 4.9s2.939 -2.94 2.939 -4.9" fill="none" stroke="#000000" stroke-linecap="round" stroke-linejoin="round" stroke-width="1"></path><path d="m18.244 8.939 0 2.939" fill="none" stroke="#000000" stroke-linecap="round" stroke-linejoin="round" stroke-width="1"></path><path d="m21.183 4.04 0.489 0.49A7.97 7.97 0 0 1 23.25 7.7" fill="none" stroke="#000000" stroke-linecap="round" stroke-linejoin="round" stroke-width="1"></path><path d="m15.305 4.04 -0.49 0.49a12.852 12.852 0 0 0 -1.47 3.445" fill="none" stroke="#000000" stroke-linecap="round" stroke-linejoin="round" stroke-width="1"></path><path d="M2.22 19.225h0a1.439 1.439 0 0 1 -1.47 -1.469v-6.613A5.128 5.128 0 0 1 2.22 8.2V4.775a3.429 3.429 0 1 1 6.857 0V8.2a3.672 3.672 0 0 1 1.47 2.939v6.613a1.439 1.439 0 0 1 -1.47 1.469h0" fill="none" stroke="#000000" stroke-linecap="round" stroke-linejoin="round" stroke-width="1"></path><path d="M1.24 9.673s1.163 2.449 9.307 2.449" fill="none" stroke="#000000" stroke-linecap="round" stroke-linejoin="round" stroke-width="1"></path><path d="m2.036 22.899 0.184 -3.674" fill="none" stroke="#000000" stroke-linecap="round" stroke-linejoin="round" stroke-width="1"></path><path d="m9.077 19.225 0.23 3.674" fill="none" stroke="#000000" stroke-linecap="round" stroke-linejoin="round" stroke-width="1"></path><path d="M9.077 5.625C8.026 5.757 5.648 4.04 5.648 4.04S3.271 5.757 2.22 5.625" fill="none" stroke="#000000" stroke-linecap="round" stroke-linejoin="round" stroke-width="1"></path><path d="M3.132 5.458A2.451 2.451 0 0 0 5.512 8.2a2.745 2.745 0 0 0 2.653 -2.742" fill="none" stroke="#000000" stroke-linecap="round" stroke-linejoin="round" stroke-width="1"></path></svg>