<svg xmlns="http://www.w3.org/2000/svg" viewBox="0 0 24 24" id="Avatar-Muslim-Dad-Son-3--Streamline-Ultimate"><desc>Avatar Muslim Dad Son 3 Streamline Icon: https://streamlinehq.com</desc><defs></defs><path d="M19.653 15.25v6.5H21.5a1 1 0 0 0 1 -1v-5.227a6.888 6.888 0 0 0 -3.262 -5.869" fill="none" stroke="#000000" stroke-linecap="round" stroke-linejoin="round" stroke-width="1"></path><path d="m19.653 21.75 0 1.5" fill="none" stroke="#000000" stroke-linecap="round" stroke-linejoin="round" stroke-width="1"></path><path d="m16 10.75 0 3" fill="none" stroke="#000000" stroke-linecap="round" stroke-linejoin="round" stroke-width="1"></path><path d="M12 5.75c0 1.5 -0.5 5 4 5s4 -3.5 4 -5c-1 0 -2.5 2 -2.5 2a2.19 2.19 0 0 0 -1.5 -0.5 2.19 2.19 0 0 0 -1.5 0.5s-1.5 -2 -2.5 -2Z" fill="none" stroke="#000000" stroke-linecap="round" stroke-linejoin="round" stroke-width="1"></path><path d="M12 4.25s0.5 -3.5 2.5 -3.5h3c2 0 2.5 3.5 2.5 3.5Z" fill="none" stroke="#000000" stroke-linecap="round" stroke-linejoin="round" stroke-width="1"></path><path d="M4.025 16.725A5.713 5.713 0 0 0 1.5 20.878v2.372" fill="none" stroke="#000000" stroke-linecap="round" stroke-linejoin="round" stroke-width="1"></path><path d="M8.974 16.724a5.716 5.716 0 0 1 2.526 4.154v2.372" fill="none" stroke="#000000" stroke-linecap="round" stroke-linejoin="round" stroke-width="1"></path><path d="M10 12.75v1.5a3.5 3.5 0 0 1 -7 0v-1.5" fill="none" stroke="#000000" stroke-linecap="round" stroke-linejoin="round" stroke-width="1"></path><path d="m6.5 17.75 0 2.5" fill="none" stroke="#000000" stroke-linecap="round" stroke-linejoin="round" stroke-width="1"></path><path d="M3 12.75s0.438 -3.5 2.188 -3.5h2.624c1.75 0 2.188 3.5 2.188 3.5Z" fill="none" stroke="#000000" stroke-linecap="round" stroke-linejoin="round" stroke-width="1"></path><path d="m12 4.25 0 1.5" fill="none" stroke="#000000" stroke-linecap="round" stroke-linejoin="round" stroke-width="1"></path><path d="m20 4.25 0 1.5" fill="none" stroke="#000000" stroke-linecap="round" stroke-linejoin="round" stroke-width="1"></path></svg>