<svg xmlns="http://www.w3.org/2000/svg" viewBox="0 0 24 24" id="Avatar-Muslim-Reading-Quraan-2--Streamline-Ultimate"><desc>Avatar Muslim Reading Quraan 2 Streamline Icon: https://streamlinehq.com</desc><defs></defs><path d="M9.528 7.972a6 6 0 0 0 -2.621 4.249" fill="none" stroke="#000000" stroke-linecap="round" stroke-linejoin="round" stroke-width="1"></path><path d="M14.474 7.974a6.029 6.029 0 0 1 2.626 4.257" fill="none" stroke="#000000" stroke-linecap="round" stroke-linejoin="round" stroke-width="1"></path><path d="M8.5 4.5a3.5 3.5 0 0 1 7 0v1a3.5 3.5 0 0 1 -7 0Z" fill="none" stroke="#000000" stroke-linecap="round" stroke-linejoin="round" stroke-width="1"></path><path d="m7.5 4 9 0" fill="none" stroke="#000000" stroke-linecap="round" stroke-linejoin="round" stroke-width="1"></path><path d="M8.5 4.5a6.581 6.581 0 0 0 -2.532 4.277" fill="none" stroke="#000000" stroke-linecap="round" stroke-linejoin="round" stroke-width="1"></path><path d="M15.5 4.5a6.536 6.536 0 0 1 2.532 4.278" fill="none" stroke="#000000" stroke-linecap="round" stroke-linejoin="round" stroke-width="1"></path><path d="m12 9 0 2.5" fill="none" stroke="#000000" stroke-linecap="round" stroke-linejoin="round" stroke-width="1"></path><path d="M19.085 20.727A13.283 13.283 0 0 0 12 23a13.283 13.283 0 0 0 -7.085 -2.273A0.938 0.938 0 0 1 4 19.81v-6.89a0.923 0.923 0 0 1 0.968 -0.92A13.254 13.254 0 0 1 12 14.272 13.254 13.254 0 0 1 19.032 12a0.923 0.923 0 0 1 0.968 0.92v6.89a0.938 0.938 0 0 1 -0.915 0.917Z" fill="none" stroke="#000000" stroke-linecap="round" stroke-linejoin="round" stroke-width="1"></path><path d="M12 14.272 12 23" fill="none" stroke="#000000" stroke-linecap="round" stroke-linejoin="round" stroke-width="1"></path></svg>