<svg xmlns="http://www.w3.org/2000/svg" viewBox="0 0 24 24" id="Avatar-Muslim-Couple-3--Streamline-Ultimate"><desc>Avatar Muslim Couple 3 Streamline Icon: https://streamlinehq.com</desc><defs></defs><path d="M15.6 5.25v-1c0 -2 0.5 -3 3 -3s3 1 3 3v1" fill="none" stroke="#000000" stroke-linecap="round" stroke-linejoin="round" stroke-width="1"></path><path d="m21.724 23.25 0 -5.5" fill="none" stroke="#000000" stroke-linecap="round" stroke-linejoin="round" stroke-width="1"></path><path d="m15.483 17.75 0 5.5" fill="none" stroke="#000000" stroke-linecap="round" stroke-linejoin="round" stroke-width="1"></path><path d="m15.601 4.25 6 0" fill="none" stroke="#000000" stroke-linecap="round" stroke-linejoin="round" stroke-width="1"></path><path d="M20.59 8.75a3.361 3.361 0 0 1 2.636 3v4.5a1.469 1.469 0 0 1 -1.5 1.5" fill="none" stroke="#000000" stroke-linecap="round" stroke-linejoin="round" stroke-width="1"></path><path d="M15.476 17.75a1.469 1.469 0 0 1 -1.5 -1.5v-4.5a3.361 3.361 0 0 1 2.637 -3" fill="none" stroke="#000000" stroke-linecap="round" stroke-linejoin="round" stroke-width="1"></path><path d="M21.6 5.25c0 2 0 4 -3 4s-3 -2 -3 -4" fill="none" stroke="#000000" stroke-linecap="round" stroke-linejoin="round" stroke-width="1"></path><path d="m18.601 9.25 0 3" fill="none" stroke="#000000" stroke-linecap="round" stroke-linejoin="round" stroke-width="1"></path><path d="m2.538 8.49 0.973 1.751a2.589 2.589 0 0 0 4.526 0L9.01 8.49" fill="none" stroke="#000000" stroke-linecap="round" stroke-linejoin="round" stroke-width="1"></path><path d="M10.591 10.031V5.567a4.817 4.817 0 1 0 -9.634 0v4.464" fill="none" stroke="#000000" stroke-linecap="round" stroke-linejoin="round" stroke-width="1"></path><path d="M8.765 17.25h0.509a1.469 1.469 0 0 0 1.5 -1.5v-4.5c0 -1.5 -1.5 -3 -2.5 -3h-5c-1 0 -2.5 1.5 -2.5 3v4.5a1.469 1.469 0 0 0 1.5 1.5h0.509" fill="none" stroke="#000000" stroke-linecap="round" stroke-linejoin="round" stroke-width="1"></path><path d="m3.274 19.75 5 0" fill="none" stroke="#000000" stroke-linecap="round" stroke-linejoin="round" stroke-width="1"></path><path d="M7.527 6.188a1.689 1.689 0 0 1 -1.753 1.754 1.689 1.689 0 0 1 -1.753 -1.754V4.85a3.217 3.217 0 0 0 2.191 -0.974 1.537 1.537 0 0 0 1.315 0.974Z" fill="none" stroke="#000000" stroke-linecap="round" stroke-linejoin="round" stroke-width="1"></path><path d="m2.783 22.25 0 -5" fill="none" stroke="#000000" stroke-linecap="round" stroke-linejoin="round" stroke-width="1"></path><path d="m8.765 17.25 0 5" fill="none" stroke="#000000" stroke-linecap="round" stroke-linejoin="round" stroke-width="1"></path><path d="m5.774 22.25 0 -2.5" fill="none" stroke="#000000" stroke-linecap="round" stroke-linejoin="round" stroke-width="1"></path></svg>