<svg xmlns="http://www.w3.org/2000/svg" viewBox="0 0 24 24" id="Avatar-Muslim-Man-Outfit-2--Streamline-Ultimate"><desc>Avatar Muslim Man Outfit 2 Streamline Icon: https://streamlinehq.com</desc><defs></defs><path d="M8.75 5V4c0 -2 0.542 -3 3.25 -3s3.25 1 3.25 3v1" fill="none" stroke="#000000" stroke-linecap="round" stroke-linejoin="round" stroke-width="1"></path><path d="m8.75 4 6.5 0" fill="none" stroke="#000000" stroke-linecap="round" stroke-linejoin="round" stroke-width="1"></path><path d="M15.25 5c0 2 0 4 -3.25 4S8.75 7 8.75 5" fill="none" stroke="#000000" stroke-linecap="round" stroke-linejoin="round" stroke-width="1"></path><path d="M9.292 7.5A3.01 3.01 0 0 1 12 6.309 3.01 3.01 0 0 1 14.708 7.5" fill="none" stroke="#000000" stroke-linecap="round" stroke-linejoin="round" stroke-width="1"></path><path d="m14.635 23 0 -9" fill="none" stroke="#000000" stroke-linecap="round" stroke-linejoin="round" stroke-width="1"></path><path d="m9.253 14 0 9" fill="none" stroke="#000000" stroke-linecap="round" stroke-linejoin="round" stroke-width="1"></path><path d="M9.253 19H8a1.469 1.469 0 0 1 -1.5 -1.5V12C6.5 10.5 8 9 9 9h6c1 0 2.5 1.5 2.5 3v5.5A1.469 1.469 0 0 1 16 19h-1.306" fill="none" stroke="#000000" stroke-linecap="round" stroke-linejoin="round" stroke-width="1"></path><path d="m12 9 0 3" fill="none" stroke="#000000" stroke-linecap="round" stroke-linejoin="round" stroke-width="1"></path></svg>