<svg xmlns="http://www.w3.org/2000/svg" viewBox="0 0 24 24" id="Avatar-Muslim-Couple-2--Streamline-Ultimate"><desc>Avatar Muslim Couple 2 Streamline Icon: https://streamlinehq.com</desc><defs></defs><path d="M21.453 5.25a3 3 0 0 1 -6 0v-1.5a3 3 0 0 1 6 0Z" fill="none" stroke="#000000" stroke-linecap="round" stroke-linejoin="round" stroke-width="1"></path><path d="m21.514 23.25 0 -6 -6.123 0 0 6" fill="none" stroke="#000000" stroke-linecap="round" stroke-linejoin="round" stroke-width="1"></path><path d="M20.692 17.25h1a1.469 1.469 0 0 0 1.5 -1.5v-4.5c0 -1.5 -1.5 -3 -2.5 -3h-4.478c-1 0 -2.5 1.5 -2.5 3v4.5a1.469 1.469 0 0 0 1.5 1.5h1" fill="none" stroke="#000000" stroke-linecap="round" stroke-linejoin="round" stroke-width="1"></path><path d="M15.453 4.25c2.5 1 3.5 -0.5 3.5 -0.5s0.5 1.5 2.5 1" fill="none" stroke="#000000" stroke-linecap="round" stroke-linejoin="round" stroke-width="1"></path><path d="M2.278 19.35h0a1.439 1.439 0 0 1 -1.47 -1.469v-6.613a5.128 5.128 0 0 1 1.47 -2.939V4.9a3.429 3.429 0 1 1 6.858 0v3.429a3.673 3.673 0 0 1 1.469 2.939v6.613a1.439 1.439 0 0 1 -1.469 1.469h0" fill="none" stroke="#000000" stroke-linecap="round" stroke-linejoin="round" stroke-width="1"></path><path d="M1.3 9.8s1.164 2.449 9.307 2.449" fill="none" stroke="#000000" stroke-linecap="round" stroke-linejoin="round" stroke-width="1"></path><path d="m2.094 23.024 0.184 -3.674" fill="none" stroke="#000000" stroke-linecap="round" stroke-linejoin="round" stroke-width="1"></path><path d="m9.136 19.35 0.229 3.674" fill="none" stroke="#000000" stroke-linecap="round" stroke-linejoin="round" stroke-width="1"></path><path d="M9.136 5.75c-1.052 0.132 -3.429 -1.585 -3.429 -1.585S3.329 5.882 2.278 5.75" fill="none" stroke="#000000" stroke-linecap="round" stroke-linejoin="round" stroke-width="1"></path><path d="M3.19 5.583a2.451 2.451 0 0 0 2.38 2.746 2.745 2.745 0 0 0 2.653 -2.746" fill="none" stroke="#000000" stroke-linecap="round" stroke-linejoin="round" stroke-width="1"></path><path d="m18.453 20.717 0 2.533" fill="none" stroke="#000000" stroke-linecap="round" stroke-linejoin="round" stroke-width="1"></path></svg>