<svg xmlns="http://www.w3.org/2000/svg" fill="none" viewBox="0 0 24 24" id="Circuit-Lock-Graph--Streamline-Ultimate"><desc>Circuit Lock Graph Streamline Icon: https://streamlinehq.com</desc><path stroke="#000000" stroke-linecap="round" stroke-linejoin="round" stroke-miterlimit="10" d="M23.25 15.85v4h-4" stroke-width="1"></path><path stroke="#000000" stroke-linecap="round" stroke-linejoin="round" stroke-miterlimit="10" d="M0.75 0.75v22.5h22.5" stroke-width="1"></path><path stroke="#000000" stroke-linecap="round" stroke-linejoin="round" stroke-miterlimit="10" d="M16.75 15.25c0 0.6 -0.4 1 -1 1h-6.5c-0.6 0 -1 -0.4 -1 -1v-5.2c0 -0.60001 0.4 -1.00001 1 -1.00001h6.5c0.6 0 1 0.4 1 1.00001v5.2Z" stroke-width="1"></path><path stroke="#000000" stroke-linecap="round" stroke-miterlimit="10" d="M12.55 12.05c-0.3 0 -0.5 0.2 -0.5 0.5s0.2 0.5 0.5 0.5" stroke-width="1"></path><path stroke="#000000" stroke-linecap="round" stroke-miterlimit="10" d="M12.55 12.05c0.3 0 0.5 0.2 0.5 0.5s-0.2 0.5 -0.5 0.5" stroke-width="1"></path><path stroke="#000000" stroke-linecap="round" stroke-linejoin="round" stroke-miterlimit="10" d="M10.05 9.05v-1.8c0 -1.4 1.1 -2.5 2.5 -2.5s2.5 1.1 2.5 2.5v1.8" stroke-width="1"></path><path stroke="#000000" stroke-linecap="round" stroke-linejoin="round" stroke-miterlimit="10" d="m23.25 19.85 -3.7 -3.8" stroke-width="1"></path><path stroke="#000000" stroke-linecap="round" stroke-linejoin="round" stroke-miterlimit="10" d="m6.75 5.84999 -1.7 -1.8" stroke-width="1"></path></svg>