<svg xmlns="http://www.w3.org/2000/svg" fill="none" viewBox="0 0 24 24" id="Circuit-Lock--Streamline-Ultimate"><desc>Circuit Lock Streamline Icon: https://streamlinehq.com</desc><path stroke="#000000" stroke-linecap="round" stroke-linejoin="round" stroke-miterlimit="10" d="M23.25 2.2 18.55 7l-2 -2 -2.8 2.8" stroke-width="1"></path><path stroke="#000000" stroke-linecap="round" stroke-linejoin="round" stroke-miterlimit="10" d="M11.25 16.8c0 0.8 -0.7 1.5 -1.5 1.5h-7.5c-0.8 0 -1.5 -0.7 -1.5 -1.5v-5.5c0 -0.8 0.7 -1.5 1.5 -1.5h7.5c0.8 0 1.5 0.7 1.5 1.5v5.5Z" stroke-width="1"></path><path stroke="#000000" stroke-linecap="round" stroke-linejoin="round" stroke-miterlimit="10" d="M6.05 13.5c-0.3 0 -0.5 0.2 -0.5 0.5s0.2 0.5 0.5 0.5" stroke-width="1"></path><path stroke="#000000" stroke-linecap="round" stroke-linejoin="round" stroke-miterlimit="10" d="M6.05 13.5c0.3 0 0.5 0.2 0.5 0.5s-0.2 0.5 -0.5 0.5" stroke-width="1"></path><path stroke="#000000" stroke-linecap="round" stroke-linejoin="round" stroke-miterlimit="10" d="M2.25 9.8V7.6c0 -2.1 1.7 -3.8 3.8 -3.8 2.1 0 3.8 1.7 3.8 3.8v2.2" stroke-width="1"></path><path stroke="#000000" stroke-linecap="round" stroke-linejoin="round" stroke-miterlimit="10" d="M20.05 2.2h3.2v3.3" stroke-width="1"></path><path stroke="#000000" stroke-linecap="round" stroke-linejoin="round" stroke-miterlimit="10" d="m23.25 21.8 -4.7 -4.8 -2 2 -2.3 -2.2" stroke-width="1"></path><path stroke="#000000" stroke-linecap="round" stroke-linejoin="round" stroke-miterlimit="10" d="M20.05 21.8h3.2v-3.3" stroke-width="1"></path></svg>