<svg xmlns="http://www.w3.org/2000/svg" fill="none" viewBox="0 0 24 24" id="Line-Break-Chart--Streamline-Ultimate"><desc>Line Break Chart Streamline Icon: https://streamlinehq.com</desc><path stroke="#000000" stroke-linecap="round" stroke-linejoin="round" d="M1.5 8c0 -0.27614 0.22386 -0.5 0.5 -0.5h3.5c0.27614 0 0.5 0.22386 0.5 0.5v4.5c0 0.2761 -0.22386 0.5 -0.5 0.5H2c-0.27614 0 -0.5 -0.2239 -0.5 -0.5V8Z" stroke-width="1"></path><path stroke="#000000" stroke-linecap="round" stroke-linejoin="round" d="M7 1.5c0 -0.27614 0.22386 -0.5 0.5 -0.5H11c0.2761 0 0.5 0.22386 0.5 0.5V6c0 0.27614 -0.2239 0.5 -0.5 0.5H7.5c-0.27614 0 -0.5 -0.22386 -0.5 -0.5V1.5Z" stroke-width="1"></path><path stroke="#000000" stroke-linecap="round" stroke-linejoin="round" d="M12.5 8c0 -0.27614 0.2239 -0.5 0.5 -0.5h3.5c0.2761 0 0.5 0.22386 0.5 0.5v8c0 0.2761 -0.2239 0.5 -0.5 0.5H13c-0.2761 0 -0.5 -0.2239 -0.5 -0.5V8Z" stroke-width="1"></path><path stroke="#000000" stroke-linecap="round" stroke-linejoin="round" d="M18 18c0 -0.2761 0.2239 -0.5 0.5 -0.5H22c0.2761 0 0.5 0.2239 0.5 0.5v4.5c0 0.2761 -0.2239 0.5 -0.5 0.5h-3.5c-0.2761 0 -0.5 -0.2239 -0.5 -0.5V18Z" stroke-width="1"></path></svg>