<svg xmlns="http://www.w3.org/2000/svg" fill="none" viewBox="0 0 24 24" id="Trading-People-Monitor--Streamline-Ultimate"><desc>Trading People Monitor Streamline Icon: https://streamlinehq.com</desc><path stroke="#000000" stroke-linecap="round" stroke-linejoin="round" stroke-miterlimit="10" d="M23.25 8.75c0 0.6 -0.4 1 -1 1h-9c-0.6 0 -1 -0.4 -1 -1v-7c0 -0.6 0.4 -1 1 -1h9c0.6 0 1 0.4 1 1v7Z" stroke-width="1"></path><path stroke="#000000" stroke-linecap="round" stroke-linejoin="round" stroke-miterlimit="10" d="M17.75 9.75v3" stroke-width="1"></path><path stroke="#000000" stroke-linecap="round" stroke-linejoin="round" stroke-miterlimit="10" d="M15.75 12.75h4" stroke-width="1"></path><path stroke="#000000" stroke-linecap="round" stroke-linejoin="round" stroke-miterlimit="10" d="m15.1 6.75 1.3 -2.3 2.5 2 1.5 -2.7" stroke-width="1"></path><path stroke="#000000" stroke-linecap="round" stroke-linejoin="round" stroke-miterlimit="10" d="M16.7 22.2 14.5 20l2.2 -2.2" stroke-width="1"></path><path stroke="#000000" stroke-linecap="round" stroke-linejoin="round" stroke-miterlimit="10" d="M20.5 17c0 1.7 -1.3 3 -3 3h-3" stroke-width="1"></path><path stroke="#000000" stroke-linecap="round" stroke-linejoin="round" stroke-miterlimit="10" d="m6.19998 1.79999 2.3 2.2 -2.3 2.2" stroke-width="1"></path><path stroke="#000000" stroke-linecap="round" stroke-linejoin="round" stroke-miterlimit="10" d="M2.49997 7c0 -1.7 1.3 -3 3 -3h3" stroke-width="1"></path><path stroke="#000000" stroke-linecap="round" stroke-linejoin="round" stroke-miterlimit="10" d="M5.44995 19.05c1.933 0 3.5 -1.567 3.5 -3.5s-1.567 -3.5 -3.5 -3.5c-1.93299 0 -3.5 1.567 -3.5 3.5s1.56701 3.5 3.5 3.5Z" stroke-width="1"></path><path stroke="#000000" stroke-linecap="round" stroke-linejoin="round" stroke-miterlimit="10" d="M8.94995 15.45c-0.6 0.2 -1.2 0.3 -1.8 0.3 -1.8 0 -3.5 -0.8 -4.7 -2" stroke-width="1"></path><path stroke="#000000" stroke-linecap="round" stroke-linejoin="round" stroke-miterlimit="10" d="M10.15 23.25c-0.7 -1.9 -2.5 -3.2 -4.7 -3.2s-4 1.4 -4.7 3.2" stroke-width="1"></path></svg>