<svg xmlns="http://www.w3.org/2000/svg" fill="none" viewBox="0 0 24 24" id="Trading-Website-Network--Streamline-Ultimate"><desc>Trading Website Network Streamline Icon: https://streamlinehq.com</desc><path stroke="#000000" stroke-linecap="round" stroke-linejoin="round" stroke-miterlimit="10" d="M8.45 21.15c-1 -2.3 -1.6 -5.6 -1.6 -9.2 0 -4.6 1 -8.7 2.5 -10.9" stroke-width="1"></path><path stroke="#000000" stroke-linecap="round" stroke-linejoin="round" stroke-miterlimit="10" d="M0.750008 11.95H23.15" stroke-width="1"></path><path stroke="#000000" stroke-linecap="round" stroke-linejoin="round" stroke-miterlimit="10" d="M2.05001 6.75H21.8828" stroke-width="1"></path><path stroke="#000000" stroke-linecap="round" stroke-linejoin="round" stroke-miterlimit="10" d="M2.05001 17.15H11.75" stroke-width="1"></path><path stroke="#000000" stroke-linecap="round" stroke-linejoin="round" stroke-miterlimit="10" d="M17.25 13.95c0.2974 -5.45187 -0.7809 -10.3142 -2.4555 -12.83382" stroke-width="1"></path><path stroke="#000000" stroke-linecap="round" stroke-linejoin="round" stroke-miterlimit="10" d="M6.55001 21.75c-3.5 -1.9 -5.800002 -5.6 -5.800002 -9.8C0.750008 5.75 5.75 0.75 11.95 0.75s11.2 5 11.2 11.2" stroke-width="1"></path><path stroke="#000000" stroke-linecap="round" stroke-linejoin="round" stroke-miterlimit="10" d="m23.25 15.85 -5.2 5.2 -2.5 -2.5 -4.5 4.7" stroke-width="1"></path><path stroke="#000000" stroke-linecap="round" stroke-linejoin="round" stroke-miterlimit="10" d="M20.05 15.85h3.2v3.2" stroke-width="1"></path></svg>