<svg xmlns="http://www.w3.org/2000/svg" fill="none" viewBox="0 0 24 24" id="Trading-Pattern-Down--Streamline-Ultimate"><desc>Trading Pattern Down Streamline Icon: https://streamlinehq.com</desc><path stroke="#000000" stroke-linecap="round" stroke-linejoin="round" stroke-miterlimit="10" d="M4.25001 14.85c0 -0.6 -0.4 -1 -1 -1h-1.5c-0.6 0 -1.000002 0.4 -1.000002 1v3c0 0.6 0.400002 1 1.000002 1h1.5c0.6 0 1 -0.4 1 -1v-3Z" stroke-width="1"></path><path stroke="#000000" stroke-linecap="round" stroke-linejoin="round" stroke-miterlimit="10" d="M2.50001 18.85v4.4" stroke-width="1"></path><path stroke="#000000" stroke-linecap="round" stroke-linejoin="round" stroke-miterlimit="10" d="M2.50001 13.85v-3" stroke-width="1"></path><path stroke="#000000" stroke-linecap="round" stroke-linejoin="round" stroke-miterlimit="10" d="M9.75001 5.75c0 -0.6 -0.4 -1 -1 -1h-1.5c-0.6 0 -1 0.4 -1 1v4.5c0 0.6 0.4 1 1 1h1.5c0.6 0 1 -0.4 1 -1v-4.5Z" stroke-width="1"></path><path stroke="#000000" stroke-linecap="round" stroke-linejoin="round" stroke-miterlimit="10" d="M8.00001 11.25v3" stroke-width="1"></path><path stroke="#000000" stroke-linecap="round" stroke-linejoin="round" stroke-miterlimit="10" d="M8.00001 4.75v-4" stroke-width="1"></path><path stroke="#000000" stroke-linecap="round" stroke-linejoin="round" stroke-miterlimit="10" d="M16.55 7.14999c0 -0.6 -0.4 -1 -1 -1h-1.5c-0.6 0 -1 0.4 -1 1V11.15c0 0.6 0.4 1 1 1h1.5c0.6 0 1 -0.4 1 -1V7.14999Z" stroke-width="1"></path><path stroke="#000000" stroke-linecap="round" stroke-linejoin="round" stroke-miterlimit="10" d="M14.8 6.14999v-4" stroke-width="1"></path><path stroke="#000000" stroke-linecap="round" stroke-linejoin="round" stroke-miterlimit="10" d="m17.25 17.15 3 3.6 3 -3.6" stroke-width="1"></path><path stroke="#000000" stroke-linecap="round" stroke-linejoin="round" stroke-miterlimit="10" d="M20.25 20.75V5.14999" stroke-width="1"></path></svg>