<svg xmlns="http://www.w3.org/2000/svg" fill="none" viewBox="0 0 24 24" id="Trading-Apps-Hand--Streamline-Ultimate"><desc>Trading Apps Hand Streamline Icon: https://streamlinehq.com</desc><path stroke="#000000" stroke-linecap="round" stroke-linejoin="round" stroke-miterlimit="10" d="M7.75 10.15c-0.6 0 -1 -0.40001 -1 -1.00001v-3.5c0 -0.6 0.4 -1 1 -1h1.5c0.6 0 1 0.4 1 1v3.5c0 0.6 -0.4 1.00001 -1 1.00001h-1.5Z" stroke-width="1"></path><path stroke="#000000" stroke-linecap="round" stroke-linejoin="round" stroke-miterlimit="10" d="M8.5 10.15v2" stroke-width="1"></path><path stroke="#000000" stroke-linecap="round" stroke-linejoin="round" stroke-miterlimit="10" d="M14.25 7.95c-0.6 0 -1 -0.4 -1 -1v-5.2c0 -0.6 0.4 -1 1 -1h1.5c0.6 0 1 0.4 1 1v5.2c0 0.6 -0.4 1 -1 1h-1.5Z" stroke-width="1"></path><path stroke="#000000" stroke-linecap="round" stroke-linejoin="round" stroke-miterlimit="10" d="M15 7.95v1.19999" stroke-width="1"></path><path stroke="#000000" stroke-linecap="round" stroke-linejoin="round" stroke-miterlimit="10" d="M20.75 8.25c-0.6 0 -1 -0.4 -1 -1v-3.5c0 -0.6 0.4 -1 1 -1h1.5c0.6 0 1 0.4 1 1v3.5c0 0.6 -0.4 1 -1 1h-1.5Z" stroke-width="1"></path><path stroke="#000000" stroke-linecap="round" stroke-linejoin="round" stroke-miterlimit="10" d="M21.5 0.75v2" stroke-width="1"></path><path stroke="#000000" stroke-linecap="round" stroke-linejoin="round" stroke-miterlimit="10" d="m14.25 17.25 -1.7 -1.3c-0.7 -0.5 -1.7 -0.4 -2.2 0.4 -0.40001 0.5 -0.40001 1.2 0 1.7l1.6 2.5c0.5 0.8 1.2 1.3 2.1 1.7l2.5 1" stroke-width="1"></path><path stroke="#000000" stroke-linecap="round" stroke-linejoin="round" stroke-miterlimit="10" d="m14.25 12.15 1.3 0.4c3.4 1 5.7 4.1 5.7 7.7v3" stroke-width="1"></path><path stroke="#000000" stroke-linecap="round" stroke-linejoin="round" stroke-miterlimit="10" d="M13.75 22.15c-0.5 0.6 -1.2 1.1 -2 1.1h-8.5c-1.4 0 -2.5 -1.1 -2.5 -2.5V3.25c0 -1.4 1.1 -2.5 2.5 -2.5h6.5" stroke-width="1"></path><path stroke="#000000" stroke-linecap="round" stroke-linejoin="round" stroke-miterlimit="10" d="M0.75 18.45h9.875" stroke-width="1"></path><path stroke="#000000" stroke-linecap="round" stroke-linejoin="round" stroke-miterlimit="10" d="M14.25 17.25v-5.1" stroke-width="1"></path></svg>