<svg xmlns="http://www.w3.org/2000/svg" fill="none" viewBox="0 0 24 24" id="Trading-Apps--Streamline-Ultimate"><desc>Trading Apps Streamline Icon: https://streamlinehq.com</desc><path stroke="#000000" stroke-linecap="round" stroke-linejoin="round" stroke-miterlimit="10" d="M8.75 13c-0.6 0 -1 -0.4 -1 -1V9c0 -0.6 0.4 -1 1 -1h1.5c0.6 0 1 0.4 1 1v3c0 0.6 -0.4 1 -1 1h-1.5Z" stroke-width="1"></path><path stroke="#000000" stroke-linecap="round" stroke-linejoin="round" stroke-miterlimit="10" d="M9.55 13v2" stroke-width="1"></path><path stroke="#000000" stroke-linecap="round" stroke-linejoin="round" stroke-miterlimit="10" d="M14.75 10.8c-0.6 0 -1 -0.4 -1 -1V6.10001c0 -0.6 0.4 -1 1 -1h1.5c0.6 0 1 0.4 1 1V9.8c0 0.6 -0.4 1 -1 1h-1.5Z" stroke-width="1"></path><path stroke="#000000" stroke-linecap="round" stroke-linejoin="round" stroke-miterlimit="10" d="M15.55 10.8V13" stroke-width="1"></path><path stroke="#000000" stroke-linecap="round" stroke-linejoin="round" stroke-miterlimit="10" d="M20.75 7.25c-0.6 0 -1 -0.4 -1 -1v-2.2c0 -0.6 0.4 -1 1 -1h1.5c0.6 0 1 0.4 1 1v2.2c0 0.6 -0.4 1 -1 1h-1.5Z" stroke-width="1"></path><path stroke="#000000" stroke-linecap="round" stroke-linejoin="round" stroke-miterlimit="10" d="M21.55 0.850006V3.05" stroke-width="1"></path><path stroke="#000000" stroke-linecap="round" stroke-linejoin="round" stroke-miterlimit="10" d="M12.749 15.3125V20.55c0 1.5 -1.2 2.7 -2.7 2.7H3.44902c-1.5 0 -2.699997 -1.2 -2.699997 -2.7V5.04998c0 -1.5 1.199997 -2.7 2.699997 -2.7H10.049c0.4617 0 0.895 0.11368 1.2736 0.31482" stroke-width="1"></path><path stroke="#000000" stroke-linecap="round" stroke-linejoin="round" stroke-miterlimit="10" d="M0.749023 18.75H12.749" stroke-width="1"></path></svg>