<svg xmlns="http://www.w3.org/2000/svg" fill="none" viewBox="0 0 24 24" id="Trader-Account-Increase--Streamline-Ultimate"><desc>Trader Account Increase Streamline Icon: https://streamlinehq.com</desc><path stroke="#000000" stroke-linecap="round" stroke-linejoin="round" stroke-miterlimit="10" d="m2.59624 11.8669 7.39964 -7.05411 3.02842 2.74227L20.1627 0.750031" stroke-width="1"></path><path stroke="#000000" stroke-linecap="round" stroke-linejoin="round" stroke-miterlimit="10" d="M15.4127 0.75h4.75v4.24473" stroke-width="1"></path><path stroke="#000000" stroke-linecap="round" stroke-linejoin="round" stroke-miterlimit="10" d="M8.3 12.05c1.3 1.3 3 2.2 5 2.2 1 0 2 -0.2 2.8 -0.6" stroke-width="1"></path><path stroke="#000000" stroke-linecap="round" stroke-linejoin="round" stroke-miterlimit="10" d="M12 18.25c2.3196 0 4.2 -1.8804 4.2 -4.2 0 -2.3196 -1.8804 -4.19999 -4.2 -4.19999 -2.31959 0 -4.2 1.88039 -4.2 4.19999 0 2.3196 1.88041 4.2 4.2 4.2Z" stroke-width="1"></path><path stroke="#000000" stroke-linecap="round" stroke-linejoin="round" stroke-miterlimit="10" d="M12 19.25v4" stroke-width="1"></path><path stroke="#000000" stroke-linecap="round" stroke-linejoin="round" stroke-miterlimit="10" d="M18.9 23.25c-1.4 -2.4 -4 -4 -6.9 -4 -2.89999 0 -5.5 1.6 -6.9 4" stroke-width="1"></path></svg>