<svg xmlns="http://www.w3.org/2000/svg" fill="none" viewBox="0 0 24 24" id="Trading-Monitor--Streamline-Ultimate"><desc>Trading Monitor Streamline Icon: https://streamlinehq.com</desc><path stroke="#000000" stroke-linecap="round" stroke-linejoin="round" stroke-miterlimit="10" d="M15.55 23.25H8.55002l1 -4.5H14.55l1 4.5Z" stroke-width="1"></path><path stroke="#000000" stroke-linecap="round" stroke-linejoin="round" stroke-miterlimit="10" d="M6.05002 23.25H18.05" stroke-width="1"></path><path stroke="#000000" stroke-linecap="round" stroke-linejoin="round" stroke-miterlimit="10" d="M23.25 15.75c0 1.7 -1.3 3 -3 3H3.75c-1.7 0 -3 -1.3 -3 -3v-12c0 -1.7 1.3 -3 3 -3h16.5c1.7 0 3 1.3 3 3v12Z" stroke-width="1"></path><path stroke="#000000" stroke-linecap="round" stroke-linejoin="round" stroke-miterlimit="10" d="M12.05 0.75v18" stroke-width="1"></path><path stroke="#000000" stroke-linecap="round" stroke-linejoin="round" stroke-miterlimit="10" d="M0.75 9.45001h22.5" stroke-width="1"></path><path stroke="#000000" stroke-linecap="round" stroke-linejoin="round" stroke-miterlimit="10" d="m3.75 6.15001 1.80002 -1.7 1.5 1.5 2 -2" stroke-width="1"></path><path stroke="#000000" stroke-linecap="round" stroke-linejoin="round" stroke-miterlimit="10" d="m14.75 3.75 1.8 2.2 2 -1.8 1.7 2" stroke-width="1"></path><path stroke="#000000" stroke-linecap="round" stroke-linejoin="round" stroke-miterlimit="10" d="M4.05002 15.45 5.25 13.15h2.5l1.30002 -1" stroke-width="1"></path><path stroke="#000000" stroke-linecap="round" stroke-linejoin="round" stroke-miterlimit="10" d="m14.75 14.75 1.8 -1.8 2 2 2 -2" stroke-width="1"></path></svg>