<svg xmlns="http://www.w3.org/2000/svg" fill="none" viewBox="0 0 24 24" id="Trading-Sell--Streamline-Ultimate"><desc>Trading Sell Streamline Icon: https://streamlinehq.com</desc><path stroke="#000000" stroke-linecap="round" stroke-linejoin="round" stroke-miterlimit="10" d="M23.25 21.25c0 1.1 -0.9 2 -2 2H2.75c-1.1 0 -2 -0.9 -2 -2v-7.5c0 -1.1 0.9 -2 2 -2h18.5c1.1 0 2 0.9 2 2v7.5Z" stroke-width="1"></path><path stroke="#000000" stroke-linecap="round" stroke-linejoin="round" stroke-miterlimit="10" d="m21.25 0.75 -7.7 6.2 -3.99998 -4 -6.80002 5" stroke-width="1"></path><path stroke="#000000" stroke-linecap="round" stroke-linejoin="round" stroke-miterlimit="10" d="M16.55 0.75h4.7v4.2" stroke-width="1"></path><path stroke="#000000" stroke-linecap="round" stroke-linejoin="round" d="M5.93563 15.9987c-0.15457 -0.4373 -0.6357 -0.7506 -1.12594 -0.7506 -0.59839 0 -1.12593 0.4851 -1.12593 1.0835 0 0.4661 0.31722 0.8724 0.7694 0.9854l0.63613 0.1591c0.4974 0.1243 0.84634 0.5712 0.84634 1.0839v0.0659c0 0.6219 -0.5041 1.126 -1.12594 1.126 -0.49024 0 -0.97137 -0.3133 -1.12593 -0.7507" stroke-width="1"></path><path stroke="#000000" stroke-linecap="round" stroke-linejoin="round" d="m10.9375 15.2481 -2.25187 0v4.5038h2.25187" stroke-width="1"></path><path stroke="#000000" stroke-linecap="round" stroke-linejoin="round" d="M8.68563 17.3123h1.87657" stroke-width="1"></path><path stroke="#000000" stroke-linecap="round" stroke-linejoin="round" d="M18.1894 15.2481v4.5038h2.2518" stroke-width="1"></path><path stroke="#000000" stroke-linecap="round" stroke-linejoin="round" d="M13.4375 15.2481v4.5038h2.2519" stroke-width="1"></path></svg>