<svg xmlns="http://www.w3.org/2000/svg" fill="none" viewBox="0 0 24 24" id="Trading-Buy--Streamline-Ultimate"><desc>Trading Buy Streamline Icon: https://streamlinehq.com</desc><path stroke="#000000" stroke-linecap="round" stroke-linejoin="round" stroke-miterlimit="10" d="M23.25 21.25c0 1.1 -0.9 2 -2 2H2.75c-1.1 0 -2 -0.9 -2 -2v-7.5c0 -1.1 0.9 -2 2 -2h18.5c1.1 0 2 0.9 2 2v7.5Z" stroke-width="1"></path><path stroke="#000000" stroke-linecap="round" stroke-linejoin="round" stroke-miterlimit="10" d="m21.25 7.95 -7.7 -6.2 -3.99998 4L2.75 0.750004" stroke-width="1"></path><path stroke="#000000" stroke-linecap="round" stroke-linejoin="round" stroke-miterlimit="10" d="M16.55 7.95h4.7v-4.2" stroke-width="1"></path><path stroke="#000000" stroke-linecap="round" stroke-linejoin="round" d="M5.375 15.25v2.0625h1.21875c0.56955 0 1.03125 -0.4617 1.03125 -1.0313 0 -0.5695 -0.4617 -1.0312 -1.03125 -1.0312H5.375Z" stroke-width="1"></path><path stroke="#000000" stroke-linecap="round" stroke-linejoin="round" d="M5.375 17.3125V19.75h1.40625C7.45435 19.75 8 19.2043 8 18.5312c0 -0.6731 -0.54565 -1.2187 -1.21875 -1.2187H5.375Z" stroke-width="1"></path><path stroke="#000000" stroke-linecap="round" stroke-linejoin="round" d="m16.25 15.25 1.5 2.25 1.5 -2.25" stroke-width="1"></path><path stroke="#000000" stroke-linecap="round" d="M17.75 17.5v2.25" stroke-width="1"></path><path stroke="#000000" stroke-linecap="round" stroke-linejoin="round" d="m11 15.25 0 3.375c0 0.6213 0.5037 1.125 1.125 1.125v0c0.6213 0 1.125 -0.5037 1.125 -1.125V15.25" stroke-width="1"></path></svg>