<svg xmlns="http://www.w3.org/2000/svg" fill="none" viewBox="0 0 24 24" id="Trading-Pattern--Streamline-Ultimate"><desc>Trading Pattern Streamline Icon: https://streamlinehq.com</desc><path stroke="#000000" stroke-linecap="round" stroke-linejoin="round" stroke-miterlimit="10" d="m13.375 16.5312 -1.4292 -1.2113c1 -1.1 1.2 -2.7 0.5 -4 -0.7 -1.3 -2.1 -1.99998 -3.60003 -1.79998l-1.8 0.3c-0.37919 0.0948 -0.66851 0.18958 -0.95316 0.45478" stroke-width="1"></path><path stroke="#000000" stroke-linecap="round" stroke-linejoin="round" stroke-miterlimit="10" d="m8.73624 12.8575 -4.29045 4.8624" stroke-width="1"></path><path stroke="#000000" stroke-linecap="round" stroke-linejoin="round" stroke-miterlimit="10" d="m16.5458 18.8199 2 3.3c0.5 1 1.8 1.3 2.7 0.7 0.9 -0.6 1.3 -1.8 0.7 -2.7l-1.7349 -2.9715" stroke-width="1"></path><path stroke="#000000" stroke-linecap="round" stroke-linejoin="round" stroke-miterlimit="10" d="M4.64578 15.9199c-1.7 0 -3 -1.3 -3 -3s1.3 -2.99999 3 -2.99999 3 1.29999 3 2.99999 -1.3 3 -3 3Z" stroke-width="1"></path><path stroke="#000000" stroke-linecap="round" stroke-linejoin="round" stroke-miterlimit="10" d="m12.2457 18.1199 2.699 -3.8c0.2999 -0.5 0.7997 -0.8 1.3995 -0.8l4.6982 -0.5c1.0996 -0.1 2.0992 0.7 2.1992 1.8 0.0999 1.1 -0.6998 2.1 -1.7993 2.2l-3.8986 0.4 -3.4987 4.8c-0.3998 0.5 -0.8996 0.7 -1.3995 0.8l-0.1999 0c-0.4998 0 -0.8996 -0.2 -1.2995 -0.5l-2.99887 -2.7 -1.39948 1.8c-0.69974 0.7 -1.59939 1.1 -2.59902 1.1 -0.39985 0 -0.79969 0 -1.19954 -0.2 -1.29952 -0.5 -2.19919 -1.9 -2.19919 -3.3v-2.6c0 -0.8907 0.58746 -1.6835 1.47169 -1.8936" stroke-width="1"></path><path stroke="#000000" stroke-linecap="round" stroke-linejoin="round" stroke-miterlimit="10" d="m19.8077 1.31234 -6.8218 4.40117 -2.5307 -2.97079 -5.17133 3.85103" stroke-width="1"></path><path stroke="#000000" stroke-linecap="round" stroke-linejoin="round" stroke-miterlimit="10" d="m16.2868 0.872231 3.5209 0.440109 -0.7702 3.63097" stroke-width="1"></path></svg>