<svg xmlns="http://www.w3.org/2000/svg" fill="none" viewBox="0 0 24 24" id="Trading-Investor--Streamline-Ultimate"><desc>Trading Investor Streamline Icon: https://streamlinehq.com</desc><path stroke="#000000" stroke-linecap="round" stroke-linejoin="round" stroke-miterlimit="10" d="M3.95 12.05c1.3 1.3 3 2.2 5 2.2 1 0 2 -0.2 2.8 -0.6" stroke-width="1"></path><path stroke="#000000" stroke-linecap="round" stroke-linejoin="round" stroke-miterlimit="10" d="M7.65 18.25c2.31959 0 4.2 -1.8804 4.2 -4.2 0 -2.3196 -1.88041 -4.19999 -4.2 -4.19999 -2.3196 0 -4.2 1.88039 -4.2 4.19999 0 2.3196 1.8804 4.2 4.2 4.2Z" stroke-width="1"></path><path stroke="#000000" stroke-linecap="round" stroke-linejoin="round" stroke-miterlimit="10" d="M7.65 19.25v4" stroke-width="1"></path><path stroke="#000000" stroke-linecap="round" stroke-linejoin="round" stroke-miterlimit="10" d="M14.55 23.25c-1.4 -2.4 -4 -4 -6.9 -4 -2.9 0 -5.5 1.6 -6.900005 4" stroke-width="1"></path><path stroke="#000000" stroke-linecap="round" stroke-linejoin="round" stroke-miterlimit="10" d="M18.65 17.2319c1.6569 0 3 -1.3431 3 -3s-1.3431 -3 -3 -3 -3 1.3431 -3 3 1.3431 3 3 3Z" stroke-width="1"></path><path stroke="#000000" stroke-linecap="round" stroke-linejoin="round" stroke-miterlimit="10" d="M21.65 14.2319c-0.4 0.1 -0.9 0.1 -1.3 0.1 -1.6 0 -3.1 -0.6 -4.3 -1.6" stroke-width="1"></path><path stroke="#000000" stroke-linecap="round" stroke-linejoin="round" stroke-miterlimit="10" d="M23.25 21.5319c-0.7 -1.9 -2.5 -3.2 -4.7 -3.2 -1.4 0 -2.6 0.6 -3.5 1.5" stroke-width="1"></path><path stroke="#000000" stroke-linecap="round" stroke-linejoin="round" stroke-miterlimit="10" d="M16 3.58336c0 -1 -0.8 -1.8 -1.8 -1.8s-1.8 0.8 -1.8 1.8 0.8 1.8 1.8 1.8 1.8 0.73335 1.8 1.73335 -0.8 1.8 -1.8 1.8 -1.8 -0.8 -1.8 -1.8" stroke-width="1"></path><path stroke="#000000" stroke-linecap="round" stroke-linejoin="round" stroke-miterlimit="10" d="M14.2 0.75v1" stroke-width="1"></path><path stroke="#000000" stroke-linecap="round" stroke-linejoin="round" stroke-miterlimit="10" d="M14.2 8.95004v1" stroke-width="1"></path></svg>