<svg viewBox="0 0 24 24" xmlns="http://www.w3.org/2000/svg" id="Hourglass-1--Streamline-Ultimate"><desc>Hourglass 1 Streamline Icon: https://streamlinehq.com</desc><path d="M6.038 5.478C6.594 8.687 8.548 10.885 12 12c3.452 -1.115 5.406 -3.313 5.962 -6.522a1.5 1.5 0 0 0 -1.491 -1.728H7.529a1.5 1.5 0 0 0 -1.491 1.728Z" fill="none" stroke="#000000" stroke-linecap="round" stroke-linejoin="round" stroke-width="1"></path><path d="m3.75 0.75 16.5 0" fill="none" stroke="#000000" stroke-linecap="round" stroke-linejoin="round" stroke-width="1"></path><path d="M7.529 20.25a1.5 1.5 0 0 1 -1.491 -1.727C6.594 15.314 8.548 13.116 12 12c3.452 1.116 5.406 3.314 5.962 6.523a1.5 1.5 0 0 1 -1.491 1.727Z" fill="none" stroke="#000000" stroke-linecap="round" stroke-linejoin="round" stroke-width="1"></path><path d="m3.75 23.25 16.5 0" fill="none" stroke="#000000" stroke-linecap="round" stroke-linejoin="round" stroke-width="1"></path></svg>