<svg xmlns="http://www.w3.org/2000/svg" viewBox="0 0 24 24" id="Time-Study-Time-2--Streamline-Ultimate"><desc>Time Study Time 2 Streamline Icon: https://streamlinehq.com</desc><defs></defs><title>time-study-time-2</title><path d="m12 23.25 0 -2.368" fill="none" stroke="#000000" stroke-linecap="round" stroke-linejoin="round" stroke-width="1"></path><path d="m12 0.75 0 2.368" fill="none" stroke="#000000" stroke-linecap="round" stroke-linejoin="round" stroke-width="1"></path><path d="m23.25 12 -2.368 0" fill="none" stroke="#000000" stroke-linecap="round" stroke-linejoin="round" stroke-width="1"></path><path d="m0.75 12 2.368 0" fill="none" stroke="#000000" stroke-linecap="round" stroke-linejoin="round" stroke-width="1"></path><path d="M19.954 4.046 18.28 5.72" fill="none" stroke="#000000" stroke-linecap="round" stroke-linejoin="round" stroke-width="1"></path><path d="m4.044 19.956 1.676 -1.675" fill="none" stroke="#000000" stroke-linecap="round" stroke-linejoin="round" stroke-width="1"></path><path d="M4.044 4.046 5.72 5.72" fill="none" stroke="#000000" stroke-linecap="round" stroke-linejoin="round" stroke-width="1"></path><path d="m19.954 19.956 -1.674 -1.675" fill="none" stroke="#000000" stroke-linecap="round" stroke-linejoin="round" stroke-width="1"></path><path d="M0.75 12a11.25 11.25 0 1 0 22.5 0 11.25 11.25 0 1 0 -22.5 0" fill="none" stroke="#000000" stroke-linecap="round" stroke-linejoin="round" stroke-width="1"></path><path d="M12 11c0 -1.822 2.162 -2.874 4.979 -2.99a0.5 0.5 0 0 1 0.521 0.479v6.271a0.5 0.5 0 0 1 -0.48 0.5A7.32 7.32 0 0 0 12 17.245a7.326 7.326 0 0 0 -5.02 -1.991 0.5 0.5 0 0 1 -0.48 -0.5V8.5A0.5 0.5 0 0 1 7 8h0.021C9.838 8.125 12 9.177 12 11Z" fill="none" stroke="#000000" stroke-linecap="round" stroke-linejoin="round" stroke-width="1"></path><path d="m12 10.999 0 6.25" fill="none" stroke="#000000" stroke-linecap="round" stroke-linejoin="round" stroke-width="1"></path></svg>