<svg xmlns="http://www.w3.org/2000/svg" viewBox="0 0 24 24" id="Time-Exercise-Time-1--Streamline-Ultimate"><desc>Time Exercise Time 1 Streamline Icon: https://streamlinehq.com</desc><defs></defs><title>time-exercise-time-1</title><path d="M17.143 23.083a0.541 0.541 0 0 1 -0.765 0.016l-0.017 -0.016 -5.151 -5.371a3.278 3.278 0 0 1 -0.614 -3.784h0a3.28 3.28 0 0 1 5.25 -0.852l0.9 0.9 0.905 -0.9a3.277 3.277 0 0 1 5.249 0.852h0a3.281 3.281 0 0 1 -0.614 3.784Z" fill="none" stroke="#000000" stroke-linecap="round" stroke-linejoin="round" stroke-width="1"></path><path d="m10.827 17.25 2.909 0 1.25 -1.75 2.25 3.75 2 -2 3.437 0" fill="none" stroke="#000000" stroke-linecap="round" stroke-linejoin="round" stroke-width="1"></path><path d="M9.223 19.7A9.5 9.5 0 1 1 19.67 9.008" fill="none" stroke="#000000" stroke-linecap="round" stroke-linejoin="round" stroke-width="1"></path><path d="m6.946 8.598 3.303 1.652 0.001 -5.7" fill="none" stroke="#000000" stroke-linecap="round" stroke-linejoin="round" stroke-width="1"></path></svg>