<svg xmlns="http://www.w3.org/2000/svg" fill="none" viewBox="0 0 24 24" id="Time-Stopwatch-Half-1--Streamline-Ultimate"><desc>Time Stopwatch Half 1 Streamline Icon: https://streamlinehq.com</desc><path stroke="#000000" stroke-linecap="round" stroke-linejoin="round" d="M7.272 7.522 5.375 5.625" stroke-width="1"></path><path stroke="#000000" stroke-linecap="round" stroke-linejoin="round" d="M5.75 5.25 5 6" stroke-width="1"></path><path stroke="#000000" stroke-linecap="round" stroke-linejoin="round" d="M13.25 5.25V0.75" stroke-width="1"></path><path stroke="#000000" stroke-linecap="round" stroke-linejoin="round" d="M11 0.75h4.5" stroke-width="1"></path><path stroke="#000000" stroke-linecap="round" stroke-linejoin="round" d="M13.25 23.25c-2.3869 0 -4.67613 -0.9482 -6.36396 -2.636C5.19821 18.9261 4.25 16.6369 4.25 14.25s0.94821 -4.67613 2.63604 -6.36396S10.8631 5.25 13.25 5.25v18Z" clip-rule="evenodd" stroke-width="1"></path><path stroke="#000000" d="M9.27222 10.65c-0.20711 0 -0.375 -0.1679 -0.375 -0.375s0.16789 -0.37498 0.375 -0.37498" stroke-width="1"></path><path stroke="#000000" d="M9.27222 10.65c0.2071 0 0.375 -0.1679 0.375 -0.375s-0.1679 -0.37498 -0.375 -0.37498" stroke-width="1"></path><path stroke="#000000" d="M7.625 14.625c-0.20711 0 -0.375 -0.1679 -0.375 -0.375s0.16789 -0.375 0.375 -0.375" stroke-width="1"></path><path stroke="#000000" d="M7.625 14.625c0.20711 0 0.375 -0.1679 0.375 -0.375s-0.16789 -0.375 -0.375 -0.375" stroke-width="1"></path><path stroke="#000000" d="M9.27222 18.603c-0.20711 0 -0.375 -0.1679 -0.375 -0.375s0.16789 -0.375 0.375 -0.375" stroke-width="1"></path><path stroke="#000000" d="M9.27222 18.603c0.2071 0 0.375 -0.1679 0.375 -0.375s-0.1679 -0.375 -0.375 -0.375" stroke-width="1"></path><g><path stroke="#000000" d="M17.7583 10.119c-0.2071 0 -0.375 -0.16787 -0.375 -0.37498s0.1679 -0.375 0.375 -0.375" stroke-width="1"></path><path stroke="#000000" d="M17.7583 10.119c0.2071 0 0.375 -0.16787 0.375 -0.37498s-0.1679 -0.375 -0.375 -0.375" stroke-width="1"></path></g><g><path stroke="#000000" d="M17.7583 19.1331c-0.2071 0 -0.375 -0.1679 -0.375 -0.375 0 -0.2072 0.1679 -0.375 0.375 -0.375" stroke-width="1"></path><path stroke="#000000" d="M17.7583 19.1331c0.2071 0 0.375 -0.1679 0.375 -0.375 0 -0.2072 -0.1679 -0.375 -0.375 -0.375" stroke-width="1"></path></g><g><path stroke="#000000" d="M19.625 14.625c-0.2071 0 -0.375 -0.1679 -0.375 -0.375s0.1679 -0.375 0.375 -0.375" stroke-width="1"></path><path stroke="#000000" d="M19.625 14.625c0.2071 0 0.375 -0.1679 0.375 -0.375s-0.1679 -0.375 -0.375 -0.375" stroke-width="1"></path></g></svg>