<svg viewBox="0 0 24 24" xmlns="http://www.w3.org/2000/svg" id="Add-Circle-Bold--Streamline-Ultimate"><desc>Add Circle Bold Streamline Icon: https://streamlinehq.com</desc><path d="M0.75 12a11.25 11.25 0 1 0 22.5 0 11.25 11.25 0 1 0 -22.5 0Z" fill="none" stroke="#000000" stroke-linecap="round" stroke-linejoin="round" stroke-width="1"></path><path d="M17.25 9.75h-3v-3a1.5 1.5 0 0 0 -1.5 -1.5h-1.5a1.5 1.5 0 0 0 -1.5 1.5v3h-3a1.5 1.5 0 0 0 -1.5 1.5v1.5a1.5 1.5 0 0 0 1.5 1.5h3v3a1.5 1.5 0 0 0 1.5 1.5h1.5a1.5 1.5 0 0 0 1.5 -1.5v-3h3a1.5 1.5 0 0 0 1.5 -1.5v-1.5a1.5 1.5 0 0 0 -1.5 -1.5Z" fill="none" stroke="#000000" stroke-linecap="round" stroke-linejoin="round" stroke-width="1"></path></svg>