<svg viewBox="0 0 24 24" xmlns="http://www.w3.org/2000/svg" id="Bread-Baguette--Streamline-Ultimate"><desc>Bread Baguette Streamline Icon: https://streamlinehq.com</desc><path d="M22.988 19.363a0.75 0.75 0 0 0 -0.488 -1.319h-21a0.75 0.75 0 0 0 -0.488 1.319l3.5 3a0.748 0.748 0 0 0 0.488 0.181h14a0.748 0.748 0 0 0 0.488 -0.181Z" fill="none" stroke="#000000" stroke-linecap="round" stroke-linejoin="round" stroke-width="1"></path><path d="M18.75 12.044h-4.5a4.5 4.5 0 0 0 -4.5 4.5h0a1.5 1.5 0 0 0 1.5 1.5h10.5a1.5 1.5 0 0 0 1.5 -1.5h0a4.5 4.5 0 0 0 -4.5 -4.5Z" fill="none" stroke="#000000" stroke-linecap="round" stroke-linejoin="round" stroke-width="1"></path><path d="m14.25 12.044 0 3" fill="none" stroke="#000000" stroke-linecap="round" stroke-linejoin="round" stroke-width="1"></path><path d="m18.75 12.044 0 3" fill="none" stroke="#000000" stroke-linecap="round" stroke-linejoin="round" stroke-width="1"></path><path d="m4.207 12.175 1.209 1.082a2.127 2.127 0 0 0 3 -0.166 0.873 0.873 0 0 0 -0.068 -1.232L6.208 9.94Z" fill="none" stroke="#000000" stroke-linecap="round" stroke-linejoin="round" stroke-width="1"></path><path d="m9.209 6.587 1.209 1.083a2.128 2.128 0 0 0 3 -0.166 0.873 0.873 0 0 0 -0.068 -1.233l-2.139 -1.919Z" fill="none" stroke="#000000" stroke-linecap="round" stroke-linejoin="round" stroke-width="1"></path><path d="M3 18.044a3.75 3.75 0 0 1 0.207 -4.751l9.504 -10.617a3.751 3.751 0 0 1 5.3 -0.293h0a3.75 3.75 0 0 1 0.292 5.3l-3.908 4.365" fill="none" stroke="#000000" stroke-linecap="round" stroke-linejoin="round" stroke-width="1"></path></svg>