<svg xmlns="http://www.w3.org/2000/svg" viewBox="0 0 24 24" id="Bread-Loaf--Streamline-Ultimate"><desc>Bread Loaf Streamline Icon: https://streamlinehq.com</desc><g><path d="M17.25 6A5.25 5.25 0 0 0 12 0.74H6a5.24 5.24 0 0 0 -2.27 10L2.45 21.56a1.5 1.5 0 0 0 1.49 1.68h11.81L14.27 10.7A5.23 5.23 0 0 0 17.25 6Z" fill="none" stroke="#000000" stroke-linecap="round" stroke-linejoin="round" stroke-width="1"></path><path d="M15.75 23.24h4.31a1.5 1.5 0 0 0 1.49 -1.68L20.27 10.7A5.24 5.24 0 0 0 18 0.74h-6" fill="none" stroke="#000000" stroke-linecap="round" stroke-linejoin="round" stroke-width="1"></path><path d="m20.27 10.69 -5.99 0" fill="none" stroke="#000000" stroke-linecap="round" stroke-linejoin="round" stroke-width="1"></path></g></svg>