<svg viewBox="0 0 24 24" xmlns="http://www.w3.org/2000/svg" id="Bread-Slice-Spread--Streamline-Ultimate"><desc>Bread Slice Spread Streamline Icon: https://streamlinehq.com</desc><path d="M18.362 9.995a5.194 5.194 0 0 0 1.888 -4.009A5.25 5.25 0 0 0 15 0.736H6A5.236 5.236 0 0 0 4.3 10.93L2.541 21.489a1.5 1.5 0 0 0 1.48 1.747h12.958a1.5 1.5 0 0 0 1.48 -1.747l-0.174 -1.041" fill="none" stroke="#000000" stroke-linecap="round" stroke-linejoin="round" stroke-width="1"></path><path d="M16.444 12.5c-1.744 1.106 -4.322 0.165 -5.759 -2.1s-1.19 -5 0.554 -6.1" fill="none" stroke="#000000" stroke-linecap="round" stroke-linejoin="round" stroke-width="1"></path><path d="M11.239 4.295 23.25 23.236" fill="none" stroke="#000000" stroke-linecap="round" stroke-linejoin="round" stroke-width="1"></path><path d="M7.679 12.156A2.615 2.615 0 0 0 9.791 15.7a2.621 2.621 0 1 0 5.209 0.411" fill="none" stroke="#000000" stroke-linecap="round" stroke-linejoin="round" stroke-width="1"></path></svg>