<svg xmlns="http://www.w3.org/2000/svg" fill="none" viewBox="0 0 24 24" id="Air-Purifier-4--Streamline-Ultimate"><desc>Air Purifier 4 Streamline Icon: https://streamlinehq.com</desc><path stroke="#000000" stroke-linecap="round" stroke-linejoin="round" d="M13.84 21c0 0.5304 -0.2107 1.0391 -0.5858 1.4142S12.3704 23 11.84 23h-8c-0.53044 0 -1.03914 -0.2107 -1.41422 -0.5858C2.05071 22.0391 1.84 21.5304 1.84 21V3c0 -0.53044 0.21071 -1.03914 0.58578 -1.41422 0.37508 -0.37507 0.88378 -0.585783 1.41422 -0.585783h8.52c0.4406 -0.002361 0.8685 0.147683 1.2111 0.424703 0.3426 0.27701 0.5789 0.66397 0.6689 1.0953" stroke-width="1"></path><path stroke="#000000" stroke-linecap="round" stroke-linejoin="round" d="M10.84 19.17h-9" stroke-width="1"></path><path stroke="#000000" stroke-linecap="round" stroke-linejoin="round" d="m22.16 6.92 -0.66 -0.54c-0.6944 -0.55949 -1.5675 -0.84937 -2.4586 -0.8163 -0.8912 0.03308 -1.7404 0.38688 -2.3914 0.9963 -0.6868 0.64038 -1.591 0.99648 -2.53 0.99648 -0.9391 0 -1.8432 -0.3561 -2.53 -0.99648" stroke-width="1"></path><path stroke="#000000" stroke-linecap="round" stroke-linejoin="round" d="m22.16 10.36 -0.66 -0.53999c-0.6944 -0.5595 -1.5675 -0.84938 -2.4586 -0.8163 -0.8912 0.03307 -1.7404 0.38687 -2.3914 0.99629 -0.6868 0.6404 -1.591 0.9965 -2.53 0.9965 -0.9391 0 -1.8432 -0.3561 -2.53 -0.9965" stroke-width="1"></path><path stroke="#000000" stroke-linecap="round" stroke-linejoin="round" d="m21.8 13.81 -0.65 -0.54c-0.6957 -0.5596 -1.5694 -0.8503 -2.4616 -0.8191 -0.8923 0.0312 -1.7435 0.3823 -2.3984 0.9891 -0.6868 0.6404 -1.591 0.9965 -2.53 0.9965 -0.9391 0 -1.8432 -0.3561 -2.53 -0.9965" stroke-width="1"></path><path stroke="#000000" d="M8.03999 12.6986c-0.13807 0 -0.25 -0.1119 -0.25 -0.25 0 -0.138 0.11193 -0.25 0.25 -0.25" stroke-width="1"></path><path stroke="#000000" d="M8.03999 12.6986c0.13807 0 0.25 -0.1119 0.25 -0.25 0 -0.138 -0.11193 -0.25 -0.25 -0.25" stroke-width="1"></path><path stroke="#000000" d="M5.62 10c-0.13808 0 -0.25 -0.11193 -0.25 -0.25s0.11192 -0.25 0.25 -0.25" stroke-width="1"></path><path stroke="#000000" d="M5.62 10c0.13807 0 0.25 -0.11193 0.25 -0.25s-0.11193 -0.25 -0.25 -0.25" stroke-width="1"></path><path stroke="#000000" d="M8.03999 6.06c-0.13807 0 -0.25 -0.11193 -0.25 -0.25s0.11193 -0.25 0.25 -0.25" stroke-width="1"></path><path stroke="#000000" d="M8.03999 6.06c0.13807 0 0.25 -0.11193 0.25 -0.25s-0.11193 -0.25 -0.25 -0.25" stroke-width="1"></path></svg>