<svg xmlns="http://www.w3.org/2000/svg" fill="none" viewBox="0 0 24 24" id="Air-Pollution-Mask-3--Streamline-Ultimate"><desc>Air Pollution Mask 3 Streamline Icon: https://streamlinehq.com</desc><path stroke="#000000" stroke-linecap="round" stroke-linejoin="round" d="M7.286 16.891c-1.54115 -0.9956 -2.71876 -2.4632 -3.35688 -4.1835 -0.63811 -1.7202 -0.70247 -3.60077 -0.18345 -5.36061 0.51902 -1.75985 1.59355 -3.30452 3.06303 -4.40319 1.46948 -1.09867 3.255 -1.69236 5.0898 -1.69236 1.8348 0 3.6203 0.59369 5.0898 1.69236 1.4695 1.09867 2.544 2.64334 3.063 4.40319 0.519 1.75984 0.4547 3.64041 -0.1834 5.36061 -0.6381 1.7203 -1.8158 3.1879 -3.3569 4.1835" stroke-width="1"></path><path stroke="#000000" stroke-linecap="round" stroke-linejoin="round" d="M16.4 17.25c-1.4088 0.6585 -2.9449 0.9998 -4.5 0.9998s-3.09122 -0.3413 -4.5 -0.9998c-0.66598 -1.9446 -0.66598 -4.0554 0 -6 2.9629 0.667 6.0371 0.667 9 0 0.667 1.9444 0.667 4.0556 0 6Z" stroke-width="1"></path><path stroke="#000000" stroke-linecap="round" stroke-linejoin="round" d="M6.867 11.285 3.513 8.35001" stroke-width="1"></path><path stroke="#000000" stroke-linecap="round" stroke-linejoin="round" d="m16.929 12.285 3.355 -2.93499" stroke-width="1"></path><path stroke="#000000" stroke-linecap="round" stroke-linejoin="round" d="M7.677 7.75c0.13916 0.15722 0.31011 0.2831 0.50154 0.36931 0.19144 0.08622 0.39901 0.1308 0.60896 0.1308 0.20996 0 0.41752 -0.04458 0.60896 -0.1308 0.19144 -0.08621 0.36239 -0.21209 0.50154 -0.36931" stroke-width="1"></path><path stroke="#000000" stroke-linecap="round" stroke-linejoin="round" d="M16.12 7.75c-0.1392 0.15724 -0.3103 0.28314 -0.5018 0.36936 -0.1915 0.08622 -0.3992 0.1308 -0.6092 0.1308 -0.21 0 -0.4177 -0.04458 -0.6092 -0.1308 -0.1915 -0.08622 -0.3625 -0.21212 -0.5018 -0.36936" stroke-width="1"></path><path stroke="#000000" d="M1.60999 3.06299c-0.27615 0 -0.5 -0.22386 -0.5 -0.5s0.22385 -0.5 0.5 -0.5" stroke-width="1"></path><path stroke="#000000" d="M1.60999 3.06299c0.27614 0 0.5 -0.22386 0.5 -0.5s-0.22386 -0.5 -0.5 -0.5" stroke-width="1"></path><path stroke="#000000" d="M1.39801 15.75c-0.27614 0 -0.5 -0.2239 -0.5 -0.5s0.22386 -0.5 0.5 -0.5" stroke-width="1"></path><path stroke="#000000" d="M1.39801 15.75c0.27614 0 0.5 -0.2239 0.5 -0.5s-0.22386 -0.5 -0.5 -0.5" stroke-width="1"></path><path stroke="#000000" d="M1.35999 22.75c-0.27615 0 -0.500005 -0.2239 -0.500005 -0.5s0.223855 -0.5 0.500005 -0.5" stroke-width="1"></path><path stroke="#000000" d="M1.35999 22.75c0.27614 0 0.5 -0.2239 0.5 -0.5s-0.22386 -0.5 -0.5 -0.5" stroke-width="1"></path><path stroke="#000000" d="M5.39801 20.25c-0.27614 0 -0.5 -0.2239 -0.5 -0.5s0.22386 -0.5 0.5 -0.5" stroke-width="1"></path><path stroke="#000000" d="M5.39801 20.25c0.27614 0 0.5 -0.2239 0.5 -0.5s-0.22386 -0.5 -0.5 -0.5" stroke-width="1"></path><path stroke="#000000" d="M12 22.75c-0.2761 0 -0.5 -0.2239 -0.5 -0.5s0.2239 -0.5 0.5 -0.5" stroke-width="1"></path><path stroke="#000000" d="M12 22.75c0.2761 0 0.5 -0.2239 0.5 -0.5s-0.2239 -0.5 -0.5 -0.5" stroke-width="1"></path><path stroke="#000000" d="M18.398 20.25c-0.2761 0 -0.5 -0.2239 -0.5 -0.5s0.2239 -0.5 0.5 -0.5" stroke-width="1"></path><path stroke="#000000" d="M18.398 20.25c0.2762 0 0.5 -0.2239 0.5 -0.5s-0.2238 -0.5 -0.5 -0.5" stroke-width="1"></path><path stroke="#000000" d="M22.398 22.75c-0.2761 0 -0.5 -0.2239 -0.5 -0.5s0.2239 -0.5 0.5 -0.5" stroke-width="1"></path><path stroke="#000000" d="M22.398 22.75c0.2762 0 0.5 -0.2239 0.5 -0.5s-0.2238 -0.5 -0.5 -0.5" stroke-width="1"></path><path stroke="#000000" d="M22.625 15.2499c-0.2761 0 -0.5 -0.2239 -0.5 -0.5 0 -0.2762 0.2239 -0.5 0.5 -0.5" stroke-width="1"></path><path stroke="#000000" d="M22.625 15.2499c0.2761 0 0.5 -0.2239 0.5 -0.5 0 -0.2762 -0.2239 -0.5 -0.5 -0.5" stroke-width="1"></path><path stroke="#000000" d="M21.398 2.56299c-0.2761 0 -0.5 -0.22386 -0.5 -0.5s0.2239 -0.5 0.5 -0.5" stroke-width="1"></path><path stroke="#000000" d="M21.398 2.56299c0.2762 0 0.5 -0.22386 0.5 -0.5s-0.2238 -0.5 -0.5 -0.5" stroke-width="1"></path></svg>