<svg xmlns="http://www.w3.org/2000/svg" fill="none" viewBox="0 0 24 24" id="Air-Purifier-1--Streamline-Ultimate"><desc>Air Purifier 1 Streamline Icon: https://streamlinehq.com</desc><path stroke="#000000" d="M1.97 21.18c-0.13807 0 -0.25 -0.1119 -0.25 -0.25s0.11193 -0.25 0.25 -0.25" stroke-width="1"></path><path stroke="#000000" d="M1.97 21.18c0.13807 0 0.25 -0.1119 0.25 -0.25s-0.11193 -0.25 -0.25 -0.25" stroke-width="1"></path><path stroke="#000000" d="M5.01999 16.49c-0.13807 0 -0.25 -0.1119 -0.25 -0.25s0.11193 -0.25 0.25 -0.25" stroke-width="1"></path><path stroke="#000000" d="M5.01999 16.49c0.13807 0 0.25 -0.1119 0.25 -0.25s-0.11193 -0.25 -0.25 -0.25" stroke-width="1"></path><path stroke="#000000" d="M2.22 11.14c-0.13807 0 -0.25 -0.1119 -0.25 -0.25s0.11193 -0.25 0.25 -0.25" stroke-width="1"></path><path stroke="#000000" d="M2.22 11.14c0.13807 0 0.25 -0.1119 0.25 -0.25s-0.11193 -0.25 -0.25 -0.25" stroke-width="1"></path><path stroke="#000000" d="M5.26999 6.91c-0.13807 0 -0.25 -0.11193 -0.25 -0.25s0.11193 -0.25 0.25 -0.25" stroke-width="1"></path><path stroke="#000000" d="M5.26999 6.91c0.13807 0 0.25 -0.11193 0.25 -0.25s-0.11193 -0.25 -0.25 -0.25" stroke-width="1"></path><path stroke="#000000" d="M1.72 2.29999c-0.13807 0 -0.25 -0.11193 -0.25 -0.25s0.11193 -0.25 0.25 -0.25" stroke-width="1"></path><path stroke="#000000" d="M1.72 2.29999c0.13807 0 0.25 -0.11193 0.25 -0.25s-0.11193 -0.25 -0.25 -0.25" stroke-width="1"></path><path stroke="#000000" stroke-linecap="round" stroke-linejoin="round" d="M8.38 1.06v21.88" stroke-width="1"></path><path stroke="#000000" stroke-linecap="round" stroke-linejoin="round" d="M11.78 5.08001c0.7069 -0.70653 1.6655 -1.10342 2.665 -1.10342s1.9581 0.39689 2.665 1.10342c0.3487 0.35223 0.7638 0.63185 1.2212 0.82268 0.4574 0.19083 0.9482 0.28908 1.4438 0.28908 0.4956 0 0.9864 -0.09825 1.4438 -0.28908 0.4574 -0.19083 0.8725 -0.47045 1.2212 -0.82268" stroke-width="1"></path><path stroke="#000000" stroke-linecap="round" stroke-linejoin="round" d="M11.78 18.63c0.7069 -0.7065 1.6655 -1.1034 2.665 -1.1034s1.9581 0.3969 2.665 1.1034c0.7069 0.7065 1.6655 1.1034 2.665 1.1034s1.9581 -0.3969 2.665 -1.1034" stroke-width="1"></path><path stroke="#000000" stroke-linecap="round" stroke-linejoin="round" d="M14.79 11.44c0.2537 -0.2549 0.5552 -0.4571 0.8873 -0.5951 0.332 -0.1381 0.6881 -0.2091 1.0477 -0.2091 0.3596 0 0.7157 0.071 1.0477 0.2091 0.3321 0.138 0.6336 0.3402 0.8873 0.5951 0.2537 0.2549 0.5552 0.4572 0.8873 0.5952 0.332 0.138 0.6881 0.209 1.0477 0.209 0.3596 0 0.7157 -0.071 1.0477 -0.209 0.3321 -0.138 0.6336 -0.3403 0.8873 -0.5952" stroke-width="1"></path></svg>