<svg xmlns="http://www.w3.org/2000/svg" fill="none" viewBox="0 0 24 24" id="Air-Pollution-2--Streamline-Ultimate"><desc>Air Pollution 2 Streamline Icon: https://streamlinehq.com</desc><path stroke="#000000" stroke-linecap="round" stroke-linejoin="round" d="M14.5 8.5c-0.5673 0.00201 -1.1167 0.19902 -1.556 0.558 0.0319 -0.18444 0.0506 -0.37091 0.056 -0.558 -0.001 -0.99128 -0.37 -1.94687 -1.0355 -2.68152 -0.6655 -0.73465 -1.5801 -1.19602 -2.56646 -1.29465 -0.98636 -0.09864 -1.9742 0.17249 -2.77201 0.7608 -0.79781 0.58832 -1.34875 1.45192 -1.54601 2.42337 -0.41139 -0.16171 -0.85343 -0.23051 -1.2945 -0.20148 -0.44108 0.02903 -0.87029 0.15518 -1.25693 0.36941 -0.38665 0.21423 -0.72117 0.51125 -0.97966 0.86983 -0.25848 0.35857 -0.43453 0.76983 -0.51555 1.20437 -0.08103 0.43457 -0.06503 0.88157 0.04685 1.30927 0.11189 0.4276 0.31688 0.8252 0.60034 1.1644 0.28345 0.3392 0.63836 0.6116 1.03933 0.7976 0.40097 0.186 0.8381 0.2812 1.28012 0.2786H10.5" stroke-width="1"></path><path stroke="#000000" stroke-linecap="round" stroke-linejoin="round" d="M19.5 10h1c0.6631 0 1.299 -0.26339 1.7678 -0.73223 0.4688 -0.46884 0.7322 -1.10472 0.7322 -1.76776 0 -0.66304 -0.2634 -1.29893 -0.7322 -1.76777 -0.4688 -0.46884 -1.1047 -0.73223 -1.7678 -0.73223 -0.5673 0.00201 -1.1167 0.19903 -1.556 0.558 0.0319 -0.18444 0.0506 -0.37091 0.056 -0.558 -0.0004 -0.82837 -0.2579 -1.63618 -0.7371 -2.3119 -0.4791 -0.67571 -1.1563 -1.186 -1.9379 -1.4604 -0.7816 -0.274399 -1.6291 -0.299371 -2.4255 -0.07147 -0.7964 0.2279 -1.5024 0.69744 -2.0205 1.34377" stroke-width="1"></path><path stroke="#000000" stroke-linecap="round" stroke-linejoin="round" d="m14.341 11.816 -4.94099 8.146c-0.18395 0.303 -0.28409 0.6494 -0.29016 1.0037 -0.00607 0.3544 0.08214 0.7041 0.25561 1.0131 0.17346 0.3091 0.42595 0.5666 0.73164 0.746 0.3056 0.1794 0.6535 0.2744 1.0079 0.2752H21c0.3548 -0.0001 0.7031 -0.0946 1.0094 -0.2737 0.3062 -0.1791 0.5592 -0.4365 0.7332 -0.7457 0.1739 -0.3092 0.2625 -0.6591 0.2566 -1.0139 -0.0059 -0.3547 -0.1061 -0.7014 -0.2902 -1.0047l-4.945 -8.146c-0.1781 -0.2946 -0.4292 -0.5382 -0.729 -0.7073 -0.2999 -0.1691 -0.6383 -0.2579 -0.9825 -0.2579 -0.3442 0 -0.6826 0.0888 -0.9824 0.2579 -0.2999 0.1691 -0.551 0.4127 -0.7291 0.7073v0Z" stroke-width="1"></path><path stroke="#000000" stroke-linecap="round" stroke-linejoin="round" d="M16.051 14.5v3.142" stroke-width="1"></path><path stroke="#000000" d="M16.0545 20.62c-0.2071 0 -0.375 -0.1679 -0.375 -0.375s0.1679 -0.375 0.375 -0.375" stroke-width="1"></path><path stroke="#000000" d="M16.0545 20.62c0.2071 0 0.375 -0.1679 0.375 -0.375s-0.1679 -0.375 -0.375 -0.375" stroke-width="1"></path></svg>