<svg xmlns="http://www.w3.org/2000/svg" viewBox="0 0 24 24" id="Air-Pollution-Co2-No--Streamline-Ultimate"><desc>Air Pollution Co2 No Streamline Icon: https://streamlinehq.com</desc><defs></defs><title>air-polution-co2-no</title><path d="M8.754 7.928a2.537 2.537 0 0 0 -2.536 2.536v1.268a2.536 2.536 0 0 0 2.536 2.536" fill="none" stroke="#000000" stroke-linecap="round" stroke-linejoin="round" stroke-width="1"></path><path d="M12.6 7.928a1.487 1.487 0 0 0 -1.486 1.486v3.368a1.486 1.486 0 0 0 2.972 0V9.414A1.486 1.486 0 0 0 12.6 7.928Z" fill="none" stroke="#000000" stroke-linecap="round" stroke-linejoin="round" stroke-width="1"></path><path d="M16.536 14.053a1.125 1.125 0 0 1 1.125 -1.125h0a1.125 1.125 0 0 1 1.125 1.125h0a1.6 1.6 0 0 1 -0.352 1l-1.9 2.373h2.25" fill="none" stroke="#000000" stroke-linecap="round" stroke-linejoin="round" stroke-width="1"></path><path d="M1 12a11 11 0 1 0 22 0 11 11 0 1 0 -22 0" fill="none" stroke="#000000" stroke-linecap="round" stroke-linejoin="round" stroke-width="1"></path><path d="m6.75 17.25 -2.528 2.528" fill="none" stroke="#000000" stroke-linecap="round" stroke-linejoin="round" stroke-width="1"></path><path d="m19.5 4.5 -2.25 2.25" fill="none" stroke="#000000" stroke-linecap="round" stroke-linejoin="round" stroke-width="1"></path></svg>