<svg xmlns="http://www.w3.org/2000/svg" viewBox="0 0 24 24" id="Air-Purifier-5--Streamline-Ultimate"><desc>Air Purifier 5 Streamline Icon: https://streamlinehq.com</desc><defs></defs><title>air-purifier-5</title><path d="M15.317 20.882a12.326 12.326 0 0 0 7.383 -1.547 0.834 0.834 0 0 0 0.287 -1.143 0.95 0.95 0 0 0 -0.089 -0.122c-0.844 -0.963 -1.429 -2.194 -1.684 -5.95 -0.641 -9.5 -8.5 -9.606 -10.458 -9.359h2.5c-1.931 -0.244 -9.816 -0.143 -10.458 9.359 -0.255 3.756 -0.84 4.987 -1.684 5.95a0.95 0.95 0 0 0 -0.089 0.122 0.834 0.834 0 0 0 0.287 1.143 12.326 12.326 0 0 0 7.378 1.547" fill="none" stroke="#000000" stroke-linecap="round" stroke-linejoin="round" stroke-width="1"></path><path d="m11.985 7.99 0.015 0.015 0.015 -0.015Z" fill="none" stroke="#000000" stroke-linecap="round" stroke-linejoin="round" stroke-width="1"></path><path d="M17.816 12.865V11.2A9.584 9.584 0 0 1 12 8.005 9.582 9.582 0 0 1 6.184 11.2v1.667" fill="none" stroke="#000000" stroke-linecap="round" stroke-linejoin="round" stroke-width="1"></path><path d="M18.288 15.021a6.277 6.277 0 0 1 -12.554 0 6.743 6.743 0 0 0 5.666 -1.437 0.96 0.96 0 0 1 1.3 0 6.233 6.233 0 0 0 5.588 1.437Z" fill="none" stroke="#000000" stroke-linecap="round" stroke-linejoin="round" stroke-width="1"></path><path d="m12.025 15.782 0 3.388" fill="none" stroke="#000000" stroke-linecap="round" stroke-linejoin="round" stroke-width="1"></path></svg>