<svg xmlns="http://www.w3.org/2000/svg" fill="none" viewBox="0 0 24 24" id="Air-Purifier-3--Streamline-Ultimate"><desc>Air Purifier 3 Streamline Icon: https://streamlinehq.com</desc><path stroke="#000000" stroke-linecap="round" stroke-linejoin="round" d="M12.25 13.007c0.9566 0 1.732 -0.7754 1.732 -1.732s-0.7754 -1.732 -1.732 -1.732 -1.732 0.7754 -1.732 1.732 0.7754 1.732 1.732 1.732Z" stroke-width="1"></path><path stroke="#000000" stroke-linecap="round" stroke-linejoin="round" d="M8.649 16.553h0.5" stroke-width="1"></path><path stroke="#000000" stroke-linecap="round" stroke-linejoin="round" d="M12 16.553h0.5" stroke-width="1"></path><path stroke="#000000" stroke-linecap="round" stroke-linejoin="round" d="M15.351 16.553h0.5" stroke-width="1"></path><path stroke="#000000" stroke-linecap="round" stroke-linejoin="round" d="M8.649 19.593h0.5" stroke-width="1"></path><path stroke="#000000" stroke-linecap="round" stroke-linejoin="round" d="M12 19.593h0.5" stroke-width="1"></path><path stroke="#000000" stroke-linecap="round" stroke-linejoin="round" d="M15.351 19.593h0.5" stroke-width="1"></path><path stroke="#000000" stroke-linecap="round" stroke-linejoin="round" d="M5.5 6.75H19v15c0 0.2652 -0.1054 0.5196 -0.2929 0.7071s-0.4419 0.2929 -0.7071 0.2929H6.5c-0.26522 0 -0.51957 -0.1054 -0.70711 -0.2929C5.60536 22.2696 5.5 22.0152 5.5 21.75v-15Z" stroke-width="1"></path><path stroke="#000000" stroke-linecap="round" stroke-linejoin="round" d="m18 1.25 1 5.5H5.5l1 -5.5" stroke-width="1"></path><path stroke="#000000" stroke-linecap="round" stroke-linejoin="round" d="M10.318 4.245c-0.95501 -0.268 -1.58601 -0.73 -1.58601 -1.254 0 -0.828 1.57501 -1.5 3.51801 -1.5 1.943 0 3.518 0.672 3.518 1.5 0 0.513 -0.6 0.965 -1.522 1.235" stroke-width="1"></path><path stroke="#000000" d="M2.75 10.25c-0.13807 0 -0.25 -0.1119 -0.25 -0.25 0 -0.13807 0.11193 -0.25 0.25 -0.25" stroke-width="1"></path><path stroke="#000000" d="M2.75 10.25c0.13807 0 0.25 -0.1119 0.25 -0.25 0 -0.13807 -0.11193 -0.25 -0.25 -0.25" stroke-width="1"></path><path stroke="#000000" d="M1.25 15.89c-0.13807 0 -0.25 -0.1119 -0.25 -0.25s0.11193 -0.25 0.25 -0.25" stroke-width="1"></path><path stroke="#000000" d="M1.25 15.89c0.13807 0 0.25 -0.1119 0.25 -0.25s-0.11193 -0.25 -0.25 -0.25" stroke-width="1"></path><path stroke="#000000" d="M2.5 20.245c-0.13807 0 -0.25 -0.1119 -0.25 -0.25s0.11193 -0.25 0.25 -0.25" stroke-width="1"></path><path stroke="#000000" d="M2.5 20.245c0.13807 0 0.25 -0.1119 0.25 -0.25s-0.11193 -0.25 -0.25 -0.25" stroke-width="1"></path><path stroke="#000000" d="M22.75 20.495c-0.1381 0 -0.25 -0.1119 -0.25 -0.25s0.1119 -0.25 0.25 -0.25" stroke-width="1"></path><path stroke="#000000" d="M22.75 20.495c0.1381 0 0.25 -0.1119 0.25 -0.25s-0.1119 -0.25 -0.25 -0.25" stroke-width="1"></path><path stroke="#000000" d="M22.25 15.64c-0.1381 0 -0.25 -0.1119 -0.25 -0.25s0.1119 -0.25 0.25 -0.25" stroke-width="1"></path><path stroke="#000000" d="M22.25 15.64c0.1381 0 0.25 -0.1119 0.25 -0.25s-0.1119 -0.25 -0.25 -0.25" stroke-width="1"></path><path stroke="#000000" d="M22.5 10c-0.1381 0 -0.25 -0.11193 -0.25 -0.25s0.1119 -0.25 0.25 -0.25" stroke-width="1"></path><path stroke="#000000" d="M22.5 10c0.1381 0 0.25 -0.11193 0.25 -0.25s-0.1119 -0.25 -0.25 -0.25" stroke-width="1"></path></svg>