<svg xmlns="http://www.w3.org/2000/svg" fill="none" viewBox="0 0 24 24" id="Air-Pollution-Pm-1--Streamline-Ultimate"><desc>Air Pollution Pm 1 Streamline Icon: https://streamlinehq.com</desc><path stroke="#000000" stroke-linecap="round" stroke-linejoin="round" d="M14.085 12.87c0.2367 0.4586 0.58 0.8537 1.0009 1.1523 0.4209 0.2985 0.9073 0.4918 1.4184 0.5636 0.5111 0.0718 1.0319 0.02 1.5188 -0.151 0.4869 -0.171 0.9257 -0.4563 1.2796 -0.8319 0.3539 -0.3756 0.6126 -0.8306 0.7544 -1.3268 0.1418 -0.4963 0.1626 -1.0192 0.0605 -1.5251 -0.102 -0.5059 -0.3239 -0.97996 -0.6469 -1.38242 -0.323 -0.40247 -0.7379 -0.72161 -1.2097 -0.93067 -0.5414 -0.23911 -1.0276 -0.58741 -1.4282 -1.02309 -0.4006 -0.43569 -0.7069 -0.94937 -0.8998 -1.50891 -0.4842 -1.47026 -0.8149 -2.98666 -0.987 -4.525" stroke-width="1"></path><path stroke="#000000" stroke-linecap="round" stroke-linejoin="round" d="M9.27401 1.41199c-0.17339 1.52576 -0.50313 3.02966 -0.984 4.488 -0.19231 0.56017 -0.49827 1.07458 -0.8987 1.51097 -0.40043 0.4364 -0.88669 0.78536 -1.4283 1.02503 -0.47212 0.20894 -0.88726 0.52805 -1.21059 0.93056 -0.32333 0.40251 -0.54543 0.87665 -0.64767 1.38275 -0.10224 0.5061 -0.08164 1.0293 0.06007 1.5257 0.14171 0.4965 0.4004 0.9517 0.75437 1.3276 0.35398 0.3758 0.79291 0.6613 1.28 0.8325 0.48708 0.1712 1.00812 0.2231 1.51939 0.1513 0.51128 -0.0718 0.9979 -0.2651 1.41905 -0.5637 0.42114 -0.2987 0.76454 -0.694 1.00137 -1.1527" stroke-width="1"></path><path stroke="#000000" stroke-linecap="round" stroke-linejoin="round" d="M16.416 11.93c-2.152 0 -2.152 1.614 -4.3 1.614 -2.14799 0 -2.15599 -1.614 -4.30899 -1.614" stroke-width="1"></path><path stroke="#000000" stroke-linecap="round" stroke-linejoin="round" d="M0.963013 22.619v-5.5" stroke-width="1"></path><path stroke="#000000" stroke-linecap="round" stroke-linejoin="round" d="M0.963013 17.119h0.599997c0.47739 0 0.93523 0.1896 1.27279 0.5272 0.33757 0.3376 0.52721 0.7954 0.52721 1.2728 0 0.4774 -0.18964 0.9352 -0.52721 1.2728 -0.33756 0.3375 -0.7954 0.5272 -1.27279 0.5272H0.963013" stroke-width="1"></path><path stroke="#000000" stroke-linecap="round" stroke-linejoin="round" d="M8.96301 22.619v-5.5l-1.8 3 -1.8 -3v5.5" stroke-width="1"></path><path stroke="#000000" stroke-linecap="round" stroke-linejoin="round" d="M12.112 18.6c0 -0.1737 0.0342 -0.3458 0.1007 -0.5063 0.0665 -0.1605 0.1639 -0.3063 0.2868 -0.4292 0.1228 -0.1228 0.2687 -0.2203 0.4292 -0.2868 0.1605 -0.0665 0.3326 -0.1007 0.5063 -0.1007 0.1738 -0.0001 0.346 0.034 0.5066 0.1004 0.1606 0.0665 0.3066 0.1639 0.4295 0.2868 0.123 0.1228 0.2205 0.2687 0.2871 0.4293 0.0665 0.1606 0.1008 0.3327 0.1008 0.5065v0c0 0.4286 -0.146 0.8445 -0.414 1.179l-2.233 2.792h2.647" stroke-width="1"></path><path stroke="#000000" stroke-linecap="round" stroke-linejoin="round" d="M23.037 17.281H20.39v1.985c0 0.1756 0.0698 0.344 0.1939 0.4681 0.1242 0.1242 0.2925 0.1939 0.4681 0.1939h0.662c0.3447 0.0095 0.6721 0.1531 0.9126 0.4002 0.2405 0.2472 0.375 0.5785 0.375 0.9233 0 0.3449 -0.1345 0.6761 -0.375 0.9233 -0.2405 0.2471 -0.5679 0.3907 -0.9126 0.4002H20.39" stroke-width="1"></path><path stroke="#000000" d="M17.5082 22.494c-0.2071 0 -0.375 -0.1679 -0.375 -0.375s0.1679 -0.375 0.375 -0.375" stroke-width="1"></path><path stroke="#000000" d="M17.5082 22.494c0.2071 0 0.375 -0.1679 0.375 -0.375s-0.1679 -0.375 -0.375 -0.375" stroke-width="1"></path></svg>