<svg xmlns="http://www.w3.org/2000/svg" fill="none" viewBox="0 0 24 24" id="Air-Pollution-3--Streamline-Ultimate"><desc>Air Pollution 3 Streamline Icon: https://streamlinehq.com</desc><path stroke="#000000" stroke-linecap="round" stroke-linejoin="round" d="M7.53798 14.242h-2.057c-1.17701 -0.0049 -2.31292 -0.4334 -3.2 -1.207 -0.35056 -0.3555 -0.62437 -0.7792 -0.80447 -1.2448 -0.1801 -0.4657 -0.26265 -0.9634 -0.24253 -1.4622 0.02017 -1.04747 0.45048 -2.04521 1.19845 -2.77879 0.74797 -0.73357 1.75389 -1.14441 2.80155 -1.14422h0.042c0.30669 -1.53359 1.13325 -2.91436 2.34008 -3.90912C8.82288 1.50111 10.336 0.953313 11.9 0.944994h0.115c1.197 -0.00448 2.3743 0.303956 3.4154 0.894726 1.041 0.59077 1.9096 1.44337 2.5196 2.47327 1.2817 0.0578 2.4933 0.60189 3.388 1.52151 0.8947 0.91962 1.4054 2.14564 1.428 3.42849v0.049" stroke-width="1"></path><path stroke="#000000" stroke-linecap="round" stroke-linejoin="round" d="M17.048 20.911v2.144" stroke-width="1"></path><path stroke="#000000" stroke-linecap="round" stroke-linejoin="round" d="M13.475 23.055v-2.681c-0.9252 -0.7402 -1.5977 -1.7495 -1.9244 -2.8884 -0.3267 -1.1389 -0.2915 -2.3512 0.1007 -3.4693s1.122 -2.0867 2.0886 -2.772c0.9666 -0.6852 2.1222 -1.0533 3.3071 -1.0533 1.1848 0 2.3404 0.3681 3.307 1.0533 0.9666 0.6853 1.6965 1.6539 2.0886 2.772 0.3922 1.1181 0.4274 2.3304 0.1007 3.4693s-0.9991 2.1482 -1.9243 2.8884v2.684" stroke-width="1"></path><path stroke="#000000" d="M14.9041 15.693c-0.2762 0 -0.5 -0.2239 -0.5 -0.5s0.2238 -0.5 0.5 -0.5" stroke-width="1"></path><path stroke="#000000" d="M14.9041 15.693c0.2761 0 0.5 -0.2239 0.5 -0.5s-0.2239 -0.5 -0.5 -0.5" stroke-width="1"></path><path stroke="#000000" d="M19.193 15.693c-0.2761 0 -0.5 -0.2239 -0.5 -0.5s0.2239 -0.5 0.5 -0.5" stroke-width="1"></path><path stroke="#000000" d="M19.193 15.693c0.2761 0 0.5 -0.2239 0.5 -0.5s-0.2239 -0.5 -0.5 -0.5" stroke-width="1"></path></svg>