<svg xmlns="http://www.w3.org/2000/svg" viewBox="0 0 24 24" id="Air-Pollution-Co2--Streamline-Ultimate"><desc>Air Pollution Co2 Streamline Icon: https://streamlinehq.com</desc><defs></defs><title>air-polution-co2</title><path d="M11.938 3.615A4.41 4.41 0 0 1 15.684 1.5h0.075a4.465 4.465 0 0 1 3.86 2.189 3.28 3.28 0 0 1 3.131 3.219v0.032a3.343 3.343 0 0 1 -1.185 2.435" fill="none" stroke="#000000" stroke-linecap="round" stroke-linejoin="round" stroke-width="1"></path><path d="M2.124 16.084a3.039 3.039 0 0 1 -0.874 -2.258 3.294 3.294 0 0 1 0.08 -0.661 3.359 3.359 0 0 1 3.256 -2.611h0.034A5.668 5.668 0 0 1 10.145 6h0.1a5.73 5.73 0 0 1 4.948 2.81 4.208 4.208 0 0 1 4.017 4.128v0.041a4.309 4.309 0 0 1 -0.7 2.194" fill="none" stroke="#000000" stroke-linecap="round" stroke-linejoin="round" stroke-width="1"></path><path d="M8.1 13a2.535 2.535 0 0 0 -2.536 2.536V16.8A2.536 2.536 0 0 0 8.1 19.34" fill="none" stroke="#000000" stroke-linecap="round" stroke-linejoin="round" stroke-width="1"></path><path d="M12.411 13a1.607 1.607 0 0 0 -1.611 1.606v3.127a1.607 1.607 0 1 0 3.213 0v-3.127A1.606 1.606 0 0 0 12.411 13Z" fill="none" stroke="#000000" stroke-linecap="round" stroke-linejoin="round" stroke-width="1"></path><path d="M17.344 19.125A1.125 1.125 0 0 1 18.469 18h0a1.125 1.125 0 0 1 1.125 1.125h0a1.608 1.608 0 0 1 -0.351 1l-1.9 2.373h2.25" fill="none" stroke="#000000" stroke-linecap="round" stroke-linejoin="round" stroke-width="1"></path></svg>