<svg xmlns="http://www.w3.org/2000/svg" viewBox="0 0 24 24" id="Air-Pollution-Co2-Up--Streamline-Ultimate"><desc>Air Pollution Co2 Up Streamline Icon: https://streamlinehq.com</desc><defs></defs><title>air-polution-co2-up</title><path d="M1.613 15.457a3.115 3.115 0 0 1 -0.843 -2.264 3.467 3.467 0 0 1 0.077 -0.663 3.269 3.269 0 0 1 3.139 -2.618h0.033a5.522 5.522 0 0 1 5.325 -4.567h0.093a5.484 5.484 0 0 1 4.774 2.817 3.955 3.955 0 0 1 2.633 1.178 4.279 4.279 0 0 1 1.239 2.96v0.041a4.442 4.442 0 0 1 -0.671 2.2" fill="none" stroke="#000000" stroke-linecap="round" stroke-linejoin="round" stroke-width="1"></path><path d="M7.353 12.365a2.5 2.5 0 0 0 -2.445 2.543v1.271a2.5 2.5 0 0 0 2.445 2.543" fill="none" stroke="#000000" stroke-linecap="round" stroke-linejoin="round" stroke-width="1"></path><path d="M11.46 12.365A1.607 1.607 0 0 0 9.885 14v3.079a1.577 1.577 0 1 0 3.151 0V14a1.608 1.608 0 0 0 -1.576 -1.635Z" fill="none" stroke="#000000" stroke-linecap="round" stroke-linejoin="round" stroke-width="1"></path><path d="M15.4 18.507a1.107 1.107 0 0 1 1.085 -1.128h0a1.106 1.106 0 0 1 1.084 1.128h0a1.643 1.643 0 0 1 -0.339 1l-1.83 2.38h2.169" fill="none" stroke="#000000" stroke-linecap="round" stroke-linejoin="round" stroke-width="1"></path><path d="m23.23 3.712 -2.141 -2.567 -2.141 2.567" fill="none" stroke="#000000" stroke-linecap="round" stroke-linejoin="round" stroke-width="1"></path><path d="m21.096 1.145 0 21.71" fill="none" stroke="#000000" stroke-linecap="round" stroke-linejoin="round" stroke-width="1"></path></svg>