<svg xmlns="http://www.w3.org/2000/svg" viewBox="0 0 24 24" id="Bin-Smell--Streamline-Ultimate"><desc>Bin Smell Streamline Icon: https://streamlinehq.com</desc><g><g><path d="M19.77 18.24c0 3.68 -3.76 4.52 -7.84 4.52S5 21.92 5 18.24 7.24 9.3 12.38 9.3s7.39 5.27 7.39 8.94Z" fill="none" stroke="#000000" stroke-linecap="round" stroke-linejoin="round" stroke-width="1"></path><path d="M11.17 9.4 10 5.21h5.2l-1.3 4.26" fill="none" stroke="#000000" stroke-linecap="round" stroke-linejoin="round" stroke-width="1"></path><path d="m7.96 7.56 3.21 1.84 -0.47 3.23" fill="none" stroke="#000000" stroke-linecap="round" stroke-linejoin="round" stroke-width="1"></path></g><path d="M2.29 6.3a1.71 1.71 0 0 0 0.09 2.31 1.7 1.7 0 0 1 0 2.41l-0.09 0.1" fill="none" stroke="#000000" stroke-linecap="round" stroke-linejoin="round" stroke-width="1"></path><path d="M5.94 1.24A1.26 1.26 0 0 0 6 2.94a1.26 1.26 0 0 1 0 1.78l-0.07 0.08" fill="none" stroke="#000000" stroke-linecap="round" stroke-linejoin="round" stroke-width="1"></path><path d="M18.68 1.24a1.25 1.25 0 0 0 0.07 1.7 1.26 1.26 0 0 1 0 1.78l-0.07 0.08" fill="none" stroke="#000000" stroke-linecap="round" stroke-linejoin="round" stroke-width="1"></path><path d="M21.52 7a1.7 1.7 0 0 0 0.1 2.31 1.71 1.71 0 0 1 0 2.41l-0.1 0.11" fill="none" stroke="#000000" stroke-linecap="round" stroke-linejoin="round" stroke-width="1"></path></g></svg>