<svg xmlns="http://www.w3.org/2000/svg" fill="none" viewBox="0 0 24 24" id="Garbage-Pollution-Water--Streamline-Ultimate"><desc>Garbage Pollution Water Streamline Icon: https://streamlinehq.com</desc><path stroke="#000000" d="M16.749 18.126c-0.2761 0 -0.5 -0.2239 -0.5 -0.5 0 -0.2762 0.2239 -0.5 0.5 -0.5" stroke-width="1"></path><path stroke="#000000" d="M16.749 18.126c0.2761 0 0.5 -0.2239 0.5 -0.5 0 -0.2762 -0.2239 -0.5 -0.5 -0.5" stroke-width="1"></path><path stroke="#000000" d="M1.49899 18.251c-0.2071 0 -0.375 -0.1679 -0.375 -0.375s0.1679 -0.375 0.375 -0.375" stroke-width="1"></path><path stroke="#000000" d="M1.49899 18.251c0.20711 0 0.375 -0.1679 0.375 -0.375s-0.16789 -0.375 -0.375 -0.375" stroke-width="1"></path><path stroke="#000000" stroke-linecap="round" stroke-linejoin="round" d="M1 7.17999c9.5 -4 14 5.00001 22 0.5" stroke-width="1"></path><path stroke="#000000" stroke-linecap="round" stroke-linejoin="round" d="M23 13.68c-9.5 -4.00001 -14 5 -22 0.5" stroke-width="1"></path><path stroke="#000000" stroke-linecap="round" stroke-linejoin="round" d="M0.75 21.456c9.5 -4 14.5 5 22.5 0.5" stroke-width="1"></path><path stroke="#000000" stroke-linecap="round" stroke-linejoin="round" d="m3.84499 15.284 -1.096 -3.658 4.25 -2.50002L12.232 13.835" stroke-width="1"></path><path stroke="#000000" stroke-linecap="round" stroke-linejoin="round" d="m12.232 7.5 2.252 -2.922c0.248 -0.32182 0.5717 -0.57744 0.9422 -0.74421 0.3705 -0.16676 0.7764 -0.23951 1.1818 -0.21179l0.9 0.062L19.771 0.75l2.444 1.884 -2.261 2.933 0.29 0.856c0.1307 0.38523 0.1642 0.79682 0.0974 1.1981 -0.0669 0.40129 -0.2319 0.77983 -0.4804 1.1019l-0.1 0.139" stroke-width="1"></path></svg>