<svg xmlns="http://www.w3.org/2000/svg" fill="none" viewBox="0 0 24 24" id="Garbage-Pollution-Soil--Streamline-Ultimate"><desc>Garbage Pollution Soil Streamline Icon: https://streamlinehq.com</desc><path stroke="#000000" stroke-linecap="round" stroke-linejoin="round" d="M19.25 15c0.4142 0 0.75 -0.3358 0.75 -0.75s-0.3358 -0.75 -0.75 -0.75 -0.75 0.3358 -0.75 0.75 0.3358 0.75 0.75 0.75Z" stroke-width="1"></path><path stroke="#000000" d="M11.625 13.75c-0.2071 0 -0.375 -0.1679 -0.375 -0.375s0.1679 -0.375 0.375 -0.375" stroke-width="1"></path><path stroke="#000000" d="M11.625 13.75c0.2071 0 0.375 -0.1679 0.375 -0.375S11.8321 13 11.625 13" stroke-width="1"></path><path stroke="#000000" d="M14.625 19.125c-0.2071 0 -0.375 -0.1679 -0.375 -0.375s0.1679 -0.375 0.375 -0.375" stroke-width="1"></path><path stroke="#000000" d="M14.625 19.125c0.2071 0 0.375 -0.1679 0.375 -0.375s-0.1679 -0.375 -0.375 -0.375" stroke-width="1"></path><path stroke="#000000" d="M21.25 22.25c-0.2761 0 -0.5 -0.2239 -0.5 -0.5s0.2239 -0.5 0.5 -0.5" stroke-width="1"></path><path stroke="#000000" d="M21.25 22.25c0.2761 0 0.5 -0.2239 0.5 -0.5s-0.2239 -0.5 -0.5 -0.5" stroke-width="1"></path><path stroke="#000000" stroke-linecap="round" stroke-linejoin="round" d="m12.565 8.365 2.919 -3.788c0.248 -0.32182 0.5717 -0.57744 0.9422 -0.74421 0.3705 -0.16676 0.7764 -0.23951 1.1818 -0.21179l0.9 0.062L20.771 0.75l2.444 1.884 -2.261 2.933 0.29 0.856c0.1307 0.38523 0.1642 0.79682 0.0974 1.1981 -0.0668 0.40129 -0.2319 0.77983 -0.4804 1.1019l-0.386 0.513" stroke-width="1"></path><path stroke="#000000" stroke-linecap="round" stroke-linejoin="round" d="M23.25 8.917c-0.4398 0.40004 -1.013 0.62172 -1.6075 0.62172s-1.1677 -0.22168 -1.6075 -0.62172c-0.4399 -0.39955 -1.0128 -0.62092 -1.607 -0.62092 -0.5942 0 -1.1672 0.22137 -1.607 0.62092v0c-0.4398 0.40004 -1.013 0.62172 -1.6075 0.62172s-1.1677 -0.22168 -1.6075 -0.62172c-0.4399 -0.39955 -1.0128 -0.62092 -1.607 -0.62092 -0.5942 0 -1.1671 0.22137 -1.607 0.62092v0c-0.43981 0.40004 -1.01297 0.62172 -1.6075 0.62172S7.61681 9.31704 7.177 8.917c-0.43985 -0.39955 -1.01277 -0.62092 -1.607 -0.62092s-1.16715 0.22137 -1.607 0.62092v0c-0.43937 0.40011 -1.01224 0.62187 -1.6065 0.62187S1.18937 9.31711 0.75 8.917" stroke-width="1"></path><path stroke="#000000" stroke-linecap="round" stroke-linejoin="round" d="M0.75 17.055c0.6 2.257 1.833 2.373 3.178 5.71 0.04226 0.1039 0.10646 0.1975 0.18821 0.2743 0.08176 0.0768 0.17914 0.1351 0.28549 0.1708 0.10635 0.0357 0.21915 0.048 0.3307 0.0361 0.11154 -0.012 0.2192 -0.0478 0.3156 -0.1052l4.933 -2.9c-0.026 -2.713 -2.473 -4.232 -3.144 -6.738L0.75 17.055Z" stroke-width="1"></path></svg>