<svg xmlns="http://www.w3.org/2000/svg" viewBox="0 0 24 24" id="Noise-Pollution-Traffic--Streamline-Ultimate"><desc>Noise Pollution Traffic Streamline Icon: https://streamlinehq.com</desc><defs></defs><path d="m12.858 18.777 -1.241 -1.034 -0.488 -1.79a1.632 1.632 0 0 0 -1.575 -1.2H5.61a1.632 1.632 0 0 0 -1.486 0.957L3.2 17.743l-1.89 1.049a1.089 1.089 0 0 0 -0.56 0.952V20.8a1.089 1.089 0 0 0 1.088 1.09h0.545a1.36 1.36 0 0 0 2.72 0h4.066a1.361 1.361 0 0 0 2.721 0h0.272a1.089 1.089 0 0 0 1.088 -1.09v-1.187a1.086 1.086 0 0 0 -0.392 -0.836Z" fill="none" stroke="#000000" stroke-linecap="round" stroke-linejoin="round" stroke-width="1"></path><path d="M15.991 21.89h3.178a1.361 1.361 0 0 0 2.721 0h0.272a1.089 1.089 0 0 0 1.088 -1.09v-1.187a1.086 1.086 0 0 0 -0.392 -0.836l-1.241 -1.034 -0.488 -1.79a1.632 1.632 0 0 0 -1.575 -1.2h-4.2a1.632 1.632 0 0 0 -1.486 0.957" fill="none" stroke="#000000" stroke-linecap="round" stroke-linejoin="round" stroke-width="1"></path><path d="m3.975 5.501 1.5 2.75 1.75 -2.25 1.5 3" fill="none" stroke="#000000" stroke-linecap="round" stroke-linejoin="round" stroke-width="1"></path><path d="m18.744 3.695 -1.743 2.628 3.198 0.413 -1.974 2.265" fill="none" stroke="#000000" stroke-linecap="round" stroke-linejoin="round" stroke-width="1"></path><path d="m11.843 0.75 -0.75 3.068 3.132 -0.674 -1.109 3.415" fill="none" stroke="#000000" stroke-linecap="round" stroke-linejoin="round" stroke-width="1"></path></svg>