<svg viewBox="0 0 24 24" xmlns="http://www.w3.org/2000/svg" id="Pollution-Co-2-Message--Streamline-Ultimate"><desc>Pollution Co 2 Message Streamline Icon: https://streamlinehq.com</desc><path d="M9 6.75a3 3 0 0 0 -3 3v1.5a3 3 0 0 0 3 3" fill="none" stroke="#000000" stroke-linecap="round" stroke-linejoin="round" stroke-width="1"></path><path d="M12.75 6.75a1.5 1.5 0 0 0 -1.5 1.5v4.5a1.5 1.5 0 0 0 3 0v-4.5a1.5 1.5 0 0 0 -1.5 -1.5Z" fill="none" stroke="#000000" stroke-linecap="round" stroke-linejoin="round" stroke-width="1"></path><path d="M16.5 12.375a1.125 1.125 0 0 1 1.125 -1.125h0a1.125 1.125 0 0 1 1.125 1.125h0a1.608 1.608 0 0 1 -0.351 1L16.5 15.75h2.25" fill="none" stroke="#000000" stroke-linecap="round" stroke-linejoin="round" stroke-width="1"></path><path d="M12.75 0.75a10.485 10.485 0 0 0 -8.917 16.025L0.75 23.25l6.475 -3.084A10.5 10.5 0 1 0 12.75 0.75Z" fill="none" stroke="#000000" stroke-linecap="round" stroke-linejoin="round" stroke-width="1"></path></svg>