<svg xmlns="http://www.w3.org/2000/svg" fill="none" viewBox="0 0 24 24" id="Pollution-Rain-Skull--Streamline-Ultimate"><desc>Pollution Rain Skull Streamline Icon: https://streamlinehq.com</desc><path stroke="#000000" stroke-linecap="round" stroke-linejoin="round" d="M9.75 19.5 6 23.25" stroke-width="1"></path><path stroke="#000000" stroke-linecap="round" stroke-linejoin="round" d="M18.75 19.5 15 23.25" stroke-width="1"></path><path stroke="#000000" stroke-linecap="round" stroke-linejoin="round" d="M14.25 19.5 12 21.75" stroke-width="1"></path><path stroke="#000000" stroke-linecap="round" stroke-linejoin="round" d="M5.25 19.5 3 21.75" stroke-width="1"></path><path stroke="#000000" stroke-linecap="round" stroke-linejoin="round" d="M23.25 4.125c0 -1.864 -2.015 -3.375 -4.5 -3.375s-4.5 1.511 -4.5 3.375c0 1.246 0.16 2.322 1.5 2.907V9.75h6V7.032c1.34 -0.585 1.5 -1.661 1.5 -2.907Z" stroke-width="1"></path><path stroke="#000000" stroke-linecap="round" stroke-linejoin="round" d="M18.75 7.5v2.25" stroke-width="1"></path><path stroke="#000000" d="M17.25 4.875c-0.2071 0 -0.375 -0.16789 -0.375 -0.375s0.1679 -0.375 0.375 -0.375" stroke-width="1"></path><path stroke="#000000" d="M17.25 4.875c0.2071 0 0.375 -0.16789 0.375 -0.375s-0.1679 -0.375 -0.375 -0.375" stroke-width="1"></path><path stroke="#000000" d="M20.25 4.875c-0.2071 0 -0.375 -0.16789 -0.375 -0.375s0.1679 -0.375 0.375 -0.375" stroke-width="1"></path><path stroke="#000000" d="M20.25 4.875c0.2071 0 0.375 -0.16789 0.375 -0.375s-0.1679 -0.375 -0.375 -0.375" stroke-width="1"></path><path stroke="#000000" stroke-linecap="round" stroke-linejoin="round" d="M10.513 4.68604c-1.10315 0.28376 -2.10272 0.87568 -2.88189 1.70655 -0.77916 0.83087 -1.30572 1.86637 -1.51812 2.98545 -0.5073 -0.2432 -1.06287 -0.36898 -1.62546 -0.36799 -0.56258 0.00098 -1.11771 0.1287 -1.62416 0.37367 -0.50644 0.24497 -0.95119 0.60089 -1.30121 1.04138 -0.35002 0.4404 -0.596304 0.954 -0.720572 1.5027 -0.124267 0.5487 -0.123319 1.1183 0.002772 1.6666 0.126092 0.5483 0.37409 1.0611 0.72557 1.5004 0.35148 0.4392 0.79741 0.7937 1.30467 1.037 0.50726 0.2433 1.06281 0.3691 1.62539 0.3682H19.5c0.4924 0 0.9801 -0.097 1.4351 -0.2854 0.4549 -0.1885 0.8683 -0.4647 1.2165 -0.8129 0.3483 -0.3482 0.6245 -0.7616 0.8129 -1.2166 0.1885 -0.455 0.2855 -0.9426 0.2855 -1.4351" stroke-width="1"></path></svg>