<svg xmlns="http://www.w3.org/2000/svg" viewBox="0 0 24 24" id="Pollution-Water--Streamline-Ultimate"><desc>Pollution Water Streamline Icon: https://streamlinehq.com</desc><g><path d="M0.75 23.25a5.51 5.51 0 0 0 4.5 -1.5 4.55 4.55 0 0 0 6.75 0 4.55 4.55 0 0 0 6.75 0 5.51 5.51 0 0 0 4.5 1.5" fill="none" stroke="#000000" stroke-linecap="round" stroke-linejoin="round" stroke-width="1"></path><path d="M4.84 10.5a7.61 7.61 0 0 1 -0.34 -2.25 7.5 7.5 0 0 1 15 0 7.61 7.61 0 0 1 -0.34 2.25" fill="none" stroke="#000000" stroke-linecap="round" stroke-linejoin="round" stroke-width="1"></path><path d="m19.5 16.34 1 1a0.74 0.74 0 0 0 1.06 0l1 -1" fill="none" stroke="#000000" stroke-linecap="round" stroke-linejoin="round" stroke-width="1"></path><path d="m0.75 14.25 1 1a0.75 0.75 0 0 0 1.06 0l1 -1" fill="none" stroke="#000000" stroke-linecap="round" stroke-linejoin="round" stroke-width="1"></path><path d="M15.75 20.25V10.5a9.75 9.75 0 0 0 -7.5 0v9.75" fill="none" stroke="#000000" stroke-linecap="round" stroke-linejoin="round" stroke-width="1"></path><path d="M8.25 10.5a4.64 4.64 0 0 1 -0.75 -2.25 4.5 4.5 0 0 1 9 0 5.05 5.05 0 0 1 -0.75 2.25" fill="none" stroke="#000000" stroke-linecap="round" stroke-linejoin="round" stroke-width="1"></path><path d="m11.25 12.75 0 1.5" fill="none" stroke="#000000" stroke-linecap="round" stroke-linejoin="round" stroke-width="1"></path><path d="m12.75 17.25 0 1.5" fill="none" stroke="#000000" stroke-linecap="round" stroke-linejoin="round" stroke-width="1"></path></g></svg>