<svg viewBox="0 0 24 24" xmlns="http://www.w3.org/2000/svg" id="Pollution-Fish--Streamline-Ultimate"><desc>Pollution Fish Streamline Icon: https://streamlinehq.com</desc><path d="M20.679 18.854c-6.227 -0.31 -10.521 0.267 -14.386 -3.6a11.253 11.253 0 0 1 -3.136 -9.847 11.253 11.253 0 0 1 9.849 3.136c4.071 4.071 3.223 8.3 3.223 14.707" fill="none" stroke="#000000" stroke-linecap="round" stroke-linejoin="round" stroke-width="1"></path><path d="m8.027 8.142 0 2.487" fill="none" stroke="#000000" stroke-linecap="round" stroke-linejoin="round" stroke-width="1"></path><path d="m9.271 9.386 -2.487 0" fill="none" stroke="#000000" stroke-linecap="round" stroke-linejoin="round" stroke-width="1"></path><path d="M0.75 2.25a5.511 5.511 0 0 0 4.5 -1.5 4.638 4.638 0 0 0 3.375 1.5A4.638 4.638 0 0 0 12 0.75a4.638 4.638 0 0 0 3.375 1.5A4.638 4.638 0 0 0 18.75 0.75a5.511 5.511 0 0 0 4.5 1.5" fill="none" stroke="#000000" stroke-linecap="round" stroke-linejoin="round" stroke-width="1"></path></svg>