<svg xmlns="http://www.w3.org/2000/svg" fill="none" viewBox="0 0 24 24" id="Pollution-Drop-Skull--Streamline-Ultimate"><desc>Pollution Drop Skull Streamline Icon: https://streamlinehq.com</desc><path stroke="#000000" stroke-linecap="round" stroke-linejoin="round" d="M16.5 13.125c0 -1.864 -2.015 -3.375 -4.5 -3.375s-4.5 1.511 -4.5 3.375c0 1.246 0.16 2.322 1.5 2.907v2.718h6v-2.718c1.34 -0.585 1.5 -1.661 1.5 -2.907Z" stroke-width="1"></path><path stroke="#000000" stroke-linecap="round" stroke-linejoin="round" d="M12 16.5v2.25" stroke-width="1"></path><path stroke="#000000" d="M10.5 13.875c-0.2071 0 -0.375 -0.1679 -0.375 -0.375s0.1679 -0.375 0.375 -0.375" stroke-width="1"></path><path stroke="#000000" d="M10.5 13.875c0.2071 0 0.375 -0.1679 0.375 -0.375s-0.1679 -0.375 -0.375 -0.375" stroke-width="1"></path><path stroke="#000000" d="M13.5 13.875c-0.2071 0 -0.375 -0.1679 -0.375 -0.375s0.1679 -0.375 0.375 -0.375" stroke-width="1"></path><path stroke="#000000" d="M13.5 13.875c0.2071 0 0.375 -0.1679 0.375 -0.375s-0.1679 -0.375 -0.375 -0.375" stroke-width="1"></path><path stroke="#000000" stroke-linecap="round" stroke-linejoin="round" d="M21 14.25c0 2.3869 -0.9482 4.6761 -2.636 6.3639C16.6761 22.3018 14.3869 23.25 12 23.25c-2.38695 0 -4.67613 -0.9482 -6.36396 -2.6361C3.94821 18.9261 3 16.6369 3 14.25c0 -3.878 5.477 -10.33403 7.886 -13.00003 0.1407 -0.15615 0.3125 -0.280991 0.5045 -0.366448 0.192 -0.085456 0.3998 -0.129616 0.61 -0.129616s0.418 0.04416 0.61 0.129616c0.192 0.085457 0.3638 0.210298 0.5045 0.366448C15.525 3.91797 21 10.373 21 14.25Z" stroke-width="1"></path></svg>