<svg xmlns="http://www.w3.org/2000/svg" viewBox="0 0 24 24" id="Pollution-Faucet-Water--Streamline-Ultimate"><desc>Pollution Faucet Water Streamline Icon: https://streamlinehq.com</desc><g><path d="M0.75 23a5.51 5.51 0 0 0 4.5 -1.5 4.55 4.55 0 0 0 6.75 0 4.55 4.55 0 0 0 6.75 0 5.51 5.51 0 0 0 4.5 1.5" fill="none" stroke="#000000" stroke-linecap="round" stroke-linejoin="round" stroke-width="1"></path><path d="m7.5 13.25 -6.75 0" fill="none" stroke="#000000" stroke-linecap="round" stroke-linejoin="round" stroke-width="1"></path><path d="m0.75 5.75 6.75 0" fill="none" stroke="#000000" stroke-linecap="round" stroke-linejoin="round" stroke-width="1"></path><path d="M8.5 4.25H11s1 0 1 1v8.5s0 1 -1 1H8.5s-1 0 -1 -1v-8.5s0 -1 1 -1" fill="none" stroke="#000000" stroke-linecap="round" stroke-linejoin="round" stroke-width="1"></path><path d="m18 1 1.65 2.2a0.75 0.75 0 0 0 1.2 0L22.5 1" fill="none" stroke="#000000" stroke-linecap="round" stroke-linejoin="round" stroke-width="1"></path><g><path d="M15.18 13.89a8 8 0 0 0 -3.18 -0.63" fill="none" stroke="#000000" stroke-linecap="round" stroke-linejoin="round" stroke-width="1"></path><path d="M18 15.8a8.25 8.25 0 0 1 1.67 2.57" fill="none" stroke="#000000" stroke-linecap="round" stroke-linejoin="round" stroke-width="1"></path></g><g><path d="M15.05 8.35A13.07 13.07 0 0 1 18 9.41" fill="none" stroke="#000000" stroke-linecap="round" stroke-linejoin="round" stroke-width="1"></path><path d="M20.81 11.28a13 13 0 0 1 2.1 2.29" fill="none" stroke="#000000" stroke-linecap="round" stroke-linejoin="round" stroke-width="1"></path></g></g></svg>