<svg xmlns="http://www.w3.org/2000/svg" fill="none" viewBox="0 0 24 24" id="Pollution-Skull-1--Streamline-Ultimate"><desc>Pollution Skull 1 Streamline Icon: https://streamlinehq.com</desc><path stroke="#000000" stroke-linecap="round" stroke-linejoin="round" d="M12 22.5c5.799 0 10.5 -4.701 10.5 -10.5 0 -5.79899 -4.701 -10.5 -10.5 -10.5C6.20101 1.5 1.5 6.20101 1.5 12c0 5.799 4.70101 10.5 10.5 10.5Z" stroke-width="1"></path><path stroke="#000000" stroke-linecap="round" stroke-linejoin="round" d="M16.5 10.875C16.5 9.011 14.485 7.5 12 7.5s-4.5 1.511 -4.5 3.375c0 1.246 0.16 2.322 1.5 2.907V16.5h6v-2.718c1.34 -0.582 1.5 -1.661 1.5 -2.907Z" stroke-width="1"></path><path stroke="#000000" stroke-linecap="round" stroke-linejoin="round" d="M12 14.25v2.25" stroke-width="1"></path><path stroke="#000000" d="M10.5 11.625c-0.2071 0 -0.375 -0.1679 -0.375 -0.375s0.1679 -0.375 0.375 -0.375" stroke-width="1"></path><path stroke="#000000" d="M10.5 11.625c0.2071 0 0.375 -0.1679 0.375 -0.375s-0.1679 -0.375 -0.375 -0.375" stroke-width="1"></path><g><path stroke="#000000" d="M13.5 11.625c-0.2071 0 -0.375 -0.1679 -0.375 -0.375s0.1679 -0.375 0.375 -0.375" stroke-width="1"></path><path stroke="#000000" d="M13.5 11.625c0.2071 0 0.375 -0.1679 0.375 -0.375s-0.1679 -0.375 -0.375 -0.375" stroke-width="1"></path></g></svg>