<svg viewBox="0 0 24 24" xmlns="http://www.w3.org/2000/svg" id="Stamps-Mail--Streamline-Ultimate"><desc>Stamps Mail Streamline Icon: https://streamlinehq.com</desc><path d="M15 18.048A6.751 6.751 0 1 1 18.75 12" fill="none" stroke="#000000" stroke-linecap="round" stroke-linejoin="round" stroke-width="1"></path><path d="M9 12a3 3 0 1 0 6 0 3 3 0 1 0 -6 0Z" fill="none" stroke="#000000" stroke-linecap="round" stroke-linejoin="round" stroke-width="1"></path><path d="M15 12v1.125a1.875 1.875 0 0 0 3.75 0V12" fill="none" stroke="#000000" stroke-linecap="round" stroke-linejoin="round" stroke-width="1"></path><path d="M21 16.5a2.247 2.247 0 0 1 0.843 -1.756 3.761 3.761 0 0 0 1.407 -2.935 3 3 0 0 0 -1.285 -2.462 2.25 2.25 0 0 1 0.227 -3.833A2 2 0 0 0 23.25 3.75a3 3 0 0 0 -3 -3 2 2 0 0 0 -1.764 1.058 2.25 2.25 0 0 1 -3.742 0.349A3.761 3.761 0 0 0 11.809 0.75a3 3 0 0 0 -2.462 1.285 2.25 2.25 0 0 1 -3.833 -0.227A2 2 0 0 0 3.75 0.75a3 3 0 0 0 -3 3 2 2 0 0 0 1.058 1.764 2.25 2.25 0 0 1 0.349 3.742A3.761 3.761 0 0 0 0.75 12.191a3 3 0 0 0 1.285 2.462 2.25 2.25 0 0 1 -0.227 3.833A2 2 0 0 0 0.75 20.25a3 3 0 0 0 3 3 2 2 0 0 0 1.764 -1.058 2.25 2.25 0 0 1 3.742 -0.349 3.761 3.761 0 0 0 2.935 1.407 3 3 0 0 0 2.462 -1.285 2.25 2.25 0 0 1 3.833 0.227 2 2 0 0 0 1.764 1.058 3 3 0 0 0 3 -3 2 2 0 0 0 -1.058 -1.764A2.249 2.249 0 0 1 21 16.5Z" fill="none" stroke="#000000" stroke-linecap="round" stroke-linejoin="round" stroke-width="1"></path></svg>