<svg viewBox="0 0 24 24" xmlns="http://www.w3.org/2000/svg" id="Circus-Clown--Streamline-Ultimate"><desc>Circus Clown Streamline Icon: https://streamlinehq.com</desc><path d="M3.75 14.25a8.25 8.25 0 1 0 16.5 0 8.25 8.25 0 1 0 -16.5 0Z" fill="none" stroke="#000000" stroke-linecap="round" stroke-linejoin="round" stroke-width="1"></path><path d="M9.75 16.5a2.25 2.25 0 1 0 4.5 0 2.25 2.25 0 1 0 -4.5 0Z" fill="none" stroke="#000000" stroke-linecap="round" stroke-linejoin="round" stroke-width="1"></path><path d="m9 9.75 0 3" fill="none" stroke="#000000" stroke-linecap="round" stroke-linejoin="round" stroke-width="1"></path><path d="m7.5 11.25 3 0" fill="none" stroke="#000000" stroke-linecap="round" stroke-linejoin="round" stroke-width="1"></path><path d="m15 9.75 0 3" fill="none" stroke="#000000" stroke-linecap="round" stroke-linejoin="round" stroke-width="1"></path><path d="m13.5 11.25 3 0" fill="none" stroke="#000000" stroke-linecap="round" stroke-linejoin="round" stroke-width="1"></path><path d="m4.5 6 15 0" fill="none" stroke="#000000" stroke-linecap="round" stroke-linejoin="round" stroke-width="1"></path><path d="M7.5 6V3A1.5 1.5 0 0 1 9 1.5h6A1.5 1.5 0 0 1 16.5 3v3" fill="none" stroke="#000000" stroke-linecap="round" stroke-linejoin="round" stroke-width="1"></path><path d="m19.873 11.776 1.105 -0.663A1.5 1.5 0 0 1 23.25 12.4v4.452a1.5 1.5 0 0 1 -2.272 1.286l-1.327 -0.8" fill="none" stroke="#000000" stroke-linecap="round" stroke-linejoin="round" stroke-width="1"></path><path d="m4.127 11.776 -1.1 -0.663A1.5 1.5 0 0 0 0.75 12.4v4.452a1.5 1.5 0 0 0 2.272 1.286l1.327 -0.8" fill="none" stroke="#000000" stroke-linecap="round" stroke-linejoin="round" stroke-width="1"></path></svg>