<svg viewBox="0 0 24 24" xmlns="http://www.w3.org/2000/svg" id="Circus-Tent--Streamline-Ultimate"><desc>Circus Tent Streamline Icon: https://streamlinehq.com</desc><path d="m12 6 4.111 -2.141a0.751 0.751 0 0 0 0 -1.3L13.122 0.849A0.75 0.75 0 0 0 12 1.5V6" fill="none" stroke="#000000" stroke-linecap="round" stroke-linejoin="round" stroke-width="1"></path><path d="M3.75 12.75a0.75 0.75 0 0 1 -0.45 -1.35L12 6l8.7 5.4a0.75 0.75 0 0 1 -0.45 1.35Z" fill="none" stroke="#000000" stroke-linecap="round" stroke-linejoin="round" stroke-width="1"></path><path d="M18 12.75H6c0 3.342 -1.8 6.049 -4.339 9.287a0.75 0.75 0 0 0 0.589 1.213h19.5a0.75 0.75 0 0 0 0.59 -1.213C19.8 18.8 18 16.092 18 12.75Z" fill="none" stroke="#000000" stroke-linecap="round" stroke-linejoin="round" stroke-width="1"></path><path d="M12.615 16.82a0.75 0.75 0 0 0 -1.229 0L6.75 23.25h10.5Z" fill="none" stroke="#000000" stroke-linecap="round" stroke-linejoin="round" stroke-width="1"></path><path d="m12 16.5 0 6.75" fill="none" stroke="#000000" stroke-linecap="round" stroke-linejoin="round" stroke-width="1"></path></svg>