<svg xmlns="http://www.w3.org/2000/svg" fill="none" viewBox="0 0 24 24" id="Circus-Lion-Ring--Streamline-Ultimate"><desc>Circus Lion Ring Streamline Icon: https://streamlinehq.com</desc><path stroke="#000000" stroke-linecap="round" stroke-linejoin="round" d="M17.9722 4.83215c1.4933 0 2.9867 2.24 2.9867 2.24h1.4933c0.104 -0.00059 0.207 0.02061 0.3024 0.06226 0.0953 0.04164 0.1808 0.10279 0.2511 0.17951 0.0702 0.07673 0.1236 0.16732 0.1567 0.26594 0.0331 0.09862 0.0452 0.20309 0.0355 0.30666 -0.1215 1.29422 -0.5645 4.11168 -2.1902 4.11168h-2.2888s-3.7334 -0.7447 -3.7334 -3.73138c0.0077 -0.83427 0.3126 -1.63845 0.8601 -2.26802 0.5474 -0.62956 1.3015 -1.04323 2.1266 -1.16665v0Z" stroke-width="1"></path><path stroke="#000000" stroke-linecap="round" stroke-linejoin="round" d="M17.9723 4.83204c-0.7428 -1.21977 -1.7669 -2.24389 -2.9867 -2.98667 -0.5749 -0.38185 -1.1919 -0.69619 -1.8388 -0.936813 -0.2711 -0.101651 -0.5644 -0.128978 -0.8496 -0.07915 -0.2852 0.049828 -0.5519 0.175003 -0.7724 0.362543 -0.2206 0.18755 -0.387 0.43065 -0.482 0.70413 -0.095 0.27348 -0.1151 0.56738 -0.0584 0.85127l0.2679 1.34002 -1.60986 1.20661c-0.17117 0.12842 -0.31275 0.29213 -0.41513 0.48004 -0.10239 0.1879 -0.16319 0.39562 -0.1783 0.60908 -0.0151 0.21345 0.01585 0.42766 0.09075 0.62812 0.0749 0.20045 0.19201 0.38246 0.34339 0.53371l1.76915 1.76711 -0.6292 0.68494c-0.143 0.15592 -0.2512 0.34042 -0.3174 0.54132 -0.0663 0.2009 -0.0891 0.4136 -0.067 0.6239 0.0221 0.2104 0.0887 0.4137 0.1953 0.5964 0.1066 0.1827 0.2508 0.3407 0.423 0.4634l0.4391 0.3137" stroke-width="1"></path><path stroke="#000000" stroke-linecap="round" stroke-linejoin="round" d="M4.53223 20.2134V23.2" stroke-width="1"></path><path stroke="#000000" stroke-linecap="round" stroke-linejoin="round" d="M1.06567 6.89286c2.63619 -0.5665 5.35868 -0.60339 8.00925 -0.10852" stroke-width="1"></path><path stroke="#000000" stroke-linecap="round" stroke-linejoin="round" d="M18.2341 11.8687c-1.0885 0.5172 -1.979 1.3748 -2.5367 2.443" stroke-width="1"></path><path stroke="#000000" stroke-linecap="round" stroke-linejoin="round" d="M6.92156 3.04005C6.27046 1.64627 5.43917 0.800049 4.53222 0.800049 2.47043 0.800049 0.798889 5.14565 0.798889 10.5067c0 5.3611 1.671541 9.7067 3.733331 9.7067 0.43183 -0.0581 0.84159 -0.2258 1.19016 -0.4872 0.34857 -0.2614 0.62432 -0.6078 0.80095 -1.0062" stroke-width="1"></path><path stroke="#000000" stroke-linecap="round" stroke-linejoin="round" d="M11.295 12.5366c3.4355 1.0201 6.6158 2.7567 9.3314 5.0953 0.1967 0.1508 0.3614 0.3392 0.4845 0.5543 0.1231 0.2151 0.2021 0.4526 0.2325 0.6986 0.0303 0.2459 0.0114 0.4955 -0.0557 0.7341 -0.0672 0.2386 -0.1811 0.4614 -0.3353 0.6555 -0.1541 0.194 -0.3454 0.3555 -0.5626 0.4748 -0.2172 0.1194 -0.456 0.1943 -0.7024 0.2204 -0.2465 0.0262 -0.4957 0.0029 -0.7331 -0.0683s-0.4582 -0.189 -0.6496 -0.3465c-5.602 -4.4491 -8.89427 -4.8214 -11.53249 -4.8214H1.38525" stroke-width="1"></path><path stroke="#000000" stroke-linecap="round" stroke-linejoin="round" d="M18.7189 12c1.324 0.8918 2.5726 1.8907 3.7333 2.9867 0.3241 0.2432 0.5603 0.5853 0.6729 0.9746 0.1125 0.3893 0.0953 0.8047 -0.0491 1.1834 -0.1443 0.3786 -0.408 0.7001 -0.7511 0.9156 -0.3432 0.2156 -0.7472 0.3137 -1.151 0.2794" stroke-width="1"></path><path stroke="#000000" d="M18.3456 9.01339c-0.2062 0 -0.3734 -0.16715 -0.3734 -0.37333 0 -0.20619 0.1672 -0.37334 0.3734 -0.37334" stroke-width="1"></path><path stroke="#000000" d="M18.3455 9.01339c0.2062 0 0.3734 -0.16715 0.3734 -0.37333 0 -0.20619 -0.1672 -0.37334 -0.3734 -0.37334" stroke-width="1"></path></svg>