<svg viewBox="0 0 24 24" xmlns="http://www.w3.org/2000/svg" id="Circus-Tent-1--Streamline-Ultimate"><desc>Circus Tent 1 Streamline Icon: https://streamlinehq.com</desc><path d="M12.706 0.779a0.749 0.749 0 0 0 -0.956 0.721v3l4.589 -1.419a0.75 0.75 0 0 0 -0.089 -1.411Z" fill="none" stroke="#000000" stroke-linecap="round" stroke-linejoin="round" stroke-width="1"></path><path d="M19.25 10.125a2.564 2.564 0 0 1 -2.5 2.625 2.5 2.5 0 0 1 -2.289 -1.576 3.12 3.12 0 0 1 -5.422 0A2.5 2.5 0 0 1 6.75 12.75a2.564 2.564 0 0 1 -2.5 -2.625 0.73 0.73 0 0 1 0.293 -0.59L11.75 4.5l7.2 5.049a0.692 0.692 0 0 1 0.3 0.576Z" fill="none" stroke="#000000" stroke-linecap="round" stroke-linejoin="round" stroke-width="1"></path><path d="M10.75 17.25h2a2 2 0 0 1 2 2v4l0 0h-6l0 0v-4a2 2 0 0 1 2 -2Z" fill="none" stroke="#000000" stroke-linecap="round" stroke-linejoin="round" stroke-width="1"></path><path d="M4.323 10.758A32.733 32.733 0 0 1 2.8 21.351a1.5 1.5 0 0 0 1.447 1.9h15a1.5 1.5 0 0 0 1.447 -1.9 32.733 32.733 0 0 1 -1.519 -10.593" fill="none" stroke="#000000" stroke-linecap="round" stroke-linejoin="round" stroke-width="1"></path><path d="m11.75 4.5 -2.711 6.674" fill="none" stroke="#000000" stroke-linecap="round" stroke-linejoin="round" stroke-width="1"></path><path d="m11.75 4.5 2.711 6.674" fill="none" stroke="#000000" stroke-linecap="round" stroke-linejoin="round" stroke-width="1"></path></svg>