<svg xmlns="http://www.w3.org/2000/svg" fill="none" viewBox="0 0 24 24" id="Fortune-Telling-Tarot-1--Streamline-Ultimate"><desc>Fortune Telling Tarot 1 Streamline Icon: https://streamlinehq.com</desc><path stroke="#000000" stroke-linecap="round" stroke-linejoin="round" d="M18.75 1H5.25c-0.55228 0 -1 0.44772 -1 1v20c0 0.5523 0.44772 1 1 1h13.5c0.5523 0 1 -0.4477 1 -1V2c0 -0.55228 -0.4477 -1 -1 -1Z" stroke-width="1"></path><path stroke="#000000" stroke-linecap="round" stroke-linejoin="round" d="M10.186 1.485c0 1.46807 -0.58312 2.87602 -1.6211 3.91419C7.52691 6.43736 6.11907 7.02074 4.651 7.021" stroke-width="1"></path><path stroke="#000000" stroke-linecap="round" stroke-linejoin="round" d="M13.209 11.75c0.0004 -0.5945 0.1516 -1.1791 0.4395 -1.6993 0.2879 -0.5201 0.703 -0.95869 1.2065 -1.27471 -0.5331 -0.3399 -1.1478 -0.53023 -1.7798 -0.55108 -0.6319 -0.02085 -1.2578 0.12856 -1.8122 0.43258s-1.0168 0.75148 -1.33896 1.29553c-0.32214 0.54408 -0.4921 1.16468 -0.4921 1.79698 0 0.6323 0.16996 1.2529 0.4921 1.797 0.32216 0.544 0.78456 0.9915 1.33896 1.2955 0.5544 0.304 1.1803 0.4534 1.8122 0.4326 0.632 -0.0209 1.2467 -0.2112 1.7798 -0.5511 -0.5035 -0.316 -0.9186 -0.7546 -1.2065 -1.2747 -0.2879 -0.5202 -0.4391 -1.1048 -0.4395 -1.6993v0Z" stroke-width="1"></path><path stroke="#000000" stroke-linecap="round" stroke-linejoin="round" d="M13.814 1.485c0 1.46807 0.5831 2.87602 1.6211 3.91419S17.8809 7.02074 19.349 7.021" stroke-width="1"></path><path stroke="#000000" stroke-linecap="round" stroke-linejoin="round" d="M10.186 22.515c0 -1.4681 -0.58312 -2.876 -1.6211 -3.9142 -1.03799 -1.0382 -2.44583 -1.6215 -3.9139 -1.6218" stroke-width="1"></path><path stroke="#000000" d="M6.75 20.75c-0.13807 0 -0.25 -0.1119 -0.25 -0.25s0.11193 -0.25 0.25 -0.25" stroke-width="1"></path><path stroke="#000000" d="M6.75 20.75c0.13807 0 0.25 -0.1119 0.25 -0.25s-0.11193 -0.25 -0.25 -0.25" stroke-width="1"></path><path stroke="#000000" d="M6.75 3.75c-0.13807 0 -0.25 -0.11193 -0.25 -0.25s0.11193 -0.25 0.25 -0.25" stroke-width="1"></path><path stroke="#000000" d="M6.75 3.75c0.13807 0 0.25 -0.11193 0.25 -0.25s-0.11193 -0.25 -0.25 -0.25" stroke-width="1"></path><path stroke="#000000" d="M17.25 3.75c-0.1381 0 -0.25 -0.11193 -0.25 -0.25s0.1119 -0.25 0.25 -0.25" stroke-width="1"></path><path stroke="#000000" d="M17.25 3.75c0.1381 0 0.25 -0.11193 0.25 -0.25s-0.1119 -0.25 -0.25 -0.25" stroke-width="1"></path><path stroke="#000000" d="M17.25 20.75c-0.1381 0 -0.25 -0.1119 -0.25 -0.25s0.1119 -0.25 0.25 -0.25" stroke-width="1"></path><path stroke="#000000" d="M17.25 20.75c0.1381 0 0.25 -0.1119 0.25 -0.25s-0.1119 -0.25 -0.25 -0.25" stroke-width="1"></path><path stroke="#000000" stroke-linecap="round" stroke-linejoin="round" d="M13.814 22.515c0 -1.4681 0.5831 -2.876 1.6211 -3.9142 1.038 -1.0382 2.4458 -1.6215 3.9139 -1.6218" stroke-width="1"></path></svg>