<svg xmlns="http://www.w3.org/2000/svg" viewBox="0 0 24 24" id="Fortune-Telling-Sphere-2--Streamline-Ultimate"><desc>Fortune Telling Sphere 2 Streamline Icon: https://streamlinehq.com</desc><defs></defs><path d="M7.128 16.966a8.813 8.813 0 1 1 10.068 0" fill="none" stroke="#000000" stroke-linecap="round" stroke-linejoin="round" stroke-width="1"></path><path d="M19.437 20.014h-1.584a1.529 1.529 0 0 0 -0.185 -3.048H6.38a1.529 1.529 0 0 0 -0.18 3.048H4.559a1.534 1.534 0 1 0 0 3.067h14.878a1.534 1.534 0 1 0 0 -3.067Z" fill="none" stroke="#000000" stroke-linecap="round" stroke-linejoin="round" stroke-width="1"></path><path d="M19.015 9.222s-3.1 4.052 -6.923 4.052 -6.923 -4.052 -6.923 -4.052 3.1 -4.053 6.923 -4.053 6.923 4.053 6.923 4.053Z" fill="none" stroke="#000000" stroke-linecap="round" stroke-linejoin="round" stroke-width="1"></path><path d="M10.594 9.222a1.498 1.498 0 1 0 2.996 0 1.498 1.498 0 1 0 -2.996 0" fill="none" stroke="#000000" stroke-linecap="round" stroke-linejoin="round" stroke-width="1"></path></svg>