<svg xmlns="http://www.w3.org/2000/svg" fill="none" viewBox="0 0 24 24" id="Fortune-Telling-Sphere-Teller-2--Streamline-Ultimate"><desc>Fortune Telling Sphere Teller 2 Streamline Icon: https://streamlinehq.com</desc><path stroke="#000000" stroke-linecap="round" stroke-linejoin="round" d="M23 14.843c-0.0003 0.8646 -0.257 1.7097 -0.7376 2.4285 -0.4806 0.7187 -1.1635 1.2788 -1.9624 1.6095" stroke-width="1"></path><path stroke="#000000" stroke-linecap="round" stroke-linejoin="round" d="M14.3 14.235c0.1355 -0.9607 0.5866 -1.849 1.2823 -2.5251 0.6958 -0.6762 1.5966 -1.1018 2.5607 -1.2099" stroke-width="1"></path><path stroke="#000000" stroke-linecap="round" stroke-linejoin="round" d="M10.709 5.91901c0.1523 0.64814 0.1305 1.32504 -0.0633 1.96203 -0.1937 0.63699 -0.5525 1.21141 -1.03985 1.66499 -0.48739 0.45358 -1.08608 0.77017 -1.73533 0.91767 -0.64925 0.1476 -1.32597 0.1207 -1.96152 -0.0777l-0.18 -0.057" stroke-width="1"></path><path stroke="#000000" stroke-linecap="round" stroke-linejoin="round" d="m10.731 5.92101 0.013 -0.14c0.0502 -1.19374 -0.3748 -2.3587 -1.18194 -3.23966 -0.80711 -0.88096 -1.9305 -1.40609 -3.12406 -1.46034 -1.18362 -0.157666 -2.3815 0.15996 -3.33149 0.88338 -0.95 0.72341 -1.57474 1.79369 -1.73751 2.97662L0.89 10.316c-0.042552 0.4596 0.057976 0.9211 0.28782 1.3214 0.22985 0.4003 0.57779 0.7197 0.99618 0.9146l0.1 0.042c0.3845 0.1795 0.80942 0.255 1.23223 0.2187 0.4228 -0.0363 0.82867 -0.1829 1.17698 -0.4253 0.34831 -0.2425 0.62685 -0.5721 0.80775 -0.9559 0.1809 -0.3839 0.25781 -0.8086 0.22304 -1.2315l-0.6 -4.28699 5.591 -0.019" stroke-width="1"></path><path stroke="#000000" stroke-linecap="round" stroke-linejoin="round" d="m3.164 22.927 0.949 -7.591" stroke-width="1"></path><path stroke="#000000" stroke-linecap="round" stroke-linejoin="round" d="M7.55299 12.824c0.43062 -0.0542 0.86796 -0.0038 1.27495 0.147 0.40699 0.1507 0.77164 0.3974 1.06305 0.719 0.24601 0.286 1.50701 1.669 2.57801 2.84l3.849 0.029c0.4641 0.0027 0.9082 0.1896 1.2345 0.5196 0.3263 0.3301 0.5081 0.7763 0.5055 1.2404 -0.0027 0.4641 -0.1896 0.9082 -0.5196 1.2345 -0.3301 0.3263 -0.7763 0.5082 -1.2404 0.5055l-5.221 -0.033c-0.2408 -0.0017 -0.4788 -0.0529 -0.699 -0.1504 -0.2202 -0.0976 -0.41794 -0.2394 -0.58101 -0.4166 -1 -1.085 -1.7 -1.856 -2.208 -2.415" stroke-width="1"></path><path stroke="#000000" stroke-linecap="round" stroke-linejoin="round" d="m20.304 18.875 2.422 0.013" stroke-width="1"></path><path stroke="#000000" stroke-linecap="round" stroke-linejoin="round" d="M21.619 10.057v3" stroke-width="1"></path><path stroke="#000000" stroke-linecap="round" stroke-linejoin="round" d="M20.119 11.557h3" stroke-width="1"></path><path stroke="#000000" d="M17.399 7.68401c-0.2071 0 -0.375 -0.1679 -0.375 -0.375 0 -0.20711 0.1679 -0.375 0.375 -0.375" stroke-width="1"></path><path stroke="#000000" d="M17.399 7.68401c0.2071 0 0.375 -0.1679 0.375 -0.375 0 -0.20711 -0.1679 -0.375 -0.375 -0.375" stroke-width="1"></path><path stroke="#000000" d="M21.994 4.03c-0.2071 0 -0.375 -0.16789 -0.375 -0.375s0.1679 -0.375 0.375 -0.375" stroke-width="1"></path><path stroke="#000000" d="M21.994 4.03c0.2071 0 0.375 -0.16789 0.375 -0.375s-0.1679 -0.375 -0.375 -0.375" stroke-width="1"></path><path stroke="#000000" stroke-linecap="round" stroke-linejoin="round" d="m11.077 20.026 1.204 2.91" stroke-width="1"></path></svg>