<svg xmlns="http://www.w3.org/2000/svg" viewBox="0 0 24 24" id="Fortune-Telling-Chinese-Board--Streamline-Ultimate"><desc>Fortune Telling Chinese Board Streamline Icon: https://streamlinehq.com</desc><defs></defs><path d="M1 12a11 11 0 1 0 22 0 11 11 0 1 0 -22 0" fill="none" stroke="#000000" stroke-linecap="round" stroke-linejoin="round" stroke-width="1"></path><path d="M9.25 12a2.75 2.75 0 1 0 5.5 0 2.75 2.75 0 1 0 -5.5 0" fill="none" stroke="#000000" stroke-linecap="round" stroke-linejoin="round" stroke-width="1"></path><path d="M5.385 12a6.615 6.615 0 1 0 13.23 0 6.615 6.615 0 1 0 -13.23 0" fill="none" stroke="#000000" stroke-linecap="round" stroke-linejoin="round" stroke-width="1"></path><path d="M10.871 9.491 7.75 2" fill="none" stroke="#000000" stroke-linecap="round" stroke-linejoin="round" stroke-width="1"></path><path d="M9.289 10.899 1.75 8" fill="none" stroke="#000000" stroke-linecap="round" stroke-linejoin="round" stroke-width="1"></path><path d="M9.289 13.101 1.75 16" fill="none" stroke="#000000" stroke-linecap="round" stroke-linejoin="round" stroke-width="1"></path><path d="M10.974 14.552 7.25 22" fill="none" stroke="#000000" stroke-linecap="round" stroke-linejoin="round" stroke-width="1"></path><path d="M13.129 9.491 16.25 2" fill="none" stroke="#000000" stroke-linecap="round" stroke-linejoin="round" stroke-width="1"></path><path d="M14.711 10.899 22.25 8" fill="none" stroke="#000000" stroke-linecap="round" stroke-linejoin="round" stroke-width="1"></path><path d="M14.548 13.038 22.25 16" fill="none" stroke="#000000" stroke-linecap="round" stroke-linejoin="round" stroke-width="1"></path><path d="M13.026 14.552 16.75 22" fill="none" stroke="#000000" stroke-linecap="round" stroke-linejoin="round" stroke-width="1"></path></svg>