<svg xmlns="http://www.w3.org/2000/svg" viewBox="0 0 24 24" id="Fortune-Telling-Sphere-Hand--Streamline-Ultimate"><desc>Fortune Telling Sphere Hand Streamline Icon: https://streamlinehq.com</desc><defs></defs><path d="M5.092 12.876 6.11 8.515l0.009 -0.033a1.226 1.226 0 0 0 -2.342 -0.707C0.1 14.844 -0.069 15.423 2.423 22.9" fill="none" stroke="#000000" stroke-linecap="round" stroke-linejoin="round" stroke-width="1"></path><path d="M7.95 22.9v-1.675c0 -1.94 -0.02 -2.479 -1.293 -3.942l-0.027 -0.031v-3.117a1.365 1.365 0 0 0 -1.26 -1.3h0a1.39 1.39 0 0 0 -1.287 1.293l-0.024 3.048" fill="none" stroke="#000000" stroke-linecap="round" stroke-linejoin="round" stroke-width="1"></path><path d="M18.908 12.876 17.89 8.515l-0.009 -0.033a1.226 1.226 0 0 1 2.342 -0.707c3.681 7.069 3.846 7.648 1.354 15.123" fill="none" stroke="#000000" stroke-linecap="round" stroke-linejoin="round" stroke-width="1"></path><path d="M16.05 22.9v-1.675c0 -1.94 0.02 -2.479 1.293 -3.942l0.027 -0.031v-3.117a1.365 1.365 0 0 1 1.26 -1.3h0a1.39 1.39 0 0 1 1.287 1.293l0.024 3.048" fill="none" stroke="#000000" stroke-linecap="round" stroke-linejoin="round" stroke-width="1"></path><path d="M7.541 4.868a7.433 7.433 0 0 1 9.072 0.2" fill="none" stroke="#000000" stroke-linecap="round" stroke-linejoin="round" stroke-width="1"></path><path d="M13.809 18.047a7.488 7.488 0 0 1 -3.6 0.032" fill="none" stroke="#000000" stroke-linecap="round" stroke-linejoin="round" stroke-width="1"></path><path d="m4.019 1.102 0 2.972" fill="none" stroke="#000000" stroke-linecap="round" stroke-linejoin="round" stroke-width="1"></path><path d="m2.533 2.588 2.972 0" fill="none" stroke="#000000" stroke-linecap="round" stroke-linejoin="round" stroke-width="1"></path><path d="m18.384 1.102 0 1.982" fill="none" stroke="#000000" stroke-linecap="round" stroke-linejoin="round" stroke-width="1"></path><path d="m17.393 2.093 1.982 0" fill="none" stroke="#000000" stroke-linecap="round" stroke-linejoin="round" stroke-width="1"></path><path d="M12.44 6.546a3.469 3.469 0 0 1 3.433 2.977" fill="none" stroke="#000000" stroke-linecap="round" stroke-linejoin="round" stroke-width="1"></path></svg>