<svg xmlns="http://www.w3.org/2000/svg" viewBox="0 0 24 24" id="Fortune-Telling-Chinese-Kau-Chim-2--Streamline-Ultimate"><desc>Fortune Telling Chinese Kau Chim 2 Streamline Icon: https://streamlinehq.com</desc><defs></defs><path d="M13.341 23v-8.335h-0.089c-0.476 0.492 -2.978 0.868 -6 0.868s-5.526 -0.376 -6 -0.868h-0.093V23" fill="none" stroke="#000000" stroke-linecap="round" stroke-linejoin="round" stroke-width="1"></path><path d="m7.146 6.985 0 -2.97 -1.921 -1.697 -1.921 1.697 0 3.819 0.64 0.848 -0.64 0.849 0 5.698" fill="none" stroke="#000000" stroke-linecap="round" stroke-linejoin="round" stroke-width="1"></path><path d="m10.988 15.313 0 -2.812 -0.641 -0.849 0.641 -0.848 0 -3.819 -1.921 -1.697 -1.921 1.697 0 3.819 0.64 0.848 -0.64 0.849 0 3.032" fill="none" stroke="#000000" stroke-linecap="round" stroke-linejoin="round" stroke-width="1"></path><path d="M10.621 18.68a25.261 25.261 0 0 1 -3.371 0.21 24.644 24.644 0 0 1 -3.613 -0.245" fill="none" stroke="#000000" stroke-linecap="round" stroke-linejoin="round" stroke-width="1"></path><path d="M10.621 2a1 1 0 0 1 1 -1h10.22a1 1 0 0 1 1 1v13.118a1 1 0 0 1 -1 1h-5.11" fill="none" stroke="#000000" stroke-linecap="round" stroke-linejoin="round" stroke-width="1"></path><path d="m15.841 6 2.328 0" fill="none" stroke="#000000" stroke-linecap="round" stroke-linejoin="round" stroke-width="1"></path><path d="m15.841 9.5 3.5 0" fill="none" stroke="#000000" stroke-linecap="round" stroke-linejoin="round" stroke-width="1"></path></svg>