<svg xmlns="http://www.w3.org/2000/svg" fill="none" viewBox="0 0 24 24" id="Fortune-Telling-Tarot-3--Streamline-Ultimate"><desc>Fortune Telling Tarot 3 Streamline Icon: https://streamlinehq.com</desc><path stroke="#000000" stroke-linecap="round" stroke-linejoin="round" d="M19.25 1H4.75c-0.55228 0 -1 0.44772 -1 1v20c0 0.5523 0.44772 1 1 1h14.5c0.5523 0 1 -0.4477 1 -1V2c0 -0.55228 -0.4477 -1 -1 -1Z" stroke-width="1"></path><path stroke="#000000" stroke-linecap="round" stroke-linejoin="round" d="M7.381 17.5c0.53043 0 1.03914 0.2107 1.41421 0.5858 0.37508 0.3751 0.58579 0.8838 0.58579 1.4142h5.5c0 -0.5304 0.2107 -1.0391 0.5858 -1.4142s0.8838 -0.5858 1.4142 -0.5858" stroke-width="1"></path><path stroke="#000000" stroke-linecap="round" stroke-linejoin="round" d="M16.881 6.5c-0.5304 0 -1.0391 -0.21071 -1.4142 -0.58579 -0.3751 -0.37507 -0.5858 -0.88378 -0.5858 -1.41421h-5.5c0 0.53043 -0.21071 1.03914 -0.58579 1.41421C8.42014 6.28929 7.91143 6.5 7.381 6.5" stroke-width="1"></path><path stroke="#000000" d="M6.881 4c-0.13807 0 -0.25 -0.11193 -0.25 -0.25s0.11193 -0.25 0.25 -0.25" stroke-width="1"></path><path stroke="#000000" d="M6.881 4c0.13807 0 0.25 -0.11193 0.25 -0.25s-0.11193 -0.25 -0.25 -0.25" stroke-width="1"></path><path stroke="#000000" d="M17.131 4c-0.1381 0 -0.25 -0.11193 -0.25 -0.25s0.1119 -0.25 0.25 -0.25" stroke-width="1"></path><path stroke="#000000" d="M17.131 4c0.1381 0 0.25 -0.11193 0.25 -0.25s-0.1119 -0.25 -0.25 -0.25" stroke-width="1"></path><path stroke="#000000" d="M6.881 20.75c-0.13807 0 -0.25 -0.1119 -0.25 -0.25s0.11193 -0.25 0.25 -0.25" stroke-width="1"></path><path stroke="#000000" d="M6.881 20.75c0.13807 0 0.25 -0.1119 0.25 -0.25s-0.11193 -0.25 -0.25 -0.25" stroke-width="1"></path><path stroke="#000000" d="M17.131 20.75c-0.1381 0 -0.25 -0.1119 -0.25 -0.25s0.1119 -0.25 0.25 -0.25" stroke-width="1"></path><path stroke="#000000" d="M17.131 20.75c0.1381 0 0.25 -0.1119 0.25 -0.25s-0.1119 -0.25 -0.25 -0.25" stroke-width="1"></path><path stroke="#000000" d="M12 12.303c-0.1381 0 -0.25 -0.1119 -0.25 -0.25s0.1119 -0.25 0.25 -0.25" stroke-width="1"></path><path stroke="#000000" d="M12 12.303c0.1381 0 0.25 -0.1119 0.25 -0.25s-0.1119 -0.25 -0.25 -0.25" stroke-width="1"></path><path stroke="#000000" stroke-linecap="round" stroke-linejoin="round" d="M17.034 12.053S14.78 15 12 15s-5.034 -2.947 -5.034 -2.947S9.22 9.106 12 9.106s5.034 2.947 5.034 2.947Z" stroke-width="1"></path></svg>