<svg xmlns="http://www.w3.org/2000/svg" viewBox="0 0 24 24" id="Fortune-Telling-Palmistry--Streamline-Ultimate"><desc>Fortune Telling Palmistry Streamline Icon: https://streamlinehq.com</desc><defs></defs><path d="M11.111 4.527V2.466a1.546 1.546 0 1 1 3.092 0v2.061" fill="none" stroke="#000000" stroke-linecap="round" stroke-linejoin="round" stroke-width="1"></path><path d="M14.2 7.619V4.527a1.546 1.546 0 0 1 3.092 0v3.092" fill="none" stroke="#000000" stroke-linecap="round" stroke-linejoin="round" stroke-width="1"></path><path d="M17.3 7.619a1.546 1.546 0 0 1 3.092 0v10.308a5.153 5.153 0 0 1 -5.153 5.153H11.8a5.163 5.163 0 0 1 -4.353 -2.392c-1 -1.57 -2.9 -7.386 -3.755 -10.1a1.6 1.6 0 0 1 0.935 -1.968h0a1.6 1.6 0 0 1 1.935 0.607c0.607 0.919 0.81 1.49 1.378 2.473l0.083 -7.168a1.546 1.546 0 0 1 3.092 0v3.087" fill="none" stroke="#000000" stroke-linecap="round" stroke-linejoin="round" stroke-width="1"></path><path d="M9.778 14.725c3.032 0.367 5.849 0.031 8.238 -1.7" fill="none" stroke="#000000" stroke-linecap="round" stroke-linejoin="round" stroke-width="1"></path><path d="M10.387 19.247a10.57 10.57 0 0 0 1.735 -7.761" fill="none" stroke="#000000" stroke-linecap="round" stroke-linejoin="round" stroke-width="1"></path><path d="M15.415 11.542a10.578 10.578 0 0 0 1.058 7.882" fill="none" stroke="#000000" stroke-linecap="round" stroke-linejoin="round" stroke-width="1"></path></svg>