<svg viewBox="0 0 24 24" xmlns="http://www.w3.org/2000/svg" id="Pasta-Noodles--Streamline-Ultimate"><desc>Pasta Noodles Streamline Icon: https://streamlinehq.com</desc><path d="M13.114 23.25H4.886A1.5 1.5 0 0 1 3.406 22L1.51 10.623a0.75 0.75 0 0 1 0.74 -0.873h13.5a0.75 0.75 0 0 1 0.74 0.873L14.594 22a1.5 1.5 0 0 1 -1.48 1.25Z" fill="none" stroke="#000000" stroke-linecap="round" stroke-linejoin="round" stroke-width="1"></path><path d="m9.557 13.5 -0.618 0.823a1.584 1.584 0 0 0 0.243 2.177h0a1.585 1.585 0 0 1 0.242 2.177l-0.617 0.823" fill="none" stroke="#000000" stroke-linecap="round" stroke-linejoin="round" stroke-width="1"></path><path d="m6 9.75 0 -7.5" fill="none" stroke="#000000" stroke-linecap="round" stroke-linejoin="round" stroke-width="1"></path><path d="m9 6.75 0 -6" fill="none" stroke="#000000" stroke-linecap="round" stroke-linejoin="round" stroke-width="1"></path><path d="M12 6.75 12 3" fill="none" stroke="#000000" stroke-linecap="round" stroke-linejoin="round" stroke-width="1"></path><path d="m14.654 3.448 7.846 0.302" fill="none" stroke="#000000" stroke-linecap="round" stroke-linejoin="round" stroke-width="1"></path><path d="m1.5 2.25 1.5 0" fill="none" stroke="#000000" stroke-linecap="round" stroke-linejoin="round" stroke-width="1"></path><path d="M14.852 6.618 22.5 7.5" fill="none" stroke="#000000" stroke-linecap="round" stroke-linejoin="round" stroke-width="1"></path><path d="m1.5 5.25 1.544 0" fill="none" stroke="#000000" stroke-linecap="round" stroke-linejoin="round" stroke-width="1"></path></svg>