<svg viewBox="0 0 24 24" xmlns="http://www.w3.org/2000/svg" id="Hoodie--Streamline-Ultimate"><desc>Hoodie Streamline Icon: https://streamlinehq.com</desc><path d="M18.75 11.25v10.5s-1.5 1.5 -6.75 1.5 -6.75 -1.5 -6.75 -1.5v-10.5" fill="none" stroke="#000000" stroke-linecap="round" stroke-linejoin="round" stroke-width="1"></path><path d="m6.75 2.25 -1.818 0.779a6 6 0 0 0 -3.632 5.2l-0.508 9.732a0.749 0.749 0 0 0 0.749 0.789H5.25" fill="none" stroke="#000000" stroke-linecap="round" stroke-linejoin="round" stroke-width="1"></path><path d="M18.75 18.75h3.709a0.749 0.749 0 0 0 0.749 -0.789L22.7 8.229a6 6 0 0 0 -3.628 -5.2L17.25 2.25" fill="none" stroke="#000000" stroke-linecap="round" stroke-linejoin="round" stroke-width="1"></path><path d="M17.25 2.25a3 3 0 0 1 -3 3h-4.5a3 3 0 0 1 -3 -3 1.5 1.5 0 0 1 1.5 -1.5h7.5a1.5 1.5 0 0 1 1.5 1.5Z" fill="none" stroke="#000000" stroke-linecap="round" stroke-linejoin="round" stroke-width="1"></path><path d="m9.75 5.25 0 3" fill="none" stroke="#000000" stroke-linecap="round" stroke-linejoin="round" stroke-width="1"></path><path d="m14.25 5.25 0 6" fill="none" stroke="#000000" stroke-linecap="round" stroke-linejoin="round" stroke-width="1"></path></svg>