<svg viewBox="0 0 24 24" xmlns="http://www.w3.org/2000/svg" id="Shirt-Male--Streamline-Ultimate"><desc>Shirt Male Streamline Icon: https://streamlinehq.com</desc><path d="M6 8.25V22.5a0.75 0.75 0 0 0 0.75 0.75h10.5a0.75 0.75 0 0 0 0.75 -0.75V8.25" fill="none" stroke="#000000" stroke-linecap="round" stroke-linejoin="round" stroke-width="1"></path><path d="M18 12.75h3.75a0.75 0.75 0 0 0 0.75 -0.75V6.75a6 6 0 0 0 -6 -6H15a3 3 0 0 1 -6 0H7.5a6 6 0 0 0 -6 6V12a0.75 0.75 0 0 0 0.75 0.75H6" fill="none" stroke="#000000" stroke-linecap="round" stroke-linejoin="round" stroke-width="1"></path><path d="m12 4.5 0 18.75" fill="none" stroke="#000000" stroke-linecap="round" stroke-linejoin="round" stroke-width="1"></path><path d="M9 0.75 7.9 5.168a0.75 0.75 0 0 0 1.062 0.853L12 4.5" fill="none" stroke="#000000" stroke-linecap="round" stroke-linejoin="round" stroke-width="1"></path><path d="m15 0.75 1.1 4.418a0.75 0.75 0 0 1 -1.062 0.853L12 4.5" fill="none" stroke="#000000" stroke-linecap="round" stroke-linejoin="round" stroke-width="1"></path></svg>