<svg xmlns="http://www.w3.org/2000/svg" viewBox="0 0 24 24" id="Sweater-1--Streamline-Ultimate"><desc>Sweater 1 Streamline Icon: https://streamlinehq.com</desc><g><path d="m6 8.25 0 15 12 0 0 -15" fill="none" stroke="#000000" stroke-linecap="round" stroke-linejoin="round" stroke-width="1"></path><path d="M18 18.75h3.75a0.76 0.76 0 0 0 0.75 -0.75V6.75a6 6 0 0 0 -6 -6H15a3 3 0 0 1 -6 0H7.5a6 6 0 0 0 -6 6V18a0.76 0.76 0 0 0 0.75 0.75H6" fill="none" stroke="#000000" stroke-linecap="round" stroke-linejoin="round" stroke-width="1"></path><path d="m6 11.25 12 0" fill="none" stroke="#000000" stroke-linecap="round" stroke-linejoin="round" stroke-width="1"></path><path d="m6 14.25 12 0" fill="none" stroke="#000000" stroke-linecap="round" stroke-linejoin="round" stroke-width="1"></path><path d="m6 17.25 12 0" fill="none" stroke="#000000" stroke-linecap="round" stroke-linejoin="round" stroke-width="1"></path></g></svg>