<svg viewBox="0 0 24 24" xmlns="http://www.w3.org/2000/svg" id="Tank-Top-Female--Streamline-Ultimate"><desc>Tank Top Female Streamline Icon: https://streamlinehq.com</desc><path d="M20.25 23.25a1.5 1.5 0 0 0 1.5 -1.5v-8.338a1.5 1.5 0 0 0 -0.429 -1.051c-2.65 -2.7 -2.65 -8.693 -2.571 -10.833A0.752 0.752 0 0 0 18 0.75h-2.25s0 9 -3.75 9 -3.75 -9 -3.75 -9H6a0.752 0.752 0 0 0 -0.75 0.778c0.079 2.14 0.079 8.133 -2.571 10.833a1.5 1.5 0 0 0 -0.429 1.051v8.338a1.5 1.5 0 0 0 1.5 1.5Z" fill="none" stroke="#000000" stroke-linecap="round" stroke-linejoin="round" stroke-width="1"></path><path d="m2.25 20.25 19.5 0" fill="none" stroke="#000000" stroke-linecap="round" stroke-linejoin="round" stroke-width="1"></path><path d="m8.25 0.75 7.5 0" fill="none" stroke="#000000" stroke-linecap="round" stroke-linejoin="round" stroke-width="1"></path></svg>