<svg viewBox="0 0 24 24" xmlns="http://www.w3.org/2000/svg" id="Tank-Top-Female-1--Streamline-Ultimate"><desc>Tank Top Female 1 Streamline Icon: https://streamlinehq.com</desc><path d="M19.735 5.484c-1.036 -0.994 -1 -2.039 -1.283 -4.306a0.49 0.49 0 0 0 -0.485 -0.428h-1.538a0.489 0.489 0 0 0 -0.489 0.489c0 4.723 -1.275 3.985 -3.913 9.261 -2.638 -5.276 -3.913 -4.538 -3.913 -9.261A0.489 0.489 0 0 0 7.625 0.75H6.087a0.49 0.49 0 0 0 -0.485 0.428c-0.28 2.225 -0.239 3.3 -1.283 4.306C1.176 8.5 5.975 10.53 5.473 13.405L4.2 22.724a0.489 0.489 0 0 0 0.488 0.526h14.678a0.489 0.489 0 0 0 0.488 -0.526l-1.631 -9.319c-0.503 -2.873 4.654 -4.905 1.512 -7.921Z" fill="none" stroke="#000000" stroke-linecap="round" stroke-linejoin="round" stroke-width="1"></path></svg>