<svg viewBox="0 0 24 24" xmlns="http://www.w3.org/2000/svg" id="Tank-Top-Pattern--Streamline-Ultimate"><desc>Tank Top Pattern Streamline Icon: https://streamlinehq.com</desc><path d="M20.25 10.994a1.5 1.5 0 0 0 -1 -1.415 3 3 0 0 1 -2 -2.829V1.5a0.75 0.75 0 0 0 -0.75 -0.75H15a0.75 0.75 0 0 0 -0.75 0.75V3a2.25 2.25 0 0 1 -4.5 0V1.5A0.75 0.75 0 0 0 9 0.75H7.5a0.75 0.75 0 0 0 -0.75 0.75v5.25a3 3 0 0 1 -2 2.829 1.5 1.5 0 0 0 -1 1.415V22.5a0.75 0.75 0 0 0 0.75 0.75h15a0.75 0.75 0 0 0 0.75 -0.75Z" fill="none" stroke="#000000" stroke-linecap="round" stroke-linejoin="round" stroke-width="1"></path><path d="m4.411 9.75 15.178 0" fill="none" stroke="#000000" stroke-linecap="round" stroke-linejoin="round" stroke-width="1"></path><path d="m3.75 14.25 16.5 0" fill="none" stroke="#000000" stroke-linecap="round" stroke-linejoin="round" stroke-width="1"></path><path d="m3.75 18.75 16.5 0" fill="none" stroke="#000000" stroke-linecap="round" stroke-linejoin="round" stroke-width="1"></path></svg>