<svg viewBox="0 0 24 24" xmlns="http://www.w3.org/2000/svg" id="Tux--Streamline-Ultimate"><desc>Tux Streamline Icon: https://streamlinehq.com</desc><path d="m0.893 15.75 4.357 0" fill="none" stroke="#000000" stroke-linecap="round" stroke-linejoin="round" stroke-width="1"></path><path d="M20.889 2.758c-2.532 2.476 -2.139 8.492 -2.139 8.492v10.5s-1.5 1.5 -6.75 1.5 -6.75 -1.5 -6.75 -1.5v-10.5s0.393 -6.016 -2.139 -8.492" fill="none" stroke="#000000" stroke-linecap="round" stroke-linejoin="round" stroke-width="1"></path><path d="M18.75 18.75h4.5l-0.571 -12a6 6 0 0 0 -3.63 -5.229L17.25 0.75S15.75 9 12 12C8.25 9 6.75 0.75 6.75 0.75l-1.8 0.771A6 6 0 0 0 1.321 6.75l-0.571 12h4.5" fill="none" stroke="#000000" stroke-linecap="round" stroke-linejoin="round" stroke-width="1"></path><path d="m23.107 15.75 -4.357 0" fill="none" stroke="#000000" stroke-linecap="round" stroke-linejoin="round" stroke-width="1"></path><path d="m12 12 0 11.25" fill="none" stroke="#000000" stroke-linecap="round" stroke-linejoin="round" stroke-width="1"></path><path d="M6.75 0.75A10.376 10.376 0 0 0 12 2.25a10.376 10.376 0 0 0 5.25 -1.5" fill="none" stroke="#000000" stroke-linecap="round" stroke-linejoin="round" stroke-width="1"></path><path d="m11.25 5.25 1.5 0" fill="none" stroke="#000000" stroke-linecap="round" stroke-linejoin="round" stroke-width="1"></path></svg>