<svg viewBox="0 0 24 24" xmlns="http://www.w3.org/2000/svg" id="Vest--Streamline-Ultimate"><desc>Vest Streamline Icon: https://streamlinehq.com</desc><path d="m15.75 0.75 4.5 1.5v4.5a3 3 0 0 0 2 2.829 1.5 1.5 0 0 1 1 1.415v8.446a1.5 1.5 0 0 1 -0.943 1.393l-5.1 2.31a1.5 1.5 0 0 1 -1.457 -0.193L12 18.75v-9c3.75 -1.5 3.75 -9 3.75 -9Z" fill="none" stroke="#000000" stroke-linecap="round" stroke-linejoin="round" stroke-width="1"></path><path d="m15.75 15.75 3 0" fill="none" stroke="#000000" stroke-linecap="round" stroke-linejoin="round" stroke-width="1"></path><path d="m8.25 0.75 -4.5 1.5v4.5a3 3 0 0 1 -2 2.829 1.5 1.5 0 0 0 -1 1.415v8.446a1.5 1.5 0 0 0 0.943 1.393l5.1 2.31a1.5 1.5 0 0 0 1.457 -0.193l3.75 -4.2v-9c-3.75 -1.5 -3.75 -9 -3.75 -9Z" fill="none" stroke="#000000" stroke-linecap="round" stroke-linejoin="round" stroke-width="1"></path><path d="m8.25 15.75 -3 0" fill="none" stroke="#000000" stroke-linecap="round" stroke-linejoin="round" stroke-width="1"></path><path d="m8.25 0.75 7.5 0" fill="none" stroke="#000000" stroke-linecap="round" stroke-linejoin="round" stroke-width="1"></path></svg>