<svg xmlns="http://www.w3.org/2000/svg" fill="none" viewBox="0 0 24 24" id="Vest-Male--Streamline-Ultimate"><desc>Vest Male Streamline Icon: https://streamlinehq.com</desc><path stroke="#000000" stroke-linecap="round" stroke-linejoin="round" d="M8.25 0.75h7.5" stroke-width="1"></path><path stroke="#000000" stroke-linecap="round" stroke-linejoin="round" d="m15.75 0.75 4.5 1.5v4.5c-0.0001 0.62048 0.1922 1.22573 0.5503 1.73239 0.3582 0.50665 0.8647 0.88978 1.4497 1.09661 0.2926 0.10344 0.5459 0.29508 0.725 0.5485 0.1791 0.2534 0.2752 0.5562 0.275 0.8665v8.446c0.0001 0.2998 -0.0898 0.5928 -0.2579 0.8411 -0.168 0.2483 -0.4067 0.4406 -0.6851 0.5519l-5.774 2.31c-0.239 0.0955 -0.4986 0.128 -0.7538 0.0942 -0.2551 -0.0338 -0.4973 -0.1327 -0.7032 -0.2872l-5.326 -4.2v-9c6 -2.25 6 -9 6 -9Z" stroke-width="1"></path><path stroke="#000000" stroke-linecap="round" stroke-linejoin="round" d="M12 8.521C8.251 5.684 8.25 0.75 8.25 0.75l-4.5 1.5v4.5c0.00012 0.62048 -0.19216 1.22573 -0.55034 1.73239C2.84147 8.98904 2.335 9.37217 1.75 9.579c-0.29258 0.10344 -0.54587 0.29508 -0.72497 0.5485 -0.179102 0.2534 -0.275192 0.5562 -0.27503 0.8665v8.446c-0.00005 0.2998 0.089766 0.5928 0.25786 0.8411 0.16808 0.2483 0.40673 0.4406 0.68514 0.5519l5.774 2.31c0.23901 0.0955 0.49859 0.128 0.75376 0.0942s0.49735 -0.1327 0.70324 -0.2872L12 20.525" stroke-width="1"></path><path stroke="#000000" stroke-linecap="round" stroke-linejoin="round" d="M0.75 15.75h4.5" stroke-width="1"></path><path stroke="#000000" stroke-linecap="round" stroke-linejoin="round" d="M18.75 15.75h4.5" stroke-width="1"></path><path stroke="#000000" d="M12.75 13.125c-0.2071 0 -0.375 -0.1679 -0.375 -0.375s0.1679 -0.375 0.375 -0.375" stroke-width="1"></path><path stroke="#000000" d="M12.75 13.125c0.2071 0 0.375 -0.1679 0.375 -0.375s-0.1679 -0.375 -0.375 -0.375" stroke-width="1"></path><g><path stroke="#000000" d="M12.75 16.875c-0.2071 0 -0.375 -0.1679 -0.375 -0.375s0.1679 -0.375 0.375 -0.375" stroke-width="1"></path><path stroke="#000000" d="M12.75 16.875c0.2071 0 0.375 -0.1679 0.375 -0.375s-0.1679 -0.375 -0.375 -0.375" stroke-width="1"></path></g></svg>