<svg viewBox="0 0 24 24" xmlns="http://www.w3.org/2000/svg" id="Loading-Circle-1--Streamline-Ultimate"><desc>Loading Circle 1 Streamline Icon: https://streamlinehq.com</desc><path d="M12 4.447a7.5 7.5 0 1 1 -7.5 7.5" fill="none" stroke="#000000" stroke-linecap="round" stroke-linejoin="round" stroke-width="1"></path><path d="M22.942 14.523a11.42 11.42 0 0 1 -1.087 2.848" fill="none" stroke="#000000" stroke-linecap="round" stroke-linejoin="round" stroke-width="1"></path><path d="M19.814 20.031a12.161 12.161 0 0 1 -2.455 1.81" fill="none" stroke="#000000" stroke-linecap="round" stroke-linejoin="round" stroke-width="1"></path><path d="M12.993 0.747a11.137 11.137 0 0 1 2.971 0.682" fill="none" stroke="#000000" stroke-linecap="round" stroke-linejoin="round" stroke-width="1"></path><path d="M18.888 3.065a10.807 10.807 0 0 1 2.131 2.178" fill="none" stroke="#000000" stroke-linecap="round" stroke-linejoin="round" stroke-width="1"></path><path d="M22.6 8.2a10.5 10.5 0 0 1 0.614 2.984" fill="none" stroke="#000000" stroke-linecap="round" stroke-linejoin="round" stroke-width="1"></path><path d="M14.25 22.972A11.252 11.252 0 0 1 9.75 0.922" fill="none" stroke="#000000" stroke-linecap="round" stroke-linejoin="round" stroke-width="1"></path></svg>