<svg viewBox="0 0 24 24" xmlns="http://www.w3.org/2000/svg" id="Loading-1--Streamline-Ultimate"><desc>Loading 1 Streamline Icon: https://streamlinehq.com</desc><path d="M11.5 7.9a0.534 0.534 0 0 0 1 0l2.436 -6.759a11.289 11.289 0 0 0 -5.876 0Z" fill="none" stroke="#000000" stroke-linecap="round" stroke-linejoin="round" stroke-width="1"></path><path d="M11.5 16.1a0.533 0.533 0 0 1 1 0l2.436 6.759a11.318 11.318 0 0 1 -5.876 0Z" fill="none" stroke="#000000" stroke-linecap="round" stroke-linejoin="round" stroke-width="1"></path><path d="M8.7 14.484a0.534 0.534 0 0 0 -0.5 -0.87l-7.071 1.27a11.3 11.3 0 0 0 2.938 5.089Z" fill="none" stroke="#000000" stroke-linecap="round" stroke-linejoin="round" stroke-width="1"></path><path d="M15.805 10.381a0.534 0.534 0 0 1 -0.5 -0.87l4.635 -5.489a11.287 11.287 0 0 1 2.938 5.089Z" fill="none" stroke="#000000" stroke-linecap="round" stroke-linejoin="round" stroke-width="1"></path><path d="M15.3 14.484a0.534 0.534 0 0 1 0.5 -0.87l7.071 1.27a11.3 11.3 0 0 1 -2.938 5.089Z" fill="none" stroke="#000000" stroke-linecap="round" stroke-linejoin="round" stroke-width="1"></path><path d="M8.2 10.381a0.534 0.534 0 0 0 0.5 -0.87L4.064 4.022a11.287 11.287 0 0 0 -2.938 5.089Z" fill="none" stroke="#000000" stroke-linecap="round" stroke-linejoin="round" stroke-width="1"></path></svg>