<svg viewBox="0 0 24 24" xmlns="http://www.w3.org/2000/svg" id="Loading-3--Streamline-Ultimate"><desc>Loading 3 Streamline Icon: https://streamlinehq.com</desc><path d="M22.394 16.31a11.281 11.281 0 0 0 0 -8.621L17.1 10.766a5.284 5.284 0 0 1 0 2.467Z" fill="none" stroke="#000000" stroke-linecap="round" stroke-linejoin="round" stroke-width="1"></path><path d="M6.75 12a5.283 5.283 0 0 1 0.15 -1.234L1.606 7.689a11.281 11.281 0 0 0 0 8.621L6.9 13.233A5.281 5.281 0 0 1 6.75 12Z" fill="none" stroke="#000000" stroke-linecap="round" stroke-linejoin="round" stroke-width="1"></path><path d="M13.5 6.968a5.236 5.236 0 0 1 2.094 1.205L20.883 5.1A11.238 11.238 0 0 0 13.5 0.849Z" fill="none" stroke="#000000" stroke-linecap="round" stroke-linejoin="round" stroke-width="1"></path><path d="M15.594 15.826a5.238 5.238 0 0 1 -2.094 1.206v6.118a11.238 11.238 0 0 0 7.383 -4.25Z" fill="none" stroke="#000000" stroke-linecap="round" stroke-linejoin="round" stroke-width="1"></path><path d="M8.406 8.173a5.236 5.236 0 0 1 2.094 -1.2V0.849A11.238 11.238 0 0 0 3.117 5.1Z" fill="none" stroke="#000000" stroke-linecap="round" stroke-linejoin="round" stroke-width="1"></path><path d="M10.5 17.032a5.238 5.238 0 0 1 -2.094 -1.206L3.117 18.9a11.238 11.238 0 0 0 7.383 4.25Z" fill="none" stroke="#000000" stroke-linecap="round" stroke-linejoin="round" stroke-width="1"></path></svg>