<svg xmlns="http://www.w3.org/2000/svg" viewBox="0 0 24 24" id="Photography-Equipment-Battery--Streamline-Ultimate"><desc>Photography Equipment Battery Streamline Icon: https://streamlinehq.com</desc><g><path d="m15 4 0 -3.25" fill="none" stroke="#000000" stroke-linecap="round" stroke-linejoin="round" stroke-width="1"></path><path d="M18.75 4V2.25a1.5 1.5 0 0 0 -1.5 -1.5H12.5a1.5 1.5 0 0 0 -1.5 1.5V4H4.5A1.5 1.5 0 0 0 3 5.5v16.25a1.5 1.5 0 0 0 1.5 1.5h15a1.5 1.5 0 0 0 1.5 -1.5V5.5A1.5 1.5 0 0 0 19.5 4Z" fill="none" stroke="#000000" stroke-linecap="round" stroke-linejoin="round" stroke-width="1"></path><path d="m13.5 8.32 -5.59 5.73a0.42 0.42 0 0 0 -0.09 0.45 0.4 0.4 0 0 0 0.37 0.25H11v4.93L16.26 14a0.42 0.42 0 0 0 0.09 -0.45 0.4 0.4 0 0 0 -0.37 -0.25H13.5Z" fill="none" stroke="#000000" stroke-linecap="round" stroke-linejoin="round" stroke-width="1"></path></g></svg>