<svg xmlns="http://www.w3.org/2000/svg" fill="none" viewBox="0 0 24 24" id="Photography-Equipment-Film--Streamline-Ultimate"><desc>Photography Equipment Film Streamline Icon: https://streamlinehq.com</desc><path stroke="#000000" stroke-linecap="round" stroke-linejoin="round" d="M11.75 4.25h-10c-0.55228 0 -1 0.44772 -1 1v17c0 0.5523 0.44772 1 1 1h10c0.5523 0 1 -0.4477 1 -1v-17c0 -0.55228 -0.4477 -1 -1 -1Z" stroke-width="1"></path><path stroke="#000000" stroke-linecap="round" stroke-linejoin="round" d="M5 0.75h3.5c0.26522 0 0.51957 0.105357 0.70711 0.29289 0.18753 0.18754 0.29289 0.44189 0.29289 0.70711v2.5H4v-2.5c0 -0.26522 0.10536 -0.51957 0.29289 -0.70711C4.48043 0.855357 4.73478 0.75 5 0.75Z" stroke-width="1"></path><path stroke="#000000" stroke-linecap="round" stroke-linejoin="round" d="M5 8v15.25" stroke-width="1"></path><path stroke="#000000" stroke-linecap="round" stroke-linejoin="round" d="M0.75 8h12" stroke-width="1"></path><path stroke="#000000" stroke-linecap="round" stroke-linejoin="round" d="M12.75 5.75h9c0.3978 0 0.7794 0.15804 1.0607 0.43934s0.4393 0.66284 0.4393 1.06066V11c0 0.3978 -0.158 0.7794 -0.4393 1.0607s-0.6629 0.4393 -1.0607 0.4393v0c-0.5913 -0.0013 -1.1771 0.1142 -1.7236 0.3399 -0.5466 0.2256 -1.0432 0.5571 -1.4613 0.9752 -0.4181 0.4181 -0.7496 0.9147 -0.9752 1.4613 -0.2257 0.5465 -0.3412 1.1323 -0.3399 1.7236v3.25c0 0.3978 -0.158 0.7794 -0.4393 1.0607s-0.6629 0.4393 -1.0607 0.4393h-3" stroke-width="1"></path><path stroke="#000000" d="M16.0636 9.495c-0.2071 0 -0.375 -0.1679 -0.375 -0.375 0 -0.20711 0.1679 -0.375 0.375 -0.375" stroke-width="1"></path><path stroke="#000000" d="M16.0636 9.495c0.2071 0 0.375 -0.1679 0.375 -0.375 0 -0.20711 -0.1679 -0.375 -0.375 -0.375" stroke-width="1"></path><g><path stroke="#000000" d="M19.8236 9.495c-0.2071 0 -0.375 -0.1679 -0.375 -0.375 0 -0.20711 0.1679 -0.375 0.375 -0.375" stroke-width="1"></path><path stroke="#000000" d="M19.8236 9.495c0.2071 0 0.375 -0.1679 0.375 -0.375 0 -0.20711 -0.1679 -0.375 -0.375 -0.375" stroke-width="1"></path></g></svg>