<svg xmlns="http://www.w3.org/2000/svg" fill="none" viewBox="0 0 24 24" id="Google-Home-1--Streamline-Ultimate"><desc>Google Home 1 Streamline Icon: https://streamlinehq.com</desc><path stroke="#000000" stroke-linecap="round" stroke-linejoin="round" stroke-miterlimit="10" d="M11.95 6.35c3.5899 0 6.5 -1.2536 6.5 -2.8 0 -1.5464 -2.9101 -2.8 -6.5 -2.8 -3.58984 0 -6.49999 1.2536 -6.49999 2.8 0 1.5464 2.91015 2.8 6.49999 2.8Z" stroke-width="1"></path><path stroke="#000000" stroke-linecap="round" stroke-linejoin="round" stroke-miterlimit="10" d="m18.45 3.55 2.7 15.1c0.2 1.2 -0.1 2.3 -0.9 3.2 -0.8 0.9 -1.9 1.4 -3 1.4H6.75c-1.2 0 -2.3 -0.5 -3 -1.4 -0.8 -0.9 -1.09999 -2.1 -0.89999 -3.2l2.6 -15.1" stroke-width="1"></path><path stroke="#000000" stroke-linecap="round" stroke-linejoin="round" stroke-miterlimit="10" d="m3.39062 15.55 17.20308 0" stroke-width="1"></path></svg>