<svg xmlns="http://www.w3.org/2000/svg" viewBox="0 0 24 24" id="Technology-Device-Wearable-Heart-Rate-Monitor--Streamline-Ultimate"><desc>Technology Device Wearable Heart Rate Monitor Streamline Icon: https://streamlinehq.com</desc><defs></defs><path d="M6 13v6.5l-1.709 -0.85a2.447 2.447 0 0 0 -2.623 4.1l0.627 0.5" fill="none" stroke="#000000" stroke-linecap="round" stroke-linejoin="round" stroke-width="1"></path><path d="M17.25 23.25v-2.167a4.482 4.482 0 0 0 -3.745 -4.421l-3.005 -0.5V13" fill="none" stroke="#000000" stroke-linecap="round" stroke-linejoin="round" stroke-width="1"></path><path d="M11.75 13h-7V8.25a3.5 3.5 0 0 1 7 0Z" fill="none" stroke="#000000" stroke-linecap="round" stroke-linejoin="round" stroke-width="1"></path><path d="m18.821 8.5 -3.774 -3.937a2.233 2.233 0 0 1 -0.418 -2.578h0A2.233 2.233 0 0 1 18.2 1.4l0.616 0.617 0.617 -0.617a2.233 2.233 0 0 1 3.576 0.581h0a2.233 2.233 0 0 1 -0.409 2.582Z" fill="none" stroke="#000000" stroke-linecap="round" stroke-linejoin="round" stroke-width="1"></path><path d="M1.764 6.188a4.174 4.174 0 0 1 3.712 -3.712" fill="none" stroke="#000000" stroke-linecap="round" stroke-linejoin="round" stroke-width="1"></path></svg>