<svg xmlns="http://www.w3.org/2000/svg" viewBox="0 0 24 24" id="Technology-Device-Wearable-Vr-Goggles-1--Streamline-Ultimate"><desc>Technology Device Wearable Vr Goggles 1 Streamline Icon: https://streamlinehq.com</desc><defs></defs><path d="M3 13.016a0.545 0.545 0 0 1 0.767 -0.5 20.944 20.944 0 0 0 8.233 1.5 20.944 20.944 0 0 0 8.233 -1.5 0.546 0.546 0 0 1 0.767 0.5v5.12a4.363 4.363 0 0 1 -4.364 4.364H16.1a4.39 4.39 0 0 1 -3.742 -2.116 0.416 0.416 0 0 0 -0.72 0A4.39 4.39 0 0 1 7.9 22.5h-0.536A4.363 4.363 0 0 1 3 18.136v-5.12" fill="none" stroke="#000000" stroke-linecap="round" stroke-linejoin="round" stroke-width="1"></path><path d="M23 6.214a3.046 3.046 0 0 1 -1.477 2.357C19.627 7.157 16.075 6.214 12 6.214s-7.627 0.943 -9.523 2.357A3.046 3.046 0 0 1 1 6.214C1 3.606 5.924 1.5 12 1.5s11 2.106 11 4.714Z" fill="none" stroke="#000000" stroke-linecap="round" stroke-linejoin="round" stroke-width="1"></path><path d="M3 15.213A3.44 3.44 0 0 1 1 12.5V6.214a3.046 3.046 0 0 0 1.477 2.357c1.9 1.415 5.448 2.358 9.523 2.358s7.627 -0.943 9.523 -2.358A3.046 3.046 0 0 0 23 6.214V12.5a3.44 3.44 0 0 1 -2 2.713" fill="none" stroke="#000000" stroke-linecap="round" stroke-linejoin="round" stroke-width="1"></path></svg>