<svg xmlns="http://www.w3.org/2000/svg" viewBox="0 0 24 24" id="Technology-Device-Wearable-Headset--Streamline-Ultimate"><desc>Technology Device Wearable Headset Streamline Icon: https://streamlinehq.com</desc><defs></defs><path d="M21.845 8.93a9.377 9.377 0 0 0 -9.3 -8.18C5.407 0.75 3.866 6.628 1.32 13.23a0.751 0.751 0 0 0 0.7 1.02h1.9v3a3 3 0 0 0 3 3h1.5v3" fill="none" stroke="#000000" stroke-linecap="round" stroke-linejoin="round" stroke-width="1"></path><path d="M10.73 10.924a2.5 2.5 0 1 0 5 0 2.5 2.5 0 1 0 -5 0" fill="none" stroke="#000000" stroke-linecap="round" stroke-linejoin="round" stroke-width="1"></path><path d="m11.73 12.924 -2.25 3.5 -2 0" fill="none" stroke="#000000" stroke-linecap="round" stroke-linejoin="round" stroke-width="1"></path><path d="M14.731 8.924h7a1 1 0 0 1 1 1v2a1 1 0 0 1 -1 1h-7" fill="none" stroke="#000000" stroke-linecap="round" stroke-linejoin="round" stroke-width="1"></path><path d="M18.92 23.25v-6.265a9.409 9.409 0 0 0 2.573 -4.061" fill="none" stroke="#000000" stroke-linecap="round" stroke-linejoin="round" stroke-width="1"></path></svg>