<svg xmlns="http://www.w3.org/2000/svg" fill="none" viewBox="0 0 24 24" id="Technology-Device-Wearable-Vr-Goggles-2--Streamline-Ultimate"><desc>Technology Device Wearable Vr Goggles 2 Streamline Icon: https://streamlinehq.com</desc><path stroke="#000000" stroke-linecap="round" stroke-linejoin="round" d="M3.28451 12.5265c-0.2092 0.5552 -0.42915 1.0851 -0.6491 1.656 -0.04262 0.1111 -0.0576 0.2309 -0.04364 0.349 0.01395 0.1182 0.05643 0.2312 0.12376 0.3293 0.06733 0.0981 0.15751 0.1784 0.26276 0.2339 0.10524 0.0556 0.22241 0.0847 0.34141 0.0849h1.85735v1.9551c0 0.7778 0.30897 1.5237 0.85895 2.0737 0.54998 0.55 1.29592 0.8589 2.07371 0.8589h1.46633V23" stroke-width="1"></path><path stroke="#000000" stroke-linecap="round" stroke-linejoin="round" d="M19.8403 23v-6.1244c1.3508 -1.2513 2.2928 -2.8809 2.7031 -4.6759 0.4103 -1.795 0.2697 -3.67206 -0.4033 -5.38597 -0.673 -1.71391 -1.8472 -3.18504 -3.3692 -4.2213 -1.522 -1.03625 -3.3212 -1.58946 -5.1625 -1.58739 -1.1745 -0.041582 -2.3438 0.17457 -3.4259 0.63325 -1.08199 0.45869 -2.05044 1.14878 -2.83724 2.02178" stroke-width="1"></path><path stroke="#000000" stroke-linecap="round" stroke-linejoin="round" d="M17.9107 10.2918c0 -1.03705 -0.412 -2.03163 -1.1453 -2.76493 -0.7333 -0.73331 -1.7279 -1.14528 -2.765 -1.14528H3.11734c-0.29633 0 -0.58054 0.11772 -0.79008 0.32726C2.11772 6.9184 2 7.2026 2 7.49894v3.91016c0 0.2964 0.11772 0.5806 0.32726 0.7901 0.20954 0.2096 0.49375 0.3273 0.79008 0.3273H10.798c0.4766 0.6804 1.1576 1.1912 1.9442 1.4586 0.7865 0.2673 1.6378 0.2772 2.4303 0.0282s1.4852 -0.744 1.9775 -1.4131c0.4923 -0.6691 0.7588 -1.4777 0.7607 -2.3084v0Z" stroke-width="1"></path><path stroke="#000000" d="M14.1226 10.7806c-0.2699 0 -0.4887 -0.2189 -0.4887 -0.4888 0 -0.27 0.2188 -0.48879 0.4887 -0.48879" stroke-width="1"></path><path stroke="#000000" d="M14.1226 10.7806c0.27 0 0.4888 -0.2189 0.4888 -0.4888 0 -0.27 -0.2188 -0.48879 -0.4888 -0.48879" stroke-width="1"></path><path stroke="#000000" stroke-linecap="round" stroke-linejoin="round" d="M10.6758 6.38159v6.14491" stroke-width="1"></path></svg>