<svg xmlns="http://www.w3.org/2000/svg" viewBox="0 0 24 24" id="Technology-Device-Wearable-Smart-Ring--Streamline-Ultimate"><desc>Technology Device Wearable Smart Ring Streamline Icon: https://streamlinehq.com</desc><defs></defs><path d="M7.1 18.717 5.03 17.69a2.957 2.957 0 0 0 -3.17 4.954l0.757 0.606" fill="none" stroke="#000000" stroke-linecap="round" stroke-linejoin="round" stroke-width="1"></path><path d="m12.511 13.023 0.024 1.664 3.631 0.6a5.416 5.416 0 0 1 4.527 5.344v2.619" fill="none" stroke="#000000" stroke-linecap="round" stroke-linejoin="round" stroke-width="1"></path><path d="M23.25 7.259A7.32 7.32 0 0 0 16.741 0.75" fill="none" stroke="#000000" stroke-linecap="round" stroke-linejoin="round" stroke-width="1"></path><path d="M16.076 4.127a4.27 4.27 0 0 1 3.8 3.8" fill="none" stroke="#000000" stroke-linecap="round" stroke-linejoin="round" stroke-width="1"></path><path d="M14.582 11.489a1.534 1.534 0 0 1 -1.534 1.534H6.605a1.534 1.534 0 0 1 0 -3.068h6.443a1.533 1.533 0 0 1 1.534 1.534Z" fill="none" stroke="#000000" stroke-linecap="round" stroke-linejoin="round" stroke-width="1"></path><path d="M12.535 9.955V5.12a2.72 2.72 0 1 0 -5.439 0v4.835" fill="none" stroke="#000000" stroke-linecap="round" stroke-linejoin="round" stroke-width="1"></path><path d="m7.142 13.023 0 5.65" fill="none" stroke="#000000" stroke-linecap="round" stroke-linejoin="round" stroke-width="1"></path></svg>