<svg viewBox="0 0 24 24" xmlns="http://www.w3.org/2000/svg" id="Login-Key-2--Streamline-Ultimate"><desc>Login Key 2 Streamline Icon: https://streamlinehq.com</desc><path d="M8.25 18v3.1a1.518 1.518 0 0 0 1.5 1.4h12a1.557 1.557 0 0 0 1.5 -1.607V3.111a1.556 1.556 0 0 0 -1.5 -1.611h-12a1.62 1.62 0 0 0 -1.5 1.808V6" fill="none" stroke="#000000" stroke-linecap="round" stroke-linejoin="round" stroke-width="1"></path><path d="m6.75 12.004 12 0 0 3" fill="none" stroke="#000000" stroke-linecap="round" stroke-linejoin="round" stroke-width="1"></path><path d="m15.75 15.004 0 -3" fill="none" stroke="#000000" stroke-linecap="round" stroke-linejoin="round" stroke-width="1"></path><path d="M0.75 12.004a3 3 0 1 0 6 0 3 3 0 1 0 -6 0Z" fill="none" stroke="#000000" stroke-linecap="round" stroke-linejoin="round" stroke-width="1"></path></svg>