<svg xmlns="http://www.w3.org/2000/svg" fill="none" viewBox="0 0 24 24" id="Login-2--Streamline-Ultimate"><desc>Login 2 Streamline Icon: https://streamlinehq.com</desc><path stroke="#000000" d="M8.625 12.3813c-0.20711 0 -0.375 -0.1678 -0.375 -0.375 0 -0.2071 0.16789 -0.375 0.375 -0.375" stroke-width="1"></path><path stroke="#000000" d="M8.625 12.3813c0.20711 0 0.375 -0.1678 0.375 -0.375 0 -0.2071 -0.16789 -0.375 -0.375 -0.375" stroke-width="1"></path><path stroke="#000000" stroke-linecap="round" stroke-linejoin="round" d="M15.75 3h4.5c0.3978 0 0.7794 0.15804 1.0607 0.43934S21.75 4.10218 21.75 4.5v15c0 0.3978 -0.158 0.7794 -0.4393 1.0607S20.6478 21 20.25 21h-4.5" stroke-width="1"></path><path stroke="#000000" stroke-linecap="round" stroke-linejoin="round" d="M11.89 23.24 2.89004 22c-0.17929 -0.0266 -0.3429 -0.1172 -0.46055 -0.2551 -0.11766 -0.1379 -0.1814 -0.3137 -0.17945 -0.4949V3.71996c0.00288 -0.16892 0.0627 -0.33193 0.16979 -0.46261 0.10708 -0.13068 0.25515 -0.22137 0.42021 -0.25739L11.84 0.779962c0.1093 -0.023862 0.2225 -0.022981 0.3314 0.002577 0.1089 0.025557 0.2107 0.075145 0.298 0.145132 0.0872 0.069988 0.1577 0.158599 0.2063 0.259349 0.0485 0.10076 0.0739 0.2111 0.0743 0.32294V22.51c0 0.1073 -0.0234 0.2133 -0.0684 0.3107 -0.0451 0.0974 -0.1109 0.1838 -0.1927 0.2532 -0.0818 0.0695 -0.1777 0.1203 -0.2811 0.149 -0.1035 0.0286 -0.2119 0.0345 -0.3178 0.0171v0Z" stroke-width="1"></path></svg>