<svg viewBox="0 0 24 24" xmlns="http://www.w3.org/2000/svg" id="User-Logout--Streamline-Ultimate"><desc>User Logout Streamline Icon: https://streamlinehq.com</desc><path d="m20.999 2.254 2.25 3 -7.5 0" fill="none" stroke="#000000" stroke-linecap="round" stroke-linejoin="round" stroke-width="1"></path><path d="m21 8.254 2.25 -3" fill="none" stroke="#000000" stroke-linecap="round" stroke-linejoin="round" stroke-width="1"></path><path d="M3.75 3.754a3 3 0 1 0 6 0 3 3 0 1 0 -6 0Z" fill="none" stroke="#000000" stroke-linejoin="round" stroke-width="1"></path><path d="M6.75 7.5a6 6 0 0 0 -6 6v2.25a1.5 1.5 0 0 0 1.5 1.5h1.5v4.5a1.5 1.5 0 0 0 1.5 1.5h3a1.5 1.5 0 0 0 1.5 -1.5v-4.5h1.5a1.5 1.5 0 0 0 1.5 -1.5V13.5a6 6 0 0 0 -6 -6Z" fill="none" stroke="#000000" stroke-linejoin="round" stroke-width="1"></path></svg>