<svg viewBox="0 0 24 24" xmlns="http://www.w3.org/2000/svg" id="Focus-Camera-Auto--Streamline-Ultimate"><desc>Focus Camera Auto Streamline Icon: https://streamlinehq.com</desc><path d="M9.75 17.25V11.8A2.155 2.155 0 0 1 12 9.75a2.155 2.155 0 0 1 2.25 2.05v5.45" fill="none" stroke="#000000" stroke-linecap="round" stroke-linejoin="round" stroke-width="1"></path><path d="m9.75 14.25 4.5 0" fill="none" stroke="#000000" stroke-linecap="round" stroke-linejoin="round" stroke-width="1"></path><path d="m17.52 6 -1.477 -2.309A1.5 1.5 0 0 0 14.779 3H9.221a1.5 1.5 0 0 0 -1.263 0.691L6.48 6H2.25a1.5 1.5 0 0 0 -1.5 1.5v12a1.5 1.5 0 0 0 1.5 1.5h19.5a1.5 1.5 0 0 0 1.5 -1.5v-12a1.5 1.5 0 0 0 -1.5 -1.5Z" fill="none" stroke="#000000" stroke-linecap="round" stroke-linejoin="round" stroke-width="1"></path></svg>