<svg viewBox="0 0 24 24" xmlns="http://www.w3.org/2000/svg" id="Focus-Off--Streamline-Ultimate"><desc>Focus Off Streamline Icon: https://streamlinehq.com</desc><path d="M6 12a6 6 0 1 0 12 0 6 6 0 1 0 -12 0Z" fill="none" stroke="#000000" stroke-linecap="round" stroke-linejoin="round" stroke-width="1"></path><path d="m7.758 16.242 8.484 -8.484" fill="none" stroke="#000000" stroke-linecap="round" stroke-linejoin="round" stroke-width="1"></path><path d="M0.75 4.5V2.25a1.5 1.5 0 0 1 1.5 -1.5H4.5" fill="none" stroke="#000000" stroke-linecap="round" stroke-linejoin="round" stroke-width="1"></path><path d="M23.25 4.5V2.25a1.5 1.5 0 0 0 -1.5 -1.5H19.5" fill="none" stroke="#000000" stroke-linecap="round" stroke-linejoin="round" stroke-width="1"></path><path d="M0.75 19.5v2.25a1.5 1.5 0 0 0 1.5 1.5H4.5" fill="none" stroke="#000000" stroke-linecap="round" stroke-linejoin="round" stroke-width="1"></path><path d="M23.25 19.5v2.25a1.5 1.5 0 0 1 -1.5 1.5H19.5" fill="none" stroke="#000000" stroke-linecap="round" stroke-linejoin="round" stroke-width="1"></path></svg>