<svg viewBox="0 0 24 24" xmlns="http://www.w3.org/2000/svg" id="Candle--Streamline-Ultimate"><desc>Candle Streamline Icon: https://streamlinehq.com</desc><path d="M10.516 0.936a3.74 3.74 0 0 1 0.378 4.264 1.334 1.334 0 0 1 -1.421 -1.138A3.015 3.015 0 0 0 7.91 6.9a3.411 3.411 0 0 0 3.411 3.41 3.457 3.457 0 0 0 3.41 -3.41A5.669 5.669 0 0 0 10.516 0.936Z" fill="none" stroke="#000000" stroke-linecap="round" stroke-linejoin="round" stroke-width="1"></path><path d="M15.75 23.064h-7.5a0.75 0.75 0 0 1 -0.75 -0.75v-6.25a0.749 0.749 0 0 1 0.462 -0.692l7.5 -3.125a0.749 0.749 0 0 1 1.038 0.692v9.375a0.75 0.75 0 0 1 -0.75 0.75Z" fill="none" stroke="#000000" stroke-linecap="round" stroke-linejoin="round" stroke-width="1"></path></svg>