<svg viewBox="0 0 24 24" xmlns="http://www.w3.org/2000/svg" id="Lantern-1--Streamline-Ultimate"><desc>Lantern 1 Streamline Icon: https://streamlinehq.com</desc><path d="M4.875 23.25s1.5 -3 6.75 -3 6.75 3 6.75 3Z" fill="none" stroke="#000000" stroke-linecap="round" stroke-linejoin="round" stroke-width="1"></path><path d="M8.125 16.5h7a1 1 0 0 1 1 1v2.75l0 0h-9l0 0V17.5a1 1 0 0 1 1 -1Z" fill="none" stroke="#000000" stroke-linecap="round" stroke-linejoin="round" stroke-width="1"></path><path d="m16.125 18 3 0" fill="none" stroke="#000000" stroke-linecap="round" stroke-linejoin="round" stroke-width="1"></path><path d="m19.125 16.5 0 2.25" fill="none" stroke="#000000" stroke-linecap="round" stroke-linejoin="round" stroke-width="1"></path><path d="M13.875 11.25a2.25 2.25 0 0 1 -4.5 0c0 -1.243 1.5 -3.75 2.25 -3.75s2.25 2.507 2.25 3.75Z" fill="none" stroke="#000000" stroke-linecap="round" stroke-linejoin="round" stroke-width="1"></path><path d="M7.875 0.75v6.867a5.187 5.187 0 0 0 -1.5 3.633 5.25 5.25 0 0 0 10.5 0 5.187 5.187 0 0 0 -1.5 -3.633V0.75Z" fill="none" stroke="#000000" stroke-linecap="round" stroke-linejoin="round" stroke-width="1"></path></svg>