<svg xmlns="http://www.w3.org/2000/svg" viewBox="0 0 24 24" id="Table-Candles--Streamline-Ultimate"><desc>Table Candles Streamline Icon: https://streamlinehq.com</desc><g><path d="m12 7.5 0 15.75" fill="none" stroke="#000000" stroke-linecap="round" stroke-linejoin="round" stroke-width="1"></path><path d="M14.25 4.8A2.51 2.51 0 0 1 12 7.5a2.51 2.51 0 0 1 -2.25 -2.7c0 -2 2.25 -4 2.25 -4s2.25 1.98 2.25 4Z" fill="none" stroke="#000000" stroke-linecap="round" stroke-linejoin="round" stroke-width="1"></path><path d="M6 7.3A2.51 2.51 0 0 1 3.75 10 2.51 2.51 0 0 1 1.5 7.3c0 -2 2.25 -4 2.25 -4S6 5.28 6 7.3Z" fill="none" stroke="#000000" stroke-linecap="round" stroke-linejoin="round" stroke-width="1"></path><path d="M22.5 7.3a2.51 2.51 0 0 1 -2.25 2.7A2.51 2.51 0 0 1 18 7.3c0 -2 2.25 -4 2.25 -4s2.25 1.98 2.25 4Z" fill="none" stroke="#000000" stroke-linecap="round" stroke-linejoin="round" stroke-width="1"></path><path d="M20.25 10a8.25 8.25 0 0 1 -16.5 0" fill="none" stroke="#000000" stroke-linecap="round" stroke-linejoin="round" stroke-width="1"></path><path d="m8.25 23.25 7.5 0" fill="none" stroke="#000000" stroke-linecap="round" stroke-linejoin="round" stroke-width="1"></path></g></svg>