<svg xmlns="http://www.w3.org/2000/svg" viewBox="0 0 24 24" id="Torch--Streamline-Ultimate"><desc>Torch Streamline Icon: https://streamlinehq.com</desc><g><path d="M10.52 0.75A3.74 3.74 0 0 1 10.89 5a1.34 1.34 0 0 1 -1.42 -1.12 3 3 0 0 0 -1.56 2.84 3.41 3.41 0 0 0 3.41 3.41 3.46 3.46 0 0 0 3.41 -3.41A5.67 5.67 0 0 0 10.52 0.75Z" fill="none" stroke="#000000" stroke-linecap="round" stroke-linejoin="round" stroke-width="1"></path><path d="M15.75 23.25h-7.5a0.76 0.76 0 0 1 -0.75 -0.75v-6.75a0.74 0.74 0 0 1 0.5 -0.69l7.5 -3.13a0.75 0.75 0 0 1 1 0.7v9.87a0.76 0.76 0 0 1 -0.75 0.75Z" fill="none" stroke="#000000" stroke-linecap="round" stroke-linejoin="round" stroke-width="1"></path></g></svg>