<svg xmlns="http://www.w3.org/2000/svg" fill="none" viewBox="0 0 24 24" id="Cliffs-Of-Mother--Streamline-Ultimate"><desc>Cliffs Of Mother Streamline Icon: https://streamlinehq.com</desc><path stroke="#000000" stroke-linecap="round" stroke-linejoin="round" stroke-miterlimit="10" d="M0.75 3.5h3.7v8.0894l2.5 4.2732V23.2M4.45 9.20001h6.3583L11.9299 14.2l1.6199 1v5m-2.0686 -8h4.4955l1 2.6 2 1.4v2.6M16.669 14h6.481M0.849976 23.2H23.15" stroke-width="1"></path><path stroke="#000000" stroke-linecap="round" stroke-linejoin="round" stroke-miterlimit="10" d="M18.25 7.79999c1.1046 0 2 -0.89543 2 -2s-0.8954 -2 -2 -2 -2 0.89543 -2 2 0.8954 2 2 2Z" stroke-width="1"></path><path stroke="#000000" stroke-linecap="round" stroke-linejoin="round" stroke-miterlimit="10" d="M18.25 0.799988v0.400002" stroke-width="1"></path><path stroke="#000000" stroke-linecap="round" stroke-linejoin="round" stroke-miterlimit="10" d="m14.75 2.20001 0.3 0.4" stroke-width="1"></path><path stroke="#000000" stroke-linecap="round" stroke-linejoin="round" stroke-miterlimit="10" d="M13.25 5.79999h0.5" stroke-width="1"></path><path stroke="#000000" stroke-linecap="round" stroke-linejoin="round" stroke-miterlimit="10" d="m21.75 2.20001 -0.3 0.4" stroke-width="1"></path><path stroke="#000000" stroke-linecap="round" stroke-linejoin="round" stroke-miterlimit="10" d="M23.25 5.79999h-0.5" stroke-width="1"></path><path stroke="#000000" stroke-linecap="round" stroke-linejoin="round" stroke-miterlimit="10" d="M18.25 10.8v-0.6" stroke-width="1"></path><path stroke="#000000" stroke-linecap="round" stroke-linejoin="round" stroke-miterlimit="10" d="m21.75 9.29999 -0.3 -0.4" stroke-width="1"></path><path stroke="#000000" stroke-linecap="round" stroke-linejoin="round" stroke-miterlimit="10" d="m14.75 9.29999 0.3 -0.4" stroke-width="1"></path></svg>