<svg xmlns="http://www.w3.org/2000/svg" fill="none" viewBox="0 0 24 24" id="Giants-Causeway-2--Streamline-Ultimate"><desc>Giants Causeway 2 Streamline Icon: https://streamlinehq.com</desc><path stroke="#000000" stroke-linecap="round" stroke-linejoin="round" stroke-miterlimit="10" d="m3.75 1.84999 -3 2 3 2h4l3 -2 -3 -2h-4Z" stroke-width="1"></path><path stroke="#000000" stroke-linecap="round" stroke-linejoin="round" stroke-miterlimit="10" d="M0.75 3.84999V14.05" stroke-width="1"></path><path stroke="#000000" stroke-linecap="round" stroke-linejoin="round" stroke-miterlimit="10" d="M10.75 3.84999V10.25" stroke-width="1"></path><path stroke="#000000" stroke-linecap="round" stroke-linejoin="round" stroke-miterlimit="10" d="m3.75 12.25 -3 2 3 2h4l3 -2 -3 -2h-4Z" stroke-width="1"></path><path stroke="#000000" stroke-linecap="round" stroke-linejoin="round" stroke-miterlimit="10" d="M0.75 14.25v4.9885" stroke-width="1"></path><path stroke="#000000" stroke-linecap="round" stroke-linejoin="round" stroke-miterlimit="10" d="M10.75 14.25v7" stroke-width="1"></path><path stroke="#000000" stroke-linecap="round" stroke-linejoin="round" stroke-miterlimit="10" d="m10.75 10.25 -3 2 3 2h4l3 -2 -3 -2 -4 0Z" stroke-width="1"></path><path stroke="#000000" stroke-linecap="round" stroke-linejoin="round" stroke-miterlimit="10" d="m13.75 19.25 -3 2 3 2h4l3 -2 -3 -2h-4Z" stroke-width="1"></path><path stroke="#000000" stroke-linecap="round" stroke-linejoin="round" stroke-miterlimit="10" d="M0.75 23.25h3l3 -2 -3 -2h-3" stroke-width="1"></path><path stroke="#000000" stroke-linecap="round" stroke-linejoin="round" stroke-miterlimit="10" d="m13.75 23.25 -3 -2 -4 0 -3 2" stroke-width="1"></path><path stroke="#000000" stroke-linecap="round" stroke-linejoin="round" stroke-miterlimit="10" d="M17.75 12.25v7" stroke-width="1"></path><path stroke="#000000" stroke-linecap="round" stroke-linejoin="round" stroke-miterlimit="10" d="M23.25 17.25h-2.5l-3 2 3 2h2.5" stroke-width="1"></path><path stroke="#000000" stroke-linecap="round" stroke-linejoin="round" stroke-miterlimit="10" d="M23.25 2.29965c-1.2558 0 -2.2762 -0.62791 -2.9826 -1.49127 -0.7064 0.86336 -1.7267 1.49127 -2.9825 1.49127s-2.2761 -0.62791 -2.9825 -1.49127c-0.39 0.50138 -0.9381 0.92368 -1.5602 1.1827" stroke-width="1"></path><path stroke="#000000" stroke-linecap="round" stroke-linejoin="round" stroke-miterlimit="10" d="M14.4495 6.90312c0.887 -0.14784 1.7 -0.66525 2.2174 -1.33049 0.6653 0.81308 1.6262 1.4044 2.8088 1.4044 1.1827 0 2.1436 -0.59132 2.8088 -1.4044 0.2218 0.29566 0.5174 0.59133 0.887 0.81307" stroke-width="1"></path></svg>