<svg xmlns="http://www.w3.org/2000/svg" fill="none" viewBox="0 0 24 24" id="Kremlin-Russia--Streamline-Ultimate"><desc>Kremlin Russia Streamline Icon: https://streamlinehq.com</desc><path stroke="#000000" stroke-linecap="round" stroke-linejoin="round" d="M0.911987 23.18v-7.5H10.82v7.5" stroke-width="1"></path><path stroke="#000000" stroke-linecap="round" stroke-linejoin="round" d="M16.189 23.18v-4.5h6.899v4.5" stroke-width="1"></path><path stroke="#000000" stroke-linecap="round" stroke-linejoin="round" d="M9.12499 8.68h-6.518v7h6.518v-7Z" stroke-width="1"></path><path stroke="#000000" stroke-linecap="round" stroke-linejoin="round" d="M1.71997 8.68H10.012" stroke-width="1"></path><path stroke="#000000" stroke-linecap="round" stroke-linejoin="round" d="m2.60699 8.68 3.259 -6 3.259 6" stroke-width="1"></path><path stroke="#000000" stroke-linecap="round" stroke-linejoin="round" d="M16.764 15.68h5.749l-1.15 -3h-3.449l-1.15 3Z" stroke-width="1"></path><path stroke="#000000" stroke-linecap="round" stroke-linejoin="round" d="M17.914 12.68v-2l1.725 -3.5 1.724 3.5v2" stroke-width="1"></path><path stroke="#000000" stroke-linecap="round" stroke-linejoin="round" d="M22.513 15.68h-5.749v3h5.749v-3Z" stroke-width="1"></path><path stroke="#000000" stroke-linecap="round" stroke-linejoin="round" d="M10.82 23.18v-3.5h5.369v3.5" stroke-width="1"></path><path stroke="#000000" stroke-linecap="round" stroke-linejoin="round" d="M7.53497 15.68v2" stroke-width="1"></path><path stroke="#000000" stroke-linecap="round" stroke-linejoin="round" d="M19.639 18.68v1.5" stroke-width="1"></path><path stroke="#000000" stroke-linecap="round" stroke-linejoin="round" d="M4.19598 15.68v2" stroke-width="1"></path><path stroke="#000000" stroke-linecap="round" stroke-linejoin="round" d="M4.91901 1.767h1.894" stroke-width="1"></path><path stroke="#000000" stroke-linecap="round" stroke-linejoin="round" d="M5.86603 0.82v1.895" stroke-width="1"></path><path stroke="#000000" stroke-linecap="round" stroke-linejoin="round" d="M5.86603 12.93c0.41421 0 0.75 -0.3358 0.75 -0.75s-0.33579 -0.75 -0.75 -0.75c-0.41422 0 -0.75 0.3358 -0.75 0.75s0.33578 0.75 0.75 0.75Z" stroke-width="1"></path></svg>