<svg viewBox="0 0 24 24" xmlns="http://www.w3.org/2000/svg" id="Landmark-Gate--Streamline-Ultimate"><desc>Landmark Gate Streamline Icon: https://streamlinehq.com</desc><path d="M2.75 10.5v12a0.75 0.75 0 0 0 0.75 0.75h3a0.75 0.75 0 0 0 0.75 -0.75V21a4.5 4.5 0 0 1 9 0v1.5a0.75 0.75 0 0 0 0.75 0.75h3a0.75 0.75 0 0 0 0.75 -0.75v-12Z" fill="none" stroke="#000000" stroke-linecap="round" stroke-linejoin="round" stroke-width="1"></path><path d="m1.25 9 0 1.5 21 0 0 -1.5" fill="none" stroke="#000000" stroke-linecap="round" stroke-linejoin="round" stroke-width="1"></path><path d="m3.5 7.5 0 -2.25 16.5 0 0 2.25" fill="none" stroke="#000000" stroke-linecap="round" stroke-linejoin="round" stroke-width="1"></path><path d="M9.5 5.25V4.5a2.25 2.25 0 0 1 4.5 0v0.75" fill="none" stroke="#000000" stroke-linecap="round" stroke-linejoin="round" stroke-width="1"></path><path d="m18.5 3 0 2.25" fill="none" stroke="#000000" stroke-linecap="round" stroke-linejoin="round" stroke-width="1"></path><path d="m5 3 0 2.25" fill="none" stroke="#000000" stroke-linecap="round" stroke-linejoin="round" stroke-width="1"></path><path d="M13.577 14.251a10 10 0 0 0 -1.383 -1.188 0.75 0.75 0 0 0 -0.887 0 9.992 9.992 0 0 0 -1.383 1.187" fill="none" stroke="#000000" stroke-linecap="round" stroke-linejoin="round" stroke-width="1"></path><path d="m7.25 5.25 0 2.25" fill="none" stroke="#000000" stroke-linecap="round" stroke-linejoin="round" stroke-width="1"></path><path d="m16.25 5.25 0 2.25" fill="none" stroke="#000000" stroke-linecap="round" stroke-linejoin="round" stroke-width="1"></path><path d="m11.75 2.25 0 -1.5" fill="none" stroke="#000000" stroke-linecap="round" stroke-linejoin="round" stroke-width="1"></path></svg>