<svg xmlns="http://www.w3.org/2000/svg" fill="none" viewBox="0 0 24 24" id="Landmark-Notre-Dame--Streamline-Ultimate"><desc>Landmark Notre Dame Streamline Icon: https://streamlinehq.com</desc><path stroke="#000000" stroke-linecap="round" stroke-linejoin="round" d="M13.5 23.25h-3v-3c0 -0.3978 0.158 -0.7794 0.4393 -1.0607S11.6022 18.75 12 18.75c0.3978 0 0.7794 0.158 1.0607 0.4393s0.4393 0.6629 0.4393 1.0607v3Z" stroke-width="1"></path><path stroke="#000000" stroke-linecap="round" stroke-linejoin="round" d="M19.5 23.25h-3v-3c0 -0.3978 0.158 -0.7794 0.4393 -1.0607S17.6022 18.75 18 18.75c0.3978 0 0.7794 0.158 1.0607 0.4393s0.4393 0.6629 0.4393 1.0607v3Z" stroke-width="1"></path><path stroke="#000000" stroke-linecap="round" stroke-linejoin="round" d="M4.5 23.25h3v-3c0 -0.3978 -0.15804 -0.7794 -0.43934 -1.0607S6.39782 18.75 6 18.75c-0.39782 0 -0.77936 0.158 -1.06066 0.4393 -0.2813 0.2813 -0.43934 0.6629 -0.43934 1.0607v3Z" stroke-width="1"></path><path stroke="#000000" stroke-linecap="round" stroke-linejoin="round" d="M23.25 3.75h-7.5v12h7.5v-12Z" stroke-width="1"></path><path stroke="#000000" stroke-linecap="round" stroke-linejoin="round" d="M8.25 3.75H0.75v12h7.5v-12Z" stroke-width="1"></path><path stroke="#000000" stroke-linecap="round" stroke-linejoin="round" d="M0.75 9.75h22.5" stroke-width="1"></path><path stroke="#000000" stroke-linecap="round" stroke-linejoin="round" d="M0.75 15.75h22.5v7c0 0.1326 -0.0527 0.2598 -0.1464 0.3536 -0.0938 0.0937 -0.221 0.1464 -0.3536 0.1464H1.25c-0.13261 0 -0.259785 -0.0527 -0.353553 -0.1464C0.802678 23.0098 0.75 22.8826 0.75 22.75v-7Z" stroke-width="1"></path><path stroke="#000000" stroke-linecap="round" stroke-linejoin="round" d="M0.75 3.75V1.5c0 -0.19891 0.079018 -0.38968 0.21967 -0.53033C1.11032 0.829018 1.30109 0.75 1.5 0.75h6c0.19891 0 0.38968 0.079018 0.53033 0.21967 0.14065 0.14065 0.21967 0.33142 0.21967 0.53033v2.25" stroke-width="1"></path><path stroke="#000000" stroke-linecap="round" stroke-linejoin="round" d="M15.75 3.75V1.5c0 -0.19891 0.079 -0.38968 0.2197 -0.53033C16.1103 0.829018 16.3011 0.75 16.5 0.75h6c0.1989 0 0.3897 0.079018 0.5303 0.21967 0.1407 0.14065 0.2197 0.33142 0.2197 0.53033v2.25" stroke-width="1"></path><path stroke="#000000" d="M12 13.125c-0.2071 0 -0.375 -0.1679 -0.375 -0.375s0.1679 -0.375 0.375 -0.375" stroke-width="1"></path><path stroke="#000000" d="M12 13.125c0.2071 0 0.375 -0.1679 0.375 -0.375s-0.1679 -0.375 -0.375 -0.375" stroke-width="1"></path></svg>