<svg viewBox="0 0 24 24" xmlns="http://www.w3.org/2000/svg" id="Landmark-Merlion-Statue--Streamline-Ultimate"><desc>Landmark Merlion Statue Streamline Icon: https://streamlinehq.com</desc><path d="M11.25 8.25a1.5 1.5 0 0 0 1.5 1.5h0.75A3.75 3.75 0 0 0 17.25 6" fill="none" stroke="#000000" stroke-linecap="round" stroke-linejoin="round" stroke-width="1"></path><path d="M14.883 18.342C15.6 15.061 13.639 12 9 12l1.5 4.5v0.375a6.375 6.375 0 0 0 12.75 0V5.109a4.358 4.358 0 0 0 -8.493 -1.379l-3.507 0.02a1.5 1.5 0 0 0 -1.5 1.5V6" fill="none" stroke="#000000" stroke-linecap="round" stroke-linejoin="round" stroke-width="1"></path><path d="m14.25 9.675 0 4.669" fill="none" stroke="#000000" stroke-linecap="round" stroke-linejoin="round" stroke-width="1"></path><path d="M18 11.25A6.272 6.272 0 0 0 20.25 6" fill="none" stroke="#000000" stroke-linecap="round" stroke-linejoin="round" stroke-width="1"></path><path d="M20.25 13.5c3 -2.25 3 -7.5 3 -7.5" fill="none" stroke="#000000" stroke-linecap="round" stroke-linejoin="round" stroke-width="1"></path><path d="M7.5 7.5H6a5.251 5.251 0 0 0 -5.25 5.25V18" fill="none" stroke="#000000" stroke-linecap="round" stroke-linejoin="round" stroke-width="1"></path><path d="M6 10.5a2.25 2.25 0 0 0 -2.25 2.25V15" fill="none" stroke="#000000" stroke-linecap="round" stroke-linejoin="round" stroke-width="1"></path></svg>