<svg viewBox="0 0 24 24" xmlns="http://www.w3.org/2000/svg" id="Landmark-Triumph-Gate--Streamline-Ultimate"><desc>Landmark Triumph Gate Streamline Icon: https://streamlinehq.com</desc><path d="M2.25 4.5V21a1.5 1.5 0 0 0 1.5 1.5h3a1.5 1.5 0 0 0 1.5 -1.5v-6.75a3.75 3.75 0 0 1 7.5 0V21a1.5 1.5 0 0 0 1.5 1.5h3a1.5 1.5 0 0 0 1.5 -1.5V4.5" fill="none" stroke="#000000" stroke-linecap="round" stroke-linejoin="round" stroke-width="1"></path><path d="m0.75 7.5 22.5 0" fill="none" stroke="#000000" stroke-linecap="round" stroke-linejoin="round" stroke-width="1"></path><path d="m0.75 15 9 0" fill="none" stroke="#000000" stroke-linecap="round" stroke-linejoin="round" stroke-width="1"></path><path d="m14.25 15 9 0" fill="none" stroke="#000000" stroke-linecap="round" stroke-linejoin="round" stroke-width="1"></path><path d="m4.5 10.5 1.5 0" fill="none" stroke="#000000" stroke-linecap="round" stroke-linejoin="round" stroke-width="1"></path><path d="m18 10.5 1.5 0" fill="none" stroke="#000000" stroke-linecap="round" stroke-linejoin="round" stroke-width="1"></path><path d="m5.25 18 0 1.5" fill="none" stroke="#000000" stroke-linecap="round" stroke-linejoin="round" stroke-width="1"></path><path d="m18.75 18 0 1.5" fill="none" stroke="#000000" stroke-linecap="round" stroke-linejoin="round" stroke-width="1"></path><path d="m0.75 1.5 22.5 0 0 3 -22.5 0Z" fill="none" stroke="#000000" stroke-linecap="round" stroke-linejoin="round" stroke-width="1"></path></svg>