<svg viewBox="0 0 24 24" xmlns="http://www.w3.org/2000/svg" id="Landmark-London-Tower--Streamline-Ultimate"><desc>Landmark London Tower Streamline Icon: https://streamlinehq.com</desc><path d="M8 16.439a3.75 3.75 0 1 0 7.5 0 3.75 3.75 0 1 0 -7.5 0Z" fill="none" stroke="#000000" stroke-linecap="round" stroke-linejoin="round" stroke-width="1"></path><path d="m11.75 14.939 0 2.25" fill="none" stroke="#000000" stroke-linecap="round" stroke-linejoin="round" stroke-width="1"></path><path d="M4.25 9.689h15l0 0v12.5a1 1 0 0 1 -1 1h-13a1 1 0 0 1 -1 -1v-12.5l0 0Z" fill="none" stroke="#000000" stroke-linecap="round" stroke-linejoin="round" stroke-width="1"></path><path d="M12.28 1.22a0.749 0.749 0 0 0 -1.06 0L8.97 3.47a0.747 0.747 0 0 0 -0.22 0.53v1.939l-4.5 3.75h15l-4.5 -3.75V4a0.747 0.747 0 0 0 -0.22 -0.53Z" fill="none" stroke="#000000" stroke-linecap="round" stroke-linejoin="round" stroke-width="1"></path><path d="m11.75 17.189 1.5 0" fill="none" stroke="#000000" stroke-linecap="round" stroke-linejoin="round" stroke-width="1"></path></svg>