<svg xmlns="http://www.w3.org/2000/svg" fill="none" viewBox="0 0 24 24" id="Orthodox-Church-In-Tampere-Finland--Streamline-Ultimate"><desc>Orthodox Church In Tampere Finland Streamline Icon: https://streamlinehq.com</desc><path stroke="#000000" stroke-linecap="round" stroke-linejoin="round" d="M10.5 13.203v-3.5h9v3.5" stroke-width="1"></path><path stroke="#000000" stroke-linecap="round" stroke-linejoin="round" d="M1 16.203v-6.5h5v6.5" stroke-width="1"></path><path stroke="#000000" stroke-linecap="round" stroke-linejoin="round" d="M15.071 13.203H20.5l2.5 3" stroke-width="1"></path><path stroke="#000000" stroke-linecap="round" stroke-linejoin="round" d="M6 16.203v-3h7.929" stroke-width="1"></path><path stroke="#000000" stroke-linecap="round" stroke-linejoin="round" d="m10.5 9.703 1 -2.899h7l1 2.899h-9Z" stroke-width="1"></path><path stroke="#000000" stroke-linecap="round" stroke-linejoin="round" d="M5.25102 2.743c0 1.075 -0.784 1.46 -1.751 1.46 -0.967 0 -1.751 -0.385 -1.751 -1.46s0.875 -1.459 1.751 -1.942997c0.876 0.483997 1.751 0.867997 1.751 1.942997Z" stroke-width="1"></path><path stroke="#000000" stroke-linecap="round" stroke-linejoin="round" d="M10.5 16.203H6l-2.5 -2.5 -2.5 2.5v7h22v-7h-4.5" stroke-width="1"></path><path stroke="#000000" stroke-linecap="round" stroke-linejoin="round" d="M6 16.203v7" stroke-width="1"></path><path stroke="#000000" stroke-linecap="round" stroke-linejoin="round" d="m1 9.703 1.5 -5.5h2l1.5 5.5H1Z" stroke-width="1"></path><path stroke="#000000" stroke-linecap="round" stroke-linejoin="round" d="M12 6.804v-2" stroke-width="1"></path><path stroke="#000000" stroke-linecap="round" stroke-linejoin="round" d="M12 1.601v0.5" stroke-width="1"></path><path stroke="#000000" stroke-linecap="round" stroke-linejoin="round" d="M15 6.804v-2" stroke-width="1"></path><path stroke="#000000" stroke-linecap="round" stroke-linejoin="round" d="M15 1.601v0.5" stroke-width="1"></path><path stroke="#000000" stroke-linecap="round" stroke-linejoin="round" d="M18 6.804v-2" stroke-width="1"></path><path stroke="#000000" stroke-linecap="round" stroke-linejoin="round" d="M18 1.601v0.5" stroke-width="1"></path><path stroke="#000000" stroke-linecap="round" stroke-linejoin="round" d="m14.5 12.703 -4 3.5v7h8v-7l-4 -3.5Z" stroke-width="1"></path></svg>