<svg xmlns="http://www.w3.org/2000/svg" viewBox="0 0 24 24" id="Cog-Double--Streamline-Ultimate"><desc>Cog Double Streamline Icon: https://streamlinehq.com</desc><g><path d="M6 12.15a1.06 1.06 0 0 0 1.56 0l0.5 -0.56a1 1 0 0 1 1.17 -0.26 1.06 1.06 0 0 1 0.65 1l0 0.75a1 1 0 0 0 1.09 1.09l0.75 0a1.06 1.06 0 0 1 1 0.65 1 1 0 0 1 -0.31 1.18l-0.56 0.5a1.06 1.06 0 0 0 0 1.56l0.56 0.5a1 1 0 0 1 0.26 1.17 1.06 1.06 0 0 1 -1 0.65l-0.75 0a1 1 0 0 0 -1.11 1.02l0 0.75a1.06 1.06 0 0 1 -0.65 1A1 1 0 0 1 8 22.91l-0.5 -0.56a1.06 1.06 0 0 0 -1.56 0l-0.5 0.56a1 1 0 0 1 -1.17 0.26 1.06 1.06 0 0 1 -0.65 -1l0 -0.75a1 1 0 0 0 -1.02 -1.11l-0.75 0a1.06 1.06 0 0 1 -1 -0.65 1 1 0 0 1 0.26 -1.17l0.56 -0.5a1.06 1.06 0 0 0 0 -1.56L1.09 16a1 1 0 0 1 -0.26 -1.2 1.06 1.06 0 0 1 1 -0.65l0.75 0a1 1 0 0 0 1.11 -1.05l0 -0.75a1.06 1.06 0 0 1 0.65 -1 1 1 0 0 1 1.17 0.26Z" fill="none" stroke="#000000" stroke-linecap="round" stroke-linejoin="round" stroke-width="1"></path><path d="M5 17.25a1.75 1.75 0 1 0 3.5 0 1.75 1.75 0 1 0 -3.5 0" fill="none" stroke="#000000" stroke-linecap="round" stroke-linejoin="round" stroke-width="1"></path><path d="M16.47 1.65a1.06 1.06 0 0 0 1.56 0l0.5 -0.56A1 1 0 0 1 19.7 0.83a1.06 1.06 0 0 1 0.65 1l0 0.75a1 1 0 0 0 1.05 1.11l0.75 0a1.06 1.06 0 0 1 1 0.65 1 1 0 0 1 -0.26 1.17l-0.56 0.5a1.06 1.06 0 0 0 0 1.56l0.56 0.5a1 1 0 0 1 0.26 1.17 1.06 1.06 0 0 1 -1 0.65l-0.75 0a1 1 0 0 0 -1.09 1.09l0 0.75a1.06 1.06 0 0 1 -0.65 1 1 1 0 0 1 -1.17 -0.26l-0.5 -0.56a1.06 1.06 0 0 0 -1.56 0l-0.5 0.56a1 1 0 0 1 -1.17 0.26 1.06 1.06 0 0 1 -0.65 -1l0 -0.75a1 1 0 0 0 -1.01 -1.17l-0.75 0a1.06 1.06 0 0 1 -1 -0.65A1 1 0 0 1 11.59 8l0.56 -0.5a1.06 1.06 0 0 0 0 -1.56l-0.56 -0.5a1 1 0 0 1 -0.26 -1.17 1.06 1.06 0 0 1 1 -0.65l0.75 0a1 1 0 0 0 1.11 -1.02l0 -0.75a1.06 1.06 0 0 1 0.65 -1 1 1 0 0 1 1.16 0.24Z" fill="none" stroke="#000000" stroke-linecap="round" stroke-linejoin="round" stroke-width="1"></path><path d="M15.5 6.75a1.75 1.75 0 1 0 3.5 0 1.75 1.75 0 1 0 -3.5 0" fill="none" stroke="#000000" stroke-linecap="round" stroke-linejoin="round" stroke-width="1"></path></g></svg>