<svg viewBox="0 0 24 24" xmlns="http://www.w3.org/2000/svg" id="Cog-3--Streamline-Ultimate"><desc>Cog 3 Streamline Icon: https://streamlinehq.com</desc><path d="M10.544 2.439a1.959 1.959 0 0 0 2.908 0l0.94 -1.042A1.959 1.959 0 0 1 17.8 2.81l-0.072 1.4a1.958 1.958 0 0 0 2.057 2.057l1.4 -0.072A1.959 1.959 0 0 1 22.6 9.607l-1.042 0.94a1.959 1.959 0 0 0 0 2.908l1.042 0.94a1.959 1.959 0 0 1 -1.413 3.411l-1.4 -0.072a1.96 1.96 0 0 0 -2.057 2.057l0.072 1.4a1.959 1.959 0 0 1 -3.411 1.413l-0.94 -1.042a1.959 1.959 0 0 0 -2.908 0L9.6 22.605a1.959 1.959 0 0 1 -3.411 -1.413l0.072 -1.4a1.961 1.961 0 0 0 -2.057 -2.057l-1.4 0.072a1.959 1.959 0 0 1 -1.41 -3.407l1.042 -0.94a1.959 1.959 0 0 0 0 -2.908l-1.042 -0.94A1.959 1.959 0 0 1 2.807 6.2l1.4 0.072a1.96 1.96 0 0 0 2.058 -2.061l-0.072 -1.4A1.959 1.959 0 0 1 9.6 1.4Z" fill="none" stroke="#000000" stroke-linecap="round" stroke-linejoin="round" stroke-width="1"></path><path d="M5.998 12.001a6 6 0 1 0 12 0 6 6 0 1 0 -12 0Z" fill="none" stroke="#000000" stroke-linecap="round" stroke-linejoin="round" stroke-width="1"></path><path d="m11.998 6.001 0 6" fill="none" stroke="#000000" stroke-linecap="round" stroke-linejoin="round" stroke-width="1"></path><path d="m11.998 12.001 -4.6 3.85" fill="none" stroke="#000000" stroke-linecap="round" stroke-linejoin="round" stroke-width="1"></path><path d="m11.998 12.001 4.868 3.478" fill="none" stroke="#000000" stroke-linecap="round" stroke-linejoin="round" stroke-width="1"></path></svg>