<svg xmlns="http://www.w3.org/2000/svg" fill="none" viewBox="0 0 24 24" id="Cog-Double-2--Streamline-Ultimate"><desc>Cog Double 2 Streamline Icon: https://streamlinehq.com</desc><path stroke="#000000" stroke-linecap="round" stroke-linejoin="round" d="M7.77069 9.50524c-0.16705 -0.07398 -0.31678 -0.18208 -0.43957 -0.31736l-0.63 -0.7c-0.17992 -0.20304 -0.41887 -0.34471 -0.68334 -0.40516 -0.26448 -0.06044 -0.54124 -0.03662 -0.79151 0.06811 -0.25026 0.10474 -0.46149 0.28515 -0.60408 0.51595 -0.14259 0.2308 -0.2094 0.50043 -0.19107 0.7711v0.93002c0.01013 0.1826 -0.01837 0.3652 -0.08364 0.536 -0.06527 0.1708 -0.16583 0.3259 -0.29513 0.4552 -0.12929 0.1293 -0.2844 0.2299 -0.45521 0.2951 -0.1708 0.0653 -0.35345 0.0938 -0.53602 0.0837l-0.94 -0.05c-0.26959 -0.0126 -0.53649 0.0584 -0.76421 0.2032 -0.22772 0.1449 -0.405148 0.3565 -0.508018 0.606 -0.102869 0.2496 -0.126162 0.5248 -0.066696 0.788 0.059467 0.2633 0.198791 0.5017 0.398924 0.6828l0.7 0.62c0.13815 0.1269 0.24788 0.2816 0.32199 0.454 0.07411 0.1723 0.11092 0.3584 0.10801 0.546 0.0042 0.1878 -0.03202 0.3742 -0.10622 0.5468 -0.07419 0.1725 -0.18461 0.3271 -0.32378 0.4532l-0.7 0.63c-0.199601 0.1813 -0.338403 0.4197 -0.397463 0.6828 -0.05906 0.2631 -0.0355 0.538 0.067463 0.7872 0.103005 0.2483 0.28044 0.4585 0.50788 0.6018 0.22744 0.1433 0.4937 0.2125 0.76212 0.1982h0.94c0.18257 -0.0101 0.36522 0.0184 0.53602 0.0836 0.17081 0.0653 0.32592 0.1659 0.45521 0.2951 0.1293 0.1293 0.22986 0.2845 0.29513 0.4553s0.09377 0.3534 0.08364 0.536v0.93c-0.01602 0.2698 0.05245 0.5379 0.1959 0.767 0.14344 0.2291 0.35472 0.4077 0.60445 0.5111 0.24972 0.1034 0.52546 0.1265 0.78887 0.0658 0.2634 -0.0606 0.50136 -0.2018 0.68078 -0.4039l0.63 -0.69c0.12279 -0.1353 0.27252 -0.2434 0.43957 -0.3174 0.16706 -0.0739 0.34773 -0.1122 0.53043 -0.1122 0.1827 0 0.36338 0.0383 0.53043 0.1122 0.16705 0.074 0.31678 0.1821 0.43957 0.3174l0.63 0.69c0.17938 0.2021 0.41738 0.3433 0.68078 0.4039 0.2634 0.0607 0.5392 0.0376 0.7889 -0.0658 0.2497 -0.1034 0.461 -0.282 0.6044 -0.5111 0.1435 -0.2291 0.2119 -0.4972 0.1959 -0.767v-0.93c-0.0101 -0.1826 0.0184 -0.3652 0.0837 -0.536 0.0652 -0.1708 0.1658 -0.326 0.2951 -0.4553 0.1293 -0.1292 0.2844 -0.2298 0.4552 -0.2951 0.1708 -0.0652 0.3535 -0.0937 0.536 -0.0836h0.94c0.2684 0.0143 0.5347 -0.0549 0.7621 -0.1982 0.2275 -0.1433 0.4049 -0.3535 0.5079 -0.6018 0.103 -0.2492 0.1265 -0.5241 0.0675 -0.7872 -0.0591 -0.2631 -0.1979 -0.5015 -0.3975 -0.6828l-0.7 -0.63c-0.1391 -0.1261 -0.2496 -0.2807 -0.3238 -0.4532 -0.0742 -0.1726 -0.1104 -0.359 -0.1062 -0.5468 -0.0029 -0.1876 0.0339 -0.3737 0.108 -0.546 0.0741 -0.1724 0.1839 -0.3271 0.322 -0.454l0.7 -0.62c0.2002 -0.1811 0.3395 -0.4195 0.3989 -0.6828 0.0595 -0.2632 0.0362 -0.5384 -0.0667 -0.788 -0.1028 -0.2495 -0.2802 -0.4611 -0.508 -0.606 -0.2277 -0.1448 -0.4946 -0.2158 -0.7642 -0.2032l-0.94 0.05c-0.1825 0.0101 -0.3652 -0.0184 -0.536 -0.0837 -0.1708 -0.0652 -0.3259 -0.1658 -0.4552 -0.2951 -0.1293 -0.1293 -0.2299 -0.2844 -0.2951 -0.4552 -0.0653 -0.1708 -0.0938 -0.3534 -0.0837 -0.536v-0.93002c0.0184 -0.27067 -0.0485 -0.5403 -0.1911 -0.7711 -0.1425 -0.2308 -0.3538 -0.41121 -0.604 -0.51595 -0.2503 -0.10473 -0.5271 -0.12855 -0.7915 -0.06811 -0.2645 0.06045 -0.5035 0.20212 -0.68338 0.40516l-0.63 0.7c-0.12279 0.13528 -0.27252 0.24338 -0.43957 0.31736 -0.16705 0.07398 -0.34773 0.11219 -0.53043 0.11219 -0.1827 0 -0.36337 -0.03821 -0.53043 -0.11219Z" stroke-width="1"></path><path stroke="#000000" stroke-linecap="round" stroke-linejoin="round" d="M8.30114 17.4379c1.0383 0 1.87996 -0.8417 1.87996 -1.88s-0.84166 -1.88 -1.87996 -1.88c-1.03829 0 -1.88 0.8417 -1.88 1.88s0.84171 1.88 1.88 1.88Z" stroke-width="1"></path><path stroke="#000000" d="M18.1565 6.23828c-0.2761 0 -0.5 -0.22386 -0.5 -0.5s0.2239 -0.5 0.5 -0.5" stroke-width="1"></path><path stroke="#000000" d="M18.1565 6.23828c0.2761 0 0.5 -0.22386 0.5 -0.5s-0.2239 -0.5 -0.5 -0.5" stroke-width="1"></path><path stroke="#000000" stroke-linecap="round" stroke-linejoin="round" d="M16.1347 1.83506c0.0062 -0.21168 0.0805 -0.41571 0.2119 -0.58181 0.1314 -0.16609 0.3128 -0.285399 0.5173 -0.34021 0.2046 -0.05481 0.4214 -0.042202 0.6182 0.035952 0.1968 0.078158 0.3632 0.217688 0.4744 0.397898l0.5945 0.95424c0.0983 0.15846 0.2532 0.27366 0.4332 0.3223 0.1801 0.04864 0.3719 0.02709 0.5367 -0.0603l0.9871 -0.52584c0.1875 -0.09875 0.4016 -0.1348 0.6111 -0.10286 0.2094 0.03195 0.4031 0.1302 0.5525 0.28033 0.1495 0.15014 0.2469 0.34424 0.2779 0.55381 0.031 0.20957 -0.006 0.42357 -0.1056 0.61055l-0.5268 0.99107c-0.0876 0.16526 -0.1094 0.35755 -0.061 0.53822 0.0484 0.18066 0.1634 0.3363 0.3219 0.43563l0.9493 0.59706c0.1798 0.11214 0.3188 0.27896 0.3967 0.47596 0.078 0.197 0.0907 0.41379 0.0363 0.61855 -0.0544 0.20475 -0.173 0.38668 -0.3384 0.51906 -0.1654 0.13238 -0.3689 0.20823 -0.5806 0.21643l-1.1178 0.03819c-0.1864 0.00671 -0.3633 0.08395 -0.4949 0.2161s-0.2081 0.30934 -0.2141 0.49576l-0.0355 1.11998c-0.0063 0.21168 -0.0806 0.41567 -0.212 0.58177 -0.1313 0.1661 -0.3128 0.2854 -0.5173 0.3402 -0.2046 0.0549 -0.4213 0.0422 -0.6182 -0.0359 -0.1968 -0.0782 -0.3632 -0.2177 -0.4744 -0.3979l-0.5951 -0.95405c-0.0982 -0.15845 -0.253 -0.27368 -0.4329 -0.32236 -0.1799 -0.04867 -0.3716 -0.02717 -0.5363 0.06016l-0.9879 0.52603c-0.1874 0.09876 -0.4016 0.13481 -0.611 0.10286 -0.2095 -0.03194 -0.4031 -0.13019 -0.5526 -0.28033 -0.1495 -0.15013 -0.2469 -0.34424 -0.2779 -0.55381 -0.031 -0.20957 0.006 -0.42356 0.1056 -0.61055l0.5243 -0.99191c0.0876 -0.16527 0.1094 -0.35756 0.061 -0.53822 -0.0484 -0.18067 -0.1634 -0.33631 -0.3219 -0.43564l-0.9493 -0.594c-0.1797 -0.11215 -0.3188 -0.27897 -0.3967 -0.47597 -0.0779 -0.19699 -0.0906 -0.41379 -0.0363 -0.61855 0.0544 -0.20475 0.173 -0.38668 0.3384 -0.51905 0.1654 -0.13238 0.3689 -0.20824 0.5806 -0.21643l1.1186 -0.03839c0.1862 -0.00671 0.363 -0.08394 0.4945 -0.21607 0.1315 -0.13213 0.2079 -0.30928 0.2137 -0.49559l0.0388 -1.12237Z" stroke-width="1"></path></svg>