<svg xmlns="http://www.w3.org/2000/svg" viewBox="0 0 24 24" id="Hammer-Wrench--Streamline-Ultimate"><desc>Hammer Wrench Streamline Icon: https://streamlinehq.com</desc><g><g><path d="m8.31 10.42 -1.05 -1a4.55 4.55 0 0 1 -6.07 -6.09l1.43 1.42a1.51 1.51 0 0 0 2.14 -2.14L3.34 1.19a4.57 4.57 0 0 1 5.18 0.89" fill="none" stroke="#000000" stroke-linecap="round" stroke-linejoin="round" stroke-width="1"></path><path d="m15.82 13.64 0.92 0.91a4.55 4.55 0 0 1 6.07 6.05l-1.43 -1.42a1.51 1.51 0 0 0 -2.14 2.14l1.42 1.42a4.57 4.57 0 0 1 -5.18 -0.89 4.52 4.52 0 0 1 -0.88 -5.16l-0.93 -0.92" fill="none" stroke="#000000" stroke-linecap="round" stroke-linejoin="round" stroke-width="1"></path></g><g><path d="M1.44 22.59h0a2.24 2.24 0 0 1 0 -3.16l4.7 -4.68a0.74 0.74 0 0 1 1.06 0l2.12 2.11a0.74 0.74 0 0 1 0 1.05l-4.7 4.68a2.25 2.25 0 0 1 -3.18 0Z" fill="none" stroke="#000000" stroke-linecap="round" stroke-linejoin="round" stroke-width="1"></path><path d="m16.59 1.19 6.22 6.2a1.5 1.5 0 0 1 0 2.11l-2.12 2.11a1.51 1.51 0 0 1 -2.12 0l-6.22 -6.2a1.5 1.5 0 0 1 0 -2.11l2.12 -2.11a1.49 1.49 0 0 1 2.12 0Z" fill="none" stroke="#000000" stroke-linecap="round" stroke-linejoin="round" stroke-width="1"></path><path d="M15.53 8.58 8.16 15.7" fill="none" stroke="#000000" stroke-linecap="round" stroke-linejoin="round" stroke-width="1"></path></g></g></svg>