<svg viewBox="0 0 24 24" xmlns="http://www.w3.org/2000/svg" id="Screwdriver--Streamline-Ultimate"><desc>Screwdriver Streamline Icon: https://streamlinehq.com</desc><path d="m12.233 13.887 -2.121 -2.121a1.5 1.5 0 0 0 -2.122 0L1.627 18.13a3 3 0 0 0 4.242 4.242l6.364 -6.364a1.5 1.5 0 0 0 0 -2.121Z" fill="none" stroke="#000000" stroke-linecap="round" stroke-linejoin="round" stroke-width="1"></path><path d="M19.029 1.455a1.58 1.58 0 0 1 2.432 -0.241l1.324 1.324a1.58 1.58 0 0 1 -0.241 2.432l-2.472 1.649a1.941 1.941 0 0 1 -2.692 -2.692Z" fill="none" stroke="#000000" stroke-linecap="round" stroke-linejoin="round" stroke-width="1"></path><path d="m17.623 6.376 -6.451 6.451" fill="none" stroke="#000000" stroke-linecap="round" stroke-linejoin="round" stroke-width="1"></path></svg>