<svg viewBox="0 0 24 24" xmlns="http://www.w3.org/2000/svg" id="Beach-Sunbed--Streamline-Ultimate"><desc>Beach Sunbed Streamline Icon: https://streamlinehq.com</desc><path d="M22.851 12.972a2.25 2.25 0 0 0 -3.129 -0.574L15 15.75H5.25a2.25 2.25 0 0 0 0 4.5h10.5a2.235 2.235 0 0 0 1.521 -0.6l5.007 -3.55a2.25 2.25 0 0 0 0.573 -3.128Z" fill="none" stroke="#000000" stroke-linecap="round" stroke-linejoin="round" stroke-width="1"></path><path d="m5.998 20.25 -0.75 3" fill="none" stroke="#000000" stroke-linecap="round" stroke-linejoin="round" stroke-width="1"></path><path d="m16.498 20.25 1.5 3" fill="none" stroke="#000000" stroke-linecap="round" stroke-linejoin="round" stroke-width="1"></path><path d="M4.5 5.946a2.25 2.25 0 1 0 4.5 0 2.25 2.25 0 1 0 -4.5 0Z" fill="none" stroke="#000000" stroke-linecap="round" stroke-linejoin="round" stroke-width="1"></path><path d="m11.25 5.946 1.5 0" fill="none" stroke="#000000" stroke-linecap="round" stroke-linejoin="round" stroke-width="1"></path><path d="m2.25 5.946 -1.5 0" fill="none" stroke="#000000" stroke-linecap="round" stroke-linejoin="round" stroke-width="1"></path><path d="M9 2.049 9.75 0.75" fill="none" stroke="#000000" stroke-linecap="round" stroke-linejoin="round" stroke-width="1"></path><path d="m4.5 9.843 -0.75 1.299" fill="none" stroke="#000000" stroke-linecap="round" stroke-linejoin="round" stroke-width="1"></path><path d="M4.5 2.049 3.75 0.75" fill="none" stroke="#000000" stroke-linecap="round" stroke-linejoin="round" stroke-width="1"></path><path d="m9 9.843 0.75 1.299" fill="none" stroke="#000000" stroke-linecap="round" stroke-linejoin="round" stroke-width="1"></path></svg>