<svg viewBox="0 0 24 24" xmlns="http://www.w3.org/2000/svg" id="Beach-Person-Water-Parasol--Streamline-Ultimate"><desc>Beach Person Water Parasol Streamline Icon: https://streamlinehq.com</desc><path d="M2.25 9a2.25 2.25 0 1 0 4.5 0 2.25 2.25 0 1 0 -4.5 0Z" fill="none" stroke="#000000" stroke-linecap="round" stroke-linejoin="round" stroke-width="1"></path><path d="m15.065 18.686 -1.657 -1.657L9.961 19.9a1.5 1.5 0 0 1 -2.181 -0.281l-2.389 -3.342 -0.961 1.682" fill="none" stroke="#000000" stroke-linecap="round" stroke-linejoin="round" stroke-width="1"></path><path d="M0.909 19.421a1.494 1.494 0 0 1 0.039 -1.415l3 -5.25A1.5 1.5 0 0 1 5.174 12a1.477 1.477 0 0 1 1.3 0.627l2.811 3.935 3.257 -2.716a1.5 1.5 0 0 1 2.022 0.092l3.75 3.75" fill="none" stroke="#000000" stroke-linecap="round" stroke-linejoin="round" stroke-width="1"></path><path d="M18 3.75c0 -1.657 -3.358 -3 -7.5 -3S3 2.093 3 3.75Z" fill="none" stroke="#000000" stroke-linecap="round" stroke-linejoin="round" stroke-width="1"></path><path d="m10.5 3.75 0 8.25" fill="none" stroke="#000000" stroke-linecap="round" stroke-linejoin="round" stroke-width="1"></path><path d="M0.75 23.25a4.666 4.666 0 0 0 3.75 -1.9 4.649 4.649 0 0 0 7.5 0 4.649 4.649 0 0 0 7.5 0 4.666 4.666 0 0 0 3.75 1.9" fill="none" stroke="#000000" stroke-linecap="round" stroke-linejoin="round" stroke-width="1"></path></svg>