<svg viewBox="0 0 24 24" xmlns="http://www.w3.org/2000/svg" id="Beach-Palm--Streamline-Ultimate"><desc>Beach Palm Streamline Icon: https://streamlinehq.com</desc><path d="M23.25 21.75c0 -2.485 -5.037 -4.5 -11.25 -4.5S0.75 19.265 0.75 21.75v1.5h22.5Z" fill="none" stroke="#000000" stroke-linecap="round" stroke-linejoin="round" stroke-width="1"></path><path d="m15.634 8.477 -0.811 8.916" fill="none" stroke="#000000" stroke-linecap="round" stroke-linejoin="round" stroke-width="1"></path><path d="m8.487 17.474 5.247 -9.619" fill="none" stroke="#000000" stroke-linecap="round" stroke-linejoin="round" stroke-width="1"></path><path d="m13.734 7.855 8.276 2.709a0.751 0.751 0 0 0 0.975 -0.861 4.73 4.73 0 0 0 -3.6 -4.016 6.82 6.82 0 0 0 -2.4 -0.082" fill="none" stroke="#000000" stroke-linecap="round" stroke-linejoin="round" stroke-width="1"></path><path d="M13.734 7.855 6.2 9.9a0.75 0.75 0 0 1 -0.934 -0.873 4.756 4.756 0 0 1 3.616 -4.09 6.347 6.347 0 0 1 3.112 0.079" fill="none" stroke="#000000" stroke-linecap="round" stroke-linejoin="round" stroke-width="1"></path><path d="m18.578 5.567 3.1 -3.116a0.747 0.747 0 0 0 -0.21 -1.211 4.869 4.869 0 0 0 -5.088 0.51 3.708 3.708 0 0 0 -1.28 2.01" fill="none" stroke="#000000" stroke-linecap="round" stroke-linejoin="round" stroke-width="1"></path><path d="m10.179 4.784 -1.95 -2.116a0.748 0.748 0 0 1 0.393 -1.242 13.158 13.158 0 0 1 2.51 -0.239A5.081 5.081 0 0 1 15.1 3.76" fill="none" stroke="#000000" stroke-linecap="round" stroke-linejoin="round" stroke-width="1"></path></svg>