<svg viewBox="0 0 24 24" xmlns="http://www.w3.org/2000/svg" id="Beach-Swim--Streamline-Ultimate"><desc>Beach Swim Streamline Icon: https://streamlinehq.com</desc><path d="m0.75 23.248 1.36 -0.907a1.958 1.958 0 0 1 2.171 0l0.764 0.509a1.952 1.952 0 0 0 2.17 0l0.764 -0.509a1.956 1.956 0 0 1 2.17 0l0.764 0.509a1.954 1.954 0 0 0 2.171 0l0.764 -0.509a1.956 1.956 0 0 1 2.17 0l0.764 0.509a1.952 1.952 0 0 0 2.17 0l0.764 -0.509a1.958 1.958 0 0 1 2.171 0l1.363 0.909" fill="none" stroke="#000000" stroke-linecap="round" stroke-linejoin="round" stroke-width="1"></path><path d="M2.712 19.558 2.25 17.25l7.5 0 -0.462 2.308" fill="none" stroke="#000000" stroke-linecap="round" stroke-linejoin="round" stroke-width="1"></path><path d="M8.25 17.25V15a2.25 2.25 0 0 0 -4.5 0v2.25" fill="none" stroke="#000000" stroke-linecap="round" stroke-linejoin="round" stroke-width="1"></path><path d="M14.625 3.375a2.625 2.625 0 1 0 5.25 0 2.625 2.625 0 1 0 -5.25 0Z" fill="none" stroke="#000000" stroke-linecap="round" stroke-linejoin="round" stroke-width="1"></path><path d="m17.25 18 0 5.077" fill="none" stroke="#000000" stroke-linecap="round" stroke-linejoin="round" stroke-width="1"></path><path d="m14.25 22.138 0 -9.886" fill="none" stroke="#000000" stroke-linecap="round" stroke-linejoin="round" stroke-width="1"></path><path d="M14.25 15a1.5 1.5 0 0 1 -3 0v-3a4.5 4.5 0 0 1 4.5 -4.5h3a4.5 4.5 0 0 1 4.5 4.5v3a1.5 1.5 0 0 1 -3 0v7.093" fill="none" stroke="#000000" stroke-linecap="round" stroke-linejoin="round" stroke-width="1"></path><path d="m20.25 15 0 -3" fill="none" stroke="#000000" stroke-linecap="round" stroke-linejoin="round" stroke-width="1"></path><path d="m14.25 16.5 3 1.5 3 -1.5" fill="none" stroke="#000000" stroke-linecap="round" stroke-linejoin="round" stroke-width="1"></path><path d="m14.25 14.25 6 0" fill="none" stroke="#000000" stroke-linecap="round" stroke-linejoin="round" stroke-width="1"></path></svg>