<svg viewBox="0 0 24 24" xmlns="http://www.w3.org/2000/svg" id="Beach-Palm-Water--Streamline-Ultimate"><desc>Beach Palm Water Streamline Icon: https://streamlinehq.com</desc><path d="M21 18.55a20.2 20.2 0 0 0 -9 -1.8 20.2 20.2 0 0 0 -9 1.8" fill="none" stroke="#000000" stroke-linecap="round" stroke-linejoin="round" stroke-width="1"></path><path d="m15.752 8.477 -0.767 8.433" fill="none" stroke="#000000" stroke-linecap="round" stroke-linejoin="round" stroke-width="1"></path><path d="m8.906 16.922 4.946 -9.067" fill="none" stroke="#000000" stroke-linecap="round" stroke-linejoin="round" stroke-width="1"></path><path d="m13.852 7.855 8.276 2.709A0.75 0.75 0 0 0 23.1 9.7a4.73 4.73 0 0 0 -3.6 -4.016 6.814 6.814 0 0 0 -2.4 -0.082" fill="none" stroke="#000000" stroke-linecap="round" stroke-linejoin="round" stroke-width="1"></path><path d="M13.852 7.855 6.317 9.9a0.75 0.75 0 0 1 -0.934 -0.873A4.756 4.756 0 0 1 9 4.937a6.347 6.347 0 0 1 3.112 0.079" fill="none" stroke="#000000" stroke-linecap="round" stroke-linejoin="round" stroke-width="1"></path><path d="m18.7 5.567 3.1 -3.116a0.747 0.747 0 0 0 -0.21 -1.211 4.871 4.871 0 0 0 -5.089 0.51 3.7 3.7 0 0 0 -1.282 2.01" fill="none" stroke="#000000" stroke-linecap="round" stroke-linejoin="round" stroke-width="1"></path><path d="M10.3 4.784 8.348 2.668a0.747 0.747 0 0 1 0.392 -1.242 13.166 13.166 0 0 1 2.51 -0.239 5.084 5.084 0 0 1 3.968 2.573" fill="none" stroke="#000000" stroke-linecap="round" stroke-linejoin="round" stroke-width="1"></path><path d="M0.75 23.25a5.511 5.511 0 0 0 4.5 -1.5 4.547 4.547 0 0 0 6.75 0 4.547 4.547 0 0 0 6.75 0 5.511 5.511 0 0 0 4.5 1.5" fill="none" stroke="#000000" stroke-linecap="round" stroke-linejoin="round" stroke-width="1"></path></svg>