<svg xmlns="http://www.w3.org/2000/svg" viewBox="0 0 24 24" id="Outdoor-Beach--Streamline-Ultimate"><desc>Outdoor Beach Streamline Icon: https://streamlinehq.com</desc><defs></defs><title>outdoor-beach</title><path d="M7.363 7.669A50.031 50.031 0 0 0 4.656 23.25" fill="none" stroke="#000000" stroke-linecap="round" stroke-linejoin="round" stroke-width="1"></path><path d="M13.97 17.966c-2.579 0 -7.56 -0.8 -8.7 -1.965a9.765 9.765 0 0 0 8.775 6.388A10.3 10.3 0 0 0 23.23 16c-1.137 1.17 -6.681 1.966 -9.26 1.966Z" fill="none" stroke="#000000" stroke-linecap="round" stroke-linejoin="round" stroke-width="1"></path><path d="M16.659 8.48c-1.711 -3.08 -5.986 -4.98 -9.296 -0.811" fill="none" stroke="#000000" stroke-linecap="round" stroke-linejoin="round" stroke-width="1"></path><path d="M13.285 11.292c-0.6 -2.19 -2.472 -3.941 -5.922 -3.623" fill="none" stroke="#000000" stroke-linecap="round" stroke-linejoin="round" stroke-width="1"></path><path d="M14.86 1.568c-3.388 -0.646 -7.141 0.937 -7.5 6.1" fill="none" stroke="#000000" stroke-linecap="round" stroke-linejoin="round" stroke-width="1"></path><path d="M0.77 6.325C2.629 4.606 5.835 4.21 7.426 7.669" fill="none" stroke="#000000" stroke-linecap="round" stroke-linejoin="round" stroke-width="1"></path><path d="M1.162 0.8C4.607 0.4 8.469 2.56 7.426 7.669" fill="none" stroke="#000000" stroke-linecap="round" stroke-linejoin="round" stroke-width="1"></path></svg>