<svg xmlns="http://www.w3.org/2000/svg" viewBox="0 0 24 24" id="House-Nature--Streamline-Ultimate"><desc>House Nature Streamline Icon: https://streamlinehq.com</desc><g><path d="m11.25 15.38 0 7.87" fill="none" stroke="#000000" stroke-linecap="round" stroke-linejoin="round" stroke-width="1"></path><path d="m2.25 23.25 0 -7.87" fill="none" stroke="#000000" stroke-linecap="round" stroke-linejoin="round" stroke-width="1"></path><path d="m0.75 16.5 6 -4.5 6 4.5" fill="none" stroke="#000000" stroke-linecap="round" stroke-linejoin="round" stroke-width="1"></path><path d="M21.75 17.25a3 3 0 0 1 -6 0c0 -4.5 3 -10.5 3 -10.5s3 6 3 10.5Z" fill="none" stroke="#000000" stroke-linecap="round" stroke-linejoin="round" stroke-width="1"></path><path d="m18.75 20.25 0 3" fill="none" stroke="#000000" stroke-linecap="round" stroke-linejoin="round" stroke-width="1"></path><path d="m0.75 23.25 22.5 0" fill="none" stroke="#000000" stroke-linecap="round" stroke-linejoin="round" stroke-width="1"></path><path d="M5.25 23.25v-3a1.5 1.5 0 0 1 3 0v3" fill="none" stroke="#000000" stroke-linecap="round" stroke-linejoin="round" stroke-width="1"></path><path d="M8.25 6.75a2.25 2.25 0 0 0 0 -4.5A2.23 2.23 0 0 0 6.63 3a3 3 0 1 0 -2.88 3.8Z" fill="none" stroke="#000000" stroke-linecap="round" stroke-linejoin="round" stroke-width="1"></path></g></svg>