<svg viewBox="0 0 24 24" xmlns="http://www.w3.org/2000/svg" id="Family-Outdoors-Teeter--Streamline-Ultimate"><desc>Family Outdoors Teeter Streamline Icon: https://streamlinehq.com</desc><path d="M0.75 19.408a18.758 18.758 0 0 1 22.5 0" fill="none" stroke="#000000" stroke-linecap="round" stroke-linejoin="round" stroke-width="1"></path><path d="M10.5 15.719V8.91a1.5 1.5 0 0 1 3 0v6.809" fill="none" stroke="#000000" stroke-linecap="round" stroke-linejoin="round" stroke-width="1"></path><path d="m10.5 10.766 -7.516 2.041A1.5 1.5 0 0 1 2.2 9.912l1.448 -0.393a1.5 1.5 0 0 1 1.841 1.055l0.393 1.447" fill="none" stroke="#000000" stroke-linecap="round" stroke-linejoin="round" stroke-width="1"></path><path d="m18.183 8.681 -0.393 -1.448a1.5 1.5 0 0 1 1.055 -1.841l2.171 -0.592a1.5 1.5 0 1 1 0.784 2.9l-8.3 2.252" fill="none" stroke="#000000" stroke-linecap="round" stroke-linejoin="round" stroke-width="1"></path></svg>