<svg viewBox="0 0 24 24" xmlns="http://www.w3.org/2000/svg" id="Family-Outdoors-Swing-Tree--Streamline-Ultimate"><desc>Family Outdoors Swing Tree Streamline Icon: https://streamlinehq.com</desc><path d="M21 11.25a2.25 2.25 0 1 0 -0.81 -4.344A3.741 3.741 0 0 0 16.5 3.75a3.7 3.7 0 0 0 -0.5 0.05A5.242 5.242 0 0 0 6 6c0 0.111 0.026 0.215 0.033 0.324A2.995 2.995 0 1 0 3.75 11.25Z" fill="none" stroke="#000000" stroke-linecap="round" stroke-linejoin="round" stroke-width="1"></path><path d="m8.25 11.25 0 12" fill="none" stroke="#000000" stroke-linecap="round" stroke-linejoin="round" stroke-width="1"></path><path d="M8.25 18c-3.6 0 -4.5 -2.25 -4.5 -3.75" fill="none" stroke="#000000" stroke-linecap="round" stroke-linejoin="round" stroke-width="1"></path><path d="m13.5 11.25 0 9.75" fill="none" stroke="#000000" stroke-linecap="round" stroke-linejoin="round" stroke-width="1"></path><path d="m19.5 11.25 0 9.75" fill="none" stroke="#000000" stroke-linecap="round" stroke-linejoin="round" stroke-width="1"></path><path d="m12 21 9 0" fill="none" stroke="#000000" stroke-linecap="round" stroke-linejoin="round" stroke-width="1"></path></svg>