<svg xmlns="http://www.w3.org/2000/svg" viewBox="0 0 24 24" id="Family-Outdoors-Playhouse-Swing--Streamline-Ultimate"><desc>Family Outdoors Playhouse Swing Streamline Icon: https://streamlinehq.com</desc><defs></defs><title>family-outdoors-playhouse-swing</title><path d="M0.75 22.949V11.7a0.75 0.75 0 0 1 0.75 -0.75h12.75" fill="none" stroke="#000000" stroke-linecap="round" stroke-linejoin="round" stroke-width="1"></path><path d="M15 22.949a0.75 0.75 0 0 1 -0.75 -0.75V7.2h9v15a0.75 0.75 0 0 1 -0.75 0.75Z" fill="none" stroke="#000000" stroke-linecap="round" stroke-linejoin="round" stroke-width="1"></path><path d="m14.25 7.2 3.876 -5.814a0.75 0.75 0 0 1 1.248 0L23.25 7.2" fill="none" stroke="#000000" stroke-linecap="round" stroke-linejoin="round" stroke-width="1"></path><path d="m3.75 20.699 7.5 0" fill="none" stroke="#000000" stroke-linecap="round" stroke-linejoin="round" stroke-width="1"></path><path d="m9.75 10.949 0 9.75" fill="none" stroke="#000000" stroke-linecap="round" stroke-linejoin="round" stroke-width="1"></path><path d="m5.25 10.949 0 9.75" fill="none" stroke="#000000" stroke-linecap="round" stroke-linejoin="round" stroke-width="1"></path><path d="M17.25 12.449a1.5 1.5 0 1 0 3 0 1.5 1.5 0 1 0 -3 0" fill="none" stroke="#000000" stroke-linecap="round" stroke-linejoin="round" stroke-width="1"></path></svg>