<svg xmlns="http://www.w3.org/2000/svg" viewBox="0 0 24 24" id="Playground-2--Streamline-Ultimate"><desc>Playground 2 Streamline Icon: https://streamlinehq.com</desc><defs></defs><title>playground-2</title><path d="M0.75 20.9V7.193A4.092 4.092 0 0 1 4.841 3.1h14.318a4.092 4.092 0 0 1 4.091 4.093V20.9" fill="none" stroke="#000000" stroke-linecap="round" stroke-linejoin="round" stroke-width="1"></path><path d="M6.886 20.9V7.193A4.092 4.092 0 0 1 10.977 3.1h2.046a4.092 4.092 0 0 1 4.091 4.091V20.9" fill="none" stroke="#000000" stroke-linecap="round" stroke-linejoin="round" stroke-width="1"></path><path d="m0.75 8.193 6.136 0" fill="none" stroke="#000000" stroke-linecap="round" stroke-linejoin="round" stroke-width="1"></path><path d="m0.75 13.063 6.136 0" fill="none" stroke="#000000" stroke-linecap="round" stroke-linejoin="round" stroke-width="1"></path><path d="m0.75 17.932 6.136 0" fill="none" stroke="#000000" stroke-linecap="round" stroke-linejoin="round" stroke-width="1"></path><path d="m17.114 8.193 6.136 0" fill="none" stroke="#000000" stroke-linecap="round" stroke-linejoin="round" stroke-width="1"></path><path d="m17.114 13.063 6.136 0" fill="none" stroke="#000000" stroke-linecap="round" stroke-linejoin="round" stroke-width="1"></path><path d="m17.114 17.932 6.136 0" fill="none" stroke="#000000" stroke-linecap="round" stroke-linejoin="round" stroke-width="1"></path></svg>