<svg xmlns="http://www.w3.org/2000/svg" fill="none" viewBox="0 0 24 24" id="3d-Rotation-Z-Axis--Streamline-Ultimate"><desc>3d Rotation Z Axis Streamline Icon: https://streamlinehq.com</desc><path stroke="#000000" stroke-linecap="round" d="M2.48145 12.025c0 0.9237 0.12902 1.8173 0.37003 2.6637m1.39134 -8.24125c1.7564 -2.49755 4.6605 -4.12958 7.94578 -4.12958 5.3611 0 9.7072 4.34604 9.7072 9.70713 0 3.0618 -1.4176 5.7925 -3.6322 7.5716M3.9874 17.2205c0.47067 0.7414 1.0391 1.4147 1.68716 2.0016m2.17065 1.4865c0.82154 0.4118 1.70961 0.7103 2.64379 0.8753m2.6934 0.098c0.9497 -0.0965 1.8589 -0.33 2.7076 -0.6804" stroke-width="1"></path><path stroke="#000000" d="M10.237 12.025a1.951 1.951 0 1 0 3.902 0 1.951 1.951 0 1 0 -3.902 0" stroke-width="1"></path><path stroke="#000000" stroke-linecap="round" stroke-linejoin="round" d="m6.97702 6.80447 -3.24862 0.00035V3.55586" stroke-width="1"></path></svg>