<svg xmlns="http://www.w3.org/2000/svg" fill="none" viewBox="0 0 24 24" id="Align-To-Selection--Streamline-Ultimate"><desc>Align To Selection Streamline Icon: https://streamlinehq.com</desc><path stroke="#000000" stroke-linejoin="round" d="m20.1523 20.1534 -16.30684 0 0 -16.30684 16.30684 0 0 16.30684Z" stroke-width="1"></path><path stroke="#000000" stroke-linejoin="round" d="m3.84766 3.84729 -2.999819 0 0 -2.999815 2.999819 0 0 2.999815Z" stroke-width="1"></path><path stroke="#000000" stroke-linejoin="round" d="m3.84766 13.4999 -2.999819 0 0 -2.9998 2.999819 0 0 2.9998Z" stroke-width="1"></path><path stroke="#000000" stroke-linejoin="round" d="m23.1523 13.4999 -2.9998 0 0 -2.9998 2.9998 0 0 2.9998Z" stroke-width="1"></path><path stroke="#000000" stroke-linejoin="round" d="m3.84766 23.1526 -2.999819 0 0 -2.9998 2.999819 0 0 2.9998Z" stroke-width="1"></path><path stroke="#000000" stroke-linejoin="round" d="m23.1523 3.84729 -2.9998 0 0 -2.999817 2.9998 0 0 2.999817Z" stroke-width="1"></path><path stroke="#000000" stroke-linejoin="round" d="m23.1523 23.1526 -2.9998 0 0 -2.9998 2.9998 0 0 2.9998Z" stroke-width="1"></path><path stroke="#000000" stroke-linejoin="round" d="m13.498 3.84729 -2.999 0 0 -2.999015 2.999 0 0 2.999015Z" stroke-width="1"></path><path stroke="#000000" stroke-linejoin="round" d="m13.498 23.1526 -2.999 0 0 -2.999 2.999 0 0 2.999Z" stroke-width="1"></path></svg>