<svg xmlns="http://www.w3.org/2000/svg" fill="none" viewBox="0 0 24 24" id="Column-Delete--Streamline-Ultimate"><desc>Column Delete Streamline Icon: https://streamlinehq.com</desc><path stroke="#000000" stroke-linejoin="round" d="M9.02441 21.9966c0 0.5523 -0.44771 1 -1 1l-5.54283 0c-0.55229 0 -1 -0.4477 -1 -1l0 -17.57851c0 -0.55228 0.44771 -1 1 -1l5.54283 0c0.55229 0 1 0.44772 1 1l0 17.57851Z" stroke-width="1"></path><path stroke="#000000" stroke-linecap="round" stroke-linejoin="round" d="m15.4173 3.41809 -1.9006 0c-0.5523 0 -1 0.44772 -1 1l0 17.57851c0 0.5523 0.4477 1 1 1l5.5429 0c0.5523 0 1 -0.4477 1 -1l0 -13.00146" stroke-width="1"></path><path stroke="#000000" stroke-linecap="round" stroke-linejoin="round" d="m17.6025 1.00342 4.9161 4.91565" stroke-width="1"></path><path stroke="#000000" stroke-linecap="round" stroke-linejoin="round" d="m22.5186 1.00342 -4.9161 4.91565" stroke-width="1"></path></svg>