<svg xmlns="http://www.w3.org/2000/svg" fill="none" viewBox="0 0 24 24" id="Compare--Streamline-Ultimate"><desc>Compare Streamline Icon: https://streamlinehq.com</desc><path stroke="#000000" stroke-linejoin="round" d="M11.999 15.5823c0 0.5523 -0.4477 1 -1 1l-8.95424 0c-0.55229 0 -1 -0.4477 -1 -1l0 -13.56069c0 -0.55229 0.44771 -1 1 -1l8.95424 0c0.5523 0 1 0.44771 1 1l0 13.56069Z" stroke-width="1"></path><path stroke="#000000" stroke-linejoin="round" d="M11.999 8.41772c0 -0.55228 0.4477 -1 1 -1l8.9543 0.00001c0.5523 0 1 0.44771 1 1l0 13.56067c0 0.5523 -0.4477 1 -1 1l-8.9543 0c-0.5523 0 -1 -0.4477 -1 -1l0 -13.56068Z" stroke-width="1"></path><path stroke="#000000" stroke-linecap="round" stroke-linejoin="round" d="m5.71777 11.0793 2.27759 -2.27738 -2.27759 -2.27759" stroke-width="1"></path><path stroke="#000000" stroke-linecap="round" stroke-linejoin="round" d="m18.2803 12.9207 -2.2776 2.2774 2.2776 2.2776" stroke-width="1"></path><path stroke="#000000" stroke-linecap="round" stroke-linejoin="round" d="m7.99512 8.80176 -6.95204 0.00026" stroke-width="1"></path><path stroke="#000000" stroke-linecap="round" stroke-linejoin="round" d="m16.0029 15.1982 6.9521 -0.0002" stroke-width="1"></path></svg>