<svg xmlns="http://www.w3.org/2000/svg" viewBox="0 0 24 24" id="Design-Tool-Pencil-Ruler--Streamline-Ultimate"><desc>Design Tool Pencil Ruler Streamline Icon: https://streamlinehq.com</desc><g><path d="M5.25 23.25h0a3 3 0 0 1 -3 -3V6.53a3 3 0 0 1 0.32 -1.34l2 -4a0.75 0.75 0 0 1 1.34 0l2 4a3 3 0 0 1 0.32 1.34v13.72a3 3 0 0 1 -2.98 3Z" fill="none" stroke="#000000" stroke-linecap="round" stroke-linejoin="round" stroke-width="1"></path><path d="m2.25 6.5 6 0" fill="none" stroke="#000000" stroke-linecap="round" stroke-linejoin="round" stroke-width="1"></path><path d="m2.25 18.5 6 0" fill="none" stroke="#000000" stroke-linecap="round" stroke-linejoin="round" stroke-width="1"></path><path d="M14.25 0.75h6s1.5 0 1.5 1.5v19.5s0 1.5 -1.5 1.5h-6s-1.5 0 -1.5 -1.5V2.25s0 -1.5 1.5 -1.5" fill="none" stroke="#000000" stroke-linecap="round" stroke-linejoin="round" stroke-width="1"></path><path d="m12.75 5.25 3.5 0" fill="none" stroke="#000000" stroke-linecap="round" stroke-linejoin="round" stroke-width="1"></path><path d="m12.75 9.75 3.5 0" fill="none" stroke="#000000" stroke-linecap="round" stroke-linejoin="round" stroke-width="1"></path><path d="m12.75 14.25 3.5 0" fill="none" stroke="#000000" stroke-linecap="round" stroke-linejoin="round" stroke-width="1"></path><path d="m12.75 18.75 3.5 0" fill="none" stroke="#000000" stroke-linecap="round" stroke-linejoin="round" stroke-width="1"></path></g></svg>