<svg viewBox="0 0 24 24" xmlns="http://www.w3.org/2000/svg" id="Design-Tool-Ink--Streamline-Ultimate"><desc>Design Tool Ink Streamline Icon: https://streamlinehq.com</desc><path d="m3 0.75 18 0 0 6 -18 0Z" fill="none" stroke="#000000" stroke-linecap="round" stroke-linejoin="round" stroke-width="1"></path><path d="M19.872 10.248A4.205 4.205 0 0 1 18 6.75H6a4.205 4.205 0 0 1 -1.872 3.5l-0.624 0.416a4.5 4.5 0 0 0 -2 3.744v5.84a3 3 0 0 0 3 3h15a3 3 0 0 0 3 -3v-5.842a4.5 4.5 0 0 0 -2 -3.744Z" fill="none" stroke="#000000" stroke-linecap="round" stroke-linejoin="round" stroke-width="1"></path><path d="m7.5 0.75 0 6" fill="none" stroke="#000000" stroke-linecap="round" stroke-linejoin="round" stroke-width="1"></path><path d="m16.5 0.75 0 6" fill="none" stroke="#000000" stroke-linecap="round" stroke-linejoin="round" stroke-width="1"></path><path d="m12 0.75 0 6" fill="none" stroke="#000000" stroke-linecap="round" stroke-linejoin="round" stroke-width="1"></path><path d="M14.25 16.5A2.025 2.025 0 0 1 12 18.75a2.025 2.025 0 0 1 -2.25 -2.25c0 -1.657 2.25 -3.75 2.25 -3.75s2.25 2.093 2.25 3.75Z" fill="none" stroke="#000000" stroke-linecap="round" stroke-linejoin="round" stroke-width="1"></path></svg>