<svg viewBox="0 0 24 24" xmlns="http://www.w3.org/2000/svg" id="Design-Tool-Magic-Wand--Streamline-Ultimate"><desc>Design Tool Magic Wand Streamline Icon: https://streamlinehq.com</desc><path d="m22.151 2.85 -1.259 3.439 2.121 2.122a0.735 0.735 0 0 1 -0.541 1.273l-3.653 -0.029 -1.319 3.363a0.785 0.785 0 0 1 -1.485 -0.1L14.932 9.07 11.08 7.991a0.786 0.786 0 0 1 -0.1 -1.486l3.363 -1.323 -0.029 -3.653a0.734 0.734 0 0 1 1.274 -0.543l2.122 2.121 3.441 -1.257a0.8 0.8 0 0 1 1 1Z" fill="none" stroke="#000000" stroke-linecap="round" stroke-linejoin="round" stroke-width="1"></path><path d="M14.932 9.07 0.75 23.25" fill="none" stroke="#000000" stroke-linecap="round" stroke-linejoin="round" stroke-width="1"></path></svg>