<svg viewBox="0 0 24 24" xmlns="http://www.w3.org/2000/svg" id="Design-Tool-Magnet--Streamline-Ultimate"><desc>Design Tool Magnet Streamline Icon: https://streamlinehq.com</desc><path d="m19.03 9.919 -6.805 6.805a3.5 3.5 0 0 1 -4.949 0h0a3.5 3.5 0 0 1 0 -4.949l6.805 -6.805a0.874 0.874 0 0 0 0 -1.237l-2.474 -2.475a0.877 0.877 0 0 0 -1.238 0l-6.8 6.805a8.747 8.747 0 0 0 0 12.372h0a8.747 8.747 0 0 0 12.372 0l6.805 -6.8a0.877 0.877 0 0 0 0 -1.238l-2.479 -2.478a0.874 0.874 0 0 0 -1.237 0Z" fill="none" stroke="#000000" stroke-linecap="round" stroke-linejoin="round" stroke-width="1"></path><path d="m7.276 4.351 3.712 3.712" fill="none" stroke="#000000" stroke-linecap="round" stroke-linejoin="round" stroke-width="1"></path><path d="m15.937 13.012 3.712 3.712" fill="none" stroke="#000000" stroke-linecap="round" stroke-linejoin="round" stroke-width="1"></path></svg>