<svg viewBox="0 0 24 24" xmlns="http://www.w3.org/2000/svg" id="Design-Tool-Paper-Glue--Streamline-Ultimate"><desc>Design Tool Paper Glue Streamline Icon: https://streamlinehq.com</desc><path d="m9.255 20.067 -5.3 -5.3a0.749 0.749 0 0 1 0 -1.06l9.714 -9.714 6.364 6.364 -9.714 9.714a0.752 0.752 0 0 1 -1.064 -0.004Z" fill="none" stroke="#000000" stroke-linecap="round" stroke-linejoin="round" stroke-width="1"></path><path d="m9.145 19.957 -5.083 -5.084 -2.769 2.768C-0.94 19.875 4.272 25.427 6.8 22.3Z" fill="none" stroke="#000000" stroke-linecap="round" stroke-linejoin="round" stroke-width="1"></path><path d="m20.03 10.353 -6.364 -6.364 2.781 -2.781a1.5 1.5 0 0 1 2.121 0l4.243 4.242a1.5 1.5 0 0 1 0 2.122Z" fill="none" stroke="#000000" stroke-linecap="round" stroke-linejoin="round" stroke-width="1"></path><path d="m20.78 3.42 -3.842 3.841" fill="none" stroke="#000000" stroke-linecap="round" stroke-linejoin="round" stroke-width="1"></path><path d="m13.737 10.462 -2.561 2.562" fill="none" stroke="#000000" stroke-linecap="round" stroke-linejoin="round" stroke-width="1"></path></svg>