<svg xmlns="http://www.w3.org/2000/svg" viewBox="0 0 24 24" id="Design-Tool-Compass--Streamline-Ultimate"><desc>Design Tool Compass Streamline Icon: https://streamlinehq.com</desc><g><path d="M15 6.75h-4.5V3A2.25 2.25 0 0 1 12.75 0.75h0A2.25 2.25 0 0 1 15 3Z" fill="none" stroke="#000000" stroke-linecap="round" stroke-linejoin="round" stroke-width="1"></path><path d="M4.75 18.25v2l-2 3 -2 -3V7.75a2 2 0 0 1 2 -2h0a2 2 0 0 1 2 2v6" fill="none" stroke="#000000" stroke-linecap="round" stroke-linejoin="round" stroke-width="1"></path><path d="m21.8 19.84 1.45 1.91" fill="none" stroke="#000000" stroke-linecap="round" stroke-linejoin="round" stroke-width="1"></path><path d="M0.75 18.25H6l9 -11.5 7.22 10.5a1.89 1.89 0 0 1 -0.42 2.59h0a1.89 1.89 0 0 1 -2.67 -0.41l-6.65 -9.32" fill="none" stroke="#000000" stroke-linecap="round" stroke-linejoin="round" stroke-width="1"></path><path d="m10.5 6.75 -5.75 7 -4 0" fill="none" stroke="#000000" stroke-linecap="round" stroke-linejoin="round" stroke-width="1"></path></g></svg>