<svg viewBox="0 0 24 24" xmlns="http://www.w3.org/2000/svg" id="Design-Tool-Glue-1--Streamline-Ultimate"><desc>Design Tool Glue 1 Streamline Icon: https://streamlinehq.com</desc><path d="m16.02 13.8 -5.278 -9.077 6.484 -3.77a1.5 1.5 0 0 1 2.051 0.543l3.77 6.484a1.5 1.5 0 0 1 -0.543 2.051Z" fill="none" stroke="#000000" stroke-linecap="round" stroke-linejoin="round" stroke-width="1"></path><path d="m16.02 13.8 -5.278 -9.077L8.36 9.578l2.262 3.891 5.398 0.331z" fill="none" stroke="#000000" stroke-linecap="round" stroke-linejoin="round" stroke-width="1"></path><path d="m4.681 15.188 -0.754 -1.297L8.36 9.578l2.262 3.891 -5.941 1.719z" fill="none" stroke="#000000" stroke-linecap="round" stroke-linejoin="round" stroke-width="1"></path><path d="M2.688 16.979 0.955 20.446a1.936 1.936 0 0 0 0.363 2.236h0a1.937 1.937 0 0 0 2.74 0h0a1.936 1.936 0 0 0 0.363 -2.236Z" fill="none" stroke="#000000" stroke-linecap="round" stroke-linejoin="round" stroke-width="1"></path></svg>