<svg xmlns="http://www.w3.org/2000/svg" fill="none" viewBox="0 0 24 24" id="Edit-Shape-Object--Streamline-Ultimate"><desc>Edit Shape Object Streamline Icon: https://streamlinehq.com</desc><path stroke="#000000" stroke-linecap="round" stroke-linejoin="round" stroke-miterlimit="10" d="M10.7556 8.91388h8.6614" stroke-width="1"></path><path stroke="#000000" stroke-linecap="round" stroke-linejoin="round" stroke-miterlimit="10" d="M10.7556 21.3585h8.6614" stroke-width="1"></path><path stroke="#000000" stroke-linecap="round" stroke-linejoin="round" stroke-miterlimit="10" d="M21.3086 10.8054c1.0447 0 1.8915 -0.84694 1.8915 -1.89164 0 -1.04469 -0.8468 -1.8916 -1.8915 -1.8916s-1.8916 0.84691 -1.8916 1.8916c0 1.0447 0.8469 1.89164 1.8916 1.89164Z" stroke-width="1"></path><path stroke="#000000" stroke-linecap="round" stroke-linejoin="round" stroke-miterlimit="10" d="M15.1361 4.53322c1.0447 0 1.8916 -0.84692 1.8916 -1.89161C17.0277 1.59692 16.1808 0.75 15.1361 0.75s-1.8916 0.84692 -1.8916 1.89161c0 1.04469 0.8469 1.89161 1.8916 1.89161Z" stroke-width="1"></path><path stroke="#000000" stroke-linecap="round" stroke-linejoin="round" stroke-miterlimit="10" d="M2.69147 4.53322c1.0447 0 1.89158 -0.84692 1.89158 -1.89161C4.58305 1.59692 3.73617 0.75 2.69147 0.75 1.64678 0.75 0.799866 1.59692 0.799866 2.64161c0 1.04469 0.846914 1.89161 1.891604 1.89161Z" stroke-width="1"></path><path stroke="#000000" stroke-linecap="round" stroke-linejoin="round" stroke-miterlimit="10" d="M2.69147 17.0774c1.0447 0 1.89158 -0.8469 1.89158 -1.8916s-0.84688 -1.8915 -1.89158 -1.8915c-1.04469 0 -1.891604 0.8468 -1.891604 1.8915s0.846914 1.8916 1.891604 1.8916Z" stroke-width="1"></path><path stroke="#000000" stroke-linecap="round" stroke-linejoin="round" stroke-miterlimit="10" d="M21.3086 23.25c1.0447 0 1.8915 -0.8469 1.8915 -1.8916s-0.8468 -1.8916 -1.8915 -1.8916 -1.8916 0.8469 -1.8916 1.8916 0.8469 1.8916 1.8916 1.8916Z" stroke-width="1"></path><path stroke="#000000" stroke-linecap="round" stroke-linejoin="round" stroke-miterlimit="10" d="m21.3085 10.8054 0 8.6614" stroke-width="1"></path><path stroke="#000000" stroke-linecap="round" stroke-linejoin="round" stroke-miterlimit="10" d="m8.86383 10.8054 0 8.6614" stroke-width="1"></path><path stroke="#000000" stroke-linecap="round" stroke-linejoin="round" stroke-miterlimit="10" d="m4.58304 2.64172 8.66136 0" stroke-width="1"></path><path stroke="#000000" stroke-linecap="round" stroke-linejoin="round" stroke-miterlimit="10" d="m4.58304 15.1858 4.28088 0" stroke-width="1"></path><path stroke="#000000" stroke-linecap="round" stroke-linejoin="round" stroke-miterlimit="10" d="M15.136 4.5332v4.38054" stroke-width="1"></path><path stroke="#000000" stroke-linecap="round" stroke-linejoin="round" stroke-miterlimit="10" d="M2.69135 4.5332v8.7611" stroke-width="1"></path><path stroke="#000000" stroke-linecap="round" stroke-linejoin="round" stroke-miterlimit="10" d="M8.86393 10.8054c1.04469 0 1.89157 -0.84694 1.89157 -1.89164 0 -1.04469 -0.84688 -1.8916 -1.89157 -1.8916 -1.04469 0 -1.89158 0.84691 -1.89158 1.8916 0 1.0447 0.84689 1.89164 1.89158 1.89164Z" stroke-width="1"></path><path stroke="#000000" stroke-linecap="round" stroke-linejoin="round" stroke-miterlimit="10" d="M8.86393 23.25c1.04469 0 1.89157 -0.8469 1.89157 -1.8916s-0.84688 -1.8916 -1.89157 -1.8916c-1.04469 0 -1.89158 0.8469 -1.89158 1.8916S7.81924 23.25 8.86393 23.25Z" stroke-width="1"></path></svg>