<svg xmlns="http://www.w3.org/2000/svg" fill="none" viewBox="0 0 24 24" id="Gallery-View--Streamline-Ultimate"><desc>Gallery View Streamline Icon: https://streamlinehq.com</desc><path stroke="#000000" stroke-linejoin="round" d="M23.1357 14.1658c0 0.5523 -0.4477 1 -1 1l-20.27147 0c-0.55228 0 -1.000001 -0.4477 -1.000001 -1l0 -10.75369c0 -0.55229 0.447711 -1 1.000001 -1l20.27147 0c0.5523 0 1 0.44771 1 1l0 10.75369Z" stroke-width="1"></path><path stroke="#000000" stroke-linejoin="round" d="M4.27246 20.5879c0 0.5523 -0.44771 1 -1 1l-1.40772 0c-0.55229 0 -1.000002 -0.4477 -1.000002 -1l0 -1.513c0 -0.5522 0.447712 -1 1.000002 -1l1.40772 0c0.55229 0 1 0.4478 1 1l0 1.513Z" stroke-width="1"></path><path stroke="#000000" stroke-linejoin="round" d="M10.5596 20.5879c0 0.5523 -0.4477 1 -1.00003 1l-1.40772 0c-0.55229 0 -1 -0.4477 -1 -1l0 -1.513c0 -0.5522 0.44771 -1 1 -1l1.40772 0c0.55233 0 1.00003 0.4478 1.00003 1l0 1.513Z" stroke-width="1"></path><path stroke="#000000" stroke-linejoin="round" d="M16.8486 20.5879c0 0.5523 -0.4477 1 -1 1l-1.4077 0c-0.5523 0 -1 -0.4477 -1 -1l0 -1.513c0 -0.5522 0.4477 -1 1 -1l1.4077 0c0.5523 0 1 0.4478 1 1l0 1.513Z" stroke-width="1"></path><path stroke="#000000" stroke-linejoin="round" d="M23.1357 20.5879c0 0.5523 -0.4477 1 -1 1l-1.4077 0c-0.5523 0 -1 -0.4477 -1 -1l0 -1.513c0 -0.5522 0.4477 -1 1 -1l1.4077 0c0.5523 0 1 0.4478 1 1l0 1.513Z" stroke-width="1"></path></svg>