<svg xmlns="http://www.w3.org/2000/svg" fill="none" viewBox="0 0 24 24" id="Gradient-1--Streamline-Ultimate"><desc>Gradient 1 Streamline Icon: https://streamlinehq.com</desc><path stroke="#000000" stroke-linecap="round" stroke-linejoin="round" d="M23.25 15.8564c0 1.1046 -0.8954 2 -2 2l-18.49934 0c-1.10457 0 -1.999997 -0.8954 -1.999997 -2l0.000001 -7.71324c0 -1.10457 0.895426 -2 1.999996 -2l18.49934 0c1.1046 0 2 0.89543 2 2l0 7.71324Z" stroke-width="1"></path><path stroke="#000000" stroke-linecap="round" stroke-linejoin="round" d="M23.25 3.26372c0 0.27658 -0.1146 0.54082 -0.3164 0.72988l-1.6118 1.50952c-0.3846 0.36015 -0.9826 0.36015 -1.3672 0L18.3429 3.9936c-0.2019 -0.18906 -0.3165 -0.4533 -0.3165 -0.72988l0 -1.28589c0 -0.55229 0.4477 -1.000004 1 -1.000004l3.2236 0c0.5523 0.000001 1 0.447714 1 1.000004l0 1.28589Z" stroke-width="1"></path><path stroke="#000000" stroke-linecap="round" stroke-linejoin="round" d="M0.75 20.736c0 -0.2765 0.114554 -0.5408 0.31643 -0.7298l1.61179 -1.5096c0.38455 -0.3601 0.98258 -0.3601 1.36714 0l1.61179 1.5096c0.20187 0.189 0.31643 0.4533 0.31643 0.7298l0 1.2859c0 0.5523 -0.44772 1 -1 1H1.75c-0.55228 0 -1 -0.4477 -1 -1l0 -1.2859Z" stroke-width="1"></path><path stroke="#000000" stroke-linecap="round" stroke-linejoin="round" d="m12.001 6.14331 0 11.71329" stroke-width="1"></path><path stroke="#000000" stroke-linecap="round" stroke-linejoin="round" d="m6.4458 6.14331 0 11.71329" stroke-width="1"></path><path stroke="#000000" stroke-linecap="round" stroke-linejoin="round" d="m17.5562 6.14331 0 11.71329" stroke-width="1"></path></svg>