<svg xmlns="http://www.w3.org/2000/svg" fill="none" viewBox="0 0 24 24" id="Lasso-Tools--Streamline-Ultimate"><desc>Lasso Tools Streamline Icon: https://streamlinehq.com</desc><path stroke="#000000" stroke-linecap="round" stroke-linejoin="round" stroke-miterlimit="10" d="M12 19.1999c6.1856 0 11.2 -4.1189 11.2 -9.19996C23.2 4.91892 18.1856 0.799988 12 0.799988 5.81441 0.799988 0.800003 4.91892 0.800003 9.99994 0.800003 15.081 5.81441 19.1999 12 19.1999Z" stroke-width="1"></path><path stroke="#000000" stroke-linecap="round" stroke-linejoin="round" stroke-miterlimit="10" d="M6.4 17.6999c1.43594 0 2.6 -1.164 2.6 -2.6 0 -1.4359 -1.16406 -2.6 -2.6 -2.6s-2.6 1.1641 -2.6 2.6c0 1.436 1.16406 2.6 2.6 2.6Z" stroke-width="1"></path><path stroke="#000000" stroke-linecap="round" stroke-linejoin="round" stroke-miterlimit="10" d="m4.89998 17.1 1 1.5c1 1.6 0.5 3.6 -1 4.6" stroke-width="1"></path></svg>