<svg xmlns="http://www.w3.org/2000/svg" fill="none" viewBox="0 0 24 24" id="Mirror-Symmerty--Streamline-Ultimate"><desc>Mirror Symmerty Streamline Icon: https://streamlinehq.com</desc><path stroke="#000000" stroke-dasharray="3 3" stroke-linecap="round" stroke-linejoin="round" d="m12.001 22.9324 0 -21.8649" stroke-width="1"></path><path stroke="#000000" stroke-linecap="round" stroke-linejoin="round" d="m14.9854 6.8343 1.4227 -1.35699c1.5849 -1.51176 4.1021 -1.428 5.5831 0.18578v0c1.3923 1.5172 1.3703 3.85396 -0.0504 5.34471l-2.6465 2.777 1.2621 1.4501c1.0367 1.1911 0.9523 2.9872 -0.1917 4.0758v0c-1.1518 1.0961 -2.9648 1.0828 -4.1004 -0.0301l-1.2789 -1.2533" stroke-width="1"></path><path stroke="#000000" stroke-linecap="round" stroke-linejoin="round" d="M9.0166 6.8343 7.5939 5.47731c-1.58497 -1.51176 -4.10216 -1.428 -5.58312 0.18578v0C0.618442 7.18029 0.640446 9.51705 2.06111 11.0078l2.64653 2.777 -1.26208 1.4501c-1.03673 1.1911 -0.95226 2.9872 0.19168 4.0758v0c1.1518 1.0961 2.96485 1.0828 4.10045 -0.0301l1.27891 -1.2533" stroke-width="1"></path></svg>