<svg xmlns="http://www.w3.org/2000/svg" fill="none" viewBox="0 0 24 24" id="Page-Number--Streamline-Ultimate"><desc>Page Number Streamline Icon: https://streamlinehq.com</desc><path stroke="#000000" stroke-linecap="round" stroke-linejoin="round" d="M4.52375 22.7993H19.1382c1.1045 0 2 -0.8954 2 -2V6.04201c-0.0001 -0.44034 -0.175 -0.86263 -0.4863 -1.17409l-3.1811 -3.18111c-0.3114 -0.31126 -0.7337 -0.48615 -1.1741 -0.48625H4.52375c-0.44064 0 -0.86324 0.17505 -1.17482 0.48663 -0.31158 0.31158 -0.48663 0.73417 -0.48663 1.17481v18.2759c0 0.4406 0.17505 0.8632 0.48663 1.1748 0.31158 0.3116 0.73418 0.4866 1.17482 0.4866Z" stroke-width="1"></path><path stroke="#000000" stroke-linecap="round" d="M11.8955 14.7715h6.2652" stroke-width="1"></path><path stroke="#000000" stroke-linecap="round" d="m13.8937 12.9687 -1.7955 6.883" stroke-width="1"></path><path stroke="#000000" stroke-linecap="round" d="m17.3703 12.9687 -1.7956 6.883" stroke-width="1"></path><path stroke="#000000" stroke-linecap="round" d="M11.2881 18.049h6.2652" stroke-width="1"></path></svg>