<svg xmlns="http://www.w3.org/2000/svg" fill="none" viewBox="0 0 24 24" id="Pattern--Streamline-Ultimate"><desc>Pattern Streamline Icon: https://streamlinehq.com</desc><path stroke="#000000" stroke-linejoin="round" d="m16.7383 7.70713 5.1865 0c0.5523 0 1 0.44771 1 1l0 13.21817c0 0.5523 -0.4477 1 -1 1l-13.21816 0c-0.55228 0 -1 -0.4477 -1 -1l0 -5.1866" stroke-width="1"></path><path stroke="#000000" stroke-linejoin="round" d="M16.2939 15.2928c0 0.5523 -0.4477 1 -1 1l-13.21812 0c-0.55228 0 -1 -0.4477 -1 -1l0 -13.21812c0 -0.55228 0.44772 -1 1 -1l13.21812 0c0.5523 0 1 0.44772 1 1l0 13.21812Z" stroke-width="1"></path><path stroke="#000000" stroke-linecap="round" stroke-linejoin="round" stroke-miterlimit="10" d="M5.51195 1.85645c-0.28673 0 -0.57347 0.28677 -0.57347 0.5735 0 0.28674 0.28674 0.57343 0.57347 0.57343" stroke-width="1"></path><path stroke="#000000" stroke-linecap="round" stroke-linejoin="round" stroke-miterlimit="10" d="M5.51222 1.85645c0.28673 0 0.57347 0.28677 0.57347 0.5735 0 0.28674 -0.28674 0.57343 -0.57347 0.57343" stroke-width="1"></path><path stroke="#000000" stroke-linecap="round" stroke-linejoin="round" stroke-miterlimit="10" d="M5.51195 10.1359c-0.28673 0 -0.57347 0.2867 -0.57347 0.5735 0 0.2867 0.28674 0.5734 0.57347 0.5734" stroke-width="1"></path><path stroke="#000000" stroke-linecap="round" stroke-linejoin="round" stroke-miterlimit="10" d="M5.51222 10.1359c0.28673 0 0.57347 0.2867 0.57347 0.5735 0 0.2867 -0.28674 0.5734 -0.57347 0.5734" stroke-width="1"></path><path stroke="#000000" stroke-linecap="round" stroke-linejoin="round" stroke-miterlimit="10" d="M2.16039 5.99597c-0.28674 0 -0.57348 0.28677 -0.57348 0.57351 0 0.28674 0.28674 0.57342 0.57348 0.57342" stroke-width="1"></path><path stroke="#000000" stroke-linecap="round" stroke-linejoin="round" stroke-miterlimit="10" d="M2.16065 5.99597c0.28674 0 0.57348 0.28677 0.57348 0.57351 0 0.28674 -0.28674 0.57342 -0.57348 0.57342" stroke-width="1"></path><path stroke="#000000" stroke-linecap="round" stroke-linejoin="round" stroke-miterlimit="10" d="M2.16039 14.2758c-0.28674 0 -0.57348 0.2867 -0.57348 0.5735 0 0.2867 0.28674 0.5734 0.57348 0.5734" stroke-width="1"></path><path stroke="#000000" stroke-linecap="round" stroke-linejoin="round" stroke-miterlimit="10" d="M2.16065 14.2758c0.28674 0 0.57348 0.2867 0.57348 0.5735 0 0.2867 -0.28674 0.5734 -0.57348 0.5734" stroke-width="1"></path><path stroke="#000000" stroke-linecap="round" stroke-linejoin="round" stroke-miterlimit="10" d="M8.68383 5.99597c-0.28674 0 -0.57348 0.28677 -0.57348 0.57351 0 0.28674 0.28674 0.57342 0.57348 0.57342" stroke-width="1"></path><path stroke="#000000" stroke-linecap="round" stroke-linejoin="round" stroke-miterlimit="10" d="M8.68409 5.99597c0.28674 0 0.57348 0.28677 0.57348 0.57351 0 0.28674 -0.28674 0.57342 -0.57348 0.57342" stroke-width="1"></path><path stroke="#000000" stroke-linecap="round" stroke-linejoin="round" stroke-miterlimit="10" d="M8.68383 14.2758c-0.28674 0 -0.57348 0.2867 -0.57348 0.5735 0 0.2867 0.28674 0.5734 0.57348 0.5734" stroke-width="1"></path><path stroke="#000000" stroke-linecap="round" stroke-linejoin="round" stroke-miterlimit="10" d="M8.68409 14.2758c0.28674 0 0.57348 0.2867 0.57348 0.5735 0 0.2867 -0.28674 0.5734 -0.57348 0.5734" stroke-width="1"></path><path stroke="#000000" stroke-linecap="round" stroke-linejoin="round" stroke-miterlimit="10" d="M11.8596 1.85645c-0.2867 0 -0.5735 0.28677 -0.5735 0.5735 0 0.28674 0.2868 0.57343 0.5735 0.57343" stroke-width="1"></path><path stroke="#000000" stroke-linecap="round" stroke-linejoin="round" stroke-miterlimit="10" d="M11.8599 1.85645c0.2867 0 0.5734 0.28677 0.5734 0.5735 0 0.28674 -0.2867 0.57343 -0.5734 0.57343" stroke-width="1"></path><path stroke="#000000" stroke-linecap="round" stroke-linejoin="round" stroke-miterlimit="10" d="M11.8596 10.1359c-0.2867 0 -0.5735 0.2867 -0.5735 0.5735 0 0.2867 0.2868 0.5734 0.5735 0.5734" stroke-width="1"></path><path stroke="#000000" stroke-linecap="round" stroke-linejoin="round" stroke-miterlimit="10" d="M11.8599 10.1359c0.2867 0 0.5734 0.2867 0.5734 0.5735 0 0.2867 -0.2867 0.5734 -0.5734 0.5734" stroke-width="1"></path><path stroke="#000000" stroke-linecap="round" stroke-linejoin="round" stroke-miterlimit="10" d="M15.2112 5.99597c-0.2868 0 -0.5735 0.28677 -0.5735 0.57351 0 0.28674 0.2867 0.57342 0.5735 0.57342" stroke-width="1"></path><path stroke="#000000" stroke-linecap="round" stroke-linejoin="round" stroke-miterlimit="10" d="M15.2114 5.99597c0.2868 0 0.5735 0.28677 0.5735 0.57351 0 0.28674 -0.2867 0.57342 -0.5735 0.57342" stroke-width="1"></path><path stroke="#000000" stroke-linecap="round" stroke-linejoin="round" stroke-miterlimit="10" d="M15.2112 14.2758c-0.2868 0 -0.5735 0.2867 -0.5735 0.5735 0 0.2867 0.2867 0.5734 0.5735 0.5734" stroke-width="1"></path><path stroke="#000000" stroke-linecap="round" stroke-linejoin="round" stroke-miterlimit="10" d="M15.2114 14.2758c0.2868 0 0.5735 0.2867 0.5735 0.5735 0 0.2867 -0.2867 0.5734 -0.5735 0.5734" stroke-width="1"></path></svg>