<svg xmlns="http://www.w3.org/2000/svg" fill="none" viewBox="0 0 24 24" id="Select-None--Streamline-Ultimate"><desc>Select None Streamline Icon: https://streamlinehq.com</desc><path stroke="#000000" stroke-linejoin="round" d="M18.8672 17.8663c0 0.5523 -0.4477 1 -1 1l-11.73268 0c-0.55229 0 -1 -0.4477 -1 -1l0 -11.73263c0 -0.55229 0.44771 -1 1 -1l11.73268 0c0.5523 0 1 0.44771 1 1l0 11.73263Z" stroke-width="1"></path><path stroke="#000000" stroke-dasharray="3 3" stroke-linecap="round" stroke-linejoin="round" d="M22.916 21.916c0 0.5523 -0.4477 1 -1 1l-19.83189 0c-0.55229 0 -1 -0.4477 -1 -1l0 -19.83189c0 -0.55229 0.44771 -1 1 -1l19.83189 0c0.5523 0 1 0.44771 1 1l0 19.83189Z" stroke-width="1"></path></svg>