<svg xmlns="http://www.w3.org/2000/svg" fill="none" viewBox="0 0 24 24" id="Avatar-Police-Woman--Streamline-Ultimate"><desc>Avatar Police Woman Streamline Icon: https://streamlinehq.com</desc><path stroke="#000000" stroke-linecap="round" stroke-linejoin="round" d="M17.123 12.4878c-0.0083 0.3865 0.0618 0.7708 0.2059 1.1295 0.1442 0.3588 0.3594 0.6847 0.6328 0.9581 0.2734 0.2734 0.5993 0.4886 0.958 0.6327 0.3588 0.1442 0.743 0.2142 1.1296 0.206" stroke-width="1"></path><path stroke="#000000" stroke-linecap="round" stroke-linejoin="round" d="M6.87704 12.4878c0.00824 0.3865 -0.06181 0.7708 -0.20595 1.1295 -0.14414 0.3588 -0.35939 0.6847 -0.63278 0.9581s-0.59928 0.4886 -0.95804 0.6327c-0.35876 0.1442 -0.74298 0.2142 -1.12953 0.206" stroke-width="1"></path><path stroke="#000000" stroke-linecap="round" stroke-linejoin="round" d="M17.0362 11.0391c0.1374 0.7391 0.1104 1.4995 -0.0791 2.227 -0.1894 0.7276 -0.5368 1.4045 -1.0174 1.9826 -0.4805 0.5782 -1.0825 1.0435 -1.7632 1.3628 -0.6806 0.3194 -1.4232 0.4849 -2.175 0.4849 -0.7519 0 -1.4945 -0.1655 -2.17509 -0.4849 -0.68064 -0.3193 -1.28262 -0.7846 -1.76319 -1.3628 -0.48057 -0.5781 -0.82793 -1.255 -1.01743 -1.9826 -0.18949 -0.7275 -0.21646 -1.4879 -0.079 -2.227" stroke-width="1"></path><path stroke="#000000" stroke-linecap="round" stroke-linejoin="round" d="M5.6597 10.5368 12 12.9753l6.3403 -2.4385C16.3815 9.5292 14.2022 9.02629 12 9.07361c-2.20225 -0.04732 -4.38149 0.45559 -6.3403 1.46319v0Z" stroke-width="1"></path><path stroke="#000000" stroke-linecap="round" stroke-linejoin="round" d="M5.65971 10.5368V9.07362c-0.06223 -1.74558 0.57026 -3.4446 1.75879 -4.72456C8.60703 3.06911 10.2546 2.31267 12 2.24561c1.7454 0.06706 3.393 0.8235 4.5815 2.10345 1.1885 1.27996 1.821 2.97898 1.7588 4.72456v1.46318" stroke-width="1"></path><path stroke="#000000" d="M12.002 6.75721c-0.2021 0 -0.3658 -0.16377 -0.3658 -0.36579s0.1637 -0.36579 0.3658 -0.36579" stroke-width="1"></path><path stroke="#000000" d="M12.002 6.75721c0.202 0 0.3658 -0.16377 0.3658 -0.36579s-0.1638 -0.36579 -0.3658 -0.36579" stroke-width="1"></path><path stroke="#000000" stroke-linecap="round" stroke-linejoin="round" d="M12.002 1.97543V1" stroke-width="1"></path><path stroke="#000000" stroke-linecap="round" stroke-linejoin="round" d="M12 21.4128v1.5607" stroke-width="1"></path><path stroke="#000000" stroke-linecap="round" stroke-linejoin="round" d="m7.87199 22.9424 -0.7384 -2.7478" stroke-width="1"></path><path stroke="#000000" stroke-linecap="round" stroke-linejoin="round" d="m16.9054 20.2161 -0.7325 2.7263" stroke-width="1"></path><path stroke="#000000" stroke-linecap="round" stroke-linejoin="round" d="M4.1478 23.0001c0.87338 -1.2769 2.04499 -2.3215 3.41326 -3.0433C8.92934 19.2349 10.453 18.8577 12 18.8577c1.547 0 3.0707 0.3772 4.439 1.0991 1.3682 0.7218 2.5398 1.7664 3.4132 3.0433" stroke-width="1"></path></svg>