<svg xmlns="http://www.w3.org/2000/svg" fill="none" viewBox="0 0 24 24" id="Police-Woman-1--Streamline-Ultimate"><desc>Police Woman 1 Streamline Icon: https://streamlinehq.com</desc><path stroke="#000000" stroke-linecap="round" stroke-linejoin="round" d="M16.888 8.552c0.3056 0.79347 0.4135 1.6494 0.3142 2.4939 -0.0992 0.8445 -0.4025 1.6521 -0.8838 2.3531 -0.4812 0.701 -1.1258 1.2743 -1.8782 1.6705 -0.7524 0.3961 -1.5899 0.6031 -2.4402 0.6031 -0.8503 0 -1.6878 -0.207 -2.44015 -0.6031 -0.75239 -0.3962 -1.39703 -0.9695 -1.87825 -1.6705 -0.48122 -0.701 -0.78454 -1.5086 -0.88378 -2.3531s0.0086 -1.70043 0.31421 -2.4939" stroke-width="1"></path><path stroke="#000000" stroke-linecap="round" stroke-linejoin="round" d="M3.047 23.25c0.95639 -1.5089 2.27862 -2.7516 3.84385 -3.6126C8.45609 18.7763 10.2136 18.3248 12 18.3248c1.7864 0 3.5439 0.4515 5.1091 1.3126 1.5653 0.861 2.8875 2.1037 3.8439 3.6126" stroke-width="1"></path><path stroke="#000000" stroke-linecap="round" stroke-linejoin="round" d="M12 23.132v-4.805" stroke-width="1"></path><path stroke="#000000" stroke-linecap="round" stroke-linejoin="round" d="M17.968 6.718c0.7937 -1.37639 1.3015 -2.89877 1.493 -4.476 -1.9258 0.48114 -3.9602 0.25805 -5.736 -0.629L12 0.75l-1.725 0.863c-1.77579 0.88705 -3.81017 1.11014 -5.736 0.629 0.19203 1.57712 0.6998 3.0994 1.493 4.476h11.936Z" stroke-width="1"></path><path stroke="#000000" stroke-linecap="round" stroke-linejoin="round" d="M6.08502 6.71797c0.362 2.53 3.284 2.982 5.91498 2.982 2.631 0 5.553 -0.455 5.915 -2.985l-11.82998 0.003Z" stroke-width="1"></path><path stroke="#000000" d="M12 4.47998c-0.2071 0 -0.375 -0.16789 -0.375 -0.375s0.1679 -0.375 0.375 -0.375" stroke-width="1"></path><path stroke="#000000" d="M12 4.47998c0.2071 0 0.375 -0.16789 0.375 -0.375s-0.1679 -0.375 -0.375 -0.375" stroke-width="1"></path><path stroke="#000000" stroke-linecap="round" stroke-linejoin="round" d="M15.73 23.132h1.492" stroke-width="1"></path><path stroke="#000000" stroke-linecap="round" stroke-linejoin="round" d="M6.78503 10.177c-0.08958 0.8752 -0.41525 1.7097 -0.94224 2.4142 -0.52698 0.7045 -1.23547 1.2527 -2.04976 1.5858" stroke-width="1"></path><path stroke="#000000" stroke-linecap="round" stroke-linejoin="round" d="M17.2 10.0229c0.0806 0.8984 0.4017 1.7585 0.9296 2.4898 0.5279 0.7313 1.2431 1.3069 2.0704 1.6662" stroke-width="1"></path></svg>