<svg xmlns="http://www.w3.org/2000/svg" fill="none" viewBox="0 0 24 24" id="Police-Woman-2--Streamline-Ultimate"><desc>Police Woman 2 Streamline Icon: https://streamlinehq.com</desc><path stroke="#000000" stroke-linecap="round" stroke-linejoin="round" d="M18.75 8.25c0 -5.063 -3.022 -7.5 -6.75 -7.5s-6.75 2.437 -6.75 7.5h13.5Z" stroke-width="1"></path><path stroke="#000000" stroke-linecap="round" stroke-linejoin="round" d="M5.25 8.25c0.781 4.352 12.714 4.381 13.5 0" stroke-width="1"></path><path stroke="#000000" d="M12 5.87195c-0.2071 0 -0.375 -0.16789 -0.375 -0.375s0.1679 -0.375 0.375 -0.375" stroke-width="1"></path><path stroke="#000000" d="M12 5.87195c0.2071 0 0.375 -0.16789 0.375 -0.375s-0.1679 -0.375 -0.375 -0.375" stroke-width="1"></path><path stroke="#000000" stroke-linecap="round" stroke-linejoin="round" d="M17.245 10.272c0.0304 0.7081 -0.0828 1.415 -0.3329 2.0781 -0.2501 0.6632 -0.6318 1.2688 -1.1223 1.7804 -0.4904 0.5117 -1.0794 0.9187 -1.7313 1.1966 -0.652 0.2779 -1.3535 0.4209 -2.0622 0.4205 -0.7087 -0.0005 -1.41 -0.1445 -2.06159 -0.4233 -0.65159 -0.2787 -1.23999 -0.6866 -1.72974 -1.1988 -0.48975 -0.5123 -0.8707 -1.1185 -1.1199 -1.7819 -0.24921 -0.6635 -0.36149 -1.3706 -0.3301 -2.0786" stroke-width="1"></path><path stroke="#000000" stroke-linecap="round" stroke-linejoin="round" d="M3 23.25c0.96182 -1.5163 2.29113 -2.7649 3.86453 -3.6301C8.43793 18.7547 10.2044 18.301 12 18.301c1.7956 0 3.5621 0.4537 5.1355 1.3189 1.5734 0.8652 2.9027 2.1138 3.8645 3.6301" stroke-width="1"></path><path stroke="#000000" stroke-linecap="round" stroke-linejoin="round" d="M12 23.25v-4.949" stroke-width="1"></path><path stroke="#000000" stroke-linecap="round" stroke-linejoin="round" d="M15.75 23.25h1.5" stroke-width="1"></path><path stroke="#000000" stroke-linecap="round" stroke-linejoin="round" d="M6.43201 10.0389s-0.057 4.1 -3.271 5.711" stroke-width="1"></path><path stroke="#000000" stroke-linecap="round" stroke-linejoin="round" d="M17.568 10.045s0.057 4.1 3.271 5.705" stroke-width="1"></path></svg>