<svg xmlns="http://www.w3.org/2000/svg" fill="none" viewBox="0 0 24 24" id="Police-Woman-3--Streamline-Ultimate"><desc>Police Woman 3 Streamline Icon: https://streamlinehq.com</desc><path stroke="#000000" stroke-linecap="round" stroke-linejoin="round" d="M2.42004 23.25c0.83835 -1.8859 2.20563 -3.4881 3.93616 -4.6127 1.73053 -1.1245 3.75 -1.723 5.8138 -1.723 2.0638 0 4.0834 0.5985 5.8139 1.723 1.7305 1.1246 3.0978 2.7268 3.9361 4.6127" stroke-width="1"></path><path stroke="#000000" stroke-linecap="round" stroke-linejoin="round" d="M12.17 23.25v-6.33" stroke-width="1"></path><path stroke="#000000" stroke-linecap="round" stroke-linejoin="round" d="M2.08002 6.75c6.46231 0.98994 13.03768 0.98994 19.49998 0" stroke-width="1"></path><path stroke="#000000" stroke-linecap="round" stroke-linejoin="round" d="m6.22003 7.25001 1.23 -4.33c0.18042 -0.62666 0.5601 -1.17746 1.08157 -1.56901C9.05307 0.959443 9.68793 0.748465 10.34 0.750008h3c0.647 0.004944 1.275 0.218909 1.7905 0.609982 0.5154 0.39106 0.8906 0.93828 1.0695 1.56002l1.23 4.33" stroke-width="1"></path><path stroke="#000000" d="M11.825 4.09424c-0.2071 0 -0.375 -0.16789 -0.375 -0.375s0.1679 -0.375 0.375 -0.375" stroke-width="1"></path><path stroke="#000000" d="M11.825 4.09424c0.2071 0 0.375 -0.16789 0.375 -0.375s-0.1679 -0.375 -0.375 -0.375" stroke-width="1"></path><path stroke="#000000" stroke-linecap="round" stroke-linejoin="round" d="M15.92 23.25h1.5" stroke-width="1"></path><g><path stroke="#000000" stroke-linecap="round" stroke-linejoin="round" d="M6.24999 7.25c0 0.7 -0.39 4.06 -3.26 5.5" stroke-width="1"></path><path stroke="#000000" stroke-linecap="round" stroke-linejoin="round" d="M17.4 7.25c0 0.7 0.39 4.06 3.27 5.5" stroke-width="1"></path></g><path stroke="#000000" stroke-linecap="round" stroke-linejoin="round" d="M6.84002 7.30005c-0.25797 0.78971 -0.3252 1.6293 -0.19621 2.45001 0.129 0.82074 0.45056 1.59914 0.93835 2.27164 0.4878 0.6725 1.12795 1.2199 1.86803 1.5974 0.74011 0.3774 1.55901 0.5742 2.38981 0.5742 0.8308 0 1.6498 -0.1968 2.3898 -0.5742 0.7401 -0.3775 1.3803 -0.9249 1.8681 -1.5974 0.4878 -0.6725 0.8093 -1.4509 0.9383 -2.27164 0.129 -0.82071 0.0618 -1.6603 -0.1962 -2.45001" stroke-width="1"></path></svg>