<svg xmlns="http://www.w3.org/2000/svg" viewBox="0 0 24 24" id="Password-Desktop-Approved--Streamline-Ultimate"><desc>Password Desktop Approved Streamline Icon: https://streamlinehq.com</desc><g><g><path d="M13.5 18.75a8.93 8.93 0 0 0 1.5 4.5H9a8.93 8.93 0 0 0 1.5 -4.5" fill="none" stroke="#000000" stroke-linecap="round" stroke-linejoin="round" stroke-width="1"></path><path d="m6.75 23.25 10.5 0" fill="none" stroke="#000000" stroke-linecap="round" stroke-linejoin="round" stroke-width="1"></path><path d="m0.75 15.25 22.5 0" fill="none" stroke="#000000" stroke-linecap="round" stroke-linejoin="round" stroke-width="1"></path><path d="M2.25 0.75h19.5s1.5 0 1.5 1.5v15s0 1.5 -1.5 1.5H2.25s-1.5 0 -1.5 -1.5v-15s0 -1.5 1.5 -1.5" fill="none" stroke="#000000" stroke-linecap="round" stroke-linejoin="round" stroke-width="1"></path></g><path d="m17 4.77 -5.3 5.94a1 1 0 0 1 -0.7 0.29 1 1 0 0 1 -0.74 -0.29L8.5 9" fill="none" stroke="#000000" stroke-linecap="round" stroke-linejoin="round" stroke-width="1"></path></g></svg>