<svg xmlns="http://www.w3.org/2000/svg" fill="none" viewBox="0 0 24 24" id="Password-Denied--Streamline-Ultimate"><desc>Password Denied Streamline Icon: https://streamlinehq.com</desc><path stroke="#000000" stroke-linecap="round" stroke-linejoin="round" d="M9 12.75H2.25c-0.39782 0 -0.77936 -0.158 -1.06066 -0.4393C0.908035 12.0294 0.75 11.6478 0.75 11.25v-9c0 -0.39782 0.158035 -0.77936 0.43934 -1.06066C1.47064 0.908035 1.85218 0.75 2.25 0.75h18c0.3978 0 0.7794 0.158035 1.0607 0.43934 0.2813 0.2813 0.4393 0.66284 0.4393 1.06066v6" stroke-width="1"></path><path stroke="#000000" stroke-linecap="round" stroke-linejoin="round" d="M17.25 23.25c3.3137 0 6 -2.6863 6 -6s-2.6863 -6 -6 -6 -6 2.6863 -6 6 2.6863 6 6 6Z" stroke-width="1"></path><path stroke="#000000" stroke-linecap="round" stroke-linejoin="round" d="m19.5 14.999 -4.5 4.5" stroke-width="1"></path><path stroke="#000000" stroke-linecap="round" stroke-linejoin="round" d="m15 14.999 4.5 4.5" stroke-width="1"></path><path stroke="#000000" d="M11.25 7.125c-0.2071 0 -0.375 -0.16789 -0.375 -0.375s0.1679 -0.375 0.375 -0.375" stroke-width="1"></path><path stroke="#000000" d="M11.25 7.125c0.2071 0 0.375 -0.16789 0.375 -0.375s-0.1679 -0.375 -0.375 -0.375" stroke-width="1"></path><path stroke="#000000" d="M17.25 7.125c-0.2071 0 -0.375 -0.16789 -0.375 -0.375s0.1679 -0.375 0.375 -0.375" stroke-width="1"></path><path stroke="#000000" d="M17.25 7.125c0.2071 0 0.375 -0.16789 0.375 -0.375s-0.1679 -0.375 -0.375 -0.375" stroke-width="1"></path><g><path stroke="#000000" d="M5.25 7.125c-0.20711 0 -0.375 -0.16789 -0.375 -0.375s0.16789 -0.375 0.375 -0.375" stroke-width="1"></path><path stroke="#000000" d="M5.25 7.125c0.20711 0 0.375 -0.16789 0.375 -0.375s-0.16789 -0.375 -0.375 -0.375" stroke-width="1"></path></g></svg>