<svg xmlns="http://www.w3.org/2000/svg" fill="none" viewBox="0 0 24 24" id="Wildlife-Protection-Tree-Shield--Streamline-Ultimate"><desc>Wildlife Protection Tree Shield Streamline Icon: https://streamlinehq.com</desc><path stroke="#000000" stroke-linecap="round" stroke-linejoin="round" d="M23.251 15.75c0.0034 1.7465 -0.5895 3.4418 -1.6805 4.8056 -1.091 1.3638 -2.6149 2.3143 -4.3195 2.6944 -1.7047 -0.3799 -3.2287 -1.3304 -4.3197 -2.6942 -1.0911 -1.3638 -1.6839 -3.0593 -1.6803 -4.8058V13.5c0 -0.3978 0.158 -0.7794 0.4393 -1.0607S12.3532 12 12.751 12h9c0.3978 0 0.7793 0.158 1.0607 0.4393 0.2813 0.2813 0.4393 0.6629 0.4393 1.0607v2.25Z" stroke-width="1"></path><path stroke="#000000" stroke-linecap="round" stroke-linejoin="round" d="M17.251 15v4.5" stroke-width="1"></path><path stroke="#000000" stroke-linecap="round" stroke-linejoin="round" d="M15.001 17.25h4.5" stroke-width="1"></path><path stroke="#000000" stroke-linecap="round" stroke-linejoin="round" d="M6.751 8.25c-0.68952 0.00013 -1.37232 -0.13557 -2.0094 -0.39935 -0.63707 -0.26377 -1.21594 -0.65047 -1.70356 -1.13799 -0.48761 -0.48752 -0.87441 -1.06632 -1.13831 -1.70334C1.63583 4.37229 1.5 3.68952 1.5 3" stroke-width="1"></path><path stroke="#000000" stroke-linecap="round" stroke-linejoin="round" d="M6.75098 18.75v-18" stroke-width="1"></path><path stroke="#000000" stroke-linecap="round" stroke-linejoin="round" d="M6.75098 5.25c0.99439 -0.00027 1.94796 -0.39547 2.651 -1.0987C10.105 3.44806 10.5 2.49439 10.5 1.5" stroke-width="1"></path><path stroke="#000000" stroke-linecap="round" stroke-linejoin="round" d="M6.75098 11.25h0.749c1.19347 0 2.33806 -0.4741 3.18202 -1.31802C11.5259 9.08807 12 7.94347 12 6.75" stroke-width="1"></path><path stroke="#000000" stroke-linecap="round" stroke-linejoin="round" d="M6.751 13.5c-0.56554 0.1716 -1.15934 0.2301 -1.7475 0.1723 -0.58816 -0.0579 -1.15916 -0.2311 -1.68038 -0.5097 -0.52123 -0.2786 -0.98247 -0.6571 -1.3574 -1.114 -0.37492 -0.4568 -0.65618 -0.983 -0.82772 -1.5486" stroke-width="1"></path><path stroke="#000000" d="M13.875 3c-0.2071 0 -0.375 -0.16789 -0.375 -0.375s0.1679 -0.375 0.375 -0.375" stroke-width="1"></path><path stroke="#000000" d="M13.875 3c0.2071 0 0.375 -0.16789 0.375 -0.375s-0.1679 -0.375 -0.375 -0.375" stroke-width="1"></path><path stroke="#000000" d="M15.376 7.5c-0.2071 0 -0.375 -0.16789 -0.375 -0.375s0.1679 -0.375 0.375 -0.375" stroke-width="1"></path><path stroke="#000000" d="M15.376 7.5c0.2071 0 0.375 -0.16789 0.375 -0.375s-0.1679 -0.375 -0.375 -0.375" stroke-width="1"></path><path stroke="#000000" stroke-linecap="round" stroke-linejoin="round" d="M8.99397 19.156c-0.71715 -0.2691 -1.47699 -0.4067 -2.243 -0.406 -1.19744 -0.0028 -2.37447 0.31 -3.41254 0.9069 -1.03806 0.5969 -1.90051 1.4568 -2.500457 2.4931 -0.059993 0.1143 -0.089507 0.2422 -0.085692 0.3712 0.003815 0.1291 0.040829 0.2549 0.10747 0.3655 0.066641 0.1106 0.160659 0.2021 0.272979 0.2657 0.11232 0.0637 0.23915 0.0973 0.36824 0.0976H11.251" stroke-width="1"></path></svg>