<svg xmlns="http://www.w3.org/2000/svg" fill="none" viewBox="0 0 24 24" id="Wildlife-Protection-Hold--Streamline-Ultimate"><desc>Wildlife Protection Hold Streamline Icon: https://streamlinehq.com</desc><path stroke="#000000" stroke-linecap="round" stroke-linejoin="round" d="M18.75 3.01331c-0.0159 -0.57357 -0.2504 -1.11937 -0.6554 -1.52579 -0.4051 -0.40642 -0.9501 -0.642731 -1.5236 -0.660613 -0.5735 -0.017882 -1.1322 0.184023 -1.5617 0.564413 -0.4296 0.38039 -0.6976 0.91053 -0.7493 1.48199 -0.7097 -0.32272 -1.4803 -0.48969 -2.26 -0.48969 -0.7796 0 -1.5502 0.16697 -2.25998 0.48969 -0.0241 -0.42727 -0.16954 -0.8388 -0.41928 -1.18632 -0.24973 -0.34752 -0.59339 -0.61662 -0.99066 -0.775718C7.93281 0.752174 7.4984 0.70967 7.07783 0.788748c-0.42058 0.079078 -0.80988 0.276452 -1.12224 0.568982 -0.31236 0.29252 -0.53481 0.66806 -0.64127 1.08255 -0.10646 0.4145 -0.0925 0.85075 0.04024 1.25759 0.13273 0.40684 0.37874 0.76739 0.70915 1.03935 0.33042 0.27196 0.73154 0.44405 1.15631 0.49609 -0.31229 0.62023 -0.47335 1.30558 -0.47 2 0.02819 0.65946 0.18667 1.30682 0.46631 1.90473 0.27963 0.5979 0.67489 1.13456 1.16296 1.57886 0.48808 0.4444 1.05931 0.7878 1.68071 1.0103 0.6215 0.2225 1.2808 0.3197 1.94 0.2861 0.6617 0.0336 1.3234 -0.0647 1.9467 -0.289 0.6234 -0.2244 1.1959 -0.5704 1.6844 -1.0179 0.4884 -0.4476 0.8831 -0.9877 1.161 -1.58907 0.278 -0.60137 0.4336 -1.25198 0.4579 -1.91402 0.0034 -0.69442 -0.1577 -1.37976 -0.47 -2 0.5376 -0.06522 1.0334 -0.323 1.3956 -0.72564 0.3622 -0.40264 0.5663 -0.92286 0.5744 -1.46436Z" stroke-width="1"></path><path stroke="#000000" d="M9.755 7.13489c-0.2071 0 -0.375 -0.1679 -0.375 -0.375 0 -0.20711 0.1679 -0.375 0.375 -0.375" stroke-width="1"></path><path stroke="#000000" d="M9.755 7.13489c0.20711 0 0.375 -0.1679 0.375 -0.375 0 -0.20711 -0.16789 -0.375 -0.375 -0.375" stroke-width="1"></path><path stroke="#000000" d="M14.255 7.13489c-0.2071 0 -0.375 -0.1679 -0.375 -0.375 0 -0.20711 0.1679 -0.375 0.375 -0.375" stroke-width="1"></path><path stroke="#000000" d="M14.255 7.13489c0.2071 0 0.375 -0.1679 0.375 -0.375 0 -0.20711 -0.1679 -0.375 -0.375 -0.375" stroke-width="1"></path><path stroke="#000000" stroke-linecap="round" stroke-linejoin="round" d="m3.75 23.25 -2 -2.52c-0.64308 -0.7958 -0.9958 -1.7869 -1 -2.81v-5.17c0 -0.3978 0.158035 -0.7794 0.43934 -1.0607 0.2813 -0.2813 0.66284 -0.4393 1.06066 -0.4393v0c0.39782 0 0.77936 0.158 1.06066 0.4393 0.2813 0.2813 0.43934 0.6629 0.43934 1.0607v3.87" stroke-width="1"></path><path stroke="#000000" stroke-linecap="round" stroke-linejoin="round" d="M8.24999 23.11v-3c0.00178 -0.8874 -0.26299 -1.7549 -0.76 -2.49l-1.14 -1.72c-0.09878 -0.1642 -0.23001 -0.3066 -0.38567 -0.4184 -0.15566 -0.1118 -0.33248 -0.1908 -0.51966 -0.2319 -0.18718 -0.0412 -0.38079 -0.0438 -0.569 -0.0076 -0.18821 0.0361 -0.36708 0.1103 -0.52567 0.2179v0c-0.28272 0.1901 -0.48643 0.4767 -0.57295 0.8063 -0.08652 0.3295 -0.04992 0.6792 0.10295 0.9837l1.37 2.25" stroke-width="1"></path><path stroke="#000000" stroke-linecap="round" stroke-linejoin="round" d="m20.25 23.25 2 -2.52c0.6431 -0.7958 0.9958 -1.7869 1 -2.81v-5.17c0 -0.3978 -0.158 -0.7794 -0.4393 -1.0607s-0.6629 -0.4393 -1.0607 -0.4393c-0.3978 0 -0.7794 0.158 -1.0607 0.4393s-0.4393 0.6629 -0.4393 1.0607v3.87" stroke-width="1"></path><path stroke="#000000" stroke-linecap="round" stroke-linejoin="round" d="M15.75 23.11v-3c-0.0018 -0.8874 0.263 -1.7549 0.76 -2.49l1.14 -1.72c0.0988 -0.1642 0.23 -0.3066 0.3857 -0.4184 0.1556 -0.1118 0.3325 -0.1908 0.5196 -0.2319 0.1872 -0.0412 0.3808 -0.0438 0.569 -0.0076 0.1883 0.0361 0.3671 0.1103 0.5257 0.2179v0c0.2827 0.1901 0.4864 0.4767 0.573 0.8063 0.0865 0.3295 0.0499 0.6792 -0.103 0.9837l-1.37 2.25" stroke-width="1"></path></svg>