<svg xmlns="http://www.w3.org/2000/svg" viewBox="0 0 24 24" id="Avatar-Man-3--Streamline-Ultimate"><desc>Avatar Man 3 Streamline Icon: https://streamlinehq.com</desc><defs></defs><path d="M2.815 23.21a9.74 9.74 0 0 1 5.97 -5.94h0l0.01 0.01a4.551 4.551 0 0 0 6.44 0 9.785 9.785 0 0 1 5.95 5.91" fill="none" stroke="#000000" stroke-linecap="round" stroke-linejoin="round" stroke-width="1"></path><path d="M17.239 9a5.25 5.25 0 0 1 -10.5 0" fill="none" stroke="#000000" stroke-linecap="round" stroke-linejoin="round" stroke-width="1"></path><path d="M5.515 5.601h13V9h-13Z" fill="none" stroke="#000000" stroke-linecap="round" stroke-linejoin="round" stroke-width="1"></path><path d="m9.641 5.601 0 3.399" fill="none" stroke="#000000" stroke-linecap="round" stroke-linejoin="round" stroke-width="1"></path><path d="m14.389 5.601 0 3.399" fill="none" stroke="#000000" stroke-linecap="round" stroke-linejoin="round" stroke-width="1"></path><path d="M6.765 5.6V3.75a3.009 3.009 0 0 1 3 -3h4.5a3.009 3.009 0 0 1 3 3V5.6" fill="none" stroke="#000000" stroke-linecap="round" stroke-linejoin="round" stroke-width="1"></path><path d="m6.239 23.204 0 -4.595" fill="none" stroke="#000000" stroke-linecap="round" stroke-linejoin="round" stroke-width="1"></path><path d="m17.739 23.234 0 -4.637" fill="none" stroke="#000000" stroke-linecap="round" stroke-linejoin="round" stroke-width="1"></path><path d="M14.75 17.7v4.55a1 1 0 0 1 -1 1h-3.5a1 1 0 0 1 -1 -1V17.7" fill="none" stroke="#000000" stroke-linecap="round" stroke-linejoin="round" stroke-width="1"></path></svg>