<svg xmlns="http://www.w3.org/2000/svg" viewBox="0 0 24 24" id="Avatar-Man-2--Streamline-Ultimate"><desc>Avatar Man 2 Streamline Icon: https://streamlinehq.com</desc><defs></defs><path d="m5.977 23.25 0 -7.663" fill="none" stroke="#000000" stroke-linecap="round" stroke-linejoin="round" stroke-width="1"></path><path d="m18.021 23.25 0 -7.664" fill="none" stroke="#000000" stroke-linecap="round" stroke-linejoin="round" stroke-width="1"></path><path d="M14.75 16.175v3.575a1 1 0 0 1 -1 1h-3.5a1 1 0 0 1 -1 -1v-3.575" fill="none" stroke="#000000" stroke-linecap="round" stroke-linejoin="round" stroke-width="1"></path><path d="M6.75 6a5.25 5.25 0 1 0 10.5 0 5.25 5.25 0 1 0 -10.5 0" fill="none" stroke="#000000" stroke-linecap="round" stroke-linejoin="round" stroke-width="1"></path><path d="M2.25 23.25a9.76 9.76 0 0 1 5.43 -8.74h0a4.992 4.992 0 0 0 8.64 0h0a9.76 9.76 0 0 1 5.43 8.74" fill="none" stroke="#000000" stroke-linecap="round" stroke-linejoin="round" stroke-width="1"></path><path d="M9.5 10.617V9a2.006 2.006 0 0 1 2 -2h1a2.006 2.006 0 0 1 2 2v1.618" fill="none" stroke="#000000" stroke-linecap="round" stroke-linejoin="round" stroke-width="1"></path></svg>