<svg xmlns="http://www.w3.org/2000/svg" viewBox="0 0 24 24" id="Avatar-Red-Indian-Man--Streamline-Ultimate"><desc>Avatar Red Indian Man Streamline Icon: https://streamlinehq.com</desc><defs></defs><path d="M16.645 12.1a4.65 4.65 0 0 1 -9.3 0 4.6 4.6 0 0 1 0.877 -2.7A16.532 16.532 0 0 1 12 9a16.545 16.545 0 0 1 3.773 0.4 4.6 4.6 0 0 1 0.872 2.7Z" fill="none" stroke="#000000" stroke-linecap="round" stroke-linejoin="round" stroke-width="1"></path><path d="M3.943 23.25a9.753 9.753 0 0 1 16.1 0" fill="none" stroke="#000000" stroke-linecap="round" stroke-linejoin="round" stroke-width="1"></path><path d="M16.966 20.361a20.345 20.345 0 0 1 -1.872 2.889" fill="none" stroke="#000000" stroke-linecap="round" stroke-linejoin="round" stroke-width="1"></path><path d="M7.345 12.1s9.081 -0.022 9.3 0" fill="none" stroke="#000000" stroke-linecap="round" stroke-linejoin="round" stroke-width="1"></path><path d="M8.9 23.25a20.433 20.433 0 0 1 -1.872 -2.889" fill="none" stroke="#000000" stroke-linecap="round" stroke-linejoin="round" stroke-width="1"></path><path d="m7.718 5.725 1 1" fill="none" stroke="#000000" stroke-linecap="round" stroke-linejoin="round" stroke-width="1"></path><path d="m11.995 4.041 0 1.5" fill="none" stroke="#000000" stroke-linecap="round" stroke-linejoin="round" stroke-width="1"></path><path d="m16.272 5.725 -1 1" fill="none" stroke="#000000" stroke-linecap="round" stroke-linejoin="round" stroke-width="1"></path><path d="M7.345 12.1v3.942a1.25 1.25 0 0 1 -2.5 0v-3.334" fill="none" stroke="#000000" stroke-linecap="round" stroke-linejoin="round" stroke-width="1"></path><path d="M16.645 12.1v3.942a1.25 1.25 0 0 0 2.5 0v-3.334" fill="none" stroke="#000000" stroke-linecap="round" stroke-linejoin="round" stroke-width="1"></path><path d="M19.411 10.412a2.734 2.734 0 0 0 -0.489 -5.305 2.733 2.733 0 0 0 -4.451 -2.782 2.734 2.734 0 0 0 -4.95 -0.006 2.725 2.725 0 0 0 -4.442 2.788 2.734 2.734 0 0 0 -0.49 5.305" fill="none" stroke="#000000" stroke-linecap="round" stroke-linejoin="round" stroke-width="1"></path></svg>