<svg xmlns="http://www.w3.org/2000/svg" viewBox="0 0 24 24" id="Avatar-Eskimo--Streamline-Ultimate"><desc>Avatar Eskimo Streamline Icon: https://streamlinehq.com</desc><defs></defs><path d="M13.94 16.726a2 2 0 0 1 -3.88 0" fill="none" stroke="#000000" stroke-linecap="round" stroke-linejoin="round" stroke-width="1"></path><path d="M17.3 14.786a2 2 0 0 1 -3.359 1.94" fill="none" stroke="#000000" stroke-linecap="round" stroke-linejoin="round" stroke-width="1"></path><path d="M19.239 11.426a2 2 0 0 1 -1.94 3.36" fill="none" stroke="#000000" stroke-linecap="round" stroke-linejoin="round" stroke-width="1"></path><path d="M19.239 7.547a2 2 0 0 1 0 3.879" fill="none" stroke="#000000" stroke-linecap="round" stroke-linejoin="round" stroke-width="1"></path><path d="M17.3 4.187a2 2 0 0 1 1.94 3.36" fill="none" stroke="#000000" stroke-linecap="round" stroke-linejoin="round" stroke-width="1"></path><path d="M13.934 2.253A2 2 0 0 1 17.3 4.187" fill="none" stroke="#000000" stroke-linecap="round" stroke-linejoin="round" stroke-width="1"></path><path d="M10.06 2.247a2 2 0 0 1 3.883 0.014" fill="none" stroke="#000000" stroke-linecap="round" stroke-linejoin="round" stroke-width="1"></path><path d="M6.7 4.187a2 2 0 0 1 3.359 -1.94" fill="none" stroke="#000000" stroke-linecap="round" stroke-linejoin="round" stroke-width="1"></path><path d="M4.761 7.547A2 2 0 0 1 6.7 4.187" fill="none" stroke="#000000" stroke-linecap="round" stroke-linejoin="round" stroke-width="1"></path><path d="M4.761 11.426a2 2 0 0 1 0 -3.879" fill="none" stroke="#000000" stroke-linecap="round" stroke-linejoin="round" stroke-width="1"></path><path d="M6.7 14.786a2 2 0 0 1 -1.94 -3.36" fill="none" stroke="#000000" stroke-linecap="round" stroke-linejoin="round" stroke-width="1"></path><path d="M10.06 16.726a2 2 0 0 1 -3.36 -1.94" fill="none" stroke="#000000" stroke-linecap="round" stroke-linejoin="round" stroke-width="1"></path><path d="M1.9 23.264A11.038 11.038 0 0 1 8.241 17.3" fill="none" stroke="#000000" stroke-linecap="round" stroke-linejoin="round" stroke-width="1"></path><path d="M22.1 23.264a11.038 11.038 0 0 0 -6.341 -5.964" fill="none" stroke="#000000" stroke-linecap="round" stroke-linejoin="round" stroke-width="1"></path><path d="M7 9.467a5 5 0 1 0 10 0 5 5 0 1 0 -10 0" fill="none" stroke="#000000" stroke-linecap="round" stroke-linejoin="round" stroke-width="1"></path><path d="m10.5 21.831 3 0" fill="none" stroke="#000000" stroke-linecap="round" stroke-linejoin="round" stroke-width="1"></path><path d="m17 9.8 -0.238 0.039S13.905 10.313 12 6.98c-1.9 3.333 -4.762 2.857 -4.762 2.857L7 9.8" fill="none" stroke="#000000" stroke-linecap="round" stroke-linejoin="round" stroke-width="1"></path></svg>