<svg xmlns="http://www.w3.org/2000/svg" viewBox="0 0 24 24" id="Avatar-Man-1--Streamline-Ultimate"><desc>Avatar Man 1 Streamline Icon: https://streamlinehq.com</desc><defs></defs><path d="M6.75 6a5.25 5.25 0 1 0 10.5 0 5.25 5.25 0 1 0 -10.5 0" fill="none" stroke="#000000" stroke-linecap="round" stroke-linejoin="round" stroke-width="1"></path><path d="M7.476 3.335A8.714 8.714 0 0 0 13.75 6a8.725 8.725 0 0 0 3.45 -0.71" fill="none" stroke="#000000" stroke-linecap="round" stroke-linejoin="round" stroke-width="1"></path><path d="m6.25 23.25 0 -7.802" fill="none" stroke="#000000" stroke-linecap="round" stroke-linejoin="round" stroke-width="1"></path><path d="m17.75 23.25 0 -7.871" fill="none" stroke="#000000" stroke-linecap="round" stroke-linejoin="round" stroke-width="1"></path><path d="M14.75 16.175v3.575a1 1 0 0 1 -1 1h-3.5a1 1 0 0 1 -1 -1v-3.575" fill="none" stroke="#000000" stroke-linecap="round" stroke-linejoin="round" stroke-width="1"></path><path d="M2.25 23.25a9.76 9.76 0 0 1 5.43 -8.74h0a4.992 4.992 0 0 0 8.64 0h0a9.76 9.76 0 0 1 5.43 8.74" fill="none" stroke="#000000" stroke-linecap="round" stroke-linejoin="round" stroke-width="1"></path></svg>