<svg viewBox="0 0 24 24" xmlns="http://www.w3.org/2000/svg" id="People-Man-8--Streamline-Ultimate"><desc>People Man 8 Streamline Icon: https://streamlinehq.com</desc><path d="M6.75 6a5.25 5.25 0 1 0 10.5 0 5.25 5.25 0 1 0 -10.5 0Z" fill="none" stroke="#000000" stroke-linecap="round" stroke-linejoin="round" stroke-width="1"></path><path d="M7.491 3.35A8.712 8.712 0 0 0 13.75 6a8.7 8.7 0 0 0 3.429 -0.7" fill="none" stroke="#000000" stroke-linecap="round" stroke-linejoin="round" stroke-width="1"></path><path d="M2.25 23.25A9.756 9.756 0 0 1 9 13.97l3 2.53 3 -2.53a9.753 9.753 0 0 1 6.751 9.28" fill="none" stroke="#000000" stroke-linecap="round" stroke-linejoin="round" stroke-width="1"></path><path d="M17.654 15.306A9.71 9.71 0 0 0 15 13.97l-3 2.53 4.5 3Z" fill="none" stroke="#000000" stroke-linecap="round" stroke-linejoin="round" stroke-width="1"></path><path d="m12 16.5 -3 -2.53a9.726 9.726 0 0 0 -2.653 1.336L7.5 19.5Z" fill="none" stroke="#000000" stroke-linecap="round" stroke-linejoin="round" stroke-width="1"></path><path d="m12 23.25 0 -6.75" fill="none" stroke="#000000" stroke-linecap="round" stroke-linejoin="round" stroke-width="1"></path><path d="m15 22.5 3 0" fill="none" stroke="#000000" stroke-linecap="round" stroke-linejoin="round" stroke-width="1"></path></svg>