<svg xmlns="http://www.w3.org/2000/svg" viewBox="0 0 24 24" id="People-Man-Glasses-1--Streamline-Ultimate"><desc>People Man Glasses 1 Streamline Icon: https://streamlinehq.com</desc><g><path d="M2.25 23.25A9.75 9.75 0 0 1 9 14l3 2.53L15 14a9.75 9.75 0 0 1 6.75 9.28" fill="none" stroke="#000000" stroke-linecap="round" stroke-linejoin="round" stroke-width="1"></path><path d="M17.65 15.31A9.44 9.44 0 0 0 15 14l-3 2.5 4.5 3Z" fill="none" stroke="#000000" stroke-linecap="round" stroke-linejoin="round" stroke-width="1"></path><path d="M12 16.5 9 14a9.44 9.44 0 0 0 -2.65 1.34L7.5 19.5Z" fill="none" stroke="#000000" stroke-linecap="round" stroke-linejoin="round" stroke-width="1"></path><path d="m12 23.25 0 -6.75" fill="none" stroke="#000000" stroke-linecap="round" stroke-linejoin="round" stroke-width="1"></path><g><path d="M16.11 2.38a6 6 0 0 0 -8.22 0" fill="none" stroke="#000000" stroke-linecap="round" stroke-linejoin="round" stroke-width="1"></path><path d="M7.39 10.59a6 6 0 0 0 9.18 0.05" fill="none" stroke="#000000" stroke-linecap="round" stroke-linejoin="round" stroke-width="1"></path></g><path d="M6.75 6.75a2 2 0 1 0 4 0 2 2 0 1 0 -4 0" fill="none" stroke="#000000" stroke-linecap="round" stroke-linejoin="round" stroke-width="1"></path><path d="M13.25 6.75a2 2 0 1 0 4 0 2 2 0 1 0 -4 0" fill="none" stroke="#000000" stroke-linecap="round" stroke-linejoin="round" stroke-width="1"></path><path d="m4.75 6.75 2 0" fill="none" stroke="#000000" stroke-linecap="round" stroke-linejoin="round" stroke-width="1"></path><path d="m17.25 6.75 2 0" fill="none" stroke="#000000" stroke-linecap="round" stroke-linejoin="round" stroke-width="1"></path><path d="m10.75 6.75 2.5 0" fill="none" stroke="#000000" stroke-linecap="round" stroke-linejoin="round" stroke-width="1"></path></g></svg>