<svg xmlns="http://www.w3.org/2000/svg" viewBox="0 0 24 24" id="Peopleman-Moustache-2--Streamline-Ultimate"><desc>Peopleman Moustache 2 Streamline Icon: https://streamlinehq.com</desc><g><path d="M6.76 5.62H9a3.73 3.73 0 0 0 3 -1.49 3.73 3.73 0 0 0 3 1.49h2.24" fill="none" stroke="#000000" stroke-linecap="round" stroke-linejoin="round" stroke-width="1"></path><path d="M15 15.25c0 3.81 -3 4.5 -3 4.5s-3 -0.69 -3 -4.5" fill="none" stroke="#000000" stroke-linecap="round" stroke-linejoin="round" stroke-width="1"></path><path d="M7.82 9.18a5.25 5.25 0 1 1 8.36 0" fill="none" stroke="#000000" stroke-linecap="round" stroke-linejoin="round" stroke-width="1"></path><path d="M11.21 9.45c1.16 2.47 -3.14 3.6 -5.71 2.67 0.93 -2.57 4.55 -5.12 5.71 -2.67Z" fill="none" stroke="#000000" stroke-linecap="round" stroke-linejoin="round" stroke-width="1"></path><path d="M12.79 9.45c-1.16 2.47 3.14 3.6 5.71 2.67C17.57 9.55 14 7 12.79 9.45Z" fill="none" stroke="#000000" stroke-linecap="round" stroke-linejoin="round" stroke-width="1"></path><path d="M5.91 16.64a9.71 9.71 0 0 0 -3.61 6.61" fill="none" stroke="#000000" stroke-linecap="round" stroke-linejoin="round" stroke-width="1"></path><path d="M21.7 23.25a9.71 9.71 0 0 0 -3.61 -6.61" fill="none" stroke="#000000" stroke-linecap="round" stroke-linejoin="round" stroke-width="1"></path></g></svg>