<svg viewBox="0 0 24 24" xmlns="http://www.w3.org/2000/svg" id="People-Man-Beard-3--Streamline-Ultimate"><desc>People Man Beard 3 Streamline Icon: https://streamlinehq.com</desc><path d="M17.25 6v5.25a5.25 5.25 0 0 1 -10.5 0V6a5.25 5.25 0 1 1 10.5 0Z" fill="none" stroke="#000000" stroke-linecap="round" stroke-linejoin="round" stroke-width="1"></path><path d="M17.654 17.556A9.71 9.71 0 0 0 15 16.22l-3 2.53L16.5 21Z" fill="none" stroke="#000000" stroke-linecap="round" stroke-linejoin="round" stroke-width="1"></path><path d="m12 18.75 -3 -2.53a9.726 9.726 0 0 0 -2.653 1.336L7.5 21Z" fill="none" stroke="#000000" stroke-linecap="round" stroke-linejoin="round" stroke-width="1"></path><path d="M21.489 23.25A9.768 9.768 0 0 0 15 16.22l-3 2.53 -3 -2.53a9.769 9.769 0 0 0 -6.488 7.03" fill="none" stroke="#000000" stroke-linecap="round" stroke-linejoin="round" stroke-width="1"></path><path d="m6 6.75 12 0" fill="none" stroke="#000000" stroke-linecap="round" stroke-linejoin="round" stroke-width="1"></path><path d="M17.25 6.75c0 1.522 -1.215 4.683 -2.25 5.25 -0.937 0.512 -1.622 -1.5 -3 -1.5S9.937 12.512 9 12c-1.035 -0.567 -2.25 -3.728 -2.25 -5.25" fill="none" stroke="#000000" stroke-linecap="round" stroke-linejoin="round" stroke-width="1"></path></svg>