<svg viewBox="0 0 24 24" xmlns="http://www.w3.org/2000/svg" id="Modern-Weapon-Gun--Streamline-Ultimate"><desc>Modern Weapon Gun Streamline Icon: https://streamlinehq.com</desc><path d="M20.25 3.25h-15a4.5 4.5 0 0 0 -4.5 4.5v4.5h0a2.771 2.771 0 0 1 2.71 3.35l-1.21 5.65H9l1.674 -7.814a1.5 1.5 0 0 1 1.467 -1.186h8.109Z" fill="none" stroke="#000000" stroke-linecap="round" stroke-linejoin="round" stroke-width="1"></path><path d="M20.25 4.75h2.5a0.5 0.5 0 0 1 0.5 0.5v3.5a0.5 0.5 0 0 1 -0.5 0.5h-2.5l0 0v-4.5l0 0Z" fill="none" stroke="#000000" stroke-linecap="round" stroke-linejoin="round" stroke-width="1"></path><path d="M10.286 15.25h3.037a1.5 1.5 0 0 0 1.342 -0.829l1.085 -2.171" fill="none" stroke="#000000" stroke-linecap="round" stroke-linejoin="round" stroke-width="1"></path><path d="m9 21.25 2.25 0" fill="none" stroke="#000000" stroke-linecap="round" stroke-linejoin="round" stroke-width="1"></path><path d="M15.75 3.25V5.5a0.75 0.75 0 0 1 -0.75 0.75h-4.5a0.75 0.75 0 0 1 -0.75 -0.75V3.25" fill="none" stroke="#000000" stroke-linecap="round" stroke-linejoin="round" stroke-width="1"></path><path d="m11.25 9.25 -10.5 0" fill="none" stroke="#000000" stroke-linecap="round" stroke-linejoin="round" stroke-width="1"></path><path d="M4.554 3.304 3 1.75" fill="none" stroke="#000000" stroke-linecap="round" stroke-linejoin="round" stroke-width="1"></path></svg>