<svg viewBox="0 0 24 24" xmlns="http://www.w3.org/2000/svg" id="Modern-Weapon-Shotgun--Streamline-Ultimate"><desc>Modern Weapon Shotgun Streamline Icon: https://streamlinehq.com</desc><path d="M11.759 12.374 9.123 6.909 4.182 9.292A6.067 6.067 0 0 0 0.8 15.529l0.747 6.99a0.758 0.758 0 0 0 1.081 0.586L5.4 21.77a1.516 1.516 0 0 0 0.822 -1.67l-0.611 -4.757 6.148 -2.965" fill="none" stroke="#000000" stroke-linecap="round" stroke-linejoin="round" stroke-width="1"></path><path d="M9.1228100461 6.9087881074 21.6426209676 0.8702175404a0.507 0.507 0 0 1 0.676913627 0.2364020763l0.8771132355 1.818525054a0.507 0.507 0 0 1 -0.2364020762 0.676913627L10.4404348324 9.6406288645l0 0 -1.3176247863 -2.7318407572 0 0Z" fill="none" stroke="#000000" stroke-linecap="round" stroke-linejoin="round" stroke-width="1"></path><path d="m10.441400092 9.6404134027 6.8309529516 -3.29471361 0 0 0.8771132356 1.818525054a1.015 1.015 0 0 1 -0.4732704288 1.3551623892l-5.9167365426 2.8537676298 0 0 -1.3180592159 -2.732741463 0 0Z" fill="none" stroke="#000000" stroke-linecap="round" stroke-linejoin="round" stroke-width="1"></path><path d="m5.611 15.339 -4.595 2.216" fill="none" stroke="#000000" stroke-linecap="round" stroke-linejoin="round" stroke-width="1"></path><path d="M6.059 18.631 8.9 17.5a1.517 1.517 0 0 0 0.954 -1.408v-2.798" fill="none" stroke="#000000" stroke-linecap="round" stroke-linejoin="round" stroke-width="1"></path></svg>