<svg viewBox="0 0 24 24" xmlns="http://www.w3.org/2000/svg" id="Modern-Weapon-Tank-Machine-Gun--Streamline-Ultimate"><desc>Modern Weapon Tank Machine Gun Streamline Icon: https://streamlinehq.com</desc><path d="M6.75 20.25a3 3 0 1 0 6 0 3 3 0 1 0 -6 0Z" fill="none" stroke="#000000" stroke-linecap="round" stroke-linejoin="round" stroke-width="1"></path><path d="m6.75 20.25 -6 3" fill="none" stroke="#000000" stroke-linecap="round" stroke-linejoin="round" stroke-width="1"></path><path d="M12.75 20.25h6.879a1.5 1.5 0 0 1 1.06 0.439l2.561 2.561" fill="none" stroke="#000000" stroke-linecap="round" stroke-linejoin="round" stroke-width="1"></path><path d="M11.568 17.864 14.03 15.4a0.75 0.75 0 0 0 0 -1.061l-2.651 -2.652a1.5 1.5 0 0 0 -2.122 0L5.545 15.4a0.749 0.749 0 0 0 0 1.06l1.885 1.888" fill="none" stroke="#000000" stroke-linecap="round" stroke-linejoin="round" stroke-width="1"></path><path d="M11.845 12.155 18.75 5.25" fill="none" stroke="#000000" stroke-linecap="round" stroke-linejoin="round" stroke-width="1"></path><path d="M18.75 5.25h0a1.9 1.9 0 0 0 2.825 -0.156L23.25 3 21 0.75l-2.094 1.675a1.9 1.9 0 0 0 -0.156 2.825Z" fill="none" stroke="#000000" stroke-linecap="round" stroke-linejoin="round" stroke-width="1"></path><path d="m6.723 14.223 -1.162 -1.162a1.5 1.5 0 0 1 0 -2.122L6.75 9.75" fill="none" stroke="#000000" stroke-linecap="round" stroke-linejoin="round" stroke-width="1"></path></svg>