<svg viewBox="0 0 24 24" xmlns="http://www.w3.org/2000/svg" id="Modern-Weapon-Machine-Gun-1--Streamline-Ultimate"><desc>Modern Weapon Machine Gun 1 Streamline Icon: https://streamlinehq.com</desc><path d="M0.97 18.736a0.749 0.749 0 0 0 0 1.06L4.2 23.03a0.75 0.75 0 0 0 1.2 -0.2l2.534 -5.069 -3 -3Z" fill="none" stroke="#000000" stroke-linecap="round" stroke-linejoin="round" stroke-width="1"></path><path d="m4.939 14.766 0.24 -2.467a0.746 0.746 0 0 1 0.216 -0.458l4.749 -4.749a1.5 1.5 0 0 1 2.121 0l3.174 3.174 -7.5 7.5Z" fill="none" stroke="#000000" stroke-linecap="round" stroke-linejoin="round" stroke-width="1"></path><path d="M14.689 9.516 23.25 0.955" fill="none" stroke="#000000" stroke-linecap="round" stroke-linejoin="round" stroke-width="1"></path><path d="m12.439 7.266 2.787 -2.786a1.5 1.5 0 0 1 1.154 -0.437l3.559 0.223" fill="none" stroke="#000000" stroke-linecap="round" stroke-linejoin="round" stroke-width="1"></path><path d="M21.697 2.508 19.939 0.75" fill="none" stroke="#000000" stroke-linecap="round" stroke-linejoin="round" stroke-width="1"></path><path d="m7.939 17.766 3.661 3.659a0.75 0.75 0 0 0 1.061 0l0.722 -0.722a0.75 0.75 0 0 0 0.062 -0.99l-3.254 -4.2" fill="none" stroke="#000000" stroke-linecap="round" stroke-linejoin="round" stroke-width="1"></path><path d="M22.361 13.205a0.747 0.747 0 0 0 -0.829 -0.561 6.246 6.246 0 0 1 -4.758 -1.31l-1.335 -1.068 -2.25 2.25 1.693 1.693a6.983 6.983 0 0 0 7.447 1.577 0.75 0.75 0 0 0 0.458 -0.881Z" fill="none" stroke="#000000" stroke-linecap="round" stroke-linejoin="round" stroke-width="1"></path></svg>