<svg viewBox="0 0 24 24" xmlns="http://www.w3.org/2000/svg" id="Modern-Weapon-Gun-1--Streamline-Ultimate"><desc>Modern Weapon Gun 1 Streamline Icon: https://streamlinehq.com</desc><path d="m9 23.25 -1.5 0" fill="none" stroke="#000000" stroke-linecap="round" stroke-linejoin="round" stroke-width="1"></path><path d="M19.5 6h3.75v3H19.5z" fill="none" stroke="#000000" stroke-linecap="round" stroke-linejoin="round" stroke-width="1"></path><path d="M17.651 0.75a0.75 0.75 0 0 0 -0.624 0.334L15.75 3H6v-0.75A1.5 1.5 0 0 0 4.5 0.75H2.25L0.75 3v8.114a1.5 1.5 0 0 0 0.775 1.314L3.469 13.5l-1.114 8.907a0.751 0.751 0 0 0 0.745 0.843h4.4l1.219 -9.75H18.75a0.75 0.75 0 0 0 0.75 -0.75V1.5a0.75 0.75 0 0 0 -0.75 -0.75Z" fill="none" stroke="#000000" stroke-linecap="round" stroke-linejoin="round" stroke-width="1"></path><path d="M0.75 9 19.5 9" fill="none" stroke="#000000" stroke-linecap="round" stroke-linejoin="round" stroke-width="1"></path><path d="M10.5 6 12 6" fill="none" stroke="#000000" stroke-linecap="round" stroke-linejoin="round" stroke-width="1"></path><path d="M8.344 16.5h2.485a1.5 1.5 0 0 0 1.455 -1.136l0.466 -1.864" fill="none" stroke="#000000" stroke-linecap="round" stroke-linejoin="round" stroke-width="1"></path></svg>