<svg xmlns="http://www.w3.org/2000/svg" viewBox="0 0 24 24" id="Asian-Food-Noodles-Bowl--Streamline-Ultimate"><desc>Asian Food Noodles Bowl Streamline Icon: https://streamlinehq.com</desc><g><path d="m2.9 6.75 19.5 -6" fill="none" stroke="#000000" stroke-linecap="round" stroke-linejoin="round" stroke-width="1"></path><path d="m2.9 8.25 19.5 -3" fill="none" stroke="#000000" stroke-linecap="round" stroke-linejoin="round" stroke-width="1"></path><path d="M7.87 7.49a2.79 2.79 0 0 1 -0.08 2.6l-0.9 1.57a5.33 5.33 0 0 0 -0.33 2.59" fill="none" stroke="#000000" stroke-linecap="round" stroke-linejoin="round" stroke-width="1"></path><path d="M11.28 7a2.76 2.76 0 0 1 0.26 3.12l-0.9 1.57a5.33 5.33 0 0 0 -0.33 2.59" fill="none" stroke="#000000" stroke-linecap="round" stroke-linejoin="round" stroke-width="1"></path><path d="M14.66 6.44a2.82 2.82 0 0 1 0.75 3.65l-0.89 1.57a5.33 5.33 0 0 0 -0.33 2.59" fill="none" stroke="#000000" stroke-linecap="round" stroke-linejoin="round" stroke-width="1"></path><path d="M2.35 14.25a0.75 0.75 0 0 0 -0.7 1 11.58 11.58 0 0 0 6.5 5.79v1.46a0.76 0.76 0 0 0 0.75 0.75h6a0.75 0.75 0 0 0 0.75 -0.75v-1.43a11.51 11.51 0 0 0 6.5 -5.79 0.75 0.75 0 0 0 -0.69 -1Z" fill="none" stroke="#000000" stroke-linecap="round" stroke-linejoin="round" stroke-width="1"></path></g></svg>