<svg xmlns="http://www.w3.org/2000/svg" viewBox="0 0 24 24" id="Asian-Food-Japanese-Sweets-Dango-On-Stick--Streamline-Ultimate"><desc>Asian Food Japanese Sweets Dango On Stick Streamline Icon: https://streamlinehq.com</desc><defs></defs><path d="M8.462 14.772A3.672 3.672 0 1 1 1.8 17.006" fill="none" stroke="#000000" stroke-linecap="round" stroke-linejoin="round" stroke-width="1"></path><path d="M14.438 10.5a3.672 3.672 0 1 1 -5.976 4.269" fill="none" stroke="#000000" stroke-linecap="round" stroke-linejoin="round" stroke-width="1"></path><path d="M20.055 5.805a2.082 2.082 0 0 1 0.358 0.429 3.672 3.672 0 1 1 -5.975 4.266" fill="none" stroke="#000000" stroke-linecap="round" stroke-linejoin="round" stroke-width="1"></path><path d="m23.25 4.158 -2.837 2.076" fill="none" stroke="#000000" stroke-linecap="round" stroke-linejoin="round" stroke-width="1"></path><path d="M4.093 16.04a2.315 2.315 0 0 0 -1.9 0.723 0.921 0.921 0 0 1 -0.934 0.183 1.153 1.153 0 0 1 -0.478 -0.907 3.35 3.35 0 0 1 0.448 -2.132 4.11 4.11 0 0 1 3.664 -1.668c2.23 0 0.634 -1.643 3.278 -3.583a4.28 4.28 0 0 1 2.529 -0.572 2.4 2.4 0 0 0 2.309 -1.841 3.862 3.862 0 0 1 4.239 -2.788 5.846 5.846 0 0 1 2.632 1.012 1.377 1.377 0 0 1 0.457 0.551 0.63 0.63 0 0 1 -0.111 0.675 0.9 0.9 0 0 1 -0.3 0.17 5.975 5.975 0 0 1 -1.246 0.328 2.6 2.6 0 0 0 -1.152 0.317 1.73 1.73 0 0 0 -0.462 0.543 4.67 4.67 0 0 0 -0.5 1.194 2.6 2.6 0 0 1 -0.366 0.955c-0.561 0.728 -1.8 0.428 -2.5 1.021a2.9 2.9 0 0 0 -0.647 1.046 7.093 7.093 0 0 1 -0.8 1.315 2.359 2.359 0 0 1 -0.889 0.776 4.1 4.1 0 0 1 -2.045 -0.027 1.713 1.713 0 0 0 -0.632 0.063c-1.571 0.426 -0.75 1.981 -1.718 2.626s-2.195 0.109 -2.876 0.02Z" fill="none" stroke="#000000" stroke-linecap="round" stroke-linejoin="round" stroke-width="1"></path></svg>