<svg xmlns="http://www.w3.org/2000/svg" viewBox="0 0 24 24" id="Asian-Food-Barbeque-Sucking-Pork-Roasted--Streamline-Ultimate"><desc>Asian Food Barbeque Sucking Pork Roasted Streamline Icon: https://streamlinehq.com</desc><defs></defs><path d="M21.43 14.811A4.6 4.6 0 0 0 16 10.042a14.848 14.848 0 0 0 -1.738 0.316 7.127 7.127 0 0 1 -5.025 -0.4 4.377 4.377 0 0 0 -1.7 -0.341c-0.4 0 -1.523 -2.021 -3.028 -2.155A0.489 0.489 0 0 0 4 8.041c0.171 0.853 0.591 1.94 0.5 2 -1.5 1 -1 2 -1.5 3s-2 1 -2 1l0.152 2.9c1.586 0.555 1.666 1.843 3.549 2.6" fill="none" stroke="#000000" stroke-linecap="round" stroke-linejoin="round" stroke-width="1"></path><path d="m0.75 19.542 22.5 0" fill="none" stroke="#000000" stroke-linecap="round" stroke-linejoin="round" stroke-width="1"></path><path d="m20 22.542 -16 0 -2 -3 20 0 -2 3z" fill="none" stroke="#000000" stroke-linecap="round" stroke-linejoin="round" stroke-width="1"></path><path d="M21.655 19.547a2.667 2.667 0 0 0 -1.333 -4.977 2.639 2.639 0 0 0 -1.648 0.585 2.655 2.655 0 0 0 -4.7 0.305 1.442 1.442 0 0 0 -2.366 1.369l-0.029 0a2.163 2.163 0 0 0 -2.117 2.6" fill="none" stroke="#000000" stroke-linecap="round" stroke-linejoin="round" stroke-width="1"></path><path d="M7.8 1.458c-1.5 1.5 1.5 2.5 0 4" fill="none" stroke="#000000" stroke-linecap="round" stroke-linejoin="round" stroke-width="1"></path><path d="M12.8 3.958c-1.5 1.5 1.5 2.5 0 4" fill="none" stroke="#000000" stroke-linecap="round" stroke-linejoin="round" stroke-width="1"></path><path d="M17.67 1.458c-1.5 1.5 1.5 2.5 0 4" fill="none" stroke="#000000" stroke-linecap="round" stroke-linejoin="round" stroke-width="1"></path></svg>