<svg xmlns="http://www.w3.org/2000/svg" viewBox="0 0 24 24" id="Asian-Food-Xaio-Long-Bao-Soup-Duimpling--Streamline-Ultimate"><desc>Asian Food Xaio Long Bao Soup Duimpling Streamline Icon: https://streamlinehq.com</desc><defs></defs><path d="M10.6 14.037a4.289 4.289 0 0 0 -0.871 1.2" fill="none" stroke="#000000" stroke-linecap="round" stroke-linejoin="round" stroke-width="1"></path><path d="M13.439 14.037a4.675 4.675 0 0 1 0.977 1.2" fill="none" stroke="#000000" stroke-linecap="round" stroke-linejoin="round" stroke-width="1"></path><path d="M15.818 12.342a1.918 1.918 0 1 0 -2.01 -3.259 1.919 1.919 0 0 0 -3.561 0 1.918 1.918 0 1 0 -1.988 3.271 8.849 8.849 0 0 0 -3.444 6.421c0 3.142 3.266 4.191 7.244 4.191s7.165 -1.049 7.165 -4.191a8.856 8.856 0 0 0 -3.406 -6.433Z" fill="none" stroke="#000000" stroke-linecap="round" stroke-linejoin="round" stroke-width="1"></path><path d="M21.408 17.27a2.834 2.834 0 0 0 1.7 -2.672 7.231 7.231 0 0 0 -2.779 -5.251 1.565 1.565 0 1 0 -1.64 -2.659 1.568 1.568 0 0 0 -1.454 -0.981" fill="none" stroke="#000000" stroke-linecap="round" stroke-linejoin="round" stroke-width="1"></path><path d="M6.772 5.707a1.568 1.568 0 0 0 -1.453 0.981A1.565 1.565 0 1 0 3.7 9.357 7.221 7.221 0 0 0 0.887 14.6a2.838 2.838 0 0 0 1.738 2.67" fill="none" stroke="#000000" stroke-linecap="round" stroke-linejoin="round" stroke-width="1"></path><path d="M8.615 1.034C7.5 2.147 9.728 2.889 8.615 4" fill="none" stroke="#000000" stroke-linecap="round" stroke-linejoin="round" stroke-width="1"></path><path d="M12 2.125c-1.113 1.113 1.113 1.855 0 2.968" fill="none" stroke="#000000" stroke-linecap="round" stroke-linejoin="round" stroke-width="1"></path><path d="M15.3 1.034c-1.111 1.113 1.115 1.855 0 2.966" fill="none" stroke="#000000" stroke-linecap="round" stroke-linejoin="round" stroke-width="1"></path></svg>