<svg xmlns="http://www.w3.org/2000/svg" viewBox="0 0 24 24" id="Asian-Food-Corndog--Streamline-Ultimate"><desc>Asian Food Corndog Streamline Icon: https://streamlinehq.com</desc><defs></defs><path d="M15.361 6.141c3.249 4.466 4.1 10.072 1.491 11.967S9.174 17.469 5.926 13 2.483 3.828 5.089 1.934s7.024 -0.26 10.272 4.207Z" stroke-miterlimit="10" fill="none" stroke="#000000" stroke-width="1"></path><path d="m17.846 16.925 2.572 3.536a1.5 1.5 0 0 1 -0.331 2.1h0a1.5 1.5 0 0 1 -2.095 -0.331l-2.353 -3.234" stroke-linecap="round" stroke-linejoin="round" fill="none" stroke="#000000" stroke-width="1"></path><path d="M7.86 4.256c0.734 1.01 -0.883 2.186 -0.149 3.2s2.351 -0.167 3.085 0.841 -0.882 2.187 -0.147 3.2 2.354 -0.163 3.09 0.849 -0.881 2.189 -0.145 3.2" stroke-linecap="round" stroke-linejoin="round" fill="none" stroke="#000000" stroke-width="1"></path></svg>