<svg xmlns="http://www.w3.org/2000/svg" viewBox="0 0 24 24" id="Asian-Food-Gyoza-Grill-Deep-Fried-Dumpling--Streamline-Ultimate"><desc>Asian Food Gyoza Grill Deep Fried Dumpling Streamline Icon: https://streamlinehq.com</desc><defs></defs><path d="M4.3 16.016a3.115 3.115 0 0 1 -3.03 -0.216c-1.116 -0.839 -0.757 -2.354 0.179 -3.853s2.094 -2.414 3.21 -1.575a3.225 3.225 0 0 1 1 1.428" fill="none" stroke="#000000" stroke-linecap="round" stroke-linejoin="round" stroke-width="1"></path><path d="M3.67 10.1c-0.349 -1.041 0.436 -2.172 1.635 -3.149 1.37 -1.115 2.761 -1.607 3.546 -0.451a3.627 3.627 0 0 1 0.428 2.532" fill="none" stroke="#000000" stroke-linecap="round" stroke-linejoin="round" stroke-width="1"></path><path d="M8.582 6.19c0.115 -1.391 1.589 -1.8 3.356 -1.805s3.158 0.485 3.043 1.877A3.686 3.686 0 0 1 13.6 8.606" fill="none" stroke="#000000" stroke-linecap="round" stroke-linejoin="round" stroke-width="1"></path><path d="M14.988 6.111c1.037 -0.935 2.489 -0.287 3.781 0.919s1.967 2.518 0.93 3.452a3.213 3.213 0 0 1 -1.586 0.705" fill="none" stroke="#000000" stroke-linecap="round" stroke-linejoin="round" stroke-width="1"></path><path d="M20.185 9.65c1.1 -0.092 2.008 0.944 2.668 2.346 0.753 1.6 0.894 3.068 -0.416 3.552a3.554 3.554 0 0 1 -2.372 -0.12" fill="none" stroke="#000000" stroke-linecap="round" stroke-linejoin="round" stroke-width="1"></path><path d="M20.033 15.432c0 3.081 -3.532 4.183 -7.889 4.183s-7.889 -1.1 -7.889 -4.183S7.787 8.46 12.144 8.46s7.889 3.892 7.889 6.972Z" fill="none" stroke="#000000" stroke-linecap="round" stroke-linejoin="round" stroke-width="1"></path></svg>