<svg xmlns="http://www.w3.org/2000/svg" viewBox="0 0 24 24" id="Asian-Food-Hotpot-Shabushabu--Streamline-Ultimate"><desc>Asian Food Hotpot Shabushabu Streamline Icon: https://streamlinehq.com</desc><defs></defs><path d="m15.7 7.285 0.81 0.174c3.542 0.763 5.991 2.4 5.991 4.291 0 2.623 -4.7 4.75 -10.5 4.75S1.5 14.373 1.5 11.75c0 -1.893 2.449 -3.528 5.991 -4.291l0.478 -0.1" fill="none" stroke="#000000" stroke-linecap="round" stroke-linejoin="round" stroke-width="1"></path><path d="M22.306 12.65C21.375 14.843 17.118 16.5 12 16.5s-9.375 -1.657 -10.306 -3.85a1.253 1.253 0 0 1 -0.194 -0.4C1.5 21.5 6.683 22.5 12 22.5c5.108 0 10.5 -1.5 10.5 -10.25a1.253 1.253 0 0 1 -0.194 0.4Z" fill="none" stroke="#000000" stroke-linecap="round" stroke-linejoin="round" stroke-width="1"></path><path d="M19.04 11.226a6.786 6.786 0 0 1 2.926 2.024" fill="none" stroke="#000000" stroke-linecap="round" stroke-linejoin="round" stroke-width="1"></path><path d="M1.905 13.44a5.969 5.969 0 0 1 2.6 -2.014" fill="none" stroke="#000000" stroke-linecap="round" stroke-linejoin="round" stroke-width="1"></path><path d="M8.593 4.609a3.407 1.609 0 1 0 6.814 0 3.407 1.609 0 1 0 -6.814 0" fill="none" stroke="#000000" stroke-linecap="round" stroke-linejoin="round" stroke-width="1"></path><path d="M15.407 4.3a18.094 18.094 0 0 0 0.861 6.776 1.88 1.88 0 0 1 -1.241 2.491 10.894 10.894 0 0 1 -6.054 0 1.88 1.88 0 0 1 -1.241 -2.487 18.094 18.094 0 0 0 0.861 -6.78" fill="none" stroke="#000000" stroke-linecap="round" stroke-linejoin="round" stroke-width="1"></path><path d="M4.933 1.5c-1.5 1.5 1.5 2.5 0 4" fill="none" stroke="#000000" stroke-linecap="round" stroke-linejoin="round" stroke-width="1"></path><path d="M20.067 1.5c-1.5 1.5 1.5 2.5 0 4" fill="none" stroke="#000000" stroke-linecap="round" stroke-linejoin="round" stroke-width="1"></path></svg>