<svg xmlns="http://www.w3.org/2000/svg" viewBox="0 0 24 24" id="Asian-Food-Japanese-Assorted-Seafood-In-Seaweed-Cone--Streamline-Ultimate"><desc>Asian Food Japanese Assorted Seafood In Seaweed Cone Streamline Icon: https://streamlinehq.com</desc><defs></defs><path d="m5.287 7.788 -0.491 0.43a1 1 0 0 0 -0.236 1.2l6.76 13.27a1 1 0 0 0 1.789 0l6.76 -13.27a1 1 0 0 0 -0.236 -1.2L12.873 2.3a1 1 0 0 0 -1.317 0l-1.111 0.973" fill="none" stroke="#000000" stroke-linecap="round" stroke-linejoin="round" stroke-width="1"></path><path d="m19.908 9.33 -0.523 0.279a15.476 15.476 0 0 1 -7.17 1.617A14.985 14.985 0 0 1 4.512 9.3" fill="none" stroke="#000000" stroke-linecap="round" stroke-linejoin="round" stroke-width="1"></path><path d="M10.919 7.634 9.182 0.76l-2.779 0.713 0.279 0.787 -2.657 0.889 1.847 6.628" fill="none" stroke="#000000" stroke-linecap="round" stroke-linejoin="round" stroke-width="1"></path><path d="M15.134 10.992a2.7 2.7 0 1 0 -4.5 -2.946 2.068 2.068 0 0 0 -0.455 -0.055 2.036 2.036 0 0 0 -1.885 2.8" fill="none" stroke="#000000" stroke-linecap="round" stroke-linejoin="round" stroke-width="1"></path><path d="m6.786 2.473 0.595 2.08" fill="none" stroke="#000000" stroke-linecap="round" stroke-linejoin="round" stroke-width="1"></path><path d="M12.432 11.26a13.2 13.2 0 0 0 4 5" fill="none" stroke="#000000" stroke-linecap="round" stroke-linejoin="round" stroke-width="1"></path></svg>