<svg xmlns="http://www.w3.org/2000/svg" viewBox="0 0 24 24" id="Asian-Food-Chicken-Biryani-Muslim-Yellow-Rice-With-Chicken--Streamline-Ultimate"><desc>Asian Food Chicken Biryani Muslim Yellow Rice With Chicken Streamline Icon: https://streamlinehq.com</desc><defs></defs><path d="M22.583 13.848A3.026 3.026 0 0 1 23 15.354c0 3.037 -4.925 5.5 -11 5.5s-11 -2.463 -11 -5.5a2.922 2.922 0 0 1 0.234 -1.134" fill="none" stroke="#000000" stroke-linecap="round" stroke-linejoin="round" stroke-width="1"></path><path d="M9.655 7.779a5.1 5.1 0 0 1 3.029 -0.99h2.748a5.125 5.125 0 0 1 5.126 5.125h0a2.735 2.735 0 0 1 -1.954 2.6q-0.27 0.083 -0.541 0.155" fill="none" stroke="#000000" stroke-linecap="round" stroke-linejoin="round" stroke-width="1"></path><path d="M6 9.558a3.314 3.314 0 0 0 -2.552 1.918 3.313 3.313 0 0 0 0.1 3.191 5.315 5.315 0 0 0 3.529 1.9 8.117 8.117 0 0 0 1.286 0.021 15.177 15.177 0 0 0 2.552 -0.056 1.647 1.647 0 0 0 1.145 -2.383q-0.788 -1 -1.551 -2.027a8.21 8.21 0 0 0 -0.821 -0.991A5.314 5.314 0 0 0 6 9.558Z" fill="none" stroke="#000000" stroke-linecap="round" stroke-linejoin="round" stroke-width="1"></path><path d="m12.121 15.525 2.402 1.264" fill="none" stroke="#000000" stroke-linecap="round" stroke-linejoin="round" stroke-width="1"></path><path d="m14.298 17.496 0.476 -1.495" fill="none" stroke="#000000" stroke-linecap="round" stroke-linejoin="round" stroke-width="1"></path><path d="M16.592 6.716a3.377 3.377 0 0 0 0.849 -0.591 6.691 6.691 0 0 0 0.946 -2.662 0.257 0.257 0 0 0 -0.31 -0.311 6.7 6.7 0 0 0 -2.662 0.946 2.844 2.844 0 0 0 -0.77 2.51" fill="none" stroke="#000000" stroke-linecap="round" stroke-linejoin="round" stroke-width="1"></path></svg>