<svg xmlns="http://www.w3.org/2000/svg" viewBox="0 0 24 24" id="Asian-Food-Boxed-Noodle--Streamline-Ultimate"><desc>Asian Food Boxed Noodle Streamline Icon: https://streamlinehq.com</desc><defs></defs><path d="M16.083 23.089H7.255a1 1 0 0 1 -1 -0.916l-0.812 -9.584h12.448l-0.811 9.584a1 1 0 0 1 -0.997 0.916Z" fill="none" stroke="#000000" stroke-linecap="round" stroke-linejoin="round" stroke-width="1"></path><path d="M15.489 16.223h-7.64a1 1 0 0 1 -0.9 -0.56l-1.5 -3.074h12.442l-1.5 3.074a1 1 0 0 1 -0.902 0.56Z" fill="none" stroke="#000000" stroke-linecap="round" stroke-linejoin="round" stroke-width="1"></path><path d="m5.447 12.589 -2.666 2.826" fill="none" stroke="#000000" stroke-linecap="round" stroke-linejoin="round" stroke-width="1"></path><path d="m17.891 12.589 2.667 3.23" fill="none" stroke="#000000" stroke-linecap="round" stroke-linejoin="round" stroke-width="1"></path><path d="m8.953 6.749 -3.172 0.441" fill="none" stroke="#000000" stroke-linecap="round" stroke-linejoin="round" stroke-width="1"></path><path d="m20.587 5.131 -5.532 0.769" fill="none" stroke="#000000" stroke-linecap="round" stroke-linejoin="round" stroke-width="1"></path><path d="M21.219 0.911 6.281 4.589" fill="none" stroke="#000000" stroke-linecap="round" stroke-linejoin="round" stroke-width="1"></path><path d="M14.481 3.7c1.972 2.626 -1.448 3.851 0.178 6.385" fill="none" stroke="#000000" stroke-linecap="round" stroke-linejoin="round" stroke-width="1"></path><path d="M11.886 4.081c1.4 2.372 -1.62 3.6 -0.074 6.008" fill="none" stroke="#000000" stroke-linecap="round" stroke-linejoin="round" stroke-width="1"></path><path d="M9.169 4.349c1.029 2.2 -1.7 3.423 -0.216 5.74" fill="none" stroke="#000000" stroke-linecap="round" stroke-linejoin="round" stroke-width="1"></path></svg>