<svg xmlns="http://www.w3.org/2000/svg" fill="none" viewBox="0 0 24 24" id="Asian-Food-Curry-Rice--Streamline-Ultimate"><desc>Asian Food Curry Rice Streamline Icon: https://streamlinehq.com</desc><path stroke="#000000" stroke-miterlimit="10" d="M12 23c6.0751 0 11 -4.9249 11 -11 0 -6.07513 -4.9249 -11 -11 -11C5.92487 1 1 5.92487 1 12c0 6.0751 4.92487 11 11 11Z" stroke-width="1"></path><path stroke="#000000" stroke-miterlimit="10" d="M11.07 18.939c-1.67699 -0.2228 -3.21658 -1.0453 -4.33398 -2.3155 -1.1174 -1.2702 -1.737 -2.9021 -1.7442 -4.5938 -0.00719 -1.6917 0.5985 -3.32877 1.70506 -4.60841C7.80343 6.14164 9.33596 5.30603 11.011 5.069" stroke-width="1"></path><path stroke="#000000" stroke-miterlimit="10" d="M12 20c2.1217 0 4.1566 -0.8429 5.6569 -2.3431C19.1571 16.1566 20 14.1217 20 12c0 -2.12173 -0.8429 -4.15656 -2.3431 -5.65685C16.1566 4.84285 14.1217 4 12 4c-0.382 0 -0.569 0.2 -0.761 0.532 -0.3722 0.73521 -0.4457 1.58587 -0.205 2.374 0.2415 0.77786 0.5334 1.53914 0.874 2.279 0.6721 1.4701 0.8041 3.1301 0.373 4.688 -0.255 0.745 -0.694 1.413 -0.974 2.149 -0.2911 0.77 -0.401 1.5967 -0.321 2.416 0.0189 0.3507 0.117 0.6926 0.287 1 0.183 0.293 0.379 0.562 0.727 0.562Z" stroke-width="1"></path><path stroke="#000000" stroke-linecap="round" stroke-linejoin="round" d="M8.5 14.5V14" stroke-width="1"></path><path stroke="#000000" stroke-linecap="round" stroke-linejoin="round" d="m9.125 10.297 0.5 0.5" stroke-width="1"></path><path stroke="#000000" d="M15 9c-0.2761 0 -0.5 -0.22386 -0.5 -0.5s0.2239 -0.5 0.5 -0.5" stroke-width="1"></path><path stroke="#000000" d="M15 9c0.2761 0 0.5 -0.22386 0.5 -0.5S15.2761 8 15 8" stroke-width="1"></path><path stroke="#000000" d="M17 12.504c-0.2761 0 -0.5 -0.2239 -0.5 -0.5s0.2239 -0.5 0.5 -0.5" stroke-width="1"></path><path stroke="#000000" d="M17 12.504c0.2761 0 0.5 -0.2239 0.5 -0.5s-0.2239 -0.5 -0.5 -0.5" stroke-width="1"></path><path stroke="#000000" d="M14.5 16.5c-0.2761 0 -0.5 -0.2239 -0.5 -0.5s0.2239 -0.5 0.5 -0.5" stroke-width="1"></path><path stroke="#000000" d="M14.5 16.5c0.2761 0 0.5 -0.2239 0.5 -0.5s-0.2239 -0.5 -0.5 -0.5" stroke-width="1"></path></svg>