<svg xmlns="http://www.w3.org/2000/svg" viewBox="0 0 24 24" id="Asian-Food-Mooncake-Top--Streamline-Ultimate"><desc>Asian Food Mooncake Top Streamline Icon: https://streamlinehq.com</desc><defs></defs><path d="M23.01 10.777A3.687 3.687 0 0 0 20.318 7.3a3.47 3.47 0 0 0 0.1 -0.807 3.783 3.783 0 0 0 -3.886 -3.67 4.043 4.043 0 0 0 -1.091 0.165 3.962 3.962 0 0 0 -6.884 0 4.043 4.043 0 0 0 -1.091 -0.165A3.783 3.783 0 0 0 3.581 6.5a3.47 3.47 0 0 0 0.1 0.807 3.687 3.687 0 0 0 -2.691 3.47 3.569 3.569 0 0 0 1.369 2.775 3.511 3.511 0 0 0 -0.721 2.118 3.783 3.783 0 0 0 3.886 3.67 3.782 3.782 0 0 0 3.885 3.67A3.986 3.986 0 0 0 12 22.057a3.986 3.986 0 0 0 2.591 0.953 3.782 3.782 0 0 0 3.885 -3.67 3.783 3.783 0 0 0 3.886 -3.67 3.511 3.511 0 0 0 -0.721 -2.118 3.569 3.569 0 0 0 1.369 -2.775Z" fill="none" stroke="#000000" stroke-linecap="round" stroke-linejoin="round" stroke-width="1"></path><path d="m8.903 12.077 -3.249 0" fill="none" stroke="#000000" stroke-linecap="round" stroke-linejoin="round" stroke-width="1"></path><path d="m18.153 12.077 -3.25 0" fill="none" stroke="#000000" stroke-linecap="round" stroke-linejoin="round" stroke-width="1"></path><path d="m10.403 14.675 -1.624 2.814" fill="none" stroke="#000000" stroke-linecap="round" stroke-linejoin="round" stroke-width="1"></path><path d="m15.028 6.664 -1.625 2.815" fill="none" stroke="#000000" stroke-linecap="round" stroke-linejoin="round" stroke-width="1"></path><path d="m13.403 14.675 1.625 2.814" fill="none" stroke="#000000" stroke-linecap="round" stroke-linejoin="round" stroke-width="1"></path><path d="m8.779 6.664 1.624 2.815" fill="none" stroke="#000000" stroke-linecap="round" stroke-linejoin="round" stroke-width="1"></path><path d="M8.903 12.057a3 3 0 1 0 6 0 3 3 0 1 0 -6 0" fill="none" stroke="#000000" stroke-linecap="round" stroke-linejoin="round" stroke-width="1"></path></svg>