<svg xmlns="http://www.w3.org/2000/svg" viewBox="0 0 24 24" id="Asian-Food-Salmosa--Streamline-Ultimate"><desc>Asian Food Salmosa Streamline Icon: https://streamlinehq.com</desc><defs></defs><path d="M0.75 17.277a4.301 1.941 0 1 0 8.602 0 4.301 1.941 0 1 0 -8.602 0" fill="none" stroke="#000000" stroke-linecap="round" stroke-linejoin="round" stroke-width="1"></path><path d="M9.352 17.277v1.658c0 1.987 -1.925 3.6 -4.3 3.6s-4.3 -1.611 -4.3 -3.6v-1.658" fill="none" stroke="#000000" stroke-linecap="round" stroke-linejoin="round" stroke-width="1"></path><path d="m16.527 7.356 -2.813 -4.873a2.035 2.035 0 0 0 -3.523 0L6.442 8.978A2.034 2.034 0 0 0 8.2 12.029h5.26" fill="none" stroke="#000000" stroke-linecap="round" stroke-linejoin="round" stroke-width="1"></path><path d="M14.5 4.194a6.026 6.026 0 0 1 -5.983 4.794 6.269 6.269 0 0 1 -1.911 -0.295" fill="none" stroke="#000000" stroke-linecap="round" stroke-linejoin="round" stroke-width="1"></path><path d="m15.7 8.145 -3.749 6.494a2.034 2.034 0 0 0 1.761 3.051h7.5a2.034 2.034 0 0 0 1.762 -3.051l-3.75 -6.494a2.034 2.034 0 0 0 -3.524 0Z" fill="none" stroke="#000000" stroke-linecap="round" stroke-linejoin="round" stroke-width="1"></path><path d="M20.007 9.856a6.027 6.027 0 0 1 -5.98 4.794 6.3 6.3 0 0 1 -1.91 -0.295" fill="none" stroke="#000000" stroke-linecap="round" stroke-linejoin="round" stroke-width="1"></path></svg>