<svg xmlns="http://www.w3.org/2000/svg" viewBox="0 0 24 24" id="Asian-Food-Japanese-Takoyagi-Squid-Ball--Streamline-Ultimate"><desc>Asian Food Japanese Takoyagi Squid Ball Streamline Icon: https://streamlinehq.com</desc><defs></defs><path d="M20.956 21.619H2.651a1 1 0 0 1 -0.987 -0.835l-0.666 -4a1 1 0 0 1 0.986 -1.165h19.639a1 1 0 0 1 0.986 1.165l-0.666 4a1 1 0 0 1 -0.987 0.835Z" fill="none" stroke="#000000" stroke-linecap="round" stroke-linejoin="round" stroke-width="1"></path><path d="m19.684 7.831 -0.395 -2.681 0.81 -1.713a0.632 0.632 0 0 1 0.842 -0.3l1.713 0.81a0.63 0.63 0 0 1 0.3 0.841L22.145 6.5l-2.461 1.33 -1.27 3.09" fill="none" stroke="#000000" stroke-linecap="round" stroke-linejoin="round" stroke-width="1"></path><path d="M8.448 9.969a6.07 6.07 0 0 1 -0.81 -1.962" fill="none" stroke="#000000" stroke-linecap="round" stroke-linejoin="round" stroke-width="1"></path><path d="M15.123 9.967c0.8 -0.154 1.263 -2.242 1.332 -2.8" fill="none" stroke="#000000" stroke-linecap="round" stroke-linejoin="round" stroke-width="1"></path><path d="M15.805 4.317a4.554 4.554 0 0 1 0.723 1.583c0.082 0.341 0.356 1.06 -0.073 1.262a0.733 0.733 0 0 1 -0.688 -0.091 1.329 1.329 0 0 0 -0.565 -0.3 0.936 0.936 0 0 0 -0.531 0.2 1.857 1.857 0 0 1 -1.228 0.36c-0.8 -0.126 -1.234 -1.078 -2.015 -1.282a1.192 1.192 0 0 0 -0.943 0.157 2.325 2.325 0 0 0 -0.288 0.237l-0.7 0.644a4.282 4.282 0 0 1 -1 0.751 1.441 1.441 0 0 1 -1.212 0.068 0.792 0.792 0 0 1 -0.337 -0.279 1 1 0 0 1 -0.126 -0.361A3.408 3.408 0 0 1 7.37 5.04a5.335 5.335 0 0 1 1.519 -1.667 4.94 4.94 0 0 1 6.916 0.944Z" fill="none" stroke="#000000" stroke-linecap="round" stroke-linejoin="round" stroke-width="1"></path><path d="M11.955 15.073a3.989 3.989 0 1 1 7.416 0.546" fill="none" stroke="#000000" stroke-linecap="round" stroke-linejoin="round" stroke-width="1"></path><path d="M4.191 15.619a3.989 3.989 0 1 1 7.2 0" fill="none" stroke="#000000" stroke-linecap="round" stroke-linejoin="round" stroke-width="1"></path></svg>