<svg xmlns="http://www.w3.org/2000/svg" fill="none" viewBox="0 0 24 24" id="Bowl-Of-Hygeia--Streamline-Ultimate"><desc>Bowl Of Hygeia Streamline Icon: https://streamlinehq.com</desc><path stroke="#000000" stroke-linecap="round" stroke-linejoin="round" d="m11.999 17.7812 0 5.2962" stroke-width="1"></path><path stroke="#000000" stroke-linecap="round" stroke-linejoin="round" d="m11.999 12.0297 0 2.5377" stroke-width="1"></path><path stroke="#000000" stroke-linecap="round" stroke-linejoin="round" d="M14.3599 23.0771H9.63791" stroke-width="1"></path><path stroke="#000000" stroke-linecap="round" stroke-linejoin="round" d="M3.15039 6.56899v-0.15267H20.8498v0.15267c0 3.01592 -2.4449 5.46081 -5.4608 5.46081H8.6112c-3.01592 0 -5.46081 -2.44489 -5.46081 -5.46081Z" stroke-width="1"></path><path stroke="#000000" stroke-linecap="round" stroke-linejoin="round" d="M6.50342 14.9874v0.0597c0 1.508 1.22244 2.7304 2.7304 2.7304h6.51828c0.36 0 0.7119 0.1074 1.0106 0.3083v0c0.9956 0.6696 1.0764 2.1048 0.1624 2.882l-0.1107 0.0941" stroke-width="1"></path><path stroke="#000000" stroke-linecap="round" stroke-linejoin="round" d="M18.4952 6.21443V4.0835c0 -1.74568 -1.4151 -3.160832 -3.1608 -3.160832v0c-0.7831 0 -1.5383 0.290672 -2.1192 0.815702L11.999 2.83736" stroke-width="1"></path></svg>