<svg viewBox="0 0 24 24" xmlns="http://www.w3.org/2000/svg" id="Medical-Hospital-1--Streamline-Ultimate"><desc>Medical Hospital 1 Streamline Icon: https://streamlinehq.com</desc><path d="M9.349 3.434a2.684 2.684 0 1 0 5.368 0 2.684 2.684 0 1 0 -5.368 0Z" fill="none" stroke="#000000" stroke-linecap="round" stroke-linejoin="round" stroke-width="1"></path><path d="M15.23 12.625a1.887 1.887 0 0 1 1.807 2.523" fill="none" stroke="#000000" stroke-linecap="round" stroke-linejoin="round" stroke-width="1"></path><path d="m12.033 6.118 0 17.132" fill="none" stroke="#000000" stroke-linecap="round" stroke-linejoin="round" stroke-width="1"></path><path d="M14.494 4.5h7.889c2.677 0 -1.2 6.453 -6.772 4.3" fill="none" stroke="#000000" stroke-linecap="round" stroke-linejoin="round" stroke-width="1"></path><path d="M9.569 4.5H1.682c-2.676 0 1.2 6.453 6.772 4.3" fill="none" stroke="#000000" stroke-linecap="round" stroke-linejoin="round" stroke-width="1"></path><path d="M8.835 12.625A1.9 1.9 0 0 0 6.916 14.5a1.975 1.975 0 0 0 1.919 1.964h5.116a1.919 1.919 0 0 1 0 3.838h-3.517a1.638 1.638 0 0 0 -1.6 1.675 1.708 1.708 0 0 0 0.531 1.247" fill="none" stroke="#000000" stroke-linecap="round" stroke-linejoin="round" stroke-width="1"></path></svg>