<svg xmlns="http://www.w3.org/2000/svg" fill="none" viewBox="0 0 24 24" id="Cos-Math-Symbol--Streamline-Ultimate"><desc>Cos Math Symbol Streamline Icon: https://streamlinehq.com</desc><path stroke="#000000" stroke-linecap="round" stroke-linejoin="round" d="M23.2214 8.11883c-0.3996 -1.13059 -1.6434 -1.94061 -2.9109 -1.94061 -1.547 0 -2.9109 1.25412 -2.9109 2.80115 0 1.20503 0.8201 2.25543 1.9892 2.54763l1.6446 0.4112c1.2859 0.3215 2.1881 1.4769 2.1881 2.8024v0.1703c0 1.6077 -1.3033 2.911 -2.911 2.911 -1.2674 0 -2.5113 -0.8101 -2.9109 -1.9406" stroke-width="1"></path><path stroke="#000000" stroke-linecap="round" stroke-linejoin="round" d="M6.60022 8.11882c-0.39961 -1.13059 -1.64347 -1.9406 -2.91089 -1.9406 -1.60764 0 -2.91089 1.30325 -2.91089 2.91089v5.82179c0 1.6076 1.30325 2.9109 2.91089 2.9109 1.26742 0 2.51128 -0.81 2.91089 -1.9406" stroke-width="1"></path><path stroke="#000000" stroke-linecap="round" stroke-linejoin="round" d="M9.08922 9.08911v5.82179c0 1.6076 1.30328 2.9109 2.91088 2.9109 1.6076 0 2.9109 -1.3033 2.9109 -2.9109V9.08911c0 -1.60764 -1.3033 -2.91089 -2.9109 -2.91089S9.08922 7.48147 9.08922 9.08911Z" stroke-width="1"></path></svg>