<svg xmlns="http://www.w3.org/2000/svg" fill="none" viewBox="0 0 24 24" id="Square-Brackets-Circle--Streamline-Ultimate"><desc>Square Brackets Circle Streamline Icon: https://streamlinehq.com</desc><path stroke="#000000" stroke-linecap="round" stroke-linejoin="round" stroke-miterlimit="10" d="M12 23c6.0751 0 11 -4.9249 11 -11.0001C23 5.92481 18.0751 1 12 1 5.92486 1 1 5.92481 1 11.9999 1 18.0751 5.92486 23 12 23Z" stroke-width="1"></path><path stroke="#000000" stroke-linecap="round" stroke-linejoin="round" stroke-miterlimit="10" d="M9.50663 7.45312h-0.78222c-0.78222 0 -1.46667 0.58672 -1.46667 1.27116v6.35552c0 0.6845 0.68445 1.2711 1.46667 1.2711h0.78222" stroke-width="1"></path><path stroke="#000000" stroke-linecap="round" stroke-linejoin="round" stroke-miterlimit="10" d="M14.3955 7.45312h0.7822c0.7823 0 1.4667 0.58672 1.4667 1.27116v6.35552c0 0.6845 -0.6844 1.2711 -1.4667 1.2711h-0.7822" stroke-width="1"></path></svg>