<svg viewBox="0 0 24 24" xmlns="http://www.w3.org/2000/svg" id="Eject-Button--Streamline-Ultimate"><desc>Eject Button Streamline Icon: https://streamlinehq.com</desc><path d="M8.34 11.758a0.465 0.465 0 0 0 0.038 0.6 0.971 0.971 0 0 0 0.728 0.29h5.788a0.971 0.971 0 0 0 0.728 -0.29 0.465 0.465 0 0 0 0.038 -0.6L12.765 7.73a1.037 1.037 0 0 0 -1.53 0Z" fill="none" stroke="#000000" stroke-linecap="round" stroke-linejoin="round" stroke-width="1"></path><path d="M0.75 11.998a11.25 11.25 0 1 0 22.5 0 11.25 11.25 0 1 0 -22.5 0Z" fill="none" stroke="#000000" stroke-linecap="round" stroke-linejoin="round" stroke-width="1"></path><path d="m15.813 15.643 -7.5 0" fill="none" stroke="#000000" stroke-linecap="round" stroke-linejoin="round" stroke-width="1"></path></svg>