<svg viewBox="0 0 24 24" xmlns="http://www.w3.org/2000/svg" id="Death-Coffin--Streamline-Ultimate"><desc>Death Coffin Streamline Icon: https://streamlinehq.com</desc><path d="M15.419 23.25H8.761a1.5 1.5 0 0 1 -1.455 -1.136L3.974 8.788a1.5 1.5 0 0 1 0.114 -1.034l3.087 -6.175A1.5 1.5 0 0 1 8.517 0.75h7.146A1.5 1.5 0 0 1 17 1.579l3.088 6.175a1.5 1.5 0 0 1 0.112 1.034l-3.326 13.326a1.5 1.5 0 0 1 -1.455 1.136Z" fill="none" stroke="#000000" stroke-linecap="round" stroke-linejoin="round" stroke-width="1"></path><path d="m12.09 5.25 0 11.25" fill="none" stroke="#000000" stroke-linecap="round" stroke-linejoin="round" stroke-width="1"></path><path d="m9.09 8.25 6 0" fill="none" stroke="#000000" stroke-linecap="round" stroke-linejoin="round" stroke-width="1"></path></svg>