<svg xmlns="http://www.w3.org/2000/svg" viewBox="0 0 24 24" id="Hanging-Plant-6--Streamline-Ultimate"><desc>Hanging Plant 6 Streamline Icon: https://streamlinehq.com</desc><defs></defs><title>hanging-plant-6</title><path d="M20.148 18.217c-1.341 -0.833 -1.852 -2.326 -2.251 -3.8a22.831 22.831 0 0 1 -0.722 -6.065c0.009 -2.037 0.527 -5.284 0.453 -7.316" fill="none" stroke="#000000" stroke-linecap="round" stroke-linejoin="round" stroke-width="1"></path><path d="M15.855 4.983a7.429 7.429 0 0 1 -2.812 -0.092 0.753 0.753 0 0 1 -0.424 -1.281 7.2 7.2 0 0 1 2.243 -1.762 1.986 1.986 0 0 1 2.6 0.9c0.273 0.868 -0.446 1.867 -1.607 2.235Z" fill="none" stroke="#000000" stroke-linecap="round" stroke-linejoin="round" stroke-width="1"></path><path d="M19.113 8.773a7.437 7.437 0 0 0 2.767 -0.515 0.753 0.753 0 0 0 0.226 -1.33 7.217 7.217 0 0 0 -2.484 -1.4 1.986 1.986 0 0 0 -2.432 1.279c-0.141 0.893 0.72 1.778 1.923 1.966Z" fill="none" stroke="#000000" stroke-linecap="round" stroke-linejoin="round" stroke-width="1"></path><path d="M20.28 15.836a7.451 7.451 0 0 0 2.53 -1.236 0.752 0.752 0 0 0 -0.136 -1.342 7.2 7.2 0 0 0 -2.767 -0.693c-1.21 0.138 -2.107 0.982 -2 1.884a1.988 1.988 0 0 0 2.373 1.387Z" fill="none" stroke="#000000" stroke-linecap="round" stroke-linejoin="round" stroke-width="1"></path><path d="M15.841 12.03a7.431 7.431 0 0 1 -2.786 0.4 0.753 0.753 0 0 1 -0.641 -1.187 7.222 7.222 0 0 1 1.9 -2.128 1.988 1.988 0 0 1 2.715 0.434 1.987 1.987 0 0 1 -1.188 2.481Z" fill="none" stroke="#000000" stroke-linecap="round" stroke-linejoin="round" stroke-width="1"></path><path d="M17.532 17.833a7.423 7.423 0 0 1 -2.577 1.131 0.753 0.753 0 0 1 -0.935 -0.972 7.225 7.225 0 0 1 1.263 -2.559 1.987 1.987 0 0 1 2.733 -0.307 1.987 1.987 0 0 1 -0.484 2.707Z" fill="none" stroke="#000000" stroke-linecap="round" stroke-linejoin="round" stroke-width="1"></path><path d="M22.631 19.4a7.434 7.434 0 0 1 0.407 2.785 0.752 0.752 0 0 1 -1.185 0.643 7.2 7.2 0 0 1 -2.132 -1.895 1.988 1.988 0 0 1 0.427 -2.717 1.988 1.988 0 0 1 2.483 1.184Z" fill="none" stroke="#000000" stroke-linecap="round" stroke-linejoin="round" stroke-width="1"></path><path d="M6.26 13.8c-0.041 -2.044 -0.465 -3.74 0.036 -5.718s1.787 -5 2.206 -6.991" fill="none" stroke="#000000" stroke-linecap="round" stroke-linejoin="round" stroke-width="1"></path><path d="M5.829 4.491a7.451 7.451 0 0 1 -2.708 -0.769 0.753 0.753 0 0 1 -0.1 -1.345 7.217 7.217 0 0 1 2.6 -1.169 1.986 1.986 0 0 1 2.3 1.5c0.061 0.909 -0.877 1.706 -2.092 1.783Z" fill="none" stroke="#000000" stroke-linecap="round" stroke-linejoin="round" stroke-width="1"></path><path d="M8.325 8.705a7.449 7.449 0 0 0 2.81 0.168 0.753 0.753 0 0 0 0.539 -1.236A7.2 7.2 0 0 0 9.6 5.674a1.987 1.987 0 0 0 -2.67 0.659 1.987 1.987 0 0 0 1.395 2.372Z" fill="none" stroke="#000000" stroke-linecap="round" stroke-linejoin="round" stroke-width="1"></path><path d="M4.234 10.84a7.424 7.424 0 0 1 -2.8 -0.283 0.752 0.752 0 0 1 -0.334 -1.306 7.2 7.2 0 0 1 2.357 -1.606 1.987 1.987 0 0 1 2.53 1.076c0.213 0.879 -0.57 1.832 -1.753 2.119Z" fill="none" stroke="#000000" stroke-linecap="round" stroke-linejoin="round" stroke-width="1"></path><path d="M8.384 15.544a7.435 7.435 0 0 1 -0.277 2.8 0.753 0.753 0 0 1 -1.3 0.339A7.2 7.2 0 0 1 5.19 16.33a1.987 1.987 0 0 1 1.07 -2.53c0.882 -0.22 1.833 0.562 2.124 1.744Z" fill="none" stroke="#000000" stroke-linecap="round" stroke-linejoin="round" stroke-width="1"></path></svg>