<svg xmlns="http://www.w3.org/2000/svg" viewBox="0 0 24 24" id="Hanging-Plant-4--Streamline-Ultimate"><desc>Hanging Plant 4 Streamline Icon: https://streamlinehq.com</desc><defs></defs><title>hanging-plant-4</title><path d="m12 0.75 0 3.627" fill="none" stroke="#000000" stroke-linecap="round" stroke-linejoin="round" stroke-width="1"></path><path d="M12 4.377 3.783 8.638l-2.055 6.697 4.109 6.697L12 23.25" fill="none" stroke="#000000" stroke-linecap="round" stroke-linejoin="round" stroke-width="1"></path><path d="M12 4.377 8.453 9.763l-0.46 2.487" fill="none" stroke="#000000" stroke-linecap="round" stroke-linejoin="round" stroke-width="1"></path><path d="m12 4.377 8.217 4.261 2.055 6.089 -4.109 7.305L12 23.25" fill="none" stroke="#000000" stroke-linecap="round" stroke-linejoin="round" stroke-width="1"></path><path d="m12 4.377 3.252 5.386 0.697 2.769" fill="none" stroke="#000000" stroke-linecap="round" stroke-linejoin="round" stroke-width="1"></path><path d="m19.29 16.297 2.982 -1.57" fill="none" stroke="#000000" stroke-linecap="round" stroke-linejoin="round" stroke-width="1"></path><path d="m1.728 15.335 2.289 0.905" fill="none" stroke="#000000" stroke-linecap="round" stroke-linejoin="round" stroke-width="1"></path><path d="M13.8 20.14a6.117 6.117 0 0 0 3.688 -4.681s-1.713 -1.121 -4.2 1.85a0.246 0.246 0 0 1 -0.43 -0.206c0.23 -1.183 0.28 -2.926 -1.055 -3.894h-0.04a3.76 3.76 0 0 0 -1.235 3.783 0.244 0.244 0 0 1 -0.429 0.2c-2.437 -2.826 -4.105 -1.734 -4.105 -1.734a6.121 6.121 0 0 0 3.687 4.682 4.63 4.63 0 0 0 4.119 0Z" fill="none" stroke="#000000" stroke-linecap="round" stroke-linejoin="round" stroke-width="1"></path><path d="m3.783 8.638 4.67 1.125 6.799 0 4.965 -1.125" fill="none" stroke="#000000" stroke-linecap="round" stroke-linejoin="round" stroke-width="1"></path></svg>