<svg xmlns="http://www.w3.org/2000/svg" viewBox="0 0 24 24" id="Hanging-Plant-2--Streamline-Ultimate"><desc>Hanging Plant 2 Streamline Icon: https://streamlinehq.com</desc><defs></defs><title>hanging-plant-2</title><path d="M8.424 22.563a7.309 7.309 0 0 0 1.65 0.187h2.7a7.424 7.424 0 0 0 4.914 -1.868" fill="none" stroke="#000000" stroke-linecap="round" stroke-linejoin="round" stroke-width="1"></path><path d="M9.75 2.5a1.75 1.75 0 1 0 3.5 0 1.75 1.75 0 1 0 -3.5 0" fill="none" stroke="#000000" stroke-linecap="round" stroke-linejoin="round" stroke-width="1"></path><path d="M9.75 2.75 6.929 8.157" fill="none" stroke="#000000" stroke-linecap="round" stroke-linejoin="round" stroke-width="1"></path><path d="m13.358 2.75 2.626 5.033" fill="none" stroke="#000000" stroke-linecap="round" stroke-linejoin="round" stroke-width="1"></path><path d="M6.964 15.5h7.649a2.183 2.183 0 0 0 -0.28 1.083 1.827 1.827 0 0 0 1.329 1.754 1.825 1.825 0 0 0 2.348 2.446S18 20.916 18 21a2.25 2.25 0 1 0 3.113 -2.079 1.963 1.963 0 0 0 0.387 -1.171c0 -0.023 -0.006 -0.045 -0.007 -0.068a1.995 1.995 0 0 0 -0.11 -3.893 2.132 2.132 0 0 0 0.117 -0.689 2.162 2.162 0 0 0 -3.909 -1.277 2.388 2.388 0 0 0 -2.676 0.131 2.425 2.425 0 0 0 -4.767 0.376 2.139 2.139 0 0 0 -2.309 0.052 2.424 2.424 0 0 0 -4.733 0.489 2.074 2.074 0 0 0 -0.21 -0.021 1.885 1.885 0 0 0 -0.876 3.56A1.757 1.757 0 0 0 1 17.833c0 0.029 0.007 0.056 0.008 0.084S1 17.972 1 18a1.747 1.747 0 0 0 1.008 1.58A1.747 1.747 0 0 0 5.5 19.5a1.906 1.906 0 0 0 -1.019 -1.685A1.73 1.73 0 0 0 5.25 18 1.933 1.933 0 0 0 7 16.483a1.573 1.573 0 0 0 -0.036 -0.983" fill="none" stroke="#000000" stroke-linecap="round" stroke-linejoin="round" stroke-width="1"></path></svg>