<svg xmlns="http://www.w3.org/2000/svg" viewBox="0 0 24 24" id="Hanging-Plant-1--Streamline-Ultimate"><desc>Hanging Plant 1 Streamline Icon: https://streamlinehq.com</desc><defs></defs><title>hanging-plant-1</title><path d="M12.024 17.625c-0.071 -3.359 -2.1 -7.487 -5.334 -8.79a47.193 47.193 0 0 1 0.494 6.752" fill="none" stroke="#000000" stroke-linecap="round" stroke-linejoin="round" stroke-width="1"></path><path d="M8.484 17.625a6 6 0 0 0 -4.349 -3.761 7.005 7.005 0 0 0 -3.354 0.236c0.69 0.154 2.178 1.882 3.243 3.522" fill="none" stroke="#000000" stroke-linecap="round" stroke-linejoin="round" stroke-width="1"></path><path d="M16.846 15.554a46.463 46.463 0 0 1 0.464 -6.719c-3.232 1.3 -5.264 5.431 -5.334 8.79" fill="none" stroke="#000000" stroke-linecap="round" stroke-linejoin="round" stroke-width="1"></path><path d="M19.976 17.625c1.065 -1.64 2.553 -3.368 3.243 -3.522a7.005 7.005 0 0 0 -3.354 -0.239 6 6 0 0 0 -4.349 3.761" fill="none" stroke="#000000" stroke-linecap="round" stroke-linejoin="round" stroke-width="1"></path><path d="M3.082 17.625a7.869 7.869 0 0 0 7.434 5.625h2.762a7.869 7.869 0 0 0 7.434 -5.625" fill="none" stroke="#000000" stroke-linecap="round" stroke-linejoin="round" stroke-width="1"></path><path d="M9.901 2.54a1.79 1.79 0 1 0 3.58 0 1.79 1.79 0 1 0 -3.58 0" fill="none" stroke="#000000" stroke-linecap="round" stroke-linejoin="round" stroke-width="1"></path><path d="m9.916 2.768 -1.77 3.393" fill="none" stroke="#000000" stroke-linecap="round" stroke-linejoin="round" stroke-width="1"></path><path d="M9.901 2.54a1.79 1.79 0 1 0 3.58 0 1.79 1.79 0 1 0 -3.58 0" fill="none" stroke="#000000" stroke-linecap="round" stroke-linejoin="round" stroke-width="1"></path><path d="m13.467 2.768 1.77 3.393" fill="none" stroke="#000000" stroke-linecap="round" stroke-linejoin="round" stroke-width="1"></path><path d="m1.123 17.625 21.548 0" fill="none" stroke="#000000" stroke-linecap="round" stroke-linejoin="round" stroke-width="1"></path></svg>