<svg xmlns="http://www.w3.org/2000/svg" viewBox="0 0 24 24" id="Indoor-Plant-5--Streamline-Ultimate"><desc>Indoor Plant 5 Streamline Icon: https://streamlinehq.com</desc><defs></defs><title>indooor-plant-5</title><path d="M8.8 22.194c0.089 0.668 0.5 1.153 0.982 1.153h5.878c0.48 0 0.893 -0.485 0.981 -1.153l1.124 -6.634a1.462 1.462 0 0 0 -0.8 -1.651 0.728 0.728 0 0 0 -0.185 -0.024H8.654c-0.552 0 -1 0.633 -1 1.414a1.9 1.9 0 0 0 0.018 0.261Z" fill="none" stroke="#000000" stroke-linecap="round" stroke-linejoin="round" stroke-width="1"></path><path d="M11.623 13.581a18.424 18.424 0 0 0 -4.837 -8.937h0" fill="none" stroke="#000000" stroke-linecap="round" stroke-linejoin="round" stroke-width="1"></path><path d="M10.628 3.6c2.369 2.675 2.309 5.157 0.748 6.539s-4.032 1.141 -6.4 -1.534 -3.024 -5.96 -1.463 -7.342S8.26 0.929 10.628 3.6Z" fill="none" stroke="#000000" stroke-linecap="round" stroke-linejoin="round" stroke-width="1"></path><path d="M14.851 13.885c0.511 -1.627 0.406 -3.066 2.063 -5.608" fill="none" stroke="#000000" stroke-linecap="round" stroke-linejoin="round" stroke-width="1"></path><path d="M15.814 5.532C14 7.693 14.1 9.649 15.365 10.706s3.2 0.813 5.015 -1.348 2.256 -4.769 1 -5.825 -3.756 -0.161 -5.566 1.999Z" fill="none" stroke="#000000" stroke-linecap="round" stroke-linejoin="round" stroke-width="1"></path></svg>