<svg xmlns="http://www.w3.org/2000/svg" viewBox="0 0 24 24" id="Indoor-Plant-9--Streamline-Ultimate"><desc>Indoor Plant 9 Streamline Icon: https://streamlinehq.com</desc><defs></defs><title>indooor-plant-9</title><path d="M8.983 8.7c1.088 1.245 1.253 2.753 1.57 4.641" fill="none" stroke="#000000" stroke-linecap="round" stroke-linejoin="round" stroke-width="1"></path><path d="M15.624 9.384c-0.315 1.385 -0.672 2.78 -0.913 4.181" fill="none" stroke="#000000" stroke-linecap="round" stroke-linejoin="round" stroke-width="1"></path><path d="M10.957 4.18a1.707 1.707 0 0 0 -2.6 -1.461 1.55 1.55 0 0 0 0.025 -0.254 1.715 1.715 0 0 0 -3.43 0 1.67 1.67 0 0 0 0.026 0.254A1.711 1.711 0 1 0 4.05 5.9 1.71 1.71 0 1 0 6.669 8a1.709 1.709 0 1 0 2.619 -2.109 1.715 1.715 0 0 0 1.669 -1.711Z" fill="none" stroke="#000000" stroke-linecap="round" stroke-linejoin="round" stroke-width="1"></path><path d="M21.616 5.024a1.606 1.606 0 0 0 -2.446 -1.375 1.6 1.6 0 0 0 0.024 -0.239 1.615 1.615 0 1 0 -3.23 0 1.6 1.6 0 0 0 0.024 0.239 1.611 1.611 0 1 0 -0.875 2.99 1.609 1.609 0 1 0 2.466 1.978 1.609 1.609 0 1 0 2.466 -1.982 1.615 1.615 0 0 0 1.571 -1.611Z" fill="none" stroke="#000000" stroke-linecap="round" stroke-linejoin="round" stroke-width="1"></path><path d="M15.09 15.184A5.5 5.5 0 0 1 12 19.109c-0.346 -1.455 -3.057 -3.413 -1.664 -5.517 0.687 -1.038 2.324 -0.669 2.324 -0.669 1.759 -0.062 2.67 0.786 2.43 2.261Z" fill="none" stroke="#000000" stroke-linecap="round" stroke-linejoin="round" stroke-width="1"></path><path d="M20.238 13.494a5.5 5.5 0 0 1 -0.763 4.936c-1.015 -1.1 -4.338 -1.472 -4.159 -3.989 0.089 -1.241 1.7 -1.724 1.7 -1.724 1.497 -0.917 2.706 -0.625 3.222 0.777Z" fill="none" stroke="#000000" stroke-linecap="round" stroke-linejoin="round" stroke-width="1"></path><path d="M8.039 13.173s1.62 0.438 1.743 1.676c0.251 2.511 -3.061 2.978 -4.045 4.1a5.5 5.5 0 0 1 -0.9 -4.913c0.475 -1.412 1.676 -1.736 3.202 -0.863Z" fill="none" stroke="#000000" stroke-linecap="round" stroke-linejoin="round" stroke-width="1"></path><path d="m18.146 20.382 -0.42 2.1a0.959 0.959 0 0 1 -0.94 0.766h-8a0.956 0.956 0 0 1 -0.938 -0.766l-0.37 -1.832" fill="none" stroke="#000000" stroke-linecap="round" stroke-linejoin="round" stroke-width="1"></path></svg>