<svg xmlns="http://www.w3.org/2000/svg" viewBox="0 0 24 24" id="Indoor-Plant-13--Streamline-Ultimate"><desc>Indoor Plant 13 Streamline Icon: https://streamlinehq.com</desc><defs></defs><title>indooor-plant-13</title><path d="M15.134 13.219a17.719 17.719 0 0 1 2.053 -3.428 0.556 0.556 0 0 1 0.785 -0.062 0.454 0.454 0 0 1 0.062 0.062 17.674 17.674 0 0 1 2.054 3.428" fill="none" stroke="#000000" stroke-linecap="round" stroke-linejoin="round" stroke-width="1"></path><path d="m17.363 18.345 4.575 -8.6c0.381 -0.246 0.548 -0.23 0.619 0.039l0.527 1.978a5.388 5.388 0 0 1 -5.474 6.588Z" fill="none" stroke="#000000" stroke-linecap="round" stroke-linejoin="round" stroke-width="1"></path><path d="m17.863 18.345 -4.58 -8.6c-0.381 -0.246 -0.547 -0.23 -0.618 0.039l-0.527 1.978a5.387 5.387 0 0 0 5.472 6.588Z" fill="none" stroke="#000000" stroke-linecap="round" stroke-linejoin="round" stroke-width="1"></path><path d="M21.359 23.25h-7.5a1 1 0 0 1 -1 -1l-0.5 -2.905a1 1 0 0 1 1 -1h8.5a1 1 0 0 1 1 1l-0.5 2.905a1 1 0 0 1 -1 1Z" fill="none" stroke="#000000" stroke-linecap="round" stroke-linejoin="round" stroke-width="1"></path><path d="M9.736 15.018H1.745a1 1 0 0 1 -1 -1V1.75a1 1 0 0 1 1 -1H14.3a1 1 0 0 1 1 1v5.429" fill="none" stroke="#000000" stroke-linecap="round" stroke-linejoin="round" stroke-width="1"></path><path d="m8.023 0.75 0 14.268" fill="none" stroke="#000000" stroke-linecap="round" stroke-linejoin="round" stroke-width="1"></path><path d="m0.745 7.884 9.205 0" fill="none" stroke="#000000" stroke-linecap="round" stroke-linejoin="round" stroke-width="1"></path></svg>