<svg xmlns="http://www.w3.org/2000/svg" viewBox="0 0 24 24" id="Indoor-Plant-17--Streamline-Ultimate"><desc>Indoor Plant 17 Streamline Icon: https://streamlinehq.com</desc><defs></defs><title>indooor-plant-17</title><path d="m1.136 16.25 22 0" fill="none" stroke="#000000" stroke-linecap="round" stroke-linejoin="round" stroke-width="1"></path><path d="m3.136 23.25 2 -7" fill="none" stroke="#000000" stroke-linecap="round" stroke-linejoin="round" stroke-width="1"></path><path d="m21.136 23.25 -2 -7" fill="none" stroke="#000000" stroke-linecap="round" stroke-linejoin="round" stroke-width="1"></path><path d="m3.846 20.764 16.579 0" fill="none" stroke="#000000" stroke-linecap="round" stroke-linejoin="round" stroke-width="1"></path><path d="M13.636 5.5a4.75 4.75 0 1 0 9.5 0 4.75 4.75 0 1 0 -9.5 0" fill="none" stroke="#000000" stroke-linecap="round" stroke-linejoin="round" stroke-width="1"></path><path d="M10.836 11.875a4.376 4.376 0 0 1 -8.751 0Z" fill="none" stroke="#000000" stroke-linecap="round" stroke-linejoin="round" stroke-width="1"></path><path d="M3.158 4.456a18.119 18.119 0 0 1 1.822 7.077" fill="none" stroke="#000000" stroke-linecap="round" stroke-linejoin="round" stroke-width="1"></path><path d="M0.864 5.9a1.875 1.875 0 0 0 0.866 0.424" fill="none" stroke="#000000" stroke-linecap="round" stroke-linejoin="round" stroke-width="1"></path><path d="M1.759 8.965a3.755 3.755 0 0 0 0.738 0.344" fill="none" stroke="#000000" stroke-linecap="round" stroke-linejoin="round" stroke-width="1"></path><path d="m5.82 4.72 0.238 -0.763" fill="none" stroke="#000000" stroke-linecap="round" stroke-linejoin="round" stroke-width="1"></path><path d="M6.388 7.853a3.519 3.519 0 0 0 0.412 -0.612" fill="none" stroke="#000000" stroke-linecap="round" stroke-linejoin="round" stroke-width="1"></path><path d="m1.785 2.509 -0.613 -0.651" fill="none" stroke="#000000" stroke-linecap="round" stroke-linejoin="round" stroke-width="1"></path><path d="M7.862 11.709a10.156 10.156 0 0 1 1.55 -3.25" fill="none" stroke="#000000" stroke-linecap="round" stroke-linejoin="round" stroke-width="1"></path><path d="M9.192 6.186a2.652 2.652 0 0 0 -0.024 -0.617" fill="none" stroke="#000000" stroke-linecap="round" stroke-linejoin="round" stroke-width="1"></path><path d="M11.346 9.521c0.009 0.01 0.025 0.007 0.037 0l0.474 -0.17" fill="none" stroke="#000000" stroke-linecap="round" stroke-linejoin="round" stroke-width="1"></path></svg>