<svg xmlns="http://www.w3.org/2000/svg" viewBox="0 0 24 24" id="Indoor-Plant-8--Streamline-Ultimate"><desc>Indoor Plant 8 Streamline Icon: https://streamlinehq.com</desc><defs></defs><title>indooor-plant-8</title><path d="M8.368 15.741a22.228 22.228 0 0 1 -0.174 -2.778c0 -2.609 1.425 -3.988 3.183 -3.988s3.182 1.379 3.182 3.988a22.228 22.228 0 0 1 -0.174 2.778" fill="none" stroke="#000000" stroke-linecap="round" stroke-linejoin="round" stroke-width="1"></path><path d="M6.678 15.741h9l0 0v5.5a2 2 0 0 1 -2 2h-5a2 2 0 0 1 -2 -2v-5.5l0 0Z" fill="none" stroke="#000000" stroke-linecap="round" stroke-linejoin="round" stroke-width="1"></path><path d="M14.559 12.651H16.9a4 4 0 0 0 4 -4V7.229a2.25 2.25 0 1 0 -4.5 0v1.262a1.259 1.259 0 0 1 -1.382 1.444h-1.436" fill="none" stroke="#000000" stroke-linecap="round" stroke-linejoin="round" stroke-width="1"></path><path d="M8.311 11.761C6.954 11.277 2.4 8.26 3.19 4.221A3.928 3.928 0 0 1 6.8 0.772c2.18 -0.2 4.408 1.781 3.938 5.288a7.26 7.26 0 0 0 -0.049 2.873" fill="none" stroke="#000000" stroke-linecap="round" stroke-linejoin="round" stroke-width="1"></path><path d="m5.178 15.741 12 0" fill="none" stroke="#000000" stroke-linecap="round" stroke-linejoin="round" stroke-width="1"></path><path d="m18.051 5.066 -1.325 -2.024" fill="none" stroke="#000000" stroke-linecap="round" stroke-linejoin="round" stroke-width="1"></path><path d="m19.25 5.066 1.325 -2.024" fill="none" stroke="#000000" stroke-linecap="round" stroke-linejoin="round" stroke-width="1"></path></svg>