<svg xmlns="http://www.w3.org/2000/svg" viewBox="0 0 24 24" id="Indoor-Plant-14--Streamline-Ultimate"><desc>Indoor Plant 14 Streamline Icon: https://streamlinehq.com</desc><defs></defs><title>indooor-plant-14</title><path d="M1.78 21.2c0.075 0.563 0.422 0.971 0.826 0.971h3.65c0.4 0 0.751 -0.408 0.826 -0.971l0.945 -5.482a1.229 1.229 0 0 0 -0.671 -1.389 0.585 0.585 0 0 0 -0.155 -0.021h-5.54c-0.464 0 -0.841 0.533 -0.841 1.19a1.6 1.6 0 0 0 0.015 0.22Z" fill="none" stroke="#000000" stroke-linecap="round" stroke-linejoin="round" stroke-width="1"></path><path d="M4.756 14.311c0.147 -1.455 0.332 -3.429 0.5 -4.416A13.731 13.731 0 0 1 6.63 5.8" fill="none" stroke="#000000" stroke-linecap="round" stroke-linejoin="round" stroke-width="1"></path><path d="M4.208 4.651C2.886 7 3.323 8.816 4.692 9.587s3.15 0.2 4.472 -2.142S10.449 2.573 9.08 1.8s-3.549 0.506 -4.872 2.851Z" fill="none" stroke="#000000" stroke-linecap="round" stroke-linejoin="round" stroke-width="1"></path><path d="M10.306 19.516a2.983 2.983 0 0 0 1.874 0.658h8a3 3 0 0 0 3 -3v-3a1.5 1.5 0 0 0 -3 0v1.5a0.75 0.75 0 0 1 -0.75 0.75h-6.5a0.75 0.75 0 0 1 -0.75 -0.75v-1.5a1.5 1.5 0 0 0 -1.5 -1.5" fill="none" stroke="#000000" stroke-linecap="round" stroke-linejoin="round" stroke-width="1"></path><path d="m12.18 20.174 0 2.25" fill="none" stroke="#000000" stroke-linecap="round" stroke-linejoin="round" stroke-width="1"></path><path d="m19.68 20.174 0 2.25" fill="none" stroke="#000000" stroke-linecap="round" stroke-linejoin="round" stroke-width="1"></path><path d="M10.658 12.674a4.5 4.5 0 0 1 4.5 -4.5h2.022a4.5 4.5 0 0 1 4.5 4.5" fill="none" stroke="#000000" stroke-linecap="round" stroke-linejoin="round" stroke-width="1"></path><path d="M0.82 8.679a36.223 36.223 0 0 1 2.369 5.632" fill="none" stroke="#000000" stroke-linecap="round" stroke-linejoin="round" stroke-width="1"></path></svg>