<svg xmlns="http://www.w3.org/2000/svg" viewBox="0 0 24 24" id="Indoor-Plant-10--Streamline-Ultimate"><desc>Indoor Plant 10 Streamline Icon: https://streamlinehq.com</desc><defs></defs><title>indooor-plant-10</title><path d="M17.869 19.9a4.042 4.042 0 0 1 -3.4 1.857h-4.76a4.038 4.038 0 0 1 -3.244 -1.63" fill="none" stroke="#000000" stroke-linecap="round" stroke-linejoin="round" stroke-width="1"></path><path d="M8.484 6.378c-0.026 0.077 -0.925 -0.327 -1.059 -0.347a2.923 2.923 0 0 0 -1.572 0.035 4.391 4.391 0 0 1 -1 0.415 3.171 3.171 0 0 1 -0.576 -0.014c-1.465 -0.074 -3.192 1.208 -2.649 2.8a1.61 1.61 0 0 1 0.1 0.329c0.037 0.328 -0.207 0.61 -0.393 0.883a2.984 2.984 0 0 0 -0.472 2.154c0.056 0.328 0.245 0.708 0.578 0.712A5.857 5.857 0 0 1 3.645 11.1c1.036 -0.574 1.786 -2.463 4.148 -0.3" fill="none" stroke="#000000" stroke-linecap="round" stroke-linejoin="round" stroke-width="1"></path><path d="M15.533 6.378c0.026 0.077 0.908 -0.327 1.042 -0.347a2.923 2.923 0 0 1 1.572 0.035 4.391 4.391 0 0 0 1 0.415 3.171 3.171 0 0 0 0.576 -0.014c1.465 -0.074 3.192 1.208 2.649 2.8a1.61 1.61 0 0 0 -0.1 0.329c-0.037 0.328 0.207 0.61 0.393 0.883a2.984 2.984 0 0 1 0.472 2.154c-0.056 0.328 -0.245 0.708 -0.578 0.712a5.857 5.857 0 0 0 -2.204 -2.245c-1.036 -0.574 -1.786 -2.463 -4.148 -0.3" fill="none" stroke="#000000" stroke-linecap="round" stroke-linejoin="round" stroke-width="1"></path><path d="M16.224 10.806a2.181 2.181 0 0 0 1.376 1.182 5.188 5.188 0 0 1 1.676 0.817 1.955 1.955 0 0 1 0.522 2.029 1.6 1.6 0 0 0 -0.1 0.328 1.421 1.421 0 0 0 0.393 0.884 2.984 2.984 0 0 1 0.472 2.154c-0.056 0.328 -0.245 0.707 -0.578 0.712a3.119 3.119 0 0 0 -1.608 -1.527c-0.747 -0.31 -1.684 -0.377 -2.137 -1.047a4.869 4.869 0 0 1 -0.423 -1.329 2.6 2.6 0 0 0 -1.376 -1.564c-0.4 -0.185 -0.886 -0.295 -1.112 -0.674 -0.276 -0.463 -0.012 -1.078 -0.193 -1.586a1.32 1.32 0 0 0 -0.442 -0.57 2.147 2.147 0 0 0 -0.69 -0.36 2.142 2.142 0 0 0 -0.689 0.36 1.32 1.32 0 0 0 -0.442 0.57c-0.181 0.508 0.082 1.123 -0.193 1.586 -0.226 0.379 -0.711 0.489 -1.112 0.674A2.6 2.6 0 0 0 8.2 15.009a4.837 4.837 0 0 1 -0.424 1.329c-0.452 0.67 -1.39 0.737 -2.137 1.047a3.127 3.127 0 0 0 -1.608 1.527c-0.332 0 -0.521 -0.384 -0.577 -0.712a2.983 2.983 0 0 1 0.471 -2.154c0.186 -0.273 0.431 -0.556 0.393 -0.884a1.6 1.6 0 0 0 -0.1 -0.328 1.957 1.957 0 0 1 0.523 -2.029 5.183 5.183 0 0 1 1.675 -0.817 2.18 2.18 0 0 0 1.378 -1.182" fill="none" stroke="#000000" stroke-linecap="round" stroke-linejoin="round" stroke-width="1"></path><path d="M15.533 6.378A11.108 11.108 0 0 1 17.1 5.226c0.285 -0.218 0.5 -0.514 0.79 -0.728a2.4 2.4 0 0 1 1.433 -0.421 7.141 7.141 0 0 1 1.5 0.208c0.112 -0.127 0.007 -0.323 -0.1 -0.454a4.957 4.957 0 0 0 -1.392 -1.21 2.781 2.781 0 0 0 -1.787 -0.347c-0.686 0.118 -1.327 0.552 -2.018 0.466 -0.3 -0.038 -0.59 -0.177 -0.895 -0.214a1.854 1.854 0 0 0 -1.6 0.77 7.051 7.051 0 0 0 -1.084 1.8 6.61 6.61 0 0 0 -0.959 -1.8 1.854 1.854 0 0 0 -1.6 -0.77c-0.3 0.037 -0.591 0.176 -0.9 0.214 -0.69 0.086 -1.332 -0.348 -2.017 -0.466a2.779 2.779 0 0 0 -1.787 0.347A4.957 4.957 0 0 0 3.3 3.831c-0.108 0.131 -0.213 0.327 -0.1 0.454a7.15 7.15 0 0 1 1.5 -0.208 2.4 2.4 0 0 1 1.427 0.423c0.288 0.214 0.506 0.51 0.791 0.728a11.166 11.166 0 0 1 1.566 1.15" fill="none" stroke="#000000" stroke-linecap="round" stroke-linejoin="round" stroke-width="1"></path></svg>