<svg xmlns="http://www.w3.org/2000/svg" fill="none" viewBox="0 0 24 24" id="Indoor-Plant-16--Streamline-Ultimate"><desc>Indoor Plant 16 Streamline Icon: https://streamlinehq.com</desc><path stroke="#000000" stroke-linecap="round" stroke-linejoin="round" d="M23.25 14.659c0 1.657 -5.037 3 -11.25 3s-11.25 -1.343 -11.25 -3" stroke-width="1"></path><path stroke="#000000" stroke-linecap="round" stroke-linejoin="round" d="M9.386 11.74C4.433 12.055 0.75 13.242 0.75 14.659v3.25c0 1.657 5.037 3 11.25 3s11.25 -1.343 11.25 -3v-3.25c0 -1.439 -3.8 -2.64 -8.864 -2.932" stroke-width="1"></path><path stroke="#000000" stroke-linecap="round" stroke-linejoin="round" d="m5.073 20.273 -0.823 2.954" stroke-width="1"></path><path stroke="#000000" stroke-linecap="round" stroke-linejoin="round" d="m18.927 20.273 0.823 2.954" stroke-width="1"></path><path stroke="#000000" stroke-linecap="round" stroke-linejoin="round" d="M14.386 14.59c-1.6466 0.366 -3.3534 0.366 -5.00001 0V8.454H14.386v6.136Z" stroke-width="1"></path><path stroke="#000000" d="M15.001 5.68c-0.2762 0 -0.5 -0.22386 -0.5 -0.5s0.2238 -0.5 0.5 -0.5" stroke-width="1"></path><path stroke="#000000" d="M15.001 5.68c0.2761 0 0.5 -0.22386 0.5 -0.5s-0.2239 -0.5 -0.5 -0.5" stroke-width="1"></path><path stroke="#000000" d="M13.886 2.18c-0.2762 0 -0.5 -0.22386 -0.5 -0.5s0.2238 -0.5 0.5 -0.5" stroke-width="1"></path><path stroke="#000000" d="M13.886 2.18c0.2761 0 0.5 -0.22386 0.5 -0.5s-0.2239 -0.5 -0.5 -0.5" stroke-width="1"></path><path stroke="#000000" d="M9 1.773c-0.27614 0 -0.5 -0.22386 -0.5 -0.5 0 -0.276144 0.22386 -0.500001 0.5 -0.500001" stroke-width="1"></path><path stroke="#000000" d="M9 1.773c0.27614 0 0.5 -0.22386 0.5 -0.5 0 -0.276144 -0.22386 -0.500001 -0.5 -0.500001" stroke-width="1"></path><path stroke="#000000" d="M8.5 5.779c-0.27614 0 -0.5 -0.22386 -0.5 -0.5s0.22386 -0.5 0.5 -0.5" stroke-width="1"></path><path stroke="#000000" d="M8.5 5.779c0.27614 0 0.5 -0.22386 0.5 -0.5s-0.22386 -0.5 -0.5 -0.5" stroke-width="1"></path><path stroke="#000000" stroke-linecap="round" stroke-linejoin="round" d="M10.993 3.289c0.6081 1.59307 0.9484 3.27581 1.007 4.98" stroke-width="1"></path></svg>