<svg xmlns="http://www.w3.org/2000/svg" viewBox="0 0 24 24" id="Vase-Plant-2--Streamline-Ultimate"><desc>Vase Plant 2 Streamline Icon: https://streamlinehq.com</desc><defs></defs><title>vase-plant-2</title><path d="M6.239 17.318h10.4l0 0v3.932a2 2 0 0 1 -2 2h-6.4a2 2 0 0 1 -2 -2v-3.932l0 0Z" fill="none" stroke="#000000" stroke-linecap="round" stroke-linejoin="round" stroke-width="1"></path><path d="M11.622 17.318c0 -5.931 5.07 -11.71 6.934 -12.714 0.011 1.281 -0.757 8.825 -3.587 12.714" fill="none" stroke="#000000" stroke-linecap="round" stroke-linejoin="round" stroke-width="1"></path><path d="M9.288 8.816C9.531 6.26 11 2.727 11.631 0.75a21.413 21.413 0 0 1 2.646 8.54" fill="none" stroke="#000000" stroke-linecap="round" stroke-linejoin="round" stroke-width="1"></path><path d="M8.068 17.318c-1.862 -5.077 -2.81 -8.971 -2.594 -14.25 0.007 -0.154 0.09 -0.363 0.286 -0.342 2.016 1.5 5.874 11.745 6.072 12.447" fill="none" stroke="#000000" stroke-linecap="round" stroke-linejoin="round" stroke-width="1"></path></svg>