<svg viewBox="0 0 24 24" xmlns="http://www.w3.org/2000/svg" id="Camping-Rv--Streamline-Ultimate"><desc>Camping Rv Streamline Icon: https://streamlinehq.com</desc><path d="M3.75 12.75h-1.5a1.5 1.5 0 0 1 -1.5 -1.5v-9a1.5 1.5 0 0 1 1.5 -1.5h18a1.5 1.5 0 0 1 1.5 1.5v10.5h-6" fill="none" stroke="#000000" stroke-linecap="round" stroke-linejoin="round" stroke-width="1"></path><path d="m21.75 12.75 1.5 0" fill="none" stroke="#000000" stroke-linecap="round" stroke-linejoin="round" stroke-width="1"></path><path d="M6.75 12.75a3 3 0 1 0 6 0 3 3 0 1 0 -6 0Z" fill="none" stroke="#000000" stroke-linecap="round" stroke-linejoin="round" stroke-width="1"></path><path d="M3.75 3.75h7.5v3h-7.5z" fill="none" stroke="#000000" stroke-linecap="round" stroke-linejoin="round" stroke-width="1"></path><path d="M14.25 3.75h4.5v3h-4.5z" fill="none" stroke="#000000" stroke-linecap="round" stroke-linejoin="round" stroke-width="1"></path><path d="M18 23.25a2.25 2.25 0 0 1 0 -4.5h2.25v4.5Z" fill="none" stroke="#000000" stroke-linecap="round" stroke-linejoin="round" stroke-width="1"></path><path d="m20.25 19.5 3 0" fill="none" stroke="#000000" stroke-linecap="round" stroke-linejoin="round" stroke-width="1"></path><path d="m20.25 21.75 3 0" fill="none" stroke="#000000" stroke-linecap="round" stroke-linejoin="round" stroke-width="1"></path><path d="M15.75 21H6a3 3 0 0 1 -3 -3v-5.25" fill="none" stroke="#000000" stroke-linecap="round" stroke-linejoin="round" stroke-width="1"></path></svg>