<svg viewBox="0 0 24 24" xmlns="http://www.w3.org/2000/svg" id="Camping-Tent-Sleep--Streamline-Ultimate"><desc>Camping Tent Sleep Streamline Icon: https://streamlinehq.com</desc><path d="M4.356 18.75a2.25 2.25 0 1 0 4.5 0 2.25 2.25 0 1 0 -4.5 0Z" fill="none" stroke="#000000" stroke-linecap="round" stroke-linejoin="round" stroke-width="1"></path><path d="M11.106 16.5h6.25a2 2 0 0 1 2 2V21l0 0h-8.25l0 0v-4.5l0 0Z" fill="none" stroke="#000000" stroke-linecap="round" stroke-linejoin="round" stroke-width="1"></path><path d="m11.856 4.5 8.733 5.822a0.751 0.751 0 0 1 0.323 0.494l2.039 11.554a0.75 0.75 0 0 1 -0.739 0.88H1.5a0.75 0.75 0 0 1 -0.739 -0.88L2.8 10.816a0.751 0.751 0 0 1 0.323 -0.494Z" fill="none" stroke="#000000" stroke-linecap="round" stroke-linejoin="round" stroke-width="1"></path><path d="m11.856 4.5 0 -3.75" fill="none" stroke="#000000" stroke-linecap="round" stroke-linejoin="round" stroke-width="1"></path></svg>