<svg viewBox="0 0 24 24" xmlns="http://www.w3.org/2000/svg" id="Camping-Tent-Person--Streamline-Ultimate"><desc>Camping Tent Person Streamline Icon: https://streamlinehq.com</desc><path d="M15.75 5v1.5a3 3 0 0 0 6 0V5" fill="none" stroke="#000000" stroke-linecap="round" stroke-linejoin="round" stroke-width="1"></path><path d="m15 5 7.5 0" fill="none" stroke="#000000" stroke-linecap="round" stroke-linejoin="round" stroke-width="1"></path><path d="m21.75 5 -6 0 0.75 -3.75 2.25 0.75L21 1.25 21.75 5z" fill="none" stroke="#000000" stroke-linecap="round" stroke-linejoin="round" stroke-width="1"></path><path d="M16.5 23v-3h-0.75a1.5 1.5 0 0 1 -1.5 -1.5V14a3 3 0 0 1 3 -3h3a3 3 0 0 1 3 3v4.5a1.5 1.5 0 0 1 -1.5 1.5H21v3" fill="none" stroke="#000000" stroke-linecap="round" stroke-linejoin="round" stroke-width="1"></path><path d="M11.25 20H1.964a0.75 0.75 0 0 1 -0.671 -1.085L6.75 8l3 6" fill="none" stroke="#000000" stroke-linecap="round" stroke-linejoin="round" stroke-width="1"></path><path d="m4.5 20 2.25 -4.5 0.9 1.8" fill="none" stroke="#000000" stroke-linecap="round" stroke-linejoin="round" stroke-width="1"></path><path d="M6.75 8V3.5L9.8 4.515a0.751 0.751 0 0 1 0.179 1.336L9 6.5" fill="none" stroke="#000000" stroke-linecap="round" stroke-linejoin="round" stroke-width="1"></path></svg>