<svg viewBox="0 0 24 24" xmlns="http://www.w3.org/2000/svg" id="Optimization-Plane--Streamline-Ultimate"><desc>Optimization Plane Streamline Icon: https://streamlinehq.com</desc><path d="m2.456 14.275 19.088 0" fill="none" stroke="#000000" stroke-linecap="round" stroke-linejoin="round" stroke-width="1"></path><path d="m4.816 18.025 1.539 0" fill="none" stroke="#000000" stroke-linecap="round" stroke-linejoin="round" stroke-width="1"></path><path d="m8.921 18.025 1.539 0" fill="none" stroke="#000000" stroke-linecap="round" stroke-linejoin="round" stroke-width="1"></path><path d="m13.026 18.025 1.54 0" fill="none" stroke="#000000" stroke-linecap="round" stroke-linejoin="round" stroke-width="1"></path><path d="m17.132 18.025 1.539 0" fill="none" stroke="#000000" stroke-linecap="round" stroke-linejoin="round" stroke-width="1"></path><path d="M16.371 1.641a1.779 1.779 0 0 1 1.378 1.716 1.76 1.76 0 0 1 -0.822 1.526l-10.143 6.3a0.624 0.624 0 0 1 -0.688 -0.02L2.378 8.551a0.343 0.343 0 0 1 0.007 -0.541l1.56 -1.376a0.343 0.343 0 0 1 0.332 -0.057l1.955 1.165 2.48 -1.73 -4.7 -2.912a0.428 0.428 0 0 1 0.02 -0.667l1.149 -0.851a0.428 0.428 0 0 1 0.4 -0.058l6.477 2.412 3 -2.045a1.663 1.663 0 0 1 1.313 -0.25Z" fill="none" stroke="#000000" stroke-linecap="round" stroke-linejoin="round" stroke-width="1"></path><path d="M13.5 10.525h5.854a1.547 1.547 0 0 1 1.511 1.136l2.338 9a1.514 1.514 0 0 1 -1.512 1.864H2.309A1.514 1.514 0 0 1 0.8 20.661l2.046 -7.878" fill="none" stroke="#000000" stroke-linecap="round" stroke-linejoin="round" stroke-width="1"></path></svg>