<svg viewBox="0 0 24 24" xmlns="http://www.w3.org/2000/svg" id="Optimization-Rocket-Graph--Streamline-Ultimate"><desc>Optimization Rocket Graph Streamline Icon: https://streamlinehq.com</desc><path d="M18 8.947a6.368 6.368 0 0 1 0.327 9.415 6.648 6.648 0 0 1 -9.281 0A6.405 6.405 0 0 1 7.43 15.75" fill="none" stroke="#000000" stroke-linecap="round" stroke-linejoin="round" stroke-width="1"></path><path d="m15.189 6.5 2.067 -2.03a0.949 0.949 0 0 1 1.326 0l1.326 1.3a0.909 0.909 0 0 1 0 1.3l-3.978 3.91a0.952 0.952 0 0 1 -1.17 0.124" fill="none" stroke="#000000" stroke-linecap="round" stroke-linejoin="round" stroke-width="1"></path><path d="m19.061 4.94 2.689 -2.69 -1.5 -1.5" fill="none" stroke="#000000" stroke-linecap="round" stroke-linejoin="round" stroke-width="1"></path><path d="m23.25 3.75 -1.5 -1.5" fill="none" stroke="#000000" stroke-linecap="round" stroke-linejoin="round" stroke-width="1"></path><path d="m5.182 15.75 5.25 0" fill="none" stroke="#000000" stroke-linecap="round" stroke-linejoin="round" stroke-width="1"></path><path d="m6 23.25 14.25 0" fill="none" stroke="#000000" stroke-linecap="round" stroke-linejoin="round" stroke-width="1"></path><path d="m13.5 20.25 0 3" fill="none" stroke="#000000" stroke-linecap="round" stroke-linejoin="round" stroke-width="1"></path><path d="m0.75 12.75 8.25 0" fill="none" stroke="#000000" stroke-linecap="round" stroke-linejoin="round" stroke-width="1"></path><path d="M3 0.75h3v12H3z" fill="none" stroke="#000000" stroke-linecap="round" stroke-linejoin="round" stroke-width="1"></path><path d="M9 3.75h3v9H9z" fill="none" stroke="#000000" stroke-linecap="round" stroke-linejoin="round" stroke-width="1"></path></svg>