<svg xmlns="http://www.w3.org/2000/svg" fill="none" viewBox="0 0 24 24" id="Embassy-Flag-2--Streamline-Ultimate"><desc>Embassy Flag 2 Streamline Icon: https://streamlinehq.com</desc><path stroke="#000000" stroke-linecap="round" stroke-linejoin="round" d="M0.801392 23.2122V0.787781" stroke-width="1"></path><path stroke="#000000" stroke-linecap="round" stroke-linejoin="round" d="m0.801392 17.34 2.671318 -0.8215c1.10657 -0.3407 2.27308 -0.4414 3.42165 -0.2953 1.03596 0.1317 2.03582 0.4615 2.94548 0.9701M19.858 10.6664V3.23305c-0.0001 -0.14744 -0.0344 -0.29283 -0.1002 -0.42477 -0.0658 -0.13193 -0.1613 -0.24682 -0.279 -0.33562 -0.1177 -0.0888 -0.2544 -0.14911 -0.3993 -0.17618 -0.145 -0.02707 -0.2942 -0.02017 -0.436 0.02016l-2.0065 0.57339c-1.0868 0.31042 -2.2263 0.39121 -3.346 0.23723s-2.1951 -0.53936 -3.1578 -1.13162C9.14713 1.38886 8.04294 0.999435 6.89436 0.853381 5.74579 0.707326 4.57928 0.807999 3.47271 1.14868l-2.671318 0.8207" stroke-width="1"></path><path stroke="#000000" stroke-linecap="round" stroke-linejoin="round" d="M13.2034 17.6519v5.5603h8.9299v-5.5603" stroke-width="1"></path><path stroke="#000000" stroke-linecap="round" stroke-linejoin="round" d="M12.1379 17.6519h11.0607" stroke-width="1"></path><path stroke="#000000" stroke-linecap="round" stroke-linejoin="round" d="M12.1379 23.2122h11.0607" stroke-width="1"></path><path stroke="#000000" d="M22.1332 17.6519c0 -2.466 -1.999 -4.465 -4.465 -4.465 -2.4659 0 -4.465 1.999 -4.465 4.465" stroke-width="1"></path><path stroke="#000000" stroke-linecap="round" stroke-linejoin="round" d="m16.1598 23.2122 0 -5.5603" stroke-width="1"></path><path stroke="#000000" stroke-linecap="round" stroke-linejoin="round" d="m19.1766 23.2122 0 -5.5603" stroke-width="1"></path><path stroke="#000000" stroke-linecap="round" stroke-linejoin="round" d="m7.04224 16.1754 0 -14.94023" stroke-width="1"></path><path stroke="#000000" stroke-linecap="round" stroke-linejoin="round" d="m13.6171 11.3522 0 -7.71945" stroke-width="1"></path></svg>