<svg xmlns="http://www.w3.org/2000/svg" fill="none" viewBox="0 0 24 24" id="Embassy-Building-2--Streamline-Ultimate"><desc>Embassy Building 2 Streamline Icon: https://streamlinehq.com</desc><path stroke="#000000" stroke-linejoin="round" d="M12.13 0.892h4.137v3.479H12.13z" stroke-width="1"></path><path stroke="#000000" stroke-linecap="round" stroke-linejoin="round" d="M12.1305 7.61487V3.75958" stroke-width="1"></path><path stroke="#000000" stroke-linecap="round" stroke-linejoin="round" d="M12.8321 23.1084H4.62964v-9.4176c0 -0.1612 0.06401 -0.3157 0.17796 -0.4296 0.11394 -0.114 0.26849 -0.178 0.42963 -0.178h6.98727c0.1612 0 0.3157 0.064 0.4296 0.178 0.114 0.1139 0.178 0.2684 0.178 0.4296v9.4176Z" stroke-width="1"></path><path stroke="#000000" stroke-linecap="round" stroke-linejoin="round" d="M12.8321 23.1084h6.3797V8.52625c0 -0.24171 -0.0961 -0.47353 -0.267 -0.64444 -0.1709 -0.17092 -0.4027 -0.26694 -0.6444 -0.26694h-8.2025c-0.24171 0 -0.47352 0.09602 -0.64444 0.26694 -0.17092 0.17091 -0.26694 0.40273 -0.26694 0.64444v4.55695" stroke-width="1"></path><path stroke="#000000" stroke-linecap="round" stroke-linejoin="round" d="M21.1931 23.1084H2.80688" stroke-width="1"></path><path stroke="#000000" stroke-linecap="round" stroke-linejoin="round" d="M9.18652 16.7287h3.64558" stroke-width="1"></path><path stroke="#000000" stroke-linecap="round" stroke-linejoin="round" d="M16.4777 13.0832h2.7341" stroke-width="1"></path><path stroke="#000000" stroke-linecap="round" stroke-linejoin="round" d="M16.4777 16.7287h2.7341" stroke-width="1"></path></svg>