<svg xmlns="http://www.w3.org/2000/svg" viewBox="0 0 24 24" id="Bag-School--Streamline-Ultimate"><desc>Bag School Streamline Icon: https://streamlinehq.com</desc><g><path d="M3.25 8.25h17.5a1 1 0 0 1 1 1v6a2 2 0 0 1 -2 2H4.25a2 2 0 0 1 -2 -2v-6a1 1 0 0 1 1 -1Z" fill="none" stroke="#000000" stroke-linecap="round" stroke-linejoin="round" stroke-width="1"></path><path d="M20.75 17v4.77a1.5 1.5 0 0 1 -1.5 1.5H4.75a1.5 1.5 0 0 1 -1.5 -1.5V17" fill="none" stroke="#000000" stroke-linecap="round" stroke-linejoin="round" stroke-width="1"></path><path d="M0.75 11.25v-6a4.49 4.49 0 0 1 4.5 -4.5h13.5a4.49 4.49 0 0 1 4.5 4.5v6" fill="none" stroke="#000000" stroke-linecap="round" stroke-linejoin="round" stroke-width="1"></path><path d="m6.75 15.75 0 3" fill="none" stroke="#000000" stroke-linecap="round" stroke-linejoin="round" stroke-width="1"></path><path d="m17.25 15.75 0 3" fill="none" stroke="#000000" stroke-linecap="round" stroke-linejoin="round" stroke-width="1"></path><path d="m12 17.25 0 6" fill="none" stroke="#000000" stroke-linecap="round" stroke-linejoin="round" stroke-width="1"></path></g></svg>