<svg viewBox="0 0 24 24" xmlns="http://www.w3.org/2000/svg" id="Pin-Star--Streamline-Ultimate"><desc>Pin Star Streamline Icon: https://streamlinehq.com</desc><path d="M19.5 8.25c0 4.221 -2.933 6.649 -5.131 9 -1.316 1.408 -2.369 6 -2.369 6s-1.049 -4.589 -2.363 -5.993C7.439 14.907 4.5 12.475 4.5 8.25a7.5 7.5 0 0 1 15 0Z" fill="none" stroke="#000000" stroke-linecap="round" stroke-linejoin="round" stroke-width="1"></path><path d="M11.564 4.018a0.489 0.489 0 0 1 0.872 0l1.012 2.042a0.485 0.485 0 0 0 0.366 0.263l2.271 0.328a0.483 0.483 0 0 1 0.391 0.325 0.474 0.474 0 0 1 -0.121 0.489l-1.65 1.6a0.476 0.476 0 0 0 -0.138 0.421l0.389 2.255a0.475 0.475 0 0 1 -0.194 0.468 0.49 0.49 0 0 1 -0.511 0.034l-2.024 -1.058a0.486 0.486 0 0 0 -0.454 0l-2.024 1.058a0.49 0.49 0 0 1 -0.511 -0.034 0.475 0.475 0 0 1 -0.194 -0.468l0.389 -2.255a0.476 0.476 0 0 0 -0.133 -0.421l-1.65 -1.6a0.474 0.474 0 0 1 -0.121 -0.489 0.483 0.483 0 0 1 0.391 -0.325l2.271 -0.328a0.485 0.485 0 0 0 0.366 -0.263Z" fill="none" stroke="#000000" stroke-linecap="round" stroke-linejoin="round" stroke-width="1"></path></svg>