<svg viewBox="0 0 24 24" xmlns="http://www.w3.org/2000/svg" id="Accessories-Ribbon-Tie--Streamline-Ultimate"><desc>Accessories Ribbon Tie Streamline Icon: https://streamlinehq.com</desc><path d="M22.022 6.884a1.5 1.5 0 0 0 -2.042 -0.64l-6.228 3.322a3 3 0 0 1 0 4.869l6.228 3.321a1.5 1.5 0 0 0 2.042 -0.64 11.271 11.271 0 0 0 0 -10.232Z" fill="none" stroke="#000000" stroke-linecap="round" stroke-linejoin="round" stroke-width="1"></path><path d="M1.978 6.884a1.5 1.5 0 0 1 2.042 -0.64l6.228 3.322a3 3 0 0 0 0 4.869L4.02 17.756a1.5 1.5 0 0 1 -2.042 -0.64 11.271 11.271 0 0 1 0 -10.232Z" fill="none" stroke="#000000" stroke-linecap="round" stroke-linejoin="round" stroke-width="1"></path><path d="M9 12a3 3 0 1 0 6 0 3 3 0 1 0 -6 0Z" fill="none" stroke="#000000" stroke-linecap="round" stroke-linejoin="round" stroke-width="1"></path><path d="m15 12 2.25 0" fill="none" stroke="#000000" stroke-linecap="round" stroke-linejoin="round" stroke-width="1"></path><path d="M6.75 12 9 12" fill="none" stroke="#000000" stroke-linecap="round" stroke-linejoin="round" stroke-width="1"></path></svg>