<svg viewBox="0 0 24 24" xmlns="http://www.w3.org/2000/svg" id="Accessories-Umbrella--Streamline-Ultimate"><desc>Accessories Umbrella Streamline Icon: https://streamlinehq.com</desc><path d="m16.64 6.711 4.04 -4.039a1.5 1.5 0 0 1 2.12 2.121l-0.53 0.53" fill="none" stroke="#000000" stroke-linecap="round" stroke-linejoin="round" stroke-width="1"></path><path d="M2.259 21.092c-2.625 -2.625 9.078 -19.684 9.078 -19.684a7.29 7.29 0 0 0 5.3 5.3 7.289 7.289 0 0 0 5.3 5.3S4.884 23.717 2.259 21.092Z" fill="none" stroke="#000000" stroke-linecap="round" stroke-linejoin="round" stroke-width="1"></path><path d="m2.259 21.092 -1.5 1.5" fill="none" stroke="#000000" stroke-linecap="round" stroke-linejoin="round" stroke-width="1"></path><path d="M2.259 21.092A156.049 156.049 0 0 1 14.122 5.533" fill="none" stroke="#000000" stroke-linecap="round" stroke-linejoin="round" stroke-width="1"></path><path d="M2.259 21.092a155.942 155.942 0 0 0 15.56 -11.863" fill="none" stroke="#000000" stroke-linecap="round" stroke-linejoin="round" stroke-width="1"></path></svg>