<svg xmlns="http://www.w3.org/2000/svg" fill="none" viewBox="0 0 24 24" id="Bracelet-With-Heart--Streamline-Ultimate"><desc>Bracelet With Heart Streamline Icon: https://streamlinehq.com</desc><path stroke="#000000" stroke-linecap="round" stroke-linejoin="round" stroke-miterlimit="10" d="M12 23.25c1.1617 0 2.1035 -0.9417 2.1035 -2.1034 0 -1.1617 -0.9418 -2.1035 -2.1035 -2.1035s-2.10345 0.9418 -2.10345 2.1035S10.8383 23.25 12 23.25Z" stroke-width="1"></path><path stroke="#000000" stroke-linecap="round" stroke-linejoin="round" stroke-miterlimit="10" d="M15.1051 4.01848c0.7012 -0.70115 0.7012 -1.90312 0 -2.70443 -0.7011 -0.801315 -1.9031 -0.701151 -2.7044 0L12 1.7147l-0.4006 -0.40065c-0.7012 -0.701151 -1.90317 -0.701151 -2.70448 0 -0.80131 0.70115 -0.70115 1.90312 0 2.70443L12 7.12357l3.1051 -3.10509Z" stroke-width="1"></path><path stroke="#000000" stroke-linecap="round" stroke-linejoin="round" stroke-miterlimit="10" d="M16.3071 21.9479c1.1617 0 2.1034 -0.9418 2.1034 -2.1035s-0.9417 -2.1034 -2.1034 -2.1034c-1.1618 0 -2.1035 0.9417 -2.1035 2.1034 0 1.1617 0.9417 2.1035 2.1035 2.1035Z" stroke-width="1"></path><path stroke="#000000" stroke-linecap="round" stroke-linejoin="round" stroke-miterlimit="10" d="M19.5123 18.7426c1.1617 0 2.1035 -0.9417 2.1035 -2.1034 0 -1.1617 -0.9418 -2.1035 -2.1035 -2.1035s-2.1034 0.9418 -2.1034 2.1035 0.9417 2.1034 2.1034 2.1034Z" stroke-width="1"></path><path stroke="#000000" stroke-linecap="round" stroke-linejoin="round" stroke-miterlimit="10" d="M20.9146 14.3354c1.1617 0 2.1035 -0.9417 2.1035 -2.1034 0 -1.1617 -0.9418 -2.1035 -2.1035 -2.1035s-2.1034 0.9418 -2.1034 2.1035 0.9417 2.1034 2.1034 2.1034Z" stroke-width="1"></path><path stroke="#000000" stroke-linecap="round" stroke-linejoin="round" stroke-miterlimit="10" d="M19.5123 10.0283c1.1617 0 2.1035 -0.94171 2.1035 -2.10341 0 -1.1617 -0.9418 -2.10345 -2.1035 -2.10345s-2.1034 0.94175 -2.1034 2.10345c0 1.1617 0.9417 2.10341 2.1034 2.10341Z" stroke-width="1"></path><path stroke="#000000" stroke-linecap="round" stroke-linejoin="round" stroke-miterlimit="10" d="M4.4877 10.0283c1.1617 0 2.10345 -0.94171 2.10345 -2.10341 0 -1.1617 -0.94175 -2.10345 -2.10345 -2.10345 -1.1617 0 -2.10345 0.94175 -2.10345 2.10345 0 1.1617 0.94175 2.10341 2.10345 2.10341Z" stroke-width="1"></path><path stroke="#000000" stroke-linecap="round" stroke-linejoin="round" stroke-miterlimit="10" d="M3.0854 14.3354c1.1617 0 2.10346 -0.9417 2.10346 -2.1034 0 -1.1617 -0.94176 -2.1035 -2.10346 -2.1035 -1.1617 0 -2.103451 0.9418 -2.103451 2.1035S1.9237 14.3354 3.0854 14.3354Z" stroke-width="1"></path><path stroke="#000000" stroke-linecap="round" stroke-linejoin="round" stroke-miterlimit="10" d="M4.4877 18.7426c1.1617 0 2.10345 -0.9417 2.10345 -2.1034 0 -1.1617 -0.94175 -2.1035 -2.10345 -2.1035 -1.1617 0 -2.10345 0.9418 -2.10345 2.1035s0.94175 2.1034 2.10345 2.1034Z" stroke-width="1"></path><path stroke="#000000" stroke-linecap="round" stroke-linejoin="round" stroke-miterlimit="10" d="M7.69296 21.9479c1.1617 0 2.10342 -0.9418 2.10342 -2.1035s-0.94172 -2.1034 -2.10342 -2.1034c-1.1617 0 -2.10345 0.9417 -2.10345 2.1034 0 1.1617 0.94175 2.1035 2.10345 2.1035Z" stroke-width="1"></path><path stroke="#000000" stroke-linecap="round" stroke-linejoin="round" stroke-miterlimit="10" d="M8.29393 2.71634c-0.60098 -0.20032 -1.20195 -0.10016 -1.70277 0.20033 -1.00164 0.60099 -1.40232 1.90312 -0.80133 2.90476 0.60098 1.00165 1.90314 1.4023 2.90478 0.80132 0.60099 -0.40066 1.00162 -1.00165 1.10178 -1.70279" stroke-width="1"></path><path stroke="#000000" stroke-linecap="round" stroke-linejoin="round" stroke-miterlimit="10" d="M14.2036 4.91996c0.1002 0.70114 0.4007 1.30213 1.1018 1.70279 1.0017 0.60098 2.3038 0.20033 2.9048 -0.80132 0.601 -1.00164 0.2003 -2.30377 -0.8013 -2.90476 -0.5009 -0.30049 -1.202 -0.40065 -1.7028 -0.20033" stroke-width="1"></path></svg>