<svg xmlns="http://www.w3.org/2000/svg" fill="none" viewBox="0 0 24 24" id="Earring-1--Streamline-Ultimate"><desc>Earring 1 Streamline Icon: https://streamlinehq.com</desc><path stroke="#000000" stroke-linecap="round" stroke-linejoin="round" stroke-miterlimit="10" d="M8.25 20.1288c0 1.7 -1.3 3 -3 3s-3 -1.3 -3 -3c0 -3 1 -7.5 3 -7.5s3 4.5 3 7.5Z" stroke-width="1"></path><path stroke="#000000" stroke-linecap="round" stroke-linejoin="round" stroke-miterlimit="10" d="M18.75 20.1288c0 1.7 -1.3 3 -3 3s-3 -1.3 -3 -3c0 -3 1 -7.5 3 -7.5s3 4.5 3 7.5Z" stroke-width="1"></path><path stroke="#000000" stroke-linecap="round" stroke-linejoin="round" stroke-miterlimit="10" d="M5.25 7.0038c0 -0.4 -0.1 -0.9 -0.2 -1.3l-0.6 -1.8c-0.4 -1.1 0.1 -2.3 1.1 -2.8C8.60938 -0.13158 8.78863 3.84179 8.95312 6.24342 9.03125 7.38404 10.15 8.3038 11.25 8.3038" stroke-width="1"></path><path stroke="#000000" stroke-linecap="round" stroke-linejoin="round" stroke-miterlimit="10" d="M15.75 7.0038c0 -0.4 -0.1 -0.9 -0.2 -1.3l-0.6 -1.8c-0.4 -1.1 0.1 -2.3 1.1 -2.8 3.0594 -1.23538 3.2386 2.73799 3.4031 5.13962C19.5312 7.38404 20.65 8.3038 21.75 8.3038" stroke-width="1"></path><path stroke="#000000" stroke-linecap="round" stroke-linejoin="round" stroke-miterlimit="10" d="M5.24995 10.5038c-0.27613 0 -0.49998 -0.2239 -0.49998 -0.5 0 -0.27613 0.22385 -0.49998 0.49998 -0.49998" stroke-width="1"></path><path stroke="#000000" stroke-linecap="round" stroke-linejoin="round" stroke-miterlimit="10" d="M5.25005 10.5038c0.27613 0 0.49998 -0.2239 0.49998 -0.5 0 -0.27614 -0.22385 -0.49999 -0.49998 -0.49999" stroke-width="1"></path><path stroke="#000000" stroke-linecap="round" stroke-linejoin="round" stroke-miterlimit="10" d="M15.75 10.5038c-0.2762 0 -0.5 -0.2239 -0.5 -0.5 0 -0.27613 0.2238 -0.49998 0.5 -0.49998" stroke-width="1"></path><path stroke="#000000" stroke-linecap="round" stroke-linejoin="round" stroke-miterlimit="10" d="M15.75 10.5038c0.2762 0 0.5 -0.2239 0.5 -0.5 0 -0.27614 -0.2238 -0.49999 -0.5 -0.49999" stroke-width="1"></path></svg>