<svg xmlns="http://www.w3.org/2000/svg" fill="none" viewBox="0 0 24 24" id="Earring-Diamond--Streamline-Ultimate"><desc>Earring Diamond Streamline Icon: https://streamlinehq.com</desc><path stroke="#000000" stroke-linecap="round" stroke-linejoin="round" stroke-miterlimit="10" d="M3.84998 15.3c-0.9 0.2 -1.5 1 -1.5 1.9 0 1.1 0.9 2 2 2s2 -0.9 2 -2V6.7c0 -1.1 -0.9 -2 -2 -2s-2 0.9 -2 2c0 0.9 0.6 1.7 1.5 1.9" stroke-width="1"></path><path stroke="#000000" stroke-linecap="round" stroke-linejoin="round" stroke-miterlimit="10" d="M0.75 11.95h9.2" stroke-width="1"></path><path stroke="#000000" stroke-linecap="round" stroke-linejoin="round" stroke-miterlimit="10" d="M13.55 16.2c0 1 -0.8 1.8 -1.8 1.8s-1.79999 -0.8 -1.79999 -1.8V7.69999c0 -1 0.79999 -1.79999 1.79999 -1.79999s1.8 0.79999 1.8 1.79999V16.2Z" stroke-width="1"></path><path stroke="#000000" stroke-linecap="round" stroke-linejoin="round" stroke-miterlimit="10" d="M13.55 15.5v-7l4.7 -4.7 5 4.2v8l-5 4.2 -4.7 -4.7Z" stroke-width="1"></path><path stroke="#000000" stroke-linecap="round" stroke-linejoin="round" stroke-miterlimit="10" d="M18.25 3.8v16.4" stroke-width="1"></path><path stroke="#000000" stroke-linecap="round" stroke-linejoin="round" stroke-miterlimit="10" d="m23.25 8 -5 4 5 4" stroke-width="1"></path><path stroke="#000000" stroke-linecap="round" stroke-linejoin="round" stroke-miterlimit="10" d="M18.25 12h-4.7" stroke-width="1"></path></svg>