<svg xmlns="http://www.w3.org/2000/svg" fill="none" viewBox="0 0 24 24" id="Locket-Heart--Streamline-Ultimate"><desc>Locket Heart Streamline Icon: https://streamlinehq.com</desc><path stroke="#000000" stroke-linecap="round" stroke-linejoin="round" stroke-miterlimit="10" d="M13.725 16.25c1.4 -1.4 1.4 -3.7 0 -5.1 -1.4 -1.40001 -3.7 -1.40001 -5.10001 0l-0.89999 0.8 -0.8 -0.8c-1.4 -1.40001 -3.70001 -1.40001 -5.10001 0 -1.399996 1.4 -1.399996 3.7 0 5.1l5.90001 5.9 6 -5.9Z" stroke-width="1"></path><path stroke="#000000" stroke-linecap="round" stroke-linejoin="round" stroke-miterlimit="10" d="M7.825 14.95v2" stroke-width="1"></path><path stroke="#000000" stroke-linecap="round" stroke-linejoin="round" stroke-miterlimit="10" d="M14.525 6.75c-3.1 0 -5.80001 2.3 -6.70001 5.3 -1 -1.4 -2.4 -3.5 -1.7 -6.5 0.4 -1.8 1.70001 -3.30001 3.30001 -4.20001 0.9 -0.399999 1.9 -0.59999 2.8 -0.59999h4c1.7 0 3 1.3 3 3s-1.3 3 -3 3h-1.7Z" stroke-width="1"></path><path stroke="#000000" stroke-linecap="round" stroke-linejoin="round" stroke-miterlimit="10" d="m17.725 18.85 3.4 -3.4c0.4 -0.4 1 -0.4 1.4 0l0.7 0.7" stroke-width="1"></path><path stroke="#000000" stroke-linecap="round" stroke-linejoin="round" stroke-miterlimit="10" d="m19.725 16.95 1.3 1.3" stroke-width="1"></path><path stroke="#000000" stroke-linecap="round" stroke-linejoin="round" stroke-miterlimit="10" d="M16.025 23.25c1.3807 0 2.5 -1.1193 2.5 -2.5s-1.1193 -2.5 -2.5 -2.5 -2.5 1.1193 -2.5 2.5 1.1193 2.5 2.5 2.5Z" stroke-width="1"></path></svg>