<svg xmlns="http://www.w3.org/2000/svg" fill="none" viewBox="0 0 24 24" id="Locket--Streamline-Ultimate"><desc>Locket Streamline Icon: https://streamlinehq.com</desc><path stroke="#000000" stroke-linecap="round" stroke-linejoin="round" stroke-miterlimit="10" d="M9.55 0.800003 16.55 9.2l6.7 -8.399997" stroke-width="1"></path><path stroke="#000000" stroke-linecap="round" stroke-linejoin="round" stroke-miterlimit="10" d="M16.55 9.2c-2 0 -3.8 1.2 -4.9 2.9 -1.1 -1.8 -2.9 -2.9 -4.9 -2.9 -3.3 0 -6 3.1 -6 7s2.7 7 6 7c2 0 3.8 -1.2 4.9 -2.9 1.1 1.8 2.9 2.9 4.9 2.9 3.3 0 6 -3.1 6 -7s-2.7 -7 -6 -7Z" stroke-width="1"></path><path stroke="#000000" stroke-linecap="round" stroke-linejoin="round" stroke-miterlimit="10" d="M16.55 16.3c0.8284 0 1.5 -0.6716 1.5 -1.5s-0.6716 -1.5 -1.5 -1.5 -1.5 0.6716 -1.5 1.5 0.6716 1.5 1.5 1.5Z" stroke-width="1"></path><path stroke="#000000" stroke-linecap="round" stroke-linejoin="round" stroke-miterlimit="10" d="M14.55 18.8c0 -1.1 0.9 -2 2 -2s2 0.9 2 2" stroke-width="1"></path><path stroke="#000000" stroke-linecap="round" stroke-linejoin="round" stroke-miterlimit="10" d="M11.05 15.2v2" stroke-width="1"></path></svg>