<svg xmlns="http://www.w3.org/2000/svg" fill="none" viewBox="0 0 24 24" id="Necklace-Stone--Streamline-Ultimate"><desc>Necklace Stone Streamline Icon: https://streamlinehq.com</desc><path stroke="#000000" stroke-linecap="round" stroke-linejoin="round" stroke-miterlimit="10" d="M14.9991 9.52486c0 0.79974 -0.6998 1.49954 -1.4995 1.49954h-2.9992c-0.79972 0 -1.49952 -0.6998 -1.49952 -1.49954 0 -0.79977 0.6998 -1.49956 1.49952 -1.49956h2.9992c0.7997 0 1.4995 0.69979 1.4995 1.49956Z" stroke-width="1"></path><path stroke="#000000" stroke-linecap="round" stroke-linejoin="round" stroke-miterlimit="10" d="M4.20228 6.02588c-0.39989 0.6998 -0.19995 1.59953 0.49985 1.99942l1.99941 1.19965c0.6998 0.39988 1.59954 0.19994 1.99942 -0.49986 0.39988 -0.69979 0.19994 -1.59953 -0.49985 -1.99941L6.20169 5.52603c-0.59982 -0.39989 -1.49956 -0.19994 -1.99941 0.49985Z" stroke-width="1"></path><path stroke="#000000" stroke-linecap="round" stroke-linejoin="round" stroke-miterlimit="10" d="M1.50307 1.02733c-0.699797 0.39988 -0.999709 1.29962 -0.49986 1.99941l0.99971 1.69951c0.39989 0.69979 1.29962 0.9997 1.99942 0.49985 0.69979 -0.39988 0.99971 -1.29962 0.49985 -1.99941l-0.99971 -1.69951C3.1026 0.827387 2.20286 0.527475 1.50307 1.02733Z" stroke-width="1"></path><path stroke="#000000" stroke-linecap="round" stroke-linejoin="round" stroke-miterlimit="10" d="M19.7977 6.02588c0.3999 0.6998 0.1999 1.59953 -0.4998 1.99942l-1.9995 1.19965c-0.6998 0.39988 -1.5995 0.19994 -1.9994 -0.49986 -0.3998 -0.69979 -0.1999 -1.59953 0.4999 -1.99941l1.9994 -1.19965c0.5998 -0.39989 1.4996 -0.19994 1.9994 0.49985Z" stroke-width="1"></path><path stroke="#000000" stroke-linecap="round" stroke-linejoin="round" stroke-miterlimit="10" d="M22.4969 1.02733c0.6998 0.39988 0.9997 1.29962 0.4999 1.99941l-0.9997 1.69951c-0.3999 0.69979 -1.2996 0.9997 -1.9994 0.49985 -0.6998 -0.39988 -0.9997 -1.29962 -0.4999 -1.99941l0.9997 -1.69951c0.3999 -0.699793 1.2996 -0.999705 1.9994 -0.49985Z" stroke-width="1"></path><path stroke="#000000" stroke-linecap="round" stroke-linejoin="round" stroke-miterlimit="10" d="M7.80123 16.3229v4.3987L12 23.2209l4.1988 -2.4993v-4.3987L12 13.8236l-4.19877 2.4993Z" stroke-width="1"></path><path stroke="#000000" stroke-linecap="round" stroke-linejoin="round" stroke-miterlimit="10" d="M10.8004 17.9224v1.2l1.2 0.6" stroke-width="1"></path></svg>