<svg xmlns="http://www.w3.org/2000/svg" fill="none" viewBox="0 0 24 24" id="Rings-Couple--Streamline-Ultimate"><desc>Rings Couple Streamline Icon: https://streamlinehq.com</desc><path stroke="#000000" stroke-linecap="round" stroke-linejoin="round" stroke-miterlimit="10" d="M12.7992 7.6073C11.6268 6.45839 10.0212 5.75 8.25 5.75c-3.58985 0 -6.5 2.91015 -6.5 6.5 0 2.8372 1.81773 5.2498 4.35213 6.1368" stroke-width="1"></path><path stroke="#000000" stroke-linecap="round" stroke-linejoin="round" stroke-miterlimit="10" d="M10.616 9.34049C9.97066 8.81503 9.14712 8.5 8.25 8.5c-2.07107 0 -3.75 1.6789 -3.75 3.75 0 1.5082 0.89036 2.8085 2.17414 3.4038" stroke-width="1"></path><path stroke="#000000" stroke-linecap="round" stroke-linejoin="round" stroke-miterlimit="10" d="m11.25 2.75 -3 3 -3 -3 1 -2h4l1 2Z" stroke-width="1"></path><path stroke="#000000" stroke-linecap="round" stroke-linejoin="round" stroke-miterlimit="10" d="M15.75 23.25c3.5899 0 6.5 -2.9101 6.5 -6.5s-2.9101 -6.5 -6.5 -6.5 -6.5 2.9101 -6.5 6.5 2.9101 6.5 6.5 6.5Z" stroke-width="1"></path><path stroke="#000000" stroke-linecap="round" stroke-linejoin="round" stroke-miterlimit="10" d="M15.75 20.375c2.002 0 3.625 -1.623 3.625 -3.625s-1.623 -3.625 -3.625 -3.625 -3.625 1.623 -3.625 3.625 1.623 3.625 3.625 3.625Z" stroke-width="1"></path></svg>