<svg xmlns="http://www.w3.org/2000/svg" fill="none" viewBox="0 0 24 24" id="Contact-Us-Global-Help--Streamline-Ultimate"><desc>Contact Us Global Help Streamline Icon: https://streamlinehq.com</desc><path stroke="#000000" stroke-linecap="round" stroke-linejoin="round" d="M21.538 1H11.272c-0.8102 0 -1.46701 0.6568 -1.46701 1.467v19.066c0 0.8102 0.65681 1.467 1.46701 1.467h10.266c0.8102 0 1.467 -0.6568 1.467 -1.467V2.467c0 -0.8102 -0.6568 -1.467 -1.467 -1.467Z" stroke-width="1"></path><path stroke="#000000" stroke-linecap="round" stroke-linejoin="round" d="M6.87101 6.17404c-1.01923 2.033 -1.52269 4.28556 -1.466 6.55896 -0.05606 2.265 0.44314 4.5093 1.454 6.537l0.021 1.766c-1.71799 -0.6052 -3.20583 -1.7286 -4.25829 -3.2153 -1.05246 -1.4866 -1.61768 -3.2632 -1.61768 -5.0847 0 -1.8214 0.56522 -3.59803 1.61768 -5.08467s2.5403 -2.61006 4.25829 -3.21529l-0.009 1.738Z" stroke-width="1"></path><path stroke="#000000" stroke-linecap="round" stroke-linejoin="round" d="M1.495 9.91797h5.376" stroke-width="1"></path><path stroke="#000000" stroke-linecap="round" stroke-linejoin="round" d="M1.461 15.548h5.41" stroke-width="1"></path><path stroke="#000000" stroke-linecap="round" stroke-linejoin="round" d="M14.505 8.57103c0.0001 -0.36662 0.101 -0.72617 0.2916 -1.03935 0.1906 -0.31318 0.4636 -0.56793 0.7893 -0.73643 0.3256 -0.16849 0.6912 -0.24423 1.057 -0.21896 0.3658 0.02528 0.7175 0.15061 1.0169 0.36229 0.2993 0.21169 0.5347 0.50158 0.6804 0.838 0.1458 0.33642 0.1962 0.70643 0.1459 1.06959 -0.0504 0.36315 -0.1996 0.70548 -0.4313 0.98957 -0.2318 0.28406 -0.5372 0.49906 -0.8828 0.62126 -0.1951 0.0689 -0.364 0.1966 -0.4834 0.3655 -0.1195 0.1689 -0.1836 0.3707 -0.1836 0.5775v0.671" stroke-width="1"></path><path stroke="#000000" d="M16.505 15.071c-0.2071 0 -0.375 -0.1678 -0.375 -0.375 0 -0.2071 0.1679 -0.375 0.375 -0.375" stroke-width="1"></path><path stroke="#000000" d="M16.505 15.071c0.2071 0 0.375 -0.1678 0.375 -0.375 0 -0.2071 -0.1679 -0.375 -0.375 -0.375" stroke-width="1"></path><path stroke="#000000" stroke-linecap="round" stroke-linejoin="round" d="M9.80499 18.5H23.005" stroke-width="1"></path></svg>