<svg xmlns="http://www.w3.org/2000/svg" viewBox="0 0 24 24" id="Contact-Us-Faq--Streamline-Ultimate"><desc>Contact Us Faq Streamline Icon: https://streamlinehq.com</desc><defs></defs><path d="M4.842 13.657V7.691A1.492 1.492 0 0 1 6.334 6.2h1.491" fill="none" stroke="#000000" stroke-linecap="round" stroke-linejoin="round" stroke-width="1"></path><path d="m4.842 10.674 2.237 0" fill="none" stroke="#000000" stroke-linecap="round" stroke-linejoin="round" stroke-width="1"></path><path d="M10.209 13.657V7.691a1.492 1.492 0 1 1 2.983 0v5.966" fill="none" stroke="#000000" stroke-linecap="round" stroke-linejoin="round" stroke-width="1"></path><path d="m10.209 10.674 2.983 0" fill="none" stroke="#000000" stroke-linecap="round" stroke-linejoin="round" stroke-width="1"></path><path d="M19.158 12.165a1.492 1.492 0 1 1 -2.983 0V7.691a1.492 1.492 0 1 1 2.983 0Z" fill="none" stroke="#000000" stroke-linecap="round" stroke-linejoin="round" stroke-width="1"></path><path d="m17.666 13.657 1.492 1.491" fill="none" stroke="#000000" stroke-linecap="round" stroke-linejoin="round" stroke-width="1"></path><path d="M22.2 2.571H1.8A1.054 1.054 0 0 0 0.75 3.625v13.588a1.054 1.054 0 0 0 1.05 1.054h2.443a7.785 7.785 0 0 1 -1.386 3.16c3.05 0.044 4.98 -1.136 6.138 -3.16H22.2a1.054 1.054 0 0 0 1.054 -1.054V3.625A1.054 1.054 0 0 0 22.2 2.571Z" fill="none" stroke="#000000" stroke-linecap="round" stroke-linejoin="round" stroke-width="1"></path></svg>