<svg xmlns="http://www.w3.org/2000/svg" fill="none" viewBox="0 0 24 24" id="Contact-Us-Customer-Support-Chat--Streamline-Ultimate"><desc>Contact Us Customer Support Chat Streamline Icon: https://streamlinehq.com</desc><path stroke="#000000" stroke-linecap="round" stroke-linejoin="round" d="M15.25 8.09294v-3.7c0 -0.79565 -0.3161 -1.55871 -0.8787 -2.12132 -0.5626 -0.56261 -1.3257 -0.87868 -2.1213 -0.87868H4c-0.79565 0 -1.55871 0.31607 -2.12132 0.87868C1.31607 2.83423 1 3.59729 1 4.39294v4.5c0 0.79565 0.31607 1.55876 0.87868 2.12136 0.56261 0.5626 1.32567 0.8786 2.12132 0.8786v3.75l3.75 -3.75h2.593" stroke-width="1"></path><path stroke="#000000" d="M4.375 7.01404c-0.20711 0 -0.375 -0.1679 -0.375 -0.375 0 -0.20711 0.16789 -0.375 0.375 -0.375" stroke-width="1"></path><path stroke="#000000" d="M4.375 7.01404c0.20711 0 0.375 -0.1679 0.375 -0.375 0 -0.20711 -0.16789 -0.375 -0.375 -0.375" stroke-width="1"></path><path stroke="#000000" d="M8.125 7.01404c-0.20711 0 -0.375 -0.1679 -0.375 -0.375 0 -0.20711 0.16789 -0.375 0.375 -0.375" stroke-width="1"></path><path stroke="#000000" d="M8.125 7.01404c0.20711 0 0.375 -0.1679 0.375 -0.375 0 -0.20711 -0.16789 -0.375 -0.375 -0.375" stroke-width="1"></path><path stroke="#000000" d="M11.875 7.01404c-0.2071 0 -0.375 -0.1679 -0.375 -0.375 0 -0.20711 0.1679 -0.375 0.375 -0.375" stroke-width="1"></path><path stroke="#000000" d="M11.875 7.01404c0.2071 0 0.375 -0.1679 0.375 -0.375 0 -0.20711 -0.1679 -0.375 -0.375 -0.375" stroke-width="1"></path><path stroke="#000000" stroke-linecap="round" stroke-linejoin="round" d="M12.683 20.548h-0.413c-0.4373 0 -0.8568 -0.1736 -1.1664 -0.4825 -0.3095 -0.309 -0.4838 -0.7282 -0.4846 -1.1655v-1.654c0.0013 -0.437 0.1759 -0.8557 0.4853 -1.1642 0.3095 -0.3086 0.7287 -0.4818 1.1657 -0.4818h0.413c0.1094 0.0002 0.2142 0.0439 0.2914 0.1213 0.0772 0.0774 0.1206 0.1823 0.1206 0.2917v4.127c-0.0013 0.1085 -0.0453 0.2121 -0.1224 0.2884 -0.0771 0.0764 -0.1811 0.1193 -0.2896 0.1196Z" stroke-width="1"></path><path stroke="#000000" stroke-linecap="round" stroke-linejoin="round" d="M21.349 20.548h-0.412c-0.0542 0 -0.1079 -0.0107 -0.158 -0.0315 -0.0502 -0.0207 -0.0957 -0.0511 -0.134 -0.0895 -0.0384 -0.0383 -0.0688 -0.0839 -0.0896 -0.134 -0.0207 -0.0501 -0.0314 -0.1038 -0.0314 -0.158v-4.127c0 -0.1096 0.0435 -0.2146 0.121 -0.2921 0.0774 -0.0774 0.1825 -0.1209 0.292 -0.1209h0.412c0.4379 0 0.8578 0.1739 1.1674 0.4835 0.3097 0.3097 0.4836 0.7296 0.4836 1.1675V18.9c-0.0008 0.4373 -0.1751 0.8565 -0.4846 1.1655 -0.3096 0.3089 -0.729 0.4825 -1.1664 0.4825v0Z" stroke-width="1"></path><path stroke="#000000" stroke-linecap="round" stroke-linejoin="round" d="M12.27 15.6c0 -0.5961 0.1174 -1.1864 0.3456 -1.7372 0.2282 -0.5508 0.5626 -1.0512 0.9842 -1.4727s0.9221 -0.7558 1.4729 -0.9838c0.5508 -0.2281 1.1411 -0.3454 1.7373 -0.3453v0c1.2038 0 2.3583 0.4782 3.2096 1.3295 0.8512 0.8512 1.3294 2.0057 1.3294 3.2095" stroke-width="1"></path><path stroke="#000000" stroke-linecap="round" stroke-linejoin="round" d="M18.46 22.611h1.24c0.4379 0 0.8578 -0.174 1.1674 -0.4836 0.3097 -0.3096 0.4836 -0.7296 0.4836 -1.1674v-0.412" stroke-width="1"></path></svg>