<svg xmlns="http://www.w3.org/2000/svg" viewBox="0 0 24 24" id="Customer-Relationship-Management-Survey-Document--Streamline-Ultimate"><desc>Customer Relationship Management Survey Document Streamline Icon: https://streamlinehq.com</desc><defs></defs><path d="M15.683 16.469a1.5 1.5 0 1 0 3 0 1.5 1.5 0 1 0 -3 0" fill="none" stroke="#000000" stroke-linecap="round" stroke-linejoin="round" stroke-width="1"></path><path d="m18.457 10.666 0.442 1.452a0.994 0.994 0 0 0 1.173 0.682l1.473 -0.342a1.339 1.339 0 0 1 1.274 2.219l-1.03 1.111a1 1 0 0 0 0 1.362l1.03 1.111a1.338 1.338 0 0 1 -1.274 2.218l-1.473 -0.341a0.992 0.992 0 0 0 -1.173 0.681l-0.442 1.452a1.331 1.331 0 0 1 -2.549 0l-0.442 -1.452a0.992 0.992 0 0 0 -1.173 -0.681l-1.473 0.341a1.338 1.338 0 0 1 -1.274 -2.218l1.03 -1.111a1 1 0 0 0 0 -1.362l-1.03 -1.111a1.339 1.339 0 0 1 1.274 -2.219l1.473 0.342a0.993 0.993 0 0 0 1.173 -0.682l0.442 -1.452a1.331 1.331 0 0 1 2.549 0Z" fill="none" stroke="#000000" stroke-linecap="round" stroke-linejoin="round" stroke-width="1"></path><path d="M7.9 6.445 5.767 9.287a0.751 0.751 0 0 1 -1.131 0.08L3.48 8.21" fill="none" stroke="#000000" stroke-linecap="round" stroke-linejoin="round" stroke-width="1"></path><path d="m7.9 13.2 -2.133 2.837a0.751 0.751 0 0 1 -1.131 0.08L3.48 14.96" fill="none" stroke="#000000" stroke-linecap="round" stroke-linejoin="round" stroke-width="1"></path><path d="M12.611 0.7a1.25 1.25 0 0 1 0.884 0.366l4.893 4.893a1.25 1.25 0 0 1 0.366 0.884" fill="none" stroke="#000000" stroke-linecap="round" stroke-linejoin="round" stroke-width="1"></path><path d="M18.808 6.9h-5a1.25 1.25 0 0 1 -1.25 -1.25v-5" fill="none" stroke="#000000" stroke-linecap="round" stroke-linejoin="round" stroke-width="1"></path><path d="M10.353 23.042h-8.5a1.5 1.5 0 0 1 -1.5 -1.5v-19.5a1.5 1.5 0 0 1 1.5 -1.5h10.628" fill="none" stroke="#000000" stroke-linecap="round" stroke-linejoin="round" stroke-width="1"></path></svg>