<svg xmlns="http://www.w3.org/2000/svg" fill="none" viewBox="0 0 24 24" id="Customer-Relationship-Management-Expense-Tracking-Bill--Streamline-Ultimate"><desc>Customer Relationship Management Expense Tracking Bill Streamline Icon: https://streamlinehq.com</desc><path stroke="#000000" stroke-linecap="round" stroke-linejoin="round" d="M16.875 13V1.75c0 -0.26522 -0.1054 -0.51957 -0.2929 -0.70711C16.3946 0.855357 16.1402 0.75 15.875 0.75h-14c-0.26522 0 -0.51957 0.105357 -0.70711 0.29289C0.980357 1.23043 0.875 1.48478 0.875 1.75v21l2 -2 2 2 2.25 -2.25 2.5 2.5" stroke-width="1"></path><path stroke="#000000" stroke-linecap="round" stroke-linejoin="round" d="M7.9 6.36694H5.624c-0.34731 0.0018 -0.68323 0.12407 -0.95045 0.34594 -0.26721 0.22187 -0.44914 0.5296 -0.51476 0.87066 -0.06562 0.34106 -0.01084 0.69432 0.15497 0.9995 0.16581 0.30518 0.43239 0.54336 0.75424 0.6739l2.305 0.92196c0.32193 0.1306 0.58855 0.3689 0.75435 0.6742 0.1658 0.3052 0.2205 0.6586 0.15476 0.9997 -0.06575 0.3412 -0.24786 0.6489 -0.51525 0.8707 -0.26738 0.2218 -0.60346 0.3439 -0.95086 0.3454H4.545" stroke-width="1"></path><path stroke="#000000" stroke-linecap="round" stroke-linejoin="round" d="M6.22 14.1859v-1.116" stroke-width="1"></path><path stroke="#000000" stroke-linecap="round" stroke-linejoin="round" d="M6.22 6.368V5.25" stroke-width="1"></path><path stroke="#000000" stroke-linecap="round" stroke-linejoin="round" d="M10.914 6.80298h2.75" stroke-width="1"></path><path stroke="#000000" stroke-linecap="round" stroke-linejoin="round" d="M10.914 10.803h2.75" stroke-width="1"></path><path stroke="#000000" stroke-linecap="round" stroke-linejoin="round" d="M22.973 19.0531c0.0984 0.1282 0.1518 0.2853 0.1518 0.447 0 0.1616 -0.0534 0.3187 -0.1518 0.447 -0.759 1 -2.843 3.3 -5.848 3.3s-5.09 -2.309 -5.848 -3.3c-0.0984 -0.1283 -0.1518 -0.2854 -0.1518 -0.447 0 -0.1617 0.0534 -0.3188 0.1518 -0.447 0.759 -1 2.843 -3.3 5.848 -3.3s5.09 2.306 5.848 3.3Z" stroke-width="1"></path><path stroke="#000000" stroke-linecap="round" stroke-linejoin="round" d="M17.125 18c0.2967 0 0.5867 0.088 0.8334 0.2528 0.2466 0.1648 0.4389 0.3991 0.5524 0.6732 0.1136 0.2741 0.1433 0.5757 0.0854 0.8666 -0.0579 0.291 -0.2008 0.5583 -0.4105 0.7681 -0.2098 0.2097 -0.4771 0.3526 -0.7681 0.4105 -0.2909 0.0579 -0.5925 0.0282 -0.8666 -0.0854 -0.2741 -0.1135 -0.5084 -0.3058 -0.6732 -0.5524 -0.1648 -0.2467 -0.2528 -0.5367 -0.2528 -0.8334 0 -0.3978 0.158 -0.7794 0.4393 -1.0607S16.7272 18 17.125 18Z" stroke-width="1"></path></svg>