<svg xmlns="http://www.w3.org/2000/svg" viewBox="0 0 24 24" id="Customer-Relationship-Management-Flag-Cog--Streamline-Ultimate"><desc>Customer Relationship Management Flag Cog Streamline Icon: https://streamlinehq.com</desc><defs></defs><path d="M1.04 18.044a34.006 34.006 0 0 1 4.67 -0.33c0.776 0 1.53 0.028 2.257 0.078" stroke-miterlimit="10" fill="none" stroke="#000000" stroke-linecap="round" stroke-width="1"></path><path d="m5.71 17.713 0 -16.749" stroke-miterlimit="10" fill="none" stroke="#000000" stroke-linecap="round" stroke-width="1"></path><path d="m5.71 0.964 9 4.454 -9 4.455" stroke-linejoin="round" fill="none" stroke="#000000" stroke-linecap="round" stroke-width="1"></path><path d="M15.46 16.286a1.5 1.5 0 1 0 3 0 1.5 1.5 0 1 0 -3 0" stroke-linejoin="round" fill="none" stroke="#000000" stroke-linecap="round" stroke-width="1"></path><path d="m18.234 10.484 0.443 1.452a0.992 0.992 0 0 0 1.173 0.681l1.473 -0.341a1.339 1.339 0 0 1 1.277 2.218l-1.031 1.111a1 1 0 0 0 0 1.362l1.031 1.112a1.339 1.339 0 0 1 -1.277 2.221l-1.473 -0.341a0.992 0.992 0 0 0 -1.173 0.681l-0.443 1.452a1.33 1.33 0 0 1 -2.548 0l-0.442 -1.452a0.993 0.993 0 0 0 -1.174 -0.681l-1.47 0.341a1.338 1.338 0 0 1 -1.274 -2.218l1.03 -1.112a1 1 0 0 0 0 -1.362l-1.03 -1.111a1.338 1.338 0 0 1 1.274 -2.221l1.472 0.341a0.993 0.993 0 0 0 1.174 -0.681l0.442 -1.452a1.33 1.33 0 0 1 2.546 0Z" stroke-linejoin="round" fill="none" stroke="#000000" stroke-linecap="round" stroke-width="1"></path></svg>