<svg xmlns="http://www.w3.org/2000/svg" viewBox="0 0 24 24" id="Customer-Relationship-Management-Referral-Tracking-2--Streamline-Ultimate"><desc>Customer Relationship Management Referral Tracking 2 Streamline Icon: https://streamlinehq.com</desc><defs></defs><path d="M1.868 10.496a3.375 3.375 0 1 0 6.75 0 3.375 3.375 0 1 0 -6.75 0" fill="none" stroke="#000000" stroke-linecap="round" stroke-linejoin="round" stroke-width="1"></path><path d="M7.948 16.008a6.064 6.064 0 0 0 -7.191 1.346" fill="none" stroke="#000000" stroke-linecap="round" stroke-linejoin="round" stroke-width="1"></path><path d="M15.382 10.496a3.375 3.375 0 1 0 6.75 0 3.375 3.375 0 1 0 -6.75 0" fill="none" stroke="#000000" stroke-linecap="round" stroke-linejoin="round" stroke-width="1"></path><path d="M23.243 17.354a6.064 6.064 0 0 0 -7.2 -1.339" fill="none" stroke="#000000" stroke-linecap="round" stroke-linejoin="round" stroke-width="1"></path><path d="M5.493 4.625a6.436 6.436 0 0 1 6 -3.5 6.436 6.436 0 0 1 6 3.5" fill="none" stroke="#000000" stroke-linecap="round" stroke-linejoin="round" stroke-width="1"></path><path d="m14.493 4.625 3.5 0 0 -3.5" fill="none" stroke="#000000" stroke-linecap="round" stroke-linejoin="round" stroke-width="1"></path><path d="M13.5 16.125h-2.035a1.342 1.342 0 0 0 -0.5 2.587l2.064 0.826a1.342 1.342 0 0 1 -0.5 2.587H10.5" fill="none" stroke="#000000" stroke-linecap="round" stroke-linejoin="round" stroke-width="1"></path><path d="m11.998 16.125 0 -0.75" fill="none" stroke="#000000" stroke-linecap="round" stroke-linejoin="round" stroke-width="1"></path><path d="m11.998 22.875 0 -0.75" fill="none" stroke="#000000" stroke-linecap="round" stroke-linejoin="round" stroke-width="1"></path></svg>