<svg xmlns="http://www.w3.org/2000/svg" fill="none" viewBox="0 0 24 24" id="Customer-Relationship-Management-Forecasting--Streamline-Ultimate"><desc>Customer Relationship Management Forecasting Streamline Icon: https://streamlinehq.com</desc><path stroke="#000000" stroke-linecap="round" stroke-linejoin="round" d="M0.875 1.375v21.25h22.25" stroke-width="1"></path><path stroke="#000000" stroke-linecap="round" stroke-linejoin="round" d="M20.592 11.747c-0.9281 1.4022 -2.1845 2.5567 -3.66 3.3633 -1.4755 0.8065 -3.1256 1.2406 -4.807 1.2647 -1.6814 -0.0241 -3.33149 -0.4582 -4.80702 -1.2647 -1.47553 -0.8066 -2.73189 -1.9611 -3.65999 -3.3633 -0.06816 -0.1121 -0.10422 -0.2408 -0.10422 -0.372s0.03606 -0.2599 0.10422 -0.372c0.9281 -1.40224 2.18446 -2.55674 3.65999 -3.36326C8.79351 6.83323 10.4436 6.39908 12.125 6.375c1.6811 0.02375 3.331 0.45744 4.8065 1.26342C18.4071 8.4444 19.6636 9.59831 20.592 11c0.0687 0.1124 0.1051 0.2417 0.1051 0.3735s-0.0364 0.261 -0.1051 0.3735v0Z" stroke-width="1"></path><path stroke="#000000" stroke-linecap="round" stroke-linejoin="round" d="M12 13.875c1.3807 0 2.5 -1.1193 2.5 -2.5 0 -1.38071 -1.1193 -2.5 -2.5 -2.5s-2.5 1.11929 -2.5 2.5c0 1.3807 1.1193 2.5 2.5 2.5Z" stroke-width="1"></path><path stroke="#000000" stroke-linecap="round" stroke-linejoin="round" d="m1.125 22.375 5.083 -5.083" stroke-width="1"></path><path stroke="#000000" stroke-linecap="round" stroke-linejoin="round" d="M17.541 1.375h4.584v4.584" stroke-width="1"></path><path stroke="#000000" stroke-linecap="round" stroke-linejoin="round" d="m18.371 5.129 3.754 -3.754" stroke-width="1"></path></svg>