<svg xmlns="http://www.w3.org/2000/svg" viewBox="0 0 24 24" id="Customer-Relationship-Management-Asset-Diamond--Streamline-Ultimate"><desc>Customer Relationship Management Asset Diamond Streamline Icon: https://streamlinehq.com</desc><defs></defs><path d="m15.436 5.344 -3.503 -3.503 -7.455 0L0.75 6.417l7.456 7.594 0.613 -0.448" fill="none" stroke="#000000" stroke-linecap="round" stroke-linejoin="round" stroke-width="1"></path><path d="m1.496 6.417 11.909 0" fill="none" stroke="#000000" stroke-linecap="round" stroke-linejoin="round" stroke-width="1"></path><path d="m8.206 1.841 0 8.423" fill="none" stroke="#000000" stroke-linecap="round" stroke-linejoin="round" stroke-width="1"></path><path d="M15.435 15.126a1.563 1.563 0 1 0 3.126 0 1.563 1.563 0 1 0 -3.126 0" fill="none" stroke="#000000" stroke-linecap="round" stroke-linejoin="round" stroke-width="1"></path><path d="m18.326 9.08 0.461 1.513a1.034 1.034 0 0 0 1.222 0.71l1.535 -0.356a1.4 1.4 0 0 1 1.327 2.312L21.8 14.416a1.044 1.044 0 0 0 0 1.419l1.073 1.158a1.394 1.394 0 0 1 -1.329 2.307l-1.535 -0.355a1.034 1.034 0 0 0 -1.222 0.709l-0.461 1.514a1.386 1.386 0 0 1 -2.655 0l-0.461 -1.514a1.035 1.035 0 0 0 -1.223 -0.709l-1.534 0.355a1.394 1.394 0 0 1 -1.327 -2.311l1.074 -1.154a1.044 1.044 0 0 0 0 -1.419l-1.073 -1.157a1.4 1.4 0 0 1 1.327 -2.312l1.534 0.356a1.035 1.035 0 0 0 1.223 -0.71l0.461 -1.513a1.386 1.386 0 0 1 2.654 0Z" fill="none" stroke="#000000" stroke-linecap="round" stroke-linejoin="round" stroke-width="1"></path></svg>