<svg xmlns="http://www.w3.org/2000/svg" viewBox="0 0 24 24" id="Customer-Relationship-Management-Contact-Management-Phone-Book--Streamline-Ultimate"><desc>Customer Relationship Management Contact Management Phone Book Streamline Icon: https://streamlinehq.com</desc><defs></defs><path d="M7.752 8.25a2 2 0 1 0 4 0 2 2 0 1 0 -4 0" fill="none" stroke="#000000" stroke-linecap="round" stroke-linejoin="round" stroke-width="1"></path><path d="M8.752 13.75h-2.5a3.5 3.5 0 0 1 4.509 -3.35" fill="none" stroke="#000000" stroke-linecap="round" stroke-linejoin="round" stroke-width="1"></path><path d="M8.252 19.25h-5.5a2 2 0 0 1 -2 -2V2.75a2 2 0 0 1 2 -2h12a2 2 0 0 1 2 2v4" fill="none" stroke="#000000" stroke-linecap="round" stroke-linejoin="round" stroke-width="1"></path><path d="m3.752 0.75 0 18.5" fill="none" stroke="#000000" stroke-linecap="round" stroke-linejoin="round" stroke-width="1"></path><path d="M15.748 16.5a1.5 1.5 0 1 0 3 0 1.5 1.5 0 1 0 -3 0" fill="none" stroke="#000000" stroke-linecap="round" stroke-linejoin="round" stroke-width="1"></path><path d="m18.522 10.7 0.442 1.453a0.994 0.994 0 0 0 1.174 0.681l1.472 -0.341a1.339 1.339 0 0 1 1.275 2.218l-1.031 1.111a1 1 0 0 0 0 1.362l1.031 1.111a1.339 1.339 0 0 1 -1.275 2.215l-1.472 -0.341a0.994 0.994 0 0 0 -1.174 0.681l-0.442 1.45a1.33 1.33 0 0 1 -2.548 0l-0.442 -1.453a0.994 0.994 0 0 0 -1.174 -0.681l-1.472 0.341a1.339 1.339 0 0 1 -1.275 -2.218l1.031 -1.111a1 1 0 0 0 0 -1.362l-1.031 -1.111a1.339 1.339 0 0 1 1.275 -2.218l1.472 0.341a0.994 0.994 0 0 0 1.174 -0.681l0.442 -1.453a1.33 1.33 0 0 1 2.548 0.006Z" fill="none" stroke="#000000" stroke-linecap="round" stroke-linejoin="round" stroke-width="1"></path></svg>