<svg xmlns="http://www.w3.org/2000/svg" viewBox="0 0 24 24" id="Customer-Relationship-Management-Time-Calendar--Streamline-Ultimate"><desc>Customer Relationship Management Time Calendar Streamline Icon: https://streamlinehq.com</desc><defs></defs><path d="M6.345 7.774V4.79A1.988 1.988 0 0 1 8.334 2.8h12.927a1.988 1.988 0 0 1 1.989 1.99v12.928a1.989 1.989 0 0 1 -1.989 1.989h-5.469" fill="none" stroke="#000000" stroke-linecap="round" stroke-linejoin="round" stroke-width="1"></path><path d="m6.345 6.779 16.905 0" fill="none" stroke="#000000" stroke-linecap="round" stroke-linejoin="round" stroke-width="1"></path><path d="m14.797 10.508 4.217 0 -3.373 5.482" fill="none" stroke="#000000" stroke-linecap="round" stroke-linejoin="round" stroke-width="1"></path><path d="m10.518 0.813 0 3.749" fill="none" stroke="#000000" stroke-linecap="round" stroke-linejoin="round" stroke-width="1"></path><path d="m19.077 0.813 0 3.749" fill="none" stroke="#000000" stroke-linecap="round" stroke-linejoin="round" stroke-width="1"></path><path d="M5.225 16.475a1.492 1.492 0 1 0 2.984 0 1.492 1.492 0 1 0 -2.984 0" fill="none" stroke="#000000" stroke-linecap="round" stroke-linejoin="round" stroke-width="1"></path><path d="m7.984 10.705 0.439 1.444a0.988 0.988 0 0 0 1.167 0.677l1.465 -0.339a1.331 1.331 0 0 1 1.267 2.206L11.3 15.8a1 1 0 0 0 0 1.354l1.025 1.105a1.331 1.331 0 0 1 -1.267 2.206l-1.468 -0.341a0.987 0.987 0 0 0 -1.167 0.677l-0.439 1.444a1.324 1.324 0 0 1 -2.535 0L5.01 20.8a0.987 0.987 0 0 0 -1.167 -0.677l-1.465 0.339a1.331 1.331 0 0 1 -1.267 -2.206l1.025 -1.105a1 1 0 0 0 0 -1.354l-1.025 -1.104a1.331 1.331 0 0 1 1.267 -2.206l1.465 0.339a0.988 0.988 0 0 0 1.167 -0.677l0.439 -1.444a1.324 1.324 0 0 1 2.535 0Z" fill="none" stroke="#000000" stroke-linecap="round" stroke-linejoin="round" stroke-width="1"></path></svg>