<svg xmlns="http://www.w3.org/2000/svg" fill="none" viewBox="0 0 24 24" id="Customer-Relationship-Management-Binoculars--Streamline-Ultimate"><desc>Customer Relationship Management Binoculars Streamline Icon: https://streamlinehq.com</desc><path stroke="#000000" stroke-linecap="round" stroke-linejoin="round" d="M5.152 23.25c2.43116 0 4.402 -1.9708 4.402 -4.402 0 -2.4311 -1.97084 -4.402 -4.402 -4.402S0.75 16.4169 0.75 18.848c0 2.4312 1.97084 4.402 4.402 4.402Z" stroke-width="1"></path><path stroke="#000000" stroke-linecap="round" stroke-linejoin="round" d="M18.848 23.25c2.4312 0 4.402 -1.9708 4.402 -4.402 0 -2.4311 -1.9708 -4.402 -4.402 -4.402s-4.402 1.9709 -4.402 4.402c0 2.4312 1.9708 4.402 4.402 4.402Z" stroke-width="1"></path><path stroke="#000000" stroke-linecap="round" stroke-linejoin="round" d="M1.719 16.093 5.9 10.885c0.37075 -0.3844 0.84788 -0.6493 1.3702 -0.7607 0.52232 -0.1113 1.066 -0.0641 1.56128 0.1357 0.49529 0.1998 0.9196 0.5429 1.21852 0.9855 0.2989 0.4426 0.4587 0.9644 0.459 1.4985L10.324 14" stroke-width="1"></path><path stroke="#000000" stroke-linecap="round" stroke-linejoin="round" d="M22.279 16.093 18.1 10.885c-0.3707 -0.3844 -0.8479 -0.6493 -1.3702 -0.7607 -0.5223 -0.1113 -1.066 -0.0641 -1.5613 0.1357 -0.4953 0.1998 -0.9196 0.5429 -1.2185 0.9855 -0.2989 0.4426 -0.4587 0.9644 -0.459 1.4985L13.673 14" stroke-width="1"></path><path stroke="#000000" stroke-linecap="round" stroke-linejoin="round" d="M9.554 19.826c0.29619 -0.3511 0.6742 -0.624 1.1008 -0.7946 0.4266 -0.1705 0.8885 -0.2335 1.3452 -0.1834 0.4567 -0.0501 0.9186 0.0129 1.3452 0.1834 0.4266 0.1706 0.8046 0.4435 1.1008 0.7946" stroke-width="1"></path><path stroke="#000000" stroke-linecap="round" stroke-linejoin="round" d="M10.533 12.783c0.1779 -0.2101 0.4048 -0.3732 0.6606 -0.4749 0.2559 -0.1016 0.5328 -0.1388 0.8064 -0.1081 0.2739 -0.0302 0.5511 0.0076 0.807 0.1099 0.2558 0.1024 0.4825 0.2663 0.66 0.4771" stroke-width="1"></path><path stroke="#000000" stroke-linecap="round" stroke-linejoin="round" d="M19.25 0.75c0.2652 0 0.5196 0.105357 0.7071 0.29289 0.1875 0.18754 0.2929 0.44189 0.2929 0.70711v4.5c0 0.26522 -0.1054 0.51957 -0.2929 0.70711 -0.1875 0.18753 -0.4419 0.29289 -0.7071 0.29289H15L12 9.5V7.25H6.75c-0.26522 0 -0.51957 -0.10536 -0.70711 -0.29289C5.85536 6.76957 5.75 6.51522 5.75 6.25v-4.5c0 -0.26522 0.10536 -0.51957 0.29289 -0.70711C6.23043 0.855357 6.48478 0.75 6.75 0.75h12.5Z" stroke-width="1"></path><path stroke="#000000" d="M9 4.25c-0.13807 0 -0.25 -0.11193 -0.25 -0.25s0.11193 -0.25 0.25 -0.25" stroke-width="1"></path><path stroke="#000000" d="M9 4.25c0.13807 0 0.25 -0.11193 0.25 -0.25s-0.11193 -0.25 -0.25 -0.25" stroke-width="1"></path><path stroke="#000000" d="M13 4.25c-0.1381 0 -0.25 -0.11193 -0.25 -0.25s0.1119 -0.25 0.25 -0.25" stroke-width="1"></path><path stroke="#000000" d="M13 4.25c0.1381 0 0.25 -0.11193 0.25 -0.25s-0.1119 -0.25 -0.25 -0.25" stroke-width="1"></path><path stroke="#000000" d="M17 4.25c-0.1381 0 -0.25 -0.11193 -0.25 -0.25s0.1119 -0.25 0.25 -0.25" stroke-width="1"></path><path stroke="#000000" d="M17 4.25c0.1381 0 0.25 -0.11193 0.25 -0.25s-0.1119 -0.25 -0.25 -0.25" stroke-width="1"></path></svg>