<svg xmlns="http://www.w3.org/2000/svg" viewBox="0 0 24 24" id="Customer-Relationship-Management-Quote--Streamline-Ultimate"><desc>Customer Relationship Management Quote Streamline Icon: https://streamlinehq.com</desc><defs></defs><path d="M0.704 6.829a2.171 2.171 0 1 0 4.342 0 2.171 2.171 0 1 0 -4.342 0" fill="none" stroke="#000000" stroke-linecap="round" stroke-miterlimit="10" stroke-width="1"></path><path d="M0.7 6.829V3.355A2.6 2.6 0 0 1 3.309 0.75" fill="none" stroke="#000000" stroke-linecap="round" stroke-miterlimit="10" stroke-width="1"></path><path d="M7.454 6.829a2.171 2.171 0 1 0 4.342 0 2.171 2.171 0 1 0 -4.342 0" fill="none" stroke="#000000" stroke-linecap="round" stroke-miterlimit="10" stroke-width="1"></path><path d="M7.454 6.829V3.355a2.6 2.6 0 0 1 2.6 -2.6" fill="none" stroke="#000000" stroke-linecap="round" stroke-miterlimit="10" stroke-width="1"></path><path d="M13.454 1.75H21.2a2 2 0 0 1 2 2v8.5" fill="none" stroke="#000000" stroke-linecap="round" stroke-miterlimit="10" stroke-width="1"></path><path d="M0.7 11.5v8.75a2 2 0 0 0 2 2h7.5" fill="none" stroke="#000000" stroke-linecap="round" stroke-miterlimit="10" stroke-width="1"></path><path d="M18.954 17.171a2.171 2.171 0 1 0 4.342 0 2.171 2.171 0 1 0 -4.342 0" fill="none" stroke="#000000" stroke-linecap="round" stroke-miterlimit="10" stroke-width="1"></path><path d="M23.3 17.171v3.474a2.6 2.6 0 0 1 -2.605 2.605" fill="none" stroke="#000000" stroke-linecap="round" stroke-miterlimit="10" stroke-width="1"></path><path d="M12.204 17.171a2.171 2.171 0 1 0 4.342 0 2.171 2.171 0 1 0 -4.342 0" fill="none" stroke="#000000" stroke-linecap="round" stroke-miterlimit="10" stroke-width="1"></path><path d="M16.546 17.171v3.474a2.6 2.6 0 0 1 -2.6 2.605" fill="none" stroke="#000000" stroke-linecap="round" stroke-miterlimit="10" stroke-width="1"></path></svg>