<svg xmlns="http://www.w3.org/2000/svg" fill="none" viewBox="0 0 24 24" id="Customer-Relationship-Management-Tracking-Handshake--Streamline-Ultimate"><desc>Customer Relationship Management Tracking Handshake Streamline Icon: https://streamlinehq.com</desc><path stroke="#000000" stroke-linecap="round" stroke-linejoin="round" d="M17.848 4.31196c0.0984 0.12822 0.1518 0.28535 0.1518 0.447 0 0.16165 -0.0534 0.31878 -0.1518 0.447 -0.759 0.995 -2.843 3.3 -5.848 3.3s-5.09 -2.306 -5.848 -3.3c-0.09845 -0.12822 -0.15181 -0.28535 -0.15181 -0.447 0 -0.16165 0.05336 -0.31878 0.15181 -0.447 0.759 -1 2.843 -3.3 5.848 -3.3s5.09 2.306 5.848 3.3Z" stroke-width="1"></path><path stroke="#000000" stroke-linecap="round" stroke-linejoin="round" d="M12 3.25879c0.2967 0 0.5867 0.08797 0.8334 0.2528 0.2466 0.16482 0.4389 0.39909 0.5524 0.67317 0.1135 0.27409 0.1433 0.57569 0.0854 0.86667 -0.0579 0.29097 -0.2008 0.55824 -0.4105 0.76802 -0.2098 0.20978 -0.4771 0.35264 -0.7681 0.41052 -0.2909 0.05787 -0.5925 0.02817 -0.8666 -0.08536s-0.5084 -0.30579 -0.6732 -0.55246c-0.1648 -0.24668 -0.2528 -0.53669 -0.2528 -0.83336 0 -0.39783 0.158 -0.77936 0.4393 -1.06066 0.2813 -0.2813 0.6629 -0.43934 1.0607 -0.43934" stroke-width="1"></path><path stroke="#000000" stroke-linecap="round" stroke-linejoin="round" d="m19.819 18.8311 -4.072 0.525" stroke-width="1"></path><path stroke="#000000" stroke-linecap="round" stroke-linejoin="round" d="m14.278 13.3001 -3.27 1.081c-0.2532 0.0835 -0.5282 0.0709 -0.7728 -0.0353 -0.2445 -0.1062 -0.44141 -0.2987 -0.5532 -0.5407 -0.1197 -0.2585 -0.13447 -0.5533 -0.04122 -0.8224 0.09326 -0.2692 0.28727 -0.4916 0.54122 -0.6206l3.168 -1.592c0.2702 -0.1358 0.5653 -0.2147 0.8671 -0.2318 0.3019 -0.0172 0.6041 0.0276 0.8879 0.1318l4.695 1.715" stroke-width="1"></path><path stroke="#000000" stroke-linecap="round" stroke-linejoin="round" d="M4.157 18.8389h2.307l3.312 3.712c0.10858 0.1262 0.241 0.2297 0.3897 0.3046 0.1486 0.0749 0.3106 0.1197 0.4766 0.1319 0.166 0.0121 0.3328 -0.0086 0.4908 -0.061 0.158 -0.0524 0.3041 -0.1355 0.4299 -0.2445l4.184 -3.326c0.2355 -0.2356 0.3781 -0.5483 0.4016 -0.8806 0.0235 -0.3323 -0.0736 -0.6619 -0.2736 -0.9284l-2.961 -3.794" stroke-width="1"></path><path stroke="#000000" stroke-linecap="round" stroke-linejoin="round" d="m10.664 12.1211 -0.338 -0.278c-0.2712 -0.2 -0.58904 -0.3274 -0.92331 -0.3701 -0.33427 -0.0427 -0.6739 0.0007 -0.98669 0.1261l-4.2 1.679" stroke-width="1"></path><path stroke="#000000" stroke-linecap="round" stroke-linejoin="round" d="M1.389 11.6719h1.886c0.23967 -0.01 0.47355 0.0754 0.65032 0.2376 0.17678 0.1621 0.28203 0.3878 0.29268 0.6274v6.052c-0.01065 0.2397 -0.1159 0.4653 -0.29268 0.6275 -0.17677 0.1621 -0.41065 0.2476 -0.65032 0.2375H1.389" stroke-width="1"></path><path stroke="#000000" stroke-linecap="round" stroke-linejoin="round" d="M22.611 19.4539h-1.886c-0.2397 0.0101 -0.4735 -0.0754 -0.6503 -0.2375 -0.1768 -0.1622 -0.2821 -0.3878 -0.2927 -0.6275v-6.052c0.0106 -0.2396 0.1159 -0.4653 0.2927 -0.6274 0.1768 -0.1622 0.4106 -0.2476 0.6503 -0.2376h1.886" stroke-width="1"></path></svg>