<svg xmlns="http://www.w3.org/2000/svg" viewBox="0 0 24 24" id="Customer-Relationship-Management-Account-Alert-Bell--Streamline-Ultimate"><desc>Customer Relationship Management Account Alert Bell Streamline Icon: https://streamlinehq.com</desc><defs></defs><path d="M3.75 5.249a4.125 4.125 0 1 0 8.25 0 4.125 4.125 0 1 0 -8.25 0" fill="none" stroke="#000000" stroke-linecap="round" stroke-linejoin="round" stroke-width="1"></path><path d="M1.125 17.624a6.75 6.75 0 0 1 11.251 -5.03" fill="none" stroke="#000000" stroke-linecap="round" stroke-linejoin="round" stroke-width="1"></path><path d="M22.875 20.372h-9.6a1.757 1.757 0 0 0 1.332 -0.6 1.777 1.777 0 0 0 0.468 -1.207V15.39a3 3 0 1 1 6 0v3.171a1.777 1.777 0 0 0 0.468 1.207 1.757 1.757 0 0 0 1.332 0.604Z" fill="none" stroke="#000000" stroke-linecap="round" stroke-linejoin="round" stroke-width="1"></path><path d="m17.025 22.876 2 0" fill="none" stroke="#000000" stroke-linecap="round" stroke-linejoin="round" stroke-width="1"></path></svg>