<svg xmlns="http://www.w3.org/2000/svg" viewBox="0 0 24 24" id="Customer-Relationship-Management-Knowledge-Management-Brain--Streamline-Ultimate"><desc>Customer Relationship Management Knowledge Management Brain Streamline Icon: https://streamlinehq.com</desc><defs></defs><path d="m0.941 14.124 0 9" fill="none" stroke="#000000" stroke-linecap="round" stroke-linejoin="round" stroke-width="1"></path><path d="M0.941 21.624h15a3 3 0 0 0 -3 -3h-3.75a3 3 0 0 0 -3 -3H0.941" fill="none" stroke="#000000" stroke-linecap="round" stroke-linejoin="round" stroke-width="1"></path><path d="m6.191 18.624 3 0" fill="none" stroke="#000000" stroke-linecap="round" stroke-linejoin="round" stroke-width="1"></path><path d="M14.559 3.376a2.5 2.5 0 0 0 -4.827 -0.9 2.485 2.485 0 0 0 -2.661 3.9 2.493 2.493 0 0 0 1.488 4.5h3.129a2.871 2.871 0 0 0 2.871 -2.871 2.872 2.872 0 0 0 2.872 2.871h3.128a2.493 2.493 0 0 0 1.488 -4.5 2.489 2.489 0 0 0 -1.988 -4 2.5 2.5 0 0 0 -0.673 0.1 2.5 2.5 0 0 0 -4.827 0.9Z" fill="none" stroke="#000000" stroke-linecap="round" stroke-linejoin="round" stroke-width="1"></path><path d="m14.559 8.005 0 -5.129" fill="none" stroke="#000000" stroke-linecap="round" stroke-linejoin="round" stroke-width="1"></path><path d="M9.559 6.876a1.776 1.776 0 0 1 1.5 1" fill="none" stroke="#000000" stroke-linecap="round" stroke-linejoin="round" stroke-width="1"></path><path d="m12.059 4.376 0 0.5" fill="none" stroke="#000000" stroke-linecap="round" stroke-linejoin="round" stroke-width="1"></path><path d="M19.559 6.876a1.776 1.776 0 0 0 -1.5 1" fill="none" stroke="#000000" stroke-linecap="round" stroke-linejoin="round" stroke-width="1"></path><path d="m17.059 4.376 0 0.5" fill="none" stroke="#000000" stroke-linecap="round" stroke-linejoin="round" stroke-width="1"></path></svg>