<svg xmlns="http://www.w3.org/2000/svg" viewBox="0 0 24 24" id="Customer-Relationship-Management-Knowledge-Management-Book--Streamline-Ultimate"><desc>Customer Relationship Management Knowledge Management Book Streamline Icon: https://streamlinehq.com</desc><defs></defs><path d="m0.75 13.072 0 9" fill="none" stroke="#000000" stroke-linecap="round" stroke-linejoin="round" stroke-width="1"></path><path d="M0.75 20.572h15a3 3 0 0 0 -3 -3H9a3 3 0 0 0 -3 -3H0.75" fill="none" stroke="#000000" stroke-linecap="round" stroke-linejoin="round" stroke-width="1"></path><path d="m6 17.572 3 0" fill="none" stroke="#000000" stroke-linecap="round" stroke-linejoin="round" stroke-width="1"></path><path d="M11.026 13.963c3.383 0.508 4.474 1.7 4.474 1.7" fill="none" stroke="#000000" stroke-linecap="round" stroke-linejoin="round" stroke-width="1"></path><path d="M7.75 10.888V2.28a0.352 0.352 0 0 1 0.357 -0.352C13.809 2 15.5 3.852 15.5 3.852v11.812s1.693 -1.851 7.4 -1.924a0.353 0.353 0 0 0 0.348 -0.352V2.28a0.352 0.352 0 0 0 -0.357 -0.352 22.074 22.074 0 0 0 -3.166 0.262A9.832 9.832 0 0 0 15.5 3.852" fill="none" stroke="#000000" stroke-linecap="round" stroke-linejoin="round" stroke-width="1"></path></svg>