<svg xmlns="http://www.w3.org/2000/svg" viewBox="0 0 24 24" id="Customer-Relationship-Management-Contact-Management-Share--Streamline-Ultimate"><desc>Customer Relationship Management Contact Management Share Streamline Icon: https://streamlinehq.com</desc><defs></defs><path d="m0.75 14.249 0 9" fill="none" stroke="#000000" stroke-linecap="round" stroke-linejoin="round" stroke-width="1"></path><path d="M0.75 21.749h15a3 3 0 0 0 -3 -3H9a3 3 0 0 0 -3 -3H0.75" fill="none" stroke="#000000" stroke-linecap="round" stroke-linejoin="round" stroke-width="1"></path><path d="m6 18.749 3 0" fill="none" stroke="#000000" stroke-linecap="round" stroke-linejoin="round" stroke-width="1"></path><path d="M15.25 6.751a2 2 0 1 0 4 0 2 2 0 1 0 -4 0" fill="none" stroke="#000000" stroke-linecap="round" stroke-linejoin="round" stroke-width="1"></path><path d="M20.75 12.251h-7a3.5 3.5 0 1 1 7 0Z" fill="none" stroke="#000000" stroke-linecap="round" stroke-linejoin="round" stroke-width="1"></path><path d="M8.25 13.251v-10.5a2 2 0 0 1 2 -2h11a2 2 0 0 1 2 2v11.5a2 2 0 0 1 -2 2h-9" fill="none" stroke="#000000" stroke-linecap="round" stroke-linejoin="round" stroke-width="1"></path><path d="m11.25 0.751 0 13" fill="none" stroke="#000000" stroke-linecap="round" stroke-linejoin="round" stroke-width="1"></path></svg>