<svg xmlns="http://www.w3.org/2000/svg" viewBox="0 0 24 24" id="Customer-Relationship-Management-Chatbox--Streamline-Ultimate"><desc>Customer Relationship Management Chatbox Streamline Icon: https://streamlinehq.com</desc><defs></defs><path d="M21.75 6.946V2.25a1.5 1.5 0 0 0 -1.5 -1.5h-18a1.5 1.5 0 0 0 -1.5 1.5v16.5a1.5 1.5 0 0 0 1.5 1.5h4.663" fill="none" stroke="#000000" stroke-linecap="round" stroke-linejoin="round" stroke-width="1"></path><path d="m0.75 5.25 21 0" fill="none" stroke="#000000" stroke-linecap="round" stroke-linejoin="round" stroke-width="1"></path><path d="M10.75 18.75h2v4.5l4.5 -4.5h5a1 1 0 0 0 1 -1v-7a1 1 0 0 0 -1 -1h-11.5a1 1 0 0 0 -1 1v7a1 1 0 0 0 1 1Z" fill="none" stroke="#000000" stroke-linecap="round" stroke-linejoin="round" stroke-width="1"></path><path d="m12.75 12.75 7.5 0" fill="none" stroke="#000000" stroke-linecap="round" stroke-linejoin="round" stroke-width="1"></path><path d="m12.75 15.75 7.5 0" fill="none" stroke="#000000" stroke-linecap="round" stroke-linejoin="round" stroke-width="1"></path></svg>