<svg xmlns="http://www.w3.org/2000/svg" fill="none" viewBox="0 0 24 24" id="Customer-Relationship-Management-Territory-Management-Line-Graph--Streamline-Ultimate"><desc>Customer Relationship Management Territory Management Line Graph Streamline Icon: https://streamlinehq.com</desc><path stroke="#000000" stroke-linecap="round" stroke-linejoin="round" d="M1.00699 2.71399V23.25H22.51" stroke-width="1"></path><path stroke="#000000" stroke-linecap="round" stroke-linejoin="round" d="m1.00699 19.727 5.557 -3.242 7.24801 3.866 8.215 -6.282" stroke-width="1"></path><path stroke="#000000" stroke-linecap="round" stroke-linejoin="round" d="M18.692 14.069h3.335l-0.583 3.496" stroke-width="1"></path><path stroke="#000000" stroke-dasharray="3 3" stroke-linecap="round" stroke-linejoin="round" d="m8.30899 6.89795 -3.941 3.54695h-3.3" stroke-width="1"></path><path stroke="#000000" stroke-linecap="round" stroke-linejoin="round" d="M17.647 11.442c2.9525 0 5.346 -2.39349 5.346 -5.346S20.5995 0.75 17.647 0.75s-5.346 2.39349 -5.346 5.346 2.3935 5.346 5.346 5.346Z" stroke-width="1"></path><path stroke="#000000" stroke-linecap="round" stroke-linejoin="round" d="M16.043 4.76004c0 -0.31645 0.0938 -0.6258 0.2696 -0.88892 0.1759 -0.26312 0.4257 -0.46819 0.7181 -0.58929 0.2924 -0.1211 0.6141 -0.15279 0.9244 -0.09105 0.3104 0.06173 0.5955 0.21412 0.8193 0.43788 0.2237 0.22377 0.3761 0.50886 0.4379 0.81923 0.0617 0.31037 0.03 0.63208 -0.0911 0.92444 -0.1211 0.29236 -0.3262 0.54225 -0.5893 0.71806 -0.2631 0.17581 -0.5725 0.26965 -0.8889 0.26965v0.54" stroke-width="1"></path><path stroke="#000000" d="M17.643 9.32776c-0.1381 0 -0.25 -0.11193 -0.25 -0.25s0.1119 -0.25 0.25 -0.25" stroke-width="1"></path><path stroke="#000000" d="M17.643 9.32776c0.1381 0 0.25 -0.11193 0.25 -0.25s-0.1119 -0.25 -0.25 -0.25" stroke-width="1"></path></svg>