<svg xmlns="http://www.w3.org/2000/svg" fill="none" viewBox="0 0 24 24" id="Customer-Relationship-Management-Performance-Metrics--Streamline-Ultimate"><desc>Customer Relationship Management Performance Metrics Streamline Icon: https://streamlinehq.com</desc><path stroke="#000000" stroke-linecap="round" stroke-linejoin="round" d="M21.75 2.25H2.25c-0.82843 0 -1.5 0.67157 -1.5 1.5v16.5c0 0.8284 0.67157 1.5 1.5 1.5h19.5c0.8284 0 1.5 -0.6716 1.5 -1.5V3.75c0 -0.82843 -0.6716 -1.5 -1.5 -1.5Z" stroke-width="1"></path><path stroke="#000000" stroke-linecap="round" stroke-linejoin="round" d="M0.75 6.75h22.5" stroke-width="1"></path><path stroke="#000000" stroke-linecap="round" stroke-linejoin="round" d="M10.156 15.558c-0.24379 0.488 -0.59782 0.9125 -1.03408 1.2399 -0.43626 0.3275 -0.94276 0.5489 -1.47939 0.6467 -0.53664 0.0978 -1.08867 0.0693 -1.6124 -0.0832s-1.00476 -0.4248 -1.40502 -0.7954c-0.40026 -0.3706 -0.70875 -0.8293 -0.90104 -1.3397 -0.1923 -0.5105 -0.26312 -1.0587 -0.20685 -1.6013 0.05626 -0.5425 0.23806 -1.0645 0.53101 -1.5247 0.29294 -0.4601 0.68899 -0.8457 1.15677 -1.1263" stroke-width="1"></path><path stroke="#000000" stroke-linecap="round" stroke-linejoin="round" d="M17 17.5c-0.7931 -0.0001 -1.5627 -0.2696 -2.1827 -0.7643 -0.6199 -0.4947 -1.0535 -1.1853 -1.2295 -1.9587 -0.1761 -0.7733 -0.0843 -1.5835 0.2603 -2.2979 0.3447 -0.7143 0.9217 -1.2904 1.6367 -1.6339 0.7149 -0.3435 1.5253 -0.4339 2.2983 -0.2566 0.7731 0.1774 1.463 0.6121 1.9567 1.2329 0.4936 0.6207 0.7618 1.3908 0.7606 2.1839 -0.0012 0.7932 -0.2718 1.5624 -0.7674 2.1816" stroke-width="1"></path><path stroke="#000000" stroke-linecap="round" stroke-linejoin="round" d="M8.124 10.653c0.51736 0.1731 0.98745 0.464 1.37321 0.8497 0.38577 0.3858 0.67669 0.8559 0.84979 1.3733" stroke-width="1"></path></svg>