<svg xmlns="http://www.w3.org/2000/svg" fill="none" viewBox="0 0 24 24" id="Customer-Relationship-Management-Mobile-Access--Streamline-Ultimate"><desc>Customer Relationship Management Mobile Access Streamline Icon: https://streamlinehq.com</desc><path stroke="#000000" stroke-linecap="round" stroke-linejoin="round" d="M15.125 14.875v5.517c0.0001 0.3589 -0.0705 0.7144 -0.2078 1.046 -0.1373 0.3317 -0.3386 0.633 -0.5924 0.8868s-0.5551 0.4551 -0.8868 0.5924c-0.3316 0.1373 -0.6871 0.2079 -1.046 0.2078H5.858c-0.35894 0.0001 -0.71439 -0.0705 -1.04603 -0.2078 -0.33164 -0.1373 -0.63298 -0.3386 -0.88679 -0.5924 -0.2538 -0.2538 -0.45511 -0.5551 -0.59241 -0.8868 -0.1373 -0.3316 -0.2079 -0.6871 -0.20777 -1.046V4.857c0 -0.35886 0.0707 -0.7142 0.20806 -1.04572 0.13736 -0.33153 0.33868 -0.63275 0.59248 -0.88645 0.25379 -0.2537 0.55509 -0.45492 0.88666 -0.59216 0.33158 -0.13723 0.68694 -0.2078 1.0458 -0.20767h4.017" stroke-width="1"></path><path stroke="#000000" stroke-linecap="round" stroke-linejoin="round" d="M3.125 18.625h12" stroke-width="1"></path><path stroke="#000000" stroke-linecap="round" stroke-linejoin="round" d="m16.712 7.33495 3.688 -3.688c0.305 -0.305 0.4763 -0.71867 0.4763 -1.15 0 -0.43133 -0.1713 -0.845 -0.4763 -1.15 -0.305 -0.305 -0.7187 -0.476345 -1.15 -0.476345 -0.4313 0 -0.845 0.171345 -1.15 0.476345l-3.685 3.691c-0.8683 -0.34004 -1.8272 -0.3708 -2.7156 -0.08712 -0.8883 0.28369 -1.6519 0.86453 -2.1624 1.64489 -0.51051 0.78037 -0.73684 1.7127 -0.64092 2.64028 0.09591 0.9276 0.50822 1.7939 1.16762 2.4533 0.6594 0.6594 1.5257 1.0717 2.4533 1.1676 0.9275 0.0959 1.8599 -0.1304 2.6402 -0.641 0.7804 -0.5105 1.3612 -1.2741 1.6449 -2.1624 0.2837 -0.88832 0.2529 -1.84723 -0.0871 -2.71555l-0.003 -0.003Z" stroke-width="1"></path><path stroke="#000000" d="M12.935 9.19031c-0.2071 0 -0.375 -0.1679 -0.375 -0.375 0 -0.20711 0.1679 -0.375 0.375 -0.375" stroke-width="1"></path><path stroke="#000000" d="M12.935 9.19031c0.2071 0 0.375 -0.1679 0.375 -0.375 0 -0.20711 -0.1679 -0.375 -0.375 -0.375" stroke-width="1"></path></svg>