<svg viewBox="0 0 24 24" xmlns="http://www.w3.org/2000/svg" id="Ticket-Basketball-Game--Streamline-Ultimate"><desc>Ticket Basketball Game Streamline Icon: https://streamlinehq.com</desc><path d="M23.25 20.25a1.5 1.5 0 0 1 0 -3V15a0.75 0.75 0 0 0 -0.75 -0.75H12a0.75 0.75 0 0 0 -0.75 0.75v2.25a1.5 1.5 0 0 1 0 3v2.25a0.75 0.75 0 0 0 0.75 0.75h10.5a0.75 0.75 0 0 0 0.75 -0.75Z" fill="none" stroke="#000000" stroke-linecap="round" stroke-linejoin="round" stroke-width="1"></path><path d="M8.25 18.626a9 9 0 1 1 10.5 -8.876 9.155 9.155 0 0 1 -0.124 1.5" fill="none" stroke="#000000" stroke-linecap="round" stroke-linejoin="round" stroke-width="1"></path><path d="M3.169 15.89c1.1 -3.326 4.452 -10.552 13.222 -12.215" fill="none" stroke="#000000" stroke-linecap="round" stroke-linejoin="round" stroke-width="1"></path><path d="M3.027 3.766a18.5 18.5 0 0 1 9.53 7.483" fill="none" stroke="#000000" stroke-linecap="round" stroke-linejoin="round" stroke-width="1"></path><path d="M8.569 0.827a6.653 6.653 0 0 1 -7.591 6.9" fill="none" stroke="#000000" stroke-linecap="round" stroke-linejoin="round" stroke-width="1"></path><path d="M8.612 14.25a6.7 6.7 0 0 1 10.137 -4.667" fill="none" stroke="#000000" stroke-linecap="round" stroke-linejoin="round" stroke-width="1"></path></svg>