<svg viewBox="0 0 24 24" xmlns="http://www.w3.org/2000/svg" id="Ticket-1--Streamline-Ultimate"><desc>Ticket 1 Streamline Icon: https://streamlinehq.com</desc><path d="M11.479 23.1a0.814 0.814 0 0 0 1.05 -0.089L23.01 12.529a0.815 0.815 0 0 0 0.089 -1.05 4.081 4.081 0 0 1 0 -4.728 0.814 0.814 0 0 0 -0.089 -1.051L18.3 0.989A0.815 0.815 0 0 0 17.248 0.9a4.081 4.081 0 0 1 -4.727 0 0.816 0.816 0 0 0 -1.05 0.089L0.99 11.471a0.816 0.816 0 0 0 -0.09 1.05 4.081 4.081 0 0 1 0 4.728 0.814 0.814 0 0 0 0.09 1.051l4.71 4.711a0.814 0.814 0 0 0 1.05 0.087 4.081 4.081 0 0 1 4.729 0.002Z" fill="none" stroke="#000000" stroke-linecap="round" stroke-linejoin="round" stroke-width="1"></path><path d="m12.5769991334 4.4985740137 6.9239896014 6.9239896013 -8.0779878682 8.0779878683 -6.9239896014 -6.9239896014Z" fill="none" stroke="#000000" stroke-linecap="round" stroke-linejoin="round" stroke-width="1"></path><path d="m12.577 9.115 -3.462 3.462" fill="none" stroke="#000000" stroke-linecap="round" stroke-linejoin="round" stroke-width="1"></path><path d="m13.779 12.529 -1.078 1.078" fill="none" stroke="#000000" stroke-linecap="round" stroke-linejoin="round" stroke-width="1"></path></svg>