<svg viewBox="0 0 24 24" xmlns="http://www.w3.org/2000/svg" id="Ticket--Streamline-Ultimate"><desc>Ticket Streamline Icon: https://streamlinehq.com</desc><path d="M19.5 12.25a3.751 3.751 0 0 1 3.124 -3.7 0.75 0.75 0 0 0 0.626 -0.739V5.5a1.5 1.5 0 0 0 -1.5 -1.5H2.25a1.5 1.5 0 0 0 -1.5 1.5v2.313a0.749 0.749 0 0 0 0.626 0.739 3.751 3.751 0 0 1 0 7.4 0.75 0.75 0 0 0 -0.626 0.739V19a1.5 1.5 0 0 0 1.5 1.5h19.5a1.5 1.5 0 0 0 1.5 -1.5v-2.313a0.749 0.749 0 0 0 -0.626 -0.739A3.751 3.751 0 0 1 19.5 12.25Z" fill="none" stroke="#000000" stroke-linecap="round" stroke-linejoin="round" stroke-width="1"></path><path d="m15.75 17.5 0 -1.5" fill="none" stroke="#000000" stroke-linecap="round" stroke-linejoin="round" stroke-width="1"></path><path d="m15.75 13 0 -1.5" fill="none" stroke="#000000" stroke-linecap="round" stroke-linejoin="round" stroke-width="1"></path><path d="m15.75 8.5 0 -1.5" fill="none" stroke="#000000" stroke-linecap="round" stroke-linejoin="round" stroke-width="1"></path><path d="m8.25 17.5 0 -1.5" fill="none" stroke="#000000" stroke-linecap="round" stroke-linejoin="round" stroke-width="1"></path><path d="m8.25 13 0 -1.5" fill="none" stroke="#000000" stroke-linecap="round" stroke-linejoin="round" stroke-width="1"></path><path d="m8.25 8.5 0 -1.5" fill="none" stroke="#000000" stroke-linecap="round" stroke-linejoin="round" stroke-width="1"></path></svg>