<svg viewBox="0 0 24 24" xmlns="http://www.w3.org/2000/svg" id="Vinyl-Record-Player--Streamline-Ultimate"><desc>Vinyl Record Player Streamline Icon: https://streamlinehq.com</desc><path d="M8.25 13.5a1.5 1.5 0 1 0 3 0 1.5 1.5 0 1 0 -3 0Z" fill="none" stroke="#000000" stroke-linecap="round" stroke-linejoin="round" stroke-width="1"></path><path d="M17.25 4.5h-15A1.5 1.5 0 0 0 0.75 6v15a1.5 1.5 0 0 0 1.5 1.5h19.5a1.5 1.5 0 0 0 1.5 -1.5V6a1.5 1.5 0 0 0 -1.5 -1.5h-1.5" fill="none" stroke="#000000" stroke-linecap="round" stroke-linejoin="round" stroke-width="1"></path><path d="M13.233 18.386a6 6 0 1 1 2.22 -6.756" fill="none" stroke="#000000" stroke-linecap="round" stroke-linejoin="round" stroke-width="1"></path><path d="m17.25 1.5 3 0 0 6 -3 0Z" fill="none" stroke="#000000" stroke-linecap="round" stroke-linejoin="round" stroke-width="1"></path><path d="m18.75 7.5 0 5.25 -3.75 3" fill="none" stroke="#000000" stroke-linecap="round" stroke-linejoin="round" stroke-width="1"></path></svg>