<svg xmlns="http://www.w3.org/2000/svg" fill="none" viewBox="0 0 24 24" id="Vinyl-Record-Player-2--Streamline-Ultimate"><desc>Vinyl Record Player 2 Streamline Icon: https://streamlinehq.com</desc><path stroke="#000000" d="M10.125 8.25c-0.20711 0 -0.375 -0.16789 -0.375 -0.375s0.16789 -0.375 0.375 -0.375" stroke-width="1"></path><path stroke="#000000" d="M10.125 8.25c0.2071 0 0.375 -0.16789 0.375 -0.375s-0.1679 -0.375 -0.375 -0.375" stroke-width="1"></path><path stroke="#000000" stroke-linecap="round" stroke-linejoin="round" d="M23.083 17.9c0.1108 -0.3486 0.1671 -0.7122 0.167 -1.078 0.0003 -0.3654 -0.0584 -0.7284 -0.174 -1.075L19.685 3.289c-0.0834 -0.29078 -0.2565 -0.54779 -0.4946 -0.73436 -0.2382 -0.18658 -0.5291 -0.2932 -0.8314 -0.30464H5.641c-0.30229 0.01144 -0.59324 0.11806 -0.83136 0.30464 -0.23811 0.18657 -0.41122 0.44358 -0.49464 0.73436L0.924001 15.75c-0.115552 0.3466 -0.17431 0.7096 -0.174 1.075 0.000184 0.3648 0.05651 0.7274 0.167 1.075L2.372 20.7c0.07826 0.2922 0.24789 0.5517 0.48411 0.7406 0.23622 0.1889 0.52666 0.2973 0.82889 0.3094h16.63c0.3016 -0.0116 0.5917 -0.1193 0.8278 -0.3072 0.2362 -0.188 0.4062 -0.4465 0.4852 -0.7378l1.455 -2.805Z" stroke-width="1"></path><path stroke="#000000" stroke-linecap="round" stroke-linejoin="round" d="m17.135 5.10901 0.9 2.248c0.2342 0.58834 0.2732 1.23637 0.1111 1.84854 -0.162 0.61216 -0.5165 1.15605 -1.0111 1.55145l-0.562 0.449" stroke-width="1"></path><path stroke="#000000" stroke-linecap="round" stroke-linejoin="round" d="M10.125 11.25c2.2782 0 4.125 -1.51104 4.125 -3.375S12.4032 4.5 10.125 4.5C7.84683 4.5 6 6.01104 6 7.875s1.84683 3.375 4.125 3.375Z" stroke-width="1"></path><path stroke="#000000" stroke-linecap="round" stroke-linejoin="round" d="M0.765015 16.5H23.234" stroke-width="1"></path><path stroke="#000000" stroke-linecap="round" stroke-linejoin="round" d="M5.25 13.5h1.5" stroke-width="1"></path></svg>