<svg xmlns="http://www.w3.org/2000/svg" viewBox="0 0 24 24" id="Headphones-Person--Streamline-Ultimate"><desc>Headphones Person Streamline Icon: https://streamlinehq.com</desc><g><path d="M23.25 14a1.75 1.75 0 0 1 -3.5 0v-3a1.75 1.75 0 0 1 3.5 0Z" fill="none" stroke="#000000" stroke-linecap="round" stroke-linejoin="round" stroke-width="1"></path><path d="M0.75 14a1.75 1.75 0 0 0 3.5 0v-3a1.75 1.75 0 0 0 -3.5 0Z" fill="none" stroke="#000000" stroke-linecap="round" stroke-linejoin="round" stroke-width="1"></path><path d="M19.75 12.37V8.5A7.78 7.78 0 0 0 12 0.75h0A7.78 7.78 0 0 0 4.25 8.5v3.87" fill="none" stroke="#000000" stroke-linecap="round" stroke-linejoin="round" stroke-width="1"></path><path d="M7.5 11.25a4.5 4.5 0 1 0 9 0 4.5 4.5 0 1 0 -9 0" fill="none" stroke="#000000" stroke-linecap="round" stroke-linejoin="round" stroke-width="1"></path><path d="M18.37 23.25a6.76 6.76 0 0 0 -12.74 0" fill="none" stroke="#000000" stroke-linecap="round" stroke-linejoin="round" stroke-width="1"></path></g></svg>