<svg viewBox="0 0 24 24" xmlns="http://www.w3.org/2000/svg" id="Headphones-Human-Music--Streamline-Ultimate"><desc>Headphones Human Music Streamline Icon: https://streamlinehq.com</desc><path d="M20.33 12.035c0.455 1.2 0.913 2.448 1.42 3.715h-3V18a3 3 0 0 1 -3 3h-1.5v2.25" fill="none" stroke="#000000" stroke-linecap="round" stroke-linejoin="round" stroke-width="1"></path><path d="M13.07 2.656a7.552 7.552 0 0 1 1.971 0.923" fill="none" stroke="#000000" stroke-linecap="round" stroke-linejoin="round" stroke-width="1"></path><path d="M3.75 23.25v-4.765A9.363 9.363 0 0 1 5.1 3.712" fill="none" stroke="#000000" stroke-linecap="round" stroke-linejoin="round" stroke-width="1"></path><path d="M14.078 8.899a1.601 1.601 0 1 0 3.202 0 1.601 1.601 0 1 0 -3.202 0Z" fill="none" stroke="#000000" stroke-linecap="round" stroke-linejoin="round" stroke-width="1"></path><path d="M23.25 7.173a1.6 1.6 0 1 1 -1.6 -1.6 1.6 1.6 0 0 1 1.6 1.6Z" fill="none" stroke="#000000" stroke-linecap="round" stroke-linejoin="round" stroke-width="1"></path><path d="M17.28 8.9v-6a1.282 1.282 0 0 1 0.876 -1.216l3.408 -0.868a1.281 1.281 0 0 1 1.686 1.215v5.142" fill="none" stroke="#000000" stroke-linecap="round" stroke-linejoin="round" stroke-width="1"></path><path d="M7.5 2.25v6.416a3 3 0 1 0 3 0V2.25A1.5 1.5 0 0 0 9 0.75h0a1.5 1.5 0 0 0 -1.5 1.5Z" fill="none" stroke="#000000" stroke-linecap="round" stroke-linejoin="round" stroke-width="1"></path></svg>