<svg viewBox="0 0 24 24" xmlns="http://www.w3.org/2000/svg" id="Headphones--Streamline-Ultimate"><desc>Headphones Streamline Icon: https://streamlinehq.com</desc><path d="M18.75 21.375h0a4.5 4.5 0 0 0 4.5 -4.5h0a4.5 4.5 0 0 0 -4.5 -4.5h0a1.5 1.5 0 0 0 -1.5 1.5v6a1.5 1.5 0 0 0 1.5 1.5Z" fill="none" stroke="#000000" stroke-linecap="round" stroke-linejoin="round" stroke-width="1"></path><path d="M5.25 21.375h0a4.5 4.5 0 0 1 -4.5 -4.5h0a4.5 4.5 0 0 1 4.5 -4.5h0a1.5 1.5 0 0 1 1.5 1.5v6a1.5 1.5 0 0 1 -1.5 1.5Z" fill="none" stroke="#000000" stroke-linecap="round" stroke-linejoin="round" stroke-width="1"></path><path d="M3.75 12.631v-1.756A8.274 8.274 0 0 1 12 2.625h0a8.274 8.274 0 0 1 8.25 8.25v1.756" fill="none" stroke="#000000" stroke-linecap="round" stroke-linejoin="round" stroke-width="1"></path></svg>