<svg xmlns="http://www.w3.org/2000/svg" viewBox="0 0 24 24" id="Headphones-Wave--Streamline-Ultimate"><desc>Headphones Wave Streamline Icon: https://streamlinehq.com</desc><g><path d="M4 18.75a1.63 1.63 0 1 1 -3.25 0V15.5a1.63 1.63 0 0 1 3.25 0Z" fill="none" stroke="#000000" stroke-linecap="round" stroke-linejoin="round" stroke-width="1"></path><path d="M20 18.75a1.63 1.63 0 1 0 3.25 0V15.5a1.63 1.63 0 0 0 -3.25 0Z" fill="none" stroke="#000000" stroke-linecap="round" stroke-linejoin="round" stroke-width="1"></path><path d="M7 15.38h0.83a0.76 0.76 0 0 0 0.64 -0.38l1.28 -2a0.75 0.75 0 0 1 1.32 0.09L13 17.32a0.75 0.75 0 0 0 1.29 0.13l1.27 -1.76a0.72 0.72 0 0 1 0.6 -0.31H17" fill="none" stroke="#000000" stroke-linecap="round" stroke-linejoin="round" stroke-width="1"></path><path d="M4 15.5v-3.88a8 8 0 0 1 16 0v3.88" fill="none" stroke="#000000" stroke-linecap="round" stroke-linejoin="round" stroke-width="1"></path></g></svg>