<svg xmlns="http://www.w3.org/2000/svg" viewBox="0 0 24 24" id="Headphones-Cable--Streamline-Ultimate"><desc>Headphones Cable Streamline Icon: https://streamlinehq.com</desc><g><path d="M8.25 17.25h-2V6.75h2a1.5 1.5 0 0 1 1.5 1.5v7.5a1.5 1.5 0 0 1 -1.5 1.5Z" fill="none" stroke="#000000" stroke-linecap="round" stroke-linejoin="round" stroke-width="1"></path><path d="M6.25 16.47a4.5 4.5 0 0 1 0 -8.94" fill="none" stroke="#000000" stroke-linecap="round" stroke-linejoin="round" stroke-width="1"></path><path d="M14.25 17.25h2V6.75h-2a1.5 1.5 0 0 0 -1.5 1.5v7.5a1.5 1.5 0 0 0 1.5 1.5Z" fill="none" stroke="#000000" stroke-linecap="round" stroke-linejoin="round" stroke-width="1"></path><path d="M16.25 16.47a4.5 4.5 0 0 0 0 -8.94" fill="none" stroke="#000000" stroke-linecap="round" stroke-linejoin="round" stroke-width="1"></path><path d="M2.25 12V9.75a9 9 0 0 1 18 0V12" fill="none" stroke="#000000" stroke-linecap="round" stroke-linejoin="round" stroke-width="1"></path><path d="m0.75 21.75 3 0" fill="none" stroke="#000000" stroke-linecap="round" stroke-linejoin="round" stroke-width="1"></path><path d="M6.75 23.25a1.5 1.5 0 0 0 0 -3h-3v3Z" fill="none" stroke="#000000" stroke-linecap="round" stroke-linejoin="round" stroke-width="1"></path><path d="M21 17.25a2.25 2.25 0 0 1 0 4.5H8.25" fill="none" stroke="#000000" stroke-linecap="round" stroke-linejoin="round" stroke-width="1"></path></g></svg>