<svg xmlns="http://www.w3.org/2000/svg" viewBox="0 0 24 24" id="Headphones-Woman--Streamline-Ultimate"><desc>Headphones Woman Streamline Icon: https://streamlinehq.com</desc><g><path d="M7.77 11v1a5.94 5.94 0 0 1 -0.86 3.27" fill="none" stroke="#000000" stroke-linecap="round" stroke-linejoin="round" stroke-width="1"></path><path d="M16 11v1a5.94 5.94 0 0 0 0.86 3.27" fill="none" stroke="#000000" stroke-linecap="round" stroke-linejoin="round" stroke-width="1"></path><path d="M7.78 11.2a5.49 5.49 0 0 0 4.11 -1.9A5.47 5.47 0 0 0 16 11.2" fill="none" stroke="#000000" stroke-linecap="round" stroke-linejoin="round" stroke-width="1"></path><path d="M7.77 10.87a4.12 4.12 0 1 0 8.24 0 4.12 4.12 0 1 0 -8.24 0" fill="none" stroke="#000000" stroke-linecap="round" stroke-linejoin="round" stroke-width="1"></path><path d="M19.43 23.25a7.88 7.88 0 0 0 -14.86 0" fill="none" stroke="#000000" stroke-linecap="round" stroke-linejoin="round" stroke-width="1"></path><path d="M23.25 14a1.75 1.75 0 0 1 -3.5 0v-3a1.75 1.75 0 0 1 3.5 0Z" fill="none" stroke="#000000" stroke-linecap="round" stroke-linejoin="round" stroke-width="1"></path><path d="M0.75 14a1.75 1.75 0 0 0 3.5 0v-3a1.75 1.75 0 0 0 -3.5 0Z" fill="none" stroke="#000000" stroke-linecap="round" stroke-linejoin="round" stroke-width="1"></path><path d="M19.75 12.37V8.5A7.78 7.78 0 0 0 12 0.75h0A7.78 7.78 0 0 0 4.25 8.5v3.87" fill="none" stroke="#000000" stroke-linecap="round" stroke-linejoin="round" stroke-width="1"></path></g></svg>