<svg viewBox="0 0 24 24" xmlns="http://www.w3.org/2000/svg" id="Canoe-3--Streamline-Ultimate"><desc>Canoe 3 Streamline Icon: https://streamlinehq.com</desc><path d="m2.25 6.75 0 16.5" fill="none" stroke="#000000" stroke-linecap="round" stroke-linejoin="round" stroke-width="1"></path><path d="M10.068 7.563a1.285 1.285 0 0 0 -0.318 0.847v8.09a2.25 2.25 0 0 0 4.5 0V8.41a1.285 1.285 0 0 0 -0.318 -0.847l-1 -1.138a1.243 1.243 0 0 0 -1.872 0Z" fill="none" stroke="#000000" stroke-linecap="round" stroke-linejoin="round" stroke-width="1"></path><path d="M7.492 5.9a3 3 0 0 0 -0.742 1.977V16.5a5.25 5.25 0 0 0 10.5 0V7.877a3 3 0 0 0 -0.742 -1.977l-2.324 -2.654a2.9 2.9 0 0 0 -4.368 0Z" fill="none" stroke="#000000" stroke-linecap="round" stroke-linejoin="round" stroke-width="1"></path><path d="m9.75 15.75 4.5 0" fill="none" stroke="#000000" stroke-linecap="round" stroke-linejoin="round" stroke-width="1"></path><path d="m14.25 12.75 -4.5 0" fill="none" stroke="#000000" stroke-linecap="round" stroke-linejoin="round" stroke-width="1"></path><path d="m14.25 9.75 -4.5 0" fill="none" stroke="#000000" stroke-linecap="round" stroke-linejoin="round" stroke-width="1"></path><path d="M1.5 0.75a0.75 0.75 0 0 0 -0.75 0.75v3.75a1.5 1.5 0 0 0 3 0V1.5A0.75 0.75 0 0 0 3 0.75Z" fill="none" stroke="#000000" stroke-linecap="round" stroke-linejoin="round" stroke-width="1"></path><path d="m21.75 17.25 0 -16.5" fill="none" stroke="#000000" stroke-linecap="round" stroke-linejoin="round" stroke-width="1"></path><path d="M22.5 23.25a0.75 0.75 0 0 0 0.75 -0.75v-3.75a1.5 1.5 0 0 0 -3 0v3.75a0.75 0.75 0 0 0 0.75 0.75Z" fill="none" stroke="#000000" stroke-linecap="round" stroke-linejoin="round" stroke-width="1"></path></svg>