<svg viewBox="0 0 24 24" xmlns="http://www.w3.org/2000/svg" id="Canoe-1--Streamline-Ultimate"><desc>Canoe 1 Streamline Icon: https://streamlinehq.com</desc><path d="M14.072 1.66a2.818 2.818 0 0 0 -4.146 0C8.458 3.318 6.75 6.439 6.75 12s1.708 8.682 3.176 10.338a2.822 2.822 0 0 0 4.146 0C15.54 20.686 17.25 17.564 17.25 12s-1.71 -8.686 -3.178 -10.34Z" fill="none" stroke="#000000" stroke-linecap="round" stroke-linejoin="round" stroke-width="1"></path><path d="M9.75 14.25a2.25 3 0 1 0 4.5 0 2.25 3 0 1 0 -4.5 0Z" fill="none" stroke="#000000" stroke-linecap="round" stroke-linejoin="round" stroke-width="1"></path><path d="m7.241 16.759 -2.339 2.339" fill="none" stroke="#000000" stroke-linecap="round" stroke-linejoin="round" stroke-width="1"></path><path d="M3.091 23.03a0.75 0.75 0 0 1 -1.061 0L0.97 21.97a0.75 0.75 0 0 1 0 -1.061L2.78 19.1a1.5 1.5 0 1 1 2.12 2.12Z" fill="none" stroke="#000000" stroke-linecap="round" stroke-linejoin="round" stroke-width="1"></path><path d="m16.759 7.241 2.339 -2.339" fill="none" stroke="#000000" stroke-linecap="round" stroke-linejoin="round" stroke-width="1"></path><path d="M20.909 0.97a0.75 0.75 0 0 1 1.061 0l1.06 1.06a0.75 0.75 0 0 1 0 1.061L21.22 4.9a1.5 1.5 0 0 1 -2.12 -2.12Z" fill="none" stroke="#000000" stroke-linecap="round" stroke-linejoin="round" stroke-width="1"></path></svg>