<svg viewBox="0 0 24 24" xmlns="http://www.w3.org/2000/svg" id="Canoe-Person-1--Streamline-Ultimate"><desc>Canoe Person 1 Streamline Icon: https://streamlinehq.com</desc><path d="M13.75 3.54a2.25 2.25 0 1 0 4.5 0 2.25 2.25 0 1 0 -4.5 0Z" fill="none" stroke="#000000" stroke-linecap="round" stroke-linejoin="round" stroke-width="1"></path><path d="m14.5 17.79 3.874 -5.106" fill="none" stroke="#000000" stroke-linecap="round" stroke-linejoin="round" stroke-width="1"></path><path d="M4.037 18.036 3.176 16.7a0.751 0.751 0 0 1 0.631 -1.156H22" fill="none" stroke="#000000" stroke-linecap="round" stroke-linejoin="round" stroke-width="1"></path><path d="m10.732 15.54 2.368 -3.527a1.5 1.5 0 0 1 1.754 -0.576l3.277 1.181a1.53 1.53 0 1 0 1.007 -2.89l-4.453 -1.5a3 3 0 0 0 -3.45 1.172L7.12 15.54" fill="none" stroke="#000000" stroke-linecap="round" stroke-linejoin="round" stroke-width="1"></path><path d="M1 22.25a4.666 4.666 0 0 0 3.75 -1.9 4.649 4.649 0 0 0 7.5 0 4.649 4.649 0 0 0 7.5 0 4.666 4.666 0 0 0 3.75 1.9" fill="none" stroke="#000000" stroke-linecap="round" stroke-linejoin="round" stroke-width="1"></path></svg>