<svg viewBox="0 0 24 24" xmlns="http://www.w3.org/2000/svg" id="Canoe--Streamline-Ultimate"><desc>Canoe Streamline Icon: https://streamlinehq.com</desc><path d="M16.126 7.876c5.186 5.186 6.674 12.424 7.029 14.678a0.5 0.5 0 0 1 -0.6 0.6c-2.255 -0.354 -9.493 -1.842 -14.679 -7.028S1.2 3.7 0.847 1.449A0.534 0.534 0 0 1 0.981 0.98a0.538 0.538 0 0 1 0.468 -0.133C3.7 1.2 10.941 2.691 16.126 7.876Z" fill="none" stroke="#000000" stroke-linecap="round" stroke-linejoin="round" stroke-width="1"></path><path d="M15 11.573A2.424 2.424 0 0 1 11.571 15L9 12.43A2.424 2.424 0 0 1 12.428 9Z" fill="none" stroke="#000000" stroke-linecap="round" stroke-linejoin="round" stroke-width="1"></path><path d="m7.876 16.126 -2.133 2.131" fill="none" stroke="#000000" stroke-linecap="round" stroke-linejoin="round" stroke-width="1"></path><path d="M5.107 17.622a0.75 0.75 0 0 0 -0.933 -0.1L1.1 19.746a0.749 0.749 0 0 0 -0.13 1.163l2.121 2.121a0.751 0.751 0 0 0 1.163 -0.13l2.226 -3.074a0.75 0.75 0 0 0 -0.1 -0.933Z" fill="none" stroke="#000000" stroke-linecap="round" stroke-linejoin="round" stroke-width="1"></path><path d="m16.124 7.874 2.133 -2.131" fill="none" stroke="#000000" stroke-linecap="round" stroke-linejoin="round" stroke-width="1"></path><path d="M18.893 6.378a0.75 0.75 0 0 0 0.933 0.1L22.9 4.254a0.751 0.751 0 0 0 0.127 -1.163L20.909 0.97a0.749 0.749 0 0 0 -1.163 0.127L17.52 4.174a0.75 0.75 0 0 0 0.1 0.933Z" fill="none" stroke="#000000" stroke-linecap="round" stroke-linejoin="round" stroke-width="1"></path></svg>