<svg viewBox="0 0 24 24" xmlns="http://www.w3.org/2000/svg" id="Bin-Paper-2--Streamline-Ultimate"><desc>Bin Paper 2 Streamline Icon: https://streamlinehq.com</desc><path d="M17.38 23.25H6.62a1.5 1.5 0 0 1 -1.494 -1.365L3.75 6.75h16.5l-1.376 15.135a1.5 1.5 0 0 1 -1.494 1.365Z" fill="none" stroke="#000000" stroke-linecap="round" stroke-linejoin="round" stroke-width="1"></path><path d="m4.5 15 8.25 -8.25" fill="none" stroke="#000000" stroke-linecap="round" stroke-linejoin="round" stroke-width="1"></path><path d="M11.25 23.25 19.5 15" fill="none" stroke="#000000" stroke-linecap="round" stroke-linejoin="round" stroke-width="1"></path><path d="M5.12 21.879 20.25 6.75" fill="none" stroke="#000000" stroke-linecap="round" stroke-linejoin="round" stroke-width="1"></path><path d="m19.5 15 -8.25 -8.25" fill="none" stroke="#000000" stroke-linecap="round" stroke-linejoin="round" stroke-width="1"></path><path d="M12.75 23.25 4.5 15" fill="none" stroke="#000000" stroke-linecap="round" stroke-linejoin="round" stroke-width="1"></path><path d="M18.88 21.879 3.75 6.75" fill="none" stroke="#000000" stroke-linecap="round" stroke-linejoin="round" stroke-width="1"></path><path d="M19.1 3.75a3 3 0 0 0 -4.267 -0.993 3 3 0 0 0 -5.662 0A3 3 0 0 0 4.9 3.75" fill="none" stroke="#000000" stroke-linecap="round" stroke-linejoin="round" stroke-width="1"></path><path d="m2.25 6.75 19.5 0" fill="none" stroke="#000000" stroke-linecap="round" stroke-linejoin="round" stroke-width="1"></path></svg>