<svg xmlns="http://www.w3.org/2000/svg" viewBox="0 0 24 24" id="Delete-Trash-Undo-2--Streamline-Ultimate"><desc>Delete Trash Undo 2 Streamline Icon: https://streamlinehq.com</desc><defs></defs><title>delete-trash-undo-2</title><path d="m1.014 6.368 20.541 -4.366" fill="none" stroke="#000000" stroke-linecap="round" stroke-linejoin="round" stroke-width="1"></path><path d="m12.863 0.783 -4.4 0.935A1.5 1.5 0 0 0 7.3 3.494V3.5l0.312 1.468 7.336 -1.56 -0.312 -1.467A1.5 1.5 0 0 0 12.863 0.783Z" fill="none" stroke="#000000" stroke-linecap="round" stroke-linejoin="round" stroke-width="1"></path><path d="M14.92 23.25H6.894A1.5 1.5 0 0 1 5.4 21.874L4.363 9.377" fill="none" stroke="#000000" stroke-linecap="round" stroke-linejoin="round" stroke-width="1"></path><path d="M17.889 6h2.625l-0.665 7.612" fill="none" stroke="#000000" stroke-linecap="round" stroke-linejoin="round" stroke-width="1"></path><path d="M11.752 16.7h8.208a3.027 3.027 0 0 1 0 6.053h-0.718" fill="none" stroke="#000000" stroke-linecap="round" stroke-linejoin="round" stroke-width="1"></path><path d="m15.535 13.24 -3.783 3.457 3.783 3.457" fill="none" stroke="#000000" stroke-linecap="round" stroke-linejoin="round" stroke-width="1"></path></svg>