<svg xmlns="http://www.w3.org/2000/svg" fill="none" viewBox="0 0 24 24" id="Skull-2--Streamline-Ultimate"><desc>Skull 2 Streamline Icon: https://streamlinehq.com</desc><path stroke="#000000" stroke-linecap="round" stroke-linejoin="round" d="M18.75 10.5c-0.0001 -1.16613 -0.3023 -2.31235 -0.8771 -3.32695 -0.5749 -1.0146 -1.4028 -1.86296 -2.4031 -2.46241 -1.0002 -0.59945 -2.1387 -0.92954 -3.3045 -0.9581 -1.1658 -0.02855 -2.31909 0.2454 -3.34751 0.79516 -1.02841 0.54976 -1.89685 1.35657 -2.52069 2.34181 -0.62384 0.98524 -0.9818 2.11529 -1.03898 3.27999 -0.05718 1.1648 0.18836 2.3244 0.71269 3.366 0.52434 1.0417 1.30957 1.9297 2.27919 2.5775v2.637c0 0.3978 0.15804 0.7794 0.43934 1.0607 0.28131 0.2813 0.66284 0.4393 1.06066 0.4393h4.5c0.3978 0 0.7794 -0.158 1.0607 -0.4393s0.4393 -0.6629 0.4393 -1.0607v-2.637c0.9235 -0.6163 1.6805 -1.4511 2.2039 -2.4303 0.5233 -0.9792 0.7968 -2.0724 0.7961 -3.1827v0Z" stroke-width="1"></path><path stroke="#000000" d="M9 10.875c-0.20711 0 -0.375 -0.1679 -0.375 -0.375s0.16789 -0.375 0.375 -0.375" stroke-width="1"></path><path stroke="#000000" d="M9 10.875c0.20711 0 0.375 -0.1679 0.375 -0.375s-0.16789 -0.375 -0.375 -0.375" stroke-width="1"></path><path stroke="#000000" d="M15 10.875c-0.2071 0 -0.375 -0.1679 -0.375 -0.375s0.1679 -0.375 0.375 -0.375" stroke-width="1"></path><path stroke="#000000" d="M15 10.875c0.2071 0 0.375 -0.1679 0.375 -0.375s-0.1679 -0.375 -0.375 -0.375" stroke-width="1"></path><path stroke="#000000" stroke-linecap="round" stroke-linejoin="round" d="M3 5.25c1.24264 0 2.25 -1.00736 2.25 -2.25S4.24264 0.75 3 0.75 0.75 1.75736 0.75 3 1.75736 5.25 3 5.25Z" stroke-width="1"></path><path stroke="#000000" stroke-linecap="round" stroke-linejoin="round" d="M21 5.25c1.2426 0 2.25 -1.00736 2.25 -2.25S22.2426 0.75 21 0.75 18.75 1.75736 18.75 3 19.7574 5.25 21 5.25Z" stroke-width="1"></path><path stroke="#000000" stroke-linecap="round" stroke-linejoin="round" d="M3 23.25c1.24264 0 2.25 -1.0074 2.25 -2.25S4.24264 18.75 3 18.75 0.75 19.7574 0.75 21 1.75736 23.25 3 23.25Z" stroke-width="1"></path><path stroke="#000000" stroke-linecap="round" stroke-linejoin="round" d="M21 23.25c1.2426 0 2.25 -1.0074 2.25 -2.25s-1.0074 -2.25 -2.25 -2.25 -2.25 1.0074 -2.25 2.25 1.0074 2.25 2.25 2.25Z" stroke-width="1"></path><path stroke="#000000" stroke-linecap="round" stroke-linejoin="round" d="m8.03706 15.962 -3.446 3.447" stroke-width="1"></path><path stroke="#000000" stroke-linecap="round" stroke-linejoin="round" d="m19.4111 4.589 -1.947 1.947" stroke-width="1"></path><path stroke="#000000" stroke-linecap="round" stroke-linejoin="round" d="m15.9629 15.963 3.446 3.446" stroke-width="1"></path><path stroke="#000000" stroke-linecap="round" stroke-linejoin="round" d="m4.59009 4.589 1.947 1.947" stroke-width="1"></path></svg>