<svg viewBox="0 0 24 24" xmlns="http://www.w3.org/2000/svg" id="Stumble-Upon-Logo-1--Streamline-Ultimate"><desc>Stumble Upon Logo 1 Streamline Icon: https://streamlinehq.com</desc><path d="M5.75 20.5a5 5 0 0 1 -5 -5v-3H4.5v3a1.25 1.25 0 1 0 2.5 0v-7a5 5 0 0 1 10 0v1L15 11l-1.75 -1.5v-1a1.25 1.25 0 0 0 -2.5 0v7a5 5 0 0 1 -5 5Z" fill="none" stroke="#000000" stroke-linecap="round" stroke-linejoin="round" stroke-width="1"></path><path d="M18.25 20.5a5 5 0 0 1 -5 -5v-2.75l1.75 1.5 2 -1.5v2.73a1.25 1.25 0 0 0 2.5 0v-3h3.75v3a5 5 0 0 1 -5 5.02Z" fill="none" stroke="#000000" stroke-linecap="round" stroke-linejoin="round" stroke-width="1"></path></svg>