<svg viewBox="0 0 24 24" xmlns="http://www.w3.org/2000/svg" id="Zootool-Logo--Streamline-Ultimate"><desc>Zootool Logo Streamline Icon: https://streamlinehq.com</desc><path d="M4.17 18.53h0.69c7.15 0 7 4.12 11.91 4.7 2.65 0.31 3.72 -3.14 3.28 -5.22 -3.95 3.82 -6.51 -3 -10.93 -2.29 0 -1.6 10.05 -11.36 10.16 -12.34l0.22 -1.91c0.05 -0.44 -0.41 -0.34 -0.41 -0.34h0a28.54 28.54 0 0 1 -6.48 0.52 8.5 8.5 0 0 1 -3.8 -0.82 0.51 0.51 0 0 0 -0.61 0 5.54 5.54 0 0 0 -1.35 2.82 1.73 1.73 0 0 0 0.06 0.88c0.56 1.41 4.47 0.89 6 0.59L4.09 15.49h0c-0.31 0.37 -0.34 2.98 0.08 3.04Z" fill="none" stroke="#000000" stroke-linecap="round" stroke-linejoin="round" stroke-width="1"></path></svg>