<svg xmlns="http://www.w3.org/2000/svg" viewBox="0 0 24 24" id="Forensic-Science--Streamline-Ultimate"><desc>Forensic Science Streamline Icon: https://streamlinehq.com</desc><defs></defs><path d="M0.75 10.25a9.5 9.5 0 1 0 19 0 9.5 9.5 0 1 0 -19 0" fill="none" stroke="#000000" stroke-linecap="round" stroke-linejoin="round" stroke-width="1"></path><path d="m17.5 17.5 5.75 5.75" fill="none" stroke="#000000" stroke-linecap="round" stroke-linejoin="round" stroke-width="1"></path><path d="m11.975 4.49 -1.621 1.621C8.939 7.525 10 10 10 10s2.475 1.061 3.889 -0.354l1.621 -1.621" fill="none" stroke="#000000" stroke-linecap="round" stroke-linejoin="round" stroke-width="1"></path><path d="m8.025 15.51 2.121 -2.121C11.061 12.475 10 10 10 10s-2.475 -1.061 -3.889 0.354L4.49 11.975" fill="none" stroke="#000000" stroke-linecap="round" stroke-linejoin="round" stroke-width="1"></path><path d="m11.018 5.447 3.535 3.535" fill="none" stroke="#000000" stroke-linecap="round" stroke-linejoin="round" stroke-width="1"></path><path d="m5.447 11.018 3.535 3.535" fill="none" stroke="#000000" stroke-linecap="round" stroke-linejoin="round" stroke-width="1"></path></svg>