<svg xmlns="http://www.w3.org/2000/svg" viewBox="0 0 24 24" id="Microphone-1--Streamline-Ultimate"><desc>Microphone 1 Streamline Icon: https://streamlinehq.com</desc><g><path d="m16.65 17 -1.75 1.5a1.54 1.54 0 0 1 -0.9 0.3h-4a1.54 1.54 0 0 1 -0.9 -0.3L7.35 17a1.49 1.49 0 0 1 -0.6 -1.2V3.17a1.5 1.5 0 0 1 0.81 -1.35 9.73 9.73 0 0 1 8.88 0 1.5 1.5 0 0 1 0.81 1.35v12.58a1.49 1.49 0 0 1 -0.6 1.25Z" fill="none" stroke="#000000" stroke-linecap="round" stroke-linejoin="round" stroke-width="1"></path><path d="m6.75 8.25 10.5 0" fill="none" stroke="#000000" stroke-linecap="round" stroke-linejoin="round" stroke-width="1"></path><path d="m6.75 12.25 10.5 0" fill="none" stroke="#000000" stroke-linecap="round" stroke-linejoin="round" stroke-width="1"></path><path d="m9.48 18.66 0.77 4.59 3.5 0 0.77 -4.59" fill="none" stroke="#000000" stroke-linecap="round" stroke-linejoin="round" stroke-width="1"></path><path d="m12 15.25 0 -3" fill="none" stroke="#000000" stroke-linecap="round" stroke-linejoin="round" stroke-width="1"></path></g></svg>