<svg viewBox="0 0 24 24" xmlns="http://www.w3.org/2000/svg" id="Microphone-Podcast--Streamline-Ultimate"><desc>Microphone Podcast Streamline Icon: https://streamlinehq.com</desc><path d="M9.751 13.491A2.462 2.462 0 0 1 7.5 11.038V3.212A2.462 2.462 0 0 1 9.962 0.75h4.076A2.462 2.462 0 0 1 16.5 3.212v7.826a2.462 2.462 0 0 1 -2.25 2.453" fill="none" stroke="#000000" stroke-linecap="round" stroke-linejoin="round" stroke-width="1"></path><path d="m7.5 5.25 3 0" fill="none" stroke="#000000" stroke-linecap="round" stroke-linejoin="round" stroke-width="1"></path><path d="m7.5 8.25 3 0" fill="none" stroke="#000000" stroke-linecap="round" stroke-linejoin="round" stroke-width="1"></path><path d="M9.75 13.5a2.25 2.25 0 1 0 4.5 0 2.25 2.25 0 1 0 -4.5 0Z" fill="none" stroke="#000000" stroke-linecap="round" stroke-linejoin="round" stroke-width="1"></path><path d="m12 15.75 0 3.75" fill="none" stroke="#000000" stroke-linecap="round" stroke-linejoin="round" stroke-width="1"></path><path d="M15.75 23.25a3.75 3.75 0 0 0 -7.5 0Z" fill="none" stroke="#000000" stroke-linecap="round" stroke-linejoin="round" stroke-width="1"></path></svg>