<svg xmlns="http://www.w3.org/2000/svg" viewBox="0 0 24 24" id="Microphone-Sing-Man--Streamline-Ultimate"><desc>Microphone Sing Man Streamline Icon: https://streamlinehq.com</desc><g><g><path d="M9.75 23.25a6.75 6.75 0 0 1 13.5 0" fill="none" stroke="#000000" stroke-linecap="round" stroke-linejoin="round" stroke-width="1"></path><g><path d="M13 8.79a6.85 6.85 0 0 0 7.63 1.52" fill="none" stroke="#000000" stroke-linecap="round" stroke-linejoin="round" stroke-width="1"></path><path d="M12.37 10.87a4.13 4.13 0 1 0 8.26 0 4.13 4.13 0 1 0 -8.26 0" fill="none" stroke="#000000" stroke-linecap="round" stroke-linejoin="round" stroke-width="1"></path></g></g><path d="M9.75 9.38a2.82 2.82 0 0 0 -3 -2.63 2.82 2.82 0 0 0 -3 2.61l0 4.75a2.83 2.83 0 0 0 3 2.64 2.84 2.84 0 0 0 3 -2.62Z" fill="none" stroke="#000000" stroke-linecap="round" stroke-linejoin="round" stroke-width="1"></path><path d="m6.74 3.75 0.01 -3" fill="none" stroke="#000000" stroke-linecap="round" stroke-linejoin="round" stroke-width="1"></path><path d="M0.75 12V9.75a6 6 0 0 1 6 -6h0a6 6 0 0 1 4.45 2" fill="none" stroke="#000000" stroke-linecap="round" stroke-linejoin="round" stroke-width="1"></path></g></svg>