<svg xmlns="http://www.w3.org/2000/svg" fill="none" viewBox="0 0 24 24" id="Startup-Launch-1--Streamline-Ultimate"><desc>Startup Launch 1 Streamline Icon: https://streamlinehq.com</desc><path stroke="#000000" stroke-linecap="round" stroke-linejoin="round" d="M5.87996 22.05c-1.53 1.53 -4.61 0.86 -4.61 0.86s-0.670002 -3.08 0.86 -4.61c1.53 -1.53 2.92 -0.36 3.52 0.23 0.6 0.59 1.77 1.98 0.23 3.52Z" stroke-width="1"></path><path stroke="#000000" stroke-linecap="round" stroke-linejoin="round" d="m19.7899 4.63001 1.3 -1.31" stroke-width="1"></path><path stroke="#000000" stroke-linecap="round" stroke-linejoin="round" d="m10.33 17.33 0.17 2.86c0.0216 0.0916 0.0659 0.1762 0.1288 0.2461 0.0629 0.0699 0.1424 0.1228 0.2312 0.1539 0.083 0.03 0.1726 0.0365 0.2591 0.0189 0.0864 -0.0177 0.1663 -0.0588 0.2309 -0.1189l3.32 -2.77c0.251 -0.2602 0.422 -0.5869 0.4929 -0.9414 0.0709 -0.3545 0.0387 -0.7219 -0.0929 -1.0586l-0.43 -1.08 3.42 -2.07c0.5776 -0.3566 1.0574 -0.8514 1.3961 -1.4397 0.3387 -0.5883 0.5256 -1.25168 0.5439 -1.93028l-0.17 -4.57 -4.57 -0.17c-0.6751 0.01391 -1.3365 0.19356 -1.9259 0.52313 -0.5894 0.32958 -1.0887 0.79897 -1.4541 1.36687L9.58 10.16l-1.1 -0.38998c-0.33599 -0.13162 -0.70252 -0.16485 -1.0567 -0.09578 -0.35419 0.06906 -0.68138 0.23756 -0.9433 0.48576l-2.51 2.9c-0.06412 0.0642 -0.10782 0.1459 -0.12562 0.2349 -0.01779 0.089 -0.00888 0.1812 0.02562 0.2651 0.03237 0.0863 0.08451 0.1638 0.15223 0.2264 0.06773 0.0625 0.14916 0.1082 0.23777 0.1336l3.11 0.45 2.96 2.96Z" stroke-width="1"></path><path stroke="#000000" d="M15.26 9.53497c-0.2071 0 -0.375 -0.16789 -0.375 -0.375 0 -0.2071 0.1679 -0.375 0.375 -0.375" stroke-width="1"></path><path stroke="#000000" d="M15.26 9.53497c0.2071 0 0.375 -0.16789 0.375 -0.375 0 -0.2071 -0.1679 -0.375 -0.375 -0.375" stroke-width="1"></path><path stroke="#000000" stroke-linecap="round" stroke-linejoin="round" d="M22.63 16.94h-1.75c-0.2475 0.0249 -0.4769 0.1411 -0.6433 0.326s-0.2579 0.4252 -0.2567 0.674c-0.0081 0.1942 0.0406 0.3864 0.14 0.5534 0.0995 0.1669 0.2454 0.3013 0.42 0.3866l1.77 0.61c0.1765 0.0839 0.3245 0.2176 0.4258 0.3847 0.1013 0.167 0.1514 0.3601 0.1442 0.5553 0.0013 0.2488 -0.0903 0.4891 -0.2567 0.674 -0.1664 0.1849 -0.3958 0.3011 -0.6433 0.326h-2.1" stroke-width="1"></path><path stroke="#000000" stroke-linecap="round" stroke-linejoin="round" d="M21.38 16.94v-1" stroke-width="1"></path><path stroke="#000000" stroke-linecap="round" stroke-linejoin="round" d="M21.38 22.44v-1" stroke-width="1"></path><g><path stroke="#000000" stroke-linecap="round" stroke-linejoin="round" d="M4.62 1.94H2.86999c-0.25278 0.03254 -0.4836 0.16038 -0.6453 0.35739S1.98262 2.74572 2 3c-0.00808 0.19415 0.04058 0.38645 0.14003 0.55339 0.09945 0.16693 0.24539 0.30128 0.41997 0.38661l1.77 0.61c0.17457 0.08533 0.32051 0.21968 0.41996 0.38662 0.09945 0.16694 0.14811 0.35923 0.14004 0.55338 0.00149 0.24722 -0.08863 0.48622 -0.25299 0.6709 -0.16436 0.18467 -0.3913 0.30191 -0.63701 0.3291H1.87" stroke-width="1"></path><path stroke="#000000" stroke-linecap="round" stroke-linejoin="round" d="M3.37 1.94V0.940002" stroke-width="1"></path><path stroke="#000000" stroke-linecap="round" stroke-linejoin="round" d="M3.37 7.44v-1" stroke-width="1"></path></g></svg>