<svg viewBox="0 0 24 24" xmlns="http://www.w3.org/2000/svg" id="Bandage-Leg--Streamline-Ultimate"><desc>Bandage Leg Streamline Icon: https://streamlinehq.com</desc><path d="M11 14.25H8.75c-3.328 0 -5.425 2.051 -6.292 5.243a3 3 0 0 0 2.913 3.757H20a1.5 1.5 0 0 0 1.5 -1.5V2.25A1.5 1.5 0 0 0 20 0.75h-7.5" fill="none" stroke="#000000" stroke-linecap="round" stroke-linejoin="round" stroke-width="1"></path><path d="M21.5 6.75 7.129 1.275A1.5 1.5 0 0 0 5.2 2.12L3.307 6.857a1.5 1.5 0 0 0 0.836 1.95L21.5 15.75Z" fill="none" stroke="#000000" stroke-linecap="round" stroke-linejoin="round" stroke-width="1"></path><path d="M17.002 16.831 11.75 23.25" fill="none" stroke="#000000" stroke-linecap="round" stroke-linejoin="round" stroke-width="1"></path><path d="m3.411 17.205 9.428 4.714" fill="none" stroke="#000000" stroke-linecap="round" stroke-linejoin="round" stroke-width="1"></path><path d="m11 14.25 3.782 5.294" fill="none" stroke="#000000" stroke-linecap="round" stroke-linejoin="round" stroke-width="1"></path><path d="m18.5 0.75 -1.686 4.215" fill="none" stroke="#000000" stroke-linecap="round" stroke-linejoin="round" stroke-width="1"></path></svg>