<svg xmlns="http://www.w3.org/2000/svg" viewBox="0 0 24 24" id="Bandage-Shoulder--Streamline-Ultimate"><desc>Bandage Shoulder Streamline Icon: https://streamlinehq.com</desc><g><g><path d="M7.37 3.38a2.63 2.63 0 1 0 5.26 0 2.63 2.63 0 1 0 -5.26 0" fill="none" stroke="#000000" stroke-linecap="round" stroke-linejoin="round" stroke-width="1"></path><path d="m10 17.25 0 4.5" fill="none" stroke="#000000" stroke-linecap="round" stroke-linejoin="round" stroke-width="1"></path><path d="M7 17.25v4.5a1.5 1.5 0 0 0 3 0 1.5 1.5 0 0 0 3 0v-9.5A6 6 0 0 0 18.25 15a1.5 1.5 0 0 0 0 -3 3.11 3.11 0 0 1 -3.08 -2 4.48 4.48 0 0 0 -2.31 -2.15" fill="none" stroke="#000000" stroke-linecap="round" stroke-linejoin="round" stroke-width="1"></path><path d="M7.05 7.74A4.5 4.5 0 0 0 4 12v0.75a1.5 1.5 0 0 0 1.5 1.5H7" fill="none" stroke="#000000" stroke-linecap="round" stroke-linejoin="round" stroke-width="1"></path></g><path d="m10 7.5 -3 6.75" fill="none" stroke="#000000" stroke-linecap="round" stroke-linejoin="round" stroke-width="1"></path><path d="M8.33 11.25h0.92a1.5 1.5 0 0 1 0 3H7" fill="none" stroke="#000000" stroke-linecap="round" stroke-linejoin="round" stroke-width="1"></path></g></svg>