<svg viewBox="0 0 24 24" xmlns="http://www.w3.org/2000/svg" id="Stove-Gas--Streamline-Ultimate"><desc>Stove Gas Streamline Icon: https://streamlinehq.com</desc><path d="M11.361 1.125a3.887 3.887 0 0 1 0.394 4.432 1.386 1.386 0 0 1 -1.477 -1.182A3.134 3.134 0 0 0 8.653 7.33a3.546 3.546 0 0 0 3.547 3.545 3.6 3.6 0 0 0 3.544 -3.545 5.9 5.9 0 0 0 -4.383 -6.205Z" fill="none" stroke="#000000" stroke-linecap="round" stroke-linejoin="round" stroke-width="1"></path><path d="M21 22.875v-4.5a1.5 1.5 0 0 0 -1.5 -1.5h-15a1.5 1.5 0 0 0 -1.5 1.5v4.5" fill="none" stroke="#000000" stroke-linecap="round" stroke-linejoin="round" stroke-width="1"></path><path d="M15 21.375a1.5 1.5 0 1 0 3 0 1.5 1.5 0 1 0 -3 0Z" fill="none" stroke="#000000" stroke-linecap="round" stroke-linejoin="round" stroke-width="1"></path><path d="M6 21.375a1.5 1.5 0 1 0 3 0 1.5 1.5 0 1 0 -3 0Z" fill="none" stroke="#000000" stroke-linecap="round" stroke-linejoin="round" stroke-width="1"></path><path d="m12 13.875 0 3" fill="none" stroke="#000000" stroke-linecap="round" stroke-linejoin="round" stroke-width="1"></path><path d="M15 13.875a1.5 1.5 0 0 1 1.5 1.5v1.5" fill="none" stroke="#000000" stroke-linecap="round" stroke-linejoin="round" stroke-width="1"></path><path d="M9 13.875a1.5 1.5 0 0 0 -1.5 1.5v1.5" fill="none" stroke="#000000" stroke-linecap="round" stroke-linejoin="round" stroke-width="1"></path></svg>