<svg viewBox="0 0 24 24" xmlns="http://www.w3.org/2000/svg" id="Email-Action-Sync-1--Streamline-Ultimate"><desc>Email Action Sync 1 Streamline Icon: https://streamlinehq.com</desc><path d="m15 18.75 -3.75 0 0 3.75" fill="none" stroke="#000000" stroke-linecap="round" stroke-linejoin="round" stroke-width="1"></path><path d="M22.667 19.483a5.572 5.572 0 0 1 -10.74 -0.733" fill="none" stroke="#000000" stroke-linecap="round" stroke-linejoin="round" stroke-width="1"></path><path d="m19.5 15.75 3.75 0 0 -3.75" fill="none" stroke="#000000" stroke-linecap="round" stroke-linejoin="round" stroke-width="1"></path><path d="M11.833 15.017a5.572 5.572 0 0 1 10.74 0.733" fill="none" stroke="#000000" stroke-linecap="round" stroke-linejoin="round" stroke-width="1"></path><path d="M8.25 15.75h-6a1.5 1.5 0 0 1 -1.5 -1.5v-12a1.5 1.5 0 0 1 1.5 -1.5h18a1.5 1.5 0 0 1 1.5 1.5v6" fill="none" stroke="#000000" stroke-linecap="round" stroke-linejoin="round" stroke-width="1"></path><path d="m21.411 1.3 -8.144 6.264a3.308 3.308 0 0 1 -4.034 0L1.089 1.3" fill="none" stroke="#000000" stroke-linecap="round" stroke-linejoin="round" stroke-width="1"></path></svg>