<svg viewBox="0 0 24 24" xmlns="http://www.w3.org/2000/svg" id="Email-Action-Reply-1--Streamline-Ultimate"><desc>Email Action Reply 1 Streamline Icon: https://streamlinehq.com</desc><path d="M8.25 15.75h-6a1.5 1.5 0 0 1 -1.5 -1.5v-12a1.5 1.5 0 0 1 1.5 -1.5h18a1.5 1.5 0 0 1 1.5 1.5v9" fill="none" stroke="#000000" stroke-linecap="round" stroke-linejoin="round" stroke-width="1"></path><path d="m1.118 1.269 8.111 6.2a3 3 0 0 0 4.042 0l8.109 -6.2" fill="none" stroke="#000000" stroke-linecap="round" stroke-linejoin="round" stroke-width="1"></path><path d="m17.25 12 -6 4.5 6 4.5v-2.25h4.5a1.5 1.5 0 0 0 1.5 -1.5v-1.5a1.5 1.5 0 0 0 -1.5 -1.5h-4.5Z" fill="none" stroke="#000000" stroke-linecap="round" stroke-linejoin="round" stroke-width="1"></path></svg>