<svg xmlns="http://www.w3.org/2000/svg" viewBox="0 0 24 24" id="Email-Action-Image--Streamline-Ultimate"><desc>Email Action Image Streamline Icon: https://streamlinehq.com</desc><g><path d="M6.75 5.25a1.5 1.5 0 1 0 3 0 1.5 1.5 0 1 0 -3 0" fill="none" stroke="#000000" stroke-linecap="round" stroke-linejoin="round" stroke-width="1"></path><path d="m9.5 12.75 2.55 -4.4a1.5 1.5 0 0 1 2.4 0l2.55 4.4Z" fill="none" stroke="#000000" stroke-linecap="round" stroke-linejoin="round" stroke-width="1"></path><g><path d="M20.25 12.75V2.25a1.5 1.5 0 0 0 -1.5 -1.5H5.25a1.5 1.5 0 0 0 -1.5 1.5v10.5" fill="none" stroke="#000000" stroke-linecap="round" stroke-linejoin="round" stroke-width="1"></path><path d="M22 11.46a0.77 0.77 0 0 1 0.8 -0.08 0.73 0.73 0 0 1 0.42 0.67v9.7a1.5 1.5 0 0 1 -1.5 1.5H2.25a1.5 1.5 0 0 1 -1.5 -1.5v-9.7a0.73 0.73 0 0 1 0.42 -0.67 0.77 0.77 0 0 1 0.8 0.08l8.18 5.9a3 3 0 0 0 3.7 0Z" fill="none" stroke="#000000" stroke-linecap="round" stroke-linejoin="round" stroke-width="1"></path></g></g></svg>