<svg viewBox="0 0 24 24" xmlns="http://www.w3.org/2000/svg" id="Email-Action-Search--Streamline-Ultimate"><desc>Email Action Search Streamline Icon: https://streamlinehq.com</desc><path d="M10.5 15.75a5.25 5.25 0 1 0 10.5 0 5.25 5.25 0 1 0 -10.5 0Z" fill="none" stroke="#000000" stroke-linecap="round" stroke-linejoin="round" stroke-width="1"></path><path d="m23.25 23.25 -3.788 -3.788" fill="none" stroke="#000000" stroke-linecap="round" stroke-linejoin="round" stroke-width="1"></path><path d="M7.5 15.75H2.25a1.5 1.5 0 0 1 -1.5 -1.5v-12a1.5 1.5 0 0 1 1.5 -1.5h18a1.5 1.5 0 0 1 1.5 1.5v7.5" fill="none" stroke="#000000" stroke-linecap="round" stroke-linejoin="round" stroke-width="1"></path><path d="m21.411 1.3 -8.144 6.264a3.308 3.308 0 0 1 -4.034 0L1.089 1.3" fill="none" stroke="#000000" stroke-linecap="round" stroke-linejoin="round" stroke-width="1"></path></svg>