<svg viewBox="0 0 24 24" xmlns="http://www.w3.org/2000/svg" id="Email-Action-Settings--Streamline-Ultimate"><desc>Email Action Settings Streamline Icon: https://streamlinehq.com</desc><path d="M15.75 16.5a1.5 1.5 0 1 0 3 0 1.5 1.5 0 1 0 -3 0Z" fill="none" stroke="#000000" stroke-linecap="round" stroke-linejoin="round" stroke-width="1"></path><path d="m18.524 10.7 0.442 1.453a0.994 0.994 0 0 0 1.174 0.681l1.472 -0.341a1.339 1.339 0 0 1 1.275 2.218l-1.031 1.111a1 1 0 0 0 0 1.362l1.031 1.111a1.339 1.339 0 0 1 -1.275 2.218l-1.472 -0.341a0.994 0.994 0 0 0 -1.174 0.681l-0.442 1.447a1.33 1.33 0 0 1 -2.548 0l-0.442 -1.453a0.994 0.994 0 0 0 -1.174 -0.681l-1.472 0.341a1.339 1.339 0 0 1 -1.275 -2.218l1.031 -1.111a1 1 0 0 0 0 -1.362l-1.031 -1.111a1.339 1.339 0 0 1 1.275 -2.218l1.472 0.341a0.994 0.994 0 0 0 1.174 -0.681l0.442 -1.453a1.33 1.33 0 0 1 2.548 0.006Z" fill="none" stroke="#000000" stroke-linecap="round" stroke-linejoin="round" stroke-width="1"></path><path d="M8.25 15.75h-6a1.5 1.5 0 0 1 -1.5 -1.5v-12a1.5 1.5 0 0 1 1.5 -1.5h18a1.5 1.5 0 0 1 1.5 1.5V9" fill="none" stroke="#000000" stroke-linecap="round" stroke-linejoin="round" stroke-width="1"></path><path d="m21.411 1.3 -8.144 6.264a3.308 3.308 0 0 1 -4.034 0L1.089 1.3" fill="none" stroke="#000000" stroke-linecap="round" stroke-linejoin="round" stroke-width="1"></path></svg>