<svg viewBox="0 0 24 24" xmlns="http://www.w3.org/2000/svg" id="Email-Action-Edit--Streamline-Ultimate"><desc>Email Action Edit Streamline Icon: https://streamlinehq.com</desc><path d="M22.63 14.87 15 22.5l-3.75 0.75 0.75 -3.75 7.63 -7.63a2.114 2.114 0 0 1 2.992 0l0.008 0.008a2.114 2.114 0 0 1 0 2.992Z" fill="none" stroke="#000000" stroke-linecap="round" stroke-linejoin="round" stroke-width="1"></path><path d="M11.25 15.75h-9a1.5 1.5 0 0 1 -1.5 -1.5v-12a1.5 1.5 0 0 1 1.5 -1.5h18a1.5 1.5 0 0 1 1.5 1.5v6" fill="none" stroke="#000000" stroke-linecap="round" stroke-linejoin="round" stroke-width="1"></path><path d="m21.411 1.3 -8.144 6.264a3.308 3.308 0 0 1 -4.034 0L1.089 1.3" fill="none" stroke="#000000" stroke-linecap="round" stroke-linejoin="round" stroke-width="1"></path></svg>