<svg xmlns="http://www.w3.org/2000/svg" viewBox="0 0 24 24" id="Junk-Mail-3--Streamline-Ultimate"><desc>Junk Mail 3 Streamline Icon: https://streamlinehq.com</desc><defs></defs><title>junk-mail-3</title><path d="M13.218 23.25h7.065a1.031 1.031 0 0 0 0.9 -1.039L22 12.25H11.5l0.815 9.961a1.031 1.031 0 0 0 0.903 1.039Z" fill="none" stroke="#000000" stroke-linecap="round" stroke-linejoin="round" stroke-width="1"></path><path d="m10.25 12.25 13 0" fill="none" stroke="#000000" stroke-linecap="round" stroke-linejoin="round" stroke-width="1"></path><path d="m16.75 10 0 2.25" fill="none" stroke="#000000" stroke-linecap="round" stroke-linejoin="round" stroke-width="1"></path><path d="m15 15.75 0 4" fill="none" stroke="#000000" stroke-linecap="round" stroke-linejoin="round" stroke-width="1"></path><path d="m18.5 15.75 0 4" fill="none" stroke="#000000" stroke-linecap="round" stroke-linejoin="round" stroke-width="1"></path><path d="M7.25 13.75h-5.5a1 1 0 0 1 -1 -1v-11a1 1 0 0 1 1 -1h16a1 1 0 0 1 1 1v5.5" fill="none" stroke="#000000" stroke-linecap="round" stroke-linejoin="round" stroke-width="1"></path><path d="m1.03 1.056 7.4 6.526a2 2 0 0 0 2.646 0l7.4 -6.526" fill="none" stroke="#000000" stroke-linecap="round" stroke-linejoin="round" stroke-width="1"></path></svg>