<svg xmlns="http://www.w3.org/2000/svg" viewBox="0 0 24 24" id="Junk-Mail-1--Streamline-Ultimate"><desc>Junk Mail 1 Streamline Icon: https://streamlinehq.com</desc><defs></defs><title>junk-mail-1</title><path d="M7.35 9.632 5.139 8.253a0.672 0.672 0 0 1 -0.214 -0.925L8.83 1.066a0.672 0.672 0 0 1 0.925 -0.214l9.109 5.68a0.671 0.671 0 0 1 0.214 0.924l-2.485 3.986" fill="none" stroke="#000000" stroke-linecap="round" stroke-linejoin="round" stroke-width="1"></path><path d="m9.236 0.77 1.894 6.342a1.343 1.343 0 0 0 1.507 0.94l6.528 -1.09" fill="none" stroke="#000000" stroke-linecap="round" stroke-linejoin="round" stroke-width="1"></path><path d="M18.5 23.25h-13a1 1 0 0 1 -1 -1v-9a1 1 0 0 1 1 -1h2.9a1 1 0 0 1 0.832 0.445l0.953 1.555H18.5a1 1 0 0 1 1 1v7a1 1 0 0 1 -1 1Z" fill="none" stroke="#000000" stroke-linecap="round" stroke-linejoin="round" stroke-width="1"></path><path d="m10.5 17.5 3 3" fill="none" stroke="#000000" stroke-linecap="round" stroke-linejoin="round" stroke-width="1"></path><path d="m13.5 17.5 -3 3" fill="none" stroke="#000000" stroke-linecap="round" stroke-linejoin="round" stroke-width="1"></path></svg>