<svg xmlns="http://www.w3.org/2000/svg" viewBox="0 0 24 24" id="Junk-Mail-4--Streamline-Ultimate"><desc>Junk Mail 4 Streamline Icon: https://streamlinehq.com</desc><defs></defs><title>junk-mail-4</title><path d="M9.133 23.25H16.7a1.032 1.032 0 0 0 0.9 -1.039l0.814 -8.961h-11l0.815 8.961a1.032 1.032 0 0 0 0.904 1.039Z" fill="none" stroke="#000000" stroke-linecap="round" stroke-linejoin="round" stroke-width="1"></path><path d="m11.415 16.25 0 3.5" fill="none" stroke="#000000" stroke-linecap="round" stroke-linejoin="round" stroke-width="1"></path><path d="m14.415 16.25 0 3.5" fill="none" stroke="#000000" stroke-linecap="round" stroke-linejoin="round" stroke-width="1"></path><path d="M7.349 9.632 5.138 8.253a0.669 0.669 0 0 1 -0.214 -0.924l3.905 -6.263a0.671 0.671 0 0 1 0.924 -0.214l9.109 5.68a0.67 0.67 0 0 1 0.214 0.925l-1.664 2.669" fill="none" stroke="#000000" stroke-linecap="round" stroke-linejoin="round" stroke-width="1"></path><path d="m9.235 0.77 1.894 6.342a1.342 1.342 0 0 0 1.506 0.94l6.528 -1.09" fill="none" stroke="#000000" stroke-linecap="round" stroke-linejoin="round" stroke-width="1"></path></svg>