<svg xmlns="http://www.w3.org/2000/svg" viewBox="0 0 24 24" id="Junk-Mail-2--Streamline-Ultimate"><desc>Junk Mail 2 Streamline Icon: https://streamlinehq.com</desc><defs></defs><title>junk-mail-2</title><path d="M6.751 13.753h-5a1 1 0 0 1 -1 -1v-11a1 1 0 0 1 1 -1h16a1 1 0 0 1 1 1v5.5" fill="none" stroke="#000000" stroke-linecap="round" stroke-linejoin="round" stroke-width="1"></path><path d="m1.031 1.059 7.4 6.526a2 2 0 0 0 2.646 0l7.4 -6.526" fill="none" stroke="#000000" stroke-linecap="round" stroke-linejoin="round" stroke-width="1"></path><path d="m15.126 16.003 3.25 3.25" fill="none" stroke="#000000" stroke-linecap="round" stroke-linejoin="round" stroke-width="1"></path><path d="m18.376 16.003 -3.25 3.25" fill="none" stroke="#000000" stroke-linecap="round" stroke-linejoin="round" stroke-width="1"></path><path d="M13.217 23.247h7.065a1.03 1.03 0 0 0 0.9 -1.039L22 12.25H11.5l0.815 9.958a1.031 1.031 0 0 0 0.902 1.039Z" fill="none" stroke="#000000" stroke-linecap="round" stroke-linejoin="round" stroke-width="1"></path><path d="m10.249 12.25 13 0" fill="none" stroke="#000000" stroke-linecap="round" stroke-linejoin="round" stroke-width="1"></path><path d="m16.749 10.001 0 2.249" fill="none" stroke="#000000" stroke-linecap="round" stroke-linejoin="round" stroke-width="1"></path></svg>