<svg viewBox="0 0 24 24" xmlns="http://www.w3.org/2000/svg" id="Perspective-Grid--Streamline-Ultimate"><desc>Perspective Grid Streamline Icon: https://streamlinehq.com</desc><path d="m0.75 0.75 22.5 0 0 22.5 -22.5 0Z" fill="none" stroke="#000000" stroke-linecap="round" stroke-linejoin="round" stroke-width="1"></path><path d="m0.75 10.532 2.1 -1.94a7.906 7.906 0 0 1 9.285 -1.055 7.906 7.906 0 0 0 9.515 -1.274l1.6 -1.6" fill="none" stroke="#000000" stroke-linecap="round" stroke-linejoin="round" stroke-width="1"></path><path d="m0.75 18.358 2.1 -1.941a7.907 7.907 0 0 1 9.285 -1.054 7.906 7.906 0 0 0 9.512 -1.274l1.6 -1.6" fill="none" stroke="#000000" stroke-linecap="round" stroke-linejoin="round" stroke-width="1"></path><path d="M3.808 0.751A15.609 15.609 0 0 1 8.576 12a15.607 15.607 0 0 1 -4.77 11.25" fill="none" stroke="#000000" stroke-linecap="round" stroke-linejoin="round" stroke-width="1"></path><path d="M12.612 0.751a15.653 15.653 0 0 1 0 22.5" fill="none" stroke="#000000" stroke-linecap="round" stroke-linejoin="round" stroke-width="1"></path></svg>