<svg xmlns="http://www.w3.org/2000/svg" viewBox="0 0 24 24" id="Airtable-Logo--Streamline-Ultimate"><desc>Airtable Logo Streamline Icon: https://streamlinehq.com</desc><g><path d="M22 6.7a0.35 0.35 0 0 0 0 -0.7l-9.53 -3.7a1.27 1.27 0 0 0 -0.94 0L2 6a0.35 0.35 0 0 0 0 0.7l9.57 3.74a1.27 1.27 0 0 0 0.94 0Z" fill="none" stroke="#000000" stroke-linecap="round" stroke-linejoin="round" stroke-width="1"></path><path d="M0.75 17.36a0.26 0.26 0 0 0 0.11 0.21 0.25 0.25 0 0 0 0.24 0l9.16 -4.24a0.24 0.24 0 0 0 0.14 -0.23 0.24 0.24 0 0 0 -0.16 -0.22L1.08 9.31a0.22 0.22 0 0 0 -0.22 0 0.23 0.23 0 0 0 -0.11 0.2Z" fill="none" stroke="#000000" stroke-linecap="round" stroke-linejoin="round" stroke-width="1"></path><path d="M13.22 21.54a0.23 0.23 0 0 0 0.11 0.2 0.24 0.24 0 0 0 0.23 0l9.07 -3.54a1 1 0 0 0 0.62 -0.91V9.54a0.23 0.23 0 0 0 -0.11 -0.2 0.22 0.22 0 0 0 -0.22 0l-9.07 3.54a1 1 0 0 0 -0.63 0.91Z" fill="none" stroke="#000000" stroke-linecap="round" stroke-linejoin="round" stroke-width="1"></path></g></svg>