<svg xmlns="http://www.w3.org/2000/svg" viewBox="0 0 24 24" id="Google-Slides-Logo--Streamline-Ultimate"><desc>Google Slides Logo Streamline Icon: https://streamlinehq.com</desc><g><path d="M21.29 21.29a2 2 0 0 1 -1.95 2H4.66a2 2 0 0 1 -1.95 -2V2.71a2 2 0 0 1 2 -2h10.22l6.36 6.36Z" fill="none" stroke="#000000" stroke-linecap="round" stroke-linejoin="round" stroke-width="1"></path><path d="M21.29 7.11h-4.4a2 2 0 0 1 -2 -2V0.75Z" fill="none" stroke="#000000" stroke-linecap="round" stroke-linejoin="round" stroke-width="1"></path><g><path d="M7.38 10.53h9.24s1 0 1 1v7.29s0 1 -1 1H7.38s-1 0 -1 -1v-7.29s0 -1 1 -1" fill="none" stroke="#000000" stroke-linecap="round" stroke-linejoin="round" stroke-width="1"></path><path d="M6.38 13.5h11.24V17H6.38Z" fill="none" stroke="#000000" stroke-linecap="round" stroke-linejoin="round" stroke-width="1"></path></g></g></svg>