<svg xmlns="http://www.w3.org/2000/svg" viewBox="0 0 24 24" id="Google-Keep-Logo-1--Streamline-Ultimate"><desc>Google Keep Logo 1 Streamline Icon: https://streamlinehq.com</desc><g><path d="M21.25 21.25a2 2 0 0 1 -2 2H4.75a2 2 0 0 1 -2 -2V2.75a2 2 0 0 1 2 -2h10l6.5 6.5Z" fill="none" stroke="#000000" stroke-linecap="round" stroke-linejoin="round" stroke-width="1"></path><path d="M21.25 7.25h-4.5a2 2 0 0 1 -2 -2V0.75Z" fill="none" stroke="#000000" stroke-linecap="round" stroke-linejoin="round" stroke-width="1"></path><path d="M12 10a4 4 0 0 0 -1.9 7.5h3.8A4 4 0 0 0 12 10Z" fill="none" stroke="#000000" stroke-linecap="round" stroke-linejoin="round" stroke-width="1"></path><path d="m10 20 4 0" fill="none" stroke="#000000" stroke-linecap="round" stroke-linejoin="round" stroke-width="1"></path></g></svg>