<svg xmlns="http://www.w3.org/2000/svg" viewBox="0 0 24 24" id="Houdini-Logo--Streamline-Ultimate"><desc>Houdini Logo Streamline Icon: https://streamlinehq.com</desc><g><path d="M0.75 6.51a12.54 12.54 0 0 1 7.63 -2.26c9.65 0 11.37 8.12 11.37 10.3a10.83 10.83 0 0 1 -4.39 8.7h7.89V0.75H0.75Z" fill="none" stroke="#000000" stroke-linecap="round" stroke-linejoin="round" stroke-width="1"></path><path d="M0.75 18.9v4.35h4.57A10.47 10.47 0 0 1 0.75 18.9Z" fill="none" stroke="#000000" stroke-linecap="round" stroke-linejoin="round" stroke-width="1"></path><path d="M8.28 6.88A11.5 11.5 0 0 0 0.75 9.56v3.83a8.87 8.87 0 0 1 7.7 -4.2A5.23 5.23 0 0 1 13 17.31a4.39 4.39 0 0 1 -7 0.4c-1.32 -2 1.24 -4.38 1.62 -2.5s1.66 1.63 2.85 0.47 0.9 -3.78 -2.12 -3.78 -5.11 2 -5.11 4.39 1.62 5.46 6.71 5.46 6.33 -4.39 6.33 -7.09 -1.43 -7.78 -8 -7.78Z" fill="none" stroke="#000000" stroke-linecap="round" stroke-linejoin="round" stroke-width="1"></path></g></svg>