<svg xmlns="http://www.w3.org/2000/svg" fill="none" viewBox="0 0 24 24" id="Microsoft-Visio-Logo--Streamline-Ultimate"><desc>Microsoft Visio Logo Streamline Icon: https://streamlinehq.com</desc><path stroke="#000000" stroke-linecap="round" stroke-linejoin="round" d="M18.1658 6.5H22.25c0.2652 0 0.5196 0.10536 0.7071 0.29289 0.1875 0.18754 0.2929 0.44189 0.2929 0.70711v9c0 0.2652 -0.1054 0.5196 -0.2929 0.7071s-0.4419 0.2929 -0.7071 0.2929h-4.0211" stroke-width="1"></path><path stroke="#000000" stroke-linecap="round" stroke-linejoin="round" d="m7.94391 6.00184 4.21139 -4.21139c0.3905 -0.39052 1.0237 -0.39052 1.4142 0l4.3911 4.39114c0.3906 0.39052 0.3906 1.02368 0 1.41421l-4.3911 4.3911c-0.2198 0.2199 -0.5165 0.3159 -0.8036 0.2883" stroke-width="1"></path><path stroke="#000000" stroke-linecap="round" stroke-linejoin="round" d="M13.9283 11.6265c2.4713 0.5394 4.3217 2.7403 4.3217 5.3734 0 3.0376 -2.4625 5.5 -5.5 5.5 -2.6993 0 -4.94443 -1.9445 -5.41101 -4.5091" stroke-width="1"></path><path stroke="#000000" stroke-linecap="round" stroke-linejoin="round" d="M11.75 6h-10c-0.55228 0 -1 0.44772 -1 1v10c0 0.5523 0.44772 1 1 1h10c0.5523 0 1 -0.4477 1 -1V7c0 -0.55228 -0.4477 -1 -1 -1Z" stroke-width="1"></path><path stroke="#000000" stroke-linecap="round" stroke-linejoin="round" d="M9.25 9 7 15h-0.5L4.25 9" stroke-width="1"></path></svg>