<svg xmlns="http://www.w3.org/2000/svg" viewBox="0 0 24 24" id="Microsoft-Excel-Logo--Streamline-Ultimate"><desc>Microsoft Excel Logo Streamline Icon: https://streamlinehq.com</desc><g><path d="m15.12 12 8.13 0" fill="none" stroke="#000000" stroke-linecap="round" stroke-linejoin="round" stroke-width="1"></path><path d="m15.12 7 8.13 0" fill="none" stroke="#000000" stroke-linecap="round" stroke-linejoin="round" stroke-width="1"></path><path d="m4 9 5 6" fill="none" stroke="#000000" stroke-linecap="round" stroke-linejoin="round" stroke-width="1"></path><path d="m9 9 -5 6" fill="none" stroke="#000000" stroke-linecap="round" stroke-linejoin="round" stroke-width="1"></path><path d="m15.13 2.25 0 14.75 8.12 0" fill="none" stroke="#000000" stroke-linecap="round" stroke-linejoin="round" stroke-width="1"></path><path d="M7 18v3a1 1 0 0 0 1 1h14.25a1 1 0 0 0 1 -1V3a1 1 0 0 0 -1 -1H8a1 1 0 0 0 -1 1v3" fill="none" stroke="#000000" stroke-linecap="round" stroke-linejoin="round" stroke-width="1"></path><path d="M1.75 6h10s1 0 1 1v10s0 1 -1 1h-10s-1 0 -1 -1V7s0 -1 1 -1" fill="none" stroke="#000000" stroke-linecap="round" stroke-linejoin="round" stroke-width="1"></path></g></svg>