<svg xmlns="http://www.w3.org/2000/svg" viewBox="0 0 24 24" id="Microsoft-Outlook-Logo--Streamline-Ultimate"><desc>Microsoft Outlook Logo Streamline Icon: https://streamlinehq.com</desc><g><path d="M22.25 12.84V2.75a1 1 0 0 0 -1 -1H8.75a1 1 0 0 0 -1 1v3.5" fill="none" stroke="#000000" stroke-linecap="round" stroke-linejoin="round" stroke-width="1"></path><path d="M6.75 18.25v3a1 1 0 0 0 1 1h14.5a1 1 0 0 0 1 -1v-9" fill="none" stroke="#000000" stroke-linecap="round" stroke-linejoin="round" stroke-width="1"></path><path d="M1.75 6.25h10s1 0 1 1v10s0 1 -1 1h-10s-1 0 -1 -1v-10s0 -1 1 -1" fill="none" stroke="#000000" stroke-linecap="round" stroke-linejoin="round" stroke-width="1"></path><path d="M4.25 12.25a2.5 3 0 1 0 5 0 2.5 3 0 1 0 -5 0" fill="none" stroke="#000000" stroke-linecap="round" stroke-linejoin="round" stroke-width="1"></path><path d="m22.87 22.03 -10.12 -6.25" fill="none" stroke="#000000" stroke-linecap="round" stroke-linejoin="round" stroke-width="1"></path><path d="m15.25 17.25 8 -5" fill="none" stroke="#000000" stroke-linecap="round" stroke-linejoin="round" stroke-width="1"></path><path d="m22.25 12.25 -7 0" fill="none" stroke="#000000" stroke-linecap="round" stroke-linejoin="round" stroke-width="1"></path><path d="m22.25 7.25 -7 0" fill="none" stroke="#000000" stroke-linecap="round" stroke-linejoin="round" stroke-width="1"></path><path d="m17.42 1.83 0 10.42" fill="none" stroke="#000000" stroke-linecap="round" stroke-linejoin="round" stroke-width="1"></path><path d="m12.58 1.83 0 2.39" fill="none" stroke="#000000" stroke-linecap="round" stroke-linejoin="round" stroke-width="1"></path></g></svg>