<svg xmlns="http://www.w3.org/2000/svg" viewBox="0 0 24 24" id="Notion-Logo-1--Streamline-Ultimate"><desc>Notion Logo 1 Streamline Icon: https://streamlinehq.com</desc><g><path d="M2.75 0.75h18.5s2 0 2 2v18.5s0 2 -2 2H2.75s-2 0 -2 -2V2.75s0 -2 2 -2" fill="none" stroke="#000000" stroke-linecap="round" stroke-linejoin="round" stroke-width="1"></path><path d="M20 4h-4a0.89 0.89 0 0 0 -0.89 0.89v0.89h1.33v9.78L8 4H5.33A1.34 1.34 0 0 0 4 5.33v0.45h1.33v12.44h-0.44a0.89 0.89 0 0 0 -0.89 0.89V20h4a0.89 0.89 0 0 0 0.89 -0.89v-0.89H7.56V8.44l7.65 10.48A2.64 2.64 0 0 0 17.33 20h1.34V5.78h0.44a0.89 0.89 0 0 0 0.89 -0.89Z" fill="none" stroke="#000000" stroke-linecap="round" stroke-linejoin="round" stroke-width="1"></path></g></svg>