<svg viewBox="0 0 24 24" xmlns="http://www.w3.org/2000/svg" id="Historical-Building-Tower--Streamline-Ultimate"><desc>Historical Building Tower Streamline Icon: https://streamlinehq.com</desc><path d="M19.5 0.75a0.75 0.75 0 0 1 0.75 0.75v6a0.75 0.75 0 0 1 -0.75 0.75h-15a0.75 0.75 0 0 1 -0.75 -0.75v-6A0.75 0.75 0 0 1 4.5 0.75h2.25a0.75 0.75 0 0 1 0.75 0.75v0.75a1.5 1.5 0 0 0 3 0V1.5a0.75 0.75 0 0 1 0.75 -0.75h1.5a0.75 0.75 0 0 1 0.75 0.75v0.75a1.5 1.5 0 0 0 3 0V1.5a0.75 0.75 0 0 1 0.75 -0.75Z" fill="none" stroke="#000000" stroke-linecap="round" stroke-linejoin="round" stroke-width="1"></path><path d="m5.25 8.25 -1.5 15 16.5 0 -1.5 -15 -13.5 0z" fill="none" stroke="#000000" stroke-linecap="round" stroke-linejoin="round" stroke-width="1"></path><path d="M14.25 23.25h-4.5V18a2.25 2.25 0 0 1 4.5 0Z" fill="none" stroke="#000000" stroke-linecap="round" stroke-linejoin="round" stroke-width="1"></path><path d="m0.75 23.25 22.5 0" fill="none" stroke="#000000" stroke-linecap="round" stroke-linejoin="round" stroke-width="1"></path></svg>