<svg viewBox="0 0 24 24" xmlns="http://www.w3.org/2000/svg" id="Agriculture-Machine-Harraw--Streamline-Ultimate"><desc>Agriculture Machine Harraw Streamline Icon: https://streamlinehq.com</desc><path d="m0.75 8.25 22.5 0" fill="none" stroke="#000000" stroke-linecap="round" stroke-linejoin="round" stroke-width="1"></path><path d="m19.5 2.25 -15 6" fill="none" stroke="#000000" stroke-linecap="round" stroke-linejoin="round" stroke-width="1"></path><path d="M22.5 8.25h-3v-6a1.5 1.5 0 0 1 3 0Z" fill="none" stroke="#000000" stroke-linecap="round" stroke-linejoin="round" stroke-width="1"></path><path d="m23.25 11.25 -22.5 0" fill="none" stroke="#000000" stroke-linecap="round" stroke-linejoin="round" stroke-width="1"></path><path d="M3 11.25v5.377a7.589 7.589 0 0 0 3.75 6.54s-4.5 0.75 -6 -2.25" fill="none" stroke="#000000" stroke-linecap="round" stroke-linejoin="round" stroke-width="1"></path><path d="M11.25 11.25v5.377a7.589 7.589 0 0 0 3.75 6.54s-4.5 0.75 -6 -2.25" fill="none" stroke="#000000" stroke-linecap="round" stroke-linejoin="round" stroke-width="1"></path><path d="M19.5 11.25v5.377a7.589 7.589 0 0 0 3.75 6.54s-4.5 0.75 -6 -2.25" fill="none" stroke="#000000" stroke-linecap="round" stroke-linejoin="round" stroke-width="1"></path></svg>