<svg viewBox="0 0 24 24" xmlns="http://www.w3.org/2000/svg" id="Agriculture-Machine-Harvester-Storage--Streamline-Ultimate"><desc>Agriculture Machine Harvester Storage Streamline Icon: https://streamlinehq.com</desc><path d="m21.5 6.75 -3 0L17 3.751 17 0.75l6 0 0 3.001 -1.5 2.999z" fill="none" stroke="#000000" stroke-linecap="round" stroke-linejoin="round" stroke-width="1"></path><path d="m20 6.75 0 3" fill="none" stroke="#000000" stroke-linecap="round" stroke-linejoin="round" stroke-width="1"></path><path d="M7.434 3.75a1.931 1.931 0 0 1 1.8 1.226L15.5 21H5.75V5.434A1.684 1.684 0 0 1 7.434 3.75Z" fill="none" stroke="#000000" stroke-linecap="round" stroke-linejoin="round" stroke-width="1"></path><path d="M1.25 21a2.25 2.25 0 1 0 4.5 0 2.25 2.25 0 1 0 -4.5 0Z" fill="none" stroke="#000000" stroke-linecap="round" stroke-linejoin="round" stroke-width="1"></path><path d="m5.75 11.25 11.633 -6.735" fill="none" stroke="#000000" stroke-linecap="round" stroke-linejoin="round" stroke-width="1"></path><path d="M15.3 21.75a1.5 1.5 0 1 0 3 0 1.5 1.5 0 1 0 -3 0Z" fill="none" stroke="#000000" stroke-linecap="round" stroke-linejoin="round" stroke-width="1"></path></svg>