<svg viewBox="0 0 24 24" xmlns="http://www.w3.org/2000/svg" id="Agriculture-Machine-Seeder-3--Streamline-Ultimate"><desc>Agriculture Machine Seeder 3 Streamline Icon: https://streamlinehq.com</desc><path d="m7.681 9 0.569 -4.5" fill="none" stroke="#000000" stroke-linecap="round" stroke-linejoin="round" stroke-width="1"></path><path d="m16.319 9 -0.569 -4.5" fill="none" stroke="#000000" stroke-linecap="round" stroke-linejoin="round" stroke-width="1"></path><path d="M9.25 1.5h5.5a1 1 0 0 1 1 1v2l0 0h-7.5l0 0v-2a1 1 0 0 1 1 -1Z" fill="none" stroke="#000000" stroke-linecap="round" stroke-linejoin="round" stroke-width="1"></path><path d="m2.25 12 0.566 3.962A1.5 1.5 0 0 0 4.3 17.25h0.4a1.5 1.5 0 0 0 1.485 -1.288L6.75 12Z" fill="none" stroke="#000000" stroke-linecap="round" stroke-linejoin="round" stroke-width="1"></path><path d="m2.25 20.25 19.5 0" fill="none" stroke="#000000" stroke-linecap="round" stroke-linejoin="round" stroke-width="1"></path><path d="m4.5 17.25 0 5.25" fill="none" stroke="#000000" stroke-linecap="round" stroke-linejoin="round" stroke-width="1"></path><path d="m9.75 12 0.566 3.962A1.5 1.5 0 0 0 11.8 17.25h0.4a1.5 1.5 0 0 0 1.485 -1.288L14.25 12Z" fill="none" stroke="#000000" stroke-linecap="round" stroke-linejoin="round" stroke-width="1"></path><path d="m12 17.25 0 5.25" fill="none" stroke="#000000" stroke-linecap="round" stroke-linejoin="round" stroke-width="1"></path><path d="m17.25 12 0.566 3.962A1.5 1.5 0 0 0 19.3 17.25h0.4a1.5 1.5 0 0 0 1.485 -1.288L21.75 12Z" fill="none" stroke="#000000" stroke-linecap="round" stroke-linejoin="round" stroke-width="1"></path><path d="m19.5 17.25 0 5.25" fill="none" stroke="#000000" stroke-linecap="round" stroke-linejoin="round" stroke-width="1"></path></svg>