<svg viewBox="0 0 24 24" xmlns="http://www.w3.org/2000/svg" id="Agriculture-Machine-Seeder-2--Streamline-Ultimate"><desc>Agriculture Machine Seeder 2 Streamline Icon: https://streamlinehq.com</desc><path d="M3 22.421h-0.75a1.5 1.5 0 0 1 -1.5 -1.5v-4.5a1.5 1.5 0 0 1 1.5 -1.5H3" fill="none" stroke="#000000" stroke-linecap="round" stroke-linejoin="round" stroke-width="1"></path><path d="M4.3 21.672a1.5 1.5 0 0 1 -1.3 0.749" fill="none" stroke="#000000" stroke-linecap="round" stroke-linejoin="round" stroke-width="1"></path><path d="M21 22.421h0.75a1.5 1.5 0 0 0 1.5 -1.5v-4.5a1.5 1.5 0 0 0 -1.5 -1.5H21" fill="none" stroke="#000000" stroke-linecap="round" stroke-linejoin="round" stroke-width="1"></path><path d="M19.7 21.672a1.5 1.5 0 0 0 1.3 0.749" fill="none" stroke="#000000" stroke-linecap="round" stroke-linejoin="round" stroke-width="1"></path><path d="m20.25 18.671 -16.5 0 2.25 -6 12 0 2.25 6z" fill="none" stroke="#000000" stroke-linecap="round" stroke-linejoin="round" stroke-width="1"></path><path d="M2.25 14.921V5.17L0.908 3.671A1.5 1.5 0 0 1 2.25 1.5h19.5a1.5 1.5 0 0 1 1.342 2.171L21.75 5.17v9.751" fill="none" stroke="#000000" stroke-linecap="round" stroke-linejoin="round" stroke-width="1"></path><path d="m8.25 12.671 0 -6" fill="none" stroke="#000000" stroke-linecap="round" stroke-linejoin="round" stroke-width="1"></path><path d="m8.25 20.921 0 -2.25" fill="none" stroke="#000000" stroke-linecap="round" stroke-linejoin="round" stroke-width="1"></path><path d="m12 12.671 0 -6" fill="none" stroke="#000000" stroke-linecap="round" stroke-linejoin="round" stroke-width="1"></path><path d="m12 20.921 0 -2.25" fill="none" stroke="#000000" stroke-linecap="round" stroke-linejoin="round" stroke-width="1"></path><path d="m15.75 12.671 0 -6" fill="none" stroke="#000000" stroke-linecap="round" stroke-linejoin="round" stroke-width="1"></path><path d="m15.75 20.921 0 -2.25" fill="none" stroke="#000000" stroke-linecap="round" stroke-linejoin="round" stroke-width="1"></path><path d="M5.25 10.421v-2.25a1.5 1.5 0 0 1 1.5 -1.5h10.5a1.5 1.5 0 0 1 1.5 1.5v2.25" fill="none" stroke="#000000" stroke-linecap="round" stroke-linejoin="round" stroke-width="1"></path></svg>