<svg xmlns="http://www.w3.org/2000/svg" fill="none" viewBox="0 0 24 24" id="Agriculture-Machine-Tractor-2--Streamline-Ultimate"><desc>Agriculture Machine Tractor 2 Streamline Icon: https://streamlinehq.com</desc><path stroke="#000000" stroke-linecap="round" stroke-linejoin="round" d="M15.375 22.5c1.864 0 3.375 -1.511 3.375 -3.375s-1.511 -3.375 -3.375 -3.375S12 17.261 12 19.125s1.511 3.375 3.375 3.375Z" stroke-width="1"></path><path stroke="#000000" stroke-linecap="round" stroke-linejoin="round" d="M4.125 22.5c1.86396 0 3.375 -1.511 3.375 -3.375S5.98896 15.75 4.125 15.75 0.75 17.261 0.75 19.125 2.26104 22.5 4.125 22.5Z" stroke-width="1"></path><path stroke="#000000" d="M4.125 19.5c-0.20711 0 -0.375 -0.1679 -0.375 -0.375s0.16789 -0.375 0.375 -0.375" stroke-width="1"></path><path stroke="#000000" d="M4.125 19.5c0.20711 0 0.375 -0.1679 0.375 -0.375s-0.16789 -0.375 -0.375 -0.375" stroke-width="1"></path><path stroke="#000000" d="M15.375 19.5c-0.2071 0 -0.375 -0.1679 -0.375 -0.375s0.1679 -0.375 0.375 -0.375" stroke-width="1"></path><path stroke="#000000" d="M15.375 19.5c0.2071 0 0.375 -0.1679 0.375 -0.375s-0.1679 -0.375 -0.375 -0.375" stroke-width="1"></path><path stroke="#000000" stroke-linecap="round" stroke-linejoin="round" d="M12.021 19.5H7.479" stroke-width="1"></path><path stroke="#000000" stroke-linecap="round" stroke-linejoin="round" d="M18.729 19.5h3.021c0.3978 0 0.7794 -0.158 1.0607 -0.4393S23.25 18.3978 23.25 18v-6c0 -0.3978 -0.158 -0.7794 -0.4393 -1.0607S22.1478 10.5 21.75 10.5H16.5c-0.2329 0 -0.4625 0.0542 -0.6708 0.1584 -0.2083 0.1041 -0.3895 0.2553 -0.5292 0.4416l-1.8 2.4v2.25" stroke-width="1"></path><path stroke="#000000" stroke-linecap="round" stroke-linejoin="round" d="M2.25 12.75V4.5h8.25l-2.25 8.25" stroke-width="1"></path><path stroke="#000000" stroke-linecap="round" stroke-linejoin="round" d="M0.75 12.75h7.5l1.5 3h3.75" stroke-width="1"></path><path stroke="#000000" stroke-linecap="round" stroke-linejoin="round" d="M1.75 1.5h8.5c0.2652 0 0.5196 0.10536 0.7071 0.29289 0.1875 0.18754 0.2929 0.44189 0.2929 0.70711v2H0.75v-2c0 -0.26522 0.105357 -0.51957 0.29289 -0.70711C1.23043 1.60536 1.48478 1.5 1.75 1.5v0Z" stroke-width="1"></path></svg>