<svg viewBox="0 0 24 24" xmlns="http://www.w3.org/2000/svg" id="Agriculture-Machine-Plow-4--Streamline-Ultimate"><desc>Agriculture Machine Plow 4 Streamline Icon: https://streamlinehq.com</desc><path d="m6.931 16.5 0.569 -6" fill="none" stroke="#000000" stroke-linecap="round" stroke-linejoin="round" stroke-width="1"></path><path d="m17.069 16.5 -0.569 -6" fill="none" stroke="#000000" stroke-linecap="round" stroke-linejoin="round" stroke-width="1"></path><path d="M8.5 7.5h7a1 1 0 0 1 1 1v2l0 0h-9l0 0v-2a1 1 0 0 1 1 -1Z" fill="none" stroke="#000000" stroke-linecap="round" stroke-linejoin="round" stroke-width="1"></path><path d="m0.75 23.25 0 -2.25 6 0 0 2.25" fill="none" stroke="#000000" stroke-linecap="round" stroke-linejoin="round" stroke-width="1"></path><path d="m3 21 1.158 -3.474A1.5 1.5 0 0 1 5.581 16.5h12.838a1.5 1.5 0 0 1 1.423 1.026L21 21" fill="none" stroke="#000000" stroke-linecap="round" stroke-linejoin="round" stroke-width="1"></path><path d="m3.75 23.25 0 -2.25" fill="none" stroke="#000000" stroke-linecap="round" stroke-linejoin="round" stroke-width="1"></path><path d="M9 23.25 9 21l6 0 0 2.25" fill="none" stroke="#000000" stroke-linecap="round" stroke-linejoin="round" stroke-width="1"></path><path d="m12 21 0 2.25" fill="none" stroke="#000000" stroke-linecap="round" stroke-linejoin="round" stroke-width="1"></path><path d="m17.25 23.25 0 -2.25 6 0 0 2.25" fill="none" stroke="#000000" stroke-linecap="round" stroke-linejoin="round" stroke-width="1"></path><path d="m20.25 21 0 2.25" fill="none" stroke="#000000" stroke-linecap="round" stroke-linejoin="round" stroke-width="1"></path><path d="M12.75 7.5A3.75 3.75 0 0 0 9 3.75H5.25v-3H9a6.75 6.75 0 0 1 6.75 6.75v0.032" fill="none" stroke="#000000" stroke-linecap="round" stroke-linejoin="round" stroke-width="1"></path></svg>