<svg xmlns="http://www.w3.org/2000/svg" fill="none" viewBox="0 0 24 24" id="Fanblades-Off--Streamline-Ultimate"><desc>Fanblades Off Streamline Icon: https://streamlinehq.com</desc><path stroke="#000000" stroke-linecap="round" stroke-linejoin="round" stroke-miterlimit="10" d="M10 9.99243V4.75004c0 -4.899971 9 -5.28131 9 -0.7 0 2.23119 -4.1938 5.34237 -5.0938 5.94237" stroke-width="1"></path><path stroke="#000000" stroke-linecap="round" stroke-linejoin="round" stroke-miterlimit="10" d="M14 18.25v1.0595c0 4.9 -9 5.2813 -9 0.7 0 -2.2312 4.19375 -5.3423 5.0938 -5.9423" stroke-width="1"></path><path stroke="#000000" stroke-linecap="round" stroke-linejoin="round" stroke-miterlimit="10" d="m13.9207 10.0298 5.3595 0c4.9 0 5.2813 9 0.7 9 -0.4258 0 -0.8838 -0.1528 -1.3501 -0.4063" stroke-width="1"></path><path stroke="#000000" stroke-linecap="round" stroke-linejoin="round" stroke-miterlimit="10" d="m10.0793 14.0298 -5.35953 0c-3.825906 0 -4.897023 -5.48687 -3.002 -7.89229" stroke-width="1"></path><path stroke="#000000" stroke-linecap="round" stroke-linejoin="round" stroke-miterlimit="10" d="M10.0586 10.0515c0.4973 -0.49533 1.1832 -0.8015 1.9406 -0.8015 1.5188 0 2.75 1.2312 2.75 2.75 0 0.7614 -0.3094 1.4505 -0.8094 1.9484" stroke-width="1"></path><path stroke="#000000" stroke-linecap="round" stroke-linejoin="round" d="m0.75 0.75 22.5 22.5" stroke-width="1"></path></svg>