<svg xmlns="http://www.w3.org/2000/svg" viewBox="0 0 24 24" id="Settings-Toggle-Horizontal--Streamline-Ultimate"><desc>Settings Toggle Horizontal Streamline Icon: https://streamlinehq.com</desc><g><path d="M18.5 10.25h-13A4.77 4.77 0 0 1 0.75 5.5h0A4.77 4.77 0 0 1 5.5 0.75h13a4.77 4.77 0 0 1 4.75 4.75h0a4.77 4.77 0 0 1 -4.75 4.75Z" fill="none" stroke="#000000" stroke-linecap="round" stroke-linejoin="round" fill-rule="evenodd" stroke-width="1"></path><path d="M3.75 5.5a2 2 0 1 0 4 0 2 2 0 1 0 -4 0" fill="none" stroke="#000000" stroke-linecap="round" stroke-linejoin="round" stroke-width="1"></path><g><path d="M5.5 23.25h13a4.77 4.77 0 0 0 4.75 -4.75h0a4.77 4.77 0 0 0 -4.75 -4.75h-13A4.77 4.77 0 0 0 0.75 18.5h0a4.77 4.77 0 0 0 4.75 4.75Z" fill="none" stroke="#000000" stroke-linecap="round" stroke-linejoin="round" fill-rule="evenodd" stroke-width="1"></path><path d="M16.25 18.5a2 2 0 1 0 4 0 2 2 0 1 0 -4 0" fill="none" stroke="#000000" stroke-linecap="round" stroke-linejoin="round" stroke-width="1"></path></g></g></svg>