<svg xmlns="http://www.w3.org/2000/svg" viewBox="0 0 24 24" id="Sound--Streamline-Ultimate"><desc>Sound Streamline Icon: https://streamlinehq.com</desc><g><path d="m12 3.75 0 1.75" fill="none" stroke="#000000" stroke-linecap="round" stroke-linejoin="round" stroke-width="1"></path><path d="m12 9.25 0 3" fill="none" stroke="#000000" stroke-linecap="round" stroke-linejoin="round" stroke-width="1"></path><path d="M10.12 7.37a1.88 1.88 0 1 0 3.76 0 1.88 1.88 0 1 0 -3.76 0" fill="none" stroke="#000000" stroke-linecap="round" stroke-linejoin="round" stroke-width="1"></path><path d="M6.25 13.75V2.25a1.5 1.5 0 0 1 1.5 -1.5h8.5a1.5 1.5 0 0 1 1.5 1.5v10.5" fill="none" stroke="#000000" stroke-linecap="round" stroke-linejoin="round" stroke-width="1"></path><path d="M15.21 15.35a1 1 0 0 0 -1 0.09l-3.51 2.21H8.73a1 1 0 0 0 -1 1v1.28a1 1 0 0 0 1 1h1.95l3.51 2.21a1 1 0 0 0 1 0.09 1 1 0 0 0 0.54 -0.86v-6.16a1 1 0 0 0 -0.52 -0.86Z" fill="none" stroke="#000000" stroke-linecap="round" stroke-linejoin="round" stroke-width="1"></path></g></svg>