<svg xmlns="http://www.w3.org/2000/svg" fill="none" viewBox="0 0 24 24" id="Switch-Off-2--Streamline-Ultimate"><desc>Switch Off 2 Streamline Icon: https://streamlinehq.com</desc><path stroke="#000000" stroke-linecap="round" stroke-linejoin="round" d="M16.75 0.75h-9.5c-1.65685 0 -3 1.34315 -3 3v16.5c0 1.6569 1.34315 3 3 3h9.5c1.6569 0 3 -1.3431 3 -3V3.75c0 -1.65685 -1.3431 -3 -3 -3Z" stroke-width="1"></path><path stroke="#000000" stroke-linecap="round" stroke-linejoin="round" d="M7.49805 5c0 -0.55228 0.44771 -1 1 -1H15.498c0.5523 0 1 0.44772 1 1v5c0 0.5523 -0.4477 1 -1 1H8.49805c-0.55229 0 -1 -0.4477 -1 -1V5Z" stroke-width="1"></path></svg>