<svg xmlns="http://www.w3.org/2000/svg" fill="none" viewBox="0 0 24 24" id="Volume--Streamline-Ultimate"><desc>Volume Streamline Icon: https://streamlinehq.com</desc><path stroke="#000000" stroke-linecap="round" stroke-linejoin="round" d="M12 22.1599c3.866 0 7 -3.134 7 -7s-3.134 -6.99999 -7 -6.99999c-3.86599 0 -7 3.13399 -7 6.99999 0 3.866 3.13401 7 7 7Z" stroke-width="1"></path><path stroke="#000000" d="M13.8501 12.83c-0.2761 0 -0.5 -0.2239 -0.5 -0.5 0 -0.2762 0.2239 -0.5 0.5 -0.5" stroke-width="1"></path><path stroke="#000000" d="M13.8501 12.83c0.2761 0 0.5 -0.2239 0.5 -0.5 0 -0.2762 -0.2239 -0.5 -0.5 -0.5" stroke-width="1"></path><path stroke="#000000" stroke-linecap="round" stroke-linejoin="round" d="M2.25 10.84c0.82843 0 1.5 -0.6716 1.5 -1.50003s-0.67157 -1.5 -1.5 -1.5 -1.5 0.67157 -1.5 1.5S1.42157 10.84 2.25 10.84Z" stroke-width="1"></path><path stroke="#000000" stroke-linecap="round" stroke-linejoin="round" d="M2.25 22.09c0.82843 0 1.5 -0.6716 1.5 -1.5 0 -0.8285 -0.67157 -1.5 -1.5 -1.5s-1.5 0.6715 -1.5 1.5c0 0.8284 0.67157 1.5 1.5 1.5Z" stroke-width="1"></path><path stroke="#000000" stroke-linecap="round" stroke-linejoin="round" d="M21.75 22.09c0.8284 0 1.5 -0.6716 1.5 -1.5 0 -0.8285 -0.6716 -1.5 -1.5 -1.5s-1.5 0.6715 -1.5 1.5c0 0.8284 0.6716 1.5 1.5 1.5Z" stroke-width="1"></path><path stroke="#000000" stroke-linecap="round" stroke-linejoin="round" d="M21.75 10.84c0.8284 0 1.5 -0.6716 1.5 -1.50003s-0.6716 -1.5 -1.5 -1.5 -1.5 0.67157 -1.5 1.5 0.6716 1.50003 1.5 1.50003Z" stroke-width="1"></path><path stroke="#000000" stroke-linecap="round" stroke-linejoin="round" d="M12 4.83997c0.8284 0 1.5 -0.67158 1.5 -1.5 0 -0.82843 -0.6716 -1.5 -1.5 -1.5s-1.5 0.67157 -1.5 1.5c0 0.82842 0.6716 1.5 1.5 1.5Z" stroke-width="1"></path></svg>