<svg xmlns="http://www.w3.org/2000/svg" fill="none" viewBox="0 0 24 24" id="Volume-Down--Streamline-Ultimate"><desc>Volume Down Streamline Icon: https://streamlinehq.com</desc><path stroke="#000000" stroke-linecap="round" stroke-linejoin="round" d="M12.0288 6.84827c1.6569 0 3 -1.34315 3 -3 0 -1.65686 -1.3431 -3.000003 -3 -3.000003 -1.6568 0 -2.99999 1.343143 -2.99999 3.000003 0 1.65685 1.34319 3 2.99999 3Z" stroke-width="1"></path><path stroke="#000000" d="M12.0239 4.21826c-0.2071 0 -0.375 -0.16789 -0.375 -0.375s0.1679 -0.375 0.375 -0.375" stroke-width="1"></path><path stroke="#000000" d="M12.0239 4.21826c0.2071 0 0.375 -0.16789 0.375 -0.375s-0.1679 -0.375 -0.375 -0.375" stroke-width="1"></path><g><path stroke="#000000" stroke-linecap="round" stroke-linejoin="round" d="M21.0287 5.86829c1.1418 1.64067 1.815 3.56147 1.9472 5.55601 0.1322 1.9945 -0.2816 3.9873 -1.1968 5.7644 -0.9153 1.777 -2.2975 3.271 -3.9981 4.3215 -1.7006 1.0505 -3.6553 1.6178 -5.6541 1.6409 -1.9987 0.023 -3.96601 -0.499 -5.69039 -1.51 -1.72438 -1.011 -3.14069 -2.4727 -4.09674 -4.2281 -0.95605 -1.7555 -1.415693 -3.7382 -1.32955 -5.7353 0.08615 -1.99701 0.71483 -3.93283 1.81849 -5.59941" stroke-width="1"></path><path stroke="#000000" stroke-linecap="round" stroke-linejoin="round" d="M20.5388 8.11829v-2.25h2.25" stroke-width="1"></path><path stroke="#000000" stroke-linecap="round" stroke-linejoin="round" d="M16.5188 7.73828c0.8545 0.8836 1.4299 1.99921 1.6546 3.20772 0.2246 1.2084 0.0885 2.4563 -0.3914 3.588 -0.4799 1.1316 -1.2823 2.0969 -2.3072 2.7755 -1.0248 0.6786 -2.2268 1.0405 -3.456 1.0405s-2.43117 -0.3619 -3.45605 -1.0405 -1.8273 -1.6439 -2.30718 -2.7755c-0.47988 -1.1317 -0.61599 -2.3796 -0.39135 -3.588 0.22464 -1.20851 0.80009 -2.32412 1.65457 -3.20772" stroke-width="1"></path></g></svg>