<svg xmlns="http://www.w3.org/2000/svg" fill="none" viewBox="0 0 24 24" id="Seasoning-Pepper--Streamline-Ultimate"><desc>Seasoning Pepper Streamline Icon: https://streamlinehq.com</desc><path stroke="#000000" stroke-linecap="round" stroke-linejoin="round" d="M15.75 0.784302h3" stroke-width="1"></path><path stroke="#000000" stroke-linecap="round" stroke-linejoin="round" d="M17.25 3.69031V0.784241" stroke-width="1"></path><path stroke="#000000" stroke-linecap="round" stroke-linejoin="round" d="M21.25 3.74426h-8c-1.1046 0 -2 0.89543 -2 2s0.8954 2 2 2h8c1.1046 0 2 -0.89543 2 -2s-0.8954 -2 -2 -2Z" stroke-width="1"></path><path stroke="#000000" stroke-linecap="round" stroke-linejoin="round" d="M20.25 7.74426h-6v5.00004h6V7.74426Z" stroke-width="1"></path><path stroke="#000000" stroke-linecap="round" stroke-linejoin="round" d="M14.25 23.2443h7.5c0.3979 0 0.7794 -0.1581 1.0607 -0.4394s0.4393 -0.6628 0.4393 -1.0606v-6c0 -0.7957 -0.316 -1.5587 -0.8786 -2.1214 -0.5627 -0.5626 -1.3257 -0.8786 -2.1214 -0.8786h-6c-0.586 -0.0014 -1.1596 0.169 -1.65 0.49" stroke-width="1"></path><g><path stroke="#000000" stroke-linecap="round" stroke-linejoin="round" d="M6.00003 12.8699c-4.07 0 -5 6.15 -5.220001 9 0.0035 0.191 0.04603 0.3792 0.124975 0.5531 0.078944 0.1739 0.192636 0.3298 0.334076 0.4581 0.14144 0.1284 0.30764 0.2264 0.48838 0.2881 0.18073 0.0617 0.37218 0.0858 0.56257 0.0707h7.39c0.19039 0.0151 0.38187 -0.009 0.56257 -0.0707 0.1807 -0.0617 0.3469 -0.1597 0.4884 -0.2881 0.1414 -0.1283 0.2551 -0.2842 0.3341 -0.4581 0.0789 -0.1739 0.1214 -0.3621 0.1249 -0.5531 -0.19 -2.85 -1.19 -9 -5.18997 -9Z" stroke-width="1"></path><path stroke="#000000" d="M5.9436 16.455c-0.2071 0 -0.375 -0.1679 -0.375 -0.375 0 -0.2072 0.1679 -0.375 0.375 -0.375" stroke-width="1"></path><path stroke="#000000" d="M5.9436 16.455c0.20711 0 0.375 -0.1679 0.375 -0.375 0 -0.2072 -0.16789 -0.375 -0.375 -0.375" stroke-width="1"></path></g></svg>