<svg xmlns="http://www.w3.org/2000/svg" viewBox="0 0 24 24" id="Seasoning-Pepper-Ground--Streamline-Ultimate"><desc>Seasoning Pepper Ground Streamline Icon: https://streamlinehq.com</desc><g><path d="M10 2.75a2 2 0 1 0 4 0 2 2 0 1 0 -4 0" fill="none" stroke="#000000" stroke-linecap="round" stroke-linejoin="round" stroke-width="1"></path><path d="M9.12 4.75h5.79a2.34 2.34 0 0 1 2.34 2.34v1.72a0.94 0.94 0 0 1 -0.94 0.94H7.69a0.94 0.94 0 0 1 -0.94 -0.94V7.12a2.37 2.37 0 0 1 2.37 -2.37Z" fill="none" stroke="#000000" stroke-linecap="round" stroke-linejoin="round" stroke-width="1"></path><path d="M8.68 9.75 8.4 15a3.49 3.49 0 0 0 -1.65 3v0.34a1.4 1.4 0 0 0 1.4 1.4h7.7a1.4 1.4 0 0 0 1.4 -1.4V18a3.49 3.49 0 0 0 -1.65 -3l-0.28 -5.29" fill="none" stroke="#000000" stroke-linecap="round" stroke-linejoin="round" stroke-width="1"></path><path d="M7.62 19.75h8.76s0.87 0 0.87 0.87v1.76s0 0.87 -0.87 0.87H7.62s-0.87 0 -0.87 -0.87v-1.76s0 -0.87 0.87 -0.87" fill="none" stroke="#000000" stroke-linecap="round" stroke-linejoin="round" stroke-width="1"></path></g></svg>