<svg xmlns="http://www.w3.org/2000/svg" viewBox="0 0 24 24" id="Smart-Watch-Square-Microphone--Streamline-Ultimate"><desc>Smart Watch Square Microphone Streamline Icon: https://streamlinehq.com</desc><defs></defs><title>smart-watch-square-microphone</title><path d="M6.75 3.75h10.5s3 0 3 3v10.5s0 3 -3 3H6.75s-3 0 -3 -3V6.75s0 -3 3 -3" fill="none" stroke="#000000" stroke-linecap="round" stroke-linejoin="round" stroke-width="1"></path><path d="M17.25 3.75H6.75v-1.5a1.5 1.5 0 0 1 1.5 -1.5h7.5a1.5 1.5 0 0 1 1.5 1.5Z" fill="none" stroke="#000000" stroke-linecap="round" stroke-linejoin="round" stroke-width="1"></path><path d="M15.75 23.25h-7.5a1.5 1.5 0 0 1 -1.5 -1.5v-1.5h10.5v1.5a1.5 1.5 0 0 1 -1.5 1.5Z" fill="none" stroke="#000000" stroke-linecap="round" stroke-linejoin="round" stroke-width="1"></path><path d="m12 15 0 2.25" fill="none" stroke="#000000" stroke-linecap="round" stroke-linejoin="round" stroke-width="1"></path><path d="M12 12h0a1.5 1.5 0 0 1 -1.5 -1.5V9A1.5 1.5 0 0 1 12 7.5h0A1.5 1.5 0 0 1 13.5 9v1.5A1.5 1.5 0 0 1 12 12Z" fill="none" stroke="#000000" stroke-linecap="round" stroke-linejoin="round" stroke-width="1"></path><path d="M15.9 12.75a4.5 4.5 0 0 1 -7.795 0" fill="none" stroke="#000000" stroke-linecap="round" stroke-linejoin="round" stroke-width="1"></path></svg>