<svg xmlns="http://www.w3.org/2000/svg" viewBox="0 0 24 24" id="Smart-Watch-Square-Sound--Streamline-Ultimate"><desc>Smart Watch Square Sound Streamline Icon: https://streamlinehq.com</desc><defs></defs><title>smart-watch-square-sound</title><path d="M6.75 3.75h10.5s3 0 3 3v10.5s0 3 -3 3H6.75s-3 0 -3 -3V6.75s0 -3 3 -3" fill="none" stroke="#000000" stroke-linecap="round" stroke-linejoin="round" stroke-width="1"></path><path d="M17.25 3.75H6.75v-1.5a1.5 1.5 0 0 1 1.5 -1.5h7.5a1.5 1.5 0 0 1 1.5 1.5Z" fill="none" stroke="#000000" stroke-linecap="round" stroke-linejoin="round" stroke-width="1"></path><path d="M15.75 23.25h-7.5a1.5 1.5 0 0 1 -1.5 -1.5v-1.5h10.5v1.5a1.5 1.5 0 0 1 -1.5 1.5Z" fill="none" stroke="#000000" stroke-linecap="round" stroke-linejoin="round" stroke-width="1"></path><path d="M9.75 9.75h-1.5a1.5 1.5 0 0 0 -1.5 1.5v1.5a1.5 1.5 0 0 0 1.5 1.5h1.5l3 2.25v-9Z" fill="none" stroke="#000000" stroke-linecap="round" stroke-linejoin="round" stroke-width="1"></path><path d="M16.548 9a6.761 6.761 0 0 1 0 6" fill="none" stroke="#000000" stroke-linecap="round" stroke-linejoin="round" stroke-width="1"></path></svg>