<svg xmlns="http://www.w3.org/2000/svg" viewBox="0 0 24 24" id="Smart-Watch-Square-Dumbbell--Streamline-Ultimate"><desc>Smart Watch Square Dumbbell Streamline Icon: https://streamlinehq.com</desc><defs></defs><title>smart-watch-square-dumbbell</title><path d="M6.75 3.75h10.5s3 0 3 3v10.5s0 3 -3 3H6.75s-3 0 -3 -3V6.75s0 -3 3 -3" fill="none" stroke="#000000" stroke-linecap="round" stroke-linejoin="round" stroke-width="1"></path><path d="M17.25 3.75H6.75v-1.5a1.5 1.5 0 0 1 1.5 -1.5h7.5a1.5 1.5 0 0 1 1.5 1.5Z" fill="none" stroke="#000000" stroke-linecap="round" stroke-linejoin="round" stroke-width="1"></path><path d="M15.75 23.25h-7.5a1.5 1.5 0 0 1 -1.5 -1.5v-1.5h10.5v1.5a1.5 1.5 0 0 1 -1.5 1.5Z" fill="none" stroke="#000000" stroke-linecap="round" stroke-linejoin="round" stroke-width="1"></path><path d="m10.409 13.591 3.182 -3.182" fill="none" stroke="#000000" stroke-linecap="round" stroke-linejoin="round" stroke-width="1"></path><path d="m12.530242405 8.2868454608 1.0606601717 -1.0606601718s0.5303300859 -0.5303300859 1.0606601718 0l2.1213203435 2.1213203436s0.530330086 0.5303300859 0 1.0606601718l-1.0606601717 1.0606601717s-0.530330086 0.530330086 -1.0606601718 0l-2.1213203436 -2.1213203435s-0.5303300859 -0.5303300859 0 -1.0606601718" fill="none" stroke="#000000" stroke-linecap="round" stroke-linejoin="round" stroke-width="1"></path><path d="m7.227242405 13.5918341956 1.0606601717 -1.0606601717s0.5303300859 -0.530330086 1.0606601718 0l2.1213203435 2.1213203435s0.530330086 0.5303300859 0 1.0606601718l-1.0606601717 1.0606601718s-0.530330086 0.5303300859 -1.0606601718 0l-2.1213203436 -2.1213203436s-0.5303300859 -0.5303300859 0 -1.0606601718" fill="none" stroke="#000000" stroke-linecap="round" stroke-linejoin="round" stroke-width="1"></path><path d="M15.712 8.288 16.5 7.5" fill="none" stroke="#000000" stroke-linecap="round" stroke-linejoin="round" stroke-width="1"></path><path d="M8.288 15.712 7.5 16.5" fill="none" stroke="#000000" stroke-linecap="round" stroke-linejoin="round" stroke-width="1"></path></svg>