<svg xmlns="http://www.w3.org/2000/svg" fill="none" viewBox="0 0 24 24" id="Smart-Watch-Circle-Bell--Streamline-Ultimate"><desc>Smart Watch Circle Bell Streamline Icon: https://streamlinehq.com</desc><path stroke="#000000" stroke-linecap="round" stroke-linejoin="round" d="M15.0489 15c-0.5344 1.0779 -1.3472 1.9934 -2.3543 2.6517 -1.007 0.6583 -2.1717 1.0356 -3.37349 1.0927 -1.20178 0.0571 -2.39698 -0.208 -3.46192 -0.7678 -1.06494 -0.5599 -1.96091 -1.3942 -2.59519 -2.4165 -0.63429 -1.0224 -0.98383 -2.1957 -1.01245 -3.3985 -0.02863 -1.2028 0.2647 -2.39135 0.84962 -3.44273 0.58493 -1.05137 1.4402 -1.92733 2.4773 -2.53722 1.0371 -0.60988 2.21834 -0.93153 3.42147 -0.93165" stroke-width="1"></path><path stroke="#000000" stroke-linecap="round" stroke-linejoin="round" d="M4.5 6.969V2.25c0 -0.39782 0.15804 -0.77936 0.43934 -1.06066C5.22064 0.908035 5.60218 0.75 6 0.75h4.5" stroke-width="1"></path><path stroke="#000000" stroke-linecap="round" stroke-linejoin="round" d="M13.5 17.03v4.72c0 0.3978 -0.158 0.7794 -0.4393 1.0607S12.3978 23.25 12 23.25H6c-0.39782 0 -0.77936 -0.158 -1.06066 -0.4393C4.65804 22.5294 4.5 22.1478 4.5 21.75v-4.72" stroke-width="1"></path><path stroke="#000000" stroke-linecap="round" stroke-linejoin="round" d="M16.5 0.75c0.9946 0 1.9484 0.39509 2.6517 1.09835C19.8549 2.55161 20.25 3.50544 20.25 4.5v3c0 0.39782 0.158 0.77936 0.4393 1.06066 0.2813 0.2813 0.6629 0.43934 1.0607 0.43934h-10.5c0.3978 0 0.7794 -0.15804 1.0607 -0.43934S12.75 7.89782 12.75 7.5v-3c0 -0.99456 0.3951 -1.94839 1.0983 -2.65165C14.5516 1.14509 15.5054 0.75 16.5 0.75v0Z" stroke-width="1"></path><path stroke="#000000" d="M16.5 12c-0.2071 0 -0.375 -0.1679 -0.375 -0.375s0.1679 -0.375 0.375 -0.375" stroke-width="1"></path><path stroke="#000000" d="M16.5 12c0.2071 0 0.375 -0.1679 0.375 -0.375s-0.1679 -0.375 -0.375 -0.375" stroke-width="1"></path></svg>