<svg xmlns="http://www.w3.org/2000/svg" viewBox="0 0 24 24" id="Smart-Watch-Square-Star--Streamline-Ultimate"><desc>Smart Watch Square Star Streamline Icon: https://streamlinehq.com</desc><defs></defs><title>smart-watch-square-star</title><path d="M6.75 3.75h10.5s3 0 3 3v10.5s0 3 -3 3H6.75s-3 0 -3 -3V6.75s0 -3 3 -3" fill="none" stroke="#000000" stroke-linecap="round" stroke-linejoin="round" stroke-width="1"></path><path d="M17.25 3.75H6.75v-1.5a1.5 1.5 0 0 1 1.5 -1.5h7.5a1.5 1.5 0 0 1 1.5 1.5Z" fill="none" stroke="#000000" stroke-linecap="round" stroke-linejoin="round" stroke-width="1"></path><path d="M15.75 23.25h-7.5a1.5 1.5 0 0 1 -1.5 -1.5v-1.5h10.5v1.5a1.5 1.5 0 0 1 -1.5 1.5Z" fill="none" stroke="#000000" stroke-linecap="round" stroke-linejoin="round" stroke-width="1"></path><path d="M11.564 7.469a0.489 0.489 0 0 1 0.872 0l1.012 2.042a0.485 0.485 0 0 0 0.365 0.263l2.273 0.328a0.484 0.484 0 0 1 0.39 0.325 0.474 0.474 0 0 1 -0.121 0.489l-1.65 1.6a0.476 0.476 0 0 0 -0.138 0.421l0.389 2.255a0.475 0.475 0 0 1 -0.194 0.468 0.49 0.49 0 0 1 -0.511 0.034l-2.024 -1.058a0.486 0.486 0 0 0 -0.454 0l-2.024 1.058a0.49 0.49 0 0 1 -0.511 -0.034 0.475 0.475 0 0 1 -0.194 -0.468l0.389 -2.255a0.476 0.476 0 0 0 -0.138 -0.421l-1.65 -1.6a0.474 0.474 0 0 1 -0.121 -0.489 0.483 0.483 0 0 1 0.39 -0.325l2.272 -0.328a0.485 0.485 0 0 0 0.366 -0.263Z" fill="none" stroke="#000000" stroke-linecap="round" stroke-linejoin="round" stroke-width="1"></path></svg>