<svg viewBox="0 0 24 24" xmlns="http://www.w3.org/2000/svg" id="Smart-Watch-Circle-Music--Streamline-Ultimate"><desc>Smart Watch Circle Music Streamline Icon: https://streamlinehq.com</desc><path d="M10.5 10.294a1.875 1.875 0 1 0 3.75 0 1.875 1.875 0 1 0 -3.75 0Z" fill="none" stroke="#000000" stroke-linecap="round" stroke-linejoin="round" stroke-width="1"></path><path d="M18 8.044a1.875 1.875 0 1 0 3.75 0 1.875 1.875 0 1 0 -3.75 0Z" fill="none" stroke="#000000" stroke-linecap="round" stroke-linejoin="round" stroke-width="1"></path><path d="M14.25 10.294V3.5a1.5 1.5 0 0 1 1.026 -1.423l4.5 -1.25A1.5 1.5 0 0 1 21.75 2.25v5.794" fill="none" stroke="#000000" stroke-linecap="round" stroke-linejoin="round" stroke-width="1"></path><path d="M15.282 14.475A6.747 6.747 0 1 1 10.93 5.53" fill="none" stroke="#000000" stroke-linecap="round" stroke-linejoin="round" stroke-width="1"></path><path d="M4.5 6.97V2.25A1.5 1.5 0 0 1 6 0.75h4.5" fill="none" stroke="#000000" stroke-linecap="round" stroke-linejoin="round" stroke-width="1"></path><path d="M13.5 17.031v4.719a1.5 1.5 0 0 1 -1.5 1.5H6a1.5 1.5 0 0 1 -1.5 -1.5v-4.719" fill="none" stroke="#000000" stroke-linecap="round" stroke-linejoin="round" stroke-width="1"></path></svg>