<svg viewBox="0 0 24 24" xmlns="http://www.w3.org/2000/svg" id="Smart-Watch-Circle-Text--Streamline-Ultimate"><desc>Smart Watch Circle Text Streamline Icon: https://streamlinehq.com</desc><path d="M4.137 6.969V2.25a1.5 1.5 0 0 1 1.5 -1.5h3.75" fill="none" stroke="#000000" stroke-linecap="round" stroke-linejoin="round" stroke-width="1"></path><path d="M13.137 17.031v4.719a1.5 1.5 0 0 1 -1.5 1.5h-6a1.5 1.5 0 0 1 -1.5 -1.5v-4.72" fill="none" stroke="#000000" stroke-linecap="round" stroke-linejoin="round" stroke-width="1"></path><path d="M22.137 4.5a3.749 3.749 0 0 0 -3.75 -3.75h-3a3.75 3.75 0 0 0 0 7.5h1.5l3 1.5V7.933a3.746 3.746 0 0 0 2.25 -3.433Z" fill="none" stroke="#000000" stroke-linecap="round" stroke-linejoin="round" stroke-width="1"></path><path d="M15.346 11.251a6.865 6.865 0 0 1 0.041 0.749 6.75 6.75 0 1 1 -6.75 -6.75" fill="none" stroke="#000000" stroke-linecap="round" stroke-linejoin="round" stroke-width="1"></path></svg>