<svg viewBox="0 0 24 24" xmlns="http://www.w3.org/2000/svg" id="Smart-Watch-Circle-Missed-Call--Streamline-Ultimate"><desc>Smart Watch Circle Missed Call Streamline Icon: https://streamlinehq.com</desc><path d="M14.083 13.5A6.751 6.751 0 1 1 7.5 5.25" fill="none" stroke="#000000" stroke-linecap="round" stroke-linejoin="round" stroke-width="1"></path><path d="M3 6.97V2.25A1.5 1.5 0 0 1 4.5 0.75H9" fill="none" stroke="#000000" stroke-linecap="round" stroke-linejoin="round" stroke-width="1"></path><path d="M12 17.03v4.72a1.5 1.5 0 0 1 -1.5 1.5h-6a1.5 1.5 0 0 1 -1.5 -1.5v-4.72" fill="none" stroke="#000000" stroke-linecap="round" stroke-linejoin="round" stroke-width="1"></path><path d="M16.27 11.589 18.659 9.2a1.5 1.5 0 0 1 2.121 0l0.531 0.53a1.5 1.5 0 0 1 0 2.121l-0.46 0.461a1.5 1.5 0 0 1 -1.425 0.394l-0.872 -0.218a9.479 9.479 0 0 1 -6.9 -6.895l-0.218 -0.873a1.5 1.5 0 0 1 0.4 -1.424l0.46 -0.46a1.5 1.5 0 0 1 2.121 0l0.531 0.53a1.5 1.5 0 0 1 0 2.122l-2.395 2.38" fill="none" stroke="#000000" stroke-linecap="round" stroke-linejoin="round" stroke-width="1"></path><path d="m18.75 2.25 0 3 3 0" fill="none" stroke="#000000" stroke-linecap="round" stroke-linejoin="round" stroke-width="1"></path><path d="m18.75 5.25 4.5 -4.5" fill="none" stroke="#000000" stroke-linecap="round" stroke-linejoin="round" stroke-width="1"></path></svg>