<svg viewBox="0 0 24 24" xmlns="http://www.w3.org/2000/svg" id="Smart-Watch-Circle-Star--Streamline-Ultimate"><desc>Smart Watch Circle Star Streamline Icon: https://streamlinehq.com</desc><path d="M12 17.023v4.727a1.5 1.5 0 0 1 -1.5 1.5h-6a1.5 1.5 0 0 1 -1.5 -1.5v-4.727" fill="none" stroke="#000000" stroke-linecap="round" stroke-linejoin="round" stroke-width="1"></path><path d="m17.947 1.18 1.541 3.32h3a0.735 0.735 0 0 1 0.518 1.283L20.4 8.349l1.442 3.313a0.786 0.786 0 0 1 -1.119 0.982l-3.483 -1.961 -3.487 1.961a0.786 0.786 0 0 1 -1.119 -0.982l1.443 -3.313 -2.6 -2.563a0.734 0.734 0 0 1 0.511 -1.286h3l1.544 -3.32a0.8 0.8 0 0 1 1.415 0Z" fill="none" stroke="#000000" stroke-linecap="round" stroke-linejoin="round" stroke-width="1"></path><path d="M11.77 1.5A1.479 1.479 0 0 0 10.5 0.75h-6A1.5 1.5 0 0 0 3 2.25v4.72" fill="none" stroke="#000000" stroke-linecap="round" stroke-linejoin="round" stroke-width="1"></path><path d="M8.25 5.325a6.851 6.851 0 0 0 -0.75 -0.075 6.75 6.75 0 1 0 5.61 10.5" fill="none" stroke="#000000" stroke-linecap="round" stroke-linejoin="round" stroke-width="1"></path></svg>