<svg viewBox="0 0 24 24" xmlns="http://www.w3.org/2000/svg" id="Smart-Watch-Circle-Cash--Streamline-Ultimate"><desc>Smart Watch Circle Cash Streamline Icon: https://streamlinehq.com</desc><path d="M3 6.969V2.25A1.5 1.5 0 0 1 4.5 0.75h6" fill="none" stroke="#000000" stroke-linecap="round" stroke-linejoin="round" stroke-width="1"></path><path d="M12 17.03v4.72a1.5 1.5 0 0 1 -1.5 1.5h-6a1.5 1.5 0 0 1 -1.5 -1.5v-4.72" fill="none" stroke="#000000" stroke-linecap="round" stroke-linejoin="round" stroke-width="1"></path><path d="M18.75 3.75h-2.033a1.342 1.342 0 0 0 -0.5 2.587l2.064 0.826a1.342 1.342 0 0 1 -0.5 2.587H15.75" fill="none" stroke="#000000" stroke-linecap="round" stroke-linejoin="round" stroke-width="1"></path><path d="m17.25 3.75 0 -0.75" fill="none" stroke="#000000" stroke-linecap="round" stroke-linejoin="round" stroke-width="1"></path><path d="m17.25 10.5 0 -0.75" fill="none" stroke="#000000" stroke-linecap="round" stroke-linejoin="round" stroke-width="1"></path><path d="M11.25 6.75a6 6 0 1 0 12 0 6 6 0 1 0 -12 0Z" fill="none" stroke="#000000" stroke-linecap="round" stroke-linejoin="round" stroke-width="1"></path><path d="M8.372 5.338A6.8 6.8 0 0 0 7.5 5.25a6.75 6.75 0 1 0 6.046 9.7" fill="none" stroke="#000000" stroke-linecap="round" stroke-linejoin="round" stroke-width="1"></path></svg>