<svg xmlns="http://www.w3.org/2000/svg" viewBox="0 0 24 24" id="Smart-Watch-Square-Missed-Call--Streamline-Ultimate"><desc>Smart Watch Square Missed Call Streamline Icon: https://streamlinehq.com</desc><defs></defs><title>smart-watch-square-missed-call</title><path d="M6.75 3.75h10.5s3 0 3 3v10.5s0 3 -3 3H6.75s-3 0 -3 -3V6.75s0 -3 3 -3" fill="none" stroke="#000000" stroke-linecap="round" stroke-linejoin="round" stroke-width="1"></path><path d="M17.25 3.75H6.75v-1.5a1.5 1.5 0 0 1 1.5 -1.5h7.5a1.5 1.5 0 0 1 1.5 1.5Z" fill="none" stroke="#000000" stroke-linecap="round" stroke-linejoin="round" stroke-width="1"></path><path d="M15.75 23.25h-7.5a1.5 1.5 0 0 1 -1.5 -1.5v-1.5h10.5v1.5a1.5 1.5 0 0 1 -1.5 1.5Z" fill="none" stroke="#000000" stroke-linecap="round" stroke-linejoin="round" stroke-width="1"></path><path d="m11.849 16.316 2.066 -2.066a1.3 1.3 0 0 1 1.835 0l0.459 0.459a1.3 1.3 0 0 1 0 1.835l-0.4 0.4a1.3 1.3 0 0 1 -1.232 0.342 8.688 8.688 0 0 1 -4.563 -2.345 8.72 8.72 0 0 1 -2.344 -4.562 1.3 1.3 0 0 1 0.341 -1.232l0.4 -0.4a1.3 1.3 0 0 1 1.835 0l0.454 0.453a1.3 1.3 0 0 1 0 1.835l-2.062 2.071" fill="none" stroke="#000000" stroke-linecap="round" stroke-linejoin="round" stroke-width="1"></path><path d="m14.25 8.25 0 2.25 2.25 0" fill="none" stroke="#000000" stroke-linecap="round" stroke-linejoin="round" stroke-width="1"></path><path d="m14.25 10.5 3 -3" fill="none" stroke="#000000" stroke-linecap="round" stroke-linejoin="round" stroke-width="1"></path></svg>