<svg viewBox="0 0 24 24" xmlns="http://www.w3.org/2000/svg" id="Smart-Watch-Circle-Home--Streamline-Ultimate"><desc>Smart Watch Circle Home Streamline Icon: https://streamlinehq.com</desc><path d="M12 17.03v4.72a1.5 1.5 0 0 1 -1.5 1.5h-6a1.5 1.5 0 0 1 -1.5 -1.5v-4.72" fill="none" stroke="#000000" stroke-linecap="round" stroke-linejoin="round" stroke-width="1"></path><path d="M10.5 0.75h-6A1.5 1.5 0 0 0 3 2.25v4.72" fill="none" stroke="#000000" stroke-linecap="round" stroke-linejoin="round" stroke-width="1"></path><path d="M12.75 3.948v5.8a1.5 1.5 0 0 0 1.5 1.5h6a1.5 1.5 0 0 0 1.5 -1.5v-5.8" fill="none" stroke="#000000" stroke-linecap="round" stroke-linejoin="round" stroke-width="1"></path><path d="m11.25 5.26 4.518 -3.953a2.249 2.249 0 0 1 2.964 0L23.25 5.26" fill="none" stroke="#000000" stroke-linecap="round" stroke-linejoin="round" stroke-width="1"></path><path d="M18.75 11.25h-3v-3a1.5 1.5 0 0 1 3 0Z" fill="none" stroke="#000000" stroke-linecap="round" stroke-linejoin="round" stroke-width="1"></path><path d="M8.25 5.325a6.851 6.851 0 0 0 -0.75 -0.075 6.75 6.75 0 1 0 6.337 9" fill="none" stroke="#000000" stroke-linecap="round" stroke-linejoin="round" stroke-width="1"></path></svg>