<svg xmlns="http://www.w3.org/2000/svg" viewBox="0 0 24 24" id="Smart-Watch-Square-Ringing--Streamline-Ultimate"><desc>Smart Watch Square Ringing Streamline Icon: https://streamlinehq.com</desc><defs></defs><title>smart-watch-square-ringing</title><path d="M6.75 3.75h10.5s3 0 3 3v10.5s0 3 -3 3H6.75s-3 0 -3 -3V6.75s0 -3 3 -3" fill="none" stroke="#000000" stroke-linecap="round" stroke-linejoin="round" stroke-width="1"></path><path d="M17.25 3.75H6.75v-1.5a1.5 1.5 0 0 1 1.5 -1.5h7.5a1.5 1.5 0 0 1 1.5 1.5Z" fill="none" stroke="#000000" stroke-linecap="round" stroke-linejoin="round" stroke-width="1"></path><path d="M15.75 23.25h-7.5a1.5 1.5 0 0 1 -1.5 -1.5v-1.5h10.5v1.5a1.5 1.5 0 0 1 -1.5 1.5Z" fill="none" stroke="#000000" stroke-linecap="round" stroke-linejoin="round" stroke-width="1"></path><path d="M9.838 12.422V15.2A1.235 1.235 0 0 1 8.6 16.432h-0.615A1.235 1.235 0 0 1 6.75 15.2v-0.536a1.235 1.235 0 0 1 0.6 -1.059A8.353 8.353 0 0 1 12 12.109a8.285 8.285 0 0 1 4.65 1.491 1.235 1.235 0 0 1 0.6 1.059v0.541a1.235 1.235 0 0 1 -1.235 1.235H15.4a1.235 1.235 0 0 1 -1.238 -1.235v-2.771" fill="none" stroke="#000000" stroke-linecap="round" stroke-linejoin="round" stroke-width="1"></path><path d="m12 9 0 -2.25" fill="none" stroke="#000000" stroke-linecap="round" stroke-linejoin="round" stroke-width="1"></path><path d="m15 9.75 0.75 -1.5" fill="none" stroke="#000000" stroke-linecap="round" stroke-linejoin="round" stroke-width="1"></path><path d="m9 9.75 -0.75 -1.5" fill="none" stroke="#000000" stroke-linecap="round" stroke-linejoin="round" stroke-width="1"></path></svg>