<svg xmlns="http://www.w3.org/2000/svg" viewBox="0 0 24 24" id="Technology-Device-Wearable-Smart-Watch-Square-App--Streamline-Ultimate"><desc>Technology Device Wearable Smart Watch Square App Streamline Icon: https://streamlinehq.com</desc><defs></defs><path d="M12.538 18.46q0.178 0.261 0.369 0.51a11.518 11.518 0 0 0 4.46 3.53h-9.68a11.75 11.75 0 0 1 -4.629 -3.83" fill="none" stroke="#000000" stroke-linecap="round" stroke-linejoin="round" stroke-width="1"></path><path d="M3.058 5.33A11.75 11.75 0 0 1 7.687 1.5h9.68a11.518 11.518 0 0 0 -4.46 3.53q-0.191 0.249 -0.369 0.51" fill="none" stroke="#000000" stroke-linecap="round" stroke-linejoin="round" stroke-width="1"></path><path d="M17.711 10.25h3.539a2 2 0 0 0 1.9 -2.634 9.919 9.919 0 0 0 -5.6 -6.116h-0.18" fill="none" stroke="#000000" stroke-linecap="round" stroke-linejoin="round" stroke-width="1"></path><path d="M17.367 22.5h0.18a9.919 9.919 0 0 0 5.6 -6.116 2 2 0 0 0 -1.9 -2.634h-3.536" fill="none" stroke="#000000" stroke-linecap="round" stroke-linejoin="round" stroke-width="1"></path><path d="M3.75 5.25h7.5s3 0 3 3v7.5s0 3 -3 3h-7.5s-3 0 -3 -3v-7.5s0 -3 3 -3" fill="none" stroke="#000000" stroke-linecap="round" stroke-linejoin="round" stroke-width="1"></path></svg>