<svg xmlns="http://www.w3.org/2000/svg" fill="none" viewBox="0 0 24 24" id="Technology-Device-Wearable-Smart-Watch-App--Streamline-Ultimate"><desc>Technology Device Wearable Smart Watch App Streamline Icon: https://streamlinehq.com</desc><path stroke="#000000" stroke-linecap="round" stroke-linejoin="round" d="M17.0443 22.5461H7.83946c-2.04496 -0.9614 -3.77404 -2.4849 -4.98518 -4.3926C1.64315 16.2458 1 14.0328 1 11.7731c0 -2.25971 0.64315 -4.47271 1.85428 -6.38041C4.06542 3.48499 5.7945 1.96141 7.83946 1h9.20484c-1.7769 0.87842 -3.3124 2.17761 -4.4729 3.78461 -1.5354 2.00691 -2.3673 4.46352 -2.3673 6.99039 0 2.5269 0.8319 4.9835 2.3673 6.9905 1.161 1.6055 2.6964 2.9033 4.4729 3.7806v0Z" stroke-width="1"></path><path stroke="#000000" stroke-linecap="round" stroke-linejoin="round" d="M20.9942 10.2694c0.3177 -0.0002 0.6309 -0.0759 0.9136 -0.2207 0.2828 -0.14485 0.5272 -0.35477 0.7131 -0.61249 0.1858 -0.25771 0.3078 -0.55587 0.3559 -0.86993 0.0482 -0.31407 0.0211 -0.63508 -0.0791 -0.93662 -0.4379 -1.43577 -1.1675 -2.76563 -2.1433 -3.90627 -0.9758 -1.14064 -2.1766 -2.06746 -3.5272 -2.72241h-0.1829c-1.7769 0.87842 -3.3124 2.17761 -4.4729 3.7846 0.8179 1.02881 1.4513 2.19152 1.8723 3.43655 0.201 0.59677 0.5843 1.11537 1.0958 1.48268 0.5115 0.36729 1.1254 0.56479 1.7551 0.56459h3.6996Z" stroke-width="1"></path><path stroke="#000000" stroke-linecap="round" stroke-linejoin="round" d="M17.2946 13.2767c-0.6296 0.0001 -1.2434 0.1977 -1.7548 0.565 -0.5114 0.3673 -0.8948 0.8857 -1.0961 1.4823 -0.4209 1.2454 -1.0543 2.4084 -1.8723 3.4375 1.1605 1.607 2.696 2.9062 4.4729 3.7846h0.1799c1.3507 -0.6549 2.5515 -1.5817 3.5273 -2.7224 0.9757 -1.1406 1.7054 -2.4705 2.1433 -3.9062 0.1001 -0.3016 0.1272 -0.6226 0.0791 -0.9367 -0.0481 -0.314 -0.1701 -0.6122 -0.356 -0.8699 -0.1858 -0.2577 -0.4302 -0.4676 -0.713 -0.6125 -0.2828 -0.1448 -0.5959 -0.2205 -0.9137 -0.2207l-3.6966 -0.001Z" stroke-width="1"></path><path stroke="#000000" stroke-linecap="round" stroke-linejoin="round" d="M2.63331 17.7897h9.26939" stroke-width="1"></path><path stroke="#000000" stroke-linecap="round" stroke-linejoin="round" d="M11.9027 5.75642H2.63331" stroke-width="1"></path><path stroke="#000000" d="M4.25919 9.75514c-0.13498 0 -0.24442 -0.10943 -0.24442 -0.24442s0.10944 -0.24442 0.24442 -0.24442" stroke-width="1"></path><path stroke="#000000" d="M4.2592 9.75514c0.13499 0 0.24442 -0.10943 0.24442 -0.24442s-0.10943 -0.24442 -0.24442 -0.24442" stroke-width="1"></path><path stroke="#000000" d="M7.26166 9.75514c-0.13499 0 -0.24443 -0.10943 -0.24443 -0.24442s0.10944 -0.24442 0.24443 -0.24442" stroke-width="1"></path><path stroke="#000000" d="M7.26166 9.75514c0.13499 0 0.24442 -0.10943 0.24442 -0.24442s-0.10943 -0.24442 -0.24442 -0.24442" stroke-width="1"></path><path stroke="#000000" d="M4.25919 13.7666c-0.13498 0 -0.24442 -0.1095 -0.24442 -0.2445 0 -0.1349 0.10944 -0.2444 0.24442 -0.2444" stroke-width="1"></path><path stroke="#000000" d="M4.2592 13.7666c0.13499 0 0.24442 -0.1095 0.24442 -0.2445 0 -0.1349 -0.10943 -0.2444 -0.24442 -0.2444" stroke-width="1"></path><path stroke="#000000" d="M7.26166 13.7666c-0.13499 0 -0.24443 -0.1095 -0.24443 -0.2445 0 -0.1349 0.10944 -0.2444 0.24443 -0.2444" stroke-width="1"></path><path stroke="#000000" d="M7.26166 13.7666c0.13499 0 0.24442 -0.1095 0.24442 -0.2445 0 -0.1349 -0.10943 -0.2444 -0.24442 -0.2444" stroke-width="1"></path></svg>