<svg xmlns="http://www.w3.org/2000/svg" viewBox="0 0 24 24" id="Technology-Device-Wearable-Smart-Watch-Square-Graph-2--Streamline-Ultimate"><desc>Technology Device Wearable Smart Watch Square Graph 2 Streamline Icon: https://streamlinehq.com</desc><defs></defs><path d="M16.778 10.393h4.061a2.144 2.144 0 0 0 2.033 -2.822A11.182 11.182 0 0 0 16.813 0.75h-0.193" fill="none" stroke="#000000" stroke-linecap="round" stroke-linejoin="round" stroke-width="1"></path><path d="M16.62 23.25h0.193a11.182 11.182 0 0 0 6.059 -6.821 2.144 2.144 0 0 0 -2.033 -2.822h-4.061" fill="none" stroke="#000000" stroke-linecap="round" stroke-linejoin="round" stroke-width="1"></path><path d="M11.651 19.468c-0.148 -0.194 -0.277 -0.4 -0.414 -0.6l2.291 -2.583a2.153 2.153 0 0 0 0.311 -1.113v-6.6a2.145 2.145 0 0 0 -0.315 -1.119l-2.268 -2.018c0.147 -0.219 0.286 -0.694 0.447 -0.9A12.337 12.337 0 0 1 16.481 0.75H8.7C5.264 2.285 1.631 7.089 1.631 7.089a2.145 2.145 0 0 0 -0.613 1.5v6.82a2.145 2.145 0 0 0 0.613 1.5S5.243 21.706 8.7 23.25h7.73a12.347 12.347 0 0 1 -4.779 -3.782Z" fill="none" stroke="#000000" stroke-linecap="round" stroke-linejoin="round" stroke-width="1"></path><path d="m4.232 12.806 0 1.518" fill="none" stroke="#000000" stroke-linecap="round" stroke-linejoin="round" stroke-width="1"></path><path d="m6.911 11.287 0 3.037" fill="none" stroke="#000000" stroke-linecap="round" stroke-linejoin="round" stroke-width="1"></path><path d="m9.589 8.25 0 6.074" fill="none" stroke="#000000" stroke-linecap="round" stroke-linejoin="round" stroke-width="1"></path></svg>