<svg xmlns="http://www.w3.org/2000/svg" fill="none" viewBox="0 0 24 24" id="Technology-Device-Wearable-Smart-Watch-Location-Tracker--Streamline-Ultimate"><desc>Technology Device Wearable Smart Watch Location Tracker Streamline Icon: https://streamlinehq.com</desc><path stroke="#000000" stroke-linecap="round" stroke-linejoin="round" d="M4.875 21.354H0.75" stroke-width="1"></path><path stroke="#000000" stroke-linecap="round" stroke-linejoin="round" d="M11.75 9.354h1l1.733 -0.867c0.8332 -0.41613 1.7517 -0.63283 2.683 -0.633h3.084c0.7956 0 1.5587 0.31607 2.1213 0.87868 0.5626 0.56261 0.8787 1.32572 0.8787 2.12132v6c0 0.7957 -0.3161 1.5587 -0.8787 2.1213 -0.5626 0.5626 -1.3257 0.8787 -2.1213 0.8787h-3" stroke-width="1"></path><path stroke="#000000" stroke-linecap="round" stroke-linejoin="round" d="M8.375 21.354h4.375l1.733 0.867c0.8332 0.4161 1.7517 0.6328 2.683 0.633h0.084c0.7956 0 1.5587 -0.3161 2.1213 -0.8787 0.5626 -0.5626 0.8787 -1.3256 0.8787 -2.1213" stroke-width="1"></path><path stroke="#000000" stroke-linecap="round" stroke-linejoin="round" d="M8.375 15.1v6.968c0 0.2652 -0.10536 0.5196 -0.29289 0.7071 -0.18754 0.1875 -0.44189 0.2929 -0.70711 0.2929h-1.5c-0.26522 0 -0.51957 -0.1054 -0.70711 -0.2929 -0.18753 -0.1875 -0.29289 -0.4419 -0.29289 -0.7071v-6.214" stroke-width="1"></path><path stroke="#000000" d="M5.75 5.92801c-0.27614 0 -0.5 -0.22386 -0.5 -0.5s0.22386 -0.5 0.5 -0.5" stroke-width="1"></path><path stroke="#000000" d="M5.75 5.92801c0.27614 0 0.5 -0.22386 0.5 -0.5s-0.22386 -0.5 -0.5 -0.5" stroke-width="1"></path><path stroke="#000000" stroke-linecap="round" stroke-linejoin="round" d="M5.75 0.928009c1.19347 0 2.33807 0.474101 3.18198 1.318021 0.84391 0.84391 1.31802 1.9885 1.31802 3.18198 0 1.92 -2.688 5.57599 -3.909 7.13799 -0.07015 0.0898 -0.15982 0.1624 -0.26223 0.2124 -0.1024 0.0499 -0.21484 0.0759 -0.32877 0.0759s-0.22637 -0.026 -0.32877 -0.0759c-0.10241 -0.05 -0.19208 -0.1226 -0.26223 -0.2124C3.938 11 1.25 7.34901 1.25 5.42801c0 -1.19348 0.47411 -2.33807 1.31802 -3.18198C3.41193 1.40211 4.55653 0.928009 5.75 0.928009v0Z" stroke-width="1"></path></svg>