<svg xmlns="http://www.w3.org/2000/svg" viewBox="0 0 24 24" id="Technology-Device-Wearable-Smart-Watch-1--Streamline-Ultimate"><desc>Technology Device Wearable Smart Watch 1 Streamline Icon: https://streamlinehq.com</desc><defs></defs><path d="M12 2.342a7.155 7.155 0 0 0 -9 0" fill="none" stroke="#000000" stroke-linecap="round" stroke-linejoin="round" stroke-width="1"></path><path d="M4.875 5.136a4.177 4.177 0 0 1 5.25 0" fill="none" stroke="#000000" stroke-linecap="round" stroke-linejoin="round" stroke-width="1"></path><path d="M10 11.75H4.5v-2.5a1 1 0 0 1 1 -1H9a1 1 0 0 1 1 1Z" fill="none" stroke="#000000" stroke-linecap="round" stroke-linejoin="round" stroke-width="1"></path><path d="M10 22.25a1 1 0 0 1 -1 1H5.5a1 1 0 0 1 -1 -1v-2.5H10Z" fill="none" stroke="#000000" stroke-linecap="round" stroke-linejoin="round" stroke-width="1"></path><path d="m4.5 9.75 -3.75 0" fill="none" stroke="#000000" stroke-linecap="round" stroke-linejoin="round" stroke-width="1"></path><path d="m4.5 21.75 -3.75 0" fill="none" stroke="#000000" stroke-linecap="round" stroke-linejoin="round" stroke-width="1"></path><path d="M10 9.75h2.75l1.733 -0.867a6.007 6.007 0 0 1 2.683 -0.633h3.084a3 3 0 0 1 3 3v6a3 3 0 0 1 -3 3h-3" fill="none" stroke="#000000" stroke-linecap="round" stroke-linejoin="round" stroke-width="1"></path><path d="M10 21.75h2.75l1.733 0.867a6.007 6.007 0 0 0 2.683 0.633h0.084a3 3 0 0 0 3 -3h0" fill="none" stroke="#000000" stroke-linecap="round" stroke-linejoin="round" stroke-width="1"></path><path d="m4.5 11.75 0 8" fill="none" stroke="#000000" stroke-linecap="round" stroke-linejoin="round" stroke-width="1"></path><path d="m10 11.75 0 8" fill="none" stroke="#000000" stroke-linecap="round" stroke-linejoin="round" stroke-width="1"></path></svg>