<svg xmlns="http://www.w3.org/2000/svg" fill="none" viewBox="0 0 24 24" id="Technology-Device-Wearable-Smart-Watch-Touch--Streamline-Ultimate"><desc>Technology Device Wearable Smart Watch Touch Streamline Icon: https://streamlinehq.com</desc><path stroke="#000000" stroke-linecap="round" stroke-linejoin="round" d="M2.5 2.25H0.75" stroke-width="1"></path><path stroke="#000000" stroke-linecap="round" stroke-linejoin="round" d="M2.5 11.75H0.75" stroke-width="1"></path><path stroke="#000000" stroke-linecap="round" stroke-linejoin="round" d="M11 2.25h1.75l1.733 -0.867c0.8332 -0.41613 1.7517 -0.632836 2.683 -0.633h3.084c0.7956 0 1.5587 0.31607 2.1213 0.87868 0.5626 0.56261 0.8787 1.32567 0.8787 2.12132v6c0 0.7956 -0.3161 1.5587 -0.8787 2.1213 -0.5626 0.5626 -1.3257 0.8787 -2.1213 0.8787h-4" stroke-width="1"></path><path stroke="#000000" stroke-linecap="round" stroke-linejoin="round" d="M19.371 14.871c0.279 -0.2782 0.5003 -0.6088 0.6511 -0.9728 0.1509 -0.364 0.2283 -0.7542 0.2279 -1.1482" stroke-width="1"></path><path stroke="#000000" stroke-linecap="round" stroke-linejoin="round" d="M6.512 13.468H3.5c-0.26522 0 -0.51957 -0.1053 -0.70711 -0.2929 -0.18753 -0.1875 -0.29289 -0.4419 -0.29289 -0.7071V1.96802c0 -0.26522 0.10536 -0.51957 0.29289 -0.70711 0.18754 -0.18754 0.44189 -0.292892 0.70711 -0.292892H10c0.2652 0 0.5196 0.105352 0.7071 0.292892 0.1875 0.18754 0.2929 0.44189 0.2929 0.70711v5" stroke-width="1"></path><path stroke="#000000" d="M6.75 5c-0.20711 0 -0.375 -0.16789 -0.375 -0.375s0.16789 -0.375 0.375 -0.375" stroke-width="1"></path><path stroke="#000000" d="M6.75 5c0.20711 0 0.375 -0.16789 0.375 -0.375s-0.16789 -0.375 -0.375 -0.375" stroke-width="1"></path><path stroke="#000000" d="M6.75 9.25c-0.20711 0 -0.375 -0.16789 -0.375 -0.375s0.16789 -0.375 0.375 -0.375" stroke-width="1"></path><path stroke="#000000" d="M6.75 9.25c0.20711 0 0.375 -0.16789 0.375 -0.375S6.95711 8.5 6.75 8.5" stroke-width="1"></path><path stroke="#000000" stroke-linecap="round" stroke-linejoin="round" d="M18.75 23.218v-3.424c0 -0.7109 -0.2524 -1.3987 -0.7123 -1.9408 -0.4599 -0.5421 -1.0973 -0.9033 -1.7987 -1.0192l-3.239 -0.7v-4.191c0.0101 -0.4563 -0.1406 -0.9017 -0.4258 -1.258 -0.2852 -0.3563 -0.6867 -0.601 -1.1342 -0.69101 -0.269 -0.04567 -0.5448 -0.0321 -0.8081 0.03981 -0.2632 0.0718 -0.5076 0.2003 -0.71613 0.3763 -0.20851 0.176 -0.3761 0.3955 -0.49109 0.6429 -0.11499 0.2475 -0.1746 0.5171 -0.17468 0.79V20l-1.6 -0.8c-0.56297 -0.2949 -1.21645 -0.3666 -1.83 -0.2009 -0.61354 0.1657 -1.14204 0.5567 -1.48 1.0949 -0.29788 0.5076 -0.4031 1.1054 -0.29641 1.6842 0.10668 0.5788 0.41814 1.0998 0.87741 1.4678" stroke-width="1"></path></svg>