<svg xmlns="http://www.w3.org/2000/svg" viewBox="0 0 24 24" id="Technology-Device-Smartphone-Watch-Square-Sync-2--Streamline-Ultimate"><desc>Technology Device Smartphone Watch Square Sync 2 Streamline Icon: https://streamlinehq.com</desc><defs></defs><path d="M17.998 11.837 5 11.837l2 -1.998" fill="none" stroke="#000000" stroke-linecap="round" stroke-linejoin="round" stroke-width="1"></path><path d="m5 11.839 2 2" fill="none" stroke="#000000" stroke-linecap="round" stroke-linejoin="round" stroke-width="1"></path><path d="m18 11.837 -2.153 -1.998" fill="none" stroke="#000000" stroke-linecap="round" stroke-linejoin="round" stroke-width="1"></path><path d="m18 11.839 -2.153 2" fill="none" stroke="#000000" stroke-linecap="round" stroke-linejoin="round" stroke-width="1"></path><path d="M13 15.55v4.2a2 2 0 0 0 2 2h6.25a2 2 0 0 0 2 -2V4.25a2 2 0 0 0 -2 -2H15a2 2 0 0 0 -2 2v3.339" fill="none" stroke="#000000" stroke-linecap="round" stroke-linejoin="round" stroke-width="1"></path><path d="m13 17.5 10.25 0" fill="none" stroke="#000000" stroke-linecap="round" stroke-linejoin="round" stroke-width="1"></path><path d="M2.25 6.865V4.227a1.5 1.5 0 0 1 1.5 -1.5h3a1.5 1.5 0 0 1 1.5 1.5v2.686" fill="none" stroke="#000000" stroke-linecap="round" stroke-linejoin="round" stroke-width="1"></path><path d="M2.25 17.171v2.579a1.5 1.5 0 0 0 1.5 1.5h3a1.5 1.5 0 0 0 1.5 -1.5v-2.579" fill="none" stroke="#000000" stroke-linecap="round" stroke-linejoin="round" stroke-width="1"></path><path d="M9.75 8.977a2 2 0 0 0 -2 -2h-5a2 2 0 0 0 -2 2v6.135a2 2 0 0 0 2 2h5a2 2 0 0 0 2 -2" fill="none" stroke="#000000" stroke-linecap="round" stroke-linejoin="round" stroke-width="1"></path></svg>