<svg xmlns="http://www.w3.org/2000/svg" viewBox="0 0 24 24" id="Technology-Device-Wearable-Smart-Watch-Circle-App-2--Streamline-Ultimate"><desc>Technology Device Wearable Smart Watch Circle App 2 Streamline Icon: https://streamlinehq.com</desc><defs></defs><path d="M0.75 12a5.822 5.822 0 1 0 11.644 0A5.822 5.822 0 1 0 0.75 12" fill="none" stroke="#000000" stroke-linecap="round" stroke-linejoin="round" stroke-width="1"></path><path d="M11.3 15.405a11.94 11.94 0 0 0 1.865 3.858 11.177 11.177 0 0 0 4.328 3.425H8.58a11.59 11.59 0 0 1 -5.8 -6.269" fill="none" stroke="#000000" stroke-linecap="round" stroke-linejoin="round" stroke-width="1"></path><path d="M2.813 7.554A12.021 12.021 0 0 1 8.58 1.312h8.908a11.2 11.2 0 0 0 -6.223 7.242" fill="none" stroke="#000000" stroke-linecap="round" stroke-linejoin="round" stroke-width="1"></path><path d="M13.646 4.737a12.562 12.562 0 0 1 2.3 3.327 2.911 2.911 0 0 0 2.754 1.981h2.608a1.941 1.941 0 0 0 1.842 -2.556 10.124 10.124 0 0 0 -5.487 -6.177h-0.175" fill="none" stroke="#000000" stroke-linecap="round" stroke-linejoin="round" stroke-width="1"></path><path d="M17.488 22.688h0.175a10.124 10.124 0 0 0 5.487 -6.177 1.941 1.941 0 0 0 -1.841 -2.556H18.7a2.913 2.913 0 0 0 -2.759 1.981 12.562 12.562 0 0 1 -2.3 3.327" fill="none" stroke="#000000" stroke-linecap="round" stroke-linejoin="round" stroke-width="1"></path><path d="M9 12a2.426 2.426 0 1 1 -2.428 -2.426" fill="none" stroke="#000000" stroke-linecap="round" stroke-linejoin="round" stroke-width="1"></path><path d="m12.394 12 1.455 0" fill="none" stroke="#000000" stroke-linecap="round" stroke-linejoin="round" stroke-width="1"></path></svg>