<svg xmlns="http://www.w3.org/2000/svg" viewBox="0 0 24 24" id="Technology-Device-Wearable-Smart-Watch-2--Streamline-Ultimate"><desc>Technology Device Wearable Smart Watch 2 Streamline Icon: https://streamlinehq.com</desc><defs></defs><path d="M11.25 2.233a7.155 7.155 0 0 0 -9 0" fill="none" stroke="#000000" stroke-linecap="round" stroke-linejoin="round" stroke-width="1"></path><path d="M4.125 5.027a4.175 4.175 0 0 1 5.25 0" fill="none" stroke="#000000" stroke-linecap="round" stroke-linejoin="round" stroke-width="1"></path><path d="m5.125 9.641 -4.375 0" fill="none" stroke="#000000" stroke-linecap="round" stroke-linejoin="round" stroke-width="1"></path><path d="m5.125 21.641 -4.375 0" fill="none" stroke="#000000" stroke-linecap="round" stroke-linejoin="round" stroke-width="1"></path><path d="M8.375 9.641h4.375l1.733 -0.867a6.007 6.007 0 0 1 2.683 -0.633h3.084a3 3 0 0 1 3 3v6a3 3 0 0 1 -3 3h-3" fill="none" stroke="#000000" stroke-linecap="round" stroke-linejoin="round" stroke-width="1"></path><path d="M8.375 21.641h4.375l1.733 0.866a6 6 0 0 0 2.683 0.634h0.084a3 3 0 0 0 3 -3h0" fill="none" stroke="#000000" stroke-linecap="round" stroke-linejoin="round" stroke-width="1"></path><path d="M6.125 8.359h1.25s1 0 1 1v13s0 1 -1 1h-1.25s-1 0 -1 -1v-13s0 -1 1 -1" fill="none" stroke="#000000" stroke-linecap="round" stroke-linejoin="round" stroke-width="1"></path></svg>