<svg xmlns="http://www.w3.org/2000/svg" fill="none" viewBox="0 0 24 24" id="Technology-Device-Smartphone-App--Streamline-Ultimate"><desc>Technology Device Smartphone App Streamline Icon: https://streamlinehq.com</desc><path stroke="#000000" stroke-linecap="round" stroke-linejoin="round" d="M13.5 0.75H2.75c-1.10457 0 -2 0.89543 -2 2v18.5c0 1.1046 0.89543 2 2 2H13.5c1.1046 0 2 -0.8954 2 -2V2.75c0 -1.10457 -0.8954 -2 -2 -2Z" stroke-width="1"></path><path stroke="#000000" stroke-linecap="round" stroke-linejoin="round" d="M15.5 18.75H0.75" stroke-width="1"></path><path stroke="#000000" stroke-linecap="round" stroke-linejoin="round" d="M5.25 8.5c0.82843 0 1.5 -0.67157 1.5 -1.5s-0.67157 -1.5 -1.5 -1.5 -1.5 0.67157 -1.5 1.5 0.67157 1.5 1.5 1.5Z" stroke-width="1"></path><path stroke="#000000" stroke-linecap="round" stroke-linejoin="round" d="M11 8.5c0.8284 0 1.5 -0.67157 1.5 -1.5s-0.6716 -1.5 -1.5 -1.5 -1.5 0.67157 -1.5 1.5 0.6716 1.5 1.5 1.5Z" stroke-width="1"></path><path stroke="#000000" stroke-linecap="round" stroke-linejoin="round" d="M11 14.75c0.8284 0 1.5 -0.6716 1.5 -1.5s-0.6716 -1.5 -1.5 -1.5 -1.5 0.6716 -1.5 1.5 0.6716 1.5 1.5 1.5Z" stroke-width="1"></path><path stroke="#000000" stroke-linecap="round" stroke-linejoin="round" d="M5.25 14.75c0.82843 0 1.5 -0.6716 1.5 -1.5s-0.67157 -1.5 -1.5 -1.5 -1.5 0.6716 -1.5 1.5 0.67157 1.5 1.5 1.5Z" stroke-width="1"></path><path stroke="#000000" stroke-linecap="round" stroke-linejoin="round" d="M21.658 16.25c1.0302 -1.2735 1.5923 -2.862 1.5923 -4.5s-0.5621 -3.22649 -1.5923 -4.5" stroke-width="1"></path><path stroke="#000000" stroke-linecap="round" stroke-linejoin="round" d="M18.864 9.125c0.6004 0.74314 0.9279 1.6696 0.9279 2.625s-0.3275 1.8819 -0.9279 2.625" stroke-width="1"></path></svg>