<svg xmlns="http://www.w3.org/2000/svg" viewBox="0 0 24 24" id="Bilibili-Logo--Streamline-Ultimate"><desc>Bilibili Logo Streamline Icon: https://streamlinehq.com</desc><g><g><path d="M4.91 6.86h14.18s1.47 0 1.47 1.47v9.29s0 1.47 -1.47 1.47H4.91s-1.47 0 -1.47 -1.47V8.33s0 -1.47 1.47 -1.47" fill="none" stroke="#000000" stroke-linecap="round" stroke-linejoin="round" stroke-width="1"></path><path d="M14.75 15.78c-0.06 0.27 -0.35 0.62 -1 0.62 -1.18 0 -1.71 -1.47 -1.71 -1.47s-0.53 1.47 -1.71 1.47c-0.69 0 -1 -0.35 -1 -0.62" fill="none" stroke="#000000" stroke-linecap="round" stroke-linejoin="round" stroke-width="1"></path><path d="M4.66 4.17A3.92 3.92 0 0 0 0.75 8.09v9.78a3.91 3.91 0 0 0 3.91 3.91h1V22a1.23 1.23 0 0 0 2.45 0v-0.25h7.82V22a1.23 1.23 0 0 0 2.45 0v-0.25h1a3.91 3.91 0 0 0 3.91 -3.91V8.09a3.92 3.92 0 0 0 -3.91 -3.92Z" fill="none" stroke="#000000" stroke-linecap="round" stroke-linejoin="round" stroke-width="1"></path><path d="m5.73 11.61 3.85 -0.78" fill="none" stroke="#000000" stroke-linecap="round" stroke-linejoin="round" stroke-width="1"></path><path d="m18.27 11.61 -3.85 -0.78" fill="none" stroke="#000000" stroke-linecap="round" stroke-linejoin="round" stroke-width="1"></path></g><path d="m6.13 0.75 3.42 3.42" fill="none" stroke="#000000" stroke-linecap="round" stroke-linejoin="round" stroke-width="1"></path><path d="m17.87 0.75 -3.42 3.42" fill="none" stroke="#000000" stroke-linecap="round" stroke-linejoin="round" stroke-width="1"></path></g></svg>