<svg xmlns="http://www.w3.org/2000/svg" fill="none" viewBox="0 0 24 24" id="Cinema-4d-Logo--Streamline-Ultimate"><desc>Cinema 4D Logo Streamline Icon: https://streamlinehq.com</desc><path stroke="#000000" stroke-linecap="round" stroke-linejoin="round" d="M6.15931 7.14062c-0.33579 0.90294 -0.5193 1.87996 -0.5193 2.89978 0 4.5951 3.725 8.3201 8.31999 8.3201 1.0198 0 1.9967 -0.1835 2.8995 -0.5192" stroke-width="1"></path><path stroke="#000000" stroke-linecap="round" stroke-linejoin="round" d="M16.3744 2.0752c2.6527 0.80311 4.7454 2.89531 5.5493 5.54777" stroke-width="1"></path><path stroke="#000000" stroke-linecap="round" stroke-linejoin="round" d="M22.59 8.22003c-0.0826 -0.21789 -0.2388 -0.40008 -0.4414 -0.51511 -0.2027 -0.11503 -0.4392 -0.15566 -0.6686 -0.11489 -3.15 0.63 -1.57 7.25997 -5.08 10.76997C9.08 25.68 -1.68999 14.93 5.64001 7.60003c3.51 -3.51 10.13999 -1.93 10.76999 -5.08 0.0408 -0.22943 0.0001 -0.46591 -0.1149 -0.66857 -0.115 -0.20267 -0.2972 -0.3588 -0.5151 -0.44143C14.5684 0.970269 13.2889 0.746871 12 0.750033c-2.22503 0 -4.40011 0.659797 -6.25016 1.895967 -1.85005 1.23617 -3.29199 2.99318 -4.14348 5.04884C0.754874 9.75051 0.532087 12.0125 0.966171 14.1948c0.434079 2.1823 1.505539 4.1868 3.078879 5.7602 1.57334 1.5733 3.5779 2.6448 5.76019 3.0789 2.18226 0.4341 4.44426 0.2113 6.49996 -0.6402 2.0557 -0.8515 3.8127 -2.2934 5.0488 -4.1435C22.5902 16.4001 23.25 14.2251 23.25 12c0.0032 -1.2889 -0.2202 -2.56837 -0.66 -3.77997v0Z" stroke-width="1"></path></svg>