<svg xmlns="http://www.w3.org/2000/svg" viewBox="0 0 24 24" id="Disney-Plus-Logo--Streamline-Ultimate"><desc>Disney Plus Logo Streamline Icon: https://streamlinehq.com</desc><defs></defs><title>disney-plus</title><path d="m7 18.25 0 -9" fill="none" stroke="#000000" stroke-linecap="round" stroke-linejoin="round" stroke-width="1"></path><path d="M10.136 13.659a1.381 1.381 0 0 0 0.719 -0.713c0.052 -0.251 -0.326 -0.929 -1.617 -1.212 -3.054 -0.671 -6.273 0.686 -6.717 1.464a1.061 1.061 0 0 0 0.079 1.149 9.457 9.457 0 0 0 6.186 2.4c3.687 0 5.607 -1.856 5.91 -3.677C15.69 7.116 1.858 4.142 0.776 6.634c-0.162 0.373 0.49 0.646 0.722 0.638" fill="none" stroke="#000000" stroke-linecap="round" stroke-linejoin="round" stroke-width="1"></path><path d="m17.25 12.25 6 0" fill="none" stroke="#000000" stroke-linecap="round" stroke-linejoin="round" stroke-width="1"></path><path d="m20.25 15.25 0 -6" fill="none" stroke="#000000" stroke-linecap="round" stroke-linejoin="round" stroke-width="1"></path></svg>