<svg xmlns="http://www.w3.org/2000/svg" viewBox="0 0 24 24" id="Hulu-Live-Tv-Logo--Streamline-Ultimate"><desc>Hulu Live Tv Logo Streamline Icon: https://streamlinehq.com</desc><defs></defs><title>hulu-live-tv</title><path d="m0.75 8 0 8" fill="none" stroke="#000000" stroke-linecap="round" stroke-linejoin="round" stroke-width="1"></path><path d="m15.5 8 0 8" fill="none" stroke="#000000" stroke-linecap="round" stroke-linejoin="round" stroke-width="1"></path><path d="M0.75 16v-3.5a1 1 0 0 1 1 -1h2a1 1 0 0 1 1 1V16" fill-rule="evenodd" fill="none" stroke="#000000" stroke-linecap="round" stroke-linejoin="round" stroke-width="1"></path><path d="M8 11.5V15a1 1 0 0 0 1 1h2a1 1 0 0 0 1 -1v-3.5" fill-rule="evenodd" fill="none" stroke="#000000" stroke-linecap="round" stroke-linejoin="round" stroke-width="1"></path><path d="M19.25 11.5V15a1 1 0 0 0 1 1h2a1 1 0 0 0 1 -1v-3.5" fill-rule="evenodd" fill="none" stroke="#000000" stroke-linecap="round" stroke-linejoin="round" stroke-width="1"></path></svg>