<svg xmlns="http://www.w3.org/2000/svg" fill="none" viewBox="0 0 24 24" id="Max-Logo--Streamline-Ultimate"><desc>Max Logo Streamline Icon: https://streamlinehq.com</desc><path stroke="#000000" stroke-linecap="round" stroke-linejoin="round" d="M17.5 9.37128 23 14.8713" stroke-width="1"></path><path stroke="#000000" stroke-linecap="round" stroke-linejoin="round" d="m23 9.37128 -5.5 5.50002" stroke-width="1"></path><path stroke="#000000" stroke-linecap="round" stroke-linejoin="round" d="M1 14.8713v-3.3752c0 -1.3028 2.2962 -2.69977 3.11556 -1.88041l0 1.62081v3.6348" stroke-width="1"></path><path stroke="#000000" stroke-linecap="round" stroke-linejoin="round" d="M4.11572 14.8713v-3.3752c0 -1.3028 2.2962 -2.69977 3.11556 -1.88041l0 1.62081v3.6348" stroke-width="1"></path><path stroke="#000000" stroke-linecap="round" stroke-linejoin="round" d="M1 14.8712V9.41901" stroke-width="1"></path><path stroke="#000000" stroke-linecap="round" stroke-linejoin="round" d="M12.3657 14.8713c1.5188 0 2.75 -1.2312 2.75 -2.75s-1.2312 -2.75002 -2.75 -2.75002 -2.74998 1.23122 -2.74998 2.75002c0 1.5188 1.23118 2.75 2.74998 2.75Z" stroke-width="1"></path><path stroke="#000000" stroke-linecap="round" stroke-linejoin="round" d="M15.1157 9.37128v5.50002" stroke-width="1"></path><path stroke="#000000" stroke-linecap="round" stroke-linejoin="round" d="M12.3658 12.8629c0.4096 0 0.7416 -0.332 0.7416 -0.7417 0 -0.4096 -0.332 -0.7416 -0.7416 -0.7416 -0.4097 0 -0.7417 0.332 -0.7417 0.7416 0 0.4097 0.332 0.7417 0.7417 0.7417Z" stroke-width="1"></path></svg>