<svg xmlns="http://www.w3.org/2000/svg" fill="none" viewBox="0 0 26 26" id="Tiktok-Logo-2--Streamline-Ultimate"><desc>Tiktok Logo 2 Streamline Icon: https://streamlinehq.com</desc><path stroke="#000000" stroke-linecap="round" stroke-linejoin="round" d="M14.25 10.25c0.63 0.7035 1.4005 1.2672 2.2616 1.6547 0.8612 0.3875 1.7941 0.5903 2.7384 0.5953V9.75c-1.0006 0.00048 -1.9726 -0.33406 -2.761 -0.95027 -0.7884 -0.6162 -1.3478 -1.47861 -1.589 -2.44973l-0.15 -0.6h-3v12c0 0.4945 -0.1466 0.9778 -0.4213 1.3889s-0.6652 0.7316 -1.122 0.9208c-0.4568 0.1892 -0.95947 0.2387 -1.44442 0.1423 -0.48496 -0.0965 -0.93041 -0.3346 -1.28005 -0.6842 -0.34963 -0.3497 -0.58773 -0.7951 -0.68419 -1.2801 -0.09647 -0.4849 -0.04696 -0.9876 0.14226 -1.4444 0.18922 -0.4568 0.50965 -0.8473 0.92078 -1.122 0.41112 -0.2747 0.89447 -0.4213 1.38892 -0.4213" stroke-width="1"></path><path stroke="#000000" stroke-linecap="round" stroke-linejoin="round" d="M19.5 1.5h-13c-2.76142 0 -5 2.23858 -5 5v13c0 2.7614 2.23858 5 5 5h13c2.7614 0 5 -2.2386 5 -5v-13c0 -2.76142 -2.2386 -5 -5 -5Z" stroke-width="1"></path></svg>