<svg id="Museum-Art--Streamline-Ultimate" xmlns="http://www.w3.org/2000/svg" viewBox="0 0 24 24"><desc>Museum Art Streamline Icon: https://streamlinehq.com</desc><defs></defs><title>museum-art</title><path d="m4.5 18.75 0 4.5" fill="none" stroke="#000000" stroke-linecap="round" stroke-linejoin="round" stroke-width="1"></path><path d="m12 18.75 0 4.5" fill="none" stroke="#000000" stroke-linecap="round" stroke-linejoin="round" stroke-width="1"></path><path d="m4.5 0.75 7.5 0" fill="none" stroke="#000000" stroke-linecap="round" stroke-linejoin="round" stroke-width="1"></path><path d="M13.5 8.25a5.24 5.24 0 0 0 -1.909 -4.05A3 3 0 0 1 10.5 1.886V0.75H6v1.136A3 3 0 0 1 4.909 4.2a5.251 5.251 0 0 0 1.124 8.81l-0.783 2.74h6l-0.783 -2.74A5.25 5.25 0 0 0 13.5 8.25Z" fill="none" stroke="#000000" stroke-linecap="round" stroke-linejoin="round" stroke-width="1"></path><path d="M15.75 17.25a1.5 1.5 0 0 1 -1.5 1.5h-12a1.5 1.5 0 0 1 0 -3h12a1.5 1.5 0 0 1 1.5 1.5Z" fill="none" stroke="#000000" stroke-linecap="round" stroke-linejoin="round" stroke-width="1"></path><path d="m3.506 6 9.488 0" fill="none" stroke="#000000" stroke-linecap="round" stroke-linejoin="round" stroke-width="1"></path><path d="m3.506 10.5 9.488 0" fill="none" stroke="#000000" stroke-linecap="round" stroke-linejoin="round" stroke-width="1"></path><path d="M16.5 4.5h6.75v3.75H16.5Z" fill="none" stroke="#000000" stroke-linecap="round" stroke-linejoin="round" stroke-width="1"></path></svg>