<svg viewBox="0 0 24 24" xmlns="http://www.w3.org/2000/svg" id="Museum-Exhibition--Streamline-Ultimate"><desc>Museum Exhibition Streamline Icon: https://streamlinehq.com</desc><path d="m0.75 0.75 22.5 0" fill="none" stroke="#000000" stroke-linecap="round" stroke-linejoin="round" stroke-width="1"></path><path d="m1.5 0.75 2.349 4.11a0.75 0.75 0 0 0 1.3 0L7.5 0.75" fill="none" stroke="#000000" stroke-linecap="round" stroke-linejoin="round" stroke-width="1"></path><path d="m9 0.75 2.349 4.11a0.75 0.75 0 0 0 1.3 0L15 0.75" fill="none" stroke="#000000" stroke-linecap="round" stroke-linejoin="round" stroke-width="1"></path><path d="m16.5 0.75 2.349 4.11a0.75 0.75 0 0 0 1.3 0L22.5 0.75" fill="none" stroke="#000000" stroke-linecap="round" stroke-linejoin="round" stroke-width="1"></path><path d="m5.25 14.25 0 9" fill="none" stroke="#000000" stroke-linecap="round" stroke-linejoin="round" stroke-width="1"></path><path d="m18.75 14.25 0 9" fill="none" stroke="#000000" stroke-linecap="round" stroke-linejoin="round" stroke-width="1"></path><path d="M18.75 15.734a15.785 15.785 0 0 1 -13.5 0" fill="none" stroke="#000000" stroke-linecap="round" stroke-linejoin="round" stroke-width="1"></path><path d="M23.25 17.091a15.648 15.648 0 0 1 -4.5 -1.357" fill="none" stroke="#000000" stroke-linecap="round" stroke-linejoin="round" stroke-width="1"></path><path d="M0.75 17.091a15.648 15.648 0 0 0 4.5 -1.357" fill="none" stroke="#000000" stroke-linecap="round" stroke-linejoin="round" stroke-width="1"></path><path d="M3.75 12.75a1.5 1.5 0 1 0 3 0 1.5 1.5 0 1 0 -3 0Z" fill="none" stroke="#000000" stroke-linecap="round" stroke-linejoin="round" stroke-width="1"></path><path d="M17.25 12.75a1.5 1.5 0 1 0 3 0 1.5 1.5 0 1 0 -3 0Z" fill="none" stroke="#000000" stroke-linecap="round" stroke-linejoin="round" stroke-width="1"></path></svg>