<svg xmlns="http://www.w3.org/2000/svg" fill="none" viewBox="0 0 24 24" id="Emoji-Reading-Lover-Hug--Streamline-Ultimate"><desc>Emoji Reading Lover Hug Streamline Icon: https://streamlinehq.com</desc><path stroke="#000000" stroke-linecap="round" stroke-linejoin="round" stroke-miterlimit="10" d="M14.2561 6.89085c-1.1962 1.19624 -3.1899 1.19624 -4.48584 0" stroke-width="1"></path><path stroke="#000000" stroke-linecap="round" stroke-linejoin="round" stroke-miterlimit="10" d="M9.77024 4.39871c-0.39874 -0.19937 -0.99686 -0.29906 -1.59497 -0.19937 -0.59812 0.09969 -1.09655 0.39874 -1.39561 0.79748" stroke-width="1"></path><path stroke="#000000" stroke-linecap="round" stroke-linejoin="round" stroke-miterlimit="10" d="M14.3558 4.29902c0.3987 -0.19937 0.9968 -0.29905 1.595 -0.19937 0.5981 0.09969 1.0965 0.39874 1.3956 0.79749" stroke-width="1"></path><path stroke="#000000" stroke-linecap="round" stroke-linejoin="round" stroke-miterlimit="10" d="M19.2626 13.9312c-0.4985 1.4953 -3.19 1.6946 -4.4859 1.9937 -1.2959 0.2991 -1.894 1.9937 -0.4984 2.4922 -3.2282 0 -1.6505 5.7628 2.4921 3.9874 4.4859 -1.9937 6.4796 -6.0809 6.4796 -10.3674C23.25 5.85661 18.2657 0.872314 11.9855 0.872314 5.76503 0.872314 0.75 5.91499 0.75 12.1354c0 0.6536 0.055669 1.2942 0.162523 1.9173" stroke-width="1"></path><path stroke="#000000" stroke-linecap="round" stroke-linejoin="round" stroke-miterlimit="10" d="M7.3708 14.7012c-1.19245 -0.1201 -4.35432 0.2626 -5.9333 1.5964l4.55778 6.5294c1.07886 -0.9114 2.89666 -1.3786 4.32032 -1.5449" stroke-width="1"></path><path stroke="#000000" stroke-linecap="round" stroke-linejoin="round" stroke-miterlimit="10" d="m13.8949 13.9513 -2.9801 -4.26928C9.11841 10.7044 7.66917 13.5405 7.37073 14.7012l2.99637 4.2926" stroke-width="1"></path></svg>