<svg xmlns="http://www.w3.org/2000/svg" fill="none" viewBox="0 0 24 24" id="Emoji-Smiling-Face-Open-Hands--Streamline-Ultimate"><desc>Emoji Smiling Face Open Hands Streamline Icon: https://streamlinehq.com</desc><path stroke="#000000" stroke-linecap="round" stroke-linejoin="round" stroke-miterlimit="10" d="M3.19995 11.4424c-0.1 -0.5 -0.09997 -1 -0.09997 -1.49999 0 -5 4 -8.999997 9.00002 -8.999997 5 0 9 3.999997 9 8.999997 0 0.49999 0 0.99999 -0.1 1.49999" stroke-width="1"></path><path stroke="#000000" stroke-linecap="round" stroke-linejoin="round" stroke-miterlimit="10" d="M17.2999 6.54241c-0.2 -0.7 -0.9 -1.2 -1.7 -1.2 -0.8 0 -1.5 0.5 -1.7 1.2" stroke-width="1"></path><path stroke="#000000" stroke-linecap="round" stroke-linejoin="round" stroke-miterlimit="10" d="M10.3 6.54241c-0.2 -0.7 -0.89996 -1.2 -1.69996 -1.2 -0.8 0 -1.50002 0.5 -1.70002 1.2" stroke-width="1"></path><path stroke="#000000" stroke-linecap="round" stroke-linejoin="round" stroke-miterlimit="10" d="M3.29993 13.8424c0.5 -0.6 1.30001 -0.4 1.70001 0l2.19998 2.6 0.10001 -1.6c0.1 -0.7 0.8 -1.2 1.5 -1.1 0.4 0.1 0.79999 0.5 0.89999 0.9l0.49998 2.1s0.8 3.3 -0.79997 5.1c-0.7 0.8 -1.59999 1.1 -2.39999 1.2 -1 0.1 -2.00001 -0.3 -2.70001 -1l-2.9 -2.4s-0.79999 -0.5 -0.39999 -1.8c0.4 -1.1 1.59999 -3.1 2.29999 -4Z" stroke-width="1"></path><path stroke="#000000" stroke-linecap="round" stroke-linejoin="round" stroke-miterlimit="10" d="M20.7 13.8424c-0.5 -0.6 -1.3 -0.4 -1.7 0l-2.2 2.6 -0.1 -1.6c-0.1 -0.7 -0.8 -1.2 -1.5 -1.1 -0.4 0.1 -0.8 0.5 -0.9 0.9l-0.5 2.1s-0.8 3.3 0.8 5.1c0.7 0.8 1.6 1.1 2.4 1.2 1 0.1 2 -0.3 2.7 -1l2.9 -2.4s0.8 -0.5 0.4 -1.8c-0.5 -1.1 -1.6 -3.1 -2.3 -4Z" stroke-width="1"></path><path stroke="#000000" stroke-linecap="round" stroke-linejoin="round" stroke-miterlimit="10" d="M10.2999 10.9424c1 1 2.5 1 3.5 0" stroke-width="1"></path><path stroke="#000000" stroke-linecap="round" stroke-linejoin="round" stroke-miterlimit="10" d="M16.8999 9.34241h1.4" stroke-width="1"></path><path stroke="#000000" stroke-linecap="round" stroke-linejoin="round" stroke-miterlimit="10" d="M5.80005 9.34241h1.39999" stroke-width="1"></path></svg>