<svg xmlns="http://www.w3.org/2000/svg" fill="none" viewBox="0 0 24 24" id="Emoji-Yawning-Face-Sleepy--Streamline-Ultimate"><desc>Emoji Yawning Face Sleepy Streamline Icon: https://streamlinehq.com</desc><path stroke="#000000" stroke-linecap="round" stroke-linejoin="round" stroke-miterlimit="10" d="M4.6 16.2763c-1.3 -1.6 -2.1 -3.7 -2.1 -6C2.5 5.07634 6.8 0.776337 12 0.776337s9.5 4.300003 9.5 9.499963c0 2.3 -0.8 4.4 -2.1 6" stroke-width="1"></path><path stroke="#000000" stroke-linecap="round" stroke-linejoin="round" stroke-miterlimit="10" d="M10.1 4.77634c-0.60005 -0.1 -1.30005 -0.09999 -2.00005 0.20001s-1.2 0.79999 -1.4 1.39999" stroke-width="1"></path><path stroke="#000000" stroke-linecap="round" stroke-linejoin="round" stroke-miterlimit="10" d="M13.9 4.77634c0.6 -0.1 1.3 -0.09999 2 0.20001s1.2 0.79999 1.4 1.39999" stroke-width="1"></path><path stroke="#000000" stroke-linecap="round" stroke-linejoin="round" stroke-miterlimit="10" d="M14.5 12.5763c-1 -0.5 -2 -0.5 -2.9 0.7l-1.69998 2.8 -0.5 -1.1c-0.2 -0.7 -1.1 -1.1 -1.8 -0.7 -0.4 0.2 -0.7 0.6 -0.7 1.1v2.2s0 3.5 2 5c0.9 0.7 1.79998 0.7 2.69998 0.6 2.6 -0.3 6 -3.4 6 -5.7 -0.1 -1.4 -1.1 -3.9 -3.1 -4.9Z" stroke-width="1"></path><path stroke="#000000" stroke-linecap="round" stroke-linejoin="round" stroke-miterlimit="10" d="M16.5 11.2763c0 -1.7138 -2 -2.99996 -4.5 -2.99996S7.5 9.5625 7.5 11.2763" stroke-width="1"></path></svg>