<svg xmlns="http://www.w3.org/2000/svg" fill="none" viewBox="0 0 24 24" id="Emoji-Smiley-Face-Horns-Demon--Streamline-Ultimate"><desc>Emoji Smiley Face Horns Demon Streamline Icon: https://streamlinehq.com</desc><path stroke="#000000" stroke-linecap="round" stroke-linejoin="round" stroke-miterlimit="10" d="M6.50006 9.35001c1.2 -0.7 2.69999 -0.30001 3.39999 0.89999" stroke-width="1"></path><path stroke="#000000" stroke-linecap="round" stroke-linejoin="round" stroke-miterlimit="10" d="M18 9.35001c-1.2 -0.7 -2.7 -0.30001 -3.4 0.89999" stroke-width="1"></path><path stroke="#000000" stroke-linecap="round" stroke-linejoin="round" stroke-miterlimit="10" d="M9 15.95c0.6 0.9 1.8 1.5 3.2 1.5 1.4 0 2.7 -0.6 3.2 -1.5" stroke-width="1"></path><path stroke="#000000" stroke-linecap="round" stroke-linejoin="round" d="M8.44995 12.9938c-0.20711 0 -0.375 -0.1679 -0.375 -0.375 0 -0.2072 0.16789 -0.375 0.375 -0.375" stroke-width="1"></path><path stroke="#000000" stroke-linecap="round" stroke-linejoin="round" d="M8.44995 12.9938c0.20711 0 0.375 -0.1679 0.375 -0.375 0 -0.2072 -0.16789 -0.375 -0.375 -0.375" stroke-width="1"></path><path stroke="#000000" stroke-linecap="round" stroke-linejoin="round" d="M15.9501 12.9938c-0.2071 0 -0.375 -0.1679 -0.375 -0.375 0 -0.2072 0.1679 -0.375 0.375 -0.375" stroke-width="1"></path><path stroke="#000000" stroke-linecap="round" stroke-linejoin="round" d="M15.9501 12.9938c0.2071 0 0.375 -0.1679 0.375 -0.375 0 -0.2072 -0.1679 -0.375 -0.375 -0.375" stroke-width="1"></path><path stroke="#000000" stroke-linecap="round" stroke-linejoin="round" stroke-miterlimit="10" d="M12 23.05c5.4124 0 9.8 -4.3876 9.8 -9.8 0 -5.41239 -4.3876 -9.8 -9.8 -9.8 -5.41238 0 -9.79999 4.38761 -9.79999 9.8 0 5.4124 4.38761 9.8 9.79999 9.8Z" stroke-width="1"></path><path stroke="#000000" stroke-linecap="round" stroke-linejoin="round" stroke-miterlimit="10" d="M6.7031 4.99499c-1.52859 0 -4.07624 -1.52859 -5.09529 -4.076235C0.0792205 4.48546 1.31516 8.17454 2.84375 9.70312" stroke-width="1"></path><path stroke="#000000" stroke-linecap="round" stroke-linejoin="round" stroke-miterlimit="10" d="M17.2992 4.99499c1.5286 0 4.0763 -1.52859 5.0953 -4.076235 1.5286 3.566705 0.2927 7.255785 -1.2359 8.784365" stroke-width="1"></path></svg>