<svg xmlns="http://www.w3.org/2000/svg" fill="none" viewBox="0 0 24 24" id="Emoji-Gaming-Lover-Hug-1--Streamline-Ultimate"><desc>Emoji Gaming Lover Hug 1 Streamline Icon: https://streamlinehq.com</desc><path stroke="#000000" stroke-linecap="round" stroke-linejoin="round" stroke-miterlimit="10" d="M13.9 7.1781c-1.2 1.2 -3.2 1.2 -4.49998 0" stroke-width="1"></path><path stroke="#000000" stroke-linecap="round" stroke-linejoin="round" stroke-miterlimit="10" d="M9.40002 4.67811c-0.4 -0.2 -0.99999 -0.30001 -1.59999 -0.20001s-1.10001 0.40001 -1.40001 0.80001" stroke-width="1"></path><path stroke="#000000" stroke-linecap="round" stroke-linejoin="round" stroke-miterlimit="10" d="M14.1001 4.5781c0.4 -0.2 1 -0.3 1.6 -0.2 0.6 0.1 1.1 0.4 1.4 0.8" stroke-width="1"></path><path stroke="#000000" stroke-linecap="round" stroke-linejoin="round" stroke-miterlimit="10" d="M19.6 14.5781c-0.5 0.8 -1.1 1.6 -2.4 1.9 -1.3 0.3 -1.8 1.8 -0.4 2.2 -3.1091 0 -2.21 4.5329 0.9 3.2 3.7 -1.7 5.5 -5.4 5.5 -9.8C23.2 5.87811 18.2 0.878113 12 0.878113 5.80005 0.878113 0.800049 5.87811 0.800049 12.0781c0 0.0712 -0.000002 0.5985 0.072163 1.3656" stroke-width="1"></path><path stroke="#000000" stroke-linecap="round" stroke-linejoin="round" stroke-miterlimit="10" d="m16.6 14.1781 -0.4 -1.2c-0.6 -1.8 -2.5 -2.7 -4.2 -2.1l-6.79996 2.2c-1.8 0.6 -2.70001 2.5 -2.10001 4.2l1.5 4.5c0.2 0.7 0.8 1.2 1.5 1.3 0.9 0.2 1.80001 -0.3 2.10001 -1.2l1.19999 -3.2 2.59997 -0.9 1 0.7" stroke-width="1"></path><path stroke="#000000" stroke-linecap="round" stroke-linejoin="round" stroke-miterlimit="10" d="m12 13.3781 0.8 2.2" stroke-width="1"></path><path stroke="#000000" stroke-linecap="round" stroke-linejoin="round" stroke-miterlimit="10" d="m11.3 14.8781 2.3 -0.8" stroke-width="1"></path><path stroke="#000000" stroke-linecap="round" stroke-linejoin="round" d="M7.60004 15.4531c-0.20711 0 -0.375 -0.1679 -0.375 -0.375s0.16789 -0.375 0.375 -0.375" stroke-width="1"></path><path stroke="#000000" stroke-linecap="round" stroke-linejoin="round" d="M7.60004 15.4531c0.2071 0 0.375 -0.1679 0.375 -0.375s-0.1679 -0.375 -0.375 -0.375" stroke-width="1"></path><path stroke="#000000" stroke-linecap="round" stroke-linejoin="round" d="M6.10004 17.9531c-0.20711 0 -0.375 -0.1679 -0.375 -0.375s0.16789 -0.375 0.375 -0.375" stroke-width="1"></path><path stroke="#000000" stroke-linecap="round" stroke-linejoin="round" d="M6.10004 17.9531c0.2071 0 0.375 -0.1679 0.375 -0.375s-0.1679 -0.375 -0.375 -0.375" stroke-width="1"></path></svg>