<svg xmlns="http://www.w3.org/2000/svg" fill="none" viewBox="0 0 24 24" id="Emoji-Food-Eating-Lover-Hug--Streamline-Ultimate"><desc>Emoji Food Eating Lover Hug Streamline Icon: https://streamlinehq.com</desc><path stroke="#000000" stroke-linecap="round" stroke-linejoin="round" stroke-miterlimit="10" d="M14.25 7.84039c-1.2 1.2 -3.2 1.2 -4.5 0" stroke-width="1"></path><path stroke="#000000" stroke-linecap="round" stroke-linejoin="round" stroke-miterlimit="10" d="M9.75 4.7154c-0.4 -0.2 -1.00001 -0.3 -1.60001 -0.2 -0.6 0.1 -1.09999 0.4 -1.39999 0.8" stroke-width="1"></path><path stroke="#000000" stroke-linecap="round" stroke-linejoin="round" stroke-miterlimit="10" d="M14.35 4.61539c0.4 -0.2 1 -0.3 1.6 -0.2 0.6 0.1 1.1001 0.4 1.4001 0.8" stroke-width="1"></path><path stroke="#000000" stroke-linecap="round" stroke-linejoin="round" stroke-miterlimit="10" d="M19.75 14.6529c-0.5 0.8 -1.1 1.6 -2.4 1.9 -1.3 0.3 -1.8 1.8 -0.5 2.2 -1.3 0 -2.9 1.3 -1.6 3 0.6 0.8 1.8 0.5 2.5 0.2 3.7 -1.7 5.5 -5.4 5.5 -9.8 0 -6.20001 -5 -11.200019 -11.2 -11.200019C5.85005 0.952881 0.850037 5.95289 0.850037 12.1529c0 0.1 0.000006 0.8 0.100006 1.9" stroke-width="1"></path><path stroke="#000000" stroke-linecap="round" stroke-linejoin="round" stroke-miterlimit="10" d="M12.1671 22.6509c-4.531 1.3597 -9.47334 -0.8626 -11.4171 -5.398l17.4 -7.5c0.3707 0.8156 0.5765 1.6311 0.6989 2.4874" stroke-width="1"></path><path stroke="#000000" stroke-linecap="round" stroke-linejoin="round" stroke-miterlimit="10" d="M12.0188 19.4591c-3.3 1.4 -7.1 -0.1 -8.5 -3.4" stroke-width="1"></path><path stroke="#000000" stroke-linecap="round" stroke-linejoin="round" stroke-miterlimit="10" d="M15.4017 10.9373c0.5 1.2 0.6 2.5 0.4 3.7" stroke-width="1"></path><path stroke="#000000" stroke-linecap="round" stroke-linejoin="round" d="M12.15 15.9279c-0.2071 0 -0.375 -0.1679 -0.375 -0.375s0.1679 -0.375 0.375 -0.375" stroke-width="1"></path><path stroke="#000000" stroke-linecap="round" stroke-linejoin="round" d="M12.15 15.9279c0.2071 0 0.375 -0.1679 0.375 -0.375s-0.1679 -0.375 -0.375 -0.375" stroke-width="1"></path><path stroke="#000000" stroke-linecap="round" stroke-linejoin="round" d="M8.95007 17.4279c-0.2071 0 -0.375 -0.1679 -0.375 -0.375s0.1679 -0.375 0.375 -0.375" stroke-width="1"></path><path stroke="#000000" stroke-linecap="round" stroke-linejoin="round" d="M8.95007 17.4279c0.20711 0 0.375 -0.1679 0.375 -0.375s-0.16789 -0.375 -0.375 -0.375" stroke-width="1"></path></svg>