<svg xmlns="http://www.w3.org/2000/svg" viewBox="0 0 24 24" id="Emoji-Liked-3--Streamline-Ultimate"><desc>Emoji Liked 3 Streamline Icon: https://streamlinehq.com</desc><defs></defs><title>emoji-liked-3</title><path d="m14.2766415788 0.7628429136 5.9325520783 0.9741508293a0.943 0.943 0 0 1 0.7777399165 1.0833368l-1.2314614609 7.4995668322a3.3 3.3 0 0 1 -3.7911043904 2.7216773323l-1.2828206423 -0.2106447236a3.3 3.3 0 0 1 -2.7216773323 -3.7911043904l1.2314614608 -7.4995668322a0.943 0.943 0 0 1 1.0833368 -0.7777399164Z" stroke-miterlimit="10" fill="none" stroke="#000000" stroke-width="1"></path><path d="M12.554 5.635a5.507 5.507 0 0 1 0.8 0.112c1.479 0.317 2.89 1.213 4.386 0.993a7.837 7.837 0 0 0 2.834 -1.4" stroke-miterlimit="10" fill="none" stroke="#000000" stroke-width="1"></path><path d="m14.766 12.849 -0.724 2.989" stroke-linecap="round" stroke-linejoin="round" fill="none" stroke="#000000" stroke-width="1"></path><path d="M13.681 12.5H10.41A4.145 4.145 0 0 0 6 16.721v3.112A3.158 3.158 0 0 0 9.15 23H14a3.629 3.629 0 0 0 3.455 -2.537l0.708 -2.224a1.84 1.84 0 0 0 -1.744 -2.4h-5.876" stroke-linecap="round" stroke-linejoin="round" fill="none" stroke="#000000" stroke-width="1"></path><path d="M3 14.25h2.25A0.75 0.75 0 0 1 6 15v7.5a0.75 0.75 0 0 1 -0.75 0.75H3" stroke-linecap="round" stroke-linejoin="round" fill="none" stroke="#000000" stroke-width="1"></path></svg>