<svg xmlns="http://www.w3.org/2000/svg" fill="none" viewBox="0 0 24 24" id="Emoji-Ouch--Streamline-Ultimate"><desc>Emoji Ouch Streamline Icon: https://streamlinehq.com</desc><path stroke="#000000" stroke-linecap="round" stroke-linejoin="round" d="M12 23.25c6.2132 0 11.25 -5.0368 11.25 -11.25S18.2132 0.75 12 0.75 0.75 5.7868 0.75 12 5.7868 23.25 12 23.25Z" stroke-width="1"></path><path stroke="#000000" d="M5.58658 10.7534c-0.20711 0 -0.375 -0.1679 -0.375 -0.375s0.16789 -0.375 0.375 -0.375" stroke-width="1"></path><path stroke="#000000" d="M5.58658 10.7534c0.20711 0 0.375 -0.1679 0.375 -0.375s-0.16789 -0.375 -0.375 -0.375" stroke-width="1"></path><path stroke="#000000" stroke-linecap="round" stroke-linejoin="round" d="m15 8.35 -3.23 -0.573 2.419 -2.631" stroke-width="1"></path><path stroke="#000000" stroke-linecap="round" stroke-linejoin="round" d="M12.5756 17.2034c1.158 -0.526 1.5852 -2.0787 0.9541 -3.4681 -0.6311 -1.3893 -2.0814 -2.0892 -3.2395 -1.5632 -1.15802 0.526 -1.58521 2.0787 -0.95412 3.4681 0.63108 1.3893 2.08142 2.0892 3.23952 1.5632Z" stroke-width="1"></path></svg>