<svg xmlns="http://www.w3.org/2000/svg" fill="none" viewBox="0 0 24 24" id="Emoji-Shushing-Face-Quiet-Silent--Streamline-Ultimate"><desc>Emoji Shushing Face Quiet Silent Streamline Icon: https://streamlinehq.com</desc><path stroke="#000000" stroke-linecap="round" stroke-linejoin="round" stroke-miterlimit="10" d="M4.80005 20.6c-2.4 -2.1 -4.000001 -5.2 -4.000001 -8.6C0.800049 5.79999 5.80005 0.799988 12 0.799988 18.2 0.799988 23.2 5.79999 23.2 12c0 3.7 -1.8 6.9 -4.5 9" stroke-width="1"></path><path stroke="#000000" stroke-linecap="round" stroke-linejoin="round" stroke-miterlimit="10" d="M13.3 17.2v-6c0 -0.8 -0.7 -1.49999 -1.5 -1.49999S10.3 10.4 10.3 11.2v4" stroke-width="1"></path><path stroke="#000000" stroke-linecap="round" stroke-linejoin="round" stroke-miterlimit="10" d="M13.3 18.7c1 -1 3 -2 3.5 -0.5 0.4 1.1 -0.5 2 -2 3.5 -1 1 -1.5 1.5 -3.5 1.5 -1.99995 0 -3.49995 -1.5 -3.49995 -3l0 -2.5c0 -2.5 2 -2.5 3.99995 -2.5 1.4 0 1.5 1.1 1.5 2.5v1.2c0 0.7 -0.6 1.2 -1.2 1.2 -1 0 -1.2 -0.7 -1.2 -1.2" stroke-width="1"></path><path stroke="#000000" stroke-linecap="round" stroke-linejoin="round" d="M8.24994 7.15622c-0.20711 0 -0.375 -0.16789 -0.375 -0.375s0.16789 -0.375 0.375 -0.375" stroke-width="1"></path><path stroke="#000000" stroke-linecap="round" stroke-linejoin="round" d="M8.24994 7.15622c0.20711 0 0.375 -0.16789 0.375 -0.375s-0.16789 -0.375 -0.375 -0.375" stroke-width="1"></path><path stroke="#000000" stroke-linecap="round" stroke-linejoin="round" d="M15.7501 7.15622c-0.2071 0 -0.375 -0.16789 -0.375 -0.375s0.1679 -0.375 0.375 -0.375" stroke-width="1"></path><path stroke="#000000" stroke-linecap="round" stroke-linejoin="round" d="M15.7501 7.15622c0.2071 0 0.375 -0.16789 0.375 -0.375s-0.1679 -0.375 -0.375 -0.375" stroke-width="1"></path></svg>