<svg xmlns="http://www.w3.org/2000/svg" fill="none" viewBox="0 0 24 24" id="Emoji-Partying-Face-Celebrate--Streamline-Ultimate"><desc>Emoji Partying Face Celebrate Streamline Icon: https://streamlinehq.com</desc><path stroke="#000000" stroke-linecap="round" stroke-linejoin="round" stroke-miterlimit="10" d="M20.5156 19.7354c-1.9 2.1 -4.6 3.5 -7.7 3.5 -5.69999 0 -10.2 -4.6 -10.2 -10.3 0 -5.69996 4.60001 -10.19996 10.2 -10.19996 4.7 0 8.7 3.2 9.9 7.49996" stroke-width="1"></path><path stroke="#000000" stroke-linecap="round" stroke-linejoin="round" stroke-miterlimit="10" d="M12.5156 19.7354h1.2c0.7 0 1.2 -0.6 1.2 -1.2 0 -0.7 -0.6 -1.2 -1.2 -1.2 0.7 0 1.2 -0.6 1.2 -1.2 0 -0.7 -0.6 -1.2 -1.2 -1.2h-1.2" stroke-width="1"></path><path stroke="#000000" stroke-linecap="round" stroke-linejoin="round" stroke-miterlimit="10" d="M8.01562 10.2355c0.7 -1.10004 2.29998 -1.10004 2.99998 0" stroke-width="1"></path><path stroke="#000000" stroke-linecap="round" stroke-linejoin="round" stroke-miterlimit="10" d="M14.5156 10.0354c0.7 -1.09995 2.3 -1.09995 3 0" stroke-width="1"></path><path stroke="#000000" stroke-linecap="round" stroke-linejoin="round" stroke-miterlimit="10" d="M3.07812 9.82812 1.01564 2.03545c-0.200001 -0.8 0.59999 -1.499999 1.29999 -1.199999L8.89062 3.5" stroke-width="1"></path><path stroke="#000000" stroke-linecap="round" stroke-linejoin="round" stroke-miterlimit="10" d="m13.7156 17.3354 6.2813 0c2 0 3 -1 3 -2.5s-0.7344 -2.5 -2.2344 -2.5 -2.0156 1.7333 -1.2656 2.5" stroke-width="1"></path></svg>