<svg xmlns="http://www.w3.org/2000/svg" fill="none" viewBox="0 0 24 24" id="Emoji-Cold-Face-Frozen-1--Streamline-Ultimate"><desc>Emoji Cold Face Frozen 1 Streamline Icon: https://streamlinehq.com</desc><path stroke="#000000" stroke-linecap="round" stroke-linejoin="round" stroke-miterlimit="10" d="M3.89998 19.75c-1.9 -2 -3.099992 -4.7 -3.099992 -7.8C0.799988 5.75 5.79998 0.75 12 0.75c6.2 0 11.2 5 11.2 11.2 0 2.8 -1 5.3 -2.6 7.3" stroke-width="1"></path><path stroke="#000000" stroke-linecap="round" stroke-linejoin="round" stroke-miterlimit="10" d="M16.5 16.35H7.59998c-1 0 -1.79999 -1.3 -1.79999 -3 0 -1.6 0.79999 -3 1.79999 -3H16.5c1 0 1.8 1.3 1.8 3s-0.8 3 -1.8 3Z" stroke-width="1"></path><path stroke="#000000" stroke-linecap="round" stroke-linejoin="round" stroke-miterlimit="10" d="M5.79999 13.35H18.3" stroke-width="1"></path><path stroke="#000000" stroke-linecap="round" stroke-linejoin="round" stroke-miterlimit="10" d="M9.79999 10.35v6" stroke-width="1"></path><path stroke="#000000" stroke-linecap="round" stroke-linejoin="round" stroke-miterlimit="10" d="M14.3 16.35v-6" stroke-width="1"></path><path stroke="#000000" stroke-linecap="round" stroke-linejoin="round" stroke-miterlimit="10" d="m6.29999 18.75 1.5 3 1.5 -3H10.8l1.5 4.5 1.5 -4.5h1.5l1.5 3 1.5 -3" stroke-width="1"></path><path stroke="#000000" stroke-linecap="round" stroke-linejoin="round" d="M8.24994 7.15622c-0.20711 0 -0.375 -0.16789 -0.375 -0.375s0.16789 -0.375 0.375 -0.375" stroke-width="1"></path><path stroke="#000000" stroke-linecap="round" stroke-linejoin="round" d="M8.24994 7.15622c0.20711 0 0.375 -0.16789 0.375 -0.375s-0.16789 -0.375 -0.375 -0.375" stroke-width="1"></path><path stroke="#000000" stroke-linecap="round" stroke-linejoin="round" d="M15.7501 7.15622c-0.2071 0 -0.375 -0.16789 -0.375 -0.375s0.1679 -0.375 0.375 -0.375" stroke-width="1"></path><path stroke="#000000" stroke-linecap="round" stroke-linejoin="round" d="M15.7501 7.15622c0.2071 0 0.375 -0.16789 0.375 -0.375s-0.1679 -0.375 -0.375 -0.375" stroke-width="1"></path></svg>