<svg xmlns="http://www.w3.org/2000/svg" fill="none" viewBox="0 0 24 24" id="Emoji-Clown-Face--Streamline-Ultimate"><desc>Emoji Clown Face Streamline Icon: https://streamlinehq.com</desc><path stroke="#000000" stroke-linecap="round" stroke-linejoin="round" stroke-miterlimit="10" d="M12 22.25c5.1363 0 9.3 -4.1637 9.3 -9.3 0 -5.13624 -4.1637 -9.29999 -9.3 -9.29999 -5.13622 0 -9.29999 4.16375 -9.29999 9.29999 0 5.1363 4.16377 9.3 9.29999 9.3Z" stroke-width="1"></path><path stroke="#000000" stroke-linecap="round" stroke-linejoin="round" stroke-miterlimit="10" d="M9 16.3438c-0.4 0 -0.7 0.3 -0.6 0.7 0.3 1.5 1.8 2.6 3.6 2.6s3.3 -1.1 3.6 -2.6c0.1 -0.3 -0.2 -0.7 -0.6 -0.7 -2 0.6999 -4 0.6999 -6 0Z" stroke-width="1"></path><path stroke="#000000" stroke-linecap="round" stroke-linejoin="round" stroke-miterlimit="10" d="M12 14.5313c1.215 0 2.2 -0.985 2.2 -2.2 0 -1.2151 -0.985 -2.2 -2.2 -2.2 -1.215 0 -2.20001 0.9849 -2.20001 2.2 0 1.215 0.98501 2.2 2.20001 2.2Z" stroke-width="1"></path><path stroke="#000000" stroke-linecap="round" stroke-linejoin="round" stroke-miterlimit="10" d="M1.19998 9.14998c-0.299998 -0.4 -0.399992 -0.8 -0.399992 -1.3 0 -0.7 0.299992 -1.3 0.799992 -1.7 -0.2 -0.4 -0.4 -0.9 -0.4 -1.4 0 -1.7 1.39998 -3.2 3.19998 -3.2 0.8 0 1.4 0.3 2 0.7 0.4 -0.4 1.00001 -0.7 1.60001 -0.7 0.4 0 0.90001 0.1 1.20001 0.3" stroke-width="1"></path><path stroke="#000000" stroke-linecap="round" stroke-linejoin="round" stroke-miterlimit="10" d="M22.8 9.14999c0.3 -0.4 0.4001 -0.8 0.4001 -1.3 0 -0.7 -0.3 -1.3 -0.8 -1.7 0.2 -0.4 0.3999 -0.89999 0.3999 -1.39999 0 -1.7 -1.3999 -3.2 -3.1999 -3.2 -0.8 0 -1.4 0.3 -2 0.7 -0.4 -0.4 -1 -0.7 -1.6 -0.7 -0.4 0 -0.9001 0.09999 -1.2001 0.29999" stroke-width="1"></path><path stroke="#000000" stroke-linecap="round" stroke-linejoin="round" d="M8.24994 9.14999c-0.20711 0 -0.375 -0.16789 -0.375 -0.375 0 -0.2071 0.16789 -0.375 0.375 -0.375" stroke-width="1"></path><path stroke="#000000" stroke-linecap="round" stroke-linejoin="round" d="M8.24994 9.14999c0.20711 0 0.375 -0.16789 0.375 -0.375 0 -0.2071 -0.16789 -0.375 -0.375 -0.375" stroke-width="1"></path><path stroke="#000000" stroke-linecap="round" stroke-linejoin="round" d="M15.7501 9.14999c-0.2071 0 -0.375 -0.16789 -0.375 -0.375 0 -0.2071 0.1679 -0.375 0.375 -0.375" stroke-width="1"></path><path stroke="#000000" stroke-linecap="round" stroke-linejoin="round" d="M15.7501 9.14999c0.2071 0 0.375 -0.16789 0.375 -0.375 0 -0.2071 -0.1679 -0.375 -0.375 -0.375" stroke-width="1"></path></svg>