<svg xmlns="http://www.w3.org/2000/svg" viewBox="0 0 24 24" id="Emoji-Poo-Funny--Streamline-Ultimate"><desc>Emoji Poo Funny Streamline Icon: https://streamlinehq.com</desc><defs></defs><title>emoji-poo-funny</title><path d="M10.128 12.378a1.247 1.247 0 0 0 -2.151 0" fill="none" stroke="#000000" stroke-linecap="round" stroke-linejoin="round" stroke-width="1"></path><path d="M13.815 12.378a1.245 1.245 0 0 1 2.15 0" fill="none" stroke="#000000" stroke-linecap="round" stroke-linejoin="round" stroke-width="1"></path><path d="M8.849 16.5a3.438 3.438 0 0 0 6.244 0" fill="none" stroke="#000000" stroke-linecap="round" stroke-linejoin="round" stroke-width="1"></path><path d="M19.719 22.5a3.522 3.522 0 0 0 0.4 -7.022 2.987 2.987 0 0 0 -0.73 -5.341C21.818 6.979 16.87 1.5 14 1.5c0 1.887 -1.113 4.022 -3 4.022H8.062c-2.932 0 -3.758 2.467 -2.9 4.493a2.987 2.987 0 0 0 -1.286 5.463 3.522 3.522 0 0 0 0.4 7.022Z" fill="none" stroke="#000000" stroke-linecap="round" stroke-linejoin="round" stroke-width="1"></path></svg>