<svg xmlns="http://www.w3.org/2000/svg" fill="none" viewBox="0 0 24 24" id="Emoji-Hot-Face-Sweat--Streamline-Ultimate"><desc>Emoji Hot Face Sweat Streamline Icon: https://streamlinehq.com</desc><path stroke="#000000" stroke-linecap="round" stroke-linejoin="round" stroke-miterlimit="10" d="M7.75 6.2c1.2 0.8 2.7 0.5 3.4 -0.7" stroke-width="1"></path><path stroke="#000000" stroke-linecap="round" stroke-linejoin="round" stroke-miterlimit="10" d="M17.75 6.2c-1.2 0.8 -2.7 0.5 -3.4 -0.7" stroke-width="1"></path><path stroke="#000000" stroke-linecap="round" stroke-linejoin="round" stroke-miterlimit="10" d="M2.25 12c0 -5.8 4.7 -10.5 10.5 -10.5s10.5 4.7 10.5 10.5 -4.7 10.5 -10.5 10.5c-1.8 0 -3.5 -0.5 -5 -1.3" stroke-width="1"></path><path stroke="#000000" stroke-linecap="round" stroke-linejoin="round" stroke-miterlimit="10" d="M12.7499 20.1c-1.3 0 -2.2999 -1 -2.2999 -2.3v-1.2c0 -0.6 0.4999 -1.1 1.0999 -1.1h2.3c0.6 0 1.1001 0.5 1.1001 1.1v1.2c0.1 1.3 -1.0001 2.3 -2.2001 2.3Z" stroke-width="1"></path><path stroke="#000000" stroke-linecap="round" stroke-linejoin="round" stroke-miterlimit="10" d="m12.7499 17.3437 0 -1.8437" stroke-width="1"></path><path stroke="#000000" stroke-linecap="round" stroke-linejoin="round" stroke-miterlimit="10" d="M5.875 19.5c0 1.4 -1.16477 2.5 -2.5625 2.5S0.75 20.9 0.75 19.5s2.5625 -5 2.5625 -5 2.5625 3.6 2.5625 5Z" stroke-width="1"></path><path stroke="#000000" stroke-linecap="round" stroke-linejoin="round" stroke-miterlimit="10" d="M10.4453 17.5H8.25c-0.5 0 -0.5 -0.9 -0.5 -1.2 0 -1.5 2 -3.6 5 -3.6s5 2.1 5 3.6c0 0.3 0 1.2 -0.5 1.2h-2.3047" stroke-width="1"></path><path stroke="#000000" stroke-linecap="round" stroke-linejoin="round" d="M8.99994 9.89999c-0.20711 0 -0.375 -0.16789 -0.375 -0.375 0 -0.2071 0.16789 -0.375 0.375 -0.375" stroke-width="1"></path><path stroke="#000000" stroke-linecap="round" stroke-linejoin="round" d="M8.99994 9.89999c0.20711 0 0.375 -0.16789 0.375 -0.375 0 -0.2071 -0.16789 -0.375 -0.375 -0.375" stroke-width="1"></path><path stroke="#000000" stroke-linecap="round" stroke-linejoin="round" d="M16.5001 9.89999c-0.2071 0 -0.375 -0.16789 -0.375 -0.375 0 -0.2071 0.1679 -0.375 0.375 -0.375" stroke-width="1"></path><path stroke="#000000" stroke-linecap="round" stroke-linejoin="round" d="M16.5001 9.89999c0.2071 0 0.375 -0.16789 0.375 -0.375 0 -0.2071 -0.1679 -0.375 -0.375 -0.375" stroke-width="1"></path></svg>