<svg xmlns="http://www.w3.org/2000/svg" fill="none" viewBox="0 0 24 24" id="Emoji-Confuse-2--Streamline-Ultimate"><desc>Emoji Confuse 2 Streamline Icon: https://streamlinehq.com</desc><path stroke="#000000" stroke-linecap="round" stroke-linejoin="round" d="M3.31685 18.7523c-1.26415 -1.6255 -2.04666 -3.5732 -2.25849 -5.6214 -0.211825 -2.0483 0.15553 -4.1149 1.06028 -5.96468 0.90474 -1.84978 2.31054 -3.40846 4.05744 -4.49869C7.92297 1.5773 9.94081 0.999298 12 0.999298c2.0592 0 4.077 0.578002 5.8239 1.668232 1.7469 1.09023 3.1527 2.64891 4.0575 4.49869 0.9047 1.84978 1.2721 3.91638 1.0602 5.96468 -0.2118 2.0482 -0.9943 3.9959 -2.2584 5.6214" stroke-width="1"></path><path stroke="#000000" d="M8.20376 11.3896c-0.2025 0 -0.36666 -0.1641 -0.36666 -0.3667 0 -0.2025 0.16416 -0.3666 0.36666 -0.3666" stroke-width="1"></path><path stroke="#000000" d="M8.20377 11.3896c0.2025 0 0.36666 -0.1641 0.36666 -0.3667 0 -0.2025 -0.16416 -0.3666 -0.36666 -0.3666" stroke-width="1"></path><path stroke="#000000" d="M16.2704 11.3896c-0.2025 0 -0.3667 -0.1641 -0.3667 -0.3667 0 -0.2025 0.1642 -0.3666 0.3667 -0.3666" stroke-width="1"></path><path stroke="#000000" d="M16.2704 11.3896c0.2025 0 0.3667 -0.1641 0.3667 -0.3667 0 -0.2025 -0.1642 -0.3666 -0.3667 -0.3666" stroke-width="1"></path><path stroke="#000000" stroke-linecap="round" stroke-linejoin="round" d="M9.19916 5.70969c-0.77092 -0.1678 -1.57602 -0.06742 -2.28214 0.28453 -0.71573 0.33244 -1.2966 0.89917 -1.64657 1.60649" stroke-width="1"></path><path stroke="#000000" stroke-linecap="round" stroke-linejoin="round" d="M14.9211 14.6671c-0.5442 -0.2312 -1.1492 -0.278 -1.7225 -0.133 -0.5733 0.1449 -1.0834 0.4736 -1.4523 0.9358" stroke-width="1"></path><path stroke="#000000" stroke-linecap="round" stroke-linejoin="round" d="M14.8038 7.18418c0.7714 -0.15638 1.5729 -0.05624 2.2822 0.28516 0.7093 0.3414 1.2875 0.90534 1.6465 1.60586" stroke-width="1"></path><path stroke="#000000" stroke-linecap="round" stroke-linejoin="round" d="m5.15701 21.758 2.44445 -0.9778 -0.43316 -1.7864c-0.08376 -0.3452 -0.03347 -0.7094 0.14074 -1.019 0.17421 -0.3095 0.45937 -0.5415 0.79793 -0.6491v0c0.18266 -0.0574 0.37514 -0.0768 0.56559 -0.0571 0.19045 0.0198 0.37484 0.0783 0.54182 0.172 0.16698 0.0937 0.31301 0.2206 0.42911 0.3729 0.1161 0.1522 0.1998 0.3266 0.24597 0.5125l0.37544 1.5165 5.367 -2.1951c0.1644 -0.0673 0.3406 -0.1015 0.5182 -0.1004 0.1777 0.001 0.3534 0.0372 0.517 0.1065 0.1636 0.0692 0.3118 0.1702 0.4363 0.297 0.1244 0.1268 0.2224 0.277 0.2885 0.442v0c0.128 0.3199 0.1284 0.6767 0.001 0.9969 -0.1273 0.3202 -0.3726 0.5793 -0.6854 0.7239l-2.0172 0.9319 0.222 1.5644c0.0181 0.1295 0.0244 0.2605 0.0186 0.3911" stroke-width="1"></path></svg>