<svg xmlns="http://www.w3.org/2000/svg" fill="none" viewBox="0 0 24 24" id="Smiley-Fever--Streamline-Ultimate"><desc>Smiley Fever Streamline Icon: https://streamlinehq.com</desc><path stroke="#000000" stroke-linecap="round" stroke-linejoin="round" d="M21.7193 17.6682c-1.2405 2.1268 -3.1445 3.7879 -5.4199 4.7285 -2.2754 0.9406 -4.7965 1.1088 -7.17668 0.4787 -2.38016 -0.63 -4.48789 -2.0235 -5.9999 -3.9667S0.778023 14.58 0.752206 12.118C0.726389 9.65597 1.50897 7.25348 2.97989 5.27902c1.47093 -1.97445 3.54898 -3.41184 5.9154 -4.09167 2.36641 -0.679832 4.89051 -0.564569 7.18511 0.32811 2.2946 0.89268 4.233 2.51348 5.5179 4.61377" stroke-width="1"></path><path stroke="#000000" d="M7.7663 9.89514c-0.20711 0 -0.375 -0.16789 -0.375 -0.375s0.16789 -0.375 0.375 -0.375" stroke-width="1"></path><path stroke="#000000" d="M7.7663 9.89514c0.2071 0 0.375 -0.16789 0.375 -0.375s-0.1679 -0.375 -0.375 -0.375" stroke-width="1"></path><path stroke="#000000" d="M16.4983 9.89514c-0.2071 0 -0.375 -0.16789 -0.375 -0.375s0.1679 -0.375 0.375 -0.375" stroke-width="1"></path><path stroke="#000000" d="M16.4983 9.89514c0.2071 0 0.375 -0.16789 0.375 -0.375s-0.1679 -0.375 -0.375 -0.375" stroke-width="1"></path><path stroke="#000000" stroke-linecap="round" stroke-linejoin="round" d="M18.0463 18.0022c-0.5586 -1.1272 -1.421 -2.076 -2.4899 -2.7394 -1.069 -0.6633 -2.3021 -1.0148 -3.5601 -1.0148 -1.2581 0 -2.4911 0.3515 -3.56008 1.0148 -1.06897 0.6634 -1.93136 1.6122 -2.48993 2.7394" stroke-width="1"></path><path stroke="#000000" stroke-linecap="round" stroke-linejoin="round" d="M9.26629 6.08614c-0.78875 -0.17192 -1.61257 -0.06925 -2.335 0.291 -0.73167 0.34012 -1.32539 0.91972 -1.683 1.643" stroke-width="1"></path><path stroke="#000000" stroke-linecap="round" stroke-linejoin="round" d="M14.9983 6.08616c0.789 -0.16027 1.6088 -0.05801 2.3343 0.29119 0.7255 0.34919 1.3168 0.92614 1.6837 1.64281" stroke-width="1"></path><path stroke="#000000" stroke-linecap="round" stroke-linejoin="round" d="m17.6713 17.3442 5.138 -5.142c0.2812 -0.2813 0.4392 -0.6628 0.4392 -1.0605 0 -0.3978 -0.158 -0.7792 -0.4392 -1.0605v0c-0.1393 -0.13943 -0.3047 -0.25001 -0.4867 -0.32545 -0.1821 -0.07544 -0.3772 -0.11427 -0.5743 -0.11427 -0.1971 0 -0.3922 0.03883 -0.5742 0.11427 -0.1821 0.07544 -0.3475 0.18602 -0.4868 0.32545l-5.161 5.161" stroke-width="1"></path><path stroke="#000000" stroke-linecap="round" stroke-linejoin="round" d="m18.5663 12.2062 2.121 2.121" stroke-width="1"></path></svg>