<svg xmlns="http://www.w3.org/2000/svg" viewBox="0 0 24 24" id="Smiley-Glasses--Streamline-Ultimate"><desc>Smiley Glasses Streamline Icon: https://streamlinehq.com</desc><defs></defs><title>smiley-glasses</title><path d="M3 5.25a11.252 11.252 0 0 1 18 0" fill="none" stroke="#000000" stroke-linecap="round" stroke-linejoin="round" stroke-width="1"></path><path d="M23.129 10.342A11.251 11.251 0 1 1 0.75 12a11.333 11.333 0 0 1 0.121 -1.658" fill="none" stroke="#000000" stroke-linecap="round" stroke-linejoin="round" stroke-width="1"></path><path d="M5.634 14.25a0.75 0.75 0 0 0 -0.707 1 7.5 7.5 0 0 0 14.146 0 0.75 0.75 0 0 0 -0.707 -1Z" fill="none" stroke="#000000" stroke-linecap="round" stroke-linejoin="round" stroke-width="1"></path><path d="M2.25 5.25h6s1.5 0 1.5 1.5v3s0 1.5 -1.5 1.5h-6s-1.5 0 -1.5 -1.5v-3s0 -1.5 1.5 -1.5" fill="none" stroke="#000000" stroke-linecap="round" stroke-linejoin="round" stroke-width="1"></path><path d="M15.75 5.25h6s1.5 0 1.5 1.5v3s0 1.5 -1.5 1.5h-6s-1.5 0 -1.5 -1.5v-3s0 -1.5 1.5 -1.5" fill="none" stroke="#000000" stroke-linecap="round" stroke-linejoin="round" stroke-width="1"></path><path d="m9.75 8.25 4.5 0" fill="none" stroke="#000000" stroke-linecap="round" stroke-linejoin="round" stroke-width="1"></path></svg>