<svg xmlns="http://www.w3.org/2000/svg" fill="none" viewBox="0 0 24 24" id="Smiley-Sad-Nerd--Streamline-Ultimate"><desc>Smiley Sad Nerd Streamline Icon: https://streamlinehq.com</desc><path stroke="#000000" stroke-linecap="round" stroke-linejoin="round" d="M12 23.25c6.2132 0 11.25 -5.0368 11.25 -11.25S18.2132 0.75 12 0.75 0.75 5.7868 0.75 12 5.7868 23.25 12 23.25Z" stroke-width="1"></path><path stroke="#000000" stroke-linecap="round" stroke-linejoin="round" d="M18.048 18c-0.5586 -1.1272 -1.421 -2.076 -2.4899 -2.7393 -1.069 -0.6634 -2.302 -1.0149 -3.5601 -1.0149 -1.2581 0 -2.49109 0.3515 -3.56007 1.0149C7.36896 15.924 6.50656 16.8728 5.948 18" stroke-width="1"></path><path stroke="#000000" d="M9 7.875c-0.20711 0 -0.375 -0.16789 -0.375 -0.375s0.16789 -0.375 0.375 -0.375" stroke-width="1"></path><path stroke="#000000" d="M9 7.875c0.20711 0 0.375 -0.16789 0.375 -0.375S9.20711 7.125 9 7.125" stroke-width="1"></path><path stroke="#000000" d="M16.5 7.875c-0.2071 0 -0.375 -0.16789 -0.375 -0.375s0.1679 -0.375 0.375 -0.375" stroke-width="1"></path><path stroke="#000000" d="M16.5 7.875c0.2071 0 0.375 -0.16789 0.375 -0.375s-0.1679 -0.375 -0.375 -0.375" stroke-width="1"></path><path stroke="#000000" stroke-linecap="round" stroke-linejoin="round" d="M8.25 12C10.3211 12 12 10.3211 12 8.25c0 -2.07107 -1.6789 -3.75 -3.75 -3.75 -2.07107 0 -3.75 1.67893 -3.75 3.75C4.5 10.3211 6.17893 12 8.25 12Z" stroke-width="1"></path><path stroke="#000000" stroke-linecap="round" stroke-linejoin="round" d="M15.75 12c2.0711 0 3.75 -1.6789 3.75 -3.75 0 -2.07107 -1.6789 -3.75 -3.75 -3.75S12 6.17893 12 8.25c0 2.0711 1.6789 3.75 3.75 3.75Z" stroke-width="1"></path><path stroke="#000000" stroke-linecap="round" stroke-linejoin="round" d="M4.57 7.528 0.75 6" stroke-width="1"></path><path stroke="#000000" stroke-linecap="round" stroke-linejoin="round" d="M19.43 7.528 23.25 6" stroke-width="1"></path></svg>