<svg xmlns="http://www.w3.org/2000/svg" fill="none" viewBox="0 0 24 24" id="Smiley-Head-Patch--Streamline-Ultimate"><desc>Smiley Head Patch Streamline Icon: https://streamlinehq.com</desc><path stroke="#000000" stroke-linecap="round" stroke-linejoin="round" d="M12 0.75c2.225 0 4.4001 0.6598 6.2502 1.89597 1.85 1.23616 3.292 2.99317 4.1434 5.04884 0.8515 2.05567 1.0743 4.31769 0.6402 6.49999 -0.434 2.1823 -1.5055 4.1868 -3.0788 5.7602 -1.5734 1.5733 -3.5779 2.6448 -5.7602 3.0788 -2.1823 0.4341 -4.44432 0.2113 -6.49999 -0.6402 -2.05567 -0.8514 -3.81268 -2.2934 -5.04884 -4.1434C1.4098 16.4001 0.75 14.225 0.75 12" stroke-width="1"></path><path stroke="#000000" d="M16.5565 11.255c-0.2071 0 -0.375 -0.1679 -0.375 -0.375s0.1679 -0.375 0.375 -0.375" stroke-width="1"></path><path stroke="#000000" d="M16.5565 11.255c0.2071 0 0.375 -0.1679 0.375 -0.375s-0.1679 -0.375 -0.375 -0.375" stroke-width="1"></path><path stroke="#000000" stroke-linecap="round" stroke-linejoin="round" d="M18.05 18c-0.5656 -1.1118 -1.4279 -2.0453 -2.4912 -2.6974 -1.0634 -0.6521 -2.2864 -0.9972 -3.5338 -0.9972 -1.2474 0 -2.47041 0.3451 -3.53378 0.9972C7.42786 15.9547 6.56564 16.8882 6 18" stroke-width="1"></path><path stroke="#000000" stroke-linecap="round" stroke-linejoin="round" d="M18.83 8.16998c-0.7873 0.16567 -1.6073 0.0636 -2.33 -0.29 -0.7319 -0.34218 -1.3247 -0.9244 -1.68 -1.65" stroke-width="1"></path><path stroke="#000000" stroke-linecap="round" stroke-linejoin="round" d="M6.60583 1.19843 1.19646 6.6078c-0.585783 0.58578 -0.585783 1.53553 0 2.12132l2.31931 2.31928c0.58579 0.5858 1.53554 0.5858 2.12132 0l5.40941 -5.40934c0.5857 -0.58579 0.5857 -1.53553 0 -2.12132L8.72715 1.19843c-0.58579 -0.585786 -1.53553 -0.585786 -2.12132 0Z" stroke-width="1"></path><path stroke="#000000" stroke-linecap="round" stroke-linejoin="round" d="m5.07001 7.31995 2.25 -2.25" stroke-width="1"></path></svg>