<svg xmlns="http://www.w3.org/2000/svg" fill="none" viewBox="0 0 24 24" id="Smiley-Hypnotized--Streamline-Ultimate"><desc>Smiley Hypnotized Streamline Icon: https://streamlinehq.com</desc><path stroke="#000000" stroke-linecap="round" stroke-linejoin="round" d="M12 23.25c6.2132 0 11.25 -5.0368 11.25 -11.25S18.2132 0.75 12 0.75 0.75 5.7868 0.75 12 5.7868 23.25 12 23.25Z" stroke-width="1"></path><path stroke="#000000" stroke-linecap="round" stroke-linejoin="round" d="M7.5 15c1.65685 0 3 -1.3431 3 -3s-1.34315 -3 -3 -3 -3 1.3431 -3 3 1.34315 3 3 3Z" stroke-width="1"></path><path stroke="#000000" d="M7.5 12.375c-0.20711 0 -0.375 -0.1679 -0.375 -0.375s0.16789 -0.375 0.375 -0.375" stroke-width="1"></path><path stroke="#000000" d="M7.5 12.375c0.20711 0 0.375 -0.1679 0.375 -0.375s-0.16789 -0.375 -0.375 -0.375" stroke-width="1"></path><path stroke="#000000" d="M16.5 12.375c-0.2071 0 -0.375 -0.1679 -0.375 -0.375s0.1679 -0.375 0.375 -0.375" stroke-width="1"></path><path stroke="#000000" d="M16.5 12.375c0.2071 0 0.375 -0.1679 0.375 -0.375s-0.1679 -0.375 -0.375 -0.375" stroke-width="1"></path><path stroke="#000000" stroke-linecap="round" stroke-linejoin="round" d="M16.5 15c1.6569 0 3 -1.3431 3 -3s-1.3431 -3 -3 -3 -3 1.3431 -3 3 1.3431 3 3 3Z" stroke-width="1"></path><path stroke="#000000" stroke-linecap="round" stroke-linejoin="round" d="M9.75 18h4.5" stroke-width="1"></path><path stroke="#000000" stroke-linecap="round" stroke-linejoin="round" d="M9.268 4.816c-0.78875 -0.17192 -1.61257 -0.06925 -2.335 0.291 -0.73167 0.34012 -1.32539 0.91972 -1.683 1.643" stroke-width="1"></path><path stroke="#000000" stroke-linecap="round" stroke-linejoin="round" d="M15 4.81602c0.789 -0.16027 1.6088 -0.05801 2.3343 0.29118 0.7255 0.3492 1.3168 0.92615 1.6837 1.64282" stroke-width="1"></path></svg>