<svg viewBox="0 0 24 24" xmlns="http://www.w3.org/2000/svg" id="Smiley-Nose-Blow--Streamline-Ultimate"><desc>Smiley Nose Blow Streamline Icon: https://streamlinehq.com</desc><path d="M4.535 23.163a1.134 1.134 0 0 0 1.478 -0.6l3.657 -8.358a0.95 0.95 0 0 0 -0.2 -1.053 0.856 0.856 0 0 0 -1.025 -0.142l-7.11 3.98a1.141 1.141 0 0 0 -0.383 1.644A1.375 1.375 0 0 0 2 19.22a1.271 1.271 0 0 0 0 1.836 1.271 1.271 0 0 0 1.836 0s-0.62 1.557 0.699 2.107Z" fill="none" stroke="#000000" stroke-linecap="round" stroke-linejoin="round" stroke-width="1"></path><path d="M0.849 13.5A11.406 11.406 0 0 1 0.75 12a11.238 11.238 0 1 1 9.1 11.044" fill="none" stroke="#000000" stroke-linecap="round" stroke-linejoin="round" stroke-width="1"></path><path d="m6.75 6.75 3 3 -3.75 0" fill="none" stroke="#000000" stroke-linecap="round" stroke-linejoin="round" stroke-width="1"></path><path d="m17.25 6.75 -3 3 3.75 0" fill="none" stroke="#000000" stroke-linecap="round" stroke-linejoin="round" stroke-width="1"></path><path d="M9.453 14.703 12 17.25 14.25 15l2.25 2.25" fill="none" stroke="#000000" stroke-linecap="round" stroke-linejoin="round" stroke-width="1"></path></svg>