<svg xmlns="http://www.w3.org/2000/svg" fill="none" viewBox="0 0 24 24" id="Smiley-Disapointed-1--Streamline-Ultimate"><desc>Smiley Disapointed 1 Streamline Icon: https://streamlinehq.com</desc><path stroke="#000000" stroke-linecap="round" stroke-linejoin="round" d="M12 23.25c6.2132 0 11.25 -5.0368 11.25 -11.25S18.2132 0.75 12 0.75 0.75 5.7868 0.75 12 5.7868 23.25 12 23.25Z" stroke-width="1"></path><path stroke="#000000" stroke-linecap="round" stroke-linejoin="round" d="M15.665 18.75c0.1114 -0.0005 0.2213 -0.0254 0.322 -0.0731 0.1008 -0.0476 0.1898 -0.1168 0.2607 -0.2027 0.071 -0.0859 0.1223 -0.1863 0.1501 -0.2942 0.0279 -0.1078 0.0317 -0.2205 0.0112 -0.33 -0.2076 -1.0162 -0.7597 -1.9295 -1.5631 -2.5854 -0.8034 -0.656 -1.8088 -1.0142 -2.8459 -1.0142 -1.0372 0 -2.04251 0.3582 -2.84592 1.0142 -0.80341 0.6559 -1.35558 1.5692 -1.56311 2.5854 -0.02071 0.1095 -0.01704 0.2222 0.01075 0.3302 0.0278 0.1079 0.07902 0.2084 0.15005 0.2944 0.07102 0.0859 0.16009 0.1551 0.26089 0.2027s0.21084 0.0724 0.32231 0.0727C9.49348 18.2551 10.7402 18 12 18c1.2597 0 2.5065 0.2551 3.665 0.75Z" stroke-width="1"></path><path stroke="#000000" d="M7.76801 9.89294c-0.20711 0 -0.375 -0.16789 -0.375 -0.375 0 -0.2071 0.16789 -0.375 0.375 -0.375" stroke-width="1"></path><path stroke="#000000" d="M7.76801 9.89294c0.2071 0 0.375 -0.16789 0.375 -0.375 0 -0.2071 -0.1679 -0.375 -0.375 -0.375" stroke-width="1"></path><path stroke="#000000" d="M16.5 9.89294c-0.2071 0 -0.375 -0.16789 -0.375 -0.375 0 -0.2071 0.1679 -0.375 0.375 -0.375" stroke-width="1"></path><path stroke="#000000" d="M16.5 9.89294c0.2071 0 0.375 -0.16789 0.375 -0.375 0 -0.2071 -0.1679 -0.375 -0.375 -0.375" stroke-width="1"></path><path stroke="#000000" stroke-linecap="round" stroke-linejoin="round" d="M9.268 6.08395c-0.78875 -0.17193 -1.61257 -0.06926 -2.335 0.291 -0.73167 0.34011 -1.32539 0.91971 -1.683 1.643" stroke-width="1"></path><path stroke="#000000" stroke-linecap="round" stroke-linejoin="round" d="M15 6.08397c0.789 -0.16028 1.6088 -0.05802 2.3343 0.29118 0.7255 0.34919 1.3168 0.92614 1.6837 1.64281" stroke-width="1"></path></svg>