<svg xmlns="http://www.w3.org/2000/svg" fill="none" viewBox="0 0 24 24" id="Smiley-In-Trouble--Streamline-Ultimate"><desc>Smiley In Trouble Streamline Icon: https://streamlinehq.com</desc><path stroke="#000000" stroke-linecap="round" stroke-linejoin="round" d="M23.2295 11.5625c0.006 0.148 0.009 0.297 0.009 0.447 -0.0019 2.4212 -0.7855 4.777 -2.2343 6.7169 -1.4487 1.9398 -3.4851 3.36 -5.8061 4.0492 -2.321 0.6892 -4.8025 0.6105 -7.07521 -0.2243 -2.27267 -0.8348 -4.21503 -2.3812 -5.53799 -4.409C1.26194 16.1146 0.629101 13.7139 0.78057 11.2974c0.151468 -2.41637 1.07915 -4.71928 2.64497 -6.56596 1.56582 -1.84667 3.68608 -3.13838 6.04521 -3.68288C11.8299 0.504055 14.3018 0.735871 16.5185 1.7095" stroke-width="1"></path><path stroke="#000000" stroke-linecap="round" stroke-linejoin="round" d="M18.0365 18.0095c-0.5585 -1.1272 -1.4209 -2.076 -2.4899 -2.7393 -1.069 -0.6634 -2.302 -1.0148 -3.5601 -1.0148 -1.258 0 -2.49107 0.3514 -3.56004 1.0148 -1.06898 0.6633 -1.93137 1.6121 -2.48994 2.7393" stroke-width="1"></path><path stroke="#000000" d="M8.23853 9.38452c-0.20711 0 -0.375 -0.16789 -0.375 -0.375s0.16789 -0.375 0.375 -0.375" stroke-width="1"></path><path stroke="#000000" d="M8.23853 9.38452c0.2071 0 0.375 -0.16789 0.375 -0.375s-0.1679 -0.375 -0.375 -0.375" stroke-width="1"></path><path stroke="#000000" d="M15.7385 9.38452c-0.2071 0 -0.375 -0.16789 -0.375 -0.375s0.1679 -0.375 0.375 -0.375" stroke-width="1"></path><path stroke="#000000" d="M15.7385 9.38452c0.2071 0 0.375 -0.16789 0.375 -0.375s-0.1679 -0.375 -0.375 -0.375" stroke-width="1"></path><path stroke="#000000" stroke-linecap="round" stroke-linejoin="round" d="M23.2385 5.75952c0.0317 0.62951 -0.1873 1.24592 -0.6089 1.71442 -0.4217 0.46849 -1.0117 0.75095 -1.6411 0.78558 -0.6293 -0.03463 -1.2193 -0.31709 -1.641 -0.78558 -0.4216 -0.4685 -0.6406 -1.08491 -0.609 -1.71442 0 -1.381 2.25 -4.999999 2.25 -4.999999s2.25 3.618999 2.25 4.999999Z" stroke-width="1"></path></svg>