<svg viewBox="0 0 24 24" xmlns="http://www.w3.org/2000/svg" id="Smiley-Bright--Streamline-Ultimate"><desc>Smiley Bright Streamline Icon: https://streamlinehq.com</desc><path d="M0.75 12a11.25 11.25 0 1 0 22.5 0 11.25 11.25 0 1 0 -22.5 0Z" fill="none" stroke="#000000" stroke-linecap="round" stroke-linejoin="round" stroke-width="1"></path><path d="M17.1 15.6a6.754 6.754 0 0 1 -5.085 3.118" fill="none" stroke="#000000" stroke-linecap="round" stroke-linejoin="round" stroke-width="1"></path><path d="M16.125 14.625 18 16.5" fill="none" stroke="#000000" stroke-linecap="round" stroke-linejoin="round" stroke-width="1"></path><path d="M7.5 6a8.718 8.718 0 0 1 -2.25 2.625A8.718 8.718 0 0 1 7.5 11.25a8.718 8.718 0 0 1 2.25 -2.625A8.718 8.718 0 0 1 7.5 6" fill="none" stroke="#000000" stroke-linecap="round" stroke-linejoin="round" stroke-width="1"></path><path d="M16.5 6a8.718 8.718 0 0 1 -2.25 2.625 8.718 8.718 0 0 1 2.25 2.625 8.718 8.718 0 0 1 2.25 -2.625A8.718 8.718 0 0 1 16.5 6" fill="none" stroke="#000000" stroke-linecap="round" stroke-linejoin="round" stroke-width="1"></path></svg>