<svg viewBox="0 0 24 24" xmlns="http://www.w3.org/2000/svg" id="Smiley-Rich--Streamline-Ultimate"><desc>Smiley Rich Streamline Icon: https://streamlinehq.com</desc><path d="M0.75 12a11.25 11.25 0 1 0 22.5 0 11.25 11.25 0 1 0 -22.5 0Z" fill="none" stroke="#000000" stroke-linecap="round" stroke-linejoin="round" stroke-width="1"></path><path d="M18.048 15.75a6.752 6.752 0 0 1 -12.1 0" fill="none" stroke="#000000" stroke-linecap="round" stroke-linejoin="round" stroke-width="1"></path><path d="M6.392 10.844a2.221 2.221 0 0 0 1.858 0.875c1.139 0 2.062 -0.693 2.062 -1.547S9.389 8.626 8.25 8.626s-2.063 -0.693 -2.063 -1.548 0.924 -1.547 2.063 -1.547a2.223 2.223 0 0 1 1.858 0.875" fill="none" stroke="#000000" stroke-linecap="round" stroke-linejoin="round" stroke-width="1"></path><path d="m8.25 11.719 0 1.031" fill="none" stroke="#000000" stroke-linecap="round" stroke-linejoin="round" stroke-width="1"></path><path d="m8.25 4.5 0 1.031" fill="none" stroke="#000000" stroke-linecap="round" stroke-linejoin="round" stroke-width="1"></path><path d="M13.892 10.844a2.221 2.221 0 0 0 1.858 0.875c1.139 0 2.062 -0.693 2.062 -1.547s-0.923 -1.546 -2.062 -1.546 -2.063 -0.693 -2.063 -1.548 0.924 -1.547 2.063 -1.547a2.223 2.223 0 0 1 1.858 0.875" fill="none" stroke="#000000" stroke-linecap="round" stroke-linejoin="round" stroke-width="1"></path><path d="m15.75 11.719 0 1.031" fill="none" stroke="#000000" stroke-linecap="round" stroke-linejoin="round" stroke-width="1"></path><path d="m15.75 4.5 0 1.031" fill="none" stroke="#000000" stroke-linecap="round" stroke-linejoin="round" stroke-width="1"></path></svg>