<svg xmlns="http://www.w3.org/2000/svg" fill="none" viewBox="0 0 24 24" id="Smiley-Smile-Face--Streamline-Ultimate"><desc>Smiley Smile Face Streamline Icon: https://streamlinehq.com</desc><path stroke="#000000" stroke-linecap="round" stroke-linejoin="round" d="M22.6496 12.5709c-0.9832 1.9842 -2.5012 3.6544 -4.3829 4.822 -1.8817 1.1676 -4.0521 1.7863 -6.2666 1.7863 -2.21456 0 -4.38502 -0.6187 -6.2667 -1.7863 -1.88167 -1.1676 -3.39971 -2.8378 -4.38294 -4.822" stroke-width="1"></path><path stroke="#000000" d="M6.83235 5.85501c-0.28555 0 -0.51704 -0.23149 -0.51704 -0.51704 0 -0.28556 0.23149 -0.51705 0.51704 -0.51705" stroke-width="1"></path><path stroke="#000000" d="M6.83232 5.85501c0.28556 0 0.51705 -0.23149 0.51705 -0.51704 0 -0.28556 -0.23149 -0.51705 -0.51705 -0.51705" stroke-width="1"></path><path stroke="#000000" d="M17.1732 5.85501c-0.2856 0 -0.5171 -0.23149 -0.5171 -0.51704 0 -0.28556 0.2315 -0.51705 0.5171 -0.51705" stroke-width="1"></path><path stroke="#000000" d="M17.1731 5.85501c0.2856 0 0.5171 -0.23149 0.5171 -0.51704 0 -0.28556 -0.2315 -0.51705 -0.5171 -0.51705" stroke-width="1"></path></svg>