<svg viewBox="0 0 24 24" xmlns="http://www.w3.org/2000/svg" id="Smiley-Lol--Streamline-Ultimate"><desc>Smiley Lol Streamline Icon: https://streamlinehq.com</desc><path d="M6.505 14.25c0.521 3 2.791 5.25 5.513 5.25s4.991 -2.255 5.512 -5.25a23.481 23.481 0 0 1 -11.025 0Z" fill="none" stroke="#000000" stroke-linecap="round" stroke-linejoin="round" stroke-width="1"></path><path d="M18.511 9a2.25 2.25 0 0 0 -4.243 0" fill="none" stroke="#000000" stroke-linecap="round" stroke-linejoin="round" stroke-width="1"></path><path d="M9.768 9a2.25 2.25 0 0 0 -4.243 0" fill="none" stroke="#000000" stroke-linecap="round" stroke-linejoin="round" stroke-width="1"></path><path d="M22.851 9A11.237 11.237 0 0 0 1.185 9" fill="none" stroke="#000000" stroke-linecap="round" stroke-linejoin="round" stroke-width="1"></path><path d="M1.707 16.5a11.25 11.25 0 0 0 20.622 0" fill="none" stroke="#000000" stroke-linecap="round" stroke-linejoin="round" stroke-width="1"></path><path d="M22.884 12.134a1.25 1.25 0 1 1 -1.768 1.766 8.277 8.277 0 0 1 -0.884 -2.652 8.269 8.269 0 0 1 2.652 0.886Z" fill="none" stroke="#000000" stroke-linecap="round" stroke-linejoin="round" stroke-width="1"></path><path d="M1.116 12.134A1.25 1.25 0 1 0 2.884 13.9a8.277 8.277 0 0 0 0.884 -2.652 8.269 8.269 0 0 0 -2.652 0.886Z" fill="none" stroke="#000000" stroke-linecap="round" stroke-linejoin="round" stroke-width="1"></path></svg>