<svg xmlns="http://www.w3.org/2000/svg" fill="none" viewBox="0 0 24 24" id="Smiley-Nauseous-1--Streamline-Ultimate"><desc>Smiley Nauseous 1 Streamline Icon: https://streamlinehq.com</desc><path stroke="#000000" stroke-linecap="round" stroke-linejoin="round" d="M12 23.25c6.2132 0 11.25 -5.0368 11.25 -11.25S18.2132 0.75 12 0.75 0.75 5.7868 0.75 12 5.7868 23.25 12 23.25Z" stroke-width="1"></path><path stroke="#000000" stroke-linecap="round" stroke-linejoin="round" d="M15.578 16.249c-1.0851 -0.6465 -2.3289 -0.9776 -3.5918 -0.956 -1.2629 0.0215 -2.4948 0.3949 -3.55718 1.078" stroke-width="1"></path><path stroke="#000000" stroke-linecap="round" stroke-linejoin="round" d="M18.834 8.16606c-0.789 0.16027 -1.6088 0.05801 -2.3343 -0.29119 -0.7255 -0.34919 -1.3168 -0.92614 -1.6837 -1.64281" stroke-width="1"></path><path stroke="#000000" d="M7.5 11.25c-0.20711 0 -0.375 -0.1679 -0.375 -0.375s0.16789 -0.375 0.375 -0.375" stroke-width="1"></path><path stroke="#000000" d="M7.5 11.25c0.20711 0 0.375 -0.1679 0.375 -0.375S7.70711 10.5 7.5 10.5" stroke-width="1"></path><path stroke="#000000" d="M16.5 11.25c-0.2071 0 -0.375 -0.1679 -0.375 -0.375s0.1679 -0.375 0.375 -0.375" stroke-width="1"></path><path stroke="#000000" d="M16.5 11.25c0.2071 0 0.375 -0.1679 0.375 -0.375s-0.1679 -0.375 -0.375 -0.375" stroke-width="1"></path><path stroke="#000000" stroke-linecap="round" stroke-linejoin="round" d="M5.16602 8.16606c0.78842 0.17185 1.6119 0.06918 2.334 -0.291 0.7319 -0.33978 1.32571 -0.91948 1.683 -1.643" stroke-width="1"></path><path stroke="#000000" stroke-linecap="round" stroke-linejoin="round" d="M7.5 14.25c0.29559 0.2954 0.53008 0.6462 0.69006 1.0322 0.15998 0.3861 0.24233 0.7999 0.24233 1.2178 0 0.4179 -0.08235 0.8317 -0.24233 1.2178 -0.15998 0.386 -0.39447 0.7368 -0.69006 1.0322" stroke-width="1"></path><path stroke="#000000" stroke-linecap="round" stroke-linejoin="round" d="M16.5 14.25c-0.2956 0.2954 -0.5301 0.6462 -0.69 1.0322 -0.16 0.3861 -0.2424 0.7999 -0.2424 1.2178 0 0.4179 0.0824 0.8317 0.2424 1.2178 0.1599 0.386 0.3944 0.7368 0.69 1.0322" stroke-width="1"></path></svg>