<svg xmlns="http://www.w3.org/2000/svg" fill="none" viewBox="0 0 24 24" id="Smiley-Trouble--Streamline-Ultimate"><desc>Smiley Trouble Streamline Icon: https://streamlinehq.com</desc><path stroke="#000000" stroke-linecap="round" stroke-linejoin="round" d="M12 23.25c6.2132 0 11.25 -5.0368 11.25 -11.25S18.2132 0.75 12 0.75 0.75 5.7868 0.75 12 5.7868 23.25 12 23.25Z" stroke-width="1"></path><path stroke="#000000" stroke-linecap="round" stroke-linejoin="round" d="M9.75 17.25h4.5" stroke-width="1"></path><path stroke="#000000" stroke-linecap="round" stroke-linejoin="round" d="M8.25 12.75C10.3211 12.75 12 11.0711 12 9c0 -2.07107 -1.6789 -3.75 -3.75 -3.75C6.17893 5.25 4.5 6.92893 4.5 9c0 2.0711 1.67893 3.75 3.75 3.75Z" stroke-width="1"></path><path stroke="#000000" d="M8.25 8.625c-0.20711 0 -0.375 -0.16789 -0.375 -0.375s0.16789 -0.375 0.375 -0.375" stroke-width="1"></path><path stroke="#000000" d="M8.25 8.625c0.20711 0 0.375 -0.16789 0.375 -0.375s-0.16789 -0.375 -0.375 -0.375" stroke-width="1"></path><path stroke="#000000" d="M15.75 8.625c-0.2071 0 -0.375 -0.16789 -0.375 -0.375s0.1679 -0.375 0.375 -0.375" stroke-width="1"></path><path stroke="#000000" d="M15.75 8.625c0.2071 0 0.375 -0.16789 0.375 -0.375s-0.1679 -0.375 -0.375 -0.375" stroke-width="1"></path><path stroke="#000000" stroke-linecap="round" stroke-linejoin="round" d="M15.75 12.75c2.0711 0 3.75 -1.6789 3.75 -3.75 0 -2.07107 -1.6789 -3.75 -3.75 -3.75S12 6.92893 12 9c0 2.0711 1.6789 3.75 3.75 3.75Z" stroke-width="1"></path></svg>