<svg xmlns="http://www.w3.org/2000/svg" fill="none" viewBox="0 0 24 24" id="Smiley-Liar--Streamline-Ultimate"><desc>Smiley Liar Streamline Icon: https://streamlinehq.com</desc><path stroke="#000000" stroke-linecap="round" stroke-linejoin="round" d="M20.8 19.028c-1.5806 1.9743 -3.7804 3.3583 -6.2442 3.9285 -2.4639 0.5703 -5.0481 0.2936 -7.33539 -0.7854 -2.28729 -1.079 -4.14421 -2.8973 -5.27097 -5.1615 -1.126768 -2.2641 -1.457629 -4.8419 -0.93917 -7.31723 0.51846 -2.47531 1.85598 -4.70367 3.79663 -6.32533C6.74756 1.74537 9.1781 0.825038 11.7061 0.754609c2.5281 -0.070428 5.0061 0.713161 7.034 2.224261 2.028 1.51111 3.4875 3.66154 4.1429 6.10415" stroke-width="1"></path><path stroke="#000000" d="M16.51 9.75c-0.2071 0 -0.375 -0.16789 -0.375 -0.375S16.3029 9 16.51 9" stroke-width="1"></path><path stroke="#000000" d="M16.51 9.75c0.2071 0 0.375 -0.16789 0.375 -0.375S16.7171 9 16.51 9" stroke-width="1"></path><path stroke="#000000" d="M7.77502 9.75c-0.2071 0 -0.375 -0.16789 -0.375 -0.375s0.1679 -0.375 0.375 -0.375" stroke-width="1"></path><path stroke="#000000" d="M7.77502 9.75c0.20711 0 0.375 -0.16789 0.375 -0.375S7.98213 9 7.77502 9" stroke-width="1"></path><path stroke="#000000" stroke-linecap="round" stroke-linejoin="round" d="M9.27801 5.94101c-0.78842 -0.17194 -1.61193 -0.06926 -2.334 0.291 -0.73214 0.33979 -1.32627 0.91945 -1.684 1.643" stroke-width="1"></path><path stroke="#000000" stroke-linecap="round" stroke-linejoin="round" d="M15.01 5.94102c0.789 -0.16027 1.6088 -0.05801 2.3343 0.29118 0.7255 0.3492 1.3168 0.92615 1.6837 1.64282" stroke-width="1"></path><path stroke="#000000" stroke-linecap="round" stroke-linejoin="round" d="M12.76 12.75h8.98c0.3978 0 0.7794 0.158 1.0607 0.4393s0.4393 0.6629 0.4393 1.0607c0 0.3978 -0.158 0.7794 -0.4393 1.0607s-0.6629 0.4393 -1.0607 0.4393h-8.98" stroke-width="1"></path><path stroke="#000000" stroke-linecap="round" stroke-linejoin="round" d="M9.01898 19.5c1.15852 -0.4949 2.40522 -0.75 3.66502 -0.75 1.2598 0 2.5065 0.2551 3.665 0.75" stroke-width="1"></path></svg>