<svg viewBox="0 0 24 24" xmlns="http://www.w3.org/2000/svg" id="Smiley-Sick--Streamline-Ultimate"><desc>Smiley Sick Streamline Icon: https://streamlinehq.com</desc><path d="M23.25 18.353a3.4 3.4 0 0 0 -3.4 -3.4 3.349 3.349 0 0 0 -2.264 0.876c-2.558 2.322 -2.765 -2.332 -4.045 -2.332a0.971 0.971 0 0 0 -0.971 0.971 7.28 7.28 0 0 0 7.28 7.279 3.4 3.4 0 0 0 3.4 -3.394Z" fill="none" stroke="#000000" stroke-linecap="round" stroke-linejoin="round" stroke-width="1"></path><path d="M14.277 23.019A11.251 11.251 0 1 1 23.25 12q0 0.422 -0.031 0.835" fill="none" stroke="#000000" stroke-linecap="round" stroke-linejoin="round" stroke-width="1"></path><path d="M9.95 14.743a4.507 4.507 0 0 0 -2.359 3.1 0.759 0.759 0 0 0 0.744 0.9H10.5" fill="none" stroke="#000000" stroke-linecap="round" stroke-linejoin="round" stroke-width="1"></path><path d="M6 8.947h0a1.8 1.8 0 0 0 3 0h0" fill="none" stroke="#000000" stroke-linecap="round" stroke-linejoin="round" stroke-width="1"></path><path d="M15 8.947h0a1.8 1.8 0 0 0 3 0h0" fill="none" stroke="#000000" stroke-linecap="round" stroke-linejoin="round" stroke-width="1"></path></svg>