<svg viewBox="0 0 24 24" xmlns="http://www.w3.org/2000/svg" id="Smiley-Drool--Streamline-Ultimate"><desc>Smiley Drool Streamline Icon: https://streamlinehq.com</desc><path d="M16.5 18a7.468 7.468 0 0 0 2.85 -4.5H4.65a7.507 7.507 0 0 0 5.937 5.867" fill="none" stroke="#000000" stroke-linecap="round" stroke-linejoin="round" stroke-width="1"></path><path d="M8.215 22.6a11.254 11.254 0 1 1 11.716 -2.619" fill="none" stroke="#000000" stroke-linecap="round" stroke-linejoin="round" stroke-width="1"></path><path d="M9.75 6.834a3.689 3.689 0 0 0 -4.018 1.934" fill="none" stroke="#000000" stroke-linecap="round" stroke-linejoin="round" stroke-width="1"></path><path d="M14.25 6.834a3.689 3.689 0 0 1 4.018 1.934" fill="none" stroke="#000000" stroke-linecap="round" stroke-linejoin="round" stroke-width="1"></path><path d="M11.807 18.347a1.6 1.6 0 0 0 -1.307 1.51v0.679a1.434 1.434 0 0 0 1.5 1.357 1.434 1.434 0 0 0 1.5 -1.357v1.357a1.508 1.508 0 0 0 3 0v-4.754a0.636 0.636 0 0 0 -0.391 -0.572 0.768 0.768 0 0 0 -0.74 0.062 11.268 11.268 0 0 1 -3.562 1.718Z" fill="none" stroke="#000000" stroke-linecap="round" stroke-linejoin="round" stroke-width="1"></path></svg>