<svg viewBox="0 0 24 24" xmlns="http://www.w3.org/2000/svg" id="Smiley-Rage--Streamline-Ultimate"><desc>Smiley Rage Streamline Icon: https://streamlinehq.com</desc><path d="M3.685 17.894a1.4 1.4 0 1 0 -1.261 2.469 1.39 1.39 0 1 0 1.963 1.963 1.4 1.4 0 1 0 2.469 -1.261s1.881 -3.223 3.194 -5.475a0.651 0.651 0 0 0 -0.89 -0.89Z" fill="none" stroke="#000000" stroke-linecap="round" stroke-linejoin="round" stroke-width="1"></path><path d="M1.177 15.08a11.25 11.25 0 1 1 21.688 -0.151" fill="none" stroke="#000000" stroke-linecap="round" stroke-linejoin="round" stroke-width="1"></path><path d="M14.37 23a11.365 11.365 0 0 1 -4.76 0" fill="none" stroke="#000000" stroke-linecap="round" stroke-linejoin="round" stroke-width="1"></path><path d="M6 11.2h0a1.8 1.8 0 0 0 3 0h0" fill="none" stroke="#000000" stroke-linecap="round" stroke-linejoin="round" stroke-width="1"></path><path d="M15 11.2h0a1.8 1.8 0 0 0 3 0h0" fill="none" stroke="#000000" stroke-linecap="round" stroke-linejoin="round" stroke-width="1"></path><path d="m9 8.25 -3.75 -1.5" fill="none" stroke="#000000" stroke-linecap="round" stroke-linejoin="round" stroke-width="1"></path><path d="m15 8.25 3.75 -1.5" fill="none" stroke="#000000" stroke-linecap="round" stroke-linejoin="round" stroke-width="1"></path><path d="M20.315 17.894a1.386 1.386 0 0 1 0.785 -0.242 1.4 1.4 0 0 1 0.476 2.711 1.39 1.39 0 1 1 -1.963 1.963 1.4 1.4 0 1 1 -2.47 -1.261L13.95 15.59a0.651 0.651 0 0 1 0.89 -0.89Z" fill="none" stroke="#000000" stroke-linecap="round" stroke-linejoin="round" stroke-width="1"></path></svg>