<svg xmlns="http://www.w3.org/2000/svg" viewBox="0 0 24 24" id="Smiley-Crying-Rainbow--Streamline-Ultimate"><desc>Smiley Crying Rainbow Streamline Icon: https://streamlinehq.com</desc><defs></defs><title>smiley-crying-rainbow</title><path d="M18.475 9a2.25 2.25 0 0 0 -4.243 0" fill="none" stroke="#000000" stroke-linecap="round" stroke-linejoin="round" stroke-width="1"></path><path d="M9.732 9a2.25 2.25 0 0 0 -4.243 0" fill="none" stroke="#000000" stroke-linecap="round" stroke-linejoin="round" stroke-width="1"></path><path d="M12 14.25h0s1.5 0 1.5 1.5v1.5s0 1.5 -1.5 1.5h0s-1.5 0 -1.5 -1.5v-1.5s0 -1.5 1.5 -1.5" fill="none" stroke="#000000" stroke-linecap="round" stroke-linejoin="round" stroke-width="1"></path><path d="M4.5 12.75v7.5h0a2.25 2.25 0 0 0 -2.25 2.25 0.75 0.75 0 0 0 0.75 0.75h6a0.75 0.75 0 0 0 0.75 -0.75 2.25 2.25 0 0 0 -2.25 -2.25v-7.5" fill="none" stroke="#000000" stroke-linecap="round" stroke-linejoin="round" stroke-width="1"></path><path d="M16.5 12.75v7.5h0a2.25 2.25 0 0 0 -2.25 2.25 0.75 0.75 0 0 0 0.75 0.75h6a0.75 0.75 0 0 0 0.75 -0.75 2.25 2.25 0 0 0 -2.25 -2.25v-7.5" fill="none" stroke="#000000" stroke-linecap="round" stroke-linejoin="round" stroke-width="1"></path><path d="M22.6 15.75a11.251 11.251 0 1 0 -21.193 0" fill="none" stroke="#000000" stroke-linecap="round" stroke-linejoin="round" stroke-width="1"></path></svg>