<svg xmlns="http://www.w3.org/2000/svg" fill="none" viewBox="0 0 24 24" id="Smiley-Decode--Streamline-Ultimate"><desc>Smiley Decode Streamline Icon: https://streamlinehq.com</desc><path stroke="#000000" stroke-linecap="round" stroke-linejoin="round" d="M21.75 18.75h-3v3h3v-3Z" stroke-width="1"></path><path stroke="#000000" stroke-linecap="round" stroke-linejoin="round" d="M9.75 21.75h-3" stroke-width="1"></path><path stroke="#000000" stroke-linecap="round" stroke-linejoin="round" d="M8.25 21.75v-3" stroke-width="1"></path><path stroke="#000000" stroke-linecap="round" stroke-linejoin="round" d="m12.75 21.75 1.5 -3 1.5 3" stroke-width="1"></path><path stroke="#000000" stroke-linecap="round" stroke-linejoin="round" d="M0.775024 12.7501C0.965181 9.90246 2.23048 7.23358 4.31466 5.28394 6.39884 3.3343 9.1461 2.24963 12 2.24963c2.854 0 5.6012 1.08467 7.6854 3.03431 2.0842 1.94964 3.3495 4.61852 3.5396 7.46616" stroke-width="1"></path><path stroke="#000000" d="M7.28503 11.3929c-0.2071 0 -0.375 -0.1678 -0.375 -0.375 0 -0.2071 0.1679 -0.375 0.375 -0.375" stroke-width="1"></path><path stroke="#000000" d="M7.28503 11.3929c0.20711 0 0.375 -0.1678 0.375 -0.375 0 -0.2071 -0.16789 -0.375 -0.375 -0.375" stroke-width="1"></path><path stroke="#000000" d="M17.25 11.3929c-0.2071 0 -0.375 -0.1678 -0.375 -0.375 0 -0.2071 0.1679 -0.375 0.375 -0.375" stroke-width="1"></path><path stroke="#000000" d="M17.25 11.3929c0.2071 0 0.375 -0.1678 0.375 -0.375 0 -0.2071 -0.1679 -0.375 -0.375 -0.375" stroke-width="1"></path><path stroke="#000000" stroke-linecap="round" stroke-linejoin="round" d="M6 7.58395c0.78842 -0.17193 1.61193 -0.06926 2.334 0.291 0.73214 0.3398 1.32627 0.91946 1.684 1.643" stroke-width="1"></path><path stroke="#000000" stroke-linecap="round" stroke-linejoin="round" d="M18.268 7.58398c-0.789 -0.16061 -1.609 -0.0585 -2.3345 0.29073 -0.7256 0.34923 -1.3168 0.92638 -1.6835 1.64327" stroke-width="1"></path><path stroke="#000000" stroke-linecap="round" stroke-linejoin="round" d="M0.75 15.75h22.5" stroke-width="1"></path><path stroke="#000000" stroke-linecap="round" stroke-linejoin="round" d="m0.75 18.75 3 3" stroke-width="1"></path><path stroke="#000000" stroke-linecap="round" stroke-linejoin="round" d="m0.75 21.75 3 -3" stroke-width="1"></path></svg>