<svg xmlns="http://www.w3.org/2000/svg" fill="none" viewBox="0 0 24 24" id="Smiley-Cowboy--Streamline-Ultimate"><desc>Smiley Cowboy Streamline Icon: https://streamlinehq.com</desc><path stroke="#000000" stroke-linecap="round" stroke-linejoin="round" d="m19.826 7.50513 -1.693 -4.673c-0.1818 -0.58353 -0.5399 -1.09646 -1.0249 -1.46835C16.623 0.991893 16.0347 0.779276 15.424 0.755127H8.57601C7.96528 0.779276 7.377 0.991893 6.89195 1.36378c-0.48505 0.37189 -0.84309 0.88482 -1.02494 1.46835l-1.693 4.673" stroke-width="1"></path><path stroke="#000000" stroke-linecap="round" stroke-linejoin="round" d="M22.6728 3.66418c0.3759 0.44422 0.5792 1.00904 0.5728 1.591 0.036 0.55724 -0.1492 1.10618 -0.5156 1.52751 -0.3663 0.42132 -0.884 0.68097 -1.4407 0.72249H2.70966c-0.55645 -0.04177 -1.07395 -0.30152 -1.44005 -0.72282 -0.366108 -0.4213 -0.551241 -0.9701 -0.515178 -1.52718 -0.006443 -0.58196 0.196894 -1.14678 0.572778 -1.591" stroke-width="1"></path><path stroke="#000000" stroke-linecap="round" stroke-linejoin="round" d="M21.337 10.6911c0.4383 1.4596 0.5283 3.0016 0.2629 4.5022 -0.2655 1.5007 -0.879 2.9182 -1.7914 4.1389 -0.9123 1.2206 -2.0981 2.2104 -3.4622 2.8899s-2.8684 1.0298 -4.3924 1.0228c-1.5239 -0.007 -3.02495 -0.3712 -4.3827 -1.0632 -1.35774 -0.6921 -2.53436 -1.6928 -3.43542 -2.9218 -0.90106 -1.229 -1.50149 -2.6522 -1.75308 -4.1552 -0.2516 -1.503 -0.14737 -3.0441 0.30433 -4.4996" stroke-width="1"></path><path stroke="#000000" stroke-linecap="round" stroke-linejoin="round" d="M6.97401 15.0051c-0.11997 0 -0.23819 0.0288 -0.34474 0.084 -0.10654 0.0552 -0.19829 0.1351 -0.26755 0.2331 -0.06926 0.0979 -0.11401 0.2111 -0.13049 0.3299 -0.01648 0.1189 -0.00421 0.2399 0.03578 0.353 0.39586 1.2161 1.16058 2.2787 2.18795 3.0404 1.02738 0.7616 2.26644 1.1844 3.54504 1.2096 1.2783 -0.0258 2.5168 -0.4488 3.5437 -1.2104 1.027 -0.7616 1.7914 -1.8239 2.1873 -3.0396 0.0398 -0.1132 0.0519 -0.2342 0.0352 -0.3531 -0.0166 -0.1188 -0.0614 -0.2319 -0.1308 -0.3298 -0.0693 -0.098 -0.1611 -0.1778 -0.2676 -0.233 -0.1066 -0.0552 -0.2248 -0.084 -0.3448 -0.0841H6.97401Z" stroke-width="1"></path><path stroke="#000000" d="M8.24902 11.2551c-0.2071 0 -0.375 -0.1679 -0.375 -0.375s0.1679 -0.375 0.375 -0.375" stroke-width="1"></path><path stroke="#000000" d="M8.24902 11.2551c0.20711 0 0.375 -0.1679 0.375 -0.375s-0.16789 -0.375 -0.375 -0.375" stroke-width="1"></path><g><path stroke="#000000" d="M15.749 11.2551c-0.2071 0 -0.375 -0.1679 -0.375 -0.375s0.1679 -0.375 0.375 -0.375" stroke-width="1"></path><path stroke="#000000" d="M15.749 11.2551c0.2071 0 0.375 -0.1679 0.375 -0.375s-0.1679 -0.375 -0.375 -0.375" stroke-width="1"></path></g></svg>