<svg viewBox="0 0 24 24" xmlns="http://www.w3.org/2000/svg" id="Smiley-Drop--Streamline-Ultimate"><desc>Smiley Drop Streamline Icon: https://streamlinehq.com</desc><path d="M23.241 11.553q0.009 0.222 0.009 0.447a11.24 11.24 0 1 1 -6.72 -10.3" fill="none" stroke="#000000" stroke-linecap="round" stroke-linejoin="round" stroke-width="1"></path><path d="M18.048 18a6.752 6.752 0 0 0 -12.1 0" fill="none" stroke="#000000" stroke-linecap="round" stroke-linejoin="round" stroke-width="1"></path><path d="M18.493 10.5a2.25 2.25 0 0 0 -4.243 0" fill="none" stroke="#000000" stroke-linecap="round" stroke-linejoin="round" stroke-width="1"></path><path d="M9.75 10.5a2.25 2.25 0 0 0 -4.243 0" fill="none" stroke="#000000" stroke-linecap="round" stroke-linejoin="round" stroke-width="1"></path><path d="M23.25 5.75A2.384 2.384 0 0 1 21 8.25a2.384 2.384 0 0 1 -2.25 -2.5c0 -1.381 2.25 -5 2.25 -5s2.25 3.619 2.25 5Z" fill="none" stroke="#000000" stroke-linecap="round" stroke-linejoin="round" stroke-width="1"></path></svg>