<svg xmlns="http://www.w3.org/2000/svg" fill="none" viewBox="0 0 24 24" id="Smiley-Shout--Streamline-Ultimate"><desc>Smiley Shout Streamline Icon: https://streamlinehq.com</desc><path stroke="#000000" stroke-linecap="round" stroke-linejoin="round" d="M13.5 17.25c0 -0.8284 -0.6716 -1.5 -1.5 -1.5s-1.5 0.6716 -1.5 1.5v1.5c0 0.8284 0.6716 1.5 1.5 1.5s1.5 -0.6716 1.5 -1.5v-1.5Z" stroke-width="1"></path><path stroke="#000000" d="M7.5 9.375c-0.20711 0 -0.375 -0.16789 -0.375 -0.375s0.16789 -0.375 0.375 -0.375" stroke-width="1"></path><path stroke="#000000" d="M7.5 9.375c0.20711 0 0.375 -0.16789 0.375 -0.375s-0.16789 -0.375 -0.375 -0.375" stroke-width="1"></path><path stroke="#000000" d="M16.5 9.375c-0.2071 0 -0.375 -0.16789 -0.375 -0.375s0.1679 -0.375 0.375 -0.375" stroke-width="1"></path><path stroke="#000000" d="M16.5 9.375c0.2071 0 0.375 -0.16789 0.375 -0.375s-0.1679 -0.375 -0.375 -0.375" stroke-width="1"></path><path stroke="#000000" stroke-linecap="round" stroke-linejoin="round" d="M6 6.05306c0.16419 -0.24753 0.38709 -0.45058 0.64882 -0.59104 0.26172 -0.14046 0.55414 -0.21397 0.85118 -0.21397 0.29704 0 0.58946 0.07351 0.85118 0.21397 0.26173 0.14046 0.48463 0.34351 0.64882 0.59104" stroke-width="1"></path><path stroke="#000000" stroke-linecap="round" stroke-linejoin="round" d="M15 6.05306c0.1642 -0.24753 0.3871 -0.45058 0.6488 -0.59104 0.2617 -0.14046 0.5542 -0.21397 0.8512 -0.21397 0.297 0 0.5895 0.07351 0.8512 0.21397 0.2617 0.14046 0.4846 0.34351 0.6488 0.59104" stroke-width="1"></path><path stroke="#000000" stroke-linecap="round" stroke-linejoin="round" d="M12 23.25c6.2132 0 11.25 -5.0368 11.25 -11.25S18.2132 0.75 12 0.75 0.75 5.7868 0.75 12 5.7868 23.25 12 23.25Z" stroke-width="1"></path><path stroke="#000000" stroke-linecap="round" stroke-linejoin="round" d="M9.75 12.75h0.75" stroke-width="1"></path><path stroke="#000000" stroke-linecap="round" stroke-linejoin="round" d="M13.5 12.75h0.75" stroke-width="1"></path></svg>