<svg viewBox="0 0 24 24" xmlns="http://www.w3.org/2000/svg" id="Smiley-Crazy-Tongue--Streamline-Ultimate"><desc>Smiley Crazy Tongue Streamline Icon: https://streamlinehq.com</desc><path d="M6.756 21.956a11.25 11.25 0 1 1 10.494 0" fill="none" stroke="#000000" stroke-linecap="round" stroke-linejoin="round" stroke-width="1"></path><path d="m6.75 6.75 3 3 -3.75 0" fill="none" stroke="#000000" stroke-linecap="round" stroke-linejoin="round" stroke-width="1"></path><path d="m17.25 6.75 -3 3 3.75 0" fill="none" stroke="#000000" stroke-linecap="round" stroke-linejoin="round" stroke-width="1"></path><path d="M15 19.626a7.522 7.522 0 0 0 4.35 -5.376H4.65A7.522 7.522 0 0 0 9 19.626" fill="none" stroke="#000000" stroke-linecap="round" stroke-linejoin="round" stroke-width="1"></path><path d="M12 23.25h0a3 3 0 0 1 -3 -3v-1.5a1.5 1.5 0 0 1 1.5 -1.5h3a1.5 1.5 0 0 1 1.5 1.5v1.5a3 3 0 0 1 -3 3Z" fill="none" stroke="#000000" stroke-linecap="round" stroke-linejoin="round" stroke-width="1"></path></svg>