<svg viewBox="0 0 24 24" xmlns="http://www.w3.org/2000/svg" id="Smiley-Devastated-1--Streamline-Ultimate"><desc>Smiley Devastated 1 Streamline Icon: https://streamlinehq.com</desc><path d="M0.75 12a11.25 11.25 0 1 0 22.5 0 11.25 11.25 0 1 0 -22.5 0Z" fill="none" stroke="#000000" stroke-linecap="round" stroke-linejoin="round" stroke-width="1"></path><path d="M6 11.2h0a1.8 1.8 0 0 0 3 0h0" fill="none" stroke="#000000" stroke-linecap="round" stroke-linejoin="round" stroke-width="1"></path><path d="M15 11.2h0a1.8 1.8 0 0 0 3 0h0" fill="none" stroke="#000000" stroke-linecap="round" stroke-linejoin="round" stroke-width="1"></path><path d="M15.756 18.9a0.76 0.76 0 0 0 0.744 -0.9 4.5 4.5 0 0 0 -8.819 0 0.76 0.76 0 0 0 0.745 0.9 9.33 9.33 0 0 1 7.33 0Z" fill="none" stroke="#000000" stroke-linecap="round" stroke-linejoin="round" stroke-width="1"></path><path d="M5.25 8.166a3.539 3.539 0 0 0 2.334 -0.291 3.542 3.542 0 0 0 1.684 -1.643" fill="none" stroke="#000000" stroke-linecap="round" stroke-linejoin="round" stroke-width="1"></path><path d="M18.834 8.166a3.689 3.689 0 0 1 -4.018 -1.934" fill="none" stroke="#000000" stroke-linecap="round" stroke-linejoin="round" stroke-width="1"></path></svg>