<svg xmlns="http://www.w3.org/2000/svg" fill="none" viewBox="0 0 24 24" id="Smiley-Head-Sick--Streamline-Ultimate"><desc>Smiley Head Sick Streamline Icon: https://streamlinehq.com</desc><path stroke="#000000" stroke-linecap="round" stroke-linejoin="round" d="M12 23.25c6.2132 0 11.25 -5.0368 11.25 -11.25S18.2132 0.75 12 0.75 0.75 5.7868 0.75 12 5.7868 23.25 12 23.25Z" stroke-width="1"></path><path stroke="#000000" stroke-linecap="round" stroke-linejoin="round" d="M18.05 18c-0.5656 -1.1118 -1.4279 -2.0453 -2.4912 -2.6974 -1.0634 -0.6521 -2.2864 -0.9972 -3.5338 -0.9972 -1.2474 0 -2.47041 0.3451 -3.53378 0.9972C7.42786 15.9547 6.56564 16.8882 6 18" stroke-width="1"></path><path stroke="#000000" d="M7.43359 11.255c-0.2071 0 -0.375 -0.1679 -0.375 -0.375s0.1679 -0.375 0.375 -0.375" stroke-width="1"></path><path stroke="#000000" d="M7.43359 11.255c0.20711 0 0.375 -0.1679 0.375 -0.375s-0.16789 -0.375 -0.375 -0.375" stroke-width="1"></path><g><path stroke="#000000" d="M16.5664 11.255c-0.2071 0 -0.375 -0.1679 -0.375 -0.375s0.1679 -0.375 0.375 -0.375" stroke-width="1"></path><path stroke="#000000" d="M16.5664 11.255c0.2071 0 0.375 -0.1679 0.375 -0.375s-0.1679 -0.375 -0.375 -0.375" stroke-width="1"></path></g><path stroke="#000000" stroke-linecap="round" stroke-linejoin="round" d="M21.95 6.75H8.25" stroke-width="1"></path><path stroke="#000000" stroke-linecap="round" stroke-linejoin="round" d="m0.75 12.0001 15.1 -10.57005" stroke-width="1"></path></svg>