<svg xmlns="http://www.w3.org/2000/svg" fill="none" viewBox="0 0 24 24" id="Smiley-Kiss-Heart--Streamline-Ultimate"><desc>Smiley Kiss Heart Streamline Icon: https://streamlinehq.com</desc><path stroke="#000000" stroke-linecap="round" stroke-linejoin="round" d="m18.7753 23.2375 -1.573 -3.6c-0.1418 -0.3067 -0.1834 -0.6503 -0.1189 -0.982 0.0644 -0.3317 0.2316 -0.6347 0.4779 -0.866v0c0.186 -0.1746 0.4107 -0.3025 0.6558 -0.3731 0.2451 -0.0707 0.5034 -0.0821 0.7538 -0.0332 0.2503 0.0488 0.4855 0.1565 0.686 0.314 0.2006 0.1576 0.3608 0.3606 0.4674 0.5923l0.264 0.57 0.57 -0.263c0.2315 -0.1069 0.4851 -0.1573 0.7399 -0.147 0.2548 0.0102 0.5035 0.0808 0.7256 0.206 0.2221 0.1252 0.4114 0.3014 0.5521 0.514 0.1408 0.2126 0.229 0.4556 0.2574 0.709v0c0.0375 0.3359 -0.0317 0.675 -0.1977 0.9693 -0.166 0.2944 -0.4205 0.529 -0.7273 0.6707l-3.533 1.719Z" stroke-width="1"></path><path stroke="#000000" stroke-linecap="round" stroke-linejoin="round" d="M15.1583 22.7876c-2.4136 0.7071 -4.9946 0.5844 -7.33019 -0.3485 -2.33562 -0.9329 -4.29091 -2.6222 -5.55314 -4.7975C1.01275 15.4662 0.516503 12.9304 0.865616 10.4397 1.21473 7.94899 2.38903 5.64732 4.20069 3.90281 6.01236 2.1583 8.35672 1.07173 10.8588 0.816899c2.5021 -0.254832 5.0174 0.336791 7.1436 1.680251 2.1261 1.34345 3.7403 3.36112 4.5844 5.73029 0.8441 2.36916 0.8693 4.95296 0.0715 7.33816" stroke-width="1"></path><path stroke="#000000" d="M8.24335 8.98755c-0.20711 0 -0.375 -0.16789 -0.375 -0.375s0.16789 -0.375 0.375 -0.375" stroke-width="1"></path><path stroke="#000000" d="M8.24335 8.98755c0.2071 0 0.375 -0.16789 0.375 -0.375s-0.1679 -0.375 -0.375 -0.375" stroke-width="1"></path><path stroke="#000000" stroke-linecap="round" stroke-linejoin="round" d="M14.2433 8.98751c0.1642 -0.24753 0.3871 -0.45058 0.6489 -0.59104 0.2617 -0.14047 0.5541 -0.21397 0.8511 -0.21397 0.2971 0 0.5895 0.0735 0.8512 0.21397 0.2618 0.14046 0.4847 0.34351 0.6488 0.59104v0" stroke-width="1"></path><path stroke="#000000" stroke-linecap="round" stroke-linejoin="round" d="M11.2433 19.4875h1.5c0.3979 0 0.7794 -0.158 1.0607 -0.4393s0.4393 -0.6628 0.4393 -1.0607c0 -0.3978 -0.158 -0.7793 -0.4393 -1.0606s-0.6628 -0.4394 -1.0607 -0.4394c0.3979 0 0.7794 -0.158 1.0607 -0.4393s0.4393 -0.6628 0.4393 -1.0607c0 -0.3978 -0.158 -0.7793 -0.4393 -1.0606s-0.6628 -0.4394 -1.0607 -0.4394h-1.5" stroke-width="1"></path></svg>