<svg xmlns="http://www.w3.org/2000/svg" fill="none" viewBox="0 0 24 24" id="Smoji-Pleading-Face--Streamline-Ultimate"><desc>Smoji Pleading Face Streamline Icon: https://streamlinehq.com</desc><path stroke="#000000" stroke-linecap="round" stroke-linejoin="round" stroke-miterlimit="10" d="M13.45 16.75c-0.9 -0.3 -2.1 -0.3 -3 0" stroke-width="1"></path><path stroke="#000000" stroke-linecap="round" stroke-linejoin="round" stroke-miterlimit="10" d="M4.95001 6.24999c0.9 0.1 2 -0.4 2.4 -1.3" stroke-width="1"></path><path stroke="#000000" stroke-linecap="round" stroke-linejoin="round" stroke-miterlimit="10" d="M18.95 6.24999c-0.9 0.1 -2 -0.4 -2.4 -1.3" stroke-width="1"></path><path stroke="#000000" stroke-linecap="round" stroke-linejoin="round" stroke-miterlimit="10" d="M12 23.25c6.2132 0 11.25 -5.0368 11.25 -11.25C23.25 5.78679 18.2132 0.749996 12 0.749996 5.78681 0.749996 0.75 5.78679 0.75 12c0 6.2132 5.03681 11.25 11.25 11.25Z" stroke-width="1"></path><path stroke="#000000" stroke-linecap="round" stroke-linejoin="round" stroke-miterlimit="10" d="M16.65 14.95c1.7673 0 3.2 -1.4327 3.2 -3.2 0 -1.76731 -1.4327 -3.2 -3.2 -3.2s-3.2 1.43269 -3.2 3.2c0 1.7673 1.4327 3.2 3.2 3.2Z" stroke-width="1"></path><path stroke="#000000" stroke-linecap="round" stroke-linejoin="round" stroke-miterlimit="10" d="M7.14999 14.95c1.76731 0 3.20001 -1.4327 3.20001 -3.2 0 -1.76731 -1.4327 -3.2 -3.20001 -3.2 -1.76731 0 -3.19998 1.43269 -3.19998 3.2 0 1.7673 1.43267 3.2 3.19998 3.2Z" stroke-width="1"></path><path stroke="#000000" stroke-linecap="round" stroke-linejoin="round" stroke-miterlimit="10" d="M17.65 12.55c0.9941 0 1.8 -0.8059 1.8 -1.8 0 -0.99412 -0.8059 -1.80001 -1.8 -1.80001 -0.9941 0 -1.8 0.80589 -1.8 1.80001 0 0.9941 0.8059 1.8 1.8 1.8Z" stroke-width="1"></path><path stroke="#000000" stroke-linecap="round" stroke-linejoin="round" stroke-miterlimit="10" d="M8.14996 12.55c0.99412 0 1.80002 -0.8059 1.80002 -1.8 0 -0.99412 -0.8059 -1.80001 -1.80002 -1.80001 -0.99411 0 -1.79998 0.80589 -1.79998 1.80001 0 0.9941 0.80587 1.8 1.79998 1.8Z" stroke-width="1"></path></svg>