<svg xmlns="http://www.w3.org/2000/svg" fill="none" viewBox="0 0 24 24" id="Checkup-Person-Chart--Streamline-Ultimate"><desc>Checkup Person Chart Streamline Icon: https://streamlinehq.com</desc><path stroke="#000000" stroke-linecap="round" stroke-linejoin="round" d="M20.1665 10.6411h1.5093c0.2668 0 0.5227 0.106 0.7114 0.2947 0.1887 0.1887 0.2947 0.4446 0.2947 0.7115v10.0618c0 0.2669 -0.106 0.5228 -0.2947 0.7115 -0.1887 0.1887 -0.4446 0.2947 -0.7114 0.2947h-8.0495c-0.2669 0 -0.5228 -0.106 -0.7115 -0.2947 -0.1887 -0.1887 -0.2947 -0.4446 -0.2947 -0.7115V11.6473c0 -0.2669 0.106 -0.5228 0.2947 -0.7115 0.1887 -0.1887 0.4446 -0.2947 0.7115 -0.2947h1.5093" stroke-width="1"></path><path stroke="#000000" stroke-linecap="round" stroke-linejoin="round" d="M19.1608 9.21234h-3.0185c-0.5557 0 -1.0062 0.45048 -1.0062 1.00616v1.0432c0 0.5557 0.4505 1.0061 1.0062 1.0061h3.0185c0.5557 0 1.0062 -0.4504 1.0062 -1.0061v-1.0432c0 -0.55568 -0.4505 -1.00616 -1.0062 -1.00616Z" stroke-width="1"></path><path stroke="#000000" stroke-linecap="round" stroke-linejoin="round" d="M17.6511 15.051v4.902" stroke-width="1"></path><path stroke="#000000" stroke-linecap="round" stroke-linejoin="round" d="M20.1028 17.5021h-4.902" stroke-width="1"></path><path stroke="#000000" stroke-linecap="round" stroke-linejoin="round" d="M8.69718 9.5367c2.32252 0 4.20522 -1.88275 4.20522 -4.20524s-1.8827 -4.20524 -4.20522 -4.20524c-2.32249 0 -4.20524 1.88275 -4.20524 4.20524S6.37469 9.5367 8.69718 9.5367Z" stroke-width="1"></path><path stroke="#000000" stroke-linecap="round" stroke-linejoin="round" d="M9.03947 21.3114H1.12769l0 -0.912c0.01339 -1.2821 0.35152 -2.5399 0.9828 -3.6559 0.63128 -1.116 1.53513 -2.0538 2.6271 -2.7257 1.09197 -0.672 2.33645 -1.0563 3.61719 -1.1169" stroke-width="1"></path></svg>