<svg xmlns="http://www.w3.org/2000/svg" fill="none" viewBox="0 0 24 24" id="Eye-Checkup-Chart-Cross-2--Streamline-Ultimate"><desc>Eye Checkup Chart Cross 2 Streamline Icon: https://streamlinehq.com</desc><path stroke="#000000" stroke-linecap="round" stroke-linejoin="round" d="M9.64951 9.16173c1.37509 0 2.48989 -1.11474 2.48989 -2.48985 0 -1.3751 -1.1148 -2.48984 -2.48989 -2.48984 -1.3751 0 -2.48984 1.11474 -2.48984 2.48984 0 1.37511 1.11474 2.48985 2.48984 2.48985Z" stroke-width="1"></path><path stroke="#000000" stroke-linecap="round" stroke-linejoin="round" stroke-miterlimit="10" d="M8.81982 11.9958c-3.29237 -0.3836 -5.99204 -2.94597 -7.23309 -4.41964 -0.48869 -0.53194 -0.48869 -1.27667 0 -1.80861 1.34391 -1.48943 4.39823 -4.4683 8.06343 -4.4683 3.66524 0 6.71954 2.97887 8.06344 4.4683 0.2529 0.27531 0.375 0.60763 0.3661 0.93794" stroke-width="1"></path><path stroke="#000000" stroke-linecap="round" stroke-linejoin="round" d="M20.2505 10.5589h1.5177c0.2684 0 0.5257 0.1066 0.7155 0.2963 0.1897 0.1898 0.2963 0.4472 0.2963 0.7155v10.1182c0 0.2683 -0.1066 0.5257 -0.2963 0.7154 -0.1898 0.1898 -0.4471 0.2964 -0.7155 0.2964h-8.0945c-0.2684 0 -0.5257 -0.1066 -0.7155 -0.2964 -0.1897 -0.1897 -0.2963 -0.4471 -0.2963 -0.7154V11.5707c0 -0.2683 0.1066 -0.5257 0.2963 -0.7155 0.1898 -0.1897 0.4471 -0.2963 0.7155 -0.2963h1.5177" stroke-width="1"></path><path stroke="#000000" stroke-linecap="round" stroke-linejoin="round" d="M19.2392 9.12218h-3.0355c-0.5588 0 -1.0118 0.453 -1.0118 1.01182v1.049c0 0.5588 0.453 1.0118 1.0118 1.0118h3.0355c0.5588 0 1.0118 -0.453 1.0118 -1.0118v-1.049c0 -0.55882 -0.453 -1.01182 -1.0118 -1.01182Z" stroke-width="1"></path><path stroke="#000000" stroke-linecap="round" stroke-linejoin="round" d="M17.7207 14.9937v4.9294" stroke-width="1"></path><path stroke="#000000" stroke-linecap="round" stroke-linejoin="round" d="M20.1865 17.4585h-4.9294" stroke-width="1"></path></svg>