<svg xmlns="http://www.w3.org/2000/svg" fill="none" viewBox="0 0 24 24" id="Eye-Checkup-Chart-1--Streamline-Ultimate"><desc>Eye Checkup Chart 1 Streamline Icon: https://streamlinehq.com</desc><path stroke="#000000" stroke-linecap="round" stroke-linejoin="round" d="M11.3298 22.9282H3.00938c-0.44589 0 -0.87353 -0.1771 -1.18883 -0.4924 -0.31529 -0.3153 -0.49242 -0.743 -0.49243 -1.1889V4.43434c0 -0.4459 0.17714 -0.87353 0.49243 -1.18883 0.3153 -0.3153 0.74294 -0.49243 1.18883 -0.49243h2.52189" stroke-width="1"></path><path stroke="#000000" stroke-linecap="round" stroke-linejoin="round" d="M12.2564 1.07181H7.21263c-0.92853 0 -1.68126 0.75272 -1.68126 1.68126v0.84063c0 0.92853 0.75273 1.68125 1.68126 1.68125h5.04377c0.9285 0 1.6813 -0.75272 1.6813 -1.68125v-0.84063c0 -0.92854 -0.7528 -1.68126 -1.6813 -1.68126Z" stroke-width="1"></path><path stroke="#000000" stroke-linecap="round" stroke-linejoin="round" d="M15.5732 13.5614s-2.9193 3.6491 -5.83862 3.6491c-2.91929 0 -5.83858 -3.6491 -5.83858 -3.6491s2.91929 -3.64911 5.83858 -3.64911c2.91932 0 5.83862 3.64911 5.83862 3.64911Z" stroke-width="1"></path><path stroke="#000000" stroke-linecap="round" stroke-linejoin="round" d="m22.6718 15.6843 -5.4395 7.2439 -3.6219 -2.7132" stroke-width="1"></path><path stroke="#000000" stroke-linecap="round" stroke-linejoin="round" d="M9.73428 13.9817c-0.23213 0 -0.42032 -0.1881 -0.42032 -0.4203 0 -0.2321 0.18819 -0.4203 0.42032 -0.4203" stroke-width="1"></path><path stroke="#000000" stroke-linecap="round" stroke-linejoin="round" d="M9.73423 13.9817c0.23213 0 0.42027 -0.1881 0.42027 -0.4203 0 -0.2321 -0.18814 -0.4203 -0.42027 -0.4203" stroke-width="1"></path><path stroke="#000000" stroke-linecap="round" stroke-linejoin="round" d="M13.9376 2.75308h2.5219c0.4459 0 0.8735 0.17713 1.1888 0.49243 0.3153 0.3153 0.4925 0.74293 0.4925 1.18883v9.78626" stroke-width="1"></path></svg>