<svg xmlns="http://www.w3.org/2000/svg" fill="none" viewBox="0 0 24 24" id="Eye-Checkup-Chart-2--Streamline-Ultimate"><desc>Eye Checkup Chart 2 Streamline Icon: https://streamlinehq.com</desc><path stroke="#000000" stroke-linecap="round" stroke-linejoin="round" d="M9.64922 9.16172c1.37508 0 2.48978 -1.11472 2.48978 -2.4898 0 -1.37507 -1.1147 -2.48979 -2.48978 -2.48979s-2.4898 1.11472 -2.4898 2.48979c0 1.37508 1.11472 2.4898 2.4898 2.4898Z" stroke-width="1"></path><path stroke="#000000" stroke-linecap="round" stroke-linejoin="round" stroke-miterlimit="10" d="M8.81942 11.9959C5.52711 11.6124 2.8275 9.05 1.58648 7.57636c-0.48868 -0.53193 -0.48868 -1.27664 0 -1.80857 1.34388 -1.4894 4.39814 -4.46821 8.06326 -4.46821 3.66516 0 6.71936 2.97881 8.06326 4.46821 0.2529 0.27531 0.375 0.60762 0.3661 0.93792" stroke-width="1"></path><path stroke="#000000" stroke-linecap="round" stroke-linejoin="round" d="M20.2503 10.5588h1.5177c0.2684 0 0.5257 0.1066 0.7155 0.2964 0.1897 0.1897 0.2963 0.4471 0.2963 0.7154v10.118c0 0.2683 -0.1066 0.5257 -0.2963 0.7154 -0.1898 0.1898 -0.4471 0.2964 -0.7155 0.2964h-8.0943c-0.2684 0 -0.5257 -0.1066 -0.7155 -0.2964 -0.1897 -0.1897 -0.2963 -0.4471 -0.2963 -0.7154v-10.118c0 -0.2683 0.1066 -0.5257 0.2963 -0.7154 0.1898 -0.1898 0.4471 -0.2964 0.7155 -0.2964h1.5177" stroke-width="1"></path><path stroke="#000000" stroke-linecap="round" stroke-linejoin="round" d="M19.2391 9.12213h-3.0354c-0.5588 0 -1.0118 0.453 -1.0118 1.01177v1.049c0 0.5588 0.453 1.0118 1.0118 1.0118h3.0354c0.5588 0 1.0118 -0.453 1.0118 -1.0118v-1.049c0 -0.55877 -0.453 -1.01177 -1.0118 -1.01177Z" stroke-width="1"></path><path stroke="#000000" stroke-linecap="round" stroke-linejoin="round" d="m15.5701 18.4459 1.6139 1.076 2.69 -4.3039" stroke-width="1"></path></svg>