<svg xmlns="http://www.w3.org/2000/svg" fill="none" viewBox="0 0 24 24" id="Eye-Checkup-Cross--Streamline-Ultimate"><desc>Eye Checkup Cross Streamline Icon: https://streamlinehq.com</desc><path stroke="#000000" stroke-linecap="round" stroke-linejoin="round" d="M11.9987 11.7345c1.9237 0 3.4831 -1.5594 3.4831 -3.48304 0 -1.92366 -1.5594 -3.48309 -3.4831 -3.48309 -1.9236 0 -3.48308 1.55943 -3.48308 3.48309 0 1.92364 1.55948 3.48304 3.48308 3.48304Z" stroke-width="1"></path><path stroke="#000000" stroke-linecap="round" stroke-linejoin="round" stroke-miterlimit="10" d="M22.5452 9.43413c0.6392 -0.69568 0.6392 -1.66967 0 -2.36535 -1.7576 -1.94793 -5.7521 -5.8438 -10.5456 -5.8438 -4.79349 0 -8.78804 3.89587 -10.54564 5.8438 -0.639133 0.69568 -0.639133 1.66967 0 2.36535C3.04932 11.3285 6.4877 14.5986 10.6937 15.1862" stroke-width="1"></path><path stroke="#000000" stroke-linecap="round" stroke-linejoin="round" d="m20.073 13.3944 -3.4761 0 0 2.9523h-2.9524v3.4761h2.9524l0 2.9523h3.4761v-2.9523h2.9522v-3.4761H20.073v-2.9523Z" stroke-width="1"></path></svg>