<svg xmlns="http://www.w3.org/2000/svg" fill="none" viewBox="0 0 24 24" id="Eye-Checkup--Streamline-Ultimate"><desc>Eye Checkup Streamline Icon: https://streamlinehq.com</desc><path stroke="#000000" stroke-linecap="round" stroke-linejoin="round" d="M12.0001 11.9552c1.9236 0 3.483 -1.5594 3.483 -3.48303 0 -1.92361 -1.5594 -3.483 -3.483 -3.483 -1.9236 0 -3.48301 1.55939 -3.48301 3.483 0 1.92363 1.55941 3.48303 3.48301 3.48303Z" stroke-width="1"></path><path stroke="#000000" stroke-linecap="round" stroke-linejoin="round" stroke-miterlimit="10" d="M22.5452 7.28952c0.6391 0.69567 0.6391 1.66962 0 2.36529 -1.7576 1.94789 -5.7521 5.84369 -10.5454 5.84369 -4.79336 0 -8.7878 -3.7567 -10.54537 -5.84369 -0.639111 -0.69567 -0.639111 -1.66962 0 -2.36529C3.212 5.34164 7.20644 1.44586 11.9998 1.44586c4.7933 0 8.7878 3.89578 10.5454 5.84366Z" stroke-width="1"></path><path stroke="#000000" stroke-linecap="round" stroke-linejoin="round" d="m23.0247 15.1721 -5.5432 7.3821 -3.691 -2.7649" stroke-width="1"></path></svg>