<svg xmlns="http://www.w3.org/2000/svg" fill="none" viewBox="0 0 24 24" id="Give-Heart-Rate--Streamline-Ultimate"><desc>Give Heart Rate Streamline Icon: https://streamlinehq.com</desc><path stroke="#000000" stroke-linecap="round" stroke-linejoin="round" d="M15.4572 13.7653 8.95541 7.87605C5.42183 4.34248 10.6162 -2.44198 15.4572 3.04683c4.841 -5.48881 10.0118 1.3192 6.5017 4.82922l-6.5017 5.88925Z" stroke-width="1"></path><path stroke="#000000" stroke-linecap="round" stroke-linejoin="round" d="m0.966187 18.8845 4.196143 3.4968c0.61718 0.5143 1.39514 0.7959 2.19852 0.7959l11.06255 0c0.7903 0 1.4309 -0.6406 1.4309 -1.4309 0 -1.5805 -1.2813 -2.8618 -2.8618 -2.8618H9.30151" stroke-width="1"></path><path stroke="#000000" stroke-linecap="round" stroke-linejoin="round" d="m6.1175 17.167 1.28783 1.2878c0.71124 0.7113 1.8644 0.7113 2.57565 0 0.71122 -0.7112 0.71122 -1.8644 0 -2.5756l-1.99907 -1.9991c-0.64404 -0.6441 -1.51755 -1.0059 -2.42836 -1.0059H0.966187" stroke-width="1"></path><path stroke="#000000" stroke-linecap="round" stroke-linejoin="round" d="M11.3121 6.97156h2.0128l1.2076 -1.71204 1.6102 2.99607 1.2077 -1.71204h2.2421" stroke-width="1"></path></svg>