<svg xmlns="http://www.w3.org/2000/svg" fill="none" viewBox="0 0 24 24" id="Infection-Checkup-1--Streamline-Ultimate"><desc>Infection Checkup 1 Streamline Icon: https://streamlinehq.com</desc><path stroke="#000000" stroke-linecap="round" stroke-linejoin="round" d="M7.41458 15.186c-2.40481 -0.8238 -4.13357 -3.1042 -4.13357 -5.78827 0 -3.37835 2.73869 -6.11704 6.11704 -6.11704 2.57435 0 4.77735 1.5903 5.68005 3.84209" stroke-width="1"></path><path stroke="#000000" stroke-linecap="round" stroke-linejoin="round" d="m4.09649 12.4563 -1.97784 1.1418" stroke-width="1"></path><path stroke="#000000" stroke-linecap="round" stroke-linejoin="round" d="m14.7007 6.33923 1.9778 -1.15204" stroke-width="1"></path><path stroke="#000000" stroke-linecap="round" stroke-linejoin="round" d="M6.33936 4.09631 5.19751 2.11847" stroke-width="1"></path><path stroke="#000000" stroke-linecap="round" stroke-linejoin="round" d="M6.33936 14.6992 5.19751 16.677" stroke-width="1"></path><path stroke="#000000" stroke-linecap="round" stroke-linejoin="round" d="m12.4574 4.09631 1.152 -1.97784" stroke-width="1"></path><path stroke="#000000" stroke-linecap="round" stroke-linejoin="round" d="M4.09649 6.33923 2.11865 5.18719" stroke-width="1"></path><path stroke="#000000" stroke-linecap="round" stroke-linejoin="round" d="M9.39856 3.28074V0.986855" stroke-width="1"></path><path stroke="#000000" stroke-linecap="round" stroke-linejoin="round" d="M3.28119 9.39775H0.987305" stroke-width="1"></path><path stroke="#000000" stroke-linecap="round" stroke-linejoin="round" d="M16.1729 22.036c3.238 0 5.8629 -2.6249 5.8629 -5.8629 0 -3.2379 -2.6249 -5.8628 -5.8629 -5.8628 -3.2379 0 -5.8628 2.6249 -5.8628 5.8628 0 3.238 2.6249 5.8629 5.8628 5.8629Z" stroke-width="1"></path><path stroke="#000000" stroke-linecap="round" stroke-linejoin="round" d="m20.3159 20.3162 2.6969 2.6969" stroke-width="1"></path><path stroke="#000000" stroke-linecap="round" stroke-linejoin="round" d="M7.32308 11.1703c-0.23749 0 -0.43001 -0.1925 -0.43001 -0.43s0.19252 -0.43 0.43001 -0.43" stroke-width="1"></path><path stroke="#000000" stroke-linecap="round" stroke-linejoin="round" d="M7.32328 11.1703c0.23749 0 0.43002 -0.1925 0.43002 -0.43s-0.19253 -0.43 -0.43002 -0.43" stroke-width="1"></path><path stroke="#000000" stroke-linecap="round" stroke-linejoin="round" d="M9.74854 7.80022c-0.31444 0 -0.56934 -0.25491 -0.56934 -0.56935s0.2549 -0.56934 0.56934 -0.56934" stroke-width="1"></path><path stroke="#000000" stroke-linecap="round" stroke-linejoin="round" d="M9.74889 7.80021c0.31441 0 0.56931 -0.25491 0.56931 -0.56935 0 -0.31443 -0.2549 -0.56934 -0.56931 -0.56934" stroke-width="1"></path></svg>