<svg xmlns="http://www.w3.org/2000/svg" fill="none" viewBox="0 0 24 24" id="Medicine-Search-1--Streamline-Ultimate"><desc>Medicine Search 1 Streamline Icon: https://streamlinehq.com</desc><path stroke="#000000" stroke-linecap="round" stroke-linejoin="round" d="M16.4548 22.2775c3.1666 0 5.7335 -2.567 5.7335 -5.7335 0 -3.1666 -2.5669 -5.7336 -5.7335 -5.7336 -3.1665 0 -5.7335 2.567 -5.7335 5.7336 0 3.1665 2.567 5.7335 5.7335 5.7335Z" stroke-width="1"></path><path stroke="#000000" stroke-linecap="round" stroke-linejoin="round" d="m20.5074 20.5956 2.6375 2.6374" stroke-width="1"></path><path stroke="#000000" stroke-linecap="round" stroke-linejoin="round" d="M5.29835 6.62745c-0.49432 -0.46728 -1.15139 -0.72335 -1.83155 -0.71379 -0.68015 0.00957 -1.32976 0.28401 -1.81075 0.765 -0.48099 0.48099 -0.755431 1.1306 -0.764993 1.81075 -0.009562 0.68016 0.246513 1.33723 0.713783 1.83159l3.14788 3.1478c0.49157 0.4706 1.14733 0.7308 1.82779 0.7253 0.68046 -0.0055 1.33193 -0.2763 1.81583 -0.7547 0.4839 -0.4785 0.76205 -1.1268 0.77528 -1.8072 0.01324 -0.6803 -0.23949 -1.339 -0.70441 -1.83589L5.29835 6.62745Z" stroke-width="1"></path><path stroke="#000000" stroke-linecap="round" stroke-linejoin="round" d="m6.72522 8.05469 -3.6935 3.69351" stroke-width="1"></path><path stroke="#000000" stroke-linecap="round" stroke-linejoin="round" d="M11.7386 7.47829c-1.80166 0 -3.26221 -1.46055 -3.26221 -3.26223 0 -1.80168 1.46055 -3.262233 3.26221 -3.262233 1.8017 0 3.2623 1.460553 3.2623 3.262233 0 1.80168 -1.4606 3.26223 -3.2623 3.26223Z" stroke-width="1"></path><path stroke="#000000" stroke-linecap="round" stroke-linejoin="round" d="M15.0009 4.21606H8.47639" stroke-width="1"></path></svg>