<svg xmlns="http://www.w3.org/2000/svg" fill="none" viewBox="0 0 24 24" id="Medicine-Search-3--Streamline-Ultimate"><desc>Medicine Search 3 Streamline Icon: https://streamlinehq.com</desc><path stroke="#000000" stroke-linecap="round" stroke-linejoin="round" d="M16.4548 22.2775c3.1666 0 5.7335 -2.567 5.7335 -5.7335 0 -3.1666 -2.5669 -5.7336 -5.7335 -5.7336 -3.1665 0 -5.7335 2.567 -5.7335 5.7336 0 3.1665 2.567 5.7335 5.7335 5.7335Z" stroke-width="1"></path><path stroke="#000000" stroke-linecap="round" stroke-linejoin="round" d="m20.5074 20.5956 2.6375 2.6374" stroke-width="1"></path><path stroke="#000000" stroke-linecap="round" stroke-linejoin="round" d="M17.9923 7.91465c0.149 -0.51323 0.2228 -1.05 0.2152 -1.59385 -0.0199 -1.41722 -0.5918 -2.77079 -1.594 -3.77301 -1.0022 -1.00222 -2.3558 -1.574064 -3.773 -1.593989 -1.4172 -0.019925 -2.7863 0.513639 -3.81634 1.487289L2.42132 9.04394C1.45256 10.0793 0.925969 11.4518 0.953546 12.8694c0.027576 1.4176 0.607144 2.7686 1.615434 3.7655 1.00829 0.9968 2.36573 1.561 3.78358 1.5725 0.46071 0.0037 0.91599 -0.051 1.35586 -0.1602" stroke-width="1"></path><path stroke="#000000" stroke-linecap="round" stroke-linejoin="round" d="m6.05103 5.41493 4.79417 4.79417" stroke-width="1"></path></svg>