<svg xmlns="http://www.w3.org/2000/svg" fill="none" viewBox="0 0 24 24" id="Medicine-Search-2--Streamline-Ultimate"><desc>Medicine Search 2 Streamline Icon: https://streamlinehq.com</desc><path stroke="#000000" stroke-linecap="round" stroke-linejoin="round" d="M13.8546 10.9565c0.4943 -0.4672 1.1514 -0.7233 1.8316 -0.7137 0.6801 0.0095 1.3297 0.284 1.8107 0.7649 0.481 0.481 0.7554 1.1306 0.765 1.8108 0.0096 0.6802 -0.2465 1.3372 -0.7138 1.8315l-3.1479 3.1479c-0.4915 0.4706 -1.1473 0.7308 -1.8278 0.7253 -0.6804 -0.0056 -1.3319 -0.2763 -1.8158 -0.7547 -0.4839 -0.4785 -0.76204 -1.1268 -0.77527 -1.8072 -0.01323 -0.6803 0.23947 -1.339 0.70437 -1.8359l3.1689 -3.1689Z" stroke-width="1"></path><path stroke="#000000" stroke-linecap="round" stroke-linejoin="round" d="m12.4279 12.3838 3.6935 3.6935" stroke-width="1"></path><path stroke="#000000" stroke-linecap="round" stroke-linejoin="round" d="M8.30227 11.4241c1.80173 0 3.26223 -1.46054 3.26223 -3.26222 0 -1.80169 -1.4605 -3.26224 -3.26223 -3.26224 -1.80168 0 -3.26223 1.46055 -3.26223 3.26224 0 1.80168 1.46055 3.26222 3.26223 3.26222Z" stroke-width="1"></path><path stroke="#000000" stroke-linecap="round" stroke-linejoin="round" d="m5.04004 8.16188 6.52446 0" stroke-width="1"></path><path stroke="#000000" stroke-linecap="round" stroke-linejoin="round" d="M11.1627 21.2088c5.5482 0 10.0459 -4.4977 10.0459 -10.046 0 -5.54819 -4.4977 -10.04592 -10.0459 -10.04592 -5.54827 0 -10.046 4.49773 -10.046 10.04592 0 5.5483 4.49773 10.046 10.046 10.046Z" stroke-width="1"></path><path stroke="#000000" stroke-linecap="round" stroke-linejoin="round" d="m18.2622 18.262 4.6211 4.6211" stroke-width="1"></path></svg>