<svg viewBox="0 0 24 24" xmlns="http://www.w3.org/2000/svg" id="Monitor-Heart-Beat-Touch--Streamline-Ultimate"><desc>Monitor Heart Beat Touch Streamline Icon: https://streamlinehq.com</desc><path d="M9 12.75v6.75l-1.709 -0.85a2.447 2.447 0 0 0 -2.623 4.1l0.627 0.5" fill="none" stroke="#000000" stroke-linecap="round" stroke-linejoin="round" stroke-width="1"></path><path d="M20.25 23.25v-2.167a4.482 4.482 0 0 0 -3.745 -4.421l-3 -0.5V12.75" fill="none" stroke="#000000" stroke-linecap="round" stroke-linejoin="round" stroke-width="1"></path><path d="M15.893 3.547A5.251 5.251 0 0 0 6 6v5.25a1.5 1.5 0 0 0 1.5 1.5H15a1.5 1.5 0 0 0 1.5 -1.5V9.394" fill="none" stroke="#000000" stroke-linecap="round" stroke-linejoin="round" stroke-width="1"></path><path d="M6 7.5h2.018a0.376 0.376 0 0 0 0.336 -0.207l1.083 -2.166a0.375 0.375 0 0 1 0.661 -0.019l2.3 4.034a0.375 0.375 0 0 0 0.661 -0.019l1.083 -2.166a0.376 0.376 0 0 1 0.336 -0.207H16.5" fill="none" stroke="#000000" stroke-linecap="round" stroke-linejoin="round" stroke-width="1"></path></svg>