<svg id="Monitor-Heart-Rate-1--Streamline-Ultimate" xmlns="http://www.w3.org/2000/svg" viewBox="0 0 24 24"><desc>Monitor Heart Rate 1 Streamline Icon: https://streamlinehq.com</desc><defs></defs><title>monitor-heart-rate-1</title><path d="M3.75 0.75h16.5s3 0 3 3v16.5s0 3 -3 3H3.75s-3 0 -3 -3V3.75s0 -3 3 -3" fill="none" stroke="#000000" stroke-linecap="round" stroke-linejoin="round" stroke-width="1"></path><path d="M0.75 8.25h6l1.165 -2.329a0.375 0.375 0 0 1 0.67 0l2.352 4.7a0.375 0.375 0 0 0 0.661 0.019l2.351 -4.115a0.375 0.375 0 0 1 0.638 -0.022L15.75 8.25h7.5" fill="none" stroke="#000000" stroke-linecap="round" stroke-linejoin="round" stroke-width="1"></path><path d="m0.75 17.25 3.75 0 0.75 -1.5 1.5 3 0.75 -1.5 8.25 0 0.75 -1.5 1.5 3 0.75 -1.5 4.5 0" fill="none" stroke="#000000" stroke-linecap="round" stroke-linejoin="round" stroke-width="1"></path></svg>