<svg xmlns="http://www.w3.org/2000/svg" viewBox="0 0 24 24" id="Monitoring-Activity-Tracking-2--Streamline-Ultimate"><desc>Monitoring Activity Tracking 2 Streamline Icon: https://streamlinehq.com</desc><defs></defs><title>monitoring-activity-tracking-2</title><path d="M7.751 7.439a2.647 3.971 0 1 0 5.294 0 2.647 3.971 0 1 0 -5.294 0" fill="none" stroke="#000000" stroke-linecap="round" stroke-linejoin="round" stroke-width="1"></path><path d="M8.764 13.792a3.737 3.737 0 0 0 -0.06 0.635c0 1.4 0.758 2.541 1.694 2.541s1.694 -1.137 1.694 -2.541a3.737 3.737 0 0 0 -0.06 -0.635Z" fill="none" stroke="#000000" stroke-linecap="round" stroke-linejoin="round" stroke-width="1"></path><path d="M0.751 10.251a9.5 9.5 0 1 0 19 0 9.5 9.5 0 1 0 -19 0" fill="none" stroke="#000000" stroke-linecap="round" stroke-linejoin="round" stroke-width="1"></path><path d="m16.968 16.968 6.283 6.283" fill="none" stroke="#000000" stroke-linecap="round" stroke-linejoin="round" stroke-width="1"></path></svg>