<svg viewBox="0 0 24 24" xmlns="http://www.w3.org/2000/svg" id="Monitor-Heart-Rate-Up--Streamline-Ultimate"><desc>Monitor Heart Rate Up Streamline Icon: https://streamlinehq.com</desc><path d="m23.25 18 0 -6.75 -6.75 0" fill="none" stroke="#000000" stroke-linecap="round" stroke-linejoin="round" stroke-width="1"></path><path d="m23.25 11.25 -7.939 7.939a1.5 1.5 0 0 1 -2.122 0l-3.128 -3.128a1.5 1.5 0 0 0 -2.122 0L0.75 23.25" fill="none" stroke="#000000" stroke-linecap="round" stroke-linejoin="round" stroke-width="1"></path><path d="M6.75 11.25 1.636 5.915a3.023 3.023 0 0 1 -0.566 -3.492h0a3.025 3.025 0 0 1 4.845 -0.786l0.835 0.835 0.835 -0.835a3.026 3.026 0 0 1 4.846 0.786h0a3.025 3.025 0 0 1 -0.567 3.492Z" fill="none" stroke="#000000" stroke-linecap="round" stroke-linejoin="round" stroke-width="1"></path></svg>