<svg id="Monitor-Heart-Desktop--Streamline-Ultimate" xmlns="http://www.w3.org/2000/svg" viewBox="0 0 24 24"><desc>Monitor Heart Desktop Streamline Icon: https://streamlinehq.com</desc><defs></defs><title>monitor-heart-desktop</title><path d="m15.75 21.75 -7.5 0 0.75 -4.5 6 0 0.75 4.5z" fill="none" stroke="#000000" stroke-linecap="round" stroke-linejoin="round" stroke-width="1"></path><path d="m6 21.75 12 0" fill="none" stroke="#000000" stroke-linecap="round" stroke-linejoin="round" stroke-width="1"></path><path d="M3 2.25h18s2.25 0 2.25 2.25V15s0 2.25 -2.25 2.25H3S0.75 17.25 0.75 15V4.5S0.75 2.25 3 2.25" fill="none" stroke="#000000" stroke-linecap="round" stroke-linejoin="round" stroke-width="1"></path><path d="M19.933 9.75h-2.482a0.374 0.374 0 0 1 -0.312 -0.167l-2.531 -3.795a0.375 0.375 0 0 0 -0.647 0.04l-3.922 7.844a0.375 0.375 0 0 1 -0.647 0.04L6.861 9.917a0.374 0.374 0 0 0 -0.312 -0.167H3.433" fill="none" stroke="#000000" stroke-linecap="round" stroke-linejoin="round" stroke-width="1"></path></svg>