<svg xmlns="http://www.w3.org/2000/svg" viewBox="0 0 24 24" id="Monitoring-Heart-Beat-Hand--Streamline-Ultimate"><desc>Monitoring Heart Beat Hand Streamline Icon: https://streamlinehq.com</desc><defs></defs><title>monitoring-heart-beat-hand</title><path d="m16.637 9.4 -0.912 1.049" fill="none" stroke="#000000" stroke-linecap="round" stroke-linejoin="round" stroke-width="1"></path><path d="m10.212 16.019 -0.461 0.481 -7.671 -8a4.537 4.537 0 0 1 -0.851 -5.238h0A4.541 4.541 0 0 1 8.5 2.08l1.251 1.253L11 2.08a4.539 4.539 0 0 1 7.269 1.179h0a4.537 4.537 0 0 1 -0.85 5.238l-0.785 0.9" fill="none" stroke="#000000" stroke-linecap="round" stroke-linejoin="round" stroke-width="1"></path><path d="M1.851 8.213h2.6l0.8 -1.067A0.487 0.487 0 0 1 5.439 7a0.541 0.541 0 0 1 0.671 0.192L7.667 9.86a0.487 0.487 0 0 0 0.3 0.218 0.519 0.519 0 0 0 0.625 -0.278l1.3 -3.61a0.444 0.444 0 0 1 0.228 -0.244 0.548 0.548 0 0 1 0.68 0.154L12.085 8a0.521 0.521 0 0 0 0.432 0.215h5.116" fill="none" stroke="#000000" stroke-linecap="round" stroke-linejoin="round" stroke-width="1"></path><path d="m23.25 23.25 -3 -4.5V13.5a3.871 3.871 0 0 0 -1.56 -2.511" fill="none" stroke="#000000" stroke-linecap="round" stroke-linejoin="round" stroke-width="1"></path><path d="m16.93 14.794 -3.648 -2.924a1.3 1.3 0 0 0 -1.843 1.843l3.534 3.987v2.5c0 1.181 1.687 3.045 1.687 3.045" fill="none" stroke="#000000" stroke-linecap="round" stroke-linejoin="round" stroke-width="1"></path></svg>