<svg viewBox="0 0 24 24" xmlns="http://www.w3.org/2000/svg" id="Hotel-Single-Bed-1--Streamline-Ultimate"><desc>Hotel Single Bed 1 Streamline Icon: https://streamlinehq.com</desc><path d="M2.75 11.25h18.5a2 2 0 0 1 2 2V18l0 0H0.75l0 0v-4.75a2 2 0 0 1 2 -2Z" fill="none" stroke="#000000" stroke-linecap="round" stroke-linejoin="round" stroke-width="1"></path><path d="m0.75 18 0 3" fill="none" stroke="#000000" stroke-linecap="round" stroke-linejoin="round" stroke-width="1"></path><path d="m23.25 18 0 3" fill="none" stroke="#000000" stroke-linecap="round" stroke-linejoin="round" stroke-width="1"></path><path d="M21 11.25V4.5A1.5 1.5 0 0 0 19.5 3h-15A1.5 1.5 0 0 0 3 4.5v6.75" fill="none" stroke="#000000" stroke-linecap="round" stroke-linejoin="round" stroke-width="1"></path><path d="M8.5 7.5h7a1 1 0 0 1 1 1v2.75l0 0h-9l0 0V8.5a1 1 0 0 1 1 -1Z" fill="none" stroke="#000000" stroke-linecap="round" stroke-linejoin="round" stroke-width="1"></path></svg>