<svg viewBox="0 0 24 24" xmlns="http://www.w3.org/2000/svg" id="Amusement-Park-Rollercoaster--Streamline-Ultimate"><desc>Amusement Park Rollercoaster Streamline Icon: https://streamlinehq.com</desc><path d="M23.25 18.75c-1.234 0 -2.559 -0.313 -4.032 -2.437l-1.981 -2.973A6.474 6.474 0 0 0 12 10.5a6.474 6.474 0 0 0 -5.237 2.84l-1.981 2.973C3.309 18.437 1.984 18.75 0.75 18.75" fill="none" stroke="#000000" stroke-linecap="round" stroke-linejoin="round" stroke-width="1"></path><path d="m7.5 12.431 0 6.319" fill="none" stroke="#000000" stroke-linecap="round" stroke-linejoin="round" stroke-width="1"></path><path d="m10.5 10.713 0 8.037" fill="none" stroke="#000000" stroke-linecap="round" stroke-linejoin="round" stroke-width="1"></path><path d="m13.5 10.713 0 8.037" fill="none" stroke="#000000" stroke-linecap="round" stroke-linejoin="round" stroke-width="1"></path><path d="m16.5 12.43 0 6.32" fill="none" stroke="#000000" stroke-linecap="round" stroke-linejoin="round" stroke-width="1"></path><path d="m9 4.5 6 0 0 3.75 -6 0Z" fill="none" stroke="#000000" stroke-linecap="round" stroke-linejoin="round" stroke-width="1"></path><path d="m0.7307910497 10.0008971219 4.5924275689 -3.8612962881 2.41331018 2.8702672305 -4.5924275689 3.8612962881Z" fill="none" stroke="#000000" stroke-linecap="round" stroke-linejoin="round" stroke-width="1"></path></svg>