<svg xmlns="http://www.w3.org/2000/svg" viewBox="0 0 24 24" id="Cosplay-1--Streamline-Ultimate"><desc>Cosplay 1 Streamline Icon: https://streamlinehq.com</desc><defs></defs><title>cosplay-1</title><path d="M13.018 22.97c0.44 -0.073 1.327 -0.658 1.138 -2.142l-0.523 -4.079" fill="none" stroke="#000000" stroke-linecap="round" stroke-linejoin="round" stroke-width="1"></path><path d="m1.883 23.25 1.182 -9.437a2.231 2.231 0 0 1 0.944 -1.7 9.02 9.02 0 0 1 2.357 -0.743" fill="none" stroke="#000000" stroke-linecap="round" stroke-linejoin="round" stroke-width="1"></path><path d="m9.721 17.473 7.072 -1.308a1.461 1.461 0 0 0 1.017 -0.71 3.289 3.289 0 0 0 0.06 -1.884 1.458 1.458 0 0 0 -1.581 -0.937l-9.76 1.139" fill="none" stroke="#000000" stroke-linecap="round" stroke-linejoin="round" stroke-width="1"></path><path d="M19.015 18.062a6.648 6.648 0 0 0 3.1 -5.686V2.168A1.415 1.415 0 0 0 20.317 0.8a21.708 21.708 0 0 1 -11.95 0 1.419 1.419 0 0 0 -1.8 1.365v11.25" fill="none" stroke="#000000" stroke-linecap="round" stroke-linejoin="round" stroke-width="1"></path><path d="m10.018 5.876 3 1" fill="none" stroke="#000000" stroke-linecap="round" stroke-linejoin="round" stroke-width="1"></path><path d="m18.716 5.876 -3 1" fill="none" stroke="#000000" stroke-linecap="round" stroke-linejoin="round" stroke-width="1"></path></svg>