<svg xmlns="http://www.w3.org/2000/svg" viewBox="0 0 24 24" id="Food-Truck--Streamline-Ultimate"><desc>Food Truck Streamline Icon: https://streamlinehq.com</desc><defs></defs><title>food-truck</title><path d="M3.5 21.216a2 2 0 1 0 4 0 2 2 0 1 0 -4 0" fill="none" stroke="#000000" stroke-linecap="round" stroke-linejoin="round" stroke-width="1"></path><path d="M16.499 21.216a2 2 0 1 0 4 0 2 2 0 1 0 -4 0" fill="none" stroke="#000000" stroke-linecap="round" stroke-linejoin="round" stroke-width="1"></path><path d="M3.5 21.216h-2a0.5 0.5 0 0 1 -0.5 -0.5v-2.672a2 2 0 0 1 0.585 -1.413L3 15.216l2.215 -3.986a1 1 0 0 1 0.874 -0.514H10v6.5h13v3.5a0.5 0.5 0 0 1 -0.5 0.5h-2" fill="none" stroke="#000000" stroke-linecap="round" stroke-linejoin="round" stroke-width="1"></path><path d="m7.5 21.216 8.999 0" fill="none" stroke="#000000" stroke-linecap="round" stroke-linejoin="round" stroke-width="1"></path><path d="m3 15.216 7 0" fill="none" stroke="#000000" stroke-linecap="round" stroke-linejoin="round" stroke-width="1"></path><path d="m23 17.716 0 -8.5 -13 0 -0.001 12" fill="none" stroke="#000000" stroke-linecap="round" stroke-linejoin="round" stroke-width="1"></path><path d="M1.25 3.6A46.2 46.2 0 0 0 17.938 0.784" fill="none" stroke="#000000" stroke-linecap="round" stroke-linejoin="round" stroke-width="1"></path><path d="M1.25 3.598 4.031 8.1l2.782 -4.721" fill="none" stroke="#000000" stroke-linecap="round" stroke-linejoin="round" stroke-width="1"></path><path d="M12.242 2.446 16.3 6.201 17.938 0.784" fill="none" stroke="#000000" stroke-linecap="round" stroke-linejoin="round" stroke-width="1"></path><path d="m6.813 3.379 4.146 3.882 1.283 -4.815" fill="none" stroke="#000000" stroke-linecap="round" stroke-linejoin="round" stroke-width="1"></path><path d="M23 11.4c0 2.416 -4.337 2.41 -4.337 0 0 2.416 -4.332 2.415 -4.332 0 0 2.416 -4.332 2.415 -4.332 0" fill="none" stroke="#000000" stroke-linecap="round" stroke-linejoin="round" stroke-width="1"></path><path d="m14.331 11.39 0 -2.174" fill="none" stroke="#000000" stroke-linecap="round" stroke-linejoin="round" stroke-width="1"></path><path d="m18.663 11.39 0 -2.174" fill="none" stroke="#000000" stroke-linecap="round" stroke-linejoin="round" stroke-width="1"></path></svg>