<svg xmlns="http://www.w3.org/2000/svg" viewBox="0 0 24 24" id="Cannabis-Medicine-1--Streamline-Ultimate"><desc>Cannabis Medicine 1 Streamline Icon: https://streamlinehq.com</desc><defs></defs><title>cannabis-medicine-1</title><path d="m23.25 17.066 -2.816 0 0 -2.816 -3.368 0 0 2.816 -2.816 0 0 3.368 2.816 0 0 2.816 3.368 0 0 -2.816 2.816 0 0 -3.368z" fill="none" stroke="#000000" stroke-linecap="round" stroke-linejoin="round" stroke-width="1"></path><path d="m11.243 16.947 0 5.25" fill="none" stroke="#000000" stroke-linecap="round" stroke-linejoin="round" stroke-width="1"></path><path d="M11.243 0.75a6.894 6.894 0 0 0 -1.53 8.45A22.568 22.568 0 0 0 8.13 7.3a8 8 0 0 0 -5.287 -2.387 7.866 7.866 0 0 0 2.4 5.24 8.4 8.4 0 0 0 1.9 1.384 6.026 6.026 0 0 0 -1.853 -0.32 6.1 6.1 0 0 0 -4.54 2.021 6.1 6.1 0 0 0 4.543 2.02 11.105 11.105 0 0 0 2.683 -0.633s-0.8 0.776 -1.173 1.15a3.909 3.909 0 0 0 -1.16 3.007 6.55 6.55 0 0 0 5.6 -1.835" fill="none" stroke="#000000" stroke-linecap="round" stroke-linejoin="round" stroke-width="1"></path><path d="M11.243 0.75a6.894 6.894 0 0 1 1.53 8.45 22.379 22.379 0 0 1 1.583 -1.9 8 8 0 0 1 5.287 -2.382 7.871 7.871 0 0 1 -2.4 5.24 8.42 8.42 0 0 1 -1.9 1.384" fill="none" stroke="#000000" stroke-linecap="round" stroke-linejoin="round" stroke-width="1"></path></svg>