<svg xmlns="http://www.w3.org/2000/svg" viewBox="0 0 24 24" id="Cannabis-Beauty-Product-2--Streamline-Ultimate"><desc>Cannabis Beauty Product 2 Streamline Icon: https://streamlinehq.com</desc><defs></defs><title>cannabis-beauty-product-2</title><path d="M8.945 23.226H1.75a1 1 0 0 1 -1 -1v-7.185a0.5 0.5 0 0 1 0.5 -0.5h4.7" fill="none" stroke="#000000" stroke-linecap="round" stroke-linejoin="round" stroke-width="1"></path><path d="M1.772 14.541v-3.957a0.5 0.5 0 0 1 0.5 -0.5h6.152a0.5 0.5 0 0 1 0.5 0.5" fill="none" stroke="#000000" stroke-linecap="round" stroke-linejoin="round" stroke-width="1"></path><path d="M7.9 5.584v4.5H2.793v-8.8a0.511 0.511 0 0 1 0.873 -0.36L7.6 4.861a1.026 1.026 0 0 1 0.3 0.723Z" fill="none" stroke="#000000" stroke-linecap="round" stroke-linejoin="round" stroke-width="1"></path><path d="M16.521 19.706c-1.094 1.294 -5.021 2.247 -5.583 1.32a6.3 6.3 0 0 1 1.962 -2.959c-3.076 -1.64 -3.316 -3.1 -3.347 -3.672a5.659 5.659 0 0 1 4.87 0.628 6.4 6.4 0 0 1 2.141 -5.114 6.4 6.4 0 0 1 2.14 5.114 4.811 4.811 0 0 1 4.546 -0.623c-0.031 0.577 -0.271 2.032 -3.348 3.672a6.3 6.3 0 0 1 1.964 2.959c-0.561 0.927 -4.25 -0.026 -5.345 -1.32" fill="none" stroke="#000000" stroke-linecap="round" stroke-linejoin="round" stroke-width="1"></path><path d="m16.521 19.706 0 3.52" fill="none" stroke="#000000" stroke-linecap="round" stroke-linejoin="round" stroke-width="1"></path></svg>