<svg xmlns="http://www.w3.org/2000/svg" viewBox="0 0 24 24" id="Cannabis-Skincare-1--Streamline-Ultimate"><desc>Cannabis Skincare 1 Streamline Icon: https://streamlinehq.com</desc><defs></defs><title>cannabis-skincare-1</title><path d="M6.955 18.231h-4.2a2 2 0 0 1 -2 -2v-5.75a0.5 0.5 0 0 1 0.5 -0.5h1.5" fill="none" stroke="#000000" stroke-linecap="round" stroke-linejoin="round" stroke-width="1"></path><path d="M7.281 9.981h-4.53v-2.25a1 1 0 0 1 1 -1h9.375" fill="none" stroke="#000000" stroke-linecap="round" stroke-linejoin="round" stroke-width="1"></path><path d="M4.5 6.731c-0.5 -1.784 0.613 -3.994 2.466 -3.994h3.108A2.52 2.52 0 0 0 12.491 1.1a0.516 0.516 0 0 1 0.664 -0.3 0.522 0.522 0 0 1 0.224 0.167 3.964 3.964 0 0 1 0.321 4.879l-0.708 0.885" fill="none" stroke="#000000" stroke-linecap="round" stroke-linejoin="round" stroke-width="1"></path><path d="M15.868 18.028c-1.1 1.294 -5.347 2.247 -5.909 1.32a6.126 6.126 0 0 1 1.964 -2.959c-3.077 -1.64 -3.316 -3.095 -3.348 -3.672a6.586 6.586 0 0 1 5.2 0.628 6.4 6.4 0 0 1 2.14 -5.114 6.4 6.4 0 0 1 2.14 5.114 6.586 6.586 0 0 1 5.2 -0.628c-0.032 0.577 -0.271 2.032 -3.348 3.672a6.3 6.3 0 0 1 1.964 2.959c-0.561 0.927 -4.9 -0.026 -6 -1.32" fill="none" stroke="#000000" stroke-linecap="round" stroke-linejoin="round" stroke-width="1"></path><path d="m15.868 18.028 0 5.203" fill="none" stroke="#000000" stroke-linecap="round" stroke-linejoin="round" stroke-width="1"></path></svg>