<svg xmlns="http://www.w3.org/2000/svg" viewBox="0 0 24 24" id="Touch-Id-Lock-1--Streamline-Ultimate"><desc>Touch Id Lock 1 Streamline Icon: https://streamlinehq.com</desc><defs></defs><title>touch-id-lock-1</title><path d="M3.751 6.75h16.5s1.5 0 1.5 1.5v13.5s0 1.5 -1.5 1.5h-16.5s-1.5 0 -1.5 -1.5V8.25s0 -1.5 1.5 -1.5" fill="none" stroke="#000000" stroke-linecap="round" stroke-linejoin="round" stroke-width="1"></path><path d="M6.751 6.75V6a5.25 5.25 0 0 1 10.5 0v0.75" fill="none" stroke="#000000" stroke-linecap="round" stroke-linejoin="round" stroke-width="1"></path><path d="M16.5 19.5V15a4.477 4.477 0 0 0 -0.6 -2.25" fill="none" stroke="#000000" stroke-linecap="round" stroke-linejoin="round" stroke-width="1"></path><path d="m7.501 15 0 4.5" fill="none" stroke="#000000" stroke-linecap="round" stroke-linejoin="round" stroke-width="1"></path><path d="M13.472 10.746a4.507 4.507 0 0 0 -5.2 1.738" fill="none" stroke="#000000" stroke-linecap="round" stroke-linejoin="round" stroke-width="1"></path><path d="M10.5 15.75V15a1.5 1.5 0 0 1 3 0v4.5" fill="none" stroke="#000000" stroke-linecap="round" stroke-linejoin="round" stroke-width="1"></path><path d="m10.501 18.75 0 0.75" fill="none" stroke="#000000" stroke-linecap="round" stroke-linejoin="round" stroke-width="1"></path></svg>