<svg xmlns="http://www.w3.org/2000/svg" fill="none" viewBox="0 0 24 24" id="Touch-Id-Lock--Streamline-Ultimate"><desc>Touch Id Lock Streamline Icon: https://streamlinehq.com</desc><path stroke="#000000" stroke-linecap="round" stroke-linejoin="round" d="M12 1.74996C10.859 1.09471 9.56589 0.750722 8.25014 0.752448 6.93438 0.754174 5.64217 1.10155 4.5029 1.75979c-1.13926 0.65825 -2.0856 1.60425 -2.74424 2.74329C1.10002 5.64212 0.752187 6.93421 0.75 8.24996" stroke-width="1"></path><path stroke="#000000" stroke-linecap="round" stroke-linejoin="round" d="M15.7499 8.25c0.0022 -1.03203 -0.2089 -2.05339 -0.62 -3" stroke-width="1"></path><path stroke="#000000" stroke-linecap="round" stroke-linejoin="round" d="M8.25 23.2499c0.5038 0.0011 1.0064 -0.0492 1.5 -0.15" stroke-width="1"></path><path stroke="#000000" stroke-linecap="round" stroke-linejoin="round" d="M0.750003 12.75v3c-0.001195 1.4604 0.423987 2.8893 1.223367 4.1115 0.79938 1.2222 1.93818 2.1844 3.27663 2.7685" stroke-width="1"></path><path stroke="#000000" stroke-linecap="round" stroke-linejoin="round" d="M12.75 11.75V8.24996c0.0005 -0.79016 -0.2071 -1.56653 -0.6018 -2.25102 -0.3948 -0.68448 -0.9628 -1.25296 -1.6469 -1.64826 -0.68422 -0.3953 -1.46042 -0.60348 -2.25058 -0.60361C7.46056 3.74694 6.6843 3.95488 6 4.34996" stroke-width="1"></path><path stroke="#000000" stroke-linecap="round" stroke-linejoin="round" d="M3.75001 8.25v7.5c-0.00132 0.5913 0.11418 1.1771 0.33986 1.7236 0.22568 0.5466 0.55709 1.0432 0.97522 1.4613 0.41813 0.4181 0.91473 0.7496 1.46129 0.9752 0.54656 0.2257 1.13231 0.3412 1.72363 0.3399 0.51075 0.0048 1.0184 -0.0798 1.5 -0.25" stroke-width="1"></path><path stroke="#000000" stroke-linecap="round" stroke-linejoin="round" d="M6.75 15.75c0 0.3978 0.15804 0.7794 0.43934 1.0607s0.66284 0.4393 1.06066 0.4393c0.39782 0 0.77936 -0.158 1.06066 -0.4393 0.2813 -0.2813 0.43934 -0.6629 0.43934 -1.0607v-7.5c0 -0.39782 -0.15804 -0.77936 -0.43934 -1.06066C9.02936 6.90804 8.64782 6.75 8.25 6.75c-0.39782 0 -0.77936 0.15804 -1.06066 0.43934 -0.2813 0.2813 -0.43934 0.66284 -0.43934 1.06066v3" stroke-width="1"></path><g><path stroke="#000000" stroke-linecap="round" stroke-linejoin="round" d="M21.75 15.75h-6c-0.8284 0 -1.5 0.6716 -1.5 1.5v4.5c0 0.8284 0.6716 1.5 1.5 1.5h6c0.8284 0 1.5 -0.6716 1.5 -1.5v-4.5c0 -0.8284 -0.6716 -1.5 -1.5 -1.5Z" stroke-width="1"></path><path stroke="#000000" stroke-linecap="round" stroke-linejoin="round" d="M18.75 11.25c-0.7956 0 -1.5587 0.3161 -2.1213 0.8787 -0.5626 0.5626 -0.8787 1.3257 -0.8787 2.1213v1.5h6v-1.5c0 -0.7956 -0.3161 -1.5587 -0.8787 -2.1213 -0.5626 -0.5626 -1.3257 -0.8787 -2.1213 -0.8787Z" stroke-width="1"></path><path stroke="#000000" d="M18.7551 19.9001c-0.2071 0 -0.375 -0.1678 -0.375 -0.375 0 -0.2071 0.1679 -0.375 0.375 -0.375" stroke-width="1"></path><path stroke="#000000" d="M18.7551 19.9001c0.2071 0 0.375 -0.1678 0.375 -0.375 0 -0.2071 -0.1679 -0.375 -0.375 -0.375" stroke-width="1"></path></g></svg>