<svg xmlns="http://www.w3.org/2000/svg" viewBox="0 0 24 24" id="Touch-Id-Desktop--Streamline-Ultimate"><desc>Touch Id Desktop Streamline Icon: https://streamlinehq.com</desc><defs></defs><title>touch-id-desktop</title><path d="m15.001 23.25 -6 0 0.75 -4.5 4.5 0 0.75 4.5z" fill="none" stroke="#000000" stroke-linecap="round" stroke-linejoin="round" stroke-width="1"></path><path d="m6.751 23.25 10.5 0" fill="none" stroke="#000000" stroke-linecap="round" stroke-linejoin="round" stroke-width="1"></path><path d="M3.751 0.75h16.5s3 0 3 3v12s0 3 -3 3h-16.5s-3 0 -3 -3v-12s0 -3 3 -3" fill="none" stroke="#000000" stroke-linecap="round" stroke-linejoin="round" stroke-width="1"></path><path d="m0.751 15.75 22.5 0" fill="none" stroke="#000000" stroke-linecap="round" stroke-linejoin="round" stroke-width="1"></path><path d="M16.5 12.75v-4.5A4.477 4.477 0 0 0 15.9 6" fill="none" stroke="#000000" stroke-linecap="round" stroke-linejoin="round" stroke-width="1"></path><path d="m7.501 8.25 0 4.5" fill="none" stroke="#000000" stroke-linecap="round" stroke-linejoin="round" stroke-width="1"></path><path d="M13.472 4a4.507 4.507 0 0 0 -5.2 1.738" fill="none" stroke="#000000" stroke-linecap="round" stroke-linejoin="round" stroke-width="1"></path><path d="M10.5 9v-0.75a1.5 1.5 0 0 1 3 0v4.5" fill="none" stroke="#000000" stroke-linecap="round" stroke-linejoin="round" stroke-width="1"></path><path d="m10.501 12 0 0.75" fill="none" stroke="#000000" stroke-linecap="round" stroke-linejoin="round" stroke-width="1"></path></svg>