<svg xmlns="http://www.w3.org/2000/svg" viewBox="0 0 24 24" id="Touch-Id-Approved--Streamline-Ultimate"><desc>Touch Id Approved Streamline Icon: https://streamlinehq.com</desc><g><g><path d="M12 1.75A7.51 7.51 0 0 0 0.75 8.25" fill="none" stroke="#000000" stroke-linecap="round" stroke-linejoin="round" stroke-width="1"></path><path d="M15.74 7.92a7.4 7.4 0 0 0 -0.61 -2.67" fill="none" stroke="#000000" stroke-linecap="round" stroke-linejoin="round" stroke-width="1"></path><path d="M8.25 23.25a8.05 8.05 0 0 0 1.11 -0.08" fill="none" stroke="#000000" stroke-linecap="round" stroke-linejoin="round" stroke-width="1"></path><path d="M0.75 12.75v3a7.5 7.5 0 0 0 4.5 6.88" fill="none" stroke="#000000" stroke-linecap="round" stroke-linejoin="round" stroke-width="1"></path><path d="M12.75 9.5V8.25A4.5 4.5 0 0 0 6 4.35" fill="none" stroke="#000000" stroke-linecap="round" stroke-linejoin="round" stroke-width="1"></path><path d="M3.75 8.25v7.5a4.5 4.5 0 0 0 4.5 4.5" fill="none" stroke="#000000" stroke-linecap="round" stroke-linejoin="round" stroke-width="1"></path><path d="M9.75 11.25v-3a1.5 1.5 0 0 0 -3 0v3" fill="none" stroke="#000000" stroke-linecap="round" stroke-linejoin="round" stroke-width="1"></path><path d="M6.75 15.75a1.5 1.5 0 0 0 1.5 1.5" fill="none" stroke="#000000" stroke-linecap="round" stroke-linejoin="round" stroke-width="1"></path></g><g><path d="M11.25 17.25a6 6 0 1 0 12 0 6 6 0 1 0 -12 0" fill="none" stroke="#000000" stroke-linecap="round" stroke-linejoin="round" stroke-width="1"></path><path d="M19.92 15.51 17 19.38a0.78 0.78 0 0 1 -0.55 0.3 0.77 0.77 0 0 1 -0.58 -0.22L14.38 18" fill="none" stroke="#000000" stroke-linecap="round" stroke-linejoin="round" stroke-width="1"></path></g></g></svg>