<svg xmlns="http://www.w3.org/2000/svg" viewBox="0 0 24 24" id="Touch-Id-3--Streamline-Ultimate"><desc>Touch Id 3 Streamline Icon: https://streamlinehq.com</desc><defs></defs><title>touch-id-3</title><path d="M18.008 13.5V12c0 -3.713 -2.7 -6.75 -6 -6.75h0c-3.3 0 -6 3.037 -6 6.75v6.75" fill="none" stroke="#000000" stroke-linecap="round" stroke-linejoin="round" stroke-width="1"></path><path d="m18.008 18.75 0 -2.25" fill="none" stroke="#000000" stroke-linecap="round" stroke-linejoin="round" stroke-width="1"></path><path d="m9.008 16.5 0 2.25" fill="none" stroke="#000000" stroke-linecap="round" stroke-linejoin="round" stroke-width="1"></path><path d="M15.008 18.75v-6c0 -2.063 -1.35 -3.75 -3 -3.75h0c-1.65 0 -3 1.687 -3 3.75v0.75" fill="none" stroke="#000000" stroke-linecap="round" stroke-linejoin="round" stroke-width="1"></path><path d="m12.008 17.25 0 1.5" fill="none" stroke="#000000" stroke-linecap="round" stroke-linejoin="round" stroke-width="1"></path><path d="m12.008 12 0 2.25" fill="none" stroke="#000000" stroke-linecap="round" stroke-linejoin="round" stroke-width="1"></path><path d="M2.258 0.75h19.5s1.5 0 1.5 1.5v19.5s0 1.5 -1.5 1.5h-19.5s-1.5 0 -1.5 -1.5V2.25s0 -1.5 1.5 -1.5" fill="none" stroke="#000000" stroke-linecap="round" stroke-linejoin="round" stroke-width="1"></path></svg>