<svg viewBox="0 0 24 24" xmlns="http://www.w3.org/2000/svg" id="Touch-Id-4--Streamline-Ultimate"><desc>Touch Id 4 Streamline Icon: https://streamlinehq.com</desc><path d="M18 12.75v-1.5c0 -3.713 -2.7 -6.75 -6 -6.75h0c-3.3 0 -6 3.037 -6 6.75v6" fill="none" stroke="#000000" stroke-linecap="round" stroke-linejoin="round" stroke-width="1"></path><path d="m18.001 17.25 0 -1.5" fill="none" stroke="#000000" stroke-linecap="round" stroke-linejoin="round" stroke-width="1"></path><path d="m9.001 15.75 0 1.5" fill="none" stroke="#000000" stroke-linecap="round" stroke-linejoin="round" stroke-width="1"></path><path d="M15 17.25V12c0 -2.063 -1.35 -3.75 -3 -3.75h0c-1.65 0 -3 1.687 -3 3.75v0.75" fill="none" stroke="#000000" stroke-linecap="round" stroke-linejoin="round" stroke-width="1"></path><path d="m12.001 16.5 0 0.75" fill="none" stroke="#000000" stroke-linecap="round" stroke-linejoin="round" stroke-width="1"></path><path d="m12.001 11.25 0 2.25" fill="none" stroke="#000000" stroke-linecap="round" stroke-linejoin="round" stroke-width="1"></path><path d="M0.751 12a11.25 11.25 0 1 0 22.5 0 11.25 11.25 0 1 0 -22.5 0Z" fill="none" stroke="#000000" stroke-linecap="round" stroke-linejoin="round" stroke-width="1"></path></svg>