<svg viewBox="0 0 24 24" xmlns="http://www.w3.org/2000/svg" id="Touch-Id-2--Streamline-Ultimate"><desc>Touch Id 2 Streamline Icon: https://streamlinehq.com</desc><path d="M23.25 15.75v6a1.5 1.5 0 0 1 -1.5 1.5h-6" fill="none" stroke="#000000" stroke-linecap="round" stroke-linejoin="round" stroke-width="1"></path><path d="M15.75 0.75h6a1.5 1.5 0 0 1 1.5 1.5v6" fill="none" stroke="#000000" stroke-linecap="round" stroke-linejoin="round" stroke-width="1"></path><path d="M0.75 8.25v-6a1.5 1.5 0 0 1 1.5 -1.5h6" fill="none" stroke="#000000" stroke-linecap="round" stroke-linejoin="round" stroke-width="1"></path><path d="M8.25 23.25h-6a1.5 1.5 0 0 1 -1.5 -1.5v-6" fill="none" stroke="#000000" stroke-linecap="round" stroke-linejoin="round" stroke-width="1"></path><path d="M18 13.875v-1.5c0 -3.713 -2.7 -6.75 -6 -6.75h0c-3.3 0 -6 3.037 -6 6.75v6" fill="none" stroke="#000000" stroke-linecap="round" stroke-linejoin="round" stroke-width="1"></path><path d="m18 18.375 0 -1.5" fill="none" stroke="#000000" stroke-linecap="round" stroke-linejoin="round" stroke-width="1"></path><path d="m9 16.875 0 1.5" fill="none" stroke="#000000" stroke-linecap="round" stroke-linejoin="round" stroke-width="1"></path><path d="M15 18.375v-5.25c0 -2.063 -1.35 -3.75 -3 -3.75h0c-1.65 0 -3 1.687 -3 3.75v0.75" fill="none" stroke="#000000" stroke-linecap="round" stroke-linejoin="round" stroke-width="1"></path><path d="m12 17.625 0 0.75" fill="none" stroke="#000000" stroke-linecap="round" stroke-linejoin="round" stroke-width="1"></path><path d="m12 12.375 0 2.25" fill="none" stroke="#000000" stroke-linecap="round" stroke-linejoin="round" stroke-width="1"></path></svg>