<svg xmlns="http://www.w3.org/2000/svg" viewBox="0 0 24 24" id="Touch-Id-User--Streamline-Ultimate"><desc>Touch Id User Streamline Icon: https://streamlinehq.com</desc><g><g><path d="M12 1.75A7.51 7.51 0 0 0 0.75 8.25" fill="none" stroke="#000000" stroke-linecap="round" stroke-linejoin="round" stroke-width="1"></path><path d="M15.68 7.21a8 8 0 0 0 -0.55 -2" fill="none" stroke="#000000" stroke-linecap="round" stroke-linejoin="round" stroke-width="1"></path><path d="M8.25 23.25a8.05 8.05 0 0 0 1.11 -0.08" fill="none" stroke="#000000" stroke-linecap="round" stroke-linejoin="round" stroke-width="1"></path><path d="M3.75 8.25v7.5A4.51 4.51 0 0 0 9 20.19" fill="none" stroke="#000000" stroke-linecap="round" stroke-linejoin="round" stroke-width="1"></path><path d="M0.75 12.75v3a7.5 7.5 0 0 0 4.5 6.88" fill="none" stroke="#000000" stroke-linecap="round" stroke-linejoin="round" stroke-width="1"></path><path d="M12.75 10V8.25A4.5 4.5 0 0 0 6 4.35" fill="none" stroke="#000000" stroke-linecap="round" stroke-linejoin="round" stroke-width="1"></path><path d="M6.75 15.75a1.5 1.5 0 0 0 3 0v-7.5a1.5 1.5 0 0 0 -3 0v3" fill="none" stroke="#000000" stroke-linecap="round" stroke-linejoin="round" stroke-width="1"></path></g><g><path d="M15.37 13.13a2.63 2.63 0 1 0 5.26 0 2.63 2.63 0 1 0 -5.26 0" fill="none" stroke="#000000" stroke-linecap="round" stroke-linejoin="round" stroke-width="1"></path><path d="M18 16.5a5.25 5.25 0 0 0 -5.25 5.25v1.5h10.5v-1.5A5.25 5.25 0 0 0 18 16.5Z" fill="none" stroke="#000000" stroke-linecap="round" stroke-linejoin="round" stroke-width="1"></path></g></g></svg>