<svg viewBox="0 0 24 24" xmlns="http://www.w3.org/2000/svg" id="Brain-Chip--Streamline-Ultimate"><desc>Brain Chip Streamline Icon: https://streamlinehq.com</desc><path d="M23.25 12a3 3 0 0 0 -2.183 -2.886 2.249 2.249 0 0 0 -1.383 -3.856 2.29 2.29 0 0 0 -0.411 -0.363 3 3 0 0 0 -5.461 -2.478 2.249 2.249 0 0 0 -3.624 0 3 3 0 0 0 -5.461 2.478 2.29 2.29 0 0 0 -0.411 0.363 2.249 2.249 0 0 0 -1.383 3.856 3 3 0 0 0 0 5.773 2.248 2.248 0 0 0 1.383 3.855 2.29 2.29 0 0 0 0.411 0.363 3 3 0 0 0 5.461 2.478 2.249 2.249 0 0 0 3.624 0 3 3 0 0 0 5.461 -2.478 2.29 2.29 0 0 0 0.411 -0.363 2.248 2.248 0 0 0 1.383 -3.855A3 3 0 0 0 23.25 12Z" fill="none" stroke="#000000" stroke-linecap="round" stroke-linejoin="round" stroke-width="1"></path><path d="m7.5 7.5 9 0 0 9 -9 0Z" fill="none" stroke="#000000" stroke-linecap="round" stroke-linejoin="round" stroke-width="1"></path><path d="m9.75 7.5 0 -1.5" fill="none" stroke="#000000" stroke-linecap="round" stroke-linejoin="round" stroke-width="1"></path><path d="m14.25 7.5 0 -1.5" fill="none" stroke="#000000" stroke-linecap="round" stroke-linejoin="round" stroke-width="1"></path><path d="m9.75 18 0 -1.5" fill="none" stroke="#000000" stroke-linecap="round" stroke-linejoin="round" stroke-width="1"></path><path d="m14.25 18 0 -1.5" fill="none" stroke="#000000" stroke-linecap="round" stroke-linejoin="round" stroke-width="1"></path><path d="m16.5 9.75 1.5 0" fill="none" stroke="#000000" stroke-linecap="round" stroke-linejoin="round" stroke-width="1"></path><path d="m16.5 14.25 1.5 0" fill="none" stroke="#000000" stroke-linecap="round" stroke-linejoin="round" stroke-width="1"></path><path d="m6 9.75 1.5 0" fill="none" stroke="#000000" stroke-linecap="round" stroke-linejoin="round" stroke-width="1"></path><path d="m6 14.25 1.5 0" fill="none" stroke="#000000" stroke-linecap="round" stroke-linejoin="round" stroke-width="1"></path><path d="M10.5 10.5h3v3h-3z" fill="none" stroke="#000000" stroke-linecap="round" stroke-linejoin="round" stroke-width="1"></path></svg>