<svg xmlns="http://www.w3.org/2000/svg" fill="none" viewBox="0 0 24 24" id="Deep-Fake-Application-Artist--Streamline-Ultimate"><desc>Deep Fake Application Artist Streamline Icon: https://streamlinehq.com</desc><path stroke="#000000" stroke-linecap="round" stroke-linejoin="round" stroke-miterlimit="10" d="M23.25 6.54988c0 2.3 -1.9 4.20002 -4.2 4.20002 -2.3 0 -4.2 -1.90002 -4.2 -4.20002v-3.7c0 -1.2 0.9 -2.100002 2.1 -2.100002h4.2c1.2 0 2.1 0.900002 2.1 2.100002v3.7Z" stroke-width="1"></path><path stroke="#000000" stroke-linecap="round" stroke-linejoin="round" stroke-miterlimit="10" d="M18.95 0.749878V10.4499" stroke-width="1"></path><path stroke="#000000" stroke-linecap="round" stroke-linejoin="round" stroke-miterlimit="10" d="M12.45 2.15002h2" stroke-width="1"></path><path stroke="#000000" stroke-linecap="round" stroke-linejoin="round" stroke-miterlimit="10" d="M10.95 5.15002h3.5" stroke-width="1"></path><path stroke="#000000" stroke-linecap="round" stroke-linejoin="round" stroke-miterlimit="10" d="M14.75 5.04993h8.4" stroke-width="1"></path><path stroke="#000000" stroke-linecap="round" stroke-linejoin="round" stroke-miterlimit="10" d="M10.25 12.25c0 1.7 -1.3 3 -3 3s-3 -1.3 -3 -3v-1.5c0 -1.7 1.3 -3 3 -3s3 1.3 3 3v1.5Z" stroke-width="1"></path><path stroke="#000000" stroke-linecap="round" stroke-linejoin="round" stroke-miterlimit="10" d="M6.25 15.0922v1.6579s-2 0 -3 1c0 0 1 3 3.5 3 1.4 0 1.8 -1.1 2.6 -2v-4.3263" stroke-width="1"></path><path stroke="#000000" stroke-linecap="round" stroke-linejoin="round" stroke-miterlimit="10" d="M13.25 17.25c1 1.1 1.5 2.5 1.5 4v2" stroke-width="1"></path><path stroke="#000000" stroke-linecap="round" stroke-linejoin="round" stroke-miterlimit="10" d="M3.25 17.75s-2.5 1.5 -2.5 5.5" stroke-width="1"></path><path stroke="#000000" stroke-linecap="round" stroke-linejoin="round" stroke-miterlimit="10" d="M9.44995 18.75c2.00005 -2 3.80005 -1.5 3.80005 -1.5v-5.5c0 -2.20914 -1.7909 -4 -4.00005 -4H7.25" stroke-width="1"></path></svg>