<svg xmlns="http://www.w3.org/2000/svg" fill="none" viewBox="0 0 24 24" id="Deep-Fake-Application-Pornography-Rotate--Streamline-Ultimate"><desc>Deep Fake Application Pornography Rotate Streamline Icon: https://streamlinehq.com</desc><path stroke="#000000" stroke-linecap="round" stroke-linejoin="round" stroke-miterlimit="10" d="M10.05 3.75h-7.8c-0.8 0 -1.5 0.7 -1.5 1.5v16.5c0 0.8 0.7 1.5 1.5 1.5h18c0.8 0 1.5 -0.7 1.5 -1.5v-6.2" stroke-width="1"></path><path stroke="#000000" stroke-linecap="round" stroke-linejoin="round" stroke-miterlimit="10" d="M0.75 8.25h9.4" stroke-width="1"></path><path stroke="#000000" stroke-linecap="round" stroke-linejoin="round" stroke-miterlimit="10" d="M13.8096 4.51953c1.5182 1.61945 3.6438 2.5304 6.073 2.5304 1.2145 0 2.3279 -0.20244 3.3401 -0.70851" stroke-width="1"></path><path stroke="#000000" stroke-linecap="round" stroke-linejoin="round" stroke-miterlimit="10" d="M21.3501 2.95017c1.2 0.9 1.9 2.29999 1.9 3.89999 0 2.8 -2.2 5.00004 -5 5.00004s-5 -2.20004 -5 -5.00004c0 -2.56204 1.8419 -4.62173 4.3001 -4.95331" stroke-width="1"></path><path stroke="#000000" stroke-linecap="round" stroke-linejoin="round" stroke-miterlimit="10" d="m16.55 0.75 1.8001 1.2 -1.3001 1.9" stroke-width="1"></path><path stroke="#000000" stroke-linecap="round" stroke-linejoin="round" stroke-miterlimit="10" d="M16.55 16.1501h3" stroke-width="1"></path><path stroke="#000000" stroke-linecap="round" stroke-linejoin="round" stroke-miterlimit="10" d="M18.05 14.6501v3" stroke-width="1"></path><path stroke="#000000" stroke-linecap="round" stroke-linejoin="round" d="m6.04059 13.1501 0 6" stroke-width="1"></path><path stroke="#000000" stroke-linecap="round" stroke-linejoin="round" d="m4.04059 14.6501 0.5 0c0.82843 0 1.5 -0.6715 1.5 -1.5v0" stroke-width="1"></path><path stroke="#000000" stroke-linecap="round" stroke-linejoin="round" d="M8.04059 19.1501h-4" stroke-width="1"></path><path stroke="#000000" stroke-linecap="round" stroke-linejoin="round" d="m11.8644 15.9001 0.75 0c0.7594 0 1.375 -0.6156 1.375 -1.375s-0.6156 -1.375 -1.375 -1.375l-0.75 0.0001c-0.7594 0 -1.375 0.6156 -1.375 1.3749 0 0.7594 0.6156 1.375 1.375 1.375Z" stroke-width="1"></path><path stroke="#000000" stroke-linecap="round" stroke-linejoin="round" d="m14.2394 17.6501 0 -0.25c0 -0.8284 -0.6716 -1.5 -1.5 -1.5l-1 0c-0.8284 0 -1.5 0.6716 -1.5 1.5l0 0.25c0 0.8285 0.6716 1.5 1.5 1.5l1 0c0.8284 0 1.5 -0.6715 1.5 -1.5Z" stroke-width="1"></path></svg>