<svg xmlns="http://www.w3.org/2000/svg" fill="none" viewBox="0 0 24 24" id="Deep-Fake-Application-Political-Person-Female-Rotate--Streamline-Ultimate"><desc>Deep Fake Application Political Person Female Rotate Streamline Icon: https://streamlinehq.com</desc><path stroke="#000000" stroke-linecap="round" stroke-linejoin="round" stroke-miterlimit="10" d="M13.8164 4.52124c1.5171 1.61828 3.6411 2.52856 6.0686 2.52856 1.2137 0 2.3262 -0.20229 3.3377 -0.708" stroke-width="1"></path><path stroke="#000000" stroke-linecap="round" stroke-linejoin="round" stroke-miterlimit="10" d="M21.35 2.95001c1.2 0.9 1.9 2.3 1.9 3.9 0 2.8 -2.2 4.99999 -5 4.99999s-5 -2.19999 -5 -4.99999c0 -2.58435 1.8742 -4.65756 4.3644 -4.96158" stroke-width="1"></path><path stroke="#000000" stroke-linecap="round" stroke-linejoin="round" stroke-miterlimit="10" d="m16.55 0.749878 1.8 1.200002 -1.3 1.9" stroke-width="1"></path><path stroke="#000000" stroke-linecap="round" stroke-linejoin="round" stroke-miterlimit="10" d="M0.75 23.25h17" stroke-width="1"></path><path stroke="#000000" stroke-linecap="round" stroke-linejoin="round" stroke-miterlimit="10" d="M10.55 5.24993c-0.5 -0.2 -0.90004 -0.2 -1.50004 -0.2 -2.5 0 -4.60001 2.1 -4.60001 4.6v1.29997c0 1.5 -0.39999 2.6 -0.89999 3.3" stroke-width="1"></path><path stroke="#000000" stroke-linecap="round" stroke-linejoin="round" stroke-miterlimit="10" d="M4.44998 10.4499c1.8 0 3.50001 -0.80005 4.60001 -2.10005 0.4 0.5 0.9 0.90001 1.50001 1.30001" stroke-width="1"></path><path stroke="#000000" stroke-linecap="round" stroke-linejoin="round" stroke-miterlimit="10" d="M11.95 13.0499c-0.7 0.7 -1.7 1.2 -2.80004 1.2 -2.2 0 -4 -1.7 -4.1 -3.9" stroke-width="1"></path><path stroke="#000000" stroke-linecap="round" stroke-linejoin="round" stroke-miterlimit="10" d="M15.85 20.35c-1.3 -2.4 -3.8 -4.1 -6.70002 -4.1 -2.9 0 -5.5 1.7 -6.8 4.1" stroke-width="1"></path></svg>