<svg xmlns="http://www.w3.org/2000/svg" fill="none" viewBox="0 0 24 24" id="Deepfake-Ai--Streamline-Ultimate"><desc>Deepfake Ai Streamline Icon: https://streamlinehq.com</desc><path stroke="#000000" stroke-linecap="round" stroke-linejoin="round" stroke-miterlimit="10" d="M15.4235 6.24997c-2.5 -1.5 -4 3 -4 3l4 -0.5" stroke-width="1"></path><path stroke="#000000" stroke-linecap="round" stroke-linejoin="round" stroke-miterlimit="10" d="M20.9234 15.25v2c0 0.6 -0.4 1 -1 1v2.5c0 1.1 -0.9 2 -2 2h-5s-0.9 -9 -5.89996 -9V3.22871" stroke-width="1"></path><path stroke="#000000" stroke-linecap="round" stroke-linejoin="round" stroke-miterlimit="10" d="m17.9235 12.25 0.5 -0.5" stroke-width="1"></path><path stroke="#000000" stroke-linecap="round" stroke-linejoin="round" stroke-miterlimit="10" d="M2.25 8.85004c0.82843 0 1.5 -0.67158 1.5 -1.5 0 -0.82843 -0.67157 -1.5 -1.5 -1.5s-1.5 0.67157 -1.5 1.5c0 0.82842 0.67157 1.5 1.5 1.5Z" stroke-width="1"></path><path stroke="#000000" stroke-linecap="round" stroke-linejoin="round" stroke-miterlimit="10" d="M2.25 16.35c0.82843 0 1.5 -0.6715 1.5 -1.5 0 -0.8284 -0.67157 -1.5 -1.5 -1.5s-1.5 0.6716 -1.5 1.5c0 0.8285 0.67157 1.5 1.5 1.5Z" stroke-width="1"></path><path stroke="#000000" stroke-linecap="round" stroke-linejoin="round" stroke-miterlimit="10" d="M4.48672 23.25c0.82843 0 1.5 -0.6716 1.5 -1.5s-0.67157 -1.5 -1.5 -1.5c-0.82842 0 -1.5 0.6716 -1.5 1.5s0.67158 1.5 1.5 1.5Z" stroke-width="1"></path><path stroke="#000000" stroke-linecap="round" stroke-linejoin="round" stroke-miterlimit="10" d="M12.7812 21.75H5.98438" stroke-width="1"></path><path stroke="#000000" stroke-linecap="round" stroke-linejoin="round" stroke-miterlimit="10" d="m3.7124 14.5298 3.31103 -0.7798" stroke-width="1"></path><path stroke="#000000" stroke-linecap="round" stroke-linejoin="round" stroke-miterlimit="10" d="m6.22345 18.15 2.1 -0.4 0.5 4" stroke-width="1"></path><path stroke="#000000" stroke-linecap="round" stroke-linejoin="round" stroke-miterlimit="10" d="m4.02344 10.85 3 -1.19998" stroke-width="1"></path><path stroke="#000000" stroke-linecap="round" stroke-linejoin="round" stroke-miterlimit="10" d="m19.4235 7.25 2.1007 1.80059" stroke-width="1"></path><path stroke="#000000" stroke-linecap="round" stroke-linejoin="round" stroke-miterlimit="10" d="M21.4235 15.25h-3s-2 1 -3 1" stroke-width="1"></path><path stroke="#000000" stroke-linecap="round" stroke-linejoin="round" stroke-miterlimit="10" d="M3.3161 6.30499 7.02343 3.2287" stroke-width="1"></path></svg>