<svg xmlns="http://www.w3.org/2000/svg" fill="none" viewBox="0 0 24 24" id="Deepfake-Person--Streamline-Ultimate"><desc>Deepfake Person Streamline Icon: https://streamlinehq.com</desc><path stroke="#000000" stroke-linecap="round" stroke-linejoin="round" stroke-miterlimit="10" d="M8.61877 3.13489c1.21727 1.3187 3.04323 2.13022 4.97053 2.13022 1.0144 0 1.9273 -0.20288 2.7388 -0.60864" stroke-width="1"></path><path stroke="#000000" stroke-linecap="round" stroke-linejoin="round" stroke-miterlimit="10" d="M12.25 9.15001c2.2644 0 4.1 -1.83563 4.1 -4.1 0 -2.26436 -1.8356 -4.099998 -4.1 -4.099998 -2.26435 0 -4.09998 1.835638 -4.09998 4.099998 0 2.26437 1.83563 4.1 4.09998 4.1Z" stroke-width="1"></path><path stroke="#000000" stroke-linecap="round" stroke-linejoin="round" stroke-miterlimit="10" d="M6.13385 14.0019C7.55203 12.1699 9.79339 10.95 12.25 10.95c2.5414 0 4.7239 1.2199 6.1221 3.0519" stroke-width="1"></path><path stroke="#000000" stroke-linecap="round" stroke-linejoin="round" d="M12.6418 23.1922v-6m4 0 -4 4m1.5 -1.5 3 3.5" stroke-width="1"></path><path stroke="#000000" stroke-linecap="round" stroke-linejoin="round" d="m23.1698 17.1922 -4 0v6h4m-4 -3.25h3.5" stroke-width="1"></path><path stroke="#000000" stroke-linecap="round" stroke-linejoin="round" d="M0.8302 23.1922v-6h4" stroke-width="1"></path><path stroke="#000000" stroke-linecap="round" stroke-linejoin="round" d="m0.8302 19.9422 3.5 0" stroke-width="1"></path><path stroke="#000000" stroke-linecap="round" stroke-linejoin="round" d="m5.68689 23.1922 1.84189 -5.5257c0.09442 -0.2832 0.35951 -0.4743 0.65811 -0.4743v0c0.29859 0 0.56369 0.1911 0.65811 0.4743l1.8419 5.5257m-4.33334 -2h3.66664" stroke-width="1"></path></svg>