<svg xmlns="http://www.w3.org/2000/svg" fill="none" viewBox="0 0 24 24" id="Face-Swap--Streamline-Ultimate"><desc>Face Swap Streamline Icon: https://streamlinehq.com</desc><path stroke="#000000" stroke-linecap="round" stroke-linejoin="round" stroke-miterlimit="10" d="M7.08081 23.0037C8.43342 21.8574 10.1793 21.15 12.05 21.15c1.8707 0 3.5749 0.7074 4.898 1.8537" stroke-width="1"></path><path stroke="#000000" stroke-linecap="round" stroke-linejoin="round" stroke-miterlimit="10" d="M8.46295 2.85065c1.21691 1.31832 2.98555 2.10804 4.91225 2.10804 1.0141 0 1.9268 -0.20281 2.7381 -0.60845" stroke-width="1"></path><path stroke="#000000" stroke-linecap="round" stroke-linejoin="round" stroke-miterlimit="10" d="M12.0499 8.95c2.2644 0 4.1 -1.83563 4.1 -4.1 0 -2.26437 -1.8356 -4.1 -4.1 -4.1 -2.26433 0 -4.09995 1.83563 -4.09995 4.1 0 2.26437 1.83562 4.1 4.09995 4.1Z" stroke-width="1"></path><path stroke="#000000" stroke-linecap="round" stroke-linejoin="round" stroke-miterlimit="10" d="M1.37573 2.75c1 1 2.19999 1.7 3.59999 1.9" stroke-width="1"></path><path stroke="#000000" stroke-linecap="round" stroke-linejoin="round" stroke-miterlimit="10" d="M5.94994 8.84998c-0.4 0.1 -0.70001 0.2 -1.10001 0.2 -2.3 0 -4.099991 -1.80001 -4.099991 -4.10001S2.54993 0.849976 4.84993 0.849976c0.5 0 0.9 0.1 1.3 0.200004" stroke-width="1"></path><path stroke="#000000" stroke-linecap="round" stroke-linejoin="round" stroke-miterlimit="10" d="M19.0164 4.74998c0.5 0.1 1 0.19999 1.5 0.19999 1 0 1.9 -0.19999 2.7 -0.59999" stroke-width="1"></path><path stroke="#000000" stroke-linecap="round" stroke-linejoin="round" stroke-miterlimit="10" d="M17.95 0.949997S18.75 0.75 19.15 0.75c2.3 0 4.1 1.8 4.1 4.1s-1.8 4.1 -4.1 4.1c-0.4 0 -0.7 -0.1 -1.1 -0.1" stroke-width="1"></path><path stroke="#000000" stroke-linecap="round" stroke-linejoin="round" stroke-miterlimit="10" d="M8.46826 13.3562c1.21731 1.3188 2.98644 2.1087 4.91384 2.1087 1.0145 0 1.9275 -0.2028 2.739 -0.6086" stroke-width="1"></path><path stroke="#000000" stroke-linecap="round" stroke-linejoin="round" stroke-miterlimit="10" d="M12.0499 19.45c2.2644 0 4.1 -1.8356 4.1 -4.1 0 -2.2644 -1.8356 -4.1 -4.1 -4.1 -2.26433 0 -4.09995 1.8356 -4.09995 4.1 0 2.2644 1.83562 4.1 4.09995 4.1Z" stroke-width="1"></path></svg>