<svg xmlns="http://www.w3.org/2000/svg" fill="none" viewBox="0 0 24 24" id="Face-Swap-Select--Streamline-Ultimate"><desc>Face Swap Select Streamline Icon: https://streamlinehq.com</desc><path stroke="#000000" stroke-linecap="round" stroke-linejoin="round" stroke-miterlimit="10" d="M14.25 24.15c-1.3 -2.4 -3.8 -4.1 -6.7 -4.1 -2.9 0 -5.5 1.7 -6.8 4.1" stroke-width="1"></path><path stroke="#000000" stroke-linecap="round" stroke-linejoin="round" stroke-miterlimit="10" d="M3.9585 12.1421c1.20906 1.3098 3.02266 2.1158 4.93702 2.1158 1.00755 0 1.91438 -0.2015 2.72038 -0.6045" stroke-width="1"></path><path stroke="#000000" stroke-linecap="round" stroke-linejoin="round" stroke-miterlimit="10" d="M9.65001 17.65c-0.6 0.4 -1.29999 0.6 -2.09999 0.6 -2.3 0 -4.10001 -1.8 -4.10001 -4.1s1.80001 -4.1 4.10001 -4.1 4.09998 1.8 4.09998 4.1" stroke-width="1"></path><path stroke="#000000" stroke-linecap="round" stroke-linejoin="round" stroke-miterlimit="10" d="M14.25 11.1614c-0.9 -0.8 -1.4 -1.89997 -1.4 -3.09997v-2.1c0 -1.8 1.1 -3.5 2.8 -4 2.8 -0.9 5.4 1.2 5.4 3.9v2.2c0 1.2 -0.4999 2.29997 -1.3999 3.09997" stroke-width="1"></path><path stroke="#000000" stroke-linecap="round" stroke-linejoin="round" stroke-miterlimit="10" d="m16.35 21.8615 -3.1 -3.1c-0.6 -0.6 -0.6 -1.5 0 -2.1 0.6 -0.6 1.5 -0.6 2.1 0 0.2 0.2 0.6 0.3 0.9 0.2 0.3 -0.1 0.5 -0.4001 0.5 -0.8001v-4.1999c0 -0.8 0.7 -1.5 1.5 -1.5s1.5 0.7 1.5 1.5v1.2999c0 0.8 0.5 1.5 1.2 1.8l1.1 0.5c0.7 0.3 1.2 1.0001 1.2 1.8001v4.4" stroke-width="1"></path><path stroke="#000000" stroke-linecap="round" stroke-linejoin="round" stroke-miterlimit="10" d="M12.85 6.46145s2.8001 0.6 4.8001 -2.1c1 1 2.0999 1.4 3.3999 1.1" stroke-width="1"></path></svg>