<svg xmlns="http://www.w3.org/2000/svg" fill="none" viewBox="0 0 24 24" id="Politic-Male--Streamline-Ultimate"><desc>Politic Male Streamline Icon: https://streamlinehq.com</desc><path stroke="#000000" stroke-linecap="round" stroke-linejoin="round" stroke-miterlimit="10" d="M16.15 8.96833c-0.7 -0.625 -1.2 -1.5625 -1.2 -2.70833V4.385c0 -1.5625 0.9 -3.02084 2.3 -3.437504 2.3 -0.729166 4.5 1.041664 4.5 3.333334V6.26c0 1.04166 -0.4 1.97916 -1.1 2.60416" stroke-width="1"></path><path stroke="#000000" stroke-linecap="round" stroke-linejoin="round" stroke-miterlimit="10" d="M14.9501 5.73934s2.3 0.52083 4 -1.77083c0.8 0.9375 1.7 1.25 2.8 0.9375" stroke-width="1"></path><path stroke="#000000" stroke-linecap="round" stroke-linejoin="round" stroke-miterlimit="10" d="m19.75 13.0309 -1.8 -4.79164 4.6 1.87504 -2.8 2.9166Z" stroke-width="1"></path><path stroke="#000000" stroke-linecap="round" stroke-linejoin="round" stroke-miterlimit="10" d="m21.15 11.5725 2.1 2.1875" stroke-width="1"></path><path stroke="#000000" stroke-linecap="round" stroke-linejoin="round" stroke-miterlimit="10" d="M0.75 15.4371h15" stroke-width="1"></path><path stroke="#000000" stroke-linecap="round" stroke-linejoin="round" stroke-miterlimit="10" d="M12.95 23.2496h-9.5l-0.7 -7.8125h11l-0.8 7.8125Z" stroke-width="1"></path><path stroke="#000000" stroke-linecap="round" stroke-linejoin="round" stroke-miterlimit="10" d="M8.25 9.06213c1.65685 0 3 -1.39911 3 -3.125s-1.34315 -3.125 -3 -3.125 -3 1.39911 -3 3.125 1.34315 3.125 3 3.125Z" stroke-width="1"></path><path stroke="#000000" stroke-linecap="round" stroke-linejoin="round" stroke-miterlimit="10" d="M4.29138 13.0687c0.75903 -1.4604 2.2408 -2.4441 3.95865 -2.4441 1.71785 0 3.19957 0.9837 3.95867 2.4441" stroke-width="1"></path></svg>