<svg xmlns="http://www.w3.org/2000/svg" fill="none" viewBox="0 0 24 24" id="Pornography--Streamline-Ultimate"><desc>Pornography Streamline Icon: https://streamlinehq.com</desc><path stroke="#000000" stroke-linecap="round" stroke-linejoin="round" stroke-miterlimit="10" d="M16.1501 8.6096c-0.7 -0.6 -1.2001 -1.5 -1.2001 -2.6v-1.8c0 -1.5 0.9 -2.9 2.3 -3.300004 2.3 -0.7 4.5 1.000004 4.5 3.200004v1.9c0 1 -0.3999 1.9 -1.0999 2.5" stroke-width="1"></path><path stroke="#000000" stroke-linecap="round" stroke-linejoin="round" stroke-miterlimit="10" d="M14.95 5.50981s2.3 0.5 4 -1.7c0.8 0.9 1.7 1.2 2.8 0.9" stroke-width="1"></path><path stroke="#000000" stroke-linecap="round" stroke-linejoin="round" stroke-miterlimit="10" d="m19.75 12.5097 -1.8 -4.60003 4.6 1.8 -2.8 2.80003Z" stroke-width="1"></path><path stroke="#000000" stroke-linecap="round" stroke-linejoin="round" stroke-miterlimit="10" d="m21.15 11.1096 2.1 2.1" stroke-width="1"></path><path stroke="#000000" stroke-linecap="round" stroke-linejoin="round" stroke-miterlimit="10" d="M11.55 3.75h-9.3c-0.8 0 -1.5 0.7 -1.5 1.5v16.5c0 0.8 0.7 1.5 1.5 1.5h18c0.8 0 1.5 -0.7 1.5 -1.5v-6.2" stroke-width="1"></path><path stroke="#000000" stroke-linecap="round" stroke-linejoin="round" stroke-miterlimit="10" d="M0.75 8.25h10.8" stroke-width="1"></path><path stroke="#000000" stroke-linecap="round" stroke-linejoin="round" stroke-miterlimit="10" d="M16.05 16.1501h3" stroke-width="1"></path><path stroke="#000000" stroke-linecap="round" stroke-linejoin="round" stroke-miterlimit="10" d="M17.55 14.6501v3" stroke-width="1"></path><path stroke="#000000" stroke-linecap="round" stroke-linejoin="round" d="m5.54059 13.1501 0 6" stroke-width="1"></path><path stroke="#000000" stroke-linecap="round" stroke-linejoin="round" d="m3.54059 14.6501 0.5 0c0.82843 0 1.5 -0.6715 1.5 -1.5v0" stroke-width="1"></path><path stroke="#000000" stroke-linecap="round" stroke-linejoin="round" d="M7.54059 19.1501h-4" stroke-width="1"></path><path stroke="#000000" stroke-linecap="round" stroke-linejoin="round" d="m11.3644 15.9001 0.75 0c0.7594 0 1.375 -0.6156 1.375 -1.375s-0.6156 -1.375 -1.375 -1.375l-0.75 0.0001c-0.7594 0 -1.37502 0.6156 -1.37502 1.3749 0 0.7594 0.61562 1.375 1.37502 1.375Z" stroke-width="1"></path><path stroke="#000000" stroke-linecap="round" stroke-linejoin="round" d="m13.7394 17.6501 0 -0.25c0 -0.8284 -0.6716 -1.5 -1.5 -1.5l-1 0c-0.8284 0 -1.50002 0.6716 -1.50002 1.5l0 0.25c0 0.8285 0.67162 1.5 1.50002 1.5l1 0c0.8284 0 1.5 -0.6715 1.5 -1.5Z" stroke-width="1"></path></svg>