<svg xmlns="http://www.w3.org/2000/svg" fill="none" viewBox="0 0 24 24" id="Replacing-Human-Face-2--Streamline-Ultimate"><desc>Replacing Human Face 2 Streamline Icon: https://streamlinehq.com</desc><path stroke="#000000" stroke-linecap="round" stroke-linejoin="round" stroke-miterlimit="10" d="m16.5 22.2001 -2.3 -2.2 2.3 -2.3" stroke-width="1"></path><path stroke="#000000" stroke-linecap="round" stroke-linejoin="round" stroke-miterlimit="10" d="M20.2 17.0001c0 1.7 -1.3 3 -3 3h-3" stroke-width="1"></path><path stroke="#000000" stroke-linecap="round" stroke-linejoin="round" stroke-miterlimit="10" d="m6.70001 1.50006 2.30002 2.2 -2.30002 2.3" stroke-width="1"></path><path stroke="#000000" stroke-linecap="round" stroke-linejoin="round" stroke-miterlimit="10" d="M3 6.70007c0 -1.7 1.3 -3 3 -3h3" stroke-width="1"></path><path stroke="#000000" stroke-linecap="round" stroke-linejoin="round" stroke-miterlimit="10" d="M17.65 7.55c1.8778 0 3.4 -1.52223 3.4 -3.4s-1.5222 -3.4 -3.4 -3.4 -3.4 1.52223 -3.4 3.4 1.5222 3.4 3.4 3.4Z" stroke-width="1"></path><path stroke="#000000" stroke-linecap="round" stroke-linejoin="round" stroke-miterlimit="10" d="M23.25 12.85c-0.9 -2.3 -3.1 -3.89999 -5.6 -3.89999 -1.9 0 -3.5 0.8 -4.6 2.19999" stroke-width="1"></path><path stroke="#000000" stroke-linecap="round" stroke-linejoin="round" stroke-miterlimit="10" d="M21.0469 4.16693c-0.6185 0.20615 -1.2369 0.30923 -1.9585 0.30923 -1.7522 0 -3.2984 -0.61845 -4.5353 -1.75228" stroke-width="1"></path><path stroke="#000000" stroke-linecap="round" stroke-linejoin="round" stroke-miterlimit="10" d="M10.75 18.25c0 2.8 -2.2 5 -5 5s-5 -2.2 -5 -5v-4.4c0 -1.4 1.1 -2.5 2.5 -2.5h5c1.4 0 2.5 1.1 2.5 2.5v4.4Z" stroke-width="1"></path><path stroke="#000000" stroke-linecap="round" stroke-linejoin="round" stroke-miterlimit="10" d="M7.75 19.35c-0.5 0.4 -1.2 0.7 -2 0.7s-1.5 -0.3 -2 -0.7" stroke-width="1"></path><path stroke="#000000" stroke-linecap="round" stroke-linejoin="round" stroke-miterlimit="10" d="M5.75 11.35v11.5" stroke-width="1"></path><path stroke="#000000" stroke-linecap="round" stroke-linejoin="round" stroke-miterlimit="10" d="M0.75 15.65h10" stroke-width="1"></path></svg>