<svg viewBox="0 0 24 24" xmlns="http://www.w3.org/2000/svg" id="Robot-Head-1--Streamline-Ultimate"><desc>Robot Head 1 Streamline Icon: https://streamlinehq.com</desc><path d="M18.751 14.25C22.5 3.75 16.087 0.751 12 0.75h0c-4.088 0 -10.5 3 -6.751 13.5" fill="none" stroke="#000000" stroke-linecap="round" stroke-linejoin="round" stroke-width="1"></path><path d="m21.751 23.25 0.818 -5.563A3 3 0 0 0 19.6 14.25H4.4a3.006 3.006 0 0 0 -2.972 3.437l0.819 5.563" fill="none" stroke="#000000" stroke-linecap="round" stroke-linejoin="round" stroke-width="1"></path><path d="M13.501 8.25a1.5 1.5 0 1 0 3 0 1.5 1.5 0 1 0 -3 0Z" fill="none" stroke="#000000" stroke-linecap="round" stroke-linejoin="round" stroke-width="1"></path><path d="M7.501 8.25a1.5 1.5 0 1 0 3 0 1.5 1.5 0 1 0 -3 0Z" fill="none" stroke="#000000" stroke-linecap="round" stroke-linejoin="round" stroke-width="1"></path><path d="m15.751 18.75 3 0" fill="none" stroke="#000000" stroke-linecap="round" stroke-linejoin="round" stroke-width="1"></path><path d="m15.751 21.75 3 0" fill="none" stroke="#000000" stroke-linecap="round" stroke-linejoin="round" stroke-width="1"></path><path d="m19.875 9 3.376 0" fill="none" stroke="#000000" stroke-linecap="round" stroke-linejoin="round" stroke-width="1"></path><path d="M4.117 9 0.751 9" fill="none" stroke="#000000" stroke-linecap="round" stroke-linejoin="round" stroke-width="1"></path><path d="m5.251 18.75 7.5 0 0 4.5 -7.5 0Z" fill="none" stroke="#000000" stroke-linecap="round" stroke-linejoin="round" stroke-width="1"></path></svg>