<svg viewBox="0 0 24 24" xmlns="http://www.w3.org/2000/svg" id="Settings-Human--Streamline-Ultimate"><desc>Settings Human Streamline Icon: https://streamlinehq.com</desc><path d="M19.5 23.25v-6.265A9.365 9.365 0 0 0 13.125 0.75C5.621 0.75 4.3 7.245 1.5 14.25h3v3a3 3 0 0 0 3 3H9v3" fill="none" stroke="#000000" stroke-linecap="round" stroke-linejoin="round" stroke-width="1"></path><path d="M11.25 10.5a1.5 1.5 0 1 0 3 0 1.5 1.5 0 1 0 -3 0Z" fill="none" stroke="#000000" stroke-linecap="round" stroke-linejoin="round" stroke-width="1"></path><path d="m11.476 4.7 -0.442 1.45a0.994 0.994 0 0 1 -1.174 0.681L8.388 6.49a1.339 1.339 0 0 0 -1.275 2.218l1.031 1.111a1 1 0 0 1 0 1.362l-1.031 1.111a1.339 1.339 0 0 0 1.275 2.218l1.472 -0.341a0.994 0.994 0 0 1 1.174 0.681l0.442 1.453a1.33 1.33 0 0 0 2.548 0l0.442 -1.453a0.994 0.994 0 0 1 1.174 -0.681l1.472 0.341a1.339 1.339 0 0 0 1.275 -2.218l-1.031 -1.111a1 1 0 0 1 0 -1.362l1.031 -1.111a1.339 1.339 0 0 0 -1.275 -2.218l-1.472 0.341a0.994 0.994 0 0 1 -1.174 -0.681l-0.442 -1.45a1.33 1.33 0 0 0 -2.548 0Z" fill="none" stroke="#000000" stroke-linecap="round" stroke-linejoin="round" stroke-width="1"></path></svg>