<svg xmlns="http://www.w3.org/2000/svg" fill="none" viewBox="0 0 24 24" id="Target-Human-Research-Search--Streamline-Ultimate"><desc>Target Human Research Search Streamline Icon: https://streamlinehq.com</desc><path stroke="#000000" stroke-linecap="round" stroke-linejoin="round" stroke-miterlimit="10" d="M0.750031 4.95v-3.2c0 -0.6 0.399999 -1 0.999999 -1h3.2" stroke-width="1"></path><path stroke="#000000" stroke-linecap="round" stroke-linejoin="round" stroke-miterlimit="10" d="M19.15 4.95v-3.2c0 -0.6 -0.4 -1 -1 -1h-3.2" stroke-width="1"></path><path stroke="#000000" stroke-linecap="round" stroke-linejoin="round" stroke-miterlimit="10" d="M0.750031 15.45v3.2c0 0.6 0.399999 1 0.999999 1h3.2" stroke-width="1"></path><path stroke="#000000" stroke-linecap="round" stroke-linejoin="round" stroke-miterlimit="10" d="M5.98438 5.23645c1.20518 1.30561 3.01295 2.10906 4.92112 2.10906 1.0043 0 1.9082 -0.20086 2.7117 -0.60258" stroke-width="1"></path><path stroke="#000000" stroke-linecap="round" stroke-linejoin="round" stroke-miterlimit="10" d="M9.54995 11.35c2.26435 0 4.10005 -1.83561 4.10005 -4.09997 0 -2.26437 -1.8357 -4.10001 -4.10005 -4.10001 -2.26437 0 -4.1 1.83564 -4.1 4.10001 0 2.26436 1.83563 4.09997 4.1 4.09997Z" stroke-width="1"></path><path stroke="#000000" stroke-linecap="round" stroke-linejoin="round" stroke-miterlimit="10" d="m9.84996 13.15 -0.3 0c-2.2 0 -4.1 0.9 -5.5 2.3" stroke-width="1"></path><path stroke="#000000" stroke-linecap="round" stroke-linejoin="round" stroke-miterlimit="10" d="M17.25 21.25c2.2091 0 4 -1.7909 4 -4 0 -2.2091 -1.7909 -4 -4 -4 -2.2091 0 -4 1.7909 -4 4 0 2.2091 1.7909 4 4 4Z" stroke-width="1"></path><path stroke="#000000" stroke-linecap="round" stroke-linejoin="round" stroke-miterlimit="10" d="m20.15 20.05 3.1 3.2" stroke-width="1"></path></svg>