<svg xmlns="http://www.w3.org/2000/svg" fill="none" viewBox="0 0 24 24" id="Target-Human-Image-And-Voice--Streamline-Ultimate"><desc>Target Human Image And Voice Streamline Icon: https://streamlinehq.com</desc><path stroke="#000000" stroke-linecap="round" stroke-linejoin="round" stroke-miterlimit="10" d="M8.33594 13.8204c1.22368 1.3257 3.05916 2.1415 4.99666 2.1415 1.0198 0 1.9375 -0.204 2.7533 -0.6119" stroke-width="1"></path><path stroke="#000000" stroke-linecap="round" stroke-linejoin="round" stroke-miterlimit="10" d="M12 19.75c2.2643 0 4.1 -1.8356 4.1 -4.1 0 -2.2644 -1.8357 -4.1 -4.1 -4.1 -2.26441 0 -4.10004 1.8356 -4.10004 4.1 0 2.2644 1.83563 4.1 4.10004 4.1Z" stroke-width="1"></path><path stroke="#000000" stroke-linecap="round" stroke-linejoin="round" stroke-miterlimit="10" d="M16.8 23.25c-1.3 -1 -3 -1.7 -4.8 -1.7 -1.8 0 -3.49999 0.6 -4.79999 1.7" stroke-width="1"></path><path stroke="#000000" stroke-linecap="round" stroke-linejoin="round" stroke-miterlimit="10" d="M8.75 7.75c0 0.6 -0.4 1 -1 1h-6c-0.6 0 -1 -0.4 -1 -1v-6c0 -0.6 0.4 -1 1 -1h6c0.6 0 1 0.4 1 1v6Z" stroke-width="1"></path><path fill="#000000" d="M3.45002 3.7499c0.44183 0 0.8 -0.35817 0.8 -0.8 0 -0.44183 -0.35817 -0.8 -0.8 -0.8 -0.44183 0 -0.8 0.35817 -0.8 0.8 0 0.44183 0.35817 0.8 0.8 0.8Z" stroke-width="1"></path><path stroke="#000000" stroke-linecap="round" stroke-linejoin="round" stroke-miterlimit="10" d="m8.74999 7.05003 -1.4 -2.10001c-0.1 -0.2 -0.4 -0.3 -0.6 -0.3 -0.3 0 -0.5 0.1 -0.6 0.3l-2.6 3.80001" stroke-width="1"></path><path stroke="#000000" stroke-linecap="round" stroke-linejoin="round" stroke-miterlimit="10" d="M12.15 6.00003h1.6c0.1 0 0.2 -0.1 0.2 -0.1l0.6 -1.3c0.0867 -0.20943 0.3602 -0.13521 0.4 0.1l1.3 4.6c0.1 0.2 0.2 0.3 0.4 0.3s0.4 -0.2 0.4 -0.4l1.3 -6.5c0.0953 -0.47347 0.6578 -0.60621 0.8 -0.1l1.3 4.4c0.0511 0.19887 0.2526 0.34707 0.4 0.1l1.1 -1.5c0 -0.1 0.1 -0.1 0.2 -0.1h1.1" stroke-width="1"></path></svg>