<svg xmlns="http://www.w3.org/2000/svg" viewBox="0 0 24 24" id="Technology-Ai-Brain-Coding--Streamline-Ultimate"><desc>Technology Ai Brain Coding Streamline Icon: https://streamlinehq.com</desc><defs></defs><path d="M15.339 9.868h0.521a0.521 0.521 0 0 1 0.521 0.521v3.647" fill="none" stroke="#000000" stroke-linecap="round" stroke-linejoin="round" stroke-width="1"></path><path d="m15.339 14.036 2.084 0" fill="none" stroke="#000000" stroke-linecap="round" stroke-linejoin="round" stroke-width="1"></path><path d="M20.905 2.574h0.521a0.521 0.521 0 0 1 0.521 0.521v3.647" fill="none" stroke="#000000" stroke-linecap="round" stroke-linejoin="round" stroke-width="1"></path><path d="m20.905 6.742 2.084 0" fill="none" stroke="#000000" stroke-linecap="round" stroke-linejoin="round" stroke-width="1"></path><path d="M20.905 17.162h0.521a0.521 0.521 0 0 1 0.521 0.521v3.648" fill="none" stroke="#000000" stroke-linecap="round" stroke-linejoin="round" stroke-width="1"></path><path d="m20.905 21.331 2.084 0" fill="none" stroke="#000000" stroke-linecap="round" stroke-linejoin="round" stroke-width="1"></path><path d="M23.25 12.734a1.3 1.3 0 0 1 -2.605 0v-1.563a1.3 1.3 0 1 1 2.605 0Z" fill="none" stroke="#000000" stroke-linecap="round" stroke-linejoin="round" stroke-width="1"></path><path d="M17.683 20.028a1.3 1.3 0 1 1 -2.605 0v-1.563a1.3 1.3 0 1 1 2.605 0Z" fill="none" stroke="#000000" stroke-linecap="round" stroke-linejoin="round" stroke-width="1"></path><path d="M17.683 5.535a1.3 1.3 0 1 1 -2.605 0V3.972a1.3 1.3 0 1 1 2.605 0Z" fill="none" stroke="#000000" stroke-linecap="round" stroke-linejoin="round" stroke-width="1"></path><path d="M12 21.783a2.929 2.929 0 0 1 -1.47 -0.394 1.953 1.953 0 1 1 -3.83 -0.617 3.64 3.64 0 0 1 -3.225 -5.858 2.921 2.921 0 0 1 0 -5.828A3.64 3.64 0 0 1 6.7 3.228a1.953 1.953 0 1 1 3.831 -0.617A2.929 2.929 0 0 1 12 2.217" fill="none" stroke="#000000" stroke-linecap="round" stroke-linejoin="round" stroke-width="1"></path><path d="m12 13.664 0 0.978" fill="none" stroke="#000000" stroke-linecap="round" stroke-linejoin="round" stroke-width="1"></path><path d="m12 9.164 0 0.978" fill="none" stroke="#000000" stroke-linecap="round" stroke-linejoin="round" stroke-width="1"></path><path d="m12 4.663 0 0.978" fill="none" stroke="#000000" stroke-linecap="round" stroke-linejoin="round" stroke-width="1"></path><path d="m12 18.165 0 0.978" fill="none" stroke="#000000" stroke-linecap="round" stroke-linejoin="round" stroke-width="1"></path></svg>