<svg xmlns="http://www.w3.org/2000/svg" fill="none" viewBox="0 0 24 24" id="Technology-Robot-Google-Assistant--Streamline-Ultimate"><desc>Technology Robot Google Assistant Streamline Icon: https://streamlinehq.com</desc><path stroke="#000000" stroke-linecap="round" stroke-linejoin="round" d="M13.01 7.264c1.7988 0 3.257 -1.45821 3.257 -3.257 0 -1.79879 -1.4582 -3.257 -3.257 -3.257 -1.7988 0 -3.257 1.45821 -3.257 3.257 0 1.79879 1.4582 3.257 3.257 3.257Z" stroke-width="1"></path><path stroke="#000000" stroke-linecap="round" stroke-linejoin="round" d="M19.795 11.856c1.0493 0 1.9 -0.8507 1.9 -1.9 0 -1.04934 -0.8507 -1.9 -1.9 -1.9s-1.9 0.85066 -1.9 1.9c0 1.0493 0.8507 1.9 1.9 1.9Z" stroke-width="1"></path><path stroke="#000000" stroke-linecap="round" stroke-linejoin="round" d="M19.795 18.619c1.0493 0 1.9 -0.8507 1.9 -1.9s-0.8507 -1.9 -1.9 -1.9 -1.9 0.8507 -1.9 1.9 0.8507 1.9 1.9 1.9Z" stroke-width="1"></path><path stroke="#000000" d="M22.802 5.36344c-0.2758 0 -0.4994 -0.22361 -0.4994 -0.49944 0 -0.27584 0.2236 -0.49944 0.4994 -0.49944" stroke-width="1"></path><path stroke="#000000" d="M22.802 5.36344c0.2758 0 0.4994 -0.22361 0.4994 -0.49944 0 -0.27584 -0.2236 -0.49944 -0.4994 -0.49944" stroke-width="1"></path><path stroke="#000000" stroke-linecap="round" stroke-linejoin="round" d="M11.823 22.25c0 0.2652 -0.1054 0.5196 -0.2929 0.7071s-0.4419 0.2929 -0.7071 0.2929h-9c-0.26522 0 -0.51957 -0.1054 -0.70711 -0.2929 -0.187535 -0.1875 -0.292892 -0.4419 -0.292892 -0.7071v-2.5c0 -1.4587 0.579462 -2.8576 1.610912 -3.8891C3.46536 14.8295 4.86431 14.25 6.323 14.25c1.45869 0 2.85764 0.5795 3.8891 1.6109 1.0314 1.0315 1.6109 2.4304 1.6109 3.8891v2.5Z" stroke-width="1"></path><path stroke="#000000" d="M4.323 18.875c-0.20711 0 -0.375 -0.1679 -0.375 -0.375s0.16789 -0.375 0.375 -0.375" stroke-width="1"></path><path stroke="#000000" d="M4.323 18.875c0.2071 0 0.375 -0.1679 0.375 -0.375s-0.1679 -0.375 -0.375 -0.375" stroke-width="1"></path><path stroke="#000000" d="M8.323 18.875c-0.20711 0 -0.375 -0.1679 -0.375 -0.375s0.16789 -0.375 0.375 -0.375" stroke-width="1"></path><path stroke="#000000" d="M8.323 18.875c0.2071 0 0.375 -0.1679 0.375 -0.375s-0.1679 -0.375 -0.375 -0.375" stroke-width="1"></path><path stroke="#000000" stroke-linecap="round" stroke-linejoin="round" d="M6.323 14.25v-2" stroke-width="1"></path><path stroke="#000000" stroke-linecap="round" stroke-linejoin="round" d="M6.323 12.25c0.82843 0 1.5 -0.6716 1.5 -1.5 0 -0.82843 -0.67157 -1.5 -1.5 -1.5s-1.5 0.67157 -1.5 1.5c0 0.8284 0.67157 1.5 1.5 1.5Z" stroke-width="1"></path></svg>