<svg xmlns="http://www.w3.org/2000/svg" viewBox="0 0 24 24" id="Technology-Robot-Strategy-Chess--Streamline-Ultimate"><desc>Technology Robot Strategy Chess Streamline Icon: https://streamlinehq.com</desc><defs></defs><path d="M16.305 6.6a2.861 2.861 0 0 1 -3.067 3.31" fill="none" stroke="#000000" stroke-linecap="round" stroke-linejoin="round" stroke-width="1"></path><path d="M9.126 3.911a3.011 3.011 0 0 1 4.582 -1.741" fill="none" stroke="#000000" stroke-linecap="round" stroke-linejoin="round" stroke-width="1"></path><path d="M2.918 20.173a9.453 9.453 0 0 1 1.55 -5.783 17.822 17.822 0 0 1 1.55 -1.578H1.885c-0.695 0 -0.818 -0.379 -1.034 -1.051a1.069 1.069 0 0 1 0.517 -1.052L5.139 8.08V5.911s1.913 1.118 2.946 1.643c2.276 1.158 2.116 2.152 2.074 3.352a1.088 1.088 0 0 1 -0.2 0.595l-0.489 0.685a4.4 4.4 0 0 0 -0.231 4.75 6.542 6.542 0 0 1 0.91 3.237" fill="none" stroke="#000000" stroke-linecap="round" stroke-linejoin="round" stroke-width="1"></path><path d="M11.616 22.575a0.477 0.477 0 0 1 -0.112 0.415 0.552 0.552 0 0 1 -0.415 0.183H1.663a0.552 0.552 0 0 1 -0.415 -0.183 0.477 0.477 0 0 1 -0.112 -0.415l0.409 -1.9c0.146 -0.408 0.611 -0.5 1.073 -0.5h7.516c0.462 0 0.927 0.092 1.073 0.5Z" fill="none" stroke="#000000" stroke-linecap="round" stroke-linejoin="round" stroke-width="1"></path><path d="m17.537 1.196 5.628 0" fill="none" stroke="#000000" stroke-linecap="round" stroke-linejoin="round" stroke-width="1"></path><path d="m23.165 5.411 -4.704 0" fill="none" stroke="#000000" stroke-linecap="round" stroke-linejoin="round" stroke-width="1"></path><path d="M13.238 3.714a2.888 2.888 0 1 0 5.776 0 2.888 2.888 0 1 0 -5.776 0" fill="none" stroke="#000000" stroke-linecap="round" stroke-linejoin="round" stroke-width="1"></path></svg>