<svg xmlns="http://www.w3.org/2000/svg" viewBox="0 0 24 24" id="Technology-Head-Ai-Neurolink--Streamline-Ultimate"><desc>Technology Head Ai Neurolink Streamline Icon: https://streamlinehq.com</desc><defs></defs><path d="M7.384 23.283v-2.774H6a2.774 2.774 0 0 1 -2.774 -2.775V14.96H1.465a0.7 0.7 0 0 1 -0.647 -0.943C3.172 7.911 4.6 2.475 11.2 2.475" fill="none" stroke="#000000" stroke-linecap="round" stroke-linejoin="round" stroke-width="1"></path><path d="M9.213 5.388h5.257a1.168 1.168 0 0 0 1.168 -1.168v-0.583a1.168 1.168 0 0 1 1.168 -1.168h2.919" fill="none" stroke="#000000" stroke-linecap="round" stroke-linejoin="round" stroke-width="1"></path><path d="m11.55 8.892 5.84 0" fill="none" stroke="#000000" stroke-linecap="round" stroke-linejoin="round" stroke-width="1"></path><path d="M19.725 2.469a1.752 1.752 0 1 0 3.504 0 1.752 1.752 0 1 0 -3.504 0" fill="none" stroke="#000000" stroke-linecap="round" stroke-linejoin="round" stroke-width="1"></path><path d="M9.213 12.4h5.257a1.167 1.167 0 0 1 1.168 1.167h0a1.168 1.168 0 0 0 1.168 1.168h2.919" fill="none" stroke="#000000" stroke-linecap="round" stroke-linejoin="round" stroke-width="1"></path><path d="M19.725 14.731a1.752 1.752 0 1 0 3.504 0 1.752 1.752 0 1 0 -3.504 0" fill="none" stroke="#000000" stroke-linecap="round" stroke-linejoin="round" stroke-width="1"></path><path d="M17.389 8.892a1.752 1.752 0 1 0 3.504 0 1.752 1.752 0 1 0 -3.504 0" fill="none" stroke="#000000" stroke-linecap="round" stroke-linejoin="round" stroke-width="1"></path><path d="m17.094 23.283 0 -4.869" fill="none" stroke="#000000" stroke-linecap="round" stroke-linejoin="round" stroke-width="1"></path></svg>