<svg xmlns="http://www.w3.org/2000/svg" viewBox="0 0 24 24" id="Technology-Robot-Hand-Science-Experiment--Streamline-Ultimate"><desc>Technology Robot Hand Science Experiment Streamline Icon: https://streamlinehq.com</desc><defs></defs><path d="m12.285 17.391 5.061 0" fill="none" stroke="#000000" stroke-linecap="round" stroke-linejoin="round" stroke-width="1"></path><path d="M12.285 12.545v8.1a2.531 2.531 0 1 0 5.061 0v-8.1Z" fill="none" stroke="#000000" stroke-linecap="round" stroke-linejoin="round" stroke-width="1"></path><path d="M18.724 6.376c0 2.1 -1.7 1.787 -3.8 1.787s-3.8 0.31 -3.8 -1.787a3.8 3.8 0 1 1 7.6 0Z" fill="none" stroke="#000000" stroke-linecap="round" stroke-linejoin="round" stroke-width="1"></path><path d="M12.58 8.125c-0.051 0.036 -0.694 0.362 -0.75 0.393a1.9 1.9 0 0 0 -0.962 1.319 1.831 1.831 0 0 0 0.382 1.505 1.862 1.862 0 1 1 -2.877 2.364A5.541 5.541 0 0 1 7.208 9.15a5.642 5.642 0 0 1 2.8 -3.879 9.3 9.3 0 0 1 1.5 -0.545" fill="none" stroke="#000000" stroke-linecap="round" stroke-linejoin="round" stroke-width="1"></path><path d="M17.27 8.125c0.052 0.036 0.694 0.362 0.75 0.393a1.906 1.906 0 0 1 0.963 1.319 1.835 1.835 0 0 1 -0.382 1.505 1.862 1.862 0 1 0 2.877 2.364 5.541 5.541 0 0 0 1.165 -4.556 5.642 5.642 0 0 0 -2.8 -3.879 9.3 9.3 0 0 0 -1.5 -0.545" fill="none" stroke="#000000" stroke-linecap="round" stroke-linejoin="round" stroke-width="1"></path><path d="M14.925 2.577 1.26 0.827" fill="none" stroke="#000000" stroke-linecap="round" stroke-linejoin="round" stroke-width="1"></path><path d="M9.621 5.509 1.26 4.323" fill="none" stroke="#000000" stroke-linecap="round" stroke-linejoin="round" stroke-width="1"></path></svg>