<svg xmlns="http://www.w3.org/2000/svg" viewBox="0 0 24 24" id="Technology-Head-Ai-Microchip--Streamline-Ultimate"><desc>Technology Head Ai Microchip Streamline Icon: https://streamlinehq.com</desc><defs></defs><path d="M14.243 2.75h5s2 0 2 2v5s0 2 -2 2h-5s-2 0 -2 -2v-5s0 -2 2 -2" fill="none" stroke="#000000" stroke-linecap="round" stroke-linejoin="round" stroke-width="1"></path><path d="m10.243 5.25 2 0" fill="none" stroke="#000000" stroke-linecap="round" stroke-linejoin="round" stroke-width="1"></path><path d="m10.243 9.25 2 0" fill="none" stroke="#000000" stroke-linecap="round" stroke-linejoin="round" stroke-width="1"></path><path d="m18.743 0.75 0 2" fill="none" stroke="#000000" stroke-linecap="round" stroke-linejoin="round" stroke-width="1"></path><path d="m14.743 0.75 0 2" fill="none" stroke="#000000" stroke-linecap="round" stroke-linejoin="round" stroke-width="1"></path><path d="m23.243 9.25 -2 0" fill="none" stroke="#000000" stroke-linecap="round" stroke-linejoin="round" stroke-width="1"></path><path d="m23.243 5.25 -2 0" fill="none" stroke="#000000" stroke-linecap="round" stroke-linejoin="round" stroke-width="1"></path><path d="m14.743 13.75 0 -2" fill="none" stroke="#000000" stroke-linecap="round" stroke-linejoin="round" stroke-width="1"></path><path d="m18.743 13.75 0 -2" fill="none" stroke="#000000" stroke-linecap="round" stroke-linejoin="round" stroke-width="1"></path><path d="M7.37 23.25v-2.774H5.983A2.774 2.774 0 0 1 3.209 17.7v-2.773H1.451a0.7 0.7 0 0 1 -0.651 -0.943C2.853 8.67 4.2 3.865 8.862 2.707" fill="none" stroke="#000000" stroke-linecap="round" stroke-linejoin="round" stroke-width="1"></path><path d="M17.081 23.25v-4.869a7.549 7.549 0 0 0 2.07 -1.581" fill="none" stroke="#000000" stroke-linecap="round" stroke-linejoin="round" stroke-width="1"></path></svg>