<svg xmlns="http://www.w3.org/2000/svg" viewBox="0 0 24 24" id="Technology-Robot-Hand-Ai-Logic--Streamline-Ultimate"><desc>Technology Robot Hand Ai Logic Streamline Icon: https://streamlinehq.com</desc><defs></defs><path d="M8.25 12.25V1.75a1 1 0 0 1 1 -1h13a1 1 0 0 1 1 1v13a1 1 0 0 1 -1 1h-9" fill="none" stroke="#000000" stroke-linecap="round" stroke-linejoin="round" stroke-width="1"></path><path d="M13.25 0.75h5v15h-5Z" fill="none" stroke="#000000" stroke-linecap="round" stroke-linejoin="round" stroke-width="1"></path><path d="m23.25 5.75 0 5 -15 0 0 -5Z" fill="none" stroke="#000000" stroke-linecap="round" stroke-linejoin="round" stroke-width="1"></path><path d="M0.75 23.25h18.667a4.918 4.918 0 0 0 -4.25 -4.25H7.25" fill="none" stroke="#000000" stroke-linecap="round" stroke-linejoin="round" stroke-width="1"></path><path d="M7.25 19a3.3 3.3 0 0 1 3.5 3.25" fill="none" stroke="#000000" stroke-linecap="round" stroke-linejoin="round" stroke-width="1"></path><path d="m14.5 19 0 4.25" fill="none" stroke="#000000" stroke-linecap="round" stroke-linejoin="round" stroke-width="1"></path><path d="M0.75 15.25h6.625a1.875 1.875 0 0 1 0 3.75H0.75" fill="none" stroke="#000000" stroke-linecap="round" stroke-linejoin="round" stroke-width="1"></path><path d="M4.188 15.25C2.792 15.56 2.7 19 4.634 19" fill="none" stroke="#000000" stroke-linecap="round" stroke-linejoin="round" stroke-width="1"></path></svg>