<svg viewBox="0 0 24 24" xmlns="http://www.w3.org/2000/svg" id="Design-File-Pyramid--Streamline-Ultimate"><desc>Design File Pyramid Streamline Icon: https://streamlinehq.com</desc><path d="M22.5 21.75a1.5 1.5 0 0 1 -1.5 1.5H3a1.5 1.5 0 0 1 -1.5 -1.5V2.25A1.5 1.5 0 0 1 3 0.75h15a1.5 1.5 0 0 1 1.047 0.426l3 2.883a1.5 1.5 0 0 1 0.453 1.074Z" fill="none" stroke="#000000" stroke-linecap="round" stroke-linejoin="round" stroke-width="1"></path><path d="M7.5 16.125a4.5 1.875 0 1 0 9 0 4.5 1.875 0 1 0 -9 0Z" fill="none" stroke="#000000" stroke-linecap="round" stroke-linejoin="round" stroke-width="1"></path><path d="m7.778 15.475 3.533 -8.27a0.749 0.749 0 0 1 1.378 0l3.534 8.272" fill="none" stroke="#000000" stroke-linecap="round" stroke-linejoin="round" stroke-width="1"></path></svg>