<svg viewBox="0 0 24 24" xmlns="http://www.w3.org/2000/svg" id="Design-Document-3-Ds--Streamline-Ultimate"><desc>Design Document 3 Ds Streamline Icon: https://streamlinehq.com</desc><path d="m0.75 3.75 22.5 0" fill="none" stroke="#000000" stroke-linecap="round" stroke-linejoin="round" stroke-width="1"></path><path d="m0.75 20.25 22.5 0" fill="none" stroke="#000000" stroke-linecap="round" stroke-linejoin="round" stroke-width="1"></path><path d="M20.25 8.25h-1.5a1.5 1.5 0 0 0 -1.5 1.5c0 2.25 3 2.25 3 4.5a1.5 1.5 0 0 1 -1.5 1.5h-1.5" fill="none" stroke="#000000" stroke-linecap="round" stroke-linejoin="round" stroke-width="1"></path><path d="M11.25 15.75a3 3 0 0 0 3 -3v-1.5a3 3 0 0 0 -3 -3Z" fill="none" stroke="#000000" stroke-linecap="round" stroke-linejoin="round" stroke-width="1"></path><path d="M3.75 9.75a1.5 1.5 0 0 1 1.5 -1.5l1.135 0.005A1.873 1.873 0 0 1 6.377 12a1.873 1.873 0 0 1 0.008 3.745l-1.135 0.005a1.5 1.5 0 0 1 -1.5 -1.5" fill="none" stroke="#000000" stroke-linecap="round" stroke-linejoin="round" stroke-width="1"></path></svg>