<svg viewBox="0 0 24 24" xmlns="http://www.w3.org/2000/svg" id="Design-Document-Psd--Streamline-Ultimate"><desc>Design Document Psd Streamline Icon: https://streamlinehq.com</desc><path d="m4.5 15.75 0 -7.5" fill="none" stroke="#000000" stroke-linecap="round" stroke-linejoin="round" stroke-width="1"></path><path d="M4.5 8.25h0.75a2.25 2.25 0 0 1 0 4.5H4.5" fill="none" stroke="#000000" stroke-linecap="round" stroke-linejoin="round" stroke-width="1"></path><path d="M13.5 8.25H12a1.5 1.5 0 0 0 -1.5 1.5c0 2.25 3 2.25 3 4.5a1.5 1.5 0 0 1 -1.5 1.5h-1.5" fill="none" stroke="#000000" stroke-linecap="round" stroke-linejoin="round" stroke-width="1"></path><path d="M16.5 15.75a3 3 0 0 0 3 -3v-1.5a3 3 0 0 0 -3 -3Z" fill="none" stroke="#000000" stroke-linecap="round" stroke-linejoin="round" stroke-width="1"></path><path d="m1.5 3.75 21 0" fill="none" stroke="#000000" stroke-linecap="round" stroke-linejoin="round" stroke-width="1"></path><path d="m1.5 20.25 21 0" fill="none" stroke="#000000" stroke-linecap="round" stroke-linejoin="round" stroke-width="1"></path></svg>