<svg viewBox="0 0 24 24" xmlns="http://www.w3.org/2000/svg" id="Design-Document-Dwg-1--Streamline-Ultimate"><desc>Design Document Dwg 1 Streamline Icon: https://streamlinehq.com</desc><path d="M23.25 21v0.75a1.5 1.5 0 0 1 -1.5 1.5H2.25a1.5 1.5 0 0 1 -1.5 -1.5V21" fill="none" stroke="#000000" stroke-linecap="round" stroke-linejoin="round" stroke-width="1"></path><path d="M0.75 7.5V2.25a1.5 1.5 0 0 1 1.5 -1.5h19.5a1.5 1.5 0 0 1 1.5 1.5V7.5" fill="none" stroke="#000000" stroke-linecap="round" stroke-linejoin="round" stroke-width="1"></path><path d="M9 10.5v2.017a8.982 8.982 0 0 0 0.644 3.342L10.5 18l1.5 -5.25L13.5 18l0.856 -2.141A8.982 8.982 0 0 0 15 12.517V10.5" fill="none" stroke="#000000" stroke-linecap="round" stroke-linejoin="round" stroke-width="1"></path><path d="M20.251 15H21v1.5a1.5 1.5 0 0 1 -3 0V12a1.5 1.5 0 0 1 1.5 -1.5H21" fill="none" stroke="#000000" stroke-linecap="round" stroke-linejoin="round" stroke-width="1"></path><path d="M3 18a3 3 0 0 0 3 -3v-1.5a3 3 0 0 0 -3 -3Z" fill="none" stroke="#000000" stroke-linecap="round" stroke-linejoin="round" stroke-width="1"></path></svg>