<svg viewBox="0 0 24 24" xmlns="http://www.w3.org/2000/svg" id="Design-File-Indd-1--Streamline-Ultimate"><desc>Design File Indd 1 Streamline Icon: https://streamlinehq.com</desc><path d="m5.247 23.25 0 -7.5" fill="none" stroke="#000000" stroke-linecap="round" stroke-linejoin="round" stroke-width="1"></path><path d="m8.247 23.25 0 -7.5 3 7.5 0 -7.5" fill="none" stroke="#000000" stroke-linecap="round" stroke-linejoin="round" stroke-width="1"></path><path d="M20.247 23.25a3 3 0 0 0 3 -3v-1.5a3 3 0 0 0 -3 -3Z" fill="none" stroke="#000000" stroke-linecap="round" stroke-linejoin="round" stroke-width="1"></path><path d="M14.247 23.25a3 3 0 0 0 3 -3v-1.5a3 3 0 0 0 -3 -3Z" fill="none" stroke="#000000" stroke-linecap="round" stroke-linejoin="round" stroke-width="1"></path><path d="M2.247 23.25a1.5 1.5 0 0 1 -1.5 -1.5V2.25a1.5 1.5 0 0 1 1.5 -1.5h10.629a1.5 1.5 0 0 1 1.061 0.439l5.871 5.872a1.5 1.5 0 0 1 0.439 1.06v4.629" fill="none" stroke="#000000" stroke-linecap="round" stroke-linejoin="round" stroke-width="1"></path><path d="M20.247 8.25h-6a1.5 1.5 0 0 1 -1.5 -1.5v-6" fill="none" stroke="#000000" stroke-linecap="round" stroke-linejoin="round" stroke-width="1"></path></svg>