<svg viewBox="0 0 24 24" xmlns="http://www.w3.org/2000/svg" id="Design-File-Pen--Streamline-Ultimate"><desc>Design File Pen Streamline Icon: https://streamlinehq.com</desc><path d="M11.465 14.1a0.375 0.375 0 1 1 -0.53 0 0.377 0.377 0 0 1 0.53 0" fill="none" stroke="#000000" stroke-linecap="round" stroke-linejoin="round" stroke-width="1"></path><path d="M18.478 12.371a1.5 1.5 0 0 1 -2.121 0l-3.182 -3.182a1.5 1.5 0 0 1 0 -2.122" fill="none" stroke="#000000" stroke-linecap="round" stroke-linejoin="round" stroke-width="1"></path><path d="M13.281 17.568c-1.406 1.406 -6.47 1.167 -6.47 1.167s-0.24 -5.065 1.166 -6.47a3.753 3.753 0 0 1 5.3 5.3Z" fill="none" stroke="#000000" stroke-linecap="round" stroke-linejoin="round" stroke-width="1"></path><path d="M22.5 21.75a1.5 1.5 0 0 1 -1.5 1.5H3a1.5 1.5 0 0 1 -1.5 -1.5V2.25A1.5 1.5 0 0 1 3 0.75h15.045a1.5 1.5 0 0 1 1.048 0.426l2.954 2.883a1.5 1.5 0 0 1 0.453 1.074Z" fill="none" stroke="#000000" stroke-linecap="round" stroke-linejoin="round" stroke-width="1"></path></svg>