<svg viewBox="0 0 24 24" xmlns="http://www.w3.org/2000/svg" id="Design-Document-Max-1--Streamline-Ultimate"><desc>Design Document Max 1 Streamline Icon: https://streamlinehq.com</desc><path d="M23.25 21v0.75a1.5 1.5 0 0 1 -1.5 1.5H2.25a1.5 1.5 0 0 1 -1.5 -1.5V21" fill="none" stroke="#000000" stroke-linecap="round" stroke-linejoin="round" stroke-width="1"></path><path d="M0.75 7.5V2.25a1.5 1.5 0 0 1 1.5 -1.5h19.5a1.5 1.5 0 0 1 1.5 1.5V7.5" fill="none" stroke="#000000" stroke-linecap="round" stroke-linejoin="round" stroke-width="1"></path><path d="M11.251 18v-6a1.5 1.5 0 0 1 3 0v6" fill="none" stroke="#000000" stroke-linecap="round" stroke-linejoin="round" stroke-width="1"></path><path d="m11.251 15 3 0" fill="none" stroke="#000000" stroke-linecap="round" stroke-linejoin="round" stroke-width="1"></path><path d="m8.251 18 0 -7.5 -2.25 3.75 -2.25 -3.75 0 7.5" fill="none" stroke="#000000" stroke-linecap="round" stroke-linejoin="round" stroke-width="1"></path><path d="m17.251 10.5 3 7.5" fill="none" stroke="#000000" stroke-linecap="round" stroke-linejoin="round" stroke-width="1"></path><path d="m20.251 10.5 -3 7.5" fill="none" stroke="#000000" stroke-linecap="round" stroke-linejoin="round" stroke-width="1"></path></svg>