<svg viewBox="0 0 24 24" xmlns="http://www.w3.org/2000/svg" id="Design-File-Max-1--Streamline-Ultimate"><desc>Design File Max 1 Streamline Icon: https://streamlinehq.com</desc><path d="M3.75 23.25h-1.5a1.5 1.5 0 0 1 -1.5 -1.5V2.25a1.5 1.5 0 0 1 1.5 -1.5h10.628a1.5 1.5 0 0 1 1.061 0.439l5.871 5.872a1.5 1.5 0 0 1 0.44 1.06v4.629" fill="none" stroke="#000000" stroke-linecap="round" stroke-linejoin="round" stroke-width="1"></path><path d="M20.25 8.25h-6a1.5 1.5 0 0 1 -1.5 -1.5v-6" fill="none" stroke="#000000" stroke-linecap="round" stroke-linejoin="round" stroke-width="1"></path><path d="M14.25 23.25v-6a1.5 1.5 0 0 1 3 0v6" fill="none" stroke="#000000" stroke-linecap="round" stroke-linejoin="round" stroke-width="1"></path><path d="m14.25 20.25 3 0" fill="none" stroke="#000000" stroke-linecap="round" stroke-linejoin="round" stroke-width="1"></path><path d="m11.25 23.25 0 -7.5L9 19.5l-2.25 -3.75 0 7.5" fill="none" stroke="#000000" stroke-linecap="round" stroke-linejoin="round" stroke-width="1"></path><path d="m20.25 15.75 3 7.5" fill="none" stroke="#000000" stroke-linecap="round" stroke-linejoin="round" stroke-width="1"></path><path d="m23.25 15.75 -3 7.5" fill="none" stroke="#000000" stroke-linecap="round" stroke-linejoin="round" stroke-width="1"></path></svg>