<svg viewBox="0 0 24 24" xmlns="http://www.w3.org/2000/svg" id="Design-Document-Psd-1--Streamline-Ultimate"><desc>Design Document Psd 1 Streamline Icon: https://streamlinehq.com</desc><path d="M23.25 21v0.75a1.5 1.5 0 0 1 -1.5 1.5H2.25a1.5 1.5 0 0 1 -1.5 -1.5V21" fill="none" stroke="#000000" stroke-linecap="round" stroke-linejoin="round" stroke-width="1"></path><path d="M0.75 7.5V2.25a1.5 1.5 0 0 1 1.5 -1.5h19.5a1.5 1.5 0 0 1 1.5 1.5V7.5" fill="none" stroke="#000000" stroke-linecap="round" stroke-linejoin="round" stroke-width="1"></path><path d="m4.5 18 0 -7.5" fill="none" stroke="#000000" stroke-linecap="round" stroke-linejoin="round" stroke-width="1"></path><path d="M4.5 10.5h0.75a2.25 2.25 0 0 1 0 4.5H4.5" fill="none" stroke="#000000" stroke-linecap="round" stroke-linejoin="round" stroke-width="1"></path><path d="M13.5 10.5H12a1.5 1.5 0 0 0 -1.5 1.5c0 2.25 3 2.25 3 4.5A1.5 1.5 0 0 1 12 18h-1.5" fill="none" stroke="#000000" stroke-linecap="round" stroke-linejoin="round" stroke-width="1"></path><path d="M16.5 18a3 3 0 0 0 3 -3v-1.5a3 3 0 0 0 -3 -3Z" fill="none" stroke="#000000" stroke-linecap="round" stroke-linejoin="round" stroke-width="1"></path></svg>