<svg xmlns="http://www.w3.org/2000/svg" viewBox="0 0 24 24" id="Transform-Shrink--Streamline-Ultimate"><desc>Transform Shrink Streamline Icon: https://streamlinehq.com</desc><g><path d="M20.25 10.5a1.5 1.5 0 1 0 3 0 1.5 1.5 0 1 0 -3 0" fill="none" stroke="#000000" stroke-linecap="round" stroke-linejoin="round" stroke-width="1"></path><path d="m16.26 18.4 -6.51 -7.9 10.5 0" fill="none" stroke="#000000" stroke-linecap="round" stroke-linejoin="round" stroke-width="1"></path><path d="M18.77 19.52a1.5 1.5 0 1 1 -1.5 -1.5 1.5 1.5 0 0 1 1.5 1.5Z" fill="none" stroke="#000000" stroke-linecap="round" stroke-linejoin="round" stroke-width="1"></path><path d="M16.5 0.75a11.73 11.73 0 0 1 3.75 4.54" fill="none" stroke="#000000" stroke-linecap="round" stroke-linejoin="round" stroke-width="1"></path><path d="m16.5 3.02 0 -2.27 2.27 0" fill="none" stroke="#000000" stroke-linecap="round" stroke-linejoin="round" stroke-width="1"></path><path d="M5.72 22.45a11.38 11.38 0 0 1 -5 -3" fill="none" stroke="#000000" stroke-linecap="round" stroke-linejoin="round" stroke-width="1"></path><path d="m4.91 20.33 0.81 2.12 -2.12 0.8" fill="none" stroke="#000000" stroke-linecap="round" stroke-linejoin="round" stroke-width="1"></path><path d="M9.75 10.5h7.5a8.27 8.27 0 1 0 -2.58 6Z" fill="none" stroke="#000000" stroke-linecap="round" stroke-linejoin="round" stroke-width="1"></path></g></svg>