<svg xmlns="http://www.w3.org/2000/svg" fill="none" viewBox="0 0 24 24" id="Spicy-Weakness-Person-Very-Spicy-Level-2--Streamline-Ultimate"><desc>Spicy Weakness Person Very Spicy Level 2 Streamline Icon: https://streamlinehq.com</desc><path stroke="#000000" stroke-linecap="round" stroke-linejoin="round" d="M12 23.25c3.5899 0 6.5 -2.9101 6.5 -6.5s-2.9101 -6.5 -6.5 -6.5c-3.58985 0 -6.5 2.9101 -6.5 6.5s2.91015 6.5 6.5 6.5Z" stroke-width="1"></path><path stroke="#000000" stroke-linecap="round" stroke-linejoin="round" d="M14.982 18.9069c-0.3548 -0.4559 -0.8063 -0.8275 -1.3219 -1.0881 -0.5156 -0.2605 -1.0826 -0.4036 -1.6601 -0.4189 -0.5775 0.0154 -1.1444 0.1586 -1.66 0.4191 -0.51557 0.2606 -0.96705 0.6321 -1.32199 1.0879" stroke-width="1"></path><path stroke="#000000" stroke-linecap="round" stroke-linejoin="round" d="M2.87801 15.518c-0.29838 -1.0172 -0.4443 -2.073 -0.433 -3.133 0 -5.817 2.655 -7.607 2.655 -7.607 0.00171 0.99691 0.38078 1.95621 1.061 2.685C7.8283 4.26485 10.6891 1.85284 14.123 0.75c0.531 4.475 3.186 6.265 3.186 6.265 0.352 -0.3505 0.628 -0.76986 0.8105 -1.23185 0.1826 -0.462 0.2679 -0.95669 0.2505 -1.45315 1.0351 1.06677 1.8494 2.32751 2.3959 3.70981 0.5466 1.38231 0.8148 2.85899 0.7891 4.34519 0.0113 1.06 -0.1346 2.1158 -0.433 3.133" stroke-width="1"></path><path stroke="#000000" d="M9.5 14.625c-0.20711 0 -0.375 -0.1679 -0.375 -0.375s0.16789 -0.375 0.375 -0.375" stroke-width="1"></path><path stroke="#000000" d="M9.5 14.625c0.20711 0 0.375 -0.1679 0.375 -0.375s-0.16789 -0.375 -0.375 -0.375" stroke-width="1"></path><g><path stroke="#000000" d="M14.5 14.625c-0.2071 0 -0.375 -0.1679 -0.375 -0.375s0.1679 -0.375 0.375 -0.375" stroke-width="1"></path><path stroke="#000000" d="M14.5 14.625c0.2071 0 0.375 -0.1679 0.375 -0.375s-0.1679 -0.375 -0.375 -0.375" stroke-width="1"></path></g></svg>