<svg xmlns="http://www.w3.org/2000/svg" viewBox="0 0 24 24" id="Spicy-Level-Medium--Streamline-Ultimate"><desc>Spicy Level Medium Streamline Icon: https://streamlinehq.com</desc><defs></defs><path d="M18 6.5c1.24 1.861 -2.5 4 -7 4s-7 -2 -6.5 -3 4 0 6.5 -0.5 5 -3.5 7 -0.5Z" fill="none" stroke="#000000" stroke-linecap="round" stroke-linejoin="round" stroke-width="1"></path><path d="M18 6.5s2 -0.5 1.5 -2" fill="none" stroke="#000000" stroke-linecap="round" stroke-linejoin="round" stroke-width="1"></path><path d="M18 15.5c1.24 1.861 -2.5 4 -7 4s-7 -2 -6.5 -3 4 0 6.5 -0.5 5 -3.5 7 -0.5Z" fill="none" stroke="#000000" stroke-linecap="round" stroke-linejoin="round" stroke-width="1"></path><path d="M18 15.5s2 -0.5 1.5 -2" fill="none" stroke="#000000" stroke-linecap="round" stroke-linejoin="round" stroke-width="1"></path><path d="M1.75 0.75h20.5s1 0 1 1v20.5s0 1 -1 1H1.75s-1 0 -1 -1V1.75s0 -1 1 -1" fill="none" stroke="#000000" stroke-linecap="round" stroke-linejoin="round" stroke-width="1"></path></svg>