<svg xmlns="http://www.w3.org/2000/svg" viewBox="0 0 24 24" id="Spicy-Weakness-Person-Very-Spicy-Level-1--Streamline-Ultimate"><desc>Spicy Weakness Person Very Spicy Level 1 Streamline Icon: https://streamlinehq.com</desc><defs></defs><path d="M1.75 2.414a0.154 0.154 0 0 1 0.288 0.083 3.188 3.188 0 0 0 0.8 2.362 3.188 3.188 0 0 0 2.34 0.941 3.536 3.536 0 0 0 -0.588 -1.947 0.154 0.154 0 0 1 0.084 -0.232 4.79 4.79 0 0 1 4.718 1.238 4.636 4.636 0 1 1 -6.556 6.556A7.58 7.58 0 0 1 1.75 2.414Z" fill="none" stroke="#000000" stroke-linecap="round" stroke-linejoin="round" stroke-width="1"></path><path d="m18.75 10.664 0 3" fill="none" stroke="#000000" stroke-linecap="round" stroke-linejoin="round" stroke-width="1"></path><path d="m17.25 12.164 3 0" fill="none" stroke="#000000" stroke-linecap="round" stroke-linejoin="round" stroke-width="1"></path><path d="M22.674 16.112A6 6 0 0 0 13.007 9.3s3.243 2.864 1.061 5.3c-1.631 1.823 -4.915 0.521 -4.915 0.521a5.988 5.988 0 0 0 1.733 4.783l-0.636 1.757" fill="none" stroke="#000000" stroke-linecap="round" stroke-linejoin="round" stroke-width="1"></path><path d="M3.652 21.664s-3.138 -4.282 -1.4 -5.5c2.777 -1.949 5.208 5.5 5.208 5.5" fill="none" stroke="#000000" stroke-linecap="round" stroke-linejoin="round" stroke-width="1"></path><path d="M20.75 21.664s3.765 -4.323 2 -5.5c-2.922 -1.949 -7.046 5.5 -7.046 5.5" fill="none" stroke="#000000" stroke-linecap="round" stroke-linejoin="round" stroke-width="1"></path></svg>