<svg xmlns="http://www.w3.org/2000/svg" viewBox="0 0 24 24" id="Vegetable-Parsley--Streamline-Ultimate"><desc>Vegetable Parsley Streamline Icon: https://streamlinehq.com</desc><defs></defs><path d="M11.946 0.75c1.622 1.082 2.7 3.785 2.163 7.03 1.081 -2.163 2.7 -2.163 3.785 -1.622 0.541 3.785 -2.962 6.489 -5.948 6.489S5.457 9.943 6 6.158c1.082 -0.541 2.7 -0.541 3.786 1.622 -0.544 -3.245 0.537 -5.948 2.16 -7.03Z" fill="none" stroke="#000000" stroke-linecap="round" stroke-linejoin="round" stroke-width="1"></path><path d="M11.946 23.25c0.592 -3.8 -0.521 -8.374 0 -12.916" fill="none" stroke="#000000" stroke-linecap="round" stroke-linejoin="round" stroke-width="1"></path><path d="M17.893 12.838a2.345 2.345 0 0 1 -0.187 2.416c1.878 -1.793 4.122 -2.286 5.548 -1.707 0.014 1.539 -1.271 3.444 -3.629 4.53 1.892 -0.253 2.611 0.806 2.738 1.752 -2.231 2.032 -5.55 0.945 -6.875 -1a5.05 5.05 0 0 1 -0.647 -3.934" fill="none" stroke="#000000" stroke-linecap="round" stroke-linejoin="round" stroke-width="1"></path><path d="M12.33 20.253a8.408 8.408 0 0 1 4.189 -2.584" fill="none" stroke="#000000" stroke-linecap="round" stroke-linejoin="round" stroke-width="1"></path><path d="M6.048 12.837a2.873 2.873 0 0 0 0.21 1.857c-1.706 -2.077 -3.95 -2.864 -5.487 -2.448 -0.207 1.58 0.875 3.7 3.162 5.109 -1.912 -0.5 -2.784 0.5 -3.032 1.457 2.038 2.367 5.583 1.665 7.188 -0.172a5.207 5.207 0 0 0 1.187 -3.624" fill="none" stroke="#000000" stroke-linecap="round" stroke-linejoin="round" stroke-width="1"></path><path d="M11.946 23.25c-0.2 -3.906 -4 -4.093 -4.9 -5.9" fill="none" stroke="#000000" stroke-linecap="round" stroke-linejoin="round" stroke-width="1"></path></svg>