<svg xmlns="http://www.w3.org/2000/svg" viewBox="0 0 24 24" id="Vegetable-Artichoke--Streamline-Ultimate"><desc>Vegetable Artichoke Streamline Icon: https://streamlinehq.com</desc><defs></defs><path d="m10 18.28 0 4.97" fill="none" stroke="#000000" stroke-linecap="round" stroke-linejoin="round" stroke-width="1"></path><path d="m14 23.25 0 -4.97" fill="none" stroke="#000000" stroke-linecap="round" stroke-linejoin="round" stroke-width="1"></path><path d="M7.485 5.705A25.467 25.467 0 0 1 12 0.75a25.467 25.467 0 0 1 4.515 4.955" fill="none" stroke="#000000" stroke-linecap="round" stroke-linejoin="round" stroke-width="1"></path><path d="M13.8 9.392A13.662 13.662 0 0 1 17 5.25s3.5 3.045 3.5 5.5c0 0.1 0 0.193 -0.01 0.288" fill="none" stroke="#000000" stroke-linecap="round" stroke-linejoin="round" stroke-width="1"></path><path d="m16.418 15.109 5.082 -5.082s1 5.5 -1 7.5a5.012 5.012 0 0 1 -5.967 0.443" fill="none" stroke="#000000" stroke-linecap="round" stroke-linejoin="round" stroke-width="1"></path><path d="M10.2 9.392A13.662 13.662 0 0 0 7 5.25s-3.5 3.05 -3.5 5.5q0 0.139 0.009 0.276" fill="none" stroke="#000000" stroke-linecap="round" stroke-linejoin="round" stroke-width="1"></path><path d="M7.582 15.109 2.5 10.027s-1 5.5 1 7.5a5.012 5.012 0 0 0 5.967 0.443" fill="none" stroke="#000000" stroke-linecap="round" stroke-linejoin="round" stroke-width="1"></path><path d="M16.5 14.25a4.5 4.5 0 0 1 -9 0c0 -3 4.5 -6.5 4.5 -6.5s4.5 3.5 4.5 6.5Z" fill="none" stroke="#000000" stroke-linecap="round" stroke-linejoin="round" stroke-width="1"></path></svg>