<svg xmlns="http://www.w3.org/2000/svg" viewBox="0 0 24 24" id="Vegetable-Mushroom-Oyster--Streamline-Ultimate"><desc>Vegetable Mushroom Oyster Streamline Icon: https://streamlinehq.com</desc><defs></defs><path d="M23.25 5.75c0 -3 -4.9 -5 -11.25 -5s-11.25 2 -11.25 5a1 1 0 0 0 1 1h20.5a1 1 0 0 0 1 -1Z" fill="none" stroke="#000000" stroke-linecap="round" stroke-linejoin="round" stroke-width="1"></path><path d="M21.25 6.75c-4.56 2.736 -4.627 8.3 -5.115 14.653a2 2 0 0 1 -1.992 1.847H9.857a2 2 0 0 1 -1.992 -1.85C7.377 15.048 7.31 9.486 2.75 6.75Z" fill="none" stroke="#000000" stroke-linecap="round" stroke-linejoin="round" stroke-width="1"></path><path d="M8 6.75s1.634 1.776 2.26 6.832" fill="none" stroke="#000000" stroke-linecap="round" stroke-linejoin="round" stroke-width="1"></path><path d="M16 6.75s-1.634 1.776 -2.26 6.832" fill="none" stroke="#000000" stroke-linecap="round" stroke-linejoin="round" stroke-width="1"></path></svg>