<svg xmlns="http://www.w3.org/2000/svg" viewBox="0 0 24 24" id="Vegetable-Kohlrabi--Streamline-Ultimate"><desc>Vegetable Kohlrabi Streamline Icon: https://streamlinehq.com</desc><defs></defs><path d="M20.49 16.75c0 -4.5 -4 -5.5 -8.5 -5.5s-8.5 1 -8.5 5.5 3.805 6.5 8.5 6.5 8.5 -2 8.5 -6.5Z" fill="none" stroke="#000000" stroke-linecap="round" stroke-linejoin="round" stroke-width="1"></path><path d="M12.479 11.254a5.817 5.817 0 0 1 1.365 -2.929" fill="none" stroke="#000000" stroke-linecap="round" stroke-linejoin="round" stroke-width="1"></path><path d="M13.74 8.25s-1.673 -2.556 0.5 -4.5 3.064 0.163 4.5 -0.5a6.708 6.708 0 0 1 4.5 0 7.649 7.649 0 0 1 -3 3c-1.412 0.713 -0.124 2.011 -2 3s-4.5 -1 -4.5 -1Z" fill="none" stroke="#000000" stroke-linecap="round" stroke-linejoin="round" stroke-width="1"></path><path d="M10.447 11.294a7.928 7.928 0 0 0 -1.62 -3.623" fill="none" stroke="#000000" stroke-linecap="round" stroke-linejoin="round" stroke-width="1"></path><path d="M8.26 8.25s2.5 -2 1 -4.5 -3.324 -0.442 -4.5 -1.5a6.764 6.764 0 0 0 -4 -1.5 8.128 8.128 0 0 0 2 4c1.138 1.1 -0.5 2 1 3.5s4.5 0 4.5 0Z" fill="none" stroke="#000000" stroke-linecap="round" stroke-linejoin="round" stroke-width="1"></path><path d="m3.664 15.25 8.326 0" fill="none" stroke="#000000" stroke-linecap="round" stroke-linejoin="round" stroke-width="1"></path><path d="m14.49 18.25 5.842 0" fill="none" stroke="#000000" stroke-linecap="round" stroke-linejoin="round" stroke-width="1"></path><path d="m3.964 19.25 4.276 0" fill="none" stroke="#000000" stroke-linecap="round" stroke-linejoin="round" stroke-width="1"></path></svg>