<svg xmlns="http://www.w3.org/2000/svg" viewBox="0 0 24 24" id="Vegetable-Lettuce--Streamline-Ultimate"><desc>Vegetable Lettuce Streamline Icon: https://streamlinehq.com</desc><defs></defs><path d="M0.965 17.378a6.476 6.476 0 0 0 1.855 3.8 6.56 6.56 0 0 0 9.193 0c2.475 -2.475 11.5 -11.4 9.73 -13.164C13.7 6.385 7.41 11.477 10.262 15.3 6.97 18.818 4.513 18.469 0.965 17.378Z" fill="none" stroke="#000000" stroke-linecap="round" stroke-linejoin="round" stroke-width="1"></path><path d="M16.57 7.86c0.574 -1.272 1.061 -4.7 -0.114 -5.871C14.689 0.222 5.3 9.512 2.82 11.987a6.54 6.54 0 0 0 -1.832 5.4" fill="none" stroke="#000000" stroke-linecap="round" stroke-linejoin="round" stroke-width="1"></path><path d="m16.456 1.989 1.4 -0.6c2.04 -1.13 4.514 0.245 4.514 0.245s1.375 2.474 0.244 4.514l-0.87 1.871" fill="none" stroke="#000000" stroke-linecap="round" stroke-linejoin="round" stroke-width="1"></path></svg>