<svg xmlns="http://www.w3.org/2000/svg" viewBox="0 0 24 24" id="Vegetable-Tomato--Streamline-Ultimate"><desc>Vegetable Tomato Streamline Icon: https://streamlinehq.com</desc><defs></defs><path d="M19.832 7.321A8.965 8.965 0 0 1 22.5 13.75c0 5.5 -3 9.5 -10.5 9.5s-10.5 -4 -10.5 -9.5a8.965 8.965 0 0 1 2.668 -6.429" fill="none" stroke="#000000" stroke-linecap="round" stroke-linejoin="round" stroke-width="1"></path><path d="M12 4.027 12 0.75" fill="none" stroke="#000000" stroke-linecap="round" stroke-linejoin="round" stroke-width="1"></path><path d="M18.25 16.438a4.038 4.038 0 0 1 -3.75 3" fill="none" stroke="#000000" stroke-linecap="round" stroke-linejoin="round" stroke-width="1"></path><path d="M12 4.027a5.728 5.728 0 0 0 -5 -0.51 5.728 5.728 0 0 0 -3.783 3.3 4.644 4.644 0 0 0 2.118 0.788 5.289 5.289 0 0 0 0.065 3.2 5.254 5.254 0 0 0 4.048 -0.523A5.259 5.259 0 0 0 12 13.324a5.259 5.259 0 0 0 2.549 -3.038 5.254 5.254 0 0 0 4.048 0.523 5.289 5.289 0 0 0 0.065 -3.2 4.64 4.64 0 0 0 2.118 -0.788A5.728 5.728 0 0 0 17 3.517a5.728 5.728 0 0 0 -5 0.51" fill="none" stroke="#000000" stroke-linecap="round" stroke-linejoin="round" stroke-width="1"></path></svg>