<svg xmlns="http://www.w3.org/2000/svg" viewBox="0 0 24 24" id="Vegetable-Rosemary--Streamline-Ultimate"><desc>Vegetable Rosemary Streamline Icon: https://streamlinehq.com</desc><defs></defs><path d="M6.75 0.75c-2 16.5 1 22.5 1 22.5" fill="none" stroke="#000000" stroke-linecap="round" stroke-linejoin="round" stroke-width="1"></path><path d="M3.75 1.75s0.77 2.783 2.591 3.023A4.257 4.257 0 0 0 9.75 3.25" fill="none" stroke="#000000" stroke-linecap="round" stroke-linejoin="round" stroke-width="1"></path><path d="M3.25 6.75s1.07 2.8 2.812 3.023C7.753 9.994 9.25 8.25 9.25 8.25" fill="none" stroke="#000000" stroke-linecap="round" stroke-linejoin="round" stroke-width="1"></path><path d="M3.25 11.75s0.8 2.753 2.9 2.906 3.6 -1.906 3.6 -1.906" fill="none" stroke="#000000" stroke-linecap="round" stroke-linejoin="round" stroke-width="1"></path><path d="M3.25 17.25s1.291 2.523 3.456 2.523A3.518 3.518 0 0 0 9.75 18.25" fill="none" stroke="#000000" stroke-linecap="round" stroke-linejoin="round" stroke-width="1"></path><path d="M16.865 1.737C18.63 17.51 15.75 23.25 15.75 23.25" fill="none" stroke="#000000" stroke-linecap="round" stroke-linejoin="round" stroke-width="1"></path><path d="M19.75 4.25a3.556 3.556 0 0 1 -2.45 2.612c-1.55 0.465 -3.05 -1.112 -3.05 -1.112" fill="none" stroke="#000000" stroke-linecap="round" stroke-linejoin="round" stroke-width="1"></path><path d="M20.75 8.5a4.049 4.049 0 0 1 -3.313 3.037c-1.551 0.266 -3.187 -1.287 -3.187 -1.287" fill="none" stroke="#000000" stroke-linecap="round" stroke-linejoin="round" stroke-width="1"></path><path d="M20.25 13.5s0 1.994 -2.993 2.534c-2.02 0.364 -3.507 -1.784 -3.507 -1.784" fill="none" stroke="#000000" stroke-linecap="round" stroke-linejoin="round" stroke-width="1"></path><path d="M20.25 18.25a4.194 4.194 0 0 1 -3.641 2.5 3.683 3.683 0 0 1 -2.859 -1.5" fill="none" stroke="#000000" stroke-linecap="round" stroke-linejoin="round" stroke-width="1"></path></svg>