<svg viewBox="0 0 24 24" xmlns="http://www.w3.org/2000/svg" id="Vegetables-Beet--Streamline-Ultimate"><desc>Vegetables Beet Streamline Icon: https://streamlinehq.com</desc><path d="M19.5 12.162c0 -3.422 -3.358 -5.412 -7.5 -5.412s-7.5 1.99 -7.5 5.412c0 2.813 5.071 6.185 6.873 7.176a1.294 1.294 0 0 0 1.254 0c1.802 -0.991 6.873 -4.363 6.873 -7.176Z" fill="none" stroke="#000000" stroke-linecap="round" stroke-linejoin="round" stroke-width="1"></path><path d="m12 23.25 0 -3.75" fill="none" stroke="#000000" stroke-linecap="round" stroke-linejoin="round" stroke-width="1"></path><path d="m14.722 7.064 2.217 -2.021a1.932 1.932 0 1 0 -2.733 -2.732l-0.036 0.036A1.815 1.815 0 0 0 12.258 0.75a1.816 1.816 0 0 0 -1.909 1.568l-0.007 -0.007A1.932 1.932 0 0 0 7.61 5.043l2.117 1.922" fill="none" stroke="#000000" stroke-linecap="round" stroke-linejoin="round" stroke-width="1"></path><path d="M12 19.5a3.75 3.75 0 0 1 3.75 3.75" fill="none" stroke="#000000" stroke-linecap="round" stroke-linejoin="round" stroke-width="1"></path><path d="M12 19.5a3.75 3.75 0 0 0 -3.75 3.75" fill="none" stroke="#000000" stroke-linecap="round" stroke-linejoin="round" stroke-width="1"></path></svg>