<svg xmlns="http://www.w3.org/2000/svg" viewBox="0 0 24 24" id="Vegetable-Asparagus--Streamline-Ultimate"><desc>Vegetable Asparagus Streamline Icon: https://streamlinehq.com</desc><defs></defs><path d="M17.069 2.517c0.844 1.37 0.978 4.178 -0.3 5.453" fill="none" stroke="#000000" stroke-linecap="round" stroke-linejoin="round" stroke-width="1"></path><path d="m8.371 10.876 2.394 2.394" fill="none" stroke="#000000" stroke-linecap="round" stroke-linejoin="round" stroke-width="1"></path><path d="m9.785 19.357 -2.553 -2.553" fill="none" stroke="#000000" stroke-linecap="round" stroke-linejoin="round" stroke-width="1"></path><path d="M14.652 3.729a3.958 3.958 0 0 0 -1.146 2.837L1.934 16.278a2 2 0 0 0 -0.142 2.932l2.875 2.934A2 2 0 0 0 7.652 22l9.267 -11.486a3.989 3.989 0 0 0 3.387 -1.131c1.561 -1.561 2.474 -8.127 2.474 -8.127s-6.566 0.912 -8.128 2.473Z" fill="none" stroke="#000000" stroke-linecap="round" stroke-linejoin="round" stroke-width="1"></path></svg>