<svg xmlns="http://www.w3.org/2000/svg" viewBox="0 0 24 24" id="Vegetable-Zucchini--Streamline-Ultimate"><desc>Vegetable Zucchini Streamline Icon: https://streamlinehq.com</desc><defs></defs><path d="M2.451 21.834c2.121 2.122 5.071 1.5 7.071 0 2.828 -2.121 8.132 -7.174 10.253 -10.71 1.565 -2.608 1.209 -4.448 -0.354 -6.01 -1.767 -1.768 -3.889 -1.061 -6.01 1.06 -4.6 4.6 -7.425 5.054 -10.96 8.589a5.01 5.01 0 0 0 0 7.071Z" fill="none" stroke="#000000" stroke-linecap="round" stroke-linejoin="round" stroke-width="1"></path><path d="M16.547 2.926a2.3 2.3 0 0 0 -0.362 1.359 2.986 2.986 0 0 1 3.236 0.829 4.177 4.177 0 0 1 1.354 2.668 2.416 2.416 0 0 0 1.634 -1.03 2.636 2.636 0 0 0 -0.023 -2.709l0.543 -0.832a0.5 0.5 0 0 0 -0.145 -0.692L20.272 0.879a0.5 0.5 0 0 0 -0.692 0.146l-0.543 0.831a2.641 2.641 0 0 0 -2.49 1.07Z" fill="none" stroke="#000000" stroke-linecap="round" stroke-linejoin="round" stroke-width="1"></path><path d="M5.873 16.952a26.513 26.513 0 0 0 6 -5" fill="none" stroke="#000000" stroke-linecap="round" stroke-linejoin="round" stroke-width="1"></path></svg>