<svg xmlns="http://www.w3.org/2000/svg" viewBox="0 0 24 24" id="Vegetable-Mushroom-Cremini--Streamline-Ultimate"><desc>Vegetable Mushroom Cremini Streamline Icon: https://streamlinehq.com</desc><defs></defs><path d="M4.228 10.293C0.935 8.026 -0.1 6.447 1.47 3.924 3.583 0.528 7.716 -0.433 12.385 2.473a12.345 12.345 0 0 1 2.367 1.881" fill="none" stroke="#000000" stroke-linecap="round" stroke-linejoin="round" stroke-width="1"></path><path d="m3.76 9.965 -1.943 3.683a1 1 0 0 0 0.356 1.315l0.765 0.477" fill="none" stroke="#000000" stroke-linecap="round" stroke-linejoin="round" stroke-width="1"></path><path d="M23.25 14.25c0 -4 -3 -7 -8.5 -7s-8.5 3 -8.5 7c0 2.826 1.55 3.681 5.137 3.917l0.3 4.154a1 1 0 0 0 1 0.929h4.138a1 1 0 0 0 1 -0.929l0.3 -4.154c3.575 -0.236 5.125 -1.091 5.125 -3.917Z" fill="none" stroke="#000000" stroke-linecap="round" stroke-linejoin="round" stroke-width="1"></path><path d="m11.387 18.167 -0.279 -3.907 -1.255 0.331" fill="none" stroke="#000000" stroke-linecap="round" stroke-linejoin="round" stroke-width="1"></path><path d="m18.113 18.167 0.279 -3.907 1.116 0.294" fill="none" stroke="#000000" stroke-linecap="round" stroke-linejoin="round" stroke-width="1"></path></svg>