<svg viewBox="0 0 24 24" xmlns="http://www.w3.org/2000/svg" id="Vegetables-Beet-1--Streamline-Ultimate"><desc>Vegetables Beet 1 Streamline Icon: https://streamlinehq.com</desc><path d="M18.463 8.574a7.447 7.447 0 0 0 2.33 -5.906 0.758 0.758 0 0 0 -0.738 -0.772l-1.333 -0.033a0.756 0.756 0 0 0 -0.775 0.741c-0.033 1.619 -0.158 2.7 -1.438 3.9" fill="none" stroke="#000000" stroke-linecap="round" stroke-linejoin="round" stroke-width="1"></path><path d="M20.526 5.1a4.917 4.917 0 0 1 2.153 0.225 0.767 0.767 0 0 1 0.549 0.915l-0.321 1.3a0.756 0.756 0 0 1 -0.92 0.551 3.735 3.735 0 0 0 -3.521 0.495" fill="none" stroke="#000000" stroke-linecap="round" stroke-linejoin="round" stroke-width="1"></path><path d="M17.6 19.287c3.545 -3.546 3.278 -8.492 -0.268 -12.037S8.843 3.437 5.3 6.982c-2.7 2.7 -2.853 5.661 -1.582 9.12a6.923 6.923 0 0 1 0.512 4.255 6.9 6.9 0 0 1 4.255 0.512c3.457 1.272 6.415 1.121 9.115 -1.582Z" fill="none" stroke="#000000" stroke-linecap="round" stroke-linejoin="round" stroke-width="1"></path><path d="M4.227 20.357 2.89 21.694a1.513 1.513 0 0 1 -2.14 0" fill="none" stroke="#000000" stroke-linecap="round" stroke-linejoin="round" stroke-width="1"></path></svg>