<svg xmlns="http://www.w3.org/2000/svg" viewBox="0 0 24 24" id="Vegetable-Acornsquash-1--Streamline-Ultimate"><desc>Vegetable Acornsquash 1 Streamline Icon: https://streamlinehq.com</desc><defs></defs><path d="M9.532 0.75a2.5 2.5 0 0 1 2.5 2.5v1" fill="none" stroke="#000000" stroke-linecap="round" stroke-linejoin="round" stroke-width="1"></path><path d="M9.739 20.949c-3.2 -1.577 -6.856 -1.814 -7.239 -8.706 -0.338 -6.073 2.532 -7.5 4.532 -7.5a8.088 8.088 0 0 1 2.237 0.435" fill="none" stroke="#000000" stroke-linecap="round" stroke-linejoin="round" stroke-width="1"></path><path d="M14.954 5.333a7.814 7.814 0 0 1 2.078 -0.59c2 0 4.805 1.427 4.468 7.5 -0.385 6.929 -3.974 7.1 -7.175 8.706" fill="none" stroke="#000000" stroke-linecap="round" stroke-linejoin="round" stroke-width="1"></path><path d="M12.032 4.25c4.968 0 5.033 5.5 3 15a7.082 7.082 0 0 1 -3 4 7.086 7.086 0 0 1 -3 -4c-2.032 -9.5 -1.967 -15 3 -15Z" fill="none" stroke="#000000" stroke-linecap="round" stroke-linejoin="round" stroke-width="1"></path></svg>