<svg xmlns="http://www.w3.org/2000/svg" viewBox="0 0 24 24" id="Vegetable-Mushroom-Poisonous--Streamline-Ultimate"><desc>Vegetable Mushroom Poisonous Streamline Icon: https://streamlinehq.com</desc><defs></defs><path d="M15.5 20.155c0 4.127 -7 4.127 -7 0a79 79 0 0 1 1.4 -9.405h4.2a78.785 78.785 0 0 1 1.4 9.405Z" fill="none" stroke="#000000" stroke-linecap="round" stroke-linejoin="round" stroke-width="1"></path><path d="M12 6a4 4 0 0 0 4 -4 4.064 4.064 0 0 0 -0.054 -0.657 13.425 13.425 0 0 0 -7.892 0A4.064 4.064 0 0 0 8 2a4 4 0 0 0 4 4Z" fill="none" stroke="#000000" stroke-linecap="round" stroke-linejoin="round" stroke-width="1"></path><path d="M2.5 5.5c-0.087 0 -0.173 0 -0.259 0.01A7.585 7.585 0 0 0 0.75 9.75a1 1 0 0 0 1 1h3.782A3.5 3.5 0 0 0 2.5 5.5Z" fill="none" stroke="#000000" stroke-linecap="round" stroke-linejoin="round" stroke-width="1"></path><path d="M23.25 9.75a7.585 7.585 0 0 0 -1.491 -4.24c-0.086 -0.007 -0.172 -0.01 -0.259 -0.01a3.5 3.5 0 0 0 -3.032 5.25h3.782a1 1 0 0 0 1 -1Z" fill="none" stroke="#000000" stroke-linecap="round" stroke-linejoin="round" stroke-width="1"></path><path d="M23.25 9.75c0 -3.866 -4.25 -9 -11.25 -9S0.75 5.884 0.75 9.75a1 1 0 0 0 1 1h20.5a1 1 0 0 0 1 -1Z" fill="none" stroke="#000000" stroke-linecap="round" stroke-linejoin="round" stroke-width="1"></path><path d="m7.5 16.5 9 0" fill="none" stroke="#000000" stroke-linecap="round" stroke-linejoin="round" stroke-width="1"></path></svg>