<svg xmlns="http://www.w3.org/2000/svg" viewBox="0 0 24 24" id="Vegetable-Star-Anise--Streamline-Ultimate"><desc>Vegetable Star Anise Streamline Icon: https://streamlinehq.com</desc><defs></defs><path d="M10 12a2 2 0 1 0 4 0 2 2 0 1 0 -4 0" fill="none" stroke="#000000" stroke-linecap="round" stroke-linejoin="round" stroke-width="1"></path><path d="M17.055 14.094c0.147 0.01 0.3 0.026 0.441 0.026A10.777 10.777 0 0 0 23.25 12a10.777 10.777 0 0 0 -5.75 -2.12c-0.145 0 -0.294 0.016 -0.441 0.026 0.111 -0.1 0.227 -0.191 0.33 -0.293a10.774 10.774 0 0 0 2.57 -5.568 10.774 10.774 0 0 0 -5.568 2.57c-0.1 0.1 -0.189 0.211 -0.283 0.318 0.009 -0.136 0.024 -0.272 0.024 -0.406A10.817 10.817 0 0 0 12 0.75a10.817 10.817 0 0 0 -2.128 5.777c0 0.128 0.015 0.26 0.023 0.39 -0.087 -0.1 -0.169 -0.2 -0.26 -0.292a10.818 10.818 0 0 0 -5.59 -2.58 10.818 10.818 0 0 0 2.58 5.59c0.091 0.091 0.2 0.173 0.292 0.26 -0.13 -0.008 -0.261 -0.023 -0.39 -0.023A10.817 10.817 0 0 0 0.75 12a10.817 10.817 0 0 0 5.777 2.128c0.129 0 0.26 -0.015 0.39 -0.023 -0.1 0.087 -0.2 0.169 -0.292 0.26a10.818 10.818 0 0 0 -2.58 5.59 10.818 10.818 0 0 0 5.59 -2.58c0.094 -0.095 0.18 -0.2 0.27 -0.3 -0.009 0.142 -0.025 0.285 -0.025 0.425A10.777 10.777 0 0 0 12 23.25a10.777 10.777 0 0 0 2.12 -5.75c0 -0.145 -0.016 -0.294 -0.026 -0.441 0.1 0.111 0.19 0.228 0.293 0.33a10.774 10.774 0 0 0 5.568 2.57 10.774 10.774 0 0 0 -2.57 -5.568c-0.103 -0.106 -0.219 -0.2 -0.33 -0.297Z" fill="none" stroke="#000000" stroke-linecap="round" stroke-linejoin="round" stroke-width="1"></path></svg>