<svg xmlns="http://www.w3.org/2000/svg" viewBox="0 0 24 24" id="Vegetable-Chamomile--Streamline-Ultimate"><desc>Vegetable Chamomile Streamline Icon: https://streamlinehq.com</desc><defs></defs><path d="M8.5 11.999a3.5 3.5 0 1 0 7 0 3.5 3.5 0 1 0 -7 0" fill="none" stroke="#000000" stroke-linecap="round" stroke-linejoin="round" stroke-width="1"></path><path d="M20.711 10a39.048 39.048 0 0 0 -4.967 0.449 39.16 39.16 0 0 0 3.829 -3.194 2.385 2.385 0 0 0 0.383 -3.211 2.386 2.386 0 0 0 -3.211 0.382 39.16 39.16 0 0 0 -3.194 3.829A39.212 39.212 0 0 0 14 3.289a2.385 2.385 0 0 0 -2 -2.54 2.385 2.385 0 0 0 -2 2.54 39.048 39.048 0 0 0 0.449 4.967 39.16 39.16 0 0 0 -3.194 -3.829 2.386 2.386 0 0 0 -3.211 -0.382 2.385 2.385 0 0 0 0.382 3.21 39.015 39.015 0 0 0 3.829 3.194A39.216 39.216 0 0 0 3.29 10a2.385 2.385 0 0 0 -2.541 2 2.385 2.385 0 0 0 2.541 2 39.051 39.051 0 0 0 4.966 -0.449 39.16 39.16 0 0 0 -3.829 3.194 2.386 2.386 0 0 0 -0.382 3.211 2.385 2.385 0 0 0 3.21 -0.382 39.015 39.015 0 0 0 3.194 -3.829A39.212 39.212 0 0 0 10 20.711a2.385 2.385 0 0 0 2 2.54 2.385 2.385 0 0 0 2 -2.54 39.188 39.188 0 0 0 -0.448 -4.967 39.015 39.015 0 0 0 3.194 3.829 2.384 2.384 0 0 0 3.21 0.382 2.385 2.385 0 0 0 -0.382 -3.21 39.015 39.015 0 0 0 -3.829 -3.194 39.212 39.212 0 0 0 4.966 0.449 2.385 2.385 0 0 0 2.54 -2 2.385 2.385 0 0 0 -2.54 -2Z" fill="none" stroke="#000000" stroke-linecap="round" stroke-linejoin="round" stroke-width="1"></path></svg>