<svg xmlns="http://www.w3.org/2000/svg" viewBox="0 0 24 24" id="Vegetable-Bitter-Melon-Slice--Streamline-Ultimate"><desc>Vegetable Bitter Melon Slice Streamline Icon: https://streamlinehq.com</desc><defs></defs><path d="M7.6 22.525c-3.083 1.05 -5.532 0.841 -6.25 0.123C0.085 21.381 0.4 14.731 6.419 8.715c5.246 -5.247 10.133 -8.866 13.932 -5.066a4.9 4.9 0 0 1 1.573 3.392" fill="none" stroke="#000000" stroke-linecap="round" stroke-linejoin="round" stroke-width="1"></path><path d="M20.351 3.649a3.453 3.453 0 0 1 2.9 -2.9" fill="none" stroke="#000000" stroke-linecap="round" stroke-linejoin="round" stroke-width="1"></path><path d="M16.174 5.652a3 3 0 0 0 -0.93 0.147" fill="none" stroke="#000000" stroke-linecap="round" stroke-linejoin="round" stroke-width="1"></path><path d="M5.271 15.468a2.653 2.653 0 0 0 -0.847 2.152" fill="none" stroke="#000000" stroke-linecap="round" stroke-linejoin="round" stroke-width="1"></path><path d="M12 15.75a3.75 3.75 0 1 0 7.5 0 3.75 3.75 0 1 0 -7.5 0" fill="none" stroke="#000000" stroke-linecap="round" stroke-linejoin="round" stroke-width="1"></path><path d="M23.25 15.75a2.4 2.4 0 0 0 -1.86 -2.336 2.4 2.4 0 0 0 -3.3 -3.3 2.4 2.4 0 0 0 -4.672 0 2.4 2.4 0 0 0 -3.3 3.3 2.4 2.4 0 0 0 0 4.672 2.4 2.4 0 0 0 3.3 3.3 2.4 2.4 0 0 0 4.672 0 2.4 2.4 0 0 0 3.3 -3.3 2.4 2.4 0 0 0 1.86 -2.336Z" fill="none" stroke="#000000" stroke-linecap="round" stroke-linejoin="round" stroke-width="1"></path></svg>