<svg xmlns="http://www.w3.org/2000/svg" viewBox="0 0 24 24" id="Vegetable-Fiddlehead--Streamline-Ultimate"><desc>Vegetable Fiddlehead Streamline Icon: https://streamlinehq.com</desc><defs></defs><path d="M20.01 6.452c0.37 -1.214 -2.534 -2.9 -4.17 0.106 -1.43 2.632 1.065 4.381 3.062 4.381s4.011 -0.633 4.315 -4.181c0.341 -3.98 -2 -5.992 -5.492 -5.992a6.2 6.2 0 0 0 -5.991 6.491c0 5.991 6.49 7.988 6.49 15.977" fill="none" stroke="#000000" stroke-linecap="round" stroke-linejoin="round" stroke-width="1"></path><path d="M3.858 13.737c0.528 -1 2.85 -0.589 2.85 0.9a3.3 3.3 0 0 1 -2.463 3.357C2.336 18.577 0.75 17.116 0.75 14.247a4.19 4.19 0 0 1 4.493 -4.494 4.7 4.7 0 0 1 4.993 4.993c0 2.065 -2 5.991 -2 8.488" fill="none" stroke="#000000" stroke-linecap="round" stroke-linejoin="round" stroke-width="1"></path></svg>