<svg xmlns="http://www.w3.org/2000/svg" viewBox="0 0 24 24" id="Vegetable-Chive--Streamline-Ultimate"><desc>Vegetable Chive Streamline Icon: https://streamlinehq.com</desc><defs></defs><path d="M21.807 12.552a2.375 2.375 0 0 1 -3.157 0.567 2.378 2.378 0 0 1 -0.567 -3.158C19.055 8.565 22.213 8 22.213 8s0.566 3.156 -0.406 4.552Z" fill="none" stroke="#000000" stroke-linecap="round" stroke-linejoin="round" stroke-width="1"></path><path d="M18.65 13.119c-2.826 3.485 -2.826 9.474 -2.826 9.474" fill="none" stroke="#000000" stroke-linecap="round" stroke-linejoin="round" stroke-width="1"></path><path d="M2.186 12.559a2.348 2.348 0 0 0 3.119 0.56A2.348 2.348 0 0 0 5.864 10C4.9 8.62 1.785 8.061 1.785 8.061s-0.559 3.119 0.401 4.498Z" fill="none" stroke="#000000" stroke-linecap="round" stroke-linejoin="round" stroke-width="1"></path><path d="M5.305 13.119C8.13 16.6 8.13 22.593 8.13 22.593" fill="none" stroke="#000000" stroke-linecap="round" stroke-linejoin="round" stroke-width="1"></path><path d="M17.229 5.99a2.388 2.388 0 0 1 -3.038 1.083 2.389 2.389 0 0 1 -1.083 -3.038c0.733 -1.545 3.771 -2.628 3.771 -2.628s1.083 3.038 0.35 4.583Z" fill="none" stroke="#000000" stroke-linecap="round" stroke-linejoin="round" stroke-width="1"></path><path d="M14.191 7.073c-3.621 5.527 -3.121 15.52 -3.121 15.52" fill="none" stroke="#000000" stroke-linecap="round" stroke-linejoin="round" stroke-width="1"></path></svg>