<svg xmlns="http://www.w3.org/2000/svg" viewBox="0 0 24 24" id="Vegetable-Water-Chesnut--Streamline-Ultimate"><desc>Vegetable Water Chesnut Streamline Icon: https://streamlinehq.com</desc><defs></defs><path d="M3.1 18.623a6.118 6.118 0 0 1 -1.624 -2.27C-0.1 12.52 0.479 8.654 7.419 5.811s10.064 -0.494 11.634 3.339a6.006 6.006 0 0 1 0.336 1.116" fill="none" stroke="#000000" stroke-linecap="round" stroke-linejoin="round" stroke-width="1"></path><path d="m0.756 12.863 16.36 -6.702" fill="none" stroke="#000000" stroke-linecap="round" stroke-linejoin="round" stroke-width="1"></path><path d="M11.4 4.659C7.38 3.679 7.737 0.278 6.449 0.805L4.6 1.563c-1.287 0.528 1.354 2.7 -0.825 6.221" fill="none" stroke="#000000" stroke-linecap="round" stroke-linejoin="round" stroke-width="1"></path><path d="M14.75 13.25c4 0 8.5 0.5 8.5 4.5 0 3 -2 5.5 -4 5.5 -2.5 0 -3 -1 -4.5 -1s-2 1 -4.5 1c-2 0 -4 -2.5 -4 -5.5 0 -4 4.5 -4.5 8.5 -4.5Z" fill="none" stroke="#000000" stroke-linecap="round" stroke-linejoin="round" stroke-width="1"></path><path d="M14.75 13.25a5.155 5.155 0 0 1 0.918 -2.874" fill="none" stroke="#000000" stroke-linecap="round" stroke-linejoin="round" stroke-width="1"></path></svg>