<svg xmlns="http://www.w3.org/2000/svg" viewBox="0 0 24 24" id="Vegetable-Dill--Streamline-Ultimate"><desc>Vegetable Dill Streamline Icon: https://streamlinehq.com</desc><defs></defs><path d="M9.25 23.25c-1 -16.5 4.5 -22.5 4.5 -22.5" fill="none" stroke="#000000" stroke-linecap="round" stroke-linejoin="round" stroke-width="1"></path><path d="M9.175 21.75q-3.683 -0.041 -4.425 -4" fill="none" stroke="#000000" stroke-linecap="round" stroke-linejoin="round" stroke-width="1"></path><path d="M9.132 18.652a10.2 10.2 0 0 0 8.618 -6.4" fill="none" stroke="#000000" stroke-linecap="round" stroke-linejoin="round" stroke-width="1"></path><path d="M12.5 13.75c-0.2 1.518 -0.043 2.612 1.408 3.231" fill="none" stroke="#000000" stroke-linecap="round" stroke-linejoin="round" stroke-width="1"></path><path d="M15.661 15.524a5.689 5.689 0 0 0 5.089 -0.774" fill="none" stroke="#000000" stroke-linecap="round" stroke-linejoin="round" stroke-width="1"></path><path d="M9.279 15.239A12.486 12.486 0 0 1 3.25 6.25" fill="none" stroke="#000000" stroke-linecap="round" stroke-linejoin="round" stroke-width="1"></path><path d="M5.314 11.551A4.273 4.273 0 0 0 6.75 8.25" fill="none" stroke="#000000" stroke-linecap="round" stroke-linejoin="round" stroke-width="1"></path><path d="M11.093 5.905C10.079 5.3 8.25 3.919 8.25 1.75" fill="none" stroke="#000000" stroke-linecap="round" stroke-linejoin="round" stroke-width="1"></path><path d="M9.935 10.274c1.337 -0.015 4.3 -0.366 5.815 -3.024" fill="none" stroke="#000000" stroke-linecap="round" stroke-linejoin="round" stroke-width="1"></path></svg>