<svg xmlns="http://www.w3.org/2000/svg" viewBox="0 0 24 24" id="Vegetable-Spinash-Can--Streamline-Ultimate"><desc>Vegetable Spinash Can Streamline Icon: https://streamlinehq.com</desc><defs></defs><path d="M5.25 0.75h13.5s2 0 2 2v18.5s0 2 -2 2H5.25s-2 0 -2 -2V2.75s0 -2 2 -2" fill="none" stroke="#000000" stroke-linecap="round" stroke-linejoin="round" stroke-width="1"></path><path d="M3.25 4.25h17.5v15.5H3.25Z" fill="none" stroke="#000000" stroke-linecap="round" stroke-linejoin="round" stroke-width="1"></path><path d="M14.905 7.05c1.553 0.359 2.478 3.079 1.928 5.459 -0.5 2.163 -2.663 1.663 -3.828 2.761 -0.565 -1.5 -2.729 -2 -2.229 -4.161 0.55 -2.38 2.576 -4.418 4.129 -4.059Z" fill="none" stroke="#000000" stroke-linecap="round" stroke-linejoin="round" stroke-width="1"></path><path d="M13.882 11.473 12.605 17" fill="none" stroke="#000000" stroke-linecap="round" stroke-linejoin="round" stroke-width="1"></path><path d="M9.418 7.592a1.912 1.912 0 0 0 -1.078 0.128c-1.448 0.666 -1.8 3.517 -0.785 5.736a2.336 2.336 0 0 0 1.991 1.407" fill="none" stroke="#000000" stroke-linecap="round" stroke-linejoin="round" stroke-width="1"></path></svg>