<svg xmlns="http://www.w3.org/2000/svg" viewBox="0 0 24 24" id="Vegetable-Hubbard-Squash--Streamline-Ultimate"><desc>Vegetable Hubbard Squash Streamline Icon: https://streamlinehq.com</desc><defs></defs><path d="M18.59 13.126a3.421 3.421 0 0 1 0.968 -2.9 3.913 3.913 0 0 0 -5.533 -5.536 3.425 3.425 0 0 1 -2.9 0.969 8.786 8.786 0 0 0 -7.473 2.49C-0.5 12.3 0.536 20.254 2.265 21.983S12.662 24.038 16.1 20.6a8.794 8.794 0 0 0 2.49 -7.474Z" fill="none" stroke="#000000" stroke-linecap="round" stroke-linejoin="round" stroke-width="1"></path><path d="M23.25 0.75a5.072 5.072 0 0 1 -3.692 3.94" fill="none" stroke="#000000" stroke-linecap="round" stroke-linejoin="round" stroke-width="1"></path><path d="M2.265 21.983S2.875 15.125 6 12c2.5 -2.5 4.407 -1.558 5.5 -2 1.167 -0.472 5 -5.5 8.058 -5.31" fill="none" stroke="#000000" stroke-linecap="round" stroke-linejoin="round" stroke-width="1"></path><path d="M2.265 21.983s6.858 -0.609 9.983 -3.735c2.5 -2.5 1.558 -4.406 2 -5.5 0.472 -1.166 5.5 -5 5.31 -8.058" fill="none" stroke="#000000" stroke-linecap="round" stroke-linejoin="round" stroke-width="1"></path></svg>