<svg xmlns="http://www.w3.org/2000/svg" viewBox="0 0 24 24" id="Vegetable-Arugula-Rocket--Streamline-Ultimate"><desc>Vegetable Arugula Rocket Streamline Icon: https://streamlinehq.com</desc><defs></defs><path d="M6.321 19.355c-1.276 -0.149 -2.4 -0.21 -2.78 0.423 1 -1.654 -4.542 -5.566 -2.215 -7.548 1.163 -0.991 1.955 1.147 3.145 0.171C6.132 11.04 1.256 7.671 4 5.939c1.823 -1.155 2.333 2.342 3.469 1.335S7.7 5.411 8.977 3.3c1.25 -2.067 6.058 -2.55 6.058 -2.55a15.976 15.976 0 0 1 0.957 3.786" fill="none" stroke="#000000" stroke-linecap="round" stroke-linejoin="round" stroke-width="1"></path><path d="M3.547 19.781c-0.454 1.125 -0.861 2.272 -1.236 3.469" fill="none" stroke="#000000" stroke-linecap="round" stroke-linejoin="round" stroke-width="1"></path><path d="M23.132 6.8s0.6 4.188 -0.9 5.683c-1.525 1.526 -2.472 0.868 -3.089 2.045s2.491 0.947 1.893 2.741c-0.9 2.693 -4.973 -0.3 -5.782 1.4 -0.579 1.216 1.594 1 1 2.192 -1.2 2.393 -5.684 -1.5 -6.88 -0.3 1.2 -1.2 -2.692 -5.684 -0.3 -6.88 1.2 -0.6 0.976 1.575 2.192 1 1.7 -0.809 -1.295 -4.885 1.4 -5.782 1.8 -0.6 1.564 2.51 2.742 1.893s0.519 -1.564 2.044 -3.09c1.492 -1.502 5.68 -0.902 5.68 -0.902Z" fill="none" stroke="#000000" stroke-linecap="round" stroke-linejoin="round" stroke-width="1"></path><path d="M9.376 20.561c-0.622 0.861 -1.208 1.751 -1.778 2.689" fill="none" stroke="#000000" stroke-linecap="round" stroke-linejoin="round" stroke-width="1"></path></svg>