<svg viewBox="0 0 24 24" xmlns="http://www.w3.org/2000/svg" id="Vegetables-Carrot--Streamline-Ultimate"><desc>Vegetables Carrot Streamline Icon: https://streamlinehq.com</desc><path d="M19.631 10.483a8.94 8.94 0 0 0 -2.511 -3.6 8.937 8.937 0 0 0 -3.6 -2.511A2.993 2.993 0 0 0 9.842 5.91S3.355 16.147 0.946 21.049a1.5 1.5 0 0 0 2 2c4.9 -2.41 15.139 -8.9 15.139 -8.9a3 3 0 0 0 1.546 -3.666Z" fill="none" stroke="#000000" stroke-linecap="round" stroke-linejoin="round" stroke-width="1"></path><path d="m17.12 6.88 3.202 -3.202" fill="none" stroke="#000000" stroke-linecap="round" stroke-linejoin="round" stroke-width="1"></path><path d="m18.541 8.443 4.672 -0.813" fill="none" stroke="#000000" stroke-linecap="round" stroke-linejoin="round" stroke-width="1"></path><path d="M15.556 5.459 16.37 0.786" fill="none" stroke="#000000" stroke-linecap="round" stroke-linejoin="round" stroke-width="1"></path><path d="m9.836 5.92 3.591 3.591" fill="none" stroke="#000000" stroke-linecap="round" stroke-linejoin="round" stroke-width="1"></path><path d="m4.208 15.141 2.856 2.856" fill="none" stroke="#000000" stroke-linecap="round" stroke-linejoin="round" stroke-width="1"></path><path d="m10.776 13.224 3.381 3.381" fill="none" stroke="#000000" stroke-linecap="round" stroke-linejoin="round" stroke-width="1"></path></svg>