<svg xmlns="http://www.w3.org/2000/svg" viewBox="0 0 24 24" id="Vegetable-Hubbard-Squash-Slice--Streamline-Ultimate"><desc>Vegetable Hubbard Squash Slice Streamline Icon: https://streamlinehq.com</desc><defs></defs><path d="M4.5 14.5a5 5 0 1 0 10 0 5 5 0 1 0 -10 0" fill="none" stroke="#000000" stroke-linecap="round" stroke-linejoin="round" stroke-width="1"></path><path d="m9.5 12 0 1" fill="none" stroke="#000000" stroke-linecap="round" stroke-linejoin="round" stroke-width="1"></path><path d="m7.335 15.75 0.866 -0.5" fill="none" stroke="#000000" stroke-linecap="round" stroke-linejoin="round" stroke-width="1"></path><path d="m11.665 15.75 -0.866 -0.5" fill="none" stroke="#000000" stroke-linecap="round" stroke-linejoin="round" stroke-width="1"></path><path d="M18.59 13.126a3.421 3.421 0 0 1 0.968 -2.9 3.913 3.913 0 0 0 -5.533 -5.536 3.425 3.425 0 0 1 -2.9 0.969 8.786 8.786 0 0 0 -7.473 2.49C-0.5 12.3 0.536 20.254 2.265 21.983S12.662 24.038 16.1 20.6a8.794 8.794 0 0 0 2.49 -7.474Z" fill="none" stroke="#000000" stroke-linecap="round" stroke-linejoin="round" stroke-width="1"></path><path d="M23.25 0.75a5.072 5.072 0 0 1 -3.692 3.94" fill="none" stroke="#000000" stroke-linecap="round" stroke-linejoin="round" stroke-width="1"></path></svg>