<svg xmlns="http://www.w3.org/2000/svg" viewBox="0 0 24 24" id="Vegetable-Cabbage--Streamline-Ultimate"><desc>Vegetable Cabbage Streamline Icon: https://streamlinehq.com</desc><defs></defs><path d="M0.75 8.332s9.293 0 11.25 6.847c1.957 -6.847 11.25 -6.847 11.25 -6.847v2.445a11.25 11.25 0 0 1 -22.5 0Z" fill="none" stroke="#000000" stroke-linecap="round" stroke-linejoin="round" stroke-width="1"></path><path d="M12 15.179c1.378 -4.822 6.4 -6.249 9.242 -6.67a8.782 8.782 0 0 0 0.051 -0.95V5.583S13.77 4.7 12 9.566C10.23 4.7 2.707 5.583 2.707 5.583v1.976a8.782 8.782 0 0 0 0.051 0.95c2.847 0.421 7.864 1.848 9.242 6.67Z" fill="none" stroke="#000000" stroke-linecap="round" stroke-linejoin="round" stroke-width="1"></path><path d="M12 9.566c1.032 -2.838 4.02 -3.721 6.332 -3.963a7.338 7.338 0 0 0 -12.664 0c2.312 0.242 5.3 1.125 6.332 3.963Z" fill="none" stroke="#000000" stroke-linecap="round" stroke-linejoin="round" stroke-width="1"></path></svg>