<svg xmlns="http://www.w3.org/2000/svg" viewBox="0 0 24 24" id="Vegetable-Cucumber-Whole--Streamline-Ultimate"><desc>Vegetable Cucumber Whole Streamline Icon: https://streamlinehq.com</desc><defs></defs><path d="M22.353 6.876a4.1 4.1 0 0 0 -1.063 -3.225c-1.732 -1.782 -5.044 -0.911 -6 1a6.785 6.785 0 0 1 -0.587 0.94 1.5 1.5 0 0 0 -2 2.236 42.659 42.659 0 0 1 -3.35 2.911 1.5 1.5 0 0 0 -2.391 1.782 38.223 38.223 0 0 1 -3.576 2.251 1.5 1.5 0 1 0 -2.233 2 4.636 4.636 0 0 0 0.637 4.81c1.708 2.012 4.344 2.052 7.165 0.924a1.5 1.5 0 0 0 2.664 -1.369 26.837 26.837 0 0 0 4.667 -3.736 1.5 1.5 0 0 0 2.019 -2.215 21.333 21.333 0 0 0 3.352 -5.437l0.093 0a1.5 1.5 0 0 0 0.6 -2.874Z" fill="none" stroke="#000000" stroke-linecap="round" stroke-linejoin="round" stroke-width="1"></path><path d="M7.391 19.33a1.5 1.5 0 0 1 -1.853 -1.03" fill="none" stroke="#000000" stroke-linecap="round" stroke-linejoin="round" stroke-width="1"></path><path d="M13.322 14.6a1.5 1.5 0 0 1 -1.9 -0.948" fill="none" stroke="#000000" stroke-linecap="round" stroke-linejoin="round" stroke-width="1"></path><path d="M18.211 9.54a1.5 1.5 0 0 1 -1.811 -1.1" fill="none" stroke="#000000" stroke-linecap="round" stroke-linejoin="round" stroke-width="1"></path><path d="M20.749 3.218 22.75 0.75" fill="none" stroke="#000000" stroke-linecap="round" stroke-linejoin="round" stroke-width="1"></path></svg>