<svg xmlns="http://www.w3.org/2000/svg" viewBox="0 0 24 24" id="Vegetable-Butternutsquash-2--Streamline-Ultimate"><desc>Vegetable Butternutsquash 2 Streamline Icon: https://streamlinehq.com</desc><defs></defs><path d="M3.081 20.919c2.733 2.734 6.717 3.182 9.192 0.707 3.536 -3.535 -0.591 -2.944 7.441 -10.976a4.2 4.2 0 0 0 0 -6.364 4.2 4.2 0 0 0 -6.363 0c-6.533 6.532 -8.5 4.966 -10.977 7.441s-2.027 6.459 0.707 9.192Z" fill="none" stroke="#000000" stroke-linecap="round" stroke-linejoin="round" stroke-width="1"></path><path d="M23.1 3.018 20.982 0.9a0.5 0.5 0 0 0 -0.707 0l-2.239 2.24a5.207 5.207 0 0 1 1.678 1.15 5.207 5.207 0 0 1 1.15 1.678L23.1 3.725a0.5 0.5 0 0 0 0 -0.707Z" fill="none" stroke="#000000" stroke-linecap="round" stroke-linejoin="round" stroke-width="1"></path><path d="M5.525668199 18.4733640226a3.535 3.517 45 1 0 4.973789099 -4.9737890989 3.535 3.517 45 1 0 -4.973789099 4.973789099" fill="none" stroke="#000000" stroke-linecap="round" stroke-linejoin="round" stroke-width="1"></path></svg>