<svg xmlns="http://www.w3.org/2000/svg" viewBox="0 0 24 24" id="Vegetable-Bok-Shoy--Streamline-Ultimate"><desc>Vegetable Bok Shoy Streamline Icon: https://streamlinehq.com</desc><defs></defs><path d="M15 20.25a2.707 2.707 0 0 1 -3 3 2.707 2.707 0 0 1 -3 -3c0 -2.5 3 -7.5 3 -14 0 6.5 3 11.5 3 14Z" fill="none" stroke="#000000" stroke-linecap="round" stroke-linejoin="round" stroke-width="1"></path><path d="M12 0.75c-3.314 0 -6 2.082 -6 6.5 0 3.505 1.691 7.427 4.044 8.9A30.758 30.758 0 0 0 12 6.25a30.758 30.758 0 0 0 1.956 9.9C16.309 14.677 18 10.755 18 7.25c0 -4.418 -2.686 -6.5 -6 -6.5Z" fill="none" stroke="#000000" stroke-linecap="round" stroke-linejoin="round" stroke-width="1"></path><path d="M17.415 1.5a6.6 6.6 0 0 0 -2.729 -0.21C16.651 2.162 18 4.119 18 7.25c0 3.505 -1.691 7.427 -4.044 8.9 0.1 0.3 0.559 1.746 0.65 2.024 2.93 -0.2 5.77 -3.759 6.825 -7.509 1.196 -4.254 -0.826 -8.271 -4.016 -9.165Z" fill="none" stroke="#000000" stroke-linecap="round" stroke-linejoin="round" stroke-width="1"></path><path d="M10.044 16.149C7.691 14.677 6 10.755 6 7.25c0 -3.131 1.349 -5.088 3.314 -5.963a6.6 6.6 0 0 0 -2.729 0.21c-3.19 0.9 -5.212 4.874 -4.016 9.127 1.055 3.75 3.9 7.345 6.825 7.549 0.091 -0.273 0.552 -1.726 0.65 -2.024Z" fill="none" stroke="#000000" stroke-linecap="round" stroke-linejoin="round" stroke-width="1"></path></svg>