<svg xmlns="http://www.w3.org/2000/svg" viewBox="0 0 24 24" id="Vegetable-Mushroom-2--Streamline-Ultimate"><desc>Vegetable Mushroom 2 Streamline Icon: https://streamlinehq.com</desc><defs></defs><path d="M18.5 10.172c0 3.59 -1 5 -6.5 5s-6.5 -1.41 -6.5 -5S8 0.672 12 0.672s6.5 5.91 6.5 9.5Z" fill="none" stroke="#000000" stroke-linecap="round" stroke-linejoin="round" stroke-width="1"></path><path d="M12 15.172c-0.795 0 -1.495 -0.029 -2.112 -0.091L9.5 21.147a2.249 2.249 0 0 0 2.5 2.181 2.249 2.249 0 0 0 2.5 -2.181l-0.388 -6.066c-0.612 0.062 -1.312 0.091 -2.112 0.091Z" fill="none" stroke="#000000" stroke-linecap="round" stroke-linejoin="round" stroke-width="1"></path><path d="M9 9.922a8.483 8.483 0 0 1 2 -5" fill="none" stroke="#000000" stroke-linecap="round" stroke-linejoin="round" stroke-width="1"></path></svg>