<svg viewBox="0 0 24 24" xmlns="http://www.w3.org/2000/svg" id="Vegetables-Plate--Streamline-Ultimate"><desc>Vegetables Plate Streamline Icon: https://streamlinehq.com</desc><path d="M0.749 12a11.25 11.25 0 1 0 22.5 0 11.25 11.25 0 1 0 -22.5 0Z" fill="none" stroke="#000000" stroke-linecap="round" stroke-linejoin="round" stroke-width="1"></path><path d="M14.735 16.851a2.4 2.4 0 0 1 -4.134 2.4l-4.541 -6.8a1.5 1.5 0 0 1 0.494 -2.13L8.98 8.914a1.5 1.5 0 0 1 2.095 0.625Z" fill="none" stroke="#000000" stroke-linecap="round" stroke-linejoin="round" stroke-width="1"></path><path d="m7.677 14.875 2.351 -1.366" fill="none" stroke="#000000" stroke-linecap="round" stroke-linejoin="round" stroke-width="1"></path><path d="M7.767 9.619 4.314 8.155" fill="none" stroke="#000000" stroke-linecap="round" stroke-linejoin="round" stroke-width="1"></path><path d="m7.767 9.619 0.438 -3.725" fill="none" stroke="#000000" stroke-linecap="round" stroke-linejoin="round" stroke-width="1"></path><path d="M12.374 6.8a3 3 0 0 1 5.25 2.9Z" fill="none" stroke="#000000" stroke-linecap="round" stroke-linejoin="round" stroke-width="1"></path><path d="M16.418 9.036a3 3 0 0 0 -2.169 1.512l5.25 2.9a3 3 0 0 0 -1.643 -4.287" fill="none" stroke="#000000" stroke-linecap="round" stroke-linejoin="round" stroke-width="1"></path></svg>