<svg xmlns="http://www.w3.org/2000/svg" viewBox="0 0 24 24" id="Vegetable-Brussel-Sprout--Streamline-Ultimate"><desc>Vegetable Brussel Sprout Streamline Icon: https://streamlinehq.com</desc><defs></defs><path d="M0.764 17.845a5.404 5.404 0 1 0 10.808 0 5.404 5.404 0 1 0 -10.808 0" fill="none" stroke="#000000" stroke-linecap="round" stroke-linejoin="round" stroke-width="1"></path><path d="M7.784 23a8.848 8.848 0 0 0 -5.769 -8.616" fill="none" stroke="#000000" stroke-linecap="round" stroke-linejoin="round" stroke-width="1"></path><path d="M10.933 15.3a6.885 6.885 0 0 0 -4.695 2.383" fill="none" stroke="#000000" stroke-linecap="round" stroke-linejoin="round" stroke-width="1"></path><path d="M12.805 8.216a5.215 5.215 0 1 0 10.43 0 5.215 5.215 0 1 0 -10.43 0" fill="none" stroke="#000000" stroke-linecap="round" stroke-linejoin="round" stroke-width="1"></path><path d="M21.507 12.1a8.539 8.539 0 0 0 -8.519 -5.249" fill="none" stroke="#000000" stroke-linecap="round" stroke-linejoin="round" stroke-width="1"></path><path d="M21.18 4.068a6.65 6.65 0 0 0 -3.166 3.974" fill="none" stroke="#000000" stroke-linecap="round" stroke-linejoin="round" stroke-width="1"></path><path d="M0.765 5.111a4.36 4.36 0 1 0 8.72 0 4.36 4.36 0 1 0 -8.72 0" fill="none" stroke="#000000" stroke-linecap="round" stroke-linejoin="round" stroke-width="1"></path><path d="M5.149 9.472A7.139 7.139 0 0 0 2.741 1.46" fill="none" stroke="#000000" stroke-linecap="round" stroke-linejoin="round" stroke-width="1"></path><path d="M9.4 4.274A5.553 5.553 0 0 0 5.218 5" fill="none" stroke="#000000" stroke-linecap="round" stroke-linejoin="round" stroke-width="1"></path></svg>