<svg xmlns="http://www.w3.org/2000/svg" viewBox="0 0 24 24" id="Vegetable-Kidney-Bean--Streamline-Ultimate"><desc>Vegetable Kidney Bean Streamline Icon: https://streamlinehq.com</desc><defs></defs><path d="M0.759 18.75c-0.317 3.486 3.805 4.5 8.5 4.5s8.816 -1.014 8.5 -4.5c-0.5 -5.5 -3.806 -3.5 -8.5 -3.5s-8 -2 -8.5 3.5Z" fill="none" stroke="#000000" stroke-linecap="round" stroke-linejoin="round" stroke-width="1"></path><path d="M5.759 15.25q0 -0.128 0.012 -0.252a33.472 33.472 0 0 0 3.488 0.252 33.472 33.472 0 0 0 3.487 -0.25c0.008 0.083 0.013 0.167 0.013 0.252a3.279 3.279 0 0 1 -3.5 3 3.279 3.279 0 0 1 -3.5 -3.002Z" fill="none" stroke="#000000" stroke-linecap="round" stroke-linejoin="round" stroke-width="1"></path><path d="M6.927 9.291c0.886 3.386 5.108 2.939 9.523 1.344s7.948 -3.95 6.465 -7.12c-2.339 -5 -4.768 -2 -9.183 -0.4s-8.204 0.833 -6.805 6.176Z" fill="none" stroke="#000000" stroke-linecap="round" stroke-linejoin="round" stroke-width="1"></path><path d="M10.44 4.3c-0.029 -0.08 -0.053 -0.16 -0.074 -0.241a33.507 33.507 0 0 0 3.366 -0.948 33.712 33.712 0 0 0 3.194 -1.422 2.283 2.283 0 0 1 0.1 0.233 3.279 3.279 0 0 1 -2.272 4.011A3.279 3.279 0 0 1 10.44 4.3Z" fill="none" stroke="#000000" stroke-linecap="round" stroke-linejoin="round" stroke-width="1"></path></svg>