<svg xmlns="http://www.w3.org/2000/svg" viewBox="0 0 24 24" id="Vegetable-Black-Bean--Streamline-Ultimate"><desc>Vegetable Black Bean Streamline Icon: https://streamlinehq.com</desc><defs></defs><path d="M0.8855521413 7.6168668135a6.89 5.053 -13.571 1 0 13.3952609144 -3.2334787822A6.89 5.053 -13.571 1 0 0.8855521413 7.6168668135" fill="none" stroke="#000000" stroke-linecap="round" stroke-linejoin="round" stroke-width="1"></path><path d="M6.4 1.088a9.964 9.964 0 0 0 -3.352 1.419 3.43 3.43 0 0 0 4.1 1.707A3.433 3.433 0 0 0 10.026 0.823a9.936 9.936 0 0 0 -3.626 0.265Z" fill="none" stroke="#000000" stroke-linecap="round" stroke-linejoin="round" stroke-width="1"></path><path d="M9 18.019a7.125 5.225 0 1 0 14.25 0 7.125 5.225 0 1 0 -14.25 0" fill="none" stroke="#000000" stroke-linecap="round" stroke-linejoin="round" stroke-width="1"></path><path d="M16.125 12.794a10.309 10.309 0 0 0 -3.712 0.613 3.55 3.55 0 0 0 3.712 2.712 3.55 3.55 0 0 0 3.712 -2.712 10.309 10.309 0 0 0 -3.712 -0.613Z" fill="none" stroke="#000000" stroke-linecap="round" stroke-linejoin="round" stroke-width="1"></path></svg>