<svg viewBox="0 0 24 24" xmlns="http://www.w3.org/2000/svg" id="Vintage-Woman-1--Streamline-Ultimate"><desc>Vintage Woman 1 Streamline Icon: https://streamlinehq.com</desc><path d="m3.723 6.75 16.5 0" fill="none" stroke="#000000" stroke-linecap="round" stroke-linejoin="round" stroke-width="1"></path><path d="M17.223 6a5.25 5.25 0 1 1 -10.5 0L7.6 2.925A3 3 0 0 1 10.486 0.75h2.974a3 3 0 0 1 2.885 2.175Z" fill="none" stroke="#000000" stroke-linecap="round" stroke-linejoin="round" stroke-width="1"></path><path d="M6.776 6.75S6.723 10.5 3.723 12" fill="none" stroke="#000000" stroke-linecap="round" stroke-linejoin="round" stroke-width="1"></path><path d="M17.17 6.75s0.053 3.75 3.053 5.25" fill="none" stroke="#000000" stroke-linecap="round" stroke-linejoin="round" stroke-width="1"></path><path d="M8.826 13.982a10.407 10.407 0 0 0 -2.747 1.334L8.223 19.5l3.75 -3Z" fill="none" stroke="#000000" stroke-linecap="round" stroke-linejoin="round" stroke-width="1"></path><path d="M15.121 13.982 11.973 16.5l3.75 3 2.145 -4.184a10.407 10.407 0 0 0 -2.747 -1.334Z" fill="none" stroke="#000000" stroke-linecap="round" stroke-linejoin="round" stroke-width="1"></path><path d="M22.446 23.25a10.507 10.507 0 0 0 -7.325 -9.27v0l-3.148 2.52 -3.147 -2.518v0A10.509 10.509 0 0 0 1.5 23.25" fill="none" stroke="#000000" stroke-linecap="round" stroke-linejoin="round" stroke-width="1"></path><path d="m8.223 19.5 1.5 3.75" fill="none" stroke="#000000" stroke-linecap="round" stroke-linejoin="round" stroke-width="1"></path><path d="m15.723 19.5 -1.5 3.75" fill="none" stroke="#000000" stroke-linecap="round" stroke-linejoin="round" stroke-width="1"></path></svg>