<svg xmlns="http://www.w3.org/2000/svg" fill="none" viewBox="0 0 24 24" id="Network-Phone--Streamline-Ultimate"><desc>Network Phone Streamline Icon: https://streamlinehq.com</desc><path stroke="#000000" d="M16.5 19.875c-0.2071 0 -0.375 -0.1679 -0.375 -0.375s0.1679 -0.375 0.375 -0.375" stroke-width="1"></path><path stroke="#000000" d="M16.5 19.875c0.2071 0 0.375 -0.1679 0.375 -0.375s-0.1679 -0.375 -0.375 -0.375" stroke-width="1"></path><path stroke="#000000" stroke-linecap="round" stroke-linejoin="round" d="M21.75 0.75h-10.5c-0.8284 0 -1.5 0.67157 -1.5 1.5v19.5c0 0.8284 0.6716 1.5 1.5 1.5h10.5c0.8284 0 1.5 -0.6716 1.5 -1.5V2.25c0 -0.82843 -0.6716 -1.5 -1.5 -1.5Z" stroke-width="1"></path><g><path stroke="#000000" stroke-linecap="round" stroke-linejoin="round" d="M6.75722 6.042c-1.04285 2.07904 -1.558 4.3828 -1.5 6.708 -0.05714 2.3163 0.45337 4.6114 1.487 6.685l0.022 1.806c-1.75866 -0.618 -3.28203 -1.7668 -4.35972 -3.2878C1.32882 16.4322 0.75 14.6141 0.75 12.75c0 -1.8641 0.57882 -3.68218 1.6565 -5.20317C3.48419 6.02584 5.00756 4.877 6.76622 4.259l-0.009 1.783Z" stroke-width="1"></path><path stroke="#000000" stroke-linecap="round" stroke-linejoin="round" d="M0.757217 12.75H6.75722" stroke-width="1"></path><path stroke="#000000" stroke-linecap="round" stroke-linejoin="round" d="M1.96121 8.25h4.796" stroke-width="1"></path><path stroke="#000000" stroke-linecap="round" stroke-linejoin="round" d="M1.96121 17.25h4.796" stroke-width="1"></path></g></svg>