<svg viewBox="0 0 24 24" xmlns="http://www.w3.org/2000/svg" id="Network-Browser--Streamline-Ultimate"><desc>Network Browser Streamline Icon: https://streamlinehq.com</desc><path d="M9.75 16.5a6.75 6.75 0 1 0 13.5 0 6.75 6.75 0 1 0 -13.5 0Z" fill="none" stroke="#000000" stroke-linecap="round" stroke-linejoin="round" stroke-width="1"></path><path d="m10.134 18.75 12.732 0" fill="none" stroke="#000000" stroke-linecap="round" stroke-linejoin="round" stroke-width="1"></path><path d="m10.134 14.25 12.732 0" fill="none" stroke="#000000" stroke-linecap="round" stroke-linejoin="round" stroke-width="1"></path><path d="M15.044 9.908a21.863 21.863 0 0 0 0.51 13.276" fill="none" stroke="#000000" stroke-linecap="round" stroke-linejoin="round" stroke-width="1"></path><path d="M17.956 9.908a21.734 21.734 0 0 1 0.794 5.842 21.7 21.7 0 0 1 -1.3 7.434" fill="none" stroke="#000000" stroke-linecap="round" stroke-linejoin="round" stroke-width="1"></path><path d="M21.75 7.5V2.366A1.62 1.62 0 0 0 20.135 0.75H2.357A1.612 1.612 0 0 0 0.75 2.357v15.528A1.62 1.62 0 0 0 2.365 19.5H6.75" fill="none" stroke="#000000" stroke-linecap="round" stroke-linejoin="round" stroke-width="1"></path><path d="m0.75 5.25 21 0" fill="none" stroke="#000000" stroke-linecap="round" stroke-linejoin="round" stroke-width="1"></path><path d="m6.75 0.75 0 4.5" fill="none" stroke="#000000" stroke-linecap="round" stroke-linejoin="round" stroke-width="1"></path><path d="m11.25 0.75 0 4.5" fill="none" stroke="#000000" stroke-linecap="round" stroke-linejoin="round" stroke-width="1"></path></svg>