<svg viewBox="0 0 24 24" xmlns="http://www.w3.org/2000/svg" id="Network-Heart--Streamline-Ultimate"><desc>Network Heart Streamline Icon: https://streamlinehq.com</desc><path d="m17.25 23.25 -5.114 -5.334a3.025 3.025 0 0 1 -0.566 -3.493h0a3.025 3.025 0 0 1 4.845 -0.786l0.835 0.835 0.835 -0.835a3.026 3.026 0 0 1 4.846 0.786h0a3.027 3.027 0 0 1 -0.567 3.493Z" fill="none" stroke="#000000" stroke-linecap="round" stroke-linejoin="round" stroke-width="1"></path><path d="M12 23.25a11.25 11.25 0 1 1 11.146 -12.784" fill="none" stroke="#000000" stroke-linecap="round" stroke-linejoin="round" stroke-width="1"></path><path d="M9.289 22.921C7.768 20.689 6.75 16.633 6.75 12S7.768 3.312 9.289 1.079" fill="none" stroke="#000000" stroke-linecap="round" stroke-linejoin="round" stroke-width="1"></path><path d="m0.775 11.25 9.523 0" fill="none" stroke="#000000" stroke-linecap="round" stroke-linejoin="round" stroke-width="1"></path><path d="M2.999 5.25 21 5.25" fill="none" stroke="#000000" stroke-linecap="round" stroke-linejoin="round" stroke-width="1"></path><path d="m2.048 17.25 6.202 0" fill="none" stroke="#000000" stroke-linecap="round" stroke-linejoin="round" stroke-width="1"></path><path d="M14.711 1.079c1.348 1.978 2.3 5.386 2.5 9.359" fill="none" stroke="#000000" stroke-linecap="round" stroke-linejoin="round" stroke-width="1"></path></svg>