<svg viewBox="0 0 24 24" xmlns="http://www.w3.org/2000/svg" id="Network-Clock--Streamline-Ultimate"><desc>Network Clock Streamline Icon: https://streamlinehq.com</desc><path d="M11.25 17.25a6 6 0 1 0 12 0 6 6 0 1 0 -12 0Z" fill="none" stroke="#000000" stroke-linecap="round" stroke-linejoin="round" stroke-width="1"></path><path d="m19.902 17.25 -2.652 0 0 -2.651" fill="none" stroke="#000000" stroke-linecap="round" stroke-linejoin="round" stroke-width="1"></path><path d="M10.494 23.15a11.251 11.251 0 1 1 12.658 -12.644" fill="none" stroke="#000000" stroke-linecap="round" stroke-linejoin="round" stroke-width="1"></path><path d="M9.289 22.921C7.768 20.689 6.75 16.633 6.75 12S7.768 3.312 9.289 1.079" fill="none" stroke="#000000" stroke-linecap="round" stroke-linejoin="round" stroke-width="1"></path><path d="m0.775 11.25 9.523 0" fill="none" stroke="#000000" stroke-linecap="round" stroke-linejoin="round" stroke-width="1"></path><path d="M2.999 5.25 21 5.25" fill="none" stroke="#000000" stroke-linecap="round" stroke-linejoin="round" stroke-width="1"></path><path d="m2.048 17.25 6.202 0" fill="none" stroke="#000000" stroke-linecap="round" stroke-linejoin="round" stroke-width="1"></path><path d="M14.711 1.079a16.983 16.983 0 0 1 2.3 7.136" fill="none" stroke="#000000" stroke-linecap="round" stroke-linejoin="round" stroke-width="1"></path></svg>