<svg viewBox="0 0 24 24" xmlns="http://www.w3.org/2000/svg" id="Network-User--Streamline-Ultimate"><desc>Network User Streamline Icon: https://streamlinehq.com</desc><path d="M9.735 23.023a11.251 11.251 0 1 1 13.418 -12.511" fill="none" stroke="#000000" stroke-linecap="round" stroke-linejoin="round" stroke-width="1"></path><path d="M9.289 22.922C7.768 20.689 6.75 16.634 6.75 12S7.768 3.312 9.289 1.079" fill="none" stroke="#000000" stroke-linecap="round" stroke-linejoin="round" stroke-width="1"></path><path d="m0.775 11.251 11.975 0" fill="none" stroke="#000000" stroke-linecap="round" stroke-linejoin="round" stroke-width="1"></path><path d="m2.999 5.251 18.001 0" fill="none" stroke="#000000" stroke-linecap="round" stroke-linejoin="round" stroke-width="1"></path><path d="m2.048 17.251 8.452 0" fill="none" stroke="#000000" stroke-linecap="round" stroke-linejoin="round" stroke-width="1"></path><path d="M14.711 1.079a16.184 16.184 0 0 1 2.2 6.42" fill="none" stroke="#000000" stroke-linecap="round" stroke-linejoin="round" stroke-width="1"></path><path d="M15.375 13.126a2.625 2.625 0 1 0 5.25 0 2.625 2.625 0 1 0 -5.25 0Z" fill="none" stroke="#000000" stroke-linecap="round" stroke-linejoin="round" stroke-width="1"></path><path d="M18 16.5a5.25 5.25 0 0 0 -5.25 5.25v1.5h10.5v-1.5A5.249 5.249 0 0 0 18 16.5Z" fill="none" stroke="#000000" stroke-linecap="round" stroke-linejoin="round" stroke-width="1"></path></svg>