<svg xmlns="http://www.w3.org/2000/svg" fill="none" viewBox="0 0 24 24" id="Network-Unlink-Disconnected--Streamline-Ultimate"><desc>Network Unlink Disconnected Streamline Icon: https://streamlinehq.com</desc><path stroke="#000000" stroke-linecap="round" stroke-linejoin="round" d="M23.2384 11.3012c-0.0175 -0.2728 -0.0446 -0.5452 -0.0813 -0.8166 -0.2937 -2.13948 -1.197 -4.14921 -2.602 -5.78921 -1.405 -1.64 -3.2523 -2.84097 -5.3213 -3.45949 -2.0691 -0.618524 -4.2725 -0.628461 -6.34701 -0.02863 -2.07456 0.59984 -3.93263 1.78409 -5.35235 3.41136C2.11472 6.24589 1.19336 8.24739 0.880382 10.3841c-0.312981 2.1368 -0.004357 4.3184 0.889018 6.2845 0.89338 1.9661 2.33375 3.6335 4.14912 4.8031 1.58891 1.0237 3.40632 1.6282 5.28298 1.7637" stroke-width="1"></path><path stroke="#000000" stroke-linecap="round" stroke-linejoin="round" d="M9.29934 22.9346c-1.52 -2.23 -2.54 -6.29 -2.54 -10.92 0 -4.63003 1 -8.69003 2.54 -10.92003" stroke-width="1"></path><path stroke="#000000" stroke-linecap="round" stroke-linejoin="round" d="M0.759338 12.0146H12.0119" stroke-width="1"></path><path stroke="#000000" stroke-linecap="round" stroke-linejoin="round" d="M2.34937 6.26459H21.6694" stroke-width="1"></path><path stroke="#000000" stroke-linecap="round" stroke-linejoin="round" d="M2.34937 17.7646h8.91003" stroke-width="1"></path><path stroke="#000000" stroke-linecap="round" stroke-linejoin="round" d="M14.7194 1.09457c1.8 2.64 2.45 7 2.53 10.17003" stroke-width="1"></path><path stroke="#000000" stroke-linecap="round" stroke-linejoin="round" d="m14.1606 13.8646 8.8393 8.8393" stroke-width="1"></path><path stroke="#000000" stroke-linecap="round" stroke-linejoin="round" d="m16.7584 16.4624 2.072 -2.072c1.0062 -1.0062 2.6375 -1.0062 3.6437 0 1.0062 1.0062 1.0062 2.6375 0 3.6437l-2.0642 2.0642" stroke-width="1"></path><path stroke="#000000" stroke-linecap="round" stroke-linejoin="round" d="m15.157 18.0639 -0.4706 0.4706c-1.0062 1.0062 -1.0062 2.6375 0 3.6437 1.0062 1.0061 2.6375 1.0061 3.6437 0l0.3691 -0.3692" stroke-width="1"></path></svg>