<svg viewBox="0 0 24 24" xmlns="http://www.w3.org/2000/svg" id="Network-Refresh--Streamline-Ultimate"><desc>Network Refresh Streamline Icon: https://streamlinehq.com</desc><path d="M9.952 23.25s5.8 -0.75 7.3 -6h-3l5.452 -4.5 3.548 4.5H21s-0.548 6 -11.048 6Z" fill="none" stroke="#000000" stroke-linecap="round" stroke-linejoin="round" stroke-width="1"></path><path d="M5.994 21.514a11.251 11.251 0 1 1 17.152 -11.048" fill="none" stroke="#000000" stroke-linecap="round" stroke-linejoin="round" stroke-width="1"></path><path d="M7.755 19.5a26.6 26.6 0 0 1 -1 -7.5c0 -4.633 1.018 -8.688 2.539 -10.921" fill="none" stroke="#000000" stroke-linecap="round" stroke-linejoin="round" stroke-width="1"></path><path d="m0.775 11.25 13.475 0" fill="none" stroke="#000000" stroke-linecap="round" stroke-linejoin="round" stroke-width="1"></path><path d="M2.999 5.25 21 5.25" fill="none" stroke="#000000" stroke-linecap="round" stroke-linejoin="round" stroke-width="1"></path><path d="m2.048 17.25 9.202 0" fill="none" stroke="#000000" stroke-linecap="round" stroke-linejoin="round" stroke-width="1"></path><path d="M14.711 1.079c1.348 1.978 2.3 5.386 2.5 9.359" fill="none" stroke="#000000" stroke-linecap="round" stroke-linejoin="round" stroke-width="1"></path></svg>