<svg viewBox="0 0 24 24" xmlns="http://www.w3.org/2000/svg" id="Network-Live--Streamline-Ultimate"><desc>Network Live Streamline Icon: https://streamlinehq.com</desc><path d="M3 5.25a11.252 11.252 0 0 1 18 0" fill="none" stroke="#000000" stroke-linecap="round" stroke-linejoin="round" stroke-width="1"></path><path d="M7.8 5.25c0.958 -2.732 2.482 -4.5 4.2 -4.5s3.243 1.768 4.2 4.5" fill="none" stroke="#000000" stroke-linecap="round" stroke-linejoin="round" stroke-width="1"></path><path d="m23.25 18.75 -22.5 0" fill="none" stroke="#000000" stroke-linecap="round" stroke-linejoin="round" stroke-width="1"></path><path d="m0.75 5.25 22.5 0" fill="none" stroke="#000000" stroke-linecap="round" stroke-linejoin="round" stroke-width="1"></path><path d="M21 18.75a11.252 11.252 0 0 1 -18 0" fill="none" stroke="#000000" stroke-linecap="round" stroke-linejoin="round" stroke-width="1"></path><path d="M16.2 18.75c-0.957 2.733 -2.482 4.5 -4.2 4.5s-3.242 -1.767 -4.2 -4.5" fill="none" stroke="#000000" stroke-linecap="round" stroke-linejoin="round" stroke-width="1"></path><path d="m9.75 15.75 0 -7.5" fill="none" stroke="#000000" stroke-linecap="round" stroke-linejoin="round" stroke-width="1"></path><path d="M12.75 8.25v2.55a8.932 8.932 0 0 0 1.5 4.954 8.932 8.932 0 0 0 1.5 -4.954V8.25" fill="none" stroke="#000000" stroke-linecap="round" stroke-linejoin="round" stroke-width="1"></path><path d="M3.75 8.25v6a1.5 1.5 0 0 0 1.5 1.5h1.5" fill="none" stroke="#000000" stroke-linecap="round" stroke-linejoin="round" stroke-width="1"></path><path d="M21.75 15.75h-1.5a1.5 1.5 0 0 1 -1.5 -1.5v-4.5a1.5 1.5 0 0 1 1.5 -1.5h1.5" fill="none" stroke="#000000" stroke-linecap="round" stroke-linejoin="round" stroke-width="1"></path><path d="m18.75 12.75 3 0" fill="none" stroke="#000000" stroke-linecap="round" stroke-linejoin="round" stroke-width="1"></path></svg>