<svg viewBox="0 0 24 24" xmlns="http://www.w3.org/2000/svg" id="Network-Www--Streamline-Ultimate"><desc>Network Www Streamline Icon: https://streamlinehq.com</desc><path d="M3 5.25a11.252 11.252 0 0 1 18 0" fill="none" stroke="#000000" stroke-linecap="round" stroke-linejoin="round" stroke-width="1"></path><path d="M7.8 5.25c0.958 -2.732 2.482 -4.5 4.2 -4.5s3.243 1.768 4.2 4.5" fill="none" stroke="#000000" stroke-linecap="round" stroke-linejoin="round" stroke-width="1"></path><path d="m23.25 18.75 -22.5 0" fill="none" stroke="#000000" stroke-linecap="round" stroke-linejoin="round" stroke-width="1"></path><path d="m0.75 5.25 22.5 0" fill="none" stroke="#000000" stroke-linecap="round" stroke-linejoin="round" stroke-width="1"></path><path d="M21 18.75a11.252 11.252 0 0 1 -18 0" fill="none" stroke="#000000" stroke-linecap="round" stroke-linejoin="round" stroke-width="1"></path><path d="M16.2 18.75c-0.957 2.733 -2.482 4.5 -4.2 4.5s-3.242 -1.767 -4.2 -4.5" fill="none" stroke="#000000" stroke-linecap="round" stroke-linejoin="round" stroke-width="1"></path><path d="M2.25 8.25v2.859a9.014 9.014 0 0 0 0.175 1.765L3 15.75l1.5 -4.5 1.5 4.5 0.575 -2.876a8.938 8.938 0 0 0 0.175 -1.765V8.25" fill="none" stroke="#000000" stroke-linecap="round" stroke-linejoin="round" stroke-width="1"></path><path d="M9.75 8.25v2.859a9.014 9.014 0 0 0 0.175 1.765l0.575 2.876 1.5 -4.5 1.5 4.5 0.575 -2.876a8.938 8.938 0 0 0 0.175 -1.765V8.25" fill="none" stroke="#000000" stroke-linecap="round" stroke-linejoin="round" stroke-width="1"></path><path d="M17.25 8.25v2.859a9.014 9.014 0 0 0 0.175 1.765L18 15.75l1.5 -4.5 1.5 4.5 0.575 -2.876a8.938 8.938 0 0 0 0.175 -1.765V8.25" fill="none" stroke="#000000" stroke-linecap="round" stroke-linejoin="round" stroke-width="1"></path></svg>