<svg xmlns="http://www.w3.org/2000/svg" viewBox="0 0 24 24" id="Network-Arrow--Streamline-Ultimate"><desc>Network Arrow Streamline Icon: https://streamlinehq.com</desc><g><g><path d="M13.59 23.14a11.9 11.9 0 0 1 -1.59 0.11 11.25 11.25 0 1 1 11.15 -12.78 11.63 11.63 0 0 1 0 3.12" fill="none" stroke="#000000" stroke-linecap="round" stroke-linejoin="round" stroke-width="1"></path><path d="M9.29 22.92C7.77 20.69 6.75 16.63 6.75 12s1 -8.69 2.54 -10.92" fill="none" stroke="#000000" stroke-linecap="round" stroke-linejoin="round" stroke-width="1"></path><path d="m0.77 11.25 10.48 0" fill="none" stroke="#000000" stroke-linecap="round" stroke-linejoin="round" stroke-width="1"></path><path d="m16.5 11.25 6.73 0" fill="none" stroke="#000000" stroke-linecap="round" stroke-linejoin="round" stroke-width="1"></path><path d="m3 5.25 18 0" fill="none" stroke="#000000" stroke-linecap="round" stroke-linejoin="round" stroke-width="1"></path><path d="m2.05 17.25 8.45 0" fill="none" stroke="#000000" stroke-linecap="round" stroke-linejoin="round" stroke-width="1"></path><path d="M14.71 1.08c1.8 2.64 2.45 7 2.53 10.17" fill="none" stroke="#000000" stroke-linecap="round" stroke-linejoin="round" stroke-width="1"></path></g><path d="M13 13.85 15.17 21a0.67 0.67 0 0 0 1.11 0.28l1.1 -1.1 2.84 2.83a0.65 0.65 0 0 0 0.94 0l1.89 -1.89a0.66 0.66 0 0 0 0 -0.94l-2.83 -2.84 1.1 -1.1a0.67 0.67 0 0 0 -0.32 -1.07L13.85 13a0.68 0.68 0 0 0 -0.85 0.85Z" fill="none" stroke="#000000" stroke-linecap="round" stroke-linejoin="round" stroke-width="1"></path></g></svg>