<svg xmlns="http://www.w3.org/2000/svg" fill="none" viewBox="0 0 24 24" id="Network-Information--Streamline-Ultimate"><desc>Network Information Streamline Icon: https://streamlinehq.com</desc><path stroke="#000000" stroke-linecap="round" stroke-linejoin="round" d="M17.25 23.25c3.3137 0 6 -2.6863 6 -6s-2.6863 -6 -6 -6 -6 2.6863 -6 6 2.6863 6 6 6Z" stroke-width="1"></path><path stroke="#000000" stroke-linecap="round" stroke-linejoin="round" d="M17.25 20.25v-3" stroke-width="1"></path><path stroke="#000000" d="M17.25 15.061c-0.2071 0 -0.375 -0.1679 -0.375 -0.375s0.1679 -0.375 0.375 -0.375" stroke-width="1"></path><path stroke="#000000" d="M17.25 15.061c0.2071 0 0.375 -0.1679 0.375 -0.375s-0.1679 -0.375 -0.375 -0.375" stroke-width="1"></path><g><path stroke="#000000" stroke-linecap="round" stroke-linejoin="round" d="M10.5015 23.151c-2.07855 -0.2795 -4.0376 -1.1344 -5.65605 -2.4683 -1.61845 -1.3338 -2.83187 -3.0935 -3.50329 -5.0804 -0.671433 -1.9869 -0.774146 -4.1219 -0.29655 -6.16404 0.4776 -2.04216 1.51649 -3.91019 2.99942 -5.39324 1.48293 -1.48305 3.35087 -2.52208 5.393 -2.99984 2.04217 -0.477758 4.17717 -0.375214 6.16407 0.29606 1.9869 0.67127 3.7467 1.88454 5.0807 3.50289 1.334 1.61834 2.189 3.57733 2.4687 5.65587" stroke-width="1"></path><path stroke="#000000" stroke-linecap="round" stroke-linejoin="round" d="M9.29053 22.921c-1.521 -2.232 -2.539 -6.288 -2.539 -10.921 0 -4.633 1.018 -8.688 2.539 -10.921" stroke-width="1"></path><path stroke="#000000" stroke-linecap="round" stroke-linejoin="round" d="M0.77652 11.25h9.72498" stroke-width="1"></path><path stroke="#000000" stroke-linecap="round" stroke-linejoin="round" d="M3.00052 5.25H21.0015" stroke-width="1"></path><path stroke="#000000" stroke-linecap="round" stroke-linejoin="round" d="M2.04953 17.25h5.166" stroke-width="1"></path><path stroke="#000000" stroke-linecap="round" stroke-linejoin="round" d="M14.7125 1.079c1.2962 2.18941 2.0852 4.64152 2.309 7.176" stroke-width="1"></path></g></svg>