<svg xmlns="http://www.w3.org/2000/svg" fill="none" viewBox="0 0 24 24" id="Bnter-Logo--Streamline-Ultimate"><desc>Bnter Logo Streamline Icon: https://streamlinehq.com</desc><path stroke="#000000" stroke-linecap="round" stroke-linejoin="round" d="M2.56003 18.44h0.87c0.08908 0.7345 -0.06175 1.4782 -0.43 2.12 0 0 2.43 -0.12 2.93 -2.12H21.44c0.2386 0 0.4747 -0.0471 0.695 -0.1387 0.2203 -0.0916 0.4202 -0.2258 0.5884 -0.395 0.1682 -0.1691 0.3014 -0.3698 0.3917 -0.5906 0.0904 -0.2207 0.1362 -0.4572 0.1349 -0.6957V5.25c0.0013 -0.23853 -0.0445 -0.47497 -0.1349 -0.69573 -0.0903 -0.22075 -0.2235 -0.42147 -0.3917 -0.5906 -0.1682 -0.16914 -0.3681 -0.30336 -0.5884 -0.39494 -0.2203 -0.09159 -0.4564 -0.13873 -0.695 -0.13873H2.56003c-0.23854 0 -0.47472 0.04714 -0.69498 0.13873 -0.22025 0.09158 -0.42023 0.2258 -0.58843 0.39494 -0.16821 0.16913 -0.301324 0.36985 -0.391695 0.5906 -0.090371 0.22076 -0.136215 0.4572 -0.134897 0.69573v11.38c-0.001318 0.2385 0.044526 0.475 0.134897 0.6957 0.090371 0.2208 0.223485 0.4215 0.391695 0.5906 0.1682 0.1692 0.36818 0.3034 0.58843 0.395 0.22026 0.0916 0.45644 0.1387 0.69498 0.1387v-0.01ZM13.82 14.09l0 0.11c0.0069 0.3332 -0.107 0.6576 -0.3208 0.9134 -0.2137 0.2557 -0.5127 0.4255 -0.8418 0.4779 -0.3292 0.0524 -0.6661 -0.016 -0.9487 -0.1927 -0.2826 -0.1767 -0.4917 -0.4497 -0.5887 -0.7686l2.7 -0.54Z" stroke-width="1"></path><path stroke="#000000" d="M4.32001 12.5c-0.27615 0 -0.5 -0.2239 -0.5 -0.5s0.22385 -0.5 0.5 -0.5" stroke-width="1"></path><path stroke="#000000" d="M4.32001 12.5c0.27614 0 0.5 -0.2239 0.5 -0.5s-0.22386 -0.5 -0.5 -0.5" stroke-width="1"></path><g><path stroke="#000000" d="M19.77 12.5c-0.2761 0 -0.5 -0.2239 -0.5 -0.5s0.2239 -0.5 0.5 -0.5" stroke-width="1"></path><path stroke="#000000" d="M19.77 12.5c0.2762 0 0.5 -0.2239 0.5 -0.5s-0.2238 -0.5 -0.5 -0.5" stroke-width="1"></path></g></svg>