<svg viewBox="0 0 24 24" xmlns="http://www.w3.org/2000/svg" id="Brightkite-Logo--Streamline-Ultimate"><desc>Brightkite Logo Streamline Icon: https://streamlinehq.com</desc><path d="M13.28 11.43v-1.14s0.14 -0.26 0.69 -0.19c0.37 0 0.48 1.3 0.08 1.45a1 1 0 0 1 -0.77 -0.11M22.5 0.75v14.16a1.54 1.54 0 0 1 -1 1.33c-1.44 0.67 -20 7 -20 7L5.63 2.08A2 2 0 0 1 7.75 0.75Zm-5.3 7c-1.22 -2.94 -4.43 -1.42 -4.43 -0.6V2.87l-3 0.43v10.79a6.16 6.16 0 0 0 4.53 1.11 3.58 3.58 0 0 0 3.1 -2.69 7.89 7.89 0 0 0 -0.21 -4.78" fill="none" stroke="#000000" stroke-linecap="round" stroke-linejoin="round" stroke-width="1"></path></svg>