<svg xmlns="http://www.w3.org/2000/svg" viewBox="0 0 24 24" id="Diingo-Logo--Streamline-Ultimate"><desc>Diingo Logo Streamline Icon: https://streamlinehq.com</desc><g><path d="M16.07 12.8h0A4.17 4.17 0 1 0 11.9 17a4.17 4.17 0 0 0 4.17 -4.21Z" fill="none" stroke="#000000" stroke-linecap="round" stroke-linejoin="round" stroke-width="1"></path><path d="M21.25 0.75h-1.33a0.5 0.5 0 0 0 -0.5 0.5V12.8a7.58 7.58 0 0 1 -7.52 7.86 7.87 7.87 0 0 1 0 -15.73A8 8 0 0 1 16 6.05v-4.8a0.5 0.5 0 0 0 -0.5 -0.5H2.75a2 2 0 0 0 -2 2v18.5a2 2 0 0 0 2 2h18.5a2 2 0 0 0 2 -2V2.75a2 2 0 0 0 -2 -2Z" fill="none" stroke="#000000" stroke-linecap="round" stroke-linejoin="round" stroke-width="1"></path></g></svg>