<svg viewBox="0 0 24 24" xmlns="http://www.w3.org/2000/svg" id="Formspring-Logo--Streamline-Ultimate"><desc>Formspring Logo Streamline Icon: https://streamlinehq.com</desc><path d="M18.31 12.58a9.55 9.55 0 0 1 -3.64 0.69 7.83 7.83 0 0 1 -6.32 -2.69" fill="none" stroke="#000000" stroke-linecap="round" stroke-linejoin="round" stroke-width="1"></path><path d="M10 4.9a9.09 9.09 0 0 1 4.63 -1.19c3.68 0 6.7 1.94 7 4.41" fill="none" stroke="#000000" stroke-linecap="round" stroke-linejoin="round" stroke-width="1"></path><path d="M11.68 2A7.2 7.2 0 0 1 15.83 0.78 7.2 7.2 0 0 1 20 2" fill="none" stroke="#000000" stroke-linecap="round" stroke-linejoin="round" stroke-width="1"></path><path d="M5.71 12.36c0 2.75 3.36 5 7.51 5s7.51 -2.23 7.51 -5c0 -3.68 -5.35 -5.27 -8.9 -5.27 -5.26 0 -9.53 3.53 -9.53 7.44 0 5.32 6.8 9.31 12.93 6.83l5.44 1.86 -2 -3.72a6.84 6.84 0 0 0 2.11 -2.39" fill="none" stroke="#000000" stroke-linecap="round" stroke-linejoin="round" stroke-width="1"></path></svg>