<svg viewBox="0 0 24 24" xmlns="http://www.w3.org/2000/svg" id="Google-Plus-Logo--Streamline-Ultimate"><desc>Google Plus Logo Streamline Icon: https://streamlinehq.com</desc><path d="M11.62 13.1a4.07 4.07 0 0 1 -1.4 -1.5c0 -0.43 0 -0.63 1 -1.37a4.43 4.43 0 0 0 1.91 -3.56 3.76 3.76 0 0 0 -0.87 -2.54l0.66 0a0.49 0.49 0 0 0 0.26 -0.13l1.11 -1.47c0.14 -0.22 0.19 -0.34 0.13 -0.54a0.48 0.48 0 0 0 -0.42 -0.32H7.86a6.17 6.17 0 0 0 -2 0.35 5.24 5.24 0 0 0 -3.78 4.6 4.9 4.9 0 0 0 5 4.91 2.44 2.44 0 0 0 0.25 1.86h-0.11c-2.72 0 -5.17 1.33 -6.11 3.32a3.64 3.64 0 0 0 -0.37 1.55 2.92 2.92 0 0 0 0.38 1.44A5.43 5.43 0 0 0 4.68 22a11.4 11.4 0 0 0 2.8 0.34A9 9 0 0 0 10 22c2.42 -0.7 4 -2.48 4 -4.54a4.72 4.72 0 0 0 -2.38 -4.36Zm-6.8 4.63c0 -1 1.29 -1.81 2.76 -1.81h0c1.07 0 2.52 0.91 2.52 1.87 0 1.2 -0.94 1.81 -2.8 1.81 -1.37 -0.01 -2.48 -0.83 -2.48 -1.87ZM6.31 4.82a1.14 1.14 0 0 1 0.88 -0.4h0a2.57 2.57 0 0 1 2.09 2.39 2.33 2.33 0 0 1 -0.43 1.82A1.14 1.14 0 0 1 8 9h0C7 9 6.07 7.89 5.9 6.6a2.25 2.25 0 0 1 0.41 -1.78Z" fill="none" stroke="#000000" stroke-linecap="round" stroke-linejoin="round" stroke-width="1"></path><path d="m23.25 9.42 -2.75 0 0 -2.75 -2.5 0 0 2.75 -2.75 0 0 2.5 2.75 0 0 2.75 2.5 0 0 -2.75 2.75 0 0 -2.5z" fill="none" stroke="#000000" stroke-linecap="round" stroke-linejoin="round" stroke-width="1"></path></svg>