<svg viewBox="0 0 24 24" xmlns="http://www.w3.org/2000/svg" id="Gowalla-Logo-1--Streamline-Ultimate"><desc>Gowalla Logo 1 Streamline Icon: https://streamlinehq.com</desc><path d="M3.63 16c-0.63 -1.19 0.65 -2 1.06 -2.35 1.28 -1.21 2.1 -2.17 1 -4.45 -0.41 1 -1.66 2.9 -3.09 3.39C0.83 13.2 0.16 11.1 1.35 9.82a16.56 16.56 0 0 1 2.72 -2.28 10.34 10.34 0 0 1 -2.69 -2.87A1.27 1.27 0 0 1 3.29 3c1.4 1 1.61 1.7 1.3 1.84 -0.75 0.34 -0.73 -3.62 1.1 -3.32 0.9 0.15 1.94 1 1.22 5.37 0 0 7.68 0.81 7.59 8.22 0 1.34 -2.05 2.25 -2.42 2.25a2.47 2.47 0 0 1 -1 3.84c-2.47 1.28 -5.81 2 -6.31 0.41s2.78 -3.37 4.69 -2.87a3.69 3.69 0 0 1 0.19 -4.87c1.81 -1.78 5.19 0.75 6.65 1.69s1.56 1.06 3.19 0.44 2 -0.69 2.72 -0.94 1.69 0.12 0.31 1.44 -4.75 3.68 -11.31 4.08c-2.87 0.09 -5.18 -2.24 -5.37 -3.93a8.49 8.49 0 0 1 -0.06 -1" fill="none" stroke="#000000" stroke-linecap="round" stroke-linejoin="round" stroke-width="1"></path></svg>