<svg viewBox="0 0 24 24" xmlns="http://www.w3.org/2000/svg" id="Hyves-Logo--Streamline-Ultimate"><desc>Hyves Logo Streamline Icon: https://streamlinehq.com</desc><path d="M21.22 3c-0.14 0.45 -1.32 0.65 -1.58 1 -0.45 0.57 -0.28 2.34 -0.28 3.53v9a5.58 5.58 0 0 0 0.09 1.76c0.17 0.17 0.78 0.06 1 0.14 4.94 1.59 -6.8 5.79 -6.16 1.39 0 -0.35 0.34 -0.53 0.74 -0.7s0.88 0 1.11 -0.28a31.52 31.52 0 0 0 0 -4.5c-0.41 -0.53 -7.53 0.73 -8.09 1.58a15 15 0 0 0 0.05 3.85c0.19 0.3 1 0.17 1.15 0.23a1.68 1.68 0 0 1 1 1.53c-0.19 1.52 -7.19 2.94 -6.88 0 0.05 -0.5 0.76 -0.8 1.26 -1 0.16 -0.06 0.46 -0.08 0.55 -0.18s0.08 -1.19 0 -1.76a51.56 51.56 0 0 1 -0.18 -5.2c0 -2.09 -0.14 -3.3 -0.14 -5.46a6.35 6.35 0 0 0 -0.09 -1.81c-0.22 -0.22 -0.77 -0.18 -1.11 -0.33 -5.74 -2.47 9 -5.63 6.28 -1.16 -0.34 0.55 -1.63 0.43 -1.91 0.89A4.83 4.83 0 0 0 7.93 7a41.55 41.55 0 0 0 -0.09 4.17c0 0.27 0.11 1.12 0.28 1.2l8 -1.3c0.38 -0.32 0.15 -1.26 0.09 -1.72a9.76 9.76 0 0 1 0 -3c0.06 -0.51 0.22 -1.49 0 -1.76s-0.83 -0.19 -1 -0.28C9.29 1.9 22.79 -1.62 21.22 3Z" fill="none" stroke="#000000" stroke-linecap="round" stroke-linejoin="round" stroke-width="1"></path></svg>