<svg xmlns="http://www.w3.org/2000/svg" fill="none" viewBox="0 0 24 24" id="Iwiw-Logo-1--Streamline-Ultimate"><desc>Iwiw  Logo 1 Streamline Icon: https://streamlinehq.com</desc><path stroke="#000000" stroke-linecap="round" stroke-linejoin="round" d="m7.62355 15.551 2.91435 -1.9496v-2.9243L7.62355 8.73747 4.69922 10.6771v2.9243l2.92433 1.9496Z" stroke-width="1"></path><path stroke="#000000" stroke-linecap="round" stroke-linejoin="round" d="m4.69918 10.6771 -1.41244 -0.70623" stroke-width="1"></path><path stroke="#000000" stroke-linecap="round" stroke-linejoin="round" d="M13.4622 17.978v-2.427" stroke-width="1"></path><path stroke="#000000" stroke-linecap="round" stroke-linejoin="round" d="m13.4623 15.551 2.9144 -1.9496v-2.9243l-2.9144 -1.93963 -2.9243 1.93963v2.9243l2.9243 1.9496Z" stroke-width="1"></path><path stroke="#000000" stroke-linecap="round" stroke-linejoin="round" d="m16.3765 10.6771 2.9244 -1.93963V5.81314l-2.9244 -1.9396 -2.9143 1.9396v2.92433l2.9143 1.93963Z" stroke-width="1"></path><path stroke="#000000" stroke-linecap="round" stroke-linejoin="round" d="m20.8924 5.01741 -1.5915 0.79574" stroke-width="1"></path><path stroke="#000000" d="M1.04872 8.73748c-0.137339 0 -0.248671 -0.11133 -0.248671 -0.24867 0 -0.13733 0.111332 -0.24867 0.248671 -0.24867" stroke-width="1"></path><path stroke="#000000" d="M1.0487 8.73748c0.13733 0 0.24866 -0.11133 0.24866 -0.24867 0 -0.13733 -0.11133 -0.24867 -0.24866 -0.24867" stroke-width="1"></path><path stroke="#000000" d="M13.4622 20.6238c-0.1374 0 -0.2487 -0.1113 -0.2487 -0.2487 0 -0.1373 0.1113 -0.2487 0.2487 -0.2487" stroke-width="1"></path><path stroke="#000000" d="M13.4621 20.6238c0.1374 0 0.2487 -0.1113 0.2487 -0.2487 0 -0.1373 -0.1113 -0.2487 -0.2487 -0.2487" stroke-width="1"></path><g><path stroke="#000000" d="M22.9514 3.87354c-0.1373 0 -0.2486 -0.11133 -0.2486 -0.24867 0 -0.13733 0.1113 -0.24866 0.2486 -0.24866" stroke-width="1"></path><path stroke="#000000" d="M22.9514 3.87354c0.1373 0 0.2487 -0.11133 0.2487 -0.24867 0 -0.13733 -0.1114 -0.24866 -0.2487 -0.24866" stroke-width="1"></path></g></svg>