<svg viewBox="0 0 24 24" xmlns="http://www.w3.org/2000/svg" id="Iwiw-Logo--Streamline-Ultimate"><desc>Iwiw Logo Streamline Icon: https://streamlinehq.com</desc><path d="m5.15 8 6.66 -4L15 5.85a1.54 1.54 0 0 0 2.09 -0.55 1.52 1.52 0 0 0 -0.57 -2.08l-3.28 -1.9c-1.27 -0.73 -1.48 -0.75 -2.77 0L3.63 5.44h0c-1.32 0.76 -1.4 1 -1.4 2.43v8.27c0 1.48 0.08 1.66 1.42 2.44l6.83 4.14c1.28 0.73 1.49 0.71 2.75 0l3.38 -1.94a1.53 1.53 0 0 0 -1.6 -2.6L11.82 20l-6.67 -4V8Z" fill="none" stroke="#000000" stroke-linecap="round" stroke-linejoin="round" stroke-width="1"></path><path d="M18.85 15.88a1 1 0 0 0 1 0.93h1a0.93 0.93 0 0 0 0.93 -0.93V7.94a0.9 0.9 0 0 0 -0.93 -0.94h-1a1 1 0 0 0 -1 0.89Z" fill="none" stroke="#000000" stroke-linecap="round" stroke-linejoin="round" stroke-width="1"></path><path d="m11.57 7.83 -3.48 2v3.91" fill="none" stroke="#000000" stroke-linecap="round" stroke-linejoin="round" stroke-width="1"></path></svg>