<svg viewBox="0 0 24 24" xmlns="http://www.w3.org/2000/svg" id="My-Space-Logo--Streamline-Ultimate"><desc>My Space Logo Streamline Icon: https://streamlinehq.com</desc><path d="M22.5 14.64a4.52 4.52 0 1 0 -9 0v8.61h9Z" fill="none" stroke="#000000" stroke-linecap="round" stroke-linejoin="round" stroke-width="1"></path><path d="M14.5 4.25a3.5 3.5 0 1 0 7 0 3.5 3.5 0 1 0 -7 0Z" fill="none" stroke="#000000" stroke-linecap="round" stroke-linejoin="round" stroke-width="1"></path><path d="M7.5 4.25a2.5 2.5 0 1 0 5 0 2.5 2.5 0 1 0 -5 0Z" fill="none" stroke="#000000" stroke-linecap="round" stroke-linejoin="round" stroke-width="1"></path><path d="M2.5 4.25a1.5 1.5 0 1 0 3 0 1.5 1.5 0 1 0 -3 0Z" fill="none" stroke="#000000" stroke-linecap="round" stroke-linejoin="round" stroke-width="1"></path><path d="M6.5 12.25a3.5 3.5 0 0 1 7 0v7h-7Z" fill="none" stroke="#000000" stroke-linecap="round" stroke-linejoin="round" stroke-width="1"></path><path d="M1.5 10.25a2.5 2.5 0 0 1 5 0v4.25h-5Z" fill="none" stroke="#000000" stroke-linecap="round" stroke-linejoin="round" stroke-width="1"></path></svg>