<svg viewBox="0 0 24 24" xmlns="http://www.w3.org/2000/svg" id="Reddit-Logo--Streamline-Ultimate"><desc>Reddit Logo Streamline Icon: https://streamlinehq.com</desc><path d="M2.71 15.33a9.29 6.36 0 1 0 18.58 0 9.29 6.36 0 1 0 -18.58 0Z" fill="none" stroke="#000000" stroke-linecap="round" stroke-linejoin="round" stroke-width="1"></path><path d="M15.46 18.15A7 7 0 0 1 12 19a7 7 0 0 1 -3.48 -0.87" fill="none" stroke="#000000" stroke-linecap="round" stroke-linejoin="round" stroke-width="1"></path><path d="M16.66 13.87a0.75 0.75 0 1 1 -0.75 -0.75 0.75 0.75 0 0 1 0.75 0.75" fill="none" stroke="#000000" stroke-linecap="round" stroke-linejoin="round" stroke-width="1"></path><path d="M8.84 13.87a0.75 0.75 0 1 1 -0.75 -0.75 0.75 0.75 0 0 1 0.75 0.75" fill="none" stroke="#000000" stroke-linecap="round" stroke-linejoin="round" stroke-width="1"></path><path d="M18.6 10.85a2.45 2.45 0 1 1 2.58 3.47" fill="none" stroke="#000000" stroke-linecap="round" stroke-linejoin="round" stroke-width="1"></path><path d="M17.38 4.46a2.15 2.15 0 1 0 4.3 0 2.15 2.15 0 1 0 -4.3 0Z" fill="none" stroke="#000000" stroke-linecap="round" stroke-linejoin="round" stroke-width="1"></path><path d="M5.4 10.86a2.45 2.45 0 1 0 -2.58 3.47" fill="none" stroke="#000000" stroke-linecap="round" stroke-linejoin="round" stroke-width="1"></path><path d="M12 9s0 -6.67 5.38 -4.91" fill="none" stroke="#000000" stroke-linecap="round" stroke-linejoin="round" stroke-width="1"></path></svg>