<svg xmlns="http://www.w3.org/2000/svg" fill="none" viewBox="0 0 24 24" id="Thread-Block-Logo--Streamline-Ultimate"><desc>Thread Block Logo Streamline Icon: https://streamlinehq.com</desc><path stroke="#000000" d="M4.75 0.75h14.5s4 0 4 4v14.5s0 4 -4 4H4.75s-4 0 -4 -4V4.75s0 -4 4 -4" stroke-width="1"></path><path stroke="#000000" stroke-linecap="round" stroke-linejoin="round" d="M18.5396 9.03993C17.9941 5.97783 15.5257 4.25 11.9198 4.25c-3.60591 0 -6.45834 2.6339 -6.45834 8.2344 0 5.5713 3.82008 7.2656 6.94274 7.2656 3.1226 0 5.3819 -1.8837 5.4895 -4.3056 0.1077 -2.4218 -2.097 -3.9826 -5.059 -3.9826 -2.85608 0 -3.23675 1.4502 -3.18293 2.3652 0.05836 0.9922 0.91273 1.9863 2.68483 1.856 1.7474 -0.1285 3.0276 -1.7455 2.8124 -4.5979 -0.2036 -2.69685 -2.216 -2.96838 -2.8641 -2.96838 -0.9179 0 -1.7238 0.36818 -2.41134 1.1577" stroke-width="1"></path></svg>