<svg xmlns="http://www.w3.org/2000/svg" fill="none" viewBox="0 0 24 24" id="Tuenti-Logo--Streamline-Ultimate"><desc>Tuenti Logo Streamline Icon: https://streamlinehq.com</desc><path stroke="#000000" stroke-linecap="round" stroke-linejoin="round" d="M0.81 9.48732v5.07508c0.005456 1.215 0.26809 2.4152 0.77062 3.5214 0.50254 1.1063 1.23358 2.0936 2.14506 2.8971 1.57234 1.4164 3.61562 2.1968 5.73185 2.1892H21.2695c0.2535 0 0.5046 -0.0499 0.7388 -0.1469 0.2342 -0.097 0.447 -0.2392 0.6263 -0.4185 0.1793 -0.1793 0.3215 -0.3921 0.4185 -0.6263 0.097 -0.2342 0.1469 -0.4853 0.1469 -0.7388V9.48732c-0.0043 -2.226 -0.8669 -4.36458 -2.4081 -5.97068v0c-0.8049 -0.84844 -1.774 -1.5242 -2.8484 -1.98611 -1.0743 -0.46191 -2.2315 -0.700313 -3.4009 -0.700696H9.45753C7.16304 0.835091 4.96403 1.7489 3.34157 3.37136 1.71912 4.99381 0.805305 7.19283 0.800049 9.48732H0.81Z" stroke-width="1"></path><path stroke="#000000" stroke-linecap="round" stroke-linejoin="round" d="M13.9952 6.58157c1.2971 1.56952 2.0441 3.52083 2.1268 5.55523 0.0826 2.0344 -0.5036 4.0399 -1.669 5.7095" stroke-width="1"></path><path stroke="#000000" stroke-linecap="round" stroke-linejoin="round" d="m7.33801 17.8463 2.47783 -4.08" stroke-width="1"></path><path stroke="#000000" d="M9.31823 9.43749c-0.41219 0 -0.74633 -0.33414 -0.74633 -0.74633 0 -0.41219 0.33414 -0.74634 0.74633 -0.74634" stroke-width="1"></path><path stroke="#000000" d="M9.31824 9.43749c0.41219 0 0.74636 -0.33414 0.74636 -0.74633 0 -0.41219 -0.33417 -0.74634 -0.74636 -0.74634" stroke-width="1"></path></svg>