<svg xmlns="http://www.w3.org/2000/svg" viewBox="0 0 24 24" id="Yelp-Logo--Streamline-Ultimate"><desc>Yelp Logo Streamline Icon: https://streamlinehq.com</desc><g><path d="M5.24 2.74a1 1 0 0 0 -0.66 0.72 1 1 0 0 0 0.25 0.94l5.25 5.66a1 1 0 0 0 1.09 0.27 1 1 0 0 0 0.68 -0.91l0.39 -7.6a1 1 0 0 0 -1.35 -1Z" fill="none" stroke="#000000" stroke-linecap="round" stroke-linejoin="round" stroke-width="1"></path><path d="M19.63 6.31a1 1 0 0 0 -1.74 0l-2.48 3.79a1 1 0 0 0 0 1.1 1 1 0 0 0 1 0.47l4.4 -0.59a1 1 0 0 0 0.78 -0.56 1 1 0 0 0 0 -1Z" fill="none" stroke="#000000" stroke-linecap="round" stroke-linejoin="round" stroke-width="1"></path><path d="M20.71 18.71a1 1 0 0 0 0.28 -0.95 1 1 0 0 0 -0.65 -0.74l-4.28 -1.5a1 1 0 0 0 -1.29 1.33L16.39 21a1 1 0 0 0 1.67 0.35Z" fill="none" stroke="#000000" stroke-linecap="round" stroke-linejoin="round" stroke-width="1"></path><path d="M10.67 23.18a1 1 0 0 0 1 -0.13 1 1 0 0 0 0.41 -0.9l-0.37 -4.53a1 1 0 0 0 -0.67 -0.87 1 1 0 0 0 -1.1 0.25l-3.1 3.17a1 1 0 0 0 0.36 1.66Z" fill="none" stroke="#000000" stroke-linecap="round" stroke-linejoin="round" stroke-width="1"></path><path d="M2.5 15.83a1 1 0 0 0 1.5 0.84l4 -2.18a1 1 0 0 0 0.53 -1 1 1 0 0 0 -0.66 -0.89L3.7 11.09a1 1 0 0 0 -1 0.14 1 1 0 0 0 -0.41 0.87Z" fill="none" stroke="#000000" stroke-linecap="round" stroke-linejoin="round" stroke-width="1"></path></g></svg>