<svg xmlns="http://www.w3.org/2000/svg" fill="none" viewBox="0 0 24 24" id="Professions-Woman-Post--Streamline-Ultimate"><desc>Professions Woman Post Streamline Icon: https://streamlinehq.com</desc><path stroke="#000000" stroke-linecap="round" stroke-linejoin="round" d="M3.60797 12.749c3 -1.5 3.053 -5.24998 3.053 -5.24998v-0.75" stroke-width="1"></path><path stroke="#000000" stroke-linecap="round" stroke-linejoin="round" d="M20.108 12.749c-3 -1.5 -3.054 -5.24998 -3.054 -5.24998v-0.75" stroke-width="1"></path><path stroke="#000000" stroke-linecap="round" stroke-linejoin="round" d="M6.722 6.74903v-2.849c-0.00134 -0.29654 0.08397 -0.58701 0.24546 -0.83573 0.16148 -0.24871 0.39211 -0.44484 0.66354 -0.56427l3.75 -1.626999C11.5675 0.79188 11.7686 0.75 11.972 0.75c0.2034 0 0.4045 0.04188 0.591 0.123031l3.75 1.626999c0.2716 0.11922 0.5024 0.3153 0.6639 0.56406 0.1615 0.24876 0.2467 0.53935 0.2451 0.83594v2.849" stroke-width="1"></path><path stroke="#000000" d="M11.972 4.12402c-0.2071 0 -0.375 -0.16789 -0.375 -0.375 0 -0.2071 0.1679 -0.375 0.375 -0.375" stroke-width="1"></path><path stroke="#000000" d="M11.972 4.12402c0.2071 0 0.375 -0.16789 0.375 -0.375 0 -0.2071 -0.1679 -0.375 -0.375 -0.375" stroke-width="1"></path><path stroke="#000000" stroke-linecap="round" stroke-linejoin="round" d="M5.22198 6.74902H18.722" stroke-width="1"></path><path stroke="#000000" stroke-linecap="round" stroke-linejoin="round" d="M21.608 23.249c-0.3589 -2.298 -1.5271 -4.3922 -3.294 -5.9048 -1.7669 -1.5125 -4.0161 -2.3439 -6.342 -2.3442v0c-2.32594 0.0004 -4.57516 0.8319 -6.3419 2.3447 -1.76674 1.5128 -2.93469 3.6072 -3.29312 5.9053" stroke-width="1"></path><path stroke="#000000" stroke-linecap="round" stroke-linejoin="round" d="M16.23 6.74902c0.2381 0.68004 0.3099 1.40723 0.2093 2.1207 -0.1006 0.71348 -0.3706 1.39248 -0.7875 1.98018 -0.4169 0.5877 -0.9685 1.0669 -1.6086 1.3977 -0.6401 0.3307 -1.3502 0.5033 -2.0707 0.5033 -0.7205 0 -1.4306 -0.1726 -2.07072 -0.5033 -0.64013 -0.3308 -1.19172 -0.81 -1.6086 -1.3977 -0.41688 -0.5877 -0.68692 -1.2667 -0.78751 -1.98018 -0.1006 -0.71347 -0.02882 -1.44066 0.20932 -2.1207" stroke-width="1"></path><path stroke="#000000" stroke-linecap="round" stroke-linejoin="round" d="M14.858 21.749h3" stroke-width="1"></path><path stroke="#000000" stroke-linecap="round" stroke-linejoin="round" d="M11.858 14.999v8.25" stroke-width="1"></path></svg>