<svg xmlns="http://www.w3.org/2000/svg" viewBox="0 0 24 24" id="Professions-Woman-Welder--Streamline-Ultimate"><desc>Professions Woman Welder Streamline Icon: https://streamlinehq.com</desc><g><path d="M17.25 6a5.25 5.25 0 0 0 -10.5 0v6.75s1.5 1.5 5.25 1.5 5.25 -1.5 5.25 -1.5Z" fill="none" stroke="#000000" stroke-linecap="round" stroke-linejoin="round" stroke-width="1"></path><path d="M8.25 14.25V15c0 2.07 0 3.75 3.75 3.75s3.75 -1.68 3.75 -3.75v-0.75" fill="none" stroke="#000000" stroke-linecap="round" stroke-linejoin="round" stroke-width="1"></path><path d="m5.25 23.25 0 -7.03" fill="none" stroke="#000000" stroke-linecap="round" stroke-linejoin="round" stroke-width="1"></path><path d="m18.75 23.25 0 -7.03" fill="none" stroke="#000000" stroke-linecap="round" stroke-linejoin="round" stroke-width="1"></path><path d="M21.75 23.25a9.75 9.75 0 0 0 -6.93 -9.33" fill="none" stroke="#000000" stroke-linecap="round" stroke-linejoin="round" stroke-width="1"></path><path d="M9.18 13.92a9.75 9.75 0 0 0 -6.93 9.33" fill="none" stroke="#000000" stroke-linecap="round" stroke-linejoin="round" stroke-width="1"></path><path d="M6.75 9s0 3.75 -3 5.25" fill="none" stroke="#000000" stroke-linecap="round" stroke-linejoin="round" stroke-width="1"></path><path d="M17.25 9s0.05 3.75 3.05 5.25" fill="none" stroke="#000000" stroke-linecap="round" stroke-linejoin="round" stroke-width="1"></path><path d="M9.25 5.75h5.5v3.5h-5.5Z" fill="none" stroke="#000000" stroke-linecap="round" stroke-linejoin="round" stroke-width="1"></path></g></svg>