<svg xmlns="http://www.w3.org/2000/svg" viewBox="0 0 24 24" id="Professions-Woman-Doctor-2--Streamline-Ultimate"><desc>Professions Woman Doctor 2 Streamline Icon: https://streamlinehq.com</desc><g><path d="M6.92 19.14a10.56 10.56 0 0 0 -3.47 4.11" fill="none" stroke="#000000" stroke-linecap="round" stroke-linejoin="round" stroke-width="1"></path><path d="M22.4 23.25a10.5 10.5 0 0 0 -9.48 -6" fill="none" stroke="#000000" stroke-linecap="round" stroke-linejoin="round" stroke-width="1"></path><path d="M12.92 5.25s-1.43 3.6 -5 3.75a5.25 5.25 0 1 0 10.28 1.5A5 5 0 0 0 18 9c-3.64 -0.15 -5.08 -3.75 -5.08 -3.75Z" fill="none" stroke="#000000" stroke-linecap="round" stroke-linejoin="round" stroke-width="1"></path><g><path d="M0.97 12.75a2 2 0 1 0 4 0 2 2 0 1 0 -4 0" fill="none" stroke="#000000" stroke-linecap="round" stroke-linejoin="round" stroke-width="1"></path><path d="M16.67 17.25a3.75 3.75 0 0 1 -7.5 0" fill="none" stroke="#000000" stroke-linecap="round" stroke-linejoin="round" stroke-width="1"></path><path d="M5 12.94a3 3 0 0 1 2 2.81V21a2.25 2.25 0 0 0 2.25 2.25h1.5A2.25 2.25 0 0 0 12.92 21" fill="none" stroke="#000000" stroke-linecap="round" stroke-linejoin="round" stroke-width="1"></path></g><path d="M4.67 9a8.25 8.25 0 0 1 16.5 0v2.08a4.49 4.49 0 0 0 0.37 1.77l1.37 3.21a1.49 1.49 0 0 1 -0.76 2 14.62 14.62 0 0 1 -3.39 1" fill="none" stroke="#000000" stroke-linecap="round" stroke-linejoin="round" stroke-width="1"></path></g></svg>