<svg viewBox="0 0 24 24" xmlns="http://www.w3.org/2000/svg" id="Professions-Woman-Chef-3--Streamline-Ultimate"><desc>Professions Woman Chef 3 Streamline Icon: https://streamlinehq.com</desc><path d="M17.388 11.25a5.25 5.25 0 0 1 -10.5 0Z" fill="none" stroke="#000000" stroke-linecap="round" stroke-linejoin="round" stroke-width="1"></path><path d="M17.388 6.75a1.5 1.5 0 0 0 1.5 -1.5 3 3 0 0 0 -4.051 -2.811 3 3 0 0 0 -5.4 0A3 3 0 0 0 5.388 5.25a1.5 1.5 0 0 0 1.5 1.5v4.5h10.5Z" fill="none" stroke="#000000" stroke-linecap="round" stroke-linejoin="round" stroke-width="1"></path><path d="M19.8 23.25a9.692 9.692 0 0 0 -15.314 0" fill="none" stroke="#000000" stroke-linecap="round" stroke-linejoin="round" stroke-width="1"></path><path d="m12.138 19.5 0 3.75" fill="none" stroke="#000000" stroke-linecap="round" stroke-linejoin="round" stroke-width="1"></path><path d="M6.888 11.25s0 3.75 -3 5.25" fill="none" stroke="#000000" stroke-linecap="round" stroke-linejoin="round" stroke-width="1"></path><path d="M17.388 11.25s0 3.75 3 5.25" fill="none" stroke="#000000" stroke-linecap="round" stroke-linejoin="round" stroke-width="1"></path></svg>