<svg viewBox="0 0 24 24" xmlns="http://www.w3.org/2000/svg" id="Bomb-Grenade--Streamline-Ultimate"><desc>Bomb Grenade Streamline Icon: https://streamlinehq.com</desc><path d="M15.773 22.75a1.455 1.455 0 0 0 1.237 -0.65A11.788 11.788 0 0 0 19 15.25a11.788 11.788 0 0 0 -1.99 -6.85 1.455 1.455 0 0 0 -1.237 -0.648H8.727A1.455 1.455 0 0 0 7.49 8.4a11.788 11.788 0 0 0 -1.99 6.85 11.788 11.788 0 0 0 1.99 6.85 1.455 1.455 0 0 0 1.237 0.648Z" fill="none" stroke="#000000" stroke-linecap="round" stroke-linejoin="round" stroke-width="1"></path><path d="M10 3.25h4.5v4.5H10z" fill="none" stroke="#000000" stroke-linecap="round" stroke-linejoin="round" stroke-width="1"></path><path d="M1.75 15.249c0 -8.25 4.5 -12 4.5 -12H17.5" fill="none" stroke="#000000" stroke-linecap="round" stroke-linejoin="round" stroke-width="1"></path><path d="M17.5 3.25a2.25 2.25 0 1 0 4.5 0 2.25 2.25 0 1 0 -4.5 0Z" fill="none" stroke="#000000" stroke-linecap="round" stroke-linejoin="round" stroke-width="1"></path><path d="m5.815 12.25 12.87 0" fill="none" stroke="#000000" stroke-linecap="round" stroke-linejoin="round" stroke-width="1"></path><path d="m5.815 18.25 12.87 0" fill="none" stroke="#000000" stroke-linecap="round" stroke-linejoin="round" stroke-width="1"></path></svg>