<svg id="Clothes-Design-Tape-Measure--Streamline-Ultimate" xmlns="http://www.w3.org/2000/svg" viewBox="0 0 24 24"><desc>Clothes Design Tape Measure Streamline Icon: https://streamlinehq.com</desc><defs></defs><title>clothes-design-tape-measure</title><path d="M1.75 0.75h21.5l0 0v7.5l0 0H1.75a1 1 0 0 1 -1 -1v-5.5a1 1 0 0 1 1 -1Z" fill="none" stroke="#000000" stroke-linecap="round" stroke-linejoin="round" stroke-width="1"></path><path d="M9.75 15.75h13.5v7.5H9.75Z" fill="none" stroke="#000000" stroke-linecap="round" stroke-linejoin="round" stroke-width="1"></path><path d="M9.75 15.75 15 8.25" fill="none" stroke="#000000" stroke-linecap="round" stroke-linejoin="round" stroke-width="1"></path><path d="m18 15.75 5.25 -7.5" fill="none" stroke="#000000" stroke-linecap="round" stroke-linejoin="round" stroke-width="1"></path><path d="m4.5 0.75 0 7.5" fill="none" stroke="#000000" stroke-linecap="round" stroke-linejoin="round" stroke-width="1"></path><path d="m9.75 0.75 0 3" fill="none" stroke="#000000" stroke-linecap="round" stroke-linejoin="round" stroke-width="1"></path><path d="m14.25 0.75 0 3" fill="none" stroke="#000000" stroke-linecap="round" stroke-linejoin="round" stroke-width="1"></path><path d="m18.75 0.75 0 3" fill="none" stroke="#000000" stroke-linecap="round" stroke-linejoin="round" stroke-width="1"></path><path d="m19.5 15.75 0 3" fill="none" stroke="#000000" stroke-linecap="round" stroke-linejoin="round" stroke-width="1"></path><path d="m15 15.75 0 3" fill="none" stroke="#000000" stroke-linecap="round" stroke-linejoin="round" stroke-width="1"></path></svg>