<svg viewBox="0 0 24 24" xmlns="http://www.w3.org/2000/svg" id="Clothes-Design-Animal-Skin--Streamline-Ultimate"><desc>Clothes Design Animal Skin Streamline Icon: https://streamlinehq.com</desc><path d="M19.5 10.5c0.578 -1.735 2.494 -6.59 3.341 -8.723a0.75 0.75 0 0 0 -0.7 -1.027h-2.154a0.751 0.751 0 0 0 -0.687 0.45l-2.257 5.08A0.677 0.677 0 0 1 15.75 6a3.75 3.75 0 0 0 -7.5 0 0.677 0.677 0 0 1 -1.295 0.275L4.7 1.2a0.751 0.751 0 0 0 -0.687 -0.45H1.856a0.75 0.75 0 0 0 -0.7 1.027C2.006 3.91 3.922 8.765 4.5 10.5a10.406 10.406 0 0 1 0 6.75 19.661 19.661 0 0 1 -2.252 4.85 0.75 0.75 0 0 0 0.634 1.15h3.443a0.751 0.751 0 0 0 0.644 -0.364l1.6 -2.673A0.75 0.75 0 0 1 9.665 20l1.885 1.413a0.75 0.75 0 0 0 0.9 0L14.335 20a0.75 0.75 0 0 1 1.093 0.214l1.6 2.673a0.748 0.748 0 0 0 0.643 0.364h3.443a0.75 0.75 0 0 0 0.634 -1.15A19.661 19.661 0 0 1 19.5 17.25a10.406 10.406 0 0 1 0 -6.75Z" fill="none" stroke="#000000" stroke-linecap="round" stroke-linejoin="round" stroke-width="1"></path></svg>