<svg viewBox="0 0 24 24" xmlns="http://www.w3.org/2000/svg" id="Clothes-Design-Pin--Streamline-Ultimate"><desc>Clothes Design Pin Streamline Icon: https://streamlinehq.com</desc><path d="M18 8.25v11.856a3.144 3.144 0 0 1 -6.052 1.2L4.5 7.5" fill="none" stroke="#000000" stroke-linecap="round" stroke-linejoin="round" stroke-width="1"></path><path d="M11.856 20.25a3 3 0 1 0 6 0 3 3 0 1 0 -6 0Z" fill="none" stroke="#000000" stroke-linecap="round" stroke-linejoin="round" stroke-width="1"></path><path d="M15 0.75a4.5 4.5 0 0 0 -4.5 4.5v1.5a1.5 1.5 0 0 0 3 0v-1.5a1.5 1.5 0 0 1 3 0v1.5a1.5 1.5 0 0 0 3 0v-1.5A4.5 4.5 0 0 0 15 0.75Z" fill="none" stroke="#000000" stroke-linecap="round" stroke-linejoin="round" stroke-width="1"></path></svg>