<svg viewBox="0 0 24 24" xmlns="http://www.w3.org/2000/svg" id="Clothes-Design-Thread-Boots--Streamline-Ultimate"><desc>Clothes Design Thread Boots Streamline Icon: https://streamlinehq.com</desc><path d="M9.5 23.25H3a2.255 2.255 0 0 1 -2.228 -2.568A7.555 7.555 0 0 1 7.385 14.3a5.879 5.879 0 0 0 5.365 -5.764V5.25h9v6" fill="none" stroke="#000000" stroke-linecap="round" stroke-linejoin="round" stroke-width="1"></path><path d="M6.4 14.479a3 3 0 0 1 1.85 2.771v3" fill="none" stroke="#000000" stroke-linecap="round" stroke-linejoin="round" stroke-width="1"></path><path d="m0.847 20.25 10.153 0" fill="none" stroke="#000000" stroke-linecap="round" stroke-linejoin="round" stroke-width="1"></path><path d="m11.25 0.75 12 0 0 4.5 -12 0Z" fill="none" stroke="#000000" stroke-linecap="round" stroke-linejoin="round" stroke-width="1"></path><path d="M14.25 14.25h6v9h-6z" fill="none" stroke="#000000" stroke-linecap="round" stroke-linejoin="round" stroke-width="1"></path><path d="m12.75 14.25 9 0" fill="none" stroke="#000000" stroke-linecap="round" stroke-linejoin="round" stroke-width="1"></path><path d="m12.75 23.25 9 0" fill="none" stroke="#000000" stroke-linecap="round" stroke-linejoin="round" stroke-width="1"></path><path d="m14.25 17.25 6 0" fill="none" stroke="#000000" stroke-linecap="round" stroke-linejoin="round" stroke-width="1"></path><path d="M14.25 20.25h6a3 3 0 0 0 3 -3" fill="none" stroke="#000000" stroke-linecap="round" stroke-linejoin="round" stroke-width="1"></path></svg>