<svg xmlns="http://www.w3.org/2000/svg" viewBox="0 0 24 24" id="Fashion-Design-2--Streamline-Ultimate"><desc>Fashion Design 2 Streamline Icon: https://streamlinehq.com</desc><defs></defs><title>fashion-design-2</title><path d="m4.849 16.118 -1.306 4.171a0.585 0.585 0 0 0 0.341 0.753A18.721 18.721 0 0 0 9 22.5" fill="none" stroke="#000000" stroke-linecap="round" stroke-linejoin="round" stroke-width="1"></path><path d="M17.455 10.247a5.288 5.288 0 0 1 0.024 -3.779L18.9 2.78a0.579 0.579 0 0 0 -0.274 -0.717L16.88 1a0.91 0.91 0 0 0 -1.1 0.128 0.6 0.6 0 0 0 -0.134 0.23C15.39 2.357 13.718 3.042 12 3a3.8 3.8 0 0 1 -3.512 -1.9 0.875 0.875 0 0 0 -1.055 -0.282 0.817 0.817 0 0 0 -0.118 0.06L5.377 2.063a0.579 0.579 0 0 0 -0.277 0.717l1.421 3.688a5.3 5.3 0 0 1 0.027 3.77" fill="none" stroke="#000000" stroke-linecap="round" stroke-linejoin="round" stroke-width="1"></path><path d="M15 22.5a18.682 18.682 0 0 0 5.116 -1.462 0.584 0.584 0 0 0 0.341 -0.752l-1.306 -4.167" fill="none" stroke="#000000" stroke-linecap="round" stroke-linejoin="round" stroke-width="1"></path><path d="m12 7.521 0 1.5" fill="none" stroke="#000000" stroke-linecap="round" stroke-linejoin="round" stroke-width="1"></path><path d="m12 3.001 0 1.75" fill="none" stroke="#000000" stroke-linecap="round" stroke-linejoin="round" stroke-width="1"></path><path d="m12 18.981 0 -1.5" fill="none" stroke="#000000" stroke-linecap="round" stroke-linejoin="round" stroke-width="1"></path><path d="m12 23.25 0 -1.5" fill="none" stroke="#000000" stroke-linecap="round" stroke-linejoin="round" stroke-width="1"></path><path d="m17.73 13.251 -1.5 0" fill="none" stroke="#000000" stroke-linecap="round" stroke-linejoin="round" stroke-width="1"></path><path d="m21.999 13.251 -1.499 0" fill="none" stroke="#000000" stroke-linecap="round" stroke-linejoin="round" stroke-width="1"></path><path d="m6.27 13.251 1.5 0" fill="none" stroke="#000000" stroke-linecap="round" stroke-linejoin="round" stroke-width="1"></path><path d="m2.001 13.251 1.499 0" fill="none" stroke="#000000" stroke-linecap="round" stroke-linejoin="round" stroke-width="1"></path><path d="M10.75 13.251a1.25 1.25 0 1 0 2.5 0 1.25 1.25 0 1 0 -2.5 0" fill="none" stroke="#000000" stroke-linecap="round" stroke-linejoin="round" stroke-width="1"></path></svg>