<svg xmlns="http://www.w3.org/2000/svg" fill="none" viewBox="0 0 24 24" id="Microsoft-Access-Logo--Streamline-Ultimate"><desc>Microsoft Access Logo Streamline Icon: https://streamlinehq.com</desc><path stroke="#000000" stroke-linecap="round" stroke-linejoin="round" d="M13.4762 3.75608c0.6215 -0.04968 1.2728 -0.07609 1.9438 -0.07609 4.3244 0 7.83 1.09691 7.83 2.45 0 1.3531 -3.5056 2.45 -7.83 2.45 -0.671 0 -1.3223 -0.02641 -1.9438 -0.07608" stroke-width="1"></path><path stroke="#000000" stroke-linecap="round" stroke-linejoin="round" d="M23.2501 10c0 1.35 -3.5 2.45 -7.83 2.45 -0.6737 0 -1.327 -0.0257 -1.95 -0.0742" stroke-width="1"></path><path stroke="#000000" stroke-linecap="round" stroke-linejoin="round" d="M23.25 14c0 1.35 -3.5 2.44 -7.83 2.44 -0.6737 0 -1.3271 -0.0274 -1.9502 -0.0785" stroke-width="1"></path><path stroke="#000000" stroke-linecap="round" stroke-linejoin="round" d="M23.2499 6.13v11.74c0 1.35 -3.5099 2.45 -7.8299 2.45 -0.6744 0 -1.3288 -0.0268 -1.953 -0.0772" stroke-width="1"></path><path stroke="#000000" stroke-linecap="round" stroke-linejoin="round" d="M13.47 23.25 0.75 20.32V3.69L13.47 0.75v22.5Z" stroke-width="1"></path><path stroke="#000000" stroke-linecap="round" stroke-linejoin="round" d="m9.95002 15.42 -2.84 -7.95003 -2.84 7.95003" stroke-width="1"></path><path stroke="#000000" stroke-linecap="round" stroke-linejoin="round" d="M5.31006 12.49h3.59" stroke-width="1"></path></svg>