<svg xmlns="http://www.w3.org/2000/svg" fill="none" viewBox="0 0 24 24" id="Chef-Gear-Cookie-Bowl--Streamline-Ultimate"><desc>Chef Gear Cookie Bowl Streamline Icon: https://streamlinehq.com</desc><path stroke="#000000" stroke-linecap="round" stroke-linejoin="round" d="M23.25 12.75c0 5.8 -5 10.5 -11.25 10.5S0.75 18.55 0.75 12.75h22.5Z" stroke-width="1"></path><path stroke="#000000" stroke-linecap="round" stroke-linejoin="round" d="M15.15 5.29996c-0.4186 -0.97283 -1.0384 -1.84599 -1.8188 -2.56201 -0.7803 -0.71601 -1.7035 -1.25864 -2.7086 -1.59216C9.61739 0.812262 8.55297 0.6954 7.49938 0.802893 6.44579 0.910387 5.4269 1.2398 4.5098 1.76945c-0.91711 0.52964 -1.71165 1.24752 -2.33132 2.10637 -0.61967 0.85885 -1.05042 1.8392 -1.263906 2.87652 -0.213482 1.03732 -0.204852 2.1081 0.025321 3.14185C1.17007 10.9279 1.61657 11.9012 2.25 12.75" stroke-width="1"></path><path stroke="#000000" d="M4.495 9.36963c-0.20711 0 -0.375 -0.16789 -0.375 -0.375s0.16789 -0.375 0.375 -0.375" stroke-width="1"></path><path stroke="#000000" d="M4.495 9.36963c0.2071 0 0.375 -0.16789 0.375 -0.375s-0.1679 -0.375 -0.375 -0.375" stroke-width="1"></path><path stroke="#000000" d="M11.2451 10.1201c-0.2071 0 -0.375 -0.16788 -0.375 -0.37498 0 -0.20711 0.1679 -0.375 0.375 -0.375" stroke-width="1"></path><path stroke="#000000" d="M11.2451 10.1201c0.2071 0 0.375 -0.16788 0.375 -0.37498 0 -0.20711 -0.1679 -0.375 -0.375 -0.375" stroke-width="1"></path><g><path stroke="#000000" d="M5.99512 4.87012c-0.20711 0 -0.375 -0.1679 -0.375 -0.375 0 -0.20711 0.16789 -0.375 0.375 -0.375" stroke-width="1"></path><path stroke="#000000" d="M5.99512 4.87012c0.2071 0 0.375 -0.1679 0.375 -0.375 0 -0.20711 -0.1679 -0.375 -0.375 -0.375" stroke-width="1"></path></g><path stroke="#000000" stroke-linecap="round" stroke-linejoin="round" d="M21.75 12.75c0.0011 -0.5038 -0.0491 -1.0064 -0.15 -1.5 -0.71 -0.0223 -1.4081 -0.188 -2.0524 -0.487 -0.6443 -0.2991 -1.2215 -0.7252 -1.6969 -1.25299 -0.4755 -0.52774 -0.8393 -1.14614 -1.0697 -1.81806 -0.2304 -0.67192 -0.3226 -1.38347 -0.271 -2.09191 -0.7303 -0.23435 -1.493 -0.35246 -2.26 -0.35 -1.9891 0 -3.8968 0.79017 -5.3033 2.1967C7.54018 8.85326 6.75 10.7609 6.75 12.75" stroke-width="1"></path></svg>