<svg id="Chef-Gear-Butter--Streamline-Ultimate" xmlns="http://www.w3.org/2000/svg" viewBox="0 0 24 24"><desc>Chef Gear Butter Streamline Icon: https://streamlinehq.com</desc><defs></defs><title>chef-gear-butter</title><path d="M5.264 11.4C2.524 12.216 0.75 13.525 0.75 15c0 2.485 5.037 4.5 11.25 4.5s11.25 -2.015 11.25 -4.5c0 -1.472 -1.768 -2.779 -4.5 -3.6" fill="none" stroke="#000000" stroke-linecap="round" stroke-linejoin="round" stroke-width="1"></path><path d="M8.75 7.5h9.5s0.5 0 0.5 0.5v6.5s0 0.5 -0.5 0.5h-9.5s-0.5 0 -0.5 -0.5V8s0 -0.5 0.5 -0.5" fill="none" stroke="#000000" stroke-linecap="round" stroke-linejoin="round" stroke-width="1"></path><path d="M15.75 7.5V5.25A0.75 0.75 0 0 0 15 4.5H6a0.75 0.75 0 0 0 -0.75 0.75v6A0.75 0.75 0 0 0 6 12h2.25" fill="none" stroke="#000000" stroke-linecap="round" stroke-linejoin="round" stroke-width="1"></path><path d="m15.75 7.5 0 3" fill="none" stroke="#000000" stroke-linecap="round" stroke-linejoin="round" stroke-width="1"></path><path d="m11.25 7.5 0 3" fill="none" stroke="#000000" stroke-linecap="round" stroke-linejoin="round" stroke-width="1"></path></svg>