<svg viewBox="0 0 24 24" xmlns="http://www.w3.org/2000/svg" id="Chef-Gear-Hat-1--Streamline-Ultimate"><desc>Chef Gear Hat 1 Streamline Icon: https://streamlinehq.com</desc><path d="M3.75 12.75h16.5l0 0v8a1 1 0 0 1 -1 1H4.75a1 1 0 0 1 -1 -1v-8l0 0Z" fill="none" stroke="#000000" stroke-linecap="round" stroke-linejoin="round" stroke-width="1"></path><path d="M3.75 13.447a6 6 0 0 1 3 -11.2c4.5 0 5.25 4.5 9 4.5" fill="none" stroke="#000000" stroke-linecap="round" stroke-linejoin="round" stroke-width="1"></path><path d="M20.25 13.447a6 6 0 0 0 -3 -11.2c-2.54 0 -3.885 1.434 -5.25 2.683" fill="none" stroke="#000000" stroke-linecap="round" stroke-linejoin="round" stroke-width="1"></path><path d="m8.25 17.25 0 1.5" fill="none" stroke="#000000" stroke-linecap="round" stroke-linejoin="round" stroke-width="1"></path><path d="m12 17.25 0 1.5" fill="none" stroke="#000000" stroke-linecap="round" stroke-linejoin="round" stroke-width="1"></path><path d="m15.75 17.25 0 1.5" fill="none" stroke="#000000" stroke-linecap="round" stroke-linejoin="round" stroke-width="1"></path></svg>