<svg viewBox="0 0 24 24" xmlns="http://www.w3.org/2000/svg" id="Chef-Gear-Hat--Streamline-Ultimate"><desc>Chef Gear Hat Streamline Icon: https://streamlinehq.com</desc><path d="m5.25 23.25 13.5 0" fill="none" stroke="#000000" stroke-linecap="round" stroke-linejoin="round" stroke-width="1"></path><path d="M20.55 3.9a3.712 3.712 0 0 0 -3.49 0.777 5.224 5.224 0 0 0 -10.12 0A3.735 3.735 0 0 0 0.871 6.535 3.757 3.757 0 0 0 4.5 11.25a3.637 3.637 0 0 0 0.75 -0.108v7.608a1.5 1.5 0 0 0 1.5 1.5h10.5a1.5 1.5 0 0 0 1.5 -1.5v-7.608a3.647 3.647 0 0 0 0.75 0.108 3.751 3.751 0 0 0 1.05 -7.35Z" fill="none" stroke="#000000" stroke-linecap="round" stroke-linejoin="round" stroke-width="1"></path><path d="m9.75 20.25 0 -4.5" fill="none" stroke="#000000" stroke-linecap="round" stroke-linejoin="round" stroke-width="1"></path><path d="m14.25 20.25 0 -4.5" fill="none" stroke="#000000" stroke-linecap="round" stroke-linejoin="round" stroke-width="1"></path></svg>