<svg viewBox="0 0 24 24" xmlns="http://www.w3.org/2000/svg" id="Chef-Gear-Asian-Hat--Streamline-Ultimate"><desc>Chef Gear Asian Hat Streamline Icon: https://streamlinehq.com</desc><path d="m6.75 22.5 11.176 -11.176a0.75 0.75 0 0 1 1.233 0.267l3.331 8.882a1.5 1.5 0 0 1 -1.4 2.027H2.915a1.5 1.5 0 0 1 -1.4 -2.027l3.377 -9a0.751 0.751 0 0 1 1.171 -0.322L12.75 16.5" fill="none" stroke="#000000" stroke-linecap="round" stroke-linejoin="round" stroke-width="1"></path><path d="M20.217 14.411 12.75 22.5" fill="none" stroke="#000000" stroke-linecap="round" stroke-linejoin="round" stroke-width="1"></path><path d="M3.474 15.237 10.5 18.75" fill="none" stroke="#000000" stroke-linecap="round" stroke-linejoin="round" stroke-width="1"></path><path d="M17.805 11.445C17.094 7.028 14.547 1.5 12 1.5c-2.515 0 -5.03 5.353 -5.778 9.778" fill="none" stroke="#000000" stroke-linecap="round" stroke-linejoin="round" stroke-width="1"></path><path d="m12 6.75 0 9.15" fill="none" stroke="#000000" stroke-linecap="round" stroke-linejoin="round" stroke-width="1"></path></svg>