<svg viewBox="0 0 24 24" xmlns="http://www.w3.org/2000/svg" id="Chef-Gear-Apron--Streamline-Ultimate"><desc>Chef Gear Apron Streamline Icon: https://streamlinehq.com</desc><path d="M16.6 0.75h-0.85a1.5 1.5 0 0 0 -1.5 1.5V6a2.25 2.25 0 0 1 -4.5 0V2.25a1.5 1.5 0 0 0 -1.5 -1.5H7.4a3 3 0 0 0 -3 2.9L3.8 21.7a1.5 1.5 0 0 0 1.5 1.55h13.4a1.5 1.5 0 0 0 1.5 -1.55l-0.6 -18.05a3 3 0 0 0 -3 -2.9Z" fill="none" stroke="#000000" stroke-linecap="round" stroke-linejoin="round" stroke-width="1"></path><path d="M0.75 20.25v-1.5a3 3 0 0 1 3 -3H4" fill="none" stroke="#000000" stroke-linecap="round" stroke-linejoin="round" stroke-width="1"></path><path d="M23.25 20.25v-1.5a3 3 0 0 0 -3 -3H20" fill="none" stroke="#000000" stroke-linecap="round" stroke-linejoin="round" stroke-width="1"></path><path d="M15.675 14.25a0.75 0.75 0 0 1 0.735 0.9 4.5 4.5 0 0 1 -8.82 0 0.751 0.751 0 0 1 0.736 -0.9Z" fill="none" stroke="#000000" stroke-linecap="round" stroke-linejoin="round" stroke-width="1"></path></svg>