<svg viewBox="0 0 24 24" xmlns="http://www.w3.org/2000/svg" id="Chef-Gear-Pizza--Streamline-Ultimate"><desc>Chef Gear Pizza Streamline Icon: https://streamlinehq.com</desc><path d="M0.75 12a11.25 11.25 0 1 0 22.5 0 11.25 11.25 0 1 0 -22.5 0Z" fill="none" stroke="#000000" stroke-linecap="round" stroke-linejoin="round" stroke-width="1"></path><path d="M3.75 12a8.25 8.25 0 1 0 16.5 0 8.25 8.25 0 1 0 -16.5 0Z" fill="none" stroke="#000000" stroke-linecap="round" stroke-linejoin="round" stroke-width="1"></path><path d="M10.125 7.5A1.874 1.874 0 0 0 8.25 9.375s0 1.125 1.875 1.125S12 9.375 12 9.375A1.874 1.874 0 0 0 10.125 7.5Z" fill="none" stroke="#000000" stroke-linecap="round" stroke-linejoin="round" stroke-width="1"></path><path d="M13.875 13.5A1.874 1.874 0 0 0 12 15.375s0 1.125 1.875 1.125 1.875 -1.125 1.875 -1.125a1.874 1.874 0 0 0 -1.875 -1.875Z" fill="none" stroke="#000000" stroke-linecap="round" stroke-linejoin="round" stroke-width="1"></path><path d="m14.739 9.052 0.689 1.333 1.333 -0.688" fill="none" stroke="#000000" stroke-linecap="round" stroke-linejoin="round" stroke-width="1"></path><path d="m7.06 12.638 0.585 0.469" fill="none" stroke="#000000" stroke-linecap="round" stroke-linejoin="round" stroke-width="1"></path><path d="m9.054 15.645 -0.538 0.523" fill="none" stroke="#000000" stroke-linecap="round" stroke-linejoin="round" stroke-width="1"></path></svg>