<svg viewBox="0 0 24 24" xmlns="http://www.w3.org/2000/svg" id="Punishment-Prisoner-Ball--Streamline-Ultimate"><desc>Punishment Prisoner Ball Streamline Icon: https://streamlinehq.com</desc><path d="M1.875 3.625a2.625 2.625 0 1 0 5.25 0 2.625 2.625 0 1 0 -5.25 0Z" fill="none" stroke="#000000" stroke-linecap="round" stroke-linejoin="round" stroke-width="1"></path><path d="M2.25 20.5a2.25 2.25 0 0 0 4.5 0v-3.75a1.5 1.5 0 0 0 1.5 -1.5v-4.5a3 3 0 0 0 -3 -3h-1.5a3 3 0 0 0 -3 3v4.5a1.5 1.5 0 0 0 1.5 1.5Z" fill="none" stroke="#000000" stroke-linecap="round" stroke-linejoin="round" stroke-width="1"></path><path d="m0.75 10.75 7.5 0" fill="none" stroke="#000000" stroke-linecap="round" stroke-linejoin="round" stroke-width="1"></path><path d="m0.75 13.75 7.5 0" fill="none" stroke="#000000" stroke-linecap="round" stroke-linejoin="round" stroke-width="1"></path><path d="m2.25 16.75 4.5 0" fill="none" stroke="#000000" stroke-linecap="round" stroke-linejoin="round" stroke-width="1"></path><path d="M2.25 19.75H9a2.25 2.25 0 0 0 2.25 -2.25 2.25 2.25 0 0 1 2.25 -2.25h1.9" fill="none" stroke="#000000" stroke-linecap="round" stroke-linejoin="round" stroke-width="1"></path><path d="M14.25 12.25a4.5 4.5 0 1 0 9 0 4.5 4.5 0 1 0 -9 0Z" fill="none" stroke="#000000" stroke-linecap="round" stroke-linejoin="round" stroke-width="1"></path></svg>