<svg viewBox="0 0 24 24" xmlns="http://www.w3.org/2000/svg" id="Punishment-Prisoner-Transport--Streamline-Ultimate"><desc>Punishment Prisoner Transport Streamline Icon: https://streamlinehq.com</desc><path d="M18.75 19.75h1.5a3 3 0 0 0 3 -3V3.25a1.5 1.5 0 0 0 -1.5 -1.5h-15a1.5 1.5 0 0 0 -1.5 1.5v13.5a3 3 0 0 0 3 3h4.5" fill="none" stroke="#000000" stroke-linecap="round" stroke-linejoin="round" stroke-width="1"></path><path d="M12.75 19.75a3 3 0 1 0 6 0 3 3 0 1 0 -6 0Z" fill="none" stroke="#000000" stroke-linecap="round" stroke-linejoin="round" stroke-width="1"></path><path d="m0.75 15.25 4.5 0" fill="none" stroke="#000000" stroke-linecap="round" stroke-linejoin="round" stroke-width="1"></path><path d="m23.25 13.75 -18 0" fill="none" stroke="#000000" stroke-linecap="round" stroke-linejoin="round" stroke-width="1"></path><path d="m11.25 1.75 0 12" fill="none" stroke="#000000" stroke-linecap="round" stroke-linejoin="round" stroke-width="1"></path><path d="m17.25 1.75 0 12" fill="none" stroke="#000000" stroke-linecap="round" stroke-linejoin="round" stroke-width="1"></path><path d="m5.25 7.75 18 0" fill="none" stroke="#000000" stroke-linecap="round" stroke-linejoin="round" stroke-width="1"></path></svg>