<svg viewBox="0 0 24 24" xmlns="http://www.w3.org/2000/svg" id="Body-Care-Eye-Mask--Streamline-Ultimate"><desc>Body Care Eye Mask Streamline Icon: https://streamlinehq.com</desc><path d="M20.25 11.7c0 -3.3 -4.108 -4.95 -8.25 -4.95S3.75 8.4 3.75 11.7v3.042a8.508 8.508 0 0 0 8.507 8.508 7.993 7.993 0 0 0 7.993 -7.993Z" fill="none" stroke="#000000" stroke-linecap="round" stroke-linejoin="round" stroke-width="1"></path><path d="M6 12.75a2.25 2.25 0 1 0 4.5 0 2.25 2.25 0 1 0 -4.5 0Z" fill="none" stroke="#000000" stroke-linecap="round" stroke-linejoin="round" stroke-width="1"></path><path d="M13.5 12.75a2.25 2.25 0 1 0 4.5 0 2.25 2.25 0 1 0 -4.5 0Z" fill="none" stroke="#000000" stroke-linecap="round" stroke-linejoin="round" stroke-width="1"></path><path d="M10.5 18.75a3.355 3.355 0 0 0 3 0" fill="none" stroke="#000000" stroke-linecap="round" stroke-linejoin="round" stroke-width="1"></path><path d="M3.841 15.991A8.625 8.625 0 0 1 9.375 0.75c4.125 0 4.875 1.5 4.875 3a3.243 3.243 0 0 1 -3 3.018" fill="none" stroke="#000000" stroke-linecap="round" stroke-linejoin="round" stroke-width="1"></path><path d="M20.172 16.371a7.875 7.875 0 0 0 -4.8 -14.121h-1.504" fill="none" stroke="#000000" stroke-linecap="round" stroke-linejoin="round" stroke-width="1"></path></svg>