<svg viewBox="0 0 24 24" xmlns="http://www.w3.org/2000/svg" id="Bathroom-Robe-Female--Streamline-Ultimate"><desc>Bathroom Robe Female Streamline Icon: https://streamlinehq.com</desc><path d="m3.751 3.75 -3 12.75 3.508 1.528" fill="none" stroke="#000000" stroke-linecap="round" stroke-linejoin="round" stroke-width="1"></path><path d="M15.751 0.75q3.75 0 4.5 3l-3 7.5a25.535 25.535 0 0 1 3 11.25 37.483 37.483 0 0 1 -8.25 0.75 37.483 37.483 0 0 1 -8.25 -0.75 25.535 25.535 0 0 1 3 -11.25l-3 -7.5q0.75 -3 4.5 -3Z" fill="none" stroke="#000000" stroke-linecap="round" stroke-linejoin="round" stroke-width="1"></path><path d="m20.251 3.75 3 12.75 -3.508 1.528" fill="none" stroke="#000000" stroke-linecap="round" stroke-linejoin="round" stroke-width="1"></path><path d="m6.751 11.25 10.5 0" fill="none" stroke="#000000" stroke-linecap="round" stroke-linejoin="round" stroke-width="1"></path><path d="m14.251 23.201 0 -11.951 -6 -10.5" fill="none" stroke="#000000" stroke-linecap="round" stroke-linejoin="round" stroke-width="1"></path><path d="m15.751 0.75 -3.75 6.562" fill="none" stroke="#000000" stroke-linecap="round" stroke-linejoin="round" stroke-width="1"></path><path d="m9.751 11.25 0 4.5" fill="none" stroke="#000000" stroke-linecap="round" stroke-linejoin="round" stroke-width="1"></path></svg>