<svg viewBox="0 0 24 24" xmlns="http://www.w3.org/2000/svg" id="Bathroom-Shower-Person--Streamline-Ultimate"><desc>Bathroom Shower Person Streamline Icon: https://streamlinehq.com</desc><path d="M10.875 10.875a2.625 2.625 0 1 0 5.25 0 2.625 2.625 0 1 0 -5.25 0Z" fill="none" stroke="#000000" stroke-linecap="round" stroke-linejoin="round" stroke-width="1"></path><path d="M16.5 23.25V18.7c2.687 -0.3 6.75 -2.258 6.75 -8.2a1.5 1.5 0 0 0 -3 0c0 4.932 -3.754 5.238 -4.51 5.25H9a3 3 0 0 0 0 6h3a1.5 1.5 0 0 0 0 -3H9" fill="none" stroke="#000000" stroke-linecap="round" stroke-linejoin="round" stroke-width="1"></path><path d="m10.5 21.75 0 1.5" fill="none" stroke="#000000" stroke-linecap="round" stroke-linejoin="round" stroke-width="1"></path><path d="m0.75 0.75 1.5 0 1.402 1.402" fill="none" stroke="#000000" stroke-linecap="round" stroke-linejoin="round" stroke-width="1"></path><path d="M4.273 5.774A0.74 0.74 0 0 1 3.1 5.632 3 3 0 0 1 7.134 1.6a0.739 0.739 0 0 1 0.141 1.173Z" fill="none" stroke="#000000" stroke-linecap="round" stroke-linejoin="round" stroke-width="1"></path><path d="m8.575 4.68 1.116 0.62" fill="none" stroke="#000000" stroke-linecap="round" stroke-linejoin="round" stroke-width="1"></path><path d="m10.372 2.379 1.615 0.44" fill="none" stroke="#000000" stroke-linecap="round" stroke-linejoin="round" stroke-width="1"></path><path d="m14.59 3.529 1.615 0.441" fill="none" stroke="#000000" stroke-linecap="round" stroke-linejoin="round" stroke-width="1"></path><path d="m6.353 7.024 0.577 1.038" fill="none" stroke="#000000" stroke-linecap="round" stroke-linejoin="round" stroke-width="1"></path><path d="m4.008 8.743 0.44 1.615" fill="none" stroke="#000000" stroke-linecap="round" stroke-linejoin="round" stroke-width="1"></path><path d="m5.158 12.961 0.245 0.896" fill="none" stroke="#000000" stroke-linecap="round" stroke-linejoin="round" stroke-width="1"></path></svg>