<svg xmlns="http://www.w3.org/2000/svg" viewBox="0 0 24 24" id="Bathroom-Hair-Dryer--Streamline-Ultimate"><desc>Bathroom Hair Dryer Streamline Icon: https://streamlinehq.com</desc><g><path d="M0.75 10.13a1.5 1.5 0 0 0 1.08 1.44c2.7 0.77 9.88 2.68 14.67 2.68a6.75 6.75 0 0 0 0 -13.5c-4.79 0 -12 1.91 -14.67 2.68A1.5 1.5 0 0 0 0.75 4.87Z" fill="none" stroke="#000000" stroke-linecap="round" stroke-linejoin="round" stroke-width="1"></path><path d="m17.25 0.79 0 13.42" fill="none" stroke="#000000" stroke-linecap="round" stroke-linejoin="round" stroke-width="1"></path><path d="M16.5 14.25a26.68 26.68 0 0 1 -2.73 -0.16l-0.65 5.83a3 3 0 0 0 3 3.33h1.15a3 3 0 0 0 3 -3v-7.14a6.69 6.69 0 0 1 -3.77 1.14Z" fill="none" stroke="#000000" stroke-linecap="round" stroke-linejoin="round" stroke-width="1"></path><path d="m5.75 2.4 0 10.2" fill="none" stroke="#000000" stroke-linecap="round" stroke-linejoin="round" stroke-width="1"></path></g></svg>