<svg xmlns="http://www.w3.org/2000/svg" viewBox="0 0 24 24" id="Crop-Info-Biotech-1--Streamline-Ultimate"><desc>Crop Info Biotech 1 Streamline Icon: https://streamlinehq.com</desc><defs></defs><title>crop-info-biotech-1</title><path d="M10.234 7.359A4.952 4.952 0 0 0 12 10.6a4.952 4.952 0 0 0 1.766 -3.237A4.949 4.949 0 0 0 12 4.122a4.949 4.949 0 0 0 -1.766 3.237Z" fill="none" stroke="#000000" stroke-linecap="round" stroke-linejoin="round" stroke-width="1"></path><path d="M10.742 9.508A5.752 5.752 0 0 1 12 13.526a5.752 5.752 0 0 1 -4.018 -1.258 5.747 5.747 0 0 1 -1.257 -4.017 5.746 5.746 0 0 1 4.017 1.257Z" fill="none" stroke="#000000" stroke-linecap="round" stroke-linejoin="round" stroke-width="1"></path><path d="M13.258 9.508A5.752 5.752 0 0 0 12 13.526a5.752 5.752 0 0 0 4.018 -1.258 5.747 5.747 0 0 0 1.257 -4.017 5.746 5.746 0 0 0 -4.017 1.257Z" fill="none" stroke="#000000" stroke-linecap="round" stroke-linejoin="round" stroke-width="1"></path><path d="M10.742 14.805A5.752 5.752 0 0 1 12 18.823a5.752 5.752 0 0 1 -4.018 -1.258 5.749 5.749 0 0 1 -1.257 -4.018 5.749 5.749 0 0 1 4.017 1.258Z" fill="none" stroke="#000000" stroke-linecap="round" stroke-linejoin="round" stroke-width="1"></path><path d="M13.258 14.805A5.752 5.752 0 0 0 12 18.823a5.752 5.752 0 0 0 4.018 -1.258 5.749 5.749 0 0 0 1.257 -4.018 5.749 5.749 0 0 0 -4.017 1.258Z" fill="none" stroke="#000000" stroke-linecap="round" stroke-linejoin="round" stroke-width="1"></path><path d="M12 18.823 12 20" fill="none" stroke="#000000" stroke-linecap="round" stroke-linejoin="round" stroke-width="1"></path><path d="M12 23A11 11 0 0 1 2.847 5.9" fill="none" stroke="#000000" stroke-linecap="round" stroke-linejoin="round" stroke-width="1"></path><path d="M5.318 3.262A10.974 10.974 0 0 1 7.73 1.86" fill="none" stroke="#000000" stroke-linecap="round" stroke-linejoin="round" stroke-width="1"></path><path d="M12 1a11 11 0 0 1 9.153 17.1" fill="none" stroke="#000000" stroke-linecap="round" stroke-linejoin="round" stroke-width="1"></path><path d="M18.683 20.738a11 11 0 0 1 -2.413 1.4" fill="none" stroke="#000000" stroke-linecap="round" stroke-linejoin="round" stroke-width="1"></path></svg>