<svg xmlns="http://www.w3.org/2000/svg" fill="none" viewBox="0 0 24 24" id="Crop-Monitoring-Biotech--Streamline-Ultimate"><desc>Crop Monitoring Biotech Streamline Icon: https://streamlinehq.com</desc><path stroke="#000000" stroke-linecap="round" stroke-linejoin="round" d="M5 5.411c0 2.03 2 3.675 2 3.675s2.005 -1.645 2.005 -3.675S7 1.736 7 1.736 5 3.382 5 5.411Z" stroke-width="1"></path><path stroke="#000000" stroke-linecap="round" stroke-linejoin="round" d="M5.57201 7.852c1.654 1.654 1.428 4.562 1.428 4.562s-2.908 0.226 -4.562 -1.428c-1.653996 -1.654 -1.428 -4.562 -1.428 -4.562s2.908 -0.224 4.562 1.428Z" stroke-width="1"></path><path stroke="#000000" stroke-linecap="round" stroke-linejoin="round" d="M8.428 7.852C6.774 9.506 7 12.414 7 12.414s2.908 0.226 4.562 -1.428c1.654 -1.654 1.428 -4.562 1.428 -4.562S10.082 6.2 8.428 7.852Z" stroke-width="1"></path><path stroke="#000000" stroke-linecap="round" stroke-linejoin="round" d="M5.57201 13.866c1.654 1.654 1.428 4.561 1.428 4.561s-2.908 0.226 -4.562 -1.427c-1.653996 -1.653 -1.428 -4.562 -1.428 -4.562s2.908 -0.226 4.562 1.428Z" stroke-width="1"></path><path stroke="#000000" stroke-linecap="round" stroke-linejoin="round" d="M10.55 12.816C6.614 13.455 7 18.427 7 18.427c0.31889 0.0179 0.63861 0.0142 0.957 -0.011" stroke-width="1"></path><path stroke="#000000" stroke-linecap="round" stroke-linejoin="round" d="M7 18.427v3.837" stroke-width="1"></path><path stroke="#000000" stroke-linecap="round" stroke-linejoin="round" d="M22.848 17.309c0.0984 0.1282 0.1518 0.2854 0.1518 0.447 0 0.1617 -0.0534 0.3188 -0.1518 0.447 -0.759 0.994 -2.843 3.3 -5.848 3.3s-5.09 -2.308 -5.848 -3.3c-0.0985 -0.1282 -0.1518 -0.2853 -0.1518 -0.447 0 -0.1616 0.0533 -0.3188 0.1518 -0.447 0.759 -0.994 2.843 -3.3 5.848 -3.3s5.09 2.305 5.848 3.3Z" stroke-width="1"></path><path stroke="#000000" d="M17 18.256c-0.2761 0 -0.5 -0.2239 -0.5 -0.5s0.2239 -0.5 0.5 -0.5" stroke-width="1"></path><path stroke="#000000" d="M17 18.256c0.2761 0 0.5 -0.2239 0.5 -0.5s-0.2239 -0.5 -0.5 -0.5" stroke-width="1"></path></svg>