<svg viewBox="0 0 24 24" xmlns="http://www.w3.org/2000/svg" id="Farming-Farmer--Streamline-Ultimate"><desc>Farming Farmer Streamline Icon: https://streamlinehq.com</desc><path d="M15.75 0.75v3a3 3 0 0 0 6 0v-3" fill="none" stroke="#000000" stroke-linecap="round" stroke-linejoin="round" stroke-width="1"></path><path d="m18.75 0.75 0 22.5" fill="none" stroke="#000000" stroke-linecap="round" stroke-linejoin="round" stroke-width="1"></path><path d="M4.5 3.75a3 3 0 1 0 6 0 3 3 0 1 0 -6 0Z" fill="none" stroke="#000000" stroke-linecap="round" stroke-linejoin="round" stroke-width="1"></path><path d="M5.25 21a2.25 2.25 0 0 0 4.5 0v-3.75a1.5 1.5 0 0 0 1.5 -1.5v-4.5a3 3 0 0 0 -3 -3h-1.5a3 3 0 0 0 -3 3v4.5a1.5 1.5 0 0 0 1.5 1.5Z" fill="none" stroke="#000000" stroke-linecap="round" stroke-linejoin="round" stroke-width="1"></path><path d="m2.25 3.75 10.5 0" fill="none" stroke="#000000" stroke-linecap="round" stroke-linejoin="round" stroke-width="1"></path></svg>