<svg viewBox="0 0 24 24" xmlns="http://www.w3.org/2000/svg" id="Farming-Scarecrow--Streamline-Ultimate"><desc>Farming Scarecrow Streamline Icon: https://streamlinehq.com</desc><path d="M13.5 5.25a3 3 0 0 1 -6 0v-1.5h6Z" fill="none" stroke="#000000" stroke-linecap="round" stroke-linejoin="round" stroke-width="1"></path><path d="M13.5 3.75h-6l0.466 -1.864A1.5 1.5 0 0 1 9.421 0.75h2.158a1.5 1.5 0 0 1 1.455 1.136Z" fill="none" stroke="#000000" stroke-linecap="round" stroke-linejoin="round" stroke-width="1"></path><path d="m5.25 3.75 10.5 0" fill="none" stroke="#000000" stroke-linecap="round" stroke-linejoin="round" stroke-width="1"></path><path d="M13.5 9.75h-6a1.5 1.5 0 0 0 -1.5 1.5v3h1.5v4.5h6v-4.5H15v-3a1.5 1.5 0 0 0 -1.5 -1.5Z" fill="none" stroke="#000000" stroke-linecap="round" stroke-linejoin="round" stroke-width="1"></path><path d="m6 11.25 -3.75 0" fill="none" stroke="#000000" stroke-linecap="round" stroke-linejoin="round" stroke-width="1"></path><path d="m15 11.25 3.75 0" fill="none" stroke="#000000" stroke-linecap="round" stroke-linejoin="round" stroke-width="1"></path><path d="m10.5 18.75 0 4.5" fill="none" stroke="#000000" stroke-linecap="round" stroke-linejoin="round" stroke-width="1"></path></svg>