<svg viewBox="0 0 24 24" xmlns="http://www.w3.org/2000/svg" id="Farming-Milk-Cow--Streamline-Ultimate"><desc>Farming Milk Cow Streamline Icon: https://streamlinehq.com</desc><path d="M1.39 1.124A11.265 11.265 0 0 0 4.5 5.76v6.221a1.7 1.7 0 0 0 3.337 0.439l1.127 -4.21A11.223 11.223 0 0 0 12 8.626a11.225 11.225 0 0 0 3.037 -0.416l1.127 4.21a1.7 1.7 0 0 0 3.336 -0.439V5.76a11.265 11.265 0 0 0 3.11 -4.634" fill="none" stroke="#000000" stroke-linecap="round" stroke-linejoin="round" stroke-width="1"></path><path d="m6 16.876 0 1.5" fill="none" stroke="#000000" stroke-linecap="round" stroke-linejoin="round" stroke-width="1"></path><path d="m6 21.376 0 1.5" fill="none" stroke="#000000" stroke-linecap="round" stroke-linejoin="round" stroke-width="1"></path><path d="m18 16.876 0 1.5" fill="none" stroke="#000000" stroke-linecap="round" stroke-linejoin="round" stroke-width="1"></path><path d="m18 21.376 0 1.5" fill="none" stroke="#000000" stroke-linecap="round" stroke-linejoin="round" stroke-width="1"></path></svg>