<svg xmlns="http://www.w3.org/2000/svg" viewBox="0 0 24 24" id="Farming-Grow-Crops--Streamline-Ultimate"><desc>Farming Grow Crops Streamline Icon: https://streamlinehq.com</desc><g><g><path d="M15 12.33a4.62 4.62 0 0 0 3.75 -1.49 5.51 5.51 0 0 0 4.5 1.5" fill="none" stroke="#000000" stroke-linecap="round" stroke-linejoin="round" stroke-width="1"></path><path d="M0.75 12.34a5.51 5.51 0 0 0 4.5 -1.5A4.62 4.62 0 0 0 9 12.33" fill="none" stroke="#000000" stroke-linecap="round" stroke-linejoin="round" stroke-width="1"></path></g><path d="M12.61 7.64s1.33 2 3.06 1.61c3.51 -0.79 2.65 -5.49 3.73 -7.33a7.86 7.86 0 0 0 -7.06 1c-1.7 1.28 -1.6 3.08 0.27 4.72Z" fill="none" stroke="#000000" stroke-linecap="round" stroke-linejoin="round" stroke-width="1"></path><path d="M15 4.84s-3.75 3.75 -3 11.25" fill="none" stroke="#000000" stroke-linecap="round" stroke-linejoin="round" stroke-width="1"></path><path d="m13.5 18.34 4.11 3.6a3 3 0 0 0 3.85 0.08l1.79 -1.43 -1.79 -1.43a3 3 0 0 0 -3.85 0.08l-4.11 3.6" fill="none" stroke="#000000" stroke-linecap="round" stroke-linejoin="round" stroke-width="1"></path><path d="m0.75 16.09 4.11 3.6a3 3 0 0 0 3.85 0.08l1.79 -1.43 -1.79 -1.43a3 3 0 0 0 -3.85 0.09L0.75 20.59" fill="none" stroke="#000000" stroke-linecap="round" stroke-linejoin="round" stroke-width="1"></path></g></svg>