<svg viewBox="0 0 24 24" xmlns="http://www.w3.org/2000/svg" id="Farming-Farmer-Crops--Streamline-Ultimate"><desc>Farming Farmer Crops Streamline Icon: https://streamlinehq.com</desc><path d="M10.125 3.75a3 3 0 1 0 6 0 3 3 0 1 0 -6 0Z" fill="none" stroke="#000000" stroke-linecap="round" stroke-linejoin="round" stroke-width="1"></path><path d="M20.625 0.75a1.5 1.5 0 0 1 0 3v0.95" fill="none" stroke="#000000" stroke-linecap="round" stroke-linejoin="round" stroke-width="1"></path><path d="M4.145 14s-3.02 -1.25 -3.02 -4.25" fill="none" stroke="#000000" stroke-linecap="round" stroke-linejoin="round" stroke-width="1"></path><path d="M4.6 12.309A20.489 20.489 0 0 1 3.375 6.75" fill="none" stroke="#000000" stroke-linecap="round" stroke-linejoin="round" stroke-width="1"></path><path d="m7.875 3.75 10.5 0" fill="none" stroke="#000000" stroke-linecap="round" stroke-linejoin="round" stroke-width="1"></path><path d="M22.313 4.829a1.5 1.5 0 0 0 -2.11 0.234 8.444 8.444 0 0 1 -6.63 3.187h-3.448C8.389 8.25 4.9 9.453 4.146 14a1.5 1.5 0 0 0 1.233 1.73 1.379 1.379 0 0 0 0.247 0.02A1.5 1.5 0 0 0 7.1 14.5c0.5 -2.975 2.558 -3.227 3.021 -3.245V16.5l-1.367 4.64a1.5 1.5 0 1 0 2.746 1.219l1.629 -3.609 1.629 3.609A1.5 1.5 0 1 0 17.5 21.14l-1.375 -4.64v-5.533a11.434 11.434 0 0 0 6.422 -4.029 1.5 1.5 0 0 0 -0.234 -2.109Z" fill="none" stroke="#000000" stroke-linecap="round" stroke-linejoin="round" stroke-width="1"></path></svg>