<svg viewBox="0 0 24 24" xmlns="http://www.w3.org/2000/svg" id="Farming-Hay--Streamline-Ultimate"><desc>Farming Hay Streamline Icon: https://streamlinehq.com</desc><path d="M1.5 8.597a6.75 6.75 0 1 0 13.5 0 6.75 6.75 0 1 0 -13.5 0Z" fill="none" stroke="#000000" stroke-linecap="round" stroke-linejoin="round" stroke-width="1"></path><path d="M10.11 11.82a3.788 3.788 0 0 0 1.19 -1.005" fill="none" stroke="#000000" stroke-linecap="round" stroke-linejoin="round" stroke-width="1"></path><path d="M5.762 11.361a3.752 3.752 0 0 0 1.321 0.827" fill="none" stroke="#000000" stroke-linecap="round" stroke-linejoin="round" stroke-width="1"></path><path d="M4.85 7.084A3.716 3.716 0 0 0 4.474 8.6" fill="none" stroke="#000000" stroke-linecap="round" stroke-linejoin="round" stroke-width="1"></path><path d="M8.639 4.894a3.723 3.723 0 0 0 -1.555 0.113" fill="none" stroke="#000000" stroke-linecap="round" stroke-linejoin="round" stroke-width="1"></path><path d="M11.892 7.823A3.733 3.733 0 0 0 11.3 6.38" fill="none" stroke="#000000" stroke-linecap="round" stroke-linejoin="round" stroke-width="1"></path><path d="M8.25 1.847H15a6.75 6.75 0 0 1 0 13.5H8.25" fill="none" stroke="#000000" stroke-linecap="round" stroke-linejoin="round" stroke-width="1"></path><path d="m0.75 15.347 22.5 0" fill="none" stroke="#000000" stroke-linecap="round" stroke-linejoin="round" stroke-width="1"></path><path d="m0.75 19.1 1.607 2.636a0.75 0.75 0 0 0 1.286 0L5.25 19.1" fill="none" stroke="#000000" stroke-linecap="round" stroke-linejoin="round" stroke-width="1"></path><path d="m9.75 19.1 1.607 2.636a0.75 0.75 0 0 0 1.286 0L14.25 19.1" fill="none" stroke="#000000" stroke-linecap="round" stroke-linejoin="round" stroke-width="1"></path><path d="m18.75 19.1 1.607 2.636a0.75 0.75 0 0 0 1.286 0L23.25 19.1" fill="none" stroke="#000000" stroke-linecap="round" stroke-linejoin="round" stroke-width="1"></path></svg>