<svg xmlns="http://www.w3.org/2000/svg" fill="none" viewBox="0 0 24 24" id="Harvest-Farmer-Technology-3--Streamline-Ultimate"><desc>Harvest Farmer Technology 3 Streamline Icon: https://streamlinehq.com</desc><path stroke="#000000" stroke-linecap="round" stroke-linejoin="round" d="M21.5 5.429c0 -0.39783 -0.158 -0.77936 -0.4393 -1.06066C20.7794 4.08703 20.3978 3.929 20 3.929h-1.488c-0.6261 0.01675 -1.2485 -0.10149 -1.8248 -0.34668 -0.5763 -0.2452 -1.0931 -0.61161 -1.5152 -1.07432 -0.4225 -0.49469 -0.9471 -0.89191 -1.5379 -1.16428 -0.5908 -0.27236 -1.2336 -0.413407 -1.8841 -0.413407 -0.6505 0 -1.2933 0.141047 -1.88409 0.413407 -0.59077 0.27237 -1.11545 0.66959 -1.53791 1.16428 -0.42207 0.46276 -0.93884 0.8292 -1.51518 1.07441 -0.57633 0.2452 -1.19872 0.36341 -1.82482 0.34659H3.5c-0.39782 0 -0.77936 0.15803 -1.06066 0.43934C2.15804 4.64964 2 5.03117 2 5.429c0 0.39782 0.15804 0.77936 0.43934 1.06066 0.2813 0.2813 0.66284 0.43934 1.06066 0.43934h1.488c0.62621 -0.01689 1.2487 0.10138 1.82507 0.34677 0.57637 0.24539 1.09308 0.61213 1.51493 1.07523 0.42246 0.49469 0.94714 0.89191 1.53791 1.16428 0.59079 0.27236 1.23359 0.41341 1.88409 0.41341 0.6505 0 1.2933 -0.14105 1.8841 -0.41341 0.5908 -0.27237 1.1154 -0.66959 1.5379 -1.16428 0.4219 -0.463 0.9387 -0.82966 1.515 -1.07504 0.5764 -0.24538 1.1988 -0.36372 1.825 -0.34696H20c0.3978 0 0.7794 -0.15804 1.0607 -0.43934S21.5 5.82682 21.5 5.429Z" stroke-width="1"></path><path stroke="#000000" stroke-linecap="round" stroke-linejoin="round" d="M2 0.929001h3" stroke-width="1"></path><path stroke="#000000" stroke-linecap="round" stroke-linejoin="round" d="M18.5 0.929001h3" stroke-width="1"></path><path stroke="#000000" stroke-linecap="round" stroke-linejoin="round" d="M16.32 7.446c1.7475 1.22549 2.9855 3.0487 3.48 5.125" stroke-width="1"></path><path stroke="#000000" stroke-linecap="round" stroke-linejoin="round" d="M7.18 7.446c-1.74723 1.22575 -2.98516 3.0488 -3.48 5.125" stroke-width="1"></path><path stroke="#000000" d="M9.25 17.071c-0.13807 0 -0.25 -0.1119 -0.25 -0.25s0.11193 -0.25 0.25 -0.25" stroke-width="1"></path><path stroke="#000000" d="M9.25 17.071c0.13807 0 0.25 -0.1119 0.25 -0.25s-0.11193 -0.25 -0.25 -0.25" stroke-width="1"></path><path stroke="#000000" d="M10.75 13.071c-0.1381 0 -0.25 -0.1119 -0.25 -0.25s0.1119 -0.25 0.25 -0.25" stroke-width="1"></path><path stroke="#000000" d="M10.75 13.071c0.1381 0 0.25 -0.1119 0.25 -0.25s-0.1119 -0.25 -0.25 -0.25" stroke-width="1"></path><path stroke="#000000" d="M14.75 15.071c-0.1381 0 -0.25 -0.1119 -0.25 -0.25s0.1119 -0.25 0.25 -0.25" stroke-width="1"></path><path stroke="#000000" d="M14.75 15.071c0.1381 0 0.25 -0.1119 0.25 -0.25s-0.1119 -0.25 -0.25 -0.25" stroke-width="1"></path><path stroke="#000000" stroke-linecap="round" stroke-linejoin="round" d="m5 19.071 -4 4h22l-4 -4" stroke-width="1"></path><path stroke="#000000" stroke-linecap="round" stroke-linejoin="round" d="M12 19.071v4" stroke-width="1"></path></svg>