<svg xmlns="http://www.w3.org/2000/svg" viewBox="0 0 24 24" id="Locally-Grown-1--Streamline-Ultimate"><desc>Locally Grown 1 Streamline Icon: https://streamlinehq.com</desc><defs></defs><title>locally-grown-1</title><path d="M21 9.8c0 7.9 -6.932 12.331 -8.629 13.3a0.751 0.751 0 0 1 -0.743 0C9.931 22.132 3 17.7 3 9.8a9 9 0 0 1 18 0Z" fill="none" stroke="#000000" stroke-linecap="round" stroke-linejoin="round" stroke-width="1"></path><path d="M10.036 8.4C10.036 10.39 12 12 12 12s1.964 -1.612 1.964 -3.6S12 4.8 12 4.8s-1.964 1.614 -1.964 3.6Z" fill="none" stroke="#000000" stroke-linecap="round" stroke-linejoin="round" stroke-width="1"></path><path d="M10.6 10.793c1.62 1.62 1.4 4.468 1.4 4.468s-2.848 0.221 -4.468 -1.4 -1.4 -4.468 -1.4 -4.468 2.849 -0.22 4.468 1.4Z" fill="none" stroke="#000000" stroke-linecap="round" stroke-linejoin="round" stroke-width="1"></path><path d="M13.4 10.793c-1.62 1.62 -1.4 4.468 -1.4 4.468s2.848 0.221 4.468 -1.4 1.4 -4.468 1.4 -4.468 -2.849 -0.22 -4.468 1.4Z" fill="none" stroke="#000000" stroke-linecap="round" stroke-linejoin="round" stroke-width="1"></path><path d="m12 15.261 0 1.541" fill="none" stroke="#000000" stroke-linecap="round" stroke-linejoin="round" stroke-width="1"></path></svg>