<svg xmlns="http://www.w3.org/2000/svg" viewBox="0 0 24 24" id="Locally-Grown-2--Streamline-Ultimate"><desc>Locally Grown 2 Streamline Icon: https://streamlinehq.com</desc><defs></defs><title>locally-grown-2</title><path d="m6.226 17.477 -2.055 -0.857C1.9 15.674 0.058 13.067 1 10.8l2.824 0.856a4.454 4.454 0 0 1 2.402 5.821Z" fill="none" stroke="#000000" stroke-linecap="round" stroke-linejoin="round" stroke-width="1"></path><path d="m6.913 17.477 2.056 -0.857c2.27 -0.946 4.113 -3.553 3.167 -5.823l-2.825 0.856a4.455 4.455 0 0 0 -2.398 5.824Z" fill="none" stroke="#000000" stroke-linecap="round" stroke-linejoin="round" stroke-width="1"></path><path d="m6.226 12.467 -2.055 -0.856C1.9 10.665 0.058 8.058 1 5.788l2.824 0.856a4.453 4.453 0 0 1 2.402 5.823Z" fill="none" stroke="#000000" stroke-linecap="round" stroke-linejoin="round" stroke-width="1"></path><path d="m6.913 12.467 2.056 -0.856c2.27 -0.946 4.113 -3.553 3.167 -5.823l-2.825 0.856a4.454 4.454 0 0 0 -2.398 5.823Z" fill="none" stroke="#000000" stroke-linecap="round" stroke-linejoin="round" stroke-width="1"></path><path d="m6.57 8.571 0 11.689" fill="none" stroke="#000000" stroke-linecap="round" stroke-linejoin="round" stroke-width="1"></path><path d="M8.8 4.674c0 1.537 -2.226 3.9 -2.226 3.9s-2.227 -2.36 -2.227 -3.9S6.57 0.778 6.57 0.778 8.8 3.137 8.8 4.674Z" fill="none" stroke="#000000" stroke-linecap="round" stroke-linejoin="round" stroke-width="1"></path><path d="M11.355 18.568h11.378v4.654H11.355Z" fill="none" stroke="#000000" stroke-linecap="round" stroke-linejoin="round" stroke-width="1"></path><path d="m12.39 17.477 0 1.091" fill="none" stroke="#000000" stroke-linecap="round" stroke-linejoin="round" stroke-width="1"></path><path d="m21.699 15.392 0 3.176" fill="none" stroke="#000000" stroke-linecap="round" stroke-linejoin="round" stroke-width="1"></path><path d="M14.076 15.1a2.068 2.068 0 0 0 0.9 -1.707 2.069 2.069 0 1 0 4.138 0 2.069 2.069 0 1 0 4.137 0l-1.034 -3.1h-7.242" fill="none" stroke="#000000" stroke-linecap="round" stroke-linejoin="round" stroke-width="1"></path></svg>