<svg xmlns="http://www.w3.org/2000/svg" viewBox="0 0 24 24" id="Range-Pig-2--Streamline-Ultimate"><desc>Range Pig 2 Streamline Icon: https://streamlinehq.com</desc><defs></defs><title>range-pig-2</title><path d="M18.366 6.86a3.473 3.473 0 0 0 0.789 -0.544c1 -1 0.867 -4.49 0.867 -4.49s-3.49 -0.133 -4.49 0.867a2.93 2.93 0 0 0 -0.448 0.609" fill="none" stroke="#000000" stroke-linecap="round" stroke-linejoin="round" stroke-width="1"></path><path d="M5.634 6.859a3.468 3.468 0 0 1 -0.789 -0.543c-1 -1 -0.867 -4.49 -0.867 -4.49s3.49 -0.133 4.49 0.867a2.975 2.975 0 0 1 0.451 0.608" fill="none" stroke="#000000" stroke-linecap="round" stroke-linejoin="round" stroke-width="1"></path><path d="M8.346 14.06a6.128 6.128 0 0 1 -3.057 -5.225A6.484 6.484 0 0 1 12 2.607a6.484 6.484 0 0 1 6.711 6.228 6.127 6.127 0 0 1 -3.058 5.226" fill="none" stroke="#000000" stroke-linecap="round" stroke-linejoin="round" stroke-width="1"></path><path d="M7.971 12.763a4.029 3.08 0 1 0 8.058 0 4.029 3.08 0 1 0 -8.058 0" fill="none" stroke="#000000" stroke-linecap="round" stroke-linejoin="round" stroke-width="1"></path><path d="m9.47 6.796 0 0.559" fill="none" stroke="#000000" stroke-linecap="round" stroke-linejoin="round" stroke-width="1"></path><path d="m14.503 6.796 0 0.559" fill="none" stroke="#000000" stroke-linecap="round" stroke-linejoin="round" stroke-width="1"></path><path d="m10.83 12.483 0 0.56" fill="none" stroke="#000000" stroke-linecap="round" stroke-linejoin="round" stroke-width="1"></path><path d="m13.17 12.483 0 0.56" fill="none" stroke="#000000" stroke-linecap="round" stroke-linejoin="round" stroke-width="1"></path><path d="m0.75 20.137 22.5 0" fill="none" stroke="#000000" stroke-linecap="round" stroke-linejoin="round" stroke-width="1"></path><path d="m2 18.094 0 4.086" fill="none" stroke="#000000" stroke-linecap="round" stroke-linejoin="round" stroke-width="1"></path><path d="m7 18.094 0 4.086" fill="none" stroke="#000000" stroke-linecap="round" stroke-linejoin="round" stroke-width="1"></path><path d="m12 18.094 0 4.086" fill="none" stroke="#000000" stroke-linecap="round" stroke-linejoin="round" stroke-width="1"></path><path d="m17 18.094 0 4.086" fill="none" stroke="#000000" stroke-linecap="round" stroke-linejoin="round" stroke-width="1"></path><path d="m22 18.094 0 4.086" fill="none" stroke="#000000" stroke-linecap="round" stroke-linejoin="round" stroke-width="1"></path></svg>