<svg xmlns="http://www.w3.org/2000/svg" viewBox="0 0 24 24" id="Range-Pig-1--Streamline-Ultimate"><desc>Range Pig 1 Streamline Icon: https://streamlinehq.com</desc><defs></defs><title>range-pig-1</title><path d="M15.611 13.6a3.472 3.472 0 0 0 0.788 -0.545c1 -1 0.868 -4.49 0.868 -4.49s-3.49 -0.133 -4.49 0.868a2.908 2.908 0 0 0 -0.449 0.609" fill="none" stroke="#000000" stroke-linecap="round" stroke-linejoin="round" stroke-width="1"></path><path d="M2.879 13.6a3.468 3.468 0 0 1 -0.789 -0.543c-1 -1 -0.867 -4.49 -0.867 -4.49s3.489 -0.133 4.49 0.868a2.928 2.928 0 0 1 0.45 0.607" fill="none" stroke="#000000" stroke-linecap="round" stroke-linejoin="round" stroke-width="1"></path><path d="M5.59 20.8a6.126 6.126 0 0 1 -3.056 -5.224 6.482 6.482 0 0 1 6.711 -6.228 6.483 6.483 0 0 1 6.711 6.228A6.128 6.128 0 0 1 12.9 20.8" fill="none" stroke="#000000" stroke-linecap="round" stroke-linejoin="round" stroke-width="1"></path><path d="M5.216 19.503a4.029 3.08 0 1 0 8.058 0 4.029 3.08 0 1 0 -8.058 0" fill="none" stroke="#000000" stroke-linecap="round" stroke-linejoin="round" stroke-width="1"></path><path d="m6.715 13.536 0 0.56" fill="none" stroke="#000000" stroke-linecap="round" stroke-linejoin="round" stroke-width="1"></path><path d="m11.748 13.536 0 0.56" fill="none" stroke="#000000" stroke-linecap="round" stroke-linejoin="round" stroke-width="1"></path><path d="m8.075 19.224 0 0.559" fill="none" stroke="#000000" stroke-linecap="round" stroke-linejoin="round" stroke-width="1"></path><path d="m10.414 19.224 0 0.559" fill="none" stroke="#000000" stroke-linecap="round" stroke-linejoin="round" stroke-width="1"></path><path d="m20.783 8.417 0 -4 -3 -3 -3 3 0 1.688" fill="none" stroke="#000000" stroke-linecap="round" stroke-linejoin="round" stroke-width="1"></path><path d="m19.777 8.417 3.006 0" fill="none" stroke="#000000" stroke-linecap="round" stroke-linejoin="round" stroke-width="1"></path></svg>