<svg xmlns="http://www.w3.org/2000/svg" viewBox="0 0 24 24" id="Food-Delivery-Talk-Fastfood-Comment--Streamline-Ultimate"><desc>Food Delivery Talk Fastfood Comment Streamline Icon: https://streamlinehq.com</desc><defs></defs><path d="M21.75 18.75h-10.5l-6 4.5v-4.5h-3a1.5 1.5 0 0 1 -1.5 -1.5v-15a1.5 1.5 0 0 1 1.5 -1.5h19.5a1.5 1.5 0 0 1 1.5 1.5v15a1.5 1.5 0 0 1 -1.5 1.5Z" fill="none" stroke="#000000" stroke-linecap="round" stroke-linejoin="round" stroke-width="1"></path><path d="M7 11.5h10.5v1.75a1.5 1.5 0 0 1 -1.5 1.5H8.5a1.5 1.5 0 0 1 -1.5 -1.5Z" fill="none" stroke="#000000" stroke-linecap="round" stroke-linejoin="round" stroke-width="1"></path><path d="M10 4.251h4.5a3 3 0 0 1 3 3V8.5H7V7.251a3 3 0 0 1 3 -3Z" fill="none" stroke="#000000" stroke-linecap="round" stroke-linejoin="round" stroke-width="1"></path><path d="M7 8.5h10.5A1.5 1.5 0 0 1 19 10h0a1.5 1.5 0 0 1 -1.5 1.5H7A1.5 1.5 0 0 1 5.5 10h0A1.5 1.5 0 0 1 7 8.5Z" fill="none" stroke="#000000" stroke-linecap="round" stroke-linejoin="round" stroke-width="1"></path></svg>