<svg xmlns="http://www.w3.org/2000/svg" fill="none" viewBox="0 0 24 24" id="Food-Delivery-Arrived--Streamline-Ultimate"><desc>Food Delivery Arrived Streamline Icon: https://streamlinehq.com</desc><path stroke="#000000" stroke-linecap="round" stroke-linejoin="round" d="M2.138 22.4609V2.28894c0 -0.39782 0.15804 -0.77936 0.43934 -1.06066 0.2813 -0.281304 0.66284 -0.43934 1.06066 -0.43934h12c0.3978 0 0.7794 0.158036 1.0607 0.43934 0.2813 0.2813 0.4393 0.66284 0.4393 1.06066v6.5" stroke-width="1"></path><path stroke="#000000" d="M5.888 10.1639c-0.20711 0 -0.375 -0.16785 -0.375 -0.37496 0 -0.20711 0.16789 -0.375 0.375 -0.375" stroke-width="1"></path><path stroke="#000000" d="M5.888 10.1639c0.20711 0 0.375 -0.16785 0.375 -0.37496 0 -0.20711 -0.16789 -0.375 -0.375 -0.375" stroke-width="1"></path><path stroke="#000000" d="M17.888 23.2109c-0.2071 0 -0.375 -0.1679 -0.375 -0.375s0.1679 -0.375 0.375 -0.375" stroke-width="1"></path><path stroke="#000000" d="M17.888 23.2109c0.2071 0 0.375 -0.1679 0.375 -0.375s-0.1679 -0.375 -0.375 -0.375" stroke-width="1"></path><path stroke="#000000" stroke-linecap="round" stroke-linejoin="round" d="M17.888 11.9611c0.9946 0 1.9484 0.395 2.6516 1.0983 0.7033 0.7033 1.0984 1.6571 1.0984 2.6517v3c0 0.3978 0.158 0.7793 0.4393 1.0606s0.6629 0.4394 1.0607 0.4394h-10.5c0.3978 0 0.7794 -0.1581 1.0607 -0.4394s0.4393 -0.6628 0.4393 -1.0606v-3c0 -0.9946 0.3951 -1.9484 1.0983 -2.6517 0.7033 -0.7033 1.6571 -1.0983 2.6517 -1.0983v0Z" stroke-width="1"></path><path stroke="#000000" stroke-linecap="round" stroke-linejoin="round" d="M0.862 22.4611h8.247" stroke-width="1"></path></svg>