<svg xmlns="http://www.w3.org/2000/svg" viewBox="0 0 24 24" id="Food-Delivery-Estimate-Time-Arrival--Streamline-Ultimate"><desc>Food Delivery Estimate Time Arrival Streamline Icon: https://streamlinehq.com</desc><defs></defs><path d="M15.75 20.25h-12l0 -1.242a4.006 4.006 0 0 1 4 -4.008h2.75a3.75 3.75 0 0 1 3.75 3.75 1.5 1.5 0 0 0 1.5 1.5H18V9.75a1.5 1.5 0 0 0 -1.5 -1.5H16" fill="none" stroke="#000000" stroke-linecap="round" stroke-linejoin="round" stroke-width="1"></path><path d="M21.75 21a2.25 2.25 0 0 1 -4.5 0v-0.75h4.5Z" fill="none" stroke="#000000" stroke-linecap="round" stroke-linejoin="round" stroke-width="1"></path><path d="M22.375 20.25a0.876 0.876 0 0 0 0.875 -0.877 0.914 0.914 0 0 0 -0.017 -0.173A5.35 5.35 0 0 0 18 15v5.25Z" fill="none" stroke="#000000" stroke-linecap="round" stroke-linejoin="round" stroke-width="1"></path><path d="M21.75 11.25a1.874 1.874 0 0 1 -1.875 1.875H18v-3.75h1.875a1.874 1.874 0 0 1 1.875 1.875Z" fill="none" stroke="#000000" stroke-linecap="round" stroke-linejoin="round" stroke-width="1"></path><path d="M0.75 6.25a5.5 5.5 0 1 0 11 0 5.5 5.5 0 1 0 -11 0" fill="none" stroke="#000000" stroke-linecap="round" stroke-linejoin="round" stroke-width="1"></path><path d="m3.598 6.25 2.652 0 0 -2.652" fill="none" stroke="#000000" stroke-linecap="round" stroke-linejoin="round" stroke-width="1"></path><path d="M6.888 20.25a2.227 2.227 0 0 0 -0.138 0.75 2.25 2.25 0 0 0 4.5 0 2.227 2.227 0 0 0 -0.138 -0.75Z" fill="none" stroke="#000000" stroke-linecap="round" stroke-linejoin="round" stroke-width="1"></path></svg>