<svg xmlns="http://www.w3.org/2000/svg" viewBox="0 0 24 24" id="Food-Delivery-Rider--Streamline-Ultimate"><desc>Food Delivery Rider Streamline Icon: https://streamlinehq.com</desc><defs></defs><path d="M12.041 16.384a5.033 5.033 0 0 0 -4.918 -3.14h-0.8a5.5 5.5 0 0 0 -5.4 4.123 1.5 1.5 0 0 0 1.451 1.877h10.5a4.5 4.5 0 0 0 4.5 -4.5v-7.5l-3 -2" fill="none" stroke="#000000" stroke-linecap="round" stroke-linejoin="round" stroke-width="1"></path><path d="M12.873 19.244h10.253v-0.5a4 4 0 0 0 -4 -4h-1.753" fill="none" stroke="#000000" stroke-linecap="round" stroke-linejoin="round" stroke-width="1"></path><path d="M21.353 10.244c0 0.622 -0.668 1.125 -1.492 1.125a1.836 1.836 0 0 1 -0.9 -0.225c-1.759 -0.994 -2.115 -2.874 -0.8 -4.2a3.677 3.677 0 0 1 0.8 -0.6 1.833 1.833 0 0 1 2.09 0.225 0.958 0.958 0 0 1 0.3 0.675Z" fill="none" stroke="#000000" stroke-linecap="round" stroke-linejoin="round" stroke-width="1"></path><path d="M21.353 20.256a3 3 0 1 1 -6 0v-1.012h6Z" fill="none" stroke="#000000" stroke-linecap="round" stroke-linejoin="round" stroke-width="1"></path><path d="M9.392 20.256a3 3 0 1 1 -6 0v-1.012h6Z" fill="none" stroke="#000000" stroke-linecap="round" stroke-linejoin="round" stroke-width="1"></path><path d="M0.876 3.369a2.25 2.625 0 1 0 4.5 0 2.25 2.625 0 1 0 -4.5 0" fill="none" stroke="#000000" stroke-linecap="round" stroke-linejoin="round" stroke-width="1"></path><path d="m3.126 5.994 0 4" fill="none" stroke="#000000" stroke-linecap="round" stroke-linejoin="round" stroke-width="1"></path><path d="m9.626 5.994 0 4" fill="none" stroke="#000000" stroke-linecap="round" stroke-linejoin="round" stroke-width="1"></path><path d="M8.126 0.744v3.75a1.5 1.5 0 0 0 1.5 1.5h0a1.5 1.5 0 0 0 1.5 -1.5V0.744" fill="none" stroke="#000000" stroke-linecap="round" stroke-linejoin="round" stroke-width="1"></path></svg>