<svg xmlns="http://www.w3.org/2000/svg" viewBox="0 0 24 24" id="Food-Delivery-Personal-Computer-Order--Streamline-Ultimate"><desc>Food Delivery Personal Computer Order Streamline Icon: https://streamlinehq.com</desc><defs></defs><path d="m7.5 23.224 9 0" fill="none" stroke="#000000" stroke-linecap="round" stroke-linejoin="round" stroke-width="1"></path><path d="M21.75 4.059a1.5 1.5 0 0 1 1.5 1.5v11.665a1.5 1.5 0 0 1 -1.5 1.5H2.25a1.5 1.5 0 0 1 -1.5 -1.5V5.559a1.5 1.5 0 0 1 1.5 -1.5" fill="none" stroke="#000000" stroke-linecap="round" stroke-linejoin="round" stroke-width="1"></path><path d="m12 23.224 0 -4.5" fill="none" stroke="#000000" stroke-linecap="round" stroke-linejoin="round" stroke-width="1"></path><path d="M4.551 4.19a2.705 3.44 0 1 0 5.41 0 2.705 3.44 0 1 0 -5.41 0" fill="none" stroke="#000000" stroke-linecap="round" stroke-linejoin="round" stroke-width="1"></path><path d="m7.256 7.631 0 7.615" fill="none" stroke="#000000" stroke-linecap="round" stroke-linejoin="round" stroke-width="1"></path><path d="m16.207 0.75 0 14.496" fill="none" stroke="#000000" stroke-linecap="round" stroke-linejoin="round" stroke-width="1"></path><path d="M12.964 0.75v4.643c0 1.236 1.452 2.238 3.243 2.238h0c1.791 0 3.242 -1 3.242 -2.238V0.75" fill="none" stroke="#000000" stroke-linecap="round" stroke-linejoin="round" stroke-width="1"></path></svg>