<svg xmlns="http://www.w3.org/2000/svg" viewBox="0 0 24 24" id="Food-Delivery-Order-Fastfood--Streamline-Ultimate"><desc>Food Delivery Order Fastfood Streamline Icon: https://streamlinehq.com</desc><defs></defs><path d="m22.805 23.25 0.12 -1.346a3.6 3.6 0 0 0 -2.8 -3.837l-3.437 -1.113V12.4a1.8 1.8 0 1 0 -3.6 0v9.05l-2.038 -1.531a1.837 1.837 0 0 0 -2.572 2.572l0.568 0.759" fill="none" stroke="#000000" stroke-linecap="round" stroke-linejoin="round" stroke-width="1"></path><path d="M18.16 5.092A4.423 4.423 0 0 0 13.66 0.75h-7.2a4.423 4.423 0 0 0 -4.5 4.342Z" fill="none" stroke="#000000" stroke-linecap="round" stroke-linejoin="round" stroke-width="1"></path><path d="M10.418 15.25H6.46a4.4 4.4 0 0 1 -4.5 -4.29h8.458" fill="none" stroke="#000000" stroke-linecap="round" stroke-linejoin="round" stroke-width="1"></path><path d="m1.06 8 18 0" fill="none" stroke="#000000" stroke-linecap="round" stroke-linejoin="round" stroke-width="1"></path></svg>