<svg xmlns="http://www.w3.org/2000/svg" viewBox="0 0 24 24" id="Food-Delivery-Restaurant-Choice--Streamline-Ultimate"><desc>Food Delivery Restaurant Choice Streamline Icon: https://streamlinehq.com</desc><defs></defs><path d="m5.25 17.25 -1.5 1.5 1.5 1.5" fill="none" stroke="#000000" stroke-linecap="round" stroke-linejoin="round" stroke-width="1"></path><path d="m3.75 18.75 3.75 0" fill="none" stroke="#000000" stroke-linecap="round" stroke-linejoin="round" stroke-width="1"></path><path d="m18.75 17.25 1.5 1.5 -1.5 1.5" fill="none" stroke="#000000" stroke-linecap="round" stroke-linejoin="round" stroke-width="1"></path><path d="m20.25 18.75 -3.75 0" fill="none" stroke="#000000" stroke-linecap="round" stroke-linejoin="round" stroke-width="1"></path><path d="M21.643 0.75H2.357A1.611 1.611 0 0 0 0.75 2.365h0v19.269a1.611 1.611 0 0 0 1.606 1.616h19.287a1.612 1.612 0 0 0 1.607 -1.616V2.365A1.611 1.611 0 0 0 21.643 0.75Z" fill="none" stroke="#000000" stroke-linecap="round" stroke-linejoin="round" stroke-width="1"></path><path d="M6.75 11.75a5.25 5.25 0 0 1 10.5 0V13H6.75Z" fill="none" stroke="#000000" stroke-linecap="round" stroke-linejoin="round" stroke-width="1"></path><path d="m5 13 14 0" fill="none" stroke="#000000" stroke-linecap="round" stroke-linejoin="round" stroke-width="1"></path><path d="m12 6.5 0 -1.765" fill="none" stroke="#000000" stroke-linecap="round" stroke-linejoin="round" stroke-width="1"></path></svg>