<svg xmlns="http://www.w3.org/2000/svg" fill="none" viewBox="0 0 24 24" id="F-Droid-Logo--Streamline-Ultimate"><desc>F Droid Logo Streamline Icon: https://streamlinehq.com</desc><path stroke="#000000" stroke-linecap="round" stroke-linejoin="round" d="M20.3 9.56982H3.71002c-0.55228 0 -1 0.44768 -1 0.99998v11.68c0 0.5523 0.44772 1 1 1H20.3c0.5523 0 1 -0.4477 1 -1v-11.68c0 -0.5523 -0.4477 -0.99998 -1 -0.99998Z" stroke-width="1"></path><path stroke="#000000" stroke-linecap="round" stroke-linejoin="round" d="M12 20.57c2.2975 0 4.16 -1.8625 4.16 -4.16 0 -2.2975 -1.8625 -4.16 -4.16 -4.16 -2.29748 0 -4.15997 1.8625 -4.15997 4.16 0 2.2975 1.86249 4.16 4.15997 4.16Z" stroke-width="1"></path><path stroke="#000000" stroke-linecap="round" stroke-linejoin="round" d="M10.79 15.1898c0.2398 -0.2375 0.5445 -0.3987 0.8758 -0.4633 0.3312 -0.0647 0.6742 -0.0298 0.9857 0.1001s0.5776 0.3491 0.7647 0.6299c0.1872 0.2809 0.2871 0.6108 0.2871 0.9483s-0.0999 0.6675 -0.2871 0.9483c-0.1871 0.2809 -0.4532 0.5001 -0.7647 0.63 -0.3115 0.1299 -0.6545 0.1647 -0.9857 0.1001 -0.3313 -0.0647 -0.636 -0.2259 -0.8758 -0.4634" stroke-width="1"></path><path stroke="#000000" d="M7.10999 6.63965c-0.27615 0 -0.5 -0.22386 -0.5 -0.5s0.22385 -0.5 0.5 -0.5" stroke-width="1"></path><path stroke="#000000" d="M7.10999 6.63965c0.27614 0 0.5 -0.22386 0.5 -0.5s-0.22386 -0.5 -0.5 -0.5" stroke-width="1"></path><path stroke="#000000" d="M16.89 6.64014c-0.2761 0 -0.5 -0.22386 -0.5 -0.5 0 -0.27615 0.2239 -0.5 0.5 -0.5" stroke-width="1"></path><path stroke="#000000" d="M16.89 6.64014c0.2762 0 0.5 -0.22386 0.5 -0.5 0 -0.27615 -0.2238 -0.5 -0.5 -0.5" stroke-width="1"></path><path stroke="#000000" stroke-linecap="round" stroke-linejoin="round" d="M20.3 2.70996H3.71002c-0.55228 0 -1 0.44772 -1 1v4.86c0 0.55229 0.44772 1 1 1H20.3c0.5523 0 1 -0.44771 1 -1v-4.86c0 -0.55228 -0.4477 -1 -1 -1Z" stroke-width="1"></path><path stroke="#000000" stroke-linecap="round" stroke-linejoin="round" d="m0.75 0.75 2.24 2.24" stroke-width="1"></path><path stroke="#000000" stroke-linecap="round" stroke-linejoin="round" d="m23.25 0.75 -2.24 2.24" stroke-width="1"></path></svg>