<svg xmlns="http://www.w3.org/2000/svg" viewBox="0 0 24 24" id="Google-Cloud-Logo--Streamline-Ultimate"><desc>Google Cloud Logo Streamline Icon: https://streamlinehq.com</desc><g><path d="M9 8.48a3.91 3.91 0 0 1 6 5h2.59a1.71 1.71 0 1 1 0 3.42H6.86a2.69 2.69 0 1 1 2.55 -3.56L12 10.8A6.12 6.12 0 0 0 0.75 14.2" fill="none" stroke="#000000" stroke-linecap="round" stroke-linejoin="round" stroke-width="1"></path><path d="M18.11 20.32a5.13 5.13 0 0 0 1.18 -10.13A7.33 7.33 0 0 0 5.18 8.33a6.11 6.11 0 0 0 1.68 12Z" fill="none" stroke="#000000" stroke-linecap="round" stroke-linejoin="round" stroke-width="1"></path><path d="m12 16.89 0 3.43" fill="none" stroke="#000000" stroke-linecap="round" stroke-linejoin="round" stroke-width="1"></path><path d="m14.62 8.12 2.43 -2.42" fill="none" stroke="#000000" stroke-linecap="round" stroke-linejoin="round" stroke-width="1"></path></g></svg>