<svg xmlns="http://www.w3.org/2000/svg" viewBox="0 0 24 24" id="Google-Fit-Logo--Streamline-Ultimate"><desc>Google Fit Logo Streamline Icon: https://streamlinehq.com</desc><g><path d="M12 5.1 9.11 8l-1 -1A1.92 1.92 0 0 0 5.4 7a1.9 1.9 0 0 0 -0.56 1.35 1.86 1.86 0 0 0 0.56 1.34l1 1 -2.9 2.89 -1 -1a6 6 0 0 1 0 -8.49 6 6 0 0 1 8.5 0.01Z" fill="none" stroke="#000000" stroke-miterlimit="10" stroke-width="1"></path><path d="M21.49 4.1a6 6 0 0 1 0 8.49l-1 1 -2.9 -2.89 1 -1a1.86 1.86 0 0 0 0.56 -1.35A1.9 1.9 0 0 0 18.6 7a1.92 1.92 0 0 0 -2.7 0L12 10.89 9.11 8 13 4.1a6 6 0 0 1 8.49 0Z" fill="none" stroke="#000000" stroke-miterlimit="10" stroke-width="1"></path><path d="m12 10.89 -5.59 5.59 -2.9 -2.89 2.9 -2.89L9.11 8 12 10.89z" fill="none" stroke="#000000" stroke-miterlimit="10" stroke-width="1"></path><path d="m20.49 13.59 -2.9 2.9 -2.7 2.7 -2.17 2.17a1 1 0 0 1 -1.44 0l-2.17 -2.17 -2.7 -2.7 2.89 -2.9 2.34 2.34a0.51 0.51 0 0 0 0.72 0l2.34 -2.34 2.89 -2.89Z" fill="none" stroke="#000000" stroke-miterlimit="10" stroke-width="1"></path></g></svg>