<svg xmlns="http://www.w3.org/2000/svg" viewBox="0 0 24 24" id="Home-Apps-Logo--Streamline-Ultimate"><desc>Home Apps Logo Streamline Icon: https://streamlinehq.com</desc><g><path d="M22.42 22.21a1 1 0 0 1 -1 1H2.62a1 1 0 0 1 -1 -1v-11a1 1 0 0 1 0.3 -0.73L11.3 1.1a1 1 0 0 1 1.48 0l9.38 9.38a1 1 0 0 1 0.3 0.73Z" fill="none" stroke="#000000" stroke-linecap="round" stroke-linejoin="round" stroke-width="1"></path><path d="m18.25 19.08 -12.5 0 0 -6.68L12 6.29l6.25 6.11 0 6.68z" fill="none" stroke="#000000" stroke-linecap="round" stroke-linejoin="round" stroke-width="1"></path><path d="M1.58 16.47 15.02 3.34" fill="none" stroke="#000000" stroke-linecap="round" stroke-linejoin="round" stroke-width="1"></path><path d="m5.75 19.08 0 4.17" fill="none" stroke="#000000" stroke-linecap="round" stroke-linejoin="round" stroke-width="1"></path><path d="m18.25 19.08 0 4.17" fill="none" stroke="#000000" stroke-linecap="round" stroke-linejoin="round" stroke-width="1"></path></g></svg>