<svg xmlns="http://www.w3.org/2000/svg" viewBox="0 0 24 24" id="Snapdragon-Logo--Streamline-Ultimate"><desc>Snapdragon Logo Streamline Icon: https://streamlinehq.com</desc><g><path d="M11.59 0.75h0.31a11.25 11.25 0 1 1 -3.46 22" fill="none" stroke="#000000" stroke-linecap="round" stroke-linejoin="round" stroke-width="1"></path><path d="M11.59 0.75C8.43 3 7.4 5.69 11.9 9.48c8.76 7.39 2.24 13.43 -3.46 13.23" fill="none" stroke="#000000" stroke-linecap="round" stroke-linejoin="round" stroke-width="1"></path><path d="M11.9 9.48C7.4 5.69 8.43 3 11.59 0.75 6.27 1.82 5.26 5.93 5.26 5.93a5.41 5.41 0 0 1 0.12 -3.1 11.31 11.31 0 0 0 -3.47 4c-1.62 4.46 2.16 6.1 4.35 7.31s4 2.26 2.56 6.18c-0.18 -1.19 -0.38 -2.33 -2 -2.74 -1.95 -0.52 -5 -1.64 -6 -3.42a11.3 11.3 0 0 0 7.59 8.56" fill="none" stroke="#000000" stroke-linecap="round" stroke-linejoin="round" stroke-width="1"></path></g></svg>