<svg viewBox="0 0 24 24" xmlns="http://www.w3.org/2000/svg" id="Ceiling-Lamp--Streamline-Ultimate"><desc>Ceiling Lamp Streamline Icon: https://streamlinehq.com</desc><path d="M15 8.071v-1.16a3.112 3.112 0 0 0 -2.5 -3.12A3 3 0 0 0 9 6.75v1.321a8.254 8.254 0 0 0 -5.213 6.889 0.744 0.744 0 0 0 0.753 0.79h14.92a0.744 0.744 0 0 0 0.753 -0.79A8.254 8.254 0 0 0 15 8.071Z" fill="none" stroke="#000000" stroke-linecap="round" stroke-linejoin="round" stroke-width="1"></path><path d="m12 0.75 0 3" fill="none" stroke="#000000" stroke-linecap="round" stroke-linejoin="round" stroke-width="1"></path><path d="M15 15.75a3 3 0 0 1 -6 0" fill="none" stroke="#000000" stroke-linecap="round" stroke-linejoin="round" stroke-width="1"></path><path d="m12 23.25 0 -1.5" fill="none" stroke="#000000" stroke-linecap="round" stroke-linejoin="round" stroke-width="1"></path><path d="m17.25 20.25 1.5 2.25" fill="none" stroke="#000000" stroke-linecap="round" stroke-linejoin="round" stroke-width="1"></path><path d="m6.75 20.25 -1.5 2.25" fill="none" stroke="#000000" stroke-linecap="round" stroke-linejoin="round" stroke-width="1"></path></svg>