<svg xmlns="http://www.w3.org/2000/svg" fill="none" viewBox="0 0 24 24" id="Ceiling-Ball-Chandelier-Retro-1--Streamline-Ultimate"><desc>Ceiling Ball Chandelier Retro 1 Streamline Icon: https://streamlinehq.com</desc><path stroke="#000000" stroke-linecap="round" stroke-linejoin="round" d="M2.25 8.78V14c0 0.3978 0.15804 0.7794 0.43934 1.0607S3.35218 15.5 3.75 15.5c0.39782 0 0.77936 -0.158 1.06066 -0.4393 0.2813 -0.2813 0.43934 -0.6629 0.43934 -1.0607V7.78l-3 1Z" stroke-width="1"></path><path stroke="#000000" stroke-linecap="round" stroke-linejoin="round" d="M18.75 8.78V14c0 0.3978 0.158 0.7794 0.4393 1.0607s0.6629 0.4393 1.0607 0.4393c0.3978 0 0.7794 -0.158 1.0607 -0.4393S21.75 14.3978 21.75 14V7.78l-3 1Z" stroke-width="1"></path><path stroke="#000000" stroke-linecap="round" stroke-linejoin="round" d="M12 15.22v4.56" stroke-width="1"></path><path stroke="#000000" stroke-linecap="round" stroke-linejoin="round" d="M6.75 16.54v2.49" stroke-width="1"></path><path stroke="#000000" stroke-linecap="round" stroke-linejoin="round" d="M17.25 16.54v2.49" stroke-width="1"></path><path stroke="#000000" stroke-linecap="round" stroke-linejoin="round" d="M4.90997 15c0.3335 0.581 0.82331 1.0567 1.41375 1.3731 0.59044 0.3165 1.25781 0.4609 1.92625 0.4169 0.49184 0.0025 0.9793 -0.0925 1.43416 -0.2796 0.45487 -0.1871 0.86817 -0.4625 1.21587 -0.8104 0.1419 -0.1488 0.3126 -0.2673 0.5017 -0.3483 0.1891 -0.081 0.3926 -0.1227 0.5983 -0.1227 0.2057 0 0.4092 0.0417 0.5983 0.1227 0.189 0.081 0.3597 0.1995 0.5017 0.3483 0.3477 0.3479 0.7609 0.6233 1.2158 0.8104 0.4549 0.1871 0.9423 0.2821 1.4342 0.2796 0.6684 0.044 1.3358 -0.1004 1.9262 -0.4169 0.5905 -0.3164 1.0803 -0.7921 1.4138 -1.3731" stroke-width="1"></path><path stroke="#000000" d="M11.995 23.16c-0.2071 0 -0.375 -0.1679 -0.375 -0.375s0.1679 -0.375 0.375 -0.375" stroke-width="1"></path><path stroke="#000000" d="M11.995 23.16c0.2071 0 0.375 -0.1679 0.375 -0.375s-0.1679 -0.375 -0.375 -0.375" stroke-width="1"></path><path stroke="#000000" d="M6.80646 22.405c-0.20711 0 -0.375 -0.1679 -0.375 -0.375s0.16789 -0.375 0.375 -0.375" stroke-width="1"></path><path stroke="#000000" d="M6.80646 22.405c0.2071 0 0.375 -0.1679 0.375 -0.375s-0.1679 -0.375 -0.375 -0.375" stroke-width="1"></path><path stroke="#000000" d="M17.1835 22.405c-0.2071 0 -0.375 -0.1679 -0.375 -0.375s0.1679 -0.375 0.375 -0.375" stroke-width="1"></path><path stroke="#000000" d="M17.1835 22.405c0.2071 0 0.375 -0.1679 0.375 -0.375s-0.1679 -0.375 -0.375 -0.375" stroke-width="1"></path><path stroke="#000000" stroke-linecap="round" stroke-linejoin="round" d="M5.25 4c0 0.39782 -0.15804 0.77936 -0.43934 1.06066C4.52936 5.34196 4.14782 5.5 3.75 5.5c-0.39782 0 -0.77936 -0.15804 -1.06066 -0.43934C2.40804 4.77936 2.25 4.39782 2.25 4c0 -0.82 1.5 -3 1.5 -3s1.5 2.21 1.5 3Z" stroke-width="1"></path><path stroke="#000000" stroke-linecap="round" stroke-linejoin="round" d="M0.75 12.53h6" stroke-width="1"></path><path stroke="#000000" stroke-linecap="round" stroke-linejoin="round" d="M21.75 4c0 0.39782 -0.158 0.77936 -0.4393 1.06066 -0.2813 0.2813 -0.6629 0.43934 -1.0607 0.43934 -0.3978 0 -0.7794 -0.15804 -1.0607 -0.43934S18.75 4.39782 18.75 4c0 -0.82 1.5 -3 1.5 -3s1.5 2.21 1.5 3Z" stroke-width="1"></path><path stroke="#000000" stroke-linecap="round" stroke-linejoin="round" d="M17.25 12.28h6" stroke-width="1"></path><path stroke="#000000" stroke-linecap="round" stroke-linejoin="round" d="M8.25 0.84h7.5" stroke-width="1"></path><path stroke="#000000" stroke-linecap="round" stroke-linejoin="round" d="M10 0.84v3.7c0 0.7222 -0.15636 1.43585 -0.45846 2.09183C9.23945 7.28781 8.79883 7.87057 8.25 8.34" stroke-width="1"></path><path stroke="#000000" stroke-linecap="round" stroke-linejoin="round" d="M14 0.84v3.7c0 0.7222 0.1564 1.43585 0.4585 2.09183 0.3021 0.65598 0.7427 1.23874 1.2915 1.70817" stroke-width="1"></path></svg>