<svg viewBox="0 0 24 24" xmlns="http://www.w3.org/2000/svg" id="Ceiling-Lamp-1--Streamline-Ultimate"><desc>Ceiling Lamp 1 Streamline Icon: https://streamlinehq.com</desc><path d="m0.75 0.75 22.5 0" fill="none" stroke="#000000" stroke-linecap="round" stroke-linejoin="round" stroke-width="1"></path><path d="m12 0.75 0 4.5" fill="none" stroke="#000000" stroke-linecap="round" stroke-linejoin="round" stroke-width="1"></path><path d="M15.75 8.25h-7.5v-1.5a1.5 1.5 0 0 1 1.5 -1.5h4.5a1.5 1.5 0 0 1 1.5 1.5Z" fill="none" stroke="#000000" stroke-linecap="round" stroke-linejoin="round" stroke-width="1"></path><path d="M17.823 17.25H6.177a1.5 1.5 0 0 1 -1.342 -2.171L8.25 8.25h7.5l3.415 6.829a1.5 1.5 0 0 1 -1.342 2.171Z" fill="none" stroke="#000000" stroke-linecap="round" stroke-linejoin="round" stroke-width="1"></path><path d="m12 20.25 0 3" fill="none" stroke="#000000" stroke-linecap="round" stroke-linejoin="round" stroke-width="1"></path><path d="m6.75 20.25 -1.5 3" fill="none" stroke="#000000" stroke-linecap="round" stroke-linejoin="round" stroke-width="1"></path><path d="m17.25 20.25 1.5 3" fill="none" stroke="#000000" stroke-linecap="round" stroke-linejoin="round" stroke-width="1"></path></svg>