<svg xmlns="http://www.w3.org/2000/svg" fill="none" viewBox="0 0 24 24" id="Wave-Forward-Circle--Streamline-Ultimate"><desc>Wave Forward Circle Streamline Icon: https://streamlinehq.com</desc><path stroke="#000000" stroke-linecap="round" stroke-linejoin="round" stroke-miterlimit="10" d="M12 22.75c5.9371 0 10.75 -4.813 10.75 -10.7501C22.75 6.06287 17.9371 1.25 12 1.25c-5.93707 0 -10.75002 4.81287 -10.75002 10.7499C1.24998 17.937 6.06293 22.75 12 22.75Z" stroke-width="1"></path><path stroke="#000000" stroke-linecap="round" stroke-linejoin="round" stroke-miterlimit="10" d="M14.0545 18.1634c1.1466 -1.72 1.9111 -3.9177 1.9111 -6.2111 0 -2.29331 -0.6689 -4.39553 -1.9111 -6.21109" stroke-width="1"></path><path stroke="#000000" stroke-linecap="round" stroke-linejoin="round" stroke-miterlimit="10" d="M10.9967 16.2526c0.86 -1.2423 1.3377 -2.6756 1.3377 -4.2045 0 -1.5289 -0.4777 -3.05768 -1.3377 -4.20435" stroke-width="1"></path><path stroke="#000000" stroke-linecap="round" stroke-linejoin="round" stroke-miterlimit="10" d="M7.93887 14.15c0.38223 -0.5733 0.66889 -1.3378 0.66889 -2.1023 0 -0.7644 -0.28666 -1.5288 -0.66889 -2.10214" stroke-width="1"></path></svg>