<svg viewBox="0 0 24 24" xmlns="http://www.w3.org/2000/svg" id="Wifi-Signal-1--Streamline-Ultimate"><desc>Wifi Signal 1 Streamline Icon: https://streamlinehq.com</desc><path d="M10.5 11.952a1.5 1.5 0 1 0 3 0 1.5 1.5 0 1 0 -3 0Z" fill="none" stroke="#000000" stroke-linecap="round" stroke-linejoin="round" stroke-width="1"></path><path d="M15.712 8.24a5.249 5.249 0 0 1 0 7.425" fill="none" stroke="#000000" stroke-linecap="round" stroke-linejoin="round" stroke-width="1"></path><path d="M8.288 15.665a5.249 5.249 0 0 1 0 -7.425" fill="none" stroke="#000000" stroke-linecap="round" stroke-linejoin="round" stroke-width="1"></path><path d="M17.834 6.119a8.251 8.251 0 0 1 0 11.667" fill="none" stroke="#000000" stroke-linecap="round" stroke-linejoin="round" stroke-width="1"></path><path d="M6.166 17.786a8.249 8.249 0 0 1 0 -11.667" fill="none" stroke="#000000" stroke-linecap="round" stroke-linejoin="round" stroke-width="1"></path><path d="M19.955 4a11.251 11.251 0 0 1 0 15.91" fill="none" stroke="#000000" stroke-linecap="round" stroke-linejoin="round" stroke-width="1"></path><path d="M4.045 19.907A11.251 11.251 0 0 1 4.045 4" fill="none" stroke="#000000" stroke-linecap="round" stroke-linejoin="round" stroke-width="1"></path></svg>