<svg viewBox="0 0 24 24" xmlns="http://www.w3.org/2000/svg" id="Beard-Style-Mustache--Streamline-Ultimate"><desc>Beard Style Mustache Streamline Icon: https://streamlinehq.com</desc><path d="M19.371 9.75c-1.353 -1.872 -1.821 -3 -4.067 -3A4.168 4.168 0 0 0 12 8.327 4.168 4.168 0 0 0 8.7 6.75c-2.246 0 -2.714 1.128 -4.067 3a2.753 2.753 0 0 1 -2.985 1.162 0.757 0.757 0 0 0 -0.853 1c0.781 2.326 3.448 3.838 6.278 3.838A5.634 5.634 0 0 0 12 13.53a5.634 5.634 0 0 0 4.931 2.22c2.83 0 5.5 -1.512 6.278 -3.838a0.757 0.757 0 0 0 -0.853 -1 2.753 2.753 0 0 1 -2.985 -1.162Z" fill="none" stroke="#000000" stroke-linecap="round" stroke-linejoin="round" stroke-width="1"></path></svg>