<svg xmlns="http://www.w3.org/2000/svg" fill="none" viewBox="0 0 24 24" id="Beard-Style-Shaving-Machine--Streamline-Ultimate"><desc>Beard Style Shaving Machine Streamline Icon: https://streamlinehq.com</desc><path stroke="#000000" stroke-linecap="round" stroke-linejoin="round" d="M17.479 8.25H6.521c-0.35465 0.00023 -0.69791 -0.1252 -0.96885 -0.35404C5.28121 7.66712 5.10011 7.34969 5.041 7L4.5 3.75h15L18.959 7c-0.0591 0.34969 -0.2402 0.66712 -0.5111 0.89596 -0.271 0.22884 -0.6143 0.35427 -0.9689 0.35404Z" stroke-width="1"></path><path stroke="#000000" stroke-linecap="round" stroke-linejoin="round" d="M4.5 3.75v-3" stroke-width="1"></path><path stroke="#000000" stroke-linecap="round" stroke-linejoin="round" d="M7.5 5.25098V0.750977" stroke-width="1"></path><path stroke="#000000" stroke-linecap="round" stroke-linejoin="round" d="M10.5 5.25098V0.750977" stroke-width="1"></path><path stroke="#000000" stroke-linecap="round" stroke-linejoin="round" d="M13.5 5.25098V0.750977" stroke-width="1"></path><path stroke="#000000" stroke-linecap="round" stroke-linejoin="round" d="M16.5 5.25098V0.750977" stroke-width="1"></path><path stroke="#000000" stroke-linecap="round" stroke-linejoin="round" d="M19.5 0.75v3" stroke-width="1"></path><path stroke="#000000" stroke-linecap="round" stroke-linejoin="round" d="M7.5 15.75h9" stroke-width="1"></path><path stroke="#000000" stroke-linecap="round" stroke-linejoin="round" d="M11.25 18.75h1.5" stroke-width="1"></path><path stroke="#000000" stroke-linecap="round" stroke-linejoin="round" d="M16.5 18.75c0 1.1935 -0.4741 2.3381 -1.318 3.182 -0.8439 0.8439 -1.9885 1.318 -3.182 1.318s-2.33807 -0.4741 -3.18198 -1.318C7.97411 21.0881 7.5 19.9435 7.5 18.75V10.5L9 8.25h6l1.5 2.25v8.25Z" stroke-width="1"></path><path stroke="#000000" d="M12 12.375c-0.2071 0 -0.375 -0.1679 -0.375 -0.375s0.1679 -0.375 0.375 -0.375" stroke-width="1"></path><path stroke="#000000" d="M12 12.375c0.2071 0 0.375 -0.1679 0.375 -0.375s-0.1679 -0.375 -0.375 -0.375" stroke-width="1"></path></svg>