<svg viewBox="0 0 24 24" xmlns="http://www.w3.org/2000/svg" id="Medical-Nanobot-Lungs--Streamline-Ultimate"><desc>Medical Nanobot Lungs Streamline Icon: https://streamlinehq.com</desc><path d="M21.08 7.251 17.33 9.5l-3.75 -2.25V3.6a1.5 1.5 0 0 1 0.728 -1.287l2.25 -1.35a1.5 1.5 0 0 1 1.544 0l2.25 1.35A1.5 1.5 0 0 1 21.08 3.6Z" fill="none" stroke="#000000" stroke-linecap="round" stroke-linejoin="round" stroke-width="1"></path><path d="m17.33 9.501 0 3" fill="none" stroke="#000000" stroke-linecap="round" stroke-linejoin="round" stroke-width="1"></path><path d="m13.58 7.251 -1 0.668A1.5 1.5 0 0 0 12.162 10l0.668 1" fill="none" stroke="#000000" stroke-linecap="round" stroke-linejoin="round" stroke-width="1"></path><path d="m21.08 7.251 1 0.668A1.5 1.5 0 0 1 22.5 10l-0.668 1" fill="none" stroke="#000000" stroke-linecap="round" stroke-linejoin="round" stroke-width="1"></path><path d="m16.58 5.001 1.5 0" fill="none" stroke="#000000" stroke-linecap="round" stroke-linejoin="round" stroke-width="1"></path><path d="m9.08 13.251 0 -7.5" fill="none" stroke="#000000" stroke-linecap="round" stroke-linejoin="round" stroke-width="1"></path><path d="m3.83 17.751 5.25 -4.5 5.25 4.5" fill="none" stroke="#000000" stroke-linecap="round" stroke-linejoin="round" stroke-width="1"></path><path d="M6.83 11.751a1.5 1.5 0 0 0 -1.5 -1.5 4.5 4.5 0 0 0 -4.5 4.5V20a3 3 0 0 0 6 0Z" fill="none" stroke="#000000" stroke-linecap="round" stroke-linejoin="round" stroke-width="1"></path><path d="M17.33 15.5V20a3 3 0 1 1 -6 0v-6.75" fill="none" stroke="#000000" stroke-linecap="round" stroke-linejoin="round" stroke-width="1"></path></svg>