<svg viewBox="0 0 24 24" xmlns="http://www.w3.org/2000/svg" id="Medical-Nanobot-Heart--Streamline-Ultimate"><desc>Medical Nanobot Heart Streamline Icon: https://streamlinehq.com</desc><path d="M21.08 7.251 17.33 9.5l-3.75 -2.25V3.6a1.5 1.5 0 0 1 0.728 -1.286l2.25 -1.35a1.5 1.5 0 0 1 1.544 0l2.25 1.35A1.5 1.5 0 0 1 21.08 3.6Z" fill="none" stroke="#000000" stroke-linecap="round" stroke-linejoin="round" stroke-width="1"></path><path d="m17.33 9.501 0 3" fill="none" stroke="#000000" stroke-linecap="round" stroke-linejoin="round" stroke-width="1"></path><path d="m13.58 7.251 -1 0.668A1.5 1.5 0 0 0 12.162 10l0.668 1" fill="none" stroke="#000000" stroke-linecap="round" stroke-linejoin="round" stroke-width="1"></path><path d="m21.08 7.251 1 0.668A1.5 1.5 0 0 1 22.5 10l-0.668 1" fill="none" stroke="#000000" stroke-linecap="round" stroke-linejoin="round" stroke-width="1"></path><path d="m16.58 5.001 1.5 0" fill="none" stroke="#000000" stroke-linecap="round" stroke-linejoin="round" stroke-width="1"></path><path d="M15.669 14.751a3.767 3.767 0 0 1 -0.947 1.581L8.33 23l-6.392 -6.668a3.781 3.781 0 0 1 -0.709 -4.365h0a3.782 3.782 0 0 1 6.057 -0.983l1.044 1.044 1.044 -1.044" fill="none" stroke="#000000" stroke-linecap="round" stroke-linejoin="round" stroke-width="1"></path></svg>