<svg viewBox="0 0 24 24" xmlns="http://www.w3.org/2000/svg" id="Medical-Nanobot-Pill--Streamline-Ultimate"><desc>Medical Nanobot Pill Streamline Icon: https://streamlinehq.com</desc><path d="M21 7.251 17.25 9.5 13.5 7.251V3.6a1.5 1.5 0 0 1 0.728 -1.287l2.25 -1.35a1.5 1.5 0 0 1 1.544 0l2.25 1.35A1.5 1.5 0 0 1 21 3.6Z" fill="none" stroke="#000000" stroke-linecap="round" stroke-linejoin="round" stroke-width="1"></path><path d="m17.25 9.501 0 3" fill="none" stroke="#000000" stroke-linecap="round" stroke-linejoin="round" stroke-width="1"></path><path d="m13.5 7.251 -1 0.668A1.5 1.5 0 0 0 12.082 10l0.668 1" fill="none" stroke="#000000" stroke-linecap="round" stroke-linejoin="round" stroke-width="1"></path><path d="m21 7.251 1 0.668A1.5 1.5 0 0 1 22.418 10l-0.668 1" fill="none" stroke="#000000" stroke-linecap="round" stroke-linejoin="round" stroke-width="1"></path><path d="m16.5 5.001 1.5 0" fill="none" stroke="#000000" stroke-linecap="round" stroke-linejoin="round" stroke-width="1"></path><path d="M17.266 14.646a4.895 4.895 0 0 1 -6.922 6.922l-8.16 -8.161a4.895 4.895 0 0 1 6.922 -6.922" fill="none" stroke="#000000" stroke-linecap="round" stroke-linejoin="round" stroke-width="1"></path><path d="m10.458 13.21 -4.236 4.236" fill="none" stroke="#000000" stroke-linecap="round" stroke-linejoin="round" stroke-width="1"></path><path d="m10.344 17.612 1.484 1.488a2.1 2.1 0 0 0 2.966 0h0" fill="none" stroke="#000000" stroke-linecap="round" stroke-linejoin="round" stroke-width="1"></path></svg>