<svg xmlns="http://www.w3.org/2000/svg" fill="none" viewBox="0 0 24 24" id="Fruit-Billberry-Blackberry-Blueberry--Streamline-Ultimate"><desc>Fruit Billberry Blackberry Blueberry Streamline Icon: https://streamlinehq.com</desc><path stroke="#000000" stroke-linecap="round" stroke-linejoin="round" d="M12.687 8.53895c0.0298 -0.24132 0.0449 -0.48423 0.045 -0.72738 0.001 -0.86594 -0.1898 -1.72135 -0.5586 -2.50484 -0.3688 -0.78348 -0.9064 -1.4756 -1.5744 -2.02666 -0.66797 -0.55107 -1.44966 -0.94741 -2.28895 -1.16058 -0.83929 -0.21317 -1.71536 -0.23789 -2.56534 -0.07236 -0.84997 0.16552 -1.65275 0.51717 -2.35072 1.02971 -0.69796 0.51254 -1.27379 1.17325 -1.68616 1.93469 -0.41237 0.76145 -0.65103 1.60475 -0.69887 2.46937 -0.047839 0.86462 0.09634 1.7291 0.42219 2.5314" stroke-width="1"></path><path stroke="#000000" d="M5.89223 6.10096c-0.26998 0 -0.48883 -0.21886 -0.48883 -0.48884 0 -0.26997 0.21885 -0.48883 0.48883 -0.48883" stroke-width="1"></path><path stroke="#000000" d="M5.89224 6.10096c0.26998 0 0.48883 -0.21886 0.48883 -0.48884 0 -0.26997 -0.21885 -0.48883 -0.48883 -0.48883" stroke-width="1"></path><path stroke="#000000" d="M6.86991 14.8998c-0.26998 0 -0.48884 -0.2189 -0.48884 -0.4888 0 -0.27 0.21886 -0.4889 0.48884 -0.4889" stroke-width="1"></path><path stroke="#000000" d="M6.8699 14.8998c0.26998 0 0.48883 -0.2189 0.48883 -0.4888 0 -0.27 -0.21885 -0.4889 -0.48883 -0.4889" stroke-width="1"></path><path stroke="#000000" d="M19.0907 14.8998c-0.27 0 -0.4888 -0.2189 -0.4888 -0.4888 0 -0.27 0.2188 -0.4889 0.4888 -0.4889" stroke-width="1"></path><path stroke="#000000" d="M19.0907 14.8998c0.27 0 0.4889 -0.2189 0.4889 -0.4888 0 -0.27 -0.2189 -0.4889 -0.4889 -0.4889" stroke-width="1"></path><path stroke="#000000" stroke-linecap="round" stroke-linejoin="round" d="M14.3226 21.0259c0.9056 0.4945 1.9256 0.7414 2.9571 0.7158 1.0314 -0.0257 2.0379 -0.3229 2.9178 -0.8617 0.8799 -0.5389 1.6021 -1.3003 2.0937 -2.2074 0.4917 -0.9071 0.7354 -1.9278 0.7065 -2.9592 -0.0289 -1.0314 -0.3293 -2.0369 -0.8709 -2.9151 -0.5416 -0.8782 -1.3052 -1.598 -2.2139 -2.0868 -0.9086 -0.4888 -1.9301 -0.72929 -2.9614 -0.6972 -1.0313 0.0321 -2.0359 0.3357 -2.9124 0.88" stroke-width="1"></path><path stroke="#000000" stroke-linecap="round" stroke-linejoin="round" d="M7.35873 22.2322c3.23967 0 5.86597 -2.6263 5.86597 -5.866 0 -3.2397 -2.6263 -5.866 -5.86597 -5.866 -3.2397 0 -5.86599 2.6263 -5.86599 5.866 0 3.2397 2.62629 5.866 5.86599 5.866Z" stroke-width="1"></path><path stroke="#000000" stroke-linecap="round" stroke-linejoin="round" d="M19.5395 5.85126c-1.4528 1.45575 -4.0661 1.19569 -4.0661 1.19569s-0.2572 -2.6133 1.1966 -4.06611c1.4538 -1.45281 4.0652 -1.19569 4.0652 -1.19569s0.262 2.61232 -1.1957 4.06611Z" stroke-width="1"></path></svg>