<svg xmlns="http://www.w3.org/2000/svg" fill="none" viewBox="0 0 24 24" id="Fruit-Pomegranate-Slice--Streamline-Ultimate"><desc>Fruit Pomegranate Slice Streamline Icon: https://streamlinehq.com</desc><path stroke="#000000" stroke-linecap="round" stroke-linejoin="round" d="M15.641 6.427c-0.1043 -0.04698 -0.1887 -0.12909 -0.2386 -0.23199 -0.0499 -0.1029 -0.0621 -0.22005 -0.0344 -0.33101l1.523 -4.136 -2.934 1.957L12 0.75l-1.957 2.935 -2.93401 -1.957 1.523 4.136c0.02788 0.11096 0.0158 0.2282 -0.03412 0.33114 -0.04992 0.10295 -0.13449 0.18503 -0.23888 0.23186 -1.8302 0.83178 -3.32043 2.26514 -4.22277 4.0616 -0.90233 1.7965 -1.16236 3.8477 -0.73683 5.8125 0.42554 1.9648 1.51098 3.7247 3.07574 4.9869C8.0399 22.5501 9.98964 23.2384 12 23.2384c2.0103 0 3.9601 -0.6883 5.5249 -1.9504 1.5647 -1.2622 2.6502 -3.0221 3.0757 -4.9869 0.4255 -1.9648 0.1655 -4.016 -0.7368 -5.8125 -0.9024 -1.79646 -2.3926 -3.22982 -4.2228 -4.0616v0Z" stroke-width="1"></path><path stroke="#000000" d="M9.298 10.719c-0.13807 0 -0.25 -0.1119 -0.25 -0.25s0.11193 -0.25 0.25 -0.25" stroke-width="1"></path><path stroke="#000000" d="M9.298 10.719c0.13808 0 0.25 -0.1119 0.25 -0.25s-0.11192 -0.25 -0.25 -0.25" stroke-width="1"></path><path stroke="#000000" d="M6.72099 14.75c-0.13807 0 -0.25 -0.1119 -0.25 -0.25s0.11193 -0.25 0.25 -0.25" stroke-width="1"></path><path stroke="#000000" d="M6.72099 14.75c0.13807 0 0.25 -0.1119 0.25 -0.25s-0.11193 -0.25 -0.25 -0.25" stroke-width="1"></path><path stroke="#000000" d="M9.298 19.0449c-0.13807 0 -0.25 -0.1119 -0.25 -0.25 0 -0.138 0.11193 -0.25 0.25 -0.25" stroke-width="1"></path><path stroke="#000000" d="M9.298 19.0449c0.13808 0 0.25 -0.1119 0.25 -0.25 0 -0.138 -0.11192 -0.25 -0.25 -0.25" stroke-width="1"></path><path stroke="#000000" d="M12 14.75c-0.1381 0 -0.25 -0.1119 -0.25 -0.25s0.1119 -0.25 0.25 -0.25" stroke-width="1"></path><path stroke="#000000" d="M12 14.75c0.1381 0 0.25 -0.1119 0.25 -0.25s-0.1119 -0.25 -0.25 -0.25" stroke-width="1"></path><path stroke="#000000" d="M14.611 10.469c-0.1381 0 -0.25 -0.1119 -0.25 -0.25s0.1119 -0.25001 0.25 -0.25001" stroke-width="1"></path><path stroke="#000000" d="M14.611 10.469c0.1381 0 0.25 -0.1119 0.25 -0.25s-0.1119 -0.25001 -0.25 -0.25001" stroke-width="1"></path><path stroke="#000000" d="M17.5 14.75c-0.1381 0 -0.25 -0.1119 -0.25 -0.25s0.1119 -0.25 0.25 -0.25" stroke-width="1"></path><path stroke="#000000" d="M17.5 14.75c0.1381 0 0.25 -0.1119 0.25 -0.25s-0.1119 -0.25 -0.25 -0.25" stroke-width="1"></path><path stroke="#000000" d="M14.611 19.0449c-0.1381 0 -0.25 -0.1119 -0.25 -0.25 0 -0.138 0.1119 -0.25 0.25 -0.25" stroke-width="1"></path><path stroke="#000000" d="M14.611 19.0449c0.1381 0 0.25 -0.1119 0.25 -0.25 0 -0.138 -0.1119 -0.25 -0.25 -0.25" stroke-width="1"></path></svg>