<svg xmlns="http://www.w3.org/2000/svg" viewBox="0 0 24 24" id="Fruit-Rambutan-Peeled--Streamline-Ultimate"><desc>Fruit Rambutan Peeled Streamline Icon: https://streamlinehq.com</desc><defs></defs><path d="M3.32 11.612C2.888 7.088 5.946 3.26 9.779 3.26a6.338 6.338 0 0 1 3.408 1.14" fill="none" stroke="#000000" stroke-linecap="round" stroke-linejoin="round" stroke-width="1"></path><path d="m3.28 10.76 -2.5 0" fill="none" stroke="#000000" stroke-linecap="round" stroke-linejoin="round" stroke-width="1"></path><path d="m9.79 0.76 0 2.5" fill="none" stroke="#000000" stroke-linecap="round" stroke-linejoin="round" stroke-width="1"></path><path d="m4.603 2.267 1.375 2.381" fill="none" stroke="#000000" stroke-linecap="round" stroke-linejoin="round" stroke-width="1"></path><path d="M0.915 6.385 3.731 8.01" fill="none" stroke="#000000" stroke-linecap="round" stroke-linejoin="round" stroke-width="1"></path><path d="m14.499 2.123 -1.312 2.273" fill="none" stroke="#000000" stroke-linecap="round" stroke-linejoin="round" stroke-width="1"></path><path d="M8.779 13.26c0 -3.59 2.462 -6.5 5.5 -6.5s5.5 2.91 5.5 6.5" fill="none" stroke="#000000" stroke-linecap="round" stroke-linejoin="round" stroke-width="1"></path><path d="M20.779 13.26c0 4.142 -2.91 7.5 -6.5 7.5s-6.5 -3.358 -6.5 -7.5Z" fill="none" stroke="#000000" stroke-linecap="round" stroke-linejoin="round" stroke-width="1"></path><path d="m14.279 23.24 0 -2.441" fill="none" stroke="#000000" stroke-linecap="round" stroke-linejoin="round" stroke-width="1"></path><path d="M18.884 21.902 17.612 19.7" fill="none" stroke="#000000" stroke-linecap="round" stroke-linejoin="round" stroke-width="1"></path><path d="m22.157 18.247 -2.224 -1.284" fill="none" stroke="#000000" stroke-linecap="round" stroke-linejoin="round" stroke-width="1"></path><path d="m5.277 13.254 2.441 0" fill="none" stroke="#000000" stroke-linecap="round" stroke-linejoin="round" stroke-width="1"></path><path d="m23.22 13.254 -2.441 0" fill="none" stroke="#000000" stroke-linecap="round" stroke-linejoin="round" stroke-width="1"></path><path d="m6.401 18.247 2.224 -1.284" fill="none" stroke="#000000" stroke-linecap="round" stroke-linejoin="round" stroke-width="1"></path><path d="m9.674 21.902 1.272 -2.203" fill="none" stroke="#000000" stroke-linecap="round" stroke-linejoin="round" stroke-width="1"></path></svg>