<svg xmlns="http://www.w3.org/2000/svg" viewBox="0 0 24 24" id="Fruit-Bhudda-Hand-Finger-Citron-1--Streamline-Ultimate"><desc>Fruit Bhudda Hand Finger Citron 1 Streamline Icon: https://streamlinehq.com</desc><defs></defs><path d="M14 21.25a2 2 0 0 1 -4 0" fill="none" stroke="#000000" stroke-linecap="round" stroke-linejoin="round" stroke-width="1"></path><path d="M12 5.75c0 3.5 4 6.5 4 11.5 0 2.5 -2 2.5 -2 4a1.831 1.831 0 0 0 2 2c1 0 4 -0.5 4 -4.5 0 -5 -3.5 -13 -8 -13s-8 8 -8 13c0 4 3 4.5 4 4.5a1.831 1.831 0 0 0 2 -2c0 -1.5 -2 -1.5 -2 -4 0 -5 4 -8 4 -11.5Z" fill="none" stroke="#000000" stroke-linecap="round" stroke-linejoin="round" stroke-width="1"></path><path d="m12 2.75 0 -2" fill="none" stroke="#000000" stroke-linecap="round" stroke-linejoin="round" stroke-width="1"></path><path d="M12 5.75a4.462 4.462 0 0 1 2.5 0.831V3.75a1 1 0 0 0 -1 -1h-3a1 1 0 0 0 -1 1v2.831A4.462 4.462 0 0 1 12 5.75Z" fill="none" stroke="#000000" stroke-linecap="round" stroke-linejoin="round" stroke-width="1"></path></svg>