<svg xmlns="http://www.w3.org/2000/svg" viewBox="0 0 24 24" id="Fruit-Dragon-Fruit-Slice--Streamline-Ultimate"><desc>Fruit Dragon Fruit Slice Streamline Icon: https://streamlinehq.com</desc><defs></defs><path d="M4 17.376S2.707 9.554 0.75 9.554" stroke-linejoin="round" fill="none" stroke="#000000" stroke-linecap="round" stroke-width="1"></path><path d="M8.217 6.6A6.585 6.585 0 0 1 6.13 2.217" stroke-linejoin="round" fill="none" stroke="#000000" stroke-linecap="round" stroke-width="1"></path><path d="M12 23.25a7.99 7.99 0 0 0 8.315 -8.315C20.315 9.8 13.957 6.13 12 0.75 10.043 6.13 3.685 9.8 3.685 14.935A7.99 7.99 0 0 0 12 23.25Z" stroke-linejoin="round" fill="none" stroke="#000000" stroke-linecap="round" stroke-width="1"></path><path d="M20 17.376s1.289 -7.822 3.246 -7.822" stroke-linejoin="round" fill="none" stroke="#000000" stroke-linecap="round" stroke-width="1"></path><path d="M15.783 6.6a6.585 6.585 0 0 0 2.087 -4.383" stroke-linejoin="round" fill="none" stroke="#000000" stroke-linecap="round" stroke-width="1"></path><path d="M7 14.5a5 5.5 0 1 0 10 0 5 5.5 0 1 0 -10 0" stroke-linejoin="round" fill="none" stroke="#000000" stroke-linecap="round" stroke-width="1"></path><path d="m12 12 0 1" stroke-miterlimit="10" fill="none" stroke="#000000" stroke-linecap="round" stroke-width="1"></path><path d="m10.5 15.5 0 1" stroke-miterlimit="10" fill="none" stroke="#000000" stroke-linecap="round" stroke-width="1"></path><path d="m13.5 15.5 0 1" stroke-miterlimit="10" fill="none" stroke="#000000" stroke-linecap="round" stroke-width="1"></path></svg>