<svg viewBox="0 0 24 24" xmlns="http://www.w3.org/2000/svg" id="Fruit-Orange--Streamline-Ultimate"><desc>Fruit Orange Streamline Icon: https://streamlinehq.com</desc><path d="M13.217 6.008a8.625 8.625 0 1 1 -9 8.617" fill="none" stroke="#000000" stroke-linecap="round" stroke-linejoin="round" stroke-width="1"></path><path d="m9.467 0.75 7.5 0" fill="none" stroke="#000000" stroke-linecap="round" stroke-linejoin="round" stroke-width="1"></path><path d="m13.217 0.75 0 10.5" fill="none" stroke="#000000" stroke-linecap="round" stroke-linejoin="round" stroke-width="1"></path><path d="M10.967 10.569h0a4.057 4.057 0 0 0 4.5 0h0" fill="none" stroke="#000000" stroke-linecap="round" stroke-linejoin="round" stroke-width="1"></path><path d="M8.082 9.635a8.213 8.213 0 0 1 -3.9 2.037 1.286 1.286 0 0 1 -1.6 -1.6 8.222 8.222 0 0 1 2.037 -3.9 8.222 8.222 0 0 1 3.9 -2.037 1.286 1.286 0 0 1 1.6 1.6 8.213 8.213 0 0 1 -2.037 3.9Z" fill="none" stroke="#000000" stroke-linecap="round" stroke-linejoin="round" stroke-width="1"></path></svg>