<svg xmlns="http://www.w3.org/2000/svg" viewBox="0 0 24 24" id="Fruit-Mangosteen--Streamline-Ultimate"><desc>Fruit Mangosteen Streamline Icon: https://streamlinehq.com</desc><defs></defs><path d="M3.976 10.17a9 9 0 1 0 16.048 0" fill="none" stroke="#000000" stroke-linecap="round" stroke-linejoin="round" stroke-width="1"></path><path d="m12 4.5 0 -3.75" fill="none" stroke="#000000" stroke-linecap="round" stroke-linejoin="round" stroke-width="1"></path><path d="M8.888 9.6c-0.08 0.1 -0.166 0.191 -0.257 0.282a3.279 3.279 0 0 1 -4.6 0.354 3.28 3.28 0 0 1 0.353 -4.6 3.28 3.28 0 0 1 4.6 -0.353 2.623 2.623 0 0 1 0.355 0.443" fill="none" stroke="#000000" stroke-linecap="round" stroke-linejoin="round" stroke-width="1"></path><path d="M15.112 9.6c0.08 0.1 0.166 0.191 0.257 0.282a3.279 3.279 0 0 0 4.6 0.354 3.28 3.28 0 0 0 -0.353 -4.6 3.28 3.28 0 0 0 -4.6 -0.353 2.616 2.616 0 0 0 -0.355 0.442" fill="none" stroke="#000000" stroke-linecap="round" stroke-linejoin="round" stroke-width="1"></path><path d="M8.5 8a3.5 3.5 0 1 0 7 0 3.5 3.5 0 1 0 -7 0" fill="none" stroke="#000000" stroke-linecap="round" stroke-linejoin="round" stroke-width="1"></path></svg>