<svg xmlns="http://www.w3.org/2000/svg" viewBox="0 0 24 24" id="Fruit-Acorn--Streamline-Ultimate"><desc>Fruit Acorn Streamline Icon: https://streamlinehq.com</desc><g><path d="M6.45 4.27 4.86 5.86C-1.21 11.94 1 19.2 1.84 21.3a1.46 1.46 0 0 0 0.86 0.86c2.1 0.84 9.36 3.05 15.44 -3l1.59 -1.59" fill="none" stroke="#000000" stroke-linecap="round" stroke-linejoin="round" stroke-width="1"></path><path d="M18.87 17.11a1.56 1.56 0 0 0 2.35 -0.11 10.29 10.29 0 0 0 -0.87 -13.31A10.29 10.29 0 0 0 7 2.78a1.56 1.56 0 0 0 -0.15 2.35Z" fill="none" stroke="#000000" stroke-linecap="round" stroke-linejoin="round" stroke-width="1"></path><path d="m20.35 3.65 2.9 -2.9" fill="none" stroke="#000000" stroke-linecap="round" stroke-linejoin="round" stroke-width="1"></path><path d="m13.52 0.75 -0.69 10.31" fill="none" stroke="#000000" stroke-linecap="round" stroke-linejoin="round" stroke-width="1"></path><path d="m18.65 2.29 -0.56 14.04" fill="none" stroke="#000000" stroke-linecap="round" stroke-linejoin="round" stroke-width="1"></path><path d="m23.25 10.48 -10.31 0.69" fill="none" stroke="#000000" stroke-linecap="round" stroke-linejoin="round" stroke-width="1"></path><path d="m21.71 5.35 -14.04 0.56" fill="none" stroke="#000000" stroke-linecap="round" stroke-linejoin="round" stroke-width="1"></path></g></svg>