<svg xmlns="http://www.w3.org/2000/svg" fill="none" viewBox="0 0 24 24" id="Fruit-Scale--Streamline-Ultimate"><desc>Fruit Scale Streamline Icon: https://streamlinehq.com</desc><path stroke="#000000" stroke-linecap="round" stroke-linejoin="round" d="M19.9945 12H4.00366c-0.30254 0.0007 -0.599 0.0851 -0.85654 0.2439 -0.25754 0.1589 -0.46611 0.386 -0.60262 0.6561L0.925421 16.63c-0.124272 0.2501 -0.182625 0.5279 -0.169526 0.8069 0.013098 0.2791 0.097214 0.5501 0.244375 0.7875 0.14715 0.2374 0.35247 0.4333 0.59649 0.569 0.24401 0.1357 0.51864 0.2068 0.79782 0.2066H21.6036c0.2792 0.0002 0.5538 -0.0709 0.7978 -0.2066s0.4494 -0.3316 0.5965 -0.569c0.1472 -0.2374 0.2313 -0.5084 0.2444 -0.7875 0.0131 -0.279 -0.0453 -0.5568 -0.1695 -0.8069l-1.6391 -3.73c-0.135 -0.2671 -0.3404 -0.4922 -0.5941 -0.6509 -0.2537 -0.1586 -0.546 -0.2448 -0.8451 -0.2491Z" stroke-width="1"></path><path stroke="#000000" stroke-linecap="round" stroke-linejoin="round" d="M5.25 16h4.5" stroke-width="1"></path><path stroke="#000000" d="M14.625 16.01c-0.2071 0 -0.375 -0.1679 -0.375 -0.375s0.1679 -0.375 0.375 -0.375" stroke-width="1"></path><path stroke="#000000" d="M14.625 16.01c0.2071 0 0.375 -0.1679 0.375 -0.375s-0.1679 -0.375 -0.375 -0.375" stroke-width="1"></path><path stroke="#000000" d="M18.385 16.01c-0.2071 0 -0.375 -0.1679 -0.375 -0.375s0.1679 -0.375 0.375 -0.375" stroke-width="1"></path><path stroke="#000000" d="M18.385 16.01c0.2071 0 0.375 -0.1679 0.375 -0.375s-0.1679 -0.375 -0.375 -0.375" stroke-width="1"></path><path stroke="#000000" stroke-linecap="round" stroke-linejoin="round" d="M6.75 9v3" stroke-width="1"></path><path stroke="#000000" stroke-linecap="round" stroke-linejoin="round" d="M17.25 9v3" stroke-width="1"></path><path stroke="#000000" stroke-linecap="round" stroke-linejoin="round" d="M22.8714 5H1.1307c-0.06332 0.00078 -0.12545 0.01743 -0.180705 0.04843 -0.055255 0.03101 -0.101882 0.07538 -0.135626 0.12907 -0.033745 0.05369 -0.053533 0.11499 -0.057559 0.17831 -0.004026 0.06332 0.007837 0.12664 0.034508 0.18419L1.85939 8.17c0.12319 0.2498 0.31383 0.45998 0.55026 0.6067 0.23644 0.14671 0.5092 0.22408 0.78732 0.2233H20.8051c0.2781 0.00078 0.5509 -0.07659 0.7873 -0.2233 0.2365 -0.14672 0.4271 -0.3569 0.5503 -0.6067l1.0681 -2.63c0.0266 -0.05755 0.0385 -0.12087 0.0345 -0.18419 -0.0041 -0.06332 -0.0238 -0.12462 -0.0576 -0.17831 -0.0337 -0.05369 -0.0804 -0.09806 -0.1356 -0.12907 -0.0553 -0.031 -0.1174 -0.04765 -0.1807 -0.04843Z" stroke-width="1"></path></svg>