<svg xmlns="http://www.w3.org/2000/svg" fill="none" viewBox="0 0 24 24" id="Fruit-Passionfruit--Streamline-Ultimate"><desc>Fruit Passionfruit Streamline Icon: https://streamlinehq.com</desc><path stroke="#000000" stroke-linecap="round" stroke-linejoin="round" d="M10.0463 5.00988c-0.40432 -0.06576 -0.81334 -0.09846 -1.223 -0.09776 -4.88818 0 -7.82108 4.47953 -7.82108 8.79868 -0.030225 1.1428 0.24923 2.2724 0.80876 3.2693 0.55953 0.9969 1.37829 1.8238 2.36953 2.3932" stroke-width="1"></path><path stroke="#000000" stroke-linecap="round" stroke-linejoin="round" d="M8.82428 4.91201V1.00146" stroke-width="1"></path><path stroke="#000000" stroke-linecap="round" stroke-linejoin="round" d="M23 15.9409c0 -4.4541 -3.5283 -9.07347 -8.0655 -9.07347S6.86901 11.4868 6.86901 15.9409s3.61139 7.0575 8.06549 7.0575S23 20.396 23 15.9409Z" stroke-width="1"></path><path stroke="#000000" stroke-linecap="round" stroke-linejoin="round" d="M14.9345 19.821c2.6997 0 4.8882 -2.1885 4.8882 -4.8881 0 -2.6997 -2.1885 -4.8882 -4.8882 -4.8882 -2.6997 0 -4.8882 2.1885 -4.8882 4.8882 0 2.6996 2.1885 4.8881 4.8882 4.8881Z" stroke-width="1"></path><path stroke="#000000" d="M13.2236 13.9554c-0.1349 0 -0.2444 -0.1095 -0.2444 -0.2444 0 -0.135 0.1095 -0.2444 0.2444 -0.2444" stroke-width="1"></path><path stroke="#000000" d="M13.2236 13.9554c0.135 0 0.2444 -0.1095 0.2444 -0.2444 0 -0.135 -0.1094 -0.2444 -0.2444 -0.2444" stroke-width="1"></path><path stroke="#000000" d="M14.9345 16.8882c-0.135 0 -0.2444 -0.1094 -0.2444 -0.2444s0.1094 -0.2444 0.2444 -0.2444" stroke-width="1"></path><path stroke="#000000" d="M14.9345 16.8882c0.135 0 0.2444 -0.1094 0.2444 -0.2444s-0.1094 -0.2444 -0.2444 -0.2444" stroke-width="1"></path><path stroke="#000000" d="M16.6454 13.9554c-0.135 0 -0.2444 -0.1095 -0.2444 -0.2444 0 -0.135 0.1094 -0.2444 0.2444 -0.2444" stroke-width="1"></path><path stroke="#000000" d="M16.6454 13.9554c0.1349 0 0.2444 -0.1095 0.2444 -0.2444 0 -0.135 -0.1095 -0.2444 -0.2444 -0.2444" stroke-width="1"></path></svg>