<svg xmlns="http://www.w3.org/2000/svg" viewBox="0 0 24 24" id="Fruit-Sugar-Apple--Streamline-Ultimate"><desc>Fruit Sugar Apple Streamline Icon: https://streamlinehq.com</desc><defs></defs><path d="M9.076 18.856a4.066 4.066 0 0 0 -0.076 0.788 3.279 3.279 0 0 0 3 3.5 3.279 3.279 0 0 0 3 -3.5 4.066 4.066 0 0 0 -0.076 -0.788" fill="none" stroke="#000000" stroke-linecap="round" stroke-linejoin="round" stroke-width="1"></path><path d="M11.467 7.411a3.247 3.247 0 0 0 -3 -3.3 3.28 3.28 0 0 0 -3 3.5 4.064 4.064 0 0 0 0.071 0.756" fill="none" stroke="#000000" stroke-linecap="round" stroke-linejoin="round" stroke-width="1"></path><path d="M8.363 11.935c0 -1.933 -1.343 -3.579 -3 -3.579a3.28 3.28 0 0 0 -3 3.5 3.28 3.28 0 0 0 3 3.5 2.629 2.629 0 0 0 0.6 -0.071" fill="none" stroke="#000000" stroke-linecap="round" stroke-linejoin="round" stroke-width="1"></path><path d="m9.125 11.859 -0.125 0a3.279 3.279 0 0 0 -3 3.5 3.279 3.279 0 0 0 3 3.5 3.279 3.279 0 0 0 3 -3.5 4.067 4.067 0 0 0 -0.125 -1" fill="none" stroke="#000000" stroke-linecap="round" stroke-linejoin="round" stroke-width="1"></path><path d="M12.533 7.411a3.247 3.247 0 0 1 3 -3.3 3.28 3.28 0 0 1 3 3.5 4.083 4.083 0 0 1 -0.071 0.757" fill="none" stroke="#000000" stroke-linecap="round" stroke-linejoin="round" stroke-width="1"></path><path d="M15.637 11.935c0 -1.933 1.343 -3.579 3 -3.579a3.28 3.28 0 0 1 3 3.5 3.28 3.28 0 0 1 -3 3.5 2.629 2.629 0 0 1 -0.605 -0.071" fill="none" stroke="#000000" stroke-linecap="round" stroke-linejoin="round" stroke-width="1"></path><path d="m14.875 11.859 0.125 0a3.279 3.279 0 0 1 3 3.5 3.279 3.279 0 0 1 -3 3.5 3.279 3.279 0 0 1 -3 -3.5 4.035 4.035 0 0 1 0.124 -1" fill="none" stroke="#000000" stroke-linecap="round" stroke-linejoin="round" stroke-width="1"></path><path d="M9 10.856a3 3.5 0 1 0 6 0 3 3.5 0 1 0 -6 0" fill="none" stroke="#000000" stroke-linecap="round" stroke-linejoin="round" stroke-width="1"></path><path d="m12 7.356 0 -6.5" fill="none" stroke="#000000" stroke-linecap="round" stroke-linejoin="round" stroke-width="1"></path></svg>