<svg viewBox="0 0 24 24" xmlns="http://www.w3.org/2000/svg" id="Fruit-Banana--Streamline-Ultimate"><desc>Fruit Banana Streamline Icon: https://streamlinehq.com</desc><path d="M22.5 10.954a12.3 12.3 0 0 1 -12.3 12.3c-4.479 0 -5.8 -1.833 -8.227 -2.812a0.751 0.751 0 0 1 -0.418 -0.967c0.142 -0.366 0.325 -0.84 0.518 -1.351a0.75 0.75 0 0 1 0.946 -0.444c7.224 2.491 17.621 -5.713 12.36 -15.2a0.751 0.751 0 0 1 0.432 -1.08c0.606 -0.2 1.389 -0.442 1.954 -0.616a0.749 0.749 0 0 1 0.93 0.47c1.296 3.732 3.805 3.959 3.805 9.7Z" fill="none" stroke="#000000" stroke-linecap="round" stroke-linejoin="round" stroke-width="1"></path></svg>