<svg viewBox="0 0 24 24" xmlns="http://www.w3.org/2000/svg" id="Fruit-Apple--Streamline-Ultimate"><desc>Fruit Apple Streamline Icon: https://streamlinehq.com</desc><path d="M12 7.509a3.053 3.053 0 0 1 -1.537 -0.277c-6.747 -3.983 -7.982 2.828 -7.3 7.027 0.764 4.67 2.744 8.609 5.474 8.973a1.351 1.351 0 0 0 0.785 -0.162l1.916 -0.975a1.441 1.441 0 0 1 1.316 0l1.916 0.975a1.351 1.351 0 0 0 0.785 0.162c2.73 -0.364 4.71 -4.3 5.474 -8.973 0.371 -2.259 0.186 -5.273 -1.115 -6.959" fill="none" stroke="#000000" stroke-linecap="round" stroke-linejoin="round" stroke-width="1"></path><path d="M18.549 4.584a5.1 5.1 0 0 1 -2.56 1.308 0.924 0.924 0 0 1 -1.162 -1.184A5.253 5.253 0 0 1 16.111 2.1a5.086 5.086 0 0 1 2.56 -1.309 0.925 0.925 0 0 1 1.162 1.184 5.264 5.264 0 0 1 -1.284 2.609Z" fill="none" stroke="#000000" stroke-linecap="round" stroke-linejoin="round" stroke-width="1"></path><path d="m12 3.759 0 3.75" fill="none" stroke="#000000" stroke-linecap="round" stroke-linejoin="round" stroke-width="1"></path></svg>