<svg xmlns="http://www.w3.org/2000/svg" fill="none" viewBox="0 0 24 24" id="Style-Two-Pin-Drink--Streamline-Ultimate"><desc>Style Two Pin Drink Streamline Icon: https://streamlinehq.com</desc><path stroke="#000000" stroke-linecap="round" stroke-linejoin="round" d="M14.75 9.75403c0 0.79567 -0.3161 1.55867 -0.8787 2.12127 -0.5626 0.5627 -1.3257 0.8787 -2.1213 0.8787 -0.7956 0 -1.5587 -0.316 -2.12132 -0.8787 -0.56261 -0.5626 -0.87868 -1.3256 -0.87868 -2.12127v-1.5h6v1.5Z" stroke-width="1"></path><path stroke="#000000" stroke-linecap="round" stroke-linejoin="round" d="M11.75 12.754v3" stroke-width="1"></path><path stroke="#000000" stroke-linecap="round" stroke-linejoin="round" d="M10.25 15.754h3" stroke-width="1"></path><path stroke="#000000" stroke-linecap="round" stroke-linejoin="round" d="M20.75 9.75403c0 7.89997 -6.932 12.33097 -8.629 13.29997 -0.1131 0.0647 -0.2412 0.0987 -0.3715 0.0987s-0.2584 -0.034 -0.3715 -0.0987c-1.7 -0.967 -8.628 -5.4 -8.628 -13.29997 0 -2.38695 0.94821 -4.67614 2.63604 -6.36396C7.07387 1.70224 9.36305 0.754028 11.75 0.754028c2.3869 0 4.6761 0.948212 6.364 2.636042 1.6878 1.68782 2.636 3.97701 2.636 6.36396v0Z" stroke-width="1"></path><path stroke="#000000" d="M10.625 6c-0.2071 0 -0.375 -0.16789 -0.375 -0.375s0.1679 -0.375 0.375 -0.375" stroke-width="1"></path><path stroke="#000000" d="M10.625 6c0.2071 0 0.375 -0.16789 0.375 -0.375s-0.1679 -0.375 -0.375 -0.375" stroke-width="1"></path><g><path stroke="#000000" d="M13.625 4.50403c-0.2071 0 -0.375 -0.16789 -0.375 -0.375s0.1679 -0.375 0.375 -0.375" stroke-width="1"></path><path stroke="#000000" d="M13.625 4.50403c0.2071 0 0.375 -0.16789 0.375 -0.375s-0.1679 -0.375 -0.375 -0.375" stroke-width="1"></path></g></svg>