<svg xmlns="http://www.w3.org/2000/svg" fill="none" viewBox="0 0 24 24" id="Style-Two-Pin-Warning--Streamline-Ultimate"><desc>Style Two Pin Warning Streamline Icon: https://streamlinehq.com</desc><path stroke="#000000" stroke-linecap="round" stroke-linejoin="round" d="M12 9.75806v-3" stroke-width="1"></path><path stroke="#000000" stroke-linecap="round" stroke-linejoin="round" d="M21 9.75806c0 7.90004 -6.932 12.33104 -8.629 13.30004 -0.1131 0.0646 -0.2412 0.0986 -0.3715 0.0986s-0.2584 -0.034 -0.3715 -0.0986C9.931 22.0881 3 17.6561 3 9.75806c0 -2.38695 0.94821 -4.67614 2.63604 -6.36396C7.32387 1.70627 9.61305 0.758057 12 0.758057c2.3869 0 4.6761 0.948213 6.364 2.636043C20.0518 5.08192 21 7.37111 21 9.75806v0Z" stroke-width="1"></path><path stroke="#000000" d="M11.9996 12.7577c-0.2071 0 -0.375 -0.1679 -0.375 -0.375s0.1679 -0.375 0.375 -0.375" stroke-width="1"></path><path stroke="#000000" d="M11.9996 12.7577c0.2071 0 0.375 -0.1679 0.375 -0.375s-0.1679 -0.375 -0.375 -0.375" stroke-width="1"></path></svg>