<svg viewBox="0 0 24 24" xmlns="http://www.w3.org/2000/svg" id="Style-Two-Pin-Plane--Streamline-Ultimate"><desc>Style Two Pin Plane Streamline Icon: https://streamlinehq.com</desc><path d="m5.609 12.433 1.382 0.95" fill="none" stroke="#000000" stroke-linecap="round" stroke-linejoin="round" stroke-width="1"></path><path d="m15.524 8.665 -1.969 1.089 -4.147 -2.849 -1.969 1.088 3.49 3.213 -3.938 2.177 2 1.375a1.5 1.5 0 0 0 1.575 0.076l6.409 -3.543a1.5 1.5 0 0 0 -1.452 -2.626Z" fill="none" stroke="#000000" stroke-linecap="round" stroke-linejoin="round" stroke-width="1"></path><path d="M20.75 9.754c0 7.9 -6.932 12.331 -8.629 13.3a0.749 0.749 0 0 1 -0.743 0c-1.7 -0.967 -8.628 -5.4 -8.628 -13.3a9 9 0 0 1 18 0Z" fill="none" stroke="#000000" stroke-linecap="round" stroke-linejoin="round" stroke-width="1"></path></svg>