<svg viewBox="0 0 24 24" xmlns="http://www.w3.org/2000/svg" id="Volume-Control-Full-1--Streamline-Ultimate"><desc>Volume Control Full 1 Streamline Icon: https://streamlinehq.com</desc><path d="M6.571 9H2.25a0.75 0.75 0 0 0 -0.75 0.75v4.5a0.75 0.75 0 0 0 0.75 0.75h4.321a8.254 8.254 0 0 0 6.854 5.209 0.751 0.751 0 0 0 0.825 -0.746V4.537a0.75 0.75 0 0 0 -0.825 -0.746A8.254 8.254 0 0 0 6.571 9Z" fill="none" stroke="#000000" stroke-linecap="round" stroke-linejoin="round" stroke-width="1"></path><path d="M21.463 15.55a6.595 6.595 0 0 0 0 -7.1" fill="none" stroke="#000000" stroke-linecap="round" stroke-linejoin="round" stroke-width="1"></path><path d="M18.562 14.241a3.491 3.491 0 0 0 0 -4.4" fill="none" stroke="#000000" stroke-linecap="round" stroke-linejoin="round" stroke-width="1"></path></svg>