<svg xmlns="http://www.w3.org/2000/svg" fill="none" viewBox="0 0 24 24" id="Volume-Control-Warning-1--Streamline-Ultimate"><desc>Volume Control Warning 1 Streamline Icon: https://streamlinehq.com</desc><path stroke="#000000" stroke-linecap="round" stroke-linejoin="round" d="M14.25 8.25v-6c0 -0.39782 -0.158 -0.77936 -0.4393 -1.06066C13.5294 0.908035 13.1478 0.75 12.75 0.75c-1.4582 0.001335 -2.88431 0.4277 -4.10393 1.22693C7.42645 2.77615 6.46626 3.91357 5.883 5.25H2.25c-0.39782 0 -0.77936 0.15804 -1.06066 0.43934C0.908035 5.97064 0.75 6.35218 0.75 6.75v3c0 0.3978 0.158035 0.7794 0.43934 1.0607 0.2813 0.2813 0.66284 0.4393 1.06066 0.4393h3.633c0.40302 0.9184 0.98476 1.7474 1.71132 2.4388 0.72656 0.6913 1.58342 1.2312 2.52068 1.5882" stroke-width="1"></path><path stroke="#000000" d="M17.25 21c-0.2071 0 -0.375 -0.1679 -0.375 -0.375s0.1679 -0.375 0.375 -0.375" stroke-width="1"></path><path stroke="#000000" d="M17.25 21c0.2071 0 0.375 -0.1679 0.375 -0.375s-0.1679 -0.375 -0.375 -0.375" stroke-width="1"></path><path stroke="#000000" stroke-linecap="round" stroke-linejoin="round" d="M17.25 18v-3" stroke-width="1"></path><path stroke="#000000" stroke-linecap="round" stroke-linejoin="round" d="M23.063 20.682c0.1354 0.2705 0.1994 0.5711 0.1858 0.8733 -0.0135 0.3022 -0.1041 0.5959 -0.2631 0.8533 -0.159 0.2573 -0.3812 0.4697 -0.6455 0.617 -0.2642 0.1472 -0.5617 0.2245 -0.8642 0.2244h-8.452c-0.3025 0.0001 -0.6 -0.0772 -0.8642 -0.2244 -0.2643 -0.1473 -0.4865 -0.3597 -0.6455 -0.617 -0.159 -0.2574 -0.2496 -0.5511 -0.2631 -0.8533 -0.0136 -0.3022 0.0504 -0.6028 0.1858 -0.8733l4.226 -8.451c0.1473 -0.2949 0.3738 -0.5428 0.6541 -0.7161s0.6033 -0.2651 0.9329 -0.2651 0.6526 0.0918 0.9329 0.2651 0.5068 0.4212 0.6541 0.7161l4.226 8.451Z" stroke-width="1"></path></svg>