<svg xmlns="http://www.w3.org/2000/svg" fill="none" viewBox="0 0 24 24" id="Building-Helmet--Streamline-Ultimate"><desc>Building Helmet Streamline Icon: https://streamlinehq.com</desc><path stroke="#000000" stroke-linecap="round" stroke-linejoin="round" stroke-miterlimit="10" d="M14.0625 13.7679h2.6027V1.78572c0 -0.39286 -0.2947 -0.78572 -0.7857 -0.78572H9.00447c-0.39286 0 -0.78572 0.29465 -0.78572 0.78572V8.1942" stroke-width="1"></path><path stroke="#000000" stroke-linecap="round" stroke-linejoin="round" stroke-miterlimit="10" d="M13.6205 7.08928h3.0446" stroke-width="1"></path><path stroke="#000000" stroke-linecap="round" stroke-linejoin="round" stroke-miterlimit="10" d="M11.7545 4.14285h4.9107" stroke-width="1"></path><path stroke="#000000" stroke-linecap="round" stroke-linejoin="round" stroke-miterlimit="10" d="M15.0938 10.0357h1.5714" stroke-width="1"></path><path stroke="#000000" stroke-linecap="round" stroke-linejoin="round" stroke-miterlimit="10" d="M23.0491 13.7679h-6.3839" stroke-width="1"></path><path stroke="#000000" stroke-linecap="round" stroke-linejoin="round" stroke-miterlimit="10" d="M21.5759 13.7678V4.92856c0 -0.39286 -0.2947 -0.78572 -0.7858 -0.78572h-3.9285" stroke-width="1"></path><path stroke="#000000" stroke-linecap="round" stroke-linejoin="round" stroke-miterlimit="10" d="M19.1205 7.08926h2.4553" stroke-width="1"></path><path stroke="#000000" stroke-linecap="round" stroke-linejoin="round" stroke-miterlimit="10" d="M19.1205 10.0357h2.4553" stroke-width="1"></path><path stroke="#000000" stroke-linecap="round" stroke-linejoin="round" stroke-miterlimit="10" d="M9.00452 14.3571c2.16068 0.5893 3.73218 2.6518 3.73218 5.009v0.6875" stroke-width="1"></path><path stroke="#000000" stroke-linecap="round" stroke-linejoin="round" stroke-miterlimit="10" d="M6.05811 20.0536v-7.0715c0 -0.5892 0.39285 -0.9821 0.98214 -0.9821h0.98214c0.58929 0 0.98214 0.3929 0.98214 0.9821v7.0715" stroke-width="1"></path><path stroke="#000000" stroke-linecap="round" stroke-linejoin="round" stroke-miterlimit="10" d="M14.2099 22.0179c0 0.5892 -0.3929 0.9821 -0.9822 0.9821H1.93307c-0.58929 0 -0.982142 -0.3929 -0.982142 -0.9821v-0.9822c0 -0.5893 0.392852 -0.9821 0.982142 -0.9821H13.2277c0.5893 0 0.9822 0.3928 0.9822 0.9821v0.9822Z" stroke-width="1"></path><path stroke="#000000" stroke-linecap="round" stroke-linejoin="round" stroke-miterlimit="10" d="M6.05807 14.3571c-2.16071 0.5893 -3.73214 2.6518 -3.73214 5.009v0.6875" stroke-width="1"></path></svg>