<svg xmlns="http://www.w3.org/2000/svg" fill="none" viewBox="0 0 24 24" id="Code-Monitor-Cog--Streamline-Ultimate"><desc>Code Monitor Cog Streamline Icon: https://streamlinehq.com</desc><path stroke="#000000" stroke-linecap="round" stroke-linejoin="round" stroke-miterlimit="10" d="M11.8829 13.2072 10.402 14.688l1.4809 1.4808" stroke-width="1"></path><path stroke="#000000" stroke-linecap="round" stroke-linejoin="round" stroke-miterlimit="10" d="m19.0896 13.2072 1.4808 1.4808 -1.4808 1.4808" stroke-width="1"></path><path stroke="#000000" stroke-linecap="round" stroke-linejoin="round" stroke-miterlimit="10" d="m14.3509 16.1688 1.9744 -3.9488" stroke-width="1"></path><path stroke="#000000" stroke-linecap="round" stroke-linejoin="round" stroke-miterlimit="10" d="m6.94682 1.75546 0.39488 1.18466c0.09872 0.39489 0.59233 0.69105 0.98722 0.59233l1.18466 -0.29617c1.08592 -0.19744 1.77702 0.98722 1.08592 1.777l-0.88847 0.8885c-0.29617 0.29616 -0.29617 0.78977 0 1.08593l0.88847 0.8885c0.6911 0.78978 0 2.07315 -1.08592 1.77699l-1.18466 -0.29616c-0.39489 -0.09872 -0.8885 0.09872 -0.98722 0.59233L6.94682 11.134c-0.29617 1.086 -1.777 1.086 -2.07316 0l-0.39489 -1.18463c-0.09872 -0.39489 -0.59233 -0.69105 -0.98722 -0.59233l-1.18466 0.29616c-1.08594 0.19744 -1.776989 -0.98721 -1.08594 -1.77699l0.8885 -0.8885c0.29616 -0.29616 0.29616 -0.78977 0 -1.08593l-0.8885 -0.8885c-0.691049 -0.78978 0 -2.07316 1.08594 -1.777l1.18466 0.29617c0.39489 0.09872 0.8885 -0.09872 0.98722 -0.59233l0.39489 -1.18466c0.29616 -1.085943 1.77699 -1.085943 2.07316 0Z" stroke-width="1"></path><path stroke="#000000" stroke-linecap="round" stroke-linejoin="round" stroke-miterlimit="10" d="m10.0756 18.7529 -0.98722 3.9686" stroke-width="1"></path><path stroke="#000000" stroke-linecap="round" stroke-linejoin="round" stroke-miterlimit="10" d="m14.0245 18.7529 0.9872 3.9686" stroke-width="1"></path><path stroke="#000000" stroke-linecap="round" stroke-linejoin="round" stroke-miterlimit="10" d="M6.12677 22.7215H17.9734" stroke-width="1"></path><path stroke="#000000" stroke-linecap="round" stroke-linejoin="round" stroke-miterlimit="10" d="M14.407 2.87843h6.7748c1.086 0 1.9745 0.89294 1.9745 1.98431V16.7686c0 1.0913 -0.8885 1.9843 -1.9745 1.9843H2.91828c-1.08594 0 -1.974432 -0.893 -1.974432 -1.9843v-3.2282" stroke-width="1"></path><path stroke="#000000" d="M4.429 6.445a1.481 1.481 0 1 0 2.962 0 1.481 1.481 0 1 0 -2.962 0" stroke-width="1"></path></svg>