<svg xmlns="http://www.w3.org/2000/svg" fill="none" viewBox="0 0 24 24" id="Cog-Cost-Budget--Streamline-Ultimate"><desc>Cog Cost Budget Streamline Icon: https://streamlinehq.com</desc><path stroke="#000000" stroke-linecap="round" stroke-linejoin="round" stroke-miterlimit="10" d="m14.3354 5.82651 -0.8907 -0.89075c-0.6928 -0.79179 0 -2.07846 1.0887 -1.78153l1.1877 0.29692c0.3959 0.09897 0.8907 -0.09898 0.9897 -0.59385l0.3959 -1.18768c0.2969 -1.088711 1.7815 -1.088711 2.0784 0l0.396 1.18768c0.0989 0.3959 0.5938 0.69282 0.9897 0.59385l1.1877 -0.29692c1.0887 -0.19795 1.7815 0.98974 1.0887 1.78153l-0.8908 0.89075c-0.2969 0.29692 -0.2969 0.7918 0 1.08872l0.8908 0.89076c0.6928 0.79179 0 2.07845 -1.0887 1.78153l-1.1877 -0.29693c-0.3959 -0.09897 -0.8908 0.09898 -0.9897 0.59385l-0.396 1.18766c-0.2969 1.0887 -1.7815 1.0887 -2.0784 0l-0.3959 -1.18766" stroke-width="1"></path><path stroke="#000000" stroke-linecap="round" stroke-linejoin="round" stroke-miterlimit="10" d="M13.7416 21.1674c0 1.0888 -0.8908 1.9795 -1.9795 1.9795H2.85447c-1.08871 0 -1.97947 -0.8907 -1.97947 -1.9795V10.2803c0 -1.08868 0.89076 -1.97945 1.97947 -1.97945h8.90763c1.0887 0 1.9795 0.89077 1.9795 1.97945v10.8871Z" stroke-width="1"></path><path stroke="#000000" stroke-linecap="round" stroke-linejoin="round" stroke-miterlimit="10" d="M10.7724 11.2701H3.84424v2.9692h6.92816v-2.9692Z" stroke-width="1"></path><path stroke="#000000" stroke-linecap="round" stroke-linejoin="round" stroke-miterlimit="10" d="M4.04218 17.1095c-0.10932 0 -0.19794 -0.0886 -0.19794 -0.1979 0 -0.1094 0.08862 -0.198 0.19794 -0.198" stroke-width="1"></path><path stroke="#000000" stroke-linecap="round" stroke-linejoin="round" stroke-miterlimit="10" d="M4.04217 17.1095c0.10932 0 0.19794 -0.0886 0.19794 -0.1979 0 -0.1094 -0.08862 -0.198 -0.19794 -0.198" stroke-width="1"></path><path stroke="#000000" stroke-linecap="round" stroke-linejoin="round" stroke-miterlimit="10" d="M4.04218 20.0787c-0.10932 0 -0.19794 -0.0886 -0.19794 -0.1979s0.08862 -0.198 0.19794 -0.198" stroke-width="1"></path><path stroke="#000000" stroke-linecap="round" stroke-linejoin="round" stroke-miterlimit="10" d="M4.04217 20.0787c0.10932 0 0.19794 -0.0886 0.19794 -0.1979s-0.08862 -0.198 -0.19794 -0.198" stroke-width="1"></path><path stroke="#000000" stroke-linecap="round" stroke-linejoin="round" stroke-miterlimit="10" d="M7.30836 17.1095c-0.10933 0 -0.19795 -0.0886 -0.19795 -0.1979 0 -0.1094 0.08862 -0.198 0.19795 -0.198" stroke-width="1"></path><path stroke="#000000" stroke-linecap="round" stroke-linejoin="round" stroke-miterlimit="10" d="M7.30822 17.1095c0.10932 0 0.19794 -0.0886 0.19794 -0.1979 0 -0.1094 -0.08862 -0.198 -0.19794 -0.198" stroke-width="1"></path><path stroke="#000000" stroke-linecap="round" stroke-linejoin="round" stroke-miterlimit="10" d="M7.30836 20.0787c-0.10933 0 -0.19795 -0.0886 -0.19795 -0.1979s0.08862 -0.198 0.19795 -0.198" stroke-width="1"></path><path stroke="#000000" stroke-linecap="round" stroke-linejoin="round" stroke-miterlimit="10" d="M7.30822 20.0787c0.10932 0 0.19794 -0.0886 0.19794 -0.1979s-0.08862 -0.198 -0.19794 -0.198" stroke-width="1"></path><path stroke="#000000" stroke-linecap="round" stroke-linejoin="round" stroke-miterlimit="10" d="M10.4755 17.1095c-0.1094 0 -0.198 -0.0886 -0.198 -0.1979 0 -0.1094 0.0886 -0.198 0.198 -0.198" stroke-width="1"></path><path stroke="#000000" stroke-linecap="round" stroke-linejoin="round" stroke-miterlimit="10" d="M10.4755 17.1095c0.1093 0 0.1979 -0.0886 0.1979 -0.1979 0 -0.1094 -0.0886 -0.198 -0.1979 -0.198" stroke-width="1"></path><path stroke="#000000" stroke-linecap="round" stroke-linejoin="round" stroke-miterlimit="10" d="M10.4755 20.0787c-0.1094 0 -0.198 -0.0886 -0.198 -0.1979s0.0886 -0.198 0.198 -0.198" stroke-width="1"></path><path stroke="#000000" stroke-linecap="round" stroke-linejoin="round" stroke-miterlimit="10" d="M10.4755 20.0787c0.1093 0 0.1979 -0.0886 0.1979 -0.1979s-0.0886 -0.198 -0.1979 -0.198" stroke-width="1"></path><path stroke="#000000" d="M16.661 6.371a1.485 1.485 0 1 0 2.97 0 1.485 1.485 0 1 0 -2.97 0" stroke-width="1"></path></svg>