<svg xmlns="http://www.w3.org/2000/svg" fill="none" viewBox="0 0 24 24" id="Design-Helmet--Streamline-Ultimate"><desc>Design Helmet Streamline Icon: https://streamlinehq.com</desc><path stroke="#000000" stroke-linecap="round" stroke-linejoin="round" stroke-miterlimit="10" d="M6.72498 0.774994H23.225V17.275L6.72498 0.774994Z" stroke-width="1"></path><path stroke="#000000" stroke-linecap="round" stroke-linejoin="round" stroke-miterlimit="10" d="M15.225 4.27499h4.5v4.5" stroke-width="1"></path><path stroke="#000000" stroke-linecap="round" stroke-linejoin="round" stroke-miterlimit="10" d="M7.77502 20.225v-8c0 -0.6 0.4 -1 1 -1h1c0.59998 0 0.99998 0.4 0.99998 1v8" stroke-width="1"></path><path stroke="#000000" stroke-linecap="round" stroke-linejoin="round" stroke-miterlimit="10" d="M10.775 12.825c2.9 0.7 5 3.3 5 6.3v1.1m-7.99998 -7.4c-2.9 0.7 -5 3.3 -5 6.3v1.1m14.99998 2c0 0.6 -0.4 1 -1 1H1.77502c-0.6 0 -0.999996 -0.4 -0.999996 -1v-1c0 -0.6 0.399996 -1 0.999996 -1H16.775c0.6 0 1 0.4 1 1v1Z" stroke-width="1"></path></svg>