<svg xmlns="http://www.w3.org/2000/svg" fill="none" viewBox="0 0 24 24" id="Engineer-Project-Superviser-2--Streamline-Ultimate"><desc>Engineer Project Superviser 2 Streamline Icon: https://streamlinehq.com</desc><path stroke="#000000" stroke-linecap="round" stroke-linejoin="round" stroke-miterlimit="10" d="M12 18.0001v5.2" stroke-width="1"></path><path stroke="#000000" stroke-linecap="round" stroke-linejoin="round" stroke-miterlimit="10" d="M20.75 23.2001v-1.8c0 -0.6 -0.4 -1 -1 -1H4.25c-0.6 0 -1 0.4 -1 1v1.8" stroke-width="1"></path><path stroke="#000000" stroke-linecap="round" stroke-linejoin="round" stroke-miterlimit="10" d="M18.3932 17.2999c-0.9 -2.6 -3.4 -4.5 -6.3 -4.5 -2.89996 0 -5.49996 1.9 -6.39996 4.5" stroke-width="1"></path><path stroke="#000000" stroke-linecap="round" stroke-linejoin="round" stroke-miterlimit="10" d="M12.0433 3.79993V0.799927M6.54321 6.69992H17.5432m-9.59999 1.1c0.1 2.2 1.9 3.99998 4.09999 3.99998 2.3 0 4.1 -1.79998 4.1 -4.09998V5.89993c0 -2.3 -1.8 -4.1 -4.1 -4.1 -2.19999 0 -3.99999 1.8 -4.09999 4v1.99999Z" stroke-width="1"></path></svg>