<svg xmlns="http://www.w3.org/2000/svg" fill="none" viewBox="0 0 24 24" id="Engineering-Malfunction--Streamline-Ultimate"><desc>Engineering Malfunction Streamline Icon: https://streamlinehq.com</desc><path stroke="#000000" stroke-linecap="round" stroke-linejoin="round" stroke-miterlimit="10" d="M17.275 9.95001c-0.2209 0 -0.4 -0.17908 -0.4 -0.39999 0 -0.22092 0.1791 -0.4 0.4 -0.4" stroke-width="1"></path><path stroke="#000000" stroke-linecap="round" stroke-linejoin="round" stroke-miterlimit="10" d="M17.2749 9.95001c0.2209 0 0.4 -0.17908 0.4 -0.39999 0 -0.22092 -0.1791 -0.4 -0.4 -0.4" stroke-width="1"></path><path stroke="#000000" stroke-linecap="round" stroke-linejoin="round" stroke-miterlimit="10" d="M17.275 6.54999v-1.5" stroke-width="1"></path><path stroke="#000000" stroke-linecap="round" stroke-linejoin="round" stroke-miterlimit="10" d="M18.075 1.25c-0.2 -0.3 -0.5 -0.5 -0.8 -0.5 -0.4 0 -0.7 0.2 -0.8 0.5l-5.1 9.6c-0.2 0.3 -0.1 0.6 0 0.9 0.2 0.3 0.5 0.4 0.8 0.4h10.1c0.3 0 0.6 -0.2 0.8 -0.4 0.2 -0.3 0.2 -0.6 0 -0.9l-5 -9.6Z" stroke-width="1"></path><path stroke="#000000" stroke-linecap="round" stroke-linejoin="round" stroke-miterlimit="10" d="M19.275 19.85c0 1.9 -1.5 3.4 -3.4 3.4H5.57497c-2.6 0 -4.800007 -2.0999 -4.800007 -4.7999 0 -1.5 0.700007 -2.9001 1.900007 -3.8001 1.2 -0.9 2.69999 -1.2 4.09999 -0.8L16.775 16.5501c1.5 0.4 2.5 1.6999 2.5 3.2999Z" stroke-width="1"></path><path stroke="#000000" stroke-linecap="round" stroke-linejoin="round" stroke-miterlimit="10" d="M5.77498 20.25c0.99411 0 1.8 -0.8058 1.8 -1.8 0 -0.9941 -0.80589 -1.8 -1.8 -1.8s-1.8 0.8059 -1.8 1.8c0 0.9942 0.80589 1.8 1.8 1.8Z" stroke-width="1"></path><path stroke="#000000" d="M13.706 19.713a1.25 1.25 0 1 0 2.5 0 1.25 1.25 0 1 0 -2.5 0" stroke-width="1"></path></svg>