<svg xmlns="http://www.w3.org/2000/svg" fill="none" viewBox="0 0 24 24" id="Factory-Industrial-Robot-Arm-2--Streamline-Ultimate"><desc>Factory Industrial Robot Arm 2 Streamline Icon: https://streamlinehq.com</desc><path stroke="#000000" stroke-linecap="round" stroke-linejoin="round" d="M0.75 22.25h22.5" stroke-width="1"></path><path stroke="#000000" stroke-linecap="round" stroke-linejoin="round" d="m9.071 16.7502 -6.037 -7.467" stroke-width="1"></path><path stroke="#000000" stroke-linecap="round" stroke-linejoin="round" d="m7.4 7.52588 6.246 7.72402" stroke-width="1"></path><path stroke="#000000" stroke-linecap="round" stroke-linejoin="round" d="M4.25 9.5c1.933 0 3.5 -1.567 3.5 -3.5s-1.567 -3.5 -3.5 -3.5S0.75 4.067 0.75 6s1.567 3.5 3.5 3.5Z" stroke-width="1"></path><path stroke="#000000" stroke-linecap="round" stroke-linejoin="round" d="M13.264 7.5H7.413" stroke-width="1"></path><path stroke="#000000" stroke-linecap="round" stroke-linejoin="round" d="M7.123 4h5.778" stroke-width="1"></path><path stroke="#000000" stroke-linecap="round" stroke-linejoin="round" d="M15.5 8.5c1.6569 0 3 -1.34315 3 -3s-1.3431 -3 -3 -3 -3 1.34315 -3 3 1.3431 3 3 3Z" stroke-width="1"></path><path stroke="#000000" stroke-linecap="round" stroke-linejoin="round" d="M17.5 22.25h-10l1.793 -6.275c0.05973 -0.2088 0.18581 -0.3925 0.35919 -0.5233 0.17338 -0.1308 0.38461 -0.2016 0.60181 -0.2017h4.492c0.2172 0.0001 0.4284 0.0709 0.6018 0.2017 0.1734 0.1308 0.2995 0.3145 0.3592 0.5233L17.5 22.25Z" stroke-width="1"></path><path stroke="#000000" d="M12.5 18.875c-0.2071 0 -0.375 -0.1679 -0.375 -0.375s0.1679 -0.375 0.375 -0.375" stroke-width="1"></path><path stroke="#000000" d="M12.5 18.875c0.2071 0 0.375 -0.1679 0.375 -0.375s-0.1679 -0.375 -0.375 -0.375" stroke-width="1"></path><path stroke="#000000" stroke-linecap="round" stroke-linejoin="round" d="M17.795 3.568 19.25 1.75h3l1 1" stroke-width="1"></path><path stroke="#000000" stroke-linecap="round" stroke-linejoin="round" d="m17.795 7.43213 1.455 1.818h3l1 -1" stroke-width="1"></path></svg>