<svg xmlns="http://www.w3.org/2000/svg" viewBox="0 0 24 24" id="Factory-Manufacturing-Line-Time--Streamline-Ultimate"><desc>Factory Manufacturing Line Time Streamline Icon: https://streamlinehq.com</desc><defs></defs><path d="M14.652 6.75H12V4.1" fill="none" stroke="#000000" stroke-linecap="round" stroke-linejoin="round" stroke-width="1"></path><path d="M23.25 20.75a2.5 2.5 0 0 1 -2.5 2.5H3.25a2.5 2.5 0 0 1 0 -5h17.5a2.5 2.5 0 0 1 2.5 2.5Z" fill="none" stroke="#000000" stroke-linecap="round" stroke-linejoin="round" stroke-width="1"></path><path d="M3 14.25h4v4H3Z" fill="none" stroke="#000000" stroke-linecap="round" stroke-linejoin="round" stroke-width="1"></path><path d="M10 14.25h4v4h-4Z" fill="none" stroke="#000000" stroke-linecap="round" stroke-linejoin="round" stroke-width="1"></path><path d="M17 14.25h4v4h-4Z" fill="none" stroke="#000000" stroke-linecap="round" stroke-linejoin="round" stroke-width="1"></path><path d="m4.25 20.75 0.5 0" fill="none" stroke="#000000" stroke-linecap="round" stroke-linejoin="round" stroke-width="1"></path><path d="m9.25 20.75 0.5 0" fill="none" stroke="#000000" stroke-linecap="round" stroke-linejoin="round" stroke-width="1"></path><path d="m14.25 20.75 0.5 0" fill="none" stroke="#000000" stroke-linecap="round" stroke-linejoin="round" stroke-width="1"></path><path d="m19.25 20.75 0.5 0" fill="none" stroke="#000000" stroke-linecap="round" stroke-linejoin="round" stroke-width="1"></path><path d="M15.961 10.661a5.75 5.75 0 1 0 -7.922 0" fill="none" stroke="#000000" stroke-linecap="round" stroke-linejoin="round" stroke-width="1"></path></svg>