<svg xmlns="http://www.w3.org/2000/svg" viewBox="0 0 24 24" id="Factory-Building-6--Streamline-Ultimate"><desc>Factory Building 6 Streamline Icon: https://streamlinehq.com</desc><defs></defs><path d="m17.256 14.685 0.744 -9.5 3 0 0.754 9.5" fill="none" stroke="#000000" stroke-linecap="round" stroke-linejoin="round" stroke-width="1"></path><path d="m0.75 11.185 12 0" fill="none" stroke="#000000" stroke-linecap="round" stroke-linejoin="round" stroke-width="1"></path><path d="m6.75 15.685 0 7.5" fill="none" stroke="#000000" stroke-linecap="round" stroke-linejoin="round" stroke-width="1"></path><path d="m2.25 11.185 4.5 4.5" fill="none" stroke="#000000" stroke-linecap="round" stroke-linejoin="round" stroke-width="1"></path><path d="m11.25 11.185 -4.5 4.5" fill="none" stroke="#000000" stroke-linecap="round" stroke-linejoin="round" stroke-width="1"></path><path d="m2.25 11.185 0 -1.5" fill="none" stroke="#000000" stroke-linecap="round" stroke-linejoin="round" stroke-width="1"></path><path d="m11.25 11.185 0 -1.5" fill="none" stroke="#000000" stroke-linecap="round" stroke-linejoin="round" stroke-width="1"></path><path d="m23.25 23.185 -13 0 0 -4 6 -4.5 7 0 0 8.5z" fill="none" stroke="#000000" stroke-linecap="round" stroke-linejoin="round" stroke-width="1"></path><path d="M18.25 0.935a6.931 6.931 0 0 0 -2.995 0.621c-7.43 3.171 -10.5 -0.741 -10.5 -0.741" fill="none" stroke="#000000" stroke-linecap="round" stroke-linejoin="round" stroke-width="1"></path><path d="M17.75 19.185h1.5a1 1 0 0 1 1 1v3l0 0h-3.5l0 0v-3a1 1 0 0 1 1 -1Z" fill="none" stroke="#000000" stroke-linecap="round" stroke-linejoin="round" stroke-width="1"></path></svg>