<svg xmlns="http://www.w3.org/2000/svg" viewBox="0 0 24 24" id="Factory-Manufacturing-Line-Packing-Robot-Arm--Streamline-Ultimate"><desc>Factory Manufacturing Line Packing Robot Arm Streamline Icon: https://streamlinehq.com</desc><defs></defs><path d="M9.581 4.896 5.555 7.265l0.75 3.234" fill="none" stroke="#000000" stroke-linecap="round" stroke-linejoin="round" stroke-width="1"></path><path d="m14.419 4.896 4.026 2.369 -0.75 3.234" fill="none" stroke="#000000" stroke-linecap="round" stroke-linejoin="round" stroke-width="1"></path><path d="M9.404 10.693h5.193s0.5 0 0.5 0.5v4.25s0 0.5 -0.5 0.5H9.404s-0.5 0 -0.5 -0.5v-4.25s0 -0.5 0.5 -0.5" fill="none" stroke="#000000" stroke-linecap="round" stroke-linejoin="round" stroke-width="1"></path><path d="m5 23.193 0 -4 14 0 0 4" fill="none" stroke="#000000" stroke-linecap="round" stroke-linejoin="round" stroke-width="1"></path><path d="m5 19.193 -4.25 -4.5" fill="none" stroke="#000000" stroke-linecap="round" stroke-linejoin="round" stroke-width="1"></path><path d="m19 19.193 4.25 -4.5" fill="none" stroke="#000000" stroke-linecap="round" stroke-linejoin="round" stroke-width="1"></path><path d="M9.581 4.896a2.419 2.419 0 1 0 4.838 0 2.419 2.419 0 1 0 -4.838 0" fill="none" stroke="#000000" stroke-linecap="round" stroke-linejoin="round" stroke-width="1"></path><path d="m12 0.807 0 1.671" fill="none" stroke="#000000" stroke-linecap="round" stroke-linejoin="round" stroke-width="1"></path></svg>