<svg xmlns="http://www.w3.org/2000/svg" viewBox="0 0 24 24" id="Factory-Manufacturing-Line-Package-Right-1--Streamline-Ultimate"><desc>Factory Manufacturing Line Package Right 1 Streamline Icon: https://streamlinehq.com</desc><defs></defs><path d="M23.25 19.83a2.5 2.5 0 0 1 -2.5 2.5H3.25a2.5 2.5 0 0 1 0 -5h17.5a2.5 2.5 0 0 1 2.5 2.5Z" fill="none" stroke="#000000" stroke-linecap="round" stroke-linejoin="round" stroke-width="1"></path><path d="m4.25 19.83 0.5 0" fill="none" stroke="#000000" stroke-linecap="round" stroke-linejoin="round" stroke-width="1"></path><path d="m9.25 19.83 0.5 0" fill="none" stroke="#000000" stroke-linecap="round" stroke-linejoin="round" stroke-width="1"></path><path d="m14.25 19.83 0.5 0" fill="none" stroke="#000000" stroke-linecap="round" stroke-linejoin="round" stroke-width="1"></path><path d="m19.25 19.83 0.5 0" fill="none" stroke="#000000" stroke-linecap="round" stroke-linejoin="round" stroke-width="1"></path><path d="M4.75 11.169h6a1 1 0 0 1 1 1v5.161l0 0h-8l0 0v-5.161a1 1 0 0 1 1 -1Z" fill="none" stroke="#000000" stroke-linecap="round" stroke-linejoin="round" stroke-width="1"></path><path d="m23.004 6.58 -16.25 0" fill="none" stroke="#000000" stroke-linecap="round" stroke-linejoin="round" stroke-width="1"></path><path d="m17.343 1.67 5.661 4.91 -5.661 4.911" fill="none" stroke="#000000" stroke-linecap="round" stroke-linejoin="round" stroke-width="1"></path><path d="m7.75 11.169 0 2.7" fill="none" stroke="#000000" stroke-linecap="round" stroke-linejoin="round" stroke-width="1"></path></svg>