<svg xmlns="http://www.w3.org/2000/svg" viewBox="0 0 24 24" id="Factory-Building-3--Streamline-Ultimate"><desc>Factory Building 3 Streamline Icon: https://streamlinehq.com</desc><defs></defs><path d="M19.25 16.75V7.5a3.25 3.25 0 0 0 -6.5 0v9.25" fill="none" stroke="#000000" stroke-linecap="round" stroke-linejoin="round" stroke-width="1"></path><path d="M9.25 16.75v-6l-7.857 3a1 1 0 0 0 -0.643 0.934v8.566h22.5v-6.5Z" fill="none" stroke="#000000" stroke-linecap="round" stroke-linejoin="round" stroke-width="1"></path><path d="M7.75 20.75a2 2 0 0 0 -4 0v2.5h4Z" fill="none" stroke="#000000" stroke-linecap="round" stroke-linejoin="round" stroke-width="1"></path><path d="m15.25 20 1 0" fill="none" stroke="#000000" stroke-linecap="round" stroke-linejoin="round" stroke-width="1"></path><path d="m11.25 20 1 0" fill="none" stroke="#000000" stroke-linecap="round" stroke-linejoin="round" stroke-width="1"></path><path d="m19.25 20 1 0" fill="none" stroke="#000000" stroke-linecap="round" stroke-linejoin="round" stroke-width="1"></path><path d="M16.25 4.25v-1.5a2 2 0 0 0 -2 -2h-5a2 2 0 0 0 -2 2v8.684" fill="none" stroke="#000000" stroke-linecap="round" stroke-linejoin="round" stroke-width="1"></path><path d="M19.25 9.75h3a1 1 0 0 1 1 1v6" fill="none" stroke="#000000" stroke-linecap="round" stroke-linejoin="round" stroke-width="1"></path></svg>