<svg xmlns="http://www.w3.org/2000/svg" viewBox="0 0 24 24" id="Factory-Industrial-Robot-Assembly-Line-1--Streamline-Ultimate"><desc>Factory Industrial Robot Assembly Line 1 Streamline Icon: https://streamlinehq.com</desc><defs></defs><path d="M4.75 13.956a4 4 0 0 0 -4 4v5.294h8v-5.294a4 4 0 0 0 -4 -4Z" fill="none" stroke="#000000" stroke-linecap="round" stroke-linejoin="round" stroke-width="1"></path><path d="m2.75 14.491 0 -6.049" fill="none" stroke="#000000" stroke-linecap="round" stroke-linejoin="round" stroke-width="1"></path><path d="m7.5 7.407 0 7.644" fill="none" stroke="#000000" stroke-linecap="round" stroke-linejoin="round" stroke-width="1"></path><path d="M1.75 6.206a3 3 0 1 0 6 0 3 3 0 1 0 -6 0" fill="none" stroke="#000000" stroke-linecap="round" stroke-linejoin="round" stroke-width="1"></path><path d="M11.75 3.75a3 3 0 1 0 6 0 3 3 0 1 0 -6 0" fill="none" stroke="#000000" stroke-linecap="round" stroke-linejoin="round" stroke-width="1"></path><path d="M12.151 2.25 6.723 3.946" fill="none" stroke="#000000" stroke-linecap="round" stroke-linejoin="round" stroke-width="1"></path><path d="m7.72 6.634 4.431 -1.384" fill="none" stroke="#000000" stroke-linecap="round" stroke-linejoin="round" stroke-width="1"></path><path d="m0.75 18.456 8 0" fill="none" stroke="#000000" stroke-linecap="round" stroke-linejoin="round" stroke-width="1"></path><path d="m18.078 11.586 -2.037 -5.131" fill="none" stroke="#000000" stroke-linecap="round" stroke-linejoin="round" stroke-width="1"></path><path d="m0.75 23.25 22.5 0" fill="none" stroke="#000000" stroke-linecap="round" stroke-linejoin="round" stroke-width="1"></path><path d="m13.333 23.25 3.917 -7.892 3.917 7.892 -7.834 0z" fill="none" stroke="#000000" stroke-linecap="round" stroke-linejoin="round" stroke-width="1"></path></svg>