<svg xmlns="http://www.w3.org/2000/svg" viewBox="0 0 24 24" id="Factory-Manufacturing-Process-Bottle--Streamline-Ultimate"><desc>Factory Manufacturing Process Bottle Streamline Icon: https://streamlinehq.com</desc><defs></defs><path d="M23.25 20.223a2.5 2.5 0 0 1 -2.5 2.5H3.25a2.5 2.5 0 0 1 0 -5h17.5a2.5 2.5 0 0 1 2.5 2.5Z" fill="none" stroke="#000000" stroke-linecap="round" stroke-linejoin="round" stroke-width="1"></path><path d="m4.25 20.223 0.5 0" fill="none" stroke="#000000" stroke-linecap="round" stroke-linejoin="round" stroke-width="1"></path><path d="m9.25 20.223 0.5 0" fill="none" stroke="#000000" stroke-linecap="round" stroke-linejoin="round" stroke-width="1"></path><path d="m14.25 20.223 0.5 0" fill="none" stroke="#000000" stroke-linecap="round" stroke-linejoin="round" stroke-width="1"></path><path d="m19.25 20.223 0.5 0" fill="none" stroke="#000000" stroke-linecap="round" stroke-linejoin="round" stroke-width="1"></path><path d="m6.021 7.723 -2 0 -1.004 4.5 0 5.5 4 0 0 -5.5 -0.996 -4.5z" fill="none" stroke="#000000" stroke-linecap="round" stroke-linejoin="round" stroke-width="1"></path><path d="m13.025 7.723 -2 0 -1.004 4.5 0 5.5 4 0 0 -5.5 -0.996 -4.5z" fill="none" stroke="#000000" stroke-linecap="round" stroke-linejoin="round" stroke-width="1"></path><path d="m20.029 7.723 -2 0 -1.004 4.5 0 5.5 4 0 0 -5.5 -0.996 -4.5z" fill="none" stroke="#000000" stroke-linecap="round" stroke-linejoin="round" stroke-width="1"></path><path d="m5.021 4.473 0 0.5" fill="none" stroke="#000000" stroke-linecap="round" stroke-linejoin="round" stroke-width="1"></path><path d="m12.021 4.473 0 0.5" fill="none" stroke="#000000" stroke-linecap="round" stroke-linejoin="round" stroke-width="1"></path><path d="m19.021 4.473 0 0.5" fill="none" stroke="#000000" stroke-linecap="round" stroke-linejoin="round" stroke-width="1"></path><path d="m5.021 1.277 0 0.5" fill="none" stroke="#000000" stroke-linecap="round" stroke-linejoin="round" stroke-width="1"></path><path d="m12.021 1.277 0 0.5" fill="none" stroke="#000000" stroke-linecap="round" stroke-linejoin="round" stroke-width="1"></path><path d="m19.021 1.277 0 0.5" fill="none" stroke="#000000" stroke-linecap="round" stroke-linejoin="round" stroke-width="1"></path></svg>