<svg xmlns="http://www.w3.org/2000/svg" viewBox="0 0 24 24" id="Factory-Building-Eco-Friendly-3--Streamline-Ultimate"><desc>Factory Building Eco Friendly 3 Streamline Icon: https://streamlinehq.com</desc><defs></defs><path d="M22.487 16.251a1 1 0 0 1 0.763 0.972v5.965H0.75V12.212a1 1 0 0 1 1.237 -0.972Z" fill="none" stroke="#000000" stroke-linecap="round" stroke-linejoin="round" stroke-width="1"></path><path d="M5.25 17.688h3a1 1 0 0 1 1 1v4.5l0 0h-5l0 0v-4.5a1 1 0 0 1 1 -1Z" fill="none" stroke="#000000" stroke-linecap="round" stroke-linejoin="round" stroke-width="1"></path><path d="m12.75 19.188 1.5 0" fill="none" stroke="#000000" stroke-linecap="round" stroke-linejoin="round" stroke-width="1"></path><path d="m17.75 19.188 1.5 0" fill="none" stroke="#000000" stroke-linecap="round" stroke-linejoin="round" stroke-width="1"></path><path d="M10.863 5.821a2.25 2.25 0 0 1 -2.061 4 14.063 14.063 0 0 1 -2.835 -3.242 0.75 0.75 0 0 1 0.61 -1.185 14.037 14.037 0 0 1 4.286 0.427Z" fill="none" stroke="#000000" stroke-linecap="round" stroke-linejoin="round" stroke-width="1"></path><path d="M11.78 8.949a5.128 5.128 0 0 1 1.642 2.409" fill="none" stroke="#000000" stroke-linecap="round" stroke-linejoin="round" stroke-width="1"></path><path d="M22.174 0.855a0.749 0.749 0 0 1 0.986 0.84C22.734 4.086 21.4 8.9 17.56 8.6a3.535 3.535 0 0 1 0.562 -7.047 10.576 10.576 0 0 0 4.052 -0.698Z" fill="none" stroke="#000000" stroke-linecap="round" stroke-linejoin="round" stroke-width="1"></path><path d="M13.422 14.035v-3.172a6 6 0 0 1 6 -6" fill="none" stroke="#000000" stroke-linecap="round" stroke-linejoin="round" stroke-width="1"></path></svg>