<svg xmlns="http://www.w3.org/2000/svg" viewBox="0 0 24 24" id="Factory-Building-Eco-Friendly-2--Streamline-Ultimate"><desc>Factory Building Eco Friendly 2 Streamline Icon: https://streamlinehq.com</desc><defs></defs><path d="M17.547 9.185 18.25 0.75l3 0 1 12" fill="none" stroke="#000000" stroke-linecap="round" stroke-linejoin="round" stroke-width="1"></path><path d="M17 23.25h6.25v-9.5a1 1 0 0 0 -1 -1H17.5l-4.912 -3.572a1 1 0 0 0 -1.176 0L6.5 12.75H1.75a1 1 0 0 0 -1 1v9.5h5" fill="none" stroke="#000000" stroke-linecap="round" stroke-linejoin="round" stroke-width="1"></path><path d="m17.729 7 4.042 0 -0.25 -3 -3.542 0 -0.25 3z" fill="none" stroke="#000000" stroke-linecap="round" stroke-linejoin="round" stroke-width="1"></path><path d="M6.453 9.185 5.75 0.75l-3 0 -1 12" fill="none" stroke="#000000" stroke-linecap="round" stroke-linejoin="round" stroke-width="1"></path><path d="M6.271 7 2.229 7l0.25 -3 3.542 0 0.25 3z" fill="none" stroke="#000000" stroke-linecap="round" stroke-linejoin="round" stroke-width="1"></path><path d="M10 20.918s1.589 1.62 3.132 0.952c3.132 -1.365 1.494 -5.587 2.175 -7.5A7.45 7.45 0 0 0 8.9 16.56c-1.359 1.499 -0.949 3.134 1.1 4.358Z" fill="none" stroke="#000000" stroke-linecap="round" stroke-linejoin="round" stroke-width="1"></path><path d="M11.629 18.193s-1.929 0.916 -2.279 4.859" fill="none" stroke="#000000" stroke-linecap="round" stroke-linejoin="round" stroke-width="1"></path></svg>