<svg xmlns="http://www.w3.org/2000/svg" fill="none" viewBox="0 0 24 24" id="Factory-Building-Cog-1--Streamline-Ultimate"><desc>Factory Building Cog 1 Streamline Icon: https://streamlinehq.com</desc><path stroke="#000000" stroke-linecap="round" stroke-linejoin="round" d="M7.25 0.878766c1.03212 -0.018618 2.05537 0.193544 2.995 0.621004 7.43 3.172 10.5 -0.740004 10.5 -0.740004" stroke-width="1"></path><path stroke="#000000" stroke-linecap="round" stroke-linejoin="round" d="M14.25 23.2402H0.75v-8c0 -0.2652 0.105357 -0.5195 0.29289 -0.7071 0.18754 -0.1875 0.44189 -0.2929 0.70711 -0.2929h9l7 -6.99997 5.5 5.49997" stroke-width="1"></path><path stroke="#000000" stroke-linecap="round" stroke-linejoin="round" d="m3.5 14.2402 1 -9.99997h3l1 9.99997" stroke-width="1"></path><path stroke="#000000" d="M18.7657 18.7432c-0.2762 0 -0.5 -0.2239 -0.5 -0.5 0 -0.2762 0.2238 -0.5 0.5 -0.5" stroke-width="1"></path><path stroke="#000000" d="M18.7657 18.7432c0.2761 0 0.5 -0.2239 0.5 -0.5 0 -0.2762 -0.2239 -0.5 -0.5 -0.5" stroke-width="1"></path><path stroke="#000000" stroke-linecap="round" stroke-linejoin="round" d="M21.6657 21.2372c0.2578 0.104 0.5444 0.1113 0.8072 0.0207 0.2628 -0.0906 0.484 -0.2731 0.6228 -0.5139 0.1389 -0.2408 0.1862 -0.5236 0.1331 -0.7964 -0.0532 -0.2729 -0.203 -0.5173 -0.4221 -0.6884 -0.1539 -0.121 -0.2783 -0.2754 -0.3639 -0.4515 -0.0856 -0.176 -0.13 -0.3693 -0.13 -0.565 0 -0.1958 0.0444 -0.389 0.13 -0.5651 0.0856 -0.1761 0.21 -0.3304 0.3639 -0.4514 0.219 -0.171 0.3689 -0.4154 0.422 -0.6881 0.0531 -0.2728 0.0058 -0.5555 -0.1331 -0.7961 -0.139 -0.2407 -0.3602 -0.423 -0.623 -0.5134 -0.2628 -0.0903 -0.5493 -0.0827 -0.8069 0.0216 -0.1818 0.0728 -0.3778 0.1035 -0.5731 0.0895 -0.1954 -0.0139 -0.385 -0.0721 -0.5546 -0.17 -0.1696 -0.098 -0.3147 -0.2332 -0.4244 -0.3954 -0.1097 -0.1622 -0.1812 -0.3473 -0.2089 -0.5411 -0.0399 -0.2742 -0.1771 -0.5248 -0.3867 -0.7061 -0.2095 -0.1812 -0.4773 -0.281 -0.7543 -0.281 -0.2771 0 -0.5448 0.0998 -0.7544 0.281 -0.2095 0.1813 -0.3467 0.4319 -0.3866 0.7061 -0.0281 0.1933 -0.0995 0.3777 -0.209 0.5394 -0.1096 0.1617 -0.2543 0.2965 -0.4234 0.3943 -0.169 0.0977 -0.3581 0.1559 -0.5528 0.1702 -0.1948 0.0142 -0.3903 -0.0158 -0.5718 -0.0879 -0.2578 -0.104 -0.5445 -0.1114 -0.8072 -0.0207 -0.2628 0.0906 -0.484 0.2731 -0.6229 0.5138 -0.1389 0.2408 -0.1861 0.5237 -0.133 0.7965 0.0531 0.2728 0.203 0.5173 0.4221 0.6884 0.1539 0.121 0.2783 0.2753 0.3639 0.4514 0.0855 0.1761 0.13 0.3693 0.13 0.5651 0 0.1957 -0.0445 0.389 -0.13 0.565 -0.0856 0.1761 -0.21 0.3305 -0.3639 0.4515 -0.2191 0.1709 -0.369 0.4153 -0.422 0.6881 -0.0531 0.2727 -0.0058 0.5555 0.1331 0.7961 0.139 0.2406 0.3602 0.4229 0.623 0.5133 0.2627 0.0904 0.5493 0.0827 0.8069 -0.0215 0.1818 -0.0729 0.3777 -0.1035 0.5731 -0.0896 0.1953 0.014 0.385 0.0721 0.5546 0.1701 0.1696 0.0979 0.3147 0.2331 0.4244 0.3953 0.1097 0.1623 0.1811 0.3473 0.2089 0.5412 0.0399 0.2741 0.1771 0.5248 0.3866 0.706 0.2096 0.1813 0.4773 0.2811 0.7544 0.2811 0.277 0 0.5448 -0.0998 0.7543 -0.2811 0.2096 -0.1812 0.3468 -0.4319 0.3867 -0.706 0.028 -0.1933 0.0995 -0.3777 0.209 -0.5394 0.1095 -0.1617 0.2543 -0.2965 0.4233 -0.3943 0.1691 -0.0978 0.3581 -0.156 0.5529 -0.1702 0.1948 -0.0143 0.3903 0.0158 0.5718 0.0879v0Z" stroke-width="1"></path></svg>