<svg xmlns="http://www.w3.org/2000/svg" viewBox="0 0 24 24" id="Factory-Robot-Arm-Box--Streamline-Ultimate"><desc>Factory Robot Arm Box Streamline Icon: https://streamlinehq.com</desc><defs></defs><path d="m8.5 4.021 0 14.906 2.25 4.323 -8.5 0 2.291 -4.375L4.5 4.019" fill="none" stroke="#000000" stroke-linecap="round" stroke-linejoin="round" stroke-width="1"></path><path d="m16.536 4.5 -7.752 0" fill="none" stroke="#000000" stroke-linecap="round" stroke-linejoin="round" stroke-width="1"></path><path d="m8.168 1.5 8.544 0" fill="none" stroke="#000000" stroke-linecap="round" stroke-linejoin="round" stroke-width="1"></path><path d="M15.25 18.25h6v5h-6Z" fill="none" stroke="#000000" stroke-linecap="round" stroke-linejoin="round" stroke-width="1"></path><path d="M15.25 18.25 13.5 16.5" fill="none" stroke="#000000" stroke-linecap="round" stroke-linejoin="round" stroke-width="1"></path><path d="M21.25 18.25 23 16.5" fill="none" stroke="#000000" stroke-linecap="round" stroke-linejoin="round" stroke-width="1"></path><path d="M18.25 7.75a1.442 1.442 0 0 1 -1.427 -1.237l-0.5 -3.536a1.951 1.951 0 1 1 3.864 0l-0.5 3.536A1.442 1.442 0 0 1 18.25 7.75Z" fill="none" stroke="#000000" stroke-linecap="round" stroke-linejoin="round" stroke-width="1"></path><path d="m16.826 6.531 -1.005 0.451a3.7 3.7 0 0 0 -2.071 4.268h0" fill="none" stroke="#000000" stroke-linecap="round" stroke-linejoin="round" stroke-width="1"></path><path d="m19.674 6.531 1 0.451a3.7 3.7 0 0 1 2.076 4.268h0" fill="none" stroke="#000000" stroke-linecap="round" stroke-linejoin="round" stroke-width="1"></path><path d="M16.5 11H20v3.5h-3.5Z" fill="none" stroke="#000000" stroke-linecap="round" stroke-linejoin="round" stroke-width="1"></path><path d="M4.25 3a2.25 2.25 0 1 0 4.5 0 2.25 2.25 0 1 0 -4.5 0" fill="none" stroke="#000000" stroke-linecap="round" stroke-linejoin="round" stroke-width="1"></path><path d="m1 23.25 11 0" fill="none" stroke="#000000" stroke-linecap="round" stroke-linejoin="round" stroke-width="1"></path></svg>