<svg xmlns="http://www.w3.org/2000/svg" viewBox="0 0 24 24" id="Factory-Building-4--Streamline-Ultimate"><desc>Factory Building 4 Streamline Icon: https://streamlinehq.com</desc><defs></defs><path d="M10.3 13.289c-0.037 -0.731 -0.054 -1.492 -0.054 -2.289v-0.75a1 1 0 0 0 -1 -1H4.75a1 1 0 0 0 -1 1V11c0 5.1 -0.681 8.75 -3 12.25H5" fill="none" stroke="#000000" stroke-linecap="round" stroke-linejoin="round" stroke-width="1"></path><path d="M9.25 16.5h13a1 1 0 0 1 1 1v5.75l0 0h-15l0 0V17.5a1 1 0 0 1 1 -1Z" fill="none" stroke="#000000" stroke-linecap="round" stroke-linejoin="round" stroke-width="1"></path><path d="M16.25 12.5h4a1 1 0 0 1 1 1v3l0 0h-6l0 0v-3a1 1 0 0 1 1 -1Z" fill="none" stroke="#000000" stroke-linecap="round" stroke-linejoin="round" stroke-width="1"></path><path d="m19.75 12.5 0 -2" fill="none" stroke="#000000" stroke-linecap="round" stroke-linejoin="round" stroke-width="1"></path><path d="m11.25 19.75 1 0" fill="none" stroke="#000000" stroke-linecap="round" stroke-linejoin="round" stroke-width="1"></path><path d="m19.25 19.75 1 0" fill="none" stroke="#000000" stroke-linecap="round" stroke-linejoin="round" stroke-width="1"></path><path d="m15.25 19.75 1 0" fill="none" stroke="#000000" stroke-linecap="round" stroke-linejoin="round" stroke-width="1"></path><path d="M12 0.75a2.241 2.241 0 0 0 -2.125 1.542 2.737 2.737 0 0 0 -3.73 3.958" fill="none" stroke="#000000" stroke-linecap="round" stroke-linejoin="round" stroke-width="1"></path><path d="M10.364 6.25a2.753 2.753 0 0 0 0.588 -1.27A2.233 2.233 0 0 0 14.25 3" fill="none" stroke="#000000" stroke-linecap="round" stroke-linejoin="round" stroke-width="1"></path></svg>