<svg xmlns="http://www.w3.org/2000/svg" viewBox="0 0 24 24" id="Factory-Automated-Bottle-Fill--Streamline-Ultimate"><desc>Factory Automated Bottle Fill Streamline Icon: https://streamlinehq.com</desc><defs></defs><path d="M1.75 13.875v1.5l-1 2.75v3.75a1 1 0 0 0 1 1h3a1 1 0 0 0 1 -1v-3.75l-1 -2.75v-1.5" fill="none" stroke="#000000" stroke-linecap="round" stroke-linejoin="round" stroke-width="1"></path><path d="M22.25 13.875v1.5l1 2.75v3.75a1 1 0 0 1 -1 1h-3a1 1 0 0 1 -1 -1v-3.75l1 -2.75v-1.5" fill="none" stroke="#000000" stroke-linecap="round" stroke-linejoin="round" stroke-width="1"></path><path d="M10.5 13.875v1.5l-1 2.75v3.75a1 1 0 0 0 1 1h3a1 1 0 0 0 1 -1v-3.75l-1 -2.75v-1.5" fill="none" stroke="#000000" stroke-linecap="round" stroke-linejoin="round" stroke-width="1"></path><path d="M7.75 1.125v3.5a1 1 0 0 0 1 1h0.909l0.841 2h3l0.841 -2h0.909a1 1 0 0 0 1 -1v-3.5Z" fill="none" stroke="#000000" stroke-linecap="round" stroke-linejoin="round" stroke-width="1"></path><path d="m12 10.125 0 -2.5" fill="none" stroke="#000000" stroke-linecap="round" stroke-linejoin="round" stroke-width="1"></path><path d="m10.318 15.875 3.364 0" fill="none" stroke="#000000" stroke-linecap="round" stroke-linejoin="round" stroke-width="1"></path></svg>