<svg xmlns="http://www.w3.org/2000/svg" viewBox="0 0 24 24" id="Factory-Manufacturing-Plan--Streamline-Ultimate"><desc>Factory Manufacturing Plan Streamline Icon: https://streamlinehq.com</desc><defs></defs><path d="M9 5.5h6v6H9Z" fill="none" stroke="#000000" stroke-linecap="round" stroke-linejoin="round" stroke-width="1"></path><path d="m12 5.5 0 2.143" fill="none" stroke="#000000" stroke-linecap="round" stroke-linejoin="round" stroke-width="1"></path><path d="M19 13a1.5 1.5 0 0 1 -1.5 1.5h-11a1.5 1.5 0 0 1 0 -3h11A1.5 1.5 0 0 1 19 13Z" fill="none" stroke="#000000" stroke-linecap="round" stroke-linejoin="round" stroke-width="1"></path><path d="M23.25 3a0.5 0.5 0 0 0 -0.5 -0.5h-20a2.006 2.006 0 0 0 -2 2v15a2 2 0 0 1 2 -2h20a0.5 0.5 0 0 0 0.5 -0.5Z" fill="none" stroke="#000000" stroke-linecap="round" stroke-linejoin="round" stroke-width="1"></path><path d="M0.75 19.5a2 2 0 0 0 2 2h8v-4" fill="none" stroke="#000000" stroke-linecap="round" stroke-linejoin="round" stroke-width="1"></path></svg>