<svg xmlns="http://www.w3.org/2000/svg" fill="none" viewBox="0 0 24 24" id="Hardware-Optimization-Notebook-2--Streamline-Ultimate"><desc>Hardware Optimization Notebook 2 Streamline Icon: https://streamlinehq.com</desc><path stroke="#000000" stroke-linecap="round" stroke-linejoin="round" stroke-miterlimit="10" d="M20.25 6.66248c0.8 0 1.5 0.7 1.5 1.5V18.6625" stroke-width="1"></path><path stroke="#000000" stroke-linecap="round" stroke-linejoin="round" stroke-miterlimit="10" d="M2.25 18.6625V8.16248c0 -0.8 0.7 -1.5 1.5 -1.5" stroke-width="1"></path><path stroke="#000000" stroke-linecap="round" stroke-linejoin="round" stroke-miterlimit="10" d="M14.55 18.6625c-0.5 0.9 -1.5 1.5 -2.6 1.5s-2.1 -0.6 -2.6 -1.5H0.75v1.5c0 1.7 1.3 3 3 3h16.5c1.7 0 3 -1.3 3 -3v-1.5h-8.7Z" stroke-width="1"></path><path stroke="#000000" stroke-linecap="round" stroke-linejoin="round" stroke-miterlimit="10" d="m13.0501 1.66252 0.3999 1.30002c0.1 0.5 0.6001 0.70001 1.1001 0.60001l1.3999 -0.30002c1.2 -0.3 2.0001 1.20001 1.2001 2.10001l-1 1c-0.3 0.4 -0.3 0.89998 0 1.29998l1 1c0.8 0.9 -0.0001 2.29998 -1.2001 2.09998l-1.3999 -0.3c-0.5 -0.1 -0.9001 0.2 -1.1001 0.6l-0.3999 1.3c-0.4 1.2 -2 1.2 -2.4 0l-0.4001 -1.3c-0.1 -0.5 -0.59995 -0.7 -1.09995 -0.6l-1.4 0.3c-1.2 0.3 -2 -1.19998 -1.2 -2.09998l1 -1c0.3 -0.4 0.3 -0.89998 0 -1.29998l-1 -1c-0.8 -0.9 0 -2.30001 1.2 -2.10001l1.4 0.30002c0.5 0.1 0.89995 -0.20001 1.09995 -0.60001l0.4001 -1.30002c0.4 -1.099996 2 -1.099996 2.4 0Z" stroke-width="1"></path><path stroke="#000000" stroke-linecap="round" stroke-linejoin="round" stroke-miterlimit="10" d="m13.05 5.86255 -1.5 1.5" stroke-width="1"></path></svg>