<svg xmlns="http://www.w3.org/2000/svg" fill="none" viewBox="0 0 24 24" id="Helmet-Malfunction--Streamline-Ultimate"><desc>Helmet Malfunction Streamline Icon: https://streamlinehq.com</desc><path stroke="#000000" stroke-linecap="round" stroke-linejoin="round" stroke-miterlimit="10" d="M14.6394 15.5365c0.6782 0.9689 1.0658 2.1316 1.0658 3.488v0.9689" stroke-width="1"></path><path stroke="#000000" stroke-linecap="round" stroke-linejoin="round" stroke-miterlimit="10" d="M10.7639 15.052v4.9414" stroke-width="1"></path><path stroke="#000000" stroke-linecap="round" stroke-linejoin="round" stroke-miterlimit="10" d="M7.85718 19.9933v-7.7511c0 -0.5813 0.38755 -0.9689 0.96889 -0.9689" stroke-width="1"></path><path stroke="#000000" stroke-linecap="round" stroke-linejoin="round" stroke-miterlimit="10" d="M17.5461 21.9311c0 0.5814 -0.3876 0.9689 -0.9689 0.9689H2.04384c-0.58133 0 -0.96889 -0.3875 -0.96889 -0.9689v-0.9689c0 -0.5813 0.38756 -0.9689 0.96889 -0.9689H16.5772c0.5813 0 0.9689 0.3876 0.9689 0.9689v0.9689Z" stroke-width="1"></path><path stroke="#000000" stroke-linecap="round" stroke-linejoin="round" stroke-miterlimit="10" d="M7.85721 12.9204c-2.80978 0.6782 -4.84445 3.1974 -4.84445 6.104v0.9689" stroke-width="1"></path><path stroke="#000000" stroke-linecap="round" stroke-linejoin="round" stroke-miterlimit="10" d="M17.1101 10.0138c-0.2141 0 -0.3876 -0.1735 -0.3876 -0.38754s0.1735 -0.38755 0.3876 -0.38755" stroke-width="1"></path><path stroke="#000000" stroke-linecap="round" stroke-linejoin="round" stroke-miterlimit="10" d="M17.1101 10.0138c0.2141 0 0.3876 -0.1735 0.3876 -0.38754s-0.1735 -0.38755 -0.3876 -0.38755" stroke-width="1"></path><path stroke="#000000" stroke-linecap="round" stroke-linejoin="round" stroke-miterlimit="10" d="M17.1102 6.71951V5.26617" stroke-width="1"></path><path stroke="#000000" stroke-linecap="round" stroke-linejoin="round" stroke-miterlimit="10" d="M17.8852 1.58442c-0.1937 -0.29067 -0.4844 -0.48444 -0.7751 -0.48444 -0.3875 0 -0.6782 0.19377 -0.7751 0.48444l-4.9413 9.30138c-0.1938 0.2906 -0.0969 0.5813 0 0.872 0.1938 0.2906 0.4844 0.3875 0.7751 0.3875h9.7858c0.2907 0 0.5813 -0.1937 0.7751 -0.3875 0.1938 -0.2907 0.1938 -0.5814 0 -0.872l-4.8445 -9.30138Z" stroke-width="1"></path></svg>