<svg xmlns="http://www.w3.org/2000/svg" fill="none" viewBox="0 0 24 24" id="Helmet-Cog--Streamline-Ultimate"><desc>Helmet Cog Streamline Icon: https://streamlinehq.com</desc><path stroke="#000000" stroke-linecap="round" stroke-linejoin="round" stroke-miterlimit="10" d="M10.8 12.9267c2.9 0.7 5 3.3 5 6.3v1m-7.99995 0v-8c0 -0.6 0.4 -1 1 -1h1c0.59995 0 0.99995 0.4 0.99995 1v8m-2.99995 -7.3c-2.9 0.7 -5 3.3 -5 6.3v1m14.99995 2c0 0.6 -0.4 1 -1 1H1.80005c-0.6 0 -1.000001 -0.4 -1.000001 -1v-1c0 -0.6 0.400001 -1 1.000001 -1H16.8c0.6 0 1 0.4 1 1v1Z" stroke-width="1"></path><path stroke="#000000" stroke-linecap="round" stroke-linejoin="round" stroke-miterlimit="10" d="m19.2003 1.62499 0.4 1.2c0.1 0.4 0.6 0.7 1 0.6l1.2 -0.3c1.1 -0.2 1.8 1 1.1 1.8l-0.9 0.9c-0.3 0.3 -0.3 0.8 0 1.1l0.9 0.9c0.7 0.8 0 2.1 -1.1 1.8l-1.2 -0.1c-0.4 -0.1 -0.9 0.1 -1 0.60001l-0.4 1.2c-0.3 1.1 -1.8 1.1 -2.1 0l-0.4 -1.2c-0.1 -0.40001 -0.6 -0.70001 -1 -0.60001l-1.2 0.3c-1.1 0.20001 -1.8 -1 -1.1 -1.8l0.9 -0.9c0.3 -0.3 0.3 -0.8 0 -1.1l-0.8 -1.1c-0.7 -0.8 0 -2.1 1.1 -1.8l1.2 0.3c0.4 0.1 0.9 -0.1 1 -0.6l0.4 -1.2c0.2 -1.100002 1.7 -1.100002 2 0Z" stroke-width="1"></path><path stroke="#000000" d="M16.65 6.475a1.5 1.5 0 1 0 3 0 1.5 1.5 0 1 0 -3 0" stroke-width="1"></path></svg>