<svg xmlns="http://www.w3.org/2000/svg" fill="none" viewBox="0 0 24 24" id="Helmet-Improvement--Streamline-Ultimate"><desc>Helmet Improvement Streamline Icon: https://streamlinehq.com</desc><path stroke="#000000" stroke-linecap="round" stroke-linejoin="round" stroke-miterlimit="10" d="M0.799988 4.29999 3.79999 0.799988l3 3.500002" stroke-width="1"></path><path stroke="#000000" stroke-linecap="round" stroke-linejoin="round" stroke-miterlimit="10" d="M3.79999 0.799988V11.8" stroke-width="1"></path><path stroke="#000000" stroke-linecap="round" stroke-linejoin="round" stroke-miterlimit="10" d="m17.1999 4.29999 3 -3.500002 3 3.500002" stroke-width="1"></path><path stroke="#000000" stroke-linecap="round" stroke-linejoin="round" stroke-miterlimit="10" d="M20.1999 0.799988V11.8" stroke-width="1"></path><path stroke="#000000" stroke-linecap="round" stroke-linejoin="round" stroke-miterlimit="10" d="M13.5 12.9c2.9 0.7 5 3.3 5 6.3v1m-8 0v-8c0 -0.6 0.4 -1 1 -1h1c0.6 0 1 0.4 1 1v8m-3 -7.3c-2.9 0.7 -5 3.3 -5 6.3v1m15 2c0 0.6 -0.4 1 -1 1h-15c-0.6 0 -1 -0.4 -1 -1v-1c0 -0.6 0.4 -1 1 -1h15c0.6 0 1 0.4 1 1v1Z" stroke-width="1"></path></svg>