<svg xmlns="http://www.w3.org/2000/svg" fill="none" viewBox="0 0 24 24" id="Helmet-Code--Streamline-Ultimate"><desc>Helmet Code Streamline Icon: https://streamlinehq.com</desc><path stroke="#000000" stroke-linecap="round" stroke-linejoin="round" stroke-miterlimit="10" d="M10.85 12.9134c2.9 0.7 5 3.3 5 6.3v1m-8.00002 -0.0001v-8c0 -0.6 0.4 -1 1 -1h1c0.60002 0 1.00002 0.4 1.00002 1v8m-3.00002 -7.2999c-2.9 0.7 -5 3.3 -5 6.3v1M17.85 22.2133c0 0.6 -0.4 1 -1 1H1.84998c-0.6 0 -1.000004 -0.4 -1.000004 -1v-1c0 -0.6 0.400004 -1 1.000004 -1H16.85c0.6 0 1 0.4 1 1v1Z" stroke-width="1"></path><path stroke="#000000" stroke-linecap="round" stroke-linejoin="round" stroke-miterlimit="10" d="M9.15002 8.19674V1.78665c0 -0.6 0.4 -0.999998 0.99998 -0.999998h9.6c0.2 0 0.5 0.099999 0.6 0.199999l2.4 1.999999c0.2 0.2 0.4 0.5 0.4 0.8V16.2867c0 0.6 -0.4 1 -1 1h-2.4" stroke-width="1"></path><path stroke="#000000" stroke-linecap="round" stroke-linejoin="round" stroke-miterlimit="10" d="m13.15 4.98663 -1.5 1.5 1.5 1.5" stroke-width="1"></path><path stroke="#000000" stroke-linecap="round" stroke-linejoin="round" stroke-miterlimit="10" d="m19.15 4.98663 1.5 1.5 -1.5 1.5" stroke-width="1"></path><path stroke="#000000" stroke-linecap="round" stroke-linejoin="round" stroke-miterlimit="10" d="m15.15 8.48666 2 -4.5" stroke-width="1"></path></svg>