<svg xmlns="http://www.w3.org/2000/svg" fill="none" viewBox="0 0 24 24" id="House-Helmet-1--Streamline-Ultimate"><desc>House Helmet 1 Streamline Icon: https://streamlinehq.com</desc><path stroke="#000000" stroke-linecap="round" stroke-linejoin="round" stroke-miterlimit="10" d="m9.3125 6.76078 6.8437 -5.65749L23 6.76078" stroke-width="1"></path><path stroke="#000000" stroke-linecap="round" stroke-linejoin="round" stroke-miterlimit="10" d="M20.7188 5.39204v5.65746c0 0.365 -0.2737 0.73 -0.73 0.73h-2.555V8.85954c0 -0.73 -0.6387 -1.36874 -1.3687 -1.36874s-1.3688 0.63874 -1.3688 1.36874v2.91996h-2.4637c-0.365 0 -0.73 -0.2737 -0.73 -0.73V5.39204" stroke-width="1"></path><path stroke="#000000" stroke-linecap="round" stroke-linejoin="round" stroke-miterlimit="10" d="M8.95001 14.4C11.15 15 12.75 17.1 12.75 19.5v0.7" stroke-width="1"></path><path stroke="#000000" stroke-linecap="round" stroke-linejoin="round" stroke-miterlimit="10" d="M5.95001 20.2V13c0 -0.6 0.4 -1 1 -1h1c0.6 0 1 0.4 1 1v7.2" stroke-width="1"></path><path stroke="#000000" stroke-linecap="round" stroke-linejoin="round" stroke-miterlimit="10" d="M14.25 22.2c0 0.6 -0.4 1 -1 1H1.75c-0.6 0 -1 -0.4 -1 -1v-1c0 -0.6 0.4 -1 1 -1h11.5c0.6 0 1 0.4 1 1v1Z" stroke-width="1"></path><path stroke="#000000" stroke-linecap="round" stroke-linejoin="round" stroke-miterlimit="10" d="M5.94996 14.4c-2.2 0.6 -3.8 2.7 -3.8 5.1v0.7" stroke-width="1"></path></svg>