<svg xmlns="http://www.w3.org/2000/svg" fill="none" viewBox="0 0 24 24" id="Idea-Cog--Streamline-Ultimate"><desc>Idea Cog Streamline Icon: https://streamlinehq.com</desc><path stroke="#000000" stroke-linecap="round" stroke-linejoin="round" stroke-miterlimit="10" d="M13.9 17.5638v2.1737c0 1 -0.8 1.9 -1.9 1.9m0 0c-1.1 0 -1.9 -0.8 -1.9 -1.9v-2.1737m1.9 4.0737 0 1.5m5 -10.2c0 2.7614 -2.2386 5 -5 5 -2.76142 0 -5 -2.2386 -5 -5s2.23858 -5 5 -5c2.7614 0 5 2.2386 5 5Z" stroke-width="1"></path><path stroke="#000000" stroke-linecap="round" stroke-linejoin="round" stroke-miterlimit="10" d="M18.1799 18.18c0.4664 -0.3498 0.9328 -0.583 1.5159 -0.583l1.3992 0.1166c0.8162 0.1166 1.5158 -0.4664 1.8656 -1.1661 0.3498 -0.8162 0.1167 -1.6324 -0.4664 -2.2154l-1.0494 -0.9329c-0.3498 -0.3498 -0.583 -0.8162 -0.583 -1.3992 0 -0.4664 0.2332 -1.0494 0.583 -1.3992l1.0494 -0.93285c0.5831 -0.58302 0.8162 -1.51586 0.4664 -2.21548 -0.3498 -0.69962 -1.0494 -1.16603 -1.8656 -1.16603l-1.3992 0.11661c-0.5831 0 -1.1661 -0.23321 -1.5159 -0.58302 -0.3498 -0.46641 -0.583 -0.93283 -0.583 -1.51584l0.1166 -1.39924c0.1166 -0.81622 -0.4664 -1.51585 -1.166 -1.86566 -0.8163 -0.349806 -1.6325 -0.116589 -2.2155 0.46643l-0.9328 1.04942c-0.3498 0.34981 -0.8162 0.58302 -1.3993 0.58302 -0.583 0 -1.0493 -0.23321 -1.3992 -0.58302l-0.93277 -1.04942C9.08491 0.922701 8.2687 0.689484 7.45248 1.03929c-0.69962 0.34981 -1.28264 1.04944 -1.16604 1.86566l0.11661 1.39924c0 0.58301 -0.2332 1.04943 -0.58301 1.51584 -0.34981 0.34981 -0.93285 0.58302 -1.51587 0.58302l-1.39921 -0.11661c-0.81623 0 -1.51585 0.46641 -1.86566 1.16603 -0.349812 0.69962 -0.116613 1.63246 0.4664 2.21548l1.04943 0.93285c0.34981 0.3498 0.58301 0.9328 0.58301 1.3992 0 0.583 -0.2332 1.0494 -0.58301 1.3992l-1.04943 0.9329c-0.583013 0.583 -0.816212 1.3992 -0.4664 2.2154 0.34981 0.6997 1.04943 1.2827 1.86566 1.1661l1.39921 -0.1166c0.58302 0 1.04945 0.2332 1.51587 0.583" stroke-width="1"></path></svg>