<svg xmlns="http://www.w3.org/2000/svg" fill="none" viewBox="0 0 24 24" id="Maintenance-Tool--Streamline-Ultimate"><desc>Maintenance Tool Streamline Icon: https://streamlinehq.com</desc><path stroke="#000000" stroke-linecap="round" stroke-linejoin="round" stroke-miterlimit="10" d="m4.59204 12.308 0.89999 -0.8c0.3 -0.3 0.5 -0.8 0.5 -1.2 0 -0.40001 -0.2 -0.90002 -0.5 -1.20002l-0.89999 -0.79999c-0.5 -0.5 -0.7 -1.20001 -0.4 -1.90001 0.3 -0.6 0.90001 -1.1 1.60001 -1l1.19998 0.10001c0.5 0 0.90002 -0.2 1.30002 -0.5 0.3 -0.3 0.5 -0.80001 0.5 -1.30001l-0.10001 -1.19999c0 -0.7 0.4 -1.30001 1 -1.600009 0.59996 -0.3 1.39996 -0.099991 1.89996 0.400009l0.8 0.89999c0.3 0.3 0.8 0.5 1.2 0.5 0.5 0 0.9 -0.2 1.2 -0.5l0.8 -0.89999c0.5 -0.5 1.2 -0.700009 1.9 -0.400009 0.6 0.299999 1.1 0.900009 1 1.600009l-0.1 1.19999c0 0.5 0.2 0.90001 0.5 1.30001 0.3 0.3 0.8 0.5 1.3 0.5l1.2 -0.10001c0.7 0 1.3 0.4 1.6 1 0.3 0.6 0.1 1.40001 -0.4 1.90001l-0.9 0.79999c-0.3 0.3 -0.5 0.80001 -0.5 1.20002 0 0.4 0.2 0.9 0.5 1.2l0.9 0.8c0.5 0.5 0.7 1.2 0.4 1.9 -0.3 0.6 -0.9 1.1 -1.6 1l-1.2 -0.1c-0.5 0 -0.9 0.2 -1.3 0.5 -0.3 0.3 -0.5 0.8 -0.5 1.3l0.1 1.2c0 0.7 -0.4 1.3 -1 1.6 -0.6 0.3 -1.4 0.1 -1.9 -0.4l-0.8 -0.9c-0.3 -0.3 -0.8 -0.5 -1.2 -0.5 -0.5 0 -0.9 0.2 -1.2 0.5l-0.8 0.9" stroke-width="1"></path><path stroke="#000000" stroke-linecap="round" stroke-linejoin="round" stroke-miterlimit="10" d="M18.0921 11.708c-0.2 0.6 -0.5 1.2 -1 1.7 -1.3 1.3 -3.2 1.6 -4.9 1l-8.30003 8.3c-0.7 0.7 -1.8 0.7 -2.5 0 -0.700005 -0.7 -0.700005 -1.8 0 -2.5l8.30001 -8.3c-0.8 -1.9 -0.20001 -4.19999 1.80002 -5.49999 1.2 -0.8 2.8 -0.90001 4.1 -0.30001 1.3 0.6 2.1 1.50001 2.4 2.60001h-3.5c-0.8 0 -1.5 0.7 -1.5 1.49999 0 0.8 0.7 1.5 1.5 1.5h3.6Z" stroke-width="1"></path></svg>