<svg xmlns="http://www.w3.org/2000/svg" fill="none" viewBox="0 0 24 24" id="Maintenance-Wrench--Streamline-Ultimate"><desc>Maintenance Wrench Streamline Icon: https://streamlinehq.com</desc><path stroke="#000000" stroke-linecap="round" stroke-linejoin="round" stroke-miterlimit="10" d="M5.56545 11.5066c0.3 -0.3 0.5 -0.8 0.5 -1.2 0 -0.49995 -0.2 -0.89995 -0.5 -1.19995l-0.89999 -0.8c-0.5 -0.5 -0.69999 -1.20001 -0.39999 -1.90001 0.3 -0.6 0.9 -1.1 1.6 -1l1.19998 0.1c0.5 0 0.90002 -0.2 1.30002 -0.5 0.3 -0.3 0.5 -0.8 0.5 -1.3l-0.1 -1.2c0 -0.7 0.4 -1.3 1 -1.600002 0.60003 -0.3 1.40003 -0.099991 1.90003 0.400012l0.7999 0.89999c0.3 0.3 0.8001 0.5 1.2001 0.5 0.5 0 0.9 -0.2 1.2 -0.5l0.8 -0.89999c0.5 -0.500003 1.2 -0.700012 1.9 -0.400012 0.6 0.300002 1.1 0.900002 1 1.600002l-0.1001 1.2c0 0.5 0.2 0.9 0.5 1.3 0.3 0.3 0.8001 0.5 1.3001 0.5l1.1999 -0.1c0.7 0 1.3001 0.4 1.6001 1 0.3 0.6 0.1 1.40001 -0.4 1.90001l-0.9 0.8c-0.3 0.3 -0.5 0.8 -0.5 1.19995 0 0.5 0.2 0.9 0.5 1.2l0.9 0.8c0.5 0.5 0.7 1.2001 0.4 1.9001 -0.3 0.6 -0.9001 1.1 -1.6001 1l-1.1999 -0.1c-0.5 0 -0.9001 0.2 -1.3001 0.5 -0.3 0.3 -0.5 0.7999 -0.5 1.2999l0.1001 1.2c0 0.7 -0.4 1.3001 -1 1.6001 -0.6 0.3 -1.4 0.0999 -1.9 -0.4001l-0.8 -0.9c-0.3 -0.3 -0.8 -0.5 -1.2 -0.5 -0.5 0 -0.9001 0.2 -1.2001 0.5l-0.7999 0.9" stroke-width="1"></path><path stroke="#000000" stroke-linecap="round" stroke-linejoin="round" stroke-miterlimit="10" d="m15.3656 10.8067 1.9294 -1.92944c0.5529 1.38614 0.3445 3.15544 -0.8294 4.32944 -1.1 1.1 -2.7 1.4 -4.1 0.9l-3.90004 3.9c0.5 1.4 0.2 3 -0.9 4.1 -1.18086 1.1808 -2.84593 1.3934 -4.32811 0.8281l1.92809 -1.9281c0.6 -0.6 0.6 -1.5 0 -2.1 -0.6 -0.6 -1.49998 -0.6 -2.09998 0L1.13425 20.838c-0.659362 -1.483 -0.350414 -3.1496 0.83131 -4.3313 1.1 -1.1 2.7 -1.4 4.1 -0.9l3.9 -3.9c-0.5 -1.4 -0.20001 -3.00001 0.90004 -4.10001 1.1744 -1.17446 2.8519 -1.38191 4.328 -0.8281l-1.9281 1.92809c-0.6 0.6 -0.6 1.50002 0 2.10002 0.6 0.6 1.5001 0.6 2.1001 0Z" stroke-width="1"></path></svg>