<svg xmlns="http://www.w3.org/2000/svg" fill="none" viewBox="0 0 24 24" id="Person-Malfunction--Streamline-Ultimate"><desc>Person Malfunction Streamline Icon: https://streamlinehq.com</desc><path stroke="#000000" stroke-linecap="round" stroke-linejoin="round" stroke-miterlimit="10" d="M12 23.2c-1.2 -1.7 -3.2 -2.8 -5.5 -2.8S2.2 21.5 1 23.2" stroke-width="1"></path><path stroke="#000000" stroke-linecap="round" stroke-linejoin="round" stroke-miterlimit="10" d="M6.5001 11.4V8.39996M1 14.3h7.74039m-0.24811 -4.40037C7.90574 9.58025 7.22791 9.39996 6.5 9.39996c-2.2 0 -4 1.80004 -4.1 4.00004v2c0.1 2.2 1.9 4 4.1 4 1.99091 0 3.6072 -1.3488 4.0056 -3.203" stroke-width="1"></path><path stroke="#000000" stroke-linecap="round" stroke-linejoin="round" stroke-miterlimit="10" d="M17.275 9.95001c-0.2209 0 -0.4 -0.17908 -0.4 -0.39999 0 -0.22092 0.1791 -0.4 0.4 -0.4" stroke-width="1"></path><path stroke="#000000" stroke-linecap="round" stroke-linejoin="round" stroke-miterlimit="10" d="M17.2749 9.95001c0.2209 0 0.4 -0.17908 0.4 -0.39999 0 -0.22092 -0.1791 -0.4 -0.4 -0.4" stroke-width="1"></path><path stroke="#000000" stroke-linecap="round" stroke-linejoin="round" stroke-miterlimit="10" d="M17.275 6.54999v-1.5" stroke-width="1"></path><path stroke="#000000" stroke-linecap="round" stroke-linejoin="round" stroke-miterlimit="10" d="M18.075 1.25c-0.2 -0.3 -0.5 -0.5 -0.8 -0.5 -0.4 0 -0.7 0.2 -0.8 0.5l-5.1 9.6c-0.2 0.3 -0.1 0.6 0 0.9 0.2 0.3 0.5 0.4 0.8 0.4h10.1c0.3 0 0.6 -0.2 0.8 -0.4 0.2 -0.3 0.2 -0.6 0 -0.9l-5 -9.6Z" stroke-width="1"></path></svg>