<svg xmlns="http://www.w3.org/2000/svg" fill="none" viewBox="0 0 24 24" id="Person-Improvement--Streamline-Ultimate"><desc>Person Improvement Streamline Icon: https://streamlinehq.com</desc><path stroke="#000000" stroke-linecap="round" stroke-linejoin="round" stroke-miterlimit="10" d="M17.4749 23.1c-1.2 -1.7 -3.2 -2.8 -5.5 -2.8 -2.30005 0 -4.30005 1.1 -5.50005 2.8" stroke-width="1"></path><path stroke="#000000" stroke-linecap="round" stroke-linejoin="round" stroke-miterlimit="10" d="M11.9499 11.3V8.29999M6.44983 14.2H17.4498m-9.59997 1.1c0.1 2.2 1.9 4 4.09997 4 2.3 0 4.1 -1.8 4.1 -4.1v-1.8c0 -2.3 -1.8 -4.10001 -4.1 -4.10001 -2.19997 0 -3.99997 1.80001 -4.09997 4.00001v2Z" stroke-width="1"></path><path stroke="#000000" stroke-linecap="round" stroke-linejoin="round" stroke-miterlimit="10" d="M0.799988 4.29999 3.79999 0.799988l3 3.500002" stroke-width="1"></path><path stroke="#000000" stroke-linecap="round" stroke-linejoin="round" stroke-miterlimit="10" d="M3.79999 0.799988V11.8" stroke-width="1"></path><path stroke="#000000" stroke-linecap="round" stroke-linejoin="round" stroke-miterlimit="10" d="m17.1999 4.29999 3 -3.500002 3 3.500002" stroke-width="1"></path><path stroke="#000000" stroke-linecap="round" stroke-linejoin="round" stroke-miterlimit="10" d="M20.1999 0.799988V11.8" stroke-width="1"></path></svg>