<svg xmlns="http://www.w3.org/2000/svg" fill="none" viewBox="0 0 24 24" id="Person-Cog--Streamline-Ultimate"><desc>Person Cog Streamline Icon: https://streamlinehq.com</desc><path stroke="#000000" stroke-linecap="round" stroke-linejoin="round" stroke-miterlimit="10" d="M13.5 23.225c-0.9 -2.6 -3.4 -4.5 -6.29995 -4.5 -2.9 0 -5.5 1.9 -6.400001 4.5" stroke-width="1"></path><path stroke="#000000" stroke-linecap="round" stroke-linejoin="round" stroke-miterlimit="10" d="M7.10007 9.72498v-3M1.59998 12.625H12.6m-9.60002 1.1c0.1 2.2 1.89999 4 4.09999 4 2.3 0 4.10003 -1.8 4.10003 -4.1v-1.8c0 -2.30002 -1.80003 -4.10002 -4.10003 -4.10002 -2.2 0 -3.99999 1.8 -4.09999 4.00002v2Z" stroke-width="1"></path><path stroke="#000000" stroke-linecap="round" stroke-linejoin="round" stroke-miterlimit="10" d="m19.2001 1.62499 0.4 1.2c0.1 0.4 0.6 0.7 1 0.6l1.2 -0.3c1.1 -0.2 1.8 1 1.1 1.8l-0.9 0.9c-0.3 0.3 -0.3 0.8 0 1.1l0.9 0.9c0.7 0.8 0 2.1 -1.1 1.8l-1.2 -0.1c-0.4 -0.1 -0.9 0.1 -1 0.60001l-0.4 1.2c-0.3 1.1 -1.8 1.1 -2.1 0l-0.4 -1.2c-0.1 -0.40001 -0.6 -0.70001 -1 -0.60001l-1.2 0.3c-1.1 0.20001 -1.8 -1 -1.1 -1.8l0.9 -0.9c0.3 -0.3 0.3 -0.8 0 -1.1l-0.8 -1.1c-0.7 -0.8 0 -2.1 1.1 -1.8l1.2 0.3c0.4 0.1 0.9 -0.1 1 -0.6l0.4 -1.2c0.2 -1.100002 1.7 -1.100002 2 0Z" stroke-width="1"></path><path stroke="#000000" d="M16.65 6.475a1.5 1.5 0 1 0 3 0 1.5 1.5 0 1 0 -3 0" stroke-width="1"></path></svg>