<svg xmlns="http://www.w3.org/2000/svg" fill="none" viewBox="0 0 24 24" id="Product-Helmet--Streamline-Ultimate"><desc>Product Helmet Streamline Icon: https://streamlinehq.com</desc><path stroke="#000000" stroke-linecap="round" stroke-linejoin="round" stroke-miterlimit="10" d="M5.70001 12.7c0.1 0.4 0.5 0.7 0.9 0.7H17.2c0.4 0 0.8 -0.3 0.9 -0.7l1.8 -5.3H3.90002l1.79999 5.3Z" stroke-width="1"></path><path stroke="#000000" stroke-linecap="round" stroke-linejoin="round" stroke-miterlimit="10" d="M18.7 7.4c0.5 -0.5 0.8 -1.2 0.8 -2 0 -1.7 -1.3 -3 -3 -3 -0.4 0 -0.7 0.1 -1 0.2 -0.8 -1 -2.1 -1.699998 -3.5 -1.699998C10.2 0.900002 8.7 1.9 8 3.4l-0.19998 0C6.30002 3.4 5 4.6 5 6.2c0 0.5 0.10002 0.9 0.30002 1.2" stroke-width="1"></path><path stroke="#000000" stroke-linecap="round" stroke-linejoin="round" stroke-miterlimit="10" d="M22.7 19.9c0 1.8 -1.5 3.2 -3.2 3.2H4.49997c-1.8 0 -3.19998 -1.5 -3.19998 -3.2 0 -1.7 1.49998 -3.2 3.19998 -3.2H19.5c1.7 -0.1 3.2 1.4 3.2 3.2Z" stroke-width="1"></path><path stroke="#000000" d="M10.719 19.898a1.5 1.5 0 1 0 3 0 1.5 1.5 0 1 0 -3 0" stroke-width="1"></path><path stroke="#000000" d="M16.5 19.898a1.5 1.5 0 1 0 3 0 1.5 1.5 0 1 0 -3 0" stroke-width="1"></path><path stroke="#000000" d="M4.937 19.898a1.5 1.5 0 1 0 3 0 1.5 1.5 0 1 0 -3 0" stroke-width="1"></path></svg>