<svg xmlns="http://www.w3.org/2000/svg" fill="none" viewBox="0 0 24 24" id="Quarry-Helmet--Streamline-Ultimate"><desc>Quarry Helmet Streamline Icon: https://streamlinehq.com</desc><path stroke="#000000" stroke-linecap="round" stroke-linejoin="round" stroke-miterlimit="10" d="M8.95001 3.2C11.15 3.8 12.75 5.9 12.75 8.3V9" stroke-width="1"></path><path stroke="#000000" stroke-linecap="round" stroke-linejoin="round" stroke-miterlimit="10" d="M5.95001 9V1.8c0 -0.6 0.4 -0.999997 1 -0.999997h1c0.6 0 1 0.399997 1 0.999997V9" stroke-width="1"></path><path stroke="#000000" stroke-linecap="round" stroke-linejoin="round" stroke-miterlimit="10" d="M14.25 11c0 0.6 -0.4 1 -1 1H1.75c-0.6 0 -1 -0.4 -1 -1v-1c0 -0.6 0.4 -1 1 -1h11.5c0.6 0 1 0.4 1 1v1Z" stroke-width="1"></path><path stroke="#000000" stroke-linecap="round" stroke-linejoin="round" stroke-miterlimit="10" d="M5.94996 3.2c-2.2 0.6 -3.8 2.7 -3.8 5.1V9" stroke-width="1"></path><path stroke="#000000" stroke-linecap="round" stroke-linejoin="round" stroke-miterlimit="10" d="M23.25 17.225h-9m6.4375 4.5H21.75c0.8 0 1.5 -0.7 1.5 -1.5v-3.3c0 -0.3 -0.1 -0.6 -0.3 -0.9l-3 -4.2c-0.3 -0.4 -0.7 -0.6 -1.2 -0.6h-1.5m-0.4375 10.5H14.25V14.5" stroke-width="1"></path><path stroke="#000000" stroke-linecap="round" stroke-linejoin="round" stroke-miterlimit="10" d="m11.35 17.225 0 -2.85" stroke-width="1"></path><path stroke="#000000" stroke-linecap="round" stroke-linejoin="round" stroke-miterlimit="10" d="M11.35 21.725h3.0562" stroke-width="1"></path><path stroke="#000000" stroke-linecap="round" stroke-linejoin="round" stroke-miterlimit="10" d="M8.59375 21.725H11.35v-5H0.75v3.5c0 0.8 0.7 1.5 1.5 1.5h2.375" stroke-width="1"></path><path stroke="#000000" d="M4.563 21.219a2 2 0 1 0 4 0 2 2 0 1 0 -4 0" stroke-width="1"></path><path stroke="#000000" d="M16.75 21.219a2 2 0 1 0 4 0 2 2 0 1 0 -4 0" stroke-width="1"></path></svg>