<svg xmlns="http://www.w3.org/2000/svg" fill="none" viewBox="0 0 24 24" id="Radioactive-Helmet--Streamline-Ultimate"><desc>Radioactive Helmet Streamline Icon: https://streamlinehq.com</desc><path stroke="#000000" stroke-linecap="round" stroke-linejoin="round" stroke-miterlimit="10" d="M10.75 12.85c2.9 0.7 5 3.3 5 6.3v1" stroke-width="1"></path><path stroke="#000000" stroke-linecap="round" stroke-linejoin="round" stroke-miterlimit="10" d="M7.75 20.25v-8c0 -0.6 0.4 -1 1 -1h1c0.6 0 1 0.4 1 1v8" stroke-width="1"></path><path stroke="#000000" stroke-linecap="round" stroke-linejoin="round" stroke-miterlimit="10" d="M17.75 22.25c0 0.6 -0.4 1 -1 1h-15c-0.6 0 -1 -0.4 -1 -1v-1c0 -0.6 0.4 -1 1 -1h15c0.6 0 1 0.4 1 1v1Z" stroke-width="1"></path><path stroke="#000000" stroke-linecap="round" stroke-linejoin="round" stroke-miterlimit="10" d="M7.75 12.85c-2.9 0.7 -5 3.3 -5 6.3v1" stroke-width="1"></path><path stroke="#000000" stroke-linecap="round" stroke-linejoin="round" stroke-miterlimit="10" d="M17.2 14.45c0.6 -0.1 1.2 -0.3 1.7 -0.6l-1.5 -3.7c-0.5 0.3 -1.1 0.5 -1.7 0.5 -0.7 0 -1.3 -0.2 -1.8 -0.5l-0.5 1.2" stroke-width="1"></path><path stroke="#000000" stroke-linecap="round" stroke-linejoin="round" stroke-miterlimit="10" d="M13.8 3.95 11.4 0.75c-1.90001 1.2 -3.2 3.3 -3.4 5.7l4 0.59999V6.95c0 -1.4 0.8 -2.5 1.8 -3Z" stroke-width="1"></path><path stroke="#000000" stroke-linecap="round" stroke-linejoin="round" stroke-miterlimit="10" d="M23.25 6.54999c-0.1 -2.4 -1.3 -4.49999 -3.2 -5.79999l-2.5 3.2c1 0.6 1.7 1.59999 1.7 2.89999l0 0.2 4 -0.5Z" stroke-width="1"></path><path stroke="#000000" d="M14.05 7.05a1.5 1.5 0 1 0 3 0 1.5 1.5 0 1 0 -3 0" stroke-width="1"></path></svg>