<svg xmlns="http://www.w3.org/2000/svg" fill="none" viewBox="0 0 24 24" id="Research-Person--Streamline-Ultimate"><desc>Research Person Streamline Icon: https://streamlinehq.com</desc><path stroke="#000000" stroke-linecap="round" stroke-linejoin="round" stroke-miterlimit="10" d="M11.7542 23.124c-1.18 -1.6716 -3.14656 -2.7532 -5.40812 -2.7532 -2.26157 0 -4.22815 1.0816 -5.408092 2.7532" stroke-width="1"></path><path stroke="#000000" stroke-linecap="round" stroke-linejoin="round" stroke-miterlimit="10" d="M6.34617 11.4229V8.47299M0.937988 14.2744H11.7542M2.31459 15.356c0.09833 2.1632 1.86825 3.9332 4.03148 3.9332 2.26157 0 4.03153 -1.77 4.03153 -4.0315v-1.7699c0 -2.2616 -1.76996 -4.03152 -4.03153 -4.03152 -2.16323 0 -3.93315 1.76992 -4.03148 3.93312v1.9666Z" stroke-width="1"></path><path stroke="#000000" stroke-linecap="round" stroke-linejoin="round" stroke-miterlimit="10" d="M16.6706 9.8496c2.4438 0 4.4248 -1.98105 4.4248 -4.4248C21.0954 2.98105 19.1144 1 16.6706 1c-2.4437 0 -4.4248 1.98105 -4.4248 4.4248 0 2.44375 1.9811 4.4248 4.4248 4.4248Z" stroke-width="1"></path><path stroke="#000000" stroke-linecap="round" stroke-linejoin="round" stroke-miterlimit="10" d="m23.062 11.8162 -3.1465 -3.24488" stroke-width="1"></path></svg>