<svg xmlns="http://www.w3.org/2000/svg" fill="none" viewBox="0 0 24 24" id="Safety-Gear--Streamline-Ultimate"><desc>Safety Gear Streamline Icon: https://streamlinehq.com</desc><path stroke="#000000" stroke-linecap="round" stroke-linejoin="round" stroke-miterlimit="10" d="M5.75 15.75c-1.1 0 -2 0.9 -2 2v1.8c0 0.3 0 0.5 0.1 0.8 0.3 1.4 1.6 2.5 3 2.8 1 0.2 2 0.1 2.8 -0.3 1.4 -0.6 3 -0.8 4.4 -0.1 0.6 0.3 1.3 0.5 2.1 0.5 2.4 0 4.2 -1.8 4.1 -4v-1.5c0 -1.1 -0.9 -2 -2 -2H5.75Z" stroke-width="1"></path><path stroke="#000000" stroke-linecap="round" stroke-linejoin="round" stroke-miterlimit="10" d="M1.75 17.75h2" stroke-width="1"></path><path stroke="#000000" stroke-linecap="round" stroke-linejoin="round" stroke-miterlimit="10" d="M20.25 17.75h2" stroke-width="1"></path><path stroke="#000000" stroke-linecap="round" stroke-linejoin="round" stroke-miterlimit="10" d="M13.5 2.45001c2.9 0.7 5 3.30001 5 6.30001v1" stroke-width="1"></path><path stroke="#000000" stroke-linecap="round" stroke-linejoin="round" stroke-miterlimit="10" d="M10.5 9.75v-8c0 -0.6 0.4 -1 1 -1h1c0.6 0 1 0.4 1 1v8" stroke-width="1"></path><path stroke="#000000" stroke-linecap="round" stroke-linejoin="round" stroke-miterlimit="10" d="M20.5 11.75c0 0.6 -0.4 1 -1 1h-15c-0.6 0 -1 -0.4 -1 -1v-1c0 -0.6 0.4 -1 1 -1h15c0.6 0 1 0.4 1 1v1Z" stroke-width="1"></path><path stroke="#000000" stroke-linecap="round" stroke-linejoin="round" stroke-miterlimit="10" d="M10.5 2.45001c-2.9 0.7 -5 3.30001 -5 6.30001v1" stroke-width="1"></path></svg>