<svg xmlns="http://www.w3.org/2000/svg" fill="none" viewBox="0 0 24 24" id="Software-Notebook-Cog-2--Streamline-Ultimate"><desc>Software Notebook Cog 2 Streamline Icon: https://streamlinehq.com</desc><path stroke="#000000" stroke-linecap="round" stroke-linejoin="round" stroke-miterlimit="10" d="M13.8574 6.85632h6.3842c0.7858 0 1.4733 0.68753 1.4733 1.47329V18.6426" stroke-width="1"></path><path stroke="#000000" stroke-linecap="round" stroke-linejoin="round" stroke-miterlimit="10" d="M2.56213 18.6426V13.437" stroke-width="1"></path><path stroke="#000000" stroke-linecap="round" stroke-linejoin="round" stroke-miterlimit="10" d="M14.6431 18.6426c-0.4911 0.884 -1.4732 1.4733 -2.5537 1.4733 -1.0804 0 -2.0626 -0.5893 -2.55367 -1.4733H0.990662v1.4733c0 1.6697 1.276848 2.9466 2.946578 2.9466H20.1434c1.6697 0 2.9466 -1.2769 2.9466 -2.9466v-1.4733h-8.4469Z" stroke-width="1"></path><path stroke="#000000" stroke-linecap="round" stroke-linejoin="round" stroke-miterlimit="10" d="M13.9556 11.178h4.3217" stroke-width="1"></path><path stroke="#000000" stroke-linecap="round" stroke-linejoin="round" stroke-miterlimit="10" d="M13.9556 14.6156h2.8484" stroke-width="1"></path><path stroke="#000000" stroke-linecap="round" stroke-linejoin="round" stroke-miterlimit="10" d="M10.0269 14.6156h1.375" stroke-width="1"></path><path stroke="#000000" stroke-linecap="round" stroke-linejoin="round" stroke-miterlimit="10" d="m6.97253 1.81031 0.39288 1.17863c0.09822 0.39288 0.58931 0.68754 0.98219 0.58932l1.17863 -0.29466c1.08037 -0.19644 1.76797 0.98219 1.08037 1.76795l-0.88393 0.88397c-0.29466 0.29466 -0.29466 0.78575 0 1.08041l0.88393 0.88398c0.6876 0.78575 0 2.0626 -1.08037 1.76794L8.3476 9.3732c-0.39288 -0.09822 -0.88397 0.09821 -0.98219 0.58931l-0.39288 1.17859c-0.29466 1.0804 -1.76795 1.0804 -2.0626 0l-0.39288 -1.17859c-0.09822 -0.39288 -0.58931 -0.68753 -0.98219 -0.58931l-1.17863 0.29465c-1.08041 0.19644 -1.767948 -0.98219 -1.08041 -1.76794l0.88397 -0.88398c0.29466 -0.29466 0.29466 -0.78575 0 -1.08041l-0.88397 -0.88397c-0.687538 -0.78576 0 -2.06261 1.08041 -1.76795l1.17863 0.29466c0.39288 0.09822 0.88397 -0.09822 0.98219 -0.58932l0.39288 -1.17863c0.29465 -1.080413 1.76794 -1.080413 2.0626 0Z" stroke-width="1"></path><path stroke="#000000" d="M4.468 6.476a1.473 1.473 0 1 0 2.946 0 1.473 1.473 0 1 0 -2.946 0" stroke-width="1"></path></svg>