<svg xmlns="http://www.w3.org/2000/svg" fill="none" viewBox="0 0 24 24" id="Software-Notebook-Cog-1--Streamline-Ultimate"><desc>Software Notebook Cog 1 Streamline Icon: https://streamlinehq.com</desc><path stroke="#000000" stroke-linecap="round" stroke-linejoin="round" stroke-miterlimit="10" d="m3.14823 16.4066 -2.04966 4.4806c-0.195207 0.3896 -0.195201 0.974 0.09761 1.3636 0.2928 0.3896 0.78082 0.6818 1.26883 0.6818H21.4975c0.5856 0 0.976 -0.2922 1.2689 -0.6818 0.2928 -0.3896 0.2928 -0.8766 0.0976 -1.3636l-2.1473 -4.4806m-17.56847 0H20.7167m-17.56847 0v-2.1428m17.56847 2.1428V6.86112c0 -0.77923 -0.6832 -1.46105 -1.464 -1.46105h-5.661" stroke-width="1"></path><path stroke="#000000" stroke-linecap="round" stroke-linejoin="round" stroke-miterlimit="10" d="M10.5172 20.0106h2.928" stroke-width="1"></path><path stroke="#000000" stroke-linecap="round" stroke-linejoin="round" stroke-miterlimit="10" d="M13.8845 9.1988h3.9041" stroke-width="1"></path><path stroke="#000000" stroke-linecap="round" stroke-linejoin="round" stroke-miterlimit="10" d="M13.8845 12.6079h2.4401" stroke-width="1"></path><path stroke="#000000" stroke-linecap="round" stroke-linejoin="round" stroke-miterlimit="10" d="M10.012 12.6485h0.9794" stroke-width="1"></path><path stroke="#000000" stroke-linecap="round" stroke-linejoin="round" stroke-miterlimit="10" d="m6.98554 1.83789 0.39178 1.17534c0.09794 0.39178 0.58766 0.68561 0.97944 0.58766l1.17533 -0.29383c1.07741 -0.19589 1.76301 0.97944 1.07741 1.763l-0.88152 0.8815c-0.29383 0.29383 -0.29383 0.78355 0 1.07739l0.88152 0.8815c0.6856 0.78355 0 2.05682 -1.07741 1.76299l-1.17533 -0.29383c-0.39178 -0.09794 -0.8815 0.09794 -0.97944 0.58767l-0.39178 1.17532c-0.29383 1.0774 -1.763 1.0774 -2.05683 0l-0.39178 -1.17532c-0.09794 -0.39178 -0.58766 -0.68561 -0.97944 -0.58767l-1.17533 0.29383C1.30477 9.86933 0.619159 8.694 1.30477 7.91045l0.8815 -0.8815c0.29383 -0.29384 0.29383 -0.78356 0 -1.07739l-0.8815 -0.8815c-0.685611 -0.78356 0 -2.05684 1.07739 -1.763l1.17533 0.29383c0.39178 0.09795 0.8815 -0.09794 0.97944 -0.58766l0.39178 -1.17534c0.29383 -1.077385 1.763 -1.077385 2.05683 0Z" stroke-width="1"></path><path stroke="#000000" d="M4.488 6.49a1.469 1.469 0 1 0 2.938 0 1.469 1.469 0 1 0 -2.938 0" stroke-width="1"></path></svg>