<svg xmlns="http://www.w3.org/2000/svg" fill="none" viewBox="0 0 24 24" id="Software-Monitor-Cog--Streamline-Ultimate"><desc>Software Monitor Cog Streamline Icon: https://streamlinehq.com</desc><path stroke="#000000" stroke-linecap="round" stroke-linejoin="round" stroke-miterlimit="10" d="M18.1404 8.71249h2" stroke-width="1"></path><path stroke="#000000" stroke-linecap="round" stroke-linejoin="round" stroke-miterlimit="10" d="M15.1404 8.71249h0.5" stroke-width="1"></path><path stroke="#000000" stroke-linecap="round" stroke-linejoin="round" stroke-miterlimit="10" d="M15.1404 11.9125h5" stroke-width="1"></path><path stroke="#000000" stroke-linecap="round" stroke-linejoin="round" stroke-miterlimit="10" d="M12.8404 15.4125h7.3" stroke-width="1"></path><path stroke="#000000" stroke-linecap="round" stroke-linejoin="round" stroke-miterlimit="10" d="M6.84039 15.4125h2.3" stroke-width="1"></path><path stroke="#000000" stroke-linecap="round" stroke-linejoin="round" stroke-miterlimit="10" d="m6.88074 1.625 0.4 1.2c0.1 0.4 0.6 0.7 1 0.6l1.2 -0.3c1.09996 -0.2 1.79996 1 1.09996 1.8l-0.89996 0.9c-0.3 0.3 -0.3 0.8 0 1.1l0.89996 0.9c0.7 0.8 0 2.1 -1.09996 1.8l-1.2 -0.3c-0.4 -0.1 -0.9 0.1 -1 0.6l-0.4 1.2c-0.3 1.1 -1.8 1.1 -2.1 0l-0.4 -1.2c-0.1 -0.4 -0.6 -0.7 -1 -0.6l-1.2 0.3c-1.1 0.2 -1.799998 -1 -1.1 -1.8l0.9 -0.9c0.3 -0.3 0.3 -0.8 0 -1.1l-0.9 -0.9c-0.699998 -0.8 0 -2.1 1.1 -1.8l1.2 0.3c0.4 0.1 0.9 -0.1 1 -0.6l0.4 -1.2c0.3 -1.100001 1.8 -1.100001 2.1 0Z" stroke-width="1"></path><path stroke="#000000" stroke-linecap="round" stroke-linejoin="round" stroke-miterlimit="10" d="m10 19.0925 -1 4.02" stroke-width="1"></path><path stroke="#000000" stroke-linecap="round" stroke-linejoin="round" stroke-miterlimit="10" d="m14 19.0925 1 4.02" stroke-width="1"></path><path stroke="#000000" stroke-linecap="round" stroke-linejoin="round" stroke-miterlimit="10" d="M6 23.1125h12" stroke-width="1"></path><path stroke="#000000" stroke-linecap="round" stroke-linejoin="round" stroke-miterlimit="10" d="M14.9375 3.01251H21.25c1.1 0 2 0.9045 2 2.01V17.0825c0 1.1055 -0.9 2.01 -2 2.01H2.75c-1.1 0 -2 -0.9045 -2 -2.01v-3.77" stroke-width="1"></path><path stroke="#000000" d="M4.331 6.375a1.5 1.5 0 1 0 3 0 1.5 1.5 0 1 0 -3 0" stroke-width="1"></path></svg>