<svg viewBox="0 0 24 24" xmlns="http://www.w3.org/2000/svg" id="Sauna-Heat-Person--Streamline-Ultimate"><desc>Sauna Heat Person Streamline Icon: https://streamlinehq.com</desc><path d="m0.722 20.253 7.5 0" fill="none" stroke="#000000" stroke-linecap="round" stroke-linejoin="round" stroke-width="1"></path><path d="m14.872 17.253 3.1 5.272a1.5 1.5 0 1 0 2.572 -1.544l-3.536 -6a1.5 1.5 0 0 0 -1.286 -0.728h-5.073L8.064 9.082a1.5 1.5 0 0 0 -1.207 -0.823 1.48 1.48 0 0 0 -1.335 0.595l-4.5 6a1.5 1.5 0 0 0 2.4 1.8L6.466 12.6l1.914 3.824a1.5 1.5 0 0 0 1.342 0.829h1.5v4.5a1.5 1.5 0 0 0 3 0v-4.5Z" fill="none" stroke="#000000" stroke-linecap="round" stroke-linejoin="round" stroke-width="1"></path><path d="M4.847 3.752a2.625 2.625 0 1 0 5.25 0 2.625 2.625 0 1 0 -5.25 0Z" fill="none" stroke="#000000" stroke-linecap="round" stroke-linejoin="round" stroke-width="1"></path><path d="M22.428 0.75c1.437 2.873 -2.151 2.381 0 5.25" fill="none" stroke="#000000" stroke-linecap="round" stroke-linejoin="round" stroke-width="1"></path><path d="M18.678 0.75c1.437 2.873 -2.151 2.381 0 5.25" fill="none" stroke="#000000" stroke-linecap="round" stroke-linejoin="round" stroke-width="1"></path><path d="M14.928 0.75c1.437 2.873 -2.151 2.381 0 5.25" fill="none" stroke="#000000" stroke-linecap="round" stroke-linejoin="round" stroke-width="1"></path></svg>