<svg xmlns="http://www.w3.org/2000/svg" viewBox="0 0 24 24" id="Greek-God-Male-2--Streamline-Ultimate"><desc>Greek God Male 2 Streamline Icon: https://streamlinehq.com</desc><defs></defs><path d="M7.164 18.341a13.675 13.675 0 0 0 -5.394 2.326A1.978 1.978 0 0 0 1 22.246v0.4" fill="none" stroke="#000000" stroke-linecap="round" stroke-linejoin="round" stroke-width="1"></path><path d="M23 22.65v-0.4a1.978 1.978 0 0 0 -0.77 -1.579 13.436 13.436 0 0 0 -5.117 -2.271" fill="none" stroke="#000000" stroke-linecap="round" stroke-linejoin="round" stroke-width="1"></path><path d="M22.613 21.06a3.382 3.382 0 0 0 -0.449 -3.8 2.876 2.876 0 0 0 -0.935 -0.685 3.291 3.291 0 0 0 0 -5.489 3.32 3.32 0 0 0 0.711 -2.066 3.047 3.047 0 0 0 -2.647 -3.136l0 -0.026A3.031 3.031 0 0 0 16.417 2.7a2.642 2.642 0 0 0 -1.249 0.325A3.433 3.433 0 0 0 12.023 0.746a3.42 3.42 0 0 0 -3.109 2.2A2.657 2.657 0 0 0 7.786 2.7a3.031 3.031 0 0 0 -2.879 3.158l0 0.026A3.047 3.047 0 0 0 2.263 9.02a3.32 3.32 0 0 0 0.713 2.063 3.291 3.291 0 0 0 0 5.489 2.876 2.876 0 0 0 -0.935 0.685 3.38 3.38 0 0 0 -0.528 3.643" fill="none" stroke="#000000" stroke-linecap="round" stroke-linejoin="round" stroke-width="1"></path><path d="M11.991 6.493c-0.458 1.594 -2.05 2.261 -3.756 2.261a3.682 3.682 0 0 1 -1.67 -0.4" fill="none" stroke="#000000" stroke-linecap="round" stroke-linejoin="round" stroke-width="1"></path><path d="M11.991 6.493c0.459 1.594 2.051 2.261 3.757 2.261a3.682 3.682 0 0 0 1.67 -0.4" fill="none" stroke="#000000" stroke-linecap="round" stroke-linejoin="round" stroke-width="1"></path><path d="M6.565 8.3v1.31a8.386 8.386 0 0 0 0.456 2.711 1.475 1.475 0 0 1 1.911 1.429 1.5 1.5 0 0 1 -0.119 0.585c0.7 -1.515 2.242 -1.585 3.278 -1.585 0.846 0 2.833 -0.061 3.371 1.585a1.494 1.494 0 0 1 1.374 -2.078 1.576 1.576 0 0 1 0.208 0.02 8.222 8.222 0 0 0 0.374 -2.438V8.3" fill="none" stroke="#000000" stroke-linecap="round" stroke-linejoin="round" stroke-width="1"></path><path d="M6.158 16.042a3.145 3.145 0 0 0 2.726 3.111 3.154 3.154 0 1 0 5.995 0.028c0.051 0 0.1 0.015 0.152 0.015a3.154 3.154 0 0 0 3.154 -3.154" fill="none" stroke="#000000" stroke-linecap="round" stroke-linejoin="round" stroke-width="1"></path></svg>