<svg xmlns="http://www.w3.org/2000/svg" viewBox="0 0 24 24" id="Greek-Statue--Streamline-Ultimate"><desc>Greek Statue Streamline Icon: https://streamlinehq.com</desc><defs></defs><path d="m15.5 19.059 -1.312 3.959 -4.375 0L8.5 19.059" fill="none" stroke="#000000" stroke-linecap="round" stroke-linejoin="round" stroke-width="1"></path><path d="m6.25 23.018 11.5 0" fill="none" stroke="#000000" stroke-linecap="round" stroke-linejoin="round" stroke-width="1"></path><path d="m21.055 19.107 -0.194 -0.776a3.273 3.273 0 0 0 -1.846 -2.2l-4.3 -1.905v-3.251a4.83 4.83 0 0 0 1.522 -3.039 1.93 1.93 0 0 0 0.721 -3.409 1.918 1.918 0 0 0 -1.858 -2.49 2.085 2.085 0 0 0 -0.212 0.021 1.926 1.926 0 0 0 -3.176 -0.42 1.922 1.922 0 0 0 -2.989 0.12 1.938 1.938 0 1 0 -2.048 3.287c0 0.032 -0.012 0.061 -0.012 0.093a1.161 1.161 0 0 0 0.2 0.655c-0.458 0.968 -0.846 2.076 -1.292 3.231a0.389 0.389 0 0 0 0.225 0.5 0.385 0.385 0 0 0 0.139 0.026h0.987v1.559a1.559 1.559 0 0 0 1.558 1.558h0.78v1.563l-4.3 1.905a3.274 3.274 0 0 0 -1.847 2.2l-0.17 0.681Z" fill="none" stroke="#000000" stroke-linecap="round" stroke-linejoin="round" stroke-width="1"></path></svg>