<svg xmlns="http://www.w3.org/2000/svg" viewBox="0 0 24 24" id="Greek-God-Hermes-Boots--Streamline-Ultimate"><desc>Greek God Hermes Boots Streamline Icon: https://streamlinehq.com</desc><defs></defs><path d="M8.881 14.234 2.4 18.594A2.239 2.239 0 0 0 4.281 22.6l11.7 -3.424a0.75 0.75 0 0 0 0.509 -0.93l-0.575 -1.967" fill="none" stroke="#000000" stroke-linecap="round" stroke-linejoin="round" stroke-width="1"></path><path d="M8.881 14.234 4.958 5.769a0.562 0.562 0 0 1 0.273 -0.746A0.493 0.493 0 0 1 5.3 5c2.2 -0.674 3.911 -1.365 6.124 -2.041" fill="none" stroke="#000000" stroke-linecap="round" stroke-linejoin="round" stroke-width="1"></path><path d="M4.371 17.382a7.289 7.289 0 0 1 3.834 3.844" fill="none" stroke="#000000" stroke-linecap="round" stroke-linejoin="round" stroke-width="1"></path><path d="M7.043 15.68a10.9 10.9 0 0 1 6.173 4.045" fill="none" stroke="#000000" stroke-linecap="round" stroke-linejoin="round" stroke-width="1"></path><path d="m20.228 4.823 0.041 -0.02a1.622 1.622 0 0 1 2.107 0.664h0a1.622 1.622 0 0 1 -0.631 2.224l-1.345 0.737" fill="none" stroke="#000000" stroke-linecap="round" stroke-linejoin="round" stroke-width="1"></path><path d="M19.933 8.569a1.622 1.622 0 0 1 2.107 0.663h0a1.623 1.623 0 0 1 -0.631 2.225l-3.485 1.992a4.964 4.964 0 0 1 -6.095 -1.084h0a4.967 4.967 0 0 1 1.547 -7.744l6.343 -3.156a1.623 1.623 0 0 1 2.107 0.664h0a1.623 1.623 0 0 1 -0.626 2.225l-0.623 0.34" fill="none" stroke="#000000" stroke-linecap="round" stroke-linejoin="round" stroke-width="1"></path><path d="m20.269 4.803 -2.034 1.085" fill="none" stroke="#000000" stroke-linecap="round" stroke-linejoin="round" stroke-width="1"></path><path d="m19.959 8.561 -1.606 0.856" fill="none" stroke="#000000" stroke-linecap="round" stroke-linejoin="round" stroke-width="1"></path></svg>