<svg xmlns="http://www.w3.org/2000/svg" viewBox="0 0 24 24" id="Greek-God-Aphrodyte--Streamline-Ultimate"><desc>Greek God Aphrodyte Streamline Icon: https://streamlinehq.com</desc><defs></defs><path d="M4.108 3.75a3 3 0 1 0 6 0 3 3 0 1 0 -6 0" fill="none" stroke="#000000" stroke-linecap="round" stroke-linejoin="round" stroke-width="1"></path><path d="m10.594 9.632 -0.373 5.053" fill="none" stroke="#000000" stroke-linecap="round" stroke-linejoin="round" stroke-width="1"></path><path d="m3.62 9.632 0.371 5.048 -1.074 8.57 0 0" fill="none" stroke="#000000" stroke-linecap="round" stroke-linejoin="round" stroke-width="1"></path><path d="m3.821 15.867 -0.267 1.387a1.444 1.444 0 0 1 -1.636 1.155h0A1.445 1.445 0 0 1 0.75 16.572l1.487 -5.035a5.254 5.254 0 0 1 5.387 -3.262 5.317 5.317 0 0 1 4.576 4.112 2.783 2.783 0 0 0 1.73 1.931l2.356 0.889c1.441 0.8 0.524 2.813 -1.379 2.441 -1.874 -0.366 -3.808 -1.154 -4.8 -2.593l1.19 8.186" fill="none" stroke="#000000" stroke-linecap="round" stroke-linejoin="round" stroke-width="1"></path><path d="M10.522 10.606a5.635 5.635 0 0 1 -6.809 0.3" fill="none" stroke="#000000" stroke-linecap="round" stroke-linejoin="round" stroke-width="1"></path><path d="m4.108 15.055 6 0" fill="none" stroke="#000000" stroke-linecap="round" stroke-linejoin="round" stroke-width="1"></path><path d="m18.98 12.855 2.22 -2.126a1.54 1.54 0 0 0 0.048 -2.174h0a1.539 1.539 0 0 0 -2.048 -0.164l-0.914 0.693 -0.914 -0.693a1.539 1.539 0 0 0 -2.044 0.164h0a1.539 1.539 0 0 0 0.049 2.174l2.223 2.126a1 1 0 0 0 1.38 0Z" fill="none" stroke="#000000" stroke-linecap="round" stroke-linejoin="round" stroke-width="1"></path><path d="M20.618 5.527 22.835 3.4a1.539 1.539 0 0 0 0.049 -2.174h0a1.54 1.54 0 0 0 -2.045 -0.164l-0.913 0.693 -0.914 -0.693a1.539 1.539 0 0 0 -2.044 0.164h0a1.539 1.539 0 0 0 0.048 2.174l2.218 2.126a1 1 0 0 0 1.384 0.001Z" fill="none" stroke="#000000" stroke-linecap="round" stroke-linejoin="round" stroke-width="1"></path></svg>