<svg xmlns="http://www.w3.org/2000/svg" viewBox="0 0 24 24" id="Greek-God-Portrait--Streamline-Ultimate"><desc>Greek God Portrait Streamline Icon: https://streamlinehq.com</desc><defs></defs><path d="M13.454 9.382a1.276 1.276 0 0 1 0.3 1.044 1.187 1.187 0 0 1 -0.649 0.9" fill="none" stroke="#000000" stroke-linecap="round" stroke-linejoin="round" stroke-width="1"></path><path d="M5.305 22.753a15.439 15.439 0 0 0 11.734 -4.823" fill="none" stroke="#000000" stroke-linecap="round" stroke-linejoin="round" stroke-width="1"></path><path d="M19.086 19.232a3.426 3.426 0 0 0 0 3.876" fill="none" stroke="#000000" stroke-linecap="round" stroke-linejoin="round" stroke-width="1"></path><path d="m23.226 23.235 -0.241 -0.962a4.055 4.055 0 0 0 -2.285 -2.722l-5.329 -2.362v-4.035a5.993 5.993 0 0 0 1.887 -3.768 2.392 2.392 0 0 0 0.893 -4.226 2.375 2.375 0 0 0 -2.3 -3.087 2.274 2.274 0 0 0 -0.263 0.027 2.387 2.387 0 0 0 -3.937 -0.522 2.383 2.383 0 0 0 -3.706 0.15A2.4 2.4 0 1 0 5.4 5.8c0 0.039 -0.015 0.075 -0.015 0.115a1.444 1.444 0 0 0 0.249 0.813c-0.568 1.2 -1.049 2.573 -1.6 4a0.483 0.483 0 0 0 0.278 0.625 0.491 0.491 0 0 0 0.173 0.032h1.221v1.932a1.931 1.931 0 0 0 1.932 1.932H8.6v1.933l-5.325 2.369a4.056 4.056 0 0 0 -2.29 2.722l-0.211 0.844" fill="none" stroke="#000000" stroke-linecap="round" stroke-linejoin="round" stroke-width="1"></path></svg>