<svg xmlns="http://www.w3.org/2000/svg" viewBox="0 0 24 24" id="Greek-God-Hermes--Streamline-Ultimate"><desc>Greek God Hermes Streamline Icon: https://streamlinehq.com</desc><defs></defs><path d="M6 7.048V9.2a6.166 6.166 0 0 0 5.816 6.248 6 6 0 0 0 6.184 -6v-2.4" fill="none" stroke="#000000" stroke-linecap="round" stroke-linejoin="round" stroke-width="1"></path><path d="m18.5 7.251 -0.1 -0.623a6.4 6.4 0 0 0 -6.318 -5.348h-0.164A6.4 6.4 0 0 0 5.6 6.628l-0.1 0.623a16.014 16.014 0 0 1 13 0Z" fill="none" stroke="#000000" stroke-linecap="round" stroke-linejoin="round" stroke-width="1"></path><path d="m18 8.962 2.518 -1.389a3.533 3.533 0 0 0 1.643 -2.124c0.3 -1.311 -0.481 -1.582 -1.164 -1.234l0.233 -0.115a2.322 2.322 0 0 0 1.07 -1.837c0.217 -1.309 -0.158 -1.747 -0.84 -1.4L16.748 3.3" fill="none" stroke="#000000" stroke-linecap="round" stroke-linejoin="round" stroke-width="1"></path><path d="M6 8.631 3.482 7.573a3.53 3.53 0 0 1 -1.643 -2.124C1.534 4.138 2.32 3.867 3 4.215L2.77 4.1A2.322 2.322 0 0 1 1.7 2.263c-0.217 -1.309 0.158 -1.747 0.84 -1.4l4.731 2.418" fill="none" stroke="#000000" stroke-linecap="round" stroke-linejoin="round" stroke-width="1"></path><path d="m21.23 4.097 -0.904 0.427" fill="none" stroke="#000000" stroke-linecap="round" stroke-linejoin="round" stroke-width="1"></path><path d="m3.003 4.215 0.749 0.322" fill="none" stroke="#000000" stroke-linecap="round" stroke-linejoin="round" stroke-width="1"></path><path d="M23 23.251v-1.405a1.978 1.978 0 0 0 -0.77 -1.579c-1.33 -1.015 -4.5 -2.815 -10.23 -2.815s-8.895 1.8 -10.23 2.815A1.978 1.978 0 0 0 1 21.846v1.405" fill="none" stroke="#000000" stroke-linecap="round" stroke-linejoin="round" stroke-width="1"></path><path d="M23 23.251v-1.405a1.978 1.978 0 0 0 -0.77 -1.579c-1.33 -1.015 -4.5 -2.815 -10.23 -2.815s-8.9 1.8 -10.23 2.815A1.978 1.978 0 0 0 1 21.846v1.405" fill="none" stroke="#000000" stroke-linecap="round" stroke-linejoin="round" stroke-width="1"></path><path d="M18.5 23.251a6.3 6.3 0 0 1 1 -4.5" fill="none" stroke="#000000" stroke-linecap="round" stroke-linejoin="round" stroke-width="1"></path><path d="M1 23.251v-1.405a1.978 1.978 0 0 1 0.77 -1.579c1.33 -1.015 4.5 -2.815 10.23 -2.815s8.9 1.8 10.23 2.815a1.978 1.978 0 0 1 0.77 1.579v1.405" fill="none" stroke="#000000" stroke-linecap="round" stroke-linejoin="round" stroke-width="1"></path><path d="M5.5 23.251a6.3 6.3 0 0 0 -1 -4.5" fill="none" stroke="#000000" stroke-linecap="round" stroke-linejoin="round" stroke-width="1"></path><path d="M16.552 17.881c-0.532 1.469 -2.331 3.585 -4.469 3.585 -2.153 0 -3.962 -2.131 -4.479 -3.615" fill="none" stroke="#000000" stroke-linecap="round" stroke-linejoin="round" stroke-width="1"></path></svg>