<svg xmlns="http://www.w3.org/2000/svg" viewBox="0 0 24 24" id="Greek-God-Head-Wreath-2--Streamline-Ultimate"><desc>Greek God Head Wreath 2 Streamline Icon: https://streamlinehq.com</desc><defs></defs><path d="M11.215 9.713a14.588 14.588 0 0 0 5.758 4.108" fill="none" stroke="#000000" stroke-linecap="round" stroke-linejoin="round" stroke-width="1"></path><path d="M16.972 10.283c-0.032 1.324 -0.645 2.383 -1.37 2.365s-1.286 -1.105 -1.254 -2.429a3.666 3.666 0 0 1 1.371 -2.364 3.66 3.66 0 0 1 1.253 2.428Z" fill="none" stroke="#000000" stroke-linecap="round" stroke-linejoin="round" stroke-width="1"></path><path d="M11.832 6.6c0.325 1.284 0.02 2.468 -0.683 2.647s-1.536 -0.718 -1.861 -2A3.662 3.662 0 0 1 9.97 4.6a3.663 3.663 0 0 1 1.862 2Z" fill="none" stroke="#000000" stroke-linecap="round" stroke-linejoin="round" stroke-width="1"></path><path d="M12.588 13.082c1.254 -0.423 2.459 -0.209 2.691 0.477s-0.6 1.587 -1.852 2.01a3.661 3.661 0 0 1 -2.691 -0.477 3.668 3.668 0 0 1 1.852 -2.01Z" fill="none" stroke="#000000" stroke-linecap="round" stroke-linejoin="round" stroke-width="1"></path><path d="M8.88 8.952c1.317 -0.134 2.445 0.342 2.518 1.063s-0.935 1.414 -2.252 1.548A3.666 3.666 0 0 1 6.628 10.5 3.664 3.664 0 0 1 8.88 8.952Z" fill="none" stroke="#000000" stroke-linecap="round" stroke-linejoin="round" stroke-width="1"></path><path d="M17.38 23.138V18.29a8.418 8.418 0 0 0 2.654 -5.3 3.366 3.366 0 0 0 1.258 -5.945 3.352 3.352 0 0 0 0.153 -0.954A3.388 3.388 0 0 0 18.057 2.7a3.459 3.459 0 0 0 -0.37 0.037 3.358 3.358 0 0 0 -5.538 -0.734 3.353 3.353 0 0 0 -5.214 0.211 3.38 3.38 0 1 0 -3.578 5.734c0 0.055 -0.021 0.106 -0.021 0.162a2.029 2.029 0 0 0 0.35 1.143c-0.8 1.687 -1.475 3.62 -2.253 5.635a0.678 0.678 0 0 0 0.392 0.878 0.647 0.647 0 0 0 0.242 0.046h1.722v2.718a2.718 2.718 0 0 0 2.718 2.718h1.359v1.89" fill="none" stroke="#000000" stroke-linecap="round" stroke-linejoin="round" stroke-width="1"></path></svg>