<svg xmlns="http://www.w3.org/2000/svg" viewBox="0 0 24 24" id="Greek-God-Mythology--Streamline-Ultimate"><desc>Greek God Mythology Streamline Icon: https://streamlinehq.com</desc><defs></defs><path d="m11.494 7.19 -3.413 0" fill="none" stroke="#000000" stroke-linecap="round" stroke-linejoin="round" stroke-width="1"></path><path d="m14.512 9.98 0 1.435" fill="none" stroke="#000000" stroke-linecap="round" stroke-linejoin="round" stroke-width="1"></path><path d="m5.063 22.171 0 -12.191" fill="none" stroke="#000000" stroke-linecap="round" stroke-linejoin="round" stroke-width="1"></path><path d="m8.212 9.98 0 12.191" fill="none" stroke="#000000" stroke-linecap="round" stroke-linejoin="round" stroke-width="1"></path><path d="m11.362 9.98 0 0.987" fill="none" stroke="#000000" stroke-linecap="round" stroke-linejoin="round" stroke-width="1"></path><path d="M3.548 4.239A1.424 1.424 0 0 1 4.563 3.9a1.784 1.784 0 0 1 1.669 1.893v0a2.227 2.227 0 0 1 -2.368 2.083h0a2.783 2.783 0 0 1 -2.6 -2.955v-0.006A3.413 3.413 0 0 1 4.674 1.5H14.9a3.413 3.413 0 0 1 3.413 3.413v0a2.784 2.784 0 0 1 -2.6 2.958h0A2.228 2.228 0 0 1 13.346 5.8v0a1.783 1.783 0 0 1 1.667 -1.9h0a1.423 1.423 0 0 1 1.033 0.353" fill="none" stroke="#000000" stroke-linecap="round" stroke-linejoin="round" stroke-width="1"></path><path d="M17.119 15.04a12.438 12.438 0 0 0 -5.358 -1.421 0.278 0.278 0 0 0 -0.188 0.061 0.205 0.205 0 0 0 -0.079 0.158V21.1a0.24 0.24 0 0 0 0.245 0.222 7.282 7.282 0 0 1 4.891 1.11 1.112 1.112 0 0 0 0.49 0.058" fill="none" stroke="#000000" stroke-linecap="round" stroke-linejoin="round" stroke-width="1"></path><path d="M17.119 15.04a12.442 12.442 0 0 1 5.359 -1.421 0.278 0.278 0 0 1 0.188 0.061 0.208 0.208 0 0 1 0.079 0.16v7.26a0.24 0.24 0 0 1 -0.245 0.222 7.28 7.28 0 0 0 -4.891 1.11 1.114 1.114 0 0 1 -0.49 0.058" fill="none" stroke="#000000" stroke-linecap="round" stroke-linejoin="round" stroke-width="1"></path><path d="m17.119 15.04 0 7.457" fill="none" stroke="#000000" stroke-linecap="round" stroke-linejoin="round" stroke-width="1"></path></svg>