<svg xmlns="http://www.w3.org/2000/svg" viewBox="0 0 24 24" id="Greek-God-Figure--Streamline-Ultimate"><desc>Greek God Figure Streamline Icon: https://streamlinehq.com</desc><defs></defs><path d="M12 0.8a5.376 5.376 0 0 0 -5.376 5.373v4.888l3.91 1.466v-2.444L9.416 8.617V6.662h5.114v1.955l-1.064 1.466v2.444l3.91 -1.466V6.173A5.376 5.376 0 0 0 12 0.8Z" fill="none" stroke="#000000" stroke-linecap="round" stroke-linejoin="round" stroke-width="1"></path><path d="M10.435 3.959 12 3.532l1.565 0.427" fill="none" stroke="#000000" stroke-linecap="round" stroke-linejoin="round" stroke-width="1"></path><path d="M14.84 15a16.712 16.712 0 0 0 -3.043 -0.269h0a17.026 17.026 0 0 0 -2.764 0.22" fill="none" stroke="#000000" stroke-linecap="round" stroke-linejoin="round" stroke-width="1"></path><path d="M9.03 14.953c-2.663 -1.368 -4.908 -0.966 -6.477 1.422a20.751 20.751 0 0 1 6.664 1.819" fill="none" stroke="#000000" stroke-linecap="round" stroke-linejoin="round" stroke-width="1"></path><path d="M14.84 15c2.513 -1.342 4.909 -1.165 6.6 1.373a20.759 20.759 0 0 0 -6.664 1.819" fill="none" stroke="#000000" stroke-linecap="round" stroke-linejoin="round" stroke-width="1"></path><path d="m6.316 21.203 0 2" fill="none" stroke="#000000" stroke-linecap="round" stroke-linejoin="round" stroke-width="1"></path><path d="M18.859 16.812a5.169 5.169 0 0 1 2.662 4.34V23.2" fill="none" stroke="#000000" stroke-linecap="round" stroke-linejoin="round" stroke-width="1"></path><path d="M2.479 23.2v-2.048a5.409 5.409 0 0 1 2.641 -4.344" fill="none" stroke="#000000" stroke-linecap="round" stroke-linejoin="round" stroke-width="1"></path><path d="m16.816 21.203 0 2" fill="none" stroke="#000000" stroke-linecap="round" stroke-linejoin="round" stroke-width="1"></path></svg>