<svg xmlns="http://www.w3.org/2000/svg" viewBox="0 0 24 24" id="Greek-God-Zeus-Lightning--Streamline-Ultimate"><desc>Greek God Zeus Lightning Streamline Icon: https://streamlinehq.com</desc><defs></defs><path d="M14.289 14.986a1.249 1.249 0 0 1 -1.766 0l-0.219 -0.22A1.248 1.248 0 0 1 12.3 13l1.921 -1.96a1.248 1.248 0 0 1 1.765 0l0.567 0.562" fill="none" stroke="#000000" stroke-linecap="round" stroke-linejoin="round" stroke-width="1"></path><path d="M7.404 15.008 3.09 16.922l2.143 2.014L0.89 22.453l8.497 -1.621 -0.926 -1.701 1.532 -1.532" fill="none" stroke="#000000" stroke-linecap="round" stroke-linejoin="round" stroke-width="1"></path><path d="m15.266 10.318 6.541 -3.028 -2.368 -2.226 3.671 -3.517 -10.22 2.287 2.037 1.915 -2.197 2.196" fill="none" stroke="#000000" stroke-linecap="round" stroke-linejoin="round" stroke-width="1"></path><path d="m8.877 16.481 1.523 1.528a2.04 2.04 0 0 0 2.8 0.081h0l2.5 2.972" fill="none" stroke="#000000" stroke-linecap="round" stroke-linejoin="round" stroke-width="1"></path><path d="m16.661 11.707 0.279 0.31a2.041 2.041 0 0 1 -0.175 2.8h0l2.573 2.591" fill="none" stroke="#000000" stroke-linecap="round" stroke-linejoin="round" stroke-width="1"></path><path d="m15.821 10.873 -2.652 -2.652a1.434 1.434 0 0 0 -2.02 0.105L7 12.477a1.434 1.434 0 0 0 -0.105 2.02l1.694 1.694a1.435 1.435 0 0 0 2.021 -0.105l1.507 -1.508" fill="none" stroke="#000000" stroke-linecap="round" stroke-linejoin="round" stroke-width="1"></path></svg>