<svg xmlns="http://www.w3.org/2000/svg" viewBox="0 0 24 24" id="Greek-God-Hera--Streamline-Ultimate"><desc>Greek God Hera Streamline Icon: https://streamlinehq.com</desc><defs></defs><path d="m17.819 17.517 -0.837 5.465" fill="none" stroke="#000000" stroke-linecap="round" stroke-linejoin="round" stroke-width="1"></path><path d="m19.481 6.672 -1.347 8.794" fill="none" stroke="#000000" stroke-linecap="round" stroke-linejoin="round" stroke-width="1"></path><path d="M17.784 4.695a2 2 0 1 0 4 0 2 2 0 1 0 -4 0" fill="none" stroke="#000000" stroke-linecap="round" stroke-linejoin="round" stroke-width="1"></path><path d="M5.634 3.75a3 3 0 1 0 6 0 3 3 0 1 0 -6 0" fill="none" stroke="#000000" stroke-linecap="round" stroke-linejoin="round" stroke-width="1"></path><path d="M5.482 3.482c-1.253 0.822 -2.1 7.734 -1.719 8.055" fill="none" stroke="#000000" stroke-linecap="round" stroke-linejoin="round" stroke-width="1"></path><path d="M11.621 3.474c1.37 0.394 1.841 7.026 1.458 7.347" fill="none" stroke="#000000" stroke-linecap="round" stroke-linejoin="round" stroke-width="1"></path><path d="m5.457 15 -1.015 8.25h0c4.364 0 7.1 -3.526 7.305 -7.884" fill="none" stroke="#000000" stroke-linecap="round" stroke-linejoin="round" stroke-width="1"></path><path d="M11.261 9.263c-0.99 1.611 -3.336 5.55 -5.754 5.564" fill="none" stroke="#000000" stroke-linecap="round" stroke-linejoin="round" stroke-width="1"></path><path d="M5.189 17.177a1.616 1.616 0 0 1 -1.746 1.232h0a1.445 1.445 0 0 1 -1.167 -1.837l1.487 -5.035A5.252 5.252 0 0 1 9.15 8.275a5.315 5.315 0 0 1 4.572 4.112 2.786 2.786 0 0 0 1.731 1.931l2.356 0.889a1.44 1.44 0 0 1 0.664 1.239h0a1.4 1.4 0 0 1 -1.742 1.246l-0.42 -0.082c-1.874 -0.367 -3.576 -0.8 -4.564 -2.244l1.077 7.875" fill="none" stroke="#000000" stroke-linecap="round" stroke-linejoin="round" stroke-width="1"></path><path d="m5.641 3.49 5.98 -0.016" fill="none" stroke="#000000" stroke-linecap="round" stroke-linejoin="round" stroke-width="1"></path></svg>