<svg xmlns="http://www.w3.org/2000/svg" viewBox="0 0 24 24" id="Greek-God-Hestia--Streamline-Ultimate"><desc>Greek God Hestia Streamline Icon: https://streamlinehq.com</desc><defs></defs><path d="M19.089 5.3a0.3 0.3 0 0 1 0.382 0.424 2.973 2.973 0 0 0 0.61 3.05 3.379 3.379 0 0 1 0.8 -1.109 0.207 0.207 0 0 1 0.105 0.028 2.341 2.341 0 0 1 1.188 1.945 2.988 2.988 0 0 1 -5.975 0.085v-0.084a4.861 4.861 0 0 1 2.89 -4.339Z" fill="none" stroke="#000000" stroke-linecap="round" stroke-linejoin="round" stroke-width="1"></path><path d="M11.139 9.186c-0.632 1.866 -1.687 3.089 -2.882 3.089S5.98 11.021 5.351 9.116" fill="none" stroke="#000000" stroke-linecap="round" stroke-linejoin="round" stroke-width="1"></path><path d="M5.241 3.75a3 3 0 1 0 6 0 3 3 0 1 0 -6 0" fill="none" stroke="#000000" stroke-linecap="round" stroke-linejoin="round" stroke-width="1"></path><path d="M5.241 3.632a2.165 2.165 0 0 0 -1.43 3.049 1.751 1.751 0 0 0 -1.462 1.2" fill="none" stroke="#000000" stroke-linecap="round" stroke-linejoin="round" stroke-width="1"></path><path d="M11.354 3.632a2.164 2.164 0 0 1 1.2 3.146 1.745 1.745 0 0 1 1.37 1.3" fill="none" stroke="#000000" stroke-linecap="round" stroke-linejoin="round" stroke-width="1"></path><path d="M11.354 15.291c-0.209 4.358 -2.941 7.959 -7.3 7.959h0l1.207 -8.975 -0.525 -4.684" fill="none" stroke="#000000" stroke-linecap="round" stroke-linejoin="round" stroke-width="1"></path><path d="M4.872 17.139a1.73 1.73 0 0 1 -1.822 1.27h0a1.445 1.445 0 0 1 -1.167 -1.837l1.487 -5.035a5.253 5.253 0 0 1 5.387 -3.262 5.317 5.317 0 0 1 4.573 4.112 2.783 2.783 0 0 0 1.73 1.931l2.356 0.889a1.191 1.191 0 0 1 0.665 1.3h0a1.348 1.348 0 0 1 -1.46 1.131l-0.42 -0.082c-1.874 -0.367 -3.859 -0.831 -4.847 -2.27l1.077 7.95" fill="none" stroke="#000000" stroke-linecap="round" stroke-linejoin="round" stroke-width="1"></path><path d="m5.326 3.471 5.825 -0.017" fill="none" stroke="#000000" stroke-linecap="round" stroke-linejoin="round" stroke-width="1"></path></svg>