<svg xmlns="http://www.w3.org/2000/svg" viewBox="0 0 24 24" id="Greek-God-Minotaur--Streamline-Ultimate"><desc>Greek God Minotaur Streamline Icon: https://streamlinehq.com</desc><defs></defs><path d="m10.597 14.701 0.354 0.367" fill="none" stroke="#000000" stroke-linecap="round" stroke-linejoin="round" stroke-width="1"></path><path d="m5.7 7.74 -0.757 0.429a5.834 5.834 0 0 0 -2.726 3.516 0.233 0.233 0 0 0 0.017 0.219 0.22 0.22 0 0 0 0.126 0.055 5.109 5.109 0 0 0 2.712 -0.469 7.042 7.042 0 0 0 1.176 -0.517" fill="none" stroke="#000000" stroke-linecap="round" stroke-linejoin="round" stroke-width="1"></path><path d="M8.61 6.749a5.5 5.5 0 0 1 1.139 -0.665" fill="none" stroke="#000000" stroke-linecap="round" stroke-linejoin="round" stroke-width="1"></path><path d="m13.344 14.701 -0.355 0.367" fill="none" stroke="#000000" stroke-linecap="round" stroke-linejoin="round" stroke-width="1"></path><path d="M17.648 1.4h0a0.458 0.458 0 0 0 -0.7 0.415l0.1 1.606a1.165 1.165 0 0 1 -0.431 0.98l-2.366 1.683a4.395 4.395 0 0 0 -4.5 0L7.384 4.4a1.165 1.165 0 0 1 -0.431 -0.98l0.1 -1.606a0.458 0.458 0 0 0 -0.7 -0.415h0a3.733 3.733 0 0 0 -1.4 4.66l1.076 2.412 0.237 0.6v4.509a2.008 2.008 0 0 0 0.9 1.677L9.058 16.5a2.01 2.01 0 0 0 2.009 2.009h1.88a2.01 2.01 0 0 0 2.009 -2.009l1.888 -1.245a2.008 2.008 0 0 0 0.9 -1.677V9.074h-0.014l0.237 -0.6 1.072 -2.412A3.733 3.733 0 0 0 17.648 1.4Z" fill="none" stroke="#000000" stroke-linecap="round" stroke-linejoin="round" stroke-width="1"></path><path d="m18.3 7.74 0.757 0.429a5.837 5.837 0 0 1 2.726 3.516 0.233 0.233 0 0 1 -0.017 0.219 0.22 0.22 0 0 1 -0.126 0.055 5.109 5.109 0 0 1 -2.712 -0.469 7.006 7.006 0 0 1 -1.176 -0.517" fill="none" stroke="#000000" stroke-linecap="round" stroke-linejoin="round" stroke-width="1"></path><path d="M15.636 6.949a5.388 5.388 0 0 0 -1.385 -0.865" fill="none" stroke="#000000" stroke-linecap="round" stroke-linejoin="round" stroke-width="1"></path><path d="m9.102 9.864 0.905 0.654" fill="none" stroke="#000000" stroke-linecap="round" stroke-linejoin="round" stroke-width="1"></path><path d="m14.898 9.864 -0.905 0.654" fill="none" stroke="#000000" stroke-linecap="round" stroke-linejoin="round" stroke-width="1"></path><path d="M23.007 22.675a10.22 10.22 0 0 0 -4.336 -6.057" fill="none" stroke="#000000" stroke-linecap="round" stroke-linejoin="round" stroke-width="1"></path><path d="M5.329 16.618a10.22 10.22 0 0 0 -4.336 6.057" fill="none" stroke="#000000" stroke-linecap="round" stroke-linejoin="round" stroke-width="1"></path></svg>