<svg xmlns="http://www.w3.org/2000/svg" viewBox="0 0 24 24" id="Resetta-Stone--Streamline-Ultimate"><desc>Resetta Stone Streamline Icon: https://streamlinehq.com</desc><defs></defs><path d="M3.462 4.47c-1.816 0 -2.494 2.549 -0.5 17.5a113.511 113.511 0 0 0 14.5 0.5c0.836 -17 -0.512 -17.507 -2 -18.5a119.2 119.2 0 0 0 -12 0.5Z" fill="none" stroke="#000000" stroke-linecap="round" stroke-linejoin="round" stroke-width="1"></path><path d="m15.462 3.97 4.5 -2.5c2.777 3 2.248 1.091 2.248 19.5l-4.748 1.5" fill="none" stroke="#000000" stroke-linecap="round" stroke-linejoin="round" stroke-width="1"></path><path d="M2.837 4.609 7.962 1.47l12 0" fill="none" stroke="#000000" stroke-linecap="round" stroke-linejoin="round" stroke-width="1"></path><path d="m4.962 9.533 1.5 0" fill="none" stroke="#000000" stroke-linecap="round" stroke-linejoin="round" stroke-width="1"></path><path d="m9.148 9.533 5.185 0" fill="none" stroke="#000000" stroke-linecap="round" stroke-linejoin="round" stroke-width="1"></path><path d="m5.382 18.255 1.5 0" fill="none" stroke="#000000" stroke-linecap="round" stroke-linejoin="round" stroke-width="1"></path><path d="m9.569 18.255 5.185 0" fill="none" stroke="#000000" stroke-linecap="round" stroke-linejoin="round" stroke-width="1"></path><path d="m5.212 13.894 3.5 0" fill="none" stroke="#000000" stroke-linecap="round" stroke-linejoin="round" stroke-width="1"></path><path d="m11.679 13.894 1.5 0" fill="none" stroke="#000000" stroke-linecap="round" stroke-linejoin="round" stroke-width="1"></path></svg>