<svg viewBox="0 0 24 24" xmlns="http://www.w3.org/2000/svg" id="Park-Fonutain-1--Streamline-Ultimate"><desc>Park Fonutain 1 Streamline Icon: https://streamlinehq.com</desc><path d="M9.154 6.75a1.5 1.5 0 0 1 3 0" fill="none" stroke="#000000" stroke-linecap="round" stroke-linejoin="round" stroke-width="1"></path><path d="M15.154 6.75a1.5 1.5 0 0 0 -3 0" fill="none" stroke="#000000" stroke-linecap="round" stroke-linejoin="round" stroke-width="1"></path><path d="M4.654 4.5a3.75 3.75 0 0 1 7.5 0" fill="none" stroke="#000000" stroke-linecap="round" stroke-linejoin="round" stroke-width="1"></path><path d="M12.154 9.75V4.5a3.75 3.75 0 0 1 7.5 0" fill="none" stroke="#000000" stroke-linecap="round" stroke-linejoin="round" stroke-width="1"></path><path d="M21.25 16.5a0.75 0.75 0 0 1 0.649 1.126 11.253 11.253 0 0 1 -19.489 0 0.749 0.749 0 0 1 0.649 -1.126Z" fill="none" stroke="#000000" stroke-linecap="round" stroke-linejoin="round" stroke-width="1"></path><path d="M16.592 9.75a0.75 0.75 0 0 1 0.6 1.194 6.251 6.251 0 0 1 -10.084 0 0.75 0.75 0 0 1 0.6 -1.194Z" fill="none" stroke="#000000" stroke-linecap="round" stroke-linejoin="round" stroke-width="1"></path></svg>