<svg viewBox="0 0 24 24" xmlns="http://www.w3.org/2000/svg" id="Park-Fountain--Streamline-Ultimate"><desc>Park Fountain Streamline Icon: https://streamlinehq.com</desc><path d="M9 7.5a1.5 1.5 0 0 1 3 0" fill="none" stroke="#000000" stroke-linecap="round" stroke-linejoin="round" stroke-width="1"></path><path d="M15 7.5a1.5 1.5 0 0 0 -3 0" fill="none" stroke="#000000" stroke-linecap="round" stroke-linejoin="round" stroke-width="1"></path><path d="M4.5 5.25a3.75 3.75 0 0 1 7.5 0" fill="none" stroke="#000000" stroke-linecap="round" stroke-linejoin="round" stroke-width="1"></path><path d="M12 12V5.25a3.75 3.75 0 0 1 7.5 0" fill="none" stroke="#000000" stroke-linecap="round" stroke-linejoin="round" stroke-width="1"></path><path d="m1.5 12 21 0" fill="none" stroke="#000000" stroke-linecap="round" stroke-linejoin="round" stroke-width="1"></path><path d="M21.75 12A4.684 4.684 0 0 0 18 14.25C16.625 16.893 15.185 18 12 18c-3.2 0 -4.633 -1.082 -6 -3.75A4.688 4.688 0 0 0 2.25 12" fill="none" stroke="#000000" stroke-linecap="round" stroke-linejoin="round" stroke-width="1"></path><path d="m7.5 22.5 9 0" fill="none" stroke="#000000" stroke-linecap="round" stroke-linejoin="round" stroke-width="1"></path><path d="m12 22.5 0 -4.5" fill="none" stroke="#000000" stroke-linecap="round" stroke-linejoin="round" stroke-width="1"></path></svg>