<svg xmlns="http://www.w3.org/2000/svg" fill="none" viewBox="0 0 24 24" id="Seo-Network-Map--Streamline-Ultimate"><desc>Seo Network Map Streamline Icon: https://streamlinehq.com</desc><path stroke="#000000" stroke-linecap="round" stroke-linejoin="round" d="M10.118 3.75002c0 1.362 -2.02996 4.542 -2.74996 5.628 -0.02736 0.04126 -0.06451 0.0751 -0.10813 0.09851 -0.04363 0.02341 -0.09236 0.03566 -0.14187 0.03566 -0.0495 0 -0.09824 -0.01225 -0.14186 -0.03566 -0.04362 -0.02341 -0.08077 -0.05725 -0.10814 -0.09851 -0.721 -1.086 -2.75 -4.267 -2.75 -5.629 0 -0.79565 0.31607 -1.55871 0.87868 -2.12132 0.56261 -0.56261 1.32567 -0.878677 2.12132 -0.878677s1.55871 0.316067 2.12132 0.878677c0.56261 0.56261 0.87864 1.32567 0.87864 2.12132v0.001Z" stroke-width="1"></path><path stroke="#000000" d="M7.11804 4.125c-0.2071 0 -0.375 -0.16789 -0.375 -0.375s0.1679 -0.375 0.375 -0.375" stroke-width="1"></path><path stroke="#000000" d="M7.11804 4.125c0.20711 0 0.375 -0.16789 0.375 -0.375s-0.16789 -0.375 -0.375 -0.375" stroke-width="1"></path><path stroke="#000000" stroke-linecap="round" stroke-linejoin="round" d="M15.368 21c2.8995 0 5.25 -2.3505 5.25 -5.25s-2.3505 -5.25 -5.25 -5.25 -5.25 2.3505 -5.25 5.25S12.4685 21 15.368 21Z" stroke-width="1"></path><path stroke="#000000" stroke-linecap="round" stroke-linejoin="round" d="m22.868 23.25 -3.788 -3.788" stroke-width="1"></path><path stroke="#000000" stroke-linecap="round" stroke-linejoin="round" d="M11.1799 23.188c-1.26247 0.1489 -2.54221 0.0288 -3.75501 -0.3523 -1.2128 -0.381 -2.33119 -1.0146 -3.28163 -1.8588 -0.95044 -0.8443 -1.71139 -1.8802 -2.23282 -3.0396 -0.52142 -1.1594 -0.79151 -2.4161 -0.7925 -3.6873 -0.00394 -1.7621 0.51153 -3.4863 1.482 -4.95703" stroke-width="1"></path><path stroke="#000000" stroke-linecap="round" stroke-linejoin="round" d="M12.759 5.64294c1.5554 0.47852 2.952 1.36981 4.041 2.579" stroke-width="1"></path><path stroke="#000000" stroke-linecap="round" stroke-linejoin="round" d="M1.86694 10.65h1.951c0.47739 0 0.93523 0.1897 1.2728 0.5272 0.33756 0.3376 0.5272 0.7954 0.5272 1.2728v1.95c-0.00005 0.2364 0.04646 0.4705 0.13688 0.6889 0.09043 0.2185 0.22299 0.4169 0.39012 0.5841l1.386 1.386c0.2364 0.2364 0.40231 0.5339 0.47915 0.8592 0.07683 0.3254 0.06154 0.6657 -0.04415 0.9828l-0.366 1.115c-0.11511 0.3476 -0.33392 0.6516 -0.627 0.871l-1.464 1.094" stroke-width="1"></path></svg>