<svg xmlns="http://www.w3.org/2000/svg" viewBox="0 0 24 24" id="Seo-Zoom--Streamline-Ultimate"><desc>Seo Zoom Streamline Icon: https://streamlinehq.com</desc><g><path d="M5 7.35c1.31 -0.68 4.77 -1.1 7 -1.1s5.41 0.14 6.88 0.75h3.39a1 1 0 0 1 1 1v4a1 1 0 0 1 -1 1h-3.39A23.14 23.14 0 0 1 12 14.08a21.61 21.61 0 0 1 -6.85 -1" fill="none" stroke="#000000" stroke-linecap="round" stroke-linejoin="round" stroke-width="1"></path><path d="M2.25 13h-0.52a1 1 0 0 1 -1 -1V8a1 1 0 0 1 1 -1h0.52" fill="none" stroke="#000000" stroke-linecap="round" stroke-linejoin="round" stroke-width="1"></path><path d="m9 9.25 0 1.5" fill="none" stroke="#000000" stroke-linecap="round" stroke-linejoin="round" stroke-width="1"></path><path d="m12 9.25 0 1.5" fill="none" stroke="#000000" stroke-linecap="round" stroke-linejoin="round" stroke-width="1"></path><path d="M4.5 10a7.5 7.5 0 1 0 15 0 7.5 7.5 0 1 0 -15 0" fill="none" stroke="#000000" stroke-linecap="round" stroke-linejoin="round" stroke-width="1"></path><path d="m16.89 15.69 6.36 5.56" fill="none" stroke="#000000" stroke-linecap="round" stroke-linejoin="round" stroke-width="1"></path></g></svg>