<svg viewBox="0 0 24 24" xmlns="http://www.w3.org/2000/svg" id="Seo-Search-Laptop--Streamline-Ultimate"><desc>Seo Search Laptop Streamline Icon: https://streamlinehq.com</desc><path d="m18.25 3.005 0 -1.977" fill="none" stroke="#000000" stroke-linecap="round" stroke-linejoin="round" stroke-width="1"></path><path d="m14.84 3.5 -0.989 -0.989" fill="none" stroke="#000000" stroke-linecap="round" stroke-linejoin="round" stroke-width="1"></path><path d="m21.761 3.5 0.989 -0.989" fill="none" stroke="#000000" stroke-linecap="round" stroke-linejoin="round" stroke-width="1"></path><path d="M14.426 9.5a3.75 3.75 0 1 0 7.5 0 3.75 3.75 0 1 0 -7.5 0Z" fill="none" stroke="#000000" stroke-linecap="round" stroke-linejoin="round" stroke-width="1"></path><path d="M20.426 12.5 23 15.074" fill="none" stroke="#000000" stroke-linecap="round" stroke-linejoin="round" stroke-width="1"></path><path d="M5.275 16.25A1.338 1.338 0 0 1 4 14.857V7.893A1.338 1.338 0 0 1 5.275 6.5h6.975" fill="none" stroke="#000000" stroke-linecap="round" stroke-linejoin="round" stroke-width="1"></path><path d="m20.356 21.046 -1.652 -3.3a2.7 2.7 0 0 0 -2.415 -1.492H5.211A2.7 2.7 0 0 0 2.8 17.742l-1.652 3.3A1.35 1.35 0 0 0 2.352 23h16.8a1.35 1.35 0 0 0 1.204 -1.954Z" fill="none" stroke="#000000" stroke-linecap="round" stroke-linejoin="round" stroke-width="1"></path><path d="m9.775 20 2.7 0" fill="none" stroke="#000000" stroke-linecap="round" stroke-linejoin="round" stroke-width="1"></path><path d="m12.25 10.25 -5.25 0 0 3 5.25 0" fill="none" stroke="#000000" stroke-linecap="round" stroke-linejoin="round" stroke-width="1"></path></svg>