<svg viewBox="0 0 24 24" xmlns="http://www.w3.org/2000/svg" id="Seo-Search-Settings--Streamline-Ultimate"><desc>Seo Search Settings Streamline Icon: https://streamlinehq.com</desc><path d="M1.4720451262 13.356970375A9.063 9.063 0 1 0 18.154024235 6.267298379a9.063 9.063 0 1 0 -16.6819791088 7.089671996Z" fill="none" stroke="#000000" stroke-linecap="round" stroke-linejoin="round" stroke-width="1"></path><path d="m16.221 16.22 7.029 7.03" fill="none" stroke="#000000" stroke-linecap="round" stroke-linejoin="round" stroke-width="1"></path><path d="M6.063 9.812a3.75 3.75 0 1 0 7.5 0 3.75 3.75 0 1 0 -7.5 0Z" fill="none" stroke="#000000" stroke-linecap="round" stroke-linejoin="round" stroke-width="1"></path><path d="m9.813 6.062 0 -1.8" fill="none" stroke="#000000" stroke-linecap="round" stroke-linejoin="round" stroke-width="1"></path><path d="m9.813 15.362 0 -1.8" fill="none" stroke="#000000" stroke-linecap="round" stroke-linejoin="round" stroke-width="1"></path><path d="m13.563 9.812 1.8 0" fill="none" stroke="#000000" stroke-linecap="round" stroke-linejoin="round" stroke-width="1"></path><path d="m4.263 9.812 1.8 0" fill="none" stroke="#000000" stroke-linecap="round" stroke-linejoin="round" stroke-width="1"></path><path d="M6.272 5.853 7.378 6.96" fill="none" stroke="#000000" stroke-linecap="round" stroke-linejoin="round" stroke-width="1"></path><path d="M13.354 5.853 12.247 6.96" fill="none" stroke="#000000" stroke-linecap="round" stroke-linejoin="round" stroke-width="1"></path><path d="m6.272 13.771 1.106 -1.106" fill="none" stroke="#000000" stroke-linecap="round" stroke-linejoin="round" stroke-width="1"></path><path d="m13.354 13.771 -1.107 -1.106" fill="none" stroke="#000000" stroke-linecap="round" stroke-linejoin="round" stroke-width="1"></path><path d="M9.813 9.062a0.75 0.75 0 1 1 -0.75 0.75 0.75 0.75 0 0 1 0.75 -0.75" fill="none" stroke="#000000" stroke-linecap="round" stroke-linejoin="round" stroke-width="1"></path></svg>