<svg xmlns="http://www.w3.org/2000/svg" viewBox="0 0 24 24" id="Avatar-Korean-Man--Streamline-Ultimate"><desc>Avatar Korean Man Streamline Icon: https://streamlinehq.com</desc><defs></defs><path d="M8.21 19.02H8.2" fill="none" stroke="#000000" stroke-linecap="round" stroke-linejoin="round" stroke-width="1"></path><path d="M17.094 9.205a5.251 5.251 0 1 1 -10.184 0.022" fill="none" stroke="#000000" stroke-linecap="round" stroke-linejoin="round" stroke-width="1"></path><path d="m11 23.25 4.87 -4.2a9.8 9.8 0 0 1 4.646 4.2" fill="none" stroke="#000000" stroke-linecap="round" stroke-linejoin="round" stroke-width="1"></path><path d="M8.21 19.02H8.2a9.777 9.777 0 0 0 -4.716 4.23" fill="none" stroke="#000000" stroke-linecap="round" stroke-linejoin="round" stroke-width="1"></path><path d="M17 9.25H7l0.445 -7.559a1 1 0 0 1 1 -0.941h7.114a1 1 0 0 1 1 0.941Z" fill="none" stroke="#000000" stroke-linecap="round" stroke-linejoin="round" stroke-width="1"></path><path d="m3.5 9.25 17 0" fill="none" stroke="#000000" stroke-linecap="round" stroke-linejoin="round" stroke-width="1"></path><path d="m12.004 15.75 -1.347 1.408" fill="none" stroke="#000000" stroke-linecap="round" stroke-linejoin="round" stroke-width="1"></path><path d="m12.004 15.75 1.347 1.408" fill="none" stroke="#000000" stroke-linecap="round" stroke-linejoin="round" stroke-width="1"></path><path d="m8.25 19 3.829 3.319" fill="none" stroke="#000000" stroke-linecap="round" stroke-linejoin="round" stroke-width="1"></path></svg>