<svg xmlns="http://www.w3.org/2000/svg" viewBox="0 0 24 24" id="History-Man-Aviator--Streamline-Ultimate"><desc>History Man Aviator Streamline Icon: https://streamlinehq.com</desc><g><path d="M2.25 23.25A9.75 9.75 0 0 1 9 14l3 2.53L15 14a9.75 9.75 0 0 1 6.75 9.28" fill="none" stroke="#000000" stroke-linecap="round" stroke-linejoin="round" stroke-width="1"></path><path d="M17.65 15.31A9.44 9.44 0 0 0 15 14l-3 2.5 4.5 3Z" fill="none" stroke="#000000" stroke-linecap="round" stroke-linejoin="round" stroke-width="1"></path><path d="M12 16.5 9 14a9.44 9.44 0 0 0 -2.65 1.34L7.5 19.5Z" fill="none" stroke="#000000" stroke-linecap="round" stroke-linejoin="round" stroke-width="1"></path><path d="M12 6.75H6.37a0.94 0.94 0 0 1 -0.94 -0.94A6.61 6.61 0 0 1 6.07 3a0.49 0.49 0 0 1 0.32 -0.26c2.02 -0.59 5 -0.26 5.61 4.01Z" fill="none" stroke="#000000" stroke-linecap="round" stroke-linejoin="round" stroke-width="1"></path><path d="M18.57 5.81a0.94 0.94 0 0 1 -0.94 0.94H12c0.61 -4.27 3.59 -4.6 5.61 -4a0.49 0.49 0 0 1 0.32 0.26 6.61 6.61 0 0 1 0.64 2.8Z" fill="none" stroke="#000000" stroke-linecap="round" stroke-linejoin="round" stroke-width="1"></path><path d="m6.75 6.75 0 5.25" fill="none" stroke="#000000" stroke-linecap="round" stroke-linejoin="round" stroke-width="1"></path><path d="m17.25 6.75 0 5.25" fill="none" stroke="#000000" stroke-linecap="round" stroke-linejoin="round" stroke-width="1"></path><path d="M6.8 6.75a5.25 5.25 0 0 0 10.4 0" fill="none" stroke="#000000" stroke-linecap="round" stroke-linejoin="round" stroke-width="1"></path><path d="M15.92 2.5a5.27 5.27 0 0 0 -7.84 0" fill="none" stroke="#000000" stroke-linecap="round" stroke-linejoin="round" stroke-width="1"></path></g></svg>