<svg xmlns="http://www.w3.org/2000/svg" viewBox="0 0 24 24" id="Accounting-Invoice--Streamline-Ultimate"><desc>Accounting Invoice Streamline Icon: https://streamlinehq.com</desc><g><g><path d="M10 0.75h4.38a1.5 1.5 0 0 1 1.06 0.44l5.87 5.87a1.5 1.5 0 0 1 0.44 1.06v13.63a1.5 1.5 0 0 1 -1.5 1.5H3.75a1.5 1.5 0 0 1 -1.5 -1.5V2.25a1.5 1.5 0 0 1 1.5 -1.5H5" fill="none" stroke="#000000" stroke-linecap="round" stroke-linejoin="round" stroke-width="1"></path><path d="M21.75 8.25h-6a1.5 1.5 0 0 1 -1.5 -1.5v-6" fill="none" stroke="#000000" stroke-linecap="round" stroke-linejoin="round" stroke-width="1"></path></g><g><path d="M5.64 8.59a2.22 2.22 0 0 0 1.86 0.88c1.14 0 2.06 -0.69 2.06 -1.55S8.64 6.38 7.5 6.38s-2.06 -0.7 -2.06 -1.55 0.92 -1.55 2.06 -1.55a2.22 2.22 0 0 1 1.86 0.88" fill="none" stroke="#000000" stroke-linecap="round" stroke-linejoin="round" stroke-width="1"></path><path d="m7.5 9.47 0 1.03" fill="none" stroke="#000000" stroke-linecap="round" stroke-linejoin="round" stroke-width="1"></path><path d="m7.5 2.25 0 1.03" fill="none" stroke="#000000" stroke-linecap="round" stroke-linejoin="round" stroke-width="1"></path></g><path d="M5.75 13.25h12.5s0.5 0 0.5 0.5v6s0 0.5 -0.5 0.5H5.75s-0.5 0 -0.5 -0.5v-6s0 -0.5 0.5 -0.5" fill="none" stroke="#000000" stroke-linecap="round" stroke-linejoin="round" stroke-width="1"></path><path d="m5.25 16.75 13.5 0" fill="none" stroke="#000000" stroke-linecap="round" stroke-linejoin="round" stroke-width="1"></path><path d="m9.75 13.25 0 7" fill="none" stroke="#000000" stroke-linecap="round" stroke-linejoin="round" stroke-width="1"></path><path d="m14.25 13.25 0 7" fill="none" stroke="#000000" stroke-linecap="round" stroke-linejoin="round" stroke-width="1"></path></g></svg>