<svg xmlns="http://www.w3.org/2000/svg" viewBox="0 0 24 24" id="Accounting-Abacus--Streamline-Ultimate"><desc>Accounting Abacus Streamline Icon: https://streamlinehq.com</desc><g><path d="M3 0.75h18s1.5 0 1.5 1.5v19.5s0 1.5 -1.5 1.5H3s-1.5 0 -1.5 -1.5V2.25S1.5 0.75 3 0.75" fill="none" stroke="#000000" stroke-linecap="round" stroke-linejoin="round" stroke-width="1"></path><path d="m7.5 0.75 0 3" fill="none" stroke="#000000" stroke-linecap="round" stroke-linejoin="round" stroke-width="1"></path><path d="m7.5 7.25 0 4.5" fill="none" stroke="#000000" stroke-linecap="round" stroke-linejoin="round" stroke-width="1"></path><path d="m7.5 20.25 0 3" fill="none" stroke="#000000" stroke-linecap="round" stroke-linejoin="round" stroke-width="1"></path><path d="M10 5.5a1.75 1.75 0 0 1 -1.75 1.75h-1.5a1.75 1.75 0 0 1 0 -3.5h1.5A1.75 1.75 0 0 1 10 5.5Z" fill="none" stroke="#000000" stroke-linecap="round" stroke-linejoin="round" stroke-width="1"></path><path d="M10 13.5a1.75 1.75 0 0 1 -1.75 1.75h-1.5a1.75 1.75 0 0 1 0 -3.5h1.5A1.75 1.75 0 0 1 10 13.5Z" fill="none" stroke="#000000" stroke-linecap="round" stroke-linejoin="round" stroke-width="1"></path><path d="M10 18.5a1.75 1.75 0 0 1 -1.75 1.75h-1.5a1.75 1.75 0 0 1 0 -3.5h1.5A1.75 1.75 0 0 1 10 18.5Z" fill="none" stroke="#000000" stroke-linecap="round" stroke-linejoin="round" stroke-width="1"></path><path d="m16.5 23.25 0 -3" fill="none" stroke="#000000" stroke-linecap="round" stroke-linejoin="round" stroke-width="1"></path><path d="m16.5 16.75 0 -4.5" fill="none" stroke="#000000" stroke-linecap="round" stroke-linejoin="round" stroke-width="1"></path><path d="m16.5 3.75 0 -3" fill="none" stroke="#000000" stroke-linecap="round" stroke-linejoin="round" stroke-width="1"></path><path d="M19 18.5a1.75 1.75 0 0 0 -1.75 -1.75h-1.5a1.75 1.75 0 0 0 0 3.5h1.5A1.75 1.75 0 0 0 19 18.5Z" fill="none" stroke="#000000" stroke-linecap="round" stroke-linejoin="round" stroke-width="1"></path><path d="M19 10.5a1.75 1.75 0 0 0 -1.75 -1.75h-1.5a1.75 1.75 0 0 0 0 3.5h1.5A1.75 1.75 0 0 0 19 10.5Z" fill="none" stroke="#000000" stroke-linecap="round" stroke-linejoin="round" stroke-width="1"></path><path d="M19 5.5a1.75 1.75 0 0 0 -1.75 -1.75h-1.5a1.75 1.75 0 0 0 0 3.5h1.5A1.75 1.75 0 0 0 19 5.5Z" fill="none" stroke="#000000" stroke-linecap="round" stroke-linejoin="round" stroke-width="1"></path><path d="m16.5 7.25 0 1.5" fill="none" stroke="#000000" stroke-linecap="round" stroke-linejoin="round" stroke-width="1"></path><path d="m7.5 15.25 0 1.5" fill="none" stroke="#000000" stroke-linecap="round" stroke-linejoin="round" stroke-width="1"></path></g></svg>