<svg xmlns="http://www.w3.org/2000/svg" viewBox="0 0 24 24" id="Currency-Sign-Hryvnia-Coupon--Streamline-Ultimate"><desc>Currency Sign Hryvnia Coupon Streamline Icon: https://streamlinehq.com</desc><defs></defs><path d="M23.25 12a4.5 4.5 0 0 0 -3 -4.243V6a1.5 1.5 0 0 0 -1.5 -1.5H5.25A1.5 1.5 0 0 0 3.75 6v1.757a4.5 4.5 0 0 0 0 8.486V18a1.5 1.5 0 0 0 1.5 1.5h13.5a1.5 1.5 0 0 0 1.5 -1.5v-1.757a4.5 4.5 0 0 0 3 -4.243Z" fill="none" stroke="#000000" stroke-linecap="round" stroke-linejoin="round" stroke-width="1"></path><path d="M13.5 8.75h-2.033a1.342 1.342 0 0 0 -0.5 2.587l2.064 0.826a1.342 1.342 0 0 1 -0.5 2.587H10.5" fill="none" stroke="#000000" stroke-linecap="round" stroke-linejoin="round" stroke-width="1"></path><path d="m9 11.75 6 0" fill="none" stroke="#000000" stroke-linecap="round" stroke-linejoin="round" stroke-width="1"></path></svg>