<svg xmlns="http://www.w3.org/2000/svg" viewBox="0 0 24 24" id="Currency-Euro-Dollar-Exchange--Streamline-Ultimate"><desc>Currency Euro Dollar Exchange Streamline Icon: https://streamlinehq.com</desc><g><g><g><path d="M18.25 4.25h-2a1.34 1.34 0 0 0 -0.5 2.59l2.06 0.82a1.34 1.34 0 0 1 -0.5 2.59h-2" fill="none" stroke="#000000" stroke-linecap="round" stroke-linejoin="round" stroke-width="1"></path><path d="m16.75 4.25 0 -0.75" fill="none" stroke="#000000" stroke-linecap="round" stroke-linejoin="round" stroke-width="1"></path><path d="m16.75 11 0 -0.75" fill="none" stroke="#000000" stroke-linecap="round" stroke-linejoin="round" stroke-width="1"></path></g><path d="M16.75 13.75a6.5 6.5 0 1 0 -6.5 -6.5" fill="none" stroke="#000000" stroke-linecap="round" stroke-linejoin="round" stroke-width="1"></path></g><g><path d="M0.75 16.75a6.5 6.5 0 1 0 13 0 6.5 6.5 0 1 0 -13 0" fill="none" stroke="#000000" stroke-linecap="round" stroke-linejoin="round" stroke-width="1"></path><path d="M8.88 20a3.25 3.25 0 0 1 0 -6.5" fill="none" stroke="#000000" stroke-linecap="round" stroke-linejoin="round" stroke-width="1"></path><path d="m4.81 16.75 4.07 0" fill="none" stroke="#000000" stroke-linecap="round" stroke-linejoin="round" stroke-width="1"></path></g><g><path d="M0.75 4.5 3 8.25 6.75 6" fill="none" stroke="#000000" stroke-linecap="round" stroke-linejoin="round" stroke-width="1"></path><path d="M8.19 0.9a6.73 6.73 0 0 0 -4.42 6.89" fill="none" stroke="#000000" stroke-linecap="round" stroke-linejoin="round" stroke-width="1"></path></g><g><path d="M23.25 19.5 21 15.75 17.25 18" fill="none" stroke="#000000" stroke-linecap="round" stroke-linejoin="round" stroke-width="1"></path><path d="M15.81 23.1a6.73 6.73 0 0 0 4.42 -6.89" fill="none" stroke="#000000" stroke-linecap="round" stroke-linejoin="round" stroke-width="1"></path></g></g></svg>