<svg xmlns="http://www.w3.org/2000/svg" viewBox="0 0 24 24" id="Currency-Dollar-Bubble--Streamline-Ultimate"><desc>Currency Dollar Bubble Streamline Icon: https://streamlinehq.com</desc><g><path d="M23.25 12a3.75 3.75 0 0 0 -2.62 -3.58 3.75 3.75 0 0 0 -5 -5 3.76 3.76 0 0 0 -7.16 0 3.75 3.75 0 0 0 -5 5.05 3.76 3.76 0 0 0 0 7.16 3.75 3.75 0 0 0 5.05 5 3.76 3.76 0 0 0 7.16 0 3.75 3.75 0 0 0 5 -5A3.75 3.75 0 0 0 23.25 12Z" fill="none" stroke="#000000" stroke-linecap="round" stroke-linejoin="round" stroke-width="1"></path><g><path d="M15 7.5h-4.21A1.66 1.66 0 0 0 9 9.29c0 2 6 3.46 6 5.42a1.76 1.76 0 0 1 -1.79 1.79H9" fill="none" stroke="#000000" stroke-linecap="round" stroke-linejoin="round" stroke-width="1"></path><path d="m12 7.5 0 -2.25" fill="none" stroke="#000000" stroke-linecap="round" stroke-linejoin="round" stroke-width="1"></path><path d="m12 18.75 0 -2.25" fill="none" stroke="#000000" stroke-linecap="round" stroke-linejoin="round" stroke-width="1"></path></g></g></svg>