<svg viewBox="0 0 24 24" xmlns="http://www.w3.org/2000/svg" id="Currency-User-Exchange--Streamline-Ultimate"><desc>Currency User Exchange Streamline Icon: https://streamlinehq.com</desc><path d="M9.375 3.375a2.625 2.625 0 1 0 5.25 0 2.625 2.625 0 1 0 -5.25 0Z" fill="none" stroke="#000000" stroke-linecap="round" stroke-linejoin="round" stroke-width="1"></path><path d="M7.5 11.25a4.5 4.5 0 0 1 9 0" fill="none" stroke="#000000" stroke-linecap="round" stroke-linejoin="round" stroke-width="1"></path><path d="M21 12.75a1.5 1.5 0 0 0 -1.5 -1.5h-15a1.5 1.5 0 0 0 -1.5 1.5" fill="none" stroke="#000000" stroke-linecap="round" stroke-linejoin="round" stroke-width="1"></path><path d="m3 17.25 0 -1.5" fill="none" stroke="#000000" stroke-linecap="round" stroke-linejoin="round" stroke-width="1"></path><path d="m3 23.25 0 -1.5" fill="none" stroke="#000000" stroke-linecap="round" stroke-linejoin="round" stroke-width="1"></path><path d="M4.5 17.25H2.25a0.745 0.745 0 0 0 -0.75 0.75c0 1.5 3 1.5 3 3a0.75 0.75 0 0 1 -0.75 0.75H1.5" fill="none" stroke="#000000" stroke-linecap="round" stroke-linejoin="round" stroke-width="1"></path><path d="M10.5 15.75v1.5a1.5 1.5 0 0 0 3 0v-1.5" fill="none" stroke="#000000" stroke-linecap="round" stroke-linejoin="round" stroke-width="1"></path><path d="m12 18.75 0 4.5" fill="none" stroke="#000000" stroke-linecap="round" stroke-linejoin="round" stroke-width="1"></path><path d="m10.5 20.25 3 0" fill="none" stroke="#000000" stroke-linecap="round" stroke-linejoin="round" stroke-width="1"></path><path d="M22.5 17.25a1.5 1.5 0 0 0 -3 0v4.5a1.5 1.5 0 0 1 -1.5 1.5h4.5" fill="none" stroke="#000000" stroke-linecap="round" stroke-linejoin="round" stroke-width="1"></path><path d="m18 20.25 4.5 0" fill="none" stroke="#000000" stroke-linecap="round" stroke-linejoin="round" stroke-width="1"></path></svg>