<svg viewBox="0 0 24 24" xmlns="http://www.w3.org/2000/svg" id="Currency-Dollar-Decrease--Streamline-Ultimate"><desc>Currency Dollar Decrease Streamline Icon: https://streamlinehq.com</desc><path d="m22.5 18.75 0 4.5 -4.5 0" fill="none" stroke="#000000" stroke-linecap="round" stroke-linejoin="round" stroke-width="1"></path><path d="m22.5 23.25 -5.05 -5.05a2.252 2.252 0 0 0 -2.237 -0.565L9.5 19.161a2.249 2.249 0 0 1 -2.172 -0.582L1.5 12.746" fill="none" stroke="#000000" stroke-linecap="round" stroke-linejoin="round" stroke-width="1"></path><path d="M3.148 9.739A7.5 7.5 0 1 1 15 14.253" fill="none" stroke="#000000" stroke-linecap="round" stroke-linejoin="round" stroke-width="1"></path><path d="M12 5.254H9.967a1.342 1.342 0 0 0 -0.5 2.587l2.064 0.825a1.342 1.342 0 0 1 -0.5 2.588H9" fill="none" stroke="#000000" stroke-linecap="round" stroke-linejoin="round" stroke-width="1"></path><path d="m10.5 5.254 0 -0.75" fill="none" stroke="#000000" stroke-linecap="round" stroke-linejoin="round" stroke-width="1"></path><path d="m10.5 12.004 0 -0.75" fill="none" stroke="#000000" stroke-linecap="round" stroke-linejoin="round" stroke-width="1"></path></svg>