<svg xmlns="http://www.w3.org/2000/svg" viewBox="0 0 24 24" id="Currency-Euro-Bill--Streamline-Ultimate"><desc>Currency Euro Bill Streamline Icon: https://streamlinehq.com</desc><g><path d="M23.25 12a4.5 4.5 0 0 0 -3 -4.24V6a1.5 1.5 0 0 0 -1.5 -1.5H5.25A1.5 1.5 0 0 0 3.75 6v1.76a4.5 4.5 0 0 0 0 8.48V18a1.5 1.5 0 0 0 1.5 1.5h13.5a1.5 1.5 0 0 0 1.5 -1.5v-1.76a4.5 4.5 0 0 0 3 -4.24Z" fill="none" stroke="#000000" stroke-linecap="round" stroke-linejoin="round" stroke-width="1"></path><g><path d="M14.63 16.5a4.5 4.5 0 0 1 0 -9" fill="none" stroke="#000000" stroke-linecap="round" stroke-linejoin="round" stroke-width="1"></path><path d="m7.88 12 6.75 0" fill="none" stroke="#000000" stroke-linecap="round" stroke-linejoin="round" stroke-width="1"></path></g></g></svg>