<svg xmlns="http://www.w3.org/2000/svg" viewBox="0 0 24 24" id="Currency-Sign-Liras-Bag--Streamline-Ultimate"><desc>Currency Sign Liras Bag Streamline Icon: https://streamlinehq.com</desc><defs></defs><path d="m6.75 8.25 10.5 0" fill="none" stroke="#000000" stroke-linecap="round" stroke-linejoin="round" stroke-width="1"></path><path d="m15.556 5.036 1.438 -2.876a0.75 0.75 0 0 0 -1.006 -1.006l-1.9 0.948a0.75 0.75 0 0 1 -0.959 -0.255l-0.509 -0.763a0.75 0.75 0 0 0 -1.248 0l-0.509 0.763a0.75 0.75 0 0 1 -0.959 0.255l-1.9 -0.948a0.75 0.75 0 0 0 -0.998 1.006l1.41 2.82" fill="none" stroke="#000000" stroke-linecap="round" stroke-linejoin="round" stroke-width="1"></path><path d="M9.1 8.25 4.4 13.7a5.932 5.932 0 0 0 4.7 9.549h5.8a5.932 5.932 0 0 0 4.7 -9.549l-4.69 -5.45" fill="none" stroke="#000000" stroke-linecap="round" stroke-linejoin="round" stroke-width="1"></path><path d="m6.75 8.25 10.5 0" fill="none" stroke="#000000" stroke-linecap="round" stroke-linejoin="round" stroke-width="1"></path><path d="m15.556 5.036 1.438 -2.876a0.75 0.75 0 0 0 -1.006 -1.006l-1.9 0.948a0.75 0.75 0 0 1 -0.959 -0.255l-0.509 -0.763a0.75 0.75 0 0 0 -1.248 0l-0.509 0.763a0.75 0.75 0 0 1 -0.959 0.255l-1.9 -0.948a0.75 0.75 0 0 0 -0.998 1.006l1.41 2.82" fill="none" stroke="#000000" stroke-linecap="round" stroke-linejoin="round" stroke-width="1"></path><path d="M14.25 13.5a1.5 1.5 0 0 0 -3 0V18a1.5 1.5 0 0 1 -1.5 1.5h4.5" fill="none" stroke="#000000" stroke-linecap="round" stroke-linejoin="round" stroke-width="1"></path><path d="m9.75 16.5 4.5 0" fill="none" stroke="#000000" stroke-linecap="round" stroke-linejoin="round" stroke-width="1"></path></svg>