<svg xmlns="http://www.w3.org/2000/svg" viewBox="0 0 24 24" id="Currency-Sign-Baht-Globe--Streamline-Ultimate"><desc>Currency Sign Baht Globe Streamline Icon: https://streamlinehq.com</desc><defs></defs><path d="M12 23.25a11.25 11.25 0 0 1 0 -22.5" fill="none" stroke="#000000" stroke-linecap="round" stroke-linejoin="round" stroke-width="1"></path><path d="m1.398 8.25 9.852 0" fill="none" stroke="#000000" stroke-linecap="round" stroke-linejoin="round" stroke-width="1"></path><path d="m1.402 15.75 9.848 0" fill="none" stroke="#000000" stroke-linecap="round" stroke-linejoin="round" stroke-width="1"></path><path d="M12 23.25c-2.9 0 -5.25 -5.037 -5.25 -11.25S9.1 0.75 12 0.75" fill="none" stroke="#000000" stroke-linecap="round" stroke-linejoin="round" stroke-width="1"></path><path d="M23.25 8.627A3.375 3.375 0 0 1 19.875 12H14.25V5.252h5.625a3.375 3.375 0 0 1 3.375 3.375Z" fill="none" stroke="#000000" stroke-linecap="round" stroke-linejoin="round" stroke-width="1"></path><path d="M23.25 15.377a3.375 3.375 0 0 1 -3.375 3.375H14.25V12h5.625a3.375 3.375 0 0 1 3.375 3.377Z" fill="none" stroke="#000000" stroke-linecap="round" stroke-linejoin="round" stroke-width="1"></path><path d="m18 21.002 0 -18" fill="none" stroke="#000000" stroke-linecap="round" stroke-linejoin="round" stroke-width="1"></path></svg>