<svg xmlns="http://www.w3.org/2000/svg" fill="none" viewBox="0 0 24 24" id="Eat-Vending-Machine--Streamline-Ultimate"><desc>Eat Vending Machine Streamline Icon: https://streamlinehq.com</desc><path stroke="#000000" stroke-linecap="round" stroke-linejoin="round" d="M4.5 6.375c1.44975 0 2.625 -1.17525 2.625 -2.625S5.94975 1.125 4.5 1.125 1.875 2.30025 1.875 3.75 3.05025 6.375 4.5 6.375Z" stroke-width="1"></path><path stroke="#000000" stroke-linecap="round" stroke-linejoin="round" d="M9.75 15.75H12c0.3978 0 0.7794 -0.158 1.0607 -0.4393s0.4393 -0.6629 0.4393 -1.0607c0 -0.3978 -0.158 -0.7794 -0.4393 -1.0607S12.3978 12.75 12 12.75H9.75c-0.39782 0 -0.77936 -0.158 -1.06066 -0.4393 -0.2813 -0.2813 -0.43934 -0.6629 -0.43934 -1.0607 0 -0.7956 -0.31607 -1.55871 -0.87868 -2.12132C6.80871 8.56607 6.04565 8.25 5.25 8.25h-1.5c-0.79565 0 -1.55871 0.31607 -2.12132 0.87868C1.06607 9.69129 0.75 10.4544 0.75 11.25v4.5c0 0.3978 0.158035 0.7794 0.43934 1.0607 0.2813 0.2813 0.66284 0.4393 1.06066 0.4393V21c0 0.5967 0.23705 1.169 0.65901 1.591 0.42196 0.4219 0.99425 0.659 1.59099 0.659 0.59674 0 1.16903 -0.2371 1.59099 -0.659 0.42196 -0.422 0.65901 -0.9943 0.65901 -1.591v-6" stroke-width="1"></path><path stroke="#000000" stroke-linecap="round" stroke-linejoin="round" d="M11.25 18.75v3c0 0.3978 0.158 0.7794 0.4393 1.0607s0.6629 0.4393 1.0607 0.4393h9c0.3978 0 0.7794 -0.158 1.0607 -0.4393s0.4393 -0.6629 0.4393 -1.0607V2.25c0 -0.39782 -0.158 -0.77936 -0.4393 -1.06066C22.5294 0.908035 22.1478 0.75 21.75 0.75h-9c-0.3978 0 -0.7794 0.158035 -1.0607 0.43934 -0.2813 0.2813 -0.4393 0.66284 -0.4393 1.06066v6" stroke-width="1"></path><path stroke="#000000" stroke-linecap="round" stroke-linejoin="round" d="M20.25 17.25h-6v3h6v-3Z" stroke-width="1"></path><path stroke="#000000" d="M15 4.875c-0.2071 0 -0.375 -0.16789 -0.375 -0.375s0.1679 -0.375 0.375 -0.375" stroke-width="1"></path><path stroke="#000000" d="M15 4.875c0.2071 0 0.375 -0.16789 0.375 -0.375s-0.1679 -0.375 -0.375 -0.375" stroke-width="1"></path><path stroke="#000000" d="M19.5 4.875c-0.2071 0 -0.375 -0.16789 -0.375 -0.375s0.1679 -0.375 0.375 -0.375" stroke-width="1"></path><path stroke="#000000" d="M19.5 4.875c0.2071 0 0.375 -0.16789 0.375 -0.375s-0.1679 -0.375 -0.375 -0.375" stroke-width="1"></path><path stroke="#000000" d="M15 9.375c-0.2071 0 -0.375 -0.16789 -0.375 -0.375s0.1679 -0.375 0.375 -0.375" stroke-width="1"></path><path stroke="#000000" d="M15 9.375c0.2071 0 0.375 -0.16789 0.375 -0.375s-0.1679 -0.375 -0.375 -0.375" stroke-width="1"></path><g><path stroke="#000000" d="M19.5 9.375c-0.2071 0 -0.375 -0.16789 -0.375 -0.375s0.1679 -0.375 0.375 -0.375" stroke-width="1"></path><path stroke="#000000" d="M19.5 9.375c0.2071 0 0.375 -0.16789 0.375 -0.375s-0.1679 -0.375 -0.375 -0.375" stroke-width="1"></path></g><g><path stroke="#000000" d="M19.5 13.875c-0.2071 0 -0.375 -0.1679 -0.375 -0.375s0.1679 -0.375 0.375 -0.375" stroke-width="1"></path><path stroke="#000000" d="M19.5 13.875c0.2071 0 0.375 -0.1679 0.375 -0.375s-0.1679 -0.375 -0.375 -0.375" stroke-width="1"></path></g></svg>