<svg xmlns="http://www.w3.org/2000/svg" viewBox="0 0 24 24" id="Food-Restaurant-Smiley-Face-Dish-Reccommended--Streamline-Ultimate"><desc>Food Restaurant Smiley Face Dish Reccommended Streamline Icon: https://streamlinehq.com</desc><defs></defs><path d="m0.75 18.5 22.5 0" fill="none" stroke="#000000" stroke-linecap="round" stroke-linejoin="round" stroke-width="1"></path><path d="M21.74 15.521a9.753 9.753 0 1 0 -19.479 -0.007" fill="none" stroke="#000000" stroke-linecap="round" stroke-linejoin="round" stroke-width="1"></path><path d="M10.5 3.75a1.5 1.5 0 1 0 3 0 1.5 1.5 0 1 0 -3 0" fill="none" stroke="#000000" stroke-linecap="round" stroke-linejoin="round" stroke-width="1"></path><path d="M10.672 10.15a1.246 1.246 0 0 0 -2.151 0" fill="none" stroke="#000000" stroke-linecap="round" stroke-linejoin="round" stroke-width="1"></path><path d="M13.359 10.15a1.245 1.245 0 0 1 2.15 0" fill="none" stroke="#000000" stroke-linecap="round" stroke-linejoin="round" stroke-width="1"></path><path d="M8.893 13.524a3.439 3.439 0 0 0 6.244 0" fill="none" stroke="#000000" stroke-linecap="round" stroke-linejoin="round" stroke-width="1"></path><path d="m21.781 18.5 -1.242 3.25 -8.524 0 -8.524 0 -1.242 -3.25" fill="none" stroke="#000000" stroke-linecap="round" stroke-linejoin="round" stroke-width="1"></path></svg>