<svg xmlns="http://www.w3.org/2000/svg" viewBox="0 0 24 24" id="Food-Spicy-Mexican--Streamline-Ultimate"><desc>Food Spicy Mexican Streamline Icon: https://streamlinehq.com</desc><defs></defs><path d="M15.5 6.75h-7l0.925 -3.084a2.688 2.688 0 0 1 5.15 0Z" fill="none" stroke="#000000" stroke-linecap="round" stroke-linejoin="round" stroke-width="1"></path><path d="M22.733 9.236a4 4 0 0 1 -3.714 2.514H4.981a4 4 0 0 1 -3.714 -2.514L0.822 8.121A1 1 0 0 1 1.75 6.75h20.5a1 1 0 0 1 0.928 1.371Z" fill="none" stroke="#000000" stroke-linecap="round" stroke-linejoin="round" stroke-width="1"></path><path d="M0.75 19.25c0 0.687 1.563 3 5 3 3.5 0 5.7 -3.727 4 -5 -2 -1.5 -2.9 1.042 -4.5 1.5s-4.5 -0.525 -4.5 0.5Z" fill="none" stroke="#000000" stroke-linecap="round" stroke-linejoin="round" stroke-width="1"></path><path d="M9.75 17.25a3.58 3.58 0 0 0 1 -2.5" fill="none" stroke="#000000" stroke-linecap="round" stroke-linejoin="round" stroke-width="1"></path><path d="M23.25 19.25c0 0.687 -1.563 3 -5 3 -3.5 0 -5.7 -3.727 -4 -5 2 -1.5 2.9 1.042 4.5 1.5s4.5 -0.525 4.5 0.5Z" fill="none" stroke="#000000" stroke-linecap="round" stroke-linejoin="round" stroke-width="1"></path><path d="M14.25 17.25a3.58 3.58 0 0 1 -1 -2.5" fill="none" stroke="#000000" stroke-linecap="round" stroke-linejoin="round" stroke-width="1"></path></svg>