<svg xmlns="http://www.w3.org/2000/svg" viewBox="0 0 24 24" id="Food-Restaurant-Vegetarian-Vegan-Dish--Streamline-Ultimate"><desc>Food Restaurant Vegetarian Vegan Dish Streamline Icon: https://streamlinehq.com</desc><defs></defs><path d="m2.539 8.875 0 13.5" fill="none" stroke="#000000" stroke-linecap="round" stroke-linejoin="round" stroke-width="1"></path><path d="M19.581 14.875h2.629a0.749 0.749 0 0 0 0.75 -0.748c0.008 -3.831 0 -8.688 -1.935 -12.289a0.75 0.75 0 0 0 -1.443 0.287v20.25" fill="none" stroke="#000000" stroke-linecap="round" stroke-linejoin="round" stroke-width="1"></path><path d="M1.039 1.375v6a1.5 1.5 0 0 0 1.5 1.5h0a1.5 1.5 0 0 0 1.5 -1.5v-6" fill="none" stroke="#000000" stroke-linecap="round" stroke-linejoin="round" stroke-width="1"></path><path d="M10.7 16.615a3.205 3.205 0 0 1 -3.2 -3.2c0 -4.647 5.592 -2.262 8.284 -4.5a0.2 0.2 0 0 1 0.2 -0.021 0.212 0.212 0 0 1 0.127 0.161c0.821 4.813 -2.721 7.56 -5.411 7.56Z" fill="none" stroke="#000000" stroke-linecap="round" stroke-linejoin="round" stroke-width="1"></path><path d="M11.275 13a9.5 9.5 0 0 0 -3.262 1.61l-1.479 1.251" fill="none" stroke="#000000" stroke-linecap="round" stroke-linejoin="round" stroke-width="1"></path><path d="M6.81 21.192a9.439 9.439 0 0 0 10 0" fill="none" stroke="#000000" stroke-linecap="round" stroke-linejoin="round" stroke-width="1"></path><path d="M16.81 5.058a9.439 9.439 0 0 0 -10 0" fill="none" stroke="#000000" stroke-linecap="round" stroke-linejoin="round" stroke-width="1"></path></svg>