<svg xmlns="http://www.w3.org/2000/svg" viewBox="0 0 24 24" id="Food-Restaurant-Table-Reserved-Reservation-2--Streamline-Ultimate"><desc>Food Restaurant Table Reserved Reservation 2 Streamline Icon: https://streamlinehq.com</desc><defs></defs><path d="m1.5 8.937 1.5 8.25" fill="none" stroke="#000000" stroke-linecap="round" stroke-linejoin="round" stroke-width="1"></path><path d="m1.5 23.187 1.5 -6h3a1.5 1.5 0 0 1 1.5 1.5h0v4.5" fill="none" stroke="#000000" stroke-linecap="round" stroke-linejoin="round" stroke-width="1"></path><path d="m22.5 8.937 -1.5 8.25" fill="none" stroke="#000000" stroke-linecap="round" stroke-linejoin="round" stroke-width="1"></path><path d="m22.5 23.187 -1.5 -6h-3a1.5 1.5 0 0 0 -1.5 1.5h0v4.5" fill="none" stroke="#000000" stroke-linecap="round" stroke-linejoin="round" stroke-width="1"></path><path d="m12 13.187 0 10" fill="none" stroke="#000000" stroke-linecap="round" stroke-linejoin="round" stroke-width="1"></path><path d="m6.75 13.187 10.5 0" fill="none" stroke="#000000" stroke-linecap="round" stroke-linejoin="round" stroke-width="1"></path><path d="M16.479 5.749A4.5 4.5 0 1 1 13.056 0.933" fill="none" stroke="#000000" stroke-linecap="round" stroke-linejoin="round" stroke-width="1"></path><path d="m16.5 1.937 -4.1 4.1a0.564 0.564 0 0 1 -0.8 0l0 0 -1.289 -1.29" fill="none" stroke="#000000" stroke-linecap="round" stroke-linejoin="round" stroke-width="1"></path></svg>