<svg xmlns="http://www.w3.org/2000/svg" viewBox="0 0 24 24" id="Food-Restaurant-Table-Reserved-Reservation-3--Streamline-Ultimate"><desc>Food Restaurant Table Reserved Reservation 3 Streamline Icon: https://streamlinehq.com</desc><defs></defs><path d="M22.024 3.411A1.625 1.625 0 0 1 20.4 5.036h-18a1.625 1.625 0 0 1 0 -3.25h18a1.626 1.626 0 0 1 1.624 1.625Z" fill="none" stroke="#000000" stroke-linecap="round" stroke-linejoin="round" stroke-width="1"></path><path d="m3.9 5.036 -1.869 9.181a0.75 0.75 0 0 0 1.377 0.552L8.4 5.036" fill="none" stroke="#000000" stroke-linecap="round" stroke-linejoin="round" stroke-width="1"></path><path d="m16.12 7.909 -1.473 -2.873" fill="none" stroke="#000000" stroke-linecap="round" stroke-linejoin="round" stroke-width="1"></path><path d="m19.147 5.036 0.584 2.873" fill="none" stroke="#000000" stroke-linecap="round" stroke-linejoin="round" stroke-width="1"></path><path d="M11.229 16.214a6 6 0 1 0 12 0 6 6 0 1 0 -12 0" fill="none" stroke="#000000" stroke-linecap="round" stroke-linejoin="round" stroke-width="1"></path><path d="M19.9 14.469 17 18.342a0.75 0.75 0 0 1 -1.052 0.149 0.736 0.736 0 0 1 -0.079 -0.069l-1.5 -1.5" fill="none" stroke="#000000" stroke-linecap="round" stroke-linejoin="round" stroke-width="1"></path></svg>