<svg xmlns="http://www.w3.org/2000/svg" fill="none" viewBox="0 0 24 24" id="Fork-And-Spoon-2--Streamline-Ultimate"><desc>Fork And Spoon 2 Streamline Icon: https://streamlinehq.com</desc><path stroke="#000000" stroke-linecap="round" stroke-linejoin="round" stroke-miterlimit="10" d="M19.05 8v7.2" stroke-width="1"></path><path stroke="#000000" stroke-linecap="round" stroke-linejoin="round" stroke-miterlimit="10" d="M19.05 0.799999c-1.7 0 -3 1.300001 -3 3.000001V5c0 1.7 1.3 3 3 3s3 -1.3 3 -3V3.8c0 -1.7 -1.4 -3.000001 -3 -3.000001Z" stroke-width="1"></path><path stroke="#000000" stroke-linecap="round" stroke-linejoin="round" stroke-miterlimit="10" d="m2.02922 23.25 -1.199995 -5.3c-0.2 -0.8 -0.000006 -1.6 0.399995 -2.3l1.3 -2.1c0.3 -0.5 0.9 -0.8 1.5 -0.8h1" stroke-width="1"></path><path stroke="#000000" stroke-linecap="round" stroke-linejoin="round" stroke-miterlimit="10" d="M5.05075 17.25v-2c0 -1 0.8 -1.8 1.8 -1.8s1.80001 0.8 1.80001 1.8v3.6c0 0.9 -0.20002 1.8 -0.70002 2.6l-0.79998 1.3v0.5" stroke-width="1"></path><path stroke="#000000" stroke-linecap="round" stroke-linejoin="round" stroke-miterlimit="10" d="M5.05075 0.75v14.4" stroke-width="1"></path><path stroke="#000000" stroke-linecap="round" stroke-linejoin="round" stroke-miterlimit="10" d="M8.05075 0.75v4.2c0 1.7 -1.3 3 -3 3s-3 -1.3 -3 -3V0.75" stroke-width="1"></path><path stroke="#000000" stroke-linecap="round" stroke-linejoin="round" stroke-miterlimit="10" d="m21.9708 23.25 1.2 -5.3c0.2 -0.8 0 -1.6 -0.4 -2.3l-1.3 -2.1c-0.3 -0.5 -0.9 -0.8 -1.5 -0.8h-0.8" stroke-width="1"></path><path stroke="#000000" stroke-linecap="round" stroke-linejoin="round" stroke-miterlimit="10" d="M19.0508 17.25v-2c0 -1 -0.8 -1.8 -1.8 -1.8s-1.8 0.8 -1.8 1.8v3.6c0 0.9 0.2 1.8 0.7 2.6l0.8 1.3v0.5" stroke-width="1"></path></svg>