<svg xmlns="http://www.w3.org/2000/svg" fill="none" viewBox="0 0 24 24" id="Fork--Streamline-Ultimate"><desc>Fork Streamline Icon: https://streamlinehq.com</desc><path stroke="#000000" stroke-linecap="round" stroke-linejoin="round" stroke-miterlimit="10" d="M5.55001 23.25c1.7 -0.1 2.2 -0.8 2.5 -1.1l1.19998 -1.4 2.30001 -1.2c0.7 -0.3 0.9 -1.2 0.6 -1.8 -0.3 -0.6 -1.2 -0.9 -1.8 -0.6l-1.29999 0.7c-0.7 0.4 -1.50001 0.2 -2.20001 -0.8 -0.4 -0.6 -0.4 -1.3 0.1 -1.9l2 -2.4 3.2 -0.9c0.9 -0.3 1.5 -1.2 1.3 -2.2 -0.1 -0.5 -0.4 -0.9 -0.8 -1.2 -0.4 -0.3 -1 -0.3 -1.4 -0.2l-2.10001 0.6c-0.4 0.1 -0.79999 0.3 -1.19999 0.6l-3.30001 2.2c-0.6 0.4 -0.99999 0.9 -1.29999 1.5l-2.600008 5.1" stroke-width="1"></path><path stroke="#000000" stroke-linecap="round" stroke-linejoin="round" stroke-miterlimit="10" d="M10.2558 17.125 20.55 2.55" stroke-width="1"></path><path stroke="#000000" stroke-linecap="round" stroke-linejoin="round" stroke-miterlimit="10" d="m23.25 4.55 -1.6 2.5c-1 1.6 -3.2 2 -4.8 1 -1.6 -1 -2 -3.2 -1 -4.8l1.6 -2.5" stroke-width="1"></path></svg>