<svg xmlns="http://www.w3.org/2000/svg" fill="none" viewBox="0 0 24 24" id="Knife--Streamline-Ultimate"><desc>Knife Streamline Icon: https://streamlinehq.com</desc><path stroke="#000000" stroke-linecap="round" stroke-linejoin="round" stroke-miterlimit="10" d="M11.6 16.55 22.1 0.75c-0.3 2.9 -0.6 7.1 -2.5 13 -0.2 0.6 -0.6 1 -1.2 1.2 -0.6 0.2 -1.2 0.2 -1.7 -0.1l-2.8 -1.6" stroke-width="1"></path><path stroke="#000000" stroke-linecap="round" stroke-linejoin="round" stroke-miterlimit="10" d="M6.70001 23.25c1.7 -0.1 2.2 -0.8 2.5 -1.1L10.4 20.75l2.3 -1.2c0.7 -0.3 0.9 -1.2 0.6 -1.8 -0.3 -0.6 -1.2 -0.9 -1.8 -0.6l-1.3 0.7c-0.69999 0.4 -1.5 0.2 -2.2 -0.8 -0.4 -0.6 -0.39999 -1.3 0.10001 -1.9L10.1 12.75l3.2 -0.9c0.9 -0.3 1.5 -1.2 1.3 -2.2 -0.1 -0.5 -0.4 -0.9 -0.8 -1.2 -0.4 -0.3 -1 -0.3 -1.4 -0.2l-2.1 0.6c-0.40001 0.1 -0.79999 0.3 -1.19999 0.6l-3.30002 2.2c-0.6 0.4 -0.99999 0.9 -1.29999 1.5l-2.60001 5.1" stroke-width="1"></path></svg>