<svg xmlns="http://www.w3.org/2000/svg" viewBox="0 0 24 24" id="Amazon-Web-Service-Logo--Streamline-Ultimate"><desc>Amazon Web Service Logo Streamline Icon: https://streamlinehq.com</desc><defs></defs><title>amazon-web-service</title><path d="M1 4.375a5.172 5.172 0 0 1 2 -0.5c1 0 2.5 0.5 2.5 1.5v4a1.746 1.746 0 0 0 0.5 1" fill="none" stroke="#000000" stroke-linecap="round" stroke-linejoin="round" stroke-width="1"></path><path d="M5.5 7.875a3.825 3.825 0 0 0 -2.5 -1 1.831 1.831 0 0 0 -2 2c0 1 0.5 1.5 2 1.5a3.448 3.448 0 0 0 2.5 -1.5Z" fill="none" stroke="#000000" stroke-linecap="round" stroke-linejoin="round" stroke-width="1"></path><path d="m8.5 3.875 2 6.5 2 -6.5 2 6.5 2 -6.5" fill="none" stroke="#000000" stroke-linecap="round" stroke-linejoin="round" stroke-width="1"></path><path d="M19 9.875a2.922 2.922 0 0 0 2 0.5c1.5 0 2 -1 2 -1.5 0 -2.388 -4 -1.112 -4 -3.5 0 -0.5 0.5 -1.5 2 -1.5a2.922 2.922 0 0 1 2 0.5" fill="none" stroke="#000000" stroke-linecap="round" stroke-linejoin="round" stroke-width="1"></path><path d="M0.75 15.875a13.5 13.5 0 0 0 10 4.25c6.5 0 9.25 -3 9.25 -3" fill="none" stroke="#000000" stroke-linecap="round" stroke-linejoin="round" stroke-width="1"></path><path d="M17.778 14.875c1.332 -1.457 5.25 -0.75 5.25 -0.75s0.841 3.94 -0.75 5.25" fill="none" stroke="#000000" stroke-linecap="round" stroke-linejoin="round" stroke-width="1"></path></svg>