<svg xmlns="http://www.w3.org/2000/svg" viewBox="0 0 24 24" id="Arch-Linux-Logo--Streamline-Ultimate"><desc>Arch Linux Logo Streamline Icon: https://streamlinehq.com</desc><path d="M23.25 23.25s-1.05 -1.74 -2.53 -4.35l-3.34 -2h2.22C16.9 12 13.44 5.32 12 0.75A51.86 51.86 0 0 1 9.66 6.6l1.85 2.47 -2.66 -0.73C5.36 15.6 0.75 23.25 0.75 23.25a30 30 0 0 1 8.65 -4.07 4.77 4.77 0 0 1 -0.33 -1.8c0 -2.16 1.31 -3.91 2.93 -3.91s2.93 1.75 2.93 3.91a4.77 4.77 0 0 1 -0.33 1.8 30 30 0 0 1 8.65 4.07Z" fill="none" stroke="#000000" stroke-linecap="round" stroke-linejoin="round" stroke-width="1"></path></svg>