<svg xmlns="http://www.w3.org/2000/svg" viewBox="0 0 24 24" id="Bower-Logo--Streamline-Ultimate"><desc>Bower Logo Streamline Icon: https://streamlinehq.com</desc><defs></defs><title>bower</title><path d="M15.615 9.449c2.219 -0.194 6.237 -0.4 6.577 0.622 0.472 1.417 -1.889 8.028 -8.5 8.028 0 0 -0.472 2.833 -4.25 2.833C4.72 20.932 1 17.437 1 11.96s3.72 -9.917 8.442 -9.917c3.778 0 6.611 1.889 6.611 4.722 0 4.25 -2.361 5.667 -6.611 5.667" stroke-linecap="round" stroke-linejoin="round" fill="none" stroke="#000000" stroke-width="1"></path><path d="M9.458 6.765a0.75 0.75 0 1 0 1.5 0 0.75 0.75 0 1 0 -1.5 0" stroke-miterlimit="10" fill="none" stroke="#000000" stroke-width="1"></path><path d="M21.482 5.405a2 2 0 1 1 -2.828 -2.828c0.781 -0.781 4.6 -1.768 4.6 -1.768s-0.991 3.815 -1.772 4.596Z" stroke-linecap="round" stroke-linejoin="round" fill="none" stroke="#000000" stroke-width="1"></path><path d="M13.692 18.1s6.145 4.237 2.872 4.706c-9.148 1.309 -12.4 -3.657 -12.457 -3.7" stroke-linecap="round" stroke-linejoin="round" fill="none" stroke="#000000" stroke-width="1"></path><path d="M0.75 19.059s0.25 5 3.25 4" stroke-linecap="round" stroke-linejoin="round" fill="none" stroke="#000000" stroke-width="1"></path><path d="m17.569 12.904 4.035 0" stroke-linecap="round" stroke-linejoin="round" fill="none" stroke="#000000" stroke-width="1"></path></svg>