<svg xmlns="http://www.w3.org/2000/svg" viewBox="0 0 24 24" id="Codefactor-Logo--Streamline-Ultimate"><desc>CodeFactor Logo Streamline Icon: https://streamlinehq.com</desc><g><path d="M0.75 3.25a2.5 2.5 0 1 0 5 0 2.5 2.5 0 1 0 -5 0" fill="none" stroke="#000000" stroke-linecap="round" stroke-linejoin="round" stroke-width="1"></path><path d="M23.25 3.25a2.5 2.5 0 0 1 -2.5 2.5h-9.5a2.5 2.5 0 0 1 0 -5h9.5a2.5 2.5 0 0 1 2.5 2.5Z" fill="none" stroke="#000000" stroke-linecap="round" stroke-linejoin="round" stroke-width="1"></path><path d="M0.75 12a2.5 2.5 0 1 0 5 0 2.5 2.5 0 1 0 -5 0" fill="none" stroke="#000000" stroke-linecap="round" stroke-linejoin="round" stroke-width="1"></path><path d="M0.75 20.75a2.5 2.5 0 1 0 5 0 2.5 2.5 0 1 0 -5 0" fill="none" stroke="#000000" stroke-linecap="round" stroke-linejoin="round" stroke-width="1"></path><path d="M17.25 12a2.5 2.5 0 0 1 -2.5 2.5h-3.5a2.5 2.5 0 0 1 0 -5h3.5a2.5 2.5 0 0 1 2.5 2.5Z" fill="none" stroke="#000000" stroke-linecap="round" stroke-linejoin="round" stroke-width="1"></path></g></svg>