<svg xmlns="http://www.w3.org/2000/svg" viewBox="0 0 24 24" id="Elixir-Logo--Streamline-Ultimate"><desc>Elixir Logo Streamline Icon: https://streamlinehq.com</desc><g><path d="M4.52 15.18c0 -5.41 4.42 -12.33 7.55 -14.27a1.14 1.14 0 0 1 0.57 -0.16 0.54 0.54 0 0 1 0.53 0.64 7.29 7.29 0 0 0 1.06 5.45c2 3 5.25 5.47 5.25 9.16a7.09 7.09 0 0 1 -7.13 7.25c-4.35 0 -7.83 -2.76 -7.83 -8.07Z" fill="none" stroke="#000000" stroke-linecap="round" stroke-linejoin="round" stroke-width="1"></path><path d="M8 18.4c-1 -3.68 0.82 -9.19 2.61 -11.06a0.78 0.78 0 0 1 0.39 -0.22 0.43 0.43 0 0 1 0.31 0.06 0.41 0.41 0 0 1 0.16 0.29A5.13 5.13 0 0 0 13.14 11c1.9 1.71 4.55 2.8 5.2 5.32a5 5 0 0 1 -3.57 6.2c-3 0.78 -5.83 -0.52 -6.77 -4.12Z" fill="none" stroke="#000000" stroke-linecap="round" stroke-linejoin="round" stroke-width="1"></path><path d="M10.61 17.83a2.78 2.78 0 0 0 2.81 2 1.83 1.83 0 0 0 0.33 0 0.94 0.94 0 0 0 0.83 -0.68" fill="none" stroke="#000000" stroke-linecap="round" stroke-linejoin="round" stroke-width="1"></path></g></svg>