<svg xmlns="http://www.w3.org/2000/svg" viewBox="0 0 24 24" id="Freecodecamp-Logo--Streamline-Ultimate"><desc>FreecodeCamp Logo Streamline Icon: https://streamlinehq.com</desc><g><path d="M3.75 5a9.8 9.8 0 0 0 -3 7 9.8 9.8 0 0 0 3 7" fill="none" stroke="#000000" stroke-linecap="round" stroke-linejoin="round" stroke-width="1"></path><path d="M20.25 5a9.8 9.8 0 0 1 3 7 9.8 9.8 0 0 1 -3 7" fill="none" stroke="#000000" stroke-linecap="round" stroke-linejoin="round" stroke-width="1"></path><path d="M9.54 18.44c-2.63 -2.18 -2.91 -4.4 -0.12 -8.12s1.78 -5.2 1.78 -5.2c4.18 2.44 2.65 7.29 2.65 7.29 1.27 -1.12 1.25 -1.31 1.25 -1.31a4.82 4.82 0 0 1 -1 7.34c1.45 -3.32 -3.27 -1.32 -2 -6.83 -2.02 2.13 -3.86 4.08 -2.56 6.83Z" fill="none" stroke="#000000" stroke-linecap="round" stroke-linejoin="round" stroke-width="1"></path></g></svg>