<svg xmlns="http://www.w3.org/2000/svg" viewBox="0 0 24 24" id="Google-Domain-Logo--Streamline-Ultimate"><desc>Google Domain Logo Streamline Icon: https://streamlinehq.com</desc><g><path d="M0.96 13.02a7.41 7.41 0 1 0 14.82 0 7.41 7.41 0 1 0 -14.82 0" fill="none" stroke="#000000" stroke-linecap="round" stroke-linejoin="round" stroke-width="1"></path><path d="M16 22.56a1 1 0 0 1 -1 0.69h-5a1 1 0 0 1 -0.83 -0.43 1 1 0 0 1 -0.14 -0.92l7 -20.46a1 1 0 0 1 1 -0.69h5a1 1 0 0 1 0.84 0.43 1 1 0 0 1 0.13 0.92Z" fill="none" stroke="#000000" stroke-linecap="round" stroke-linejoin="round" stroke-width="1"></path></g></svg>