<svg xmlns="http://www.w3.org/2000/svg" viewBox="0 0 24 24" id="Hackerone-Logo--Streamline-Ultimate"><desc>Hackerone Logo Streamline Icon: https://streamlinehq.com</desc><g><path d="M8.62 21.75a1.5 1.5 0 1 1 -3 0V2.25a1.5 1.5 0 1 1 3 0Z" fill="none" stroke="#000000" stroke-linecap="round" stroke-linejoin="round" stroke-width="1"></path><path d="M16.88 23.25a1.5 1.5 0 0 1 -1.5 -1.5V13l-1.71 1a1.5 1.5 0 1 1 -1.59 -2.54l4 -2.5a1.48 1.48 0 0 1 1.52 0 1.5 1.5 0 0 1 0.78 1.31v11.5a1.5 1.5 0 0 1 -1.5 1.48Z" fill="none" stroke="#000000" stroke-linecap="round" stroke-linejoin="round" stroke-width="1"></path></g></svg>