<svg xmlns="http://www.w3.org/2000/svg" viewBox="0 0 24 24" id="Java-Logo--Streamline-Ultimate"><desc>JAVA Logo Streamline Icon: https://streamlinehq.com</desc><g><path d="M20.44 21.23c0 1.11 -4.31 2 -9.61 2s-9.61 -0.91 -9.61 -2c0 -0.39 0.53 -0.76 1.43 -1.06" fill="none" stroke="#000000" stroke-linecap="round" stroke-linejoin="round" stroke-width="1"></path><path d="M15.38 19.46c0 0.7 -2 1.26 -4.55 1.26s-4.55 -0.56 -4.55 -1.26c0 -0.21 0.18 -0.41 0.51 -0.59" fill="none" stroke="#000000" stroke-linecap="round" stroke-linejoin="round" stroke-width="1"></path><path d="M16.39 15.92c0 0.7 -2.49 1.26 -5.56 1.26s-5.56 -0.56 -5.56 -1.26c0 -0.26 0.35 -0.51 1 -0.71" fill="none" stroke="#000000" stroke-linecap="round" stroke-linejoin="round" stroke-width="1"></path><path d="M17.91 12.38c0 0.7 -3.17 1.26 -7.08 1.26s-7.08 -0.56 -7.08 -1.26c0 -0.39 1 -0.74 2.53 -1" fill="none" stroke="#000000" stroke-linecap="round" stroke-linejoin="round" stroke-width="1"></path><path d="M18.72 10a3 3 0 1 1 2.05 5.71l-1.36 0.49" fill="none" stroke="#000000" stroke-linecap="round" stroke-linejoin="round" stroke-width="1"></path><path d="M11.72 0.75a4.28 4.28 0 0 1 -2 3.18C7.67 5.35 7 9.4 10.91 10.55" fill="none" stroke="#000000" stroke-linecap="round" stroke-linejoin="round" stroke-width="1"></path><path d="M13.39 4.54s-2.12 0.82 -1.82 2.62 1.77 1.33 1.57 3.39" fill="none" stroke="#000000" stroke-linecap="round" stroke-linejoin="round" stroke-width="1"></path></g></svg>