<svg xmlns="http://www.w3.org/2000/svg" viewBox="0 0 24 24" id="Joomla-Logo--Streamline-Ultimate"><desc>Joomla Logo Streamline Icon: https://streamlinehq.com</desc><g><path d="M10.34 13.8 6.47 9.92a2.44 2.44 0 0 1 3.45 -3.45l0.35 0.34L12 5.08l-0.35 -0.34a4.87 4.87 0 0 0 -5.56 -0.94 2.2 2.2 0 0 0 0 -0.36 2.69 2.69 0 1 0 -2.65 2.69 2.2 2.2 0 0 0 0.36 0 4.87 4.87 0 0 0 0.94 5.56l3.87 3.88" fill="none" stroke="#000000" stroke-linecap="round" stroke-linejoin="round" stroke-width="1"></path><path d="m10.07 10.47 4 -4a2.44 2.44 0 0 1 3.45 3.45l-0.34 0.35L18.92 12l0.34 -0.35a4.87 4.87 0 0 0 0.94 -5.56 2.2 2.2 0 0 0 0.36 0 2.69 2.69 0 1 0 -2.69 -2.69 2.2 2.2 0 0 0 0 0.36 4.87 4.87 0 0 0 -5.56 0.94l-4 4" fill="none" stroke="#000000" stroke-linecap="round" stroke-linejoin="round" stroke-width="1"></path><path d="m13.55 10.09 4 4a2.44 2.44 0 0 1 -3.45 3.45l-0.35 -0.34L12 18.92l0.35 0.34a4.87 4.87 0 0 0 5.56 0.94 2.2 2.2 0 0 0 0 0.36 2.69 2.69 0 1 0 2.69 -2.69 2.2 2.2 0 0 0 -0.36 0 4.87 4.87 0 0 0 -0.94 -5.56l-4 -4" fill="none" stroke="#000000" stroke-linecap="round" stroke-linejoin="round" stroke-width="1"></path><path d="m14 13.51 -4 4a2.44 2.44 0 0 1 -3.45 -3.45l0.34 -0.35L5.08 12l-0.34 0.35a4.87 4.87 0 0 0 -0.94 5.56 2.2 2.2 0 0 0 -0.36 0 2.69 2.69 0 1 0 2.69 2.69 2.2 2.2 0 0 0 0 -0.36 4.87 4.87 0 0 0 5.56 -0.94l4 -4" fill="none" stroke="#000000" stroke-linecap="round" stroke-linejoin="round" stroke-width="1"></path></g></svg>