<svg xmlns="http://www.w3.org/2000/svg" viewBox="0 0 24 24" id="Kubernetes-Logo--Streamline-Ultimate"><desc>Kubernetes Logo Streamline Icon: https://streamlinehq.com</desc><defs></defs><title>kubernetes</title><path d="M12 0.782 2.978 5.377 0.75 15.389l6.243 7.829 10.014 0 6.243 -7.829 -2.228 -10.012L12 0.782z" fill="none" stroke="#000000" stroke-linecap="round" stroke-linejoin="round" stroke-width="1"></path><path d="M6.25 12.532a5.75 5.75 0 1 0 11.5 0 5.75 5.75 0 1 0 -11.5 0" fill="none" stroke="#000000" stroke-linecap="round" stroke-linejoin="round" stroke-width="1"></path><path d="M12 12.532 12 5" fill="none" stroke="#000000" stroke-linecap="round" stroke-linejoin="round" stroke-width="1"></path><path d="M12 12.532 6.065 7.895" fill="none" stroke="#000000" stroke-linecap="round" stroke-linejoin="round" stroke-width="1"></path><path d="m12 12.532 -7.308 1.822" fill="none" stroke="#000000" stroke-linecap="round" stroke-linejoin="round" stroke-width="1"></path><path d="m12 12.532 -3.064 6.881" fill="none" stroke="#000000" stroke-linecap="round" stroke-linejoin="round" stroke-width="1"></path><path d="m12 12.532 5.935 -4.637" fill="none" stroke="#000000" stroke-linecap="round" stroke-linejoin="round" stroke-width="1"></path><path d="m12 12.532 7.308 1.822" fill="none" stroke="#000000" stroke-linecap="round" stroke-linejoin="round" stroke-width="1"></path><path d="m12 12.532 3.064 6.881" fill="none" stroke="#000000" stroke-linecap="round" stroke-linejoin="round" stroke-width="1"></path></svg>