<svg xmlns="http://www.w3.org/2000/svg" viewBox="0 0 24 24" id="Mozilla-Logo--Streamline-Ultimate"><desc>Mozilla Logo Streamline Icon: https://streamlinehq.com</desc><g><path d="M0.75 0.75h22.5v22.5H0.75Z" fill="none" stroke="#000000" stroke-linecap="round" stroke-linejoin="round" stroke-width="1"></path><g><path d="m3.15 7.43 2.39 0 0 9.57" fill="none" stroke="#000000" stroke-linecap="round" stroke-linejoin="round" stroke-width="1"></path><path d="M12.24 17v-6.22a3.34 3.34 0 0 0 -3.35 -3.34h0a3.34 3.34 0 0 0 -3.35 3.34V17" fill="none" stroke="#000000" stroke-linecap="round" stroke-linejoin="round" stroke-width="1"></path><path d="M18.93 17v-6.22a3.33 3.33 0 0 0 -3.34 -3.34h0a3.34 3.34 0 0 0 -3.35 3.34V17" fill="none" stroke="#000000" stroke-linecap="round" stroke-linejoin="round" stroke-width="1"></path><path d="m12.24 17 1.91 0" fill="none" stroke="#000000" stroke-linecap="round" stroke-linejoin="round" stroke-width="1"></path><path d="m3.63 17 1.91 0 1.92 0" fill="none" stroke="#000000" stroke-linecap="round" stroke-linejoin="round" stroke-width="1"></path><path d="m18.93 17 1.92 0" fill="none" stroke="#000000" stroke-linecap="round" stroke-linejoin="round" stroke-width="1"></path></g></g></svg>