<svg xmlns="http://www.w3.org/2000/svg" viewBox="0 0 24 24" id="Nativescript-Logo--Streamline-Ultimate"><desc>NativeScript Logo Streamline Icon: https://streamlinehq.com</desc><g><path d="M6.75 0.75h10.5s6 0 6 6v10.5s0 6 -6 6H6.75s-6 0 -6 -6V6.75s0 -6 6 -6" fill="none" stroke="#000000" stroke-linecap="round" stroke-linejoin="round" stroke-width="1"></path><path d="M8.09 4.66 15.91 14V4.66h1.47a2 2 0 0 1 2 2v3.91A1.46 1.46 0 0 0 20.8 12a1.46 1.46 0 0 0 -1.46 1.47v3.91a2 2 0 0 1 -2 2h-1.43L8.09 10v9.3H6.62a2 2 0 0 1 -2 -2v-3.83A1.46 1.46 0 0 0 3.2 12a1.46 1.46 0 0 0 1.46 -1.47V6.62a2 2 0 0 1 2 -2Z" fill="none" stroke="#000000" stroke-linecap="round" stroke-linejoin="round" stroke-width="1"></path></g></svg>