<svg xmlns="http://www.w3.org/2000/svg" viewBox="0 0 24 24" id="Openstack-Logo--Streamline-Ultimate"><desc>Openstack Logo Streamline Icon: https://streamlinehq.com</desc><g><path d="M0.75 10h5v4h-5Z" fill="none" stroke="#000000" stroke-linecap="round" stroke-linejoin="round" stroke-width="1"></path><path d="M19.25 0.75H4.75a4 4 0 0 0 -4 4v2.5h5v-0.5a1 1 0 0 1 1 -1h10.5a1 1 0 0 1 1 1v0.5h5v-2.5a4 4 0 0 0 -4 -4Z" fill="none" stroke="#000000" stroke-linecap="round" stroke-linejoin="round" stroke-width="1"></path><path d="M19.25 23.25H4.75a4 4 0 0 1 -4 -4v-2.5h5v0.5a1 1 0 0 0 1 1h10.5a1 1 0 0 0 1 -1v-0.5h5v2.5a4 4 0 0 1 -4 4Z" fill="none" stroke="#000000" stroke-linecap="round" stroke-linejoin="round" stroke-width="1"></path><path d="m23.25 14 -5 0 0 -4 5 0Z" fill="none" stroke="#000000" stroke-linecap="round" stroke-linejoin="round" stroke-width="1"></path></g></svg>