<svg xmlns="http://www.w3.org/2000/svg" viewBox="0 0 24 24" id="Sass-Logo--Streamline-Ultimate"><desc>Sass Logo Streamline Icon: https://streamlinehq.com</desc><defs></defs><title>sass</title><path d="M6.874 8.663s1.023 1.817 4.285 0.793 3.893 -3.075 3.19 -4.666C13.071 1.9 0.75 4.68 0.75 10.61c0 1.9 3.4 3.966 4.485 4.733s0.69 3.7 -1.255 4.741S0.385 19 2.488 17.325" fill="none" stroke="#000000" stroke-linecap="round" stroke-linejoin="round" stroke-width="1"></path><path d="M13.554 18.121a1.573 1.573 0 0 0 1.374 -2.287c-0.674 -1.215 -1.28 -3.089 -0.78 -4.321 0 0 -2.735 6.859 -3.145 6.773s-0.472 -1.956 -0.245 -3.456l0.082 -0.295c0.317 -1.2 -0.759 -2.843 -2.2 -1s-0.834 4.656 -0.129 4.75" fill="none" stroke="#000000" stroke-linecap="round" stroke-linejoin="round" stroke-width="1"></path><path d="M17.083 17.06c0.37 0.37 2.166 -0.588 1.3 -1.72s-1.7 -3.246 -1.244 -4.3" fill="none" stroke="#000000" stroke-linecap="round" stroke-linejoin="round" stroke-width="1"></path><path d="M22.275 17.474c1.306 -0.283 1.706 -3.44 -1.415 -3.527a4.849 4.849 0 0 0 -2.917 0.739" fill="none" stroke="#000000" stroke-linecap="round" stroke-linejoin="round" stroke-width="1"></path></svg>