<svg xmlns="http://www.w3.org/2000/svg" viewBox="0 0 24 24" id="Scala-Logo--Streamline-Ultimate"><desc>Scala Logo Streamline Icon: https://streamlinehq.com</desc><g><path d="M19 8.25V13c-0.28 1.32 -9.26 3 -14 3v-4.75c4.74 0 14 -1.64 14 -3Z" fill="none" stroke="#000000" stroke-linecap="round" stroke-linejoin="round" stroke-width="1"></path><path d="M19 0.75v5c-0.28 1.32 -9.26 3 -14 3v-5c4.74 0 14 -1.64 14 -3Z" fill="none" stroke="#000000" stroke-linecap="round" stroke-linejoin="round" stroke-width="1"></path><path d="M16.4 7.08S19 6.94 19 8.25" fill="none" stroke="#000000" stroke-linecap="round" stroke-linejoin="round" stroke-width="1"></path><path d="m5 8.75 7.59 1.73" fill="none" stroke="#000000" stroke-linecap="round" stroke-linejoin="round" stroke-width="1"></path><path d="M19 15.5v4.75c-0.28 1.32 -9.26 3 -14 3V18.5c4.74 0 14 -1.64 14 -3Z" fill="none" stroke="#000000" stroke-linecap="round" stroke-linejoin="round" stroke-width="1"></path><path d="M16.4 14.33s2.6 -0.14 2.6 1.17" fill="none" stroke="#000000" stroke-linecap="round" stroke-linejoin="round" stroke-width="1"></path><path d="m5 16 7.59 1.73" fill="none" stroke="#000000" stroke-linecap="round" stroke-linejoin="round" stroke-width="1"></path></g></svg>