<svg xmlns="http://www.w3.org/2000/svg" viewBox="0 0 24 24" id="Swift-Logo-1--Streamline-Ultimate"><desc>Swift Logo 1 Streamline Icon: https://streamlinehq.com</desc><path d="M11.51 11C7.6 8.57 4.13 3.16 4.13 3.16S7 10.71 12.27 15.67A11.61 11.61 0 0 1 3.14 12a13.58 13.58 0 0 1 -1.93 -2.43 0.23 0.23 0 0 0 -0.3 -0.05 0.29 0.29 0 0 0 -0.15 0.31 14.69 14.69 0 0 0 3.87 6.55c4.26 4.26 10.13 5.44 13.86 3a10.81 10.81 0 0 0 2.21 0.43c1.94 1 1.94 1.46 1.94 1.46a2.55 2.55 0 0 0 0.49 -2.43 2.27 2.27 0 0 0 -1 -2.42l-0.89 -0.55c1.35 -3.68 0 -8.66 -3.75 -12.4 -0.25 -0.26 -0.51 -0.5 -0.78 -0.73a0.25 0.25 0 0 0 -0.33 0 0.26 0.26 0 0 0 -0.07 0.32c2.11 3.35 2.42 7.18 0.7 9.78a41.42 41.42 0 0 1 -8.22 -9.68" fill="none" stroke="#000000" stroke-linecap="round" stroke-linejoin="round" stroke-width="1"></path></svg>