<svg xmlns="http://www.w3.org/2000/svg" viewBox="0 0 24 24" id="Swift-Logo-2--Streamline-Ultimate"><desc>Swift Logo 2 Streamline Icon: https://streamlinehq.com</desc><g><path d="M5.9 6.06a25.67 25.67 0 0 0 5.39 8 8.13 8.13 0 0 1 -6.39 -2.57 9.21 9.21 0 0 1 -1.35 -1.68 0.14 0.14 0 0 0 -0.21 0 0.21 0.21 0 0 0 -0.11 0.22 10.41 10.41 0 0 0 2.71 4.58c3 3 7.1 3.81 9.7 2.12 0.14 0 2.91 0.55 2.91 1.32 0.59 -0.88 0.72 -2.7 -0.34 -3.4l-0.62 -0.38c0.95 -2.58 0 -6.07 -2.62 -8.69L14.42 5a0.18 0.18 0 0 0 -0.23 0 0.19 0.19 0 0 0 0 0.23c1.48 2.35 1.69 5 0.49 6.84a18.26 18.26 0 0 1 -5.53 -6.76" fill="none" stroke="#000000" stroke-linecap="round" stroke-linejoin="round" stroke-width="1"></path><path d="M0.75 12a11.25 11.25 0 1 0 22.5 0 11.25 11.25 0 1 0 -22.5 0" fill="none" stroke="#000000" stroke-linecap="round" stroke-linejoin="round" stroke-width="1"></path></g></svg>