<svg xmlns="http://www.w3.org/2000/svg" viewBox="0 0 24 24" id="Ubuntu-Logo--Streamline-Ultimate"><desc>Ubuntu Logo Streamline Icon: https://streamlinehq.com</desc><defs></defs><title>ubuntu</title><path d="M1.564 12.75a3 3 0 1 0 6 0 3 3 0 1 0 -6 0" fill="none" stroke="#000000" stroke-linecap="round" stroke-linejoin="round" stroke-width="1"></path><path d="M16.247 20.227a3 3 0 1 0 6 0 3 3 0 1 0 -6 0" fill="none" stroke="#000000" stroke-linecap="round" stroke-linejoin="round" stroke-width="1"></path><path d="M15.381 3.773a3 3 0 1 0 6 0 3 3 0 1 0 -6 0" fill="none" stroke="#000000" stroke-linecap="round" stroke-linejoin="round" stroke-width="1"></path><path d="M11.033 4.307a8.466 8.466 0 0 1 3.031 -0.557 8.6 8.6 0 0 1 1.322 0.1" fill="none" stroke="#000000" stroke-linecap="round" stroke-linejoin="round" stroke-width="1"></path><path d="M5.851 10.055a8.443 8.443 0 0 1 1.33 -2.793" fill="none" stroke="#000000" stroke-linecap="round" stroke-linejoin="round" stroke-width="1"></path><path d="M8.573 18.741a8.554 8.554 0 0 1 -2.442 -3.436" fill="none" stroke="#000000" stroke-linecap="round" stroke-linejoin="round" stroke-width="1"></path><path d="M16.271 20.461a8.492 8.492 0 0 1 -3.761 0.146" fill="none" stroke="#000000" stroke-linecap="round" stroke-linejoin="round" stroke-width="1"></path><path d="M22.436 13.738a8.515 8.515 0 0 1 -1.01 2.762 8.636 8.636 0 0 1 -0.749 1.093" fill="none" stroke="#000000" stroke-linecap="round" stroke-linejoin="round" stroke-width="1"></path><path d="M20.072 6.234a8.476 8.476 0 0 1 2.007 3.184" fill="none" stroke="#000000" stroke-linecap="round" stroke-linejoin="round" stroke-width="1"></path></svg>