<svg xmlns="http://www.w3.org/2000/svg" viewBox="0 0 24 24" id="Xamarin-Logo--Streamline-Ultimate"><desc>Xamarin Logo Streamline Icon: https://streamlinehq.com</desc><defs></defs><title>xamarin</title><path d="M17.707 2.986a1 1 0 0 0 -0.857 -0.486h-9.7a1 1 0 0 0 -0.857 0.486l-5.4 8.5a0.994 0.994 0 0 0 0 1.028l5.4 8.5a1 1 0 0 0 0.857 0.486h9.7a1 1 0 0 0 0.857 -0.486l5.4 -8.5a0.994 0.994 0 0 0 0 -1.028Z" fill="none" stroke="#000000" stroke-linecap="round" stroke-linejoin="round" stroke-width="1"></path><path d="m8.5 16.5 3 -4.5 -3 -4.5" fill="none" stroke="#000000" stroke-linecap="round" stroke-linejoin="round" stroke-width="1"></path><path d="m15.5 16.5 -3 -4.5 3 -4.5" fill="none" stroke="#000000" stroke-linecap="round" stroke-linejoin="round" stroke-width="1"></path></svg>