<svg xmlns="http://www.w3.org/2000/svg" fill="none" viewBox="0 0 24 24" id="Asalha-Puja--Streamline-Ultimate"><desc>Asalha Puja Streamline Icon: https://streamlinehq.com</desc><path stroke="#000000" stroke-linecap="round" stroke-linejoin="round" stroke-miterlimit="10" d="M4.83998 7.17697s1.69056 0.29833 2.78445 1.69056" stroke-width="1"></path><path stroke="#000000" stroke-linecap="round" stroke-linejoin="round" stroke-miterlimit="10" d="M7.12723 6.28195v2.06658" stroke-width="1"></path><path stroke="#000000" stroke-linecap="round" stroke-linejoin="round" stroke-miterlimit="10" d="m13.7403 4.49194 -1.6906 1.79 -1.79 -1.79" stroke-width="1"></path><path stroke="#000000" stroke-linecap="round" stroke-linejoin="round" stroke-miterlimit="10" d="M18.9611 7.17697s-1.6905 0.29833 -2.7844 1.69056" stroke-width="1"></path><path stroke="#000000" stroke-linecap="round" stroke-linejoin="round" stroke-miterlimit="10" d="M16.6739 6.28195v2.06658" stroke-width="1"></path><path stroke="#000000" stroke-linecap="round" stroke-linejoin="round" stroke-miterlimit="10" d="M18.9922 15.3314c2.4972 -1.4917 4.1953 -3.7789 4.1953 -6.36446C23.1875 4.3925 18.1931 0.8125 12 0.8125 5.80693 0.8125 0.8125 4.49194 0.8125 8.96694c0 2.58556 1.59823 4.87276 4.19532 6.36446" stroke-width="1"></path><path stroke="#000000" stroke-linecap="round" stroke-linejoin="round" stroke-miterlimit="10" d="M12 14.2375c1.0984 0 1.9889 -0.8904 1.9889 -1.9889 0 -1.0984 -0.8905 -1.9889 -1.9889 -1.9889 -1.0984 0 -1.9889 0.8905 -1.9889 1.9889 0 1.0985 0.8905 1.9889 1.9889 1.9889Z" stroke-width="1"></path><path stroke="#000000" stroke-linecap="round" stroke-linejoin="round" stroke-miterlimit="10" d="M8.51944 23.1875v-4.6739c0 -1.8894 1.59116 -3.4805 3.48056 -3.4805 1.8894 0 3.4806 1.5911 3.4806 3.4805v4.6739" stroke-width="1"></path><path stroke="#000000" stroke-linecap="round" stroke-linejoin="round" stroke-miterlimit="10" d="m8.51944 20.5025 6.06616 -4.2761" stroke-width="1"></path><path stroke="#000000" stroke-linecap="round" stroke-linejoin="round" stroke-miterlimit="10" d="M7.02777 23.1875h9.94443" stroke-width="1"></path></svg>