<svg xmlns="http://www.w3.org/2000/svg" fill="none" viewBox="0 0 24 24" id="Diwalis--Streamline-Ultimate"><desc>Diwalis Streamline Icon: https://streamlinehq.com</desc><path stroke="#000000" stroke-linecap="round" stroke-linejoin="round" stroke-miterlimit="10" d="M21.2201 14.2187c1.1834 0.5917 1.8736 1.3806 1.8736 2.1695 0 1.775 -3.1555 3.2541 -7.0999 3.2541 -3.9445 0 -7.10005 -1.4791 -7.10005 -3.2541 0 -0.8875 0.69029 -1.6764 1.87365 -2.2681" stroke-width="1"></path><path stroke="#000000" stroke-linecap="round" stroke-linejoin="round" stroke-miterlimit="10" d="M18.1632 13.1341c0 1.1833 -0.9861 2.1694 -2.1695 2.1694 -1.1833 0 -2.1694 -0.9861 -2.1694 -2.1694 0 -1.1834 2.1694 -4.43754 2.1694 -4.43754s2.1695 3.25414 2.1695 4.43754Z" stroke-width="1"></path><path stroke="#000000" stroke-linecap="round" stroke-linejoin="round" stroke-miterlimit="10" d="M15.9937 15.3035v1.6764" stroke-width="1"></path><path stroke="#000000" stroke-linecap="round" stroke-linejoin="round" stroke-miterlimit="10" d="M23.0938 16.4868c0 1.775 -1.6765 6.6069 -7.1001 6.6069 -5.5222 0 -7.09995 -4.7333 -7.09995 -6.6069" stroke-width="1"></path><path stroke="#000000" stroke-linecap="round" stroke-linejoin="round" stroke-miterlimit="10" d="m8.99236 11.9507 -0.98612 0c-3.94444 0 -7.09999 -1.4792 -7.09999 -3.25416 0 -0.8875 0.69027 -1.67641 1.8736 -2.26807" stroke-width="1"></path><path stroke="#000000" stroke-linecap="round" stroke-linejoin="round" stroke-miterlimit="10" d="M13.4299 6.42847c0.1972 0.09861 0.493 0.29585 0.6902 0.39447" stroke-width="1"></path><path stroke="#000000" stroke-linecap="round" stroke-linejoin="round" stroke-miterlimit="10" d="M10.2743 5.34378c0 1.18333 -0.98611 2.16942 -2.16944 2.16942 -1.18333 0 -2.16944 -0.98609 -2.16944 -2.16942 0 -1.18333 2.16944 -4.437499 2.16944 -4.437499S10.2743 4.16045 10.2743 5.34378Z" stroke-width="1"></path><path stroke="#000000" stroke-linecap="round" stroke-linejoin="round" stroke-miterlimit="10" d="M8.10486 7.51321v1.6764" stroke-width="1"></path><path stroke="#000000" stroke-linecap="round" stroke-linejoin="round" stroke-miterlimit="10" d="M5.63958 14.909C2.08959 13.7257 0.90625 10.1757 0.90625 8.69656" stroke-width="1"></path></svg>