<svg xmlns="http://www.w3.org/2000/svg" fill="none" viewBox="0 0 24 24" id="Magha-Puja--Streamline-Ultimate"><desc>Magha Puja Streamline Icon: https://streamlinehq.com</desc><path stroke="#000000" stroke-linecap="round" stroke-linejoin="round" stroke-miterlimit="10" d="M12.0493 0.90625v0.78889" stroke-width="1"></path><path stroke="#000000" stroke-linecap="round" stroke-linejoin="round" stroke-miterlimit="10" d="m8.20348 2.48404 0.59166 0.59167" stroke-width="1"></path><path stroke="#000000" stroke-linecap="round" stroke-linejoin="round" stroke-miterlimit="10" d="M6.62569 6.32986h0.7889" stroke-width="1"></path><path stroke="#000000" stroke-linecap="round" stroke-linejoin="round" stroke-miterlimit="10" d="M17.4729 6.32986h-0.8875" stroke-width="1"></path><path stroke="#000000" stroke-linecap="round" stroke-linejoin="round" stroke-miterlimit="10" d="m15.8951 2.48404 -0.5916 0.59167" stroke-width="1"></path><path stroke="#000000" stroke-linecap="round" stroke-linejoin="round" stroke-miterlimit="10" d="M3.37153 23.0937c0.81692 0 1.47917 -0.6622 1.47917 -1.4791 0 -0.8169 -0.66225 -1.4792 -1.47917 -1.4792 -0.81692 0 -1.47917 0.6623 -1.47917 1.4792 0 0.8169 0.66225 1.4791 1.47917 1.4791Z" stroke-width="1"></path><path stroke="#000000" stroke-linecap="round" stroke-linejoin="round" stroke-miterlimit="10" d="M2.38542 17.6701c0.81692 0 1.47916 -0.6622 1.47916 -1.4791 0 -0.817 -0.66224 -1.4792 -1.47916 -1.4792S0.90625 15.374 0.90625 16.191c0 0.8169 0.66225 1.4791 1.47917 1.4791Z" stroke-width="1"></path><path stroke="#000000" stroke-linecap="round" stroke-linejoin="round" stroke-miterlimit="10" d="M21.6146 17.6701c0.8169 0 1.4791 -0.6622 1.4791 -1.4791 0 -0.817 -0.6622 -1.4792 -1.4791 -1.4792 -0.8169 0 -1.4792 0.6622 -1.4792 1.4792 0 0.8169 0.6623 1.4791 1.4792 1.4791Z" stroke-width="1"></path><path stroke="#000000" stroke-linecap="round" stroke-linejoin="round" stroke-miterlimit="10" d="M9.2882 23.0937c0.8169 0 1.4792 -0.6622 1.4792 -1.4791 0 -0.8169 -0.6623 -1.4792 -1.4792 -1.4792 -0.81693 0 -1.47917 0.6623 -1.47917 1.4792 0 0.8169 0.66224 1.4791 1.47917 1.4791Z" stroke-width="1"></path><path stroke="#000000" stroke-linecap="round" stroke-linejoin="round" stroke-miterlimit="10" d="M15.2049 23.0937c0.8169 0 1.4791 -0.6622 1.4791 -1.4791 0 -0.8169 -0.6622 -1.4792 -1.4791 -1.4792 -0.817 0 -1.4792 0.6623 -1.4792 1.4792 0 0.8169 0.6622 1.4791 1.4792 1.4791Z" stroke-width="1"></path><path stroke="#000000" stroke-linecap="round" stroke-linejoin="round" stroke-miterlimit="10" d="M21.1215 23.0937c0.817 0 1.4792 -0.6622 1.4792 -1.4791 0 -0.8169 -0.6622 -1.4792 -1.4792 -1.4792 -0.8169 0 -1.4791 0.6623 -1.4791 1.4792 0 0.8169 0.6622 1.4791 1.4791 1.4791Z" stroke-width="1"></path><path stroke="#000000" stroke-linecap="round" stroke-linejoin="round" stroke-miterlimit="10" d="M12.0493 8.30208c1.0892 0 1.9722 -0.88299 1.9722 -1.97222 0 -1.08923 -0.883 -1.97222 -1.9722 -1.97222s-1.9722 0.88299 -1.9722 1.97222c0 1.08923 0.883 1.97222 1.9722 1.97222Z" stroke-width="1"></path><path stroke="#000000" stroke-linecap="round" stroke-linejoin="round" stroke-miterlimit="10" d="M8.59792 16.684v-4.1416c0 -1.8736 1.57778 -3.45143 3.45138 -3.45143s3.4514 1.57783 3.4514 3.45143v4.1416" stroke-width="1"></path><path stroke="#000000" stroke-linecap="round" stroke-linejoin="round" stroke-miterlimit="10" d="m8.59792 14.5146 6.01528 -4.2403" stroke-width="1"></path><path stroke="#000000" stroke-linecap="round" stroke-linejoin="round" stroke-miterlimit="10" d="M7.11875 16.684h9.86115" stroke-width="1"></path></svg>