<svg xmlns="http://www.w3.org/2000/svg" fill="none" viewBox="0 0 24 24" id="Pchum-Ben-Acnestor-Day--Streamline-Ultimate"><desc>Pchum Ben Acnestor Day Streamline Icon: https://streamlinehq.com</desc><path stroke="#000000" stroke-linecap="round" stroke-linejoin="round" stroke-miterlimit="10" d="M7.14931 23.225h-4.4c-1.1 0 -1.999997 -0.9 -1.999997 -2v-11c0 -1.10002 0.899997 -2.00002 1.999997 -2.00002h6.5c1.09999 0 1.99999 0.9 1.99999 2.00002v4.5" stroke-width="1"></path><path stroke="#000000" stroke-linecap="round" stroke-linejoin="round" stroke-miterlimit="10" d="M0.799316 13.225H11.1993" stroke-width="1"></path><path stroke="#000000" stroke-linecap="round" stroke-linejoin="round" stroke-miterlimit="10" d="M0.799316 18.225H9.19932" stroke-width="1"></path><path stroke="#000000" stroke-linecap="round" stroke-linejoin="round" stroke-miterlimit="10" d="M3.19931 8.22498v-3h5.6v3" stroke-width="1"></path><path stroke="#000000" stroke-linecap="round" stroke-linejoin="round" stroke-miterlimit="10" d="M11.785 23.025c-0.3 0 -0.7 -0.2 -0.8 -0.5 -0.2 -0.3 -0.2 -0.6 -0.1 -1l1.6 -3.5c0.2 -0.4 0.5 -0.6 0.9 -0.6h2.7c0.4 0 0.7 0.2 0.9 0.6l1.6 3.5c0.1 0.3 0.1 0.7 -0.1 1 -0.2 0.3 -0.5 0.5 -0.8 0.5h-5.9Z" stroke-width="1"></path><path stroke="#000000" stroke-linecap="round" stroke-linejoin="round" stroke-miterlimit="10" d="m16.685 17.725 -2.2 5.3" stroke-width="1"></path><path stroke="#000000" stroke-linecap="round" stroke-linejoin="round" stroke-miterlimit="10" d="M19.785 17.625h0.9c0.4 0 0.7 0.2 0.9 0.6l1.6 3.5c0.1 0.3 0.1 0.7 -0.1 1 -0.2 0.3 -0.5 0.5 -0.8 0.5h-0.4" stroke-width="1"></path><path stroke="#000000" stroke-linecap="round" stroke-linejoin="round" stroke-miterlimit="10" d="M14.5665 8.04999c-1.2 -0.2 -2.2 -0.99995 -2.5 -2.19995 -0.4 -1.6 1.8 -5.10004 1.8 -5.10004s3.1 1.79999 3.9 3.29999" stroke-width="1"></path><path stroke="#000000" stroke-linecap="round" stroke-linejoin="round" stroke-miterlimit="10" d="M12.5665 3.65002s1.5 0.19998 3.1 1.09998" stroke-width="1"></path><path stroke="#000000" stroke-linecap="round" stroke-linejoin="round" stroke-miterlimit="10" d="M14.5665 8.04999c0.8 2.20001 0.5 5.40001 0.4 6.00001" stroke-width="1"></path><path stroke="#000000" stroke-linecap="round" stroke-linejoin="round" stroke-miterlimit="10" d="M17.4737 8.77499c-0.5 1.60001 0.4 3.29991 2 3.69991 1.6 0.4 3.3 -0.4 3.7 -2 0.5 -1.59995 -1.6 -5.19991 -1.6 -5.19991s-3.6 1.9 -4.1 3.5Z" stroke-width="1"></path><path stroke="#000000" stroke-linecap="round" stroke-linejoin="round" stroke-miterlimit="10" d="M22.8737 8.37497s-2.7 0.20001 -4.8 2.20003" stroke-width="1"></path><path stroke="#000000" stroke-linecap="round" stroke-linejoin="round" stroke-miterlimit="10" d="M19.4737 12.4656s-0.3 1 -0.4 2.4" stroke-width="1"></path></svg>