<svg xmlns="http://www.w3.org/2000/svg" viewBox="0 0 24 24" id="Angel-Of-Independence-Mexico--Streamline-Ultimate"><desc>Angel Of Independence Mexico Streamline Icon: https://streamlinehq.com</desc><defs></defs><title>angel-of-independence-mexico</title><path d="m9.25 22.847 0 -4.018 7 0 0 4.018" fill="none" stroke="#000000" stroke-linecap="round" stroke-linejoin="round" stroke-width="1"></path><path d="m18.068 18.829 -10.426 0 -0.489 -3.421 11.404 0 -0.489 3.421z" fill="none" stroke="#000000" stroke-linecap="round" stroke-linejoin="round" stroke-width="1"></path><path d="M10.004 11.987h5.702v3.421h-5.702Z" fill="none" stroke="#000000" stroke-linecap="round" stroke-linejoin="round" stroke-width="1"></path><path d="M10.574 2.864a1.711 1.711 0 1 0 3.422 0 1.711 1.711 0 1 0 -3.422 0" fill="none" stroke="#000000" stroke-linecap="round" stroke-linejoin="round" stroke-width="1"></path><path d="M6.863 3.614a5.133 5.133 0 0 0 3.712 3.241c3.4 0.68 4.561 0 6.272 1.711" fill="none" stroke="#000000" stroke-linecap="round" stroke-linejoin="round" stroke-width="1"></path><path d="M9.807 6.636a9.965 9.965 0 0 1 1.338 5.351" fill="none" stroke="#000000" stroke-linecap="round" stroke-linejoin="round" stroke-width="1"></path><path d="m14.944 7.437 0 4.55" fill="none" stroke="#000000" stroke-linecap="round" stroke-linejoin="round" stroke-width="1"></path><path d="M19.127 5.715a7.808 7.808 0 0 0 3.422 -3.027s-3.105 -0.887 -4.879 0 -1.63 3.3 -3.4 4.626" fill="none" stroke="#000000" stroke-linecap="round" stroke-linejoin="round" stroke-width="1"></path><path d="M1.451 2.864a2.851 1.711 0 1 0 5.702 0 2.851 1.711 0 1 0 -5.702 0" fill="none" stroke="#000000" stroke-linecap="round" stroke-linejoin="round" stroke-width="1"></path></svg>