<svg xmlns="http://www.w3.org/2000/svg" viewBox="0 0 24 24" id="Bellas-Artes-Palace-Mexico--Streamline-Ultimate"><desc>Bellas Artes Palace Mexico Streamline Icon: https://streamlinehq.com</desc><defs></defs><title>bellas-artes-palace-mexico</title><path d="M7.5 17.929h9v5h-9Z" fill="none" stroke="#000000" stroke-linecap="round" stroke-linejoin="round" stroke-width="1"></path><path d="m8.5 12.929 0 5" fill="none" stroke="#000000" stroke-linecap="round" stroke-linejoin="round" stroke-width="1"></path><path d="m15.5 12.929 0 5" fill="none" stroke="#000000" stroke-linecap="round" stroke-linejoin="round" stroke-width="1"></path><path d="m10.5 17.929 0 5" fill="none" stroke="#000000" stroke-linecap="round" stroke-linejoin="round" stroke-width="1"></path><path d="m13.5 17.929 0 5" fill="none" stroke="#000000" stroke-linecap="round" stroke-linejoin="round" stroke-width="1"></path><path d="m1 17.429 3 0" fill="none" stroke="#000000" stroke-linecap="round" stroke-linejoin="round" stroke-width="1"></path><path d="m20 17.429 3 0" fill="none" stroke="#000000" stroke-linecap="round" stroke-linejoin="round" stroke-width="1"></path><path d="M21.5 12.929a2 2 0 0 0 -4 0h-2a3.5 3.5 0 0 0 -7 0h-2a2 2 0 0 0 -4 0H1v10h22v-10Z" fill="none" stroke="#000000" stroke-linecap="round" stroke-linejoin="round" stroke-width="1"></path><path d="m6 11.611 0 -4.682 12 0 0 4.682" fill="none" stroke="#000000" stroke-linecap="round" stroke-linejoin="round" stroke-width="1"></path><path d="M7 6.929c0 -3.813 3 -3.813 5 -4.358 2 0.545 5 0.545 5 4.358" fill="none" stroke="#000000" stroke-linecap="round" stroke-linejoin="round" stroke-width="1"></path><path d="m12 2.571 0 -1.5" fill="none" stroke="#000000" stroke-linecap="round" stroke-linejoin="round" stroke-width="1"></path><path d="m11.425 13.429 1.15 0" fill="none" stroke="#000000" stroke-linecap="round" stroke-linejoin="round" stroke-width="1"></path></svg>