<svg xmlns="http://www.w3.org/2000/svg" viewBox="0 0 24 24" id="Bellagio-Fountains-Vegas--Streamline-Ultimate"><desc>Bellagio Fountains Vegas Streamline Icon: https://streamlinehq.com</desc><defs></defs><title>bellagio-fountains-vegas</title><path d="M2.307 18.136H1.261V7.4c1.023 0.1 2.046 0.177 3.069 0.246V4.823a56.691 56.691 0 0 0 15.34 0v2.821c1.023 -0.069 2.046 -0.149 3.069 -0.246v10.738h-0.534" fill="none" stroke="#000000" stroke-linecap="round" stroke-linejoin="round" stroke-width="1"></path><path d="M14.045 12V4.33a2.045 2.045 0 1 0 -4.09 0V12" fill="none" stroke="#000000" stroke-linecap="round" stroke-linejoin="round" stroke-width="1"></path><path d="M12 2.284 12 0.75" fill="none" stroke="#000000" stroke-linecap="round" stroke-linejoin="round" stroke-width="1"></path><path d="m3.818 23.25 16.364 0" fill="none" stroke="#000000" stroke-linecap="round" stroke-linejoin="round" stroke-width="1"></path><path d="M14.876 23.25v-5.625c0 -2.045 2.557 -2.045 2.557 0" fill="none" stroke="#000000" stroke-linecap="round" stroke-linejoin="round" stroke-width="1"></path><path d="M17.753 23.25v-2.045c0 -1.682 1.728 -1.981 2.343 -0.9" fill="none" stroke="#000000" stroke-linecap="round" stroke-linejoin="round" stroke-width="1"></path><path d="M6.247 23.25v-2.045c0 -1.7 -1.758 -1.986 -2.359 -0.869" fill="none" stroke="#000000" stroke-linecap="round" stroke-linejoin="round" stroke-width="1"></path><path d="M9.124 23.25v-5.625c0 -2.045 -2.557 -2.045 -2.557 0" fill="none" stroke="#000000" stroke-linecap="round" stroke-linejoin="round" stroke-width="1"></path><path d="m12 23.25 0 -8.693" fill="none" stroke="#000000" stroke-linecap="round" stroke-linejoin="round" stroke-width="1"></path><path d="m4.33 11.489 0 1.022" fill="none" stroke="#000000" stroke-linecap="round" stroke-linejoin="round" stroke-width="1"></path><path d="m7.222 11.489 0 1.022" fill="none" stroke="#000000" stroke-linecap="round" stroke-linejoin="round" stroke-width="1"></path><path d="m7.222 7.675 0 1.023" fill="none" stroke="#000000" stroke-linecap="round" stroke-linejoin="round" stroke-width="1"></path><path d="m16.778 11.489 0 1.022" fill="none" stroke="#000000" stroke-linecap="round" stroke-linejoin="round" stroke-width="1"></path><path d="m16.778 7.675 0 1.023" fill="none" stroke="#000000" stroke-linecap="round" stroke-linejoin="round" stroke-width="1"></path><path d="m19.67 11.489 0 1.022" fill="none" stroke="#000000" stroke-linecap="round" stroke-linejoin="round" stroke-width="1"></path></svg>