<svg xmlns="http://www.w3.org/2000/svg" viewBox="0 0 24 24" id="Cathedral-Of-Havana-Cuba--Streamline-Ultimate"><desc>Cathedral Of Havana Cuba Streamline Icon: https://streamlinehq.com</desc><defs></defs><title>cathedral-of-havana-cuba</title><path d="M19.5 6.843H23v15.5h-3.5Z" fill="none" stroke="#000000" stroke-linecap="round" stroke-linejoin="round" stroke-width="1"></path><path d="M1 6.843h3.5v15.5H1Z" fill="none" stroke="#000000" stroke-linecap="round" stroke-linejoin="round" stroke-width="1"></path><path d="m4.5 16.343 2.235 -2 2.234 2 0 6 -4.469 0 0 -6z" fill="none" stroke="#000000" stroke-linecap="round" stroke-linejoin="round" stroke-width="1"></path><path d="m15.031 16.343 2.234 -2 2.235 2 0 6 -4.469 0 0 -6z" fill="none" stroke="#000000" stroke-linecap="round" stroke-linejoin="round" stroke-width="1"></path><path d="m19.5 10.292 -3 0 0 -1.5 -2 -1.5 0 -1.5 -2.5 -1.5 -2.5 1.5 0 1.5 -2 1.5 0 1.5 -3 0" fill="none" stroke="#000000" stroke-linecap="round" stroke-linejoin="round" stroke-width="1"></path><path d="m12 9.578 0 2" fill="none" stroke="#000000" stroke-linecap="round" stroke-linejoin="round" stroke-width="1"></path><path d="m13 10.578 -2 0" fill="none" stroke="#000000" stroke-linecap="round" stroke-linejoin="round" stroke-width="1"></path><path d="M8.969 17.843a3.291 3.291 0 0 1 3.031 -3.5 3.291 3.291 0 0 1 3.031 3.5" fill="none" stroke="#000000" stroke-linecap="round" stroke-linejoin="round" stroke-width="1"></path><path d="m19.5 4.292 1.75 -2.635L23 4.292" fill="none" stroke="#000000" stroke-linecap="round" stroke-linejoin="round" stroke-width="1"></path><path d="m1 4.292 1.75 -2.635L4.5 4.292" fill="none" stroke="#000000" stroke-linecap="round" stroke-linejoin="round" stroke-width="1"></path><path d="m8.969 22.343 6.062 0" fill="none" stroke="#000000" stroke-linecap="round" stroke-linejoin="round" stroke-width="1"></path></svg>