<svg viewBox="0 0 24 24" xmlns="http://www.w3.org/2000/svg" id="Landmark-Totem-Pole--Streamline-Ultimate"><desc>Landmark Totem Pole Streamline Icon: https://streamlinehq.com</desc><path d="M7.5 23.25v-18a4.5 4.5 0 0 1 9 0v18" fill="none" stroke="#000000" stroke-linecap="round" stroke-linejoin="round" stroke-width="1"></path><path d="m7.5 20.25 9 0" fill="none" stroke="#000000" stroke-linecap="round" stroke-linejoin="round" stroke-width="1"></path><path d="m7.5 17.25 9 0" fill="none" stroke="#000000" stroke-linecap="round" stroke-linejoin="round" stroke-width="1"></path><path d="m13.5 6 0 0.75" fill="none" stroke="#000000" stroke-linecap="round" stroke-linejoin="round" stroke-width="1"></path><path d="m10.5 6 0 0.75" fill="none" stroke="#000000" stroke-linecap="round" stroke-linejoin="round" stroke-width="1"></path><path d="M12.237 9.079a0.753 0.753 0 0 0 -0.474 0L7.5 10.5l4.02 3.35a0.749 0.749 0 0 0 0.96 0l4.02 -3.35Z" fill="none" stroke="#000000" stroke-linecap="round" stroke-linejoin="round" stroke-width="1"></path><path d="M7.5 6.75h-6a0.749 0.749 0 0 0 -0.721 0.956l0.921 3.212A1.491 1.491 0 0 0 3.131 12a1.125 1.125 0 0 1 1.125 1.125 1.125 1.125 0 0 0 1.125 1.125H7.5" fill="none" stroke="#000000" stroke-linecap="round" stroke-linejoin="round" stroke-width="1"></path><path d="M16.5 6.75h6a0.749 0.749 0 0 1 0.721 0.956l-0.921 3.212A1.491 1.491 0 0 1 20.869 12a1.125 1.125 0 0 0 -1.125 1.125 1.125 1.125 0 0 1 -1.125 1.125H16.5" fill="none" stroke="#000000" stroke-linecap="round" stroke-linejoin="round" stroke-width="1"></path></svg>