<svg xmlns="http://www.w3.org/2000/svg" fill="none" viewBox="0 0 24 24" id="Dermatoscope-Skin-1--Streamline-Ultimate"><desc>Dermatoscope Skin 1 Streamline Icon: https://streamlinehq.com</desc><path stroke="#000000" stroke-linecap="round" stroke-linejoin="round" d="m13.2739 7.97879 -0.2906 1.00552c-0.2592 0.89723 -1.1967 1.41439 -2.094 1.15519L1.03229 7.2914l1.22934 -4.25467 9.85707 2.84808c0.8972 0.25924 1.4144 1.19675 1.1552 2.09398Z" stroke-width="1"></path><path stroke="#000000" stroke-linecap="round" stroke-linejoin="round" d="m15.8742 5.32129 6.4776 0 -0.0096 6.21721 -6.4585 0 -0.0095 -6.21721Z" stroke-width="1"></path><path stroke="#000000" stroke-linecap="round" stroke-linejoin="round" d="m15.8736 11.5381 6.4782 0 -1.4497 3.0575 -3.5788 0 -1.4497 -3.0575Z" stroke-width="1"></path><path stroke="#000000" stroke-linecap="round" stroke-linejoin="round" d="m9.38281 9.70313 1.26559 -4.24219" stroke-width="1"></path><path stroke="#000000" stroke-linecap="round" stroke-linejoin="round" d="m22.1223 1.51814 -6.0186 0c-0.467 0 -0.8455 0.37855 -0.8455 0.84552l0 2.11211c0 0.46697 0.3785 0.84552 0.8455 0.84552l6.0186 0c0.4669 0 0.8455 -0.37855 0.8455 -0.84552l0 -2.11211c0 -0.46697 -0.3786 -0.84552 -0.8455 -0.84552Z" stroke-width="1"></path><path stroke="#000000" stroke-linecap="round" stroke-linejoin="round" d="m13.1094 8.51562 2.7651 0.75977" stroke-width="1"></path><path stroke="#000000" stroke-linecap="round" stroke-linejoin="round" d="M1.03223 17.9253H22.9678" stroke-width="1"></path><path stroke="#000000" stroke-linecap="round" stroke-linejoin="round" d="M20.3097 22.3299c-0.0841 0 -0.1522 -0.0682 -0.1522 -0.1523s0.0681 -0.1522 0.1522 -0.1522" stroke-width="1"></path><path stroke="#000000" stroke-linecap="round" stroke-linejoin="round" d="M20.3096 22.3299c0.084 0 0.1522 -0.0682 0.1522 -0.1523s-0.0682 -0.1522 -0.1522 -0.1522" stroke-width="1"></path><path stroke="#000000" stroke-linecap="round" stroke-linejoin="round" d="M14.7213 20.5955c-0.0841 0 -0.1522 -0.0682 -0.1522 -0.1523 0 -0.084 0.0681 -0.1522 0.1522 -0.1522" stroke-width="1"></path><path stroke="#000000" stroke-linecap="round" stroke-linejoin="round" d="M14.7212 20.5955c0.0841 0 0.1522 -0.0682 0.1522 -0.1523 0 -0.084 -0.0681 -0.1522 -0.1522 -0.1522" stroke-width="1"></path><path stroke="#000000" stroke-linecap="round" stroke-linejoin="round" d="M7.66859 22.4822c-0.08408 0 -0.15223 -0.0682 -0.15223 -0.1522 0 -0.0841 0.06815 -0.1523 0.15223 -0.1523" stroke-width="1"></path><path stroke="#000000" stroke-linecap="round" stroke-linejoin="round" d="M7.66845 22.4822c0.08407 0 0.15223 -0.0682 0.15223 -0.1522 0 -0.0841 -0.06816 -0.1523 -0.15223 -0.1523" stroke-width="1"></path><path stroke="#000000" stroke-linecap="round" stroke-linejoin="round" d="M3.08241 21.8269c-0.08408 0 -0.15223 -0.0681 -0.15223 -0.1522 0 -0.0841 0.06815 -0.1522 0.15223 -0.1522" stroke-width="1"></path><path stroke="#000000" stroke-linecap="round" stroke-linejoin="round" d="M3.08214 21.8269c0.08408 0 0.15224 -0.0681 0.15224 -0.1522 0 -0.0841 -0.06816 -0.1522 -0.15224 -0.1522" stroke-width="1"></path></svg>