<svg xmlns="http://www.w3.org/2000/svg" fill="none" viewBox="0 0 24 24" id="Dermatoscope-Skin-2--Streamline-Ultimate"><desc>Dermatoscope Skin 2 Streamline Icon: https://streamlinehq.com</desc><path stroke="#000000" stroke-linecap="round" stroke-linejoin="round" d="m8.72041 10.9978 -1.02471 -0.2961c-0.91435 -0.2642 -1.86976 0.2629 -2.13395 1.1772L2.6593 21.9241l4.33589 1.2529 0.77793 -2.6924" stroke-width="1"></path><path stroke="#000000" stroke-linecap="round" stroke-linejoin="round" d="M4.98669 8.05197V1.45068l6.33591 0.00976v6.58177l-6.33591 0.00976Z" stroke-width="1"></path><path stroke="#000000" stroke-linecap="round" stroke-linejoin="round" d="M11.3229 8.05256V1.45068l3.1159 1.47735v3.64718l-3.1159 1.47735Z" stroke-width="1"></path><path stroke="#000000" stroke-linecap="round" stroke-linejoin="round" d="m7.12037 13.9356 -2.00318 -0.5294" stroke-width="1"></path><path stroke="#000000" stroke-linecap="round" stroke-linejoin="round" d="m1.11095 1.68466 0 6.13343c0 0.47588 0.38578 0.86166 0.86166 0.86166l2.15243 0c0.47588 0 0.86165 -0.38578 0.86165 -0.86166l0 -6.13343c0 -0.47588 -0.38577 -0.861662 -0.86165 -0.861662l-2.15243 0c-0.47588 0 -0.86166 0.385782 -0.86166 0.861662Z" stroke-width="1"></path><path stroke="#000000" stroke-linecap="round" stroke-linejoin="round" d="m8.20312 10.8516 0.81336 -2.80009" stroke-width="1"></path><path stroke="#000000" stroke-linecap="round" stroke-linejoin="round" d="M16.5375 23.1345c3.6356 0 6.5829 -2.9473 6.5829 -6.583 0 -3.6357 -2.9473 -6.58299 -6.5829 -6.58299 -3.6357 0 -6.58303 2.94729 -6.58303 6.58299 0 3.6357 2.94733 6.583 6.58303 6.583Z" stroke-width="1"></path><path stroke="#000000" stroke-linecap="round" stroke-linejoin="round" d="M10.6924 13.5066c1.8623 1.1589 3.5075 0.9013 4.5317 0.2574 1.0241 -0.6438 3.0416 -0.7726 4.5935 0.2254 1.2416 0.7985 2.5452 0.8263 3.0418 0.7404" stroke-width="1"></path><path stroke="#000000" stroke-linecap="round" stroke-linejoin="round" d="M9.97656 17.0098c0.71514 0.1123 2.56974 0.3323 4.26664 0.3138 2.1212 -0.0232 4.9657 -0.1743 6.6048 -0.1976 1.3114 -0.0186 2.041 -0.0077 2.2418 0" stroke-width="1"></path><path stroke="#000000" stroke-linecap="round" stroke-linejoin="round" d="M15.0557 20.4017c-0.0857 0 -0.1552 -0.0694 -0.1552 -0.1552 0 -0.0857 0.0695 -0.1552 0.1552 -0.1552" stroke-width="1"></path><path stroke="#000000" stroke-linecap="round" stroke-linejoin="round" d="M15.0556 20.4017c0.0857 0 0.1552 -0.0694 0.1552 -0.1552 0 -0.0857 -0.0695 -0.1552 -0.1552 -0.1552" stroke-width="1"></path><path stroke="#000000" stroke-linecap="round" stroke-linejoin="round" d="M19.0029 19.724c-0.0858 0 -0.1552 -0.0695 -0.1552 -0.1552s0.0694 -0.1552 0.1552 -0.1552" stroke-width="1"></path><path stroke="#000000" stroke-linecap="round" stroke-linejoin="round" d="M19.0026 19.724c0.0857 0 0.1552 -0.0695 0.1552 -0.1552s-0.0695 -0.1552 -0.1552 -0.1552" stroke-width="1"></path></svg>