<svg xmlns="http://www.w3.org/2000/svg" fill="none" viewBox="0 0 24 24" id="Hearing-Aid--Streamline-Ultimate"><desc>Hearing Aid Streamline Icon: https://streamlinehq.com</desc><path stroke="#000000" stroke-linecap="round" stroke-linejoin="round" d="M11.076 23.0212c6.0869 0 11.0213 -4.9343 11.0213 -11.0212 0 -6.08686 -4.9344 -11.02124 -11.0213 -11.02124H9.22727c-2.84325 0 -5.14817 2.30492 -5.14817 5.14817v1.99388" stroke-width="1"></path><path stroke="#000000" stroke-linecap="round" stroke-linejoin="round" d="M10.9914 23.0211c-1.92312 0 -3.48212 -1.559 -3.48212 -3.4821 0 -1.9232 1.559 -3.4821 3.48212 -3.4821 5.1143 0 7.9723 -6.85277 3.1157 -10.09006L13.3846 5.5" stroke-width="1"></path><path stroke="#000000" stroke-linecap="round" stroke-linejoin="round" d="M15.1452 0.97876 13.054 6.33074" stroke-width="1"></path><path stroke="#000000" stroke-linecap="round" stroke-linejoin="round" d="m20.5257 4.18628 -0.9486 0.8061" stroke-width="1"></path><path stroke="#000000" stroke-linecap="round" stroke-linejoin="round" d="m22.1743 7.16748 -0.9055 0.6152" stroke-width="1"></path><path stroke="#000000" stroke-linecap="round" stroke-linejoin="round" d="M7.10327 8.05376V6.59812c0 -1.41832 1.14978 -2.56809 2.5681 -2.56809v0c1.01063 0 3.21753 0.1243 4.04143 0.56372" stroke-width="1"></path><path stroke="#000000" stroke-linecap="round" stroke-linejoin="round" d="M4.07561 6.00893c-1.53052 0.62258 -2.60955 2.12471 -2.60955 3.87886 0 2.31171 1.87405 4.18581 4.1858 4.18581 2.31174 0 4.18579 -1.8741 4.18579 -4.18581 0 -1.80399 -1.14121 -3.34143 -2.74108 -3.92978" stroke-width="1"></path></svg>