<svg xmlns="http://www.w3.org/2000/svg" fill="none" viewBox="0 0 24 24" id="Inhaler-Mouth--Streamline-Ultimate"><desc>Inhaler Mouth Streamline Icon: https://streamlinehq.com</desc><path stroke="#000000" stroke-linecap="round" stroke-linejoin="round" d="m4.61865 8.22918 -0.36254 -1.73879c-0.1548 -0.74241 -0.86996 -1.22869 -1.61728 -1.09969v0c-0.78933 0.13626 -1.30597 0.90285 -1.13601 1.68562l0.35267 1.62425" stroke-width="1"></path><path stroke="#000000" stroke-linecap="round" stroke-linejoin="round" d="m5.40695 8.0874 -4.21603 0.7278 1.19714 5.5136c0.33154 1.5269 1.68271 2.6162 3.24524 2.6162l4.04051 -0.0001v-4.0472l-3.2631 0.0038 -1.00376 -4.8141Z" stroke-width="1"></path><path stroke="#000000" stroke-linecap="round" stroke-linejoin="round" d="M22.8088 2.35405c-1.4522 -0.28673 -2.9545 -0.18128 -4.3524 0.30551 -1.3979 0.48679 -2.6408 1.33733 -3.6007 2.46405 -0.96 1.12673 -2.4658 3.49933 -3.4082 4.94529l1.6388 0.7712 -0.5784 1.687 4.5741 1.457 -0.0604 0.1175c-0.8534 1.6602 -2.5634 2.7038 -4.4301 2.7038l-0.258 0c0.0345 2.3652 2.3971 3.6583 3.969 3.3824v2.4409" stroke-width="1"></path><path stroke="#000000" stroke-linecap="round" stroke-linejoin="round" d="M17.5065 8.39808c-0.0857 0 -0.1552 -0.06949 -0.1552 -0.15522 0 -0.08572 0.0695 -0.15521 0.1552 -0.15521" stroke-width="1"></path><path stroke="#000000" stroke-linecap="round" stroke-linejoin="round" d="M17.5063 8.39808c0.0857 0 0.1552 -0.06949 0.1552 -0.15522 0 -0.08572 -0.0695 -0.15521 -0.1552 -0.15521" stroke-width="1"></path></svg>