<svg xmlns="http://www.w3.org/2000/svg" fill="none" viewBox="0 0 24 24" id="Inhaler-Spray--Streamline-Ultimate"><desc>Inhaler Spray Streamline Icon: https://streamlinehq.com</desc><path stroke="#000000" stroke-linecap="round" stroke-linejoin="round" d="m13.8281 15.6154 3.1562 -0.0022 0 4.0428 -3.1562 -0.0022" stroke-width="1"></path><path stroke="#000000" stroke-linecap="round" stroke-linejoin="round" d="m6.65552 6.68115 -0.61364 -2.94306c-0.19093 -0.91571 -1.07304 -1.51551 -1.99481 -1.35639l-1.10753 0.19119c-0.97358 0.16806 -1.61082 1.11361 -1.40119 2.07909l0.61118 2.81485" stroke-width="1"></path><path stroke="#000000" stroke-linecap="round" stroke-linejoin="round" d="M7.85004 6.49023 0.974731 7.67709 3.2594 18.1994c0.34664 1.5965 1.75936 2.7354 3.39305 2.7354l7.18805 -0.0001v-6.6l-4.35358 0.0062 -1.63688 -7.85067Z" stroke-width="1"></path><path stroke="#000000" stroke-linecap="round" stroke-linejoin="round" d="m7.15393 18.9197 0 2.015" stroke-width="1"></path><path stroke="#000000" stroke-linecap="round" stroke-linejoin="round" d="m10.4271 18.9197 0 2.015" stroke-width="1"></path><path stroke="#000000" stroke-linecap="round" stroke-linejoin="round" d="m23.0253 17.6343 -2.6827 0" stroke-width="1"></path><path stroke="#000000" stroke-linecap="round" stroke-linejoin="round" d="m22.4786 13.3655 -2.5324 1.0575" stroke-width="1"></path><path stroke="#000000" stroke-linecap="round" stroke-linejoin="round" d="m22.4786 21.9036 -2.5324 -1.0576" stroke-width="1"></path></svg>