<svg viewBox="0 0 24 24" xmlns="http://www.w3.org/2000/svg" id="Medical-Instrument-Stethoscope--Streamline-Ultimate"><desc>Medical Instrument Stethoscope Streamline Icon: https://streamlinehq.com</desc><path d="M9.75 2.25h1.5a1.5 1.5 0 0 1 1.5 1.5v6a6 6 0 1 1 -12 0v-6a1.5 1.5 0 0 1 1.5 -1.5h1.5" fill="none" stroke="#000000" stroke-linecap="round" stroke-linejoin="round" stroke-width="1"></path><path d="m3.75 0.75 0 3.75" fill="none" stroke="#000000" stroke-linecap="round" stroke-linejoin="round" stroke-width="1"></path><path d="m9.75 0.75 0 3.75" fill="none" stroke="#000000" stroke-linecap="round" stroke-linejoin="round" stroke-width="1"></path><path d="M17.25 9.75a3 3 0 1 0 6 0 3 3 0 1 0 -6 0Z" fill="none" stroke="#000000" stroke-linecap="round" stroke-linejoin="round" stroke-width="1"></path><path d="M6.75 15.75v0.75a6.75 6.75 0 0 0 13.5 0v-3.75" fill="none" stroke="#000000" stroke-linecap="round" stroke-linejoin="round" stroke-width="1"></path></svg>