<svg viewBox="0 0 24 24" xmlns="http://www.w3.org/2000/svg" id="Medical-Instrument-Tooth--Streamline-Ultimate"><desc>Medical Instrument Tooth Streamline Icon: https://streamlinehq.com</desc><path d="m15.943 10.178 3.276 1.638a1.5 1.5 0 0 0 1.732 -0.281l0.981 -0.982a4.5 4.5 0 0 0 1.087 -4.605l-0.267 -0.8a0.376 0.376 0 0 0 -0.712 0 7.491 7.491 0 0 1 -1.854 2.911 6.57 6.57 0 0 1 -4.243 2.119Z" fill="none" stroke="#000000" stroke-linecap="round" stroke-linejoin="round" stroke-width="1"></path><path d="M15.943 10.178a7.476 7.476 0 0 1 -5.556 2.184c-2.2 -0.08 -3.287 -0.765 -5.58 1.528C1.094 17.6 0.75 20.25 0.75 20.25" fill="none" stroke="#000000" stroke-linecap="round" stroke-linejoin="round" stroke-width="1"></path><path d="m13.822 8.057 -1.638 -3.276a1.5 1.5 0 0 1 0.281 -1.732l0.982 -0.981A4.5 4.5 0 0 1 18.052 0.981l0.8 0.267a0.376 0.376 0 0 1 0 0.712 7.491 7.491 0 0 0 -2.911 1.854 6.57 6.57 0 0 0 -2.119 4.243Z" fill="none" stroke="#000000" stroke-linecap="round" stroke-linejoin="round" stroke-width="1"></path><path d="M13.822 8.057a7.476 7.476 0 0 0 -2.184 5.556c0.08 2.2 0.765 3.287 -1.528 5.58 -3.71 3.713 -6.36 4.057 -6.36 4.057" fill="none" stroke="#000000" stroke-linecap="round" stroke-linejoin="round" stroke-width="1"></path></svg>