<svg viewBox="0 0 24 24" xmlns="http://www.w3.org/2000/svg" id="Medical-Instrument-Syringe-1--Streamline-Ultimate"><desc>Medical Instrument Syringe 1 Streamline Icon: https://streamlinehq.com</desc><path d="m7.894 19.038 -3.182 -3.182a1.5 1.5 0 0 1 0 -2.122l9.016 -9.015 5.3 5.3 -9.015 9.016a1.5 1.5 0 0 1 -2.119 0.003Z" fill="none" stroke="#000000" stroke-linecap="round" stroke-linejoin="round" stroke-width="1"></path><path d="m2.5913006667 19.0384101962 2.6516504294 -2.6516504295 2.1213203436 2.1213203436 -2.6516504295 2.6516504295z" fill="none" stroke="#000000" stroke-linecap="round" stroke-linejoin="round" stroke-width="1"></path><path d="m1 22.75 2.652 -2.652" fill="none" stroke="#000000" stroke-linecap="round" stroke-linejoin="round" stroke-width="1"></path><path d="m12.137 3.128 8.485 8.485" fill="none" stroke="#000000" stroke-linecap="round" stroke-linejoin="round" stroke-width="1"></path><path d="m15.3189705808 6.3096826586 3.7123106012 -3.7123106012 2.1213203436 2.1213203435 -3.7123106013 3.7123106012z" fill="none" stroke="#000000" stroke-linecap="round" stroke-linejoin="round" stroke-width="1"></path><path d="m17.44 1.006 5.304 5.304" fill="none" stroke="#000000" stroke-linecap="round" stroke-linejoin="round" stroke-width="1"></path><path d="m13.728 11.083 2.121 2.121" fill="none" stroke="#000000" stroke-linecap="round" stroke-linejoin="round" stroke-width="1"></path><path d="m10.546 14.265 2.121 2.121" fill="none" stroke="#000000" stroke-linecap="round" stroke-linejoin="round" stroke-width="1"></path></svg>