<svg viewBox="0 0 24 24" xmlns="http://www.w3.org/2000/svg" id="Medical-Instrument-Ambulance-Bed--Streamline-Ultimate"><desc>Medical Instrument Ambulance Bed Streamline Icon: https://streamlinehq.com</desc><path d="M21 12.747H6a2.251 2.251 0 0 1 -2.15 -1.588l-3 -7.5a2.25 2.25 0 0 1 4.3 -1.324l2.511 5.912H21a2.25 2.25 0 0 1 0 4.5Z" fill="none" stroke="#000000" stroke-linecap="round" stroke-linejoin="round" stroke-width="1"></path><path d="M3.75 21a2.25 2.25 0 1 0 4.5 0 2.25 2.25 0 1 0 -4.5 0Z" fill="none" stroke="#000000" stroke-linecap="round" stroke-linejoin="round" stroke-width="1"></path><path d="M18.75 21a2.25 2.25 0 1 0 4.5 0 2.25 2.25 0 1 0 -4.5 0Z" fill="none" stroke="#000000" stroke-linecap="round" stroke-linejoin="round" stroke-width="1"></path><path d="m8.25 21 10.5 0" fill="none" stroke="#000000" stroke-linecap="round" stroke-linejoin="round" stroke-width="1"></path><path d="m7.947 19.872 12.308 -7.125" fill="none" stroke="#000000" stroke-linecap="round" stroke-linejoin="round" stroke-width="1"></path><path d="M19.053 19.872 6.745 12.747" fill="none" stroke="#000000" stroke-linecap="round" stroke-linejoin="round" stroke-width="1"></path><path d="m8.25 1.5 1.5 3.75" fill="none" stroke="#000000" stroke-linecap="round" stroke-linejoin="round" stroke-width="1"></path></svg>