<svg xmlns="http://www.w3.org/2000/svg" fill="none" viewBox="0 0 24 24" id="Medical-Instrument-Stethoscope--Streamline-Ultimate"><desc>Medical Instrument Stethoscope Streamline Icon: https://streamlinehq.com</desc><path stroke="#000000" stroke-linecap="round" stroke-linejoin="round" d="M7.053 17.974c0.61395 -0.2137 1.21209 -0.4703 1.79 -0.768" stroke-width="1"></path><path stroke="#000000" stroke-linecap="round" stroke-linejoin="round" d="M4.174 23.25c1.89102 0 3.424 -1.533 3.424 -3.424s-1.53298 -3.424 -3.424 -3.424S0.75 17.935 0.75 19.826s1.53298 3.424 3.424 3.424Z" stroke-width="1"></path><path stroke="#000000" d="M4.185 20.315c-0.27614 0 -0.5 -0.2239 -0.5 -0.5s0.22386 -0.5 0.5 -0.5" stroke-width="1"></path><path stroke="#000000" d="M4.185 20.315c0.27614 0 0.5 -0.2239 0.5 -0.5s-0.22386 -0.5 -0.5 -0.5" stroke-width="1"></path><path stroke="#000000" stroke-linecap="round" stroke-linejoin="round" d="m21.157 22.291 -0.418 0.884 -5.005 -3.183c-0.4556 -0.2899 -0.7897 -0.7363 -0.9394 -1.2552 -0.1497 -0.5189 -0.1048 -1.0747 0.1264 -1.5628v0c0.2308 -0.4895 0.633 -0.8775 1.1305 -1.0907 0.4975 -0.2132 1.0558 -0.2368 1.5695 -0.0663l5.629 1.853 -0.419 0.884" stroke-width="1"></path><path stroke="#000000" stroke-linecap="round" stroke-linejoin="round" d="M13.6 14.045c2.6 -2.045 6.226 -5.43398 6.226 -8.37398 0 -5.365002 -6.733 -6.828 -8.8 -1.951 -2.076 -4.877 -8.809 -3.414002 -8.809 1.951 0 4.57998 8.446 10.00798 8.805 10.24198 1.151 0.754 3.285 1.663 3.838 1.4" stroke-width="1"></path></svg>