<svg xmlns="http://www.w3.org/2000/svg" fill="none" viewBox="0 0 24 24" id="Oxygen-Mask-Head-2--Streamline-Ultimate"><desc>Oxygen Mask Head 2 Streamline Icon: https://streamlinehq.com</desc><path stroke="#000000" stroke-linecap="round" stroke-linejoin="round" d="M22.5423 20.4823c-2.2186 -2.2186 -5.0644 -3.6657 -8.1206 -4.1688M1.45776 20.4823c2.21857 -2.2186 5.06435 -3.6657 8.12057 -4.1688" stroke-width="1"></path><path stroke="#000000" stroke-linecap="round" stroke-linejoin="round" d="M15.2811 15.3747c2.5706 -1.2269 4.3467 -3.8503 4.3467 -6.88857 0 -4.21322 -3.4155 -7.628708 -7.6287 -7.628708 -4.21325 0 -7.62874 3.415488 -7.62874 7.628708 0 3.03827 1.77611 5.66167 4.34667 6.88857" stroke-width="1"></path><path stroke="#000000" stroke-linecap="round" stroke-linejoin="round" d="M12.0005 17.123c2.2158 0 4.0121 -1.7963 4.0121 -4.0122v-0.983c0 -0.5043 -0.218 -0.984 -0.598 -1.3156l-2.2659 -1.97761c-0.6579 -0.5741 -1.6386 -0.5741 -2.2964 0l-2.266 1.97761c-0.37997 0.3316 -0.59802 0.8113 -0.59802 1.3156v0.983c0 2.2159 1.79631 4.0122 4.01222 4.0122Z" stroke-width="1"></path><path stroke="#000000" stroke-linecap="round" stroke-linejoin="round" d="M11.1609 12.4385h1.672" stroke-width="1"></path><path stroke="#000000" stroke-linecap="round" stroke-linejoin="round" d="m14.4695 9.87639 5.0745 -2.04387" stroke-width="1"></path><path stroke="#000000" stroke-linecap="round" stroke-linejoin="round" d="M9.65646 9.87639 4.58201 7.83252" stroke-width="1"></path><path stroke="#000000" stroke-linecap="round" stroke-linejoin="round" d="m12.0313 17.1406 0 3.015c0 0.8147 -0.3393 2.41 -2.27398 2.987" stroke-width="1"></path></svg>