<svg xmlns="http://www.w3.org/2000/svg" fill="none" viewBox="0 0 24 24" id="Oxygen-Mask--Streamline-Ultimate"><desc>Oxygen Mask Streamline Icon: https://streamlinehq.com</desc><path stroke="#000000" stroke-linecap="round" stroke-linejoin="round" d="M5.48515 13.0922C2.68756 11.937 0.867188 10.0574 0.867188 7.93493c0 -3.51211 4.984362 -6.35925 11.132912 -6.35925 6.1485 0 11.1329 2.84714 11.1329 6.35925 0 2.12247 -1.8204 4.00207 -4.618 5.15727" stroke-width="1"></path><path stroke="#000000" stroke-linecap="round" stroke-linejoin="round" d="M12.0002 20.2871c3.5938 0 6.5071 -2.9133 6.5071 -6.5071v-1.3049c0 -1.0018 -0.4331 -1.9547 -1.1879 -2.61343l-3.0383 -2.65162c-1.3067 -1.14043 -3.255 -1.14043 -4.5617 0L6.6811 9.86167c-0.7548 0.65873 -1.18794 1.61163 -1.18794 2.61343V13.78c0 3.5938 2.91332 6.5071 6.50704 6.5071Z" stroke-width="1"></path><path stroke="#000000" stroke-linecap="round" stroke-linejoin="round" d="m11.0715 12.7532 1.8569 0c0.5528 0 1.0007 0.4485 1 1.0013l-0.0044 3.4391 -3.8481 0 -0.0044 -3.4391c-0.0007 -0.5528 0.4472 -1.0013 1 -1.0013Z" stroke-width="1"></path><path stroke="#000000" stroke-linecap="round" stroke-linejoin="round" d="m11.9969 17.1935 0 3.9305c0 0.9608 -0.5466 1.7673 -0.8199 2.0504" stroke-width="1"></path><path stroke="#000000" stroke-linecap="round" stroke-linejoin="round" d="M11.1663 9.65649h1.6607" stroke-width="1"></path></svg>