<svg xmlns="http://www.w3.org/2000/svg" fill="none" viewBox="0 0 24 24" id="Oxygen-Tank-Timer--Streamline-Ultimate"><desc>Oxygen Tank Timer Streamline Icon: https://streamlinehq.com</desc><path stroke="#000000" stroke-linecap="round" stroke-linejoin="round" d="m8.96485 8.49994 0.00434 -3.61955c0.00058 -0.47905 -0.38761 -0.86769 -0.86666 -0.86769l-3.16837 0c-0.47904 0 -0.86723 0.38864 -0.86665 0.86769l0.00434 3.61955" stroke-width="1"></path><path stroke="#000000" stroke-linecap="round" stroke-linejoin="round" d="m5.83187 8.01929 1.3722 0c1.91567 0 3.46823 1.55378 3.46663 3.46941l-0.0081 9.8803c-0.0007 0.9567 -0.77653 1.7319 -1.73327 1.7319H4.1066c-0.95673 0 -1.73253 -0.7752 -1.73331 -1.7319l-0.00805 -9.8803C2.36368 9.57307 3.9162 8.01929 5.83187 8.01929Z" stroke-width="1"></path><path stroke="#000000" stroke-linecap="round" stroke-linejoin="round" d="m2.36206 12.7446 8.31134 0" stroke-width="1"></path><path stroke="#000000" stroke-linecap="round" stroke-linejoin="round" d="m8.97021 5.56934 4.55929 0" stroke-width="1"></path><path stroke="#000000" stroke-linecap="round" stroke-linejoin="round" d="m4.96069 0.89917 3.11353 0" stroke-width="1"></path><path stroke="#000000" stroke-linecap="round" stroke-linejoin="round" d="m2.36206 19.1648 8.31134 0" stroke-width="1"></path><path stroke="#000000" stroke-linecap="round" stroke-linejoin="round" d="M17.5837 9.62402c2.2391 0 4.0542 -1.81513 4.0542 -4.0542s-1.8151 -4.0542 -4.0542 -4.0542c-2.239 0 -4.0542 1.81513 -4.0542 4.0542s1.8152 4.0542 4.0542 4.0542Z" stroke-width="1"></path><path stroke="#000000" stroke-linecap="round" stroke-linejoin="round" d="M17.5835 4.0127v1.67068h1.5493" stroke-width="1"></path><path stroke="#000000" stroke-linecap="round" stroke-linejoin="round" d="m6.51746 4.0127 0 -3.092925" stroke-width="1"></path></svg>