<svg xmlns="http://www.w3.org/2000/svg" fill="none" viewBox="0 0 24 24" id="Doctor-Home-Visit-2--Streamline-Ultimate"><desc>Doctor Home Visit 2 Streamline Icon: https://streamlinehq.com</desc><path stroke="#000000" stroke-linecap="round" stroke-linejoin="round" d="M15.2649 14.5719c1.6834 0 3.0481 -1.3647 3.0481 -3.0481 0 -1.6835 -1.3647 -3.04821 -3.0481 -3.04821 -1.6835 0 -3.0482 1.36471 -3.0482 3.04821 0 1.6834 1.3647 3.0481 3.0482 3.0481Z" stroke-width="1"></path><path stroke="#000000" stroke-linecap="round" stroke-linejoin="round" d="M15.2646 23.1066h5.4867v-0.661c-0.0097 -0.9293 -0.2548 -1.841 -0.7123 -2.65 -0.4576 -0.8089 -1.1128 -1.4887 -1.9043 -1.9757 -0.7915 -0.4871 -1.6936 -0.7657 -2.6219 -0.8096 -0.0828 -0.0039 -0.1655 -0.006 -0.2482 -0.0061 -0.0826 0.0001 -0.1654 0.0022 -0.2481 0.0061" stroke-width="1"></path><path stroke="#000000" stroke-linecap="round" stroke-linejoin="round" d="M0.83732 12.5738v-0.7197c-0.001616 -0.2389 0.046504 -0.4754 0.141298 -0.6946 0.094792 -0.2192 0.234182 -0.4163 0.409302 -0.5787L12.0214 0.773193 22.6549 10.5808c0.1751 0.1624 0.3145 0.3595 0.4093 0.5787s0.1429 0.4557 0.1413 0.6946v6.756" stroke-width="1"></path><path stroke="#000000" stroke-linecap="round" stroke-linejoin="round" d="M4.30595 15.3008c-0.14212 -0.3007 -0.2216 -0.6369 -0.2216 -0.9917 0 -1.2835 1.0405 -2.324 2.32403 -2.324s2.32403 1.0405 2.32403 2.324c0 0.3548 -0.07948 0.691 -0.2216 0.9917" stroke-width="1"></path><path stroke="#000000" stroke-linecap="round" stroke-linejoin="round" d="m2.54149 15.2849 7.73291 0c0.9642 0 1.7453 0.7828 1.7433 1.747l-0.0093 4.4553c-0.002 0.9614 -0.7819 1.7397 -1.7433 1.7397l-7.7143 0c-0.9614 0 -1.741322 -0.7783 -1.743331 -1.7397l-0.009311 -4.4553c-0.002015 -0.9642 0.779092 -1.747 1.743332 -1.747Z" stroke-width="1"></path><path stroke="#000000" stroke-linecap="round" stroke-linejoin="round" d="M6.4082 17.6353v3.241" stroke-width="1"></path><path stroke="#000000" stroke-linecap="round" stroke-linejoin="round" d="m8.02832 19.2561 -3.24102 0" stroke-width="1"></path></svg>