<svg xmlns="http://www.w3.org/2000/svg" fill="none" viewBox="0 0 24 24" id="Doctor-Visit--Streamline-Ultimate"><desc>Doctor Visit Streamline Icon: https://streamlinehq.com</desc><path stroke="#000000" stroke-linecap="round" stroke-linejoin="round" d="M16.8651 7.72631c1.8882 0 3.4188 -1.53066 3.4188 -3.41882 0 -1.88816 -1.5306 -3.418818 -3.4188 -3.418818S13.4463 2.41933 13.4463 4.30749c0 1.88816 1.5306 3.41882 3.4188 3.41882Z" stroke-width="1"></path><path stroke="#000000" stroke-linecap="round" stroke-linejoin="round" d="M16.2916 23.111h3.1379l0.8547 -6.8376h2.5641v-2.5642c0 -1.5867 -0.6304 -3.1085 -1.7524 -4.23052 -1.122 -1.12202 -2.6438 -1.75236 -4.2306 -1.75236 -1.5867 0 -3.1085 0.63034 -4.2305 1.75236 -0.3139 0.31386 -0.5893 0.65902 -0.8232 1.02812" stroke-width="1"></path><path stroke="#000000" stroke-linecap="round" stroke-linejoin="round" d="M9.32979 14.7136c0.15243 -0.3204 0.23774 -0.6789 0.23774 -1.0573 0 -1.3608 -1.10315 -2.4639 -2.46394 -2.4639 -1.3608 0 -2.46394 1.1031 -2.46394 2.4639 0 0.3784 0.08531 0.7369 0.23774 1.0573" stroke-width="1"></path><path stroke="#000000" stroke-linecap="round" stroke-linejoin="round" d="m2.86495 14.6909 8.47675 0c0.9455 0 1.7114 0.7675 1.7094 1.713l-0.0104 5.0013c-0.002 0.9427 -0.7668 1.7058 -1.7095 1.7058l-8.4558 0c-0.94268 0 -1.70743 -0.7631 -1.7094 -1.7058l-0.01045 -5.0013c-0.00198 -0.9455 0.76393 -1.713 1.7094 -1.713Z" stroke-width="1"></path><path stroke="#000000" stroke-linecap="round" stroke-linejoin="round" d="M7.104 17.1831v3.4361" stroke-width="1"></path><path stroke="#000000" stroke-linecap="round" stroke-linejoin="round" d="m8.82178 18.9009 -3.43613 0" stroke-width="1"></path></svg>