<svg xmlns="http://www.w3.org/2000/svg" viewBox="0 0 24 24" id="Hospital-Post-Care-1--Streamline-Ultimate"><desc>Hospital Post Care 1 Streamline Icon: https://streamlinehq.com</desc><defs></defs><title>hospital-post-care-1</title><path d="M23.25 7a0.5 0.5 0 0 0 -0.5 -0.5H16.5V1.25a0.5 0.5 0 0 0 -0.5 -0.5H8a0.5 0.5 0 0 0 -0.5 0.5V6.5H1.25a0.5 0.5 0 0 0 -0.5 0.5v10a0.5 0.5 0 0 0 0.5 0.5H7.5v5.25a0.5 0.5 0 0 0 0.5 0.5h8a0.5 0.5 0 0 0 0.5 -0.5V17.5h6.25a0.5 0.5 0 0 0 0.5 -0.5Z" fill="none" stroke="#000000" stroke-linecap="round" stroke-linejoin="round" stroke-width="1"></path><path d="M16.5 12.75h-3V12a3 3 0 0 1 3 -3v6" fill="none" stroke="#000000" stroke-linecap="round" stroke-linejoin="round" stroke-width="1"></path><path d="M7.5 10.5A1.5 1.5 0 0 1 9 9h0a1.5 1.5 0 0 1 1.5 1.5h0a2.134 2.134 0 0 1 -0.469 1.336L7.5 15h3" fill="none" stroke="#000000" stroke-linecap="round" stroke-linejoin="round" stroke-width="1"></path></svg>