<svg xmlns="http://www.w3.org/2000/svg" fill="none" viewBox="0 0 24 24" id="Hospital-Quiet-2--Streamline-Ultimate"><desc>Hospital Quiet 2 Streamline Icon: https://streamlinehq.com</desc><path stroke="#000000" stroke-linecap="round" stroke-linejoin="round" d="M12 23.25c6.2132 0 11.25 -5.0368 11.25 -11.25S18.2132 0.75 12 0.75 0.75 5.7868 0.75 12 5.7868 23.25 12 23.25Z" stroke-width="1"></path><path stroke="#000000" stroke-linecap="round" stroke-linejoin="round" d="m16.323 14.0111 -2.421 -2.421L12 13.4921l-1.902 -1.902 -2.421 2.421 1.902 1.902 -1.902 1.902 2.421 2.421L12 18.3341l1.902 1.902 2.421 -2.421 -1.902 -1.902 1.902 -1.902Z" stroke-width="1"></path><path stroke="#000000" d="M7.587 9.57593c-0.27614 0 -0.5 -0.22386 -0.5 -0.5s0.22386 -0.5 0.5 -0.5" stroke-width="1"></path><path stroke="#000000" d="M7.587 9.57593c0.27614 0 0.5 -0.22386 0.5 -0.5s-0.22386 -0.5 -0.5 -0.5" stroke-width="1"></path><path stroke="#000000" d="M16.4 9.55396c-0.2761 0 -0.5 -0.22386 -0.5 -0.5 0 -0.27615 0.2239 -0.5 0.5 -0.5" stroke-width="1"></path><path stroke="#000000" d="M16.4 9.55396c0.2761 0 0.5 -0.22386 0.5 -0.5 0 -0.27615 -0.2239 -0.5 -0.5 -0.5" stroke-width="1"></path><path stroke="#000000" stroke-linecap="round" stroke-linejoin="round" d="m5.152 7.1091 2.935 -1.957" stroke-width="1"></path><path stroke="#000000" stroke-linecap="round" stroke-linejoin="round" d="m18.848 7.1091 -2.935 -1.957" stroke-width="1"></path></svg>