<svg xmlns="http://www.w3.org/2000/svg" fill="none" viewBox="0 0 24 24" id="Scheduled-Phone-Call--Streamline-Ultimate"><desc>Scheduled Phone Call Streamline Icon: https://streamlinehq.com</desc><path stroke="#000000" stroke-linecap="round" stroke-linejoin="round" d="M14.5025 22.7319c-0.8346 0.353 -1.7599 0.4312 -2.642 0.2232 -0.882 -0.2079 -1.6749 -0.6912 -2.26394 -1.3799l-0.61822 -0.6182c-0.26894 -0.2159 -0.44401 -0.5273 -0.48861 -0.8693 -0.04461 -0.3419 0.04472 -0.6879 0.2493 -0.9655l1.99427 -1.9943c0.2776 -0.2045 0.6236 -0.2939 0.9655 -0.2493s0.6534 0.2197 0.8692 0.4887c0.2159 0.2689 0.5273 0.444 0.8693 0.4886 0.3419 0.0446 0.6879 -0.0448 0.9655 -0.2493l3.1908 -3.1909c0.2046 -0.2776 0.2939 -0.6235 0.2493 -0.9655 -0.0446 -0.3419 -0.2197 -0.6534 -0.4886 -0.8692s-0.444 -0.5273 -0.4886 -0.8692c-0.0446 -0.342 0.0447 -0.6879 0.2493 -0.9655l1.9943 -1.99432c0.2776 -0.20457 0.6235 -0.2939 0.9655 -0.2493 0.3419 0.0446 0.6534 0.21968 0.8692 0.48862l0.6182 0.61822c0.6861 0.59088 1.1676 1.38378 1.3754 2.26508 0.2078 0.8813 0.1312 1.8057 -0.2187 2.6408 -2.0222 3.3723 -4.8442 6.1943 -8.2164 8.2165Z" stroke-width="1"></path><path stroke="#000000" stroke-linecap="round" stroke-linejoin="round" d="M6.58411 4.92837c0.40831 -2.21539 2.34984 -3.8937 4.68339 -3.8937 2.6302 0 4.7624 2.1322 4.7624 4.7624 0 2.12176 -1.3876 3.91945 -3.3048 4.53513" stroke-width="1"></path><path stroke="#000000" stroke-linecap="round" stroke-linejoin="round" d="M11.307 3.82324v2.13425h1.7221" stroke-width="1"></path><path stroke="#000000" stroke-linecap="round" stroke-linejoin="round" d="m3.8287 7.59229 3.26662 0 0 2.77441h2.77441v3.2666H7.09532l0.00001 2.7743H3.8287v-2.7743H1.05444v-3.2666H3.8287V7.59229Z" stroke-width="1"></path></svg>