<svg xmlns="http://www.w3.org/2000/svg" viewBox="0 0 24 24" id="Waiting-Room-Appointment-Medical-Appointment-1--Streamline-Ultimate"><desc>Waiting Room Appointment Medical Appointment 1 Streamline Icon: https://streamlinehq.com</desc><defs></defs><title>waiting-room-appointment-medical-appointment-1</title><path d="M8.243 17.25h-6a1.5 1.5 0 0 1 -1.5 -1.5h0V3.765a1.5 1.5 0 0 1 1.5 -1.5h13.5a1.5 1.5 0 0 1 1.5 1.5h0V8.25" stroke-linecap="round" fill="none" stroke="#000000" stroke-linejoin="round" stroke-width="1"></path><path d="m0.743 6.75 16.5 0" fill="none" stroke="#000000" stroke-linejoin="round" stroke-width="1"></path><path d="m5.236 3.75 0 -3" stroke-linecap="round" fill="none" stroke="#000000" stroke-linejoin="round" stroke-width="1"></path><path d="m12.736 3.75 0 -3" stroke-linecap="round" fill="none" stroke="#000000" stroke-linejoin="round" stroke-width="1"></path><path d="M23.257 15.917a0.667 0.667 0 0 0 -0.667 -0.667h-3.333v-3.333a0.667 0.667 0 0 0 -0.667 -0.667h-2.666a0.666 0.666 0 0 0 -0.667 0.667v3.333h-3.333a0.666 0.666 0 0 0 -0.667 0.667v2.666a0.666 0.666 0 0 0 0.667 0.667h3.333v3.333a0.666 0.666 0 0 0 0.667 0.667h2.666a0.667 0.667 0 0 0 0.667 -0.667V19.25h3.333a0.667 0.667 0 0 0 0.667 -0.667Z" stroke-linecap="round" fill="none" stroke="#000000" stroke-linejoin="round" stroke-width="1"></path></svg>