<svg xmlns="http://www.w3.org/2000/svg" viewBox="0 0 24 24" id="Avatar-Diver--Streamline-Ultimate"><desc>Avatar Diver Streamline Icon: https://streamlinehq.com</desc><defs></defs><path d="M18.5 15.983a9.723 9.723 0 0 1 3.25 7.267" fill="none" stroke="#000000" stroke-linecap="round" stroke-linejoin="round" stroke-width="1"></path><path d="M20 0.75V6.5a2.006 2.006 0 0 1 -2 2h-5a1 1 0 0 1 -1 -1 1 1 0 0 1 -1 1H8a2 2 0 0 1 -2 -2v-0.964a1 1 0 0 1 1 -1h9.95" fill="none" stroke="#000000" stroke-linecap="round" stroke-linejoin="round" stroke-width="1"></path><path d="M15.5 15.435a4 4 0 0 1 -7 0" fill="none" stroke="#000000" stroke-linecap="round" stroke-linejoin="round" stroke-width="1"></path><path d="M5.5 23.25V14.5a1.5 1.5 0 0 1 3 0v8.75" fill="none" stroke="#000000" stroke-linecap="round" stroke-linejoin="round" stroke-width="1"></path><path d="M18.5 23.25V14.5a1.5 1.5 0 0 0 -3 0v8.75" fill="none" stroke="#000000" stroke-linecap="round" stroke-linejoin="round" stroke-width="1"></path><path d="M2.25 23.25a9.723 9.723 0 0 1 3.25 -7.267" fill="none" stroke="#000000" stroke-linecap="round" stroke-linejoin="round" stroke-width="1"></path><path d="M8.461 14.162a9.791 9.791 0 0 1 7.078 0" fill="none" stroke="#000000" stroke-linecap="round" stroke-linejoin="round" stroke-width="1"></path><path d="M17.227 5.753A5.251 5.251 0 0 0 7.3 3.905" fill="none" stroke="#000000" stroke-linecap="round" stroke-linejoin="round" stroke-width="1"></path><path d="M7.175 8.322A5.251 5.251 0 0 0 12 11.5" fill="none" stroke="#000000" stroke-linecap="round" stroke-linejoin="round" stroke-width="1"></path></svg>