<svg xmlns="http://www.w3.org/2000/svg" fill="none" viewBox="0 0 24 24" id="Avatar-Royal-Soldier--Streamline-Ultimate"><desc>Avatar Royal Soldier Streamline Icon: https://streamlinehq.com</desc><path stroke="#000000" stroke-linecap="round" stroke-linejoin="round" d="M8.09131 11.0297v0.2618c-0.00077 0.5248 0.10564 1.0442 0.3127 1.5264 0.30036 0.7051 0.80138 1.3063 1.44074 1.7289 0.63935 0.4226 1.38885 0.6479 2.15525 0.6479 0.7664 0 1.5159 -0.2253 2.1552 -0.6479 0.6394 -0.4226 1.1404 -1.0238 1.4408 -1.7289 0.207 -0.4822 0.3134 -1.0016 0.3127 -1.5264v-0.2618" stroke-width="1"></path><path stroke="#000000" stroke-linecap="round" stroke-linejoin="round" d="M7.60272 11.0296V5.73438c-0.04331 -1.21056 0.39532 -2.38887 1.21968 -3.27643C9.64676 1.57039 10.7895 1.04606 12 1c1.2103 0.04632 2.353 0.57072 3.1773 1.45822 0.8243 0.8875 1.263 2.06567 1.2199 3.27616v5.29522H7.60272Z" stroke-width="1"></path><path stroke="#000000" stroke-linecap="round" stroke-linejoin="round" d="M21.1512 23c-0.8573 -1.6908 -2.1662 -3.111 -3.7816 -4.1031 -1.6153 -0.9921 -3.4739 -1.5173 -5.3696 -1.5173 -1.8957 0 -3.7543 0.5252 -5.36965 1.5173C5.015 19.889 3.70609 21.3092 2.84882 23" stroke-width="1"></path><path stroke="#000000" d="M12 21.028c-0.2024 0 -0.3665 -0.164 -0.3665 -0.3664s0.1641 -0.3664 0.3665 -0.3664" stroke-width="1"></path><path stroke="#000000" d="M12 21.028c0.2024 0 0.3664 -0.164 0.3664 -0.3664s-0.164 -0.3664 -0.3664 -0.3664" stroke-width="1"></path><path stroke="#000000" stroke-linecap="round" stroke-linejoin="round" d="M6.38126 23v-3.9438" stroke-width="1"></path><path stroke="#000000" stroke-linecap="round" stroke-linejoin="round" d="M4.91552 20.0685V9.80823h-0.97717" stroke-width="1"></path><path stroke="#000000" stroke-linecap="round" stroke-linejoin="round" d="M17.6187 22.914v-0.6762" stroke-width="1"></path></svg>