<svg xmlns="http://www.w3.org/2000/svg" fill="none" viewBox="0 0 24 24" id="Avatar-Jockey-Man--Streamline-Ultimate"><desc>Avatar Jockey Man Streamline Icon: https://streamlinehq.com</desc><path stroke="#000000" stroke-linecap="round" stroke-linejoin="round" d="M17.3 6.70002c-1.4699 1.24158 -3.3261 1.9328 -5.25 1.955 -1.9239 -0.0222 -3.78014 -0.71342 -5.25 -1.955 1.4678 -1.24622 3.3247 -1.94086 5.25 -1.964 1.9254 0.02314 3.7822 0.71778 5.25 1.964v0Z" stroke-width="1"></path><path stroke="#000000" stroke-linecap="round" stroke-linejoin="round" d="M15.93 16.57c1.3565 0.598 2.5593 1.4966 3.5173 2.6279 0.9581 1.1313 1.6463 2.4656 2.0127 3.9021" stroke-width="1"></path><path stroke="#000000" stroke-linecap="round" stroke-linejoin="round" d="M2.53999 23.16c0.36194 -1.4542 1.05341 -2.8058 2.02095 -3.9502 0.96755 -1.1444 2.18527 -2.051 3.55905 -2.6498" stroke-width="1"></path><path stroke="#000000" stroke-linecap="round" stroke-linejoin="round" d="M6.8 6.32897c-0.03094 -0.70872 0.08194 -1.41636 0.33182 -2.08028 0.24989 -0.66392 0.63161 -1.27038 1.12217 -1.78282 0.49055 -0.51243 1.07978 -0.92024 1.73218 -1.19885C10.6386 0.988418 11.3406 0.844788 12.05 0.844788c0.7094 0 1.4114 0.14363 2.0638 0.422232 0.6524 0.27861 1.2417 0.68642 1.7322 1.19885 0.4906 0.51244 0.8723 1.1189 1.1222 1.78282 0.2499 0.66392 0.3627 1.37156 0.3318 2.08028v1.881c0 1.39239 -0.5531 2.72773 -1.5377 3.71233 -0.9846 0.9845 -2.3199 1.5377 -3.7123 1.5377 -1.3924 0 -2.72775 -0.5532 -3.71231 -1.5377C7.35312 10.9377 6.8 9.60236 6.8 8.20997v-1.881Z" stroke-width="1"></path><path stroke="#000000" stroke-linecap="round" stroke-linejoin="round" d="m15.93 16.57 -3.88 2.39 -3.93 -2.4" stroke-width="1"></path><path stroke="#000000" stroke-linecap="round" stroke-linejoin="round" d="M10.3 1.125v3.734" stroke-width="1"></path><path stroke="#000000" stroke-linecap="round" stroke-linejoin="round" d="M13.8 1.125v3.734" stroke-width="1"></path><path stroke="#000000" stroke-linecap="round" stroke-linejoin="round" d="m12.05 18.96 -3 2.174 -3.371 -3.046" stroke-width="1"></path><path stroke="#000000" stroke-linecap="round" stroke-linejoin="round" d="m11.955 18.96 3 2.174 3.387 -3.046" stroke-width="1"></path><path stroke="#000000" d="M12 22.844c-0.2071 0 -0.375 -0.1679 -0.375 -0.375s0.1679 -0.375 0.375 -0.375" stroke-width="1"></path><path stroke="#000000" d="M12 22.844c0.2071 0 0.375 -0.1679 0.375 -0.375s-0.1679 -0.375 -0.375 -0.375" stroke-width="1"></path></svg>