<svg xmlns="http://www.w3.org/2000/svg" viewBox="0 0 24 24" id="Avatar-Farmer-Man-2--Streamline-Ultimate"><desc>Avatar Farmer Man 2 Streamline Icon: https://streamlinehq.com</desc><defs></defs><path d="M6.7 8.7a5.255 5.255 0 1 0 10.212 0.07" fill="none" stroke="#000000" stroke-linecap="round" stroke-linejoin="round" stroke-width="1"></path><path d="M3.179 23.175a9.754 9.754 0 0 1 17.642 0.049" fill="none" stroke="#000000" stroke-linecap="round" stroke-linejoin="round" stroke-width="1"></path><path d="M5.815 8.358a0.5 0.5 0 0 0 0.763 0.419 9.681 9.681 0 0 1 10.472 0.077 0.5 0.5 0 0 0 0.77 -0.428l-0.02 -0.078a5.982 5.982 0 0 0 -4.286 -5.722v-0.135a1.715 1.715 0 1 0 -3.429 0v0.135A5.982 5.982 0 0 0 5.8 8.348Z" fill="none" stroke="#000000" stroke-linecap="round" stroke-linejoin="round" stroke-width="1"></path><path d="m7.8 17.929 0 5" fill="none" stroke="#000000" stroke-linecap="round" stroke-linejoin="round" stroke-width="1"></path><path d="m16.3 17.929 0 5" fill="none" stroke="#000000" stroke-linecap="round" stroke-linejoin="round" stroke-width="1"></path><path d="m7.8 21.929 8.5 0" fill="none" stroke="#000000" stroke-linecap="round" stroke-linejoin="round" stroke-width="1"></path><path d="M16.742 11.763c-3.043 0.413 -6.412 -1.658 -7.989 -4" fill="none" stroke="#000000" stroke-linecap="round" stroke-linejoin="round" stroke-width="1"></path></svg>