<svg xmlns="http://www.w3.org/2000/svg" viewBox="0 0 24 24" id="Avatar-Soldier-1--Streamline-Ultimate"><desc>Avatar Soldier 1 Streamline Icon: https://streamlinehq.com</desc><defs></defs><path d="M6.9 7.742v0.57a5.25 5.25 0 0 0 10.5 0v-0.57" fill="none" stroke="#000000" stroke-linecap="round" stroke-linejoin="round" stroke-width="1"></path><path d="m15.05 16.258 -2.9 3.72 -2.89 -3.72" fill="none" stroke="#000000" stroke-linecap="round" stroke-linejoin="round" stroke-width="1"></path><path d="M21.6 23.158a9.831 9.831 0 0 0 -3.96 -5.66 9.373 9.373 0 0 0 -2.59 -1.24" fill="none" stroke="#000000" stroke-linecap="round" stroke-linejoin="round" stroke-width="1"></path><path d="M9.26 16.258a9.3 9.3 0 0 0 -2.6 1.24 9.807 9.807 0 0 0 -3.97 5.69" fill="none" stroke="#000000" stroke-linecap="round" stroke-linejoin="round" stroke-width="1"></path><path d="M5.22 7.742a6.93 6.93 0 1 1 13.86 0Z" fill="none" stroke="#000000" stroke-linecap="round" stroke-linejoin="round" stroke-width="1"></path><path d="m6.66 17.498 0.615 1.229 1.875 3.751 3 -2.5" fill="none" stroke="#000000" stroke-linecap="round" stroke-linejoin="round" stroke-width="1"></path><path d="m9.26 16.258 -0.01 -0.01" fill="none" stroke="#000000" stroke-linecap="round" stroke-linejoin="round" stroke-width="1"></path><path d="m6.431 3.829 4.421 0" fill="none" stroke="#000000" stroke-linecap="round" stroke-linejoin="round" stroke-width="1"></path><path d="M14.65 4.978h3.855" fill="none" stroke="#000000" stroke-linecap="round" stroke-linejoin="round" stroke-width="1"></path><path d="m17.64 17.498 -0.38 0.76 -2.11 4.22 -3 -2.5" fill="none" stroke="#000000" stroke-linecap="round" stroke-linejoin="round" stroke-width="1"></path><path d="m15.05 16.258 0 -0.01" fill="none" stroke="#000000" stroke-linecap="round" stroke-linejoin="round" stroke-width="1"></path><path d="m3.4 21.228 0 -10.5 -1 0" fill="none" stroke="#000000" stroke-linecap="round" stroke-linejoin="round" stroke-width="1"></path><path d="M6.4 14.937a2.75 2.75 0 0 0 -2.75 -2.75H3.4" fill="none" stroke="#000000" stroke-linecap="round" stroke-linejoin="round" stroke-width="1"></path></svg>