<svg xmlns="http://www.w3.org/2000/svg" viewBox="0 0 24 24" id="Avatar-Soccer-Player--Streamline-Ultimate"><desc>Avatar Soccer Player Streamline Icon: https://streamlinehq.com</desc><defs></defs><path d="M8.125 6a5.25 5.25 0 1 0 10.5 0 5.25 5.25 0 1 0 -10.5 0" fill="none" stroke="#000000" stroke-linecap="round" stroke-linejoin="round" stroke-width="1"></path><path d="M8.851 3.335A8.714 8.714 0 0 0 15.125 6a8.725 8.725 0 0 0 3.452 -0.71" fill="none" stroke="#000000" stroke-linecap="round" stroke-linejoin="round" stroke-width="1"></path><path d="M14.356 16.9a4.991 4.991 0 0 0 3.344 -2.39h0a9.76 9.76 0 0 1 5.43 8.74" fill="none" stroke="#000000" stroke-linecap="round" stroke-linejoin="round" stroke-width="1"></path><path d="M0.875 17.75a5.25 5.25 0 1 0 10.5 0 5.25 5.25 0 1 0 -10.5 0" fill="none" stroke="#000000" stroke-linecap="round" stroke-linejoin="round" stroke-width="1"></path><path d="m4.527 15.696 -0.685 2.739 2.283 1.598 2.283 -1.598 -0.685 -2.739 -3.196 0z" fill="none" stroke="#000000" stroke-linecap="round" stroke-linejoin="round" stroke-width="1"></path><path d="m6.125 20.033 0 2.967" fill="none" stroke="#000000" stroke-linecap="round" stroke-linejoin="round" stroke-width="1"></path><path d="M3.888 18.467 1.4 20.042" fill="none" stroke="#000000" stroke-linecap="round" stroke-linejoin="round" stroke-width="1"></path><path d="m8.362 18.466 2.489 1.573" fill="none" stroke="#000000" stroke-linecap="round" stroke-linejoin="round" stroke-width="1"></path><path d="m7.728 15.715 1.992 -1.788" fill="none" stroke="#000000" stroke-linecap="round" stroke-linejoin="round" stroke-width="1"></path><path d="M4.522 15.715 2.53 13.926" fill="none" stroke="#000000" stroke-linecap="round" stroke-linejoin="round" stroke-width="1"></path></svg>