<svg xmlns="http://www.w3.org/2000/svg" viewBox="0 0 24 24" id="Avatar-Wrestler-2--Streamline-Ultimate"><desc>Avatar Wrestler 2 Streamline Icon: https://streamlinehq.com</desc><defs></defs><path d="M6.255 6.495a5.745 5.745 0 1 0 11.49 0 5.745 5.745 0 1 0 -11.49 0" fill="none" stroke="#000000" stroke-linecap="round" stroke-linejoin="round" stroke-width="1"></path><path d="M3.073 23.227a8.927 8.927 0 0 1 17.854 0" fill="none" stroke="#000000" stroke-linecap="round" stroke-linejoin="round" stroke-width="1"></path><path d="m8.991 5.975 0.82 0.274" fill="none" stroke="#000000" stroke-linecap="round" stroke-linejoin="round" stroke-width="1"></path><path d="m14.189 6.249 0.82 -0.274" fill="none" stroke="#000000" stroke-linecap="round" stroke-linejoin="round" stroke-width="1"></path><path d="M9.811 11.808v-1.182a2.189 2.189 0 1 1 4.378 0v1.182" fill="none" stroke="#000000" stroke-linecap="round" stroke-linejoin="round" stroke-width="1"></path><path d="m7.193 20.961 0 2.289" fill="none" stroke="#000000" stroke-linecap="round" stroke-linejoin="round" stroke-width="1"></path><path d="m16.807 20.961 0 2.289" fill="none" stroke="#000000" stroke-linecap="round" stroke-linejoin="round" stroke-width="1"></path><path d="M4.675 18.443S9.711 14.781 12 18.9" fill="none" stroke="#000000" stroke-linecap="round" stroke-linejoin="round" stroke-width="1"></path><path d="M19.325 18.443S14.289 14.781 12 18.9l-1.373 1.373" fill="none" stroke="#000000" stroke-linecap="round" stroke-linejoin="round" stroke-width="1"></path><path d="M13.373 20.274 12 18.901" fill="none" stroke="#000000" stroke-linecap="round" stroke-linejoin="round" stroke-width="1"></path></svg>