<svg xmlns="http://www.w3.org/2000/svg" viewBox="0 0 24 24" id="Avatar-Farmer-Man-3--Streamline-Ultimate"><desc>Avatar Farmer Man 3 Streamline Icon: https://streamlinehq.com</desc><defs></defs><path d="M6.774 7.007v1.335a5.25 5.25 0 0 0 10.5 0V7.027" fill="none" stroke="#000000" stroke-linecap="round" stroke-linejoin="round" stroke-width="1"></path><path d="M6.51 7.182v-4.46a2.006 2.006 0 0 1 2 -2h7a2.006 2.006 0 0 1 2 2v4.46" fill="none" stroke="#000000" stroke-linecap="round" stroke-linejoin="round" stroke-width="1"></path><path d="M5.51 7.972a9.7 9.7 0 0 1 13 0" fill="none" stroke="#000000" stroke-linecap="round" stroke-linejoin="round" stroke-width="1"></path><path d="M2.5 23.241a9.753 9.753 0 0 1 19 0.037" fill="none" stroke="#000000" stroke-linecap="round" stroke-linejoin="round" stroke-width="1"></path><path d="M7 23.222v-1a1 1 0 0 1 1 -1h8a1 1 0 0 1 1 1v1" fill="none" stroke="#000000" stroke-linecap="round" stroke-linejoin="round" stroke-width="1"></path><path d="m7.996 15.722 0 5.5" fill="none" stroke="#000000" stroke-linecap="round" stroke-linejoin="round" stroke-width="1"></path><path d="m15.996 15.722 0 5.5" fill="none" stroke="#000000" stroke-linecap="round" stroke-linejoin="round" stroke-width="1"></path></svg>