<svg xmlns="http://www.w3.org/2000/svg" viewBox="0 0 24 24" id="Avatar-Referee--Streamline-Ultimate"><desc>Avatar Referee Streamline Icon: https://streamlinehq.com</desc><defs></defs><path d="M2.25 23.243A9.755 9.755 0 0 1 9 13.964l3 2.529 3 -2.53a9.754 9.754 0 0 1 6.751 9.28" fill="none" stroke="#000000" stroke-linecap="round" stroke-linejoin="round" stroke-width="1"></path><path d="m12 23.243 0 -6.75" fill="none" stroke="#000000" stroke-linecap="round" stroke-linejoin="round" stroke-width="1"></path><path d="M6.75 5.993a5.25 5.25 0 1 0 10.5 0 5.25 5.25 0 1 0 -10.5 0" fill="none" stroke="#000000" stroke-linecap="round" stroke-linejoin="round" stroke-width="1"></path><path d="M7.476 3.328a8.71 8.71 0 0 0 6.274 2.665 8.725 8.725 0 0 0 3.452 -0.71" fill="none" stroke="#000000" stroke-linecap="round" stroke-linejoin="round" stroke-width="1"></path><path d="m5.5 15.976 0 7.281" fill="none" stroke="#000000" stroke-linecap="round" stroke-linejoin="round" stroke-width="1"></path><path d="m8.75 14.048 0 9.183" fill="none" stroke="#000000" stroke-linecap="round" stroke-linejoin="round" stroke-width="1"></path><path d="m15.25 14.048 0 3.683" fill="none" stroke="#000000" stroke-linecap="round" stroke-linejoin="round" stroke-width="1"></path><path d="M14.664 20.243h3.8s0.475 3 -1.9 3 -1.9 -3 -1.9 -3Z" fill="none" stroke="#000000" stroke-linecap="round" stroke-linejoin="round" stroke-width="1"></path></svg>