<svg xmlns="http://www.w3.org/2000/svg" viewBox="0 0 24 24" id="Avatar-Farmer-Man-1--Streamline-Ultimate"><desc>Avatar Farmer Man 1 Streamline Icon: https://streamlinehq.com</desc><defs></defs><path d="M6.708 7.063v1.25a5.25 5.25 0 0 0 10.5 0v-1.25" fill="none" stroke="#000000" stroke-linecap="round" stroke-linejoin="round" stroke-width="1"></path><path d="M6.451 7.23V2.77a2.006 2.006 0 0 1 2 -2h7a2.006 2.006 0 0 1 2 2v4.46" fill="none" stroke="#000000" stroke-linecap="round" stroke-linejoin="round" stroke-width="1"></path><path d="M5.451 8.02a9.7 9.7 0 0 1 13 0" fill="none" stroke="#000000" stroke-linecap="round" stroke-linejoin="round" stroke-width="1"></path><path d="M2.686 23.057a9.754 9.754 0 0 1 18.628 0.055" fill="none" stroke="#000000" stroke-linecap="round" stroke-linejoin="round" stroke-width="1"></path><path d="m9.541 16.539 0 6.691" fill="none" stroke="#000000" stroke-linecap="round" stroke-linejoin="round" stroke-width="1"></path><path d="m14.541 16.565 0 6.665" fill="none" stroke="#000000" stroke-linecap="round" stroke-linejoin="round" stroke-width="1"></path><path d="m5.541 18.667 0 4.563" fill="none" stroke="#000000" stroke-linecap="round" stroke-linejoin="round" stroke-width="1"></path><path d="m18.442 18.667 0 4.563" fill="none" stroke="#000000" stroke-linecap="round" stroke-linejoin="round" stroke-width="1"></path></svg>