<svg xmlns="http://www.w3.org/2000/svg" viewBox="0 0 24 24" id="Avatar-Soldier-3--Streamline-Ultimate"><desc>Avatar Soldier 3 Streamline Icon: https://streamlinehq.com</desc><defs></defs><path d="M2.963 23.207a9.754 9.754 0 0 1 18.37 -0.021" fill="none" stroke="#000000" stroke-linecap="round" stroke-linejoin="round" stroke-width="1"></path><path d="M12.167 0.75A5.25 5.25 0 0 1 17.417 6a2.726 2.726 0 0 0 1.25 2h-13a2.722 2.722 0 0 0 1.25 -2 5.251 5.251 0 0 1 5.25 -5.25Z" fill="none" stroke="#000000" stroke-linecap="round" stroke-linejoin="round" stroke-width="1"></path><path d="m10.667 4 1.5 1.5 1.5 -1.5" fill="none" stroke="#000000" stroke-linecap="round" stroke-linejoin="round" stroke-width="1"></path><path d="m8.936 17.268 3.231 3.232 3.224 -3.224" fill="none" stroke="#000000" stroke-linecap="round" stroke-linejoin="round" stroke-width="1"></path><path d="m12.167 20.5 0 2.75" fill="none" stroke="#000000" stroke-linecap="round" stroke-linejoin="round" stroke-width="1"></path><path d="m3.919 21.25 16.466 0" fill="none" stroke="#000000" stroke-linecap="round" stroke-linejoin="round" stroke-width="1"></path><path d="m7.667 23.25 0 -2" fill="none" stroke="#000000" stroke-linecap="round" stroke-linejoin="round" stroke-width="1"></path><path d="m16.667 23.25 0 -2" fill="none" stroke="#000000" stroke-linecap="round" stroke-linejoin="round" stroke-width="1"></path><path d="M6.891 8v1a5.25 5.25 0 0 0 10.5 0V8" fill="none" stroke="#000000" stroke-linecap="round" stroke-linejoin="round" stroke-width="1"></path><path d="m3.667 21.668 0 -10.418 -1 0" fill="none" stroke="#000000" stroke-linecap="round" stroke-linejoin="round" stroke-width="1"></path><path d="M6.667 15.625a2.75 2.75 0 0 0 -2.75 -2.75h-0.25" fill="none" stroke="#000000" stroke-linecap="round" stroke-linejoin="round" stroke-width="1"></path></svg>