<svg xmlns="http://www.w3.org/2000/svg" viewBox="0 0 24 24" id="Avatar-Postman--Streamline-Ultimate"><desc>Avatar Postman Streamline Icon: https://streamlinehq.com</desc><defs></defs><path d="M14.037 13.533a5.251 5.251 0 0 0 5 -5.245v-1.4" fill="none" stroke="#000000" stroke-linecap="round" stroke-linejoin="round" stroke-width="1"></path><path d="M8.541 6.879v1.409a5.235 5.235 0 0 0 1.706 3.874" fill="none" stroke="#000000" stroke-linecap="round" stroke-linejoin="round" stroke-width="1"></path><path d="M19.294 6.669a8.61 8.61 0 0 1 -5.5 2.077 8.606 8.606 0 0 1 -5.5 -2.077 8.7 8.7 0 0 1 5.5 -2.033 8.7 8.7 0 0 1 5.5 2.033Z" fill="none" stroke="#000000" stroke-linecap="round" stroke-linejoin="round" stroke-width="1"></path><path d="m19.294 6.669 0.662 -1.437a1.871 1.871 0 0 0 -1.024 -2.548l-3.7 -1.7a3.945 3.945 0 0 0 -2.884 0l-3.7 1.7a1.872 1.872 0 0 0 -1.017 2.548l0.663 1.437" fill="none" stroke="#000000" stroke-linecap="round" stroke-linejoin="round" stroke-width="1"></path><path d="M14.828 15.809a9.759 9.759 0 0 1 8.378 7.3" fill="none" stroke="#000000" stroke-linecap="round" stroke-linejoin="round" stroke-width="1"></path><path d="M11.794 16.416v5.958a0.918 0.918 0 0 1 -0.917 0.917H1.71a0.917 0.917 0 0 1 -0.916 -0.917v-5.958" fill="none" stroke="#000000" stroke-linecap="round" stroke-linejoin="round" stroke-width="1"></path><path d="M11.794 16.416v-0.459a0.917 0.917 0 0 0 -0.917 -0.916H1.71a0.916 0.916 0 0 0 -0.916 0.916v0.459L5.565 19.4a1.379 1.379 0 0 0 1.458 0Z" fill="none" stroke="#000000" stroke-linecap="round" stroke-linejoin="round" stroke-width="1"></path></svg>