<svg xmlns="http://www.w3.org/2000/svg" viewBox="0 0 24 24" id="Avatar-Judo-Athlete-Man--Streamline-Ultimate"><desc>Avatar Judo Athlete Man Streamline Icon: https://streamlinehq.com</desc><defs></defs><path d="M2.25 23.233a9.75 9.75 0 0 1 19.5 0" fill="none" stroke="#000000" stroke-linecap="round" stroke-linejoin="round" stroke-width="1"></path><path d="M8.133 14.281 12 18.148l3.867 -3.867" fill="none" stroke="#000000" stroke-linecap="round" stroke-linejoin="round" stroke-width="1"></path><path d="m12 18.148 -5.085 5.085" fill="none" stroke="#000000" stroke-linecap="round" stroke-linejoin="round" stroke-width="1"></path><path d="m18.635 16.09 -6.909 7.177" fill="none" stroke="#000000" stroke-linecap="round" stroke-linejoin="round" stroke-width="1"></path><path d="m6.75 20.733 0 2.5" fill="none" stroke="#000000" stroke-linecap="round" stroke-linejoin="round" stroke-width="1"></path><path d="m17.25 21.685 0 1.548" fill="none" stroke="#000000" stroke-linecap="round" stroke-linejoin="round" stroke-width="1"></path><path d="M6.75 5.983a5.25 5.25 0 1 0 10.5 0 5.25 5.25 0 1 0 -10.5 0" fill="none" stroke="#000000" stroke-linecap="round" stroke-linejoin="round" stroke-width="1"></path><path d="M7.476 3.318a8.71 8.71 0 0 0 6.274 2.665 8.708 8.708 0 0 0 3.452 -0.71" fill="none" stroke="#000000" stroke-linecap="round" stroke-linejoin="round" stroke-width="1"></path></svg>