<svg xmlns="http://www.w3.org/2000/svg" viewBox="0 0 24 24" id="Avatar-Ship-Crew-Navy--Streamline-Ultimate"><desc>Avatar Ship Crew Navy Streamline Icon: https://streamlinehq.com</desc><defs></defs><path d="m17.248 9 0.5 -5.25h-11.5l0.5 5.024a5.4 5.4 0 0 0 4.735 5.451A5.25 5.25 0 0 0 17.248 9Z" fill="none" stroke="#000000" stroke-linecap="round" stroke-linejoin="round" stroke-width="1"></path><path d="M2.654 23.209a9.753 9.753 0 0 1 18.692 0.01" fill="none" stroke="#000000" stroke-linecap="round" stroke-linejoin="round" stroke-width="1"></path><path d="M18.3 18.561 12 21.712l-6.3 -3.151" fill="none" stroke="#000000" stroke-linecap="round" stroke-linejoin="round" stroke-width="1"></path><path d="M8.248 3.75v-1a2.006 2.006 0 0 1 2 -2h3.5a2.006 2.006 0 0 1 2 2v1" fill="none" stroke="#000000" stroke-linecap="round" stroke-linejoin="round" stroke-width="1"></path><path d="m10.469 23.25 1.529 -1.538 1.487 1.516" fill="none" stroke="#000000" stroke-linecap="round" stroke-linejoin="round" stroke-width="1"></path><path d="M17.344 8 6.671 8" fill="none" stroke="#000000" stroke-linecap="round" stroke-linejoin="round" stroke-width="1"></path></svg>