<svg xmlns="http://www.w3.org/2000/svg" fill="none" viewBox="0 0 24 24" id="Avatar-Bartainder--Streamline-Ultimate"><desc>Avatar Bartainder Streamline Icon: https://streamlinehq.com</desc><path stroke="#000000" stroke-linecap="round" stroke-linejoin="round" d="M2.25 23.25c-0.0007 -1.5144 0.35202 -3.008 1.03011 -4.3621 0.67809 -1.3541 1.66284 -2.5313 2.87589 -3.4379" stroke-width="1"></path><path stroke="#000000" stroke-linecap="round" stroke-linejoin="round" d="M12 11.25c2.8995 0 5.25 -2.3505 5.25 -5.25 0 -2.89949 -2.3505 -5.25 -5.25 -5.25C9.10051 0.75 6.75 3.10051 6.75 6c0 2.8995 2.35051 5.25 5.25 5.25Z" stroke-width="1"></path><path stroke="#000000" stroke-linecap="round" stroke-linejoin="round" d="M7.47601 3.33499c0.81301 0.84304 1.78763 1.51354 2.86559 1.97143 1.078 0.45789 2.2372 0.69378 3.4084 0.69357 1.1863 0.00034 2.3602 -0.24125 3.45 -0.71" stroke-width="1"></path><path stroke="#000000" stroke-linecap="round" stroke-linejoin="round" d="m6.15601 15.445 2.264 7.698" stroke-width="1"></path><path stroke="#000000" stroke-linecap="round" stroke-linejoin="round" d="m17.844 15.445 -2.262 7.692" stroke-width="1"></path><path stroke="#000000" stroke-linecap="round" stroke-linejoin="round" d="M17.844 15.445c1.2137 0.9071 2.1989 2.0851 2.877 3.4401 0.6781 1.355 1.0305 2.8497 1.029 4.3649" stroke-width="1"></path><path stroke="#000000" stroke-linecap="round" stroke-linejoin="round" d="M9.70999 13.837 14.29 16.168" stroke-width="1"></path><path stroke="#000000" stroke-linecap="round" stroke-linejoin="round" d="m14.29 13.837 -4.58001 2.331" stroke-width="1"></path><path stroke="#000000" d="M12.001 19.79c-0.2071 0 -0.375 -0.1679 -0.375 -0.375s0.1679 -0.375 0.375 -0.375" stroke-width="1"></path><path stroke="#000000" d="M12.001 19.79c0.2071 0 0.375 -0.1679 0.375 -0.375s-0.1679 -0.375 -0.375 -0.375" stroke-width="1"></path><path stroke="#000000" d="M12.001 23.04c-0.2071 0 -0.375 -0.1679 -0.375 -0.375s0.1679 -0.375 0.375 -0.375" stroke-width="1"></path><path stroke="#000000" d="M12.001 23.04c0.2071 0 0.375 -0.1679 0.375 -0.375s-0.1679 -0.375 -0.375 -0.375" stroke-width="1"></path></svg>