<svg viewBox="0 0 24 24" xmlns="http://www.w3.org/2000/svg" id="Professions-Man-Clerk--Streamline-Ultimate"><desc>Professions Man Clerk Streamline Icon: https://streamlinehq.com</desc><path d="M2.25 23.25A9.76 9.76 0 0 1 8.946 15l3 3.28 3 -3.28a9.758 9.758 0 0 1 6.7 8.25" fill="none" stroke="#000000" stroke-linecap="round" stroke-linejoin="round" stroke-width="1"></path><path d="M17.2 6.908V7.5a5.25 5.25 0 0 1 -10.5 0v-0.612" fill="none" stroke="#000000" stroke-linecap="round" stroke-linejoin="round" stroke-width="1"></path><path d="M5.686 6.75c1.893 -1.856 3.4 -3 6.261 -3s4.6 1.144 6.489 3h0l-3.443 0.439a30.1 30.1 0 0 1 -6.092 0L5.686 6.75Z" fill="none" stroke="#000000" stroke-linecap="round" stroke-linejoin="round" stroke-width="1"></path><path d="M7.453 5.192 8.2 1.646l0.84 -0.336a7.835 7.835 0 0 1 5.819 0l0.841 0.336 0.714 3.409" fill="none" stroke="#000000" stroke-linecap="round" stroke-linejoin="round" stroke-width="1"></path><path d="M13.936 23.25v-1.5a0.75 0.75 0 0 1 0.75 -0.75h3a0.75 0.75 0 0 1 0.75 0.75v1.5" fill="none" stroke="#000000" stroke-linecap="round" stroke-linejoin="round" stroke-width="1"></path></svg>