<svg xmlns="http://www.w3.org/2000/svg" viewBox="0 0 24 24" id="Professions-Man-Office-2--Streamline-Ultimate"><desc>Professions Man Office 2 Streamline Icon: https://streamlinehq.com</desc><g><path d="M2.36 23.25a9.76 9.76 0 0 1 19.28 0" fill="none" stroke="#000000" stroke-linecap="round" stroke-linejoin="round" stroke-width="1"></path><path d="M14.25 23.25 12 15l-2.25 8.25" fill="none" stroke="#000000" stroke-linecap="round" stroke-linejoin="round" stroke-width="1"></path><g><path d="M16.16 2.38a6 6 0 0 0 -8.22 0" fill="none" stroke="#000000" stroke-linecap="round" stroke-linejoin="round" stroke-width="1"></path><path d="M7.44 10.59a6 6 0 0 0 9.18 0.05" fill="none" stroke="#000000" stroke-linecap="round" stroke-linejoin="round" stroke-width="1"></path></g><path d="M6.8 6.75a2 2 0 1 0 4 0 2 2 0 1 0 -4 0" fill="none" stroke="#000000" stroke-linecap="round" stroke-linejoin="round" stroke-width="1"></path><path d="M13.3 6.75a2 2 0 1 0 4 0 2 2 0 1 0 -4 0" fill="none" stroke="#000000" stroke-linecap="round" stroke-linejoin="round" stroke-width="1"></path><path d="m4.8 6.75 2 0" fill="none" stroke="#000000" stroke-linecap="round" stroke-linejoin="round" stroke-width="1"></path><path d="m17.3 6.75 2 0" fill="none" stroke="#000000" stroke-linecap="round" stroke-linejoin="round" stroke-width="1"></path><path d="m10.8 6.75 2.5 0" fill="none" stroke="#000000" stroke-linecap="round" stroke-linejoin="round" stroke-width="1"></path></g></svg>