<svg xmlns="http://www.w3.org/2000/svg" viewBox="0 0 24 24" id="Professions-Man-Telecommunicator--Streamline-Ultimate"><desc>Professions Man Telecommunicator Streamline Icon: https://streamlinehq.com</desc><g><path d="M6.72 5.48A5.25 5.25 0 1 1 15 10.31" fill="none" stroke="#000000" stroke-linecap="round" stroke-linejoin="round" stroke-width="1"></path><path d="M7.42 3.33A8.72 8.72 0 0 0 13.7 6a8.83 8.83 0 0 0 3.45 -0.71" fill="none" stroke="#000000" stroke-linecap="round" stroke-linejoin="round" stroke-width="1"></path><path d="M10.82 9.75a1.5 1.5 0 1 0 1.5 1.5 1.5 1.5 0 0 0 -1.5 -1.5Z" fill="none" stroke="#000000" stroke-linecap="round" stroke-linejoin="round" stroke-width="1"></path><path d="M9.32 11.25h-1.5a3 3 0 0 1 -3 -3V7.17" fill="none" stroke="#000000" stroke-linecap="round" stroke-linejoin="round" stroke-width="1"></path><path d="M21.7 23.25a9.73 9.73 0 0 0 -5.25 -8.64" fill="none" stroke="#000000" stroke-linecap="round" stroke-linejoin="round" stroke-width="1"></path><path d="M7.45 14.61a9.73 9.73 0 0 0 -5.25 8.64" fill="none" stroke="#000000" stroke-linecap="round" stroke-linejoin="round" stroke-width="1"></path></g></svg>