<svg xmlns="http://www.w3.org/2000/svg" fill="none" viewBox="0 0 24 24" id="Professions-Man-Post--Streamline-Ultimate"><desc>Professions Man Post Streamline Icon: https://streamlinehq.com</desc><path stroke="#000000" stroke-linecap="round" stroke-linejoin="round" d="M6.70001 6.75001v-2.85c-0.00024 -0.29643 0.08563 -0.58655 0.24718 -0.83509 0.16155 -0.24854 0.39182 -0.44479 0.66282 -0.56491L11.36 0.870005c0.1866 -0.079212 0.3873 -0.120036 0.59 -0.120036s0.4034 0.040824 0.59 0.120036l3.75 1.630005c0.271 0.12012 0.5013 0.31637 0.6628 0.56491 0.1616 0.24854 0.2475 0.53866 0.2472 0.83509v2.85" stroke-width="1"></path><path stroke="#000000" d="M11.9951 4.12001c-0.2071 0 -0.375 -0.16789 -0.375 -0.375s0.1679 -0.375 0.375 -0.375" stroke-width="1"></path><path stroke="#000000" d="M11.9951 4.12001c0.2071 0 0.375 -0.16789 0.375 -0.375s-0.1679 -0.375 -0.375 -0.375" stroke-width="1"></path><path stroke="#000000" stroke-linecap="round" stroke-linejoin="round" d="M5.20001 6.75H18.7" stroke-width="1"></path><path stroke="#000000" stroke-linecap="round" stroke-linejoin="round" d="M21.58 23.25c-0.3564 -2.2891 -1.5162 -4.3765 -3.2716 -5.8882C16.553 15.8501 14.3166 15.0128 12 15v0c-2.32696 -0.0014 -4.5777 0.8294 -6.34561 2.3424 -1.76791 1.513 -2.93641 3.6084 -3.2944 5.9076" stroke-width="1"></path><path stroke="#000000" stroke-linecap="round" stroke-linejoin="round" d="M16.39 9c-0.1736 1.0523 -0.7152 2.0087 -1.5284 2.6988 -0.8132 0.69 -1.8451 1.0688 -2.9116 1.0688s-2.09835 -0.3788 -2.91154 -1.0688C8.22527 11.0087 7.68359 10.0523 7.51001 9" stroke-width="1"></path><path stroke="#000000" stroke-linecap="round" stroke-linejoin="round" d="M14.83 21.75h3" stroke-width="1"></path><path stroke="#000000" stroke-linecap="round" stroke-linejoin="round" d="M11.95 15v8.25" stroke-width="1"></path></svg>