<svg xmlns="http://www.w3.org/2000/svg" viewBox="0 0 24 24" id="Professions-Man-Magician--Streamline-Ultimate"><desc>Professions Man Magician Streamline Icon: https://streamlinehq.com</desc><g><path d="M17.25 11.25a5.25 5.25 0 0 1 -10.5 0Z" fill="none" stroke="#000000" stroke-linecap="round" stroke-linejoin="round" stroke-width="1"></path><path d="m6 2.25 0.75 9h10.5l0.75 -9a1.5 1.5 0 0 0 -1.5 -1.5h-9A1.5 1.5 0 0 0 6 2.25Z" fill="none" stroke="#000000" stroke-linecap="round" stroke-linejoin="round" stroke-width="1"></path><path d="m3.75 11.25 16.5 0" fill="none" stroke="#000000" stroke-linecap="round" stroke-linejoin="round" stroke-width="1"></path><path d="m6.46 7.75 11.08 0" fill="none" stroke="#000000" stroke-linecap="round" stroke-linejoin="round" stroke-width="1"></path><path d="M8.39 18.83a0.64 0.64 0 0 0 -0.3 -0.08 0.58 0.58 0 0 0 -0.59 0.59v3.32a0.58 0.58 0 0 0 0.59 0.59 0.64 0.64 0 0 0 0.3 -0.08l7.22 -4.34a0.64 0.64 0 0 1 0.3 -0.08 0.58 0.58 0 0 1 0.59 0.59v3.32a0.58 0.58 0 0 1 -0.59 0.59 0.64 0.64 0 0 1 -0.3 -0.08Z" fill="none" stroke="#000000" stroke-linecap="round" stroke-linejoin="round" stroke-width="1"></path></g></svg>