<svg viewBox="0 0 24 24" xmlns="http://www.w3.org/2000/svg" id="Professions-Man-Office-3--Streamline-Ultimate"><desc>Professions Man Office 3 Streamline Icon: https://streamlinehq.com</desc><path d="M2.193 23.25a9.754 9.754 0 0 1 6.749 -9.28l3 2.53 3 -2.53a9.754 9.754 0 0 1 6.751 9.28" fill="none" stroke="#000000" stroke-linecap="round" stroke-linejoin="round" stroke-width="1"></path><path d="M17.6 15.306a9.724 9.724 0 0 0 -2.655 -1.336l-3 2.53 3.4 4.075Z" fill="none" stroke="#000000" stroke-linecap="round" stroke-linejoin="round" stroke-width="1"></path><path d="m11.943 16.5 -3 -2.53a9.746 9.746 0 0 0 -2.654 1.336l2.258 5.269Z" fill="none" stroke="#000000" stroke-linecap="round" stroke-linejoin="round" stroke-width="1"></path><path d="m14.193 23.25 1.146 -2.675" fill="none" stroke="#000000" stroke-linecap="round" stroke-linejoin="round" stroke-width="1"></path><path d="m8.546 20.575 1.147 2.675" fill="none" stroke="#000000" stroke-linecap="round" stroke-linejoin="round" stroke-width="1"></path><path d="M6.693 6a5.25 5.25 0 1 0 10.5 0 5.25 5.25 0 1 0 -10.5 0Z" fill="none" stroke="#000000" stroke-linecap="round" stroke-linejoin="round" stroke-width="1"></path><path d="M7.419 3.334A8.711 8.711 0 0 0 13.693 6a8.725 8.725 0 0 0 3.452 -0.71" fill="none" stroke="#000000" stroke-linecap="round" stroke-linejoin="round" stroke-width="1"></path></svg>