<svg viewBox="0 0 24 24" xmlns="http://www.w3.org/2000/svg" id="Connector-1--Streamline-Ultimate"><desc>Connector 1 Streamline Icon: https://streamlinehq.com</desc><path d="m20.25 12 3 0" fill="none" stroke="#000000" stroke-linecap="round" stroke-linejoin="round" stroke-width="1"></path><path d="m0.75 12 3 0" fill="none" stroke="#000000" stroke-linecap="round" stroke-linejoin="round" stroke-width="1"></path><path d="m12 0.75 0 3" fill="none" stroke="#000000" stroke-linecap="round" stroke-linejoin="round" stroke-width="1"></path><path d="m12 20.25 0 3" fill="none" stroke="#000000" stroke-linecap="round" stroke-linejoin="round" stroke-width="1"></path><path d="M18.75 9H15V5.25a1.5 1.5 0 0 0 -1.5 -1.5h-3A1.5 1.5 0 0 0 9 5.25V9H5.25a1.5 1.5 0 0 0 -1.5 1.5v3a1.5 1.5 0 0 0 1.5 1.5H9v3.75a1.5 1.5 0 0 0 1.5 1.5h3a1.5 1.5 0 0 0 1.5 -1.5V15h3.75a1.5 1.5 0 0 0 1.5 -1.5v-3a1.5 1.5 0 0 0 -1.5 -1.5Z" fill="none" stroke="#000000" stroke-linecap="round" stroke-linejoin="round" stroke-width="1"></path></svg>