<svg viewBox="0 0 24 24" xmlns="http://www.w3.org/2000/svg" id="Connector--Streamline-Ultimate"><desc>Connector Streamline Icon: https://streamlinehq.com</desc><path d="M15 13.125v-3.75a1.5 1.5 0 0 0 -1.5 -1.5h-3a1.5 1.5 0 0 0 -1.5 1.5v3.75H5.25a1.5 1.5 0 0 0 -1.5 1.5v3a1.5 1.5 0 0 0 1.5 1.5h13.5a1.5 1.5 0 0 0 1.5 -1.5v-3a1.5 1.5 0 0 0 -1.5 -1.5Z" fill="none" stroke="#000000" stroke-linecap="round" stroke-linejoin="round" stroke-width="1"></path><path d="m20.25 16.125 3 0" fill="none" stroke="#000000" stroke-linecap="round" stroke-linejoin="round" stroke-width="1"></path><path d="m0.75 16.125 3 0" fill="none" stroke="#000000" stroke-linecap="round" stroke-linejoin="round" stroke-width="1"></path><path d="m12 4.875 0 3" fill="none" stroke="#000000" stroke-linecap="round" stroke-linejoin="round" stroke-width="1"></path></svg>