<svg xmlns="http://www.w3.org/2000/svg" fill="none" viewBox="0 0 24 24" id="Gateway-User-Access--Streamline-Ultimate"><desc>Gateway User Access Streamline Icon: https://streamlinehq.com</desc><path stroke="#000000" stroke-linecap="round" stroke-linejoin="round" stroke-miterlimit="10" d="M11.9997 11.5375c1.1777 0 2.1325 -0.9548 2.1325 -2.13254 0 -1.17775 -0.9548 -2.1325 -2.1325 -2.1325 -1.1778 0 -2.13251 0.95475 -2.13251 2.1325 0 1.17774 0.95471 2.13254 2.13251 2.13254Z" stroke-width="1"></path><path stroke="#000000" stroke-linecap="round" stroke-linejoin="round" stroke-miterlimit="10" d="M15.5738 14.8539c-0.4669 -1.5297 -1.9129 -2.6767 -3.574 -2.6767 -1.6611 0 -3.10711 1.147 -3.57402 2.6767" stroke-width="1"></path><path stroke="#000000" stroke-linecap="round" stroke-linejoin="round" d="M4.553 11.632a7.448 7.448 0 1 0 14.896 0 7.448 7.448 0 1 0 -14.896 0" stroke-width="1"></path><path stroke="#000000" stroke-linecap="round" stroke-linejoin="round" d="M20.123 3.144a1.488 1.488 0 1 0 2.976 0 1.488 1.488 0 1 0 -2.976 0" stroke-width="1"></path><path stroke="#000000" stroke-linecap="round" stroke-linejoin="round" d="M3.877 3.144a1.488 1.488 0 1 1 -2.976 0 1.488 1.488 0 1 1 2.976 0" stroke-width="1"></path><path stroke="#000000" stroke-linecap="round" stroke-linejoin="round" d="m8.125 18 -1.51724 2.1458 -5.685885 -0.0001" stroke-width="1"></path><path stroke="#000000" stroke-linecap="round" stroke-linejoin="round" d="m16.1875 17.8281 1.6305 2.3176 5.2818 0.0001" stroke-width="1"></path><path stroke="#000000" stroke-linecap="round" stroke-linejoin="round" d="M8.09375 5.26562 6.60689 3.14355H3.87562" stroke-width="1"></path><path stroke="#000000" stroke-linecap="round" stroke-linejoin="round" d="m15.9062 5.28125 1.4859 -2.1377h2.7313" stroke-width="1"></path><path stroke="#000000" stroke-linecap="round" stroke-linejoin="round" d="m20.9004 17.9473 2.1985 2.1985 -2.1985 2.1984" stroke-width="1"></path><path stroke="#000000" stroke-linecap="round" stroke-linejoin="round" d="M3.09961 22.3442 0.901123 20.1458l2.198487 -2.1985" stroke-width="1"></path></svg>