<svg xmlns="http://www.w3.org/2000/svg" fill="none" viewBox="0 0 24 24" id="Gpon-Access-4--Streamline-Ultimate"><desc>Gpon Access 4 Streamline Icon: https://streamlinehq.com</desc><path stroke="#000000" stroke-linecap="round" stroke-linejoin="round" stroke-miterlimit="10" d="M10.55 20.9V2.89999l-3.6 2.6c-2 1.5 -3.2 3.9 -3.2 6.40001 0 2.5 1.2 4.9 3.2 6.4l3.6 2.6Z" stroke-width="1"></path><path stroke="#000000" stroke-linecap="round" stroke-linejoin="round" stroke-miterlimit="10" d="M10.55 11.9h10.2625" stroke-width="1"></path><path stroke="#000000" stroke-linecap="round" stroke-linejoin="round" stroke-miterlimit="10" d="m19.25 10.25 1.6 1.65 -1.6 1.6" stroke-width="1"></path><path stroke="#000000" stroke-linecap="round" stroke-linejoin="round" stroke-miterlimit="10" d="m10.55 4.5 3.5 2h6.7625" stroke-width="1"></path><path stroke="#000000" stroke-linecap="round" stroke-linejoin="round" stroke-miterlimit="10" d="m19.25 4.89999 1.6 1.6 -1.6 1.4" stroke-width="1"></path><path stroke="#000000" stroke-linecap="round" stroke-linejoin="round" stroke-miterlimit="10" d="M15.05 6.5c0.8284 0 1.5 -0.67157 1.5 -1.5s-0.6716 -1.5 -1.5 -1.5 -1.5 0.67157 -1.5 1.5 0.6716 1.5 1.5 1.5Z" stroke-width="1"></path><path stroke="#000000" stroke-linecap="round" stroke-linejoin="round" stroke-miterlimit="10" d="M15.05 11.9c0.8284 0 1.5 -0.6716 1.5 -1.5 0 -0.82843 -0.6716 -1.50001 -1.5 -1.50001s-1.5 0.67158 -1.5 1.50001c0 0.8284 0.6716 1.5 1.5 1.5Z" stroke-width="1"></path><path stroke="#000000" stroke-linecap="round" stroke-linejoin="round" stroke-miterlimit="10" d="m10.55 19.5 3.5 -2h6.7938" stroke-width="1"></path><path stroke="#000000" stroke-linecap="round" stroke-linejoin="round" stroke-miterlimit="10" d="m19.25 19.15 1.6 -1.65 -1.6 -1.6" stroke-width="1"></path><path stroke="#000000" stroke-linecap="round" stroke-linejoin="round" stroke-miterlimit="10" d="M15.05 17.5c0.8284 0 1.5 -0.6716 1.5 -1.5s-0.6716 -1.5 -1.5 -1.5 -1.5 0.6716 -1.5 1.5 0.6716 1.5 1.5 1.5Z" stroke-width="1"></path><path stroke="#000000" stroke-linejoin="round" d="M2.938 0.938h18.125s2 0 2 2v18.125s0 2 -2 2H2.938s-2 0 -2 -2V2.938s0 -2 2 -2" stroke-width="1"></path></svg>