<svg xmlns="http://www.w3.org/2000/svg" fill="none" viewBox="0 0 24 24" id="Laptop-Lock--Streamline-Ultimate"><desc>Laptop Lock Streamline Icon: https://streamlinehq.com</desc><path stroke="#000000" stroke-linecap="round" stroke-linejoin="round" d="M5.25 12.75c-0.39782 0 -0.77936 -0.158 -1.06066 -0.4393 -0.2813 -0.2813 -0.43934 -0.6629 -0.43934 -1.0607v-6c0 -0.39782 0.15804 -0.77936 0.43934 -1.06066 0.2813 -0.2813 0.66284 -0.43934 1.06066 -0.43934h7.5" stroke-width="1"></path><path stroke="#000000" stroke-linecap="round" stroke-linejoin="round" d="M20.068 16.724c0.085 0.2269 0.1137 0.4711 0.0837 0.7116 -0.0299 0.2404 -0.1177 0.4701 -0.2558 0.6692 -0.1381 0.1991 -0.3224 0.3618 -0.5371 0.4742s-0.4535 0.171 -0.6958 0.171H3.75101c-0.24191 -0.0008 -0.48005 -0.06 -0.6941 -0.1727 -0.21405 -0.1127 -0.39767 -0.2755 -0.53519 -0.4746 -0.13752 -0.199 -0.22487 -0.4283 -0.2546 -0.6684 -0.02973 -0.24 -0.00095 -0.4838 0.08389 -0.7103l1.125 -3c0.10683 -0.2853 0.29801 -0.5313 0.5481 -0.7053 0.25009 -0.174 0.54723 -0.2677 0.8519 -0.2687H17.711c0.3047 0.001 0.6018 0.0947 0.8519 0.2687s0.4413 0.42 0.5481 0.7053l0.957 3Z" stroke-width="1"></path><path stroke="#000000" stroke-linecap="round" stroke-linejoin="round" d="M9.75 15.75h3" stroke-width="1"></path><path stroke="#000000" stroke-linecap="round" stroke-linejoin="round" d="M21.75 3.75h-4.5c-0.8284 0 -1.5 0.67157 -1.5 1.5v3c0 0.82843 0.6716 1.5 1.5 1.5h4.5c0.8284 0 1.5 -0.67157 1.5 -1.5v-3c0 -0.82843 -0.6716 -1.5 -1.5 -1.5Z" stroke-width="1"></path><path stroke="#000000" d="M19.5 7.125c-0.2071 0 -0.375 -0.16789 -0.375 -0.375s0.1679 -0.375 0.375 -0.375" stroke-width="1"></path><path stroke="#000000" d="M19.5 7.125c0.2071 0 0.375 -0.16789 0.375 -0.375s-0.1679 -0.375 -0.375 -0.375" stroke-width="1"></path><path stroke="#000000" stroke-linecap="round" stroke-linejoin="round" d="M0.75 23.25h22.5" stroke-width="1"></path><path stroke="#000000" stroke-linecap="round" stroke-linejoin="round" d="M11.25 18.75v4.5" stroke-width="1"></path><path stroke="#000000" stroke-linecap="round" stroke-linejoin="round" d="M17.25 3.75V3c0 -0.59674 0.2371 -1.16903 0.659 -1.59099C18.331 0.987053 18.9033 0.75 19.5 0.75s1.169 0.237053 1.591 0.65901c0.4219 0.42196 0.659 0.99425 0.659 1.59099v0.75" stroke-width="1"></path></svg>