<svg xmlns="http://www.w3.org/2000/svg" fill="none" viewBox="0 0 24 24" id="Monitor-Lock--Streamline-Ultimate"><desc>Monitor Lock Streamline Icon: https://streamlinehq.com</desc><path stroke="#000000" stroke-linecap="round" stroke-linejoin="round" d="M0.75 21.75h9.75" stroke-width="1"></path><path stroke="#000000" stroke-linecap="round" stroke-linejoin="round" d="M13.5 21.75h9.75" stroke-width="1"></path><path stroke="#000000" stroke-linecap="round" stroke-linejoin="round" d="M12 17.25v3" stroke-width="1"></path><path stroke="#000000" stroke-linecap="round" stroke-linejoin="round" d="M14.25 0.75H6c-0.39782 0 -0.77936 0.158035 -1.06066 0.43934C4.65804 1.47064 4.5 1.85218 4.5 2.25v7.5c0 0.3978 0.15804 0.7794 0.43934 1.0607S5.60218 11.25 6 11.25h7.5" stroke-width="1"></path><path stroke="#000000" stroke-linecap="round" stroke-linejoin="round" d="M12 11.25v3" stroke-width="1"></path><path stroke="#000000" stroke-linecap="round" stroke-linejoin="round" d="M9.75 14.25h4.5" stroke-width="1"></path><path stroke="#000000" stroke-linecap="round" stroke-linejoin="round" d="M4.5 7.75h8.25" stroke-width="1"></path><path stroke="#000000" stroke-linecap="round" stroke-linejoin="round" d="M12 23.25c0.8284 0 1.5 -0.6716 1.5 -1.5s-0.6716 -1.5 -1.5 -1.5 -1.5 0.6716 -1.5 1.5 0.6716 1.5 1.5 1.5Z" stroke-width="1"></path><path stroke="#000000" stroke-linecap="round" stroke-linejoin="round" d="M21.75 3.75h-4.5c-0.8284 0 -1.5 0.67157 -1.5 1.5v3c0 0.82843 0.6716 1.5 1.5 1.5h4.5c0.8284 0 1.5 -0.67157 1.5 -1.5v-3c0 -0.82843 -0.6716 -1.5 -1.5 -1.5Z" stroke-width="1"></path><g><path stroke="#000000" d="M19.505 7.12c-0.2071 0 -0.375 -0.1679 -0.375 -0.375 0 -0.20711 0.1679 -0.375 0.375 -0.375" stroke-width="1"></path><path stroke="#000000" d="M19.505 7.12c0.2071 0 0.375 -0.1679 0.375 -0.375 0 -0.20711 -0.1679 -0.375 -0.375 -0.375" stroke-width="1"></path></g><path stroke="#000000" stroke-linecap="round" stroke-linejoin="round" d="M17.25 3.75V3c0 -0.59674 0.2371 -1.16903 0.659 -1.59099C18.331 0.987053 18.9033 0.75 19.5 0.75s1.169 0.237053 1.591 0.65901c0.4219 0.42196 0.659 0.99425 0.659 1.59099v0.75" stroke-width="1"></path></svg>