<svg xmlns="http://www.w3.org/2000/svg" viewBox="0 0 24 24" id="Monitor-Transfer-1--Streamline-Ultimate"><desc>Monitor Transfer 1 Streamline Icon: https://streamlinehq.com</desc><defs></defs><title>monitor-transfer_1</title><path d="M2.25 12.751h9s1.5 0 1.5 1.5v4.5s0 1.5 -1.5 1.5h-9s-1.5 0 -1.5 -1.5v-4.5s0 -1.5 1.5 -1.5" fill="none" stroke="#000000" stroke-linecap="round" stroke-linejoin="round" stroke-width="1"></path><path d="m6.75 20.251 0 3" fill="none" stroke="#000000" stroke-linecap="round" stroke-linejoin="round" stroke-width="1"></path><path d="m4.5 23.251 4.5 0" fill="none" stroke="#000000" stroke-linecap="round" stroke-linejoin="round" stroke-width="1"></path><path d="M12.75 0.751h9s1.5 0 1.5 1.5v4.5s0 1.5 -1.5 1.5h-9s-1.5 0 -1.5 -1.5v-4.5s0 -1.5 1.5 -1.5" fill="none" stroke="#000000" stroke-linecap="round" stroke-linejoin="round" stroke-width="1"></path><path d="m17.25 8.251 0 3" fill="none" stroke="#000000" stroke-linecap="round" stroke-linejoin="round" stroke-width="1"></path><path d="m15 11.251 4.5 0" fill="none" stroke="#000000" stroke-linecap="round" stroke-linejoin="round" stroke-width="1"></path><path d="M8.25 3.751a3 3 0 0 0 -3 3v3" fill="none" stroke="#000000" stroke-linecap="round" stroke-linejoin="round" stroke-width="1"></path><path d="m3 7.501 2.25 2.25 2.25 -2.25" fill="none" stroke="#000000" stroke-linecap="round" stroke-linejoin="round" stroke-width="1"></path></svg>