<svg xmlns="http://www.w3.org/2000/svg" viewBox="0 0 24 24" id="Monitor-Transfer-Folder--Streamline-Ultimate"><desc>Monitor Transfer Folder Streamline Icon: https://streamlinehq.com</desc><defs></defs><title>monitor-transfer-folder</title><path d="M10.5 3.75H6.75a1.5 1.5 0 0 0 -1.5 1.5v4.5" fill="none" stroke="#000000" stroke-linecap="round" stroke-linejoin="round" stroke-width="1"></path><path d="m3 7.5 2.25 2.25L7.5 7.5" fill="none" stroke="#000000" stroke-linecap="round" stroke-linejoin="round" stroke-width="1"></path><path d="M17.25 2.25V1.5a0.75 0.75 0 0 0 -0.75 -0.75h-2.25a0.75 0.75 0 0 0 -0.75 0.75v5.25a1.5 1.5 0 0 0 1.5 1.5h6.75a1.5 1.5 0 0 0 1.5 -1.5V3a0.75 0.75 0 0 0 -0.75 -0.75Z" fill="none" stroke="#000000" stroke-linecap="round" stroke-linejoin="round" stroke-width="1"></path><path d="M2.25 12.75h9s1.5 0 1.5 1.5v4.5s0 1.5 -1.5 1.5h-9s-1.5 0 -1.5 -1.5v-4.5s0 -1.5 1.5 -1.5" fill="none" stroke="#000000" stroke-linecap="round" stroke-linejoin="round" stroke-width="1"></path><path d="m6.75 20.25 0 3" fill="none" stroke="#000000" stroke-linecap="round" stroke-linejoin="round" stroke-width="1"></path><path d="m4.5 23.25 4.5 0" fill="none" stroke="#000000" stroke-linecap="round" stroke-linejoin="round" stroke-width="1"></path></svg>