<svg xmlns="http://www.w3.org/2000/svg" viewBox="0 0 24 24" id="Network-Arrow-Sync--Streamline-Ultimate"><desc>Network Arrow Sync Streamline Icon: https://streamlinehq.com</desc><g><g><path d="M12 6v2.89c0 0.9 -0.66 1.24 -1.15 1.56a1.5 1.5 0 0 0 -0.51 1.92l0.24 0.48a1.5 1.5 0 0 0 2 0.67l0.83 -0.42a1.49 1.49 0 0 0 0.83 -1.34 1.53 1.53 0 0 1 1 -1.66l2 -0.92" fill="none" stroke="#000000" stroke-linecap="round" stroke-linejoin="round" stroke-width="1"></path><path d="M6 12a6 6 0 1 0 12 0 6 6 0 1 0 -12 0" fill="none" stroke="#000000" stroke-linecap="round" stroke-linejoin="round" stroke-width="1"></path></g><g><path d="M16.07 1.51A11.25 11.25 0 0 0 4.35 20.25" fill="none" stroke="#000000" stroke-linecap="round" stroke-linejoin="round" stroke-width="1"></path><path d="m4.35 16.65 0 3.6 -3.6 0" fill="none" stroke="#000000" stroke-linecap="round" stroke-linejoin="round" stroke-width="1"></path></g><g><path d="M7.93 22.49A11.25 11.25 0 0 0 19.65 3.75" fill="none" stroke="#000000" stroke-linecap="round" stroke-linejoin="round" stroke-width="1"></path><path d="m19.65 7.35 0 -3.6 3.6 0" fill="none" stroke="#000000" stroke-linecap="round" stroke-linejoin="round" stroke-width="1"></path></g></g></svg>