<svg xmlns="http://www.w3.org/2000/svg" viewBox="0 0 24 24" id="Phone-Monitor-Exchange--Streamline-Ultimate"><desc>Phone Monitor Exchange Streamline Icon: https://streamlinehq.com</desc><g><path d="M2.25 0.75h9s1.5 0 1.5 1.5v4.5s0 1.5 -1.5 1.5h-9s-1.5 0 -1.5 -1.5v-4.5s0 -1.5 1.5 -1.5" fill="none" stroke="#000000" stroke-linecap="round" stroke-linejoin="round" stroke-width="1"></path><path d="m6.75 8.25 0 3" fill="none" stroke="#000000" stroke-linecap="round" stroke-linejoin="round" stroke-width="1"></path><path d="m4.5 11.25 4.5 0" fill="none" stroke="#000000" stroke-linecap="round" stroke-linejoin="round" stroke-width="1"></path><path d="M17.25 11.25h4.5s1.5 0 1.5 1.5v9s0 1.5 -1.5 1.5h-4.5s-1.5 0 -1.5 -1.5v-9s0 -1.5 1.5 -1.5" fill="none" stroke="#000000" stroke-linecap="round" stroke-linejoin="round" stroke-width="1"></path><path d="m15.75 19.75 7.5 0" fill="none" stroke="#000000" stroke-linecap="round" stroke-linejoin="round" stroke-width="1"></path><path d="M3.75 15.75a6 6 0 0 0 6 6H12" fill="none" stroke="#000000" stroke-linecap="round" stroke-linejoin="round" stroke-width="1"></path><path d="M23.25 8.25a6 6 0 0 0 -6 -6h-1.5" fill="none" stroke="#000000" stroke-linecap="round" stroke-linejoin="round" stroke-width="1"></path><path d="m17.25 0.75 -1.5 1.5 1.5 1.5" fill="none" stroke="#000000" stroke-linecap="round" stroke-linejoin="round" stroke-width="1"></path><path d="m10.5 23.25 1.5 -1.5 -1.5 -1.5" fill="none" stroke="#000000" stroke-linecap="round" stroke-linejoin="round" stroke-width="1"></path></g></svg>