<svg xmlns="http://www.w3.org/2000/svg" fill="none" viewBox="0 0 24 24" id="Router-Signal-Double--Streamline-Ultimate"><desc>Router Signal Double Streamline Icon: https://streamlinehq.com</desc><path stroke="#000000" stroke-linecap="round" stroke-linejoin="round" d="M4.125 21.75v1.5" stroke-width="1"></path><path stroke="#000000" stroke-linecap="round" stroke-linejoin="round" d="M19.875 21.75v1.5" stroke-width="1"></path><path stroke="#000000" stroke-linecap="round" stroke-linejoin="round" d="M9.75 15v6.75" stroke-width="1"></path><path stroke="#000000" stroke-linecap="round" stroke-linejoin="round" d="M18.75 15V6.75" stroke-width="1"></path><path stroke="#000000" stroke-linecap="round" stroke-linejoin="round" d="M16.629 4.62897c0.5626 -0.56241 1.3255 -0.87836 2.121 -0.87836 0.7955 0 1.5584 0.31595 2.121 0.87836" stroke-width="1"></path><path stroke="#000000" stroke-linecap="round" stroke-linejoin="round" d="M19.875 21.75c0.8951 0 1.7536 -0.3556 2.3865 -0.9885 0.6329 -0.6329 0.9885 -1.4914 0.9885 -2.3865 0 -0.8951 -0.3556 -1.7535 -0.9885 -2.3865C21.6286 15.3556 20.7701 15 19.875 15H4.125c-0.89511 0 -1.75355 0.3556 -2.38649 0.9885C1.10558 16.6215 0.75 17.4799 0.75 18.375c0 0.8951 0.35558 1.7536 0.98851 2.3865 0.63294 0.6329 1.49138 0.9885 2.38649 0.9885h15.75Z" stroke-width="1"></path><path stroke="#000000" stroke-linecap="round" stroke-linejoin="round" d="M23.25 2.78198c-0.5631 -0.63844 -1.2555 -1.14976 -2.0314 -1.5C20.4428 0.931746 19.6013 0.75061 18.75 0.75061s-1.6928 0.181136 -2.4686 0.53137c-0.7759 0.35024 -1.4683 0.86156 -2.0314 1.5" stroke-width="1"></path><path stroke="#000000" stroke-linecap="round" stroke-linejoin="round" d="M5.25 15V6.75" stroke-width="1"></path><path stroke="#000000" stroke-linecap="round" stroke-linejoin="round" d="M7.371 4.62897c-0.56259 -0.56241 -1.32551 -0.87836 -2.121 -0.87836s-1.55842 0.31595 -2.121 0.87836" stroke-width="1"></path><path stroke="#000000" stroke-linecap="round" stroke-linejoin="round" d="M0.75 2.78198c0.56305 -0.63844 1.25551 -1.14976 2.03137 -1.5C3.55724 0.931746 4.39875 0.75061 5.25 0.75061c0.85125 0 1.69276 0.181136 2.46863 0.53137 0.77586 0.35024 1.46832 0.86156 2.03137 1.5" stroke-width="1"></path><path stroke="#000000" d="M18.75 18.75c-0.2071 0 -0.375 -0.1679 -0.375 -0.375s0.1679 -0.375 0.375 -0.375" stroke-width="1"></path><path stroke="#000000" d="M18.75 18.75c0.2071 0 0.375 -0.1679 0.375 -0.375S18.9571 18 18.75 18" stroke-width="1"></path><g><path stroke="#000000" d="M14.25 18.75c-0.2071 0 -0.375 -0.1679 -0.375 -0.375s0.1679 -0.375 0.375 -0.375" stroke-width="1"></path><path stroke="#000000" d="M14.25 18.75c0.2071 0 0.375 -0.1679 0.375 -0.375S14.4571 18 14.25 18" stroke-width="1"></path></g></svg>