<svg xmlns="http://www.w3.org/2000/svg" fill="none" viewBox="0 0 24 24" id="Fishing-Catch--Streamline-Ultimate"><desc>Fishing Catch Streamline Icon: https://streamlinehq.com</desc><path stroke="#000000" stroke-linecap="round" stroke-linejoin="round" d="M5.25 0.75h16.5" stroke-width="1"></path><path stroke="#000000" stroke-linecap="round" stroke-linejoin="round" d="M5.25 3.75h12" stroke-width="1"></path><path stroke="#000000" stroke-linecap="round" stroke-linejoin="round" d="M6.30004 18.245C10.026 20.86 13.751 22.121 17.2 21.209l2.243 2.041 1.5 -4.012c0.7504 -0.6264 1.4353 -1.3273 2.044 -2.092 0.171 -0.2151 0.264 -0.4818 0.264 -0.7565 0 -0.2748 -0.093 -0.5414 -0.264 -0.7565 -4.832 -5.99203 -10.759 -5.26 -16.68696 -1.1l-4.736 -1.82c-0.11597 -0.0389 -0.2409 -0.0425 -0.35889 -0.0102 -0.118 0.0322 -0.223746 0.0989 -0.303805 0.1913 -0.080058 0.0925 -0.130817 0.2067 -0.145827 0.3281 -0.015011 0.1214 0.006405 0.2446 0.061526 0.3538L2.60004 16.39 0.817044 19.2c-0.054597 0.1092 -0.075611 0.2322 -0.060389 0.3533 0.015221 0.1212 0.065996 0.2351 0.145914 0.3274 0.079918 0.0924 0.185401 0.159 0.303121 0.1914 0.11773 0.0324 0.24243 0.0292 0.35835 -0.0091l4.736 -1.818Z" stroke-width="1"></path><path stroke="#000000" stroke-linecap="round" stroke-linejoin="round" d="m16.2951 11.384 -2.084 -3.134" stroke-width="1"></path><path stroke="#000000" stroke-linecap="round" stroke-linejoin="round" d="M11.734 11.766 9.724 9.75" stroke-width="1"></path><path stroke="#000000" d="M17.7446 15.4382c-0.2071 0 -0.375 -0.1679 -0.375 -0.375s0.1679 -0.375 0.375 -0.375" stroke-width="1"></path><path stroke="#000000" d="M17.7446 15.4382c0.2071 0 0.375 -0.1679 0.375 -0.375s-0.1679 -0.375 -0.375 -0.375" stroke-width="1"></path></svg>