<svg xmlns="http://www.w3.org/2000/svg" fill="none" viewBox="0 0 24 24" id="Fishing-Hook-Fish-1--Streamline-Ultimate"><desc>Fishing Hook Fish 1 Streamline Icon: https://streamlinehq.com</desc><path stroke="#000000" stroke-linecap="round" stroke-linejoin="round" d="M17.25 0.75V3" stroke-width="1"></path><path stroke="#000000" stroke-linecap="round" stroke-linejoin="round" d="M17.25 6c0.8284 0 1.5 -0.67157 1.5 -1.5S18.0784 3 17.25 3s-1.5 0.67157 -1.5 1.5 0.6716 1.5 1.5 1.5Z" stroke-width="1"></path><path stroke="#000000" stroke-linecap="round" stroke-linejoin="round" d="M12.75 8.25V9c0 0.59674 0.2371 1.169 0.659 1.591 0.422 0.4219 0.9943 0.659 1.591 0.659s1.169 -0.2371 1.591 -0.659c0.4219 -0.422 0.659 -0.99426 0.659 -1.591V6" stroke-width="1"></path><path stroke="#000000" stroke-linecap="round" stroke-linejoin="round" d="M0.75 15s3.75 8.25 10.5 8.25c6 0 6.75 -4.5 6.75 -4.5s-0.75 -4.5 -6.75 -4.5C4.5 14.25 0.75 22.5 0.75 22.5" stroke-width="1"></path><path stroke="#000000" stroke-linecap="round" stroke-linejoin="round" d="M12.75 1.39c-0.2669 -0.19271 -0.5177 -0.406747 -0.75 -0.64 -0.4305 0.46837 -0.9527 0.84322 -1.5341 1.10126 -0.58147 0.25804 -1.20978 0.39377 -1.8459 0.39874 -0.63443 -0.00634 -1.26083 -0.14272 -1.84047 -0.40072C6.19989 1.59128 5.67933 1.21715 5.25 0.75c-0.59103 0.56936 -1.30178 0.99951 -2.08032 1.25903C2.39113 2.26854 1.56444 2.35087 0.75 2.25" stroke-width="1"></path><path stroke="#000000" stroke-linecap="round" stroke-linejoin="round" d="M23.25 2.25c-0.5007 0.00998 -1.0016 -0.01006 -1.5 -0.06" stroke-width="1"></path><g><path stroke="#000000" d="M14.255 19.13c-0.2071 0 -0.375 -0.1679 -0.375 -0.375s0.1679 -0.375 0.375 -0.375" stroke-width="1"></path><path stroke="#000000" d="M14.255 19.13c0.2071 0 0.375 -0.1679 0.375 -0.375s-0.1679 -0.375 -0.375 -0.375" stroke-width="1"></path></g></svg>