<svg xmlns="http://www.w3.org/2000/svg" fill="none" viewBox="0 0 24 24" id="Server-Question--Streamline-Ultimate"><desc>Server Question Streamline Icon: https://streamlinehq.com</desc><path stroke="#000000" stroke-linecap="round" stroke-linejoin="round" d="M12.751 9.75024H5.25098c-1.19348 0 -2.33807 -0.4741 -3.18198 -1.31802C1.22508 7.58831 0.750977 6.44372 0.750977 5.25024c0 -1.19347 0.474103 -2.33806 1.318023 -3.18198C2.91291 1.22435 4.0575 0.750244 5.25098 0.750244H17.251c0.9699 -0.000204 1.9139 0.312956 2.6913 0.892826 0.7775 0.57988 1.3468 1.39542 1.6231 2.32512 0.2764 0.9297 0.2449 1.9238 -0.0896 2.83417 -0.3346 0.91038 -0.9543 1.68831 -1.7668 2.21788" stroke-width="1"></path><path stroke="#000000" stroke-linecap="round" stroke-linejoin="round" d="M8.25098 18.7502h-3c-1.19348 0 -2.33807 -0.4741 -3.18198 -1.318 -0.84392 -0.8439 -1.318023 -1.9885 -1.318023 -3.182 0 -1.1934 0.474103 -2.338 1.318023 -3.1819 0.84391 -0.8439 1.9885 -1.31806 3.18198 -1.31806" stroke-width="1"></path><path stroke="#000000" stroke-linecap="round" stroke-linejoin="round" d="M10.501 5.25024h6.75" stroke-width="1"></path><path stroke="#000000" stroke-linecap="round" stroke-linejoin="round" d="M17.251 23.2502c3.3137 0 6 -2.6862 6 -6 0 -3.3137 -2.6863 -6 -6 -6s-6 2.6863 -6 6c0 3.3138 2.6863 6 6 6Z" stroke-width="1"></path><path stroke="#000000" stroke-linecap="round" stroke-linejoin="round" d="M15.376 16.1252c0 -0.3708 0.1099 -0.7333 0.316 -1.0416 0.206 -0.3084 0.4988 -0.5487 0.8414 -0.6906 0.3427 -0.1419 0.7197 -0.1791 1.0834 -0.1067 0.3637 0.0723 0.6978 0.2509 0.96 0.5131s0.4408 0.5963 0.5131 0.9601c0.0724 0.3637 0.0353 0.7407 -0.1066 1.0833 -0.142 0.3426 -0.3823 0.6354 -0.6906 0.8415 -0.3084 0.206 -0.6709 0.3159 -1.0417 0.3159" stroke-width="1"></path><path stroke="#000000" d="M5.25098 5.62524c-0.20711 0 -0.375 -0.16789 -0.375 -0.375 0 -0.2071 0.16789 -0.375 0.375 -0.375" stroke-width="1"></path><path stroke="#000000" d="M5.25098 5.62524c0.2071 0 0.375 -0.16789 0.375 -0.375 0 -0.2071 -0.1679 -0.375 -0.375 -0.375" stroke-width="1"></path><path stroke="#000000" d="M5.25098 14.6252c-0.20711 0 -0.375 -0.1678 -0.375 -0.375 0 -0.2071 0.16789 -0.375 0.375 -0.375" stroke-width="1"></path><path stroke="#000000" d="M5.25098 14.6252c0.2071 0 0.375 -0.1678 0.375 -0.375 0 -0.2071 -0.1679 -0.375 -0.375 -0.375" stroke-width="1"></path><g><path stroke="#000000" d="M17.251 21.0002c-0.2071 0 -0.375 -0.1678 -0.375 -0.375 0 -0.2071 0.1679 -0.375 0.375 -0.375" stroke-width="1"></path><path stroke="#000000" d="M17.251 21.0002c0.2071 0 0.375 -0.1678 0.375 -0.375 0 -0.2071 -0.1679 -0.375 -0.375 -0.375" stroke-width="1"></path></g></svg>