<svg xmlns="http://www.w3.org/2000/svg" fill="none" viewBox="0 0 24 24" id="Server-Edit-1--Streamline-Ultimate"><desc>Server Edit 1 Streamline Icon: https://streamlinehq.com</desc><path stroke="#000000" stroke-linecap="round" stroke-linejoin="round" d="M9.75098 3.7522H11.251" stroke-width="1"></path><path stroke="#000000" stroke-linecap="round" stroke-linejoin="round" d="M14.251 3.7522h1.5" stroke-width="1"></path><path stroke="#000000" stroke-linecap="round" stroke-linejoin="round" d="M9.75098 9.7522H11.251" stroke-width="1"></path><path stroke="#000000" stroke-linecap="round" stroke-linejoin="round" d="M14.251 9.7522h1.5" stroke-width="1"></path><path stroke="#000000" stroke-linecap="round" stroke-linejoin="round" d="M4.50098 18.7522h3.75v-6" stroke-width="1"></path><path stroke="#000000" stroke-linecap="round" stroke-linejoin="round" d="M18.751 3.7522c0 0.79565 -0.3161 1.55871 -0.8787 2.12132 -0.5626 0.56261 -1.3257 0.87868 -2.1213 0.87868H3.75098c-0.79565 0 -1.55871 -0.31607 -2.12132 -0.87868C1.06705 5.31091 0.750977 4.54785 0.750977 3.7522s0.316073 -1.55871 0.878683 -2.12132c0.56261 -0.56261 1.32567 -0.878683 2.12132 -0.878683H15.751c0.7956 0 1.5587 0.316073 2.1213 0.878683 0.5626 0.56261 0.8787 1.32567 0.8787 2.12132v0Z" stroke-width="1"></path><path stroke="#000000" stroke-linecap="round" stroke-linejoin="round" d="M14.251 12.7522H3.75098c-0.79565 0 -1.55871 -0.3161 -2.12132 -0.8787 -0.56261 -0.5626 -0.878683 -1.3257 -0.878683 -2.1213 0 -0.79565 0.316073 -1.55871 0.878683 -2.12132 0.56261 -0.56261 1.32567 -0.87868 2.12132 -0.87868H15.751c0.5269 -0.00034 1.0446 0.13812 1.5011 0.40144 0.4564 0.26332 0.8354 0.64222 1.0989 1.09856" stroke-width="1"></path><path stroke="#000000" stroke-linecap="round" stroke-linejoin="round" d="M22.631 14.8693 15 22.5003l-3.75 0.75 0.75 -3.75 7.63 -7.631c0.3968 -0.3967 0.9349 -0.6195 1.496 -0.6195s1.0992 0.2228 1.496 0.6195l0.008 0.009c0.3968 0.3965 0.6198 0.9344 0.6199 1.4953 0.0002 0.5609 -0.2224 1.0989 -0.6189 1.4957v0Z" stroke-width="1"></path><path stroke="#000000" d="M4.5 4.1272c-0.20711 0 -0.375 -0.1679 -0.375 -0.375 0 -0.20711 0.16789 -0.375 0.375 -0.375" stroke-width="1"></path><path stroke="#000000" d="M4.5 4.1272c0.20711 0 0.375 -0.1679 0.375 -0.375 0 -0.20711 -0.16789 -0.375 -0.375 -0.375" stroke-width="1"></path><path stroke="#000000" d="M4.5 10.1272c-0.20711 0 -0.375 -0.1679 -0.375 -0.375 0 -0.20711 0.16789 -0.375 0.375 -0.375" stroke-width="1"></path><path stroke="#000000" d="M4.5 10.1272c0.20711 0 0.375 -0.1679 0.375 -0.375 0 -0.20711 -0.16789 -0.375 -0.375 -0.375" stroke-width="1"></path><g><path stroke="#000000" d="M1.12701 18.7502c-0.207103 0 -0.374996 -0.1678 -0.374996 -0.375 0 -0.2071 0.167893 -0.375 0.374996 -0.375" stroke-width="1"></path><path stroke="#000000" d="M1.12701 18.7502c0.20711 0 0.375 -0.1678 0.375 -0.375 0 -0.2071 -0.16789 -0.375 -0.375 -0.375" stroke-width="1"></path></g></svg>