<svg xmlns="http://www.w3.org/2000/svg" fill="none" viewBox="0 0 24 24" id="Server-1--Streamline-Ultimate"><desc>Server 1 Streamline Icon: https://streamlinehq.com</desc><path stroke="#000000" stroke-linecap="round" stroke-linejoin="round" d="M12.001 6.00024h1.5" stroke-width="1"></path><path stroke="#000000" stroke-linecap="round" stroke-linejoin="round" d="M16.501 6.00024h1.5" stroke-width="1"></path><path stroke="#000000" stroke-linecap="round" stroke-linejoin="round" d="M12.001 12.0002h1.5" stroke-width="1"></path><path stroke="#000000" stroke-linecap="round" stroke-linejoin="round" d="M16.501 12.0002h1.5" stroke-width="1"></path><path stroke="#000000" stroke-linecap="round" stroke-linejoin="round" d="M12.001 15.0002v6" stroke-width="1"></path><path stroke="#000000" stroke-linecap="round" stroke-linejoin="round" d="M4.50098 21.0002H19.501" stroke-width="1"></path><path stroke="#000000" stroke-linecap="round" stroke-linejoin="round" d="M21 6.00024c0 0.79565 -0.3161 1.55872 -0.8787 2.12132 -0.5626 0.56261 -1.3257 0.87868 -2.1213 0.87868H6c-0.79565 0 -1.55871 -0.31607 -2.12132 -0.87868C3.31607 7.55896 3 6.79589 3 6.00024s0.31607 -1.55871 0.87868 -2.12132C4.44129 3.31631 5.20435 3.00024 6 3.00024h12c0.7956 0 1.5587 0.31607 2.1213 0.87868 0.5626 0.56261 0.8787 1.32567 0.8787 2.12132Z" stroke-width="1"></path><path stroke="#000000" stroke-linecap="round" stroke-linejoin="round" d="M21 12.0002c0 0.7957 -0.3161 1.5588 -0.8787 2.1214s-1.3257 0.8786 -2.1213 0.8786H6c-0.79565 0 -1.55871 -0.316 -2.12132 -0.8786C3.31607 13.559 3 12.7959 3 12.0002c0 -0.7956 0.31607 -1.5587 0.87868 -2.12128C4.44129 9.31631 5.20435 9.00024 6 9.00024h12c0.7956 0 1.5587 0.31607 2.1213 0.87868 0.5626 0.56258 0.8787 1.32568 0.8787 2.12128Z" stroke-width="1"></path><path stroke="#000000" d="M6.75098 6.37524c-0.20711 0 -0.375 -0.16789 -0.375 -0.375 0 -0.2071 0.16789 -0.375 0.375 -0.375" stroke-width="1"></path><path stroke="#000000" d="M6.75098 6.37524c0.2071 0 0.375 -0.16789 0.375 -0.375 0 -0.2071 -0.1679 -0.375 -0.375 -0.375" stroke-width="1"></path><path stroke="#000000" d="M6.75098 12.3752c-0.20711 0 -0.375 -0.1678 -0.375 -0.375 0 -0.2071 0.16789 -0.375 0.375 -0.375" stroke-width="1"></path><path stroke="#000000" d="M6.75098 12.3752c0.2071 0 0.375 -0.1678 0.375 -0.375 0 -0.2071 -0.1679 -0.375 -0.375 -0.375" stroke-width="1"></path><g><path stroke="#000000" d="M1.12598 21.0002c-0.20711 0 -0.375003 -0.1678 -0.375003 -0.375 0 -0.2071 0.167893 -0.375 0.375003 -0.375" stroke-width="1"></path><path stroke="#000000" d="M1.12598 21.0002c0.2071 0 0.375 -0.1678 0.375 -0.375 0 -0.2071 -0.1679 -0.375 -0.375 -0.375" stroke-width="1"></path></g><g><path stroke="#000000" d="M22.876 21.0002c-0.2071 0 -0.375 -0.1678 -0.375 -0.375 0 -0.2071 0.1679 -0.375 0.375 -0.375" stroke-width="1"></path><path stroke="#000000" d="M22.876 21.0002c0.2071 0 0.375 -0.1678 0.375 -0.375 0 -0.2071 -0.1679 -0.375 -0.375 -0.375" stroke-width="1"></path></g></svg>