<svg xmlns="http://www.w3.org/2000/svg" fill="none" viewBox="0 0 24 24" id="Server-Hand--Streamline-Ultimate"><desc>Server Hand Streamline Icon: https://streamlinehq.com</desc><path stroke="#000000" stroke-linecap="round" stroke-linejoin="round" d="M0.750977 14.2502v9" stroke-width="1"></path><path stroke="#000000" stroke-linecap="round" stroke-linejoin="round" d="M0.750977 21.7502H15.751c0 -0.7956 -0.3161 -1.5587 -0.8787 -2.1213 -0.5626 -0.5626 -1.3257 -0.8787 -2.1213 -0.8787H8.99998c0 -0.7956 -0.31607 -1.5587 -0.87868 -2.1213 -0.56261 -0.5626 -1.32567 -0.8787 -2.12132 -0.8787H0.750977" stroke-width="1"></path><path stroke="#000000" stroke-linecap="round" stroke-linejoin="round" d="M6.00098 18.7502h3" stroke-width="1"></path><path stroke="#000000" stroke-linecap="round" stroke-linejoin="round" d="M14.251 3.75024h4.5" stroke-width="1"></path><path stroke="#000000" stroke-linecap="round" stroke-linejoin="round" d="M14.251 9.75024h4.5" stroke-width="1"></path><path stroke="#000000" stroke-linecap="round" stroke-linejoin="round" d="M23.251 3.75024c0 0.79565 -0.3161 1.55872 -0.8787 2.12132 -0.5626 0.56261 -1.3257 0.87868 -2.1213 0.87868H8.25098c-0.79565 0 -1.55871 -0.31607 -2.12132 -0.87868 -0.56261 -0.5626 -0.87868 -1.32567 -0.87868 -2.12132s0.31607 -1.55871 0.87868 -2.12132c0.56261 -0.56261 1.32567 -0.878676 2.12132 -0.878676H20.251c0.7956 0 1.5587 0.316066 2.1213 0.878676 0.5626 0.56261 0.8787 1.32567 0.8787 2.12132v0Z" stroke-width="1"></path><path stroke="#000000" stroke-linecap="round" stroke-linejoin="round" d="M23.251 9.75024c0 0.79566 -0.3161 1.55876 -0.8787 2.12136 -0.5626 0.5626 -1.3257 0.8786 -2.1213 0.8786H8.25098c-0.79565 0 -1.55871 -0.316 -2.12132 -0.8786 -0.56261 -0.5626 -0.87868 -1.3257 -0.87868 -2.12136 0 -0.79565 0.31607 -1.55871 0.87868 -2.12132 0.56261 -0.56261 1.32567 -0.87868 2.12132 -0.87868H20.251c0.7956 0 1.5587 0.31607 2.1213 0.87868 0.5626 0.56261 0.8787 1.32567 0.8787 2.12132v0Z" stroke-width="1"></path><path stroke="#000000" d="M9 4.12524c-0.20711 0 -0.375 -0.16789 -0.375 -0.375 0 -0.2071 0.16789 -0.375 0.375 -0.375" stroke-width="1"></path><path stroke="#000000" d="M9 4.12524c0.20711 0 0.375 -0.16789 0.375 -0.375 0 -0.2071 -0.16789 -0.375 -0.375 -0.375" stroke-width="1"></path><g><path stroke="#000000" d="M9 10.1252c-0.20711 0 -0.375 -0.16785 -0.375 -0.37496 0 -0.2071 0.16789 -0.375 0.375 -0.375" stroke-width="1"></path><path stroke="#000000" d="M9 10.1252c0.20711 0 0.375 -0.16785 0.375 -0.37496 0 -0.2071 -0.16789 -0.375 -0.375 -0.375" stroke-width="1"></path></g></svg>