<svg xmlns="http://www.w3.org/2000/svg" fill="none" viewBox="0 0 24 24" id="Server-Question-1--Streamline-Ultimate"><desc>Server Question 1 Streamline Icon: https://streamlinehq.com</desc><path stroke="#000000" stroke-linecap="round" stroke-linejoin="round" d="M17.251 23.2502c3.3137 0 6 -2.6862 6 -6 0 -3.3137 -2.6863 -6 -6 -6s-6 2.6863 -6 6c0 3.3138 2.6863 6 6 6Z" stroke-width="1"></path><path stroke="#000000" stroke-linecap="round" stroke-linejoin="round" d="M15.376 16.1252c0 -0.3708 0.1099 -0.7333 0.316 -1.0416 0.206 -0.3084 0.4988 -0.5487 0.8414 -0.6906 0.3427 -0.1419 0.7197 -0.1791 1.0834 -0.1067 0.3637 0.0723 0.6978 0.2509 0.96 0.5131s0.4408 0.5963 0.5131 0.9601c0.0724 0.3637 0.0353 0.7407 -0.1066 1.0833 -0.142 0.3426 -0.3823 0.6354 -0.6906 0.8415 -0.3084 0.206 -0.6709 0.3159 -1.0417 0.3159" stroke-width="1"></path><path stroke="#000000" stroke-linecap="round" stroke-linejoin="round" d="M9.75098 3.75024H11.251" stroke-width="1"></path><path stroke="#000000" stroke-linecap="round" stroke-linejoin="round" d="M14.251 3.75024h1.5" stroke-width="1"></path><path stroke="#000000" stroke-linecap="round" stroke-linejoin="round" d="M9.75098 9.75024H11.251" stroke-width="1"></path><path stroke="#000000" stroke-linecap="round" stroke-linejoin="round" d="M4.50201 18.7502h3.749v-6" stroke-width="1"></path><path stroke="#000000" stroke-linecap="round" stroke-linejoin="round" d="M18.751 3.75024c0 0.79565 -0.3161 1.55872 -0.8787 2.12132 -0.5626 0.56261 -1.3257 0.87868 -2.1213 0.87868H3.75098c-0.79565 0 -1.55871 -0.31607 -2.12132 -0.87868 -0.56261 -0.5626 -0.878683 -1.32567 -0.878683 -2.12132s0.316073 -1.55871 0.878683 -2.12132c0.56261 -0.56261 1.32567 -0.878676 2.12132 -0.878676H15.751c0.7956 0 1.5587 0.316066 2.1213 0.878676 0.5626 0.56261 0.8787 1.32567 0.8787 2.12132v0Z" stroke-width="1"></path><path stroke="#000000" stroke-linecap="round" stroke-linejoin="round" d="M9.75098 12.7502h-6c-0.79565 0 -1.55871 -0.316 -2.12132 -0.8786 -0.56261 -0.5626 -0.878683 -1.3257 -0.878683 -2.12136 0 -0.79565 0.316073 -1.55871 0.878683 -2.12132 0.56261 -0.56261 1.32567 -0.87868 2.12132 -0.87868H15.751c0.5383 -0.00003 1.0667 0.14478 1.5298 0.41926 0.4631 0.27447 0.8438 0.66849 1.1022 1.14074" stroke-width="1"></path><path stroke="#000000" d="M4.5 4.12524c-0.20711 0 -0.375 -0.16789 -0.375 -0.375 0 -0.2071 0.16789 -0.375 0.375 -0.375" stroke-width="1"></path><path stroke="#000000" d="M4.5 4.12524c0.20711 0 0.375 -0.16789 0.375 -0.375 0 -0.2071 -0.16789 -0.375 -0.375 -0.375" stroke-width="1"></path><path stroke="#000000" d="M4.5 10.1252c-0.20711 0 -0.375 -0.16785 -0.375 -0.37496 0 -0.2071 0.16789 -0.375 0.375 -0.375" stroke-width="1"></path><path stroke="#000000" d="M4.5 10.1252c0.20711 0 0.375 -0.16785 0.375 -0.37496 0 -0.2071 -0.16789 -0.375 -0.375 -0.375" stroke-width="1"></path><g><path stroke="#000000" d="M1.12598 18.7502c-0.20711 0 -0.375003 -0.1678 -0.375003 -0.375 0 -0.2071 0.167893 -0.375 0.375003 -0.375" stroke-width="1"></path><path stroke="#000000" d="M1.12598 18.7502c0.2071 0 0.375 -0.1678 0.375 -0.375 0 -0.2071 -0.1679 -0.375 -0.375 -0.375" stroke-width="1"></path></g><g><path stroke="#000000" d="M17.251 21.0002c-0.2071 0 -0.375 -0.1678 -0.375 -0.375 0 -0.2071 0.1679 -0.375 0.375 -0.375" stroke-width="1"></path><path stroke="#000000" d="M17.251 21.0002c0.2071 0 0.375 -0.1678 0.375 -0.375 0 -0.2071 -0.1679 -0.375 -0.375 -0.375" stroke-width="1"></path></g></svg>