<svg xmlns="http://www.w3.org/2000/svg" fill="none" viewBox="0 0 24 24" id="Server-Phone-Exchange--Streamline-Ultimate"><desc>Server Phone Exchange Streamline Icon: https://streamlinehq.com</desc><path stroke="#000000" stroke-linecap="round" stroke-linejoin="round" d="M21.751 0.750244h-7.5c-0.8285 0 -1.5 0.671576 -1.5 1.499996v8.99996c0 0.8285 0.6715 1.5 1.5 1.5h7.5c0.8284 0 1.5 -0.6715 1.5 -1.5V2.25024c0 -0.82842 -0.6716 -1.499996 -1.5 -1.499996Z" stroke-width="1"></path><path stroke="#000000" stroke-linecap="round" stroke-linejoin="round" d="M12.751 6.75024h10.5" stroke-width="1"></path><path stroke="#000000" d="M15.751 10.1252c-0.2071 0 -0.375 -0.16785 -0.375 -0.37496 0 -0.2071 0.1679 -0.375 0.375 -0.375" stroke-width="1"></path><path stroke="#000000" d="M15.751 10.1252c0.2071 0 0.375 -0.16785 0.375 -0.37496 0 -0.2071 -0.1679 -0.375 -0.375 -0.375" stroke-width="1"></path><path stroke="#000000" d="M15.751 4.12524c-0.2071 0 -0.375 -0.16789 -0.375 -0.375 0 -0.2071 0.1679 -0.375 0.375 -0.375" stroke-width="1"></path><path stroke="#000000" d="M15.751 4.12524c0.2071 0 0.375 -0.16789 0.375 -0.375 0 -0.2071 -0.1679 -0.375 -0.375 -0.375" stroke-width="1"></path><path stroke="#000000" d="M4.5 20.6252c-0.20711 0 -0.375 -0.1678 -0.375 -0.375 0 -0.2071 0.16789 -0.375 0.375 -0.375" stroke-width="1"></path><path stroke="#000000" d="M4.5 20.6252c0.20711 0 0.375 -0.1678 0.375 -0.375 0 -0.2071 -0.16789 -0.375 -0.375 -0.375" stroke-width="1"></path><path stroke="#000000" stroke-linecap="round" stroke-linejoin="round" d="M20.251 3.75024h-1.5" stroke-width="1"></path><path stroke="#000000" stroke-linecap="round" stroke-linejoin="round" d="M20.251 9.75024h-1.5" stroke-width="1"></path><path stroke="#000000" stroke-linecap="round" stroke-linejoin="round" d="M5.251 6.75024 3 9.00024v-2.25c0 -0.79565 0.31607 -1.55871 0.87868 -2.12132C4.44129 4.06631 5.20435 3.75024 6 3.75024h4.5" stroke-width="1"></path><path stroke="#000000" stroke-linecap="round" stroke-linejoin="round" d="m0.750977 6.75024 2.250003 2.25" stroke-width="1"></path><path stroke="#000000" stroke-linecap="round" stroke-linejoin="round" d="m8.25098 1.50024 2.25002 2.25 -2.25002 2.25" stroke-width="1"></path><path stroke="#000000" stroke-linecap="round" stroke-linejoin="round" d="M6.75098 11.2502h-4.5c-0.82843 0 -1.500003 0.6716 -1.500003 1.5v9c0 0.8285 0.671573 1.5 1.500003 1.5h4.5c0.82842 0 1.5 -0.6715 1.5 -1.5v-9c0 -0.8284 -0.67158 -1.5 -1.5 -1.5Z" stroke-width="1"></path></svg>