<svg xmlns="http://www.w3.org/2000/svg" fill="none" viewBox="0 0 24 24" id="Server-Warning-500--Streamline-Ultimate"><desc>Server Warning 500 Streamline Icon: https://streamlinehq.com</desc><path stroke="#000000" stroke-linecap="round" stroke-linejoin="round" d="M11.251 0.750244 3.75098 12.7502H11.251" stroke-width="1"></path><path stroke="#000000" stroke-linecap="round" stroke-linejoin="round" d="m11.251 0.750244 7.5 11.999956h-7.5" stroke-width="1"></path><path stroke="#000000" d="M11.251 10.5002c-0.2071 0 -0.375 -0.1678 -0.375 -0.375 0 -0.20706 0.1679 -0.37496 0.375 -0.37496" stroke-width="1"></path><path stroke="#000000" d="M11.251 10.5002c0.2071 0 0.375 -0.1678 0.375 -0.375 0 -0.20706 -0.1679 -0.37496 -0.375 -0.37496" stroke-width="1"></path><path stroke="#000000" stroke-linecap="round" stroke-linejoin="round" d="M11.251 6.00024v1.5" stroke-width="1"></path><path stroke="#000000" stroke-linecap="round" stroke-linejoin="round" d="M2.25098 23.2502h2.625c0.24626 0.0002 0.49014 -0.0482 0.71768 -0.1424 0.22755 -0.0942 0.4343 -0.2323 0.60844 -0.4064 0.17413 -0.1742 0.31224 -0.3809 0.40642 -0.6085 0.09418 -0.2275 0.14259 -0.4714 0.14246 -0.7177 0 -3.333 -4.5 -0.417 -4.5 -3.75v-1.875h4.5" stroke-width="1"></path><path stroke="#000000" stroke-linecap="round" stroke-linejoin="round" d="M14.251 21.0002c0 0.5968 -0.2371 1.1691 -0.659 1.591 -0.422 0.422 -0.9943 0.659 -1.591 0.659 -0.5968 0 -1.1691 -0.237 -1.591 -0.659 -0.42197 -0.4219 -0.65902 -0.9942 -0.65902 -1.591v-3c0 -0.5967 0.23705 -1.169 0.65902 -1.5909 0.4219 -0.422 0.9942 -0.6591 1.591 -0.6591 0.5967 0 1.169 0.2371 1.591 0.6591 0.4219 0.4219 0.659 0.9942 0.659 1.5909v3Z" stroke-width="1"></path><path stroke="#000000" stroke-linecap="round" stroke-linejoin="round" d="M21.751 21.0002c0 0.5968 -0.2371 1.1691 -0.659 1.591 -0.422 0.422 -0.9943 0.659 -1.591 0.659 -0.5968 0 -1.1691 -0.237 -1.591 -0.659 -0.422 -0.4219 -0.659 -0.9942 -0.659 -1.591v-3c0 -0.5967 0.237 -1.169 0.659 -1.5909 0.4219 -0.422 0.9942 -0.6591 1.591 -0.6591 0.5967 0 1.169 0.2371 1.591 0.6591 0.4219 0.4219 0.659 0.9942 0.659 1.5909v3Z" stroke-width="1"></path></svg>