<svg xmlns="http://www.w3.org/2000/svg" fill="none" viewBox="0 0 24 24" id="Server-Check--Streamline-Ultimate"><desc>Server Check Streamline Icon: https://streamlinehq.com</desc><path stroke="#000000" stroke-linecap="round" stroke-linejoin="round" d="M12.751 9.75024H5.25098c-1.19348 0 -2.33807 -0.4741 -3.18198 -1.31802C1.22508 7.58831 0.750977 6.44372 0.750977 5.25024c0 -1.19347 0.474103 -2.33806 1.318023 -3.18198C2.91291 1.22435 4.0575 0.750244 5.25098 0.750244H17.251c0.9699 -0.000204 1.9139 0.312956 2.6913 0.892826 0.7775 0.57988 1.3468 1.39542 1.6231 2.32512 0.2764 0.9297 0.2449 1.9238 -0.0896 2.83417 -0.3346 0.91038 -0.9543 1.68831 -1.7668 2.21788" stroke-width="1"></path><path stroke="#000000" stroke-linecap="round" stroke-linejoin="round" d="M8.25098 18.7502h-3c-1.19348 0 -2.33807 -0.4741 -3.18198 -1.318 -0.84392 -0.8439 -1.318023 -1.9885 -1.318023 -3.182 0 -1.1934 0.474103 -2.338 1.318023 -3.1819 0.84391 -0.8439 1.9885 -1.31806 3.18198 -1.31806" stroke-width="1"></path><path stroke="#000000" stroke-linecap="round" stroke-linejoin="round" d="M10.501 5.25024h6.75" stroke-width="1"></path><path stroke="#000000" stroke-linecap="round" stroke-linejoin="round" d="M17.251 23.2502c3.3137 0 6 -2.6862 6 -6 0 -3.3137 -2.6863 -6 -6 -6s-6 2.6863 -6 6c0 3.3138 2.6863 6 6 6Z" stroke-width="1"></path><path stroke="#000000" stroke-linecap="round" stroke-linejoin="round" d="m19.925 15.5052 -2.905 3.874c-0.0646 0.086 -0.1468 0.157 -0.2413 0.2084 -0.0944 0.0514 -0.1987 0.0819 -0.3059 0.0894 -0.1072 0.0076 -0.2148 -0.0079 -0.3155 -0.0455 -0.1008 -0.0375 -0.1922 -0.0963 -0.2683 -0.1723l-1.5 -1.5" stroke-width="1"></path><path stroke="#000000" d="M5.25098 5.62524c-0.20711 0 -0.375 -0.16789 -0.375 -0.375 0 -0.2071 0.16789 -0.375 0.375 -0.375" stroke-width="1"></path><path stroke="#000000" d="M5.25098 5.62524c0.2071 0 0.375 -0.16789 0.375 -0.375 0 -0.2071 -0.1679 -0.375 -0.375 -0.375" stroke-width="1"></path><g><path stroke="#000000" d="M5.25098 14.6252c-0.20711 0 -0.375 -0.1678 -0.375 -0.375 0 -0.2071 0.16789 -0.375 0.375 -0.375" stroke-width="1"></path><path stroke="#000000" d="M5.25098 14.6252c0.2071 0 0.375 -0.1678 0.375 -0.375 0 -0.2071 -0.1679 -0.375 -0.375 -0.375" stroke-width="1"></path></g></svg>