<svg xmlns="http://www.w3.org/2000/svg" fill="none" viewBox="0 0 24 24" id="Server-Share-1--Streamline-Ultimate"><desc>Server Share 1 Streamline Icon: https://streamlinehq.com</desc><path stroke="#000000" stroke-linecap="round" stroke-linejoin="round" d="M9.75098 3.75024H11.251" stroke-width="1"></path><path stroke="#000000" stroke-linecap="round" stroke-linejoin="round" d="M14.251 3.75024h1.5" stroke-width="1"></path><path stroke="#000000" stroke-linecap="round" stroke-linejoin="round" d="M9.75098 9.75024H11.251" stroke-width="1"></path><path stroke="#000000" stroke-linecap="round" stroke-linejoin="round" d="M14.251 9.75024h1.5" stroke-width="1"></path><path stroke="#000000" stroke-linecap="round" stroke-linejoin="round" d="M4.50098 18.7502h3.75v-6" stroke-width="1"></path><path stroke="#000000" stroke-linecap="round" stroke-linejoin="round" d="M18.751 3.75024c0 0.79565 -0.3161 1.55872 -0.8787 2.12132 -0.5626 0.56261 -1.3257 0.87868 -2.1213 0.87868H3.75098c-0.79565 0 -1.55871 -0.31607 -2.12132 -0.87868 -0.56261 -0.5626 -0.878683 -1.32567 -0.878683 -2.12132s0.316073 -1.55871 0.878683 -2.12132c0.56261 -0.56261 1.32567 -0.878676 2.12132 -0.878676H15.751c0.7956 0 1.5587 0.316066 2.1213 0.878676 0.5626 0.56261 0.8787 1.32567 0.8787 2.12132v0Z" stroke-width="1"></path><path stroke="#000000" stroke-linecap="round" stroke-linejoin="round" d="M13.5 12.7502H3.75098c-0.79565 0 -1.55871 -0.316 -2.12132 -0.8786 -0.56261 -0.5626 -0.878683 -1.3257 -0.878683 -2.12136 0 -0.79564 0.316073 -1.55871 0.878683 -2.12132 0.56261 -0.5626 1.32567 -0.87868 2.12132 -0.87868H15.751c0.5269 -0.00033 1.0446 0.13813 1.5011 0.40145 0.4564 0.26332 0.8354 0.64221 1.0989 1.09855" stroke-width="1"></path><path stroke="#000000" stroke-linecap="round" stroke-linejoin="round" d="M13.501 20.2502c1.2426 0 2.25 -1.0073 2.25 -2.25 0 -1.2426 -1.0074 -2.25 -2.25 -2.25 -1.2427 0 -2.25 1.0074 -2.25 2.25 0 1.2427 1.0073 2.25 2.25 2.25Z" stroke-width="1"></path><path stroke="#000000" stroke-linecap="round" stroke-linejoin="round" d="M21.001 23.2502c1.2426 0 2.25 -1.0073 2.25 -2.25 0 -1.2426 -1.0074 -2.25 -2.25 -2.25 -1.2427 0 -2.25 1.0074 -2.25 2.25 0 1.2427 1.0073 2.25 2.25 2.25Z" stroke-width="1"></path><path stroke="#000000" stroke-linecap="round" stroke-linejoin="round" d="M21.001 15.7502c1.2426 0 2.25 -1.0073 2.25 -2.25 0 -1.2426 -1.0074 -2.25 -2.25 -2.25 -1.2427 0 -2.25 1.0074 -2.25 2.25 0 1.2427 1.0073 2.25 2.25 2.25Z" stroke-width="1"></path><path stroke="#000000" stroke-linecap="round" stroke-linejoin="round" d="m15.426 16.8453 3.65 -2.19" stroke-width="1"></path><path stroke="#000000" stroke-linecap="round" stroke-linejoin="round" d="m15.589 18.8352 3.324 1.33" stroke-width="1"></path><path stroke="#000000" d="M4.5 4.12524c-0.20711 0 -0.375 -0.16789 -0.375 -0.375 0 -0.2071 0.16789 -0.375 0.375 -0.375" stroke-width="1"></path><path stroke="#000000" d="M4.5 4.12524c0.20711 0 0.375 -0.16789 0.375 -0.375 0 -0.2071 -0.16789 -0.375 -0.375 -0.375" stroke-width="1"></path><path stroke="#000000" d="M4.5 10.1252c-0.20711 0 -0.375 -0.16785 -0.375 -0.37496 0 -0.2071 0.16789 -0.375 0.375 -0.375" stroke-width="1"></path><path stroke="#000000" d="M4.5 10.1252c0.20711 0 0.375 -0.16785 0.375 -0.37496 0 -0.2071 -0.16789 -0.375 -0.375 -0.375" stroke-width="1"></path><g><path stroke="#000000" d="M1.12598 18.7502c-0.20711 0 -0.375003 -0.1678 -0.375003 -0.375 0 -0.2071 0.167893 -0.375 0.375003 -0.375" stroke-width="1"></path><path stroke="#000000" d="M1.12598 18.7502c0.2071 0 0.375 -0.1678 0.375 -0.375 0 -0.2071 -0.1679 -0.375 -0.375 -0.375" stroke-width="1"></path></g></svg>