<svg xmlns="http://www.w3.org/2000/svg" fill="none" viewBox="0 0 24 24" id="Server-Download-1--Streamline-Ultimate"><desc>Server Download 1 Streamline Icon: https://streamlinehq.com</desc><path stroke="#000000" stroke-linecap="round" stroke-linejoin="round" d="M9.75 3.75024h1.5" stroke-width="1"></path><path stroke="#000000" stroke-linecap="round" stroke-linejoin="round" d="M14.25 3.75024h1.5" stroke-width="1"></path><path stroke="#000000" stroke-linecap="round" stroke-linejoin="round" d="M9.75 9.75024h1.5" stroke-width="1"></path><path stroke="#000000" stroke-linecap="round" stroke-linejoin="round" d="M4.50098 18.7502h3.75v-6" stroke-width="1"></path><path stroke="#000000" stroke-linecap="round" stroke-linejoin="round" d="M18.75 3.75024c0 0.79565 -0.3161 1.55872 -0.8787 2.12132 -0.5626 0.56261 -1.3257 0.87868 -2.1213 0.87868h-12c-0.79565 0 -1.55871 -0.31607 -2.12132 -0.87868C1.06607 5.30896 0.75 4.54589 0.75 3.75024s0.31607 -1.55871 0.87868 -2.12132C2.19129 1.06631 2.95435 0.750244 3.75 0.750244h12c0.7956 0 1.5587 0.316066 2.1213 0.878676 0.5626 0.56261 0.8787 1.32567 0.8787 2.12132Z" stroke-width="1"></path><path stroke="#000000" stroke-linecap="round" stroke-linejoin="round" d="M9 12.7502H3.75c-0.79565 0 -1.55871 -0.316 -2.12132 -0.8786C1.06607 11.309 0.75 10.5459 0.75 9.75024c0 -0.79564 0.31607 -1.55871 0.87868 -2.12132 0.56261 -0.5626 1.32567 -0.87868 2.12132 -0.87868h12c0.5269 -0.00033 1.0447 0.13813 1.5011 0.40145 0.4564 0.26332 0.8354 0.64221 1.0989 1.09855" stroke-width="1"></path><path stroke="#000000" stroke-linecap="round" stroke-linejoin="round" d="M17.251 23.2502c3.3137 0 6 -2.6862 6 -6 0 -3.3137 -2.6863 -6 -6 -6s-6 2.6863 -6 6c0 3.3138 2.6863 6 6 6Z" stroke-width="1"></path><path stroke="#000000" stroke-linecap="round" stroke-linejoin="round" d="M17.251 14.2502v6" stroke-width="1"></path><path stroke="#000000" stroke-linecap="round" stroke-linejoin="round" d="m17.251 20.2502 -2.25 -2.25" stroke-width="1"></path><path stroke="#000000" stroke-linecap="round" stroke-linejoin="round" d="m17.251 20.2502 2.25 -2.25" stroke-width="1"></path><path stroke="#000000" d="M4.50098 4.12524c-0.20711 0 -0.375 -0.16789 -0.375 -0.375 0 -0.2071 0.16789 -0.375 0.375 -0.375" stroke-width="1"></path><path stroke="#000000" d="M4.50098 4.12524c0.2071 0 0.375 -0.16789 0.375 -0.375 0 -0.2071 -0.1679 -0.375 -0.375 -0.375" stroke-width="1"></path><path stroke="#000000" d="M4.50098 10.1252c-0.20711 0 -0.375 -0.16785 -0.375 -0.37496 0 -0.2071 0.16789 -0.375 0.375 -0.375" stroke-width="1"></path><path stroke="#000000" d="M4.50098 10.1252c0.2071 0 0.375 -0.16785 0.375 -0.37496 0 -0.2071 -0.1679 -0.375 -0.375 -0.375" stroke-width="1"></path><g><path stroke="#000000" d="M1.12598 18.7502c-0.20711 0 -0.375003 -0.1678 -0.375003 -0.375 0 -0.2071 0.167893 -0.375 0.375003 -0.375" stroke-width="1"></path><path stroke="#000000" d="M1.12598 18.7502c0.2071 0 0.375 -0.1678 0.375 -0.375 0 -0.2071 -0.1679 -0.375 -0.375 -0.375" stroke-width="1"></path></g></svg>