<svg viewBox="0 0 24 24" xmlns="http://www.w3.org/2000/svg" id="Maps-Pin-2--Streamline-Ultimate"><desc>Maps Pin 2 Streamline Icon: https://streamlinehq.com</desc><path d="M8.25 11.769a1.511 1.511 0 0 1 -0.557 -0.107L1.779 9.3A0.75 0.75 0 0 0 0.75 10v9.35a1.5 1.5 0 0 0 0.943 1.393l6 2.4a1.5 1.5 0 0 0 1.114 0l6.386 -2.555a1.5 1.5 0 0 1 1.114 0l5.914 2.366a0.75 0.75 0 0 0 1.029 -0.7V12.9a1.5 1.5 0 0 0 -0.943 -1.393l-6 -2.4a1.5 1.5 0 0 0 -1.114 0l-0.906 0.363" fill="none" stroke="#000000" stroke-linecap="round" stroke-linejoin="round" stroke-width="1"></path><path d="m8.25 11.769 0 11.481" fill="none" stroke="#000000" stroke-linecap="round" stroke-linejoin="round" stroke-width="1"></path><path d="m15.75 9 0 11.481" fill="none" stroke="#000000" stroke-linecap="round" stroke-linejoin="round" stroke-width="1"></path><path d="m11.25 6.75 0 9" fill="none" stroke="#000000" stroke-linecap="round" stroke-linejoin="round" stroke-width="1"></path><path d="M8.25 3.75a3 3 0 1 0 6 0 3 3 0 1 0 -6 0Z" fill="none" stroke="#000000" stroke-linecap="round" stroke-linejoin="round" stroke-width="1"></path></svg>