<svg xmlns="http://www.w3.org/2000/svg" fill="none" viewBox="0 0 24 24" id="Maps-Direction-Pin--Streamline-Ultimate"><desc>Maps Direction Pin Streamline Icon: https://streamlinehq.com</desc><path stroke="#000000" stroke-linecap="round" stroke-linejoin="round" d="M2.8851 2.8652c-0.14104 -0.03852 -0.28891 -0.045 -0.43278 -0.01897 -0.14387 0.02604 -0.28009 0.08394 -0.39868 0.16945 -0.11859 0.08551 -0.21654 0.19648 -0.28669 0.32476 -0.07014 0.12828 -0.11069 0.27063 -0.11868 0.41661L0.773073 19.8692c-0.013483 0.228 0.053072 0.4535 0.188171 0.6377 0.135096 0.1841 0.330256 0.3153 0.551776 0.3708l4.84639 1.2114c0.16299 0.0409 0.33376 0.0392 0.49591 -0.0049l4.88558 -1.3319c0.1688 -0.046 0.3468 -0.046 0.5155 0l4.8856 1.3319c0.1622 0.0441 0.3329 0.0458 0.4959 0.0049l4.8484 -1.2114c0.2208 -0.0552 0.4155 -0.1856 0.5507 -0.3687 0.1352 -0.1831 0.2025 -0.4076 0.1902 -0.6349l-0.8703 -16.11214c-0.008 -0.14599 -0.0485 -0.28834 -0.1187 -0.41662 -0.0701 -0.12828 -0.1681 -0.23925 -0.2867 -0.32476 -0.1186 -0.08551 -0.2548 -0.14341 -0.3986 -0.16945 -0.1439 -0.02603 -0.2918 -0.01955 -0.4328 0.01897l-3.9487 1.07807c-0.1767 0.04873 -0.3636 0.04635 -0.539 -0.00686L13.302 2.9377" stroke-width="1"></path><path stroke="#000000" stroke-linecap="round" stroke-linejoin="round" d="M8.18946 1.88159c0.90857 0 1.77993 0.36093 2.42244 1.00339 0.6424 0.64246 1.0033 1.51382 1.0033 2.4224 0 1.46242 -2.0463 4.24568 -2.97582 5.43402 -0.05341 0.0684 -0.12168 0.1237 -0.19963 0.1617 -0.07796 0.038 -0.16356 0.0578 -0.25029 0.0578 -0.08674 0 -0.17234 -0.0198 -0.25029 -0.0578 -0.07796 -0.038 -0.14623 -0.0933 -0.19963 -0.1617 -0.92953 -1.1891 -2.97587 -3.9716 -2.97587 -5.43402 0 -0.90858 0.36093 -1.77994 1.00339 -2.4224s1.51382 -1.00339 2.4224 -1.00339v0Z" stroke-width="1"></path><path stroke="#000000" stroke-linecap="round" stroke-linejoin="round" d="M8.18961 5.52545c-0.15812 0 -0.28629 -0.12817 -0.28629 -0.28628 0 -0.15811 0.12817 -0.28629 0.28629 -0.28629" stroke-width="1"></path><path stroke="#000000" stroke-linecap="round" stroke-linejoin="round" d="M8.18954 5.52545c0.15812 0 0.28629 -0.12817 0.28629 -0.28628 0 -0.15811 -0.12817 -0.28629 -0.28629 -0.28629" stroke-width="1"></path><path stroke="#000000" stroke-dasharray="2 3" stroke-linecap="round" stroke-linejoin="round" d="M19.8716 13.739c-2.3533 -0.9315 -5.0072 -0.0397 -7.8191 2.2655 -2.81197 2.3052 -6.29407 0.7941 -7.28915 -2.7853" stroke-width="1"></path></svg>