<svg viewBox="0 0 24 24" xmlns="http://www.w3.org/2000/svg" id="Maps--Streamline-Ultimate"><desc>Maps Streamline Icon: https://streamlinehq.com</desc><path d="M16.307 2.838a1.5 1.5 0 0 0 -1.114 0L8.807 5.393a1.5 1.5 0 0 1 -1.114 0L1.779 3.027a0.75 0.75 0 0 0 -1.029 0.7V18.1a1.5 1.5 0 0 0 0.943 1.393l6 2.4a1.5 1.5 0 0 0 1.114 0l6.386 -2.555a1.5 1.5 0 0 1 1.114 0l5.914 2.362a0.75 0.75 0 0 0 1.029 -0.7V6.631a1.5 1.5 0 0 0 -0.943 -1.393Z" fill="none" stroke="#000000" stroke-linecap="round" stroke-linejoin="round" stroke-width="1"></path><path d="m8.25 5.5 0 16.5" fill="none" stroke="#000000" stroke-linecap="round" stroke-linejoin="round" stroke-width="1"></path><path d="m15.75 2.731 0 16.5" fill="none" stroke="#000000" stroke-linecap="round" stroke-linejoin="round" stroke-width="1"></path></svg>