<svg xmlns="http://www.w3.org/2000/svg" fill="none" viewBox="0 0 24 24" id="Maps-Mark--Streamline-Ultimate"><desc>Maps Mark Streamline Icon: https://streamlinehq.com</desc><path stroke="#000000" stroke-linecap="round" stroke-linejoin="round" d="M0.75 6.26001c-0.00005 -0.29985 0.089765 -0.59283 0.25785 -0.84113 0.16809 -0.2483 0.40674 -0.44053 0.68515 -0.55187l5.381 -2.152c0.3721 -0.14888 0.77025 -0.22168 1.17095 -0.21413 0.4007 0.00756 0.79583 0.09533 1.16205 0.25813l4.487 1.994c0.7097 0.31549 1.5141 0.34345 2.244 0.078l5.1 -1.855c0.2266 -0.08249 0.4698 -0.10911 0.7089 -0.0776 0.2391 0.0315 0.4671 0.12019 0.6647 0.25856 0.1975 0.13836 0.3588 0.32232 0.4701 0.53627 0.1113 0.21395 0.1694 0.45159 0.1693 0.69277V17.694c-0.0001 0.3077 -0.0949 0.608 -0.2714 0.8601 -0.1766 0.252 -0.4264 0.4437 -0.7156 0.5489l-6.125 2.228c-0.7299 0.2655 -1.5343 0.2375 -2.244 -0.078l-4.488 -1.994c-0.36622 -0.1628 -0.76135 -0.2506 -1.16205 -0.2581 -0.4007 -0.0076 -0.79885 0.0652 -1.17095 0.2141l-4.267 1.707c-0.22761 0.091 -0.47407 0.1249 -0.7178 0.0986 -0.24373 -0.0263 -0.47731 -0.1119 -0.68029 -0.2493 -0.20297 -0.1375 -0.36917 -0.3226 -0.48404 -0.5392 -0.114869 -0.2165 -0.174911 -0.458 -0.17487 -0.7031V6.26001Z" stroke-width="1"></path><path stroke="#000000" stroke-linecap="round" stroke-linejoin="round" d="m15.75 8.244 4.5 4.5" stroke-width="1"></path><path stroke="#000000" stroke-linecap="round" stroke-linejoin="round" d="m15.75 12.744 4.5 -4.5" stroke-width="1"></path><path stroke="#000000" d="M4.125 15.25c-0.20711 0 -0.375 -0.1679 -0.375 -0.375s0.16789 -0.375 0.375 -0.375" stroke-width="1"></path><path stroke="#000000" d="M4.125 15.25c0.20711 0 0.375 -0.1679 0.375 -0.375s-0.16789 -0.375 -0.375 -0.375" stroke-width="1"></path><path stroke="#000000" d="M6.375 12.25c-0.20711 0 -0.375 -0.1679 -0.375 -0.375s0.16789 -0.375 0.375 -0.375" stroke-width="1"></path><path stroke="#000000" d="M6.375 12.25c0.20711 0 0.375 -0.1679 0.375 -0.375s-0.16789 -0.375 -0.375 -0.375" stroke-width="1"></path><g><path stroke="#000000" d="M9.375 14.5c-0.20711 0 -0.375 -0.1679 -0.375 -0.375s0.16789 -0.375 0.375 -0.375" stroke-width="1"></path><path stroke="#000000" d="M9.375 14.5c0.20711 0 0.375 -0.1679 0.375 -0.375s-0.16789 -0.375 -0.375 -0.375" stroke-width="1"></path></g><g><path stroke="#000000" d="M12.375 11.994c-0.2071 0 -0.375 -0.1679 -0.375 -0.375s0.1679 -0.375 0.375 -0.375" stroke-width="1"></path><path stroke="#000000" d="M12.375 11.994c0.2071 0 0.375 -0.1679 0.375 -0.375s-0.1679 -0.375 -0.375 -0.375" stroke-width="1"></path></g></svg>