<svg xmlns="http://www.w3.org/2000/svg" viewBox="0 0 24 24" id="Office-File-Glue--Streamline-Ultimate"><desc>Office File Glue Streamline Icon: https://streamlinehq.com</desc><g><path d="M12.75 12 4.5 12" fill="none" stroke="#000000" stroke-linecap="round" stroke-linejoin="round" stroke-width="1"></path><path d="m9 16.5 -4.5 0" fill="none" stroke="#000000" stroke-linecap="round" stroke-linejoin="round" stroke-width="1"></path><path d="m18 7.5 -13.5 0" fill="none" stroke="#000000" stroke-linecap="round" stroke-linejoin="round" stroke-width="1"></path><path d="M7.5 23.25H2.25a1.5 1.5 0 0 1 -1.5 -1.5V2.25a1.5 1.5 0 0 1 1.5 -1.5h15a1.52 1.52 0 0 1 1.05 0.42l3 2.89a1.49 1.49 0 0 1 0.45 1.07V9" fill="none" stroke="#000000" stroke-linecap="round" stroke-linejoin="round" stroke-width="1"></path><path d="M17.62 22.19a0.75 0.75 0 0 1 -1.06 0L13.38 19a0.75 0.75 0 0 1 0 -1.06l2.06 -2.07c0.1 -0.1 -0.18 0.09 5.39 -3.45a0.76 0.76 0 0 1 0.93 0.11L23 13.81a0.74 0.74 0 0 1 0.1 0.93c-3.5 5.56 -3.32 5.26 -3.42 5.38Z" fill="none" stroke="#000000" stroke-linecap="round" stroke-linejoin="round" stroke-width="1"></path><path d="m16.03 21.66 -1.59 1.59 -3.94 0 3.41 -3.71" fill="none" stroke="#000000" stroke-linecap="round" stroke-linejoin="round" stroke-width="1"></path></g></svg>