<svg viewBox="0 0 24 24" xmlns="http://www.w3.org/2000/svg" id="Office-File-Pps--Streamline-Ultimate"><desc>Office File Pps Streamline Icon: https://streamlinehq.com</desc><path d="m4.502 19.498 0 -7.5" fill="none" stroke="#000000" stroke-linecap="round" stroke-linejoin="round" stroke-width="1"></path><path d="M4.5 12h0.75a2.25 2.25 0 0 1 0 4.5H4.5" fill="none" stroke="#000000" stroke-linecap="round" stroke-linejoin="round" stroke-width="1"></path><path d="m10.502 19.498 0 -7.5" fill="none" stroke="#000000" stroke-linecap="round" stroke-linejoin="round" stroke-width="1"></path><path d="M10.5 12h0.75a2.25 2.25 0 0 1 0 4.5h-0.75" fill="none" stroke="#000000" stroke-linecap="round" stroke-linejoin="round" stroke-width="1"></path><path d="M19.5 12H18a1.5 1.5 0 0 0 -1.5 1.5c0 2.25 3 2.25 3 4.5a1.5 1.5 0 0 1 -1.5 1.5h-1.5" fill="none" stroke="#000000" stroke-linecap="round" stroke-linejoin="round" stroke-width="1"></path><path d="M22.813 5.559a1.5 1.5 0 0 1 0.439 1.06V21A2.25 2.25 0 0 1 21 23.248H3A2.25 2.25 0 0 1 0.752 21V3A2.25 2.25 0 0 1 3 0.748h14.381a1.5 1.5 0 0 1 1.061 0.439Z" fill="none" stroke="#000000" stroke-linecap="round" stroke-linejoin="round" stroke-width="1"></path><path d="M17.252 0.748v4.5a1.5 1.5 0 0 0 1.5 1.5h4.5" fill="none" stroke="#000000" stroke-linecap="round" stroke-linejoin="round" stroke-width="1"></path></svg>