<svg xmlns="http://www.w3.org/2000/svg" viewBox="0 0 24 24" id="Office-File-Sheet-Alternate--Streamline-Ultimate"><desc>Office File Sheet Alternate Streamline Icon: https://streamlinehq.com</desc><g><path d="m9 11 0 8.5" fill="none" stroke="#000000" stroke-linecap="round" stroke-linejoin="round" stroke-width="1"></path><path d="m4.5 15.25 15 0" fill="none" stroke="#000000" stroke-linecap="round" stroke-linejoin="round" stroke-width="1"></path><g><path d="M22.81 5.56a1.5 1.5 0 0 1 0.44 1.06V21A2.25 2.25 0 0 1 21 23.25H3A2.25 2.25 0 0 1 0.75 21V3A2.25 2.25 0 0 1 3 0.75h14.38a1.5 1.5 0 0 1 1.06 0.44Z" fill="none" stroke="#000000" stroke-linecap="round" stroke-linejoin="round" stroke-width="1"></path><path d="M17.25 0.75v4.5a1.5 1.5 0 0 0 1.5 1.5h4.5" fill="none" stroke="#000000" stroke-linecap="round" stroke-linejoin="round" stroke-width="1"></path></g><path d="M19.5 18.75a0.76 0.76 0 0 1 -0.75 0.75H5.25a0.76 0.76 0 0 1 -0.75 -0.75V11h14.25a0.76 0.76 0 0 1 0.75 0.75Z" fill="none" stroke="#000000" stroke-linecap="round" stroke-linejoin="round" stroke-width="1"></path><path d="M13.5 11h-9V7.75A0.76 0.76 0 0 1 5.25 7h8.25" fill="none" stroke="#000000" stroke-linecap="round" stroke-linejoin="round" stroke-width="1"></path></g></svg>