<svg viewBox="0 0 24 24" xmlns="http://www.w3.org/2000/svg" id="Office-File-Doc-1--Streamline-Ultimate"><desc>Office File Doc 1 Streamline Icon: https://streamlinehq.com</desc><path d="M5.247 23.248h-3a1.5 1.5 0 0 1 -1.5 -1.5v-19.5a1.5 1.5 0 0 1 1.5 -1.5h10.629a1.5 1.5 0 0 1 1.061 0.439l5.871 5.872a1.5 1.5 0 0 1 0.439 1.06v4.629" fill="none" stroke="#000000" stroke-linecap="round" stroke-linejoin="round" stroke-width="1"></path><path d="M20.247 8.248h-6a1.5 1.5 0 0 1 -1.5 -1.5v-6" fill="none" stroke="#000000" stroke-linecap="round" stroke-linejoin="round" stroke-width="1"></path><path d="M8.247 23.248a3 3 0 0 0 3 -3v-1.5a3 3 0 0 0 -3 -3Z" fill="none" stroke="#000000" stroke-linecap="round" stroke-linejoin="round" stroke-width="1"></path><path d="M15.747 15.748a1.5 1.5 0 0 0 -1.5 1.5v4.5a1.5 1.5 0 1 0 3 0v-4.5a1.5 1.5 0 0 0 -1.5 -1.5Z" fill="none" stroke="#000000" stroke-linecap="round" stroke-linejoin="round" stroke-width="1"></path><path d="M23.247 15.748a3 3 0 0 0 -3 3v1.5a3 3 0 0 0 3 3" fill="none" stroke="#000000" stroke-linecap="round" stroke-linejoin="round" stroke-width="1"></path></svg>