<svg viewBox="0 0 24 24" xmlns="http://www.w3.org/2000/svg" id="Office-File-Module-Edit--Streamline-Ultimate"><desc>Office File Module Edit Streamline Icon: https://streamlinehq.com</desc><path d="m4.498 13.498 4.5 0 0 4.5 -4.5 0Z" fill="none" stroke="#000000" stroke-linecap="round" stroke-linejoin="round" stroke-width="1"></path><path d="m7.498 5.998 6 0 0 4.5 -6 0Z" fill="none" stroke="#000000" stroke-linecap="round" stroke-linejoin="round" stroke-width="1"></path><path d="M13.5 18a1.5 1.5 0 0 1 -1.5 -1.5V15a1.5 1.5 0 0 1 1.5 -1.5H15a1.5 1.5 0 0 1 1.5 1.5" fill="none" stroke="#000000" stroke-linecap="round" stroke-linejoin="round" stroke-width="1"></path><path d="m18.277 22.742 -2.529 0.506 0.506 -2.529 4.552 -4.552a1.43 1.43 0 0 1 2.023 0h0a1.43 1.43 0 0 1 0 2.023Z" fill="none" stroke="#000000" stroke-linecap="round" stroke-linejoin="round" stroke-width="1"></path><path d="M12 23.248H3A2.25 2.25 0 0 1 0.748 21V3A2.25 2.25 0 0 1 3 0.748h14.377a1.5 1.5 0 0 1 1.061 0.439l4.371 4.372a1.5 1.5 0 0 1 0.439 1.06v6.129" fill="none" stroke="#000000" stroke-linecap="round" stroke-linejoin="round" stroke-width="1"></path><path d="M17.248 0.748v4.5a1.5 1.5 0 0 0 1.5 1.5h4.5" fill="none" stroke="#000000" stroke-linecap="round" stroke-linejoin="round" stroke-width="1"></path></svg>