<svg viewBox="0 0 24 24" xmlns="http://www.w3.org/2000/svg" id="Office-File-Module-Edit-Alternate--Streamline-Ultimate"><desc>Office File Module Edit Alternate Streamline Icon: https://streamlinehq.com</desc><path d="m5.251 12.749 4.5 0 0 4.5 -4.5 0Z" fill="none" stroke="#000000" stroke-linecap="round" stroke-linejoin="round" stroke-width="1"></path><path d="m8.251 5.249 6 0 0 4.5 -6 0Z" fill="none" stroke="#000000" stroke-linecap="round" stroke-linejoin="round" stroke-width="1"></path><path d="M14.251 17.249a1.5 1.5 0 0 1 -1.5 -1.5v-1.5a1.5 1.5 0 0 1 1.5 -1.5h1.5a1.5 1.5 0 0 1 1.5 1.5" fill="none" stroke="#000000" stroke-linecap="round" stroke-linejoin="round" stroke-width="1"></path><path d="m18.28 22.743 -2.529 0.506 0.506 -2.529 4.552 -4.552a1.43 1.43 0 0 1 2.023 0h0a1.43 1.43 0 0 1 0 2.023Z" fill="none" stroke="#000000" stroke-linecap="round" stroke-linejoin="round" stroke-width="1"></path><path d="M12.751 23.249h-10.5a1.5 1.5 0 0 1 -1.5 -1.5v-19.5a1.5 1.5 0 0 1 1.5 -1.5h15a1.5 1.5 0 0 1 1.048 0.426l3 2.883a1.5 1.5 0 0 1 0.452 1.074v7.617" fill="none" stroke="#000000" stroke-linecap="round" stroke-linejoin="round" stroke-width="1"></path></svg>