<svg xmlns="http://www.w3.org/2000/svg" viewBox="0 0 24 24" id="Office-File-Presentation--Streamline-Ultimate"><desc>Office File Presentation Streamline Icon: https://streamlinehq.com</desc><g><g><path d="M22.81 5.56a1.5 1.5 0 0 1 0.44 1.06V21A2.25 2.25 0 0 1 21 23.25H3A2.25 2.25 0 0 1 0.75 21V3A2.25 2.25 0 0 1 3 0.75h14.38a1.5 1.5 0 0 1 1.06 0.44Z" fill="none" stroke="#000000" stroke-linecap="round" stroke-linejoin="round" stroke-width="1"></path><path d="M17.25 0.75v4.5a1.5 1.5 0 0 0 1.5 1.5h4.5" fill="none" stroke="#000000" stroke-linecap="round" stroke-linejoin="round" stroke-width="1"></path></g><g><path d="M17.25 9.75v4.5a0.76 0.76 0 0 1 -0.75 0.75h-9a0.76 0.76 0 0 1 -0.75 -0.75v-6a0.76 0.76 0 0 1 0.75 -0.75H15" fill="none" stroke="#000000" stroke-linecap="round" stroke-linejoin="round" stroke-width="1"></path><path d="m12 15 0 1.5" fill="none" stroke="#000000" stroke-linecap="round" stroke-linejoin="round" stroke-width="1"></path><path d="m9 19.5 3 -3" fill="none" stroke="#000000" stroke-linecap="round" stroke-linejoin="round" stroke-width="1"></path><path d="m15 19.5 -3 -3" fill="none" stroke="#000000" stroke-linecap="round" stroke-linejoin="round" stroke-width="1"></path></g></g></svg>