<svg viewBox="0 0 24 24" xmlns="http://www.w3.org/2000/svg" id="Office-File-Hierarchy-Alternate--Streamline-Ultimate"><desc>Office File Hierarchy Alternate Streamline Icon: https://streamlinehq.com</desc><path d="m5.249 14.999 4.5 0 0 4.5 -4.5 0Z" fill="none" stroke="#000000" stroke-linecap="round" stroke-linejoin="round" stroke-width="1"></path><path d="m8.249 4.499 6 0 0 4.5 -6 0Z" fill="none" stroke="#000000" stroke-linecap="round" stroke-linejoin="round" stroke-width="1"></path><path d="m12.749 14.999 4.5 0 0 4.5 -4.5 0Z" fill="none" stroke="#000000" stroke-linecap="round" stroke-linejoin="round" stroke-width="1"></path><path d="m5.999 11.999 10.5 0" fill="none" stroke="#000000" stroke-linecap="round" stroke-linejoin="round" stroke-width="1"></path><path d="m11.249 11.999 0 1.5" fill="none" stroke="#000000" stroke-linecap="round" stroke-linejoin="round" stroke-width="1"></path><path d="M22.81 5.559a1.5 1.5 0 0 1 0.439 1.061V21A2.25 2.25 0 0 1 21 23.249H3A2.251 2.251 0 0 1 0.749 21V3A2.25 2.25 0 0 1 3 0.749h14.378a1.5 1.5 0 0 1 1.061 0.439Z" fill="none" stroke="#000000" stroke-linecap="round" stroke-linejoin="round" stroke-width="1"></path><path d="M17.249 0.749v4.5a1.5 1.5 0 0 0 1.5 1.5h4.5" fill="none" stroke="#000000" stroke-linecap="round" stroke-linejoin="round" stroke-width="1"></path></svg>