<svg viewBox="0 0 24 24" xmlns="http://www.w3.org/2000/svg" id="Office-File-Pdf-1--Streamline-Ultimate"><desc>Office File Pdf 1 Streamline Icon: https://streamlinehq.com</desc><path d="M5.246 23.248h-3a1.5 1.5 0 0 1 -1.5 -1.5v-19.5a1.5 1.5 0 0 1 1.5 -1.5h10.629a1.5 1.5 0 0 1 1.061 0.44l5.871 5.871a1.5 1.5 0 0 1 0.439 1.061v4.628" fill="none" stroke="#000000" stroke-linecap="round" stroke-linejoin="round" stroke-width="1"></path><path d="M20.246 8.248h-6a1.5 1.5 0 0 1 -1.5 -1.5v-6" fill="none" stroke="#000000" stroke-linecap="round" stroke-linejoin="round" stroke-width="1"></path><path d="m8.246 23.248 0 -7.5" fill="none" stroke="#000000" stroke-linecap="round" stroke-linejoin="round" stroke-width="1"></path><path d="M8.246 15.748H9a2.25 2.25 0 0 1 0 4.5h-0.75" fill="none" stroke="#000000" stroke-linecap="round" stroke-linejoin="round" stroke-width="1"></path><path d="M14.246 23.248a3 3 0 0 0 3 -3v-1.5a3 3 0 0 0 -3 -3Z" fill="none" stroke="#000000" stroke-linecap="round" stroke-linejoin="round" stroke-width="1"></path><path d="M20.246 23.248v-6a1.5 1.5 0 0 1 1.5 -1.5h1.5" fill="none" stroke="#000000" stroke-linecap="round" stroke-linejoin="round" stroke-width="1"></path><path d="m20.246 20.248 2.25 0" fill="none" stroke="#000000" stroke-linecap="round" stroke-linejoin="round" stroke-width="1"></path></svg>