<svg xmlns="http://www.w3.org/2000/svg" viewBox="0 0 24 24" id="Antenna--Streamline-Ultimate"><desc>Antenna Streamline Icon: https://streamlinehq.com</desc><defs></defs><title>antenna</title><path d="M11.266 15.23a3.75 3.75 0 1 1 3.75 -3.75Z" fill="none" stroke="#000000" stroke-linecap="round" stroke-linejoin="round" stroke-width="1"></path><path d="m14.9784992258 3.3187012767 2.1213203436 -2.1213203436s1.0606601718 -1.0606601718 2.1213203435 0l2.1213203436 2.1213203436s1.0606601718 1.0606601718 0 2.1213203435l-2.1213203436 2.1213203436s-1.0606601717 1.0606601718 -2.1213203435 0l-2.1213203436 -2.1213203436s-1.0606601718 -1.0606601717 0 -2.1213203435" fill="none" stroke="#000000" stroke-linecap="round" stroke-linejoin="round" stroke-width="1"></path><path d="m1.1891632227 17.3139560852 2.1213203436 -2.1213203436s1.0606601718 -1.0606601718 2.1213203436 0l2.1213203435 2.1213203436s1.0606601718 1.0606601718 0 2.1213203435L5.43180391 21.5565967723s-1.0606601718 1.0606601718 -2.1213203436 0l-2.1213203436 -2.1213203436s-1.0606601717 -1.0606601717 0 -2.1213203435" fill="none" stroke="#000000" stroke-linecap="round" stroke-linejoin="round" stroke-width="1"></path><path d="m7.023 7.237 1.591 1.591" fill="none" stroke="#000000" stroke-linecap="round" stroke-linejoin="round" stroke-width="1"></path><path d="M16.969 13.763a5.265 5.265 0 0 1 -3.188 3.194" fill="none" stroke="#000000" stroke-linecap="round" stroke-linejoin="round" stroke-width="1"></path><path d="M20.15 13.413a8.256 8.256 0 0 1 -6.729 6.728" fill="none" stroke="#000000" stroke-linecap="round" stroke-linejoin="round" stroke-width="1"></path><path d="M23.25 12.664A11.25 11.25 0 0 1 12.5 23.25" fill="none" stroke="#000000" stroke-linecap="round" stroke-linejoin="round" stroke-width="1"></path></svg>