<svg xmlns="http://www.w3.org/2000/svg" viewBox="0 0 24 24" id="Antenna-House-Connect--Streamline-Ultimate"><desc>Antenna House Connect Streamline Icon: https://streamlinehq.com</desc><g><path d="M9 19.46 5.26 10.5 1.5 19.46" fill="none" stroke="#000000" stroke-linecap="round" stroke-linejoin="round" stroke-width="1"></path><path d="m5.26 10.5 0 -2.25" fill="none" stroke="#000000" stroke-linecap="round" stroke-linejoin="round" stroke-width="1"></path><path d="M3 5.63a2.12 2.12 0 0 1 2.25 -2 2.12 2.12 0 0 1 2.25 2" fill="none" stroke="#000000" stroke-linecap="round" stroke-linejoin="round" stroke-width="1"></path><path d="M0.75 4.67A4.23 4.23 0 0 1 5.25 0.75a4.23 4.23 0 0 1 4.5 3.92" fill="none" stroke="#000000" stroke-linecap="round" stroke-linejoin="round" stroke-width="1"></path><path d="M5.25 20.25v2a1 1 0 0 0 1 1h11.48a1 1 0 0 0 1 -1V19.5" fill="none" stroke="#000000" stroke-linecap="round" stroke-linejoin="round" stroke-width="1"></path><g><path d="m21.75 14 0 5.5 -6 0 0 -5.5" fill="none" stroke="#000000" stroke-linecap="round" stroke-linejoin="round" stroke-width="1"></path><path d="m14.25 15 4.5 -3 4.5 3" fill="none" stroke="#000000" stroke-linecap="round" stroke-linejoin="round" stroke-width="1"></path></g><path d="m3.06 15.75 4.39 0" fill="none" stroke="#000000" stroke-linecap="round" stroke-linejoin="round" stroke-width="1"></path></g></svg>