<svg viewBox="0 0 24 24" xmlns="http://www.w3.org/2000/svg" id="House-Signal--Streamline-Ultimate"><desc>House Signal Streamline Icon: https://streamlinehq.com</desc><path d="M5.32 9a9.75 9.75 0 0 1 13.165 -0.029" fill="none" stroke="#000000" stroke-linecap="round" stroke-linejoin="round" stroke-width="1"></path><path d="M3 3.885a14.252 14.252 0 0 1 17.991 0.126" fill="none" stroke="#000000" stroke-linecap="round" stroke-linejoin="round" stroke-width="1"></path><path d="M7.419 15.948v5.8a1.5 1.5 0 0 0 1.5 1.5h6a1.5 1.5 0 0 0 1.5 -1.5v-5.8" fill="none" stroke="#000000" stroke-linecap="round" stroke-linejoin="round" stroke-width="1"></path><path d="m5.919 17.26 4.518 -3.953a2.25 2.25 0 0 1 2.963 0l4.519 3.953" fill="none" stroke="#000000" stroke-linecap="round" stroke-linejoin="round" stroke-width="1"></path><path d="M13.419 23.25h-3v-3a1.5 1.5 0 0 1 3 0Z" fill="none" stroke="#000000" stroke-linecap="round" stroke-linejoin="round" stroke-width="1"></path></svg>