<svg xmlns="http://www.w3.org/2000/svg" fill="none" viewBox="0 0 24 24" id="Monitor-Signal--Streamline-Ultimate"><desc>Monitor Signal Streamline Icon: https://streamlinehq.com</desc><path stroke="#000000" stroke-linecap="round" stroke-linejoin="round" d="M7.5 8.25H5.25c-0.39782 0 -0.77936 0.15804 -1.06066 0.43934 -0.2813 0.2813 -0.43934 0.66284 -0.43934 1.06066v7.5c0 0.3978 0.15804 0.7794 0.43934 1.0607s0.66284 0.4393 1.06066 0.4393h13.5c0.3978 0 0.7794 -0.158 1.0607 -0.4393s0.4393 -0.6629 0.4393 -1.0607v-7.5c0 -0.39782 -0.158 -0.77936 -0.4393 -1.06066 -0.2813 -0.2813 -0.6629 -0.43934 -1.0607 -0.43934H16.5" stroke-width="1"></path><path stroke="#000000" stroke-linecap="round" stroke-linejoin="round" d="M15 23.25H9l0.75 -4.5h4.5l0.75 4.5Z" stroke-width="1"></path><path stroke="#000000" stroke-linecap="round" stroke-linejoin="round" d="M6.75 23.25h10.5" stroke-width="1"></path><path stroke="#000000" d="M12 8.32599c-0.2071 0 -0.375 -0.16789 -0.375 -0.375s0.1679 -0.375 0.375 -0.375" stroke-width="1"></path><path stroke="#000000" d="M12 8.32599c0.2071 0 0.375 -0.16789 0.375 -0.375s-0.1679 -0.375 -0.375 -0.375" stroke-width="1"></path><path stroke="#000000" stroke-linecap="round" stroke-linejoin="round" d="M18 2.873C16.3018 1.49973 14.184 0.750549 12 0.750549c-2.18396 0 -4.30182 0.749181 -6 2.122451" stroke-width="1"></path><path stroke="#000000" stroke-linecap="round" stroke-linejoin="round" d="M8.5 5.24998c0.99059 -0.8011 2.226 -1.23814 3.5 -1.23814s2.5094 0.43704 3.5 1.23814" stroke-width="1"></path></svg>