<svg viewBox="0 0 24 24" xmlns="http://www.w3.org/2000/svg" id="Armchair-1--Streamline-Ultimate"><desc>Armchair 1 Streamline Icon: https://streamlinehq.com</desc><path d="M3.75 12.75V9a8.25 8.25 0 0 1 16.5 0v3.75" fill="none" stroke="#000000" stroke-linecap="round" stroke-linejoin="round" stroke-width="1"></path><path d="M20.25 12.75a3 3 0 0 0 -3 3H6.75a3 3 0 0 0 -3 -3h-1.5a1.5 1.5 0 0 0 0 3 1.5 1.5 0 0 1 1.5 1.5v3a1.5 1.5 0 0 0 1.5 1.5h13.5a1.5 1.5 0 0 0 1.5 -1.5v-3a1.5 1.5 0 0 1 1.5 -1.5 1.5 1.5 0 0 0 0 -3Z" fill="none" stroke="#000000" stroke-linecap="round" stroke-linejoin="round" stroke-width="1"></path><path d="m5.25 21.75 0 1.5" fill="none" stroke="#000000" stroke-linecap="round" stroke-linejoin="round" stroke-width="1"></path><path d="m18.75 21.75 0 1.5" fill="none" stroke="#000000" stroke-linecap="round" stroke-linejoin="round" stroke-width="1"></path><path d="m10.5 7.5 3 3" fill="none" stroke="#000000" stroke-linecap="round" stroke-linejoin="round" stroke-width="1"></path><path d="m13.5 7.5 -3 3" fill="none" stroke="#000000" stroke-linecap="round" stroke-linejoin="round" stroke-width="1"></path></svg>