<svg xmlns="http://www.w3.org/2000/svg" viewBox="0 0 24 24" id="Armchair-2--Streamline-Ultimate"><desc>Armchair 2 Streamline Icon: https://streamlinehq.com</desc><g><path d="M19.86 16a1.72 1.72 0 0 1 -1.72 1.73h-6.38a5.19 5.19 0 0 1 -5.15 -4.54l-0.88 -6.41A2.89 2.89 0 0 0 2.86 4.2a1.73 1.73 0 0 1 0 -3.45 7 7 0 0 1 6.94 6.4l0.55 4.85a2.6 2.6 0 0 0 2.57 2.27h5.22A1.72 1.72 0 0 1 19.86 16Z" fill="none" stroke="#000000" stroke-linecap="round" stroke-linejoin="round" stroke-width="1"></path><path d="m10.1 9.75 7.51 0" fill="none" stroke="#000000" stroke-linecap="round" stroke-linejoin="round" stroke-width="1"></path><path d="M19.85 15.82a3.75 3.75 0 0 1 -0.74 7.43H5.61" fill="none" stroke="#000000" stroke-linecap="round" stroke-linejoin="round" stroke-width="1"></path></g></svg>