<svg xmlns="http://www.w3.org/2000/svg" viewBox="0 0 24 24" id="Mask-Heart--Streamline-Ultimate"><desc>Mask Heart Streamline Icon: https://streamlinehq.com</desc><defs></defs><title>mask-heart</title><path d="M1.75 0.75h20.5s1 0 1 1v20.5s0 1 -1 1H1.75s-1 0 -1 -1V1.75s0 -1 1 -1" fill="none" stroke="#000000" stroke-linecap="round" stroke-linejoin="round" stroke-width="1"></path><path d="m12 19.5 -7.031 -7.616A4.442 4.442 0 0 1 4.19 6.9h0a4.08 4.08 0 0 1 6.66 -1.122L12 6.971l1.148 -1.192A4.079 4.079 0 0 1 19.805 6.9h0a4.438 4.438 0 0 1 -0.779 4.983Z" fill="none" stroke="#000000" stroke-linecap="round" stroke-linejoin="round" stroke-width="1"></path></svg>