<svg viewBox="0 0 24 24" xmlns="http://www.w3.org/2000/svg" id="Check-Payment-Give--Streamline-Ultimate"><desc>Check Payment Give Streamline Icon: https://streamlinehq.com</desc><path d="M15.75 18v0.75A2.25 2.25 0 0 1 13.5 21H3.75a3 3 0 0 1 -2.684 -1.658" fill="none" stroke="#000000" stroke-linecap="round" stroke-linejoin="round" stroke-width="1"></path><path d="M3.75 15h1.5a3 3 0 0 0 3 -3h2.25a2.25 2.25 0 0 0 0 -4.5H3.75a3 3 0 0 0 -3 3" fill="none" stroke="#000000" stroke-linecap="round" stroke-linejoin="round" stroke-width="1"></path><path d="M5.25 7.5v-3A1.5 1.5 0 0 1 6.75 3h15a1.5 1.5 0 0 1 1.5 1.5v9a1.5 1.5 0 0 1 -1.5 1.5h-12" fill="none" stroke="#000000" stroke-linecap="round" stroke-linejoin="round" stroke-width="1"></path><path d="M18.75 15a3 3 0 0 1 -3 3h-6" fill="none" stroke="#000000" stroke-linecap="round" stroke-linejoin="round" stroke-width="1"></path><path d="m15.75 7.5 7.5 0" fill="none" stroke="#000000" stroke-linecap="round" stroke-linejoin="round" stroke-width="1"></path><path d="m17.25 10.5 3 0" fill="none" stroke="#000000" stroke-linecap="round" stroke-linejoin="round" stroke-width="1"></path></svg>