<svg xmlns="http://www.w3.org/2000/svg" viewBox="0 0 24 24" id="Check-Payment-Sign--Streamline-Ultimate"><desc>Check Payment Sign Streamline Icon: https://streamlinehq.com</desc><g><path d="M4.5 20.25c0.49 -1.09 1.4 -2 2.5 -1.75a2 2 0 0 1 1.59 1.75s3.23 -1.44 4.91 0" fill="none" stroke="#000000" stroke-linecap="round" stroke-linejoin="round" stroke-width="1"></path><path d="M4.5 10.5H2.26A1.51 1.51 0 0 0 0.75 12v9.76a1.5 1.5 0 0 0 1.5 1.5h19.5a1.5 1.5 0 0 0 1.5 -1.5V12a1.5 1.5 0 0 0 -1.5 -1.5h-3" fill="none" stroke="#000000" stroke-linecap="round" stroke-linejoin="round" stroke-width="1"></path><path d="M15.82 14h3.61s0.32 0 0.32 0.32v2.86s0 0.32 -0.32 0.32h-3.61s-0.32 0 -0.32 -0.32v-2.86s0 -0.32 0.32 -0.32" fill="none" stroke="#000000" stroke-linecap="round" stroke-linejoin="round" stroke-width="1"></path><g><path d="M10.39 14.54 6.15 15.6l1.06 -4.24L16 2.58a2.25 2.25 0 0 1 3.18 0h0a2.25 2.25 0 0 1 0 3.18Z" fill="none" stroke="#000000" stroke-linecap="round" stroke-linejoin="round" stroke-width="1"></path><path d="m13.05 5.52 3.18 3.18" fill="none" stroke="#000000" stroke-linecap="round" stroke-linejoin="round" stroke-width="1"></path><path d="m16.23 2.34 -1.06 -1.06a1.49 1.49 0 0 0 -2.12 0L9.86 4.46" fill="none" stroke="#000000" stroke-linecap="round" stroke-linejoin="round" stroke-width="1"></path><path d="M19.17 2.58 21 0.75" fill="none" stroke="#000000" stroke-linecap="round" stroke-linejoin="round" stroke-width="1"></path></g></g></svg>