<svg xmlns="http://www.w3.org/2000/svg" viewBox="0 0 24 24" id="Read-Email-Monitor--Streamline-Ultimate"><desc>Read Email Monitor Streamline Icon: https://streamlinehq.com</desc><defs></defs><title>read-email-monitor</title><path d="m15 22.5 -6 0 0.75 -4.5 4.5 0 0.75 4.5z" fill="none" stroke="#000000" stroke-linecap="round" stroke-linejoin="round" stroke-width="1"></path><path d="m6.75 22.5 10.5 0" fill="none" stroke="#000000" stroke-linecap="round" stroke-linejoin="round" stroke-width="1"></path><path d="M3.75 1.5h16.5s3 0 3 3V15s0 3 -3 3H3.75s-3 0 -3 -3V4.5s0 -3 3 -3" fill="none" stroke="#000000" stroke-linecap="round" stroke-linejoin="round" stroke-width="1"></path><path d="M8.25 6h7.5s1.5 0 1.5 1.5V12s0 1.5 -1.5 1.5h-7.5s-1.5 0 -1.5 -1.5V7.5s0 -1.5 1.5 -1.5" fill="none" stroke="#000000" stroke-linecap="round" stroke-linejoin="round" stroke-width="1"></path><path d="M7.13 6.503 12 10.5l4.869 -3.996" fill="none" stroke="#000000" stroke-linecap="round" stroke-linejoin="round" stroke-width="1"></path></svg>