<svg viewBox="0 0 24 24" xmlns="http://www.w3.org/2000/svg" id="Cursor-Type--Streamline-Ultimate"><desc>Cursor Type Streamline Icon: https://streamlinehq.com</desc><path d="M23.251 20.247a3 3 0 0 1 -3 3" fill="none" stroke="#000000" stroke-linecap="round" stroke-linejoin="round" stroke-width="1"></path><path d="M20.251 3.747a3 3 0 0 1 3 3" fill="none" stroke="#000000" stroke-linecap="round" stroke-linejoin="round" stroke-width="1"></path><path d="M6.751 23.247a3 3 0 0 1 -3 -3" fill="none" stroke="#000000" stroke-linecap="round" stroke-linejoin="round" stroke-width="1"></path><path d="m3.751 12.747 0 3" fill="none" stroke="#000000" stroke-linecap="round" stroke-linejoin="round" stroke-width="1"></path><path d="m23.251 11.247 0 4.5" fill="none" stroke="#000000" stroke-linecap="round" stroke-linejoin="round" stroke-width="1"></path><path d="m15.751 23.247 -4.5 0" fill="none" stroke="#000000" stroke-linecap="round" stroke-linejoin="round" stroke-width="1"></path><path d="m15.751 3.747 -3 0" fill="none" stroke="#000000" stroke-linecap="round" stroke-linejoin="round" stroke-width="1"></path><path d="m0.751 0.747 3.182 8.486L5.524 5.52l3.713 -1.591L0.751 0.747z" fill="none" stroke="#000000" stroke-linecap="round" stroke-linejoin="round" stroke-width="1"></path><path d="M17.251 8.247A3.285 3.285 0 0 1 19.5 7.5" fill="none" stroke="#000000" stroke-linecap="round" stroke-linejoin="round" stroke-width="1"></path><path d="M17.251 8.247A3.285 3.285 0 0 0 15 7.5" fill="none" stroke="#000000" stroke-linecap="round" stroke-linejoin="round" stroke-width="1"></path><path d="M17.251 19.5a3.285 3.285 0 0 0 2.25 0.75" fill="none" stroke="#000000" stroke-linecap="round" stroke-linejoin="round" stroke-width="1"></path><path d="M17.251 19.5a3.285 3.285 0 0 1 -2.25 0.75" fill="none" stroke="#000000" stroke-linecap="round" stroke-linejoin="round" stroke-width="1"></path><path d="m17.251 19.497 0 -11.25" fill="none" stroke="#000000" stroke-linecap="round" stroke-linejoin="round" stroke-width="1"></path></svg>