<svg viewBox="0 0 24 24" xmlns="http://www.w3.org/2000/svg" id="Cursor-Select-Heart--Streamline-Ultimate"><desc>Cursor Select Heart Streamline Icon: https://streamlinehq.com</desc><path d="m11.213 19.466 -1.62 -1.688" fill="none" stroke="#000000" stroke-linecap="round" stroke-linejoin="round" stroke-width="1"></path><path d="m7.432 15.527 -1.62 -1.689" fill="none" stroke="#000000" stroke-linecap="round" stroke-linejoin="round" stroke-width="1"></path><path d="M3.651 11.587c-0.534 -0.569 -1.093 -1.114 -1.607 -1.7" fill="none" stroke="#000000" stroke-linecap="round" stroke-linejoin="round" stroke-width="1"></path><path d="M0.805 7.054a5.571 5.571 0 0 1 0.167 -2.329" fill="none" stroke="#000000" stroke-linecap="round" stroke-linejoin="round" stroke-width="1"></path><path d="M2.594 2.1a5.752 5.752 0 0 1 2 -1.167" fill="none" stroke="#000000" stroke-linecap="round" stroke-linejoin="round" stroke-width="1"></path><path d="M7.651 0.756a5.362 5.362 0 0 1 2.107 0.952" fill="none" stroke="#000000" stroke-linecap="round" stroke-linejoin="round" stroke-width="1"></path><path d="M14.261 1.7A5.333 5.333 0 0 1 16.39 0.747" fill="none" stroke="#000000" stroke-linecap="round" stroke-linejoin="round" stroke-width="1"></path><path d="M19.469 0.95a5.718 5.718 0 0 1 2 1.206" fill="none" stroke="#000000" stroke-linecap="round" stroke-linejoin="round" stroke-width="1"></path><path d="M23.06 4.83a5.707 5.707 0 0 1 0.123 2.352" fill="none" stroke="#000000" stroke-linecap="round" stroke-linejoin="round" stroke-width="1"></path><path d="m21.861 10.004 -1.628 1.707" fill="none" stroke="#000000" stroke-linecap="round" stroke-linejoin="round" stroke-width="1"></path><path d="M16.684 23.034c-0.064 0.265 -0.2 0.273 -0.293 0.018L12.5 12.818c-0.1 -0.255 0.032 -0.385 0.287 -0.289l10.277 3.854c0.255 0.1 0.247 0.228 -0.017 0.294l-5.121 1.28Z" fill="none" stroke="#000000" stroke-linecap="round" stroke-linejoin="round" stroke-width="1"></path></svg>