<svg xmlns="http://www.w3.org/2000/svg" fill="none" viewBox="0 0 24 24" id="Hand-Pointer-Left--Streamline-Ultimate"><desc>Hand Pointer Left Streamline Icon: https://streamlinehq.com</desc><path stroke="#000000" stroke-linecap="round" stroke-linejoin="round" stroke-miterlimit="10" d="M9.60004 13.55c-0.9 0 -1.59999 0.7 -1.59999 1.6 0 0.9 0.69999 1.6 1.59999 1.6H11.2c-0.9 0 -1.59995 0.7001 -1.69995 1.7001 0 0.9 0.69995 1.5999 1.59995 1.5999h6.6c1.5 0 2.9 -0.5999 3.9 -1.5999s1.6 -2.4001 1.6 -3.9001v-4.0999c0 -1.50003 -0.7 -3.00005 -2 -3.90005L19.6 5.3501c-1.3 -0.9 -2.8 -1.40003 -4.4 -1.40003 -1.8 0 -3.2 1.39995 -3.2 3.19995H2.40004c-0.9 0 -1.599991 0.69998 -1.599991 1.59998 0 0.9 0.699991 1.6001 1.599991 1.6001h7.2c-0.9 0 -1.6 0.7 -1.6 1.6 0 0.9 0.7 1.5999 1.6 1.5999h0.8Zm0 0L11.2 13.5497m0.8 -6.40627h2.4m-3.2859 3.20797H9.51411" stroke-width="1"></path></svg>