<svg xmlns="http://www.w3.org/2000/svg" viewBox="0 0 24 24" id="Hand-Drag--Streamline-Ultimate"><desc>Hand Drag Streamline Icon: https://streamlinehq.com</desc><g><path d="M17.63 5.44V3.56a1.88 1.88 0 0 0 -3.76 0v-0.94a1.88 1.88 0 0 0 -3.75 0v0.94a1.88 1.88 0 0 0 -3.75 0v6.56a3.75 3.75 0 0 0 -3.75 3.76A8.83 8.83 0 0 0 4.26 19l1.37 1.91a5.63 5.63 0 0 0 4.58 2.36H15a6.4 6.4 0 0 0 6.41 -6.4V5.44a1.88 1.88 0 1 0 -3.75 0Z" fill="none" stroke="#000000" stroke-linecap="round" stroke-linejoin="round" stroke-width="1"></path><path d="m6.37 10.12 0 2.82" fill="none" stroke="#000000" stroke-linecap="round" stroke-linejoin="round" stroke-width="1"></path><path d="m10.12 8.25 0 -4.69" fill="none" stroke="#000000" stroke-linecap="round" stroke-linejoin="round" stroke-width="1"></path><path d="m13.87 8.25 0 -4.69" fill="none" stroke="#000000" stroke-linecap="round" stroke-linejoin="round" stroke-width="1"></path><path d="m17.63 8.25 0 -2.81" fill="none" stroke="#000000" stroke-linecap="round" stroke-linejoin="round" stroke-width="1"></path></g></svg>