<svg xmlns="http://www.w3.org/2000/svg" viewBox="0 0 24 24" id="Bridge-Golden-Gate--Streamline-Ultimate"><desc>Bridge Golden Gate Streamline Icon: https://streamlinehq.com</desc><g><g><path d="m6.74 1.5 0 17.25" fill="none" stroke="#000000" stroke-linecap="round" stroke-linejoin="round" stroke-width="1"></path><path d="m0.74 15 22.5 0" fill="none" stroke="#000000" stroke-linecap="round" stroke-linejoin="round" stroke-width="1"></path><path d="M23.26 15c-5.25 0 -6 -9.75 -6 -9.75S16.58 14.2 12 15c-4.58 -0.8 -5.26 -9.75 -5.26 -9.75S6 15 0.74 15" fill="none" stroke="#000000" stroke-linecap="round" stroke-linejoin="round" stroke-width="1"></path><path d="m17.26 1.5 0 17.25" fill="none" stroke="#000000" stroke-linecap="round" stroke-linejoin="round" stroke-width="1"></path><path d="M23.26 8.25c-3.75 0 -6 -3.75 -6 -3.75S15.75 8.25 12 8.25 6.74 4.5 6.74 4.5s-2.25 3.75 -6 3.75" fill="none" stroke="#000000" stroke-linecap="round" stroke-linejoin="round" stroke-width="1"></path></g><path d="M0.76 22.5a4.67 4.67 0 0 0 3.75 -1.9 4.65 4.65 0 0 0 7.5 0 4.65 4.65 0 0 0 7.5 0 4.64 4.64 0 0 0 3.75 1.9" fill="none" stroke="#000000" stroke-linecap="round" stroke-linejoin="round" stroke-width="1"></path></g></svg>