<svg xmlns="http://www.w3.org/2000/svg" fill="none" viewBox="0 0 24 24" id="Building-On-Fire--Streamline-Ultimate"><desc>Building On Fire Streamline Icon: https://streamlinehq.com</desc><path stroke="#000000" stroke-linecap="round" stroke-linejoin="round" d="M11.5554 5.75C11.6015 3.43809 9.97607 1 9.97607 1s7.61543 0 9.00003 6.00001c0.4088 1.77149 0.324 3.41739 0.0778 4.74999" stroke-width="1"></path><path stroke="#000000" stroke-linecap="round" stroke-linejoin="round" d="M19.4764 15.2181c0.971 -0.1235 2.1992 -0.8159 3 -3.2181 1.3561 1.8082 1.0775 9.3378 -3.4222 10.7657" stroke-width="1"></path><path stroke="#000000" stroke-linecap="round" stroke-linejoin="round" d="M4.83367 15.2181C3.78165 15.0946 2.4511 14.4022 1.58363 12 0.114486 13.8082 0.416307 21.3378 5.29102 22.7657" stroke-width="1"></path><path stroke="#000000" stroke-linecap="round" stroke-linejoin="round" d="M7.47607 9.5c0 -0.55228 0.44772 -1 1 -1h7.00003c0.5523 0 1 0.44772 1 1v13c0 0.1326 -0.0527 0.2598 -0.1465 0.3536 -0.0937 0.0937 -0.2209 0.1464 -0.3535 0.1464H7.97607c-0.1326 0 -0.25978 -0.0527 -0.35355 -0.1464 -0.09377 -0.0938 -0.14645 -0.221 -0.14645 -0.3536v-13Z" stroke-width="1"></path><path stroke="#000000" stroke-linecap="round" stroke-linejoin="round" d="M10.4761 15.5v0.75" stroke-width="1"></path><path stroke="#000000" stroke-linecap="round" stroke-linejoin="round" d="M10.4761 11.75v0.75" stroke-width="1"></path><path stroke="#000000" stroke-linecap="round" stroke-linejoin="round" d="M13.4761 15.5v0.75" stroke-width="1"></path><path stroke="#000000" stroke-linecap="round" stroke-linejoin="round" d="M13.4761 11.75v0.75" stroke-width="1"></path><path stroke="#000000" stroke-linecap="round" stroke-linejoin="round" d="M10.4761 19.25V20" stroke-width="1"></path><path stroke="#000000" stroke-linecap="round" stroke-linejoin="round" d="M13.4761 19.25V20" stroke-width="1"></path></svg>