<svg xmlns="http://www.w3.org/2000/svg" fill="none" viewBox="0 0 24 24" id="Car-Bomb-2--Streamline-Ultimate"><desc>Car Bomb 2 Streamline Icon: https://streamlinehq.com</desc><path stroke="#000000" stroke-linecap="round" stroke-linejoin="round" d="M17.25 22c0.8284 0 1.5 -0.6716 1.5 -1.5s-0.6716 -1.5 -1.5 -1.5 -1.5 0.6716 -1.5 1.5 0.6716 1.5 1.5 1.5Z" stroke-width="1"></path><path stroke="#000000" stroke-linecap="round" stroke-linejoin="round" d="M5.25 22c0.82843 0 1.5 -0.6716 1.5 -1.5S6.07843 19 5.25 19s-1.5 0.6716 -1.5 1.5 0.67157 1.5 1.5 1.5Z" stroke-width="1"></path><path stroke="#000000" stroke-linecap="round" stroke-linejoin="round" d="M15.75 20.5h-9" stroke-width="1"></path><path stroke="#000000" stroke-linecap="round" stroke-linejoin="round" d="M3.75 20.5h-1.5c-0.39782 0 -0.77936 -0.158 -1.06066 -0.4393C0.908035 19.7794 0.75 19.3978 0.75 19v-1.5c0 -0.7956 0.31607 -1.5587 0.87868 -2.1213C2.19129 14.8161 2.95435 14.5 3.75 14.5l0.9175 -1.8355M8 10l6.827 0c0.2786 -0.00008 0.5517 0.0774 0.7888 0.2239 0.237 0.1464 0.4286 0.3559 0.5532 0.6051L18 14.5h2.25c0.7956 0 1.5587 0.3161 2.1213 0.8787 0.5626 0.5626 0.8787 1.3257 0.8787 2.1213V19c0 0.3978 -0.158 0.7794 -0.4393 1.0607s-0.6629 0.4393 -1.0607 0.4393h-3" stroke-width="1"></path><path stroke="#000000" stroke-linecap="round" stroke-linejoin="round" d="M18 14.5H3.75" stroke-width="1"></path><path stroke="#000000" stroke-linecap="round" stroke-linejoin="round" d="M11 10V9c0 -1.65685 -1.34315 -3 -3 -3H5" stroke-width="1"></path><path stroke="#000000" stroke-linecap="round" stroke-linejoin="round" d="M5 2v1" stroke-width="1"></path><path stroke="#000000" stroke-linecap="round" stroke-linejoin="round" d="M2 6H1" stroke-width="1"></path><path stroke="#000000" stroke-linecap="round" stroke-linejoin="round" d="M2.5 3.5 2 3" stroke-width="1"></path><path stroke="#000000" stroke-linecap="round" stroke-linejoin="round" d="M2.5 8.5 2 9" stroke-width="1"></path><path stroke="#000000" stroke-linecap="round" stroke-linejoin="round" d="M5 9v1" stroke-width="1"></path></svg>