<svg xmlns="http://www.w3.org/2000/svg" fill="none" viewBox="0 0 24 24" id="Car-Bomb-1--Streamline-Ultimate"><desc>Car Bomb 1 Streamline Icon: https://streamlinehq.com</desc><path stroke="#000000" stroke-linecap="round" stroke-linejoin="round" d="M17.25 22.5c0.8284 0 1.5 -0.6716 1.5 -1.5s-0.6716 -1.5 -1.5 -1.5 -1.5 0.6716 -1.5 1.5 0.6716 1.5 1.5 1.5Z" stroke-width="1"></path><path stroke="#000000" stroke-linecap="round" stroke-linejoin="round" d="M5.25 22.5c0.82843 0 1.5 -0.6716 1.5 -1.5s-0.67157 -1.5 -1.5 -1.5 -1.5 0.6716 -1.5 1.5 0.67157 1.5 1.5 1.5Z" stroke-width="1"></path><path stroke="#000000" stroke-linecap="round" stroke-linejoin="round" d="M15.75 21h-9" stroke-width="1"></path><path stroke="#000000" stroke-linecap="round" stroke-linejoin="round" d="M3.75027 21H3c-1.10457 0 -2 -0.8954 -2 -2V9.5c0 -1.10457 0.89543 -2 2 -2m14.5528 1.10557 1.5537 3.10753c0.2508 0.5014 0.7004 0.8746 1.2395 1.0286l1.2034 0.3439c0.8586 0.2453 1.4506 1.03 1.4506 1.923V19c0 1.1046 -0.8954 2 -2 2h-2.25" stroke-width="1"></path><path stroke="#000000" stroke-linecap="round" stroke-linejoin="round" d="M5 12a5 5 0 1 0 10 0 5 5 0 1 0 -10 0" stroke-width="1"></path><path stroke="#000000" stroke-linecap="round" stroke-linejoin="round" d="M8 12c0 -1.1046 0.89543 -2 2 -2" stroke-width="1"></path><path stroke="#000000" stroke-linecap="round" stroke-linejoin="round" d="m13 8 2 -2" stroke-width="1"></path><path stroke="#000000" stroke-linecap="round" stroke-linejoin="round" d="m17.5 4 1 -1" stroke-width="1"></path><path stroke="#000000" stroke-linecap="round" stroke-linejoin="round" d="m12.5 4 -1 -1" stroke-width="1"></path><path stroke="#000000" stroke-linecap="round" stroke-linejoin="round" d="M15 1.5V3" stroke-width="1"></path></svg>