<svg xmlns="http://www.w3.org/2000/svg" fill="none" viewBox="0 0 24 24" id="Crime-Cut--Streamline-Ultimate"><desc>Crime Cut Streamline Icon: https://streamlinehq.com</desc><path stroke="#000000" stroke-linecap="round" stroke-linejoin="round" d="M10.393 21.342c-0.2813 0.2812 -0.66276 0.4392 -1.06051 0.4392 -0.39775 0 -0.77921 -0.158 -1.0605 -0.4392l-6.364 -6.364c-0.28121 -0.2813 -0.43918 -0.6627 -0.43918 -1.0605 0 -0.3977 0.15797 -0.7792 0.43918 -1.0605L13.575 1.18901c0.1393 -0.13939 0.3047 -0.249966 0.4867 -0.325409 0.1821 -0.075442 0.3772 -0.114272 0.5743 -0.114272 0.1971 0 0.3922 0.03883 0.5742 0.114272 0.1821 0.075443 0.3475 0.186019 0.4868 0.325409l6.364 6.364c0.1394 0.1393 0.25 0.3047 0.3254 0.48675 0.0754 0.18205 0.1143 0.37719 0.1143 0.57425s-0.0389 0.39219 -0.1143 0.57425c-0.0754 0.18205 -0.186 0.34745 -0.3254 0.48675l-0.825 0.82499" stroke-width="1"></path><path stroke="#000000" stroke-linecap="round" stroke-linejoin="round" d="M11.984 14.266c1.6569 0 3 -1.3432 3 -3 0 -1.65686 -1.3431 -3.00001 -3 -3.00001 -1.6568 0 -2.99999 1.34315 -2.99999 3.00001 0 1.6568 1.34319 3 2.99999 3Z" stroke-width="1"></path><path stroke="#000000" stroke-linecap="round" stroke-linejoin="round" d="M13.5 17.25v4.5c0 0.3978 0.158 0.7794 0.4393 1.0607s0.6629 0.4393 1.0607 0.4393c0.3978 0 0.7794 -0.158 1.0607 -0.4393s0.4393 -0.6629 0.4393 -1.0607v-4.5c0 0.3978 0.158 0.7794 0.4393 1.0607s0.6629 0.4393 1.0607 0.4393c0.3978 0 0.7794 -0.158 1.0607 -0.4393s0.4393 -0.6629 0.4393 -1.0607v-4.5" stroke-width="1"></path><path stroke="#000000" stroke-linecap="round" stroke-linejoin="round" d="M4.5 21.75c0 0.3978 -0.15804 0.7794 -0.43934 1.0607S3.39782 23.25 3 23.25c-0.39782 0 -0.77936 -0.158 -1.06066 -0.4393C1.65804 22.5294 1.5 22.1478 1.5 21.75v-3" stroke-width="1"></path><path stroke="#000000" d="M5.6203 14.266c-0.20711 0 -0.375 -0.1679 -0.375 -0.375s0.16789 -0.375 0.375 -0.375" stroke-width="1"></path><path stroke="#000000" d="M5.6203 14.266c0.20711 0 0.375 -0.1679 0.375 -0.375s-0.16789 -0.375 -0.375 -0.375" stroke-width="1"></path><g><path stroke="#000000" d="M18.3487 8.98883c-0.2071 0 -0.375 -0.16789 -0.375 -0.375s0.1679 -0.375 0.375 -0.375" stroke-width="1"></path><path stroke="#000000" d="M18.3487 8.98883c0.2071 0 0.375 -0.16789 0.375 -0.375s-0.1679 -0.375 -0.375 -0.375" stroke-width="1"></path></g></svg>