<svg xmlns="http://www.w3.org/2000/svg" viewBox="0 0 24 24" id="Crime-Tools-Tear-Gas-1--Streamline-Ultimate"><desc>Crime Tools Tear Gas 1 Streamline Icon: https://streamlinehq.com</desc><defs></defs><path d="M2.75 18.25h7.75l0 0v5l0 0H2.75a2 2 0 0 1 -2 -2v-1a2 2 0 0 1 2 -2Z" fill="none" stroke="#000000" stroke-linecap="round" stroke-linejoin="round" stroke-width="1"></path><path d="m5 18.25 0 5" fill="none" stroke="#000000" stroke-linecap="round" stroke-linejoin="round" stroke-width="1"></path><path d="m10.5 20.75 2 0" fill="none" stroke="#000000" stroke-linecap="round" stroke-linejoin="round" stroke-width="1"></path><path d="M20.25 2.25a1.5 1.5 0 1 0 3 0 1.5 1.5 0 1 0 -3 0" fill="none" stroke="#000000" stroke-linecap="round" stroke-linejoin="round" stroke-width="1"></path><path d="M0.75 10.25a2 2 0 1 0 4 0 2 2 0 1 0 -4 0" fill="none" stroke="#000000" stroke-linecap="round" stroke-linejoin="round" stroke-width="1"></path><path d="M23 11.5a3.986 3.986 0 0 0 -3.546 -3.954 2.962 2.962 0 0 0 -3.985 -2.353A4.49 4.49 0 1 0 11 10a4.444 4.444 0 0 0 2.7 -0.935 2.988 2.988 0 0 0 1.4 1.572 4.026 4.026 0 0 0 -0.1 0.863 3.922 3.922 0 0 0 1.054 2.654 2.792 2.792 0 1 0 3.558 1.262A3.972 3.972 0 0 0 23 11.5Z" fill="none" stroke="#000000" stroke-linecap="round" stroke-linejoin="round" stroke-width="1"></path></svg>