<svg xmlns="http://www.w3.org/2000/svg" viewBox="0 0 24 24" id="Crime-Wanted--Streamline-Ultimate"><desc>Crime Wanted Streamline Icon: https://streamlinehq.com</desc><defs></defs><title>crime-wanted</title><path d="M2.75 0.75h18.5s2 0 2 2v18.5s0 2 -2 2H2.75s-2 0 -2 -2V2.75s0 -2 2 -2" fill="none" stroke="#000000" stroke-linecap="round" stroke-linejoin="round" stroke-width="1"></path><path d="M9.375 6.375a2.625 2.625 0 1 0 5.25 0 2.625 2.625 0 1 0 -5.25 0" fill="none" stroke="#000000" stroke-linecap="round" stroke-linejoin="round" stroke-width="1"></path><path d="M16.243 12.75a4.5 4.5 0 0 0 -8.486 0" fill="none" stroke="#000000" stroke-linecap="round" stroke-linejoin="round" stroke-width="1"></path><path d="m3.75 12.75 16.5 0" fill="none" stroke="#000000" stroke-linecap="round" stroke-linejoin="round" stroke-width="1"></path><path d="M3.75 15.75h0.75a0.75 0.75 0 0 1 0.75 0.75v3.75" fill="none" stroke="#000000" stroke-linecap="round" stroke-linejoin="round" stroke-width="1"></path><path d="m3.75 20.25 3 0" fill="none" stroke="#000000" stroke-linecap="round" stroke-linejoin="round" stroke-width="1"></path><path d="M12.75 18.75a1.5 1.5 0 0 1 -3 0v-1.5a1.5 1.5 0 0 1 3 0Z" fill="none" stroke="#000000" stroke-linecap="round" stroke-linejoin="round" stroke-width="1"></path><path d="M18.75 18.75a1.5 1.5 0 0 1 -3 0v-1.5a1.5 1.5 0 0 1 3 0Z" fill="none" stroke="#000000" stroke-linecap="round" stroke-linejoin="round" stroke-width="1"></path></svg>