<svg xmlns="http://www.w3.org/2000/svg" viewBox="0 0 24 24" id="Crime-Spot-1--Streamline-Ultimate"><desc>Crime Spot 1 Streamline Icon: https://streamlinehq.com</desc><defs></defs><path d="M6.247 5.63a9 9 0 1 1 8 13.12q-0.456 0 -0.9 -0.044" fill="none" stroke="#000000" stroke-linecap="round" stroke-linejoin="round" stroke-width="1"></path><path d="M9.64 6.75a5.512 5.512 0 0 1 5.63 -2.406" fill="none" stroke="#000000" stroke-linecap="round" stroke-linejoin="round" stroke-width="1"></path><path d="M19.75 9.75a5.5 5.5 0 0 1 -5.5 5.5" fill="none" stroke="#000000" stroke-linecap="round" stroke-linejoin="round" stroke-width="1"></path><path d="m14.25 9.75 6.5 -6" fill="none" stroke="#000000" stroke-linecap="round" stroke-linejoin="round" stroke-width="1"></path><path d="M10.75 14.25c0 3.5 -5 9 -5 9s-5 -5.5 -5 -9a5 5 0 0 1 10 0Z" fill="none" stroke="#000000" stroke-linecap="round" stroke-linejoin="round" stroke-width="1"></path><path d="M4 14.25a1.75 1.75 0 1 0 3.5 0 1.75 1.75 0 1 0 -3.5 0" fill="none" stroke="#000000" stroke-linecap="round" stroke-linejoin="round" stroke-width="1"></path></svg>