<svg xmlns="http://www.w3.org/2000/svg" viewBox="0 0 24 24" id="Crime-Tools-Shackle--Streamline-Ultimate"><desc>Crime Tools Shackle Streamline Icon: https://streamlinehq.com</desc><defs></defs><path d="M9.084 14.648h0v-2.9H2.417v2.9h0A4.888 4.888 0 0 0 0.75 18.321a4.965 4.965 0 0 0 5 4.929 4.965 4.965 0 0 0 5 -4.929 4.888 4.888 0 0 0 -1.666 -3.673Z" fill="none" stroke="#000000" stroke-linecap="round" stroke-linejoin="round" stroke-width="1"></path><path d="M22.514 9.859a4.829 4.829 0 0 0 -3.281 -2.2h0L17.724 5.25 12.25 8.663l1.509 2.409h0a4.838 4.838 0 1 0 8.756 -1.213Z" fill="none" stroke="#000000" stroke-linecap="round" stroke-linejoin="round" stroke-width="1"></path><path d="M5.473 11.752c0 -3 -1.5 -6.591 1 -9.591C8.891 -0.74 15.649 0.821 15 6.95" fill="none" stroke="#000000" stroke-linecap="round" stroke-linejoin="round" stroke-width="1"></path><path d="M3.75 18.455a2 2 0 1 0 4 0 2 2 0 1 0 -4 0" fill="none" stroke="#000000" stroke-linecap="round" stroke-linejoin="round" stroke-width="1"></path><path d="M16.25 12.205a2 2 0 1 0 4 0 2 2 0 1 0 -4 0" fill="none" stroke="#000000" stroke-linecap="round" stroke-linejoin="round" stroke-width="1"></path></svg>