<svg xmlns="http://www.w3.org/2000/svg" viewBox="0 0 24 24" id="Crime-Seal-Forfeit--Streamline-Ultimate"><desc>Crime Seal Forfeit Streamline Icon: https://streamlinehq.com</desc><defs></defs><title>crime-seal-forfeit</title><path d="m21.75 18.75 1.5 4.5 -22.5 0 1.5 -4.5" fill="none" stroke="#000000" stroke-linecap="round" stroke-linejoin="round" stroke-width="1"></path><path d="M15 18.75c0 0.828 -1.343 1.5 -3 1.5s-3 -0.672 -3 -1.5" fill="none" stroke="#000000" stroke-linecap="round" stroke-linejoin="round" stroke-width="1"></path><path d="M18.75 15.75H5.25a1.5 1.5 0 0 1 -1.5 -1.5v-1.5h16.5v1.5a1.5 1.5 0 0 1 -1.5 1.5Z" fill="none" stroke="#000000" stroke-linecap="round" stroke-linejoin="round" stroke-width="1"></path><path d="M18.75 8.25h-3.4a4.5 4.5 0 1 0 -6.706 0H5.25a3 3 0 0 0 -3 3 1.5 1.5 0 0 0 1.5 1.5h16.5a1.5 1.5 0 0 0 1.5 -1.5 3 3 0 0 0 -3 -3Z" fill="none" stroke="#000000" stroke-linecap="round" stroke-linejoin="round" stroke-width="1"></path></svg>