<svg xmlns="http://www.w3.org/2000/svg" viewBox="0 0 24 24" id="Crime-Spot-2--Streamline-Ultimate"><desc>Crime Spot 2 Streamline Icon: https://streamlinehq.com</desc><defs></defs><path d="M18 7.25c0 4.2 -6 10 -6 10s-6 -5.8 -6 -10a6 6 0 0 1 12 0Z" fill="none" stroke="#000000" stroke-linecap="round" stroke-linejoin="round" stroke-width="1"></path><path d="M10 7.5a2 2 0 1 0 4 0 2 2 0 1 0 -4 0" fill="none" stroke="#000000" stroke-linecap="round" stroke-linejoin="round" stroke-width="1"></path><path d="m12 4.25 0 1.25" fill="none" stroke="#000000" stroke-linecap="round" stroke-linejoin="round" stroke-width="1"></path><path d="M15.25 7.5 14 7.5" fill="none" stroke="#000000" stroke-linecap="round" stroke-linejoin="round" stroke-width="1"></path><path d="m12 10.75 0 -1.25" fill="none" stroke="#000000" stroke-linecap="round" stroke-linejoin="round" stroke-width="1"></path><path d="m8.75 7.5 1.25 0" fill="none" stroke="#000000" stroke-linecap="round" stroke-linejoin="round" stroke-width="1"></path><path d="m18.5 14.25 1.75 0 3 8.5 -22.5 0 3 -8.5 1.75 0" fill="none" stroke="#000000" stroke-linecap="round" stroke-linejoin="round" stroke-width="1"></path></svg>