<svg xmlns="http://www.w3.org/2000/svg" viewBox="0 0 24 24" id="Crime-Tools-Loackpick-1--Streamline-Ultimate"><desc>Crime Tools Loackpick 1 Streamline Icon: https://streamlinehq.com</desc><defs></defs><path d="M3.75 10.5a2 2 0 0 0 -2 2v8.75a2 2 0 0 0 4 0V12.5a2 2 0 0 0 -2 -2Z" fill="none" stroke="#000000" stroke-linecap="round" stroke-linejoin="round" stroke-width="1"></path><path d="M12 10.5a2 2 0 0 0 -2 2v8.75a2 2 0 0 0 4 0V12.5a2 2 0 0 0 -2 -2Z" fill="none" stroke="#000000" stroke-linecap="round" stroke-linejoin="round" stroke-width="1"></path><path d="m3.75 10.5 0 -9.75 2.5 0" fill="none" stroke="#000000" stroke-linecap="round" stroke-linejoin="round" stroke-width="1"></path><path d="m3.75 4.25 2.5 0" fill="none" stroke="#000000" stroke-linecap="round" stroke-linejoin="round" stroke-width="1"></path><path d="m12 10.5 0 -4.75 -1 -1.5 2 -2 -2 -1.5" fill="none" stroke="#000000" stroke-linecap="round" stroke-linejoin="round" stroke-width="1"></path><path d="M20.25 10.5a2 2 0 0 0 -2 2v8.75a2 2 0 0 0 4 0V12.5a2 2 0 0 0 -2 -2Z" fill="none" stroke="#000000" stroke-linecap="round" stroke-linejoin="round" stroke-width="1"></path><path d="m20.25 10.5 0 -8.25 1.5 -1.5" fill="none" stroke="#000000" stroke-linecap="round" stroke-linejoin="round" stroke-width="1"></path></svg>