<svg xmlns="http://www.w3.org/2000/svg" fill="none" viewBox="0 0 24 24" id="Kidnapping-Woman--Streamline-Ultimate"><desc>Kidnapping Woman Streamline Icon: https://streamlinehq.com</desc><path stroke="#000000" stroke-linecap="round" stroke-linejoin="round" d="M13.258 10.2761c-0.3629 -0.2721 -0.8042 -0.41919 -1.2577 -0.41919s-0.8948 0.14709 -1.2576 0.41919" stroke-width="1"></path><path stroke="#000000" stroke-linecap="round" stroke-linejoin="round" d="M7.0376 8.37653c0.17099 1.02811 0.65867 1.98527 1.40527 2.73187 0.94342 0.9434 2.22293 1.4734 3.55713 1.4734s2.6137 -0.53 3.5572 -1.4734c0.7466 -0.7466 1.2342 -1.70376 1.4052 -2.73187" stroke-width="1"></path><path stroke="#000000" stroke-linecap="round" stroke-linejoin="round" d="M16.6962 4.07112c-0.2503 -0.65179 -0.6359 -1.25066 -1.1391 -1.75389C14.6137 1.37381 13.3342 0.843811 12 0.843811S9.38624 1.37381 8.44282 2.31723c-0.50323 0.50323 -0.88883 1.1021 -1.13911 1.75389" stroke-width="1"></path><path stroke="#000000" stroke-linecap="round" stroke-linejoin="round" d="M21.2228 18.5v-0.1381c0.0017 -0.2555 -0.0556 -0.508 -0.1676 -0.7376 -0.112 -0.2297 -0.2756 -0.4303 -0.478 -0.5863 -1.1151 -0.8543 -3.7729 -2.3601 -8.5771 -2.3601 -4.80421 0 -7.45783 1.5091 -8.57713 2.3601 -0.20241 0.156 -0.36601 0.3566 -0.478 0.5863 -0.112 0.2296 -0.16935 0.4821 -0.16759 0.7376l0 0.1381" stroke-width="1"></path><path stroke="#000000" stroke-linejoin="round" d="M12.0176 7.96897c1.5087 0.0008 3.5548 0.22891 4.8166 0.39064 0.6067 0.07776 1.15 -0.39268 1.15 -1.00436V5.11281c0 -0.49139 -0.3556 -0.90914 -0.8422 -0.97751 -1.2127 -0.1704 -3.4851 -0.45536 -5.1244 -0.45628 -1.6509 -0.00093 -3.94043 0.28552 -5.15912 0.45646 -0.4867 0.06826 -0.84237 0.48604 -0.84237 0.97751v2.24249c0 0.6116 0.54327 1.08202 1.14992 1.0044 1.26856 -0.16231 3.33137 -0.39172 4.85157 -0.39091Z" stroke-width="1"></path><path stroke="#000000" stroke-linecap="round" stroke-linejoin="round" d="M6.1311 6.43256c1.25764 -0.41922 3.06059 -0.57642 4.1135 -0.57642" stroke-width="1"></path><path stroke="#000000" stroke-linecap="round" stroke-linejoin="round" d="M14.4631 5.69897c1.2577 0.13101 2.1993 0.17433 3.2751 0.47162" stroke-width="1"></path><path stroke="#000000" stroke-linecap="round" stroke-linejoin="round" d="M7.44044 13.0719c-0.7779 0.1678 -1.58883 0.082 -2.31481 -0.2449 -0.06617 -0.0344 -0.12201 -0.086 -0.16177 -0.1493 -0.03976 -0.0633 -0.06201 -0.1361 -0.06446 -0.2109 -0.00245 -0.0748 0.01498 -0.1489 0.05052 -0.2147 0.03553 -0.0658 0.08788 -0.1209 0.15165 -0.1597 1.0872 -0.7208 1.60314 -2.31757 1.80782 -3.69006" stroke-width="1"></path><path stroke="#000000" stroke-linecap="round" stroke-linejoin="round" d="M16.5598 13.0719c0.7779 0.1678 1.5888 0.082 2.3148 -0.2449 0.0662 -0.0344 0.122 -0.086 0.1618 -0.1493 0.0397 -0.0633 0.062 -0.1361 0.0644 -0.2109 0.0025 -0.0748 -0.0149 -0.1489 -0.0505 -0.2147 -0.0355 -0.0658 -0.0879 -0.1209 -0.1516 -0.1597 -1.0872 -0.7208 -1.6032 -2.31757 -1.8078 -3.69006" stroke-width="1"></path><path stroke="#000000" stroke-linecap="round" stroke-linejoin="round" d="M1.98566 23.189H22.0143c0.6479 0 1.1732 -0.5252 1.1732 -1.1731s-0.5253 -1.1732 -1.1732 -1.1732H1.98566c-0.64792 0 -1.17316 0.5253 -1.17316 1.1732s0.52524 1.1731 1.17316 1.1731Z" stroke-width="1"></path><path stroke="#000000" stroke-linecap="round" stroke-linejoin="round" d="M2.53204 20.8427H21.4007c0.6479 0 1.1732 -0.5253 1.1732 -1.1732s-0.5253 -1.1732 -1.1732 -1.1732H2.53204c-0.64791 0 -1.17315 0.5253 -1.17315 1.1732s0.52524 1.1732 1.17315 1.1732Z" stroke-width="1"></path><path stroke="#000000" stroke-linecap="round" d="M6.20874 20.8427 4.76882 23.189" stroke-width="1"></path><path stroke="#000000" stroke-linecap="round" d="M18.7659 20.8427 17.326 23.189" stroke-width="1"></path><path stroke="#000000" stroke-linecap="round" d="m12.4094 20.8427 -1.4399 2.3463" stroke-width="1"></path><path stroke="#000000" stroke-linecap="round" d="m9.85279 18.4963 -1.43993 2.3464" stroke-width="1"></path><path stroke="#000000" stroke-linecap="round" d="m16.803 18.4963 -1.4399 2.3464" stroke-width="1"></path></svg>