<svg xmlns="http://www.w3.org/2000/svg" fill="none" viewBox="0 0 24 24" id="Organized-Crime-2--Streamline-Ultimate"><desc>Organized Crime 2 Streamline Icon: https://streamlinehq.com</desc><path stroke="#000000" stroke-linecap="round" stroke-linejoin="round" d="M13.2238 10.0705c-0.3531 -0.26475 -0.7825 -0.40788 -1.2238 -0.40788s-0.8707 0.14313 -1.2237 0.40788" stroke-width="1"></path><path stroke="#000000" stroke-linecap="round" stroke-linejoin="round" d="M16.8949 5.95667c0 -1.29821 -0.5157 -2.54324 -1.4337 -3.46121 -0.918 -0.91797 -2.163 -1.43369 -3.4612 -1.43369s-2.54324 0.51572 -3.46122 1.43369c-0.91797 0.91797 -1.43368 2.163 -1.43368 3.46121V7.5883c0 1.29821 0.51571 2.5432 1.43368 3.4612 0.91798 0.918 2.16302 1.4337 3.46122 1.4337s2.5432 -0.5157 3.4612 -1.4337c0.918 -0.918 1.4337 -2.16299 1.4337 -3.4612V5.95667Z" stroke-width="1"></path><path stroke="#000000" stroke-linecap="round" stroke-linejoin="round" d="M16.8394 8.31566h-0.1004c-1.0605 0.01795 -2.9614 0.16316 -4.4397 -1.30531 -0.0389 -0.03991 -0.0855 -0.07162 -0.1369 -0.09328 -0.0514 -0.02165 -0.1067 -0.03281 -0.1625 -0.03281s-0.111 0.01116 -0.1624 0.03281c-0.0514 0.02166 -0.098 0.05337 -0.137 0.09328 -1.4782 1.46847 -3.38234 1.32407 -4.43964 1.30531h-0.10119" stroke-width="1"></path><path stroke="#000000" stroke-linecap="round" stroke-linejoin="round" d="m7.28857 4.6445 9.42573 0.02482" stroke-width="1"></path><path stroke="#000000" stroke-linecap="round" stroke-linejoin="round" d="M11.9999 22.9382c1.2078 0 2.1869 -0.9791 2.1869 -2.1868 0 -1.2078 -0.9791 -2.1868 -2.1869 -2.1868 -1.2077 0 -2.18679 0.979 -2.18679 2.1868 0 1.2077 0.97909 2.1868 2.18679 2.1868Z" stroke-width="1"></path><path stroke="#000000" stroke-linecap="round" stroke-linejoin="round" d="M3.16217 22.9382c1.20776 0 2.18684 -0.9791 2.18684 -2.1868 0 -1.2078 -0.97908 -2.1868 -2.18684 -2.1868 -1.20775 0 -2.186828 0.979 -2.186828 2.1868 0 1.2077 0.979078 2.1868 2.186828 2.1868Z" stroke-width="1"></path><path stroke="#000000" stroke-linecap="round" stroke-linejoin="round" d="M20.8376 22.9382c1.2077 0 2.1868 -0.9791 2.1868 -2.1868 0 -1.2078 -0.9791 -2.1868 -2.1868 -2.1868 -1.2078 0 -2.1868 0.979 -2.1868 2.1868 0 1.2077 0.979 2.1868 2.1868 2.1868Z" stroke-width="1"></path><path stroke="#000000" stroke-linecap="round" stroke-linejoin="round" d="M12.0234 15.3146v3.25" stroke-width="1"></path><path stroke="#000000" stroke-linecap="round" stroke-linejoin="round" d="m8.22369 15.3146 -3.71134 3.7113" stroke-width="1"></path><path stroke="#000000" stroke-linecap="round" stroke-linejoin="round" d="m15.7758 15.3146 3.715 3.715" stroke-width="1"></path></svg>