<svg xmlns="http://www.w3.org/2000/svg" fill="none" viewBox="0 0 24 24" id="Plane-Crashed--Streamline-Ultimate"><desc>Plane Crashed Streamline Icon: https://streamlinehq.com</desc><path stroke="#000000" stroke-linecap="round" stroke-linejoin="round" d="M21.2197 17.5176 10.564 12.3237l-0.0051 -2.0582 -1.68209 -0.93241c-0.1363 -0.06713 -0.28709 -0.0995 -0.43893 -0.09426 -0.15184 0.00525 -0.30002 0.04795 -0.43137 0.12432 -0.13134 0.07637 -0.24176 0.18403 -0.32144 0.31339 -0.07967 0.12937 -0.12612 0.27643 -0.13521 0.42806l-0.24713 4.3888c-0.01965 0.3592 0.06625 0.7163 0.24712 1.0273 0.18086 0.311 0.44878 0.5622 0.77071 0.7227l3.03084 1.5079 -3.73704 2.8139c-0.12475 0.0947 -0.2233 0.2196 -0.28636 0.363 -0.06306 0.1433 -0.08854 0.3004 -0.07404 0.4564 0.0145 0.1559 0.06852 0.3056 0.15693 0.4348 0.08842 0.1293 0.20833 0.2339 0.3484 0.304l1.57575 0.7807c0.12063 0.0598 0.25289 0.0925 0.38749 0.0956 0.1346 0.0032 0.26826 -0.0231 0.39157 -0.0771l6.1824 -2.7201 2.8817 1.4325c0.546 0.2713 1.1774 0.3145 1.7553 0.1203 0.5779 -0.1943 1.055 -0.6102 1.3263 -1.1562 0.2713 -0.546 0.3145 -1.1774 0.1203 -1.7553 -0.1943 -0.5779 -0.6102 -1.0549 -1.1562 -1.3262h-0.0042Z" stroke-width="1"></path><path stroke="#000000" stroke-linecap="round" stroke-linejoin="round" d="M7.36004 1c1.437 2.873 -2.9 3.881 -0.75 6.75" stroke-width="1"></path><path stroke="#000000" stroke-linecap="round" stroke-linejoin="round" d="M2.86004 1c1.437 2.873 -2.9000026 3.881 -0.75 6.75" stroke-width="1"></path><path stroke="#000000" stroke-linecap="round" stroke-linejoin="round" d="M18.1001 15.997c0.8813 -0.0375 1.7176 -0.3828 2.3431 -0.9702 0.6506 -0.6109 1.0222 -1.4355 1.0361 -2.2991 0.1153 -1.2783 -0.2538 -2.5538 -1.0423 -3.60166C19.6486 8.0782 18.4914 7.32528 17.1694 7c0.5029 0.5627 0.8097 1.25674 0.879 1.98835 0.0693 0.73162 -0.1023 1.46555 -0.4916 2.10275 -0.3443 0.0247 -0.6857 -0.0743 -0.9553 -0.2768 -0.2696 -0.2025 -0.4472 -0.4936 -0.497 -0.8143 -0.5157 0.2644 -0.94 0.6616 -1.2231 1.1449 -0.2831 0.4833 -0.4132 1.0324 -0.3748 1.5828 0.0001 0.4298 0.0904 0.8555 0.2658 1.2525 0.0842 0.1907 0.1872 0.373 0.3074 0.5446" stroke-width="1"></path></svg>