<svg xmlns="http://www.w3.org/2000/svg" fill="none" viewBox="0 0 24 24" id="Rocket-Attack-Explode--Streamline-Ultimate"><desc>Rocket Attack Explode Streamline Icon: https://streamlinehq.com</desc><path stroke="#000000" stroke-linecap="round" stroke-linejoin="round" d="m8.5 23 -1 -3 2.5 0.5 2 -3 2 3 2.5 -0.5 -1.5 3" stroke-width="1"></path><path stroke="#000000" stroke-linecap="round" stroke-linejoin="round" d="m3 6 3 -3 5.8284 5.82843C12.5786 9.57857 13 10.596 13 11.6569V13h-1.3431c-1.0609 0 -2.07833 -0.4214 -2.82847 -1.1716L3 6Z" stroke-width="1"></path><path stroke="#000000" stroke-linecap="round" stroke-linejoin="round" d="m6 3 2 -2 1.5 1.5 0 4" stroke-width="1"></path><path stroke="#000000" stroke-linecap="round" stroke-linejoin="round" d="M3 6 1 8l1.5 1.5h4" stroke-width="1"></path><path stroke="#000000" stroke-linecap="round" stroke-linejoin="round" d="m11 8 -3 3" stroke-width="1"></path><path stroke="#000000" stroke-linecap="round" stroke-linejoin="round" d="M4.42857 12.5 6 18l-5 -1 3 6h16l3 -6 -5 1 2 -7 -4 2.5455" stroke-width="1"></path></svg>