<svg xmlns="http://www.w3.org/2000/svg" fill="none" viewBox="0 0 24 24" id="Target-Man-Aim--Streamline-Ultimate"><desc>Target Man Aim Streamline Icon: https://streamlinehq.com</desc><path stroke="#000000" stroke-linecap="round" stroke-linejoin="round" d="M12 1v3" stroke-width="1"></path><path stroke="#000000" stroke-linecap="round" stroke-linejoin="round" d="M12 10.5v3" stroke-width="1"></path><path stroke="#000000" stroke-linecap="round" stroke-linejoin="round" d="M12 20v3" stroke-width="1"></path><path stroke="#000000" stroke-linecap="round" stroke-linejoin="round" d="m23 12 -3 0" stroke-width="1"></path><path stroke="#000000" stroke-linecap="round" stroke-linejoin="round" d="m13.5 12 -3 0" stroke-width="1"></path><path stroke="#000000" stroke-linecap="round" stroke-linejoin="round" d="m4 12 -3 0" stroke-width="1"></path><path stroke="#000000" stroke-linecap="round" stroke-linejoin="round" d="M2.5 12a9.5 9.5 0 1 0 19 0 9.5 9.5 0 1 0 -19 0" stroke-width="1"></path><path stroke="#000000" stroke-linecap="round" stroke-linejoin="round" d="M8.6551 17.5v-2.6C7.64014 14.0205 7 12.7336 7 11.3c0 -2.65097 2.18883 -4.8 4.8889 -4.8 4.8889 0 5.6111 7.2 5.6111 7.2h-1.3333v1.4c0 0.5523 -0.4477 1 -1 1h-1.4445v1.4" stroke-width="1"></path></svg>