<svg viewBox="0 0 24 24" xmlns="http://www.w3.org/2000/svg" id="Mailbox-In--Streamline-Ultimate"><desc>Mailbox In Streamline Icon: https://streamlinehq.com</desc><path d="m12.75 18.75 0 4.5" fill="none" stroke="#000000" stroke-linecap="round" stroke-linejoin="round" stroke-width="1"></path><path d="M3.75 8.25h16.5a3 3 0 0 1 3 3V18a0.75 0.75 0 0 1 -0.75 0.75H6.75v-7.5a3 3 0 0 0 -3 -3Z" fill="none" stroke="#000000" stroke-linecap="round" stroke-linejoin="round" stroke-width="1"></path><path d="M6.75 18.75H1.5A0.75 0.75 0 0 1 0.75 18v-6.75a3 3 0 0 1 6 0Z" fill="none" stroke="#000000" stroke-linecap="round" stroke-linejoin="round" stroke-width="1"></path><path d="m11.25 11.25 0 -10.5" fill="none" stroke="#000000" stroke-linecap="round" stroke-linejoin="round" stroke-width="1"></path><path d="M11.25 5.25h5.25a2.25 2.25 0 0 0 0 -4.5h-5.25Z" fill="none" stroke="#000000" stroke-linecap="round" stroke-linejoin="round" stroke-width="1"></path></svg>