<svg xmlns="http://www.w3.org/2000/svg" fill="none" viewBox="0 0 24 24" id="Mailbox-Post-1--Streamline-Ultimate"><desc>Mailbox Post 1 Streamline Icon: https://streamlinehq.com</desc><path stroke="#000000" stroke-linecap="round" stroke-linejoin="round" d="M19.75 5.25H4.25v18h15.5v-18Z" stroke-width="1"></path><path stroke="#000000" stroke-linecap="round" stroke-linejoin="round" d="M2 5.25h20" stroke-width="1"></path><path stroke="#000000" stroke-linecap="round" stroke-linejoin="round" d="M2.75 23.25h18.5" stroke-width="1"></path><path stroke="#000000" stroke-linecap="round" stroke-linejoin="round" d="M19.75 5.25001H4.25c-0.00132 -0.59132 0.11418 -1.17707 0.33986 -1.72363 0.22568 -0.54656 0.55709 -1.04316 0.97522 -1.46129 0.41813 -0.41813 0.91473 -0.74954 1.46129 -0.97522C7.57293 0.864189 8.15868 0.748693 8.75 0.750011h6.5c0.5913 -0.001318 1.1771 0.114178 1.7236 0.339859 0.5466 0.22568 1.0432 0.55709 1.4613 0.97522 0.4181 0.41813 0.7496 0.91473 0.9752 1.46129 0.2257 0.54656 0.3412 1.13231 0.3399 1.72363v0Z" stroke-width="1"></path><path stroke="#000000" stroke-linecap="round" stroke-linejoin="round" d="M9 9.75h6" stroke-width="1"></path><path stroke="#000000" stroke-linecap="round" stroke-linejoin="round" d="M15.75 23.25h-7.5v-8c0 -0.3978 0.15804 -0.7794 0.43934 -1.0607S9.35218 13.75 9.75 13.75h4.5c0.3978 0 0.7794 0.158 1.0607 0.4393s0.4393 0.6629 0.4393 1.0607v8Z" stroke-width="1"></path><path stroke="#000000" d="M12 18.01c-0.2071 0 -0.375 -0.1679 -0.375 -0.375s0.1679 -0.375 0.375 -0.375" stroke-width="1"></path><path stroke="#000000" d="M12 18.01c0.2071 0 0.375 -0.1679 0.375 -0.375s-0.1679 -0.375 -0.375 -0.375" stroke-width="1"></path></svg>