<svg id="Arrow-Rectangle-Down-1--Streamline-Ultimate" xmlns="http://www.w3.org/2000/svg" viewBox="0 0 24 24"><desc>Arrow Rectangle Down 1 Streamline Icon: https://streamlinehq.com</desc><defs></defs><title>arrow-rectangle-down-1</title><path d="M2.75 0.75h18.5s2 0 2 2v18.5s0 2 -2 2H2.75s-2 0 -2 -2V2.75s0 -2 2 -2" fill="none" stroke="#000000" stroke-linecap="round" stroke-linejoin="round" stroke-width="1"></path><path d="M6.649 8.587 12 12.749l5.35 -4.162a0.859 0.859 0 0 1 1.4 0.565v2.166a1.433 1.433 0 0 1 -0.577 1.129l-5.618 4.37a0.926 0.926 0 0 1 -1.111 0l-5.618 -4.37a1.435 1.435 0 0 1 -0.576 -1.129V9.152a0.858 0.858 0 0 1 1.399 -0.565Z" fill-rule="evenodd" fill="none" stroke="#000000" stroke-linecap="round" stroke-linejoin="round" stroke-width="1"></path></svg>