<svg viewBox="0 0 24 24" xmlns="http://www.w3.org/2000/svg" id="Arrow-Thick-Circle-Right-1--Streamline-Ultimate"><desc>Arrow Thick Circle Right 1 Streamline Icon: https://streamlinehq.com</desc><path d="M0.75 12a11.25 11.25 0 1 0 22.5 0 11.25 11.25 0 1 0 -22.5 0Z" fill="none" stroke="#000000" stroke-linecap="round" stroke-linejoin="round" stroke-width="1"></path><path d="M5.25 13.5a0.75 0.75 0 0 0 0.75 0.75h6.75l-1.72 1.72a0.749 0.749 0 0 0 0 1.06l1.19 1.19a0.749 0.749 0 0 0 1.06 0l5.69 -5.69a0.749 0.749 0 0 0 0 -1.06l-5.69 -5.69a0.749 0.749 0 0 0 -1.06 0l-1.19 1.19a0.749 0.749 0 0 0 0 1.06l1.72 1.72H6a0.75 0.75 0 0 0 -0.75 0.75Z" fill="none" stroke="#000000" stroke-linecap="round" stroke-linejoin="round" stroke-width="1"></path></svg>