<svg viewBox="0 0 24 24" xmlns="http://www.w3.org/2000/svg" id="Arrow-Double-Up--Streamline-Ultimate"><desc>Arrow Double Up Streamline Icon: https://streamlinehq.com</desc><path d="m11.75 7.222 -7.1 4.517a0.751 0.751 0 0 1 -1.15 -0.633V6.545a1.5 1.5 0 0 1 0.7 -1.265L10.945 0.985a1.5 1.5 0 0 1 1.61 0l6.75 4.3A1.5 1.5 0 0 1 20 6.545v4.561a0.751 0.751 0 0 1 -1.153 0.633Z" fill="none" stroke="#000000" stroke-linecap="round" stroke-linejoin="round" stroke-width="1"></path><path d="m11.75 18.616 -7.1 4.517A0.751 0.751 0 0 1 3.5 22.5v-4.56a1.5 1.5 0 0 1 0.7 -1.266l6.75 -4.295a1.5 1.5 0 0 1 1.61 0l6.75 4.3A1.5 1.5 0 0 1 20 17.94v4.56a0.751 0.751 0 0 1 -1.153 0.633Z" fill="none" stroke="#000000" stroke-linecap="round" stroke-linejoin="round" stroke-width="1"></path></svg>