<svg viewBox="0 0 24 24" xmlns="http://www.w3.org/2000/svg" id="Arrow-Thick-Up-1--Streamline-Ultimate"><desc>Arrow Thick Up 1 Streamline Icon: https://streamlinehq.com</desc><path d="M1.97 10.205a0.75 0.75 0 0 0 0 1.061l2.121 2.121a0.75 0.75 0 0 0 1.061 0L9.8 8.743V22.5a0.75 0.75 0 0 0 0.75 0.75h3a0.75 0.75 0 0 0 0.75 -0.75V8.743l4.644 4.644a0.75 0.75 0 0 0 1.061 0l2.121 -2.121a0.75 0.75 0 0 0 0 -1.061l-9.019 -9.016a1.5 1.5 0 0 0 -2.122 0Z" fill="none" stroke="#000000" stroke-linecap="round" stroke-linejoin="round" stroke-width="1"></path></svg>