<svg id="Arrow-Rectangle-Left-2--Streamline-Ultimate" xmlns="http://www.w3.org/2000/svg" viewBox="0 0 24 24"><desc>Arrow Rectangle Left 2 Streamline Icon: https://streamlinehq.com</desc><defs></defs><title>arrow-rectangle-left-2</title><path d="m23.25 2.75 0 18.5s0 2 -2 2l-18.5 0s-2 0 -2 -2l0 -18.5s0 -2 2 -2l18.5 0s2 0 2 2" fill="none" stroke="#000000" stroke-linecap="round" stroke-linejoin="round" stroke-width="1"></path><path d="M17.063 6.649 12.9 12l4.162 5.351a0.858 0.858 0 0 1 -0.564 1.4h-4.416a1.436 1.436 0 0 1 -1.129 -0.576l-4.369 -5.619a0.924 0.924 0 0 1 0 -1.112l4.369 -5.618a1.436 1.436 0 0 1 1.129 -0.576H16.5a0.858 0.858 0 0 1 0.563 1.399Z" fill-rule="evenodd" fill="none" stroke="#000000" stroke-linecap="round" stroke-linejoin="round" stroke-width="1"></path></svg>