<svg viewBox="0 0 24 24" xmlns="http://www.w3.org/2000/svg" id="Arrow-Thick-Left-Bottom-Corner-1--Streamline-Ultimate"><desc>Arrow Thick Left Bottom Corner 1 Streamline Icon: https://streamlinehq.com</desc><path d="M17.25 21a0.75 0.75 0 0 0 0.75 -0.75v-3a0.75 0.75 0 0 0 -0.75 -0.75h-6.568l9.728 -9.728a0.75 0.75 0 0 0 0 -1.061L18.289 3.59a0.75 0.75 0 0 0 -1.061 0L7.5 13.318V6.75A0.75 0.75 0 0 0 6.75 6h-3a0.75 0.75 0 0 0 -0.75 0.75V19.5A1.5 1.5 0 0 0 4.5 21Z" fill="none" stroke="#000000" stroke-linecap="round" stroke-linejoin="round" stroke-width="1"></path></svg>