<svg viewBox="0 0 24 24" xmlns="http://www.w3.org/2000/svg" id="Arrow-Double-Right--Streamline-Ultimate"><desc>Arrow Double Right Streamline Icon: https://streamlinehq.com</desc><path d="m16.778 12.25 -4.517 -7.1A0.751 0.751 0 0 1 12.894 4h4.561a1.5 1.5 0 0 1 1.265 0.7l4.3 6.75a1.5 1.5 0 0 1 0 1.61l-4.3 6.75a1.5 1.5 0 0 1 -1.265 0.7h-4.561a0.751 0.751 0 0 1 -0.633 -1.153Z" fill="none" stroke="#000000" stroke-linecap="round" stroke-linejoin="round" stroke-width="1"></path><path d="M5.384 12.25 0.867 5.153A0.751 0.751 0 0 1 1.5 4h4.56a1.5 1.5 0 0 1 1.266 0.7l4.3 6.75a1.5 1.5 0 0 1 0 1.61l-4.3 6.75a1.5 1.5 0 0 1 -1.266 0.7H1.5a0.751 0.751 0 0 1 -0.633 -1.153Z" fill="none" stroke="#000000" stroke-linecap="round" stroke-linejoin="round" stroke-width="1"></path></svg>