<svg id="Arrow-Rectangle-Up-2--Streamline-Ultimate" xmlns="http://www.w3.org/2000/svg" viewBox="0 0 24 24"><desc>Arrow Rectangle Up 2 Streamline Icon: https://streamlinehq.com</desc><defs></defs><title>arrow-rectangle-up-2</title><path d="m21.25 23.25 -18.5 0s-2 0 -2 -2l0 -18.5s0 -2 2 -2l18.5 0s2 0 2 2l0 18.5s0 2 -2 2" fill="none" stroke="#000000" stroke-linecap="round" stroke-linejoin="round" stroke-width="1"></path><path d="M17.351 17.063 12 12.9l-5.351 4.163a0.858 0.858 0 0 1 -1.4 -0.564v-4.417a1.436 1.436 0 0 1 0.576 -1.129l5.618 -4.369a0.924 0.924 0 0 1 1.112 0l5.618 4.369a1.436 1.436 0 0 1 0.576 1.129V16.5a0.858 0.858 0 0 1 -1.398 0.563Z" fill-rule="evenodd" fill="none" stroke="#000000" stroke-linecap="round" stroke-linejoin="round" stroke-width="1"></path></svg>