<svg viewBox="0 0 24 24" xmlns="http://www.w3.org/2000/svg" id="Arrow-Thick-Right-3--Streamline-Ultimate"><desc>Arrow Thick Right 3 Streamline Icon: https://streamlinehq.com</desc><path d="M10.757 4a0.75 0.75 0 0 0 -0.53 1.28l4.72 4.72H1.5a0.75 0.75 0 0 0 -0.75 0.75v3a0.75 0.75 0 0 0 0.75 0.75h13.447l-4.72 4.72a0.75 0.75 0 0 0 0.53 1.28h3.932a1.5 1.5 0 0 0 1.061 -0.439l7.28 -7.281a0.749 0.749 0 0 0 0 -1.06l-7.28 -7.281A1.5 1.5 0 0 0 14.689 4Z" fill="none" stroke="#000000" stroke-linecap="round" stroke-linejoin="round" stroke-width="1"></path></svg>