<svg viewBox="0 0 24 24" xmlns="http://www.w3.org/2000/svg" id="Arrow-Button-Circle-Down-1--Streamline-Ultimate"><desc>Arrow Button Circle Down 1 Streamline Icon: https://streamlinehq.com</desc><path d="M0.75 12a11.25 11.25 0 1 0 22.5 0 11.25 11.25 0 1 0 -22.5 0Z" fill="none" stroke="#000000" stroke-linecap="round" stroke-linejoin="round" stroke-width="1"></path><path d="m18.475 9.48 -5.9 7.079a0.751 0.751 0 0 1 -1.152 0L5.525 9.48A0.75 0.75 0 0 1 6.1 8.25h2.179a1.5 1.5 0 0 1 1.171 0.563L12 12l2.55 -3.187a1.5 1.5 0 0 1 1.171 -0.563H17.9a0.75 0.75 0 0 1 0.575 1.23Z" fill="none" stroke="#000000" stroke-linecap="round" stroke-linejoin="round" stroke-width="1"></path></svg>