<svg xmlns="http://www.w3.org/2000/svg" fill="none" viewBox="0 0 24 24" id="Arrow-Dot-Right--Streamline-Ultimate"><desc>Arrow Dot Right Streamline Icon: https://streamlinehq.com</desc><path stroke="#000000" stroke-linecap="round" stroke-linejoin="round" d="m2.75 23.25 18.5 0c1.1046 0 2 -0.8954 2 -2l0 -18.5c0 -1.10457 -0.8954 -2 -2 -2l-18.5 0c-1.10457 0 -2 0.89543 -2 2l0 18.5c0 1.1046 0.89543 2 2 2Z" stroke-width="1"></path><path stroke="#000000" d="M4.875 10.5c-0.20711 0 -0.375 -0.1679 -0.375 -0.375 0 -0.20711 0.16789 -0.375 0.375 -0.375" stroke-width="1"></path><path stroke="#000000" d="M4.875 10.5c0.20711 0 0.375 -0.1679 0.375 -0.375 0 -0.20711 -0.16789 -0.375 -0.375 -0.375" stroke-width="1"></path><path stroke="#000000" d="M4.875 14.25c-0.20711 0 -0.375 -0.1679 -0.375 -0.375s0.16789 -0.375 0.375 -0.375" stroke-width="1"></path><path stroke="#000000" d="M4.875 14.25c0.20711 0 0.375 -0.1679 0.375 -0.375s-0.16789 -0.375 -0.375 -0.375" stroke-width="1"></path><path stroke="#000000" d="M8.625 10.5c-0.20711 0 -0.375 -0.1679 -0.375 -0.375 0 -0.20711 0.16789 -0.375 0.375 -0.375" stroke-width="1"></path><path stroke="#000000" d="M8.625 10.5c0.20711 0 0.375 -0.1679 0.375 -0.375 0 -0.20711 -0.16789 -0.375 -0.375 -0.375" stroke-width="1"></path><path stroke="#000000" d="M8.625 14.25c-0.20711 0 -0.375 -0.1679 -0.375 -0.375s0.16789 -0.375 0.375 -0.375" stroke-width="1"></path><path stroke="#000000" d="M8.625 14.25c0.20711 0 0.375 -0.1679 0.375 -0.375s-0.16789 -0.375 -0.375 -0.375" stroke-width="1"></path><path stroke="#000000" d="M12.375 10.5c-0.2071 0 -0.375 -0.1679 -0.375 -0.375 0 -0.20711 0.1679 -0.375 0.375 -0.375" stroke-width="1"></path><path stroke="#000000" d="M12.375 10.5c0.2071 0 0.375 -0.1679 0.375 -0.375 0 -0.20711 -0.1679 -0.375 -0.375 -0.375" stroke-width="1"></path><path stroke="#000000" d="M12.375 14.25c-0.2071 0 -0.375 -0.1679 -0.375 -0.375s0.1679 -0.375 0.375 -0.375" stroke-width="1"></path><path stroke="#000000" d="M12.375 14.25c0.2071 0 0.375 -0.1679 0.375 -0.375s-0.1679 -0.375 -0.375 -0.375" stroke-width="1"></path><g><path stroke="#000000" d="M12.375 18c-0.2071 0 -0.375 -0.1679 -0.375 -0.375s0.1679 -0.375 0.375 -0.375" stroke-width="1"></path><path stroke="#000000" d="M12.375 18c0.2071 0 0.375 -0.1679 0.375 -0.375s-0.1679 -0.375 -0.375 -0.375" stroke-width="1"></path></g><g><path stroke="#000000" d="M12.375 6.75c-0.2071 0 -0.375 -0.16789 -0.375 -0.375S12.1679 6 12.375 6" stroke-width="1"></path><path stroke="#000000" d="M12.375 6.75c0.2071 0 0.375 -0.16789 0.375 -0.375S12.5821 6 12.375 6" stroke-width="1"></path></g><g><path stroke="#000000" d="M16.125 10.5c-0.2071 0 -0.375 -0.1679 -0.375 -0.375 0 -0.20711 0.1679 -0.375 0.375 -0.375" stroke-width="1"></path><path stroke="#000000" d="M16.125 10.5c0.2071 0 0.375 -0.1679 0.375 -0.375 0 -0.20711 -0.1679 -0.375 -0.375 -0.375" stroke-width="1"></path></g><g><path stroke="#000000" d="M16.125 14.25c-0.2071 0 -0.375 -0.1679 -0.375 -0.375s0.1679 -0.375 0.375 -0.375" stroke-width="1"></path><path stroke="#000000" d="M16.125 14.25c0.2071 0 0.375 -0.1679 0.375 -0.375s-0.1679 -0.375 -0.375 -0.375" stroke-width="1"></path></g><g><path stroke="#000000" d="M19.5 12.375c-0.2071 0 -0.375 -0.1679 -0.375 -0.375s0.1679 -0.375 0.375 -0.375" stroke-width="1"></path><path stroke="#000000" d="M19.5 12.375c0.2071 0 0.375 -0.1679 0.375 -0.375s-0.1679 -0.375 -0.375 -0.375" stroke-width="1"></path></g></svg>