<svg viewBox="0 0 24 24" xmlns="http://www.w3.org/2000/svg" id="Arrow-Thick-Circle-Down--Streamline-Ultimate"><desc>Arrow Thick Circle Down Streamline Icon: https://streamlinehq.com</desc><path d="M0.75 12a11.25 11.25 0 1 0 22.5 0 11.25 11.25 0 1 0 -22.5 0Z" fill="none" stroke="#000000" stroke-linecap="round" stroke-linejoin="round" stroke-width="1"></path><path d="m11.414 18.018 -4.439 -5.549a0.75 0.75 0 0 1 0.585 -1.219h2.19V6a0.75 0.75 0 0 1 0.75 -0.75h3a0.75 0.75 0 0 1 0.75 0.75v5.25h2.19a0.75 0.75 0 0 1 0.585 1.219l-4.439 5.549a0.751 0.751 0 0 1 -1.172 0Z" fill="none" stroke="#000000" stroke-linecap="round" stroke-linejoin="round" stroke-width="1"></path></svg>