<svg id="Arrow-Thick-Up-4--Streamline-Ultimate" xmlns="http://www.w3.org/2000/svg" viewBox="0 0 24 24"><desc>Arrow Thick Up 4 Streamline Icon: https://streamlinehq.com</desc><defs></defs><title>arrow-thick-up-4</title><path d="m23.25 3.75 0 16.5s0 3 -3 3l-16.5 0s-3 0 -3 -3l0 -16.5s0 -3 3 -3l16.5 0s3 0 3 3" fill="none" stroke="#000000" stroke-linecap="round" stroke-linejoin="round" stroke-width="1"></path><path d="M14.25 18v-7.5l3.22 3.22a0.75 0.75 0 0 0 1.28 -0.531v-2.068a1.5 1.5 0 0 0 -0.439 -1.06L12.53 4.28a0.749 0.749 0 0 0 -1.06 0l-5.781 5.781a1.5 1.5 0 0 0 -0.439 1.06v2.068a0.75 0.75 0 0 0 1.28 0.531l3.22 -3.22V18a0.75 0.75 0 0 0 0.75 0.75h3a0.75 0.75 0 0 0 0.75 -0.75Z" fill="none" stroke="#000000" stroke-linecap="round" stroke-linejoin="round" stroke-width="1"></path></svg>