<svg id="Arrow-Thick-Right-4--Streamline-Ultimate" xmlns="http://www.w3.org/2000/svg" viewBox="0 0 24 24"><desc>Arrow Thick Right 4 Streamline Icon: https://streamlinehq.com</desc><defs></defs><title>arrow-thick-right-4</title><path d="m20.25 23.25 -16.5 0s-3 0 -3 -3l0 -16.5s0 -3 3 -3l16.5 0s3 0 3 3l0 16.5s0 3 -3 3" fill="none" stroke="#000000" stroke-linecap="round" stroke-linejoin="round" stroke-width="1"></path><path d="M6 9.75h7.5l-3.22 -3.22a0.75 0.75 0 0 1 0.531 -1.28h2.068a1.5 1.5 0 0 1 1.06 0.439l5.781 5.781a0.749 0.749 0 0 1 0 1.06l-5.781 5.781a1.5 1.5 0 0 1 -1.06 0.439h-2.068a0.75 0.75 0 0 1 -0.531 -1.28l3.22 -3.22H6a0.75 0.75 0 0 1 -0.75 -0.75v-3A0.75 0.75 0 0 1 6 9.75Z" fill="none" stroke="#000000" stroke-linecap="round" stroke-linejoin="round" stroke-width="1"></path></svg>