<svg viewBox="0 0 24 24" xmlns="http://www.w3.org/2000/svg" id="Arrow-Thick-Right-Bottom-Corner-3--Streamline-Ultimate"><desc>Arrow Thick Right Bottom Corner 3 Streamline Icon: https://streamlinehq.com</desc><path d="M3.81 6.341 5.931 4.22a0.75 0.75 0 0 1 1.061 0l9.508 9.508V7.16a0.75 0.75 0 0 1 1.28 -0.53l2.781 2.78A1.5 1.5 0 0 1 21 10.471V20.66a0.75 0.75 0 0 1 -0.75 0.75H10.061A1.5 1.5 0 0 1 9 20.971L6.22 18.19a0.75 0.75 0 0 1 0.53 -1.28h6.568L3.81 7.4a0.75 0.75 0 0 1 0 -1.059Z" fill="none" stroke="#000000" stroke-linecap="round" stroke-linejoin="round" stroke-width="1"></path></svg>