<svg viewBox="0 0 24 24" xmlns="http://www.w3.org/2000/svg" id="Arrow-Thick-Circle-Up--Streamline-Ultimate"><desc>Arrow Thick Circle Up Streamline Icon: https://streamlinehq.com</desc><path d="M0.75 12a11.25 11.25 0 1 0 22.5 0 11.25 11.25 0 1 0 -22.5 0Z" fill="none" stroke="#000000" stroke-linecap="round" stroke-linejoin="round" stroke-width="1"></path><path d="m12.586 5.982 4.439 5.549a0.75 0.75 0 0 1 -0.585 1.219h-2.19V18a0.75 0.75 0 0 1 -0.75 0.75h-3a0.75 0.75 0 0 1 -0.75 -0.75v-5.25H7.56a0.75 0.75 0 0 1 -0.585 -1.219l4.439 -5.549a0.751 0.751 0 0 1 1.172 0Z" fill="none" stroke="#000000" stroke-linecap="round" stroke-linejoin="round" stroke-width="1"></path></svg>