<svg viewBox="0 0 24 24" xmlns="http://www.w3.org/2000/svg" id="Arrow-Button-Circle-Left-1--Streamline-Ultimate"><desc>Arrow Button Circle Left 1 Streamline Icon: https://streamlinehq.com</desc><path d="M0.75 12a11.25 11.25 0 1 0 22.5 0 11.25 11.25 0 1 0 -22.5 0Z" fill="none" stroke="#000000" stroke-linecap="round" stroke-linejoin="round" stroke-width="1"></path><path d="m14.52 18.475 -7.079 -5.9a0.751 0.751 0 0 1 0 -1.152l7.079 -5.9a0.75 0.75 0 0 1 1.23 0.576v2.18a1.5 1.5 0 0 1 -0.563 1.171L12 12l3.187 2.55a1.5 1.5 0 0 1 0.563 1.171V17.9a0.75 0.75 0 0 1 -1.23 0.575Z" fill="none" stroke="#000000" stroke-linecap="round" stroke-linejoin="round" stroke-width="1"></path></svg>