<svg viewBox="0 0 24 24" xmlns="http://www.w3.org/2000/svg" id="Arrow-Button-Circle-Right-1--Streamline-Ultimate"><desc>Arrow Button Circle Right 1 Streamline Icon: https://streamlinehq.com</desc><path d="m9.479 5.526 7.079 5.9a0.749 0.749 0 0 1 0 1.152l-7.079 5.9a0.75 0.75 0 0 1 -1.23 -0.576v-2.18a1.5 1.5 0 0 1 0.563 -1.172L12 12 8.812 9.451a1.5 1.5 0 0 1 -0.563 -1.171V6.1a0.75 0.75 0 0 1 1.23 -0.574Z" fill="none" stroke="#000000" stroke-linecap="round" stroke-linejoin="round" stroke-width="1"></path><path d="M0.75 12a11.25 11.25 0 1 0 22.5 0 11.25 11.25 0 1 0 -22.5 0Z" fill="none" stroke="#000000" stroke-linecap="round" stroke-linejoin="round" stroke-width="1"></path></svg>