<svg viewBox="0 0 24 24" xmlns="http://www.w3.org/2000/svg" id="Computer-Ram--Streamline-Ultimate"><desc>Computer Ram Streamline Icon: https://streamlinehq.com</desc><path d="M22.78 8.028 8.028 22.78a1.6 1.6 0 0 1 -2.269 0L1.22 18.241a1.6 1.6 0 0 1 0 -2.269L7.461 9.73l0.477 0.1a1.605 1.605 0 0 0 1.888 -1.892l-0.1 -0.477 6.246 -6.241a1.6 1.6 0 0 1 2.269 0l4.539 4.539a1.6 1.6 0 0 1 0 2.269Z" fill="none" stroke="#000000" stroke-linecap="round" stroke-linejoin="round" stroke-width="1"></path><path d="m5.759 18.241 1.135 1.135 2.269 -2.27 -1.135 -1.134" fill="none" stroke="#000000" stroke-linecap="round" stroke-linejoin="round" stroke-width="1"></path><path d="m15.972 8.028 1.134 1.135 2.27 -2.269 -1.135 -1.135" fill="none" stroke="#000000" stroke-linecap="round" stroke-linejoin="round" stroke-width="1"></path><path d="m10.298 13.702 1.135 1.135 3.404 -3.404 -1.135 -1.135" fill="none" stroke="#000000" stroke-linecap="round" stroke-linejoin="round" stroke-width="1"></path><path d="m2.355 14.837 1.134 1.135" fill="none" stroke="#000000" stroke-linecap="round" stroke-linejoin="round" stroke-width="1"></path><path d="m4.624 12.567 1.135 1.135" fill="none" stroke="#000000" stroke-linecap="round" stroke-linejoin="round" stroke-width="1"></path><path d="m12.567 4.624 1.135 1.135" fill="none" stroke="#000000" stroke-linecap="round" stroke-linejoin="round" stroke-width="1"></path><path d="m14.837 2.355 1.135 1.134" fill="none" stroke="#000000" stroke-linecap="round" stroke-linejoin="round" stroke-width="1"></path></svg>