<svg viewBox="0 0 24 24" xmlns="http://www.w3.org/2000/svg" id="Sd-Card-Refresh--Streamline-Ultimate"><desc>Sd Card Refresh Streamline Icon: https://streamlinehq.com</desc><path d="M9.75 23.25h-7.5a1.5 1.5 0 0 1 -1.5 -1.5v-10.5h1.5v-3H0.75v-6a1.5 1.5 0 0 1 1.5 -1.5h10.56a1.5 1.5 0 0 1 1.139 0.524l4.44 4.305a1.5 1.5 0 0 1 0.361 0.976V7.5" fill="none" stroke="#000000" stroke-linecap="round" stroke-linejoin="round" stroke-width="1"></path><path d="m6.75 3.75 0 3" fill="none" stroke="#000000" stroke-linecap="round" stroke-linejoin="round" stroke-width="1"></path><path d="m11.25 3.75 0 3" fill="none" stroke="#000000" stroke-linecap="round" stroke-linejoin="round" stroke-width="1"></path><path d="m19.5 15.75 3.75 0 0 -4.5" fill="none" stroke="#000000" stroke-linecap="round" stroke-linejoin="round" stroke-width="1"></path><path d="M23.061 15.75a6 6 0 1 0 -1.121 5.243" fill="none" stroke="#000000" stroke-linecap="round" stroke-linejoin="round" stroke-width="1"></path></svg>