<svg viewBox="0 0 24 24" xmlns="http://www.w3.org/2000/svg" id="Sd-Card-Remove--Streamline-Ultimate"><desc>Sd Card Remove Streamline Icon: https://streamlinehq.com</desc><path d="M9.75 23.25h-7.5a1.5 1.5 0 0 1 -1.5 -1.5v-10.5h1.5v-3H0.75v-6a1.5 1.5 0 0 1 1.5 -1.5h10.56a1.5 1.5 0 0 1 1.139 0.524l4.44 4.305a1.5 1.5 0 0 1 0.361 0.976V7.5" fill="none" stroke="#000000" stroke-linecap="round" stroke-linejoin="round" stroke-width="1"></path><path d="m6.75 3.75 0 3" fill="none" stroke="#000000" stroke-linecap="round" stroke-linejoin="round" stroke-width="1"></path><path d="m11.25 3.75 0 3" fill="none" stroke="#000000" stroke-linecap="round" stroke-linejoin="round" stroke-width="1"></path><path d="M11.25 17.25a6 6 0 1 0 12 0 6 6 0 1 0 -12 0Z" fill="none" stroke="#000000" stroke-linecap="round" stroke-linejoin="round" stroke-width="1"></path><path d="m15.129 15.129 4.242 4.242" fill="none" stroke="#000000" stroke-linecap="round" stroke-linejoin="round" stroke-width="1"></path><path d="m15.129 19.371 4.242 -4.242" fill="none" stroke="#000000" stroke-linecap="round" stroke-linejoin="round" stroke-width="1"></path></svg>