<svg viewBox="0 0 24 24" xmlns="http://www.w3.org/2000/svg" id="Sd-Card-Settings--Streamline-Ultimate"><desc>Sd Card Settings Streamline Icon: https://streamlinehq.com</desc><path d="M9.75 23.25h-7.5a1.5 1.5 0 0 1 -1.5 -1.5v-10.5h1.5v-3H0.75v-6a1.5 1.5 0 0 1 1.5 -1.5h10.56a1.5 1.5 0 0 1 1.139 0.524l4.44 4.305a1.5 1.5 0 0 1 0.361 0.976v0.2" fill="none" stroke="#000000" stroke-linecap="round" stroke-linejoin="round" stroke-width="1"></path><path d="m6.75 3.75 0 3" fill="none" stroke="#000000" stroke-linecap="round" stroke-linejoin="round" stroke-width="1"></path><path d="m11.25 3.75 0 3" fill="none" stroke="#000000" stroke-linecap="round" stroke-linejoin="round" stroke-width="1"></path><path d="M15.75 16.5a1.5 1.5 0 1 0 3 0 1.5 1.5 0 1 0 -3 0Z" fill="none" stroke="#000000" stroke-linecap="round" stroke-linejoin="round" stroke-width="1"></path><path d="m18.524 10.7 0.442 1.453a0.994 0.994 0 0 0 1.174 0.681l1.472 -0.341a1.339 1.339 0 0 1 1.275 2.218l-1.031 1.111a1 1 0 0 0 0 1.362l1.031 1.111a1.339 1.339 0 0 1 -1.275 2.218l-1.472 -0.341a0.994 0.994 0 0 0 -1.174 0.681l-0.442 1.447a1.33 1.33 0 0 1 -2.548 0l-0.442 -1.453a0.994 0.994 0 0 0 -1.174 -0.681l-1.472 0.341a1.339 1.339 0 0 1 -1.275 -2.218l1.031 -1.111a1 1 0 0 0 0 -1.362l-1.031 -1.111a1.339 1.339 0 0 1 1.275 -2.218l1.472 0.341a0.994 0.994 0 0 0 1.174 -0.681l0.442 -1.453a1.33 1.33 0 0 1 2.548 0.006Z" fill="none" stroke="#000000" stroke-linecap="round" stroke-linejoin="round" stroke-width="1"></path></svg>