<svg viewBox="0 0 24 24" xmlns="http://www.w3.org/2000/svg" id="Hat-Retro--Streamline-Ultimate"><desc>Hat Retro Streamline Icon: https://streamlinehq.com</desc><path d="M12 9.75a24.692 24.692 0 0 1 -6.091 -0.72A48.652 48.652 0 0 1 4.2 20.432a1.5 1.5 0 0 0 0.989 1.861A23 23 0 0 0 12 23.25a23 23 0 0 0 6.811 -0.957 1.5 1.5 0 0 0 0.989 -1.861 48.652 48.652 0 0 1 -1.709 -11.4A24.692 24.692 0 0 1 12 9.75Z" fill="none" stroke="#000000" stroke-linecap="round" stroke-linejoin="round" stroke-width="1"></path><path d="M0.75 5.25a11.25 4.5 0 1 0 22.5 0 11.25 4.5 0 1 0 -22.5 0Z" fill="none" stroke="#000000" stroke-linecap="round" stroke-linejoin="round" stroke-width="1"></path><path d="M6 5.25a6 1.5 0 1 0 12 0 6 1.5 0 1 0 -12 0Z" fill="none" stroke="#000000" stroke-linecap="round" stroke-linejoin="round" stroke-width="1"></path><path d="M5.558 13.4a23.4 23.4 0 0 0 6.442 0.85 23.4 23.4 0 0 0 6.444 -0.847" fill="none" stroke="#000000" stroke-linecap="round" stroke-linejoin="round" stroke-width="1"></path></svg>