<svg viewBox="0 0 24 24" xmlns="http://www.w3.org/2000/svg" id="Hat-Lady-Cowboy--Streamline-Ultimate"><desc>Hat Lady Cowboy Streamline Icon: https://streamlinehq.com</desc><path d="M14.771 6.8c-3.184 1.125 -2.422 1.134 -5.54 0.026 -3.507 -1.246 -1.839 4.788 -4.568 10.545h14.674C15.772 11.6 18.368 5.528 14.771 6.8Z" fill="none" stroke="#000000" stroke-linecap="round" stroke-linejoin="round" stroke-width="1"></path><path d="M14.018 7.07c-1.176 0.325 -1.771 2.4 -3.485 3.308" fill="none" stroke="#000000" stroke-linecap="round" stroke-linejoin="round" stroke-width="1"></path><path d="M23.25 13.621a3.749 3.749 0 0 1 -3.75 3.75h-15a3.749 3.749 0 0 1 -3.75 -3.75" fill="none" stroke="#000000" stroke-linecap="round" stroke-linejoin="round" stroke-width="1"></path><path d="M9.75 15.121a2.25 2.25 0 1 0 4.5 0 2.25 2.25 0 1 0 -4.5 0Z" fill="none" stroke="#000000" stroke-linecap="round" stroke-linejoin="round" stroke-width="1"></path><path d="m5.741 14.371 4.138 0" fill="none" stroke="#000000" stroke-linecap="round" stroke-linejoin="round" stroke-width="1"></path><path d="m17.971 14.371 -3.85 0" fill="none" stroke="#000000" stroke-linecap="round" stroke-linejoin="round" stroke-width="1"></path></svg>