<svg viewBox="0 0 24 24" xmlns="http://www.w3.org/2000/svg" id="Hair-Dress-Comb-1--Streamline-Ultimate"><desc>Hair Dress Comb 1 Streamline Icon: https://streamlinehq.com</desc><path d="M18.069 11.251a1.906 1.906 0 0 1 0.184 -2.851l3.7 -2.851a2.678 2.678 0 0 0 0.592 -3.883 2.594 2.594 0 0 0 -4.084 0.175l-2.946 3.814a1.905 1.905 0 0 1 -2.857 0.185h0a3.061 3.061 0 0 0 -4.33 0L5.621 8.546l9.743 9.743 2.707 -2.706a3.063 3.063 0 0 0 0 -4.33Z" fill="none" stroke="#000000" stroke-linecap="round" stroke-linejoin="round" stroke-width="1"></path><path d="M5.621 8.546 0.75 13.418" fill="none" stroke="#000000" stroke-linecap="round" stroke-linejoin="round" stroke-width="1"></path><path d="m8.869 11.794 -4.871 4.871" fill="none" stroke="#000000" stroke-linecap="round" stroke-linejoin="round" stroke-width="1"></path><path d="m12.117 15.041 -4.872 4.872" fill="none" stroke="#000000" stroke-linecap="round" stroke-linejoin="round" stroke-width="1"></path><path d="m15.364 18.289 -4.871 4.871" fill="none" stroke="#000000" stroke-linecap="round" stroke-linejoin="round" stroke-width="1"></path></svg>