<svg xmlns="http://www.w3.org/2000/svg" fill="none" viewBox="0 0 24 24" id="Alert-Push-Notification-3--Streamline-Ultimate"><desc>Alert Push Notification 3 Streamline Icon: https://streamlinehq.com</desc><path stroke="#000000" stroke-linecap="round" stroke-linejoin="round" d="M16.75 14.75v8.5" stroke-width="1"></path><path stroke="#000000" stroke-linecap="round" stroke-linejoin="round" d="M0.75 23.25V6.75c0 -0.53043 0.210714 -1.03914 0.58579 -1.41421C1.71086 4.96071 2.21957 4.75 2.75 4.75h6.5" stroke-width="1"></path><path stroke="#000000" stroke-linecap="round" stroke-linejoin="round" d="M9.25 7.75h-3" stroke-width="1"></path><path stroke="#000000" stroke-linecap="round" stroke-linejoin="round" d="M12.75 12.75h-8c-0.55228 0 -1 0.4477 -1 1V20c0 0.5523 0.44772 1 1 1h8c0.5523 0 1 -0.4477 1 -1v-6.25c0 -0.5523 -0.4477 -1 -1 -1Z" stroke-width="1"></path><path stroke="#000000" stroke-linecap="round" stroke-linejoin="round" d="M3.75 17.75h10" stroke-width="1"></path><path stroke="#000000" stroke-linecap="round" stroke-linejoin="round" d="M17.75 11.75c3.0376 0 5.5 -2.46243 5.5 -5.5s-2.4624 -5.5 -5.5 -5.5 -5.5 2.46243 -5.5 5.5 2.4624 5.5 5.5 5.5Z" stroke-width="1"></path><path stroke="#000000" d="M17.75 9.25c-0.2071 0 -0.375 -0.16789 -0.375 -0.375s0.1679 -0.375 0.375 -0.375" stroke-width="1"></path><path stroke="#000000" d="M17.75 9.25c0.2071 0 0.375 -0.16789 0.375 -0.375s-0.1679 -0.375 -0.375 -0.375" stroke-width="1"></path><path stroke="#000000" stroke-linecap="round" stroke-linejoin="round" d="M17.75 6.25v-3" stroke-width="1"></path></svg>