<svg xmlns="http://www.w3.org/2000/svg" viewBox="0 0 24 24" id="Alert-Multi-Apps-Notifications--Streamline-Ultimate"><desc>Alert Multi Apps Notifications Streamline Icon: https://streamlinehq.com</desc><defs></defs><title>alert-multi-apps-notifications</title><path d="M11.75 15.1v7.15a1 1 0 0 1 -1 1h-9a1 1 0 0 1 -1 -1v-9a1 1 0 0 1 1 -1h7.527" fill="none" stroke="#000000" stroke-linecap="round" stroke-linejoin="round" stroke-width="1"></path><path d="M9 13.25a2 2 0 1 0 4 0 2 2 0 1 0 -4 0" fill="none" stroke="#000000" stroke-linecap="round" stroke-linejoin="round" stroke-width="1"></path><path d="M6 12.25V8a1 1 0 0 1 1 -1h7.527" fill="none" stroke="#000000" stroke-linecap="round" stroke-linejoin="round" stroke-width="1"></path><path d="M17 9.853V17a1 1 0 0 1 -1 1h-4.25" fill="none" stroke="#000000" stroke-linecap="round" stroke-linejoin="round" stroke-width="1"></path><path d="M14.25 8a2 2 0 1 0 4 0 2 2 0 1 0 -4 0" fill="none" stroke="#000000" stroke-linecap="round" stroke-linejoin="round" stroke-width="1"></path><path d="M11 7V2.75a1 1 0 0 1 1 -1h7.527" fill="none" stroke="#000000" stroke-linecap="round" stroke-linejoin="round" stroke-width="1"></path><path d="M22 4.6v7.15a1 1 0 0 1 -1 1h-4" fill="none" stroke="#000000" stroke-linecap="round" stroke-linejoin="round" stroke-width="1"></path><path d="M19.25 2.75a2 2 0 1 0 4 0 2 2 0 1 0 -4 0" fill="none" stroke="#000000" stroke-linecap="round" stroke-linejoin="round" stroke-width="1"></path></svg>