<svg xmlns="http://www.w3.org/2000/svg" fill="none" viewBox="0 0 24 24" id="Alert-Diamond--Streamline-Ultimate"><desc>Alert Diamond Streamline Icon: https://streamlinehq.com</desc><path stroke="#000000" d="M12 17.25c-0.2071 0 -0.375 -0.1679 -0.375 -0.375s0.1679 -0.375 0.375 -0.375" stroke-width="1"></path><path stroke="#000000" d="M12 17.25c0.2071 0 0.375 -0.1679 0.375 -0.375S12.2071 16.5 12 16.5" stroke-width="1"></path><path stroke="#000000" stroke-linecap="round" stroke-miterlimit="10" d="M12 13.5V6" stroke-width="1"></path><path stroke="#000000" stroke-linecap="round" stroke-linejoin="round" d="M1.27995 13.281C0.940605 12.9412 0.75 12.4807 0.75 12.0005c0 -0.4802 0.190605 -0.9408 0.52995 -1.2805l9.43995 -9.43902c0.168 -0.16835 0.3675 -0.301921 0.5871 -0.393056 0.2197 -0.091135 0.4551 -0.138046 0.6929 -0.138046 0.2378 0 0.4733 0.046911 0.693 0.138046 0.2196 0.091135 0.4191 0.224706 0.587 0.393056l9.44 9.43902c0.3394 0.3397 0.53 0.8003 0.53 1.2805 0 0.4802 -0.1906 0.9407 -0.53 1.2805l-9.44 9.439c-0.3395 0.3393 -0.7999 0.5298 -1.28 0.5298 -0.48 0 -0.9404 -0.1905 -1.28 -0.5298l-9.43995 -9.439Z" stroke-width="1"></path></svg>