<svg xmlns="http://www.w3.org/2000/svg" fill="none" viewBox="0 0 24 24" id="Alert-Octagon-1--Streamline-Ultimate"><desc>Alert Octagon 1 Streamline Icon: https://streamlinehq.com</desc><path stroke="#000000" stroke-linecap="round" stroke-linejoin="round" stroke-miterlimit="10" d="M16.65 0.799988h-9.3L0.75 7.29999V16.7l6.6 6.5h9.3l6.6 -6.5V7.29999L16.65 0.799988Z" stroke-width="1"></path><path stroke="#000000" stroke-linecap="round" stroke-linejoin="round" stroke-miterlimit="10" d="M11.95 18.4999c0.8284 0 1.5 -0.6715 1.5 -1.5 0 -0.8284 -0.6716 -1.5 -1.5 -1.5 -0.8285 0 -1.5 0.6716 -1.5 1.5 0 0.8285 0.6715 1.5 1.5 1.5Z" stroke-width="1"></path><path stroke="#000000" stroke-linecap="round" stroke-linejoin="round" stroke-miterlimit="10" d="M13.95 6.99994c0 1.1 -2 5.49996 -2 5.49996S9.94995 8.09994 9.94995 6.99994c0 -1.1 0.90005 -2 2.00005 -2 1.1 0 2 0.9 2 2Z" stroke-width="1"></path></svg>