<svg xmlns="http://www.w3.org/2000/svg" fill="none" viewBox="0 0 24 24" id="Alert-User--Streamline-Ultimate"><desc>Alert User Streamline Icon: https://streamlinehq.com</desc><path stroke="#000000" stroke-linecap="round" stroke-linejoin="round" d="M18 0.75005c-1.0085 -0.004399 -1.9967 0.28305 -2.8455 0.82768s-1.5219 1.32318 -1.9382 2.24177c-0.4163 0.91859 -0.5579 1.938 -0.4079 2.93528 0.1501 0.99728 0.5855 1.92986 1.2536 2.68527l-0.656 3.77895 3.423 -2.11c0.7202 0.1654 1.4671 0.1767 2.1919 0.0333 0.7249 -0.1434 1.4112 -0.4383 2.0142 -0.8654 0.6029 -0.42703 1.1088 -0.97666 1.4846 -1.61283 0.3758 -0.63618 0.6129 -1.34456 0.6959 -2.07876 0.083 -0.73419 0.01 -1.47764 -0.2143 -2.18164 -0.2243 -0.70401 -0.5947 -1.3527 -1.0871 -1.9036 -0.4924 -0.55089 -1.0956 -0.99155 -1.7701 -1.29314C19.4695 0.905353 18.7389 0.749659 18 0.75005v0Z" stroke-width="1"></path><path stroke="#000000" stroke-linecap="round" stroke-linejoin="round" d="M8.23193 18.75c1.86397 0 3.37497 -1.511 3.37497 -3.375S10.0959 12 8.23193 12c-1.86396 0 -3.375 1.511 -3.375 3.375s1.51104 3.375 3.375 3.375Z" stroke-width="1"></path><path stroke="#000000" stroke-linecap="round" stroke-linejoin="round" d="M13.46 23.243c-0.5353 -0.9119 -1.2998 -1.668 -2.2176 -2.1931 -0.9178 -0.5251 -1.95699 -0.801 -3.01441 -0.8003 -1.05741 0.0007 -2.09624 0.278 -3.01335 0.8044C4.29753 21.5803 3.53405 22.3374 3 23.25" stroke-width="1"></path><path stroke="#000000" d="M18 8.25c-0.2071 0 -0.375 -0.16789 -0.375 -0.375S17.7929 7.5 18 7.5" stroke-width="1"></path><path stroke="#000000" d="M18 8.25c0.2071 0 0.375 -0.16789 0.375 -0.375S18.2071 7.5 18 7.5" stroke-width="1"></path><path stroke="#000000" stroke-linecap="round" stroke-miterlimit="10" d="M18 5.25v-1.5" stroke-width="1"></path><path stroke="#000000" stroke-linecap="round" stroke-linejoin="round" d="M18 14.25v9" stroke-width="1"></path><path stroke="#000000" stroke-linecap="round" stroke-linejoin="round" d="M0.75 23.25V3.75c0 -0.79565 0.31607 -1.55871 0.87868 -2.12132C2.19129 1.06607 2.95435 0.75 3.75 0.75h7.5" stroke-width="1"></path><path stroke="#000000" stroke-linecap="round" stroke-linejoin="round" d="M0.75 6.75h9" stroke-width="1"></path><path stroke="#000000" stroke-linecap="round" stroke-linejoin="round" d="M6.75 3.75h3" stroke-width="1"></path></svg>