<svg xmlns="http://www.w3.org/2000/svg" fill="none" viewBox="0 0 24 24" id="Alert-Message-Laptop--Streamline-Ultimate"><desc>Alert Message Laptop Streamline Icon: https://streamlinehq.com</desc><path stroke="#000000" stroke-linecap="round" stroke-linejoin="round" d="M21.75 15.75v3" stroke-width="1"></path><path stroke="#000000" stroke-linecap="round" stroke-linejoin="round" d="M2.25 18.75V8.25c0 -0.39782 0.15804 -0.77936 0.43934 -1.06066 0.2813 -0.2813 0.66284 -0.43934 1.06066 -0.43934H7.5" stroke-width="1"></path><path stroke="#000000" stroke-linecap="round" stroke-linejoin="round" d="M14.584 18.75c-0.2603 0.4556 -0.6364 0.8342 -1.0902 1.0976 -0.4538 0.2634 -0.9691 0.4021 -1.4938 0.4021s-1.04 -0.1387 -1.4938 -0.4021 -0.82992 -0.642 -1.0902 -1.0976H0.75v1.5c0 0.7956 0.31607 1.5587 0.87868 2.1213 0.56261 0.5626 1.32567 0.8787 2.12132 0.8787h16.5c0.7956 0 1.5587 -0.3161 2.1213 -0.8787 0.5626 -0.5626 0.8787 -1.3257 0.8787 -2.1213v-1.5h-8.666Z" stroke-width="1"></path><g><path stroke="#000000" stroke-linecap="round" stroke-linejoin="round" d="M18.6648 1.01639c-1.1766 -0.35161 -2.4299 -0.355224 -3.6085 -0.01041 -1.1787 0.34482 -2.2323 1.02334 -3.0339 1.95369 -0.8016 0.93035 -1.3168 2.07277 -1.4835 3.28944 -0.1668 1.21667 0.0221 2.45559 0.5439 3.56728L9.01978 14.0054l4.72202 -1.29c0.7844 0.4394 1.6529 0.7082 2.5484 0.7888 0.8955 0.0807 1.798 -0.0287 2.6483 -0.3209 0.8504 -0.2921 1.6294 -0.7606 2.2863 -1.3746 0.6568 -0.614 1.1766 -1.3599 1.5253 -2.18862 0.3487 -0.82877 0.5185 -1.72183 0.4983 -2.62075 -0.0202 -0.89891 -0.23 -1.78343 -0.6157 -2.59568 -0.3856 -0.81225 -0.9384 -1.53392 -1.6222 -2.1178 -0.6837 -0.58388 -1.4831 -1.01681 -2.3457 -1.27046v0.001Z" stroke-width="1"></path><path stroke="#000000" d="M16.8818 9.78735c-0.2071 0 -0.375 -0.16789 -0.375 -0.375 0 -0.2071 0.1679 -0.375 0.375 -0.375" stroke-width="1"></path><path stroke="#000000" d="M16.8818 9.78735c0.2071 0 0.375 -0.16789 0.375 -0.375 0 -0.2071 -0.1679 -0.375 -0.375 -0.375" stroke-width="1"></path><path stroke="#000000" stroke-linecap="round" stroke-miterlimit="10" d="M16.8818 6.78735v-3" stroke-width="1"></path></g></svg>