<svg viewBox="0 0 24 24" xmlns="http://www.w3.org/2000/svg" id="Radioactive--Streamline-Ultimate"><desc>Radioactive Streamline Icon: https://streamlinehq.com</desc><path d="M10.525 11a1.5 1.5 0 1 0 3 0 1.5 1.5 0 1 0 -3 0Z" fill="none" stroke="#000000" stroke-linecap="round" stroke-linejoin="round" stroke-width="1"></path><path d="M17.95 1.04a0.753 0.753 0 0 0 -1.068 0.248l-2.8 4.848a0.75 0.75 0 0 0 0.262 1.017 4.492 4.492 0 0 1 2.134 3.205 0.749 0.749 0 0 0 0.742 0.642h5.28a0.748 0.748 0 0 0 0.748 -0.8 11.98 11.98 0 0 0 -5.298 -9.16Z" fill="none" stroke="#000000" stroke-linecap="round" stroke-linejoin="round" stroke-width="1"></path><path d="M9.7 7.153a0.749 0.749 0 0 0 0.262 -1.017l-2.8 -4.848A0.75 0.75 0 0 0 6.1 1.04 11.983 11.983 0 0 0 0.8 10.2a0.751 0.751 0 0 0 0.748 0.8h5.28a0.749 0.749 0 0 0 0.742 -0.642A4.5 4.5 0 0 1 9.7 7.153Z" fill="none" stroke="#000000" stroke-linecap="round" stroke-linejoin="round" stroke-width="1"></path><path d="M14.265 14.881a4.364 4.364 0 0 1 -4.481 0l-3.367 5.833a0.751 0.751 0 0 0 0.316 1.048 11.928 11.928 0 0 0 10.583 0 0.749 0.749 0 0 0 0.317 -1.048Z" fill="none" stroke="#000000" stroke-linecap="round" stroke-linejoin="round" stroke-width="1"></path></svg>