<svg xmlns="http://www.w3.org/2000/svg" fill="none" viewBox="0 0 24 24" id="Sos-Symbol--Streamline-Ultimate"><desc>Sos Symbol Streamline Icon: https://streamlinehq.com</desc><path stroke="#000000" stroke-linecap="round" stroke-linejoin="round" d="M0.75 12a11.25 11.25 0 1 0 22.5 0 11.25 11.25 0 1 0 -22.5 0" stroke-width="1"></path><path stroke="#000000" stroke-linecap="round" stroke-linejoin="round" d="M19.9008 9.7498c-0.2471 -0.69911 -1.0163 -1.2 -1.8 -1.2 -0.9566 0 -1.8 0.7755 -1.8 1.7321 0 0.7452 0.5071 1.3947 1.23 1.5754l1.017 0.2542c0.7951 0.1988 1.353 0.9133 1.353 1.733v0.1053c0 0.9941 -0.8059 1.8 -1.8 1.8 -0.7837 0 -1.5529 -0.5009 -1.8 -1.2" stroke-width="1"></path><path stroke="#000000" stroke-linecap="round" stroke-linejoin="round" d="M7.70156 9.45c-0.2471 -0.69912 -1.01627 -1.2 -1.8 -1.2 -0.95662 0 -1.8 0.7755 -1.8 1.73212 0 0.74518 0.50713 1.39468 1.23002 1.57538l1.01696 0.2542c0.79518 0.1988 1.35303 0.9133 1.35303 1.733v0.1053c0 0.9941 -0.80589 1.8 -1.80001 1.8 -0.78373 0 -1.55289 -0.5009 -1.8 -1.2" stroke-width="1"></path><path stroke="#000000" stroke-linecap="round" stroke-linejoin="round" d="M10.1992 10.05v3.6c0 0.9941 0.8059 1.8 1.8 1.8 0.9941 0 1.8 -0.8059 1.8 -1.8v-3.6c0 -0.99411 -0.8059 -1.8 -1.8 -1.8 -0.9941 0 -1.8 0.80589 -1.8 1.8Z" stroke-width="1"></path></svg>