<svg xmlns="http://www.w3.org/2000/svg" fill="none" viewBox="0 0 24 24" id="Blackmail-Woman-Nude--Streamline-Ultimate"><desc>Blackmail Woman Nude Streamline Icon: https://streamlinehq.com</desc><path stroke="#000000" stroke-linecap="round" stroke-linejoin="round" d="M8.10001 17.25c0.8664 -0.8669 1.35309 -2.0424 1.35309 -3.268 0 -1.2256 -0.48669 -2.4011 -1.35309 -3.268 -0.42923 -0.4291 -0.76973 -0.93861 -1.00204 -1.49934 -0.23231 -0.56073 -0.35188 -1.16173 -0.35188 -1.76868 0 -0.60695 0.11957 -1.20795 0.35188 -1.76868 0.23231 -0.56073 0.57281 -1.0702 1.00204 -1.49932" stroke-width="1"></path><path stroke="#000000" stroke-linecap="round" stroke-linejoin="round" d="M18.4 17.25c-0.8664 -0.8669 -1.3531 -2.0424 -1.3531 -3.268 0 -1.2256 0.4867 -2.4011 1.3531 -3.268 0.4292 -0.4291 0.7697 -0.93861 1.002 -1.49934 0.2323 -0.56073 0.3519 -1.16173 0.3519 -1.76868 0 -0.60695 -0.1196 -1.20795 -0.3519 -1.76868s-0.5728 -1.0702 -1.002 -1.49932" stroke-width="1"></path><path stroke="#000000" stroke-linecap="round" stroke-linejoin="round" d="M8.75 20.751h12.5c0.5304 0 1.0391 -0.2107 1.4142 -0.5858s0.5858 -0.8838 0.5858 -1.4142V2.75098c0 -0.53044 -0.2107 -1.03914 -0.5858 -1.41422 -0.3751 -0.37507 -0.8838 -0.585783 -1.4142 -0.585783h-16c-0.53043 0 -1.03914 0.210713 -1.41421 0.585783 -0.37508 0.37508 -0.58579 0.88378 -0.58579 1.41422v6.5" stroke-width="1"></path><path stroke="#000000" d="M10.5 7.875c-0.2071 0 -0.375 -0.16789 -0.375 -0.375s0.1679 -0.375 0.375 -0.375" stroke-width="1"></path><path stroke="#000000" d="M10.5 7.875c0.2071 0 0.375 -0.16789 0.375 -0.375s-0.1679 -0.375 -0.375 -0.375" stroke-width="1"></path><path stroke="#000000" d="M16 7.875c-0.2071 0 -0.375 -0.16789 -0.375 -0.375s0.1679 -0.375 0.375 -0.375" stroke-width="1"></path><path stroke="#000000" d="M16 7.875c0.2071 0 0.375 -0.16789 0.375 -0.375s-0.1679 -0.375 -0.375 -0.375" stroke-width="1"></path><path stroke="#000000" stroke-linecap="round" stroke-linejoin="round" d="M13.25 17.25v-1.5" stroke-width="1"></path><path stroke="#000000" stroke-linecap="round" stroke-linejoin="round" d="M0.75 19.751c0 0.5304 0.210714 1.0391 0.58579 1.4142 0.37507 0.3751 0.88378 0.5858 1.41421 0.5858s1.03914 -0.2107 1.41421 -0.5858c0.37508 -0.3751 0.58579 -0.8838 0.58579 -1.4142 -0.00539 -0.25 -0.0628 -0.4961 -0.16856 -0.7226 -0.10576 -0.2266 -0.25755 -0.4286 -0.44571 -0.5932 -0.18816 -0.1647 -0.40856 -0.2883 -0.64714 -0.3631 -0.23858 -0.0747 -0.49012 -0.0989 -0.73859 -0.0711 -0.24855 0.0278 -0.50017 0.0036 -0.73882 -0.0712 -0.23865 -0.0748 -0.45909 -0.1986 -0.64727 -0.3633 -0.18817 -0.1648 -0.33995 -0.3669 -0.445651 -0.5936C0.812558 16.7463 0.755254 16.5 0.75 16.25c0 -0.5304 0.210714 -1.0391 0.58579 -1.4142 0.37507 -0.3751 0.88378 -0.5858 1.41421 -0.5858s1.03914 0.2107 1.41421 0.5858c0.37508 0.3751 0.58579 0.8838 0.58579 1.4142" stroke-width="1"></path><path stroke="#000000" stroke-linecap="round" stroke-linejoin="round" d="M2.75 12.75v1.5" stroke-width="1"></path><path stroke="#000000" stroke-linecap="round" stroke-linejoin="round" d="M2.75 21.751v1.5" stroke-width="1"></path><path stroke="#000000" stroke-linecap="round" stroke-linejoin="round" d="M7.30005 9.62903c0.29906 0.49327 0.70823 0.91067 1.19548 1.21937 0.48724 0.3088 1.03934 0.5007 1.61307 0.5605 0.5737 0.0599 1.1535 -0.0139 1.694 -0.2155 0.5405 -0.2015 1.027 -0.5254 1.4214 -0.9464 0.3544 0.3991 0.7902 0.7174 1.2781 0.9336 0.4879 0.2161 1.0165 0.325 1.5501 0.3193 0.5336 -0.0057 1.0598 -0.1258 1.543 -0.3523 0.4832 -0.2265 0.9121 -0.5541 1.2578 -0.9606" stroke-width="1"></path></svg>