<svg xmlns="http://www.w3.org/2000/svg" viewBox="0 0 24 24" id="Blackmail-Video--Streamline-Ultimate"><desc>Blackmail Video Streamline Icon: https://streamlinehq.com</desc><defs></defs><path d="M0.75 16.609h7.5a1.5 1.5 0 0 1 1.5 1.5h0a1.5 1.5 0 0 1 -1.5 1.5h-2.5" fill="none" stroke="#000000" stroke-linecap="round" stroke-linejoin="round" stroke-width="1"></path><path d="m0.75 21.609 5.85 1.462a6 6 0 0 0 4.138 -0.454l5.5 -2.752a1.565 1.565 0 0 0 0.642 -2.2h0a1.565 1.565 0 0 0 -1.8 -0.69l-5.33 1.634" fill="none" stroke="#000000" stroke-linecap="round" stroke-linejoin="round" stroke-width="1"></path><path d="M4.25 10.359a2 2 0 1 0 4 0 1.8 1.8 0 0 0 -2 -1.75 1.8 1.8 0 0 1 -2 -1.75 2 2 0 0 1 4 0" fill="none" stroke="#000000" stroke-linecap="round" stroke-linejoin="round" stroke-width="1"></path><path d="m6.25 3.359 0 1.5" fill="none" stroke="#000000" stroke-linecap="round" stroke-linejoin="round" stroke-width="1"></path><path d="m6.25 12.359 0 1.5" fill="none" stroke="#000000" stroke-linecap="round" stroke-linejoin="round" stroke-width="1"></path><path d="M12.33 13.75h8.84a2.08 2.08 0 0 0 2.08 -2.08V2.83A2.08 2.08 0 0 0 21.17 0.75h-8.84a2.08 2.08 0 0 0 -2.08 2.08v0.92" fill="none" stroke="#000000" stroke-linecap="round" stroke-linejoin="round" stroke-width="1"></path><path d="m14.75 10.25 0 -6 5 3 -5 3z" fill="none" stroke="#000000" stroke-linecap="round" stroke-linejoin="round" stroke-width="1"></path></svg>