<svg xmlns="http://www.w3.org/2000/svg" viewBox="0 0 24 24" id="Blackmail-Men-Nude--Streamline-Ultimate"><desc>Blackmail Men Nude Streamline Icon: https://streamlinehq.com</desc><defs></defs><path d="M7.516 15.23a3.384 3.384 0 0 0 4.452 1.706 3.342 3.342 0 0 0 1.717 -4.423 3.3 3.3 0 0 0 -0.533 -0.813l5.431 -2.392a2.388 2.388 0 0 0 1.226 -3.159 2.417 2.417 0 0 0 -3.18 -1.219L7.816 8.812" fill="none" stroke="#000000" stroke-linecap="round" stroke-linejoin="round" stroke-width="1"></path><path d="m15.555 5.404 1.695 4.491" fill="none" stroke="#000000" stroke-linecap="round" stroke-linejoin="round" stroke-width="1"></path><path d="M8.75 20.75h12.5a2 2 0 0 0 2 -2v-16a2 2 0 0 0 -2 -2h-16a2 2 0 0 0 -2 2v6.5" fill="none" stroke="#000000" stroke-linecap="round" stroke-linejoin="round" stroke-width="1"></path><path d="M0.75 19.75a2 2 0 0 0 4 0 1.8 1.8 0 0 0 -2 -1.75 1.8 1.8 0 0 1 -2 -1.75 2 2 0 0 1 4 0" fill="none" stroke="#000000" stroke-linecap="round" stroke-linejoin="round" stroke-width="1"></path><path d="m2.75 12.75 0 1.5" fill="none" stroke="#000000" stroke-linecap="round" stroke-linejoin="round" stroke-width="1"></path><path d="m2.75 21.75 0 1.5" fill="none" stroke="#000000" stroke-linecap="round" stroke-linejoin="round" stroke-width="1"></path></svg>