<svg xmlns="http://www.w3.org/2000/svg" viewBox="0 0 24 24" id="Clickjacking-Financial--Streamline-Ultimate"><desc>Clickjacking Financial Streamline Icon: https://streamlinehq.com</desc><defs></defs><path d="M4.4 12.683a6.25 6.25 0 1 1 7.681 -2.037" fill="none" stroke="#000000" stroke-linecap="round" stroke-linejoin="round" stroke-width="1"></path><path d="M5.5 8.489a1.5 1.5 0 1 0 1.5 -1.5 1.5 1.5 0 1 1 1.5 -1.5" fill="none" stroke="#000000" stroke-linecap="round" stroke-linejoin="round" stroke-width="1"></path><path d="m7 3.989 0 -1" fill="none" stroke="#000000" stroke-linecap="round" stroke-linejoin="round" stroke-width="1"></path><path d="m7 10.989 0 -1" fill="none" stroke="#000000" stroke-linecap="round" stroke-linejoin="round" stroke-width="1"></path><path d="M21.211 15.132A3.5 3.5 0 0 0 18.25 13.5h-6.5a3.5 3.5 0 0 0 0 7h3" fill="none" stroke="#000000" stroke-linecap="round" stroke-linejoin="round" stroke-width="1"></path><path d="m17.55 17.55 1.664 5.493 3.829 -3.829 -5.493 -1.664z" fill="none" stroke="#000000" stroke-linecap="round" stroke-linejoin="round" stroke-width="1"></path><path d="m23.25 23.25 -2.121 -2.121" fill="none" stroke="#000000" stroke-linecap="round" stroke-linejoin="round" stroke-width="1"></path></svg>