<svg xmlns="http://www.w3.org/2000/svg" viewBox="0 0 24 24" id="Clickjacking-Unlock--Streamline-Ultimate"><desc>Clickjacking Unlock Streamline Icon: https://streamlinehq.com</desc><defs></defs><path d="M4.25 15.25h-2.5a1 1 0 0 1 -1 -1v-6a1 1 0 0 1 1 -1h8a1 1 0 0 1 1 1v2" fill="none" stroke="#000000" stroke-linecap="round" stroke-linejoin="round" stroke-width="1"></path><path d="M8.873 2.25a4 4 0 0 0 -7.123 2.5v2.5" fill="none" stroke="#000000" stroke-linecap="round" stroke-linejoin="round" stroke-width="1"></path><path d="m5.75 10.75 0 1" fill="none" stroke="#000000" stroke-linecap="round" stroke-linejoin="round" stroke-width="1"></path><path d="M21.211 15.132A3.5 3.5 0 0 0 18.25 13.5h-6.5a3.5 3.5 0 0 0 0 7h3" fill="none" stroke="#000000" stroke-linecap="round" stroke-linejoin="round" stroke-width="1"></path><path d="m17.55 17.55 1.664 5.493 3.829 -3.829 -5.493 -1.664z" fill="none" stroke="#000000" stroke-linecap="round" stroke-linejoin="round" stroke-width="1"></path><path d="m23.25 23.25 -2.121 -2.121" fill="none" stroke="#000000" stroke-linecap="round" stroke-linejoin="round" stroke-width="1"></path></svg>