<svg xmlns="http://www.w3.org/2000/svg" viewBox="0 0 24 24" id="Cyber-Bullying-Phone-Chat-1--Streamline-Ultimate"><desc>Cyber Bullying Phone Chat 1 Streamline Icon: https://streamlinehq.com</desc><defs></defs><path d="M13.25 14.691v7.118a1.441 1.441 0 0 0 1.441 1.441h7.118a1.441 1.441 0 0 0 1.441 -1.441V8.691a1.441 1.441 0 0 0 -1.441 -1.441" fill="none" stroke="#000000" stroke-linecap="round" stroke-linejoin="round" stroke-width="1"></path><path d="m13.25 19.5 10 0" fill="none" stroke="#000000" stroke-linecap="round" stroke-linejoin="round" stroke-width="1"></path><path d="M0.75 5.75h1l1.588 2.677a0.99 0.99 0 0 0 1.728 0.107 1.576 1.576 0 0 0 0.184 -0.784v-2h2a1 1 0 0 0 1 -1v-3a1 1 0 0 0 -1 -1H0.75" fill="none" stroke="#000000" stroke-linecap="round" stroke-linejoin="round" stroke-width="1"></path><path d="M2.5 18.471h1l1.588 2.677a0.99 0.99 0 0 0 1.728 0.107A1.576 1.576 0 0 0 7 20.471v-2h2a1 1 0 0 0 1 -1v-3a1 1 0 0 0 -1 -1H2.5" fill="none" stroke="#000000" stroke-linecap="round" stroke-linejoin="round" stroke-width="1"></path><path d="M11.5 9.25h1l1.588 2.677a0.99 0.99 0 0 0 1.728 0.107A1.576 1.576 0 0 0 16 11.25v-2h2a1 1 0 0 0 1 -1v-3a1 1 0 0 0 -1 -1h-6.5" fill="none" stroke="#000000" stroke-linecap="round" stroke-linejoin="round" stroke-width="1"></path></svg>