<svg xmlns="http://www.w3.org/2000/svg" viewBox="0 0 24 24" id="Cyber-Bullying-Text--Streamline-Ultimate"><desc>Cyber Bullying Text Streamline Icon: https://streamlinehq.com</desc><defs></defs><path d="M12.251 23.25H2.75a2 2 0 0 1 -2 -2V18" fill="none" stroke="#000000" stroke-linecap="round" stroke-linejoin="round" stroke-width="1"></path><path d="M0.75 6V3.068A2.318 2.318 0 0 1 3.068 0.75h17.864a2.318 2.318 0 0 1 2.318 2.318v17.864a2.318 2.318 0 0 1 -2.318 2.318" fill="none" stroke="#000000" stroke-linecap="round" stroke-linejoin="round" stroke-width="1"></path><path d="m0.75 5 22.5 0" fill="none" stroke="#000000" stroke-linecap="round" stroke-linejoin="round" stroke-width="1"></path><path d="M18 0.75 18 5" fill="none" stroke="#000000" stroke-linecap="round" stroke-linejoin="round" stroke-width="1"></path><path d="M13 0.75 13 5" fill="none" stroke="#000000" stroke-linecap="round" stroke-linejoin="round" stroke-width="1"></path><path d="M0.751 13.5h2l1.588 2.677a0.99 0.99 0 0 0 1.728 0.107 1.576 1.576 0 0 0 0.184 -0.784v-2h2a1 1 0 0 0 1 -1v-3a1 1 0 0 0 -1 -1h-7.5" fill="none" stroke="#000000" stroke-linecap="round" stroke-linejoin="round" stroke-width="1"></path><path d="M12.722 18.915h1l1.588 2.677a0.99 0.99 0 0 0 1.728 0.107 1.576 1.576 0 0 0 0.184 -0.784v-2h2a1 1 0 0 0 1 -1v-3a1 1 0 0 0 -1 -1h-6.5" fill="none" stroke="#000000" stroke-linecap="round" stroke-linejoin="round" stroke-width="1"></path></svg>