<svg xmlns="http://www.w3.org/2000/svg" viewBox="0 0 24 24" id="Data-Attacking-E-Mail--Streamline-Ultimate"><desc>Data Attacking E Mail Streamline Icon: https://streamlinehq.com</desc><defs></defs><path d="M9.226 9.107 6.144 6.024" fill="none" stroke="#000000" stroke-linecap="round" stroke-linejoin="round" stroke-width="1"></path><path d="m4.25 8.25 -3.5 1 1.5 -2.501 -1.5 -2.5 3 0 0 -3.5 2.5 1.5 3 -1.5 -0.5 3.5" fill="none" stroke="#000000" stroke-linecap="round" stroke-linejoin="round" stroke-width="1"></path><path d="M13.5 15a1.5 1.5 0 1 0 3 0 1.5 1.5 0 1 0 -3 0" fill="none" stroke="#000000" stroke-linecap="round" stroke-linejoin="round" stroke-width="1"></path><path d="M15 19.5a4.5 4.5 0 1 1 4.5 -4.5 1.506 1.506 0 0 1 -1.406 1.688A1.552 1.552 0 0 1 16.5 15" fill="none" stroke="#000000" stroke-linecap="round" stroke-linejoin="round" stroke-width="1"></path><path d="M6.75 15a8.25 8.25 0 1 0 16.5 0 8.25 8.25 0 1 0 -16.5 0" fill="none" stroke="#000000" stroke-linecap="round" stroke-linejoin="round" stroke-width="1"></path></svg>