<svg xmlns="http://www.w3.org/2000/svg" viewBox="0 0 24 24" id="Data-Attacking-Computer--Streamline-Ultimate"><desc>Data Attacking Computer Streamline Icon: https://streamlinehq.com</desc><defs></defs><path d="m4.75 23.25 9 0" fill="none" stroke="#000000" stroke-linecap="round" stroke-linejoin="round" stroke-width="1"></path><path d="m7.25 19.25 -1.5 4 7 0 -1.5 -4 -4 0z" fill="none" stroke="#000000" stroke-linecap="round" stroke-linejoin="round" stroke-width="1"></path><path d="M17.75 16.25v1.364a1.568 1.568 0 0 1 -1.568 1.568H2.318A1.568 1.568 0 0 1 0.75 17.614v-8.8A1.568 1.568 0 0 1 2.318 7.25H7.25" fill="none" stroke="#000000" stroke-linecap="round" stroke-linejoin="round" stroke-width="1"></path><path d="m4.75 11.5 5.5 0" fill="none" stroke="#000000" stroke-linecap="round" stroke-linejoin="round" stroke-width="1"></path><path d="m4.75 15 3 0" fill="none" stroke="#000000" stroke-linecap="round" stroke-linejoin="round" stroke-width="1"></path><path d="M18.011 5.318 16.943 4.25 14.25 6.943l1.068 1.068a4.062 4.062 0 1 0 2.693 -2.693Z" fill="none" stroke="#000000" stroke-linecap="round" stroke-linejoin="round" stroke-width="1"></path><path d="m15.666 5.527 -1.27 -1.269" fill="none" stroke="#000000" stroke-linecap="round" stroke-linejoin="round" stroke-width="1"></path><path d="m15.639 1.75 0.5 -1" fill="none" stroke="#000000" stroke-linecap="round" stroke-linejoin="round" stroke-width="1"></path><path d="m12.139 2 -1 -1" fill="none" stroke="#000000" stroke-linecap="round" stroke-linejoin="round" stroke-width="1"></path><path d="m11.389 5.25 -1 0.5" fill="none" stroke="#000000" stroke-linecap="round" stroke-linejoin="round" stroke-width="1"></path></svg>