<svg xmlns="http://www.w3.org/2000/svg" viewBox="0 0 24 24" id="Ddos-Attack-Server--Streamline-Ultimate"><desc>Ddos Attack Server Streamline Icon: https://streamlinehq.com</desc><defs></defs><path d="M4.835 4.835a1.778 1.778 0 0 0 0 2.514L6.72 9.234A1.778 1.778 0 1 0 9.234 6.72L7.349 4.835a1.778 1.778 0 0 0 -2.514 0Z" fill="none" stroke="#000000" stroke-linecap="round" stroke-linejoin="round" stroke-width="1"></path><path d="m4.835 4.835 -2.2 0.314L0.75 3.264 2.7 2.7 3.264 0.75l1.885 1.885 -0.314 2.2z" fill="none" stroke="#000000" stroke-linecap="round" stroke-linejoin="round" stroke-width="1"></path><path d="M15.08 4.835a1.778 1.778 0 0 0 0 2.514l1.886 1.885a1.777 1.777 0 1 0 2.513 -2.514l-1.885 -1.885a1.778 1.778 0 0 0 -2.514 0Z" fill="none" stroke="#000000" stroke-linecap="round" stroke-linejoin="round" stroke-width="1"></path><path d="m15.08 4.835 -2.2 0.314 -1.885 -1.885 1.95 -0.564 0.564 -1.95 1.885 1.885 -0.314 2.2z" fill="none" stroke="#000000" stroke-linecap="round" stroke-linejoin="round" stroke-width="1"></path><path d="M4.835 15.085a1.778 1.778 0 0 0 0 2.514l1.885 1.885a1.778 1.778 0 1 0 2.514 -2.514l-1.885 -1.885a1.778 1.778 0 0 0 -2.514 0Z" fill="none" stroke="#000000" stroke-linecap="round" stroke-linejoin="round" stroke-width="1"></path><path d="m4.835 15.085 -2.2 0.314L0.75 13.514l1.95 -0.564 0.564 -1.95 1.885 1.885 -0.314 2.2z" fill="none" stroke="#000000" stroke-linecap="round" stroke-linejoin="round" stroke-width="1"></path><path d="M14.75 12.75h7.5s1 0 1 1v8.5s0 1 -1 1h-7.5s-1 0 -1 -1v-8.5s0 -1 1 -1" fill="none" stroke="#000000" stroke-linecap="round" stroke-linejoin="round" stroke-width="1"></path><path d="m13.75 16.25 9.5 0" fill="none" stroke="#000000" stroke-linecap="round" stroke-linejoin="round" stroke-width="1"></path><path d="m13.75 19.75 9.5 0" fill="none" stroke="#000000" stroke-linecap="round" stroke-linejoin="round" stroke-width="1"></path></svg>