<svg xmlns="http://www.w3.org/2000/svg" viewBox="0 0 24 24" id="Financial-Data-Stolen-1--Streamline-Ultimate"><desc>Financial Data Stolen 1 Streamline Icon: https://streamlinehq.com</desc><defs></defs><path d="M16.75 17.25v5a1 1 0 0 1 -1 1h-14a1 1 0 0 1 -1 -1v-15l5.5 -5.5h9.5a1 1 0 0 1 1 1v3.5" fill="none" stroke="#000000" stroke-linecap="round" stroke-linejoin="round" stroke-width="1"></path><path d="m0.75 7.25 5.5 0 0 -5.5" fill="none" stroke="#000000" stroke-linecap="round" stroke-linejoin="round" stroke-width="1"></path><path d="M7.75 15.25a2.292 2.292 0 0 0 2.5 2 2.292 2.292 0 0 0 2.5 -2 2.292 2.292 0 0 0 -2.5 -2 2.292 2.292 0 0 1 -2.5 -2 2.292 2.292 0 0 1 2.5 -2 2.292 2.292 0 0 1 2.5 2" fill="none" stroke="#000000" stroke-linecap="round" stroke-linejoin="round" stroke-width="1"></path><path d="m10.25 7.25 0 2" fill="none" stroke="#000000" stroke-linecap="round" stroke-linejoin="round" stroke-width="1"></path><path d="M19.25 5.25a2 2 0 1 0 4 0 2 2 0 1 0 -4 0" fill="none" stroke="#000000" stroke-linecap="round" stroke-linejoin="round" stroke-width="1"></path><path d="m21.25 0.75 0 2.5" fill="none" stroke="#000000" stroke-linecap="round" stroke-linejoin="round" stroke-width="1"></path><path d="M16.677 10.352a2.5 2.5 0 1 0 4.573 1.4V7.25" fill="none" stroke="#000000" stroke-linecap="round" stroke-linejoin="round" stroke-width="1"></path><path d="m10.25 17.25 0 2" fill="none" stroke="#000000" stroke-linecap="round" stroke-linejoin="round" stroke-width="1"></path></svg>