<svg xmlns="http://www.w3.org/2000/svg" viewBox="0 0 24 24" id="Financial-Data-Stolen-2--Streamline-Ultimate"><desc>Financial Data Stolen 2 Streamline Icon: https://streamlinehq.com</desc><defs></defs><path d="M18.729 7.125H7.5L6.291 5.109a1 1 0 0 0 -0.856 -0.484H1.75a1 1 0 0 0 -1 1v14a1 1 0 0 0 1 1h3" fill="none" stroke="#000000" stroke-linecap="round" stroke-linejoin="round" stroke-width="1"></path><path d="M18.75 12.98v6.645a1 1 0 0 1 -1 1h-4.5" fill="none" stroke="#000000" stroke-linecap="round" stroke-linejoin="round" stroke-width="1"></path><path d="M23.25 3.375h-5.559a9.825 9.825 0 0 0 -6.469 2.431L9.739 7.125" fill="none" stroke="#000000" stroke-linecap="round" stroke-linejoin="round" stroke-width="1"></path><path d="m18.729 7.125 -4.044 4.417a1.892 1.892 0 0 0 0.076 2.594h0a1.892 1.892 0 0 0 2.569 0.1L20 11.875h3.25" fill="none" stroke="#000000" stroke-linecap="round" stroke-linejoin="round" stroke-width="1"></path><path d="M7 17.125a2 2 0 0 0 4 0 1.8 1.8 0 0 0 -2 -1.75 1.8 1.8 0 0 1 -2 -1.75 2 2 0 0 1 4 0" fill="none" stroke="#000000" stroke-linecap="round" stroke-linejoin="round" stroke-width="1"></path><path d="m9 10.125 0 1.5" fill="none" stroke="#000000" stroke-linecap="round" stroke-linejoin="round" stroke-width="1"></path><path d="m9 19.125 0 1.5" fill="none" stroke="#000000" stroke-linecap="round" stroke-linejoin="round" stroke-width="1"></path></svg>