<svg xmlns="http://www.w3.org/2000/svg" viewBox="0 0 24 24" id="Hacker-Computer--Streamline-Ultimate"><desc>Hacker Computer Streamline Icon: https://streamlinehq.com</desc><defs></defs><path d="m7 21.5 10 0" fill="none" stroke="#000000" stroke-linecap="round" stroke-linejoin="round" stroke-width="1"></path><path d="m10 17.5 -1.5 4 7 0 -1.5 -4 -4 0z" fill="none" stroke="#000000" stroke-linecap="round" stroke-linejoin="round" stroke-width="1"></path><path d="M4.75 2.5h-2a2 2 0 0 0 -2 2v11a2 2 0 0 0 2 2h18.5a2 2 0 0 0 2 -2v-11a2 2 0 0 0 -2 -2h-2" fill="none" stroke="#000000" stroke-linecap="round" stroke-linejoin="round" stroke-width="1"></path><path d="M17.25 7.607A5.181 5.181 0 0 0 12 2.5a5.18 5.18 0 0 0 -5.25 5.107 5.032 5.032 0 0 0 2.019 4v0.824A1.594 1.594 0 0 0 10.385 14h3.23a1.594 1.594 0 0 0 1.616 -1.571v-0.824a5.032 5.032 0 0 0 2.019 -3.998Z" fill="none" stroke="#000000" stroke-linecap="round" stroke-linejoin="round" stroke-width="1"></path><path d="M10.125 7.625A0.375 0.375 0 0 1 10.5 8" fill="none" stroke="#000000" stroke-linecap="round" stroke-linejoin="round" stroke-width="1"></path><path d="M9.75 8a0.375 0.375 0 0 1 0.375 -0.375" fill="none" stroke="#000000" stroke-linecap="round" stroke-linejoin="round" stroke-width="1"></path><path d="M10.125 8.375A0.375 0.375 0 0 1 9.75 8" fill="none" stroke="#000000" stroke-linecap="round" stroke-linejoin="round" stroke-width="1"></path><path d="M10.5 8a0.375 0.375 0 0 1 -0.375 0.375" fill="none" stroke="#000000" stroke-linecap="round" stroke-linejoin="round" stroke-width="1"></path><path d="M13.875 7.625A0.375 0.375 0 0 1 14.25 8" fill="none" stroke="#000000" stroke-linecap="round" stroke-linejoin="round" stroke-width="1"></path><path d="M13.5 8a0.375 0.375 0 0 1 0.375 -0.375" fill="none" stroke="#000000" stroke-linecap="round" stroke-linejoin="round" stroke-width="1"></path><path d="M13.875 8.375A0.375 0.375 0 0 1 13.5 8" fill="none" stroke="#000000" stroke-linecap="round" stroke-linejoin="round" stroke-width="1"></path><path d="M14.25 8a0.375 0.375 0 0 1 -0.375 0.375" fill="none" stroke="#000000" stroke-linecap="round" stroke-linejoin="round" stroke-width="1"></path><path d="M12 11.75 12 14" fill="none" stroke="#000000" stroke-linecap="round" stroke-linejoin="round" stroke-width="1"></path></svg>