<svg xmlns="http://www.w3.org/2000/svg" viewBox="0 0 24 24" id="Identity-Stolen-3--Streamline-Ultimate"><desc>Identity Stolen 3 Streamline Icon: https://streamlinehq.com</desc><defs></defs><path d="M16.25 9.75h-13a2 2 0 0 0 -2 2v9.5a2 2 0 0 0 2 2h13a2 2 0 0 0 2 -2v-1" fill="none" stroke="#000000" stroke-linecap="round" stroke-linejoin="round" stroke-width="1"></path><path d="M18.75 5.75a2 2 0 1 0 4 0 2 2 0 1 0 -4 0" fill="none" stroke="#000000" stroke-linecap="round" stroke-linejoin="round" stroke-width="1"></path><path d="m20.75 0.75 0 3" fill="none" stroke="#000000" stroke-linecap="round" stroke-linejoin="round" stroke-width="1"></path><path d="M16.177 13.352a2.5 2.5 0 1 0 4.573 1.4v-7" fill="none" stroke="#000000" stroke-linecap="round" stroke-linejoin="round" stroke-width="1"></path><path d="M8 14.75a1.75 1.75 0 1 0 3.5 0 1.75 1.75 0 1 0 -3.5 0" fill="none" stroke="#000000" stroke-linecap="round" stroke-linejoin="round" stroke-width="1"></path><path d="M7 20.25a2.75 2.75 0 0 1 5.5 0" fill="none" stroke="#000000" stroke-linecap="round" stroke-linejoin="round" stroke-width="1"></path></svg>