<svg xmlns="http://www.w3.org/2000/svg" viewBox="0 0 24 24" id="Identity-Stolen-Personal-Computer--Streamline-Ultimate"><desc>Identity Stolen Personal Computer Streamline Icon: https://streamlinehq.com</desc><defs></defs><path d="M16.25 6.25H2.75a2 2 0 0 0 -2 2v9.5a2 2 0 0 0 2 2h15a2 2 0 0 0 2 -2v-1" fill="none" stroke="#000000" stroke-linecap="round" stroke-linejoin="round" stroke-width="1"></path><path d="m5.75 23.25 9 0" fill="none" stroke="#000000" stroke-linecap="round" stroke-linejoin="round" stroke-width="1"></path><path d="m8.25 19.75 -1.5 3.5 7 0 -1.5 -3.5 -4 0z" fill="none" stroke="#000000" stroke-linecap="round" stroke-linejoin="round" stroke-width="1"></path><path d="M19.25 4.75a2 2 0 1 0 4 0 2 2 0 1 0 -4 0" fill="none" stroke="#000000" stroke-linecap="round" stroke-linejoin="round" stroke-width="1"></path><path d="m21.25 0.75 0 2" fill="none" stroke="#000000" stroke-linecap="round" stroke-linejoin="round" stroke-width="1"></path><path d="M16.677 9.852a2.5 2.5 0 1 0 4.573 1.4V6.75" fill="none" stroke="#000000" stroke-linecap="round" stroke-linejoin="round" stroke-width="1"></path><path d="M8.5 11.25a1.75 1.75 0 1 0 3.5 0 1.75 1.75 0 1 0 -3.5 0" fill="none" stroke="#000000" stroke-linecap="round" stroke-linejoin="round" stroke-width="1"></path><path d="M7.5 16.75a2.75 2.75 0 0 1 5.5 0" fill="none" stroke="#000000" stroke-linecap="round" stroke-linejoin="round" stroke-width="1"></path></svg>