<svg xmlns="http://www.w3.org/2000/svg" viewBox="0 0 24 24" id="Identity-Stolen-Phone--Streamline-Ultimate"><desc>Identity Stolen Phone Streamline Icon: https://streamlinehq.com</desc><defs></defs><path d="M13.25 2.75H4.672A1.921 1.921 0 0 0 2.75 4.672v16.656a1.921 1.921 0 0 0 1.922 1.922h8.156a1.921 1.921 0 0 0 1.922 -1.922V17.25" fill="none" stroke="#000000" stroke-linecap="round" stroke-linejoin="round" stroke-width="1"></path><path d="m2.75 19.25 12 0" fill="none" stroke="#000000" stroke-linecap="round" stroke-linejoin="round" stroke-width="1"></path><path d="M17.25 4.75a2 2 0 1 0 4 0 2 2 0 1 0 -4 0" fill="none" stroke="#000000" stroke-linecap="round" stroke-linejoin="round" stroke-width="1"></path><path d="m19.25 0.75 0 2" fill="none" stroke="#000000" stroke-linecap="round" stroke-linejoin="round" stroke-width="1"></path><path d="M14.677 9.852a2.5 2.5 0 1 0 4.573 1.4V6.75" fill="none" stroke="#000000" stroke-linecap="round" stroke-linejoin="round" stroke-width="1"></path><path d="M7 9a1.75 1.75 0 1 0 3.5 0A1.75 1.75 0 1 0 7 9" fill="none" stroke="#000000" stroke-linecap="round" stroke-linejoin="round" stroke-width="1"></path><path d="M6 14.5a2.75 2.75 0 0 1 5.5 0" fill="none" stroke="#000000" stroke-linecap="round" stroke-linejoin="round" stroke-width="1"></path></svg>