<svg xmlns="http://www.w3.org/2000/svg" viewBox="0 0 24 24" id="Identity-Stolen-2--Streamline-Ultimate"><desc>Identity Stolen 2 Streamline Icon: https://streamlinehq.com</desc><defs></defs><path d="M1.428 8.25a1.991 1.991 0 0 0 -0.678 1.5v8.5a2 2 0 0 0 2 2h15a1.991 1.991 0 0 0 1.5 -0.678" fill="none" stroke="#000000" stroke-linecap="round" stroke-linejoin="round" stroke-width="1"></path><path d="m5.75 23.25 9 0" fill="none" stroke="#000000" stroke-linecap="round" stroke-linejoin="round" stroke-width="1"></path><path d="m8.25 20.25 -1.5 3 7 0 -1.5 -3 -4 0z" fill="none" stroke="#000000" stroke-linecap="round" stroke-linejoin="round" stroke-width="1"></path><path d="M21.75 10.536v3.714a2 2 0 0 1 -2 2h-13a2 2 0 0 1 -2 -2v-7.5a2 2 0 0 1 2 -2h14.5" fill="none" stroke="#000000" stroke-linecap="round" stroke-linejoin="round" stroke-width="1"></path><path d="M11.75 8.75a1.5 1.5 0 1 0 3 0 1.5 1.5 0 1 0 -3 0" fill="none" stroke="#000000" stroke-linecap="round" stroke-linejoin="round" stroke-width="1"></path><path d="M10.75 13.661a2.5 2.5 0 0 1 5 0" fill="none" stroke="#000000" stroke-linecap="round" stroke-linejoin="round" stroke-width="1"></path><path d="M23.25 0.75h-3.309a9.825 9.825 0 0 0 -6.469 2.431L11.694 4.75" fill="none" stroke="#000000" stroke-linecap="round" stroke-linejoin="round" stroke-width="1"></path><path d="m21.25 4.75 -2.815 3.667a1.892 1.892 0 0 0 0.076 2.594h0a1.892 1.892 0 0 0 2.569 0.1l2.17 -1.86" fill="none" stroke="#000000" stroke-linecap="round" stroke-linejoin="round" stroke-width="1"></path></svg>