<svg xmlns="http://www.w3.org/2000/svg" viewBox="0 0 24 24" id="Identity-Stolen-Finger-Print-Phone--Streamline-Ultimate"><desc>Identity Stolen Finger Print Phone Streamline Icon: https://streamlinehq.com</desc><defs></defs><path d="M13.25 2.75H4.672A1.921 1.921 0 0 0 2.75 4.672v16.656a1.921 1.921 0 0 0 1.922 1.922h8.156a1.921 1.921 0 0 0 1.922 -1.922V17.25" fill="none" stroke="#000000" stroke-linecap="round" stroke-linejoin="round" stroke-width="1"></path><path d="m2.75 19.25 12 0" fill="none" stroke="#000000" stroke-linecap="round" stroke-linejoin="round" stroke-width="1"></path><path d="M6.087 14.25a3.5 3.5 0 0 0 6.518 -0.5" fill="none" stroke="#000000" stroke-linecap="round" stroke-linejoin="round" stroke-width="1"></path><path d="M11.7 7a3.5 3.5 0 0 0 -5.95 2.5V11" fill="none" stroke="#000000" stroke-linecap="round" stroke-linejoin="round" stroke-width="1"></path><path d="M17.25 4.75a2 2 0 1 0 4 0 2 2 0 1 0 -4 0" fill="none" stroke="#000000" stroke-linecap="round" stroke-linejoin="round" stroke-width="1"></path><path d="m19.25 0.75 0 2" fill="none" stroke="#000000" stroke-linecap="round" stroke-linejoin="round" stroke-width="1"></path><path d="M14.677 9.852a2.5 2.5 0 1 0 4.573 1.4V6.75" fill="none" stroke="#000000" stroke-linecap="round" stroke-linejoin="round" stroke-width="1"></path><path d="M9.678 9a1.127 1.127 0 0 0 -1.127 1.127" fill="none" stroke="#000000" stroke-linecap="round" stroke-linejoin="round" stroke-width="1"></path><path d="M9.178 13.124A1.127 1.127 0 0 0 10.3 12" fill="none" stroke="#000000" stroke-linecap="round" stroke-linejoin="round" stroke-width="1"></path></svg>