<svg xmlns="http://www.w3.org/2000/svg" viewBox="0 0 24 24" id="Surgery-Eye-Surgery--Streamline-Ultimate"><desc>Surgery Eye Surgery Streamline Icon: https://streamlinehq.com</desc><defs></defs><title>surgery-eye-surgery</title><path d="M0.8 18.5a19.67 19.67 0 0 1 22.4 0 19.67 19.67 0 0 1 -22.4 0Z" fill="none" stroke="#000000" stroke-linecap="round" stroke-linejoin="round" stroke-width="1"></path><path d="M1.643 14.414q0.8 -0.7 1.661 -1.326" fill="none" stroke="#000000" stroke-linecap="round" stroke-linejoin="round" stroke-width="1"></path><path d="M5.939 11.5a14.53 14.53 0 0 1 1.961 -0.808" fill="none" stroke="#000000" stroke-linecap="round" stroke-linejoin="round" stroke-width="1"></path><path d="M10.912 10.057a14.194 14.194 0 0 1 2.123 -0.019" fill="none" stroke="#000000" stroke-linecap="round" stroke-linejoin="round" stroke-width="1"></path><path d="M16.051 10.637a14.661 14.661 0 0 1 1.973 0.786" fill="none" stroke="#000000" stroke-linecap="round" stroke-linejoin="round" stroke-width="1"></path><path d="M20.675 12.988c0.576 0.412 1.136 0.847 1.67 1.312" fill="none" stroke="#000000" stroke-linecap="round" stroke-linejoin="round" stroke-width="1"></path><path d="M12 15.875h0a2.625 2.625 0 0 1 2.625 2.625h0A2.625 2.625 0 0 1 12 21.125h0A2.625 2.625 0 0 1 9.375 18.5h0A2.625 2.625 0 0 1 12 15.875Z" fill="none" stroke="#000000" stroke-linecap="round" stroke-linejoin="round" stroke-width="1"></path><path d="M6.5 6.75 6.5 2" fill="none" stroke="#000000" stroke-linecap="round" stroke-linejoin="round" stroke-width="1"></path><path d="M9 4.5 6.5 2 4 4.5" fill="none" stroke="#000000" stroke-linecap="round" stroke-linejoin="round" stroke-width="1"></path><path d="m17.5 6.75 0 -4.75" fill="none" stroke="#000000" stroke-linecap="round" stroke-linejoin="round" stroke-width="1"></path><path d="M20 4.5 17.5 2 15 4.5" fill="none" stroke="#000000" stroke-linecap="round" stroke-linejoin="round" stroke-width="1"></path></svg>