<svg xmlns="http://www.w3.org/2000/svg" viewBox="0 0 24 24" id="Surgery-Facial-Surgery--Streamline-Ultimate"><desc>Surgery Facial Surgery Streamline Icon: https://streamlinehq.com</desc><defs></defs><title>surgery-facial-surgery</title><path d="M6.5 10.5c0 -0.54 0.853 -0.978 1.906 -0.978s1.844 0.438 1.844 0.978" fill="none" stroke="#000000" stroke-linecap="round" stroke-linejoin="round" stroke-width="1"></path><path d="M13.5 10.5c0 -0.54 0.853 -0.978 1.906 -0.978s1.906 0.438 1.906 0.978" fill="none" stroke="#000000" stroke-linecap="round" stroke-linejoin="round" stroke-width="1"></path><path d="M0.75 12a11.25 11.25 0 1 0 22.5 0 11.25 11.25 0 1 0 -22.5 0" fill="none" stroke="#000000" stroke-linecap="round" stroke-linejoin="round" stroke-width="1"></path><path d="M2.419 6.856a9.128 9.128 0 0 1 1.509 -0.787" fill="none" stroke="#000000" stroke-linecap="round" stroke-linejoin="round" stroke-width="1"></path><path d="M6.308 5.428a8.7 8.7 0 0 1 1.7 -0.074" fill="none" stroke="#000000" stroke-linecap="round" stroke-linejoin="round" stroke-width="1"></path><path d="M10.405 5.9a4.816 4.816 0 0 1 1.426 0.915" fill="none" stroke="#000000" stroke-linecap="round" stroke-linejoin="round" stroke-width="1"></path><path d="M21.581 6.856a9.128 9.128 0 0 0 -1.509 -0.787" fill="none" stroke="#000000" stroke-linecap="round" stroke-linejoin="round" stroke-width="1"></path><path d="M17.692 5.428a8.707 8.707 0 0 0 -1.7 -0.074" fill="none" stroke="#000000" stroke-linecap="round" stroke-linejoin="round" stroke-width="1"></path><path d="M13.6 5.9a4.816 4.816 0 0 0 -1.426 0.915" fill="none" stroke="#000000" stroke-linecap="round" stroke-linejoin="round" stroke-width="1"></path><path d="M6.422 20.805a8.274 8.274 0 0 0 0.046 -1.814" fill="none" stroke="#000000" stroke-linecap="round" stroke-linejoin="round" stroke-width="1"></path><path d="M5.809 16.451a8.051 8.051 0 0 0 -0.914 -1.566" fill="none" stroke="#000000" stroke-linecap="round" stroke-linejoin="round" stroke-width="1"></path><path d="M2.994 13.075a7.755 7.755 0 0 0 -1.606 -0.842" fill="none" stroke="#000000" stroke-linecap="round" stroke-linejoin="round" stroke-width="1"></path><path d="M17.578 20.805a8.212 8.212 0 0 1 -0.045 -1.814" fill="none" stroke="#000000" stroke-linecap="round" stroke-linejoin="round" stroke-width="1"></path><path d="M18.191 16.451a8.1 8.1 0 0 1 0.913 -1.566" fill="none" stroke="#000000" stroke-linecap="round" stroke-linejoin="round" stroke-width="1"></path><path d="M21.005 13.075a7.806 7.806 0 0 1 1.606 -0.842" fill="none" stroke="#000000" stroke-linecap="round" stroke-linejoin="round" stroke-width="1"></path><path d="M14 16.236a3 3 0 0 1 -4 0" fill="none" stroke="#000000" stroke-linecap="round" stroke-linejoin="round" stroke-width="1"></path></svg>