<svg xmlns="http://www.w3.org/2000/svg" viewBox="0 0 24 24" id="Music-Clef-Sheet--Streamline-Ultimate"><desc>Music Clef Sheet Streamline Icon: https://streamlinehq.com</desc><g><path d="m0.75 4.5 4.5 0" fill="none" stroke="#000000" stroke-linecap="round" stroke-linejoin="round" stroke-width="1"></path><path d="m17.24 4.5 5.99 0" fill="none" stroke="#000000" stroke-linecap="round" stroke-linejoin="round" stroke-width="1"></path><path d="m0.75 9.75 2.99 0" fill="none" stroke="#000000" stroke-linecap="round" stroke-linejoin="round" stroke-width="1"></path><path d="m15.74 9.78 7.51 -0.03" fill="none" stroke="#000000" stroke-linecap="round" stroke-linejoin="round" stroke-width="1"></path><path d="m0.75 15 2.24 0" fill="none" stroke="#000000" stroke-linecap="round" stroke-linejoin="round" stroke-width="1"></path><path d="m16.49 15 6.75 0" fill="none" stroke="#000000" stroke-linecap="round" stroke-linejoin="round" stroke-width="1"></path><path d="M0.75 20.25 3 20.24" fill="none" stroke="#000000" stroke-linecap="round" stroke-linejoin="round" stroke-width="1"></path><path d="m15 20.25 8.24 0" fill="none" stroke="#000000" stroke-linecap="round" stroke-linejoin="round" stroke-width="1"></path><g><path d="M10.63 18.17A23.55 23.55 0 0 1 11 20.8a2.37 2.37 0 0 1 -2.45 2.45 2.44 2.44 0 0 1 -2.46 -2.45" fill="none" stroke="#000000" stroke-linecap="round" stroke-linejoin="round" stroke-width="1"></path><path d="M9.31 15.52a1.65 1.65 0 0 1 1.42 -2.28c1.41 -0.14 2.21 0.48 2.21 1.94a3.22 3.22 0 0 1 -3.43 3.18 3.42 3.42 0 0 1 -3.42 -3.43c0 -2.7 2 -4.24 4.89 -5.38 3.47 -1.37 3.42 -8.8 1 -8.8S9 5.15 9 7.6a22.92 22.92 0 0 0 0.29 2.73" fill="none" stroke="#000000" stroke-linecap="round" stroke-linejoin="round" stroke-width="1"></path></g></g></svg>