<svg xmlns="http://www.w3.org/2000/svg" fill="none" viewBox="0 0 24 24" id="Music-Concert-Ticket--Streamline-Ultimate"><desc>Music Concert Ticket Streamline Icon: https://streamlinehq.com</desc><path stroke="#000000" stroke-linecap="round" stroke-linejoin="round" d="M19.5 12c0 -0.9946 0.3951 -1.9484 1.0983 -2.65165C21.3016 8.64509 22.2554 8.25 23.25 8.25V4.5c0 -0.39782 -0.158 -0.77936 -0.4393 -1.06066C22.5294 3.15804 22.1478 3 21.75 3H2.25c-0.39782 0 -0.77936 0.15804 -1.06066 0.43934C0.908035 3.72064 0.75 4.10218 0.75 4.5v3.75c0.99456 0 1.94839 0.39509 2.65165 1.09835C4.10491 10.0516 4.5 11.0054 4.5 12c0 0.9946 -0.39509 1.9484 -1.09835 2.6517C2.69839 15.3549 1.74456 15.75 0.75 15.75v3.75c0 0.3978 0.158035 0.7794 0.43934 1.0607 0.2813 0.2813 0.66284 0.4393 1.06066 0.4393h19.5c0.3978 0 0.7794 -0.158 1.0607 -0.4393s0.4393 -0.6629 0.4393 -1.0607v-3.75c-0.9946 0 -1.9484 -0.3951 -2.6517 -1.0983C19.8951 13.9484 19.5 12.9946 19.5 12Z" stroke-width="1"></path><path stroke="#000000" stroke-linecap="round" stroke-linejoin="round" d="M8.25 18c0.82843 0 1.5 -0.6716 1.5 -1.5S9.07843 15 8.25 15s-1.5 0.6716 -1.5 1.5 0.67157 1.5 1.5 1.5Z" stroke-width="1"></path><path stroke="#000000" stroke-linecap="round" stroke-linejoin="round" d="M14.25 16.5c0.8284 0 1.5 -0.6716 1.5 -1.5s-0.6716 -1.5 -1.5 -1.5 -1.5 0.6716 -1.5 1.5 0.6716 1.5 1.5 1.5Z" stroke-width="1"></path><path stroke="#000000" stroke-linecap="round" stroke-linejoin="round" d="M15.75 15v-4.079c0 -0.228 -0.052 -0.4529 -0.152 -0.6578 -0.1 -0.2048 -0.2453 -0.38419 -0.425 -0.52446 -0.1797 -0.14026 -0.389 -0.23772 -0.612 -0.28498 -0.223 -0.04726 -0.4539 -0.04308 -0.675 0.01224l-3 0.75c-0.3245 0.0812 -0.6125 0.2684 -0.8183 0.5321 -0.20585 0.2636 -0.31766 0.5884 -0.3177 0.9229V16.5" stroke-width="1"></path><path stroke="#000000" d="M4.875 6.75c-0.20711 0 -0.375 -0.16789 -0.375 -0.375S4.66789 6 4.875 6" stroke-width="1"></path><path stroke="#000000" d="M4.875 6.75c0.20711 0 0.375 -0.16789 0.375 -0.375S5.08211 6 4.875 6" stroke-width="1"></path><path stroke="#000000" d="M9.375 6.75C9.16789 6.75 9 6.58211 9 6.375S9.16789 6 9.375 6" stroke-width="1"></path><path stroke="#000000" d="M9.375 6.75c0.20711 0 0.375 -0.16789 0.375 -0.375S9.58211 6 9.375 6" stroke-width="1"></path><g><path stroke="#000000" d="M14.625 6.75c-0.2071 0 -0.375 -0.16789 -0.375 -0.375S14.4179 6 14.625 6" stroke-width="1"></path><path stroke="#000000" d="M14.625 6.75c0.2071 0 0.375 -0.16789 0.375 -0.375S14.8321 6 14.625 6" stroke-width="1"></path></g><g><path stroke="#000000" d="M19.125 6.75c-0.2071 0 -0.375 -0.16789 -0.375 -0.375S18.9179 6 19.125 6" stroke-width="1"></path><path stroke="#000000" d="M19.125 6.75c0.2071 0 0.375 -0.16789 0.375 -0.375S19.3321 6 19.125 6" stroke-width="1"></path></g></svg>