<svg xmlns="http://www.w3.org/2000/svg" viewBox="0 0 24 24" id="Music-Metronome--Streamline-Ultimate"><desc>Music Metronome Streamline Icon: https://streamlinehq.com</desc><g><path d="m15.27 4.33 -0.85 -2.55A1.5 1.5 0 0 0 13 0.75H9.08a1.51 1.51 0 0 0 -1.41 1l-6.82 18a1.5 1.5 0 0 0 1.4 2H19a1.49 1.49 0 0 0 1.21 -0.62 1.51 1.51 0 0 0 0.21 -1.35L17.83 12" fill="none" stroke="#000000" stroke-linecap="round" stroke-linejoin="round" stroke-width="1"></path><path d="m3.75 21.75 0 1.5" fill="none" stroke="#000000" stroke-linecap="round" stroke-linejoin="round" stroke-width="1"></path><path d="m17.25 21.75 0 1.5" fill="none" stroke="#000000" stroke-linecap="round" stroke-linejoin="round" stroke-width="1"></path><path d="m2.35 15.75 16.73 0" fill="none" stroke="#000000" stroke-linecap="round" stroke-linejoin="round" stroke-width="1"></path><path d="m6.52 4.75 2.81 0" fill="none" stroke="#000000" stroke-linecap="round" stroke-linejoin="round" stroke-width="1"></path><path d="m5.2 8.25 4.13 0" fill="none" stroke="#000000" stroke-linecap="round" stroke-linejoin="round" stroke-width="1"></path><path d="m3.87 11.75 5.38 0" fill="none" stroke="#000000" stroke-linecap="round" stroke-linejoin="round" stroke-width="1"></path><path d="M18.75 3a2.25 2.25 0 1 0 4.5 0 2.25 2.25 0 1 0 -4.5 0" fill="none" stroke="#000000" stroke-linecap="round" stroke-linejoin="round" stroke-width="1"></path><path d="M19.42 4.6 10.5 15.75" fill="none" stroke="#000000" stroke-linecap="round" stroke-linejoin="round" stroke-width="1"></path></g></svg>