<svg xmlns="http://www.w3.org/2000/svg" fill="none" viewBox="0 0 24 24" id="Bubble-Tea-Level--Streamline-Ultimate"><desc>Bubble Tea Level Streamline Icon: https://streamlinehq.com</desc><path stroke="#000000" stroke-linecap="round" stroke-linejoin="round" stroke-miterlimit="10" d="M17.1405 20.0074c0.3922 0.3942 0.9343 0.6385 1.5309 0.6472 0.5967 -0.0087 1.1388 -0.253 1.531 -0.6472" stroke-width="1"></path><path stroke="#000000" stroke-linecap="round" stroke-linejoin="round" stroke-miterlimit="10" d="M20.9182 15.2646V2.94715c0 -1.19758 -0.9709 -2.168402 -2.1684 -2.168402 -1.1976 0 -2.1684 0.970822 -2.1684 2.168402V15.2646c-1.2599 0.7433 -2.1051 2.1146 -2.1051 3.6832 0 2.3602 1.9133 4.2735 4.2735 4.2735 2.3601 0 4.2734 -1.9133 4.2734 -4.2735 0 -1.5686 -0.8452 -2.9399 -2.105 -3.6832Z" stroke-width="1"></path><path stroke="#000000" stroke-linecap="round" stroke-linejoin="round" d="M17.212 17.9222c-0.0929 0 -0.1682 -0.0753 -0.1682 -0.1682 0 -0.0929 0.0753 -0.1682 0.1682 -0.1682" stroke-width="1"></path><path stroke="#000000" stroke-linecap="round" stroke-linejoin="round" d="M17.2129 17.9222c0.0929 0 0.1682 -0.0753 0.1682 -0.1682 0 -0.0929 -0.0753 -0.1682 -0.1682 -0.1682" stroke-width="1"></path><path stroke="#000000" stroke-linecap="round" stroke-linejoin="round" d="M20.2865 17.9719c-0.0929 0 -0.1682 -0.0753 -0.1682 -0.1682 0 -0.0929 0.0753 -0.1683 0.1682 -0.1683" stroke-width="1"></path><path stroke="#000000" stroke-linecap="round" stroke-linejoin="round" d="M20.2875 17.9719c0.0929 0 0.1682 -0.0753 0.1682 -0.1682 0 -0.0929 -0.0753 -0.1683 -0.1682 -0.1683" stroke-width="1"></path><path stroke="#000000" stroke-linecap="round" stroke-linejoin="round" stroke-miterlimit="10" d="M0.976776 9.74762 13.7982 6.78882" stroke-width="1"></path><path stroke="#000000" stroke-linecap="round" stroke-linejoin="round" stroke-miterlimit="10" d="M2.20961 9.50104 5.30379 20.739c0.44763 1.4983 1.98383 2.3896 3.50671 2.0346l3.2607 -0.8458" stroke-width="1"></path><path stroke="#000000" stroke-linecap="round" stroke-linejoin="round" stroke-miterlimit="10" d="m12.5733 7.07172 1.3482 6.74428" stroke-width="1"></path><path stroke="#000000" stroke-linecap="round" stroke-linejoin="round" stroke-miterlimit="10" d="m9.21324 2.79987 -2.60189 0.60655 0.72081 4.84498" stroke-width="1"></path><path stroke="#000000" stroke-linecap="round" stroke-linejoin="round" stroke-miterlimit="10" d="M10.14 19.7285c-0.1335 0.0353 -0.27026 -0.0443 -0.30551 -0.1778 -0.03525 -0.1335 0.04439 -0.2703 0.17791 -0.3056" stroke-width="1"></path><path stroke="#000000" stroke-linecap="round" stroke-linejoin="round" stroke-miterlimit="10" d="M10.1397 19.7286c0.1335 -0.0352 0.2131 -0.172 0.1778 -0.3055 -0.0352 -0.1335 -0.172 -0.2132 -0.3055 -0.1779" stroke-width="1"></path><path stroke="#000000" stroke-linecap="round" stroke-linejoin="round" stroke-miterlimit="10" d="M12.0221 17.5219c-0.1335 0.0352 -0.2703 -0.0444 -0.3055 -0.1779 -0.0353 -0.1335 0.0444 -0.2703 0.1778 -0.3055" stroke-width="1"></path><path stroke="#000000" stroke-linecap="round" stroke-linejoin="round" stroke-miterlimit="10" d="M12.0217 17.522c0.1335 -0.0353 0.2132 -0.1721 0.1779 -0.3056 -0.0352 -0.1335 -0.172 -0.2131 -0.3055 -0.1778" stroke-width="1"></path><path stroke="#000000" stroke-linecap="round" stroke-linejoin="round" stroke-miterlimit="10" d="M7.45154 18.519c-0.13349 0.0353 -0.27029 -0.0444 -0.30554 -0.1779 -0.03525 -0.1335 0.04439 -0.2703 0.17788 -0.3055" stroke-width="1"></path><path stroke="#000000" stroke-linecap="round" stroke-linejoin="round" stroke-miterlimit="10" d="M7.45118 18.5191c0.13349 -0.0352 0.21313 -0.172 0.17787 -0.3055 -0.03525 -0.1335 -0.17204 -0.2132 -0.30554 -0.1779" stroke-width="1"></path><path stroke="#000000" stroke-linecap="round" stroke-linejoin="round" d="M4.05885 16.2639c0.31034 -0.5515 1.02378 -1.3736 2.57583 -1.3736 1.4586 0 1.62492 0.7654 3.38272 0.4862 1.3546 -0.2152 1.4586 -1.7038 3.7551 -2.297" stroke-width="1"></path><path stroke="#000000" stroke-linecap="round" stroke-linejoin="round" stroke-miterlimit="10" d="M18.4763 13.6664h0.5469" stroke-width="1"></path><path stroke="#000000" stroke-linecap="round" stroke-linejoin="round" stroke-miterlimit="10" d="M18.4763 9.06238h0.5469" stroke-width="1"></path><path stroke="#000000" stroke-linecap="round" stroke-linejoin="round" stroke-miterlimit="10" d="M18.4763 11.3643h0.5469" stroke-width="1"></path><path stroke="#000000" stroke-linecap="round" stroke-linejoin="round" stroke-miterlimit="10" d="M18.4763 6.76025h0.5469" stroke-width="1"></path></svg>