<svg xmlns="http://www.w3.org/2000/svg" fill="none" viewBox="0 0 24 24" id="Bubble-Tea-Shake--Streamline-Ultimate"><desc>Bubble Tea Shake Streamline Icon: https://streamlinehq.com</desc><path stroke="#000000" stroke-linecap="round" stroke-linejoin="round" stroke-miterlimit="10" d="M11.817 23.1054c1.2494 0 2.2622 -1.0128 2.2622 -2.2621 0 -1.2494 -1.0128 -2.2622 -2.2622 -2.2622 -1.2493 0 -2.2621 1.0128 -2.2621 2.2622 0 1.2493 1.0128 2.2621 2.2621 2.2621Z" stroke-width="1"></path><path stroke="#000000" stroke-linecap="round" stroke-linejoin="round" stroke-miterlimit="10" d="M16.3413 23.1054c1.2494 0 2.2622 -1.0128 2.2622 -2.2621 0 -1.2494 -1.0128 -2.2622 -2.2622 -2.2622 -1.2493 0 -2.2621 1.0128 -2.2621 2.2622 0 1.2493 1.0128 2.2621 2.2621 2.2621Z" stroke-width="1"></path><path stroke="#000000" stroke-linecap="round" stroke-linejoin="round" stroke-miterlimit="10" d="M16.1611 18.5882c0.1762 -0.3219 0.2764 -0.6915 0.2764 -1.0844 0 -1.2493 -1.0128 -2.2621 -2.2622 -2.2621 -1.2493 0 -2.2621 1.0128 -2.2621 2.2621 0 0.4035 0.1056 0.7823 0.2908 1.1103 0.6804 0.1173 1.2569 0.5385 1.5844 1.1189 0.1258 0.0217 0.255 0.0329 0.3869 0.0329 0.0607 0 0.1208 -0.0023 0.1803 -0.007 0.3568 -0.6521 1.0255 -1.1092 1.8055 -1.1707Z" stroke-width="1"></path><path stroke="#000000" stroke-linecap="round" stroke-linejoin="round" stroke-miterlimit="10" d="M20.8656 23.1054c1.2493 0 2.2621 -1.0128 2.2621 -2.2621 0 -1.2494 -1.0128 -2.2622 -2.2621 -2.2622 -1.2494 0 -2.2621 1.0128 -2.2621 2.2622 0 1.2493 1.0127 2.2621 2.2621 2.2621Z" stroke-width="1"></path><path stroke="#000000" stroke-linecap="round" stroke-linejoin="round" stroke-miterlimit="10" d="M20.6854 18.5882c0.1762 -0.3219 0.2763 -0.6915 0.2763 -1.0844 0 -1.2493 -1.0127 -2.2621 -2.2621 -2.2621 -1.2493 0 -2.2621 1.0128 -2.2621 2.2621 0 0.4035 0.1056 0.7823 0.2907 1.1103 0.6805 0.1173 1.2569 0.5385 1.5845 1.1189 0.1257 0.0217 0.255 0.0329 0.3869 0.0329 0.0607 0 0.1208 -0.0023 0.1803 -0.007 0.3568 -0.6521 1.0255 -1.1092 1.8055 -1.1707Z" stroke-width="1"></path><path stroke="#000000" stroke-linecap="round" stroke-linejoin="round" stroke-miterlimit="10" d="m14.4844 12.8062 -0.9306 -5.7141 -9.98565 2.20116 2.68743 9.61734c0.13347 0.4777 0.43327 0.8663 0.82054 1.1184" stroke-width="1"></path><path stroke="#000000" stroke-linecap="round" stroke-linejoin="round" stroke-miterlimit="10" d="m3.50429 8.57117 0.06386 0.7221 9.98565 -2.20116 -0.2457 -0.68203c-0.8516 -2.36451 -3.32613 -3.72939 -5.78043 -3.18838l-0.11914 0.02626c-2.4543 0.54101 -4.12562 2.81976 -3.90424 5.32321Z" stroke-width="1"></path><path stroke="#000000" stroke-linecap="round" stroke-linejoin="round" stroke-miterlimit="10" d="m5.81794 3.9004 -0.22203 -1.59619c-0.07189 -0.5168 0.26565 -1.00202 0.7752 -1.11434L7.6037 0.91817c0.50954 -0.11232 1.0198 0.18601 1.17186 0.68514l0.46965 1.54164c-0.55929 -0.07242 -1.13899 -0.0508 -1.71756 0.07673l-0.11914 0.02626c-0.57854 0.12753 -1.11358 0.35163 -1.59057 0.65246Z" stroke-width="1"></path><path stroke="#000000" stroke-linecap="round" stroke-linejoin="round" d="M17.8152 5.08781c0.0552 -0.72553 -0.2644 -2.36325 -1.985 -3.10983" stroke-width="1"></path><path stroke="#000000" stroke-linecap="round" stroke-linejoin="round" d="M1.63228 19.55c-0.07237 0.724 0.2085 2.3689 1.91093 3.1559" stroke-width="1"></path><path stroke="#000000" stroke-linecap="round" stroke-linejoin="round" d="M15.5703 5.27273c0.0304 -0.27364 -0.0732 -0.89719 -0.7299 -1.2023" stroke-width="1"></path><path stroke="#000000" stroke-linecap="round" stroke-linejoin="round" d="M3.88088 19.4182c-0.03679 0.2729 0.05196 0.8987 0.70129 1.2192" stroke-width="1"></path></svg>