<svg xmlns="http://www.w3.org/2000/svg" fill="none" viewBox="0 0 24 24" id="Bubble-Tea-Leaf--Streamline-Ultimate"><desc>Bubble Tea Leaf Streamline Icon: https://streamlinehq.com</desc><path stroke="#000000" stroke-linecap="round" stroke-linejoin="round" stroke-miterlimit="10" d="M4.54445 12.1254s0.07333 -3.51691 4.08222 -5.27691c4.00893 -1.76 5.76893 -5.27999 5.76893 -5.27999s2.0655 7.03389 -4.29 9.8694" stroke-width="1"></path><path stroke="#000000" stroke-linecap="round" stroke-linejoin="round" stroke-miterlimit="10" d="M3.8331 12.5559s2.05334 -3.22662 0.48889 -7.23551C2.75755 1.31151 2.75754 0.920395 2.75754 0.920395S-1.83801 7.17817 3.8331 12.5559Z" stroke-width="1"></path><path stroke="#000000" stroke-linecap="round" stroke-linejoin="round" stroke-miterlimit="10" d="M8.06761 15.2448c-1.36889 -0.3911 -2.63999 -1.6622 -3.51999 -3.1289 0 0 1.36889 -0.6844 6.25778 -0.6844 4.8889 0 7.5289 -1.56446 7.5289 -1.56446" stroke-width="1"></path><path stroke="#000000" stroke-linecap="round" stroke-linejoin="round" stroke-miterlimit="10" d="M1 17.8974s0.88001 -4.0089 3.52001 -5.7689" stroke-width="1"></path><path stroke="#000000" stroke-linecap="round" stroke-linejoin="round" stroke-miterlimit="10" d="M10.7778 23.0796c1.35 0 2.4444 -1.0944 2.4444 -2.4444 0 -1.3501 -1.0944 -2.4445 -2.4444 -2.4445 -1.35005 0 -2.44447 1.0944 -2.44447 2.4445 0 1.35 1.09442 2.4444 2.44447 2.4444Z" stroke-width="1"></path><path stroke="#000000" stroke-linecap="round" stroke-linejoin="round" stroke-miterlimit="10" d="M15.6667 23.0796c1.35 0 2.4444 -1.0944 2.4444 -2.4444 0 -1.3501 -1.0944 -2.4445 -2.4444 -2.4445 -1.3501 0 -2.4445 1.0944 -2.4445 2.4445 0 1.35 1.0944 2.4444 2.4445 2.4444Z" stroke-width="1"></path><path stroke="#000000" stroke-linecap="round" stroke-linejoin="round" stroke-miterlimit="10" d="M15.4719 18.1984c0.1904 -0.348 0.2987 -0.7473 0.2987 -1.1719 0 -1.35 -1.0945 -2.4444 -2.4445 -2.4444s-2.4444 1.0944 -2.4444 2.4444c0 0.436 0.1141 0.8454 0.3142 1.1998 0.7353 0.1267 1.3581 0.5819 1.7121 1.2091 0.1359 0.0234 0.2756 0.0356 0.4181 0.0356 0.0656 0 0.1305 -0.0026 0.1948 -0.0077 0.3856 -0.7046 1.1082 -1.1985 1.951 -1.2649Z" stroke-width="1"></path><path stroke="#000000" stroke-linecap="round" stroke-linejoin="round" stroke-miterlimit="10" d="M20.5556 23.0796c1.35 0 2.4444 -1.0944 2.4444 -2.4444 0 -1.3501 -1.0944 -2.4445 -2.4444 -2.4445 -1.3501 0 -2.4445 1.0944 -2.4445 2.4445 0 1.35 1.0944 2.4444 2.4445 2.4444Z" stroke-width="1"></path><path stroke="#000000" stroke-linecap="round" stroke-linejoin="round" stroke-miterlimit="10" d="M20.3608 18.1984c0.1904 -0.348 0.2986 -0.7473 0.2986 -1.1719 0 -1.35 -1.0944 -2.4444 -2.4444 -2.4444 -1.35 0 -2.4444 1.0944 -2.4444 2.4444 0 0.436 0.1141 0.8454 0.3142 1.1998 0.7352 0.1267 1.3581 0.5819 1.7121 1.2091 0.1359 0.0234 0.2756 0.0356 0.4181 0.0356 0.0656 0 0.1305 -0.0026 0.1948 -0.0077 0.3856 -0.7046 1.1082 -1.1985 1.951 -1.2649Z" stroke-width="1"></path></svg>