<svg xmlns="http://www.w3.org/2000/svg" fill="none" viewBox="0 0 24 24" id="Bubble-Tea-1--Streamline-Ultimate"><desc>Bubble Tea 1 Streamline Icon: https://streamlinehq.com</desc><path stroke="#000000" stroke-linecap="round" stroke-linejoin="round" stroke-miterlimit="10" d="M5 11.25c0 -3.9 3.1 -7 7 -7s7 3.1 7 7" stroke-width="1"></path><path stroke="#000000" stroke-linecap="round" stroke-linejoin="round" stroke-miterlimit="10" d="M3 11.25h18" stroke-width="1"></path><path stroke="#000000" stroke-linecap="round" stroke-linejoin="round" stroke-miterlimit="10" d="m5 11.25 0.9 10c0.1 1.1 1.1 2 2.2 2h7.8c1.1 0 2.1 -0.9 2.2 -2l0.9 -10" stroke-width="1"></path><path stroke="#000000" stroke-linecap="round" stroke-linejoin="round" stroke-miterlimit="10" d="M8.5 16.75c-0.11045 0 -0.2 -0.0895 -0.2 -0.2 0 -0.1105 0.08955 -0.2 0.2 -0.2" stroke-width="1"></path><path stroke="#000000" stroke-linecap="round" stroke-linejoin="round" stroke-miterlimit="10" d="M8.5 16.75c0.11045 0 0.2 -0.0895 0.2 -0.2 0 -0.1105 -0.08955 -0.2 -0.2 -0.2" stroke-width="1"></path><path stroke="#000000" stroke-linecap="round" stroke-linejoin="round" stroke-miterlimit="10" d="M15.5 16.75c-0.1105 0 -0.2 -0.0895 -0.2 -0.2 0 -0.1105 0.0895 -0.2 0.2 -0.2" stroke-width="1"></path><path stroke="#000000" stroke-linecap="round" stroke-linejoin="round" stroke-miterlimit="10" d="M15.5 16.75c0.1104 0 0.2 -0.0895 0.2 -0.2 0 -0.1105 -0.0896 -0.2 -0.2 -0.2" stroke-width="1"></path><path stroke="#000000" stroke-linecap="round" stroke-linejoin="round" stroke-miterlimit="10" d="M12 17.25c-0.1105 0 -0.2 -0.0895 -0.2 -0.2 0 -0.1105 0.0895 -0.2 0.2 -0.2" stroke-width="1"></path><path stroke="#000000" stroke-linecap="round" stroke-linejoin="round" stroke-miterlimit="10" d="M12 17.25c0.1105 0 0.2 -0.0895 0.2 -0.2 0 -0.1105 -0.0895 -0.2 -0.2 -0.2" stroke-width="1"></path><path stroke="#000000" stroke-linecap="round" stroke-linejoin="round" stroke-miterlimit="10" d="M9.99999 20.25c-0.11046 0 -0.2 -0.0895 -0.2 -0.2 0 -0.1105 0.08954 -0.2 0.2 -0.2" stroke-width="1"></path><path stroke="#000000" stroke-linecap="round" stroke-linejoin="round" stroke-miterlimit="10" d="M10 20.25c0.1105 0 0.2 -0.0895 0.2 -0.2 0 -0.1105 -0.0895 -0.2 -0.2 -0.2" stroke-width="1"></path><path stroke="#000000" stroke-linecap="round" stroke-linejoin="round" stroke-miterlimit="10" d="M14 20.25c-0.1105 0 -0.2 -0.0895 -0.2 -0.2 0 -0.1105 0.0895 -0.2 0.2 -0.2" stroke-width="1"></path><path stroke="#000000" stroke-linecap="round" stroke-linejoin="round" stroke-miterlimit="10" d="M14 20.25c0.1104 0 0.2 -0.0895 0.2 -0.2 0 -0.1105 -0.0896 -0.2 -0.2 -0.2" stroke-width="1"></path><path stroke="#000000" stroke-linecap="round" stroke-linejoin="round" stroke-miterlimit="10" d="m12 13.75 0.4 -11.3c0.1 -1 1 -1.7 2 -1.7h4.3" stroke-width="1"></path></svg>