<svg xmlns="http://www.w3.org/2000/svg" fill="none" viewBox="0 0 24 24" id="Bubble-Tea-On-Spoon--Streamline-Ultimate"><desc>Bubble Tea On Spoon Streamline Icon: https://streamlinehq.com</desc><path stroke="#000000" stroke-linecap="round" stroke-linejoin="round" stroke-miterlimit="10" d="M6.69458 10.7917c0 0.7933 -0.39666 1.4875 -0.99166 1.9833H2.62876c-0.595 -0.4958 -0.99167 -1.19 -0.99167 -1.9833 0 -1.38837 1.09084 -2.4792 2.47917 -2.4792 1.38833 0 2.57832 1.09083 2.57832 2.4792Z" stroke-width="1"></path><path stroke="#000000" stroke-linecap="round" stroke-linejoin="round" stroke-miterlimit="10" d="M11.7521 10.7917c0 0.7933 -0.3967 1.4875 -0.9917 1.9833H7.68625c-0.595 -0.4958 -0.99166 -1.19 -0.99166 -1.9833 0 -1.38837 1.09083 -2.4792 2.47916 -2.4792 1.38835 0 2.57835 1.09083 2.57835 2.4792Z" stroke-width="1"></path><path stroke="#000000" stroke-linecap="round" stroke-linejoin="round" stroke-miterlimit="10" d="M16.8096 10.7917c0 0.7933 -0.3967 1.4875 -0.9917 1.9833h-3.0742c-0.595 -0.4958 -0.9916 -1.19 -0.9916 -1.9833 0 -1.38837 1.0908 -2.4792 2.4791 -2.4792 1.3884 0 2.5784 1.09083 2.5784 2.4792Z" stroke-width="1"></path><path stroke="#000000" stroke-linecap="round" stroke-linejoin="round" stroke-miterlimit="10" d="M15.7187 12.775H0.843742c0 1.4875 1.388338 3.2725 3.470838 4.165v1.5867c0 0.7933 0.69416 1.4875 1.4875 1.4875 0.79333 0 1.4875 -0.6942 1.4875 -1.4875v-3.2725" stroke-width="1"></path><path stroke="#000000" stroke-linecap="round" stroke-linejoin="round" stroke-miterlimit="10" d="M14.2312 15.2542v5.95c0 1.0908 -0.8925 1.9833 -1.9833 1.9833 -1.0908 0 -1.9833 -0.8925 -1.9833 -1.9833v-5.0575" stroke-width="1"></path><path stroke="#000000" stroke-linecap="round" stroke-linejoin="round" stroke-miterlimit="10" d="M23.1563 8.11417h-1.4875c-0.7934 0 -1.4876 0.29749 -2.1817 0.69416l-2.5365 1.63057" stroke-width="1"></path><path stroke="#000000" stroke-linecap="round" stroke-linejoin="round" stroke-miterlimit="10" d="M14.2312 17.7333c1.8842 -0.595 2.8759 -1.6858 3.2725 -2.975l1.8842 -1.2891c0.6942 -0.3967 1.3883 -0.6942 2.1817 -0.6942h1.4875" stroke-width="1"></path><path stroke="#000000" stroke-linecap="round" stroke-linejoin="round" stroke-miterlimit="10" d="M10.2646 18.0308c-0.99169 0 -2.08253 -0.0991 -2.97503 -0.2975" stroke-width="1"></path><path stroke="#000000" stroke-linecap="round" stroke-linejoin="round" stroke-miterlimit="10" d="M8.97541 8.31249c0.2975 -0.39666 0.49583 -0.8925 0.49583 -1.4875 0 -1.38833 -1.09083 -2.47916 -2.47917 -2.47916 -1.38833 0 -2.47916 1.09083 -2.47916 2.47916 0 0.595 0.19833 1.19 0.595 1.68583" stroke-width="1"></path><path stroke="#000000" stroke-linecap="round" stroke-linejoin="round" stroke-miterlimit="10" d="M13.9337 8.31249c0.2975 -0.39666 0.4959 -0.8925 0.4959 -1.4875 0 -1.38833 -1.0909 -2.47916 -2.4792 -2.47916S9.47124 5.43666 9.47124 6.82499c0 0.5176 0.15009 1.03519 0.45026 1.4875" stroke-width="1"></path><path stroke="#000000" stroke-linecap="round" stroke-linejoin="round" stroke-miterlimit="10" d="M7.28958 4.34583c-0.09917 -0.2975 -0.19833 -0.595 -0.19833 -0.99166C7.09125 1.96583 8.18208 0.875 9.57041 0.875c1.38829 0 2.47919 1.09083 2.28089 2.47917 0 0.2975 -0.0992 0.69416 -0.1984 0.99166" stroke-width="1"></path></svg>