<svg xmlns="http://www.w3.org/2000/svg" viewBox="0 0 24 24" id="Tea-Herbal-To-Go--Streamline-Ultimate"><desc>Tea Herbal To Go Streamline Icon: https://streamlinehq.com</desc><g><path d="M15.25 9.25H2.75a2 2 0 0 1 -2 -2h0a2 2 0 0 1 2 -2h15.5a2 2 0 0 1 2 2h0" fill="none" stroke="#000000" stroke-linecap="round" stroke-linejoin="round" stroke-width="1"></path><path d="M7.5 23.25H5.09a1.5 1.5 0 0 1 -1.49 -1.33L2.24 9.19" fill="none" stroke="#000000" stroke-linecap="round" stroke-linejoin="round" stroke-width="1"></path><path d="M2.65 13a3.84 3.84 0 0 1 1.1 -0.22 3 3 0 0 1 0 6c-0.15 0 -0.6 -0.05 -0.49 0" fill="none" stroke="#000000" stroke-linecap="round" stroke-linejoin="round" stroke-width="1"></path><path d="m0.75 0.75 4.5 4.5" fill="none" stroke="#000000" stroke-linecap="round" stroke-linejoin="round" stroke-width="1"></path><g><path d="M10.56 23.25 21.9 11.91" fill="none" stroke="#000000" stroke-linecap="round" stroke-linejoin="round" stroke-width="1"></path><path d="m16.29 13.74 0.3 3.48 3.48 0.3" fill="none" stroke="#000000" stroke-linecap="round" stroke-linejoin="round" stroke-width="1"></path><path d="m13.11 16.92 0.29 3.48 3.49 0.3" fill="none" stroke="#000000" stroke-linecap="round" stroke-linejoin="round" stroke-width="1"></path><path d="m19.47 10.56 0.3 3.48 3.48 0.3" fill="none" stroke="#000000" stroke-linecap="round" stroke-linejoin="round" stroke-width="1"></path></g></g></svg>