<svg viewBox="0 0 24 24" xmlns="http://www.w3.org/2000/svg" id="Tea-Cup--Streamline-Ultimate"><desc>Tea Cup Streamline Icon: https://streamlinehq.com</desc><path d="M3 9.75h12a1.5 1.5 0 0 1 1.5 1.5v4.5a7.5 7.5 0 0 1 -7.5 7.5h0a7.5 7.5 0 0 1 -7.5 -7.5v-4.5A1.5 1.5 0 0 1 3 9.75Z" fill="none" stroke="#000000" stroke-linecap="round" stroke-linejoin="round" stroke-width="1"></path><path d="M16.5 11.25H18a4.513 4.513 0 0 1 4.5 4.5h0a4.513 4.513 0 0 1 -4.5 4.5h-3" fill="none" stroke="#000000" stroke-linecap="round" stroke-linejoin="round" stroke-width="1"></path><path d="m8.25 14.25 0 -4.5" fill="none" stroke="#000000" stroke-linecap="round" stroke-linejoin="round" stroke-width="1"></path><path d="M14.25 0.75c1.437 2.873 -2.9 3.881 -0.75 6.75" fill="none" stroke="#000000" stroke-linecap="round" stroke-linejoin="round" stroke-width="1"></path><path d="M9.75 0.75C11.187 3.623 6.849 4.631 9 7.5" fill="none" stroke="#000000" stroke-linecap="round" stroke-linejoin="round" stroke-width="1"></path><path d="M5.25 0.75c1.437 2.873 -2.9 3.881 -0.75 6.75" fill="none" stroke="#000000" stroke-linecap="round" stroke-linejoin="round" stroke-width="1"></path><path d="m6 14.25 4.5 0 0 4.5 -4.5 0Z" fill="none" stroke="#000000" stroke-linecap="round" stroke-linejoin="round" stroke-width="1"></path></svg>