<svg viewBox="0 0 24 24" xmlns="http://www.w3.org/2000/svg" id="Tea-Kettle--Streamline-Ultimate"><desc>Tea Kettle Streamline Icon: https://streamlinehq.com</desc><path d="m6.9 12 14.7 0" fill="none" stroke="#000000" stroke-linecap="round" stroke-linejoin="round" stroke-width="1"></path><path d="M6.136 14.25H3.621a2.121 2.121 0 0 0 -1.5 3.621L6 21.75" fill="none" stroke="#000000" stroke-linecap="round" stroke-linejoin="round" stroke-width="1"></path><path d="M22.5 21.75a1.5 1.5 0 0 1 -1.5 1.5H7.5a1.5 1.5 0 0 1 -1.5 -1.5v-6a8.25 8.25 0 0 1 16.5 0Z" fill="none" stroke="#000000" stroke-linecap="round" stroke-linejoin="round" stroke-width="1"></path><path d="M12.75 6a1.5 1.5 0 1 0 3 0 1.5 1.5 0 1 0 -3 0Z" fill="none" stroke="#000000" stroke-linecap="round" stroke-linejoin="round" stroke-width="1"></path><path d="M21 11.005v-3.13A6.965 6.965 0 0 0 14.25 0.75h0A6.965 6.965 0 0 0 7.5 7.875v3.13" fill="none" stroke="#000000" stroke-linecap="round" stroke-linejoin="round" stroke-width="1"></path></svg>