<svg viewBox="0 0 24 24" xmlns="http://www.w3.org/2000/svg" id="Tea-Kettle-1--Streamline-Ultimate"><desc>Tea Kettle 1 Streamline Icon: https://streamlinehq.com</desc><path d="m0.867 20.25 17.815 0" fill="none" stroke="#000000" stroke-linecap="round" stroke-linejoin="round" stroke-width="1"></path><path d="m3.48 8.25 12.585 0" fill="none" stroke="#000000" stroke-linecap="round" stroke-linejoin="round" stroke-width="1"></path><path d="m9.773 2.25 0 -1.5" fill="none" stroke="#000000" stroke-linecap="round" stroke-linejoin="round" stroke-width="1"></path><path d="M18.749 21.7C18.41 10.827 14.521 2.25 9.773 2.25c-2.452 0 -4.675 2.288 -6.3 6H0.75l1.35 4.037A42.656 42.656 0 0 0 0.8 21.7a1.5 1.5 0 0 0 1.5 1.55h14.95a1.5 1.5 0 0 0 1.499 -1.55Z" fill="none" stroke="#000000" stroke-linecap="round" stroke-linejoin="round" stroke-width="1"></path><path d="M6.75 14.25a3 3 0 1 0 6 0 3 3 0 1 0 -6 0Z" fill="none" stroke="#000000" stroke-linecap="round" stroke-linejoin="round" stroke-width="1"></path><path d="M18.4 17.235a5.25 5.25 0 1 0 -2.765 -9.922" fill="none" stroke="#000000" stroke-linecap="round" stroke-linejoin="round" stroke-width="1"></path></svg>