<svg viewBox="0 0 24 24" xmlns="http://www.w3.org/2000/svg" id="Tea-Box-Herbal--Streamline-Ultimate"><desc>Tea Box Herbal Streamline Icon: https://streamlinehq.com</desc><path d="m10.529 23.192 11.343 -11.343" fill="none" stroke="#000000" stroke-linecap="round" stroke-linejoin="round" stroke-width="1"></path><path d="m16.258 13.682 0.3 3.482 3.481 0.299" fill="none" stroke="#000000" stroke-linecap="round" stroke-linejoin="round" stroke-width="1"></path><path d="m13.076 16.864 0.3 3.482 3.481 0.299" fill="none" stroke="#000000" stroke-linecap="round" stroke-linejoin="round" stroke-width="1"></path><path d="m19.44 10.5 0.3 3.482 3.481 0.299" fill="none" stroke="#000000" stroke-linecap="round" stroke-linejoin="round" stroke-width="1"></path><path d="M17.312 7.507 15.779 5.25h-12L0.937 9.433a1.5 1.5 0 0 0 -0.158 0.671V21.75a1.5 1.5 0 0 0 1.5 1.5h3.75" fill="none" stroke="#000000" stroke-linecap="round" stroke-linejoin="round" stroke-width="1"></path><path d="M15.779 2.25a1.5 1.5 0 0 0 -1.5 -1.5h-9a1.5 1.5 0 0 0 -1.5 1.5v3h12Z" fill="none" stroke="#000000" stroke-linecap="round" stroke-linejoin="round" stroke-width="1"></path><path d="m4.529 9.75 10.5 0" fill="none" stroke="#000000" stroke-linecap="round" stroke-linejoin="round" stroke-width="1"></path><path d="M9.779 19.5a3 3 0 1 1 1.43 -5.638" fill="none" stroke="#000000" stroke-linecap="round" stroke-linejoin="round" stroke-width="1"></path></svg>