<svg viewBox="0 0 24 24" xmlns="http://www.w3.org/2000/svg" id="Plant-Bamboo--Streamline-Ultimate"><desc>Plant Bamboo Streamline Icon: https://streamlinehq.com</desc><path d="m9.738 0.766 0 22.5" fill="none" stroke="#000000" stroke-linecap="round" stroke-linejoin="round" stroke-width="1"></path><path d="m14.238 0.766 0 22.5" fill="none" stroke="#000000" stroke-linecap="round" stroke-linejoin="round" stroke-width="1"></path><path d="m7.488 0.766 9 0" fill="none" stroke="#000000" stroke-linecap="round" stroke-linejoin="round" stroke-width="1"></path><path d="m7.488 8.266 9 0" fill="none" stroke="#000000" stroke-linecap="round" stroke-linejoin="round" stroke-width="1"></path><path d="m7.488 15.766 9 0" fill="none" stroke="#000000" stroke-linecap="round" stroke-linejoin="round" stroke-width="1"></path><path d="m7.488 23.266 9 0" fill="none" stroke="#000000" stroke-linecap="round" stroke-linejoin="round" stroke-width="1"></path><path d="M21.24 12.263a5.716 5.716 0 0 1 -4 1.248 5.719 5.719 0 0 1 1.248 -4 5.716 5.716 0 0 1 4 -1.248 5.719 5.719 0 0 1 -1.248 4Z" fill="none" stroke="#000000" stroke-linecap="round" stroke-linejoin="round" stroke-width="1"></path><path d="M2.736 19.772a5.719 5.719 0 0 0 4 1.248 5.713 5.713 0 0 0 -1.249 -4 5.716 5.716 0 0 0 -4 -1.248 5.716 5.716 0 0 0 1.249 4Z" fill="none" stroke="#000000" stroke-linecap="round" stroke-linejoin="round" stroke-width="1"></path></svg>