<svg viewBox="0 0 24 24" xmlns="http://www.w3.org/2000/svg" id="Plant-Bonsai-1--Streamline-Ultimate"><desc>Plant Bonsai 1 Streamline Icon: https://streamlinehq.com</desc><path d="M14.111 23.266H8.618c-0.261 0 -0.483 -0.265 -0.526 -0.626l-0.355 -3c-0.054 -0.458 0.2 -0.874 0.525 -0.874h6.205c0.329 0 0.58 0.416 0.526 0.874l-0.356 3c-0.043 0.36 -0.265 0.626 -0.526 0.626Z" fill="none" stroke="#000000" stroke-linecap="round" stroke-linejoin="round" stroke-width="1"></path><path d="M21 11.266a2.25 2.25 0 1 0 -0.81 -4.343 3.741 3.741 0 0 0 -3.69 -3.157 3.7 3.7 0 0 0 -0.5 0.05 5.242 5.242 0 0 0 -10 2.2c0 0.111 0.026 0.215 0.033 0.325a2.994 2.994 0 1 0 -2.283 4.925Z" fill="none" stroke="#000000" stroke-linecap="round" stroke-linejoin="round" stroke-width="1"></path><path d="m11.25 11.266 0 7.5" fill="none" stroke="#000000" stroke-linecap="round" stroke-linejoin="round" stroke-width="1"></path><path d="M11.25 16.516a4.2 4.2 0 0 0 4.5 -4.5v-0.75" fill="none" stroke="#000000" stroke-linecap="round" stroke-linejoin="round" stroke-width="1"></path><path d="M11.25 15.767c-3.6 0 -4.5 -2.25 -4.5 -3.75v-0.751" fill="none" stroke="#000000" stroke-linecap="round" stroke-linejoin="round" stroke-width="1"></path></svg>