<svg viewBox="0 0 24 24" xmlns="http://www.w3.org/2000/svg" id="Plant-Pot-2--Streamline-Ultimate"><desc>Plant Pot 2 Streamline Icon: https://streamlinehq.com</desc><path d="M9.236 5.135a22.646 22.646 0 0 1 2.755 -4.1 0.666 0.666 0 0 1 1.013 0 22.6 22.6 0 0 1 2.755 4.1" fill="none" stroke="#000000" stroke-linecap="round" stroke-linejoin="round" stroke-width="1"></path><path d="M12.5 11.266 17.972 0.975c0.157 -0.295 0.356 -0.275 0.441 0.046l0.63 2.366c1.064 4 -2.156 7.879 -6.546 7.879Z" fill="none" stroke="#000000" stroke-linecap="round" stroke-linejoin="round" stroke-width="1"></path><path d="M12.5 11.266 7.023 0.975C6.866 0.68 6.667 0.7 6.582 1.021l-0.63 2.366c-1.064 4 2.156 7.879 6.545 7.879Z" fill="none" stroke="#000000" stroke-linecap="round" stroke-linejoin="round" stroke-width="1"></path><path d="M17.227 22.043a1.5 1.5 0 0 1 -1.474 1.223H9.242a1.5 1.5 0 0 1 -1.474 -1.223l-1.687 -9a1.5 1.5 0 0 1 1.474 -1.777h9.885a1.5 1.5 0 0 1 1.474 1.777Z" fill="none" stroke="#000000" stroke-linecap="round" stroke-linejoin="round" stroke-width="1"></path></svg>