<svg viewBox="0 0 24 24" xmlns="http://www.w3.org/2000/svg" id="Plant-Pot-1--Streamline-Ultimate"><desc>Plant Pot 1 Streamline Icon: https://streamlinehq.com</desc><path d="M10.653 8.984s-1.53 2.62 -3.75 2.25c-4.5 -0.75 -3.75 -6.75 -5.25 -9a9.947 9.947 0 0 1 9 0.75c2.247 1.5 2.247 3.75 0 6Z" fill="none" stroke="#000000" stroke-linecap="round" stroke-linejoin="round" stroke-width="1"></path><path d="M15.575 11.182S16.638 13 18.18 12.745c3.125 -0.521 2.6 -4.688 3.646 -6.251a6.913 6.913 0 0 0 -6.251 0.521c-1.562 1.042 -1.562 2.605 0 4.167Z" fill="none" stroke="#000000" stroke-linecap="round" stroke-linejoin="round" stroke-width="1"></path><path d="M7.653 5.984s4.5 2.25 5.25 9.75c1.5 -4.5 3.75 -6 3.75 -6" fill="none" stroke="#000000" stroke-linecap="round" stroke-linejoin="round" stroke-width="1"></path><path d="M16.038 23.234h-6.27a0.75 0.75 0 0 1 -0.735 -0.6l-1.2 -6a0.75 0.75 0 0 1 0.735 -0.9h8.67a0.75 0.75 0 0 1 0.736 0.9l-1.2 6a0.751 0.751 0 0 1 -0.736 0.6Z" fill="none" stroke="#000000" stroke-linecap="round" stroke-linejoin="round" stroke-width="1"></path></svg>