<svg viewBox="0 0 24 24" xmlns="http://www.w3.org/2000/svg" id="Plant-1--Streamline-Ultimate"><desc>Plant 1 Streamline Icon: https://streamlinehq.com</desc><path d="M14.372 5.641a7.781 7.781 0 0 1 -2.255 4.875 7.781 7.781 0 0 1 -2.255 -4.875A7.785 7.785 0 0 1 12.117 0.766a7.785 7.785 0 0 1 2.255 4.875Z" fill="none" stroke="#000000" stroke-linecap="round" stroke-linejoin="round" stroke-width="1"></path><path d="M17.481 14.676a7.783 7.783 0 0 1 -5.357 -0.39 7.786 7.786 0 0 1 3.766 -3.831 7.78 7.78 0 0 1 5.357 0.391 7.78 7.78 0 0 1 -3.766 3.83Z" fill="none" stroke="#000000" stroke-linecap="round" stroke-linejoin="round" stroke-width="1"></path><path d="M17.481 22.176a7.783 7.783 0 0 1 -5.357 -0.39 7.786 7.786 0 0 1 3.766 -3.831 7.78 7.78 0 0 1 5.357 0.391 7.78 7.78 0 0 1 -3.766 3.83Z" fill="none" stroke="#000000" stroke-linecap="round" stroke-linejoin="round" stroke-width="1"></path><path d="M6.763 14.676a7.783 7.783 0 0 0 5.357 -0.39 7.782 7.782 0 0 0 -3.765 -3.831A7.784 7.784 0 0 0 3 10.846a7.786 7.786 0 0 0 3.763 3.83Z" fill="none" stroke="#000000" stroke-linecap="round" stroke-linejoin="round" stroke-width="1"></path><path d="M6.763 22.176a7.783 7.783 0 0 0 5.357 -0.39 7.782 7.782 0 0 0 -3.765 -3.831A7.784 7.784 0 0 0 3 18.346a7.786 7.786 0 0 0 3.763 3.83Z" fill="none" stroke="#000000" stroke-linecap="round" stroke-linejoin="round" stroke-width="1"></path><path d="m12.119 10.516 0.008 12.75" fill="none" stroke="#000000" stroke-linecap="round" stroke-linejoin="round" stroke-width="1"></path></svg>