<svg xmlns="http://www.w3.org/2000/svg" fill="none" viewBox="0 0 24 24" id="Accounting-Bill--Streamline-Ultimate"><desc>Accounting Bill Streamline Icon: https://streamlinehq.com</desc><path stroke="#000000" stroke-linecap="round" stroke-linejoin="round" d="M21.75 4.5H2.25c-0.82843 0 -1.5 0.67157 -1.5 1.5v12c0 0.8284 0.67157 1.5 1.5 1.5h19.5c0.8284 0 1.5 -0.6716 1.5 -1.5V6c0 -0.82843 -0.6716 -1.5 -1.5 -1.5Z" stroke-width="1"></path><path stroke="#000000" stroke-linecap="round" stroke-linejoin="round" d="M12 15c1.6569 0 3 -1.3431 3 -3s-1.3431 -3 -3 -3 -3 1.3431 -3 3 1.3431 3 3 3Z" stroke-width="1"></path><path stroke="#000000" d="M4.5 8.625c-0.20711 0 -0.375 -0.16789 -0.375 -0.375s0.16789 -0.375 0.375 -0.375" stroke-width="1"></path><path stroke="#000000" d="M4.5 8.625c0.20711 0 0.375 -0.16789 0.375 -0.375s-0.16789 -0.375 -0.375 -0.375" stroke-width="1"></path><g><path stroke="#000000" d="M19.5 16.125c-0.2071 0 -0.375 -0.1679 -0.375 -0.375s0.1679 -0.375 0.375 -0.375" stroke-width="1"></path><path stroke="#000000" d="M19.5 16.125c0.2071 0 0.375 -0.1679 0.375 -0.375s-0.1679 -0.375 -0.375 -0.375" stroke-width="1"></path></g></svg>