<svg xmlns="http://www.w3.org/2000/svg" viewBox="0 0 24 24" id="Accounting-Coins-Stack--Streamline-Ultimate"><desc>Accounting Coins Stack Streamline Icon: https://streamlinehq.com</desc><g><g><path d="M0.75 3.75a6 3 0 1 0 12 0 6 3 0 1 0 -12 0" fill="none" stroke="#000000" stroke-linecap="round" stroke-linejoin="round" stroke-width="1"></path><path d="m12.75 7.75 0 -4" fill="none" stroke="#000000" stroke-linecap="round" stroke-linejoin="round" stroke-width="1"></path><path d="M0.75 3.75v15c0 1.66 2.69 3 6 3a11.39 11.39 0 0 0 1.69 -0.12" fill="none" stroke="#000000" stroke-linecap="round" stroke-linejoin="round" stroke-width="1"></path><path d="M0.75 15c0 1.66 2.69 3 6 3a12 12 0 0 0 1.73 -0.13" fill="none" stroke="#000000" stroke-linecap="round" stroke-linejoin="round" stroke-width="1"></path><path d="M0.75 11.25c0 1.66 2.69 3 6 3a11.39 11.39 0 0 0 1.69 -0.12" fill="none" stroke="#000000" stroke-linecap="round" stroke-linejoin="round" stroke-width="1"></path><path d="M0.75 7.5c0 1.66 2.69 3 6 3a12 12 0 0 0 1.73 -0.13" fill="none" stroke="#000000" stroke-linecap="round" stroke-linejoin="round" stroke-width="1"></path></g><g><path d="M11.25 13a6 3 0 1 0 12 0 6 3 0 1 0 -12 0" fill="none" stroke="#000000" stroke-linecap="round" stroke-linejoin="round" stroke-width="1"></path><path d="M11.25 13v7.25c0 1.66 2.69 3 6 3s6 -1.34 6 -3V13" fill="none" stroke="#000000" stroke-linecap="round" stroke-linejoin="round" stroke-width="1"></path><path d="M23.25 16.5c0 1.66 -2.69 3 -6 3s-6 -1.34 -6 -3" fill="none" stroke="#000000" stroke-linecap="round" stroke-linejoin="round" stroke-width="1"></path></g></g></svg>