<svg viewBox="0 0 24 24" xmlns="http://www.w3.org/2000/svg" id="Coin-Purse-1--Streamline-Ultimate"><desc>Coin Purse 1 Streamline Icon: https://streamlinehq.com</desc><path d="M7 3.5a1.875 1.875 0 1 0 3.75 0A1.875 1.875 0 1 0 7 3.5Z" fill="none" stroke="#000000" stroke-linecap="round" stroke-linejoin="round" stroke-width="1"></path><path d="M13 3.5a1.875 1.875 0 1 0 3.75 0 1.875 1.875 0 1 0 -3.75 0Z" fill="none" stroke="#000000" stroke-linecap="round" stroke-linejoin="round" stroke-width="1"></path><path d="M0.75 9.625A2.25 2.25 0 0 1 3 7.375h18a2.25 2.25 0 0 1 2.25 2.25" fill="none" stroke="#000000" stroke-linecap="round" stroke-linejoin="round" stroke-width="1"></path><path d="M17.2 22.375H6.8a4.5 4.5 0 0 1 -4.31 -5.793l2.76 -9.207h13.5l2.762 9.207a4.5 4.5 0 0 1 -4.312 5.793Z" fill="none" stroke="#000000" stroke-linecap="round" stroke-linejoin="round" stroke-width="1"></path></svg>