<svg viewBox="0 0 24 24" xmlns="http://www.w3.org/2000/svg" id="Coin-Purse--Streamline-Ultimate"><desc>Coin Purse Streamline Icon: https://streamlinehq.com</desc><path d="M2.263 21.75a1.5 1.5 0 0 1 -1.5 -1.7 11.382 11.382 0 0 1 22.466 0 1.5 1.5 0 0 1 -1.5 1.7Z" fill="none" stroke="#000000" stroke-linecap="round" stroke-linejoin="round" stroke-width="1"></path><path d="M18.7 8.2a14.874 14.874 0 0 0 -13.4 0" fill="none" stroke="#000000" stroke-linecap="round" stroke-linejoin="round" stroke-width="1"></path><path d="M7.5 4.5a2.25 2.25 0 1 0 4.5 0 2.25 2.25 0 1 0 -4.5 0Z" fill="none" stroke="#000000" stroke-linecap="round" stroke-linejoin="round" stroke-width="1"></path><path d="M12 4.5a2.25 2.25 0 1 0 4.5 0 2.25 2.25 0 1 0 -4.5 0Z" fill="none" stroke="#000000" stroke-linecap="round" stroke-linejoin="round" stroke-width="1"></path></svg>