<svg viewBox="0 0 24 24" xmlns="http://www.w3.org/2000/svg" id="Money-Bag-Dollar--Streamline-Ultimate"><desc>Money Bag Dollar Streamline Icon: https://streamlinehq.com</desc><path d="M13.574 12.75h-2.033a1.342 1.342 0 0 0 -0.5 2.587l2.064 0.826a1.342 1.342 0 0 1 -0.5 2.587h-2.031" fill="none" stroke="#000000" stroke-linecap="round" stroke-linejoin="round" stroke-width="1"></path><path d="m12.074 12.75 0 -0.75" fill="none" stroke="#000000" stroke-linecap="round" stroke-linejoin="round" stroke-width="1"></path><path d="m12.074 19.5 0 -0.75" fill="none" stroke="#000000" stroke-linecap="round" stroke-linejoin="round" stroke-width="1"></path><path d="m6.824 8.25 10.5 0" fill="none" stroke="#000000" stroke-linecap="round" stroke-linejoin="round" stroke-width="1"></path><path d="m15.63 5.036 1.438 -2.876a0.75 0.75 0 0 0 -1.006 -1.006l-1.9 0.948a0.75 0.75 0 0 1 -0.959 -0.255l-0.503 -0.763a0.75 0.75 0 0 0 -1.248 0l-0.509 0.763a0.749 0.749 0 0 1 -0.959 0.255l-1.897 -0.948A0.751 0.751 0 0 0 7.08 2.16l1.41 2.82" fill="none" stroke="#000000" stroke-linecap="round" stroke-linejoin="round" stroke-width="1"></path><path d="m7.237 10.5 -2.76 3.2a5.932 5.932 0 0 0 4.7 9.549h5.79a5.932 5.932 0 0 0 4.7 -9.549l-2.76 -3.2" fill="none" stroke="#000000" stroke-linecap="round" stroke-linejoin="round" stroke-width="1"></path></svg>