<svg xmlns="http://www.w3.org/2000/svg" fill="none" viewBox="0 0 24 24" id="Blood-Drop-Elements--Streamline-Ultimate"><desc>Blood Drop Elements Streamline Icon: https://streamlinehq.com</desc><path stroke="#000000" stroke-linecap="round" stroke-linejoin="round" d="M9.75 22.263c-1.01828 0.3589 -2.10773 0.4684 -3.17705 0.3194 -1.06932 -0.149 -2.08735 -0.5521 -2.96879 -1.1755 -0.88143 -0.6235 -1.60058 -1.4492 -2.09718 -2.4078 -0.4966 -0.9587 -0.756176 -2.0224 -0.75698 -3.1021 0 -4.87 4.448 -12.21196 6.123 -14.79996 0.06709 -0.105524 0.15973 -0.192407 0.26933 -0.252601 0.1096 -0.060194 0.23263 -0.091753 0.35767 -0.091753 0.12504 0 0.24807 0.031559 0.35767 0.091753 0.1096 0.060194 0.20224 0.147077 0.26933 0.252601 1.48621 2.29076 2.8137 4.68069 3.973 7.153" stroke-width="1"></path><path stroke="#000000" stroke-linecap="round" stroke-linejoin="round" d="M7.5 19.647c-0.99404 0 -1.94742 -0.3947 -2.65059 -1.0973C4.14623 17.8471 3.7508 16.8941 3.75 15.9" stroke-width="1"></path><path stroke="#000000" stroke-linecap="round" stroke-linejoin="round" d="M15.75 21c2.8995 0 5.25 -2.3505 5.25 -5.25s-2.3505 -5.25 -5.25 -5.25 -5.25 2.3505 -5.25 5.25S12.8505 21 15.75 21Z" stroke-width="1"></path><path stroke="#000000" stroke-linecap="round" stroke-linejoin="round" d="m23.25 23.25 -3.788 -3.788" stroke-width="1"></path><path stroke="#000000" d="M14.25 14.625c-0.2071 0 -0.375 -0.1679 -0.375 -0.375s0.1679 -0.375 0.375 -0.375" stroke-width="1"></path><path stroke="#000000" d="M14.25 14.625c0.2071 0 0.375 -0.1679 0.375 -0.375s-0.1679 -0.375 -0.375 -0.375" stroke-width="1"></path><g><path stroke="#000000" d="M17.25 17.625c-0.2071 0 -0.375 -0.1679 -0.375 -0.375s0.1679 -0.375 0.375 -0.375" stroke-width="1"></path><path stroke="#000000" d="M17.25 17.625c0.2071 0 0.375 -0.1679 0.375 -0.375s-0.1679 -0.375 -0.375 -0.375" stroke-width="1"></path></g></svg>