<svg viewBox="0 0 24 24" xmlns="http://www.w3.org/2000/svg" id="Blood-Drop-Type-Ab--Streamline-Ultimate"><desc>Blood Drop Type Ab Streamline Icon: https://streamlinehq.com</desc><path d="m19.5 9.75 0 -6" fill="none" stroke="#000000" stroke-linecap="round" stroke-linejoin="round" stroke-width="1"></path><path d="M19.5 3.75H21a1.5 1.5 0 0 1 0 3h-1.5" fill="none" stroke="#000000" stroke-linecap="round" stroke-linejoin="round" stroke-width="1"></path><path d="M19.5 6.75H21a1.5 1.5 0 0 1 0 3h-1.5" fill="none" stroke="#000000" stroke-linecap="round" stroke-linejoin="round" stroke-width="1"></path><path d="M13.5 9.75v-4.5a1.5 1.5 0 0 1 3 0v4.5" fill="none" stroke="#000000" stroke-linecap="round" stroke-linejoin="round" stroke-width="1"></path><path d="m13.5 7.5 3 0" fill="none" stroke="#000000" stroke-linecap="round" stroke-linejoin="round" stroke-width="1"></path><path d="M20.906 1.5a6 6 0 0 0 -5.812 0" fill="none" stroke="#000000" stroke-linecap="round" stroke-linejoin="round" stroke-width="1"></path><path d="M15.094 12a6 6 0 0 0 5.812 0" fill="none" stroke="#000000" stroke-linecap="round" stroke-linejoin="round" stroke-width="1"></path><path d="M15 16.5a6.75 6.75 0 0 1 -13.5 0c0 -4.871 4.448 -12.212 6.123 -14.8a0.744 0.744 0 0 1 1.254 0c0.228 0.353 0.507 0.794 0.82 1.3" fill="none" stroke="#000000" stroke-linecap="round" stroke-linejoin="round" stroke-width="1"></path><path d="M8.25 20.25A3.75 3.75 0 0 1 4.5 16.5" fill="none" stroke="#000000" stroke-linecap="round" stroke-linejoin="round" stroke-width="1"></path></svg>