<svg xmlns="http://www.w3.org/2000/svg" viewBox="0 0 24 24" id="Dangerous-Logistic-Carried-Truck--Streamline-Ultimate"><desc>Dangerous Logistic Carried Truck Streamline Icon: https://streamlinehq.com</desc><defs></defs><path d="M16.5 21.25a2 2 0 1 0 4 0 2 2 0 1 0 -4 0" fill="none" stroke="#000000" stroke-linecap="round" stroke-linejoin="round" stroke-width="1"></path><path d="M3.75 21.25a2 2 0 1 0 4 0 2 2 0 1 0 -4 0" fill="none" stroke="#000000" stroke-linecap="round" stroke-linejoin="round" stroke-width="1"></path><path d="M14.25 15.75H1.728a0.978 0.978 0 0 0 -0.978 0.978v3.022a1.5 1.5 0 0 0 1.5 1.5h1.5" fill="none" stroke="#000000" stroke-linecap="round" stroke-linejoin="round" stroke-width="1"></path><path d="M23.25 13.25h-4.5a0.974 0.974 0 0 1 -1 -0.946V7.75" fill="none" stroke="#000000" stroke-linecap="round" stroke-linejoin="round" stroke-width="1"></path><path d="m14.25 21.25 -6.5 0" fill="none" stroke="#000000" stroke-linecap="round" stroke-linejoin="round" stroke-width="1"></path><path d="m23.25 17 -2.457 0" fill="none" stroke="#000000" stroke-linecap="round" stroke-linejoin="round" stroke-width="1"></path><path d="M20.5 21.25h1.25a1.5 1.5 0 0 0 1.5 -1.5v-7.5a4.5 4.5 0 0 0 -4.5 -4.5h-4.5v13.5h2.25" fill="none" stroke="#000000" stroke-linecap="round" stroke-linejoin="round" stroke-width="1"></path><path d="m14.25 7.75 0 -3" fill="none" stroke="#000000" stroke-linecap="round" stroke-linejoin="round" stroke-width="1"></path><path d="M10.5 5.625a4.875 4.875 0 1 0 -7.875 3.816v0.809a1.5 1.5 0 0 0 1.5 1.5h3a1.5 1.5 0 0 0 1.5 -1.5v-0.809A4.845 4.845 0 0 0 10.5 5.625Z" fill="none" stroke="#000000" stroke-linecap="round" stroke-linejoin="round" stroke-width="1"></path><path d="M3.75 5.625A0.375 0.375 0 0 1 4.125 6" fill="none" stroke="#000000" stroke-linecap="round" stroke-linejoin="round" stroke-width="1"></path><path d="M3.375 6a0.375 0.375 0 0 1 0.375 -0.375" fill="none" stroke="#000000" stroke-linecap="round" stroke-linejoin="round" stroke-width="1"></path><path d="M3.75 6.375A0.375 0.375 0 0 1 3.375 6" fill="none" stroke="#000000" stroke-linecap="round" stroke-linejoin="round" stroke-width="1"></path><path d="M4.125 6a0.375 0.375 0 0 1 -0.375 0.375" fill="none" stroke="#000000" stroke-linecap="round" stroke-linejoin="round" stroke-width="1"></path><path d="M7.5 5.625A0.375 0.375 0 0 1 7.875 6" fill="none" stroke="#000000" stroke-linecap="round" stroke-linejoin="round" stroke-width="1"></path><path d="M7.125 6a0.375 0.375 0 0 1 0.375 -0.375" fill="none" stroke="#000000" stroke-linecap="round" stroke-linejoin="round" stroke-width="1"></path><path d="M7.5 6.375A0.375 0.375 0 0 1 7.125 6" fill="none" stroke="#000000" stroke-linecap="round" stroke-linejoin="round" stroke-width="1"></path><path d="M7.875 6a0.375 0.375 0 0 1 -0.375 0.375" fill="none" stroke="#000000" stroke-linecap="round" stroke-linejoin="round" stroke-width="1"></path><path d="m5.625 9.75 0 2" fill="none" stroke="#000000" stroke-linecap="round" stroke-linejoin="round" stroke-width="1"></path></svg>