<svg xmlns="http://www.w3.org/2000/svg" viewBox="0 0 24 24" id="Dangerous-Logistic-Truck--Streamline-Ultimate"><desc>Dangerous Logistic Truck Streamline Icon: https://streamlinehq.com</desc><defs></defs><path d="M19.25 20.75h1.5a1 1 0 0 0 1 -1v-4.5" fill="none" stroke="#000000" stroke-linecap="round" stroke-linejoin="round" stroke-width="1"></path><path d="M11.25 9.75h-1.5a1 1 0 0 0 -1 1v10h5.5" fill="none" stroke="#000000" stroke-linecap="round" stroke-linejoin="round" stroke-width="1"></path><path d="M3.75 20.75h-2a1 1 0 0 1 -1 -1v-3.382a1 1 0 0 1 0.553 -0.894l1.447 -0.724 1.224 -2.45a1 1 0 0 1 0.894 -0.553H8.75v9" fill="none" stroke="#000000" stroke-linecap="round" stroke-linejoin="round" stroke-width="1"></path><path d="M14.25 20.75a2.5 2.5 0 1 0 5 0 2.5 2.5 0 1 0 -5 0" fill="none" stroke="#000000" stroke-linecap="round" stroke-linejoin="round" stroke-width="1"></path><path d="M3.75 20.75a2.5 2.5 0 1 0 5 0 2.5 2.5 0 1 0 -5 0" fill="none" stroke="#000000" stroke-linecap="round" stroke-linejoin="round" stroke-width="1"></path><path d="M23.25 5.625a4.875 4.875 0 1 0 -7.875 3.816v1.309a1.5 1.5 0 0 0 1.5 1.5h3a1.5 1.5 0 0 0 1.5 -1.5V9.441a4.845 4.845 0 0 0 1.875 -3.816Z" fill="none" stroke="#000000" stroke-linecap="round" stroke-linejoin="round" stroke-width="1"></path><path d="M16.5 5.625a0.375 0.375 0 0 1 0.375 0.375" fill="none" stroke="#000000" stroke-linecap="round" stroke-linejoin="round" stroke-width="1"></path><path d="M16.125 6a0.375 0.375 0 0 1 0.375 -0.375" fill="none" stroke="#000000" stroke-linecap="round" stroke-linejoin="round" stroke-width="1"></path><path d="M16.5 6.375A0.375 0.375 0 0 1 16.125 6" fill="none" stroke="#000000" stroke-linecap="round" stroke-linejoin="round" stroke-width="1"></path><path d="M16.875 6a0.375 0.375 0 0 1 -0.375 0.375" fill="none" stroke="#000000" stroke-linecap="round" stroke-linejoin="round" stroke-width="1"></path><path d="M20.25 5.625a0.375 0.375 0 0 1 0.375 0.375" fill="none" stroke="#000000" stroke-linecap="round" stroke-linejoin="round" stroke-width="1"></path><path d="M19.875 6a0.375 0.375 0 0 1 0.375 -0.375" fill="none" stroke="#000000" stroke-linecap="round" stroke-linejoin="round" stroke-width="1"></path><path d="M20.25 6.375A0.375 0.375 0 0 1 19.875 6" fill="none" stroke="#000000" stroke-linecap="round" stroke-linejoin="round" stroke-width="1"></path><path d="M20.625 6a0.375 0.375 0 0 1 -0.375 0.375" fill="none" stroke="#000000" stroke-linecap="round" stroke-linejoin="round" stroke-width="1"></path><path d="m18.375 9.75 0 2.5" fill="none" stroke="#000000" stroke-linecap="round" stroke-linejoin="round" stroke-width="1"></path></svg>