<svg xmlns="http://www.w3.org/2000/svg" fill="none" viewBox="0 0 24 24" id="Deliver-Issue-Truck--Streamline-Ultimate"><desc>Deliver Issue Truck Streamline Icon: https://streamlinehq.com</desc><path stroke="#000000" stroke-linecap="round" stroke-linejoin="round" d="M19.25 20.75h1.5c0.2652 0 0.5196 -0.1054 0.7071 -0.2929s0.2929 -0.4419 0.2929 -0.7071v-4.5" stroke-width="1"></path><path stroke="#000000" stroke-linecap="round" stroke-linejoin="round" d="M9.75 9.75c-0.26522 0 -0.51957 0.10536 -0.70711 0.2929 -0.18753 0.1875 -0.29289 0.4419 -0.29289 0.7071v10h5.5" stroke-width="1"></path><path stroke="#000000" stroke-linecap="round" stroke-linejoin="round" d="M3.75 20.7499h-2c-0.26522 0 -0.51957 -0.1053 -0.70711 -0.2928C0.855357 20.2695 0.75 20.0152 0.75 19.7499v-3.382c0.000099 -0.1856 0.051883 -0.3676 0.149552 -0.5255 0.09767 -0.1579 0.237368 -0.2855 0.403448 -0.3685l1.447 -0.724 1.224 -2.45c0.08299 -0.166 0.21058 -0.3057 0.36847 -0.4034 0.1579 -0.0977 0.33987 -0.1495 0.52553 -0.1496H8.75v9" stroke-width="1"></path><path stroke="#000000" stroke-linecap="round" stroke-linejoin="round" d="M16.75 23.25c1.3807 0 2.5 -1.1193 2.5 -2.5s-1.1193 -2.5 -2.5 -2.5 -2.5 1.1193 -2.5 2.5 1.1193 2.5 2.5 2.5Z" stroke-width="1"></path><path stroke="#000000" stroke-linecap="round" stroke-linejoin="round" d="M6.25 23.25c1.38071 0 2.5 -1.1193 2.5 -2.5s-1.11929 -2.5 -2.5 -2.5 -2.5 1.1193 -2.5 2.5 1.11929 2.5 2.5 2.5Z" stroke-width="1"></path><path stroke="#000000" d="M17.734 9.36072c-0.2071 0 -0.375 -0.1679 -0.375 -0.375 0 -0.20711 0.1679 -0.375 0.375 -0.375" stroke-width="1"></path><path stroke="#000000" d="M17.734 9.36072c0.2071 0 0.375 -0.1679 0.375 -0.375 0 -0.20711 -0.1679 -0.375 -0.375 -0.375" stroke-width="1"></path><path stroke="#000000" stroke-linecap="round" stroke-linejoin="round" d="M17.75 6.25v-1.5" stroke-width="1"></path><path stroke="#000000" stroke-linecap="round" stroke-linejoin="round" d="M23.0779 9.49397c0.1243 0.2363 0.1832 0.50147 0.1707 0.76813 -0.0125 0.2667 -0.0959 0.5252 -0.2417 0.7489 -0.1507 0.2286 -0.3562 0.4159 -0.5977 0.545 -0.2415 0.129 -0.5114 0.1957 -0.7853 0.194h-7.748c-0.2738 0.0017 -0.5437 -0.065 -0.7852 -0.194 -0.2416 -0.1291 -0.447 -0.3164 -0.5978 -0.545 -0.1457 -0.2237 -0.2291 -0.4822 -0.2416 -0.7489 -0.0125 -0.26666 0.0464 -0.53183 0.1706 -0.76813l3.878 -7.882c0.143 -0.26095 0.3535 -0.47865 0.6095 -0.630302C17.1653 0.830017 17.4574 0.75 17.7549 0.75c0.2976 0 0.5896 0.080017 0.8456 0.231668 0.256 0.151652 0.4665 0.369352 0.6094 0.630302l3.868 7.882Z" stroke-width="1"></path></svg>