<svg xmlns="http://www.w3.org/2000/svg" fill="none" viewBox="0 0 24 24" id="Deliver-Issue-Drone--Streamline-Ultimate"><desc>Deliver Issue Drone Streamline Icon: https://streamlinehq.com</desc><path stroke="#000000" stroke-linecap="round" stroke-linejoin="round" d="M21.75 5.47195h-2.988c-0.6261 0.01676 -1.2485 -0.10148 -1.8248 -0.34668 -0.5763 -0.2452 -1.0931 -0.61161 -1.5152 -1.07432 -0.4225 -0.49469 -0.9471 -0.8919 -1.5379 -1.16427 -0.5908 -0.27237 -1.2336 -0.41341 -1.8841 -0.41341 -0.6505 0 -1.2933 0.14104 -1.8841 0.41341 -0.59076 0.27237 -1.11544 0.66958 -1.5379 1.16427 -0.42211 0.46271 -0.93889 0.82912 -1.51521 1.07432 -0.57633 0.2452 -1.1987 0.36344 -1.82479 0.34668H2.25c-0.39782 0 -0.77936 0.15804 -1.06066 0.43934C0.908035 6.1926 0.75 6.57413 0.75 6.97195c0 0.39783 0.158035 0.77936 0.43934 1.06066 0.2813 0.28131 0.66284 0.43934 1.06066 0.43934h2.988c0.62609 -0.01675 1.24846 0.10149 1.82479 0.34669 0.57632 0.2452 1.0931 0.6116 1.51521 1.07431 0.42246 0.49465 0.94714 0.89195 1.5379 1.16425 0.5908 0.2724 1.2336 0.4134 1.8841 0.4134 0.6505 0 1.2933 -0.141 1.8841 -0.4134 0.5908 -0.2723 1.1154 -0.6696 1.5379 -1.16425 0.4221 -0.46271 0.9389 -0.82911 1.5152 -1.07431 0.5763 -0.2452 1.1987 -0.36344 1.8248 -0.34669h2.988c0.3978 0 0.7794 -0.15803 1.0607 -0.43934 0.2813 -0.2813 0.4393 -0.66283 0.4393 -1.06066 0 -0.39782 -0.158 -0.77935 -0.4393 -1.06066 -0.2813 -0.2813 -0.6629 -0.43934 -1.0607 -0.43934v0Z" stroke-width="1"></path><path stroke="#000000" stroke-linecap="round" stroke-linejoin="round" d="M0.75 0.75h1.5" stroke-width="1"></path><path stroke="#000000" stroke-linecap="round" stroke-linejoin="round" d="M5.25 0.75h1.5" stroke-width="1"></path><path stroke="#000000" stroke-linecap="round" stroke-linejoin="round" d="M3.75 2.47205v3" stroke-width="1"></path><path stroke="#000000" stroke-linecap="round" stroke-linejoin="round" d="M17.25 0.75h1.5" stroke-width="1"></path><path stroke="#000000" stroke-linecap="round" stroke-linejoin="round" d="M21.75 0.75h1.5" stroke-width="1"></path><path stroke="#000000" stroke-linecap="round" stroke-linejoin="round" d="M20.25 2.47205v3" stroke-width="1"></path><path stroke="#000000" stroke-linecap="round" stroke-linejoin="round" d="M6.74998 11.472c-1.06589 0.5944 -1.99784 1.402 -2.73768 2.3726 -0.73983 0.9705 -1.27167 2.0832 -1.56232 3.2684 -0.0516 0.2213 -0.05276 0.4514 -0.00339 0.6732 0.04936 0.2218 0.14799 0.4297 0.28858 0.6082 0.14059 0.1785 0.31954 0.3232 0.5236 0.4231 0.20405 0.1 0.42798 0.1528 0.65521 0.1545h1.336" stroke-width="1"></path><path stroke="#000000" stroke-linecap="round" stroke-linejoin="round" d="M17.25 11.472c1.0659 0.5944 1.9978 1.402 2.7377 2.3726 0.7398 0.9705 1.2717 2.0832 1.5623 3.2684 0.0516 0.2213 0.0528 0.4514 0.0034 0.6732s-0.148 0.4297 -0.2886 0.6082c-0.1406 0.1785 -0.3195 0.3232 -0.5236 0.4231 -0.204 0.1 -0.428 0.1528 -0.6552 0.1545H18.75" stroke-width="1"></path><path stroke="#000000" d="M11.984 20.861c-0.2071 0 -0.375 -0.1679 -0.375 -0.375s0.1679 -0.375 0.375 -0.375" stroke-width="1"></path><path stroke="#000000" d="M11.984 20.861c0.2071 0 0.375 -0.1679 0.375 -0.375s-0.1679 -0.375 -0.375 -0.375" stroke-width="1"></path><path stroke="#000000" stroke-linecap="round" stroke-linejoin="round" d="M12 17.75v-1.5" stroke-width="1"></path><path stroke="#000000" stroke-linecap="round" stroke-linejoin="round" d="M17.3279 20.994c0.1243 0.2363 0.1832 0.5014 0.1707 0.7681 -0.0125 0.2667 -0.0959 0.5252 -0.2417 0.7489 -0.1507 0.2286 -0.3562 0.4159 -0.5977 0.545 -0.2415 0.129 -0.5114 0.1957 -0.7853 0.194H8.12594c-0.27383 0.0017 -0.54376 -0.065 -0.78528 -0.194 -0.24152 -0.1291 -0.44698 -0.3164 -0.59772 -0.545 -0.14576 -0.2237 -0.22918 -0.4822 -0.24167 -0.7489 -0.01248 -0.2667 0.04644 -0.5318 0.17067 -0.7681l3.87296 -6.882c0.143 -0.261 0.3535 -0.4787 0.6095 -0.6303 0.2559 -0.1517 0.548 -0.2317 0.8455 -0.2317 0.2976 0 0.5896 0.08 0.8456 0.2317 0.256 0.1516 0.4665 0.3693 0.6094 0.6303l3.873 6.882Z" stroke-width="1"></path></svg>