<svg xmlns="http://www.w3.org/2000/svg" fill="none" viewBox="0 0 24 24" id="Deliver-Issue-Plane--Streamline-Ultimate"><desc>Deliver Issue Plane Streamline Icon: https://streamlinehq.com</desc><path stroke="#000000" stroke-linecap="round" stroke-linejoin="round" d="m15.239 9.85499 0.738 -1.9 3.2 -1.076c0.6064 -0.20382 1.107 -0.64019 1.3917 -1.21311 0.2846 -0.57292 0.3301 -1.23547 0.1263 -1.84189 -0.2039 -0.60641 -0.6402 -1.10703 -1.2132 -1.39171 -0.5729 -0.28468 -1.2354 -0.33011 -1.8418 -0.12629l-11.43105 3.843 -1.53 -1.521 -2.271 0.763c-0.15109 0.05119 -0.28711 0.13908 -0.39587 0.25578 -0.10876 0.1167 -0.18686 0.25857 -0.2273 0.41288 -0.04044 0.15432 -0.04195 0.31625 -0.00439 0.4713 0.03755 0.15504 0.11299 0.29834 0.21956 0.41704l3.073 3.44001c0.25166 0.2816 0.58037 0.4832 0.94545 0.5799 0.36508 0.0967 0.7505 0.0842 1.10855 -0.0359L10.489 9.79999 9.80695 14.664" stroke-width="1"></path><path stroke="#000000" stroke-linecap="round" stroke-linejoin="round" d="M14.44 3.38301 10.864 0.920015c-0.1236 -0.084732 -0.2651 -0.139666 -0.4134 -0.160488 -0.1484 -0.020821 -0.2995 -0.006962 -0.4416 0.040488l-1.72103 0.578995c-0.15633 0.05211 -0.29669 0.14341 -0.40768 0.2652 -0.111 0.12179 -0.18892 0.27 -0.22633 0.43048 -0.03741 0.16048 -0.03306 0.32786 0.01263 0.48618 0.04569 0.15832 0.13121 0.30228 0.24837 0.41814l1.952 1.941" stroke-width="1"></path><path stroke="#000000" d="M16.734 20.8607c-0.2071 0 -0.375 -0.1679 -0.375 -0.375s0.1679 -0.375 0.375 -0.375" stroke-width="1"></path><path stroke="#000000" d="M16.734 20.8607c0.2071 0 0.375 -0.1679 0.375 -0.375s-0.1679 -0.375 -0.375 -0.375" stroke-width="1"></path><path stroke="#000000" stroke-linecap="round" stroke-linejoin="round" d="M16.75 18v-1.5" stroke-width="1"></path><path stroke="#000000" stroke-linecap="round" stroke-linejoin="round" d="M22.0779 20.994c0.1243 0.2363 0.1832 0.5014 0.1707 0.7681 -0.0125 0.2667 -0.0959 0.5252 -0.2417 0.7489 -0.1507 0.2286 -0.3562 0.4159 -0.5977 0.545 -0.2415 0.129 -0.5114 0.1957 -0.7853 0.194h-7.748c-0.2738 0.0017 -0.5437 -0.065 -0.7852 -0.194 -0.2416 -0.1291 -0.447 -0.3164 -0.5978 -0.545 -0.1457 -0.2237 -0.2291 -0.4822 -0.2416 -0.7489 -0.0125 -0.2667 0.0464 -0.5318 0.1706 -0.7681l3.878 -6.882c0.143 -0.261 0.3535 -0.4787 0.6095 -0.6303 0.2559 -0.1517 0.548 -0.2317 0.8455 -0.2317 0.2976 0 0.5896 0.08 0.8456 0.2317 0.256 0.1516 0.4665 0.3693 0.6094 0.6303l3.868 6.882Z" stroke-width="1"></path></svg>