<svg xmlns="http://www.w3.org/2000/svg" fill="none" viewBox="0 0 24 24" id="Deliver-Issue-Container--Streamline-Ultimate"><desc>Deliver Issue Container Streamline Icon: https://streamlinehq.com</desc><path stroke="#000000" stroke-linecap="round" stroke-linejoin="round" d="M18.75 13.75v8.572c0.0001 0.1219 -0.0238 0.2426 -0.0704 0.3553 -0.0466 0.1126 -0.1149 0.215 -0.2011 0.3012 -0.0862 0.0862 -0.1886 0.1545 -0.3012 0.2011 -0.1127 0.0466 -0.2334 0.0705 -0.3553 0.0704H1.678c-0.1219 0.0001 -0.24264 -0.0238 -0.35529 -0.0704 -0.11264 -0.0466 -0.215 -0.1149 -0.3012 -0.2011 -0.086197 -0.0862 -0.154548 -0.1886 -0.201138 -0.3012 -0.046589 -0.1127 -0.070503 -0.2334 -0.070371 -0.3553v-9.644c-0.000132 -0.1219 0.023782 -0.2426 0.070371 -0.3553 0.04659 -0.1126 0.114941 -0.215 0.201138 -0.3012 0.0862 -0.0862 0.18856 -0.1545 0.3012 -0.2011 0.11265 -0.0466 0.23339 -0.0705 0.35529 -0.0704H9.75" stroke-width="1"></path><path stroke="#000000" stroke-linecap="round" stroke-linejoin="round" d="M9.75 15v5" stroke-width="1"></path><path stroke="#000000" stroke-linecap="round" stroke-linejoin="round" d="M5.25 15v5" stroke-width="1"></path><path stroke="#000000" stroke-linecap="round" stroke-linejoin="round" d="M14.25 15v5" stroke-width="1"></path><path stroke="#000000" d="M17.734 8.36072c-0.2071 0 -0.375 -0.1679 -0.375 -0.375 0 -0.20711 0.1679 -0.375 0.375 -0.375" stroke-width="1"></path><path stroke="#000000" d="M17.734 8.36072c0.2071 0 0.375 -0.1679 0.375 -0.375 0 -0.20711 -0.1679 -0.375 -0.375 -0.375" stroke-width="1"></path><path stroke="#000000" stroke-linecap="round" stroke-linejoin="round" d="M17.75 5.5V4" stroke-width="1"></path><path stroke="#000000" stroke-linecap="round" stroke-linejoin="round" d="M23.0779 8.49397c0.1243 0.2363 0.1832 0.50147 0.1707 0.76815 -0.0125 0.26667 -0.0959 0.52519 -0.2417 0.74888 -0.1507 0.2286 -0.3562 0.4159 -0.5977 0.545 -0.2415 0.129 -0.5114 0.1957 -0.7853 0.194h-7.748c-0.2738 0.0017 -0.5437 -0.065 -0.7852 -0.194 -0.2416 -0.1291 -0.447 -0.3164 -0.5978 -0.545 -0.1457 -0.22369 -0.2291 -0.48221 -0.2416 -0.74888 -0.0125 -0.26668 0.0464 -0.53185 0.1706 -0.76815l3.878 -6.882c0.143 -0.26095 0.3535 -0.47865 0.6095 -0.630302C17.1653 0.830017 17.4574 0.75 17.7549 0.75c0.2976 0 0.5896 0.080017 0.8456 0.231668 0.256 0.151652 0.4665 0.369352 0.6094 0.630302l3.868 6.882Z" stroke-width="1"></path></svg>