<svg xmlns="http://www.w3.org/2000/svg" viewBox="0 0 24 24" id="Illegal-Logistic--Streamline-Ultimate"><desc>Illegal Logistic Streamline Icon: https://streamlinehq.com</desc><defs></defs><path d="M17 15h1.738a0.762 0.762 0 0 0 0.762 -0.762V10.5" fill="none" stroke="#000000" stroke-linecap="round" stroke-linejoin="round" stroke-width="1"></path><path d="M9.25 14.75V6.762A0.762 0.762 0 0 1 10.012 6H18" fill="none" stroke="#000000" stroke-linecap="round" stroke-linejoin="round" stroke-width="1"></path><path d="M5.924 14.381H4.762A0.762 0.762 0 0 1 4 13.619v-2.577a0.762 0.762 0 0 1 0.421 -0.681l1.1 -0.551 0.932 -1.639a0.762 0.762 0 0 1 0.682 -0.421H9.25" fill="none" stroke="#000000" stroke-linecap="round" stroke-linejoin="round" stroke-width="1"></path><path d="M13.5 15a1.75 1.75 0 1 0 3.5 0 1.75 1.75 0 1 0 -3.5 0" fill="none" stroke="#000000" stroke-linecap="round" stroke-linejoin="round" stroke-width="1"></path><path d="M0.75 12a11.25 11.25 0 1 0 22.5 0 11.25 11.25 0 1 0 -22.5 0" fill="none" stroke="#000000" stroke-linecap="round" stroke-linejoin="round" stroke-width="1"></path><path d="m4.045 19.955 15.91 -15.91" fill="none" stroke="#000000" stroke-linecap="round" stroke-linejoin="round" stroke-width="1"></path></svg>