<svg xmlns="http://www.w3.org/2000/svg" viewBox="0 0 24 24" id="Avatar-Woman-Store-Clerk--Streamline-Ultimate"><desc>Avatar Woman Store Clerk Streamline Icon: https://streamlinehq.com</desc><defs></defs><path d="m17.75 18.845 0 4.28" fill="none" stroke="#000000" stroke-linecap="round" stroke-linejoin="round" stroke-width="1"></path><path d="m6.25 18.845 0 4.28" fill="none" stroke="#000000" stroke-linecap="round" stroke-linejoin="round" stroke-width="1"></path><path d="M14.75 17.49v3.635a1 1 0 0 1 -1 1h-3.5a1 1 0 0 1 -1 -1V17.49" fill="none" stroke="#000000" stroke-linecap="round" stroke-linejoin="round" stroke-width="1"></path><path d="M21.227 18.145a1.5 1.5 0 0 0 0.763 -1.961l-1.376 -3.21a4.5 4.5 0 0 1 -0.364 -1.774V9.125a8.25 8.25 0 0 0 -16.5 0V11.2a4.5 4.5 0 0 1 -0.364 1.773L2.01 16.184a1.5 1.5 0 0 0 0.763 1.961" fill="none" stroke="#000000" stroke-linecap="round" stroke-linejoin="round" stroke-width="1"></path><path d="M21.476 23.125a10.483 10.483 0 0 0 -18.952 0" fill="none" stroke="#000000" stroke-linecap="round" stroke-linejoin="round" stroke-width="1"></path><path d="M12 5.125s-1.434 3.6 -5.031 3.745a5.25 5.25 0 1 0 10.062 0C13.434 8.722 12 5.125 12 5.125Z" fill="none" stroke="#000000" stroke-linecap="round" stroke-linejoin="round" stroke-width="1"></path></svg>