<svg xmlns="http://www.w3.org/2000/svg" viewBox="0 0 24 24" id="Avatar-Woman-2--Streamline-Ultimate"><desc>Avatar Woman 2 Streamline Icon: https://streamlinehq.com</desc><defs></defs><path d="M12 20.1s0.485 2.91 1.94 2.91 4.228 -4.225 4.228 -4.225" fill="none" stroke="#000000" stroke-linecap="round" stroke-linejoin="round" stroke-width="1"></path><path d="M12 20.1s-0.485 2.91 -1.94 2.91 -4.16 -4.283 -4.16 -4.283" fill="none" stroke="#000000" stroke-linecap="round" stroke-linejoin="round" stroke-width="1"></path><path d="M15.349 17.265a3.4 3.4 0 0 1 -6.7 0" fill="none" stroke="#000000" stroke-linecap="round" stroke-linejoin="round" stroke-width="1"></path><path d="m8.064 6.2 -0.679 -0.75a1.976 1.976 0 0 1 2.653 -2.923 1.97 1.97 0 0 1 3.923 0.017 1.976 1.976 0 0 1 2.674 2.906l-0.7 0.745" fill="none" stroke="#000000" stroke-linecap="round" stroke-linejoin="round" stroke-width="1"></path><path d="M10.658 7.355a8.962 8.962 0 0 1 -3.749 2.218" fill="none" stroke="#000000" stroke-linecap="round" stroke-linejoin="round" stroke-width="1"></path><path d="M10.658 7.355a9.287 9.287 0 0 0 6.412 2.556" fill="none" stroke="#000000" stroke-linecap="round" stroke-linejoin="round" stroke-width="1"></path><path d="M6.907 9.426a5.093 5.093 0 1 0 10.186 0 5.093 5.093 0 1 0 -10.186 0" fill="none" stroke="#000000" stroke-linecap="round" stroke-linejoin="round" stroke-width="1"></path><path d="M21.516 23.25a10.189 10.189 0 0 0 -19.032 0" fill="none" stroke="#000000" stroke-linecap="round" stroke-linejoin="round" stroke-width="1"></path></svg>