<svg xmlns="http://www.w3.org/2000/svg" fill="none" viewBox="0 0 24 24" id="Avatar-Woman-Chinese--Streamline-Ultimate"><desc>Avatar Woman Chinese Streamline Icon: https://streamlinehq.com</desc><path stroke="#000000" d="M9.217 22.75c-0.20711 0 -0.375 -0.1679 -0.375 -0.375S9.00989 22 9.217 22" stroke-width="1"></path><path stroke="#000000" d="M9.217 22.75c0.2071 0 0.375 -0.1679 0.375 -0.375S9.4241 22 9.217 22" stroke-width="1"></path><path stroke="#000000" stroke-linecap="round" stroke-linejoin="round" d="m14.082 1.58996 2.459 -0.734003" stroke-width="1"></path><path stroke="#000000" stroke-linecap="round" stroke-linejoin="round" d="m6 4.00001 3.075 -0.917" stroke-width="1"></path><path stroke="#000000" stroke-linecap="round" stroke-linejoin="round" d="M16 17.5s-4 2.125 -4 4.625" stroke-width="1"></path><path stroke="#000000" stroke-linecap="round" stroke-linejoin="round" d="M8 17.5s4 2.125 4 4.625v1.125" stroke-width="1"></path><path stroke="#000000" stroke-linecap="round" stroke-linejoin="round" d="M9.124 4.60701c-0.13286 -0.44763 -0.15939 -0.92009 -0.07749 -1.37979 0.0819 -0.45969 0.26997 -0.89392 0.54925 -1.26813 0.27927 -0.37421 0.64204 -0.67806 1.05944 -0.88737 0.4174 -0.209309 0.8779 -0.318302 1.3448 -0.318302s0.9274 0.108993 1.3448 0.318302c0.4174 0.20931 0.7802 0.51316 1.0594 0.88737 0.2793 0.37421 0.4674 0.80844 0.5493 1.26813 0.0819 0.4597 0.0554 0.93216 -0.0775 1.37979" stroke-width="1"></path><path stroke="#000000" stroke-linecap="round" stroke-linejoin="round" d="M8.71201 4.90698c0.80822 1.50557 2.00099 2.77005 3.45689 3.66469 1.4558 0.89464 3.1228 1.38747 4.8311 1.42831" stroke-width="1"></path><path stroke="#000000" stroke-linecap="round" stroke-linejoin="round" d="M12 14.25c2.8995 0 5.25 -2.3505 5.25 -5.25 0 -2.89949 -2.3505 -5.25 -5.25 -5.25 -2.89949 0 -5.25 2.35051 -5.25 5.25 0 2.8995 2.35051 5.25 5.25 5.25Z" stroke-width="1"></path><path stroke="#000000" stroke-linecap="round" stroke-linejoin="round" d="M21.809 23.25c-0.7587 -1.9867 -2.1028 -3.6961 -3.8544 -4.9022 -1.7515 -1.206 -3.828 -1.8517 -5.9546 -1.8517 -2.1266 0 -4.20308 0.6457 -5.95464 1.8517C4.29379 19.5539 2.94972 21.2633 2.191 23.25" stroke-width="1"></path></svg>