<svg xmlns="http://www.w3.org/2000/svg" viewBox="0 0 24 24" id="Avatar-Red-Indian-Woman--Streamline-Ultimate"><desc>Avatar Red Indian Woman Streamline Icon: https://streamlinehq.com</desc><defs></defs><path d="M6.75 8.5a5.25 5.25 0 1 0 10.5 0 5.25 5.25 0 1 0 -10.5 0" fill="none" stroke="#000000" stroke-linecap="round" stroke-linejoin="round" stroke-width="1"></path><path d="M2.573 23.25a9.754 9.754 0 0 1 18.854 0" fill="none" stroke="#000000" stroke-linecap="round" stroke-linejoin="round" stroke-width="1"></path><path d="M6.75 8.25s0 2.072 -2.263 4.706a1 1 0 0 0 0.246 1.512 8.617 8.617 0 0 0 1.753 0.786" fill="none" stroke="#000000" stroke-linecap="round" stroke-linejoin="round" stroke-width="1"></path><path d="M17.25 8.25s0 2.072 2.263 4.706a1 1 0 0 1 -0.247 1.512 8.631 8.631 0 0 1 -1.752 0.786" fill="none" stroke="#000000" stroke-linecap="round" stroke-linejoin="round" stroke-width="1"></path><path d="m6.892 7.25 10.224 0" fill="none" stroke="#000000" stroke-linecap="round" stroke-linejoin="round" stroke-width="1"></path><path d="m9.25 4.028 0 -2.278" fill="none" stroke="#000000" stroke-linecap="round" stroke-linejoin="round" stroke-width="1"></path><path d="m6.75 8 0 -7.25" fill="none" stroke="#000000" stroke-linecap="round" stroke-linejoin="round" stroke-width="1"></path><path d="M18.864 18.826A9.177 9.177 0 0 1 12 21.5a9.181 9.181 0 0 1 -6.865 -2.674" fill="none" stroke="#000000" stroke-linecap="round" stroke-linejoin="round" stroke-width="1"></path><path d="m13.787 21.362 0.463 1.388" fill="none" stroke="#000000" stroke-linecap="round" stroke-linejoin="round" stroke-width="1"></path><path d="m16.82 20.389 0.68 1.361" fill="none" stroke="#000000" stroke-linecap="round" stroke-linejoin="round" stroke-width="1"></path><path d="M10.213 21.362 9.75 22.75" fill="none" stroke="#000000" stroke-linecap="round" stroke-linejoin="round" stroke-width="1"></path><path d="M7.18 20.389 6.5 21.75" fill="none" stroke="#000000" stroke-linecap="round" stroke-linejoin="round" stroke-width="1"></path></svg>