<svg xmlns="http://www.w3.org/2000/svg" viewBox="0 0 24 24" id="Avatar-Wide-Hat-Girl-1--Streamline-Ultimate"><desc>Avatar Wide Hat Girl 1 Streamline Icon: https://streamlinehq.com</desc><defs></defs><path d="M7.215 4.294a5 5 0 0 1 9.57 0" fill="none" stroke="#000000" stroke-linecap="round" stroke-linejoin="round" stroke-width="1"></path><path d="M7.025 10.161C3.351 9.628 0.828 8.525 0.828 7.25 0.828 5.455 5.83 4 12 4s11.172 1.455 11.172 3.25c0 1.275 -2.523 2.378 -6.2 2.911" fill="none" stroke="#000000" stroke-linecap="round" stroke-linejoin="round" stroke-width="1"></path><path d="M16.5 17.5 12 20l1.22 1.464a1.545 1.545 0 0 0 2.508 -0.043l2.3 -3.02" fill="none" stroke="#000000" stroke-linecap="round" stroke-linejoin="round" stroke-width="1"></path><path d="M7.5 17.5 12 20l-1.22 1.464a1.545 1.545 0 0 1 -2.508 -0.043l-2.337 -2.992" fill="none" stroke="#000000" stroke-linecap="round" stroke-linejoin="round" stroke-width="1"></path><path d="M9.731 6.663A8.476 8.476 0 0 0 17 10" fill="none" stroke="#000000" stroke-linecap="round" stroke-linejoin="round" stroke-width="1"></path><path d="M16.88 7.07A5.141 5.141 0 0 1 17.25 9a5.25 5.25 0 0 1 -10.5 0 5.141 5.141 0 0 1 0.37 -1.93" fill="none" stroke="#000000" stroke-linecap="round" stroke-linejoin="round" stroke-width="1"></path><path d="M21.809 23.25a10.5 10.5 0 0 0 -19.618 0" fill="none" stroke="#000000" stroke-linecap="round" stroke-linejoin="round" stroke-width="1"></path></svg>