<svg xmlns="http://www.w3.org/2000/svg" fill="none" viewBox="0 0 24 24" id="Avatar-Woman-1--Streamline-Ultimate"><desc>Avatar Woman 1 Streamline Icon: https://streamlinehq.com</desc><path stroke="#000000" stroke-linecap="round" stroke-linejoin="round" d="m6.205 23.25 1 -2h8.5l1 2" stroke-width="1"></path><path stroke="#000000" stroke-linecap="round" stroke-linejoin="round" d="M15.53 18.108v3.142" stroke-width="1"></path><path stroke="#000000" stroke-linecap="round" stroke-linejoin="round" d="M7.205 18.187v3.063" stroke-width="1"></path><path stroke="#000000" d="M18.2034 5.625c-0.2071 0 -0.375 -0.16789 -0.375 -0.375s0.1679 -0.375 0.375 -0.375" stroke-width="1"></path><path stroke="#000000" d="M18.2034 5.625c0.2071 0 0.375 -0.16789 0.375 -0.375s-0.1679 -0.375 -0.375 -0.375" stroke-width="1"></path><path stroke="#000000" stroke-linecap="round" stroke-linejoin="round" d="M22.087 9.029c-0.3832 0.40613 -0.9113 0.64449 -1.4694 0.66322 -0.5581 0.01873 -1.101 -0.1837 -1.5106 -0.56322l-0.9 -0.9 -0.9 0.9c-0.4088 0.38151 -0.9525 0.58499 -1.5113 0.56568 -0.5589 -0.01932 -1.0872 -0.25985 -1.4687 -0.66868 -0.3815 -0.40883 -0.585 -0.95248 -0.5657 -1.51133 0.0193 -0.55886 0.2599 -1.08716 0.6687 -1.46867l0.8 -0.8 -0.8 -0.8c-0.3723 -0.38886 -0.5817 -0.9054 -0.5852 -1.4437 -0.0036 -0.53831 0.1989 -1.05759 0.5659 -1.45137 0.3671 -0.39378 0.8709 -0.632212 1.4081 -0.666413 0.5372 -0.0342 1.0672 0.138423 1.4812 0.482483l0.9 0.9 0.9 -0.9c0.2024 -0.18891 0.44 -0.33611 0.6992 -0.433191 0.2593 -0.097084 0.5351 -0.142154 0.8118 -0.132636 0.2767 0.009518 0.5487 0.073438 0.8007 0.188109 0.252 0.114668 0.4789 0.277848 0.6678 0.480218 0.1889 0.20236 0.3361 0.43996 0.4332 0.69921 0.0971 0.25926 0.1421 0.53509 0.1326 0.81177 -0.0095 0.27667 -0.0734 0.54876 -0.1881 0.80073 -0.1147 0.25197 -0.2778 0.47888 -0.4802 0.66779l-0.8 0.8 0.8 0.8c0.4075 0.38187 0.6477 0.90925 0.6683 1.46736 0.0206 0.5581 -0.18 1.10176 -0.5583 1.51264Z" stroke-width="1"></path><path stroke="#000000" stroke-linecap="round" stroke-linejoin="round" d="M11.786 0.755999c-1.1099 -0.043621 -2.21709 0.137317 -3.25533 0.531971 -1.03823 0.39465 -1.98609 0.99488 -2.78673 1.76471 -0.80065 0.76983 -1.43761 1.69341 -1.87268 2.71537C3.43619 6.79 3.21195 7.88929 3.212 9v2.076c0 0.6096 -0.12384 1.2128 -0.364 1.773l-1.376 3.21c-0.15564 0.3615 -0.16298 0.7696 -0.02043 1.1365 0.14254 0.3668 0.42355 0.6629 0.78243 0.8245" stroke-width="1"></path><path stroke="#000000" stroke-linecap="round" stroke-linejoin="round" d="M20.689 18.02c0.3589 -0.1616 0.6399 -0.4577 0.7824 -0.8245 0.1426 -0.3669 0.1352 -0.775 -0.0204 -1.1365l-1.376 -3.21c-0.103 -0.2404 -0.1846 -0.4894 -0.244 -0.744" stroke-width="1"></path><path stroke="#000000" stroke-linecap="round" stroke-linejoin="round" d="M20.937 23.25c-0.849 -1.7949 -2.1903 -3.3117 -3.8678 -4.374 -1.6775 -1.0622 -3.6222 -1.6261 -5.6077 -1.6261 -1.98553 0 -3.93023 0.5639 -5.60773 1.6261 -1.6775 1.0623 -3.0188 2.5791 -3.86777 4.374" stroke-width="1"></path><path stroke="#000000" stroke-linecap="round" stroke-linejoin="round" d="M11.073 6c-0.462 0.8472 -1.12893 1.56516 -1.9398 2.08833 -0.81087 0.52317 -1.73988 0.83488 -2.7022 0.90667 -0.40525 1.3324 -0.26459 2.7713 0.39104 4 0.65562 1.2288 1.77251 2.1467 3.10496 2.552 1.3324 0.4053 2.7713 0.2646 4 -0.391 1.2288 -0.6557 2.1468 -1.7726 2.552 -3.105" stroke-width="1"></path></svg>