<svg xmlns="http://www.w3.org/2000/svg" viewBox="0 0 24 24" id="Avatar-Adventure-Woman--Streamline-Ultimate"><desc>Avatar Adventure Woman Streamline Icon: https://streamlinehq.com</desc><defs></defs><path d="M17.254 9.51a2.938 2.938 0 0 0 3 3" fill="none" stroke="#000000" stroke-linecap="round" stroke-linejoin="round" stroke-width="1"></path><path d="M6.75 9.51a2.938 2.938 0 0 1 -3 3" fill="none" stroke="#000000" stroke-linecap="round" stroke-linejoin="round" stroke-width="1"></path><path d="M16.948 7.759a5.248 5.248 0 0 1 -9.778 3.8 5.217 5.217 0 0 1 -0.118 -3.8" fill="none" stroke="#000000" stroke-linecap="round" stroke-linejoin="round" stroke-width="1"></path><path d="M2.868 23.259a9.754 9.754 0 0 1 18.206 0" fill="none" stroke="#000000" stroke-linecap="round" stroke-linejoin="round" stroke-width="1"></path><path d="m4.471 7.759 15 0" fill="none" stroke="#000000" stroke-linecap="round" stroke-linejoin="round" stroke-width="1"></path><path d="M17.221 7.759h-10.5v-4a1.649 1.649 0 0 1 0.92 -1.394L11.052 0.9a2.679 2.679 0 0 1 1.839 0L16.3 2.365a1.648 1.648 0 0 1 0.919 1.394Z" fill="none" stroke="#000000" stroke-linecap="round" stroke-linejoin="round" stroke-width="1"></path><path d="m6.721 4.75 10.5 0" fill="none" stroke="#000000" stroke-linecap="round" stroke-linejoin="round" stroke-width="1"></path><path d="m7.927 17.887 0 5.373" fill="none" stroke="#000000" stroke-linecap="round" stroke-linejoin="round" stroke-width="1"></path><path d="m16.016 17.886 0 5.374" fill="none" stroke="#000000" stroke-linecap="round" stroke-linejoin="round" stroke-width="1"></path><path d="M2.75 23.26v-5.824a2.006 2.006 0 0 1 2 -2H6.2" fill="none" stroke="#000000" stroke-linecap="round" stroke-linejoin="round" stroke-width="1"></path><path d="M21.25 23.26v-5.824a2.006 2.006 0 0 0 -2 -2H17.8" fill="none" stroke="#000000" stroke-linecap="round" stroke-linejoin="round" stroke-width="1"></path></svg>