<svg xmlns="http://www.w3.org/2000/svg" viewBox="0 0 24 24" id="Avatar-Woman-Maid--Streamline-Ultimate"><desc>Avatar Woman Maid Streamline Icon: https://streamlinehq.com</desc><defs></defs><path d="M4.338 6.91a8.237 8.237 0 0 0 -0.588 3.065v2.076a4.5 4.5 0 0 1 -0.364 1.773l-1.376 3.21A1.5 1.5 0 0 0 2.773 19" fill="none" stroke="#000000" stroke-linecap="round" stroke-linejoin="round" stroke-width="1"></path><path d="M21.227 19a1.5 1.5 0 0 0 0.763 -1.961l-1.376 -3.21a4.5 4.5 0 0 1 -0.364 -1.773V9.975a8.237 8.237 0 0 0 -0.588 -3.065" fill="none" stroke="#000000" stroke-linecap="round" stroke-linejoin="round" stroke-width="1"></path><path d="M21.081 23.225a10.479 10.479 0 0 0 -18.162 0" fill="none" stroke="#000000" stroke-linecap="round" stroke-linejoin="round" stroke-width="1"></path><path d="M12 5.975s-1.434 3.6 -5.031 3.745a5.25 5.25 0 1 0 10.062 0C13.434 9.572 12 5.975 12 5.975Z" fill="none" stroke="#000000" stroke-linecap="round" stroke-linejoin="round" stroke-width="1"></path><path d="M17.8 5.032a2.463 2.463 0 0 0 -3.643 -2.965 2.445 2.445 0 0 0 -4.312 0A2.462 2.462 0 0 0 6.2 5.032l0.337 0.949A8.165 8.165 0 0 1 12 4.237a8.17 8.17 0 0 1 5.462 1.744Z" fill="none" stroke="#000000" stroke-linecap="round" stroke-linejoin="round" stroke-width="1"></path><path d="m6.25 19.752 0 3.473" fill="none" stroke="#000000" stroke-linecap="round" stroke-linejoin="round" stroke-width="1"></path><path d="m17.75 19.752 0 3.473" fill="none" stroke="#000000" stroke-linecap="round" stroke-linejoin="round" stroke-width="1"></path><path d="m17.836 20 -2.557 1.634a1 1 0 0 1 -1.391 -0.322L12 18.225l-1.748 3.065a1 1 0 0 1 -1.39 0.358L6.164 20" fill="none" stroke="#000000" stroke-linecap="round" stroke-linejoin="round" stroke-width="1"></path></svg>