<svg viewBox="0 0 24 24" xmlns="http://www.w3.org/2000/svg" id="People-Woman-8--Streamline-Ultimate"><desc>People Woman 8 Streamline Icon: https://streamlinehq.com</desc><path d="M21.449 23.25a10.483 10.483 0 0 0 -18.952 0" fill="none" stroke="#000000" stroke-linecap="round" stroke-linejoin="round" stroke-width="1"></path><path d="m14.223 23.25 2.034 -5.086" fill="none" stroke="#000000" stroke-linecap="round" stroke-linejoin="round" stroke-width="1"></path><path d="m7.689 18.164 2.034 5.086" fill="none" stroke="#000000" stroke-linecap="round" stroke-linejoin="round" stroke-width="1"></path><path d="m17.223 7.5 0 2.25 -10.5 0 0 -2.25" fill="none" stroke="#000000" stroke-linecap="round" stroke-linejoin="round" stroke-width="1"></path><path d="M6.777 9.75a5.25 5.25 0 1 0 10.446 0.75 5.142 5.142 0 0 0 -0.054 -0.75Z" fill="none" stroke="#000000" stroke-linecap="round" stroke-linejoin="round" stroke-width="1"></path><path d="m14.223 9.75 0 -1.5" fill="none" stroke="#000000" stroke-linecap="round" stroke-linejoin="round" stroke-width="1"></path><path d="m9.723 9.75 0 -1.5" fill="none" stroke="#000000" stroke-linecap="round" stroke-linejoin="round" stroke-width="1"></path><path d="M14.973 3a2.25 2.25 0 1 0 4.5 0 2.25 2.25 0 1 0 -4.5 0Z" fill="none" stroke="#000000" stroke-linecap="round" stroke-linejoin="round" stroke-width="1"></path><path d="M20.223 21.274V9a8.228 8.228 0 0 0 -0.311 -2.25" fill="none" stroke="#000000" stroke-linecap="round" stroke-linejoin="round" stroke-width="1"></path><path d="M13.473 0.886A8.257 8.257 0 0 0 3.723 9v12.274" fill="none" stroke="#000000" stroke-linecap="round" stroke-linejoin="round" stroke-width="1"></path></svg>