<svg viewBox="0 0 24 24" xmlns="http://www.w3.org/2000/svg" id="People-Woman-10--Streamline-Ultimate"><desc>People Woman 10 Streamline Icon: https://streamlinehq.com</desc><path d="M8.825 13.982a10.4 10.4 0 0 0 -2.746 1.334L7.473 19.5l4.5 -3Z" fill="none" stroke="#000000" stroke-linecap="round" stroke-linejoin="round" stroke-width="1"></path><path d="M15.121 13.982 11.973 16.5l4.5 3 1.394 -4.184a10.4 10.4 0 0 0 -2.746 -1.334Z" fill="none" stroke="#000000" stroke-linecap="round" stroke-linejoin="round" stroke-width="1"></path><path d="M22.446 23.25a10.508 10.508 0 0 0 -7.325 -9.27v0l-3.148 2.52 -3.148 -2.518v0A10.508 10.508 0 0 0 1.5 23.25" fill="none" stroke="#000000" stroke-linecap="round" stroke-linejoin="round" stroke-width="1"></path><path d="M6.727 5.808a3.353 3.353 0 0 0 1.873 0.566c1.864 0 3.938 -1.875 3.938 -2.625" fill="none" stroke="#000000" stroke-linecap="round" stroke-linejoin="round" stroke-width="1"></path><path d="M11.973 0.749a5.25 5.25 0 1 0 3.963 8.693" fill="none" stroke="#000000" stroke-linecap="round" stroke-linejoin="round" stroke-width="1"></path><path d="M11.973 0.749c0 5.25 4.5 6.75 4.5 11.25 0 0 1.5 -0.75 1.5 -6 0 -4.499 -3.75 -5.25 -6 -5.25Z" fill="none" stroke="#000000" stroke-linecap="round" stroke-linejoin="round" stroke-width="1"></path></svg>