<svg viewBox="0 0 24 24" xmlns="http://www.w3.org/2000/svg" id="People-Woman-13--Streamline-Ultimate"><desc>People Woman 13 Streamline Icon: https://streamlinehq.com</desc><path d="M6.728 9.875a3.346 3.346 0 0 0 1.871 0.567 3.744 3.744 0 0 0 3.375 -2.625 3.744 3.744 0 0 0 3.375 2.625 3.346 3.346 0 0 0 1.871 -0.567" fill="none" stroke="#000000" stroke-linecap="round" stroke-linejoin="round" stroke-width="1"></path><path d="M8.224 18.256v0.811c0 2.071 3.75 4.154 3.75 4.154s3.75 -2.083 3.75 -4.154v-0.811" fill="none" stroke="#000000" stroke-linecap="round" stroke-linejoin="round" stroke-width="1"></path><path d="M21.29 23.221a10.5 10.5 0 0 0 -18.632 0" fill="none" stroke="#000000" stroke-linecap="round" stroke-linejoin="round" stroke-width="1"></path><path d="M7.441 7.417a5.25 5.25 0 1 0 9.1 0.051" fill="none" stroke="#000000" stroke-linecap="round" stroke-linejoin="round" stroke-width="1"></path><path d="M6.279 0.843a0.75 0.75 0 0 0 -1.055 0.686v3.692a0.75 0.75 0 0 0 1.055 0.685l5.7 -2.531Z" fill="none" stroke="#000000" stroke-linecap="round" stroke-linejoin="round" stroke-width="1"></path><path d="M17.669 0.843a0.75 0.75 0 0 1 1.055 0.686v3.692a0.75 0.75 0 0 1 -1.055 0.685l-5.695 -2.531Z" fill="none" stroke="#000000" stroke-linecap="round" stroke-linejoin="round" stroke-width="1"></path></svg>