<svg viewBox="0 0 24 24" xmlns="http://www.w3.org/2000/svg" id="People-Woman-Glasses-4--Streamline-Ultimate"><desc>People Woman Glasses 4 Streamline Icon: https://streamlinehq.com</desc><path d="M17.809 19.026A14.584 14.584 0 0 0 21.2 18.02a1.5 1.5 0 0 0 0.763 -1.961l-1.376 -3.21a4.5 4.5 0 0 1 -0.364 -1.773V9a8.25 8.25 0 1 0 -16.5 0v2.076a4.5 4.5 0 0 1 -0.364 1.773l-1.376 3.21a1.5 1.5 0 0 0 0.763 1.961 14.584 14.584 0 0 0 3.391 1.006" fill="none" stroke="#000000" stroke-linecap="round" stroke-linejoin="round" stroke-width="1"></path><path d="M8.825 17.732a10.4 10.4 0 0 0 -2.746 1.334l1.394 4.184 4.5 -3Z" fill="none" stroke="#000000" stroke-linecap="round" stroke-linejoin="round" stroke-width="1"></path><path d="m15.121 17.732 -3.148 2.518 4.5 3 1.394 -4.184a10.4 10.4 0 0 0 -2.746 -1.334Z" fill="none" stroke="#000000" stroke-linecap="round" stroke-linejoin="round" stroke-width="1"></path><path d="M2.5 23.25a10.573 10.573 0 0 1 3.582 -4.184 10.4 10.4 0 0 1 2.746 -1.334l3.148 2.518 3.148 -2.518a10.4 10.4 0 0 1 2.746 1.334 10.573 10.573 0 0 1 3.582 4.184" fill="none" stroke="#000000" stroke-linecap="round" stroke-linejoin="round" stroke-width="1"></path><path d="M7.508 13.262a5.25 5.25 0 0 0 8.93 0" fill="none" stroke="#000000" stroke-linecap="round" stroke-linejoin="round" stroke-width="1"></path><path d="M14.68 8.336a6.844 6.844 0 0 1 -2.707 -3.086 6.844 6.844 0 0 1 -2.707 3.086" fill="none" stroke="#000000" stroke-linecap="round" stroke-linejoin="round" stroke-width="1"></path><path d="M5.973 10.875a2.625 2.625 0 1 0 5.25 0 2.625 2.625 0 1 0 -5.25 0Z" fill="none" stroke="#000000" stroke-linecap="round" stroke-linejoin="round" stroke-width="1"></path><path d="M12.723 10.875a2.625 2.625 0 1 0 5.25 0 2.625 2.625 0 1 0 -5.25 0Z" fill="none" stroke="#000000" stroke-linecap="round" stroke-linejoin="round" stroke-width="1"></path></svg>