<svg xmlns="http://www.w3.org/2000/svg" fill="none" viewBox="0 0 24 24" id="People-Woman-Cap-3--Streamline-Ultimate"><desc>People Woman Cap 3 Streamline Icon: https://streamlinehq.com</desc><path stroke="#000000" stroke-linecap="round" stroke-linejoin="round" d="M12 11.25c2.8995 0 5.25 -2.3505 5.25 -5.25 0 -2.89949 -2.3505 -5.25 -5.25 -5.25C9.10051 0.75 6.75 3.10051 6.75 6c0 2.8995 2.35051 5.25 5.25 5.25Z" stroke-width="1"></path><path stroke="#000000" stroke-linecap="round" stroke-linejoin="round" d="M6.80402 6.75H17.197" stroke-width="1"></path><path stroke="#000000" stroke-linecap="round" stroke-linejoin="round" d="M11.25 3.75h1.5" stroke-width="1"></path><path stroke="#000000" stroke-linecap="round" stroke-linejoin="round" d="M11.25 17.24v6.01" stroke-width="1"></path><path stroke="#000000" d="M15.375 20.25c-0.2071 0 -0.375 -0.1679 -0.375 -0.375s0.1679 -0.375 0.375 -0.375" stroke-width="1"></path><path stroke="#000000" d="M15.375 20.25c0.2071 0 0.375 -0.1679 0.375 -0.375s-0.1679 -0.375 -0.375 -0.375" stroke-width="1"></path><path stroke="#000000" stroke-linecap="round" stroke-linejoin="round" d="M15.673 14.171c-0.1446 0.8769 -0.596 1.674 -1.2737 2.249 -0.6777 0.575 -1.5375 0.8907 -2.4263 0.8907 -0.8887 0 -1.7486 -0.3157 -2.42628 -0.8907 -0.67766 -0.575 -1.12906 -1.3721 -1.27371 -2.249" stroke-width="1"></path><path stroke="#000000" stroke-linecap="round" stroke-linejoin="round" d="M6.8 6.75S6.75 10.5 3.75 12" stroke-width="1"></path><path stroke="#000000" stroke-linecap="round" stroke-linejoin="round" d="M17.2 6.75s0.05 3.75 3.05 5.25" stroke-width="1"></path><path stroke="#000000" stroke-linecap="round" stroke-linejoin="round" d="M22.446 23.2501c-0.1902 -2.6477 -1.3763 -5.1251 -3.3194 -6.9336 -1.9431 -1.8085 -4.4991 -2.8139 -7.1536 -2.8139 -2.65451 0 -5.2105 1.0054 -7.15362 2.8139C2.87626 18.125 1.69024 20.6024 1.5 23.2501" stroke-width="1"></path></svg>