<svg xmlns="http://www.w3.org/2000/svg" viewBox="0 0 24 24" id="People-Woman-Glasses-6--Streamline-Ultimate"><desc>People Woman Glasses 6 Streamline Icon: https://streamlinehq.com</desc><g><path d="M17.84 19a14.78 14.78 0 0 0 3.39 -1 1.51 1.51 0 0 0 0.76 -2l-1.38 -3.21a4.48 4.48 0 0 1 -0.36 -1.77V9a8.25 8.25 0 0 0 -16.5 0v2.08a4.48 4.48 0 0 1 -0.36 1.77L2 16.06a1.51 1.51 0 0 0 0.76 2 14.78 14.78 0 0 0 3.39 1" fill="none" stroke="#000000" stroke-linecap="round" stroke-linejoin="round" stroke-width="1"></path><path d="M21.48 23.25a10.49 10.49 0 0 0 -19 0" fill="none" stroke="#000000" stroke-linecap="round" stroke-linejoin="round" stroke-width="1"></path><path d="m14.25 23.25 2.03 -5.09" fill="none" stroke="#000000" stroke-linecap="round" stroke-linejoin="round" stroke-width="1"></path><path d="m7.72 18.16 2.03 5.09" fill="none" stroke="#000000" stroke-linecap="round" stroke-linejoin="round" stroke-width="1"></path><g><path d="M17 9V8a5.17 5.17 0 0 1 -3 -1.14 7.12 7.12 0 0 1 -2 -2.66 7.12 7.12 0 0 1 -2 2.61A5.17 5.17 0 0 1 7 8v1" fill="none" stroke="#000000" stroke-linecap="round" stroke-linejoin="round" stroke-width="1"></path><path d="M7.64 13.43a5.26 5.26 0 0 0 8.72 0" fill="none" stroke="#000000" stroke-linecap="round" stroke-linejoin="round" stroke-width="1"></path></g><path d="M12 9H5.08c-0.25 1.53 0 3.46 1.73 4.33C8.93 13.87 11.33 13 12 9Z" fill="none" stroke="#000000" stroke-linecap="round" stroke-linejoin="round" stroke-width="1"></path><path d="M12 9h6.92c0.25 1.53 0 3.46 -1.73 4.33C15.07 13.87 12.67 13 12 9Z" fill="none" stroke="#000000" stroke-linecap="round" stroke-linejoin="round" stroke-width="1"></path></g></svg>