<svg viewBox="0 0 24 24" xmlns="http://www.w3.org/2000/svg" id="People-Woman-11--Streamline-Ultimate"><desc>People Woman 11 Streamline Icon: https://streamlinehq.com</desc><path d="M6.723 6a5.25 5.25 0 1 0 10.5 0 5.25 5.25 0 1 0 -10.5 0Z" fill="none" stroke="#000000" stroke-linecap="round" stroke-linejoin="round" stroke-width="1"></path><path d="m8.223 14.189 -2.25 9.061" fill="none" stroke="#000000" stroke-linecap="round" stroke-linejoin="round" stroke-width="1"></path><path d="m15.723 14.189 2.25 9.061" fill="none" stroke="#000000" stroke-linecap="round" stroke-linejoin="round" stroke-width="1"></path><path d="M17.169 6.75a10.389 10.389 0 0 0 -10.392 0" fill="none" stroke="#000000" stroke-linecap="round" stroke-linejoin="round" stroke-width="1"></path><path d="M6.776 6.75S6.723 10.5 3.723 12" fill="none" stroke="#000000" stroke-linecap="round" stroke-linejoin="round" stroke-width="1"></path><path d="M17.17 6.75s0.053 3.75 3.053 5.25" fill="none" stroke="#000000" stroke-linecap="round" stroke-linejoin="round" stroke-width="1"></path><path d="M8.223 14.189V15a3.75 3.75 0 0 0 7.5 0v-0.811" fill="none" stroke="#000000" stroke-linecap="round" stroke-linejoin="round" stroke-width="1"></path><path d="M22.446 23.25a10.5 10.5 0 0 0 -20.946 0" fill="none" stroke="#000000" stroke-linecap="round" stroke-linejoin="round" stroke-width="1"></path></svg>