<svg viewBox="0 0 24 24" xmlns="http://www.w3.org/2000/svg" id="People-Woman-Ribbon--Streamline-Ultimate"><desc>People Woman Ribbon Streamline Icon: https://streamlinehq.com</desc><path d="M21.449 23.25a10.484 10.484 0 0 0 -18.953 0" fill="none" stroke="#000000" stroke-linecap="round" stroke-linejoin="round" stroke-width="1"></path><path d="M6.776 11.25a5.25 5.25 0 0 0 10.393 0" fill="none" stroke="#000000" stroke-linecap="round" stroke-linejoin="round" stroke-width="1"></path><path d="M3.723 10.5v0.576a4.5 4.5 0 0 1 -0.364 1.773l-1.376 3.21a1.5 1.5 0 0 0 0.762 1.961 14.607 14.607 0 0 0 3.391 1.007" fill="none" stroke="#000000" stroke-linecap="round" stroke-linejoin="round" stroke-width="1"></path><path d="M17.809 19.027A14.607 14.607 0 0 0 21.2 18.02a1.5 1.5 0 0 0 0.762 -1.961l-1.376 -3.21a4.5 4.5 0 0 1 -0.363 -1.773V10.5" fill="none" stroke="#000000" stroke-linecap="round" stroke-linejoin="round" stroke-width="1"></path><path d="m17.677 0.811 -3.816 2.467a2.244 2.244 0 0 1 0 2.443l3.815 2.467a0.75 0.75 0 0 0 1.047 -0.688v-6a0.75 0.75 0 0 0 -1.046 -0.689Z" fill="none" stroke="#000000" stroke-linecap="round" stroke-linejoin="round" stroke-width="1"></path><path d="M9.723 4.5a2.231 2.231 0 0 1 0.361 -1.222L6.268 0.811a0.75 0.75 0 0 0 -1.045 0.689v6a0.75 0.75 0 0 0 1.045 0.689l3.815 -2.467a2.238 2.238 0 0 1 -0.36 -1.222Z" fill="none" stroke="#000000" stroke-linecap="round" stroke-linejoin="round" stroke-width="1"></path><path d="M9.723 4.5a2.25 2.25 0 1 0 4.5 0 2.25 2.25 0 1 0 -4.5 0Z" fill="none" stroke="#000000" stroke-linecap="round" stroke-linejoin="round" stroke-width="1"></path><path d="m9.723 23.25 -2.575 -4.834" fill="none" stroke="#000000" stroke-linecap="round" stroke-linejoin="round" stroke-width="1"></path><path d="m14.223 23.25 2.574 -4.834" fill="none" stroke="#000000" stroke-linecap="round" stroke-linejoin="round" stroke-width="1"></path></svg>