<svg viewBox="0 0 24 24" xmlns="http://www.w3.org/2000/svg" id="Beats-Studio-Logo--Streamline-Ultimate"><desc>Beats Studio Logo Streamline Icon: https://streamlinehq.com</desc><path d="M9.49 12a2.5 2.5 0 1 0 5 0 2.5 2.5 0 1 0 -5 0Z" fill="none" stroke="#000000" stroke-linecap="round" stroke-linejoin="round" stroke-width="1"></path><path d="M12 0.75A11.69 11.69 0 0 0 9.43 1v6A5.79 5.79 0 0 1 12 6.38a5.62 5.62 0 0 1 0 11.25A5.42 5.42 0 0 1 6.61 12V2.26A11.48 11.48 0 0 0 0.74 12 11.25 11.25 0 1 0 12 0.75Z" fill="none" stroke="#000000" stroke-linecap="round" stroke-linejoin="round" stroke-width="1"></path></svg>