<svg xmlns="http://www.w3.org/2000/svg" viewBox="0 0 24 24" id="Google-Podcast-Logo-3--Streamline-Ultimate"><desc>Google Podcast Logo 3 Streamline Icon: https://streamlinehq.com</desc><g><path d="M3.25 12.75a1.25 1.25 0 0 1 -2.5 0v-1.5a1.25 1.25 0 0 1 2.5 0Z" fill="none" stroke="#000000" stroke-linecap="round" stroke-linejoin="round" stroke-width="1"></path><path d="M8.25 17.75a1.25 1.25 0 0 1 -2.5 0v-1.5a1.25 1.25 0 0 1 2.5 0Z" fill="none" stroke="#000000" stroke-linecap="round" stroke-linejoin="round" stroke-width="1"></path><path d="M13.25 21.75a1.25 1.25 0 0 1 -2.5 0v-1.5a1.25 1.25 0 0 1 2.5 0Z" fill="none" stroke="#000000" stroke-linecap="round" stroke-linejoin="round" stroke-width="1"></path><path d="M13.25 3.75a1.25 1.25 0 0 1 -2.5 0v-1.5a1.25 1.25 0 0 1 2.5 0Z" fill="none" stroke="#000000" stroke-linecap="round" stroke-linejoin="round" stroke-width="1"></path><path d="M13.25 15.25a1.25 1.25 0 0 1 -2.5 0v-6.5a1.25 1.25 0 0 1 2.5 0Z" fill="none" stroke="#000000" stroke-linecap="round" stroke-linejoin="round" stroke-width="1"></path><path d="M18.25 17.75a1.25 1.25 0 0 1 -2.5 0v-5a1.25 1.25 0 0 1 2.5 0Z" fill="none" stroke="#000000" stroke-linecap="round" stroke-linejoin="round" stroke-width="1"></path><path d="M8.25 11.25a1.25 1.25 0 0 1 -2.5 0v-5a1.25 1.25 0 0 1 2.5 0Z" fill="none" stroke="#000000" stroke-linecap="round" stroke-linejoin="round" stroke-width="1"></path><path d="M18.25 7.75a1.25 1.25 0 0 1 -2.5 0v-1.5a1.25 1.25 0 0 1 2.5 0Z" fill="none" stroke="#000000" stroke-linecap="round" stroke-linejoin="round" stroke-width="1"></path><path d="M23.25 12.75a1.25 1.25 0 0 1 -2.5 0v-1.5a1.25 1.25 0 0 1 2.5 0Z" fill="none" stroke="#000000" stroke-linecap="round" stroke-linejoin="round" stroke-width="1"></path></g></svg>