<svg xmlns="http://www.w3.org/2000/svg" viewBox="0 0 24 24" id="Itunes-Logo--Streamline-Ultimate"><desc>ITunes Logo Streamline Icon: https://streamlinehq.com</desc><g><path d="M0.75 12a11.25 11.25 0 1 0 22.5 0 11.25 11.25 0 1 0 -22.5 0" fill="none" stroke="#000000" stroke-linecap="round" stroke-linejoin="round" stroke-width="1"></path><path d="m8.5 7.5 0 8" fill="none" stroke="#000000" stroke-linecap="round" stroke-linejoin="round" stroke-width="1"></path><path d="M8.5 17A1.5 1.5 0 1 1 7 15.5h1.5Z" fill="none" stroke="#000000" stroke-linecap="round" stroke-linejoin="round" stroke-width="1"></path><path d="m16.5 5 0 8" fill="none" stroke="#000000" stroke-linecap="round" stroke-linejoin="round" stroke-width="1"></path><path d="M16.5 14.5A1.5 1.5 0 1 1 15 13h1.5Z" fill="none" stroke="#000000" stroke-linecap="round" stroke-linejoin="round" stroke-width="1"></path><path d="m16.5 7.5 -8 2.5V7.5a0.67 0.67 0 0 1 0.5 -0.65l7 -2.2a0.35 0.35 0 0 1 0.33 0 0.38 0.38 0 0 1 0.15 0.3Z" fill="none" stroke="#000000" stroke-linecap="round" stroke-linejoin="round" stroke-width="1"></path></g></svg>