<svg viewBox="0 0 24 24" xmlns="http://www.w3.org/2000/svg" id="Itunes-Logo--Streamline-Ultimate"><desc>Itunes Logo Streamline Icon: https://streamlinehq.com</desc><path d="M10.13 17.39c0 1 -1 1 -2 1a1.8 1.8 0 0 1 -2 -2 1.8 1.8 0 0 1 2 -2h2Z" fill="none" stroke="#000000" stroke-linecap="round" stroke-linejoin="round" stroke-width="1"></path><path d="m10.13 15.91 0 -6.34 6.47 -3.91 0 6.34" fill="none" stroke="#000000" stroke-linecap="round" stroke-linejoin="round" stroke-width="1"></path><path d="M16.6 14.46c0 1 -1 1 -2 1a1.8 1.8 0 0 1 -2 -2 1.8 1.8 0 0 1 2 -2h2Z" fill="none" stroke="#000000" stroke-linecap="round" stroke-linejoin="round" stroke-width="1"></path><path d="M0.74 12a11.25 11.25 0 1 0 22.5 0 11.25 11.25 0 1 0 -22.5 0Z" fill="none" stroke="#000000" stroke-linecap="round" stroke-linejoin="round" stroke-width="1"></path></svg>