<svg xmlns="http://www.w3.org/2000/svg" viewBox="0 0 24 24" id="Overcast-Logo--Streamline-Ultimate"><desc>Overcast Logo Streamline Icon: https://streamlinehq.com</desc><g><path d="M0.75 12a11.25 11.25 0 1 0 22.5 0 11.25 11.25 0 1 0 -22.5 0" fill="none" stroke="#000000" stroke-linecap="round" stroke-linejoin="round" stroke-width="1"></path><path d="M10 12a2 2 0 1 0 4 0 2 2 0 1 0 -4 0" fill="none" stroke="#000000" stroke-linecap="round" stroke-linejoin="round" stroke-width="1"></path><path d="m8.58 22.72 2.87 -8.8" fill="none" stroke="#000000" stroke-linecap="round" stroke-linejoin="round" stroke-width="1"></path><path d="m10.37 17.24 5.06 5.48" fill="none" stroke="#000000" stroke-linecap="round" stroke-linejoin="round" stroke-width="1"></path><path d="m15.43 22.72 -2.88 -8.8" fill="none" stroke="#000000" stroke-linecap="round" stroke-linejoin="round" stroke-width="1"></path><path d="m13.63 17.24 -5.05 5.48" fill="none" stroke="#000000" stroke-linecap="round" stroke-linejoin="round" stroke-width="1"></path><path d="M5.67 7.11a8 8 0 0 0 0 9.78" fill="none" stroke="#000000" stroke-linecap="round" stroke-linejoin="round" stroke-width="1"></path><path d="M8.17 8.78a5 5 0 0 0 0 6.44" fill="none" stroke="#000000" stroke-linecap="round" stroke-linejoin="round" stroke-width="1"></path><path d="M18.33 7.11a8 8 0 0 1 0 9.78" fill="none" stroke="#000000" stroke-linecap="round" stroke-linejoin="round" stroke-width="1"></path><path d="M15.83 8.78a5 5 0 0 1 0 6.44" fill="none" stroke="#000000" stroke-linecap="round" stroke-linejoin="round" stroke-width="1"></path></g></svg>