<svg xmlns="http://www.w3.org/2000/svg" viewBox="0 0 24 24" id="Tunein-Logo--Streamline-Ultimate"><desc>TuneIn Logo Streamline Icon: https://streamlinehq.com</desc><g><path d="M1.75 8.58H12l0 0v10.25a1 1 0 0 1 -1 1H1.75a1 1 0 0 1 -1 -1V9.58a1 1 0 0 1 1 -1Z" fill="none" stroke="#000000" stroke-linecap="round" stroke-linejoin="round" stroke-width="1"></path><path d="M13 4.17h9.25a1 1 0 0 1 1 1v9.25a1 1 0 0 1 -1 1H12l0 0V5.17a1 1 0 0 1 1 -1Z" fill="none" stroke="#000000" stroke-linecap="round" stroke-linejoin="round" stroke-width="1"></path><path d="m4.66 12 3.43 0" fill="none" stroke="#000000" stroke-linecap="round" stroke-linejoin="round" stroke-width="1"></path><path d="m6.38 12 0 4.4" fill="none" stroke="#000000" stroke-linecap="round" stroke-linejoin="round" stroke-width="1"></path><path d="m17.62 12 0.01 -4.4" fill="none" stroke="#000000" stroke-linecap="round" stroke-linejoin="round" stroke-width="1"></path><path d="m16.89 7.6 1.47 0" fill="none" stroke="#000000" stroke-linecap="round" stroke-linejoin="round" stroke-width="1"></path><path d="m16.89 12 1.47 0" fill="none" stroke="#000000" stroke-linecap="round" stroke-linejoin="round" stroke-width="1"></path></g></svg>