<svg xmlns="http://www.w3.org/2000/svg" viewBox="0 0 24 24" id="Youtube-Music-Logo--Streamline-Ultimate"><desc>Youtube Music Logo Streamline Icon: https://streamlinehq.com</desc><g><path d="M0.75 12a11.25 11.25 0 1 0 22.5 0 11.25 11.25 0 1 0 -22.5 0" fill="none" stroke="#000000" stroke-linecap="round" stroke-linejoin="round" stroke-width="1"></path><path d="M15 11.5a0.58 0.58 0 0 1 0 1l-4.46 2.43a0.56 0.56 0 0 1 -0.56 0 0.57 0.57 0 0 1 -0.28 -0.48V9.56a0.57 0.57 0 0 1 0.3 -0.48 0.56 0.56 0 0 1 0.56 0Z" fill="none" stroke="#000000" stroke-linecap="round" stroke-linejoin="round" stroke-width="1"></path><path d="M5.5 12a6.5 6.5 0 1 0 13 0 6.5 6.5 0 1 0 -13 0" fill="none" stroke="#000000" stroke-linecap="round" stroke-linejoin="round" stroke-width="1"></path></g></svg>