<svg xmlns="http://www.w3.org/2000/svg" fill="none" viewBox="0 0 24 24" id="Blood-Bank--Streamline-Ultimate"><desc>Blood Bank Streamline Icon: https://streamlinehq.com</desc><path stroke="#000000" stroke-linecap="round" stroke-linejoin="round" d="m12.5116 10.2779 5.8453 0 0 12.8708 -8.92836 0 0 -8.2118" stroke-width="1"></path><path stroke="#000000" stroke-linecap="round" stroke-linejoin="round" d="m18.3569 15.7484 4.6929 0 0 7.4001 -4.6929 0 0 -7.4001Z" stroke-width="1"></path><path stroke="#000000" stroke-linecap="round" stroke-linejoin="round" d="m4.7356 15.7484 4.69287 0 0 7.4001 -4.69287 0 0 -7.4001Z" stroke-width="1"></path><path stroke="#000000" stroke-linecap="round" d="M13.8931 23.1485v-2.9077" stroke-width="1"></path><path stroke="#000000" stroke-linecap="round" d="M12.1414 14.8119h3.5027" stroke-width="1"></path><path stroke="#000000" stroke-linecap="round" d="m13.8926 13.0607 0 3.5028" stroke-width="1"></path><path stroke="#000000" stroke-linecap="round" stroke-linejoin="round" d="M10.2939 8.96339c0 1.13961 -0.49225 2.23241 -1.36853 3.03821 -0.87629 0.8058 -2.06478 1.2585 -3.30403 1.2585 -1.23926 0 -2.42775 -0.4527 -3.30403 -1.2585C1.44102 11.1958 0.94873 10.103 0.94873 8.96339c0 -3.65124 4.0021 -7.94795 4.67261 -7.94795 0.67051 0 4.67256 4.29671 4.67256 7.94795Z" stroke-width="1"></path></svg>