<svg xmlns="http://www.w3.org/2000/svg" fill="none" viewBox="0 0 24 24" id="Blood-Bag-Drop-2--Streamline-Ultimate"><desc>Blood Bag Drop 2 Streamline Icon: https://streamlinehq.com</desc><path stroke="#000000" stroke-linecap="round" d="m9.896 20.2708 0 2.64" stroke-width="1"></path><path stroke="#000000" stroke-linecap="round" stroke-linejoin="round" d="M12.2865 4.33417H7.50547c-0.84534 0 -1.65605 0.33581 -2.2538 0.93355 -0.59775 0.59775 -0.93355 1.40847 -0.93355 2.25381v7.96837c0 0.8454 0.3358 1.6561 0.93355 2.2538 0.59775 0.5978 1.40846 0.9336 2.2538 0.9336v1.5937h4.78103v-1.5937c0.8454 0 1.6561 -0.3358 2.2538 -0.9336 0.5978 -0.5977 0.9336 -1.4084 0.9336 -2.2538V9.82807" stroke-width="1"></path><path stroke="#000000" stroke-linecap="round" stroke-linejoin="round" d="M19.6817 5.30179c0 0.604 -0.2569 1.18327 -0.7142 1.61036 -0.4574 0.4271 -1.0776 0.66704 -1.7244 0.66704s-1.2671 -0.23994 -1.7244 -0.66704c-0.4573 -0.42709 -0.7143 -1.00636 -0.7143 -1.61036 0 -1.93528 2.0887 -4.21268 2.4387 -4.21268 0.3499 0 2.4386 2.2774 2.4386 4.21268Z" stroke-width="1"></path><path stroke="#000000" stroke-linecap="round" d="M7.2749 11.4147h5.2427" stroke-width="1"></path><path stroke="#000000" stroke-linecap="round" d="m9.896 8.79382 0 5.24268" stroke-width="1"></path></svg>