<svg xmlns="http://www.w3.org/2000/svg" fill="none" viewBox="0 0 24 24" id="Blood-Donor-2--Streamline-Ultimate"><desc>Blood Donor 2 Streamline Icon: https://streamlinehq.com</desc><path stroke="#000000" stroke-linecap="round" stroke-linejoin="round" d="m3.75 23.25 -2 -2.38c-0.64308 -0.7957 -0.9958 -1.7869 -1 -2.81v-5.17c0 -0.3978 0.158035 -0.7793 0.43934 -1.0606 0.2813 -0.2814 0.66284 -0.4394 1.06066 -0.4394v0c0.39782 0 0.77936 0.158 1.06066 0.4394 0.2813 0.2813 0.43934 0.6628 0.43934 1.0606v3.87" stroke-width="1"></path><path stroke="#000000" stroke-linecap="round" stroke-linejoin="round" d="M8.25005 23.25v-3c0.00194 -0.8905 -0.26276 -1.7612 -0.76 -2.5l-1.14 -1.75c-0.09669 -0.1665 -0.22691 -0.3111 -0.38241 -0.4246 -0.1555 -0.1135 -0.33288 -0.1935 -0.52091 -0.2348 -0.18803 -0.0414 -0.3826 -0.0433 -0.57138 -0.0055 -0.18879 0.0378 -0.36766 0.1144 -0.5253 0.2249v0c-0.28272 0.1901 -0.48643 0.4768 -0.57295 0.8063 -0.08652 0.3295 -0.04992 0.6792 0.10295 0.9837l1.35 2.25" stroke-width="1"></path><path stroke="#000000" stroke-linecap="round" stroke-linejoin="round" d="m20.25 23.25 2 -2.38c0.6431 -0.7957 0.9958 -1.7869 1 -2.81v-5.17c0 -0.3978 -0.158 -0.7793 -0.4393 -1.0606 -0.2813 -0.2814 -0.6629 -0.4394 -1.0607 -0.4394 -0.3978 0 -0.7794 0.158 -1.0607 0.4394 -0.2813 0.2813 -0.4393 0.6628 -0.4393 1.0606v3.87" stroke-width="1"></path><path stroke="#000000" stroke-linecap="round" stroke-linejoin="round" d="M15.75 23.25v-3c-0.0019 -0.8905 0.2628 -1.7612 0.76 -2.5L17.65 16c0.0967 -0.1665 0.2269 -0.3111 0.3824 -0.4246 0.1555 -0.1135 0.3329 -0.1935 0.5209 -0.2348 0.1881 -0.0414 0.3826 -0.0433 0.5714 -0.0055 0.1888 0.0378 0.3677 0.1144 0.5253 0.2249v0c0.2827 0.1901 0.4864 0.4768 0.573 0.8063 0.0865 0.3295 0.0499 0.6792 -0.103 0.9837l-1.35 2.25" stroke-width="1"></path><path stroke="#000000" stroke-linecap="round" stroke-linejoin="round" d="M16.8177 9.06522c0 1.19218 -0.5076 2.33558 -1.4111 3.17868 -0.9035 0.843 -2.1289 1.3166 -3.4067 1.3166 -1.2777 0 -2.50316 -0.4736 -3.40667 -1.3166 -0.90351 -0.8431 -1.4111 -1.9865 -1.4111 -3.17868C7.18213 5.24526 11.3086 0.75 11.9999 0.75c0.6914 0 4.8178 4.49526 4.8178 8.31522Z" stroke-width="1"></path><path stroke="#000000" stroke-linecap="round" d="M9.94312 8.33099H14.057" stroke-width="1"></path><path stroke="#000000" stroke-linecap="round" d="m11.9998 6.27411 0 4.11389" stroke-width="1"></path></svg>