<svg xmlns="http://www.w3.org/2000/svg" fill="none" viewBox="0 0 24 24" id="Transfusion-Hand-2--Streamline-Ultimate"><desc>Transfusion Hand 2 Streamline Icon: https://streamlinehq.com</desc><path stroke="#000000" stroke-linecap="round" stroke-linejoin="round" d="m2.52002 22.2559 0 -10.489 -0.867 -1.733c-0.41613 -0.83317 -0.63284 -1.75169 -0.633 -2.683l0 -3.084c0 -0.79565 0.31607 -1.55871 0.87868 -2.12132 0.56261 -0.56261 1.32567 -0.87868 2.12132 -0.87868l3.18353 -0.00002c0.79565 0 1.55871 0.31607 2.12132 0.87868 0.56261 0.56261 0.87873 1.32567 0.87873 2.12132l0 3" stroke-width="1"></path><path stroke="#000000" stroke-linecap="round" stroke-linejoin="round" d="m10.2612 16.8603 0 -5.0934 1.3892 -1.0172c0.6425 -0.4705 1.2007 -1.07787 1.4066 -1.84718 0.135 -0.50447 0.2041 -1.02607 0.2042 -1.55174l0 -0.084c0 -0.79565 -0.3161 -1.55871 -0.8787 -2.12132 -0.5626 -0.56261 -1.3837 -0.87867 -2.1794 -0.87867" stroke-width="1"></path><path stroke="#000000" stroke-linecap="round" d="m6.31836 14.2704 0 4.0313c0 2.1805 1.76769 3.9482 3.94824 3.9482v0c2.1806 0 3.9483 -1.7677 3.9483 -3.9482v-1.5359c0 -2.2092 1.7908 -4 3.9999 -4l0.1593 0c2.2091 -0.0001 4 1.7908 4 4v6.3003" stroke-width="1"></path><path stroke="#000000" stroke-linecap="round" d="M4.88843 15.9419h2.91516" stroke-width="1"></path></svg>