<svg xmlns="http://www.w3.org/2000/svg" fill="none" viewBox="0 0 24 24" id="Transfusion-Blood--Streamline-Ultimate"><desc>Transfusion Blood Streamline Icon: https://streamlinehq.com</desc><path stroke="#000000" stroke-linecap="round" d="M15.8464 9.40283h3.8606" stroke-width="1"></path><path stroke="#000000" stroke-linecap="round" d="m6.65234 9.40283 2.44428 0" stroke-width="1"></path><path stroke="#000000" stroke-linecap="round" d="m6.65234 12.3713 2.44428 0" stroke-width="1"></path><path stroke="#000000" stroke-linecap="round" d="m17.7764 7.47284 0 3.86056" stroke-width="1"></path><path stroke="#000000" stroke-linecap="round" stroke-linejoin="round" d="M7.08368 6.30096H4.06424c-0.53388 0 -1.04588 0.21208 -1.42339 0.58959 -0.3775 0.3775 -0.58958 0.88951 -0.58958 1.42338v5.03237c0 0.5339 0.21208 1.0459 0.58958 1.4234 0.37751 0.3775 0.88951 0.5896 1.42339 0.5896v1.0065h3.01944v-1.0065c0.53388 0 1.04588 -0.2121 1.42339 -0.5896 0.3775 -0.3775 0.58958 -0.8895 0.58958 -1.4234V8.31393c0 -0.53387 -0.21208 -1.04588 -0.58958 -1.42338 -0.37751 -0.37751 -0.88951 -0.58959 -1.42339 -0.58959v0Z" stroke-width="1"></path><path stroke="#000000" stroke-linecap="round" stroke-linejoin="round" d="M23.0048 10.4213c0 1.2937 -0.5508 2.5345 -1.5313 3.4493 -0.9804 0.9148 -2.3102 1.4288 -3.6968 1.4288s-2.7164 -0.514 -3.6968 -1.4288c-0.9805 -0.9148 -1.5313 -2.1556 -1.5313 -3.4493 0 -4.14531 4.4779 -9.02341 5.2281 -9.02341 0.7502 0 5.2281 4.8781 5.2281 9.02341Z" stroke-width="1"></path><path stroke="#000000" stroke-linecap="round" d="M5.57422 16.375v0.684c0 3.3696 2.7316 6.1012 6.10118 6.1012v0c3.3696 0 6.1012 -2.7316 6.1012 -6.1012v-1.7108" stroke-width="1"></path></svg>