<svg id="Transfusion-Bag-1--Streamline-Ultimate" xmlns="http://www.w3.org/2000/svg" viewBox="0 0 24 24"><desc>Transfusion Bag 1 Streamline Icon: https://streamlinehq.com</desc><defs></defs><title>transfusion-bag-1</title><path d="M7.652 20.964a10.26 10.26 0 0 1 -1.265 -0.721" fill="none" stroke="#000000" stroke-linecap="round" stroke-linejoin="round" stroke-width="1"></path><path d="M4.26 18.263a9.349 9.349 0 0 1 -0.819 -1.2" fill="none" stroke="#000000" stroke-linecap="round" stroke-linejoin="round" stroke-width="1"></path><path d="M2.379 14.356a9.457 9.457 0 0 1 -0.214 -1.44" fill="none" stroke="#000000" stroke-linecap="round" stroke-linejoin="round" stroke-width="1"></path><path d="M7.652 3.412A10.39 10.39 0 0 1 9 2.87" fill="none" stroke="#000000" stroke-linecap="round" stroke-linejoin="round" stroke-width="1"></path><path d="M11.878 2.438a11.006 11.006 0 0 1 1.452 0.12" fill="none" stroke="#000000" stroke-linecap="round" stroke-linejoin="round" stroke-width="1"></path><path d="M16.1 3.412a10.346 10.346 0 0 1 1.266 0.721" fill="none" stroke="#000000" stroke-linecap="round" stroke-linejoin="round" stroke-width="1"></path><path d="M19.5 6.112a9.641 9.641 0 0 1 0.819 1.205" fill="none" stroke="#000000" stroke-linecap="round" stroke-linejoin="round" stroke-width="1"></path><path d="M6.75 6.938a3 3 0 0 1 -6 0c0 -1.657 3 -6 3 -6s3 4.343 3 6Z" fill="none" stroke="#000000" stroke-linecap="round" stroke-linejoin="round" stroke-width="1"></path><path d="m15.82403368 11.1510379865 6.7109047789 1.9909186447s0.9587006826 0.2844169492 0.6742837334 1.243117632l-2.4175440686 8.1489558027s-0.2844169493 0.9587006827 -1.243117632 0.6742837335l-6.7109047787 -1.9909186448s-0.9587006827 -0.2844169492 -0.6742837335 -1.2431176319l2.4175440686 -8.1489558028s0.2844169493 -0.9587006827 1.243117632 -0.6742837334" fill="none" stroke="#000000" stroke-linecap="round" stroke-linejoin="round" stroke-width="1"></path><path d="m19.179 12.147 0.64 -2.157" fill="none" stroke="#000000" stroke-linecap="round" stroke-linejoin="round" stroke-width="1"></path><path d="m22.055 13 0.64 -2.157" fill="none" stroke="#000000" stroke-linecap="round" stroke-linejoin="round" stroke-width="1"></path><path d="m16.303 11.293 0.639 -2.157" fill="none" stroke="#000000" stroke-linecap="round" stroke-linejoin="round" stroke-width="1"></path><path d="m16.461 16.034 2.876 0.853" fill="none" stroke="#000000" stroke-linecap="round" stroke-linejoin="round" stroke-width="1"></path><path d="m15.607 18.91 2.877 0.854" fill="none" stroke="#000000" stroke-linecap="round" stroke-linejoin="round" stroke-width="1"></path></svg>