<svg xmlns="http://www.w3.org/2000/svg" fill="none" viewBox="0 0 24 24" id="Transfusion-Hand-Blood-1--Streamline-Ultimate"><desc>Transfusion Hand Blood 1 Streamline Icon: https://streamlinehq.com</desc><path stroke="#000000" stroke-linecap="round" stroke-linejoin="round" d="m2.46777 16.6979 0 -5.2034 -0.867 -1.73304c-0.41613 -0.83317 -0.632833 -1.75169 -0.632997 -2.683l0 -3.084c0 -0.79565 0.316067 -1.55871 0.878677 -2.12132 0.56261 -0.56261 1.32567 -0.878678 2.12132 -0.878678l3.18354 -0.00002c0.79565 0 1.55871 0.316068 2.12132 0.878678 0.56261 0.56261 0.87867 1.32567 0.87867 2.12132l0 3" stroke-width="1"></path><path stroke="#000000" stroke-linecap="round" stroke-linejoin="round" d="m10.209 16.5878 0 -5.0933 1.3892 -1.0172c0.6425 -0.4705 1.2007 -1.0779 1.4066 -1.84721 0.135 -0.50447 0.2041 -1.02607 0.2041 -1.55174l0 -0.084c0 -0.79565 -0.316 -1.55872 -0.8786 -2.12132 -0.5626 -0.56261 -1.3838 -0.86421 -2.1794 -0.86421" stroke-width="1"></path><path stroke="#000000" stroke-linecap="round" d="M6.26611 11.8995v5.9785c0 1.6569 1.34315 3 3 3h5.40039" stroke-width="1"></path><path stroke="#000000" stroke-linecap="round" d="M4.83594 14.2228H7.7511" stroke-width="1"></path><path stroke="#000000" stroke-linecap="round" d="M16.7969 16.5328h3.4101" stroke-width="1"></path><path stroke="#000000" stroke-linecap="round" d="m18.5015 14.8278 0 3.4101" stroke-width="1"></path><path stroke="#000000" stroke-linecap="round" stroke-linejoin="round" d="M20.4434 10.0601h-3.8836c-0.6867 0 -1.3452 0.2728 -1.8308 0.7583 -0.4855 0.4856 -0.7583 1.1441 -0.7583 1.8308v6.4727c0 0.6867 0.2728 1.3452 0.7583 1.8308 0.4856 0.4855 1.1441 0.7583 1.8308 0.7583v1.2946h3.8836V21.711c0.6867 0 1.3452 -0.2728 1.8308 -0.7583 0.4855 -0.4856 0.7583 -1.1441 0.7583 -1.8308v-6.4727c0 -0.6867 -0.2728 -1.3452 -0.7583 -1.8308 -0.4856 -0.4855 -1.1441 -0.7583 -1.8308 -0.7583v0Z" stroke-width="1"></path></svg>