<svg xmlns="http://www.w3.org/2000/svg" viewBox="0 0 24 24" id="Geforce-Now-Logo--Streamline-Ultimate"><desc>Geforce Now Logo Streamline Icon: https://streamlinehq.com</desc><defs></defs><title>geforce-now</title><path d="M11.125 7.25a5.051 5.051 0 0 0 -2 -0.5 6.591 6.591 0 0 0 -3.25 1 4.349 4.349 0 0 0 3.75 2c2.722 0 5.11 -1.078 6 -2.5 -0.871 -1.839 -3.041 -3.5 -6.5 -3.5 -2.5 0 -5.509 1.6 -6.5 3.75 0.659 3.377 4.039 5.25 7 5.25 5.66 0 8.16 -2.647 8.16 -2.647" fill="none" stroke="#000000" stroke-linecap="round" stroke-linejoin="round" stroke-width="1"></path><path d="m9.125 0.75 12.25 0 0 15 -12.25 0" fill="none" stroke="#000000" stroke-linecap="round" stroke-linejoin="round" stroke-width="1"></path><path d="m2.875 23.25 0 -4.5 3.5 4.5 0 -4.5" fill="none" stroke="#000000" stroke-linecap="round" stroke-linejoin="round" stroke-width="1"></path><path d="M10.375 18.75h1.5s1 0 1 1v2.5s0 1 -1 1h-1.5s-1 0 -1 -1v-2.5s0 -1 1 -1" fill="none" stroke="#000000" stroke-linecap="round" stroke-linejoin="round" stroke-width="1"></path><path d="m21.375 18.75 -1.5 4.5 -1.5 -4.5 -1.5 4.5 -1.5 -4.5" fill="none" stroke="#000000" stroke-linecap="round" stroke-linejoin="round" stroke-width="1"></path></svg>