<svg xmlns="http://www.w3.org/2000/svg" viewBox="0 0 24 24" id="Nintendo-Network-Logo-2--Streamline-Ultimate"><desc>Nintendo Network Logo 2 Streamline Icon: https://streamlinehq.com</desc><g><path d="M11.75 8.75a6 6 0 0 0 -4 1.5h-1a1 1 0 0 0 -1 1v8a1 1 0 0 0 1 1h1.5a1 1 0 0 0 1 -1v-4.5a2.5 2.5 0 0 1 5 0v4.5a1 1 0 0 0 1 1h1.5a1 1 0 0 0 1 -1v-4.5a6 6 0 0 0 -6 -6Z" fill="none" stroke="#000000" stroke-linecap="round" stroke-linejoin="round" stroke-width="1"></path><path d="M18.7 9.62A8 8 0 0 0 12 6a7.88 7.88 0 0 0 -3.33 0.73" fill="none" stroke="#000000" stroke-linecap="round" stroke-linejoin="round" stroke-width="1"></path><path d="M20.37 7.78A10 10 0 0 0 7.83 4.16" fill="none" stroke="#000000" stroke-linecap="round" stroke-linejoin="round" stroke-width="1"></path><path d="M3.75 0.75h16.5s3 0 3 3v16.5s0 3 -3 3H3.75s-3 0 -3 -3V3.75s0 -3 3 -3" fill="none" stroke="#000000" stroke-linecap="round" stroke-linejoin="round" stroke-width="1"></path></g></svg>