<svg xmlns="http://www.w3.org/2000/svg" viewBox="0 0 24 24" id="Origin-Logo--Streamline-Ultimate"><desc>Origin Logo Streamline Icon: https://streamlinehq.com</desc><g><path d="M8.75 12a3.25 3.25 0 1 0 6.5 0 3.25 3.25 0 1 0 -6.5 0" fill="none" stroke="#000000" stroke-linecap="round" stroke-linejoin="round" stroke-width="1"></path><path d="M12 3.68a8.22 8.22 0 0 0 -1 0.06 4.71 4.71 0 0 1 1 -3c-1.5 0.5 -8.5 4.41 -8.5 11.26a8.42 8.42 0 0 0 8.5 8.32 8.22 8.22 0 0 0 1 -0.06 4.71 4.71 0 0 1 -1 3c1.5 -0.49 8.5 -4.4 8.5 -11.25A8.42 8.42 0 0 0 12 3.68Z" fill="none" stroke="#000000" stroke-linecap="round" stroke-linejoin="round" stroke-width="1"></path></g></svg>