<svg viewBox="0 0 24 24" xmlns="http://www.w3.org/2000/svg" id="Camera-Settings-Flip--Streamline-Ultimate"><desc>Camera Settings Flip Streamline Icon: https://streamlinehq.com</desc><path d="M15.806 1.492A11.155 11.155 0 0 1 12 23.166" fill="none" stroke="#000000" stroke-linecap="round" stroke-linejoin="round" stroke-width="1"></path><path d="m16.5 3.75 -0.694 -2.258L18 0.75" fill="none" stroke="#000000" stroke-linecap="round" stroke-linejoin="round" stroke-width="1"></path><path d="M8.194 22.508A11.155 11.155 0 0 1 12 0.834" fill="none" stroke="#000000" stroke-linecap="round" stroke-linejoin="round" stroke-width="1"></path><path d="m7.5 20.25 0.694 2.258L6 23.25" fill="none" stroke="#000000" stroke-linecap="round" stroke-linejoin="round" stroke-width="1"></path><path d="M8.526 7.5 10.1 6h3.775l1.574 1.5h1.57a1.812 1.812 0 0 1 1.731 1.742v5.7a1.654 1.654 0 0 1 -1.731 1.558H6.981a1.654 1.654 0 0 1 -1.731 -1.554v-5.7A1.812 1.812 0 0 1 6.981 7.5h1.545" fill="none" stroke="#000000" stroke-linecap="round" stroke-linejoin="round" stroke-width="1"></path><path d="M9.75 12a2.25 2.25 0 1 0 4.5 0 2.25 2.25 0 1 0 -4.5 0Z" fill="none" stroke="#000000" stroke-linecap="round" stroke-linejoin="round" stroke-width="1"></path></svg>