<svg viewBox="0 0 24 24" xmlns="http://www.w3.org/2000/svg" id="Camera-Settings-Rotate--Streamline-Ultimate"><desc>Camera Settings Rotate Streamline Icon: https://streamlinehq.com</desc><path d="M14.935 21.093c4.787 -0.618 8.315 -2.7 8.315 -5.189 0 -1.212 -0.845 -2.327 -2.261 -3.226" fill="none" stroke="#000000" stroke-linecap="round" stroke-linejoin="round" stroke-width="1"></path><path d="M2.974 12.7A4.054 4.054 0 0 0 0.75 15.9c0 2.972 5.037 5.381 11.25 5.381" fill="none" stroke="#000000" stroke-linecap="round" stroke-linejoin="round" stroke-width="1"></path><path d="M10.043 23.241 12 21.285l-1.957 -1.957" fill="none" stroke="#000000" stroke-linecap="round" stroke-linejoin="round" stroke-width="1"></path><path d="M8.526 2.259 10.1 0.759h3.775l1.574 1.5h1.57A1.812 1.812 0 0 1 18.75 4v6.436a1.654 1.654 0 0 1 -1.731 1.554H6.981a1.654 1.654 0 0 1 -1.731 -1.553V4a1.812 1.812 0 0 1 1.731 -1.741h1.545" fill="none" stroke="#000000" stroke-linecap="round" stroke-linejoin="round" stroke-width="1"></path><path d="M9.75 6.741a2.25 2.25 0 1 0 4.5 0 2.25 2.25 0 1 0 -4.5 0Z" fill="none" stroke="#000000" stroke-linecap="round" stroke-linejoin="round" stroke-width="1"></path></svg>