<svg xmlns="http://www.w3.org/2000/svg" viewBox="0 0 24 24" id="Camera-Settings-Rotate-1--Streamline-Ultimate"><desc>Camera Settings Rotate 1 Streamline Icon: https://streamlinehq.com</desc><g><path d="m15.74 3.37 -1.5 -1.5h-4.5l-1.5 1.5h-3a1.5 1.5 0 0 0 -1.5 1.5v7.51a1.5 1.5 0 0 0 1.5 1.5h13.5a1.51 1.51 0 0 0 1.5 -1.5V4.87a1.51 1.51 0 0 0 -1.5 -1.5Z" fill="none" stroke="#000000" stroke-linecap="round" stroke-linejoin="round" stroke-width="1"></path><path d="M9.74 8.62a2.25 2.25 0 1 0 4.5 0 2.25 2.25 0 1 0 -4.5 0" fill="none" stroke="#000000" stroke-linecap="round" stroke-linejoin="round" stroke-width="1"></path><path d="M22.59 13.87a2.27 2.27 0 0 1 0.65 1.51c0 2.28 -4.25 4.16 -9.75 4.46" fill="none" stroke="#000000" stroke-linecap="round" stroke-linejoin="round" stroke-width="1"></path><path d="m7.49 16.88 1.5 3 -2.25 2.25" fill="none" stroke="#000000" stroke-linecap="round" stroke-linejoin="round" stroke-width="1"></path><path d="M1.41 13.87a2.32 2.32 0 0 0 -0.65 1.51c0 2 0.34 4.48 8.22 4.49" fill="none" stroke="#000000" stroke-linecap="round" stroke-linejoin="round" stroke-width="1"></path></g></svg>