<svg viewBox="0 0 24 24" xmlns="http://www.w3.org/2000/svg" id="Camera-Settings-Focus--Streamline-Ultimate"><desc>Camera Settings Focus Streamline Icon: https://streamlinehq.com</desc><path d="M6.75 7.125h1.307a1.5 1.5 0 0 0 1.269 -0.7l0.534 -0.848a1.5 1.5 0 0 1 1.269 -0.7h1.742a1.5 1.5 0 0 1 1.269 0.7l0.534 0.848a1.5 1.5 0 0 0 1.269 0.7h1.307a1.5 1.5 0 0 1 1.5 1.5v6.692a1.562 1.562 0 0 1 -1.558 1.558H6.808a1.562 1.562 0 0 1 -1.558 -1.558V8.625a1.5 1.5 0 0 1 1.5 -1.5Z" fill="none" stroke="#000000" stroke-linecap="round" stroke-linejoin="round" stroke-width="1"></path><path d="M9.75 11.625a2.25 2.25 0 1 0 4.5 0 2.25 2.25 0 1 0 -4.5 0Z" fill="none" stroke="#000000" stroke-linecap="round" stroke-linejoin="round" stroke-width="1"></path><path d="M0.75 4.81a2.935 2.935 0 0 1 2.935 -2.935" fill="none" stroke="#000000" stroke-linecap="round" stroke-linejoin="round" stroke-width="1"></path><path d="M0.75 19.19a2.935 2.935 0 0 0 2.935 2.935" fill="none" stroke="#000000" stroke-linecap="round" stroke-linejoin="round" stroke-width="1"></path><path d="M23.25 4.81a2.935 2.935 0 0 0 -2.935 -2.935" fill="none" stroke="#000000" stroke-linecap="round" stroke-linejoin="round" stroke-width="1"></path><path d="M23.25 19.19a2.935 2.935 0 0 1 -2.935 2.935" fill="none" stroke="#000000" stroke-linecap="round" stroke-linejoin="round" stroke-width="1"></path></svg>