<svg xmlns="http://www.w3.org/2000/svg" fill="none" viewBox="0 0 24 24" id="Front-Camera-Selfie--Streamline-Ultimate"><desc>Front Camera Selfie Streamline Icon: https://streamlinehq.com</desc><path stroke="#000000" stroke-linecap="round" stroke-linejoin="round" d="m6.50322 5.46945 2.49066 -2.37961h5.98072l2.4907 2.37961h2.4906c1.4913 0.06346 2.6811 1.26913 2.7445 2.76035v10.2165c-0.0793 1.4277 -1.3167 2.5382 -2.7445 2.4589H4.04429c-1.42777 0.0634 -2.66516 -1.0312 -2.74449 -2.4589V8.2298c0.06346 -1.49122 1.25327 -2.69689 2.74449 -2.76035h2.45893Z" stroke-width="1"></path><path stroke="#000000" stroke-linecap="round" stroke-linejoin="round" stroke-miterlimit="10" d="M8.32608 9.91211c-0.19673 0 -0.39346 0.19679 -0.39346 0.39349s0.19673 0.3934 0.39346 0.3934" stroke-width="1"></path><path stroke="#000000" stroke-linecap="round" stroke-linejoin="round" stroke-miterlimit="10" d="M8.32608 9.91211c0.19673 0 0.39346 0.19679 0.39346 0.39349s-0.19673 0.3934 -0.39346 0.3934" stroke-width="1"></path><path stroke="#000000" stroke-linecap="round" stroke-linejoin="round" stroke-miterlimit="10" d="M15.6737 9.91211c-0.1967 0 -0.3934 0.19679 -0.3934 0.39349s0.1967 0.3934 0.3934 0.3934" stroke-width="1"></path><path stroke="#000000" stroke-linecap="round" stroke-linejoin="round" stroke-miterlimit="10" d="M15.6737 9.91211c0.1968 0 0.3935 0.19679 0.3935 0.39349s-0.1967 0.3934 -0.3935 0.3934" stroke-width="1"></path><path stroke="#000000" stroke-linecap="round" stroke-linejoin="round" stroke-miterlimit="10" d="M15.9084 14.1523c-0.6514 1.5115 -2.1546 2.5696 -3.9049 2.5696 -1.7503 0 -3.25355 -1.0581 -3.90487 -2.5696" stroke-width="1"></path></svg>