<svg xmlns="http://www.w3.org/2000/svg" fill="none" viewBox="0 0 24 24" id="Live-Photos--Streamline-Ultimate"><desc>Live Photos Streamline Icon: https://streamlinehq.com</desc><path stroke="#000000" stroke-linecap="round" stroke-linejoin="round" stroke-miterlimit="10" d="M12 19.4c4.0869 0 7.4 -3.3131 7.4 -7.4 0 -4.08691 -3.3131 -7.4 -7.4 -7.4 -4.08691 0 -7.4 3.31309 -7.4 7.4 0 4.0869 3.31309 7.4 7.4 7.4Z" stroke-width="1"></path><path stroke="#000000" stroke-linecap="round" stroke-linejoin="round" stroke-miterlimit="10" d="M12 15.1c1.7121 0 3.1 -1.3879 3.1 -3.1 0 -1.7121 -1.3879 -3.1 -3.1 -3.1 -1.7121 0 -3.1 1.3879 -3.1 3.1 0 1.7121 1.3879 3.1 3.1 3.1Z" stroke-width="1"></path><path stroke="#000000" stroke-linecap="round" stroke-linejoin="round" stroke-miterlimit="10" d="M12 1.55c-0.2209 0 -0.4 -0.17909 -0.4 -0.4 0 -0.220913 0.1791 -0.4 0.4 -0.4" stroke-width="1"></path><path stroke="#000000" stroke-linecap="round" stroke-linejoin="round" stroke-miterlimit="10" d="M12 1.55c0.2209 0 0.4 -0.17909 0.4 -0.4 0 -0.220913 -0.1791 -0.4 -0.4 -0.4" stroke-width="1"></path><path stroke="#000000" stroke-linecap="round" stroke-linejoin="round" stroke-miterlimit="10" d="M12 23.25c-0.2209 0 -0.4 -0.1791 -0.4 -0.4s0.1791 -0.4 0.4 -0.4" stroke-width="1"></path><path stroke="#000000" stroke-linecap="round" stroke-linejoin="round" stroke-miterlimit="10" d="M12 23.25c0.2209 0 0.4 -0.1791 0.4 -0.4s-0.1791 -0.4 -0.4 -0.4" stroke-width="1"></path><path stroke="#000000" stroke-linecap="round" stroke-linejoin="round" stroke-miterlimit="10" d="M16.1521 2.376c-0.2209 0 -0.4 -0.17909 -0.4 -0.4 0 -0.22091 0.1791 -0.4 0.4 -0.4" stroke-width="1"></path><path stroke="#000000" stroke-linecap="round" stroke-linejoin="round" stroke-miterlimit="10" d="M16.152 2.376c0.221 0 0.4 -0.17909 0.4 -0.4 0 -0.22091 -0.179 -0.4 -0.4 -0.4" stroke-width="1"></path><path stroke="#000000" stroke-linecap="round" stroke-linejoin="round" stroke-miterlimit="10" d="M7.84788 2.376c-0.22091 0 -0.4 -0.17909 -0.4 -0.4 0 -0.22091 0.17909 -0.4 0.4 -0.4" stroke-width="1"></path><path stroke="#000000" stroke-linecap="round" stroke-linejoin="round" stroke-miterlimit="10" d="M7.84781 2.376c0.22091 0 0.4 -0.17909 0.4 -0.4 0 -0.22091 -0.17909 -0.4 -0.4 -0.4" stroke-width="1"></path><path stroke="#000000" stroke-linecap="round" stroke-linejoin="round" stroke-miterlimit="10" d="M16.1521 22.424c-0.2209 0 -0.4 -0.1791 -0.4 -0.4s0.1791 -0.4 0.4 -0.4" stroke-width="1"></path><path stroke="#000000" stroke-linecap="round" stroke-linejoin="round" stroke-miterlimit="10" d="M16.152 22.424c0.221 0 0.4 -0.1791 0.4 -0.4s-0.179 -0.4 -0.4 -0.4" stroke-width="1"></path><path stroke="#000000" stroke-linecap="round" stroke-linejoin="round" stroke-miterlimit="10" d="M7.84788 22.424c-0.22091 0 -0.4 -0.1791 -0.4 -0.4s0.17909 -0.4 0.4 -0.4" stroke-width="1"></path><path stroke="#000000" stroke-linecap="round" stroke-linejoin="round" stroke-miterlimit="10" d="M7.84781 22.424c0.22091 0 0.4 -0.1791 0.4 -0.4s-0.17909 -0.4 -0.4 -0.4" stroke-width="1"></path><path stroke="#000000" stroke-linecap="round" stroke-linejoin="round" stroke-miterlimit="10" d="M4.32789 20.0721c-0.22092 0 -0.4 -0.1791 -0.4 -0.4s0.17908 -0.4 0.4 -0.4" stroke-width="1"></path><path stroke="#000000" stroke-linecap="round" stroke-linejoin="round" stroke-miterlimit="10" d="M4.32781 20.0721c0.22092 0 0.4 -0.1791 0.4 -0.4s-0.17908 -0.4 -0.4 -0.4" stroke-width="1"></path><path stroke="#000000" stroke-linecap="round" stroke-linejoin="round" stroke-miterlimit="10" d="M1.97607 16.5521c-0.22091 0 -0.4 -0.1791 -0.4 -0.4s0.17909 -0.4 0.4 -0.4" stroke-width="1"></path><path stroke="#000000" stroke-linecap="round" stroke-linejoin="round" stroke-miterlimit="10" d="M1.976 16.5521c0.22091 0 0.4 -0.1791 0.4 -0.4s-0.17909 -0.4 -0.4 -0.4" stroke-width="1"></path><path stroke="#000000" stroke-linecap="round" stroke-linejoin="round" stroke-miterlimit="10" d="M1.15 12.4c-0.220913 0 -0.4 -0.1791 -0.4 -0.4s0.179087 -0.4 0.4 -0.4" stroke-width="1"></path><path stroke="#000000" stroke-linecap="round" stroke-linejoin="round" stroke-miterlimit="10" d="M1.14993 12.4c0.22091 0 0.4 -0.1791 0.4 -0.4s-0.17909 -0.4 -0.4 -0.4" stroke-width="1"></path><path stroke="#000000" stroke-linecap="round" stroke-linejoin="round" stroke-miterlimit="10" d="M1.97611 8.24788c-0.22091 0 -0.4 -0.17908 -0.4 -0.39999 0 -0.22092 0.17909 -0.40001 0.4 -0.40001" stroke-width="1"></path><path stroke="#000000" stroke-linecap="round" stroke-linejoin="round" stroke-miterlimit="10" d="M1.97604 8.24788c0.22091 0 0.4 -0.17908 0.4 -0.39999 0 -0.22092 -0.17909 -0.40001 -0.4 -0.40001" stroke-width="1"></path><path stroke="#000000" stroke-linecap="round" stroke-linejoin="round" stroke-miterlimit="10" d="M4.32785 4.72789c-0.22091 0 -0.4 -0.17908 -0.4 -0.4 0 -0.22091 0.17909 -0.4 0.4 -0.4" stroke-width="1"></path><path stroke="#000000" stroke-linecap="round" stroke-linejoin="round" stroke-miterlimit="10" d="M4.32777 4.72789c0.22092 0 0.40001 -0.17908 0.40001 -0.4 0 -0.22091 -0.17909 -0.4 -0.40001 -0.4" stroke-width="1"></path><path stroke="#000000" stroke-linecap="round" stroke-linejoin="round" stroke-miterlimit="10" d="M19.6719 20.0721c0.2209 0 0.4 -0.1791 0.4 -0.4s-0.1791 -0.4 -0.4 -0.4" stroke-width="1"></path><path stroke="#000000" stroke-linecap="round" stroke-linejoin="round" stroke-miterlimit="10" d="M19.672 20.0721c-0.2209 0 -0.4 -0.1791 -0.4 -0.4s0.1791 -0.4 0.4 -0.4" stroke-width="1"></path><path stroke="#000000" stroke-linecap="round" stroke-linejoin="round" stroke-miterlimit="10" d="M22.0237 16.5521c0.221 0 0.4 -0.1791 0.4 -0.4s-0.179 -0.4 -0.4 -0.4" stroke-width="1"></path><path stroke="#000000" stroke-linecap="round" stroke-linejoin="round" stroke-miterlimit="10" d="M22.0238 16.5521c-0.2209 0 -0.4 -0.1791 -0.4 -0.4s0.1791 -0.4 0.4 -0.4" stroke-width="1"></path><path stroke="#000000" stroke-linecap="round" stroke-linejoin="round" stroke-miterlimit="10" d="M22.8498 12.4c0.2209 0 0.4 -0.1791 0.4 -0.4s-0.1791 -0.4 -0.4 -0.4" stroke-width="1"></path><path stroke="#000000" stroke-linecap="round" stroke-linejoin="round" stroke-miterlimit="10" d="M22.8499 12.4c-0.2209 0 -0.4 -0.1791 -0.4 -0.4s0.1791 -0.4 0.4 -0.4" stroke-width="1"></path><path stroke="#000000" stroke-linecap="round" stroke-linejoin="round" stroke-miterlimit="10" d="M22.0237 8.24788c0.2209 0 0.4 -0.17908 0.4 -0.39999 0 -0.22092 -0.1791 -0.40001 -0.4 -0.40001" stroke-width="1"></path><path stroke="#000000" stroke-linecap="round" stroke-linejoin="round" stroke-miterlimit="10" d="M22.0238 8.24788c-0.2209 0 -0.4 -0.17908 -0.4 -0.39999 0 -0.22092 0.1791 -0.40001 0.4 -0.40001" stroke-width="1"></path><path stroke="#000000" stroke-linecap="round" stroke-linejoin="round" stroke-miterlimit="10" d="M19.672 4.72789c0.2209 0 0.4 -0.17908 0.4 -0.4 0 -0.22091 -0.1791 -0.4 -0.4 -0.4" stroke-width="1"></path><path stroke="#000000" stroke-linecap="round" stroke-linejoin="round" stroke-miterlimit="10" d="M19.672 4.72789c-0.2209 0 -0.4 -0.17908 -0.4 -0.4 0 -0.22091 0.1791 -0.4 0.4 -0.4" stroke-width="1"></path></svg>