<svg xmlns="http://www.w3.org/2000/svg" fill="none" viewBox="0 0 24 24" id="Missed-Incoming-Video-Call--Streamline-Ultimate"><desc>Missed Incoming Video Call Streamline Icon: https://streamlinehq.com</desc><path stroke="#000000" stroke-linecap="round" stroke-linejoin="round" d="M3.59082 19.499c-1.10457 0 -2 -0.8954 -2 -2l0 -10.99707c0 -1.10457 0.89543 -2 2 -2l11.21048 0c1.1045 0 2 0.89543 2 2l0 10.99707c0 1.1046 -0.8955 2 -2 2l-11.21048 0Z" stroke-width="1"></path><path stroke="#000000" stroke-linecap="round" stroke-linejoin="round" d="M17.3213 14.501c-0.3204 -0.1755 -0.5195 -0.5117 -0.5195 -0.877l0 -3.2467c0 -0.3653 0.1991 -0.70155 0.5195 -0.87706l3.6075 -1.9761c0.6664 -0.36506 1.4804 0.11718 1.4804 0.87703l0 7.19893c0 0.7598 -0.814 1.2421 -1.4804 0.877l-3.6075 -1.9761Z" stroke-width="1"></path><path stroke="#000000" stroke-linecap="round" stroke-linejoin="round" d="M9.96973 15.2236H5.84002v-4.1297" stroke-width="1"></path><path stroke="#000000" stroke-linecap="round" stroke-linejoin="round" d="M12.4834 8.56152 5.96043 15.0845" stroke-width="1"></path></svg>