<svg xmlns="http://www.w3.org/2000/svg" viewBox="0 0 24 24" id="Photo-Motion-Sensor--Streamline-Ultimate"><desc>Photo Motion Sensor Streamline Icon: https://streamlinehq.com</desc><defs></defs><path d="M20.76 9.807a3 3 0 0 1 -0.42 3.722l-5.94 5.945a4.284 4.284 0 0 1 -3.034 1.257h0a4.281 4.281 0 0 1 -3.036 -1.255L6.6 17.748a5.026 5.026 0 0 1 -1.374 -4.539l1.08 -5.4A1.291 1.291 0 0 1 7.319 6.8h0a1.288 1.288 0 0 1 1.516 1.01c0.007 0.037 0.013 0.074 0.017 0.111l0.289 2.6 4.748 -4.748a3 3 0 0 1 4.668 0.527Z" fill="none" stroke="#000000" stroke-linecap="round" stroke-linejoin="round" stroke-width="1"></path><path d="M16.853 20.269a4.116 4.116 0 0 0 3.52 -3.519" fill="none" stroke="#000000" stroke-linecap="round" stroke-linejoin="round" stroke-width="1"></path><path d="M17.33 23.25a6.925 6.925 0 0 0 5.92 -5.92" fill="none" stroke="#000000" stroke-linecap="round" stroke-linejoin="round" stroke-width="1"></path><path d="M3.627 7.25a4.116 4.116 0 0 1 3.52 -3.519" fill="none" stroke="#000000" stroke-linecap="round" stroke-linejoin="round" stroke-width="1"></path><path d="M0.75 6.67A6.925 6.925 0 0 1 6.67 0.75" fill="none" stroke="#000000" stroke-linecap="round" stroke-linejoin="round" stroke-width="1"></path><path d="m18.645 6.438 -4.929 4.929" fill="none" stroke="#000000" stroke-linecap="round" stroke-linejoin="round" stroke-width="1"></path><path d="m20.197 8.91 -4.284 4.284" fill="none" stroke="#000000" stroke-linecap="round" stroke-linejoin="round" stroke-width="1"></path></svg>