<svg xmlns="http://www.w3.org/2000/svg" fill="none" viewBox="0 0 24 24" id="Chat-Consultation-Q-A-2--Streamline-Ultimate"><desc>Chat Consultation Qanda 2 Streamline Icon: https://streamlinehq.com</desc><path stroke="#000000" stroke-linecap="round" stroke-linejoin="round" d="M23.1307 10.0182V2.5326c0 -0.45416 -0.1804 -0.88972 -0.5016 -1.21086 -0.3211 -0.32114 -0.7567 -0.50155 -1.2108 -0.50155H4.29417c-0.45416 0 -0.88972 0.18041 -1.21086 0.50155 -0.32114 0.32114 -0.50155 0.7567 -0.50155 1.21086v11.2041L0.869385 19.597l6.849605 -2.4355h1.00449" stroke-width="1"></path><path stroke="#000000" stroke-linecap="round" stroke-linejoin="round" d="M6.65796 6.33383c0 -0.38375 0.11379 -0.75888 0.32699 -1.07796 0.2132 -0.31908 0.51623 -0.56777 0.87077 -0.71462 0.35454 -0.14685 0.74466 -0.18528 1.12104 -0.11041 0.37638 0.07486 0.7221 0.25966 0.99345 0.53101 0.27139 0.27135 0.45619 0.61707 0.53099 0.99345 0.0749 0.37638 0.0365 0.7665 -0.1104 1.12104 -0.1468 0.35454 -0.39553 0.65757 -0.71461 0.87077 -0.31908 0.2132 -0.69421 0.32699 -1.07796 0.32699v1.29352" stroke-width="1"></path><path stroke="#000000" stroke-linecap="round" stroke-linejoin="round" d="M8.59804 12.1932c-0.05334 0 -0.09658 -0.0433 -0.09658 -0.0966 0 -0.0534 0.04324 -0.0966 0.09658 -0.0966" stroke-width="1"></path><path stroke="#000000" stroke-linecap="round" stroke-linejoin="round" d="M8.598 12.1932c0.05334 0 0.09658 -0.0433 0.09658 -0.0966 0 -0.0534 -0.04324 -0.0966 -0.09658 -0.0966" stroke-width="1"></path><path stroke="#000000" stroke-linecap="round" stroke-linejoin="round" d="M19.5798 11.6509h-4.1811l0 3.551h-3.551v4.1811h3.551l0 3.551 4.181 0v-3.551h3.551v-4.1811h-3.5509v-3.551Z" stroke-width="1"></path><path stroke="#000000" stroke-linecap="round" stroke-linejoin="round" d="m19.4893 4.39355 -4.8871 0" stroke-width="1"></path><path stroke="#000000" stroke-linecap="round" stroke-linejoin="round" d="M16.5784 7.8299h-1.9763" stroke-width="1"></path></svg>