<svg xmlns="http://www.w3.org/2000/svg" fill="none" viewBox="0 0 24 24" id="Diagnostic-Laptop--Streamline-Ultimate"><desc>Diagnostic Laptop Streamline Icon: https://streamlinehq.com</desc><path stroke="#000000" stroke-linecap="round" stroke-linejoin="round" d="M14.4548 1.0038h0.9409c0.2496 0 0.4889 0.09914 0.6654 0.2756 0.1764 0.17646 0.2756 0.4158 0.2756 0.66535v2.58053c0 0.99822 -0.3966 1.95555 -1.1024 2.6614 -0.7059 0.70585 -1.6632 1.10239 -2.6614 1.10239s-1.9556 -0.39654 -2.66143 -1.10239c-0.70585 -0.70585 -1.10239 -1.66318 -1.10239 -2.6614V1.94475c0 -0.24955 0.09914 -0.48889 0.2756 -0.66535s0.4158 -0.2756 0.66535 -0.2756h0.94097" stroke-width="1"></path><path stroke="#000000" stroke-linecap="round" stroke-linejoin="round" d="M21.0416 6.40725c1.0393 0 1.8819 -0.84255 1.8819 -1.88189 0 -1.03934 -0.8426 -1.8819 -1.8819 -1.8819 -1.0394 0 -1.8819 0.84256 -1.8819 1.8819s0.8425 1.88189 1.8819 1.88189Z" stroke-width="1"></path><path stroke="#000000" stroke-linecap="round" stroke-linejoin="round" d="M12.5728 8.28915v0.47048c0 1.12299 0.4461 2.19997 1.2401 2.99407 0.7941 0.7941 1.8711 1.2402 2.9941 1.2402s2.2 -0.4461 2.9941 -1.2402c0.7941 -0.7941 1.2402 -1.87108 1.2402 -2.99407V6.40726" stroke-width="1"></path><path stroke="#000000" stroke-linecap="round" stroke-linejoin="round" d="M3.62284 17.2383 0.967911 21.0417c-0.119757 0.2332 -0.17592 0.4939 -0.162827 0.7557 0.013093 0.2619 0.094978 0.5157 0.237406 0.7358 0.13434 0.2149 0.32125 0.3921 0.54307 0.5148 0.22183 0.1226 0.47125 0.1867 0.72473 0.1862H18.3592c0.2535 0.0005 0.5029 -0.0636 0.7247 -0.1862 0.2218 -0.1227 0.4087 -0.2999 0.5431 -0.5148 0.1309 -0.2268 0.1998 -0.484 0.1998 -0.7458 0 -0.2618 -0.0689 -0.519 -0.1998 -0.7457l-2.5804 -3.8034" stroke-width="1"></path><path stroke="#000000" stroke-linecap="round" stroke-linejoin="round" d="M17.0466 15.7727v1.4656H3.6228V9.78059c0 -0.39557 0.15715 -0.77495 0.43686 -1.05467 0.27972 -0.27971 0.6591 -0.43686 1.05467 -0.43686h1.93764" stroke-width="1"></path></svg>