<svg xmlns="http://www.w3.org/2000/svg" fill="none" viewBox="0 0 24 24" id="Doctor-Consultation-Video-Chat--Streamline-Ultimate"><desc>Doctor Consultation Video Chat Streamline Icon: https://streamlinehq.com</desc><path stroke="#000000" stroke-linecap="round" stroke-linejoin="round" d="M6.82623 16.2673 0.869385 18.3512l1.712375 -5.8604V2.61403c0 -0.45416 0.18041 -0.88972 0.50155 -1.21086 0.32114 -0.32114 0.7567 -0.501555 1.21086 -0.501555L17.7323 0.901611c0.4541 0 0.8897 0.180419 1.2108 0.501559 0.3212 0.32113 0.5016 0.75669 0.5016 1.21085v8.93208" stroke-width="1"></path><path stroke="#000000" stroke-linecap="round" stroke-linejoin="round" d="M18.5808 14.7968h-7.6317c-0.5 0 -0.9054 0.4053 -0.9054 0.9054v6.3381c0 0.5 0.4054 0.9054 0.9054 0.9054h7.6317c0.5001 0 0.9055 -0.4054 0.9055 -0.9054v-6.3381c0 -0.5001 -0.4054 -0.9054 -0.9055 -0.9054Z" stroke-width="1"></path><path stroke="#000000" stroke-linecap="round" stroke-linejoin="round" d="m19.4863 20.2289 3.0103 1.1288c0.0685 0.0256 0.1421 0.0343 0.2147 0.0253 0.0726 -0.009 0.1418 -0.0355 0.2019 -0.0772 0.0601 -0.0416 0.1092 -0.0972 0.1432 -0.1619 0.0339 -0.0648 0.0517 -0.1368 0.0517 -0.2099v-4.1264c-0.0001 -0.0731 -0.0179 -0.145 -0.0519 -0.2097 -0.034 -0.0647 -0.0831 -0.1202 -0.1432 -0.1617 -0.0601 -0.0416 -0.1294 -0.0679 -0.2019 -0.0768 -0.0725 -0.0089 -0.1461 -0.0001 -0.2145 0.0256l-3.0103 1.1288v2.7151Z" stroke-width="1"></path><path stroke="#000000" stroke-linecap="round" stroke-linejoin="round" d="M14.7646 17.1359v3.4707" stroke-width="1"></path><path stroke="#000000" stroke-linecap="round" stroke-linejoin="round" d="m13.0295 18.8715 3.4708 0" stroke-width="1"></path><path stroke="#000000" stroke-linecap="round" stroke-linejoin="round" d="M7.29639 12c0 -0.9355 0.37165 -1.8328 1.03319 -2.49433 0.66154 -0.66155 1.55879 -1.0332 2.49432 -1.0332 0.9356 0 1.8328 0.37165 2.4944 1.0332 0.6615 0.66153 1.0332 1.55883 1.0332 2.49433H7.29639Z" stroke-width="1"></path><path stroke="#000000" stroke-linecap="round" stroke-linejoin="round" d="M10.8241 8.47249c1.2988 0 2.3517 -1.05289 2.3517 -2.35169 0 -1.29881 -1.0529 -2.3517 -2.3517 -2.3517 -1.2988 0 -2.35169 1.05289 -2.35169 2.3517 0 1.2988 1.05289 2.35169 2.35169 2.35169Z" stroke-width="1"></path></svg>