<svg xmlns="http://www.w3.org/2000/svg" fill="none" viewBox="0 0 24 24" id="Doctor-Consultation-Chat-2--Streamline-Ultimate"><desc>Doctor Consultation Chat 2 Streamline Icon: https://streamlinehq.com</desc><path stroke="#000000" stroke-linecap="round" stroke-linejoin="round" d="M19.4447 9.32506V2.61402c0 -0.45416 -0.1804 -0.88972 -0.5016 -1.21085 -0.3211 -0.32114 -0.7567 -0.501559 -1.2108 -0.501559L4.29417 0.901615c-0.45416 0 -0.88972 0.180415 -1.21086 0.501555 -0.32114 0.32114 -0.50155 0.7567 -0.50155 1.21086v9.87677L0.869385 18.3512l6.849605 -2.4356h3.67761" stroke-width="1"></path><path stroke="#000000" stroke-linecap="round" stroke-linejoin="round" d="M12.3251 4.00195H9.24387l0 2.61686H6.62695v3.08121h2.61692l0 2.61688h3.08123V9.70002h2.6168V6.61881h-2.6168V4.00195Z" stroke-width="1"></path><path stroke="#000000" stroke-linecap="round" stroke-linejoin="round" d="M13.7214 22.9774c0 -1.2477 0.4957 -2.4443 1.378 -3.3266 0.8823 -0.8823 2.0789 -1.378 3.3267 -1.378 1.2477 0 2.4443 0.4957 3.3266 1.378 0.8823 0.8823 1.378 2.0789 1.378 3.3266h-9.4093Z" stroke-width="1"></path><path stroke="#000000" stroke-linecap="round" stroke-linejoin="round" d="M18.426 18.2728c1.7322 0 3.1364 -1.4042 3.1364 -3.1364 0 -1.7322 -1.4042 -3.1364 -3.1364 -3.1364 -1.7322 0 -3.1364 1.4042 -3.1364 3.1364 0 1.7322 1.4042 3.1364 3.1364 3.1364Z" stroke-width="1"></path></svg>