<svg xmlns="http://www.w3.org/2000/svg" fill="none" viewBox="0 0 24 24" id="First-Aid-Desktop-2--Streamline-Ultimate"><desc>First Aid Desktop 2 Streamline Icon: https://streamlinehq.com</desc><path stroke="#000000" stroke-linecap="round" stroke-linejoin="round" d="M21.9237 2.29448H1.91693c-0.46407 0 -0.84027 0.41352 -0.84027 0.92363V17.9961c0 0.5101 0.3762 0.9237 0.84027 0.9237H22.0834c0.4641 0 0.8403 -0.4136 0.8403 -0.9237V3.29448c0 -0.55228 -0.4477 -1 -1 -1Z" stroke-width="1"></path><path stroke="#000000" stroke-linecap="round" stroke-linejoin="round" d="m10.3197 18.9197 -1.68054 4.2014" stroke-width="1"></path><path stroke="#000000" stroke-linecap="round" stroke-linejoin="round" d="m13.6807 18.9197 1.6805 4.2014" stroke-width="1"></path><path stroke="#000000" stroke-linecap="round" stroke-linejoin="round" d="M6.9585 23.1211h10.0832" stroke-width="1"></path><path stroke="#000000" stroke-linecap="round" stroke-linejoin="round" d="M9.93041 8.20639c-0.13352 -0.28972 -0.208 -0.61226 -0.208 -0.9522 0 -1.25786 1.01969 -2.27757 2.27759 -2.27757 1.2578 0 2.2776 1.01971 2.2776 2.27757 0 0.33994 -0.0745 0.66248 -0.208 0.9522" stroke-width="1"></path><path stroke="#000000" stroke-linecap="round" stroke-linejoin="round" d="m8.21087 8.21051 7.57833 0c0.9449 0 1.7104 0.76709 1.7084 1.71205l-0.0091 4.36624c-0.002 0.9422 -0.7663 1.7049 -1.7085 1.7049l-7.56001 0c-0.94217 0 -1.70651 -0.7627 -1.70848 -1.7049l-0.00912 -4.36624c-0.00198 -0.94496 0.76351 -1.71205 1.70848 -1.71205Z" stroke-width="1"></path><path stroke="#000000" stroke-linecap="round" stroke-linejoin="round" d="M11.9998 10.5137V13.69" stroke-width="1"></path><path stroke="#000000" stroke-linecap="round" stroke-linejoin="round" d="m13.5876 12.1021 -3.1762 0" stroke-width="1"></path></svg>