<svg xmlns="http://www.w3.org/2000/svg" fill="none" viewBox="0 0 24 24" id="Healthcare-Website-Cross-2--Streamline-Ultimate"><desc>Healthcare Website Cross 2 Streamline Icon: https://streamlinehq.com</desc><path stroke="#000000" stroke-linecap="round" stroke-linejoin="round" d="M8.64413 21.4482H2.60616c-0.45298 0 -0.88741 -0.18 -1.20771 -0.5003 -0.32031 -0.3203 -0.500257 -0.7547 -0.500257 -1.2077V2.66052c0 -0.45299 0.179947 -0.88742 0.500257 -1.20772 0.3203 -0.32031 0.75473 -0.500255 1.20771 -0.500255H21.3938c0.453 0 0.8874 0.179945 1.2078 0.500255 0.3203 0.3203 0.5002 0.75473 0.5002 1.20772v9.10638" stroke-width="1"></path><path stroke="#000000" stroke-linecap="round" stroke-linejoin="round" d="M0.898193 6.07648H23.1018" stroke-width="1"></path><path stroke="#000000" stroke-linecap="round" stroke-linejoin="round" d="m19.3114 12.3784 -3.9535 0 0 3.3578H12v3.9536h3.3579l0 3.3576h3.9535v-3.3576h3.3576v-3.9536h-3.3576v-3.3578Z" stroke-width="1"></path><path stroke="#000000" d="M3.9916 3.71069c-0.15703 0 -0.28432 -0.1273 -0.28432 -0.28433 0 -0.15703 0.12729 -0.28433 0.28432 -0.28433" stroke-width="1"></path><path stroke="#000000" d="M3.99155 3.71069c0.15703 0 0.28433 -0.1273 0.28433 -0.28433 0 -0.15703 -0.1273 -0.28433 -0.28433 -0.28433" stroke-width="1"></path><path stroke="#000000" d="M7.01846 3.71069c-0.15703 0 -0.28433 -0.1273 -0.28433 -0.28433 0 -0.15703 0.1273 -0.28433 0.28433 -0.28433" stroke-width="1"></path><path stroke="#000000" d="M7.01841 3.71069c0.15703 0 0.28432 -0.1273 0.28432 -0.28433 0 -0.15703 -0.12729 -0.28433 -0.28432 -0.28433" stroke-width="1"></path></svg>