<svg xmlns="http://www.w3.org/2000/svg" fill="none" viewBox="0 0 24 24" id="Healthcare-Website-Cross-Heart-Rate-2--Streamline-Ultimate"><desc>Healthcare Website Cross Heart Rate 2 Streamline Icon: https://streamlinehq.com</desc><path stroke="#000000" stroke-linecap="round" stroke-linejoin="round" d="M2.60616 23.1018c-0.45298 0 -0.88741 -0.1799 -1.20771 -0.5002 -0.32031 -0.3204 -0.500257 -0.7548 -0.500257 -1.2078V2.60616c0 -0.45298 0.179947 -0.88741 0.500257 -1.20771 0.3203 -0.32031 0.75473 -0.500257 1.20771 -0.500257H21.3938c0.453 0 0.8874 0.179947 1.2078 0.500257 0.3203 0.3203 0.5002 0.75473 0.5002 1.20771V21.3938c0 0.453 -0.1799 0.8874 -0.5002 1.2078 -0.3204 0.3203 -0.7548 0.5002 -1.2078 0.5002" stroke-width="1"></path><path stroke="#000000" stroke-linecap="round" stroke-linejoin="round" d="M0.898193 6.02209H23.1018" stroke-width="1"></path><path stroke="#000000" stroke-linecap="round" stroke-linejoin="round" d="m12.0047 22.9234 -6.09385 -5.5198c-3.31189 -3.3119 1.55659 -9.67073 6.09385 -4.5263 4.5373 -5.14443 9.3837 1.2365 6.0939 4.5263l-6.0939 5.5198Z" stroke-width="1"></path><path stroke="#000000" stroke-linecap="round" stroke-linejoin="round" d="M5.40625 16.7909h3.02821l1.44003 -1.9201 1.92001 3.3601 1.4401 -1.92h1.9389" stroke-width="1"></path><path stroke="#000000" d="M3.9916 3.71069c-0.15703 0 -0.28432 -0.1273 -0.28432 -0.28433 0 -0.15703 0.12729 -0.28433 0.28432 -0.28433" stroke-width="1"></path><path stroke="#000000" d="M3.99155 3.71069c0.15703 0 0.28433 -0.1273 0.28433 -0.28433 0 -0.15703 -0.1273 -0.28433 -0.28433 -0.28433" stroke-width="1"></path><path stroke="#000000" d="M7.01846 3.71069c-0.15703 0 -0.28433 -0.1273 -0.28433 -0.28433 0 -0.15703 0.1273 -0.28433 0.28433 -0.28433" stroke-width="1"></path><path stroke="#000000" d="M7.01841 3.71069c0.15703 0 0.28432 -0.1273 0.28432 -0.28433 0 -0.15703 -0.12729 -0.28433 -0.28432 -0.28433" stroke-width="1"></path></svg>