<svg viewBox="0 0 24 24" xmlns="http://www.w3.org/2000/svg" id="Medical-App-Laptop-1--Streamline-Ultimate"><desc>Medical App Laptop 1 Streamline Icon: https://streamlinehq.com</desc><path d="M2.25 16.5v-12A1.5 1.5 0 0 1 3.75 3h16.5a1.5 1.5 0 0 1 1.5 1.5v12" fill="none" stroke="#000000" stroke-linecap="round" stroke-linejoin="round" stroke-width="1"></path><path d="M14.986 16.5a0.752 0.752 0 0 0 -0.6 0.3 2.97 2.97 0 0 1 -4.77 0 0.752 0.752 0 0 0 -0.6 -0.3H0.75V18a3 3 0 0 0 3 3h16.5a3 3 0 0 0 3 -3v-1.5Z" fill="none" stroke="#000000" stroke-linecap="round" stroke-linejoin="round" stroke-width="1"></path><path d="M15.75 9a0.75 0.75 0 0 0 -0.75 -0.75h-1.5v-1.5a0.75 0.75 0 0 0 -0.75 -0.75h-1.5a0.75 0.75 0 0 0 -0.75 0.75v1.5H9a0.75 0.75 0 0 0 -0.75 0.75v1.5a0.75 0.75 0 0 0 0.75 0.75h1.5v1.5a0.75 0.75 0 0 0 0.75 0.75h1.5a0.75 0.75 0 0 0 0.75 -0.75v-1.5H15a0.75 0.75 0 0 0 0.75 -0.75Z" fill="none" stroke="#000000" stroke-linecap="round" stroke-linejoin="round" stroke-width="1"></path></svg>