<svg xmlns="http://www.w3.org/2000/svg" fill="none" viewBox="0 0 24 24" id="Medical-App-Smartphone-Listen--Streamline-Ultimate"><desc>Medical App Smartphone Listen Streamline Icon: https://streamlinehq.com</desc><path stroke="#000000" stroke-linecap="round" stroke-linejoin="round" d="M21 19.5c1.2426 0 2.25 -1.0074 2.25 -2.25S22.2426 15 21 15s-2.25 1.0074 -2.25 2.25S19.7574 19.5 21 19.5Z" stroke-width="1"></path><path stroke="#000000" stroke-linecap="round" stroke-linejoin="round" d="M0.75 6.75v4.5c0 1.9891 0.79018 3.8968 2.1967 5.3033C4.35322 17.9598 6.26088 18.75 8.25 18.75c1.9891 0 3.8968 -0.7902 5.3033 -2.1967 1.4065 -1.4065 2.1967 -3.3142 2.1967 -5.3033v-4.5" stroke-width="1"></path><path stroke="#000000" stroke-linecap="round" stroke-linejoin="round" d="M18.75 17.25c-0.7956 0 -1.5587 0.3161 -2.1213 0.8787 -0.5626 0.5626 -0.8787 1.3257 -0.8787 2.1213 0 0.7956 -0.3161 1.5587 -0.8787 2.1213 -0.5626 0.5626 -1.3257 0.8787 -2.1213 0.8787h-1.5c-0.7956 0 -1.55871 -0.3161 -2.12132 -0.8787C8.56607 21.8087 8.25 21.0456 8.25 20.25v-1.5" stroke-width="1"></path><path stroke="#000000" stroke-linecap="round" stroke-linejoin="round" d="M11.25 0.75h-6c-0.82843 0 -1.5 0.67157 -1.5 1.5v10.5c0 0.8284 0.67157 1.5 1.5 1.5h6c0.8284 0 1.5 -0.6716 1.5 -1.5V2.25c0 -0.82843 -0.6716 -1.5 -1.5 -1.5Z" stroke-width="1"></path><path stroke="#000000" d="M8.25 11.625c-0.20711 0 -0.375 -0.1679 -0.375 -0.375s0.16789 -0.375 0.375 -0.375" stroke-width="1"></path><path stroke="#000000" d="M8.25 11.625c0.20711 0 0.375 -0.1679 0.375 -0.375s-0.16789 -0.375 -0.375 -0.375" stroke-width="1"></path></svg>