<svg xmlns="http://www.w3.org/2000/svg" fill="none" viewBox="0 0 24 24" id="Online-Medical-Laptop-Chat-1--Streamline-Ultimate"><desc>Online Medical Laptop Chat 1 Streamline Icon: https://streamlinehq.com</desc><path stroke="#000000" stroke-linecap="round" stroke-linejoin="round" d="m3.90687 18.5198 -2.00744 2.8759c-0.09055 0.1763 -0.13302 0.3734 -0.12312 0.5714 0.0099 0.198 0.07181 0.3899 0.17951 0.5563 0.10157 0.1626 0.2429 0.2965 0.41062 0.3893 0.16773 0.0927 0.35633 0.1412 0.54799 0.1408H15.0493c0.1917 0.0004 0.3803 -0.0481 0.548 -0.1408 0.1677 -0.0928 0.309 -0.2267 0.4106 -0.3893 0.099 -0.1714 0.1511 -0.3659 0.1511 -0.5638 0 -0.198 -0.0521 -0.3925 -0.1511 -0.5639l-1.951 -2.8759" stroke-width="1"></path><path stroke="#000000" stroke-linecap="round" stroke-linejoin="round" d="M14.0567 13.8996v4.6202H3.90674V12.881c0 -0.2992 0.11882 -0.586 0.33032 -0.7975 0.2115 -0.2115 0.49835 -0.3303 0.79746 -0.3303l2.86756 0" stroke-width="1"></path><path stroke="#000000" stroke-linecap="round" stroke-linejoin="round" d="m15.6171 10.4005 -4.7344 1.3527 0.6764 -4.05802V2.28445c0 -0.35876 0.1425 -0.70282 0.3962 -0.9565 0.2536 -0.25367 0.5977 -0.396187 0.9565 -0.396187h8.7924c0.3588 0 0.7028 0.142517 0.9565 0.396187 0.2537 0.25368 0.3962 0.59774 0.3962 0.9565v6.76341c0 0.35875 -0.1425 0.70281 -0.3962 0.95654 -0.2537 0.2536 -0.5977 0.3961 -0.9565 0.3961h-6.0871Z" stroke-width="1"></path><path stroke="#000000" stroke-linecap="round" stroke-linejoin="round" d="M17.4419 3.39026V7.7786" stroke-width="1"></path><path stroke="#000000" stroke-linecap="round" stroke-linejoin="round" d="m19.6357 5.58478 -4.3883 0" stroke-width="1"></path></svg>