<svg xmlns="http://www.w3.org/2000/svg" fill="none" viewBox="0 0 24 24" id="Online-Consultation-Chat-2--Streamline-Ultimate"><desc>Online Consultation Chat 2 Streamline Icon: https://streamlinehq.com</desc><path stroke="#000000" stroke-linecap="round" stroke-linejoin="round" d="m3.59745 17.2432 -2.52079 0.6386 1.68053 -5.0416V2.75707c0 -0.44571 0.17705 -0.87316 0.49221 -1.18832s0.74261 -0.49221 1.18832 -0.49221H17.8819c0.4457 0 0.8732 0.17705 1.1883 0.49221 0.3152 0.31516 0.4923 0.74261 0.4923 1.18832v2.52079" stroke-width="1"></path><path stroke="#000000" stroke-linecap="round" stroke-linejoin="round" d="m17.0417 21.2428 5.8819 1.6806 -0.8403 -5.0416 0 -7.6498c0 -0.44572 -0.177 -0.87317 -0.4922 -1.18833 -0.3152 -0.31516 -0.7426 -0.49221 -1.1883 -0.49221H9.47936c-0.44571 0 -0.87316 0.17705 -1.18832 0.49221s-0.49221 0.74261 -0.49221 1.18833l0.00001 9.3303c0 0.4457 0.17706 0.8732 0.49222 1.1883 0.31516 0.3152 0.74261 0.4922 1.18831 0.4922h7.56233Z" stroke-width="1"></path><path stroke="#000000" stroke-linecap="round" stroke-linejoin="round" d="M16.5496 11.3804h-2.9763v2.0757l-2.1568 0 0 2.9762h2.1568v2.0757h2.9763v-2.0757h1.9944l0 -2.9762 -1.9944 0v-2.0757Z" stroke-width="1"></path></svg>