<svg xmlns="http://www.w3.org/2000/svg" fill="none" viewBox="0 0 24 24" id="Online-Doctor-Phone-2--Streamline-Ultimate"><desc>Online Doctor Phone 2 Streamline Icon: https://streamlinehq.com</desc><path stroke="#000000" stroke-linecap="round" stroke-linejoin="round" d="M10.5849 1.03265H3.00394c-0.93187 0 -1.68729 0.75543 -1.68729 1.68729V21.2801c0 0.9318 0.75542 1.6873 1.68729 1.6873H16.5022c0.9319 0 1.6873 -0.7555 1.6873 -1.6873v-3.775" stroke-width="1"></path><path stroke="#000000" stroke-linecap="round" stroke-linejoin="round" d="M8.48779 19.2061h2.53091" stroke-width="1"></path><path stroke="#000000" stroke-linecap="round" stroke-linejoin="round" d="M16.7357 8.03779c1.9344 0 3.5026 -1.56815 3.5026 -3.50257 0 -1.93441 -1.5682 -3.50257 -3.5026 -3.50257 -1.9344 0 -3.5025 1.56816 -3.5025 3.50257 0 1.93442 1.5681 3.50257 3.5025 3.50257Z" stroke-width="1"></path><path stroke="#000000" stroke-linecap="round" stroke-linejoin="round" d="M10.231 14.5425c0 -1.7251 0.6853 -3.3796 1.9052 -4.59952 1.2198 -1.21988 2.8744 -1.9052 4.5995 -1.9052 1.7252 0 3.3797 0.68532 4.5996 1.9052 1.2199 1.21992 1.9052 2.87442 1.9052 4.59952" stroke-width="1"></path><path stroke="#000000" stroke-linecap="round" stroke-linejoin="round" d="M13.2332 12.735h2.8896" stroke-width="1"></path><path stroke="#000000" stroke-linecap="round" stroke-linejoin="round" d="M14.678 11.2902v2.8896" stroke-width="1"></path></svg>