<svg xmlns="http://www.w3.org/2000/svg" fill="none" viewBox="0 0 24 24" id="Online-Medical-Doctor-Chat--Streamline-Ultimate"><desc>Online Medical Doctor Chat Streamline Icon: https://streamlinehq.com</desc><path stroke="#000000" stroke-linecap="round" stroke-linejoin="round" d="M13.0448 10.4921c1.9344 0 3.5026 -1.56818 3.5026 -3.50259 0 -1.93442 -1.5682 -3.50257 -3.5026 -3.50257 -1.9344 0 -3.50256 1.56815 -3.50256 3.50257 0 1.93441 1.56816 3.50259 3.50256 3.50259Z" stroke-width="1"></path><path stroke="#000000" stroke-linecap="round" stroke-linejoin="round" d="M6.54004 16.9968c0 -1.7251 0.68532 -3.3797 1.9052 -4.5995 1.21988 -1.2199 2.87436 -1.9052 4.59956 -1.9052 1.7252 0 3.3797 0.6853 4.5996 1.9052 1.2199 1.2198 1.9052 2.8744 1.9052 4.5995" stroke-width="1"></path><path stroke="#000000" stroke-linecap="round" stroke-linejoin="round" d="M10.1553 15.1893h2.8896" stroke-width="1"></path><path stroke="#000000" stroke-linecap="round" stroke-linejoin="round" d="M11.5999 13.7444v2.8897" stroke-width="1"></path><path stroke="#000000" stroke-linecap="round" stroke-linejoin="round" d="M7.71903 21.4183 0.869385 23.1307 2.5818 17.9934V2.58174c0 -0.45416 0.18041 -0.88972 0.50155 -1.21086 0.32114 -0.32114 0.7567 -0.501556 1.21086 -0.501556H21.4183c0.4542 0 0.8897 0.180416 1.2109 0.501556 0.3211 0.32114 0.5015 0.7567 0.5015 1.21086V19.7059c0 0.4541 -0.1804 0.8897 -0.5015 1.2108 -0.3212 0.3212 -0.7567 0.5016 -1.2109 0.5016H7.71903Z" stroke-width="1"></path></svg>