<svg xmlns="http://www.w3.org/2000/svg" fill="none" viewBox="0 0 24 24" id="Online-Video-Chat--Streamline-Ultimate"><desc>Online Video Chat Streamline Icon: https://streamlinehq.com</desc><path stroke="#000000" stroke-linecap="round" stroke-linejoin="round" d="M7.71903 21.4183 0.869385 23.1307 2.5818 17.9934V2.58174c0 -0.45416 0.18041 -0.88972 0.50155 -1.21086 0.32114 -0.32114 0.7567 -0.501556 1.21086 -0.501556H21.4183c0.4542 0 0.8897 0.180416 1.2109 0.501556 0.3211 0.32114 0.5015 0.7567 0.5015 1.21086V19.7059c0 0.4541 -0.1804 0.8897 -0.5015 1.2108 -0.3212 0.3212 -0.7567 0.5016 -1.2109 0.5016H7.71903Z" stroke-width="1"></path><path stroke="#000000" stroke-linecap="round" stroke-linejoin="round" d="M15.1512 6.97183H7.51944c-0.50006 0 -0.90544 0.40538 -0.90544 0.90544v6.33813c0 0.5 0.40538 0.9054 0.90544 0.9054h7.63176c0.5 0 0.9054 -0.4054 0.9054 -0.9054V7.87727c0 -0.50006 -0.4054 -0.90544 -0.9054 -0.90544Z" stroke-width="1"></path><path stroke="#000000" stroke-linecap="round" stroke-linejoin="round" d="m16.0566 12.404 3.0103 1.1288c0.0685 0.0256 0.1422 0.0343 0.2147 0.0253 0.0726 -0.0091 0.1419 -0.0355 0.2019 -0.0772 0.0601 -0.0416 0.1093 -0.0972 0.1432 -0.162 0.0339 -0.0647 0.0517 -0.1367 0.0517 -0.2099V8.98265c-0.0001 -0.07306 -0.0179 -0.14501 -0.0519 -0.20969 -0.0339 -0.06468 -0.0831 -0.12016 -0.1432 -0.1617 -0.0601 -0.04153 -0.1294 -0.06788 -0.2019 -0.07679 -0.0725 -0.00891 -0.1461 -0.00011 -0.2145 0.02564l-3.0103 1.12878V12.404Z" stroke-width="1"></path><path stroke="#000000" stroke-linecap="round" stroke-linejoin="round" d="M11.3352 9.31094v3.47076" stroke-width="1"></path><path stroke="#000000" stroke-linecap="round" stroke-linejoin="round" d="m9.59985 11.0466 3.47075 0" stroke-width="1"></path></svg>