<svg xmlns="http://www.w3.org/2000/svg" fill="none" viewBox="0 0 24 24" id="Online-First-Aid-Phone-2--Streamline-Ultimate"><desc>Online First Aid Phone 2 Streamline Icon: https://streamlinehq.com</desc><path stroke="#000000" stroke-linecap="round" stroke-linejoin="round" d="M18.749 1.03265H5.25076c-0.93186 0 -1.68728 0.75543 -1.68728 1.68729V21.2801c0 0.9318 0.75542 1.6873 1.68728 1.6873H18.749c0.9319 0 1.6873 -0.7555 1.6873 -1.6873V2.71994c0 -0.93186 -0.7554 -1.68729 -1.6873 -1.68729Z" stroke-width="1"></path><path stroke="#000000" stroke-linecap="round" stroke-linejoin="round" d="M10.7344 19.2061h2.5309" stroke-width="1"></path><path stroke="#000000" stroke-linecap="round" stroke-linejoin="round" d="M14.0441 7.0836c0.1472 -0.30141 0.2298 -0.64014 0.2298 -0.99817 0 -1.25787 -1.0197 -2.27757 -2.2776 -2.27757 -1.2578 0 -2.27755 1.0197 -2.27755 2.27757 0 0.35803 0.08261 0.69676 0.22981 0.99817" stroke-width="1"></path><path stroke="#000000" stroke-linecap="round" stroke-linejoin="round" d="m8.20726 7.04175 7.57834 0c0.9449 0 1.7104 0.76709 1.7084 1.71205l-0.0091 4.3663c-0.002 0.9421 -0.7663 1.7049 -1.7085 1.7049l-7.56001 0c-0.94218 0 -1.70651 -0.7628 -1.70848 -1.7049l-0.00913 -4.3663c-0.00197 -0.94496 0.76352 -1.71205 1.70848 -1.71205Z" stroke-width="1"></path><path stroke="#000000" stroke-linecap="round" stroke-linejoin="round" d="M11.9961 9.34497v3.17623" stroke-width="1"></path><path stroke="#000000" stroke-linecap="round" stroke-linejoin="round" d="m13.584 10.9333 -3.1762 0" stroke-width="1"></path></svg>