<svg xmlns="http://www.w3.org/2000/svg" fill="none" viewBox="0 0 24 24" id="Online-Doctor-Laptop-Facetime--Streamline-Ultimate"><desc>Online Doctor Laptop Facetime Streamline Icon: https://streamlinehq.com</desc><path stroke="#000000" stroke-linecap="round" stroke-linejoin="round" d="m3.38099 18.4767 -2.00744 2.8759c-0.09055 0.1763 -0.13302 0.3734 -0.12312 0.5714 0.0099 0.198 0.07182 0.3899 0.17951 0.5564 0.10158 0.1625 0.2429 0.2964 0.41063 0.3892 0.16772 0.0927 0.35632 0.1412 0.54798 0.1408H14.5234c0.1917 0.0004 0.3803 -0.0481 0.548 -0.1408 0.1677 -0.0928 0.3091 -0.2267 0.4106 -0.3892 0.099 -0.1715 0.1511 -0.366 0.1511 -0.5639 0 -0.198 -0.0521 -0.3925 -0.1511 -0.5639l-1.951 -2.8759" stroke-width="1"></path><path stroke="#000000" stroke-linecap="round" stroke-linejoin="round" d="M13.5309 16.6995v1.7772H3.38086v-5.6388c0 -0.2991 0.11882 -0.586 0.33032 -0.7975 0.2115 -0.2115 0.49835 -0.3303 0.79746 -0.3303l2.86756 0" stroke-width="1"></path><path stroke="#000000" stroke-linecap="round" stroke-linejoin="round" d="M16.246 7.99464c1.9344 0 3.5025 -1.56815 3.5025 -3.50257 0 -1.93441 -1.5681 -3.502568 -3.5025 -3.502568S12.7434 2.55766 12.7434 4.49207c0 1.93442 1.5682 3.50257 3.5026 3.50257Z" stroke-width="1"></path><path stroke="#000000" stroke-linecap="round" stroke-linejoin="round" d="M9.74121 14.4994c0 -1.7252 0.68529 -3.3797 1.90519 -4.59957 1.2199 -1.21988 2.8744 -1.9052 4.5996 -1.9052 1.7252 0 3.3797 0.68532 4.5995 1.9052 1.2199 1.21987 1.9052 2.87437 1.9052 4.59957" stroke-width="1"></path><path stroke="#000000" stroke-linecap="round" stroke-linejoin="round" d="M13.3564 12.6918h2.8897" stroke-width="1"></path><path stroke="#000000" stroke-linecap="round" stroke-linejoin="round" d="M14.801 11.247v2.8897" stroke-width="1"></path></svg>