<svg xmlns="http://www.w3.org/2000/svg" fill="none" viewBox="0 0 24 24" id="Online-Consultation-Chat--Streamline-Ultimate"><desc>Online Consultation Chat Streamline Icon: https://streamlinehq.com</desc><path stroke="#000000" stroke-linecap="round" stroke-linejoin="round" d="M19.0135 10.113V2.58174c0 -0.45416 -0.1804 -0.88972 -0.5016 -1.21086 -0.3211 -0.32114 -0.7567 -0.501556 -1.2108 -0.501556H4.29413c-0.45416 0 -0.88972 0.180416 -1.21086 0.501556 -0.32114 0.32114 -0.50156 0.7567 -0.50156 1.21086L2.5818 13.5914 0.869385 18.7286l6.849645 -1.7124H8.421" stroke-width="1"></path><path stroke="#000000" stroke-linecap="round" stroke-linejoin="round" d="M13.7154 10.5969c-0.8159 -0.81595 -1.9225 -1.27433 -3.0764 -1.27433 -1.15385 0 -2.26047 0.45838 -3.07638 1.27433 -0.81591 0.8159 -1.27429 1.9225 -1.27429 3.0764H8.4618" stroke-width="1"></path><path stroke="#000000" stroke-linecap="round" stroke-linejoin="round" d="M10.6392 9.32259c1.6019 0 2.9005 -1.29858 2.9005 -2.90046 0 -1.60188 -1.2986 -2.90046 -2.9005 -2.90046 -1.60185 0 -2.90043 1.29858 -2.90043 2.90046 0 1.60188 1.29858 2.90046 2.90043 2.90046Z" stroke-width="1"></path><path stroke="#000000" stroke-linecap="round" stroke-linejoin="round" d="m18.7076 21.866 4.4888 1.2825 -0.6412 -3.8475v-5.1301c0 -0.3401 -0.1352 -0.6663 -0.3757 -0.9068 -0.2405 -0.2406 -0.5667 -0.3757 -0.9068 -0.3757h-8.7596c-0.3401 0 -0.6663 0.1351 -0.9069 0.3757 -0.2405 0.2405 -0.3756 0.5667 -0.3756 0.9068v6.4126c0 0.3402 0.1351 0.6664 0.3756 0.9069 0.2406 0.2405 0.5668 0.3756 0.9069 0.3756h6.1945Z" stroke-width="1"></path><path stroke="#000000" stroke-linecap="round" stroke-linejoin="round" d="M16.9775 15.2194v4.1607" stroke-width="1"></path><path stroke="#000000" stroke-linecap="round" stroke-linejoin="round" d="m14.8975 17.3 4.1607 0" stroke-width="1"></path></svg>