<svg xmlns="http://www.w3.org/2000/svg" fill="none" viewBox="0 0 24 24" id="Stethoscope-Website--Streamline-Ultimate"><desc>Stethoscope Website Streamline Icon: https://streamlinehq.com</desc><path stroke="#000000" stroke-linecap="round" stroke-linejoin="round" d="M2.60616 23.1018c-0.45298 0 -0.88741 -0.18 -1.20771 -0.5003 -0.32031 -0.3203 -0.500257 -0.7547 -0.500257 -1.2077V2.60615c0 -0.45298 0.179947 -0.88741 0.500257 -1.20772 0.3203 -0.32031 0.75473 -0.500252 1.20771 -0.500252H21.3938c0.453 0 0.8874 0.179942 1.2078 0.500252 0.3203 0.32031 0.5002 0.75474 0.5002 1.20772V21.3938c0 0.453 -0.1799 0.8874 -0.5002 1.2077 -0.3204 0.3203 -0.7548 0.5003 -1.2078 0.5003" stroke-width="1"></path><path stroke="#000000" stroke-linecap="round" stroke-linejoin="round" d="M0.898193 6.02208H23.1018" stroke-width="1"></path><path stroke="#000000" stroke-linecap="round" stroke-linejoin="round" d="M10.5883 9.92848h0.941c0.2495 0 0.4889 0.09912 0.6653 0.27562 0.1765 0.1764 0.2756 0.4158 0.2756 0.6653v3.7638c0 0.9982 -0.3965 1.9556 -1.1024 2.6614 -0.7058 0.7059 -1.66316 1.1024 -2.66138 1.1024 -0.99822 0 -1.95556 -0.3965 -2.6614 -1.1024 -0.70585 -0.7058 -1.10239 -1.6632 -1.10239 -2.6614v-3.7638c0 -0.2495 0.09913 -0.4889 0.27559 -0.6653 0.17647 -0.1765 0.4158 -0.27562 0.66535 -0.27562h0.94095" stroke-width="1"></path><path stroke="#000000" stroke-linecap="round" stroke-linejoin="round" d="M17.1754 16.5152c1.0393 0 1.8818 -0.8426 1.8818 -1.8819 0 -1.0394 -0.8425 -1.8819 -1.8818 -1.8819 -1.0394 0 -1.8819 0.8425 -1.8819 1.8819 0 1.0393 0.8425 1.8819 1.8819 1.8819Z" stroke-width="1"></path><path stroke="#000000" stroke-linecap="round" stroke-linejoin="round" d="M8.70654 18.3971v0.4705c0 1.1229 0.44611 2.2 1.24019 2.994 0.79407 0.7941 1.87107 1.2402 2.99407 1.2402 1.123 0 2.2 -0.4461 2.9941 -1.2402 0.7941 -0.794 1.2402 -1.8711 1.2402 -2.994v-2.3524" stroke-width="1"></path><path stroke="#000000" d="M3.9916 3.71069c-0.15703 0 -0.28432 -0.1273 -0.28432 -0.28433 0 -0.15703 0.12729 -0.28433 0.28432 -0.28433" stroke-width="1"></path><path stroke="#000000" d="M3.99155 3.71069c0.15703 0 0.28433 -0.1273 0.28433 -0.28433 0 -0.15703 -0.1273 -0.28433 -0.28433 -0.28433" stroke-width="1"></path><path stroke="#000000" d="M7.01846 3.71069c-0.15703 0 -0.28433 -0.1273 -0.28433 -0.28433 0 -0.15703 0.1273 -0.28433 0.28433 -0.28433" stroke-width="1"></path><path stroke="#000000" d="M7.01841 3.71069c0.15703 0 0.28432 -0.1273 0.28432 -0.28433 0 -0.15703 -0.12729 -0.28433 -0.28432 -0.28433" stroke-width="1"></path></svg>