<svg xmlns="http://www.w3.org/2000/svg" viewBox="0 0 24 24" id="Align-Middle--Streamline-Ultimate"><desc>Align Middle Streamline Icon: https://streamlinehq.com</desc><defs></defs><title>align-middle</title><path d="m3.75 12 -3 0" fill="none" stroke="#000000" stroke-linecap="round" stroke-linejoin="round" stroke-width="1"></path><path d="m14.25 12 -4.5 0" fill="none" stroke="#000000" stroke-linecap="round" stroke-linejoin="round" stroke-width="1"></path><path d="m23.25 12 -3 0" fill="none" stroke="#000000" stroke-linecap="round" stroke-linejoin="round" stroke-width="1"></path><path d="m9.75 3.25 0 17.5s0 1 -1 1l-4 0s-1 0 -1 -1l0 -17.5s0 -1 1 -1l4 0s1 0 1 1" fill="none" stroke="#000000" stroke-linecap="round" stroke-linejoin="round" stroke-width="1"></path><path d="m20.25 6.25 0 11.5s0 1 -1 1l-4 0s-1 0 -1 -1l0 -11.5s0 -1 1 -1l4 0s1 0 1 1" fill="none" stroke="#000000" stroke-linecap="round" stroke-linejoin="round" stroke-width="1"></path></svg>