<svg xmlns="http://www.w3.org/2000/svg" fill="none" viewBox="0 0 24 24" id="Edit-Pdf--Streamline-Ultimate"><desc>Edit Pdf Streamline Icon: https://streamlinehq.com</desc><path stroke="#000000" stroke-linecap="round" stroke-linejoin="round" d="M10.2528 20.4116H2.29456c-0.71957 0 -1.300419 -0.5809 -1.300419 -1.3005V2.20569c0 -0.71956 0.580849 -1.300417 1.300419 -1.300417H14.2988c0.3381 0 0.6675 0.130047 0.9102 0.372787l2.6009 2.49681c0.2514 0.24274 0.3901 0.58085 0.3901 0.92763v6.6302" stroke-width="1"></path><path stroke="#000000" stroke-linecap="round" stroke-linejoin="round" d="m22.5466 16.3406 -5.7471 5.5868c-0.1302 0.1266 -0.2924 0.2154 -0.4692 0.2567l-3.5516 0.8309 0.925 -3.4534c0.0467 -0.1742 0.1396 -0.3326 0.2689 -0.4583l5.789 -5.6275c0.7832 -0.7614 2.0327 -0.7526 2.8051 0.0198 0.788 0.788 0.7789 2.0683 -0.0201 2.845Z" stroke-width="1"></path><path stroke="#000000" stroke-linecap="round" stroke-linejoin="round" d="M5.70312 5.25586h6.01228" stroke-width="1"></path><path stroke="#000000" stroke-linecap="round" stroke-linejoin="round" d="M5.70312 9.46777h7.78708" stroke-width="1"></path></svg>