<svg xmlns="http://www.w3.org/2000/svg" fill="none" viewBox="0 0 24 24" id="Pdf-Reader--Streamline-Ultimate"><desc>Pdf Reader Streamline Icon: https://streamlinehq.com</desc><path stroke="#000000" stroke-linecap="round" stroke-linejoin="round" d="m4.13672 12.9034 0 -9.35591c0 -0.71957 0.58085 -1.30042 1.30042 -1.30042H17.4413c0.3381 0 0.6676 0.13004 0.9103 0.37279l2.6009 2.4968c0.2514 0.24275 0.3901 0.58086 0.3901 0.92763V20.4529c0 0.7196 -0.5809 1.3005 -1.3004 1.3005H5.43714c-0.71957 0 -1.30042 -0.5809 -1.30042 -1.3005l0 -1.9494" stroke-width="1"></path><path stroke="#000000" stroke-linecap="round" stroke-linejoin="round" d="M8.06836 6.07129h6.62304" stroke-width="1"></path><path stroke="#000000" stroke-linecap="round" stroke-linejoin="round" d="M8.06836 9.58203h8.57814" stroke-width="1"></path><path stroke="#000000" stroke-linecap="round" stroke-linejoin="round" d="M14.6914 17.3721c0 0.5523 -0.4477 1 -1 1l-10.0332 0c-0.55228 0 -1 -0.4477 -1 -1l0 -3.3468c0 -0.5523 0.44772 -1 1 -1l10.0332 0c0.5523 0 1 0.4477 1 1l0 3.3468Z" stroke-width="1"></path></svg>