<svg xmlns="http://www.w3.org/2000/svg" fill="none" viewBox="0 0 24 24" id="Pdf-Converter--Streamline-Ultimate"><desc>Pdf Converter Streamline Icon: https://streamlinehq.com</desc><path stroke="#000000" stroke-linecap="round" stroke-linejoin="round" d="M8.55032 11.546c0.38662 0 0.6987 -0.3121 0.6987 -0.6987V3.10564c0 -0.18632 -0.07453 -0.36798 -0.20961 -0.49841l-1.3974 -1.34151c-0.13043 -0.13042 -0.30743 -0.20029 -0.4891 -0.20029h-5.2794c-0.38662 0 -0.69871 0.31209 -0.69871 0.6987v9.08317c0 0.3866 0.31209 0.6987 0.69871 0.6987h6.67681Z" stroke-width="1"></path><path stroke="#000000" stroke-linecap="round" stroke-linejoin="round" d="M22.1265 22.9346c0.3866 0 0.6987 -0.312 0.6987 -0.6987v-7.7416c0 -0.1863 -0.0745 -0.368 -0.2096 -0.4984l-1.3974 -1.3415c-0.1304 -0.1304 -0.3075 -0.2003 -0.4891 -0.2003h-5.2794c-0.3866 0 -0.6987 0.3121 -0.6987 0.6987v9.0831c0 0.3867 0.3121 0.6987 0.6987 0.6987h6.6768Z" stroke-width="1"></path><path stroke="#000000" stroke-linecap="round" stroke-linejoin="round" d="m18.0811 6.77051 2.3207 2.3209 2.3209 -2.3209" stroke-width="1"></path><path stroke="#000000" stroke-linecap="round" stroke-linejoin="round" d="m5.86816 17.2295 -2.32074 -2.3209 -2.3209 2.3209" stroke-width="1"></path><path stroke="#000000" stroke-linecap="round" stroke-linejoin="round" d="M14.751 1.06543h1.6504c2.2091 0 4 1.79086 4 4v4.02622" stroke-width="1"></path><path stroke="#000000" stroke-linecap="round" stroke-linejoin="round" d="m9.19824 22.9346 -1.65039 0c-2.20914 0 -4 -1.7909 -4 -4l0 -4.0263" stroke-width="1"></path></svg>