<svg xmlns="http://www.w3.org/2000/svg" fill="none" viewBox="0 0 24 24" id="Rotate-Pdf-Page--Streamline-Ultimate"><desc>Rotate Pdf Page Streamline Icon: https://streamlinehq.com</desc><path stroke="#000000" stroke-linecap="round" stroke-linejoin="round" d="M14.9015 22.666c0.5718 0 1.0333 -0.4616 1.0333 -1.0334V9.18294c0 -0.27556 -0.1102 -0.54423 -0.31 -0.73713l-2.0667 -1.98405c-0.1929 -0.1929 -0.4547 -0.29623 -0.7233 -0.29623H2.50114c-0.5718 0 -1.03337 0.46157 -1.03337 1.03336V21.6326c0 0.5718 0.46157 1.0334 1.03337 1.0334H14.9015Z" stroke-width="1"></path><path stroke="#000000" stroke-linecap="round" stroke-linejoin="round" d="m17.8896 7.03955 2.3208 2.32091 2.3209 -2.32091" stroke-width="1"></path><path stroke="#000000" stroke-linecap="round" stroke-linejoin="round" d="M14.5596 1.33447H16.21c2.2091 0 4 1.79086 4 4v4.02622" stroke-width="1"></path><path stroke="#000000" stroke-linecap="round" stroke-linejoin="round" d="M4.80762 10.2036h6.01228" stroke-width="1"></path><path stroke="#000000" stroke-linecap="round" stroke-linejoin="round" d="M4.80762 14.4155h7.78708" stroke-width="1"></path></svg>