<svg viewBox="0 0 24 24" xmlns="http://www.w3.org/2000/svg" id="Reception-Desk--Streamline-Ultimate"><desc>Reception Desk Streamline Icon: https://streamlinehq.com</desc><path d="M5.25 18.75h-3a1.5 1.5 0 0 1 -1.5 -1.5v-1.5a1.5 1.5 0 0 1 1.5 -1.5h19.5a1.5 1.5 0 0 1 1.5 1.5v1.5a1.5 1.5 0 0 1 -1.5 1.5h-3" fill="none" stroke="#000000" stroke-linecap="round" stroke-linejoin="round" stroke-width="1"></path><path d="M15 23.25H9a0.75 0.75 0 0 1 -0.75 -0.75v-8.25h7.5v8.25a0.75 0.75 0 0 1 -0.75 0.75Z" fill="none" stroke="#000000" stroke-linecap="round" stroke-linejoin="round" stroke-width="1"></path><path d="m2.25 18.75 0 4.5" fill="none" stroke="#000000" stroke-linecap="round" stroke-linejoin="round" stroke-width="1"></path><path d="m21.75 18.75 0 4.5" fill="none" stroke="#000000" stroke-linecap="round" stroke-linejoin="round" stroke-width="1"></path><path d="m8.25 20.25 7.5 0" fill="none" stroke="#000000" stroke-linecap="round" stroke-linejoin="round" stroke-width="1"></path><path d="M6.75 6a5.25 5.25 0 1 0 10.5 0 5.25 5.25 0 1 0 -10.5 0Z" fill="none" stroke="#000000" stroke-linecap="round" stroke-linejoin="round" stroke-width="1"></path><path d="M2.25 11.25h3v3h-3z" fill="none" stroke="#000000" stroke-linecap="round" stroke-linejoin="round" stroke-width="1"></path><path d="M18.75 9.75h3v4.5h-3z" fill="none" stroke="#000000" stroke-linecap="round" stroke-linejoin="round" stroke-width="1"></path></svg>