<svg xmlns="http://www.w3.org/2000/svg" viewBox="0 0 24 24" id="Reception-Pay--Streamline-Ultimate"><desc>Reception Pay Streamline Icon: https://streamlinehq.com</desc><g><g><path d="M14.62 3.37a2.63 2.63 0 1 0 5.26 0 2.63 2.63 0 1 0 -5.26 0" fill="none" stroke="#000000" stroke-linecap="round" stroke-linejoin="round" stroke-width="1"></path><path d="m17.25 19.5 0 3.75" fill="none" stroke="#000000" stroke-linecap="round" stroke-linejoin="round" stroke-width="1"></path><path d="M20.25 23.25V15a1.5 1.5 0 0 0 3 0v-3a4.49 4.49 0 0 0 -4.5 -4.5H16.1a4.49 4.49 0 0 0 -4 2.49A3.05 3.05 0 0 1 9 12a1.5 1.5 0 0 0 0 3 6 6 0 0 0 5.25 -2.75v11" fill="none" stroke="#000000" stroke-linecap="round" stroke-linejoin="round" stroke-width="1"></path><path d="m20.25 15 0 -3" fill="none" stroke="#000000" stroke-linecap="round" stroke-linejoin="round" stroke-width="1"></path></g><path d="M2.25 4.5a2.25 2.25 0 1 0 4.5 0 2.25 2.25 0 1 0 -4.5 0" fill="none" stroke="#000000" stroke-linecap="round" stroke-linejoin="round" stroke-width="1"></path><path d="M0.75 11.25a3 3 0 0 1 3 -3h1.5a3 3 0 0 1 3 3v0.95" fill="none" stroke="#000000" stroke-linecap="round" stroke-linejoin="round" stroke-width="1"></path><path d="m0.75 14.25 6.95 0" fill="none" stroke="#000000" stroke-linecap="round" stroke-linejoin="round" stroke-width="1"></path><path d="m2.25 23.25 0 -9" fill="none" stroke="#000000" stroke-linecap="round" stroke-linejoin="round" stroke-width="1"></path><path d="M6.75 23.25h1.5a1.5 1.5 0 0 0 0 -3 1.5 1.5 0 0 1 0 -3h1.5" fill="none" stroke="#000000" stroke-linecap="round" stroke-linejoin="round" stroke-width="1"></path><path d="m8.25 17.25 0 -0.75" fill="none" stroke="#000000" stroke-linecap="round" stroke-linejoin="round" stroke-width="1"></path></g></svg>