<svg viewBox="0 0 24 24" xmlns="http://www.w3.org/2000/svg" id="Reception-Hotel--Streamline-Ultimate"><desc>Reception Hotel Streamline Icon: https://streamlinehq.com</desc><path d="M16.875 3.75a2.625 2.625 0 1 0 5.25 0 2.625 2.625 0 1 0 -5.25 0Z" fill="none" stroke="#000000" stroke-linecap="round" stroke-linejoin="round" stroke-width="1"></path><path d="M17.25 21a2.25 2.25 0 0 0 4.5 0v-3.75a1.5 1.5 0 0 0 1.5 -1.5v-4.5a3 3 0 0 0 -3 -3h-1.5a3 3 0 0 0 -3 3v4.5a1.5 1.5 0 0 0 1.5 1.5Z" fill="none" stroke="#000000" stroke-linecap="round" stroke-linejoin="round" stroke-width="1"></path><path d="M3.375 0.75v3a2.625 2.625 0 0 0 5.25 0v-3Z" fill="none" stroke="#000000" stroke-linecap="round" stroke-linejoin="round" stroke-width="1"></path><path d="M9.75 11.25a3 3 0 0 0 -3 -3h-1.5a3 3 0 0 0 -3 3" fill="none" stroke="#000000" stroke-linecap="round" stroke-linejoin="round" stroke-width="1"></path><path d="M12.75 14.25h-9a3 3 0 0 0 -3 3v6" fill="none" stroke="#000000" stroke-linecap="round" stroke-linejoin="round" stroke-width="1"></path><path d="m5.25 17.25 0 4.5" fill="none" stroke="#000000" stroke-linecap="round" stroke-linejoin="round" stroke-width="1"></path><path d="m8.25 17.25 0 4.5" fill="none" stroke="#000000" stroke-linecap="round" stroke-linejoin="round" stroke-width="1"></path><path d="m5.25 19.5 3 0" fill="none" stroke="#000000" stroke-linecap="round" stroke-linejoin="round" stroke-width="1"></path><path d="m3.375 3.75 5.25 0" fill="none" stroke="#000000" stroke-linecap="round" stroke-linejoin="round" stroke-width="1"></path></svg>