<svg xmlns="http://www.w3.org/2000/svg" viewBox="0 0 24 24" id="Keyboard-Wireless-2--Streamline-Ultimate"><desc>Keyboard Wireless 2 Streamline Icon: https://streamlinehq.com</desc><defs></defs><title>keyboard-wireless-2</title><path d="M15.167 7.572a6.5 6.5 0 0 0 -6.329 0" fill="none" stroke="#000000" stroke-linecap="round" stroke-linejoin="round" stroke-width="1"></path><path d="M16.747 4.986a9.724 9.724 0 0 0 -9.489 0" fill="none" stroke="#000000" stroke-linecap="round" stroke-linejoin="round" stroke-width="1"></path><path d="M18.31 2.429a12.687 12.687 0 0 0 -12.615 0" fill="none" stroke="#000000" stroke-linecap="round" stroke-linejoin="round" stroke-width="1"></path><path d="M1.502 11.25h21s0.75 0 0.75 0.75v10.5s0 0.75 -0.75 0.75h-21s-0.75 0 -0.75 -0.75V12s0 -0.75 0.75 -0.75" fill="none" stroke="#000000" stroke-linecap="round" stroke-linejoin="round" stroke-width="1"></path><path d="m4.502 17.25 15 0" fill="none" stroke="#000000" stroke-linecap="round" stroke-linejoin="round" stroke-width="1"></path><path d="m4.502 14.25 15 0" fill="none" stroke="#000000" stroke-linecap="round" stroke-linejoin="round" stroke-width="1"></path><path d="m5.252 23.25 0 -3 13.5 0 0 3" fill="none" stroke="#000000" stroke-linecap="round" stroke-linejoin="round" stroke-width="1"></path></svg>