<svg xmlns="http://www.w3.org/2000/svg" fill="none" viewBox="0 0 24 24" id="Middle-Click-Mouse--Streamline-Ultimate"><desc>Middle Click Mouse Streamline Icon: https://streamlinehq.com</desc><path stroke="#000000" stroke-linecap="round" stroke-linejoin="round" d="M11.9995 4.55786c3.4672 0 6.2778 2.81067 6.2778 6.27784v5.6967c0 3.4672 -2.8106 6.2778 -6.2778 6.2778 -3.46708 0 -6.27774 -2.8106 -6.27774 -6.2778v-5.6967c0 -3.46717 2.81066 -6.27784 6.27774 -6.27784Z" stroke-width="1"></path><path stroke="#000000" stroke-linecap="round" stroke-linejoin="round" d="M7.39965 2.41211c1.3552 -0.77773 2.92595 -1.22241 4.60045 -1.22241 1.6746 0 3.2453 0.44468 4.6005 1.22241" stroke-width="1"></path><path stroke="#000000" stroke-linecap="round" stroke-linejoin="round" d="M12.0006 7.41716c0.8065 0 1.4603 0.6538 1.4603 1.46031l-0.0001 2.79473c0 0.8065 -0.6538 1.4603 -1.4603 1.4603 -0.8065 0 -1.4603 -0.6538 -1.4603 -1.4603l0.0001 -2.79473c0 -0.80651 0.6538 -1.46031 1.4603 -1.46031Z" stroke-width="1"></path></svg>