<svg viewBox="0 0 24 24" xmlns="http://www.w3.org/2000/svg" id="Mouse--Streamline-Ultimate"><desc>Mouse Streamline Icon: https://streamlinehq.com</desc><path d="M6.75 23.25h0a6 6 0 0 1 -6 -6v-6a6 6 0 0 1 6 -6h0a6 6 0 0 1 6 6v6a6 6 0 0 1 -6 6Z" fill="none" stroke="#000000" stroke-linecap="round" stroke-linejoin="round" stroke-width="1"></path><path d="m0.75 12.75 12 0" fill="none" stroke="#000000" stroke-linecap="round" stroke-linejoin="round" stroke-width="1"></path><path d="M6.75 12.75v-7.5h0a4.5 4.5 0 0 1 4.5 -4.5h0a4.5 4.5 0 0 1 4.5 4.5V7.5a3.75 3.75 0 0 0 3.75 3.75h0a3.75 3.75 0 0 0 3.75 -3.75V0.75" fill="none" stroke="#000000" stroke-linecap="round" stroke-linejoin="round" stroke-width="1"></path></svg>