<svg viewBox="0 0 24 24" xmlns="http://www.w3.org/2000/svg" id="Touchpad--Streamline-Ultimate"><desc>Touchpad Streamline Icon: https://streamlinehq.com</desc><path d="M14.62 2.342a7.155 7.155 0 0 0 -9 0" fill="none" stroke="#000000" stroke-linecap="round" stroke-linejoin="round" stroke-width="1"></path><path d="M7.5 5.136a4.177 4.177 0 0 1 5.25 0" fill="none" stroke="#000000" stroke-linecap="round" stroke-linejoin="round" stroke-width="1"></path><path d="m8.62 23.23 -4.5 0.016a1.5 1.5 0 0 1 -1.5 -1.5v-12a1.5 1.5 0 0 1 1.5 -1.5h14.25a1.5 1.5 0 0 1 1.5 1.5v2.98" fill="none" stroke="#000000" stroke-linecap="round" stroke-linejoin="round" stroke-width="1"></path><path d="m13.87 23.23 -2.929 -2.344a1.638 1.638 0 0 1 -0.566 -1.676h0a1.637 1.637 0 0 1 2.325 -1.067l1.174 0.587v-5.25a1.5 1.5 0 0 1 1.5 -1.5h0a1.5 1.5 0 0 1 1.5 1.5v3l1.993 0.332a3 3 0 0 1 2.507 2.959v3.459" fill="none" stroke="#000000" stroke-linecap="round" stroke-linejoin="round" stroke-width="1"></path><path d="m2.62 12.73 9 0" fill="none" stroke="#000000" stroke-linecap="round" stroke-linejoin="round" stroke-width="1"></path></svg>