<svg xmlns="http://www.w3.org/2000/svg" viewBox="0 0 24 24" id="Bed-Single--Streamline-Ultimate"><desc>Bed Single Streamline Icon: https://streamlinehq.com</desc><g><path d="M5.25 16.5a2.25 2.25 0 1 0 4.5 0 2.25 2.25 0 1 0 -4.5 0" fill="none" stroke="#000000" stroke-linecap="round" stroke-linejoin="round" stroke-width="1"></path><path d="M12 14.25h8.5a2 2 0 0 1 2 2v2.5l0 0H12l0 0v-4.5l0 0Z" fill="none" stroke="#000000" stroke-linecap="round" stroke-linejoin="round" stroke-width="1"></path><path d="M1.5 18.75h21v4.5h-21Z" fill="none" stroke="#000000" stroke-linecap="round" stroke-linejoin="round" stroke-width="1"></path><path d="m1.5 23.25 0 -9" fill="none" stroke="#000000" stroke-linecap="round" stroke-linejoin="round" stroke-width="1"></path><path d="M20.14 5.91a0.71 0.71 0 0 1 -0.14 0.59 0.73 0.73 0 0 1 -0.56 0.25H15.1a0.73 0.73 0 0 1 -0.56 -0.25 0.71 0.71 0 0 1 -0.18 -0.59l0.56 -4.5a0.74 0.74 0 0 1 0.74 -0.66h3.18a0.74 0.74 0 0 1 0.74 0.66Z" fill="none" stroke="#000000" stroke-linecap="round" stroke-linejoin="round" stroke-width="1"></path><path d="m17.25 6.75 0 4.5" fill="none" stroke="#000000" stroke-linecap="round" stroke-linejoin="round" stroke-width="1"></path></g></svg>