<svg viewBox="0 0 24 24" xmlns="http://www.w3.org/2000/svg" id="Champagne-Cooler--Streamline-Ultimate"><desc>Champagne Cooler Streamline Icon: https://streamlinehq.com</desc><path d="m5.98 11.25 4.227 -4.977A4.5 4.5 0 0 1 14.026 5l1.484 0.212L19.753 0.97a0.749 0.749 0 0 1 1.06 0l1.061 1.06a0.75 0.75 0 0 1 0 1.061l-4.243 4.243 0.212 1.484a6.848 6.848 0 0 1 -0.13 2.432" fill="none" stroke="#000000" stroke-linecap="round" stroke-linejoin="round" stroke-width="1"></path><path d="m18.162 2.561 2.121 2.121" fill="none" stroke="#000000" stroke-linecap="round" stroke-linejoin="round" stroke-width="1"></path><path d="m20.2 13.465 0.378 -1.335a0.75 0.75 0 0 0 -0.738 -0.88H3.469a0.75 0.75 0 0 0 -0.739 0.88l0.378 1.335" fill="none" stroke="#000000" stroke-linecap="round" stroke-linejoin="round" stroke-width="1"></path><path d="m5.656 14.392 -3.75 4.358" fill="none" stroke="#000000" stroke-linecap="round" stroke-linejoin="round" stroke-width="1"></path><path d="m17.531 14.392 3.75 4.358" fill="none" stroke="#000000" stroke-linecap="round" stroke-linejoin="round" stroke-width="1"></path><path d="m4.916 19.1 0.826 2.915a1.5 1.5 0 0 0 1.477 1.235h8.875a1.5 1.5 0 0 0 1.477 -1.239L18.4 19.1" fill="none" stroke="#000000" stroke-linecap="round" stroke-linejoin="round" stroke-width="1"></path></svg>