<svg viewBox="0 0 24 24" xmlns="http://www.w3.org/2000/svg" id="Champagne-Bottle--Streamline-Ultimate"><desc>Champagne Bottle Streamline Icon: https://streamlinehq.com</desc><path d="M15 10.125a24.921 24.921 0 0 1 -1.5 -8.514V1.5a0.75 0.75 0 0 0 -0.75 -0.75h-1.5a0.75 0.75 0 0 0 -0.75 0.75v0.111A24.921 24.921 0 0 1 9 10.125h0a24.921 24.921 0 0 0 -1.5 8.514v3.111a1.5 1.5 0 0 0 1.5 1.5h6a1.5 1.5 0 0 0 1.5 -1.5v-3.111a24.921 24.921 0 0 0 -1.5 -8.514Z" fill="none" stroke="#000000" stroke-linecap="round" stroke-linejoin="round" stroke-width="1"></path><path d="M15.466 11.537a5.558 5.558 0 0 1 -6.932 0" fill="none" stroke="#000000" stroke-linecap="round" stroke-linejoin="round" stroke-width="1"></path><path d="M10.5 18a1.5 1.5 0 1 0 3 0 1.5 1.5 0 1 0 -3 0Z" fill="none" stroke="#000000" stroke-linecap="round" stroke-linejoin="round" stroke-width="1"></path><path d="m10.408 3.75 3.184 0" fill="none" stroke="#000000" stroke-linecap="round" stroke-linejoin="round" stroke-width="1"></path></svg>