<svg xmlns="http://www.w3.org/2000/svg" fill="none" viewBox="0 0 24 24" id="Champagne-Glass--Streamline-Ultimate"><desc>Champagne Glass Streamline Icon: https://streamlinehq.com</desc><path stroke="#000000" stroke-linecap="round" stroke-linejoin="round" d="M9 23.25h6" stroke-width="1"></path><path stroke="#000000" stroke-linecap="round" stroke-linejoin="round" d="M12 23.25v-6" stroke-width="1"></path><path stroke="#000000" stroke-linecap="round" stroke-linejoin="round" d="M14.344 16.54c-0.694 0.4631 -1.5096 0.7103 -2.344 0.7103 -0.8343 0 -1.65 -0.2472 -2.34397 -0.7103 -0.64934 -0.432 -1.16643 -1.0353 -1.49401 -1.743 -0.32758 -0.7078 -0.45287 -1.4924 -0.36199 -2.267L8.93102 1.424c0.01906 -0.18486 0.10598 -0.35609 0.24395 -0.480583C9.31295 0.818924 9.49219 0.75001 9.67803 0.75H14.322c0.1859 0.00001 0.3651 0.068924 0.5031 0.193417s0.2249 0.295723 0.2439 0.480583L16.2 12.53c0.0909 0.7746 -0.0344 1.5592 -0.362 2.267 -0.3276 0.7077 -0.8446 1.311 -1.494 1.743v0Z" stroke-width="1"></path><path stroke="#000000" stroke-linecap="round" stroke-linejoin="round" d="M8.39001 6.75H15.61" stroke-width="1"></path><path stroke="#000000" d="M10.875 9.75c-0.2071 0 -0.375 -0.16789 -0.375 -0.375S10.6679 9 10.875 9" stroke-width="1"></path><path stroke="#000000" d="M10.875 9.75c0.2071 0 0.375 -0.16789 0.375 -0.375S11.0821 9 10.875 9" stroke-width="1"></path><path stroke="#000000" d="M13.125 12c-0.2071 0 -0.375 -0.1679 -0.375 -0.375s0.1679 -0.375 0.375 -0.375" stroke-width="1"></path><path stroke="#000000" d="M13.125 12c0.2071 0 0.375 -0.1679 0.375 -0.375s-0.1679 -0.375 -0.375 -0.375" stroke-width="1"></path><g><path stroke="#000000" d="M10.875 14.25c-0.2071 0 -0.375 -0.1679 -0.375 -0.375s0.1679 -0.375 0.375 -0.375" stroke-width="1"></path><path stroke="#000000" d="M10.875 14.25c0.2071 0 0.375 -0.1679 0.375 -0.375s-0.1679 -0.375 -0.375 -0.375" stroke-width="1"></path></g></svg>