<svg xmlns="http://www.w3.org/2000/svg" fill="none" viewBox="0 0 24 24" id="Champagne-Cheers--Streamline-Ultimate"><desc>Champagne Cheers Streamline Icon: https://streamlinehq.com</desc><path stroke="#000000" stroke-linecap="round" stroke-linejoin="round" d="m1.50366 21.5269 5.507 1.6794" stroke-width="1"></path><path stroke="#000000" stroke-linecap="round" stroke-linejoin="round" d="m4.2572 22.3662 1.68342 -5.52" stroke-width="1"></path><path stroke="#000000" stroke-linecap="round" stroke-linejoin="round" d="M8.33414 16.8506c-0.76607 0.2396 -1.58658 0.2425 -2.35431 0.0083 -0.76773 -0.2341 -1.44698 -0.6944 -1.94897 -1.3207v0c-0.47357 -0.5929 -0.77587 -1.304 -0.87414 -2.0564 -0.09827 -0.7524 0.01124 -1.5174 0.31666 -2.212L7.67593 1.19726c0.06855 -0.16571 0.19615 -0.30008 0.3581 -0.377093 0.16195 -0.077012 0.34671 -0.091185 0.51851 -0.039774L12.8159 2.07686c0.1717 0.05388 0.3172 0.16967 0.4083 0.32487 0.091 0.15519 0.1211 0.3387 0.0844 0.51484L11.1784 13.6194c-0.1345 0.7467 -0.4706 1.4424 -0.9719 2.0119 -0.50132 0.5695 -1.14877 0.9912 -1.87236 1.2193v0Z" stroke-width="1"></path><path stroke="#000000" stroke-linecap="round" stroke-linejoin="round" d="M5.69617 5.94189 12.3052 7.9574" stroke-width="1"></path><path stroke="#000000" d="M7.11336 9.788c-0.20654 0 -0.37398 -0.16744 -0.37398 -0.37398 0 -0.20654 0.16744 -0.37398 0.37398 -0.37398" stroke-width="1"></path><path stroke="#000000" d="M7.11332 9.788c0.20655 0 0.37398 -0.16744 0.37398 -0.37398 0 -0.20654 -0.16743 -0.37398 -0.37398 -0.37398" stroke-width="1"></path><path stroke="#000000" d="M6.36544 14.2748c-0.20655 0 -0.37398 -0.1674 -0.37398 -0.374 0 -0.2065 0.16743 -0.3739 0.37398 -0.3739" stroke-width="1"></path><path stroke="#000000" d="M6.3654 14.2748c0.20654 0 0.37398 -0.1674 0.37398 -0.374 0 -0.2065 -0.16744 -0.3739 -0.37398 -0.3739" stroke-width="1"></path><path stroke="#000000" d="M8.62679 12.0341c-0.20655 0 -0.37398 -0.1674 -0.37398 -0.374 0 -0.2065 0.16743 -0.374 0.37398 -0.374" stroke-width="1"></path><path stroke="#000000" d="M8.62675 12.0341c0.20655 0 0.37398 -0.1674 0.37398 -0.374 0 -0.2065 -0.16743 -0.374 -0.37398 -0.374" stroke-width="1"></path><path stroke="#000000" d="M15.341 9.788c-0.2065 0 -0.374 -0.16744 -0.374 -0.37398 0 -0.20654 0.1675 -0.37398 0.374 -0.37398" stroke-width="1"></path><path stroke="#000000" d="M15.341 9.788c0.2065 0 0.374 -0.16744 0.374 -0.37398 0 -0.20654 -0.1675 -0.37398 -0.374 -0.37398" stroke-width="1"></path><path stroke="#000000" d="M17.585 12.0341c-0.2065 0 -0.3739 -0.1674 -0.3739 -0.374 0 -0.2065 0.1674 -0.374 0.3739 -0.374" stroke-width="1"></path><path stroke="#000000" d="M17.585 12.0341c0.2065 0 0.374 -0.1674 0.374 -0.374 0 -0.2065 -0.1675 -0.374 -0.374 -0.374" stroke-width="1"></path><g><path stroke="#000000" d="M16.0889 14.2748c-0.2065 0 -0.3739 -0.1674 -0.3739 -0.374 0 -0.2065 0.1674 -0.3739 0.3739 -0.3739" stroke-width="1"></path><path stroke="#000000" d="M16.0889 14.2748c0.2066 0 0.374 -0.1674 0.374 -0.374 0 -0.2065 -0.1674 -0.3739 -0.374 -0.3739" stroke-width="1"></path></g><path stroke="#000000" stroke-linecap="round" stroke-linejoin="round" d="m16.9816 23.2502 5.5149 -1.6525" stroke-width="1"></path><path stroke="#000000" stroke-linecap="round" stroke-linejoin="round" d="m19.739 22.4244 -1.6565 -5.5289" stroke-width="1"></path><path stroke="#000000" stroke-linecap="round" stroke-linejoin="round" d="m15.0537 0.964597 0.5735 -0.171533c0.1726 -0.050298 0.3578 -0.034558 0.5194 0.044156 0.1617 0.078714 0.2883 0.21477 0.3552 0.38168l4.1537 10.0895c0.3018 0.696 0.4076 1.4614 0.3058 2.2132 -0.1017 0.7518 -0.4072 1.4615 -0.8833 2.0522v0c-0.505 0.6242 -1.1863 1.0817 -1.9551 1.313 -0.7689 0.2313 -1.5896 0.2255 -2.3551 -0.0165 -0.9693 -0.3084 -1.7907 -0.9636 -2.3067 -1.84" stroke-width="1"></path><path stroke="#000000" stroke-linecap="round" stroke-linejoin="round" d="m15.7948 6.76804 2.6637 -0.79783" stroke-width="1"></path></svg>