<svg xmlns="http://www.w3.org/2000/svg" viewBox="0 0 24 24" id="Food-Restaurant-Drink-Whiskey--Streamline-Ultimate"><desc>Food Restaurant Drink Whiskey Streamline Icon: https://streamlinehq.com</desc><defs></defs><path d="M20.194 21.243a2.018 2.018 0 0 1 -2.01 1.85H6.068a2.017 2.017 0 0 1 -2.009 -1.85L1.033 2a1.014 1.014 0 0 1 0.93 -1.09l0.079 0h19.92a1.009 1.009 0 0 1 1.008 1.006 0.769 0.769 0 0 1 0 0.083Z" fill="none" stroke="#000000" stroke-linecap="round" stroke-linejoin="round" stroke-width="1"></path><path d="m15.1546574937 14.8662674191 2.8070465203 1.5673910912s0.8215958866 0.458760503 0.3628353837 1.2803563896l-1.3957824865 2.4997120335s-0.4587605029 0.8215958866 -1.2803563895 0.3628353837l-2.8070465204 -1.5673910912s-0.8215958866 -0.4587605029 -0.3628353837 -1.2803563896l1.3957824865 -2.4997120334s0.458760503 -0.8215958867 1.2803563896 -0.3628353838" fill="none" stroke="#000000" stroke-linecap="round" stroke-linejoin="round" stroke-width="1"></path><path d="m9.58167546 11.7486730731 1.120111647 2.695535364s0.3277065251 0.788621857 -0.460915332 1.116328382l-2.4000330286 0.997317633s-0.7886218571 0.3277065251 -1.1163283821 -0.460915332l-1.1201116471 -2.6955353639s-0.327706525 -0.788621857 0.460915332 -1.116328382l2.4000330287 -0.997317633s0.788621857 -0.3277065251 1.1163283821 0.460915332" fill="none" stroke="#000000" stroke-linecap="round" stroke-linejoin="round" stroke-width="1"></path><path d="m2.126 8.951 19.839 0" fill="none" stroke="#000000" stroke-linecap="round" stroke-linejoin="round" stroke-width="1"></path></svg>