<svg xmlns="http://www.w3.org/2000/svg" fill="none" viewBox="0 0 24 24" id="Spirits-Glass--Streamline-Ultimate"><desc>Spirits Glass Streamline Icon: https://streamlinehq.com</desc><path stroke="#000000" stroke-linecap="round" stroke-linejoin="round" d="M13.106 11.25h9c0.1989 0 0.3897 0.079 0.5303 0.2197 0.1407 0.1406 0.2197 0.3314 0.2197 0.5303v9.75c0 0.3978 -0.158 0.7794 -0.4393 1.0607s-0.6629 0.4393 -1.0607 0.4393h-7.5c-0.3978 0 -0.7793 -0.158 -1.0606 -0.4393s-0.4394 -0.6629 -0.4394 -1.0607V12c0 -0.1989 0.079 -0.3897 0.2197 -0.5303 0.1406 -0.1407 0.3314 -0.2197 0.5303 -0.2197v0Z" stroke-width="1"></path><path stroke="#000000" d="M15.731 18.75c-0.2071 0 -0.375 -0.1679 -0.375 -0.375s0.1679 -0.375 0.375 -0.375" stroke-width="1"></path><path stroke="#000000" d="M15.731 18.75c0.2071 0 0.375 -0.1679 0.375 -0.375S15.9381 18 15.731 18" stroke-width="1"></path><path stroke="#000000" d="M19.481 20.25c-0.2071 0 -0.375 -0.1679 -0.375 -0.375s0.1679 -0.375 0.375 -0.375" stroke-width="1"></path><path stroke="#000000" d="M19.481 20.25c0.2071 0 0.375 -0.1679 0.375 -0.375s-0.1679 -0.375 -0.375 -0.375" stroke-width="1"></path><path stroke="#000000" stroke-linecap="round" stroke-linejoin="round" d="M12.356 15.75h10.5" stroke-width="1"></path><path stroke="#000000" stroke-linecap="round" stroke-linejoin="round" d="m10.068 9.065 -0.34203 -0.391c-0.23867 -0.27341 -0.37013 -0.62407 -0.37 -0.987V1.5c0 -0.19891 -0.07901 -0.38968 -0.21967 -0.53033C8.99565 0.829018 8.80489 0.75 8.60597 0.75h-3c-0.19891 0 -0.38967 0.079018 -0.53033 0.21967 -0.14065 0.14065 -0.21967 0.33142 -0.21967 0.53033v6.187c-0.00014 0.36306 -0.13196 0.71374 -0.371 0.987l-2.685 3.115c-0.25596 0.3203 -0.44357 0.6896 -0.55123 1.0852 -0.10767 0.3955 -0.13312 0.809 -0.07477 1.2148l1.267 7.9c0.05682 0.352 0.2372 0.6723 0.50879 0.9034 0.27158 0.2311 0.61662 0.3579 0.97321 0.3576h4.721" stroke-width="1"></path><path stroke="#000000" stroke-linecap="round" stroke-linejoin="round" d="M4.85602 5.25h4.5" stroke-width="1"></path><path stroke="#000000" stroke-linecap="round" stroke-linejoin="round" d="M9.35602 18.75h-3.75l-0.75 -4.5h4.5" stroke-width="1"></path></svg>