<svg xmlns="http://www.w3.org/2000/svg" fill="none" viewBox="0 0 24 24" id="Bill-Cross-Money-Clipboard--Streamline-Ultimate"><desc>Bill Cross Money Clipboard Streamline Icon: https://streamlinehq.com</desc><path stroke="#000000" stroke-linecap="round" stroke-linejoin="round" d="m20.244 14.2295 -3.2928 0 0 2.7965h-2.7964v3.2928h2.7964l0 2.7965h3.2928v-2.7965h2.7966V17.026H20.244v-2.7965Z" stroke-width="1"></path><path stroke="#000000" stroke-linecap="round" stroke-linejoin="round" d="M9.50952 10.2456V8.40381" stroke-width="1"></path><path stroke="#000000" stroke-linecap="round" stroke-linejoin="round" d="M7.66797 15.1567c0 0.9209 0.82265 1.2279 1.84176 1.2279 1.01907 0 1.84177 0 1.84177 -1.2279 0 -1.8417 -3.68353 -1.8417 -3.68353 -3.6835 0 -1.2278 0.82265 -1.2278 1.84176 -1.2278 1.01907 0 1.84177 0.4665 1.84177 1.2278" stroke-width="1"></path><path stroke="#000000" stroke-linecap="round" stroke-linejoin="round" d="M9.50952 16.3848v1.8417" stroke-width="1"></path><path stroke="#000000" stroke-linecap="round" stroke-linejoin="round" d="M12.6047 23.1155H2.66954c-0.45354 0 -0.8885 -0.1801 -1.2092 -0.5008 -0.3207 -0.3207 -0.500867 -0.7557 -0.500867 -1.2092V4.30479c0 -0.45353 0.180167 -0.8885 0.500867 -1.2092 0.3207 -0.3207 0.75566 -0.50086 1.2092 -0.50086h2.5651" stroke-width="1"></path><path stroke="#000000" stroke-linecap="round" stroke-linejoin="round" d="M12.0749 0.884521H6.94469c-0.94445 0 -1.71007 0.765619 -1.71007 1.710069v0.85503c0 0.94445 0.76562 1.71007 1.71007 1.71007h5.13021c0.9444 0 1.7101 -0.76562 1.7101 -1.71007v-0.85503c0 -0.94445 -0.7657 -1.710069 -1.7101 -1.710069Z" stroke-width="1"></path><path stroke="#000000" stroke-linecap="round" stroke-linejoin="round" d="M13.785 2.59473h2.5651c0.4536 0 0.8885 0.18016 1.2092 0.50086 0.3207 0.3207 0.5009 0.75567 0.5009 1.2092v6.12031" stroke-width="1"></path></svg>