<svg xmlns="http://www.w3.org/2000/svg" fill="none" viewBox="0 0 24 24" id="Email-Cross--Streamline-Ultimate"><desc>Email Cross Streamline Icon: https://streamlinehq.com</desc><path stroke="#000000" stroke-linecap="round" stroke-linejoin="round" d="M7.7782 16.4155H2.60437c-0.45739 0 -0.89606 -0.1817 -1.21948 -0.5051 -0.32343 -0.3234 -0.505129 -0.7621 -0.505129 -1.2195V2.61865c0 -0.45739 0.181699 -0.89605 0.505129 -1.21948 0.32342 -0.32343 0.76209 -0.505127 1.21948 -0.505127H19.8505c0.4574 0 0.896 0.181697 1.2195 0.505127 0.3234 0.32343 0.5051 0.76209 0.5051 1.21948v6.03614" stroke-width="1"></path><path stroke="#000000" stroke-linecap="round" stroke-linejoin="round" d="M0.879761 3.06714 11.2274 10.3795l10.3477 -7.31236" stroke-width="1"></path><path stroke="#000000" stroke-linecap="round" stroke-linejoin="round" d="m19.5494 11.7598 -4.2044 0 0 3.5708h-3.5708v4.2044h3.5708l0 3.5708h4.2044V19.535h3.5708v-4.2044h-3.5708v-3.5708Z" stroke-width="1"></path></svg>