<svg xmlns="http://www.w3.org/2000/svg" fill="none" viewBox="0 0 24 24" id="Email-Envelope-Cross--Streamline-Ultimate"><desc>Email Envelope Cross Streamline Icon: https://streamlinehq.com</desc><path stroke="#000000" stroke-linecap="round" stroke-linejoin="round" d="M8.28881 20.277H2.59183c-0.47061 0 -0.92195 -0.187 -1.25472 -0.5197 -0.33278 -0.3328 -0.519727 -0.7841 -0.519727 -1.2548V2.53251c0 -0.47062 0.186947 -0.92196 0.519727 -1.25473 0.33277 -0.332773 0.78411 -0.519723 1.25472 -0.519723H13.2385L18.5619 6.0814v4.2101" stroke-width="1"></path><path stroke="#000000" stroke-linecap="round" stroke-linejoin="round" d="M21.9133 14.3564h-8.8854c-0.7011 0 -1.2694 0.5684 -1.2694 1.2694v6.3467c0 0.701 0.5683 1.2694 1.2694 1.2694h8.8854c0.701 0 1.2693 -0.5684 1.2693 -1.2694v-6.3467c0 -0.701 -0.5683 -1.2694 -1.2693 -1.2694Z" stroke-width="1"></path><path stroke="#000000" stroke-linecap="round" stroke-linejoin="round" d="m11.7585 15.6641 5.7121 3.7699 5.712 -3.7699" stroke-width="1"></path><path stroke="#000000" stroke-linecap="round" stroke-linejoin="round" d="m9.88391 3.98145 -3.56206 0 0 2.34319 -2.30476 0 0 3.56207 2.30476 0 0 2.34319h3.56206V9.88671l2.38159 0V6.32464l-2.38159 0V3.98145Z" stroke-width="1"></path></svg>