<svg xmlns="http://www.w3.org/2000/svg" fill="none" viewBox="0 0 24 24" id="Heart-Rate-Cross--Streamline-Ultimate"><desc>Heart Rate Cross Streamline Icon: https://streamlinehq.com</desc><path stroke="#000000" stroke-linecap="round" stroke-linejoin="round" d="M7.77843 16.3303H2.60452c-0.4574 0 -0.89607 -0.1817 -1.2195 -0.5051s-0.505137 -0.7621 -0.505137 -1.2195V2.53323c0 -0.4574 0.181707 -0.89607 0.505137 -1.2195 0.32343 -0.323434 0.7621 -0.505136 1.2195 -0.505136H19.8509c0.4574 0 0.896 0.181702 1.2195 0.505136 0.3234 0.32343 0.5051 0.7621 0.5051 1.2195v6.03623" stroke-width="1"></path><path stroke="#000000" stroke-linecap="round" stroke-linejoin="round" d="M0.879883 2.98169 11.2277 10.2941l10.3478 -7.31241" stroke-width="1"></path><path stroke="#000000" stroke-linecap="round" stroke-linejoin="round" d="m16.813 23.1915 -5.3564 -4.8519c-2.91109 -2.9111 1.3682 -8.50039 5.3564 -3.9785 3.9882 -4.52189 8.2482 1.0868 5.3565 3.9785l-5.3565 4.8519Z" stroke-width="1"></path><path stroke="#000000" stroke-linecap="round" stroke-linejoin="round" d="M11.0312 17.851h2.5873l1.2657 -1.5207 1.6877 2.6611 1.2658 -1.5206h1.7043" stroke-width="1"></path></svg>