<svg xmlns="http://www.w3.org/2000/svg" fill="none" viewBox="0 0 24 24" id="Insurance-Document-Clipboard--Streamline-Ultimate"><desc>Insurance Document Clipboard Streamline Icon: https://streamlinehq.com</desc><path stroke="#000000" stroke-linecap="round" stroke-linejoin="round" d="M4.77905 9.14136H14.388" stroke-width="1"></path><path stroke="#000000" stroke-linecap="round" stroke-linejoin="round" d="M4.77905 13.6414h4.80448" stroke-width="1"></path><path stroke="#000000" stroke-linecap="round" stroke-linejoin="round" d="M4.77905 18.1414h3.43176" stroke-width="1"></path><path stroke="#000000" stroke-linecap="round" stroke-linejoin="round" d="M11.5397 23.1155H2.74315c-0.45354 0 -0.8885 -0.1801 -1.2092 -0.5008 -0.3207 -0.3207 -0.50087 -0.7557 -0.50087 -1.2092V4.30479c0 -0.45353 0.18017 -0.8885 0.50087 -1.2092 0.3207 -0.3207 0.75566 -0.50086 1.2092 -0.50086h2.5651" stroke-width="1"></path><path stroke="#000000" stroke-linecap="round" stroke-linejoin="round" d="M12.1485 0.884521H7.01829c-0.94444 0 -1.71006 0.765619 -1.71006 1.710069v0.85503c0 0.94445 0.76562 1.71007 1.71006 1.71007h5.13021c0.9444 0 1.7101 -0.76562 1.7101 -1.71007v-0.85503c0 -0.94445 -0.7657 -1.710069 -1.7101 -1.710069Z" stroke-width="1"></path><path stroke="#000000" stroke-linecap="round" stroke-linejoin="round" d="M23.1497 16.584c0.0029 1.5191 -0.5127 2.9936 -1.4617 4.1799 -0.949 1.1862 -2.2744 2.0129 -3.7571 2.3435 -1.4827 -0.3306 -2.8081 -1.1573 -3.757 -2.3435 -0.949 -1.1863 -1.4647 -2.6608 -1.4617 -4.1799v-2.6094c0 -0.346 0.1374 -0.6779 0.3821 -0.9225 0.2447 -0.2447 0.5765 -0.3822 0.9226 -0.3822h7.8281c0.346 0 0.6779 0.1375 0.9225 0.3822 0.2447 0.2446 0.3822 0.5765 0.3822 0.9225v2.6094Z" stroke-width="1"></path><path stroke="#000000" stroke-linecap="round" stroke-linejoin="round" d="m20.5354 15.5791 -2.8835 3.84 -1.92 -1.4383" stroke-width="1"></path><path stroke="#000000" stroke-linecap="round" stroke-linejoin="round" d="M13.8586 2.59473h2.5651c0.4536 0 0.8885 0.18016 1.2092 0.50086 0.3207 0.3207 0.5009 0.75567 0.5009 1.2092v5.3206" stroke-width="1"></path></svg>