<svg xmlns="http://www.w3.org/2000/svg" fill="none" viewBox="0 0 24 24" id="Medical-Resources-Search--Streamline-Ultimate"><desc>Medical Resources Search Streamline Icon: https://streamlinehq.com</desc><path stroke="#000000" stroke-linecap="round" stroke-linejoin="round" d="M20.9355 8.82971V2.95009c-0.0006 -0.30549 -0.0983 -0.60287 -0.2789 -0.84926 -0.1806 -0.24639 -0.4348 -0.42904 -0.7259 -0.52162 -2.7971 -0.963841 -5.8459 -0.900231 -8.6003 0.17943 -0.3147 0.11263 -0.6588 0.11263 -0.9735 0C7.60222 0.678994 4.55309 0.615384 1.75573 1.57921c-0.29129 0.09242 -0.54568 0.27501 -0.72645 0.52141 -0.180766 0.2464 -0.278565 0.54387 -0.279278 0.84947V15.8102c-0.000318 0.22 0.049714 0.4371 0.146266 0.6348 0.096551 0.1977 0.237062 0.3707 0.410772 0.5057 0.1737 0.135 0.376 0.2284 0.5914 0.2732 0.2154 0.0447 0.43818 0.0396 0.65129 -0.015 1.79691 -0.5033 3.67426 -0.587 5.49009 -0.2582" stroke-width="1"></path><path stroke="#000000" stroke-linecap="round" stroke-linejoin="round" d="M10.8433 1.83203V9.2963" stroke-width="1"></path><path stroke="#000000" stroke-linecap="round" stroke-linejoin="round" d="M16.5688 22.1454c3.1624 0 5.726 -2.5637 5.726 -5.726 0 -3.1624 -2.5636 -5.726 -5.726 -5.726s-5.726 2.5636 -5.726 5.726c0 3.1623 2.5636 5.726 5.726 5.726Z" stroke-width="1"></path><path stroke="#000000" stroke-linecap="round" stroke-linejoin="round" d="m20.6161 20.4656 2.634 2.6339" stroke-width="1"></path><path stroke="#000000" stroke-linecap="round" stroke-linejoin="round" d="M16.5696 13.9478v4.943" stroke-width="1"></path><path stroke="#000000" stroke-linecap="round" stroke-linejoin="round" d="M19.0419 16.4194h-4.9431" stroke-width="1"></path></svg>