<svg xmlns="http://www.w3.org/2000/svg" fill="none" viewBox="0 0 24 24" id="Medical-Data-Clipboard-Heart-Rate--Streamline-Ultimate"><desc>Medical Data Clipboard Heart Rate Streamline Icon: https://streamlinehq.com</desc><path stroke="#000000" stroke-linecap="round" stroke-linejoin="round" d="M4.77905 9.14136H14.388" stroke-width="1"></path><path stroke="#000000" stroke-linecap="round" stroke-linejoin="round" d="M4.77905 13.6414h2.89038" stroke-width="1"></path><path stroke="#000000" stroke-linecap="round" stroke-linejoin="round" d="M4.77905 18.1414h2.89038" stroke-width="1"></path><path stroke="#000000" stroke-linecap="round" stroke-linejoin="round" d="M11.4398 23.1155H2.74315c-0.45354 0 -0.8885 -0.1801 -1.2092 -0.5008 -0.3207 -0.3207 -0.50087 -0.7557 -0.50087 -1.2092V4.30479c0 -0.45353 0.18017 -0.8885 0.50087 -1.2092 0.3207 -0.3207 0.75566 -0.50086 1.2092 -0.50086h2.5651" stroke-width="1"></path><path stroke="#000000" stroke-linecap="round" stroke-linejoin="round" d="M12.1485 0.884521H7.01829c-0.94444 0 -1.71006 0.765619 -1.71006 1.710069v0.85503c0 0.94445 0.76562 1.71007 1.71006 1.71007h5.13021c0.9444 0 1.7101 -0.76562 1.7101 -1.71007v-0.85503c0 -0.94445 -0.7657 -1.710069 -1.7101 -1.710069Z" stroke-width="1"></path><path stroke="#000000" stroke-linecap="round" stroke-linejoin="round" d="m16.7178 23.1155 -5.3564 -4.8518c-2.9111 -2.9111 1.3682 -8.50042 5.3564 -3.9785 3.9882 -4.52192 8.2481 1.0868 5.3565 3.9785l-5.3565 4.8518Z" stroke-width="1"></path><path stroke="#000000" stroke-linecap="round" stroke-linejoin="round" d="M11.1322 17.7748h2.391l1.2658 -1.5206 1.6877 2.6611 1.2657 -1.5207h1.7044" stroke-width="1"></path><path stroke="#000000" stroke-linecap="round" stroke-linejoin="round" d="M13.8586 2.59473h2.5651c0.4536 0 0.8885 0.18016 1.2092 0.50086 0.3207 0.3207 0.5009 0.75567 0.5009 1.2092v5.15022" stroke-width="1"></path></svg>