<svg xmlns="http://www.w3.org/2000/svg" fill="none" viewBox="0 0 24 24" id="Medical-Guide-Book-3--Streamline-Ultimate"><desc>Medical Guide Book 3 Streamline Icon: https://streamlinehq.com</desc><path stroke="#000000" stroke-linecap="round" stroke-linejoin="round" d="M0.75 12h3" stroke-width="1"></path><path stroke="#000000" stroke-linecap="round" stroke-linejoin="round" d="M0.75 18h3" stroke-width="1"></path><path stroke="#000000" stroke-linecap="round" stroke-linejoin="round" d="M0.75 6h3" stroke-width="1"></path><path stroke="#000000" stroke-linecap="round" stroke-linejoin="round" d="M17.5 0.75H3.75c-0.82843 0 -1.5 0.67157 -1.5 1.5v19.5c0 0.8284 0.67157 1.5 1.5 1.5H17.5c0.8284 0 1.5 -0.6716 1.5 -1.5V2.25c0 -0.82843 -0.6716 -1.5 -1.5 -1.5Z" stroke-width="1"></path><path stroke="#000000" stroke-linecap="round" stroke-linejoin="round" d="M19 16.75h2.75c0.3978 0 0.7794 -0.158 1.0607 -0.4393s0.4393 -0.6629 0.4393 -1.0607V3.75c0 -0.39782 -0.158 -0.77936 -0.4393 -1.06066 -0.2813 -0.2813 -0.6629 -0.43934 -1.0607 -0.43934H19v14.5Z" stroke-width="1"></path><path stroke="#000000" stroke-linecap="round" stroke-linejoin="round" d="M19 7h4.25" stroke-width="1"></path><path stroke="#000000" stroke-linecap="round" stroke-linejoin="round" d="M19 12h4.25" stroke-width="1"></path><path stroke="#000000" stroke-linecap="round" stroke-linejoin="round" d="m13.0377 7.49048 -3.34204 0 0 2.83842H6.8573v3.3421h2.83836l0 2.8384h3.34204V13.671h2.8385v-3.3421h-2.8385V7.49048Z" stroke-width="1"></path></svg>