<svg xmlns="http://www.w3.org/2000/svg" fill="none" viewBox="0 0 24 24" id="Medical-Profile-Patiant-2--Streamline-Ultimate"><desc>Medical Profile Patiant 2 Streamline Icon: https://streamlinehq.com</desc><path stroke="#000000" stroke-linecap="round" stroke-linejoin="round" d="m10.8268 4.33301 -3.44385 0 0 2.92492H4.45813v3.44387h2.92482l0 2.9248h3.44385v-2.9248h2.9249V7.25793h-2.9249V4.33301Z" stroke-width="1"></path><path stroke="#000000" stroke-linecap="round" stroke-linejoin="round" d="M9.1389 20.4414H2.35498c-0.39782 0 -0.77936 -0.158 -1.06066 -0.4393 -0.2813 -0.2813 -0.43934 -0.6629 -0.43934 -1.0607V2.44141c0 -0.39783 0.15804 -0.77936 0.43934 -1.06066 0.2813 -0.28131 0.66284 -0.439344 1.06066 -0.439344H12.984c0.3975 0.000085 0.7788 0.157984 1.06 0.439004l2.872 2.872c0.281 0.28119 0.4389 0.66245 0.439 1.06v4.12856" stroke-width="1"></path><path stroke="#000000" stroke-linecap="round" stroke-linejoin="round" d="M13.7517 22.9773c0 -1.2477 0.4957 -2.4444 1.378 -3.3266 0.8822 -0.8823 2.0789 -1.378 3.3266 -1.378 1.2478 0 2.4444 0.4957 3.3267 1.378 0.8823 0.8822 1.378 2.0789 1.378 3.3266h-9.4093Z" stroke-width="1"></path><path stroke="#000000" stroke-linecap="round" stroke-linejoin="round" d="M18.4564 18.2728c1.7322 0 3.1364 -1.4042 3.1364 -3.1364 0 -1.7322 -1.4042 -3.1364 -3.1364 -3.1364 -1.7322 0 -3.1365 1.4042 -3.1365 3.1364 0 1.7322 1.4043 3.1364 3.1365 3.1364Z" stroke-width="1"></path></svg>