<svg viewBox="0 0 24 24" xmlns="http://www.w3.org/2000/svg" id="Medical-Notes--Streamline-Ultimate"><desc>Medical Notes Streamline Icon: https://streamlinehq.com</desc><path d="M7.5 3.75H4.636A1.573 1.573 0 0 0 3 5.25v16.5a1.573 1.573 0 0 0 1.636 1.5h14.728A1.573 1.573 0 0 0 21 21.75V5.25a1.573 1.573 0 0 0 -1.636 -1.5H16.5" fill="none" stroke="#000000" stroke-linecap="round" stroke-linejoin="round" stroke-width="1"></path><path d="M16.5 13.5a0.75 0.75 0 0 0 -0.75 -0.75H13.5V10.5a0.75 0.75 0 0 0 -0.75 -0.75h-1.5a0.75 0.75 0 0 0 -0.75 0.75v2.25H8.25a0.75 0.75 0 0 0 -0.75 0.75V15a0.75 0.75 0 0 0 0.75 0.75h2.25V18a0.75 0.75 0 0 0 0.75 0.75h1.5a0.75 0.75 0 0 0 0.75 -0.75v-2.25h2.25a0.75 0.75 0 0 0 0.75 -0.75Z" fill="none" stroke="#000000" stroke-linecap="round" stroke-linejoin="round" stroke-width="1"></path><path d="M14.584 2.25a2.976 2.976 0 0 0 -5.168 0H8.25A0.75 0.75 0 0 0 7.5 3v3a0.75 0.75 0 0 0 0.75 0.75h7.5A0.75 0.75 0 0 0 16.5 6V3a0.75 0.75 0 0 0 -0.75 -0.75Z" fill="none" stroke="#000000" stroke-linecap="round" stroke-linejoin="round" stroke-width="1"></path></svg>