<svg xmlns="http://www.w3.org/2000/svg" fill="none" viewBox="0 0 24 24" id="Medical-Data-Heart-Rate--Streamline-Ultimate"><desc>Medical Data Heart Rate Streamline Icon: https://streamlinehq.com</desc><path stroke="#000000" stroke-linecap="round" stroke-linejoin="round" d="M8.62854 3.34644H5.90681v2.31159h-2.3116v2.72172h2.3116v2.31155h2.72173V8.37975H10.94V5.65803H8.62854V3.34644Z" stroke-width="1"></path><path stroke="#000000" stroke-linecap="round" stroke-linejoin="round" d="M9.244 20.4414H2.46008c-0.39782 0 -0.77935 -0.158 -1.06066 -0.4393 -0.2813 -0.2813 -0.439337 -0.6629 -0.439337 -1.0607V2.44141c0 -0.39783 0.158037 -0.77936 0.439337 -1.06066 0.28131 -0.28131 0.66284 -0.439344 1.06066 -0.439344H13.0891c0.3975 0.000085 0.7788 0.157984 1.06 0.439004l2.872 2.872c0.281 0.28119 0.4389 0.66245 0.439 1.06v4.12856" stroke-width="1"></path><path stroke="#000000" stroke-linecap="round" stroke-linejoin="round" d="m16.5208 22.5335 -5.3564 -4.8518c-2.91112 -2.9111 1.3682 -8.50045 5.3564 -3.9785 3.9882 -4.52195 8.2481 1.0868 5.3564 3.9785l-5.3564 4.8518Z" stroke-width="1"></path><path stroke="#000000" stroke-linecap="round" stroke-linejoin="round" d="M10.7812 17.193h2.545l1.2658 -1.5206 1.6877 2.6611 1.2657 -1.5207h1.7043" stroke-width="1"></path><path stroke="#000000" stroke-linecap="round" stroke-linejoin="round" d="M3.96008 17.0029h3.30756" stroke-width="1"></path><path stroke="#000000" stroke-linecap="round" stroke-linejoin="round" d="M3.96008 13.9172h2.12487" stroke-width="1"></path></svg>