<svg xmlns="http://www.w3.org/2000/svg" fill="none" viewBox="0 0 24 24" id="Medical-Guide-Book-1--Streamline-Ultimate"><desc>Medical Guide Book 1 Streamline Icon: https://streamlinehq.com</desc><path stroke="#000000" stroke-linecap="round" stroke-linejoin="round" d="M21 23.25H5.25c-0.59674 0 -1.16903 -0.2371 -1.59099 -0.659C3.23705 22.169 3 21.5967 3 21" stroke-width="1"></path><path stroke="#000000" stroke-linecap="round" stroke-linejoin="round" d="M6 0.75c-0.79565 0 -1.55871 0.31607 -2.12132 0.87868C3.31607 2.19129 3 2.95435 3 3.75V21c0 -0.5967 0.23705 -1.169 0.65901 -1.591 0.42196 -0.4219 0.99425 -0.659 1.59099 -0.659h15c0.1989 0 0.3897 -0.079 0.5303 -0.2197C20.921 18.3897 21 18.1989 21 18V1.5c0 -0.19891 -0.079 -0.38968 -0.2197 -0.53033C20.6397 0.829018 20.4489 0.75 20.25 0.75H6Z" stroke-width="1"></path><path stroke="#000000" stroke-linecap="round" stroke-linejoin="round" d="M19.5 23.25v-4.5" stroke-width="1"></path><path stroke="#000000" stroke-linecap="round" stroke-linejoin="round" d="m13.896 4.65991 -3.7919 0 0 3.22059H6.88354v3.792h3.22056l0 3.2204h3.7919v-3.2204h3.2206v-3.792H13.896V4.65991Z" stroke-width="1"></path></svg>