<svg xmlns="http://www.w3.org/2000/svg" fill="none" viewBox="0 0 24 24" id="Medical-Data-Clipboard-Cross--Streamline-Ultimate"><desc>Medical Data Clipboard Cross Streamline Icon: https://streamlinehq.com</desc><path stroke="#000000" stroke-linecap="round" stroke-linejoin="round" d="m19.888 12.9536 -3.792 0 0 3.2206h-3.2205v3.792h3.2205l0 3.2204h3.792v-3.2204h3.2205v-3.792H19.888v-3.2206Z" stroke-width="1"></path><path stroke="#000000" stroke-linecap="round" stroke-linejoin="round" d="M4.63745 9.07031h9.60895" stroke-width="1"></path><path stroke="#000000" stroke-linecap="round" stroke-linejoin="round" d="M4.63745 13.5703H11.501" stroke-width="1"></path><path stroke="#000000" stroke-linecap="round" stroke-linejoin="round" d="M4.63745 18.0703h3.43176" stroke-width="1"></path><path stroke="#000000" stroke-linecap="round" stroke-linejoin="round" d="M12.5366 23.0442H2.60142c-0.45353 0 -0.8885 -0.1801 -1.2092 -0.5008 -0.3207 -0.3207 -0.500863 -0.7557 -0.500863 -1.2092V4.2335c0 -0.45353 0.180163 -0.8885 0.500863 -1.2092 0.3207 -0.3207 0.75567 -0.50086 1.2092 -0.50086h2.56511" stroke-width="1"></path><path stroke="#000000" stroke-linecap="round" stroke-linejoin="round" d="M12.0068 0.813477H6.87657c-0.94444 0 -1.71007 0.765623 -1.71007 1.710063v0.85504c0 0.94444 0.76563 1.71006 1.71007 1.71006h5.13023c0.9444 0 1.71 -0.76562 1.71 -1.71006v-0.85504c0 -0.94444 -0.7656 -1.710063 -1.71 -1.710063Z" stroke-width="1"></path><path stroke="#000000" stroke-linecap="round" stroke-linejoin="round" d="M13.717 2.52344h2.5651c0.4536 0 0.8885 0.18016 1.2092 0.50086 0.3207 0.3207 0.5009 0.75567 0.5009 1.2092v6.1203" stroke-width="1"></path></svg>