<svg xmlns="http://www.w3.org/2000/svg" fill="none" viewBox="0 0 24 24" id="Prescription-Px-Pen--Streamline-Ultimate"><desc>Prescription Px Pen Streamline Icon: https://streamlinehq.com</desc><path stroke="#000000" stroke-linecap="round" stroke-linejoin="round" d="m22.5359 14.87 -7.627 7.63 -3.75 0.75 0.75 -3.75 7.631 -7.63c0.8142 -0.8156 2.1769 -0.8156 2.991 0l0.009 0.008c0.3962 0.3974 0.6183 0.9358 0.6176 1.4969 -0.0008 0.561 -0.2244 1.0988 -0.6216 1.4951Z" stroke-width="1"></path><path stroke="#000000" stroke-linecap="round" stroke-linejoin="round" d="M8.34253 20.25h-6c-0.39783 0 -0.77936 -0.158 -1.06066 -0.4393 -0.28131 -0.2813 -0.439341 -0.6629 -0.439341 -1.0607V2.25c0 -0.39782 0.158031 -0.77936 0.439341 -1.06066C1.56317 0.908035 1.9447 0.75 2.34253 0.75H17.3425c0.3979 0 0.7794 0.158035 1.0607 0.43934 0.2813 0.2813 0.4393 0.66284 0.4393 1.06066V9" stroke-width="1"></path><path stroke="#000000" stroke-linecap="round" stroke-linejoin="round" d="M5.05918 4.07178h2.6459c1.23177 0 2.23031 0.99854 2.23031 2.23031 0 1.23176 -0.99854 2.23031 -2.23031 2.23031H5.059" stroke-width="1"></path><path stroke="#000000" stroke-linecap="round" stroke-linejoin="round" d="M4.9574 4.07178v8.49782" stroke-width="1"></path><path stroke="#000000" stroke-linecap="round" stroke-linejoin="round" d="m7.05676 8.55713 5.75664 5.75677" stroke-width="1"></path><path stroke="#000000" stroke-linecap="round" stroke-linejoin="round" d="M12.8138 9.69238 8.1925 14.3138" stroke-width="1"></path></svg>