<svg xmlns="http://www.w3.org/2000/svg" viewBox="0 0 24 24" id="Design-Tool-Shape--Streamline-Ultimate"><desc>Design Tool Shape Streamline Icon: https://streamlinehq.com</desc><g><path d="M1.75 0.75h20.5s1 0 1 1v20.5s0 1 -1 1H1.75s-1 0 -1 -1V1.75s0 -1 1 -1" fill="none" stroke="#000000" stroke-linecap="round" stroke-linejoin="round" stroke-width="1"></path><path d="M3.76 11.37a4.12 4.12 0 1 0 8.24 0 4.12 4.12 0 1 0 -8.24 0" fill="none" stroke="#000000" stroke-linecap="round" stroke-linejoin="round" stroke-width="1"></path><path d="M12 11h2a1 1 0 0 0 1 -1V5.21a1 1 0 0 0 -1 -1H9.21a1 1 0 0 0 -1 1v2.06" fill="none" stroke="#000000" stroke-linecap="round" stroke-linejoin="round" stroke-width="1"></path><path d="m3.75 18.75 9 0" fill="none" stroke="#000000" stroke-linecap="round" stroke-linejoin="round" stroke-width="1"></path><path d="m13.95 14.25 2.31 2.34" fill="none" stroke="#000000" stroke-linecap="round" stroke-linejoin="round" stroke-width="1"></path><path d="M17.25 15.25h2s1 0 1 1v3s0 1 -1 1h-2s-1 0 -1 -1v-3s0 -1 1 -1" fill="none" stroke="#000000" stroke-linecap="round" stroke-linejoin="round" stroke-width="1"></path><path d="m17.75 4.75 2.5 0" fill="none" stroke="#000000" stroke-linecap="round" stroke-linejoin="round" stroke-width="1"></path><path d="m17.75 8.25 2.5 0" fill="none" stroke="#000000" stroke-linecap="round" stroke-linejoin="round" stroke-width="1"></path></g></svg>