<svg xmlns="http://www.w3.org/2000/svg" viewBox="0 0 24 24" id="Design-Drawing-Board--Streamline-Ultimate"><desc>Design Drawing Board Streamline Icon: https://streamlinehq.com</desc><path d="M9 6H4.5A1.5 1.5 0 0 0 3 7.5V18h18V7.5A1.5 1.5 0 0 0 19.5 6H15M1.5 18h21M12 18v5.25M8.25 18 6 23.25M15.75 18 18 23.25" fill="none" stroke="#000000" stroke-linecap="round" stroke-linejoin="round" stroke-width="1"></path><path d="M13.5 7.5h-3A1.5 1.5 0 0 1 9 6h0v-0.75a0.75 0.75 0 0 1 0.75 -0.75h4.5a0.75 0.75 0 0 1 0.75 0.75V6h0a1.5 1.5 0 0 1 -1.5 1.5zM12 2.25V4.5" fill="none" stroke="#000000" stroke-linecap="round" stroke-linejoin="round" stroke-width="1"></path></svg>