<svg xmlns="http://www.w3.org/2000/svg" viewBox="0 0 24 24" id="Design-Shape-Monitor--Streamline-Ultimate"><desc>Design Shape Monitor Streamline Icon: https://streamlinehq.com</desc><path fill="none" stroke="#000000" stroke-linecap="round" stroke-linejoin="round" d="M3.75 0.75h16.5s3 0 3 3v16.5s0 3 -3 3H3.75s-3 0 -3 -3V3.75s0 -3 3 -3" stroke-width="1"></path><path d="M10.594 6.977A1.5 1.5 0 0 1 12 6h6a1.5 1.5 0 0 1 1.5 1.5v6A1.5 1.5 0 0 1 18 15h-1.5m-3 -0.75A4.5 4.5 0 1 1 9 9.75m2.527 0.776a4.512 4.512 0 0 1 1.273 1.306" fill="none" stroke="#000000" stroke-linecap="round" stroke-linejoin="round" stroke-width="1"></path></svg>