<svg viewBox="0 0 24 24" xmlns="http://www.w3.org/2000/svg" id="Electronics-Battery--Streamline-Ultimate"><desc>Electronics Battery Streamline Icon: https://streamlinehq.com</desc><path d="M15 3V1.5a0.75 0.75 0 0 0 -0.75 -0.75h-4.5A0.75 0.75 0 0 0 9 1.5V3H6.75a1.5 1.5 0 0 0 -1.5 1.5v17.25a1.5 1.5 0 0 0 1.5 1.5h10.5a1.5 1.5 0 0 0 1.5 -1.5V4.5a1.5 1.5 0 0 0 -1.5 -1.5Z" fill="none" stroke="#000000" stroke-linecap="round" stroke-linejoin="round" stroke-width="1"></path><path d="m5.25 13.5 13.5 0" fill="none" stroke="#000000" stroke-linecap="round" stroke-linejoin="round" stroke-width="1"></path><path d="m9.75 18 4.5 0" fill="none" stroke="#000000" stroke-linecap="round" stroke-linejoin="round" stroke-width="1"></path><path d="m9.75 8.25 4.5 0" fill="none" stroke="#000000" stroke-linecap="round" stroke-linejoin="round" stroke-width="1"></path><path d="m12 6 0 4.5" fill="none" stroke="#000000" stroke-linecap="round" stroke-linejoin="round" stroke-width="1"></path></svg>