<svg xmlns="http://www.w3.org/2000/svg" viewBox="0 0 24 24" id="Electronics-Fuse--Streamline-Ultimate"><desc>Electronics Fuse Streamline Icon: https://streamlinehq.com</desc><defs></defs><title>electronics-fuse</title><path d="m0.9695919755 14.5444236585 1.0606601717 -1.0606601717s0.530330086 -0.530330086 1.0606601718 0l7.4246212025 7.4246212024s0.5303300859 0.530330086 0 1.0606601718l-1.0606601718 1.0606601718s-0.5303300859 0.5303300859 -1.0606601718 0L0.9695919755 15.6050838303s-0.530330086 -0.5303300859 0 -1.0606601718" fill="none" stroke="#000000" stroke-linecap="round" stroke-linejoin="round" stroke-width="1"></path><path d="M13.4845919755 2.030955139 14.5452521472 0.9702949672s0.530330086 -0.5303300859 1.0606601718 0l7.4246212025 7.4246212025s0.5303300859 0.5303300859 0 1.0606601718l-1.0606601718 1.0606601717s-0.5303300859 0.530330086 -1.0606601718 0l-7.4246212024 -7.4246212024s-0.530330086 -0.530330086 0 -1.0606601718" fill="none" stroke="#000000" stroke-linecap="round" stroke-linejoin="round" stroke-width="1"></path><path d="M3.6210544982 14.0145472196 14.0141099681 3.6214917497l6.3639610307 6.3639610307 -10.39305547 10.3930554699Z" fill="none" stroke="#000000" stroke-linecap="round" stroke-linejoin="round" stroke-width="1"></path><path d="m17.197 6.803 -2.602 2.602 -0.53 2.652 -4.243 0 -0.53 2.651 -2.489 2.489" fill="none" stroke="#000000" stroke-linecap="round" stroke-linejoin="round" stroke-width="1"></path></svg>