<svg xmlns="http://www.w3.org/2000/svg" viewBox="0 0 24 24" id="Electronics-Switch--Streamline-Ultimate"><desc>Electronics Switch Streamline Icon: https://streamlinehq.com</desc><defs></defs><title>electronics-switch</title><path d="M3.75 14.25h16.5s1.5 0 1.5 1.5v3s0 1.5 -1.5 1.5H3.75s-1.5 0 -1.5 -1.5v-3s0 -1.5 1.5 -1.5" fill="none" stroke="#000000" stroke-linecap="round" stroke-linejoin="round" stroke-width="1"></path><path d="M17.25 9.75H6.75a1.5 1.5 0 0 0 -1.5 1.5v3h13.5v-3a1.5 1.5 0 0 0 -1.5 -1.5Z" fill="none" stroke="#000000" stroke-linecap="round" stroke-linejoin="round" stroke-width="1"></path><path d="M12.75 9.75c-0.45 -0.96 -3.124 -6.695 -3.978 -7.982a2.214 2.214 0 0 0 -3.12 -0.629 2.213 2.213 0 0 0 -0.629 3.119c0.633 0.953 3.128 3.775 4.669 5.492Z" fill="none" stroke="#000000" stroke-linecap="round" stroke-linejoin="round" stroke-width="1"></path><path d="m5.25 20.25 0 3" fill="none" stroke="#000000" stroke-linecap="round" stroke-linejoin="round" stroke-width="1"></path><path d="m12 20.25 0 3" fill="none" stroke="#000000" stroke-linecap="round" stroke-linejoin="round" stroke-width="1"></path><path d="m18.75 20.25 0 3" fill="none" stroke="#000000" stroke-linecap="round" stroke-linejoin="round" stroke-width="1"></path></svg>