<svg xmlns="http://www.w3.org/2000/svg" viewBox="0 0 24 24" id="Drawer-Image--Streamline-Ultimate"><desc>Drawer Image Streamline Icon: https://streamlinehq.com</desc><g><path d="M17.17 15.75a6 6 0 0 1 -10.34 0H2.25a1.5 1.5 0 0 0 -1.5 1.5v4.5a1.5 1.5 0 0 0 1.5 1.5h19.5a1.5 1.5 0 0 0 1.5 -1.5v-4.5a1.5 1.5 0 0 0 -1.5 -1.5Z" fill="none" stroke="#000000" stroke-linecap="round" stroke-linejoin="round" stroke-width="1"></path><path d="M20.25 12.75V2.25a1.5 1.5 0 0 0 -1.5 -1.5H5.25a1.5 1.5 0 0 0 -1.5 1.5v10.5" fill="none" stroke="#000000" stroke-linecap="round" stroke-linejoin="round" stroke-width="1"></path><path d="M6.75 5.25a1.5 1.5 0 1 0 3 0 1.5 1.5 0 1 0 -3 0" fill="none" stroke="#000000" stroke-linecap="round" stroke-linejoin="round" stroke-width="1"></path><path d="m9.75 12.75 2.55 -4.4a1.5 1.5 0 0 1 2.4 0l2.55 4.4Z" fill="none" stroke="#000000" stroke-linecap="round" stroke-linejoin="round" stroke-width="1"></path></g></svg>