<svg xmlns="http://www.w3.org/2000/svg" viewBox="0 0 24 24" id="Drawer-Cash--Streamline-Ultimate"><desc>Drawer Cash Streamline Icon: https://streamlinehq.com</desc><g><path d="M17.17 15.75a6 6 0 0 1 -10.34 0H2.25a1.5 1.5 0 0 0 -1.5 1.5v4.5a1.5 1.5 0 0 0 1.5 1.5h19.5a1.5 1.5 0 0 0 1.5 -1.5v-4.5a1.5 1.5 0 0 0 -1.5 -1.5Z" fill="none" stroke="#000000" stroke-linecap="round" stroke-linejoin="round" stroke-width="1"></path><path d="M20.25 12.75V2.25a1.5 1.5 0 0 0 -1.5 -1.5H5.25a1.5 1.5 0 0 0 -1.5 1.5v10.5" fill="none" stroke="#000000" stroke-linecap="round" stroke-linejoin="round" stroke-width="1"></path><g><path d="M10.14 10.84a2.22 2.22 0 0 0 1.86 0.88c1.14 0 2.06 -0.69 2.06 -1.55S13.14 8.63 12 8.63s-2.06 -0.7 -2.06 -1.55 0.92 -1.55 2.06 -1.55a2.22 2.22 0 0 1 1.86 0.88" fill="none" stroke="#000000" stroke-linecap="round" stroke-linejoin="round" stroke-width="1"></path><path d="m12 11.72 0 1.03" fill="none" stroke="#000000" stroke-linecap="round" stroke-linejoin="round" stroke-width="1"></path><path d="m12 4.5 0 1.03" fill="none" stroke="#000000" stroke-linecap="round" stroke-linejoin="round" stroke-width="1"></path></g></g></svg>