<svg xmlns="http://www.w3.org/2000/svg" viewBox="0 0 24 24" id="Drawer-Play--Streamline-Ultimate"><desc>Drawer Play Streamline Icon: https://streamlinehq.com</desc><g><path d="M17.17 15.75a6 6 0 0 1 -10.34 0H2.25a1.5 1.5 0 0 0 -1.5 1.5v4.5a1.5 1.5 0 0 0 1.5 1.5h19.5a1.5 1.5 0 0 0 1.5 -1.5v-4.5a1.5 1.5 0 0 0 -1.5 -1.5Z" fill="none" stroke="#000000" stroke-linecap="round" stroke-linejoin="round" stroke-width="1"></path><path d="M20.25 12.75V2.25a1.5 1.5 0 0 0 -1.5 -1.5H5.25a1.5 1.5 0 0 0 -1.5 1.5v10.5" fill="none" stroke="#000000" stroke-linecap="round" stroke-linejoin="round" stroke-width="1"></path><path d="M10.24 11.91a0.85 0.85 0 0 1 -0.83 0 0.83 0.83 0 0 1 -0.41 -0.77V5.36a0.83 0.83 0 0 1 0.41 -0.73 0.85 0.85 0 0 1 0.83 0L16 7.48A0.87 0.87 0 0 1 16 9Z" fill="none" stroke="#000000" stroke-linecap="round" stroke-linejoin="round" stroke-width="1"></path></g></svg>