<svg xmlns="http://www.w3.org/2000/svg" viewBox="0 0 24 24" id="Water-Container--Streamline-Ultimate"><desc>Water Container Streamline Icon: https://streamlinehq.com</desc><g><path d="M6.75 13.25h10.5s0.5 0 0.5 0.5v9s0 0.5 -0.5 0.5H6.75s-0.5 0 -0.5 -0.5v-9s0 -0.5 0.5 -0.5" fill="none" stroke="#000000" stroke-linecap="round" stroke-linejoin="round" stroke-width="1"></path><path d="M9.25 9.75h5.5v3.5h-5.5Z" fill="none" stroke="#000000" stroke-linecap="round" stroke-linejoin="round" stroke-width="1"></path><path d="M7.75 0.75h8.5a0.5 0.5 0 0 1 0.5 0.5v7.5a1 1 0 0 1 -1 1h-7.5a1 1 0 0 1 -1 -1v-7.5a0.5 0.5 0 0 1 0.5 -0.5Z" fill="none" stroke="#000000" stroke-linecap="round" stroke-linejoin="round" stroke-width="1"></path><path d="M9.75 18.25h4.5v5h-4.5Z" fill="none" stroke="#000000" stroke-linecap="round" stroke-linejoin="round" stroke-width="1"></path><path d="m7.25 6.75 3.5 0" fill="none" stroke="#000000" stroke-linecap="round" stroke-linejoin="round" stroke-width="1"></path><path d="m7.25 3.75 3.5 0" fill="none" stroke="#000000" stroke-linecap="round" stroke-linejoin="round" stroke-width="1"></path></g></svg>