<svg viewBox="0 0 24 24" xmlns="http://www.w3.org/2000/svg" id="Water-Glass--Streamline-Ultimate"><desc>Water Glass Streamline Icon: https://streamlinehq.com</desc><path d="M3.75 4.5a8.25 3.75 0 1 0 16.5 0 8.25 3.75 0 1 0 -16.5 0Z" fill="none" stroke="#000000" stroke-linecap="round" stroke-linejoin="round" stroke-width="1"></path><path d="m3.75 4.5 2.837 15.6a2.885 2.885 0 0 0 1.038 1.774A6.958 6.958 0 0 0 12 23.25a6.958 6.958 0 0 0 4.375 -1.373 2.885 2.885 0 0 0 1.038 -1.777L20.25 4.5" fill="none" stroke="#000000" stroke-linecap="round" stroke-linejoin="round" stroke-width="1"></path><path d="M9.75 22.944V16.5a2.25 2.25 0 0 1 4.5 0v6.444" fill="none" stroke="#000000" stroke-linecap="round" stroke-linejoin="round" stroke-width="1"></path><path d="M5.58 14.565c1.453 -1.525 4.17 1.111 4.17 1.935" fill="none" stroke="#000000" stroke-linecap="round" stroke-linejoin="round" stroke-width="1"></path><path d="M18.42 14.565c-1.453 -1.525 -4.17 1.111 -4.17 1.935" fill="none" stroke="#000000" stroke-linecap="round" stroke-linejoin="round" stroke-width="1"></path></svg>