<svg xmlns="http://www.w3.org/2000/svg" viewBox="0 0 24 24" id="Water-Pitcher--Streamline-Ultimate"><desc>Water Pitcher Streamline Icon: https://streamlinehq.com</desc><g><path d="M2.25 15V9.75a1.5 1.5 0 0 1 1.5 -1.5h4.32" fill="none" stroke="#000000" stroke-linecap="round" stroke-linejoin="round" stroke-width="1"></path><path d="M19.67 4v-0.5l0.37 -1.87a0.77 0.77 0 0 0 -1.26 -0.7l-3.35 2.51a1.57 1.57 0 0 1 -0.93 0.31h-4.33A1.52 1.52 0 0 0 8.66 5L7 13.94a18.08 18.08 0 0 0 -0.17 5.14 4.58 4.58 0 0 0 4.6 4.17H17a4.58 4.58 0 0 0 4.6 -4.18 17.94 17.94 0 0 0 -0.13 -5.07Z" fill="none" stroke="#000000" stroke-linecap="round" stroke-linejoin="round" stroke-width="1"></path><path d="m6.75 17.25 15 0" fill="none" stroke="#000000" stroke-linecap="round" stroke-linejoin="round" stroke-width="1"></path></g></svg>