<svg xmlns="http://www.w3.org/2000/svg" viewBox="0 0 24 24" id="Water-Pitcher-2--Streamline-Ultimate"><desc>Water Pitcher 2 Streamline Icon: https://streamlinehq.com</desc><g><path d="M16.5 21.75H8.86a1.5 1.5 0 0 1 -1.49 -1.36L6 6 3 2.25l15 1.5v16.5a1.5 1.5 0 0 1 -1.5 1.5Z" fill="none" stroke="#000000" stroke-linecap="round" stroke-linejoin="round" stroke-width="1"></path><path d="M18 3.75h2.25a3 3 0 0 1 3 3V9a6 6 0 0 1 -1.48 4L18 17.25" fill="none" stroke="#000000" stroke-linecap="round" stroke-linejoin="round" stroke-width="1"></path><path d="m7 16.5 11 0" fill="none" stroke="#000000" stroke-linecap="round" stroke-linejoin="round" stroke-width="1"></path><path d="M3.75 10.5a1.5 1.5 0 0 1 -3 0 17.34 17.34 0 0 1 1.5 -3.75 17.34 17.34 0 0 1 1.5 3.75Z" fill="none" stroke="#000000" stroke-linecap="round" stroke-linejoin="round" stroke-width="1"></path></g></svg>