<svg xmlns="http://www.w3.org/2000/svg" fill="none" viewBox="0 0 24 24" id="Pencil-Edit-Home--Streamline-Ultimate"><desc>Pencil Edit Home Streamline Icon: https://streamlinehq.com</desc><path stroke="#000000" stroke-linecap="round" stroke-linejoin="round" stroke-miterlimit="10" d="M12.75 16.0166v5.7333c0 0.8 0.7 1.5 1.5 1.5h6c0.8 0 1.5 -0.7 1.5 -1.5v-5.7333M11.25 17.35l4.5 -4c0.8 -0.7 2.1 -0.7 3 0l4.5 4" stroke-width="1"></path><path stroke="#000000" stroke-linecap="round" stroke-linejoin="round" stroke-miterlimit="10" d="M18.75 23.25h-3v-3c0 -0.8 0.7 -1.5 1.5 -1.5s1.5 0.7 1.5 1.5v3Z" stroke-width="1"></path><path stroke="#000000" stroke-linecap="round" stroke-linejoin="round" stroke-miterlimit="10" d="M7.6347 21.449 0.75 23.25l1.79601 -6.9037M7.6347 21.449l-5.08869 -5.1027M7.6347 21.449l0.89801 -0.9005m-5.9867 -4.2022L17.0139 1.83841c1.3969 -1.400756 3.6918 -1.500811 5.1884 0 1.3969 1.40076 1.3969 3.70196 0 5.20278L19.153 10.0905m-2.5383 -7.8519 5.0887 5.10281M19.212 10.0316l-5.1915 -5.19149" stroke-width="1"></path></svg>