<svg xmlns="http://www.w3.org/2000/svg" fill="none" viewBox="0 0 24 24" id="Pencil-Edit-Audio--Streamline-Ultimate"><desc>Pencil Edit Audio Streamline Icon: https://streamlinehq.com</desc><path stroke="#000000" stroke-linecap="round" stroke-linejoin="round" stroke-miterlimit="10" d="M13.85 23.2498c1.0493 0 1.9 -0.8507 1.9 -1.9001 0 -1.0493 -0.8507 -1.9 -1.9 -1.9s-1.9 0.8507 -1.9 1.9c0 1.0494 0.8507 1.9001 1.9 1.9001Z" stroke-width="1"></path><path stroke="#000000" stroke-linecap="round" stroke-linejoin="round" stroke-miterlimit="10" d="M21.35 20.9497c1.0493 0 1.9 -0.8507 1.9 -1.9 0 -1.0494 -0.8507 -1.9 -1.9 -1.9s-1.9 0.8506 -1.9 1.9c0 1.0493 0.8507 1.9 1.9 1.9Z" stroke-width="1"></path><path stroke="#000000" stroke-linecap="round" stroke-linejoin="round" stroke-miterlimit="10" d="M15.75 21.3498v-6.8001c0 -0.6 0.4 -1.1999 1 -1.3999l4.5 -1.2c0.5 -0.2 1 -0.1 1.4 0.2 0.4 0.3 0.6 0.7 0.6 1.2v5.7999" stroke-width="1"></path><path stroke="#000000" stroke-linecap="round" stroke-linejoin="round" stroke-miterlimit="10" d="M7.6347 21.449 0.75 23.25l1.79601 -6.9037M7.6347 21.449l-5.08869 -5.1027M7.6347 21.449l3.4322 -3.4321m-8.52089 -1.6706L17.0139 1.83841c1.3969 -1.400756 3.6918 -1.500811 5.1884 0 1.3969 1.40076 1.3969 3.70196 0 5.20278L19.212 10.0316l-5.1915 -5.19149m2.5942 -2.60151 5.1957 5.19563" stroke-width="1"></path></svg>