<svg xmlns="http://www.w3.org/2000/svg" fill="none" viewBox="0 0 24 24" id="Pencil-Edit-Search--Streamline-Ultimate"><desc>Pencil Edit Search Streamline Icon: https://streamlinehq.com</desc><path stroke="#000000" stroke-linecap="round" stroke-linejoin="round" stroke-miterlimit="10" d="M15.75 20.9501c2.8719 0 5.2 -2.3282 5.2 -5.2 0 -2.8719 -2.3281 -5.2001 -5.2 -5.2001s-5.2 2.3282 -5.2 5.2001c0 2.8718 2.3281 5.2 5.2 5.2Z" stroke-width="1"></path><path stroke="#000000" stroke-linecap="round" stroke-linejoin="round" stroke-miterlimit="10" d="m23.25 23.2502 -3.8 -3.8" stroke-width="1"></path><path stroke="#000000" stroke-linecap="round" stroke-linejoin="round" stroke-miterlimit="10" d="M7.6347 21.449 0.75 23.25l1.79601 -6.9037M7.6347 21.449l-5.08869 -5.1027M7.6347 21.449l0.89801 -0.9005m-5.9867 -4.2022L17.0139 1.83841c1.3969 -1.400756 3.6918 -1.500811 5.1884 0 1.3969 1.40076 1.3969 3.70196 0 5.20278l-1.6962 1.70093M16.6147 2.2386l5.1957 5.19563m-4.2977 0.90778 -3.4922 -3.5019" stroke-width="1"></path></svg>