<svg xmlns="http://www.w3.org/2000/svg" fill="none" viewBox="0 0 24 24" id="Pencil-Edit-Wifi--Streamline-Ultimate"><desc>Pencil Edit Wifi Streamline Icon: https://streamlinehq.com</desc><path stroke="#000000" stroke-linecap="round" stroke-linejoin="round" stroke-miterlimit="10" d="M17.25 22.4502c-0.2 0 -0.4 0.2 -0.4 0.4s0.2 0.4 0.4 0.4" stroke-width="1"></path><path stroke="#000000" stroke-linecap="round" stroke-linejoin="round" stroke-miterlimit="10" d="M17.25 22.4502c0.2 0 0.4 0.2 0.4 0.4s-0.2 0.4 -0.4 0.4" stroke-width="1"></path><path stroke="#000000" stroke-linecap="round" stroke-linejoin="round" stroke-miterlimit="10" d="M23.25 15.6503c-3.5 -2.8 -8.5 -2.8 -12 0" stroke-width="1"></path><path stroke="#000000" stroke-linecap="round" stroke-linejoin="round" stroke-miterlimit="10" d="M13.75 19.2503c2 -1.7 5 -1.7 7 0" stroke-width="1"></path><path stroke="#000000" stroke-linecap="round" stroke-linejoin="round" stroke-miterlimit="10" d="M7.6347 21.449 0.75 23.25l1.79601 -6.9037M7.6347 21.449l-5.08869 -5.1027M7.6347 21.449l1.97165 -1.9716m-7.06034 -3.1311L17.0139 1.83841c1.3969 -1.400756 3.6918 -1.500811 5.1884 0 1.3969 1.40076 1.3969 3.70196 0 5.20278L18.454 10.7895m-1.8393 -8.5509 5.1957 5.19563M19.212 10.0316l-5.1915 -5.19149" stroke-width="1"></path></svg>