<svg xmlns="http://www.w3.org/2000/svg" fill="none" viewBox="0 0 24 24" id="Pencil-Edit-Location--Streamline-Ultimate"><desc>Pencil Edit Location Streamline Icon: https://streamlinehq.com</desc><path stroke="#000000" stroke-linecap="round" stroke-linejoin="round" stroke-miterlimit="10" d="M18.75 15.5503c-0.2 0 -0.4 0.2 -0.4 0.4s0.2 0.3999 0.4 0.3999" stroke-width="1"></path><path stroke="#000000" stroke-linecap="round" stroke-linejoin="round" stroke-miterlimit="10" d="M18.75 15.55c0.2 0 0.4 0.2001 0.4 0.4001s-0.2 0.3999 -0.4 0.3999" stroke-width="1"></path><path stroke="#000000" stroke-linecap="round" stroke-linejoin="round" stroke-miterlimit="10" d="M18.75 11.3501c2.5 0 4.5 2 4.5 4.5 0 1.9 -2.7 5.6001 -3.9 7.1001 -0.1 0.2 -0.4 0.2999 -0.6 0.2999 -0.2 0 -0.4 -0.0999 -0.6 -0.2999 -1.2 -1.6 -3.9 -5.2001 -3.9 -7.1001 0 -2.4 2.1 -4.5 4.5 -4.5Z" stroke-width="1"></path><path stroke="#000000" stroke-linecap="round" stroke-linejoin="round" stroke-miterlimit="10" d="M7.6347 21.449 0.75 23.25l1.79601 -6.9037M7.6347 21.449l-5.08869 -5.1027M7.6347 21.449l4.1499 -4.1499m-9.23859 -0.9528L17.0139 1.83841c1.3969 -1.400756 3.6918 -1.500811 5.1884 0 1.3969 1.40076 1.3969 3.70196 0 5.20278l-1.6962 1.70093M16.6147 2.2386l5.1957 5.19563m-4.2977 0.90778 -3.4922 -3.5019" stroke-width="1"></path></svg>