<svg xmlns="http://www.w3.org/2000/svg" fill="none" viewBox="0 0 24 24" id="Pencil-Edit-Share-1--Streamline-Ultimate"><desc>Pencil Edit Share 1 Streamline Icon: https://streamlinehq.com</desc><path stroke="#000000" stroke-linecap="round" stroke-linejoin="round" stroke-miterlimit="10" d="m14.2611 12.921 -3.6973 0.4997 0.4996 -3.69734 8.294 -8.29397c0.8993 -0.899344 2.2983 -0.899344 3.1977 0 0.8993 0.89935 0.8993 2.29829 0 3.19763l-8.294 8.29398Z" stroke-width="1"></path><path stroke="#000000" stroke-linecap="round" stroke-linejoin="round" stroke-miterlimit="10" d="m18.3581 2.52856 3.0978 3.19769" stroke-width="1"></path><path stroke="#000000" stroke-linecap="round" stroke-linejoin="round" d="m12.7039 19.4881 4.2269 -1.4049c0.6662 -0.2225 1.4337 -0.0698 1.9639 0.3909 0.2317 0.1843 0.9465 1.066 0.2297 1.4284 -9.0066 4.5534 -7.377 3.9209 -15.08833 1.2736 -0.47053 -0.1615 -0.98588 -0.1369 -1.44095 0.0641l-1.614552 0.7132" stroke-width="1"></path><path stroke="#000000" stroke-linecap="round" stroke-linejoin="round" d="M8.62057 19.5118h3.52423c0.4426 0 1.1139 -0.383 1.1139 -1.3617 0 -0.7872 -0.6917 -1.1431 -1.2553 -1.1431H9.70713c-0.96304 -0.9939 -2.27347 -1.5763 -3.65651 -1.6252H3.99888c-0.87128 0 -2.12788 0.5548 -3.228479 1.009" stroke-width="1"></path></svg>