<svg xmlns="http://www.w3.org/2000/svg" fill="none" viewBox="0 0 24 24" id="Pencil-Edit-Laptop--Streamline-Ultimate"><desc>Pencil Edit Laptop Streamline Icon: https://streamlinehq.com</desc><path stroke="#000000" stroke-linecap="round" stroke-linejoin="round" stroke-miterlimit="10" d="M21.9885 12.7494v5.9947H11.4978v-5.9947c0 -0.7993 0.6994 -1.4987 1.4987 -1.4987h7.4933c0.7993 0.0999 1.4987 0.6994 1.4987 1.4987Z" stroke-width="1"></path><path stroke="#000000" stroke-linecap="round" stroke-linejoin="round" stroke-miterlimit="10" d="M11.4978 18.7439h10.4907l1.1989 3.4969c0.1999 0.4995 -0.1998 0.9991 -0.6993 0.9991H11.0982c-0.4996 0 -0.8992 -0.4996 -0.6994 -0.9991l1.099 -3.4969Z" stroke-width="1"></path><path stroke="#000000" stroke-linecap="round" stroke-linejoin="round" stroke-miterlimit="10" d="M2.55441 16.3424 0.759998 23.24l6.878582 -1.7994 -5.08417 -5.0982Zm0 0L17.0094 1.84746c1.3957 -1.399519 3.6885 -1.499484 5.1839 0 1.3956 1.39951 1.3956 3.69867 0 5.19815l-1.6948 1.69942m-3.8879 -6.49774 5.1911 5.19101m-4.2939 0.90697 -3.4891 -3.49879" stroke-width="1"></path></svg>