<svg xmlns="http://www.w3.org/2000/svg" fill="none" viewBox="0 0 24 24" id="Pencil-Edit-Mail--Streamline-Ultimate"><desc>Pencil Edit Mail Streamline Icon: https://streamlinehq.com</desc><path stroke="#000000" stroke-linecap="round" stroke-linejoin="round" stroke-miterlimit="10" d="M23.25 15.75v6c0 0.8 -0.7 1.5 -1.5 1.5h-9c-0.8 0 -1.5 -0.7 -1.5 -1.5v-6" stroke-width="1"></path><path stroke="#000000" stroke-linecap="round" stroke-linejoin="round" stroke-miterlimit="10" d="M23.25 15.75c0 -0.8 -0.7 -1.5 -1.5 -1.5h-9c-0.8 0 -1.5 0.7 -1.5 1.5l5.2 3.3c0.5 0.3 1.1 0.3 1.6 0l5.2 -3.3Z" stroke-width="1"></path><path stroke="#000000" stroke-linecap="round" stroke-linejoin="round" stroke-miterlimit="10" d="M7.6347 21.449 0.75 23.25l1.79601 -6.9037M7.6347 21.449l-5.08869 -5.1027M7.6347 21.449l0.89801 -0.9005m-5.9867 -4.2022L17.0139 1.83841c1.3969 -1.400756 3.6918 -1.500811 5.1884 0 1.3969 1.40076 1.3969 3.70196 0 5.20278l-4.1671 4.16721m-1.4205 -8.9698 5.1957 5.19563M19.212 10.0316l-5.1915 -5.19149" stroke-width="1"></path></svg>