<svg xmlns="http://www.w3.org/2000/svg" fill="none" viewBox="0 0 24 24" id="Pencil-Edit-Photo--Streamline-Ultimate"><desc>Pencil Edit Photo Streamline Icon: https://streamlinehq.com</desc><path stroke="#000000" stroke-linecap="round" stroke-linejoin="round" stroke-miterlimit="10" d="M21.75 23.25h-9c-0.8 0 -1.5 -0.7 -1.5 -1.5v-9c0 -0.8 0.7 -1.5 1.5 -1.5h9c0.8 0 1.5 0.7 1.5 1.5v9c0 0.9 -0.7 1.5 -1.5 1.5Z" stroke-width="1"></path><path stroke="#000000" stroke-linecap="round" stroke-linejoin="round" stroke-miterlimit="10" d="M15.35 14.25c-0.2 0 -0.4 0.2 -0.4 0.4s0.2 0.4 0.4 0.4" stroke-width="1"></path><path stroke="#000000" stroke-linecap="round" stroke-linejoin="round" stroke-miterlimit="10" d="M15.35 14.25c0.2 0 0.4 0.2 0.4 0.4s-0.2 0.4 -0.4 0.4" stroke-width="1"></path><path stroke="#000000" stroke-linecap="round" stroke-linejoin="round" stroke-miterlimit="10" d="m23.25 21.0499 -2.4 -3.6c-0.1 -0.2 -0.4 -0.3 -0.6 -0.3 -0.2 0 -0.5 0.1 -0.6 0.3l-2 2.9 -1.2 -1c-0.2 -0.1 -0.4 -0.2 -0.6 -0.2 -0.2 0 -0.4 0.1999 -0.5 0.2999l-2.5 3.8001" stroke-width="1"></path><path stroke="#000000" stroke-linecap="round" stroke-linejoin="round" stroke-miterlimit="10" d="M7.6347 21.449 0.749999 23.25l1.796011 -6.9037M7.6347 21.449l-5.08869 -5.1027M7.6347 21.449l0.89801 -0.9005m-5.9867 -4.2022L17.0139 1.83841c1.3969 -1.400756 3.6918 -1.500811 5.1884 0 1.3969 1.40076 1.3969 3.70196 0 5.20278l-1.6962 1.70093M16.6147 2.2386l5.1957 5.19563m-4.2977 0.90778 -3.4922 -3.5019" stroke-width="1"></path></svg>