<svg xmlns="http://www.w3.org/2000/svg" fill="none" viewBox="0 0 24 24" id="Pencil-Edit-Phone--Streamline-Ultimate"><desc>Pencil Edit Phone Streamline Icon: https://streamlinehq.com</desc><path stroke="#000000" stroke-linecap="round" stroke-linejoin="round" stroke-miterlimit="10" d="M19.55 19.9502c-0.2 0 -0.4 0.1 -0.4 0.4 0 0.2 0.2 0.3999 0.4 0.3999" stroke-width="1"></path><path stroke="#000000" stroke-linecap="round" stroke-linejoin="round" stroke-miterlimit="10" d="M19.55 19.9502c0.2 0 0.4 0.1 0.4 0.4 0 0.2 -0.2 0.3999 -0.4 0.3999" stroke-width="1"></path><path stroke="#000000" stroke-linecap="round" stroke-linejoin="round" stroke-miterlimit="10" d="M23.25 21.75c0 0.8 -0.7 1.5 -1.5 1.5h-4.5c-0.8 0 -1.5 -0.7 -1.5 -1.5v-9c0 -0.8 0.7 -1.5 1.5 -1.5h4.5c0.8 0 1.5 0.7 1.5 1.5v9Z" stroke-width="1"></path><path stroke="#000000" stroke-linecap="round" stroke-linejoin="round" stroke-miterlimit="10" d="M7.6347 21.449 0.75 23.25l1.79601 -6.9037M7.6347 21.449l-5.08869 -5.1027M7.6347 21.449l4.8848 -4.8848m-9.97349 -0.2179L17.0139 1.83841c1.3969 -1.400756 3.6918 -1.500811 5.1884 0 1.3969 1.40076 1.3969 3.70196 0 5.20278l-1.04 1.04003M16.6147 2.2386l5.1957 5.19563m-4.2977 0.90778 -3.4922 -3.5019" stroke-width="1"></path></svg>