<svg xmlns="http://www.w3.org/2000/svg" fill="none" viewBox="0 0 24 24" id="Pencil-Edit-Charge--Streamline-Ultimate"><desc>Pencil Edit Charge Streamline Icon: https://streamlinehq.com</desc><path stroke="#000000" stroke-linecap="round" stroke-linejoin="round" stroke-miterlimit="10" d="m20.35 9.75 -5.9 6.9c-0.1 0.1 -0.1 0.3 -0.1 0.4 0.1 0.1 0.2 0.1999 0.3 0.1999h2.6v6l5.9 -6.8999c0.1 -0.1 0.1 -0.3 0.1 -0.4 -0.1 -0.1 -0.2 -0.2001 -0.3 -0.2001h-2.6V9.75Z" stroke-width="1"></path><path stroke="#000000" stroke-linecap="round" stroke-linejoin="round" stroke-miterlimit="10" d="M7.6347 21.449 0.75 23.25l1.79601 -6.9037M7.6347 21.449l-5.08869 -5.1027M7.6347 21.449l3.3649 -3.3649m-8.45359 -1.7378L17.0139 1.83841c1.3969 -1.400756 3.6918 -1.500811 5.1884 0 1.3969 1.40076 1.3969 3.70196 0 5.20278l-0.3925 0.3925 -5.1951 -5.19509m0.898 6.10341 -3.4922 -3.5019" stroke-width="1"></path></svg>