<svg viewBox="0 0 24 24" xmlns="http://www.w3.org/2000/svg" id="Card-Game-Cards-Hold--Streamline-Ultimate"><desc>Card Game Cards Hold Streamline Icon: https://streamlinehq.com</desc><path d="M7 12.75V2.25A1.5 1.5 0 0 1 8.5 0.75h6a1.5 1.5 0 0 1 1.5 1.5v10.5a1.5 1.5 0 0 1 -1.5 1.5h-3.881" fill="none" stroke="#000000" stroke-linecap="round" stroke-linejoin="round" stroke-width="1"></path><path d="m16.037 2.76 4.105 1.114a1.5 1.5 0 0 1 1.058 1.84l-2.752 10.134a1.5 1.5 0 0 1 -1.841 1.052l-5.391 -1.46" fill="none" stroke="#000000" stroke-linecap="round" stroke-linejoin="round" stroke-width="1"></path><path d="m13 23.25 0 -3 -9 0 0 3" fill="none" stroke="#000000" stroke-linecap="round" stroke-linejoin="round" stroke-width="1"></path><path d="m7 12.75 1.725 -2.874a1.272 1.272 0 0 1 1.494 -0.553h0A1.273 1.273 0 0 1 11 11l-1 2.5h0a5.122 5.122 0 0 1 1.5 3.621v3.129h-6l-2.612 -6.162a4.491 4.491 0 0 1 -0.288 -2.77L4.279 4.45A2.783 2.783 0 0 1 7 2.25h0" fill="none" stroke="#000000" stroke-linecap="round" stroke-linejoin="round" stroke-width="1"></path></svg>