<svg id="Card-Game-Card-Club--Streamline-Ultimate" xmlns="http://www.w3.org/2000/svg" viewBox="0 0 24 24"><desc>Card Game Card Club Streamline Icon: https://streamlinehq.com</desc><defs></defs><title>card-game-card-club</title><path d="M4.75 0.75h14.5s1 0 1 1v20.5s0 1 -1 1H4.75s-1 0 -1 -1V1.75s0 -1 1 -1" fill="none" stroke="#000000" stroke-linecap="round" stroke-linejoin="round" stroke-width="1"></path><path d="M14.25 14.25a2.25 2.25 0 0 0 0 -4.5c-0.049 0 -0.094 0.011 -0.142 0.014A2.224 2.224 0 0 0 14.25 9a2.25 2.25 0 0 0 -4.5 0 2.224 2.224 0 0 0 0.142 0.764c-0.048 0 -0.093 -0.014 -0.142 -0.014a2.25 2.25 0 0 0 0 4.5Z" fill="none" stroke="#000000" stroke-linecap="round" stroke-linejoin="round" stroke-width="1"></path><path d="m12 14.25 0 2.25" fill="none" stroke="#000000" stroke-linecap="round" stroke-linejoin="round" stroke-width="1"></path></svg>