<svg xmlns="http://www.w3.org/2000/svg" fill="none" viewBox="0 0 24 24" id="History-Epgyptian-Mythology--Streamline-Ultimate"><desc>History Epgyptian Mythology Streamline Icon: https://streamlinehq.com</desc><path stroke="#000000" stroke-linecap="round" stroke-linejoin="round" d="m0.75 22.761 3.621 -6.129c0.834 -1.4109 2.02129 -2.5801 3.44483 -3.3924C9.23938 12.4274 10.85 12.0001 12.489 12h4.076c0.7784 0 1.5249 0.3092 2.0754 0.8596 0.5504 0.5505 0.8596 1.297 0.8596 2.0754v2.357c-0.0001 1.1142 -0.3105 2.2064 -0.8964 3.1541 -0.5858 0.9478 -1.424 1.7137 -2.4206 2.2119L15 23.25" stroke-width="1"></path><path stroke="#000000" stroke-linecap="round" stroke-linejoin="round" d="M19.5 15h-6c-0.7956 0 -1.5587 0.3161 -2.1213 0.8787 -0.5626 0.5626 -0.8787 1.3257 -0.8787 2.1213 0 0.7956 0.3161 1.5587 0.8787 2.1213 0.5626 0.5626 1.3257 0.8787 2.1213 0.8787" stroke-width="1"></path><path stroke="#000000" stroke-linecap="round" stroke-linejoin="round" d="M6.75003 6.375v0.668c0 0.51903 -0.20618 1.0168 -0.57319 1.38381C5.80983 8.79382 5.31206 9 4.79303 9" stroke-width="1"></path><path stroke="#000000" stroke-linecap="round" stroke-linejoin="round" d="M12.375 12C15.4816 12 18 9.4816 18 6.375S15.4816 0.75 12.375 0.75 6.75 3.2684 6.75 6.375 9.2684 12 12.375 12Z" stroke-width="1"></path><path stroke="#000000" stroke-linecap="round" stroke-linejoin="round" d="M19.5 15.75c0.8459 0 1.6658 0.2932 2.3199 0.8296 0.6542 0.5363 1.1023 1.2828 1.2681 2.1124l0.162 0.808h-4.171" stroke-width="1"></path><path stroke="#000000" stroke-linecap="round" stroke-linejoin="round" d="M23.25 5.08701h-1.141c-0.1927 -0.00014 -0.3836 0.03771 -0.5617 0.11138 -0.1781 0.07366 -0.3399 0.1817 -0.4763 0.31794 -0.1363 0.13623 -0.2444 0.298 -0.3182 0.47605 -0.0738 0.17805 -0.1118 0.36889 -0.1118 0.56163 -0.0001 0.38801 -0.0926 0.77043 -0.2697 1.11569 -0.177 0.34525 -0.4337 0.64345 -0.7487 0.86998 -0.315 0.22653 -0.6794 0.37489 -1.0631 0.43285 -0.3837 0.05796 -0.7756 0.02384 -1.1435 -0.09952" stroke-width="1"></path><path stroke="#000000" d="M15.375 18c-0.2071 0 -0.375 -0.1679 -0.375 -0.375s0.1679 -0.375 0.375 -0.375" stroke-width="1"></path><path stroke="#000000" d="M15.375 18c0.2071 0 0.375 -0.1679 0.375 -0.375s-0.1679 -0.375 -0.375 -0.375" stroke-width="1"></path></svg>