<svg xmlns="http://www.w3.org/2000/svg" viewBox="0 0 24 24" id="History-Noah&apos;S-Ark--Streamline-Ultimate"><desc>History Noahs Ark Streamline Icon: https://streamlinehq.com</desc><g><path d="M23.25 13.5a1.5 1.5 0 0 0 -1.5 1.5v0.75a6 6 0 0 1 -6 6h-6a6 6 0 0 1 -6 -6l0.5 -4a1.76 1.76 0 0 0 -0.42 -1.39 1.8 1.8 0 0 0 -1.32 -0.59 1.76 1.76 0 0 0 -1.76 1.74V12" fill="none" stroke="#000000" stroke-linecap="round" stroke-linejoin="round" stroke-width="1"></path><path d="M17.25 17.25a6 6 0 0 0 2.75 -0.63l1.73 -0.87" fill="none" stroke="#000000" stroke-linecap="round" stroke-linejoin="round" stroke-width="1"></path><path d="m11.25 17.25 3 0" fill="none" stroke="#000000" stroke-linecap="round" stroke-linejoin="round" stroke-width="1"></path><path d="m3.75 15.75 1.73 0.87a6.15 6.15 0 0 0 2.77 0.63" fill="none" stroke="#000000" stroke-linecap="round" stroke-linejoin="round" stroke-width="1"></path><path d="m14.25 0.75 0 16.5" fill="none" stroke="#000000" stroke-linecap="round" stroke-linejoin="round" stroke-width="1"></path><path d="M11.25 13.38a6 6 0 0 1 0 -11.13" fill="none" stroke="#000000" stroke-linecap="round" stroke-linejoin="round" stroke-width="1"></path><path d="M8.25 17.25a1.5 1.5 0 1 0 3 0 1.5 1.5 0 1 0 -3 0" fill="none" stroke="#000000" stroke-linecap="round" stroke-linejoin="round" stroke-width="1"></path><path d="M14.25 17.25a1.5 1.5 0 1 0 3 0 1.5 1.5 0 1 0 -3 0" fill="none" stroke="#000000" stroke-linecap="round" stroke-linejoin="round" stroke-width="1"></path><path d="m12.75 23.25 -1.88 -5.01" fill="none" stroke="#000000" stroke-linecap="round" stroke-linejoin="round" stroke-width="1"></path><path d="m18.75 23.25 -1.88 -5.01" fill="none" stroke="#000000" stroke-linecap="round" stroke-linejoin="round" stroke-width="1"></path></g></svg>