<svg xmlns="http://www.w3.org/2000/svg" fill="none" viewBox="0 0 24 24" id="History-Piggy--Streamline-Ultimate"><desc>History Piggy Streamline Icon: https://streamlinehq.com</desc><path stroke="#000000" stroke-linecap="round" stroke-linejoin="round" d="M21.252 10.416c0.6851 2.0619 0.6629 4.2935 -0.0633 6.3413 -0.7261 2.0479 -2.1146 3.795 -3.9457 4.9647L15 21l-3 2.25L9.00001 21l-2.243 0.722c-1.83104 -1.1697 -3.21957 -2.9168 -3.94571 -4.9647 -0.72615 -2.0478 -0.74842 -4.2794 -0.06329 -6.3413" stroke-width="1"></path><path stroke="#000000" stroke-linecap="round" stroke-linejoin="round" d="M11.25 18.75h1.5" stroke-width="1"></path><path stroke="#000000" stroke-linecap="round" stroke-linejoin="round" d="M0.75 7.5h22.5" stroke-width="1"></path><path stroke="#000000" stroke-linecap="round" stroke-linejoin="round" d="m18.75 7.5 -1.189 -5.662c-0.0895 -0.31339 -0.2787 -0.5891 -0.5389 -0.7854C16.762 0.85629 16.4449 0.750067 16.119 0.75H7.881c-0.32593 0.000067 -0.64296 0.10629 -0.90314 0.3026 -0.26018 0.1963 -0.44934 0.47201 -0.53886 0.7854L5.25 7.5" stroke-width="1"></path><path stroke="#000000" stroke-linecap="round" stroke-linejoin="round" d="M14.25 15h-4.5v-0.75c0 -0.5967 0.23705 -1.169 0.659 -1.591 0.422 -0.4219 0.9943 -0.659 1.591 -0.659s1.169 0.2371 1.591 0.659c0.4219 0.422 0.659 0.9943 0.659 1.591V15Z" stroke-width="1"></path><path stroke="#000000" stroke-linecap="round" stroke-linejoin="round" d="m10.5 3 3 2.25" stroke-width="1"></path><path stroke="#000000" stroke-linecap="round" stroke-linejoin="round" d="m13.5 3 -3 2.25" stroke-width="1"></path><path stroke="#000000" d="M7.875 11.25c-0.20711 0 -0.375 -0.1679 -0.375 -0.375s0.16789 -0.375 0.375 -0.375" stroke-width="1"></path><path stroke="#000000" d="M7.875 11.25c0.20711 0 0.375 -0.1679 0.375 -0.375s-0.16789 -0.375 -0.375 -0.375" stroke-width="1"></path><g><path stroke="#000000" d="M16.125 11.25c-0.2071 0 -0.375 -0.1679 -0.375 -0.375s0.1679 -0.375 0.375 -0.375" stroke-width="1"></path><path stroke="#000000" d="M16.125 11.25c0.2071 0 0.375 -0.1679 0.375 -0.375s-0.1679 -0.375 -0.375 -0.375" stroke-width="1"></path></g></svg>