<svg viewBox="0 0 24 24" xmlns="http://www.w3.org/2000/svg" id="History-Eye-Mythology--Streamline-Ultimate"><desc>History Eye Mythology Streamline Icon: https://streamlinehq.com</desc><path d="M14.257 10.5a1.5 1.5 0 1 0 3 0 1.5 1.5 0 1 0 -3 0Z" fill="none" stroke="#000000" stroke-linecap="round" stroke-linejoin="round" stroke-width="1"></path><path d="M22.128 10.257a0.452 0.452 0 0 1 0 0.487 7.542 7.542 0 0 1 -12.742 0 0.452 0.452 0 0 1 0 -0.487 7.54 7.54 0 0 1 12.742 0Z" fill="none" stroke="#000000" stroke-linecap="round" stroke-linejoin="round" stroke-width="1"></path><path d="M23.25 6.75A10.664 10.664 0 0 0 15.43 3a10.663 10.663 0 0 0 -7.819 3.75H0.769" fill="none" stroke="#000000" stroke-linecap="round" stroke-linejoin="round" stroke-width="1"></path><path d="M9.315 10.5H0.769" fill="none" stroke="#000000" stroke-linecap="round" stroke-linejoin="round" stroke-width="1"></path><path d="m18.75 13.642 0 7.358" fill="none" stroke="#000000" stroke-linecap="round" stroke-linejoin="round" stroke-width="1"></path><path d="m15.861 14.249 -1.169 1.818A10.743 10.743 0 0 1 5.656 21H5.25a2.25 2.25 0 0 1 0 -4.5h1.632" fill="none" stroke="#000000" stroke-linecap="round" stroke-linejoin="round" stroke-width="1"></path></svg>