<svg viewBox="0 0 24 24" xmlns="http://www.w3.org/2000/svg" id="History-Chinese-Lantern--Streamline-Ultimate"><desc>History Chinese Lantern Streamline Icon: https://streamlinehq.com</desc><path d="M5.25 20.175v1.575a1.5 1.5 0 0 0 1.5 1.5h4.5a1.5 1.5 0 0 0 1.5 -1.5v-1.575" fill="none" stroke="#000000" stroke-linecap="round" stroke-linejoin="round" stroke-width="1"></path><path d="M12.75 12.825V11.25a1.5 1.5 0 0 0 -1.5 -1.5h-4.5a1.5 1.5 0 0 0 -1.5 1.5v1.575" fill="none" stroke="#000000" stroke-linecap="round" stroke-linejoin="round" stroke-width="1"></path><path d="m9 9.75 0 -6.927" fill="none" stroke="#000000" stroke-linecap="round" stroke-linejoin="round" stroke-width="1"></path><path d="M15.75 16.5A3.75 3.75 0 0 1 12 20.25H6a3.75 3.75 0 0 1 0 -7.5h6a3.75 3.75 0 0 1 3.75 3.75Z" fill="none" stroke="#000000" stroke-linecap="round" stroke-linejoin="round" stroke-width="1"></path><path d="M0.75 0.75s8.25 3 22.5 3.75" fill="none" stroke="#000000" stroke-linecap="round" stroke-linejoin="round" stroke-width="1"></path><path d="m1.5 0.999 0 3.501" fill="none" stroke="#000000" stroke-linecap="round" stroke-linejoin="round" stroke-width="1"></path><path d="m5.25 2.021 0 3.229" fill="none" stroke="#000000" stroke-linecap="round" stroke-linejoin="round" stroke-width="1"></path><path d="m12.75 3.457 0 3.293" fill="none" stroke="#000000" stroke-linecap="round" stroke-linejoin="round" stroke-width="1"></path><path d="m16.5 3.947 0 3.553" fill="none" stroke="#000000" stroke-linecap="round" stroke-linejoin="round" stroke-width="1"></path><path d="m20.25 4.304 0 3.946" fill="none" stroke="#000000" stroke-linecap="round" stroke-linejoin="round" stroke-width="1"></path><path d="M6.75 16.5a2.25 3.75 0 1 0 4.5 0 2.25 3.75 0 1 0 -4.5 0Z" fill="none" stroke="#000000" stroke-linecap="round" stroke-linejoin="round" stroke-width="1"></path></svg>