<svg viewBox="0 0 24 24" xmlns="http://www.w3.org/2000/svg" id="History-Armor-Shield--Streamline-Ultimate"><desc>History Armor Shield Streamline Icon: https://streamlinehq.com</desc><path d="M21 15a3 3 0 0 1 0 -6 0.527 0.527 0 0 0 0.514 -0.642 9.753 9.753 0 0 0 -19.028 0A0.527 0.527 0 0 0 3 9a3 3 0 0 1 0 6 0.527 0.527 0 0 0 -0.514 0.642 9.753 9.753 0 0 0 19.028 0A0.527 0.527 0 0 0 21 15Z" fill="none" stroke="#000000" stroke-linecap="round" stroke-linejoin="round" stroke-width="1"></path><path d="m12 5.25 0 13.5" fill="none" stroke="#000000" stroke-linecap="round" stroke-linejoin="round" stroke-width="1"></path><path d="m16.243 6.75 -8.486 10.5" fill="none" stroke="#000000" stroke-linecap="round" stroke-linejoin="round" stroke-width="1"></path><path d="m7.757 6.75 8.486 10.5" fill="none" stroke="#000000" stroke-linecap="round" stroke-linejoin="round" stroke-width="1"></path><path d="m9 12 6 0" fill="none" stroke="#000000" stroke-linecap="round" stroke-linejoin="round" stroke-width="1"></path></svg>