<svg xmlns="http://www.w3.org/2000/svg" fill="none" viewBox="0 0 24 24" id="History-Geisha--Streamline-Ultimate"><desc>History Geisha Streamline Icon: https://streamlinehq.com</desc><path stroke="#000000" stroke-linecap="round" stroke-linejoin="round" d="M14.905 3h4.921" stroke-width="1"></path><path stroke="#000000" stroke-linecap="round" stroke-linejoin="round" d="M2.70703 3h6.388" stroke-width="1"></path><path stroke="#000000" stroke-linecap="round" stroke-linejoin="round" d="M9.26 4.97C4.371 6.087 0.750001 10.125 0.750001 14.935c-0.00033 0.7183 0.081535 1.4343 0.244 2.134 0.030429 0.1294 0.086859 0.2513 0.165849 0.3583 0.07899 0.1069 0.1789 0.1967 0.29366 0.2639 0.11475 0.0671 0.24196 0.1102 0.3739 0.1267s0.26584 0.006 0.39359 -0.0309l2.53 -0.738" stroke-width="1"></path><path stroke="#000000" stroke-linecap="round" stroke-linejoin="round" d="m19.249 17.049 2.53 0.738c0.1277 0.037 0.2617 0.0477 0.3937 0.0312 0.132 -0.0164 0.2592 -0.0595 0.374 -0.1266 0.1148 -0.0672 0.2147 -0.1571 0.2937 -0.2641 0.0789 -0.107 0.1353 -0.229 0.1656 -0.3585 0.1625 -0.6997 0.2443 -1.4157 0.244 -2.134 0 -4.81 -3.621 -8.848 -8.51 -9.965" stroke-width="1"></path><path stroke="#000000" stroke-linecap="round" stroke-linejoin="round" d="M18.1001 11.829c-0.3089 -0.4601 -0.7577 -0.8086 -1.2799 -0.9939 -0.5223 -0.1854 -1.0903 -0.1976 -1.6201 -0.0351 -0.9649 0.2928 -1.8426 0.8194 -2.555 1.533 -0.0853 0.0855 -0.1866 0.1533 -0.2982 0.1996 -0.1115 0.0463 -0.2311 0.0701 -0.3518 0.0701 -0.1208 0 -0.2404 -0.0238 -0.3519 -0.0701 -0.1116 -0.0463 -0.2129 -0.1141 -0.2981 -0.1996 -0.7097 -0.7122 -1.58372 -1.2387 -2.54504 -1.533 -0.5298 -0.1625 -1.09785 -0.1503 -1.62012 0.0351 -0.52227 0.1853 -0.97102 0.5338 -1.27988 0.9939 -0.73975 1.1045 -1.16554 2.3892 -1.23186 3.7169 -0.06633 1.3276 0.2293 2.6484 0.8553 3.8211 0.626 1.1727 1.55884 2.1533 2.69886 2.837 1.14001 0.6838 2.44434 1.0449 3.77374 1.0449 1.3293 0 2.6336 -0.3611 3.7737 -1.0449 1.14 -0.6837 2.0728 -1.6643 2.6988 -2.837 0.626 -1.1727 0.9216 -2.4935 0.8553 -3.8211 -0.0663 -1.3277 -0.4921 -2.6124 -1.2318 -3.7169h0.008Z" stroke-width="1"></path><path stroke="#000000" stroke-linecap="round" stroke-linejoin="round" d="M7.59998 14.372c0.4154 -0.1338 0.85815 -0.1592 1.28611 -0.0736 0.42796 0.0856 0.82691 0.2793 1.15891 0.5626" stroke-width="1"></path><path stroke="#000000" stroke-linecap="round" stroke-linejoin="round" d="M16.4 14.372c-0.4155 -0.1338 -0.8582 -0.1592 -1.2862 -0.0736 -0.4279 0.0856 -0.8269 0.2793 -1.1588 0.5626" stroke-width="1"></path><path stroke="#000000" stroke-linecap="round" stroke-linejoin="round" d="M12 6.75c1.6569 0 3 -1.34315 3 -3s-1.3431 -3 -3 -3 -3 1.34315 -3 3 1.3431 3 3 3Z" stroke-width="1"></path><path stroke="#000000" d="M12 20.25c-0.2071 0 -0.375 -0.1679 -0.375 -0.375s0.1679 -0.375 0.375 -0.375" stroke-width="1"></path><path stroke="#000000" d="M12 20.25c0.2071 0 0.375 -0.1679 0.375 -0.375S12.2071 19.5 12 19.5" stroke-width="1"></path></svg>