<svg viewBox="0 0 24 24" xmlns="http://www.w3.org/2000/svg" id="History-Witch-Cauldron--Streamline-Ultimate"><desc>History Witch Cauldron Streamline Icon: https://streamlinehq.com</desc><path d="M3.75 14.25v0.375c0 3.935 3.694 7.125 8.25 7.125s8.25 -3.19 8.25 -7.125v-0.375" fill="none" stroke="#000000" stroke-linecap="round" stroke-linejoin="round" stroke-width="1"></path><path d="M6.47 19.913A2.25 2.25 0 0 1 4.5 23.25" fill="none" stroke="#000000" stroke-linecap="round" stroke-linejoin="round" stroke-width="1"></path><path d="M17.53 19.913a2.25 2.25 0 0 0 1.97 3.337" fill="none" stroke="#000000" stroke-linecap="round" stroke-linejoin="round" stroke-width="1"></path><path d="M12 14.25 12 6" fill="none" stroke="#000000" stroke-linecap="round" stroke-linejoin="round" stroke-width="1"></path><path d="M15 14.25 15 9" fill="none" stroke="#000000" stroke-linecap="round" stroke-linejoin="round" stroke-width="1"></path><path d="M9 14.25 9 7.5" fill="none" stroke="#000000" stroke-linecap="round" stroke-linejoin="round" stroke-width="1"></path><path d="M15.75 6.75a1.5 1.5 0 0 1 1.5 -1.5 1.5 1.5 0 0 0 1.5 -1.5" fill="none" stroke="#000000" stroke-linecap="round" stroke-linejoin="round" stroke-width="1"></path><path d="M9 4.5A1.5 1.5 0 0 1 10.5 3" fill="none" stroke="#000000" stroke-linecap="round" stroke-linejoin="round" stroke-width="1"></path><path d="M12.75 3.75a1.5 1.5 0 0 1 1.5 -1.5 1.5 1.5 0 0 0 1.5 -1.5" fill="none" stroke="#000000" stroke-linecap="round" stroke-linejoin="round" stroke-width="1"></path><path d="m1.5 14.25 21 0" fill="none" stroke="#000000" stroke-linecap="round" stroke-linejoin="round" stroke-width="1"></path></svg>