<svg viewBox="0 0 24 24" xmlns="http://www.w3.org/2000/svg" id="History-Armor--Streamline-Ultimate"><desc>History Armor Streamline Icon: https://streamlinehq.com</desc><path d="M4.5 13.5a7.5 7.5 0 1 0 15 0 7.5 7.5 0 1 0 -15 0Z" fill="none" stroke="#000000" stroke-linecap="round" stroke-linejoin="round" stroke-width="1"></path><path d="M16.499 7.501 18.75 5.25" fill="none" stroke="#000000" stroke-linecap="round" stroke-linejoin="round" stroke-width="1"></path><path d="M0.75 23.25 6 18" fill="none" stroke="#000000" stroke-linecap="round" stroke-linejoin="round" stroke-width="1"></path><path d="M18.75 5.25V3.331a1.5 1.5 0 0 1 1.026 -1.423L23.25 0.75l-1.158 3.474a1.5 1.5 0 0 1 -1.423 1.026Z" fill="none" stroke="#000000" stroke-linecap="round" stroke-linejoin="round" stroke-width="1"></path><path d="M7.502 7.502 5.25 5.25" fill="none" stroke="#000000" stroke-linecap="round" stroke-linejoin="round" stroke-width="1"></path><path d="m23.25 23.25 -5.249 -5.249" fill="none" stroke="#000000" stroke-linecap="round" stroke-linejoin="round" stroke-width="1"></path><path d="M5.25 5.25H3.331a1.5 1.5 0 0 1 -1.423 -1.026L0.75 0.75l3.474 1.158A1.5 1.5 0 0 1 5.25 3.331Z" fill="none" stroke="#000000" stroke-linecap="round" stroke-linejoin="round" stroke-width="1"></path><path d="m9 16.5 2.315 -5.555a0.75 0.75 0 0 1 1.37 0L15 16.5" fill="none" stroke="#000000" stroke-linecap="round" stroke-linejoin="round" stroke-width="1"></path></svg>