<svg viewBox="0 0 24 24" xmlns="http://www.w3.org/2000/svg" id="History-Vase--Streamline-Ultimate"><desc>History Vase Streamline Icon: https://streamlinehq.com</desc><path d="m1.775 10.5 20.45 0" fill="none" stroke="#000000" stroke-linecap="round" stroke-linejoin="round" stroke-width="1"></path><path d="m2.317 18 19.366 0" fill="none" stroke="#000000" stroke-linecap="round" stroke-linejoin="round" stroke-width="1"></path><path d="M22.468 15h-5.49a0.489 0.489 0 0 1 -0.489 -0.489v-0.522A0.489 0.489 0 0 0 16 13.5h-2.024a0.489 0.489 0 0 0 -0.489 0.489v0.522A0.489 0.489 0 0 1 13 15h-2.015a0.489 0.489 0 0 1 -0.489 -0.489v-0.522a0.489 0.489 0 0 0 -0.489 -0.489H7.981a0.489 0.489 0 0 0 -0.489 0.489v0.522A0.489 0.489 0 0 1 7 15H1.531" fill="none" stroke="#000000" stroke-linecap="round" stroke-linejoin="round" stroke-width="1"></path><path d="M14.25 0.75V2.1a3 3 0 0 0 1.389 2.531l4.082 2.6a6 6 0 0 1 2.779 5.063v1.956a9 9 0 0 1 -9 9h-3a9 9 0 0 1 -9 -9v-1.956a6 6 0 0 1 2.779 -5.062l4.082 -2.6A3 3 0 0 0 9.75 2.1V0.75" fill="none" stroke="#000000" stroke-linecap="round" stroke-linejoin="round" stroke-width="1"></path><path d="m7.5 0.75 9 0" fill="none" stroke="#000000" stroke-linecap="round" stroke-linejoin="round" stroke-width="1"></path></svg>