<svg xmlns="http://www.w3.org/2000/svg" fill="none" viewBox="0 0 24 24" id="Alarm-Bell-Cog-Setting--Streamline-Ultimate"><desc>Alarm Bell Cog Setting Streamline Icon: https://streamlinehq.com</desc><path stroke="#000000" stroke-linecap="round" stroke-linejoin="round" d="M15.834 19.5533H0.821793s1.251017 -1.9424 1.251017 -6.8806c0 -1.6589 0.65901 -3.24991 1.83207 -4.42297 1.17305 -1.17305 2.76406 -1.83207 4.42301 -1.83207V4.54114" stroke-width="1"></path><path stroke="#000000" stroke-linecap="round" stroke-linejoin="round" d="M15.8345 19.5532s-0.559 -0.868 -0.9297 -2.9187" stroke-width="1"></path><path stroke="#000000" stroke-linecap="round" stroke-linejoin="round" d="M6.65829 21.9007c0.10594 0.3609 0.32591 0.6777 0.62697 0.9031 0.30107 0.2254 0.66705 0.3472 1.04314 0.3472 0.37609 0 0.74207 -0.1218 1.04314 -0.3472 0.30107 -0.2254 0.52103 -0.5422 0.62697 -0.9031" stroke-width="1"></path><path stroke="#000000" stroke-linecap="round" stroke-linejoin="round" d="M17.1812 9.09958c0.8284 0 1.5 -0.67157 1.5 -1.5 0 -0.82842 -0.6716 -1.5 -1.5 -1.5 -0.8285 0 -1.5 0.67158 -1.5 1.5 0 0.82843 0.6715 1.5 1.5 1.5Z" stroke-width="1"></path><path stroke="#000000" stroke-linecap="round" stroke-linejoin="round" d="m18.4556 1.79961 0.442 1.452c0.0728 0.2413 0.2345 0.44592 0.4525 0.57237 0.218 0.12646 0.476 0.16529 0.7215 0.10863l1.472 -0.341c0.279 -0.06288 0.5708 -0.03477 0.8327 0.0802 0.2619 0.11498 0.4801 0.31078 0.6226 0.55873 0.1425 0.24795 0.2019 0.53502 0.1695 0.81917 -0.0325 0.28415 -0.155 0.55045 -0.3498 0.7599l-1.031 1.111c-0.172 0.18503 -0.2677 0.42833 -0.2677 0.681 0 0.25267 0.0957 0.49598 0.2677 0.681l1.031 1.111c0.1952 0.20939 0.3182 0.47581 0.3508 0.76019 0.0327 0.2844 -0.0266 0.5717 -0.1692 0.8199 -0.1426 0.2482 -0.361 0.4442 -0.6231 0.5592 -0.2622 0.1149 -0.5543 0.1429 -0.8335 0.0797l-1.472 -0.342c-0.2454 -0.0549 -0.5026 -0.0154 -0.7202 0.1109 -0.2176 0.1262 -0.3796 0.3297 -0.4538 0.5701l-0.442 1.448c-0.0821 0.274 -0.2504 0.5143 -0.4799 0.6851 -0.2295 0.1708 -0.508 0.263 -0.7941 0.263 -0.286 0 -0.5645 -0.0922 -0.794 -0.263 -0.2295 -0.1708 -0.3978 -0.4111 -0.48 -0.6851l-0.442 -1.453c-0.0741 -0.2403 -0.2362 -0.4439 -0.4537 -0.5701 -0.2176 -0.1263 -0.4748 -0.1658 -0.7203 -0.1109l-1.472 0.342c-0.2792 0.0632 -0.5712 0.0352 -0.8334 -0.0797 -0.2621 -0.115 -0.4805 -0.311 -0.6231 -0.5592 -0.1426 -0.2482 -0.2019 -0.5355 -0.1693 -0.8199 0.0327 -0.28438 0.1557 -0.55081 0.3508 -0.76019l1.031 -1.111c0.1721 -0.18502 0.2678 -0.42833 0.2678 -0.681 0 -0.25267 -0.0957 -0.49597 -0.2678 -0.681l-1.031 -1.111c-0.1947 -0.20945 -0.3173 -0.47575 -0.3497 -0.7599 -0.0324 -0.28415 0.027 -0.57122 0.1695 -0.81917 0.1425 -0.24795 0.3607 -0.44375 0.6226 -0.55873 0.2618 -0.11497 0.5536 -0.14307 0.8326 -0.0802l1.472 0.341c0.2456 0.05666 0.5035 0.01783 0.7215 -0.10863 0.218 -0.12645 0.3798 -0.33107 0.4525 -0.57237l0.442 -1.452c0.0827 -0.27388 0.2515 -0.5138 0.4813 -0.68415 0.2299 -0.170346 0.5085 -0.262047 0.7946 -0.261485 0.2861 0.000561 0.5644 0.093353 0.7935 0.264605 0.2292 0.17125 0.397 0.41183 0.4786 0.68603v0Z" stroke-width="1"></path></svg>