<svg xmlns="http://www.w3.org/2000/svg" viewBox="0 0 24 24" id="Business-Product-Coin-Hand--Streamline-Ultimate"><desc>Business Product Coin Hand Streamline Icon: https://streamlinehq.com</desc><defs></defs><path d="M13.915 21.05h1.324a5 5 0 0 0 4.16 -2.226l3.576 -5.365a1.847 1.847 0 0 0 -0.383 -2.467h0a1.847 1.847 0 0 0 -2.336 0.024l-1.841 1.534v-8a1.5 1.5 0 0 0 -3 0v-2.5a1.5 1.5 0 0 0 -3 0v1.5a1.5 1.5 0 0 0 -3 0v3a1.5 1.5 0 1 0 -3 0v1.5" fill="none" stroke="#000000" stroke-linecap="round" stroke-linejoin="round" stroke-width="1"></path><path d="m9.415 6.55 0 2" fill="none" stroke="#000000" stroke-linecap="round" stroke-linejoin="round" stroke-width="1"></path><path d="m12.415 3.55 0 6" fill="none" stroke="#000000" stroke-linecap="round" stroke-linejoin="round" stroke-width="1"></path><path d="m15.415 3.55 0 6" fill="none" stroke="#000000" stroke-linecap="round" stroke-linejoin="round" stroke-width="1"></path><path d="M0.715 13.05a5.2 2.6 0 1 0 10.4 0 5.2 2.6 0 1 0 -10.4 0" fill="none" stroke="#000000" stroke-linecap="round" stroke-linejoin="round" stroke-width="1"></path><path d="M0.715 13.05v7.8c0 1.436 2.328 2.6 5.2 2.6s5.2 -1.164 5.2 -2.6v-7.8" fill="none" stroke="#000000" stroke-linecap="round" stroke-linejoin="round" stroke-width="1"></path><path d="M11.115 16.95c0 1.436 -2.329 2.6 -5.2 2.6s-5.2 -1.164 -5.2 -2.6" fill="none" stroke="#000000" stroke-linecap="round" stroke-linejoin="round" stroke-width="1"></path></svg>