<svg viewBox="0 0 24 24" xmlns="http://www.w3.org/2000/svg" id="Monetization-Browser-Bag--Streamline-Ultimate"><desc>Monetization Browser Bag Streamline Icon: https://streamlinehq.com</desc><path d="m18.188 10.6 1.769 -3.027a0.542 0.542 0 0 0 0 -0.549 0.565 0.565 0 0 0 -0.487 -0.274h-5.938a0.565 0.565 0 0 0 -0.487 0.274 0.542 0.542 0 0 0 0 0.549l1.77 3.027c-0.889 0.568 -5.063 2.1 -5.063 6.6 0 3.493 3.084 6.05 6.656 6.05s6.844 -2.557 6.844 -6.05c-0.002 -4.325 -4.094 -5.865 -5.064 -6.6Z" fill="none" stroke="#000000" stroke-linecap="round" stroke-linejoin="round" stroke-width="1"></path><path d="M19.5 3.75V1.868A1.128 1.128 0 0 0 18.369 0.75H1.875A1.121 1.121 0 0 0 0.75 1.862v13.519A1.129 1.129 0 0 0 1.881 16.5H6" fill="none" stroke="#000000" stroke-linecap="round" stroke-linejoin="round" stroke-width="1"></path><path d="m0.75 4.5 10.5 0" fill="none" stroke="#000000" stroke-linecap="round" stroke-linejoin="round" stroke-width="1"></path><path d="M14.642 19.094a2.221 2.221 0 0 0 1.858 0.875c1.139 0 2.063 -0.693 2.063 -1.547s-0.924 -1.547 -2.063 -1.547 -2.062 -0.693 -2.062 -1.548 0.923 -1.547 2.062 -1.547a2.224 2.224 0 0 1 1.858 0.875" fill="none" stroke="#000000" stroke-linecap="round" stroke-linejoin="round" stroke-width="1"></path><path d="m16.5 19.969 0 1.031" fill="none" stroke="#000000" stroke-linecap="round" stroke-linejoin="round" stroke-width="1"></path><path d="m16.5 12.75 0 1.03" fill="none" stroke="#000000" stroke-linecap="round" stroke-linejoin="round" stroke-width="1"></path></svg>