<svg viewBox="0 0 24 24" xmlns="http://www.w3.org/2000/svg" id="Monetization-Tablet--Streamline-Ultimate"><desc>Monetization Tablet Streamline Icon: https://streamlinehq.com</desc><path d="m22.125 23.25 -3 -4.5V13.5c0 -2 -3.8 -4.14 -5.25 -5.25" fill="none" stroke="#000000" stroke-linecap="round" stroke-linejoin="round" stroke-width="1"></path><path d="m15.805 14.793 -3.648 -2.923a1.3 1.3 0 0 0 -1.843 1.843l3.534 3.987v2.5c0 1.181 1.687 3.045 1.687 3.045" fill="none" stroke="#000000" stroke-linecap="round" stroke-linejoin="round" stroke-width="1"></path><path d="M13.836 17.978a2.733 2.733 0 0 1 -2.694 2.272H4.608a2.733 2.733 0 0 1 -2.733 -2.733V3.482A2.732 2.732 0 0 1 4.608 0.75h6.267a3 3 0 0 1 3 3v9.5" fill="none" stroke="#000000" stroke-linecap="round" stroke-linejoin="round" stroke-width="1"></path><path d="m1.875 15.75 6 0" fill="none" stroke="#000000" stroke-linecap="round" stroke-linejoin="round" stroke-width="1"></path><path d="M6.017 9.344a2.221 2.221 0 0 0 1.858 0.875c1.139 0 2.063 -0.693 2.063 -1.547s-0.924 -1.547 -2.063 -1.547 -2.062 -0.693 -2.062 -1.548 0.923 -1.547 2.062 -1.547a2.224 2.224 0 0 1 1.858 0.875" fill="none" stroke="#000000" stroke-linecap="round" stroke-linejoin="round" stroke-width="1"></path><path d="m7.875 10.219 0 1.031" fill="none" stroke="#000000" stroke-linecap="round" stroke-linejoin="round" stroke-width="1"></path><path d="m7.875 3 0 1.03" fill="none" stroke="#000000" stroke-linecap="round" stroke-linejoin="round" stroke-width="1"></path></svg>