<svg xmlns="http://www.w3.org/2000/svg" viewBox="0 0 24 24" id="Monetization-Dollar-Bill-Magnet--Streamline-Ultimate"><desc>Monetization Dollar Bill Magnet Streamline Icon: https://streamlinehq.com</desc><g><g><path d="M14.25 8.8c0 -0.86 -0.92 -1.55 -2.06 -1.55s-2.06 -0.69 -2.06 -1.55 0.92 -1.54 2.06 -1.54a2.24 2.24 0 0 1 1.86 0.84" fill="none" stroke="#000000" stroke-linecap="round" stroke-linejoin="round" stroke-width="1"></path><path d="m12.19 3.12 0 1.04" fill="none" stroke="#000000" stroke-linecap="round" stroke-linejoin="round" stroke-width="1"></path></g><path d="M2.25 12.87a1.5 1.5 0 0 1 -1.5 -1.5v-9a1.5 1.5 0 0 1 1.5 -1.5h19.5a1.5 1.5 0 0 1 1.5 1.5v9a1.5 1.5 0 0 1 -1.5 1.5" fill="none" stroke="#000000" stroke-linecap="round" stroke-linejoin="round" stroke-width="1"></path><g><path d="M17.75 17.38a5.75 5.75 0 0 1 -11.5 0v-5.75h4v5.75a1.75 1.75 0 0 0 3.5 0v-5.75h4Z" fill="none" stroke="#000000" stroke-linecap="round" stroke-linejoin="round" stroke-width="1"></path><path d="m6.25 15.13 4 0" fill="none" stroke="#000000" stroke-linecap="round" stroke-linejoin="round" stroke-width="1"></path><path d="m13.75 15.13 4 0" fill="none" stroke="#000000" stroke-linecap="round" stroke-linejoin="round" stroke-width="1"></path></g></g></svg>