<svg xmlns="http://www.w3.org/2000/svg" viewBox="0 0 24 24" id="Monetization-Bill-Magnet--Streamline-Ultimate"><desc>Monetization Bill Magnet Streamline Icon: https://streamlinehq.com</desc><g><path d="M3.75 12.87h-1.5a1.5 1.5 0 0 1 -1.5 -1.5v-9a1.5 1.5 0 0 1 1.5 -1.5h19.5a1.5 1.5 0 0 1 1.5 1.5v9a1.5 1.5 0 0 1 -1.5 1.5h-1.5" fill="none" stroke="#000000" stroke-linecap="round" stroke-linejoin="round" stroke-width="1"></path><path d="M9.5 6.71a2.5 2.5 0 1 0 5 0 2.5 2.5 0 1 0 -5 0" fill="none" stroke="#000000" stroke-linecap="round" stroke-linejoin="round" stroke-width="1"></path><path d="M0.75 8.12 8 0.87" fill="none" stroke="#000000" stroke-linecap="round" stroke-linejoin="round" stroke-width="1"></path><path d="M23.25 8.12 16 0.87" fill="none" stroke="#000000" stroke-linecap="round" stroke-linejoin="round" stroke-width="1"></path><g><path d="M17.75 17.38a5.75 5.75 0 0 1 -11.5 0v-5.75h4v5.75a1.75 1.75 0 0 0 3.5 0v-5.75h4Z" fill="none" stroke="#000000" stroke-linecap="round" stroke-linejoin="round" stroke-width="1"></path><path d="m6.25 15.13 4 0" fill="none" stroke="#000000" stroke-linecap="round" stroke-linejoin="round" stroke-width="1"></path><path d="m13.75 15.13 4 0" fill="none" stroke="#000000" stroke-linecap="round" stroke-linejoin="round" stroke-width="1"></path></g></g></svg>