<svg viewBox="0 0 24 24" xmlns="http://www.w3.org/2000/svg" id="Monetization-User-Monitor--Streamline-Ultimate"><desc>Monetization User Monitor Streamline Icon: https://streamlinehq.com</desc><path d="M19.5 0.75h1.875a1.838 1.838 0 0 1 1.875 1.8v8.4a1.838 1.838 0 0 1 -1.875 1.8H15" fill="none" stroke="#000000" stroke-linecap="round" stroke-linejoin="round" stroke-width="1"></path><path d="M8.25 3.75v-1.2A1.707 1.707 0 0 1 9.969 0.75H12" fill="none" stroke="#000000" stroke-linecap="round" stroke-linejoin="round" stroke-width="1"></path><path d="m15.75 12.75 0 3" fill="none" stroke="#000000" stroke-linecap="round" stroke-linejoin="round" stroke-width="1"></path><path d="m14.25 15.75 3.75 0" fill="none" stroke="#000000" stroke-linecap="round" stroke-linejoin="round" stroke-width="1"></path><path d="M14.25 23.25a6.75 6.75 0 0 0 -13.5 0" fill="none" stroke="#000000" stroke-linecap="round" stroke-linejoin="round" stroke-width="1"></path><path d="M3.945 8.781a6.857 6.857 0 0 0 7.642 1.536" fill="none" stroke="#000000" stroke-linecap="round" stroke-linejoin="round" stroke-width="1"></path><path d="M3.375 10.875a4.125 4.125 0 1 0 8.25 0 4.125 4.125 0 1 0 -8.25 0Z" fill="none" stroke="#000000" stroke-linecap="round" stroke-linejoin="round" stroke-width="1"></path><path d="M13.892 7.094a2.221 2.221 0 0 0 1.858 0.875c1.139 0 2.062 -0.693 2.062 -1.547s-0.923 -1.547 -2.062 -1.547 -2.063 -0.693 -2.063 -1.548 0.924 -1.547 2.063 -1.547a2.224 2.224 0 0 1 1.858 0.875" fill="none" stroke="#000000" stroke-linecap="round" stroke-linejoin="round" stroke-width="1"></path><path d="m15.75 7.969 0 1.031" fill="none" stroke="#000000" stroke-linecap="round" stroke-linejoin="round" stroke-width="1"></path><path d="m15.75 0.75 0 1.03" fill="none" stroke="#000000" stroke-linecap="round" stroke-linejoin="round" stroke-width="1"></path></svg>