<svg viewBox="0 0 24 24" xmlns="http://www.w3.org/2000/svg" id="Monetization-Touch-Coin--Streamline-Ultimate"><desc>Monetization Touch Coin Streamline Icon: https://streamlinehq.com</desc><path d="m23.136 23.25 0.1 -1.123a3 3 0 0 0 -2.337 -3.2l-3.471 -0.811v-5.741a1.9 1.9 0 0 0 -1.95 -1.86 1.733 1.733 0 0 0 -1.8 1.86v9.2L12.2 20.472a1.533 1.533 0 0 0 -2.146 2.145l0.475 0.633" fill="none" stroke="#000000" stroke-linecap="round" stroke-linejoin="round" stroke-width="1"></path><path d="M9 17.25a8.25 8.25 0 1 1 7.935 -10.517" fill="none" stroke="#000000" stroke-linecap="round" stroke-linejoin="round" stroke-width="1"></path><path d="M11.357 5.464H8.048A1.305 1.305 0 0 0 6.643 6.87c0 1.54 4.714 2.719 4.714 4.26a1.38 1.38 0 0 1 -1.4 1.4H6.643" fill="none" stroke="#000000" stroke-linecap="round" stroke-linejoin="round" stroke-width="1"></path><path d="m9 5.464 0 -1.768" fill="none" stroke="#000000" stroke-linecap="round" stroke-linejoin="round" stroke-width="1"></path><path d="m9 14.303 0 -1.768" fill="none" stroke="#000000" stroke-linecap="round" stroke-linejoin="round" stroke-width="1"></path></svg>