<svg xmlns="http://www.w3.org/2000/svg" fill="none" viewBox="0 0 24 24" id="Monetization-User-Laptop--Streamline-Ultimate"><desc>Monetization User Laptop Streamline Icon: https://streamlinehq.com</desc><path stroke="#000000" stroke-linecap="round" stroke-linejoin="round" d="M10.5 23.25H3.68396" stroke-width="1"></path><path stroke="#000000" stroke-linecap="round" stroke-linejoin="round" d="M13.1 15.626c0.0643 -0.1833 0.1841 -0.342 0.3427 -0.4541 0.1585 -0.1122 0.3481 -0.1723 0.5423 -0.1719h8.328c0.1476 -0.0005 0.2932 0.0336 0.4252 0.0996s0.2467 0.162 0.3348 0.2804c0.0867 0.117 0.1438 0.2533 0.1662 0.3971 0.0225 0.1439 0.0097 0.2911 -0.0372 0.4289L20.8 23.25H10.5l2.6 -7.624Z" stroke-width="1"></path><path stroke="#000000" d="M17.3909 19.223c-0.2071 0 -0.375 -0.1679 -0.375 -0.375s0.1679 -0.375 0.375 -0.375" stroke-width="1"></path><path stroke="#000000" d="M17.3909 19.223c0.2071 0 0.375 -0.1679 0.375 -0.375s-0.1679 -0.375 -0.375 -0.375" stroke-width="1"></path><path stroke="#000000" stroke-linecap="round" stroke-linejoin="round" d="M0.75 23.25c0.000613 -1.0582 0.249793 -2.1016 0.72746 -3.0459 0.47768 -0.9444 1.17048 -1.7633 2.02261 -2.3909 0.85212 -0.6275 1.83974 -1.0462 2.88328 -1.2222 1.04355 -0.176 2.11384 -0.1044 3.12465 0.209" stroke-width="1"></path><path stroke="#000000" stroke-linecap="round" stroke-linejoin="round" d="M3.94495 8.78101C4.9123 9.78274 6.1617 10.4662 7.52697 10.7406c1.36527 0.2744 2.78173 0.1266 4.06093 -0.4236" stroke-width="1"></path><path stroke="#000000" stroke-linecap="round" stroke-linejoin="round" d="M7.5 15c2.27817 0 4.125 -1.8468 4.125 -4.125 0 -2.27817 -1.84683 -4.125 -4.125 -4.125 -2.27817 0 -4.125 1.84683 -4.125 4.125C3.375 13.1532 5.22183 15 7.5 15Z" stroke-width="1"></path><path stroke="#000000" stroke-linecap="round" stroke-linejoin="round" d="M19.125 2.25001H16.5c-0.3122 -0.001 -0.615 0.10699 -0.8562 0.30534 -0.2411 0.19835 -0.4055 0.47462 -0.4647 0.78118 -0.0593 0.30656 -0.0097 0.62418 0.1402 0.8981 0.1498 0.27391 0.3906 0.48695 0.6807 0.60238l2.655 0.825c0.2897 0.11588 0.53 0.32909 0.6795 0.60295 0.1495 0.27387 0.1989 0.59127 0.1397 0.89761 -0.0592 0.30635 -0.2233 0.5825 -0.464 0.78097 -0.2408 0.19846 -0.5432 0.30683 -0.8552 0.30647H15" stroke-width="1"></path><path stroke="#000000" stroke-linecap="round" stroke-linejoin="round" d="M17.25 2.25V0.75" stroke-width="1"></path><path stroke="#000000" stroke-linecap="round" stroke-linejoin="round" d="M17.25 9.75v-1.5" stroke-width="1"></path></svg>