<svg viewBox="0 0 24 24" xmlns="http://www.w3.org/2000/svg" id="Monetization-User-Bag--Streamline-Ultimate"><desc>Monetization User Bag Streamline Icon: https://streamlinehq.com</desc><path d="M15 3.75a3 3 0 1 0 6 0 3 3 0 1 0 -6 0Z" fill="none" stroke="#000000" stroke-linecap="round" stroke-linejoin="round" stroke-width="1"></path><path d="M23.25 13.5a5.25 5.25 0 0 0 -10.5 0v2.25H15l0.75 7.5h4.5l0.75 -7.5h2.25Z" fill="none" stroke="#000000" stroke-linecap="round" stroke-linejoin="round" stroke-width="1"></path><path d="m18 8.25 0 4.5" fill="none" stroke="#000000" stroke-linecap="round" stroke-linejoin="round" stroke-width="1"></path><path d="M11.88 7.129A27.561 27.561 0 0 0 9.188 5.35l1.769 -3.027a0.542 0.542 0 0 0 0 -0.549 0.565 0.565 0 0 0 -0.487 -0.274H4.532a0.565 0.565 0 0 0 -0.487 0.274 0.542 0.542 0 0 0 0 0.549L5.813 5.35C4.924 5.918 0.75 7.453 0.75 11.95 0.75 15.443 3.834 18 7.406 18a7.554 7.554 0 0 0 2.345 -0.374" fill="none" stroke="#000000" stroke-linecap="round" stroke-linejoin="round" stroke-width="1"></path><path d="M5.642 13.844a2.221 2.221 0 0 0 1.858 0.875c1.139 0 2.063 -0.693 2.063 -1.547s-0.924 -1.547 -2.063 -1.547 -2.062 -0.693 -2.062 -1.548S6.361 8.53 7.5 8.53a2.224 2.224 0 0 1 1.858 0.87" fill="none" stroke="#000000" stroke-linecap="round" stroke-linejoin="round" stroke-width="1"></path><path d="m7.5 14.719 0 1.031" fill="none" stroke="#000000" stroke-linecap="round" stroke-linejoin="round" stroke-width="1"></path><path d="m7.5 7.5 0 1.03" fill="none" stroke="#000000" stroke-linecap="round" stroke-linejoin="round" stroke-width="1"></path></svg>