<svg xmlns="http://www.w3.org/2000/svg" viewBox="0 0 24 24" id="Monetization-Phone--Streamline-Ultimate"><desc>Monetization Phone Streamline Icon: https://streamlinehq.com</desc><g><g><path d="M19.33 13.09a2.22 2.22 0 0 0 1.86 0.88c1.14 0 2.06 -0.69 2.06 -1.55s-0.92 -1.54 -2.06 -1.54 -2.06 -0.7 -2.06 -1.55 0.92 -1.55 2.06 -1.55a2.22 2.22 0 0 1 1.86 0.88" fill="none" stroke="#000000" stroke-linecap="round" stroke-linejoin="round" stroke-width="1"></path><path d="m21.19 13.97 0 1.03" fill="none" stroke="#000000" stroke-linecap="round" stroke-linejoin="round" stroke-width="1"></path><path d="m21.19 6.75 0 1.03" fill="none" stroke="#000000" stroke-linecap="round" stroke-linejoin="round" stroke-width="1"></path></g><path d="M10.25 9 16 9" fill="none" stroke="#000000" stroke-linecap="round" stroke-linejoin="round" stroke-width="1"></path><path d="m11.75 12.5 3 0" fill="none" stroke="#000000" stroke-linecap="round" stroke-linejoin="round" stroke-width="1"></path><path d="m8 9 -0.75 0" fill="none" stroke="#000000" stroke-linecap="round" stroke-linejoin="round" stroke-width="1"></path><path d="m9.5 12.5 -0.75 0" fill="none" stroke="#000000" stroke-linecap="round" stroke-linejoin="round" stroke-width="1"></path><path d="M14.25 16.5v3.75a3 3 0 0 1 -3 3h-7.5a3 3 0 0 1 -3 -3V3.75a3 3 0 0 1 3 -3h7.5a3 3 0 0 1 3 3V5.5" fill="none" stroke="#000000" stroke-linecap="round" stroke-linejoin="round" stroke-width="1"></path><path d="m0.75 18.75 13.5 0" fill="none" stroke="#000000" stroke-linecap="round" stroke-linejoin="round" stroke-width="1"></path></g></svg>