<svg xmlns="http://www.w3.org/2000/svg" fill="none" viewBox="0 0 24 24" id="Transfer-Pictures-Smartphone--Streamline-Ultimate"><desc>Transfer Pictures Smartphone Streamline Icon: https://streamlinehq.com</desc><path stroke="#000000" stroke-linecap="round" stroke-linejoin="round" d="M5.25 6.75 3 9V6.75c0 -0.79565 0.31607 -1.55871 0.87868 -2.12132C4.44129 4.06607 5.20435 3.75 6 3.75h2.25" stroke-width="1"></path><path stroke="#000000" stroke-linecap="round" stroke-linejoin="round" d="M0.75 6.75 3 9" stroke-width="1"></path><path stroke="#000000" d="M4.5 20.625c-0.20711 0 -0.375 -0.1679 -0.375 -0.375s0.16789 -0.375 0.375 -0.375" stroke-width="1"></path><path stroke="#000000" d="M4.5 20.625c0.20711 0 0.375 -0.1679 0.375 -0.375s-0.16789 -0.375 -0.375 -0.375" stroke-width="1"></path><path stroke="#000000" stroke-linecap="round" stroke-linejoin="round" d="M6.75 11.25h-4.5c-0.82843 0 -1.5 0.6716 -1.5 1.5v9c0 0.8284 0.67157 1.5 1.5 1.5h4.5c0.82843 0 1.5 -0.6716 1.5 -1.5v-9c0 -0.8284 -0.67157 -1.5 -1.5 -1.5Z" stroke-width="1"></path><path stroke="#000000" stroke-linecap="round" stroke-linejoin="round" d="M20.25 2.25 19.5 0.75H15l-0.75 1.5h-1.5c-0.3978 0 -0.7794 0.15804 -1.0607 0.43934S11.25 3.35218 11.25 3.75v4.5c0 0.39782 0.158 0.77936 0.4393 1.06066 0.2813 0.2813 0.6629 0.43934 1.0607 0.43934h9c0.3978 0 0.7794 -0.15804 1.0607 -0.43934S23.25 8.64782 23.25 8.25v-4.5c0 -0.39782 -0.158 -0.77936 -0.4393 -1.06066 -0.2813 -0.2813 -0.6629 -0.43934 -1.0607 -0.43934h-1.5Z" stroke-width="1"></path><path stroke="#000000" stroke-linecap="round" stroke-linejoin="round" d="M17.25 7.5c1.0355 0 1.875 -0.83947 1.875 -1.875S18.2855 3.75 17.25 3.75c-1.0355 0 -1.875 0.83947 -1.875 1.875S16.2145 7.5 17.25 7.5Z" stroke-width="1"></path></svg>