<svg viewBox="0 0 24 24" xmlns="http://www.w3.org/2000/svg" id="Exotic-Food-Rolls--Streamline-Ultimate"><desc>Exotic Food Rolls Streamline Icon: https://streamlinehq.com</desc><path d="M23.25 17.081c0 2.485 -5.037 4.5 -11.25 4.5S0.75 19.566 0.75 17.081" fill="none" stroke="#000000" stroke-linecap="round" stroke-linejoin="round" stroke-width="1"></path><path d="M10.809 14.097a3 3 0 1 0 6 0 3 3 0 1 0 -6 0Z" fill="none" stroke="#000000" stroke-linecap="round" stroke-linejoin="round" stroke-width="1"></path><path d="M14.67 11.223 4.612 8.208a3 3 0 0 0 -1.723 5.748l10.058 3.015" fill="none" stroke="#000000" stroke-linecap="round" stroke-linejoin="round" stroke-width="1"></path><path d="M10.36 9.931c-1.437 -0.431 -5.172 1.582 -6.034 4.455" fill="none" stroke="#000000" stroke-linecap="round" stroke-linejoin="round" stroke-width="1"></path><path d="M12.821 8.435a3 3 0 1 0 6 0 3 3 0 1 0 -6 0Z" fill="none" stroke="#000000" stroke-linecap="round" stroke-linejoin="round" stroke-width="1"></path><path d="M16.682 5.561 6.624 2.546A3 3 0 1 0 4.9 8.293l10.057 3.015" fill="none" stroke="#000000" stroke-linecap="round" stroke-linejoin="round" stroke-width="1"></path><path d="M12.372 4.269C10.935 3.838 7.2 5.851 6.338 8.724" fill="none" stroke="#000000" stroke-linecap="round" stroke-linejoin="round" stroke-width="1"></path><path d="M16.706 12.999a3 3 0 1 0 6 0 3 3 0 1 0 -6 0Z" fill="none" stroke="#000000" stroke-linecap="round" stroke-linejoin="round" stroke-width="1"></path></svg>