<svg viewBox="0 0 24 24" xmlns="http://www.w3.org/2000/svg" id="Exotic-Food-Kebab--Streamline-Ultimate"><desc>Exotic Food Kebab Streamline Icon: https://streamlinehq.com</desc><path d="m6.75 23.25 10.5 0" fill="none" stroke="#000000" stroke-linecap="round" stroke-linejoin="round" stroke-width="1"></path><path d="m12 20.25 0 3" fill="none" stroke="#000000" stroke-linecap="round" stroke-linejoin="round" stroke-width="1"></path><path d="M13.5 2.25a1.5 1.5 0 1 0 -1.5 1.5v1.5" fill="none" stroke="#000000" stroke-linecap="round" stroke-linejoin="round" stroke-width="1"></path><path d="M15.588 17.308a3.659 3.659 0 0 1 -7.176 0l-1.335 -6.676a4.5 4.5 0 0 1 4.412 -5.382h1.022a4.5 4.5 0 0 1 4.412 5.382Z" fill="none" stroke="#000000" stroke-linecap="round" stroke-linejoin="round" stroke-width="1"></path><path d="m11.25 9.75 -4.26 0" fill="none" stroke="#000000" stroke-linecap="round" stroke-linejoin="round" stroke-width="1"></path><path d="m11.25 15.75 4.65 0" fill="none" stroke="#000000" stroke-linecap="round" stroke-linejoin="round" stroke-width="1"></path><path d="M19.639 0.75c-1.436 2.873 2.9 3.881 0.75 6.75" fill="none" stroke="#000000" stroke-linecap="round" stroke-linejoin="round" stroke-width="1"></path><path d="M4.361 0.75c1.436 2.873 -2.9 3.881 -0.75 6.75" fill="none" stroke="#000000" stroke-linecap="round" stroke-linejoin="round" stroke-width="1"></path></svg>