<svg xmlns="http://www.w3.org/2000/svg" fill="none" viewBox="0 0 24 24" id="Exotic-Food-Samosa-Dip--Streamline-Ultimate"><desc>Exotic Food Samosa Dip Streamline Icon: https://streamlinehq.com</desc><path stroke="#000000" stroke-linecap="round" stroke-linejoin="round" d="M9.08098 9.73801c0.26251 -0.00043 0.52031 -0.06975 0.74763 -0.20102 0.22729 -0.13128 0.41619 -0.31991 0.54779 -0.54705 0.1316 -0.22715 0.2013 -0.48485 0.2021 -0.74736 0.0008 -0.2625 -0.0673 -0.52062 -0.1975 -0.74857l-3.41202 -5.977c-0.13118 -0.22966 -0.32075 -0.42055 -0.54949 -0.55332 -0.22874 -0.132773 -0.48852 -0.202704 -0.75301 -0.202704 -0.26448 0 -0.52426 0.069931 -0.75301 0.202704 -0.22874 0.13277 -0.41831 0.32366 -0.54949 0.55332l-3.414998 5.977c-0.130204 0.22795 -0.198309 0.48607 -0.19751 0.74857 0.000799 0.26251 0.070475 0.52021 0.202065 0.74736 0.131593 0.22714 0.320483 0.41577 0.547813 0.54705 0.22733 0.13127 0.48512 0.20059 0.74763 0.20102h6.832Z" stroke-width="1"></path><path stroke="#000000" stroke-linecap="round" stroke-linejoin="round" d="M3.41602 9.73803s4.36 -2.848 4.36 -6.807" stroke-width="1"></path><path stroke="#000000" stroke-linecap="round" stroke-linejoin="round" d="M18.392 10.084c0.192 0.1792 0.4277 0.3048 0.6835 0.3643 0.2558 0.0595 0.5227 0.0508 0.7741 -0.0252 0.2514 -0.076 0.4784 -0.2167 0.6584 -0.408 0.1799 -0.19133 0.3065 -0.42652 0.367 -0.68208l1.586 -6.7c0.0607 -0.25704 0.0525 -0.52556 -0.0238 -0.77841s-0.218 -0.48108 -0.4108 -0.6616c-0.1928 -0.18052 -0.4298 -0.30693 -0.6871 -0.366455 -0.2574 -0.059525 -0.5258 -0.050051 -0.7783 0.027463L13.982 2.89102c-0.2511 0.07751 -0.4775 0.21963 -0.6564 0.41213 -0.1789 0.19251 -0.3041 0.42863 -0.363 0.68474 -0.059 0.25611 -0.0496 0.52321 0.0272 0.77455s0.2182 0.4781 0.4102 0.65758l4.992 4.66398Z" stroke-width="1"></path><path stroke="#000000" stroke-linecap="round" stroke-linejoin="round" d="M14.252 6.21594s5.131 0.9 7.834 -2" stroke-width="1"></path><path stroke="#000000" stroke-linecap="round" stroke-linejoin="round" d="M23.251 16.488c0 1.242 -2.351 2.25 -5.25 2.25s-5.25 -1.008 -5.25 -2.25 2.35 -2.25 5.25 -2.25" stroke-width="1"></path><path stroke="#000000" stroke-linecap="round" stroke-linejoin="round" d="M12.751 16.488v1.5c0 1.3924 0.5531 2.7278 1.5377 3.7123 0.9845 0.9846 2.3199 1.5377 3.7123 1.5377 1.3924 0 2.7277 -0.5531 3.7123 -1.5377 0.9846 -0.9845 1.5377 -2.3199 1.5377 -3.7123v-1.5" stroke-width="1"></path><path stroke="#000000" d="M21 14.613c-0.2071 0 -0.375 -0.1679 -0.375 -0.375s0.1679 -0.375 0.375 -0.375" stroke-width="1"></path><path stroke="#000000" d="M21 14.613c0.2071 0 0.375 -0.1679 0.375 -0.375s-0.1679 -0.375 -0.375 -0.375" stroke-width="1"></path></svg>