<svg viewBox="0 0 24 24" xmlns="http://www.w3.org/2000/svg" id="Navigation-Arrows-Up--Streamline-Ultimate"><desc>Navigation Arrows Up Streamline Icon: https://streamlinehq.com</desc><path d="M1.5 23.247a0.75 0.75 0 0 1 -0.511 -1.3l9.987 -8.8a1.5 1.5 0 0 1 2.047 0l9.986 8.8a0.75 0.75 0 0 1 -0.512 1.3Z" fill="none" stroke="#000000" stroke-linecap="round" stroke-linejoin="round" stroke-width="1"></path><path d="M17.672 17.247H22.5a0.75 0.75 0 0 0 0.512 -1.3l-9.986 -8.8a1.5 1.5 0 0 0 -2.047 0l-9.987 8.8a0.75 0.75 0 0 0 0.511 1.3h4.822" fill="none" stroke="#000000" stroke-linecap="round" stroke-linejoin="round" stroke-width="1"></path><path d="M17.671 11.247H22.5a0.75 0.75 0 0 0 0.512 -1.3l-9.986 -8.8a1.5 1.5 0 0 0 -2.047 0L0.988 9.949a0.75 0.75 0 0 0 0.511 1.3h4.826" fill="none" stroke="#000000" stroke-linecap="round" stroke-linejoin="round" stroke-width="1"></path></svg>