<svg viewBox="0 0 24 24" xmlns="http://www.w3.org/2000/svg" id="Navigation-Up-3--Streamline-Ultimate"><desc>Navigation Up 3 Streamline Icon: https://streamlinehq.com</desc><path d="M9.751 15.025v6.722a1.5 1.5 0 0 1 -1.5 1.5H3a1.5 1.5 0 0 1 -1.5 -1.5v-10.06A10.791 10.791 0 0 1 11.678 0.752 10.5 10.5 0 0 1 22.5 11.247v10.5a1.5 1.5 0 0 1 -1.5 1.5h-5.25a1.5 1.5 0 0 1 -1.5 -1.5v-6.723" fill="none" stroke="#000000" stroke-linecap="round" stroke-linejoin="round" stroke-width="1"></path><path d="m9.749 15.025 -0.923 0.923A1.875 1.875 0 0 1 6.175 13.3l4.5 -4.5a1.875 1.875 0 0 1 2.651 0l4.5 4.5a1.875 1.875 0 1 1 -2.651 2.652l-0.924 -0.924" fill="none" stroke="#000000" stroke-width="1"></path></svg>