<svg viewBox="0 0 24 24" xmlns="http://www.w3.org/2000/svg" id="Flower--Streamline-Ultimate"><desc>Flower Streamline Icon: https://streamlinehq.com</desc><path d="M6.111 6.625A6 6 0 0 0 12.7 12.6a6.175 6.175 0 0 0 5.411 -6.23V2.125a0.75 0.75 0 0 0 -1.2 -0.6l-1.8 1.35 -2.1 -1.575a1.5 1.5 0 0 0 -1.8 0l-2.1 1.575 -1.8 -1.35a0.75 0.75 0 0 0 -1.2 0.6Z" fill="none" stroke="#000000" stroke-linecap="round" stroke-linejoin="round" stroke-width="1"></path><path d="m12.111 12.625 0 10.5" fill="none" stroke="#000000" stroke-linecap="round" stroke-linejoin="round" stroke-width="1"></path><path d="M5.4684831667 19.1989334937a3.367 1.782 10.934 1 0 0.6760128043 -3.4993003141 3.367 1.782 10.934 1 0 -0.6760128043 3.499300314Z" fill="none" stroke="#000000" stroke-linecap="round" stroke-linejoin="round" stroke-width="1"></path><path d="M15.1106381716 18.1887474208a3.367 1.782 -10.934 1 0 6.6117531748 -1.277292431 3.367 1.782 -10.934 1 0 -6.6117531748 1.277292431Z" fill="none" stroke="#000000" stroke-linecap="round" stroke-linejoin="round" stroke-width="1"></path></svg>