<svg viewBox="0 0 24 24" xmlns="http://www.w3.org/2000/svg" id="Flower-Pot--Streamline-Ultimate"><desc>Flower Pot Streamline Icon: https://streamlinehq.com</desc><path d="M18.75 6.15a2.686 2.686 0 0 0 -4.09 -2.3 2.579 2.579 0 0 0 0.04 -0.4 2.7 2.7 0 1 0 -5.4 0 2.579 2.579 0 0 0 0.04 0.4 2.694 2.694 0 1 0 -1.463 5A2.691 2.691 0 1 0 12 12.157a2.691 2.691 0 1 0 4.123 -3.314A2.7 2.7 0 0 0 18.75 6.15Z" fill="none" stroke="#000000" stroke-linecap="round" stroke-linejoin="round" stroke-width="1"></path><path d="M14.969 23.25h-5.7a0.665 0.665 0 0 1 -0.668 -0.482l-1.091 -4.8a0.627 0.627 0 0 1 0.669 -0.718h7.877a0.626 0.626 0 0 1 0.669 0.718l-1.091 4.8a0.665 0.665 0 0 1 -0.665 0.482Z" fill="none" stroke="#000000" stroke-linecap="round" stroke-linejoin="round" stroke-width="1"></path><path d="m12 12.157 0 5.093" fill="none" stroke="#000000" stroke-linecap="round" stroke-linejoin="round" stroke-width="1"></path><path d="M10.5 7.5a1.5 1.5 0 1 0 3 0 1.5 1.5 0 1 0 -3 0Z" fill="none" stroke="#000000" stroke-linecap="round" stroke-linejoin="round" stroke-width="1"></path></svg>