<svg xmlns="http://www.w3.org/2000/svg" viewBox="0 0 24 24" id="Flower-2--Streamline-Ultimate"><desc>Flower 2 Streamline Icon: https://streamlinehq.com</desc><g><path d="M12.0696194362 22.457647074a4.99 2.11 -20.88 1 0 9.3246028457 -3.5569905496 4.99 2.11 -20.88 1 0 -9.3246028457 3.5569905495" fill="none" stroke="#000000" stroke-linecap="round" stroke-linejoin="round" stroke-width="1"></path><path d="M6.6609054872 22.6486542568a4.99 2.11 20.88 1 0 1.5040581282 -3.9428681372 4.99 2.11 20.88 1 0 -1.5040581282 3.9428681372" fill="none" stroke="#000000" stroke-linecap="round" stroke-linejoin="round" stroke-width="1"></path><path d="m12.07 14.78 0 8.36" fill="none" stroke="#000000" stroke-linecap="round" stroke-linejoin="round" stroke-width="1"></path><path d="M9.82 8.8a2.25 2.25 0 1 0 4.5 0 2.25 2.25 0 1 0 -4.5 0" fill="none" stroke="#000000" stroke-linecap="round" stroke-linejoin="round" stroke-width="1"></path><path d="M20.32 8.8a3 3 0 0 0 -3.07 -3 3 3 0 1 0 -5.18 -3 3 3 0 1 0 -5.19 3 3 3 0 1 0 0 6 3 3 0 1 0 5.19 3 3 3 0 1 0 5.18 -3 3 3 0 0 0 3.07 -3Z" fill="none" stroke="#000000" stroke-linecap="round" stroke-linejoin="round" stroke-width="1"></path></g></svg>