<svg viewBox="0 0 24 24" xmlns="http://www.w3.org/2000/svg" id="Flower-Roses--Streamline-Ultimate"><desc>Flower Roses Streamline Icon: https://streamlinehq.com</desc><path d="M21.418 20.743a3 3 0 0 1 -2.959 2.507H5.541a3 3 0 0 1 -2.959 -2.507L1.5 14.25h21Z" fill="none" stroke="#000000" stroke-linecap="round" stroke-linejoin="round" stroke-width="1"></path><path d="M15.75 14.25S18 11.175 18 8.175" fill="none" stroke="#000000" stroke-linecap="round" stroke-linejoin="round" stroke-width="1"></path><path d="M8.25 8.25a5.958 5.958 0 0 0 0.75 6" fill="none" stroke="#000000" stroke-linecap="round" stroke-linejoin="round" stroke-width="1"></path><path d="m12 17.25 0 3" fill="none" stroke="#000000" stroke-linecap="round" stroke-linejoin="round" stroke-width="1"></path><path d="m6.75 17.25 0.75 3" fill="none" stroke="#000000" stroke-linecap="round" stroke-linejoin="round" stroke-width="1"></path><path d="m17.25 17.25 -0.75 3" fill="none" stroke="#000000" stroke-linecap="round" stroke-linejoin="round" stroke-width="1"></path><path d="M12 4.5a3.75 3.75 0 0 1 -7.5 0V0.75l3.75 1.5L12 0.75Z" fill="none" stroke="#000000" stroke-linecap="round" stroke-linejoin="round" stroke-width="1"></path><path d="M22.5 4.5a3.75 3.75 0 0 1 -7.5 0V0.75l3.75 1.5L22.5 0.75Z" fill="none" stroke="#000000" stroke-linecap="round" stroke-linejoin="round" stroke-width="1"></path></svg>