<svg viewBox="0 0 24 24" xmlns="http://www.w3.org/2000/svg" id="Trees-Chop--Streamline-Ultimate"><desc>Trees Chop Streamline Icon: https://streamlinehq.com</desc><path d="M19.671 23.25H4.329a0.537 0.537 0 0 1 -0.5 -0.8l0.3 -0.5a10.043 10.043 0 0 0 1.512 -5.278v-0.389a0.558 0.558 0 0 1 0.578 -0.536h11.559a0.558 0.558 0 0 1 0.578 0.536v0.389a10.043 10.043 0 0 0 1.512 5.278l0.3 0.5a0.537 0.537 0 0 1 -0.497 0.8Z" fill="none" stroke="#000000" stroke-linecap="round" stroke-linejoin="round" stroke-width="1"></path><path d="m12.235 15.75 5.065 -5.068c-3.712 -0.53 -6.364 -4.243 -6.364 -4.243L6.7 10.682a12.046 12.046 0 0 1 3.922 5.065" fill="none" stroke="#000000" stroke-linecap="round" stroke-linejoin="round" stroke-width="1"></path><path d="m7.84 11.66 -1.143 1.143" fill="none" stroke="#000000" stroke-linecap="round" stroke-linejoin="round" stroke-width="1"></path><path d="M11.917 7.583 18.75 0.75" fill="none" stroke="#000000" stroke-linecap="round" stroke-linejoin="round" stroke-width="1"></path><path d="m9.75 23.25 0 -3" fill="none" stroke="#000000" stroke-linecap="round" stroke-linejoin="round" stroke-width="1"></path><path d="m14.25 23.25 0 -3" fill="none" stroke="#000000" stroke-linecap="round" stroke-linejoin="round" stroke-width="1"></path></svg>