<svg viewBox="0 0 24 24" xmlns="http://www.w3.org/2000/svg" id="Tree-Cloud--Streamline-Ultimate"><desc>Tree Cloud Streamline Icon: https://streamlinehq.com</desc><path d="M18.75 4.5a4.459 4.459 0 0 0 -1.144 0.165A5.971 5.971 0 0 0 6.041 6.339a3.746 3.746 0 1 0 1.928 4.828 5.928 5.928 0 0 0 7.273 0.619A4.492 4.492 0 1 0 18.75 4.5Z" fill="none" stroke="#000000" stroke-linecap="round" stroke-linejoin="round" stroke-width="1"></path><path d="m12.75 12.702 0 10.548" fill="none" stroke="#000000" stroke-linecap="round" stroke-linejoin="round" stroke-width="1"></path><path d="M5.25 18a2.25 2.25 0 1 0 4.5 0 2.25 2.25 0 1 0 -4.5 0Z" fill="none" stroke="#000000" stroke-linecap="round" stroke-linejoin="round" stroke-width="1"></path><path d="m12.75 21.75 -3.364 -2.523" fill="none" stroke="#000000" stroke-linecap="round" stroke-linejoin="round" stroke-width="1"></path></svg>