<svg viewBox="0 0 24 24" xmlns="http://www.w3.org/2000/svg" id="History-Woman-Queen--Streamline-Ultimate"><desc>History Woman Queen Streamline Icon: https://streamlinehq.com</desc><path d="M17.279 8.249a5.25 5.25 0 0 1 -10.5 0Z" fill="none" stroke="#000000" stroke-linecap="round" stroke-linejoin="round" stroke-width="1"></path><path d="m17.279 8.249 0.75 -5.25 -3.75 1.5 -2.25 -3.75 -2.25 3.75 -3.75 -1.5 0.75 5.25 10.5 0z" fill="none" stroke="#000000" stroke-linecap="round" stroke-linejoin="round" stroke-width="1"></path><path d="M21.308 23.249a9.753 9.753 0 0 0 -18.558 0" fill="none" stroke="#000000" stroke-linecap="round" stroke-linejoin="round" stroke-width="1"></path><path d="m7.688 17.526 3.078 2.463" fill="none" stroke="#000000" stroke-linecap="round" stroke-linejoin="round" stroke-width="1"></path><path d="m13.292 19.989 3.078 -2.463" fill="none" stroke="#000000" stroke-linecap="round" stroke-linejoin="round" stroke-width="1"></path><path d="M10.154 21.375a1.875 1.875 0 1 0 3.75 0 1.875 1.875 0 1 0 -3.75 0Z" fill="none" stroke="#000000" stroke-linecap="round" stroke-linejoin="round" stroke-width="1"></path><path d="M6.832 9s-0.053 3.75 -3.053 5.25" fill="none" stroke="#000000" stroke-linecap="round" stroke-linejoin="round" stroke-width="1"></path><path d="M17.226 9s0.053 3.75 3.053 5.25" fill="none" stroke="#000000" stroke-linecap="round" stroke-linejoin="round" stroke-width="1"></path></svg>