<svg xmlns="http://www.w3.org/2000/svg" viewBox="0 0 24 24" id="Cap-Sunglasses--Streamline-Ultimate"><desc>Cap Sunglasses Streamline Icon: https://streamlinehq.com</desc><g><g><path d="M21.59 9.66A10.48 10.48 0 0 0 0.87 12.8l0.26 1.73a1.06 1.06 0 0 0 1.41 0.83 46.21 46.21 0 0 1 9 -2.06 46.89 46.89 0 0 1 9.2 -0.71 1 1 0 0 0 0.84 -0.34 1 1 0 0 0 0.26 -0.86Z" fill="none" stroke="#000000" stroke-linecap="round" stroke-linejoin="round" stroke-width="1"></path><path d="M8.12 10.62a3.15 3.15 0 0 1 6.22 -0.94Z" fill="none" stroke="#000000" stroke-linecap="round" stroke-linejoin="round" stroke-width="1"></path></g><g><path d="M10.5 23.25h-3A2.25 2.25 0 0 1 5.25 21v-1.5a2.25 2.25 0 0 1 2.25 -2.25h5.25V21a2.25 2.25 0 0 1 -2.25 2.25Z" fill="none" stroke="#000000" stroke-linecap="round" stroke-linejoin="round" stroke-width="1"></path><path d="M18 23.25h3A2.25 2.25 0 0 0 23.25 21v-1.5A2.25 2.25 0 0 0 21 17.25h-5.25V21A2.25 2.25 0 0 0 18 23.25Z" fill="none" stroke="#000000" stroke-linecap="round" stroke-linejoin="round" stroke-width="1"></path><path d="m12.75 17.25 3 0" fill="none" stroke="#000000" stroke-linecap="round" stroke-linejoin="round" stroke-width="1"></path></g></g></svg>