<svg xmlns="http://www.w3.org/2000/svg" viewBox="0 0 24 24" id="View-Square--Streamline-Ultimate"><desc>View Square Streamline Icon: https://streamlinehq.com</desc><defs></defs><title>view-square</title><path d="M2.25 0.75h19.5s1.5 0 1.5 1.5v19.5s0 1.5 -1.5 1.5H2.25s-1.5 0 -1.5 -1.5V2.25s0 -1.5 1.5 -1.5" fill="none" stroke="#000000" stroke-linecap="round" stroke-linejoin="round" stroke-width="1"></path><path d="M4.267 10.722a1.825 1.825 0 0 0 0 2.544C5.818 14.821 8.591 17.25 12 17.25s6.183 -2.428 7.735 -3.983a1.825 1.825 0 0 0 0 -2.544C18.182 9.168 15.406 6.739 12 6.739s-6.181 2.427 -7.733 3.983Z" fill="none" stroke="#000000" stroke-linecap="round" stroke-linejoin="round" stroke-width="1"></path><path d="M9.75 11.991a2.25 2.25 0 1 0 4.5 0 2.25 2.25 0 1 0 -4.5 0" fill="none" stroke="#000000" stroke-linecap="round" stroke-linejoin="round" stroke-width="1"></path></svg>