<svg viewBox="0 0 24 24" xmlns="http://www.w3.org/2000/svg" id="View-Circle--Streamline-Ultimate"><desc>View Circle Streamline Icon: https://streamlinehq.com</desc><path d="M0.75 12a11.25 11.25 0 1 0 22.5 0 11.25 11.25 0 1 0 -22.5 0Z" fill="none" stroke="#000000" stroke-linecap="round" stroke-linejoin="round" stroke-width="1"></path><path d="M4.267 10.731a1.825 1.825 0 0 0 0 2.544C5.818 14.83 8.591 17.258 12 17.258s6.182 -2.427 7.734 -3.982a1.826 1.826 0 0 0 0 -2.544C18.183 9.177 15.406 6.748 12 6.748s-6.181 2.427 -7.733 3.983Z" fill="none" stroke="#000000" stroke-linecap="round" stroke-linejoin="round" stroke-width="1"></path><path d="M9.75 12a2.25 2.25 0 1 0 4.5 0 2.25 2.25 0 1 0 -4.5 0Z" fill="none" stroke="#000000" stroke-linecap="round" stroke-linejoin="round" stroke-width="1"></path></svg>