<svg xmlns="http://www.w3.org/2000/svg" viewBox="0 0 24 24" id="Navigation-Menu-2--Streamline-Ultimate"><desc>Navigation Menu 2 Streamline Icon: https://streamlinehq.com</desc><defs></defs><title>navigation-menu-2</title><path d="M8.25 0.753h13.5s1.5 0 1.5 1.5v1.5s0 1.5 -1.5 1.5H8.25s-1.5 0 -1.5 -1.5v-1.5s0 -1.5 1.5 -1.5" fill="none" stroke="#000000" stroke-linecap="round" stroke-linejoin="round" stroke-width="1"></path><path d="M5.25 9.753h13.5s1.5 0 1.5 1.5v1.5s0 1.5 -1.5 1.5H5.25s-1.5 0 -1.5 -1.5v-1.5s0 -1.5 1.5 -1.5" fill="none" stroke="#000000" stroke-linecap="round" stroke-linejoin="round" stroke-width="1"></path><path d="M2.25 18.753h13.5s1.5 0 1.5 1.5v1.5s0 1.5 -1.5 1.5H2.25s-1.5 0 -1.5 -1.5v-1.5s0 -1.5 1.5 -1.5" fill="none" stroke="#000000" stroke-linecap="round" stroke-linejoin="round" stroke-width="1"></path></svg>