<svg xmlns="http://www.w3.org/2000/svg" viewBox="0 0 24 24" id="Photo-Frame-Human--Streamline-Ultimate"><desc>Photo Frame Human Streamline Icon: https://streamlinehq.com</desc><g><path d="M3.75 0.75h16.5s1.5 0 1.5 1.5v19.5s0 1.5 -1.5 1.5H3.75s-1.5 0 -1.5 -1.5V2.25s0 -1.5 1.5 -1.5" fill="none" stroke="#000000" stroke-linecap="round" stroke-linejoin="round" stroke-width="1"></path><path d="M12.5 6a3.55 3.55 0 0 1 2.75 -1.75A3.55 3.55 0 0 1 18 6a3.55 3.55 0 0 1 -2.75 1.75A3.55 3.55 0 0 1 12.5 6Z" fill="none" stroke="#000000" stroke-linecap="round" stroke-linejoin="round" stroke-width="1"></path><path d="m12 20.25 2.25 -4.5 -4.5 0 1.5 -3 -5.25 0 4.13 -8.94" fill="none" stroke="#000000" stroke-linecap="round" stroke-linejoin="round" stroke-width="1"></path><path d="m18 12 -1.5 1.5" fill="none" stroke="#000000" stroke-linecap="round" stroke-linejoin="round" stroke-width="1"></path></g></svg>