<svg xmlns="http://www.w3.org/2000/svg" viewBox="0 0 24 24" id="Climate-Change-1--Streamline-Ultimate"><desc>Climate Change 1 Streamline Icon: https://streamlinehq.com</desc><defs></defs><title>climate-change-1</title><path d="M1 15.5a7.5 7.5 0 1 0 15 0 7.5 7.5 0 1 0 -15 0" fill="none" stroke="#000000" stroke-linecap="round" stroke-linejoin="round" stroke-width="1"></path><path d="M12.421 6.175a3.822 3.822 0 0 1 5.551 5.24" fill="none" stroke="#000000" stroke-linecap="round" stroke-linejoin="round" stroke-width="1"></path><path d="M21.5 9 23 9" fill="none" stroke="#000000" stroke-linecap="round" stroke-linejoin="round" stroke-width="1"></path><path d="m19.596 4.404 1.061 -1.061" fill="none" stroke="#000000" stroke-linecap="round" stroke-linejoin="round" stroke-width="1"></path><path d="M15 2.5 15 1" fill="none" stroke="#000000" stroke-linecap="round" stroke-linejoin="round" stroke-width="1"></path><path d="M10.404 4.404 9.343 3.343" fill="none" stroke="#000000" stroke-linecap="round" stroke-linejoin="round" stroke-width="1"></path><path d="m20.657 14.657 -1.061 -1.061" fill="none" stroke="#000000" stroke-linecap="round" stroke-linejoin="round" stroke-width="1"></path><path d="M13.8 10.2 12 12H9.721a1.5 1.5 0 0 0 -1.171 0.563l-0.711 0.889a1.5 1.5 0 0 0 0.11 2l0.983 0.983a1.5 1.5 0 0 0 1.355 0.411L12 16.5l1 0.5 -0.693 1.386a2 2 0 0 0 -0.172 1.287l0.429 2.131" fill="none" stroke="#000000" stroke-linecap="round" stroke-linejoin="round" stroke-width="1"></path><path d="m1.1 14.276 2.892 1.648A2 2 0 0 1 5 17.661v0.511a2 2 0 0 1 -0.586 1.414l-1.195 1.239" fill="none" stroke="#000000" stroke-linecap="round" stroke-linejoin="round" stroke-width="1"></path></svg>