<svg viewBox="0 0 24 24" xmlns="http://www.w3.org/2000/svg" id="Global-Warming-High-Temperature--Streamline-Ultimate"><desc>Global Warming High Temperature Streamline Icon: https://streamlinehq.com</desc><path d="M11.249 2.25a7.5 7.5 0 1 1 0 12" fill="none" stroke="#000000" stroke-linecap="round" stroke-linejoin="round" stroke-width="1"></path><path d="m14.257 3.74 1.575 1.065a1.5 1.5 0 0 1 0.668 1.248V7.77a1.5 1.5 0 0 1 -1.206 1.471l-2.544 0.509 0.544 2.176" fill="none" stroke="#000000" stroke-linecap="round" stroke-linejoin="round" stroke-width="1"></path><path d="m23.212 9.013 -3.206 1.068a1.5 1.5 0 0 0 -1 1.717l0.592 2.888" fill="none" stroke="#000000" stroke-linecap="round" stroke-linejoin="round" stroke-width="1"></path><path d="M8.25 15.418V3.75a3 3 0 0 0 -6 0v11.668a4.493 4.493 0 1 0 7.5 3.332 4.47 4.47 0 0 0 -1.5 -3.332Z" fill="none" stroke="#000000" stroke-linecap="round" stroke-linejoin="round" stroke-width="1"></path><path d="m5.25 5.25 0 12" fill="none" stroke="#000000" stroke-linecap="round" stroke-linejoin="round" stroke-width="1"></path><path d="M3.75 18.75a1.5 1.5 0 1 0 3 0 1.5 1.5 0 1 0 -3 0Z" fill="none" stroke="#000000" stroke-linecap="round" stroke-linejoin="round" stroke-width="1"></path></svg>