<svg xmlns="http://www.w3.org/2000/svg" viewBox="0 0 24 24" id="Warming-Global--Streamline-Ultimate"><desc>Warming Global Streamline Icon: https://streamlinehq.com</desc><defs></defs><title>warming-global</title><path d="M4.069 15.842a7.5 7.5 0 1 0 15 0 7.5 7.5 0 1 0 -15 0" fill="none" stroke="#000000" stroke-linecap="round" stroke-linejoin="round" stroke-width="1"></path><path d="M14.569 15.842c0 5.5 -3 7.5 -3 7.5s-3 -2 -3 -7.5 3 -7.5 3 -7.5 3 2 3 7.5Z" fill="none" stroke="#000000" stroke-linecap="round" stroke-linejoin="round" stroke-width="1"></path><path d="m5.069 12.842 13 0" fill="none" stroke="#000000" stroke-linecap="round" stroke-linejoin="round" stroke-width="1"></path><path d="m5.069 18.842 13 0" fill="none" stroke="#000000" stroke-linecap="round" stroke-linejoin="round" stroke-width="1"></path><path d="M2.479 11.167c-1.066 -3.091 0 -5.564 1.6 -6.8 0.533 2.472 1.6 3.091 1.6 3.091a9.629 9.629 0 0 0 3.729 -3.091A5.181 5.181 0 0 0 9.941 0.658a7.653 7.653 0 0 1 5.33 2.472C17.4 5.6 17.4 7.458 17.4 7.458a5.814 5.814 0 0 0 3.731 -3.091c1.6 3.709 0.533 6.8 -0.533 8.036" fill="none" stroke="#000000" stroke-linecap="round" stroke-linejoin="round" stroke-width="1"></path></svg>