<svg xmlns="http://www.w3.org/2000/svg" viewBox="0 0 24 24" id="Wildfire--Streamline-Ultimate"><desc>Wildfire Streamline Icon: https://streamlinehq.com</desc><defs></defs><title>wildfire</title><path d="M19.423 7.5a1.543 1.543 0 0 0 -0.068 -0.558 3.074 3.074 0 1 0 -2.3 -0.829A1.532 1.532 0 1 0 19.423 7.5Z" fill="none" stroke="#000000" stroke-linecap="round" stroke-linejoin="round" stroke-width="1"></path><path d="M5 23.25c-1.022 -2.557 -1.022 -5.625 1.023 -7.67a11.41 11.41 0 0 0 1.534 2.556A8.843 8.843 0 0 0 9.6 14.045a7.782 7.782 0 0 0 -0.512 -4.6 7.243 7.243 0 0 1 5.625 3.068 7.266 7.266 0 0 1 1.538 4.087 3.774 3.774 0 0 0 1.534 -2.557c2.557 2.557 2.046 7.16 0 9.205" fill="none" stroke="#000000" stroke-linecap="round" stroke-linejoin="round" stroke-width="1"></path><path d="M9.443 23.25a2.643 2.643 0 0 1 1.534 -3.58c1.534 -0.511 1.534 -1.534 1.534 -2.556a4.953 4.953 0 0 1 1.023 6.136" fill="none" stroke="#000000" stroke-linecap="round" stroke-linejoin="round" stroke-width="1"></path><path d="M1.773 10.977a1.534 1.534 0 1 0 3.068 0 1.534 1.534 0 1 0 -3.068 0" fill="none" stroke="#000000" stroke-linecap="round" stroke-linejoin="round" stroke-width="1"></path><path d="M3.818 3.307a2.557 2.557 0 1 0 5.114 0 2.557 2.557 0 1 0 -5.114 0" fill="none" stroke="#000000" stroke-linecap="round" stroke-linejoin="round" stroke-width="1"></path></svg>