<svg xmlns="http://www.w3.org/2000/svg" fill="none" viewBox="0 0 24 24" id="Acupuncture-Hand--Streamline-Ultimate"><desc>Acupuncture Hand Streamline Icon: https://streamlinehq.com</desc><path stroke="#000000" stroke-linecap="round" stroke-linejoin="round" stroke-miterlimit="10" d="M10.4057 18.0323c1.0703 0 1.938 -0.8677 1.938 -1.938 0 -1.0704 -0.8677 -1.9381 -1.938 -1.9381 -1.07038 0 -1.93808 0.8677 -1.93808 1.9381 0 1.0703 0.8677 1.938 1.93808 1.938Z" stroke-width="1"></path><path stroke="#000000" stroke-linecap="round" stroke-linejoin="round" stroke-miterlimit="10" d="m3.33746 23.1626 5.70017 -5.7002" stroke-width="1"></path><path stroke="#000000" stroke-linecap="round" stroke-linejoin="round" stroke-miterlimit="10" d="M23 11.5938 14.35 1.29005c-0.5 -0.599997 -1.4 -0.699985 -2 -0.299985 -0.6 0.500005 -0.7 1.400005 -0.3 2.000005l-0.6 -0.79999c-0.5 -0.6 -1.4 -0.69999 -2 -0.29999 -0.6 0.4 -0.7 1.4 -0.3 2l2.7 3.5c-0.7 0.1 -1.3 0.39996 -1.9 0.89996 -1.5 1.2 -2.2 3.10005 -1.8 4.90005 0.4 1.2 1.6 1.0999 2 0.8999 1.2 -0.5 0.8 -2.0999 1.9 -3.0999 1.389 -1.26279 2.6 -0.2963 3.3 0.6037 0.7 0.8999 1.2994 2.5503 0 3.2812 -1.6 0.9 -2.6 0.2875 -3 1.4875 -0.2 0.7 0.2 1.5 0.9 1.8 1.1 0.2 2.5938 0.3125 3.9375 -0.5375 0.5976 -0.378 1.2312 -1.0562 1.5313 -1.6562l2.125 2.5312" stroke-width="1"></path><path stroke="#000000" stroke-linecap="round" stroke-linejoin="round" stroke-miterlimit="10" d="m12 2.92047 1.5 2" stroke-width="1"></path></svg>