<svg xmlns="http://www.w3.org/2000/svg" fill="none" viewBox="0 0 24 24" id="Beauty-Massage-Scent--Streamline-Ultimate"><desc>Beauty Massage Scent Streamline Icon: https://streamlinehq.com</desc><path stroke="#000000" stroke-linecap="round" stroke-linejoin="round" stroke-miterlimit="10" d="M23.25 17.45c0 -1.2 -0.9 -2.1 -2.1 -2.1 -0.4 0 -0.8 0.1 -1.1 0.3l0 -0.3c0 -1.2 -0.9 -2.1 -2.1 -2.1 -1.2 0 -2.1 0.9 -2.1 2.1l0 0.3c-0.3 -0.2 -0.7 -0.3 -1.1 -0.3 -1.2 0 -2.1 0.9 -2.1 2.1 0 1.1 0.9 2.1 2 2.1 -0.4 0.4 -0.7 0.9 -0.7 1.6 0 1.2 0.9 2.1 2.1 2.1 0.8 0 1.5 -0.4 1.8 -1.1 0.4 0.7 1 1.1 1.8 1.1 1.2 0 2.1 -0.9 2.1 -2.1 0 -0.6 -0.3 -1.2 -0.7 -1.6 1.2 -0.1 2.2 -1 2.2 -2.1Z" stroke-width="1"></path><path stroke="#000000" stroke-linecap="round" stroke-linejoin="round" stroke-miterlimit="10" d="M17.95 17.7499c-0.3 0 -0.5 0.2 -0.5 0.5s0.2 0.5 0.5 0.5" stroke-width="1"></path><path stroke="#000000" stroke-linecap="round" stroke-linejoin="round" stroke-miterlimit="10" d="M17.95 17.7499c0.3 0 0.5 0.2 0.5 0.5s-0.2 0.5 -0.5 0.5" stroke-width="1"></path><path stroke="#000000" stroke-linecap="round" stroke-linejoin="round" stroke-miterlimit="10" d="M0.75 10.15h2.2" stroke-width="1"></path><path stroke="#000000" stroke-linecap="round" stroke-linejoin="round" stroke-miterlimit="10" d="M11.45 13.9501h-3" stroke-width="1"></path><path stroke="#000000" stroke-linecap="round" stroke-linejoin="round" stroke-miterlimit="10" d="M9.75 19.75c-5 0 -9 -4.3 -9 -9.5s4 -9.5 9 -9.5 9 4.3 9 9.5" stroke-width="1"></path><path stroke="#000000" stroke-linecap="round" stroke-linejoin="round" stroke-miterlimit="10" d="M5.25 9.45001c0 -1 0.5 -1.20001 1.5 -1.20001s1.5 0.30001 1.5 1.20001" stroke-width="1"></path><path stroke="#000000" stroke-linecap="round" stroke-linejoin="round" stroke-miterlimit="10" d="M3.8632 3.0625 5.55 4.65005" stroke-width="1"></path><path stroke="#000000" stroke-linecap="round" stroke-linejoin="round" stroke-miterlimit="10" d="M18.75 10.15h-2.3" stroke-width="1"></path><path stroke="#000000" stroke-linecap="round" stroke-linejoin="round" stroke-miterlimit="10" d="M14.25 9.45001c0 -1 -0.5 -1.20001 -1.5 -1.20001s-1.5 0.30001 -1.5 1.20001" stroke-width="1"></path><path stroke="#000000" stroke-linecap="round" stroke-linejoin="round" stroke-miterlimit="10" d="M15.5302 2.96875 13.85 4.55005" stroke-width="1"></path><path stroke="#000000" stroke-linecap="round" stroke-linejoin="round" stroke-miterlimit="10" d="m3.81094 17.3812 1.69999 -1.6" stroke-width="1"></path></svg>