<svg xmlns="http://www.w3.org/2000/svg" fill="none" viewBox="0 0 24 24" id="Beauty-Massage-Hand--Streamline-Ultimate"><desc>Beauty Massage Hand Streamline Icon: https://streamlinehq.com</desc><path stroke="#000000" stroke-linecap="round" stroke-linejoin="round" stroke-miterlimit="10" d="M0.75 10.151h2.2" stroke-width="1"></path><path stroke="#000000" stroke-linecap="round" stroke-linejoin="round" stroke-miterlimit="10" d="M10.25 13.951h-1.8" stroke-width="1"></path><path stroke="#000000" stroke-linecap="round" stroke-linejoin="round" stroke-miterlimit="10" d="M8.65 19.651c-4.5 -0.6 -7.9 -4.6 -7.9 -9.4 0 -5.20002 4 -9.500023 9 -9.500023 4.5 0 8.3 3.500033 8.9 8.100033" stroke-width="1"></path><path stroke="#000000" stroke-linecap="round" stroke-linejoin="round" stroke-miterlimit="10" d="M5.25 9.45099c0 -1 0.5 -1.20001 1.5 -1.20001s1.5 0.30001 1.5 1.20001" stroke-width="1"></path><path stroke="#000000" stroke-linecap="round" stroke-linejoin="round" stroke-miterlimit="10" d="m4.05 2.95105 1.7 1.59998" stroke-width="1"></path><path stroke="#000000" stroke-linecap="round" stroke-linejoin="round" stroke-miterlimit="10" d="M14.25 9.45099c0 -1 -0.5 -1.20001 -1.5 -1.20001s-1.5 0.30001 -1.5 1.20001" stroke-width="1"></path><path stroke="#000000" stroke-linecap="round" stroke-linejoin="round" stroke-miterlimit="10" d="m15.55 2.95105 -1.7 1.59998" stroke-width="1"></path><path stroke="#000000" stroke-linecap="round" stroke-linejoin="round" stroke-miterlimit="10" d="m3.95 17.4509 1.7 -1.5999" stroke-width="1"></path><path stroke="#000000" stroke-linecap="round" stroke-linejoin="round" stroke-miterlimit="10" d="M23.25 16.251c-0.1 0.1 -0.2 0.2 -0.2 0.3l-0.3 1c-0.1 0.4 -0.3 0.7 -0.6 1l-4.5 4.5c-0.7 0.7 -3.6 -0.5 -5.2 -2.9 -0.3 -0.3 -0.3 -0.8 0 -1.1l2.8 -2.8 0.2 -0.7 -1.4 -0.3c-0.5 -0.1 -0.9 -0.6 -0.8 -1.1 0.1 -0.4 0.4 -0.8 0.8 -0.8 1.1 -0.2 3.1 -0.5 3.6 -0.4l1.2 0.2c0.3 0.1 0.5 0 0.7 -0.2l0.1 -0.1" stroke-width="1"></path></svg>