<svg xmlns="http://www.w3.org/2000/svg" fill="none" viewBox="0 0 24 24" id="Facial-Cleansing-Massage--Streamline-Ultimate"><desc>Facial Cleansing Massage Streamline Icon: https://streamlinehq.com</desc><path stroke="#000000" stroke-linecap="round" stroke-linejoin="round" stroke-miterlimit="10" d="m21.25 4.8501 2 2 -2 2 2 2 -2 2 2 2 -2 2" stroke-width="1"></path><path stroke="#000000" stroke-linecap="round" stroke-linejoin="round" stroke-miterlimit="10" d="m2.75001 4.8501 -2.000002 2 2.000002 2 -2.000002 2 2.000002 2 -2.000002 2 2.000002 2" stroke-width="1"></path><path stroke="#000000" stroke-linecap="round" stroke-linejoin="round" stroke-miterlimit="10" d="M16.2 18.25c0.4 0 0.8 -0.2 0.9 -0.6 0.5 -1.1 1.4 -3.6 1.4 -6 0 -5.59998 -2.9 -8.9 -6.5 -8.9s-6.5 3.30002 -6.5 8.9c0 2.4 0.89999 4.9 1.39999 6 0.2 0.4 0.50001 0.6 0.90001 0.6h8.4Z" stroke-width="1"></path><path stroke="#000000" stroke-linecap="round" stroke-linejoin="round" stroke-miterlimit="10" d="M16.25 18.25v3h-8.5v-3" stroke-width="1"></path><path stroke="#000000" stroke-linecap="round" stroke-linejoin="round" stroke-miterlimit="10" d="M5.57812 12.8307c0.3952 0.3059 2.76635 2.0387 6.42188 2.0387 3.6555 0 6.0267 -1.7328 6.4219 -2.0387" stroke-width="1"></path><path stroke="#000000" stroke-linecap="round" stroke-linejoin="round" stroke-miterlimit="10" d="m5.7 9.15002 0.3 0.20008s2.3 1.5 6 1.5 6 -1.5 6 -1.5l0.3 -0.20008" stroke-width="1"></path><path stroke="#000000" stroke-linecap="round" stroke-linejoin="round" stroke-miterlimit="10" d="m7.23438 5.3396 0.70977 0.50698S9.46509 6.86054 12 6.86054c2.5349 0 4.0559 -1.01396 4.0559 -1.01396l0.7097 -0.50698" stroke-width="1"></path><path stroke="#000000" stroke-linecap="round" stroke-linejoin="round" stroke-miterlimit="10" d="M9 14.4501c0 -3 1 -7.6 1 -7.6v-0.20008" stroke-width="1"></path><path stroke="#000000" stroke-linecap="round" stroke-linejoin="round" stroke-miterlimit="10" d="M15 14.4501c0 -3 -1 -7.6 -1 -7.6v-0.20008" stroke-width="1"></path></svg>