<svg xmlns="http://www.w3.org/2000/svg" fill="none" viewBox="0 0 24 24" id="Head-Massage-Tool-1--Streamline-Ultimate"><desc>Head Massage Tool 1 Streamline Icon: https://streamlinehq.com</desc><path stroke="#000000" stroke-linecap="round" stroke-linejoin="round" stroke-miterlimit="10" d="m3.95 2.75006 2 -1.999999 2 1.999999 2 -1.999999 2 1.999999 2 -1.999999 2 1.999999 2 -1.999999 2 1.999999" stroke-width="1"></path><path stroke="#000000" stroke-linecap="round" stroke-linejoin="round" stroke-miterlimit="10" d="m19.95 21.2499 -2 2 -2 -2 -2 2 -2 -2 -2 2 -2 -2 -2 2 -2 -2" stroke-width="1"></path><path stroke="#000000" stroke-linecap="round" stroke-linejoin="round" stroke-miterlimit="10" d="M20.75 6.04999H3.25c-1.4 0 -2.5 1.1 -2.5 2.5S1.85 11.05 3.25 11.05h17.5c1.4 0 2.5 -1.10001 2.5 -2.50001 -0.1 -1.4 -1.2 -2.5 -2.5 -2.5Z" stroke-width="1"></path><path stroke="#000000" stroke-linecap="round" stroke-linejoin="round" stroke-miterlimit="10" d="M2.95 11.05v4.1999" stroke-width="1"></path><path stroke="#000000" stroke-linecap="round" stroke-linejoin="round" stroke-miterlimit="10" d="M6.55 11.05v6.1999" stroke-width="1"></path><path stroke="#000000" stroke-linecap="round" stroke-linejoin="round" stroke-miterlimit="10" d="M17.35 11.05v6.1999" stroke-width="1"></path><path stroke="#000000" stroke-linecap="round" stroke-linejoin="round" stroke-miterlimit="10" d="M13.75 11.05v6.1999" stroke-width="1"></path><path stroke="#000000" stroke-linecap="round" stroke-linejoin="round" stroke-miterlimit="10" d="M10.15 11.05v6.1999" stroke-width="1"></path><path stroke="#000000" stroke-linecap="round" stroke-linejoin="round" stroke-miterlimit="10" d="M20.95 11.05v4.1999" stroke-width="1"></path></svg>