<svg xmlns="http://www.w3.org/2000/svg" fill="none" viewBox="0 0 24 24" id="Head-Massage-Tool-2--Streamline-Ultimate"><desc>Head Massage Tool 2 Streamline Icon: https://streamlinehq.com</desc><path stroke="#000000" stroke-linecap="round" stroke-linejoin="round" stroke-miterlimit="10" d="M10.2138 2.77537c0 -0.97256 0.7937 -1.75053 1.7859 -1.75053 0.9921 0 1.695 0.77797 1.695 1.75053v7.48873h-3.4809V2.77537Z" stroke-width="1"></path><path stroke="#000000" stroke-linecap="round" stroke-linejoin="round" stroke-miterlimit="10" d="M11.3052 10.2641c-1.9843 1.3025 -2.52998 5.8834 -2.52998 9.822" stroke-width="1"></path><path stroke="#000000" stroke-linecap="round" stroke-linejoin="round" stroke-miterlimit="10" d="M8.77522 23.0625c0.82191 0 1.48818 -0.6663 1.48818 -1.4882s-0.66627 -1.4882 -1.48818 -1.4882 -1.48821 0.6663 -1.48821 1.4882 0.6663 1.4882 1.48821 1.4882Z" stroke-width="1"></path><path stroke="#000000" stroke-linecap="round" stroke-linejoin="round" stroke-miterlimit="10" d="M10.2169 10.1866c-3.96853 1.2898 -6.99765 4.7404 -7.89057 9.8995" stroke-width="1"></path><path stroke="#000000" stroke-linecap="round" stroke-linejoin="round" stroke-miterlimit="10" d="M2.32633 23.0625c0.82191 0 1.48821 -0.6663 1.48821 -1.4882s-0.6663 -1.4882 -1.48821 -1.4882 -1.488201 0.6663 -1.488201 1.4882 0.666291 1.4882 1.488201 1.4882Z" stroke-width="1"></path><path stroke="#000000" stroke-linecap="round" stroke-linejoin="round" stroke-miterlimit="10" d="M12.6064 10.2641c1.9843 1.3025 2.53 5.8834 2.53 9.822" stroke-width="1"></path><path stroke="#000000" stroke-linecap="round" stroke-linejoin="round" stroke-miterlimit="10" d="M15.1364 23.0625c-0.8219 0 -1.4882 -0.6663 -1.4882 -1.4882s0.6663 -1.4882 1.4882 -1.4882 1.4882 0.6663 1.4882 1.4882 -0.6663 1.4882 -1.4882 1.4882Z" stroke-width="1"></path><path stroke="#000000" stroke-linecap="round" stroke-linejoin="round" stroke-miterlimit="10" d="M13.6947 10.1866c3.9685 1.2898 6.9976 4.7404 7.8906 9.8995" stroke-width="1"></path><path stroke="#000000" stroke-linecap="round" stroke-linejoin="round" stroke-miterlimit="10" d="M21.5853 23.0625c-0.822 0 -1.4882 -0.6663 -1.4882 -1.4882s0.6662 -1.4882 1.4882 -1.4882c0.8219 0 1.4882 0.6663 1.4882 1.4882s-0.6663 1.4882 -1.4882 1.4882Z" stroke-width="1"></path></svg>