<svg xmlns="http://www.w3.org/2000/svg" fill="none" viewBox="0 0 24 24" id="Herbal-Compress-People--Streamline-Ultimate"><desc>Herbal Compress People Streamline Icon: https://streamlinehq.com</desc><path stroke="#000000" stroke-linecap="round" stroke-linejoin="round" stroke-miterlimit="10" d="M5.14999 6.19995c1.38072 0 2.5 -1.11929 2.5 -2.5s-1.11928 -2.5 -2.5 -2.5c-1.38071 0 -2.5 1.11929 -2.5 2.5s1.11929 2.5 2.5 2.5Z" stroke-width="1"></path><path stroke="#000000" stroke-linecap="round" stroke-linejoin="round" stroke-miterlimit="10" d="M0.75 14.7v-3.8c0 -2.19998 1.8 -3.99998 4 -3.99998h6.5c1 0 1.8 0.79993 1.8 1.79993S12.25 10.5 11.25 10.5h-4.3v4.2" stroke-width="1"></path><path stroke="#000000" stroke-linecap="round" stroke-linejoin="round" stroke-miterlimit="10" d="M20.45 22.8c1.5464 0 2.8 -1.2536 2.8 -2.8 0 -1.5464 -1.2536 -2.8 -2.8 -2.8 -1.5464 0 -2.8 1.2536 -2.8 2.8 0 1.5464 1.2536 2.8 2.8 2.8Z" stroke-width="1"></path><path stroke="#000000" stroke-linecap="round" stroke-linejoin="round" stroke-miterlimit="10" d="M11.95 22.8c-0.7 0 -1.3 -0.6 -1.3 -1.3 0 -0.7 0.6 -1.3 1.3 -1.3h2.4" stroke-width="1"></path><path stroke="#000000" stroke-linecap="round" stroke-linejoin="round" stroke-miterlimit="10" d="M4.14999 18.8c-1.1 0.1 -2 0.9 -2 2s0.9 2 2 2l10.00001 0c2.6 0 3.4 -1.2 3.3 -3.3l0 -0.2c-0.1 -0.9 -1.4 -1.5 -2.3 -1.5l-4 0c-2.40001 0 -5.20001 0.8 -7.00001 1Z" stroke-width="1"></path><path stroke="#000000" stroke-linecap="round" stroke-linejoin="round" stroke-miterlimit="10" d="M15.45 12.9h-3v-2.1405c0 -0.77837 0.7 -1.45945 1.5 -1.45945s1.5 0.68108 1.5 1.45945V12.9Z" stroke-width="1"></path><path stroke="#000000" stroke-linecap="round" stroke-linejoin="round" stroke-miterlimit="10" d="M12.45 12.9c-0.9 0.5 -1.5 1.3 -1.5 2.1 0 1.2 1.3 1.5 3 1.5s3 -0.4 3 -1.5c0 -0.8 -0.6 -1.6 -1.5 -2.1" stroke-width="1"></path></svg>