<svg xmlns="http://www.w3.org/2000/svg" fill="none" viewBox="0 0 24 24" id="Hot-Stone-Massage-Person--Streamline-Ultimate"><desc>Hot Stone Massage Person Streamline Icon: https://streamlinehq.com</desc><path stroke="#000000" stroke-linecap="round" stroke-linejoin="round" stroke-miterlimit="10" d="M9.25002 8.75c0.99998 -1 0.99998 -3 0 -4 -1 -1 -1.5 -3 0 -4" stroke-width="1"></path><path stroke="#000000" stroke-linecap="round" stroke-linejoin="round" stroke-miterlimit="10" d="M14.45 8.75c1 -1 1 -3 0 -4s-1.5 -3 0 -4" stroke-width="1"></path><path stroke="#000000" stroke-linecap="round" stroke-linejoin="round" stroke-miterlimit="10" d="M3.95003 8.75c1 -1 1 -3 0 -4s-1.5 -3 0 -4" stroke-width="1"></path><path stroke="#000000" stroke-linecap="round" stroke-linejoin="round" stroke-miterlimit="10" d="M20.45 23.25c1.5464 0 2.8 -1.2536 2.8 -2.8 0 -1.5464 -1.2536 -2.8 -2.8 -2.8 -1.5464 0 -2.8 1.2536 -2.8 2.8 0 1.5464 1.2536 2.8 2.8 2.8Z" stroke-width="1"></path><path stroke="#000000" stroke-linecap="round" stroke-linejoin="round" stroke-miterlimit="10" d="M11.55 23.25c-0.8 0 -1.4 -0.6 -1.4 -1.4 0 -0.8 0.6 -1.4 1.4 -1.4h1.9" stroke-width="1"></path><path stroke="#000000" stroke-linecap="round" stroke-linejoin="round" stroke-miterlimit="10" d="M2.95002 18.85c-1.2 0.1 -2.200012 1 -2.200012 2.2 0 1.2 1.000012 2.2 2.200012 2.2l10.99998 0c2.9 0 3.8 -1.3 3.6 -3.6l0 -0.2c-0.1 -1 -1.5 -1.6 -2.5 -1.6l-4.4 0c-2.7 -0.1 -5.79998 0.8 -7.69998 1Z" stroke-width="1"></path><path stroke="#000000" stroke-linecap="round" stroke-linejoin="round" stroke-miterlimit="10" d="M15.75 15.15c0 -0.8 -0.7 -1.5 -1.5 -1.5h-2.5c-0.8 0 -1.5 0.7 -1.5 1.5" stroke-width="1"></path><path stroke="#000000" stroke-linecap="round" stroke-linejoin="round" stroke-miterlimit="10" d="M6.95003 15.55c-0.1 -0.8 -0.90002 -1.4 -1.70002 -1.2l-2.5 0.4c-0.8 0.1 -1.40001 0.9 -1.20001 1.7" stroke-width="1"></path></svg>