<svg xmlns="http://www.w3.org/2000/svg" fill="none" viewBox="0 0 24 24" id="Massage-Muscle--Streamline-Ultimate"><desc>Massage Muscle Streamline Icon: https://streamlinehq.com</desc><path stroke="#000000" stroke-linecap="round" stroke-linejoin="round" stroke-miterlimit="10" d="M8.87899 11.4592c0 -1.86836 1.47501 -3.34339 3.34331 -3.34339" stroke-width="1"></path><path stroke="#000000" stroke-linecap="round" stroke-linejoin="round" stroke-miterlimit="10" d="M5.83066 10.9675c0 -3.24497 2.65499 -5.89996 5.89994 -5.89996" stroke-width="1"></path><path stroke="#000000" stroke-linecap="round" stroke-linejoin="round" stroke-miterlimit="10" d="M7.82082 1.03583v1.76998C3.8875 3.98581 0.9375 7.62419 0.9375 11.9508v5.9" stroke-width="1"></path><path stroke="#000000" stroke-linecap="round" stroke-linejoin="round" stroke-miterlimit="10" d="M18.3425 5.46083c-1.18 -1.27833 -2.655 -2.16332 -4.3267 -2.75331V0.937531" stroke-width="1"></path><path stroke="#000000" stroke-linecap="round" stroke-linejoin="round" stroke-miterlimit="10" d="M19.8666 9.29584c1.6717 1.08166 2.5567 2.26166 -0.1966 4.91666" stroke-width="1"></path><path stroke="#000000" stroke-linecap="round" stroke-linejoin="round" stroke-miterlimit="10" d="m12.0983 22.9642 1.18 -3.7367 -0.885 -2.065c-0.295 -0.6883 -0.4917 -3.4417 -0.59 -4.9167 0 -0.59 0.295 -1.0816 0.885 -1.2783 0.6883 -0.1967 1.3767 0.0983 1.6717 0.6883l0.7866 1.77 0.885 -0.4916c0.3934 -0.1967 0.885 -0.4917 1.3767 -0.8851" stroke-width="1"></path><path stroke="#000000" stroke-linecap="round" stroke-linejoin="round" stroke-miterlimit="10" d="M21.3416 11.8525c1.3767 0.7867 1.6717 1.8683 1.0817 3.1467 0.9833 1.3766 1.475 3.4416 -3.54 6.8833l-0.1967 1.18" stroke-width="1"></path></svg>