<svg xmlns="http://www.w3.org/2000/svg" fill="none" viewBox="0 0 24 24" id="Massage-Top--Streamline-Ultimate"><desc>Massage Top Streamline Icon: https://streamlinehq.com</desc><path stroke="#000000" stroke-linecap="round" stroke-linejoin="round" stroke-miterlimit="10" d="M7.60001 6.34998C9.1464 6.34998 10.4 5.09639 10.4 3.54999 10.4 2.00359 9.1464 0.75 7.60001 0.75 6.05361 0.75 4.8 2.00359 4.8 3.54999c0 1.5464 1.25361 2.79999 2.80001 2.79999Z" stroke-width="1"></path><path stroke="#000000" stroke-linecap="round" stroke-linejoin="round" stroke-miterlimit="10" d="M0.800003 18.25v-6.5C0.800003 9.24998 2.6 6.94995 5 6.64995c2 -0.3 3.80001 0.60003 4.90001 2.10003C10.9 9.94998 11.4 10.65 12 11.45c0.6 0.7 0.5 1.8 -0.2 2.4 -0.7 0.6 -1.89999 0.8 -2.69999 -0.1l-1.7 -1.9" stroke-width="1"></path><path stroke="#000000" stroke-linecap="round" stroke-linejoin="round" stroke-miterlimit="10" d="M15.675 23.25c-0.9 0 -1.6 -0.7 -1.6 -1.6 0 -0.9 0.7 -1.6 1.6 -1.6" stroke-width="1"></path><path stroke="#000000" stroke-linecap="round" stroke-linejoin="round" stroke-miterlimit="10" d="M15.675 20.05c1.5464 0 2.8 -1.2536 2.8 -2.8 0 -1.5464 -1.2536 -2.8 -2.8 -2.8 -1.5464 0 -2.8 1.2536 -2.8 2.8 0 1.5464 1.2536 2.8 2.8 2.8Z" stroke-width="1"></path><path stroke="#000000" stroke-linecap="round" stroke-linejoin="round" stroke-miterlimit="10" d="M13.175 15.85c-2.6 1.1 -5 3.6 -5 5.4 0 2 1 2 7.5 2s7.5 0 7.5 -2c0 -1.9 -2.5 -4.4 -5.1 -5.5" stroke-width="1"></path></svg>