<svg xmlns="http://www.w3.org/2000/svg" fill="none" viewBox="0 0 24 24" id="Massage-Map-Foot--Streamline-Ultimate"><desc>Massage Map Foot Streamline Icon: https://streamlinehq.com</desc><path stroke="#000000" stroke-linecap="round" stroke-linejoin="round" stroke-miterlimit="10" d="M16.3837 3.85004c-0.2 -0.9 -1.1 -1.60004 -2.2 -1.60004 -0.4 0 -0.8 0.09999 -1.1 0.29999 -0.3 -0.8 -1.2 -1.29999 -2.1 -1.29999 -0.4 0 -0.8 0.09999 -1.10003 0.29999 -0.5 -0.5 -1.1 -0.79999 -1.9 -0.79999 -1.1 0 -2 0.80002 -2 2.40002V18.55c0 1.7 1 4.7 4.40003 4.7 2.5 0 3.6 -1.6 4.1 -3.1 0.7 -1.8 0.2 -2.7 0.9 -4.9 1.2 -4 2.6 -4.2 2.6 -7.89996 0 -1.6 0.4 -3.5 -1.6 -3.5Z" stroke-width="1"></path><path stroke="#000000" stroke-linecap="round" stroke-linejoin="round" stroke-miterlimit="10" d="M10.7837 7.35004c0 1.7 1.4 1.4 1.6 2.99996 0.2 1.6 0.8 3.2 3.5 3.2" stroke-width="1"></path><path stroke="#000000" stroke-linecap="round" stroke-linejoin="round" stroke-miterlimit="10" d="M12.4837 10.85c0.2 1.6 -2.4 4 -6.50003 3.7" stroke-width="1"></path><path stroke="#000000" stroke-linecap="round" stroke-linejoin="round" stroke-miterlimit="10" d="M5.98367 18.95c2.23258 -1.1 6.19033 -1.8 8.82883 0.1" stroke-width="1"></path><path stroke="#000000" stroke-linecap="round" stroke-linejoin="round" stroke-miterlimit="10" d="M9.78366 1.45001c0.70004 0.8 0.60004 1.79999 0.20001 2.79999" stroke-width="1"></path><path stroke="#000000" stroke-linecap="round" stroke-linejoin="round" stroke-miterlimit="10" d="M13.0937 2.54993c0.3 0.5 0.2 1.70001 0 2.20001" stroke-width="1"></path><path stroke="#000000" stroke-linecap="round" stroke-linejoin="round" stroke-miterlimit="10" d="M16.3837 3.85004c0.1 0.4 0 0.79995 -0.1 1.19995" stroke-width="1"></path></svg>