<svg xmlns="http://www.w3.org/2000/svg" fill="none" viewBox="0 0 24 24" id="Massage-Chair-Mobile--Streamline-Ultimate"><desc>Massage Chair Mobile Streamline Icon: https://streamlinehq.com</desc><path stroke="#000000" stroke-linecap="round" stroke-linejoin="round" stroke-miterlimit="10" d="M5.01416 14.4521H2.47662c-0.8 0 -1.499996 -0.7 -1.499996 -1.5V2.45215c0 -0.8 0.699996 -1.500002 1.499996 -1.500002h6c0.8 0 1.5 0.700002 1.5 1.500002v7" stroke-width="1"></path><path stroke="#000000" stroke-linecap="round" stroke-linejoin="round" stroke-miterlimit="10" d="M0.976624 10.7522H6.47662" stroke-width="1"></path><path stroke="#000000" stroke-linecap="round" stroke-linejoin="round" d="M7.99564 16.5486c-2.02632 0 -3.66898 1.6426 -3.66898 3.669l0 2.8303h3.66898l0 -6.4993Z" stroke-width="1"></path><path stroke="#000000" stroke-linecap="round" stroke-linejoin="round" d="M14.8649 9.64908c-0.4711 -0.28823 -0.6194 -0.90379 -0.3312 -1.3749l2.1189 -3.46336c0.2882 -0.47111 0.9038 -0.61937 1.3749 -0.33114l0.7273 0.44494c0.4711 0.28823 0.6193 0.90379 0.3311 1.3749L16.967 9.76288c-0.2882 0.47112 -0.9038 0.61932 -1.3749 0.33112l-0.7272 -0.44492Z" stroke-width="1"></path><path stroke="#000000" stroke-linecap="round" stroke-linejoin="round" d="M7.99564 16.0562c0 -1.6569 1.34314 -3 2.99996 -3h4.2603c1.6568 0 2.9999 1.3431 2.9999 3v6.9917H7.99564v-6.9917Z" stroke-width="1"></path><path stroke="#000000" stroke-linecap="round" stroke-linejoin="round" d="M21.5977 4.32738c-0.7058 -0.13356 -1.4125 0.17905 -1.7827 0.78855l-4.8225 7.94027h0.2633c1.6569 0 3 1.3432 3 3v3.1894c0.9678 -1.1603 2.4714 -3.3382 3.5712 -6.6713 0.6337 -1.9205 1.0034 -4.6575 1.1866 -6.36772 0.0962 -0.89772 -0.5299 -1.71153 -1.4159 -1.8792Z" stroke-width="1"></path></svg>