<svg xmlns="http://www.w3.org/2000/svg" fill="none" viewBox="0 0 24 24" id="Massage-Head--Streamline-Ultimate"><desc>Massage Head Streamline Icon: https://streamlinehq.com</desc><path stroke="#000000" stroke-linecap="round" stroke-linejoin="round" stroke-miterlimit="10" d="M16.3945 14.7812c-0.3 1.4 -1.1136 2.7688 -2.1136 3.6688v4.8" stroke-width="1"></path><path stroke="#000000" stroke-linecap="round" stroke-linejoin="round" stroke-miterlimit="10" d="M6.58087 23.15v-2.9H4.48086c-0.6 0 -1 -0.4 -1 -1v-2.2H2.28087c-0.6 0 -0.9 -0.6 -0.7 -1.1 0.8 -1.7 1.89999 -3.8 1.89999 -3.8 0 -2.64026 0.91809 -4.85454 3.90001 -5.60002 1.82942 -0.48142 3.56613 -0.22118 5.12093 0.42368" stroke-width="1"></path><path stroke="#000000" stroke-linecap="round" stroke-linejoin="round" stroke-miterlimit="10" d="M15.1527 9.45001c-0.3 1.29999 -0.9 2.49999 -1.3 3.19999 -0.5 0.9 -0.4 1.8 0.4 2.2 0.9 0.5 2 -0.4 2.6 -1.7 0.6 -1.2 0.8 -2.1 0.9 -2.8" stroke-width="1"></path><path stroke="#000000" stroke-linecap="round" stroke-linejoin="round" stroke-miterlimit="10" d="M16.1262 14.264c0.2 0.9 1.7 1.5 2.4 0.8 0.7 -0.6 2.1 -2.5999 2.2 -4.6999 0.2 -2.20003 -1 -4.40005 -1 -4.40005L22.3438 0.875" stroke-width="1"></path><path stroke="#000000" stroke-linecap="round" stroke-linejoin="round" stroke-miterlimit="10" d="m15.8808 0.849976 -1.4 3.200014s-1.4 -0.5 -3.6 -0.5c-2.09997 0 -1.99997 2.39999 -0.7 2.79999 0.37 0.05236 0.5236 0.07626 0.9754 0.18127 0.4518 0.10501 0.9016 0.25826 1.3455 0.44241 0.0512 0.44424 -0.1001 1.48043 -0.4594 2.52205 -0.3133 0.88389 -0.7216 1.71119 -1.0134 2.22179 -0.5081 0.9146 -0.4065 1.8292 0.4065 2.2357 0.9146 0.5081 2.0325 -0.4065 2.6422 -1.7276" stroke-width="1"></path></svg>