<svg xmlns="http://www.w3.org/2000/svg" fill="none" viewBox="0 0 24 24" id="Massage-Map-Head--Streamline-Ultimate"><desc>Massage Map Head Streamline Icon: https://streamlinehq.com</desc><path stroke="#000000" stroke-linecap="round" stroke-linejoin="round" stroke-miterlimit="10" d="m7.94441 23.2499 0 -4.2579H5.8444c-0.7 0 -1.29998 -0.6 -1.29998 -1.3v-2.7H2.94441c-0.7 0 -1.19999 -0.8 -0.89999 -1.4 1 -2.2 2.5 -5.00001 2.5 -5.00001 0 -3.5263 1.27253 -6.44261 5.19998 -7.5 6 -1.599997 12.2 2.60002 12.3 8.70002 0 2.69999 -1.2 5.19999 -3 6.89999l0 6.5579" stroke-width="1"></path><path stroke="#000000" stroke-linecap="round" stroke-linejoin="round" stroke-miterlimit="10" d="M4.53125 8.60938C9.13125 8.40937 12 5.64995 12 1.94995V0.749939" stroke-width="1"></path><path stroke="#000000" stroke-linecap="round" stroke-linejoin="round" stroke-miterlimit="10" d="M11.6406 4.09375c1.2006 4.67484 4.2022 3.77968 4.8025 5.37111 1.5007 3.97854 -1.3007 5.17214 2.6013 8.15604" stroke-width="1"></path><path stroke="#000000" stroke-linecap="round" stroke-linejoin="round" stroke-miterlimit="10" d="M16.8694 13.921c-3.7 0.5 -5.1 1.9999 -6 3.3999" stroke-width="1"></path></svg>