<svg xmlns="http://www.w3.org/2000/svg" fill="none" viewBox="0 0 24 24" id="Prenatal-Massage-Wave--Streamline-Ultimate"><desc>Prenatal Massage Wave Streamline Icon: https://streamlinehq.com</desc><path stroke="#000000" stroke-linecap="round" stroke-linejoin="round" stroke-miterlimit="10" d="M22.034 23.0192c0 -0.0969 0 -0.4846 0.0969 -0.5816l0.4846 -0.8722c0.1938 -0.2908 0.2908 -0.6785 0.2908 -1.0662V14.393c0 -0.8723 -2.8108 -2.1322 -5.5246 -1.5507 -0.3877 0 -0.7754 0.3877 -0.7754 0.7754v3.8769l-0.2908 0.6785 -1.1631 -0.7755c-0.3877 -0.2907 -0.9692 -0.1938 -1.26 0.1939 -0.2907 0.2908 -0.2907 0.7754 0 1.1631 0.5816 0.8723 1.7446 2.423 2.2292 2.7138l0.9693 0.6785c0.1938 0.1938 0.3877 0.3877 0.3877 0.6785v0.1938" stroke-width="1"></path><path stroke="#000000" stroke-linecap="round" stroke-linejoin="round" stroke-miterlimit="10" d="M13.3906 12.6485c0.5815 -2.81075 -0.2908 -4.16767 -3.97384 -4.16767 -0.87231 0 -2.22922 0.67845 -3.29538 3.68307 -0.29077 0.6785 -0.87232 1.26 -1.6477 1.4538 -1.74461 0.2908 -2.90768 1.8416 -3.29538 3.877 -0.484612 2.52 1.1631 5.04 3.6831 5.5246" stroke-width="1"></path><path stroke="#000000" stroke-linecap="round" stroke-linejoin="round" stroke-miterlimit="10" d="M9.13478 7.75006c1.93302 0 3.50002 -1.567 3.50002 -3.5S11.0678 0.750061 9.13478 0.750061c-1.933 0 -3.5 1.566999 -3.5 3.499999 0 1.933 1.567 3.5 3.5 3.5Z" stroke-width="1"></path><path stroke="#000000" stroke-linecap="round" stroke-linejoin="round" stroke-miterlimit="10" d="M11.0707 19.7724c-1.16311 -1.1631 -1.16311 -3.0046 0 -4.0707" stroke-width="1"></path><path stroke="#000000" stroke-linecap="round" stroke-linejoin="round" stroke-miterlimit="10" d="M8.8414 21.8563c-2.22923 -2.2293 -2.22923 -5.9123 0 -8.2385" stroke-width="1"></path></svg>