<svg xmlns="http://www.w3.org/2000/svg" fill="none" viewBox="0 0 24 24" id="Thai-Massage-Elbow--Streamline-Ultimate"><desc>Thai Massage Elbow Streamline Icon: https://streamlinehq.com</desc><path stroke="#000000" stroke-linecap="round" stroke-linejoin="round" stroke-miterlimit="10" d="M4.35764 17.9659c1.90615 0 3.45139 -1.5453 3.45139 -3.4514 0 -1.9062 -1.54524 -3.4514 -3.45139 -3.4514S0.90625 12.6083 0.90625 14.5145c0 1.9061 1.54524 3.4514 3.45139 3.4514Z" stroke-width="1"></path><path stroke="#000000" stroke-linecap="round" stroke-linejoin="round" stroke-miterlimit="10" d="M3.56876 23.0937v-0.9861c0 -2.9583 2.46527 -5.4236 5.42361 -5.4236 2.95833 0 5.42363 2.4653 5.42363 5.4236v0.9861" stroke-width="1"></path><path stroke="#000000" stroke-linecap="round" stroke-linejoin="round" stroke-miterlimit="10" d="M16.684 7.80903c1.9062 0 3.4514 -1.54524 3.4514 -3.45139S18.5902 0.90625 16.684 0.90625c-1.9061 0 -3.4514 1.54524 -3.4514 3.45139s1.5453 3.45139 3.4514 3.45139Z" stroke-width="1"></path><path stroke="#000000" stroke-linecap="round" stroke-linejoin="round" stroke-miterlimit="10" d="M12.9368 13.0354V10.077c0 -1.0847 -0.8875 -1.9722 -1.9722 -1.9722 -1.08476 0 -1.97226 0.8875 -1.97226 1.9722v2.4653c0 2.0708 1.67636 3.7472 3.74726 3.7472 1.775 0 3.1555 -1.4792 3.1555 -3.1556" stroke-width="1"></path><path stroke="#000000" stroke-linecap="round" stroke-linejoin="round" stroke-miterlimit="10" d="M12.9368 10.3728c1.0847 -1.08469 2.5639 -1.77496 4.2403 -1.77496 3.2541 0 5.9166 2.66246 5.9166 5.91666v5.1278" stroke-width="1"></path></svg>