<svg xmlns="http://www.w3.org/2000/svg" fill="none" viewBox="0 0 24 24" id="Thai-Massage-Pose-1--Streamline-Ultimate"><desc>Thai Massage Pose 1 Streamline Icon: https://streamlinehq.com</desc><path stroke="#000000" stroke-linecap="round" stroke-linejoin="round" stroke-miterlimit="10" d="M3.25 6.75c1.38071 0 2.5 -1.11929 2.5 -2.5s-1.11929 -2.5 -2.5 -2.5 -2.5 1.11929 -2.5 2.5 1.11929 2.5 2.5 2.5Z" stroke-width="1"></path><path stroke="#000000" stroke-linecap="round" stroke-linejoin="round" stroke-miterlimit="10" d="m7.35 10.85 2.9 1c0.8 0.3 1.7 -0.2 1.9 -1 0.3 -0.8 -0.2 -1.70001 -1 -1.90001l-4.6 -1.5c-0.7 -0.2 -1.6 -0.20005 -2.3 0.19995 -1.3 0.7 -1.8 2.30004 -1.1 3.60006l2.7 5.3h-2.8c-0.8 0 -1.4 0.6 -1.4 1.4 0 0.8 0.6 1.4 1.4 1.4h3.6c2 0 3.3 -1.9 2.7 -3.8l-0.4 -1.5" stroke-width="1"></path><path stroke="#000000" stroke-linecap="round" stroke-linejoin="round" stroke-miterlimit="10" d="M20.75 15.75c1.3807 0 2.5 -1.1193 2.5 -2.5s-1.1193 -2.5 -2.5 -2.5 -2.5 1.1193 -2.5 2.5 1.1193 2.5 2.5 2.5Z" stroke-width="1"></path><path stroke="#000000" stroke-linecap="round" stroke-linejoin="round" stroke-miterlimit="10" d="m15.05 15.15 -2.9 -1c-0.8 -0.3 -1.2 -1.1 -0.9 -1.9 0.3 -0.8 1.1 -1.2 1.9 -0.9l2.5 1c1.3 0.5 2.2 1.8 2.2 3.2 0 0.9 -0.4 1.8 -1 2.5l-3.4 3.4c-0.5 0.5 -1.3 0.8 -2 0.8h-6c-0.8 0 -1.4 -0.6 -1.4 -1.4 0 -0.8 0.6 -1.4 1.4 -1.4h5.3l2.1 -2.1" stroke-width="1"></path></svg>