<svg xmlns="http://www.w3.org/2000/svg" fill="none" viewBox="0 0 24 24" id="Thai-Massage--Streamline-Ultimate"><desc>Thai Massage Streamline Icon: https://streamlinehq.com</desc><path stroke="#000000" stroke-linecap="round" stroke-linejoin="round" stroke-miterlimit="10" d="M6.79375 5.75c1.38071 0 2.5 -1.11929 2.5 -2.5s-1.11929 -2.5 -2.5 -2.5 -2.5 1.11929 -2.5 2.5 1.11929 2.5 2.5 2.5Z" stroke-width="1"></path><path stroke="#000000" stroke-linecap="round" stroke-linejoin="round" stroke-miterlimit="10" d="M1.29375 17.05v-5.9c0 -2.40001 1.6 -4.5 4 -4.8 1.9 -0.3 3.3 0.60001 4.6 1.70001 1.40005 1.1 2.30005 1.7 2.90005 2.49999 0.5 0.7 0.4 1.6 -0.3 2.1s-1.5 0.3 -2.1 -0.2c-0.90005 -0.8 -3.20005 -2.3 -3.20005 -2.3v6.9" stroke-width="1"></path><path stroke="#000000" stroke-linecap="round" stroke-linejoin="round" stroke-miterlimit="10" d="M18.2937 11.75c1.3808 0 2.5 -1.1193 2.5 -2.5 0 -1.38071 -1.1192 -2.5 -2.5 -2.5 -1.3807 0 -2.4999 1.11929 -2.4999 2.5 0 1.3807 1.1192 2.5 2.4999 2.5Z" stroke-width="1"></path><path stroke="#000000" stroke-linecap="round" stroke-linejoin="round" stroke-miterlimit="10" d="M20.8937 23.05s0.2001 -0.3 0.2001 -1.2c0 -0.9 -0.9 -2.3 -2.3 -2.3h-2.7l0 -1.8c0 -0.9 1.1 -1.6 2.1 -0.6l1.8 2.1c0.5 0.6 1.5 0.7 2.1 0.2 0.7 -0.5 0.8 -1.5 0.3 -2.1 -0.6 -0.8 -1.4 -1.8 -2.3 -3 -1 -1.4 -2.7 -2.2 -4.6 -2 -2.3 0.4 -4 2.5 -4 4.8v3.2c0 1.5 1.2 2.7 2.7 2.7h2.3" stroke-width="1"></path></svg>