<svg xmlns="http://www.w3.org/2000/svg" fill="none" viewBox="0 0 24 24" id="Vacuum-Cup-Massage-Back--Streamline-Ultimate"><desc>Vacuum Cup Massage Back Streamline Icon: https://streamlinehq.com</desc><path stroke="#000000" stroke-linecap="round" stroke-linejoin="round" stroke-miterlimit="10" d="M20.45 18.5c1.5464 0 2.8 -1.2536 2.8 -2.8 0 -1.5464 -1.2536 -2.8 -2.8 -2.8 -1.5464 0 -2.8 1.2536 -2.8 2.8 0 1.5464 1.2536 2.8 2.8 2.8Z" stroke-width="1"></path><path stroke="#000000" stroke-linecap="round" stroke-linejoin="round" stroke-miterlimit="10" d="M11.55 18.5c-0.8 0 -1.4 -0.6 -1.4 -1.4 0 -0.8 0.6 -1.4 1.4 -1.4h1.9" stroke-width="1"></path><path stroke="#000000" stroke-linecap="round" stroke-linejoin="round" stroke-miterlimit="10" d="M2.94998 14.1c-1.2 0.1 -2.19998 1 -2.19998 2.2 0 1.2 0.99998 2.2 2.19998 2.2l11.00002 0c2.9 0 3.8 -1.3 3.6 -3.6l0 -0.2c-0.1 -1 -1.5 -1.6 -2.5 -1.6l-4.4 0c-2.70001 -0.1 -5.70002 0.8 -7.70002 1Z" stroke-width="1"></path><path stroke="#000000" stroke-linecap="round" stroke-linejoin="round" stroke-miterlimit="10" d="M13.15 7.29999V5.59998" stroke-width="1"></path><path stroke="#000000" stroke-linecap="round" stroke-linejoin="round" stroke-miterlimit="10" d="m4.68124 7.82513 -0.39999 -1.70001" stroke-width="1"></path><path stroke="#000000" stroke-linecap="round" stroke-linejoin="round" stroke-miterlimit="10" d="M4.53413 13.8605c0.27065 -0.0492 0.55005 -0.1022 0.83633 -0.1565 0.67647 -0.1283 1.39144 -0.2638 2.12039 -0.3747L7.05002 11.3c0.4 -0.5 0.49999 -1.1 0.39999 -1.80003 -0.3 -1.2 -1.39998 -2.00001 -2.69998 -1.70001 -1.2 0.3 -2.00001 1.40001 -1.70001 2.70004 0.1 0.7 0.50001 1.2 1.10001 1.5l0.3841 1.8605Z" stroke-width="1"></path><path stroke="#000000" stroke-linecap="round" stroke-linejoin="round" stroke-miterlimit="10" d="M14.55 13.1v-1.9c0.5 -0.4 0.8 -1 0.8 -1.7 0 -1.2 -1 -2.20001 -2.2 -2.20001 -1.2 0 -2.2 1.00001 -2.2 2.20001 0 0.7 0.3 1.3 0.8 1.7v1.9h2.8Z" stroke-width="1"></path></svg>