<svg viewBox="0 0 24 24" xmlns="http://www.w3.org/2000/svg" id="Old-People-Man-1--Streamline-Ultimate"><desc>Old People Man 1 Streamline Icon: https://streamlinehq.com</desc><path d="M2.25 23.25a9.75 9.75 0 0 1 19.5 0" fill="none" stroke="#000000" stroke-linecap="round" stroke-linejoin="round" stroke-width="1"></path><path d="M14.25 23.25 12 13.5l-2.25 9.75" fill="none" stroke="#000000" stroke-linecap="round" stroke-linejoin="round" stroke-width="1"></path><path d="M16.379 8.9a3.75 3.75 0 1 0 0.871 -7.4 3.735 3.735 0 0 0 -1.858 0.493S13.333 6 17.25 6" fill="none" stroke="#000000" stroke-linecap="round" stroke-linejoin="round" stroke-width="1"></path><path d="M7.621 8.9a3.75 3.75 0 1 1 -0.871 -7.4 3.735 3.735 0 0 1 1.858 0.493S10.667 6 6.75 6" fill="none" stroke="#000000" stroke-linecap="round" stroke-linejoin="round" stroke-width="1"></path><path d="M17.25 6a5.25 5.25 0 0 1 -10.5 0" fill="none" stroke="#000000" stroke-linecap="round" stroke-linejoin="round" stroke-width="1"></path><path d="M15.392 1.993h0a5.25 5.25 0 0 0 -6.784 0h0" fill="none" stroke="#000000" stroke-linecap="round" stroke-linejoin="round" stroke-width="1"></path></svg>