<svg viewBox="0 0 24 24" xmlns="http://www.w3.org/2000/svg" id="Technology-Prosthetic-Leg--Streamline-Ultimate"><desc>Technology Prosthetic Leg Streamline Icon: https://streamlinehq.com</desc><path d="M13.578 10.249a4.488 4.488 0 0 0 1.672 -3.5v-3a3 3 0 0 0 -6 0h-1.5a1.5 1.5 0 0 0 -1.5 1.5v1.5a4.488 4.488 0 0 0 1.672 3.5" fill="none" stroke="#000000" stroke-linecap="round" stroke-linejoin="round" stroke-width="1"></path><path d="M7.75 11.25a3 3 0 1 0 6 0 3 3 0 1 0 -6 0Z" fill="none" stroke="#000000" stroke-linecap="round" stroke-linejoin="round" stroke-width="1"></path><path d="m10.75 14.25 0 4.929" fill="none" stroke="#000000" stroke-linecap="round" stroke-linejoin="round" stroke-width="1"></path><path d="M18.25 21.75a1.5 1.5 0 0 1 -1.5 1.5h-7.5a1.5 1.5 0 0 1 -1.5 -1.5v-1.271A1.5 1.5 0 0 1 9.462 19l7.5 1.071a1.5 1.5 0 0 1 1.288 1.485Z" fill="none" stroke="#000000" stroke-linecap="round" stroke-linejoin="round" stroke-width="1"></path></svg>