<svg viewBox="0 0 24 24" xmlns="http://www.w3.org/2000/svg" id="Kitchenware-Spatula-1--Streamline-Ultimate"><desc>Kitchenware Spatula 1 Streamline Icon: https://streamlinehq.com</desc><path d="m10.9 15.225 -7.385 7.382a1.5 1.5 0 0 1 -2.122 0h0a1.5 1.5 0 0 1 0 -2.122L8.775 13.1" fill="none" stroke="#000000" stroke-linecap="round" stroke-linejoin="round" stroke-width="1"></path><path d="m22.607 7.757 -3.182 -3.182 -3.182 -3.182a1.5 1.5 0 0 0 -2.122 0l-3.244 3.244a8.8 8.8 0 0 0 -2.144 8.424l1.1 1.1 1.1 1.1a8.8 8.8 0 0 0 8.424 -2.144l3.244 -3.244a1.5 1.5 0 0 0 0.006 -2.116Z" fill="none" stroke="#000000" stroke-linecap="round" stroke-linejoin="round" stroke-width="1"></path><path d="m4.575 17.303 2.122 2.122" fill="none" stroke="#000000" stroke-linecap="round" stroke-linejoin="round" stroke-width="1"></path><path d="M15.182 4.575 11.47 8.288" fill="none" stroke="#000000" stroke-linecap="round" stroke-linejoin="round" stroke-width="1"></path><path d="m17.303 6.697 -3.712 3.712" fill="none" stroke="#000000" stroke-linecap="round" stroke-linejoin="round" stroke-width="1"></path><path d="m19.425 8.818 -3.713 3.712" fill="none" stroke="#000000" stroke-linecap="round" stroke-linejoin="round" stroke-width="1"></path></svg>