<svg xmlns="http://www.w3.org/2000/svg" viewBox="0 0 24 24" id="Kitchenware-Ladle-Hot--Streamline-Ultimate"><desc>Kitchenware Ladle Hot Streamline Icon: https://streamlinehq.com</desc><g><path d="M6.75 14.25v0.61a8.25 8.25 0 1 0 16.5 0v-0.61" fill="none" stroke="#000000" stroke-linecap="round" stroke-linejoin="round" stroke-width="1"></path><path d="m6.75 14.25 -1 -7.35a7.32 7.32 0 0 0 -5 -6.15h0" fill="none" stroke="#000000" stroke-linecap="round" stroke-linejoin="round" stroke-width="1"></path><path d="m12.94 6.75 -0.61 0.82a1.58 1.58 0 0 0 0.24 2.18h0a1.62 1.62 0 0 1 0.08 2.39" fill="none" stroke="#000000" stroke-linecap="round" stroke-linejoin="round" stroke-width="1"></path><path d="m17.44 6.89 -0.61 0.83a1.56 1.56 0 0 0 0.24 2.17h0a1.63 1.63 0 0 1 0.08 2.4" fill="none" stroke="#000000" stroke-linecap="round" stroke-linejoin="round" stroke-width="1"></path><path d="M20.46 12c1.71 0.55 2.79 1.35 2.79 2.25 0 1.66 -3.69 3 -8.25 3s-8.25 -1.34 -8.25 -3c0 -0.9 1.08 -1.7 2.8 -2.25" fill="none" stroke="#000000" stroke-linecap="round" stroke-linejoin="round" stroke-width="1"></path></g></svg>