<svg id="Kitchenware-Ice-Tray--Streamline-Ultimate" xmlns="http://www.w3.org/2000/svg" viewBox="0 0 24 24"><desc>Kitchenware Ice Tray Streamline Icon: https://streamlinehq.com</desc><defs></defs><title>kitchenware-ice-tray</title><path d="M4.25 0.75h15.5s2 0 2 2v18.5s0 2 -2 2H4.25s-2 0 -2 -2V2.75s0 -2 2 -2" fill="none" stroke="#000000" stroke-linecap="round" stroke-linejoin="round" stroke-width="1"></path><path d="M5.75 3.75h3.5s0.5 0 0.5 0.5v2s0 0.5 -0.5 0.5h-3.5s-0.5 0 -0.5 -0.5v-2s0 -0.5 0.5 -0.5" fill="none" stroke="#000000" stroke-linecap="round" stroke-linejoin="round" stroke-width="1"></path><path d="M5.75 10.5h3.5s0.5 0 0.5 0.5v2s0 0.5 -0.5 0.5h-3.5s-0.5 0 -0.5 -0.5v-2s0 -0.5 0.5 -0.5" fill="none" stroke="#000000" stroke-linecap="round" stroke-linejoin="round" stroke-width="1"></path><path d="M5.75 17.25h3.5s0.5 0 0.5 0.5v2s0 0.5 -0.5 0.5h-3.5s-0.5 0 -0.5 -0.5v-2s0 -0.5 0.5 -0.5" fill="none" stroke="#000000" stroke-linecap="round" stroke-linejoin="round" stroke-width="1"></path><path d="M14.75 3.75h3.5s0.5 0 0.5 0.5v2s0 0.5 -0.5 0.5h-3.5s-0.5 0 -0.5 -0.5v-2s0 -0.5 0.5 -0.5" fill="none" stroke="#000000" stroke-linecap="round" stroke-linejoin="round" stroke-width="1"></path><path d="M14.75 10.5h3.5s0.5 0 0.5 0.5v2s0 0.5 -0.5 0.5h-3.5s-0.5 0 -0.5 -0.5v-2s0 -0.5 0.5 -0.5" fill="none" stroke="#000000" stroke-linecap="round" stroke-linejoin="round" stroke-width="1"></path><path d="M14.75 17.25h3.5s0.5 0 0.5 0.5v2s0 0.5 -0.5 0.5h-3.5s-0.5 0 -0.5 -0.5v-2s0 -0.5 0.5 -0.5" fill="none" stroke="#000000" stroke-linecap="round" stroke-linejoin="round" stroke-width="1"></path></svg>