<svg viewBox="0 0 24 24" xmlns="http://www.w3.org/2000/svg" id="Kitchenware-Spatula-2--Streamline-Ultimate"><desc>Kitchenware Spatula 2 Streamline Icon: https://streamlinehq.com</desc><path d="M13.838 12.265 3.771 22.351a1.5 1.5 0 0 1 -2.122 0h0a1.5 1.5 0 0 1 0 -2.122l10.09 -10.062" fill="none" stroke="#000000" stroke-linecap="round" stroke-linejoin="round" stroke-width="1"></path><path d="m4.836 17.052 2.114 2.114" fill="none" stroke="#000000" stroke-linecap="round" stroke-linejoin="round" stroke-width="1"></path><path d="M16.433 13.3a1.5 1.5 0 0 1 -1.8 -0.242l-3.688 -3.686a1.5 1.5 0 0 1 -0.242 -1.8l3.417 -5.984a0.749 0.749 0 0 1 0.784 -0.366A8.969 8.969 0 0 1 22.778 9.1a0.751 0.751 0 0 1 -0.366 0.784Z" fill="none" stroke="#000000" stroke-linecap="round" stroke-linejoin="round" stroke-width="1"></path><path d="m14.377 8.562 1.061 1.061" fill="none" stroke="#000000" stroke-linecap="round" stroke-linejoin="round" stroke-width="1"></path></svg>