<svg xmlns="http://www.w3.org/2000/svg" fill="none" viewBox="0 0 24 24" id="Kitchenware-Peeler--Streamline-Ultimate"><desc>Kitchenware Peeler Streamline Icon: https://streamlinehq.com</desc><path stroke="#000000" stroke-linecap="round" stroke-linejoin="round" d="M15.75 19.5c0 0.9946 -0.3951 1.9484 -1.0983 2.6517 -0.7033 0.7032 -1.6571 1.0983 -2.6517 1.0983 -0.9946 0 -1.9484 -0.3951 -2.65165 -1.0983C8.64509 21.4484 8.25 20.4946 8.25 19.5v-6.75l1.5 -3h4.5l1.5 3v6.75Z" stroke-width="1"></path><path stroke="#000000" stroke-linecap="round" stroke-linejoin="round" d="M3.75 0.75v3c0 1.5913 0.63214 3.11742 1.75736 4.24264C6.63258 9.11786 8.1587 9.75 9.75 9.75h4.5c1.5913 0 3.1174 -0.63214 4.2426 -1.75736C19.6179 6.86742 20.25 5.3413 20.25 3.75v-3" stroke-width="1"></path><path stroke="#000000" stroke-linecap="round" stroke-linejoin="round" d="M3.75 3.75h16.5" stroke-width="1"></path><path stroke="#000000" d="M12 19.875c-0.2071 0 -0.375 -0.1679 -0.375 -0.375s0.1679 -0.375 0.375 -0.375" stroke-width="1"></path><path stroke="#000000" d="M12 19.875c0.2071 0 0.375 -0.1679 0.375 -0.375s-0.1679 -0.375 -0.375 -0.375" stroke-width="1"></path></svg>