<svg viewBox="0 0 24 24" xmlns="http://www.w3.org/2000/svg" id="Kitchenware-Molds--Streamline-Ultimate"><desc>Kitchenware Molds Streamline Icon: https://streamlinehq.com</desc><path d="M14.25 5.25a4.5 4.5 0 1 0 9 0 4.5 4.5 0 1 0 -9 0Z" fill="none" stroke="#000000" stroke-linecap="round" stroke-linejoin="round" stroke-width="1"></path><path d="M8.879 18.75a2.571 2.571 0 1 0 -3.629 -3.629 2.571 2.571 0 1 0 -3.628 3.629 2.571 2.571 0 1 0 3.628 3.628 2.571 2.571 0 1 0 3.629 -3.628Z" fill="none" stroke="#000000" stroke-linecap="round" stroke-linejoin="round" stroke-width="1"></path><path d="M22.585 15.23a2.218 2.218 0 0 0 -3.21 0L18 16.652l-1.375 -1.422a2.218 2.218 0 0 0 -3.21 0 2.4 2.4 0 0 0 0 3.319l4.1 4.236a0.674 0.674 0 0 0 0.976 0l4.1 -4.236a2.4 2.4 0 0 0 -0.006 -3.319Z" fill="none" stroke="#000000" stroke-linecap="round" stroke-linejoin="round" stroke-width="1"></path><path d="M5.385 1.056a0.557 0.557 0 0 1 0.994 0l1.155 2.328a0.551 0.551 0 0 0 0.417 0.3l2.591 0.375a0.544 0.544 0 0 1 0.307 0.928L8.968 6.812a0.541 0.541 0 0 0 -0.158 0.48l0.444 2.572a0.552 0.552 0 0 1 -0.8 0.572L6.142 9.229a0.56 0.56 0 0 0 -0.519 0l-2.308 1.207a0.551 0.551 0 0 1 -0.8 -0.572l0.443 -2.572a0.538 0.538 0 0 0 -0.157 -0.48L0.915 4.987a0.544 0.544 0 0 1 0.308 -0.928l2.591 -0.375a0.554 0.554 0 0 0 0.417 -0.3Z" fill="none" stroke="#000000" stroke-linecap="round" stroke-linejoin="round" stroke-width="1"></path></svg>