<svg xmlns="http://www.w3.org/2000/svg" viewBox="0 0 24 24" id="Analytics-Bars-Horizontal--Streamline-Ultimate"><desc>Analytics Bars Horizontal Streamline Icon: https://streamlinehq.com</desc><g><path d="m0.75 0.75 0 22.5 22.5 0" fill="none" stroke="#000000" stroke-linecap="round" stroke-linejoin="round" stroke-width="1"></path><path d="M14.5 9.25H0.75v-5H14.5a0.77 0.77 0 0 1 0.77 0.77v3.46a0.77 0.77 0 0 1 -0.77 0.77Z" fill="none" stroke="#000000" stroke-linecap="round" stroke-linejoin="round" stroke-width="1"></path><path d="M10.5 14.25H0.75v-5h9.75a0.77 0.77 0 0 1 0.77 0.77v3.46a0.77 0.77 0 0 1 -0.77 0.77Z" fill="none" stroke="#000000" stroke-linecap="round" stroke-linejoin="round" stroke-width="1"></path><path d="M19.48 19.25H0.75v-5h18.73a0.76 0.76 0 0 1 0.77 0.77v3.46a0.76 0.76 0 0 1 -0.77 0.77Z" fill="none" stroke="#000000" stroke-linecap="round" stroke-linejoin="round" stroke-width="1"></path></g></svg>