<svg viewBox="0 0 24 24" xmlns="http://www.w3.org/2000/svg" id="Analytics-Mountain--Streamline-Ultimate"><desc>Analytics Mountain Streamline Icon: https://streamlinehq.com</desc><path d="m0.75 0.75 0 22.5 22.5 0" fill="none" stroke="#000000" stroke-linecap="round" stroke-linejoin="round" stroke-width="1"></path><path d="M14.15 17.358a5.493 5.493 0 0 0 1.487 1.623l0.713 0.519" fill="none" stroke="#000000" stroke-linecap="round" stroke-linejoin="round" stroke-width="1"></path><path d="m3.75 19.5 0.713 -0.519A5.385 5.385 0 0 0 6.7 14.939l0.4 -6.979a2.921 2.921 0 0 1 2.95 -2.71h0l0.137 0" fill="none" stroke="#000000" stroke-linecap="round" stroke-linejoin="round" stroke-width="1"></path><path d="m9.15 19.5 0.713 -0.519a5.385 5.385 0 0 0 2.237 -4.042l0.4 -6.979a2.921 2.921 0 0 1 2.95 -2.71h0a2.921 2.921 0 0 1 2.955 2.71l0.4 6.979a5.385 5.385 0 0 0 2.232 4.042l0.713 0.519" fill="none" stroke="#000000" stroke-linecap="round" stroke-linejoin="round" stroke-width="1"></path></svg>