<svg xmlns="http://www.w3.org/2000/svg" fill="none" viewBox="0 0 24 24" id="Trip-Road-Circle--Streamline-Ultimate"><desc>Trip Road Circle Streamline Icon: https://streamlinehq.com</desc><path stroke="#000000" stroke-linecap="round" stroke-miterlimit="10" d="M23.25 12c0 2.225 -0.6598 4.4001 -1.896 6.2502 -1.2361 1.85 -2.9931 3.292 -5.0488 4.1434 -2.0557 0.8515 -4.3177 1.0743 -6.49996 0.6402 -2.18229 -0.434 -4.18685 -1.5055 -5.76019 -3.0788 -1.57334 -1.5734 -2.6448 -3.5779 -3.078879 -5.7602 -0.434084 -2.1823 -0.211297 -4.44432 0.640189 -6.49999 0.85149 -2.05567 2.29343 -3.81268 4.14348 -5.04884C7.59989 1.4098 9.77497 0.75 12 0.75" stroke-width="1"></path><path stroke="#000000" stroke-linecap="round" stroke-miterlimit="10" d="M3.98499 13.272c0.27538 -0.1877 0.56303 -0.3567 0.861 -0.506" stroke-width="1"></path><path stroke="#000000" stroke-dasharray="2.03 2.03" stroke-linecap="round" stroke-miterlimit="10" d="M6.75806 12.107c4.08704 -0.781 6.50704 2.94 10.32304 3.565" stroke-width="1"></path><path stroke="#000000" stroke-linecap="round" stroke-miterlimit="10" d="M18.0909 15.76c0.3345 0.0028 0.6687 -0.0186 1 -0.064" stroke-width="1"></path><path stroke="#000000" stroke-linecap="round" stroke-linejoin="round" d="M18.75 0.75c1.1935 0 2.3381 0.47411 3.182 1.31802 0.8439 0.84391 1.318 1.98851 1.318 3.18198 0 1.921 -2.688 5.577 -3.909 7.138 -0.0701 0.0898 -0.1598 0.1624 -0.2622 0.2123 -0.1024 0.05 -0.2149 0.0759 -0.3288 0.0759 -0.1139 0 -0.2264 -0.0259 -0.3288 -0.0759 -0.1024 -0.0499 -0.1921 -0.1225 -0.2622 -0.2123 -1.221 -1.562 -3.909 -5.217 -3.909 -7.138 0 -1.19347 0.4741 -2.33807 1.318 -3.18198C16.4119 1.22411 17.5565 0.75 18.75 0.75v0Z" stroke-width="1"></path><path stroke="#000000" d="M18.75 5.625c-0.2071 0 -0.375 -0.16789 -0.375 -0.375s0.1679 -0.375 0.375 -0.375" stroke-width="1"></path><path stroke="#000000" d="M18.75 5.625c0.2071 0 0.375 -0.16789 0.375 -0.375s-0.1679 -0.375 -0.375 -0.375" stroke-width="1"></path></svg>