<svg xmlns="http://www.w3.org/2000/svg" fill="none" viewBox="0 0 24 24" id="Trip-Destination--Streamline-Ultimate"><desc>Trip Destination Streamline Icon: https://streamlinehq.com</desc><path stroke="#000000" stroke-linecap="round" stroke-linejoin="round" d="M23.25 4.5c0 1.7 -2.537 5.678 -3.437 7.036 -0.0342 0.0516 -0.0806 0.0939 -0.1352 0.1231 -0.0545 0.0293 -0.1154 0.0446 -0.1773 0.0446 -0.0619 0 -0.1228 -0.0153 -0.1773 -0.0446 -0.0546 -0.0292 -0.101 -0.0715 -0.1352 -0.1231C18.287 10.179 15.75 6.2 15.75 4.5c0 -0.99456 0.3951 -1.94839 1.0983 -2.65165C17.5516 1.14509 18.5054 0.75 19.5 0.75c0.9946 0 1.9484 0.39509 2.6517 1.09835C22.8549 2.55161 23.25 3.50544 23.25 4.5v0Z" stroke-width="1"></path><path stroke="#000000" stroke-linecap="round" stroke-linejoin="round" d="M5.25 8.25c1.19347 0 2.33807 0.47411 3.18198 1.31802C9.27589 10.4119 9.75 11.5565 9.75 12.75c0 1.921 -2.688 5.576 -3.909 7.138 -0.07015 0.0898 -0.15982 0.1624 -0.26223 0.2123 -0.1024 0.05 -0.21484 0.0759 -0.32877 0.0759s-0.22637 -0.0259 -0.32877 -0.0759c-0.10241 -0.0499 -0.19208 -0.1225 -0.26223 -0.2123C3.438 18.327 0.75 14.671 0.75 12.75c0 -1.1935 0.47411 -2.3381 1.31802 -3.18198C2.91193 8.72411 4.05653 8.25 5.25 8.25v0Z" stroke-width="1"></path><path stroke="#000000" stroke-linecap="round" stroke-linejoin="round" d="M5.25 23.25h9c0.3978 0 0.7794 -0.158 1.0607 -0.4393s0.4393 -0.6629 0.4393 -1.0607v-4.5c0 -0.3978 0.158 -0.7794 0.4393 -1.0607s0.6629 -0.4393 1.0607 -0.4393h3" stroke-width="1"></path><path stroke="#000000" d="M5.25 13.125c-0.20711 0 -0.375 -0.1679 -0.375 -0.375s0.16789 -0.375 0.375 -0.375" stroke-width="1"></path><path stroke="#000000" d="M5.25 13.125c0.20711 0 0.375 -0.1679 0.375 -0.375s-0.16789 -0.375 -0.375 -0.375" stroke-width="1"></path><g><path stroke="#000000" d="M19.5 4.875c-0.2071 0 -0.375 -0.16789 -0.375 -0.375s0.1679 -0.375 0.375 -0.375" stroke-width="1"></path><path stroke="#000000" d="M19.5 4.875c0.2071 0 0.375 -0.16789 0.375 -0.375s-0.1679 -0.375 -0.375 -0.375" stroke-width="1"></path></g></svg>