<svg xmlns="http://www.w3.org/2000/svg" viewBox="0 0 24 24" id="Coding-Apps-Website-Data-Conversion-Pie-Chart--Streamline-Ultimate"><desc>Coding Apps Website Data Conversion Pie Chart Streamline Icon: https://streamlinehq.com</desc><defs></defs><path d="m10.25 12.75 0 -10 -2.5 -2 -7 0 0 12 9.5 0z" fill="none" stroke="#000000" stroke-linecap="round" stroke-linejoin="round" stroke-width="1"></path><path d="m3.75 3.75 3.25 0" fill="none" stroke="#000000" stroke-linecap="round" stroke-linejoin="round" stroke-width="1"></path><path d="m3.75 6.75 3.25 0" fill="none" stroke="#000000" stroke-linecap="round" stroke-linejoin="round" stroke-width="1"></path><path d="m3.75 9.75 2.25 0" fill="none" stroke="#000000" stroke-linecap="round" stroke-linejoin="round" stroke-width="1"></path><path d="M12.25 17.75a5.5 5.5 0 1 0 11 0 5.5 5.5 0 1 0 -11 0" fill="none" stroke="#000000" stroke-linecap="round" stroke-linejoin="round" stroke-width="1"></path><path d="m23.158 16.75 -5.408 1 0 -5.5" fill="none" stroke="#000000" stroke-linecap="round" stroke-linejoin="round" stroke-width="1"></path><path d="m17.75 17.75 2.5 4.899" fill="none" stroke="#000000" stroke-linecap="round" stroke-linejoin="round" stroke-width="1"></path><path d="M22.565 7.723A8.516 8.516 0 0 0 15.4 3.82h-1.55" fill="none" stroke="#000000" stroke-linecap="round" stroke-linejoin="round" stroke-width="1"></path><path d="M16.177 1.495 13.852 3.82l2.325 2.324" fill="none" stroke="#000000" stroke-linecap="round" stroke-linejoin="round" stroke-width="1"></path><path d="M1.171 16a8.515 8.515 0 0 0 7.164 3.9h1.549" fill="none" stroke="#000000" stroke-linecap="round" stroke-linejoin="round" stroke-width="1"></path><path d="m7.56 22.231 2.324 -2.325 -2.324 -2.324" fill="none" stroke="#000000" stroke-linecap="round" stroke-linejoin="round" stroke-width="1"></path></svg>