<svg viewBox="0 0 24 24" xmlns="http://www.w3.org/2000/svg" id="Data-Transfer--Streamline-Ultimate"><desc>Data Transfer Streamline Icon: https://streamlinehq.com</desc><path d="M20.25 5.25 14.469 0.75V3H6.353a3.354 3.354 0 0 0 -3 1.853h0a3.353 3.353 0 0 0 1.14 4.289L6.531 10.5V9a1.5 1.5 0 0 1 1.5 -1.5h6.438v2.25Z" fill="none" stroke="#000000" stroke-linecap="round" stroke-linejoin="round" stroke-width="1"></path><path d="m3.531 18.75 6.219 4.5V21h7.9a3.352 3.352 0 0 0 3 -1.853h0a3.352 3.352 0 0 0 -1.139 -4.288L17.469 13.5V15a1.5 1.5 0 0 1 -1.5 1.5H9.75v-2.25Z" fill="none" stroke="#000000" stroke-linecap="round" stroke-linejoin="round" stroke-width="1"></path></svg>