<svg xmlns="http://www.w3.org/2000/svg" fill="none" viewBox="0 0 24 24" id="Power-Adapter--Streamline-Ultimate"><desc>Power Adapter Streamline Icon: https://streamlinehq.com</desc><path stroke="#000000" stroke-linecap="round" stroke-linejoin="round" d="M15.0055 2.1927v1.54781c0 0.19889 -0.079 0.38963 -0.2197 0.53027 -0.1406 0.14063 -0.3313 0.21964 -0.5302 0.21964H9.75612c-0.19889 0 -0.38963 -0.07901 -0.53027 -0.21964 -0.14064 -0.14064 -0.21964 -0.33138 -0.21964 -0.53027V2.1987c-0.00059 -0.1236 -0.03139 -0.24518 -0.08973 -0.35414s-0.14244 -0.20201 -0.24498 -0.27102c-0.10253 -0.06902 -0.22039 -0.11191 -0.3433 -0.12494 -0.12291 -0.01303 -0.24714 0.0042 -0.36187 0.05019 -2.50289 0.96196 -4.58005 2.786 -5.85738 5.1436C0.831617 8.99999 0.438067 11.7362 0.999178 14.3582c0.424182 2.1522 1.484022 4.1277 3.042582 5.6713 1.55855 1.5436 3.5442 2.5843 5.70036 2.9877 2.76988 0.5679 5.65208 0.0718 8.07268 -1.3895 2.4207 -1.4614 4.2022 -3.7807 4.9899 -6.4963 0.7877 -2.7156 0.5238 -5.62821 -0.7392 -8.158 -1.2629 -2.52979 -3.4323 -4.49116 -6.0761 -5.49361 -0.1127 -0.03841 -0.233 -0.04922 -0.3507 -0.03152 -0.1177 0.01771 -0.2295 0.0634 -0.3259 0.13325 -0.0964 0.06985 -0.1746 0.16181 -0.2281 0.26816 -0.0534 0.10635 -0.0806 0.22399 -0.0792 0.34302v0Z" stroke-width="1"></path><path stroke="#000000" stroke-linecap="round" stroke-linejoin="round" d="M12 14c-0.3978 0 -0.7794 -0.158 -1.0607 -0.4393S10.5 12.8978 10.5 12.5V8.75c0 -0.39782 0.158 -0.77936 0.4393 -1.06066 0.2813 -0.2813 0.6629 -0.43934 1.0607 -0.43934 0.3978 0 0.7794 0.15804 1.0607 0.43934S13.5 8.35218 13.5 8.75v3.75c0 0.3978 -0.158 0.7794 -0.4393 1.0607S12.3978 14 12 14v0Z" stroke-width="1"></path><path stroke="#000000" d="M5.625 14c-0.20711 0 -0.375 -0.1679 -0.375 -0.375s0.16789 -0.375 0.375 -0.375" stroke-width="1"></path><path stroke="#000000" d="M5.625 14c0.20711 0 0.375 -0.1679 0.375 -0.375s-0.16789 -0.375 -0.375 -0.375" stroke-width="1"></path><path stroke="#000000" d="M18.375 14c-0.2071 0 -0.375 -0.1679 -0.375 -0.375s0.1679 -0.375 0.375 -0.375" stroke-width="1"></path><path stroke="#000000" d="M18.375 14c0.2071 0 0.375 -0.1679 0.375 -0.375s-0.1679 -0.375 -0.375 -0.375" stroke-width="1"></path><g><path stroke="#000000" d="M15.375 18.5c-0.2071 0 -0.375 -0.1679 -0.375 -0.375s0.1679 -0.375 0.375 -0.375" stroke-width="1"></path><path stroke="#000000" d="M15.375 18.5c0.2071 0 0.375 -0.1679 0.375 -0.375s-0.1679 -0.375 -0.375 -0.375" stroke-width="1"></path></g><g><path stroke="#000000" d="M8.625 18.5c-0.20711 0 -0.375 -0.1679 -0.375 -0.375s0.16789 -0.375 0.375 -0.375" stroke-width="1"></path><path stroke="#000000" d="M8.625 18.5c0.20711 0 0.375 -0.1679 0.375 -0.375s-0.16789 -0.375 -0.375 -0.375" stroke-width="1"></path></g></svg>