<svg xmlns="http://www.w3.org/2000/svg" fill="none" viewBox="0 0 24 24" id="Printer--Streamline-Ultimate"><desc>Printer Streamline Icon: https://streamlinehq.com</desc><path stroke="#000000" stroke-linecap="round" stroke-linejoin="round" d="M17.25 15.75H6.75l-1.5 7.5h13.5l-1.5 -7.5Z" stroke-width="1"></path><path stroke="#000000" stroke-linecap="round" stroke-linejoin="round" d="M17.85 18.75h3.9c0.3978 0 0.7794 -0.158 1.0607 -0.4393s0.4393 -0.6629 0.4393 -1.0607v-6H0.75v6c0 0.3978 0.158035 0.7794 0.43934 1.0607 0.2813 0.2813 0.66284 0.4393 1.06066 0.4393h3.9" stroke-width="1"></path><path stroke="#000000" stroke-linecap="round" stroke-linejoin="round" d="M6.75 5.25H4.677c-0.27861 -0.00008 -0.55174 0.07743 -0.78877 0.22385 -0.23703 0.14643 -0.4286 0.35597 -0.55323 0.60515L0.75 11.25h22.5l-2.585 -5.171c-0.1246 -0.24918 -0.3162 -0.45872 -0.5532 -0.60515 -0.2371 -0.14642 -0.5102 -0.22393 -0.7888 -0.22385H17.25" stroke-width="1"></path><path stroke="#000000" stroke-linecap="round" stroke-linejoin="round" d="M17.25 0.75H6.75v7.5h10.5V0.75Z" stroke-width="1"></path><path stroke="#000000" d="M20.625 15c-0.2071 0 -0.375 -0.1679 -0.375 -0.375s0.1679 -0.375 0.375 -0.375" stroke-width="1"></path><path stroke="#000000" d="M20.625 15c0.2071 0 0.375 -0.1679 0.375 -0.375s-0.1679 -0.375 -0.375 -0.375" stroke-width="1"></path><path stroke="#000000" stroke-linecap="round" stroke-linejoin="round" d="M9.75 20.25h4.5" stroke-width="1"></path></svg>