<svg viewBox="0 0 24 24" xmlns="http://www.w3.org/2000/svg" id="Github-Logo--Streamline-Ultimate"><desc>Github Logo Streamline Icon: https://streamlinehq.com</desc><path d="M19.5 16c0 -6 -4.13 -3.53 -7.5 -3.53S4.5 10 4.5 16A3.5 3.5 0 0 0 8 19.45h8A3.5 3.5 0 0 0 19.5 16Z" fill="none" stroke="#000000" stroke-linecap="round" stroke-linejoin="round" stroke-width="1"></path><path d="m21.78 9.4 0 0s2.75 -4.67 -0.58 -7.4C19.14 2 16 5.38 16 5.38l0 0a14.53 14.53 0 0 0 -8 0S4.89 2 2.85 2c-3.26 2.66 -0.75 7.19 -0.63 7.4a9.11 9.11 0 0 0 -1.44 5.9C1 18.5 3.71 22 6.92 22h10.15c3.22 0 5.89 -3.5 6.14 -6.71a9.09 9.09 0 0 0 -1.43 -5.89Z" fill="none" stroke="#000000" stroke-linecap="round" stroke-linejoin="round" stroke-width="1"></path><path d="M15.52 16.7c-0.28 0 -0.5 -0.34 -0.5 -0.75s0.22 -0.75 0.5 -0.75 0.5 0.34 0.5 0.75 -0.22 0.75 -0.5 0.75" fill="none" stroke="#000000" stroke-linecap="round" stroke-linejoin="round" stroke-width="1"></path><path d="M8.52 16.7c-0.28 0 -0.5 -0.34 -0.5 -0.75s0.22 -0.75 0.5 -0.75 0.5 0.34 0.5 0.75 -0.22 0.75 -0.5 0.75" fill="none" stroke="#000000" stroke-linecap="round" stroke-linejoin="round" stroke-width="1"></path></svg>