<svg xmlns="http://www.w3.org/2000/svg" fill="none" viewBox="0 0 24 24" id="Hubot-Logo--Streamline-Ultimate"><desc>Hubot Logo Streamline Icon: https://streamlinehq.com</desc><path stroke="#000000" stroke-linecap="round" stroke-linejoin="round" d="M23 23V12c0 -6.07513 -4.9249 -11 -11 -11v0C5.92487 1 1 5.92487 1 12v11" stroke-width="1"></path><path stroke="#000000" stroke-linecap="round" stroke-linejoin="round" d="M8.5 22h7l-1 -3h-5l-1 3Z" stroke-width="1"></path><path stroke="#000000" stroke-linecap="round" stroke-linejoin="round" d="M4.75 9c0 -0.55228 0.44772 -1 1 -1h12.5c0.5523 0 1 0.44772 1 1v5c0 0.5523 -0.4477 1 -1 1H5.75c-0.55229 0 -1 -0.4477 -1 -1V9Z" stroke-width="1"></path><path stroke="#000000" stroke-linecap="round" stroke-linejoin="round" d="M4.75 11.4873h3.86667l0.75077 -1.3662c0.02013 -0.0364 0.05097 -0.067 0.08909 -0.0884 0.03812 -0.0214 0.08202 -0.0327 0.1268 -0.0327s0.08868 0.0113 0.1268 0.0327c0.03813 0.0214 0.06897 0.052 0.08909 0.0884l1.51578 2.7571c0.0195 0.0356 0.0493 0.0658 0.0861 0.0872 0.0369 0.0214 0.0795 0.0334 0.1232 0.0345 0.0437 0.0012 0.0869 -0.0085 0.1251 -0.028 0.0382 -0.0195 0.0698 -0.048 0.0915 -0.0826l1.5151 -2.4139c0.0204 -0.0326 0.0497 -0.0599 0.085 -0.0793 0.0353 -0.0194 0.0754 -0.0303 0.1166 -0.0316 0.0413 -0.0013 0.0821 0.0071 0.1188 0.0242 0.0367 0.0172 0.0679 0.0426 0.0908 0.0738l0.7495 1.0248H19.25" stroke-width="1"></path></svg>