<svg viewBox="0 0 24 24" xmlns="http://www.w3.org/2000/svg" id="Signal-Flags-1--Streamline-Ultimate"><desc>Signal Flags 1 Streamline Icon: https://streamlinehq.com</desc><path d="M9.375 4.875a2.625 2.625 0 1 0 5.25 0 2.625 2.625 0 1 0 -5.25 0Z" fill="none" stroke="#000000" stroke-linecap="round" stroke-linejoin="round" stroke-width="1"></path><path d="M19.5 9H6.75V6.75a1.5 1.5 0 0 0 -3 0v3.75a1.5 1.5 0 0 0 1.5 1.5H9v4.5l-2.771 4.455a1.5 1.5 0 1 0 2.542 1.591L12 17.38l3.229 5.166a1.5 1.5 0 1 0 2.542 -1.591L15 16.5V12h4.5a1.5 1.5 0 0 0 0 -3Z" fill="none" stroke="#000000" stroke-linecap="round" stroke-linejoin="round" stroke-width="1"></path><path d="M17.25 15v0.75a1.5 1.5 0 0 0 1.5 1.5h3a1.5 1.5 0 0 0 1.5 -1.5v-4.5a0.75 0.75 0 0 0 -0.75 -0.75H21" fill="none" stroke="#000000" stroke-linecap="round" stroke-linejoin="round" stroke-width="1"></path><path d="M6.75 2.25a1.5 1.5 0 0 0 -1.5 -1.5h-3a1.5 1.5 0 0 0 -1.5 1.5v4.5a0.75 0.75 0 0 0 0.75 0.75H3" fill="none" stroke="#000000" stroke-linecap="round" stroke-linejoin="round" stroke-width="1"></path></svg>