<svg xmlns="http://www.w3.org/2000/svg" fill="none" viewBox="0 0 24 24" id="Baby-Hold-Hands--Streamline-Ultimate"><desc>Baby Hold Hands Streamline Icon: https://streamlinehq.com</desc><path stroke="#000000" stroke-linecap="round" stroke-linejoin="round" d="m3.75 23.25 -2 -2.38c-0.64308 -0.7958 -0.9958 -1.7869 -1 -2.81v-5.17c0 -0.3978 0.158035 -0.7794 0.43934 -1.0607 0.2813 -0.2813 0.66284 -0.4393 1.06066 -0.4393v0c0.39782 0 0.77936 0.158 1.06066 0.4393 0.2813 0.2813 0.43934 0.6629 0.43934 1.0607v3.86" stroke-width="1"></path><path stroke="#000000" stroke-linecap="round" stroke-linejoin="round" d="M8.24999 23.25v-3c0.00193 -0.8905 -0.26276 -1.7612 -0.76 -2.5l-1.14 -1.75c-0.09669 -0.1665 -0.22691 -0.3111 -0.38241 -0.4246 -0.1555 -0.1135 -0.33288 -0.1935 -0.52091 -0.2348 -0.18803 -0.0414 -0.3826 -0.0433 -0.57138 -0.0055 -0.18879 0.0378 -0.36766 0.1144 -0.5253 0.2249v0c-0.28272 0.1901 -0.48643 0.4768 -0.57295 0.8063 -0.08652 0.3295 -0.04992 0.6792 0.10295 0.9837l1.35 2.25" stroke-width="1"></path><path stroke="#000000" stroke-linecap="round" stroke-linejoin="round" d="m20.25 23.25 2 -2.38c0.6431 -0.7958 0.9958 -1.7869 1 -2.81v-5.17c0 -0.3978 -0.158 -0.7794 -0.4393 -1.0607s-0.6629 -0.4393 -1.0607 -0.4393c-0.3978 0 -0.7794 0.158 -1.0607 0.4393s-0.4393 0.6629 -0.4393 1.0607v3.88" stroke-width="1"></path><path stroke="#000000" stroke-linecap="round" stroke-linejoin="round" d="M15.75 23.25v-3c-0.0019 -0.8905 0.2628 -1.7612 0.76 -2.5L17.65 16c0.0967 -0.1665 0.2269 -0.3111 0.3824 -0.4246 0.1555 -0.1135 0.3329 -0.1935 0.5209 -0.2348 0.1881 -0.0414 0.3826 -0.0433 0.5714 -0.0055 0.1888 0.0378 0.3677 0.1144 0.5253 0.2249v0c0.2827 0.1901 0.4864 0.4768 0.573 0.8063 0.0865 0.3295 0.0499 0.6792 -0.103 0.9837l-1.35 2.25" stroke-width="1"></path><path stroke="#000000" stroke-linecap="round" stroke-linejoin="round" d="M12 12.75c3.3137 0 6 -2.6863 6 -6 0 -3.31371 -2.6863 -6 -6 -6 -3.31371 0 -6 2.68629 -6 6 0 3.3137 2.68629 6 6 6Z" stroke-width="1"></path><path stroke="#000000" stroke-linecap="round" stroke-linejoin="round" d="M13.5 9.35001c-0.4561 0.2633 -0.9734 0.40192 -1.5 0.40192s-1.0439 -0.13862 -1.5 -0.40192" stroke-width="1"></path><path stroke="#000000" stroke-linecap="round" stroke-linejoin="round" d="M12 0.75c0.3978 0 0.7794 0.158035 1.0607 0.43934 0.2813 0.2813 0.4393 0.66284 0.4393 1.06066 0 0.39782 -0.158 0.77936 -0.4393 1.06066 -0.2813 0.2813 -0.6629 0.43934 -1.0607 0.43934" stroke-width="1"></path><g><path stroke="#000000" d="M9.375 6C9.16789 6 9 5.83211 9 5.625s0.16789 -0.375 0.375 -0.375" stroke-width="1"></path><path stroke="#000000" d="M9.375 6c0.20711 0 0.375 -0.16789 0.375 -0.375s-0.16789 -0.375 -0.375 -0.375" stroke-width="1"></path></g><g><path stroke="#000000" d="M14.625 6c-0.2071 0 -0.375 -0.16789 -0.375 -0.375s0.1679 -0.375 0.375 -0.375" stroke-width="1"></path><path stroke="#000000" d="M14.625 6c0.2071 0 0.375 -0.16789 0.375 -0.375s-0.1679 -0.375 -0.375 -0.375" stroke-width="1"></path></g></svg>