<svg xmlns="http://www.w3.org/2000/svg" viewBox="0 0 24 24" id="Baby-Girl--Streamline-Ultimate"><desc>Baby Girl Streamline Icon: https://streamlinehq.com</desc><g><path d="M14 18.18a3 3 0 0 1 -4 0" fill="none" stroke="#000000" stroke-linecap="round" stroke-linejoin="round" stroke-width="1"></path><path d="M17.25 12.17a1.5 1.5 0 1 1 -3 0" fill="none" stroke="#000000" stroke-linecap="round" stroke-linejoin="round" stroke-width="1"></path><path d="M9.75 12.17a1.5 1.5 0 1 1 -3 0" fill="none" stroke="#000000" stroke-linecap="round" stroke-linejoin="round" stroke-width="1"></path><path d="M9.75 4.67a2.25 2.25 0 1 0 4.5 0 2.25 2.25 0 1 0 -4.5 0" fill="none" stroke="#000000" stroke-linecap="round" stroke-linejoin="round" stroke-width="1"></path><path d="m14 3.56 2.68 -2.15a0.76 0.76 0 0 1 0.58 -0.15 0.72 0.72 0 0 1 0.51 0.33 5.18 5.18 0 0 1 0 6.17 0.72 0.72 0 0 1 -0.51 0.33 0.76 0.76 0 0 1 -0.58 -0.15L14 5.79" fill="none" stroke="#000000" stroke-linecap="round" stroke-linejoin="round" stroke-width="1"></path><path d="M10 3.56 7.36 1.41a0.76 0.76 0 0 0 -0.58 -0.15 0.72 0.72 0 0 0 -0.51 0.33 5.18 5.18 0 0 0 0 6.17 0.72 0.72 0 0 0 0.51 0.33 0.76 0.76 0 0 0 0.58 -0.15L10 5.79" fill="none" stroke="#000000" stroke-linecap="round" stroke-linejoin="round" stroke-width="1"></path><path d="M5.87 7.09a8.91 8.91 0 0 0 -2.48 4 2.63 2.63 0 1 0 0 5.25 9 9 0 0 0 17.22 0 2.63 2.63 0 1 0 0 -5.25 8.91 8.91 0 0 0 -2.48 -4" fill="none" stroke="#000000" stroke-linecap="round" stroke-linejoin="round" stroke-width="1"></path></g></svg>