<svg xmlns="http://www.w3.org/2000/svg" fill="none" viewBox="0 0 24 24" id="Baby-Hold--Streamline-Ultimate"><desc>Baby Hold Streamline Icon: https://streamlinehq.com</desc><path stroke="#000000" stroke-linecap="round" stroke-linejoin="round" d="M5.76202 12.75c-0.56863 -1.612 -0.66643 -3.35263 -0.28196 -5.01819 0.38447 -1.66556 1.23531 -3.1872 2.45297 -4.38687C9.15069 2.14527 10.6848 1.31717 12.3559 0.957537 14.027 0.5979 15.766 0.721598 17.3694 1.31416c1.6033 0.59256 3.0048 1.62947 4.0404 2.98943 1.0356 1.35995 1.6624 2.9867 1.8073 4.68991 0.1448 1.7032 -0.1984 3.4125 -0.9895 4.9277 -0.791 1.5153 -1.9973 2.774 -3.4776 3.6288" stroke-width="1"></path><path stroke="#000000" stroke-linecap="round" stroke-linejoin="round" d="M14.25 0.75c0.5967 0 1.169 0.237053 1.591 0.65901 0.4219 0.42196 0.659 0.99425 0.659 1.59099 0 0.59674 -0.2371 1.16903 -0.659 1.59099 -0.422 0.42196 -0.9943 0.65901 -1.591 0.65901" stroke-width="1"></path><path stroke="#000000" stroke-linecap="round" stroke-linejoin="round" d="M0.75 14.25v9" stroke-width="1"></path><path stroke="#000000" stroke-linecap="round" stroke-linejoin="round" d="M0.75 21.75h15c0 -0.7956 -0.3161 -1.5587 -0.8787 -2.1213 -0.5626 -0.5626 -1.3257 -0.8787 -2.1213 -0.8787H9c0 -0.7956 -0.31607 -1.5587 -0.87868 -2.1213C7.55871 16.0661 6.79565 15.75 6 15.75H0.75" stroke-width="1"></path><path stroke="#000000" stroke-linecap="round" stroke-linejoin="round" d="M6 18.75h3" stroke-width="1"></path><path stroke="#000000" stroke-linecap="round" stroke-linejoin="round" d="M16.5 13.5c-0.6491 0.4868 -1.4386 0.75 -2.25 0.75 -0.8114 0 -1.6009 -0.2632 -2.25 -0.75" stroke-width="1"></path><path stroke="#000000" d="M10.875 9c-0.2071 0 -0.375 -0.16789 -0.375 -0.375s0.1679 -0.375 0.375 -0.375" stroke-width="1"></path><path stroke="#000000" d="M10.875 9c0.2071 0 0.375 -0.16789 0.375 -0.375s-0.1679 -0.375 -0.375 -0.375" stroke-width="1"></path><g><path stroke="#000000" d="M17.625 9c-0.2071 0 -0.375 -0.16789 -0.375 -0.375s0.1679 -0.375 0.375 -0.375" stroke-width="1"></path><path stroke="#000000" d="M17.625 9c0.2071 0 0.375 -0.16789 0.375 -0.375s-0.1679 -0.375 -0.375 -0.375" stroke-width="1"></path></g></svg>