<svg xmlns="http://www.w3.org/2000/svg" viewBox="0 0 24 24" id="Baby-Family-Kids-Hospital--Streamline-Ultimate"><desc>Baby Family Kids Hospital Streamline Icon: https://streamlinehq.com</desc><defs></defs><path d="M9 9.993a1.876 1.876 0 0 1 -2.625 0.375A1.9 1.9 0 0 1 6 9.993" fill="none" stroke="#000000" stroke-linecap="round" stroke-linejoin="round" stroke-width="1"></path><path d="M10.284 22.846a8.078 8.078 0 0 1 -2.509 0.4A7.028 7.028 0 0 1 0.75 16.428V7.493" fill="none" stroke="#000000" stroke-linecap="round" stroke-linejoin="round" stroke-width="1"></path><path d="m0.75 14.993 6.186 3.608" fill="none" stroke="#000000" stroke-linecap="round" stroke-linejoin="round" stroke-width="1"></path><path d="M8.25 14.2a6.953 6.953 0 0 1 -0.75 0.041 6.745 6.745 0 1 1 6.582 -5.249" fill="none" stroke="#000000" stroke-linecap="round" stroke-linejoin="round" stroke-width="1"></path><path d="M8.9 5.993a1.5 1.5 0 0 1 2.6 0" fill="none" stroke="#000000" stroke-linecap="round" stroke-linejoin="round" stroke-width="1"></path><path d="M3.5 5.993a1.5 1.5 0 0 1 2.6 0" fill="none" stroke="#000000" stroke-linecap="round" stroke-linejoin="round" stroke-width="1"></path><path d="M23.25 15.91a0.666 0.666 0 0 0 -0.667 -0.667H19.25V11.91a0.666 0.666 0 0 0 -0.667 -0.667h-2.666a0.666 0.666 0 0 0 -0.667 0.667v3.333h-3.333a0.666 0.666 0 0 0 -0.667 0.667v2.666a0.666 0.666 0 0 0 0.667 0.667h3.333v3.333a0.666 0.666 0 0 0 0.667 0.667h2.666a0.666 0.666 0 0 0 0.667 -0.667v-3.333h3.333a0.666 0.666 0 0 0 0.667 -0.667Z" fill="none" stroke="#000000" stroke-linecap="round" stroke-linejoin="round" stroke-width="1"></path></svg>