<svg xmlns="http://www.w3.org/2000/svg" fill="none" viewBox="0 0 24 24" id="Boy-Head-1--Streamline-Ultimate"><desc>Boy Head 1 Streamline Icon: https://streamlinehq.com</desc><path stroke="#000000" stroke-linecap="round" stroke-linejoin="round" stroke-miterlimit="10" d="M15 14.7c0 1.7 -1.3 3 -3 3s-3.00002 -1.3 -3.00002 -3H15Z" stroke-width="1"></path><path stroke="#000000" stroke-linecap="round" stroke-linejoin="round" stroke-miterlimit="10" d="M8 11.9c-0.11045 0 -0.2 -0.0895 -0.2 -0.2 0 -0.1105 0.08955 -0.2 0.2 -0.2" stroke-width="1"></path><path stroke="#000000" stroke-linecap="round" stroke-linejoin="round" stroke-miterlimit="10" d="M8.00003 11.9c0.11045 0 0.2 -0.0895 0.2 -0.2 0 -0.1105 -0.08955 -0.2 -0.2 -0.2" stroke-width="1"></path><path stroke="#000000" stroke-linecap="round" stroke-linejoin="round" stroke-miterlimit="10" d="M16 11.9c-0.1105 0 -0.2 -0.0895 -0.2 -0.2 0 -0.1105 0.0895 -0.2 0.2 -0.2" stroke-width="1"></path><path stroke="#000000" stroke-linecap="round" stroke-linejoin="round" stroke-miterlimit="10" d="M16 11.9c0.1105 0 0.2 -0.0895 0.2 -0.2 0 -0.1105 -0.0895 -0.2 -0.2 -0.2" stroke-width="1"></path><path stroke="#000000" stroke-linecap="round" stroke-linejoin="round" stroke-miterlimit="10" d="m21.3 10.1 -0.6 -0.1S15 9.3 12 5.2C9 9.3 3.3 10 3.3 10l-0.6 0.1" stroke-width="1"></path><path stroke="#000000" stroke-linecap="round" stroke-linejoin="round" stroke-miterlimit="10" d="M23.25 13c0 -1.2 -0.7965 -2.1 -1.8916 -2.4C20.6615 6 16.7788 2.5 12 2.5c-4.77876 0 -8.6615 3.5 -9.35841 8.1C1.54646 10.9 0.75 11.9 0.75 13c0 1.4 1.09513 2.5 2.38938 2.5 1.39381 3.5 4.77876 6 8.76102 6 3.9823 0 7.3673 -2.5 8.7611 -6 1.5929 0 2.5885 -1.1 2.5885 -2.5Z" stroke-width="1"></path></svg>