<svg xmlns="http://www.w3.org/2000/svg" fill="none" viewBox="0 0 24 24" id="Fetus--Streamline-Ultimate"><desc>Fetus Streamline Icon: https://streamlinehq.com</desc><path stroke="#000000" stroke-linecap="round" stroke-linejoin="round" stroke-miterlimit="10" d="M5.20312 15.0781C2.28444 14.4071 0.432349 11.5104 0.912801 8.48143 1.40523 5.25591 4.39924 3.07063 7.62476 3.56305c3.61864 0.51638 5.95864 4.21037 4.64994 7.87945l-0.2435 0.3388" stroke-width="1"></path><path stroke="#000000" stroke-linecap="round" stroke-linejoin="round" stroke-miterlimit="10" d="M12.7114 15.6353s0.6816 -1.0728 1.0386 -1.9478 -0.1524 -1.7365 -1.0386 -1.9334c-1.3119 -0.2915 -2.4782 1.6064 -3.30514 2.4334l-0.56833 -0.2126c-1.9033 -0.7613 -4.38754 0.8943 -4.27543 3.3607 0.36268 7.979 10.1614 7.0758 11.023 1.4138l1.9078 1.2309c1.9386 1.2616 3.231 -1.077 2.1233 -2.2463 -0.9248 -0.9762 -2.5961 -2.5056 -3.8773 -3.0772 -2.0001 -0.8924 -2.7614 0.5251 -3.0279 0.9785Zm0 0 -0.6489 0.9584" stroke-width="1"></path><path stroke="#000000" stroke-linecap="round" stroke-linejoin="round" stroke-miterlimit="10" d="m8.44876 8.73294 0.59082 -0.59081" stroke-width="1"></path><path stroke="#000000" stroke-linecap="round" stroke-linejoin="round" stroke-miterlimit="10" d="M13.0938 15c1.7675 -1.9469 3.3809 -3.9715 6.2661 -3.9715h0.8843c1.5722 0 2.8495 -1.23786 2.8495 -2.76132s-1.2773 -2.76127 -2.8495 -2.76127c-1.6704 0 -3.1443 -1.33303 -3.1443 -3.04693V0.840303" stroke-width="1"></path></svg>