<svg xmlns="http://www.w3.org/2000/svg" fill="none" viewBox="0 0 24 24" id="Girl-Head--Streamline-Ultimate"><desc>Girl Head Streamline Icon: https://streamlinehq.com</desc><path stroke="#000000" stroke-linecap="round" stroke-linejoin="round" stroke-miterlimit="10" d="M5.00002 7.32278c-1 -0.2 -4.200002 -1.10001 -4.200002 -6.400005 0 0 5.300002 -1.100003 7.200002 4.199995" stroke-width="1"></path><path stroke="#000000" stroke-linecap="round" stroke-linejoin="round" stroke-miterlimit="10" d="M19 7.32278c1 -0.2 4.2 -1.10001 4.2 -6.400005 0 0 -5.3 -1.100003 -7.2 4.199995" stroke-width="1"></path><path stroke="#000000" stroke-linecap="round" stroke-linejoin="round" stroke-miterlimit="10" d="M15 16.35c0 1.7 -1.3 3 -3 3s-3 -1.3 -3 -3h6Z" stroke-width="1"></path><path stroke="#000000" stroke-linecap="round" stroke-linejoin="round" stroke-miterlimit="10" d="M8 13.55c-0.11046 0 -0.2 -0.0895 -0.2 -0.2 0 -0.1105 0.08954 -0.2 0.2 -0.2" stroke-width="1"></path><path stroke="#000000" stroke-linecap="round" stroke-linejoin="round" stroke-miterlimit="10" d="M8.00002 13.55c0.11045 0 0.19999 -0.0895 0.19999 -0.2 0 -0.1105 -0.08954 -0.2 -0.19999 -0.2" stroke-width="1"></path><path stroke="#000000" stroke-linecap="round" stroke-linejoin="round" stroke-miterlimit="10" d="M16 13.55c-0.1105 0 -0.2 -0.0895 -0.2 -0.2 0 -0.1105 0.0895 -0.2 0.2 -0.2" stroke-width="1"></path><path stroke="#000000" stroke-linecap="round" stroke-linejoin="round" stroke-miterlimit="10" d="M16 13.55c0.1105 0 0.2 -0.0895 0.2 -0.2 0 -0.1105 -0.0895 -0.2 -0.2 -0.2" stroke-width="1"></path><path stroke="#000000" stroke-linecap="round" stroke-linejoin="round" stroke-miterlimit="10" d="m21.3 11.95 -0.6 -0.1s-5.7 -0.7 -8.7 -4.79998C9 11.15 3.3 11.85 3.3 11.85l-0.6 0.1" stroke-width="1"></path><path stroke="#000000" stroke-linecap="round" stroke-linejoin="round" stroke-miterlimit="10" d="M2.64159 12.35C3.3385 7.75001 7.22124 4.25 12 4.25c4.7788 0 8.6615 3.50001 9.3584 8.1 1.0951 0.3 1.8916 1.3 1.8916 2.4 0 1.4 -1.0951 2.5 -2.3894 2.5 -1.3938 3.5 -4.8783 6 -8.8606 6 -3.9823 0 -7.46681 -2.5 -8.86062 -6C1.84513 17.25 0.75 16.15 0.75 14.75c0 -1.1 0.79646 -2.1 1.89159 -2.4Z" stroke-width="1"></path></svg>