<svg xmlns="http://www.w3.org/2000/svg" fill="none" viewBox="0 0 24 24" id="Girl-Full-Body--Streamline-Ultimate"><desc>Girl Full Body Streamline Icon: https://streamlinehq.com</desc><path stroke="#000000" stroke-linecap="round" stroke-linejoin="round" stroke-miterlimit="10" d="m16.8336 17.933 -2.3201 0.29 -0.5801 5.027h-3.8669l-0.58001 -5.027 -2.32013 -0.29 1.54676 -5.5103C9.09981 10.8759 10.4532 9.8125 12 9.8125s2.9968 1.0634 3.2869 2.6102l1.5467 5.5103Z" stroke-width="1"></path><path stroke="#000000" stroke-linecap="round" stroke-linejoin="round" d="M6.57813 5.17689h2.09375L7.76562 7.25" stroke-width="1"></path><path stroke="#000000" stroke-linecap="round" stroke-linejoin="round" d="M17.4219 5.17689h-2.0938L16.2344 7.25" stroke-width="1"></path><path stroke="#000000" stroke-linecap="round" stroke-linejoin="round" stroke-miterlimit="10" d="M12 7.68749c1.9157 0 3.4687 -1.55301 3.4687 -3.46875 0 -1.91573 -1.553 -3.468742 -3.4687 -3.468742 -1.1039 0 -2.08728 0.515622 -2.72257 1.319142 -0.46725 0.59099 -0.74618 1.33772 -0.74618 2.1496 0 1.91574 1.55305 3.46875 3.46875 3.46875Z" stroke-width="1"></path><path stroke="#000000" stroke-linecap="round" stroke-linejoin="round" d="M8.59375 3.58124h6.81245" stroke-width="1"></path></svg>