<svg xmlns="http://www.w3.org/2000/svg" fill="none" viewBox="0 0 24 24" id="Infancy-Care--Streamline-Ultimate"><desc>Infancy Care Streamline Icon: https://streamlinehq.com</desc><path stroke="#000000" stroke-linecap="round" stroke-linejoin="round" stroke-miterlimit="10" d="M7.99827 14.5309c0.24436 0.3903 0.23534 0.8766 0.0254 1.3423 -0.20993 0.4658 -0.60025 0.7102 -1.02257 0.8701" stroke-width="1"></path><path stroke="#000000" stroke-linecap="round" stroke-linejoin="round" stroke-miterlimit="10" d="m9.21674 22.085 8.26996 -5.4489" stroke-width="1"></path><path stroke="#000000" stroke-linecap="round" stroke-linejoin="round" stroke-miterlimit="10" d="m8.19598 10.2069 6.28782 2.8341c3.0915 1.5334 3.64 4.5126 2.6748 6.8094 -1.0496 2.3289 -3.6975 4.0074 -6.8939 2.7068l-6.28786 -2.834" stroke-width="1"></path><path stroke="#000000" stroke-linecap="round" stroke-linejoin="round" stroke-miterlimit="10" d="M7.94122 19.8639c2.68218 -1.0156 4.02618 -4.0321 3.00178 -6.7376 -1.02441 -2.7056 -4.02919 -4.07559 -6.7114 -3.06 -2.68222 1.0155 -4.026172 4.0321 -3.00179 6.7376 1.02439 2.7055 4.0292 4.0755 6.71141 3.06Z" stroke-width="1"></path><path stroke="#000000" stroke-linecap="round" stroke-linejoin="round" stroke-miterlimit="10" d="M4.23191 16.8261c-0.09329 0.0353 -0.19757 -0.0117 -0.23289 -0.105 -0.03533 -0.0933 0.01168 -0.1976 0.10497 -0.2329" stroke-width="1"></path><path stroke="#000000" stroke-linecap="round" stroke-linejoin="round" stroke-miterlimit="10" d="M4.23192 16.826c0.09329 -0.0353 0.1403 -0.1396 0.10497 -0.2329 -0.03532 -0.0933 -0.1396 -0.1403 -0.23289 -0.1049" stroke-width="1"></path><path stroke="#000000" stroke-linecap="round" stroke-linejoin="round" stroke-miterlimit="10" d="M6.17378 12.5177c-0.0933 0.0353 -0.19757 -0.0116 -0.2329 -0.1049 -0.03532 -0.0933 0.01168 -0.1976 0.10498 -0.2329" stroke-width="1"></path><path stroke="#000000" stroke-linecap="round" stroke-linejoin="round" stroke-miterlimit="10" d="M6.1738 12.5177c0.09329 -0.0353 0.1403 -0.1396 0.10497 -0.2329 -0.03532 -0.0933 -0.1396 -0.1403 -0.23289 -0.1049" stroke-width="1"></path><path stroke="#000000" stroke-linecap="round" stroke-linejoin="round" stroke-miterlimit="10" d="m13.6687 12.6736 0.7273 6.0017" stroke-width="1"></path><path stroke="#000000" stroke-linecap="round" stroke-linejoin="round" stroke-miterlimit="10" d="M13.2652 5.65499 9.48042 7.84013c-0.86508 0.49946 -2.05906 0.17953 -2.55852 -0.68556 -0.49946 -0.86509 -0.17954 -2.05906 0.68555 -2.55852L12.798 1.59929c1.0813 -0.62432 2.4124 -0.8161 3.6521 -0.666743l3.8439 0.664343 2.706 0" stroke-width="1"></path><path stroke="#000000" stroke-linecap="round" stroke-linejoin="round" stroke-miterlimit="10" d="m23.1347 6.51705 -3.2441 1.87297c-0.9732 0.56189 -2.1337 0.79936 -3.2028 0.6957l-2.5251 -0.12815c-1.0067 0.00448 -1.7849 -0.84388 -1.6812 -1.91299 0.0579 -0.89855 0.7982 -1.61428 1.6343 -1.66446l3.253 0.14042" stroke-width="1"></path></svg>