<svg xmlns="http://www.w3.org/2000/svg" fill="none" viewBox="0 0 24 24" id="Kid-Period--Streamline-Ultimate"><desc>Kid Period Streamline Icon: https://streamlinehq.com</desc><path stroke="#000000" stroke-linecap="round" stroke-linejoin="round" stroke-miterlimit="10" d="M12 23.05c4.9706 0 9 -4.0294 9 -9 0 -4.97056 -4.0294 -9 -9 -9 -4.97056 0 -9 4.02944 -9 9 0 4.9706 4.02944 9 9 9Z" stroke-width="1"></path><path stroke="#000000" stroke-linecap="round" stroke-linejoin="round" stroke-miterlimit="10" d="M13.45 17.15c-0.4 0.3 -1 0.4 -1.5 0.4s-1.1 -0.1 -1.5 -0.4" stroke-width="1"></path><path stroke="#000000" stroke-linecap="round" stroke-linejoin="round" stroke-miterlimit="10" d="M11.95 5.05c1.1 0 2 0.9 2 2s-0.9 2 -2 2" stroke-width="1"></path><path stroke="#000000" stroke-linecap="round" stroke-linejoin="round" stroke-miterlimit="10" d="M5.79999 20.55 3 23.25" stroke-width="1"></path><path stroke="#000000" stroke-linecap="round" stroke-linejoin="round" stroke-miterlimit="10" d="m18.2 20.55 2.8 2.7" stroke-width="1"></path><path stroke="#000000" stroke-linecap="round" stroke-linejoin="round" stroke-miterlimit="10" d="M1.95 7.65c-1.6 -1.6 -1.6 -4.1 0 -5.7 1.6 -1.6 4.10001 -1.6 5.70001 0L1.95 7.65Z" stroke-width="1"></path><path stroke="#000000" stroke-linecap="round" stroke-linejoin="round" stroke-miterlimit="10" d="M22.05 7.65c1.6 -1.6 1.6 -4.1 0 -5.7 -1.6 -1.6 -4.1 -1.6 -5.7 0l5.7 5.7Z" stroke-width="1"></path><path stroke="#000000" stroke-linecap="round" stroke-linejoin="round" stroke-miterlimit="10" d="M9.06562 13.5c-0.27614 0 -0.49999 -0.2238 -0.49999 -0.5 0 -0.2761 0.22385 -0.5 0.49999 -0.5" stroke-width="1"></path><path stroke="#000000" stroke-linecap="round" stroke-linejoin="round" stroke-miterlimit="10" d="M9.06565 13.5c0.27614 0 0.49999 -0.2238 0.49999 -0.5 0 -0.2761 -0.22385 -0.5 -0.49999 -0.5" stroke-width="1"></path><path stroke="#000000" stroke-linecap="round" stroke-linejoin="round" stroke-miterlimit="10" d="M15.15 13.5c-0.2761 0 -0.5 -0.2238 -0.5 -0.5 0 -0.2761 0.2239 -0.5 0.5 -0.5" stroke-width="1"></path><path stroke="#000000" stroke-linecap="round" stroke-linejoin="round" stroke-miterlimit="10" d="M15.15 13.5c0.2762 0 0.5 -0.2238 0.5 -0.5 0 -0.2761 -0.2238 -0.5 -0.5 -0.5" stroke-width="1"></path></svg>