<svg xmlns="http://www.w3.org/2000/svg" fill="none" viewBox="0 0 24 24" id="Kids-Head--Streamline-Ultimate"><desc>Kids Head Streamline Icon: https://streamlinehq.com</desc><path stroke="#000000" stroke-linecap="round" stroke-linejoin="round" stroke-miterlimit="10" d="M16.75 23.25c3.5899 0 6.5 -2.9101 6.5 -6.5s-2.9101 -6.5 -6.5 -6.5 -6.5 2.9101 -6.5 6.5 2.9101 6.5 6.5 6.5Z" stroke-width="1"></path><path stroke="#000000" stroke-linecap="round" stroke-linejoin="round" stroke-miterlimit="10" d="M14.45 17.65c-0.1105 0 -0.2 -0.0895 -0.2 -0.2 0 -0.1105 0.0895 -0.2 0.2 -0.2" stroke-width="1"></path><path stroke="#000000" stroke-linecap="round" stroke-linejoin="round" stroke-miterlimit="10" d="M14.45 17.65c0.1104 0 0.2 -0.0895 0.2 -0.2 0 -0.1105 -0.0896 -0.2 -0.2 -0.2" stroke-width="1"></path><path stroke="#000000" stroke-linecap="round" stroke-linejoin="round" stroke-miterlimit="10" d="M18.95 17.65c-0.1105 0 -0.2 -0.0895 -0.2 -0.2 0 -0.1105 0.0895 -0.2 0.2 -0.2" stroke-width="1"></path><path stroke="#000000" stroke-linecap="round" stroke-linejoin="round" stroke-miterlimit="10" d="M18.95 17.65c0.1105 0 0.2 -0.0895 0.2 -0.2 0 -0.1105 -0.0895 -0.2 -0.2 -0.2" stroke-width="1"></path><path stroke="#000000" stroke-linecap="round" stroke-linejoin="round" stroke-miterlimit="10" d="M23.0625 15.2143s-4.2083 0.526 -6.3125 -2.6302c-2.1042 3.1562 -6.3125 2.6302 -6.3125 2.6302" stroke-width="1"></path><path stroke="#000000" stroke-linecap="round" stroke-linejoin="round" stroke-miterlimit="10" d="M14.95 10.45c-0.2 -2.9 0.3 -6.7 3.2 -6.7 3.7 0 3.5 2.9 5.1 3 0 0 -0.9 2.59999 -3.4 1.39999 -2.1 -0.9 -2.2 1.60001 -2.1 2.10001" stroke-width="1"></path><path stroke="#000000" stroke-linecap="round" stroke-linejoin="round" stroke-miterlimit="10" d="M18.25 20.05c-0.4 0.3 -1 0.4 -1.5 0.4s-1.1 -0.1 -1.5 -0.4" stroke-width="1"></path><path stroke="#000000" stroke-linecap="round" stroke-linejoin="round" stroke-miterlimit="10" d="M7.24999 13.75c-3.6 0 -6.499998 -2.9 -6.499998 -6.5S3.64999 0.75 7.24999 0.75c2.6 0 4.90001 1.59999 5.90001 3.89999" stroke-width="1"></path><path stroke="#000000" stroke-linecap="round" stroke-linejoin="round" stroke-miterlimit="10" d="M5.05 8.14999c-0.11046 0 -0.2 -0.08954 -0.2 -0.19999 0 -0.11046 0.08954 -0.2 0.2 -0.2" stroke-width="1"></path><path stroke="#000000" stroke-linecap="round" stroke-linejoin="round" stroke-miterlimit="10" d="M5.04998 8.14999c0.11046 0 0.2 -0.08954 0.2 -0.19999 0 -0.11046 -0.08954 -0.2 -0.2 -0.2" stroke-width="1"></path><path stroke="#000000" stroke-linecap="round" stroke-linejoin="round" stroke-miterlimit="10" d="M9.55 8.14999c-0.11046 0 -0.2 -0.08954 -0.2 -0.19999 0 -0.11046 0.08954 -0.2 0.2 -0.2" stroke-width="1"></path><path stroke="#000000" stroke-linecap="round" stroke-linejoin="round" stroke-miterlimit="10" d="M9.55 8.14999c0.11045 0 0.19999 -0.08954 0.19999 -0.19999 0 -0.11046 -0.08954 -0.2 -0.19999 -0.2" stroke-width="1"></path><path stroke="#000000" stroke-linecap="round" stroke-linejoin="round" stroke-miterlimit="10" d="M11.55 5.64999c-1.3355 -0.2 -3.18465 -0.7 -4.41742 -2.5 -2.05461 3 -6.16383 2.5 -6.16383 2.5" stroke-width="1"></path><path stroke="#000000" stroke-linecap="round" stroke-linejoin="round" stroke-miterlimit="10" d="M8.85 10.75c-0.4 0.3 -1 0.4 -1.5 0.4s-1.1 -0.1 -1.5 -0.4" stroke-width="1"></path></svg>