<svg xmlns="http://www.w3.org/2000/svg" fill="none" viewBox="0 0 24 24" id="Parent-Carry-Kids-Babies--Streamline-Ultimate"><desc>Parent Carry Kids Babies Streamline Icon: https://streamlinehq.com</desc><path stroke="#000000" stroke-linecap="round" stroke-linejoin="round" stroke-miterlimit="10" d="M12.75 7.75c1.933 0 3.5 -1.567 3.5 -3.5s-1.567 -3.5 -3.5 -3.5 -3.5 1.567 -3.5 3.5 1.567 3.5 3.5 3.5Z" stroke-width="1"></path><path stroke="#000000" stroke-linecap="round" stroke-linejoin="round" stroke-miterlimit="10" d="m16.55 23.25 0.3 -2.1 2.4 -0.4 -2 -7.2c-0.5 -2.1 -2.4 -3.59999 -4.5 -3.59999 -1.6 0 -2.7625 0.53129 -3.5625 1.83119l-0.1875 0.25" stroke-width="1"></path><path stroke="#000000" stroke-linecap="round" stroke-linejoin="round" stroke-miterlimit="10" d="m8.95 23.15 -0.30001 -2.1 -2.39999 -0.4 1.20312 -2.9938" stroke-width="1"></path><path stroke="#000000" stroke-linecap="round" stroke-linejoin="round" stroke-miterlimit="10" d="M5.8875 14.7812c1.53604 0 2.78125 -1.2452 2.78125 -2.7812S7.42354 9.21875 5.8875 9.21875C4.35145 9.21875 3.10625 10.464 3.10625 12s1.2452 2.7812 2.78125 2.7812Z" stroke-width="1"></path><path stroke="#000000" stroke-linecap="round" stroke-linejoin="round" d="M14.8089 10.4518c1.1887 0.6085 2.1142 1.7251 2.4411 3.0982l0.6829 2.4585c-0.2604 2.045 -4.3577 2.9581 -7.6761 2.501l4.5521 -8.0577Z" stroke-width="1"></path><path stroke="#000000" stroke-linecap="round" stroke-linejoin="round" stroke-miterlimit="10" d="M5.8943 14.7812c0.0186 0.3564 0.07567 0.7514 0.17551 1.1875 0.32659 1.4265 2.10323 2.2538 4.18699 2.5408l2.9226 -5.1733c-1.0084 -0.4317 -2.0561 -0.82 -3.0139 -1.0809 -0.52206 -0.1422 -1.0274 -0.2293 -1.49676 -0.2503 -0.00268 1.5315 -1.24318 2.7726 -2.77444 2.7762Z" stroke-width="1"></path></svg>