<svg xmlns="http://www.w3.org/2000/svg" fill="none" viewBox="0 0 24 24" id="Parent-With-Kids-Babies--Streamline-Ultimate"><desc>Parent With Kids Babies Streamline Icon: https://streamlinehq.com</desc><path stroke="#000000" stroke-linecap="round" stroke-linejoin="round" stroke-miterlimit="10" d="m15.1 23.25 5.7 -5.7c0.6 -0.6 0.6 -1.5 0 -2.1 -0.6 -0.6 -1.5 -0.6 -2.1 0l-3.7 3.7c-0.3 0.3 -0.7 0.4 -1.1 0.4h-3.8c-0.40001 0 -0.80001 -0.2 -1.10001 -0.4l-3.7 -3.7c-0.6 -0.6 -1.49999 -0.6 -2.09999 0 -0.6 0.6 -0.6 1.5 0 2.1l5.7 5.7" stroke-width="1"></path><path stroke="#000000" stroke-linecap="round" stroke-linejoin="round" stroke-miterlimit="10" d="M12 17.15c1.6569 0 3 -1.3432 3 -3 0 -1.6569 -1.3431 -3 -3 -3s-3 1.3431 -3 3c0 1.6568 1.3431 3 3 3Z" stroke-width="1"></path><path stroke="#000000" stroke-linecap="round" stroke-linejoin="round" stroke-miterlimit="10" d="M12 4.75c1.1046 0 2 -0.89543 2 -2s-0.8954 -2 -2 -2 -2 0.89543 -2 2 0.8954 2 2 2Z" stroke-width="1"></path><path stroke="#000000" stroke-linecap="round" stroke-linejoin="round" stroke-miterlimit="10" d="m16 9.25 2.1 -2.19999c0.6 -0.6 0.6 -1.50001 0 -2.10001 -0.6 -0.6 -1.5 -0.6 -2.1 0l-2.3 2.39999c-0.4 0.5 -1.1 0.70002 -1.7 0.70002 -0.6 0 -1.3 -0.30002 -1.7 -0.70002L8 4.95c-0.6 -0.6 -1.50001 -0.6 -2.10001 0 -0.6 0.6 -0.6 1.50001 0 2.10001L8 9.25" stroke-width="1"></path></svg>