<svg xmlns="http://www.w3.org/2000/svg" fill="none" viewBox="0 0 24 24" id="Twin--Streamline-Ultimate"><desc>Twin Streamline Icon: https://streamlinehq.com</desc><path stroke="#000000" stroke-linecap="round" stroke-linejoin="round" stroke-miterlimit="10" d="M17.85 19.35c-0.4 0.3 -1 0.4 -1.5 0.4s-1.1 -0.1 -1.5 -0.4" stroke-width="1"></path><path stroke="#000000" stroke-linecap="round" stroke-linejoin="round" stroke-miterlimit="10" d="M16.25 9.25c1.1 0 2 0.9 2 2s-0.9 2 -2 2" stroke-width="1"></path><path stroke="#000000" stroke-linecap="round" stroke-linejoin="round" stroke-miterlimit="10" d="M16.25 23.25c3.866 0 7 -3.134 7 -7s-3.134 -7 -7 -7 -7 3.134 -7 7 3.134 7 7 7Z" stroke-width="1"></path><path stroke="#000000" stroke-linecap="round" stroke-linejoin="round" stroke-miterlimit="10" d="m7.94998 11.25 -0.19998 0c-0.5 0 -1.1 -0.1 -1.5 -0.4" stroke-width="1"></path><path stroke="#000000" stroke-linecap="round" stroke-linejoin="round" stroke-miterlimit="10" d="M7.84998 0.75c1.1 0 2 0.9 2 2s-0.9 2 -2 2" stroke-width="1"></path><path stroke="#000000" stroke-linecap="round" stroke-linejoin="round" stroke-miterlimit="10" d="M5.14999 14.25c-2.6 -1 -4.39999 -3.6 -4.39999 -6.5 0 -3.9 3.1 -7 7 -7 3.2 0 6 2.2 6.8 5.2" stroke-width="1"></path><path stroke="#000000" d="M13.5906 16.25c-0.1381 0 -0.25 -0.1119 -0.25 -0.25s0.1119 -0.25 0.25 -0.25" stroke-width="1"></path><path stroke="#000000" d="M13.5906 16.25c0.1381 0 0.25 -0.1119 0.25 -0.25s-0.1119 -0.25 -0.25 -0.25" stroke-width="1"></path><path stroke="#000000" d="M5.19061 7.25c-0.13807 0 -0.25 -0.11193 -0.25 -0.25s0.11193 -0.25 0.25 -0.25" stroke-width="1"></path><path stroke="#000000" d="M5.19061 7.25c0.13807 0 0.25 -0.11193 0.25 -0.25s-0.11193 -0.25 -0.25 -0.25" stroke-width="1"></path><path stroke="#000000" d="M19.1093 16.25c-0.138 0 -0.25 -0.1119 -0.25 -0.25s0.112 -0.25 0.25 -0.25" stroke-width="1"></path><path stroke="#000000" d="M19.1093 16.25c0.1381 0 0.25 -0.1119 0.25 -0.25s-0.1119 -0.25 -0.25 -0.25" stroke-width="1"></path><path stroke="#000000" d="M10.7094 7.25c-0.1381 0 -0.25 -0.11193 -0.25 -0.25s0.1119 -0.25 0.25 -0.25" stroke-width="1"></path><path stroke="#000000" d="M10.7094 7.25c0.138 0 0.25 -0.11193 0.25 -0.25s-0.112 -0.25 -0.25 -0.25" stroke-width="1"></path></svg>