<svg xmlns="http://www.w3.org/2000/svg" viewBox="0 0 24 24" id="Lyft-Logo--Streamline-Ultimate"><desc>Lyft Logo Streamline Icon: https://streamlinehq.com</desc><g><path d="M0.75 5v7.5a2.5 2.5 0 0 0 2.5 2.5h0" fill="none" stroke="#000000" stroke-linecap="round" stroke-linejoin="round" stroke-width="1"></path><path d="M5.75 8v4.5a2.5 2.5 0 0 0 2.5 2.5h0a2.5 2.5 0 0 0 2.5 -2.5V8" fill="none" stroke="#000000" stroke-linecap="round" stroke-linejoin="round" stroke-width="1"></path><path d="M13.25 15h0a2 2 0 0 0 2 -2V7.75A2.75 2.75 0 0 1 18 5h0a2.75 2.75 0 0 1 2.75 2.75V13a2 2 0 0 0 2 2h0" fill="none" stroke="#000000" stroke-linecap="round" stroke-linejoin="round" stroke-width="1"></path><path d="M10.75 15h0a4 4 0 0 1 -4 4" fill="none" stroke="#000000" stroke-linecap="round" stroke-linejoin="round" stroke-width="1"></path><path d="m10.75 15 0 -2.5" fill="none" stroke="#000000" stroke-linecap="round" stroke-linejoin="round" stroke-width="1"></path><path d="m15.25 10.5 2.5 0" fill="none" stroke="#000000" stroke-linecap="round" stroke-linejoin="round" stroke-width="1"></path><path d="m20.75 8.5 2.5 0" fill="none" stroke="#000000" stroke-linecap="round" stroke-linejoin="round" stroke-width="1"></path></g></svg>