<svg xmlns="http://www.w3.org/2000/svg" viewBox="0 0 24 24" id="Woocommerce-Logo--Streamline-Ultimate"><desc>Woocommerce Logo Streamline Icon: https://streamlinehq.com</desc><g><path d="M3.25 4.25a2.5 2.5 0 0 0 -2.5 2.5v7.5a2.5 2.5 0 0 0 2.5 2.5H11l5.5 3 -1 -3h5.25a2.5 2.5 0 0 0 2.5 -2.5v-7.5a2.5 2.5 0 0 0 -2.5 -2.5Z" fill="none" stroke="#000000" stroke-linecap="round" stroke-linejoin="round" stroke-width="1"></path><path d="M3.6 7.77c0.62 3.56 1.16 5.67 1.16 5.67L7.25 9a7.71 7.71 0 0 0 1.93 4.44 11.16 11.16 0 0 1 1.09 -5.91" fill="none" stroke="#000000" stroke-linecap="round" stroke-linejoin="round" stroke-width="1"></path><path d="M12.9134036618 12.8462078925a2.33 1.47 -78.55 1 0 0.9250692425 -4.5672581377 2.33 1.47 -78.55 1 0 -0.9250692425 4.5672581377" fill="none" stroke="#000000" stroke-linecap="round" stroke-linejoin="round" stroke-width="1"></path><path d="M18.1276548965 12.8498956828a2.33 1.47 -78.55 1 0 0.9250692425 -4.5672581378 2.33 1.47 -78.55 1 0 -0.9250692425 4.5672581378" fill="none" stroke="#000000" stroke-linecap="round" stroke-linejoin="round" stroke-width="1"></path></g></svg>